<svg xmlns="http://www.w3.org/2000/svg" viewBox="0 0 369.63 91.32"><title>reverse</title><path d="M115.33,34.8h3.83l9.13,21.87h-5.22L121.27,52h-8.16l-1.75,4.64h-5.1Zm1.78,6.36L114.56,48h5.13Z" fill="#fff"/><path d="M130.4,34.8h6.94a19.11,19.11,0,0,1,4.79.58,10.88,10.88,0,0,1,4,1.9,9.34,9.34,0,0,1,2.68,3.42,11.88,11.88,0,0,1,1,5.09,10.81,10.81,0,0,1-1,4.68,10.09,10.09,0,0,1-2.59,3.4A11.47,11.47,0,0,1,142.44,56a14.2,14.2,0,0,1-4.48.71H130.4ZM135,52.22h2.4a12.25,12.25,0,0,0,3-.34,6.3,6.3,0,0,0,2.39-1.13,5.25,5.25,0,0,0,1.58-2.07,7.51,7.51,0,0,0,.58-3.13,6.28,6.28,0,0,0-.58-2.8,5.47,5.47,0,0,0-1.55-2,6.74,6.74,0,0,0-2.3-1.16,9.78,9.78,0,0,0-2.78-.39H135Z" fill="#fff"/><path d="M152.91,34.8h7l4.83,14.27h.06l4.86-14.27h7V56.67H172V39.89H172l-5.52,16.78H162.9l-5.31-16.78h-.06V56.67h-4.62Z" fill="#fff"/><path d="M180.84,34.8h4.63V56.67h-4.63Z" fill="#fff"/><path d="M189.68,34.8H196L204.89,50H205V34.8h4.63V56.67h-6.05L194.37,41.1h-.06V56.67h-4.63Z" fill="#fff"/><path d="M213.79,34.8h4.63V56.67h-4.63Z" fill="#fff"/><path d="M233,40.14a3.4,3.4,0,0,0-1.53-1.1,5.42,5.42,0,0,0-1.83-.35,4.66,4.66,0,0,0-1,.12,3.53,3.53,0,0,0-1,.39,2.06,2.06,0,0,0-.77.69,2,2,0,0,0,.41,2.57,6.43,6.43,0,0,0,1.8.89c.72.25,1.49.5,2.33.74a9.54,9.54,0,0,1,2.32,1A5.27,5.27,0,0,1,236.21,50a7.37,7.37,0,0,1-.65,3.18,6.56,6.56,0,0,1-1.77,2.25,7.35,7.35,0,0,1-2.58,1.33,10.85,10.85,0,0,1-3.1.43,10.63,10.63,0,0,1-3.79-.65,9.4,9.4,0,0,1-3.27-2.1l3.3-3.77a4.81,4.81,0,0,0,1.79,1.53,5,5,0,0,0,3.38.41,4,4,0,0,0,1-.42,2.29,2.29,0,0,0,.74-.71,1.82,1.82,0,0,0,.28-1,1.88,1.88,0,0,0-.72-1.56A6.57,6.57,0,0,0,229,48q-1.09-.41-2.37-.81a10.63,10.63,0,0,1-2.37-1.08,5.89,5.89,0,0,1-1.83-1.79,5.33,5.33,0,0,1-.72-2.94,6.81,6.81,0,0,1,.66-3.08A6.73,6.73,0,0,1,224.18,36a7.59,7.59,0,0,1,2.57-1.34,10.08,10.08,0,0,1,3-.45,11,11,0,0,1,3.44.53,7.65,7.65,0,0,1,3,1.76Z" fill="#fff"/><path d="M243.71,39.06h-6V34.8h16.61v4.26h-6V56.67h-4.63Z" fill="#fff"/><path d="M256.67,34.8h8.13a13.62,13.62,0,0,1,3,.32,7.34,7.34,0,0,1,2.52,1.08,5.46,5.46,0,0,1,1.72,2,7.24,7.24,0,0,1,.63,3.2,6.64,6.64,0,0,1-1.15,3.94,5.18,5.18,0,0,1-3.38,2l5.33,9.24H268l-4.39-8.75H261.3v8.75h-4.63Zm4.63,9.05H264c.41,0,.85,0,1.31-.05a3.88,3.88,0,0,0,1.27-.28,2.18,2.18,0,0,0,.93-.72,2.27,2.27,0,0,0,.37-1.39,2.36,2.36,0,0,0-.33-1.33,2.16,2.16,0,0,0-.83-.76A3.6,3.6,0,0,0,265.6,39a8.06,8.06,0,0,0-1.28-.1h-3Z" fill="#fff"/><path d="M282.8,34.8h3.82l9.14,21.87h-5.22L288.73,52h-8.16l-1.75,4.64h-5.1Zm1.78,6.36L282,48h5.13Z" fill="#fff"/><path d="M299.2,39.06h-6V34.8h16.6v4.26h-6V56.67H299.2Z" fill="#fff"/><path d="M311,45.73a12.93,12.93,0,0,1,.84-4.76A10.2,10.2,0,0,1,317.82,35a13.25,13.25,0,0,1,9.07,0A10.2,10.2,0,0,1,332.84,41a13.75,13.75,0,0,1,0,9.52,10.2,10.2,0,0,1-5.95,5.93,13.25,13.25,0,0,1-9.07,0,10.43,10.43,0,0,1-3.59-2.3,10.56,10.56,0,0,1-2.36-3.63A12.89,12.89,0,0,1,311,45.73Zm4.8,0a8.53,8.53,0,0,0,.46,2.83,6.68,6.68,0,0,0,1.32,2.22,6.07,6.07,0,0,0,2.06,1.47,7.19,7.19,0,0,0,5.37,0,6,6,0,0,0,2.06-1.47,6.68,6.68,0,0,0,1.32-2.22,8.87,8.87,0,0,0,0-5.64,6.67,6.67,0,0,0-1.32-2.24A6,6,0,0,0,325,39.21a7.19,7.19,0,0,0-5.37,0,6.07,6.07,0,0,0-2.06,1.47,6.67,6.67,0,0,0-1.32,2.24A8.49,8.49,0,0,0,315.83,45.73Z" fill="#fff"/><path d="M336.83,34.8H345a13.5,13.5,0,0,1,3,.32,7.18,7.18,0,0,1,2.52,1.08,5.29,5.29,0,0,1,1.72,2,7.1,7.1,0,0,1,.64,3.2,6.64,6.64,0,0,1-1.15,3.94,5.2,5.2,0,0,1-3.38,2l5.33,9.24h-5.54l-4.39-8.75h-2.28v8.75h-4.63Zm4.63,9.05h2.72c.42,0,.86,0,1.32-.05a3.76,3.76,0,0,0,1.26-.28,2.15,2.15,0,0,0,.94-.72,2.82,2.82,0,0,0,0-2.72,2.24,2.24,0,0,0-.83-.76,3.6,3.6,0,0,0-1.15-.35,8.16,8.16,0,0,0-1.28-.1h-3Z" fill="#fff"/><path d="M366.42,40.14A3.32,3.32,0,0,0,364.9,39a5.42,5.42,0,0,0-1.83-.35,4.66,4.66,0,0,0-1,.12,3.53,3.53,0,0,0-1,.39,2.06,2.06,0,0,0-.77.69,2,2,0,0,0,.41,2.57,6.43,6.43,0,0,0,1.8.89c.72.25,1.49.5,2.32.74a9.61,9.61,0,0,1,2.33,1A5.27,5.27,0,0,1,369.63,50a7.37,7.37,0,0,1-.65,3.18,6.56,6.56,0,0,1-1.77,2.25,7.35,7.35,0,0,1-2.58,1.33,10.85,10.85,0,0,1-3.1.43,10.63,10.63,0,0,1-3.79-.65,9.4,9.4,0,0,1-3.27-2.1l3.3-3.77a4.81,4.81,0,0,0,1.79,1.53,5,5,0,0,0,2.24.54,5,5,0,0,0,1.14-.13,4,4,0,0,0,1-.42,2.39,2.39,0,0,0,.74-.71,1.82,1.82,0,0,0,.28-1,1.86,1.86,0,0,0-.73-1.56,6.36,6.36,0,0,0-1.82-1q-1.09-.41-2.37-.81a10.63,10.63,0,0,1-2.37-1.08,5.79,5.79,0,0,1-1.83-1.79,5.33,5.33,0,0,1-.72-2.94,6.81,6.81,0,0,1,.66-3.08A6.73,6.73,0,0,1,357.6,36a7.59,7.59,0,0,1,2.57-1.34,10,10,0,0,1,3-.45,11,11,0,0,1,3.44.53,7.65,7.65,0,0,1,3,1.76Z" fill="#fff"/><path d="M107.3,76.5h-1l5.63-8.75h.87l1.82,8.75h-.93l-.47-2.3h-4.47Zm1.94-3.12h3.83l-.91-4.64Z" fill="#fff"/><path d="M118.47,74.15a3.83,3.83,0,0,1,.26-1.4,3.39,3.39,0,0,1,.71-1.13,3.23,3.23,0,0,1,1.08-.77,3.17,3.17,0,0,1,1.35-.28,2.53,2.53,0,0,1,1.18.28,1.83,1.83,0,0,1,.83.84h0l.8-4.54h.83l-1.66,9.35h-.82l.17-1h0a2.51,2.51,0,0,1-.86.77,2.48,2.48,0,0,1-1.27.33,3,3,0,0,1-1.07-.18,2.25,2.25,0,0,1-.82-.52,2.16,2.16,0,0,1-.53-.79A2.53,2.53,0,0,1,118.47,74.15Zm.87-.06a2.21,2.21,0,0,0,.12.74,1.51,1.51,0,0,0,.35.58,1.47,1.47,0,0,0,.57.4,1.86,1.86,0,0,0,.77.14,2.34,2.34,0,0,0,1-.22,2.55,2.55,0,0,0,.81-.61,2.94,2.94,0,0,0,.55-.9,3,3,0,0,0,.19-1.09,2,2,0,0,0-.13-.75,1.68,1.68,0,0,0-.37-.6,1.78,1.78,0,0,0-.6-.39,2.06,2.06,0,0,0-.76-.13,2.32,2.32,0,0,0-1,.22,2.4,2.4,0,0,0-.8.61,2.64,2.64,0,0,0-.51.9A3.3,3.3,0,0,0,119.34,74.09Z" fill="#fff"/><path d="M126.86,76.5H126l1-5.79h.83Zm1.52-8a.6.6,0,0,1-.16.42.61.61,0,0,1-.82,0,.52.52,0,0,1-.17-.41.58.58,0,0,1,.18-.43.61.61,0,0,1,.42-.17.56.56,0,0,1,.39.15A.55.55,0,0,1,128.38,68.48Z" fill="#fff"/><path d="M131,76.5h-.89l-1.21-5.79h.85l.93,4.9h0l2.88-4.9h.9Z" fill="#fff"/><path d="M135.54,76.5h-.83l1-5.79h.82Zm1.52-8a.61.61,0,0,1-.17.42.57.57,0,0,1-.41.17.61.61,0,0,1-.41-.15.51.51,0,0,1-.16-.41.6.6,0,0,1,.59-.6.57.57,0,0,1,.4.15A.59.59,0,0,1,137.06,68.48Z" fill="#fff"/><path d="M141.55,72a1.3,1.3,0,0,0-.51-.53,1.7,1.7,0,0,0-.83-.2,1.93,1.93,0,0,0-.47,0,1.37,1.37,0,0,0-.44.16.85.85,0,0,0-.33.29.7.7,0,0,0-.13.44.74.74,0,0,0,.08.38.68.68,0,0,0,.23.25,1.62,1.62,0,0,0,.35.19l.49.15a3.6,3.6,0,0,1,1.29.63,1.31,1.31,0,0,1,.45,1.07,1.53,1.53,0,0,1-.21.81,1.86,1.86,0,0,1-.53.55,2.33,2.33,0,0,1-.72.32,3.47,3.47,0,0,1-.78.1,3.44,3.44,0,0,1-1.36-.27,2.13,2.13,0,0,1-1-.82l.72-.47a1.76,1.76,0,0,0,.63.61,1.82,1.82,0,0,0,1,.25,3.29,3.29,0,0,0,.54,0,1.7,1.7,0,0,0,.46-.18,1,1,0,0,0,.33-.31.88.88,0,0,0-.24-1.15,4.85,4.85,0,0,0-1-.46l-.52-.2a1.75,1.75,0,0,1-.47-.29,1.58,1.58,0,0,1-.34-.43,1.46,1.46,0,0,1-.13-.62,1.41,1.41,0,0,1,.21-.77,1.61,1.61,0,0,1,.52-.52,2.28,2.28,0,0,1,.71-.31,3.48,3.48,0,0,1,.79-.09,2.7,2.7,0,0,1,1.19.25,1.73,1.73,0,0,1,.76.7Z" fill="#fff"/><path d="M143.79,76.5H143l1-5.79h.83Zm1.52-8a.59.59,0,0,1-1,.44.52.52,0,0,1-.17-.41.58.58,0,0,1,.18-.43.61.61,0,0,1,.42-.17.56.56,0,0,1,.39.15A.55.55,0,0,1,145.31,68.48Z" fill="#fff"/><path d="M148.52,76.65a3.12,3.12,0,0,1-1.07-.19,2.5,2.5,0,0,1-.85-.51,2.44,2.44,0,0,1-.55-.79,2.61,2.61,0,0,1-.2-1,3.72,3.72,0,0,1,.26-1.38,3.53,3.53,0,0,1,.71-1.14,3.42,3.42,0,0,1,1.09-.77,3.31,3.31,0,0,1,1.38-.28,3.35,3.35,0,0,1,1.08.17,2.25,2.25,0,0,1,.84.52,2.21,2.21,0,0,1,.55.79,2.53,2.53,0,0,1,.2,1,4,4,0,0,1-.25,1.4,3.41,3.41,0,0,1-.72,1.13,3.23,3.23,0,0,1-1.08.77A3.32,3.32,0,0,1,148.52,76.65Zm2.57-3.53a2.21,2.21,0,0,0-.12-.74,1.62,1.62,0,0,0-.36-.59,1.74,1.74,0,0,0-.59-.39,2.11,2.11,0,0,0-.77-.14,2.08,2.08,0,0,0-1,.23,2.39,2.39,0,0,0-.79.62,3.1,3.1,0,0,0-.53.9,3.23,3.23,0,0,0-.19,1.08,2,2,0,0,0,.13.74,1.54,1.54,0,0,0,.36.59,1.56,1.56,0,0,0,.58.39,1.89,1.89,0,0,0,.77.14,2.18,2.18,0,0,0,1-.23,2.47,2.47,0,0,0,.79-.61,2.66,2.66,0,0,0,.52-.9A3.28,3.28,0,0,0,151.09,73.12Z" fill="#fff"/><path d="M154.86,70.71c0,.16,0,.33-.06.52s-.05.35-.07.47h0a2.44,2.44,0,0,1,.86-.83,2.24,2.24,0,0,1,1.12-.3,2.1,2.1,0,0,1,1.47.47,1.67,1.67,0,0,1,.53,1.29c0,.1,0,.2,0,.3s0,.21,0,.32L158,76.5h-.83l.57-3.2a3.83,3.83,0,0,0,.07-.73,1.46,1.46,0,0,0-.28-1,1.21,1.21,0,0,0-1-.35,1.74,1.74,0,0,0-.67.13,2,2,0,0,0-.63.42,3,3,0,0,0-.51.71,3.53,3.53,0,0,0-.32,1l-.52,3h-.83l.79-4.51c0-.16.07-.36.11-.61s.06-.47.08-.67Z" fill="#fff"/><path d="M165.63,76.65a3.14,3.14,0,0,1-1.08-.19,2.5,2.5,0,0,1-.85-.51,2.38,2.38,0,0,1-.74-1.81,3.72,3.72,0,0,1,.25-1.38,3.53,3.53,0,0,1,.71-1.14,3.42,3.42,0,0,1,1.09-.77,3.53,3.53,0,0,1,2.46-.11,2.25,2.25,0,0,1,.84.52,2.21,2.21,0,0,1,.55.79,2.53,2.53,0,0,1,.2,1,3.82,3.82,0,0,1-.25,1.4,3.55,3.55,0,0,1-.71,1.13,3.37,3.37,0,0,1-1.09.77A3.31,3.31,0,0,1,165.63,76.65Zm2.56-3.53a2.21,2.21,0,0,0-.12-.74,1.62,1.62,0,0,0-.36-.59,1.74,1.74,0,0,0-.59-.39,2.24,2.24,0,0,0-1.77.09,2.5,2.5,0,0,0-.79.62,2.87,2.87,0,0,0-.52.9,3,3,0,0,0-.19,1.08,2.17,2.17,0,0,0,.12.74,1.54,1.54,0,0,0,.36.59,1.65,1.65,0,0,0,.58.39,1.89,1.89,0,0,0,.77.14,2.18,2.18,0,0,0,1-.23,2.36,2.36,0,0,0,.79-.61,2.66,2.66,0,0,0,.52-.9A3.28,3.28,0,0,0,168.19,73.12Z" fill="#fff"/><path d="M173.52,71.41h-1.36l-.89,5.09h-.83l.89-5.09h-1.22l.14-.7h1.19l.28-1.57a3.84,3.84,0,0,1,.23-.82,2.38,2.38,0,0,1,.43-.68,2.09,2.09,0,0,1,.63-.46,2.14,2.14,0,0,1,.87-.17,1.83,1.83,0,0,1,.33,0,2.14,2.14,0,0,1,.35.06l-.2.73a2.1,2.1,0,0,0-.58-.07,1.13,1.13,0,0,0-.51.11.9.9,0,0,0-.36.31,2.15,2.15,0,0,0-.24.48,3.51,3.51,0,0,0-.14.58l-.26,1.48h1.39Z" fill="#fff"/><path d="M181.48,75h0l4.24-7.24h1.35l-1.55,8.75h-.88L186,68.93h0l-4.49,7.57H181l-1.83-7.57h0l-1.33,7.57h-.87l1.55-8.75h1.33Z" fill="#fff"/><path d="M190.32,76.65a3.12,3.12,0,0,1-1.07-.19,2.5,2.5,0,0,1-.85-.51,2.38,2.38,0,0,1-.74-1.81,3.72,3.72,0,0,1,.25-1.38,3.53,3.53,0,0,1,.71-1.14,3.42,3.42,0,0,1,1.09-.77,3.53,3.53,0,0,1,2.46-.11,2.25,2.25,0,0,1,.84.52,2.21,2.21,0,0,1,.55.79,2.53,2.53,0,0,1,.2,1,4,4,0,0,1-.25,1.4,3.55,3.55,0,0,1-.71,1.13,3.37,3.37,0,0,1-1.09.77A3.32,3.32,0,0,1,190.32,76.65Zm2.57-3.53a2.21,2.21,0,0,0-.12-.74,1.62,1.62,0,0,0-.36-.59,1.74,1.74,0,0,0-.59-.39,2.24,2.24,0,0,0-1.77.09,2.39,2.39,0,0,0-.79.62,2.87,2.87,0,0,0-.52.9,3,3,0,0,0-.19,1.08,2.17,2.17,0,0,0,.12.74,1.54,1.54,0,0,0,.36.59,1.56,1.56,0,0,0,.58.39,1.89,1.89,0,0,0,.77.14,2.18,2.18,0,0,0,1-.23,2.36,2.36,0,0,0,.79-.61,2.66,2.66,0,0,0,.52-.9A3.28,3.28,0,0,0,192.89,73.12Z" fill="#fff"/><path d="M195.78,71.38c0-.25.06-.47.08-.67h.79c0,.16,0,.33-.06.52s-.05.35-.07.47h0a2.57,2.57,0,0,1,.82-.82,2,2,0,0,1,1.11-.31h.28a1.32,1.32,0,0,1,.26,0l-.2.79a1,1,0,0,0-.22,0l-.34,0a1.85,1.85,0,0,0-.66.13,1.68,1.68,0,0,0-.59.39,2.62,2.62,0,0,0-.47.68,3.87,3.87,0,0,0-.3,1l-.52,3h-.83l.8-4.51C195.71,71.83,195.74,71.63,195.78,71.38Z" fill="#fff"/><path d="M198.94,77.71a2.27,2.27,0,0,0,.87.73,2.54,2.54,0,0,0,1.23.29,2.83,2.83,0,0,0,1.06-.18,2,2,0,0,0,.74-.49,2.23,2.23,0,0,0,.47-.73,4.26,4.26,0,0,0,.26-.88l.21-1.1h0a2.8,2.8,0,0,1-1,.85,2.6,2.6,0,0,1-1.23.3,3,3,0,0,1-1.07-.19,2.3,2.3,0,0,1-.81-.54,2.28,2.28,0,0,1-.51-.81,2.66,2.66,0,0,1-.18-1,3.41,3.41,0,0,1,.95-2.4,3.29,3.29,0,0,1,2.42-1,2.62,2.62,0,0,1,.62.07,2.32,2.32,0,0,1,.57.22,1.92,1.92,0,0,1,.48.37,1.58,1.58,0,0,1,.33.48h0l.18-1h.82l-1,5.74a6.45,6.45,0,0,1-.26,1,2.88,2.88,0,0,1-.53,1,3,3,0,0,1-1,.75,4.21,4.21,0,0,1-3.12,0,2.8,2.8,0,0,1-1.11-.85Zm.9-3.73a2.06,2.06,0,0,0,.12.7,1.71,1.71,0,0,0,.36.59,1.56,1.56,0,0,0,.58.39,2,2,0,0,0,.79.14,2.45,2.45,0,0,0,1-.21,2.48,2.48,0,0,0,.8-.59,2.86,2.86,0,0,0,.52-.86,2.94,2.94,0,0,0,.18-1,1.92,1.92,0,0,0-.13-.72,1.64,1.64,0,0,0-.37-.59,1.69,1.69,0,0,0-.58-.39,1.94,1.94,0,0,0-.78-.15,2.44,2.44,0,0,0-1,.2,2.21,2.21,0,0,0-.79.55,2.59,2.59,0,0,0-.52.85A3.33,3.33,0,0,0,199.84,74Z" fill="#fff"/><path d="M210.75,73c0-.14,0-.25.05-.33a1.62,1.62,0,0,0,0-.21,1,1,0,0,0-.36-.89,1.63,1.63,0,0,0-1-.26,2.66,2.66,0,0,0-1,.2,2.94,2.94,0,0,0-.8.49l-.37-.56a3.56,3.56,0,0,1,2.26-.82,3.33,3.33,0,0,1,.78.09A2,2,0,0,1,211,71a1.59,1.59,0,0,1,.44.52,1.64,1.64,0,0,1,.17.76c0,.08,0,.18,0,.31a2.15,2.15,0,0,1,0,.31l-.42,2.35c0,.22-.07.45-.1.69s0,.44,0,.61h-.74c0-.14,0-.3,0-.46a3.5,3.5,0,0,1,.06-.48h0a4.53,4.53,0,0,1-.49.49,2.86,2.86,0,0,1-.51.32,1.9,1.9,0,0,1-.57.18,3.37,3.37,0,0,1-.66.06,2.62,2.62,0,0,1-.61-.08,1.58,1.58,0,0,1-.56-.25,1.43,1.43,0,0,1-.42-.46,1.41,1.41,0,0,1-.17-.71,1.57,1.57,0,0,1,.4-1.12,2.5,2.5,0,0,1,1-.65,5.91,5.91,0,0,1,1.43-.31C209.68,73,210.21,73,210.75,73Zm-.31.63a11.17,11.17,0,0,0-1.14.06,4.16,4.16,0,0,0-1.05.21,2,2,0,0,0-.78.43.94.94,0,0,0-.3.73.86.86,0,0,0,.1.45.73.73,0,0,0,.26.29,1.16,1.16,0,0,0,.38.15,2.36,2.36,0,0,0,1.26-.11,2,2,0,0,0,.65-.41,2.22,2.22,0,0,0,.47-.59,2.36,2.36,0,0,0,.26-.73l.09-.48Z" fill="#fff"/><path d="M214.68,70.71c0,.16,0,.33-.06.52s-.05.35-.08.47h0a2.44,2.44,0,0,1,.86-.83,2.21,2.21,0,0,1,1.12-.3A2.1,2.1,0,0,1,218,71a1.67,1.67,0,0,1,.53,1.29c0,.1,0,.2,0,.3s0,.21,0,.32l-.64,3.55H217l.57-3.2a3.88,3.88,0,0,0,.08-.73,1.47,1.47,0,0,0-.29-1,1.2,1.2,0,0,0-1-.35,1.81,1.81,0,0,0-.67.13,1.89,1.89,0,0,0-.62.42,3,3,0,0,0-.51.71,3.24,3.24,0,0,0-.32,1l-.52,3h-.83l.79-4.51c0-.16.07-.36.11-.61s.06-.47.08-.67Z" fill="#fff"/><path d="M224.9,75.27h0l3.65-7.52h1.06l.73,7.52h0l3.6-7.52h.94l-4.26,8.75h-1L228.91,69h0l-3.7,7.54h-1l-.91-8.75h.94Z" fill="#fff"/><path d="M238,70.57a2.1,2.1,0,0,1,1.46.47,1.67,1.67,0,0,1,.53,1.29c0,.1,0,.2,0,.3s0,.21,0,.32l-.63,3.55h-.83l.56-3.2a3.88,3.88,0,0,0,.08-.73,1.47,1.47,0,0,0-.29-1,1.26,1.26,0,0,0-1-.35,1.77,1.77,0,0,0-.67.13,1.89,1.89,0,0,0-.62.42,3,3,0,0,0-.5.71,3.53,3.53,0,0,0-.31,1l-.52,3h-.83L236,67.15h.83L236,71.67h0a2.33,2.33,0,0,1,.84-.81A2.14,2.14,0,0,1,238,70.57Z" fill="#fff"/><path d="M242.16,76.5h-.83l1-5.79h.83Zm1.52-8a.61.61,0,0,1-.17.42.59.59,0,0,1-.81,0,.52.52,0,0,1-.17-.41.58.58,0,0,1,.18-.43.6.6,0,0,1,.41-.17.57.57,0,0,1,.4.15A.55.55,0,0,1,243.68,68.48Z" fill="#fff"/><path d="M247.55,71.41H246l-.61,3.39a3,3,0,0,0,0,.4.62.62,0,0,0,.19.54.94.94,0,0,0,.52.14,1.89,1.89,0,0,0,.39,0,1,1,0,0,0,.32-.15l-.1.72a1.39,1.39,0,0,1-.42.13,3,3,0,0,1-.53,0,2.1,2.1,0,0,1-.43,0,1,1,0,0,1-.69-.53,1.2,1.2,0,0,1-.12-.57,1.91,1.91,0,0,1,0-.39l.64-3.62H244l.14-.7h1.17l.29-1.63h.82l-.28,1.63h1.59Z" fill="#fff"/><path d="M248.72,73.83s0,.1,0,.14v.13a1.86,1.86,0,0,0,.14.75,1.8,1.8,0,0,0,.39.58,1.73,1.73,0,0,0,.6.39,1.93,1.93,0,0,0,.73.13,2.29,2.29,0,0,0,1.19-.3,2.69,2.69,0,0,0,.81-.71l.52.49a3.18,3.18,0,0,1-1.17.91,3.46,3.46,0,0,1-1.42.31,3,3,0,0,1-1-.18,2.37,2.37,0,0,1-.83-.49,2.31,2.31,0,0,1-.56-.8,2.67,2.67,0,0,1-.2-1.08,3.45,3.45,0,0,1,.26-1.35,3.51,3.51,0,0,1,.71-1.12,3.4,3.4,0,0,1,1.06-.77,3,3,0,0,1,1.31-.29,2.39,2.39,0,0,1,1.8.63,2.23,2.23,0,0,1,.61,1.63,4.28,4.28,0,0,1-.11,1Zm4-.62a1.5,1.5,0,0,0,0-.22c0-.07,0-.15,0-.21a1.54,1.54,0,0,0-.41-1.1,1.59,1.59,0,0,0-1.2-.42,2.37,2.37,0,0,0-.85.15,2.43,2.43,0,0,0-.69.43,2.77,2.77,0,0,0-.51.62,2.68,2.68,0,0,0-.3.75Z" fill="#fff"/><path d="M261.89,76a5.61,5.61,0,0,0,1.4-.16,3.76,3.76,0,0,0,1.09-.43l.47-2.68h-2.07l.14-.76h2.93l-.7,4a6.05,6.05,0,0,1-1.6.65,7.28,7.28,0,0,1-1.71.2,4.59,4.59,0,0,1-1.6-.27,3.66,3.66,0,0,1-1.24-.77,3.42,3.42,0,0,1-.8-1.19,4,4,0,0,1-.29-1.53,5.54,5.54,0,0,1,1.53-3.85A5.4,5.4,0,0,1,261.1,68a5,5,0,0,1,2-.42,4.73,4.73,0,0,1,.93.09,4.36,4.36,0,0,1,.84.28,3.17,3.17,0,0,1,.68.44,2,2,0,0,1,.49.58l-.8.53A1.76,1.76,0,0,0,265,69a2,2,0,0,0-.47-.37,2.52,2.52,0,0,0-.62-.27,2.73,2.73,0,0,0-.78-.1,3.85,3.85,0,0,0-1.73.39,4.25,4.25,0,0,0-1.34,1,4.59,4.59,0,0,0-.88,1.46,4.76,4.76,0,0,0-.32,1.71,3.64,3.64,0,0,0,.2,1.2,2.71,2.71,0,0,0,.59,1,2.81,2.81,0,0,0,.95.65A3.28,3.28,0,0,0,261.89,76Z" fill="#fff"/><path d="M267.89,71.38a6.34,6.34,0,0,0,.08-.67h.79c0,.16,0,.33-.06.52s-.05.35-.07.47h0a2.67,2.67,0,0,1,.82-.82,2,2,0,0,1,1.11-.31h.28a1.19,1.19,0,0,1,.26,0l-.19.79-.23,0a2,2,0,0,0-.34,0,1.89,1.89,0,0,0-.66.13,1.57,1.57,0,0,0-.58.39,2.21,2.21,0,0,0-.47.68,3.5,3.5,0,0,0-.31,1l-.52,3H267l.79-4.51C267.82,71.83,267.86,71.63,267.89,71.38Z" fill="#fff"/><path d="M273.63,76.65a3.08,3.08,0,0,1-1.07-.19,2.41,2.41,0,0,1-.85-.51,2.44,2.44,0,0,1-.55-.79,2.61,2.61,0,0,1-.2-1,3.72,3.72,0,0,1,.26-1.38A3.41,3.41,0,0,1,273,70.85a3.32,3.32,0,0,1,1.39-.28,3.4,3.4,0,0,1,1.08.17,2.42,2.42,0,0,1,.84.52,2.34,2.34,0,0,1,.55.79,2.53,2.53,0,0,1,.2,1,3.83,3.83,0,0,1-.26,1.4,3.39,3.39,0,0,1-.71,1.13,3.23,3.23,0,0,1-1.08.77A3.39,3.39,0,0,1,273.63,76.65Zm2.57-3.53a2.21,2.21,0,0,0-.12-.74,1.52,1.52,0,0,0-.37-.59,1.69,1.69,0,0,0-.58-.39,2.13,2.13,0,0,0-.78-.14,2.06,2.06,0,0,0-1,.23,2.39,2.39,0,0,0-.79.62,2.89,2.89,0,0,0-.53.9,3.23,3.23,0,0,0-.19,1.08,2,2,0,0,0,.13.74,1.54,1.54,0,0,0,.36.59,1.56,1.56,0,0,0,.58.39,1.86,1.86,0,0,0,.77.14,2.12,2.12,0,0,0,1-.23,2.4,2.4,0,0,0,.8-.61,2.84,2.84,0,0,0,.52-.9A3.28,3.28,0,0,0,276.2,73.12Z" fill="#fff"/><path d="M282.24,76.5c0-.16,0-.33.07-.52s.05-.35.07-.47h0a2.53,2.53,0,0,1-.86.83,2.25,2.25,0,0,1-1.12.31,2.14,2.14,0,0,1-1.47-.47,1.66,1.66,0,0,1-.52-1.29c0-.1,0-.2,0-.3s0-.2,0-.32l.64-3.54h.83l-.57,3.2a3.83,3.83,0,0,0-.07.73,1.45,1.45,0,0,0,.28,1,1.23,1.23,0,0,0,1,.34,1.72,1.72,0,0,0,.66-.13,1.93,1.93,0,0,0,.63-.42,2.75,2.75,0,0,0,.51-.7,3.53,3.53,0,0,0,.32-1l.52-3H284l-.79,4.51c0,.15-.07.35-.1.6a5.89,5.89,0,0,0-.08.66Z" fill="#fff"/><path d="M286.9,71.65a1.75,1.75,0,0,1,.36-.42,2.93,2.93,0,0,1,.5-.34,3.13,3.13,0,0,1,.6-.24,2.46,2.46,0,0,1,.67-.08,3.29,3.29,0,0,1,1.07.17,2.34,2.34,0,0,1,.82.52,2.16,2.16,0,0,1,.53.79,2.71,2.71,0,0,1,.18,1,3.82,3.82,0,0,1-.25,1.4,3.58,3.58,0,0,1-.72,1.13,3.19,3.19,0,0,1-1.07.77,3.24,3.24,0,0,1-1.35.29,2.51,2.51,0,0,1-1.18-.29,1.9,1.9,0,0,1-.84-.84h0l-.71,3.94h-.82l1.55-8.75h.83l-.17.94Zm3.87,1.47a2.19,2.19,0,0,0-.12-.73,1.6,1.6,0,0,0-.35-.59,1.64,1.64,0,0,0-.57-.4,2.05,2.05,0,0,0-.78-.14,2.29,2.29,0,0,0-1,.22,2.7,2.7,0,0,0-.82.61,3,3,0,0,0-.54.91,3,3,0,0,0-.2,1.08,2.18,2.18,0,0,0,.13.75,1.71,1.71,0,0,0,.38.6,1.6,1.6,0,0,0,.59.39,2,2,0,0,0,.77.13,2.32,2.32,0,0,0,1-.22,2.4,2.4,0,0,0,.8-.61,2.64,2.64,0,0,0,.51-.9A3.3,3.3,0,0,0,290.77,73.12Z" fill="#fff"/><circle cx="45.66" cy="45.66" r="44.59" fill="#00205c" stroke="#fff" stroke-miterlimit="10" stroke-width="2.14"/><path d="M72.53,33.68a8.26,8.26,0,0,1,6.06,2.55,14.46,14.46,0,0,1,2.93,5.05c.07.22.14.33.36.29l.88-.15c.15,0,.15-.21.15-.51l-.37-7.31c0-.29-.07-.51-.44-.51-.22,0-.33.11-.51.37l-.44.58c-.22.29-.44.4-.87.07a13.54,13.54,0,0,0-7.46-2c-6.75,0-11.59,1.45-14.72,11.19l-3,7.83L50.55,40.93s-1.91-4.56-2.74-4.56S45,40.62,45,40.62,40.09,51.18,39.8,52l-.08,0L34,35a.88.88,0,0,1,.88-1.28h.69c.26,0,.33-.11.33-.29v-.92c0-.18-.07-.25-.29-.25l-3.58.09c-.17,0-.44.53-.71,1.23-1.11,2.5-6.44,14.12-6.74,15h-.15l-6.61-15.4c-.15-.44-.4-.8-.92-.8s-.8.58-1,.95c-.73,1.83-8.18,22.29-8.55,23.1a1.79,1.79,0,0,1-1.61,1.2H2.9c-.22,0-.26.11-.26.3v1c0,.11.08.19.22.19.3,0,3.56-.11,5.61-.11,2.26,0,3.5.11,3.87.11s.29-.11.29-.3V58c0-.19,0-.3-.25-.3h-1c-.88,0-1.24-.51-1.24-1,0-2,4.16-14.07,5.26-17.29h.15l5.26,13.06s1.2,2.86,1.95,2.86c1.15,0,2.87-4,2.87-4s4.94-11,5.23-11.78l.07,0,5.69,16.89a.87.87,0,0,1-.88,1.27h-.69c-.26,0-.33.11-.33.3v.91c0,.18.07.26.29.26s1.23,0,3-.07a1,1,0,0,0,.69-.31,1.11,1.11,0,0,0,.37-.49c.15-.4,6.62-14,6.95-15.05h.14L52.81,58.2c.15.44.4.81.91.81,2,0,2.61-.78,3.39-3,.41-1.15,2.79-7.86,5-13.56C64.63,35.66,68.57,33.68,72.53,33.68ZM90,47.25c-.37,0-7.29.11-10.35.11s-4.76-.11-5.2-.11c-.14,0-.21.07-.21.29v.84c0,.18.07.33.29.33H76.1c1,0,1.32.37,1.32,1.68v2.67c0,1.9-.07,2.92-.88,3.36-1.24.66-2.63.61-5,.61-3.63,0-6.24-2.28-9.24-4.7-.46-.37-.71-.19-.83,0s-.59,1.39-.72,1.7A.87.87,0,0,0,61,55.09c2.52,2.8,6.82,4,10.29,4a21.1,21.1,0,0,0,10.38-2.41c.36-.14.58-.29.58-.58s-.14-.66-.14-1.17V50.06c0-1.06.44-1.35,1.09-1.35h6.92c.22,0,.29-.07.29-.29V47.5C90.4,47.32,90.33,47.25,90,47.25Z" fill="#fff"/></svg>