<svg xmlns="http://www.w3.org/2000/svg" viewBox="0 0 162.7 52.6"><title>Broker Portal Logos (No Branding vScript)</title><path d="M92.8,21c2.4,0,4.5-1.7,6-3.4,1,1.4,2.7,3,4,3a4.2,4.2,0,0,0,3.8-2.6,13.1,13.1,0,0,0,.2-4,7.9,7.9,0,0,1,1-3.7,0.2,0.2,0,0,0,0-.2l-0.2-.2c-0.6-.4-1.8-1.4-2.5-1.4s-2.2,3.8-5.2,6.4a0.7,0.7,0,0,0-.5-0.4,1.6,1.6,0,0,0-1.2,1.8v0.2a21.1,21.1,0,0,1-4.4,2.4l-1.2.3a1.1,1.1,0,0,1-1.1-.9,3.4,3.4,0,0,1,.4-1.8,3.3,3.3,0,0,0,2,.9c1.9,0,5.3-3.5,4.9-5.9a2.7,2.7,0,0,0-1.3-1.6,3.9,3.9,0,0,0-2.1-1.2c-0.9,0-2.3.8-4,2.6a10.6,10.6,0,0,0-2.6,4.1c-2,1.7-5.1,3.3-6.8,3.3a0.7,0.7,0,0,1-.9-0.6c-0.2-.9.4-1.7,1.5-3s1.8-2.1,2.3-2.1,1,1.9,1.5,1.9a3.1,3.1,0,0,0,1.3-1.2,3.7,3.7,0,0,0,1.1-2.1,3.3,3.3,0,0,0-1.1-1.2,3,3,0,0,0-2-1c-1.2,0-3.6,1.4-5.4,3.8a4.4,4.4,0,0,0-1.1,2.2c-2,1.6-5,3.3-6.7,3.3a0.7,0.7,0,0,1-.9-0.6c-0.2-.9.4-1.7,1.5-3s1.8-2.1,2.3-2.1,1,1.9,1.5,1.9a3.1,3.1,0,0,0,1.3-1.2,3.7,3.7,0,0,0,1.1-2.1,3.3,3.3,0,0,0-1.1-1.2,3,3,0,0,0-2-1c-1.2,0-3.6,1.4-5.4,3.8a4,4,0,0,0-1.1,2.9c-1.7,1.8-4.2,3.7-4.9,3.7a0.3,0.3,0,0,1-.3-0.3c-0.1-.8.5-2.5,1.3-4.1h3.1c0.2,0,.3-0.1.3-0.2a3.5,3.5,0,0,0-2.3-1.9l0.6-1.1c2.6-5.3,6-9,5.9-9.5S69.7,0,68.4,0a0.9,0.9,0,0,0-.6.5,102,102,0,0,1-11,13.1H54.2a10.7,10.7,0,0,1-1.7-.3c-0.2,0-.2.3-0.2,0.5s0.3,1.2,2.6,1.4A33,33,0,0,1,50.1,19a3.2,3.2,0,0,1-1.4.5,1,1,0,0,1-1-1,3.8,3.8,0,0,1,.2-2.3c0.9-2.3,2.8-3.9,4.7-5.3a0.8,0.8,0,0,0,.3-0.9,0.6,0.6,0,0,0-.5-0.7A11.3,11.3,0,0,0,48,11.4c-1.4,1.2-2.6,3-2.3,5.1a6.3,6.3,0,0,0,1.5,3.1c0.3,0.6,2,4.8,1.7,7.3,0,0,2.4-2.9,10-3.3,0,0-5.9-1.1-8.8.8A33.3,33.3,0,0,0,47.5,20a8.9,8.9,0,0,0,2.1,1.6l0.7,0.2c1.6,0,4.7-2.5,8.1-6.1h3.9a6.5,6.5,0,0,0-.3,3.2c0.1,0.5,1.2,2.8,2.8,2.8s4.1-2.3,5.4-3.9c0.6,1.4,1.7,2.9,2.4,3.1h0.9c1.7,0,4.4-2.1,6-3.9,0.4,1.6,1.8,3.6,2.6,3.8h0.9c1.6,0,4.2-1.9,5.8-3.7,0,0.1,0,.2,0,0.3S91.7,21,92.8,21Zm10.8-7.9,0.3-.2H104a15.3,15.3,0,0,1-.3,2.9c-0.3,1.4-.7,2.6-1.4,2.6s-1.4-1-1.9-2A27.4,27.4,0,0,0,103.6,13.1Zm-7.6-1.9,0.5-.2a0.3,0.3,0,0,1,.3.3c0.1,0.8-2.5,4.4-3.9,4.4a0.8,0.8,0,0,1-.7-0.3A17.7,17.7,0,0,1,96.1,11.2ZM63.1,13l-2.8.3a95.3,95.3,0,0,0,7-9.4,0.7,0.7,0,0,1,.4-0.4h0.1a0.5,0.5,0,0,1-.1.3A100.6,100.6,0,0,0,63.1,13Z"/><path d="M107.4,16.3c0.2,1.3,2.9,4.3,4.6,4.3a4.2,4.2,0,0,0,3.8-2.6,13.1,13.1,0,0,0,.2-4,7.9,7.9,0,0,1,1-3.7,0.2,0.2,0,0,0,0-.2l-0.2-.2c-0.6-.4-1.8-1.4-2.5-1.4s-2.2,3.8-5.2,6.4a0.7,0.7,0,0,0-.5-0.4A1.6,1.6,0,0,0,107.4,16.3Zm5.5-3.1,0.3-.2h0.1a15.3,15.3,0,0,1-.3,2.9c-0.3,1.4-.7,2.6-1.4,2.6s-1.4-1-1.9-2A27.4,27.4,0,0,0,112.9,13.1Z"/><path d="M23.2,27.6c-1.4-.7-2.5-0.9-6.8-0.9H0V47.2H6.5v-5H17c3.3,0,4.9-.2,6-0.7s3-3,3-7.3S25.2,28.6,23.2,27.6ZM16,37.2H6.5V31.7H16c2.8,0,3.5.6,3.5,3S18.7,37.2,16,37.2Z"/><path d="M88,33.5c0-3.2-.8-5.1-2.6-6s-2.8-.8-6-0.8H60.9V47.2h6.5V42h10c1.8,0,2.3.1,2.8,0.4a2.4,2.4,0,0,1,.8,2.2v2.5h6.6V44a5,5,0,0,0-.6-3c-0.6-1-1.5-1.3-4-1.4H82c2.6-.4,3.4-0.6,4.2-1.1S88,35.9,88,33.5ZM77.6,37H67.4V31.7H77.9c2,0,2.5.1,3,.6s0.5,1,.5,2.4S80.8,37,77.6,37Z"/><polygon points="114.7 26.7 89 26.7 89 31.8 98.6 31.8 98.6 47.2 105.1 47.2 105.1 31.8 114.7 31.8 114.7 26.7"/><path d="M119.9,26.7L107.8,47.2h7.4l2.1-3.7h13.9l2.1,3.7h7.2L128.7,26.7h-8.8Zm-0.3,12.6,4.6-8.2,4.6,8.2h-9.2Z"/><polygon points="147.9 42.1 147.9 26.7 141.4 26.7 141.4 47.2 162.7 47.2 162.7 42.1 147.9 42.1"/><path d="M60.2,24.1c-5.7,3.2-12.5,10.7-12.8,11.1l-0.3.2,5,2.1L40.4,42.3,36.8,30.5l5.3,2.8A49,49,0,0,1,43.2,24a26.7,26.7,0,0,1,1.5-4.4l-0.3-.2c-0.4.9-.8,1.8-1.1,2.7a15.3,15.3,0,1,0,12.2,6.1,25.9,25.9,0,0,1,4.9-3.8ZM43.3,49.4a12,12,0,0,1-1.1-24c-0.7,2.6-1,4.9-1.3,6.3l-4.8-2.1,3.1,16.1,15.2-7.9-5.3-2.3c0.7-1,2.3-2.9,4.1-4.9A12,12,0,0,1,43.3,49.4Z"/></svg>