<?xml version="1.0" standalone="no"?>
<!DOCTYPE svg PUBLIC "-//W3C//DTD SVG 20010904//EN"
 "http://www.w3.org/TR/2001/REC-SVG-20010904/DTD/svg10.dtd">
<svg version="1.0" xmlns="http://www.w3.org/2000/svg"
 width="800.000000pt" height="212.000000pt" viewBox="0 0 800.000000 212.000000"
 preserveAspectRatio="xMidYMid meet">

<g transform="translate(0.000000,212.000000) scale(0.100000,-0.100000)"
fill="#000000" stroke="none">
<path d="M860 1916 c0 -4 90 -263 190 -551 22 -60 49 -141 62 -178 l23 -68 59
3 58 3 69 200 c38 110 80 235 95 278 14 42 29 77 33 77 4 0 38 -91 76 -202 38
-112 81 -237 95 -278 l26 -75 62 -3 c42 -2 62 1 62 9 0 6 59 179 130 384 72
206 130 381 130 389 0 13 -12 16 -64 16 l-64 0 -16 -42 c-8 -24 -50 -151 -92
-283 -42 -132 -79 -244 -82 -249 -8 -14 -15 5 -112 297 l-91 277 -57 0 -57 0
-94 -282 c-51 -156 -97 -287 -101 -292 -5 -5 -47 112 -95 260 -47 148 -90 279
-95 292 -9 20 -16 22 -80 22 -38 0 -70 -2 -70 -4z"/>
<path d="M2090 1916 c0 -3 70 -110 155 -240 l155 -234 0 -156 0 -156 70 0 70
0 0 159 0 159 155 234 155 233 -67 3 c-36 2 -71 1 -78 -2 -7 -2 -61 -81 -121
-175 -60 -94 -111 -171 -114 -171 -3 0 -54 79 -115 175 l-110 175 -77 0 c-43
0 -78 -2 -78 -4z"/>
<path d="M2940 1525 l0 -395 65 0 65 0 2 280 3 280 216 -278 216 -277 56 -3
57 -3 0 396 0 395 -65 0 -65 0 0 -272 c0 -238 -2 -270 -14 -258 -8 8 -104 130
-214 270 l-199 255 -61 3 -62 3 0 -396z"/>
<path d="M3817 1913 c-4 -3 -7 -181 -7 -395 l0 -388 183 0 c131 0 199 4 241
15 153 40 261 158 287 312 22 132 -15 247 -108 341 -62 62 -136 98 -231 112
-76 11 -355 14 -365 3z m418 -147 c138 -65 193 -233 121 -374 -28 -56 -55 -82
-116 -114 -38 -20 -63 -24 -167 -27 l-123 -3 0 271 0 271 118 0 c102 0 123 -3
167 -24z"/>
<path d="M4680 1525 l0 -395 65 0 65 0 2 163 3 162 193 3 192 2 0 -165 0 -165
70 0 70 0 -2 393 -3 392 -67 3 -68 3 0 -166 0 -165 -192 2 -193 3 -3 163 -2
162 -65 0 -65 0 0 -395z"/>
<path d="M5636 1538 c-93 -211 -171 -389 -173 -395 -4 -10 13 -13 63 -13 l69
0 40 93 41 92 191 3 191 2 38 -95 37 -95 73 0 72 0 -115 263 c-63 144 -140
321 -172 392 l-57 130 -65 3 -65 3 -168 -383z m303 57 c34 -77 61 -143 61
-147 0 -5 -61 -8 -135 -8 -74 0 -135 2 -135 4 0 5 118 285 126 297 10 17 19 2
83 -146z"/>
<path d="M6380 1525 l0 -395 65 0 65 0 0 275 c0 151 3 275 8 275 4 0 56 -75
116 -165 60 -91 115 -170 122 -176 10 -8 40 30 136 173 l123 183 3 -282 2
-283 65 0 65 0 0 395 0 395 -70 0 -69 0 -46 -72 c-26 -40 -79 -123 -118 -185
-40 -61 -76 -111 -82 -109 -5 1 -62 83 -125 182 l-116 179 -72 3 -72 3 0 -396z"/>
<path d="M3125 979 c-1140 -29 -2196 -129 -2855 -271 -91 -19 -142 -37 -70
-24 209 37 844 98 1395 135 804 55 1207 65 2410 65 1200 0 1597 -10 2410 -64
425 -28 1078 -86 1175 -105 14 -3 68 -10 120 -15 52 -6 106 -13 120 -17 14 -3
23 -3 20 0 -12 13 -358 78 -640 121 -961 145 -2558 213 -4085 175z"/>
<path d="M1972 474 c-95 -48 -118 -176 -44 -249 34 -35 62 -45 120 -45 92 0
163 85 149 177 -17 101 -136 162 -225 117z m142 -63 c86 -90 -12 -234 -119
-177 -68 37 -78 124 -23 184 33 34 105 31 142 -7z"/>
<path d="M3300 483 c-36 -13 -60 -47 -60 -83 0 -45 17 -62 90 -85 65 -21 80
-31 80 -56 0 -40 -64 -50 -123 -20 -36 19 -38 19 -47 0 -15 -27 29 -52 101
-57 54 -4 60 -2 89 26 58 58 31 113 -71 147 -59 20 -64 24 -64 51 0 28 1 29
50 28 28 -1 59 -3 70 -5 12 -3 21 2 23 14 6 31 -88 58 -138 40z"/>
<path d="M3776 469 c-27 -21 -35 -69 -16 -99 7 -11 1 -22 -20 -42 -63 -57 -25
-148 61 -148 22 0 54 8 70 17 26 16 29 16 47 0 11 -10 26 -15 36 -11 21 8 20
13 -5 40 l-21 23 21 35 c21 34 21 35 3 45 -16 8 -21 6 -30 -14 -14 -30 -33
-32 -58 -4 -18 20 -18 21 14 45 25 20 32 33 32 59 0 40 -37 75 -80 75 -15 0
-39 -9 -54 -21z m82 -31 c16 -16 15 -33 -4 -52 -22 -23 -43 -20 -56 9 -19 41
28 75 60 43z m-5 -205 c-21 -16 -65 -17 -81 -1 -17 17 -15 48 5 70 16 18 18
17 55 -19 35 -34 37 -39 21 -50z"/>
<path d="M4953 470 c-36 -22 -50 -60 -37 -99 9 -25 19 -30 132 -71 23 -9 32
-19 32 -34 0 -47 -52 -60 -117 -30 -30 15 -36 15 -49 2 -14 -13 -12 -17 12
-33 31 -20 100 -31 139 -21 40 10 65 41 65 81 0 46 -24 69 -93 89 -62 18 -82
36 -72 66 5 16 15 20 46 20 22 0 49 -5 60 -11 15 -7 24 -7 35 2 22 18 17 26
-26 43 -53 21 -88 20 -127 -4z"/>
<path d="M5312 473 c-80 -39 -111 -134 -70 -212 28 -54 75 -81 138 -81 65 0
110 27 139 83 19 38 22 56 17 92 -16 105 -130 165 -224 118z m144 -64 c23 -24
29 -39 29 -74 0 -120 -148 -157 -199 -50 -21 44 -14 83 21 125 21 26 32 30 72
30 40 0 52 -5 77 -31z"/>
<path d="M6343 470 c-36 -22 -50 -60 -37 -99 9 -25 19 -30 132 -71 23 -9 32
-19 32 -34 0 -47 -52 -60 -117 -30 -30 15 -36 15 -49 2 -14 -13 -12 -17 12
-33 31 -20 100 -31 138 -21 60 15 88 94 47 135 -10 10 -44 26 -74 35 -62 18
-82 36 -72 66 5 16 15 20 46 20 22 0 49 -5 60 -11 15 -7 24 -7 35 2 22 18 17
26 -26 43 -53 21 -88 20 -127 -4z"/>
<path d="M1530 330 l0 -150 25 0 c24 0 25 2 25 65 l0 65 75 0 75 0 0 -66 c0
-62 1 -65 23 -62 22 3 22 6 25 151 l3 147 -25 0 c-24 0 -25 -3 -28 -62 l-3
-63 -72 -3 -73 -3 0 66 c0 63 -1 65 -25 65 l-25 0 0 -150z"/>
<path d="M2270 460 c0 -17 7 -20 45 -20 l44 0 3 -127 c3 -124 4 -128 25 -131
22 -3 22 -1 25 125 l3 128 48 3 c39 3 47 6 47 23 0 18 -8 19 -120 19 -113 0
-120 -1 -120 -20z"/>
<path d="M2610 330 l0 -150 110 0 110 0 0 25 c0 25 -1 25 -85 25 l-85 0 0 40
0 40 75 0 c68 0 75 2 75 20 0 18 -7 20 -75 20 l-75 0 0 45 0 45 85 0 c78 0 85
2 85 20 0 19 -7 20 -110 20 l-110 0 0 -150z"/>
<path d="M2940 330 l0 -150 105 0 105 0 0 25 c0 25 -1 25 -80 25 l-80 0 0 125
0 125 -25 0 -25 0 0 -150z"/>
<path d="M4240 329 c0 -150 0 -150 23 -147 19 3 22 10 25 56 3 52 3 52 36 52
28 0 38 -7 71 -55 31 -46 42 -55 67 -55 l30 0 -41 57 -41 58 25 12 c30 16 45
43 45 82 0 71 -34 91 -155 91 l-85 0 0 -151z m171 101 c27 -15 25 -64 -3 -84
-13 -9 -43 -16 -70 -16 l-48 0 0 55 0 55 51 0 c28 0 59 -5 70 -10z"/>
<path d="M4590 330 l0 -150 110 0 110 0 0 25 c0 25 -1 25 -85 25 l-85 0 0 40
0 40 75 0 c68 0 75 2 75 20 0 17 -8 19 -72 22 l-73 3 -3 43 -3 42 85 0 c79 0
86 2 86 20 0 19 -7 20 -110 20 l-110 0 0 -150z"/>
<path d="M5642 333 c3 -144 4 -148 25 -151 20 -3 22 2 25 50 3 53 3 53 39 56
33 3 38 -1 72 -53 29 -42 43 -55 62 -55 14 0 25 2 25 5 0 3 -16 29 -35 58 -31
46 -33 52 -17 60 58 31 69 102 23 148 -28 28 -33 29 -125 29 l-97 0 3 -147z
m180 90 c48 -43 3 -96 -79 -91 -48 3 -48 3 -51 42 -2 21 -1 44 2 52 8 21 104
19 128 -3z"/>
<path d="M5970 460 c0 -17 7 -20 50 -20 l49 0 3 -127 c3 -124 4 -128 26 -131
22 -3 22 -3 22 127 l0 131 50 0 c43 0 50 3 50 20 0 19 -7 20 -125 20 -118 0
-125 -1 -125 -20z"/>
</g>
</svg>
