<svg xmlns="http://www.w3.org/2000/svg" viewBox="0 0 162.7 52.6"><title>Broker Portal Logos (No Branding vScript) copy</title><path d="M45.8,17.2A5.8,5.8,0,0,0,47,19.6l0.3,0.5C48,22,49.1,25.1,48.9,27c0,0,2.4-2.9,10-3.3,0,0-5.9-1.1-8.8.8,0,0-1-2.1-2.1-3.9s0.9-1.9,1.7-3.4c1.3,2.7,4.3,3.3,6.7,3.3a15.8,15.8,0,0,0,4.9-.8c1.5-.5,3.9-1.6,3.5-4.5a8.5,8.5,0,0,0-1.7-4,28,28,0,0,0,2.9-1c1.6-.8,3.5-1.8,3.3-3s-0.5-1.9-2.1-4.2-2-2.8-5-2.8A28.1,28.1,0,0,0,48,4.1c-0.5.3-1.8,1.1-1.6,2.2a2.6,2.6,0,0,0,.3,1h0.2a16.6,16.6,0,0,1,7.7-2.9c-1.3,1.6-2.9,3.6-4.2,5.3S45.6,15.7,45.8,17.2ZM56,7.9c1.2-1.7,2.2-2.7,2.1-3a3,3,0,0,0-1.4-1c2.1-.2,4.2-0.2,5.9-0.2s3.8,0.2,4,1.2S59,8.8,55.2,9Zm-1.9,2.5a15,15,0,0,0,.2,1.9,0.2,0.2,0,0,0,.2.2h0.2a21.3,21.3,0,0,1,4.8-.6c1.7,0,3.1.3,3.3,1.4s-1.6,2.1-2.6,2.4a18.5,18.5,0,0,1-5.8.9c-0.8,0-3.4,0-3.5-1.1S53,11.9,54.1,10.5Z" fill="#fff"/><path d="M65.6,17.6a3,3,0,0,0,1.5,2c0.4,0,.7-0.9.8-1.1,2.1-3.2,4.1-5.6,5.3-6.4h0.3c0.5,0,.9,1,1.3,1s1.8-1.4,1.6-2.9a1.2,1.2,0,0,0-1-1.1c-0.9,0-3,2-4.1,3.1a7.8,7.8,0,0,1,.7-1.4,1.6,1.6,0,0,0,.3-0.9A2,2,0,0,0,71,8.4l-0.3.2-4,5.9A4.5,4.5,0,0,0,65.6,17.6Z" fill="#fff"/><path d="M75.7,15.4c0.3,1.6,2.2,3.6,3,4.1a2,2,0,0,0,1.2.3c2.3,0,4.9-3.2,5.3-5.4a4.6,4.6,0,0,0,0-1.5A2.3,2.3,0,0,0,84,11.1h0.5c0.2,0,.4,0,0.4-0.2a4.7,4.7,0,0,0-1-1.6c-0.7-.7-1-1-1.6-1a3.2,3.2,0,0,0-1.6.4C78.4,10,75.3,12.7,75.7,15.4Zm7.1-4a2,2,0,0,0-.5,1.4,9,9,0,0,0,.4,1A4.3,4.3,0,0,1,81.4,16c-0.4.4-2,1.8-2.7,1.8a0.9,0.9,0,0,1-.7-0.7C77.7,15.5,80.4,12.5,82.8,11.4Z" fill="#fff"/><path d="M86.9,20.2a2,2,0,0,0,.6-1.1,32.5,32.5,0,0,1,1.7-3.9,2.6,2.6,0,0,0-.1.9c0.5,2.9,1.7,4.3,3.4,4.3s3.7-1.6,5-3.1c0.7,1.2,2.6,3,3.4,3a6.7,6.7,0,0,0,4.6-2.5,3,3,0,0,0,1.4,1.7c0.4,0,.7-0.9.8-1.1,2.1-3.2,4.1-5.6,5.3-6.4h0.3c0.5,0,.9,1,1.3,1s1.8-1.4,1.6-2.9a1.2,1.2,0,0,0-1-1.1c-0.9,0-3,2-4.1,3.1a7.8,7.8,0,0,1,.7-1.4,1.6,1.6,0,0,0,.3-0.9,2,2,0,0,0-1.2-1.4l-0.3.2-4,5.9-0.7,1.2a18.5,18.5,0,0,1-4,2.5l-1.1.3a1,1,0,0,1-1-.9,3.7,3.7,0,0,1,.4-1.8,2.8,2.8,0,0,0,1.8.9c1.7,0,4.8-3.5,4.4-5.9A2.7,2.7,0,0,0,105.1,9a3.4,3.4,0,0,0-1.8-1.2c-0.8,0-2.1.8-3.6,2.6a9.3,9.3,0,0,0-2.5,5.1c-1.7,1.8-2.8,2.8-3.8,2.8a2,2,0,0,1-1.9-2,4.9,4.9,0,0,1-.1-0.8c1.1-.2,6.1-1.3,5.8-3.6a3,3,0,0,0-2.5-2.1,4.8,4.8,0,0,0-3,1.3c1.5-2.2,3.6-4.9,6.7-8.6a0.4,0.4,0,0,0,0-.3A3,3,0,0,0,96.9.7H96.5C94.4,3,92.2,5.4,87.4,12.7c-1,1.5-2.8,4.1-2.7,5.2S86.3,20.2,86.9,20.2Zm16.9-9.7,0.4-.2a0.3,0.3,0,0,1,.3.3c0.1,0.8-2.2,4.4-3.5,4.4a0.7,0.7,0,0,1-.6-0.3A17.2,17.2,0,0,1,103.8,10.5Zm-8.9.7a0.3,0.3,0,0,1,.3.2c0.1,0.7-2.2,1.8-3.4,2.1A3.4,3.4,0,0,1,95,11.2Z" fill="#fff"/><path d="M23.1,27.6c-1.4-.7-2.5-0.9-6.8-0.9H-0.1V47.2H6.4v-5H16.9c3.3,0,4.9-.2,6-0.7s3-3,3-7.3S25.1,28.6,23.1,27.6Zm-7.2,9.6H6.4V31.7h9.5c2.8,0,3.5.6,3.5,3S18.6,37.2,15.9,37.2Z" fill="#fff"/><path d="M87.9,33.5c0-3.2-.8-5.1-2.6-6s-2.8-.8-6-0.8H60.8V47.2h6.5V42h10c1.8,0,2.3.1,2.8,0.4a2.4,2.4,0,0,1,.8,2.2v2.5h6.6V44a5,5,0,0,0-.6-3c-0.6-1-1.5-1.3-4-1.4H81.9c2.6-.4,3.4-0.6,4.2-1.1S87.9,35.9,87.9,33.5ZM77.5,37H67.3V31.7H77.8c2,0,2.5.1,3,.6s0.5,1,.5,2.4S80.7,37,77.5,37Z" fill="#fff"/><polygon points="114.6 26.7 88.9 26.7 88.9 31.8 98.5 31.8 98.5 47.2 105 47.2 105 31.8 114.6 31.8 114.6 26.7" fill="#fff"/><path d="M119.8,26.7L107.8,47.2h7.4l2.1-3.7h13.9l2.1,3.7h7.2L128.6,26.7h-8.8Zm-0.3,12.6,4.6-8.2,4.6,8.2h-9.2Z" fill="#fff"/><polygon points="147.8 42.1 147.8 26.7 141.3 26.7 141.3 47.2 162.6 47.2 162.6 42.1 147.8 42.1" fill="#fff"/><path d="M60.1,24.1c-5.7,3.2-12.5,10.7-12.8,11.1l-0.3.2,5,2.1L40.4,42.3,36.7,30.5,42,33.3a45,45,0,0,1,1-9.1h0.1l0.2-1.1a20.1,20.1,0,0,1,1.3-3.6l-0.3-.2c-0.4.9-.8,1.8-1.1,2.7a15.3,15.3,0,1,0,12.2,6.1,25.9,25.9,0,0,1,4.9-3.8ZM43.2,49.4a12,12,0,0,1-1.1-24c-0.7,2.6-1,4.9-1.3,6.3L36,29.6l3.1,16.1,15.2-7.9L49,35.4c0.7-1,2.3-2.9,4.1-4.9a11.9,11.9,0,0,1,2.1,6.8A12.1,12.1,0,0,1,43.2,49.4Z" fill="#fff"/></svg>