<svg xmlns="http://www.w3.org/2000/svg" viewBox="0 0 345.89 71.46"><defs><style>.a{fill:#1b75bc;}.b{fill:none;}.c{fill:#001f5b;}.d{fill:#f1f2f2;}</style></defs><title>mwgd-4c</title><path class="a" d="M333.89,0h-209a74.77,74.77,0,0,1-.28,71.46H333.89a12,12,0,0,0,12-12V12A12,12,0,0,0,333.89,0Z"/><line class="b" x1="228.63" y1="40.53" x2="224.72" y2="39.75"/><path class="c" d="M122.06,0H12A12,12,0,0,0,0,12V61.64a9.82,9.82,0,0,0,9.82,9.82h112A74.77,74.77,0,0,0,122.06,0Z"/><path class="d" d="M176.63,35a17.43,17.43,0,0,1-1.73,8,16.17,16.17,0,0,1-4.55,5.55,19,19,0,0,1-6.37,3.2,25.82,25.82,0,0,1-7.2,1h-13.2V17.35h12.8a31.65,31.65,0,0,1,7.4.88,18.57,18.57,0,0,1,6.5,2.9,14.85,14.85,0,0,1,4.6,5.42A18.23,18.23,0,0,1,176.63,35Zm-8.9,0a11.22,11.22,0,0,0-1-5,8.38,8.38,0,0,0-2.6-3.15,10.4,10.4,0,0,0-3.7-1.68,18.23,18.23,0,0,0-4.28-.5h-4.25v20.7h4a18.4,18.4,0,0,0,4.42-.52,10.46,10.46,0,0,0,3.75-1.73,8.56,8.56,0,0,0,2.6-3.2A11.25,11.25,0,0,0,167.73,35Z"/><path class="d" d="M180.28,52.75V17.35h23.8v7.2H188.53v6.7h14.7V38.1h-14.7v7.35H205v7.3Z"/><path class="d" d="M233.13,52.75,218.88,29.6h-.15l.2,23.15h-8.3V17.35h9.75l14.2,23.1h.15l-.2-23.1h8.3v35.4Z"/><path class="d" d="M264.28,24.65v28.1h-8.55V24.65h-10v-7.3h28.55v7.3Z"/><path class="d" d="M297.18,52.75l-2.75-7h-13.7l-2.6,7h-9.3l14.85-35.4H292l14.7,35.4Zm-9.5-26L283.18,39h8.9Z"/><path class="d" d="M309.63,52.75V17.35h8.6V45.3h13.7v7.45Z"/><path class="d" d="M102.41,18a11.24,11.24,0,0,1,8.26,3.48,19.76,19.76,0,0,1,4,6.87c.1.3.2.45.5.4l1.19-.2c.2,0,.2-.3.2-.7l-.5-10c0-.4-.1-.7-.6-.7-.3,0-.45.15-.7.5l-.6.8c-.3.4-.6.55-1.19.1-1.59-1.19-5.38-2.69-10.15-2.69-9.19,0-15.79,2-20,15.23L78.7,41.83,72.49,27.9s-2.6-6.2-3.73-6.2S65,27.49,65,27.49s-6.72,14.38-7.12,15.43l-.1,0L50,19.87a1.19,1.19,0,0,1,1.19-1.74h.95c.35,0,.45-.15.45-.4V16.48c0-.25-.1-.35-.4-.35s-2.75.08-4.87.13c-.24,0-.59.72-1,1.68-1.52,3.4-8.78,19.23-9.18,20.49H37l-9-21c-.2-.6-.55-1.1-1.24-1.1s-1.09.8-1.29,1.29c-1,2.49-11.15,30.36-11.65,31.46a2.46,2.46,0,0,1-2.19,1.64h-1c-.3,0-.35.15-.35.4V52.5c0,.15.1.25.3.25.4,0,1.89-.15,4.68-.15,3.09,0,4.78.15,5.28.15.3,0,.4-.15.4-.4V51.16c0-.25,0-.4-.35-.4H19.15c-1.19,0-1.69-.7-1.69-1.39,0-2.74,5.67-19.16,7.17-23.54h.2L32,43.61s1.63,3.89,2.66,3.89c1.56,0,3.91-5.48,3.91-5.48s6.72-15,7.12-16l.1,0,7.74,23a1.19,1.19,0,0,1-1.19,1.74h-.95c-.35,0-.45.15-.45.4V52.4c0,.25.1.35.4.35s1.68,0,4.11-.09a1.33,1.33,0,0,0,.95-.42,1.59,1.59,0,0,0,.51-.67c.2-.55,9-19.11,9.46-20.5h.2l9,20.35c.2.6.55,1.1,1.24,1.1,2.67,0,3.55-1.06,4.62-4.09C82,46.86,85.22,37.72,88.16,30,91.66,20.72,97,18,102.41,18Zm16.12,18.48c-.5,0-2.19.15-6.37.15s-6.47-.15-7.07-.15c-.2,0-.3.1-.3.4V38c0,.25.1.45.4.45h2.09c1.29,0,1.79.5,1.79,2.29v3.63c0,2.59-.1,4-1.19,4.58-1.69.9-3.58.83-6.77.83-4.95,0-8.5-3.1-12.59-6.41-.62-.5-1-.26-1.13,0s-.81,1.89-1,2.31a1.18,1.18,0,0,0,.29,1.44c3.44,3.81,9.29,5.4,14,5.4a28.81,28.81,0,0,0,14.14-3.29c.5-.2.8-.4.8-.8s-.2-.9-.2-1.59V40.34c0-1.44.6-1.84,1.49-1.84h1.69c.3,0,.4-.1.4-.4V36.86C119,36.61,118.93,36.51,118.53,36.51Z"/></svg>