<svg xmlns="http://www.w3.org/2000/svg" viewBox="0 0 347.89 73.46"><title>vision_color</title><path d="M337.82,0H126.22a80.22,80.22,0,0,1,8.57,35.3,80.37,80.37,0,0,1-10.06,38.16H337.82a10.21,10.21,0,0,0,10.07-10.29V10.29A10.21,10.21,0,0,0,337.82,0Z" fill="#1b75bc"/><path d="M126.22,0H10.07A10.21,10.21,0,0,0,0,10.29V63.17A10.21,10.21,0,0,0,10.07,73.46H124.73A77.2,77.2,0,0,0,126.22,0Z" fill="#00205c"/><path d="M127.62,0h-2.79a77.84,77.84,0,0,1-1.54,73.46h2.87A80.39,80.39,0,0,0,127.62,0Z" fill="#fff"/><rect x="233.27" y="18.83" width="8.94" height="35.4" fill="#fff"/><path d="M282.49,22.88a18.86,18.86,0,0,0-6.37-3.7,23.9,23.9,0,0,0-8-1.3,23.6,23.6,0,0,0-8,1.3,18.87,18.87,0,0,0-6.35,3.7,16.8,16.8,0,0,0-4.18,5.82,18.83,18.83,0,0,0-1.51,7.68,19,19,0,0,0,1.51,7.67,17.41,17.41,0,0,0,4.18,6,18.82,18.82,0,0,0,6.35,3.83,22.89,22.89,0,0,0,8,1.35,23.18,23.18,0,0,0,8-1.35A18.82,18.82,0,0,0,282.49,50a17.41,17.41,0,0,0,4.18-6,19,19,0,0,0,1.51-7.67,18.83,18.83,0,0,0-1.51-7.68A16.8,16.8,0,0,0,282.49,22.88ZM277.88,40.8a10.18,10.18,0,0,1-2.18,3.48,10.31,10.31,0,0,1-3.33,2.27,11.37,11.37,0,0,1-8.53,0,10,10,0,0,1-3.3-2.27,10.45,10.45,0,0,1-2.16-3.48,12.18,12.18,0,0,1-.78-4.42,11.89,11.89,0,0,1,.76-4.3,9.55,9.55,0,0,1,2.16-3.43,10.26,10.26,0,0,1,3.32-2.25,10.76,10.76,0,0,1,4.27-.82,10.9,10.9,0,0,1,4.29.82,10,10,0,0,1,3.33,2.25,10.26,10.26,0,0,1,2.15,3.43,11.69,11.69,0,0,1,.78,4.3A12.18,12.18,0,0,1,277.88,40.8Z" fill="#fff"/><polygon points="318.91 18.83 319.12 41.93 318.96 41.93 304.2 18.83 294.06 18.83 294.06 54.23 302.69 54.23 302.48 31.08 302.64 31.08 317.46 54.23 327.54 54.23 327.54 18.83 318.91 18.83" fill="#fff"/><path d="M212,25.7a4.83,4.83,0,0,1,1.64-.57,10.9,10.9,0,0,1,1.79-.15,8.67,8.67,0,0,1,3.56.82A7.92,7.92,0,0,1,222,28l5.67-5.75A16.44,16.44,0,0,0,222,19a19.9,19.9,0,0,0-6.37-1.1,21.85,21.85,0,0,0-5.15.62,14.52,14.52,0,0,0-4.58,2A10.58,10.58,0,0,0,202.59,24,9.72,9.72,0,0,0,201.34,29a9.26,9.26,0,0,0,.81,4.07A8.67,8.67,0,0,0,204.28,36a11.47,11.47,0,0,0,3,1.93,32.72,32.72,0,0,0,3.46,1.3c1.22.37,2.3.71,3.25,1a12.33,12.33,0,0,1,2.39,1,5,5,0,0,1,1.49,1.28,2.79,2.79,0,0,1,.52,1.7A3.63,3.63,0,0,1,218,46a3.31,3.31,0,0,1-1.12,1.2,5,5,0,0,1-1.64.65,9.33,9.33,0,0,1-1.92.2A9.9,9.9,0,0,1,208.91,47a10.75,10.75,0,0,1-3.57-2.67L199.52,50a16.23,16.23,0,0,0,6.14,3.77,22.3,22.3,0,0,0,7.64,1.33,20,20,0,0,0,5.25-.7,14,14,0,0,0,4.53-2.15,10.67,10.67,0,0,0,3.14-3.68,11.17,11.17,0,0,0,1.17-5.27,8.31,8.31,0,0,0-1.09-4.43,10.3,10.3,0,0,0-2.76-3A15,15,0,0,0,219.85,34q-2-.72-3.9-1.32-1.29-.41-2.34-.78a10.36,10.36,0,0,1-1.79-.82,3.46,3.46,0,0,1-1.15-1,2.7,2.7,0,0,1-.39-1.5,2.86,2.86,0,0,1,.5-1.73A4,4,0,0,1,212,25.7Z" fill="#fff"/><rect x="186" y="18.83" width="8.95" height="35.4" fill="#fff"/><polygon points="164.68 43.93 164.47 43.93 155.95 18.83 145.96 18.83 159.9 54.23 168.79 54.23 182.99 18.83 173.16 18.83 164.68 43.93" fill="#fff"/><path d="M119.53,38.51c-.5,0-2.19.15-6.37.15s-6.47-.15-7.07-.15c-.2,0-.3.1-.3.4v1.14c0,.25.1.45.4.45h2.09c1.3,0,1.79.5,1.79,2.29v3.63c0,2.59-.09,4-1.19,4.58-1.69.9-3.58.83-6.77.83-5,0-8.5-3.1-12.59-6.41-.62-.5-1-.26-1.12,0s-.81,1.89-1,2.32a1.17,1.17,0,0,0,.29,1.43c3.44,3.81,9.29,5.4,14,5.4a28.81,28.81,0,0,0,14.14-3.28c.5-.2.8-.4.8-.8s-.2-.89-.2-1.59V42.34c0-1.44.59-1.84,1.49-1.84h1.69c.3,0,.4-.1.4-.4V38.86C120,38.61,119.93,38.51,119.53,38.51Z" fill="#fff"/><path d="M103.41,20a11.27,11.27,0,0,1,8.27,3.49,19.82,19.82,0,0,1,4,6.87c.1.3.2.44.49.4l1.2-.2c.2,0,.2-.3.2-.7l-.5-10c0-.39-.1-.69-.6-.69-.3,0-.44.15-.69.49l-.6.8c-.3.4-.6.55-1.19.1-1.6-1.19-5.38-2.69-10.16-2.69-9.19,0-15.78,2-20,15.23L79.7,43.83,73.49,29.9s-2.6-6.21-3.74-6.21S66,29.49,66,29.49s-6.72,14.38-7.12,15.42l-.1,0L51,21.87a1.2,1.2,0,0,1,1.19-1.75h1c.35,0,.45-.14.45-.39V18.48c0-.25-.1-.35-.4-.35s-2.75.09-4.87.13c-.24,0-.6.72-1,1.68-1.52,3.39-8.78,19.23-9.19,20.49H38l-9-21c-.19-.6-.54-1.09-1.24-1.09s-1.09.79-1.29,1.29c-1,2.49-11.15,30.36-11.65,31.46a2.46,2.46,0,0,1-2.19,1.64H11.54c-.29,0-.34.15-.34.4V54.5c0,.15.1.25.29.25.4,0,1.9-.15,4.68-.15,3.09,0,4.78.15,5.28.15.3,0,.4-.15.4-.4V53.16c0-.25-.05-.4-.35-.4H20.15c-1.19,0-1.69-.7-1.69-1.39,0-2.74,5.68-19.17,7.17-23.55h.2L33,45.61s1.63,3.88,2.66,3.88c1.56,0,3.91-5.48,3.91-5.48s6.72-15,7.11-16l.1.05,7.75,23a1.2,1.2,0,0,1-1.2,1.74h-.94c-.35,0-.45.15-.45.4V54.4c0,.25.1.35.4.35s1.67,0,4.1-.08a1.34,1.34,0,0,0,1-.43,1.53,1.53,0,0,0,.51-.67c.2-.54,9-19.11,9.45-20.5h.2l9,20.35c.2.6.55,1.1,1.25,1.1,2.66,0,3.55-1.06,4.61-4.09C83,48.86,86.22,39.72,89.16,32,92.66,22.72,98,20,103.41,20Z" fill="#fff"/></svg>