<svg xmlns="http://www.w3.org/2000/svg" viewBox="0 0 351 72"><title>vision_outline-white</title><polygon points="167.6 42.72 167.39 42.72 158.78 17.62 148.7 17.62 162.76 53.02 171.74 53.02 186.08 17.62 176.15 17.62 167.6 42.72" fill="#fff"/><rect x="189.06" y="17.62" width="9.03" height="35.4" fill="#fff"/><path d="M215,24.49a4.89,4.89,0,0,1,1.65-.57,11.36,11.36,0,0,1,1.82-.15,8.84,8.84,0,0,1,3.59.82,8.13,8.13,0,0,1,3,2.23l5.72-5.75A16.69,16.69,0,0,0,225,17.82a20.21,20.21,0,0,0-6.43-1.1,22.19,22.19,0,0,0-5.19.62,14.7,14.7,0,0,0-4.63,2,10.67,10.67,0,0,0-3.3,3.45,9.63,9.63,0,0,0-1.26,5.05,9.26,9.26,0,0,0,.81,4.07,8.86,8.86,0,0,0,2.15,2.85,11.7,11.7,0,0,0,3.05,1.93A33.22,33.22,0,0,0,213.7,38c1.23.37,2.32.71,3.28,1a13,13,0,0,1,2.42,1,5.18,5.18,0,0,1,1.49,1.28,2.76,2.76,0,0,1,.53,1.7,3.63,3.63,0,0,1-.42,1.8,3.34,3.34,0,0,1-1.13,1.2,4.87,4.87,0,0,1-1.65.65,9.63,9.63,0,0,1-1.95.2,10.06,10.06,0,0,1-4.43-1.08,10.65,10.65,0,0,1-3.6-2.67l-5.88,5.7a16.48,16.48,0,0,0,6.2,3.77,22.65,22.65,0,0,0,7.71,1.33,20.05,20.05,0,0,0,5.31-.7,13.9,13.9,0,0,0,4.56-2.15,10.67,10.67,0,0,0,3.18-3.68,11.05,11.05,0,0,0,1.18-5.27,8.31,8.31,0,0,0-1.1-4.43,10.51,10.51,0,0,0-2.78-3,15.5,15.5,0,0,0-3.73-1.93c-1.37-.48-2.68-.92-3.94-1.32-.88-.27-1.66-.53-2.36-.78a10.26,10.26,0,0,1-1.81-.82,3.41,3.41,0,0,1-1.16-1.05,2.7,2.7,0,0,1-.39-1.5,2.79,2.79,0,0,1,.5-1.73A4.06,4.06,0,0,1,215,24.49Z" fill="#fff"/><rect x="236.04" y="17.62" width="9.03" height="35.4" fill="#fff"/><path d="M285.29,21.67a19.15,19.15,0,0,0-6.43-3.7,25.73,25.73,0,0,0-16.15,0,19.1,19.1,0,0,0-6.4,3.7,16.93,16.93,0,0,0-4.23,5.82,18.83,18.83,0,0,0-1.52,7.68,19,19,0,0,0,1.52,7.67,17.54,17.54,0,0,0,4.23,5.95,19.05,19.05,0,0,0,6.4,3.83,24.83,24.83,0,0,0,16.15,0,19.09,19.09,0,0,0,6.43-3.83,17.38,17.38,0,0,0,4.22-5.95A18.79,18.79,0,0,0,291,35.17a18.67,18.67,0,0,0-1.53-7.68A16.78,16.78,0,0,0,285.29,21.67Zm-4.65,17.92a10,10,0,0,1-5.56,5.75,11.58,11.58,0,0,1-8.61,0,9.89,9.89,0,0,1-3.34-2.27A10.66,10.66,0,0,1,261,39.59a12.18,12.18,0,0,1-.78-4.42,11.93,11.93,0,0,1,.76-4.3,9.54,9.54,0,0,1,2.18-3.43,10.33,10.33,0,0,1,3.36-2.25,10.88,10.88,0,0,1,4.3-.82,11.06,11.06,0,0,1,4.33.82,9.92,9.92,0,0,1,3.36,2.25,10.11,10.11,0,0,1,2.18,3.43,11.53,11.53,0,0,1,.79,4.3A12,12,0,0,1,280.64,39.59Z" fill="#fff"/><polygon points="321.78 40.72 321.62 40.72 306.71 17.62 296.47 17.62 296.47 53.02 305.19 53.02 304.98 29.87 305.13 29.87 320.1 53.02 330.28 53.02 330.28 17.62 321.57 17.62 321.78 40.72" fill="#fff"/><path d="M341,0H10A10,10,0,0,0,0,10V62A10,10,0,0,0,10,72H341a10,10,0,0,0,10-10V10A10,10,0,0,0,341,0ZM79.36,52.79c-.7,0-1-.5-1.24-1.1l-9-20.35h-.2c-.45,1.39-9.26,20-9.46,20.5a1.58,1.58,0,0,1-.51.67,1.27,1.27,0,0,1-.94.42c-2.43,0-3.71.09-4.11.09s-.4-.1-.4-.35V51.43c0-.25.1-.4.45-.4h1a1.19,1.19,0,0,0,1.19-1.74l-7.74-23-.1-.05c-.4,1.05-7.12,16-7.12,16s-2.35,5.48-3.91,5.48c-1,0-2.66-3.89-2.66-3.89L27.38,26.09h-.19C25.69,30.47,20,46.9,20,49.63c0,.7.5,1.4,1.69,1.4h1.34c.3,0,.35.15.35.4v1.19c0,.25-.1.4-.4.4-.49,0-2.18-.15-5.27-.15-2.79,0-4.28.15-4.68.15-.2,0-.3-.1-.3-.25V51.43c0-.25.05-.4.35-.4h1a2.45,2.45,0,0,0,2.19-1.64c.5-1.1,10.66-29,11.65-31.46.2-.5.6-1.3,1.3-1.3s1,.5,1.24,1.1l9,21h.2c.4-1.26,7.66-17.1,9.18-20.49.37-1,.73-1.68,1-1.68,2.13,0,4.5-.13,4.88-.13s.39.1.39.35V18c0,.25-.1.39-.44.39h-1a1.19,1.19,0,0,0-1.19,1.75l7.74,23,.1,0c.4-1,7.12-15.42,7.12-15.42S70.18,22,71.31,22,75,28.17,75,28.17L81.25,42.1l4.08-10.67c4.25-13.26,10.85-15.23,20-15.23,4.78,0,8.56,1.5,10.15,2.69.6.45.9.3,1.2-.1l.59-.8c.25-.34.4-.49.7-.49.5,0,.6.29.6.69l.49,10c0,.4,0,.64-.19.69l-1.2.2c-.3.05-.4-.1-.5-.39a19.57,19.57,0,0,0-4-6.87A11.2,11.2,0,0,0,105,18.29c-5.39,0-10.75,2.7-14.25,11.94C87.77,38,84.53,47.13,84,48.7,82.91,51.73,82,52.79,79.36,52.79Zm42.22-14.42c0,.3-.09.4-.39.4h-1.7c-.89,0-1.49.4-1.49,1.84v6.57c0,.7.2,1.19.2,1.59s-.3.6-.8.8a28.8,28.8,0,0,1-14.13,3.28c-4.73,0-10.58-1.59-14-5.4A1.18,1.18,0,0,1,89,46c.17-.42.82-2,1-2.31s.51-.51,1.13,0c4.09,3.31,7.64,6.41,12.59,6.41,3.18,0,5.07.06,6.77-.83,1.09-.6,1.19-2,1.19-4.58V41.06c0-1.79-.5-2.29-1.79-2.29h-2.09c-.3,0-.4-.2-.4-.45V37.17c0-.29.1-.39.3-.39.6,0,3,.15,7.07.15s5.87-.15,6.37-.15.49.1.49.34ZM349,62a8,8,0,0,1-8,8H127.55A75.81,75.81,0,0,0,129,2H341a8,8,0,0,1,8,8Z" fill="#fff"/></svg>