<svg xmlns="http://www.w3.org/2000/svg" xmlns:xlink="http://www.w3.org/1999/xlink" viewBox="0 0 180 144"><defs><style>.a{fill:url(#a);}.b,.m,.n,.o,.p{fill:none;}.b{stroke:#000;stroke-width:0.59px;}.c{fill:#155184;}.d,.e,.f,.g,.h,.i,.k,.l,.q,.r{stroke:#231f20;}.d,.e,.f,.g,.h,.i,.k,.l,.m,.n,.o,.p,.q,.r{stroke-width:0.51px;}.d{fill:url(#b);}.e{fill:url(#c);}.f{fill:url(#d);}.g{fill:url(#e);}.h{fill:url(#f);}.i{fill:url(#g);}.j{fill:#fcebe5;}.k{fill:url(#h);}.l{fill:url(#i);}.m{stroke:#4d4d4d;}.n{stroke:#333;}.o{stroke:gray;}.p{stroke:#999;}.q{fill:url(#j);}.r{fill:url(#k);}</style><linearGradient id="a" x1="-6.59" y1="177.48" x2="93.35" y2="103.38" gradientTransform="translate(54.42 -56.96) scale(0.85)" gradientUnits="userSpaceOnUse"><stop offset="0" stop-color="#e03a3e"/><stop offset="0.06" stop-color="#e03d40"/><stop offset="0.11" stop-color="#e24748"/><stop offset="0.16" stop-color="#e45856"/><stop offset="0.2" stop-color="#e87068"/><stop offset="0.24" stop-color="#ec8e80"/><stop offset="0.26" stop-color="#ee9a89"/><stop offset="0.3" stop-color="#ea7f74"/><stop offset="0.38" stop-color="#e55a57"/><stop offset="0.44" stop-color="#e14245"/><stop offset="0.48" stop-color="#e03a3e"/><stop offset="0.51" stop-color="#e14143"/><stop offset="0.56" stop-color="#e45452"/><stop offset="0.62" stop-color="#e8736b"/><stop offset="0.67" stop-color="#ee9a89"/><stop offset="0.7" stop-color="#ec8b7d"/><stop offset="0.74" stop-color="#e86e66"/><stop offset="0.8" stop-color="#e45755"/><stop offset="0.85" stop-color="#e24748"/><stop offset="0.92" stop-color="#e03d40"/><stop offset="1" stop-color="#e03a3e"/></linearGradient><linearGradient id="b" x1="39.43" y1="141.78" x2="50.36" y2="141.78" gradientTransform="translate(54.42 -56.96) scale(0.85)" gradientUnits="userSpaceOnUse"><stop offset="0" stop-color="#fff"/><stop offset="0.09" stop-color="#f3f3f3"/><stop offset="0.25" stop-color="#d1d1d1"/><stop offset="0.47" stop-color="#9c9c9c"/><stop offset="0.73" stop-color="#515151"/><stop offset="1"/></linearGradient><linearGradient id="c" x1="-4140.55" y1="-3310.6" x2="-4089.81" y2="-3310.6" gradientTransform="translate(1985.73 1549.1) scale(0.46)" xlink:href="#b"/><linearGradient id="d" x1="-4127.33" y1="-3307.31" x2="-4103.02" y2="-3307.31" gradientTransform="translate(1985.73 1549.1) scale(0.46)" xlink:href="#b"/><linearGradient id="e" x1="-4149.9" y1="-3316.37" x2="-4080.45" y2="-3316.37" gradientTransform="translate(1985.73 1549.1) scale(0.46)" xlink:href="#b"/><linearGradient id="f" x1="-4161.24" y1="-3321.01" x2="-4069.11" y2="-3321.01" gradientTransform="translate(1985.73 1549.1) scale(0.46)" xlink:href="#b"/><radialGradient id="g" cx="43.76" cy="78.72" r="37.78" gradientTransform="translate(54.42 -56.96) scale(0.85)" gradientUnits="userSpaceOnUse"><stop offset="0" stop-color="#faddd3"/><stop offset="0.31" stop-color="#f8d2c7"/><stop offset="0.87" stop-color="#f2b4a6"/><stop offset="1" stop-color="#f1ac9d"/></radialGradient><linearGradient id="h" x1="-4125.76" y1="-3328.22" x2="-4104.53" y2="-3328.22" gradientTransform="translate(1985.73 1549.1) scale(0.46)" xlink:href="#b"/><linearGradient id="i" x1="-4161.27" y1="-3325.65" x2="-4069.08" y2="-3325.65" gradientTransform="translate(1985.73 1549.1) scale(0.46)" xlink:href="#b"/><linearGradient id="j" x1="-4125.79" y1="-3304.44" x2="-4104.55" y2="-3304.44" gradientTransform="translate(1985.73 1549.1) scale(0.46)" xlink:href="#b"/><radialGradient id="k" cx="-4115.19" cy="-3155.51" r="5.95" gradientTransform="translate(1985.73 1549.1) scale(0.46)" gradientUnits="userSpaceOnUse"><stop offset="0" stop-color="#fff"/><stop offset="0.15" stop-color="#fcfcfc"/><stop offset="0.28" stop-color="#f1f1f1"/><stop offset="0.4" stop-color="#e0e0e0"/><stop offset="0.52" stop-color="#c7c7c7"/><stop offset="0.63" stop-color="#a7a7a7"/><stop offset="0.74" stop-color="#818181"/><stop offset="0.85" stop-color="#525252"/><stop offset="0.95" stop-color="#1e1e1e"/><stop offset="1"/></radialGradient></defs><title>amfirst</title><path d="M69.75,86A12.13,12.13,0,0,1,67,85.87a1.94,1.94,0,0,1-1.12-.82,2.41,2.41,0,0,1-.34-1.25A13.87,13.87,0,0,1,66,81.26L69.4,68.68h8.21v12.6c0,.86.13,2.84-1,3.79a2.32,2.32,0,0,1-1.48.84L73,86v8.45h42.6V86h-1.71a4.67,4.67,0,0,1-2.31-.38c-.4-.26-.48-.79-.87-1.18s-.27-1.56-.27-3.08V68.81h2.28a6.36,6.36,0,0,1,3.36.74,7.56,7.56,0,0,1,1.39,1.5h4.87V57.67H117a3.46,3.46,0,0,1-.83,1.59,7.74,7.74,0,0,1-3.34.65h-2.34v-16h10.91a22,22,0,0,1,4.53.31,5.64,5.64,0,0,1,4.25,4h5.34V34H68.36L55.54,81.6a12.92,12.92,0,0,1-1,2.89,3,3,0,0,1-1.16,1.17A5,5,0,0,1,51.1,86v8.45H69.75ZM75.92,43.9h1.63v16H71.68Z"/><path d="M45,123.88a5.58,5.58,0,0,1-1.54-.32c-.25-.12-.37-.38-.37-.8a1.83,1.83,0,0,1,.14-.71,4.36,4.36,0,0,1,.31-.69l1.72-3.1h6.38c.17,1.3.27,2,.29,2.22.11.87.16,1.41.16,1.64a1.43,1.43,0,0,1-.53,1.33,4.26,4.26,0,0,1-1.8.43v.73h9v-.73a3.07,3.07,0,0,1-1.77-.5,4.59,4.59,0,0,1-.7-2.15l-2.83-17.44h-.76l-11,17.93a5.72,5.72,0,0,1-1.29,1.61,4.2,4.2,0,0,1-1.21.55v.73H45Zm5.34-14.25,1.09,7.43H46Z"/><path d="M81.34,123.55a16,16,0,0,0,1.86-2.64l-.65-.43a14.93,14.93,0,0,1-.88,1.34c-.5.67-.89,1-1.17,1a.57.57,0,0,1-.31-.1.29.29,0,0,1-.17-.26,2.22,2.22,0,0,1,.15-.61q.15-.43.33-.84l1.57-4.84q.27-1,.3-1.17a8.68,8.68,0,0,0,.27-1.86,2.62,2.62,0,0,0-.65-1.9,2.74,2.74,0,0,0-2-.68A6.07,6.07,0,0,0,76,112.17a22.85,22.85,0,0,0-3,3.36c.16-.53.29-1,.38-1.33a6.13,6.13,0,0,0,.26-1.65,1.93,1.93,0,0,0-.55-1.46,1.89,1.89,0,0,0-1.37-.53,4.71,4.71,0,0,0-3.38,1.67,32.39,32.39,0,0,0-2.92,4l-.1-.07,1.79-5.65q-1.95.39-2.79.51c-.87.13-1.94.23-3.18.31v.81a6,6,0,0,1,1.31.17c.2.08.29.28.29.61a3.11,3.11,0,0,1-.07.67c0,.23-.15.64-.3,1.21l-2.59,9.76h3.55c.44-1.61.8-2.83,1.07-3.68a26.42,26.42,0,0,1,1.12-3.24,16.15,16.15,0,0,1,2-3.54c.71-.91,1.28-1.37,1.71-1.37a.67.67,0,0,1,.37.11c.12.08.17.26.17.54a2.18,2.18,0,0,1-.07.55c0,.19-.11.4-.19.63l-2.62,10h3.55c1-3,1.55-4.87,1.78-5.45a11.06,11.06,0,0,1,.71-1.49,18.33,18.33,0,0,1,2.43-3.29,3.91,3.91,0,0,1,2.61-1.6.77.77,0,0,1,.63.26,1.1,1.1,0,0,1,.18.64c0,.09,0,.19,0,.29a2.5,2.5,0,0,1-.05.29l-1.22,4.66c-.27.76-.49,1.43-.65,2a9.05,9.05,0,0,0-.39,2.22,1.52,1.52,0,0,0,.65,1.37,2.51,2.51,0,0,0,1.4.41A3.9,3.9,0,0,0,81.34,123.55Z"/><path d="M94.15,105.43a2.47,2.47,0,0,1,1.37-.27q3.38,0,4.51,1.59a5.77,5.77,0,0,1,.68,3.11l.79.14,1.26-5.8H87V105a6.18,6.18,0,0,1,1.75.32c.27.12.4.43.4.92a5,5,0,0,1-.13,1c0,.21-.11.46-.17.73l-3.63,13.68a3.22,3.22,0,0,1-.83,1.64,3.12,3.12,0,0,1-1.57.55v.79H91.6v-.79a3.68,3.68,0,0,1-1.39-.2,1.17,1.17,0,0,1-.73-1.2c0-.11,0-.22,0-.33s0-.23.08-.36l1.94-7.44c1.68,0,2.78.21,3.29.65a2.72,2.72,0,0,1,.77,2.16c0,.12,0,.29,0,.51s0,.47-.08.77l.81.15,2.19-8.34-.82-.1a6,6,0,0,1-2,2.68,11.46,11.46,0,0,1-3.86.53l1.76-6.76A1.93,1.93,0,0,1,94.15,105.43Z"/><path d="M109.05,105.8a2,2,0,0,0-.57-1.45,2,2,0,0,0-2.81,0,2.08,2.08,0,0,0,0,2.9,1.95,1.95,0,0,0,2.81,0A2,2,0,0,0,109.05,105.8Z"/><path d="M103.44,124.93a3.75,3.75,0,0,0,2.69-1.25,20.74,20.74,0,0,0,2.22-3l-.65-.43a11.68,11.68,0,0,1-1.18,1.66c-.44.52-.81.79-1.11.79a.58.58,0,0,1-.32-.1.49.49,0,0,1-.15-.43,9,9,0,0,1,.26-1.43c.07-.28.2-.8.39-1.54l2.3-8.69-1.26.26c-.44.09-1.19.19-2.25.32s-1.86.2-2.41.24v.81a4.87,4.87,0,0,1,1.37.19c.25.1.37.35.37.76a.86.86,0,0,1,0,.22,2,2,0,0,1,0,.24l-1.82,6.85c-.13.51-.24.92-.3,1.22a6.12,6.12,0,0,0-.18,1.18,1.89,1.89,0,0,0,.65,1.57A2.27,2.27,0,0,0,103.44,124.93Z"/><path d="M121,112.48a2.25,2.25,0,0,0-.42-1.32,1.43,1.43,0,0,0-1.27-.6c-.83,0-1.69.62-2.59,1.85a27.4,27.4,0,0,0-2,3.59l-.13,0,1.64-5.41c-1.35.26-2.3.43-2.86.51-.87.13-1.93.23-3.19.31v.81a3.32,3.32,0,0,1,1.24.16.71.71,0,0,1,.36.73,26.52,26.52,0,0,1-.9,4c-.51,2.1-1.18,4.6-2,7.51h3.57c.2-.61.51-1.61.94-3s.78-2.46,1.07-3.21a21,21,0,0,1,1.53-3.22c.61-1.05,1.1-1.58,1.47-1.58a.33.33,0,0,1,.21.06,1.06,1.06,0,0,1,.15.15l.28.36a1.36,1.36,0,0,0,.52.44,1.57,1.57,0,0,0,.68.15,1.41,1.41,0,0,0,1.26-.7A2.84,2.84,0,0,0,121,112.48Z"/><path d="M124.71,125a4.66,4.66,0,0,0,3.14-1.12,3.75,3.75,0,0,0,1.29-3,4.51,4.51,0,0,0-.38-1.77,7.29,7.29,0,0,0-.85-1.5l-1.45-1.91a13.36,13.36,0,0,1-1.1-1.57,2.12,2.12,0,0,1-.28-1,1.82,1.82,0,0,1,.38-1.11,1.43,1.43,0,0,1,1.22-.51,2.12,2.12,0,0,1,1.58.85,5.33,5.33,0,0,1,1,2.79l.78.07.67-4.66h-.86a1.37,1.37,0,0,1-.31.47.74.74,0,0,1-.52.17,4.3,4.3,0,0,1-1.14-.34,4.49,4.49,0,0,0-1.65-.35,4.11,4.11,0,0,0-3,1.1,3.58,3.58,0,0,0-1.11,2.62,5,5,0,0,0,.51,2.15,7.64,7.64,0,0,0,1.22,1.87l1.1,1.41a9.61,9.61,0,0,1,.93,1.42,2.76,2.76,0,0,1,.4,1.33,1.68,1.68,0,0,1-.45,1.17,1.56,1.56,0,0,1-1.2.49,2.59,2.59,0,0,1-1.76-.91,5.15,5.15,0,0,1-1.11-3.16L121,120l-.67,5.08h.79a1.5,1.5,0,0,1,.3-.48.69.69,0,0,1,.55-.21,5.35,5.35,0,0,1,1.08.35A4.83,4.83,0,0,0,124.71,125Z"/><path d="M132.83,111.13v1h1.51l-2.2,8.28c-.2.72-.32,1.24-.39,1.58a4.92,4.92,0,0,0-.09.82,2,2,0,0,0,.58,1.5,2,2,0,0,0,1.45.58,4,4,0,0,0,2.85-1.34,18.77,18.77,0,0,0,2.11-2.86l-.65-.43a10.48,10.48,0,0,1-1.2,1.7q-.66.75-1.08.75a.6.6,0,0,1-.28-.09.4.4,0,0,1-.17-.38,7.49,7.49,0,0,1,.25-1.47c.09-.42.22-.94.4-1.56l1.9-7.08h2.48v-1.25h-2.13l1.18-4.42h-1.07a11,11,0,0,1-3,3.29A12.66,12.66,0,0,1,132.83,111.13Z"/><path d="M6.73,136.69a4,4,0,0,0-.64-.93l-1.4-1.5a8,8,0,0,1-.81-1,1.67,1.67,0,0,1-.21-.87,1.42,1.42,0,0,1,.47-1.08,1.76,1.76,0,0,1,1.22-.42,1.67,1.67,0,0,1,1.65.89,4.27,4.27,0,0,1,.28,1.61l.27,0,.63-3.09H7.84a1.75,1.75,0,0,1-.26.29.57.57,0,0,1-.41.14,4.63,4.63,0,0,1-.78-.2,4.11,4.11,0,0,0-1.26-.21,2.65,2.65,0,0,0-2.09.8,2.59,2.59,0,0,0-.71,1.76,2.18,2.18,0,0,0,.31,1.15,13.77,13.77,0,0,0,1.44,1.76l1,1.06a2.34,2.34,0,0,1,.5.88,1.89,1.89,0,0,1,.1.6,2.24,2.24,0,0,1-.52,1.41,1.79,1.79,0,0,1-1.48.64,2.11,2.11,0,0,1-1.6-.71,2.7,2.7,0,0,1-.66-1.9s0-.13,0-.31l-.29,0-.53,3.46H.86a1,1,0,0,1,.22-.38.5.5,0,0,1,.39-.13,4.06,4.06,0,0,1,.94.28,4.14,4.14,0,0,0,1.48.29A2.89,2.89,0,0,0,6.14,140,3.08,3.08,0,0,0,7,137.89,2.71,2.71,0,0,0,6.73,136.69Z"/><path d="M13.34,133.79a2.4,2.4,0,0,0-1.56.63,6,6,0,0,0-.91,1l.41-1.4a1,1,0,0,0,.06-.2c0-.05,0-.07-.07-.06l-2.45.35v.25l.15,0h.14a1,1,0,0,1,.54.12.41.41,0,0,1,.19.38s0,.11,0,.19a3.73,3.73,0,0,1-.1.39l-2.09,7.39a1,1,0,0,1-.34.58,1.15,1.15,0,0,1-.68.17v.25H9.84v-.23a2.94,2.94,0,0,1-.77-.11c-.14-.06-.2-.19-.2-.39a7.59,7.59,0,0,1,.2-1q.07-.33.27-1.11l.12-.46a3.57,3.57,0,0,0,.53.21,1.73,1.73,0,0,0,.54.07,4.28,4.28,0,0,0,3.08-1.6,5,5,0,0,0,1.49-3.39,2.15,2.15,0,0,0-.47-1.54A1.65,1.65,0,0,0,13.34,133.79Zm-.53,5a2.82,2.82,0,0,1-2.32,1.69,1.15,1.15,0,0,1-.57-.14.46.46,0,0,1-.23-.43A7.29,7.29,0,0,1,10,138.7c.19-.69.4-1.35.62-2a3.81,3.81,0,0,1,1-1.73,1.86,1.86,0,0,1,1.14-.52.83.83,0,0,1,.84.55,2.31,2.31,0,0,1,.11.78A5.81,5.81,0,0,1,12.81,138.79Z"/><path d="M17.3,137.74l.43-.05a6.55,6.55,0,0,0,2.68-.95,2.2,2.2,0,0,0,1.28-1.86,1,1,0,0,0-.35-.81,1.5,1.5,0,0,0-.94-.27,4.36,4.36,0,0,0-3.1,1.57,4.74,4.74,0,0,0-1.51,3.25,2.11,2.11,0,0,0,.61,1.63,2,2,0,0,0,1.4.57,3.87,3.87,0,0,0,2.27-.81,4.78,4.78,0,0,0,1-.89l-.19-.17a9,9,0,0,1-1.05.78,2.33,2.33,0,0,1-1.21.38,1.52,1.52,0,0,1-1-.37,1.29,1.29,0,0,1-.44-1,2.84,2.84,0,0,1,0-.47C17.19,138.12,17.23,138,17.3,137.74Zm.38-1a6.57,6.57,0,0,1,.63-1.19,5.94,5.94,0,0,1,.85-.95,1.47,1.47,0,0,1,1-.42.5.5,0,0,1,.4.17.74.74,0,0,1,.14.46,2.25,2.25,0,0,1-.91,1.6,4.47,4.47,0,0,1-2.36,1C17.5,137.15,17.59,136.92,17.68,136.72Z"/><path d="M26.67,133.8a4.11,4.11,0,0,0-3,1.44,4.45,4.45,0,0,0-1.41,3.16,2.42,2.42,0,0,0,.63,1.77,2.21,2.21,0,0,0,1.65.65,3.23,3.23,0,0,0,1.93-.63,5.94,5.94,0,0,0,1-1l-.22-.17-.06.07a4.27,4.27,0,0,1-1,.85,2.07,2.07,0,0,1-1.13.34,1.3,1.3,0,0,1-1.09-.48,2.22,2.22,0,0,1-.36-1.34,5.24,5.24,0,0,1,.9-2.91,2.52,2.52,0,0,1,2.11-1.39,1.06,1.06,0,0,1,.5.09.28.28,0,0,1,.15.23.87.87,0,0,1-.12.3.82.82,0,0,0-.13.42.57.57,0,0,0,.19.43.66.66,0,0,0,.47.18.72.72,0,0,0,.5-.2.71.71,0,0,0,.21-.55,1.13,1.13,0,0,0-.41-.8A1.78,1.78,0,0,0,26.67,133.8Z"/><path d="M31.68,130.46a.67.67,0,0,0-.53.25.82.82,0,0,0-.22.59.82.82,0,0,0,.22.58.69.69,0,0,0,.53.24.68.68,0,0,0,.53-.24.86.86,0,0,0,0-1.17A.66.66,0,0,0,31.68,130.46Z"/><path d="M31.18,139.6c-.28.3-.51.45-.68.45a.19.19,0,0,1-.19-.1.38.38,0,0,1,0-.19,4,4,0,0,1,.11-.52l1.53-5.4a.09.09,0,0,0,0-.07,1.16,1.16,0,0,0-.37,0l-.68.14-.55.09-.9.11v.25a3.22,3.22,0,0,1,.79.07.3.3,0,0,1,.2.33.78.78,0,0,1,0,.16l0,.16L29.23,139q-.09.31-.12.48a2.21,2.21,0,0,0,0,.39,1,1,0,0,0,.22.64.65.65,0,0,0,.54.27,1.72,1.72,0,0,0,1.14-.54,8.77,8.77,0,0,0,.93-1.15L32,139l-.2-.17A7.94,7.94,0,0,1,31.18,139.6Z"/><path d="M39.16,139.4l-.19.18-.14.12-.14.11a1.05,1.05,0,0,1-.2.14.28.28,0,0,1-.15,0,.19.19,0,0,1-.2-.2,13.16,13.16,0,0,1,.28-1.33l.42-1.53.75-2.71,0-.16a.65.65,0,0,1,0-.15.16.16,0,0,0,0-.1s0,0-.08,0l-.87.09c-.06,0-.1,0-.11.05a.31.31,0,0,0-.06.13l-.17.57,0-.11a1.15,1.15,0,0,0-.28-.44,1.29,1.29,0,0,0-.93-.31,4.11,4.11,0,0,0-3.08,1.8,5.26,5.26,0,0,0-1.44,3.32,1.93,1.93,0,0,0,.5,1.42,1.51,1.51,0,0,0,1.11.51,2.36,2.36,0,0,0,.76-.14,3.79,3.79,0,0,0,1.06-.7,5.6,5.6,0,0,0,.79-.84q.31-.44.45-.66c-.06.23-.13.51-.2.85a4.1,4.1,0,0,0-.1.78.72.72,0,0,0,.16.49.5.5,0,0,0,.44.2,1.59,1.59,0,0,0,.93-.36,7.88,7.88,0,0,0,1.3-1.36l-.18-.16Zm-2.08-1.2c-.71,1.22-1.44,1.84-2.2,1.84a.85.85,0,0,1-.64-.28,1.22,1.22,0,0,1-.27-.88,6.06,6.06,0,0,1,1-2.87c.71-1.27,1.48-1.9,2.31-1.9a.85.85,0,0,1,.62.26,1.14,1.14,0,0,1,.25.8A6,6,0,0,1,37.08,138.2Z"/><path d="M41.92,139.24l2.52-9.1s-.07-.07-.11-.07c-.41.1-.75.18-1,.23l-.59.08-.78.11v.25a4,4,0,0,1,.82,0c.14,0,.2.15.2.32v.16a1.29,1.29,0,0,1,0,.19L40.78,139c0,.17-.08.32-.1.44a2.86,2.86,0,0,0-.06.51.76.76,0,0,0,.32.7.9.9,0,0,0,.49.13,1.82,1.82,0,0,0,1.26-.63,9,9,0,0,0,1-1.33l-.2-.14a10.75,10.75,0,0,1-.74.94c-.3.32-.53.48-.72.48a.19.19,0,0,1-.19-.1.49.49,0,0,1-.06-.25.59.59,0,0,1,0-.13S41.86,139.46,41.92,139.24Z"/><path d="M46.61,139.63c-.24.26-.43.39-.56.39a.21.21,0,0,1-.2-.12.34.34,0,0,1,0-.26l1.39-5.09h1.31l.09-.51H47.37l.44-1.65a.28.28,0,0,0,0-.09.22.22,0,0,0,0-.1l-.1,0-.08,0s0,0,0,.05l-.12.15a8.4,8.4,0,0,1-1.16,1.17,6.64,6.64,0,0,1-1.19.63.32.32,0,0,0-.15.1.72.72,0,0,0,0,.26h1.15l-1.46,5.28a.51.51,0,0,0,0,.17.71.71,0,0,0,0,.14.73.73,0,0,0,.17.46.72.72,0,0,0,.56.2,1.61,1.61,0,0,0,1-.38,6.18,6.18,0,0,0,1.15-1.36l.1-.16-.2-.11C47,139.21,46.74,139.49,46.61,139.63Z"/><path d="M54.3,133.76a.61.61,0,0,0-.45.16.57.57,0,0,0-.15.4.6.6,0,0,0,.16.44,1.25,1.25,0,0,0,.29.23l.12.07a.41.41,0,0,1,.22.21.78.78,0,0,1,0,.26,5.24,5.24,0,0,1-.73,2c-.24.48-.63,1.16-1.16,2l-.31-1.81a20.46,20.46,0,0,0-.6-2.26c-.36-1.15-.6-1.71-.73-1.7l-.15,0-2.07.4v.25l.37-.05h.16a1,1,0,0,1,.9.49,7.35,7.35,0,0,1,.68,1.84c.18.64.36,1.38.55,2.21a9.09,9.09,0,0,1,.28,1.66A2.83,2.83,0,0,1,50.9,142c-.54.66-.94,1-1.19,1l-.12,0-.11-.05-.1-.08a2.09,2.09,0,0,0-.3-.21.74.74,0,0,0-.34-.07.57.57,0,0,0-.44.17.64.64,0,0,0-.15.42.6.6,0,0,0,.24.51.84.84,0,0,0,.55.19c.53,0,1.2-.45,2-1.36A26,26,0,0,0,52.75,140a26.7,26.7,0,0,0,1.52-2.65,6.89,6.89,0,0,0,.88-2.6,1,1,0,0,0-.23-.76A.86.86,0,0,0,54.3,133.76Z"/><path d="M61.62,138.77l1.9-6.85A1.84,1.84,0,0,1,64,131a2,2,0,0,1,.84-.26v-.25H61v.25a2.27,2.27,0,0,1,.86.18.55.55,0,0,1,.24.51,1.32,1.32,0,0,1,0,.34c0,.11-.07.31-.14.59L60,139.24a1.77,1.77,0,0,1-.52.95,1.71,1.71,0,0,1-.75.2v.25h3.8v-.25a2.09,2.09,0,0,1-.79-.16.49.49,0,0,1-.27-.5c0-.08,0-.2,0-.36S61.56,139,61.62,138.77Z"/><path d="M70,139.81a.69.69,0,0,1-.44.24.21.21,0,0,1-.17-.1.42.42,0,0,1,0-.2.91.91,0,0,1,0-.23c0-.11,0-.2.07-.28l1-3.62a4.34,4.34,0,0,0,.1-.43,1.64,1.64,0,0,0,0-.38,1,1,0,0,0-.46-.9,1.34,1.34,0,0,0-.58-.12,2.94,2.94,0,0,0-2,1.21A16.36,16.36,0,0,0,66,137.11l1-3.26-.06-.06-1.35.29-.44.09-.7.12v.25l.19,0h.18a.73.73,0,0,1,.49.12.5.5,0,0,1,.12.35,1.18,1.18,0,0,1,0,.27c0,.08-.08.32-.2.72l-1.29,4.68h1.16q.5-1.65.72-2.28a7.94,7.94,0,0,1,.63-1.28,13.55,13.55,0,0,1,1-1.46c.58-.68,1.06-1,1.45-1a.34.34,0,0,1,.31.13.53.53,0,0,1,.08.31,1.69,1.69,0,0,1,0,.28c0,.13,0,.29-.1.49l-1,3.68a1.58,1.58,0,0,0,0,.25c0,.1,0,.19,0,.27a.71.71,0,0,0,.24.62.83.83,0,0,0,.48.17,1.75,1.75,0,0,0,1.17-.6A8.27,8.27,0,0,0,71,139l-.22-.19A8.59,8.59,0,0,1,70,139.81Z"/><path d="M76.48,134a.43.43,0,0,1-.28.08,3,3,0,0,1-.65-.14,2.83,2.83,0,0,0-.85-.14,1.72,1.72,0,0,0-1.34.5,1.61,1.61,0,0,0-.47,1.16,1.91,1.91,0,0,0,.21.86c.1.2.34.57.72,1.14l.62.93a1.31,1.31,0,0,1,.2.39,1.4,1.4,0,0,1,.08.54,1.16,1.16,0,0,1-.31.86,1,1,0,0,1-.78.33,1.33,1.33,0,0,1-1.24-.78,4.86,4.86,0,0,1-.39-1.34h-.25l-.3,2.47h.25a.63.63,0,0,1,.13-.2.29.29,0,0,1,.22-.07c.06,0,.29,0,.67.13a4.11,4.11,0,0,0,.88.13,2.58,2.58,0,0,0,1.66-.56,1.69,1.69,0,0,0,.7-1.38,1.92,1.92,0,0,0-.18-.82,6.27,6.27,0,0,0-.59-1l-.53-.77a8.18,8.18,0,0,1-.54-.84A1.13,1.13,0,0,1,74,135a.72.72,0,0,1,.26-.61.91.91,0,0,1,.59-.21,1.2,1.2,0,0,1,1.15.69,3.62,3.62,0,0,1,.3,1.1h.25l.31-2.14h-.22A.85.85,0,0,1,76.48,134Z"/><path d="M83.68,139.34l-.29.36a1.93,1.93,0,0,1-.3.26.4.4,0,0,1-.23.09.18.18,0,0,1-.16-.07.31.31,0,0,1,0-.17.88.88,0,0,1,0-.21c0-.09,0-.18.07-.28l1.48-5.38H83.1c-.3.85-.54,1.47-.7,1.86a12.41,12.41,0,0,1-.88,1.71,13.31,13.31,0,0,1-1.2,1.65c-.45.53-.83.79-1.13.79a.36.36,0,0,1-.26-.09.37.37,0,0,1-.1-.28s0-.08,0-.15,0-.17.08-.29L80.4,134l0-.12a.1.1,0,0,0,0-.09.09.09,0,0,0-.07,0l-1.22.23-1.12.22v.21a2.35,2.35,0,0,1,.72.07c.13.05.19.18.19.4a.57.57,0,0,1,0,.13l0,.14-1.17,4.25c0,.12,0,.21-.06.28a1.78,1.78,0,0,0,0,.25.78.78,0,0,0,.39.76,1,1,0,0,0,.46.11,2.78,2.78,0,0,0,2-1.26,20.73,20.73,0,0,0,1.66-2.5h.06l-.2.71c-.14.53-.26,1-.36,1.33,0,.19-.09.37-.12.53a3.29,3.29,0,0,0,0,.42.71.71,0,0,0,.21.57.8.8,0,0,0,.54.18,2,2,0,0,0,1.38-.83,6.66,6.66,0,0,0,.72-1l-.21-.15Z"/><path d="M90.65,134.54a.78.78,0,0,0-.19-.53.66.66,0,0,0-.55-.24,2,2,0,0,0-1.39.88,10.38,10.38,0,0,0-1.27,1.95l-.18.35.77-2.95a1,1,0,0,0,0-.12.16.16,0,0,0,0-.09.11.11,0,0,0-.1,0l-.73.13-1.29.26-.31.06v.25l.33,0H86a.55.55,0,0,1,.4.12.52.52,0,0,1,.11.35,2.86,2.86,0,0,1-.06.51c-.05.2-.1.44-.17.7L85,140.64h1.16c.23-.75.41-1.32.55-1.72a14.88,14.88,0,0,1,.59-1.55,12.19,12.19,0,0,1,1-1.78c.38-.55.66-.83.86-.83a.17.17,0,0,1,.1,0l.07.07.09.17a.76.76,0,0,0,.19.21.58.58,0,0,0,.35.09.67.67,0,0,0,.54-.22A.84.84,0,0,0,90.65,134.54Z"/><path d="M96.69,139.4l-.19.18-.14.12-.14.11L96,140a.34.34,0,0,1-.15,0,.16.16,0,0,1-.14-.05.18.18,0,0,1-.06-.15,10.58,10.58,0,0,1,.28-1.33c.11-.43.25-.94.41-1.53l.75-2.71a.9.9,0,0,0,0-.16l0-.15a.46.46,0,0,0,0-.1s0,0-.09,0l-.87.09a.16.16,0,0,0-.11.05.7.7,0,0,0-.05.13l-.17.57,0-.11a1.13,1.13,0,0,0-.27-.44,1.3,1.3,0,0,0-.94-.31,4.1,4.1,0,0,0-3.07,1.8,5.26,5.26,0,0,0-1.44,3.32,1.93,1.93,0,0,0,.5,1.42,1.51,1.51,0,0,0,1.11.51,2.3,2.3,0,0,0,.75-.14,3.79,3.79,0,0,0,1.06-.7,5.13,5.13,0,0,0,.79-.84,7.86,7.86,0,0,0,.46-.66c-.07.23-.13.51-.2.85a4.1,4.1,0,0,0-.1.78.77.77,0,0,0,.15.49.52.52,0,0,0,.45.2,1.61,1.61,0,0,0,.93-.36,8.28,8.28,0,0,0,1.3-1.36l-.19-.16Zm-2.09-1.2c-.7,1.22-1.43,1.84-2.19,1.84a.88.88,0,0,1-.65-.28,1.27,1.27,0,0,1-.26-.88,6,6,0,0,1,.94-2.87c.72-1.27,1.49-1.9,2.32-1.9a.83.83,0,0,1,.61.26,1.1,1.1,0,0,1,.25.8A6,6,0,0,1,94.6,138.2Z"/><path d="M104,139.81a.69.69,0,0,1-.44.24.19.19,0,0,1-.17-.1.42.42,0,0,1-.05-.2.91.91,0,0,1,0-.23c0-.11,0-.2.06-.28l1-3.62c0-.15.07-.3.1-.43a2.45,2.45,0,0,0,0-.38.94.94,0,0,0-.47-.9,1.28,1.28,0,0,0-.58-.12,2.93,2.93,0,0,0-2,1.21,17.24,17.24,0,0,0-1.56,2.11l1-3.26-.06-.06-1.35.29-.45.09-.69.12v.25l.19,0h.18a.74.74,0,0,1,.49.12.5.5,0,0,1,.12.35,2.28,2.28,0,0,1,0,.27l-.2.72-1.29,4.68h1.16q.49-1.65.72-2.28a7.85,7.85,0,0,1,.62-1.28,13.54,13.54,0,0,1,1-1.46c.58-.68,1.06-1,1.45-1a.32.32,0,0,1,.3.13.54.54,0,0,1,.09.31c0,.06,0,.15,0,.28s-.06.29-.11.49l-1,3.68a1.58,1.58,0,0,0,0,.25c0,.1,0,.19,0,.27a.73.73,0,0,0,.23.62.86.86,0,0,0,.49.17,1.75,1.75,0,0,0,1.17-.6,9,9,0,0,0,1-1.18l-.22-.19A8.59,8.59,0,0,1,104,139.81Z"/><path d="M110.07,133.8a4.11,4.11,0,0,0-3,1.44,4.44,4.44,0,0,0-1.4,3.16,2.46,2.46,0,0,0,.62,1.77,2.21,2.21,0,0,0,1.65.65,3.23,3.23,0,0,0,1.93-.63,5.61,5.61,0,0,0,1-1l-.22-.17-.05.07a4.71,4.71,0,0,1-1,.85,2.13,2.13,0,0,1-1.14.34,1.3,1.3,0,0,1-1.09-.48,2.22,2.22,0,0,1-.36-1.34,5.24,5.24,0,0,1,.9-2.91,2.53,2.53,0,0,1,2.11-1.39,1,1,0,0,1,.5.09.28.28,0,0,1,.15.23.87.87,0,0,1-.12.3.92.92,0,0,0-.13.42.57.57,0,0,0,.19.43.67.67,0,0,0,.47.18.72.72,0,0,0,.5-.2.71.71,0,0,0,.21-.55,1.16,1.16,0,0,0-.4-.8A1.82,1.82,0,0,0,110.07,133.8Z"/><path d="M113.72,137.74l.43-.05a6.59,6.59,0,0,0,2.69-.95,2.18,2.18,0,0,0,1.27-1.86.94.94,0,0,0-.35-.81,1.48,1.48,0,0,0-.94-.27,4.34,4.34,0,0,0-3.09,1.57,4.7,4.7,0,0,0-1.51,3.25,2.14,2.14,0,0,0,.6,1.63,2,2,0,0,0,1.41.57,3.84,3.84,0,0,0,2.26-.81,4.86,4.86,0,0,0,1-.89l-.2-.17a9,9,0,0,1-1,.78,2.3,2.3,0,0,1-1.2.38,1.54,1.54,0,0,1-1-.37,1.28,1.28,0,0,1-.43-1,2.05,2.05,0,0,1,0-.47C113.61,138.12,113.66,138,113.72,137.74Zm.38-1a7.36,7.36,0,0,1,.64-1.19,5.5,5.5,0,0,1,.85-.95,1.43,1.43,0,0,1,1-.42.49.49,0,0,1,.4.17.74.74,0,0,1,.14.46,2.22,2.22,0,0,1-.91,1.6,4.44,4.44,0,0,1-2.35,1C113.92,137.15,114,136.92,114.1,136.72Z"/><path d="M132.15,130.34a.75.75,0,0,1-.18.26.67.67,0,0,1-.4.09,6.69,6.69,0,0,1-.95-.18,6.6,6.6,0,0,0-1.46-.18,5.9,5.9,0,0,0-4.62,2.18,6.46,6.46,0,0,0-1.73,4.33,4.26,4.26,0,0,0,1,2.86,3.69,3.69,0,0,0,3,1.22,4.67,4.67,0,0,0,2.36-.61,7,7,0,0,0,1.92-1.7l-.25-.22a8.92,8.92,0,0,1-1.53,1.25,4.11,4.11,0,0,1-2.16.58,2.37,2.37,0,0,1-1.87-.82,3.54,3.54,0,0,1-.73-2.41,7.13,7.13,0,0,1,1.2-4,4.06,4.06,0,0,1,3.49-2.12,2.07,2.07,0,0,1,2,1,3.42,3.42,0,0,1,.41,1.47l.28,0,.56-3.09Z"/><path d="M136.87,133.77a4.24,4.24,0,0,0-3.11,1.55,4.63,4.63,0,0,0-1.41,3.17,2.28,2.28,0,0,0,.63,1.71,2.33,2.33,0,0,0,1.68.6,4.2,4.2,0,0,0,3.11-1.6,4.65,4.65,0,0,0,1.42-3.15,2.58,2.58,0,0,0-.52-1.6A2.15,2.15,0,0,0,136.87,133.77Zm.21,4.83c-.63,1.24-1.36,1.86-2.18,1.86a1.09,1.09,0,0,1-.92-.41,1.67,1.67,0,0,1-.32-1,6.22,6.22,0,0,1,1-3.19c.67-1.15,1.4-1.73,2.17-1.73a1,1,0,0,1,1,.66,2.54,2.54,0,0,1,.13.91A6.57,6.57,0,0,1,137.08,138.6Z"/><path d="M150.35,139.11l.07-.1-.23-.19-.54.66-.25.27a2.26,2.26,0,0,1-.26.23.48.48,0,0,1-.24.07.22.22,0,0,1-.2-.11.28.28,0,0,1,0-.2l1.19-4.13a5.14,5.14,0,0,0,.15-.81.93.93,0,0,0-.3-.77,1,1,0,0,0-.65-.24,3,3,0,0,0-1.95,1.21,18.18,18.18,0,0,0-1.45,2c.22-.68.37-1.17.46-1.47a3,3,0,0,0,.12-.72.93.93,0,0,0-.36-.82,1,1,0,0,0-.55-.16,2.85,2.85,0,0,0-1.85,1.09,20.42,20.42,0,0,0-1.61,2.06l.86-3.1-.06-.05c-1.14.25-2,.41-2.46.5v.25a2.77,2.77,0,0,1,.78,0q.21.06.21.36a.78.78,0,0,1,0,.16.94.94,0,0,1,0,.16l-1.45,5.39h1.16c.26-.86.47-1.51.63-2a9.1,9.1,0,0,1,.86-1.79,13.37,13.37,0,0,1,1.18-1.49c.47-.53.88-.79,1.2-.79a.33.33,0,0,1,.27.1.47.47,0,0,1,.08.28c0,.05,0,.09,0,.13l0,.14-1.52,5.39h1.18c.34-1.23.57-2,.69-2.38a9,9,0,0,1,.66-1.35,13.65,13.65,0,0,1,1.19-1.55,1.85,1.85,0,0,1,1.21-.76.32.32,0,0,1,.24.09.37.37,0,0,1,.1.28.62.62,0,0,1,0,.13s0,.09,0,.15l-1.17,4.24a1.88,1.88,0,0,0-.06.29,2.32,2.32,0,0,0,0,.24.78.78,0,0,0,.26.66.69.69,0,0,0,.41.12,1.7,1.7,0,0,0,1.09-.46A6.18,6.18,0,0,0,150.35,139.11Z"/><path d="M156,133.79a2.4,2.4,0,0,0-1.56.63,6,6,0,0,0-.91,1L154,134l.05-.2q0-.08-.06-.06l-2.46.35,0,.25.14,0h.15a1,1,0,0,1,.54.12.43.43,0,0,1,.18.38.76.76,0,0,1,0,.19,3.11,3.11,0,0,1-.09.39l-2.09,7.39a1,1,0,0,1-.34.58,1.17,1.17,0,0,1-.69.17v.25h3.23v-.23a3,3,0,0,1-.78-.11.39.39,0,0,1-.2-.39c0-.08.07-.41.2-1q.08-.33.27-1.11l.13-.46a3.19,3.19,0,0,0,.53.21,1.62,1.62,0,0,0,.53.07,4.26,4.26,0,0,0,3.08-1.6,5,5,0,0,0,1.5-3.39,2.2,2.2,0,0,0-.47-1.54A1.69,1.69,0,0,0,156,133.79Zm-.52,5a2.84,2.84,0,0,1-2.32,1.69,1.15,1.15,0,0,1-.57-.14.45.45,0,0,1-.24-.43,8.66,8.66,0,0,1,.29-1.21c.2-.69.4-1.35.62-2a3.9,3.9,0,0,1,1-1.73,1.81,1.81,0,0,1,1.14-.52.82.82,0,0,1,.83.55,2.06,2.06,0,0,1,.12.78A5.81,5.81,0,0,1,155.51,138.79Z"/><path d="M164.84,139.4l-.19.18-.15.12-.13.11-.21.14a.28.28,0,0,1-.15,0,.19.19,0,0,1-.14-.05.17.17,0,0,1-.05-.15,10.58,10.58,0,0,1,.28-1.33c.11-.43.25-.94.41-1.53l.75-2.71.05-.16s0-.09.05-.15a.16.16,0,0,0,0-.1s0,0-.08,0l-.87.09c-.06,0-.09,0-.11.05a.34.34,0,0,0-.05.13l-.17.57,0-.11a1.15,1.15,0,0,0-.28-.44,1.29,1.29,0,0,0-.93-.31,4.11,4.11,0,0,0-3.08,1.8,5.24,5.24,0,0,0-1.43,3.32,1.93,1.93,0,0,0,.49,1.42,1.55,1.55,0,0,0,1.12.51,2.3,2.3,0,0,0,.75-.14,3.79,3.79,0,0,0,1.06-.7,5.6,5.6,0,0,0,.79-.84c.21-.29.37-.51.46-.66a7.22,7.22,0,0,0-.2.85,4.3,4.3,0,0,0-.11.78.72.72,0,0,0,.16.49.5.5,0,0,0,.44.2,1.56,1.56,0,0,0,.93-.36,7.88,7.88,0,0,0,1.3-1.36l-.18-.16Zm-2.09-1.2c-.7,1.22-1.44,1.84-2.2,1.84a.86.86,0,0,1-.64-.28,1.22,1.22,0,0,1-.26-.88,6,6,0,0,1,.94-2.87c.71-1.27,1.48-1.9,2.32-1.9a.85.85,0,0,1,.61.26,1.1,1.1,0,0,1,.25.8A6,6,0,0,1,162.75,138.2Z"/><path d="M172.93,138.83a8.33,8.33,0,0,1-.81,1,.68.68,0,0,1-.43.24.18.18,0,0,1-.17-.1.34.34,0,0,1-.06-.2,1.85,1.85,0,0,1,0-.23l.07-.28,1-3.62a4.15,4.15,0,0,0,.09-.43,1.64,1.64,0,0,0,0-.38.93.93,0,0,0-.46-.9,1.31,1.31,0,0,0-.58-.12,3,3,0,0,0-2,1.21,18.51,18.51,0,0,0-1.55,2.11l1-3.26a.17.17,0,0,0-.06-.06l-1.34.29-.45.09-.7.12v.25l.2,0H167a.71.71,0,0,1,.49.12.46.46,0,0,1,.13.35,1.18,1.18,0,0,1,0,.27c0,.08-.08.32-.19.72l-1.3,4.68h1.16c.33-1.1.58-1.86.73-2.28a7.85,7.85,0,0,1,.62-1.28,13.55,13.55,0,0,1,1-1.46c.59-.68,1.07-1,1.45-1a.34.34,0,0,1,.31.13.54.54,0,0,1,.09.31,2.05,2.05,0,0,1,0,.28c0,.13-.05.29-.1.49l-1,3.68c0,.07,0,.16-.05.25a2.62,2.62,0,0,0,0,.27.7.7,0,0,0,.23.62.86.86,0,0,0,.49.17,1.71,1.71,0,0,0,1.16-.6,8.91,8.91,0,0,0,1-1.18Z"/><path d="M179.58,134a.85.85,0,0,0-.61-.23.62.62,0,0,0-.46.16.57.57,0,0,0-.15.4.6.6,0,0,0,.16.44,1.25,1.25,0,0,0,.29.23l.13.07a.42.42,0,0,1,.21.21.78.78,0,0,1,0,.26,5.35,5.35,0,0,1-.72,2c-.25.48-.64,1.16-1.17,2l-.31-1.81a20.46,20.46,0,0,0-.6-2.26c-.36-1.15-.6-1.71-.72-1.7l-.16,0-2.07.4v.25l.38-.05H174a1,1,0,0,1,.9.49,7.35,7.35,0,0,1,.68,1.84c.18.64.36,1.38.55,2.21a9.09,9.09,0,0,1,.28,1.66,2.83,2.83,0,0,1-.82,1.42c-.54.66-.94,1-1.19,1l-.12,0-.11-.05-.1-.08a2.09,2.09,0,0,0-.3-.21.74.74,0,0,0-.34-.07.57.57,0,0,0-.44.17.64.64,0,0,0-.15.42.6.6,0,0,0,.24.51.84.84,0,0,0,.55.19c.53,0,1.2-.45,2-1.36a24.32,24.32,0,0,0,1.81-2.48,26.7,26.7,0,0,0,1.52-2.65,6.89,6.89,0,0,0,.88-2.6A1,1,0,0,0,179.58,134Z"/><path class="a" d="M133.8,32.3H66.67L53.84,79.9a12.54,12.54,0,0,1-1,2.89A3,3,0,0,1,51.65,84a5,5,0,0,1-2.25.38v8.45H68.06V84.34a12.3,12.3,0,0,1-2.79-.17,2,2,0,0,1-1.11-.82,2.32,2.32,0,0,1-.34-1.25,14.07,14.07,0,0,1,.48-2.55L67.71,67h8.21V79.57c0,.87.2,2.85-1,3.8a2.53,2.53,0,0,1-1.54.88l-2.11.09v8.45h42.6V84.34h-1.71A4.81,4.81,0,0,1,109.9,84c-.4-.26-.47-.79-.87-1.18s-.27-1.56-.27-3.08V67.11H111a6.38,6.38,0,0,1,3.37.74,8,8,0,0,1,1.39,1.49h4.87V56h-5.4a3.34,3.34,0,0,1-.82,1.58,7.63,7.63,0,0,1-3.35.66h-2.34v-16h10.92a22.07,22.07,0,0,1,4.53.31,5.65,5.65,0,0,1,4.25,4l5.34,0ZM75.86,42.2v16H70l4.24-16Z"/><path class="b" d="M133.8,32.3H66.67L53.84,79.9a12.54,12.54,0,0,1-1,2.89A3,3,0,0,1,51.65,84a5,5,0,0,1-2.25.38v8.45H68.06V84.34a12.3,12.3,0,0,1-2.79-.17,2,2,0,0,1-1.11-.82,2.32,2.32,0,0,1-.34-1.25,14.07,14.07,0,0,1,.48-2.55L67.71,67h8.21V79.57c0,.87.2,2.85-1,3.8a2.53,2.53,0,0,1-1.54.88l-2.11.09v8.45h42.6V84.34h-1.71A4.81,4.81,0,0,1,109.9,84c-.4-.26-.47-.79-.87-1.18s-.27-1.56-.27-3.08V67.11H111a6.38,6.38,0,0,1,3.37.74,8,8,0,0,1,1.39,1.49h4.87V56h-5.4a3.34,3.34,0,0,1-.82,1.58,7.63,7.63,0,0,1-3.35.66h-2.34v-16h10.92a22.07,22.07,0,0,1,4.53.31,5.65,5.65,0,0,1,4.25,4l5.34,0Z"/><polygon class="c" points="57.05 4.75 53.28 7.47 49.53 4.72 50.95 9.14 47.18 11.86 51.82 11.88 53.24 16.31 54.7 11.89 59.34 11.92 55.6 9.17 57.05 4.75"/><polygon class="c" points="38.92 91.63 35.99 95.24 31.66 93.56 34.18 97.47 31.25 101.07 35.74 99.88 38.27 103.78 38.52 99.14 43.01 97.94 38.67 96.27 38.92 91.63"/><polygon class="c" points="31.05 79.43 32.67 75.07 28.8 77.64 25.16 74.76 26.41 79.24 22.54 81.81 27.18 82 28.44 86.48 30.05 82.12 34.7 82.31 31.05 79.43"/><polygon class="c" points="24.08 65.51 26.98 61.89 31.33 63.53 28.78 59.64 31.68 56.02 27.2 57.24 24.65 53.36 24.43 58 19.95 59.23 24.3 60.87 24.08 65.51"/><polygon class="c" points="147.3 40.55 146.07 45.03 149.7 42.13 153.58 44.68 151.94 40.33 155.57 37.42 150.93 37.64 149.28 33.29 148.06 37.77 143.41 37.99 147.3 40.55"/><polygon class="c" points="26.44 44.69 30.32 42.13 33.95 45.03 32.72 40.55 36.59 37.99 31.95 37.77 30.72 33.3 29.08 37.65 24.44 37.44 28.07 40.34 26.44 44.69"/><polygon class="c" points="42.1 16.74 39.24 20.39 34.87 18.8 37.47 22.66 34.6 26.32 39.07 25.04 41.67 28.89 41.83 24.25 46.3 22.97 41.94 21.38 42.1 16.74"/><polygon class="c" points="148.35 93.57 144.01 95.24 141.08 91.64 141.33 96.28 137 97.95 141.49 99.15 141.74 103.79 144.26 99.88 148.76 101.08 145.82 97.47 148.35 93.57"/><polygon class="c" points="154.84 74.77 151.19 77.65 147.32 75.08 148.94 79.44 145.29 82.32 149.94 82.13 151.55 86.49 152.81 82.01 157.45 81.82 153.58 79.25 154.84 74.77"/><polygon class="c" points="152.8 57.27 148.32 56.03 151.22 59.67 148.66 63.54 153.01 61.91 155.9 65.55 155.7 60.91 160.05 59.28 155.57 58.04 155.37 53.39 152.8 57.27"/><polygon class="c" points="138.15 24.24 138.32 28.88 140.91 25.02 145.38 26.3 142.51 22.64 145.11 18.78 140.74 20.38 137.87 16.72 138.04 21.37 133.68 22.97 138.15 24.24"/><polygon class="c" points="130.47 4.71 126.74 7.48 122.96 4.78 124.43 9.18 120.69 11.95 125.34 11.91 126.81 16.32 128.21 11.89 132.86 11.85 129.07 9.15 130.47 4.71"/><polygon class="d" points="94.48 96.6 96.75 29.52 88.07 29.52 90.34 96.6 94.48 96.6"/><path class="e" d="M92.39,27.14c9.47,0,11.59-1.58,11.59-1.58v-.92H80.83v.92S82.92,27.14,92.39,27.14Z"/><rect class="f" x="86.91" y="26.88" width="10.99" height="1.05"/><rect class="g" x="76.53" y="21.84" width="31.75" height="2.8"/><rect class="h" x="71.31" y="20.37" width="42.19" height="1.47"/><path class="i" d="M87.63,15.19H97.2c3.38-1.84,6.47-9-.69-13.73C91.51-1.81,79,2.07,67.64.34a12.27,12.27,0,0,0,5.29,2.44C67.14,4,55.65,5.12,40.91,3c1.22-.07,9.9,5.3,20.46,5.66C79.16,9.25,84.52,15.49,87.63,15.19Z"/><path class="j" d="M89.09,15.18h6.72c3.46-3,7-12.3-6.72-14.13,0,0,11.84,3.21,5,10.68,0,0,2.46-5.34-3.15-6.82,3,3.76.84,6.13-.12,6.77C89,12.86,81.71,9.33,76.45,9.36,81.68,10.61,89.09,15.18,89.09,15.18Z"/><rect class="k" x="87.63" y="15.19" width="9.57" height="5.19"/><path class="l" d="M113.5,17.62v2.75H71.31v-2.8c1.15,0,.66,2,1.81,2s0-2,1.12-2,1.31,2,2.48,2,.43-2,1.6-2,1.44,2,2.59,2,.88-2,2.06-2,1.17,2,2.35,2,1.15-2,2.3-2,1.17,2,2.34,2,1.15-2,2.31-2,1.16,2,2.31,2,1.15-2,2.31-2,1.17,2,2.35,2,1.16-2,2.32-2,1.16,2,2.32,2,1-2,2.2-2,.42,2,1.58,2,1.3-2,2.46-2,0,2,1.2,2,1-2,2.19-2Z"/><line class="m" x1="92.43" y1="29.53" x2="92.43" y2="94.69"/><line class="n" x1="94.17" y1="29.52" x2="93.26" y2="94.68"/><line class="n" x1="95.7" y1="29.52" x2="93.87" y2="94.88"/><line class="o" x1="90.66" y1="29.52" x2="91.63" y2="94.68"/><line class="p" x1="89.18" y1="29.62" x2="91.01" y2="94.88"/><rect class="q" x="87.62" y="27.94" width="9.57" height="1.58"/><rect class="r" x="89.76" y="94.69" width="5.27" height="5.27" rx="2.2" ry="2.2"/></svg>