<svg xmlns="http://www.w3.org/2000/svg" viewBox="0 0 180 144.31"><defs><style>.a{fill:#fff;}</style></defs><title>amfirst</title><path class="a" d="M87.78,33.41H66.64L53.73,81.34a13.53,13.53,0,0,1-1,2.91,3.08,3.08,0,0,1-1.18,1.17,5,5,0,0,1-2.27.39v8.5H68v-8.5a13,13,0,0,1-2.8-.17,2,2,0,0,1-1.12-.83,2.33,2.33,0,0,1-.34-1.26A14.12,14.12,0,0,1,64.25,81l3.43-12.65H76V81c0,.87.2,2.86-1,3.82a2.56,2.56,0,0,1-1.56.89l-2.12.09v8.5H89.84ZM75.89,59.47H70l4.27-16.08h1.64Z"/><polygon class="a" points="95.76 33.41 93.39 33.41 88.78 33.41 90.84 94.31 91.94 94.31 93.29 94.31 94.26 94.31 96.32 33.41 95.76 33.41"/><path class="a" d="M120,43.42a23,23,0,0,1,4.56.31,5.71,5.71,0,0,1,4.28,4l5.37,0V33.41H97.32l-2.06,60.9h18.95v-8.5h-1.72a4.73,4.73,0,0,1-2.33-.39c-.4-.26-.48-.79-.88-1.19s-.27-1.56-.27-3.09V68.46h2.3a6.32,6.32,0,0,1,3.38.75,7.63,7.63,0,0,1,1.41,1.5H121V57.25h-5.43a3.41,3.41,0,0,1-.83,1.59,7.73,7.73,0,0,1-3.37.66H109V43.42Z"/><path class="a" d="M53,12.86l1.43,4.46,1.47-4.45,4.67,0-3.25-2.39a43.57,43.57,0,0,1-5.47-1.25l.27.85-3.79,2.73Z"/><path class="a" d="M89.21,20.07c.3.52.5.84.86.84s.56-.32.85-.84.69-1.21,1.48-1.21,1.17.67,1.48,1.21.49.84.85.84.55-.32.84-.84.69-1.21,1.47-1.21a1.27,1.27,0,0,1,.34.05V17H87.74v1.88C88.52,18.88,88.9,19.53,89.21,20.07Z"/><rect class="a" x="89.88" y="96.23" width="5.31" height="5.31" rx="2.21" ry="2.21"/><polygon class="a" points="36.85 101.45 39.39 105.38 39.65 100.71 44.17 99.5 39.8 97.82 40.05 93.15 37.11 96.78 32.74 95.09 35.28 99.02 32.33 102.65 36.85 101.45"/><polygon class="a" points="28.24 83.45 29.5 87.96 31.13 83.57 35.8 83.76 32.13 80.86 33.76 76.47 29.86 79.07 26.2 76.16 27.46 80.67 23.56 83.26 28.24 83.45"/><polygon class="a" points="25.11 66.86 28.04 63.2 32.41 64.86 29.84 60.95 32.77 57.29 28.26 58.53 25.69 54.62 25.47 59.29 20.95 60.53 25.33 62.18 25.11 66.86"/><polygon class="a" points="149.16 41.72 147.92 46.23 151.57 43.31 155.48 45.88 153.83 41.5 157.48 38.58 152.81 38.79 151.16 34.42 149.92 38.93 145.25 39.15 149.16 41.72"/><polygon class="a" points="27.49 45.88 31.39 43.31 35.05 46.23 33.81 41.72 37.71 39.14 33.04 38.93 31.8 34.42 30.15 38.8 25.48 38.59 29.13 41.51 27.49 45.88"/><polygon class="a" points="40.21 26.11 42.82 29.99 42.98 25.31 47.48 24.03 43.09 22.43 43.26 17.75 40.37 21.43 35.98 19.83 38.59 23.71 35.71 27.4 40.21 26.11"/><polygon class="a" points="143.31 100.71 143.57 105.39 146.11 101.46 150.63 102.66 147.68 99.03 150.22 95.1 145.85 96.78 142.9 93.15 143.16 97.83 138.79 99.51 143.31 100.71"/><polygon class="a" points="153.44 87.97 154.71 83.46 159.38 83.28 155.49 80.68 156.75 76.17 153.08 79.08 149.19 76.48 150.81 80.87 147.14 83.78 151.82 83.58 153.44 87.97"/><polygon class="a" points="154.7 58.56 150.19 57.31 153.11 60.97 150.53 64.87 154.91 63.23 157.82 66.89 157.62 62.22 162 60.58 157.49 59.33 157.28 54.65 154.7 58.56"/><polygon class="a" points="139.95 25.3 140.12 29.98 142.73 26.09 147.23 27.37 144.34 23.69 146.95 19.81 142.56 21.42 139.67 17.74 139.85 22.41 135.45 24.02 139.95 25.3"/><polygon class="a" points="127.05 12.89 128.53 17.32 129.94 12.87 134.62 12.82 130.81 10.11 132.22 5.64 128.46 8.43 124.65 5.71 126.14 10.15 122.37 12.93 127.05 12.89"/><path class="a" d="M55.86,123.72a4.44,4.44,0,0,1-.38-1l-2.86-17.1H51.9L41.45,122.1c-.66,1-1.24,2.05-2.54,2.28v.72h5.57v-.72c-.69-.06-1.85,0-1.85-1a2.3,2.3,0,0,1,.21-.84l1.9-3.38h6.15l.43,3.5c0,.69-.08,1.15-.77,1.47a3.79,3.79,0,0,1-1.48.26v.72h8.69v-.72a4,4,0,0,1-1.41-.2A2.71,2.71,0,0,1,55.86,123.72ZM45.41,118l4.24-7,1,7Z"/><path class="a" d="M73.21,122.5a2.13,2.13,0,0,0,1.94,3c2.13,0,3.63-2,4.53-3.76l-.64-.37c-1.38,2.42-2.62,2.4-2.42,1.73l2.25-7.33c1.1-3.61-1-3.87-2.14-3.87-2.25,0-4.27,3-5.25,4.68l-.06-.06c1.1-3.06.52-4.62-1.21-4.62-2.74,0-4.82,3.35-6,5.37l0-.06,1.61-5.31c-2.16.4-4,.63-5.71.78v.78c.6-.06,1.73,0,1.53.69l-2.89,11h3.46a40.57,40.57,0,0,1,1.68-5.4c1.35-3.14,2.6-4.76,3.84-5.51.81-.49,1.18-.12.84,1.33l-3,9.58H69A46.24,46.24,0,0,1,71.45,118c.52-1,2.25-4,3.52-4,.93,0,.75.72.55,1.35Z"/><path class="a" d="M99.31,106H84.1v.72c1.07.2,2.07-.11,2.07,1.3l-3.69,14a3.47,3.47,0,0,1-1,2,3.4,3.4,0,0,1-1.36.4v.72h8.43v-.72a3.43,3.43,0,0,1-1.41-.26c-.81-.37-.61-.92-.61-1.21l2-7.45c1.06,0,3.11,0,3.63,1.15a5.51,5.51,0,0,1,.18,2.66l.78.14,2.13-7.79-.81-.12c-1.27,3-2.71,3-5.65,3l1.64-6a2.85,2.85,0,0,1,.55-1.27c.29-.35,1-.35,1.44-.35,3.73,0,5.06,1.59,5,4.39l.78.15Z"/><path class="a" d="M103.9,105.58a2,2,0,1,0,1.91,1.91A2,2,0,0,0,103.9,105.58Z"/><path class="a" d="M102.83,123.23c-.57.26-.75.2-1,0a1.9,1.9,0,0,1,0-.92l2.77-10.45c-2.28.29-4.36.58-5.74.78v.78c1.41,0,1.93.17,1.53,1.64l-2,7.31c-.63,2.31.81,3.09,1.79,3.09,2.43,0,3.64-2.14,4.86-4l-.64-.4A10.53,10.53,0,0,1,102.83,123.23Z"/><path class="a" d="M105.89,125.1h3.47c1.24-3.52,1.91-7.45,4.5-10.28a.57.57,0,0,1,.55,0c.61.73.87,1,1.5,1,1.22,0,1.71-1.18,1.71-2.22a1.63,1.63,0,0,0-1.65-1.73c-1.9,0-3.75,3.64-4.44,5.14l-.15-.06,1.59-5.08c-2.08.34-3.93.52-5.72.78v.78c.69,0,1-.06,1.3.17s.35.81,0,1.91Z"/><path class="a" d="M125.85,121.58a5.92,5.92,0,0,0-1.42-3.29l-2.19-3a1.53,1.53,0,0,1,1.18-2.57c1.65,0,2.43,2,2.54,3.44l.75.06.67-4.39h-.84c-.26.75-.87.69-1.33.55a15.58,15.58,0,0,0-1.59-.55A5.13,5.13,0,0,0,122,112a3.37,3.37,0,0,0-2.72,3.49c0,1.73.93,3,2,4.24.63.78,1.9,2.23,1.9,3.32a1.57,1.57,0,0,1-1.7,1.59c-1.68,0-2.66-2.39-2.69-3.81l-.75-.09-.63,4.77h.78a.84.84,0,0,1,.72-.58,12.58,12.58,0,0,0,2.8.58C125.18,125.48,125.85,122.85,125.85,121.58Z"/><path class="a" d="M129.71,112.37v1h1.48L129.11,121c-1.47,4.13.37,4.54,1.24,4.54,2.45,0,3.84-2.11,4.94-3.93l-.61-.4a6.79,6.79,0,0,1-2.17,2.31c-.49.2-.54-.5-.37-1.13l2.4-9h2.36v-1.18h-2.05L136,108h-1A10.47,10.47,0,0,1,129.71,112.37Z"/><path class="a" d="M99.42,21.63c-1.19,0-1.19-2-2.38-2s-1.15,2-2.32,2-1.16-2-2.32-2-1.16,2-2.33,2-1.18-2-2.35-2-1.16,2-2.32,2-1.19-2-2.37-2-.89,2-2.07,2-1.45-2-2.6-2-.44,2-1.62,2-1.32-2-2.49-2,0,2-1.13,2-.66-2-1.82-2V22h42.47V19.59c-1.17,0-1,2-2.2,2s0-2-1.21-2-1.3,2-2.48,2-.43-2-1.59-2-1,2-2.21,2-1.17-2-2.34-2S100.59,21.63,99.42,21.63Z"/><polygon class="a" points="113.78 22.76 71.31 22.76 71.31 22.76 71.31 23.53 113.78 23.53 113.78 22.76"/><rect class="a" x="76.56" y="24.25" width="31.96" height="2"/><rect class="a" x="87.73" y="29.72" width="9.63" height="1.9"/><path class="a" d="M104.2,27.63V27H80.9v.66S82.15,28.57,87,29H98C102.92,28.57,104.2,27.63,104.2,27.63Z"/><path class="a" d="M87.91,16.44h9.48c3.35-1.82,6.41-9-.68-13.61C91.76-.4,79.38,3.44,68.09,1.72a12.16,12.16,0,0,0,5.24,2.42c-5.74,1.25-17.13,2.32-31.74.2,1.22-.07,9.82,5.25,20.29,5.61C79.51,10.56,84.82,16.74,87.91,16.44Z"/><path class="a" d="M6.64,136.85a3.58,3.58,0,0,0-.64-.93l-1.4-1.5a8,8,0,0,1-.81-1,1.71,1.71,0,0,1-.21-.88,1.4,1.4,0,0,1,.47-1.07A1.76,1.76,0,0,1,5.27,131a1.66,1.66,0,0,1,1.65.9,4.43,4.43,0,0,1,.28,1.61l.27,0,.63-3.09H7.74a1.33,1.33,0,0,1-.25.29.64.64,0,0,1-.41.14,4.13,4.13,0,0,1-.78-.21A4.12,4.12,0,0,0,5,130.51a2.62,2.62,0,0,0-2.08.81,2.58,2.58,0,0,0-.71,1.76,2.21,2.21,0,0,0,.31,1.15A13.58,13.58,0,0,0,4,136l1,1.06a2.3,2.3,0,0,1,.5.87,2,2,0,0,1,.1.61A2.19,2.19,0,0,1,5,139.94a1.79,1.79,0,0,1-1.47.64,2.09,2.09,0,0,1-1.6-.72A2.65,2.65,0,0,1,1.3,138s0-.14,0-.31l-.29,0-.53,3.46H.77a1.18,1.18,0,0,1,.22-.39.54.54,0,0,1,.39-.13,4.17,4.17,0,0,1,.93.29,4.22,4.22,0,0,0,1.49.28,2.88,2.88,0,0,0,2.25-.93,3.1,3.1,0,0,0,.85-2.15A2.65,2.65,0,0,0,6.64,136.85Z"/><path class="a" d="M13.25,133.94a2.37,2.37,0,0,0-1.56.64,6.06,6.06,0,0,0-.92,1l.42-1.4a1.13,1.13,0,0,0,.06-.21s0-.06-.07-.06l-2.45.36v.25l.15,0H9a1,1,0,0,1,.54.12.41.41,0,0,1,.19.37,1.76,1.76,0,0,1,0,.19,3.75,3.75,0,0,1-.1.4L7.55,143a.94.94,0,0,1-.34.57,1.08,1.08,0,0,1-.68.18V144H9.75v-.22a2.61,2.61,0,0,1-.78-.12c-.13,0-.19-.18-.19-.39a9.19,9.19,0,0,1,.19-1c.06-.22.15-.59.28-1.11l.12-.47a2.87,2.87,0,0,0,.53.22,2.12,2.12,0,0,0,.54.06,4.26,4.26,0,0,0,3.08-1.59A5,5,0,0,0,15,136a2.14,2.14,0,0,0-.47-1.54A1.66,1.66,0,0,0,13.25,133.94Zm-.53,5a2.8,2.8,0,0,1-2.32,1.69,1.14,1.14,0,0,1-.57-.13.49.49,0,0,1-.23-.43,7.29,7.29,0,0,1,.29-1.22c.19-.68.4-1.34.62-2a3.86,3.86,0,0,1,1-1.73,1.92,1.92,0,0,1,1.14-.52.84.84,0,0,1,.84.56,2.31,2.31,0,0,1,.11.78A5.78,5.78,0,0,1,12.72,138.94Z"/><path class="a" d="M17.21,137.9l.43-.05a6.7,6.7,0,0,0,2.68-.95A2.22,2.22,0,0,0,21.6,135a1,1,0,0,0-.35-.81,1.5,1.5,0,0,0-.94-.27,4.31,4.31,0,0,0-3.1,1.57,4.68,4.68,0,0,0-1.51,3.25,2.11,2.11,0,0,0,.61,1.63,2,2,0,0,0,1.4.56,3.87,3.87,0,0,0,2.27-.81,4.76,4.76,0,0,0,1-.88l-.19-.18a9.6,9.6,0,0,1-1.06.79,2.37,2.37,0,0,1-1.2.38,1.52,1.52,0,0,1-1-.37,1.29,1.29,0,0,1-.44-1,2.81,2.81,0,0,1,0-.46C17.1,138.27,17.14,138.11,17.21,137.9Zm.38-1a6.85,6.85,0,0,1,.63-1.18,5.54,5.54,0,0,1,.85-.95,1.47,1.47,0,0,1,1-.42.5.5,0,0,1,.4.17.72.72,0,0,1,.14.46,2.22,2.22,0,0,1-.91,1.59,4.41,4.41,0,0,1-2.36,1C17.41,137.3,17.5,137.07,17.59,136.87Z"/><path class="a" d="M26.58,134a4.17,4.17,0,0,0-3,1.43,4.5,4.5,0,0,0-1.4,3.17,2.44,2.44,0,0,0,.63,1.77,2.19,2.19,0,0,0,1.64.64,3.27,3.27,0,0,0,1.93-.62,6,6,0,0,0,1-1l-.22-.17-.06.06a4.09,4.09,0,0,1-1,.86,2.07,2.07,0,0,1-1.13.34,1.26,1.26,0,0,1-1.09-.49,2.2,2.2,0,0,1-.36-1.34,5.29,5.29,0,0,1,.9-2.91,2.54,2.54,0,0,1,2.11-1.39,1,1,0,0,1,.5.1.27.27,0,0,1,.15.23,1,1,0,0,1-.12.3.82.82,0,0,0-.13.42.57.57,0,0,0,.19.43.66.66,0,0,0,.47.18.7.7,0,0,0,.71-.75,1.17,1.17,0,0,0-.41-.81A1.82,1.82,0,0,0,26.58,134Z"/><path class="a" d="M31.59,130.62a.69.69,0,0,0-.53.24.83.83,0,0,0-.22.59.81.81,0,0,0,.22.58.67.67,0,0,0,.53.25.69.69,0,0,0,.53-.24.87.87,0,0,0,0-1.18A.69.69,0,0,0,31.59,130.62Z"/><path class="a" d="M31.09,139.75c-.28.3-.51.45-.68.45s-.17,0-.19-.09a.39.39,0,0,1,0-.2,4.44,4.44,0,0,1,.11-.51L31.81,134a.09.09,0,0,0,0-.06.9.9,0,0,0-.37,0l-.68.14-.55.08-.9.12v.25a3.38,3.38,0,0,1,.79.06.32.32,0,0,1,.2.34.77.77,0,0,1,0,.15,1.36,1.36,0,0,1,0,.17l-1.07,3.89q-.09.31-.12.48a2.17,2.17,0,0,0,0,.38,1.06,1.06,0,0,0,.22.65.65.65,0,0,0,.54.27,1.69,1.69,0,0,0,1.14-.55,7.92,7.92,0,0,0,.93-1.14l.08-.11-.2-.16A6.57,6.57,0,0,1,31.09,139.75Z"/><path class="a" d="M39.07,139.56l-.19.18-.14.12-.14.11-.2.13a.33.33,0,0,1-.15.05.22.22,0,0,1-.14-.05.18.18,0,0,1-.06-.16,13.29,13.29,0,0,1,.28-1.32l.42-1.53.75-2.71a1,1,0,0,1,0-.16l0-.16a.1.1,0,0,0,0-.09s0,0-.08,0l-.87.1c-.06,0-.1,0-.11,0a.4.4,0,0,0-.06.13l-.17.57,0-.1a1.08,1.08,0,0,0-.28-.44,1.29,1.29,0,0,0-.93-.31A4.13,4.13,0,0,0,34,135.72,5.28,5.28,0,0,0,32.55,139a2,2,0,0,0,.5,1.43,1.5,1.5,0,0,0,1.11.5,2.34,2.34,0,0,0,.76-.13,3.79,3.79,0,0,0,1.06-.7,5.6,5.6,0,0,0,.79-.84c.21-.29.36-.52.45-.67-.06.23-.13.52-.2.86a4.1,4.1,0,0,0-.1.78.72.72,0,0,0,.16.49.53.53,0,0,0,.44.2,1.61,1.61,0,0,0,.93-.36,8,8,0,0,0,1.3-1.37l-.18-.16ZM37,138.35c-.71,1.23-1.44,1.84-2.2,1.84a.84.84,0,0,1-.64-.27,1.25,1.25,0,0,1-.27-.89,6.09,6.09,0,0,1,.95-2.87q1.06-1.89,2.31-1.89a.81.81,0,0,1,.61.25,1.12,1.12,0,0,1,.26.81A5.92,5.92,0,0,1,37,138.35Z"/><path class="a" d="M41.83,139.4l2.52-9.1c0-.05-.07-.07-.11-.07-.41.1-.75.17-1,.22l-.58.09-.79.1v.25a3.82,3.82,0,0,1,.83.05c.14,0,.2.14.2.32v.15a1.18,1.18,0,0,1,0,.2l-2.13,7.57c0,.17-.08.31-.1.44a2.15,2.15,0,0,0-.06.51.74.74,0,0,0,.32.69.91.91,0,0,0,.49.14,1.82,1.82,0,0,0,1.26-.63,9.58,9.58,0,0,0,1-1.33l-.2-.15a7.52,7.52,0,0,1-.75.94c-.29.33-.53.49-.71.49a.19.19,0,0,1-.19-.11.45.45,0,0,1-.06-.24.68.68,0,0,1,0-.14S41.77,139.62,41.83,139.4Z"/><path class="a" d="M46.51,139.78c-.23.27-.42.4-.55.4a.2.2,0,0,1-.2-.13.33.33,0,0,1,0-.26l1.39-5.08h1.31l.09-.52H47.28l.44-1.65a.28.28,0,0,0,0-.09.92.92,0,0,0,0-.09l-.11,0-.07,0a.12.12,0,0,0-.05.05l-.12.14a7.39,7.39,0,0,1-1.16,1.17,5.56,5.56,0,0,1-1.19.63c-.08,0-.13.07-.15.11a.68.68,0,0,0,0,.26H46L44.5,140l0,.16v.14a.71.71,0,0,0,.17.46.69.69,0,0,0,.56.21,1.61,1.61,0,0,0,.95-.38,5.93,5.93,0,0,0,1.14-1.36l.11-.16-.2-.12A9.67,9.67,0,0,1,46.51,139.78Z"/><path class="a" d="M54.21,133.92a.58.58,0,0,0-.45.16.54.54,0,0,0-.15.39.61.61,0,0,0,.16.45,1.07,1.07,0,0,0,.29.23l.12.07a.45.45,0,0,1,.22.21.77.77,0,0,1,0,.25,5.27,5.27,0,0,1-.73,2c-.24.47-.63,1.16-1.16,2l-.31-1.8a19.89,19.89,0,0,0-.6-2.26c-.36-1.15-.6-1.72-.73-1.7h-.15l-2.07.4v.25l.37,0h.16a1,1,0,0,1,.9.48,7.64,7.64,0,0,1,.68,1.85c.18.64.36,1.38.55,2.2a9.23,9.23,0,0,1,.28,1.66,2.85,2.85,0,0,1-.82,1.43c-.55.65-.94,1-1.19,1l-.12,0a.24.24,0,0,1-.11-.06l-.1-.07a1.51,1.51,0,0,0-.3-.21.74.74,0,0,0-.34-.07.54.54,0,0,0-.44.17.64.64,0,0,0-.15.42.63.63,0,0,0,.24.51.84.84,0,0,0,.55.19c.53,0,1.19-.46,2-1.37a25.6,25.6,0,0,0,1.81-2.47,27.89,27.89,0,0,0,1.52-2.65,7,7,0,0,0,.88-2.61,1.06,1.06,0,0,0-.23-.76A.86.86,0,0,0,54.21,133.92Z"/><path class="a" d="M61.53,138.93l1.9-6.86a1.71,1.71,0,0,1,.43-.88,1.87,1.87,0,0,1,.84-.26v-.25H60.86v.25a2.09,2.09,0,0,1,.86.18.53.53,0,0,1,.24.51,1.37,1.37,0,0,1,0,.34c0,.11-.07.3-.14.58l-1.9,6.86a1.81,1.81,0,0,1-.52.95,1.6,1.6,0,0,1-.75.19v.25h3.8v-.25a1.94,1.94,0,0,1-.79-.15.51.51,0,0,1-.27-.51,3.39,3.39,0,0,1,0-.35C61.42,139.37,61.47,139.17,61.53,138.93Z"/><path class="a" d="M69.9,140a.72.72,0,0,1-.44.23.19.19,0,0,1-.17-.09.46.46,0,0,1-.05-.2.84.84,0,0,1,0-.23c0-.11,0-.2.07-.28l1-3.63a4.19,4.19,0,0,0,.1-.42,1.69,1.69,0,0,0,0-.38.94.94,0,0,0-.47-.9,1.14,1.14,0,0,0-.57-.13,3,3,0,0,0-2,1.22,17.79,17.79,0,0,0-1.56,2.1l1-3.25a.13.13,0,0,0-.06-.07l-1.35.3-.44.09-.7.11v.25l.19,0h.18a.72.72,0,0,1,.49.13.48.48,0,0,1,.12.35,2.11,2.11,0,0,1,0,.26c0,.09-.09.33-.2.72l-1.29,4.68H65c.33-1.1.57-1.85.72-2.27a6.87,6.87,0,0,1,.63-1.28,13.55,13.55,0,0,1,1-1.46c.58-.68,1.06-1,1.45-1a.36.36,0,0,1,.31.13.66.66,0,0,1,.08.32,1.76,1.76,0,0,1,0,.28c0,.12,0,.29-.1.49l-1,3.68a1.37,1.37,0,0,0,0,.25,2.65,2.65,0,0,0,0,.27.72.72,0,0,0,.24.62.8.8,0,0,0,.48.17,1.75,1.75,0,0,0,1.17-.6,8.9,8.9,0,0,0,1-1.18l-.22-.2A8.09,8.09,0,0,1,69.9,140Z"/><path class="a" d="M76.39,134.15a.43.43,0,0,1-.28.07,2.5,2.5,0,0,1-.65-.14,3.19,3.19,0,0,0-.85-.14,1.73,1.73,0,0,0-1.34.51,1.62,1.62,0,0,0-.48,1.16,2,2,0,0,0,.22.86c.1.19.34.57.72,1.13l.62.94a1.52,1.52,0,0,1,.2.38,1.42,1.42,0,0,1,.08.55,1.18,1.18,0,0,1-.31.86,1,1,0,0,1-.78.32,1.34,1.34,0,0,1-1.24-.77,5,5,0,0,1-.39-1.34h-.25l-.3,2.47h.25a.53.53,0,0,1,.13-.2.29.29,0,0,1,.22-.07,5.24,5.24,0,0,1,.67.13,4.87,4.87,0,0,0,.88.13,2.58,2.58,0,0,0,1.66-.56,1.71,1.71,0,0,0,.7-1.38,1.89,1.89,0,0,0-.18-.82,6.27,6.27,0,0,0-.59-1l-.53-.77a8.41,8.41,0,0,1-.54-.83,1.19,1.19,0,0,1-.12-.54.71.71,0,0,1,.27-.61.91.91,0,0,1,.59-.21,1.21,1.21,0,0,1,1.15.69,3.45,3.45,0,0,1,.3,1.1h.25l.31-2.15h-.22A.74.74,0,0,1,76.39,134.15Z"/><path class="a" d="M83.59,139.5c-.14.18-.24.3-.29.35a3,3,0,0,1-.3.27.4.4,0,0,1-.23.09.2.2,0,0,1-.16-.07.33.33,0,0,1,0-.17,1,1,0,0,1,0-.22c0-.08,0-.18.06-.28l1.49-5.37H83c-.31.85-.54,1.47-.7,1.86a12.87,12.87,0,0,1-.88,1.7,13.31,13.31,0,0,1-1.2,1.65c-.46.54-.83.8-1.13.8a.33.33,0,0,1-.26-.1.35.35,0,0,1-.1-.27s0-.08,0-.15,0-.17.08-.3l1.47-5.11,0-.13a.15.15,0,0,0,0-.09.06.06,0,0,0-.07,0l-1.22.22-1.13.22v.22a2.38,2.38,0,0,1,.73.07c.13.05.19.18.19.4a.62.62,0,0,1,0,.13l0,.14-1.18,4.25c0,.12,0,.21,0,.27a1.93,1.93,0,0,0,0,.26.79.79,0,0,0,.39.76,1,1,0,0,0,.46.1,2.83,2.83,0,0,0,2-1.25,21.6,21.6,0,0,0,1.66-2.5h.06l-.2.72q-.21.8-.36,1.32a5.37,5.37,0,0,0-.12.53,2.29,2.29,0,0,0,0,.43.71.71,0,0,0,.21.57.8.8,0,0,0,.54.18,2,2,0,0,0,1.38-.84,5.76,5.76,0,0,0,.72-1L84,139Z"/><path class="a" d="M90.56,134.7a.89.89,0,0,0-.19-.54.7.7,0,0,0-.55-.23,2,2,0,0,0-1.39.88,10.38,10.38,0,0,0-1.27,1.95l-.18.35.77-3s0-.07,0-.12a.14.14,0,0,0,0-.09.11.11,0,0,0-.1,0l-.73.14-1.29.26-.31.06v.25l.33,0h.22a.55.55,0,0,1,.4.12.5.5,0,0,1,.11.34,2.76,2.76,0,0,1-.06.51c0,.21-.1.44-.17.7l-1.27,4.56H86c.23-.74.41-1.31.55-1.72a14.59,14.59,0,0,1,.59-1.54,12.3,12.3,0,0,1,1-1.79c.37-.55.66-.82.86-.82l.1,0a.27.27,0,0,1,.07.08l.09.16a.76.76,0,0,0,.19.21.52.52,0,0,0,.35.1.68.68,0,0,0,.54-.23A.86.86,0,0,0,90.56,134.7Z"/><path class="a" d="M96.6,139.56l-.19.18-.14.12-.14.11-.2.13a.37.37,0,0,1-.15.05.2.2,0,0,1-.14-.05.18.18,0,0,1-.06-.16,10.62,10.62,0,0,1,.28-1.32c.11-.43.25-.94.41-1.53l.75-2.71,0-.16.05-.16a.14.14,0,0,0,0-.09s0,0-.08,0l-.87.1a.16.16,0,0,0-.11,0l0,.13-.17.57,0-.1a1.06,1.06,0,0,0-.27-.44,1.32,1.32,0,0,0-.94-.31,4.11,4.11,0,0,0-3.07,1.79A5.28,5.28,0,0,0,90.08,139a1.92,1.92,0,0,0,.5,1.43,1.5,1.5,0,0,0,1.11.5,2.28,2.28,0,0,0,.75-.13,3.79,3.79,0,0,0,1.06-.7,5.13,5.13,0,0,0,.79-.84,7.65,7.65,0,0,0,.46-.67c-.07.23-.13.52-.2.86a4.1,4.1,0,0,0-.1.78.77.77,0,0,0,.15.49.53.53,0,0,0,.44.2,1.61,1.61,0,0,0,.94-.36,8.45,8.45,0,0,0,1.3-1.37l-.19-.16Zm-2.09-1.21c-.7,1.23-1.43,1.84-2.19,1.84a.86.86,0,0,1-.65-.27,1.3,1.3,0,0,1-.26-.89,6.06,6.06,0,0,1,.94-2.87c.72-1.26,1.49-1.89,2.32-1.89a.82.82,0,0,1,.61.25,1.12,1.12,0,0,1,.25.81A5.92,5.92,0,0,1,94.51,138.35Z"/><path class="a" d="M103.88,140a.68.68,0,0,1-.43.23.19.19,0,0,1-.17-.09.35.35,0,0,1,0-.2.84.84,0,0,1,0-.23c0-.11,0-.2.06-.28l1-3.63c0-.15.07-.29.1-.42a2.58,2.58,0,0,0,0-.38.94.94,0,0,0-.47-.9,1.16,1.16,0,0,0-.58-.13,3,3,0,0,0-2,1.22,17.79,17.79,0,0,0-1.56,2.1l1-3.25a.16.16,0,0,0-.07-.07l-1.34.3-.45.09-.69.11v.25l.19,0h.18a.74.74,0,0,1,.49.13.48.48,0,0,1,.12.35,1.09,1.09,0,0,1,0,.26c0,.09-.08.33-.19.72l-1.29,4.68H99c.33-1.1.57-1.85.72-2.27a7.48,7.48,0,0,1,.62-1.28,13.54,13.54,0,0,1,1-1.46c.58-.68,1.06-1,1.45-1a.34.34,0,0,1,.3.13.57.57,0,0,1,.09.32c0,.05,0,.15,0,.28s-.06.29-.11.49l-1,3.68a1.37,1.37,0,0,0,0,.25,2.65,2.65,0,0,0,0,.27.74.74,0,0,0,.23.62.86.86,0,0,0,.49.17,1.75,1.75,0,0,0,1.17-.6,10.88,10.88,0,0,0,1-1.18l-.22-.2A7,7,0,0,1,103.88,140Z"/><path class="a" d="M110,134a4.13,4.13,0,0,0-3,1.43,4.46,4.46,0,0,0-1.4,3.17,2.44,2.44,0,0,0,.62,1.77,2.2,2.2,0,0,0,1.65.64,3.29,3.29,0,0,0,1.93-.62,6.32,6.32,0,0,0,1-1l-.22-.17,0,.06a4.49,4.49,0,0,1-1,.86,2.13,2.13,0,0,1-1.14.34,1.28,1.28,0,0,1-1.09-.49,2.2,2.2,0,0,1-.36-1.34,5.29,5.29,0,0,1,.9-2.91,2.55,2.55,0,0,1,2.11-1.39,1,1,0,0,1,.5.1.27.27,0,0,1,.15.23,1,1,0,0,1-.12.3.92.92,0,0,0-.13.42.57.57,0,0,0,.19.43.67.67,0,0,0,.47.18.7.7,0,0,0,.71-.75,1.2,1.2,0,0,0-.4-.81A1.87,1.87,0,0,0,110,134Z"/><path class="a" d="M113.63,137.9l.43-.05a6.74,6.74,0,0,0,2.69-.95A2.21,2.21,0,0,0,118,135a.94.94,0,0,0-.35-.81,1.48,1.48,0,0,0-.94-.27,4.31,4.31,0,0,0-3.09,1.57,4.7,4.7,0,0,0-1.52,3.25,2.14,2.14,0,0,0,.61,1.63,2,2,0,0,0,1.41.56,3.84,3.84,0,0,0,2.26-.81,4.85,4.85,0,0,0,1-.88l-.2-.18a10.82,10.82,0,0,1-1.05.79,2.43,2.43,0,0,1-1.2.38,1.54,1.54,0,0,1-1-.37,1.29,1.29,0,0,1-.43-1,3,3,0,0,1,0-.46C113.52,138.27,113.57,138.11,113.63,137.9Zm.38-1a7.73,7.73,0,0,1,.64-1.18,5.15,5.15,0,0,1,.85-.95,1.43,1.43,0,0,1,1-.42.49.49,0,0,1,.4.17.72.72,0,0,1,.14.46,2.18,2.18,0,0,1-.91,1.59,4.37,4.37,0,0,1-2.35,1Q113.88,137.17,114,136.87Z"/><path class="a" d="M132.06,130.5a.65.65,0,0,1-.19.26.62.62,0,0,1-.39.09,5.93,5.93,0,0,1-.95-.19,6.6,6.6,0,0,0-1.46-.18,5.93,5.93,0,0,0-4.62,2.18,6.43,6.43,0,0,0-1.73,4.33,4.28,4.28,0,0,0,1,2.86,3.7,3.7,0,0,0,3,1.23,4.67,4.67,0,0,0,2.36-.62,6.6,6.6,0,0,0,1.91-1.69l-.25-.22a9,9,0,0,1-1.52,1.25,4.21,4.21,0,0,1-2.16.58,2.4,2.4,0,0,1-1.87-.82,3.57,3.57,0,0,1-.73-2.42,7.18,7.18,0,0,1,1.2-4,4,4,0,0,1,3.49-2.11,2.08,2.08,0,0,1,2,1,3.51,3.51,0,0,1,.41,1.48l.27,0,.57-3.09Z"/><path class="a" d="M136.78,133.93a4.2,4.2,0,0,0-3.11,1.55,4.61,4.61,0,0,0-1.41,3.17,2.24,2.24,0,0,0,.63,1.7,2.29,2.29,0,0,0,1.67.61,4.22,4.22,0,0,0,3.12-1.61,4.65,4.65,0,0,0,1.42-3.14,2.63,2.63,0,0,0-.52-1.61A2.15,2.15,0,0,0,136.78,133.93Zm.21,4.83c-.63,1.24-1.36,1.86-2.18,1.86a1.07,1.07,0,0,1-.92-.42,1.65,1.65,0,0,1-.32-1,6.22,6.22,0,0,1,1-3.18c.67-1.16,1.4-1.74,2.17-1.74a1,1,0,0,1,1,.66,2.64,2.64,0,0,1,.13.92A6.61,6.61,0,0,1,137,138.76Z"/><path class="a" d="M150.26,139.27l.07-.11-.23-.18-.54.66-.25.27a1.9,1.9,0,0,1-.26.22.4.4,0,0,1-.24.07.21.21,0,0,1-.2-.1.28.28,0,0,1,0-.2l1.19-4.13a5.14,5.14,0,0,0,.15-.81.94.94,0,0,0-.3-.78,1,1,0,0,0-.65-.24,3,3,0,0,0-1.95,1.22,18.18,18.18,0,0,0-1.45,2c.22-.68.37-1.17.45-1.48a2.62,2.62,0,0,0,.13-.71.9.9,0,0,0-.37-.82.91.91,0,0,0-.54-.17,2.87,2.87,0,0,0-1.85,1.1,20.19,20.19,0,0,0-1.61,2.05l.86-3.1-.06-.05c-1.14.25-2,.42-2.47.5v.25a3.12,3.12,0,0,1,.79,0q.21.06.21.36a.88.88,0,0,1,0,.16,1.24,1.24,0,0,1,0,.16l-1.46,5.38h1.17c.26-.85.47-1.51.63-2a8.94,8.94,0,0,1,.86-1.8,13.34,13.34,0,0,1,1.18-1.48c.47-.53.88-.8,1.2-.8a.37.37,0,0,1,.27.1.5.5,0,0,1,.08.29s0,.09,0,.13l0,.13-1.52,5.39h1.18q.51-1.83.69-2.37a9,9,0,0,1,.66-1.35,13.65,13.65,0,0,1,1.19-1.55,1.85,1.85,0,0,1,1.21-.77.3.3,0,0,1,.24.1.37.37,0,0,1,.1.28.49.49,0,0,1,0,.12s0,.09,0,.15l-1.17,4.25a1.67,1.67,0,0,0-.06.29,1.94,1.94,0,0,0,0,.24.78.78,0,0,0,.26.66.69.69,0,0,0,.41.12,1.7,1.7,0,0,0,1.09-.46A6.8,6.8,0,0,0,150.26,139.27Z"/><path class="a" d="M155.94,133.94a2.37,2.37,0,0,0-1.56.64,5.66,5.66,0,0,0-.91,1l.42-1.4s0-.11.05-.21a.07.07,0,0,0-.07-.06l-2.45.36,0,.25.14,0h.15a1,1,0,0,1,.54.12.42.42,0,0,1,.18.37.72.72,0,0,1,0,.19,3.16,3.16,0,0,1-.09.4l-2.1,7.39a1,1,0,0,1-.33.57,1.11,1.11,0,0,1-.69.18V144h3.23v-.22a2.49,2.49,0,0,1-.78-.12c-.13,0-.2-.18-.2-.39s.07-.4.2-1q.08-.33.27-1.11l.13-.47a2.61,2.61,0,0,0,.53.22,2,2,0,0,0,.53.06,4.25,4.25,0,0,0,3.08-1.59,5,5,0,0,0,1.5-3.39,2.18,2.18,0,0,0-.47-1.54A1.69,1.69,0,0,0,155.94,133.94Zm-.52,5a2.82,2.82,0,0,1-2.33,1.69,1.1,1.1,0,0,1-.56-.13.47.47,0,0,1-.24-.43,8.63,8.63,0,0,1,.29-1.22c.2-.68.4-1.34.62-2a4,4,0,0,1,1-1.73,1.87,1.87,0,0,1,1.14-.52.82.82,0,0,1,.83.56,2.06,2.06,0,0,1,.12.78A5.78,5.78,0,0,1,155.42,138.94Z"/><path class="a" d="M164.75,139.56l-.19.18-.15.12-.13.11a1.35,1.35,0,0,1-.21.13.3.3,0,0,1-.15.05.24.24,0,0,1-.14-.05s-.05-.08-.05-.16a10.62,10.62,0,0,1,.28-1.32c.11-.43.25-.94.41-1.53l.75-2.71.05-.16a.9.9,0,0,1,.05-.16.14.14,0,0,0,0-.09s0,0-.08,0l-.87.1a.14.14,0,0,0-.11,0,.44.44,0,0,0-.05.13l-.17.57,0-.1a1.08,1.08,0,0,0-.28-.44,1.29,1.29,0,0,0-.93-.31,4.13,4.13,0,0,0-3.08,1.79,5.28,5.28,0,0,0-1.44,3.32,2,2,0,0,0,.5,1.43,1.54,1.54,0,0,0,1.11.5,2.29,2.29,0,0,0,.76-.13,3.79,3.79,0,0,0,1.06-.7,5.6,5.6,0,0,0,.79-.84c.21-.29.36-.52.46-.67a7.45,7.45,0,0,0-.2.86,4.3,4.3,0,0,0-.11.78.72.72,0,0,0,.16.49.53.53,0,0,0,.44.2,1.56,1.56,0,0,0,.93-.36,8,8,0,0,0,1.3-1.37l-.18-.16Zm-2.09-1.21c-.7,1.23-1.44,1.84-2.2,1.84a.85.85,0,0,1-.64-.27,1.25,1.25,0,0,1-.26-.89,6.06,6.06,0,0,1,.94-2.87c.71-1.26,1.48-1.89,2.32-1.89a.84.84,0,0,1,.61.25,1.17,1.17,0,0,1,.25.81A5.92,5.92,0,0,1,162.66,138.35Z"/><path class="a" d="M172.84,139a7.86,7.86,0,0,1-.81,1,.7.7,0,0,1-.43.23.18.18,0,0,1-.17-.09.36.36,0,0,1-.06-.2,1.59,1.59,0,0,1,0-.23l.07-.28,1-3.63a4,4,0,0,0,.09-.42,1.69,1.69,0,0,0,0-.38.93.93,0,0,0-.46-.9,1.18,1.18,0,0,0-.58-.13,3,3,0,0,0-2,1.22,19.16,19.16,0,0,0-1.55,2.1l1-3.25a.13.13,0,0,0-.06-.07l-1.34.3-.45.09-.7.11v.25l.2,0h.17a.7.7,0,0,1,.49.13.45.45,0,0,1,.13.35,1.09,1.09,0,0,1,0,.26c0,.09-.08.33-.19.72l-1.3,4.68h1.16c.33-1.1.58-1.85.73-2.27a7.48,7.48,0,0,1,.62-1.28,13.55,13.55,0,0,1,1-1.46c.58-.68,1.07-1,1.45-1a.36.36,0,0,1,.31.13.57.57,0,0,1,.09.32,2.22,2.22,0,0,1,0,.28c0,.12-.05.29-.1.49l-1,3.68c0,.07,0,.15-.05.25a2.53,2.53,0,0,0,0,.27.72.72,0,0,0,.23.62.86.86,0,0,0,.49.17,1.71,1.71,0,0,0,1.16-.6,9.64,9.64,0,0,0,1-1.18Z"/><path class="a" d="M179.49,134.14a.86.86,0,0,0-.62-.22.58.58,0,0,0-.45.16.54.54,0,0,0-.15.39.61.61,0,0,0,.16.45,1.25,1.25,0,0,0,.29.23l.12.07a.41.41,0,0,1,.22.21.77.77,0,0,1,0,.25,5.27,5.27,0,0,1-.73,2c-.24.47-.63,1.16-1.16,2l-.31-1.8a19.89,19.89,0,0,0-.6-2.26c-.36-1.15-.6-1.72-.72-1.7h-.16l-2.07.4v.25l.37,0h.16a1,1,0,0,1,.9.48,7.64,7.64,0,0,1,.68,1.85c.18.64.36,1.38.55,2.2a9.23,9.23,0,0,1,.28,1.66,2.85,2.85,0,0,1-.82,1.43c-.54.65-.94,1-1.19,1l-.12,0a.24.24,0,0,1-.11-.06L174,143a1.51,1.51,0,0,0-.3-.21.74.74,0,0,0-.34-.07.54.54,0,0,0-.44.17.64.64,0,0,0-.15.42.63.63,0,0,0,.24.51.84.84,0,0,0,.55.19c.53,0,1.19-.46,2-1.37a24,24,0,0,0,1.81-2.47,27.89,27.89,0,0,0,1.52-2.65,7,7,0,0,0,.88-2.61A1.06,1.06,0,0,0,179.49,134.14Z"/></svg>