<svg id="npl" xmlns="http://www.w3.org/2000/svg" viewBox="0 0 227.95 218.43"><defs><style>.cls-1{fill:#041e41;}.cls-2{fill:#2f7de1;}.cls-3{fill:#fcee1d;}.cls-4{fill:none;stroke:#fff;stroke-miterlimit:10;stroke-width:1.07px;}</style></defs><title>npl-logo</title><g id="npl-text"><path class="cls-1" d="M9.31,209.35a2.17,2.17,0,0,1-.88-1.06,5,5,0,0,1-.27-1.81v-7.76L19.44,210.3h.31V201a4,4,0,0,1,.74-2.61,2.63,2.63,0,0,1,2.15-.9h.13v-.35H16.3v.35a6,6,0,0,1,1,.14A2.69,2.69,0,0,1,19,199.09a4.3,4.3,0,0,1,.35,1.8v5.63l-9.08-9.41H5.06v.35h.17a3.46,3.46,0,0,1,1.4.26,2,2,0,0,1,.88.73,2.12,2.12,0,0,1,.3,1.16V207a3.37,3.37,0,0,1-.31,1.53,2,2,0,0,1-1,.93,4.58,4.58,0,0,1-1.71.37v.35h6.82v-.35a9.84,9.84,0,0,1-1.12-.09A3,3,0,0,1,9.31,209.35Z" transform="translate(-4.82 -9.58)"/><path class="cls-1" d="M24,209.83h-.36l0,.35H37.89v-5.38h-.35a14.23,14.23,0,0,1-.61,1.79,5.22,5.22,0,0,1-1.42,1.94,5,5,0,0,1-1.14.74,5.48,5.48,0,0,1-1.37.42,9.8,9.8,0,0,1-1.72.14H29.14V204h.54a2.91,2.91,0,0,1,2.39,1,4.58,4.58,0,0,1,.49.77,5,5,0,0,1,.35,1q.15.61.27,1.3h.33v-8.56h-.33a8.38,8.38,0,0,1-.21,1.19,4.8,4.8,0,0,1-.69,1.63,2.82,2.82,0,0,1-2.45,1.33h-.69v-6.21h2.57a7.31,7.31,0,0,1,2.8.48,3.52,3.52,0,0,1,1.28,1,5.72,5.72,0,0,1,.79,1.25,15,15,0,0,1,.69,2h.28v-5.06H23.65v.35H24a2.45,2.45,0,0,1,1.79.58,2.45,2.45,0,0,1,.58,1.8v7.6A2.11,2.11,0,0,1,24,209.83Z" transform="translate(-4.82 -9.58)"/><path class="cls-1" d="M59.52,198a3.05,3.05,0,0,1,.71-.42,2.93,2.93,0,0,1,.85-.16v-.35H55.83l0,.35a3.39,3.39,0,0,1,1.69.37,1.16,1.16,0,0,1,.55,1,3.07,3.07,0,0,1-.21,1l-2.76,7-2.81-7.68a1.83,1.83,0,0,1-.13-.69.91.91,0,0,1,.47-.83,2.51,2.51,0,0,1,1.31-.29h.35v-.35H47.21v.35a2.43,2.43,0,0,1,.87.14,2,2,0,0,1,.7.5,3.36,3.36,0,0,1,.63.81,9.56,9.56,0,0,1,.57,1.4l-2.66,6.63-2.76-7.64a3,3,0,0,1-.17-.94.72.72,0,0,1,.39-.67,2.71,2.71,0,0,1,1.22-.22l0-.35h-6.8v.35h.33a2,2,0,0,1,1.5.63,5.55,5.55,0,0,1,1.11,2l3.78,10.34h.36l3.89-9.73,3.57,9.73h.35L58.18,200A4.71,4.71,0,0,1,59.52,198Z" transform="translate(-4.82 -9.58)"/><path class="cls-1" d="M76.56,209.83h-.65a2.11,2.11,0,0,1-2.37-2.39v-3.1h3.58a11.6,11.6,0,0,0,2.49-.24,6.11,6.11,0,0,0,1.87-.71,3.26,3.26,0,0,0,1.15-1.14,3,3,0,0,0,.39-1.53,2.9,2.9,0,0,0-.82-2.1,4.49,4.49,0,0,0-2.36-1.17,10.51,10.51,0,0,0-1.08-.16q-.65-.07-1.48-.12t-1.51,0H68v.35h.44a2.1,2.1,0,0,1,2.38,2.38v7.6a2.11,2.11,0,0,1-2.37,2.39h-.46v.35h8.62Zm-3-12.37H76a8,8,0,0,1,1.53.12,3.33,3.33,0,0,1,1.08.39,2.91,2.91,0,0,1,1.28,2.72,3.09,3.09,0,0,1-.93,2.47,4.3,4.3,0,0,1-2.86.8H73.53Z" transform="translate(-4.82 -9.58)"/><path class="cls-1" d="M102.53,209.81h-.36a3.14,3.14,0,0,1-1.74-.4,5,5,0,0,1-.78-.82q-.47-.58-1-1.38l-.35-.51-.46-.67-.31-.47a12.24,12.24,0,0,1-1.4-.4,9.42,9.42,0,0,1-1.22-.54q-.61-.32-1.36-.8v0q1.51,0,2.25-.06a12.75,12.75,0,0,0,2-.33,6.77,6.77,0,0,0,1.55-.55,2.69,2.69,0,0,0,1.53-2.37,2.74,2.74,0,0,0-.24-1.09,3,3,0,0,0-.64-1,4,4,0,0,0-1.9-1,14,14,0,0,0-3.25-.3H84.69v.35H85a2.07,2.07,0,0,1,2.37,2.38v7.6A2.08,2.08,0,0,1,85,209.81h-.36v.37h8.25v-.37h-.38a2.09,2.09,0,0,1-2.37-2.37v-3.66h2.94l4.52,6.4h4.9Zm-12.35-6.38v-6H94q3.79,0,3.79,3a3.13,3.13,0,0,1-.42,1.7,2.47,2.47,0,0,1-1.26,1,6.16,6.16,0,0,1-2.16.32Z" transform="translate(-4.82 -9.58)"/><path class="cls-1" d="M118.86,207.06a6,6,0,0,0,.53-5.79,7,7,0,0,0-1.46-2.13,7.49,7.49,0,0,0-2.64-1.71,9.27,9.27,0,0,0-3.35-.58,8.24,8.24,0,0,0-3.85.92,7.51,7.51,0,0,0-2.83,2.49,5.93,5.93,0,0,0-.44,6,6.81,6.81,0,0,0,1.71,2.19,8,8,0,0,0,2.53,1.46,9,9,0,0,0,3.06.51,8.57,8.57,0,0,0,3.92-.91A7.33,7.33,0,0,0,118.86,207.06ZM116,207a4.94,4.94,0,0,1-1.57,2.26,4.05,4.05,0,0,1-4.26.34,4.15,4.15,0,0,1-1.43-1.3,6.44,6.44,0,0,1-.92-2,10.1,10.1,0,0,1-.32-2.62,10.85,10.85,0,0,1,.2-2.15,7.39,7.39,0,0,1,.6-1.8,5.56,5.56,0,0,1,1-1.4,3.44,3.44,0,0,1,1.27-.84,4.36,4.36,0,0,1,1.6-.29,3.37,3.37,0,0,1,1,.16,3.45,3.45,0,0,1,.91.42,4.45,4.45,0,0,1,1.36,1.34,6.59,6.59,0,0,1,.86,2,9.64,9.64,0,0,1,.3,2.45A10,10,0,0,1,116,207Z" transform="translate(-4.82 -9.58)"/><path class="cls-1" d="M129.76,210.42l4.34-9.77a9.76,9.76,0,0,1,1-1.75,3.73,3.73,0,0,1,1.08-1,3.31,3.31,0,0,1,1.34-.43v-.35h-5.26v.35a2.1,2.1,0,0,1,1.39.52,1.68,1.68,0,0,1,.5,1.28,3.31,3.31,0,0,1-.36,1.34l-3,6.74-3.56-7.82a2.72,2.72,0,0,1-.27-1.07.86.86,0,0,1,.36-.74,1.69,1.69,0,0,1,1-.26h.93v-.35H121.6v.35h.46q1.42,0,2.32,2l5.06,11Z" transform="translate(-4.82 -9.58)"/><path class="cls-1" d="M147.24,209.81h-.36a2.08,2.08,0,0,1-2.37-2.37v-7.6a2.07,2.07,0,0,1,2.37-2.37h.36v-.35H139v.35h.37a2.48,2.48,0,0,1,1.68.5,1.53,1.53,0,0,1,.46.61,3.48,3.48,0,0,1,.21,1q.15,1.62.19,4.82,0,.76,0,1.26c0,.33,0,.63-.05.89s-.07.56-.12.89a2.08,2.08,0,0,1-2.37,2.38H139v.37h8.23Z" transform="translate(-4.82 -9.58)"/><path class="cls-1" d="M165.75,203.83a6,6,0,0,0-.53-2.44,6.83,6.83,0,0,0-1.5-2.13,6.59,6.59,0,0,0-2.65-1.62,11.61,11.61,0,0,0-3.69-.53h-8.67v.35h.48a2.07,2.07,0,0,1,2.38,2.38v7.6a2.08,2.08,0,0,1-2.37,2.38h-.48v.37H158a10,10,0,0,0,3.09-.46,7.52,7.52,0,0,0,2.47-1.31,6,6,0,0,0,1.61-2A5.73,5.73,0,0,0,165.75,203.83ZM161,208.56a3.39,3.39,0,0,1-1,.72,4.66,4.66,0,0,1-1.31.4,11.72,11.72,0,0,1-1.82.12h-2.52V197.46h2.36a11.42,11.42,0,0,1,1.81.12,4.83,4.83,0,0,1,1.33.4,3.84,3.84,0,0,1,1,.72,4.9,4.9,0,0,1,.92,1.28,6.72,6.72,0,0,1,.56,1.69,10.35,10.35,0,0,1,.19,2A6.7,6.7,0,0,1,161,208.56Z" transform="translate(-4.82 -9.58)"/><path class="cls-1" d="M181,206.59a5.22,5.22,0,0,1-1.42,1.94,5,5,0,0,1-1.14.74,5.47,5.47,0,0,1-1.37.42,9.81,9.81,0,0,1-1.72.14h-2.15V204h.54a2.9,2.9,0,0,1,2.39,1,4.6,4.6,0,0,1,.49.77,5,5,0,0,1,.35,1q.15.61.27,1.3h.33v-8.56h-.33a8.39,8.39,0,0,1-.21,1.19,4.81,4.81,0,0,1-.69,1.63,2.82,2.82,0,0,1-2.45,1.33h-.69v-6.21h2.57a7.31,7.31,0,0,1,2.79.48,3.51,3.51,0,0,1,1.28,1,5.72,5.72,0,0,1,.79,1.25,15.17,15.17,0,0,1,.69,2h.28v-5.06H167.67v.35H168a2.07,2.07,0,0,1,2.38,2.38v7.6a2.11,2.11,0,0,1-2.37,2.39h-.36l0,.35h14.22v-5.38h-.35A14.41,14.41,0,0,1,181,206.59Z" transform="translate(-4.82 -9.58)"/><path class="cls-1" d="M190.17,209.83a9.84,9.84,0,0,1-1.12-.09,3,3,0,0,1-1.21-.38,2.18,2.18,0,0,1-.88-1.06,5,5,0,0,1-.27-1.81v-7.76L198,210.3h.31V201a4,4,0,0,1,.74-2.61,2.63,2.63,0,0,1,2.15-.9h.13v-.35h-6.47v.35a6,6,0,0,1,1,.14,2.68,2.68,0,0,1,1.73,1.49,4.3,4.3,0,0,1,.35,1.8v5.63l-9.08-9.41h-5.25v.35h.17a3.46,3.46,0,0,1,1.4.26,2,2,0,0,1,.88.73,2.11,2.11,0,0,1,.3,1.16V207a3.36,3.36,0,0,1-.31,1.53,2,2,0,0,1-1,.93,4.58,4.58,0,0,1-1.71.37v.35h6.82Z" transform="translate(-4.82 -9.58)"/><path class="cls-1" d="M206.72,209.51a7.74,7.74,0,0,0,3.73.93,6.2,6.2,0,0,0,5.08-2.34,6.37,6.37,0,0,0,.75-1.15,7.7,7.7,0,0,0,.5-1.38h-.33a9.26,9.26,0,0,1-.58,1.44,5.93,5.93,0,0,1-.76,1.09,6,6,0,0,1-1.28,1.1,5.53,5.53,0,0,1-1.5.67,6.16,6.16,0,0,1-1.67.22,4.92,4.92,0,0,1-1.73-.29,3.66,3.66,0,0,1-1.34-.86,3.81,3.81,0,0,1-.74-1.16,6.84,6.84,0,0,1-.43-1.71,17,17,0,0,1-.14-2.32,14.7,14.7,0,0,1,.4-3.74,4.19,4.19,0,0,1,1.22-2.17,3.19,3.19,0,0,1,2.13-.7,4.9,4.9,0,0,1,2.13.5,6.38,6.38,0,0,1,1.92,1.44,9.3,9.3,0,0,1,1.52,2.26,6.5,6.5,0,0,1,.39.9q.14.43.3,1.11h.31l-.27-6.28H216q-1,1.38-1.66,1.38a2,2,0,0,1-.93-.44,6.83,6.83,0,0,0-1.11-.68,4.69,4.69,0,0,0-1.14-.37,6.68,6.68,0,0,0-1.28-.12,6.37,6.37,0,0,0-3.56,1,8,8,0,0,0-1.79,1.59,7,7,0,0,0-1.17,2A6.1,6.1,0,0,0,204,207,7.34,7.34,0,0,0,206.72,209.51Z" transform="translate(-4.82 -9.58)"/><path class="cls-1" d="M232.43,204.79a14.43,14.43,0,0,1-.61,1.79,5.22,5.22,0,0,1-1.42,1.94,5,5,0,0,1-1.14.74,5.48,5.48,0,0,1-1.37.42,9.81,9.81,0,0,1-1.72.14H224V204h.54a2.9,2.9,0,0,1,2.39,1,4.62,4.62,0,0,1,.49.77,5,5,0,0,1,.35,1q.15.61.27,1.3h.33v-8.56h-.33a8.38,8.38,0,0,1-.21,1.19,4.81,4.81,0,0,1-.69,1.63,2.82,2.82,0,0,1-2.45,1.33H224v-6.21h2.57a7.31,7.31,0,0,1,2.79.48,3.52,3.52,0,0,1,1.28,1,5.73,5.73,0,0,1,.79,1.25,15.14,15.14,0,0,1,.69,2h.28v-5.06H218.54v.35h.36a2.07,2.07,0,0,1,2.38,2.38v7.6a2.11,2.11,0,0,1-2.37,2.39h-.36l0,.35h14.22v-5.38Z" transform="translate(-4.82 -9.58)"/><path class="cls-1" d="M23.25,227.19H20.6v-5.54c0-.44,0-.49.34-.62v-.3H19.29v.3c.39.09.37.16.37.62v5.3c0,.46,0,.53-.37.62v.3h5.17V226.6h-.3C24,227.15,23.76,227.19,23.25,227.19Z" transform="translate(-4.82 -9.58)"/><path class="cls-1" d="M25.68,221c.42.09.4.16.4.62v5.3c0,.46,0,.53-.4.62v.3h1.74v-.3c-.42-.13-.4-.18-.4-.62v-5.3c0-.44,0-.49.4-.62v-.3H25.68Z" transform="translate(-4.82 -9.58)"/><path class="cls-1" d="M29,221c.39.09.37.16.37.62v5.3c0,.46,0,.53-.37.62v.3h1.65v-.3c-.36-.13-.34-.18-.34-.62v-2.77h2.32c.31,0,.56,0,.63.36h.3v-1.41h-.3c-.11.42-.45.37-.79.37H30.34v-2.09h2.54c.56,0,1.55-.13,1.6.65h.3v-1.33H29Z" transform="translate(-4.82 -9.58)"/><path class="cls-1" d="M41,227.19H37.55v-3H40c.32,0,.56,0,.66.34H41v-1.38h-.3c-.1.42-.55.36-.88.36H37.55v-2.09H41c.44,0,.63,0,.77.49h.3v-1.17H36.2v.3c.44.06.41.21.41.62v5.3c0,.4,0,.55-.41.62v.3h6.22v-1.28h-.3C42,227.21,41.51,227.19,41,227.19Z" transform="translate(-4.82 -9.58)"/><path class="cls-1" d="M47.48,221c.42.09.4.16.4.62v5.3c0,.46,0,.53-.4.62v.3h1.74v-.3c-.42-.13-.4-.18-.4-.62v-5.3c0-.44,0-.49.4-.62v-.3H47.48Z" transform="translate(-4.82 -9.58)"/><path class="cls-1" d="M55.88,221c.43.09.41.16.41.62v2.58l-4-3.5H50.9v.3c.44.09.42.16.42.62v5.3c0,.46,0,.53-.42.62v.3h1.56v-.3c-.44-.09-.42-.16-.42-.62v-5.2l4.26,3.73v1.47c0,.46,0,.53-.41.62v.3h1.5v-.3c-.39-.09-.37-.16-.37-.62v-5.3c0-.46,0-.53.37-.62v-.3h-1.5Z" transform="translate(-4.82 -9.58)"/><path class="cls-1" d="M60.08,222.29c0-.78,1.14-1,1.76-1,.41,0,1.56.12,1.56.72a.78.78,0,0,1-.12.36l.28.18.79-.93a3.57,3.57,0,0,0-2.51-1c-1.16,0-2.6.55-2.6,1.91,0,2.52,4.61,1.71,4.61,3.54,0,1-1.12,1.31-2,1.31-.56,0-2-.2-2-1,0-.21.15-.32.29-.45l-.2-.28-1,.64A2.78,2.78,0,0,0,61.81,228c1.29,0,2.88-.58,2.88-2.1C64.68,223.22,60.08,224,60.08,222.29Z" transform="translate(-4.82 -9.58)"/><path class="cls-1" d="M70.63,221c.39.09.37.16.37.62v5.54h-1.3a2.29,2.29,0,0,1-1.87-.56,2.4,2.4,0,0,1-.61-1.71A6.32,6.32,0,0,1,68,222c.2-.36.45-.86.9-.95v-.3H67.08v.3c.26,0,.49,0,.34.29A7.75,7.75,0,0,0,66.19,225a2.84,2.84,0,0,0,.93,2.21,3.39,3.39,0,0,0,2.22.66h3v-.3c-.41-.09-.39-.16-.39-.62v-5.3c0-.44,0-.49.39-.62v-.3h-1.7Z" transform="translate(-4.82 -9.58)"/><path class="cls-1" d="M79.22,227l-1.83-2.39a2.05,2.05,0,0,0,2.19-2c0-1.42-1.12-1.89-2.39-1.89h-3v.3c.39.09.37.16.37.62v5.3c0,.46,0,.53-.37.62v.3h1.65v-.3c-.36-.13-.34-.18-.34-.62v-2.3h.84l2.38,3.22h1.22v-.3C79.58,227.53,79.42,227.31,79.22,227Zm-3.72-3v-2.62h1.56c.9,0,1.68.26,1.68,1.3S77.55,224,76.63,224Z" transform="translate(-4.82 -9.58)"/><path class="cls-1" d="M87.64,226.95l-2.75-6.22h-.7l-2.69,6.41c-.09.21-.15.36-.39.43v.3h1.45v-.3c-.15-.08-.47,0-.27-.52l.85-2.07h2.63l.91,2c.24.52.13.52-.16.62v.3h1.65v-.3C87.87,227.51,87.75,227.19,87.64,226.95Zm-4.21-2.65,1-2.39,1.06,2.39Z" transform="translate(-4.82 -9.58)"/><path class="cls-1" d="M94.58,221c.43.09.41.16.41.62v2.58l-4-3.5H89.6v.3c.44.09.42.16.42.62v5.3c0,.46,0,.53-.42.62v.3h1.56v-.3c-.44-.09-.42-.16-.42-.62v-5.2L95,225.48v1.47c0,.46,0,.53-.41.62v.3h1.5v-.3c-.39-.09-.37-.16-.37-.62v-5.3c0-.46,0-.53.37-.62v-.3h-1.5Z" transform="translate(-4.82 -9.58)"/><path class="cls-1" d="M103.17,222.53l.91-.88a3.84,3.84,0,0,0-2.66-1.07,3.4,3.4,0,0,0-3.61,3.32,3.94,3.94,0,0,0,1.54,3,5,5,0,0,0,3.1,1.07,5.17,5.17,0,0,0,1.24-.15v-1.24h-.27a1,1,0,0,1-1.09.69,3.49,3.49,0,0,1-3.48-3.39,2.48,2.48,0,0,1,2.61-2.65c.48,0,1.57.17,1.57.81a.45.45,0,0,1-.1.27Z" transform="translate(-4.82 -9.58)"/><path class="cls-1" d="M110.6,227.19h-3.46v-3h2.45c.32,0,.56,0,.66.34h.3v-1.38h-.3c-.1.42-.55.36-.88.36h-2.23v-2.09h3.46c.44,0,.63,0,.77.49h.3v-1.17H105.8v.3c.44.06.41.21.41.62v5.3c0,.4,0,.55-.41.62v.3H112v-1.28h-.3C111.59,227.21,111.11,227.19,110.6,227.19Z" transform="translate(-4.82 -9.58)"/><path class="cls-1" d="M122.47,222.53l.91-.88a3.84,3.84,0,0,0-2.66-1.07,3.4,3.4,0,0,0-3.61,3.32,3.94,3.94,0,0,0,1.54,3,5,5,0,0,0,3.1,1.07,5.17,5.17,0,0,0,1.24-.15v-1.24h-.27a1,1,0,0,1-1.09.69,3.49,3.49,0,0,1-3.48-3.39,2.48,2.48,0,0,1,2.61-2.65c.48,0,1.57.17,1.57.81a.45.45,0,0,1-.1.27Z" transform="translate(-4.82 -9.58)"/><path class="cls-1" d="M128.67,220.58a3.55,3.55,0,0,0-3.69,3.64,3.66,3.66,0,1,0,7.32.06A3.54,3.54,0,0,0,128.67,220.58Zm0,6.76c-1.81,0-2.66-1.39-2.66-3.06s.79-3,2.56-3,2.68,1.42,2.68,3.11S130.44,227.34,128.68,227.34Z" transform="translate(-4.82 -9.58)"/><path class="cls-1" d="M141.2,227.07l-1.08-5.64c0-.25-.07-.37.29-.4v-.3h-1.29l-1.56,4.06-1.68-4.06h-1.27v.3c.34.09.33.12.26.48l-1,5.5c0,.26-.09.48-.38.56v.3h1.39v-.3c-.3-.05-.31-.21-.26-.5l.87-5.12,1.76,4.24h.42l1.65-4.24.94,5.12c0,.17.17.44-.25.5v.3h1.56v-.3C141.3,227.49,141.25,227.34,141.2,227.07Z" transform="translate(-4.82 -9.58)"/><path class="cls-1" d="M145.38,220.73h-2.61v.3c.43.09.41.16.41.62v5.3c0,.46,0,.53-.41.62v.3h1.76v-.3c-.43-.13-.41-.18-.41-.62V225.7c1.35-.49,4-1.25,4-3.11C148.09,221.08,146.6,220.73,145.38,220.73ZM144.13,225v-3.61h1.1c.85,0,1.93.13,1.93,1.22C147.15,223.95,145.12,224.62,144.13,225Z" transform="translate(-4.82 -9.58)"/><path class="cls-1" d="M154.81,226.95l-2.75-6.22h-.7l-2.69,6.41c-.09.21-.15.36-.39.43v.3h1.45v-.3c-.15-.08-.47,0-.27-.52l.85-2.07h2.63l.91,2c.24.52.13.52-.16.62v.3h1.65v-.3C155,227.51,154.92,227.19,154.81,226.95Zm-4.21-2.65,1-2.39,1.06,2.39Z" transform="translate(-4.82 -9.58)"/><path class="cls-1" d="M161.75,221c.43.09.41.16.41.62v2.58l-4-3.5h-1.38v.3c.44.09.42.16.42.62v5.3c0,.46,0,.53-.42.62v.3h1.56v-.3c-.44-.09-.42-.16-.42-.62v-5.2l4.26,3.73v1.47c0,.46,0,.53-.41.62v.3h1.5v-.3c-.39-.09-.37-.16-.37-.62v-5.3c0-.46,0-.53.37-.62v-.3h-1.5Z" transform="translate(-4.82 -9.58)"/><path class="cls-1" d="M169.12,221c.43.05.3.2.09.6l-1.45,2.8-1.64-3c-.16-.3-.21-.35.16-.4v-.3H164.6v.3c.3,0,.49.36.62.59l2,3.66v1.67c0,.46,0,.53-.42.62v.3h1.75v-.3c-.41-.13-.39-.18-.39-.62v-1.73l1.9-3.59c.14-.27.26-.55.59-.6v-.3h-1.5Z" transform="translate(-4.82 -9.58)"/><path class="cls-1" d="M179.61,227.19H177v-5.54c0-.44,0-.49.34-.62v-.3h-1.65v.3c.39.09.37.16.37.62v5.3c0,.46,0,.53-.37.62v.3h5.17V226.6h-.3C180.41,227.15,180.12,227.19,179.61,227.19Z" transform="translate(-4.82 -9.58)"/><path class="cls-1" d="M182,221c.42.09.4.16.4.62v5.3c0,.46,0,.53-.4.62v.3h1.74v-.3c-.42-.13-.4-.18-.4-.62v-5.3c0-.44,0-.49.4-.62v-.3H182Z" transform="translate(-4.82 -9.58)"/><path class="cls-1" d="M192.67,227.07l-1.08-5.64c-.05-.25-.07-.37.29-.4v-.3h-1.29L189,224.79l-1.68-4.06h-1.27v.3c.34.09.33.12.26.48l-1,5.5c0,.26-.09.48-.38.56v.3h1.39v-.3c-.3-.05-.31-.21-.26-.5L187,222l1.76,4.24h.42L190.8,222l.94,5.12c0,.17.17.44-.25.5v.3h1.56v-.3C192.77,227.49,192.72,227.34,192.67,227.07Z" transform="translate(-4.82 -9.58)"/><path class="cls-1" d="M194.24,221c.42.09.4.16.4.62v5.3c0,.46,0,.53-.4.62v.3H196v-.3c-.42-.13-.4-.18-.4-.62v-5.3c0-.44,0-.49.4-.62v-.3h-1.74Z" transform="translate(-4.82 -9.58)"/><path class="cls-1" d="M197.28,221.92h.3c.09-.55.31-.51.77-.51h1.5v5.54c0,.46,0,.53-.42.62v.3h1.78v-.3c-.44-.09-.42-.16-.42-.62v-5.54h1.57c.46,0,.65,0,.7.51h.3v-1.19h-6.08Z" transform="translate(-4.82 -9.58)"/><path class="cls-1" d="M209.57,227.19h-3.46v-3h2.45c.32,0,.56,0,.66.34h.3v-1.38h-.3c-.1.42-.55.36-.88.36h-2.23v-2.09h3.46c.44,0,.63,0,.77.49h.3v-1.17h-5.88v.3c.44.06.41.21.41.62v5.3c0,.4,0,.55-.41.62v.3H211v-1.28h-.3C210.56,227.21,210.08,227.19,209.57,227.19Z" transform="translate(-4.82 -9.58)"/><path class="cls-1" d="M214.23,220.73h-1.79v.3c.43.09.41.16.41.62v5.3c0,.46,0,.53-.41.62v.3h3.07c1.93,0,3.54-1,3.54-3.07a4.11,4.11,0,0,0-1.52-3.15A4.81,4.81,0,0,0,214.23,220.73Zm1.09,6.46h-1.53v-5.83a4.64,4.64,0,0,1,2.91.65,3.27,3.27,0,0,1,1.31,2.7C218,226.42,217,227.19,215.32,227.19Z" transform="translate(-4.82 -9.58)"/></g><g id="npl-symbol-cutout"><path class="cls-1" d="M50.69,63.38c5.52-4,14.66,5.25,18.65-1.82A8.23,8.23,0,0,0,70,59.94h0v-.07a5.5,5.5,0,0,0,.16-.87A39,39,0,0,0,71,50.7c5.47,1.35,14.26,4.63,22-6.8-4.37.14-9.95-15.33-8.38-27-10.76,14.37-16.83,3-21.41,4.22-1.18.17-2.2,1.61-1.53,5,.2,1,.71,3.79,1.31,7.26l.06-.09v0l-.05.1v0c-4.13,7-7.56,2.41-15.95,8.41S36.8,69.44,34.2,82.25C37.23,73.71,45.17,67.42,50.69,63.38Zm15-11h0v0c0-.08,0-.15.06-.23l.37-1c.75-1.23,2.26-1.13,4.29-.67A38.78,38.78,0,0,1,70,57.43c-.79-2.68-4.19-3.66-4.28-4.86v-.16h0Z" transform="translate(-4.82 -9.58)"/><path class="cls-1" d="M142.41,43.9c7.74,11.43,16.52,8.14,22,6.8a33.29,33.29,0,0,0,.8,8.19,6.86,6.86,0,0,0,.83,2.67c4,7.07,13.13-2.22,18.65,1.82s13.46,10.33,16.49,18.87c-2.6-12.8-4.39-34.45-12.81-40.48s-11.81-1.43-15.95-8.41v0l-.05-.1v0l.06.09c.6-3.47,1.11-6.26,1.31-7.26.67-3.4-.35-4.85-1.53-5-4.58-1.24-10.65,10.15-21.41-4.22C152.36,28.57,146.78,44,142.41,43.9Zm22.48,6.68c2-.47,3.56-.57,4.31.66l.37,1c0,.08,0,.14.05.22V52.4h0v.15c-.08,1.18-3.39,2.16-4.24,4.75A36.06,36.06,0,0,1,164.89,50.58Z" transform="translate(-4.82 -9.58)"/><polygon class="cls-1" points="95.37 5.32 95.37 10.87 93.89 13.09 93.48 13.09 93.48 13.26 97.59 13.26 97.59 13.1 97.16 13.1 95.63 10.81 95.63 5.51 96.83 6.45 100.56 9.38 104.3 12.32 105.49 13.26 105.83 13.26 105.83 6.03 107.29 3.89 107.7 3.89 107.71 3.73 103.63 3.73 103.63 3.89 104.04 3.89 105.57 6.05 105.57 9.49 104.69 8.8 101.9 6.59 99.11 4.41 98.24 3.73 93.13 3.73 93.13 3.89 93.54 3.89 95.37 5.32"/><path class="cls-1" d="M115.29,14.4v7.35l-1.49.92h-.32v.17h6.78v-.17h-.36l-1.49-.94V18.68h2a11.37,11.37,0,0,0,2.81-.3,3.86,3.86,0,0,0,1.76-.89,1.92,1.92,0,0,0,.6-1.43,2,2,0,0,0-.35-1.15,2.74,2.74,0,0,0-1-.88,4.05,4.05,0,0,0-.91-.39,7.61,7.61,0,0,0-1.23-.26,10,10,0,0,0-1.3-.09h-7.34v.17h.29Zm3.1-.84h1.75a2.75,2.75,0,0,1,1.26.26,1.69,1.69,0,0,1,.76.77,2.88,2.88,0,0,1,.26,1.29,2.75,2.75,0,0,1-.6,2,1.76,1.76,0,0,1-.79.44,4.6,4.6,0,0,1-1.25.14H118.4Z" transform="translate(-4.82 -9.58)"/><polygon class="cls-1" points="133.44 9.51 133.29 9.51 133.26 9.86 129.52 13.01 126.76 13.01 126.76 4.85 128.33 3.9 128.62 3.9 128.62 3.73 121.88 3.73 121.88 3.9 122.22 3.9 123.68 4.78 123.68 12.17 122.16 13.09 121.84 13.09 121.84 13.26 133.22 13.26 133.44 9.51"/><path class="cls-1" d="M188.57,86.51a13.63,13.63,0,0,1-.81,6.35,21.53,21.53,0,0,0-1.08,7.77,22,22,0,0,1,1-5.24,19.13,19.13,0,0,0-.36,8c0-4.31.55-8.67,3-12.37a26.22,26.22,0,0,0-1.58,15.41c.22-.71.42-1.44.61-2.18a23.44,23.44,0,0,1,3.07-13.79S190.6,86.49,188.57,86.51Z" transform="translate(-4.82 -9.58)"/><path class="cls-1" d="M187.28,124.88A18.55,18.55,0,0,0,197.43,121c4.31-3.64,5-8.25,5.9-9.45,0,0-1.42-.21-3.09,1.58a26.76,26.76,0,0,1-4.68,5.78c-2.32,2-5.82,2.94-6.56,4a6.39,6.39,0,0,1,3-2.39c2.4-1.19,6.14-5.88,7.4-8a14,14,0,0,1,2.9-3.41,41.72,41.72,0,0,1-5.11.61c-3.9.21-8.81,5.88-10.72,12.18.67-2.33,2.83-9.51,4.92-13.3a25.5,25.5,0,0,0,6.67-4.16c2.46-2.4,3.67-5.95,4.65-7.18l1-1.24a6.84,6.84,0,0,0-3.62.52c-1.45.81-5.62,2.47-9.19,11a13.33,13.33,0,0,1,3-6.76,33.65,33.65,0,0,1,5.39-5.24,33.3,33.3,0,0,0,.62-6.47,9.74,9.74,0,0,0-1.68-5.49s0,1.51-2.34,4C193.66,90,190,94,189.6,103.43c.25-.92.51-1.83.81-2.73,1-3,2.69-5.58,4.23-8.22-1.39,2.72-3,5.42-3.72,8.38-.68,2.4-1,4.88-1.74,7.33a.85.85,0,0,1-.09.45c-.46.87-3.65,11.35-4.85,15s-4.37,12.33-6,16.09a21.26,21.26,0,0,1-3.23,5.45,16.19,16.19,0,0,0,2.2-5.22A12.62,12.62,0,0,0,173.84,128c-3-3.12-5.25-3.77-6.34-3.89.83-4.56,1.49-9.58,2-15.14,2.51,2.85-.35,8.71,4.56,13.26a11,11,0,0,0,7.22,3.3c-4-1.65-7.71-4.38-9-8.57,1.88,4.4,6.36,6.65,10.59,7.73-3-3.45-2.8-8.15-2.53-12.57.29-4.67-.23-6.44-.23-6.44,1.72,2.09.83,11.42,1.72,14.62s1.79,3.93,1.79,3.93a17.65,17.65,0,0,1-.19-7.21c.56-3.28,1.33-8.15,0-12.73a8.37,8.37,0,0,0-4.85-5.76,4.34,4.34,0,0,1,1,3.18c-.07,2.12-1.31,3.4-2.56,8.3a19.41,19.41,0,0,0,.22,9.55c-3.76-6.43,1.4-17,1.4-17A8.46,8.46,0,0,0,175.95,99a5.62,5.62,0,0,0-2.53-.8c1.2,1.49,1,3.63.6,5.39s-1.54,6.74-.29,11.22,7.29,8.81,7.29,8.81a12.44,12.44,0,0,1-8.43-13.14,6,6,0,0,0-1.77-1.31,2.29,2.29,0,0,0-1.32-.26c.62-7,1-14.77,1.15-23.6l4.49-8.84H137c.54-.45,1.06-.91,1.55-1.37,3.56-3.34,8.06-8.5,13.51-9.15s6.1,5.16,6.1,5.16,1.16-5.3-3.56-6.76a11.87,11.87,0,0,0-8.94,1.16c1.53-1.45,1.53-4.79,1.53-4.79a16,16,0,0,1-3.78,0c-2.62-.22-4.65,2.18-4.65,2.18-.22,3.05-2.83,6.28-2.83,6.28l-2.17,7.29h-2l20.36-64.09c.79-2.06-1.33-4.08-2.5-1.68-.81,1.66-11.08,34-21.1,65.77h-1.14V55.58c0-4.82,7.3-6.07,7.3-6.07v-.87l-.2,0s0,0,0-.06V47a.87.87,0,0,0-1-.88q-1.95.3-3.91.52V42.18l.63-.07v-.76l-7-3.27V31.53s-4.49-4.74-5.29-4.74-5.29,4.74-5.29,4.74v6.54l-7,3.27v.76l.7.08v4.44q-2.08-.23-4.14-.54a.87.87,0,0,0-1,.88v1.66s0,0,0,.06l-.2,0h0v.87s7.3,1.25,7.3,6.07V76.44H106.8c-10-31.78-20.29-64.11-21.1-65.77-1.17-2.4-3.29-.38-2.5,1.68l20.36,64.09h-2l-2.35-7.29s-2.62-3.23-2.83-6.28c0,0-2-2.4-4.65-2.18a16,16,0,0,1-3.78,0s0,3.34,1.53,4.79a11.86,11.86,0,0,0-8.94-1.16C75.83,65.77,77,71.07,77,71.07s.65-5.81,6.1-5.16,10,5.81,13.51,9.15c.49.46,1,.92,1.55,1.37H62l4.49,8.84c.26,15.92,1.29,28.55,3.19,38.86-.65,0-3.26.1-6.88,3.91a12.62,12.62,0,0,0-3.33,11.87,16.19,16.19,0,0,0,2.2,5.22,21.22,21.22,0,0,1-3.23-5.45c-1.66-3.76-4.84-12.48-6-16.09s-4.39-14.09-4.85-15a.86.86,0,0,1-.09-.45c-.78-2.45-1.06-4.94-1.74-7.33-.75-3-2.33-5.66-3.72-8.38,1.54,2.64,3.27,5.23,4.23,8.22.31.9.57,1.82.81,2.73C46.66,94,43,90,40.83,87.67c-2.34-2.51-2.34-4-2.34-4a9.73,9.73,0,0,0-1.68,5.49,33.18,33.18,0,0,0,.62,6.47,33.65,33.65,0,0,1,5.39,5.24,13.33,13.33,0,0,1,3,6.76c-3.57-8.52-7.74-10.18-9.19-11A6.84,6.84,0,0,0,33,96.1l1,1.24c1,1.24,2.19,4.78,4.65,7.18a25.52,25.52,0,0,0,6.67,4.16c2.09,3.79,4.25,11,4.92,13.3-1.91-6.3-6.81-12-10.72-12.18a41.72,41.72,0,0,1-5.11-.61,14,14,0,0,1,2.9,3.41c1.26,2.1,5,6.79,7.4,8a6.4,6.4,0,0,1,3,2.39c-.74-1.08-4.24-2-6.56-4a26.79,26.79,0,0,1-4.69-5.78c-1.67-1.79-3.09-1.58-3.09-1.58.91,1.2,1.6,5.81,5.9,9.45a18.54,18.54,0,0,0,10.15,3.85c-4.76-9.53-11.21-12.68-11.21-12.68,9.7,2.53,13.79,16.12,15.47,20.71a113.84,113.84,0,0,0,4.87,10.69c-12.92-5.48-16.06-13.34-16.06-13.34,4.25,7,14.93,12,14.93,12a5.57,5.57,0,0,1-2.22-1.66c-2.63-2.6-5.25-5.21-7.83-7.87,2.15,1.72,4.33,3.42,6.52,5.11l0-.06a49.58,49.58,0,0,0-4.65-6q2,1.57,3.8,3.33l-.3-.9c-1.67-4.91-8.09-6.65-10.13-7.2a15.37,15.37,0,0,1-4.27-2.22c1.35,1.64,1.54,7.89,6.34,11.89a42.53,42.53,0,0,0,11.2,6.3,39.12,39.12,0,0,1-10.64-4.41l-1.76-.12a4.56,4.56,0,0,1-1.52-.35s.12,1,2.19,3c2.27,2.17,6.71,2.34,9.49,2.34a9.48,9.48,0,0,1,5.23,1.48c.6.41,2.22,2.77,1.14,4.18a4,4,0,0,0-.48,3.46,19.15,19.15,0,0,0,1.31,3.1c.58,1.42,2.7,1.34,3.66,2.28-1-.74-3.13-.26-4.23-1.86a15.89,15.89,0,0,1-1-1.45,4.36,4.36,0,0,0,2.63,3.68,11.67,11.67,0,0,0,3,.21c1.24-1.08.31-3.34.31-3.34a2.79,2.79,0,0,1-2.82-.45A4.16,4.16,0,0,1,61,152.05,3.09,3.09,0,0,0,62.62,154a3.39,3.39,0,0,0,2.94,0,6.77,6.77,0,0,0,1.2-.83,4.87,4.87,0,0,0-1.68-2.39c-1.35-1.06-3.76-.33-3.76-.33a1.71,1.71,0,0,1,.95-1.4s.62.28,2.23-.32c4.93-2,6-8.78,7.44-13.9a80.17,80.17,0,0,1-1.73,8.32,19.35,19.35,0,0,1-.94,2.4A14.64,14.64,0,0,0,72.61,138a11,11,0,0,0-.09-2.17c3.77,12.2,9.42,20.51,17.29,27.77-.64-.38-1.31-.76-2-1.14-8.74-4.66-14.15-7.1-20.22-12a7.6,7.6,0,0,0,2.41.19s1.48,1.2,4-.15-.11-5.24-.11-5.24a9.27,9.27,0,0,1-2.09.74,2.1,2.1,0,0,0-1.93,2.2c0,.24-.08.26-.18.44.05,0,.14.19.2.18,1.72-.13,3.75-1.07,3.82-3.18.24,2.09-1.86,3.55-3.68,3.88a29.34,29.34,0,0,1-4.32.58c1.23.61,3.09,1.92,2.43,4.16a75.25,75.25,0,0,0,10.06,6.41c5.08,2.68,12.32,6.7,14.76,9.68s2,4.86,1.19,4.62-1.12-2-3-1.12c-2.52,1.22-1.49,3.69.3,4.59a4.93,4.93,0,0,0,4.75-.91c1.61-1.78.36-5.44-1.25-7.5-1.94-2.82-5.11-4.49-8-6.32-5.88-3.67-12.31-6.62-17.66-11,5.45,4.24,12,7,17.94,10.55,3,1.75,6.25,3.36,8.41,6.31a11.39,11.39,0,0,1,2.24,4.91c0,.12,0,.24.06.36a5.27,5.27,0,0,0,.13-1A7.74,7.74,0,0,0,96.26,169c5.66,4.33,12.23,8.53,19.79,13.3h5.34c6.91-4.35,13-8.23,18.27-12.17a7.12,7.12,0,0,0-1,3.73,5.4,5.4,0,0,0,.13,1c0-.12,0-.24.06-.36a11.4,11.4,0,0,1,2.24-4.91,12.83,12.83,0,0,1,1.64-1.82l1.62-1.32c1.64-1.19,3.45-2.16,5.15-3.17,6-3.53,12.48-6.31,17.94-10.55-5.35,4.39-11.79,7.34-17.66,11-2.93,1.83-6.1,3.5-8,6.32-1.61,2.07-2.86,5.72-1.25,7.5a4.93,4.93,0,0,0,4.75.91c1.79-.89,2.82-3.37.3-4.59-1.89-.92-2.25.88-3,1.12s-1.13-1.79,1.19-4.62,9.67-7,14.76-9.68a75.2,75.2,0,0,0,10.06-6.41c-.66-2.23,1.2-3.55,2.43-4.16a29.35,29.35,0,0,1-4.32-.58c-1.82-.33-3.92-1.79-3.68-3.88.06,2.11,2.1,3,3.82,3.18.06,0,.14-.19.2-.18-.1-.19-.19-.2-.18-.44a2.11,2.11,0,0,0-1.93-2.2,9.3,9.3,0,0,1-2.09-.74s-2.62,3.89-.11,5.24,4,.15,4,.15a7.6,7.6,0,0,0,2.41-.19c-6.07,4.89-11.48,7.33-20.22,12l-.21.11A58.66,58.66,0,0,0,164,137.93s0,0,0,.07a14.63,14.63,0,0,0,3.35,7.51,19.21,19.21,0,0,1-.94-2.4,75.36,75.36,0,0,1-1.62-7.68l0-.12c1.39,5,2.53,11.46,7.3,13.37,1.61.6,2.23.32,2.23.32a1.71,1.71,0,0,1,.95,1.4s-2.42-.73-3.77.33a4.88,4.88,0,0,0-1.68,2.39,6.76,6.76,0,0,0,1.2.83,3.39,3.39,0,0,0,2.94,0,3.09,3.09,0,0,0,1.62-1.93,4.16,4.16,0,0,1-1.33,2.61,2.79,2.79,0,0,1-2.82.45s-.93,2.27.31,3.34a11.67,11.67,0,0,0,3-.21,4.36,4.36,0,0,0,2.63-3.68,15.79,15.79,0,0,1-1,1.45c-1.1,1.59-3.22,1.11-4.23,1.86,1-.94,3.08-.85,3.66-2.28a19.05,19.05,0,0,0,1.31-3.1,4,4,0,0,0-.48-3.46c-1.08-1.41.54-3.78,1.14-4.18a9.47,9.47,0,0,1,5.23-1.48c2.78,0,7.22-.17,9.49-2.34,2.08-2,2.19-3,2.19-3a4.56,4.56,0,0,1-1.52.35l-1.76.12a39.15,39.15,0,0,1-10.64,4.41,42.55,42.55,0,0,0,11.2-6.3c4.79-4,5-10.25,6.34-11.89a15.36,15.36,0,0,1-4.27,2.22c-2,.55-8.46,2.29-10.13,7.2l-.3.9q1.83-1.76,3.8-3.33a49.58,49.58,0,0,0-4.65,6l0,.06c2.19-1.69,4.37-3.38,6.52-5.11-2.57,2.65-5.2,5.26-7.83,7.87a5.56,5.56,0,0,1-2.22,1.66s10.68-4.9,14.93-12c0,0-3.14,7.86-16.06,13.34A113.73,113.73,0,0,0,183,132.91c1.69-4.59,5.77-18.18,15.47-20.71C198.49,112.21,192,115.36,187.28,124.88Zm9.18-32.1a13.89,13.89,0,0,0,1.9-6.69c.62,5.93-3.67,10.84-5.69,14.38a17.45,17.45,0,0,0-2.54,6.57C190.3,101,194.78,96.55,196.46,92.78Zm-21.72,22.6a22.29,22.29,0,0,1,.71-11.46,6.82,6.82,0,0,0-.31-4.76L175,99s.07,0,.14.16c1.36,1.55,1.11,4,.8,5.77a29.8,29.8,0,0,0-1,5.21A51,51,0,0,0,174.75,115.38Zm5.39,6.69c-3.16-4.29-1.42-9.57-1.29-10.11a27.61,27.61,0,0,0,1.29,10.11l.1.13S180.18,122.15,180.14,122.07ZM129.61,47.26q2-.23,4-.53a.24.24,0,0,1,.21.06.24.24,0,0,1,.06.17v1.66a.39.39,0,0,1,0,.18c-.89.15-2.38.38-4.23.62Zm-23.3,2.19c-2-.25-3.54-.5-4.47-.65a.4.4,0,0,1,0-.18V47a.22.22,0,0,1,.23-.23h0q2.11.32,4.24.55ZM44,100.47C42,96.93,37.68,92,38.3,86.1a13.9,13.9,0,0,0,1.9,6.69c1.68,3.76,6.17,8.24,6.33,14.26A17.49,17.49,0,0,0,44,100.47Zm-1.85,12.06a7.22,7.22,0,0,1,3.11,2.05,17.77,17.77,0,0,1,4,7.11C49,121.83,46.69,116.15,42.14,112.53Zm23.34,39.62a9.41,9.41,0,0,0-3.6-1.15A3.59,3.59,0,0,1,65.49,152.15Zm.8.76a4.49,4.49,0,0,1-1.66.37c-.9.08-2.68-.28-3.05-1.71C61.78,151.91,63.73,152.72,66.28,152.91Zm-4.21-13.35c0-4.35,1.93-9.2,5.43-13.78a31.58,31.58,0,0,0-3.91,22A24.1,24.1,0,0,1,62.07,139.56Zm5.41-6.82-.18.39c-.38,1.23-1.18,5.22-1.94,9.29,0,.08,0,.12,0,.12l0-.12a26.36,26.36,0,0,1,1.94-9.29C67.38,132.86,67.44,132.72,67.48,132.73Zm-1-2.09c.09-.26.16-.4.19-.39l-.19.39a61,61,0,0,0-2.44,15.3A27.1,27.1,0,0,1,66.49,130.64Zm3.16,5s-.33,1.24-1,3.89c-.93,3.71-4.19,8.23-4.19,8.23s1.66-5,2.75-8,1.45-8.29,1.19-11.37a4.65,4.65,0,0,1,1.33-4.1c.64,3.45,1.37,6.64,2.21,9.6A9.6,9.6,0,0,0,69.64,135.64Zm.74,12.52A14.78,14.78,0,0,0,73,146.1,3.26,3.26,0,0,1,70.38,148.16ZM112.21,50c-1.74-.13-3.41-.3-4.91-.48V47.38q2.45.25,4.91.38Zm0-2.94q-2.46-.13-4.91-.38V42.28c1.15.11,2.84.24,4.91.34Zm11.28-4.47c2.21-.1,4-.24,5.15-.36V46.7q-2.57.27-5.15.41Zm0,5.13q2.58-.14,5.15-.41v2.18c-1.56.19-3.32.37-5.15.51Zm-10-5.09c1.4.05,2.93.09,4.57.09,1.46,0,2.83,0,4.09-.07v4.48l-1.31,0a3.13,3.13,0,1,0-6.16-.76,3.12,3.12,0,0,0,.1.76l-1.28,0Zm5.89,7.54V49.15a3.14,3.14,0,0,0,1.21-1.28l1.56-.05v2.31H122Q120.71,50.2,119.4,50.22Zm.29,21.44.59,0c.21,0,.43-.06.65-.09l1.42-.22,1.38-.32c.22-.05.43-.09.63-.16l.57-.17,1.18-.35.22,1-1.21.2-.59.1c-.21,0-.44.05-.67.08l-1.46.14-1.45,0c-.23,0-.45,0-.67,0l-.6,0-1.23-.05Zm-1.86-22.73a2.48,2.48,0,1,1,2.48-2.48A2.48,2.48,0,0,1,117.83,48.93Zm-1.37,1.29q-1.41,0-2.81-.07h-.13V47.83l1.53,0a3.15,3.15,0,0,0,1.42,1.39Zm8.4,23.34-.72.15c-.25.06-.54.09-.83.13l-1.8.25-.92.07-.89.06c-.29,0-.56,0-.83,0h-2.27l1.52-.15.73-.07c.26,0,.53-.08.81-.13l.87-.15.89-.15,1.72-.42c.27-.07.54-.12.79-.21l.7-.22,1.46-.46.25,1Zm.53-4.08-.47.08c-.16,0-.35,0-.54.07l-1.17.13-1.16.06c-.18,0-.36,0-.53,0h-.48l-1,0,1-.13.47-.06c.17,0,.34-.06.52-.1l1.12-.23,1.09-.3c.17-.05.34-.09.5-.15l.45-.16.92-.32.25.95Zm.25-2.32-.36.07c-.12,0-.27,0-.41.07l-.9.13-.9.07-.41,0h-1.12l.74-.15.36-.07.39-.11.84-.24.81-.29c.13,0,.25-.08.37-.14l.34-.15.69-.3.3.94Zm.21-2.25-.27.06-.31.06-.69.12-.68.08-.31,0h-.28l-.58,0,.55-.17.26-.08.29-.11.62-.25.59-.28.27-.13.24-.13.5-.28.36.92Zm40.43,83.25a3.27,3.27,0,0,1-2.65-2.06A14.87,14.87,0,0,0,166.28,148.16Zm1.73-8.63c-.66-2.65-1-3.89-1-3.89a13.75,13.75,0,0,0-1.79-1.52c.82-2.89,1.54-6,2.17-9.34a5.08,5.08,0,0,1,.87,3.6c-.26,3.07.1,8.41,1.19,11.37s2.75,8,2.75,8S168.94,143.23,168,139.52Zm1.17-6.79s.1.13.18.39a26.3,26.3,0,0,1,1.94,9.29l0,.12s0,0,0-.12c-.76-4.07-1.55-8.06-1.94-9.29Zm3.43,13.21a61,61,0,0,0-2.44-15.3l-.19-.39s.1.13.19.39A27.11,27.11,0,0,1,172.61,145.95Zm.46,1.86a31.57,31.57,0,0,0-3.9-22c3.49,4.58,5.47,9.44,5.43,13.78A24,24,0,0,1,173.07,147.81Zm1.71,3.19a9.41,9.41,0,0,0-3.6,1.15A3.59,3.59,0,0,1,174.77,151ZM172,153.28a4.51,4.51,0,0,1-1.66-.37c2.55-.18,4.51-1,4.71-1.33C174.73,153,172.94,153.36,172,153.28Zm15.39-31.59a17.77,17.77,0,0,1,4-7.11,7.22,7.22,0,0,1,3.11-2.05C190,116.15,187.65,121.83,187.44,121.68Z" transform="translate(-4.82 -9.58)"/><path class="cls-1" d="M48.9,92.86a13.63,13.63,0,0,1-.82-6.35c-2,0-3.87,4-3.87,4a23.43,23.43,0,0,1,3.07,13.79c.2.73.39,1.46.61,2.18A26.23,26.23,0,0,0,46.33,91c2.42,3.7,3,8.06,3,12.37a19.11,19.11,0,0,0-.36-8,22,22,0,0,1,1,5.24A21.57,21.57,0,0,0,48.9,92.86Z" transform="translate(-4.82 -9.58)"/><path class="cls-1" d="M60.72,99A8.48,8.48,0,0,0,58,102.63s5.16,10.55,1.4,17a19.42,19.42,0,0,0,.22-9.55c-1.25-4.9-2.49-6.18-2.56-8.3a4.33,4.33,0,0,1,1-3.18,8.38,8.38,0,0,0-4.85,5.76c-1.29,4.57-.53,9.45,0,12.73a17.66,17.66,0,0,1-.19,7.21s.9-.73,1.79-3.93,0-12.53,1.72-14.62c0,0-.51,1.77-.23,6.44.27,4.42.51,9.12-2.53,12.57,4.23-1.08,8.71-3.33,10.59-7.73-1.33,4.19-5.05,6.92-9,8.57a11,11,0,0,0,7.22-3.3c5-4.61,2-10.56,4.65-13.37,0,0-.44-.2-1.42.23a6,6,0,0,0-1.77,1.31,12.44,12.44,0,0,1-8.43,13.14s6.05-4.33,7.3-8.81.07-9.47-.29-11.22-.6-3.9.6-5.39A5.62,5.62,0,0,0,60.72,99Zm-4.19,23.1c0,.08-.07.13-.09.13l.09-.13A27.57,27.57,0,0,0,57.81,112C57.95,112.5,59.68,117.78,56.52,122.07Zm5.39-6.69a51.29,51.29,0,0,0-.18-5.24,29.89,29.89,0,0,0-1-5.21c-.31-1.81-.57-4.21.79-5.77.07-.12.12-.17.14-.16l-.14.16a6.82,6.82,0,0,0-.31,4.76A22.29,22.29,0,0,1,61.92,115.38Z" transform="translate(-4.82 -9.58)"/><path class="cls-1" d="M149.6,57.89a3.52,3.52,0,0,0,.54-1.49c-1.2.65-5.08.22-7.52.94s-3.81,3.49-3.81,3.49a6.45,6.45,0,0,1,3.49-1.71c1.05-.07,3.12,0,4.87,0s1.13,1.85,1.13,1.85A25.43,25.43,0,0,1,149.6,57.89Z" transform="translate(-4.82 -9.58)"/><path class="cls-1" d="M157.44,71.89a3,3,0,0,0,5.09-1.2c1.33-3.46-1.05-8.1-5.78-9.19a11.54,11.54,0,0,0-8.25,1.16c9.74-2.25,11.73,4,11.26,6.57A3.25,3.25,0,0,1,157.44,71.89Z" transform="translate(-4.82 -9.58)"/><path class="cls-1" d="M88,59.09c1.74.07,3.81,0,4.87,0a6.45,6.45,0,0,1,3.49,1.71S95,58.07,92.58,57.34s-6.32-.29-7.52-.94a3.55,3.55,0,0,0,.54,1.49,25.31,25.31,0,0,1,1.31,3.05S86.29,59,88,59.09Z" transform="translate(-4.82 -9.58)"/><path class="cls-1" d="M86.69,62.67a11.53,11.53,0,0,0-8.24-1.16c-4.72,1.09-7.11,5.73-5.78,9.19a3,3,0,0,0,5.08,1.2,3.25,3.25,0,0,1-2.32-2.65C75,66.66,77,60.41,86.69,62.67Z" transform="translate(-4.82 -9.58)"/><path class="cls-1" d="M86.5,168.14a7.75,7.75,0,0,0-7.3-.46,7.82,7.82,0,0,1,5.37-1.19l-.06,0a10.3,10.3,0,0,0-6.48.15c-1.93.85-5,2.73-3.91,4.58-1.35-1.83.82-4.13,2.89-5.24a13.06,13.06,0,0,1,5.4-.87c-2.52-1.12-6.9-.12-8.92,2s-2.8,5.93-6.84,6.73c4-1,4.25-4.6,6.29-7.06a10.23,10.23,0,0,1,6.3-3,7.44,7.44,0,0,0-4.8,0c-5.17,2-5.65,4-5.69,5.51s-2.37,5.12-3.91,4.57c0,0,9.66,3.76,13.67-5.32,0,0-1.37,3.22,1.61,4.92,2.53,1.44,4.46-1.42,5-2.32-.32.66-.86,2.38,1.68,3.42,0,0,1.65-3.47.72-5.1A6.49,6.49,0,0,0,86.5,168.14Z" transform="translate(-4.82 -9.58)"/><path class="cls-1" d="M170.15,169.17c0-1.49-.52-3.51-5.69-5.51a7.44,7.44,0,0,0-4.8,0,10.23,10.23,0,0,1,6.3,3c2,2.46,2.33,6,6.29,7.06-4-.79-4.8-4.6-6.85-6.73s-6.4-3.08-8.92-2a13.06,13.06,0,0,1,5.4.87c2.07,1.11,4.23,3.4,2.89,5.24,1.12-1.85-2-3.73-3.91-4.58a10.3,10.3,0,0,0-6.48-.15l-.06,0a7.82,7.82,0,0,1,5.37,1.19,7.75,7.75,0,0,0-7.3.46,6.4,6.4,0,0,0-1,1.2c-.92,1.63.72,5.1.72,5.1,2.54-1,2-2.76,1.68-3.42.53.9,2.46,3.76,5,2.32,3-1.7,1.61-4.92,1.61-4.92,4,9.08,13.67,5.32,13.67,5.32C172.52,174.29,170.18,170.65,170.15,169.17Z" transform="translate(-4.82 -9.58)"/></g><g id="npl-shield-blue"><path class="cls-2" d="M118.59,85.51H76.74l0,1.32c.26,15.25,1.27,27.33,3.18,37.09h33.3v0l-8.64-6.28h10.68l3.3-10.15h0Z" transform="translate(-4.82 -9.58)"/><path class="cls-2" d="M123.93,123.91l3.29,10.14-8.64-6.28v44.37c14.76-9.06,24.33-15.64,30.77-26.23,3.5-5.75,6.08-12.86,7.87-22Z" transform="translate(-4.82 -9.58)"/></g><g id="npl-shield-yellow"><path class="cls-3" d="M118.59,85.51v22l3.3,10.15h10.68l-8.64,6.28v0h33.3c1.91-9.76,2.92-21.84,3.18-37.09l0-1.32Z" transform="translate(-4.82 -9.58)"/><path class="cls-3" d="M109.95,134.05l3.29-10.14H79.94c1.79,9.14,4.37,16.25,7.87,22,6.44,10.59,16,17.17,30.77,26.23h0V127.78h0Z" transform="translate(-4.82 -9.58)"/></g><path id="npl-shield-stroke" class="cls-4" d="M118.59,176.67c-16.4-10-27-17.07-34.07-28.75-7.62-12.53-11.1-23.81-11.61-54.06a37,37,0,0,0-1-8.3,19.41,19.41,0,0,0-1.46-3.9h96.19s-2.3,4.31-2.3,6.72c0,1.62-.11,6.3-.11,6.3-.52,30.25-4,40.73-11.62,53.26C145.55,159.6,135,166.66,118.59,176.67Z" transform="translate(-4.82 -9.58)"/></svg>