<?xml version="1.0" encoding="utf-8"?>
<!-- Generator: Adobe Illustrator 19.1.0, SVG Export Plug-In . SVG Version: 6.00 Build 0)  -->
<svg version="1.1" id="Layer_1" xmlns="http://www.w3.org/2000/svg" xmlns:xlink="http://www.w3.org/1999/xlink" x="0px" y="0px"
	 width="129.6px" height="136.8px" viewBox="0 0 129.6 136.8" style="enable-background:new 0 0 129.6 136.8;" xml:space="preserve"
	>
<g>
	<path d="M106.3-121.3H70.9h-2.2H44.2L32.3-77.3c-0.3,1.3-0.7,2.2-0.9,2.7c-0.3,0.5-0.6,0.8-1.1,1.1c-0.4,0.2-1.1,0.4-2.1,0.4v7.8
		h17.3v-7.8c-1.4,0-2.3-0.1-2.6-0.2c-0.5-0.2-0.8-0.4-1-0.8c-0.2-0.3-0.3-0.7-0.3-1.2c0-0.4,0.1-1.2,0.4-2.4l3.2-11.6h7.6l0,11.7
		c0,0.8,0.1,2.6-0.9,3.5c-0.5,0.5-1,0.8-1.4,0.8l-1.9,0.1v7.8h19h1.2h19.2v-7.8h-1.6c-1.1,0-1.8-0.1-2.1-0.4
		c-0.4-0.2-0.4-0.7-0.8-1.1c-0.3-0.3-0.2-1.4-0.2-2.8v-11.7h2.1c1,0,2.4,0.1,3.1,0.7c0.7,0.5,1.3,1.4,1.3,1.4h4.5v-12.4h-5
		c0,0-0.2,1.1-0.8,1.5c-0.5,0.4-2.2,0.6-3.1,0.6h-2.2v-14.8h10.1c2,0,3.4,0.1,4.2,0.3c1.2,0.3,3.1,1.1,3.9,3.7l4.9,0L106.3-121.3z
		 M52.7-112.1v14.8h-5.4l3.9-14.8L52.7-112.1z"/>
	
		<linearGradient id="SVGID_1_" gradientUnits="userSpaceOnUse" x1="16.7067" y1="-10.2813" x2="109.1963" y2="-78.8565" gradientTransform="matrix(0.8465 0 0 0.8465 11.9539 -57.7407)">
		<stop  offset="0" style="stop-color:#E03A3E"/>
		<stop  offset="5.817211e-02" style="stop-color:#E13D40"/>
		<stop  offset="0.1049" style="stop-color:#E24745"/>
		<stop  offset="0.1476" style="stop-color:#E4574F"/>
		<stop  offset="0.188" style="stop-color:#E76B5E"/>
		<stop  offset="0.2263" style="stop-color:#EA8272"/>
		<stop  offset="0.2584" style="stop-color:#EE9A89"/>
		<stop  offset="0.3265" style="stop-color:#E87768"/>
		<stop  offset="0.3921" style="stop-color:#E45950"/>
		<stop  offset="0.4446" style="stop-color:#E14243"/>
		<stop  offset="0.4775" style="stop-color:#E03A3E"/>
		<stop  offset="0.5071" style="stop-color:#E14142"/>
		<stop  offset="0.5496" style="stop-color:#E3544D"/>
		<stop  offset="0.5999" style="stop-color:#E76E60"/>
		<stop  offset="0.6559" style="stop-color:#EC8E7D"/>
		<stop  offset="0.6742" style="stop-color:#EE9A89"/>
		<stop  offset="0.7171" style="stop-color:#EA806F"/>
		<stop  offset="0.7629" style="stop-color:#E66A5D"/>
		<stop  offset="0.8117" style="stop-color:#E4564F"/>
		<stop  offset="0.8641" style="stop-color:#E24745"/>
		<stop  offset="0.9226" style="stop-color:#E13D40"/>
		<stop  offset="1" style="stop-color:#E03A3E"/>
	</linearGradient>
	<path style="fill:url(#SVGID_1_);stroke:#000000;stroke-width:0.5924;" d="M104.7-122.9H69.4h-2.2H42.6L30.7-78.8
		c-0.3,1.3-0.7,2.2-0.9,2.7c-0.3,0.5-0.6,0.8-1.1,1.1c-0.4,0.2-1.1,0.4-2.1,0.4v7.8h17.3v-7.8c-1.4,0-2.3-0.1-2.6-0.2
		c-0.5-0.2-0.8-0.4-1-0.8C40.1-76,40-76.4,40-76.8c0-0.4,0.1-1.2,0.4-2.4l3.2-11.6h7.6l0,11.6c0,0.8,0.2,2.6-0.9,3.5
		c-0.5,0.5-1,0.8-1.4,0.8l-1.9,0.1v7.8h18.9h1.2h19.2v-7.8h-1.6c-1.1,0-1.8-0.1-2.1-0.4c-0.4-0.2-0.4-0.7-0.8-1.1
		c-0.3-0.3-0.2-1.4-0.2-2.8v-11.7h2.1c1,0,2.4,0.1,3.1,0.7c0.7,0.5,1.3,1.4,1.3,1.4h4.5V-101h-5c0,0-0.2,1.1-0.8,1.5
		c-0.5,0.4-2.2,0.6-3.1,0.6h-2.2v-14.8h10.1c2,0,3.4,0.1,4.2,0.3c1.2,0.3,3.1,1.1,3.9,3.7l4.9,0L104.7-122.9z M51.1-113.7v14.8h-5.4
		l3.9-14.8L51.1-113.7z"/>
	<polygon style="fill:#004785;" points="28,-148.4 31.4,-145.9 34.9,-148.4 33.6,-144.3 37.1,-141.7 32.8,-141.8 31.4,-137.7 
		30.1,-141.8 25.8,-141.8 29.3,-144.3 	"/>
	
		<linearGradient id="SVGID_2_" gradientUnits="userSpaceOnUse" x1="59.3027" y1="-43.3217" x2="69.4134" y2="-43.3217" gradientTransform="matrix(0.8465 0 0 0.8465 11.9539 -57.7407)">
		<stop  offset="0" style="stop-color:#FFFFFF"/>
		<stop  offset="8.867659e-02" style="stop-color:#F3F3F3"/>
		<stop  offset="0.2512" style="stop-color:#D1D1D1"/>
		<stop  offset="0.4693" style="stop-color:#9C9C9C"/>
		<stop  offset="0.7346" style="stop-color:#515151"/>
		<stop  offset="1" style="stop-color:#000000"/>
	</linearGradient>
	<polygon style="fill:url(#SVGID_2_);stroke:#000000;stroke-width:0.5126;" points="68.3,-63.4 70.4,-125.5 62.4,-125.5 64.5,-63.4 
			"/>
	
		<linearGradient id="SVGID_3_" gradientUnits="userSpaceOnUse" x1="-3870.4824" y1="-3640.8638" x2="-3823.5256" y2="-3640.8638" gradientTransform="matrix(0.4601 0 0 0.4601 1836.3553 1546.3529)">
		<stop  offset="0" style="stop-color:#FFFFFF"/>
		<stop  offset="8.867659e-02" style="stop-color:#F3F3F3"/>
		<stop  offset="0.2512" style="stop-color:#D1D1D1"/>
		<stop  offset="0.4693" style="stop-color:#9C9C9C"/>
		<stop  offset="0.7346" style="stop-color:#515151"/>
		<stop  offset="1" style="stop-color:#000000"/>
	</linearGradient>
	<path style="fill:url(#SVGID_3_);stroke:#000000;stroke-width:0.5126;" d="M66.4-127.7c8.8,0,10.7-1.5,10.7-1.5v-0.8H55.7v0.8
		C55.7-129.1,57.6-127.7,66.4-127.7z"/>
	
		<linearGradient id="SVGID_4_" gradientUnits="userSpaceOnUse" x1="-3858.2559" y1="-3637.8127" x2="-3835.752" y2="-3637.8127" gradientTransform="matrix(0.4601 0 0 0.4601 1836.3553 1546.3529)">
		<stop  offset="0" style="stop-color:#FFFFFF"/>
		<stop  offset="8.867659e-02" style="stop-color:#F3F3F3"/>
		<stop  offset="0.2512" style="stop-color:#D1D1D1"/>
		<stop  offset="0.4693" style="stop-color:#9C9C9C"/>
		<stop  offset="0.7346" style="stop-color:#515151"/>
		<stop  offset="1" style="stop-color:#000000"/>
	</linearGradient>
	<rect x="61.3" y="-127.9" style="fill:url(#SVGID_4_);stroke:#000000;stroke-width:0.5126;" width="10.2" height="1"/>
	
		<linearGradient id="SVGID_5_" gradientUnits="userSpaceOnUse" x1="-3879.135" y1="-3646.1956" x2="-3814.8667" y2="-3646.1956" gradientTransform="matrix(0.4601 0 0 0.4601 1836.3553 1546.3529)">
		<stop  offset="0" style="stop-color:#FFFFFF"/>
		<stop  offset="8.867659e-02" style="stop-color:#F3F3F3"/>
		<stop  offset="0.2512" style="stop-color:#D1D1D1"/>
		<stop  offset="0.4693" style="stop-color:#9C9C9C"/>
		<stop  offset="0.7346" style="stop-color:#515151"/>
		<stop  offset="1" style="stop-color:#000000"/>
	</linearGradient>
	<rect x="51.7" y="-132.6" style="fill:url(#SVGID_5_);stroke:#000000;stroke-width:0.5126;" width="29.4" height="2.6"/>
	
		<linearGradient id="SVGID_6_" gradientUnits="userSpaceOnUse" x1="-3889.634" y1="-3650.4893" x2="-3804.3711" y2="-3650.4893" gradientTransform="matrix(0.4601 0 0 0.4601 1836.3553 1546.3529)">
		<stop  offset="0" style="stop-color:#FFFFFF"/>
		<stop  offset="8.867659e-02" style="stop-color:#F3F3F3"/>
		<stop  offset="0.2512" style="stop-color:#D1D1D1"/>
		<stop  offset="0.4693" style="stop-color:#9C9C9C"/>
		<stop  offset="0.7346" style="stop-color:#515151"/>
		<stop  offset="1" style="stop-color:#000000"/>
	</linearGradient>
	<rect x="46.9" y="-133.9" style="fill:url(#SVGID_6_);stroke:#000000;stroke-width:0.5126;" width="39" height="1.4"/>
	
		<radialGradient id="SVGID_7_" cx="63.3102" cy="-101.6816" r="34.9639" gradientTransform="matrix(0.8465 0 0 0.8465 11.9539 -57.7407)" gradientUnits="userSpaceOnUse">
		<stop  offset="0" style="stop-color:#FADDD3"/>
		<stop  offset="0.2906" style="stop-color:#F8D2C7"/>
		<stop  offset="0.8203" style="stop-color:#F3B7A8"/>
		<stop  offset="1" style="stop-color:#F1AC9D"/>
	</radialGradient>
	<path style="fill:url(#SVGID_7_);stroke:#000000;stroke-width:0.5126;" d="M62-138.7c1.4,0,8.9,0,8.9,0c3.1-1.7,6-8.4-0.6-12.7
		c-4.6-3-16.2,0.6-26.7-1c2.6,2,4.9,2.3,4.9,2.3c-5.4,1.2-16,2.2-29.6,0.2c1.1-0.1,9.2,4.9,18.9,5.2C54.2-144.2,59.1-138.4,62-138.7
		z"/>
	<path style="fill:#FCEBE5;" d="M63.3-138.7h6.2c3.2-2.8,6.5-11.4-6.2-13.1c0,0,11,3,4.6,9.9c0,0,2.3-4.9-2.9-6.3
		c2.7,3.5,0.8,5.7-0.1,6.3c-1.6,1.1-8.4-2.2-13.3-2.1C56.5-143,63.3-138.7,63.3-138.7z"/>
	
		<linearGradient id="SVGID_8_" gradientUnits="userSpaceOnUse" x1="-3856.804" y1="-3657.1699" x2="-3837.1511" y2="-3657.1699" gradientTransform="matrix(0.4601 0 0 0.4601 1836.3553 1546.3529)">
		<stop  offset="0" style="stop-color:#FFFFFF"/>
		<stop  offset="8.867659e-02" style="stop-color:#F3F3F3"/>
		<stop  offset="0.2512" style="stop-color:#D1D1D1"/>
		<stop  offset="0.4693" style="stop-color:#9C9C9C"/>
		<stop  offset="0.7346" style="stop-color:#515151"/>
		<stop  offset="1" style="stop-color:#000000"/>
	</linearGradient>
	<rect x="62" y="-138.7" style="fill:url(#SVGID_8_);stroke:#000000;stroke-width:0.5126;" width="8.9" height="4.8"/>
	
		<linearGradient id="SVGID_9_" gradientUnits="userSpaceOnUse" x1="-3889.6636" y1="-3654.7844" x2="-3804.3479" y2="-3654.7844" gradientTransform="matrix(0.4601 0 0 0.4601 1836.3553 1546.3529)">
		<stop  offset="0" style="stop-color:#FFFFFF"/>
		<stop  offset="8.867659e-02" style="stop-color:#F3F3F3"/>
		<stop  offset="0.2512" style="stop-color:#D1D1D1"/>
		<stop  offset="0.4693" style="stop-color:#9C9C9C"/>
		<stop  offset="0.7346" style="stop-color:#515151"/>
		<stop  offset="1" style="stop-color:#000000"/>
	</linearGradient>
	<path style="fill:url(#SVGID_9_);stroke:#000000;stroke-width:0.5126;" d="M85.9-136.5v2.5h-39v-2.5l0,0c1.1,0,0.6,1.9,1.7,1.9
		c1.1,0,0-1.9,1-1.9c1.1,0,1.2,1.9,2.3,1.9c1.1,0,0.4-1.9,1.5-1.9c1.1,0,1.3,1.9,2.4,1.9c1.1,0,0.8-1.9,1.9-1.9
		c1.1,0,1.1,1.9,2.2,1.9c1.1,0,1.1-1.9,2.1-1.9c1.1,0,1.1,1.9,2.2,1.9c1.1,0,1.1-1.9,2.1-1.9c1.1,0,1.1,1.9,2.1,1.9
		c1.1,0,1.1-1.9,2.1-1.9c1.1,0,1.1,1.9,2.2,1.9c1.1,0,1.1-1.9,2.1-1.9c1.1,0,1.1,1.9,2.2,1.9c1.1,0,0.9-1.9,2-1.9
		c1.1,0,0.4,1.9,1.5,1.9c1.1,0,1.2-1.9,2.3-1.9c1.1,0,0,1.9,1.1,1.9C85-134.6,84.9-136.5,85.9-136.5L85.9-136.5z"/>
	<line style="fill:none;stroke:#6D6E71;stroke-width:0.5126;" x1="66.4" y1="-125.4" x2="66.4" y2="-65.1"/>
	<line style="fill:none;stroke:#58595B;stroke-width:0.5126;" x1="68.1" y1="-125.5" x2="67.2" y2="-65.1"/>
	<line style="fill:none;stroke:#000000;stroke-width:0.4;" x1="69.5" y1="-125.5" x2="67.8" y2="-65"/>
	<line style="fill:none;stroke:#939598;stroke-width:0.5126;" x1="64.8" y1="-125.5" x2="65.7" y2="-65.1"/>
	<line style="fill:none;stroke:#A7A9AC;stroke-width:0.5126;" x1="63.4" y1="-125.4" x2="65.1" y2="-65"/>
	
		<linearGradient id="SVGID_10_" gradientUnits="userSpaceOnUse" x1="-3856.8276" y1="-3635.1565" x2="-3837.1746" y2="-3635.1565" gradientTransform="matrix(0.4601 0 0 0.4601 1836.3553 1546.3529)">
		<stop  offset="0" style="stop-color:#FFFFFF"/>
		<stop  offset="8.867659e-02" style="stop-color:#F3F3F3"/>
		<stop  offset="0.2512" style="stop-color:#D1D1D1"/>
		<stop  offset="0.4693" style="stop-color:#9C9C9C"/>
		<stop  offset="0.7346" style="stop-color:#515151"/>
		<stop  offset="1" style="stop-color:#000000"/>
	</linearGradient>
	<rect x="62" y="-126.9" style="fill:url(#SVGID_10_);stroke:#000000;stroke-width:0.5126;" width="8.9" height="1.5"/>
	
		<radialGradient id="SVGID_11_" cx="-3847.0215" cy="-3497.3372" r="5.505" fx="-3849.74" fy="-3499.8745" gradientTransform="matrix(0.4601 0 0 0.4601 1836.3553 1546.3529)" gradientUnits="userSpaceOnUse">
		<stop  offset="0" style="stop-color:#FFFFFF"/>
		<stop  offset="0.1539" style="stop-color:#FCFCFC"/>
		<stop  offset="0.2833" style="stop-color:#F1F1F1"/>
		<stop  offset="0.4038" style="stop-color:#E0E0E0"/>
		<stop  offset="0.519" style="stop-color:#C7C7C7"/>
		<stop  offset="0.6304" style="stop-color:#A7A7A7"/>
		<stop  offset="0.7389" style="stop-color:#818181"/>
		<stop  offset="0.8452" style="stop-color:#525252"/>
		<stop  offset="0.947" style="stop-color:#1E1E1E"/>
		<stop  offset="1" style="stop-color:#000000"/>
	</radialGradient>
	<path style="fill:url(#SVGID_11_);stroke:#000000;stroke-width:0.5126;" d="M66.8-60.3c1.1,0,2-0.9,2-2v-0.8c0-1.1-0.9-2-2-2H66
		c-1.1,0-2,0.9-2,2v0.8c0,1.1,0.9,2,2,2H66.8z"/>
	<polygon style="fill:#004785;" points="11.4,-66.2 15.4,-64.6 18.2,-68 17.9,-63.7 21.9,-62.1 17.8,-61 17.6,-56.7 15.2,-60.3 
		11.1,-59.2 13.8,-62.6 	"/>
	<polygon style="fill:#004785;" points="5.4,-83.6 8.8,-80.9 12.4,-83.3 10.9,-79.3 14.3,-76.6 10,-76.8 8.5,-72.7 7.3,-76.9 
		3,-77.1 6.6,-79.4 	"/>
	<polygon style="fill:#004785;" points="5,-103.4 7.3,-99.8 11.5,-100.9 8.8,-97.6 11.1,-94 7.1,-95.5 4.4,-92.1 4.6,-96.4 0.6,-98 
		4.8,-99.1 	"/>
	<polygon style="fill:#004785;" points="120.3,-122 121.8,-117.9 126.1,-118.1 122.7,-115.4 124.3,-111.4 120.7,-113.8 
		117.3,-111.1 118.5,-115.2 114.9,-117.6 119.2,-117.8 	"/>
	<polygon style="fill:#004785;" points="4.8,-118.1 9.1,-117.9 10.6,-122 11.7,-117.8 16,-117.6 12.4,-115.2 13.6,-111.1 
		10.2,-113.8 6.6,-111.4 8.1,-115.4 	"/>
	<polygon style="fill:#004785;" points="14.4,-135.4 18.5,-133.9 21.1,-137.3 21,-133 25,-131.5 20.9,-130.3 20.7,-126 18.3,-129.6 
		14.2,-128.4 16.8,-131.8 	"/>
	<polygon style="fill:#004785;" points="112.7,-68 115.4,-64.6 119.4,-66.2 117.1,-62.6 119.8,-59.2 115.6,-60.3 113.3,-56.7 
		113.1,-61 108.9,-62.1 112.9,-63.7 	"/>
	<polygon style="fill:#004785;" points="118.5,-83.3 122.1,-80.9 125.4,-83.6 124.3,-79.4 127.9,-77 123.6,-76.9 122.4,-72.7 
		120.9,-76.8 116.6,-76.6 120,-79.3 	"/>
	<polygon style="fill:#004785;" points="125.9,-103.4 126.1,-99.1 130.3,-97.9 126.2,-96.4 126.4,-92.1 123.7,-95.5 119.7,-94 
		122.1,-97.5 119.4,-100.9 123.6,-99.8 	"/>
	<polygon style="fill:#004785;" points="109.7,-137.3 112.4,-133.9 116.4,-135.4 114,-131.8 116.7,-128.4 112.5,-129.6 110.1,-126 
		110,-130.3 105.9,-131.5 109.9,-133 	"/>
	<polygon style="fill:#004785;" points="95.9,-148.4 99.4,-145.9 102.9,-148.4 101.6,-144.3 105.1,-141.8 100.8,-141.8 99.5,-137.7 
		98.1,-141.7 93.8,-141.7 97.3,-144.3 	"/>
</g>
<g>
	<path d="M-50.6-31.5v-0.7c1.3-0.2,1.9-1.2,2.5-2.3L-37.6-51h0.7l2.9,17.1c0.1,0.4,0.2,0.7,0.4,1c0.1,0.2,0.3,0.3,0.5,0.5
		c0.5,0.1,0.9,0.2,1.4,0.2v0.7h-8.7v-0.7c0.5,0,1-0.1,1.5-0.3c0.7-0.3,0.8-0.8,0.8-1.5l-0.4-3.5h-6.1l-1.9,3.4
		c-0.1,0.3-0.2,0.6-0.2,0.8c0,1,1.2,1,1.8,1v0.7H-50.6z M-44.1-38.5h5.3l-1-7L-44.1-38.5z"/>
	<path d="M-30.8-31.5l2.9-11c0.2-0.7-0.9-0.8-1.5-0.7v-0.8c1.7-0.1,3.6-0.4,5.7-0.8l-1.6,5.3l0.1,0.1c1.2-2,3.3-5.4,6-5.4
		c1.7,0,2.3,1.6,1.2,4.6L-18-40c1-1.7,3-4.7,5.3-4.7c1.2,0,3.2,0.3,2.1,3.9l-2.3,7.3c-0.2,0.7,1,0.7,2.4-1.7l0.6,0.4
		c-0.9,1.7-2.4,3.8-4.5,3.8c-1.5,0-2.4-1.4-1.9-3l2.3-7.1c0.2-0.6,0.4-1.4-0.5-1.4c-1.3,0-3,3-3.5,4c-0.8,1.6-1.4,3.6-2.5,7.1H-24
		L-21-41c0.3-1.4,0-1.8-0.8-1.3c-1.2,0.8-2.5,2.4-3.8,5.5c-0.8,1.7-1.2,3.6-1.7,5.4H-30.8z"/>
	<path d="M-9.4-31.5v-0.7c0.5-0.1,1-0.1,1.4-0.4c0.7-0.5,0.8-1.2,1-2l3.7-14c0-1.4-1-1.1-2.1-1.3v-0.7H9.8l-1.2,5.4l-0.8-0.1
		c0.1-2.8-1.2-4.4-5-4.4c-0.4,0-1.2,0-1.4,0.3C1.1-49,1-48.5,0.9-48.1l-1.6,6c2.9-0.1,4.4-0.1,5.7-3l0.8,0.1l-2.1,7.8l-0.8-0.1
		c0.1-0.4,0.2-1.8-0.2-2.7C2.1-41.1,0-41.1-1-41.1l-2,7.4c0,0.3-0.2,0.8,0.6,1.2c0.4,0.2,1,0.3,1.4,0.3v0.7H-9.4z"/>
	<path d="M12.4-34.2c-0.1,0.3-0.1,0.6,0,0.9c0.2,0.2,0.4,0.2,1,0c0.6-0.6,1.2-1.4,1.6-2.1l0.6,0.4c-1.2,1.8-2.4,4-4.9,4
		c-1,0-2.4-0.8-1.8-3.1l2-7.3c0.4-1.5-0.1-1.6-1.5-1.6v-0.8c1.4-0.2,3.5-0.5,5.7-0.8L12.4-34.2z M12.5-49.1c0-1,0.9-1.9,1.9-1.9
		c1,0,1.9,0.9,1.9,1.9c0,1-0.9,2-1.9,2C13.3-47.1,12.5-48,12.5-49.1z"/>
	<path d="M16.4-31.5l2.7-9.6c0.3-1.1,0.3-1.6,0-1.9c-0.3-0.2-0.6-0.2-1.3-0.2v-0.8c1.8-0.3,3.6-0.4,5.7-0.8l-1.6,5.1l0.1,0.1
		c0.7-1.5,2.5-5.1,4.4-5.1c1,0,1.6,0.8,1.6,1.7c0,1-0.5,2.2-1.7,2.2c-0.6,0-0.9-0.3-1.5-1c-0.2-0.1-0.4-0.1-0.5,0
		c-2.6,2.8-3.3,6.8-4.5,10.3H16.4z"/>
	<path d="M27.8-31.1l0.6-4.8l0.8,0.1c0,1.4,1,3.8,2.7,3.8c1,0,1.7-0.6,1.7-1.6c0-1.1-1.3-2.5-1.9-3.3c-1-1.3-2-2.5-2-4.2
		c0-1.3,0.6-3,2.7-3.5c0.5-0.1,1.1-0.1,1.7-0.1c0.3,0,0.8,0.3,1.6,0.5c0.5,0.1,1.1,0.2,1.3-0.5h0.8l-0.7,4.4l-0.8-0.1
		c-0.1-1.4-0.9-3.4-2.5-3.4c-0.8,0-2.3,1-1.2,2.6l2.2,2.9c0.7,0.9,1.4,2.1,1.4,3.3c0,1.3-0.7,3.9-4.2,3.9c-0.8,0-1.6-0.3-2.8-0.6
		c-0.3,0-0.6,0.2-0.7,0.6H27.8z"/>
	<path d="M41.7-43.2h-1.5v-1c2.2-0.8,4-2.4,5.2-4.4h1l-1.1,4.2h2.1v1.2H45l-2.4,9c-0.2,0.6-0.1,1.3,0.4,1.1c0.8-0.4,1.6-1.5,2.2-2.3
		l0.6,0.4c-1.1,1.8-2.5,3.9-4.9,3.9c-0.9,0-2.7-0.4-1.2-4.5L41.7-43.2z"/>
	<path d="M53.7-31.7c0.8-0.1,1-0.2,1.3-1.2l1.9-7c0.1-0.3,0.2-0.7,0.2-1c0-0.6-0.4-0.6-1.1-0.7v-0.3h3.9v0.3c-0.8,0.1-1,0.2-1.3,1.2
		l-1.9,7c-0.1,0.3-0.2,0.6-0.2,1c0,0.5,0.4,0.6,1.1,0.6v0.3h-3.9V-31.7z"/>
	<path d="M66.6-33.1c-0.8,1.1-1.3,1.8-2.2,1.8c-0.7,0-0.8-0.5-0.8-0.9c0-0.4,1.2-4.2,1.2-4.9c0-0.3-0.1-0.5-0.4-0.5
		c-0.8,0-1.8,1.4-2.3,2.2c-0.7,1.1-0.9,1.8-1.6,3.9h-1.2c0.5-1.8,1.5-5.5,1.5-5.8c0-0.2-0.2-0.4-1-0.4v-0.3c0.9-0.2,1.7-0.3,2.6-0.5
		l0,0l-1,3.3l0,0c0.7-1.2,2.2-3.4,3.5-3.4c0.7,0,1.1,0.4,1.1,1c0,0.7-1.3,4.6-1.3,5.1c0,0.2,0.2,0.3,0.3,0.3c0.3,0,0.7-0.5,1.3-1.2
		L66.6-33.1z"/>
	<path d="M67.9-33.8c0.1,0.7,0.4,2.2,1.6,2.2c0.9,0,1.1-0.8,1.1-1.3c0-1-1.9-2.6-1.9-3.8c0-0.5,0.2-1.8,1.9-1.8c0.7,0,1,0.3,1.5,0.3
		c0.3,0,0.4-0.2,0.4-0.3h0.2l-0.3,2.2h-0.3c-0.1-0.9-0.5-1.8-1.5-1.8c-0.3,0-0.9,0.1-0.9,0.9c0,1,1.9,2.4,1.9,3.7
		c0,1.7-1.5,2.1-2.4,2.1c-0.5,0-1.1-0.3-1.6-0.3c-0.2,0-0.3,0.2-0.4,0.3h-0.3l0.3-2.5H67.9z"/>
	<path d="M80.7-33.2c-1,1.4-1.4,1.9-2.2,1.9c-0.7,0-0.7-0.6-0.7-0.8c0-0.3,0.3-1.6,0.7-2.9h0c-1.1,1.8-2.2,3.8-3.7,3.8
		c-0.6,0-0.9-0.2-0.9-0.9c0-0.7,1.2-4.7,1.2-5.1c0-0.5-0.3-0.5-0.9-0.5V-38c0.8-0.1,1.6-0.2,2.4-0.4l0,0l-1.4,5.7
		c0,0.2,0,0.5,0.3,0.5c0.7,0,1.7-1.5,2.2-2.3c0.8-1.2,1.1-2.2,1.7-3.9h1.2l-1.2,4.7c-0.1,0.3-0.3,1-0.3,1.2c0,0.1,0,0.3,0.2,0.3
		c0.3,0,0.7-0.6,1.3-1.2L80.7-33.2z"/>
	<path d="M81.8-31.5l1.3-4.6c0.2-0.6,0.3-1.1,0.3-1.3c0-0.2-0.1-0.5-0.6-0.5c-0.2,0-0.3,0-0.5,0.1V-38c0.8-0.1,1.7-0.3,2.5-0.4l0,0
		L84-35.3l0,0l0.1-0.3c0.5-1,1.7-2.9,2.7-2.9c0.4,0,0.8,0.2,0.8,0.8c0,0.8-0.6,0.8-0.7,0.8c-0.7,0-0.4-0.6-0.8-0.6
		c-0.5,0-1.4,1.8-1.6,2c-0.6,1.1-0.8,1.9-1.5,4H81.8z"/>
	<path d="M94.8-33c-0.9,1.2-1.5,1.7-2.2,1.7C92-31.3,92-31.7,92-32c0-0.4,0.1-0.7,0.3-1.7l0,0c-1.3,1.9-2.2,2.4-3.1,2.4
		c-1.6,0-1.6-1.4-1.6-1.9c0-2.3,2.4-5.3,4.5-5.3c0.7,0,1.2,0.4,1.2,0.9h0l0.2-0.7l0,0l1-0.1l0.1,0c0,0.2-1.5,5.6-1.5,6.1
		c0,0.1,0.1,0.2,0.2,0.2c0.2,0,0.6-0.4,1.3-1.1L94.8-33z M89.8-32.1c1.7,0,3.2-3.4,3.2-5c0-0.8-0.4-1.1-0.9-1.1
		c-1.8,0-3.3,3.5-3.3,4.9C88.9-32.3,89.4-32.1,89.8-32.1z"/>
	<path d="M102.7-33.1c-0.8,1.1-1.3,1.8-2.2,1.8c-0.7,0-0.8-0.5-0.8-0.9c0-0.4,1.2-4.2,1.2-4.9c0-0.3-0.1-0.5-0.4-0.5
		c-0.8,0-1.8,1.4-2.3,2.2c-0.7,1.1-0.9,1.8-1.6,3.9h-1.2c0.5-1.8,1.6-5.5,1.6-5.8c0-0.2-0.2-0.4-1-0.4v-0.3c0.9-0.2,1.7-0.3,2.6-0.5
		l0,0l-1,3.3l0,0c0.7-1.2,2.2-3.4,3.5-3.4c0.7,0,1.1,0.4,1.1,1c0,0.7-1.3,4.6-1.3,5.1c0,0.2,0.2,0.3,0.3,0.3c0.3,0,0.7-0.5,1.3-1.2
		L102.7-33.1z"/>
	<path d="M108.9-33c-0.4,0.5-1.3,1.7-3,1.7c-1,0-2.3-0.4-2.3-2.5c0-2.2,2.2-4.7,4.5-4.7c1.3,0,1.7,0.8,1.7,1.3
		c0,0.4-0.3,0.7-0.7,0.7c-0.4,0-0.6-0.2-0.6-0.6c0-0.4,0.2-0.5,0.2-0.8c0-0.2-0.3-0.3-0.6-0.3c-2.1,0-3.2,2.8-3.2,4.3
		c0,1.2,0.5,1.9,1.4,1.9c0.9,0,1.7-0.6,2.3-1.3L108.9-33z"/>
	<path d="M116-33c-0.2,0.3-1.6,1.7-3.2,1.7c-1.7,0-2.2-1.2-2.2-2.2c0-2.3,2.5-4.9,4.7-4.9c0.8,0,1.3,0.4,1.3,1.1
		c0,1.2-1.5,2.5-4,2.9l-0.4,0.1c-0.1,0.3-0.2,0.6-0.2,1c0,1.1,0.8,1.4,1.5,1.4c0.9,0,1.5-0.5,2.3-1.2L116-33z M112.2-34.7
		c3.3-0.7,3.3-2.6,3.3-2.7c0-0.3-0.2-0.6-0.6-0.6c-0.9,0-1.9,1.2-2.5,2.6L112.2-34.7z"/>
	<path d="M131.1-38.9c0-0.4-0.2-2.6-2.4-2.6c-3.2,0-4.8,3.8-4.8,6.2c0,2.1,0.9,3.4,2.8,3.4c1.8,0,2.9-1.1,3.7-1.9l0.3,0.2
		c-0.6,0.7-2,2.4-4.3,2.4c-1.8,0-4.1-1.1-4.1-4.3c0-3.1,2.8-6.5,6.4-6.5c1.1,0,2.1,0.4,2.5,0.4c0.5,0,0.6-0.2,0.6-0.3h0.3l-0.6,3.1
		L131.1-38.9z"/>
	<path d="M139-36.1c0,1.9-2.2,4.8-4.6,4.8c-1.7,0-2.4-1-2.4-2.3c0-2.3,2.3-4.9,4.7-4.9C138.5-38.4,139-37.1,139-36.1z M133.4-33.1
		c0,0.9,0.5,1.5,1.3,1.5c1.8,0,3.1-3.3,3.1-5c0-0.8-0.3-1.5-1.1-1.5C134.8-38.1,133.4-35,133.4-33.1z"/>
	<path d="M150.7-33.1l-0.1,0.1c-0.6,0.8-1.4,1.7-2.2,1.7c-0.7,0-0.7-0.6-0.7-0.8c0-0.4,1.2-4.8,1.2-5.2c0-0.2-0.1-0.4-0.3-0.4
		c-0.6,0-1.8,1.4-2.3,2.2c-0.8,1.2-1,2.2-1.5,4h-1.2c0.4-1.5,1.5-5.4,1.5-5.7c0-0.4-0.2-0.4-0.3-0.4c-0.7,0-1.9,1.6-2.3,2.2
		c-0.6,1-0.9,2-1.5,3.9h-1.2c0.3-1,1.6-5.5,1.6-5.9c0-0.3-0.2-0.4-1-0.4v-0.3c0.9-0.2,1.7-0.3,2.5-0.5l0,0l-0.9,3.2l0,0
		c0.5-0.8,2.1-3.2,3.4-3.2c0.6,0,0.9,0.4,0.9,1c0,0.2-0.4,1.5-0.6,2.2l0,0c1.1-1.8,2.4-3.2,3.4-3.2c0.6,0,0.9,0.4,0.9,1.1
		c0,0.5-1.3,4.8-1.3,5c0,0.3,0,0.3,0.2,0.3c0.3,0,0.7-0.5,1.3-1.2L150.7-33.1z"/>
	<path d="M151.8-38.1l2.5-0.3c0,0,0.1,0,0,0.2l-0.4,1.5l0,0c0.4-0.6,1.3-1.7,2.6-1.7c1.4,0,1.9,0.9,1.9,2.1c0,2.5-2.5,5.1-4.7,5.1
		c-0.4,0-0.7-0.1-1.1-0.3c-0.1,0.5-0.6,2.3-0.6,2.6c0,0.5,0.6,0.5,1,0.5v0.2h-3.2v-0.3c0.8,0,0.9-0.4,1.1-0.9c0.4-1.8,2-7.7,2-8
		c0-0.3-0.3-0.5-0.7-0.5l-0.4,0L151.8-38.1z M155.9-37.8c-0.7,0-1.7,0.7-2.1,1.8c-0.4,1-1,3.2-1,3.8c0,0.4,0.4,0.6,0.8,0.6
		c1.9,0,3.4-2.9,3.4-4.8C157-36.8,156.9-37.8,155.9-37.8z"/>
	<path d="M166.4-33c-0.9,1.2-1.5,1.7-2.2,1.7c-0.7,0-0.7-0.4-0.7-0.7c0-0.4,0.1-0.7,0.3-1.7l0,0c-1.3,1.9-2.2,2.4-3.1,2.4
		c-1.6,0-1.6-1.4-1.6-1.9c0-2.3,2.4-5.3,4.5-5.3c0.7,0,1.2,0.4,1.3,0.9h0l0.2-0.7l0,0l1-0.1l0.1,0c0,0.2-1.5,5.6-1.5,6.1
		c0,0.1,0.1,0.2,0.2,0.2c0.2,0,0.6-0.4,1.3-1.1L166.4-33z M161.4-32.1c1.7,0,3.2-3.4,3.2-5c0-0.8-0.4-1.1-0.9-1.1
		c-1.9,0-3.3,3.5-3.3,4.9C160.5-32.3,161-32.1,161.4-32.1z"/>
	<path d="M174.3-33.1c-0.8,1.1-1.3,1.8-2.2,1.8c-0.7,0-0.8-0.5-0.8-0.9c0-0.4,1.2-4.2,1.2-4.9c0-0.3-0.1-0.5-0.4-0.5
		c-0.8,0-1.8,1.4-2.3,2.2c-0.7,1.1-0.9,1.8-1.6,3.9H167c0.5-1.8,1.6-5.5,1.6-5.8c0-0.2-0.2-0.4-1-0.4v-0.3c0.9-0.2,1.7-0.3,2.6-0.5
		l0,0l-1,3.3l0,0c0.7-1.2,2.2-3.4,3.5-3.4c0.7,0,1.1,0.4,1.1,1c0,0.7-1.3,4.6-1.3,5.1c0,0.2,0.2,0.3,0.3,0.3c0.3,0,0.7-0.5,1.3-1.2
		L174.3-33.1z"/>
	<path d="M174.9-38.1c0.8-0.1,2-0.4,2.3-0.4c0.2,0,1.1,2.8,1.3,4l0.3,1.8c0.7-1.1,1.9-3.2,1.9-4.1c0-0.6-0.9-0.5-0.9-1.2
		c0-0.2,0.2-0.6,0.6-0.6c0.6,0,0.9,0.4,0.9,1c0,1.9-4.4,9.3-6.3,9.3c-0.1,0-0.8,0-0.8-0.7c0-0.3,0.3-0.6,0.6-0.6
		c0.5,0,0.7,0.4,1,0.4c0.3,0,0.5-0.1,1-0.8c0.4-0.5,1.1-1.2,1.1-1.7c0-0.6-0.7-3.4-0.9-4.2c-0.4-1.4-0.6-2.1-1.5-2.1
		c-0.2,0-0.3,0-0.5,0.1V-38.1z"/>
</g>
<g>
	<path d="M106.3,33.4H71h-2.2H44.2L32.4,77.4c-0.3,1.3-0.7,2.2-0.9,2.7c-0.3,0.5-0.6,0.8-1.1,1.1c-0.4,0.2-1.1,0.4-2.1,0.4v7.8h17.3
		v-7.8c-1.4,0-2.3-0.1-2.6-0.2c-0.5-0.2-0.8-0.4-1-0.8c-0.2-0.3-0.3-0.7-0.3-1.2c0-0.4,0.1-1.2,0.4-2.4l3.2-11.6h7.6l0,11.7
		c0,0.8,0.1,2.6-0.9,3.5c-0.5,0.5-1,0.8-1.4,0.8l-1.9,0.1v7.8h19h1.2H88v-7.8h-1.6c-1.1,0-1.8-0.1-2.1-0.4c-0.4-0.2-0.4-0.7-0.8-1.1
		c-0.3-0.3-0.2-1.4-0.2-2.8V65.6h2.1c1,0,2.4,0.1,3.1,0.7c0.7,0.5,1.3,1.4,1.3,1.4h4.5V55.3h-5c0,0-0.2,1.1-0.8,1.5
		c-0.5,0.4-2.2,0.6-3.1,0.6h-2.2V42.6h10.1c2,0,3.4,0.1,4.2,0.3c1.2,0.3,3.1,1.1,3.9,3.7l4.9,0L106.3,33.4z M52.7,42.5v14.8h-5.4
		l3.9-14.8L52.7,42.5z"/>
	
		<linearGradient id="SVGID_12_" gradientUnits="userSpaceOnUse" x1="16.7773" y1="172.4341" x2="109.2669" y2="103.8589" gradientTransform="matrix(0.8465 0 0 0.8465 11.9539 -57.7407)">
		<stop  offset="0" style="stop-color:#E03A3E"/>
		<stop  offset="5.817211e-02" style="stop-color:#E13D40"/>
		<stop  offset="0.1049" style="stop-color:#E24745"/>
		<stop  offset="0.1476" style="stop-color:#E4574F"/>
		<stop  offset="0.188" style="stop-color:#E76B5E"/>
		<stop  offset="0.2263" style="stop-color:#EA8272"/>
		<stop  offset="0.2584" style="stop-color:#EE9A89"/>
		<stop  offset="0.3265" style="stop-color:#E87768"/>
		<stop  offset="0.3921" style="stop-color:#E45950"/>
		<stop  offset="0.4446" style="stop-color:#E14243"/>
		<stop  offset="0.4775" style="stop-color:#E03A3E"/>
		<stop  offset="0.5071" style="stop-color:#E14142"/>
		<stop  offset="0.5496" style="stop-color:#E3544D"/>
		<stop  offset="0.5999" style="stop-color:#E76E60"/>
		<stop  offset="0.6559" style="stop-color:#EC8E7D"/>
		<stop  offset="0.6742" style="stop-color:#EE9A89"/>
		<stop  offset="0.7171" style="stop-color:#EA806F"/>
		<stop  offset="0.7629" style="stop-color:#E66A5D"/>
		<stop  offset="0.8117" style="stop-color:#E4564F"/>
		<stop  offset="0.8641" style="stop-color:#E24745"/>
		<stop  offset="0.9226" style="stop-color:#E13D40"/>
		<stop  offset="1" style="stop-color:#E03A3E"/>
	</linearGradient>
	<path style="fill:url(#SVGID_12_);stroke:#000000;stroke-width:0.5924;" d="M104.8,31.8H69.4h-2.2H42.7L30.8,75.8
		c-0.3,1.3-0.7,2.2-0.9,2.7c-0.3,0.5-0.6,0.8-1.1,1.1c-0.4,0.2-1.1,0.4-2.1,0.4v7.8h17.3V80c-1.4,0-2.3-0.1-2.6-0.2
		c-0.5-0.2-0.8-0.4-1-0.8c-0.2-0.3-0.3-0.7-0.3-1.2c0-0.4,0.1-1.2,0.4-2.4l3.2-11.6h7.6l0,11.6c0,0.8,0.2,2.6-0.9,3.5
		c-0.5,0.5-1,0.8-1.4,0.8L47,80v7.8h19h1.2h19.2V80h-1.6c-1.1,0-1.8-0.1-2.1-0.4c-0.4-0.2-0.4-0.7-0.8-1.1c-0.3-0.3-0.2-1.4-0.2-2.8
		V64h2.1c1,0,2.4,0.1,3.1,0.7c0.7,0.5,1.3,1.4,1.3,1.4h4.5V53.7h-5c0,0-0.2,1.1-0.8,1.5c-0.5,0.4-2.2,0.6-3.1,0.6h-2.2V41h10.1
		c2,0,3.4,0.1,4.2,0.3c1.2,0.3,3.1,1.1,3.9,3.7l4.9,0L104.8,31.8z M51.2,41v14.8h-5.4L49.6,41L51.2,41z"/>
	<polygon style="fill:#004785;" points="28,6.3 31.5,8.8 35,6.3 33.7,10.4 37.1,12.9 32.8,12.9 31.5,17 30.2,12.9 25.9,12.9 
		29.4,10.4 	"/>
	
		<linearGradient id="SVGID_13_" gradientUnits="userSpaceOnUse" x1="59.3733" y1="139.3937" x2="69.484" y2="139.3937" gradientTransform="matrix(0.8465 0 0 0.8465 11.9539 -57.7407)">
		<stop  offset="0" style="stop-color:#FFFFFF"/>
		<stop  offset="8.867659e-02" style="stop-color:#F3F3F3"/>
		<stop  offset="0.2512" style="stop-color:#D1D1D1"/>
		<stop  offset="0.4693" style="stop-color:#9C9C9C"/>
		<stop  offset="0.7346" style="stop-color:#515151"/>
		<stop  offset="1" style="stop-color:#000000"/>
	</linearGradient>
	<polygon style="fill:url(#SVGID_13_);stroke:#000000;stroke-width:0.5126;" points="68.4,91.3 70.5,29.2 62.5,29.2 64.6,91.3 	"/>
	
		<linearGradient id="SVGID_14_" gradientUnits="userSpaceOnUse" x1="-3870.3535" y1="-3304.7009" x2="-3823.3958" y2="-3304.7009" gradientTransform="matrix(0.4601 0 0 0.4601 1836.3553 1546.3529)">
		<stop  offset="0" style="stop-color:#FFFFFF"/>
		<stop  offset="8.867659e-02" style="stop-color:#F3F3F3"/>
		<stop  offset="0.2512" style="stop-color:#D1D1D1"/>
		<stop  offset="0.4693" style="stop-color:#9C9C9C"/>
		<stop  offset="0.7346" style="stop-color:#515151"/>
		<stop  offset="1" style="stop-color:#000000"/>
	</linearGradient>
	<path style="fill:url(#SVGID_14_);stroke:#000000;stroke-width:0.5126;" d="M66.5,27c8.8,0,10.7-1.5,10.7-1.5v-0.8H55.8v0.8
		C55.8,25.6,57.7,27,66.5,27z"/>
	
		<linearGradient id="SVGID_15_" gradientUnits="userSpaceOnUse" x1="-3858.126" y1="-3301.6499" x2="-3835.6221" y2="-3301.6499" gradientTransform="matrix(0.4601 0 0 0.4601 1836.3553 1546.3529)">
		<stop  offset="0" style="stop-color:#FFFFFF"/>
		<stop  offset="8.867659e-02" style="stop-color:#F3F3F3"/>
		<stop  offset="0.2512" style="stop-color:#D1D1D1"/>
		<stop  offset="0.4693" style="stop-color:#9C9C9C"/>
		<stop  offset="0.7346" style="stop-color:#515151"/>
		<stop  offset="1" style="stop-color:#000000"/>
	</linearGradient>
	<rect x="61.4" y="26.8" style="fill:url(#SVGID_15_);stroke:#000000;stroke-width:0.5126;" width="10.2" height="1"/>
	
		<linearGradient id="SVGID_16_" gradientUnits="userSpaceOnUse" x1="-3879.0051" y1="-3310.0325" x2="-3814.7368" y2="-3310.0325" gradientTransform="matrix(0.4601 0 0 0.4601 1836.3553 1546.3529)">
		<stop  offset="0" style="stop-color:#FFFFFF"/>
		<stop  offset="8.867659e-02" style="stop-color:#F3F3F3"/>
		<stop  offset="0.2512" style="stop-color:#D1D1D1"/>
		<stop  offset="0.4693" style="stop-color:#9C9C9C"/>
		<stop  offset="0.7346" style="stop-color:#515151"/>
		<stop  offset="1" style="stop-color:#000000"/>
	</linearGradient>
	<rect x="51.8" y="22.1" style="fill:url(#SVGID_16_);stroke:#000000;stroke-width:0.5126;" width="29.4" height="2.6"/>
	
		<linearGradient id="SVGID_17_" gradientUnits="userSpaceOnUse" x1="-3889.5042" y1="-3314.3264" x2="-3804.2412" y2="-3314.3264" gradientTransform="matrix(0.4601 0 0 0.4601 1836.3553 1546.3529)">
		<stop  offset="0" style="stop-color:#FFFFFF"/>
		<stop  offset="8.867659e-02" style="stop-color:#F3F3F3"/>
		<stop  offset="0.2512" style="stop-color:#D1D1D1"/>
		<stop  offset="0.4693" style="stop-color:#9C9C9C"/>
		<stop  offset="0.7346" style="stop-color:#515151"/>
		<stop  offset="1" style="stop-color:#000000"/>
	</linearGradient>
	<rect x="47" y="20.7" style="fill:url(#SVGID_17_);stroke:#000000;stroke-width:0.5126;" width="39" height="1.4"/>
	
		<radialGradient id="SVGID_18_" cx="63.3808" cy="81.0338" r="34.9639" gradientTransform="matrix(0.8465 0 0 0.8465 11.9539 -57.7407)" gradientUnits="userSpaceOnUse">
		<stop  offset="0" style="stop-color:#FADDD3"/>
		<stop  offset="0.2906" style="stop-color:#F8D2C7"/>
		<stop  offset="0.8203" style="stop-color:#F3B7A8"/>
		<stop  offset="1" style="stop-color:#F1AC9D"/>
	</radialGradient>
	<path style="fill:url(#SVGID_18_);stroke:#000000;stroke-width:0.5126;" d="M62.1,16c1.4,0,8.9,0,8.9,0c3.1-1.7,6-8.4-0.6-12.7
		c-4.6-3-16.2,0.6-26.7-1c2.6,2,4.9,2.3,4.9,2.3c-5.4,1.2-16,2.2-29.6,0.2c1.1-0.1,9.2,4.9,18.9,5.2C54.2,10.5,59.2,16.2,62.1,16z"
		/>
	<path style="fill:#FCEBE5;" d="M63.4,16h6.2c3.2-2.8,6.5-11.4-6.2-13.1c0,0,11,3,4.6,9.9c0,0,2.3-4.9-2.9-6.3
		c2.7,3.5,0.8,5.7-0.1,6.3c-1.6,1.1-8.4-2.2-13.3-2.1C56.5,11.7,63.4,16,63.4,16z"/>
	
		<linearGradient id="SVGID_19_" gradientUnits="userSpaceOnUse" x1="-3856.6741" y1="-3321.0071" x2="-3837.0215" y2="-3321.0071" gradientTransform="matrix(0.4601 0 0 0.4601 1836.3553 1546.3529)">
		<stop  offset="0" style="stop-color:#FFFFFF"/>
		<stop  offset="8.867659e-02" style="stop-color:#F3F3F3"/>
		<stop  offset="0.2512" style="stop-color:#D1D1D1"/>
		<stop  offset="0.4693" style="stop-color:#9C9C9C"/>
		<stop  offset="0.7346" style="stop-color:#515151"/>
		<stop  offset="1" style="stop-color:#000000"/>
	</linearGradient>
	<rect x="62.1" y="16" style="fill:url(#SVGID_19_);stroke:#000000;stroke-width:0.5126;" width="8.9" height="4.8"/>
	
		<linearGradient id="SVGID_20_" gradientUnits="userSpaceOnUse" x1="-3889.5337" y1="-3318.6213" x2="-3804.218" y2="-3318.6213" gradientTransform="matrix(0.4601 0 0 0.4601 1836.3553 1546.3529)">
		<stop  offset="0" style="stop-color:#FFFFFF"/>
		<stop  offset="8.867659e-02" style="stop-color:#F3F3F3"/>
		<stop  offset="0.2512" style="stop-color:#D1D1D1"/>
		<stop  offset="0.4693" style="stop-color:#9C9C9C"/>
		<stop  offset="0.7346" style="stop-color:#515151"/>
		<stop  offset="1" style="stop-color:#000000"/>
	</linearGradient>
	<path style="fill:url(#SVGID_20_);stroke:#000000;stroke-width:0.5126;" d="M86,18.2v2.5h-39v-2.5l0,0c1.1,0,0.6,1.9,1.7,1.9
		c1.1,0,0-1.9,1-1.9c1.1,0,1.2,1.9,2.3,1.9c1.1,0,0.4-1.9,1.5-1.9c1.1,0,1.3,1.9,2.4,1.9c1.1,0,0.8-1.9,1.9-1.9
		c1.1,0,1.1,1.9,2.2,1.9c1.1,0,1.1-1.9,2.1-1.9c1.1,0,1.1,1.9,2.2,1.9c1.1,0,1.1-1.9,2.1-1.9c1.1,0,1.1,1.9,2.1,1.9
		c1.1,0,1.1-1.9,2.1-1.9c1.1,0,1.1,1.9,2.2,1.9c1.1,0,1.1-1.9,2.1-1.9c1.1,0,1.1,1.9,2.2,1.9c1.1,0,0.9-1.9,2-1.9
		c1.1,0,0.4,1.9,1.5,1.9c1.1,0,1.2-1.9,2.3-1.9c1.1,0,0,1.9,1.1,1.9C85.1,20,84.9,18.2,86,18.2L86,18.2z"/>
	<line style="fill:none;stroke:#6D6E71;stroke-width:0.5126;" x1="66.5" y1="29.2" x2="66.5" y2="89.5"/>
	<line style="fill:none;stroke:#58595B;stroke-width:0.5126;" x1="68.1" y1="29.2" x2="67.3" y2="89.5"/>
	<line style="fill:none;stroke:#000000;stroke-width:0.4;" x1="69.5" y1="29.2" x2="67.8" y2="89.7"/>
	<line style="fill:none;stroke:#939598;stroke-width:0.5126;" x1="64.9" y1="29.2" x2="65.8" y2="89.5"/>
	<line style="fill:none;stroke:#A7A9AC;stroke-width:0.5126;" x1="63.5" y1="29.3" x2="65.2" y2="89.7"/>
	
		<linearGradient id="SVGID_21_" gradientUnits="userSpaceOnUse" x1="-3856.6978" y1="-3298.9934" x2="-3837.0447" y2="-3298.9934" gradientTransform="matrix(0.4601 0 0 0.4601 1836.3553 1546.3529)">
		<stop  offset="0" style="stop-color:#FFFFFF"/>
		<stop  offset="8.867659e-02" style="stop-color:#F3F3F3"/>
		<stop  offset="0.2512" style="stop-color:#D1D1D1"/>
		<stop  offset="0.4693" style="stop-color:#9C9C9C"/>
		<stop  offset="0.7346" style="stop-color:#515151"/>
		<stop  offset="1" style="stop-color:#000000"/>
	</linearGradient>
	<rect x="62" y="27.8" style="fill:url(#SVGID_21_);stroke:#000000;stroke-width:0.5126;" width="8.9" height="1.5"/>
	
		<radialGradient id="SVGID_22_" cx="-3846.8916" cy="-3161.1741" r="5.505" fx="-3849.6101" fy="-3163.7114" gradientTransform="matrix(0.4601 0 0 0.4601 1836.3553 1546.3529)" gradientUnits="userSpaceOnUse">
		<stop  offset="0" style="stop-color:#FFFFFF"/>
		<stop  offset="0.1539" style="stop-color:#FCFCFC"/>
		<stop  offset="0.2833" style="stop-color:#F1F1F1"/>
		<stop  offset="0.4038" style="stop-color:#E0E0E0"/>
		<stop  offset="0.519" style="stop-color:#C7C7C7"/>
		<stop  offset="0.6304" style="stop-color:#A7A7A7"/>
		<stop  offset="0.7389" style="stop-color:#818181"/>
		<stop  offset="0.8452" style="stop-color:#525252"/>
		<stop  offset="0.947" style="stop-color:#1E1E1E"/>
		<stop  offset="1" style="stop-color:#000000"/>
	</radialGradient>
	<path style="fill:url(#SVGID_22_);stroke:#000000;stroke-width:0.5126;" d="M66.9,94.4c1.1,0,2-0.9,2-2v-0.8c0-1.1-0.9-2-2-2h-0.8
		c-1.1,0-2,0.9-2,2v0.8c0,1.1,0.9,2,2,2H66.9z"/>
	<polygon style="fill:#004785;" points="11.5,88.5 15.5,90 18.2,86.7 18,91 22,92.5 17.8,93.6 17.6,97.9 15.3,94.3 11.1,95.4 
		13.8,92.1 	"/>
	<polygon style="fill:#004785;" points="5.5,71.1 8.9,73.8 12.4,71.4 10.9,75.4 14.3,78.1 10,77.9 8.5,81.9 7.4,77.8 3.1,77.6 
		6.6,75.2 	"/>
	<polygon style="fill:#004785;" points="5,51.3 7.4,54.9 11.5,53.7 8.8,57.1 11.2,60.7 7.2,59.2 4.5,62.5 4.7,58.2 0.7,56.7 
		4.8,55.6 	"/>
	<polygon style="fill:#004785;" points="120.4,32.7 121.9,36.7 126.2,36.5 122.8,39.2 124.3,43.2 120.7,40.9 117.4,43.6 118.5,39.4 
		114.9,37.1 119.2,36.9 	"/>
	<polygon style="fill:#004785;" points="4.8,36.5 9.1,36.7 10.6,32.7 11.8,36.9 16.1,37.1 12.5,39.4 13.6,43.6 10.3,40.9 6.7,43.3 
		8.2,39.2 	"/>
	<polygon style="fill:#004785;" points="14.5,19.3 18.5,20.8 21.2,17.4 21,21.7 25.1,23.2 20.9,24.3 20.8,28.6 18.4,25.1 14.2,26.3 
		16.9,22.9 	"/>
	<polygon style="fill:#004785;" points="112.8,86.7 115.5,90 119.5,88.5 117.2,92.1 119.9,95.4 115.7,94.3 113.4,97.9 113.1,93.7 
		109,92.5 113,91 	"/>
	<polygon style="fill:#004785;" points="118.5,71.4 122.1,73.8 125.5,71.1 124.3,75.2 127.9,77.6 123.6,77.8 122.5,81.9 121,77.9 
		116.7,78.1 120,75.4 	"/>
	<polygon style="fill:#004785;" points="126,51.3 126.2,55.6 130.3,56.8 126.3,58.3 126.5,62.6 123.8,59.2 119.8,60.7 122.1,57.1 
		119.5,53.8 123.6,54.9 	"/>
	<polygon style="fill:#004785;" points="109.8,17.4 112.4,20.8 116.5,19.3 114.1,22.9 116.7,26.2 112.6,25.1 110.2,28.6 110.1,24.3 
		105.9,23.2 110,21.7 	"/>
	<polygon style="fill:#004785;" points="96,6.3 99.5,8.8 102.9,6.3 101.7,10.4 105.2,12.9 100.8,12.9 99.6,17 98.2,12.9 93.9,13 
		97.4,10.4 	"/>
</g>
<g>
	<path d="M12.4,117.2v-0.7c1.3-0.2,1.9-1.2,2.5-2.3l10.5-16.5h0.7l2.9,17.1c0.1,0.4,0.2,0.7,0.4,1c0.1,0.2,0.3,0.3,0.5,0.5
		c0.5,0.1,0.9,0.2,1.4,0.2v0.7h-8.7v-0.7c0.5,0,1-0.1,1.5-0.3c0.7-0.3,0.8-0.8,0.8-1.5l-0.4-3.5h-6.1l-1.9,3.4
		c-0.1,0.3-0.2,0.6-0.2,0.8c0,1,1.2,1,1.8,1v0.7H12.4z M18.9,110.1h5.3l-1-7L18.9,110.1z"/>
	<path d="M32.1,117.2l2.9-11c0.2-0.7-0.9-0.8-1.5-0.7v-0.8c1.7-0.1,3.6-0.4,5.7-0.8l-1.6,5.3l0.1,0.1c1.2-2,3.3-5.4,6-5.4
		c1.7,0,2.3,1.6,1.2,4.6l0.1,0.1c1-1.7,3-4.7,5.3-4.7c1.2,0,3.2,0.3,2.1,3.9l-2.3,7.3c-0.2,0.7,1,0.7,2.4-1.7l0.6,0.4
		c-0.9,1.7-2.4,3.8-4.5,3.8c-1.5,0-2.4-1.4-1.9-3l2.3-7.1c0.2-0.6,0.4-1.4-0.5-1.4c-1.3,0-3,3-3.5,4c-0.8,1.6-1.4,3.6-2.5,7.1H39
		l2.9-9.6c0.3-1.4,0-1.8-0.8-1.3c-1.2,0.8-2.5,2.4-3.8,5.5c-0.8,1.7-1.2,3.6-1.7,5.4H32.1z"/>
	<path d="M53.6,117.2v-0.7c0.5-0.1,1-0.1,1.4-0.4c0.7-0.5,0.8-1.2,1-2l3.7-14c0-1.4-1-1.1-2.1-1.3v-0.7h15.2l-1.2,5.4l-0.8-0.1
		c0.1-2.8-1.2-4.4-5-4.4c-0.4,0-1.2,0-1.4,0.3c-0.3,0.3-0.4,0.8-0.5,1.3l-1.6,6c2.9-0.1,4.4-0.1,5.7-3l0.8,0.1l-2.1,7.8l-0.8-0.1
		c0.1-0.4,0.2-1.8-0.2-2.7c-0.5-1.2-2.6-1.1-3.6-1.2l-2,7.4c0,0.3-0.2,0.8,0.6,1.2c0.4,0.2,1,0.3,1.4,0.3v0.7H53.6z"/>
	<path d="M75.4,114.4c-0.1,0.3-0.1,0.6,0,0.9c0.2,0.2,0.4,0.2,1,0c0.6-0.6,1.2-1.4,1.6-2.1l0.6,0.4c-1.2,1.8-2.4,4-4.9,4
		c-1,0-2.4-0.8-1.8-3.1l2-7.3c0.4-1.5-0.1-1.6-1.5-1.6v-0.8c1.4-0.2,3.5-0.5,5.7-0.8L75.4,114.4z M75.5,99.6c0-1,0.9-1.9,1.9-1.9
		c1,0,1.9,0.9,1.9,1.9c0,1-0.9,2-1.9,2C76.3,101.6,75.5,100.6,75.5,99.6z"/>
	<path d="M79.4,117.2l2.7-9.6c0.3-1.1,0.3-1.6,0-1.9c-0.3-0.2-0.6-0.2-1.3-0.2v-0.8c1.8-0.3,3.6-0.4,5.7-0.8l-1.6,5.1l0.1,0.1
		c0.7-1.5,2.5-5.1,4.4-5.1c1,0,1.6,0.8,1.6,1.7c0,1-0.5,2.2-1.7,2.2c-0.6,0-0.9-0.3-1.5-1c-0.2-0.1-0.4-0.1-0.5,0
		c-2.6,2.8-3.3,6.8-4.5,10.3H79.4z"/>
	<path d="M90.8,117.6l0.6-4.8l0.8,0.1c0,1.4,1,3.8,2.7,3.8c1,0,1.7-0.6,1.7-1.6c0-1.1-1.3-2.5-1.9-3.3c-1-1.3-2-2.5-2-4.2
		c0-1.3,0.6-3,2.7-3.5c0.5-0.1,1.1-0.1,1.7-0.1c0.3,0,0.8,0.3,1.6,0.5c0.5,0.1,1.1,0.2,1.3-0.5h0.8l-0.7,4.4l-0.8-0.1
		c-0.1-1.4-0.9-3.4-2.5-3.4c-0.8,0-2.3,1-1.2,2.6l2.2,2.9c0.7,0.9,1.4,2.1,1.4,3.3c0,1.3-0.7,3.9-4.2,3.9c-0.8,0-1.6-0.3-2.8-0.6
		c-0.3,0-0.6,0.2-0.7,0.6H90.8z"/>
	<path d="M104.7,105.5h-1.5v-1c2.2-0.8,4-2.4,5.2-4.4h1l-1.1,4.2h2.1v1.2H108l-2.4,9c-0.2,0.6-0.1,1.3,0.4,1.1
		c0.8-0.4,1.6-1.5,2.2-2.3l0.6,0.4c-1.1,1.8-2.5,3.9-4.9,3.9c-0.9,0-2.7-0.4-1.2-4.5L104.7,105.5z"/>
</g>
<g>
	<path d="M0.5,131.8c0.8-0.1,1-0.2,1.3-1.2l1.9-7c0.1-0.3,0.2-0.7,0.2-1c0-0.6-0.4-0.6-1.1-0.7v-0.3h3.9v0.3c-0.8,0.1-1,0.2-1.3,1.2
		l-1.9,7c-0.1,0.3-0.2,0.6-0.2,1c0,0.5,0.4,0.6,1.1,0.6v0.3H0.5V131.8z"/>
	<path d="M13.4,130.4c-0.8,1.1-1.3,1.8-2.2,1.8c-0.7,0-0.8-0.5-0.8-0.9c0-0.4,1.2-4.2,1.2-4.9c0-0.3-0.1-0.5-0.4-0.5
		c-0.8,0-1.8,1.4-2.3,2.2c-0.7,1.1-0.9,1.8-1.6,3.9H6.2c0.5-1.8,1.5-5.5,1.5-5.8c0-0.2-0.2-0.4-1-0.4v-0.3c0.9-0.2,1.7-0.3,2.6-0.5
		l0,0l-1,3.3l0,0c0.7-1.2,2.2-3.4,3.5-3.4c0.7,0,1.1,0.4,1.1,1c0,0.7-1.3,4.6-1.3,5.1c0,0.2,0.2,0.3,0.3,0.3c0.3,0,0.7-0.5,1.3-1.2
		L13.4,130.4z"/>
	<path d="M14.7,129.7c0.1,0.7,0.4,2.2,1.6,2.2c0.9,0,1.1-0.8,1.1-1.3c0-1-1.9-2.6-1.9-3.8c0-0.5,0.2-1.8,1.9-1.8
		c0.7,0,1,0.3,1.5,0.3c0.3,0,0.4-0.2,0.4-0.3h0.2l-0.3,2.2h-0.3c-0.1-0.9-0.5-1.8-1.5-1.8c-0.3,0-0.9,0.1-0.9,0.9
		c0,1,1.9,2.4,1.9,3.7c0,1.7-1.5,2.1-2.4,2.1c-0.5,0-1.1-0.3-1.6-0.3c-0.2,0-0.3,0.2-0.4,0.3h-0.3l0.3-2.5H14.7z"/>
	<path d="M27.5,130.3c-1,1.4-1.4,1.9-2.2,1.9c-0.7,0-0.7-0.6-0.7-0.8c0-0.3,0.3-1.6,0.7-2.9h0c-1.1,1.8-2.2,3.8-3.7,3.8
		c-0.6,0-0.9-0.2-0.9-0.9c0-0.7,1.2-4.7,1.2-5.1c0-0.5-0.3-0.5-0.9-0.5v-0.2c0.8-0.1,1.6-0.2,2.4-0.4l0,0l-1.4,5.7
		c0,0.2,0,0.5,0.3,0.5c0.7,0,1.7-1.5,2.2-2.3c0.8-1.2,1.1-2.2,1.7-3.9h1.2l-1.2,4.7c-0.1,0.3-0.3,1-0.3,1.2c0,0.1,0,0.3,0.2,0.3
		c0.3,0,0.7-0.6,1.3-1.2L27.5,130.3z"/>
	<path d="M28.6,132l1.3-4.6c0.2-0.6,0.3-1.1,0.3-1.3c0-0.2-0.1-0.5-0.6-0.5c-0.2,0-0.3,0-0.5,0.1v-0.3c0.8-0.1,1.7-0.3,2.5-0.4l0,0
		l-0.8,3.1l0,0L31,128c0.5-1,1.7-2.9,2.7-2.9c0.4,0,0.8,0.2,0.8,0.8c0,0.8-0.6,0.8-0.7,0.8c-0.7,0-0.4-0.6-0.8-0.6
		c-0.5,0-1.4,1.8-1.6,2c-0.6,1.1-0.8,1.9-1.5,4H28.6z"/>
	<path d="M41.6,130.5c-0.9,1.2-1.5,1.7-2.2,1.7c-0.7,0-0.7-0.4-0.7-0.7c0-0.4,0.1-0.7,0.3-1.7l0,0c-1.3,1.9-2.2,2.4-3.1,2.4
		c-1.6,0-1.6-1.4-1.6-1.9c0-2.3,2.4-5.3,4.5-5.3c0.7,0,1.2,0.4,1.2,0.9h0l0.2-0.7l0,0l1-0.1l0.1,0c0,0.2-1.5,5.6-1.5,6.1
		c0,0.1,0.1,0.2,0.2,0.2c0.2,0,0.6-0.4,1.3-1.1L41.6,130.5z M36.6,131.4c1.7,0,3.2-3.4,3.2-5c0-0.8-0.4-1.1-0.9-1.1
		c-1.8,0-3.3,3.5-3.3,4.9C35.7,131.2,36.2,131.4,36.6,131.4z"/>
	<path d="M49.5,130.4c-0.8,1.1-1.3,1.8-2.2,1.8c-0.7,0-0.8-0.5-0.8-0.9c0-0.4,1.2-4.2,1.2-4.9c0-0.3-0.1-0.5-0.4-0.5
		c-0.8,0-1.8,1.4-2.3,2.2c-0.7,1.1-0.9,1.8-1.6,3.9h-1.2c0.5-1.8,1.6-5.5,1.6-5.8c0-0.2-0.2-0.4-1-0.4v-0.3c0.9-0.2,1.7-0.3,2.6-0.5
		l0,0l-1,3.3l0,0c0.7-1.2,2.2-3.4,3.5-3.4c0.7,0,1.1,0.4,1.1,1c0,0.7-1.3,4.6-1.3,5.1c0,0.2,0.2,0.3,0.3,0.3c0.3,0,0.7-0.5,1.3-1.2
		L49.5,130.4z"/>
	<path d="M55.7,130.5c-0.4,0.5-1.3,1.7-3,1.7c-1,0-2.3-0.4-2.3-2.5c0-2.2,2.2-4.7,4.5-4.7c1.3,0,1.7,0.8,1.7,1.3
		c0,0.4-0.3,0.7-0.7,0.7s-0.6-0.2-0.6-0.6c0-0.4,0.2-0.5,0.2-0.8c0-0.2-0.3-0.3-0.6-0.3c-2.1,0-3.2,2.8-3.2,4.3
		c0,1.2,0.5,1.9,1.4,1.9c0.9,0,1.7-0.6,2.3-1.3L55.7,130.5z"/>
	<path d="M62.8,130.5c-0.2,0.3-1.6,1.7-3.2,1.7c-1.7,0-2.2-1.2-2.2-2.2c0-2.3,2.5-4.9,4.7-4.9c0.8,0,1.3,0.4,1.3,1.1
		c0,1.2-1.5,2.5-4,2.9l-0.4,0.1c-0.1,0.3-0.2,0.6-0.2,1c0,1.1,0.8,1.4,1.5,1.4c0.9,0,1.5-0.5,2.3-1.2L62.8,130.5z M59,128.8
		c3.3-0.7,3.3-2.6,3.3-2.7c0-0.3-0.2-0.6-0.6-0.6c-0.9,0-1.9,1.2-2.5,2.6L59,128.8z"/>
	<path d="M77.9,124.6c0-0.4-0.2-2.6-2.4-2.6c-3.2,0-4.8,3.8-4.8,6.2c0,2.1,0.9,3.4,2.8,3.4c1.8,0,2.9-1.1,3.7-1.9l0.3,0.2
		c-0.6,0.7-2,2.4-4.3,2.4c-1.8,0-4.1-1.1-4.1-4.3c0-3.1,2.8-6.5,6.4-6.5c1.1,0,2.1,0.4,2.5,0.4c0.5,0,0.6-0.2,0.6-0.3h0.3l-0.6,3.1
		L77.9,124.6z"/>
	<path d="M85.9,127.4c0,1.9-2.2,4.8-4.6,4.8c-1.7,0-2.4-1-2.4-2.3c0-2.3,2.3-4.9,4.7-4.9C85.4,125.1,85.9,126.4,85.9,127.4z
		 M80.2,130.4c0,0.9,0.5,1.5,1.3,1.5c1.8,0,3.1-3.3,3.1-5c0-0.8-0.3-1.5-1.1-1.5C81.6,125.4,80.2,128.6,80.2,130.4z"/>
	<path d="M97.5,130.4l-0.1,0.1c-0.6,0.8-1.4,1.7-2.2,1.7c-0.7,0-0.7-0.6-0.7-0.8c0-0.4,1.2-4.8,1.2-5.2c0-0.2-0.1-0.4-0.3-0.4
		c-0.6,0-1.8,1.4-2.3,2.2c-0.8,1.2-1,2.2-1.5,4h-1.2c0.4-1.5,1.5-5.4,1.5-5.7c0-0.4-0.2-0.4-0.3-0.4c-0.7,0-1.9,1.6-2.3,2.2
		c-0.6,1-0.9,2-1.5,3.9h-1.2c0.3-1,1.6-5.5,1.6-5.9c0-0.3-0.2-0.4-1-0.4v-0.3c0.9-0.2,1.7-0.3,2.5-0.5l0,0l-0.9,3.2l0,0
		c0.5-0.8,2.1-3.2,3.4-3.2c0.6,0,0.9,0.4,0.9,1c0,0.2-0.4,1.5-0.6,2.2l0,0c1.1-1.8,2.4-3.2,3.4-3.2c0.6,0,0.9,0.4,0.9,1.1
		c0,0.5-1.3,4.8-1.3,5c0,0.3,0,0.3,0.2,0.3c0.3,0,0.7-0.5,1.3-1.2L97.5,130.4z"/>
	<path d="M98.6,125.4l2.5-0.3c0,0,0.1,0,0,0.2l-0.4,1.5l0,0c0.4-0.6,1.3-1.7,2.6-1.7c1.4,0,1.9,0.9,1.9,2.1c0,2.5-2.5,5.1-4.7,5.1
		c-0.4,0-0.7-0.1-1.1-0.3c-0.1,0.5-0.6,2.3-0.6,2.6c0,0.5,0.6,0.5,1,0.5v0.2h-3.2V135c0.8,0,0.9-0.4,1.1-0.9c0.4-1.8,2-7.7,2-8
		c0-0.3-0.3-0.5-0.7-0.5l-0.4,0L98.6,125.4z M102.7,125.8c-0.7,0-1.7,0.7-2.1,1.8c-0.4,1-1,3.2-1,3.8c0,0.4,0.4,0.6,0.8,0.6
		c1.9,0,3.4-2.9,3.4-4.8C103.8,126.7,103.8,125.8,102.7,125.8z"/>
	<path d="M113.2,130.5c-0.9,1.2-1.5,1.7-2.2,1.7c-0.7,0-0.7-0.4-0.7-0.7c0-0.4,0.1-0.7,0.3-1.7l0,0c-1.3,1.9-2.2,2.4-3.1,2.4
		c-1.6,0-1.6-1.4-1.6-1.9c0-2.3,2.4-5.3,4.5-5.3c0.7,0,1.2,0.4,1.3,0.9h0l0.2-0.7l0,0l1-0.1l0.1,0c0,0.2-1.5,5.6-1.5,6.1
		c0,0.1,0.1,0.2,0.2,0.2c0.2,0,0.6-0.4,1.3-1.1L113.2,130.5z M108.2,131.4c1.7,0,3.2-3.4,3.2-5c0-0.8-0.4-1.1-0.9-1.1
		c-1.9,0-3.3,3.5-3.3,4.9C107.3,131.2,107.8,131.4,108.2,131.4z"/>
	<path d="M121.1,130.4c-0.8,1.1-1.3,1.8-2.2,1.8c-0.7,0-0.8-0.5-0.8-0.9c0-0.4,1.2-4.2,1.2-4.9c0-0.3-0.1-0.5-0.4-0.5
		c-0.8,0-1.8,1.4-2.3,2.2c-0.7,1.1-0.9,1.8-1.6,3.9h-1.2c0.5-1.8,1.6-5.5,1.6-5.8c0-0.2-0.2-0.4-1-0.4v-0.3c0.9-0.2,1.7-0.3,2.6-0.5
		l0,0l-1,3.3l0,0c0.7-1.2,2.2-3.4,3.5-3.4c0.7,0,1.1,0.4,1.1,1c0,0.7-1.3,4.6-1.3,5.1c0,0.2,0.2,0.3,0.3,0.3c0.3,0,0.7-0.5,1.3-1.2
		L121.1,130.4z"/>
	<path d="M121.7,125.5c0.8-0.1,2-0.4,2.3-0.4c0.2,0,1.1,2.8,1.3,4l0.3,1.8c0.7-1.1,1.9-3.2,1.9-4.1c0-0.6-0.9-0.5-0.9-1.2
		c0-0.2,0.2-0.6,0.6-0.6c0.6,0,0.9,0.4,0.9,1c0,1.9-4.4,9.3-6.3,9.3c-0.1,0-0.8,0-0.8-0.7c0-0.3,0.3-0.6,0.6-0.6
		c0.5,0,0.7,0.4,1,0.4c0.3,0,0.5-0.1,1-0.8c0.4-0.5,1.1-1.2,1.1-1.7c0-0.6-0.7-3.4-0.9-4.2c-0.4-1.4-0.6-2.1-1.5-2.1
		c-0.2,0-0.3,0-0.5,0.1V125.5z"/>
</g>
</svg>
