<svg xmlns="http://www.w3.org/2000/svg" width="2in" height="2in" viewBox="0 0 144 144.3"><defs><style>.a{fill:#fff;}</style></defs><title>AmFirst CDN Logos</title><path class="a" d="M55.4,85.7H53.3v8.5H71.8L69.8,33.4H48.6L35.7,81.3a13.1,13.1,0,0,1-1,2.9,3.1,3.1,0,0,1-1.2,1.2,5,5,0,0,1-2.3.4v8.5H50V85.8l-2.8-.2a2,2,0,0,1-1.1-.8,2.3,2.3,0,0,1-.3-1.3,14.1,14.1,0,0,1,.5-2.6l3.4-12.7h8.3V81c0,0.9.2,2.9-1,3.8A2.6,2.6,0,0,1,55.4,85.7Zm2.4-26.2H52l4.3-16.1h1.6V59.5Z"/><polygon class="a" points="77.8 33.4 75.4 33.4 70.8 33.4 72.8 94.3 73.9 94.3 75.3 94.3 76.3 94.3 78.3 33.4 77.8 33.4"/><path class="a" d="M79.3,33.4L77.3,94.3H96.2V85.8H94.5a4.8,4.8,0,0,1-2.3-.4,8.5,8.5,0,0,1-.9-1.2C91,83.9,91,82.7,91,81.1V68.5h2.3a6.4,6.4,0,0,1,3.4.7,7.9,7.9,0,0,1,1.4,1.5H103V57.2H97.6a3.4,3.4,0,0,1-.8,1.6,7.7,7.7,0,0,1-3.4.7H91V43.4h11a22.9,22.9,0,0,1,4.6.3,5.7,5.7,0,0,1,4.3,4h5.4V33.4H79.3Z"/><path class="a" d="M33.9,9.3l0.3,0.8-3.8,2.7H35l1.4,4.5,1.5-4.4h4.7l-3.3-2.4A43.9,43.9,0,0,1,33.9,9.3Z"/><path class="a" d="M71.2,20.1a0.9,0.9,0,0,0,1.7,0,1.5,1.5,0,0,1,3,0,0.8,0.8,0,0,0,1.7,0A1.8,1.8,0,0,1,79,18.9h0.3V17H69.7v1.9A1.8,1.8,0,0,1,71.2,20.1Z"/><rect class="a" x="71.9" y="96.2" width="5.3" height="5.31" rx="2.2" ry="2.2"/><polygon class="a" points="14.7 95.1 19.1 96.8 22.1 93.1 21.8 97.8 26.2 99.5 21.6 100.7 21.4 105.4 18.9 101.4 14.3 102.7 17.3 99 14.7 95.1"/><polygon class="a" points="8.2 76.2 11.9 79.1 15.8 76.5 14.1 80.9 17.8 83.8 13.1 83.6 11.5 88 10.2 83.5 5.6 83.3 9.5 80.7 8.2 76.2"/><polygon class="a" points="7.7 54.6 10.3 58.5 14.8 57.3 11.8 60.9 14.4 64.9 10 63.2 7.1 66.9 7.3 62.2 3 60.5 7.5 59.3 7.7 54.6"/><polygon class="a" points="133.2 34.4 134.8 38.8 139.5 38.6 135.8 41.5 137.5 45.9 133.6 43.3 129.9 46.2 131.2 41.7 127.2 39.1 131.9 38.9 133.2 34.4"/><polygon class="a" points="7.5 38.6 12.1 38.8 13.8 34.4 15 38.9 19.7 39.1 15.8 41.7 17 46.2 13.4 43.3 9.5 45.9 11.1 41.5 7.5 38.6"/><polygon class="a" points="18 19.8 22.4 21.4 25.3 17.7 25.1 22.4 29.5 24 25 25.3 24.8 30 22.2 26.1 17.7 27.4 20.6 23.7 18 19.8"/><polygon class="a" points="124.9 93.2 127.9 96.8 132.2 95.1 129.7 99 132.6 102.7 128.1 101.5 125.6 105.4 125.3 100.7 120.8 99.5 125.2 97.8 124.9 93.2"/><polygon class="a" points="131.2 76.5 135.1 79.1 138.8 76.2 137.5 80.7 141.4 83.3 136.7 83.5 135.4 88 133.8 83.6 129.1 83.8 132.8 80.9 131.2 76.5"/><polygon class="a" points="139.3 54.7 139.5 59.3 144 60.6 139.6 62.2 139.8 66.9 136.9 63.2 132.5 64.9 135.1 61 132.2 57.3 136.7 58.6 139.3 54.7"/><polygon class="a" points="121.7 17.7 124.6 21.4 129 19.8 126.3 23.7 129.2 27.4 124.7 26.1 122.1 30 122 25.3 117.5 24 121.8 22.4 121.7 17.7"/><polygon class="a" points="106.7 5.7 110.5 8.4 114.2 5.6 112.8 10.1 116.6 12.8 111.9 12.9 110.5 17.3 109.1 12.9 104.4 12.9 108.1 10.1 106.7 5.7"/><path class="a" d="M20.9,125.1v-0.7c1.3-.2,1.9-1.2,2.5-2.3l10.5-16.5h0.7l2.9,17.1a4.1,4.1,0,0,0,.4,1l0.5,0.5,1.4,0.2v0.7H31.1v-0.7a3.7,3.7,0,0,0,1.5-.3,1.3,1.3,0,0,0,.8-1.5l-0.4-3.5H26.7l-1.9,3.4a2.4,2.4,0,0,0-.2.8c0,1,1.2,1,1.8,1v0.7H20.9Zm6.5-7.1h5.3l-1-7Z"/><path class="a" d="M40.7,125.1l2.9-11c0.2-.7-0.9-0.7-1.5-0.7v-0.8a56.2,56.2,0,0,0,5.7-.8l-1.6,5.3h0.1c1.2-2,3.3-5.4,6-5.4s2.3,1.6,1.2,4.6h0.1c1-1.7,3-4.7,5.3-4.7s3.2,0.3,2.1,3.9l-2.3,7.3c-0.2.7,1,.7,2.4-1.7l0.6,0.4c-0.9,1.7-2.4,3.8-4.5,3.8a2.1,2.1,0,0,1-1.9-3l2.3-7.1c0.2-.6.4-1.4-0.5-1.4s-3,3-3.5,4a46.1,46.1,0,0,0-2.5,7.1H47.5l2.9-9.6c0.3-1.4,0-1.8-.8-1.3s-2.5,2.4-3.8,5.5a40.2,40.2,0,0,0-1.7,5.4H40.7Z"/><path class="a" d="M62.1,125.1v-0.7a3.3,3.3,0,0,0,1.4-.4,3.4,3.4,0,0,0,1-2l3.7-14c0-1.4-1-1.1-2.1-1.3V106H81.3l-1.2,5.4H79.3c0.1-2.8-1.2-4.4-5-4.4a2.1,2.1,0,0,0-1.4.3,2.8,2.8,0,0,0-.5,1.3l-1.6,6c2.9-.1,4.4-0.1,5.7-3h0.8L75,119.4H74.3a5.4,5.4,0,0,0-.2-2.7c-0.5-1.2-2.6-1.1-3.6-1.2l-2,7.4a1,1,0,0,0,.6,1.2,3.4,3.4,0,0,0,1.4.3v0.7H62.1Z"/><path class="a" d="M83.9,122.3a2,2,0,0,0,0,.9c0.2,0.2.4,0.2,1,0a10.6,10.6,0,0,0,1.6-2.1l0.6,0.4c-1.2,1.8-2.4,4-4.9,4s-2.4-.8-1.8-3.1l2-7.3c0.4-1.5-.1-1.6-1.5-1.6v-0.8l5.7-.8ZM84,107.5a2,2,0,0,1,1.9-1.9,2,2,0,0,1,1.9,1.9A1.9,1.9,0,1,1,84,107.5Z"/><path class="a" d="M87.9,125.1l2.7-9.6c0.3-1.1.3-1.6,0-1.9a2,2,0,0,0-1.3-.2v-0.8l5.7-.8L93.4,117h0.1c0.7-1.5,2.5-5.1,4.4-5.1a1.6,1.6,0,0,1,1.6,1.7c0,1-.5,2.2-1.7,2.2s-0.9-.3-1.5-1a0.5,0.5,0,0,0-.5,0c-2.6,2.8-3.3,6.8-4.5,10.3H87.9Z"/><path class="a" d="M99.3,125.5l0.6-4.8h0.8c0,1.4,1,3.8,2.7,3.8a1.6,1.6,0,0,0,1.7-1.6c0-1.1-1.3-2.5-1.9-3.3s-2-2.5-2-4.2a3.4,3.4,0,0,1,2.7-3.5h1.7l1.6,0.5a0.9,0.9,0,0,0,1.3-.5h0.8l-0.7,4.4H108c-0.1-1.4-.9-3.4-2.5-3.4a1.5,1.5,0,0,0-1.2,2.6l2.2,2.9a5.9,5.9,0,0,1,1.4,3.3c0,1.3-.7,3.9-4.2,3.9a12.7,12.7,0,0,1-2.8-.6,0.9,0.9,0,0,0-.7.6H99.3Z"/><path class="a" d="M113.2,113.3h-1.5v-1a10.5,10.5,0,0,0,5.2-4.4h1l-1.1,4.2h2.1v1.2h-2.4l-2.4,9c-0.2.6-.1,1.3,0.4,1.1a6.7,6.7,0,0,0,2.2-2.3l0.6,0.4c-1.1,1.8-2.5,3.9-4.9,3.9-0.9,0-2.7-.4-1.2-4.5Z"/><path class="a" d="M7.1,139.7a1.2,1.2,0,0,0,1.3-1.2l1.9-7a3.8,3.8,0,0,0,.2-1c0-.6-0.4-0.6-1.1-0.7v-0.3h3.9v0.3A1.2,1.2,0,0,0,12,131L10,138a3.4,3.4,0,0,0-.2,1c0,0.5.4,0.6,1.1,0.6v0.3H7.1v-0.3Z"/><path class="a" d="M19.9,138.3c-0.8,1.1-1.3,1.8-2.2,1.8s-0.8-.5-0.8-0.9,1.2-4.2,1.2-4.9a0.4,0.4,0,0,0-.4-0.5c-0.8,0-1.8,1.4-2.3,2.2a12.4,12.4,0,0,0-1.6,3.9H12.7c0.5-1.8,1.5-5.5,1.5-5.8s-0.2-.4-1-0.4v-0.3l2.6-.5h0l-1,3.3h0c0.7-1.2,2.2-3.4,3.5-3.4a1,1,0,0,1,1.1,1c0,0.7-1.3,4.6-1.3,5.1a0.3,0.3,0,0,0,.3.3,2.9,2.9,0,0,0,1.3-1.2Z"/><path class="a" d="M21.2,137.6c0.1,0.7.4,2.2,1.6,2.2a1.2,1.2,0,0,0,1.1-1.3c0-1-1.9-2.6-1.9-3.8A1.7,1.7,0,0,1,24,133c0.7,0,1,.3,1.5.3a0.5,0.5,0,0,0,.4-0.3h0.2l-0.3,2.2H25.6c-0.1-.9-0.5-1.8-1.5-1.8a0.8,0.8,0,0,0-.9.9c0,1,1.9,2.4,1.9,3.7a2.1,2.1,0,0,1-2.4,2.1l-1.6-.3a0.4,0.4,0,0,0-.4.3H20.6l0.3-2.5h0.3Z"/><path class="a" d="M34,138.2c-1,1.4-1.4,1.9-2.2,1.9a0.7,0.7,0,0,1-.7-0.8,22.2,22.2,0,0,1,.7-2.9h0c-1.1,1.8-2.2,3.8-3.7,3.8a0.8,0.8,0,0,1-.9-0.9c0-.7,1.2-4.7,1.2-5.1s-0.3-.5-0.9-0.5v-0.2l2.4-.4h0l-1.4,5.7a0.4,0.4,0,0,0,.3.5c0.7,0,1.7-1.5,2.2-2.3a16.6,16.6,0,0,0,1.7-3.9h1.2l-1.2,4.7a7.5,7.5,0,0,0-.3,1.2,0.2,0.2,0,0,0,.2.3,3.1,3.1,0,0,0,1.3-1.2H34Z"/><path class="a" d="M35.1,139.9l1.3-4.6a7.5,7.5,0,0,0,.3-1.3,0.5,0.5,0,0,0-.6-0.5H35.6v-0.3L38,133h0l-0.8,3.1h0v-0.3c0.5-1,1.7-2.9,2.7-2.9a0.7,0.7,0,0,1,.8.8,0.7,0.7,0,0,1-.7.8c-0.7,0-.4-0.6-0.8-0.6s-1.4,1.8-1.6,2a19.7,19.7,0,0,0-1.5,4H35.1Z"/><path class="a" d="M48.1,138.4c-0.9,1.2-1.5,1.7-2.2,1.7a0.6,0.6,0,0,1-.7-0.7,6.8,6.8,0,0,1,.3-1.7h0c-1.3,1.9-2.2,2.4-3.1,2.4a1.6,1.6,0,0,1-1.6-1.9c0-2.3,2.4-5.3,4.5-5.3a1.2,1.2,0,0,1,1.2.9h0l0.2-.7h1.1c0,0.2-1.5,5.6-1.5,6.1a0.2,0.2,0,0,0,.2.2,3.8,3.8,0,0,0,1.3-1.1Zm-5,1c1.7,0,3.2-3.4,3.2-5a0.9,0.9,0,0,0-.9-1.1c-1.8,0-3.3,3.5-3.3,4.9A1,1,0,0,0,43.1,139.3Z"/><path class="a" d="M56,138.3c-0.8,1.1-1.3,1.8-2.2,1.8s-0.8-.5-0.8-0.9,1.2-4.2,1.2-4.9a0.4,0.4,0,0,0-.4-0.5c-0.8,0-1.8,1.4-2.3,2.2a12.5,12.5,0,0,0-1.6,3.9H48.7c0.5-1.8,1.6-5.5,1.6-5.8s-0.2-.4-1-0.4v-0.3l2.6-.5h0l-1,3.3h0c0.7-1.2,2.2-3.4,3.5-3.4a1,1,0,0,1,1.1,1c0,0.7-1.3,4.6-1.3,5.1a0.3,0.3,0,0,0,.3.3,2.9,2.9,0,0,0,1.3-1.2Z"/><path class="a" d="M62.2,138.4a3.7,3.7,0,0,1-3,1.7c-1,0-2.3-.4-2.3-2.5a4.9,4.9,0,0,1,4.5-4.7c1.3,0,1.7.8,1.7,1.3a0.7,0.7,0,0,1-.7.7,0.6,0.6,0,0,1-.6-0.6,5.2,5.2,0,0,1,.2-0.8c0-.2-0.3-0.3-0.6-0.3-2.1,0-3.2,2.8-3.2,4.3s0.5,1.9,1.4,1.9a3.2,3.2,0,0,0,2.3-1.3Z"/><path class="a" d="M69.3,138.4a4.9,4.9,0,0,1-3.2,1.7,2.1,2.1,0,0,1-2.2-2.2c0-2.3,2.5-4.9,4.7-4.9a1.1,1.1,0,0,1,1.3,1.1c0,1.3-1.5,2.5-4,2.9H65.4a4.3,4.3,0,0,0-.2,1,1.4,1.4,0,0,0,1.5,1.4,3.8,3.8,0,0,0,2.3-1.2Zm-3.7-1.8c3.3-.7,3.3-2.6,3.3-2.7a0.6,0.6,0,0,0-.6-0.6c-0.9,0-1.9,1.2-2.5,2.6Z"/><path class="a" d="M84.4,132.5A2.4,2.4,0,0,0,82,130c-3.2,0-4.8,3.8-4.8,6.2s0.9,3.4,2.8,3.4a5.1,5.1,0,0,0,3.7-1.9l0.3,0.2a5.7,5.7,0,0,1-4.3,2.4,4,4,0,0,1-4.1-4.3c0-3.1,2.8-6.5,6.4-6.5a16.8,16.8,0,0,1,2.5.4,0.6,0.6,0,0,0,.6-0.3h0.3l-0.6,3.1H84.4Z"/><path class="a" d="M92.4,135.3c0,1.9-2.2,4.8-4.6,4.8a2.1,2.1,0,0,1-2.4-2.3c0-2.3,2.3-4.9,4.7-4.9A2.1,2.1,0,0,1,92.4,135.3Zm-5.6,3a1.3,1.3,0,0,0,1.3,1.5c1.8,0,3.1-3.3,3.1-5a1.3,1.3,0,0,0-1.1-1.5C88.2,133.3,86.7,136.4,86.7,138.3Z"/><path class="a" d="M104,138.3h-0.1c-0.6.8-1.4,1.7-2.2,1.7a0.6,0.6,0,0,1-.7-0.8c0-.4,1.2-4.8,1.2-5.2a0.3,0.3,0,0,0-.3-0.4c-0.6,0-1.8,1.4-2.3,2.2a12.5,12.5,0,0,0-1.5,4H97c0.4-1.5,1.5-5.4,1.5-5.7s-0.2-.4-0.3-0.4-1.9,1.6-2.3,2.2a14.5,14.5,0,0,0-1.5,3.9H93.1c0.3-1,1.6-5.5,1.6-5.9s-0.2-.4-1-0.4v-0.3l2.5-.5h0l-0.9,3.2h0c0.5-.8,2.1-3.2,3.4-3.2a0.9,0.9,0,0,1,.9,1,15.4,15.4,0,0,1-.6,2.2h0c1.1-1.8,2.4-3.2,3.4-3.2a0.9,0.9,0,0,1,.9,1.1c0,0.5-1.3,4.8-1.3,5s0,0.3.2,0.3a3.1,3.1,0,0,0,1.3-1.2Z"/><path class="a" d="M105.1,133.3l2.5-.3s0.1,0,0,.2l-0.4,1.5h0a3.4,3.4,0,0,1,2.6-1.7,1.8,1.8,0,0,1,1.9,2.1c0,2.5-2.5,5.1-4.7,5.1l-1.1-.3a26.1,26.1,0,0,0-.6,2.6c0,0.5.6,0.5,1,.5v0.2h-3.2v-0.3a0.9,0.9,0,0,0,1.1-.9c0.4-1.8,2-7.7,2-8a0.6,0.6,0,0,0-.7-0.5h-0.4v-0.3Zm4.1,0.3a2.6,2.6,0,0,0-2.1,1.8,18.3,18.3,0,0,0-1,3.8,0.7,0.7,0,0,0,.8.6c1.9,0,3.4-2.9,3.4-4.8A1.1,1.1,0,0,0,109.2,133.6Z"/><path class="a" d="M119.7,138.4c-0.9,1.2-1.5,1.7-2.2,1.7a0.6,0.6,0,0,1-.7-0.7,6.9,6.9,0,0,1,.3-1.7h0c-1.3,1.9-2.2,2.4-3.1,2.4a1.6,1.6,0,0,1-1.6-1.9c0-2.3,2.4-5.3,4.5-5.3a1.2,1.2,0,0,1,1.3.9h0l0.2-.7h1.1c0,0.2-1.5,5.6-1.5,6.1a0.2,0.2,0,0,0,.2.2,3.8,3.8,0,0,0,1.3-1.1Zm-5,1c1.7,0,3.2-3.4,3.2-5a0.9,0.9,0,0,0-.9-1.1c-1.9,0-3.3,3.5-3.3,4.9A1,1,0,0,0,114.7,139.3Z"/><path class="a" d="M127.6,138.3c-0.8,1.1-1.3,1.8-2.2,1.8s-0.8-.5-0.8-0.9,1.2-4.2,1.2-4.9a0.4,0.4,0,0,0-.4-0.5c-0.8,0-1.8,1.4-2.3,2.2a12.4,12.4,0,0,0-1.6,3.9h-1.2c0.5-1.8,1.6-5.5,1.6-5.8s-0.2-.4-1-0.4v-0.3l2.6-.5h0l-1,3.3h0c0.7-1.2,2.2-3.4,3.5-3.4a1,1,0,0,1,1.1,1c0,0.7-1.3,4.6-1.3,5.1a0.3,0.3,0,0,0,.3.3,2.9,2.9,0,0,0,1.3-1.2Z"/><path class="a" d="M128.3,133.3l2.3-.4a15,15,0,0,1,1.3,4l0.3,1.8c0.7-1.1,1.9-3.2,1.9-4.1s-0.9-.5-0.9-1.2a0.6,0.6,0,0,1,.6-0.6,0.9,0.9,0,0,1,.9,1c0,1.9-4.4,9.3-6.3,9.3a0.7,0.7,0,0,1-.8-0.7,0.6,0.6,0,0,1,.6-0.6,4.7,4.7,0,0,1,1,.4,1.5,1.5,0,0,0,1-.8,4.1,4.1,0,0,0,1.1-1.7,29.7,29.7,0,0,0-.9-4.2c-0.4-1.4-.6-2.1-1.5-2.1h-0.5v-0.3Z"/><path class="a" d="M53.3,22H95.8V19.6h0c-1.2,0-1,2-2.2,2s0-2-1.2-2-1.3,2-2.5,2-0.4-2-1.6-2-1,2-2.2,2-1.2-2-2.3-2-1.2,2-2.3,2-1.2-2-2.4-2-1.2,2-2.3,2-1.2-2-2.3-2-1.2,2-2.3,2-1.2-2-2.4-2-1.2,2-2.3,2-1.2-2-2.4-2-0.9,2-2.1,2-1.5-2-2.6-2-0.4,2-1.6,2-1.3-2-2.5-2,0,2-1.1,2-0.7-2-1.8-2h0V22Z"/><polygon class="a" points="95.8 23.5 95.8 22.8 53.3 22.8 53.3 22.8 53.3 23.5 95.8 23.5"/><rect class="a" x="58.6" y="24.2" width="32" height="2"/><rect class="a" x="69.7" y="29.7" width="9.6" height="1.9"/><path class="a" d="M62.9,27v0.7S64.1,28.6,69,29H80c4.9-.4,6.2-1.4,6.2-1.4V27H62.9Z"/><path class="a" d="M69.9,16.4h9.5c3.3-1.8,6.4-9-.7-13.6-5-3.2-17.3.6-28.6-1.1a12.2,12.2,0,0,0,5.2,2.4c-5.7,1.2-17.1,2.3-31.7.2,1.2-.1,9.8,5.2,20.3,5.6C61.5,10.6,66.8,16.7,69.9,16.4Z"/></svg>