<svg xmlns="http://www.w3.org/2000/svg" xmlns:xlink="http://www.w3.org/1999/xlink" width="2in" height="2in" viewBox="0 0 144 144.3"><defs><style>.a{stroke:#000;stroke-width:0.59px;fill:url(#a);}.b{fill:#155184;}.c,.d,.e,.f,.g,.h,.j,.k,.n,.q,.r{stroke:#231f20;}.c,.d,.e,.f,.g,.h,.j,.k,.l,.m,.o,.p,.q,.r{stroke-width:0.51px;}.c{fill:url(#b);}.d{fill:url(#c);}.e{fill:url(#d);}.f{fill:url(#e);}.g{fill:url(#f);}.h{fill:url(#g);}.i{fill:#fcebe5;}.j{fill:url(#h);}.k{fill:url(#i);}.l,.m,.n,.o,.p{fill:none;}.l{stroke:#4d4d4d;}.m{stroke:#333;}.n{stroke-width:0.4px;}.o{stroke:gray;}.p{stroke:#999;}.q{fill:url(#j);}.r{fill:url(#k);}</style><linearGradient id="a" x1="-16.71" y1="177.64" x2="83.23" y2="103.54" gradientTransform="translate(44 -56.9) scale(0.85)" gradientUnits="userSpaceOnUse"><stop offset="0" stop-color="#e03a3e"/><stop offset="0.06" stop-color="#e03d40"/><stop offset="0.11" stop-color="#e24748"/><stop offset="0.16" stop-color="#e45856"/><stop offset="0.2" stop-color="#e87068"/><stop offset="0.24" stop-color="#ec8e80"/><stop offset="0.26" stop-color="#ee9a89"/><stop offset="0.3" stop-color="#ea7f74"/><stop offset="0.38" stop-color="#e55a57"/><stop offset="0.44" stop-color="#e14245"/><stop offset="0.48" stop-color="#e03a3e"/><stop offset="0.51" stop-color="#e14143"/><stop offset="0.56" stop-color="#e45452"/><stop offset="0.62" stop-color="#e8736b"/><stop offset="0.67" stop-color="#ee9a89"/><stop offset="0.7" stop-color="#ec8b7d"/><stop offset="0.74" stop-color="#e86e66"/><stop offset="0.8" stop-color="#e45755"/><stop offset="0.85" stop-color="#e24748"/><stop offset="0.92" stop-color="#e03d40"/><stop offset="1" stop-color="#e03a3e"/></linearGradient><linearGradient id="b" x1="29.32" y1="141.94" x2="40.24" y2="141.94" gradientTransform="translate(44 -56.9) scale(0.85)" gradientUnits="userSpaceOnUse"><stop offset="0" stop-color="#fff"/><stop offset="0.09" stop-color="#f3f3f3"/><stop offset="0.25" stop-color="#d1d1d1"/><stop offset="0.47" stop-color="#9c9c9c"/><stop offset="0.73" stop-color="#515151"/><stop offset="1"/></linearGradient><linearGradient id="c" x1="-4102.05" y1="-3310.45" x2="-4051.31" y2="-3310.45" gradientTransform="translate(1949 1549.2) scale(0.46)" xlink:href="#b"/><linearGradient id="d" x1="-4088.84" y1="-3307.15" x2="-4064.52" y2="-3307.15" gradientTransform="translate(1949 1549.2) scale(0.46)" xlink:href="#b"/><linearGradient id="e" x1="-4111.4" y1="-3316.21" x2="-4041.95" y2="-3316.21" gradientTransform="translate(1949 1549.2) scale(0.46)" xlink:href="#b"/><linearGradient id="f" x1="-4122.74" y1="-3320.85" x2="-4030.61" y2="-3320.85" gradientTransform="translate(1949 1549.2) scale(0.46)" xlink:href="#b"/><radialGradient id="g" cx="33.65" cy="78.88" r="37.78" gradientTransform="translate(44 -56.9) scale(0.85)" gradientUnits="userSpaceOnUse"><stop offset="0" stop-color="#faddd3"/><stop offset="0.31" stop-color="#f8d2c7"/><stop offset="0.87" stop-color="#f2b4a6"/><stop offset="1" stop-color="#f1ac9d"/></radialGradient><linearGradient id="h" x1="-4087.27" y1="-3328.07" x2="-4066.03" y2="-3328.07" gradientTransform="translate(1949 1549.2) scale(0.46)" xlink:href="#b"/><linearGradient id="i" x1="-4122.77" y1="-3325.49" x2="-4030.58" y2="-3325.49" gradientTransform="translate(1949 1549.2) scale(0.46)" xlink:href="#b"/><linearGradient id="j" x1="-4087.29" y1="-3304.28" x2="-4066.06" y2="-3304.28" gradientTransform="translate(1949 1549.2) scale(0.46)" xlink:href="#b"/><radialGradient id="k" cx="-4076.7" cy="-3155.36" r="5.95" gradientTransform="translate(1949 1549.2) scale(0.46)" gradientUnits="userSpaceOnUse"><stop offset="0" stop-color="#fff"/><stop offset="0.15" stop-color="#fcfcfc"/><stop offset="0.28" stop-color="#f1f1f1"/><stop offset="0.4" stop-color="#e0e0e0"/><stop offset="0.52" stop-color="#c7c7c7"/><stop offset="0.63" stop-color="#a7a7a7"/><stop offset="0.74" stop-color="#818181"/><stop offset="0.85" stop-color="#525252"/><stop offset="0.95" stop-color="#1e1e1e"/><stop offset="1"/></radialGradient></defs><title>AmFirst CDN Logos</title><path d="M116.5,34.2H49.4L36.5,81.8a13,13,0,0,1-1,2.9,3.1,3.1,0,0,1-1.2,1.2,4.9,4.9,0,0,1-2.2.4v8.4H50.7V86.2L48,86a2,2,0,0,1-1.1-.8,2.4,2.4,0,0,1-.3-1.3,14.1,14.1,0,0,1,.5-2.5l3.4-12.6h8.2V81.4c0,0.9.1,2.8-1,3.8a2.3,2.3,0,0,1-1.5.8H54v8.4H96.6V86.2H94.9a4.7,4.7,0,0,1-2.3-.4,8.5,8.5,0,0,1-.9-1.2c-0.3-.3-0.3-1.6-0.3-3.1V69h2.3a6.3,6.3,0,0,1,3.4.7,7.8,7.8,0,0,1,1.4,1.5h4.9V57.8H98a3.4,3.4,0,0,1-.8,1.6,7.7,7.7,0,0,1-3.3.6H91.5v-16h10.9a22.9,22.9,0,0,1,4.5.3,5.7,5.7,0,0,1,4.2,4h5.3V34.2ZM58.6,44.1V60H52.7l4.2-16h1.6Z"/><path class="a" d="M114.8,32.5H47.7L34.8,80.1a13,13,0,0,1-1,2.9,3.1,3.1,0,0,1-1.2,1.2,4.9,4.9,0,0,1-2.3.4v8.4H49.1V84.5l-2.8-.2a2,2,0,0,1-1.1-.8,2.3,2.3,0,0,1-.3-1.3,14,14,0,0,1,.5-2.5l3.4-12.6h8.2V79.7c0,0.9.2,2.8-.9,3.8a2.5,2.5,0,0,1-1.5.9H52.3v8.4H94.9V84.5H93.2a4.7,4.7,0,0,1-2.3-.4,8.5,8.5,0,0,1-.9-1.2c-0.3-.3-0.3-1.6-0.3-3.1V67.3H92a6.3,6.3,0,0,1,3.4.7,7.9,7.9,0,0,1,1.4,1.5h4.9V56.1H96.3a3.3,3.3,0,0,1-.8,1.6,7.7,7.7,0,0,1-3.3.7H89.8v-16h10.9a22.8,22.8,0,0,1,4.5.3,5.6,5.6,0,0,1,4.2,4h5.3V32.5ZM56.9,42.4v16H51l4.2-16h1.6Z"/><polygon class="b" points="31.9 4.9 35.6 7.6 39.4 4.9 37.9 9.3 41.7 12.1 37 12.1 35.6 16.5 34.2 12 29.5 12 33.3 9.3 31.9 4.9"/><polygon class="c" points="75.5 96.8 77.7 29.7 69.1 29.7 71.3 96.8 75.5 96.8"/><path class="d" d="M73.4,27.3c9.5,0,11.6-1.6,11.6-1.6V24.8H61.8v0.9S63.9,27.3,73.4,27.3Z"/><rect class="e" x="67.9" y="27" width="11" height="1.05"/><rect class="f" x="57.5" y="22" width="31.8" height="2.8"/><rect class="g" x="52.3" y="20.5" width="42.2" height="1.47"/><path class="h" d="M68.6,15.3h9.6c3.4-1.8,6.5-9.1-.7-13.7C72.5-1.7,60,2.2,48.6.5a12.3,12.3,0,0,0,5.3,2.4c-5.8,1.3-17.3,2.3-32,.2,1.2-.1,9.9,5.3,20.5,5.7C60.2,9.4,65.5,15.6,68.6,15.3Z"/><path class="i" d="M70.1,15.3h6.7c3.5-3.1,7-12.3-6.7-14.1,0,0,11.8,3.2,5,10.7,0,0,2.5-5.3-3.2-6.8,3,3.8.8,6.1-.1,6.8S62.7,9.5,57.4,9.5C62.7,10.8,70.1,15.3,70.1,15.3Z"/><rect class="j" x="68.6" y="15.3" width="9.6" height="5.19"/><path class="k" d="M94.5,17.8v2.7H52.3V17.8h0c1.1,0,.7,2,1.8,2s0-2,1.1-2,1.3,2,2.5,2,0.4-2,1.6-2,1.4,2,2.6,2,0.9-2,2.1-2,1.2,2,2.3,2,1.2-2,2.3-2,1.2,2,2.3,2,1.2-2,2.3-2,1.2,2,2.3,2,1.2-2,2.3-2,1.2,2,2.4,2,1.2-2,2.3-2,1.2,2,2.3,2,1-2,2.2-2,0.4,2,1.6,2,1.3-2,2.5-2,0,2,1.2,2,1-2,2.2-2h0Z"/><line class="l" x1="73.4" y1="29.7" x2="73.4" y2="94.8"/><line class="m" x1="75.2" y1="29.7" x2="74.3" y2="94.8"/><line class="n" x1="76.7" y1="29.7" x2="74.9" y2="95"/><line class="o" x1="71.7" y1="29.7" x2="72.6" y2="94.8"/><line class="p" x1="70.2" y1="29.8" x2="72" y2="95"/><rect class="q" x="68.6" y="28.1" width="9.6" height="1.58"/><rect class="r" x="70.8" y="94.8" width="5.3" height="5.27" rx="2.2" ry="2.2"/><polygon class="b" points="14 93.7 18.3 95.4 21.3 91.8 21 96.4 25.4 98.1 20.9 99.3 20.6 103.9 18.1 100 13.6 101.2 16.5 97.6 14 93.7"/><polygon class="b" points="7.5 74.9 11.1 77.8 15 75.2 13.4 79.6 17 82.5 12.4 82.3 10.8 86.6 9.5 82.2 4.9 82 8.8 79.4 7.5 74.9"/><polygon class="b" points="7 53.5 9.5 57.4 14 56.2 11.1 59.8 13.7 63.7 9.3 62 6.4 65.7 6.6 61 2.3 59.4 6.8 58.2 7 53.5"/><polygon class="b" points="131.6 33.4 133.3 37.8 137.9 37.6 134.3 40.5 135.9 44.8 132 42.3 128.4 45.2 129.6 40.7 125.8 38.1 130.4 37.9 131.6 33.4"/><polygon class="b" points="6.8 37.6 11.4 37.8 13.1 33.5 14.3 37.9 18.9 38.1 15.1 40.7 16.3 45.2 12.7 42.3 8.8 44.8 10.4 40.5 6.8 37.6"/><polygon class="b" points="17.2 19 21.6 20.6 24.4 16.9 24.3 21.5 28.6 23.1 24.2 24.4 24 29.1 21.4 25.2 16.9 26.5 19.8 22.8 17.2 19"/><polygon class="b" points="123.4 91.8 126.4 95.4 130.7 93.7 128.2 97.6 131.1 101.2 126.6 100 124.1 103.9 123.8 99.3 119.3 98.1 123.7 96.4 123.4 91.8"/><polygon class="b" points="129.7 75.2 133.5 77.8 137.2 74.9 135.9 79.4 139.8 82 135.2 82.2 133.9 86.6 132.3 82.3 127.6 82.5 131.3 79.6 129.7 75.2"/><polygon class="b" points="137.7 53.5 137.9 58.2 142.4 59.4 138 61.1 138.2 65.7 135.4 62.1 131 63.7 133.6 59.8 130.7 56.2 135.1 57.4 137.7 53.5"/><polygon class="b" points="120.2 16.9 123.1 20.5 127.5 18.9 124.9 22.8 127.7 26.5 123.3 25.2 120.7 29 120.5 24.4 116 23.1 120.4 21.5 120.2 16.9"/><polygon class="b" points="105.3 4.9 109.1 7.6 112.8 4.9 111.4 9.3 115.2 12 110.6 12 109.2 16.5 107.7 12.1 103 12.1 106.8 9.3 105.3 4.9"/><path d="M15,124.8V124c1.4-.3,2-1.3,2.7-2.5L29,103.7h0.8l3.1,18.5a4.4,4.4,0,0,0,.4,1.1l0.5,0.5a4.2,4.2,0,0,0,1.5.2v0.8H26V124a4,4,0,0,0,1.6-.3,1.4,1.4,0,0,0,.8-1.6l-0.5-3.8H21.3L19.2,122a2.5,2.5,0,0,0-.2.9c0,1.1,1.2,1,2,1.1v0.8H15Zm7-7.6h5.7l-1.1-7.5Z"/><path d="M36.3,124.8l3.1-11.9c0.2-.8-1-0.8-1.7-0.7v-0.8a60.7,60.7,0,0,0,6.2-.8l-1.7,5.7h0.1c1.3-2.2,3.6-5.8,6.5-5.8s2.5,1.7,1.3,5h0.1c1.1-1.8,3.2-5.1,5.7-5.1s3.5,0.3,2.3,4.2l-2.4,7.9c-0.2.7,1.1,0.8,2.6-1.9l0.7,0.4c-1,1.9-2.6,4.1-4.9,4.1A2.3,2.3,0,0,1,52,122l2.5-7.7c0.2-.7.4-1.5-0.6-1.5s-3.2,3.2-3.8,4.3a49.8,49.8,0,0,0-2.7,7.6H43.7l3.2-10.4c0.4-1.6,0-2-.9-1.4s-2.7,2.6-4.1,6a43.5,43.5,0,0,0-1.8,5.8H36.3Z"/><path d="M59.5,124.8V124a3.5,3.5,0,0,0,1.5-.4,3.7,3.7,0,0,0,1.1-2.2l4-15.1c0-1.5-1.1-1.2-2.2-1.4v-0.8H80.2L78.9,110l-0.8-.2c0.1-3-1.3-4.7-5.4-4.7a2.3,2.3,0,0,0-1.6.4,3,3,0,0,0-.6,1.4l-1.8,6.5c3.2-.1,4.7-0.1,6.1-3.3h0.9l-2.3,8.4-0.8-.2a5.9,5.9,0,0,0-.2-2.9c-0.6-1.2-2.8-1.2-3.9-1.2l-2.1,8a1.1,1.1,0,0,0,.7,1.3,3.7,3.7,0,0,0,1.5.3v0.8H59.5Z"/><path d="M83,121.8a2.1,2.1,0,0,0,0,1c0.2,0.2.4,0.3,1,0a11.5,11.5,0,0,0,1.8-2.3l0.7,0.4c-1.3,2-2.6,4.3-5.2,4.3-1.1,0-2.6-.8-1.9-3.3l2.2-7.9c0.4-1.6-.1-1.7-1.7-1.8v-0.8l6.2-.8Zm0.1-16a2.2,2.2,0,0,1,2.1-2.1,2.1,2.1,0,0,1,2.1,2.1A2.1,2.1,0,1,1,83.1,105.7Z"/><path d="M87.4,124.8l2.9-10.4c0.3-1.2.3-1.8,0-2.1a2.1,2.1,0,0,0-1.4-.2v-0.8l6.2-.8L93.3,116h0.2c0.7-1.6,2.7-5.6,4.8-5.6a1.8,1.8,0,0,1,1.8,1.9c0,1.1-.5,2.4-1.8,2.4s-1-.3-1.6-1.1a0.6,0.6,0,0,0-.6,0c-2.8,3.1-3.5,7.3-4.9,11.1H87.4Z"/><path d="M99.7,125.2l0.7-5.1h0.8c0,1.5,1.1,4.1,2.9,4.1a1.7,1.7,0,0,0,1.8-1.7c0-1.2-1.4-2.7-2.1-3.6s-2.1-2.7-2.1-4.6a3.6,3.6,0,0,1,2.9-3.8h1.8l1.7,0.6a1,1,0,0,0,1.4-.6h0.9l-0.7,4.7H109c-0.1-1.5-1-3.7-2.7-3.7a1.7,1.7,0,0,0-1.3,2.8l2.4,3.2a6.4,6.4,0,0,1,1.5,3.6c0,1.4-.7,4.2-4.6,4.2a13.8,13.8,0,0,1-3-.6,0.9,0.9,0,0,0-.8.6H99.7Z"/><path d="M114.7,112.1h-1.6V111a11.3,11.3,0,0,0,5.6-4.7h1.1l-1.2,4.5h2.2v1.3h-2.6l-2.6,9.7c-0.2.7-.1,1.4,0.4,1.2a7.2,7.2,0,0,0,2.3-2.5l0.7,0.4c-1.2,2-2.7,4.2-5.3,4.2-0.9,0-2.9-.4-1.3-4.9Z"/><path d="M0,140.5a1.3,1.3,0,0,0,1.4-1.3l2.1-7.6a4.1,4.1,0,0,0,.2-1.1c0-.6-0.5-0.7-1.2-0.7v-0.3H6.7v0.3a1.3,1.3,0,0,0-1.4,1.3l-2.1,7.6a3.7,3.7,0,0,0-.2,1.1c0,0.5.4,0.6,1.2,0.7v0.3H0v-0.3Z"/><path d="M13.9,139c-0.9,1.1-1.5,1.9-2.4,1.9s-0.8-.5-0.8-1,1.3-4.6,1.3-5.3a0.4,0.4,0,0,0-.4-0.5c-0.8,0-1.9,1.5-2.5,2.4a13.4,13.4,0,0,0-1.7,4.2H6.1c0.5-1.9,1.7-5.9,1.7-6.3s-0.2-.4-1.1-0.4v-0.3l2.8-.5H9.5l-1.1,3.6h0c0.8-1.3,2.4-3.6,3.8-3.6a1,1,0,0,1,1.2,1.1c0,0.7-1.4,5-1.4,5.5a0.3,0.3,0,0,0,.3.3c0.3,0,.8-0.5,1.4-1.4Z"/><path d="M15.3,138.3c0.1,0.8.4,2.3,1.8,2.3a1.2,1.2,0,0,0,1.2-1.4c0-1.1-2-2.8-2-4.1a1.8,1.8,0,0,1,2.1-1.9c0.8,0,1.1.3,1.6,0.3a0.5,0.5,0,0,0,.5-0.3h0.2l-0.3,2.4H20c-0.1-1-.5-2-1.6-2a0.9,0.9,0,0,0-.9,1c0,1.1,2.1,2.6,2.1,4.1A2.3,2.3,0,0,1,17,141l-1.7-.3a0.5,0.5,0,0,0-.4.4H14.7l0.3-2.7h0.3Z"/><path d="M29.1,138.9c-1.1,1.6-1.5,2-2.4,2a0.8,0.8,0,0,1-.8-0.9,24,24,0,0,1,.7-3.1H26.7c-1.2,1.9-2.4,4.1-4,4.1a0.8,0.8,0,0,1-.9-1c0-.8,1.3-5.1,1.3-5.5s-0.3-.5-1-0.5v-0.2l2.6-.5h0.1l-1.6,6.2a0.4,0.4,0,0,0,.4.6c0.7,0,1.8-1.6,2.4-2.5a17.9,17.9,0,0,0,1.9-4.2H29l-1.4,5.1a8.1,8.1,0,0,0-.3,1.4,0.2,0.2,0,0,0,.2.3,3.4,3.4,0,0,0,1.4-1.4Z"/><path d="M30.3,140.8l1.4-5a8.2,8.2,0,0,0,.3-1.4,0.5,0.5,0,0,0-.6-0.5H30.8v-0.3l2.6-.5h0.1l-0.8,3.4h0v-0.3c0.6-1.1,1.9-3.1,2.9-3.1a0.8,0.8,0,0,1,.8.8,0.7,0.7,0,0,1-.8.9c-0.7,0-.5-0.6-0.9-0.6s-1.6,1.9-1.7,2.2a21.3,21.3,0,0,0-1.6,4.3H30.3Z"/><path d="M44.4,139.1c-1,1.3-1.6,1.9-2.3,1.9a0.6,0.6,0,0,1-.7-0.7,7.4,7.4,0,0,1,.4-1.8h0c-1.4,2.1-2.3,2.6-3.4,2.6a1.7,1.7,0,0,1-1.8-2c0-2.5,2.6-5.7,4.9-5.7a1.3,1.3,0,0,1,1.3.9h0l0.2-.8h1.2c-0.1.2-1.6,6-1.6,6.6a0.2,0.2,0,0,0,.2.2,4.1,4.1,0,0,0,1.4-1.2ZM39,140.1c1.8,0,3.5-3.7,3.5-5.4a1,1,0,0,0-1-1.1c-2,0-3.5,3.8-3.5,5.3A1.1,1.1,0,0,0,39,140.1Z"/><path d="M52.9,139c-0.9,1.1-1.5,1.9-2.4,1.9s-0.8-.5-0.8-1,1.3-4.6,1.3-5.3a0.4,0.4,0,0,0-.4-0.5c-0.8,0-1.9,1.5-2.5,2.4a13.5,13.5,0,0,0-1.7,4.2H45c0.5-1.9,1.7-5.9,1.7-6.3s-0.2-.4-1.1-0.4v-0.3l2.8-.5h0.1l-1.1,3.6h0c0.8-1.3,2.4-3.6,3.8-3.6a1,1,0,0,1,1.2,1.1c0,0.7-1.4,5-1.4,5.5a0.3,0.3,0,0,0,.3.3c0.3,0,.8-0.5,1.4-1.4Z"/><path d="M59.6,139.2a4,4,0,0,1-3.2,1.8c-1.1,0-2.5-.4-2.5-2.7a5.3,5.3,0,0,1,4.9-5c1.4,0,1.9.9,1.9,1.4a0.8,0.8,0,0,1-.8.8,0.6,0.6,0,0,1-.7-0.6,5.7,5.7,0,0,1,.3-0.8c0-.3-0.3-0.3-0.6-0.3-2.2,0-3.4,3-3.4,4.7s0.5,2.1,1.6,2.1a3.5,3.5,0,0,0,2.4-1.4Z"/><path d="M67.2,139.1a5.2,5.2,0,0,1-3.5,1.8,2.2,2.2,0,0,1-2.3-2.4c0-2.4,2.7-5.3,5.1-5.3a1.2,1.2,0,0,1,1.4,1.2c0,1.4-1.6,2.7-4.4,3.1H63.1a4.6,4.6,0,0,0-.2,1,1.5,1.5,0,0,0,1.6,1.6,4.1,4.1,0,0,0,2.5-1.3Zm-4-1.9c3.5-.7,3.6-2.8,3.6-2.9a0.6,0.6,0,0,0-.6-0.7c-0.9,0-2.1,1.3-2.7,2.8Z"/><path d="M83.6,132.8A2.6,2.6,0,0,0,81,130c-3.4,0-5.2,4.1-5.2,6.7s0.9,3.7,3,3.7a5.5,5.5,0,0,0,3.9-2l0.3,0.2a6.1,6.1,0,0,1-4.6,2.5,4.3,4.3,0,0,1-4.5-4.6c0-3.3,3-7.1,6.9-7.1a18.1,18.1,0,0,1,2.7.4,0.6,0.6,0,0,0,.7-0.4h0.4l-0.6,3.4H83.6Z"/><path d="M92.2,135.8c0,2.1-2.3,5.2-5,5.2a2.3,2.3,0,0,1-2.6-2.5c0-2.5,2.5-5.3,5-5.3A2.3,2.3,0,0,1,92.2,135.8ZM86.1,139a1.4,1.4,0,0,0,1.4,1.6c2,0,3.3-3.5,3.3-5.4s-0.4-1.6-1.2-1.6S86.1,137,86.1,139Z"/><path d="M104.8,139h-0.1c-0.6.9-1.5,1.8-2.4,1.8a0.7,0.7,0,0,1-.7-0.8c0-.5,1.3-5.2,1.3-5.6a0.4,0.4,0,0,0-.4-0.4c-0.7,0-1.9,1.5-2.5,2.3a13.5,13.5,0,0,0-1.6,4.3H97.2c0.4-1.7,1.6-5.9,1.6-6.2s-0.2-.5-0.4-0.5-2.1,1.7-2.5,2.4a15.6,15.6,0,0,0-1.7,4.2H92.9c0.3-1.1,1.7-5.9,1.7-6.3s-0.3-.4-1.1-0.4v-0.3l2.7-.5h0.1l-1,3.4h0c0.5-.8,2.3-3.5,3.7-3.5a1,1,0,0,1,1,1.1,16.7,16.7,0,0,1-.6,2.3h0c1.2-2,2.6-3.5,3.7-3.5a1,1,0,0,1,1,1.1c0,0.6-1.4,5.2-1.4,5.4s0.1,0.3.3,0.3a3.3,3.3,0,0,0,1.4-1.4Z"/><path d="M106,133.6l2.6-.4c0.1,0,.1,0,0.1.2l-0.5,1.6h0a3.7,3.7,0,0,1,2.8-1.8c1.5,0,2,1,2,2.2s-2.7,5.5-5.1,5.5a2.3,2.3,0,0,1-1.2-.3,28.3,28.3,0,0,0-.6,2.8c0,0.5.7,0.5,1.1,0.5v0.3h-3.5V144a1,1,0,0,0,1.1-1c0.5-1.9,2.2-8.3,2.2-8.6a0.6,0.6,0,0,0-.7-0.5H106v-0.3Zm4.4,0.4a2.8,2.8,0,0,0-2.2,1.9,19.7,19.7,0,0,0-1.1,4.1,0.7,0.7,0,0,0,.9.6c2.1,0,3.6-3.2,3.6-5.2A1.2,1.2,0,0,0,110.4,134Z"/><path d="M121.8,139.1c-1,1.3-1.6,1.9-2.3,1.9a0.6,0.6,0,0,1-.7-0.7,7.4,7.4,0,0,1,.4-1.8h0c-1.4,2.1-2.3,2.6-3.4,2.6a1.7,1.7,0,0,1-1.8-2c0-2.5,2.6-5.7,4.9-5.7a1.3,1.3,0,0,1,1.4.9h0l0.2-.8h1.2c-0.1.2-1.6,6-1.6,6.6a0.2,0.2,0,0,0,.2.2,4.1,4.1,0,0,0,1.4-1.2Zm-5.4,1.1c1.8,0,3.5-3.7,3.5-5.4a1,1,0,0,0-1-1.1c-2,0-3.5,3.8-3.5,5.3A1.1,1.1,0,0,0,116.4,140.1Z"/><path d="M130.3,139c-0.9,1.1-1.5,1.9-2.4,1.9s-0.8-.5-0.8-1,1.3-4.6,1.3-5.3a0.4,0.4,0,0,0-.4-0.5c-0.8,0-1.9,1.5-2.5,2.4a13.4,13.4,0,0,0-1.7,4.2h-1.3c0.5-1.9,1.7-5.9,1.7-6.3s-0.2-.4-1.1-0.4v-0.3l2.8-.5h0.1l-1.1,3.6h0c0.8-1.3,2.4-3.6,3.8-3.6a1,1,0,0,1,1.2,1.1c0,0.7-1.4,5-1.4,5.5a0.3,0.3,0,0,0,.3.3c0.3,0,.8-0.5,1.4-1.4Z"/><path d="M131,133.7l2.5-.4c0.2,0,1.2,3,1.5,4.3l0.3,2c0.7-1.2,2.1-3.5,2.1-4.4s-0.9-.5-0.9-1.3a0.6,0.6,0,0,1,.6-0.6,0.9,0.9,0,0,1,1,1.1c0,2-4.8,10-6.8,10a0.8,0.8,0,0,1-.9-0.8,0.7,0.7,0,0,1,.7-0.7,5,5,0,0,1,1,.5,1.6,1.6,0,0,0,1.1-.8,4.5,4.5,0,0,0,1.1-1.8,32.1,32.1,0,0,0-1-4.6c-0.5-1.6-.7-2.3-1.7-2.3H131v-0.3Z"/></svg>