<svg id="Layer_1" data-name="Layer 1" xmlns="http://www.w3.org/2000/svg" xmlns:xlink="http://www.w3.org/1999/xlink" viewBox="0 0 144 144.31"><defs><style>.cls-1{fill:#155184;}.cls-2{stroke:#000;stroke-width:0.59px;fill:url(#linear-gradient);}.cls-10,.cls-11,.cls-16,.cls-17,.cls-3,.cls-4,.cls-5,.cls-6,.cls-7,.cls-8{stroke:#231f20;}.cls-10,.cls-11,.cls-12,.cls-13,.cls-14,.cls-15,.cls-16,.cls-17,.cls-3,.cls-4,.cls-5,.cls-6,.cls-7,.cls-8{stroke-width:0.51px;}.cls-3{fill:url(#linear-gradient-2);}.cls-4{fill:url(#linear-gradient-3);}.cls-5{fill:url(#linear-gradient-4);}.cls-6{fill:url(#linear-gradient-5);}.cls-7{fill:url(#linear-gradient-6);}.cls-8{fill:url(#radial-gradient);}.cls-9{fill:#fcebe5;}.cls-10{fill:url(#linear-gradient-7);}.cls-11{fill:url(#linear-gradient-8);}.cls-12,.cls-13,.cls-14,.cls-15{fill:none;}.cls-12{stroke:#4d4d4d;}.cls-13{stroke:#333;}.cls-14{stroke:gray;}.cls-15{stroke:#999;}.cls-16{fill:url(#linear-gradient-9);}.cls-17{fill:url(#radial-gradient-2);}.cls-18{fill:#231f20;}</style><linearGradient id="linear-gradient" x1="-15.53" y1="177.64" x2="84.41" y2="103.54" gradientTransform="translate(43.98 -56.94) scale(0.85)" gradientUnits="userSpaceOnUse"><stop offset="0" stop-color="#e03a3e"/><stop offset="0.06" stop-color="#e03d40"/><stop offset="0.11" stop-color="#e24748"/><stop offset="0.16" stop-color="#e45856"/><stop offset="0.2" stop-color="#e87068"/><stop offset="0.24" stop-color="#ec8e80"/><stop offset="0.26" stop-color="#ee9a89"/><stop offset="0.3" stop-color="#ea7f74"/><stop offset="0.38" stop-color="#e55a57"/><stop offset="0.44" stop-color="#e14245"/><stop offset="0.48" stop-color="#e03a3e"/><stop offset="0.51" stop-color="#e14143"/><stop offset="0.56" stop-color="#e45452"/><stop offset="0.62" stop-color="#e8736b"/><stop offset="0.67" stop-color="#ee9a89"/><stop offset="0.7" stop-color="#ec8b7d"/><stop offset="0.74" stop-color="#e86e66"/><stop offset="0.8" stop-color="#e45755"/><stop offset="0.85" stop-color="#e24748"/><stop offset="0.92" stop-color="#e03d40"/><stop offset="1" stop-color="#e03a3e"/></linearGradient><linearGradient id="linear-gradient-2" x1="30.5" y1="141.94" x2="41.43" y2="141.94" gradientTransform="translate(43.98 -56.94) scale(0.85)" gradientUnits="userSpaceOnUse"><stop offset="0" stop-color="#fff"/><stop offset="0.09" stop-color="#f3f3f3"/><stop offset="0.25" stop-color="#d1d1d1"/><stop offset="0.47" stop-color="#9c9c9c"/><stop offset="0.73" stop-color="#515151"/><stop offset="1"/></linearGradient><linearGradient id="linear-gradient-3" x1="-4099.87" y1="-3310.45" x2="-4049.13" y2="-3310.45" gradientTransform="translate(1949.01 1549.18) scale(0.46)" xlink:href="#linear-gradient-2"/><linearGradient id="linear-gradient-4" x1="-4086.66" y1="-3307.15" x2="-4062.34" y2="-3307.15" gradientTransform="translate(1949.01 1549.18) scale(0.46)" xlink:href="#linear-gradient-2"/><linearGradient id="linear-gradient-5" x1="-4109.22" y1="-3316.21" x2="-4039.78" y2="-3316.21" gradientTransform="translate(1949.01 1549.18) scale(0.46)" xlink:href="#linear-gradient-2"/><linearGradient id="linear-gradient-6" x1="-4120.57" y1="-3320.85" x2="-4028.44" y2="-3320.85" gradientTransform="translate(1949.01 1549.18) scale(0.46)" xlink:href="#linear-gradient-2"/><radialGradient id="radial-gradient" cx="34.83" cy="78.88" r="37.78" gradientTransform="translate(43.98 -56.94) scale(0.85)" gradientUnits="userSpaceOnUse"><stop offset="0" stop-color="#faddd3"/><stop offset="0.31" stop-color="#f8d2c7"/><stop offset="0.87" stop-color="#f2b4a6"/><stop offset="1" stop-color="#f1ac9d"/></radialGradient><linearGradient id="linear-gradient-7" x1="-4085.09" y1="-3328.07" x2="-4063.86" y2="-3328.07" gradientTransform="translate(1949.01 1549.18) scale(0.46)" xlink:href="#linear-gradient-2"/><linearGradient id="linear-gradient-8" x1="-4120.6" y1="-3325.49" x2="-4028.41" y2="-3325.49" gradientTransform="translate(1949.01 1549.18) scale(0.46)" xlink:href="#linear-gradient-2"/><linearGradient id="linear-gradient-9" x1="-4085.12" y1="-3304.28" x2="-4063.88" y2="-3304.28" gradientTransform="translate(1949.01 1549.18) scale(0.46)" xlink:href="#linear-gradient-2"/><radialGradient id="radial-gradient-2" cx="-4074.52" cy="-3155.36" r="5.95" gradientTransform="translate(1949.01 1549.18) scale(0.46)" gradientUnits="userSpaceOnUse"><stop offset="0" stop-color="#fff"/><stop offset="0.15" stop-color="#fcfcfc"/><stop offset="0.28" stop-color="#f1f1f1"/><stop offset="0.4" stop-color="#e0e0e0"/><stop offset="0.52" stop-color="#c7c7c7"/><stop offset="0.63" stop-color="#a7a7a7"/><stop offset="0.74" stop-color="#818181"/><stop offset="0.85" stop-color="#525252"/><stop offset="0.95" stop-color="#1e1e1e"/><stop offset="1"/></radialGradient></defs><title>amfirst-2017</title><polygon class="cls-1" points="39.05 4.91 35.28 7.62 31.54 4.87 32.95 9.3 29.18 12.02 33.82 12.04 35.24 16.46 36.7 12.05 41.34 12.07 37.6 9.32 39.05 4.91"/><polygon class="cls-1" points="20.92 91.79 17.99 95.39 13.66 93.72 16.18 97.62 13.25 101.23 17.74 100.03 20.27 103.94 20.52 99.3 25.01 98.1 20.67 96.43 20.92 91.79"/><polygon class="cls-1" points="13.05 79.58 14.67 75.23 10.8 77.8 7.16 74.92 8.41 79.39 4.54 81.97 9.19 82.16 10.44 86.63 12.05 82.28 16.7 82.47 13.05 79.58"/><polygon class="cls-1" points="6.08 65.67 8.98 62.04 13.33 63.69 10.78 59.8 13.69 56.17 9.2 57.4 6.65 53.51 6.43 58.16 1.95 59.38 6.3 61.03 6.08 65.67"/><polygon class="cls-1" points="129.3 40.7 128.07 45.18 131.7 42.28 135.58 44.84 133.94 40.48 137.57 37.58 132.93 37.8 131.28 33.45 130.06 37.93 125.41 38.15 129.3 40.7"/><polygon class="cls-1" points="8.44 44.84 12.32 42.28 15.95 45.18 14.71 40.7 18.59 38.14 13.95 37.93 12.72 33.45 11.08 37.8 6.44 37.59 10.07 40.49 8.44 44.84"/><polygon class="cls-1" points="24.1 16.89 21.24 20.55 16.87 18.96 19.47 22.81 16.6 26.48 21.07 25.2 23.67 29.05 23.83 24.41 28.3 23.13 23.94 21.54 24.1 16.89"/><polygon class="cls-1" points="130.35 93.72 126.01 95.4 123.08 91.79 123.33 96.43 119 98.11 123.49 99.3 123.74 103.94 126.26 100.04 130.76 101.23 127.83 97.63 130.35 93.72"/><polygon class="cls-1" points="136.84 74.93 133.19 77.81 129.32 75.23 130.94 79.59 127.29 82.48 131.94 82.29 133.55 86.64 134.81 82.17 139.45 81.98 135.58 79.4 136.84 74.93"/><polygon class="cls-1" points="134.8 57.43 130.32 56.19 133.22 59.83 130.66 63.7 135.01 62.07 137.9 65.71 137.7 61.06 142.05 59.43 137.57 58.19 137.37 53.55 134.8 57.43"/><polygon class="cls-1" points="120.15 24.39 120.32 29.04 122.91 25.18 127.38 26.45 124.51 22.8 127.11 18.94 122.74 20.54 119.87 16.88 120.04 21.52 115.68 23.12 120.15 24.39"/><polygon class="cls-1" points="112.47 4.87 108.74 7.63 104.96 4.93 106.43 9.34 102.69 12.1 107.34 12.06 108.81 16.47 110.21 12.04 114.86 12 111.07 9.3 112.47 4.87"/><path d="M117.49,34.15H50.36L37.54,81.75a13,13,0,0,1-1,2.89,3.07,3.07,0,0,1-1.17,1.17,4.91,4.91,0,0,1-2.25.39v8.44H51.75V86.2A12.48,12.48,0,0,1,49,86a2,2,0,0,1-1.11-.82A2.35,2.35,0,0,1,47.51,84,14.1,14.1,0,0,1,48,81.41L51.4,68.84h8.21V81.43c0,.86.13,2.84-1,3.79a2.31,2.31,0,0,1-1.48.84L55,86.2v8.44h42.6V86.2H95.91a4.69,4.69,0,0,1-2.31-.39c-.4-.26-.47-.79-.87-1.18s-.27-1.55-.27-3.07V69h2.28a6.33,6.33,0,0,1,3.36.74,7.84,7.84,0,0,1,1.39,1.5h4.87V57.83H99a3.38,3.38,0,0,1-.83,1.58,7.7,7.7,0,0,1-3.35.65H92.46v-16h10.91a22.85,22.85,0,0,1,4.53.3,5.66,5.66,0,0,1,4.25,4h5.34Zm-57.94,9.9V60H53.68l4.24-16Z"/><path class="cls-2" d="M115.8,32.45H48.67L35.84,80.05a13,13,0,0,1-1,2.89,3.06,3.06,0,0,1-1.17,1.17,4.93,4.93,0,0,1-2.25.39v8.44H50.06V84.5a12.4,12.4,0,0,1-2.78-.17,2,2,0,0,1-1.11-.82,2.34,2.34,0,0,1-.34-1.25,14,14,0,0,1,.48-2.55l3.41-12.57h8.21V79.73c0,.87.2,2.84-.95,3.8a2.55,2.55,0,0,1-1.55.89l-2.1.09v8.44h42.6V84.5H94.21a4.72,4.72,0,0,1-2.31-.39c-.4-.26-.47-.79-.87-1.18s-.27-1.56-.27-3.07V67.27H93a6.34,6.34,0,0,1,3.37.74,7.87,7.87,0,0,1,1.39,1.5h4.87V56.13h-5.4a3.34,3.34,0,0,1-.82,1.58,7.66,7.66,0,0,1-3.34.65H90.76v-16h10.91a22.79,22.79,0,0,1,4.53.3,5.65,5.65,0,0,1,4.25,4h5.34Zm-57.94,9.9v16H52l4.24-16Z"/><polygon class="cls-3" points="76.48 96.75 78.75 29.67 70.07 29.67 72.34 96.75 76.48 96.75"/><path class="cls-4" d="M74.39,27.29c9.47,0,11.59-1.58,11.59-1.58V24.8H62.83v.92S64.92,27.29,74.39,27.29Z"/><rect class="cls-5" x="68.91" y="27.04" width="10.99" height="1.05"/><rect class="cls-6" x="58.53" y="22" width="31.75" height="2.8"/><rect class="cls-7" x="53.31" y="20.52" width="42.19" height="1.47"/><path class="cls-8" d="M69.63,15.35H79.2c3.38-1.84,6.46-9.05-.69-13.73C73.51-1.65,61,2.23,49.64.5a12.31,12.31,0,0,0,5.28,2.44c-5.79,1.25-17.28,2.34-32,.2,1.22-.07,9.9,5.3,20.47,5.66C61.16,9.41,66.52,15.65,69.63,15.35Z"/><path class="cls-9" d="M71.09,15.34h6.72c3.46-3.05,7-12.3-6.72-14.13,0,0,11.84,3.2,5,10.67,0,0,2.45-5.34-3.15-6.81,3,3.75.84,6.13-.13,6.77C71,13,63.71,9.48,58.45,9.52,63.68,10.77,71.09,15.34,71.09,15.34Z"/><rect class="cls-10" x="69.63" y="15.35" width="9.57" height="5.19"/><path class="cls-11" d="M95.5,17.78v2.74H53.31v-2.8c1.15,0,.65,2,1.81,2s0-2,1.12-2,1.31,2,2.48,2,.43-2,1.6-2,1.44,2,2.59,2,.88-2,2.06-2,1.17,2,2.35,2,1.15-2,2.31-2,1.17,2,2.34,2,1.16-2,2.32-2,1.15,2,2.31,2,1.15-2,2.3-2,1.18,2,2.36,2,1.16-2,2.32-2,1.16,2,2.33,2,1-2,2.19-2,.42,2,1.58,2,1.3-2,2.47-2,0,2,1.2,2,1-2,2.19-2Z"/><line class="cls-12" x1="74.43" y1="29.68" x2="74.43" y2="94.84"/><line class="cls-13" x1="76.17" y1="29.67" x2="75.26" y2="94.84"/><line class="cls-13" x1="77.7" y1="29.67" x2="75.87" y2="95.04"/><line class="cls-14" x1="72.66" y1="29.67" x2="73.63" y2="94.84"/><line class="cls-15" x1="71.18" y1="29.78" x2="73.01" y2="95.04"/><rect class="cls-16" x="69.62" y="28.09" width="9.57" height="1.58"/><rect class="cls-17" x="71.76" y="94.85" width="5.27" height="5.27" rx="2.2" ry="2.2"/><path class="cls-18" d="M21.2,124a4,4,0,0,0,1.21-.55,5.71,5.71,0,0,0,1.29-1.61l11-17.93h.77l2.83,17.44a4.53,4.53,0,0,0,.69,2.15,3.05,3.05,0,0,0,1.78.5v.73h-9V124a4.37,4.37,0,0,0,1.8-.42,1.44,1.44,0,0,0,.53-1.33q0-.34-.16-1.64,0-.27-.29-2.22H27.27l-1.73,3.1a4.92,4.92,0,0,0-.31.68,2.07,2.07,0,0,0-.14.71q0,.63.37.8A5.72,5.72,0,0,0,27,124v.73H21.2Zm12.24-6.82-1.09-7.43L28,117.21Z"/><path class="cls-18" d="M41.8,124.76,44.39,115q.23-.86.31-1.21a3.26,3.26,0,0,0,.07-.67q0-.49-.3-.61a5.3,5.3,0,0,0-1.31-.18v-.8q1.87-.12,3.18-.31.85-.12,2.79-.51l-1.78,5.64.1.07a30.31,30.31,0,0,1,2.92-4.05,4.69,4.69,0,0,1,3.38-1.67,1.9,1.9,0,0,1,1.37.53,1.93,1.93,0,0,1,.55,1.46,6.45,6.45,0,0,1-.26,1.66q-.14.53-.39,1.33a23.22,23.22,0,0,1,3-3.36A6.06,6.06,0,0,1,62,110.72a2.73,2.73,0,0,1,2,.67,2.61,2.61,0,0,1,.66,1.9,8.62,8.62,0,0,1-.27,1.86q0,.16-.3,1.17l-1.57,4.84c-.12.27-.22.55-.33.84a2.22,2.22,0,0,0-.15.61.29.29,0,0,0,.17.26.63.63,0,0,0,.31.09q.42,0,1.17-1a14.72,14.72,0,0,0,.88-1.34l.65.43a15.84,15.84,0,0,1-1.86,2.64,3.89,3.89,0,0,1-2.8,1.39,2.56,2.56,0,0,1-1.4-.42,1.5,1.5,0,0,1-.65-1.37,9.09,9.09,0,0,1,.39-2.22q.25-.87.65-2l1.22-4.66c0-.09,0-.19.05-.29a2.06,2.06,0,0,0,0-.29,1.09,1.09,0,0,0-.18-.64.78.78,0,0,0-.63-.26,3.91,3.91,0,0,0-2.61,1.59A18.71,18.71,0,0,0,55,117.82a11,11,0,0,0-.71,1.49q-.35.88-1.78,5.45H48.92l2.62-10q.12-.35.19-.64a2.27,2.27,0,0,0,.07-.55c0-.28-.06-.46-.17-.53a.67.67,0,0,0-.37-.11q-.65,0-1.71,1.36a16.69,16.69,0,0,0-2,3.54,27.49,27.49,0,0,0-1.12,3.25q-.4,1.26-1.07,3.67Z"/><path class="cls-18" d="M64.85,124a3.09,3.09,0,0,0,1.57-.55,3.14,3.14,0,0,0,.82-1.64l3.63-13.68.17-.73a5.37,5.37,0,0,0,.13-1q0-.73-.4-.92a6.2,6.2,0,0,0-1.75-.31v-.79H84.76l-1.26,5.79-.79-.13a5.72,5.72,0,0,0-.68-3.11q-1.13-1.59-4.51-1.59a2.48,2.48,0,0,0-1.37.27,2,2,0,0,0-.59,1.12l-1.75,6.76a11.16,11.16,0,0,0,3.85-.54,6,6,0,0,0,2-2.68l.82.1-2.2,8.34-.81-.15c0-.3.06-.56.08-.78s0-.39,0-.51a2.7,2.7,0,0,0-.77-2.16q-.77-.66-3.29-.66l-1.95,7.45q0,.19-.07.36a1.91,1.91,0,0,0,0,.33,1.19,1.19,0,0,0,.74,1.21,3.71,3.71,0,0,0,1.39.19v.79H64.85Z"/><path class="cls-18" d="M83.52,121.83q.1-.46.3-1.22l1.82-6.85c0-.08,0-.16.05-.24a1.23,1.23,0,0,0,0-.22c0-.41-.12-.66-.38-.76a4.8,4.8,0,0,0-1.37-.19v-.8q.83-.06,2.42-.25t2.24-.32l1.26-.25-2.3,8.68q-.29,1.12-.39,1.55a8.3,8.3,0,0,0-.26,1.43c0,.22,0,.36.14.42a.56.56,0,0,0,.32.1q.45,0,1.11-.79a11.93,11.93,0,0,0,1.17-1.65l.65.43a20.62,20.62,0,0,1-2.21,2.95,3.78,3.78,0,0,1-2.69,1.25,2.27,2.27,0,0,1-1.45-.51,1.89,1.89,0,0,1-.64-1.57A6.28,6.28,0,0,1,83.52,121.83Zm7-17.32a2,2,0,0,1,.58,1.44,2,2,0,0,1-.58,1.45,1.87,1.87,0,0,1-1.4.6,1.89,1.89,0,0,1-1.41-.6,2,2,0,0,1-.58-1.45,2,2,0,0,1,.58-1.44,1.9,1.9,0,0,1,1.41-.6A1.88,1.88,0,0,1,90.48,104.51Z"/><path class="cls-18" d="M90.89,124.76q1.22-4.36,2-7.51a26.85,26.85,0,0,0,.9-4,.71.71,0,0,0-.36-.73,3.31,3.31,0,0,0-1.24-.16v-.8q1.89-.12,3.19-.31.84-.12,2.87-.51l-1.65,5.41.13,0a28.54,28.54,0,0,1,2-3.59q1.34-1.85,2.58-1.85a1.45,1.45,0,0,1,1.28.6,2.28,2.28,0,0,1,.41,1.33,2.84,2.84,0,0,1-.46,1.58,1.43,1.43,0,0,1-1.26.7,1.53,1.53,0,0,1-.67-.15,1.39,1.39,0,0,1-.53-.45l-.27-.36a.87.87,0,0,0-.15-.15.34.34,0,0,0-.21-.06q-.56,0-1.47,1.58a22.14,22.14,0,0,0-1.53,3.22q-.43,1.13-1.07,3.22t-.94,3Z"/><path class="cls-18" d="M103,120.12l.78.06a5.18,5.18,0,0,0,1.11,3.16,2.55,2.55,0,0,0,1.76.91,1.54,1.54,0,0,0,1.2-.49,1.66,1.66,0,0,0,.45-1.16,2.84,2.84,0,0,0-.4-1.34,10.31,10.31,0,0,0-.93-1.41l-1.1-1.41a7.67,7.67,0,0,1-1.23-1.87,5,5,0,0,1-.51-2.14,3.56,3.56,0,0,1,1.11-2.62,4.09,4.09,0,0,1,3-1.1,4.46,4.46,0,0,1,1.64.34,4.18,4.18,0,0,0,1.14.34.73.73,0,0,0,.52-.16,1.53,1.53,0,0,0,.32-.48h.85l-.66,4.66-.78-.07a5.37,5.37,0,0,0-1-2.79,2.13,2.13,0,0,0-1.58-.85,1.43,1.43,0,0,0-1.21.51,1.8,1.8,0,0,0-.39,1.12,2.15,2.15,0,0,0,.28,1,14.29,14.29,0,0,0,1.09,1.57l1.45,1.9a7,7,0,0,1,.85,1.51,4.47,4.47,0,0,1,.38,1.76,3.74,3.74,0,0,1-1.29,3,4.61,4.61,0,0,1-3.14,1.12,4.68,4.68,0,0,1-1.67-.34,5,5,0,0,0-1.08-.34.71.71,0,0,0-.55.21,1.68,1.68,0,0,0-.3.48h-.78Z"/><path class="cls-18" d="M113.75,122.19q.09-.51.38-1.58l2.2-8.28h-1.51v-1a12.14,12.14,0,0,0,2.48-1.34,10.78,10.78,0,0,0,3-3.29h1.07l-1.17,4.42h2.12v1.25h-2.47l-1.91,7.07q-.26.94-.4,1.56a8,8,0,0,0-.25,1.47.38.38,0,0,0,.17.37.63.63,0,0,0,.28.09q.42,0,1.08-.75a10.4,10.4,0,0,0,1.21-1.7l.65.43a18.88,18.88,0,0,1-2.11,2.86,4,4,0,0,1-2.85,1.34,2,2,0,0,1-1.45-.59,2,2,0,0,1-.58-1.5A4.71,4.71,0,0,1,113.75,122.19Z"/><path class="cls-18" d="M4.81,140.51a1.73,1.73,0,0,0,.83-.22,1.92,1.92,0,0,0,.58-1l2.11-7.61c.08-.31.13-.53.16-.65a1.74,1.74,0,0,0,0-.37.6.6,0,0,0-.27-.57,2.35,2.35,0,0,0-.95-.2v-.28h4.26v.28a2.08,2.08,0,0,0-.94.29,2,2,0,0,0-.47,1l-2.11,7.61c-.07.27-.12.49-.16.66a2.42,2.42,0,0,0,0,.39.56.56,0,0,0,.3.56,2.33,2.33,0,0,0,.88.17v.28H4.81Z"/><path class="cls-18" d="M10.61,140.79,12,135.6c.12-.44.19-.71.21-.8a1.45,1.45,0,0,0,0-.3.52.52,0,0,0-.14-.38.78.78,0,0,0-.54-.14h-.2l-.21,0v-.28l.77-.13.5-.1,1.49-.33a.17.17,0,0,1,.07.08l-1.11,3.61a19.88,19.88,0,0,1,1.73-2.33,3.27,3.27,0,0,1,2.18-1.35,1.37,1.37,0,0,1,.64.14,1,1,0,0,1,.51,1,2.24,2.24,0,0,1,0,.42c0,.15-.06.3-.11.47l-1.11,4-.08.31a1.32,1.32,0,0,0,0,.26.44.44,0,0,0,.06.23.2.2,0,0,0,.19.1.77.77,0,0,0,.48-.26,9.44,9.44,0,0,0,.89-1.1l.24.22a10.31,10.31,0,0,1-1.07,1.31,1.92,1.92,0,0,1-1.29.66.91.91,0,0,1-.54-.19.79.79,0,0,1-.26-.68,2.38,2.38,0,0,1,0-.3,2,2,0,0,1,.05-.28l1.07-4.08a5.4,5.4,0,0,0,.11-.55,2.58,2.58,0,0,0,0-.31.62.62,0,0,0-.1-.35.38.38,0,0,0-.34-.15q-.64,0-1.61,1.14a14.33,14.33,0,0,0-1.16,1.62,8.3,8.3,0,0,0-.69,1.42q-.25.69-.8,2.52Z"/><path class="cls-18" d="M19.28,138.29h.28a5.37,5.37,0,0,0,.44,1.49,1.48,1.48,0,0,0,1.38.87,1.15,1.15,0,0,0,.86-.36,1.32,1.32,0,0,0,.35-1,1.75,1.75,0,0,0-.09-.6,2,2,0,0,0-.22-.43l-.7-1q-.63-.94-.79-1.26a2.09,2.09,0,0,1-.24-1,1.82,1.82,0,0,1,.52-1.29,2,2,0,0,1,1.49-.56,3.39,3.39,0,0,1,.94.16,3.17,3.17,0,0,0,.72.16.48.48,0,0,0,.31-.08.85.85,0,0,0,.18-.23H25l-.34,2.38h-.28a3.79,3.79,0,0,0-.33-1.23,1.35,1.35,0,0,0-1.28-.76,1,1,0,0,0-.66.23.81.81,0,0,0-.29.68,1.33,1.33,0,0,0,.13.6,9.16,9.16,0,0,0,.59.92l.6.86a7.6,7.6,0,0,1,.65,1.08,2.14,2.14,0,0,1,.19.91,1.89,1.89,0,0,1-.77,1.53,2.84,2.84,0,0,1-1.84.62,4.9,4.9,0,0,1-1-.14,6.5,6.5,0,0,0-.74-.14.35.35,0,0,0-.25.08.71.71,0,0,0-.15.23h-.28Z"/><path class="cls-18" d="M27.17,134.73l0-.16a.86.86,0,0,0,0-.15c0-.24-.07-.39-.21-.44a2.64,2.64,0,0,0-.8-.08v-.24l1.25-.24,1.35-.25a.07.07,0,0,1,.08,0,.13.13,0,0,1,0,.1l0,.14-1.63,5.67c0,.14-.07.25-.08.33a.94.94,0,0,0,0,.17.41.41,0,0,0,.11.3.39.39,0,0,0,.29.11q.5,0,1.25-.88a15,15,0,0,0,1.34-1.83,13.81,13.81,0,0,0,1-1.89q.27-.65.78-2.06h1.27l-1.65,6-.07.31a1.08,1.08,0,0,0,0,.24.34.34,0,0,0,.05.19.19.19,0,0,0,.17.08.43.43,0,0,0,.25-.1,2.91,2.91,0,0,0,.33-.3q.09-.09.33-.4l.45-.56.24.16a7.11,7.11,0,0,1-.8,1.1,2.23,2.23,0,0,1-1.53.92.89.89,0,0,1-.6-.2.78.78,0,0,1-.23-.63,3,3,0,0,1,0-.48,5.26,5.26,0,0,1,.13-.59l.4-1.47.22-.79h-.06a24.68,24.68,0,0,1-1.84,2.77,3.12,3.12,0,0,1-2.2,1.4,1.1,1.1,0,0,1-.51-.12.87.87,0,0,1-.44-.84,2,2,0,0,1,0-.29c0-.07,0-.17.06-.3Z"/><path class="cls-18" d="M37.11,133.19a.2.2,0,0,1,0,.11c0,.06,0,.1,0,.13l-.86,3.28.19-.39a11.77,11.77,0,0,1,1.41-2.16,2.17,2.17,0,0,1,1.54-1,.74.74,0,0,1,.61.26,1,1,0,0,1,0,1.22.74.74,0,0,1-.59.25.65.65,0,0,1-.39-.1.76.76,0,0,1-.21-.24l-.1-.18a.29.29,0,0,0-.08-.08.21.21,0,0,0-.11,0q-.33,0-.95.92a13.72,13.72,0,0,0-1.11,2q-.29.65-.66,1.71-.23.67-.61,1.91H33.94l1.4-5.06q.12-.44.19-.78a2.91,2.91,0,0,0,.07-.56.55.55,0,0,0-.13-.39.58.58,0,0,0-.44-.13l-.25,0-.36,0v-.28l.34-.07,1.43-.29.82-.15A.12.12,0,0,1,37.11,133.19Z"/><path class="cls-18" d="M45.75,133.52a1.24,1.24,0,0,1,.31.49l0,.12.19-.63a.61.61,0,0,1,.06-.15s.06,0,.12,0l1-.11c.05,0,.08,0,.09,0a.2.2,0,0,1,0,.11l-.05.17-.05.18-.83,3q-.27,1-.46,1.7a12.72,12.72,0,0,0-.31,1.47.21.21,0,0,0,.06.17.23.23,0,0,0,.16.05.35.35,0,0,0,.17-.05l.23-.15.15-.12.16-.14.21-.2.55-.54.2.18a8.9,8.9,0,0,1-1.44,1.52,1.77,1.77,0,0,1-1,.4.59.59,0,0,1-.49-.22.85.85,0,0,1-.17-.54,4.81,4.81,0,0,1,.11-.87q.11-.57.22-1-.15.25-.51.74a5.9,5.9,0,0,1-.88.94,4.12,4.12,0,0,1-1.17.77,2.54,2.54,0,0,1-.84.15,1.7,1.7,0,0,1-1.23-.56,2.16,2.16,0,0,1-.55-1.58,5.86,5.86,0,0,1,1.6-3.68,4.56,4.56,0,0,1,3.41-2A1.45,1.45,0,0,1,45.75,133.52Zm-.27.32a.91.91,0,0,0-.68-.29q-1.38,0-2.57,2.1a6.77,6.77,0,0,0-1,3.19,1.4,1.4,0,0,0,.29,1,.94.94,0,0,0,.72.31q1.26,0,2.44-2a6.62,6.62,0,0,0,1.13-3.36A1.23,1.23,0,0,0,45.48,133.84Z"/><path class="cls-18" d="M48.3,140.79l1.44-5.19c.12-.44.19-.71.21-.8a1.45,1.45,0,0,0,0-.3.52.52,0,0,0-.14-.38.78.78,0,0,0-.54-.14h-.2l-.21,0v-.28l.77-.13.5-.1,1.49-.33a.17.17,0,0,1,.07.08l-1.11,3.61a19.88,19.88,0,0,1,1.73-2.33,3.27,3.27,0,0,1,2.18-1.35,1.37,1.37,0,0,1,.64.14,1,1,0,0,1,.51,1,2.24,2.24,0,0,1,0,.42c0,.15-.06.3-.11.47l-1.11,4-.08.31a1.32,1.32,0,0,0,0,.26.44.44,0,0,0,.06.23.2.2,0,0,0,.19.1.77.77,0,0,0,.48-.26,9.44,9.44,0,0,0,.89-1.1l.24.22a10.31,10.31,0,0,1-1.07,1.31,1.92,1.92,0,0,1-1.29.66.91.91,0,0,1-.54-.19.79.79,0,0,1-.26-.68,2.38,2.38,0,0,1,0-.3,2,2,0,0,1,.05-.28l1.07-4.08a5.4,5.4,0,0,0,.11-.55,2.58,2.58,0,0,0,0-.31.62.62,0,0,0-.1-.35.38.38,0,0,0-.34-.15q-.64,0-1.61,1.14a14.33,14.33,0,0,0-1.16,1.62,8.3,8.3,0,0,0-.69,1.42q-.25.69-.8,2.52Z"/><path class="cls-18" d="M63.26,133.67a1.32,1.32,0,0,1,.45.9.77.77,0,0,1-.79.83.74.74,0,0,1-.52-.19.62.62,0,0,1-.21-.48,1,1,0,0,1,.14-.47,1,1,0,0,0,.14-.33.3.3,0,0,0-.17-.26,1.09,1.09,0,0,0-.55-.11,2.82,2.82,0,0,0-2.35,1.54,5.86,5.86,0,0,0-1,3.23,2.44,2.44,0,0,0,.4,1.49,1.42,1.42,0,0,0,1.21.54,2.37,2.37,0,0,0,1.26-.37,5,5,0,0,0,1.12-1l.06-.07.24.18a6.16,6.16,0,0,1-1.13,1.15,3.57,3.57,0,0,1-2.14.7,2.43,2.43,0,0,1-1.82-.72,2.69,2.69,0,0,1-.7-2,5,5,0,0,1,1.55-3.51,4.57,4.57,0,0,1,3.33-1.6A2,2,0,0,1,63.26,133.67Z"/><path class="cls-18" d="M65.83,135a4.79,4.79,0,0,1,3.44-1.75,1.65,1.65,0,0,1,1,.3,1.07,1.07,0,0,1,.39.9,2.45,2.45,0,0,1-1.42,2.07,7.46,7.46,0,0,1-3,1.05l-.48.06a5.56,5.56,0,0,0-.15.55,2.63,2.63,0,0,0,0,.52,1.43,1.43,0,0,0,.48,1.15,1.71,1.71,0,0,0,1.15.41,2.64,2.64,0,0,0,1.34-.42,11.21,11.21,0,0,0,1.17-.87l.22.19a5.29,5.29,0,0,1-1.08,1,4.28,4.28,0,0,1-2.51.9,2.21,2.21,0,0,1-1.56-.63,2.35,2.35,0,0,1-.67-1.8A5.2,5.2,0,0,1,65.83,135Zm2.72,1.13a2.46,2.46,0,0,0,1-1.77.79.79,0,0,0-.15-.51.54.54,0,0,0-.45-.19,1.62,1.62,0,0,0-1.07.46,6.36,6.36,0,0,0-.94,1.05,8.21,8.21,0,0,0-.71,1.32q-.14.34-.3.76A4.91,4.91,0,0,0,68.55,136.08Z"/><path class="cls-18" d="M84.57,129.55a7.47,7.47,0,0,0,1.06.2.71.71,0,0,0,.44-.1.75.75,0,0,0,.21-.29h.35L86,132.8l-.3,0a4,4,0,0,0-.45-1.64A2.33,2.33,0,0,0,83.05,130a4.49,4.49,0,0,0-3.87,2.35,8,8,0,0,0-1.33,4.43,3.92,3.92,0,0,0,.81,2.68,2.65,2.65,0,0,0,2.07.91,4.67,4.67,0,0,0,2.4-.64,10.36,10.36,0,0,0,1.69-1.39l.28.24A7.46,7.46,0,0,1,83,140.43a5.15,5.15,0,0,1-2.62.68,4.08,4.08,0,0,1-3.3-1.36,4.77,4.77,0,0,1-1.15-3.17,7.15,7.15,0,0,1,1.92-4.8A6.55,6.55,0,0,1,83,129.35,7.27,7.27,0,0,1,84.57,129.55Z"/><path class="cls-18" d="M93.5,133.93a2.83,2.83,0,0,1,.58,1.78,5.18,5.18,0,0,1-1.57,3.49A4.68,4.68,0,0,1,89,141a2.56,2.56,0,0,1-1.86-.67,2.5,2.5,0,0,1-.7-1.89,5.13,5.13,0,0,1,1.56-3.52,4.68,4.68,0,0,1,3.45-1.72A2.37,2.37,0,0,1,93.5,133.93Zm-5.2,6.22a1.2,1.2,0,0,0,1,.46q1.37,0,2.43-2.07a7.29,7.29,0,0,0,.9-3.26,2.85,2.85,0,0,0-.15-1,1.07,1.07,0,0,0-1.08-.73q-1.28,0-2.41,1.92A6.94,6.94,0,0,0,87.94,139,1.85,1.85,0,0,0,88.29,140.14Z"/><path class="cls-18" d="M101.5,133.38a1,1,0,0,1,.41.91,3.23,3.23,0,0,1-.14.79q-.14.51-.5,1.63a18.43,18.43,0,0,1,1.61-2.17,3.28,3.28,0,0,1,2.16-1.35,1.12,1.12,0,0,1,.72.27,1.05,1.05,0,0,1,.33.86,5.88,5.88,0,0,1-.16.9l-1.32,4.58a.28.28,0,0,0,0,.22.22.22,0,0,0,.22.11.47.47,0,0,0,.26-.08,2.09,2.09,0,0,0,.29-.25l.27-.29.6-.73.26.2-.08.12a7,7,0,0,1-1.22,1.37A1.91,1.91,0,0,1,104,141a.75.75,0,0,1-.45-.13.86.86,0,0,1-.29-.73,1.82,1.82,0,0,1,0-.27q0-.14.06-.32l1.3-4.71,0-.17a.74.74,0,0,0,0-.13.43.43,0,0,0-.11-.31.36.36,0,0,0-.27-.11,2,2,0,0,0-1.34.85,13.85,13.85,0,0,0-1.33,1.72,9.23,9.23,0,0,0-.73,1.49q-.21.6-.77,2.64H98.88l1.68-6,0-.15a.86.86,0,0,0,0-.15.5.5,0,0,0-.09-.31.35.35,0,0,0-.3-.11q-.54,0-1.34.88a14.21,14.21,0,0,0-1.3,1.65,9.55,9.55,0,0,0-1,2q-.27.76-.71,2.18H94.63l1.62-6,0-.18a.92.92,0,0,0,0-.18q0-.33-.23-.4a3.22,3.22,0,0,0-.87,0v-.28q.84-.13,2.73-.55l.07.06-1,3.44a21.2,21.2,0,0,1,1.79-2.28,3.15,3.15,0,0,1,2-1.22A1,1,0,0,1,101.5,133.38Z"/><path class="cls-18" d="M105.3,144.06a1.27,1.27,0,0,0,.76-.19,1.11,1.11,0,0,0,.37-.64l2.32-8.2c.06-.2.09-.35.1-.44a1.52,1.52,0,0,0,0-.21.46.46,0,0,0-.21-.41,1.1,1.1,0,0,0-.6-.13h-.16l-.16,0,0-.28,2.72-.4s.06,0,.08.07,0,.18-.06.23L110,135a6.7,6.7,0,0,1,1-1.13,2.65,2.65,0,0,1,1.73-.71,1.87,1.87,0,0,1,1.44.56,2.43,2.43,0,0,1,.52,1.71,5.49,5.49,0,0,1-1.66,3.76,4.7,4.7,0,0,1-3.41,1.77,2.15,2.15,0,0,1-.59-.07,4,4,0,0,1-.59-.24l-.13.52q-.22.86-.3,1.23a10.57,10.57,0,0,0-.22,1.09q0,.34.22.44a3,3,0,0,0,.86.13v.25H105.3Zm7.74-9.5a.91.91,0,0,0-.92-.61,2,2,0,0,0-1.26.58,4.27,4.27,0,0,0-1.14,1.92q-.37,1.05-.69,2.2a9,9,0,0,0-.32,1.35.51.51,0,0,0,.26.47,1.23,1.23,0,0,0,.63.15,3.12,3.12,0,0,0,2.58-1.87,6.44,6.44,0,0,0,1-3.32A2.4,2.4,0,0,0,113,134.56Z"/><path class="cls-18" d="M121.33,133.52a1.24,1.24,0,0,1,.31.49l0,.12.19-.63a.61.61,0,0,1,.06-.15s.06,0,.12,0l1-.11c.05,0,.08,0,.09,0a.2.2,0,0,1,0,.11l-.05.17-.05.18-.83,3q-.27,1-.46,1.7a12.72,12.72,0,0,0-.31,1.47.21.21,0,0,0,.06.17.23.23,0,0,0,.16.05.35.35,0,0,0,.17-.05l.23-.15.15-.12.16-.14.21-.2.55-.54.2.18a8.9,8.9,0,0,1-1.44,1.52,1.77,1.77,0,0,1-1,.4.59.59,0,0,1-.49-.22.85.85,0,0,1-.17-.54,4.81,4.81,0,0,1,.11-.87q.11-.57.22-1-.15.25-.51.74a5.9,5.9,0,0,1-.88.94,4.12,4.12,0,0,1-1.17.77,2.54,2.54,0,0,1-.84.15,1.7,1.7,0,0,1-1.23-.56,2.16,2.16,0,0,1-.55-1.58,5.86,5.86,0,0,1,1.6-3.68,4.56,4.56,0,0,1,3.41-2A1.45,1.45,0,0,1,121.33,133.52Zm-.27.32a.91.91,0,0,0-.68-.29q-1.38,0-2.57,2.1a6.77,6.77,0,0,0-1,3.19,1.4,1.4,0,0,0,.29,1,.94.94,0,0,0,.72.31q1.26,0,2.44-2a6.62,6.62,0,0,0,1.13-3.36A1.23,1.23,0,0,0,121.06,133.84Z"/><path class="cls-18" d="M123.88,140.79l1.44-5.19c.12-.44.19-.71.21-.8a1.45,1.45,0,0,0,0-.3.52.52,0,0,0-.14-.38.78.78,0,0,0-.54-.14h-.2l-.21,0v-.28l.77-.13.5-.1,1.49-.33a.17.17,0,0,1,.07.08l-1.11,3.61a19.88,19.88,0,0,1,1.73-2.33,3.27,3.27,0,0,1,2.18-1.35,1.37,1.37,0,0,1,.64.14,1,1,0,0,1,.51,1,2.24,2.24,0,0,1,0,.42c0,.15-.06.3-.11.47l-1.11,4-.08.31a1.32,1.32,0,0,0,0,.26.44.44,0,0,0,.06.23.2.2,0,0,0,.19.1.77.77,0,0,0,.48-.26,9.44,9.44,0,0,0,.89-1.1l.24.22a10.31,10.31,0,0,1-1.07,1.31,1.92,1.92,0,0,1-1.29.66.91.91,0,0,1-.54-.19.79.79,0,0,1-.26-.68,2.38,2.38,0,0,1,0-.3,2,2,0,0,1,.05-.28l1.07-4.08a5.4,5.4,0,0,0,.11-.55,2.58,2.58,0,0,0,0-.31.62.62,0,0,0-.1-.35.38.38,0,0,0-.34-.15q-.64,0-1.61,1.14a14.33,14.33,0,0,0-1.16,1.62,8.3,8.3,0,0,0-.69,1.42q-.25.69-.8,2.52Z"/><path class="cls-18" d="M131.53,143.11a.61.61,0,0,1,.49-.19.81.81,0,0,1,.37.08,1.68,1.68,0,0,1,.34.23l.12.08a.33.33,0,0,0,.11.06l.14,0q.41,0,1.32-1.09a3.2,3.2,0,0,0,.91-1.58,10.39,10.39,0,0,0-.31-1.84q-.31-1.37-.61-2.45a8.45,8.45,0,0,0-.75-2,1.11,1.11,0,0,0-1-.54h-.17l-.42,0v-.28l2.29-.45.18,0q.21,0,.81,1.89a21.18,21.18,0,0,1,.67,2.51l.34,2q.88-1.48,1.29-2.27a5.92,5.92,0,0,0,.81-2.18.82.82,0,0,0-.05-.28.47.47,0,0,0-.24-.24l-.14-.08a1.27,1.27,0,0,1-.31-.25.68.68,0,0,1-.18-.5.61.61,0,0,1,.17-.44.67.67,0,0,1,.5-.18,1,1,0,0,1,.68.25,1.13,1.13,0,0,1,.26.84,7.73,7.73,0,0,1-1,2.89,28.93,28.93,0,0,1-1.69,2.94,26.44,26.44,0,0,1-2,2.74q-1.34,1.52-2.22,1.52a1,1,0,0,1-.61-.21.69.69,0,0,1-.26-.57A.68.68,0,0,1,131.53,143.11Z"/></svg>