<svg xmlns="http://www.w3.org/2000/svg" viewBox="0 0 40 40">
    <circle cx="20" cy="20" r="20" fill="#343a40"/>

    <g id="icon" fill="#fff">
        <path d="M44.739,36.911l1.328.766a1,1,0,0,1,.466,1.128,10.33,10.33,0,0,1-2.67,4.619,1,1,0,0,1-1.208.159l-1.325-.765a9.868,9.868,0,0,1-1.372.793v1.532a1,1,0,0,1-.744.967,10.4,10.4,0,0,1-5.333,0,1.055,1.055,0,0,1-.744-.967V43.611a9.784,9.784,0,0,1-1.372-.793l-1.325.765a1,1,0,0,1-1.208-.159,10.33,10.33,0,0,1-2.67-4.619,1,1,0,0,1,.466-1.128l1.328-.766c-.021-.218-.038-.573-.038-.792s.017-.574.038-.792l-1.328-.767a1,1,0,0,1-.466-1.128,10.33,10.33,0,0,1,2.67-4.619,1,1,0,0,1,1.208-.159l1.325.765a9.823,9.823,0,0,1,1.372-.793V27.1a1,1,0,0,1,.744-.967,10.408,10.408,0,0,1,5.333,0,1.056,1.056,0,0,1,.744.967v1.532a9.823,9.823,0,0,1,1.372.793l1.325-.765a1,1,0,0,1,1.208.159,10.33,10.33,0,0,1,2.67,4.619,1,1,0,0,1-.466,1.128l-1.328.766A8.112,8.112,0,0,1,44.739,36.911Zm-2.2-2.627L44.37,33.23a9.989,9.989,0,0,0-1.411-2.44l-1.827,1.055a7.1,7.1,0,0,0-3.175-1.836V27.9a8.371,8.371,0,0,0-2.819,0V30.01a7.1,7.1,0,0,0-3.175,1.835L30.135,30.79a8.37,8.37,0,0,0-1.411,2.44l1.827,1.054a7.179,7.179,0,0,0,0,3.67l-1.827,1.054a9.991,9.991,0,0,0,1.411,2.439l1.827-1.055a7.107,7.107,0,0,0,3.175,1.835v2.11a8.4,8.4,0,0,0,2.819,0v-2.11a7.1,7.1,0,0,0,3.175-1.835l1.827,1.055a9.991,9.991,0,0,0,1.411-2.439l-1.827-1.054A7.179,7.179,0,0,0,42.543,34.284Zm-1.994,1.835a4,4,0,1,1-4-4A4.007,4.007,0,0,1,40.549,36.119Zm-2,0a2,2,0,1,0-2,2A2,2,0,0,0,38.548,36.119Z" transform="translate(-16.527 -15.781)"/>
    </g>
</svg>
