<svg xmlns="http://www.w3.org/2000/svg" viewBox="0 0 40 40">
    <circle cx="20" cy="20" r="20" fill="#00985c"/>

    <g id="icon" fill="#fff">
        <path id="Path_22" data-name="Path 22" d="M-1001.97,19.542s5.823-4.2,9.312.2c4.921,6.215-.978,11.256-.978,11.256a.856.856,0,0,0-.246,1.249s3.893,8.761-4.162,13.99c0,0-2.794,1.29-1.152-2.728,1.261-3.086-.5-6.389-.5-6.389s-2.117-4.13-4.31.542c0,0-1.267,2.5-.343,8.14,0,0-.253.585-1.9-.229,0,0-4.5-1.034-3.718-8.6.607-5.881-1.293-7.709-1.293-7.709s-4.022-4.775-.1-9.546S-1001.97,19.542-1001.97,19.542Z" transform="translate(1022.081 -11.552)"/>
    </g>
</svg>
