<?xml version="1.0" encoding="iso-8859-1"?>
<!-- Generator: Adobe Illustrator 19.1.0, SVG Export Plug-In . SVG Version: 6.00 Build 0)  -->
<svg version="1.1" xmlns="http://www.w3.org/2000/svg" xmlns:xlink="http://www.w3.org/1999/xlink" x="0px" y="0px"
	 viewBox="0 0 164.9 164.9" enable-background="new 0 0 164.9 164.9" xml:space="preserve">
<g id="DO_NOT_PRINT" display="none">
</g>
<g id="PRINT">
	<g>
		<path d="M141.9,82.4c0-32.8-26.7-59.5-59.5-59.5c-32.8,0-59.5,26.7-59.5,59.5c0,32.8,26.7,59.5,59.5,59.5
			C115.2,141.9,141.9,115.2,141.9,82.4z M82.4,139.9c-31.7,0-57.5-25.8-57.5-57.5c0-31.7,25.8-57.5,57.5-57.5s57.5,25.8,57.5,57.5
			C139.9,114.1,114.1,139.9,82.4,139.9z"/>
		<path d="M82.4,0C37,0,0,37,0,82.4c0,45.5,37,82.4,82.4,82.4c45.5,0,82.4-37,82.4-82.4C164.9,37,127.9,0,82.4,0z M82.4,162.9
			C38.1,162.9,2,126.8,2,82.4C2,38.1,38.1,2,82.4,2s80.4,36.1,80.4,80.4C162.9,126.8,126.8,162.9,82.4,162.9z"/>
		<path d="M19.9,88l-4-0.9l-0.2-4.6l3.9-1.2l-0.1-1.8L5.4,84.1l0.1,2.4L20,89.8L19.9,88z M7.5,85.2L7.5,85.2l6.8-2.2l0.2,3.8
			L7.5,85.2z"/>
		<polygon points="19.8,77.4 7.4,75.9 7.4,75.9 20.2,74.3 20.4,72.5 8.4,67.9 8.4,67.8 20.8,69.3 21,67.6 6.9,65.9 6.5,68.8 
			17.4,73 17.4,73.1 5.8,74.5 5.4,77.5 19.6,79.2 		"/>
		<polygon points="24.2,58.8 22.7,58.3 20.9,63.8 16,62.2 17.7,57.2 16.2,56.7 14.5,61.8 10.3,60.4 12,55 10.5,54.5 8.2,61.5 
			21.8,66 		"/>
		<path d="M25.3,56.6l-5.8-2.7l1-2.2c0.4-0.8,0.9-1.7,2.8-1l2.1,0.8c0.7,0.3,1.7,0.6,2.1,0.4l0.9-1.9c-0.4,0.3-0.9,0.3-2.4-0.3
			l-2.3-0.9c-1.1-0.4-2.4-0.2-3,0.8l0,0c0.3-1.7-0.9-2.9-2.3-3.5c-2-1-3.8-0.2-4.8,1.8l-2,4.2l12.9,6.1L25.3,56.6z M18.9,51.7
			l-0.7,1.6l-4.6-2.1l0.9-1.9c0.7-1.5,1.9-2,3.2-1.4C20.2,49.1,19.4,50.8,18.9,51.7z"/>
		<rect x="16.1" y="44.5" transform="matrix(0.8485 0.5292 -0.5292 0.8485 27.5095 -5.4228)" width="14.3" height="1.8"/>
		<path d="M24.6,43.1c2.9,2.2,6.2,4.1,8.7,0.9c1.9-2.5,0.6-4.8-1.5-6.6l-1.1,1.5c1.3,1.1,2.8,2.6,1.5,4.3c-1.5,1.9-3.8,0.6-6.4-1.4
			c-2.6-2-4.6-3.9-3.1-5.8c1.1-1.4,2.5-1,3.8-0.1l1.1-1.5c-2.3-1.6-4.3-1.7-6.1,0.7C19.1,38.1,21.7,40.9,24.6,43.1z"/>
		<path d="M36.6,39.6l-2.1-3.5l3.2-3.3l3.5,2l1.3-1.3l-12.9-7.2L27.9,28l7.3,12.9L36.6,39.6z M30.2,28.6L30.2,28.6l6.2,3.5l-2.7,2.8
			L30.2,28.6z"/>
		<path d="M34.9,24.5l0.3,0.4c0.5,0.6,0.6,1,0.3,1.7l0.6,0.7c1-1.5,0.2-2.6-0.8-3.7l-1.1-1.3l-1.4,1.2l1.4,1.6L34.9,24.5z"/>
		<path d="M47.9,25.6c0.9,1.3,0.5,2.7-0.6,3.5c-2.1,1.5-3.2,0.1-4.1-1.2l-1.4,1c1.7,2.5,3.5,3.4,6.3,1.5c1.7-1.1,3.1-3.3,1.2-6
			c-3-4.3-7.1,1.5-9.4-1.8c-0.9-1.3-0.6-2.4,0.6-3.3c1.4-1,2.4-0.4,3.3,0.8l1.4-1c-1.5-2.1-3.3-2.5-5.6-1c-3,2.1-2,4.5-1.2,5.6
			C41.4,28,45.6,22.2,47.9,25.6z"/>
		<polygon points="60.1,23.8 57.8,17.5 62.8,15.7 62.2,14.2 57.3,16.1 55.7,11.9 61,9.9 60.4,8.4 53.5,11 58.5,24.4 		"/>
		<path d="M65.6,17.9l4.4-1l1.9,3.6l1.8-0.4l-7-13l-2.3,0.5l-0.8,14.8l1.8-0.4L65.6,17.9z M66,9.3L66,9.3l3.4,6.3l-3.7,0.9L66,9.3z"
			/>
		<path d="M79.9,16c0.1,1.5-0.9,2.6-2.3,2.7c-2.6,0.2-2.8-1.5-2.9-3.1L73,15.8c0.2,3,1.3,4.7,4.7,4.4c2-0.2,4.4-1.3,4.1-4.6
			c-0.4-5.2-6.9-2.3-7.3-6.3c-0.1-1.5,0.7-2.4,2.2-2.5c1.7-0.1,2.3,0.9,2.4,2.4L80.8,9c-0.2-2.6-1.6-3.9-4.3-3.7
			c-3.6,0.3-4,2.9-3.9,4.3C73.1,14.8,79.6,12,79.9,16z"/>
		<polygon points="85.5,19.8 87.2,19.8 87.8,7.1 91.4,7.3 91.5,5.8 82.6,5.3 82.5,6.9 86.1,7.1 		"/>
		<polygon points="98.7,21.7 99,20.2 93.3,19 94.3,14 99.5,15 99.8,13.5 94.6,12.5 95.5,8.1 101,9.2 101.3,7.6 94,6.2 91.3,20.2 		
			"/>
		<path d="M100.2,17.5c-1,2.9-0.6,4.8,2.6,5.9c1.9,0.6,4.5,0.5,5.5-2.6c1.6-5-5.5-4.8-4.3-8.6c0.5-1.4,1.6-1.9,3-1.5
			c1.6,0.5,1.8,1.7,1.3,3.1l1.7,0.5c0.8-2.5,0-4.2-2.6-5c-3.4-1.1-4.8,1.2-5.2,2.4c-1.6,5,5.5,4.9,4.2,8.7c-0.5,1.4-1.8,2.1-3.1,1.6
			c-2.5-0.8-2-2.5-1.5-4L100.2,17.5z"/>
		<polygon points="110.2,26.2 111.8,27 117.5,15.6 120.7,17.2 121.4,15.8 113.4,11.8 112.7,13.2 115.9,14.8 		"/>
		<rect x="116.8" y="24" transform="matrix(-0.8484 -0.5293 0.5293 -0.8484 207.2551 108.8212)" width="4.9" height="1.6"/>
		<path d="M122.4,34.4c1.2,1,2.7,0.9,3.8,0.2l0,0l-1.2,1.5l1,0.8l4.6-5.8l-3.4-2.8l-0.9,1.1l2.2,1.8c-1.2,1.5-3.2,3.6-5.1,2.1
			c-1.9-1.5-0.5-3.8,1.6-6.4c2.1-2.6,4-4.5,5.9-2.9c1.4,1.1,1,2.5,0.1,3.7l1.4,1.2c0.4-0.6,2.6-3.4-0.6-5.9c-3.1-2.5-6,0.1-8.2,2.9
			C121.2,28.9,119.5,32.1,122.4,34.4z"/>
		<path d="M128.1,39.3l4.8-4.2l1.6,1.8c0.6,0.7,1.2,1.6-0.1,3l-1.6,1.6c-0.5,0.5-1.2,1.3-1.2,1.7l1.4,1.6c-0.1-0.5,0-0.9,1.2-2.1
			l1.7-1.7c0.9-0.9,1.2-2.1,0.4-3.1l0,0c1.4,1,3,0.3,4.2-0.7c1.7-1.5,1.7-3.4,0.2-5.1l-3.1-3.5L126.9,38L128.1,39.3z M137.7,30.8
			l1.4,1.6c1.1,1.2,1.1,2.5,0,3.4c-2.1,1.8-3.3,0.4-4-0.4l-1.2-1.3L137.7,30.8z"/>
		<path d="M135.3,49.1c2.2,3.3,5.7,1.8,8.7-0.2c3-2,5.8-4.6,3.7-7.9c-2.2-3.3-5.7-1.8-8.7,0.2C135.9,43.1,133.1,45.8,135.3,49.1z
			 M146.5,41.7c1.3,2-0.7,3.8-3.5,5.6c-2.8,1.8-5.2,3-6.5,1c-1.3-2,0.7-3.8,3.5-5.6C142.7,40.9,145.1,39.7,146.5,41.7z"/>
		<polygon points="140.2,57.8 151.7,55.4 151.7,55.4 141.7,61.6 142.5,63.5 156.8,61 156.2,59.3 144.5,61.6 144.5,61.6 154.6,55.4 
			153.8,53.4 142.2,55.9 142.2,55.9 152.2,49.5 151.6,47.8 139.4,55.8 		"/>
		<rect x="143.2" y="64.9" transform="matrix(-0.9676 0.2525 -0.2525 -0.9676 312.3892 91.5567)" width="14.3" height="1.8"/>
		<polygon points="144.2,71.4 155.6,69.7 155.6,69.7 144.9,76 145.3,78.4 159.4,76.2 159.1,74.5 147.4,76.3 147.4,76.2 158.4,69.8 
			158.1,67.5 143.9,69.7 		"/>
		<path d="M152.4,79.9c-3.8-0.1-7.4,0.5-7.5,4.2c0,1.6,0.9,2.7,2.2,3.1l0,0l-1.9,0l0,1.3l7.4,0.2l0.1-4.4l-1.4,0l-0.1,2.8
			c-1.9,0-4.8-0.3-4.8-2.7c0.1-2.4,2.7-2.7,6-2.6c3.3,0.1,6,0.5,5.9,2.9c0,1.7-1.4,2.3-2.9,2.3l0,1.8c0.7,0,4.2,0,4.3-4.1
			C159.8,80.8,156,80,152.4,79.9z"/>
		<path d="M16,104.9c1.9-0.5,3-2.5,2.5-4.4c-0.5-1.9-2.5-3-4.4-2.5c-1.9,0.5-3,2.5-2.5,4.4C12.2,104.3,14.1,105.5,16,104.9z"/>
		<path d="M20.8,117.9c1.2,2.1,3.3,2.9,5.6,1.6c3.6-2,2-4.8,1.4-5.9l-1.8-3.2l-12.4,7l0.9,1.5l5.3-3L20.8,117.9z M25.7,112.7l1,1.7
			c0.9,1.5,0.3,2.7-1,3.4c-1.7,0.9-3,0.4-3.6-0.7l-1-1.8L25.7,112.7z"/>
		<path d="M27.9,130.3c0.9-0.8,1.3-2,0.6-3.1l0,0c1.3,1.1,3,0.5,4.2-0.5c1.8-1.4,2-3.3,0.6-5.1l-2.8-3.6l-11.3,8.8l1.1,1.4l5-3.9
			l1.5,1.9c0.6,0.7,1.1,1.6-0.3,3l-1.7,1.5c-0.5,0.5-1.3,1.2-1.3,1.6l1.3,1.7c-0.1-0.5,0.1-0.9,1.3-2L27.9,130.3z M26.5,123.4l4-3.1
			l1.3,1.7c1,1.3,0.9,2.6-0.2,3.4c-2.2,1.7-3.3,0.2-4-0.6L26.5,123.4z"/>
		<rect x="24.7" y="129.9" transform="matrix(0.7259 -0.6878 0.6878 0.7259 -81.2376 57.7282)" width="14.3" height="1.8"/>
		<polygon points="43.9,132.2 33.7,139.7 33.7,139.6 39.7,128.5 38.3,127.3 31.5,140.4 33.2,141.9 45.3,133.4 		"/>
		<path d="M47.2,134.5L35.8,144l1.5,1l3.1-2.6l3.8,2.6l-1.4,3.8l1.5,1l4.8-14L47.2,134.5z M44.7,143.6l-3.2-2.2l5.5-4.6l0,0
			L44.7,143.6z"/>
		<polygon points="57.9,142.3 58.6,140.9 50.7,136.8 50,138.2 53.2,139.8 47.3,151.1 48.9,151.9 54.7,140.6 		"/>
		<polygon points="54.5,154.4 61.7,156.9 62.2,155.4 56.6,153.5 58.3,148.7 63.3,150.4 63.8,148.9 58.8,147.2 60.3,142.9 
			65.6,144.8 66.1,143.3 59.1,140.9 		"/>
		<path d="M78.1,144.9c-3.9-0.4-4.9,3.4-5.2,7c-0.3,3.6-0.1,7.4,3.9,7.8c3.1,0.3,4.4-2.1,4.8-4.8l-1.8-0.2c-0.2,1.7-0.7,3.7-2.8,3.5
			c-2.4-0.2-2.5-2.9-2.2-6.2c0.3-3.3,0.9-5.9,3.3-5.7c1.8,0.2,2.2,1.6,2.1,3.2l1.8,0.2C82.1,146.9,81,145.2,78.1,144.9z"/>
		<path d="M87.4,144.8c-3.9,0.2-4.4,4.1-4.2,7.7c0.2,3.6,1.1,7.4,5,7.1c3.9-0.2,4.4-4.1,4.2-7.7C92.2,148.4,91.4,144.6,87.4,144.8z
			 M88.2,158.2c-2.4,0.1-2.9-2.5-3.1-5.8c-0.2-3.3,0-6,2.4-6.1c2.4-0.1,2.9,2.5,3.1,5.8C90.8,155.4,90.7,158.1,88.2,158.2z"/>
		<polygon points="101.1,142.6 101,154.3 101,154.3 95.5,143.9 92.7,144.6 96,158.5 97.7,158.1 94.8,146 94.8,146 100.8,157.4 
			102.5,156.9 102.7,144.1 102.7,144.1 105.6,156.2 107.4,155.8 104,141.9 		"/>
		<path d="M108.8,139.5l-3.3,1.5l5.7,13.1l1.6-0.7l-2.4-5.5l2-0.9c2.2-1,3.2-3,2.1-5.4C112.8,137.8,109.9,139,108.8,139.5z
			 M111.7,145.7l-1.9,0.8l-2.2-4.9l1.8-0.8c1.6-0.7,2.7-0.1,3.3,1.4C113.5,143.9,112.9,145.2,111.7,145.7z"/>
		<path d="M115.1,136.1l4.1,14.3l1.6-1l-1.2-3.9l3.9-2.4l3,2.8l1.6-1l-10.9-10L115.1,136.1z M117.2,137.2l5.2,4.9l-3.2,2
			L117.2,137.2L117.2,137.2z"/>
		<polygon points="125.8,128.1 133.6,137.1 133.5,137.1 122.2,131.2 120.4,132.7 129.8,143.5 131.1,142.4 123.6,133.6 123.6,133.6 
			134.6,139.3 136.4,137.8 127.1,126.9 		"/>
		<rect x="126.5" y="129.3" transform="matrix(-0.722 -0.6919 0.6919 -0.722 140.0084 316.6661)" width="14.3" height="1.8"/>
		<polygon points="141,130.2 137,127.1 140.3,122.9 139,121.9 135.8,126.1 132.2,123.3 135.7,118.9 134.5,117.9 129.9,123.7 
			141.1,132.6 145.9,126.6 144.6,125.6 		"/>
		<path d="M148.1,115.1c-4.5-2.6-5.8,4.4-9.3,2.4c-1.3-0.8-1.6-1.9-0.8-3.2c0.8-1.5,2-1.4,3.3-0.6l0.9-1.5c-2.3-1.3-4.1-0.9-5.4,1.5
			c-1.8,3.1,0.2,4.9,1.3,5.6c4.5,2.6,5.9-4.4,9.4-2.4c1.3,0.8,1.6,2.2,0.9,3.4c-1.3,2.2-2.8,1.5-4.2,0.7l-0.9,1.5
			c2.6,1.5,4.6,1.5,6.3-1.4C150.5,119.3,150.9,116.8,148.1,115.1z"/>
		<path d="M150.8,98.2c-1.9-0.6-3.9,0.5-4.4,2.4c-0.6,1.9,0.5,3.9,2.4,4.4c1.9,0.6,3.9-0.5,4.4-2.4
			C153.7,100.8,152.6,98.8,150.8,98.2z"/>
		<path d="M95.7,85.3c-8.5-0.1-12.5,6.3-12.8,14c-0.1-5.8-2.5-13.9-11.9-14c-8.9-0.1-12.9,7-12.9,15.2c0,0.4,0,0.8,0,1.2
			c-1-4.5-5.2-7.3-10.5-7.3c-1.5,0-3.4,0.3-4.6,0.8c-0.3,0.1-0.6,0.3-0.9,0.5l0.4-4h14.4l0.6-5.9h-21L35,101l7,0.9
			c0.5-0.7,1.2-1.8,3.5-1.8c2.9,0,4.3,1.8,4.3,4.4c0,2.2-1.2,4.4-4.2,4.4c-1.7,0-3-0.8-3.5-2.4c-0.2-0.7-0.2-1.4-0.2-2.1l-8.4,0.9
			c0.5,2.1,0.9,4.1,2.7,6c3.2,3.3,7.9,3.3,9.4,3.3c2.4,0,6.8-0.2,9.9-3.4c1.8-1.8,2.9-4.5,3-7.2c1.1,6.9,5.7,10.9,11.8,10.9
			c8.9,0,12.3-7.3,12.7-14c0.1,8.9,5.1,14,12.1,14c9.4,0,12.7-8.1,12.7-15.2C107.6,93.9,105.3,85.4,95.7,85.3z M70.5,109.1
			c-1.9,0-3.1-1.4-3.6-3.5c-0.3-1.5-0.4-3-0.4-4.6c0-2.8,0.2-6.5,1.2-8.3c0.8-1.3,2-1.8,2.9-1.8c2,0,3,1.6,3.4,3.4
			c0.4,1.8,0.5,4.9,0.5,6.1C74.5,104.5,73.9,109.1,70.5,109.1z M95.2,109.1c-1.9,0-3.1-1.4-3.6-3.5c-0.3-1.5-0.4-3-0.4-4.6
			c0-2.8,0.2-6.5,1.2-8.3c0.8-1.3,2-1.8,2.9-1.8c2,0,3,1.6,3.4,3.4c0.4,1.8,0.5,4.9,0.5,6.1C99.3,104.5,98.7,109.1,95.2,109.1z"/>
		<path d="M120.5,85.3c-8.9-0.1-12.9,7-12.9,15.2c0,9.1,5,14.4,12.1,14.4c9.4,0,12.7-8.1,12.7-15.2
			C132.4,93.9,130.1,85.4,120.5,85.3z M120,109.1c-1.8,0-3.1-1.4-3.6-3.5c-0.3-1.5-0.4-3-0.4-4.6c0-2.8,0.2-6.5,1.2-8.3
			c0.8-1.3,2-1.8,2.9-1.8c2,0,3,1.6,3.4,3.4c0.4,1.8,0.5,4.9,0.5,6.1C124.1,104.5,123.5,109.1,120,109.1z"/>
		<polygon points="59.2,76.6 54.9,76.6 54.9,58.8 59.2,58.8 59.2,51.2 36.6,51.2 36.6,58.8 40.8,58.8 40.8,76.6 36.6,76.6 
			36.6,83.7 59.2,83.7 		"/>
		<path d="M78.1,76.6h-3.4v-6.1c0-2.6,2-4.5,4.6-4.5c2.1,0,3.6,1,3.6,3.2v7.4h-3.3v7.1h17.3v-7c2.4,5.3,8.4,7.6,14.6,7.6
			c5,0,12-1.2,13.6-8.9l0.1-0.8l-9.2,0l-0.3,0c0,2.6-1.9,3.8-4.1,3.8c-4.1,0-4.4-3.4-4.4-6.7v-0.1v0c0-3.3,0.3-6.7,4.4-6.7
			c3.2,0,3.8,2.8,3.9,5.5l9.5-1.1C123.9,58.2,111.5,59,111.5,59c-7.9,0-15.6,3.9-15.6,12.7c0,1.9,0.4,3.5,1,5H94v-9.4
			c0-6-4.4-8.2-9.8-8.2c-3.8,0-6.7,1-9.3,4c-0.2,0.2-0.4,0.5-0.6,0.7v-4.9h-14v7.1h3.2v10.7h-3.2v7.1h17.7V76.6z"/>
		<polygon points="95.8,71.7 95.8,71.6 95.8,71.6 		"/>
		<circle cx="128.4" cy="79.8" r="4"/>
	</g>
</g>
</svg>
