<?xml version="1.0" encoding="UTF-8"?><svg id="Layer_1" xmlns="http://www.w3.org/2000/svg" viewBox="0 0 181.75 53.25"><defs><style>.cls-1{fill:#002f87;}.cls-2{fill:#a2d45e;}</style></defs><g><path class="cls-2" d="M.2,.39H8.26V35.55H.2V.39Z"/><path class="cls-2" d="M21.42,8.16h-.1l.49,27.39h-7.43V.39h11.75l5.92,27.39,.1-.1L31.57,.39h7.48V35.55h-11.75l-5.88-27.39Z"/><path class="cls-1" d="M44.68,.39h11.61c5.83,0,8.98,2.14,8.98,8.55v6.12c0,8.4-2.57,10.49-9.81,10.49h-2.72v10h-8.06V.39Zm10.44,18.84c1.17,0,1.8-.63,1.8-2.57V8.21c0-1.17-.44-1.51-1.84-1.51h-2.33v12.53h2.38Z"/><path class="cls-1" d="M68.47,7.24C68.47,1.51,72.16,0,78.91,0s10.44,1.51,10.44,7.24V28.7c0,5.73-3.69,7.23-10.44,7.23s-10.44-1.51-10.44-7.23V7.24Zm12.53,.44c0-1.31-.58-1.65-2.09-1.65s-2.09,.34-2.09,1.65V28.26c0,1.31,.58,1.65,2.09,1.65s2.09-.34,2.09-1.65V7.67Z"/><path class="cls-1" d="M93.72,8.55C93.72,2.91,95.85,0,101.83,0h3.01C111.88,0,114.01,1.94,114.01,6.02v6.41h-7.77V7.82c0-1.07-.73-1.51-2.04-1.51-1.41,0-2.14,.44-2.14,1.51V28.12c0,1.07,.73,1.51,2.09,1.51s2.09-.44,2.09-1.51v-5.54h7.77v5.2c0,6.22-2.38,8.16-9.18,8.16h-3.01c-5.97,0-8.11-2.96-8.11-7.53V8.55Z"/><path class="cls-1" d="M118.48,.39h8.06V15.2l-.05,.1h.1L131.74,.39h8.64l-6.85,16.7,7.72,18.45h-8.64l-6.02-15.68h-.1l.05,.1v15.59h-8.06V.39Z"/><path class="cls-1" d="M143.73,.39h15.49V6.7h-7.43v7.72h6.89v6.02h-6.89v8.79h8.01v6.31h-16.07V.39Z"/><path class="cls-1" d="M168.05,6.7h-5.63V.39h19.33V6.7h-5.63v28.84h-8.06V6.7Z"/></g><g><path class="cls-2" d="M69.58,41.64h-9.7v11.61h3.56v-2.92h7.07c2.52,0,3.27-1.99,3.27-3.72v-.99c0-2.28-.82-3.98-4.2-3.98Zm.55,4.57c0,.69-.32,1.24-1.15,1.24h-5.53v-2.92h5.23c1.07,0,1.46,.45,1.46,1.24v.45Z"/><polygon class="cls-2" points="79.27 41.64 75.71 41.64 75.71 53.25 87.27 53.25 87.27 50.27 79.27 50.27 79.27 41.64"/><path class="cls-2" d="M94.78,41.64l-6.29,11.61h3.98l1.04-2.05h7.22l1.11,2.05h3.96l-6.38-11.61h-4.64Zm.06,7.06l2.25-4.36,2.31,4.36h-4.56Z"/><polygon class="cls-2" points="119.31 50.07 119.28 50.07 112.59 41.64 107.07 41.64 107.07 53.25 110.63 53.25 110.63 44.81 110.66 44.81 117.35 53.25 122.87 53.25 122.87 41.64 119.31 41.64 119.31 50.07"/></g><g><path class="cls-1" d="M6.71,48.8H1.3C.58,48.8,0,48.21,0,47.49s.58-1.3,1.3-1.3H6.71c.72,0,1.3,.58,1.3,1.3s-.58,1.3-1.3,1.3Z"/><path class="cls-1" d="M51.99,48.8h-5.41c-.72,0-1.3-.58-1.3-1.3s.58-1.3,1.3-1.3h5.41c.72,0,1.3,.58,1.3,1.3s-.58,1.3-1.3,1.3Z"/><path class="cls-1" d="M18.03,48.8h-5.41c-.72,0-1.3-.58-1.3-1.3s.58-1.3,1.3-1.3h5.41c.72,0,1.3,.58,1.3,1.3s-.58,1.3-1.3,1.3Z"/><path class="cls-1" d="M29.35,48.8h-5.41c-.72,0-1.3-.58-1.3-1.3s.58-1.3,1.3-1.3h5.41c.72,0,1.3,.58,1.3,1.3s-.58,1.3-1.3,1.3Z"/><path class="cls-1" d="M40.67,48.8h-5.41c-.72,0-1.3-.58-1.3-1.3s.58-1.3,1.3-1.3h5.41c.72,0,1.3,.58,1.3,1.3s-.58,1.3-1.3,1.3Z"/></g><g><path class="cls-1" d="M134.98,48.8h-5.41c-.72,0-1.3-.58-1.3-1.3s.58-1.3,1.3-1.3h5.41c.72,0,1.3,.58,1.3,1.3s-.58,1.3-1.3,1.3Z"/><path class="cls-1" d="M180.25,48.8h-5.41c-.72,0-1.3-.58-1.3-1.3s.58-1.3,1.3-1.3h5.41c.72,0,1.3,.58,1.3,1.3s-.58,1.3-1.3,1.3Z"/><path class="cls-1" d="M146.3,48.8h-5.41c-.72,0-1.3-.58-1.3-1.3s.58-1.3,1.3-1.3h5.41c.72,0,1.3,.58,1.3,1.3s-.58,1.3-1.3,1.3Z"/><path class="cls-1" d="M157.62,48.8h-5.41c-.72,0-1.3-.58-1.3-1.3s.58-1.3,1.3-1.3h5.41c.72,0,1.3,.58,1.3,1.3s-.58,1.3-1.3,1.3Z"/><path class="cls-1" d="M168.93,48.8h-5.41c-.72,0-1.3-.58-1.3-1.3s.58-1.3,1.3-1.3h5.41c.72,0,1.3,.58,1.3,1.3s-.58,1.3-1.3,1.3Z"/></g></svg>