<?xml version="1.0" encoding="UTF-8"?><svg id="Layer_1" xmlns="http://www.w3.org/2000/svg" viewBox="0 0 203.86 209.55"><defs><style>.cls-1{stroke-dasharray:0 0 4.86 4.86;}.cls-1,.cls-2{fill:none;stroke:#fff;stroke-linecap:round;stroke-miterlimit:10;stroke-width:2.37px;}.cls-3{fill:#002f87;}.cls-4{fill:#fff;}.cls-5{fill:#a2d45e;}</style></defs><g><rect class="cls-3" x="2.75" y="15.01" width="198.36" height="192.91"/><path class="cls-4" d="M199.61,16.51V206.42H4.25V16.51H199.61m3-3H1.25V209.42H202.61V13.51h0Z"/></g><g><path class="cls-4" d="M14.6,181.7l-.85,4.37h4.77l.83-4.37h1.29l-1.98,10.37h-1.28l.92-4.88h-4.77l-.92,4.88h-1.28l1.98-10.37h1.28Z"/><path class="cls-4" d="M26.31,191.64c-.55,.32-1.46,.58-2.46,.58-1.97,0-2.83-1.34-2.83-2.98,0-2.25,1.66-4.78,4.06-4.78,1.42,0,2.18,.85,2.18,1.91,0,1.95-2.2,2.48-4.95,2.43-.06,.32-.02,1.02,.15,1.42,.29,.66,.89,1,1.66,1,.88,0,1.54-.28,2-.52l.18,.95Zm-1.42-6.18c-1.21,0-2.12,1.18-2.43,2.35,2,.02,3.57-.25,3.57-1.4,0-.62-.46-.95-1.14-.95Z"/><path class="cls-4" d="M32.85,192.07c0-.45,.08-1.15,.17-1.92h-.03c-.82,1.54-1.83,2.09-2.89,2.09-1.31,0-2.14-1.05-2.14-2.46,0-2.58,1.91-5.32,5.15-5.32,.71,0,1.49,.12,2,.29l-.75,3.88c-.25,1.29-.35,2.62-.32,3.45h-1.18Zm.83-6.49c-.18-.05-.46-.11-.89-.11-1.92,0-3.49,2.01-3.51,4.08,0,.83,.29,1.65,1.28,1.65,1.06,0,2.32-1.38,2.69-3.37l.43-2.25Z"/><path class="cls-4" d="M35.95,192.07l2.08-10.92h1.28l-2.09,10.92h-1.26Z"/><path class="cls-4" d="M42.8,182.63l-.38,2h1.78l-.2,1h-1.78l-.69,3.61c-.08,.42-.14,.8-.14,1.2,0,.45,.21,.71,.71,.71,.22,0,.43-.02,.6-.05l-.06,1c-.23,.09-.62,.14-.98,.14-1.14,0-1.57-.69-1.57-1.45,0-.43,.05-.86,.15-1.4l.74-3.77h-1.08l.2-1h1.06l.32-1.68,1.32-.32Z"/><path class="cls-4" d="M44.28,192.07l2.08-10.92h1.28l-.92,4.8h.03c.63-.91,1.54-1.49,2.66-1.49,.85,0,1.85,.52,1.85,2,0,.4-.05,.88-.12,1.26l-.83,4.35h-1.28l.83-4.29c.05-.28,.09-.62,.09-1.03,0-.69-.32-1.23-1.15-1.23-.98,0-2.23,1.15-2.54,2.83l-.69,3.72h-1.28Z"/><path class="cls-4" d="M58.57,181.7l-1.97,10.37h-1.28l1.97-10.37h1.28Z"/><path class="cls-4" d="M58.87,192.07l1-5.28c.17-.83,.26-1.55,.35-2.17h1.14l-.18,1.46h.03c.66-1.05,1.66-1.63,2.75-1.63,.89,0,1.89,.51,1.89,2.08,0,.32-.06,.8-.14,1.2l-.83,4.34h-1.28l.81-4.29c.06-.29,.11-.65,.11-.95,0-.75-.29-1.31-1.17-1.31s-2.2,1.09-2.54,2.94l-.68,3.61h-1.28Z"/><path class="cls-4" d="M67.15,190.78c.35,.22,1,.46,1.6,.46,.86,0,1.42-.55,1.42-1.22,0-.58-.26-.94-1.03-1.37-.86-.48-1.34-1.14-1.34-1.89,0-1.31,1.12-2.31,2.69-2.31,.68,0,1.28,.18,1.55,.37l-.35,.97c-.26-.15-.74-.34-1.29-.34-.77,0-1.32,.48-1.32,1.12,0,.54,.35,.88,1.02,1.25,.83,.48,1.4,1.12,1.4,1.95,0,1.57-1.28,2.45-2.85,2.45-.8,0-1.51-.25-1.85-.51l.35-.94Z"/><path class="cls-4" d="M80.08,184.63l-1,5.28c-.15,.83-.26,1.55-.34,2.17h-1.15l.2-1.4h-.03c-.66,.97-1.65,1.57-2.63,1.57s-1.95-.46-1.95-2.15c0-.35,.05-.75,.14-1.25l.8-4.21h1.28l-.78,4.15c-.09,.42-.14,.77-.14,1.09,0,.77,.32,1.29,1.2,1.29,.92,0,2.11-1.08,2.42-2.72l.72-3.81h1.28Z"/><path class="cls-4" d="M80.92,192.07l.91-4.8c.18-.97,.31-1.95,.38-2.65h1.12c-.06,.52-.12,1.05-.2,1.62h.05c.48-1.02,1.28-1.78,2.28-1.78,.11,0,.26,.02,.35,.03l-.25,1.26c-.08-.02-.2-.03-.34-.03-1.11,0-2.09,1.34-2.42,3.08l-.62,3.28h-1.28Z"/><path class="cls-4" d="M90.51,192.07c0-.45,.08-1.15,.17-1.92h-.03c-.82,1.54-1.83,2.09-2.89,2.09-1.31,0-2.14-1.05-2.14-2.46,0-2.58,1.91-5.32,5.15-5.32,.71,0,1.49,.12,2,.29l-.75,3.88c-.25,1.29-.35,2.62-.32,3.45h-1.18Zm.83-6.49c-.18-.05-.46-.11-.89-.11-1.92,0-3.49,2.01-3.51,4.08,0,.83,.29,1.65,1.28,1.65,1.06,0,2.32-1.38,2.69-3.37l.43-2.25Z"/><path class="cls-4" d="M93.61,192.07l1-5.28c.17-.83,.26-1.55,.35-2.17h1.14l-.18,1.46h.03c.66-1.05,1.66-1.63,2.75-1.63,.89,0,1.89,.51,1.89,2.08,0,.32-.06,.8-.14,1.2l-.83,4.34h-1.28l.82-4.29c.06-.29,.11-.65,.11-.95,0-.75-.29-1.31-1.17-1.31s-2.2,1.09-2.54,2.94l-.68,3.61h-1.28Z"/><path class="cls-4" d="M106.94,191.78c-.38,.18-1.15,.45-2.15,.45-1.92,0-2.86-1.29-2.86-2.88,0-2.54,1.88-4.88,4.55-4.88,.69,0,1.32,.2,1.55,.32l-.37,1.02c-.29-.14-.71-.28-1.26-.28-1.94,0-3.15,1.91-3.15,3.66,0,1.2,.63,1.98,1.85,1.98,.75,0,1.34-.23,1.72-.42l.12,1.02Z"/><path class="cls-4" d="M113.56,191.64c-.55,.32-1.46,.58-2.46,.58-1.97,0-2.83-1.34-2.83-2.98,0-2.25,1.66-4.78,4.06-4.78,1.42,0,2.18,.85,2.18,1.91,0,1.95-2.2,2.48-4.95,2.43-.06,.32-.02,1.02,.15,1.42,.29,.66,.89,1,1.66,1,.88,0,1.54-.28,2-.52l.18,.95Zm-1.42-6.18c-1.21,0-2.12,1.18-2.43,2.35,2,.02,3.57-.25,3.57-1.4,0-.62-.46-.95-1.14-.95Z"/><path class="cls-4" d="M118.17,190.47c.55,.38,1.34,.66,2.2,.66,1.17,0,2.25-.69,2.25-1.95,0-.77-.45-1.34-1.52-1.94-1.32-.71-2.06-1.54-2.06-2.66,0-1.85,1.6-3.05,3.51-3.05,1,0,1.75,.31,2.12,.55l-.46,1.03c-.32-.19-.97-.49-1.8-.48-1.28,0-2.05,.85-2.05,1.69s.52,1.32,1.6,1.92c1.28,.68,1.98,1.49,1.98,2.77,0,1.8-1.42,3.2-3.74,3.2-1.05,0-2.06-.34-2.49-.71l.46-1.05Z"/><path class="cls-4" d="M132.38,184.63l-1,5.28c-.15,.83-.26,1.55-.34,2.17h-1.15l.2-1.4h-.03c-.66,.97-1.65,1.57-2.63,1.57s-1.95-.46-1.95-2.15c0-.35,.05-.75,.14-1.25l.8-4.21h1.28l-.78,4.15c-.09,.42-.14,.77-.14,1.09,0,.77,.32,1.29,1.2,1.29,.92,0,2.11-1.08,2.41-2.72l.72-3.81h1.28Z"/><path class="cls-4" d="M132.55,195.12l1.49-7.84c.15-.89,.31-1.89,.42-2.65h1.17l-.22,1.4h.03c.68-.97,1.66-1.57,2.68-1.57,1.62,0,2.29,1.32,2.29,2.69,0,2.62-1.88,5.09-4.35,5.09-.8,0-1.32-.17-1.62-.34h-.03l-.6,3.21h-1.26Zm2.09-4.29c.32,.26,.81,.42,1.42,.42,1.65,0,3.03-2.05,3.03-4,0-.78-.35-1.72-1.43-1.72-1,0-2.26,1.15-2.65,3.23l-.37,2.08Z"/><path class="cls-4" d="M140.63,195.12l1.49-7.84c.15-.89,.31-1.89,.42-2.65h1.17l-.22,1.4h.03c.68-.97,1.66-1.57,2.68-1.57,1.62,0,2.29,1.32,2.29,2.69,0,2.62-1.88,5.09-4.35,5.09-.8,0-1.32-.17-1.62-.34h-.03l-.6,3.21h-1.26Zm2.09-4.29c.32,.26,.82,.42,1.42,.42,1.65,0,3.03-2.05,3.03-4,0-.78-.35-1.72-1.43-1.72-1,0-2.26,1.15-2.65,3.23l-.37,2.08Z"/><path class="cls-4" d="M149.38,192.07l2.08-10.92h1.28l-2.09,10.92h-1.26Z"/><path class="cls-4" d="M158.25,191.64c-.55,.32-1.46,.58-2.46,.58-1.97,0-2.83-1.34-2.83-2.98,0-2.25,1.66-4.78,4.06-4.78,1.42,0,2.18,.85,2.18,1.91,0,1.95-2.2,2.48-4.95,2.43-.06,.32-.02,1.02,.15,1.42,.29,.66,.89,1,1.66,1,.88,0,1.54-.28,2-.52l.18,.95Zm-1.42-6.18c-1.21,0-2.12,1.18-2.43,2.35,2,.02,3.57-.25,3.57-1.4,0-.62-.46-.95-1.14-.95Z"/><path class="cls-4" d="M159.85,192.07l1-5.28c.15-.83,.26-1.55,.34-2.17h1.12l-.2,1.4h.05c.69-1.03,1.63-1.57,2.61-1.57,1.14,0,1.68,.72,1.74,1.66,.66-1.08,1.61-1.65,2.74-1.66,.86,0,1.8,.55,1.8,1.95,0,.35-.05,.85-.12,1.26l-.83,4.4h-1.25l.8-4.29c.06-.28,.11-.66,.11-.97,0-.79-.29-1.29-1.12-1.29-.92,0-2.01,1.08-2.32,2.74l-.72,3.81h-1.23l.83-4.37c.06-.32,.09-.62,.09-.91,0-.63-.17-1.28-1.11-1.28s-2.09,1.23-2.38,2.82l-.69,3.74h-1.25Z"/><path class="cls-4" d="M177.65,191.64c-.55,.32-1.46,.58-2.46,.58-1.97,0-2.83-1.34-2.83-2.98,0-2.25,1.66-4.78,4.06-4.78,1.42,0,2.18,.85,2.18,1.91,0,1.95-2.2,2.48-4.95,2.43-.06,.32-.02,1.02,.15,1.42,.29,.66,.89,1,1.66,1,.88,0,1.54-.28,2-.52l.18,.95Zm-1.42-6.18c-1.21,0-2.12,1.18-2.43,2.35,2,.02,3.57-.25,3.57-1.4,0-.62-.46-.95-1.14-.95Z"/><path class="cls-4" d="M179.25,192.07l1-5.28c.17-.83,.26-1.55,.35-2.17h1.14l-.18,1.46h.03c.66-1.05,1.66-1.63,2.75-1.63,.89,0,1.89,.51,1.89,2.08,0,.32-.06,.8-.14,1.2l-.83,4.34h-1.28l.82-4.29c.06-.29,.11-.65,.11-.95,0-.75-.29-1.31-1.17-1.31s-2.2,1.09-2.54,2.94l-.68,3.61h-1.28Z"/><path class="cls-4" d="M190.8,182.63l-.38,2h1.78l-.2,1h-1.78l-.69,3.61c-.08,.42-.14,.8-.14,1.2,0,.45,.21,.71,.71,.71,.22,0,.43-.02,.6-.05l-.06,1c-.23,.09-.62,.14-.98,.14-1.14,0-1.57-.69-1.57-1.45,0-.43,.05-.86,.15-1.4l.74-3.77h-1.08l.2-1h1.06l.32-1.68,1.32-.32Z"/></g><g><path class="cls-5" d="M11.51,116.97h8.06v35.16H11.51v-35.16Z"/><path class="cls-5" d="M32.73,124.74h-.1l.49,27.39h-7.43v-35.16h11.75l5.92,27.39,.1-.1-.58-27.29h7.48v35.16h-11.75l-5.88-27.39Z"/><path class="cls-4" d="M55.98,116.97h11.61c5.83,0,8.98,2.14,8.98,8.55v6.12c0,8.4-2.57,10.49-9.81,10.49h-2.72v10h-8.06v-35.16Zm10.44,18.84c1.17,0,1.8-.63,1.8-2.57v-8.45c0-1.17-.44-1.51-1.84-1.51h-2.33v12.53h2.38Z"/><path class="cls-4" d="M79.77,123.82c0-5.73,3.69-7.24,10.44-7.24s10.44,1.51,10.44,7.24v21.46c0,5.73-3.69,7.23-10.44,7.23s-10.44-1.51-10.44-7.23v-21.46Zm12.53,.44c0-1.31-.58-1.65-2.09-1.65s-2.09,.34-2.09,1.65v20.59c0,1.31,.58,1.65,2.09,1.65s2.09-.34,2.09-1.65v-20.59Z"/><path class="cls-4" d="M105.02,125.13c0-5.63,2.14-8.55,8.11-8.55h3.01c7.04,0,9.18,1.94,9.18,6.02v6.41h-7.77v-4.61c0-1.07-.73-1.51-2.04-1.51-1.41,0-2.14,.44-2.14,1.51v20.3c0,1.07,.73,1.51,2.09,1.51s2.09-.44,2.09-1.51v-5.54h7.77v5.2c0,6.22-2.38,8.16-9.18,8.16h-3.01c-5.97,0-8.11-2.96-8.11-7.53v-19.86Z"/><path class="cls-4" d="M129.79,116.97h8.06v14.81l-.05,.1h.1l5.15-14.91h8.64l-6.85,16.7,7.72,18.45h-8.64l-6.02-15.68h-.1l.05,.1v15.59h-8.06v-35.16Z"/><path class="cls-4" d="M155.03,116.97h15.49v6.31h-7.43v7.72h6.89v6.02h-6.89v8.79h8.01v6.31h-16.07v-35.16Z"/><path class="cls-4" d="M179.36,123.28h-5.63v-6.31h19.33v6.31h-5.63v28.84h-8.06v-28.84Z"/></g><g><path class="cls-4" d="M53.84,67.53c1.42,1.72,2.94,3.36,4.54,4.91,.28,.27,.56,.53,.84,.8,.16,.15,.33,.3,.5,.45,3.76-14.46,7.2-32.62,9.85-58.84l67.1,14.18c-2.63,27.06-7.69,46.31-13.01,62.8,.35-.02,.7-.05,1.05-.07,.11-.34,.22-.69,.33-1.03,2.08-4.52,4.1-9.07,5.99-13.68,2.31-5.62,4.41-11.29,6.34-17.01,1.94-5.78,3.68-11.52,5.22-17.25l.59-2.17-2.26-.5c-.09-.02-.22-.05-.37-.09l-.35-.11c-1.41-.45-2.59-1.26-3.48-2.27,.34-2.76,.65-5.6,.94-8.52l.08-.83-3.97-.84-31.03-9.97-.75,2.1c-.13,.37-.29,.72-.47,1.05l-16.29-3.44c.72-3.14,1.45-6.41,2.17-9.82l65.09,20.91c-5.75,27.56-13.17,46.56-20.49,62.78,2.22-.27,4.48-.58,6.76-.95,6.95-15.75,13.98-34.5,19.47-60.79l1.01-4.83-39.22-12.6L83.01,0l-1.34,6.3c-.43,2-.85,3.96-1.28,5.86l-17.51-3.7-.62,6.12-.03,.27c-2.3,22.72-5.2,39.3-8.38,52.67Zm83.77-23.83c-1.18,4.25-2.43,8.43-3.78,12.55,.8-4.23,1.53-8.67,2.19-13.37,.5,.3,1.03,.58,1.59,.81Z"/><path class="cls-5" d="M133.83,56.25c1.34-4.12,2.6-8.3,3.78-12.55-.56-.24-1.08-.51-1.59-.81-.66,4.69-1.39,9.14-2.19,13.37Z"/><path class="cls-5" d="M126.83,91.59c1.7-.15,3.42-.33,5.17-.53,7.32-16.22,14.74-35.22,20.49-62.78L87.39,7.37c-.73,3.41-1.45,6.68-2.17,9.82l16.29,3.44c.18-.34,.34-.69,.47-1.05l.75-2.1,31.03,9.97,3.97,.84-.08,.83c-.28,2.93-.6,5.77-.94,8.52,.89,1.02,2.07,1.82,3.48,2.27l.35,.11c.15,.04,.28,.07,.37,.09l2.26,.5-.59,2.17c-1.54,5.73-3.28,11.47-5.22,17.25-1.92,5.72-4.03,11.38-6.34,17.01-1.89,4.61-3.91,9.16-5.99,13.68-.11,.35-.22,.69-.33,1.03,.39-.03,.79-.06,1.19-.09,.31-.02,.62-.05,.93-.08Z"/><path class="cls-4" d="M125.09,62.11c1.3-5.93,2.4-11.81,3.31-17.66l.35-2.22-2.3-.27c-.09-.01-.22-.03-.38-.06l-.36-.07c-2.13-.45-3.85-1.69-4.92-3.33-1.07-1.64-1.49-3.68-.99-5.73l.52-2.16-2.24-.47-32.13-6.79-.52,2.16c-.46,1.91-1.62,3.5-3.17,4.56-1.56,1.07-3.51,1.6-5.5,1.39l-2.26-.24-.3,2.17c-.87,6.36-1.88,12.72-3.05,19.09-1.17,6.36-2.51,12.66-4.04,18.87-.57,2.31-1.17,4.61-1.8,6.9,.55,.4,1.13,.8,1.73,1.2,.26,.17,.51,.34,.77,.51,.29,.19,.58,.37,.88,.55,.48,.3,.88,.54,1.24,.76,1.03,.61,2.08,1.2,3.12,1.74,1.07,.56,2.13,1.08,3.17,1.56,1.44,.66,3,1.31,4.64,1.93l.27,.1c.14,.05,.27,.1,.41,.15,.71,.26,1.44,.51,2.18,.76h0c.76,.25,1.52,.49,2.3,.73,.49,.15,.98,.29,1.46,.42h0c.15,.04,.31,.09,.45,.13,1.31,.36,2.64,.69,3.95,.98h.06c.51,.13,1.03,.23,1.52,.33,1.21,.25,2.49,.48,3.81,.69l.24,.04c.11,.02,.22,.04,.34,.05,.13,.02,.26,.04,.39,.06,1.43,.22,2.9,.4,4.38,.56h0c.15,.02,.31,.04,.46,.05,1.17,.12,2.36,.22,3.55,.3h0c.09,0,.18,.01,.26,.02,.7,.05,1.42,.09,2.15,.12l.42-.02,.19,.05h0c.2,0,.4,.01,.6,.02,.15,0,.29,0,.44,.01h.15c.23,.01,.46,.02,.69,.03,1.73,.05,3.47,.06,5.19,.03,1.37-4.13,2.68-8.28,3.9-12.47,1.68-5.82,3.16-11.66,4.45-17.53Zm-8.87,16.4c-.34,1.17-.69,2.34-1.04,3.51-1.84-9.12-9.08-16.73-19.12-18.85-9.03-1.91-18.06,1.12-24.02,7.21,1.37-5.72,2.57-11.46,3.63-17.2,1.06-5.73,1.98-11.5,2.8-17.31,2.34-.16,4.55-.95,6.42-2.23,1.85-1.26,3.35-3,4.29-5.08l25.82,5.46c-.11,2.48,.58,4.86,1.88,6.86,1.5,2.3,3.81,4.1,6.66,4.97-.85,5.21-1.82,10.33-2.93,15.37-1.27,5.76-2.72,11.51-4.39,17.28Z"/><path class="cls-4" d="M99.85,41.69c-2.63-.55-5.25,1.05-5.86,3.59-.61,2.54,1.03,5.04,3.65,5.6,2.63,.55,5.25-1.05,5.86-3.59,.61-2.54-1.03-5.04-3.65-5.6Z"/><path class="cls-5" d="M123.55,45.86c-2.85-.87-5.16-2.67-6.66-4.97-1.31-2-2-4.39-1.88-6.86l-25.82-5.46c-.94,2.08-2.44,3.82-4.29,5.08-1.86,1.28-4.08,2.07-6.42,2.23-.82,5.8-1.75,11.58-2.8,17.31-1.06,5.74-2.26,11.47-3.63,17.2,5.97-6.09,14.99-9.12,24.02-7.21,10.03,2.12,17.27,9.74,19.12,18.85,.35-1.17,.7-2.34,1.04-3.51,1.67-5.77,3.13-11.52,4.39-17.28,1.11-5.04,2.08-10.17,2.93-15.37Zm-20.04,1.43c-.61,2.54-3.23,4.14-5.86,3.59-2.63-.56-4.26-3.06-3.65-5.6,.61-2.54,3.23-4.14,5.86-3.59,2.63,.56,4.26,3.06,3.65,5.6Z"/><path class="cls-5" d="M64.84,77.88c.16,.11,.31,.23,.48,.34,.63-2.29,1.23-4.59,1.8-6.9,1.53-6.21,2.86-12.51,4.04-18.87,1.17-6.36,2.18-12.73,3.05-19.09l.3-2.17,2.26,.24c1.99,.21,3.93-.32,5.5-1.39,1.54-1.06,2.71-2.64,3.17-4.56l.52-2.16,32.13,6.79,2.24,.47-.52,2.16c-.49,2.05-.08,4.09,.99,5.73,1.07,1.64,2.8,2.88,4.92,3.33l.36,.07c.16,.03,.28,.04,.38,.06l2.3,.27-.35,2.22c-.91,5.85-2.01,11.73-3.31,17.66-1.29,5.87-2.77,11.71-4.45,17.53-1.21,4.19-2.53,8.34-3.9,12.47,.24,0,.49,0,.73-.01,.17,0,.35,0,.52-.01l.75-.02c.32,0,.65-.02,.97-.03,1.27-.05,2.59-.12,3.94-.2,5.33-16.49,10.39-35.74,13.01-62.8L69.57,14.85c-2.66,26.22-6.1,44.37-9.85,58.84,1.63,1.48,3.35,2.89,5.12,4.19Z"/><path class="cls-4" d="M32.51,37.32c.35,1.4,1.81,2.25,3.27,1.9,1.46-.35,2.36-1.77,2.01-3.17-.06-.26-.17-.51-.31-.72-.59-.95-1.78-1.46-2.96-1.17-1.18,.28-2,1.27-2.08,2.38-.02,.26,0,.52,.07,.78Z"/><path class="cls-4" d="M157.88,90.53c.35,1.4,1.81,2.25,3.27,1.9,1.46-.35,2.36-1.77,2.01-3.17-.06-.26-.17-.51-.31-.72-.59-.95-1.78-1.46-2.96-1.17-1.18,.28-2,1.27-2.08,2.38-.02,.26,0,.52,.07,.78Z"/><g><path class="cls-2" d="M36.15,41.91c.14,.79,.29,1.56,.45,2.33"/><path class="cls-1" d="M37.76,48.96c13.39,47.24,70.93,53.79,112.7,44.07"/><path class="cls-2" d="M152.82,92.47c.77-.19,1.54-.39,2.3-.6"/></g></g><g><path class="cls-5" d="M80.89,158.22h-9.7v11.61h3.56v-2.92h7.07c2.52,0,3.27-1.99,3.27-3.72v-.99c0-2.28-.82-3.98-4.2-3.98Zm.55,4.57c0,.69-.32,1.24-1.15,1.24h-5.53v-2.92h5.23c1.07,0,1.46,.45,1.46,1.24v.45Z"/><polygon class="cls-5" points="90.58 158.22 87.01 158.22 87.01 169.83 98.58 169.83 98.58 166.85 90.58 166.85 90.58 158.22"/><path class="cls-5" d="M106.09,158.22l-6.29,11.61h3.98l1.04-2.05h7.22l1.11,2.05h3.96l-6.38-11.61h-4.64Zm.06,7.06l2.25-4.36,2.31,4.36h-4.56Z"/><polygon class="cls-5" points="130.62 166.65 130.58 166.65 123.9 158.22 118.38 158.22 118.38 169.83 121.94 169.83 121.94 161.39 121.97 161.39 128.66 169.83 134.18 169.83 134.18 158.22 130.62 158.22 130.62 166.65"/></g><g><path class="cls-4" d="M17.27,164.99h-4.93c-.66,0-1.19-.53-1.19-1.19s.53-1.19,1.19-1.19h4.93c.66,0,1.19,.53,1.19,1.19s-.53,1.19-1.19,1.19Z"/><path class="cls-4" d="M58.55,164.99h-4.93c-.66,0-1.19-.53-1.19-1.19s.53-1.19,1.19-1.19h4.93c.66,0,1.19,.53,1.19,1.19s-.53,1.19-1.19,1.19Z"/><path class="cls-4" d="M27.59,164.99h-4.93c-.66,0-1.19-.53-1.19-1.19s.53-1.19,1.19-1.19h4.93c.66,0,1.19,.53,1.19,1.19s-.53,1.19-1.19,1.19Z"/><path class="cls-4" d="M37.91,164.99h-4.93c-.66,0-1.19-.53-1.19-1.19s.53-1.19,1.19-1.19h4.93c.66,0,1.19,.53,1.19,1.19s-.53,1.19-1.19,1.19Z"/><path class="cls-4" d="M48.23,164.99h-4.93c-.66,0-1.19-.53-1.19-1.19s.53-1.19,1.19-1.19h4.93c.66,0,1.19,.53,1.19,1.19s-.53,1.19-1.19,1.19Z"/></g><g><path class="cls-4" d="M150.93,164.99h-4.93c-.66,0-1.19-.53-1.19-1.19s.53-1.19,1.19-1.19h4.93c.66,0,1.19,.53,1.19,1.19s-.53,1.19-1.19,1.19Z"/><path class="cls-4" d="M192.21,164.99h-4.93c-.66,0-1.19-.53-1.19-1.19s.53-1.19,1.19-1.19h4.93c.66,0,1.19,.53,1.19,1.19s-.53,1.19-1.19,1.19Z"/><path class="cls-4" d="M161.25,164.99h-4.93c-.66,0-1.19-.53-1.19-1.19s.53-1.19,1.19-1.19h4.93c.66,0,1.19,.53,1.19,1.19s-.53,1.19-1.19,1.19Z"/><path class="cls-4" d="M171.57,164.99h-4.93c-.66,0-1.19-.53-1.19-1.19s.53-1.19,1.19-1.19h4.93c.66,0,1.19,.53,1.19,1.19s-.53,1.19-1.19,1.19Z"/><path class="cls-4" d="M181.89,164.99h-4.93c-.66,0-1.19-.53-1.19-1.19s.53-1.19,1.19-1.19h4.93c.66,0,1.19,.53,1.19,1.19s-.53,1.19-1.19,1.19Z"/></g></svg>