<?xml version="1.0" encoding="UTF-8"?><svg id="Layer_1" xmlns="http://www.w3.org/2000/svg" viewBox="0 0 216 216"><defs><style>.cls-1{stroke-dasharray:0 0 4.86 4.86;}.cls-1,.cls-2{fill:none;stroke:#fff;stroke-linecap:round;stroke-miterlimit:10;stroke-width:2.37px;}.cls-3{fill:#002f87;}.cls-4{fill:#fff;}.cls-5{fill:#a2d45e;}</style></defs><g><rect class="cls-3" x="-1.61" y="-1.99" width="219.22" height="219.22"/><path class="cls-4" d="M216-.38V215.62H0V-.38H216m3.22-3.22H-3.22V218.84H219.22V-3.61h0Z"/></g><g><path class="cls-5" d="M17.58,127.48h8.06v35.16h-8.06v-35.16Z"/><path class="cls-5" d="M38.8,135.25h-.1l.49,27.39h-7.43v-35.16h11.75l5.92,27.39,.1-.1-.58-27.29h7.48v35.16h-11.75l-5.88-27.39Z"/><path class="cls-4" d="M62.05,127.48h11.61c5.83,0,8.98,2.14,8.98,8.55v6.12c0,8.4-2.57,10.49-9.81,10.49h-2.72v10h-8.06v-35.16Zm10.44,18.84c1.17,0,1.8-.63,1.8-2.57v-8.45c0-1.17-.44-1.51-1.84-1.51h-2.33v12.53h2.38Z"/><path class="cls-4" d="M85.85,134.33c0-5.73,3.69-7.24,10.44-7.24s10.44,1.51,10.44,7.24v21.46c0,5.73-3.69,7.23-10.44,7.23s-10.44-1.51-10.44-7.23v-21.46Zm12.53,.44c0-1.31-.58-1.65-2.09-1.65s-2.09,.34-2.09,1.65v20.59c0,1.31,.58,1.65,2.09,1.65s2.09-.34,2.09-1.65v-20.59Z"/><path class="cls-4" d="M111.09,135.64c0-5.63,2.14-8.55,8.11-8.55h3.01c7.04,0,9.18,1.94,9.18,6.02v6.41h-7.77v-4.61c0-1.07-.73-1.51-2.04-1.51-1.41,0-2.14,.44-2.14,1.51v20.3c0,1.07,.73,1.51,2.09,1.51s2.09-.44,2.09-1.51v-5.54h7.77v5.2c0,6.22-2.38,8.16-9.18,8.16h-3.01c-5.97,0-8.11-2.96-8.11-7.53v-19.86Z"/><path class="cls-4" d="M135.86,127.48h8.06v14.81l-.05,.1h.1l5.15-14.91h8.64l-6.85,16.7,7.72,18.45h-8.64l-6.02-15.68h-.1l.05,.1v15.59h-8.06v-35.16Z"/><path class="cls-4" d="M161.1,127.48h15.49v6.31h-7.43v7.72h6.89v6.02h-6.89v8.79h8.01v6.31h-16.07v-35.16Z"/><path class="cls-4" d="M185.43,133.8h-5.63v-6.31h19.33v6.31h-5.63v28.84h-8.06v-28.84Z"/></g><g><path class="cls-4" d="M59.91,86.96c1.42,1.72,2.94,3.36,4.54,4.91,.28,.27,.56,.53,.84,.8,.16,.15,.33,.3,.5,.45,3.76-14.46,7.2-32.62,9.85-58.84l67.1,14.18c-2.63,27.06-7.69,46.31-13.01,62.8,.35-.02,.7-.05,1.05-.07,.11-.34,.22-.69,.33-1.03,2.08-4.52,4.1-9.07,5.99-13.68,2.31-5.62,4.41-11.29,6.34-17.01,1.94-5.78,3.68-11.52,5.22-17.25l.59-2.17-2.26-.5c-.09-.02-.22-.05-.37-.09l-.35-.11c-1.41-.45-2.59-1.26-3.48-2.27,.34-2.76,.65-5.6,.94-8.52l.08-.83-3.97-.84-31.03-9.97-.75,2.1c-.13,.37-.29,.72-.47,1.05l-16.29-3.44c.72-3.14,1.45-6.41,2.17-9.82l65.09,20.91c-5.75,27.56-13.17,46.56-20.49,62.78,2.22-.27,4.48-.58,6.76-.95,6.95-15.75,13.98-34.5,19.47-60.79l1.01-4.83-39.22-12.6-37-11.89-1.34,6.3c-.43,2-.85,3.96-1.28,5.86l-17.51-3.7-.62,6.12-.03,.27c-2.3,22.72-5.2,39.3-8.38,52.67Zm83.77-23.83c-1.18,4.25-2.43,8.43-3.78,12.55,.8-4.23,1.53-8.67,2.19-13.37,.5,.3,1.03,.58,1.59,.81Z"/><path class="cls-5" d="M139.9,75.69c1.34-4.12,2.6-8.3,3.78-12.55-.56-.24-1.08-.51-1.59-.81-.66,4.69-1.39,9.14-2.19,13.37Z"/><path class="cls-5" d="M132.9,111.03c1.7-.15,3.42-.33,5.17-.53,7.32-16.22,14.74-35.22,20.49-62.78L93.46,26.8c-.73,3.41-1.45,6.68-2.17,9.82l16.29,3.44c.18-.34,.34-.69,.47-1.05l.75-2.1,31.03,9.97,3.97,.84-.08,.83c-.28,2.93-.6,5.77-.94,8.52,.89,1.02,2.07,1.82,3.48,2.27l.35,.11c.15,.04,.28,.07,.37,.09l2.26,.5-.59,2.17c-1.54,5.73-3.28,11.47-5.22,17.25-1.92,5.72-4.03,11.38-6.34,17.01-1.89,4.61-3.91,9.16-5.99,13.68-.11,.35-.22,.69-.33,1.03,.39-.03,.79-.06,1.19-.09,.31-.02,.62-.05,.93-.08Z"/><path class="cls-4" d="M131.16,81.54c1.3-5.93,2.4-11.81,3.31-17.66l.35-2.22-2.3-.27c-.09-.01-.22-.03-.38-.06l-.36-.07c-2.13-.45-3.85-1.69-4.92-3.33-1.07-1.64-1.49-3.68-.99-5.73l.52-2.16-2.24-.47-32.13-6.79-.52,2.16c-.46,1.91-1.62,3.5-3.17,4.56-1.56,1.07-3.51,1.6-5.5,1.39l-2.26-.24-.3,2.17c-.87,6.36-1.88,12.72-3.05,19.09-1.17,6.36-2.51,12.66-4.04,18.87-.57,2.31-1.17,4.61-1.8,6.9,.55,.4,1.13,.8,1.73,1.2,.26,.17,.51,.34,.77,.51,.29,.19,.58,.37,.88,.55,.48,.3,.88,.54,1.24,.76,1.03,.61,2.08,1.2,3.12,1.74,1.07,.56,2.13,1.08,3.17,1.56,1.44,.66,3,1.31,4.64,1.93l.27,.1c.14,.05,.27,.1,.41,.15,.71,.26,1.44,.51,2.18,.76h0c.76,.25,1.52,.49,2.3,.73,.49,.15,.98,.29,1.46,.42h0c.15,.04,.31,.09,.45,.13,1.31,.36,2.64,.69,3.95,.98h.06c.51,.13,1.03,.23,1.52,.33,1.21,.25,2.49,.48,3.81,.69l.24,.04c.11,.02,.22,.04,.34,.05,.13,.02,.26,.04,.39,.06,1.43,.22,2.9,.4,4.38,.56h0c.15,.02,.31,.04,.46,.05,1.17,.12,2.36,.22,3.55,.3h0c.09,0,.18,.01,.26,.02,.7,.05,1.42,.09,2.15,.12l.42-.02,.19,.05h0c.2,0,.4,.01,.6,.02,.15,0,.29,0,.44,.01h.15c.23,.01,.46,.02,.69,.03,1.73,.05,3.47,.06,5.19,.03,1.37-4.13,2.68-8.28,3.9-12.47,1.68-5.82,3.16-11.66,4.45-17.53Zm-8.87,16.4c-.34,1.17-.69,2.34-1.04,3.51-1.84-9.12-9.08-16.73-19.12-18.85-9.03-1.91-18.06,1.12-24.02,7.21,1.37-5.72,2.57-11.46,3.63-17.2,1.06-5.73,1.98-11.5,2.8-17.31,2.34-.16,4.55-.95,6.42-2.23,1.85-1.26,3.35-3,4.29-5.08l25.82,5.46c-.11,2.48,.58,4.86,1.88,6.86,1.5,2.3,3.81,4.1,6.66,4.97-.85,5.21-1.82,10.33-2.93,15.37-1.27,5.76-2.72,11.51-4.39,17.28Z"/><path class="cls-4" d="M105.92,61.13c-2.63-.55-5.25,1.05-5.86,3.59-.61,2.54,1.03,5.04,3.65,5.6,2.63,.55,5.25-1.05,5.86-3.59,.61-2.54-1.03-5.04-3.65-5.6Z"/><path class="cls-5" d="M129.62,65.29c-2.85-.87-5.16-2.67-6.66-4.97-1.31-2-2-4.39-1.88-6.86l-25.82-5.46c-.94,2.08-2.44,3.82-4.29,5.08-1.86,1.28-4.08,2.07-6.42,2.23-.82,5.8-1.75,11.58-2.8,17.31-1.06,5.74-2.26,11.47-3.63,17.2,5.97-6.09,14.99-9.12,24.02-7.21,10.03,2.12,17.27,9.74,19.12,18.85,.35-1.17,.7-2.34,1.04-3.51,1.67-5.77,3.13-11.52,4.39-17.28,1.11-5.04,2.08-10.17,2.93-15.37Zm-20.04,1.43c-.61,2.54-3.23,4.14-5.86,3.59-2.63-.56-4.26-3.06-3.65-5.6,.61-2.54,3.23-4.14,5.86-3.59,2.63,.56,4.26,3.06,3.65,5.6Z"/><path class="cls-5" d="M70.91,97.32c.16,.11,.31,.23,.48,.34,.63-2.29,1.23-4.59,1.8-6.9,1.53-6.21,2.86-12.51,4.04-18.87,1.17-6.36,2.18-12.73,3.05-19.09l.3-2.17,2.26,.24c1.99,.21,3.93-.32,5.5-1.39,1.54-1.06,2.71-2.64,3.17-4.56l.52-2.16,32.13,6.79,2.24,.47-.52,2.16c-.49,2.05-.08,4.09,.99,5.73,1.07,1.64,2.8,2.88,4.92,3.33l.36,.07c.16,.03,.28,.04,.38,.06l2.3,.27-.35,2.22c-.91,5.85-2.01,11.73-3.31,17.66-1.29,5.87-2.77,11.71-4.45,17.53-1.21,4.19-2.53,8.34-3.9,12.47,.24,0,.49,0,.73-.01,.17,0,.35,0,.52-.01l.75-.02c.32,0,.65-.02,.97-.03,1.27-.05,2.59-.12,3.94-.2,5.33-16.49,10.39-35.74,13.01-62.8l-67.1-14.18c-2.66,26.22-6.1,44.37-9.85,58.84,1.63,1.48,3.35,2.89,5.12,4.19Z"/><path class="cls-4" d="M38.58,56.76c.35,1.4,1.81,2.25,3.27,1.9,1.46-.35,2.36-1.77,2.01-3.17-.06-.26-.17-.51-.31-.72-.59-.95-1.78-1.46-2.96-1.17-1.18,.28-2,1.27-2.08,2.38-.02,.26,0,.52,.07,.78Z"/><path class="cls-4" d="M163.95,109.96c.35,1.4,1.81,2.25,3.27,1.9,1.46-.35,2.36-1.77,2.01-3.17-.06-.26-.17-.51-.31-.72-.59-.95-1.78-1.46-2.96-1.17-1.18,.28-2,1.27-2.08,2.38-.02,.26,0,.52,.07,.78Z"/><g><path class="cls-2" d="M42.22,61.35c.14,.79,.29,1.57,.45,2.33"/><path class="cls-1" d="M43.83,68.4c13.39,47.24,70.93,53.79,112.7,44.07"/><path class="cls-2" d="M158.89,111.91c.77-.19,1.54-.39,2.3-.6"/></g></g><g><path class="cls-5" d="M86.96,168.73h-9.7v11.61h3.56v-2.92h7.07c2.52,0,3.27-1.99,3.27-3.72v-.99c0-2.28-.82-3.98-4.2-3.98Zm.55,4.57c0,.69-.32,1.24-1.15,1.24h-5.53v-2.92h5.23c1.07,0,1.46,.45,1.46,1.24v.45Z"/><polygon class="cls-5" points="96.65 168.73 93.08 168.73 93.08 180.34 104.65 180.34 104.65 177.36 96.65 177.36 96.65 168.73"/><path class="cls-5" d="M112.16,168.73l-6.29,11.61h3.98l1.04-2.05h7.22l1.11,2.05h3.96l-6.38-11.61h-4.64Zm.06,7.06l2.25-4.36,2.31,4.36h-4.56Z"/><polygon class="cls-5" points="136.69 177.17 136.66 177.17 129.97 168.73 124.45 168.73 124.45 180.34 128.01 180.34 128.01 171.91 128.04 171.91 134.73 180.34 140.25 180.34 140.25 168.73 136.69 168.73 136.69 177.17"/></g><g><path class="cls-4" d="M23.34,175.51h-4.93c-.66,0-1.19-.53-1.19-1.19s.53-1.19,1.19-1.19h4.93c.66,0,1.19,.53,1.19,1.19s-.53,1.19-1.19,1.19Z"/><path class="cls-4" d="M64.62,175.51h-4.93c-.66,0-1.19-.53-1.19-1.19s.53-1.19,1.19-1.19h4.93c.66,0,1.19,.53,1.19,1.19s-.53,1.19-1.19,1.19Z"/><path class="cls-4" d="M33.66,175.51h-4.93c-.66,0-1.19-.53-1.19-1.19s.53-1.19,1.19-1.19h4.93c.66,0,1.19,.53,1.19,1.19s-.53,1.19-1.19,1.19Z"/><path class="cls-4" d="M43.98,175.51h-4.93c-.66,0-1.19-.53-1.19-1.19s.53-1.19,1.19-1.19h4.93c.66,0,1.19,.53,1.19,1.19s-.53,1.19-1.19,1.19Z"/><path class="cls-4" d="M54.3,175.51h-4.93c-.66,0-1.19-.53-1.19-1.19s.53-1.19,1.19-1.19h4.93c.66,0,1.19,.53,1.19,1.19s-.53,1.19-1.19,1.19Z"/></g><g><path class="cls-4" d="M157,175.51h-4.93c-.66,0-1.19-.53-1.19-1.19s.53-1.19,1.19-1.19h4.93c.66,0,1.19,.53,1.19,1.19s-.53,1.19-1.19,1.19Z"/><path class="cls-4" d="M198.28,175.51h-4.93c-.66,0-1.19-.53-1.19-1.19s.53-1.19,1.19-1.19h4.93c.66,0,1.19,.53,1.19,1.19s-.53,1.19-1.19,1.19Z"/><path class="cls-4" d="M167.32,175.51h-4.93c-.66,0-1.19-.53-1.19-1.19s.53-1.19,1.19-1.19h4.93c.66,0,1.19,.53,1.19,1.19s-.53,1.19-1.19,1.19Z"/><path class="cls-4" d="M177.64,175.51h-4.93c-.66,0-1.19-.53-1.19-1.19s.53-1.19,1.19-1.19h4.93c.66,0,1.19,.53,1.19,1.19s-.53,1.19-1.19,1.19Z"/><path class="cls-4" d="M187.96,175.51h-4.93c-.66,0-1.19-.53-1.19-1.19s.53-1.19,1.19-1.19h4.93c.66,0,1.19,.53,1.19,1.19s-.53,1.19-1.19,1.19Z"/></g></svg>