<svg xmlns="http://www.w3.org/2000/svg" viewBox="0 0 173.34 173.34"><title>crema-circle-color</title><path d="M86.67,0a86.67,86.67,0,1,0,86.67,86.67A86.67,86.67,0,0,0,86.67,0Z" fill="#fff"/><path d="M166.38,79.21c-6.4,0-15.76,8.48-20.68,16.45-2,3.12-4.73,8.85-4.93,12.46,5-7.23,17.34-17.44,17.34-17.44A4.29,4.29,0,0,1,161,88.93c1.57,0,4,3.62,4,4.36-2.17,1.12-3.94,8-3.94,8.1a30,30,0,0,0-1,6.23c0,5.73,2.56,4.86,2.56,6.11-.1.25-.59.37-1,.37-4.24-.12-5.72-6.35-5.72-9.72a36.91,36.91,0,0,1,1.78-10.22c-2.17,1.63-4.14,3.74-8.38,8.48-7.09,8.1-8.57,13.08-10,13.08-1.67,0-3.64-3.86-4-6.35v-1.12c0-14.21,18.23-36.76,29.56-36.76a3.66,3.66,0,0,1,1,.14l-.09-.52C132.16,35.26,62.71,29.32,24.4,35.44A80.36,80.36,0,0,0,6.73,76v0c8.34-17,25.76-32.27,39.87-34,3.06,0,5,2.47,7.1,7a9.54,9.54,0,0,1,1.87,5.06,2.38,2.38,0,0,1-.1.77C53.8,57.71,42.27,67.43,40.3,67.94c-.3,0-.39-.12-.39-.51,0-2.34,8.86-11,10.64-15.94-.4-1-1.38-1.3-2.47-1.3C34.29,50.19,6.8,78.7,6.8,98.79c0,5.44,2.17,10,7.89,10,8,0,19.7-10.24,24.62-17.37,0,0,.89-1.29,1.48-1.29a.62.62,0,0,1,.5.64,13.24,13.24,0,0,1-1.09,2.86c-4.92,9.2-14.18,21.64-24.33,21.64a10,10,0,0,1-5.23-1.62,80.67,80.67,0,0,0,156.7-27c0-2.51-.13-5-.36-7.43ZM63.28,90.43a13.21,13.21,0,0,1,1.19-6c-6.11,7.1-14.09,14.7-18.92,22.67-1.67,2.75-3.45,6.23-3.45,8.48-2.26-.25-3.05-2.25-3.05-4.86,0-3,1.48-5.73,2.07-7.23,3.64-6.85,7.49-14.33,14.38-26.17-6.5,4.86-7,5.49-7.49,5.49a.86.86,0,0,1-.78-.63c0-.62.78-1.24.78-1.24,2.17-1.87,8.58-7.73,10.35-7.73s4.33,2.62,4.33,5A9,9,0,0,1,61,81.46L51.56,95.91C62.2,83.2,67.72,79,67.72,79a1.27,1.27,0,0,1,1.08-.62c1.28,0,3.55,2.62,3.55,4.49,0,1.12-1.18,2.36-2.56,4.11s-2.86,4.48-2.86,7.1a4.53,4.53,0,0,0,.69,2.24.85.85,0,0,1-.49.13C64.86,96.41,63.28,93.42,63.28,90.43Zm18,21.8c-2.07,1.87-3.85,3.12-5.52,3.37-4.34,0-8.28-6.73-8.28-11.47C67.45,92.3,80.36,77.72,89.72,73a6.91,6.91,0,0,1,3-.74c2.27,0,6.31,6.85,6.7,9.22,0,7-11.13,14.33-16.94,14.33-2.27,0-3.06-.63-3.06-1.13,0-.74,1.58-.62,2.07-.74C87.16,92.3,95,82.58,95,78.84c-4.83,1.49-11.73,7.23-16.85,13.83-3,3.74-6.3,9.84-6.3,14.33,0,1.74.88,3.61,2.85,3.61,4.24-.37,12-7.22,15.57-11.71a1.1,1.1,0,0,1,.88-.62c.3,0,.4.25.4.74C91.19,100.89,86.27,107.75,81.25,112.23Zm50,1.25c-3.15,0-5.61-4-5.61-8.47,0-4.12,2-10,5.42-16.2-4,4.61-9.36,10.71-12.42,15-1.38,1.62-2.56,4-3.84,5.86a2.11,2.11,0,0,1-1.48,1c-1.28,0-3-2.24-3-4.11a15.14,15.14,0,0,1,1.77-5.85c3.55-8.1,10.15-19.94,10.15-19.94A149.35,149.35,0,0,0,104,100.27a44.66,44.66,0,0,0-6.89,12c-.5,1.12-.2,2.25-1.48,2.25s-3-3.12-3.06-5.11a12.09,12.09,0,0,1,1.09-5.24c4.83-9.09,10-18.94,16.65-29,0,0-5,4-6.11,4.36-.49,0-.49-.62-.49-.87-.2-1.25,7.19-6.85,8.47-6.85,1.58,0,4.63,2.36,4.63,4.86,0,3.61-10.34,16.07-12.51,19.31,1.08-1.12,5-5.61,9.16-10.22,2.07-2.24,9.46-10.84,12.22-10.84,1.87,0,4.43,2.74,4.43,4.86a5.37,5.37,0,0,1-.3,1.75,159.34,159.34,0,0,0-9.26,16.19c12.32-14.45,12.81-15,13.3-15,1.48,0,4,2.62,4,4.61,0,1.62-.49,2.49-1.67,4.61-2.86,5-5.32,10.84-5.42,15,0,1.86.1,5,2.17,5,.1,0,.29.12.29.25C133.25,113.11,132.07,113.48,131.28,113.48Z" fill="#231f20"/><path d="M32.19,123.5a5.81,5.81,0,0,1,0,11.61H27.06a.84.84,0,0,1-.82-.88v-9.85a.84.84,0,0,1,.82-.88Zm-4.32,1.76v8.09h4.32a4,4,0,0,0,0-8.09Z" fill="#fff"/><path d="M41.72,125.26v2.82h2.93a.88.88,0,0,1,0,1.75H41.72v3.52h3.91a.88.88,0,0,1,0,1.76H40.91a.84.84,0,0,1-.82-.88v-9.85a.84.84,0,0,1,.82-.88h4.72a.88.88,0,0,1,0,1.76Z" fill="#fff"/><path d="M54.28,132a3.09,3.09,0,0,1-3.21,3.26,3.74,3.74,0,0,1-2.73-1,1,1,0,0,1-.18-1.3.78.78,0,0,1,1.2-.12,2.45,2.45,0,0,0,1.71.65,1.43,1.43,0,0,0,1.55-1.5c0-2.37-4.59-2.28-4.59-5.71a2.86,2.86,0,0,1,3.12-3,3.61,3.61,0,0,1,2.49.82,1,1,0,0,1,.17,1.27.78.78,0,0,1-1.14.21,3,3,0,0,0-1.6-.55c-1,0-1.38.51-1.38,1.24C49.69,128.34,54.28,128.25,54.28,132Z" fill="#fff"/><path d="M58.14,134.32a.82.82,0,1,1-1.63,0v-10a.82.82,0,1,1,1.63,0Z" fill="#fff"/><path d="M66,125.08a4.24,4.24,0,0,0,0,8.45,3.82,3.82,0,0,0,2.61-1V130.2a.82.82,0,1,1,1.63,0v2.63a.9.9,0,0,1-.22.59,5.35,5.35,0,0,1-4,1.87,6,6,0,0,1,0-12,5.37,5.37,0,0,1,4,1.82.9.9,0,0,1,0,1.24.76.76,0,0,1-1.15,0A3.73,3.73,0,0,0,66,125.08Z" fill="#fff"/><path d="M74.4,126.4v7.92a.81.81,0,1,1-1.62,0v-10a.84.84,0,0,1,.81-.88c.33,0,.49.11.81.46L83,132.21v-7.92a.82.82,0,1,1,1.63,0v10a.84.84,0,0,1-.81.88c-.33,0-.49-.11-.82-.46Z" fill="#fff"/><path d="M95.78,132a3.1,3.1,0,0,1-3.21,3.26,3.77,3.77,0,0,1-2.74-1,1,1,0,0,1-.17-1.3.78.78,0,0,1,1.2-.12,2.45,2.45,0,0,0,1.71.65,1.43,1.43,0,0,0,1.55-1.5c0-2.37-4.59-2.28-4.59-5.71a2.86,2.86,0,0,1,3.12-3,3.61,3.61,0,0,1,2.49.82,1,1,0,0,1,.17,1.27.78.78,0,0,1-1.14.21,3,3,0,0,0-1.6-.55c-1,0-1.38.51-1.38,1.24C91.19,128.34,95.78,128.25,95.78,132Z" fill="#fff"/><path d="M97.85,125.26a.88.88,0,0,1,0-1.76h4.72a.88.88,0,0,1,0,1.76H101v9.06a.82.82,0,1,1-1.63,0v-9.06Z" fill="#fff"/><path d="M114.49,124.29a.82.82,0,1,1,1.63,0v5a5.56,5.56,0,1,1-11.08,0v-5a.82.82,0,1,1,1.63,0v5a3.92,3.92,0,1,0,7.82,0Z" fill="#fff"/><path d="M124.78,123.5a5.81,5.81,0,0,1,0,11.61h-5.13a.84.84,0,0,1-.82-.88v-9.85a.84.84,0,0,1,.82-.88Zm-4.32,1.76v8.09h4.32a4,4,0,0,0,0-8.09Z" fill="#fff"/><path d="M134.31,134.32a.82.82,0,1,1-1.63,0v-10a.82.82,0,1,1,1.63,0Z" fill="#fff"/><path d="M142.19,123.33a6,6,0,1,1-5.54,6A5.76,5.76,0,0,1,142.19,123.33Zm0,10.2a4.24,4.24,0,1,0-3.88-4.22A4,4,0,0,0,142.19,133.53Z" fill="#fff"/><path d="M29.82,29.49C65.29,21.36,107.3,22,144.61,30.63A80.5,80.5,0,0,0,29.82,29.49Z" fill="#9cc5ca"/></svg>