<?xml version="1.0" encoding="utf-8"?>
<!-- Generator: Adobe Illustrator 21.1.0, SVG Export Plug-In . SVG Version: 6.00 Build 0)  -->
<svg version="1.1" id="Layer_1" xmlns="http://www.w3.org/2000/svg" xmlns:xlink="http://www.w3.org/1999/xlink" x="0px" y="0px"
	 viewBox="0 0 162.4 162.4" style="enable-background:new 0 0 162.4 162.4;" xml:space="preserve">
<style type="text/css">
	.st0{display:none;}
	.st1{fill:#FFFFFF;}
	.st2{fill:#9CC5CA;}
</style>
<rect x="-33.6" y="-37.4" width="229.5" height="226"/>
<g id="DO_NOT_PRINT" class="st0">
</g>
<g>
	<rect x="-0.1" y="0" class="st1" width="162.5" height="162.4"/>
</g>
<path class="st2" d="M162.4,35.5V0H0v35.1C46.3,17.3,111.7,18.4,162.4,35.5z"/>
<path d="M0,43.7v36.6c8.4-17.2,26.1-32.8,40.4-34.5c3.1,0,5.1,2.5,7.2,7.1c1.3,1.6,1.9,4.1,1.9,5.1c0,0.3,0,0.4-0.1,0.8
	C47.7,61.7,36,71.6,34,72.1c-0.3,0-0.4-0.1-0.4-0.5c0-2.4,9-11.2,10.8-16.2c-0.4-1.1-1.4-1.3-2.5-1.3C27.9,54.1,0,83,0,103.4
	c0,5.5,2.2,10.1,8,10.1c8.1,0,20-10.4,25-17.6c0,0,0.9-1.3,1.5-1.3c0.2,0,0.5,0.3,0.5,0.7c0,0.7-1.1,2.9-1.1,2.9
	c-5,9.3-14.4,22-24.7,22c-3.4,0-6.7-2-9.3-5.2v47.4h162.5V76.5C122.6,32.2,29.6,31.6,0,43.7z"/>
<path class="st1" d="M45.4,100.4c10.8-12.9,16.4-17.2,16.4-17.2c0.4-0.5,0.7-0.6,1.1-0.6c1.3,0,3.6,2.7,3.6,4.5
	c0,1.1-1.2,2.4-2.6,4.2c-1.4,1.9-2.9,4.5-2.9,7.2c0,0.8,0.3,1.6,0.7,2.3c-0.2,0.1-0.4,0.1-0.5,0.1c-2.3,0-3.9-3-3.9-6.1
	c0-2,0.2-3.9,1.2-6.1c-6.2,7.2-14.3,14.9-19.2,23c-1.7,2.8-3.5,6.3-3.5,8.6c-2.3-0.3-3.1-2.3-3.1-4.9c0-3,1.5-5.8,2.1-7.3
	c3.7-7,7.6-14.5,14.6-26.5c-6.6,4.9-7.1,5.6-7.6,5.6S41,86.7,41,86.6c0-0.6,0.8-1.3,0.8-1.3c2.2-1.9,8.7-7.9,10.5-7.9
	c1.9,0,4.4,2.7,4.4,5.1c-0.3,1.3-0.9,2.1-1.7,3.3L45.4,100.4z"/>
<path class="st1" d="M61.5,108.8c0-12,13.1-26.8,22.6-31.6c1.3-0.6,2.4-0.8,3-0.8c2.3,0,6.4,7,6.8,9.4c0,7.1-11.3,14.5-17.2,14.5
	c-2.3,0-3.1-0.6-3.1-1.1c0-0.8,1.6-0.6,2.1-0.8c5.8-1.6,13.8-11.5,13.8-15.3c-4.9,1.5-11.9,7.3-17.1,14c-3,3.8-6.4,10-6.4,14.5
	c0,1.8,0.9,3.7,2.9,3.7c4.3-0.4,12.2-7.3,15.8-11.9c0.3-0.5,0.7-0.6,0.9-0.6c0.3,0,0.4,0.3,0.4,0.8c-0.4,1.9-5.4,8.8-10.5,13.4
	c-2.1,1.9-3.9,3.2-5.6,3.4C65.5,120.4,61.5,113.6,61.5,108.8z"/>
<path class="st1" d="M98.8,83.8c-0.5,0-0.5-0.6-0.5-0.9c-0.2-1.3,7.3-7,8.6-7c1.6,0,4.7,2.4,4.7,4.9c0,3.7-10.5,16.3-12.7,19.6
	c1.1-1.1,5.1-5.7,9.3-10.4c2.1-2.3,9.6-11,12.4-11c1.9,0,4.5,2.8,4.5,4.9c0,0.5-0.1,1.3-0.3,1.8c-4.8,7.1-9.4,16.4-9.4,16.4
	c12.5-14.7,13-15.2,13.5-15.2c1.5,0,4.1,2.7,4.1,4.7c0,1.6-0.5,2.5-1.7,4.7c-2.9,5.1-5.4,11-5.5,15.2c0,1.9,0.1,5.1,2.2,5.1
	c0.1,0,0.3,0.1,0.3,0.3c0,1-1.2,1.4-2,1.4c-3.2,0-5.7-4-5.7-8.6c0-4.2,2-10.1,5.5-16.4c-4,4.7-9.5,10.9-12.6,15.2
	c-1.4,1.6-2.6,4-3.9,5.9c-0.5,0.6-1,1-1.5,1c-1.3,0-3.1-2.3-3.1-4.2c0-1.3,0.5-3.2,1.8-5.9c3.6-8.2,10.3-20.2,10.3-20.2
	c-5.7,5.2-12.3,11.8-18.5,19.8c-3,3.8-5.1,7.3-7,12.1c-0.5,1.1-0.2,2.3-1.5,2.3s-3-3.2-3.1-5.2c0-1.8,0.3-3.7,1.1-5.3
	C93,99.6,98.3,89.6,105,79.4C105,79.3,99.9,83.4,98.8,83.8z"/>
<path class="st1" d="M166.5,82.6c0.5,1.1,0.6,1.5,0.6,2.5c0,3.2-1.2,5.7-2,5.7c-0.2-0.1-0.2-0.4-0.2-0.5c0-0.5,0.3-0.8,0.5-1.4
	c0.3-0.8,0.5-1.9,0.5-2.4c0-2.7-2.6-3-4-3c-6.5,0-16,8.6-21,16.7c-2,3.2-4.8,9-5,12.6c5.1-7.3,17.6-17.7,17.6-17.7
	c0.8-0.9,1.8-1.8,2.9-1.8c1.6,0,4.1,3.7,4.1,4.4c-2.2,1.1-4,8.1-4,8.2c-0.6,2.4-1,4.9-1,6.3c0,5.8,2.6,4.9,2.6,6.2
	c-0.1,0.3-0.6,0.4-1,0.4c-4.3-0.1-5.8-6.4-5.8-9.9c0-5.1,1.8-10.4,1.8-10.4c-2.2,1.6-4.2,3.8-8.5,8.6c-7.2,8.2-8.7,13.3-10.1,13.3
	c-1.7,0-3.7-3.9-4.1-6.4v-1.1c0-14.4,18.5-37.3,30-37.3c0.9,0,1.7,0.3,2.4,1C164.8,78.7,166,81.5,166.5,82.6z"/>
<g>
	<path class="st1" d="M42,131.3c5.1,0,9.4,4.3,9.4,9.8c0,5.5-4.3,9.8-9.4,9.8h-8.7c-0.7,0-1.4-0.7-1.4-1.4v-16.6
		c0-0.9,0.6-1.4,1.4-1.4H42V131.3z M34.7,134.2v13.6H42c3.8,0,6.5-3,6.5-6.8s-2.7-6.8-6.5-6.8H34.7z"/>
	<path class="st1" d="M58.1,134.2v4.7h5c0.7,0,1.4,0.7,1.4,1.4c0,0.9-0.6,1.4-1.4,1.4h-5v6h6.5c0.7,0,1.4,0.7,1.4,1.4
		c0,0.9-0.6,1.4-1.4,1.4h-8c-0.7,0-1.4-0.7-1.4-1.4v-16.6c0-0.9,0.6-1.4,1.4-1.4h8c0.7,0,1.4,0.7,1.4,1.4c0,0.9-0.6,1.4-1.4,1.4
		h-6.5V134.2z"/>
	<path class="st1" d="M79.2,145.6c0,3.1-2.1,5.5-5.4,5.5c-2,0-3.4-0.6-4.5-1.7c-0.3-0.3-1-1.1-0.3-2.1c0.6-0.7,1.4-0.7,2-0.1
		c0.9,0.9,2.1,1.1,2.8,1.1c1.7,0,2.6-1,2.6-2.6c0-4-7.8-3.8-7.8-9.7c0-2.8,1.8-5.1,5.3-5.1c1.6,0,3,0.4,4.3,1.4
		c0.3,0.3,0.9,1.1,0.3,2.1c-0.4,0.7-1.3,0.9-2,0.4c-0.9-0.6-2-0.9-2.7-0.9c-1.7,0-2.3,0.9-2.3,2.1C71.4,139.4,79.2,139.2,79.2,145.6
		z"/>
	<path class="st1" d="M85.8,149.6c0,0.9-0.6,1.4-1.4,1.4c-0.7,0-1.4-0.7-1.4-1.4v-16.9c0-0.9,0.6-1.4,1.4-1.4c0.7,0,1.4,0.7,1.4,1.4
		V149.6z"/>
	<path class="st1" d="M99,134c-3.8,0-6.5,3.3-6.5,7.1s2.7,7.1,6.5,7.1c1.7,0,3.3-0.7,4.4-1.7v-3.8c0-0.9,0.6-1.4,1.4-1.4
		c0.7,0,1.4,0.7,1.4,1.4v4.4c0,0.4-0.1,0.7-0.4,1c-1.7,1.8-4.1,3.1-6.8,3.1c-5.1,0-9.4-4.5-9.4-10.1S93.7,131,99,131
		c2.7,0,5,1.1,6.7,3.1c0.6,0.6,0.6,1.4,0,2.1s-1.4,0.6-2,0C102.5,134.8,101,134,99,134z"/>
	<path class="st1" d="M113.1,136.1v13.4c0,0.9-0.6,1.4-1.4,1.4c-0.7,0-1.4-0.7-1.4-1.4v-16.9c0-0.9,0.6-1.4,1.4-1.4
		c0.6,0,0.9,0.1,1.4,0.7l14.5,14.1v-13.4c0-0.9,0.6-1.4,1.4-1.4c0.7,0,1.4,0.7,1.4,1.4v16.9c0,0.9-0.6,1.4-1.4,1.4
		c-0.6,0-0.9-0.1-1.4-0.7L113.1,136.1z"/>
</g>
</svg>
