<svg xmlns="http://www.w3.org/2000/svg" viewBox="0 0 173.34 173.34"><title>crema_white-outline</title><path d="M51.79,136.1a1,1,0,0,0-1,1v11.92a1,1,0,1,0,1.93,0V137.14A1,1,0,0,0,51.79,136.1Z" fill="#fff"/><path d="M62.09,138.08a4.42,4.42,0,0,1,3.37,1.53.9.9,0,0,0,1.37,0,1.06,1.06,0,0,0,0-1.46A6.39,6.39,0,0,0,62.09,136a7.13,7.13,0,0,0,0,14.22A6.38,6.38,0,0,0,66.87,148a1.15,1.15,0,0,0,.25-.71v-3.12a1,1,0,1,0-1.93,0v2.74a4.47,4.47,0,0,1-3.1,1.22,5,5,0,0,1,0-10Z" fill="#fff"/><path d="M75.54,116c1.7-.26,3.49-1.52,5.59-3.42,5.1-4.55,10.09-11.5,10.49-13.39,0-.51-.1-.76-.4-.76a1.12,1.12,0,0,0-.89.63c-3.6,4.55-11.5,11.5-15.79,11.88-2,0-2.9-1.89-2.9-3.66,0-4.55,3.4-10.75,6.4-14.54,5.19-6.69,12.18-12.51,17.08-14,0,3.79-8,13.64-13.79,15.29-.5.12-2.1,0-2.1.76,0,.5.8,1.13,3.1,1.13,5.9,0,17.19-7.45,17.19-14.53C99.12,79,95,72,92.72,72a6.85,6.85,0,0,0-3,.76c-9.5,4.8-22.59,19.58-22.59,31.59C67.14,109.18,71.14,116,75.54,116Z" fill="#fff"/><path d="M83.25,136.1a1,1,0,0,0-1,1v9.41L72,136.64c-.39-.42-.58-.54-1-.54a1,1,0,0,0-1,1v11.92a1,1,0,1,0,1.93,0v-9.41l10.25,9.91c.38.42.58.54,1,.54a1,1,0,0,0,1-1V137.14A1,1,0,0,0,83.25,136.1Z" fill="#fff"/><path d="M104.4,79.36c1.1-.38,6.2-4.43,6.2-4.43-6.7,10.24-12,20.22-16.89,29.45a12.26,12.26,0,0,0-1.1,5.31c.1,2,1.8,5.18,3.1,5.18s1-1.14,1.5-2.28a45.35,45.35,0,0,1,7-12.13,151.11,151.11,0,0,1,18.49-19.84s-6.7,12-10.29,20.22a15.37,15.37,0,0,0-1.8,5.94c0,1.9,1.8,4.17,3.1,4.17a2.15,2.15,0,0,0,1.49-1c1.3-1.9,2.5-4.3,3.9-5.94,3.1-4.3,8.59-10.49,12.59-15.16-3.5,6.31-5.5,12.25-5.5,16.42,0,4.55,2.5,8.6,5.7,8.6.8,0,2-.38,2-1.39,0-.13-.2-.26-.3-.26-2.1,0-2.2-3.15-2.2-5,.1-4.17,2.6-10.11,5.5-15.16,1.2-2.15,1.69-3,1.69-4.68,0-2-2.59-4.68-4.09-4.68-.5,0-1,.51-13.49,15.17a161.74,161.74,0,0,1,9.39-16.43,5.48,5.48,0,0,0,.3-1.77c0-2.15-2.6-4.93-4.5-4.93-2.79,0-10.29,8.72-12.38,11-4.2,4.67-8.2,9.22-9.3,10.36,2.2-3.29,12.69-15.92,12.69-19.59,0-2.53-3.1-4.93-4.69-4.93-1.3,0-8.8,5.69-8.6,7C103.9,78.73,103.9,79.36,104.4,79.36Z" fill="#fff"/><path d="M42.75,139.55c0-.86.48-1.47,1.64-1.47a3.52,3.52,0,0,1,1.89.65.93.93,0,0,0,1.36-.25,1.18,1.18,0,0,0-.2-1.51,4.25,4.25,0,0,0-2.95-1,3.42,3.42,0,0,0-3.72,3.56c0,4.07,5.46,4,5.46,6.79a1.7,1.7,0,0,1-1.84,1.78,2.93,2.93,0,0,1-2-.78.94.94,0,0,0-1.43.15,1.17,1.17,0,0,0,.21,1.55,4.49,4.49,0,0,0,3.25,1.17,3.68,3.68,0,0,0,3.81-3.87C48.2,141.84,42.75,142,42.75,139.55Z" fill="#fff"/><path d="M92,139.55c0-.86.48-1.47,1.64-1.47a3.55,3.55,0,0,1,1.9.65.92.92,0,0,0,1.35-.25,1.19,1.19,0,0,0-.19-1.51,4.3,4.3,0,0,0-3-1A3.41,3.41,0,0,0,90,139.55c0,4.07,5.45,4,5.45,6.79a1.7,1.7,0,0,1-1.84,1.78,2.93,2.93,0,0,1-2-.78.94.94,0,0,0-1.43.15,1.17,1.17,0,0,0,.21,1.55,4.49,4.49,0,0,0,3.25,1.17,3.68,3.68,0,0,0,3.81-3.87C97.42,141.84,92,142,92,139.55Z" fill="#fff"/><path d="M22,136.2H15.91a1,1,0,0,0-1,1.05V149a1,1,0,0,0,1,1.05H22a6.91,6.91,0,0,0,0-13.8Zm0,11.71H16.88v-9.62H22a4.81,4.81,0,0,1,0,9.62Z" fill="#fff"/><path d="M37.94,138.29a1,1,0,0,0,0-2.09h-5.6a1,1,0,0,0-1,1.05V149a1,1,0,0,0,1,1.05h5.6a1,1,0,0,0,0-2.09H33.3v-4.18h3.48a1,1,0,0,0,0-2.09H33.3v-3.35Z" fill="#fff"/><path d="M44.93,107.41c4.9-8.08,13-15.79,19.19-23a13.51,13.51,0,0,0-1.2,6.07c0,3,1.6,6.06,3.89,6.06a.93.93,0,0,0,.5-.12,4.59,4.59,0,0,1-.7-2.28c0-2.65,1.5-5.3,2.9-7.2s2.6-3,2.6-4.17c0-1.9-2.3-4.55-3.6-4.55a1.29,1.29,0,0,0-1.1.63S61.82,83.15,51,96l9.59-14.66a9.16,9.16,0,0,0,1.7-3.29c0-2.4-2.5-5-4.4-5S49.63,79,47.43,80.87c0,0-.8.64-.8,1.27a.89.89,0,0,0,.8.63c.5,0,1-.63,7.59-5.56-7,12-10.89,19.59-14.58,26.54-.6,1.51-2.1,4.29-2.1,7.33,0,2.65.8,4.67,3.1,4.93C41.44,113.73,43.23,110.19,44.93,107.41Z" fill="#fff"/><path d="M105.47,136.2H99.86a1,1,0,0,0,0,2.09h1.84v10.77a1,1,0,1,0,1.93,0V138.29h1.84a1,1,0,0,0,0-2.09Z" fill="#fff"/><path d="M0,0V173.34H173.34V0ZM168,168H5.56v-57.6c2.54,3.2,5.9,5.21,9.27,5.21,10.29,0,19.68-12.62,24.68-22a13.32,13.32,0,0,0,1.1-2.89.64.64,0,0,0-.5-.66c-.6,0-1.5,1.32-1.5,1.32-5,7.23-16.89,17.61-25,17.61-5.8,0-8-4.6-8-10.12,0-20.37,27.87-49.29,41.86-49.29,1.1,0,2.1.26,2.5,1.31-1.8,5-10.79,13.81-10.79,16.17,0,.4.1.53.4.53,2-.53,13.68-10.39,15.38-13.28a2.49,2.49,0,0,0,.1-.79,9.62,9.62,0,0,0-1.9-5.12c-2.09-4.6-4.09-7.1-7.19-7.1C31.69,43.13,14,58.65,5.56,75.86V39.3c29.6-12.06,122-11.51,162.11,32.41a3.21,3.21,0,0,0-1.69-.44c-11.49,0-30,22.87-30,37.28v1.14c.4,2.52,2.4,6.44,4.09,6.44,1.4,0,2.9-5,10.1-13.27,4.29-4.8,6.29-7,8.49-8.59a37.47,37.47,0,0,0-1.8,10.36c0,3.41,1.5,9.73,5.8,9.86.39,0,.89-.13,1-.38,0-1.26-2.59-.38-2.59-6.19a31,31,0,0,1,1-6.32c0-.13,1.79-7.08,4-8.21,0-.76-2.5-4.43-4.09-4.43a4.4,4.4,0,0,0-2.9,1.77s-12.49,10.36-17.59,17.69c.2-3.66,3-9.47,5-12.63,5-8.09,14.49-16.68,21-16.68a5.53,5.53,0,0,1,.56,0Zm0-136.9C117.3,14,51.94,12.91,5.56,30.65V5.56H168Z" fill="#fff"/><path d="M142.13,136.1a1,1,0,0,0-1,1v11.92a1,1,0,1,0,1.93,0V137.14A1,1,0,0,0,142.13,136.1Z" fill="#fff"/><path d="M152.43,136A7.13,7.13,0,1,0,159,143.1,6.85,6.85,0,0,0,152.43,136Zm0,12.13a5,5,0,1,1,4.6-5A4.74,4.74,0,0,1,152.43,148.12Z" fill="#fff"/><path d="M120.57,136.1a1,1,0,0,0-1,1v6a4.65,4.65,0,1,1-9.28,0v-6a1,1,0,1,0-1.93,0v6a6.59,6.59,0,1,0,13.14,0v-6A1,1,0,0,0,120.57,136.1Z" fill="#fff"/><path d="M131.79,136.2H125.7a1,1,0,0,0-1,1.05V149a1,1,0,0,0,1,1.05h6.09a6.91,6.91,0,0,0,0-13.8Zm0,11.71h-5.12v-9.62h5.12a4.81,4.81,0,0,1,0,9.62Z" fill="#fff"/></svg>