<svg xmlns="http://www.w3.org/2000/svg" viewBox="0 0 300.59 99.05"><title>direct-black</title><path d="M110.9,38.73h7a18.89,18.89,0,0,1,4.82.59,10.87,10.87,0,0,1,4,1.91,9.38,9.38,0,0,1,2.7,3.44,11.9,11.9,0,0,1,1,5.14,10.8,10.8,0,0,1-1,4.71,10.12,10.12,0,0,1-2.61,3.42A11.18,11.18,0,0,1,123,60a14.06,14.06,0,0,1-4.51.72H110.9Zm4.66,17.55H118a13,13,0,0,0,3-.34,6.36,6.36,0,0,0,2.4-1.14,5.4,5.4,0,0,0,1.6-2.08,7.69,7.69,0,0,0,.58-3.16,6.37,6.37,0,0,0-.58-2.82,5.59,5.59,0,0,0-1.57-2,7,7,0,0,0-2.31-1.16,9.92,9.92,0,0,0-2.8-.39h-2.75Z" fill="#231f20"/><path d="M133.52,38.73h4.66v22h-4.66Z" fill="#231f20"/><path d="M142.42,38.73h8.19a14.43,14.43,0,0,1,3.06.32,7.11,7.11,0,0,1,2.54,1.09,5.31,5.31,0,0,1,1.73,2.06,7.15,7.15,0,0,1,.65,3.22,6.66,6.66,0,0,1-1.17,4A5.24,5.24,0,0,1,154,51.45l5.38,9.31h-5.58L149.38,52h-2.3v8.81h-4.66Zm4.66,9.11h2.75c.42,0,.86,0,1.33,0a4.15,4.15,0,0,0,1.27-.28,2.25,2.25,0,0,0,.94-.73,2.31,2.31,0,0,0,.38-1.4,2.39,2.39,0,0,0-.33-1.34,2.18,2.18,0,0,0-.84-.76,3.5,3.5,0,0,0-1.16-.36,8.19,8.19,0,0,0-1.29-.1h-3Z" fill="#231f20"/><path d="M162,38.73h14.37v4.48h-9.71v4.11h9.17V51.8h-9.17v4.48h10.25v4.48H162Z" fill="#231f20"/><path d="M194.44,44.45a4.7,4.7,0,0,0-1.69-1.34,5.46,5.46,0,0,0-2.32-.46,5.53,5.53,0,0,0-2.43.53,5.71,5.71,0,0,0-1.94,1.47,7.06,7.06,0,0,0-1.29,2.26,9,9,0,0,0,0,5.68A7.1,7.1,0,0,0,186,54.83a5.79,5.79,0,0,0,1.9,1.48,5.35,5.35,0,0,0,2.34.53,5.11,5.11,0,0,0,2.54-.62,5.19,5.19,0,0,0,1.83-1.75l3.88,3a8.21,8.21,0,0,1-3.41,2.9,10.2,10.2,0,0,1-4.24.93,12.54,12.54,0,0,1-4.57-.81,10.33,10.33,0,0,1-3.61-2.32,10.46,10.46,0,0,1-2.38-3.65,13.95,13.95,0,0,1,0-9.59,10.59,10.59,0,0,1,2.38-3.66A10.47,10.47,0,0,1,186.31,39a12.75,12.75,0,0,1,4.57-.8,10.24,10.24,0,0,1,1.87.17,9.4,9.4,0,0,1,1.91.54,8.27,8.27,0,0,1,1.81,1A7.19,7.19,0,0,1,198,41.4Z" fill="#231f20"/><path d="M205.16,43h-6V38.73h16.73V43h-6V60.76h-4.66Z" fill="#231f20"/><path d="M49.52,96.9A47.38,47.38,0,1,0,2.15,49.53,47.43,47.43,0,0,0,49.52,96.9Zm0-92.24A44.87,44.87,0,0,1,94.39,49.52c0,.54,0,1.07,0,1.61-1,0-7.63.11-10.55.11s-4.78-.11-5.23-.11c-.14,0-.22.07-.22.29v.85c0,.18.08.33.3.33H80.2c1,0,1.32.37,1.32,1.69V57c0,1.92-.07,3-.88,3.39-1.25.66-2.65.62-5,.62-3.66,0-6.29-2.3-9.31-4.75-.46-.37-.72-.19-.84,0s-.6,1.4-.72,1.71A.86.86,0,0,0,65,59c2.54,2.82,6.87,4,10.36,4a21.28,21.28,0,0,0,10.46-2.43c.37-.15.59-.3.59-.59s-.15-.66-.15-1.18V54c0-1.07.45-1.36,1.11-1.36h6.93A44.86,44.86,0,0,1,6.76,63.11c1.63,0,4-.08,5.29-.08,2.29,0,3.54.11,3.91.11.22,0,.29-.11.29-.29V62c0-.19,0-.3-.26-.3H15c-.88,0-1.25-.52-1.25-1,0-2,4.2-14.18,5.3-17.42h.15l5.3,13.16s1.21,2.88,2,2.88c1.15,0,2.89-4.06,2.89-4.06s5-11.09,5.27-11.87l.07,0,5.73,17a.89.89,0,0,1-.89,1.29h-.7c-.25,0-.33.11-.33.3v.92c0,.18.08.25.3.25l3-.06a1,1,0,0,0,.7-.31,1.16,1.16,0,0,0,.38-.5c.15-.4,6.67-14.14,7-15.17h.14l6.67,15.06c.14.44.4.81.92.81,2,0,2.63-.78,3.41-3,.41-1.16,2.81-7.93,5-13.67,2.59-6.83,6.56-8.83,10.54-8.83A8.33,8.33,0,0,1,82.71,40a14.6,14.6,0,0,1,2.94,5.08c.07.22.15.33.37.3l.88-.15c.15,0,.15-.22.15-.52l-.37-7.36c0-.3-.07-.52-.44-.52-.22,0-.33.11-.52.37l-.44.59c-.22.3-.44.41-.88.07a13.62,13.62,0,0,0-7.51-2c-6.8,0-11.68,1.45-14.83,11.26l-3,7.9-4.6-10.31s-1.92-4.59-2.76-4.59-2.8,4.28-2.8,4.28-5,10.64-5.27,11.41l-.07,0-5.73-17a.88.88,0,0,1,.88-1.29h.7c.26,0,.33-.11.33-.3v-.92c0-.18-.07-.25-.29-.25l-3.61.09c-.17,0-.43.53-.71,1.24C34,39.9,28.63,51.61,28.33,52.55h-.15L21.52,37c-.15-.44-.41-.81-.92-.81s-.81.59-1,1C18.9,39,11.39,59.65,11,60.46A1.82,1.82,0,0,1,9.4,61.67H6.34a44.85,44.85,0,0,1,43.18-57Z" fill="#fff"/><path d="M49.52,0A49.53,49.53,0,1,1,0,49.53,49.59,49.59,0,0,1,49.52,0Z" fill="#fff"/><path d="M49.52,99.05A49.53,49.53,0,1,0,0,49.53,49.59,49.59,0,0,0,49.52,99.05Zm0-96.9A47.38,47.38,0,1,1,2.15,49.53,47.43,47.43,0,0,1,49.52,2.15Z" fill="#9e9e9e"/><path d="M9.4,61.67A1.82,1.82,0,0,0,11,60.46c.37-.81,7.88-21.43,8.62-23.28.15-.36.44-1,1-1s.77.37.92.81l6.66,15.51h.15c.3-.94,5.67-12.65,6.79-15.16.28-.71.54-1.24.71-1.24l3.61-.09c.22,0,.29.07.29.25v.92c0,.19-.07.3-.33.3h-.7a.88.88,0,0,0-.88,1.29l5.73,17,.07,0c.29-.77,5.27-11.41,5.27-11.41s2-4.28,2.8-4.28,2.76,4.59,2.76,4.59l4.6,10.31,3-7.9c3.15-9.81,8-11.26,14.83-11.26a13.62,13.62,0,0,1,7.51,2c.44.34.66.23.88-.07l.44-.59c.19-.26.3-.37.52-.37.37,0,.44.22.44.52l.37,7.36c0,.3,0,.48-.15.52l-.88.15c-.22,0-.3-.08-.37-.3A14.6,14.6,0,0,0,82.71,40a8.33,8.33,0,0,0-6.12-2.58c-4,0-8,2-10.54,8.83C63.87,52,61.47,58.79,61.06,60c-.78,2.24-1.44,3-3.41,3-.52,0-.78-.37-.92-.81L50.06,47.1h-.14c-.33,1-6.85,14.77-7,15.17a1.16,1.16,0,0,1-.38.5,1,1,0,0,1-.7.31l-3,.06c-.22,0-.3-.07-.3-.25V62c0-.19.08-.3.33-.3h.7a.89.89,0,0,0,.89-1.29l-5.73-17-.07,0c-.3.78-5.27,11.87-5.27,11.87s-1.74,4.06-2.89,4.06c-.76,0-2-2.88-2-2.88L19.2,43.22h-.15c-1.1,3.24-5.3,15.39-5.3,17.42,0,.51.37,1,1.25,1h1c.23,0,.26.11.26.3v.88c0,.18-.07.29-.29.29-.37,0-1.62-.11-3.91-.11-1.3,0-3.66,0-5.29.08A44.86,44.86,0,0,0,94.27,52.6H87.34c-.66,0-1.11.29-1.11,1.36v4.86c0,.52.15.89.15,1.18s-.22.44-.59.59A21.28,21.28,0,0,1,75.33,63c-3.49,0-7.82-1.18-10.36-4A.86.86,0,0,1,64.76,58c.12-.31.61-1.51.72-1.71s.38-.38.84,0C69.34,58.69,72,61,75.63,61c2.36,0,3.76,0,5-.62.81-.44.88-1.47.88-3.39V54.29c0-1.32-.37-1.69-1.32-1.69H78.65c-.22,0-.3-.15-.3-.33v-.85c0-.22.08-.29.22-.29.45,0,2.21.11,5.23.11s9.51-.1,10.55-.11c0-.54,0-1.07,0-1.61a44.87,44.87,0,1,0-88,12.15Z" fill="#231f20"/><path d="M110.77,80.74h-.88l1.55-8.82h.89Z" fill="#808285"/><path d="M114.7,74.91c0,.16,0,.33-.06.52s0,.35-.07.48h0a2.41,2.41,0,0,1,.87-.84,2.38,2.38,0,0,1,2.61.17,1.67,1.67,0,0,1,.53,1.3c0,.1,0,.2,0,.3s0,.21,0,.32l-.65,3.58h-.83l.57-3.23a3.75,3.75,0,0,0,.07-.73,1.51,1.51,0,0,0-.28-1,1.26,1.26,0,0,0-1-.35,1.58,1.58,0,0,0-.67.14,1.83,1.83,0,0,0-.63.42,2.67,2.67,0,0,0-.52.72,3.16,3.16,0,0,0-.32,1l-.53,3h-.83l.8-4.55c0-.15.07-.36.1-.61a6.34,6.34,0,0,0,.08-.67Z" fill="#808285"/><path d="M123.89,76.19a1.46,1.46,0,0,0-.52-.53,1.71,1.71,0,0,0-.84-.2,2.49,2.49,0,0,0-.46.05,1.5,1.5,0,0,0-.45.16,1.07,1.07,0,0,0-.34.29.73.73,0,0,0-.13.45.86.86,0,0,0,.08.38.82.82,0,0,0,.23.26,1.51,1.51,0,0,0,.36.18,4,4,0,0,0,.49.16,3.4,3.4,0,0,1,1.31.63,1.34,1.34,0,0,1,.44,1.07,1.54,1.54,0,0,1-.21.82,1.89,1.89,0,0,1-.53.56,2.53,2.53,0,0,1-.73.32,3.41,3.41,0,0,1-2.15-.17,2.18,2.18,0,0,1-1-.83l.72-.47a1.91,1.91,0,0,0,1.62.87,2.42,2.42,0,0,0,.54-.06,1.47,1.47,0,0,0,.47-.17,1.08,1.08,0,0,0,.33-.31.85.85,0,0,0,.12-.46.77.77,0,0,0-.37-.7,4,4,0,0,0-1-.47l-.52-.2a2.12,2.12,0,0,1-.48-.29,1.48,1.48,0,0,1-.34-.44,1.46,1.46,0,0,1-.13-.62,1.36,1.36,0,0,1,.21-.77,1.55,1.55,0,0,1,.52-.53,2.34,2.34,0,0,1,.72-.31,3.56,3.56,0,0,1,.79-.1,2.71,2.71,0,0,1,1.2.26,1.71,1.71,0,0,1,.77.7Z" fill="#808285"/><path d="M129.38,80.74c0-.16,0-.33.06-.53s.05-.34.08-.47h0a2.38,2.38,0,0,1-.86.84,2.29,2.29,0,0,1-1.13.31,2.14,2.14,0,0,1-1.48-.48,1.63,1.63,0,0,1-.52-1.29c0-.1,0-.2,0-.3s0-.21,0-.32l.64-3.58H127l-.57,3.23a4,4,0,0,0-.08.73,1.47,1.47,0,0,0,.29,1,1.23,1.23,0,0,0,1,.35,1.75,1.75,0,0,0,.67-.14,2.07,2.07,0,0,0,.63-.41,3,3,0,0,0,.51-.71,3.6,3.6,0,0,0,.33-1l.52-3h.83l-.8,4.55c0,.15-.06.36-.1.6a6.34,6.34,0,0,0-.08.67Z" fill="#808285"/><path d="M133.22,75.58c0-.25.06-.47.08-.67h.8c0,.16,0,.33-.07.52s-.05.35-.07.48h0a2.63,2.63,0,0,1,.83-.83,2,2,0,0,1,1.12-.32h.28l.26,0-.19.8-.24-.05a1.88,1.88,0,0,0-.34,0,1.92,1.92,0,0,0-.66.12,1.68,1.68,0,0,0-.59.39,2.61,2.61,0,0,0-.47.69,3.68,3.68,0,0,0-.31,1l-.52,3h-.83l.79-4.55C133.15,76,133.18,75.83,133.22,75.58Z" fill="#808285"/><path d="M140.66,77.16c0-.14,0-.25.05-.33a1.55,1.55,0,0,0,0-.21,1,1,0,0,0-.36-.9,1.73,1.73,0,0,0-1-.26,2.71,2.71,0,0,0-1,.2,3.19,3.19,0,0,0-.81.5l-.37-.56a3.4,3.4,0,0,1,1-.61,3.67,3.67,0,0,1,1.24-.23,3,3,0,0,1,.79.1,2,2,0,0,1,.66.29,1.79,1.79,0,0,1,.45.53,1.61,1.61,0,0,1,.16.76c0,.08,0,.18,0,.31a2,2,0,0,1,0,.31L141,79.43c0,.22-.07.46-.1.7s0,.44,0,.61h-.74a3.7,3.7,0,0,1,0-.46c0-.17,0-.33.05-.49h0a4.55,4.55,0,0,1-.5.49,2.27,2.27,0,0,1-.52.33,1.9,1.9,0,0,1-.57.18,3.48,3.48,0,0,1-.67.06,2.62,2.62,0,0,1-.61-.08,1.66,1.66,0,0,1-.56-.25,1.62,1.62,0,0,1-.43-.47,1.41,1.41,0,0,1-.16-.71,1.59,1.59,0,0,1,.39-1.12,2.58,2.58,0,0,1,1-.66,5.64,5.64,0,0,1,1.44-.31A14.35,14.35,0,0,1,140.66,77.16Zm-.31.64a11.22,11.22,0,0,0-1.15.06,4.24,4.24,0,0,0-1.06.21,2.21,2.21,0,0,0-.79.43,1,1,0,0,0-.3.74.9.9,0,0,0,.1.46.7.7,0,0,0,.26.28,1.22,1.22,0,0,0,.39.15,2.2,2.2,0,0,0,.44.05,2.18,2.18,0,0,0,.82-.15,2.23,2.23,0,0,0,.66-.41,2.59,2.59,0,0,0,.48-.61,2.54,2.54,0,0,0,.26-.73l.09-.48Z" fill="#808285"/><path d="M144.62,74.91c0,.16,0,.33-.07.52s-.05.35-.07.48h0a2.49,2.49,0,0,1,.87-.84,2.19,2.19,0,0,1,1.13-.31,2.13,2.13,0,0,1,1.48.48,1.64,1.64,0,0,1,.53,1.3,1.51,1.51,0,0,1,0,.3c0,.1,0,.21,0,.32l-.64,3.58H147l.57-3.23a3.79,3.79,0,0,0,.08-.73,1.52,1.52,0,0,0-.29-1,1.26,1.26,0,0,0-1-.35,1.61,1.61,0,0,0-.67.14A2,2,0,0,0,145,76a2.9,2.9,0,0,0-.52.72,3.43,3.43,0,0,0-.32,1l-.52,3h-.84l.8-4.55c0-.15.07-.36.11-.61s.06-.47.08-.67Z" fill="#808285"/><path d="M154.71,76.23a1.19,1.19,0,0,0-.52-.55,1.55,1.55,0,0,0-.84-.22,2.38,2.38,0,0,0-1,.22,2.47,2.47,0,0,0-.81.62,3,3,0,0,0-.54.91,3.16,3.16,0,0,0-.19,1.11,2.25,2.25,0,0,0,.12.74,1.69,1.69,0,0,0,.37.59,1.76,1.76,0,0,0,.59.4,2.38,2.38,0,0,0,1.78-.07,2.69,2.69,0,0,0,.74-.55l.53.46a3.43,3.43,0,0,1-1,.73,3,3,0,0,1-1.3.27,3.35,3.35,0,0,1-1.13-.18,2.5,2.5,0,0,1-.85-.51,2.3,2.3,0,0,1-.55-.79,2.63,2.63,0,0,1-.19-1,4.08,4.08,0,0,1,.25-1.4,3.54,3.54,0,0,1,.71-1.15,3.38,3.38,0,0,1,1.11-.78,3.51,3.51,0,0,1,1.43-.29,3,3,0,0,1,1.21.24,1.67,1.67,0,0,1,.86.75Z" fill="#808285"/><path d="M156.75,78.05s0,.1,0,.14v.13a2.06,2.06,0,0,0,.14.76,1.82,1.82,0,0,0,.4.58,1.73,1.73,0,0,0,.6.39,2,2,0,0,0,.74.14,2.22,2.22,0,0,0,1.19-.31,2.74,2.74,0,0,0,.82-.71l.53.5a3.36,3.36,0,0,1-1.19.91,3.43,3.43,0,0,1-1.43.31,3,3,0,0,1-1-.18,2.21,2.21,0,0,1-.84-.5,2.1,2.1,0,0,1-.56-.8,2.68,2.68,0,0,1-.21-1.09,3.64,3.64,0,0,1,.26-1.35,3.81,3.81,0,0,1,.72-1.14,3.64,3.64,0,0,1,1.07-.78,3.1,3.1,0,0,1,1.32-.29,2.4,2.4,0,0,1,1.82.64,2.25,2.25,0,0,1,.61,1.64c0,.1,0,.25,0,.45a4.1,4.1,0,0,1-.09.56Zm4.07-.62a1.5,1.5,0,0,0,0-.22,1.7,1.7,0,0,0,0-.22,1.53,1.53,0,0,0-.41-1.1,1.6,1.6,0,0,0-1.21-.43,2.34,2.34,0,0,0-.85.15,2.49,2.49,0,0,0-.7.43,3.11,3.11,0,0,0-.52.63,2.62,2.62,0,0,0-.3.76Z" fill="#808285"/><path d="M169.1,75.61h-1.37l-.89,5.13H166l.9-5.13h-1.23l.13-.7H167l.27-1.58a3.78,3.78,0,0,1,.24-.83,2.25,2.25,0,0,1,.43-.68,2,2,0,0,1,.64-.47,2.14,2.14,0,0,1,.87-.17,2,2,0,0,1,.34,0,2.14,2.14,0,0,1,.35.06L170,72a2.16,2.16,0,0,0-.59-.08,1,1,0,0,0-.51.12.9.9,0,0,0-.36.31,1.8,1.8,0,0,0-.24.48,3.63,3.63,0,0,0-.14.59l-.27,1.49h1.4Z" fill="#808285"/><path d="M171.91,80.89a3.14,3.14,0,0,1-1.08-.19,2.53,2.53,0,0,1-.85-.52,2.21,2.21,0,0,1-.55-.79,2.49,2.49,0,0,1-.2-1,3.81,3.81,0,0,1,.25-1.39,3.45,3.45,0,0,1,.72-1.14,3.29,3.29,0,0,1,1.09-.78,3.4,3.4,0,0,1,1.4-.29,3.2,3.2,0,0,1,1.09.18,2.33,2.33,0,0,1,.84.52,2.41,2.41,0,0,1,.56.8,2.54,2.54,0,0,1,.2,1,3.87,3.87,0,0,1-.26,1.4,3.5,3.5,0,0,1-.72,1.15,3.42,3.42,0,0,1-1.09.77A3.37,3.37,0,0,1,171.91,80.89Zm2.59-3.56a2.21,2.21,0,0,0-.12-.74A1.45,1.45,0,0,0,174,76a1.67,1.67,0,0,0-.59-.4,2.13,2.13,0,0,0-.78-.14,2.23,2.23,0,0,0-1,.23,2.54,2.54,0,0,0-.8.62,3.29,3.29,0,0,0-.53.91,3.34,3.34,0,0,0-.19,1.1,2,2,0,0,0,.13.74,1.54,1.54,0,0,0,.36.59,1.76,1.76,0,0,0,.59.4,2,2,0,0,0,.77.14,2.36,2.36,0,0,0,1-.23,2.69,2.69,0,0,0,.8-.62,3.07,3.07,0,0,0,.52-.9A3.4,3.4,0,0,0,174.5,77.33Z" fill="#808285"/><path d="M177.41,75.58a6.34,6.34,0,0,0,.08-.67h.8c0,.16,0,.33-.06.52s0,.35-.08.48h0a2.6,2.6,0,0,1,.82-.83,2,2,0,0,1,1.12-.32h.28l.27,0-.2.8a1.19,1.19,0,0,0-.23-.05,2.06,2.06,0,0,0-.35,0,1.92,1.92,0,0,0-.66.12,1.68,1.68,0,0,0-.59.39,2.61,2.61,0,0,0-.47.69,3.37,3.37,0,0,0-.3,1l-.53,3h-.83l.79-4.55C177.34,76,177.37,75.83,177.41,75.58Z" fill="#808285"/><path d="M184.56,80.74h-.88l1.55-8.82h.89Z" fill="#808285"/><path d="M188.5,74.91c0,.16,0,.33-.07.52s-.05.35-.07.48h0a2.49,2.49,0,0,1,.87-.84,2.19,2.19,0,0,1,1.13-.31,2.13,2.13,0,0,1,1.48.48,1.64,1.64,0,0,1,.53,1.3,1.51,1.51,0,0,1,0,.3c0,.1,0,.21,0,.32l-.64,3.58h-.84l.57-3.23a3.79,3.79,0,0,0,.08-.73,1.52,1.52,0,0,0-.29-1,1.26,1.26,0,0,0-1-.35,1.61,1.61,0,0,0-.67.14,2,2,0,0,0-.63.42,2.9,2.9,0,0,0-.52.72,3.43,3.43,0,0,0-.32,1l-.52,3h-.84l.8-4.55c0-.15.07-.36.11-.61s.06-.47.08-.67Z" fill="#808285"/><path d="M193.7,78.37A3.82,3.82,0,0,1,194,77a3.4,3.4,0,0,1,.72-1.15,3.53,3.53,0,0,1,1.09-.77,3.25,3.25,0,0,1,1.36-.29,2.55,2.55,0,0,1,1.19.29,1.9,1.9,0,0,1,.84.84h0l.81-4.56h.83l-1.67,9.41h-.83l.17-1h0a2.43,2.43,0,0,1-.86.78,2.52,2.52,0,0,1-1.28.33,3.06,3.06,0,0,1-1.08-.18,2.44,2.44,0,0,1-.83-.52,2.2,2.2,0,0,1-.53-.8A2.54,2.54,0,0,1,193.7,78.37Zm.87-.05a2.15,2.15,0,0,0,.12.73,1.79,1.79,0,0,0,.35.6,1.72,1.72,0,0,0,.58.4,2.05,2.05,0,0,0,.78.14,2.31,2.31,0,0,0,1-.23,2.48,2.48,0,0,0,.82-.61,2.92,2.92,0,0,0,.55-.91,3.07,3.07,0,0,0,.2-1.1,2,2,0,0,0-.13-.75,1.71,1.71,0,0,0-.38-.6,1.73,1.73,0,0,0-.6-.39,1.92,1.92,0,0,0-.77-.14,2.36,2.36,0,0,0-1,.22,2.43,2.43,0,0,0-.8.62,2.5,2.5,0,0,0-.52.9A3.42,3.42,0,0,0,194.57,78.32Z" fill="#808285"/><path d="M202.15,80.74h-.83l1-5.83h.84Zm1.53-8.08a.55.55,0,0,1-.17.42.54.54,0,0,1-.41.18.61.61,0,0,1-.41-.15.53.53,0,0,1-.16-.41.59.59,0,0,1,.18-.44.54.54,0,0,1,.41-.17.57.57,0,0,1,.4.15A.54.54,0,0,1,203.68,72.66Z" fill="#808285"/><path d="M206.36,80.74h-.9l-1.22-5.83h.86l.94,4.93h0l2.9-4.93h.91Z" fill="#808285"/><path d="M210.89,80.74h-.83l1-5.83h.83Zm1.53-8.08a.55.55,0,0,1-.17.42.54.54,0,0,1-.41.18.59.59,0,0,1-.41-.15.53.53,0,0,1-.17-.41.59.59,0,0,1,.18-.44.61.61,0,0,1,.82,0A.54.54,0,0,1,212.42,72.66Z" fill="#808285"/><path d="M213,78.37a3.82,3.82,0,0,1,.25-1.4,3.4,3.4,0,0,1,.72-1.15,3.53,3.53,0,0,1,1.09-.77,3.25,3.25,0,0,1,1.36-.29,2.55,2.55,0,0,1,1.19.29,1.9,1.9,0,0,1,.84.84h0l.81-4.56h.83l-1.67,9.41h-.83l.17-1h0a2.43,2.43,0,0,1-.86.78,2.52,2.52,0,0,1-1.28.33,3.06,3.06,0,0,1-1.08-.18,2.44,2.44,0,0,1-.83-.52,2.2,2.2,0,0,1-.53-.8A2.54,2.54,0,0,1,213,78.37Zm.87-.05a2.15,2.15,0,0,0,.12.73,1.79,1.79,0,0,0,.35.6,1.72,1.72,0,0,0,.58.4,2.05,2.05,0,0,0,.78.14,2.31,2.31,0,0,0,1-.23,2.48,2.48,0,0,0,.82-.61,2.92,2.92,0,0,0,.55-.91,3.07,3.07,0,0,0,.2-1.1,2,2,0,0,0-.13-.75,1.71,1.71,0,0,0-.38-.6,1.73,1.73,0,0,0-.6-.39,1.92,1.92,0,0,0-.77-.14,2.36,2.36,0,0,0-1,.22,2.43,2.43,0,0,0-.8.62,2.5,2.5,0,0,0-.52.9A3.42,3.42,0,0,0,213.84,78.32Z" fill="#808285"/><path d="M224.66,80.74c0-.16,0-.33.06-.53s.05-.34.08-.47h0a2.38,2.38,0,0,1-.86.84,2.29,2.29,0,0,1-1.13.31,2.14,2.14,0,0,1-1.48-.48,1.64,1.64,0,0,1-.53-1.29c0-.1,0-.2,0-.3s0-.21.05-.32l.64-3.58h.84l-.57,3.23a4,4,0,0,0-.08.73,1.47,1.47,0,0,0,.29,1,1.23,1.23,0,0,0,1,.35,1.79,1.79,0,0,0,.67-.14,2.2,2.2,0,0,0,.63-.41,3,3,0,0,0,.51-.71,3.6,3.6,0,0,0,.33-1l.52-3h.83l-.8,4.55c0,.15-.06.36-.1.6a6.34,6.34,0,0,0-.08.67Z" fill="#808285"/><path d="M231.92,77.16c0-.14,0-.25.05-.33s0-.15,0-.21a1,1,0,0,0-.36-.9,1.73,1.73,0,0,0-1-.26,2.67,2.67,0,0,0-1,.2,3.19,3.19,0,0,0-.81.5l-.37-.56a3.4,3.4,0,0,1,1-.61,3.67,3.67,0,0,1,1.24-.23,3,3,0,0,1,.79.1,2,2,0,0,1,.66.29,1.62,1.62,0,0,1,.44.53,1.5,1.5,0,0,1,.17.76c0,.08,0,.18,0,.31a2,2,0,0,1,0,.31l-.42,2.37c0,.22-.08.46-.1.7a4.88,4.88,0,0,0,0,.61h-.74c0-.14,0-.3,0-.46l.06-.49h0a4.55,4.55,0,0,1-.5.49,2.27,2.27,0,0,1-.52.33,1.9,1.9,0,0,1-.57.18,3.55,3.55,0,0,1-.67.06,2.62,2.62,0,0,1-.61-.08,1.58,1.58,0,0,1-.56-.25,1.49,1.49,0,0,1-.43-.47,1.41,1.41,0,0,1-.17-.71,1.6,1.6,0,0,1,.4-1.12,2.51,2.51,0,0,1,1-.66,5.64,5.64,0,0,1,1.44-.31A14.35,14.35,0,0,1,231.92,77.16Zm-.32.64a11.17,11.17,0,0,0-1.14.06,4.32,4.32,0,0,0-1.07.21,2.17,2.17,0,0,0-.78.43,1,1,0,0,0-.3.74.9.9,0,0,0,.1.46.7.7,0,0,0,.26.28,1.13,1.13,0,0,0,.39.15,2.12,2.12,0,0,0,.44.05,2.18,2.18,0,0,0,.82-.15,2.23,2.23,0,0,0,.66-.41,2.59,2.59,0,0,0,.48-.61,2.54,2.54,0,0,0,.26-.73l.08-.48Z" fill="#808285"/><path d="M235,80.74h-.84l1.65-9.41h.85Z" fill="#808285"/><path d="M241,76.19a1.49,1.49,0,0,0-.53-.53,1.67,1.67,0,0,0-.83-.2,2.59,2.59,0,0,0-.47.05,1.72,1.72,0,0,0-.45.16,1,1,0,0,0-.33.29.73.73,0,0,0-.13.45.74.74,0,0,0,.08.38.71.71,0,0,0,.23.26,1.51,1.51,0,0,0,.36.18,3.85,3.85,0,0,0,.48.16,3.33,3.33,0,0,1,1.31.63,1.32,1.32,0,0,1,.45,1.07,1.54,1.54,0,0,1-.21.82,1.8,1.8,0,0,1-.54.56,2.36,2.36,0,0,1-.72.32,3.63,3.63,0,0,1-.78.1,3.54,3.54,0,0,1-1.38-.27,2.15,2.15,0,0,1-1-.83l.72-.47a1.71,1.71,0,0,0,.64.61,1.86,1.86,0,0,0,1,.26,2.33,2.33,0,0,0,.53-.06,1.38,1.38,0,0,0,.47-.17.9.9,0,0,0,.33-.31.86.86,0,0,0,.13-.46.79.79,0,0,0-.37-.7,4.38,4.38,0,0,0-1.05-.47l-.53-.2a2.05,2.05,0,0,1-.47-.29,1.48,1.48,0,0,1-.34-.44,1.32,1.32,0,0,1-.13-.62,1.45,1.45,0,0,1,.2-.77,1.58,1.58,0,0,1,.53-.53,2.39,2.39,0,0,1,.71-.31,3.65,3.65,0,0,1,.8-.1,2.71,2.71,0,0,1,1.2.26,1.76,1.76,0,0,1,.77.7Z" fill="#808285"/><path d="M251.28,73.57a1.73,1.73,0,0,1-.18.79,2.48,2.48,0,0,1-.51.67,4.35,4.35,0,0,1-.74.56,6.54,6.54,0,0,1-.92.45l1.66,2.1L252.14,76h1l-2.09,2.75,1.61,2h-1.13l-1-1.31a4.49,4.49,0,0,1-1.32,1.1,3.07,3.07,0,0,1-1.49.36,3.64,3.64,0,0,1-1-.14,2.33,2.33,0,0,1-.8-.41,1.8,1.8,0,0,1-.52-.69,2.18,2.18,0,0,1-.19-1,2.11,2.11,0,0,1,.25-1,3.19,3.19,0,0,1,.61-.81,4.43,4.43,0,0,1,.82-.6c.3-.17.59-.31.86-.43a3.34,3.34,0,0,1-.5-.88,2.8,2.8,0,0,1-.18-1,2.51,2.51,0,0,1,.16-.92,2.2,2.2,0,0,1,.45-.72,2.1,2.1,0,0,1,.7-.47,2.35,2.35,0,0,1,.89-.17,2.12,2.12,0,0,1,1.44.48A1.73,1.73,0,0,1,251.28,73.57Zm-3.12,2.84a6.47,6.47,0,0,0-.75.36,3.08,3.08,0,0,0-.63.48,2.26,2.26,0,0,0-.44.62,1.74,1.74,0,0,0-.17.8,1.31,1.31,0,0,0,.47,1.08,1.77,1.77,0,0,0,1.16.39,2.29,2.29,0,0,0,1.2-.32,4.67,4.67,0,0,0,1.07-1Zm2.25-2.78a1.25,1.25,0,0,0-.3-.88,1,1,0,0,0-.83-.33,1.28,1.28,0,0,0-1,.42,1.58,1.58,0,0,0-.38,1.08,2.09,2.09,0,0,0,.2.88,2.81,2.81,0,0,0,.45.7,6.9,6.9,0,0,0,.72-.36,3.52,3.52,0,0,0,.6-.42,1.83,1.83,0,0,0,.39-.49A1.24,1.24,0,0,0,250.41,73.63Z" fill="#808285"/><path d="M257.86,80.74H257l1.56-8.82h5.19l-.14.79h-4.3l-.55,3.07h4l-.12.76h-4Z" fill="#808285"/><path d="M267.33,77.16c0-.14,0-.25.05-.33a1.55,1.55,0,0,0,0-.21,1,1,0,0,0-.36-.9,1.73,1.73,0,0,0-1-.26,2.66,2.66,0,0,0-1,.2,2.87,2.87,0,0,0-.81.5l-.38-.56a3.34,3.34,0,0,1,1.05-.61,3.57,3.57,0,0,1,1.23-.23,3,3,0,0,1,.79.1,2,2,0,0,1,.66.29,1.54,1.54,0,0,1,.45.53,1.61,1.61,0,0,1,.17.76c0,.08,0,.18,0,.31a2.16,2.16,0,0,1,0,.31l-.43,2.37c0,.22-.07.46-.1.7s0,.44,0,.61h-.75c0-.14,0-.3,0-.46a3.86,3.86,0,0,1,.06-.49h0a3.81,3.81,0,0,1-.5.49,2.21,2.21,0,0,1-.51.33,1.87,1.87,0,0,1-.58.18,3.37,3.37,0,0,1-.66.06,2.55,2.55,0,0,1-.61-.08,1.63,1.63,0,0,1-.57-.25,1.47,1.47,0,0,1-.42-.47,1.41,1.41,0,0,1-.17-.71,1.55,1.55,0,0,1,.4-1.12,2.45,2.45,0,0,1,1-.66,5.46,5.46,0,0,1,1.44-.31A14.17,14.17,0,0,1,267.33,77.16Zm-.31.64a11.37,11.37,0,0,0-1.15.06,4.24,4.24,0,0,0-1.06.21,2.08,2.08,0,0,0-.78.43,1,1,0,0,0-.31.74.9.9,0,0,0,.1.46.81.81,0,0,0,.27.28,1.16,1.16,0,0,0,.38.15,2.3,2.3,0,0,0,.45.05,2.16,2.16,0,0,0,1.48-.56,2.32,2.32,0,0,0,.47-.61,2.54,2.54,0,0,0,.26-.73l.09-.48Z" fill="#808285"/><path d="M276.88,74.76a2.1,2.1,0,0,1,1.47.48,1.64,1.64,0,0,1,.53,1.3,1.51,1.51,0,0,1,0,.3c0,.1,0,.21,0,.32l-.64,3.58h-.84l.57-3.23a3.79,3.79,0,0,0,.08-.73,1.52,1.52,0,0,0-.29-1,1.26,1.26,0,0,0-1-.35,1.52,1.52,0,0,0-.79.19,1.76,1.76,0,0,0-.56.49,2.72,2.72,0,0,0-.36.7,5.22,5.22,0,0,0-.21.8l-.54,3.1h-.84l.61-3.39a4.28,4.28,0,0,0,.08-.76,1.27,1.27,0,0,0-.26-.83,1.13,1.13,0,0,0-.9-.3,1.43,1.43,0,0,0-.62.14,1.86,1.86,0,0,0-.61.42,2.88,2.88,0,0,0-.51.72,3.42,3.42,0,0,0-.33,1l-.52,3h-.83l.79-4.55c0-.15.07-.36.11-.61s.06-.47.08-.67h.8c0,.16,0,.33-.07.52s0,.35-.07.48h0a2.8,2.8,0,0,1,.88-.84,2.12,2.12,0,0,1,1.14-.31,2.92,2.92,0,0,1,.5,0,1.42,1.42,0,0,1,.48.19,1.64,1.64,0,0,1,.41.38,1.54,1.54,0,0,1,.25.61,2.44,2.44,0,0,1,.86-.91A2.29,2.29,0,0,1,276.88,74.76Z" fill="#808285"/><path d="M281.06,80.74h-.83l1-5.83h.83Zm1.53-8.08a.55.55,0,0,1-.17.42.54.54,0,0,1-.41.18.59.59,0,0,1-.41-.15.53.53,0,0,1-.17-.41.56.56,0,0,1,.19-.44.54.54,0,0,1,.41-.17.57.57,0,0,1,.4.15A.54.54,0,0,1,282.59,72.66Z" fill="#808285"/><path d="M284,80.74h-.85l1.66-9.41h.84Z" fill="#808285"/><path d="M287,80.74h-.84l1-5.83H288Zm1.53-8.08a.59.59,0,0,1-.17.42.54.54,0,0,1-.42.18.59.59,0,0,1-.4-.15.53.53,0,0,1-.17-.41.59.59,0,0,1,.18-.44.61.61,0,0,1,.82,0A.57.57,0,0,1,288.52,72.66Z" fill="#808285"/><path d="M289.94,78.05a.78.78,0,0,0,0,.14.62.62,0,0,0,0,.13,2.06,2.06,0,0,0,.14.76,1.82,1.82,0,0,0,.4.58,1.73,1.73,0,0,0,.6.39,2,2,0,0,0,.74.14,2.23,2.23,0,0,0,1.2-.31,2.86,2.86,0,0,0,.82-.71l.52.5a3.32,3.32,0,0,1-1.18.91,3.5,3.5,0,0,1-1.43.31,3,3,0,0,1-1.05-.18,2.38,2.38,0,0,1-.84-.5,2.22,2.22,0,0,1-.56-.8,2.68,2.68,0,0,1-.2-1.09,3.45,3.45,0,0,1,.26-1.35,3.6,3.6,0,0,1,.71-1.14,3.78,3.78,0,0,1,1.07-.78,3.15,3.15,0,0,1,1.33-.29,2.38,2.38,0,0,1,1.81.64,2.26,2.26,0,0,1,.62,1.64q0,.15,0,.45a3,3,0,0,1-.09.56Zm4.07-.62c0-.07,0-.14,0-.22V77a1.49,1.49,0,0,0-.41-1.1,1.57,1.57,0,0,0-1.21-.43,2.37,2.37,0,0,0-.85.15,2.64,2.64,0,0,0-.7.43,3.06,3.06,0,0,0-.51.63,2.62,2.62,0,0,0-.3.76Z" fill="#808285"/><path d="M299.93,76.19a1.39,1.39,0,0,0-.52-.53,1.67,1.67,0,0,0-.83-.2,2.59,2.59,0,0,0-.47.05,1.72,1.72,0,0,0-.45.16,1.07,1.07,0,0,0-.34.29.8.8,0,0,0-.13.45.74.74,0,0,0,.09.38.71.71,0,0,0,.23.26,1.51,1.51,0,0,0,.36.18,3.85,3.85,0,0,0,.48.16,3.4,3.4,0,0,1,1.31.63,1.32,1.32,0,0,1,.45,1.07,1.54,1.54,0,0,1-.21.82,1.92,1.92,0,0,1-.54.56,2.59,2.59,0,0,1-.72.32,3.64,3.64,0,0,1-.79.1,3.49,3.49,0,0,1-1.37-.27,2.15,2.15,0,0,1-1-.83l.72-.47a1.76,1.76,0,0,0,.63.61,1.9,1.9,0,0,0,1,.26,2.33,2.33,0,0,0,.53-.06,1.38,1.38,0,0,0,.47-.17.9.9,0,0,0,.33-.31.85.85,0,0,0,.12-.46.78.78,0,0,0-.36-.7,4.29,4.29,0,0,0-1.06-.47l-.52-.2a2.05,2.05,0,0,1-.47-.29,1.34,1.34,0,0,1-.34-.44,1.32,1.32,0,0,1-.13-.62,1.36,1.36,0,0,1,.2-.77,1.65,1.65,0,0,1,.52-.53,2.34,2.34,0,0,1,.72-.31,3.58,3.58,0,0,1,.8-.1,2.78,2.78,0,0,1,1.2.26,1.73,1.73,0,0,1,.76.7Z" fill="#808285"/></svg>