<svg id="logo-division" xmlns="http://www.w3.org/2000/svg" viewBox="0 0 297.86 99.05"><defs><style>.cls-1{fill:#00205c;}.cls-2{fill:#fff;}.cls-3{fill:#9e9e9e;}.cls-4{fill:#666;}</style></defs><path class="cls-1" d="M108.9,36.76h8.24a22.92,22.92,0,0,1,5.69.7,12.64,12.64,0,0,1,4.69,2.26,10.85,10.85,0,0,1,3.19,4.05,14,14,0,0,1,1.18,6,12.8,12.8,0,0,1-1.14,5.55,11.9,11.9,0,0,1-3.08,4,13.57,13.57,0,0,1-4.47,2.48,16.83,16.83,0,0,1-5.32.84h-9Zm5.5,20.68h2.85a14.68,14.68,0,0,0,3.53-.4,7.47,7.47,0,0,0,2.84-1.34,6.46,6.46,0,0,0,1.88-2.45,9,9,0,0,0,.69-3.73,7.51,7.51,0,0,0-.69-3.32,6.52,6.52,0,0,0-1.85-2.32,8,8,0,0,0-2.73-1.38,11.83,11.83,0,0,0-3.29-.46H114.4Z"/><path class="cls-1" d="M135.55,36.76H141v26h-5.49Z"/><path class="cls-1" d="M146,36.76h9.64a16.17,16.17,0,0,1,3.61.39,8.16,8.16,0,0,1,3,1.28,6.4,6.4,0,0,1,2.05,2.42,8.58,8.58,0,0,1,.75,3.8,7.86,7.86,0,0,1-1.37,4.67,6.15,6.15,0,0,1-4,2.44l6.33,11h-6.58l-5.21-10.37h-2.71V62.72H146Zm5.49,10.75h3.24q.73,0,1.56-.06a4.65,4.65,0,0,0,1.5-.33,2.54,2.54,0,0,0,1.11-.86,2.72,2.72,0,0,0,.44-1.65A2.82,2.82,0,0,0,159,43a2.64,2.64,0,0,0-1-.9,4.65,4.65,0,0,0-1.38-.42,11.19,11.19,0,0,0-1.51-.11h-3.59Z"/><path class="cls-1" d="M169.06,36.76H186V42H174.55v4.84h10.81v5.28H174.55v5.28h12.07v5.28H169.06Z"/><path class="cls-1" d="M207.32,43.51a5.48,5.48,0,0,0-2-1.58,6.46,6.46,0,0,0-2.73-.55,6.54,6.54,0,0,0-2.86.63,6.71,6.71,0,0,0-2.29,1.74,8.15,8.15,0,0,0-1.52,2.66,10.63,10.63,0,0,0,0,6.69,8.73,8.73,0,0,0,1.5,2.64,6.88,6.88,0,0,0,2.24,1.74,6.14,6.14,0,0,0,2.76.62,6,6,0,0,0,3-.73,6.1,6.1,0,0,0,2.15-2l4.57,3.55a9.55,9.55,0,0,1-4,3.41,11.88,11.88,0,0,1-5,1.1,14.66,14.66,0,0,1-5.38-1,12.27,12.27,0,0,1-4.26-2.73,12.41,12.41,0,0,1-2.8-4.31,16.43,16.43,0,0,1,0-11.29,12.32,12.32,0,0,1,2.8-4.31,12,12,0,0,1,4.26-2.73,14.66,14.66,0,0,1,5.38-1,12.11,12.11,0,0,1,2.2.21,10.91,10.91,0,0,1,2.26.64,9.84,9.84,0,0,1,2.12,1.17,8.47,8.47,0,0,1,1.84,1.8Z"/><path class="cls-1" d="M220,41.82h-7.11V36.76h19.71v5.06h-7.11v20.9H220Z"/><path class="cls-2" d="M49.52,96.9A47.38,47.38,0,1,0,2.15,49.53,47.43,47.43,0,0,0,49.52,96.9Zm0-92.24A44.87,44.87,0,0,1,94.39,49.52c0,.54,0,1.07,0,1.61-1,0-7.63.11-10.55.11s-4.78-.11-5.23-.11c-.14,0-.22.07-.22.29v.85c0,.18.08.33.3.33H80.2c1,0,1.32.37,1.32,1.69V57c0,1.92-.07,3-.88,3.39-1.25.66-2.65.62-5,.62-3.66,0-6.29-2.3-9.31-4.75-.46-.37-.72-.19-.84,0s-.6,1.4-.72,1.71A.86.86,0,0,0,65,59c2.54,2.82,6.87,4,10.36,4a21.28,21.28,0,0,0,10.46-2.43c.37-.15.59-.3.59-.59s-.15-.66-.15-1.18V54c0-1.07.45-1.36,1.11-1.36h6.93A44.86,44.86,0,0,1,6.76,63.11c1.63,0,4-.08,5.29-.08,2.29,0,3.54.11,3.91.11.22,0,.29-.11.29-.29V62c0-.19,0-.3-.26-.3H15c-.88,0-1.25-.52-1.25-1,0-2,4.2-14.18,5.3-17.42h.15l5.3,13.16s1.21,2.88,2,2.88c1.15,0,2.89-4.06,2.89-4.06s5-11.09,5.27-11.87l.07,0,5.73,17a.89.89,0,0,1-.89,1.29h-.7c-.25,0-.33.11-.33.3v.92c0,.18.08.25.3.25l3-.06a1,1,0,0,0,.7-.31,1.16,1.16,0,0,0,.38-.5c.15-.4,6.67-14.14,7-15.17h.14l6.67,15.06c.14.44.4.81.92.81,2,0,2.63-.78,3.41-3,.41-1.16,2.81-7.93,5-13.67,2.59-6.83,6.56-8.83,10.54-8.83A8.33,8.33,0,0,1,82.71,40a14.6,14.6,0,0,1,2.94,5.08c.07.22.15.33.37.3l.88-.15c.15,0,.15-.22.15-.52l-.37-7.36c0-.3-.07-.52-.44-.52-.22,0-.33.11-.52.37l-.44.59c-.22.3-.44.41-.88.07a13.62,13.62,0,0,0-7.51-2c-6.8,0-11.68,1.45-14.83,11.26l-3,7.9-4.6-10.31s-1.92-4.59-2.76-4.59-2.8,4.28-2.8,4.28-5,10.64-5.27,11.41l-.07,0-5.73-17a.88.88,0,0,1,.88-1.29h.7c.26,0,.33-.11.33-.3v-.92c0-.18-.07-.25-.29-.25l-3.61.09c-.17,0-.43.53-.71,1.24C34,39.9,28.63,51.61,28.33,52.55h-.15L21.52,37c-.15-.44-.41-.81-.92-.81s-.81.59-1,1C18.9,39,11.39,59.65,11,60.46A1.82,1.82,0,0,1,9.4,61.67H6.34a44.85,44.85,0,0,1,43.18-57Z"/><path class="cls-2" d="M49.52,0A49.53,49.53,0,1,1,0,49.53,49.59,49.59,0,0,1,49.52,0Z"/><path class="cls-3" d="M49.52,99.05A49.53,49.53,0,1,0,0,49.53,49.59,49.59,0,0,0,49.52,99.05Zm0-96.9A47.38,47.38,0,1,1,2.15,49.53,47.43,47.43,0,0,1,49.52,2.15Z"/><path class="cls-1" d="M9.4,61.67A1.82,1.82,0,0,0,11,60.46c.37-.81,7.88-21.43,8.62-23.28.15-.36.44-1,1-1s.77.37.92.81l6.66,15.51h.15c.3-.94,5.67-12.65,6.79-15.16.28-.71.54-1.24.71-1.24l3.61-.09c.22,0,.29.07.29.25v.92c0,.19-.07.3-.33.3h-.7a.88.88,0,0,0-.88,1.29l5.73,17,.07,0c.29-.77,5.27-11.41,5.27-11.41s2-4.28,2.8-4.28,2.76,4.59,2.76,4.59l4.6,10.31,3-7.9c3.15-9.81,8-11.26,14.83-11.26a13.62,13.62,0,0,1,7.51,2c.44.34.66.23.88-.07l.44-.59c.19-.26.3-.37.52-.37.37,0,.44.22.44.52l.37,7.36c0,.3,0,.48-.15.52l-.88.15c-.22,0-.3-.08-.37-.3A14.6,14.6,0,0,0,82.71,40a8.33,8.33,0,0,0-6.12-2.58c-4,0-8,2-10.54,8.83C63.87,52,61.47,58.79,61.06,60c-.78,2.24-1.44,3-3.41,3-.52,0-.78-.37-.92-.81L50.06,47.1h-.14c-.33,1-6.85,14.77-7,15.17a1.16,1.16,0,0,1-.38.5,1,1,0,0,1-.7.31l-3,.06c-.22,0-.3-.07-.3-.25V62c0-.19.08-.3.33-.3h.7a.89.89,0,0,0,.89-1.29l-5.73-17-.07,0c-.3.78-5.27,11.87-5.27,11.87s-1.74,4.06-2.89,4.06c-.76,0-2-2.88-2-2.88L19.2,43.22h-.15c-1.1,3.24-5.3,15.39-5.3,17.42,0,.51.37,1,1.25,1h1c.23,0,.26.11.26.3v.88c0,.18-.07.29-.29.29-.37,0-1.62-.11-3.91-.11-1.3,0-3.66,0-5.29.08A44.86,44.86,0,0,0,94.27,52.6H87.34c-.66,0-1.11.29-1.11,1.36v4.86c0,.52.15.89.15,1.18s-.22.44-.59.59A21.28,21.28,0,0,1,75.33,63c-3.49,0-7.82-1.18-10.36-4A.86.86,0,0,1,64.76,58c.12-.31.61-1.51.72-1.71s.38-.38.84,0C69.34,58.69,72,61,75.63,61c2.36,0,3.76,0,5-.62.81-.44.88-1.47.88-3.39V54.29c0-1.32-.37-1.69-1.32-1.69H78.65c-.22,0-.3-.15-.3-.33v-.85c0-.22.08-.29.22-.29.45,0,2.21.11,5.23.11s9.51-.1,10.55-.11c0-.54,0-1.07,0-1.61a44.87,44.87,0,1,0-88,12.15Z"/><path class="cls-4" d="M110,81.37h-.85l1.5-8.5h.85Z"/><path class="cls-4" d="M113.83,75.75q0,.23-.06.51a3.59,3.59,0,0,1-.07.45h0a2.38,2.38,0,0,1,.83-.81,2.22,2.22,0,0,1,1.09-.29,2,2,0,0,1,1.43.46,1.61,1.61,0,0,1,.51,1.25,2.64,2.64,0,0,1,0,.29c0,.1,0,.2,0,.31l-.62,3.45h-.81l.55-3.11a3.59,3.59,0,0,0,.08-.71,1.47,1.47,0,0,0-.28-.93,1.21,1.21,0,0,0-1-.34,1.68,1.68,0,0,0-.65.13,2,2,0,0,0-.61.41,2.65,2.65,0,0,0-.49.69,3.32,3.32,0,0,0-.32,1l-.5,2.88h-.8l.76-4.38c0-.15.07-.35.11-.59s.06-.46.07-.65Z"/><path class="cls-4" d="M122.74,77a1.25,1.25,0,0,0-.51-.51,1.56,1.56,0,0,0-.8-.2,2.48,2.48,0,0,0-.45,0,1.46,1.46,0,0,0-.43.15,1.15,1.15,0,0,0-.33.29.7.7,0,0,0-.12.42.68.68,0,0,0,.08.37.65.65,0,0,0,.22.25,1.27,1.27,0,0,0,.35.18l.46.15a3.21,3.21,0,0,1,1.26.61,1.27,1.27,0,0,1,.44,1,1.43,1.43,0,0,1-.21.79,1.76,1.76,0,0,1-.51.54,2.33,2.33,0,0,1-.7.31,3.35,3.35,0,0,1-.76.09,3.24,3.24,0,0,1-1.32-.26,2.11,2.11,0,0,1-1-.79l.7-.46a1.65,1.65,0,0,0,.61.59,1.75,1.75,0,0,0,1,.25,2.84,2.84,0,0,0,.51,0,1.83,1.83,0,0,0,.45-.17.93.93,0,0,0,.32-.3.81.81,0,0,0,.12-.44.76.76,0,0,0-.35-.68,4.14,4.14,0,0,0-1-.45l-.5-.19a2,2,0,0,1-.46-.29,1.4,1.4,0,0,1-.33-.42,1.51,1.51,0,0,1,.08-1.34A1.62,1.62,0,0,1,120,76a2.4,2.4,0,0,1,.69-.3,3.37,3.37,0,0,1,.77-.09,2.57,2.57,0,0,1,1.16.25,1.6,1.6,0,0,1,.73.67Z"/><path class="cls-4" d="M128.08,81.37q0-.23.06-.51c0-.18.05-.33.07-.45h0a2.5,2.5,0,0,1-.84.81,2.19,2.19,0,0,1-1.08.29,2.1,2.1,0,0,1-1.43-.45,1.6,1.6,0,0,1-.51-1.25,2.83,2.83,0,0,1,0-.29c0-.1,0-.2,0-.31l.62-3.44h.81l-.55,3.1a3.7,3.7,0,0,0-.07.71,1.42,1.42,0,0,0,.27.92,1.19,1.19,0,0,0,1,.34,1.68,1.68,0,0,0,.65-.13,2,2,0,0,0,.6-.4,2.67,2.67,0,0,0,.5-.69,3.25,3.25,0,0,0,.31-1l.5-2.88h.81L129,80.15c0,.15-.07.34-.1.58a5.87,5.87,0,0,0-.08.64Z"/><path class="cls-4" d="M131.83,76.4c0-.24.06-.46.08-.65h.76q0,.23-.06.51a3.59,3.59,0,0,1-.07.45h0a2.51,2.51,0,0,1,.79-.8,2,2,0,0,1,1.08-.3h.27l.26,0-.2.77a.64.64,0,0,0-.22,0,1.84,1.84,0,0,0-.33,0,1.72,1.72,0,0,0-.63.12,1.63,1.63,0,0,0-.57.38,2.21,2.21,0,0,0-.46.66,3.47,3.47,0,0,0-.29,1l-.51,2.88H131l.77-4.38C131.76,76.84,131.79,76.64,131.83,76.4Z"/><path class="cls-4" d="M139.05,77.92a2.62,2.62,0,0,0,0-.31,1.83,1.83,0,0,0,0-.21,1,1,0,0,0-.35-.87,1.62,1.62,0,0,0-1-.25,2.56,2.56,0,0,0-1,.2A2.94,2.94,0,0,0,136,77l-.36-.54a3.3,3.3,0,0,1,1-.58,3.38,3.38,0,0,1,1.19-.22,3.16,3.16,0,0,1,.76.09,1.63,1.63,0,0,1,.64.29,1.49,1.49,0,0,1,.43.5,1.53,1.53,0,0,1,.16.74c0,.07,0,.17,0,.29a2,2,0,0,1,0,.31l-.4,2.28a6.73,6.73,0,0,0-.1.67c0,.23,0,.43,0,.59h-.72c0-.14,0-.29,0-.45a3.62,3.62,0,0,1,.06-.46h0a4.21,4.21,0,0,1-.48.47,2.23,2.23,0,0,1-.5.32,2,2,0,0,1-.55.17,3.16,3.16,0,0,1-.64.06,2.46,2.46,0,0,1-.59-.08,1.46,1.46,0,0,1-1-.69,1.33,1.33,0,0,1-.16-.69,1.5,1.5,0,0,1,.38-1.08,2.5,2.5,0,0,1,1-.64,6.19,6.19,0,0,1,1.39-.3C138,78,138.53,77.92,139.05,77.92Zm-.3.62a10.54,10.54,0,0,0-1.11,0,5,5,0,0,0-1,.2,2.21,2.21,0,0,0-.76.42.93.93,0,0,0-.29.72,1,1,0,0,0,.09.44.84.84,0,0,0,.26.27,1.11,1.11,0,0,0,.37.15,3,3,0,0,0,.43,0,2,2,0,0,0,1.43-.54,2.32,2.32,0,0,0,.45-.58,2.23,2.23,0,0,0,.25-.71l.09-.46Z"/><path class="cls-4" d="M142.91,75.75q0,.23-.06.51c0,.18,0,.33-.07.45h0a2.5,2.5,0,0,1,.84-.81,2.2,2.2,0,0,1,1.09-.29,2,2,0,0,1,1.42.46,1.59,1.59,0,0,1,.52,1.25,2.64,2.64,0,0,1,0,.29c0,.1,0,.2,0,.31L146,81.37h-.81l.55-3.11a3.56,3.56,0,0,0,.07-.71,1.47,1.47,0,0,0-.27-.93,1.23,1.23,0,0,0-1-.34,1.63,1.63,0,0,0-.64.13,2,2,0,0,0-.61.41,2.67,2.67,0,0,0-.5.69,3.32,3.32,0,0,0-.31,1l-.5,2.88h-.81L142,77c0-.15.07-.35.1-.59s.06-.46.08-.65Z"/><path class="cls-4" d="M152.69,77a1.21,1.21,0,0,0-.5-.53,1.53,1.53,0,0,0-.81-.21,2.18,2.18,0,0,0-1,.22,2.31,2.31,0,0,0-.79.59,2.89,2.89,0,0,0-.7,2,2.08,2.08,0,0,0,.12.71,1.65,1.65,0,0,0,.35.57,1.73,1.73,0,0,0,.57.38,2.07,2.07,0,0,0,.77.14,2.18,2.18,0,0,0,.95-.2,2.69,2.69,0,0,0,.71-.53l.51.44a3.29,3.29,0,0,1-1,.7,2.78,2.78,0,0,1-1.26.26,3.31,3.31,0,0,1-1.08-.17,2.53,2.53,0,0,1-.83-.49,2.06,2.06,0,0,1-.52-.77,2.38,2.38,0,0,1-.19-1,3.65,3.65,0,0,1,.25-1.36,3.49,3.49,0,0,1,.68-1.11,3.32,3.32,0,0,1,1.07-.75,3.4,3.4,0,0,1,1.38-.27,3.09,3.09,0,0,1,1.17.23,1.65,1.65,0,0,1,.82.72Z"/><path class="cls-4" d="M154.71,78.78a.59.59,0,0,0,0,.14.49.49,0,0,0,0,.12,1.9,1.9,0,0,0,.14.73,1.79,1.79,0,0,0,.38.56,1.79,1.79,0,0,0,1.29.51,2.29,2.29,0,0,0,1.16-.29,3,3,0,0,0,.79-.69l.5.48a3.31,3.31,0,0,1-1.14.88,3.38,3.38,0,0,1-1.38.29,2.82,2.82,0,0,1-1-.17,2.35,2.35,0,0,1-.81-.48,2.31,2.31,0,0,1-.54-.77,2.69,2.69,0,0,1-.19-1,3.43,3.43,0,0,1,.25-1.31,3.61,3.61,0,0,1,.69-1.09,3.38,3.38,0,0,1,1-.75,2.92,2.92,0,0,1,1.28-.28,2.29,2.29,0,0,1,1.74.61,2.17,2.17,0,0,1,.6,1.58c0,.1,0,.25,0,.44a2.8,2.8,0,0,1-.08.54Zm3.92-.6c0-.07,0-.14,0-.21v-.21a1.5,1.5,0,0,0-.39-1.07,1.57,1.57,0,0,0-1.17-.41,2.21,2.21,0,0,0-.82.15,2.41,2.41,0,0,0-.67.41,2.67,2.67,0,0,0-.5.61,2.72,2.72,0,0,0-.29.73Z"/><path class="cls-4" d="M166.71,76.42h-1.32l-.87,5h-.8l.86-5h-1.19l.14-.67h1.16l.26-1.52a4.11,4.11,0,0,1,.23-.8,2.25,2.25,0,0,1,.42-.66,1.83,1.83,0,0,1,.61-.45,2,2,0,0,1,.84-.17l.33,0a1.3,1.3,0,0,1,.33.07l-.19.7a2.38,2.38,0,0,0-.56-.07,1.12,1.12,0,0,0-.5.11.87.87,0,0,0-.35.31,1.8,1.8,0,0,0-.23.46,3.06,3.06,0,0,0-.13.56l-.26,1.44h1.35Z"/><path class="cls-4" d="M169.47,81.51a3,3,0,0,1-1.05-.18,2.35,2.35,0,0,1-.82-.5,2,2,0,0,1-.53-.76,2.47,2.47,0,0,1-.2-1,3.71,3.71,0,0,1,.25-1.34,3.35,3.35,0,0,1,.69-1.11,3.51,3.51,0,0,1,1.06-.75,3.4,3.4,0,0,1,2.39-.1,2.35,2.35,0,0,1,.82.5,2.46,2.46,0,0,1,.53.77,2.38,2.38,0,0,1,.19,1,3.85,3.85,0,0,1-.24,1.36,3.31,3.31,0,0,1-1.75,1.85A3.31,3.31,0,0,1,169.47,81.51ZM172,78.09a2.09,2.09,0,0,0-.12-.72,1.65,1.65,0,0,0-.35-.57,1.73,1.73,0,0,0-.57-.38,2,2,0,0,0-.75-.14,2.1,2.1,0,0,0-1,.22,2.5,2.5,0,0,0-.77.6,3.32,3.32,0,0,0-.51.88,3.15,3.15,0,0,0-.18,1.06,2.08,2.08,0,0,0,.12.71,1.52,1.52,0,0,0,.35.57,1.68,1.68,0,0,0,.56.38,2,2,0,0,0,.75.14,2.18,2.18,0,0,0,1-.22,2.5,2.5,0,0,0,.77-.6,2.87,2.87,0,0,0,.5-.87A3.11,3.11,0,0,0,172,78.09Z"/><path class="cls-4" d="M174.81,76.4c0-.24.06-.46.08-.65h.77q0,.23-.06.51c0,.18,0,.33-.07.45h0a2.62,2.62,0,0,1,.79-.8,2,2,0,0,1,1.08-.3h.28l.25,0-.19.77a.71.71,0,0,0-.22,0,1.84,1.84,0,0,0-.33,0,1.77,1.77,0,0,0-.64.12,1.63,1.63,0,0,0-.57.38,2.64,2.64,0,0,0-.46.66,3.47,3.47,0,0,0-.29,1l-.5,2.88h-.81l.77-4.38C174.74,76.84,174.78,76.64,174.81,76.4Z"/><path class="cls-4" d="M181.8,81.37H181l1.5-8.5h.85Z"/><path class="cls-4" d="M185.64,75.75q0,.23-.06.51c0,.18-.05.33-.07.45h0a2.5,2.5,0,0,1,.84-.81,2.2,2.2,0,0,1,1.09-.29,2,2,0,0,1,1.43.46,1.61,1.61,0,0,1,.51,1.25,2.64,2.64,0,0,1,0,.29c0,.1,0,.2,0,.31l-.62,3.45h-.81l.55-3.11a3.56,3.56,0,0,0,.07-.71,1.47,1.47,0,0,0-.27-.93,1.22,1.22,0,0,0-1-.34,1.64,1.64,0,0,0-.65.13,2,2,0,0,0-.61.41,2.67,2.67,0,0,0-.5.69,3.64,3.64,0,0,0-.31,1l-.5,2.88h-.81l.77-4.38c0-.15.07-.35.1-.59a6,6,0,0,0,.08-.65Z"/><path class="cls-4" d="M190.71,79.09a3.85,3.85,0,0,1,.24-1.36,3.54,3.54,0,0,1,.69-1.1,3.59,3.59,0,0,1,1.05-.75,3.21,3.21,0,0,1,1.32-.27,2.49,2.49,0,0,1,1.14.27,1.84,1.84,0,0,1,.81.82h0l.78-4.4h.8L196,81.37h-.8l.17-.93h0a2.26,2.26,0,0,1-.83.75,2.33,2.33,0,0,1-1.23.32,3.06,3.06,0,0,1-1-.17,2.36,2.36,0,0,1-.8-.5,2.25,2.25,0,0,1-.51-.77A2.55,2.55,0,0,1,190.71,79.09Zm.84,0a2.07,2.07,0,0,0,.11.71,1.84,1.84,0,0,0,.34.57,1.64,1.64,0,0,0,.55.38,2,2,0,0,0,.76.14,2.17,2.17,0,0,0,1-.22,2.45,2.45,0,0,0,.8-.59,2.84,2.84,0,0,0,.52-.87,2.89,2.89,0,0,0,.2-1.06,2.11,2.11,0,0,0-.13-.73,1.69,1.69,0,0,0-.37-.58,1.73,1.73,0,0,0-.57-.38,2,2,0,0,0-.75-.13,2.3,2.3,0,0,0-1.77.81,2.68,2.68,0,0,0-.5.87A3.14,3.14,0,0,0,191.55,79Z"/><path class="cls-4" d="M198.9,81.37h-.8l1-5.62h.81Zm1.48-7.79a.6.6,0,0,1-.16.41.57.57,0,0,1-.41.17.56.56,0,0,1-.39-.15.52.52,0,0,1-.16-.39.54.54,0,0,1,.18-.42.56.56,0,0,1,.78,0A.51.51,0,0,1,200.38,73.58Z"/><path class="cls-4" d="M203,81.37h-.87L201,75.75h.82l.9,4.75h0l2.79-4.75h.88Z"/><path class="cls-4" d="M207.42,81.37h-.8l1-5.62h.81Zm1.48-7.79a.6.6,0,0,1-.16.41.57.57,0,0,1-.41.17.56.56,0,0,1-.39-.15.52.52,0,0,1-.16-.39.54.54,0,0,1,.18-.42.56.56,0,0,1,.78,0A.51.51,0,0,1,208.9,73.58Z"/><path class="cls-4" d="M209.47,79.09a3.65,3.65,0,0,1,.25-1.36,3.21,3.21,0,0,1,.69-1.1,3.35,3.35,0,0,1,1.05-.75,3.17,3.17,0,0,1,1.31-.27,2.53,2.53,0,0,1,1.15.27,1.89,1.89,0,0,1,.81.82h0l.78-4.4h.81l-1.61,9.07h-.81l.17-.93h0A2.51,2.51,0,0,1,212,81.51a3,3,0,0,1-1-.17,2.26,2.26,0,0,1-1.32-1.27A2.55,2.55,0,0,1,209.47,79.09Zm.84,0a2.08,2.08,0,0,0,.12.71,1.66,1.66,0,0,0,.34.57,1.64,1.64,0,0,0,.55.38,2,2,0,0,0,.76.14,2.17,2.17,0,0,0,1-.22,2.31,2.31,0,0,0,.79-.59,2.85,2.85,0,0,0,.72-1.93,2.11,2.11,0,0,0-.12-.73,1.85,1.85,0,0,0-.37-.58,1.67,1.67,0,0,0-.58-.38,2,2,0,0,0-.74-.13,2.19,2.19,0,0,0-1,.22,2.23,2.23,0,0,0-.77.59,2.51,2.51,0,0,0-.5.87A3.14,3.14,0,0,0,210.31,79Z"/><path class="cls-4" d="M220.79,81.37c0-.15,0-.32.06-.51s.05-.33.07-.45h0a2.5,2.5,0,0,1-.84.81,2.19,2.19,0,0,1-1.08.29,2.11,2.11,0,0,1-1.43-.45,1.6,1.6,0,0,1-.51-1.25,2.83,2.83,0,0,1,0-.29c0-.1,0-.2.05-.31l.62-3.44h.8l-.55,3.1a3.7,3.7,0,0,0-.07.71,1.42,1.42,0,0,0,.27.92,1.19,1.19,0,0,0,1,.34,1.68,1.68,0,0,0,.65-.13,1.91,1.91,0,0,0,.6-.4,2.45,2.45,0,0,0,.5-.69,3.25,3.25,0,0,0,.31-1l.5-2.88h.81l-.77,4.38c0,.15-.07.34-.1.58a5.87,5.87,0,0,0-.08.64Z"/><path class="cls-4" d="M227.83,77.92c0-.13,0-.24,0-.31a1.62,1.62,0,0,0,0-.21,1,1,0,0,0-.35-.87,1.6,1.6,0,0,0-1-.25,2.51,2.51,0,0,0-1,.2,2.94,2.94,0,0,0-.78.47l-.36-.54a3.19,3.19,0,0,1,1-.58,3.34,3.34,0,0,1,1.19-.22,3.22,3.22,0,0,1,.76.09,1.66,1.66,0,0,1,.63.29,1.41,1.41,0,0,1,.44.5,1.65,1.65,0,0,1,.16.74c0,.07,0,.17,0,.29a2,2,0,0,1,0,.31l-.41,2.28c0,.21-.07.44-.09.67a4.59,4.59,0,0,0,0,.59h-.72c0-.14,0-.29,0-.45s0-.31,0-.46h0a4.21,4.21,0,0,1-.48.47,2.48,2.48,0,0,1-.5.32,2.07,2.07,0,0,1-.55.17,3.24,3.24,0,0,1-.64.06,2.46,2.46,0,0,1-.59-.08,1.59,1.59,0,0,1-.55-.24,1.61,1.61,0,0,1-.41-.45,1.44,1.44,0,0,1-.16-.69,1.51,1.51,0,0,1,.39-1.08,2.43,2.43,0,0,1,1-.64,6.1,6.1,0,0,1,1.38-.3C226.8,78,227.31,77.92,227.83,77.92Zm-.3.62a10.24,10.24,0,0,0-1.1,0,5.08,5.08,0,0,0-1,.2,2.07,2.07,0,0,0-.75.42.94.94,0,0,0-.3.72.87.87,0,0,0,.1.44.75.75,0,0,0,.26.27,1.11,1.11,0,0,0,.37.15,3,3,0,0,0,.42,0,2.28,2.28,0,0,0,.8-.14,2.05,2.05,0,0,0,.63-.4,2.14,2.14,0,0,0,.46-.58,2.5,2.5,0,0,0,.25-.71l.08-.46Z"/><path class="cls-4" d="M230.81,81.37H230l1.6-9.07h.82Z"/><path class="cls-4" d="M236.7,77a1.29,1.29,0,0,0-.5-.51,1.62,1.62,0,0,0-.81-.2,2.48,2.48,0,0,0-.45,0,1.57,1.57,0,0,0-.43.15,1,1,0,0,0-.32.29.64.64,0,0,0-.13.42.78.78,0,0,0,.08.37.75.75,0,0,0,.22.25,1.43,1.43,0,0,0,.35.18l.47.15a3.36,3.36,0,0,1,1.26.61,1.27,1.27,0,0,1,.43,1,1.43,1.43,0,0,1-.21.79,1.65,1.65,0,0,1-.51.54,2.33,2.33,0,0,1-.7.31,3.2,3.2,0,0,1-.75.09,3.29,3.29,0,0,1-1.33-.26,2.08,2.08,0,0,1-1-.79l.69-.46a1.73,1.73,0,0,0,.61.59,1.77,1.77,0,0,0,.95.25,3,3,0,0,0,.52,0,2,2,0,0,0,.45-.17,1,1,0,0,0,.32-.3.81.81,0,0,0,.12-.44.75.75,0,0,0-.36-.68,3.89,3.89,0,0,0-1-.45l-.51-.19a1.92,1.92,0,0,1-.45-.29,1.14,1.14,0,0,1-.33-.42,1.2,1.2,0,0,1-.13-.59,1.4,1.4,0,0,1,.2-.75A1.62,1.62,0,0,1,234,76a2.67,2.67,0,0,1,.69-.3,3.44,3.44,0,0,1,.77-.09,2.57,2.57,0,0,1,1.16.25,1.62,1.62,0,0,1,.74.67Z"/><path class="cls-4" d="M238,83.05h-.69l1.31-2.82h.85Z"/><path class="cls-4" d="M110,95.77h-.85l1.5-8.5h5l-.14.76h-4.15l-.53,3h3.86l-.12.74h-3.86Z"/><path class="cls-4" d="M119.17,92.32c0-.13,0-.24,0-.31a1.62,1.62,0,0,0,0-.21,1,1,0,0,0-.34-.87,1.73,1.73,0,0,0-1-.25,2.51,2.51,0,0,0-1,.2,2.94,2.94,0,0,0-.78.47l-.36-.54a3.19,3.19,0,0,1,1-.58A3.38,3.38,0,0,1,118,90a3.16,3.16,0,0,1,.76.09,1.87,1.87,0,0,1,.64.29,1.49,1.49,0,0,1,.43.5,1.55,1.55,0,0,1,.16.74c0,.07,0,.17,0,.29a2,2,0,0,1,0,.31l-.41,2.28c0,.22-.07.44-.09.67a4.59,4.59,0,0,0,0,.59h-.72c0-.14,0-.29,0-.45s0-.31,0-.46h0a4.21,4.21,0,0,1-.48.47,2.48,2.48,0,0,1-.5.32,2,2,0,0,1-.55.17,3.24,3.24,0,0,1-.64.06,3.06,3.06,0,0,1-.59-.07,1.61,1.61,0,0,1-.55-.25,1.44,1.44,0,0,1-.4-.45,1.29,1.29,0,0,1-.17-.68,1.52,1.52,0,0,1,.39-1.09,2.43,2.43,0,0,1,1-.64,6.65,6.65,0,0,1,1.39-.3C118.14,92.35,118.65,92.32,119.17,92.32Zm-.3.62a10.35,10.35,0,0,0-1.1,0,5.88,5.88,0,0,0-1,.2,2.33,2.33,0,0,0-.75.42.94.94,0,0,0-.3.72,1,1,0,0,0,.1.44.68.68,0,0,0,.26.27,1.11,1.11,0,0,0,.37.15,2,2,0,0,0,.43,0,2.26,2.26,0,0,0,.79-.14,2.05,2.05,0,0,0,.63-.4,2.14,2.14,0,0,0,.46-.58,2.5,2.5,0,0,0,.25-.71l.09-.46Z"/><path class="cls-4" d="M128.42,90a2,2,0,0,1,1.43.46,1.62,1.62,0,0,1,.51,1.26,2.64,2.64,0,0,1,0,.28c0,.1,0,.2,0,.31l-.62,3.45h-.81l.55-3.11a3.56,3.56,0,0,0,.07-.71,1.47,1.47,0,0,0-.27-.93,1.22,1.22,0,0,0-1-.34,1.57,1.57,0,0,0-.77.18,1.76,1.76,0,0,0-.54.48,2.64,2.64,0,0,0-.34.67,5.12,5.12,0,0,0-.2.77l-.53,3h-.8l.58-3.26a4.07,4.07,0,0,0,.08-.74,1.2,1.2,0,0,0-.25-.79,1.06,1.06,0,0,0-.87-.3,1.71,1.71,0,0,0-.6.13,2,2,0,0,0-.59.41,2.83,2.83,0,0,0-.49.69,3.32,3.32,0,0,0-.31,1l-.51,2.88h-.8l.77-4.38c0-.15.06-.35.1-.59s.06-.45.08-.65H123c0,.16,0,.32-.06.51s0,.33-.08.45h0a2.7,2.7,0,0,1,.84-.81,2.19,2.19,0,0,1,1.11-.29,1.93,1.93,0,0,1,.47,0,1.43,1.43,0,0,1,.47.18,1.39,1.39,0,0,1,.63,1,2.38,2.38,0,0,1,.83-.89A2.22,2.22,0,0,1,128.42,90Z"/><path class="cls-4" d="M132.51,95.77h-.81l1-5.62h.8ZM134,88a.56.56,0,0,1-.16.41.54.54,0,0,1-.4.17.56.56,0,0,1-.39-.15.47.47,0,0,1-.16-.39.58.58,0,0,1,.57-.59.56.56,0,0,1,.39.15A.54.54,0,0,1,134,88Z"/><path class="cls-4" d="M135.42,95.77h-.81l1.59-9.07H137Z"/><path class="cls-4" d="M138.31,95.77h-.8l1-5.62h.8ZM139.79,88a.56.56,0,0,1-.16.41.54.54,0,0,1-.4.17.53.53,0,0,1-.39-.15.48.48,0,0,1-.17-.39.54.54,0,0,1,.18-.42.56.56,0,0,1,.78,0A.51.51,0,0,1,139.79,88Z"/><path class="cls-4" d="M141.21,93.18a.68.68,0,0,0,0,.14.49.49,0,0,0,0,.12,1.9,1.9,0,0,0,.14.73,1.79,1.79,0,0,0,.38.56,1.72,1.72,0,0,0,.58.38,1.87,1.87,0,0,0,.71.13,2.29,2.29,0,0,0,1.16-.29,3,3,0,0,0,.79-.69l.5.48a3.31,3.31,0,0,1-1.14.88,3.38,3.38,0,0,1-1.38.29,2.82,2.82,0,0,1-1-.17,2.5,2.5,0,0,1-.81-.47,2.47,2.47,0,0,1-.54-.78,2.69,2.69,0,0,1-.19-1,3.43,3.43,0,0,1,.25-1.31,3.61,3.61,0,0,1,.69-1.09,3.38,3.38,0,0,1,1-.75,2.92,2.92,0,0,1,1.28-.28,2.29,2.29,0,0,1,1.74.61,2.17,2.17,0,0,1,.6,1.58c0,.1,0,.25,0,.44a2.8,2.8,0,0,1-.08.54Zm3.92-.6c0-.07,0-.14,0-.21v-.21a1.47,1.47,0,0,0-.39-1.06,1.54,1.54,0,0,0-1.17-.42,2.21,2.21,0,0,0-.82.15,2.41,2.41,0,0,0-.67.41,2.67,2.67,0,0,0-.5.61,2.72,2.72,0,0,0-.29.73Z"/><path class="cls-4" d="M150.89,91.39a1.29,1.29,0,0,0-.5-.51,1.62,1.62,0,0,0-.81-.2,2.48,2.48,0,0,0-.45,0,1.31,1.31,0,0,0-.43.16.87.87,0,0,0-.32.28.66.66,0,0,0-.13.42.86.86,0,0,0,.08.38.71.71,0,0,0,.22.24,1.43,1.43,0,0,0,.35.18l.47.15a3.36,3.36,0,0,1,1.26.61,1.31,1.31,0,0,1,.43,1,1.42,1.42,0,0,1-.21.78,1.65,1.65,0,0,1-.51.54,2.33,2.33,0,0,1-.7.31,3.39,3.39,0,0,1-2.08-.17,2.1,2.1,0,0,1-1-.79l.7-.46a1.73,1.73,0,0,0,.61.59,1.75,1.75,0,0,0,.95.25,3,3,0,0,0,.52,0,1.74,1.74,0,0,0,.45-.17,1,1,0,0,0,.31-.3.81.81,0,0,0,.12-.44.75.75,0,0,0-.35-.68,4.05,4.05,0,0,0-1-.45l-.51-.19a1.74,1.74,0,0,1-.45-.29,1.14,1.14,0,0,1-.33-.42,1.2,1.2,0,0,1-.13-.59,1.4,1.4,0,0,1,.2-.75,1.62,1.62,0,0,1,.5-.51,2.67,2.67,0,0,1,.69-.3,3.37,3.37,0,0,1,.77-.09,2.57,2.57,0,0,1,1.16.25,1.68,1.68,0,0,1,.74.67Z"/><path class="cls-4" d="M152.14,97.45h-.69l1.31-2.82h.85Z"/><path class="cls-4" d="M162,92.32c0-.13,0-.24.05-.31a1.62,1.62,0,0,0,0-.21,1,1,0,0,0-.35-.87,1.67,1.67,0,0,0-1-.25,2.51,2.51,0,0,0-1,.2,2.94,2.94,0,0,0-.78.47l-.36-.54a3.19,3.19,0,0,1,1-.58,3.34,3.34,0,0,1,1.19-.22,3.22,3.22,0,0,1,.76.09,1.82,1.82,0,0,1,.63.29,1.52,1.52,0,0,1,.44.5,1.68,1.68,0,0,1,.16.74c0,.07,0,.17,0,.29a2,2,0,0,1,0,.31l-.41,2.28c0,.22-.07.44-.09.67a4.59,4.59,0,0,0,0,.59h-.72c0-.14,0-.29,0-.45s0-.31.05-.46h0a4.21,4.21,0,0,1-.48.47,2.48,2.48,0,0,1-.5.32,2.07,2.07,0,0,1-.55.17,3.24,3.24,0,0,1-.64.06,3,3,0,0,1-.59-.07,1.51,1.51,0,0,1-1-.7,1.39,1.39,0,0,1-.16-.68,1.52,1.52,0,0,1,.39-1.09,2.43,2.43,0,0,1,1-.64,6.69,6.69,0,0,1,1.38-.3C161,92.35,161.48,92.32,162,92.32Zm-.3.62a10.24,10.24,0,0,0-1.1,0,5.88,5.88,0,0,0-1,.2,2.23,2.23,0,0,0-.75.42.94.94,0,0,0-.3.72.84.84,0,0,0,.1.44.68.68,0,0,0,.26.27,1,1,0,0,0,.37.15,2,2,0,0,0,.42,0,2.28,2.28,0,0,0,.8-.14,2.05,2.05,0,0,0,.63-.4,2.14,2.14,0,0,0,.46-.58,2.5,2.5,0,0,0,.25-.71l.08-.46Z"/><path class="cls-4" d="M165.87,90.15c0,.16,0,.32-.06.51s-.05.33-.08.45h0a2.38,2.38,0,0,1,.83-.81,2.25,2.25,0,0,1,1.09-.29,2,2,0,0,1,1.43.46,1.62,1.62,0,0,1,.51,1.26,1.32,1.32,0,0,1,0,.28c0,.1,0,.2,0,.31l-.62,3.45h-.81l.56-3.11a4.49,4.49,0,0,0,.07-.71,1.41,1.41,0,0,0-.28-.93,1.21,1.21,0,0,0-1-.34,1.88,1.88,0,0,0-.65.13,2,2,0,0,0-.6.41,2.61,2.61,0,0,0-.5.69,3.05,3.05,0,0,0-.31,1l-.51,2.88h-.8l.77-4.38c0-.15.06-.35.1-.59s.06-.45.08-.65Z"/><path class="cls-4" d="M170.93,93.49a3.65,3.65,0,0,1,.25-1.36,3.21,3.21,0,0,1,.69-1.1,3.35,3.35,0,0,1,1-.75,3.17,3.17,0,0,1,1.31-.27,2.53,2.53,0,0,1,1.15.27,1.94,1.94,0,0,1,.81.82h0l.78-4.4h.8l-1.6,9.07h-.81l.17-.92h0a2.55,2.55,0,0,1-.83.75,2.46,2.46,0,0,1-1.24.31,3.11,3.11,0,0,1-1-.17,2.31,2.31,0,0,1-.79-.5,2.14,2.14,0,0,1-.52-.77A2.55,2.55,0,0,1,170.93,93.49Zm.84,0a2.35,2.35,0,0,0,.11.71,1.69,1.69,0,0,0,.35.57,1.55,1.55,0,0,0,.55.38,1.93,1.93,0,0,0,.75.14,2.21,2.21,0,0,0,1-.22,2.41,2.41,0,0,0,.79-.59,2.94,2.94,0,0,0,.53-.87A2.89,2.89,0,0,0,176,92.5a1.9,1.9,0,0,0-.13-.73,1.59,1.59,0,0,0-.94-1,2.17,2.17,0,0,0-.74-.13,2.19,2.19,0,0,0-1,.22,2.37,2.37,0,0,0-.78.59,2.87,2.87,0,0,0-.5.87A3.4,3.4,0,0,0,171.77,93.44Z"/><path class="cls-4" d="M182.1,95.77h-.85l1.5-8.5H185a4.32,4.32,0,0,1,1.05.12,2.43,2.43,0,0,1,.83.38,1.67,1.67,0,0,1,.55.63,2,2,0,0,1,.2.9,2.48,2.48,0,0,1-.19,1,2.08,2.08,0,0,1-.54.73,2.57,2.57,0,0,1-.79.46,4.38,4.38,0,0,1-1,.22l1.88,4h-1l-1.77-4h-1.5Zm.83-4.69h1.51a4.8,4.8,0,0,0,.85-.07,2.26,2.26,0,0,0,.76-.24,1.49,1.49,0,0,0,.55-.51,1.61,1.61,0,0,0,.21-.86,1.19,1.19,0,0,0-.51-1.05,2.42,2.42,0,0,0-1.39-.34h-1.44Z"/><path class="cls-4" d="M189,93.18s0,.09,0,.14a.49.49,0,0,0,0,.12,1.9,1.9,0,0,0,.14.73,1.79,1.79,0,0,0,.38.56,1.72,1.72,0,0,0,.58.38,1.87,1.87,0,0,0,.71.13,2.23,2.23,0,0,0,1.15-.29,2.87,2.87,0,0,0,.8-.69l.5.48a3.31,3.31,0,0,1-1.14.88,3.38,3.38,0,0,1-1.38.29,2.78,2.78,0,0,1-1-.17,2.5,2.5,0,0,1-.81-.47,2.18,2.18,0,0,1-.54-.78,2.69,2.69,0,0,1-.2-1,3.44,3.44,0,0,1,.26-1.31,3.26,3.26,0,0,1,.69-1.09,3.38,3.38,0,0,1,1-.75,2.89,2.89,0,0,1,1.28-.28,2.31,2.31,0,0,1,1.74.61,2.17,2.17,0,0,1,.6,1.58c0,.1,0,.25,0,.44a2.8,2.8,0,0,1-.08.54Zm3.93-.6c0-.07,0-.14,0-.21v-.21a1.47,1.47,0,0,0-.39-1.06,1.55,1.55,0,0,0-1.17-.42,2.21,2.21,0,0,0-.82.15,2.28,2.28,0,0,0-.67.41,2.67,2.67,0,0,0-.5.61,2.42,2.42,0,0,0-.29.73Z"/><path class="cls-4" d="M198,90.82H196.5l-.59,3.3a3,3,0,0,0,0,.39.61.61,0,0,0,.19.53,1,1,0,0,0,.5.13,1.81,1.81,0,0,0,.38,0,.9.9,0,0,0,.31-.14l-.1.69a1.25,1.25,0,0,1-.4.13,2.89,2.89,0,0,1-.52,0,2,2,0,0,1-.42,0,1.08,1.08,0,0,1-.38-.17,1.07,1.07,0,0,1-.29-.34,1.28,1.28,0,0,1-.11-.55,2.77,2.77,0,0,1,0-.39l.63-3.52h-1.17l.14-.67h1.14l.27-1.58h.81l-.28,1.58h1.55Z"/><path class="cls-4" d="M199.21,95.77h-.8l1-5.62h.8ZM200.69,88a.56.56,0,0,1-.16.41.54.54,0,0,1-.4.17.53.53,0,0,1-.39-.15.48.48,0,0,1-.17-.39.54.54,0,0,1,.18-.42.56.56,0,0,1,.78,0A.51.51,0,0,1,200.69,88Z"/><path class="cls-4" d="M202.16,90.8c0-.24.06-.45.08-.65H203c0,.16,0,.32-.06.51s0,.33-.08.45h0a2.62,2.62,0,0,1,.79-.8,2,2,0,0,1,1.08-.3h.28l.25,0-.19.77a1.19,1.19,0,0,0-.23,0,1.72,1.72,0,0,0-.33,0,1.76,1.76,0,0,0-.63.12,1.6,1.6,0,0,0-.57.37,2.57,2.57,0,0,0-.46.66,3.47,3.47,0,0,0-.29,1l-.51,2.88h-.8l.77-4.38C202.09,91.24,202.12,91,202.16,90.8Z"/><path class="cls-4" d="M206,93.18s0,.09,0,.14v.12a1.9,1.9,0,0,0,.13.73,1.82,1.82,0,0,0,.39.56,1.59,1.59,0,0,0,.57.38,1.88,1.88,0,0,0,.72.13A2.26,2.26,0,0,0,209,95a2.83,2.83,0,0,0,.79-.69l.51.48a3.31,3.31,0,0,1-1.14.88,3.45,3.45,0,0,1-1.38.29,2.78,2.78,0,0,1-1-.17,2.5,2.5,0,0,1-.81-.47,2.18,2.18,0,0,1-.54-.78,2.69,2.69,0,0,1-.2-1,3.43,3.43,0,0,1,.25-1.31,3.61,3.61,0,0,1,.69-1.09,3.5,3.5,0,0,1,1-.75,3,3,0,0,1,1.28-.28,2.33,2.33,0,0,1,1.75.61,2.21,2.21,0,0,1,.59,1.58c0,.1,0,.25,0,.44a3.79,3.79,0,0,1-.09.54Zm3.92-.6a1.49,1.49,0,0,0,0-.21,1.62,1.62,0,0,0,0-.21,1.44,1.44,0,0,0-.4-1.06,1.51,1.51,0,0,0-1.16-.42,2.18,2.18,0,0,0-.82.15,2.33,2.33,0,0,0-.68.41,2.63,2.63,0,0,0-.49.61,2.19,2.19,0,0,0-.29.73Z"/><path class="cls-4" d="M212.71,93.18a.66.66,0,0,0,0,.14.49.49,0,0,0,0,.12,1.9,1.9,0,0,0,.14.73,1.79,1.79,0,0,0,.38.56,1.62,1.62,0,0,0,.58.38,1.83,1.83,0,0,0,.71.13,2.23,2.23,0,0,0,1.15-.29,3,3,0,0,0,.8-.69l.5.48a3.31,3.31,0,0,1-1.14.88,3.38,3.38,0,0,1-1.38.29,2.78,2.78,0,0,1-1-.17,2.5,2.5,0,0,1-.81-.47,2.18,2.18,0,0,1-.54-.78,2.69,2.69,0,0,1-.2-1,3.44,3.44,0,0,1,.26-1.31,3.26,3.26,0,0,1,.69-1.09,3.38,3.38,0,0,1,1-.75,2.89,2.89,0,0,1,1.28-.28,2.31,2.31,0,0,1,1.74.61,2.17,2.17,0,0,1,.6,1.58c0,.1,0,.25,0,.44a2.8,2.8,0,0,1-.08.54Zm3.93-.6c0-.07,0-.14,0-.21v-.21a1.47,1.47,0,0,0-.39-1.06,1.55,1.55,0,0,0-1.17-.42,2.21,2.21,0,0,0-.82.15,2.28,2.28,0,0,0-.67.41,2.56,2.56,0,0,0-.79,1.34Z"/><path class="cls-4" d="M222.4,91.39a1.32,1.32,0,0,0-.51-.51,1.56,1.56,0,0,0-.8-.2,2.48,2.48,0,0,0-.45,0,1.23,1.23,0,0,0-.43.16,1,1,0,0,0-.33.28.72.72,0,0,0-.12.42.74.74,0,0,0,.08.38.71.71,0,0,0,.22.24,1.27,1.27,0,0,0,.35.18l.46.15a3.21,3.21,0,0,1,1.26.61,1.28,1.28,0,0,1,.44,1,1.42,1.42,0,0,1-.21.78,1.76,1.76,0,0,1-.51.54,2.33,2.33,0,0,1-.7.31,3.35,3.35,0,0,1-.76.09,3.24,3.24,0,0,1-1.32-.26,2,2,0,0,1-1-.79l.7-.46a1.65,1.65,0,0,0,.61.59,1.75,1.75,0,0,0,1,.25,2.84,2.84,0,0,0,.51,0,1.5,1.5,0,0,0,.45-.17.93.93,0,0,0,.32-.3.81.81,0,0,0,.12-.44.78.78,0,0,0-.35-.68,4.14,4.14,0,0,0-1-.45l-.5-.19a2,2,0,0,1-.46-.29,1.4,1.4,0,0,1-.33-.42,1.51,1.51,0,0,1,.08-1.34,1.62,1.62,0,0,1,.5-.51,2.4,2.4,0,0,1,.69-.3,3.37,3.37,0,0,1,.77-.09,2.6,2.6,0,0,1,1.16.25,1.6,1.6,0,0,1,.73.67Z"/></svg>