<svg xmlns="http://www.w3.org/2000/svg" viewBox="0 0 294.63 97.08"><title>direct-color-1c</title><path d="M108.7,38h6.86a18.75,18.75,0,0,1,4.73.58,10.55,10.55,0,0,1,3.9,1.87,9.07,9.07,0,0,1,2.65,3.37,11.64,11.64,0,0,1,1,5,10.54,10.54,0,0,1-1,4.62,9.82,9.82,0,0,1-2.56,3.35,11.07,11.07,0,0,1-3.72,2.06,13.82,13.82,0,0,1-4.42.7H108.7Zm4.57,17.2h2.37a12.51,12.51,0,0,0,3-.33,6.25,6.25,0,0,0,2.35-1.12,5.27,5.27,0,0,0,1.57-2,7.56,7.56,0,0,0,.57-3.1,6.27,6.27,0,0,0-.57-2.76A5.46,5.46,0,0,0,121,43.87a6.82,6.82,0,0,0-2.27-1.14,9.84,9.84,0,0,0-2.73-.38h-2.7Z" fill="#00205c"/><path d="M130.87,38h4.57V59.55h-4.57Z" fill="#00205c"/><path d="M139.6,38h8a13.27,13.27,0,0,1,3,.32,6.84,6.84,0,0,1,2.49,1.07,5.17,5.17,0,0,1,1.7,2,7,7,0,0,1,.63,3.15,6.51,6.51,0,0,1-1.14,3.89,5.09,5.09,0,0,1-3.34,2l5.27,9.12h-5.48l-4.33-8.63h-2.26v8.63H139.6Zm4.56,8.93h2.7c.41,0,.84,0,1.3,0a3.76,3.76,0,0,0,1.25-.28,2.2,2.2,0,0,0,.92-.71,2.31,2.31,0,0,0,.37-1.38,2.33,2.33,0,0,0-.33-1.31,2.16,2.16,0,0,0-.82-.74,3.55,3.55,0,0,0-1.14-.36,9.11,9.11,0,0,0-1.26-.09h-3Z" fill="#00205c"/><path d="M158.75,38h14.08v4.39h-9.51v4h9v4.39h-9v4.39h10v4.39H158.75Z" fill="#00205c"/><path d="M190.58,43.57a4.42,4.42,0,0,0-1.66-1.31,5.23,5.23,0,0,0-2.27-.46,5.45,5.45,0,0,0-2.38.52,5.74,5.74,0,0,0-1.91,1.45A6.91,6.91,0,0,0,181.11,46a8.66,8.66,0,0,0,0,5.57,6.9,6.9,0,0,0,1.24,2.19,5.65,5.65,0,0,0,1.86,1.45,5.14,5.14,0,0,0,2.3.52A5,5,0,0,0,189,55.1a5,5,0,0,0,1.78-1.71l3.81,3a8,8,0,0,1-3.34,2.84,9.94,9.94,0,0,1-4.16.91,12.3,12.3,0,0,1-4.48-.79,10.06,10.06,0,0,1-5.87-5.86,13.69,13.69,0,0,1,0-9.39,10.06,10.06,0,0,1,5.87-5.86,12.3,12.3,0,0,1,4.48-.79,10.42,10.42,0,0,1,3.71.7,8.15,8.15,0,0,1,1.77,1,6.91,6.91,0,0,1,1.52,1.49Z" fill="#00205c"/><path d="M201.09,42.17h-5.91V38h16.39v4.21h-5.91V59.55h-4.57Z" fill="#00205c"/><circle cx="48.54" cy="48.54" r="47.49" fill="none" stroke="#7e83a9" stroke-miterlimit="10" stroke-width="2.11"/><circle cx="48.54" cy="48.54" r="43.98" fill="#00205c"/><path d="M75.07,36.71a8.12,8.12,0,0,1,6,2.53,14,14,0,0,1,2.89,5c.07.21.15.32.36.29l.87-.15c.14,0,.14-.22.14-.5L85,36.64c0-.29-.07-.51-.43-.51s-.33.11-.51.36l-.43.58c-.22.29-.43.4-.87.07a13.31,13.31,0,0,0-7.36-2c-6.66,0-11.44,1.43-14.53,11.05L57.88,54l-4.51-10.1s-1.88-4.5-2.7-4.5-2.75,4.2-2.75,4.2S43,54,42.75,54.76l-.07,0L37.07,38.05c-.25-.76.14-1.27.86-1.27h.69c.25,0,.32-.1.32-.29v-.9c0-.18-.07-.25-.28-.25l-3.54.09c-.17,0-.43.53-.69,1.22-1.11,2.46-6.37,13.94-6.66,14.86h-.15L21.09,36.3a1,1,0,0,0-.9-.79c-.51,0-.8.58-.94.94-.72,1.8-8.08,22-8.45,22.81a1.78,1.78,0,0,1-1.58,1.19H5c-.22,0-.26.1-.26.28v1c0,.11.08.18.22.18s4.88-.11,6.91-.11c2.23,0,3.46.11,3.82.11s.29-.11.29-.29v-.87c0-.18,0-.28-.25-.28h-1c-.86,0-1.22-.51-1.22-1,0-2,4.11-13.9,5.19-17.08h.15L24,55.26s1.19,2.82,1.93,2.82c1.13,0,2.84-4,2.84-4s4.87-10.87,5.16-11.63l.07,0,5.61,16.67a.87.87,0,0,1-.86,1.27h-.69c-.25,0-.32.1-.32.28v.91c0,.18.07.25.29.25l3-.06a1,1,0,0,0,.69-.31,1.14,1.14,0,0,0,.37-.48c.14-.4,6.53-13.86,6.86-14.87h.14L55.6,60.93c.15.43.4.79.9.79,1.94,0,2.58-.76,3.35-3,.4-1.14,2.75-7.77,4.89-13.4C67.28,38.67,71.17,36.71,75.07,36.71Zm17,13.4c-.36,0-6.86.11-9.89.11s-4.69-.11-5.12-.11c-.15,0-.22.07-.22.29v.83c0,.18.07.33.29.33H78.6c.94,0,1.3.36,1.3,1.66v2.63c0,1.88-.07,2.89-.86,3.32-1.23.65-2.6.61-4.91.61-3.59,0-6.17-2.26-9.13-4.65-.45-.36-.7-.19-.82,0s-.58,1.37-.71,1.68a.86.86,0,0,0,.21,1c2.49,2.77,6.73,3.92,10.16,3.92a21,21,0,0,0,10.25-2.38c.36-.15.58-.29.58-.58s-.15-.65-.15-1.16V52.89c0-1,.44-1.33,1.09-1.33H92.1c.22,0,.29-.08.29-.29v-.91C92.39,50.18,92.32,50.11,92,50.11Z" fill="#fff"/><path d="M108.57,79.13h-.86l1.52-8.63h.87Z" fill="#8085aa"/><path d="M112.43,73.42c0,.16,0,.33-.06.52s-.05.34-.08.46h0a2.38,2.38,0,0,1,.85-.82,2.15,2.15,0,0,1,1.11-.3,2.06,2.06,0,0,1,1.45.47,1.65,1.65,0,0,1,.52,1.27c0,.1,0,.2,0,.3s0,.2,0,.31l-.64,3.5h-.82l.56-3.16a3.69,3.69,0,0,0,.08-.72,1.5,1.5,0,0,0-.28-.94,1.22,1.22,0,0,0-1-.35,1.94,1.94,0,0,0-.66.13,2.06,2.06,0,0,0-.62.42,2.67,2.67,0,0,0-.5.7,3.36,3.36,0,0,0-.32,1l-.51,2.92h-.82l.78-4.45c0-.15.07-.35.1-.6a5.89,5.89,0,0,0,.08-.66Z" fill="#8085aa"/><path d="M121.43,74.68a1.34,1.34,0,0,0-.51-.52,1.63,1.63,0,0,0-.82-.2,2.58,2.58,0,0,0-.46.05,1.46,1.46,0,0,0-.44.16,1,1,0,0,0-.32.28.72.72,0,0,0-.13.44.71.71,0,0,0,.3.63,1.51,1.51,0,0,0,.36.18l.47.15a3.39,3.39,0,0,1,1.28.62,1.28,1.28,0,0,1,.44,1,1.56,1.56,0,0,1-.2.8,1.74,1.74,0,0,1-.53.55,2.16,2.16,0,0,1-.71.31,2.91,2.91,0,0,1-.77.1,3.48,3.48,0,0,1-1.34-.26,2.2,2.2,0,0,1-1-.81l.71-.47a1.81,1.81,0,0,0,.62.61,1.92,1.92,0,0,0,1,.25,2.24,2.24,0,0,0,.52-.06,1.33,1.33,0,0,0,.46-.17,1,1,0,0,0,.32-.3.85.85,0,0,0,.13-.45.78.78,0,0,0-.36-.69,4.53,4.53,0,0,0-1-.46,5.38,5.38,0,0,1-.51-.2,2,2,0,0,1-.46-.28,1.44,1.44,0,0,1-.34-.43A1.41,1.41,0,0,1,118,75a1.38,1.38,0,0,1,.21-.76,1.55,1.55,0,0,1,.51-.51,2.09,2.09,0,0,1,.7-.3,3,3,0,0,1,.78-.1,2.65,2.65,0,0,1,1.18.25,1.68,1.68,0,0,1,.75.69Z" fill="#8085aa"/><path d="M126.81,79.13q0-.22.06-.51c0-.19,0-.34.08-.46h0a2.38,2.38,0,0,1-.85.82,2.14,2.14,0,0,1-1.1.3,2.1,2.1,0,0,1-1.45-.46,1.64,1.64,0,0,1-.51-1.27,2.71,2.71,0,0,1,0-.29c0-.1,0-.21,0-.32l.63-3.5h.82L124,76.6a3.86,3.86,0,0,0-.08.72,1.5,1.5,0,0,0,.28.94,1.26,1.26,0,0,0,1,.34,1.74,1.74,0,0,0,.66-.14,1.93,1.93,0,0,0,.61-.41,2.45,2.45,0,0,0,.5-.69,3.09,3.09,0,0,0,.32-1l.51-2.92h.82l-.78,4.45c0,.15-.07.35-.11.59s-.06.46-.07.65Z" fill="#8085aa"/><path d="M130.58,74.08c0-.24.06-.46.08-.66h.78c0,.16,0,.33-.06.52s0,.34-.08.46h0a2.69,2.69,0,0,1,.8-.81,2,2,0,0,1,1.1-.31h.28a1.32,1.32,0,0,1,.26,0l-.2.78a1,1,0,0,0-.22-.05,1.94,1.94,0,0,0-.34,0,1.87,1.87,0,0,0-.65.12,1.76,1.76,0,0,0-.58.38,2.63,2.63,0,0,0-.46.67,4,4,0,0,0-.3,1l-.51,2.92h-.82l.78-4.45C130.51,74.53,130.54,74.33,130.58,74.08Z" fill="#8085aa"/><path d="M137.87,75.63c0-.14,0-.24,0-.32s0-.15,0-.21a1,1,0,0,0-.36-.88,1.63,1.63,0,0,0-1-.26,2.54,2.54,0,0,0-1,.2,3.39,3.39,0,0,0-.8.48l-.36-.55a3.26,3.26,0,0,1,1-.59,3.48,3.48,0,0,1,1.21-.22,3.33,3.33,0,0,1,.78.09,1.87,1.87,0,0,1,.64.29,1.53,1.53,0,0,1,.44.51,1.6,1.6,0,0,1,.17.75c0,.08,0,.18,0,.3a2.16,2.16,0,0,1,0,.31l-.42,2.32q-.06.33-.09.69a4.59,4.59,0,0,0,0,.59h-.73c0-.13,0-.28,0-.45l.06-.47h0c-.17.18-.33.34-.49.48a2.54,2.54,0,0,1-.51.32,2.45,2.45,0,0,1-.56.18,3.36,3.36,0,0,1-.65,0,2.46,2.46,0,0,1-.6-.07,1.66,1.66,0,0,1-.56-.25,1.52,1.52,0,0,1-.41-.46,1.33,1.33,0,0,1-.17-.69,1.57,1.57,0,0,1,.39-1.11,2.51,2.51,0,0,1,1-.64,5.84,5.84,0,0,1,1.41-.31C136.81,75.66,137.34,75.63,137.87,75.63Zm-.31.62a10.79,10.79,0,0,0-1.12.06,5.17,5.17,0,0,0-1,.21,2,2,0,0,0-.77.42,1,1,0,0,0-.3.73.88.88,0,0,0,.1.45.77.77,0,0,0,.26.28,1.07,1.07,0,0,0,.38.14,2,2,0,0,0,.43,0,2.07,2.07,0,0,0,.8-.15A2.15,2.15,0,0,0,137,78a2.31,2.31,0,0,0,.47-.6,2.5,2.5,0,0,0,.25-.71l.09-.48Z" fill="#8085aa"/><path d="M141.75,73.42c0,.16,0,.33-.06.52s-.05.34-.08.46h0a2.38,2.38,0,0,1,.85-.82,2.15,2.15,0,0,1,1.11-.3,2.06,2.06,0,0,1,1.45.47,1.65,1.65,0,0,1,.52,1.27c0,.1,0,.2,0,.3s0,.2-.05.31l-.63,3.5h-.82l.56-3.16a3.69,3.69,0,0,0,.08-.72,1.5,1.5,0,0,0-.28-.94,1.22,1.22,0,0,0-1-.35,1.94,1.94,0,0,0-.66.13,2.06,2.06,0,0,0-.62.42,2.67,2.67,0,0,0-.5.7,3.09,3.09,0,0,0-.32,1l-.51,2.92H140l.78-4.45c0-.15.07-.35.1-.6a5.89,5.89,0,0,0,.08-.66Z" fill="#8085aa"/><path d="M151.64,74.72a1.25,1.25,0,0,0-.5-.55,1.63,1.63,0,0,0-.83-.21,2.29,2.29,0,0,0-1,.22,2.4,2.4,0,0,0-.8.61,2.71,2.71,0,0,0-.52.89,3,3,0,0,0-.19,1.08,2.15,2.15,0,0,0,.12.73,1.58,1.58,0,0,0,.36.58,1.85,1.85,0,0,0,.58.39,2.13,2.13,0,0,0,.78.14,2.09,2.09,0,0,0,1-.21,2.43,2.43,0,0,0,.72-.54l.53.45a3.8,3.8,0,0,1-1,.72,3,3,0,0,1-1.28.26,3.17,3.17,0,0,1-1.1-.18,2.29,2.29,0,0,1-1.38-1.27,2.7,2.7,0,0,1-.18-1,3.72,3.72,0,0,1,.25-1.38,3.25,3.25,0,0,1,1.77-1.89,3.41,3.41,0,0,1,1.41-.28,3.15,3.15,0,0,1,1.19.23,1.65,1.65,0,0,1,.83.73Z" fill="#8085aa"/><path d="M153.64,76.5s0,.09,0,.14v.13a2,2,0,0,0,.14.74,1.61,1.61,0,0,0,.39.57,1.66,1.66,0,0,0,.59.38,1.89,1.89,0,0,0,.72.14,2.21,2.21,0,0,0,1.17-.3,2.79,2.79,0,0,0,.81-.7l.51.48a3.23,3.23,0,0,1-1.16.9,3.36,3.36,0,0,1-1.4.3,3.13,3.13,0,0,1-1-.17,2.42,2.42,0,0,1-.82-.49,2.16,2.16,0,0,1-.55-.79,2.71,2.71,0,0,1-.2-1.06,3.63,3.63,0,0,1,1-2.44,3.4,3.4,0,0,1,1.05-.77,3,3,0,0,1,1.3-.28,2.33,2.33,0,0,1,1.77.62,2.21,2.21,0,0,1,.6,1.61,4.23,4.23,0,0,1,0,.45,2.76,2.76,0,0,1-.09.54Zm4-.61a1.49,1.49,0,0,0,0-.21,1.7,1.7,0,0,0,0-.22,1.49,1.49,0,0,0-.41-1.08,1.54,1.54,0,0,0-1.18-.42,2.23,2.23,0,0,0-.83.15,2.41,2.41,0,0,0-.69.42,2.48,2.48,0,0,0-.5.62,2.5,2.5,0,0,0-.3.74Z" fill="#8085aa"/><path d="M165.75,74.11H164.4l-.87,5h-.82l.88-5h-1.21l.13-.69h1.19l.27-1.55a3.26,3.26,0,0,1,.23-.81,2.11,2.11,0,0,1,.42-.67,2,2,0,0,1,.63-.46,2,2,0,0,1,.85-.17l.33,0a2.05,2.05,0,0,1,.34.07l-.19.72a2.1,2.1,0,0,0-.58-.07,1,1,0,0,0-.5.11.89.89,0,0,0-.36.31,1.87,1.87,0,0,0-.23.47,3.39,3.39,0,0,0-.14.57l-.26,1.46h1.37Z" fill="#8085aa"/><path d="M168.5,79.28a3.06,3.06,0,0,1-1.06-.18,2.41,2.41,0,0,1-.83-.51,2.2,2.2,0,0,1-.55-.78,2.53,2.53,0,0,1-.19-1,3.65,3.65,0,0,1,.25-1.36,3.59,3.59,0,0,1,.7-1.12,3.42,3.42,0,0,1,1.07-.76,3.47,3.47,0,0,1,2.44-.11,2.41,2.41,0,0,1,.83.51,2.37,2.37,0,0,1,.54.78,2.51,2.51,0,0,1,.2,1,3.93,3.93,0,0,1-.25,1.38,3.25,3.25,0,0,1-.71,1.12,3.3,3.3,0,0,1-1.07.76A3.23,3.23,0,0,1,168.5,79.28ZM171,75.8a2.11,2.11,0,0,0-.12-.73,1.5,1.5,0,0,0-.36-.58,1.69,1.69,0,0,0-.58-.39,2,2,0,0,0-.76-.14,2.19,2.19,0,0,0-1,.23,2.43,2.43,0,0,0-.78.61,2.79,2.79,0,0,0-.51.89,3,3,0,0,0-.19,1.07,2.15,2.15,0,0,0,.12.73,1.58,1.58,0,0,0,.36.58,1.92,1.92,0,0,0,.57.39,2,2,0,0,0,.76.14,2.23,2.23,0,0,0,1-.23,2.47,2.47,0,0,0,.79-.6,2.79,2.79,0,0,0,.51-.89A3.22,3.22,0,0,0,171,75.8Z" fill="#8085aa"/><path d="M173.89,74.08c0-.24.06-.46.08-.66h.78c0,.16,0,.33-.06.52s-.05.34-.07.46h0a2.61,2.61,0,0,1,.81-.81,2,2,0,0,1,1.09-.31h.29a1.23,1.23,0,0,1,.25,0l-.19.78a1.19,1.19,0,0,0-.23-.05,2,2,0,0,0-1,.1,1.67,1.67,0,0,0-.58.38,2.4,2.4,0,0,0-.46.67,3.3,3.3,0,0,0-.3,1l-.52,2.92H173l.78-4.45C173.82,74.53,173.85,74.33,173.89,74.08Z" fill="#8085aa"/><path d="M180.9,79.13H180l1.53-8.63h.87Z" fill="#8085aa"/><path d="M184.76,73.42c0,.16,0,.33-.06.52s0,.34-.08.46h0a2.38,2.38,0,0,1,.85-.82,2.14,2.14,0,0,1,1.1-.3,2.09,2.09,0,0,1,1.46.47,1.65,1.65,0,0,1,.52,1.27c0,.1,0,.2,0,.3s0,.2-.05.31l-.63,3.5h-.82l.56-3.16a3.69,3.69,0,0,0,.08-.72,1.5,1.5,0,0,0-.28-.94,1.22,1.22,0,0,0-1-.35,1.94,1.94,0,0,0-.66.13,2.06,2.06,0,0,0-.62.42,2.67,2.67,0,0,0-.5.7,3.09,3.09,0,0,0-.32,1l-.51,2.92H183l.78-4.45c0-.15.07-.35.1-.6a5.89,5.89,0,0,0,.08-.66Z" fill="#8085aa"/><path d="M189.86,76.82a3.72,3.72,0,0,1,.25-1.38,3.36,3.36,0,0,1,.7-1.13,3.56,3.56,0,0,1,1.07-.75,3.11,3.11,0,0,1,1.33-.28,2.46,2.46,0,0,1,1.17.28,1.88,1.88,0,0,1,.82.83h0l.79-4.48h.82l-1.64,9.22h-.82l.17-.94h0a2.42,2.42,0,0,1-.84.77,2.56,2.56,0,0,1-1.26.32,2.89,2.89,0,0,1-1.05-.18,2.21,2.21,0,0,1-.82-.5,2.32,2.32,0,0,1-.52-.78A2.7,2.7,0,0,1,189.86,76.82Zm.85-.06a2.09,2.09,0,0,0,.12.72,1.66,1.66,0,0,0,.34.59,1.92,1.92,0,0,0,.57.39,1.94,1.94,0,0,0,.76.14,2.36,2.36,0,0,0,1-.22,2.55,2.55,0,0,0,.81-.61,2.87,2.87,0,0,0,.54-.89,2.9,2.9,0,0,0,.19-1.07,2,2,0,0,0-.13-.74,1.63,1.63,0,0,0-.95-1,2.06,2.06,0,0,0-.76-.14,2.31,2.31,0,0,0-1,.22,2.59,2.59,0,0,0-.79.6,2.67,2.67,0,0,0-.5.89A3.24,3.24,0,0,0,190.71,76.76Z" fill="#8085aa"/><path d="M198.14,79.13h-.82l1-5.71h.81Zm1.5-7.91a.56.56,0,0,1-.16.41.59.59,0,0,1-.81,0,.49.49,0,0,1-.16-.4.61.61,0,0,1,.17-.43.6.6,0,0,1,.41-.17.5.5,0,0,1,.39.16A.51.51,0,0,1,199.64,71.22Z" fill="#8085aa"/><path d="M202.27,79.13h-.88l-1.2-5.71H201l.92,4.84h0l2.85-4.84h.89Z" fill="#8085aa"/><path d="M206.71,79.13h-.82l1-5.71h.82Zm1.5-7.91a.57.57,0,0,1-.17.41.55.55,0,0,1-.41.17.56.56,0,0,1-.39-.15.5.5,0,0,1-.17-.4.6.6,0,0,1,.59-.6.53.53,0,0,1,.39.16A.55.55,0,0,1,208.21,71.22Z" fill="#8085aa"/><path d="M208.74,76.82a3.93,3.93,0,0,1,.25-1.38,3.39,3.39,0,0,1,.71-1.13,3.51,3.51,0,0,1,1.06-.75,3.16,3.16,0,0,1,1.34-.28,2.45,2.45,0,0,1,1.16.28,1.85,1.85,0,0,1,.83.83h0l.8-4.48h.81l-1.63,9.22h-.82l.17-.94h0a2.42,2.42,0,0,1-.84.77,2.56,2.56,0,0,1-1.26.32,3,3,0,0,1-1.06-.18,2.25,2.25,0,0,1-.81-.5,2.18,2.18,0,0,1-.52-.78A2.7,2.7,0,0,1,208.74,76.82Zm.86-.06a2.36,2.36,0,0,0,.11.72,1.85,1.85,0,0,0,.35.59,1.87,1.87,0,0,0,.56.39,2,2,0,0,0,.77.14,2.4,2.4,0,0,0,1-.22,2.55,2.55,0,0,0,.81-.61,2.84,2.84,0,0,0,.53-.89,2.91,2.91,0,0,0,.2-1.07,2,2,0,0,0-.13-.74,1.64,1.64,0,0,0-.37-.59,1.58,1.58,0,0,0-.59-.38,2,2,0,0,0-.75-.14,2.25,2.25,0,0,0-1,.22,2.47,2.47,0,0,0-.79.6,2.51,2.51,0,0,0-.5.89A3.24,3.24,0,0,0,209.6,76.76Z" fill="#8085aa"/><path d="M220.2,79.13q0-.22.06-.51c0-.19.05-.34.08-.46h0a2.38,2.38,0,0,1-.85.82,2.14,2.14,0,0,1-1.1.3,2.1,2.1,0,0,1-1.45-.46,1.65,1.65,0,0,1-.52-1.27,2.64,2.64,0,0,1,0-.29c0-.1,0-.21.05-.32l.63-3.5h.82l-.56,3.16a3.86,3.86,0,0,0-.08.72,1.5,1.5,0,0,0,.28.94,1.26,1.26,0,0,0,1,.34,1.65,1.65,0,0,0,.65-.14,1.86,1.86,0,0,0,.62-.41,2.45,2.45,0,0,0,.5-.69,3.36,3.36,0,0,0,.32-1l.51-2.92H222l-.78,4.45c0,.15-.07.35-.11.59s-.06.46-.08.65Z" fill="#8085aa"/><path d="M227.31,75.63a1.68,1.68,0,0,0,.05-.32,1.83,1.83,0,0,0,0-.21,1,1,0,0,0-.36-.88,1.64,1.64,0,0,0-1-.26,2.61,2.61,0,0,0-1,.2,3.31,3.31,0,0,0-.79.48l-.36-.55a3.15,3.15,0,0,1,1-.59,3.48,3.48,0,0,1,1.21-.22,3.19,3.19,0,0,1,.77.09,1.84,1.84,0,0,1,.65.29,1.66,1.66,0,0,1,.44.51,1.6,1.6,0,0,1,.16.75c0,.08,0,.18,0,.3s0,.23,0,.31l-.42,2.32c0,.22-.07.45-.1.69s0,.43,0,.59h-.74c0-.13,0-.28,0-.45a3.55,3.55,0,0,1,.06-.47h0a5.43,5.43,0,0,1-.48.48,2.86,2.86,0,0,1-.51.32,2.62,2.62,0,0,1-.56.18,3.41,3.41,0,0,1-.66,0,2.44,2.44,0,0,1-.59-.07,1.58,1.58,0,0,1-.56-.25,1.4,1.4,0,0,1-.41-.46,1.33,1.33,0,0,1-.17-.69,1.57,1.57,0,0,1,.39-1.11,2.51,2.51,0,0,1,1-.64,5.84,5.84,0,0,1,1.41-.31C226.26,75.66,226.79,75.63,227.31,75.63Zm-.3.62a10.65,10.65,0,0,0-1.12.06,5.27,5.27,0,0,0-1,.21,2,2,0,0,0-.76.42,1,1,0,0,0-.3.73,1,1,0,0,0,.09.45.9.9,0,0,0,.27.28,1.09,1.09,0,0,0,.37.14,2.2,2.2,0,0,0,.44,0,2.07,2.07,0,0,0,.8-.15,2.15,2.15,0,0,0,.65-.4,2.09,2.09,0,0,0,.46-.6,2.52,2.52,0,0,0,.26-.71l.08-.48Z" fill="#8085aa"/><path d="M230.29,79.13h-.83l1.62-9.22h.83Z" fill="#8085aa"/><path d="M236.23,74.68a1.34,1.34,0,0,0-.51-.52,1.63,1.63,0,0,0-.82-.2,2.38,2.38,0,0,0-.45.05,1.29,1.29,0,0,0-.44.16.91.91,0,0,0-.33.28.72.72,0,0,0-.13.44.71.71,0,0,0,.3.63,1.51,1.51,0,0,0,.36.18l.47.15a3.39,3.39,0,0,1,1.28.62,1.28,1.28,0,0,1,.44,1,1.46,1.46,0,0,1-.2.8,1.74,1.74,0,0,1-.53.55,2.16,2.16,0,0,1-.71.31,2.89,2.89,0,0,1-.76.1,3.57,3.57,0,0,1-1.35-.26,2.12,2.12,0,0,1-1-.81l.7-.47a1.76,1.76,0,0,0,.63.61,1.85,1.85,0,0,0,1,.25,2.24,2.24,0,0,0,.52-.06,1.33,1.33,0,0,0,.46-.17.93.93,0,0,0,.32-.3.77.77,0,0,0,.13-.45.78.78,0,0,0-.36-.69,4.63,4.63,0,0,0-1-.46,4.65,4.65,0,0,1-.52-.2,2,2,0,0,1-.46-.28,1.44,1.44,0,0,1-.34-.43,1.41,1.41,0,0,1-.12-.61,1.37,1.37,0,0,1,.2-.76,1.55,1.55,0,0,1,.51-.51,2.09,2.09,0,0,1,.7-.3,3,3,0,0,1,.78-.1,2.65,2.65,0,0,1,1.18.25,1.59,1.59,0,0,1,.75.69Z" fill="#8085aa"/><path d="M246.3,72.11a1.72,1.72,0,0,1-.18.78,2.76,2.76,0,0,1-.5.65,3.87,3.87,0,0,1-.73.55,6.26,6.26,0,0,1-.9.44l1.63,2,1.52-2.12h1l-2.05,2.7,1.59,2h-1.11l-1-1.28a4.47,4.47,0,0,1-1.29,1.08,3.13,3.13,0,0,1-1.47.35,3.51,3.51,0,0,1-1-.13,2.23,2.23,0,0,1-.78-.41,1.79,1.79,0,0,1-.51-.67,2.28,2.28,0,0,1-.18-.94,2.12,2.12,0,0,1,.24-1,2.9,2.9,0,0,1,.6-.79,3.85,3.85,0,0,1,.8-.59c.3-.17.58-.31.85-.43a2.85,2.85,0,0,1-.5-.86,2.64,2.64,0,0,1-.17-.94,2.57,2.57,0,0,1,.15-.9,2.26,2.26,0,0,1,.45-.71,2,2,0,0,1,.68-.46,2.3,2.3,0,0,1,.88-.16,2.07,2.07,0,0,1,1.41.47A1.69,1.69,0,0,1,246.3,72.11Zm-3.06,2.78a5.06,5.06,0,0,0-.74.36,2.89,2.89,0,0,0-.62.47,2.17,2.17,0,0,0-.43.61,1.79,1.79,0,0,0-.17.78,1.3,1.3,0,0,0,.47,1.06,1.75,1.75,0,0,0,1.13.38,2.24,2.24,0,0,0,1.18-.32,4.27,4.27,0,0,0,1-1Zm2.21-2.72a1.2,1.2,0,0,0-.3-.86,1,1,0,0,0-.81-.33,1.26,1.26,0,0,0-1,.42,1.51,1.51,0,0,0-.37,1,2,2,0,0,0,.2.86,2.56,2.56,0,0,0,.44.69,6.7,6.7,0,0,0,.71-.35,3.3,3.3,0,0,0,.58-.41,2,2,0,0,0,.39-.49A1.17,1.17,0,0,0,245.45,72.17Z" fill="#8085aa"/><path d="M252.74,79.13h-.86l1.52-8.63h5.09l-.14.76h-4.22l-.53,3h3.91l-.12.74h-3.92Z" fill="#8085aa"/><path d="M262,75.63c0-.14,0-.24.05-.32s0-.15,0-.21a1,1,0,0,0-.36-.88,1.63,1.63,0,0,0-1-.26,2.54,2.54,0,0,0-1,.2,3.39,3.39,0,0,0-.8.48l-.36-.55a3.26,3.26,0,0,1,1-.59,3.48,3.48,0,0,1,1.21-.22,3.33,3.33,0,0,1,.78.09,1.87,1.87,0,0,1,.64.29,1.53,1.53,0,0,1,.44.51,1.6,1.6,0,0,1,.17.75c0,.08,0,.18,0,.3a2.16,2.16,0,0,1,0,.31l-.42,2.32q-.06.33-.09.69a4.59,4.59,0,0,0,0,.59h-.73a3.7,3.7,0,0,1,0-.45c0-.16,0-.32.05-.47h0c-.17.18-.33.34-.49.48a2.54,2.54,0,0,1-.51.32,2.45,2.45,0,0,1-.56.18,3.36,3.36,0,0,1-.65,0,2.46,2.46,0,0,1-.6-.07,1.66,1.66,0,0,1-.56-.25,1.52,1.52,0,0,1-.41-.46,1.33,1.33,0,0,1-.17-.69,1.53,1.53,0,0,1,.4-1.11,2.47,2.47,0,0,1,1-.64,5.84,5.84,0,0,1,1.41-.31C261,75.66,261.5,75.63,262,75.63Zm-.31.62a10.79,10.79,0,0,0-1.12.06,5.17,5.17,0,0,0-1,.21,2,2,0,0,0-.77.42,1,1,0,0,0-.3.73.88.88,0,0,0,.1.45.77.77,0,0,0,.26.28,1.07,1.07,0,0,0,.38.14,2,2,0,0,0,.43,0,2.16,2.16,0,0,0,.81-.15,2.23,2.23,0,0,0,.64-.4,2.31,2.31,0,0,0,.47-.6,2.5,2.5,0,0,0,.25-.71l.09-.48Z" fill="#8085aa"/><path d="M271.38,73.28a2.06,2.06,0,0,1,1.45.47,1.62,1.62,0,0,1,.52,1.27c0,.1,0,.2,0,.3s0,.2,0,.31l-.63,3.5h-.82L272.4,76a3.65,3.65,0,0,0,.07-.72,1.44,1.44,0,0,0-.28-.94,1.22,1.22,0,0,0-1-.35,1.54,1.54,0,0,0-.77.18,1.85,1.85,0,0,0-.55.49,2.66,2.66,0,0,0-.36.69,6.36,6.36,0,0,0-.2.78l-.53,3H268l.6-3.31a4.11,4.11,0,0,0,.07-.75,1.21,1.21,0,0,0-.25-.81,1.1,1.1,0,0,0-.88-.3,1.72,1.72,0,0,0-.61.13,1.87,1.87,0,0,0-.6.42,2.67,2.67,0,0,0-.5.7,3.09,3.09,0,0,0-.32,1L265,79.13h-.82l.78-4.45c0-.15.07-.35.1-.6a5.89,5.89,0,0,0,.08-.66h.78c0,.16,0,.33-.06.52s-.05.34-.07.46h0a2.79,2.79,0,0,1,.86-.82,2.15,2.15,0,0,1,1.13-.3,2.06,2.06,0,0,1,.48,0,1.26,1.26,0,0,1,.47.19,1.18,1.18,0,0,1,.4.37,1.38,1.38,0,0,1,.25.6,2.36,2.36,0,0,1,.84-.9A2.18,2.18,0,0,1,271.38,73.28Z" fill="#8085aa"/><path d="M275.48,79.13h-.81l1-5.71h.82ZM277,71.22a.58.58,0,0,1-.58.58.56.56,0,0,1-.39-.15.5.5,0,0,1-.17-.4.6.6,0,0,1,.59-.6.53.53,0,0,1,.39.16A.55.55,0,0,1,277,71.22Z" fill="#8085aa"/><path d="M278.4,79.13h-.83l1.62-9.22H280Z" fill="#8085aa"/><path d="M281.29,79.13h-.81l1-5.71h.82Zm1.5-7.91a.56.56,0,0,1-.16.41.57.57,0,0,1-.41.17.59.59,0,0,1-.4-.15.49.49,0,0,1-.16-.4.58.58,0,0,1,.18-.43.56.56,0,0,1,.4-.17.54.54,0,0,1,.4.16A.54.54,0,0,1,282.79,71.22Z" fill="#8085aa"/><path d="M284.18,76.5s0,.09,0,.14a.57.57,0,0,0,0,.13,2,2,0,0,0,.14.74,1.61,1.61,0,0,0,.39.57,1.66,1.66,0,0,0,.59.38,1.89,1.89,0,0,0,.72.14,2.21,2.21,0,0,0,1.17-.3,2.67,2.67,0,0,0,.81-.7l.51.48a3.23,3.23,0,0,1-1.16.9,3.32,3.32,0,0,1-1.4.3,3.13,3.13,0,0,1-1-.17,2.42,2.42,0,0,1-.82-.49,2.28,2.28,0,0,1-.55-.79,2.71,2.71,0,0,1-.2-1.06,3.5,3.5,0,0,1,.26-1.33,3.33,3.33,0,0,1,.7-1.11,3.4,3.4,0,0,1,1-.77,3,3,0,0,1,1.3-.28,2.33,2.33,0,0,1,1.77.62,2.22,2.22,0,0,1,.61,1.61q0,.15,0,.45a2.8,2.8,0,0,1-.08.54Zm4-.61a1.49,1.49,0,0,0,0-.21,1.7,1.7,0,0,0,0-.22,1.53,1.53,0,0,0-.4-1.08,1.58,1.58,0,0,0-1.19-.42,2.23,2.23,0,0,0-.83.15,2.41,2.41,0,0,0-.69.42,2.72,2.72,0,0,0-.5.62,2.5,2.5,0,0,0-.3.74Z" fill="#8085aa"/><path d="M294,74.68a1.34,1.34,0,0,0-.51-.52,1.63,1.63,0,0,0-.82-.2,2.58,2.58,0,0,0-.46.05,1.31,1.31,0,0,0-.43.16.91.91,0,0,0-.33.28.72.72,0,0,0-.13.44.74.74,0,0,0,.08.38.86.86,0,0,0,.22.25,1.51,1.51,0,0,0,.36.18l.47.15a3.39,3.39,0,0,1,1.28.62,1.28,1.28,0,0,1,.44,1,1.56,1.56,0,0,1-.2.8,1.74,1.74,0,0,1-.53.55,2.16,2.16,0,0,1-.71.31,2.91,2.91,0,0,1-.77.1A3.52,3.52,0,0,1,290.6,79a2.2,2.2,0,0,1-1-.81l.71-.47a1.81,1.81,0,0,0,.62.61,1.92,1.92,0,0,0,1,.25,2.24,2.24,0,0,0,.52-.06,1.33,1.33,0,0,0,.46-.17,1,1,0,0,0,.32-.3.85.85,0,0,0,.13-.45.78.78,0,0,0-.36-.69,4.53,4.53,0,0,0-1-.46,5.38,5.38,0,0,1-.51-.2A2,2,0,0,1,291,76a1.44,1.44,0,0,1-.34-.43,1.41,1.41,0,0,1-.13-.61,1.38,1.38,0,0,1,.21-.76,1.55,1.55,0,0,1,.51-.51,2.09,2.09,0,0,1,.7-.3,3,3,0,0,1,.78-.1,2.65,2.65,0,0,1,1.18.25,1.68,1.68,0,0,1,.75.69Z" fill="#8085aa"/></svg>