<?xml version="1.0" encoding="iso-8859-1"?>
<!-- Generator: Adobe Illustrator 19.1.0, SVG Export Plug-In . SVG Version: 6.00 Build 0)  -->
<svg version="1.1" id="logo-division" xmlns="http://www.w3.org/2000/svg" xmlns:xlink="http://www.w3.org/1999/xlink" x="0px"
	 y="0px" viewBox="0 0 214.1 91.3" style="enable-background:new 0 0 214.1 91.3;" xml:space="preserve">
<style type="text/css">
	.st0{fill:#FFFFFF;}
	.st1{fill:#001F5B;}
	.st2{fill:#9E9E9E;}
	.st3{fill:none;stroke:#8083A9;stroke-width:2.1109;stroke-miterlimit:10;}
	.st4{fill:#8285AA;}
	.st5{fill:#808285;}
	.st6{fill:none;stroke:#FFFFFF;stroke-width:2.1378;stroke-miterlimit:10;}
	.st7{fill:#001F5B;stroke:#FFFFFF;stroke-width:2.1378;stroke-miterlimit:10;}
</style>
<path class="st0" d="M108.7,35h7c1.7,0,3.3,0.2,4.8,0.6c1.5,0.4,2.8,1,4,1.9c1.1,0.9,2,2,2.7,3.4s1,3.1,1,5.1c0,1.8-0.3,3.3-1,4.7
	c-0.6,1.4-1.5,2.5-2.6,3.4c-1.1,0.9-2.3,1.6-3.8,2.1c-1.4,0.5-2.9,0.7-4.5,0.7h-7.6V35z M113.3,52.5h2.4c1.1,0,2.1-0.1,3-0.3
	s1.7-0.6,2.4-1.1c0.7-0.5,1.2-1.2,1.6-2.1c0.4-0.9,0.6-1.9,0.6-3.1c0-1.1-0.2-2-0.6-2.8c-0.4-0.8-0.9-1.4-1.6-2
	c-0.7-0.5-1.4-0.9-2.3-1.2c-0.9-0.3-1.8-0.4-2.8-0.4h-2.7V52.5z"/>
<path class="st0" d="M131.2,35h4.6v21.9h-4.6V35z"/>
<path class="st0" d="M140.1,35h8.1c1.1,0,2.1,0.1,3,0.3c1,0.2,1.8,0.6,2.5,1.1c0.7,0.5,1.3,1.2,1.7,2c0.4,0.9,0.6,1.9,0.6,3.2
	c0,1.5-0.4,2.9-1.2,3.9c-0.8,1.1-1.9,1.8-3.4,2.1l5.4,9.3h-5.6l-4.4-8.8h-2.3v8.8h-4.6V35z M144.7,44.1h2.7c0.4,0,0.9,0,1.3,0
	c0.5,0,0.9-0.1,1.3-0.3c0.4-0.2,0.7-0.4,0.9-0.7c0.2-0.3,0.4-0.8,0.4-1.4c0-0.6-0.1-1-0.3-1.3c-0.2-0.3-0.5-0.6-0.8-0.8
	c-0.3-0.2-0.7-0.3-1.2-0.4c-0.4-0.1-0.9-0.1-1.3-0.1h-3V44.1z"/>
<path class="st0" d="M159.5,35h14.3v4.5h-9.7v4.1h9.1V48h-9.1v4.5h10.2v4.5h-14.8V35z"/>
<path class="st0" d="M191.8,40.7c-0.5-0.6-1-1-1.7-1.3c-0.7-0.3-1.4-0.5-2.3-0.5c-0.9,0-1.7,0.2-2.4,0.5c-0.7,0.4-1.4,0.8-1.9,1.5
	c-0.5,0.6-1,1.4-1.3,2.2c-0.3,0.9-0.5,1.8-0.5,2.8c0,1,0.2,2,0.5,2.8c0.3,0.9,0.7,1.6,1.3,2.2c0.5,0.6,1.2,1.1,1.9,1.5
	c0.7,0.4,1.5,0.5,2.3,0.5c1,0,1.8-0.2,2.5-0.6c0.7-0.4,1.3-1,1.8-1.7l3.9,3c-0.9,1.3-2,2.3-3.4,2.9c-1.4,0.6-2.8,0.9-4.2,0.9
	c-1.6,0-3.2-0.3-4.5-0.8c-1.4-0.5-2.6-1.3-3.6-2.3c-1-1-1.8-2.2-2.4-3.6c-0.6-1.4-0.8-3-0.8-4.8s0.3-3.3,0.8-4.8
	c0.6-1.4,1.4-2.6,2.4-3.6c1-1,2.2-1.8,3.6-2.3c1.4-0.5,2.9-0.8,4.5-0.8c0.6,0,1.2,0.1,1.9,0.2c0.6,0.1,1.3,0.3,1.9,0.5
	c0.6,0.2,1.2,0.6,1.8,1c0.6,0.4,1.1,0.9,1.5,1.5L191.8,40.7z"/>
<path class="st0" d="M202.5,39.3h-6V35h16.6v4.3h-6v17.6h-4.6V39.3z"/>
<circle class="st7" cx="45.7" cy="45.7" r="44.6"/>
<path class="st0" d="M72.5,33.7c2.8,0,4.8,1.2,6.1,2.6c1.5,1.5,2.4,3.6,2.9,5c0.1,0.2,0.1,0.3,0.4,0.3l0.9-0.1
	c0.1,0,0.1-0.2,0.1-0.5l-0.4-7.3c0-0.3-0.1-0.5-0.4-0.5c-0.2,0-0.3,0.1-0.5,0.4L81.2,34c-0.2,0.3-0.4,0.4-0.9,0.1
	c-1.2-0.9-3.9-2-7.5-2c-6.7,0-11.6,1.4-14.7,11.2l-3,7.8l-4.6-10.2c0,0-1.9-4.6-2.7-4.6c-0.8,0-2.8,4.3-2.8,4.3S40.1,51.2,39.8,52
	l-0.1,0L34,35c-0.3-0.8,0.1-1.3,0.9-1.3h0.7c0.3,0,0.3-0.1,0.3-0.3v-0.9c0-0.2-0.1-0.3-0.3-0.3c-0.3,0-2,0.1-3.6,0.1
	c-0.2,0-0.4,0.5-0.7,1.2c-1.1,2.5-6.4,14.1-6.7,15h-0.1l-6.6-15.4c-0.1-0.4-0.4-0.8-0.9-0.8c-0.5,0-0.8,0.6-0.9,1
	c-0.7,1.8-8.2,22.3-8.6,23.1c-0.4,0.8-1,1.2-1.6,1.2H2.9c-0.2,0-0.3,0.1-0.3,0.3v1c0,0.1,0.1,0.2,0.2,0.2c0.3,0,3.6-0.1,5.6-0.1
	c2.3,0,3.5,0.1,3.9,0.1c0.2,0,0.3-0.1,0.3-0.3V58c0-0.2,0-0.3-0.3-0.3h-1c-0.9,0-1.2-0.5-1.2-1c0-2,4.2-14.1,5.3-17.3h0.1l5.3,13.1
	c0,0,1.2,2.9,2,2.9c1.1,0,2.9-4,2.9-4s4.9-11,5.2-11.8l0.1,0l5.7,16.9c0.3,0.8-0.1,1.3-0.9,1.3h-0.7c-0.3,0-0.3,0.1-0.3,0.3v0.9
	c0,0.2,0.1,0.3,0.3,0.3c0.3,0,1.2,0,3-0.1c0.3,0,0.5-0.1,0.7-0.3c0.2-0.1,0.3-0.3,0.4-0.5c0.1-0.4,6.6-14,6.9-15.1h0.1l6.6,14.9
	c0.1,0.4,0.4,0.8,0.9,0.8c2,0,2.6-0.8,3.4-3c0.4-1.2,2.8-7.9,4.9-13.6C64.6,35.7,68.6,33.7,72.5,33.7z M90,47.2
	c-0.4,0-7.3,0.1-10.4,0.1c-3,0-4.8-0.1-5.2-0.1c-0.1,0-0.2,0.1-0.2,0.3v0.8c0,0.2,0.1,0.3,0.3,0.3h1.5c1,0,1.3,0.4,1.3,1.7v2.7
	c0,1.9-0.1,2.9-0.9,3.4c-1.2,0.7-2.6,0.6-5,0.6c-3.6,0-6.2-2.3-9.2-4.7c-0.5-0.4-0.7-0.2-0.8,0c-0.1,0.2-0.6,1.4-0.7,1.7
	c-0.1,0.3-0.2,0.7,0.2,1.1c2.5,2.8,6.8,4,10.3,4c4.4,0,7.4-0.9,10.4-2.4c0.4-0.1,0.6-0.3,0.6-0.6c0-0.3-0.1-0.7-0.1-1.2v-4.8
	c0-1.1,0.4-1.4,1.1-1.4h6.9c0.2,0,0.3-0.1,0.3-0.3v-0.9C90.4,47.3,90.3,47.2,90,47.2z"/>
</svg>
