<svg xmlns="http://www.w3.org/2000/svg" viewBox="0 0 214.14 91.32"><title>direct-reverse-notag</title><path d="M108.71,35h7a18.68,18.68,0,0,1,4.8.59,10.69,10.69,0,0,1,4,1.9,9.26,9.26,0,0,1,2.69,3.42,12,12,0,0,1,1,5.11,10.82,10.82,0,0,1-1,4.69,10,10,0,0,1-2.6,3.41,11.42,11.42,0,0,1-3.78,2.09,14.2,14.2,0,0,1-4.48.71h-7.58Zm4.63,17.46h2.41a12.33,12.33,0,0,0,3-.34A6.23,6.23,0,0,0,121.13,51a5.42,5.42,0,0,0,1.59-2.07,7.61,7.61,0,0,0,.58-3.15,6.28,6.28,0,0,0-.58-2.8,5.62,5.62,0,0,0-1.56-2,6.82,6.82,0,0,0-2.3-1.16,10.14,10.14,0,0,0-2.78-.38h-2.74Z" fill="#fff"/><path d="M131.21,35h4.63V56.92h-4.63Z" fill="#fff"/><path d="M140.07,35h8.14a14.26,14.26,0,0,1,3,.32,7,7,0,0,1,2.52,1.09,5.25,5.25,0,0,1,1.73,2,7.24,7.24,0,0,1,.64,3.2,6.64,6.64,0,0,1-1.16,4,5.18,5.18,0,0,1-3.39,2.06L157,56.92h-5.56L147,48.16H144.7v8.76h-4.63Zm4.63,9.07h2.74c.41,0,.85,0,1.32,0a3.76,3.76,0,0,0,1.26-.28A2.15,2.15,0,0,0,151,43a2.29,2.29,0,0,0,.37-1.4,2.38,2.38,0,0,0-.33-1.33,2.16,2.16,0,0,0-.83-.76,3.67,3.67,0,0,0-1.16-.35,9.32,9.32,0,0,0-1.28-.1h-3Z" fill="#fff"/><path d="M159.51,35H173.8v4.46h-9.66v4.08h9.13V48h-9.13v4.46h10.2v4.46H159.51Z" fill="#fff"/><path d="M191.82,40.69a4.73,4.73,0,0,0-1.68-1.33,5.9,5.9,0,0,0-4.73.07,5.77,5.77,0,0,0-1.93,1.47,6.83,6.83,0,0,0-1.28,2.24,8.34,8.34,0,0,0-.46,2.82,8.24,8.24,0,0,0,.46,2.83A7.23,7.23,0,0,0,183.46,51a5.83,5.83,0,0,0,1.89,1.47,5.27,5.27,0,0,0,2.33.53A4.94,4.94,0,0,0,192,50.67l3.87,3a8.11,8.11,0,0,1-3.39,2.88,10.11,10.11,0,0,1-4.22.93,12.43,12.43,0,0,1-4.55-.81,10.35,10.35,0,0,1-3.6-2.31,10.56,10.56,0,0,1-2.36-3.63,13.81,13.81,0,0,1,0-9.54,10.21,10.21,0,0,1,6-5.95,12.64,12.64,0,0,1,4.55-.8,11.18,11.18,0,0,1,1.86.17,9.31,9.31,0,0,1,1.9.54,8.85,8.85,0,0,1,1.8,1,7.39,7.39,0,0,1,1.54,1.52Z" fill="#fff"/><path d="M202.49,39.27h-6V35h16.65v4.27h-6V56.92h-4.63Z" fill="#fff"/><circle cx="45.66" cy="45.66" r="44.59" fill="#00205c" stroke="#fff" stroke-miterlimit="10" stroke-width="2.14"/><path d="M72.53,33.68a8.26,8.26,0,0,1,6.06,2.55,14.46,14.46,0,0,1,2.93,5.05c.07.22.14.33.36.29l.88-.15c.15,0,.15-.21.15-.51l-.37-7.31c0-.29-.07-.51-.44-.51-.22,0-.33.11-.51.37l-.44.58c-.22.29-.44.4-.87.07a13.54,13.54,0,0,0-7.46-2c-6.75,0-11.59,1.45-14.72,11.19l-3,7.83L50.55,40.93s-1.91-4.56-2.74-4.56S45,40.62,45,40.62,40.09,51.18,39.8,52l-.08,0L34,35a.88.88,0,0,1,.88-1.28h.69c.26,0,.33-.11.33-.29v-.92c0-.18-.07-.25-.29-.25l-3.58.09c-.17,0-.44.53-.71,1.23-1.11,2.5-6.44,14.12-6.74,15h-.15l-6.61-15.4c-.15-.44-.4-.8-.92-.8s-.8.58-1,.95c-.73,1.83-8.18,22.29-8.55,23.1a1.79,1.79,0,0,1-1.61,1.2H2.9c-.22,0-.26.11-.26.3v1c0,.11.08.19.22.19.3,0,3.56-.11,5.61-.11,2.26,0,3.5.11,3.87.11s.29-.11.29-.3V58c0-.19,0-.3-.25-.3h-1c-.88,0-1.24-.51-1.24-1,0-2,4.16-14.07,5.26-17.29h.15l5.26,13.06s1.2,2.86,1.95,2.86c1.15,0,2.87-4,2.87-4s4.94-11,5.23-11.78l.07,0,5.69,16.89a.87.87,0,0,1-.88,1.27h-.69c-.26,0-.33.11-.33.3v.91c0,.18.07.26.29.26s1.23,0,3-.07a1,1,0,0,0,.69-.31,1.11,1.11,0,0,0,.37-.49c.15-.4,6.62-14,6.95-15.05h.14L52.81,58.2c.15.44.4.81.91.81,2,0,2.61-.78,3.39-3,.41-1.15,2.79-7.86,5-13.56C64.63,35.66,68.57,33.68,72.53,33.68ZM90,47.25c-.37,0-7.29.11-10.35.11s-4.76-.11-5.2-.11c-.14,0-.21.07-.21.29v.84c0,.18.07.33.29.33H76.1c1,0,1.32.37,1.32,1.68v2.67c0,1.9-.07,2.92-.88,3.36-1.24.66-2.63.61-5,.61-3.63,0-6.24-2.28-9.24-4.7-.46-.37-.71-.19-.83,0s-.59,1.39-.72,1.7A.87.87,0,0,0,61,55.09c2.52,2.8,6.82,4,10.29,4a21.1,21.1,0,0,0,10.38-2.41c.36-.14.58-.29.58-.58s-.14-.66-.14-1.17V50.06c0-1.06.44-1.35,1.09-1.35h6.92c.22,0,.29-.07.29-.29V47.5C90.4,47.32,90.33,47.25,90,47.25Z" fill="#fff"/></svg>