<svg xmlns="http://www.w3.org/2000/svg" viewBox="0 0 297.44 91.32"><title>direct-reverse</title><path d="M108.71,35h7a18.68,18.68,0,0,1,4.8.59,10.69,10.69,0,0,1,4,1.9,9.26,9.26,0,0,1,2.69,3.42,12,12,0,0,1,1,5.11,10.82,10.82,0,0,1-1,4.69,10,10,0,0,1-2.6,3.41,11.42,11.42,0,0,1-3.78,2.09,14.2,14.2,0,0,1-4.48.71h-7.58Zm4.63,17.46h2.41a12.33,12.33,0,0,0,3-.34A6.23,6.23,0,0,0,121.13,51a5.42,5.42,0,0,0,1.59-2.07,7.61,7.61,0,0,0,.58-3.15,6.28,6.28,0,0,0-.58-2.8,5.62,5.62,0,0,0-1.56-2,6.82,6.82,0,0,0-2.3-1.16,10.14,10.14,0,0,0-2.78-.38h-2.74Z" fill="#fff"/><path d="M131.21,35h4.63V56.92h-4.63Z" fill="#fff"/><path d="M140.07,35h8.14a14.26,14.26,0,0,1,3,.32,7,7,0,0,1,2.52,1.09,5.25,5.25,0,0,1,1.73,2,7.24,7.24,0,0,1,.64,3.2,6.64,6.64,0,0,1-1.16,4,5.18,5.18,0,0,1-3.39,2.06L157,56.92h-5.56L147,48.16H144.7v8.76h-4.63Zm4.63,9.07h2.74c.41,0,.85,0,1.32,0a3.76,3.76,0,0,0,1.26-.28A2.15,2.15,0,0,0,151,43a2.29,2.29,0,0,0,.37-1.4,2.38,2.38,0,0,0-.33-1.33,2.16,2.16,0,0,0-.83-.76,3.67,3.67,0,0,0-1.16-.35,9.32,9.32,0,0,0-1.28-.1h-3Z" fill="#fff"/><path d="M159.51,35H173.8v4.46h-9.66v4.08h9.13V48h-9.13v4.46h10.2v4.46H159.51Z" fill="#fff"/><path d="M191.82,40.69a4.73,4.73,0,0,0-1.68-1.33,5.9,5.9,0,0,0-4.73.07,5.77,5.77,0,0,0-1.93,1.47,6.83,6.83,0,0,0-1.28,2.24,8.34,8.34,0,0,0-.46,2.82,8.24,8.24,0,0,0,.46,2.83A7.23,7.23,0,0,0,183.46,51a5.83,5.83,0,0,0,1.89,1.47,5.27,5.27,0,0,0,2.33.53A4.94,4.94,0,0,0,192,50.67l3.87,3a8.11,8.11,0,0,1-3.39,2.88,10.11,10.11,0,0,1-4.22.93,12.43,12.43,0,0,1-4.55-.81,10.35,10.35,0,0,1-3.6-2.31,10.56,10.56,0,0,1-2.36-3.63,13.81,13.81,0,0,1,0-9.54,10.21,10.21,0,0,1,6-5.95,12.64,12.64,0,0,1,4.55-.8,11.18,11.18,0,0,1,1.86.17,9.31,9.31,0,0,1,1.9.54,8.85,8.85,0,0,1,1.8,1,7.39,7.39,0,0,1,1.54,1.52Z" fill="#fff"/><path d="M202.49,39.27h-6V35h16.65v4.27h-6V56.92h-4.63Z" fill="#fff"/><path d="M108.57,76.8h-.88L109.24,68h.88Z" fill="#fff"/><path d="M112.49,71c0,.16,0,.33-.07.52s0,.35-.07.47h0a2.68,2.68,0,0,1,.87-.84,2.21,2.21,0,0,1,1.12-.3,2.1,2.1,0,0,1,1.47.48,1.63,1.63,0,0,1,.53,1.29,1.51,1.51,0,0,1,0,.3c0,.1,0,.21,0,.32l-.64,3.56h-.83l.57-3.21a3.83,3.83,0,0,0,.07-.73,1.46,1.46,0,0,0-.28-1,1.23,1.23,0,0,0-1-.36,1.83,1.83,0,0,0-.67.14,1.89,1.89,0,0,0-.62.42,2.77,2.77,0,0,0-.52.71,4,4,0,0,0-.32,1l-.52,3h-.83l.79-4.53c0-.15.07-.35.11-.6s.06-.47.08-.67Z" fill="#fff"/><path d="M121.63,72.27a1.44,1.44,0,0,0-.52-.52,1.6,1.6,0,0,0-.83-.21,2.59,2.59,0,0,0-.47,0,1.91,1.91,0,0,0-.44.16,1.1,1.1,0,0,0-.34.3.7.7,0,0,0-.13.44.86.86,0,0,0,.08.38.78.78,0,0,0,.23.25,1.52,1.52,0,0,0,.36.19l.48.15a3.58,3.58,0,0,1,1.3.63,1.32,1.32,0,0,1,.45,1.07,1.48,1.48,0,0,1-.21.81,1.78,1.78,0,0,1-.53.56,2.59,2.59,0,0,1-.72.32,3.59,3.59,0,0,1-.78.09,3.45,3.45,0,0,1-1.37-.26,2.15,2.15,0,0,1-1-.83l.72-.47a1.78,1.78,0,0,0,.63.62,1.86,1.86,0,0,0,1,.25,3.07,3.07,0,0,0,.53,0,1.64,1.64,0,0,0,.47-.18,1.08,1.08,0,0,0,.33-.31.84.84,0,0,0,.12-.45.77.77,0,0,0-.37-.7,4.49,4.49,0,0,0-1-.47,4.65,4.65,0,0,1-.52-.2,1.61,1.61,0,0,1-.47-.29,1.3,1.3,0,0,1-.34-.43,1.32,1.32,0,0,1-.13-.62,1.38,1.38,0,0,1,.2-.77,1.87,1.87,0,0,1,.52-.53,2.66,2.66,0,0,1,.71-.3,3.13,3.13,0,0,1,.8-.1,2.7,2.7,0,0,1,1.19.26,1.66,1.66,0,0,1,.76.69Z" fill="#fff"/><path d="M127.09,76.8c0-.16,0-.33.06-.52s0-.35.07-.47h0a2.44,2.44,0,0,1-.86.83,2.24,2.24,0,0,1-1.12.3,2.1,2.1,0,0,1-1.47-.47,1.63,1.63,0,0,1-.53-1.28c0-.1,0-.2,0-.3s0-.21.05-.32l.64-3.56h.83l-.57,3.21a3.9,3.9,0,0,0-.07.73,1.45,1.45,0,0,0,.28,1,1.2,1.2,0,0,0,1,.35,1.81,1.81,0,0,0,.67-.13,2.06,2.06,0,0,0,.62-.42,2.81,2.81,0,0,0,.51-.71,3.16,3.16,0,0,0,.32-1l.52-3h.83l-.79,4.52c0,.16-.07.36-.11.61s-.06.46-.08.66Z" fill="#fff"/><path d="M130.91,71.67c0-.25.06-.47.08-.67h.79c0,.16,0,.33-.06.52s-.05.35-.07.47h0a2.67,2.67,0,0,1,.82-.82,2,2,0,0,1,1.11-.32h.29l.26,0-.2.8a.72.72,0,0,0-.23,0,2,2,0,0,0-.34,0,1.92,1.92,0,0,0-.66.12,1.87,1.87,0,0,0-.59.4,2.62,2.62,0,0,0-.47.68,4,4,0,0,0-.3,1l-.52,3H130l.79-4.53C130.84,72.12,130.87,71.92,130.91,71.67Z" fill="#fff"/><path d="M138.31,73.24c0-.14,0-.25.05-.33a1.62,1.62,0,0,0,0-.21,1,1,0,0,0-.36-.9,1.7,1.7,0,0,0-1-.26,2.46,2.46,0,0,0-1,.21,3,3,0,0,0-.81.49l-.37-.56a3.19,3.19,0,0,1,1-.6,3.57,3.57,0,0,1,1.23-.23,3.33,3.33,0,0,1,.78.09,2.22,2.22,0,0,1,.66.3,1.59,1.59,0,0,1,.44.52,1.52,1.52,0,0,1,.17.76c0,.08,0,.18,0,.31a2.15,2.15,0,0,1,0,.31l-.42,2.36c0,.22-.07.45-.1.69s0,.44,0,.61h-.74c0-.14,0-.3,0-.46a3.86,3.86,0,0,1,.06-.49h0a3.77,3.77,0,0,1-.49.49,2.27,2.27,0,0,1-.52.33,2.7,2.7,0,0,1-.57.18,3.37,3.37,0,0,1-.66.06,2.62,2.62,0,0,1-.61-.08,1.66,1.66,0,0,1-.56-.25,1.54,1.54,0,0,1-.42-.46,1.41,1.41,0,0,1-.17-.71,1.55,1.55,0,0,1,.4-1.12,2.48,2.48,0,0,1,1-.66,6.55,6.55,0,0,1,1.43-.31C137.24,73.27,137.77,73.24,138.31,73.24Zm-.31.63a11.17,11.17,0,0,0-1.14.06,5.38,5.38,0,0,0-1.06.21,2.08,2.08,0,0,0-.78.43,1,1,0,0,0-.3.74.88.88,0,0,0,.1.45.73.73,0,0,0,.26.29,1.13,1.13,0,0,0,.39.15,3.13,3.13,0,0,0,.44,0,2.12,2.12,0,0,0,.81-.15,2.23,2.23,0,0,0,.66-.41,2.12,2.12,0,0,0,.47-.6,2.7,2.7,0,0,0,.26-.72l.09-.49Z" fill="#fff"/><path d="M142.25,71c0,.16,0,.33-.06.52s-.05.35-.08.47h0a2.56,2.56,0,0,1,.86-.84,2.24,2.24,0,0,1,1.12-.3,2.14,2.14,0,0,1,1.48.48,1.66,1.66,0,0,1,.52,1.29c0,.1,0,.2,0,.3s0,.21-.05.32l-.64,3.56h-.83l.57-3.21a3.83,3.83,0,0,0,.07-.73,1.46,1.46,0,0,0-.28-1,1.23,1.23,0,0,0-1-.36,1.74,1.74,0,0,0-.66.14,1.83,1.83,0,0,0-.63.42,2.75,2.75,0,0,0-.51.71,3.63,3.63,0,0,0-.33,1l-.52,3h-.83l.8-4.53c0-.15.06-.35.1-.6a6.34,6.34,0,0,0,.08-.67Z" fill="#fff"/><path d="M152.29,72.31a1.27,1.27,0,0,0-.51-.55,1.67,1.67,0,0,0-.84-.22,2.39,2.39,0,0,0-1,.23,2.55,2.55,0,0,0-.81.61,3.15,3.15,0,0,0-.53.91,3.07,3.07,0,0,0-.19,1.1,2.25,2.25,0,0,0,.12.74,1.73,1.73,0,0,0,.37.59,1.79,1.79,0,0,0,.59.39,2.14,2.14,0,0,0,.79.14,2.17,2.17,0,0,0,1-.21,2.61,2.61,0,0,0,.73-.54l.53.45a3.52,3.52,0,0,1-1,.73,3,3,0,0,1-1.3.26,3.25,3.25,0,0,1-1.12-.18,2.33,2.33,0,0,1-.85-.5,2.21,2.21,0,0,1-.55-.79,2.73,2.73,0,0,1-.18-1,3.77,3.77,0,0,1,.25-1.39,3.62,3.62,0,0,1,.7-1.15,3.31,3.31,0,0,1,1.1-.77,3.51,3.51,0,0,1,1.43-.29,3,3,0,0,1,1.2.24,1.63,1.63,0,0,1,.85.74Z" fill="#fff"/><path d="M154.32,74.12a.59.59,0,0,1,0,.14v.14a2,2,0,0,0,.14.74,1.87,1.87,0,0,0,.4.59,1.9,1.9,0,0,0,1.33.52,2.31,2.31,0,0,0,1.19-.3,2.86,2.86,0,0,0,.82-.71l.52.49a3.41,3.41,0,0,1-1.18.91,3.46,3.46,0,0,1-1.43.3,3,3,0,0,1-1-.17,2.37,2.37,0,0,1-.83-.49,2.41,2.41,0,0,1-.56-.8,2.68,2.68,0,0,1-.2-1.09,3.45,3.45,0,0,1,.26-1.35,3.51,3.51,0,0,1,.71-1.12,3.43,3.43,0,0,1,1.06-.78,3.1,3.1,0,0,1,1.32-.29,2.41,2.41,0,0,1,1.81.63,2.29,2.29,0,0,1,.61,1.64q0,.15,0,.45a2.91,2.91,0,0,1-.08.55Zm4.05-.62a1.38,1.38,0,0,0,0-.22A1.74,1.74,0,0,0,158,72a1.6,1.6,0,0,0-1.2-.43,2.34,2.34,0,0,0-.85.16,2.06,2.06,0,0,0-.69.43,2.56,2.56,0,0,0-.52.62,2.68,2.68,0,0,0-.3.75Z" fill="#fff"/><path d="M166.61,71.69h-1.36l-.89,5.11h-.83l.89-5.11h-1.23l.14-.69h1.2l.27-1.57a3.78,3.78,0,0,1,.24-.83,2.35,2.35,0,0,1,.42-.68,2,2,0,0,1,1.51-.64l.33,0,.35.07-.2.73a2.1,2.1,0,0,0-.58-.07,1,1,0,0,0-.51.11.9.9,0,0,0-.36.31,1.8,1.8,0,0,0-.24.48,3.51,3.51,0,0,0-.14.58L165.36,71h1.39Z" fill="#fff"/><path d="M169.41,76.94a3.14,3.14,0,0,1-1.08-.18,2.53,2.53,0,0,1-.85-.52,2.24,2.24,0,0,1-.55-.79,2.61,2.61,0,0,1-.2-1,3.72,3.72,0,0,1,.26-1.38,3.53,3.53,0,0,1,.71-1.14,3.27,3.27,0,0,1,1.09-.77,3.32,3.32,0,0,1,1.39-.29,3.14,3.14,0,0,1,1.08.18,2.37,2.37,0,0,1,.84.51,2.34,2.34,0,0,1,.55.8,2.37,2.37,0,0,1,.2,1,3.82,3.82,0,0,1-.25,1.4,3.49,3.49,0,0,1-.71,1.14,3.53,3.53,0,0,1-1.09.77A3.39,3.39,0,0,1,169.41,76.94ZM172,73.41a2.21,2.21,0,0,0-.12-.74,1.54,1.54,0,0,0-.36-.59,1.6,1.6,0,0,0-.59-.39,1.94,1.94,0,0,0-.78-.15,2.26,2.26,0,0,0-1,.23,2.53,2.53,0,0,0-.79.63,2.87,2.87,0,0,0-.52.9,3.09,3.09,0,0,0-.19,1.09,2.25,2.25,0,0,0,.12.74,1.71,1.71,0,0,0,.36.59,2,2,0,0,0,.58.39,2.13,2.13,0,0,0,.78.14,2.24,2.24,0,0,0,1-.23,2.54,2.54,0,0,0,.8-.61,2.87,2.87,0,0,0,.52-.9A3.34,3.34,0,0,0,172,73.41Z" fill="#fff"/><path d="M174.88,71.67c0-.25.06-.47.08-.67h.79c0,.16,0,.33-.06.52s-.05.35-.08.47h0a2.57,2.57,0,0,1,.82-.82,2,2,0,0,1,1.11-.32h.29l.26,0-.2.8a.72.72,0,0,0-.23,0,2,2,0,0,0-.34,0,1.68,1.68,0,0,0-1.25.52,2.62,2.62,0,0,0-.47.68,3.61,3.61,0,0,0-.3,1l-.52,3H174l.79-4.53C174.8,72.12,174.84,71.92,174.88,71.67Z" fill="#fff"/><path d="M182,76.8h-.88L182.66,68h.88Z" fill="#fff"/><path d="M185.91,71c0,.16,0,.33-.07.52s-.05.35-.07.47h0a2.68,2.68,0,0,1,.87-.84,2.21,2.21,0,0,1,1.12-.3,2.1,2.1,0,0,1,1.47.48,1.63,1.63,0,0,1,.53,1.29,1.51,1.51,0,0,1,0,.3c0,.1,0,.21,0,.32l-.64,3.56h-.83l.57-3.21a3.83,3.83,0,0,0,.07-.73,1.46,1.46,0,0,0-.28-1,1.23,1.23,0,0,0-1-.36,1.83,1.83,0,0,0-.67.14,1.89,1.89,0,0,0-.62.42,2.77,2.77,0,0,0-.52.71,4,4,0,0,0-.32,1l-.52,3h-.83l.8-4.53c0-.15.06-.35.1-.6s.06-.47.08-.67Z" fill="#fff"/><path d="M191.08,74.44a3.87,3.87,0,0,1,.26-1.4,3.53,3.53,0,0,1,.71-1.14,3.46,3.46,0,0,1,1.08-.76,3.25,3.25,0,0,1,1.36-.29,2.54,2.54,0,0,1,1.18.29,1.9,1.9,0,0,1,.84.84h0l.81-4.55h.83l-1.66,9.37h-.83l.17-1h0a2.43,2.43,0,0,1-.86.78,2.58,2.58,0,0,1-1.27.32,3,3,0,0,1-1.07-.18,2.27,2.27,0,0,1-.83-.51,2.24,2.24,0,0,1-.53-.79A2.8,2.8,0,0,1,191.08,74.44Zm.87,0a2.15,2.15,0,0,0,.12.73,1.68,1.68,0,0,0,.35.59,1.78,1.78,0,0,0,.57.4,2.05,2.05,0,0,0,.78.14,2.37,2.37,0,0,0,1-.22,2.58,2.58,0,0,0,.81-.62,2.94,2.94,0,0,0,.55-.9,3,3,0,0,0,.2-1.09,2.27,2.27,0,0,0-.13-.75,1.86,1.86,0,0,0-.38-.6,1.64,1.64,0,0,0-.6-.39,2.06,2.06,0,0,0-.76-.14,2.37,2.37,0,0,0-1,.23,2.51,2.51,0,0,0-.8.61,2.64,2.64,0,0,0-.51.9A3.31,3.31,0,0,0,192,74.39Z" fill="#fff"/><path d="M199.49,76.8h-.83l1-5.8h.83Zm1.53-8a.61.61,0,0,1-.17.42.57.57,0,0,1-.42.17.59.59,0,0,1-.4-.15.52.52,0,0,1-.17-.41.58.58,0,0,1,.18-.43.61.61,0,0,1,.42-.17.57.57,0,0,1,.4.15A.59.59,0,0,1,201,68.76Z" fill="#fff"/><path d="M203.68,76.8h-.89L201.57,71h.86l.93,4.9h0l2.89-4.9h.9Z" fill="#fff"/><path d="M208.19,76.8h-.83l1-5.8h.83Zm1.52-8a.59.59,0,0,1-1,.44.49.49,0,0,1-.17-.41.58.58,0,0,1,.18-.43.6.6,0,0,1,.41-.17.57.57,0,0,1,.4.15A.55.55,0,0,1,209.71,68.76Z" fill="#fff"/><path d="M210.26,74.44a3.86,3.86,0,0,1,.25-1.4,3.71,3.71,0,0,1,.71-1.14,3.5,3.5,0,0,1,1.09-.76,3.17,3.17,0,0,1,1.35-.29,2.51,2.51,0,0,1,1.18.29,1.9,1.9,0,0,1,.84.84h0l.8-4.55h.83l-1.66,9.37h-.83l.17-1h0a2.43,2.43,0,0,1-.86.78,2.58,2.58,0,0,1-1.27.32,3,3,0,0,1-1.07-.18,2.36,2.36,0,0,1-.83-.51,2.39,2.39,0,0,1-.53-.79A2.8,2.8,0,0,1,210.26,74.44Zm.86,0a2.15,2.15,0,0,0,.12.73,1.85,1.85,0,0,0,.35.59,1.78,1.78,0,0,0,.57.4,2.13,2.13,0,0,0,.78.14,2.31,2.31,0,0,0,1-.22,2.62,2.62,0,0,0,.82-.62,2.92,2.92,0,0,0,.54-.9,3,3,0,0,0,.2-1.09,2,2,0,0,0-.13-.75,1.71,1.71,0,0,0-.38-.6,1.6,1.6,0,0,0-.59-.39,2.11,2.11,0,0,0-.77-.14,2.33,2.33,0,0,0-1,.23,2.4,2.4,0,0,0-.8.61,2.5,2.5,0,0,0-.52.9A3.31,3.31,0,0,0,211.12,74.39Z" fill="#fff"/><path d="M221.89,76.8c0-.16,0-.33.06-.52s.05-.35.07-.47h0a2.53,2.53,0,0,1-.86.83,2.24,2.24,0,0,1-1.12.3,2.1,2.1,0,0,1-1.47-.47,1.63,1.63,0,0,1-.53-1.28c0-.1,0-.2,0-.3s0-.21,0-.32l.64-3.56h.84L219,74.22a4,4,0,0,0-.08.73,1.46,1.46,0,0,0,.29,1,1.2,1.2,0,0,0,1,.35,1.72,1.72,0,0,0,.66-.13,2.1,2.1,0,0,0,.63-.42A2.81,2.81,0,0,0,222,75a3.43,3.43,0,0,0,.32-1l.52-3h.83l-.79,4.52c0,.16-.07.36-.11.61s-.06.46-.08.66Z" fill="#fff"/><path d="M229.11,73.24c0-.14,0-.25,0-.33s0-.15,0-.21a1,1,0,0,0-.36-.9,1.7,1.7,0,0,0-1-.26,2.5,2.5,0,0,0-1,.21,2.94,2.94,0,0,0-.8.49l-.37-.56a3.09,3.09,0,0,1,1-.6,3.56,3.56,0,0,1,1.22-.23,3.35,3.35,0,0,1,.79.09,2.22,2.22,0,0,1,.66.3,1.59,1.59,0,0,1,.44.52,1.64,1.64,0,0,1,.17.76c0,.08,0,.18,0,.31a2.15,2.15,0,0,1,0,.31l-.42,2.36c0,.22-.08.45-.1.69a4.88,4.88,0,0,0,0,.61h-.74a3.7,3.7,0,0,1,0-.46c0-.17,0-.33,0-.49h0a3.81,3.81,0,0,1-.5.49,2,2,0,0,1-.51.33,2.7,2.7,0,0,1-.57.18,3.37,3.37,0,0,1-.66.06,2.62,2.62,0,0,1-.61-.08,1.58,1.58,0,0,1-.56-.25,1.54,1.54,0,0,1-.42-.46,1.31,1.31,0,0,1-.17-.71,1.59,1.59,0,0,1,.39-1.12,2.51,2.51,0,0,1,1-.66,6.42,6.42,0,0,1,1.43-.31C228,73.27,228.57,73.24,229.11,73.24Zm-.31.63a11.17,11.17,0,0,0-1.14.06,5.38,5.38,0,0,0-1.06.21,2.08,2.08,0,0,0-.78.43,1,1,0,0,0-.31.74,1,1,0,0,0,.1.45.84.84,0,0,0,.27.29,1.16,1.16,0,0,0,.38.15,3.42,3.42,0,0,0,.44,0,2.18,2.18,0,0,0,.82-.15,2.23,2.23,0,0,0,.66-.41,2.31,2.31,0,0,0,.47-.6,2.7,2.7,0,0,0,.26-.72l.08-.49Z" fill="#fff"/><path d="M232.13,76.8h-.84l1.64-9.37h.85Z" fill="#fff"/><path d="M238.16,72.27a1.44,1.44,0,0,0-.52-.52,1.57,1.57,0,0,0-.83-.21,2.49,2.49,0,0,0-.46,0,2,2,0,0,0-.45.16,1,1,0,0,0-.33.3.7.7,0,0,0-.13.44.74.74,0,0,0,.08.38.75.75,0,0,0,.22.25,1.52,1.52,0,0,0,.36.19l.49.15a3.66,3.66,0,0,1,1.3.63,1.34,1.34,0,0,1,.44,1.07,1.48,1.48,0,0,1-.21.81,1.78,1.78,0,0,1-.53.56,2.36,2.36,0,0,1-.72.32,3.62,3.62,0,0,1-2.15-.17,2.18,2.18,0,0,1-1-.83l.71-.47a1.85,1.85,0,0,0,1.61.87,3.19,3.19,0,0,0,.54,0,1.58,1.58,0,0,0,.46-.18.9.9,0,0,0,.33-.31.84.84,0,0,0,.12-.45.78.78,0,0,0-.36-.7,4.6,4.6,0,0,0-1-.47,5.55,5.55,0,0,1-.52-.2,1.75,1.75,0,0,1-.47-.29,1.44,1.44,0,0,1-.34-.43,1.32,1.32,0,0,1-.13-.62,1.47,1.47,0,0,1,.2-.77,1.87,1.87,0,0,1,.52-.53,2.73,2.73,0,0,1,.72-.3,3,3,0,0,1,.79-.1,2.67,2.67,0,0,1,1.19.26,1.69,1.69,0,0,1,.77.69Z" fill="#fff"/><path d="M248.38,69.66a1.59,1.59,0,0,1-.19.79,2.44,2.44,0,0,1-.5.67,3.85,3.85,0,0,1-.74.55,7,7,0,0,1-.91.46l1.64,2.08,1.55-2.16h1l-2.08,2.74,1.61,2h-1.13l-1-1.3a4.71,4.71,0,0,1-1.31,1.09,3.09,3.09,0,0,1-1.49.35,3.65,3.65,0,0,1-1-.13,2.38,2.38,0,0,1-.79-.41,2,2,0,0,1-.52-.68,2.35,2.35,0,0,1-.18-1,2.13,2.13,0,0,1,.24-1,2.88,2.88,0,0,1,.61-.81,4.43,4.43,0,0,1,.82-.6c.3-.17.58-.31.85-.43a3,3,0,0,1-.5-.88,2.71,2.71,0,0,1-.18-1,2.67,2.67,0,0,1,.16-.91,2.07,2.07,0,0,1,.46-.72,2,2,0,0,1,.69-.47,2.3,2.3,0,0,1,.88-.17,2.08,2.08,0,0,1,1.44.49A1.72,1.72,0,0,1,248.38,69.66Zm-3.11,2.83a5.06,5.06,0,0,0-.74.36,3.45,3.45,0,0,0-.64.48,2.49,2.49,0,0,0-.44.62,1.8,1.8,0,0,0-.16.79,1.31,1.31,0,0,0,.47,1.08,1.79,1.79,0,0,0,1.15.38,2.32,2.32,0,0,0,1.2-.32,4.22,4.22,0,0,0,1-1Zm2.24-2.77a1.24,1.24,0,0,0-.3-.87,1,1,0,0,0-.83-.33,1.26,1.26,0,0,0-1,.42A1.56,1.56,0,0,0,245,70a2,2,0,0,0,.2.88,2.83,2.83,0,0,0,.44.69,7.05,7.05,0,0,0,.73-.35,3.87,3.87,0,0,0,.59-.42,1.83,1.83,0,0,0,.39-.49A1.21,1.21,0,0,0,247.51,69.72Z" fill="#fff"/><path d="M254.92,76.8H254L255.59,68h5.16l-.14.78h-4.28l-.55,3.06h4l-.12.75h-4Z" fill="#fff"/><path d="M264.34,73.24c0-.14,0-.25.05-.33a1.62,1.62,0,0,0,0-.21,1.06,1.06,0,0,0-.35-.9,1.73,1.73,0,0,0-1-.26,2.49,2.49,0,0,0-1,.21,3.17,3.17,0,0,0-.81.49l-.37-.56a3.19,3.19,0,0,1,1-.6,3.61,3.61,0,0,1,1.23-.23,3.48,3.48,0,0,1,.79.09,2.05,2.05,0,0,1,.65.3,1.5,1.5,0,0,1,.45.52,1.64,1.64,0,0,1,.16.76c0,.08,0,.18,0,.31s0,.23,0,.31l-.43,2.36q-.06.33-.09.69a4.88,4.88,0,0,0,0,.61h-.74c0-.14,0-.3,0-.46s0-.33.06-.49h0a3.77,3.77,0,0,1-.49.49,2.45,2.45,0,0,1-.51.33,2.7,2.7,0,0,1-.57.18,3.55,3.55,0,0,1-.67.06,2.47,2.47,0,0,1-.6-.08,1.63,1.63,0,0,1-.57-.25,1.54,1.54,0,0,1-.42-.46,1.41,1.41,0,0,1-.17-.71,1.6,1.6,0,0,1,.4-1.12,2.48,2.48,0,0,1,1-.66,6.64,6.64,0,0,1,1.44-.31C263.27,73.27,263.81,73.24,264.34,73.24Zm-.31.63a11.17,11.17,0,0,0-1.14.06,5.53,5.53,0,0,0-1.06.21,2.25,2.25,0,0,0-.78.43,1,1,0,0,0-.3.74.88.88,0,0,0,.1.45.75.75,0,0,0,.27.29,1.16,1.16,0,0,0,.38.15,3.13,3.13,0,0,0,.44,0,2.11,2.11,0,0,0,1.47-.56,2.12,2.12,0,0,0,.47-.6,2.15,2.15,0,0,0,.26-.72l.09-.49Z" fill="#fff"/><path d="M273.84,70.85a2.1,2.1,0,0,1,1.47.48,1.67,1.67,0,0,1,.53,1.29c0,.1,0,.2,0,.3s0,.21-.05.32l-.64,3.56h-.83l.57-3.21a3.83,3.83,0,0,0,.07-.73,1.46,1.46,0,0,0-.28-1,1.2,1.2,0,0,0-1-.36,1.62,1.62,0,0,0-.79.19,1.77,1.77,0,0,0-.56.5,2.51,2.51,0,0,0-.36.69,7,7,0,0,0-.2.79l-.55,3.09h-.83l.61-3.37a4.37,4.37,0,0,0,.08-.76,1.24,1.24,0,0,0-.26-.82,1.13,1.13,0,0,0-.9-.31,1.67,1.67,0,0,0-.62.14,1.93,1.93,0,0,0-.6.42,3,3,0,0,0-.51.71,3.33,3.33,0,0,0-.32,1l-.52,3h-.83l.79-4.53c0-.15.07-.35.11-.6s.06-.47.08-.67h.79c0,.16,0,.33-.06.52s0,.35-.08.47h0a2.9,2.9,0,0,1,.87-.84,2.21,2.21,0,0,1,1.14-.3,2.91,2.91,0,0,1,.49.05,1.42,1.42,0,0,1,.48.19,1.44,1.44,0,0,1,.4.38,1.48,1.48,0,0,1,.25.61,2.44,2.44,0,0,1,.86-.91A2.25,2.25,0,0,1,273.84,70.85Z" fill="#fff"/><path d="M278,76.8h-.83l1-5.8H279Zm1.53-8a.61.61,0,0,1-.17.42.57.57,0,0,1-.41.17.59.59,0,0,1-.41-.15.51.51,0,0,1-.16-.41.57.57,0,0,1,.17-.43.61.61,0,0,1,.42-.17.57.57,0,0,1,.4.15A.59.59,0,0,1,279.53,68.76Z" fill="#fff"/><path d="M281,76.8h-.84l1.65-9.37h.84Z" fill="#fff"/><path d="M283.9,76.8h-.83l1-5.8h.83Zm1.52-8a.6.6,0,0,1-.16.42.59.59,0,0,1-.42.17.57.57,0,0,1-.4-.15.52.52,0,0,1-.17-.41.58.58,0,0,1,.18-.43.61.61,0,0,1,.42-.17.56.56,0,0,1,.39.15A.55.55,0,0,1,285.42,68.76Z" fill="#fff"/><path d="M286.83,74.12s0,.1,0,.14a.66.66,0,0,0,0,.14,2,2,0,0,0,.14.74,1.87,1.87,0,0,0,.4.59,1.93,1.93,0,0,0,.59.38,1.84,1.84,0,0,0,.74.14,2.31,2.31,0,0,0,1.19-.3,2.86,2.86,0,0,0,.82-.71l.52.49a3.32,3.32,0,0,1-1.18.91,3.45,3.45,0,0,1-1.42.3,2.91,2.91,0,0,1-1-.17,2.33,2.33,0,0,1-.84-.49,2.41,2.41,0,0,1-.56-.8,2.86,2.86,0,0,1-.2-1.09,3.45,3.45,0,0,1,.26-1.35,3.51,3.51,0,0,1,.71-1.12,3.55,3.55,0,0,1,1.06-.78,3.1,3.1,0,0,1,1.32-.29,2.41,2.41,0,0,1,1.81.63,2.29,2.29,0,0,1,.61,1.64q0,.15,0,.45a2.91,2.91,0,0,1-.08.55Zm4.05-.62a1.38,1.38,0,0,0,0-.22,1.74,1.74,0,0,0-.4-1.31,1.6,1.6,0,0,0-1.2-.43,2.34,2.34,0,0,0-.85.16,2.06,2.06,0,0,0-.69.43,2.56,2.56,0,0,0-.52.62,2.38,2.38,0,0,0-.29.75Z" fill="#fff"/><path d="M296.78,72.27a1.44,1.44,0,0,0-.52-.52,1.57,1.57,0,0,0-.83-.21,2.49,2.49,0,0,0-.46,0,2,2,0,0,0-.45.16,1,1,0,0,0-.33.3.7.7,0,0,0-.13.44.74.74,0,0,0,.08.38.68.68,0,0,0,.23.25,1.28,1.28,0,0,0,.35.19l.49.15a3.66,3.66,0,0,1,1.3.63,1.34,1.34,0,0,1,.44,1.07,1.48,1.48,0,0,1-.21.81,1.67,1.67,0,0,1-.53.56,2.36,2.36,0,0,1-.72.32,3.62,3.62,0,0,1-2.15-.17,2.18,2.18,0,0,1-1-.83l.71-.47a1.85,1.85,0,0,0,1.61.87,3.19,3.19,0,0,0,.54,0,1.58,1.58,0,0,0,.46-.18.9.9,0,0,0,.33-.31.84.84,0,0,0,.12-.45.78.78,0,0,0-.36-.7,4.6,4.6,0,0,0-1.05-.47c-.17-.06-.34-.12-.52-.2a1.75,1.75,0,0,1-.47-.29,1.44,1.44,0,0,1-.34-.43,1.32,1.32,0,0,1-.13-.62,1.47,1.47,0,0,1,.2-.77,1.79,1.79,0,0,1,.53-.53,2.53,2.53,0,0,1,.71-.3,3.06,3.06,0,0,1,.79-.1,2.67,2.67,0,0,1,1.19.26,1.69,1.69,0,0,1,.77.69Z" fill="#fff"/><circle cx="45.66" cy="45.66" r="44.59" fill="#00205c" stroke="#fff" stroke-miterlimit="10" stroke-width="2.14"/><path d="M72.53,33.68a8.26,8.26,0,0,1,6.06,2.55,14.46,14.46,0,0,1,2.93,5.05c.07.22.14.33.36.29l.88-.15c.15,0,.15-.21.15-.51l-.37-7.31c0-.29-.07-.51-.44-.51-.22,0-.33.11-.51.37l-.44.58c-.22.29-.44.4-.87.07a13.54,13.54,0,0,0-7.46-2c-6.75,0-11.59,1.45-14.72,11.19l-3,7.83L50.55,40.93s-1.91-4.56-2.74-4.56S45,40.62,45,40.62,40.09,51.18,39.8,52l-.08,0L34,35a.88.88,0,0,1,.88-1.28h.69c.26,0,.33-.11.33-.29v-.92c0-.18-.07-.25-.29-.25l-3.58.09c-.17,0-.44.53-.71,1.23-1.11,2.5-6.44,14.12-6.74,15h-.15l-6.61-15.4c-.15-.44-.4-.8-.92-.8s-.8.58-1,.95c-.73,1.83-8.18,22.29-8.55,23.1a1.79,1.79,0,0,1-1.61,1.2H2.9c-.22,0-.26.11-.26.3v1c0,.11.08.19.22.19.3,0,3.56-.11,5.61-.11,2.26,0,3.5.11,3.87.11s.29-.11.29-.3V58c0-.19,0-.3-.25-.3h-1c-.88,0-1.24-.51-1.24-1,0-2,4.16-14.07,5.26-17.29h.15l5.26,13.06s1.2,2.86,1.95,2.86c1.15,0,2.87-4,2.87-4s4.94-11,5.23-11.78l.07,0,5.69,16.89a.87.87,0,0,1-.88,1.27h-.69c-.26,0-.33.11-.33.3v.91c0,.18.07.26.29.26s1.23,0,3-.07a1,1,0,0,0,.69-.31,1.11,1.11,0,0,0,.37-.49c.15-.4,6.62-14,6.95-15.05h.14L52.81,58.2c.15.44.4.81.91.81,2,0,2.61-.78,3.39-3,.41-1.15,2.79-7.86,5-13.56C64.63,35.66,68.57,33.68,72.53,33.68ZM90,47.25c-.37,0-7.29.11-10.35.11s-4.76-.11-5.2-.11c-.14,0-.21.07-.21.29v.84c0,.18.07.33.29.33H76.1c1,0,1.32.37,1.32,1.68v2.67c0,1.9-.07,2.92-.88,3.36-1.24.66-2.63.61-5,.61-3.63,0-6.24-2.28-9.24-4.7-.46-.37-.71-.19-.83,0s-.59,1.39-.72,1.7A.87.87,0,0,0,61,55.09c2.52,2.8,6.82,4,10.29,4a21.1,21.1,0,0,0,10.38-2.41c.36-.14.58-.29.58-.58s-.14-.66-.14-1.17V50.06c0-1.06.44-1.35,1.09-1.35h6.92c.22,0,.29-.07.29-.29V47.5C90.4,47.32,90.33,47.25,90,47.25Z" fill="#fff"/></svg>