<svg xmlns="http://www.w3.org/2000/svg" viewBox="0 0 296.19 91.32"><title>direct-white</title><path d="M106.88,34.91h7a19.4,19.4,0,0,1,4.82.59,10.83,10.83,0,0,1,4,1.91,9.21,9.21,0,0,1,2.69,3.43,11.88,11.88,0,0,1,1,5.13,10.73,10.73,0,0,1-1,4.7,9.87,9.87,0,0,1-2.61,3.42A11.24,11.24,0,0,1,119,56.18a14,14,0,0,1-4.5.72h-7.61Zm4.65,17.52H114a13,13,0,0,0,3-.34,6.36,6.36,0,0,0,2.4-1.14,5.48,5.48,0,0,0,1.59-2.08,7.61,7.61,0,0,0,.58-3.15,6.29,6.29,0,0,0-.58-2.81,5.68,5.68,0,0,0-1.56-2,6.93,6.93,0,0,0-2.32-1.16,9.78,9.78,0,0,0-2.78-.39h-2.75Z" fill="#fff"/><path d="M129.45,34.91h4.65v22h-4.65Z" fill="#fff"/><path d="M138.34,34.91h8.17a13.64,13.64,0,0,1,3.05.33,7.1,7.1,0,0,1,2.54,1.08,5.44,5.44,0,0,1,1.73,2,7.16,7.16,0,0,1,.64,3.22,6.69,6.69,0,0,1-1.16,4,5.24,5.24,0,0,1-3.4,2.06l5.36,9.29H149.7l-4.41-8.79H143V56.9h-4.65ZM143,44h2.74c.42,0,.86,0,1.33,0a3.88,3.88,0,0,0,1.27-.28,2.15,2.15,0,0,0,.94-.73,2.32,2.32,0,0,0,.37-1.39,2.39,2.39,0,0,0-.33-1.34,2.32,2.32,0,0,0-.83-.76,3.49,3.49,0,0,0-1.17-.36A9.29,9.29,0,0,0,146,39h-3Z" fill="#fff"/><path d="M157.84,34.91h14.34v4.47h-9.69v4.1h9.15V48h-9.15v4.48h10.23V56.9H157.84Z" fill="#fff"/><path d="M190.25,40.62a4.57,4.57,0,0,0-1.69-1.33,5.38,5.38,0,0,0-2.31-.47,5.64,5.64,0,0,0-4.36,2,6.9,6.9,0,0,0-1.29,2.25,9,9,0,0,0,0,5.67A7.05,7.05,0,0,0,181.87,51a5.86,5.86,0,0,0,1.89,1.48,5.35,5.35,0,0,0,2.34.53,5,5,0,0,0,2.54-.63,5.18,5.18,0,0,0,1.82-1.73l3.87,3a8.1,8.1,0,0,1-3.4,2.89,10.16,10.16,0,0,1-4.23.93,12.49,12.49,0,0,1-4.56-.81,10.45,10.45,0,0,1-3.61-2.31,10.67,10.67,0,0,1-2.37-3.65,13.89,13.89,0,0,1,0-9.57,10.67,10.67,0,0,1,2.37-3.65,10.45,10.45,0,0,1,3.61-2.31,12.49,12.49,0,0,1,4.56-.81,11,11,0,0,1,1.86.17,10.64,10.64,0,0,1,1.91.54,8.27,8.27,0,0,1,1.81,1,7.42,7.42,0,0,1,1.55,1.52Z" fill="#fff"/><path d="M201,39.2h-6V34.91h16.7V39.2h-6V56.9H201Z" fill="#fff"/><path d="M106.75,76.84h-.88l1.55-8.8h.88Z" fill="#fff"/><path d="M110.67,71c0,.16,0,.33-.06.52s0,.35-.07.48h0a2.49,2.49,0,0,1,.87-.84,2.26,2.26,0,0,1,1.13-.31,2.1,2.1,0,0,1,1.47.48,1.64,1.64,0,0,1,.53,1.3,1.51,1.51,0,0,1,0,.3c0,.1,0,.21,0,.32l-.64,3.57H113l.57-3.22a3.88,3.88,0,0,0,.08-.73,1.52,1.52,0,0,0-.29-1,1.23,1.23,0,0,0-1-.35,1.58,1.58,0,0,0-.67.14,1.83,1.83,0,0,0-.63.42,2.77,2.77,0,0,0-.52.71,3.6,3.6,0,0,0-.32,1l-.52,3h-.83l.79-4.54c0-.15.07-.36.11-.61s.06-.47.08-.67Z" fill="#fff"/><path d="M119.84,72.3a1.39,1.39,0,0,0-.52-.53,1.67,1.67,0,0,0-.83-.2,2.59,2.59,0,0,0-.47.05,1.54,1.54,0,0,0-.44.16,1,1,0,0,0-.34.29.72.72,0,0,0-.13.44.87.87,0,0,0,.08.39.68.68,0,0,0,.23.25,1.52,1.52,0,0,0,.36.19c.14,0,.3.11.49.16a3.5,3.5,0,0,1,1.3.62A1.34,1.34,0,0,1,120,75.2a1.53,1.53,0,0,1-.21.81,1.81,1.81,0,0,1-.54.56,2.36,2.36,0,0,1-.72.32,3.55,3.55,0,0,1-.78.1,3.45,3.45,0,0,1-1.37-.27,2.15,2.15,0,0,1-1-.83l.72-.47a1.78,1.78,0,0,0,.63.62,1.86,1.86,0,0,0,1,.25,2.48,2.48,0,0,0,.54-.06,1.41,1.41,0,0,0,.46-.17.9.9,0,0,0,.33-.31.85.85,0,0,0,.12-.46.8.8,0,0,0-.36-.7,4.81,4.81,0,0,0-1-.47,3.28,3.28,0,0,1-.52-.2,1.81,1.81,0,0,1-.48-.29,1.44,1.44,0,0,1-.34-.43,1.46,1.46,0,0,1-.13-.62,1.36,1.36,0,0,1,.21-.77,1.65,1.65,0,0,1,.52-.53,2.39,2.39,0,0,1,.71-.31,3.65,3.65,0,0,1,.8-.1,2.71,2.71,0,0,1,1.2.26,1.73,1.73,0,0,1,.76.7Z" fill="#fff"/><path d="M125.32,76.84c0-.16,0-.33.06-.52s.05-.35.08-.48h0a2.38,2.38,0,0,1-.86.84,2.25,2.25,0,0,1-1.12.31,2.14,2.14,0,0,1-1.48-.48,1.63,1.63,0,0,1-.52-1.29c0-.1,0-.2,0-.3s0-.2.05-.32l.64-3.56H123l-.58,3.21a4,4,0,0,0-.07.74,1.45,1.45,0,0,0,.28,1,1.26,1.26,0,0,0,1,.35,1.65,1.65,0,0,0,.67-.14,2,2,0,0,0,.62-.41,2.61,2.61,0,0,0,.52-.71,3.87,3.87,0,0,0,.32-1l.52-3h.83l-.79,4.53c0,.16-.07.36-.11.61s-.06.46-.08.66Z" fill="#fff"/><path d="M129.15,71.69a6.05,6.05,0,0,0,.08-.67h.8c0,.16,0,.33-.06.52s-.05.35-.08.48h0a2.6,2.6,0,0,1,.82-.83,2,2,0,0,1,1.12-.32l.28,0a.85.85,0,0,1,.26,0l-.2.79a1,1,0,0,0-.23,0l-.34,0a1.92,1.92,0,0,0-.66.12,1.68,1.68,0,0,0-.59.39,2.87,2.87,0,0,0-.47.69,3.58,3.58,0,0,0-.3,1l-.52,3h-.84l.8-4.54C129.08,72.15,129.12,71.94,129.15,71.69Z" fill="#fff"/><path d="M136.58,73.27c0-.14,0-.25,0-.33s0-.15,0-.21a1,1,0,0,0-.36-.9,1.73,1.73,0,0,0-1-.26,2.62,2.62,0,0,0-1,.2,3.11,3.11,0,0,0-.81.49l-.37-.55a3.4,3.4,0,0,1,1-.61,3.57,3.57,0,0,1,1.23-.23,3.42,3.42,0,0,1,.79.1,2,2,0,0,1,.66.29,1.62,1.62,0,0,1,.44.53,1.5,1.5,0,0,1,.17.76c0,.08,0,.18,0,.31a2.15,2.15,0,0,1,0,.31L137,75.53c0,.23-.07.46-.1.7s0,.44,0,.61h-.74a3.7,3.7,0,0,1,0-.46c0-.17,0-.33,0-.49h0a3.81,3.81,0,0,1-.5.49,2.27,2.27,0,0,1-.52.33,1.73,1.73,0,0,1-.57.18,3.37,3.37,0,0,1-.66.06,2.62,2.62,0,0,1-.61-.08,1.63,1.63,0,0,1-.57-.25,1.47,1.47,0,0,1-.42-.47,1.37,1.37,0,0,1-.17-.7,1.62,1.62,0,0,1,.4-1.13,2.73,2.73,0,0,1,1-.66,6.55,6.55,0,0,1,1.43-.31C135.5,73.3,136,73.27,136.58,73.27Zm-.31.64a11.18,11.18,0,0,0-1.15,0,5.38,5.38,0,0,0-1.06.21,2.1,2.1,0,0,0-.78.44,1,1,0,0,0-.31.74,1,1,0,0,0,.1.45.84.84,0,0,0,.27.29,1,1,0,0,0,.39.14,2.12,2.12,0,0,0,.44,0,2.21,2.21,0,0,0,.82-.15,2.36,2.36,0,0,0,.66-.41,2.71,2.71,0,0,0,.47-.6,2.65,2.65,0,0,0,.26-.73l.09-.48Z" fill="#fff"/><path d="M140.53,71c0,.16,0,.33-.06.52s-.05.35-.08.48h0a2.38,2.38,0,0,1,.86-.84,2.26,2.26,0,0,1,1.13-.31,2.14,2.14,0,0,1,1.48.48,1.67,1.67,0,0,1,.53,1.3c0,.1,0,.2,0,.3s0,.21-.05.32l-.64,3.57h-.83l.57-3.22a3.83,3.83,0,0,0,.07-.73,1.51,1.51,0,0,0-.28-1,1.26,1.26,0,0,0-1-.35,1.61,1.61,0,0,0-.67.14,2,2,0,0,0-.63.42,2.75,2.75,0,0,0-.51.71,3.6,3.6,0,0,0-.33,1l-.52,3h-.83l.79-4.54c0-.15.07-.36.11-.61s.06-.47.08-.67Z" fill="#fff"/><path d="M150.6,72.34a1.22,1.22,0,0,0-.51-.55,1.6,1.6,0,0,0-.84-.22,2.35,2.35,0,0,0-1,.22,2.51,2.51,0,0,0-.82.62,3.15,3.15,0,0,0-.53.91,3.07,3.07,0,0,0-.19,1.1,2.21,2.21,0,0,0,.12.74,1.56,1.56,0,0,0,.37.59,1.76,1.76,0,0,0,.59.4,2.18,2.18,0,0,0,.79.14,2.15,2.15,0,0,0,1-.21,2.38,2.38,0,0,0,.74-.55l.53.46a3.52,3.52,0,0,1-1,.73,3,3,0,0,1-1.31.27,3.29,3.29,0,0,1-1.12-.18,2.5,2.5,0,0,1-.85-.51,2.3,2.3,0,0,1-.55-.79,2.8,2.8,0,0,1-.19-1,4,4,0,0,1,.25-1.4,3.54,3.54,0,0,1,.71-1.15,3.28,3.28,0,0,1,1.11-.78,3.47,3.47,0,0,1,1.42-.29,3.12,3.12,0,0,1,1.22.24,1.76,1.76,0,0,1,.85.74Z" fill="#fff"/><path d="M152.64,74.15s0,.1,0,.15v.13a1.86,1.86,0,0,0,.14.75,1.77,1.77,0,0,0,1,1,2,2,0,0,0,.74.14,2.29,2.29,0,0,0,1.19-.3,2.91,2.91,0,0,0,.82-.72l.53.5a3.41,3.41,0,0,1-1.18.91,3.5,3.5,0,0,1-1.43.31,3,3,0,0,1-1-.18,2.51,2.51,0,0,1-.84-.49,2.33,2.33,0,0,1-.55-.81,2.67,2.67,0,0,1-.21-1.08,3.66,3.66,0,0,1,.26-1.36,3.58,3.58,0,0,1,.72-1.13,3.4,3.4,0,0,1,1.06-.77,3,3,0,0,1,1.33-.3,2.39,2.39,0,0,1,1.81.64,2.25,2.25,0,0,1,.61,1.64c0,.1,0,.25,0,.45a4,4,0,0,1-.09.55Zm4.06-.62a1.36,1.36,0,0,0,0-.21,1.77,1.77,0,0,0,0-.22,1.53,1.53,0,0,0-.41-1.1,1.6,1.6,0,0,0-1.21-.43,2.37,2.37,0,0,0-.85.15,2.43,2.43,0,0,0-.69.43,2.61,2.61,0,0,0-.52.63,2.68,2.68,0,0,0-.3.75Z" fill="#fff"/><path d="M165,71.72H163.6l-.9,5.12h-.83l.9-5.12h-1.23l.13-.7h1.21l.27-1.58a3.86,3.86,0,0,1,.24-.82,2.07,2.07,0,0,1,.43-.68,1.92,1.92,0,0,1,1.5-.64h.34l.35.07-.2.74a2.08,2.08,0,0,0-.58-.08,1.17,1.17,0,0,0-.52.11.93.93,0,0,0-.36.32,2.15,2.15,0,0,0-.24.48,3.51,3.51,0,0,0-.14.58L163.71,71h1.39Z" fill="#fff"/><path d="M167.77,77a3.14,3.14,0,0,1-1.08-.19,2.53,2.53,0,0,1-.85-.52,2.21,2.21,0,0,1-.55-.79,2.46,2.46,0,0,1-.2-1,3.75,3.75,0,0,1,.25-1.38,3.35,3.35,0,0,1,.72-1.14,3.29,3.29,0,0,1,1.09-.78,3.36,3.36,0,0,1,1.39-.29,3.16,3.16,0,0,1,1.09.18,2.39,2.39,0,0,1,.84.52,2.47,2.47,0,0,1,.56.79,2.61,2.61,0,0,1,.2,1,3.88,3.88,0,0,1-.26,1.41,3.35,3.35,0,0,1-1.81,1.91A3.32,3.32,0,0,1,167.77,77Zm2.59-3.55a2.21,2.21,0,0,0-.13-.74,1.54,1.54,0,0,0-.36-.59,1.76,1.76,0,0,0-.59-.4,2.13,2.13,0,0,0-.78-.14,2.27,2.27,0,0,0-1,.23,2.5,2.5,0,0,0-.79.62,3.15,3.15,0,0,0-.53.91,3.33,3.33,0,0,0-.19,1.09,2,2,0,0,0,.13.74,1.54,1.54,0,0,0,.36.59,1.82,1.82,0,0,0,.58.4,2.13,2.13,0,0,0,.78.14,2.31,2.31,0,0,0,1-.23,2.43,2.43,0,0,0,.8-.62,2.76,2.76,0,0,0,.52-.9A3.3,3.3,0,0,0,170.36,73.44Z" fill="#fff"/><path d="M173.26,71.69c0-.24.06-.47.08-.67h.79c0,.16,0,.33-.06.52s0,.35-.07.48h0a2.71,2.71,0,0,1,.82-.83,2.06,2.06,0,0,1,1.12-.32l.29,0a.91.91,0,0,1,.26,0l-.2.79a1.19,1.19,0,0,0-.23,0l-.34,0a1.84,1.84,0,0,0-.66.12,1.6,1.6,0,0,0-.59.39,2.39,2.39,0,0,0-.47.69,3.57,3.57,0,0,0-.31,1l-.52,3h-.83l.79-4.54C173.18,72.15,173.22,71.94,173.26,71.69Z" fill="#fff"/><path d="M180.39,76.84h-.88l1.56-8.8H182Z" fill="#fff"/><path d="M184.32,71c0,.16,0,.33-.06.52s0,.35-.08.48h0a2.38,2.38,0,0,1,.86-.84,2.29,2.29,0,0,1,1.13-.31,2.13,2.13,0,0,1,1.48.48,1.67,1.67,0,0,1,.53,1.3c0,.1,0,.2,0,.3s0,.21,0,.32l-.65,3.57h-.83l.57-3.22a3.83,3.83,0,0,0,.07-.73,1.51,1.51,0,0,0-.28-1,1.26,1.26,0,0,0-1-.35,1.65,1.65,0,0,0-.67.14,2,2,0,0,0-.63.42,3,3,0,0,0-.51.71,3.3,3.3,0,0,0-.32,1l-.53,3h-.83l.8-4.54c0-.15.06-.36.1-.61a6.05,6.05,0,0,0,.08-.67Z" fill="#fff"/><path d="M189.51,74.48a3.88,3.88,0,0,1,.26-1.41,3.49,3.49,0,0,1,.71-1.14,3.53,3.53,0,0,1,1.09-.77,3.25,3.25,0,0,1,1.36-.29,2.58,2.58,0,0,1,1.19.29A1.92,1.92,0,0,1,195,72h0l.81-4.56h.83L195,76.84h-.83l.18-1h0a2.35,2.35,0,0,1-.86.78,2.49,2.49,0,0,1-1.28.33,3,3,0,0,1-1.07-.18,2.54,2.54,0,0,1-.83-.52,2.24,2.24,0,0,1-.53-.79A2.8,2.8,0,0,1,189.51,74.48Zm.87-.06a2.21,2.21,0,0,0,.12.74,1.85,1.85,0,0,0,.35.59,1.72,1.72,0,0,0,.58.4,2.05,2.05,0,0,0,.78.14,2.37,2.37,0,0,0,1-.22,2.62,2.62,0,0,0,.82-.62,2.92,2.92,0,0,0,.54-.9,2.87,2.87,0,0,0,.2-1.1,2,2,0,0,0-.13-.75,1.58,1.58,0,0,0-.38-.6,1.6,1.6,0,0,0-.59-.39,1.92,1.92,0,0,0-.77-.14,2.36,2.36,0,0,0-1,.22,2.54,2.54,0,0,0-.8.61,2.64,2.64,0,0,0-.52.91A3.31,3.31,0,0,0,190.38,74.42Z" fill="#fff"/><path d="M198,76.84h-.83l1-5.82H199Zm1.53-8.07a.61.61,0,0,1-.17.43.57.57,0,0,1-.42.17.59.59,0,0,1-.4-.15.52.52,0,0,1-.17-.41.57.57,0,0,1,.18-.43.58.58,0,0,1,.42-.18.55.55,0,0,1,.4.16A.57.57,0,0,1,199.48,68.77Z" fill="#fff"/><path d="M202.15,76.84h-.9L200,71h.85l.93,4.92h0L204.74,71h.91Z" fill="#fff"/><path d="M206.67,76.84h-.83l1-5.82h.83Zm1.53-8.07a.61.61,0,0,1-.17.43.57.57,0,0,1-.42.17.59.59,0,0,1-.4-.15.52.52,0,0,1-.17-.41.57.57,0,0,1,.18-.43.58.58,0,0,1,.42-.18.54.54,0,0,1,.4.16A.57.57,0,0,1,208.2,68.77Z" fill="#fff"/><path d="M208.74,74.48a3.88,3.88,0,0,1,.26-1.41,3.49,3.49,0,0,1,.71-1.14,3.53,3.53,0,0,1,1.09-.77,3.25,3.25,0,0,1,1.36-.29,2.58,2.58,0,0,1,1.19.29,1.9,1.9,0,0,1,.84.84h0l.81-4.56h.83l-1.66,9.4h-.84l.18-1h0a2.4,2.4,0,0,1-.85.78,2.54,2.54,0,0,1-1.28.33,3.06,3.06,0,0,1-1.08-.18,2.39,2.39,0,0,1-.82-.52,2.27,2.27,0,0,1-.54-.79A2.8,2.8,0,0,1,208.74,74.48Zm.87-.06a2.21,2.21,0,0,0,.12.74,1.71,1.71,0,0,0,.36.59,1.58,1.58,0,0,0,.57.4,2.05,2.05,0,0,0,.78.14,2.34,2.34,0,0,0,1-.22,2.62,2.62,0,0,0,.82-.62,3.15,3.15,0,0,0,.55-.9,3.07,3.07,0,0,0,.19-1.1,2,2,0,0,0-.13-.75,1.68,1.68,0,0,0-.37-.6,1.73,1.73,0,0,0-.6-.39,1.92,1.92,0,0,0-.77-.14,2.36,2.36,0,0,0-1,.22,2.54,2.54,0,0,0-.8.61,2.81,2.81,0,0,0-.52.91A3.31,3.31,0,0,0,209.61,74.42Z" fill="#fff"/><path d="M220.41,76.84c0-.16,0-.33.06-.52s.05-.35.08-.48h0a2.38,2.38,0,0,1-.86.84,2.26,2.26,0,0,1-1.13.31,2.1,2.1,0,0,1-1.47-.48,1.64,1.64,0,0,1-.53-1.29c0-.1,0-.2,0-.3s0-.2,0-.32l.64-3.56h.83l-.57,3.21a4,4,0,0,0-.07.74,1.45,1.45,0,0,0,.28,1,1.26,1.26,0,0,0,1,.35,1.65,1.65,0,0,0,.67-.14,2,2,0,0,0,.62-.41,2.59,2.59,0,0,0,.51-.71,3.53,3.53,0,0,0,.33-1l.52-3h.83l-.8,4.53c0,.16-.06.36-.1.61a5.89,5.89,0,0,0-.08.66Z" fill="#fff"/><path d="M227.65,73.27c0-.14,0-.25,0-.33a1.83,1.83,0,0,0,0-.21,1,1,0,0,0-.37-.9,1.7,1.7,0,0,0-1-.26,2.71,2.71,0,0,0-1,.2,3.21,3.21,0,0,0-.8.49l-.38-.55a3.34,3.34,0,0,1,1.05-.61,3.57,3.57,0,0,1,1.23-.23,3.33,3.33,0,0,1,.78.1,1.81,1.81,0,0,1,.66.29,1.54,1.54,0,0,1,.45.53,1.61,1.61,0,0,1,.17.76c0,.08,0,.18,0,.31s0,.23,0,.31L228,75.53a5.36,5.36,0,0,0-.1.7,4.88,4.88,0,0,0,0,.61h-.75c0-.14,0-.3,0-.46s0-.33.06-.49h0a3.77,3.77,0,0,1-.49.49,2.27,2.27,0,0,1-.52.33,1.9,1.9,0,0,1-.57.18,3.4,3.4,0,0,1-.67.06,2.54,2.54,0,0,1-.6-.08,1.63,1.63,0,0,1-.57-.25,1.47,1.47,0,0,1-.42-.47,1.37,1.37,0,0,1-.17-.7,1.58,1.58,0,0,1,.4-1.13,2.66,2.66,0,0,1,1-.66,6.42,6.42,0,0,1,1.43-.31C226.58,73.3,227.11,73.27,227.65,73.27Zm-.31.64a11.11,11.11,0,0,0-1.14,0,5.38,5.38,0,0,0-1.06.21,2.23,2.23,0,0,0-.79.44,1,1,0,0,0-.3.74.88.88,0,0,0,.1.45.75.75,0,0,0,.27.29,1,1,0,0,0,.38.14,2.2,2.2,0,0,0,.44,0,2.18,2.18,0,0,0,.82-.15,2.23,2.23,0,0,0,.66-.41,2.44,2.44,0,0,0,.47-.6,2.36,2.36,0,0,0,.26-.73l.09-.48Z" fill="#fff"/><path d="M230.68,76.84h-.84l1.65-9.4h.85Z" fill="#fff"/><path d="M236.73,72.3a1.39,1.39,0,0,0-.52-.53,1.67,1.67,0,0,0-.83-.2,2.69,2.69,0,0,0-.47.05,1.54,1.54,0,0,0-.44.16,1,1,0,0,0-.34.29.72.72,0,0,0-.13.44.87.87,0,0,0,.08.39.78.78,0,0,0,.23.25,1.52,1.52,0,0,0,.36.19c.14,0,.3.11.49.16a3.5,3.5,0,0,1,1.3.62,1.34,1.34,0,0,1,.45,1.08,1.53,1.53,0,0,1-.21.81,1.7,1.7,0,0,1-.54.56,2.36,2.36,0,0,1-.72.32,3.41,3.41,0,0,1-2.15-.17,2.15,2.15,0,0,1-1-.83l.72-.47a1.78,1.78,0,0,0,.63.62,1.86,1.86,0,0,0,1,.25,2.48,2.48,0,0,0,.54-.06,1.33,1.33,0,0,0,.46-.17.9.9,0,0,0,.33-.31.86.86,0,0,0,.13-.46.8.8,0,0,0-.37-.7,4.4,4.4,0,0,0-1.05-.47,3.7,3.7,0,0,1-.52-.2,1.61,1.61,0,0,1-.47-.29,1.26,1.26,0,0,1-.48-1,1.36,1.36,0,0,1,.21-.77,1.75,1.75,0,0,1,.52-.53,2.39,2.39,0,0,1,.71-.31,3.65,3.65,0,0,1,.8-.1,2.71,2.71,0,0,1,1.2.26,1.68,1.68,0,0,1,.76.7Z" fill="#fff"/><path d="M247,69.68a1.77,1.77,0,0,1-.18.8,2.44,2.44,0,0,1-.51.66,4.35,4.35,0,0,1-.74.56,7,7,0,0,1-.91.45l1.65,2.09,1.55-2.16h1l-2.08,2.74,1.61,2h-1.13l-1-1.31a4.59,4.59,0,0,1-1.31,1.1,3.13,3.13,0,0,1-1.49.36,3.54,3.54,0,0,1-1-.14,2.33,2.33,0,0,1-.8-.41,1.85,1.85,0,0,1-.52-.68,2.42,2.42,0,0,1-.19-1,2.09,2.09,0,0,1,.25-1,2.88,2.88,0,0,1,.61-.81,4.43,4.43,0,0,1,.82-.6,8.61,8.61,0,0,1,.86-.43,3,3,0,0,1-.51-.88,2.76,2.76,0,0,1-.18-1,2.46,2.46,0,0,1,.17-.91,2,2,0,0,1,.45-.72,1.88,1.88,0,0,1,.7-.47,2.09,2.09,0,0,1,.88-.17,2.12,2.12,0,0,1,1.44.48A1.71,1.71,0,0,1,247,69.68Zm-3.11,2.83a6.53,6.53,0,0,0-.75.37,3.08,3.08,0,0,0-.63.48,2.06,2.06,0,0,0-.44.62,1.7,1.7,0,0,0-.17.79,1.34,1.34,0,0,0,.47,1.09,1.8,1.8,0,0,0,1.16.38,2.28,2.28,0,0,0,1.19-.32,4.47,4.47,0,0,0,1.07-1Zm2.24-2.77a1.29,1.29,0,0,0-.29-.87,1.08,1.08,0,0,0-.84-.33,1.3,1.3,0,0,0-1,.42A1.56,1.56,0,0,0,243.6,70a2.06,2.06,0,0,0,.2.88,3.52,3.52,0,0,0,.45.7,7.08,7.08,0,0,0,.73-.36,3.4,3.4,0,0,0,.59-.41,2.1,2.1,0,0,0,.4-.5A1.33,1.33,0,0,0,246.11,69.74Z" fill="#fff"/><path d="M253.54,76.84h-.88l1.55-8.8h5.18l-.13.78H255l-.55,3.07h4l-.12.76h-4Z" fill="#fff"/><path d="M263,73.27c0-.14,0-.25.05-.33a1.62,1.62,0,0,0,0-.21,1,1,0,0,0-.36-.9,1.73,1.73,0,0,0-1-.26,2.66,2.66,0,0,0-1,.2,3.11,3.11,0,0,0-.81.49l-.37-.55a3.4,3.4,0,0,1,1-.61,3.57,3.57,0,0,1,1.23-.23,3.42,3.42,0,0,1,.79.1,2,2,0,0,1,.66.29,1.62,1.62,0,0,1,.44.53,1.5,1.5,0,0,1,.17.76c0,.08,0,.18,0,.31a2.15,2.15,0,0,1,0,.31l-.42,2.36c0,.23-.07.46-.1.7s0,.44,0,.61h-.74a3.7,3.7,0,0,1,0-.46c0-.17,0-.33.05-.49h0a3.81,3.81,0,0,1-.5.49,2.21,2.21,0,0,1-.51.33,1.87,1.87,0,0,1-.58.18,3.37,3.37,0,0,1-.66.06,2.62,2.62,0,0,1-.61-.08,1.58,1.58,0,0,1-.56-.25,1.62,1.62,0,0,1-.43-.47,1.37,1.37,0,0,1-.16-.7,1.62,1.62,0,0,1,.39-1.13,2.73,2.73,0,0,1,1-.66,6.52,6.52,0,0,1,1.44-.31C261.93,73.3,262.46,73.27,263,73.27Zm-.31.64a11.18,11.18,0,0,0-1.15,0,5.38,5.38,0,0,0-1.06.21,2.1,2.1,0,0,0-.78.44,1,1,0,0,0-.31.74,1,1,0,0,0,.1.45.84.84,0,0,0,.27.29,1,1,0,0,0,.39.14,2.12,2.12,0,0,0,.44,0,2.18,2.18,0,0,0,.82-.15,2.23,2.23,0,0,0,.66-.41,2.71,2.71,0,0,0,.47-.6,2.65,2.65,0,0,0,.26-.73l.09-.48Z" fill="#fff"/><path d="M272.52,70.87a2.13,2.13,0,0,1,1.48.48,1.67,1.67,0,0,1,.53,1.3c0,.1,0,.2,0,.3s0,.21-.05.32l-.64,3.57H273l.57-3.22a3.83,3.83,0,0,0,.07-.73,1.51,1.51,0,0,0-.28-1,1.26,1.26,0,0,0-1-.35,1.52,1.52,0,0,0-.79.19,1.87,1.87,0,0,0-.56.49,2.72,2.72,0,0,0-.36.7,7,7,0,0,0-.2.79l-.55,3.1h-.83l.61-3.38a4.29,4.29,0,0,0,.07-.76,1.26,1.26,0,0,0-.25-.83,1.13,1.13,0,0,0-.9-.3,1.5,1.5,0,0,0-.63.14,1.93,1.93,0,0,0-.6.42,3,3,0,0,0-.51.71,3.6,3.6,0,0,0-.33,1l-.52,3h-.83L266,72.3c0-.15.07-.36.11-.61s.06-.47.08-.67h.8c0,.16,0,.33-.07.52s-.05.35-.07.48h0a2.7,2.7,0,0,1,.88-.84,2.21,2.21,0,0,1,1.14-.31,2.81,2.81,0,0,1,.49,0,1.58,1.58,0,0,1,.49.2,1.31,1.31,0,0,1,.4.38,1.38,1.38,0,0,1,.25.6,2.44,2.44,0,0,1,.86-.91A2.28,2.28,0,0,1,272.52,70.87Z" fill="#fff"/><path d="M276.7,76.84h-.83l1-5.82h.83Zm1.53-8.07a.61.61,0,0,1-.17.43.57.57,0,0,1-.42.17.59.59,0,0,1-.4-.15.52.52,0,0,1-.17-.41.57.57,0,0,1,.18-.43.58.58,0,0,1,.42-.18.54.54,0,0,1,.4.16A.57.57,0,0,1,278.23,68.77Z" fill="#fff"/><path d="M279.67,76.84h-.84l1.65-9.4h.84Z" fill="#fff"/><path d="M282.61,76.84h-.83l1-5.82h.84Zm1.53-8.07a.57.57,0,0,1-.17.43.57.57,0,0,1-.41.17.61.61,0,0,1-.41-.15.51.51,0,0,1-.16-.41.62.62,0,0,1,.59-.61.54.54,0,0,1,.4.16A.53.53,0,0,1,284.14,68.77Z" fill="#fff"/><path d="M285.56,74.15a.77.77,0,0,0,0,.15s0,.09,0,.13a1.86,1.86,0,0,0,.15.75,1.79,1.79,0,0,0,.39.59,1.86,1.86,0,0,0,.6.38,2,2,0,0,0,.74.14,2.29,2.29,0,0,0,1.19-.3,2.91,2.91,0,0,0,.82-.72l.52.5a3.32,3.32,0,0,1-1.18.91,3.42,3.42,0,0,1-1.42.31,3,3,0,0,1-1-.18,2.25,2.25,0,0,1-1.4-1.3,2.85,2.85,0,0,1-.2-1.08,3.66,3.66,0,0,1,.26-1.36,3.46,3.46,0,0,1,1.78-1.9,3,3,0,0,1,1.33-.3,2.37,2.37,0,0,1,1.8.64,2.26,2.26,0,0,1,.62,1.64q0,.15,0,.45a2.91,2.91,0,0,1-.08.55Zm4.06-.62a1.36,1.36,0,0,0,0-.21c0-.08,0-.16,0-.22a1.53,1.53,0,0,0-.41-1.1,1.6,1.6,0,0,0-1.21-.43,2.34,2.34,0,0,0-.85.15,2.64,2.64,0,0,0-.7.43,2.82,2.82,0,0,0-.51.63,2.68,2.68,0,0,0-.3.75Z" fill="#fff"/><path d="M295.53,72.3a1.39,1.39,0,0,0-.52-.53,1.67,1.67,0,0,0-.83-.2,2.69,2.69,0,0,0-.47.05,1.54,1.54,0,0,0-.44.16,1,1,0,0,0-.34.29.72.72,0,0,0-.13.44.87.87,0,0,0,.08.39.78.78,0,0,0,.23.25,1.52,1.52,0,0,0,.36.19c.14,0,.3.11.49.16a3.5,3.5,0,0,1,1.3.62,1.34,1.34,0,0,1,.45,1.08,1.53,1.53,0,0,1-.21.81,1.7,1.7,0,0,1-.54.56,2.36,2.36,0,0,1-.72.32,3.41,3.41,0,0,1-2.15-.17,2.15,2.15,0,0,1-1-.83l.72-.47a1.78,1.78,0,0,0,.63.62,1.86,1.86,0,0,0,1,.25,2.48,2.48,0,0,0,.54-.06,1.33,1.33,0,0,0,.46-.17.9.9,0,0,0,.33-.31.86.86,0,0,0,.13-.46.8.8,0,0,0-.37-.7,4.4,4.4,0,0,0-1.05-.47,3.7,3.7,0,0,1-.52-.2,1.61,1.61,0,0,1-.47-.29,1.26,1.26,0,0,1-.48-1,1.36,1.36,0,0,1,.21-.77,1.75,1.75,0,0,1,.52-.53,2.34,2.34,0,0,1,.72-.31,3.56,3.56,0,0,1,.79-.1,2.71,2.71,0,0,1,1.2.26,1.68,1.68,0,0,1,.76.7Z" fill="#fff"/><circle cx="45.66" cy="45.66" r="44.59" fill="none" stroke="#fff" stroke-miterlimit="10" stroke-width="2.14"/><path d="M72.53,33.68a8.26,8.26,0,0,1,6.06,2.55,14.46,14.46,0,0,1,2.93,5.05c.07.22.14.33.36.29l.88-.15c.15,0,.15-.21.15-.51l-.37-7.31c0-.29-.07-.51-.44-.51-.22,0-.33.11-.51.37l-.44.58c-.22.29-.44.4-.87.07a13.54,13.54,0,0,0-7.46-2c-6.75,0-11.59,1.45-14.72,11.19l-3,7.83L50.55,40.93s-1.91-4.56-2.74-4.56S45,40.62,45,40.62,40.09,51.18,39.8,52l-.08,0L34,35a.88.88,0,0,1,.88-1.28h.69c.26,0,.33-.11.33-.29v-.92c0-.18-.07-.25-.29-.25l-3.58.09c-.17,0-.44.53-.71,1.23-1.11,2.5-6.44,14.12-6.74,15h-.15l-6.61-15.4c-.15-.44-.4-.8-.92-.8s-.8.58-1,.95c-.73,1.83-8.18,22.29-8.55,23.1a1.79,1.79,0,0,1-1.61,1.2H2.9c-.22,0-.26.11-.26.3v1c0,.11.08.19.22.19.3,0,3.56-.11,5.61-.11,2.26,0,3.5.11,3.87.11s.29-.11.29-.3V58c0-.19,0-.3-.25-.3h-1c-.88,0-1.24-.51-1.24-1,0-2,4.16-14.07,5.26-17.29h.15l5.26,13.06s1.2,2.86,1.95,2.86c1.15,0,2.87-4,2.87-4s4.94-11,5.23-11.78l.07,0,5.69,16.89a.87.87,0,0,1-.88,1.27h-.69c-.26,0-.33.11-.33.3v.91c0,.18.07.26.29.26s1.23,0,3-.07a1,1,0,0,0,.69-.31,1.11,1.11,0,0,0,.37-.49c.15-.4,6.62-14,6.95-15.05h.14L52.81,58.2c.15.44.4.81.91.81,2,0,2.61-.78,3.39-3,.41-1.15,2.79-7.86,5-13.56C64.63,35.66,68.57,33.68,72.53,33.68ZM90,47.25c-.37,0-7.29.11-10.35.11s-4.76-.11-5.2-.11c-.14,0-.21.07-.21.29v.84c0,.18.07.33.29.33H76.1c1,0,1.32.37,1.32,1.68v2.67c0,1.9-.07,2.92-.88,3.36-1.24.66-2.63.61-5,.61-3.63,0-6.24-2.28-9.24-4.7-.46-.37-.71-.19-.83,0s-.59,1.39-.72,1.7A.87.87,0,0,0,61,55.09c2.52,2.8,6.82,4,10.29,4a21.1,21.1,0,0,0,10.38-2.41c.36-.14.58-.29.58-.58s-.14-.66-.14-1.17V50.06c0-1.06.44-1.35,1.09-1.35h6.92c.22,0,.29-.07.29-.29V47.5C90.4,47.32,90.33,47.25,90,47.25Z" fill="#fff"/></svg>