<?xml version="1.0" encoding="UTF-8"?><svg id="Layer_1" xmlns="http://www.w3.org/2000/svg" viewBox="0 0 245.29 87.01"><defs><style>.cls-1,.cls-2{fill:none;stroke:#fff;stroke-linecap:round;stroke-miterlimit:10;stroke-width:1.5px;}.cls-3{fill:#fff;}.cls-4{fill:#a2d45e;}.cls-2{stroke-dasharray:0 0 3.05 3.05;}</style></defs><g><rect class="cls-4" x=".37" y="19.12" width="7.1" height="30.96"/><polygon class="cls-4" points="28.51 43.15 28.42 43.24 23.21 19.12 12.86 19.12 12.86 50.08 19.4 50.08 18.97 25.96 19.06 25.96 24.23 50.08 34.58 50.08 34.58 19.12 28 19.12 28.51 43.15"/><path class="cls-3" d="M176.8,40.04c.71,1.23,1.47,2.43,2.31,3.58,.14,.2,.29,.39,.44,.59,.09,.11,.17,.23,.26,.34,3.68-8.82,7.51-20.02,11.64-36.43l39.63,15.7c-4.19,16.94-9.12,28.68-13.95,38.64,.21,.02,.43,.04,.65,.06,.1-.21,.2-.42,.3-.62,1.7-2.67,3.37-5.36,4.97-8.1,1.95-3.35,3.78-6.74,5.5-10.18,1.74-3.48,3.35-6.96,4.84-10.45l.57-1.32-1.33-.55c-.05-.02-.13-.06-.22-.1l-.2-.1c-.82-.43-1.46-1.06-1.91-1.79,.47-1.72,.93-3.49,1.39-5.33l.13-.52-2.35-.93-18-9.43-.66,1.26c-.12,.22-.25,.43-.39,.62l-9.62-3.81c.74-1.92,1.5-3.93,2.27-6.03l37.76,19.78c-6.15,16.95-12.5,28.29-18.52,37.88,1.38,.05,2.79,.08,4.22,.07,5.75-9.32,11.84-20.55,17.7-36.72l1.08-2.97-22.75-11.92L201.07,0l-1.42,3.87c-.45,1.23-.9,2.43-1.34,3.6l-10.34-4.1-.96,3.83-.04,.17c-3.58,14.22-6.94,24.47-10.16,32.66Zm53.45-6.81c-1.12,2.59-2.29,5.12-3.51,7.61,.89-2.61,1.76-5.36,2.62-8.28,.28,.24,.57,.47,.89,.68Z"/><path class="cls-4" d="M226.74,40.83c1.21-2.49,2.38-5.02,3.51-7.61-.32-.21-.61-.43-.89-.68-.85,2.92-1.73,5.67-2.62,8.28Z"/><path class="cls-4" d="M219.08,62.6c1.05,.08,2.12,.13,3.21,.17,6.02-9.59,12.37-20.93,18.52-37.88L203.05,5.12c-.77,2.1-1.53,4.1-2.27,6.03l9.62,3.81c.14-.2,.27-.4,.39-.62l.66-1.26,18,9.43,2.35,.93-.13,.52c-.45,1.83-.92,3.61-1.39,5.33,.45,.74,1.09,1.36,1.91,1.79l.2,.1c.09,.04,.16,.07,.22,.1l1.33,.55-.57,1.32c-1.49,3.49-3.1,6.97-4.84,10.45-1.72,3.44-3.55,6.84-5.5,10.18-1.6,2.74-3.27,5.43-4.97,8.1-.1,.21-.2,.42-.3,.62,.24,.02,.49,.04,.73,.06,.19,.02,.39,.03,.58,.04Z"/><path class="cls-3" d="M220.84,43.68c1.36-3.64,2.6-7.27,3.71-10.9l.42-1.38-1.38-.4c-.06-.02-.13-.04-.23-.07l-.21-.08c-1.26-.5-2.19-1.46-2.69-2.61-.5-1.15-.56-2.49-.06-3.75l.52-1.32-1.32-.52-18.97-7.52-.52,1.32c-.46,1.17-1.33,2.06-2.37,2.58-1.06,.53-2.3,.67-3.49,.34l-1.36-.38-.39,1.35c-1.14,3.95-2.36,7.9-3.69,11.83-1.33,3.93-2.74,7.8-4.27,11.6-.57,1.41-1.16,2.81-1.76,4.21,.3,.31,.62,.62,.95,.94,.14,.13,.28,.27,.42,.4,.16,.15,.32,.29,.48,.44,.27,.24,.48,.43,.69,.61,.57,.49,1.16,.97,1.74,1.42,.6,.46,1.2,.9,1.79,1.31,.81,.56,1.71,1.13,2.65,1.69l.16,.09c.08,.05,.16,.09,.24,.14,.41,.24,.83,.47,1.26,.7h0c.44,.24,.88,.47,1.33,.69,.29,.14,.57,.28,.85,.41h0c.09,.04,.18,.09,.26,.13,.77,.36,1.55,.7,2.32,1.02h.04c.3,.14,.61,.26,.9,.37,.72,.28,1.48,.55,2.26,.82l.15,.05c.07,.02,.13,.05,.2,.07,.08,.03,.16,.05,.23,.08,.85,.28,1.73,.55,2.62,.79h0c.09,.03,.19,.05,.28,.08,.7,.19,1.42,.37,2.14,.55h0c.05,.01,.11,.03,.16,.04,.42,.1,.86,.2,1.3,.29l.26,.03,.11,.05h0c.12,.03,.24,.05,.36,.07,.09,.02,.18,.03,.27,.05l.09,.02c.14,.03,.28,.06,.42,.08,1.05,.2,2.11,.38,3.17,.54,1.23-2.49,2.43-5,3.57-7.54,1.58-3.53,3.05-7.1,4.4-10.71Zm-6.99,9.55c-.32,.71-.65,1.42-.97,2.13-.25-5.98-3.95-11.54-9.87-13.89-5.33-2.11-11.14-1.09-15.36,2.19,1.38-3.5,2.67-7.03,3.86-10.57,1.19-3.54,2.31-7.12,3.37-10.73,1.44,.13,2.87-.15,4.13-.78,1.25-.62,2.33-1.58,3.11-2.8l15.25,6.04c-.31,1.56-.11,3.15,.49,4.55,.7,1.61,1.94,2.98,3.59,3.82-1.02,3.23-2.1,6.39-3.26,9.48-1.32,3.53-2.76,7.05-4.34,10.55Z"/><path class="cls-3" d="M207.37,28.19c-1.55-.61-3.31,.15-3.92,1.7-.61,1.55,.15,3.31,1.7,3.92,1.55,.61,3.31-.15,3.92-1.7,.61-1.55-.15-3.31-1.7-3.92Z"/><path class="cls-4" d="M221.45,33.2c-1.66-.84-2.9-2.21-3.59-3.82-.61-1.4-.8-2.99-.49-4.55l-15.25-6.04c-.77,1.23-1.86,2.18-3.11,2.8-1.26,.63-2.69,.91-4.13,.78-1.06,3.61-2.17,7.19-3.37,10.73-1.2,3.54-2.48,7.07-3.86,10.57,4.23-3.28,10.03-4.31,15.36-2.19,5.93,2.35,9.62,7.91,9.87,13.89,.33-.71,.65-1.42,.97-2.13,1.57-3.5,3.01-7.02,4.34-10.55,1.16-3.1,2.24-6.26,3.26-9.48Zm-12.38-1.09c-.61,1.55-2.37,2.31-3.92,1.7-1.55-.61-2.31-2.37-1.7-3.92,.61-1.55,2.37-2.31,3.92-1.7,1.55,.61,2.31,2.37,1.7,3.92Z"/><path class="cls-4" d="M182.53,47.72c.08,.09,.17,.18,.26,.27,.6-1.39,1.19-2.79,1.76-4.21,1.53-3.8,2.94-7.67,4.27-11.6,1.33-3.93,2.55-7.88,3.69-11.83l.39-1.35,1.36,.38c1.19,.33,2.43,.19,3.49-.34,1.04-.52,1.91-1.41,2.37-2.58l.52-1.32,18.97,7.52,1.32,.52-.52,1.32c-.5,1.26-.44,2.6,.06,3.75,.5,1.15,1.43,2.11,2.69,2.61l.21,.08c.09,.03,.17,.06,.23,.07l1.38,.4-.42,1.38c-1.12,3.63-2.35,7.26-3.71,10.9-1.35,3.61-2.81,7.17-4.4,10.71-1.14,2.54-2.34,5.05-3.57,7.54,.15,.02,.3,.04,.44,.07,.11,.02,.21,.03,.32,.04l.46,.06c.2,.03,.4,.05,.6,.08,.78,.1,1.59,.18,2.43,.26,4.83-9.95,9.76-21.69,13.95-38.64l-39.63-15.7c-4.13,16.41-7.97,27.61-11.64,36.43,.85,1.1,1.77,2.17,2.73,3.18Z"/><path class="cls-3" d="M90.23,50.42h2.65c5.99,0,8.08-1.71,8.08-7.18v-4.58h-6.84v4.88c0,.94-.64,1.33-1.84,1.33s-1.84-.38-1.84-1.33V25.66c0-.94,.64-1.33,1.88-1.33,1.15,0,1.8,.38,1.8,1.33v4.06h6.84v-5.65c0-3.59-1.88-5.3-8.08-5.3h-2.65c-5.26,0-7.14,2.57-7.14,7.53v17.49c0,4.02,1.88,6.63,7.14,6.63Z"/><polygon class="cls-3" points="118.16 33.83 124.19 19.12 116.58 19.12 112.04 32.25 111.96 32.25 112 32.16 112 19.12 104.9 19.12 104.9 50.08 112 50.08 112 36.35 111.96 36.27 112.04 36.27 117.35 50.08 124.96 50.08 118.16 33.83"/><polygon class="cls-3" points="141.29 44.52 134.24 44.52 134.24 36.78 140.31 36.78 140.31 31.48 134.24 31.48 134.24 24.68 140.78 24.68 140.78 19.12 127.14 19.12 127.14 50.08 141.29 50.08 141.29 44.52"/><polygon class="cls-3" points="143.6 24.68 148.56 24.68 148.56 50.08 155.66 50.08 155.66 24.68 160.62 24.68 160.62 19.12 143.6 19.12 143.6 24.68"/><path class="cls-4" d="M61.21,55.34h-8.38v10.03h3.07v-2.52h6.11c2.17,0,2.82-1.72,2.82-3.21v-.86c0-1.97-.71-3.43-3.63-3.43Zm.47,3.95c0,.6-.28,1.07-1,1.07h-4.78v-2.52h4.51c.93,0,1.26,.39,1.26,1.07v.39Z"/><polygon class="cls-4" points="69.58 55.34 66.5 55.34 66.5 65.37 76.49 65.37 76.49 62.79 69.58 62.79 69.58 55.34"/><path class="cls-4" d="M82.97,55.34l-5.43,10.03h3.43l.9-1.77h6.23l.96,1.77h3.42l-5.51-10.03h-4Zm.06,6.09l1.94-3.77,1.99,3.77h-3.93Z"/><polygon class="cls-4" points="104.15 62.62 104.12 62.62 98.34 55.34 93.58 55.34 93.58 65.37 96.66 65.37 96.66 58.08 96.68 58.08 102.46 65.37 107.22 65.37 107.22 55.34 104.15 55.34 104.15 62.62"/><path class="cls-3" d="M166.04,20.43c.08,.92,.89,1.61,1.81,1.53,.92-.08,1.61-.89,1.53-1.81-.01-.17-.05-.34-.12-.49-.27-.66-.95-1.1-1.7-1.04s-1.34,.61-1.5,1.31c-.04,.16-.05,.33-.03,.5Z"/><path class="cls-3" d="M237.52,66.74c.08,.92,.89,1.61,1.81,1.53,.92-.08,1.61-.89,1.53-1.81-.01-.17-.05-.34-.12-.49-.27-.66-.95-1.1-1.7-1.04s-1.34,.61-1.5,1.31c-.04,.16-.05,.33-.03,.5Z"/><g><path class="cls-1" d="M167.82,23.71c0,.5,.03,1,.05,1.5"/><path class="cls-2" d="M168.12,28.25c3.59,31.44,38.12,41.36,64.59,39.36"/><path class="cls-1" d="M234.22,67.48c.5-.05,1-.1,1.49-.15"/></g><path class="cls-3" d="M70.05,18.78c-5.94,0-9.19,1.33-9.19,6.37v18.9c0,5.05,3.25,6.37,9.19,6.37s9.19-1.33,9.19-6.37V25.15c0-5.05-3.25-6.37-9.19-6.37Zm1.84,24.89c0,1.15-.51,1.45-1.84,1.45s-1.84-.3-1.84-1.45V25.53c0-1.15,.51-1.45,1.84-1.45s1.84,.3,1.84,1.45v18.13Z"/><g><path class="cls-3" d="M5.92,61.81H1.56c-.58,0-1.05-.47-1.05-1.05s.47-1.05,1.05-1.05H5.92c.58,0,1.05,.47,1.05,1.05s-.47,1.05-1.05,1.05Z"/><path class="cls-3" d="M42.39,61.81h-4.36c-.58,0-1.05-.47-1.05-1.05s.47-1.05,1.05-1.05h4.36c.58,0,1.05,.47,1.05,1.05s-.47,1.05-1.05,1.05Z"/><path class="cls-3" d="M15.04,61.81h-4.36c-.58,0-1.05-.47-1.05-1.05s.47-1.05,1.05-1.05h4.36c.58,0,1.05,.47,1.05,1.05s-.47,1.05-1.05,1.05Z"/><path class="cls-3" d="M24.16,61.81h-4.36c-.58,0-1.05-.47-1.05-1.05s.47-1.05,1.05-1.05h4.36c.58,0,1.05,.47,1.05,1.05s-.47,1.05-1.05,1.05Z"/><path class="cls-3" d="M33.27,61.81h-4.36c-.58,0-1.05-.47-1.05-1.05s.47-1.05,1.05-1.05h4.36c.58,0,1.05,.47,1.05,1.05s-.47,1.05-1.05,1.05Z"/></g><g><path class="cls-3" d="M123.2,61.81h-4.36c-.58,0-1.05-.47-1.05-1.05s.47-1.05,1.05-1.05h4.36c.58,0,1.05,.47,1.05,1.05s-.47,1.05-1.05,1.05Z"/><path class="cls-3" d="M159.67,61.81h-4.36c-.58,0-1.05-.47-1.05-1.05s.47-1.05,1.05-1.05h4.36c.58,0,1.05,.47,1.05,1.05s-.47,1.05-1.05,1.05Z"/><path class="cls-3" d="M132.32,61.81h-4.36c-.58,0-1.05-.47-1.05-1.05s.47-1.05,1.05-1.05h4.36c.58,0,1.05,.47,1.05,1.05s-.47,1.05-1.05,1.05Z"/><path class="cls-3" d="M141.44,61.81h-4.36c-.58,0-1.05-.47-1.05-1.05s.47-1.05,1.05-1.05h4.36c.58,0,1.05,.47,1.05,1.05s-.47,1.05-1.05,1.05Z"/><path class="cls-3" d="M150.55,61.81h-4.36c-.58,0-1.05-.47-1.05-1.05s.47-1.05,1.05-1.05h4.36c.58,0,1.05,.47,1.05,1.05s-.47,1.05-1.05,1.05Z"/></g></g><path class="cls-3" d="M50.12,19.12h-10.22v30.96h7.1v-8.81h2.39c6.37,0,8.64-1.84,8.64-9.24v-5.39c0-5.65-2.78-7.53-7.91-7.53Zm.56,14.33c0,1.71-.56,2.27-1.58,2.27h-2.1v-11.03h2.05c1.24,0,1.63,.3,1.63,1.33v7.44Z"/><g><path class="cls-3" d="M3.66,71.96l-.95,4.91h5.36l.93-4.91h1.45l-2.23,11.64h-1.43l1.04-5.48H2.47l-1.04,5.48H0l2.23-11.64h1.43Z"/><path class="cls-3" d="M16.81,83.12c-.62,.36-1.64,.66-2.76,.66-2.21,0-3.18-1.5-3.18-3.35,0-2.52,1.87-5.37,4.56-5.37,1.59,0,2.45,.95,2.45,2.14,0,2.19-2.47,2.78-5.56,2.73-.07,.36-.02,1.14,.17,1.59,.33,.74,1,1.12,1.87,1.12,.98,0,1.73-.31,2.25-.59l.21,1.07Zm-1.59-6.94c-1.36,0-2.38,1.33-2.73,2.64,2.25,.02,4.01-.28,4.01-1.57,0-.69-.52-1.07-1.28-1.07Z"/><path class="cls-3" d="M24.16,83.6c0-.5,.09-1.3,.19-2.16h-.03c-.92,1.73-2.06,2.35-3.25,2.35-1.47,0-2.4-1.17-2.4-2.76,0-2.9,2.14-5.98,5.79-5.98,.79,0,1.68,.14,2.25,.33l-.85,4.35c-.28,1.45-.4,2.94-.36,3.87h-1.33Zm.93-7.29c-.21-.05-.52-.12-1-.12-2.16,0-3.92,2.26-3.94,4.58,0,.93,.33,1.85,1.43,1.85,1.19,0,2.61-1.56,3.02-3.78l.48-2.52Z"/><path class="cls-3" d="M27.65,83.6l2.33-12.26h1.43l-2.35,12.26h-1.42Z"/><path class="cls-3" d="M35.34,73l-.43,2.24h2l-.22,1.12h-2l-.78,4.06c-.09,.47-.16,.9-.16,1.35,0,.5,.24,.79,.8,.79,.24,0,.48-.02,.67-.05l-.07,1.12c-.26,.1-.69,.15-1.11,.15-1.28,0-1.76-.78-1.76-1.62,0-.48,.05-.97,.17-1.57l.83-4.23h-1.21l.22-1.12h1.19l.36-1.88,1.49-.36Z"/><path class="cls-3" d="M37,83.6l2.33-12.26h1.43l-1.04,5.39h.03c.71-1.02,1.73-1.68,2.99-1.68,.95,0,2.07,.59,2.07,2.25,0,.45-.05,.98-.14,1.42l-.93,4.89h-1.43l.93-4.82c.05-.31,.1-.69,.1-1.16,0-.78-.36-1.38-1.3-1.38-1.11,0-2.51,1.3-2.85,3.18l-.78,4.18h-1.43Z"/><path class="cls-3" d="M53.05,71.96l-2.21,11.64h-1.43l2.21-11.64h1.43Z"/><path class="cls-3" d="M53.4,83.6l1.12-5.92c.19-.93,.29-1.75,.4-2.44h1.28l-.21,1.64h.03c.74-1.17,1.87-1.83,3.09-1.83,1,0,2.12,.57,2.12,2.33,0,.36-.07,.9-.16,1.35l-.93,4.87h-1.43l.92-4.82c.07-.33,.12-.73,.12-1.07,0-.85-.33-1.47-1.31-1.47s-2.47,1.23-2.85,3.3l-.76,4.06h-1.43Z"/><path class="cls-3" d="M62.69,82.15c.4,.24,1.12,.52,1.8,.52,.97,0,1.59-.62,1.59-1.36,0-.66-.29-1.05-1.16-1.54-.97-.54-1.5-1.28-1.5-2.12,0-1.47,1.26-2.59,3.02-2.59,.76,0,1.43,.21,1.75,.41l-.4,1.09c-.29-.17-.83-.38-1.45-.38-.86,0-1.49,.54-1.49,1.26,0,.6,.4,.99,1.14,1.4,.93,.54,1.57,1.26,1.57,2.19,0,1.76-1.43,2.75-3.2,2.75-.9,0-1.69-.28-2.07-.57l.4-1.05Z"/><path class="cls-3" d="M77.22,75.24l-1.12,5.92c-.17,.93-.29,1.75-.38,2.44h-1.3l.22-1.57h-.03c-.74,1.09-1.85,1.76-2.95,1.76s-2.19-.52-2.19-2.42c0-.4,.05-.85,.16-1.4l.9-4.73h1.43l-.88,4.66c-.1,.47-.15,.86-.15,1.23,0,.86,.36,1.45,1.35,1.45,1.04,0,2.37-1.21,2.71-3.06l.81-4.28h1.43Z"/><path class="cls-3" d="M78.16,83.6l1.02-5.39c.21-1.09,.35-2.19,.43-2.97h1.26c-.07,.59-.14,1.17-.22,1.81h.05c.54-1.14,1.43-2,2.56-2,.12,0,.29,.02,.4,.03l-.28,1.42c-.09-.02-.22-.03-.38-.03-1.24,0-2.35,1.5-2.71,3.46l-.69,3.68h-1.43Z"/><path class="cls-3" d="M88.94,83.6c0-.5,.09-1.3,.19-2.16h-.03c-.92,1.73-2.06,2.35-3.25,2.35-1.47,0-2.4-1.17-2.4-2.76,0-2.9,2.14-5.98,5.79-5.98,.79,0,1.68,.14,2.25,.33l-.85,4.35c-.28,1.45-.4,2.94-.36,3.87h-1.33Zm.93-7.29c-.21-.05-.52-.12-1-.12-2.16,0-3.92,2.26-3.94,4.58,0,.93,.33,1.85,1.43,1.85,1.19,0,2.61-1.56,3.02-3.78l.48-2.52Z"/><path class="cls-3" d="M92.42,83.6l1.12-5.92c.19-.93,.29-1.75,.4-2.44h1.28l-.21,1.64h.03c.74-1.17,1.87-1.83,3.09-1.83,1,0,2.12,.57,2.12,2.33,0,.36-.07,.9-.16,1.35l-.93,4.87h-1.43l.92-4.82c.07-.33,.12-.73,.12-1.07,0-.85-.33-1.47-1.31-1.47s-2.47,1.23-2.85,3.3l-.76,4.06h-1.43Z"/><path class="cls-3" d="M107.4,83.27c-.43,.21-1.3,.5-2.42,.5-2.16,0-3.21-1.45-3.21-3.23,0-2.85,2.11-5.48,5.11-5.48,.78,0,1.49,.22,1.75,.36l-.41,1.14c-.33-.16-.79-.31-1.42-.31-2.18,0-3.54,2.14-3.54,4.11,0,1.35,.71,2.23,2.07,2.23,.85,0,1.5-.26,1.94-.47l.14,1.14Z"/><path class="cls-3" d="M114.83,83.12c-.62,.36-1.64,.66-2.76,.66-2.21,0-3.18-1.5-3.18-3.35,0-2.52,1.87-5.37,4.56-5.37,1.59,0,2.45,.95,2.45,2.14,0,2.19-2.47,2.78-5.56,2.73-.07,.36-.02,1.14,.17,1.59,.33,.74,1,1.12,1.87,1.12,.98,0,1.73-.31,2.25-.59l.21,1.07Zm-1.59-6.94c-1.36,0-2.38,1.33-2.73,2.64,2.25,.02,4.01-.28,4.01-1.57,0-.69-.52-1.07-1.28-1.07Z"/><path class="cls-3" d="M120.01,81.81c.62,.43,1.5,.74,2.47,.74,1.31,0,2.52-.78,2.52-2.19,0-.86-.5-1.5-1.71-2.18-1.49-.79-2.31-1.73-2.31-2.99,0-2.07,1.8-3.42,3.94-3.42,1.12,0,1.97,.34,2.38,.62l-.52,1.16c-.36-.21-1.09-.55-2.02-.54-1.43,0-2.3,.95-2.3,1.9s.59,1.49,1.8,2.16c1.43,.76,2.23,1.68,2.23,3.11,0,2.02-1.59,3.59-4.2,3.59-1.17,0-2.31-.38-2.8-.79l.52-1.17Z"/><path class="cls-3" d="M135.98,75.24l-1.12,5.92c-.17,.93-.29,1.75-.38,2.44h-1.3l.22-1.57h-.03c-.74,1.09-1.85,1.76-2.95,1.76s-2.19-.52-2.19-2.42c0-.4,.05-.85,.16-1.4l.9-4.73h1.43l-.88,4.66c-.1,.47-.16,.86-.16,1.23,0,.86,.36,1.45,1.35,1.45,1.04,0,2.37-1.21,2.71-3.06l.81-4.28h1.43Z"/><path class="cls-3" d="M136.17,87.02l1.68-8.81c.17-1,.35-2.12,.47-2.97h1.31l-.24,1.57h.03c.76-1.09,1.87-1.76,3.01-1.76,1.81,0,2.57,1.49,2.57,3.02,0,2.94-2.11,5.72-4.89,5.72-.9,0-1.49-.19-1.81-.38h-.03l-.67,3.61h-1.42Zm2.35-4.82c.36,.29,.92,.47,1.59,.47,1.85,0,3.4-2.3,3.4-4.49,0-.88-.4-1.94-1.61-1.94-1.12,0-2.54,1.3-2.97,3.63l-.41,2.33Z"/><path class="cls-3" d="M145.24,87.02l1.68-8.81c.17-1,.35-2.12,.47-2.97h1.31l-.24,1.57h.03c.76-1.09,1.87-1.76,3.01-1.76,1.81,0,2.57,1.49,2.57,3.02,0,2.94-2.11,5.72-4.89,5.72-.9,0-1.49-.19-1.81-.38h-.03l-.67,3.61h-1.42Zm2.35-4.82c.36,.29,.92,.47,1.59,.47,1.85,0,3.4-2.3,3.4-4.49,0-.88-.4-1.94-1.61-1.94-1.12,0-2.54,1.3-2.97,3.63l-.41,2.33Z"/><path class="cls-3" d="M155.08,83.6l2.33-12.26h1.43l-2.35,12.26h-1.42Z"/><path class="cls-3" d="M165.04,83.12c-.62,.36-1.64,.66-2.76,.66-2.21,0-3.18-1.5-3.18-3.35,0-2.52,1.87-5.37,4.56-5.37,1.59,0,2.45,.95,2.45,2.14,0,2.19-2.47,2.78-5.56,2.73-.07,.36-.02,1.14,.17,1.59,.33,.74,1,1.12,1.87,1.12,.98,0,1.73-.31,2.25-.59l.21,1.07Zm-1.59-6.94c-1.36,0-2.38,1.33-2.73,2.64,2.25,.02,4.01-.28,4.01-1.57,0-.69-.52-1.07-1.28-1.07Z"/><path class="cls-3" d="M166.84,83.6l1.12-5.92c.17-.93,.29-1.75,.38-2.44h1.26l-.22,1.57h.05c.78-1.16,1.83-1.76,2.94-1.76,1.28,0,1.88,.81,1.95,1.87,.74-1.21,1.81-1.85,3.07-1.87,.97,0,2.02,.62,2.02,2.19,0,.4-.05,.95-.14,1.42l-.93,4.94h-1.4l.9-4.82c.07-.31,.12-.74,.12-1.09,0-.88-.33-1.45-1.26-1.45-1.04,0-2.26,1.21-2.61,3.08l-.81,4.28h-1.38l.93-4.91c.07-.36,.1-.69,.1-1.02,0-.71-.19-1.43-1.24-1.43s-2.35,1.38-2.68,3.16l-.78,4.2h-1.4Z"/><path class="cls-3" d="M186.84,83.12c-.62,.36-1.64,.66-2.76,.66-2.21,0-3.18-1.5-3.18-3.35,0-2.52,1.87-5.37,4.56-5.37,1.59,0,2.45,.95,2.45,2.14,0,2.19-2.47,2.78-5.56,2.73-.07,.36-.02,1.14,.17,1.59,.33,.74,1,1.12,1.87,1.12,.98,0,1.73-.31,2.25-.59l.21,1.07Zm-1.59-6.94c-1.36,0-2.38,1.33-2.73,2.64,2.25,.02,4.01-.28,4.01-1.57,0-.69-.52-1.07-1.28-1.07Z"/><path class="cls-3" d="M188.64,83.6l1.12-5.92c.19-.93,.29-1.75,.4-2.44h1.28l-.21,1.64h.03c.74-1.17,1.87-1.83,3.09-1.83,1,0,2.12,.57,2.12,2.33,0,.36-.07,.9-.16,1.35l-.93,4.87h-1.43l.92-4.82c.07-.33,.12-.73,.12-1.07,0-.85-.33-1.47-1.31-1.47s-2.47,1.23-2.85,3.3l-.76,4.06h-1.43Z"/><path class="cls-3" d="M201.61,73l-.43,2.24h2l-.22,1.12h-2l-.78,4.06c-.09,.47-.16,.9-.16,1.35,0,.5,.24,.79,.8,.79,.24,0,.48-.02,.67-.05l-.07,1.12c-.26,.1-.69,.15-1.11,.15-1.28,0-1.76-.78-1.76-1.62,0-.48,.05-.97,.17-1.57l.83-4.23h-1.21l.22-1.12h1.19l.36-1.88,1.49-.36Z"/></g></svg>