<?xml version="1.0" encoding="UTF-8"?><svg id="Layer_1" xmlns="http://www.w3.org/2000/svg" viewBox="0 0 181.75 75.03"><defs><style>.cls-1{fill:#002f87;}.cls-2{fill:#a2d45e;}</style></defs><g><path class="cls-1" d="M27.83,61.08l-1.03,5.39c-.07,.38-.11,.77-.11,1.15,0,1.16,.67,1.76,1.69,1.76,1.24,0,2.16-.84,2.54-2.88l1.04-5.42h1.12l-1.04,5.44c-.53,2.71-1.88,3.81-3.81,3.81-1.5,0-2.66-.81-2.66-2.69,0-.39,.04-.84,.12-1.26l1.01-5.31h1.12Z"/><path class="cls-1" d="M33.34,70.18l.88-4.63c.15-.73,.23-1.36,.31-1.9h1l-.16,1.28h.03c.58-.92,1.46-1.43,2.42-1.43,.78,0,1.66,.45,1.66,1.82,0,.28-.05,.7-.12,1.05l-.73,3.81h-1.12l.72-3.77c.05-.26,.09-.57,.09-.84,0-.66-.26-1.15-1.03-1.15s-1.93,.96-2.23,2.58l-.59,3.17h-1.12Z"/><path class="cls-1" d="M47.51,60.59l-1.43,7.52c-.13,.67-.24,1.43-.28,2.07h-1.03l.18-1.3h-.03c-.59,.93-1.42,1.44-2.35,1.44-1.27,0-1.96-1.04-1.96-2.38,0-2.32,1.73-4.46,4.04-4.46,.42,0,.88,.09,1.16,.23l.58-3.13h1.12Zm-1.88,4.08c-.23-.15-.61-.27-1.08-.27-1.57,0-2.78,1.66-2.78,3.4,0,.78,.27,1.61,1.23,1.61,.86,0,1.9-.99,2.19-2.46l.45-2.28Z"/><path class="cls-1" d="M52.36,69.8c-.49,.28-1.28,.51-2.16,.51-1.73,0-2.48-1.18-2.48-2.62,0-1.97,1.46-4.2,3.57-4.2,1.24,0,1.92,.74,1.92,1.67,0,1.71-1.93,2.17-4.35,2.13-.05,.28-.01,.89,.13,1.24,.26,.58,.78,.88,1.46,.88,.77,0,1.35-.24,1.76-.46l.16,.84Zm-1.24-5.43c-1.07,0-1.86,1.04-2.13,2.07,1.76,.01,3.13-.22,3.13-1.23,0-.54-.41-.84-1-.84Z"/><path class="cls-1" d="M53.77,70.18l.8-4.21c.16-.85,.27-1.71,.34-2.32h.99c-.05,.46-.11,.92-.17,1.42h.04c.42-.89,1.12-1.57,2-1.57,.09,0,.23,.01,.31,.03l-.22,1.11c-.07-.01-.18-.03-.3-.03-.97,0-1.84,1.17-2.12,2.7l-.54,2.88h-1.12Z"/><path class="cls-1" d="M59.88,63.65l.23,3.67c.05,.81,.04,1.23,.03,1.75h.04c.15-.42,.39-.99,.72-1.63l1.95-3.79h.97l.41,3.73c.07,.72,.12,1.27,.11,1.7h.03c.18-.53,.37-1.03,.62-1.65l1.77-3.78h1.13l-3.23,6.54h-1.04l-.43-3.55c-.07-.61-.09-1.16-.09-1.73h-.03c-.27,.62-.46,1.12-.76,1.7l-1.88,3.58h-1.04l-.61-6.54h1.11Z"/><path class="cls-1" d="M67.88,70.18l.8-4.21c.16-.85,.27-1.71,.34-2.32h.99c-.05,.46-.11,.92-.18,1.42h.04c.42-.89,1.12-1.57,2-1.57,.09,0,.23,.01,.31,.03l-.22,1.11c-.07-.01-.18-.03-.3-.03-.97,0-1.84,1.17-2.12,2.7l-.54,2.88h-1.12Z"/><path class="cls-1" d="M72.18,70.18l1.26-6.54h1.12l-1.26,6.54h-1.12Zm1.46-8.36c0-.43,.34-.76,.74-.76s.66,.3,.66,.7c-.01,.45-.32,.76-.76,.76-.39,0-.65-.3-.65-.7Z"/><path class="cls-1" d="M78.2,61.89l-.34,1.75h1.57l-.18,.88h-1.57l-.61,3.17c-.07,.36-.12,.7-.12,1.05,0,.39,.19,.62,.62,.62,.19,0,.38-.01,.53-.04l-.05,.88c-.2,.08-.54,.12-.86,.12-1,0-1.38-.61-1.38-1.27,0-.38,.04-.76,.13-1.23l.65-3.31h-.95l.18-.88h.93l.28-1.47,1.16-.28Z"/><path class="cls-1" d="M82.43,61.89l-.34,1.75h1.57l-.17,.88h-1.57l-.61,3.17c-.07,.36-.12,.7-.12,1.05,0,.39,.19,.62,.62,.62,.19,0,.38-.01,.53-.04l-.05,.88c-.2,.08-.54,.12-.86,.12-1,0-1.38-.61-1.38-1.27,0-.38,.04-.76,.13-1.23l.65-3.31h-.95l.17-.88h.93l.28-1.47,1.16-.28Z"/><path class="cls-1" d="M88.39,69.8c-.49,.28-1.28,.51-2.16,.51-1.73,0-2.48-1.18-2.48-2.62,0-1.97,1.46-4.2,3.57-4.2,1.24,0,1.92,.74,1.92,1.67,0,1.71-1.93,2.17-4.35,2.13-.05,.28-.01,.89,.13,1.24,.26,.58,.78,.88,1.46,.88,.77,0,1.35-.24,1.76-.46l.16,.84Zm-1.24-5.43c-1.07,0-1.86,1.04-2.13,2.07,1.76,.01,3.13-.22,3.13-1.23,0-.54-.41-.84-1-.84Z"/><path class="cls-1" d="M89.79,70.18l.88-4.63c.15-.73,.23-1.36,.31-1.9h1l-.16,1.28h.03c.58-.92,1.46-1.43,2.42-1.43,.78,0,1.66,.45,1.66,1.82,0,.28-.05,.7-.12,1.05l-.73,3.81h-1.12l.72-3.77c.05-.26,.09-.57,.09-.84,0-.66-.26-1.15-1.03-1.15s-1.93,.96-2.23,2.58l-.59,3.17h-1.12Z"/><path class="cls-1" d="M102.36,60.59l-.86,4.24h.03c.58-.88,1.42-1.34,2.3-1.34,1.43,0,1.97,1.19,1.97,2.35,0,2-1.44,4.48-4.06,4.48-1.15,0-2.01-.47-2.01-1.69,0-.31,.05-.7,.11-1.01l1.42-7.04h1.12Zm-1.42,7.06c-.05,.22-.09,.49-.08,.82,0,.62,.35,.97,1.05,.97,1.69,0,2.71-2.01,2.71-3.46,0-.81-.35-1.57-1.24-1.57-.97,0-1.97,1-2.3,2.54l-.15,.69Z"/><path class="cls-1" d="M107.9,63.65l.65,3.53c.15,.74,.23,1.23,.3,1.71h.03c.18-.42,.37-.88,.7-1.59l1.66-3.65h1.19l-2.44,4.97c-.7,1.42-1.36,2.57-2.25,3.43-.73,.74-1.53,1.05-1.9,1.13l-.27-.96c.28-.11,.76-.28,1.2-.63,.43-.34,.91-.86,1.26-1.5,.05-.11,.05-.19,.04-.3l-1.31-6.14h1.16Z"/><path class="cls-1" d="M116.77,67.31l-1.45,2.88h-1.19l4.71-9.1h1.32l1.26,9.1h-1.15l-.36-2.88h-3.15Zm3.05-.89l-.35-2.63c-.05-.47-.12-1.13-.16-1.67h-.03c-.24,.54-.47,1.11-.74,1.66l-1.36,2.65h2.65Z"/><path class="cls-1" d="M122.65,70.18l.88-4.63c.14-.73,.23-1.36,.3-1.9h.99l-.18,1.23h.04c.61-.91,1.43-1.38,2.29-1.38,1,0,1.47,.63,1.53,1.46,.58-.95,1.42-1.45,2.4-1.46,.76,0,1.58,.49,1.58,1.72,0,.31-.04,.74-.11,1.11l-.73,3.86h-1.09l.7-3.77c.05-.24,.09-.58,.09-.85,0-.69-.26-1.13-.99-1.13-.81,0-1.77,.95-2.04,2.4l-.63,3.35h-1.08l.73-3.83c.05-.28,.08-.54,.08-.8,0-.55-.15-1.12-.97-1.12s-1.84,1.08-2.09,2.47l-.61,3.28h-1.09Z"/><path class="cls-1" d="M135.33,61.08h4.62l-.18,.96h-3.5l-.59,3.07h3.23l-.19,.96h-3.21l-.78,4.12h-1.12l1.73-9.1Z"/><path class="cls-1" d="M139.56,70.18l1.26-6.54h1.12l-1.26,6.54h-1.12Zm1.46-8.36c0-.43,.34-.76,.74-.76s.66,.3,.66,.7c-.01,.45-.32,.76-.76,.76-.39,0-.65-.3-.65-.7Z"/><path class="cls-1" d="M142.65,70.18l.8-4.21c.16-.85,.27-1.71,.34-2.32h.99c-.05,.46-.11,.92-.17,1.42h.04c.42-.89,1.12-1.57,2-1.57,.09,0,.23,.01,.31,.03l-.22,1.11c-.07-.01-.18-.03-.3-.03-.97,0-1.84,1.17-2.12,2.7l-.54,2.88h-1.12Z"/><path class="cls-1" d="M147.01,69.05c.31,.19,.88,.41,1.4,.41,.76,0,1.24-.49,1.24-1.07,0-.51-.23-.82-.9-1.2-.76-.42-1.17-1-1.17-1.66,0-1.15,.99-2.03,2.36-2.03,.59,0,1.12,.16,1.36,.32l-.31,.85c-.23-.13-.65-.3-1.13-.3-.67,0-1.16,.42-1.16,.99,0,.47,.31,.77,.89,1.09,.73,.42,1.23,.99,1.23,1.71,0,1.38-1.12,2.15-2.5,2.15-.7,0-1.32-.22-1.62-.45l.31-.82Z"/><path class="cls-1" d="M154.92,61.89l-.34,1.75h1.57l-.17,.88h-1.57l-.61,3.17c-.07,.36-.12,.7-.12,1.05,0,.39,.19,.62,.62,.62,.19,0,.38-.01,.53-.04l-.05,.88c-.2,.08-.54,.12-.86,.12-1,0-1.38-.61-1.38-1.27,0-.38,.04-.76,.13-1.23l.65-3.31h-.95l.17-.88h.93l.28-1.47,1.16-.28Z"/></g><g><g><path class="cls-2" d="M.19,.27H8.25V35.42H.19V.27Z"/><path class="cls-2" d="M21.41,8.04h-.1l.49,27.39h-7.43V.27h11.75l5.92,27.39,.1-.1L31.56,.27h7.48V35.42h-11.75l-5.88-27.39Z"/><path class="cls-1" d="M44.66,.27h11.61c5.83,0,8.98,2.14,8.98,8.55v6.12c0,8.4-2.57,10.49-9.81,10.49h-2.72v10h-8.06V.27Zm10.44,18.84c1.17,0,1.8-.63,1.8-2.57V8.08c0-1.17-.44-1.51-1.84-1.51h-2.33v12.53h2.38Z"/><path class="cls-1" d="M68.45,7.11c0-5.73,3.69-7.24,10.44-7.24s10.44,1.51,10.44,7.24V28.58c0,5.73-3.69,7.23-10.44,7.23s-10.44-1.51-10.44-7.23V7.11Zm12.53,.44c0-1.31-.58-1.65-2.09-1.65s-2.09,.34-2.09,1.65V28.14c0,1.31,.58,1.65,2.09,1.65s2.09-.34,2.09-1.65V7.55Z"/><path class="cls-1" d="M93.7,8.42C93.7,2.79,95.84-.12,101.81-.12h3.01c7.04,0,9.18,1.94,9.18,6.02v6.41h-7.77V7.7c0-1.07-.73-1.51-2.04-1.51-1.41,0-2.14,.44-2.14,1.51V27.99c0,1.07,.73,1.51,2.09,1.51s2.09-.44,2.09-1.51v-5.54h7.77v5.2c0,6.22-2.38,8.16-9.18,8.16h-3.01c-5.97,0-8.11-2.96-8.11-7.53V8.42Z"/><path class="cls-1" d="M118.47,.27h8.06V15.08l-.05,.1h.1L131.72,.27h8.64l-6.85,16.7,7.72,18.45h-8.64l-6.02-15.68h-.1l.05,.1v15.59h-8.06V.27Z"/><path class="cls-1" d="M143.71,.27h15.49V6.58h-7.43v7.72h6.89v6.02h-6.89v8.79h8.01v6.31h-16.07V.27Z"/><path class="cls-1" d="M168.04,6.58h-5.63V.27h19.33V6.58h-5.63v28.84h-8.06V6.58Z"/></g><g><path class="cls-2" d="M69.57,41.51h-9.7v11.61h3.56v-2.92h7.07c2.52,0,3.27-1.99,3.27-3.72v-.99c0-2.28-.82-3.98-4.2-3.98Zm.55,4.57c0,.69-.32,1.24-1.15,1.24h-5.53v-2.92h5.23c1.07,0,1.46,.45,1.46,1.24v.45Z"/><polygon class="cls-2" points="79.26 41.51 75.69 41.51 75.69 53.13 87.26 53.13 87.26 50.14 79.26 50.14 79.26 41.51"/><path class="cls-2" d="M94.77,41.51l-6.29,11.61h3.98l1.04-2.05h7.22l1.11,2.05h3.96l-6.38-11.61h-4.64Zm.06,7.06l2.25-4.36,2.31,4.36h-4.56Z"/><polygon class="cls-2" points="119.3 49.95 119.26 49.95 112.58 41.51 107.06 41.51 107.06 53.13 110.62 53.13 110.62 44.69 110.65 44.69 117.34 53.13 122.86 53.13 122.86 41.51 119.3 41.51 119.3 49.95"/></g><g><path class="cls-1" d="M6.7,48.67H1.29c-.72,0-1.3-.58-1.3-1.3s.58-1.3,1.3-1.3H6.7c.72,0,1.3,.58,1.3,1.3s-.58,1.3-1.3,1.3Z"/><path class="cls-1" d="M51.97,48.67h-5.41c-.72,0-1.3-.58-1.3-1.3s.58-1.3,1.3-1.3h5.41c.72,0,1.3,.58,1.3,1.3s-.58,1.3-1.3,1.3Z"/><path class="cls-1" d="M18.02,48.67h-5.41c-.72,0-1.3-.58-1.3-1.3s.58-1.3,1.3-1.3h5.41c.72,0,1.3,.58,1.3,1.3s-.58,1.3-1.3,1.3Z"/><path class="cls-1" d="M29.34,48.67h-5.41c-.72,0-1.3-.58-1.3-1.3s.58-1.3,1.3-1.3h5.41c.72,0,1.3,.58,1.3,1.3s-.58,1.3-1.3,1.3Z"/><path class="cls-1" d="M40.66,48.67h-5.41c-.72,0-1.3-.58-1.3-1.3s.58-1.3,1.3-1.3h5.41c.72,0,1.3,.58,1.3,1.3s-.58,1.3-1.3,1.3Z"/></g><g><path class="cls-1" d="M134.96,48.67h-5.41c-.72,0-1.3-.58-1.3-1.3s.58-1.3,1.3-1.3h5.41c.72,0,1.3,.58,1.3,1.3s-.58,1.3-1.3,1.3Z"/><path class="cls-1" d="M180.24,48.67h-5.41c-.72,0-1.3-.58-1.3-1.3s.58-1.3,1.3-1.3h5.41c.72,0,1.3,.58,1.3,1.3s-.58,1.3-1.3,1.3Z"/><path class="cls-1" d="M146.28,48.67h-5.41c-.72,0-1.3-.58-1.3-1.3s.58-1.3,1.3-1.3h5.41c.72,0,1.3,.58,1.3,1.3s-.58,1.3-1.3,1.3Z"/><path class="cls-1" d="M157.6,48.67h-5.41c-.72,0-1.3-.58-1.3-1.3s.58-1.3,1.3-1.3h5.41c.72,0,1.3,.58,1.3,1.3s-.58,1.3-1.3,1.3Z"/><path class="cls-1" d="M168.92,48.67h-5.41c-.72,0-1.3-.58-1.3-1.3s.58-1.3,1.3-1.3h5.41c.72,0,1.3,.58,1.3,1.3s-.58,1.3-1.3,1.3Z"/></g></g></svg>