<?xml version="1.0" encoding="UTF-8"?>
<svg id="Layer_1" data-name="Layer 1" xmlns="http://www.w3.org/2000/svg" viewBox="0 0 206.47 81.52">
  <defs>
    <style>
      .cls-1 {
        fill: #fff;
      }

      .cls-2 {
        fill: #a2d45e;
      }
    </style>
  </defs>
  <g>
    <rect class="cls-2" x=".37" y=".44" width="9.12" height="39.8"/>
    <polygon class="cls-2" points="35.88 .44 36.54 31.33 36.43 31.44 29.72 .44 16.42 .44 16.42 40.24 24.83 40.24 24.28 9.23 24.39 9.23 31.04 40.24 44.34 40.24 44.34 .44 35.88 .44"/>
  </g>
  <path class="cls-2" d="M78.57,46.99h-10.77v12.89h3.95v-3.24h7.85c2.79,0,3.63-2.21,3.63-4.13v-1.1c0-2.53-.91-4.41-4.66-4.41Zm.6,5.07c0,.77-.36,1.37-1.28,1.37h-6.14v-3.24h5.8c1.19,0,1.62,.5,1.62,1.37v.5Z"/>
  <polygon class="cls-2" points="89.32 46.99 85.37 46.99 85.37 59.88 98.21 59.88 98.21 56.57 89.32 56.57 89.32 46.99"/>
  <path class="cls-2" d="M106.54,46.99l-6.98,12.89h4.41l1.16-2.28h8.01l1.23,2.28h4.4l-7.08-12.89h-5.14Zm.07,7.83l2.49-4.84,2.56,4.84h-5.05Z"/>
  <polygon class="cls-2" points="133.76 56.36 133.72 56.36 126.3 46.99 120.18 46.99 120.18 59.88 124.13 59.88 124.13 50.52 124.16 50.52 131.58 59.88 137.71 59.88 137.71 46.99 133.76 46.99 133.76 56.36"/>
  <g>
    <path class="cls-1" d="M7.5,55.32H1.9c-.74,0-1.35-.6-1.35-1.35s.6-1.35,1.35-1.35H7.5c.74,0,1.35,.6,1.35,1.35s-.6,1.35-1.35,1.35Z"/>
    <path class="cls-1" d="M54.38,55.32h-5.6c-.74,0-1.35-.6-1.35-1.35s.6-1.35,1.35-1.35h5.6c.74,0,1.35,.6,1.35,1.35s-.6,1.35-1.35,1.35Z"/>
    <path class="cls-1" d="M19.22,55.32h-5.6c-.74,0-1.35-.6-1.35-1.35s.6-1.35,1.35-1.35h5.6c.74,0,1.35,.6,1.35,1.35s-.6,1.35-1.35,1.35Z"/>
    <path class="cls-1" d="M30.94,55.32h-5.6c-.74,0-1.35-.6-1.35-1.35s.6-1.35,1.35-1.35h5.6c.74,0,1.35,.6,1.35,1.35s-.6,1.35-1.35,1.35Z"/>
    <path class="cls-1" d="M42.66,55.32h-5.6c-.74,0-1.35-.6-1.35-1.35s.6-1.35,1.35-1.35h5.6c.74,0,1.35,.6,1.35,1.35s-.6,1.35-1.35,1.35Z"/>
    <path class="cls-1" d="M158.24,55.32h-5.6c-.74,0-1.35-.6-1.35-1.35s.6-1.35,1.35-1.35h5.6c.74,0,1.35,.6,1.35,1.35s-.6,1.35-1.35,1.35Z"/>
    <path class="cls-1" d="M205.12,55.32h-5.6c-.74,0-1.35-.6-1.35-1.35s.6-1.35,1.35-1.35h5.6c.74,0,1.35,.6,1.35,1.35s-.6,1.35-1.35,1.35Z"/>
    <path class="cls-1" d="M169.96,55.32h-5.6c-.74,0-1.35-.6-1.35-1.35s.6-1.35,1.35-1.35h5.6c.74,0,1.35,.6,1.35,1.35s-.6,1.35-1.35,1.35Z"/>
    <path class="cls-1" d="M181.68,55.32h-5.6c-.74,0-1.35-.6-1.35-1.35s.6-1.35,1.35-1.35h5.6c.74,0,1.35,.6,1.35,1.35s-.6,1.35-1.35,1.35Z"/>
    <path class="cls-1" d="M193.4,55.32h-5.6c-.74,0-1.35-.6-1.35-1.35s.6-1.35,1.35-1.35h5.6c.74,0,1.35,.6,1.35,1.35s-.6,1.35-1.35,1.35Z"/>
  </g>
  <g>
    <path class="cls-1" d="M2.86,69.43l-.74,3.83H6.31l.73-3.83h1.13l-1.74,9.1h-1.12l.81-4.28H1.93l-.81,4.28H0l1.74-9.1h1.12Z"/>
    <path class="cls-1" d="M13.14,78.15c-.49,.28-1.28,.51-2.16,.51-1.73,0-2.48-1.17-2.48-2.62,0-1.97,1.46-4.2,3.56-4.2,1.24,0,1.92,.74,1.92,1.67,0,1.71-1.93,2.17-4.35,2.13-.05,.28-.01,.89,.13,1.24,.26,.58,.78,.88,1.46,.88,.77,0,1.35-.24,1.76-.46l.16,.84Zm-1.24-5.43c-1.07,0-1.86,1.04-2.13,2.07,1.76,.01,3.13-.22,3.13-1.23,0-.54-.41-.84-1-.84Z"/>
    <path class="cls-1" d="M18.88,78.53c0-.39,.07-1.01,.15-1.69h-.03c-.72,1.35-1.61,1.84-2.54,1.84-1.15,0-1.88-.92-1.88-2.16,0-2.27,1.67-4.67,4.52-4.67,.62,0,1.31,.11,1.76,.26l-.66,3.4c-.22,1.13-.31,2.29-.28,3.02h-1.04Zm.73-5.7c-.16-.04-.4-.09-.78-.09-1.69,0-3.07,1.77-3.08,3.58,0,.73,.26,1.45,1.12,1.45,.93,0,2.04-1.22,2.36-2.96l.38-1.97Z"/>
    <path class="cls-1" d="M21.61,78.53l1.82-9.59h1.12l-1.84,9.59h-1.11Z"/>
    <path class="cls-1" d="M27.63,70.24l-.34,1.75h1.57l-.18,.88h-1.57l-.61,3.17c-.07,.36-.12,.7-.12,1.05,0,.39,.19,.62,.62,.62,.19,0,.38-.01,.53-.04l-.05,.88c-.2,.08-.54,.12-.86,.12-1,0-1.38-.61-1.38-1.27,0-.38,.04-.76,.13-1.23l.65-3.31h-.95l.18-.88h.93l.28-1.47,1.16-.28Z"/>
    <path class="cls-1" d="M28.92,78.53l1.82-9.59h1.12l-.81,4.21h.03c.55-.8,1.35-1.31,2.34-1.31,.74,0,1.62,.46,1.62,1.76,0,.35-.04,.77-.11,1.11l-.73,3.82h-1.12l.73-3.77c.04-.24,.08-.54,.08-.91,0-.61-.28-1.08-1.01-1.08-.86,0-1.96,1.01-2.23,2.49l-.61,3.27h-1.12Z"/>
    <path class="cls-1" d="M41.47,69.43l-1.73,9.1h-1.12l1.73-9.1h1.12Z"/>
    <path class="cls-1" d="M41.74,78.53l.88-4.63c.15-.73,.23-1.36,.31-1.9h1l-.16,1.28h.03c.58-.92,1.46-1.43,2.42-1.43,.78,0,1.66,.45,1.66,1.82,0,.28-.05,.7-.12,1.05l-.73,3.81h-1.12l.72-3.77c.05-.26,.09-.57,.09-.84,0-.66-.26-1.15-1.03-1.15s-1.93,.96-2.23,2.58l-.59,3.17h-1.12Z"/>
    <path class="cls-1" d="M49.01,77.39c.31,.19,.88,.41,1.4,.41,.76,0,1.24-.49,1.24-1.07,0-.51-.23-.82-.9-1.2-.76-.42-1.17-1-1.17-1.66,0-1.15,.99-2.03,2.36-2.03,.59,0,1.12,.16,1.36,.32l-.31,.85c-.23-.13-.65-.3-1.13-.3-.67,0-1.16,.42-1.16,.99,0,.47,.31,.77,.89,1.09,.73,.42,1.23,.99,1.23,1.72,0,1.38-1.12,2.15-2.5,2.15-.7,0-1.32-.22-1.62-.45l.31-.82Z"/>
    <path class="cls-1" d="M60.37,71.99l-.88,4.63c-.13,.73-.23,1.36-.3,1.9h-1.01l.18-1.23h-.03c-.58,.85-1.44,1.38-2.31,1.38s-1.72-.41-1.72-1.89c0-.31,.04-.66,.12-1.09l.7-3.7h1.12l-.69,3.65c-.08,.36-.12,.67-.12,.96,0,.67,.28,1.13,1.05,1.13,.81,0,1.85-.95,2.12-2.39l.63-3.35h1.12Z"/>
    <path class="cls-1" d="M61.1,78.53l.8-4.21c.16-.85,.27-1.72,.34-2.32h.99c-.05,.46-.11,.92-.18,1.42h.04c.42-.89,1.12-1.57,2-1.57,.09,0,.23,.01,.31,.03l-.22,1.11c-.07-.01-.18-.03-.3-.03-.97,0-1.84,1.17-2.12,2.7l-.54,2.88h-1.12Z"/>
    <path class="cls-1" d="M69.53,78.53c0-.39,.07-1.01,.15-1.69h-.03c-.72,1.35-1.61,1.84-2.54,1.84-1.15,0-1.88-.92-1.88-2.16,0-2.27,1.67-4.67,4.52-4.67,.62,0,1.31,.11,1.76,.26l-.66,3.4c-.22,1.13-.31,2.29-.28,3.02h-1.04Zm.73-5.7c-.16-.04-.4-.09-.78-.09-1.69,0-3.07,1.77-3.08,3.58,0,.73,.26,1.45,1.12,1.45,.93,0,2.04-1.22,2.36-2.96l.38-1.97Z"/>
    <path class="cls-1" d="M72.25,78.53l.88-4.63c.15-.73,.23-1.36,.31-1.9h1l-.16,1.28h.03c.58-.92,1.46-1.43,2.42-1.43,.78,0,1.66,.45,1.66,1.82,0,.28-.05,.7-.12,1.05l-.73,3.81h-1.12l.72-3.77c.05-.26,.09-.57,.09-.84,0-.66-.26-1.15-1.03-1.15s-1.93,.96-2.23,2.58l-.59,3.17h-1.12Z"/>
    <path class="cls-1" d="M83.96,78.27c-.34,.16-1.01,.39-1.89,.39-1.69,0-2.51-1.13-2.51-2.53,0-2.23,1.65-4.28,4-4.28,.61,0,1.16,.18,1.36,.28l-.32,.89c-.26-.12-.62-.24-1.11-.24-1.7,0-2.77,1.67-2.77,3.21,0,1.05,.55,1.74,1.62,1.74,.66,0,1.17-.2,1.51-.36l.11,.89Z"/>
    <path class="cls-1" d="M89.77,78.15c-.49,.28-1.28,.51-2.16,.51-1.73,0-2.48-1.17-2.48-2.62,0-1.97,1.46-4.2,3.56-4.2,1.24,0,1.92,.74,1.92,1.67,0,1.71-1.93,2.17-4.35,2.13-.05,.28-.01,.89,.13,1.24,.26,.58,.78,.88,1.46,.88,.77,0,1.35-.24,1.76-.46l.16,.84Zm-1.24-5.43c-1.07,0-1.86,1.04-2.13,2.07,1.76,.01,3.13-.22,3.13-1.23,0-.54-.41-.84-1-.84Z"/>
    <path class="cls-1" d="M93.82,77.12c.49,.34,1.17,.58,1.93,.58,1.03,0,1.97-.61,1.97-1.71,0-.67-.39-1.17-1.34-1.7-1.16-.62-1.81-1.35-1.81-2.34,0-1.62,1.4-2.67,3.08-2.67,.88,0,1.54,.27,1.86,.49l-.4,.9c-.28-.16-.85-.43-1.58-.42-1.12,0-1.8,.74-1.8,1.49s.46,1.16,1.4,1.69c1.12,.59,1.74,1.31,1.74,2.43,0,1.58-1.24,2.81-3.28,2.81-.92,0-1.81-.3-2.19-.62l.41-.92Z"/>
    <path class="cls-1" d="M106.3,71.99l-.88,4.63c-.13,.73-.23,1.36-.3,1.9h-1.01l.18-1.23h-.03c-.58,.85-1.44,1.38-2.31,1.38s-1.72-.41-1.72-1.89c0-.31,.04-.66,.12-1.09l.7-3.7h1.12l-.69,3.65c-.08,.36-.12,.67-.12,.96,0,.67,.28,1.13,1.05,1.13,.81,0,1.85-.95,2.12-2.39l.63-3.35h1.12Z"/>
    <path class="cls-1" d="M106.45,81.2l1.31-6.89c.13-.78,.27-1.66,.36-2.32h1.03l-.19,1.23h.03c.59-.85,1.46-1.38,2.35-1.38,1.42,0,2.01,1.16,2.01,2.36,0,2.3-1.65,4.47-3.82,4.47-.7,0-1.16-.15-1.42-.3h-.03l-.53,2.82h-1.11Zm1.84-3.77c.28,.23,.72,.36,1.24,.36,1.44,0,2.66-1.8,2.66-3.51,0-.69-.31-1.51-1.26-1.51-.88,0-1.98,1.01-2.32,2.84l-.32,1.82Z"/>
    <path class="cls-1" d="M113.54,81.2l1.31-6.89c.13-.78,.27-1.66,.36-2.32h1.03l-.19,1.23h.03c.59-.85,1.46-1.38,2.35-1.38,1.42,0,2.01,1.16,2.01,2.36,0,2.3-1.65,4.47-3.82,4.47-.7,0-1.16-.15-1.42-.3h-.03l-.53,2.82h-1.11Zm1.84-3.77c.28,.23,.72,.36,1.24,.36,1.44,0,2.66-1.8,2.66-3.51,0-.69-.31-1.51-1.26-1.51-.88,0-1.98,1.01-2.32,2.84l-.32,1.82Z"/>
    <path class="cls-1" d="M121.23,78.53l1.82-9.59h1.12l-1.84,9.59h-1.11Z"/>
    <path class="cls-1" d="M129.02,78.15c-.49,.28-1.28,.51-2.16,.51-1.73,0-2.48-1.17-2.48-2.62,0-1.97,1.46-4.2,3.56-4.2,1.24,0,1.92,.74,1.92,1.67,0,1.71-1.93,2.17-4.35,2.13-.05,.28-.01,.89,.13,1.24,.26,.58,.78,.88,1.46,.88,.77,0,1.35-.24,1.76-.46l.16,.84Zm-1.24-5.43c-1.07,0-1.86,1.04-2.13,2.07,1.76,.01,3.13-.22,3.13-1.23,0-.54-.41-.84-1-.84Z"/>
    <path class="cls-1" d="M130.43,78.53l.88-4.63c.13-.73,.23-1.36,.3-1.9h.99l-.17,1.23h.04c.61-.91,1.43-1.38,2.3-1.38,1,0,1.47,.63,1.53,1.46,.58-.95,1.42-1.45,2.4-1.46,.76,0,1.58,.49,1.58,1.71,0,.31-.04,.74-.11,1.11l-.73,3.86h-1.09l.7-3.77c.05-.24,.09-.58,.09-.85,0-.69-.26-1.13-.99-1.13-.81,0-1.77,.95-2.04,2.4l-.63,3.35h-1.08l.73-3.83c.05-.28,.08-.54,.08-.8,0-.55-.15-1.12-.97-1.12s-1.84,1.08-2.09,2.47l-.61,3.28h-1.09Z"/>
    <path class="cls-1" d="M146.06,78.15c-.49,.28-1.28,.51-2.16,.51-1.73,0-2.48-1.17-2.48-2.62,0-1.97,1.46-4.2,3.56-4.2,1.24,0,1.92,.74,1.92,1.67,0,1.71-1.93,2.17-4.35,2.13-.05,.28-.01,.89,.13,1.24,.26,.58,.78,.88,1.46,.88,.77,0,1.35-.24,1.76-.46l.16,.84Zm-1.24-5.43c-1.07,0-1.86,1.04-2.13,2.07,1.76,.01,3.13-.22,3.13-1.23,0-.54-.41-.84-1-.84Z"/>
    <path class="cls-1" d="M147.47,78.53l.88-4.63c.15-.73,.23-1.36,.31-1.9h1l-.16,1.28h.03c.58-.92,1.46-1.43,2.42-1.43,.78,0,1.66,.45,1.66,1.82,0,.28-.05,.7-.12,1.05l-.73,3.81h-1.12l.72-3.77c.05-.26,.09-.57,.09-.84,0-.66-.26-1.15-1.03-1.15s-1.93,.96-2.23,2.58l-.59,3.17h-1.12Z"/>
    <path class="cls-1" d="M157.61,70.24l-.34,1.75h1.57l-.18,.88h-1.57l-.61,3.17c-.07,.36-.12,.7-.12,1.05,0,.39,.19,.62,.62,.62,.19,0,.38-.01,.53-.04l-.05,.88c-.2,.08-.54,.12-.86,.12-1,0-1.38-.61-1.38-1.27,0-.38,.04-.76,.13-1.23l.65-3.31h-.95l.18-.88h.93l.28-1.47,1.16-.28Z"/>
    <path class="cls-1" d="M164.26,68.94l-.86,4.24h.03c.58-.88,1.42-1.34,2.3-1.34,1.43,0,1.97,1.19,1.97,2.35,0,2-1.45,4.48-4.07,4.48-1.15,0-2.01-.47-2.01-1.69,0-.31,.05-.7,.11-1.01l1.42-7.04h1.12Zm-1.42,7.06c-.05,.22-.09,.49-.08,.82,0,.62,.35,.97,1.05,.97,1.69,0,2.71-2.01,2.71-3.46,0-.81-.35-1.57-1.24-1.57-.97,0-1.97,1-2.3,2.54l-.15,.69Z"/>
    <path class="cls-1" d="M169.8,71.99l.65,3.52c.15,.74,.23,1.23,.3,1.72h.03c.18-.42,.37-.88,.7-1.59l1.66-3.65h1.19l-2.44,4.97c-.7,1.42-1.36,2.57-2.25,3.43-.73,.74-1.53,1.05-1.9,1.13l-.27-.96c.28-.11,.76-.28,1.2-.63,.43-.34,.91-.86,1.26-1.5,.05-.11,.05-.19,.04-.3l-1.31-6.14h1.16Z"/>
    <path class="cls-1" d="M184.45,78.53l.65-4.92c.12-.86,.32-2.2,.5-3.08h-.05c-.42,.92-.92,2-1.42,2.93l-2.7,5.01h-.86l-.68-4.9c-.13-1.05-.23-2.11-.28-3.04h-.03c-.2,.84-.49,2.21-.7,3.08l-1.24,4.92h-1.05l2.36-9.1h1.43l.72,5.23c.09,.77,.2,1.59,.22,2.27h.04c.28-.67,.67-1.49,1.07-2.24l2.82-5.25h1.46l-1.16,9.1h-1.08Z"/>
    <path class="cls-1" d="M188.7,78.53l-.45-9.1h1.13l.19,5.46c.04,1.17,.01,1.8,0,2.38h.03c.22-.59,.43-1.19,.95-2.31l2.51-5.52h1.2l.19,5.24c.04,1.17,.04,1.97,.03,2.57h.03c.27-.78,.54-1.51,.89-2.34l2.44-5.47h1.17l-4.23,9.1h-1.17l-.24-5.17c-.04-1.07-.03-1.58,.03-2.62h-.04c-.3,.86-.54,1.57-.92,2.39l-2.54,5.4h-1.2Z"/>
    <path class="cls-1" d="M205.25,78.14c-.53,.22-1.5,.49-2.57,.49-1.28,0-2.28-.37-2.97-1.13s-.92-1.75-.92-2.66c0-1.51,.61-3.09,1.78-4.15,.97-.85,2.28-1.35,3.74-1.35,1.12,0,1.88,.26,2.15,.42l-.36,.95c-.47-.23-1.09-.39-1.92-.39-1.08,0-2.07,.39-2.82,1.11-.85,.8-1.36,2.09-1.36,3.33,0,1.76,.88,2.92,2.9,2.92,.54,0,1.05-.11,1.39-.26l.51-2.71h-1.85l.17-.92h2.94l-.82,4.36Z"/>
  </g>
  <g>
    <path class="cls-1" d="M119.28,0h-3.41C109.11,0,106.69,3.3,106.69,9.67v22.48c0,5.17,2.42,8.52,9.18,8.52h3.41c7.7,0,10.39-2.2,10.39-9.23v-5.88h-8.79v6.27c0,1.21-.82,1.7-2.36,1.7s-2.36-.49-2.36-1.7V8.85c0-1.21,.82-1.7,2.42-1.7,1.48,0,2.31,.49,2.31,1.7v5.22h8.79V6.82C129.67,2.2,127.25,0,119.28,0Z"/>
    <polygon class="cls-1" points="159.51 .44 149.73 .44 143.9 17.31 143.79 17.31 143.85 17.2 143.85 .44 134.72 .44 134.72 40.24 143.85 40.24 143.85 22.59 143.79 22.48 143.9 22.48 150.72 40.24 160.5 40.24 151.76 19.35 159.51 .44"/>
    <polygon class="cls-1" points="172.43 23.14 180.24 23.14 180.24 16.33 172.43 16.33 172.43 7.59 180.84 7.59 180.84 .44 163.31 .44 163.31 40.24 181.5 40.24 181.5 33.09 172.43 33.09 172.43 23.14"/>
    <polygon class="cls-1" points="184.47 .44 184.47 7.59 190.84 7.59 190.84 40.24 199.97 40.24 199.97 7.59 206.35 7.59 206.35 .44 184.47 .44"/>
    <path class="cls-1" d="M89.93,0C82.29,0,78.11,1.7,78.11,8.19v24.3c0,6.49,4.18,8.19,11.82,8.19s11.82-1.7,11.82-8.19V8.19C101.75,1.7,97.57,0,89.93,0Zm2.36,31.99c0,1.48-.66,1.87-2.36,1.87s-2.36-.38-2.36-1.87V8.69c0-1.48,.66-1.87,2.36-1.87s2.36,.38,2.36,1.87V31.99Z"/>
    <path class="cls-1" d="M64.31,.44h-13.14V40.24h9.12v-11.32h3.08c8.19,0,11.1-2.36,11.1-11.87v-6.93c0-7.26-3.57-9.67-10.17-9.67Zm.71,18.41c0,2.2-.71,2.91-2.03,2.91h-2.69V7.59h2.64c1.59,0,2.09,.38,2.09,1.7v9.56Z"/>
  </g>
</svg>