<?xml version="1.0" encoding="UTF-8"?><svg id="Layer_1" xmlns="http://www.w3.org/2000/svg" viewBox="0 0 260.8 94.52"><defs><style>.cls-1,.cls-2,.cls-3{stroke:#002f87;stroke-miterlimit:10;}.cls-1,.cls-3{fill:none;stroke-linecap:round;stroke-width:1.5px;}.cls-4{fill:#002f87;}.cls-5,.cls-2{fill:#fff;}.cls-6{fill:#a2d45e;}.cls-2{stroke-width:3.99px;}.cls-3{stroke-dasharray:0 0 3.05 3.05;}</style></defs><path class="cls-2" d="M194.92,10.17H2V92.53H258.81V10.17h-63.89Z"/><path class="cls-5" d="M186.91,40.04c.71,1.23,1.47,2.43,2.31,3.58,.14,.2,.29,.39,.44,.59,.09,.11,.17,.23,.26,.34,3.68-8.82,7.51-20.02,11.64-36.43l39.63,15.7c-4.19,16.94-9.12,28.68-13.95,38.64,.21,.02,.43,.04,.65,.06,.1-.21,.2-.42,.3-.62,1.7-2.67,3.37-5.36,4.97-8.1,1.95-3.35,3.78-6.74,5.5-10.18,1.74-3.48,3.35-6.96,4.84-10.45l.57-1.32-1.33-.55c-.05-.02-.13-.06-.22-.1l-.2-.1c-.82-.43-1.46-1.06-1.91-1.79,.47-1.72,.93-3.49,1.39-5.33l.13-.52-2.35-.93-18-9.43-.66,1.26c-.12,.22-.25,.43-.39,.62l-9.62-3.81c.74-1.92,1.5-3.93,2.27-6.03l37.76,19.78c-6.15,16.95-12.5,28.29-18.52,37.88,1.38,.05,2.79,.08,4.22,.07,5.75-9.32,11.84-20.55,17.7-36.72l1.08-2.97-22.75-11.92L211.18,0l-1.42,3.87c-.45,1.23-.9,2.43-1.34,3.6l-10.34-4.1-.96,3.83-.04,.17c-3.58,14.22-6.94,24.47-10.16,32.66Zm53.45-6.81c-1.12,2.59-2.29,5.12-3.51,7.61,.89-2.61,1.76-5.36,2.62-8.28,.28,.24,.57,.47,.89,.68Z"/><path class="cls-6" d="M236.85,40.83c1.21-2.49,2.38-5.02,3.51-7.61-.32-.21-.61-.43-.89-.68-.85,2.92-1.73,5.67-2.62,8.28Z"/><path class="cls-6" d="M229.19,62.6c1.05,.08,2.12,.13,3.21,.17,6.02-9.59,12.37-20.93,18.52-37.88L213.16,5.12c-.77,2.1-1.53,4.1-2.27,6.03l9.62,3.81c.14-.2,.27-.4,.39-.62l.66-1.26,18,9.43,2.35,.93-.13,.52c-.45,1.83-.92,3.61-1.39,5.33,.45,.74,1.09,1.36,1.91,1.79l.2,.1c.09,.04,.16,.07,.22,.1l1.33,.55-.57,1.32c-1.49,3.49-3.1,6.97-4.84,10.45-1.72,3.44-3.55,6.84-5.5,10.18-1.6,2.74-3.27,5.43-4.97,8.1-.1,.21-.2,.42-.3,.62,.24,.02,.49,.04,.73,.06,.19,.02,.39,.03,.58,.04Z"/><path class="cls-5" d="M230.95,43.68c1.36-3.64,2.6-7.27,3.71-10.9l.42-1.38-1.38-.4c-.06-.02-.13-.04-.23-.07l-.21-.08c-1.26-.5-2.19-1.46-2.69-2.61-.5-1.15-.56-2.49-.06-3.75l.52-1.32-1.32-.52-18.97-7.52-.52,1.32c-.46,1.17-1.33,2.06-2.37,2.58-1.06,.53-2.3,.67-3.49,.34l-1.36-.38-.39,1.35c-1.14,3.95-2.36,7.9-3.69,11.83-1.33,3.93-2.74,7.8-4.27,11.6-.57,1.41-1.16,2.81-1.76,4.21,.3,.31,.62,.62,.95,.94,.14,.13,.28,.27,.42,.4,.16,.15,.32,.29,.48,.44,.27,.24,.48,.43,.69,.61,.57,.49,1.16,.97,1.74,1.42,.6,.46,1.2,.9,1.79,1.31,.81,.56,1.71,1.13,2.65,1.69l.16,.09c.08,.05,.16,.09,.24,.14,.41,.24,.83,.47,1.26,.7h0c.44,.24,.88,.47,1.33,.69,.29,.14,.57,.28,.85,.41h0c.09,.04,.18,.09,.26,.13,.77,.36,1.55,.7,2.32,1.02h.04c.3,.14,.61,.26,.9,.37,.72,.28,1.48,.55,2.26,.82l.15,.05c.07,.02,.13,.05,.2,.07,.08,.03,.16,.05,.23,.08,.85,.28,1.73,.55,2.62,.79h0c.09,.03,.19,.05,.28,.08,.7,.19,1.42,.37,2.14,.55h0c.05,.01,.11,.03,.16,.04,.42,.1,.86,.2,1.3,.29l.26,.03,.11,.05h0c.12,.03,.24,.05,.36,.07,.09,.02,.18,.03,.27,.05l.09,.02c.14,.03,.28,.06,.42,.08,1.05,.2,2.11,.38,3.17,.54,1.23-2.49,2.43-5,3.57-7.54,1.58-3.53,3.05-7.1,4.4-10.71Zm-6.99,9.55c-.32,.71-.65,1.42-.97,2.13-.25-5.98-3.95-11.54-9.87-13.89-5.33-2.11-11.14-1.09-15.36,2.19,1.38-3.5,2.67-7.03,3.86-10.57,1.19-3.54,2.31-7.12,3.37-10.73,1.44,.13,2.87-.15,4.13-.78,1.25-.62,2.33-1.58,3.11-2.8l15.25,6.04c-.31,1.56-.11,3.15,.49,4.55,.7,1.61,1.94,2.98,3.59,3.82-1.02,3.23-2.1,6.39-3.26,9.48-1.32,3.53-2.76,7.05-4.34,10.55Z"/><path class="cls-5" d="M217.48,28.19c-1.55-.61-3.31,.15-3.92,1.7-.61,1.55,.15,3.31,1.7,3.92,1.55,.61,3.31-.15,3.92-1.7,.61-1.55-.15-3.31-1.7-3.92Z"/><path class="cls-6" d="M231.56,33.2c-1.66-.84-2.9-2.21-3.59-3.82-.61-1.4-.8-2.99-.49-4.55l-15.25-6.04c-.77,1.23-1.86,2.18-3.11,2.8-1.26,.63-2.69,.91-4.13,.78-1.06,3.61-2.17,7.19-3.37,10.73-1.2,3.54-2.48,7.07-3.86,10.57,4.23-3.28,10.03-4.31,15.36-2.19,5.93,2.35,9.62,7.91,9.87,13.89,.33-.71,.65-1.42,.97-2.13,1.57-3.5,3.01-7.02,4.34-10.55,1.16-3.1,2.24-6.26,3.26-9.48Zm-12.38-1.09c-.61,1.55-2.37,2.31-3.92,1.7-1.55-.61-2.31-2.37-1.7-3.92,.61-1.55,2.37-2.31,3.92-1.7,1.55,.61,2.31,2.37,1.7,3.92Z"/><path class="cls-6" d="M192.64,47.72c.08,.09,.17,.18,.26,.27,.6-1.39,1.19-2.79,1.76-4.21,1.53-3.8,2.94-7.67,4.27-11.6,1.33-3.93,2.55-7.88,3.69-11.83l.39-1.35,1.36,.38c1.19,.33,2.43,.19,3.49-.34,1.04-.52,1.91-1.41,2.37-2.58l.52-1.32,18.97,7.52,1.32,.52-.52,1.32c-.5,1.26-.44,2.6,.06,3.75,.5,1.15,1.43,2.11,2.69,2.61l.21,.08c.09,.03,.17,.06,.23,.07l1.38,.4-.42,1.38c-1.12,3.63-2.35,7.26-3.71,10.9-1.35,3.61-2.81,7.17-4.4,10.71-1.14,2.54-2.34,5.05-3.57,7.54,.15,.02,.3,.04,.44,.07,.11,.02,.21,.03,.32,.04l.46,.06c.2,.03,.4,.05,.6,.08,.78,.1,1.59,.18,2.43,.26,4.83-9.95,9.76-21.69,13.95-38.64l-39.63-15.7c-4.13,16.41-7.97,27.61-11.64,36.43,.85,1.1,1.77,2.17,2.73,3.18Z"/><path class="cls-4" d="M176.77,18.71c.08,.92,.89,1.61,1.81,1.53,.92-.08,1.61-.89,1.53-1.81-.01-.17-.05-.34-.12-.49-.27-.66-.95-1.1-1.7-1.04s-1.34,.61-1.5,1.31c-.04,.16-.05,.33-.03,.5Z"/><path class="cls-4" d="M248.26,65.02c.08,.92,.89,1.61,1.81,1.53,.92-.08,1.61-.89,1.53-1.81-.01-.17-.05-.34-.12-.49-.27-.66-.95-1.1-1.7-1.04s-1.34,.61-1.5,1.31c-.04,.16-.05,.33-.03,.5Z"/><g><rect class="cls-6" x="10.68" y="19.12" width="7.1" height="30.96"/><polygon class="cls-6" points="38.82 43.15 38.73 43.24 33.52 19.12 23.17 19.12 23.17 50.08 29.71 50.08 29.28 25.96 29.37 25.96 34.54 50.08 44.89 50.08 44.89 19.12 38.31 19.12 38.82 43.15"/><path class="cls-4" d="M80.36,50.42c5.94,0,9.19-1.33,9.19-6.37V25.15c0-5.05-3.25-6.37-9.19-6.37s-9.19,1.33-9.19,6.37v18.9c0,5.05,3.25,6.37,9.19,6.37Zm-1.84-24.89c0-1.15,.51-1.45,1.84-1.45s1.84,.3,1.84,1.45v18.13c0,1.15-.51,1.45-1.84,1.45s-1.84-.3-1.84-1.45V25.53Z"/><path class="cls-4" d="M100.54,50.42h2.65c5.99,0,8.08-1.71,8.08-7.18v-4.58h-6.84v4.88c0,.94-.64,1.33-1.84,1.33s-1.84-.38-1.84-1.33V25.66c0-.94,.64-1.33,1.88-1.33,1.15,0,1.8,.38,1.8,1.33v4.06h6.84v-5.65c0-3.59-1.88-5.3-8.08-5.3h-2.65c-5.26,0-7.14,2.57-7.14,7.53v17.49c0,4.02,1.88,6.63,7.14,6.63Z"/><polygon class="cls-4" points="128.47 33.83 134.5 19.12 126.89 19.12 122.35 32.25 122.27 32.25 122.31 32.16 122.31 19.12 115.21 19.12 115.21 50.08 122.31 50.08 122.31 36.35 122.27 36.27 122.35 36.27 127.66 50.08 135.27 50.08 128.47 33.83"/><polygon class="cls-4" points="151.6 44.52 144.55 44.52 144.55 36.78 150.62 36.78 150.62 31.48 144.55 31.48 144.55 24.68 151.09 24.68 151.09 19.12 137.45 19.12 137.45 50.08 151.6 50.08 151.6 44.52"/><polygon class="cls-4" points="153.91 24.68 158.87 24.68 158.87 50.08 165.97 50.08 165.97 24.68 170.93 24.68 170.93 19.12 153.91 19.12 153.91 24.68"/><path class="cls-4" d="M60.43,19.12h-10.22v30.96h7.1v-8.81h2.4c6.37,0,8.64-1.84,8.64-9.24v-5.39c0-5.65-2.78-7.53-7.91-7.53Zm.56,14.33c0,1.71-.56,2.27-1.58,2.27h-2.1v-11.03h2.05c1.24,0,1.63,.3,1.63,1.33v7.44Z"/></g><g><path class="cls-6" d="M71.99,55.34h-8.38v10.03h3.07v-2.52h6.11c2.17,0,2.82-1.72,2.82-3.21v-.86c0-1.97-.71-3.43-3.63-3.43Zm.47,3.95c0,.6-.28,1.07-1,1.07h-4.78v-2.52h4.51c.93,0,1.26,.39,1.26,1.07v.39Z"/><polygon class="cls-6" points="80.36 55.34 77.28 55.34 77.28 65.37 87.27 65.37 87.27 62.79 80.36 62.79 80.36 55.34"/><path class="cls-6" d="M93.75,55.34l-5.43,10.03h3.43l.9-1.77h6.23l.96,1.77h3.42l-5.51-10.03h-4Zm.06,6.09l1.94-3.77,1.99,3.77h-3.93Z"/><polygon class="cls-6" points="114.92 62.62 114.9 62.62 109.12 55.34 104.36 55.34 104.36 65.37 107.43 65.37 107.43 58.08 107.46 58.08 113.24 65.37 118 65.37 118 55.34 114.92 55.34 114.92 62.62"/></g><g><path class="cls-1" d="M178.55,21.99c0,.5,.03,1,.05,1.5"/><path class="cls-3" d="M178.85,26.52c3.59,31.44,38.12,41.36,64.59,39.36"/><path class="cls-1" d="M244.96,65.75c.5-.05,1-.1,1.49-.15"/></g><g><path class="cls-4" d="M16.75,62.62h-4.93c-.66,0-1.19-.53-1.19-1.19s.53-1.19,1.19-1.19h4.93c.66,0,1.19,.53,1.19,1.19s-.53,1.19-1.19,1.19Z"/><path class="cls-4" d="M58.03,62.62h-4.93c-.66,0-1.19-.53-1.19-1.19s.53-1.19,1.19-1.19h4.93c.66,0,1.19,.53,1.19,1.19s-.53,1.19-1.19,1.19Z"/><path class="cls-4" d="M27.07,62.62h-4.93c-.66,0-1.19-.53-1.19-1.19s.53-1.19,1.19-1.19h4.93c.66,0,1.19,.53,1.19,1.19s-.53,1.19-1.19,1.19Z"/><path class="cls-4" d="M37.39,62.62h-4.93c-.66,0-1.19-.53-1.19-1.19s.53-1.19,1.19-1.19h4.93c.66,0,1.19,.53,1.19,1.19s-.53,1.19-1.19,1.19Z"/><path class="cls-4" d="M47.71,62.62h-4.93c-.66,0-1.19-.53-1.19-1.19s.53-1.19,1.19-1.19h4.93c.66,0,1.19,.53,1.19,1.19s-.53,1.19-1.19,1.19Z"/></g><g><path class="cls-4" d="M128.29,62.62h-4.93c-.66,0-1.19-.53-1.19-1.19s.53-1.19,1.19-1.19h4.93c.66,0,1.19,.53,1.19,1.19s-.53,1.19-1.19,1.19Z"/><path class="cls-4" d="M169.57,62.62h-4.93c-.66,0-1.19-.53-1.19-1.19s.53-1.19,1.19-1.19h4.93c.66,0,1.19,.53,1.19,1.19s-.53,1.19-1.19,1.19Z"/><path class="cls-4" d="M138.61,62.62h-4.93c-.66,0-1.19-.53-1.19-1.19s.53-1.19,1.19-1.19h4.93c.66,0,1.19,.53,1.19,1.19s-.53,1.19-1.19,1.19Z"/><path class="cls-4" d="M148.93,62.62h-4.93c-.66,0-1.19-.53-1.19-1.19s.53-1.19,1.19-1.19h4.93c.66,0,1.19,.53,1.19,1.19s-.53,1.19-1.19,1.19Z"/><path class="cls-4" d="M159.25,62.62h-4.93c-.66,0-1.19-.53-1.19-1.19s.53-1.19,1.19-1.19h4.93c.66,0,1.19,.53,1.19,1.19s-.53,1.19-1.19,1.19Z"/></g><g><path class="cls-4" d="M14.77,70.74l-.95,4.9h5.35l.93-4.9h1.45l-2.22,11.63h-1.43l1.04-5.47h-5.35l-1.03,5.47h-1.43l2.23-11.63h1.43Z"/><path class="cls-4" d="M27.9,81.88c-.62,.36-1.64,.65-2.76,.65-2.21,0-3.17-1.5-3.17-3.35,0-2.52,1.86-5.36,4.55-5.36,1.59,0,2.45,.95,2.45,2.14,0,2.19-2.47,2.78-5.55,2.73-.07,.36-.02,1.14,.17,1.59,.33,.74,1,1.12,1.86,1.12,.98,0,1.73-.31,2.24-.59l.21,1.07Zm-1.59-6.93c-1.36,0-2.38,1.33-2.73,2.64,2.24,.02,4-.28,4-1.57,0-.69-.52-1.07-1.28-1.07Z"/><path class="cls-4" d="M35.23,82.36c0-.5,.09-1.29,.19-2.16h-.03c-.91,1.73-2.05,2.35-3.24,2.35-1.47,0-2.4-1.17-2.4-2.76,0-2.9,2.14-5.97,5.78-5.97,.79,0,1.67,.14,2.24,.33l-.85,4.35c-.28,1.45-.4,2.93-.36,3.86h-1.33Zm.93-7.28c-.21-.05-.52-.12-1-.12-2.16,0-3.92,2.26-3.93,4.57,0,.93,.33,1.85,1.43,1.85,1.19,0,2.6-1.55,3.02-3.78l.48-2.52Z"/><path class="cls-4" d="M38.72,82.36l2.33-12.25h1.43l-2.35,12.25h-1.41Z"/><path class="cls-4" d="M46.4,71.77l-.43,2.24h2l-.22,1.12h-2l-.78,4.05c-.09,.47-.16,.9-.16,1.34,0,.5,.24,.79,.79,.79,.24,0,.48-.02,.67-.05l-.07,1.12c-.26,.1-.69,.15-1.1,.15-1.28,0-1.76-.78-1.76-1.62,0-.48,.05-.97,.17-1.57l.83-4.23h-1.21l.22-1.12h1.19l.36-1.88,1.48-.36Z"/><path class="cls-4" d="M48.06,82.36l2.33-12.25h1.43l-1.03,5.38h.03c.71-1.02,1.73-1.67,2.98-1.67,.95,0,2.07,.59,2.07,2.24,0,.45-.05,.98-.14,1.41l-.93,4.88h-1.43l.93-4.81c.05-.31,.1-.69,.1-1.16,0-.78-.36-1.38-1.29-1.38-1.1,0-2.5,1.29-2.85,3.17l-.78,4.17h-1.43Z"/><path class="cls-4" d="M64.08,70.74l-2.21,11.63h-1.43l2.21-11.63h1.43Z"/><path class="cls-4" d="M64.43,82.36l1.12-5.92c.19-.93,.29-1.74,.4-2.43h1.28l-.21,1.64h.03c.74-1.17,1.86-1.83,3.09-1.83,1,0,2.12,.57,2.12,2.33,0,.36-.07,.9-.16,1.34l-.93,4.86h-1.43l.91-4.81c.07-.33,.12-.72,.12-1.07,0-.85-.33-1.47-1.31-1.47s-2.47,1.22-2.85,3.29l-.76,4.05h-1.43Z"/><path class="cls-4" d="M73.71,80.91c.4,.24,1.12,.52,1.79,.52,.97,0,1.59-.62,1.59-1.36,0-.66-.29-1.05-1.16-1.54-.97-.54-1.5-1.28-1.5-2.12,0-1.47,1.26-2.59,3.02-2.59,.76,0,1.43,.21,1.74,.41l-.4,1.09c-.29-.17-.83-.38-1.45-.38-.86,0-1.48,.54-1.48,1.26,0,.6,.4,.98,1.14,1.4,.93,.54,1.57,1.26,1.57,2.19,0,1.76-1.43,2.74-3.19,2.74-.9,0-1.69-.28-2.07-.57l.4-1.05Z"/><path class="cls-4" d="M88.22,74.02l-1.12,5.92c-.17,.93-.29,1.74-.38,2.43h-1.29l.22-1.57h-.03c-.74,1.09-1.85,1.76-2.95,1.76s-2.19-.52-2.19-2.41c0-.4,.05-.84,.16-1.4l.9-4.73h1.43l-.88,4.66c-.1,.47-.15,.86-.15,1.22,0,.86,.36,1.45,1.35,1.45,1.03,0,2.36-1.21,2.71-3.05l.81-4.28h1.43Z"/><path class="cls-4" d="M89.16,82.36l1.02-5.38c.21-1.09,.34-2.19,.43-2.97h1.26c-.07,.59-.14,1.17-.22,1.81h.05c.53-1.14,1.43-2,2.55-2,.12,0,.29,.02,.4,.03l-.28,1.41c-.09-.02-.22-.03-.38-.03-1.24,0-2.35,1.5-2.71,3.45l-.69,3.67h-1.43Z"/><path class="cls-4" d="M99.92,82.36c0-.5,.09-1.29,.19-2.16h-.03c-.91,1.73-2.05,2.35-3.24,2.35-1.47,0-2.4-1.17-2.4-2.76,0-2.9,2.14-5.97,5.78-5.97,.79,0,1.67,.14,2.24,.33l-.85,4.35c-.28,1.45-.4,2.93-.36,3.86h-1.33Zm.93-7.28c-.21-.05-.52-.12-1-.12-2.16,0-3.92,2.26-3.93,4.57,0,.93,.33,1.85,1.43,1.85,1.19,0,2.6-1.55,3.02-3.78l.48-2.52Z"/><path class="cls-4" d="M103.39,82.36l1.12-5.92c.19-.93,.29-1.74,.4-2.43h1.28l-.21,1.64h.03c.74-1.17,1.86-1.83,3.09-1.83,1,0,2.12,.57,2.12,2.33,0,.36-.07,.9-.16,1.34l-.93,4.86h-1.43l.91-4.81c.07-.33,.12-.72,.12-1.07,0-.85-.33-1.47-1.31-1.47s-2.47,1.22-2.85,3.29l-.76,4.05h-1.43Z"/><path class="cls-4" d="M118.35,82.04c-.43,.21-1.29,.5-2.41,.5-2.16,0-3.21-1.45-3.21-3.23,0-2.85,2.1-5.47,5.11-5.47,.78,0,1.48,.22,1.74,.36l-.41,1.14c-.33-.16-.79-.31-1.41-.31-2.17,0-3.54,2.14-3.54,4.1,0,1.35,.71,2.23,2.07,2.23,.85,0,1.5-.26,1.93-.47l.14,1.14Z"/><path class="cls-4" d="M125.77,81.88c-.62,.36-1.64,.65-2.76,.65-2.21,0-3.17-1.5-3.17-3.35,0-2.52,1.86-5.36,4.55-5.36,1.59,0,2.45,.95,2.45,2.14,0,2.19-2.47,2.78-5.55,2.73-.07,.36-.02,1.14,.17,1.59,.33,.74,1,1.12,1.86,1.12,.98,0,1.73-.31,2.24-.59l.21,1.07Zm-1.59-6.93c-1.36,0-2.38,1.33-2.73,2.64,2.24,.02,4-.28,4-1.57,0-.69-.52-1.07-1.28-1.07Z"/><path class="cls-4" d="M130.95,80.57c.62,.43,1.5,.74,2.47,.74,1.31,0,2.52-.78,2.52-2.19,0-.86-.5-1.5-1.71-2.17-1.48-.79-2.31-1.73-2.31-2.98,0-2.07,1.79-3.42,3.93-3.42,1.12,0,1.97,.34,2.38,.62l-.52,1.16c-.36-.21-1.09-.55-2.02-.54-1.43,0-2.29,.95-2.29,1.9s.59,1.48,1.79,2.16c1.43,.76,2.23,1.67,2.23,3.1,0,2.02-1.59,3.59-4.19,3.59-1.17,0-2.31-.38-2.79-.79l.52-1.17Z"/><path class="cls-4" d="M146.89,74.02l-1.12,5.92c-.17,.93-.29,1.74-.38,2.43h-1.29l.22-1.57h-.03c-.74,1.09-1.85,1.76-2.95,1.76s-2.19-.52-2.19-2.41c0-.4,.05-.84,.16-1.4l.9-4.73h1.43l-.88,4.66c-.1,.47-.16,.86-.16,1.22,0,.86,.36,1.45,1.35,1.45,1.03,0,2.36-1.21,2.71-3.05l.81-4.28h1.43Z"/><path class="cls-4" d="M147.08,85.78l1.67-8.8c.17-1,.34-2.12,.47-2.97h1.31l-.24,1.57h.03c.76-1.09,1.86-1.76,3-1.76,1.81,0,2.57,1.48,2.57,3.02,0,2.93-2.1,5.71-4.88,5.71-.9,0-1.48-.19-1.81-.38h-.03l-.67,3.6h-1.41Zm2.35-4.81c.36,.29,.91,.47,1.59,.47,1.85,0,3.4-2.29,3.4-4.48,0-.88-.4-1.93-1.6-1.93-1.12,0-2.54,1.29-2.97,3.62l-.41,2.33Z"/><path class="cls-4" d="M156.14,85.78l1.67-8.8c.17-1,.34-2.12,.47-2.97h1.31l-.24,1.57h.03c.76-1.09,1.86-1.76,3-1.76,1.81,0,2.57,1.48,2.57,3.02,0,2.93-2.1,5.71-4.88,5.71-.9,0-1.48-.19-1.81-.38h-.03l-.67,3.6h-1.41Zm2.35-4.81c.36,.29,.91,.47,1.59,.47,1.85,0,3.4-2.29,3.4-4.48,0-.88-.4-1.93-1.6-1.93-1.12,0-2.54,1.29-2.97,3.62l-.41,2.33Z"/><path class="cls-4" d="M165.96,82.36l2.33-12.25h1.43l-2.35,12.25h-1.41Z"/><path class="cls-4" d="M175.91,81.88c-.62,.36-1.64,.65-2.76,.65-2.21,0-3.17-1.5-3.17-3.35,0-2.52,1.86-5.36,4.55-5.36,1.59,0,2.45,.95,2.45,2.14,0,2.19-2.47,2.78-5.55,2.73-.07,.36-.02,1.14,.17,1.59,.33,.74,1,1.12,1.86,1.12,.98,0,1.73-.31,2.24-.59l.21,1.07Zm-1.59-6.93c-1.36,0-2.38,1.33-2.73,2.64,2.24,.02,4-.28,4-1.57,0-.69-.52-1.07-1.28-1.07Z"/><path class="cls-4" d="M177.71,82.36l1.12-5.92c.17-.93,.29-1.74,.38-2.43h1.26l-.22,1.57h.05c.78-1.16,1.83-1.76,2.93-1.76,1.28,0,1.88,.81,1.95,1.86,.74-1.21,1.81-1.85,3.07-1.86,.97,0,2.02,.62,2.02,2.19,0,.4-.05,.95-.14,1.41l-.93,4.93h-1.4l.9-4.81c.07-.31,.12-.74,.12-1.09,0-.88-.33-1.45-1.26-1.45-1.04,0-2.26,1.21-2.6,3.07l-.81,4.28h-1.38l.93-4.9c.07-.36,.1-.69,.1-1.02,0-.71-.19-1.43-1.24-1.43s-2.35,1.38-2.67,3.16l-.78,4.19h-1.4Z"/><path class="cls-4" d="M197.67,81.88c-.62,.36-1.64,.65-2.76,.65-2.21,0-3.17-1.5-3.17-3.35,0-2.52,1.86-5.36,4.55-5.36,1.59,0,2.45,.95,2.45,2.14,0,2.19-2.47,2.78-5.55,2.73-.07,.36-.02,1.14,.17,1.59,.33,.74,1,1.12,1.86,1.12,.98,0,1.73-.31,2.24-.59l.21,1.07Zm-1.59-6.93c-1.36,0-2.38,1.33-2.73,2.64,2.24,.02,4-.28,4-1.57,0-.69-.52-1.07-1.28-1.07Z"/><path class="cls-4" d="M199.46,82.36l1.12-5.92c.19-.93,.29-1.74,.4-2.43h1.28l-.21,1.64h.03c.74-1.17,1.86-1.83,3.09-1.83,1,0,2.12,.57,2.12,2.33,0,.36-.07,.9-.16,1.34l-.93,4.86h-1.43l.91-4.81c.07-.33,.12-.72,.12-1.07,0-.85-.33-1.47-1.31-1.47s-2.47,1.22-2.85,3.29l-.76,4.05h-1.43Z"/><path class="cls-4" d="M212.42,71.77l-.43,2.24h2l-.22,1.12h-2l-.78,4.05c-.09,.47-.16,.9-.16,1.34,0,.5,.24,.79,.79,.79,.24,0,.48-.02,.67-.05l-.07,1.12c-.26,.1-.69,.15-1.1,.15-1.28,0-1.76-.78-1.76-1.62,0-.48,.05-.97,.17-1.57l.83-4.23h-1.21l.22-1.12h1.19l.36-1.88,1.48-.36Z"/></g></svg>