<?xml version="1.0" encoding="UTF-8"?><svg id="Layer_1" xmlns="http://www.w3.org/2000/svg" viewBox="0 0 181.75 75.03"><defs><style>.cls-1{fill:#002f87;}.cls-2{fill:#a2d45e;}</style></defs><g><path class="cls-1" d="M13.1,62.08l-1.03,5.39c-.07,.38-.11,.77-.11,1.15,0,1.16,.67,1.76,1.69,1.76,1.24,0,2.16-.84,2.54-2.88l1.04-5.42h1.12l-1.04,5.44c-.53,2.71-1.88,3.81-3.81,3.81-1.5,0-2.66-.81-2.66-2.69,0-.39,.04-.84,.12-1.26l1.01-5.31h1.12Z"/><path class="cls-1" d="M18.61,71.18l.88-4.63c.15-.73,.23-1.36,.31-1.9h1l-.16,1.28h.03c.58-.92,1.46-1.43,2.42-1.43,.78,0,1.66,.45,1.66,1.82,0,.28-.05,.7-.12,1.05l-.73,3.81h-1.12l.72-3.77c.05-.26,.09-.57,.09-.84,0-.66-.26-1.15-1.03-1.15s-1.93,.96-2.23,2.58l-.59,3.17h-1.12Z"/><path class="cls-1" d="M32.78,61.6l-1.43,7.52c-.13,.67-.24,1.43-.28,2.07h-1.03l.18-1.3h-.03c-.59,.93-1.42,1.44-2.35,1.44-1.27,0-1.96-1.04-1.96-2.38,0-2.32,1.73-4.46,4.04-4.46,.42,0,.88,.09,1.16,.23l.58-3.13h1.12Zm-1.88,4.08c-.23-.15-.61-.27-1.08-.27-1.57,0-2.78,1.66-2.78,3.4,0,.78,.27,1.61,1.23,1.61,.86,0,1.9-.99,2.19-2.46l.45-2.28Z"/><path class="cls-1" d="M37.63,70.81c-.49,.28-1.28,.51-2.16,.51-1.73,0-2.48-1.18-2.48-2.62,0-1.97,1.46-4.2,3.57-4.2,1.24,0,1.92,.74,1.92,1.67,0,1.71-1.93,2.17-4.35,2.13-.05,.28-.01,.89,.13,1.24,.26,.58,.78,.88,1.46,.88,.77,0,1.35-.24,1.76-.46l.16,.84Zm-1.24-5.43c-1.07,0-1.86,1.04-2.13,2.07,1.76,.01,3.13-.22,3.13-1.23,0-.54-.41-.84-1-.84Z"/><path class="cls-1" d="M39.04,71.18l.8-4.21c.16-.85,.27-1.71,.34-2.32h.99c-.05,.46-.11,.92-.17,1.42h.04c.42-.89,1.12-1.57,2-1.57,.09,0,.23,.01,.31,.03l-.22,1.11c-.07-.01-.18-.03-.3-.03-.97,0-1.84,1.17-2.12,2.7l-.54,2.88h-1.12Z"/><path class="cls-1" d="M45.16,64.65l.23,3.67c.05,.81,.04,1.23,.03,1.76h.04c.15-.42,.39-.99,.72-1.63l1.95-3.79h.97l.41,3.73c.07,.72,.12,1.27,.11,1.7h.03c.18-.53,.37-1.03,.62-1.65l1.77-3.78h1.13l-3.23,6.54h-1.04l-.43-3.55c-.07-.61-.09-1.16-.09-1.73h-.03c-.27,.62-.46,1.12-.76,1.7l-1.88,3.58h-1.04l-.61-6.54h1.11Z"/><path class="cls-1" d="M53.16,71.18l.8-4.21c.16-.85,.27-1.71,.34-2.32h.99c-.05,.46-.11,.92-.18,1.42h.04c.42-.89,1.12-1.57,2-1.57,.09,0,.23,.01,.31,.03l-.22,1.11c-.07-.01-.18-.03-.3-.03-.97,0-1.84,1.17-2.12,2.7l-.54,2.88h-1.12Z"/><path class="cls-1" d="M57.45,71.18l1.26-6.54h1.12l-1.26,6.54h-1.12Zm1.46-8.36c0-.43,.34-.76,.74-.76s.66,.3,.66,.7c-.01,.45-.32,.76-.76,.76-.39,0-.65-.3-.65-.7Z"/><path class="cls-1" d="M63.48,62.89l-.34,1.76h1.57l-.18,.88h-1.57l-.61,3.17c-.07,.36-.12,.7-.12,1.05,0,.39,.19,.62,.62,.62,.19,0,.38-.01,.53-.04l-.05,.88c-.2,.08-.54,.12-.86,.12-1,0-1.38-.61-1.38-1.27,0-.38,.04-.76,.13-1.23l.65-3.31h-.95l.18-.88h.93l.28-1.47,1.16-.28Z"/><path class="cls-1" d="M67.7,62.89l-.34,1.76h1.57l-.17,.88h-1.57l-.61,3.17c-.07,.36-.12,.7-.12,1.05,0,.39,.19,.62,.62,.62,.19,0,.38-.01,.53-.04l-.05,.88c-.2,.08-.54,.12-.86,.12-1,0-1.38-.61-1.38-1.27,0-.38,.04-.76,.13-1.23l.65-3.31h-.95l.17-.88h.93l.28-1.47,1.16-.28Z"/><path class="cls-1" d="M73.66,70.81c-.49,.28-1.28,.51-2.16,.51-1.73,0-2.48-1.18-2.48-2.62,0-1.97,1.46-4.2,3.57-4.2,1.24,0,1.92,.74,1.92,1.67,0,1.71-1.93,2.17-4.35,2.13-.05,.28-.01,.89,.13,1.24,.26,.58,.78,.88,1.46,.88,.77,0,1.35-.24,1.76-.46l.16,.84Zm-1.24-5.43c-1.07,0-1.86,1.04-2.13,2.07,1.76,.01,3.13-.22,3.13-1.23,0-.54-.41-.84-1-.84Z"/><path class="cls-1" d="M75.07,71.18l.88-4.63c.15-.73,.23-1.36,.31-1.9h1l-.16,1.28h.03c.58-.92,1.46-1.43,2.42-1.43,.78,0,1.66,.45,1.66,1.82,0,.28-.05,.7-.12,1.05l-.73,3.81h-1.12l.72-3.77c.05-.26,.09-.57,.09-.84,0-.66-.26-1.15-1.03-1.15s-1.93,.96-2.23,2.58l-.59,3.17h-1.12Z"/><path class="cls-1" d="M87.63,61.6l-.86,4.24h.03c.58-.88,1.42-1.34,2.3-1.34,1.43,0,1.97,1.19,1.97,2.35,0,2-1.44,4.48-4.06,4.48-1.15,0-2.01-.47-2.01-1.69,0-.31,.05-.7,.11-1.01l1.42-7.04h1.12Zm-1.42,7.06c-.05,.22-.09,.49-.08,.82,0,.62,.35,.97,1.05,.97,1.69,0,2.71-2.01,2.71-3.46,0-.81-.35-1.57-1.24-1.57-.97,0-1.97,1-2.3,2.54l-.15,.69Z"/><path class="cls-1" d="M93.17,64.65l.65,3.52c.15,.74,.23,1.23,.3,1.71h.03c.18-.42,.37-.88,.7-1.59l1.66-3.65h1.19l-2.44,4.97c-.7,1.42-1.36,2.57-2.25,3.43-.73,.74-1.53,1.05-1.9,1.13l-.27-.96c.28-.11,.76-.28,1.2-.63,.43-.34,.91-.86,1.26-1.5,.05-.11,.05-.19,.04-.3l-1.31-6.14h1.16Z"/><path class="cls-1" d="M100.34,69.78c.49,.34,1.17,.58,1.93,.58,1.03,0,1.97-.61,1.97-1.71,0-.68-.39-1.17-1.34-1.7-1.16-.62-1.81-1.35-1.81-2.34,0-1.62,1.4-2.67,3.08-2.67,.88,0,1.54,.27,1.86,.49l-.41,.9c-.28-.16-.85-.43-1.58-.42-1.12,0-1.8,.74-1.8,1.49s.46,1.16,1.4,1.69c1.12,.59,1.74,1.31,1.74,2.43,0,1.58-1.24,2.81-3.28,2.81-.92,0-1.81-.3-2.19-.62l.41-.92Z"/><path class="cls-1" d="M109.38,62.89l-.34,1.76h1.57l-.17,.88h-1.57l-.61,3.17c-.07,.36-.12,.7-.12,1.05,0,.39,.19,.62,.62,.62,.19,0,.38-.01,.53-.04l-.05,.88c-.2,.08-.54,.12-.86,.12-1,0-1.38-.61-1.38-1.27,0-.38,.04-.76,.13-1.23l.65-3.31h-.95l.17-.88h.93l.28-1.47,1.16-.28Z"/><path class="cls-1" d="M115.01,71.18c0-.39,.07-1.01,.15-1.69h-.03c-.72,1.35-1.61,1.84-2.54,1.84-1.15,0-1.88-.92-1.88-2.16,0-2.27,1.67-4.67,4.52-4.67,.62,0,1.31,.11,1.75,.26l-.66,3.4c-.22,1.13-.31,2.3-.28,3.02h-1.04Zm.73-5.7c-.16-.04-.4-.09-.78-.09-1.69,0-3.07,1.77-3.08,3.58,0,.73,.26,1.45,1.12,1.45,.93,0,2.04-1.22,2.36-2.96l.38-1.97Z"/><path class="cls-1" d="M117.73,71.18l.88-4.63c.15-.73,.23-1.36,.31-1.9h1l-.16,1.28h.03c.58-.92,1.46-1.43,2.42-1.43,.78,0,1.66,.45,1.66,1.82,0,.28-.05,.7-.12,1.05l-.73,3.81h-1.12l.72-3.77c.05-.26,.09-.57,.09-.84,0-.66-.26-1.15-1.03-1.15s-1.93,.96-2.23,2.58l-.59,3.17h-1.12Z"/><path class="cls-1" d="M131.9,61.6l-1.43,7.52c-.13,.67-.24,1.43-.28,2.07h-1.03l.18-1.3h-.03c-.59,.93-1.42,1.44-2.35,1.44-1.27,0-1.96-1.04-1.96-2.38,0-2.32,1.73-4.46,4.04-4.46,.42,0,.88,.09,1.16,.23l.58-3.13h1.12Zm-1.88,4.08c-.23-.15-.61-.27-1.08-.27-1.57,0-2.78,1.66-2.78,3.4,0,.78,.27,1.61,1.23,1.61,.86,0,1.9-.99,2.19-2.46l.45-2.28Z"/><path class="cls-1" d="M136.37,71.18c0-.39,.07-1.01,.15-1.69h-.03c-.72,1.35-1.61,1.84-2.54,1.84-1.15,0-1.88-.92-1.88-2.16,0-2.27,1.67-4.67,4.52-4.67,.62,0,1.31,.11,1.75,.26l-.66,3.4c-.22,1.13-.31,2.3-.28,3.02h-1.04Zm.73-5.7c-.16-.04-.4-.09-.78-.09-1.69,0-3.07,1.77-3.08,3.58,0,.73,.26,1.45,1.12,1.45,.93,0,2.04-1.22,2.36-2.96l.38-1.97Z"/><path class="cls-1" d="M139.09,71.18l.8-4.21c.16-.85,.27-1.71,.34-2.32h.99c-.05,.46-.11,.92-.18,1.42h.04c.42-.89,1.12-1.57,2-1.57,.09,0,.23,.01,.31,.03l-.22,1.11c-.07-.01-.18-.03-.3-.03-.97,0-1.84,1.17-2.12,2.7l-.54,2.88h-1.12Z"/><path class="cls-1" d="M150.26,61.6l-1.43,7.52c-.14,.67-.24,1.43-.28,2.07h-1.03l.18-1.3h-.03c-.59,.93-1.42,1.44-2.35,1.44-1.27,0-1.96-1.04-1.96-2.38,0-2.32,1.73-4.46,4.04-4.46,.42,0,.88,.09,1.16,.23l.58-3.13h1.12Zm-1.88,4.08c-.23-.15-.61-.27-1.08-.27-1.57,0-2.78,1.66-2.78,3.4,0,.78,.27,1.61,1.23,1.61,.86,0,1.9-.99,2.19-2.46l.45-2.28Z"/><path class="cls-1" d="M154.62,62.08h1.12l-1.55,8.13h3.67l-.19,.97h-4.78l1.73-9.1Z"/><path class="cls-1" d="M158.82,71.18l1.26-6.54h1.12l-1.26,6.54h-1.12Zm1.46-8.36c0-.43,.34-.76,.74-.76s.66,.3,.66,.7c-.01,.45-.32,.76-.76,.76-.39,0-.65-.3-.65-.7Z"/><path class="cls-1" d="M162.08,71.18l1.07-5.66h-.86l.16-.88h.88l.07-.34c.15-.92,.47-1.76,1.07-2.28,.4-.38,.99-.58,1.55-.58,.45,0,.74,.08,.89,.18l-.24,.89c-.18-.08-.41-.12-.66-.12-.89,0-1.32,.86-1.51,1.94l-.05,.31h1.46l-.17,.88h-1.45l-1.08,5.66h-1.11Z"/><path class="cls-1" d="M170.45,70.81c-.49,.28-1.28,.51-2.16,.51-1.73,0-2.48-1.18-2.48-2.62,0-1.97,1.46-4.2,3.56-4.2,1.24,0,1.92,.74,1.92,1.67,0,1.71-1.93,2.17-4.35,2.13-.05,.28-.01,.89,.13,1.24,.26,.58,.78,.88,1.46,.88,.77,0,1.35-.24,1.76-.46l.16,.84Zm-1.24-5.43c-1.07,0-1.86,1.04-2.13,2.07,1.76,.01,3.13-.22,3.13-1.23,0-.54-.41-.84-1-.84Z"/></g><g><g><path class="cls-2" d="M.52,.39H8.58V35.55H.52V.39Z"/><path class="cls-2" d="M21.74,8.16h-.1l.49,27.39h-7.43V.39h11.75l5.92,27.39,.1-.1L31.89,.39h7.48V35.55h-11.75l-5.88-27.39Z"/><path class="cls-1" d="M44.99,.39h11.61c5.83,0,8.98,2.14,8.98,8.55v6.12c0,8.4-2.57,10.49-9.81,10.49h-2.72v10h-8.06V.39Zm10.44,18.84c1.17,0,1.8-.63,1.8-2.57V8.21c0-1.17-.44-1.51-1.84-1.51h-2.33v12.53h2.38Z"/><path class="cls-1" d="M68.79,7.24C68.79,1.51,72.48,0,79.22,0s10.44,1.51,10.44,7.24V28.7c0,5.73-3.69,7.23-10.44,7.23s-10.44-1.51-10.44-7.23V7.24Zm12.53,.44c0-1.31-.58-1.65-2.09-1.65s-2.09,.34-2.09,1.65V28.26c0,1.31,.58,1.65,2.09,1.65s2.09-.34,2.09-1.65V7.67Z"/><path class="cls-1" d="M94.03,8.55C94.03,2.91,96.17,0,102.14,0h3.01C112.19,0,114.33,1.94,114.33,6.02v6.41h-7.77V7.82c0-1.07-.73-1.51-2.04-1.51-1.41,0-2.14,.44-2.14,1.51V28.12c0,1.07,.73,1.51,2.09,1.51s2.09-.44,2.09-1.51v-5.54h7.77v5.2c0,6.22-2.38,8.16-9.18,8.16h-3.01c-5.97,0-8.11-2.96-8.11-7.53V8.55Z"/><path class="cls-1" d="M118.8,.39h8.06V15.2l-.05,.1h.1L132.05,.39h8.64l-6.85,16.7,7.72,18.45h-8.64l-6.02-15.68h-.1l.05,.1v15.59h-8.06V.39Z"/><path class="cls-1" d="M144.04,.39h15.49V6.7h-7.43v7.72h6.89v6.02h-6.89v8.79h8.01v6.31h-16.07V.39Z"/><path class="cls-1" d="M168.37,6.7h-5.63V.39h19.33V6.7h-5.63v28.84h-8.06V6.7Z"/></g><g><path class="cls-2" d="M69.9,41.64h-9.7v11.61h3.56v-2.92h7.07c2.52,0,3.27-1.99,3.27-3.72v-.99c0-2.28-.82-3.98-4.2-3.98Zm.55,4.57c0,.69-.32,1.24-1.15,1.24h-5.53v-2.92h5.23c1.07,0,1.46,.45,1.46,1.24v.45Z"/><polygon class="cls-2" points="79.59 41.64 76.02 41.64 76.02 53.25 87.59 53.25 87.59 50.27 79.59 50.27 79.59 41.64"/><path class="cls-2" d="M95.1,41.64l-6.29,11.61h3.98l1.04-2.05h7.22l1.11,2.05h3.96l-6.38-11.61h-4.64Zm.06,7.06l2.25-4.36,2.31,4.36h-4.56Z"/><polygon class="cls-2" points="119.63 50.07 119.6 50.07 112.91 41.64 107.39 41.64 107.39 53.25 110.95 53.25 110.95 44.81 110.98 44.81 117.67 53.25 123.19 53.25 123.19 41.64 119.63 41.64 119.63 50.07"/></g><g><path class="cls-1" d="M7.03,48.8H1.62c-.72,0-1.3-.58-1.3-1.3s.58-1.3,1.3-1.3H7.03c.72,0,1.3,.58,1.3,1.3s-.58,1.3-1.3,1.3Z"/><path class="cls-1" d="M52.3,48.8h-5.41c-.72,0-1.3-.58-1.3-1.3s.58-1.3,1.3-1.3h5.41c.72,0,1.3,.58,1.3,1.3s-.58,1.3-1.3,1.3Z"/><path class="cls-1" d="M18.35,48.8h-5.41c-.72,0-1.3-.58-1.3-1.3s.58-1.3,1.3-1.3h5.41c.72,0,1.3,.58,1.3,1.3s-.58,1.3-1.3,1.3Z"/><path class="cls-1" d="M29.67,48.8h-5.41c-.72,0-1.3-.58-1.3-1.3s.58-1.3,1.3-1.3h5.41c.72,0,1.3,.58,1.3,1.3s-.58,1.3-1.3,1.3Z"/><path class="cls-1" d="M40.99,48.8h-5.41c-.72,0-1.3-.58-1.3-1.3s.58-1.3,1.3-1.3h5.41c.72,0,1.3,.58,1.3,1.3s-.58,1.3-1.3,1.3Z"/></g><g><path class="cls-1" d="M135.3,48.8h-5.41c-.72,0-1.3-.58-1.3-1.3s.58-1.3,1.3-1.3h5.41c.72,0,1.3,.58,1.3,1.3s-.58,1.3-1.3,1.3Z"/><path class="cls-1" d="M180.57,48.8h-5.41c-.72,0-1.3-.58-1.3-1.3s.58-1.3,1.3-1.3h5.41c.72,0,1.3,.58,1.3,1.3s-.58,1.3-1.3,1.3Z"/><path class="cls-1" d="M146.61,48.8h-5.41c-.72,0-1.3-.58-1.3-1.3s.58-1.3,1.3-1.3h5.41c.72,0,1.3,.58,1.3,1.3s-.58,1.3-1.3,1.3Z"/><path class="cls-1" d="M157.93,48.8h-5.41c-.72,0-1.3-.58-1.3-1.3s.58-1.3,1.3-1.3h5.41c.72,0,1.3,.58,1.3,1.3s-.58,1.3-1.3,1.3Z"/><path class="cls-1" d="M169.25,48.8h-5.41c-.72,0-1.3-.58-1.3-1.3s.58-1.3,1.3-1.3h5.41c.72,0,1.3,.58,1.3,1.3s-.58,1.3-1.3,1.3Z"/></g></g></svg>