<?xml version="1.0" encoding="UTF-8"?>
<svg id="Layer_1" data-name="Layer 1" xmlns="http://www.w3.org/2000/svg" viewBox="0 0 245.29 87.01">
  <defs>
    <style>
      .cls-1, .cls-2 {
        fill: none;
        stroke: #fff;
        stroke-linecap: round;
        stroke-miterlimit: 10;
        stroke-width: 1.5px;
      }

      .cls-3 {
        fill: #fff;
      }

      .cls-4 {
        fill: #a2d45e;
      }

      .cls-2 {
        stroke-dasharray: 0 0 3.05 3.05;
      }
    </style>
  </defs>
  <g>
    <rect class="cls-4" x=".37" y="19.12" width="7.1" height="30.96"/>
    <polygon class="cls-4" points="28.51 43.15 28.42 43.24 23.21 19.12 12.86 19.12 12.86 50.08 19.4 50.08 18.97 25.96 19.06 25.96 24.23 50.08 34.58 50.08 34.58 19.12 28 19.12 28.51 43.15"/>
    <path class="cls-3" d="M176.8,40.04c.71,1.23,1.47,2.43,2.31,3.58,.14,.2,.29,.39,.44,.59,.09,.11,.17,.23,.26,.34,3.68-8.82,7.51-20.02,11.64-36.43l39.63,15.7c-4.19,16.94-9.12,28.68-13.95,38.64,.21,.02,.43,.04,.65,.06,.1-.21,.2-.42,.3-.62,1.7-2.67,3.37-5.36,4.97-8.1,1.95-3.35,3.78-6.74,5.5-10.18,1.74-3.48,3.35-6.96,4.84-10.45l.57-1.32-1.33-.55c-.05-.02-.13-.06-.22-.1l-.2-.1c-.82-.43-1.46-1.06-1.91-1.79,.47-1.72,.93-3.49,1.39-5.33l.13-.52-2.35-.93-18-9.43-.66,1.26c-.12,.22-.25,.43-.39,.62l-9.62-3.81c.74-1.92,1.5-3.93,2.27-6.03l37.76,19.78c-6.15,16.95-12.5,28.29-18.52,37.88,1.38,.05,2.79,.08,4.22,.07,5.75-9.32,11.84-20.55,17.7-36.72l1.08-2.97-22.75-11.92L201.07,0l-1.42,3.87c-.45,1.23-.9,2.43-1.34,3.6l-10.34-4.1-.96,3.83-.04,.17c-3.58,14.22-6.94,24.47-10.16,32.66Zm53.45-6.81c-1.12,2.59-2.29,5.12-3.51,7.61,.89-2.61,1.76-5.36,2.62-8.28,.28,.24,.57,.47,.89,.68Z"/>
    <path class="cls-4" d="M226.74,40.83c1.21-2.49,2.38-5.02,3.51-7.61-.32-.21-.61-.43-.89-.68-.85,2.92-1.73,5.67-2.62,8.28Z"/>
    <path class="cls-4" d="M219.08,62.6c1.05,.08,2.12,.13,3.21,.17,6.02-9.59,12.37-20.93,18.52-37.88L203.05,5.12c-.77,2.1-1.53,4.1-2.27,6.03l9.62,3.81c.14-.2,.27-.4,.39-.62l.66-1.26,18,9.43,2.35,.93-.13,.52c-.45,1.83-.92,3.61-1.39,5.33,.45,.74,1.09,1.36,1.91,1.79l.2,.1c.09,.04,.16,.07,.22,.1l1.33,.55-.57,1.32c-1.49,3.49-3.1,6.97-4.84,10.45-1.72,3.44-3.55,6.84-5.5,10.18-1.6,2.74-3.27,5.43-4.97,8.1-.1,.21-.2,.42-.3,.62,.24,.02,.49,.04,.73,.06,.19,.02,.39,.03,.58,.04Z"/>
    <path class="cls-3" d="M220.84,43.68c1.36-3.64,2.6-7.27,3.71-10.9l.42-1.38-1.38-.4c-.06-.02-.13-.04-.23-.07l-.21-.08c-1.26-.5-2.19-1.46-2.69-2.61-.5-1.15-.56-2.49-.06-3.75l.52-1.32-1.32-.52-18.97-7.52-.52,1.32c-.46,1.17-1.33,2.06-2.37,2.58-1.06,.53-2.3,.67-3.49,.34l-1.36-.38-.39,1.35c-1.14,3.95-2.36,7.9-3.69,11.83-1.33,3.93-2.74,7.8-4.27,11.6-.57,1.41-1.16,2.81-1.76,4.21,.3,.31,.62,.62,.95,.94,.14,.13,.28,.27,.42,.4,.16,.15,.32,.29,.48,.44,.27,.24,.48,.43,.69,.61,.57,.49,1.16,.97,1.74,1.42,.6,.46,1.2,.9,1.79,1.31,.81,.56,1.71,1.13,2.65,1.69l.16,.09c.08,.05,.16,.09,.24,.14,.41,.24,.83,.47,1.26,.7h0c.44,.24,.88,.47,1.33,.69,.29,.14,.57,.28,.85,.41h0c.09,.04,.18,.09,.26,.13,.77,.36,1.55,.7,2.32,1.02h.04c.3,.14,.61,.26,.9,.37,.72,.28,1.48,.55,2.26,.82l.15,.05c.07,.02,.13,.05,.2,.07,.08,.03,.16,.05,.23,.08,.85,.28,1.73,.55,2.62,.79h0c.09,.03,.19,.05,.28,.08,.7,.19,1.42,.37,2.14,.55h0c.05,.01,.11,.03,.16,.04,.42,.1,.86,.2,1.3,.29l.26,.03,.11,.05h0c.12,.03,.24,.05,.36,.07,.09,.02,.18,.03,.27,.05l.09,.02c.14,.03,.28,.06,.42,.08,1.05,.2,2.11,.38,3.17,.54,1.23-2.49,2.43-5,3.57-7.54,1.58-3.53,3.05-7.1,4.4-10.71Zm-6.99,9.55c-.32,.71-.65,1.42-.97,2.13-.25-5.98-3.95-11.54-9.87-13.89-5.33-2.11-11.14-1.09-15.36,2.19,1.38-3.5,2.67-7.03,3.86-10.57,1.19-3.54,2.31-7.12,3.37-10.73,1.44,.13,2.87-.15,4.13-.78,1.25-.62,2.33-1.58,3.11-2.8l15.25,6.04c-.31,1.56-.11,3.15,.49,4.55,.7,1.61,1.94,2.98,3.59,3.82-1.02,3.23-2.1,6.39-3.26,9.48-1.32,3.53-2.76,7.05-4.34,10.55Z"/>
    <path class="cls-3" d="M207.37,28.19c-1.55-.61-3.31,.15-3.92,1.7-.61,1.55,.15,3.31,1.7,3.92,1.55,.61,3.31-.15,3.92-1.7,.61-1.55-.15-3.31-1.7-3.92Z"/>
    <path class="cls-4" d="M221.45,33.2c-1.66-.84-2.9-2.21-3.59-3.82-.61-1.4-.8-2.99-.49-4.55l-15.25-6.04c-.77,1.23-1.86,2.18-3.11,2.8-1.26,.63-2.69,.91-4.13,.78-1.06,3.61-2.17,7.19-3.37,10.73-1.2,3.54-2.48,7.07-3.86,10.57,4.23-3.28,10.03-4.31,15.36-2.19,5.93,2.35,9.62,7.91,9.87,13.89,.33-.71,.65-1.42,.97-2.13,1.57-3.5,3.01-7.02,4.34-10.55,1.16-3.1,2.24-6.26,3.26-9.48Zm-12.38-1.09c-.61,1.55-2.37,2.31-3.92,1.7-1.55-.61-2.31-2.37-1.7-3.92,.61-1.55,2.37-2.31,3.92-1.7,1.55,.61,2.31,2.37,1.7,3.92Z"/>
    <path class="cls-4" d="M182.53,47.72c.08,.09,.17,.18,.26,.27,.6-1.39,1.19-2.79,1.76-4.21,1.53-3.8,2.94-7.67,4.27-11.6,1.33-3.93,2.55-7.88,3.69-11.83l.39-1.35,1.36,.38c1.19,.33,2.43,.19,3.49-.34,1.04-.52,1.91-1.41,2.37-2.58l.52-1.32,18.97,7.52,1.32,.52-.52,1.32c-.5,1.26-.44,2.6,.06,3.75,.5,1.15,1.43,2.11,2.69,2.61l.21,.08c.09,.03,.17,.06,.23,.07l1.38,.4-.42,1.38c-1.12,3.63-2.35,7.26-3.71,10.9-1.35,3.61-2.81,7.17-4.4,10.71-1.14,2.54-2.34,5.05-3.57,7.54,.15,.02,.3,.04,.44,.07,.11,.02,.21,.03,.32,.04l.46,.06c.2,.03,.4,.05,.6,.08,.78,.1,1.59,.18,2.43,.26,4.83-9.95,9.76-21.69,13.95-38.64l-39.63-15.7c-4.13,16.41-7.97,27.61-11.64,36.43,.85,1.1,1.77,2.17,2.73,3.18Z"/>
    <path class="cls-3" d="M90.23,50.42h2.65c5.99,0,8.08-1.71,8.08-7.18v-4.58h-6.84v4.88c0,.94-.64,1.33-1.84,1.33s-1.84-.38-1.84-1.33V25.66c0-.94,.64-1.33,1.88-1.33,1.15,0,1.8,.38,1.8,1.33v4.06h6.84v-5.65c0-3.59-1.88-5.3-8.08-5.3h-2.65c-5.26,0-7.14,2.57-7.14,7.53v17.49c0,4.02,1.88,6.63,7.14,6.63Z"/>
    <polygon class="cls-3" points="118.16 33.83 124.19 19.12 116.58 19.12 112.04 32.25 111.96 32.25 112 32.16 112 19.12 104.9 19.12 104.9 50.08 112 50.08 112 36.35 111.96 36.27 112.04 36.27 117.35 50.08 124.96 50.08 118.16 33.83"/>
    <polygon class="cls-3" points="141.29 44.52 134.24 44.52 134.24 36.78 140.31 36.78 140.31 31.48 134.24 31.48 134.24 24.68 140.78 24.68 140.78 19.12 127.14 19.12 127.14 50.08 141.29 50.08 141.29 44.52"/>
    <polygon class="cls-3" points="143.6 24.68 148.56 24.68 148.56 50.08 155.66 50.08 155.66 24.68 160.62 24.68 160.62 19.12 143.6 19.12 143.6 24.68"/>
    <path class="cls-4" d="M61.21,55.34h-8.38v10.03h3.07v-2.52h6.11c2.17,0,2.82-1.72,2.82-3.21v-.86c0-1.97-.71-3.43-3.63-3.43Zm.47,3.95c0,.6-.28,1.07-1,1.07h-4.78v-2.52h4.51c.93,0,1.26,.39,1.26,1.07v.39Z"/>
    <polygon class="cls-4" points="69.58 55.34 66.5 55.34 66.5 65.37 76.49 65.37 76.49 62.79 69.58 62.79 69.58 55.34"/>
    <path class="cls-4" d="M82.97,55.34l-5.43,10.03h3.43l.9-1.77h6.23l.96,1.77h3.42l-5.51-10.03h-4Zm.06,6.09l1.94-3.77,1.99,3.77h-3.93Z"/>
    <polygon class="cls-4" points="104.15 62.62 104.12 62.62 98.34 55.34 93.58 55.34 93.58 65.37 96.66 65.37 96.66 58.08 96.68 58.08 102.46 65.37 107.22 65.37 107.22 55.34 104.15 55.34 104.15 62.62"/>
    <path class="cls-3" d="M166.04,20.43c.08,.92,.89,1.61,1.81,1.53,.92-.08,1.61-.89,1.53-1.81-.01-.17-.05-.34-.12-.49-.27-.66-.95-1.1-1.7-1.04s-1.34,.61-1.5,1.31c-.04,.16-.05,.33-.03,.5Z"/>
    <path class="cls-3" d="M237.52,66.74c.08,.92,.89,1.61,1.81,1.53,.92-.08,1.61-.89,1.53-1.81-.01-.17-.05-.34-.12-.49-.27-.66-.95-1.1-1.7-1.04s-1.34,.61-1.5,1.31c-.04,.16-.05,.33-.03,.5Z"/>
    <g>
      <path class="cls-1" d="M167.82,23.71c0,.5,.03,1,.05,1.5"/>
      <path class="cls-2" d="M168.12,28.25c3.59,31.44,38.12,41.36,64.59,39.36"/>
      <path class="cls-1" d="M234.22,67.48c.5-.05,1-.1,1.49-.15"/>
    </g>
    <path class="cls-3" d="M70.05,18.78c-5.94,0-9.19,1.33-9.19,6.37v18.9c0,5.05,3.25,6.37,9.19,6.37s9.19-1.33,9.19-6.37V25.15c0-5.05-3.25-6.37-9.19-6.37Zm1.84,24.89c0,1.15-.51,1.45-1.84,1.45s-1.84-.3-1.84-1.45V25.53c0-1.15,.51-1.45,1.84-1.45s1.84,.3,1.84,1.45v18.13Z"/>
    <g>
      <path class="cls-3" d="M5.92,61.81H1.56c-.58,0-1.05-.47-1.05-1.05s.47-1.05,1.05-1.05H5.92c.58,0,1.05,.47,1.05,1.05s-.47,1.05-1.05,1.05Z"/>
      <path class="cls-3" d="M42.39,61.81h-4.36c-.58,0-1.05-.47-1.05-1.05s.47-1.05,1.05-1.05h4.36c.58,0,1.05,.47,1.05,1.05s-.47,1.05-1.05,1.05Z"/>
      <path class="cls-3" d="M15.04,61.81h-4.36c-.58,0-1.05-.47-1.05-1.05s.47-1.05,1.05-1.05h4.36c.58,0,1.05,.47,1.05,1.05s-.47,1.05-1.05,1.05Z"/>
      <path class="cls-3" d="M24.16,61.81h-4.36c-.58,0-1.05-.47-1.05-1.05s.47-1.05,1.05-1.05h4.36c.58,0,1.05,.47,1.05,1.05s-.47,1.05-1.05,1.05Z"/>
      <path class="cls-3" d="M33.27,61.81h-4.36c-.58,0-1.05-.47-1.05-1.05s.47-1.05,1.05-1.05h4.36c.58,0,1.05,.47,1.05,1.05s-.47,1.05-1.05,1.05Z"/>
    </g>
    <g>
      <path class="cls-3" d="M123.2,61.81h-4.36c-.58,0-1.05-.47-1.05-1.05s.47-1.05,1.05-1.05h4.36c.58,0,1.05,.47,1.05,1.05s-.47,1.05-1.05,1.05Z"/>
      <path class="cls-3" d="M159.67,61.81h-4.36c-.58,0-1.05-.47-1.05-1.05s.47-1.05,1.05-1.05h4.36c.58,0,1.05,.47,1.05,1.05s-.47,1.05-1.05,1.05Z"/>
      <path class="cls-3" d="M132.32,61.81h-4.36c-.58,0-1.05-.47-1.05-1.05s.47-1.05,1.05-1.05h4.36c.58,0,1.05,.47,1.05,1.05s-.47,1.05-1.05,1.05Z"/>
      <path class="cls-3" d="M141.44,61.81h-4.36c-.58,0-1.05-.47-1.05-1.05s.47-1.05,1.05-1.05h4.36c.58,0,1.05,.47,1.05,1.05s-.47,1.05-1.05,1.05Z"/>
      <path class="cls-3" d="M150.55,61.81h-4.36c-.58,0-1.05-.47-1.05-1.05s.47-1.05,1.05-1.05h4.36c.58,0,1.05,.47,1.05,1.05s-.47,1.05-1.05,1.05Z"/>
    </g>
  </g>
  <g>
    <path class="cls-3" d="M2.86,74.91l-.74,3.83H6.31l.73-3.83h1.13l-1.74,9.1h-1.12l.81-4.28H1.93l-.81,4.28H0l1.74-9.1h1.12Z"/>
    <path class="cls-3" d="M13.14,83.63c-.49,.28-1.28,.51-2.16,.51-1.73,0-2.48-1.17-2.48-2.62,0-1.97,1.46-4.2,3.56-4.2,1.24,0,1.92,.74,1.92,1.67,0,1.71-1.93,2.17-4.35,2.13-.05,.28-.01,.89,.13,1.24,.26,.58,.78,.88,1.46,.88,.77,0,1.35-.24,1.76-.46l.16,.84Zm-1.24-5.43c-1.07,0-1.86,1.04-2.13,2.07,1.76,.01,3.13-.22,3.13-1.23,0-.54-.41-.84-1-.84Z"/>
    <path class="cls-3" d="M18.88,84.01c0-.39,.07-1.01,.15-1.69h-.03c-.72,1.35-1.61,1.84-2.54,1.84-1.15,0-1.88-.92-1.88-2.16,0-2.27,1.67-4.67,4.52-4.67,.62,0,1.31,.11,1.76,.26l-.66,3.4c-.22,1.13-.31,2.29-.28,3.02h-1.04Zm.73-5.7c-.16-.04-.4-.09-.78-.09-1.69,0-3.07,1.77-3.08,3.58,0,.73,.26,1.45,1.12,1.45,.93,0,2.04-1.22,2.36-2.96l.38-1.97Z"/>
    <path class="cls-3" d="M21.61,84.01l1.82-9.59h1.12l-1.84,9.59h-1.11Z"/>
    <path class="cls-3" d="M27.63,75.72l-.34,1.75h1.57l-.18,.88h-1.57l-.61,3.17c-.07,.36-.12,.7-.12,1.05,0,.39,.19,.62,.62,.62,.19,0,.38-.01,.53-.04l-.05,.88c-.2,.08-.54,.12-.86,.12-1,0-1.38-.61-1.38-1.27,0-.38,.04-.76,.13-1.23l.65-3.31h-.95l.18-.88h.93l.28-1.47,1.16-.28Z"/>
    <path class="cls-3" d="M28.92,84.01l1.82-9.59h1.12l-.81,4.21h.03c.55-.8,1.35-1.31,2.34-1.31,.74,0,1.62,.46,1.62,1.76,0,.35-.04,.77-.11,1.11l-.73,3.82h-1.12l.73-3.77c.04-.24,.08-.54,.08-.91,0-.61-.28-1.08-1.01-1.08-.86,0-1.96,1.01-2.23,2.49l-.61,3.27h-1.12Z"/>
    <path class="cls-3" d="M41.47,74.91l-1.73,9.1h-1.12l1.73-9.1h1.12Z"/>
    <path class="cls-3" d="M41.74,84.01l.88-4.63c.15-.73,.23-1.36,.31-1.9h1l-.16,1.28h.03c.58-.92,1.46-1.43,2.42-1.43,.78,0,1.66,.45,1.66,1.82,0,.28-.05,.7-.12,1.05l-.73,3.81h-1.12l.72-3.77c.05-.26,.09-.57,.09-.84,0-.66-.26-1.15-1.03-1.15s-1.93,.96-2.23,2.58l-.59,3.17h-1.12Z"/>
    <path class="cls-3" d="M49.01,82.88c.31,.19,.88,.41,1.4,.41,.76,0,1.24-.49,1.24-1.07,0-.51-.23-.82-.9-1.2-.76-.42-1.17-1-1.17-1.66,0-1.15,.99-2.03,2.36-2.03,.59,0,1.12,.16,1.36,.32l-.31,.85c-.23-.13-.65-.3-1.13-.3-.67,0-1.16,.42-1.16,.99,0,.47,.31,.77,.89,1.09,.73,.42,1.23,.99,1.23,1.72,0,1.38-1.12,2.15-2.5,2.15-.7,0-1.32-.22-1.62-.45l.31-.82Z"/>
    <path class="cls-3" d="M60.37,77.48l-.88,4.63c-.13,.73-.23,1.36-.3,1.9h-1.01l.18-1.23h-.03c-.58,.85-1.44,1.38-2.31,1.38s-1.72-.41-1.72-1.89c0-.31,.04-.66,.12-1.09l.7-3.7h1.12l-.69,3.65c-.08,.36-.12,.67-.12,.96,0,.67,.28,1.13,1.05,1.13,.81,0,1.85-.95,2.12-2.39l.63-3.35h1.12Z"/>
    <path class="cls-3" d="M61.1,84.01l.8-4.21c.16-.85,.27-1.72,.34-2.32h.99c-.05,.46-.11,.92-.18,1.42h.04c.42-.89,1.12-1.57,2-1.57,.09,0,.23,.01,.31,.03l-.22,1.11c-.07-.01-.18-.03-.3-.03-.97,0-1.84,1.17-2.12,2.7l-.54,2.88h-1.12Z"/>
    <path class="cls-3" d="M69.53,84.01c0-.39,.07-1.01,.15-1.69h-.03c-.72,1.35-1.61,1.84-2.54,1.84-1.15,0-1.88-.92-1.88-2.16,0-2.27,1.67-4.67,4.52-4.67,.62,0,1.31,.11,1.76,.26l-.66,3.4c-.22,1.13-.31,2.29-.28,3.02h-1.04Zm.73-5.7c-.16-.04-.4-.09-.78-.09-1.69,0-3.07,1.77-3.08,3.58,0,.73,.26,1.45,1.12,1.45,.93,0,2.04-1.22,2.36-2.96l.38-1.97Z"/>
    <path class="cls-3" d="M72.25,84.01l.88-4.63c.15-.73,.23-1.36,.31-1.9h1l-.16,1.28h.03c.58-.92,1.46-1.43,2.42-1.43,.78,0,1.66,.45,1.66,1.82,0,.28-.05,.7-.12,1.05l-.73,3.81h-1.12l.72-3.77c.05-.26,.09-.57,.09-.84,0-.66-.26-1.15-1.03-1.15s-1.93,.96-2.23,2.58l-.59,3.17h-1.12Z"/>
    <path class="cls-3" d="M83.96,83.76c-.34,.16-1.01,.39-1.89,.39-1.69,0-2.51-1.13-2.51-2.53,0-2.23,1.65-4.28,4-4.28,.61,0,1.16,.18,1.36,.28l-.32,.89c-.26-.12-.62-.24-1.11-.24-1.7,0-2.77,1.67-2.77,3.21,0,1.05,.55,1.74,1.62,1.74,.66,0,1.17-.2,1.51-.36l.11,.89Z"/>
    <path class="cls-3" d="M89.77,83.63c-.49,.28-1.28,.51-2.16,.51-1.73,0-2.48-1.17-2.48-2.62,0-1.97,1.46-4.2,3.56-4.2,1.24,0,1.92,.74,1.92,1.67,0,1.71-1.93,2.17-4.35,2.13-.05,.28-.01,.89,.13,1.24,.26,.58,.78,.88,1.46,.88,.77,0,1.35-.24,1.76-.46l.16,.84Zm-1.24-5.43c-1.07,0-1.86,1.04-2.13,2.07,1.76,.01,3.13-.22,3.13-1.23,0-.54-.41-.84-1-.84Z"/>
    <path class="cls-3" d="M93.82,82.61c.49,.34,1.17,.58,1.93,.58,1.03,0,1.97-.61,1.97-1.71,0-.67-.39-1.17-1.34-1.7-1.16-.62-1.81-1.35-1.81-2.34,0-1.62,1.4-2.67,3.08-2.67,.88,0,1.54,.27,1.86,.49l-.4,.9c-.28-.16-.85-.43-1.58-.42-1.12,0-1.8,.74-1.8,1.49s.46,1.16,1.4,1.69c1.12,.59,1.74,1.31,1.74,2.43,0,1.58-1.24,2.81-3.28,2.81-.92,0-1.81-.3-2.19-.62l.41-.92Z"/>
    <path class="cls-3" d="M106.3,77.48l-.88,4.63c-.13,.73-.23,1.36-.3,1.9h-1.01l.18-1.23h-.03c-.58,.85-1.44,1.38-2.31,1.38s-1.72-.41-1.72-1.89c0-.31,.04-.66,.12-1.09l.7-3.7h1.12l-.69,3.65c-.08,.36-.12,.67-.12,.96,0,.67,.28,1.13,1.05,1.13,.81,0,1.85-.95,2.12-2.39l.63-3.35h1.12Z"/>
    <path class="cls-3" d="M106.45,86.69l1.31-6.89c.13-.78,.27-1.66,.36-2.32h1.03l-.19,1.23h.03c.59-.85,1.46-1.38,2.35-1.38,1.42,0,2.01,1.16,2.01,2.36,0,2.3-1.65,4.47-3.82,4.47-.7,0-1.16-.15-1.42-.3h-.03l-.53,2.82h-1.11Zm1.84-3.77c.28,.23,.72,.36,1.24,.36,1.44,0,2.66-1.8,2.66-3.51,0-.69-.31-1.51-1.26-1.51-.88,0-1.98,1.01-2.32,2.84l-.32,1.82Z"/>
    <path class="cls-3" d="M113.54,86.69l1.31-6.89c.13-.78,.27-1.66,.36-2.32h1.03l-.19,1.23h.03c.59-.85,1.46-1.38,2.35-1.38,1.42,0,2.01,1.16,2.01,2.36,0,2.3-1.65,4.47-3.82,4.47-.7,0-1.16-.15-1.42-.3h-.03l-.53,2.82h-1.11Zm1.84-3.77c.28,.23,.72,.36,1.24,.36,1.44,0,2.66-1.8,2.66-3.51,0-.69-.31-1.51-1.26-1.51-.88,0-1.98,1.01-2.32,2.84l-.32,1.82Z"/>
    <path class="cls-3" d="M121.23,84.01l1.82-9.59h1.12l-1.84,9.59h-1.11Z"/>
    <path class="cls-3" d="M129.02,83.63c-.49,.28-1.28,.51-2.16,.51-1.73,0-2.48-1.17-2.48-2.62,0-1.97,1.46-4.2,3.56-4.2,1.24,0,1.92,.74,1.92,1.67,0,1.71-1.93,2.17-4.35,2.13-.05,.28-.01,.89,.13,1.24,.26,.58,.78,.88,1.46,.88,.77,0,1.35-.24,1.76-.46l.16,.84Zm-1.24-5.43c-1.07,0-1.86,1.04-2.13,2.07,1.76,.01,3.13-.22,3.13-1.23,0-.54-.41-.84-1-.84Z"/>
    <path class="cls-3" d="M130.43,84.01l.88-4.63c.13-.73,.23-1.36,.3-1.9h.99l-.17,1.23h.04c.61-.91,1.43-1.38,2.3-1.38,1,0,1.47,.63,1.53,1.46,.58-.95,1.42-1.45,2.4-1.46,.76,0,1.58,.49,1.58,1.71,0,.31-.04,.74-.11,1.11l-.73,3.86h-1.09l.7-3.77c.05-.24,.09-.58,.09-.85,0-.69-.26-1.13-.99-1.13-.81,0-1.77,.95-2.04,2.4l-.63,3.35h-1.08l.73-3.83c.05-.28,.08-.54,.08-.8,0-.55-.15-1.12-.97-1.12s-1.84,1.08-2.09,2.47l-.61,3.28h-1.09Z"/>
    <path class="cls-3" d="M146.06,83.63c-.49,.28-1.28,.51-2.16,.51-1.73,0-2.48-1.17-2.48-2.62,0-1.97,1.46-4.2,3.56-4.2,1.24,0,1.92,.74,1.92,1.67,0,1.71-1.93,2.17-4.35,2.13-.05,.28-.01,.89,.13,1.24,.26,.58,.78,.88,1.46,.88,.77,0,1.35-.24,1.76-.46l.16,.84Zm-1.24-5.43c-1.07,0-1.86,1.04-2.13,2.07,1.76,.01,3.13-.22,3.13-1.23,0-.54-.41-.84-1-.84Z"/>
    <path class="cls-3" d="M147.47,84.01l.88-4.63c.15-.73,.23-1.36,.31-1.9h1l-.16,1.28h.03c.58-.92,1.46-1.43,2.42-1.43,.78,0,1.66,.45,1.66,1.82,0,.28-.05,.7-.12,1.05l-.73,3.81h-1.12l.72-3.77c.05-.26,.09-.57,.09-.84,0-.66-.26-1.15-1.03-1.15s-1.93,.96-2.23,2.58l-.59,3.17h-1.12Z"/>
    <path class="cls-3" d="M157.61,75.72l-.34,1.75h1.57l-.18,.88h-1.57l-.61,3.17c-.07,.36-.12,.7-.12,1.05,0,.39,.19,.62,.62,.62,.19,0,.38-.01,.53-.04l-.05,.88c-.2,.08-.54,.12-.86,.12-1,0-1.38-.61-1.38-1.27,0-.38,.04-.76,.13-1.23l.65-3.31h-.95l.18-.88h.93l.28-1.47,1.16-.28Z"/>
    <path class="cls-3" d="M164.26,74.42l-.86,4.24h.03c.58-.88,1.42-1.34,2.3-1.34,1.43,0,1.97,1.19,1.97,2.35,0,2-1.45,4.48-4.07,4.48-1.15,0-2.01-.47-2.01-1.69,0-.31,.05-.7,.11-1.01l1.42-7.04h1.12Zm-1.42,7.06c-.05,.22-.09,.49-.08,.82,0,.62,.35,.97,1.05,.97,1.69,0,2.71-2.01,2.71-3.46,0-.81-.35-1.57-1.24-1.57-.97,0-1.97,1-2.3,2.54l-.15,.69Z"/>
    <path class="cls-3" d="M169.8,77.48l.65,3.52c.15,.74,.23,1.23,.3,1.72h.03c.18-.42,.37-.88,.7-1.59l1.66-3.65h1.19l-2.44,4.97c-.7,1.42-1.36,2.57-2.25,3.43-.73,.74-1.53,1.05-1.9,1.13l-.27-.96c.28-.11,.76-.28,1.2-.63,.43-.34,.91-.86,1.26-1.5,.05-.11,.05-.19,.04-.3l-1.31-6.14h1.16Z"/>
    <path class="cls-3" d="M184.45,84.01l.65-4.92c.12-.86,.32-2.2,.5-3.08h-.05c-.42,.92-.92,2-1.42,2.93l-2.7,5.01h-.86l-.68-4.9c-.13-1.05-.23-2.11-.28-3.04h-.03c-.2,.84-.49,2.21-.7,3.08l-1.24,4.92h-1.05l2.36-9.1h1.43l.72,5.23c.09,.77,.2,1.59,.22,2.27h.04c.28-.67,.67-1.49,1.07-2.24l2.82-5.25h1.46l-1.16,9.1h-1.08Z"/>
    <path class="cls-3" d="M188.7,84.01l-.45-9.1h1.13l.19,5.46c.04,1.17,.01,1.8,0,2.38h.03c.22-.59,.43-1.19,.95-2.31l2.51-5.52h1.2l.19,5.24c.04,1.17,.04,1.97,.03,2.57h.03c.27-.78,.54-1.51,.89-2.34l2.44-5.47h1.17l-4.23,9.1h-1.17l-.24-5.17c-.04-1.07-.03-1.58,.03-2.62h-.04c-.3,.86-.54,1.57-.92,2.39l-2.54,5.4h-1.2Z"/>
    <path class="cls-3" d="M205.25,83.62c-.53,.22-1.5,.49-2.57,.49-1.28,0-2.28-.37-2.97-1.13s-.92-1.75-.92-2.66c0-1.51,.61-3.09,1.78-4.15,.97-.85,2.28-1.35,3.74-1.35,1.12,0,1.88,.26,2.15,.42l-.36,.95c-.47-.23-1.09-.39-1.92-.39-1.08,0-2.07,.39-2.82,1.11-.85,.8-1.36,2.09-1.36,3.33,0,1.76,.88,2.92,2.9,2.92,.54,0,1.05-.11,1.39-.26l.51-2.71h-1.85l.17-.92h2.94l-.82,4.36Z"/>
  </g>
  <path class="cls-3" d="M50.12,19.12h-10.22v30.96h7.1v-8.81h2.39c6.37,0,8.64-1.84,8.64-9.24v-5.39c0-5.65-2.78-7.53-7.91-7.53Zm.56,14.33c0,1.71-.56,2.27-1.58,2.27h-2.1v-11.03h2.05c1.24,0,1.63,.3,1.63,1.33v7.44Z"/>
</svg>