<?xml version="1.0" encoding="UTF-8"?><svg id="Layer_1" xmlns="http://www.w3.org/2000/svg" viewBox="0 0 206.47 81.52"><defs><style>.cls-1{fill:#002f87;}.cls-2{fill:#fff;}.cls-3{fill:#a2d45e;}</style></defs><g><rect class="cls-3" x=".37" y=".44" width="9.12" height="39.8"/><polygon class="cls-3" points="35.88 .44 36.54 31.33 36.43 31.44 29.72 .44 16.42 .44 16.42 40.24 24.83 40.24 24.28 9.23 24.39 9.23 31.04 40.24 44.34 40.24 44.34 .44 35.88 .44"/></g><path class="cls-3" d="M78.57,46.99h-10.77v12.89h3.95v-3.24h7.85c2.79,0,3.63-2.21,3.63-4.13v-1.1c0-2.53-.91-4.41-4.66-4.41Zm.6,5.07c0,.77-.36,1.37-1.28,1.37h-6.14v-3.24h5.8c1.19,0,1.62,.5,1.62,1.37v.5Z"/><polygon class="cls-3" points="89.32 46.99 85.37 46.99 85.37 59.88 98.21 59.88 98.21 56.57 89.32 56.57 89.32 46.99"/><path class="cls-3" d="M106.54,46.99l-6.98,12.89h4.41l1.16-2.28h8.01l1.23,2.28h4.4l-7.08-12.89h-5.14Zm.07,7.83l2.49-4.84,2.56,4.84h-5.05Z"/><polygon class="cls-3" points="133.76 56.36 133.72 56.36 126.3 46.99 120.18 46.99 120.18 59.88 124.13 59.88 124.13 50.52 124.16 50.52 131.58 59.88 137.71 59.88 137.71 46.99 133.76 46.99 133.76 56.36"/><g><path class="cls-2" d="M7.5,55.32H1.9c-.74,0-1.35-.6-1.35-1.35s.6-1.35,1.35-1.35H7.5c.74,0,1.35,.6,1.35,1.35s-.6,1.35-1.35,1.35Z"/><path class="cls-2" d="M54.38,55.32h-5.6c-.74,0-1.35-.6-1.35-1.35s.6-1.35,1.35-1.35h5.6c.74,0,1.35,.6,1.35,1.35s-.6,1.35-1.35,1.35Z"/><path class="cls-2" d="M19.22,55.32h-5.6c-.74,0-1.35-.6-1.35-1.35s.6-1.35,1.35-1.35h5.6c.74,0,1.35,.6,1.35,1.35s-.6,1.35-1.35,1.35Z"/><path class="cls-2" d="M30.94,55.32h-5.6c-.74,0-1.35-.6-1.35-1.35s.6-1.35,1.35-1.35h5.6c.74,0,1.35,.6,1.35,1.35s-.6,1.35-1.35,1.35Z"/><path class="cls-2" d="M42.66,55.32h-5.6c-.74,0-1.35-.6-1.35-1.35s.6-1.35,1.35-1.35h5.6c.74,0,1.35,.6,1.35,1.35s-.6,1.35-1.35,1.35Z"/><path class="cls-2" d="M158.24,55.32h-5.6c-.74,0-1.35-.6-1.35-1.35s.6-1.35,1.35-1.35h5.6c.74,0,1.35,.6,1.35,1.35s-.6,1.35-1.35,1.35Z"/><path class="cls-2" d="M205.12,55.32h-5.6c-.74,0-1.35-.6-1.35-1.35s.6-1.35,1.35-1.35h5.6c.74,0,1.35,.6,1.35,1.35s-.6,1.35-1.35,1.35Z"/><path class="cls-2" d="M169.96,55.32h-5.6c-.74,0-1.35-.6-1.35-1.35s.6-1.35,1.35-1.35h5.6c.74,0,1.35,.6,1.35,1.35s-.6,1.35-1.35,1.35Z"/><path class="cls-2" d="M181.68,55.32h-5.6c-.74,0-1.35-.6-1.35-1.35s.6-1.35,1.35-1.35h5.6c.74,0,1.35,.6,1.35,1.35s-.6,1.35-1.35,1.35Z"/><path class="cls-2" d="M193.4,55.32h-5.6c-.74,0-1.35-.6-1.35-1.35s.6-1.35,1.35-1.35h5.6c.74,0,1.35,.6,1.35,1.35s-.6,1.35-1.35,1.35Z"/></g><g><path class="cls-2" d="M119.28,0h-3.41C109.11,0,106.69,3.3,106.69,9.67v22.48c0,5.17,2.42,8.52,9.18,8.52h3.41c7.7,0,10.39-2.2,10.39-9.23v-5.88h-8.79v6.27c0,1.21-.82,1.7-2.36,1.7s-2.36-.49-2.36-1.7V8.85c0-1.21,.82-1.7,2.42-1.7,1.48,0,2.31,.49,2.31,1.7v5.22h8.79V6.82C129.67,2.2,127.25,0,119.28,0Z"/><polygon class="cls-2" points="159.51 .44 149.73 .44 143.9 17.31 143.79 17.31 143.85 17.2 143.85 .44 134.72 .44 134.72 40.24 143.85 40.24 143.85 22.59 143.79 22.48 143.9 22.48 150.72 40.24 160.5 40.24 151.76 19.35 159.51 .44"/><polygon class="cls-2" points="172.43 23.14 180.24 23.14 180.24 16.33 172.43 16.33 172.43 7.59 180.84 7.59 180.84 .44 163.31 .44 163.31 40.24 181.5 40.24 181.5 33.09 172.43 33.09 172.43 23.14"/><polygon class="cls-2" points="184.47 .44 184.47 7.59 190.84 7.59 190.84 40.24 199.97 40.24 199.97 7.59 206.35 7.59 206.35 .44 184.47 .44"/><path class="cls-2" d="M89.93,0C82.29,0,78.11,1.7,78.11,8.19v24.3c0,6.49,4.18,8.19,11.82,8.19s11.82-1.7,11.82-8.19V8.19C101.75,1.7,97.57,0,89.93,0Zm2.36,31.99c0,1.48-.66,1.87-2.36,1.87s-2.36-.38-2.36-1.87V8.69c0-1.48,.66-1.87,2.36-1.87s2.36,.38,2.36,1.87V31.99Z"/><path class="cls-2" d="M64.31,.44h-13.14V40.24h9.12v-11.32h3.08c8.19,0,11.1-2.36,11.1-11.87v-6.93c0-7.26-3.57-9.67-10.17-9.67Zm.71,18.41c0,2.2-.71,2.91-2.03,2.91h-2.69V7.59h2.64c1.59,0,2.09,.38,2.09,1.7v9.56Z"/></g><g><path class="cls-1" d="M4.19,66.15l-.96,4.97h5.42l.94-4.97h1.47l-2.26,11.79h-1.45l1.05-5.55H2.98l-1.05,5.55H.48l2.26-11.79h1.45Z"/><path class="cls-1" d="M17.51,77.45c-.63,.37-1.66,.66-2.8,.66-2.24,0-3.22-1.52-3.22-3.39,0-2.55,1.89-5.44,4.62-5.44,1.61,0,2.48,.96,2.48,2.17,0,2.22-2.5,2.82-5.63,2.76-.07,.37-.02,1.15,.17,1.61,.33,.75,1.01,1.14,1.89,1.14,1,0,1.75-.32,2.27-.6l.21,1.09Zm-1.61-7.03c-1.38,0-2.41,1.35-2.76,2.68,2.27,.02,4.06-.28,4.06-1.59,0-.7-.53-1.08-1.29-1.08Z"/><path class="cls-1" d="M24.94,77.94c0-.51,.09-1.31,.19-2.19h-.03c-.93,1.75-2.08,2.38-3.29,2.38-1.49,0-2.43-1.19-2.43-2.8,0-2.94,2.17-6.05,5.86-6.05,.8,0,1.7,.14,2.27,.33l-.86,4.41c-.28,1.47-.4,2.97-.37,3.92h-1.35Zm.94-7.38c-.21-.05-.52-.12-1.01-.12-2.19,0-3.97,2.29-3.99,4.64,0,.95,.33,1.87,1.45,1.87,1.21,0,2.64-1.58,3.06-3.83l.49-2.55Z"/><path class="cls-1" d="M28.48,77.94l2.36-12.42h1.45l-2.38,12.42h-1.43Z"/><path class="cls-1" d="M36.27,67.2l-.44,2.27h2.03l-.23,1.14h-2.03l-.79,4.11c-.09,.47-.16,.91-.16,1.36,0,.51,.25,.8,.81,.8,.24,0,.49-.02,.68-.05l-.07,1.14c-.26,.11-.7,.16-1.12,.16-1.29,0-1.78-.79-1.78-1.64,0-.49,.05-.98,.17-1.59l.84-4.29h-1.22l.23-1.14h1.21l.37-1.91,1.5-.37Z"/><path class="cls-1" d="M37.95,77.94l2.36-12.42h1.45l-1.05,5.46h.03c.72-1.03,1.75-1.7,3.03-1.7,.96,0,2.1,.59,2.1,2.27,0,.45-.05,1-.14,1.43l-.94,4.95h-1.45l.94-4.88c.05-.32,.11-.7,.11-1.17,0-.79-.37-1.4-1.31-1.4-1.12,0-2.54,1.31-2.89,3.22l-.79,4.23h-1.45Z"/><path class="cls-1" d="M54.21,66.15l-2.24,11.79h-1.45l2.24-11.79h1.45Z"/><path class="cls-1" d="M54.56,77.94l1.14-6c.19-.95,.3-1.77,.4-2.47h1.29l-.21,1.66h.03c.75-1.19,1.89-1.85,3.13-1.85,1.01,0,2.15,.58,2.15,2.36,0,.37-.07,.91-.16,1.36l-.94,4.93h-1.45l.93-4.88c.07-.33,.12-.74,.12-1.08,0-.86-.33-1.49-1.33-1.49s-2.5,1.24-2.89,3.34l-.77,4.11h-1.45Z"/><path class="cls-1" d="M63.98,76.47c.4,.25,1.14,.53,1.82,.53,.98,0,1.61-.63,1.61-1.38,0-.67-.3-1.07-1.17-1.56-.98-.54-1.52-1.29-1.52-2.15,0-1.49,1.28-2.62,3.06-2.62,.77,0,1.45,.21,1.77,.42l-.4,1.1c-.3-.17-.84-.38-1.47-.38-.87,0-1.5,.54-1.5,1.28,0,.61,.4,1,1.15,1.42,.95,.54,1.59,1.28,1.59,2.22,0,1.78-1.45,2.78-3.24,2.78-.91,0-1.71-.28-2.1-.58l.4-1.07Z"/><path class="cls-1" d="M78.69,69.47l-1.14,6c-.17,.95-.3,1.77-.38,2.47h-1.31l.23-1.59h-.03c-.75,1.1-1.87,1.78-2.99,1.78s-2.22-.53-2.22-2.45c0-.4,.05-.86,.16-1.42l.91-4.79h1.45l-.89,4.72c-.1,.47-.16,.87-.16,1.24,0,.87,.37,1.47,1.36,1.47,1.05,0,2.4-1.22,2.75-3.1l.82-4.34h1.45Z"/><path class="cls-1" d="M79.64,77.94l1.03-5.46c.21-1.1,.35-2.22,.44-3.01h1.28c-.07,.59-.14,1.19-.23,1.84h.05c.54-1.16,1.45-2.03,2.59-2.03,.12,0,.3,.02,.4,.04l-.28,1.43c-.09-.02-.23-.04-.39-.04-1.26,0-2.38,1.52-2.75,3.5l-.7,3.73h-1.45Z"/><path class="cls-1" d="M90.56,77.94c0-.51,.09-1.31,.19-2.19h-.03c-.93,1.75-2.08,2.38-3.29,2.38-1.49,0-2.43-1.19-2.43-2.8,0-2.94,2.17-6.05,5.86-6.05,.8,0,1.7,.14,2.27,.33l-.86,4.41c-.28,1.47-.4,2.97-.37,3.92h-1.35Zm.94-7.38c-.21-.05-.52-.12-1.01-.12-2.19,0-3.97,2.29-3.99,4.64,0,.95,.33,1.87,1.45,1.87,1.21,0,2.64-1.58,3.06-3.83l.49-2.55Z"/><path class="cls-1" d="M94.08,77.94l1.14-6c.19-.95,.3-1.77,.4-2.47h1.29l-.21,1.66h.03c.75-1.19,1.89-1.85,3.13-1.85,1.01,0,2.15,.58,2.15,2.36,0,.37-.07,.91-.16,1.36l-.94,4.93h-1.45l.93-4.88c.07-.33,.12-.74,.12-1.08,0-.86-.33-1.49-1.33-1.49s-2.5,1.24-2.89,3.34l-.77,4.11h-1.45Z"/><path class="cls-1" d="M109.25,77.61c-.44,.21-1.31,.51-2.45,.51-2.19,0-3.25-1.47-3.25-3.27,0-2.89,2.13-5.55,5.18-5.55,.79,0,1.5,.23,1.77,.37l-.42,1.16c-.33-.16-.8-.32-1.43-.32-2.2,0-3.59,2.17-3.59,4.16,0,1.37,.72,2.26,2.1,2.26,.86,0,1.52-.26,1.96-.47l.14,1.15Z"/><path class="cls-1" d="M116.78,77.45c-.63,.37-1.66,.66-2.8,.66-2.24,0-3.22-1.52-3.22-3.39,0-2.55,1.89-5.44,4.62-5.44,1.61,0,2.48,.96,2.48,2.17,0,2.22-2.5,2.82-5.63,2.76-.07,.37-.02,1.15,.17,1.61,.33,.75,1.01,1.14,1.89,1.14,1,0,1.75-.32,2.27-.6l.21,1.09Zm-1.61-7.03c-1.38,0-2.41,1.35-2.76,2.68,2.27,.02,4.06-.28,4.06-1.59,0-.7-.53-1.08-1.29-1.08Z"/><path class="cls-1" d="M122.03,76.12c.63,.44,1.52,.75,2.5,.75,1.33,0,2.55-.79,2.55-2.22,0-.87-.51-1.52-1.73-2.2-1.5-.8-2.34-1.75-2.34-3.03,0-2.1,1.82-3.46,3.99-3.46,1.14,0,1.99,.35,2.41,.63l-.52,1.17c-.37-.21-1.1-.56-2.05-.54-1.45,0-2.33,.96-2.33,1.92s.59,1.51,1.82,2.19c1.45,.77,2.26,1.7,2.26,3.15,0,2.05-1.61,3.64-4.25,3.64-1.19,0-2.34-.38-2.83-.8l.53-1.19Z"/><path class="cls-1" d="M138.2,69.47l-1.14,6c-.17,.95-.3,1.77-.38,2.47h-1.31l.23-1.59h-.03c-.75,1.1-1.87,1.78-2.99,1.78s-2.22-.53-2.22-2.45c0-.4,.05-.86,.16-1.42l.91-4.79h1.45l-.89,4.72c-.11,.47-.16,.87-.16,1.24,0,.87,.37,1.47,1.36,1.47,1.05,0,2.4-1.22,2.75-3.1l.82-4.34h1.45Z"/><path class="cls-1" d="M138.39,81.41l1.7-8.92c.17-1.01,.35-2.15,.47-3.01h1.33l-.24,1.59h.04c.77-1.1,1.89-1.79,3.04-1.79,1.84,0,2.61,1.5,2.61,3.06,0,2.97-2.13,5.79-4.95,5.79-.91,0-1.5-.19-1.84-.38h-.03l-.68,3.66h-1.43Zm2.38-4.88c.37,.3,.93,.47,1.61,.47,1.87,0,3.45-2.33,3.45-4.55,0-.89-.4-1.96-1.63-1.96-1.14,0-2.57,1.31-3.01,3.67l-.42,2.36Z"/><path class="cls-1" d="M147.58,81.41l1.7-8.92c.17-1.01,.35-2.15,.47-3.01h1.33l-.24,1.59h.04c.77-1.1,1.89-1.79,3.04-1.79,1.84,0,2.61,1.5,2.61,3.06,0,2.97-2.13,5.79-4.95,5.79-.91,0-1.5-.19-1.84-.38h-.03l-.68,3.66h-1.43Zm2.38-4.88c.37,.3,.93,.47,1.61,.47,1.87,0,3.45-2.33,3.45-4.55,0-.89-.4-1.96-1.63-1.96-1.14,0-2.57,1.31-3.01,3.67l-.42,2.36Z"/><path class="cls-1" d="M157.54,77.94l2.36-12.42h1.45l-2.38,12.42h-1.43Z"/><path class="cls-1" d="M167.63,77.45c-.63,.37-1.66,.66-2.8,.66-2.24,0-3.22-1.52-3.22-3.39,0-2.55,1.89-5.44,4.62-5.44,1.61,0,2.48,.96,2.48,2.17,0,2.22-2.5,2.82-5.63,2.76-.07,.37-.02,1.15,.17,1.61,.33,.75,1.01,1.14,1.89,1.14,1,0,1.75-.32,2.27-.6l.21,1.09Zm-1.61-7.03c-1.38,0-2.41,1.35-2.76,2.68,2.27,.02,4.06-.28,4.06-1.59,0-.7-.53-1.08-1.3-1.08Z"/><path class="cls-1" d="M169.46,77.94l1.14-6c.17-.95,.3-1.77,.38-2.47h1.28l-.23,1.59h.05c.79-1.17,1.85-1.79,2.97-1.79,1.29,0,1.91,.82,1.98,1.89,.75-1.22,1.84-1.87,3.11-1.89,.98,0,2.05,.63,2.05,2.22,0,.4-.05,.96-.14,1.43l-.95,5h-1.42l.91-4.88c.07-.32,.12-.75,.12-1.1,0-.89-.33-1.47-1.28-1.47-1.05,0-2.29,1.22-2.64,3.11l-.82,4.34h-1.4l.94-4.97c.07-.37,.11-.7,.11-1.03,0-.72-.19-1.45-1.26-1.45s-2.38,1.4-2.71,3.2l-.79,4.25h-1.42Z"/><path class="cls-1" d="M189.7,77.45c-.63,.37-1.66,.66-2.8,.66-2.24,0-3.22-1.52-3.22-3.39,0-2.55,1.89-5.44,4.62-5.44,1.61,0,2.48,.96,2.48,2.17,0,2.22-2.5,2.82-5.63,2.76-.07,.37-.02,1.15,.17,1.61,.33,.75,1.01,1.14,1.89,1.14,1,0,1.75-.32,2.27-.6l.21,1.09Zm-1.61-7.03c-1.38,0-2.41,1.35-2.76,2.68,2.27,.02,4.06-.28,4.06-1.59,0-.7-.53-1.08-1.3-1.08Z"/><path class="cls-1" d="M191.53,77.94l1.14-6c.19-.95,.3-1.77,.4-2.47h1.29l-.21,1.66h.04c.75-1.19,1.89-1.85,3.13-1.85,1.01,0,2.15,.58,2.15,2.36,0,.37-.07,.91-.16,1.36l-.94,4.93h-1.45l.93-4.88c.07-.33,.12-.74,.12-1.08,0-.86-.33-1.49-1.33-1.49s-2.5,1.24-2.89,3.34l-.77,4.11h-1.45Z"/><path class="cls-1" d="M204.67,67.2l-.44,2.27h2.03l-.23,1.14h-2.03l-.79,4.11c-.09,.47-.16,.91-.16,1.36,0,.51,.25,.8,.81,.8,.24,0,.49-.02,.68-.05l-.07,1.14c-.26,.11-.7,.16-1.12,.16-1.3,0-1.79-.79-1.79-1.64,0-.49,.05-.98,.17-1.59l.84-4.29h-1.22l.23-1.14h1.21l.37-1.91,1.51-.37Z"/></g></svg>