<?xml version="1.0" encoding="UTF-8"?><svg id="Layer_1" xmlns="http://www.w3.org/2000/svg" viewBox="0 0 262.81 77.31"><defs><style>.cls-1,.cls-2{fill:none;stroke:#fff;stroke-linecap:round;stroke-miterlimit:10;stroke-width:1.5px;}.cls-3{fill:#002f87;}.cls-4{fill:#fff;}.cls-5{fill:#a2d45e;}.cls-2{stroke-dasharray:0 0 3.05 3.05;}</style></defs><g><rect class="cls-3" x="1.5" y="8.67" width="259.81" height="67.15"/><path class="cls-4" d="M259.81,10.17V74.31H3V10.17H259.81m3-3H0V77.31H262.81V7.17h0Z"/></g><path class="cls-3" d="M60.16,24.68h-2.05v11.03h2.1c1.03,0,1.58-.56,1.58-2.27v-7.44c0-1.03-.38-1.33-1.63-1.33Z"/><g><rect class="cls-5" x="11.48" y="19.12" width="7.1" height="30.96"/><polygon class="cls-5" points="39.11 19.12 39.62 43.15 39.54 43.24 34.32 19.12 23.97 19.12 23.97 50.08 30.51 50.08 30.09 25.96 30.17 25.96 35.35 50.08 45.7 50.08 45.7 19.12 39.11 19.12"/></g><g><path class="cls-4" d="M61.23,19.12h-10.22v30.96h7.1v-8.81h2.39c6.37,0,8.64-1.84,8.64-9.24v-5.39c0-5.65-2.78-7.53-7.91-7.53Zm.56,14.33c0,1.71-.56,2.27-1.58,2.27h-2.1v-11.03h2.05c1.24,0,1.63,.3,1.63,1.33v7.44Z"/><path class="cls-4" d="M81.16,18.78c-5.94,0-9.19,1.33-9.19,6.37v18.9c0,5.05,3.25,6.37,9.19,6.37s9.19-1.33,9.19-6.37V25.15c0-5.05-3.25-6.37-9.19-6.37Zm1.84,24.89c0,1.15-.51,1.45-1.84,1.45s-1.84-.3-1.84-1.45V25.53c0-1.15,.51-1.45,1.84-1.45s1.84,.3,1.84,1.45v18.13Z"/><path class="cls-4" d="M104,18.78h-2.65c-5.26,0-7.14,2.57-7.14,7.53v17.49c0,4.02,1.88,6.63,7.14,6.63h2.65c5.99,0,8.08-1.71,8.08-7.18v-4.58h-6.84v4.88c0,.94-.64,1.33-1.84,1.33s-1.84-.38-1.84-1.33V25.66c0-.94,.64-1.33,1.88-1.33,1.15,0,1.8,.38,1.8,1.33v4.06h6.84v-5.65c0-3.59-1.88-5.3-8.08-5.3Z"/><polygon class="cls-4" points="135.3 19.12 127.69 19.12 123.16 32.25 123.07 32.25 123.11 32.16 123.11 19.12 116.01 19.12 116.01 50.08 123.11 50.08 123.11 36.35 123.07 36.27 123.16 36.27 128.46 50.08 136.07 50.08 129.27 33.83 135.3 19.12"/><polygon class="cls-4" points="145.35 36.78 151.42 36.78 151.42 31.48 145.35 31.48 145.35 24.68 151.89 24.68 151.89 19.12 138.25 19.12 138.25 50.08 152.41 50.08 152.41 44.52 145.35 44.52 145.35 36.78"/><polygon class="cls-4" points="154.72 19.12 154.72 24.68 159.68 24.68 159.68 50.08 166.78 50.08 166.78 24.68 171.74 24.68 171.74 19.12 154.72 19.12"/></g><g><path class="cls-5" d="M72.25,55.34h-8.38v10.03h3.07v-2.52h6.11c2.17,0,2.82-1.72,2.82-3.21v-.86c0-1.97-.71-3.43-3.63-3.43Zm.47,3.95c0,.6-.28,1.07-1,1.07h-4.78v-2.52h4.51c.93,0,1.26,.39,1.26,1.07v.39Z"/><polygon class="cls-5" points="80.62 55.34 77.54 55.34 77.54 65.36 87.53 65.36 87.53 62.79 80.62 62.79 80.62 55.34"/><path class="cls-5" d="M94.01,55.34l-5.43,10.03h3.43l.9-1.77h6.23l.96,1.77h3.42l-5.51-10.03h-4Zm.06,6.09l1.94-3.77,1.99,3.77h-3.93Z"/><polygon class="cls-5" points="115.18 55.34 115.18 62.62 115.16 62.62 109.38 55.34 104.62 55.34 104.62 65.36 107.69 65.36 107.69 58.08 107.72 58.08 113.5 65.36 118.26 65.36 118.26 55.34 115.18 55.34"/></g><path class="cls-4" d="M177.15,20.43c.08,.92,.89,1.61,1.81,1.53,.92-.08,1.61-.89,1.53-1.81-.01-.17-.05-.34-.12-.49-.27-.66-.95-1.1-1.7-1.04s-1.34,.61-1.5,1.31c-.04,.16-.05,.33-.03,.5Z"/><path class="cls-4" d="M248.64,66.74c.08,.92,.89,1.61,1.81,1.53,.92-.08,1.61-.89,1.53-1.81-.01-.17-.05-.34-.12-.49-.27-.66-.95-1.1-1.7-1.04s-1.34,.61-1.5,1.31c-.04,.16-.05,.33-.03,.5Z"/><g><path class="cls-1" d="M178.93,23.71c0,.5,.03,1,.05,1.5"/><path class="cls-2" d="M179.23,28.25c3.59,31.44,38.12,41.36,64.59,39.36"/><path class="cls-1" d="M245.34,67.48c.5-.05,1-.1,1.49-.15"/></g><g><path class="cls-4" d="M17.03,59.72h-4.36c-.58,0-1.05,.47-1.05,1.05s.47,1.05,1.05,1.05h4.36c.58,0,1.05-.47,1.05-1.05s-.47-1.05-1.05-1.05Z"/><path class="cls-4" d="M53.51,59.72h-4.36c-.58,0-1.05,.47-1.05,1.05s.47,1.05,1.05,1.05h4.36c.58,0,1.05-.47,1.05-1.05s-.47-1.05-1.05-1.05Z"/><path class="cls-4" d="M26.15,59.72h-4.36c-.58,0-1.05,.47-1.05,1.05s.47,1.05,1.05,1.05h4.36c.58,0,1.05-.47,1.05-1.05s-.47-1.05-1.05-1.05Z"/><path class="cls-4" d="M35.27,59.72h-4.36c-.58,0-1.05,.47-1.05,1.05s.47,1.05,1.05,1.05h4.36c.58,0,1.05-.47,1.05-1.05s-.47-1.05-1.05-1.05Z"/><path class="cls-4" d="M44.39,59.72h-4.36c-.58,0-1.05,.47-1.05,1.05s.47,1.05,1.05,1.05h4.36c.58,0,1.05-.47,1.05-1.05s-.47-1.05-1.05-1.05Z"/><path class="cls-4" d="M134.2,59.72h-4.36c-.58,0-1.05,.47-1.05,1.05s.47,1.05,1.05,1.05h4.36c.58,0,1.05-.47,1.05-1.05s-.47-1.05-1.05-1.05Z"/><path class="cls-4" d="M170.68,59.72h-4.36c-.58,0-1.05,.47-1.05,1.05s.47,1.05,1.05,1.05h4.36c.58,0,1.05-.47,1.05-1.05s-.47-1.05-1.05-1.05Z"/><path class="cls-4" d="M143.32,59.72h-4.36c-.58,0-1.05,.47-1.05,1.05s.47,1.05,1.05,1.05h4.36c.58,0,1.05-.47,1.05-1.05s-.47-1.05-1.05-1.05Z"/><path class="cls-4" d="M152.44,59.72h-4.36c-.58,0-1.05,.47-1.05,1.05s.47,1.05,1.05,1.05h4.36c.58,0,1.05-.47,1.05-1.05s-.47-1.05-1.05-1.05Z"/><path class="cls-4" d="M161.56,59.72h-4.36c-.58,0-1.05,.47-1.05,1.05s.47,1.05,1.05,1.05h4.36c.58,0,1.05-.47,1.05-1.05s-.47-1.05-1.05-1.05Z"/></g><path class="cls-4" d="M233.65,11.24L212.18,0l-1.42,3.87c-.45,1.23-.9,2.43-1.34,3.6l-10.34-4.09-.97,3.83-.04,.17c-3.58,14.21-6.94,24.47-10.16,32.65,.71,1.24,1.48,2.43,2.31,3.58,.14,.2,.29,.39,.43,.59,.09,.11,.18,.22,.26,.34,.85,1.1,1.77,2.17,2.73,3.17,.09,.09,.17,.18,.26,.27,.3,.31,.62,.62,.94,.93,.14,.14,.28,.27,.43,.41,.16,.15,.32,.29,.48,.44,.27,.24,.49,.43,.69,.6,.57,.49,1.15,.97,1.74,1.42,.6,.46,1.2,.9,1.79,1.31,.81,.56,1.7,1.13,2.65,1.69l.15,.09c.08,.05,.16,.09,.24,.14,.41,.23,.83,.47,1.26,.7,.44,.23,.89,.46,1.34,.69,.28,.14,.57,.28,.85,.41,.08,.04,.17,.09,.26,.13,.77,.36,1.55,.7,2.32,1.01l.04,.02c.3,.12,.61,.24,.89,.35,.72,.28,1.48,.56,2.27,.82l.14,.05c.07,.02,.13,.05,.2,.07,.08,.03,.16,.05,.23,.08,.86,.28,1.74,.54,2.62,.79h.01c.09,.03,.18,.05,.27,.08,.71,.19,1.43,.37,2.14,.54,.06,.02,.11,.03,.16,.04,.42,.1,.86,.2,1.3,.29l.26,.03,.11,.05c.12,.03,.24,.05,.36,.08,.09,.01,.18,.03,.27,.05l.09,.02c.14,.02,.28,.05,.42,.08,1.05,.2,2.11,.38,3.16,.54l.45,.06c.1,.02,.21,.03,.32,.04l.46,.07c.2,.02,.4,.05,.6,.07,.78,.1,1.59,.19,2.42,.27,.22,.02,.43,.04,.65,.06,.24,.02,.49,.04,.74,.06,.19,.01,.38,.03,.57,.04,1.06,.08,2.13,.13,3.21,.17,1.38,.06,2.79,.08,4.22,.08,5.75-9.33,11.84-20.55,17.7-36.72l1.08-2.97-22.75-11.92Z"/><g><path class="cls-5" d="M241.36,33.22c-.32-.21-.61-.43-.89-.68-.85,2.92-1.73,5.67-2.62,8.28,1.21-2.49,2.38-5.02,3.51-7.61Z"/><path class="cls-5" d="M214.16,5.12c-.77,2.1-1.53,4.1-2.27,6.03l9.62,3.81c.14-.2,.27-.4,.39-.62l.66-1.26,18,9.43,2.35,.93-.13,.52c-.45,1.83-.92,3.61-1.39,5.33,.45,.74,1.09,1.36,1.91,1.79l.2,.1c.09,.04,.16,.07,.22,.1l1.33,.55-.57,1.32c-1.49,3.49-3.1,6.97-4.84,10.45-1.72,3.44-3.55,6.84-5.5,10.18-1.6,2.74-3.27,5.43-4.97,8.1-.1,.21-.2,.42-.3,.62,.24,.02,.49,.04,.73,.06,.19,.02,.39,.03,.58,.04,1.05,.08,2.12,.13,3.21,.17,6.02-9.59,12.37-20.93,18.52-37.88L214.16,5.12Z"/><path class="cls-5" d="M224.97,53.23c1.57-3.5,3.01-7.02,4.34-10.55,1.16-3.1,2.24-6.26,3.26-9.48-1.66-.84-2.9-2.21-3.59-3.82-.61-1.4-.8-2.99-.49-4.55l-15.25-6.04c-.77,1.23-1.86,2.18-3.11,2.8-1.26,.63-2.69,.91-4.13,.78-1.06,3.61-2.17,7.19-3.37,10.73-1.2,3.54-2.48,7.07-3.86,10.57,4.23-3.28,10.03-4.31,15.36-2.19,5.93,2.35,9.62,7.91,9.87,13.89,.33-.71,.65-1.42,.97-2.13Zm-4.78-21.12c-.61,1.55-2.37,2.31-3.92,1.7-1.55-.61-2.31-2.37-1.7-3.92,.61-1.55,2.37-2.31,3.92-1.7,1.55,.61,2.31,2.37,1.7,3.92Z"/><path class="cls-5" d="M202.56,8.11c-4.13,16.41-7.97,27.61-11.64,36.43,.85,1.1,1.77,2.17,2.73,3.18,.08,.09,.17,.18,.26,.27,.6-1.39,1.19-2.79,1.76-4.21,1.53-3.8,2.94-7.67,4.27-11.6,1.33-3.93,2.55-7.88,3.69-11.83l.39-1.35,1.36,.38c1.19,.33,2.43,.19,3.49-.34,1.04-.52,1.91-1.41,2.37-2.58l.52-1.32,18.97,7.52,1.32,.52-.52,1.32c-.5,1.26-.44,2.6,.06,3.75,.5,1.15,1.43,2.11,2.69,2.61l.21,.08c.09,.03,.17,.06,.23,.07l1.38,.4-.42,1.38c-1.12,3.63-2.35,7.26-3.71,10.9-1.35,3.61-2.81,7.17-4.4,10.71-1.14,2.54-2.34,5.05-3.57,7.54,.15,.02,.3,.04,.45,.07,.11,.02,.21,.03,.32,.04l.46,.06c.2,.03,.4,.05,.6,.08,.78,.1,1.59,.18,2.43,.26,4.83-9.95,9.76-21.69,13.95-38.64l-39.63-15.7Z"/></g></svg>