<?xml version="1.0" encoding="UTF-8"?>
<svg id="Layer_1" data-name="Layer 1" xmlns="http://www.w3.org/2000/svg" viewBox="0 0 181.65 53.25">
  <defs>
    <style>
      .cls-1 {
        fill: #fff;
      }
    </style>
  </defs>
  <g>
    <path class="cls-1" d="M.11,.39H8.17V35.55H.11V.39Z"/>
    <path class="cls-1" d="M21.32,8.16h-.1l.49,27.39h-7.43V.39h11.75l5.92,27.39,.1-.1L31.47,.39h7.48V35.55h-11.75l-5.88-27.39Z"/>
    <path class="cls-1" d="M44.58,.39h11.61c5.83,0,8.98,2.14,8.98,8.55v6.12c0,8.4-2.57,10.49-9.81,10.49h-2.72v10h-8.06V.39Zm10.44,18.84c1.17,0,1.8-.63,1.8-2.57V8.21c0-1.17-.44-1.51-1.84-1.51h-2.33v12.53h2.38Z"/>
    <path class="cls-1" d="M68.37,7.24C68.37,1.51,72.06,0,78.81,0s10.44,1.51,10.44,7.24V28.7c0,5.73-3.69,7.23-10.44,7.23s-10.44-1.51-10.44-7.23V7.24Zm12.53,.44c0-1.31-.58-1.65-2.09-1.65s-2.09,.34-2.09,1.65V28.26c0,1.31,.58,1.65,2.09,1.65s2.09-.34,2.09-1.65V7.67Z"/>
    <path class="cls-1" d="M93.62,8.55C93.62,2.91,95.76,0,101.73,0h3.01C111.78,0,113.92,1.94,113.92,6.02v6.41h-7.77V7.82c0-1.07-.73-1.51-2.04-1.51-1.41,0-2.14,.44-2.14,1.51V28.12c0,1.07,.73,1.51,2.09,1.51s2.09-.44,2.09-1.51v-5.54h7.77v5.2c0,6.22-2.38,8.16-9.18,8.16h-3.01c-5.97,0-8.11-2.96-8.11-7.53V8.55Z"/>
    <path class="cls-1" d="M118.38,.39h8.06V15.2l-.05,.1h.1L131.64,.39h8.64l-6.85,16.7,7.72,18.45h-8.64l-6.02-15.68h-.1l.05,.1v15.59h-8.06V.39Z"/>
    <path class="cls-1" d="M143.63,.39h15.49V6.7h-7.43v7.72h6.89v6.02h-6.89v8.79h8.01v6.31h-16.07V.39Z"/>
    <path class="cls-1" d="M167.96,6.7h-5.63V.39h19.33V6.7h-5.63v28.84h-8.06V6.7Z"/>
  </g>
  <g>
    <path class="cls-1" d="M69.48,41.64h-9.7v11.61h3.56v-2.92h7.07c2.52,0,3.27-1.99,3.27-3.72v-.99c0-2.28-.82-3.98-4.2-3.98Zm.55,4.57c0,.69-.32,1.24-1.15,1.24h-5.53v-2.92h5.23c1.07,0,1.46,.45,1.46,1.24v.45Z"/>
    <polygon class="cls-1" points="79.17 41.64 75.61 41.64 75.61 53.25 87.18 53.25 87.18 50.27 79.17 50.27 79.17 41.64"/>
    <path class="cls-1" d="M94.69,41.64l-6.29,11.61h3.98l1.04-2.05h7.22l1.11,2.05h3.96l-6.38-11.61h-4.64Zm.06,7.06l2.25-4.36,2.31,4.36h-4.56Z"/>
    <polygon class="cls-1" points="119.21 50.07 119.18 50.07 112.49 41.64 106.98 41.64 106.98 53.25 110.54 53.25 110.54 44.81 110.57 44.81 117.26 53.25 122.78 53.25 122.78 41.64 119.21 41.64 119.21 50.07"/>
  </g>
  <g>
    <path class="cls-1" d="M6.7,49.01H1.3c-.72,0-1.3-.58-1.3-1.3s.58-1.3,1.3-1.3H6.7c.72,0,1.3,.58,1.3,1.3s-.58,1.3-1.3,1.3Z"/>
    <path class="cls-1" d="M51.9,49.01h-5.4c-.72,0-1.3-.58-1.3-1.3s.58-1.3,1.3-1.3h5.4c.72,0,1.3,.58,1.3,1.3s-.58,1.3-1.3,1.3Z"/>
    <path class="cls-1" d="M18,49.01h-5.4c-.72,0-1.3-.58-1.3-1.3s.58-1.3,1.3-1.3h5.4c.72,0,1.3,.58,1.3,1.3s-.58,1.3-1.3,1.3Z"/>
    <path class="cls-1" d="M29.3,49.01h-5.4c-.72,0-1.3-.58-1.3-1.3s.58-1.3,1.3-1.3h5.4c.72,0,1.3,.58,1.3,1.3s-.58,1.3-1.3,1.3Z"/>
    <path class="cls-1" d="M40.6,49.01h-5.4c-.72,0-1.3-.58-1.3-1.3s.58-1.3,1.3-1.3h5.4c.72,0,1.3,.58,1.3,1.3s-.58,1.3-1.3,1.3Z"/>
  </g>
  <g>
    <path class="cls-1" d="M134.76,49.01h-5.4c-.72,0-1.3-.58-1.3-1.3s.58-1.3,1.3-1.3h5.4c.72,0,1.3,.58,1.3,1.3s-.58,1.3-1.3,1.3Z"/>
    <path class="cls-1" d="M179.96,49.01h-5.4c-.72,0-1.3-.58-1.3-1.3s.58-1.3,1.3-1.3h5.4c.72,0,1.3,.58,1.3,1.3s-.58,1.3-1.3,1.3Z"/>
    <path class="cls-1" d="M146.06,49.01h-5.4c-.72,0-1.3-.58-1.3-1.3s.58-1.3,1.3-1.3h5.4c.72,0,1.3,.58,1.3,1.3s-.58,1.3-1.3,1.3Z"/>
    <path class="cls-1" d="M157.36,49.01h-5.4c-.72,0-1.3-.58-1.3-1.3s.58-1.3,1.3-1.3h5.4c.72,0,1.3,.58,1.3,1.3s-.58,1.3-1.3,1.3Z"/>
    <path class="cls-1" d="M168.66,49.01h-5.4c-.72,0-1.3-.58-1.3-1.3s.58-1.3,1.3-1.3h5.4c.72,0,1.3,.58,1.3,1.3s-.58,1.3-1.3,1.3Z"/>
  </g>
</svg>