<?xml version="1.0" encoding="UTF-8"?><svg id="Layer_1" xmlns="http://www.w3.org/2000/svg" viewBox="0 0 209.86 217.69"><defs><style>.cls-1{fill:#002f87;}.cls-2,.cls-3{fill:#fff;}.cls-4{fill:#a2d45e;}.cls-5{stroke-dasharray:0 0 4.86 4.86;}.cls-5,.cls-6{fill:none;stroke-linecap:round;stroke-width:2.37px;}.cls-5,.cls-6,.cls-3{stroke:#002f87;stroke-miterlimit:10;}.cls-3{stroke-width:6px;}</style></defs><rect class="cls-3" x="3" y="16.51" width="203.86" height="198.17"/><g><path class="cls-4" d="M13.09,115.99h8.19v35.71H13.09v-35.71Z"/><path class="cls-4" d="M34.64,123.89h-.1l.49,27.81h-7.55v-35.71h11.93l6.02,27.81,.1-.1-.59-27.72h7.59v35.71h-11.93l-5.97-27.81Z"/><path class="cls-1" d="M58.26,115.99h11.79c5.92,0,9.12,2.17,9.12,8.68v6.21c0,8.53-2.61,10.65-9.96,10.65h-2.76v10.16h-8.19v-35.71Zm10.6,19.13c1.18,0,1.82-.64,1.82-2.61v-8.58c0-1.18-.44-1.53-1.87-1.53h-2.37v12.72h2.42Z"/><path class="cls-1" d="M82.43,122.95c0-5.82,3.75-7.35,10.6-7.35s10.6,1.53,10.6,7.35v21.8c0,5.82-3.75,7.35-10.6,7.35s-10.6-1.53-10.6-7.35v-21.8Zm12.72,.44c0-1.33-.59-1.68-2.12-1.68s-2.12,.35-2.12,1.68v20.91c0,1.33,.59,1.68,2.12,1.68s2.12-.35,2.12-1.68v-20.91Z"/><path class="cls-1" d="M108.07,124.28c0-5.72,2.17-8.68,8.24-8.68h3.06c7.15,0,9.32,1.97,9.32,6.12v6.51h-7.89v-4.69c0-1.08-.74-1.53-2.07-1.53-1.43,0-2.17,.44-2.17,1.53v20.61c0,1.09,.74,1.53,2.12,1.53s2.12-.44,2.12-1.53v-5.62h7.89v5.28c0,6.31-2.42,8.29-9.32,8.29h-3.06c-6.07,0-8.24-3.01-8.24-7.64v-20.17Z"/><path class="cls-1" d="M133.22,115.99h8.19v15.04l-.05,.1h.1l5.23-15.14h8.78l-6.95,16.97,7.84,18.74h-8.78l-6.11-15.93h-.1l.05,.1v15.83h-8.19v-35.71Z"/><path class="cls-1" d="M158.86,115.99h15.73v6.41h-7.55v7.84h7v6.11h-7v8.93h8.14v6.41h-16.32v-35.71Z"/><path class="cls-1" d="M183.56,122.41h-5.72v-6.41h19.63v6.41h-5.72v29.29h-8.19v-29.29Z"/></g><g><path class="cls-2" d="M56.84,67.53c1.42,1.72,2.94,3.36,4.54,4.91,.28,.27,.56,.53,.84,.8,.16,.15,.33,.3,.5,.45,3.76-14.46,7.2-32.62,9.85-58.84l67.1,14.18c-2.63,27.06-7.69,46.31-13.01,62.8,.35-.02,.7-.05,1.05-.07,.11-.34,.22-.69,.33-1.03,2.08-4.52,4.1-9.07,5.99-13.68,2.31-5.62,4.41-11.29,6.34-17.01,1.94-5.78,3.68-11.52,5.22-17.25l.59-2.17-2.26-.5c-.09-.02-.22-.05-.37-.09l-.35-.11c-1.41-.45-2.59-1.26-3.48-2.27,.34-2.76,.65-5.6,.94-8.52l.08-.83-3.97-.84-31.03-9.97-.75,2.1c-.13,.37-.29,.72-.47,1.05l-16.29-3.44c.72-3.14,1.45-6.41,2.17-9.82l65.09,20.91c-5.75,27.56-13.17,46.56-20.49,62.78,2.22-.27,4.48-.58,6.76-.95,6.95-15.75,13.98-34.5,19.47-60.79l1.01-4.83-39.22-12.6L86.01,0l-1.34,6.3c-.43,2-.85,3.96-1.28,5.86l-17.51-3.7-.62,6.12-.03,.27c-2.3,22.72-5.2,39.3-8.38,52.67Zm83.77-23.83c-1.18,4.25-2.43,8.43-3.78,12.55,.8-4.23,1.53-8.67,2.19-13.37,.5,.3,1.03,.58,1.59,.81Z"/><path class="cls-4" d="M136.83,56.25c1.34-4.12,2.6-8.3,3.78-12.55-.56-.24-1.08-.51-1.59-.81-.66,4.69-1.39,9.14-2.19,13.37Z"/><path class="cls-4" d="M129.83,91.59c1.7-.15,3.42-.33,5.17-.53,7.32-16.22,14.74-35.22,20.49-62.78L90.39,7.37c-.73,3.41-1.45,6.68-2.17,9.82l16.29,3.44c.18-.34,.34-.69,.47-1.05l.75-2.1,31.03,9.97,3.97,.84-.08,.83c-.28,2.93-.6,5.77-.94,8.52,.89,1.02,2.07,1.82,3.48,2.27l.35,.11c.15,.04,.28,.07,.37,.09l2.26,.5-.59,2.17c-1.54,5.73-3.28,11.47-5.22,17.25-1.92,5.72-4.03,11.38-6.34,17.01-1.89,4.61-3.91,9.16-5.99,13.68-.11,.35-.22,.69-.33,1.03,.39-.03,.79-.06,1.19-.09,.31-.02,.62-.05,.93-.08Z"/><path class="cls-2" d="M128.09,62.11c1.3-5.93,2.4-11.81,3.31-17.66l.35-2.22-2.3-.27c-.09-.01-.22-.03-.38-.06l-.36-.07c-2.13-.45-3.85-1.69-4.92-3.33-1.07-1.64-1.49-3.68-.99-5.73l.52-2.16-2.24-.47-32.13-6.79-.52,2.16c-.46,1.91-1.62,3.5-3.17,4.56-1.56,1.07-3.51,1.6-5.5,1.39l-2.26-.24-.3,2.17c-.87,6.36-1.88,12.72-3.05,19.09-1.17,6.36-2.51,12.66-4.04,18.87-.57,2.31-1.17,4.61-1.8,6.9,.55,.4,1.13,.8,1.73,1.2,.26,.17,.51,.34,.77,.51,.29,.19,.58,.37,.88,.55,.48,.3,.88,.54,1.24,.76,1.03,.61,2.08,1.2,3.12,1.74,1.07,.56,2.13,1.08,3.17,1.56,1.44,.66,3,1.31,4.64,1.93l.27,.1c.14,.05,.27,.1,.41,.15,.71,.26,1.44,.51,2.18,.76h0c.76,.25,1.52,.49,2.3,.73,.49,.15,.98,.29,1.46,.42h0c.15,.04,.31,.09,.45,.13,1.31,.36,2.64,.69,3.95,.98h.06c.51,.13,1.03,.23,1.52,.33,1.21,.25,2.49,.48,3.81,.69l.24,.04c.11,.02,.22,.04,.34,.05,.13,.02,.26,.04,.39,.06,1.43,.22,2.9,.4,4.38,.56h0c.15,.02,.31,.04,.46,.05,1.17,.12,2.36,.22,3.55,.3h0c.09,0,.18,.01,.26,.02,.7,.05,1.42,.09,2.15,.12l.42-.02,.19,.05h0c.2,0,.4,.01,.6,.02,.15,0,.29,0,.44,.01h.15c.23,.01,.46,.02,.69,.03,1.73,.05,3.47,.06,5.19,.03,1.37-4.13,2.68-8.28,3.9-12.47,1.68-5.82,3.16-11.66,4.45-17.53Zm-8.87,16.4c-.34,1.17-.69,2.34-1.04,3.51-1.84-9.12-9.08-16.73-19.12-18.85-9.03-1.91-18.06,1.12-24.02,7.21,1.37-5.72,2.57-11.46,3.63-17.2,1.06-5.73,1.98-11.5,2.8-17.31,2.34-.16,4.55-.95,6.42-2.23,1.85-1.26,3.35-3,4.29-5.08l25.82,5.46c-.11,2.48,.58,4.86,1.88,6.86,1.5,2.3,3.81,4.1,6.66,4.97-.85,5.21-1.82,10.33-2.93,15.37-1.27,5.76-2.72,11.51-4.39,17.28Z"/><path class="cls-2" d="M102.85,41.69c-2.63-.55-5.25,1.05-5.86,3.59-.61,2.54,1.03,5.04,3.65,5.6,2.63,.55,5.25-1.05,5.86-3.59,.61-2.54-1.03-5.04-3.65-5.6Z"/><path class="cls-4" d="M126.55,45.86c-2.85-.87-5.16-2.67-6.66-4.97-1.31-2-2-4.39-1.88-6.86l-25.82-5.46c-.94,2.08-2.44,3.82-4.29,5.08-1.86,1.28-4.08,2.07-6.42,2.23-.82,5.8-1.75,11.58-2.8,17.31-1.06,5.74-2.26,11.47-3.63,17.2,5.97-6.09,14.99-9.12,24.02-7.21,10.03,2.12,17.27,9.74,19.12,18.85,.35-1.17,.7-2.34,1.04-3.51,1.67-5.77,3.13-11.52,4.39-17.28,1.11-5.04,2.08-10.17,2.93-15.37Zm-20.04,1.43c-.61,2.54-3.23,4.14-5.86,3.59-2.63-.56-4.26-3.06-3.65-5.6,.61-2.54,3.23-4.14,5.86-3.59,2.63,.56,4.26,3.06,3.65,5.6Z"/><path class="cls-4" d="M67.84,77.88c.16,.11,.31,.23,.48,.34,.63-2.29,1.23-4.59,1.8-6.9,1.53-6.21,2.86-12.51,4.04-18.87,1.17-6.36,2.18-12.73,3.05-19.09l.3-2.17,2.26,.24c1.99,.21,3.93-.32,5.5-1.39,1.54-1.06,2.71-2.64,3.17-4.56l.52-2.16,32.13,6.79,2.24,.47-.52,2.16c-.49,2.05-.08,4.09,.99,5.73,1.07,1.64,2.8,2.88,4.92,3.33l.36,.07c.16,.03,.28,.04,.38,.06l2.3,.27-.35,2.22c-.91,5.85-2.01,11.73-3.31,17.66-1.29,5.87-2.77,11.71-4.45,17.53-1.21,4.19-2.53,8.34-3.9,12.47,.24,0,.49,0,.73-.01,.17,0,.35,0,.52-.01l.75-.02c.32,0,.65-.02,.97-.03,1.27-.05,2.59-.12,3.94-.2,5.33-16.49,10.39-35.74,13.01-62.8L72.57,14.85c-2.66,26.22-6.1,44.37-9.85,58.84,1.63,1.48,3.35,2.89,5.12,4.19Z"/><path class="cls-1" d="M35.51,37.32c.35,1.4,1.81,2.25,3.27,1.9,1.46-.35,2.36-1.77,2.01-3.17-.06-.26-.17-.51-.31-.72-.59-.95-1.78-1.46-2.96-1.17-1.18,.28-2,1.27-2.08,2.38-.02,.26,0,.52,.07,.78Z"/><path class="cls-1" d="M160.88,90.53c.35,1.4,1.81,2.25,3.27,1.9,1.46-.35,2.36-1.77,2.01-3.17-.06-.26-.17-.51-.31-.72-.59-.95-1.78-1.46-2.96-1.17-1.18,.28-2,1.27-2.08,2.38-.02,.26,0,.52,.07,.78Z"/><g><path class="cls-6" d="M39.15,41.91c.14,.79,.29,1.56,.45,2.33"/><path class="cls-5" d="M40.76,48.96c13.39,47.24,70.93,53.79,112.7,44.07"/><path class="cls-6" d="M155.82,92.47c.77-.19,1.54-.39,2.3-.6"/></g></g><g><path class="cls-4" d="M83.56,157.88h-9.86v11.79h3.62v-2.97h7.18c2.56,0,3.32-2.02,3.32-3.78v-1.01c0-2.31-.83-4.04-4.27-4.04Zm.55,4.64c0,.7-.33,1.25-1.17,1.25h-5.62v-2.97h5.31c1.09,0,1.48,.46,1.48,1.25v.46Z"/><polygon class="cls-4" points="93.39 157.88 89.78 157.88 89.78 169.68 101.52 169.68 101.52 166.65 93.39 166.65 93.39 157.88"/><path class="cls-4" d="M109.15,157.88l-6.39,11.79h4.04l1.06-2.09h7.33l1.12,2.09h4.02l-6.48-11.79h-4.71Zm.07,7.17l2.28-4.43,2.35,4.43h-4.63Z"/><polygon class="cls-4" points="134.06 166.45 134.03 166.45 127.23 157.88 121.63 157.88 121.63 169.68 125.25 169.68 125.25 161.11 125.28 161.11 132.07 169.68 137.68 169.68 137.68 157.88 134.06 157.88 134.06 166.45"/></g><g><path class="cls-1" d="M16.24,184.21l-.86,4.44h4.84l.84-4.44h1.31l-2.02,10.53h-1.3l.94-4.95h-4.84l-.94,4.95h-1.3l2.02-10.53h1.3Z"/><path class="cls-1" d="M28.13,194.3c-.56,.33-1.48,.59-2.5,.59-2,0-2.87-1.36-2.87-3.03,0-2.28,1.69-4.86,4.12-4.86,1.44,0,2.22,.86,2.22,1.94,0,1.98-2.23,2.51-5.03,2.47-.06,.33-.02,1.03,.16,1.44,.3,.67,.91,1.02,1.69,1.02,.89,0,1.56-.28,2.03-.53l.19,.97Zm-1.44-6.28c-1.23,0-2.16,1.2-2.47,2.39,2.03,.02,3.62-.25,3.62-1.42,0-.62-.47-.97-1.16-.97Z"/><path class="cls-1" d="M34.77,194.74c0-.45,.08-1.17,.17-1.95h-.03c-.83,1.56-1.86,2.12-2.94,2.12-1.33,0-2.17-1.06-2.17-2.5,0-2.62,1.94-5.4,5.23-5.4,.72,0,1.51,.12,2.03,.3l-.77,3.94c-.25,1.31-.36,2.66-.33,3.5h-1.2Zm.84-6.59c-.19-.05-.47-.11-.91-.11-1.95,0-3.55,2.05-3.56,4.14,0,.84,.3,1.67,1.3,1.67,1.08,0,2.36-1.41,2.73-3.42l.44-2.28Z"/><path class="cls-1" d="M37.92,194.74l2.11-11.09h1.3l-2.12,11.09h-1.28Z"/><path class="cls-1" d="M44.87,185.15l-.39,2.03h1.81l-.2,1.02h-1.81l-.7,3.67c-.08,.42-.14,.81-.14,1.22,0,.45,.22,.72,.72,.72,.22,0,.44-.02,.61-.05l-.06,1.02c-.24,.09-.62,.14-1,.14-1.16,0-1.59-.7-1.59-1.47,0-.44,.05-.87,.16-1.42l.75-3.83h-1.09l.2-1.02h1.08l.33-1.7,1.34-.33Z"/><path class="cls-1" d="M46.37,194.74l2.11-11.09h1.3l-.94,4.87h.03c.64-.92,1.56-1.52,2.7-1.52,.86,0,1.87,.53,1.87,2.03,0,.41-.05,.89-.12,1.28l-.84,4.42h-1.3l.84-4.36c.05-.28,.09-.62,.09-1.05,0-.7-.33-1.25-1.17-1.25-1,0-2.27,1.17-2.58,2.87l-.7,3.78h-1.3Z"/><path class="cls-1" d="M60.88,184.21l-2,10.53h-1.3l2-10.53h1.3Z"/><path class="cls-1" d="M61.2,194.74l1.01-5.36c.17-.84,.27-1.58,.36-2.2h1.16l-.19,1.48h.03c.67-1.06,1.69-1.66,2.8-1.66,.91,0,1.92,.52,1.92,2.11,0,.33-.06,.81-.14,1.22l-.84,4.41h-1.3l.83-4.36c.06-.3,.11-.66,.11-.97,0-.76-.3-1.33-1.19-1.33s-2.23,1.11-2.58,2.98l-.69,3.67h-1.3Z"/><path class="cls-1" d="M69.6,193.43c.36,.22,1.01,.47,1.62,.47,.87,0,1.44-.56,1.44-1.23,0-.59-.27-.95-1.05-1.39-.87-.48-1.36-1.16-1.36-1.92,0-1.33,1.14-2.34,2.73-2.34,.69,0,1.3,.19,1.58,.37l-.36,.98c-.27-.16-.75-.34-1.31-.34-.78,0-1.34,.48-1.34,1.14,0,.55,.36,.89,1.03,1.27,.84,.48,1.42,1.14,1.42,1.98,0,1.59-1.3,2.48-2.89,2.48-.81,0-1.53-.25-1.87-.52l.36-.95Z"/><path class="cls-1" d="M82.74,187.18l-1.02,5.36c-.16,.84-.27,1.58-.34,2.2h-1.17l.2-1.42h-.03c-.67,.98-1.67,1.59-2.67,1.59s-1.98-.47-1.98-2.19c0-.36,.05-.77,.14-1.27l.81-4.28h1.3l-.8,4.22c-.09,.42-.14,.78-.14,1.11,0,.78,.33,1.31,1.22,1.31,.94,0,2.14-1.09,2.45-2.77l.73-3.87h1.3Z"/><path class="cls-1" d="M83.58,194.74l.92-4.87c.19-.98,.31-1.98,.39-2.69h1.14c-.06,.53-.12,1.06-.2,1.64h.05c.48-1.03,1.3-1.81,2.31-1.81,.11,0,.27,.02,.36,.03l-.25,1.28c-.08-.02-.2-.03-.34-.03-1.12,0-2.12,1.36-2.45,3.12l-.62,3.33h-1.3Z"/><path class="cls-1" d="M93.33,194.74c0-.45,.08-1.17,.17-1.95h-.03c-.83,1.56-1.86,2.12-2.94,2.12-1.33,0-2.17-1.06-2.17-2.5,0-2.62,1.94-5.4,5.23-5.4,.72,0,1.51,.12,2.03,.3l-.77,3.94c-.25,1.31-.36,2.66-.33,3.5h-1.2Zm.84-6.59c-.19-.05-.47-.11-.91-.11-1.95,0-3.55,2.05-3.56,4.14,0,.84,.3,1.67,1.3,1.67,1.08,0,2.36-1.41,2.73-3.42l.44-2.28Z"/><path class="cls-1" d="M96.47,194.74l1.02-5.36c.17-.84,.27-1.58,.36-2.2h1.16l-.19,1.48h.03c.67-1.06,1.69-1.66,2.8-1.66,.91,0,1.92,.52,1.92,2.11,0,.33-.06,.81-.14,1.22l-.84,4.41h-1.3l.83-4.36c.06-.3,.11-.66,.11-.97,0-.76-.3-1.33-1.19-1.33s-2.23,1.11-2.58,2.98l-.69,3.67h-1.3Z"/><path class="cls-1" d="M110.02,194.44c-.39,.19-1.17,.45-2.19,.45-1.95,0-2.91-1.31-2.91-2.92,0-2.58,1.91-4.95,4.62-4.95,.7,0,1.34,.2,1.58,.33l-.37,1.03c-.3-.14-.72-.28-1.28-.28-1.97,0-3.2,1.94-3.2,3.72,0,1.22,.64,2.01,1.87,2.01,.77,0,1.36-.23,1.75-.42l.12,1.03Z"/><path class="cls-1" d="M116.73,194.3c-.56,.33-1.48,.59-2.5,.59-2,0-2.87-1.36-2.87-3.03,0-2.28,1.69-4.86,4.12-4.86,1.44,0,2.22,.86,2.22,1.94,0,1.98-2.23,2.51-5.03,2.47-.06,.33-.02,1.03,.16,1.44,.3,.67,.91,1.02,1.69,1.02,.89,0,1.56-.28,2.03-.53l.19,.97Zm-1.44-6.28c-1.23,0-2.16,1.2-2.47,2.39,2.03,.02,3.62-.25,3.62-1.42,0-.62-.47-.97-1.16-.97Z"/><path class="cls-1" d="M121.42,193.12c.56,.39,1.36,.67,2.23,.67,1.19,0,2.28-.7,2.28-1.98,0-.78-.45-1.36-1.55-1.97-1.34-.72-2.09-1.56-2.09-2.7,0-1.87,1.62-3.09,3.56-3.09,1.01,0,1.78,.31,2.16,.56l-.47,1.05c-.33-.19-.98-.5-1.83-.48-1.3,0-2.08,.86-2.08,1.72s.53,1.34,1.62,1.95c1.3,.69,2.02,1.52,2.02,2.81,0,1.83-1.44,3.25-3.8,3.25-1.06,0-2.09-.34-2.53-.72l.47-1.06Z"/><path class="cls-1" d="M135.85,187.18l-1.02,5.36c-.16,.84-.27,1.58-.34,2.2h-1.17l.2-1.42h-.03c-.67,.98-1.67,1.59-2.67,1.59s-1.98-.47-1.98-2.19c0-.36,.05-.77,.14-1.27l.81-4.28h1.3l-.8,4.22c-.09,.42-.14,.78-.14,1.11,0,.78,.33,1.31,1.22,1.31,.94,0,2.14-1.09,2.45-2.77l.73-3.87h1.3Z"/><path class="cls-1" d="M136.03,197.83l1.52-7.97c.16-.91,.31-1.92,.42-2.69h1.19l-.22,1.42h.03c.69-.98,1.69-1.59,2.72-1.59,1.64,0,2.33,1.34,2.33,2.73,0,2.66-1.91,5.17-4.42,5.17-.81,0-1.34-.17-1.64-.34h-.03l-.61,3.26h-1.28Zm2.12-4.36c.33,.27,.83,.42,1.44,.42,1.67,0,3.08-2.08,3.08-4.06,0-.8-.36-1.75-1.45-1.75-1.02,0-2.3,1.17-2.69,3.28l-.37,2.11Z"/><path class="cls-1" d="M144.23,197.83l1.51-7.97c.16-.91,.31-1.92,.42-2.69h1.19l-.22,1.42h.03c.69-.98,1.69-1.59,2.72-1.59,1.64,0,2.33,1.34,2.33,2.73,0,2.66-1.91,5.17-4.42,5.17-.81,0-1.34-.17-1.64-.34h-.03l-.61,3.26h-1.28Zm2.12-4.36c.33,.27,.83,.42,1.44,.42,1.67,0,3.08-2.08,3.08-4.06,0-.8-.36-1.75-1.45-1.75-1.02,0-2.3,1.17-2.69,3.28l-.37,2.11Z"/><path class="cls-1" d="M153.12,194.74l2.11-11.09h1.3l-2.12,11.09h-1.28Z"/><path class="cls-1" d="M162.13,194.3c-.56,.33-1.48,.59-2.5,.59-2,0-2.87-1.36-2.87-3.03,0-2.28,1.69-4.86,4.12-4.86,1.44,0,2.22,.86,2.22,1.94,0,1.98-2.23,2.51-5.03,2.47-.06,.33-.02,1.03,.16,1.44,.3,.67,.91,1.02,1.69,1.02,.89,0,1.56-.28,2.03-.53l.19,.97Zm-1.44-6.28c-1.23,0-2.16,1.2-2.47,2.39,2.03,.02,3.62-.25,3.62-1.42,0-.62-.47-.97-1.16-.97Z"/><path class="cls-1" d="M163.75,194.74l1.02-5.36c.16-.84,.26-1.58,.34-2.2h1.14l-.2,1.42h.05c.7-1.05,1.66-1.59,2.66-1.59,1.16,0,1.7,.73,1.77,1.69,.67-1.09,1.64-1.67,2.78-1.69,.87,0,1.83,.56,1.83,1.98,0,.36-.05,.86-.12,1.28l-.84,4.47h-1.26l.81-4.36c.06-.28,.11-.67,.11-.98,0-.8-.3-1.31-1.14-1.31-.94,0-2.05,1.09-2.36,2.78l-.73,3.87h-1.25l.84-4.44c.06-.33,.09-.62,.09-.92,0-.64-.17-1.3-1.12-1.3s-2.12,1.25-2.42,2.86l-.7,3.8h-1.27Z"/><path class="cls-1" d="M181.83,194.3c-.56,.33-1.48,.59-2.5,.59-2,0-2.87-1.36-2.87-3.03,0-2.28,1.69-4.86,4.12-4.86,1.44,0,2.22,.86,2.22,1.94,0,1.98-2.23,2.51-5.03,2.47-.06,.33-.02,1.03,.16,1.44,.3,.67,.91,1.02,1.69,1.02,.89,0,1.56-.28,2.03-.53l.19,.97Zm-1.44-6.28c-1.23,0-2.16,1.2-2.47,2.39,2.03,.02,3.62-.25,3.62-1.42,0-.62-.47-.97-1.16-.97Z"/><path class="cls-1" d="M183.45,194.74l1.02-5.36c.17-.84,.26-1.58,.36-2.2h1.16l-.19,1.48h.03c.67-1.06,1.69-1.66,2.8-1.66,.91,0,1.92,.52,1.92,2.11,0,.33-.06,.81-.14,1.22l-.84,4.41h-1.3l.83-4.36c.06-.3,.11-.66,.11-.97,0-.76-.3-1.33-1.19-1.33s-2.23,1.11-2.58,2.98l-.69,3.67h-1.3Z"/><path class="cls-1" d="M195.19,185.15l-.39,2.03h1.81l-.2,1.02h-1.81l-.7,3.67c-.08,.42-.14,.81-.14,1.22,0,.45,.22,.72,.72,.72,.22,0,.44-.02,.61-.05l-.06,1.02c-.23,.09-.62,.14-1,.14-1.16,0-1.59-.7-1.59-1.47,0-.44,.05-.87,.16-1.42l.75-3.83h-1.09l.2-1.02h1.08l.33-1.7,1.34-.33Z"/></g><g><path class="cls-1" d="M19.69,165.42h-5.49c-.73,0-1.32-.59-1.32-1.32s.59-1.32,1.32-1.32h5.49c.73,0,1.32,.59,1.32,1.32s-.59,1.32-1.32,1.32Z"/><path class="cls-1" d="M65.68,165.42h-5.49c-.73,0-1.32-.59-1.32-1.32s.59-1.32,1.32-1.32h5.49c.73,0,1.32,.59,1.32,1.32s-.59,1.32-1.32,1.32Z"/><path class="cls-1" d="M31.19,165.42h-5.49c-.73,0-1.32-.59-1.32-1.32s.59-1.32,1.32-1.32h5.49c.73,0,1.32,.59,1.32,1.32s-.59,1.32-1.32,1.32Z"/><path class="cls-1" d="M42.68,165.42h-5.49c-.73,0-1.32-.59-1.32-1.32s.59-1.32,1.32-1.32h5.49c.73,0,1.32,.59,1.32,1.32s-.59,1.32-1.32,1.32Z"/><path class="cls-1" d="M54.18,165.42h-5.49c-.73,0-1.32-.59-1.32-1.32s.59-1.32,1.32-1.32h5.49c.73,0,1.32,.59,1.32,1.32s-.59,1.32-1.32,1.32Z"/></g><g><path class="cls-1" d="M149.96,165.42h-5.49c-.73,0-1.32-.59-1.32-1.32s.59-1.32,1.32-1.32h5.49c.73,0,1.32,.59,1.32,1.32s-.59,1.32-1.32,1.32Z"/><path class="cls-1" d="M195.94,165.42h-5.49c-.73,0-1.32-.59-1.32-1.32s.59-1.32,1.32-1.32h5.49c.73,0,1.32,.59,1.32,1.32s-.59,1.32-1.32,1.32Z"/><path class="cls-1" d="M161.46,165.42h-5.49c-.73,0-1.32-.59-1.32-1.32s.59-1.32,1.32-1.32h5.49c.73,0,1.32,.59,1.32,1.32s-.59,1.32-1.32,1.32Z"/><path class="cls-1" d="M172.95,165.42h-5.49c-.73,0-1.32-.59-1.32-1.32s.59-1.32,1.32-1.32h5.49c.73,0,1.32,.59,1.32,1.32s-.59,1.32-1.32,1.32Z"/><path class="cls-1" d="M184.45,165.42h-5.49c-.73,0-1.32-.59-1.32-1.32s.59-1.32,1.32-1.32h5.49c.73,0,1.32,.59,1.32,1.32s-.59,1.32-1.32,1.32Z"/></g></svg>