<?xml version="1.0" encoding="UTF-8"?>
<svg id="Logo" xmlns="http://www.w3.org/2000/svg" viewBox="0 0 787.49 218.87">
  <defs>
    <style>
      .cls-1 {
        fill: #231f20;
      }
    </style>
  </defs>
  <path class="cls-1" d="M723.97,83.08c-.12,.53-.26,1.06-.39,1.59l-.18,.67c-.17,.69-.37,1.38-.58,2.06-.27,.87-.54,1.73-.95,2.65-.41,.92-.85,1.82-1.32,2.69-.37,.67-.76,1.31-1.16,1.95l-.45,.72c-.4,.66-.86,1.4-1.43,2.15-.52,.67-1.22,1.59-2.09,2.44-.82,.81-1.6,1.45-2.45,2.03-.26,.18-.53,.34-.8,.51l-.12,.08c-.66,.41-1.32,.72-2.07,1-.59,.22-1.22,.36-1.85,.43h-.11c-.1,.02-.2,.02-.3,.03v42.15h78.87v-16.81h-55.17v-7.22h55.17v-15.99h-55.17v-7.13h55.17v-16.89h-62.46c-.05,.29-.1,.59-.17,.9Z"/>
  <path class="cls-1" d="M186.23,156.21c-10.11,11.77-23.73,24.27-42.14,37.11-2.82-1.96-5.52-3.91-8.12-5.83-14.39-10.66-25.51-20.8-34.01-31.27h-26.09c10.54,17.09,25.73,32.35,47.98,48.67,4.38,3.21,9.03,6.47,13.97,9.79l6.27,4.18,6.27-4.18c30.06-20.18,49.34-38.01,61.95-58.46,0,0-26.04-.06-26.08-.01Z"/>
  <path class="cls-1" d="M53.62,72.18h21.26c-.01-.18-.03-.36-.04-.53-.66-8.86-1.12-18.42-1.5-28.81,12.78,.27,23.48-.63,33.91-3.12,9.29-2.21,18.2-5.64,28-10.55,2.86-1.43,5.79-2.98,8.84-4.68h0c13.49,7.49,24.84,12.37,36.84,15.23,5.28,1.26,10.63,2.11,16.28,2.61l-53.59,82.61-29.67-43.29h-25.75l2.93,4.28,41.04,59.88h0l.09,.14h0l.22,.33,11.67,16.81h0l8.59-13.24,43.26-66.68,7.13-10.99,18.97-29.24,14.57-22.57-11.52,.75c-13.1,.85-26.47,.95-39.32-2.1-11.27-2.69-22.2-7.69-36.06-15.71L144.09,0h0l-5.69,3.3c-2.61,1.51-5.12,2.92-7.55,4.22-10.45,5.61-19.37,9.31-28.51,11.49-11.27,2.68-23.28,3.14-39.32,2.1l-11.62-.75,.35,11.65c.44,14.75,.98,28.04,1.86,40.17Z"/>
  <path class="cls-1" d="M378.26,113.1c2.3-2.87,3.69-7.38,3.69-12.14,0-5.58-1.64-9.51-4.92-12.46-4.43-3.85-12.14-6.31-23.7-6.31h-61.25v64.04h24.03v-23.53h26.49l20.42,23.53h26.49l-23.53-26.57c5.58-.57,9.84-3.53,12.3-6.56Zm-20.09-6.97c-.98,1.72-3.12,2.38-7.79,2.38h-34.28v-10.41h33.87c4.1,0,6.64,.57,8.12,2.71,.49,.74,.74,1.56,.74,2.62,0,.82-.08,1.8-.66,2.71Z"/>
  <polygon class="cls-1" points="465.1 82.18 438.53 108.42 411.88 82.18 383.42 82.18 426.15 125.23 426.15 146.23 450.17 146.23 450.17 125.15 492.81 82.18 465.1 82.18"/>
  <path class="cls-1" d="M539.55,80.46c-19.68,0-34.11,4.26-43.62,13.78-5.58,5.33-8.12,11.81-8.12,19.43,0,8.77,3.12,15.5,8.61,20.75,8.77,8.45,23.45,12.79,43.13,12.79s35.1-4.02,43.54-12.63c5.33-5.25,8.2-12.14,8.2-20.75s-2.46-15.01-8.28-20.58c-9.1-8.69-23.53-12.79-43.46-12.79Zm-.08,49.04c-19.19,0-27.14-7.38-27.14-15.58,0-7.38,7.54-15.42,27.06-15.42s27.39,8.2,27.39,15.42c0,8.2-8.28,15.58-27.31,15.58Z"/>
  <polygon class="cls-1" points="212.25 82.18 173.03 142.95 170.98 146.23 221.91 146.23 222.85 146.23 277.87 146.23 277.87 129.41 203.08 129.4 207.74 122.18 277.87 122.2 277.87 106.21 218.06 106.2 222.7 99.08 277.87 99.08 277.87 82.18 213.58 82.18 212.25 82.18"/>
  <rect class="cls-1" x="251.58" y="21.07" width="6.02" height="43.37"/>
  <polygon class="cls-1" points="276.24 30.24 306.4 64.44 312.6 64.44 312.6 21.07 307.02 21.07 307.02 55.11 276.82 21.07 270.44 21.07 270.44 64.44 276.24 64.44 276.24 30.24"/>
  <path class="cls-1" d="M346.61,58.5c-12.89,0-17.14-3.44-17.49-8.22h-6.42c.75,9.55,7.04,14.83,23.78,14.83,15.85,0,21.96-5.11,21.96-13.88,0-10.22-10.36-11.94-20.37-12.72-9.39-.78-18.46-.67-18.46-5.94,0-3.83,3.76-5.66,15.01-5.66,10.58,0,15.94,2.78,16.52,7.27h6.6c-1.15-7.88-7.22-13.83-23.29-13.83-14.88,0-20.9,5.89-20.9,12.99,0,9.83,11.65,11.05,22.23,11.94,8.72,.78,16.74,1.33,16.74,6.44,0,3.89-3.45,6.77-15.9,6.77Z"/>
  <path class="cls-1" d="M400.19,65.05c13.9,0,21.7-6.61,21.7-18.99V21.07h-5.85v24.93c0,8-6.24,12.49-15.54,12.49-10.94,0-16.12-5.05-16.12-12.49V21.07h-5.93v23.93c0,13.6,8.5,20.04,21.74,20.04Z"/>
  <path class="cls-1" d="M440.13,46.28h20.86l12.09,18.16h6.95l-12.84-19.1c3.5-.44,5.93-2.78,7.17-5.28,.89-1.78,1.28-4.16,1.28-6.83,0-3-.58-5.22-1.68-7.05-1.95-3.05-5.71-5.11-11.65-5.11h-28.07v43.37h5.89v-18.16Zm0-18.55h22.89c2.97,0,4.92,1,6.02,2.83,.58,.94,.8,2,.8,3.22,0,1.06-.18,2.17-.67,3.22-.88,1.72-2.66,2.61-5.98,2.61h-23.07v-11.88Z"/>
  <path class="cls-1" d="M494.55,53.95h27.9l5.62,10.49h6.55l-22.54-43.37h-6.64l-22.94,43.37h6.33l5.71-10.49Zm11.91-22.88l2.12-4.28,2.13,4.28,8.72,16.27h-21.83l8.86-16.27Z"/>
  <polygon class="cls-1" points="546.94 30.24 577.09 64.44 583.29 64.44 583.29 21.07 577.71 21.07 577.71 55.11 547.51 21.07 541.14 21.07 541.14 64.44 546.94 64.44 546.94 30.24"/>
  <path class="cls-1" d="M640.5,53.84c.89-1.83,1.55-4.55,1.77-6.27h-6.46c-.13,1.05-.53,2.67-1.28,3.72-3.23,5.05-8.59,6.77-16.83,6.77-7,0-14.79-2.61-17.85-9.11-.84-1.72-1.28-3.83-1.28-6.27,0-2.28,.31-4.22,.97-5.89,2.44-6.16,9.03-9.5,18.11-9.5s13.86,3.05,16.38,6.61c.97,1.39,1.5,2.78,1.73,4.11h6.46c-.18-1.55-.84-4.22-1.99-6.33-3.59-6.55-10.32-11.49-22.58-11.49s-20.02,5.33-23.34,12.77c-1.24,2.72-1.82,6.11-1.82,9.72,0,4,.8,7.66,2.21,10.66,3.28,6.94,10.8,11.77,23.47,11.77s19.22-4.33,22.32-11.27Z"/>
  <polygon class="cls-1" points="691.47 57.61 656.84 57.61 656.84 45.84 690.28 45.84 690.28 39.23 656.84 39.23 656.84 27.9 691.07 27.9 691.07 21.07 651.04 21.07 651.04 64.44 691.47 64.44 691.47 57.61"/>
  <polygon class="cls-1" points="669.2 117.52 628.36 81.52 603.51 81.52 603.51 145.56 626.72 145.56 626.72 108.66 668.54 145.56 692.16 145.56 692.16 81.52 669.2 81.52 669.2 117.52"/>
  <path class="cls-1" d="M787.1,58.1c-.53-.57-1.39-.62-2.07-.09-.16,.13-.32,.25-.46,.4-.13,.14-.25,.29-.38,.46-.09,.09-.19,.17-.29,.25-.07,.06-.14,.12-.21,.17-.21,.18-.42,.36-.65,.52h0c-.18,.14-.36,.27-.54,.42l-.19,.17c-.07,.06-.13,.12-.15,.14-.31,.19-.66,.39-1.12,.62l-.41,.21c-.3,.16-.59,.31-.87,.43-.33,.12-.66,.22-.99,.32-.37,.12-.78,.17-1.09,.21-.26,.01-.51,0-.74-.02-.28-.05-.62-.12-.84-.2-.16-.09-.31-.18-.39-.23-.03-.03-.06-.06-.06-.06h0c-.14-.22-.25-.43-.34-.65h0l-.02-.04c-.14-.44-.21-.91-.25-1.25-.04-.5-.03-.98,.02-1.41,.06-.28,.12-.57,.18-.85l.1-.44c.08-.35,.18-.69,.29-1.04,.06-.18,.11-.36,.16-.54,.21-.75,.5-1.53,.83-2.29,.31-.63,.64-1.26,.98-1.87,.23-.43,.45-.78,.68-1.1l.26-.35c.18-.25,.36-.49,.53-.75,.1-.15,.19-.3,.29-.45,.13-.2,.25-.4,.39-.59,.12-.17,.25-.33,.38-.49,.11-.14,.22-.28,.33-.42,.12-.16,.24-.31,.36-.46,.1-.12,.2-.24,.29-.37l.22-.3c.08-.11,.15-.21,.22-.3,.22-.26,.45-.54,.65-.85,.62-.97,1.03-2.42,.33-3.58-.5-.84-1.31-1.34-2.21-1.37-.49-.03-.98,.1-1.51,.37l-.51-.04c-.36-.03-.73-.05-1.06-.1l-.24-.05c-.33-.06-.67-.13-1-.19-.23-.04-.46-.07-.69-.11l-1.16-.2h0c-.46-.08-.92-.16-1.38-.24l-.31-.05c-.27-.05-.54-.12-.81-.21l.09-.18c.3-.6,.57-1.22,.83-1.83l.48-1.1c.28-.64,.58-1.29,.81-1.98,.28-.81,.48-1.64,.69-2.51,.22-.91,.39-1.9,.5-3.04,.07-.69,.14-1.61,.15-2.54,0-.99-.08-1.77-.27-2.45-.44-1.59-1.63-2.82-3.18-3.31-.4-.13-.84-.19-1.33-.18-.35,0-.72,.04-1.17,.12h0c-.63,.11-1.28,.36-1.88,.72-.87,.52-1.75,1.26-2.61,2.22-.51,.57-.87,1.05-1.14,1.53-.34,.59-.66,1.25-.95,1.96-.27,.65-.42,1.33-.58,2.07-.18,.81-.35,1.67-.38,2.56-.04,1.24,.13,2.57,.52,4.05,.2,.77,.41,1.52,.72,2.26,.22,.53,.51,1.02,.8,1.5l.1,.18c.46,.78,.93,1.41,1.43,1.93,.2,.21,.41,.39,.62,.57l-.07,.11c-.67,1.03-1.36,2.09-2.12,3.03-.35,.41-.74,.8-1.12,1.19l-.28,.28c-.37,.39-.76,.78-1.16,1.13-.38,.32-.73,.66-1.09,1.01-.29,.29-.63,.62-.99,.88-.22,.15-.42,.31-.62,.46-.04,.03-.08,.06-.13,.08,.03-1.13-.05-2.22-.25-3.25-.13-.72-.36-1.49-.68-2.29-.23-.58-.61-1.06-.97-1.52l-.12-.15c-.53-.68-1.26-1.19-1.89-1.64-.75-.53-1.6-.96-2.45-1.25-.71-.24-1.52-.36-2.45-.34-.44,0-.91,.04-1.45,.1-.67,.08-1.32,.28-1.92,.48-.62,.21-1.23,.46-1.88,.76-.57,.27-1.11,.6-1.57,.9-.72,.46-1.33,.91-1.88,1.38-.68,.59-1.31,1.29-1.83,2.05-.45,.65-.79,1.43-.99,2.26-.2,.81-.24,1.62-.13,2.54,.03,.28,.1,.57,.21,.86l.06,.16c.12,.34,.24,.68,.4,1,.17,.36,.38,.7,.64,1.04-.07,.1-.14,.2-.21,.3-.32,.46-.61,.97-.9,1.57-.31,.2-.61,.4-.91,.61l-.1,.07c-.63,.43-1.3,.82-1.98,1.22-.59,.35-1.2,.66-1.8,.98l-.85,.46c-.53,.29-1.06,.57-1.6,.83-.71,.34-1.44,.62-2.06,.85-.57,.2-1.23,.44-1.9,.61-.53,.14-1.03,.24-1.49,.3-.49,.03-.98,.04-1.47,.05h-.48c-.67,.03-1.46,.03-2.22-.08-.4-.07-.81-.15-1.21-.23-.39-.08-.82-.22-1.27-.41-.44-.22-.87-.5-1.27-.8-.26-.24-.5-.53-.79-.94-.15-.22-.32-.43-.49-.63l-.23-.29s-.01-.02-.02-.04c.14-.22,.28-.43,.41-.65l2.98-4.72c.15,.03,.3,.05,.43,.08l.15,.02c.29,.05,.58,.08,.87,.09,.89,.05,1.76-.15,2.61-.34l.28-.06c.88-.2,1.8-.54,2.74-1,1.52-.75,2.99-1.74,4.62-3.11,.24-.2,.48-.4,.73-.6,.45-.37,.91-.74,1.34-1.13,.42-.39,.83-.78,1.24-1.18l.62-.59c1.01-.97,2.34-2.25,3.56-3.65,.47-.53,.94-1.06,1.42-1.58,.64-.71,1.29-1.42,1.91-2.15,1.06-1.25,2.1-2.68,3.26-4.51l.21-.34c.43-.67,.88-1.37,1.28-2.09,.44-.79,.89-1.58,1.35-2.36,.44-.75,.73-1.44,.91-2.11,.14-.54,.23-1.13,.27-1.68,.03-.39,.03-.8,0-1.33-.01-.3-.02-.63-.12-.96-.14-.44-.36-.85-.72-1.27-.69-.83-1.8-1.28-3.01-1.27-.38,0-.77,.06-1.14,.16-.23,.06-.46,.13-.68,.21-.2,.07-.41,.13-.62,.19-.53,.14-1.04,.31-1.56,.49l.02,.06-.03-.06v0l-1.09,.4c-.58,.21-1.18,.42-1.75,.69-.63,.3-1.3,.65-1.97,1.07-.77,.47-1.5,1-2.21,1.52l-.17,.13c-.54,.4-1.06,.84-1.55,1.26l-.36,.31c-1.41,1.19-2.6,2.28-3.66,3.32-1.23,1.21-2.39,2.45-3.46,3.71h0l-.28,.33c-.28,.34-.56,.67-.84,1.01h0c-.53,.65-1.05,1.31-1.56,1.97l-.56,.72c-.36,.46-.72,.92-1.07,1.4-.29,.39-.56,.8-.83,1.2-.22,.33-.44,.66-.67,.98-.25,.36-.51,.71-.76,1.06-.25,.34-.49,.68-.74,1.02-.83,1.17-1.61,2.41-2.36,3.61l-4.92,7.79c-.48,.77-.94,1.54-1.39,2.33-.92,1.59-1.69,3.02-2.38,4.39-1.49,2.98-2.68,6.14-3.82,9.19l-.82,2.16c-.38,.98-.75,1.96-1.11,2.94-.56,1.56-1.04,3.14-1.42,4.67-.19,.75-.36,1.5-.52,2.25-.05,.25-.09,.5-.14,.75l-.18,1.05c-.03,.18-.06,.33-.07,.46-.03,.19-.06,.39-.09,.58-.1,.72-.22,1.53-.29,2.34-.06,.72-.12,1.45-.13,2.2,0,.83,.06,1.67,.2,2.57,.08,.52,.21,1.05,.39,1.58,.13,.4,.3,.88,.54,1.34,.11,.21,.22,.43,.32,.65,.3,.66,.72,1.28,1.2,1.79,.13,.14,.28,.26,.42,.39l.23,.2c.29,.25,.59,.51,.92,.73,.3,.21,.67,.36,.98,.5l.24,.11c.28,.13,.57,.25,.86,.35,.67,.25,1.41,.41,2.18,.47,.08,0,.17,.01,.25,.01,.25,0,.49-.03,.71-.05l.16-.02c.25-.02,.49-.08,.75-.18,.45-.16,.83-.34,1.22-.59l.13-.08c.21-.13,.42-.25,.62-.39,.61-.41,1.18-.89,1.79-1.49,.63-.63,1.18-1.34,1.66-1.96,.43-.56,.79-1.16,1.15-1.74l.49-.79c.35-.56,.69-1.11,1.01-1.69,.42-.77,.8-1.56,1.16-2.35,.3-.69,.53-1.38,.76-2.15,.19-.61,.36-1.21,.51-1.82l.19-.74c.12-.47,.25-.94,.35-1.41,.15-.68,.24-1.38,.33-2.05l.08-.63c.09-.7,.19-1.4,.26-2.1,.19-1.81,.34-3.45,.15-5.13-.05-.45-.1-.89-.16-1.34l-.14-1.15c-.09-.76-.22-1.53-.41-2.44-.11-.52-.2-1.04-.28-1.56-.05-.33-.12-.65-.21-.96,.04,0,.08,.02,.12,.03l.25,.04c.61,.11,1.24,.22,1.88,.26,.42,.03,.83,.04,1.24,.04,.89,0,1.79-.06,2.75-.13,1.58-.12,3.05-.64,4.4-1.19,.57-.23,1.14-.51,1.76-.85,.33-.18,.67-.36,1.01-.53l.62-.32c.32-.17,.63-.34,.94-.52,.25-.14,.49-.28,.74-.42l.33-.18c.38-.21,.77-.41,1.15-.63l.57-.33c.07-.04,.14-.08,.21-.12,.05,.92,.23,1.84,.54,2.69l.2,.56c.24,.67,.72,1.22,1.18,1.77,.52,.61,1.13,1.13,1.82,1.56,.48,.29,.97,.52,1.39,.69,.51,.22,1.05,.31,1.57,.38,.28,.04,.56,.05,.85,.05,.59,0,1.2-.08,1.79-.23,1.62-.42,3.24-1.28,4.79-2.56,1.49-1.22,2.55-2.82,3.42-4.22,.45-.71,.85-1.43,1.21-2.13l.13-.25c.38-.74,.76-1.5,1.07-2.3,.16-.41,.3-.84,.43-1.27,.14-.06,.28-.12,.42-.18,.61-.29,1.27-.61,1.89-1.02,.57-.38,1.1-.8,1.62-1.22,.05-.03,.1-.06,.14-.1,.2-.14,.38-.31,.56-.47,.09-.08,.18-.17,.27-.25,.18-.15,.34-.32,.51-.48,.11-.11,.22-.22,.34-.32l.18-.17c.23-.21,.47-.43,.69-.65,.14-.14,.29-.27,.43-.41,.16-.15,.33-.31,.49-.47,.5-.49,.94-1.02,1.31-1.48,.51-.63,.99-1.28,1.45-1.92l.09-.12c.31-.43,.6-.88,.89-1.33,.11-.18,.23-.36,.34-.53,.1,.04,.2,.07,.3,.11,.56,.18,1.16,.31,1.82,.42,.34,.05,.69,.08,1.04,.11,.26,.02,.52,.04,.78,.07l.34,.04c.32,.04,.65,.08,.97,.11l-.04,.05c-.23,.28-.42,.57-.62,.87l-.16,.23c-.19,.28-.38,.54-.58,.8-.34,.46-.69,.93-.98,1.45-.47,.85-.86,1.59-1.2,2.28-.54,1.1-1.08,2.28-1.35,3.51-.16,.72-.32,1.57-.33,2.43,0,.65-.01,1.29,0,1.94,.02,.59,.07,1.47,.28,2.31,.14,.57,.34,1.16,.65,1.89,.33,.77,.71,1.65,1.41,2.3,.26,.24,.54,.45,.82,.65,.32,.23,.6,.37,.94,.53,.25,.12,.5,.18,.74,.24l.27,.07c.51,.15,1.01,.22,1.52,.28,.3,.04,.62,.07,.95,.07,.11,0,.22,0,.34-.01,.86-.06,1.97-.18,3.03-.57,.43-.16,.87-.32,1.29-.53,.36-.18,.69-.41,.99-.63l.37-.25c.34-.23,.69-.47,1.09-.77,.17-.13,.35-.26,.51-.4,.16-.14,.31-.31,.46-.47l.11-.12c.17-.18,.34-.35,.51-.52,.15-.15,.3-.3,.45-.45l.19-.19c.16-.15,.31-.31,.45-.48,.07-.09,.14-.19,.21-.28l.06-.1c.09-.09,.19-.18,.29-.26,.29-.25,.46-.6,.48-.99,.02-.41-.12-.82-.39-1.11Zm-64.48-11.2c.4-.61,.82-1.2,1.25-1.8,.21-.29,.42-.58,.62-.87,.29-.41,.57-.83,.85-1.25,.36-.54,.72-1.08,1.1-1.6,.5-.69,1.02-1.36,1.54-2.03l.49-.63c.55-.72,1.11-1.42,1.68-2.11,.91-1.04,1.88-2.1,2.95-3.22,.87-.9,1.79-1.79,2.68-2.65l.5-.48c.22-.21,.43-.42,.64-.63,.31-.31,.63-.63,.95-.93,.53-.49,1.06-.97,1.6-1.44,.96-.85,1.82-1.61,2.74-2.27,.56-.39,1.12-.76,1.7-1.07,.2-.11,.41-.21,.61-.31l.5-.24c.17-.08,.33-.16,.44-.22,.07-.02,.14-.04,.21-.05,.04,.2,.07,.39,.09,.57,.01,.24,0,.5-.04,.77-.06,.26-.13,.5-.21,.71-.24,.49-.54,.96-.85,1.45-.14,.22-.27,.43-.41,.65-.1,.17-.21,.35-.31,.52-.13,.23-.27,.46-.41,.69-.21,.34-.43,.68-.65,1.01l-.2,.31c-.58,.91-1.11,1.72-1.68,2.52-.45,.64-.94,1.25-1.52,1.96-.42,.49-.85,.97-1.3,1.44-.19,.2-.39,.4-.59,.61-.29,.29-.57,.59-.85,.89-.98,1.05-1.96,2.11-2.97,3.13-.38,.39-.78,.78-1.17,1.17l-.68,.68c-.38,.38-.77,.77-1.18,1.13-1.15,1.02-2.4,1.95-3.35,2.62-1.49,.98-2.67,1.62-3.82,2.06-.68,.21-1.37,.38-2.01,.48,.34-.52,.67-1.05,1.02-1.57Zm-5.71,30.02l-.05,1.03c-.05,1.09-.11,2.21-.27,3.27-.09,.51-.22,1.01-.34,1.52-.05,.2-.1,.4-.14,.61-.05,.23-.1,.45-.16,.67-.09,.35-.21,.7-.32,1.04l-.09,.28c-.15,.46-.31,.91-.49,1.34-.45,.95-1.01,1.92-1.71,2.97l-.29,.44c-.52,.78-1.06,1.59-1.64,2.31-.67,.76-1.4,1.43-2.14,1.99-.28,.18-.55,.33-.8,.43-.24,.08-.48,.16-.73,.21-.03,0-.05,0-.04,0-.16-.04-.32-.09-.4-.11-.15-.08-.28-.18-.38-.25-.3-.29-.59-.61-.87-.97l-.53-.67c-.07-.12-.13-.25-.17-.32-.21-.68-.37-1.4-.46-2.19-.03-.33-.05-.67-.06-1.01,0-.54,.02-1.07,.05-1.61,.05-.93,.16-1.91,.32-3.04,.06-.23,.1-.47,.11-.65,.5-2.78,1.27-5.57,2.29-8.31,.31-.83,.62-1.66,.94-2.48,.27-.7,.54-1.4,.8-2.11l.25-.68c.21-.56,.42-1.13,.64-1.69,.13-.34,.27-.67,.41-1.01,.17-.43,.35-.86,.52-1.29,.25-.66,.54-1.31,.82-1.94,.54-1.14,1.12-2.23,1.66-3.22,.11,.15,.22,.3,.35,.44,.05,.06,.12,.11,.17,.17,.18,.41,.37,.81,.6,1.22,.21,.36,.4,.78,.59,1.28,.24,.69,.41,1.3,.53,1.88,.08,.38,.17,.76,.26,1.13,.08,.31,.15,.63,.22,.94,.16,.74,.25,1.5,.34,2.24,.04,.34,.09,.67,.15,1.01,.05,.33,.11,.66,.14,.97,.08,1.36,0,2.76-.08,4.12Zm35-19.31c-.61,.98-1.27,1.91-1.92,2.74-.49,.55-1.06,1.07-1.68,1.53-.56,.35-1.18,.67-1.81,.92-.42,.14-.81,.24-1.12,.29-.24,0-.49,0-.68-.02-.17-.04-.33-.08-.42-.11-.16-.09-.31-.19-.41-.26-.16-.15-.31-.3-.39-.38-.12-.21-.22-.42-.29-.57-.02-.09-.04-.18-.05-.21-.03-.59-.02-1.06,.02-1.44,.14-.67,.33-1.3,.56-1.85,.26-.51,.55-1.03,.88-1.56,.44,.12,.86,.2,1.28,.26,.34,.04,.67,.07,1.01,.1,.24,.02,.48,.04,.71,.07,.72,.08,1.43,.03,2.09-.04,.66-.07,1.32-.18,1.99-.29,.3-.05,.58-.13,.86-.21-.2,.35-.41,.7-.62,1.05Zm2.7-6.37c-.05,.21-.1,.41-.16,.62l-.05,.03c-.33,.17-.66,.34-.98,.47l-.29,.1c-.53,.18-1.06,.37-1.59,.52-.58,.16-1.25,.29-2.09,.38-.44,.03-.88,.02-1.27-.03l-.26-.05c.26-.29,.46-.64,.59-1.04,.28-.82,.22-1.72-.16-2.47-.38-.74-1.06-1.3-1.85-1.54-.76-.23-1.53-.16-2.31,.21l-.21,.1c-.23,.1-.45,.21-.67,.32-.31,.17-.61,.37-.89,.6-.01-.05-.02-.1-.03-.14,0-.27,0-.54,.03-.77,.06-.29,.14-.55,.22-.75,.16-.31,.37-.63,.61-.94,.66-.75,1.38-1.41,2.2-2,.74-.48,1.58-.91,2.53-1.28,.5-.17,.98-.28,1.45-.35,.46-.03,.84-.03,1.19,0,.3,.06,.58,.15,.81,.24,.58,.3,1.13,.65,1.61,1.02,.32,.3,.59,.65,.79,.92,.11,.17,.2,.34,.26,.48,.23,.71,.38,1.45,.47,2.19,.09,1.05,.18,2.13,.06,3.13Zm16.33-23.35c-.02,.9-.1,1.76-.23,2.61-.27,1.48-.54,2.59-.89,3.6-.15,.43-.31,.84-.48,1.26l-.25,.63c-.17,.43-.34,.87-.51,1.29-.07-.09-.14-.18-.22-.27-.37-.55-.65-1.05-.84-1.49-.11-.34-.19-.7-.27-1.05l-.08-.34c-.09-.38-.18-.75-.23-1.08-.02-.42,0-.85,.06-1.29,.17-.83,.44-1.66,.69-2.47l.04-.11c.2-.63,.43-1.25,.7-1.88,.25-.48,.56-.96,.89-1.39,.38-.43,.69-.74,.96-.96,.09-.06,.19-.12,.28-.17,.03,0,.06-.02,.09-.02h.02c.04,.08,.08,.16,.09,.16,.08,.25,.13,.51,.16,.74,.05,.78,.04,1.57,.02,2.25Z"/>
  <polygon class="cls-1" points="108.04 133.84 104.88 129.42 23.69 129.42 23.69 122.2 99.75 122.2 88.76 106.21 23.69 106.21 23.69 99.08 83.92 99.08 74.02 84.82 72.2 82.19 0 82.19 0 146.23 116.63 146.23 108.04 133.84"/>
</svg>