<svg xmlns="http://www.w3.org/2000/svg" viewBox="0 0 345.89 71.46"><defs><style>.a{fill:none;}.b{fill:#fff;}</style></defs><title>mwgd-4c copy</title><line class="a" x1="228.63" y1="40.53" x2="224.72" y2="39.75"/><path class="b" d="M164.15,26.83a10.4,10.4,0,0,0-3.7-1.68,18.23,18.23,0,0,0-4.28-.5h-4.25v20.7h4a18.4,18.4,0,0,0,4.42-.52,10.46,10.46,0,0,0,3.75-1.73,8.56,8.56,0,0,0,2.6-3.2,11.25,11.25,0,0,0,1-4.95,11.22,11.22,0,0,0-1-5A8.38,8.38,0,0,0,164.15,26.83Z"/><polygon class="b" points="283.18 38.95 292.08 38.95 287.68 26.8 283.18 38.95"/><path class="b" d="M333.89,0h-209a74.77,74.77,0,0,1-.28,71.46H333.89a12,12,0,0,0,12-12V12A12,12,0,0,0,333.89,0Zm-159,43a16.17,16.17,0,0,1-4.55,5.55,19,19,0,0,1-6.37,3.2,25.82,25.82,0,0,1-7.2,1h-13.2V17.35h12.8a31.65,31.65,0,0,1,7.4.88,18.57,18.57,0,0,1,6.5,2.9,14.85,14.85,0,0,1,4.6,5.42,18.23,18.23,0,0,1,1.75,8.4A17.43,17.43,0,0,1,174.9,43ZM205,52.75h-24.7V17.35h23.8v7.2H188.53v6.7h14.7V38.1h-14.7v7.35H205Zm37.85,0h-9.7L218.88,29.6h-.15l.2,23.15h-8.3V17.35h9.75l14.2,23.1h.15l-.2-23.1h8.3Zm21.45,0h-8.55V24.65h-10v-7.3h28.55v7.3h-10Zm32.9,0-2.75-7h-13.7l-2.6,7h-9.3l14.85-35.4H292l14.7,35.4Zm34.75,0h-22.3V17.35h8.6V45.3h13.7Z"/><path class="b" d="M122.06,0H12A12,12,0,0,0,0,12V61.64a9.82,9.82,0,0,0,9.82,9.82h112A74.77,74.77,0,0,0,122.06,0ZM76.81,52.52c-.7,0-1-.5-1.24-1.1l-9-20.35h-.2c-.45,1.39-9.26,20-9.46,20.5a1.59,1.59,0,0,1-.51.67,1.33,1.33,0,0,1-.95.42c-2.43,0-3.7.09-4.11.09s-.4-.1-.4-.35V51.16c0-.25.1-.4.45-.4h.95A1.19,1.19,0,0,0,53.53,49L45.78,26l-.1,0c-.4,1-7.12,16-7.12,16s-2.35,5.48-3.91,5.48c-1,0-2.66-3.89-2.66-3.89L24.83,25.82h-.2c-1.49,4.38-7.17,20.81-7.17,23.54,0,.7.5,1.39,1.69,1.39H20.5c.3,0,.35.15.35.4v1.19c0,.25-.1.4-.4.4-.5,0-2.19-.15-5.28-.15-2.79,0-4.28.15-4.68.15-.2,0-.3-.1-.3-.25V51.16c0-.25,0-.4.35-.4h1a2.46,2.46,0,0,0,2.19-1.64c.5-1.1,10.65-29,11.65-31.46.2-.5.6-1.29,1.29-1.29s1,.5,1.24,1.1l9,21h.2c.41-1.26,7.66-17.09,9.18-20.49.37-1,.72-1.67,1-1.68,2.12,0,4.5-.13,4.87-.13s.4.1.4.35v1.24c0,.25-.1.4-.45.4h-.95A1.19,1.19,0,0,0,50,19.87l7.74,23,.1,0c.4-1,7.12-15.43,7.12-15.43s2.66-5.79,3.79-5.79,3.73,6.2,3.73,6.2L78.7,41.83l4.07-10.67c4.26-13.26,10.85-15.23,20-15.23,4.78,0,8.56,1.49,10.15,2.69.6.45.9.3,1.19-.1l.6-.8c.25-.35.4-.5.7-.5.5,0,.6.3.6.7l.5,10c0,.4,0,.65-.2.7l-1.19.2c-.3,0-.4-.1-.5-.4a19.76,19.76,0,0,0-4-6.87A11.24,11.24,0,0,0,102.41,18C97,18,91.66,20.72,88.16,30c-2.94,7.76-6.19,16.9-6.74,18.47C80.36,51.46,79.47,52.52,76.81,52.52ZM119,38.1c0,.3-.1.4-.4.4h-1.69c-.9,0-1.49.4-1.49,1.84v6.57c0,.7.2,1.19.2,1.59s-.3.6-.8.8a28.81,28.81,0,0,1-14.14,3.29c-4.73,0-10.58-1.59-14-5.4a1.18,1.18,0,0,1-.29-1.44c.17-.42.82-2,1-2.31s.51-.51,1.13,0c4.09,3.31,7.64,6.41,12.59,6.41,3.19,0,5.08.06,6.77-.83,1.1-.6,1.19-2,1.19-4.58V40.79c0-1.79-.5-2.29-1.79-2.29h-2.09c-.3,0-.4-.2-.4-.45V36.91c0-.3.1-.4.3-.4.6,0,3,.15,7.07.15s5.87-.15,6.37-.15.5.1.5.35Z"/></svg>