<svg xmlns="http://www.w3.org/2000/svg" xmlns:xlink="http://www.w3.org/1999/xlink" viewBox="0 0 360 164.77"><defs><clipPath id="a"><rect width="360" height="164.77" fill="none"/></clipPath></defs><title>color</title><g clip-path="url(#a)"><path d="M346.64,51.21a12.61,12.61,0,0,0-12.55,11.38H312.2a17.32,17.32,0,0,0-2.73-7.21L325,39.86a12.65,12.65,0,1,0-4-4.54L305.31,51A17.31,17.31,0,0,0,298,47.89V25.59a12.62,12.62,0,1,0-6,0V47.88A17.28,17.28,0,0,0,284.66,51L269.73,36.07a12.65,12.65,0,1,0-4.24,4.25l15,15a17.37,17.37,0,0,0-2.76,7.26H255.56a12.62,12.62,0,1,0,0,6h22.34A17.32,17.32,0,0,0,281,75.38L268.23,88.12l4.25,4.24,12.82-12.82A17.37,17.37,0,0,0,292,82.19v22.26a12.62,12.62,0,1,0,6,0V82.18a17.35,17.35,0,0,0,6.66-2.67l15,15a12.65,12.65,0,1,0,3.82-4.67L309,75.34a17.3,17.3,0,0,0,3-6.74H335a12.62,12.62,0,1,0,11.68-17.39Z" fill="none" stroke="#f37321" stroke-width="1.48"/></g><path d="M50.41,128.23c-5.22.08-5.84.08-10.6.31l-.55-.55c-.94-4.75-2.41-11.07-3.74-16.6L31,92.7l-4.6,19.17c-2.34,9.43-3.11,12.47-3.82,15.89l-.47.47c-5.46.08-5.85.08-10.75.31l-.47-.55C7.48,114.05,1.63,93.64,0,88.5L.31,88c3.74-.24,4.75-.24,8.49-.62l.47.46c.47,2.57,1,5,4.36,19.4l3.74,16,5.06-21c2.34-10.36,2.5-11.37,3-13.87l.55-.55c4.6,0,5.92,0,11.06-.24l.47.55c1.09,5.38,3,12.86,4.36,18.78L46,123.48l4.36-18.16,1.87-8.18a78.94,78.94,0,0,0,1.95-8.88l.54-.47c1.25,0,2.57.08,3.82.08s2.34-.08,3.51-.08l.47.47C61,92.7,54.15,114.44,51,127.76l-.55.47" fill="#23231a"/><path d="M104.09,107.43c-.15-5.45-1.17-10.91-4.75-15-3.43-3.9-8.65-5.61-13.95-5.61-7.79,0-12.31,3.2-14.49,5.46-5.22,5.22-5.37,12.85-5.37,15.82,0,2.57.08,10.52,5.37,15.89,2.5,2.57,6.93,5.22,13.95,5.22,5.46,0,10.05-1.32,13.48-4.75a18.6,18.6,0,0,0,5.06-9.43,33.67,33.67,0,0,0,.7-7.56m-8.49.31c.08,1.64,0,6.86-1.79,10.36a9.47,9.47,0,0,1-8.88,5.22,10.42,10.42,0,0,1-4.6-1c-6.16-3.12-6.23-11-6.23-14.1,0-3.27.23-7.79,2.34-11A9.67,9.67,0,0,1,85,92.7a9.09,9.09,0,0,1,8.34,4.44c1.95,3.43,2.26,8.65,2.26,10.6" fill="#23231a"/><path d="M131.13,95.9a8,8,0,0,0-3.11-.7,5.8,5.8,0,0,0-3.27,1c-3.2,2.26-3.2,5.69-3.2,13.79,0,8.81.23,13.4.55,17.76l-.39.55c-3.66,0-4.52.08-8.26.24l-.39-.47c.08-5.92.15-11.3.15-18.54,0-12.47-.23-15.66-.7-20.18l.47-.55c3-.55,4.83-.93,8.1-1.56l.47.46-.39,6.62c.94-2.49,2.88-7.48,9.51-7.48a8.12,8.12,0,0,1,2.18.23l.31.47c-.78,3.74-.94,4.52-1.48,7.95l-.55.39" fill="#23231a"/><path d="M172.58,128.23h-3.35a56.9,56.9,0,0,0-6,.31l-.62-.47c-4.13-6.93-12-18.23-15.43-23.06l.15,9.58c.08,7.17.31,10.28.47,13.17l-.39.55c-4,.08-4.52.08-8.1.24l-.47-.47c.15-5,.31-10.52.31-22,0-4.05,0-8.18-.08-12.23,0-14.41-.23-18.39-.78-25.55l.46-.55c3.59-.62,4.36-.78,8.34-1.56l.55.47c-.23,8-.39,11.77-.39,21.82v16.13c4.44-5.37,9-10.67,13.09-16.36l.7-.47c2.34-.08,4.36-.08,8.57-.23l.24.7C163,96,162,97.22,156.14,104c7.33,10.52,9.2,13.17,16.75,23.45l-.31.78" fill="#23231a"/><path d="M186.52,76.42c-4,.16-4.83.24-8.65.62l-.47-.46c.08-1,.08-2.1.08-3.12,0-1.4-.08-2.65-.15-4.21l.55-.47c4.05-.31,4.75-.39,8.65-.78l.47.47c-.08,3.2-.08,4,0,7.4l-.47.55m-.08,51.81c-4.05.08-4.67.08-8.49.31l-.39-.55c.24-4.13.47-7.71.47-16.36,0-14.88-.23-17.69-.78-22.29l.39-.55c3.35-.55,4.52-.7,8.41-1.56l.78.46c-.24,4.05-.47,8.26-.47,18.31,0,14.49.15,16.44.47,21.74Z" fill="#23231a"/><path d="M231.87,128.23c-3.74.08-4.21.08-7.79.31l-.54-.55c0-.86.08-1.71.08-2.57.07-3.82.07-7.63.07-11.45,0-12-.07-12.78-.46-14.42-1.48-5.92-5.92-5.92-7-5.92-4.67,0-8.26,2.73-10.36,4.36-.08,13.56.08,20.65.62,29.76l-.47.47c-3.82.08-4.44.08-8.18.31l-.39-.55c.08-4.36.24-8.57.24-14.34,0-12.47-.55-19.09-.94-24.31l.47-.55c3.9-.7,4.6-.86,8.26-1.56l.54.54-.08,4.05c2-1.4,6.86-4.83,13.72-4.83a13.47,13.47,0,0,1,6.47,1.48,10.54,10.54,0,0,1,4.52,5.06c1,2.34,1.09,4.67,1.17,9.51v9.12c.24,9.12.31,12.62.55,15.58l-.47.47" fill="#23231a"/><path d="M257.81,127.84c4.91,1.33,9.51,2.5,9.51,7.64,0,3.66-3,7.09-9.43,7.09-8,0-10.29-4.83-10.29-7.71,0-3.51,1.87-5.77,4.6-8.49l5.61,1.48m-3.51-12.54a23.8,23.8,0,0,0,3.43.24c9.74,0,15.27-6.24,15.27-13.48a11.18,11.18,0,0,0-3.66-8.73l6.54.47.47-.47c.15-2.49.15-2.49.39-5.14l-.39-.47c-5.61.08-7.32.08-11.77,0l-1.95-.08c-1.56,0-3.12-.08-4.36-.08-4.28,0-12.08.39-15.82,7.56a15.08,15.08,0,0,0-1.64,6.94c0,4.75,2.26,9.58,7.48,11.68-1.95,3-2.88,4.44-5.3,7.95l.15.94c1.48.7,2,.94,3.66,1.64-3,2.41-6.94,5.61-6.94,11.3,0,6.62,6,12.23,17.61,12.23,12.46,0,18.15-7.17,18.15-13.87,0-8.49-7.32-10.75-9.51-11.45S254,119.35,252,118.8Zm10.75-13.56c.08,3.66-1.56,8.65-7.95,8.65s-8.26-4.83-8.26-8.65c0-5.14,3.19-8.88,8.26-8.88,5.84,0,7.87,4.68,7.95,8.88" fill="#23231a"/><path d="M22.38,163.91c.2.43.31.45.79.45H26c.2,0,.48,0,.48-.33a.68.68,0,0,0-.11-.36l-6.89-16.76c-.17-.33-.26-.38-.68-.38H17.18c-.45,0-.54.13-.68.48L9.61,163.56a3.18,3.18,0,0,0-.17.48c0,.33.34.33.54.33h1.87c.48,0,.56-.07.74-.48l2-5.1h5.74l2.06,5.12m-7.09-7,2.15-5.83,2.18,5.83Z" fill="#f37321"/><path d="M35.49,163.46c0,.51.14.68.56.78a19.76,19.76,0,0,0,4.07.33c3.25,0,6.61-.68,8.9-2.75a8.95,8.95,0,0,0-.42-13.17c-2.69-2.17-6.16-2.3-7.83-2.3a21,21,0,0,0-4.8.48c-.25.07-.48.18-.48.76v15.87m3.84-14.91c.37,0,.71-.08,1.24-.08a7.24,7.24,0,0,1,5.59,2.27,7,7,0,0,1,1.47,4.62A7.09,7.09,0,0,1,46.22,160a7.74,7.74,0,0,1-6,2.34c-.23,0-.48,0-.87,0Z" fill="#f37321"/><path d="M67.9,158.74,72.22,147c.17-.43.28-.48.71-.48H74.8c.28,0,.59,0,.59.33,0,.05,0,.1-.14.4l-6.44,16.61c-.17.4-.26.48-.73.48H66.71c-.28,0-.34-.13-.48-.45l-6.64-16.63a1.34,1.34,0,0,1-.11-.4c0-.33.34-.33.54-.33h2.8c.48,0,.59,0,.77.48l4.32,11.71" fill="#f37321"/><path d="M93.34,163.91c.2.43.31.45.79.45H97c.2,0,.48,0,.48-.33a.68.68,0,0,0-.11-.36l-6.89-16.76c-.17-.33-.25-.38-.68-.38H88.14c-.45,0-.54.13-.68.48l-6.89,16.53a3.18,3.18,0,0,0-.17.48c0,.33.34.33.54.33H82.8c.48,0,.56-.07.74-.48l2-5.1h5.74l2.06,5.12m-7.09-7,2.15-5.83,2.18,5.83Z" fill="#f37321"/><path d="M119.11,158.28V147.05c0-.38.11-.5.56-.5h1.78c.45,0,.56.1.56.5v16.81c0,.43-.17.51-.59.51h-1.58c-.34-.05-.42-.13-.74-.53l-9.72-12.24v12.21c0,.4-.09.56-.56.56H107c-.45,0-.62-.05-.62-.51V147.08c0-.48.23-.53.62-.53h2.15a.86.86,0,0,1,.91.46l9,11.28" fill="#f37321"/><path d="M140,148.8v15c0,.43-.11.61-.59.61h-2.57c-.51,0-.68-.1-.68-.61v-15h-4.26c-.51,0-.62-.15-.62-.56v-1.19c0-.46.2-.53.62-.53h12.4c.4,0,.62.05.62.48v1.24c0,.4-.11.56-.62.56H140" fill="#f37321"/><path d="M162.51,163.91c.2.43.31.45.79.45h2.85c.2,0,.48,0,.48-.33a.68.68,0,0,0-.11-.36l-6.89-16.76c-.17-.33-.26-.38-.68-.38h-1.64c-.45,0-.54.13-.68.48l-6.89,16.53a3.18,3.18,0,0,0-.17.48c0,.33.34.33.54.33H152c.48,0,.56-.07.74-.48l2-5.1h5.74l2.06,5.12m-7.09-7,2.15-5.83,2.18,5.83Z" fill="#f37321"/><path d="M186.9,157.1h-3c-.42,0-.56-.05-.62-.3s0-.88,0-1.31.26-.46.65-.46h6c.56,0,.62.18.62.63v5.7a1.74,1.74,0,0,1-.48,1.44c-.82.88-2.82,2-6.16,2-7.2,0-9.46-4.92-9.46-9.31,0-5.4,3.59-9.33,9.21-9.33,4.72,0,6.92,2.5,6.92,3.83a1.55,1.55,0,0,1-1.67,1.49,2.16,2.16,0,0,1-1.87-1.24,3.91,3.91,0,0,0-3.45-2c-2.8,0-5,2.25-5,6.81,0,4.19,1.89,7.42,5.62,7.42a4.2,4.2,0,0,0,2.09-.48c.62-.4.65-.91.65-1.67V157.1" fill="#f37321"/><path d="M205.67,156.21v5.86h6.69c.43,0,.65,0,.65.5V164c-.05.25-.17.33-.65.33h-9.83c-.48,0-.68,0-.68-.58V147.23c0-.55.17-.68.68-.7h9.83c.4,0,.68,0,.65.48v1.24c0,.5-.17.56-.65.56h-6.69V154h5.65c.43,0,.6.05.6.48v1.24c0,.46-.17.5-.62.5h-5.62" fill="#f37321"/></svg>