<?xml version="1.0" encoding="utf-8"?>
<!-- Generator: Adobe Illustrator 19.1.0, SVG Export Plug-In . SVG Version: 6.00 Build 0)  -->
<svg version="1.1" id="Layer_1" xmlns="http://www.w3.org/2000/svg" xmlns:xlink="http://www.w3.org/1999/xlink" x="0px" y="0px"
	 width="165.6px" height="141px" viewBox="0 0 165.6 141" style="enable-background:new 0 0 165.6 141;" xml:space="preserve">
<g>
	<path d="M-124.2,36.8h-35.4h-2.2h-24.6l-11.9,44.1c-0.3,1.3-0.7,2.2-0.9,2.7c-0.3,0.5-0.6,0.8-1.1,1.1c-0.4,0.2-1.1,0.4-2.1,0.4
		v7.8h17.3v-7.8c-1.4,0-2.3-0.1-2.6-0.2c-0.5-0.2-0.8-0.4-1-0.8c-0.2-0.3-0.3-0.7-0.3-1.2c0-0.4,0.1-1.2,0.4-2.4l3.2-11.6h7.6
		l0,11.7c0,0.8,0.1,2.6-0.9,3.5c-0.5,0.5-1,0.8-1.4,0.8l-1.9,0.1v7.8h19h1.2h19.2v-7.8h-1.6c-1.1,0-1.8-0.1-2.1-0.4
		c-0.4-0.2-0.4-0.7-0.8-1.1c-0.3-0.3-0.2-1.4-0.2-2.8V69h2.1c1,0,2.4,0.1,3.1,0.7c0.7,0.5,1.3,1.4,1.3,1.4h4.5V58.7h-5
		c0,0-0.2,1.1-0.8,1.5c-0.5,0.4-2.2,0.6-3.1,0.6h-2.2V46h10.1c2,0,3.4,0.1,4.2,0.3c1.2,0.3,3.1,1.1,3.9,3.7l4.9,0L-124.2,36.8z
		 M-177.8,45.9v14.8h-5.4l3.9-14.8L-177.8,45.9z"/>
	
		<linearGradient id="SVGID_1_" gradientUnits="userSpaceOnUse" x1="-255.0361" y1="147.8188" x2="-162.5468" y2="79.2438" gradientTransform="matrix(0.8465 0 0 0.8465 11.4788 -33.4891)">
		<stop  offset="0" style="stop-color:#E03A3E"/>
		<stop  offset="5.826695e-02" style="stop-color:#E13D40"/>
		<stop  offset="0.1051" style="stop-color:#E24745"/>
		<stop  offset="0.1479" style="stop-color:#E4574F"/>
		<stop  offset="0.1883" style="stop-color:#E76B5E"/>
		<stop  offset="0.2267" style="stop-color:#EA8272"/>
		<stop  offset="0.2584" style="stop-color:#EE9A89"/>
		<stop  offset="0.3261" style="stop-color:#E87768"/>
		<stop  offset="0.3918" style="stop-color:#E45950"/>
		<stop  offset="0.4445" style="stop-color:#E14243"/>
		<stop  offset="0.4775" style="stop-color:#E03A3E"/>
		<stop  offset="0.5071" style="stop-color:#E14142"/>
		<stop  offset="0.5498" style="stop-color:#E3544D"/>
		<stop  offset="0.6003" style="stop-color:#E76E60"/>
		<stop  offset="0.6564" style="stop-color:#EC8E7D"/>
		<stop  offset="0.6742" style="stop-color:#EE9A89"/>
		<stop  offset="0.7166" style="stop-color:#EA806F"/>
		<stop  offset="0.7625" style="stop-color:#E66A5D"/>
		<stop  offset="0.8114" style="stop-color:#E4564F"/>
		<stop  offset="0.8638" style="stop-color:#E24745"/>
		<stop  offset="0.9225" style="stop-color:#E13D40"/>
		<stop  offset="1" style="stop-color:#E03A3E"/>
	</linearGradient>
	<path style="fill:url(#SVGID_1_);stroke:#000000;stroke-width:0.5924;" d="M-125.8,35.2h-35.4h-2.2h-24.6l-11.9,44.1
		c-0.3,1.3-0.7,2.2-0.9,2.7c-0.3,0.5-0.6,0.8-1.1,1.1c-0.4,0.2-1.1,0.4-2.1,0.4v7.8h17.3v-7.8c-1.4,0-2.3-0.1-2.6-0.2
		c-0.5-0.2-0.8-0.4-1-0.8c-0.2-0.3-0.3-0.7-0.3-1.2c0-0.4,0.1-1.2,0.4-2.4l3.2-11.6h7.6l0,11.6c0,0.8,0.2,2.6-0.9,3.5
		c-0.5,0.5-1,0.8-1.4,0.8l-1.9,0.1v7.8h18.9h1.2h19.2v-7.8h-1.6c-1.1,0-1.8-0.1-2.1-0.4c-0.4-0.2-0.4-0.7-0.8-1.1
		c-0.3-0.3-0.2-1.4-0.2-2.8V67.4h2.1c1,0,2.4,0.1,3.1,0.7c0.7,0.5,1.3,1.4,1.3,1.4h4.5V57.1h-5c0,0-0.2,1.1-0.8,1.5
		c-0.5,0.4-2.2,0.6-3.1,0.6h-2.2V44.4h10.1c2,0,3.4,0.1,4.2,0.3c1.2,0.3,3.1,1.1,3.9,3.7l4.9,0L-125.8,35.2z M-179.4,44.4v14.8h-5.4
		l3.9-14.8L-179.4,44.4z"/>
	<polygon style="fill:#004785;" points="-202.5,9.7 -199.1,12.2 -195.6,9.7 -196.9,13.8 -193.4,16.3 -197.7,16.3 -199.1,20.4 
		-200.4,16.3 -204.7,16.3 -201.2,13.8 	"/>
	
		<linearGradient id="SVGID_2_" gradientUnits="userSpaceOnUse" x1="-212.4397" y1="114.7782" x2="-202.329" y2="114.7782" gradientTransform="matrix(0.8465 0 0 0.8465 11.4788 -33.4891)">
		<stop  offset="0" style="stop-color:#FFFFFF"/>
		<stop  offset="8.867659e-02" style="stop-color:#F3F3F3"/>
		<stop  offset="0.2512" style="stop-color:#D1D1D1"/>
		<stop  offset="0.4693" style="stop-color:#9C9C9C"/>
		<stop  offset="0.7346" style="stop-color:#515151"/>
		<stop  offset="1" style="stop-color:#000000"/>
	</linearGradient>
	<polygon style="fill:url(#SVGID_2_);stroke:#000000;stroke-width:0.5126;" points="-162.2,94.7 -160.1,32.6 -168.1,32.6 -166,94.7 
			"/>
	
		<linearGradient id="SVGID_3_" gradientUnits="userSpaceOnUse" x1="-4367.8408" y1="-3482.6724" x2="-4320.8848" y2="-3482.6724" gradientTransform="matrix(0.4601 0 0 0.4601 1834.6843 1631.6521)">
		<stop  offset="0" style="stop-color:#FFFFFF"/>
		<stop  offset="8.867659e-02" style="stop-color:#F3F3F3"/>
		<stop  offset="0.2512" style="stop-color:#D1D1D1"/>
		<stop  offset="0.4693" style="stop-color:#9C9C9C"/>
		<stop  offset="0.7346" style="stop-color:#515151"/>
		<stop  offset="1" style="stop-color:#000000"/>
	</linearGradient>
	<path style="fill:url(#SVGID_3_);stroke:#000000;stroke-width:0.5126;" d="M-164.1,30.4c8.8,0,10.7-1.5,10.7-1.5v-0.8h-21.4V29
		C-174.8,29-172.9,30.4-164.1,30.4z"/>
	
		<linearGradient id="SVGID_4_" gradientUnits="userSpaceOnUse" x1="-4355.6143" y1="-3479.6211" x2="-4333.1113" y2="-3479.6211" gradientTransform="matrix(0.4601 0 0 0.4601 1834.6843 1631.6521)">
		<stop  offset="0" style="stop-color:#FFFFFF"/>
		<stop  offset="8.867659e-02" style="stop-color:#F3F3F3"/>
		<stop  offset="0.2512" style="stop-color:#D1D1D1"/>
		<stop  offset="0.4693" style="stop-color:#9C9C9C"/>
		<stop  offset="0.7346" style="stop-color:#515151"/>
		<stop  offset="1" style="stop-color:#000000"/>
	</linearGradient>
	<rect x="-169.2" y="30.2" style="fill:url(#SVGID_4_);stroke:#000000;stroke-width:0.5126;" width="10.2" height="1"/>
	
		<linearGradient id="SVGID_5_" gradientUnits="userSpaceOnUse" x1="-4376.4932" y1="-3488.0039" x2="-4312.2261" y2="-3488.0039" gradientTransform="matrix(0.4601 0 0 0.4601 1834.6843 1631.6521)">
		<stop  offset="0" style="stop-color:#FFFFFF"/>
		<stop  offset="8.867659e-02" style="stop-color:#F3F3F3"/>
		<stop  offset="0.2512" style="stop-color:#D1D1D1"/>
		<stop  offset="0.4693" style="stop-color:#9C9C9C"/>
		<stop  offset="0.7346" style="stop-color:#515151"/>
		<stop  offset="1" style="stop-color:#000000"/>
	</linearGradient>
	<rect x="-178.8" y="25.5" style="fill:url(#SVGID_5_);stroke:#000000;stroke-width:0.5126;" width="29.4" height="2.6"/>
	
		<linearGradient id="SVGID_6_" gradientUnits="userSpaceOnUse" x1="-4386.9922" y1="-3492.2979" x2="-4301.7285" y2="-3492.2979" gradientTransform="matrix(0.4601 0 0 0.4601 1834.6843 1631.6521)">
		<stop  offset="0" style="stop-color:#FFFFFF"/>
		<stop  offset="8.867659e-02" style="stop-color:#F3F3F3"/>
		<stop  offset="0.2512" style="stop-color:#D1D1D1"/>
		<stop  offset="0.4693" style="stop-color:#9C9C9C"/>
		<stop  offset="0.7346" style="stop-color:#515151"/>
		<stop  offset="1" style="stop-color:#000000"/>
	</linearGradient>
	<rect x="-183.6" y="24.2" style="fill:url(#SVGID_6_);stroke:#000000;stroke-width:0.5126;" width="39" height="1.4"/>
	
		<radialGradient id="SVGID_7_" cx="-208.4331" cy="56.4183" r="34.9637" gradientTransform="matrix(0.8465 0 0 0.8465 11.4788 -33.4891)" gradientUnits="userSpaceOnUse">
		<stop  offset="0" style="stop-color:#FADDD3"/>
		<stop  offset="0.2897" style="stop-color:#F8D2C7"/>
		<stop  offset="0.8178" style="stop-color:#F3B7A8"/>
		<stop  offset="1" style="stop-color:#F1AC9D"/>
	</radialGradient>
	<path style="fill:url(#SVGID_7_);stroke:#000000;stroke-width:0.5126;" d="M-168.5,19.4c1.4,0,8.9,0,8.9,0c3.1-1.7,6-8.4-0.6-12.7
		c-4.6-3-16.2,0.6-26.7-1c2.6,2,4.9,2.3,4.9,2.3c-5.4,1.2-16,2.2-29.6,0.2c1.1-0.1,9.2,4.9,18.9,5.2
		C-176.3,13.9-171.4,19.6-168.5,19.4z"/>
	<path style="fill:#FCEBE5;" d="M-167.2,19.4h6.2c3.2-2.8,6.5-11.4-6.2-13.1c0,0,11,3,4.6,9.9c0,0,2.3-4.9-2.9-6.3
		c2.7,3.5,0.8,5.7-0.1,6.3c-1.6,1.1-8.4-2.2-13.3-2.1C-174,15.1-167.2,19.4-167.2,19.4z"/>
	
		<linearGradient id="SVGID_8_" gradientUnits="userSpaceOnUse" x1="-4354.1611" y1="-3498.9785" x2="-4334.5083" y2="-3498.9785" gradientTransform="matrix(0.4601 0 0 0.4601 1834.6843 1631.6521)">
		<stop  offset="0" style="stop-color:#FFFFFF"/>
		<stop  offset="8.867659e-02" style="stop-color:#F3F3F3"/>
		<stop  offset="0.2512" style="stop-color:#D1D1D1"/>
		<stop  offset="0.4693" style="stop-color:#9C9C9C"/>
		<stop  offset="0.7346" style="stop-color:#515151"/>
		<stop  offset="1" style="stop-color:#000000"/>
	</linearGradient>
	<rect x="-168.5" y="19.4" style="fill:url(#SVGID_8_);stroke:#000000;stroke-width:0.5126;" width="8.9" height="4.8"/>
	
		<linearGradient id="SVGID_9_" gradientUnits="userSpaceOnUse" x1="-4387.022" y1="-3496.5928" x2="-4301.707" y2="-3496.5928" gradientTransform="matrix(0.4601 0 0 0.4601 1834.6843 1631.6521)">
		<stop  offset="0" style="stop-color:#FFFFFF"/>
		<stop  offset="8.867659e-02" style="stop-color:#F3F3F3"/>
		<stop  offset="0.2512" style="stop-color:#D1D1D1"/>
		<stop  offset="0.4693" style="stop-color:#9C9C9C"/>
		<stop  offset="0.7346" style="stop-color:#515151"/>
		<stop  offset="1" style="stop-color:#000000"/>
	</linearGradient>
	<path style="fill:url(#SVGID_9_);stroke:#000000;stroke-width:0.5126;" d="M-144.6,21.6v2.5h-39v-2.5l0,0c1.1,0,0.6,1.9,1.7,1.9
		c1.1,0,0-1.9,1-1.9c1.1,0,1.2,1.9,2.3,1.9c1.1,0,0.4-1.9,1.5-1.9c1.1,0,1.3,1.9,2.4,1.9c1.1,0,0.8-1.9,1.9-1.9
		c1.1,0,1.1,1.9,2.2,1.9c1.1,0,1.1-1.9,2.1-1.9c1.1,0,1.1,1.9,2.2,1.9c1.1,0,1.1-1.9,2.1-1.9c1.1,0,1.1,1.9,2.1,1.9
		c1.1,0,1.1-1.9,2.1-1.9c1.1,0,1.1,1.9,2.2,1.9c1.1,0,1.1-1.9,2.1-1.9c1.1,0,1.1,1.9,2.2,1.9c1.1,0,0.9-1.9,2-1.9
		c1.1,0,0.4,1.9,1.5,1.9c1.1,0,1.2-1.9,2.3-1.9c1.1,0,0,1.9,1.1,1.9C-145.5,23.5-145.7,21.6-144.6,21.6L-144.6,21.6z"/>
	<line style="fill:none;stroke:#4D4D4D;stroke-width:0.5126;" x1="-164.1" y1="32.6" x2="-164.1" y2="92.9"/>
	<line style="fill:none;stroke:#333333;stroke-width:0.5126;" x1="-162.5" y1="32.6" x2="-163.3" y2="92.9"/>
	<line style="fill:none;stroke:#000000;stroke-width:0.4;" x1="-161" y1="32.6" x2="-162.7" y2="93.1"/>
	<line style="fill:none;stroke:#808080;stroke-width:0.5126;" x1="-165.7" y1="32.6" x2="-164.8" y2="92.9"/>
	<line style="fill:none;stroke:#999999;stroke-width:0.5126;" x1="-167.1" y1="32.7" x2="-165.4" y2="93.1"/>
	
		<linearGradient id="SVGID_10_" gradientUnits="userSpaceOnUse" x1="-4354.1865" y1="-3476.9648" x2="-4334.5337" y2="-3476.9648" gradientTransform="matrix(0.4601 0 0 0.4601 1834.6843 1631.6521)">
		<stop  offset="0" style="stop-color:#FFFFFF"/>
		<stop  offset="8.867659e-02" style="stop-color:#F3F3F3"/>
		<stop  offset="0.2512" style="stop-color:#D1D1D1"/>
		<stop  offset="0.4693" style="stop-color:#9C9C9C"/>
		<stop  offset="0.7346" style="stop-color:#515151"/>
		<stop  offset="1" style="stop-color:#000000"/>
	</linearGradient>
	<rect x="-168.5" y="31.2" style="fill:url(#SVGID_10_);stroke:#000000;stroke-width:0.5126;" width="8.9" height="1.5"/>
	
		<radialGradient id="SVGID_11_" cx="-4344.3789" cy="-3339.1455" r="5.505" fx="-4347.0977" fy="-3341.6829" gradientTransform="matrix(0.4601 0 0 0.4601 1834.6843 1631.6521)" gradientUnits="userSpaceOnUse">
		<stop  offset="0" style="stop-color:#FFFFFF"/>
		<stop  offset="0.1539" style="stop-color:#FCFCFC"/>
		<stop  offset="0.2833" style="stop-color:#F1F1F1"/>
		<stop  offset="0.4038" style="stop-color:#E0E0E0"/>
		<stop  offset="0.519" style="stop-color:#C7C7C7"/>
		<stop  offset="0.6304" style="stop-color:#A7A7A7"/>
		<stop  offset="0.7389" style="stop-color:#818181"/>
		<stop  offset="0.8452" style="stop-color:#525252"/>
		<stop  offset="0.947" style="stop-color:#1E1E1E"/>
		<stop  offset="1" style="stop-color:#000000"/>
	</radialGradient>
	<path style="fill:url(#SVGID_11_);stroke:#000000;stroke-width:0.5126;" d="M-163.7,97.8c1.1,0,2-0.9,2-2V95c0-1.1-0.9-2-2-2h-0.8
		c-1.1,0-2,0.9-2,2v0.8c0,1.1,0.9,2,2,2H-163.7z"/>
	<polygon style="fill:#004785;" points="-219.1,91.9 -215.1,93.5 -212.3,90.1 -212.6,94.4 -208.6,96 -212.7,97.1 -213,101.4 
		-215.3,97.7 -219.4,98.9 -216.7,95.5 	"/>
	<polygon style="fill:#004785;" points="-225.1,74.5 -221.7,77.2 -218.1,74.8 -219.6,78.8 -216.3,81.5 -220.6,81.3 -222,85.3 
		-223.2,81.2 -227.5,81 -223.9,78.6 	"/>
	<polygon style="fill:#004785;" points="-225.5,54.7 -223.2,58.3 -219,57.2 -221.7,60.5 -219.4,64.1 -223.4,62.6 -226.1,65.9 
		-225.9,61.6 -229.9,60.1 -225.8,59 	"/>
	<polygon style="fill:#004785;" points="-110.2,36.1 -108.7,40.1 -104.4,39.9 -107.8,42.6 -106.2,46.7 -109.8,44.3 -113.2,47 
		-112.1,42.8 -115.6,40.5 -111.3,40.3 	"/>
	<polygon style="fill:#004785;" points="-225.7,40 -221.4,40.2 -219.9,36.1 -218.8,40.3 -214.5,40.5 -218.1,42.8 -216.9,47 
		-220.3,44.3 -223.9,46.7 -222.4,42.6 	"/>
	<polygon style="fill:#004785;" points="-216.1,22.7 -212.1,24.2 -209.4,20.8 -209.6,25.1 -205.5,26.6 -209.6,27.8 -209.8,32.1 
		-212.2,28.5 -216.3,29.7 -213.7,26.3 	"/>
	<polygon style="fill:#004785;" points="-117.8,90.1 -115.1,93.5 -111.1,91.9 -113.4,95.5 -110.7,98.9 -114.9,97.8 -117.2,101.4 
		-117.4,97.1 -121.6,96 -117.6,94.4 	"/>
	<polygon style="fill:#004785;" points="-112,74.8 -108.4,77.2 -105.1,74.5 -106.2,78.7 -102.7,81 -107,81.2 -108.1,85.4 
		-109.6,81.3 -113.9,81.5 -110.5,78.8 	"/>
	<polygon style="fill:#004785;" points="-104.6,54.7 -104.4,59 -100.2,60.2 -104.3,61.7 -104.1,66 -106.8,62.6 -110.8,64.1 
		-108.4,60.5 -111.1,57.2 -107,58.3 	"/>
	<polygon style="fill:#004785;" points="-120.8,20.8 -118.1,24.2 -114.1,22.7 -116.5,26.3 -113.8,29.7 -118,28.5 -120.4,32 
		-120.5,27.7 -124.7,26.6 -120.6,25.1 	"/>
	<polygon style="fill:#004785;" points="-134.6,9.7 -131.1,12.2 -127.6,9.7 -128.9,13.8 -125.4,16.3 -129.7,16.3 -131,20.4 
		-132.4,16.3 -136.7,16.4 -133.2,13.8 	"/>
</g>
<g>
	<g>
		<path d="M-297.1,132.6v-0.7c1.3-0.2,1.9-1.2,2.5-2.3l10.5-16.5h0.7l2.9,17.1c0.1,0.4,0.2,0.7,0.4,1c0.1,0.2,0.3,0.3,0.5,0.5
			c0.5,0.1,0.9,0.2,1.4,0.2v0.7h-8.7v-0.7c0.5,0,1-0.1,1.5-0.3c0.7-0.3,0.8-0.8,0.8-1.5l-0.4-3.5h-6.1l-1.9,3.4
			c-0.1,0.3-0.2,0.6-0.2,0.8c0,1,1.2,1,1.8,1v0.7H-297.1z M-290.6,125.6h5.3l-1-7L-290.6,125.6z"/>
		<path d="M-277.4,132.6l2.9-11c0.2-0.7-0.9-0.8-1.5-0.7v-0.8c1.7-0.1,3.6-0.4,5.7-0.8l-1.6,5.3l0.1,0.1c1.2-2,3.3-5.4,6-5.4
			c1.7,0,2.3,1.6,1.2,4.6l0.1,0.1c1-1.7,3-4.7,5.3-4.7c1.2,0,3.2,0.3,2.1,3.9l-2.3,7.3c-0.2,0.7,1,0.7,2.4-1.7l0.6,0.4
			c-0.9,1.7-2.4,3.8-4.5,3.8c-1.5,0-2.4-1.4-1.9-3l2.3-7.1c0.2-0.6,0.4-1.4-0.5-1.4c-1.3,0-3,3-3.5,4c-0.8,1.6-1.4,3.6-2.5,7.1h-3.4
			l2.9-9.6c0.3-1.4,0-1.8-0.8-1.3c-1.2,0.8-2.5,2.4-3.8,5.5c-0.8,1.7-1.2,3.6-1.7,5.4H-277.4z"/>
		<path d="M-255.9,132.6v-0.7c0.5-0.1,1-0.1,1.4-0.4c0.7-0.5,0.8-1.2,1-2l3.7-14c0-1.4-1-1.1-2.1-1.3v-0.7h15.2l-1.2,5.4l-0.8-0.1
			c0.1-2.8-1.2-4.4-5-4.4c-0.4,0-1.2,0-1.4,0.3c-0.3,0.3-0.4,0.8-0.5,1.3l-1.6,6c2.9-0.1,4.4-0.1,5.7-3l0.8,0.1l-2.1,7.8l-0.8-0.1
			c0.1-0.4,0.2-1.8-0.2-2.7c-0.5-1.2-2.6-1.1-3.6-1.2l-2,7.4c0,0.3-0.2,0.8,0.6,1.2c0.4,0.2,1,0.3,1.4,0.3v0.7H-255.9z"/>
		<path d="M-234.1,129.9c-0.1,0.3-0.1,0.6,0,0.9c0.2,0.2,0.4,0.2,1,0c0.6-0.6,1.2-1.4,1.6-2.1l0.6,0.4c-1.2,1.8-2.4,4-4.9,4
			c-1,0-2.4-0.8-1.8-3.1l2-7.3c0.4-1.5-0.1-1.6-1.5-1.6v-0.8c1.4-0.2,3.5-0.5,5.7-0.8L-234.1,129.9z M-234.1,115
			c0-1,0.9-1.9,1.9-1.9c1,0,1.9,0.9,1.9,1.9c0,1-0.9,2-1.9,2C-233.2,117-234.1,116.1-234.1,115z"/>
		<path d="M-230.1,132.6l2.7-9.6c0.3-1.1,0.3-1.6,0-1.9c-0.3-0.2-0.6-0.2-1.3-0.2v-0.8c1.8-0.3,3.6-0.4,5.7-0.8l-1.6,5.1l0.1,0.1
			c0.7-1.5,2.5-5.1,4.4-5.1c1,0,1.6,0.8,1.6,1.7c0,1-0.5,2.2-1.7,2.2c-0.6,0-0.9-0.3-1.5-1c-0.2-0.1-0.4-0.1-0.5,0
			c-2.6,2.8-3.3,6.8-4.5,10.3H-230.1z"/>
		<path d="M-218.7,133l0.6-4.8l0.8,0.1c0,1.4,1,3.8,2.7,3.8c1,0,1.7-0.6,1.7-1.6c0-1.1-1.3-2.5-1.9-3.3c-1-1.3-2-2.5-2-4.2
			c0-1.3,0.6-3,2.7-3.5c0.5-0.1,1.1-0.1,1.7-0.1c0.3,0,0.8,0.3,1.6,0.5c0.5,0.1,1.1,0.2,1.3-0.5h0.8l-0.7,4.4l-0.8-0.1
			c-0.1-1.4-0.9-3.4-2.5-3.4c-0.8,0-2.3,1-1.2,2.6l2.2,2.9c0.7,0.9,1.4,2.1,1.4,3.3c0,1.3-0.7,3.9-4.2,3.9c-0.8,0-1.6-0.3-2.8-0.6
			c-0.3,0-0.6,0.2-0.7,0.6H-218.7z"/>
		<path d="M-204.8,120.9h-1.5v-1c2.2-0.8,4-2.4,5.2-4.4h1l-1.1,4.2h2.1v1.2h-2.4l-2.4,9c-0.2,0.6-0.1,1.3,0.4,1.1
			c0.8-0.4,1.6-1.5,2.2-2.3l0.6,0.4c-1.1,1.8-2.5,3.9-4.9,3.9c-0.9,0-2.7-0.4-1.2-4.5L-204.8,120.9z"/>
		<path d="M-192.8,132.4c0.8-0.1,1-0.2,1.3-1.2l1.9-7c0.1-0.3,0.2-0.7,0.2-1c0-0.6-0.4-0.6-1.1-0.7v-0.3h3.9v0.3
			c-0.8,0.1-1,0.2-1.3,1.2l-1.9,7c-0.1,0.3-0.2,0.6-0.2,1c0,0.5,0.4,0.6,1.1,0.6v0.3h-3.9V132.4z"/>
		<path d="M-179.9,131c-0.8,1.1-1.3,1.8-2.2,1.8c-0.7,0-0.8-0.5-0.8-0.9c0-0.4,1.2-4.2,1.2-4.9c0-0.3-0.1-0.5-0.4-0.5
			c-0.8,0-1.8,1.4-2.3,2.2c-0.7,1.1-0.9,1.8-1.6,3.9h-1.2c0.5-1.8,1.5-5.5,1.5-5.8c0-0.2-0.2-0.4-1-0.4v-0.3
			c0.9-0.2,1.7-0.3,2.6-0.5l0,0l-1,3.3l0,0c0.7-1.2,2.2-3.4,3.5-3.4c0.7,0,1.1,0.4,1.1,1c0,0.7-1.3,4.6-1.3,5.1
			c0,0.2,0.2,0.3,0.3,0.3c0.3,0,0.7-0.5,1.3-1.2L-179.9,131z"/>
		<path d="M-178.7,130.3c0.1,0.7,0.4,2.2,1.6,2.2c0.9,0,1.1-0.8,1.1-1.3c0-1-1.9-2.6-1.9-3.8c0-0.5,0.2-1.8,1.9-1.8
			c0.7,0,1,0.3,1.5,0.3c0.3,0,0.4-0.2,0.4-0.3h0.2l-0.3,2.2h-0.3c-0.1-0.9-0.5-1.8-1.5-1.8c-0.3,0-0.9,0.1-0.9,0.9
			c0,1,1.9,2.4,1.9,3.7c0,1.7-1.5,2.1-2.4,2.1c-0.5,0-1.1-0.3-1.6-0.3c-0.2,0-0.3,0.2-0.4,0.3h-0.3l0.3-2.5H-178.7z"/>
		<path d="M-165.8,130.9c-1,1.4-1.4,1.9-2.2,1.9c-0.7,0-0.7-0.6-0.7-0.8c0-0.3,0.3-1.6,0.7-2.9h0c-1.1,1.8-2.2,3.8-3.7,3.8
			c-0.6,0-0.9-0.2-0.9-0.9c0-0.7,1.2-4.7,1.2-5.1c0-0.5-0.3-0.5-0.9-0.5v-0.2c0.8-0.1,1.6-0.2,2.4-0.4l0,0l-1.4,5.7
			c0,0.2,0,0.5,0.3,0.5c0.7,0,1.7-1.5,2.2-2.3c0.8-1.2,1.1-2.2,1.7-3.9h1.2l-1.2,4.7c-0.1,0.3-0.3,1-0.3,1.2c0,0.1,0,0.3,0.2,0.3
			c0.3,0,0.7-0.6,1.3-1.2L-165.8,130.9z"/>
		<path d="M-164.7,132.6l1.3-4.6c0.2-0.6,0.3-1.1,0.3-1.3c0-0.2-0.1-0.5-0.6-0.5c-0.2,0-0.3,0-0.5,0.1v-0.3c0.8-0.1,1.7-0.3,2.5-0.4
			l0,0l-0.8,3.1l0,0l0.1-0.3c0.5-1,1.7-2.9,2.7-2.9c0.4,0,0.8,0.2,0.8,0.8c0,0.8-0.6,0.8-0.7,0.8c-0.7,0-0.4-0.6-0.8-0.6
			c-0.5,0-1.4,1.8-1.6,2c-0.6,1.1-0.8,1.9-1.5,4H-164.7z"/>
		<path d="M-151.8,131c-0.9,1.2-1.5,1.7-2.2,1.7c-0.7,0-0.7-0.4-0.7-0.7c0-0.4,0.1-0.7,0.3-1.7l0,0c-1.3,1.9-2.2,2.4-3.1,2.4
			c-1.6,0-1.6-1.4-1.6-1.9c0-2.3,2.4-5.3,4.5-5.3c0.7,0,1.2,0.4,1.2,0.9h0l0.2-0.7l0,0l1-0.1l0.1,0c0,0.2-1.5,5.6-1.5,6.1
			c0,0.1,0.1,0.2,0.2,0.2c0.2,0,0.6-0.4,1.3-1.1L-151.8,131z M-156.7,132c1.7,0,3.2-3.4,3.2-5c0-0.8-0.4-1.1-0.9-1.1
			c-1.8,0-3.3,3.5-3.3,4.9C-157.7,131.7-157.2,132-156.7,132z"/>
		<path d="M-143.9,131c-0.8,1.1-1.3,1.8-2.2,1.8c-0.7,0-0.8-0.5-0.8-0.9c0-0.4,1.2-4.2,1.2-4.9c0-0.3-0.1-0.5-0.4-0.5
			c-0.8,0-1.8,1.4-2.3,2.2c-0.7,1.1-0.9,1.8-1.6,3.9h-1.2c0.5-1.8,1.6-5.5,1.6-5.8c0-0.2-0.2-0.4-1-0.4v-0.3
			c0.9-0.2,1.7-0.3,2.6-0.5l0,0l-1,3.3l0,0c0.7-1.2,2.2-3.4,3.5-3.4c0.7,0,1.1,0.4,1.1,1c0,0.7-1.3,4.6-1.3,5.1
			c0,0.2,0.2,0.3,0.3,0.3c0.3,0,0.7-0.5,1.3-1.2L-143.9,131z"/>
		<path d="M-137.7,131.1c-0.4,0.5-1.3,1.7-3,1.7c-1,0-2.3-0.4-2.3-2.5c0-2.2,2.2-4.7,4.5-4.7c1.3,0,1.7,0.8,1.7,1.3
			c0,0.4-0.3,0.7-0.7,0.7c-0.4,0-0.6-0.2-0.6-0.6c0-0.4,0.2-0.5,0.2-0.8c0-0.2-0.3-0.3-0.6-0.3c-2.1,0-3.2,2.8-3.2,4.3
			c0,1.2,0.5,1.9,1.4,1.9c0.9,0,1.7-0.6,2.3-1.3L-137.7,131.1z"/>
		<path d="M-130.6,131.1c-0.2,0.3-1.6,1.7-3.2,1.7c-1.7,0-2.2-1.2-2.2-2.2c0-2.3,2.5-4.9,4.7-4.9c0.8,0,1.3,0.4,1.3,1.1
			c0,1.2-1.5,2.5-4.1,2.9l-0.4,0.1c-0.1,0.3-0.2,0.6-0.2,1c0,1.1,0.8,1.4,1.5,1.4c0.9,0,1.5-0.5,2.3-1.2L-130.6,131.1z
			 M-134.3,129.3c3.3-0.7,3.3-2.6,3.3-2.7c0-0.3-0.2-0.6-0.6-0.6c-0.9,0-1.9,1.2-2.5,2.6L-134.3,129.3z"/>
		<path d="M-115.4,125.2c0-0.4-0.2-2.6-2.4-2.6c-3.2,0-4.8,3.8-4.8,6.2c0,2.1,0.9,3.4,2.8,3.4c1.8,0,2.9-1.1,3.7-1.9l0.3,0.2
			c-0.6,0.7-2,2.4-4.3,2.4c-1.8,0-4.1-1.1-4.1-4.3c0-3.1,2.8-6.5,6.4-6.5c1.1,0,2.1,0.4,2.5,0.4c0.5,0,0.6-0.2,0.6-0.3h0.3l-0.6,3.1
			L-115.4,125.2z"/>
		<path d="M-107.5,128c0,1.9-2.2,4.8-4.6,4.8c-1.7,0-2.4-1-2.4-2.3c0-2.3,2.3-4.9,4.7-4.9C-108,125.7-107.5,126.9-107.5,128z
			 M-113.2,131c0,0.9,0.5,1.5,1.3,1.5c1.8,0,3.1-3.3,3.1-5c0-0.8-0.3-1.5-1.1-1.5C-111.7,126-113.2,129.1-113.2,131z"/>
		<path d="M-95.9,131l-0.1,0.1c-0.6,0.8-1.4,1.7-2.2,1.7c-0.7,0-0.7-0.6-0.7-0.8c0-0.4,1.2-4.8,1.2-5.2c0-0.2-0.1-0.4-0.3-0.4
			c-0.6,0-1.8,1.4-2.3,2.2c-0.8,1.2-1,2.2-1.5,4h-1.2c0.4-1.5,1.5-5.4,1.5-5.7c0-0.4-0.2-0.4-0.3-0.4c-0.7,0-1.9,1.6-2.3,2.2
			c-0.6,1-0.9,2-1.5,3.9h-1.2c0.3-1,1.6-5.5,1.6-5.9c0-0.3-0.2-0.4-1-0.4v-0.3c0.9-0.2,1.7-0.3,2.5-0.5l0,0l-0.9,3.2l0,0
			c0.5-0.8,2.1-3.2,3.4-3.2c0.6,0,0.9,0.4,0.9,1c0,0.2-0.4,1.5-0.6,2.2l0,0c1.1-1.8,2.4-3.2,3.4-3.2c0.6,0,0.9,0.4,0.9,1.1
			c0,0.5-1.3,4.8-1.3,5c0,0.3,0,0.3,0.2,0.3c0.3,0,0.7-0.5,1.3-1.2L-95.9,131z"/>
		<path d="M-94.7,126l2.5-0.3c0,0,0.1,0,0,0.2l-0.4,1.5l0,0c0.4-0.6,1.3-1.7,2.6-1.7c1.4,0,1.9,0.9,1.9,2.1c0,2.5-2.5,5.1-4.7,5.1
			c-0.4,0-0.7-0.1-1.1-0.3c-0.1,0.5-0.6,2.3-0.6,2.6c0,0.5,0.6,0.5,1,0.5v0.2h-3.2v-0.3c0.8,0,0.9-0.4,1.1-0.9c0.4-1.8,2-7.7,2-8
			c0-0.3-0.3-0.5-0.7-0.5l-0.4,0L-94.7,126z M-90.6,126.3c-0.7,0-1.7,0.7-2.1,1.8c-0.4,1-1,3.2-1,3.8c0,0.4,0.4,0.6,0.8,0.6
			c1.9,0,3.4-2.9,3.4-4.8C-89.6,127.3-89.6,126.3-90.6,126.3z"/>
		<path d="M-80.1,131c-0.9,1.2-1.5,1.7-2.2,1.7c-0.7,0-0.7-0.4-0.7-0.7c0-0.4,0.1-0.7,0.3-1.7l0,0c-1.3,1.9-2.2,2.4-3.1,2.4
			c-1.6,0-1.6-1.4-1.6-1.9c0-2.3,2.4-5.3,4.5-5.3c0.7,0,1.2,0.4,1.2,0.9h0l0.2-0.7l0,0l1-0.1l0.1,0c0,0.2-1.5,5.6-1.5,6.1
			c0,0.1,0.1,0.2,0.2,0.2c0.2,0,0.6-0.4,1.3-1.1L-80.1,131z M-85.1,132c1.7,0,3.2-3.4,3.2-5c0-0.8-0.4-1.1-0.9-1.1
			c-1.9,0-3.3,3.5-3.3,4.9C-86.1,131.7-85.5,132-85.1,132z"/>
		<path d="M-72.3,131c-0.8,1.1-1.3,1.8-2.2,1.8c-0.7,0-0.8-0.5-0.8-0.9c0-0.4,1.2-4.2,1.2-4.9c0-0.3-0.1-0.5-0.4-0.5
			c-0.8,0-1.8,1.4-2.3,2.2c-0.7,1.1-0.9,1.8-1.6,3.9h-1.2c0.5-1.8,1.6-5.5,1.6-5.8c0-0.2-0.2-0.4-1-0.4v-0.3
			c0.9-0.2,1.7-0.3,2.6-0.5l0,0l-1,3.3l0,0c0.7-1.2,2.2-3.4,3.5-3.4c0.7,0,1.1,0.4,1.1,1c0,0.7-1.3,4.6-1.3,5.1
			c0,0.2,0.2,0.3,0.3,0.3c0.3,0,0.7-0.5,1.3-1.2L-72.3,131z"/>
		<path d="M-71.6,126c0.8-0.1,2-0.4,2.3-0.4c0.2,0,1.1,2.8,1.3,4l0.3,1.8c0.7-1.1,1.9-3.2,1.9-4.1c0-0.6-0.9-0.5-0.9-1.2
			c0-0.2,0.2-0.6,0.6-0.6c0.6,0,0.9,0.4,0.9,1c0,1.9-4.4,9.3-6.3,9.3c-0.1,0-0.8,0-0.8-0.7c0-0.3,0.3-0.6,0.6-0.6
			c0.5,0,0.7,0.4,1,0.4c0.3,0,0.5-0.1,1-0.8c0.4-0.5,1.1-1.2,1.1-1.7c0-0.6-0.7-3.4-0.9-4.2c-0.4-1.4-0.6-2.1-1.5-2.1
			c-0.2,0-0.3,0-0.5,0.1V126z"/>
	</g>
	<g>
		<path d="M-64.7,131.2c0.1-0.2,0.3-0.2,0.6-0.2c0.3,0,0.5,0.1,0.7,0.3c0.2,0.2,0.3,0.5,0.3,0.8c0,0.5-0.2,1-0.6,1.5
			c-0.4,0.4-0.8,0.8-1.2,1l-0.2,0.1l-0.2-0.3c0.3-0.2,0.6-0.4,0.7-0.6c0.3-0.3,0.5-0.6,0.5-0.8c0-0.1,0-0.1,0-0.2
			c0-0.1-0.1-0.1-0.1-0.2l-0.2-0.2c-0.2-0.2-0.3-0.3-0.4-0.4c0-0.1-0.1-0.3-0.1-0.5C-64.9,131.5-64.8,131.4-64.7,131.2z"/>
		<path d="M-57.7,132.4c0.4,0,0.6-0.1,0.8-0.2c0.2-0.2,0.4-0.5,0.5-1l2-7.2c0.1-0.3,0.1-0.5,0.2-0.6c0-0.1,0-0.2,0-0.4
			c0-0.3-0.1-0.4-0.3-0.6c-0.2-0.1-0.5-0.2-1-0.2v-0.2h4.4v0.2c-0.4,0-0.8,0.1-0.9,0.2c-0.3,0.2-0.6,0.5-0.7,1l-2,7.2l-0.2,0.6
			c0,0,0,0.1,0,0.1c0,0,0,0.1,0,0.1c0,0.1,0,0.2,0.1,0.3c0.1,0.1,0.2,0.1,0.4,0.2c0.1,0,0.4,0,0.6,0.1c0.2,0,0.4,0,0.8,0
			c1.1,0,2-0.1,2.5-0.4c0.6-0.3,1.1-0.9,1.6-2l0.3,0.1l-0.9,2.9h-8.3V132.4z"/>
		<path d="M-47.9,132c0-0.1,0-0.1,0-0.2l1.5-5.5h-1.2c0-0.1,0-0.2,0-0.3c0,0,0.1-0.1,0.2-0.1c0.5-0.2,1-0.5,1.3-0.7
			c0.3-0.2,0.7-0.6,1.2-1.2l0.1-0.2c0,0,0,0,0.1-0.1c0,0,0.1,0,0.1,0c0.1,0,0.1,0,0.1,0c0,0,0,0.1,0,0.1c0,0,0,0.1,0,0.1l-0.5,1.7
			h1.3l-0.1,0.6h-1.4l-1.5,5.3c0,0.1,0,0.2,0,0.3c0,0.1,0.1,0.1,0.2,0.1c0.1,0,0.3-0.1,0.6-0.4c0.1-0.2,0.4-0.4,0.7-0.9l0.2,0.1
			L-45,131c-0.5,0.7-0.9,1.1-1.2,1.4c-0.3,0.3-0.7,0.4-1,0.4c-0.3,0-0.5-0.1-0.6-0.2c-0.1-0.1-0.2-0.3-0.2-0.5
			C-48,132.1-47.9,132.1-47.9,132z"/>
		<path d="M-38.2,125.8c0.1,0.1,0.2,0.3,0.2,0.6l0.9-3.2c0-0.1,0-0.2,0.1-0.2c0-0.1,0-0.1,0-0.2c0-0.2,0-0.3-0.1-0.4
			c-0.1-0.1-0.2-0.1-0.3-0.1c-0.1,0-0.2,0-0.2,0c-0.1,0-0.2,0-0.3,0V122c0.6-0.1,1.4-0.2,2.5-0.4l0.1,0.1l0,0.1l-1.6,5.7l-1.1,3.8
			c0,0.1,0,0.2-0.1,0.2c0,0.1,0,0.1,0,0.2c0,0.1,0,0.2,0.1,0.3c0.1,0,0.1,0.1,0.2,0.1c0.2,0,0.4-0.1,0.7-0.4
			c0.2-0.2,0.4-0.4,0.7-0.8l0.2,0.2l-0.1,0.2c-0.2,0.3-0.5,0.6-0.8,0.9c-0.6,0.5-1,0.8-1.5,0.8c-0.1,0-0.3,0-0.4-0.1
			c-0.2-0.1-0.3-0.4-0.3-0.7c0-0.1,0-0.3,0-0.5c0-0.2,0.1-0.5,0.1-0.8c-0.4,0.6-0.8,1.1-1.3,1.5c-0.5,0.4-1,0.6-1.6,0.6
			c-0.5,0-0.9-0.2-1.2-0.5c-0.3-0.3-0.5-0.8-0.5-1.5c0-1.1,0.5-2.3,1.6-3.5c1.1-1.2,2.1-1.8,3.1-1.8
			C-38.7,125.5-38.4,125.6-38.2,125.8z M-42.1,131.7c0.1,0.2,0.4,0.4,0.8,0.4c0.8,0,1.5-0.6,2.2-1.8c0.7-1.1,1-2.2,1-3.2
			c0-0.3-0.1-0.6-0.2-0.8c-0.1-0.2-0.3-0.3-0.6-0.3c-0.8,0-1.6,0.7-2.3,2c-0.7,1.2-1,2.2-1,3C-42.4,131.1-42.3,131.4-42.1,131.7z"/>
		<path d="M-34.6,132.6c-0.2-0.2-0.3-0.4-0.3-0.6s0.1-0.5,0.3-0.6c0.2-0.2,0.4-0.3,0.6-0.3c0.2,0,0.5,0.1,0.6,0.3
			c0.2,0.2,0.3,0.4,0.3,0.6s-0.1,0.5-0.3,0.6c-0.2,0.2-0.4,0.3-0.6,0.3C-34.2,132.8-34.4,132.8-34.6,132.6z"/>
	</g>
</g>
<g>
	<path d="M123.1,33.4H87.8h-2.2H61L49.1,77.5c-0.3,1.3-0.7,2.2-0.9,2.7c-0.3,0.5-0.6,0.8-1.1,1.1c-0.4,0.2-1.1,0.4-2.1,0.4v7.8h17.3
		v-7.8c-1.4,0-2.3-0.1-2.6-0.2c-0.5-0.2-0.8-0.4-1-0.8c-0.2-0.3-0.3-0.7-0.3-1.2c0-0.4,0.1-1.2,0.4-2.4L62,65.5h7.6l0,11.7
		c0,0.8,0.1,2.6-0.9,3.5c-0.5,0.5-1,0.8-1.4,0.8l-1.9,0.1v7.8h19h1.2h19.2v-7.8h-1.6c-1.1,0-1.8-0.1-2.1-0.4
		c-0.4-0.2-0.4-0.7-0.8-1.1c-0.3-0.3-0.2-1.4-0.2-2.8V65.7h2.1c1,0,2.4,0.1,3.1,0.7c0.7,0.5,1.3,1.4,1.3,1.4h4.5V55.4h-5
		c0,0-0.2,1.1-0.8,1.5c-0.5,0.4-2.2,0.6-3.1,0.6h-2.2V42.6H110c2,0,3.4,0.1,4.2,0.3c1.2,0.3,3.1,1.1,3.9,3.7l4.9,0L123.1,33.4z
		 M69.5,42.6v14.8h-5.4L68,42.6L69.5,42.6z"/>
	
		<linearGradient id="SVGID_12_" gradientUnits="userSpaceOnUse" x1="37.1459" y1="143.8807" x2="129.6352" y2="75.3058" gradientTransform="matrix(0.8465 0 0 0.8465 11.4788 -33.4891)">
		<stop  offset="0" style="stop-color:#E03A3E"/>
		<stop  offset="5.826695e-02" style="stop-color:#E13D40"/>
		<stop  offset="0.1051" style="stop-color:#E24745"/>
		<stop  offset="0.1479" style="stop-color:#E4574F"/>
		<stop  offset="0.1883" style="stop-color:#E76B5E"/>
		<stop  offset="0.2267" style="stop-color:#EA8272"/>
		<stop  offset="0.2584" style="stop-color:#EE9A89"/>
		<stop  offset="0.3261" style="stop-color:#E87768"/>
		<stop  offset="0.3918" style="stop-color:#E45950"/>
		<stop  offset="0.4445" style="stop-color:#E14243"/>
		<stop  offset="0.4775" style="stop-color:#E03A3E"/>
		<stop  offset="0.5071" style="stop-color:#E14142"/>
		<stop  offset="0.5498" style="stop-color:#E3544D"/>
		<stop  offset="0.6003" style="stop-color:#E76E60"/>
		<stop  offset="0.6564" style="stop-color:#EC8E7D"/>
		<stop  offset="0.6742" style="stop-color:#EE9A89"/>
		<stop  offset="0.7166" style="stop-color:#EA806F"/>
		<stop  offset="0.7625" style="stop-color:#E66A5D"/>
		<stop  offset="0.8114" style="stop-color:#E4564F"/>
		<stop  offset="0.8638" style="stop-color:#E24745"/>
		<stop  offset="0.9225" style="stop-color:#E13D40"/>
		<stop  offset="1" style="stop-color:#E03A3E"/>
	</linearGradient>
	<path style="fill:url(#SVGID_12_);stroke:#000000;stroke-width:0.5924;" d="M121.5,31.9H86.2H84H59.4L47.6,75.9
		c-0.3,1.3-0.7,2.2-0.9,2.7c-0.3,0.5-0.6,0.8-1.1,1.1c-0.4,0.2-1.1,0.4-2.1,0.4v7.8h17.3V80c-1.4,0-2.3-0.1-2.6-0.2
		c-0.5-0.2-0.8-0.4-1-0.8c-0.2-0.3-0.3-0.7-0.3-1.2c0-0.4,0.1-1.2,0.4-2.4L60.4,64H68l0,11.6c0,0.8,0.2,2.6-0.9,3.5
		c-0.5,0.5-1,0.8-1.4,0.8L63.7,80v7.8h18.9h1.2h19.2V80h-1.6c-1.1,0-1.8-0.1-2.1-0.4c-0.4-0.2-0.4-0.7-0.8-1.1
		c-0.3-0.3-0.2-1.4-0.2-2.8V64.1h2.1c1,0,2.4,0.1,3.1,0.7c0.7,0.5,1.3,1.4,1.3,1.4h4.5V53.8h-5c0,0-0.2,1.1-0.8,1.5
		c-0.5,0.4-2.2,0.6-3.1,0.6h-2.2V41.1h10.1c2,0,3.4,0.1,4.2,0.3c1.2,0.3,3.1,1.1,3.9,3.7l4.9,0L121.5,31.9z M67.9,41v14.8h-5.4
		L66.4,41L67.9,41z"/>
	<polygon style="fill:#004785;" points="44.8,6.3 48.3,8.9 51.8,6.4 50.4,10.5 53.9,13 49.6,13 48.2,17.1 46.9,13 42.6,13 
		46.1,10.4 	"/>
	
		<linearGradient id="SVGID_13_" gradientUnits="userSpaceOnUse" x1="79.7423" y1="110.8402" x2="89.8531" y2="110.8402" gradientTransform="matrix(0.8465 0 0 0.8465 11.4788 -33.4891)">
		<stop  offset="0" style="stop-color:#FFFFFF"/>
		<stop  offset="8.867659e-02" style="stop-color:#F3F3F3"/>
		<stop  offset="0.2512" style="stop-color:#D1D1D1"/>
		<stop  offset="0.4693" style="stop-color:#9C9C9C"/>
		<stop  offset="0.7346" style="stop-color:#515151"/>
		<stop  offset="1" style="stop-color:#000000"/>
	</linearGradient>
	<polygon style="fill:url(#SVGID_13_);stroke:#000000;stroke-width:0.5126;" points="85.2,91.4 87.3,29.3 79.2,29.3 81.3,91.4 	"/>
	
		<linearGradient id="SVGID_14_" gradientUnits="userSpaceOnUse" x1="-3830.2788" y1="-3489.9175" x2="-3783.323" y2="-3489.9175" gradientTransform="matrix(0.4601 0 0 0.4601 1834.6843 1631.6521)">
		<stop  offset="0" style="stop-color:#FFFFFF"/>
		<stop  offset="8.867659e-02" style="stop-color:#F3F3F3"/>
		<stop  offset="0.2512" style="stop-color:#D1D1D1"/>
		<stop  offset="0.4693" style="stop-color:#9C9C9C"/>
		<stop  offset="0.7346" style="stop-color:#515151"/>
		<stop  offset="1" style="stop-color:#000000"/>
	</linearGradient>
	<path style="fill:url(#SVGID_14_);stroke:#000000;stroke-width:0.5126;" d="M83.2,27.1c8.8,0,10.7-1.5,10.7-1.5v-0.8H72.5v0.8
		C72.5,25.6,74.5,27.1,83.2,27.1z"/>
	
		<linearGradient id="SVGID_15_" gradientUnits="userSpaceOnUse" x1="-3818.0522" y1="-3486.8662" x2="-3795.5496" y2="-3486.8662" gradientTransform="matrix(0.4601 0 0 0.4601 1834.6843 1631.6521)">
		<stop  offset="0" style="stop-color:#FFFFFF"/>
		<stop  offset="8.867659e-02" style="stop-color:#F3F3F3"/>
		<stop  offset="0.2512" style="stop-color:#D1D1D1"/>
		<stop  offset="0.4693" style="stop-color:#9C9C9C"/>
		<stop  offset="0.7346" style="stop-color:#515151"/>
		<stop  offset="1" style="stop-color:#000000"/>
	</linearGradient>
	<rect x="78.2" y="26.9" style="fill:url(#SVGID_15_);stroke:#000000;stroke-width:0.5126;" width="10.2" height="1"/>
	
		<linearGradient id="SVGID_16_" gradientUnits="userSpaceOnUse" x1="-3838.9316" y1="-3495.2493" x2="-3774.6643" y2="-3495.2493" gradientTransform="matrix(0.4601 0 0 0.4601 1834.6843 1631.6521)">
		<stop  offset="0" style="stop-color:#FFFFFF"/>
		<stop  offset="8.867659e-02" style="stop-color:#F3F3F3"/>
		<stop  offset="0.2512" style="stop-color:#D1D1D1"/>
		<stop  offset="0.4693" style="stop-color:#9C9C9C"/>
		<stop  offset="0.7346" style="stop-color:#515151"/>
		<stop  offset="1" style="stop-color:#000000"/>
	</linearGradient>
	<rect x="68.5" y="22.2" style="fill:url(#SVGID_16_);stroke:#000000;stroke-width:0.5126;" width="29.4" height="2.6"/>
	
		<linearGradient id="SVGID_17_" gradientUnits="userSpaceOnUse" x1="-3849.4304" y1="-3499.543" x2="-3764.1667" y2="-3499.543" gradientTransform="matrix(0.4601 0 0 0.4601 1834.6843 1631.6521)">
		<stop  offset="0" style="stop-color:#FFFFFF"/>
		<stop  offset="8.867659e-02" style="stop-color:#F3F3F3"/>
		<stop  offset="0.2512" style="stop-color:#D1D1D1"/>
		<stop  offset="0.4693" style="stop-color:#9C9C9C"/>
		<stop  offset="0.7346" style="stop-color:#515151"/>
		<stop  offset="1" style="stop-color:#000000"/>
	</linearGradient>
	<rect x="63.7" y="20.8" style="fill:url(#SVGID_17_);stroke:#000000;stroke-width:0.5126;" width="39" height="1.4"/>
	
		<radialGradient id="SVGID_18_" cx="83.7489" cy="52.4804" r="34.9637" gradientTransform="matrix(0.8465 0 0 0.8465 11.4788 -33.4891)" gradientUnits="userSpaceOnUse">
		<stop  offset="0" style="stop-color:#FADDD3"/>
		<stop  offset="0.2897" style="stop-color:#F8D2C7"/>
		<stop  offset="0.8178" style="stop-color:#F3B7A8"/>
		<stop  offset="1" style="stop-color:#F1AC9D"/>
	</radialGradient>
	<path style="fill:url(#SVGID_18_);stroke:#000000;stroke-width:0.5126;" d="M78.8,16c1.4,0,8.9,0,8.9,0c3.1-1.7,6-8.4-0.6-12.7
		c-4.6-3-16.2,0.6-26.7-1c2.6,2,4.9,2.3,4.9,2.3c-5.4,1.2-16,2.2-29.6,0.2c1.1-0.1,9.2,4.9,18.9,5.2C71,10.5,75.9,16.3,78.8,16z"/>
	<path style="fill:#FCEBE5;" d="M80.2,16h6.2c3.2-2.8,6.5-11.4-6.2-13.1c0,0,11,3,4.6,9.9c0,0,2.3-4.9-2.9-6.3
		c2.7,3.5,0.8,5.7-0.1,6.3c-1.6,1.1-8.4-2.2-13.3-2.1C73.3,11.8,80.2,16,80.2,16z"/>
	
		<linearGradient id="SVGID_19_" gradientUnits="userSpaceOnUse" x1="-3816.5996" y1="-3506.2236" x2="-3796.9468" y2="-3506.2236" gradientTransform="matrix(0.4601 0 0 0.4601 1834.6843 1631.6521)">
		<stop  offset="0" style="stop-color:#FFFFFF"/>
		<stop  offset="8.867659e-02" style="stop-color:#F3F3F3"/>
		<stop  offset="0.2512" style="stop-color:#D1D1D1"/>
		<stop  offset="0.4693" style="stop-color:#9C9C9C"/>
		<stop  offset="0.7346" style="stop-color:#515151"/>
		<stop  offset="1" style="stop-color:#000000"/>
	</linearGradient>
	<rect x="78.8" y="16" style="fill:url(#SVGID_19_);stroke:#000000;stroke-width:0.5126;" width="8.9" height="4.8"/>
	
		<linearGradient id="SVGID_20_" gradientUnits="userSpaceOnUse" x1="-3849.4602" y1="-3503.8376" x2="-3764.1453" y2="-3503.8376" gradientTransform="matrix(0.4601 0 0 0.4601 1834.6843 1631.6521)">
		<stop  offset="0" style="stop-color:#FFFFFF"/>
		<stop  offset="8.867659e-02" style="stop-color:#F3F3F3"/>
		<stop  offset="0.2512" style="stop-color:#D1D1D1"/>
		<stop  offset="0.4693" style="stop-color:#9C9C9C"/>
		<stop  offset="0.7346" style="stop-color:#515151"/>
		<stop  offset="1" style="stop-color:#000000"/>
	</linearGradient>
	<path style="fill:url(#SVGID_20_);stroke:#000000;stroke-width:0.5126;" d="M102.8,18.3v2.5h-39v-2.5l0,0c1.1,0,0.6,1.9,1.7,1.9
		c1.1,0,0-1.9,1-1.9c1.1,0,1.2,1.9,2.3,1.9c1.1,0,0.4-1.9,1.5-1.9c1.1,0,1.3,1.9,2.4,1.9c1.1,0,0.8-1.9,1.9-1.9
		c1.1,0,1.1,1.9,2.2,1.9c1.1,0,1.1-1.9,2.1-1.9c1.1,0,1.1,1.9,2.2,1.9c1.1,0,1.1-1.9,2.1-1.9c1.1,0,1.1,1.9,2.1,1.9
		c1.1,0,1.1-1.9,2.1-1.9c1.1,0,1.1,1.9,2.2,1.9c1.1,0,1.1-1.9,2.1-1.9c1.1,0,1.1,1.9,2.2,1.9c1.1,0,0.9-1.9,2-1.9
		c1.1,0,0.4,1.9,1.5,1.9c1.1,0,1.2-1.9,2.3-1.9c1.1,0,0,1.9,1.1,1.9C101.8,20.1,101.7,18.2,102.8,18.3L102.8,18.3z"/>
	<line style="fill:none;stroke:#4D4D4D;stroke-width:0.5126;" x1="83.3" y1="29.3" x2="83.3" y2="89.6"/>
	<line style="fill:none;stroke:#333333;stroke-width:0.5126;" x1="84.9" y1="29.3" x2="84" y2="89.6"/>
	<line style="fill:none;stroke:#000000;stroke-width:0.4;" x1="86.3" y1="29.3" x2="84.6" y2="89.8"/>
	<line style="fill:none;stroke:#808080;stroke-width:0.5126;" x1="81.6" y1="29.3" x2="82.5" y2="89.6"/>
	<line style="fill:none;stroke:#999999;stroke-width:0.5126;" x1="80.3" y1="29.4" x2="81.9" y2="89.8"/>
	
		<linearGradient id="SVGID_21_" gradientUnits="userSpaceOnUse" x1="-3816.6252" y1="-3484.21" x2="-3796.9722" y2="-3484.21" gradientTransform="matrix(0.4601 0 0 0.4601 1834.6843 1631.6521)">
		<stop  offset="0" style="stop-color:#FFFFFF"/>
		<stop  offset="8.867659e-02" style="stop-color:#F3F3F3"/>
		<stop  offset="0.2512" style="stop-color:#D1D1D1"/>
		<stop  offset="0.4693" style="stop-color:#9C9C9C"/>
		<stop  offset="0.7346" style="stop-color:#515151"/>
		<stop  offset="1" style="stop-color:#000000"/>
	</linearGradient>
	<rect x="78.8" y="27.8" style="fill:url(#SVGID_21_);stroke:#000000;stroke-width:0.5126;" width="8.9" height="1.5"/>
	
		<radialGradient id="SVGID_22_" cx="-3806.8169" cy="-3346.3906" r="5.505" fx="-3809.5354" fy="-3348.928" gradientTransform="matrix(0.4601 0 0 0.4601 1834.6843 1631.6521)" gradientUnits="userSpaceOnUse">
		<stop  offset="0" style="stop-color:#FFFFFF"/>
		<stop  offset="0.1539" style="stop-color:#FCFCFC"/>
		<stop  offset="0.2833" style="stop-color:#F1F1F1"/>
		<stop  offset="0.4038" style="stop-color:#E0E0E0"/>
		<stop  offset="0.519" style="stop-color:#C7C7C7"/>
		<stop  offset="0.6304" style="stop-color:#A7A7A7"/>
		<stop  offset="0.7389" style="stop-color:#818181"/>
		<stop  offset="0.8452" style="stop-color:#525252"/>
		<stop  offset="0.947" style="stop-color:#1E1E1E"/>
		<stop  offset="1" style="stop-color:#000000"/>
	</radialGradient>
	<path style="fill:url(#SVGID_22_);stroke:#000000;stroke-width:0.5126;" d="M83.6,94.5c1.1,0,2-0.9,2-2v-0.8c0-1.1-0.9-2-2-2h-0.8
		c-1.1,0-2,0.9-2,2v0.8c0,1.1,0.9,2,2,2H83.6z"/>
	<polygon style="fill:#004785;" points="28.3,88.6 32.3,90.1 35,86.8 34.8,91.1 38.8,92.6 34.6,93.7 34.4,98 32,94.4 27.9,95.5 
		30.6,92.2 	"/>
	<polygon style="fill:#004785;" points="22.2,71.2 25.6,73.8 29.2,71.5 27.7,75.5 31.1,78.2 26.8,78 25.3,82 24.1,77.9 19.8,77.7 
		23.4,75.3 	"/>
	<polygon style="fill:#004785;" points="21.8,51.4 24.1,55 28.3,53.8 25.6,57.2 28,60.8 23.9,59.3 21.2,62.6 21.5,58.3 17.4,56.8 
		21.6,55.7 	"/>
	<polygon style="fill:#004785;" points="137.1,32.8 138.6,36.8 142.9,36.6 139.6,39.3 141.1,43.3 137.5,41 134.1,43.7 135.3,39.5 
		131.7,37.1 136,36.9 	"/>
	<polygon style="fill:#004785;" points="21.6,36.6 25.9,36.8 27.4,32.8 28.5,36.9 32.8,37.1 29.2,39.5 30.4,43.7 27,41 23.4,43.3 
		24.9,39.3 	"/>
	<polygon style="fill:#004785;" points="31.2,19.4 35.3,20.9 37.9,17.5 37.8,21.8 41.8,23.2 37.7,24.4 37.5,28.7 35.1,25.2 31,26.3 
		33.6,22.9 	"/>
	<polygon style="fill:#004785;" points="129.5,86.8 132.2,90.1 136.3,88.6 133.9,92.2 136.6,95.5 132.5,94.4 130.1,98 129.9,93.7 
		125.8,92.6 129.8,91.1 	"/>
	<polygon style="fill:#004785;" points="135.3,71.5 138.9,73.8 142.3,71.2 141.1,75.3 144.7,77.7 140.4,77.9 139.2,82 137.7,78 
		133.4,78.2 136.8,75.5 	"/>
	<polygon style="fill:#004785;" points="142.8,51.4 142.9,55.7 147.1,56.8 143.1,58.3 143.2,62.6 140.6,59.3 136.5,60.8 138.9,57.2 
		136.2,53.8 140.4,55 	"/>
	<polygon style="fill:#004785;" points="126.6,17.5 129.2,20.8 133.3,19.4 130.9,22.9 133.5,26.3 129.4,25.1 127,28.7 126.8,24.4 
		122.7,23.2 126.7,21.8 	"/>
	<polygon style="fill:#004785;" points="112.8,6.4 116.3,8.9 119.7,6.3 118.4,10.4 121.9,12.9 117.6,13 116.3,17.1 115,13 110.7,13 
		114.1,10.5 	"/>
</g>
<g>
	<path d="M29.3,120.6v-0.7c1.3-0.2,1.9-1.2,2.5-2.3l10.5-16.5H43l2.9,17.1c0.1,0.4,0.2,0.7,0.4,1c0.1,0.2,0.3,0.3,0.5,0.5
		c0.5,0.1,0.9,0.2,1.4,0.2v0.7h-8.7v-0.7c0.5,0,1-0.1,1.5-0.3c0.7-0.3,0.8-0.8,0.8-1.5l-0.4-3.5h-6.2l-1.9,3.4
		c-0.1,0.3-0.2,0.6-0.2,0.8c0,1,1.2,1,1.8,1v0.7H29.3z M35.8,113.6H41l-1-7L35.8,113.6z"/>
	<path d="M49,120.6l2.9-11c0.2-0.7-0.9-0.8-1.5-0.7v-0.8c1.7-0.1,3.6-0.4,5.7-0.8l-1.6,5.3l0.1,0.1c1.2-2,3.3-5.4,6-5.4
		c1.7,0,2.3,1.6,1.2,4.6l0.1,0.1c1-1.7,3-4.7,5.3-4.7c1.2,0,3.2,0.3,2.1,3.9l-2.3,7.3c-0.2,0.7,1,0.7,2.4-1.7l0.6,0.4
		c-0.9,1.7-2.4,3.8-4.5,3.8c-1.5,0-2.4-1.4-1.9-3l2.3-7.1c0.2-0.6,0.4-1.4-0.5-1.4c-1.3,0-3,3-3.5,4c-0.8,1.6-1.4,3.6-2.5,7.1h-3.4
		l2.9-9.6c0.3-1.4,0-1.8-0.8-1.3c-1.2,0.8-2.5,2.4-3.8,5.5c-0.8,1.7-1.2,3.6-1.7,5.4H49z"/>
	<path d="M70.4,120.6v-0.7c0.5-0.1,1-0.1,1.4-0.4c0.7-0.5,0.8-1.2,1-2l3.7-14c0-1.4-1-1.1-2.1-1.3v-0.7h15.2l-1.2,5.4l-0.8-0.1
		c0.1-2.8-1.2-4.4-5-4.4c-0.4,0-1.2,0-1.4,0.3c-0.3,0.3-0.4,0.8-0.5,1.3l-1.6,6c2.9-0.1,4.4-0.1,5.7-3l0.8,0.1l-2.1,7.8l-0.8-0.1
		c0.1-0.4,0.2-1.8-0.2-2.7c-0.5-1.2-2.6-1.1-3.6-1.2l-2,7.4c0,0.3-0.2,0.8,0.6,1.2c0.4,0.2,1,0.3,1.4,0.3v0.7H70.4z"/>
	<path d="M92.3,117.9c-0.1,0.3-0.1,0.6,0,0.9c0.2,0.2,0.4,0.2,1,0c0.6-0.6,1.2-1.4,1.6-2.1l0.6,0.4c-1.2,1.8-2.4,4-4.9,4
		c-1,0-2.4-0.8-1.8-3.1l2-7.3c0.4-1.5-0.1-1.6-1.5-1.6v-0.8c1.4-0.2,3.5-0.5,5.7-0.8L92.3,117.9z M92.3,103c0-1,0.9-1.9,1.9-1.9
		c1,0,1.9,0.9,1.9,1.9c0,1-0.9,2-1.9,2C93.2,105,92.3,104.1,92.3,103z"/>
	<path d="M96.2,120.6l2.7-9.6c0.3-1.1,0.3-1.6,0-1.9c-0.3-0.2-0.6-0.2-1.3-0.2v-0.8c1.8-0.3,3.6-0.4,5.7-0.8l-1.6,5.1l0.1,0.1
		c0.7-1.5,2.5-5.1,4.4-5.1c1,0,1.6,0.8,1.6,1.7c0,1-0.5,2.2-1.7,2.2c-0.6,0-0.9-0.3-1.5-1c-0.2-0.1-0.4-0.1-0.5,0
		c-2.6,2.8-3.3,6.8-4.5,10.3H96.2z"/>
	<path d="M107.7,121l0.6-4.8l0.8,0.1c0,1.4,1,3.8,2.7,3.8c1,0,1.7-0.6,1.7-1.6c0-1.1-1.3-2.5-1.9-3.3c-1-1.3-2-2.5-2-4.2
		c0-1.3,0.6-3,2.7-3.5c0.5-0.1,1.1-0.1,1.7-0.1c0.3,0,0.8,0.3,1.6,0.5c0.5,0.1,1.1,0.2,1.3-0.5h0.8l-0.7,4.4l-0.8-0.1
		c-0.1-1.4-0.9-3.4-2.5-3.4c-0.8,0-2.3,1-1.2,2.6l2.2,2.9c0.7,0.9,1.4,2.1,1.4,3.3c0,1.3-0.7,3.9-4.2,3.9c-0.8,0-1.6-0.3-2.8-0.6
		c-0.3,0-0.6,0.2-0.7,0.6H107.7z"/>
	<path d="M121.5,108.9h-1.5v-1c2.2-0.8,4-2.4,5.2-4.4h1l-1.1,4.2h2.1v1.2h-2.4l-2.4,9c-0.2,0.6-0.1,1.3,0.4,1.1
		c0.8-0.4,1.6-1.5,2.2-2.3l0.6,0.4c-1.1,1.8-2.5,3.9-4.9,3.9c-0.9,0-2.7-0.4-1.2-4.5L121.5,108.9z"/>
</g>
<g>
	<path d="M2.4,135.7c0.8-0.1,1-0.2,1.3-1.2l1.9-7c0.1-0.3,0.2-0.7,0.2-1c0-0.6-0.4-0.6-1.1-0.7v-0.3h3.9v0.3c-0.8,0.1-1,0.2-1.3,1.2
		l-1.9,7c-0.1,0.3-0.2,0.6-0.2,1c0,0.5,0.4,0.6,1.1,0.6v0.3H2.4V135.7z"/>
	<path d="M15.3,134.3c-0.8,1.1-1.3,1.8-2.2,1.8c-0.7,0-0.8-0.5-0.8-0.9c0-0.4,1.2-4.2,1.2-4.9c0-0.3-0.1-0.5-0.4-0.5
		c-0.8,0-1.8,1.4-2.3,2.2c-0.7,1.1-0.9,1.8-1.6,3.9H8c0.5-1.8,1.5-5.5,1.5-5.8c0-0.2-0.2-0.4-1-0.4v-0.3c0.9-0.2,1.7-0.3,2.6-0.5
		l0,0l-1,3.3l0,0c0.7-1.2,2.2-3.4,3.5-3.4c0.7,0,1.1,0.4,1.1,1c0,0.7-1.3,4.6-1.3,5.1c0,0.2,0.2,0.3,0.3,0.3c0.3,0,0.7-0.5,1.3-1.2
		L15.3,134.3z"/>
	<path d="M16.5,133.7c0.1,0.7,0.4,2.2,1.6,2.2c0.9,0,1.1-0.8,1.1-1.3c0-1-1.9-2.6-1.9-3.8c0-0.5,0.2-1.8,1.9-1.8
		c0.7,0,1,0.3,1.5,0.3c0.3,0,0.4-0.2,0.4-0.3h0.2l-0.3,2.2h-0.3c-0.1-0.9-0.5-1.8-1.5-1.8c-0.3,0-0.9,0.1-0.9,0.9
		c0,1,1.9,2.4,1.9,3.7c0,1.7-1.5,2.1-2.4,2.1c-0.5,0-1.1-0.3-1.6-0.3c-0.2,0-0.3,0.2-0.4,0.3h-0.3l0.3-2.5H16.5z"/>
	<path d="M29.3,134.3c-1,1.4-1.4,1.9-2.2,1.9c-0.7,0-0.7-0.6-0.7-0.8c0-0.3,0.3-1.6,0.7-2.9h0c-1.1,1.8-2.2,3.8-3.7,3.8
		c-0.6,0-0.9-0.2-0.9-0.9c0-0.7,1.2-4.7,1.2-5.1c0-0.5-0.3-0.5-0.9-0.5v-0.2c0.8-0.1,1.6-0.2,2.4-0.4l0,0l-1.4,5.7
		c0,0.2,0,0.5,0.3,0.5c0.7,0,1.7-1.5,2.2-2.3c0.8-1.2,1.1-2.2,1.7-3.9h1.2l-1.2,4.7c-0.1,0.3-0.3,1-0.3,1.2c0,0.1,0,0.3,0.2,0.3
		c0.3,0,0.7-0.6,1.3-1.2L29.3,134.3z"/>
	<path d="M30.4,136l1.3-4.6c0.2-0.6,0.3-1.1,0.3-1.3c0-0.2-0.1-0.5-0.6-0.5c-0.2,0-0.3,0-0.5,0.1v-0.3c0.8-0.1,1.7-0.3,2.5-0.4l0,0
		l-0.8,3.1l0,0l0.1-0.3c0.5-1,1.7-2.9,2.7-2.9c0.4,0,0.8,0.2,0.8,0.8c0,0.8-0.6,0.8-0.7,0.8c-0.7,0-0.4-0.6-0.8-0.6
		c-0.5,0-1.4,1.8-1.6,2c-0.6,1.1-0.8,1.9-1.5,4H30.4z"/>
	<path d="M43.4,134.4c-0.9,1.2-1.5,1.7-2.2,1.7c-0.7,0-0.7-0.4-0.7-0.7c0-0.4,0.1-0.7,0.3-1.7l0,0c-1.3,1.9-2.2,2.4-3.1,2.4
		c-1.6,0-1.6-1.4-1.6-1.9c0-2.3,2.4-5.3,4.5-5.3c0.7,0,1.2,0.4,1.2,0.9h0l0.2-0.7l0,0l1-0.1l0.1,0c0,0.2-1.5,5.6-1.5,6.1
		c0,0.1,0.1,0.2,0.2,0.2c0.2,0,0.6-0.4,1.3-1.1L43.4,134.4z M38.4,135.4c1.7,0,3.2-3.4,3.2-5c0-0.8-0.4-1.1-0.9-1.1
		c-1.8,0-3.3,3.5-3.3,4.9C37.5,135.1,38,135.4,38.4,135.4z"/>
	<path d="M51.3,134.3c-0.8,1.1-1.3,1.8-2.2,1.8c-0.7,0-0.8-0.5-0.8-0.9c0-0.4,1.2-4.2,1.2-4.9c0-0.3-0.1-0.5-0.4-0.5
		c-0.8,0-1.8,1.4-2.3,2.2c-0.7,1.1-0.9,1.8-1.6,3.9H44c0.5-1.8,1.6-5.5,1.6-5.8c0-0.2-0.2-0.4-1-0.4v-0.3c0.9-0.2,1.7-0.3,2.6-0.5
		l0,0l-1,3.3l0,0c0.7-1.2,2.2-3.4,3.5-3.4c0.7,0,1.1,0.4,1.1,1c0,0.7-1.3,4.6-1.3,5.1c0,0.2,0.2,0.3,0.3,0.3c0.3,0,0.7-0.5,1.3-1.2
		L51.3,134.3z"/>
	<path d="M57.5,134.4c-0.4,0.5-1.3,1.7-3,1.7c-1,0-2.3-0.4-2.3-2.5c0-2.2,2.2-4.7,4.5-4.7c1.3,0,1.7,0.8,1.7,1.3
		c0,0.4-0.3,0.7-0.7,0.7c-0.4,0-0.6-0.2-0.6-0.6c0-0.4,0.2-0.5,0.2-0.8c0-0.2-0.3-0.3-0.6-0.3c-2.1,0-3.2,2.8-3.2,4.3
		c0,1.2,0.5,1.9,1.4,1.9c0.9,0,1.7-0.6,2.3-1.3L57.5,134.4z"/>
	<path d="M64.6,134.4c-0.2,0.3-1.6,1.7-3.2,1.7c-1.7,0-2.2-1.2-2.2-2.2c0-2.3,2.5-4.9,4.7-4.9c0.8,0,1.3,0.4,1.3,1.1
		c0,1.2-1.5,2.5-4.1,2.9l-0.4,0.1c-0.1,0.3-0.2,0.6-0.2,1c0,1.1,0.8,1.4,1.5,1.4c0.9,0,1.5-0.5,2.3-1.2L64.6,134.4z M60.9,132.7
		c3.3-0.7,3.3-2.6,3.3-2.7c0-0.3-0.2-0.6-0.6-0.6c-0.9,0-1.9,1.2-2.5,2.6L60.9,132.7z"/>
	<path d="M79.7,128.6c0-0.4-0.2-2.6-2.4-2.6c-3.2,0-4.8,3.8-4.8,6.2c0,2.1,0.9,3.4,2.8,3.4c1.8,0,2.9-1.1,3.7-1.9l0.3,0.2
		c-0.6,0.7-2,2.4-4.3,2.4c-1.8,0-4.1-1.1-4.1-4.3c0-3.1,2.8-6.5,6.4-6.5c1.1,0,2.1,0.4,2.5,0.4c0.5,0,0.6-0.2,0.6-0.3h0.3l-0.6,3.1
		L79.7,128.6z"/>
	<path d="M87.7,131.3c0,1.9-2.2,4.8-4.6,4.8c-1.7,0-2.4-1-2.4-2.3c0-2.3,2.3-4.9,4.7-4.9C87.2,129,87.7,130.3,87.7,131.3z M82,134.3
		c0,0.9,0.5,1.5,1.3,1.5c1.8,0,3.1-3.3,3.1-5c0-0.8-0.3-1.5-1.1-1.5C83.5,129.3,82,132.5,82,134.3z"/>
	<path d="M99.3,134.3l-0.1,0.1c-0.6,0.8-1.4,1.7-2.2,1.7c-0.7,0-0.7-0.6-0.7-0.8c0-0.4,1.2-4.8,1.2-5.2c0-0.2-0.1-0.4-0.3-0.4
		c-0.6,0-1.8,1.4-2.3,2.2c-0.8,1.2-1,2.2-1.5,4h-1.2c0.4-1.5,1.5-5.4,1.5-5.7c0-0.4-0.2-0.4-0.3-0.4c-0.7,0-1.9,1.6-2.3,2.2
		c-0.6,1-0.9,2-1.5,3.9h-1.2c0.3-1,1.6-5.5,1.6-5.9c0-0.3-0.2-0.4-1-0.4v-0.3c0.9-0.2,1.7-0.3,2.5-0.5l0,0l-0.9,3.2l0,0
		c0.5-0.8,2.1-3.2,3.4-3.2c0.6,0,0.9,0.4,0.9,1c0,0.2-0.4,1.5-0.6,2.2l0,0c1.1-1.8,2.4-3.2,3.4-3.2c0.6,0,0.9,0.4,0.9,1.1
		c0,0.5-1.3,4.8-1.3,5c0,0.3,0,0.3,0.2,0.3c0.3,0,0.7-0.5,1.3-1.2L99.3,134.3z"/>
	<path d="M100.5,129.3l2.5-0.3c0,0,0.1,0,0,0.2l-0.4,1.5l0,0c0.4-0.6,1.3-1.7,2.6-1.7c1.4,0,1.9,0.9,1.9,2.1c0,2.5-2.5,5.1-4.7,5.1
		c-0.4,0-0.7-0.1-1.1-0.3c-0.1,0.5-0.6,2.3-0.6,2.6c0,0.5,0.6,0.5,1,0.5v0.2h-3.2V139c0.8,0,0.9-0.4,1.1-0.9c0.4-1.8,2-7.7,2-8
		c0-0.3-0.3-0.5-0.7-0.5l-0.4,0L100.5,129.3z M104.6,129.7c-0.7,0-1.7,0.7-2.1,1.8c-0.4,1-1,3.2-1,3.8c0,0.4,0.4,0.6,0.8,0.6
		c1.9,0,3.4-2.9,3.4-4.8C105.6,130.6,105.6,129.7,104.6,129.7z"/>
	<path d="M115,134.4c-0.9,1.2-1.5,1.7-2.2,1.7c-0.7,0-0.7-0.4-0.7-0.7c0-0.4,0.1-0.7,0.3-1.7l0,0c-1.3,1.9-2.2,2.4-3.1,2.4
		c-1.6,0-1.6-1.4-1.6-1.9c0-2.3,2.4-5.3,4.5-5.3c0.7,0,1.2,0.4,1.2,0.9h0l0.2-0.7l0,0l1-0.1l0.1,0c0,0.2-1.5,5.6-1.5,6.1
		c0,0.1,0.1,0.2,0.2,0.2c0.2,0,0.6-0.4,1.3-1.1L115,134.4z M110.1,135.4c1.7,0,3.2-3.4,3.2-5c0-0.8-0.4-1.1-0.9-1.1
		c-1.9,0-3.3,3.5-3.3,4.9C109.1,135.1,109.6,135.4,110.1,135.4z"/>
	<path d="M122.9,134.3c-0.8,1.1-1.3,1.8-2.2,1.8c-0.7,0-0.8-0.5-0.8-0.9c0-0.4,1.2-4.2,1.2-4.9c0-0.3-0.1-0.5-0.4-0.5
		c-0.8,0-1.8,1.4-2.3,2.2c-0.7,1.1-0.9,1.8-1.6,3.9h-1.2c0.5-1.8,1.6-5.5,1.6-5.8c0-0.2-0.2-0.4-1-0.4v-0.3c0.9-0.2,1.7-0.3,2.6-0.5
		l0,0l-1,3.3l0,0c0.7-1.2,2.2-3.4,3.5-3.4c0.7,0,1.1,0.4,1.1,1c0,0.7-1.3,4.6-1.3,5.1c0,0.2,0.2,0.3,0.3,0.3c0.3,0,0.7-0.5,1.3-1.2
		L122.9,134.3z"/>
	<path d="M123.6,129.4c0.8-0.1,2-0.4,2.3-0.4c0.2,0,1.1,2.8,1.3,4l0.3,1.8c0.7-1.1,1.9-3.2,1.9-4.1c0-0.6-0.9-0.5-0.9-1.2
		c0-0.2,0.2-0.6,0.6-0.6c0.6,0,0.9,0.4,0.9,1c0,1.9-4.4,9.3-6.3,9.3c-0.1,0-0.8,0-0.8-0.7c0-0.3,0.3-0.6,0.6-0.6
		c0.5,0,0.7,0.4,1,0.4c0.3,0,0.5-0.1,1-0.8c0.4-0.5,1.1-1.2,1.1-1.7c0-0.6-0.7-3.4-0.9-4.2c-0.4-1.4-0.6-2.1-1.5-2.1
		c-0.2,0-0.3,0-0.5,0.1V129.4z"/>
	<g>
		<path d="M130.5,134.6c0.1-0.2,0.3-0.2,0.6-0.2c0.3,0,0.5,0.1,0.7,0.3c0.2,0.2,0.3,0.5,0.3,0.8c0,0.5-0.2,1-0.6,1.5
			c-0.4,0.4-0.8,0.8-1.2,1l-0.2,0.1l-0.2-0.3c0.3-0.2,0.6-0.4,0.7-0.6c0.3-0.3,0.5-0.6,0.5-0.8c0-0.1,0-0.1,0-0.2
			c0-0.1-0.1-0.1-0.1-0.2l-0.2-0.2c-0.2-0.2-0.3-0.3-0.4-0.4c0-0.1-0.1-0.3-0.1-0.5C130.3,134.8,130.3,134.7,130.5,134.6z"/>
		<path d="M137.5,135.7c0.4,0,0.6-0.1,0.8-0.2c0.2-0.2,0.4-0.5,0.5-1l2-7.2c0.1-0.3,0.1-0.5,0.2-0.6c0-0.1,0-0.2,0-0.4
			c0-0.3-0.1-0.4-0.3-0.6c-0.2-0.1-0.5-0.2-1-0.2v-0.2h4.4v0.2c-0.4,0-0.8,0.1-0.9,0.2c-0.3,0.2-0.6,0.5-0.7,1l-2,7.2l-0.2,0.6
			c0,0,0,0.1,0,0.1c0,0,0,0.1,0,0.1c0,0.1,0,0.2,0.1,0.3c0.1,0.1,0.2,0.1,0.4,0.2c0.1,0,0.4,0,0.6,0.1c0.2,0,0.4,0,0.8,0
			c1.1,0,2-0.1,2.5-0.4c0.6-0.3,1.1-0.9,1.6-2l0.3,0.1l-0.9,2.9h-8.3V135.7z"/>
		<path d="M147.2,135.4c0-0.1,0-0.1,0-0.2l1.5-5.5h-1.2c0-0.1,0-0.2,0-0.3c0,0,0.1-0.1,0.2-0.1c0.5-0.2,1-0.5,1.3-0.7
			c0.3-0.2,0.7-0.6,1.2-1.2l0.1-0.2c0,0,0,0,0.1-0.1c0,0,0.1,0,0.1,0c0.1,0,0.1,0,0.1,0c0,0,0,0.1,0,0.1c0,0,0,0.1,0,0.1l-0.5,1.7
			h1.3l-0.1,0.6H150l-1.5,5.3c0,0.1,0,0.2,0,0.3c0,0.1,0.1,0.1,0.2,0.1c0.1,0,0.3-0.1,0.6-0.4c0.1-0.2,0.4-0.4,0.7-0.9l0.2,0.1
			l-0.1,0.2c-0.5,0.7-0.9,1.1-1.2,1.4c-0.3,0.3-0.7,0.4-1,0.4c-0.3,0-0.5-0.1-0.6-0.2c-0.1-0.1-0.2-0.3-0.2-0.5
			C147.2,135.5,147.2,135.4,147.2,135.4z"/>
		<path d="M157,129.1c0.1,0.1,0.2,0.3,0.2,0.6l0.9-3.2c0-0.1,0-0.2,0.1-0.2c0-0.1,0-0.1,0-0.2c0-0.2,0-0.3-0.1-0.4
			c-0.1-0.1-0.2-0.1-0.3-0.1c-0.1,0-0.2,0-0.2,0c-0.1,0-0.2,0-0.3,0v-0.2c0.6-0.1,1.4-0.2,2.5-0.4l0.1,0.1l0,0.1l-1.6,5.7l-1.1,3.8
			c0,0.1,0,0.2-0.1,0.2c0,0.1,0,0.1,0,0.2c0,0.1,0,0.2,0.1,0.3c0.1,0,0.1,0.1,0.2,0.1c0.2,0,0.4-0.1,0.7-0.4
			c0.2-0.2,0.4-0.4,0.7-0.8l0.2,0.2l-0.1,0.2c-0.2,0.3-0.5,0.6-0.8,0.9c-0.6,0.5-1,0.8-1.5,0.8c-0.1,0-0.3,0-0.4-0.1
			c-0.2-0.1-0.3-0.4-0.3-0.7c0-0.1,0-0.3,0-0.5c0-0.2,0.1-0.5,0.1-0.8c-0.4,0.6-0.8,1.1-1.3,1.5c-0.5,0.4-1,0.6-1.6,0.6
			c-0.5,0-0.9-0.2-1.2-0.5c-0.3-0.3-0.5-0.8-0.5-1.5c0-1.1,0.5-2.3,1.6-3.5c1.1-1.2,2.1-1.8,3.1-1.8
			C156.5,128.8,156.8,128.9,157,129.1z M153,135c0.1,0.2,0.4,0.4,0.8,0.4c0.8,0,1.5-0.6,2.2-1.8c0.7-1.1,1-2.2,1-3.2
			c0-0.3-0.1-0.6-0.2-0.8c-0.1-0.2-0.3-0.3-0.6-0.3c-0.8,0-1.6,0.7-2.3,2c-0.7,1.2-1,2.2-1,3C152.8,134.5,152.9,134.8,153,135z"/>
		<path d="M160.6,135.9c-0.2-0.2-0.3-0.4-0.3-0.6s0.1-0.5,0.3-0.6c0.2-0.2,0.4-0.3,0.6-0.3c0.2,0,0.5,0.1,0.6,0.3
			c0.2,0.2,0.3,0.4,0.3,0.6s-0.1,0.5-0.3,0.6c-0.2,0.2-0.4,0.3-0.6,0.3C161,136.2,160.8,136.1,160.6,135.9z"/>
	</g>
</g>
<g>
</g>
<g>
</g>
<g>
</g>
<g>
</g>
<g>
</g>
<g>
</g>
</svg>
