<svg xmlns="http://www.w3.org/2000/svg" viewBox="0 0 322.73 91.32"><title>risk-white</title><path d="M117,40.27a3.31,3.31,0,0,0-1.53-1.09,5.2,5.2,0,0,0-1.82-.36,4.23,4.23,0,0,0-1,.13,4,4,0,0,0-1,.38,2.35,2.35,0,0,0-.77.7,1.8,1.8,0,0,0-.3,1,1.75,1.75,0,0,0,.72,1.51,6.64,6.64,0,0,0,1.79.9c.72.24,1.5.49,2.33.74a9.79,9.79,0,0,1,2.33,1.05,5.56,5.56,0,0,1,1.79,1.82,5.77,5.77,0,0,1,.71,3.06,7.34,7.34,0,0,1-.65,3.18,6.48,6.48,0,0,1-1.76,2.26,7.51,7.51,0,0,1-2.58,1.32,11.3,11.3,0,0,1-6.9-.21,9.36,9.36,0,0,1-3.26-2.1l3.29-3.77a4.81,4.81,0,0,0,1.79,1.53,5,5,0,0,0,2.24.54,5.09,5.09,0,0,0,1.15-.14,3.38,3.38,0,0,0,1-.42,2.1,2.1,0,0,0,.74-.71,1.82,1.82,0,0,0,.29-1,1.89,1.89,0,0,0-.73-1.56,6.77,6.77,0,0,0-1.82-1c-.74-.27-1.53-.54-2.38-.8a10.63,10.63,0,0,1-2.37-1.08,5.79,5.79,0,0,1-1.82-1.8,5.23,5.23,0,0,1-.73-2.93,6.73,6.73,0,0,1,.67-3.09,6.48,6.48,0,0,1,1.78-2.22,7.56,7.56,0,0,1,2.56-1.35,10.1,10.1,0,0,1,3-.45,11.39,11.39,0,0,1,3.44.53,7.94,7.94,0,0,1,3,1.76Z" fill="#fff"/><path d="M123.78,34.93H138v4.45h-9.63v4.08h9.1V47.9h-9.1v4.45h10.17V56.8h-14.8Z" fill="#fff"/><path d="M142.28,34.93h6.29l8.93,15.2h.06V34.93h4.62V56.8h-6.05L147,41.23h-.06V56.8h-4.63Z" fill="#fff"/><path d="M166.39,34.93H171V56.8h-4.63Z" fill="#fff"/><path d="M174.1,45.87a12.89,12.89,0,0,1,.85-4.76,10.42,10.42,0,0,1,2.36-3.63,10.2,10.2,0,0,1,3.59-2.3,13.1,13.1,0,0,1,9.07,0,10.29,10.29,0,0,1,3.59,2.3,10.56,10.56,0,0,1,2.36,3.63,13.88,13.88,0,0,1,0,9.51,10.56,10.56,0,0,1-2.36,3.63,10.29,10.29,0,0,1-3.59,2.3,13.1,13.1,0,0,1-9.07,0,10.2,10.2,0,0,1-3.59-2.3A10.42,10.42,0,0,1,175,50.62,12.84,12.84,0,0,1,174.1,45.87Zm4.81,0a8.18,8.18,0,0,0,.46,2.82,6.32,6.32,0,0,0,1.32,2.23,6.08,6.08,0,0,0,2.06,1.46,7.07,7.07,0,0,0,5.37,0,6.18,6.18,0,0,0,2.06-1.46,6.63,6.63,0,0,0,1.32-2.23,8.42,8.42,0,0,0,.46-2.82,8.6,8.6,0,0,0-.46-2.82,6.67,6.67,0,0,0-1.32-2.24,6.18,6.18,0,0,0-2.06-1.46,7.07,7.07,0,0,0-5.37,0,6.08,6.08,0,0,0-2.06,1.46,6.36,6.36,0,0,0-1.32,2.24A8.34,8.34,0,0,0,178.91,45.87Z" fill="#fff"/><path d="M199.9,34.93H208a14.17,14.17,0,0,1,3,.32,7,7,0,0,1,2.52,1.09,5.35,5.35,0,0,1,1.72,2,7.13,7.13,0,0,1,.64,3.2,6.61,6.61,0,0,1-1.16,3.94,5.14,5.14,0,0,1-3.38,2.05l5.34,9.24H211.2l-4.39-8.74h-2.28V56.8H199.9Zm4.63,9h2.73c.41,0,.85,0,1.32,0a4.15,4.15,0,0,0,1.26-.27,2.22,2.22,0,0,0,.93-.73,2.25,2.25,0,0,0,.37-1.39,2.45,2.45,0,0,0-.32-1.33,2.2,2.2,0,0,0-.83-.75,3.43,3.43,0,0,0-1.16-.36,9.26,9.26,0,0,0-1.27-.09h-3Z" fill="#fff"/><path d="M234.72,43.24a3.36,3.36,0,0,0-3-1.58,4.11,4.11,0,0,0-1.21.17,3.07,3.07,0,0,0-1.07.53,2.51,2.51,0,0,0-.76.91,2.92,2.92,0,0,0-.29,1.32,2.31,2.31,0,0,0,.6,1.71,4.49,4.49,0,0,0,1.47,1,16.62,16.62,0,0,0,1.93.7,8.58,8.58,0,0,1,1.93.83,4.66,4.66,0,0,1,1.47,1.36,4,4,0,0,1,.6,2.32,4.28,4.28,0,0,1-.45,2A4.57,4.57,0,0,1,234.74,56a5.51,5.51,0,0,1-1.66.92,5.36,5.36,0,0,1-1.84.32,6.66,6.66,0,0,1-2.72-.56,5.15,5.15,0,0,1-2.19-1.85l1.46-1.07a3.84,3.84,0,0,0,1.4,1.43,4.06,4.06,0,0,0,2.13.54,3.81,3.81,0,0,0,1.19-.2,3.39,3.39,0,0,0,1.06-.57,2.94,2.94,0,0,0,.78-.93,2.5,2.5,0,0,0,.31-1.26,2.72,2.72,0,0,0-.34-1.41,2.92,2.92,0,0,0-.91-.94,5,5,0,0,0-1.27-.63l-1.48-.51c-.51-.17-1-.36-1.48-.57a5.22,5.22,0,0,1-1.27-.82,3.6,3.6,0,0,1-.91-1.24,4.6,4.6,0,0,1-.34-1.87,4.64,4.64,0,0,1,.43-2,4.19,4.19,0,0,1,1.15-1.44,4.49,4.49,0,0,1,1.62-.85,6.1,6.1,0,0,1,1.85-.28,6.37,6.37,0,0,1,2.4.44,5.14,5.14,0,0,1,2,1.53Z" fill="#fff"/><path d="M241.18,55.29h8.35V56.8h-9.94V40.55h9.67v1.52h-8.08V47.6h7.56v1.51h-7.56Z" fill="#fff"/><path d="M254.24,56.8h-1.58V40.55h4.8a5.94,5.94,0,0,1,3.76,1.08,3.91,3.91,0,0,1,1.37,3.26,4.18,4.18,0,0,1-1,2.86,4.34,4.34,0,0,1-3,1.34l4.5,7.71h-1.94l-4.27-7.55h-2.65Zm0-9.06h2.82a6.2,6.2,0,0,0,1.8-.23A3.53,3.53,0,0,0,260,46.9a2.29,2.29,0,0,0,.64-.9,3.28,3.28,0,0,0,0-2.2,2.56,2.56,0,0,0-.64-.91,3,3,0,0,0-1.18-.6,6.23,6.23,0,0,0-1.8-.22h-2.82Z" fill="#fff"/><path d="M270.39,54.32h0l5.12-13.77h1.71L271.18,56.8H269.6l-5.93-16.25h1.76Z" fill="#fff"/><path d="M280.9,56.8h-1.59V40.55h1.59Z" fill="#fff"/><path d="M298,54.23a6.21,6.21,0,0,1-1,1.17,5.83,5.83,0,0,1-1.33,1A7.18,7.18,0,0,1,294,57a6.87,6.87,0,0,1-1.84.23,8,8,0,0,1-3.23-.64,7.89,7.89,0,0,1-2.58-1.78,8.17,8.17,0,0,1-1.7-2.69,9.74,9.74,0,0,1,0-6.84,8.32,8.32,0,0,1,1.7-2.7A7.89,7.89,0,0,1,289,40.78a8.2,8.2,0,0,1,3.23-.64,7.58,7.58,0,0,1,2.91.6,5.88,5.88,0,0,1,2.49,2l-1.39,1.08a3.8,3.8,0,0,0-.66-.78,4.9,4.9,0,0,0-1-.69,5.66,5.66,0,0,0-1.16-.48,4.36,4.36,0,0,0-1.23-.18,6.17,6.17,0,0,0-2.69.57,6,6,0,0,0-2,1.54A6.82,6.82,0,0,0,286.23,46a8.35,8.35,0,0,0,0,5.35,6.76,6.76,0,0,0,1.27,2.24,6.27,6.27,0,0,0,2,1.54,6.51,6.51,0,0,0,3.91.45,4.69,4.69,0,0,0,2.29-1.13,5.25,5.25,0,0,0,1-1.18Z" fill="#fff"/><path d="M302.22,55.29h8.35V56.8h-9.93V40.55h9.67v1.52h-8.09V47.6h7.56v1.51h-7.56Z" fill="#fff"/><path d="M321.08,43.24a3.38,3.38,0,0,0-3-1.58,4.16,4.16,0,0,0-1.21.17,3.15,3.15,0,0,0-1.07.53,2.61,2.61,0,0,0-.76.91,2.91,2.91,0,0,0-.28,1.32,2.31,2.31,0,0,0,.59,1.71,4.65,4.65,0,0,0,1.48,1,16.44,16.44,0,0,0,1.92.7,8.58,8.58,0,0,1,1.93.83,4.69,4.69,0,0,1,1.48,1.36,4,4,0,0,1,.59,2.32,4.28,4.28,0,0,1-.45,2A4.45,4.45,0,0,1,321.09,56a5.61,5.61,0,0,1-3.49,1.24,6.63,6.63,0,0,1-2.72-.56,5.15,5.15,0,0,1-2.19-1.85l1.45-1.07a3.94,3.94,0,0,0,1.41,1.43,4.06,4.06,0,0,0,2.13.54,3.75,3.75,0,0,0,1.18-.2,3.44,3.44,0,0,0,1.07-.57,3.22,3.22,0,0,0,.78-.93,2.95,2.95,0,0,0,0-2.67,3,3,0,0,0-.9-.94,5.09,5.09,0,0,0-1.28-.63L317,49.25c-.51-.17-1-.36-1.48-.57a5.28,5.28,0,0,1-1.28-.82,3.71,3.71,0,0,1-.9-1.24,4.43,4.43,0,0,1-.34-1.87,4.51,4.51,0,0,1,.43-2,4.17,4.17,0,0,1,1.14-1.44,4.66,4.66,0,0,1,1.62-.85,6.1,6.1,0,0,1,1.85-.28,6.37,6.37,0,0,1,2.4.44,5.24,5.24,0,0,1,2,1.53Z" fill="#fff"/><path d="M105.46,76.63h-1l5.64-8.75h.86l1.82,8.75h-.93l-.47-2.3h-4.47Zm1.94-3.11h3.83l-.92-4.65Z" fill="#fff"/><path d="M116.63,74.28a3.77,3.77,0,0,1,.25-1.39,3.49,3.49,0,0,1,.71-1.14,3.61,3.61,0,0,1,1.08-.77A3.25,3.25,0,0,1,120,70.7a2.53,2.53,0,0,1,1.18.28,1.92,1.92,0,0,1,.83.84h0l.81-4.53h.83L122,76.63h-.83l.18-.95h0a2.37,2.37,0,0,1-.85.77,2.48,2.48,0,0,1-1.27.33,3,3,0,0,1-1.07-.18,2.51,2.51,0,0,1-.83-.51,2.39,2.39,0,0,1-.53-.79A2.8,2.8,0,0,1,116.63,74.28Zm.86,0a2.15,2.15,0,0,0,.12.73,1.85,1.85,0,0,0,.35.59,1.78,1.78,0,0,0,.57.4,2.05,2.05,0,0,0,.78.14,2.3,2.3,0,0,0,1-.23,2.35,2.35,0,0,0,.82-.61,2.92,2.92,0,0,0,.54-.9,3,3,0,0,0,.2-1.09,2,2,0,0,0-.13-.75,1.76,1.76,0,0,0-.38-.59,1.6,1.6,0,0,0-.59-.39,2.11,2.11,0,0,0-.77-.14,2.4,2.4,0,0,0-1.82.83,2.69,2.69,0,0,0-.52.9A3.31,3.31,0,0,0,117.49,74.23Z" fill="#fff"/><path d="M125,76.63h-.83l1-5.78H126Zm1.52-8a.57.57,0,0,1-.17.42.53.53,0,0,1-.41.17.56.56,0,0,1-.4-.14.5.5,0,0,1-.17-.41A.62.62,0,0,1,126,68a.54.54,0,0,1,.4.16A.57.57,0,0,1,126.54,68.61Z" fill="#fff"/><path d="M129.19,76.63h-.88l-1.22-5.78H128l.92,4.89h0l2.88-4.89h.9Z" fill="#fff"/><path d="M133.69,76.63h-.83l1-5.78h.83Zm1.52-8a.57.57,0,0,1-.16.42.55.55,0,0,1-.42.17.56.56,0,0,1-.4-.14.53.53,0,0,1-.17-.41.57.57,0,0,1,.18-.43.58.58,0,0,1,.42-.18.55.55,0,0,1,.55.57Z" fill="#fff"/><path d="M139.71,72.12a1.37,1.37,0,0,0-.52-.52,1.57,1.57,0,0,0-.83-.21,2.49,2.49,0,0,0-.46,0,1.72,1.72,0,0,0-.45.16,1.15,1.15,0,0,0-.33.29.72.72,0,0,0-.13.44.8.8,0,0,0,.08.38.71.71,0,0,0,.23.26,1.51,1.51,0,0,0,.36.18,3.85,3.85,0,0,0,.48.16,3.5,3.5,0,0,1,1.3.62,1.34,1.34,0,0,1,.44,1.07,1.53,1.53,0,0,1-.21.81,1.77,1.77,0,0,1-.53.56,2.34,2.34,0,0,1-.72.31,3,3,0,0,1-.77.1,3.49,3.49,0,0,1-1.37-.27,2.11,2.11,0,0,1-1-.82l.71-.47a1.68,1.68,0,0,0,.63.61,1.86,1.86,0,0,0,1,.26,2.33,2.33,0,0,0,.53-.06,1.57,1.57,0,0,0,.46-.17.9.9,0,0,0,.33-.31.84.84,0,0,0,.12-.45.78.78,0,0,0-.36-.7,4.49,4.49,0,0,0-1-.47,4.65,4.65,0,0,1-.52-.2,1.61,1.61,0,0,1-.47-.29,1.3,1.3,0,0,1-.34-.43,1.28,1.28,0,0,1-.13-.61,1.45,1.45,0,0,1,.2-.77,1.75,1.75,0,0,1,.52-.53,2.66,2.66,0,0,1,.71-.3,3.06,3.06,0,0,1,.79-.1,2.67,2.67,0,0,1,1.19.26,1.61,1.61,0,0,1,.76.69Z" fill="#fff"/><path d="M142,76.63h-.83l1-5.78H143Zm1.52-8a.57.57,0,0,1-.17.42.53.53,0,0,1-.41.17.59.59,0,0,1-.41-.14.53.53,0,0,1-.16-.41.57.57,0,0,1,.18-.43.55.55,0,0,1,.41-.18.54.54,0,0,1,.4.16A.57.57,0,0,1,143.47,68.61Z" fill="#fff"/><path d="M146.68,76.78a2.92,2.92,0,0,1-1.08-.19,2.37,2.37,0,0,1-.84-.51,2.21,2.21,0,0,1-.55-.79,2.61,2.61,0,0,1-.2-1,3.75,3.75,0,0,1,.25-1.38,3.55,3.55,0,0,1,.71-1.13,3.4,3.4,0,0,1,1.09-.78,3.31,3.31,0,0,1,1.38-.28,3.16,3.16,0,0,1,1.09.18,2.56,2.56,0,0,1,.84.51,2.38,2.38,0,0,1,.74,1.81,3.77,3.77,0,0,1-.25,1.39,3.49,3.49,0,0,1-.71,1.14,3.53,3.53,0,0,1-1.09.77A3.47,3.47,0,0,1,146.68,76.78Zm2.57-3.53a2.25,2.25,0,0,0-.12-.74,1.75,1.75,0,0,0-.37-.58,1.72,1.72,0,0,0-.58-.4,2.13,2.13,0,0,0-.78-.14,2.26,2.26,0,0,0-1,.23,2.61,2.61,0,0,0-.79.62,3.12,3.12,0,0,0-.71,2A2.25,2.25,0,0,0,145,75a1.6,1.6,0,0,0,.37.58,1.78,1.78,0,0,0,.57.4,2.11,2.11,0,0,0,.77.14,2.31,2.31,0,0,0,1-.23,2.54,2.54,0,0,0,.8-.62,2.69,2.69,0,0,0,.51-.89A3.1,3.1,0,0,0,149.25,73.25Z" fill="#fff"/><path d="M153,70.85c0,.15,0,.33-.06.52s-.05.34-.08.47h0a2.38,2.38,0,0,1,.86-.84,2.21,2.21,0,0,1,1.12-.3,2.1,2.1,0,0,1,1.47.48,1.64,1.64,0,0,1,.53,1.29,2.83,2.83,0,0,1,0,.29c0,.1,0,.21-.05.32l-.64,3.55h-.83l.57-3.2a3.79,3.79,0,0,0,.08-.73,1.5,1.5,0,0,0-.29-1,1.23,1.23,0,0,0-1-.35,1.83,1.83,0,0,0-.67.14,1.89,1.89,0,0,0-.62.42,2.59,2.59,0,0,0-.51.71,3.42,3.42,0,0,0-.33,1l-.51,3h-.83l.79-4.51c0-.16.07-.36.1-.6a6.34,6.34,0,0,0,.08-.67Z" fill="#fff"/><path d="M163.78,76.78a2.83,2.83,0,0,1-1.07-.19,2.41,2.41,0,0,1-.85-.51,2.21,2.21,0,0,1-.55-.79,2.61,2.61,0,0,1-.2-1,4,4,0,0,1,.25-1.38,3.55,3.55,0,0,1,.71-1.13,3.4,3.4,0,0,1,1.09-.78,3.32,3.32,0,0,1,1.39-.28,3.14,3.14,0,0,1,1.08.18,2.56,2.56,0,0,1,.84.51,2.44,2.44,0,0,1,.55.79,2.61,2.61,0,0,1,.2,1,3.77,3.77,0,0,1-.26,1.39,3.33,3.33,0,0,1-.71,1.14,3.42,3.42,0,0,1-1.09.77A3.47,3.47,0,0,1,163.78,76.78Zm2.57-3.53a2.25,2.25,0,0,0-.12-.74,1.75,1.75,0,0,0-.37-.58,1.72,1.72,0,0,0-.58-.4,2.13,2.13,0,0,0-.78-.14,2.26,2.26,0,0,0-1,.23,2.46,2.46,0,0,0-.78.62,2.83,2.83,0,0,0-.53.91,3,3,0,0,0-.19,1.08,2.25,2.25,0,0,0,.12.74,1.75,1.75,0,0,0,.37.58,1.72,1.72,0,0,0,.58.4,2,2,0,0,0,.77.14,2.27,2.27,0,0,0,1-.23,2.43,2.43,0,0,0,.8-.62,2.69,2.69,0,0,0,.51-.89A3.1,3.1,0,0,0,166.35,73.25Z" fill="#fff"/><path d="M171.68,71.54h-1.36l-.89,5.09h-.83l.89-5.09h-1.22l.13-.69h1.2l.27-1.57a3.7,3.7,0,0,1,.24-.82,2.23,2.23,0,0,1,.42-.68,2,2,0,0,1,.64-.47,2.09,2.09,0,0,1,.86-.17l.34,0a2.05,2.05,0,0,1,.34.07l-.19.73a2.14,2.14,0,0,0-.58-.08,1.21,1.21,0,0,0-.52.11,1.1,1.1,0,0,0-.36.32,2.06,2.06,0,0,0-.23.47,3.63,3.63,0,0,0-.14.59l-.26,1.48h1.38Z" fill="#fff"/><path d="M179.63,75.12h0l4.23-7.24h1.35l-1.54,8.75h-.88l1.33-7.56h0l-4.5,7.56h-.47l-1.83-7.56h0L176,76.63h-.86l1.54-8.75H178Z" fill="#fff"/><path d="M188.48,76.78a2.92,2.92,0,0,1-1.08-.19,2.46,2.46,0,0,1-.84-.51,2.21,2.21,0,0,1-.55-.79,2.61,2.61,0,0,1-.2-1,3.75,3.75,0,0,1,.25-1.38,3.55,3.55,0,0,1,.71-1.13,3.4,3.4,0,0,1,1.09-.78,3.32,3.32,0,0,1,1.39-.28,3.14,3.14,0,0,1,1.08.18,2.56,2.56,0,0,1,.84.51,2.44,2.44,0,0,1,.55.79,2.61,2.61,0,0,1,.19,1,3.77,3.77,0,0,1-.25,1.39,3.33,3.33,0,0,1-.71,1.14,3.42,3.42,0,0,1-1.09.77A3.47,3.47,0,0,1,188.48,76.78Zm2.57-3.53a2.25,2.25,0,0,0-.12-.74,1.75,1.75,0,0,0-.37-.58,1.72,1.72,0,0,0-.58-.4,2.13,2.13,0,0,0-.78-.14,2.26,2.26,0,0,0-1,.23,2.61,2.61,0,0,0-.79.62,3.12,3.12,0,0,0-.71,2,2.25,2.25,0,0,0,.12.74,1.75,1.75,0,0,0,.37.58,1.72,1.72,0,0,0,.58.4,2,2,0,0,0,.77.14,2.27,2.27,0,0,0,1-.23,2.43,2.43,0,0,0,.8-.62,2.69,2.69,0,0,0,.51-.89A3.1,3.1,0,0,0,191.05,73.25Z" fill="#fff"/><path d="M193.94,71.52c0-.25.06-.47.08-.67h.79c0,.15,0,.33-.07.52a4,4,0,0,1-.07.47h0a2.67,2.67,0,0,1,.81-.83,2,2,0,0,1,1.11-.31h.29l.26.05-.2.79-.23,0-.34,0a1.82,1.82,0,0,0-.65.12,1.6,1.6,0,0,0-.59.39,2.55,2.55,0,0,0-.47.68,3.37,3.37,0,0,0-.3,1l-.52,3H193l.79-4.51C193.86,72,193.9,71.76,193.94,71.52Z" fill="#fff"/><path d="M197.09,77.84a2.45,2.45,0,0,0,.87.74,2.72,2.72,0,0,0,1.23.29,2.89,2.89,0,0,0,1.07-.18,2.15,2.15,0,0,0,.74-.5,2.71,2.71,0,0,0,.47-.72,5.09,5.09,0,0,0,.26-.89l.21-1.1h0a2.65,2.65,0,0,1-2.2,1.15,2.83,2.83,0,0,1-1.07-.19,2.33,2.33,0,0,1-1.32-1.34,2.73,2.73,0,0,1-.18-1,3.6,3.6,0,0,1,.25-1.32,3.37,3.37,0,0,1,.71-1.09,3.4,3.4,0,0,1,2.41-1,2.56,2.56,0,0,1,.62.07,2.27,2.27,0,0,1,.58.23,2.35,2.35,0,0,1,.47.36,2,2,0,0,1,.34.49h0l.19-1h.81l-1,5.73a9.28,9.28,0,0,1-.26,1,3.14,3.14,0,0,1-.54,1,2.75,2.75,0,0,1-1,.74,3.54,3.54,0,0,1-1.57.3,3.81,3.81,0,0,1-1.54-.31,2.82,2.82,0,0,1-1.11-.86Zm.9-3.73a2,2,0,0,0,.13.7,1.68,1.68,0,0,0,.94,1,2.14,2.14,0,0,0,.79.14,2.31,2.31,0,0,0,1-.22,2.42,2.42,0,0,0,.79-.58,2.61,2.61,0,0,0,.52-.86,2.77,2.77,0,0,0,.19-1,2,2,0,0,0-.13-.73,1.73,1.73,0,0,0-1-1,1.94,1.94,0,0,0-.78-.15,2.61,2.61,0,0,0-1,.2,2.21,2.21,0,0,0-.79.55,2.37,2.37,0,0,0-.51.86A3.31,3.31,0,0,0,198,74.11Z" fill="#fff"/><path d="M208.9,73.08a1.68,1.68,0,0,0,0-.32,1.8,1.8,0,0,0,0-.22,1,1,0,0,0-.36-.89,1.7,1.7,0,0,0-1-.26,2.46,2.46,0,0,0-1,.21,2.89,2.89,0,0,0-.81.48l-.37-.55a3.19,3.19,0,0,1,1-.6,3.56,3.56,0,0,1,1.22-.23,3.35,3.35,0,0,1,.79.09,1.69,1.69,0,0,1,.65.3,1.5,1.5,0,0,1,.45.52,1.61,1.61,0,0,1,.17.76c0,.07,0,.17,0,.3s0,.23,0,.32l-.42,2.34a5.36,5.36,0,0,0-.1.7,4.73,4.73,0,0,0,0,.6h-.74a3.78,3.78,0,0,1,0-.46c0-.16,0-.32.05-.48h0a4.58,4.58,0,0,1-.5.49,2,2,0,0,1-.51.33,2.7,2.7,0,0,1-.57.18,4.43,4.43,0,0,1-.66,0,2.46,2.46,0,0,1-.6-.07,1.64,1.64,0,0,1-.57-.26,1.33,1.33,0,0,1-.42-.46,1.37,1.37,0,0,1-.16-.7,1.59,1.59,0,0,1,.39-1.12,2.65,2.65,0,0,1,1-.66,6,6,0,0,1,1.43-.3A14.12,14.12,0,0,1,208.9,73.08Zm-.3.64a11.11,11.11,0,0,0-1.14,0,5.38,5.38,0,0,0-1.06.21,2.25,2.25,0,0,0-.78.43,1,1,0,0,0-.3.74.88.88,0,0,0,.1.45.73.73,0,0,0,.27.28,1.08,1.08,0,0,0,.38.15,2.42,2.42,0,0,0,1.25-.1,2.23,2.23,0,0,0,.66-.41,2.31,2.31,0,0,0,.47-.6,2.7,2.7,0,0,0,.26-.72l.08-.48Z" fill="#fff"/><path d="M212.83,70.85c0,.15,0,.33-.06.52s-.05.34-.07.47h0a2.47,2.47,0,0,1,.86-.84,2.28,2.28,0,0,1,1.13-.3,2.13,2.13,0,0,1,1.47.48,1.63,1.63,0,0,1,.52,1.29,1.42,1.42,0,0,1,0,.29c0,.1,0,.21,0,.32L216,76.63h-.83l.57-3.2a3.75,3.75,0,0,0,.07-.73,1.5,1.5,0,0,0-.28-1,1.25,1.25,0,0,0-1-.35,1.79,1.79,0,0,0-.67.14,1.89,1.89,0,0,0-.62.42,2.61,2.61,0,0,0-.52.71,3.75,3.75,0,0,0-.32,1l-.52,3h-.82l.79-4.51c0-.16.06-.36.1-.6s.06-.47.08-.67Z" fill="#fff"/><path d="M223.05,75.41h0l3.64-7.53h1.07l.72,7.53h0l3.6-7.53h.93l-4.26,8.75h-1l-.7-7.54h0l-3.69,7.54h-1l-.9-8.75h.94Z" fill="#fff"/><path d="M236.16,70.7a2.09,2.09,0,0,1,1.46.48,1.61,1.61,0,0,1,.53,1.29,1.42,1.42,0,0,1,0,.29c0,.1,0,.21,0,.32l-.64,3.55h-.83l.57-3.2a3.75,3.75,0,0,0,.07-.73,1.45,1.45,0,0,0-.29-1,1.27,1.27,0,0,0-1-.35,1.74,1.74,0,0,0-.66.14,1.8,1.8,0,0,0-.62.42,2.57,2.57,0,0,0-.5.71,3.43,3.43,0,0,0-.32,1l-.52,3h-.82l1.64-9.34H235l-.79,4.51h0a2.38,2.38,0,0,1,.84-.8A2.2,2.2,0,0,1,236.16,70.7Z" fill="#fff"/><path d="M240.31,76.63h-.82l1-5.78h.83Zm1.52-8a.57.57,0,0,1-.16.42.54.54,0,0,1-.42.17.58.58,0,0,1-.4-.14.53.53,0,0,1-.16-.41.6.6,0,0,1,.17-.43.58.58,0,0,1,.42-.18.5.5,0,0,1,.39.16A.53.53,0,0,1,241.83,68.61Z" fill="#fff"/><path d="M245.7,71.54h-1.57l-.6,3.4a1.91,1.91,0,0,0,0,.39.64.64,0,0,0,.2.55.89.89,0,0,0,.52.13,1.37,1.37,0,0,0,.38-.05.73.73,0,0,0,.32-.14l-.1.71a1.24,1.24,0,0,1-.41.13,3.1,3.1,0,0,1-.54,0,2,2,0,0,1-.42,0,1.32,1.32,0,0,1-.4-.18,1.07,1.07,0,0,1-.3-.36,1.14,1.14,0,0,1-.11-.56,3,3,0,0,1,0-.4l.65-3.62h-1.2l.13-.69h1.18l.28-1.63h.83l-.29,1.63h1.6Z" fill="#fff"/><path d="M246.88,74a.78.78,0,0,0,0,.14.66.66,0,0,0,0,.14A2,2,0,0,0,247,75a1.87,1.87,0,0,0,.4.59A1.93,1.93,0,0,0,248,76a2,2,0,0,0,.74.14,2.16,2.16,0,0,0,1.18-.31,2.72,2.72,0,0,0,.82-.71l.52.5a3.44,3.44,0,0,1-1.18.91,3.38,3.38,0,0,1-1.42.3,3.13,3.13,0,0,1-1-.17,2.44,2.44,0,0,1-.84-.5,2.24,2.24,0,0,1-.55-.79,2.68,2.68,0,0,1-.21-1.09,3.59,3.59,0,0,1,.26-1.34A3.49,3.49,0,0,1,248,71a3.1,3.1,0,0,1,1.32-.29,2.4,2.4,0,0,1,1.8.63,2.23,2.23,0,0,1,.61,1.63q0,.15,0,.45a2.91,2.91,0,0,1-.08.55Zm4-.62c0-.06,0-.13,0-.21v-.22a1.48,1.48,0,0,0-.41-1.09,1.55,1.55,0,0,0-1.19-.43,2.15,2.15,0,0,0-.85.16,2.2,2.2,0,0,0-.69.42,2.65,2.65,0,0,0-.52.63,2.24,2.24,0,0,0-.29.74Z" fill="#fff"/><path d="M260.05,76.09a6,6,0,0,0,1.39-.16,3.76,3.76,0,0,0,1.09-.44l.47-2.68h-2.06l.13-.75H264L263.31,76a6.15,6.15,0,0,1-1.61.66,7.26,7.26,0,0,1-1.7.19,4.51,4.51,0,0,1-1.6-.27,3.54,3.54,0,0,1-1.24-.76,3.4,3.4,0,0,1-.81-1.19,4,4,0,0,1-.28-1.53,5.57,5.57,0,0,1,.41-2.13,5.28,5.28,0,0,1,1.12-1.72,5.12,5.12,0,0,1,1.66-1.16,4.82,4.82,0,0,1,2-.43,4.08,4.08,0,0,1,.93.1,3.52,3.52,0,0,1,.83.28,2.71,2.71,0,0,1,.69.44,2.26,2.26,0,0,1,.49.58l-.81.53a1.51,1.51,0,0,0-.29-.42,1.94,1.94,0,0,0-.46-.38,2.31,2.31,0,0,0-.62-.26,2.8,2.8,0,0,0-.79-.1,3.78,3.78,0,0,0-1.72.39,4.26,4.26,0,0,0-1.35,1,4.83,4.83,0,0,0-.88,1.47A4.74,4.74,0,0,0,257,73a3.45,3.45,0,0,0,.2,1.21,2.64,2.64,0,0,0,.58,1,2.79,2.79,0,0,0,.95.66A3.33,3.33,0,0,0,260.05,76.09Z" fill="#fff"/><path d="M266.05,71.52c0-.25.06-.47.08-.67h.79c0,.15,0,.33-.06.52s-.05.34-.08.47h0a2.67,2.67,0,0,1,.81-.83,2,2,0,0,1,1.11-.31H269l.26.05-.2.79-.23,0-.34,0a1.82,1.82,0,0,0-.65.12,1.6,1.6,0,0,0-.59.39,2.55,2.55,0,0,0-.47.68,3.37,3.37,0,0,0-.3,1l-.52,3h-.83l.79-4.51C266,72,266,71.76,266.05,71.52Z" fill="#fff"/><path d="M271.79,76.78a2.92,2.92,0,0,1-1.08-.19,2.33,2.33,0,0,1-1.4-1.3,2.61,2.61,0,0,1-.19-1,3.75,3.75,0,0,1,.25-1.38,3.55,3.55,0,0,1,.71-1.13,3.4,3.4,0,0,1,1.09-.78,3.31,3.31,0,0,1,1.38-.28,3.06,3.06,0,0,1,1.08.18,2.37,2.37,0,0,1,.84.51,2.3,2.3,0,0,1,.55.79,2.44,2.44,0,0,1,.2,1,3.77,3.77,0,0,1-.25,1.39,3.49,3.49,0,0,1-.71,1.14,3.53,3.53,0,0,1-1.09.77A3.47,3.47,0,0,1,271.79,76.78Zm2.57-3.53a2,2,0,0,0-.13-.74,1.58,1.58,0,0,0-.36-.58,1.76,1.76,0,0,0-.59-.4,2.07,2.07,0,0,0-.77-.14,2.23,2.23,0,0,0-1,.23,2.5,2.5,0,0,0-.79.62,3.12,3.12,0,0,0-.71,2,2.25,2.25,0,0,0,.12.74,1.58,1.58,0,0,0,.36.58,1.82,1.82,0,0,0,.58.4,2.11,2.11,0,0,0,.77.14,2.31,2.31,0,0,0,1-.23,2.39,2.39,0,0,0,.79-.62,2.55,2.55,0,0,0,.52-.89A3.34,3.34,0,0,0,274.36,73.25Z" fill="#fff"/><path d="M280.4,76.63c0-.16,0-.33.06-.52s.05-.34.08-.47h0a2.47,2.47,0,0,1-.86.84,2.21,2.21,0,0,1-1.12.3,2.13,2.13,0,0,1-1.46-.47,1.64,1.64,0,0,1-.53-1.29c0-.09,0-.19,0-.29s0-.21.05-.32l.63-3.55h.84l-.57,3.2a4,4,0,0,0-.08.73,1.46,1.46,0,0,0,.29.95,1.22,1.22,0,0,0,1,.35,1.75,1.75,0,0,0,.67-.14,2,2,0,0,0,.62-.41,2.81,2.81,0,0,0,.51-.71,3.18,3.18,0,0,0,.32-1l.52-3h.83l-.79,4.51c0,.16-.07.36-.11.6s-.06.47-.08.66Z" fill="#fff"/><path d="M285.06,71.79a1.75,1.75,0,0,1,.36-.42,2.34,2.34,0,0,1,.5-.35,2.27,2.27,0,0,1,.6-.23,2.39,2.39,0,0,1,.66-.09,3,3,0,0,1,1.07.18,2.37,2.37,0,0,1,.82.51,2.24,2.24,0,0,1,.53.79,2.61,2.61,0,0,1,.19,1,3.77,3.77,0,0,1-.26,1.39,3.49,3.49,0,0,1-.71,1.14,3.37,3.37,0,0,1-1.08.77,3.33,3.33,0,0,1-1.35.28,2.66,2.66,0,0,1-1.18-.28,1.92,1.92,0,0,1-.83-.84h0l-.7,3.94h-.83l1.56-8.75h.83l-.18.94Zm3.86,1.46a2.09,2.09,0,0,0-.11-.72,1.63,1.63,0,0,0-.92-1,2.13,2.13,0,0,0-.78-.14,2.3,2.3,0,0,0-1,.23,2.35,2.35,0,0,0-.82.61,2.92,2.92,0,0,0-.54.9,2.89,2.89,0,0,0-.2,1.09,2,2,0,0,0,.13.75,1.73,1.73,0,0,0,.37.59,1.79,1.79,0,0,0,.59.39,2.11,2.11,0,0,0,.77.14,2.37,2.37,0,0,0,1-.23,2.44,2.44,0,0,0,.79-.6,2.69,2.69,0,0,0,.52-.9A3.59,3.59,0,0,0,288.92,73.25Z" fill="#fff"/><circle cx="45.66" cy="45.66" r="44.59" fill="none" stroke="#fff" stroke-miterlimit="10" stroke-width="2.14"/><path d="M72.53,33.68a8.26,8.26,0,0,1,6.06,2.55,14.46,14.46,0,0,1,2.93,5.05c.07.22.14.33.36.29l.88-.15c.15,0,.15-.21.15-.51l-.37-7.31c0-.29-.07-.51-.44-.51-.22,0-.33.11-.51.37l-.44.58c-.22.29-.44.4-.87.07a13.54,13.54,0,0,0-7.46-2c-6.75,0-11.59,1.45-14.72,11.19l-3,7.83L50.55,40.93s-1.91-4.56-2.74-4.56S45,40.62,45,40.62,40.09,51.18,39.8,52l-.08,0L34,35a.88.88,0,0,1,.88-1.28h.69c.26,0,.33-.11.33-.29v-.92c0-.18-.07-.25-.29-.25l-3.58.09c-.17,0-.44.53-.71,1.23-1.11,2.5-6.44,14.12-6.74,15h-.15l-6.61-15.4c-.15-.44-.4-.8-.92-.8s-.8.58-1,.95c-.73,1.83-8.18,22.29-8.55,23.1a1.79,1.79,0,0,1-1.61,1.2H2.9c-.22,0-.26.11-.26.3v1c0,.11.08.19.22.19.3,0,3.56-.11,5.61-.11,2.26,0,3.5.11,3.87.11s.29-.11.29-.3V58c0-.19,0-.3-.25-.3h-1c-.88,0-1.24-.51-1.24-1,0-2,4.16-14.07,5.26-17.29h.15l5.26,13.06s1.2,2.86,1.95,2.86c1.15,0,2.87-4,2.87-4s4.94-11,5.23-11.78l.07,0,5.69,16.89a.87.87,0,0,1-.88,1.27h-.69c-.26,0-.33.11-.33.3v.91c0,.18.07.26.29.26s1.23,0,3-.07a1,1,0,0,0,.69-.31,1.11,1.11,0,0,0,.37-.49c.15-.4,6.62-14,6.95-15.05h.14L52.81,58.2c.15.44.4.81.91.81,2,0,2.61-.78,3.39-3,.41-1.15,2.79-7.86,5-13.56C64.63,35.66,68.57,33.68,72.53,33.68ZM90,47.25c-.37,0-7.29.11-10.35.11s-4.76-.11-5.2-.11c-.14,0-.21.07-.21.29v.84c0,.18.07.33.29.33H76.1c1,0,1.32.37,1.32,1.68v2.67c0,1.9-.07,2.92-.88,3.36-1.24.66-2.63.61-5,.61-3.63,0-6.24-2.28-9.24-4.7-.46-.37-.71-.19-.83,0s-.59,1.39-.72,1.7A.87.87,0,0,0,61,55.09c2.52,2.8,6.82,4,10.29,4a21.1,21.1,0,0,0,10.38-2.41c.36-.14.58-.29.58-.58s-.14-.66-.14-1.17V50.06c0-1.06.44-1.35,1.09-1.35h6.92c.22,0,.29-.07.29-.29V47.5C90.4,47.32,90.33,47.25,90,47.25Z" fill="#fff"/></svg>