<svg xmlns="http://www.w3.org/2000/svg" viewBox="0 0 162.8 52.6"><title>Broker Portal Logos (No Branding vScript) copy</title><path d="M23.3,27.9c-1.4-.7-2.5-0.9-6.8-0.9H0.1V47.5H6.6v-5H17.1c3.3,0,4.9-.2,6-0.7s3-3,3-7.3S25.3,29,23.3,27.9Zm-7.2,9.6H6.6V32h9.5c2.8,0,3.5.6,3.5,3S18.8,37.5,16.1,37.5Z" fill="#fff"/><path d="M88.1,33.8c0-3.2-.8-5.1-2.6-6s-2.8-.8-6-0.8H61V47.5h6.5V42.4h10c1.8,0,2.3.1,2.8,0.4a2.4,2.4,0,0,1,.8,2.2v2.5h6.6V44.3a5,5,0,0,0-.6-3c-0.6-1-1.5-1.3-4-1.4H82.1c2.6-.4,3.4-0.6,4.2-1.1S88.1,36.2,88.1,33.8ZM77.7,37.4H67.5V32.1H77.9c2,0,2.5.1,3,.6s0.5,1,.5,2.4S80.8,37.4,77.7,37.4Z" fill="#fff"/><path d="M114.8,27.1H97.9a70,70,0,0,1,5.2-8.8,4.2,4.2,0,0,0,2.9,2.1c2.2,0,6.3-5.3,6-7s-2.2-3.2-3.4-3.2a3.3,3.3,0,0,0-1.7.8,2.3,2.3,0,0,0,.1-1,2.2,2.2,0,0,0-1-1h-0.2l-4.6,6.2h-0.1c-1,1.2-3.5,3.3-4.2,3.3s-0.2-.1-0.2-0.3,1.6-2.7,5.1-7.1a0.3,0.3,0,0,0,.1-0.3,3.4,3.4,0,0,0-2.3-1.5H99.2c-2,2.5-3.4,4.4-5.7,6.9a4,4,0,0,1-1.6,1.2,0.4,0.4,0,0,1-.3-0.4c-0.2-1.3,3.4-4.7,4.5-6a0.2,0.2,0,0,0,.1-0.2,5.1,5.1,0,0,0-2-1.8H93.9A29.1,29.1,0,0,0,90,13.5c-0.7.9-1.7,2.5-1.5,3.7a5,5,0,0,0,.8,1.6A2.1,2.1,0,0,0,91.2,20a3.2,3.2,0,0,0,2-.9L94.5,18a3.3,3.3,0,0,0,2.5,2.4l0.8-.2h0.2l-0.4.7c-0.8,1.2-2.3,4.2-2.1,5.4a3.4,3.4,0,0,0,.4,1H89.1v5.1h9.6V47.5h6.5V32.1h9.6V27.1Zm-6.1-15.3a0.7,0.7,0,0,1,.6.5c0.2,1.1-2.9,5.4-5.1,5.4a0.3,0.3,0,0,1-.4-0.3C103.7,16.2,107.9,11.8,108.7,11.8Z" fill="#fff"/><path d="M120,27.1L107.9,47.5h7.4l2.1-3.7h13.9l2.1,3.7h7.2L128.8,27.1H120Zm-0.3,12.6,4.6-8.2,4.6,8.2h-9.2Z" fill="#fff"/><polygon points="148 42.5 148 27.1 141.4 27.1 141.4 47.5 162.8 47.5 162.8 42.5 148 42.5" fill="#fff"/><path d="M56.9,29c2.1-3.3,6.6-9.9,12.4-17.7,0.7-.9,1.9-1.9,1.8-2.3A7.6,7.6,0,0,0,69,6.8a3.1,3.1,0,0,0,1-2.5,2.9,2.9,0,0,0-1.2-1.8C67.7,1.3,67.1,0,65.2,0s-6,2.1-7.9,3.4c-3.8,2.7-8.3,7.9-7.5,12.1s3.1,5.1,5.2,5.1,3.8-1.3,6.2-3.5c-1.4,1.9-3.2,4.4-4.7,6.8-2-.1-4.6,0-6.2,1.1a30.8,30.8,0,0,0-3.1-4.9s2.1,4.7,1.8,7.4c0,0,1.8-2.1,7.1-3a30.1,30.1,0,0,0-2.9,5.4h0a73.8,73.8,0,0,0-5.8,5.8l-0.3.2,5,2.1L40.5,42.7,36.9,30.9l5.3,2.8a45,45,0,0,1,1-9.1h0.1l0.2-1.1a20.1,20.1,0,0,1,1.3-3.6l-0.3-.2c-0.4.9-.8,1.8-1.1,2.7A15.2,15.2,0,1,0,58.6,37.7a15.1,15.1,0,0,0-1.9-7.4A3.3,3.3,0,0,1,56.9,29ZM53.5,18.1A1.2,1.2,0,0,1,52.1,17C51.4,13,61.6,3,67.2,3a0.8,0.8,0,0,1,.9.7c0.3,1.8-5.9,5.6-7.3,6H60.3c-0.3,0-.3.1-0.3,0.5a1.1,1.1,0,0,0,1.2.9,21,21,0,0,0,6.9-3.5C64.3,12.1,57.5,18.1,53.5,18.1ZM43.4,49.7a12,12,0,0,1-1.1-24c-0.7,2.6-1,4.9-1.3,6.3l-4.8-2.1L39.3,46l15.2-7.9-5.3-2.3c0.7-1,2.3-2.9,4.1-4.9a11.9,11.9,0,0,1,2.1,6.8A12.1,12.1,0,0,1,43.4,49.7Z" fill="#fff"/><path d="M67.9,18a2.9,2.9,0,0,0,1.5,1.9c0.5,0,.7-0.8.9-1.1,2.1-3,4.2-5.2,5.5-6H76c0.5,0,.9.9,1.3,0.9s1.9-1.3,1.7-2.7a1.2,1.2,0,0,0-1.1-1c-0.9,0-3.1,1.8-4.3,2.9a7.1,7.1,0,0,1,.7-1.3,1.4,1.4,0,0,0,.3-0.9,1.9,1.9,0,0,0-1.3-1.3l-0.3.2-4.1,5.5C68.5,15.9,67.7,16.9,67.9,18Z" fill="#fff"/><path d="M78.3,16c0.3,1.5,2.3,3.3,3,3.9a2.2,2.2,0,0,0,1.2.3c2.4,0,5-3,5.4-5a3.9,3.9,0,0,0,0-1.4A2.1,2.1,0,0,0,86.8,12h0.5c0.2,0,.4,0,0.4-0.2a4.3,4.3,0,0,0-1-1.4,2.2,2.2,0,0,0-1.7-1,3.5,3.5,0,0,0-1.6.4C81,11,77.9,13.5,78.3,16Zm7.3-3.7a1.8,1.8,0,0,0-.5,1.3,7.7,7.7,0,0,0,.4.9,3.9,3.9,0,0,1-1.4,2.1c-0.4.4-2,1.7-2.8,1.7a0.9,0.9,0,0,1-.7-0.7C80.3,16.1,83.1,13.3,85.6,12.3Z" fill="#fff"/></svg>