<svg xmlns="http://www.w3.org/2000/svg" viewBox="0 0 334.36 91.32"><title>mwgbs-color-solid-1c</title><circle cx="46.1" cy="45.73" r="44.59" fill="#00205c" stroke="#fff" stroke-miterlimit="10" stroke-width="2.14"/><path d="M73,33.74A8.27,8.27,0,0,1,79,36.3,14.53,14.53,0,0,1,82,41.35c.07.22.14.33.36.29l.88-.15c.15,0,.15-.22.15-.51L83,33.67c0-.29-.07-.51-.44-.51s-.33.11-.51.36l-.44.59c-.22.29-.44.4-.88.07a13.5,13.5,0,0,0-7.45-2c-6.75,0-11.59,1.45-14.72,11.18l-3,7.84L51,41s-1.91-4.56-2.74-4.56-2.79,4.25-2.79,4.25S40.53,51.25,40.24,52l-.08,0L34.48,35.1a.87.87,0,0,1,.88-1.28h.69c.26,0,.33-.11.33-.29v-.92c0-.18-.07-.25-.29-.25l-3.58.09c-.18,0-.44.53-.71,1.23-1.11,2.49-6.44,14.12-6.74,15h-.15L18.3,33.33c-.15-.44-.4-.8-.92-.8s-.8.58-.95.95c-.73,1.82-8.18,22.29-8.55,23.1a1.8,1.8,0,0,1-1.61,1.2H3.34c-.22,0-.26.11-.26.3v1c0,.11.08.18.22.18.29,0,3.56-.11,5.6-.11,2.27,0,3.51.11,3.88.11s.29-.11.29-.29v-.87c0-.19,0-.3-.26-.3h-1c-.88,0-1.24-.51-1.24-1,0-2,4.16-14.07,5.26-17.29H16l5.27,13.06s1.2,2.85,1.95,2.85c1.15,0,2.87-4,2.87-4s4.94-11,5.23-11.78l.07,0L37.07,56.5a.88.88,0,0,1-.88,1.28H35.5c-.26,0-.33.11-.33.3V59c0,.18.07.25.29.25l3-.06a1,1,0,0,0,.7-.31,1.11,1.11,0,0,0,.37-.49c.15-.4,6.62-14,7-15.06h.14l6.62,15c.14.44.4.8.91.8,2,0,2.61-.77,3.39-3,.41-1.15,2.79-7.86,5-13.56C65.07,35.72,69,33.74,73,33.74ZM90.48,47.32c-.37,0-7.29.11-10.36.11s-4.75-.11-5.19-.11c-.14,0-.22.07-.22.29v.84c0,.18.08.33.3.33h1.53c.95,0,1.32.36,1.32,1.68v2.67c0,1.9-.08,2.92-.88,3.36-1.24.66-2.63.61-5,.61-3.63,0-6.24-2.28-9.24-4.71-.46-.36-.72-.19-.83,0s-.6,1.39-.72,1.7a.87.87,0,0,0,.21,1.06c2.52,2.79,6.82,4,10.29,4A21.24,21.24,0,0,0,82.1,56.71c.36-.15.58-.29.58-.59s-.14-.65-.14-1.16V50.13c0-1.06.43-1.35,1.09-1.35h6.92c.22,0,.29-.07.29-.29v-.92C90.84,47.39,90.77,47.32,90.48,47.32Z" fill="#fff"/><path d="M108.33,35h7.83a18.06,18.06,0,0,1,2.74.21,7.23,7.23,0,0,1,2.48.8,4.78,4.78,0,0,1,1.78,1.68,5.38,5.38,0,0,1,.68,2.88,4.71,4.71,0,0,1-1,3.07,5.45,5.45,0,0,1-2.63,1.74v.07a5.74,5.74,0,0,1,1.89.6,5.09,5.09,0,0,1,1.45,1.14,4.73,4.73,0,0,1,.93,1.62,5.88,5.88,0,0,1,.33,2,5.48,5.48,0,0,1-.71,2.89,5.87,5.87,0,0,1-1.84,1.87,8.06,8.06,0,0,1-2.54,1,13.34,13.34,0,0,1-2.8.31h-8.6ZM113,43.76h3.35a4.08,4.08,0,0,0,1-.13,2.73,2.73,0,0,0,.94-.4,2,2,0,0,0,.66-.74,2.28,2.28,0,0,0,.26-1.11,2.08,2.08,0,0,0-.29-1.13,1.9,1.9,0,0,0-.72-.69,3.28,3.28,0,0,0-1-.36,6,6,0,0,0-1.1-.11H113Zm0,9.05h4.15a4.43,4.43,0,0,0,1.08-.13,2.71,2.71,0,0,0,1-.43,2.42,2.42,0,0,0,.72-.8,2.38,2.38,0,0,0,.28-1.21,2,2,0,0,0-.37-1.25,2.21,2.21,0,0,0-.93-.72,4.4,4.4,0,0,0-1.22-.34,9,9,0,0,0-1.21-.1H113Z" fill="#00205c"/><path d="M127.55,35h8.12a13.49,13.49,0,0,1,3,.33,7.31,7.31,0,0,1,2.53,1.08,5.39,5.39,0,0,1,1.72,2,7.21,7.21,0,0,1,.63,3.2,6.64,6.64,0,0,1-1.15,3.94,5.18,5.18,0,0,1-3.38,2l5.33,9.24h-5.54l-4.39-8.75h-2.28v8.75h-4.63Zm4.63,9.06h2.72c.42,0,.86,0,1.32,0a3.76,3.76,0,0,0,1.26-.28,2.15,2.15,0,0,0,.94-.72,2.27,2.27,0,0,0,.37-1.39,2.36,2.36,0,0,0-.33-1.33,2.24,2.24,0,0,0-.83-.76,3.6,3.6,0,0,0-1.15-.35,8.06,8.06,0,0,0-1.28-.1h-3Z" fill="#00205c"/><path d="M145.64,46a12.89,12.89,0,0,1,.84-4.76,10.56,10.56,0,0,1,2.36-3.63,10.43,10.43,0,0,1,3.59-2.3,13.25,13.25,0,0,1,9.07,0,10.2,10.2,0,0,1,5.95,5.93,13.75,13.75,0,0,1,0,9.52,10.2,10.2,0,0,1-5.95,5.93,13.25,13.25,0,0,1-9.07,0,10.43,10.43,0,0,1-3.59-2.3,10.56,10.56,0,0,1-2.36-3.63A12.89,12.89,0,0,1,145.64,46Zm4.8,0a8.53,8.53,0,0,0,.46,2.83A6.68,6.68,0,0,0,152.22,51a6.07,6.07,0,0,0,2.06,1.47,7.19,7.19,0,0,0,5.37,0A6,6,0,0,0,161.71,51,6.36,6.36,0,0,0,163,48.78a8.87,8.87,0,0,0,0-5.64,6.27,6.27,0,0,0-1.32-2.24,6,6,0,0,0-2.06-1.47,7.19,7.19,0,0,0-5.37,0,6.07,6.07,0,0,0-2.06,1.47,6.58,6.58,0,0,0-1.32,2.24A8.49,8.49,0,0,0,150.44,46Z" fill="#00205c"/><path d="M171.62,35h4.62V44.1L184.4,35h6l-9.34,10.17,10.14,11.71h-6.47l-8.54-10.38V56.89h-4.62Z" fill="#00205c"/><path d="M193,35h14.26v4.45h-9.64v4.08h9.11V48h-9.11v4.45h10.18v4.45H193Z" fill="#00205c"/><path d="M211.53,35h8.13a13.55,13.55,0,0,1,3,.33,7.18,7.18,0,0,1,2.52,1.08,5.39,5.39,0,0,1,1.72,2,7.21,7.21,0,0,1,.64,3.2,6.65,6.65,0,0,1-1.16,3.94,5.18,5.18,0,0,1-3.38,2l5.34,9.24h-5.55l-4.39-8.75h-2.28v8.75h-4.63Zm4.63,9.06h2.73c.41,0,.85,0,1.32,0a3.87,3.87,0,0,0,1.26-.28,2.18,2.18,0,0,0,.93-.72,2.27,2.27,0,0,0,.37-1.39,2.45,2.45,0,0,0-.32-1.33,2.32,2.32,0,0,0-.83-.76,3.75,3.75,0,0,0-1.16-.35,8.06,8.06,0,0,0-1.28-.1h-3Z" fill="#00205c"/><path d="M246.35,43.32a3.38,3.38,0,0,0-3-1.58,4.53,4.53,0,0,0-1.21.17,3.45,3.45,0,0,0-1.07.53,2.76,2.76,0,0,0-.76.92,2.86,2.86,0,0,0-.28,1.32,2.38,2.38,0,0,0,.59,1.71,4.82,4.82,0,0,0,1.48,1,16.62,16.62,0,0,0,1.93.7,8.48,8.48,0,0,1,1.92.82,4.72,4.72,0,0,1,1.48,1.37,3.93,3.93,0,0,1,.59,2.31,4.32,4.32,0,0,1-.45,2,4.42,4.42,0,0,1-1.19,1.48,5.61,5.61,0,0,1-3.49,1.24,6.83,6.83,0,0,1-2.72-.56A5.22,5.22,0,0,1,238,54.89l1.45-1.08a3.89,3.89,0,0,0,1.41,1.44,4.15,4.15,0,0,0,2.13.53,3.73,3.73,0,0,0,1.18-.19A3.33,3.33,0,0,0,245.2,55a3.51,3.51,0,0,0,.78-.93,2.62,2.62,0,0,0,.31-1.27,2.78,2.78,0,0,0-.34-1.41,3,3,0,0,0-.91-.94,5.65,5.65,0,0,0-1.28-.63c-.47-.17-1-.34-1.47-.5a14.66,14.66,0,0,1-1.48-.58,5.14,5.14,0,0,1-1.28-.81,3.71,3.71,0,0,1-.9-1.24,5.17,5.17,0,0,1,.09-3.91,4.23,4.23,0,0,1,1.14-1.45,4.83,4.83,0,0,1,1.62-.85,6.47,6.47,0,0,1,1.85-.27,6.39,6.39,0,0,1,2.41.43,5.15,5.15,0,0,1,2,1.54Z" fill="#00205c"/><path d="M252.81,55.37h8.35v1.52h-9.94V40.64h9.67v1.51h-8.08v5.53h7.55V49.2h-7.55Z" fill="#00205c"/><path d="M265.87,56.89h-1.59V40.64h4.81a5.91,5.91,0,0,1,3.75,1.08A3.88,3.88,0,0,1,274.22,45a4.15,4.15,0,0,1-1,2.85,4.34,4.34,0,0,1-3,1.35l4.5,7.71h-1.94l-4.28-7.55h-2.64Zm0-9.07h2.82a5.92,5.92,0,0,0,1.8-.23,3.07,3.07,0,0,0,1.17-.61,2.14,2.14,0,0,0,.64-.89,3,3,0,0,0,.2-1.11,2.82,2.82,0,0,0-.2-1.09,2.2,2.2,0,0,0-.64-.91,3.07,3.07,0,0,0-1.17-.61,6.66,6.66,0,0,0-1.8-.22h-2.82Z" fill="#00205c"/><path d="M282,54.41h0l5.11-13.77h1.72l-6.08,16.25h-1.58L275.3,40.64h1.76Z" fill="#00205c"/><path d="M292.53,56.89h-1.59V40.64h1.59Z" fill="#00205c"/><path d="M309.6,54.32a6.21,6.21,0,0,1-1,1.17,6.52,6.52,0,0,1-1.33.95,7.18,7.18,0,0,1-1.62.63,7.36,7.36,0,0,1-1.84.23,8.2,8.2,0,0,1-3.23-.64A7.89,7.89,0,0,1,298,54.88a8.32,8.32,0,0,1-1.7-2.7,9.74,9.74,0,0,1,0-6.84,8.17,8.17,0,0,1,1.7-2.69,7.89,7.89,0,0,1,2.58-1.78,8,8,0,0,1,3.23-.64,7.57,7.57,0,0,1,2.91.59,6,6,0,0,1,2.49,2l-1.39,1.07a3.8,3.8,0,0,0-.66-.78,4.48,4.48,0,0,0-1-.68,6.31,6.31,0,0,0-1.16-.49,4.36,4.36,0,0,0-1.23-.18,6.14,6.14,0,0,0-2.69.57,6.31,6.31,0,0,0-2,1.54,6.74,6.74,0,0,0-1.26,2.24,8.35,8.35,0,0,0,0,5.35,6.79,6.79,0,0,0,1.26,2.23,6,6,0,0,0,2,1.54,6.14,6.14,0,0,0,2.69.57,6.22,6.22,0,0,0,1.22-.11,5.34,5.34,0,0,0,1.19-.39,4.13,4.13,0,0,0,1.1-.75,5,5,0,0,0,1-1.18Z" fill="#00205c"/><path d="M313.85,55.37h8.35v1.52h-9.94V40.64h9.68v1.51h-8.09v5.53h7.56V49.2h-7.56Z" fill="#00205c"/><path d="M332.71,43.32a3.4,3.4,0,0,0-3-1.58,4.53,4.53,0,0,0-1.21.17,3.35,3.35,0,0,0-1.07.53,2.54,2.54,0,0,0-.76.92,2.86,2.86,0,0,0-.29,1.32,2.34,2.34,0,0,0,.6,1.71,4.89,4.89,0,0,0,1.47,1,16.62,16.62,0,0,0,1.93.7,8.56,8.56,0,0,1,1.93.82,4.72,4.72,0,0,1,1.48,1.37,4,4,0,0,1,.59,2.31,4.32,4.32,0,0,1-.45,2,4.55,4.55,0,0,1-1.19,1.48,5.56,5.56,0,0,1-1.65.92,5.66,5.66,0,0,1-1.84.32,6.79,6.79,0,0,1-2.72-.56,5.22,5.22,0,0,1-2.19-1.85l1.45-1.08a3.87,3.87,0,0,0,1.4,1.44,4.15,4.15,0,0,0,2.13.53,3.79,3.79,0,0,0,1.19-.19,3.44,3.44,0,0,0,1.07-.57,3.51,3.51,0,0,0,.78-.93,2.62,2.62,0,0,0,.3-1.27,2.68,2.68,0,0,0-.34-1.41,3.1,3.1,0,0,0-.9-.94,5.87,5.87,0,0,0-1.28-.63c-.48-.17-1-.34-1.48-.5a15.47,15.47,0,0,1-1.47-.58,4.8,4.8,0,0,1-1.28-.81,3.58,3.58,0,0,1-.9-1.24,4.47,4.47,0,0,1-.34-1.87,4.64,4.64,0,0,1,.42-2,4.14,4.14,0,0,1,1.15-1.45,4.83,4.83,0,0,1,1.62-.85,6.72,6.72,0,0,1,4.25.16,5.17,5.17,0,0,1,2,1.54Z" fill="#00205c"/><path d="M107.21,76.72h-1L111.83,68h.87l1.81,8.75h-.92l-.47-2.3h-4.48Zm1.94-3.12H113L112.07,69Z" fill="#00205c"/><path d="M118.38,74.37a3.82,3.82,0,0,1,.25-1.4,3.6,3.6,0,0,1,.71-1.14,3.5,3.5,0,0,1,1.09-.76,3.17,3.17,0,0,1,1.35-.29,2.54,2.54,0,0,1,1.18.29,1.87,1.87,0,0,1,.83.84h0l.8-4.54h.83l-1.66,9.35H123l.18-1h0a2.4,2.4,0,0,1-.85.78,2.58,2.58,0,0,1-1.27.32,3,3,0,0,1-1.07-.18,2.37,2.37,0,0,1-.82-.51,2.16,2.16,0,0,1-.53-.79A2.53,2.53,0,0,1,118.38,74.37Zm.87-.06a2.11,2.11,0,0,0,.11.73,1.74,1.74,0,0,0,.35.59,1.78,1.78,0,0,0,.57.4,2.13,2.13,0,0,0,.78.14,2.37,2.37,0,0,0,1-.22,2.55,2.55,0,0,0,.81-.61,2.92,2.92,0,0,0,.54-.9,2.85,2.85,0,0,0,.2-1.09,2,2,0,0,0-.13-.75,1.68,1.68,0,0,0-.37-.6,1.73,1.73,0,0,0-.6-.39,2.06,2.06,0,0,0-.76-.13,2.36,2.36,0,0,0-1,.22,2.47,2.47,0,0,0-.79.61,2.55,2.55,0,0,0-.52.89A3.68,3.68,0,0,0,119.25,74.31Z" fill="#00205c"/><path d="M126.77,76.72h-.83l1-5.79h.83Zm1.52-8a.61.61,0,0,1-.17.42.59.59,0,0,1-.81,0,.52.52,0,0,1-.17-.41.58.58,0,0,1,.18-.43.6.6,0,0,1,.41-.17.57.57,0,0,1,.4.15A.55.55,0,0,1,128.29,68.7Z" fill="#00205c"/><path d="M131,76.72h-.89l-1.21-5.79h.85l.93,4.9h0l2.88-4.9h.9Z" fill="#00205c"/><path d="M135.44,76.72h-.82l1-5.79h.83Zm1.52-8a.6.6,0,0,1-.16.42.57.57,0,0,1-.42.17.59.59,0,0,1-.4-.15.51.51,0,0,1-.16-.41.61.61,0,0,1,.17-.43.61.61,0,0,1,.42-.17.53.53,0,0,1,.39.15A.55.55,0,0,1,137,68.7Z" fill="#00205c"/><path d="M141.46,72.21a1.32,1.32,0,0,0-.52-.53,1.54,1.54,0,0,0-.82-.2,1.93,1.93,0,0,0-.47,0,1.29,1.29,0,0,0-.44.16,1,1,0,0,0-.34.29.75.75,0,0,0-.13.43.87.87,0,0,0,.08.39.78.78,0,0,0,.23.25,2,2,0,0,0,.36.19l.48.15a3.5,3.5,0,0,1,1.3.63,1.3,1.3,0,0,1,.45,1.06,1.4,1.4,0,0,1-.22.81,1.67,1.67,0,0,1-.53.56,2.16,2.16,0,0,1-.71.31,3.09,3.09,0,0,1-.78.1A3.67,3.67,0,0,1,138,76.6a2.22,2.22,0,0,1-1-.82l.72-.47a1.76,1.76,0,0,0,.63.61,1.82,1.82,0,0,0,1,.25,3.07,3.07,0,0,0,.53,0,1.64,1.64,0,0,0,.47-.18,1,1,0,0,0,.32-.31.77.77,0,0,0,.13-.45.78.78,0,0,0-.37-.7,4.13,4.13,0,0,0-1-.46l-.52-.2a2.05,2.05,0,0,1-.47-.29,1.48,1.48,0,0,1-.34-.44,1.28,1.28,0,0,1-.13-.61,1.47,1.47,0,0,1,.2-.77,1.72,1.72,0,0,1,.52-.52,2.39,2.39,0,0,1,.71-.31,3.64,3.64,0,0,1,.79-.1,2.71,2.71,0,0,1,1.2.26,1.73,1.73,0,0,1,.76.7Z" fill="#00205c"/><path d="M143.7,76.72h-.83l1-5.79h.82Zm1.52-8a.61.61,0,0,1-.17.42.59.59,0,0,1-.81,0,.52.52,0,0,1-.17-.41.58.58,0,0,1,.18-.43.6.6,0,0,1,.41-.17.57.57,0,0,1,.4.15A.55.55,0,0,1,145.22,68.7Z" fill="#00205c"/><path d="M148.43,76.86a3.08,3.08,0,0,1-1.07-.18,2.75,2.75,0,0,1-.85-.51,2.38,2.38,0,0,1-.55-.8,2.53,2.53,0,0,1-.2-1A3.72,3.72,0,0,1,146,73a3.28,3.28,0,0,1,.71-1.14,3.37,3.37,0,0,1,1.08-.77,3.32,3.32,0,0,1,1.39-.29,3.14,3.14,0,0,1,1.08.18,2.42,2.42,0,0,1,.84.52,2.34,2.34,0,0,1,.55.79,2.53,2.53,0,0,1,.2,1,3.87,3.87,0,0,1-.26,1.4,3.39,3.39,0,0,1-.71,1.13,3.49,3.49,0,0,1-1.08.77A3.39,3.39,0,0,1,148.43,76.86ZM151,73.33a2.15,2.15,0,0,0-.12-.73,1.68,1.68,0,0,0-.95-1,1.94,1.94,0,0,0-.78-.14,2.13,2.13,0,0,0-1,.23,2.43,2.43,0,0,0-.78.61,2.94,2.94,0,0,0-.53.91,3.23,3.23,0,0,0-.19,1.08,2,2,0,0,0,.13.74,1.62,1.62,0,0,0,.36.59,1.85,1.85,0,0,0,.58.39,2,2,0,0,0,.77.14,2.12,2.12,0,0,0,1-.23,2.4,2.4,0,0,0,.8-.61,3.07,3.07,0,0,0,.52-.9A3.3,3.3,0,0,0,151,73.33Z" fill="#00205c"/><path d="M154.77,70.93c0,.16,0,.33-.06.52s-.05.35-.08.47h0a2.44,2.44,0,0,1,.86-.83,2.25,2.25,0,0,1,1.12-.31,2.1,2.1,0,0,1,1.47.48,1.67,1.67,0,0,1,.53,1.29c0,.1,0,.2,0,.3s0,.2,0,.32l-.64,3.55h-.83l.56-3.2a3.88,3.88,0,0,0,.08-.73,1.47,1.47,0,0,0-.29-1,1.2,1.2,0,0,0-1-.35,1.72,1.72,0,0,0-.66.13,1.93,1.93,0,0,0-.63.42,3,3,0,0,0-.51.71,3.24,3.24,0,0,0-.32,1l-.52,3H153l.79-4.51c0-.16.07-.36.11-.61s.06-.47.08-.67Z" fill="#00205c"/><path d="M165.53,76.86a3.12,3.12,0,0,1-1.07-.18,2.87,2.87,0,0,1-.85-.51,2.38,2.38,0,0,1-.55-.8,2.53,2.53,0,0,1-.2-1,3.72,3.72,0,0,1,.26-1.38,3.43,3.43,0,0,1,.71-1.14,3.34,3.34,0,0,1,2.47-1.06,3.14,3.14,0,0,1,1.08.18,2.25,2.25,0,0,1,.84.52,2.34,2.34,0,0,1,.55.79,2.53,2.53,0,0,1,.2,1,3.87,3.87,0,0,1-.26,1.4,3.23,3.23,0,0,1-.71,1.13,3.29,3.29,0,0,1-2.47,1Zm2.57-3.53a2.15,2.15,0,0,0-.12-.73,1.54,1.54,0,0,0-.36-.59,1.6,1.6,0,0,0-.59-.39,1.94,1.94,0,0,0-.78-.14,2.06,2.06,0,0,0-1,.23,2.36,2.36,0,0,0-.79.61,3.15,3.15,0,0,0-.53.91,3.23,3.23,0,0,0-.19,1.08,2,2,0,0,0,.13.74,1.62,1.62,0,0,0,.36.59,1.85,1.85,0,0,0,.58.39,2.07,2.07,0,0,0,.77.14,2.18,2.18,0,0,0,1-.23,2.47,2.47,0,0,0,.79-.61,3.07,3.07,0,0,0,.52-.9A3.3,3.3,0,0,0,168.1,73.33Z" fill="#00205c"/><path d="M173.43,71.62h-1.36l-.89,5.1h-.83l.89-5.1H170l.13-.69h1.2l.27-1.57a3.86,3.86,0,0,1,.24-.82,2.38,2.38,0,0,1,.43-.68,1.83,1.83,0,0,1,.63-.46,2,2,0,0,1,.87-.17h.33l.35.07-.2.73a2.1,2.1,0,0,0-.58-.07,1.08,1.08,0,0,0-.52.11,1,1,0,0,0-.35.31,1.8,1.8,0,0,0-.24.48,3.28,3.28,0,0,0-.14.58l-.26,1.48h1.38Z" fill="#00205c"/><path d="M181.39,75.21h0L185.64,68H187l-1.54,8.75h-.88l1.34-7.57h0l-4.5,7.57h-.47l-1.83-7.57h0l-1.33,7.57h-.87L178.4,68h1.33Z" fill="#00205c"/><path d="M190.23,76.86a3.08,3.08,0,0,1-1.07-.18,2.87,2.87,0,0,1-.85-.51,2.38,2.38,0,0,1-.55-.8,2.53,2.53,0,0,1-.2-1,3.72,3.72,0,0,1,.26-1.38,3.43,3.43,0,0,1,.71-1.14A3.34,3.34,0,0,1,191,70.78a3.14,3.14,0,0,1,1.08.18,2.41,2.41,0,0,1,1.39,1.31,2.53,2.53,0,0,1,.2,1,3.87,3.87,0,0,1-.26,1.4,3.23,3.23,0,0,1-.71,1.13,3.29,3.29,0,0,1-2.47,1Zm2.57-3.53a2.15,2.15,0,0,0-.12-.73,1.54,1.54,0,0,0-.36-.59,1.6,1.6,0,0,0-.59-.39,1.94,1.94,0,0,0-.78-.14,2.06,2.06,0,0,0-1,.23,2.36,2.36,0,0,0-.79.61,3.15,3.15,0,0,0-.53.91,3.23,3.23,0,0,0-.19,1.08,2,2,0,0,0,.13.74,1.62,1.62,0,0,0,.36.59,1.85,1.85,0,0,0,.58.39,2,2,0,0,0,.77.14,2.18,2.18,0,0,0,1-.23,2.47,2.47,0,0,0,.79-.61,3.07,3.07,0,0,0,.52-.9A3.3,3.3,0,0,0,192.8,73.33Z" fill="#00205c"/><path d="M195.69,71.6c0-.25.06-.47.08-.67h.79c0,.16,0,.33-.06.52s-.05.35-.08.47h0a2.54,2.54,0,0,1,.81-.82,2,2,0,0,1,1.12-.32l.28,0a.85.85,0,0,1,.26,0l-.2.79a.72.72,0,0,0-.23,0,1.87,1.87,0,0,0-.34,0,1.64,1.64,0,0,0-.65.13,1.6,1.6,0,0,0-.59.39,2.49,2.49,0,0,0-.47.67,3.69,3.69,0,0,0-.3,1l-.52,3h-.83l.79-4.51C195.62,72.05,195.65,71.85,195.69,71.6Z" fill="#00205c"/><path d="M198.84,77.93a2.38,2.38,0,0,0,.88.73A2.66,2.66,0,0,0,201,79a2.83,2.83,0,0,0,1.06-.18,2.13,2.13,0,0,0,.74-.49,2.41,2.41,0,0,0,.47-.73,5,5,0,0,0,.26-.88l.21-1.1h0a2.69,2.69,0,0,1-1,.85,2.61,2.61,0,0,1-1.24.3,2.74,2.74,0,0,1-1.06-.2,2.15,2.15,0,0,1-.81-.53,2.3,2.3,0,0,1-.52-.81,2.7,2.7,0,0,1-.18-1,3.48,3.48,0,0,1,1-2.4,3.35,3.35,0,0,1,2.42-1,2.7,2.7,0,0,1,.62.08,2.32,2.32,0,0,1,.57.22,1.92,1.92,0,0,1,.48.37,1.58,1.58,0,0,1,.33.48h0l.19-1h.81l-1,5.74a7.82,7.82,0,0,1-.26,1,2.74,2.74,0,0,1-.54,1,2.63,2.63,0,0,1-1,.74,3.5,3.5,0,0,1-1.56.3,3.7,3.7,0,0,1-1.55-.31,2.8,2.8,0,0,1-1.11-.85Zm.91-3.74a2.08,2.08,0,0,0,.12.71,1.71,1.71,0,0,0,.36.59,1.6,1.6,0,0,0,.58.39,2,2,0,0,0,.79.14,2.45,2.45,0,0,0,1-.21,2.6,2.6,0,0,0,.8-.59,2.86,2.86,0,0,0,.52-.86,2.94,2.94,0,0,0,.18-1,1.88,1.88,0,0,0-.13-.72,1.69,1.69,0,0,0-.37-.59,1.76,1.76,0,0,0-.59-.4,2.13,2.13,0,0,0-.78-.14,2.42,2.42,0,0,0-1.81.74,2.8,2.8,0,0,0-.51.86A3.31,3.31,0,0,0,199.75,74.19Z" fill="#00205c"/><path d="M210.66,73.17c0-.14,0-.25.05-.33s0-.15,0-.21a1,1,0,0,0-.36-.89,1.63,1.63,0,0,0-1-.26,2.45,2.45,0,0,0-1,.2,2.94,2.94,0,0,0-.8.49l-.37-.56a3.33,3.33,0,0,1,1-.6,3.57,3.57,0,0,1,1.23-.23,2.88,2.88,0,0,1,.78.1,2,2,0,0,1,.66.29,1.59,1.59,0,0,1,.44.52,1.64,1.64,0,0,1,.17.76c0,.08,0,.18,0,.3s0,.24,0,.32L211,75.42c0,.22-.08.45-.1.69a4.88,4.88,0,0,0,0,.61h-.74c0-.14,0-.3,0-.46a3.5,3.5,0,0,1,.06-.48h0a3.66,3.66,0,0,1-.49.48,2.27,2.27,0,0,1-.52.33,2.38,2.38,0,0,1-.57.18,3.37,3.37,0,0,1-.66.06,2.54,2.54,0,0,1-.6-.08,1.5,1.5,0,0,1-.56-.25,1.43,1.43,0,0,1-.42-.46,1.31,1.31,0,0,1-.17-.71,1.61,1.61,0,0,1,.39-1.12,2.6,2.6,0,0,1,1-.65,5.93,5.93,0,0,1,1.42-.31C209.59,73.2,210.12,73.17,210.66,73.17Zm-.31.63c-.37,0-.75,0-1.14,0a5.13,5.13,0,0,0-1.05.21,2.1,2.1,0,0,0-.78.44.92.92,0,0,0-.31.73,1,1,0,0,0,.1.45.84.84,0,0,0,.27.29,1.16,1.16,0,0,0,.38.15,3.27,3.27,0,0,0,.44,0,2.18,2.18,0,0,0,.82-.15,2.24,2.24,0,0,0,1.12-1,2.47,2.47,0,0,0,.26-.72l.09-.48Z" fill="#00205c"/><path d="M214.59,70.93c0,.16,0,.33-.06.52s-.05.35-.08.47h0a2.44,2.44,0,0,1,.86-.83,2.22,2.22,0,0,1,1.12-.31,2.1,2.1,0,0,1,1.47.48,1.66,1.66,0,0,1,.52,1.29c0,.1,0,.2,0,.3s0,.2-.05.32l-.64,3.55h-.83l.57-3.2a3.88,3.88,0,0,0,.08-.73,1.47,1.47,0,0,0-.29-1,1.2,1.2,0,0,0-1-.35,1.81,1.81,0,0,0-.67.13A1.89,1.89,0,0,0,215,72a2.75,2.75,0,0,0-.51.71,3.53,3.53,0,0,0-.33,1l-.51,3h-.83l.79-4.51c0-.16.07-.36.1-.61a6.34,6.34,0,0,0,.08-.67Z" fill="#00205c"/><path d="M224.81,75.49h0L228.48,68h1.06l.73,7.52h0l3.6-7.52h.94l-4.27,8.75h-1l-.71-7.54h0l-3.7,7.54h-1l-.9-8.75h.94Z" fill="#00205c"/><path d="M237.92,70.78a2.08,2.08,0,0,1,1.45.48,1.64,1.64,0,0,1,.54,1.29c0,.1,0,.2,0,.3s0,.2,0,.32l-.64,3.55h-.83l.57-3.2a3.88,3.88,0,0,0,.08-.73,1.47,1.47,0,0,0-.29-1,1.26,1.26,0,0,0-1-.35,1.74,1.74,0,0,0-.67.13,1.89,1.89,0,0,0-.62.42,2.72,2.72,0,0,0-.5.71,3.53,3.53,0,0,0-.31,1l-.52,3h-.83l1.64-9.35h.83l-.79,4.51h0a2.57,2.57,0,0,1,.84-.8A2.21,2.21,0,0,1,237.92,70.78Z" fill="#00205c"/><path d="M242.07,76.72h-.83l1-5.79h.82Zm1.52-8a.61.61,0,0,1-.17.42.59.59,0,0,1-.81,0,.49.49,0,0,1-.17-.41.6.6,0,0,1,.59-.6.57.57,0,0,1,.4.15A.59.59,0,0,1,243.59,68.7Z" fill="#00205c"/><path d="M247.46,71.62h-1.57l-.61,3.4a3.18,3.18,0,0,0,0,.4.62.62,0,0,0,.2.54.91.91,0,0,0,.52.14,1.36,1.36,0,0,0,.38-.06.73.73,0,0,0,.32-.14l-.09.72a1.74,1.74,0,0,1-.42.13,4.56,4.56,0,0,1-.54,0,2,2,0,0,1-.42-.05,1,1,0,0,1-.4-.18.91.91,0,0,1-.29-.35,1.2,1.2,0,0,1-.12-.57,1.84,1.84,0,0,1,0-.39l.64-3.63h-1.2l.14-.69h1.17l.28-1.63h.83L246,70.93h1.59Z" fill="#00205c"/><path d="M248.63,74.05a.68.68,0,0,0,0,.14s0,.09,0,.13a1.86,1.86,0,0,0,.15.75,1.74,1.74,0,0,0,.39.58,2,2,0,0,0,.59.39,2,2,0,0,0,.74.13,2.31,2.31,0,0,0,1.19-.3,2.82,2.82,0,0,0,.81-.71l.52.49a3.26,3.26,0,0,1-1.17.91,3.45,3.45,0,0,1-1.42.3,3,3,0,0,1-1-.17,2.51,2.51,0,0,1-.84-.49,2.28,2.28,0,0,1-.55-.8,2.67,2.67,0,0,1-.21-1.08A3.64,3.64,0,0,1,248,73a3.69,3.69,0,0,1,.71-1.12,3.64,3.64,0,0,1,1.07-.78,3,3,0,0,1,1.31-.29,2.4,2.4,0,0,1,1.8.63,2.25,2.25,0,0,1,.61,1.64c0,.09,0,.24,0,.45a4.21,4.21,0,0,1-.09.55Zm4-.62c0-.07,0-.14,0-.22V73a1.54,1.54,0,0,0-.4-1.1,1.62,1.62,0,0,0-1.2-.42,2.34,2.34,0,0,0-.85.15,2.23,2.23,0,0,0-.69.43,2.77,2.77,0,0,0-.51.62,2.56,2.56,0,0,0-.3.75Z" fill="#00205c"/><path d="M261.8,76.17a5.66,5.66,0,0,0,1.4-.16,3.86,3.86,0,0,0,1.08-.43l.47-2.68h-2.06l.14-.76h2.92l-.69,3.94a5.77,5.77,0,0,1-1.6.66,7.41,7.41,0,0,1-1.71.2,4.55,4.55,0,0,1-1.6-.27,3.72,3.72,0,0,1-1.24-.77,3.38,3.38,0,0,1-.8-1.19,4,4,0,0,1-.29-1.53,5.52,5.52,0,0,1,.41-2.12,5.32,5.32,0,0,1,1.12-1.73A5.4,5.4,0,0,1,261,68.17a5,5,0,0,1,2-.43,4.73,4.73,0,0,1,.93.1,4.36,4.36,0,0,1,.84.28,3.17,3.17,0,0,1,.68.44,2.23,2.23,0,0,1,.49.58l-.8.53a2.11,2.11,0,0,0-.29-.42,2.6,2.6,0,0,0-.47-.38,2.69,2.69,0,0,0-.62-.26,2.8,2.8,0,0,0-.79-.1,3.81,3.81,0,0,0-1.72.39,4.41,4.41,0,0,0-1.35,1,4.91,4.91,0,0,0-1.19,3.16,3.7,3.7,0,0,0,.2,1.21,2.79,2.79,0,0,0,.59,1,2.72,2.72,0,0,0,.95.65A3.28,3.28,0,0,0,261.8,76.17Z" fill="#00205c"/><path d="M267.8,71.6c0-.25.06-.47.08-.67h.79c0,.16,0,.33-.06.52s-.05.35-.08.47h0a2.57,2.57,0,0,1,.82-.82,2,2,0,0,1,1.11-.32l.28,0a.85.85,0,0,1,.26,0l-.2.79a.66.66,0,0,0-.23,0,1.87,1.87,0,0,0-.34,0,1.64,1.64,0,0,0-.65.13,1.68,1.68,0,0,0-.59.39,2.73,2.73,0,0,0-.47.67,4.08,4.08,0,0,0-.3,1l-.52,3h-.83l.79-4.51C267.73,72.05,267.76,71.85,267.8,71.6Z" fill="#00205c"/><path d="M273.54,76.86a3.14,3.14,0,0,1-1.08-.18,2.7,2.7,0,0,1-.84-.51,2.24,2.24,0,0,1-.55-.8,2.53,2.53,0,0,1-.2-1,3.72,3.72,0,0,1,.25-1.38,3.6,3.6,0,0,1,.71-1.14,3.53,3.53,0,0,1,1.09-.77,3.31,3.31,0,0,1,1.38-.29,3.16,3.16,0,0,1,1.09.18,2.42,2.42,0,0,1,.84.52,2.49,2.49,0,0,1,.55.79,2.53,2.53,0,0,1,.19,1,3.86,3.86,0,0,1-.25,1.4,3.4,3.4,0,0,1-1.8,1.9A3.31,3.31,0,0,1,273.54,76.86Zm2.57-3.53a2.15,2.15,0,0,0-.12-.73,1.69,1.69,0,0,0-.37-.59,1.56,1.56,0,0,0-.58-.39,1.94,1.94,0,0,0-.78-.14,2.13,2.13,0,0,0-1,.23,2.58,2.58,0,0,0-.79.61,3.13,3.13,0,0,0-.52.91,3,3,0,0,0-.19,1.08,2.21,2.21,0,0,0,.12.74,1.64,1.64,0,0,0,.37.59,1.85,1.85,0,0,0,.58.39,2,2,0,0,0,.77.14,2.17,2.17,0,0,0,1-.23,2.51,2.51,0,0,0,.8-.61,2.84,2.84,0,0,0,.51-.9A3.07,3.07,0,0,0,276.11,73.33Z" fill="#00205c"/><path d="M282.15,76.72c0-.16,0-.33.06-.52s.05-.35.08-.47h0a2.44,2.44,0,0,1-.86.83,2.2,2.2,0,0,1-1.11.3,2.1,2.1,0,0,1-1.47-.47,1.62,1.62,0,0,1-.52-1.28,1.51,1.51,0,0,1,0-.3c0-.1,0-.2,0-.32l.64-3.55h.83l-.57,3.2a4,4,0,0,0-.07.73,1.46,1.46,0,0,0,.28,1,1.23,1.23,0,0,0,1,.34,1.72,1.72,0,0,0,.66-.13,1.89,1.89,0,0,0,.62-.42,2.55,2.55,0,0,0,.52-.7,3.87,3.87,0,0,0,.32-1l.51-3h.83l-.79,4.52c0,.15-.07.35-.1.6s-.07.46-.09.66Z" fill="#00205c"/><path d="M286.81,71.87a1.75,1.75,0,0,1,.36-.42,2.2,2.2,0,0,1,.5-.34,2.69,2.69,0,0,1,.6-.24,2.41,2.41,0,0,1,.67-.09A3,3,0,0,1,290,71a2.38,2.38,0,0,1,.83.52,2.29,2.29,0,0,1,.53.79,2.71,2.71,0,0,1,.18,1,3.67,3.67,0,0,1-.26,1.4,3.55,3.55,0,0,1-.71,1.13,3.44,3.44,0,0,1-1.07.77,3.25,3.25,0,0,1-1.36.28,2.53,2.53,0,0,1-1.18-.28,1.92,1.92,0,0,1-.83-.84h0l-.71,3.94h-.83l1.56-8.75H287l-.17.94Zm3.87,1.46a2.18,2.18,0,0,0-.12-.72,1.64,1.64,0,0,0-.92-1,1.87,1.87,0,0,0-.78-.14,2.29,2.29,0,0,0-1,.22,2.48,2.48,0,0,0-.82.61,2.85,2.85,0,0,0-.54.91,3,3,0,0,0-.2,1.08,2,2,0,0,0,.13.75,1.58,1.58,0,0,0,.38.59,1.82,1.82,0,0,0,.58.4,2.13,2.13,0,0,0,.78.13,2.32,2.32,0,0,0,1-.22,2.51,2.51,0,0,0,.8-.61,2.64,2.64,0,0,0,.51-.9A3.31,3.31,0,0,0,290.68,73.33Z" fill="#00205c"/></svg>