<svg xmlns="http://www.w3.org/2000/svg" viewBox="0 0 334.36 91.32"><title>mwgbs-reverse</title><path d="M108.33,34.94h7.83a19.43,19.43,0,0,1,2.74.2,7.23,7.23,0,0,1,2.48.8,4.89,4.89,0,0,1,1.78,1.69,5.37,5.37,0,0,1,.68,2.87,4.7,4.7,0,0,1-1,3.07,5.4,5.4,0,0,1-2.63,1.75v.06a5.74,5.74,0,0,1,1.89.6,5,5,0,0,1,1.45,1.15,4.64,4.64,0,0,1,.93,1.62,5.82,5.82,0,0,1,.33,2,5.45,5.45,0,0,1-.71,2.89,5.67,5.67,0,0,1-1.84,1.87,7.61,7.61,0,0,1-2.54,1,12.71,12.71,0,0,1-2.8.31h-8.6ZM113,43.68h3.35a4.57,4.57,0,0,0,1-.12,2.93,2.93,0,0,0,.94-.4,2.09,2.09,0,0,0,.66-.75,2.22,2.22,0,0,0,.26-1.11,2,2,0,0,0-1-1.82,3.55,3.55,0,0,0-1-.35,5.26,5.26,0,0,0-1.1-.11H113Zm0,9h4.15a5,5,0,0,0,1.08-.12,2.89,2.89,0,0,0,1-.43,2.56,2.56,0,0,0,.72-.81,2.37,2.37,0,0,0,.28-1.2,2,2,0,0,0-.37-1.25,2.32,2.32,0,0,0-.93-.73,4.77,4.77,0,0,0-1.22-.34,8.86,8.86,0,0,0-1.21-.09H113Z" fill="#fff"/><path d="M127.55,34.94h8.12a14.1,14.1,0,0,1,3,.32,7.14,7.14,0,0,1,2.53,1.09,5.35,5.35,0,0,1,1.72,2,7.24,7.24,0,0,1,.63,3.2,6.6,6.6,0,0,1-1.15,3.94,5.14,5.14,0,0,1-3.38,2l5.33,9.24h-5.54l-4.39-8.74h-2.28v8.74h-4.63ZM132.18,44h2.72c.42,0,.86,0,1.32-.05a4,4,0,0,0,1.26-.27,2.06,2.06,0,0,0,1.31-2.12,2.36,2.36,0,0,0-.33-1.33,2.13,2.13,0,0,0-.83-.75,3.37,3.37,0,0,0-1.15-.36A9.4,9.4,0,0,0,135.2,39h-3Z" fill="#fff"/><path d="M145.64,45.87a12.84,12.84,0,0,1,.84-4.75,10.56,10.56,0,0,1,2.36-3.63,10.29,10.29,0,0,1,3.59-2.3,13.1,13.1,0,0,1,9.07,0,10.2,10.2,0,0,1,3.59,2.3,10.42,10.42,0,0,1,2.36,3.63,13.73,13.73,0,0,1,0,9.51,10.42,10.42,0,0,1-2.36,3.63,10.2,10.2,0,0,1-3.59,2.3,13.1,13.1,0,0,1-9.07,0,10.29,10.29,0,0,1-3.59-2.3,10.56,10.56,0,0,1-2.36-3.63A12.85,12.85,0,0,1,145.64,45.87Zm4.8,0a8.44,8.44,0,0,0,.46,2.83,6.63,6.63,0,0,0,1.32,2.23,6.18,6.18,0,0,0,2.06,1.46,7.07,7.07,0,0,0,5.37,0,6.08,6.08,0,0,0,2.06-1.46A6.32,6.32,0,0,0,163,48.7a8.2,8.2,0,0,0,.46-2.83,8.32,8.32,0,0,0-.46-2.81,6.36,6.36,0,0,0-1.32-2.24,6.08,6.08,0,0,0-2.06-1.46,7.07,7.07,0,0,0-5.37,0,6.18,6.18,0,0,0-2.06,1.46,6.67,6.67,0,0,0-1.32,2.24A8.58,8.58,0,0,0,150.44,45.87Z" fill="#fff"/><path d="M171.62,34.94h4.62V44l8.16-9.08h6L181.11,45.1l10.14,11.71h-6.47l-8.54-10.38V56.81h-4.62Z" fill="#fff"/><path d="M193,34.94h14.26v4.45h-9.64v4.08h9.11v4.44h-9.11v4.45h10.18v4.45H193Z" fill="#fff"/><path d="M211.53,34.94h8.13a14.17,14.17,0,0,1,3,.32,7,7,0,0,1,2.52,1.09,5.35,5.35,0,0,1,1.72,2,7.24,7.24,0,0,1,.64,3.2,6.61,6.61,0,0,1-1.16,3.94,5.14,5.14,0,0,1-3.38,2l5.34,9.24h-5.55l-4.39-8.74h-2.28v8.74h-4.63ZM216.16,44h2.73c.41,0,.85,0,1.32-.05a4.15,4.15,0,0,0,1.26-.27,2.28,2.28,0,0,0,.93-.73,2.25,2.25,0,0,0,.37-1.39,2.45,2.45,0,0,0-.32-1.33,2.2,2.2,0,0,0-.83-.75,3.5,3.5,0,0,0-1.16-.36,9.4,9.4,0,0,0-1.28-.09h-3Z" fill="#fff"/><path d="M246.35,43.25a3.37,3.37,0,0,0-3-1.59,4.17,4.17,0,0,0-1.21.18,3.43,3.43,0,0,0-1.07.52,2.86,2.86,0,0,0-.76.92A2.91,2.91,0,0,0,240,44.6a2.35,2.35,0,0,0,.59,1.71,4.65,4.65,0,0,0,1.48,1A16.62,16.62,0,0,0,244,48a8.5,8.5,0,0,1,1.92.83,4.69,4.69,0,0,1,1.48,1.36,4,4,0,0,1,.59,2.32,4.28,4.28,0,0,1-.45,2A4.33,4.33,0,0,1,246.36,56a5.61,5.61,0,0,1-3.49,1.24,6.66,6.66,0,0,1-2.72-.56A5.15,5.15,0,0,1,238,54.81l1.45-1.07a3.94,3.94,0,0,0,1.41,1.43,4.06,4.06,0,0,0,2.13.54,3.75,3.75,0,0,0,1.18-.2,3.33,3.33,0,0,0,1.07-.57A3.22,3.22,0,0,0,246,54a2.61,2.61,0,0,0,.31-1.26,2.72,2.72,0,0,0-.34-1.41,2.92,2.92,0,0,0-.91-.94,4.93,4.93,0,0,0-1.28-.63l-1.47-.51c-.51-.17-1-.36-1.48-.57a5.48,5.48,0,0,1-1.28-.82,3.71,3.71,0,0,1-.9-1.24,4.43,4.43,0,0,1-.34-1.87,4.51,4.51,0,0,1,.43-2,4.43,4.43,0,0,1,1.14-1.45,4.81,4.81,0,0,1,1.62-.84,6.15,6.15,0,0,1,1.85-.28,6.39,6.39,0,0,1,2.41.44,5.21,5.21,0,0,1,2,1.53Z" fill="#fff"/><path d="M252.81,55.3h8.35v1.51h-9.94V40.56h9.67v1.52h-8.08v5.53h7.55v1.51h-7.55Z" fill="#fff"/><path d="M265.87,56.81h-1.59V40.56h4.81a5.91,5.91,0,0,1,3.75,1.08,3.89,3.89,0,0,1,1.38,3.26,4.18,4.18,0,0,1-1,2.86,4.34,4.34,0,0,1-3,1.34l4.5,7.71h-1.94l-4.28-7.55h-2.64Zm0-9.06h2.82a6.25,6.25,0,0,0,1.8-.23,3.38,3.38,0,0,0,1.17-.61,2.11,2.11,0,0,0,.64-.9,2.88,2.88,0,0,0,.2-1.11,2.85,2.85,0,0,0-.2-1.09,2.26,2.26,0,0,0-.64-.91,2.93,2.93,0,0,0-1.17-.6,6.28,6.28,0,0,0-1.8-.22h-2.82Z" fill="#fff"/><path d="M282,54.33h0l5.11-13.77h1.72l-6.08,16.25h-1.58L275.3,40.56h1.76Z" fill="#fff"/><path d="M292.53,56.81h-1.59V40.56h1.59Z" fill="#fff"/><path d="M309.6,54.24a6.21,6.21,0,0,1-1,1.17,5.83,5.83,0,0,1-1.33,1,7.18,7.18,0,0,1-1.62.63,6.93,6.93,0,0,1-1.84.23,8,8,0,0,1-3.23-.64A7.89,7.89,0,0,1,298,54.8a8.17,8.17,0,0,1-1.7-2.69,9.74,9.74,0,0,1,0-6.84,8.32,8.32,0,0,1,1.7-2.7,7.89,7.89,0,0,1,2.58-1.78,8,8,0,0,1,3.23-.64,7.58,7.58,0,0,1,2.91.6,5.93,5.93,0,0,1,2.49,2l-1.39,1.08a3.8,3.8,0,0,0-.66-.78,4.9,4.9,0,0,0-1-.69,5.66,5.66,0,0,0-1.16-.48,4.38,4.38,0,0,0-1.23-.19,6.14,6.14,0,0,0-2.69.58,6,6,0,0,0-2,1.54A6.69,6.69,0,0,0,297.86,46a8.35,8.35,0,0,0,0,5.35,6.74,6.74,0,0,0,1.26,2.24,6.31,6.31,0,0,0,2,1.54,6.14,6.14,0,0,0,2.69.57,6.23,6.23,0,0,0,1.22-.12,4.48,4.48,0,0,0,1.19-.39,4.34,4.34,0,0,0,1.1-.74,5.48,5.48,0,0,0,1-1.18Z" fill="#fff"/><path d="M313.85,55.3h8.35v1.51h-9.94V40.56h9.68v1.52h-8.09v5.53h7.56v1.51h-7.56Z" fill="#fff"/><path d="M332.71,43.25a3.38,3.38,0,0,0-3-1.59,4.17,4.17,0,0,0-1.21.18,3.33,3.33,0,0,0-1.07.52,2.63,2.63,0,0,0-.76.92,2.92,2.92,0,0,0-.29,1.32,2.31,2.31,0,0,0,.6,1.71,4.72,4.72,0,0,0,1.47,1,16.62,16.62,0,0,0,1.93.7,8.58,8.58,0,0,1,1.93.83,4.69,4.69,0,0,1,1.48,1.36,4,4,0,0,1,.59,2.32,4.28,4.28,0,0,1-.45,2A4.45,4.45,0,0,1,332.72,56a5.34,5.34,0,0,1-1.65.92,5.4,5.4,0,0,1-1.84.32,6.63,6.63,0,0,1-2.72-.56,5.15,5.15,0,0,1-2.19-1.85l1.45-1.07a3.92,3.92,0,0,0,1.4,1.43,4.06,4.06,0,0,0,2.13.54,3.81,3.81,0,0,0,1.19-.2,3.44,3.44,0,0,0,1.07-.57,3.22,3.22,0,0,0,.78-.93,2.95,2.95,0,0,0,0-2.67,3,3,0,0,0-.9-.94,5.09,5.09,0,0,0-1.28-.63l-1.48-.51q-.75-.25-1.47-.57a5.1,5.1,0,0,1-1.28-.82,3.58,3.58,0,0,1-.9-1.24,4.43,4.43,0,0,1-.34-1.87,4.64,4.64,0,0,1,.42-2,4.33,4.33,0,0,1,1.15-1.45,4.81,4.81,0,0,1,1.62-.84,6.1,6.1,0,0,1,1.85-.28,6.37,6.37,0,0,1,2.4.44,5.24,5.24,0,0,1,2,1.53Z" fill="#fff"/><path d="M107.21,76.64h-1l5.63-8.75h.87l1.81,8.75h-.92l-.47-2.3h-4.48Zm1.94-3.11H113l-.91-4.65Z" fill="#fff"/><path d="M118.38,74.29a3.77,3.77,0,0,1,.25-1.39,3.49,3.49,0,0,1,.71-1.14,3.53,3.53,0,0,1,1.09-.77,3.17,3.17,0,0,1,1.35-.28A2.53,2.53,0,0,1,123,71a1.87,1.87,0,0,1,.83.84h0l.8-4.53h.83l-1.66,9.34H123l.18-1h0a2.37,2.37,0,0,1-.85.77,2.48,2.48,0,0,1-1.27.33,3,3,0,0,1-1.07-.18,2.37,2.37,0,0,1-.82-.51,2.34,2.34,0,0,1-.53-.79A2.61,2.61,0,0,1,118.38,74.29Zm.87-.05a2.15,2.15,0,0,0,.11.73,1.85,1.85,0,0,0,.35.59,1.61,1.61,0,0,0,.57.39,1.94,1.94,0,0,0,.78.15,2.38,2.38,0,0,0,1-.23,2.55,2.55,0,0,0,.81-.61,2.92,2.92,0,0,0,.54-.9,2.82,2.82,0,0,0,.2-1.09,2,2,0,0,0-.13-.75,1.64,1.64,0,0,0-1-1,2.06,2.06,0,0,0-.76-.14,2.36,2.36,0,0,0-1,.22,2.47,2.47,0,0,0-.79.61,2.69,2.69,0,0,0-.52.9A3.59,3.59,0,0,0,119.25,74.24Z" fill="#fff"/><path d="M126.77,76.64h-.83l1-5.78h.83Zm1.52-8a.57.57,0,0,1-.17.42.53.53,0,0,1-.41.17.61.61,0,0,1-.4-.14.53.53,0,0,1-.17-.41.55.55,0,0,1,.18-.43.57.57,0,0,1,.41-.18.54.54,0,0,1,.4.16A.53.53,0,0,1,128.29,68.62Z" fill="#fff"/><path d="M131,76.64h-.89l-1.21-5.78h.85l.93,4.89h0l2.88-4.89h.9Z" fill="#fff"/><path d="M135.44,76.64h-.82l1-5.78h.83Zm1.52-8a.57.57,0,0,1-.16.42.54.54,0,0,1-.42.17.63.63,0,0,1-.4-.14.53.53,0,0,1-.16-.41.6.6,0,0,1,.59-.61.5.5,0,0,1,.39.16A.53.53,0,0,1,137,68.62Z" fill="#fff"/><path d="M141.46,72.13a1.39,1.39,0,0,0-.52-.53,1.63,1.63,0,0,0-.82-.2,2.59,2.59,0,0,0-.47,0,1.54,1.54,0,0,0-.44.16,1,1,0,0,0-.34.29.79.79,0,0,0-.13.44.82.82,0,0,0,.08.38.82.82,0,0,0,.23.26,1.51,1.51,0,0,0,.36.18,3.85,3.85,0,0,0,.48.16,3.5,3.5,0,0,1,1.3.62,1.32,1.32,0,0,1,.45,1.07,1.45,1.45,0,0,1-.22.81,1.74,1.74,0,0,1-.53.55,2.18,2.18,0,0,1-.71.32,3.09,3.09,0,0,1-.78.1,3.49,3.49,0,0,1-1.37-.27,2.16,2.16,0,0,1-1-.82l.72-.47a1.76,1.76,0,0,0,.63.61,1.83,1.83,0,0,0,1,.26,2.33,2.33,0,0,0,.53-.06,1.63,1.63,0,0,0,.47-.17,1,1,0,0,0,.32-.31.85.85,0,0,0-.24-1.15,4.11,4.11,0,0,0-1-.47,5.55,5.55,0,0,1-.52-.2,1.75,1.75,0,0,1-.47-.29,1.44,1.44,0,0,1-.34-.43,1.31,1.31,0,0,1-.13-.61,1.45,1.45,0,0,1,.2-.77,1.75,1.75,0,0,1,.52-.53,2.14,2.14,0,0,1,.71-.3,3.11,3.11,0,0,1,.79-.1,2.71,2.71,0,0,1,1.2.26,1.66,1.66,0,0,1,.76.69Z" fill="#fff"/><path d="M143.7,76.64h-.83l1-5.78h.82Zm1.52-8a.57.57,0,0,1-.17.42.53.53,0,0,1-.41.17.61.61,0,0,1-.4-.14.53.53,0,0,1-.17-.41.55.55,0,0,1,.18-.43.57.57,0,0,1,.41-.18.54.54,0,0,1,.4.16A.53.53,0,0,1,145.22,68.62Z" fill="#fff"/><path d="M148.43,76.79a2.87,2.87,0,0,1-1.07-.19,2.41,2.41,0,0,1-.85-.51,2.34,2.34,0,0,1-.55-.79,2.61,2.61,0,0,1-.2-1A3.72,3.72,0,0,1,146,72.9,3.49,3.49,0,0,1,147.81,71a3.32,3.32,0,0,1,1.39-.28,3.14,3.14,0,0,1,1.08.18,2.56,2.56,0,0,1,.84.51,2.44,2.44,0,0,1,.55.79,2.56,2.56,0,0,1,.2,1,3.83,3.83,0,0,1-.26,1.4,3.33,3.33,0,0,1-.71,1.14,3.46,3.46,0,0,1-1.08.76A3.39,3.39,0,0,1,148.43,76.79ZM151,73.26a2.21,2.21,0,0,0-.12-.74,1.73,1.73,0,0,0-.37-.59,1.85,1.85,0,0,0-.58-.39,2.13,2.13,0,0,0-.78-.14,2.26,2.26,0,0,0-1,.23,2.46,2.46,0,0,0-.78.62,2.89,2.89,0,0,0-.53.9,3.33,3.33,0,0,0-.19,1.09,1.93,1.93,0,0,0,.13.73,1.54,1.54,0,0,0,.36.59,1.56,1.56,0,0,0,.58.39,1.86,1.86,0,0,0,.77.15,2.24,2.24,0,0,0,1-.23,2.57,2.57,0,0,0,.8-.62,2.9,2.9,0,0,0,.52-.89A3.34,3.34,0,0,0,151,73.26Z" fill="#fff"/><path d="M154.77,70.86c0,.15,0,.33-.06.52s-.05.34-.08.47h0a2.38,2.38,0,0,1,.86-.84,2.24,2.24,0,0,1,1.12-.3,2.14,2.14,0,0,1,1.47.47,1.67,1.67,0,0,1,.53,1.3c0,.09,0,.19,0,.29s0,.21,0,.32l-.64,3.55h-.83l.56-3.2a3.88,3.88,0,0,0,.08-.73,1.5,1.5,0,0,0-.29-1,1.23,1.23,0,0,0-1-.35,1.74,1.74,0,0,0-.66.14,1.93,1.93,0,0,0-.63.42,2.81,2.81,0,0,0-.51.71,3.18,3.18,0,0,0-.32,1l-.52,3H153l.79-4.51c0-.16.07-.36.11-.61s.06-.47.08-.66Z" fill="#fff"/><path d="M165.53,76.79a2.9,2.9,0,0,1-1.07-.19,2.5,2.5,0,0,1-.85-.51,2.34,2.34,0,0,1-.55-.79,2.61,2.61,0,0,1-.2-1,3.72,3.72,0,0,1,.26-1.38,3.39,3.39,0,0,1,.71-1.13,3.25,3.25,0,0,1,1.08-.78,3.39,3.39,0,0,1,1.39-.28,3.14,3.14,0,0,1,1.08.18,2.37,2.37,0,0,1,.84.51,2.44,2.44,0,0,1,.55.79,2.56,2.56,0,0,1,.2,1,3.83,3.83,0,0,1-.26,1.4,3.19,3.19,0,0,1-.71,1.14,3.39,3.39,0,0,1-2.47,1.05Zm2.57-3.53a2.21,2.21,0,0,0-.12-.74,1.71,1.71,0,0,0-.36-.59,1.9,1.9,0,0,0-.59-.39,2.13,2.13,0,0,0-.78-.14,2.19,2.19,0,0,0-1,.23,2.39,2.39,0,0,0-.79.62,3.1,3.1,0,0,0-.53.9,3.33,3.33,0,0,0-.19,1.09,1.93,1.93,0,0,0,.13.73,1.54,1.54,0,0,0,.36.59,1.56,1.56,0,0,0,.58.39,1.89,1.89,0,0,0,.77.15,2.31,2.31,0,0,0,1-.23,2.65,2.65,0,0,0,.79-.62,2.9,2.9,0,0,0,.52-.89A3.34,3.34,0,0,0,168.1,73.26Z" fill="#fff"/><path d="M173.43,71.55h-1.36l-.89,5.09h-.83l.89-5.09H170l.13-.69h1.2l.27-1.57a3.7,3.7,0,0,1,.24-.82,2.25,2.25,0,0,1,.43-.68,1.86,1.86,0,0,1,.63-.47,2.14,2.14,0,0,1,.87-.17l.33,0a1.45,1.45,0,0,1,.35.07l-.2.73a2.08,2.08,0,0,0-.58-.08,1.21,1.21,0,0,0-.52.11,1,1,0,0,0-.35.32,1.6,1.6,0,0,0-.24.47,3.51,3.51,0,0,0-.14.58l-.26,1.49h1.38Z" fill="#fff"/><path d="M181.39,75.13h0l4.24-7.24H187l-1.54,8.75h-.88l1.34-7.56h0l-4.5,7.56h-.47l-1.83-7.56h0l-1.33,7.56h-.87l1.55-8.75h1.33Z" fill="#fff"/><path d="M190.23,76.79a2.87,2.87,0,0,1-1.07-.19,2.5,2.5,0,0,1-.85-.51,2.34,2.34,0,0,1-.55-.79,2.61,2.61,0,0,1-.2-1,3.72,3.72,0,0,1,.26-1.38,3.39,3.39,0,0,1,.71-1.13,3.25,3.25,0,0,1,1.08-.78,3.35,3.35,0,0,1,1.39-.28,3.14,3.14,0,0,1,1.08.18,2.35,2.35,0,0,1,1.39,1.3,2.56,2.56,0,0,1,.2,1,3.83,3.83,0,0,1-.26,1.4,3.19,3.19,0,0,1-.71,1.14,3.39,3.39,0,0,1-2.47,1.05Zm2.57-3.53a2.21,2.21,0,0,0-.12-.74,1.71,1.71,0,0,0-.36-.59,1.9,1.9,0,0,0-.59-.39,2.13,2.13,0,0,0-.78-.14,2.19,2.19,0,0,0-1,.23,2.39,2.39,0,0,0-.79.62,3.1,3.1,0,0,0-.53.9,3.33,3.33,0,0,0-.19,1.09,1.93,1.93,0,0,0,.13.73,1.54,1.54,0,0,0,.36.59,1.56,1.56,0,0,0,.58.39,1.86,1.86,0,0,0,.77.15,2.31,2.31,0,0,0,1-.23,2.65,2.65,0,0,0,.79-.62,2.9,2.9,0,0,0,.52-.89A3.34,3.34,0,0,0,192.8,73.26Z" fill="#fff"/><path d="M195.69,71.52c0-.24.06-.47.08-.66h.79c0,.15,0,.33-.06.52s-.05.34-.08.47h0a2.57,2.57,0,0,1,.81-.83,2,2,0,0,1,1.12-.31h.28l.26,0-.2.79-.23,0-.34,0a1.82,1.82,0,0,0-.65.12,1.6,1.6,0,0,0-.59.39,2.55,2.55,0,0,0-.47.68,3.72,3.72,0,0,0-.3,1l-.52,3h-.83l.79-4.51C195.62,72,195.65,71.77,195.69,71.52Z" fill="#fff"/><path d="M198.84,77.85a2.4,2.4,0,0,0,.88.74,2.66,2.66,0,0,0,1.23.29A2.83,2.83,0,0,0,202,78.7a2.15,2.15,0,0,0,.74-.5,2.41,2.41,0,0,0,.47-.73,4.74,4.74,0,0,0,.26-.88l.21-1.1h0a2.65,2.65,0,0,1-2.2,1.15,2.74,2.74,0,0,1-1.06-.19,2.3,2.3,0,0,1-.81-.54,2.35,2.35,0,0,1-.52-.8,2.73,2.73,0,0,1-.18-1,3.5,3.5,0,0,1,.26-1.33,3.41,3.41,0,0,1,.7-1.08,3.33,3.33,0,0,1,1.07-.73,3.49,3.49,0,0,1,1.35-.26,2.68,2.68,0,0,1,.62.07,2.35,2.35,0,0,1,.57.23,1.89,1.89,0,0,1,.48.36,1.63,1.63,0,0,1,.33.49h0l.19-1h.81l-1,5.73a7.41,7.41,0,0,1-.26,1,2.78,2.78,0,0,1-.54,1,2.87,2.87,0,0,1-1,.74,3.5,3.5,0,0,1-1.56.3,3.86,3.86,0,0,1-1.55-.31,2.82,2.82,0,0,1-1.11-.86Zm.91-3.73a2,2,0,0,0,.12.7,1.68,1.68,0,0,0,.94,1,2.14,2.14,0,0,0,.79.14,2.31,2.31,0,0,0,1-.22,2.45,2.45,0,0,0,.8-.59,2.81,2.81,0,0,0,.52-.85,3,3,0,0,0,.18-1,2,2,0,0,0-.13-.72,1.79,1.79,0,0,0-.37-.59,1.9,1.9,0,0,0-.59-.39,1.94,1.94,0,0,0-.78-.15,2.53,2.53,0,0,0-1,.2,2.24,2.24,0,0,0-.8.55,2.69,2.69,0,0,0-.51.86A3.31,3.31,0,0,0,199.75,74.12Z" fill="#fff"/><path d="M210.66,73.09c0-.14,0-.25.05-.32s0-.15,0-.22a1,1,0,0,0-.36-.89,1.7,1.7,0,0,0-1-.26,2.62,2.62,0,0,0-1,.2,2.94,2.94,0,0,0-.8.49l-.37-.55a3.14,3.14,0,0,1,1-.6,3.41,3.41,0,0,1,2-.14,1.81,1.81,0,0,1,.66.3,1.49,1.49,0,0,1,.44.52,1.61,1.61,0,0,1,.17.76c0,.07,0,.17,0,.3s0,.23,0,.31L211,75.34c0,.22-.08.46-.1.69a5,5,0,0,0,0,.61h-.74c0-.14,0-.29,0-.46a3.93,3.93,0,0,1,.06-.48h0a4.53,4.53,0,0,1-.49.49,3.24,3.24,0,0,1-.52.33,2.38,2.38,0,0,1-.57.18,4.43,4.43,0,0,1-.66,0,2.52,2.52,0,0,1-.6-.07,1.52,1.52,0,0,1-.56-.26,1.43,1.43,0,0,1-.42-.46,1.28,1.28,0,0,1-.17-.7,1.57,1.57,0,0,1,.39-1.12,2.62,2.62,0,0,1,1-.66,6.45,6.45,0,0,1,1.42-.31C209.59,73.12,210.12,73.09,210.66,73.09Zm-.31.63a11.17,11.17,0,0,0-1.14.06,5.13,5.13,0,0,0-1.05.21,2.08,2.08,0,0,0-.78.43.94.94,0,0,0-.31.74,1,1,0,0,0,.1.45.81.81,0,0,0,.27.28,1.16,1.16,0,0,0,.38.15,2.18,2.18,0,0,0,.44,0,2.39,2.39,0,0,0,.82-.14,2.31,2.31,0,0,0,.65-.41,2.27,2.27,0,0,0,.47-.6,2.7,2.7,0,0,0,.26-.72l.09-.49Z" fill="#fff"/><path d="M214.59,70.86c0,.15,0,.33-.06.52s-.05.34-.08.47h0a2.38,2.38,0,0,1,.86-.84,2.21,2.21,0,0,1,1.12-.3,2.14,2.14,0,0,1,1.47.47,1.67,1.67,0,0,1,.52,1.3c0,.09,0,.19,0,.29s0,.21-.05.32l-.64,3.55h-.83l.57-3.2a3.88,3.88,0,0,0,.08-.73,1.5,1.5,0,0,0-.29-1,1.23,1.23,0,0,0-1-.35,1.83,1.83,0,0,0-.67.14A1.89,1.89,0,0,0,215,72a2.59,2.59,0,0,0-.51.71,3.46,3.46,0,0,0-.33,1l-.51,3h-.83l.79-4.51c0-.16.07-.36.1-.61a6.18,6.18,0,0,0,.08-.66Z" fill="#fff"/><path d="M224.81,75.42h0l3.65-7.53h1.06l.73,7.53h0l3.6-7.53h.94l-4.27,8.75h-1l-.71-7.54h0l-3.7,7.54h-1l-.9-8.75h.94Z" fill="#fff"/><path d="M237.92,70.71a2.12,2.12,0,0,1,1.45.47,1.65,1.65,0,0,1,.54,1.3c0,.09,0,.19,0,.29s0,.21,0,.32l-.64,3.55h-.83l.57-3.2a3.88,3.88,0,0,0,.08-.73,1.5,1.5,0,0,0-.29-1,1.29,1.29,0,0,0-1-.35,1.75,1.75,0,0,0-.67.14,1.89,1.89,0,0,0-.62.42,2.57,2.57,0,0,0-.5.71,3.46,3.46,0,0,0-.31,1l-.52,3h-.83l1.64-9.34h.83l-.79,4.51h0a2.38,2.38,0,0,1,.84-.8A2.21,2.21,0,0,1,237.92,70.71Z" fill="#fff"/><path d="M242.07,76.64h-.83l1-5.78h.82Zm1.52-8a.57.57,0,0,1-.17.42.53.53,0,0,1-.41.17.61.61,0,0,1-.4-.14.5.5,0,0,1-.17-.41.62.62,0,0,1,.59-.61.54.54,0,0,1,.4.16A.57.57,0,0,1,243.59,68.62Z" fill="#fff"/><path d="M247.46,71.55h-1.57l-.61,3.39a3.18,3.18,0,0,0,0,.4.64.64,0,0,0,.2.55A.91.91,0,0,0,246,76a1.81,1.81,0,0,0,.38,0,.73.73,0,0,0,.32-.15l-.09.72a1.39,1.39,0,0,1-.42.13,3.12,3.12,0,0,1-.54,0,1.51,1.51,0,0,1-.42,0,1.1,1.1,0,0,1-.4-.17.94.94,0,0,1-.29-.36,1.15,1.15,0,0,1-.12-.57,2,2,0,0,1,0-.39l.64-3.62h-1.2l.14-.69h1.17l.28-1.63h.83L246,70.86h1.59Z" fill="#fff"/><path d="M248.63,74a.78.78,0,0,0,0,.14s0,.09,0,.13a1.79,1.79,0,0,0,.15.75,1.65,1.65,0,0,0,.39.58,1.79,1.79,0,0,0,.59.39,2,2,0,0,0,.74.14,2.22,2.22,0,0,0,1.19-.31,2.82,2.82,0,0,0,.81-.71l.52.5a3.35,3.35,0,0,1-1.17.9,3.3,3.3,0,0,1-1.42.31,3.19,3.19,0,0,1-1-.17,2.53,2.53,0,0,1-.84-.5,2.2,2.2,0,0,1-.55-.8,2.6,2.6,0,0,1-.21-1.08A3.55,3.55,0,0,1,248,72.9a3.74,3.74,0,0,1,.71-1.13A3.44,3.44,0,0,1,249.8,71a3,3,0,0,1,1.31-.29,2.4,2.4,0,0,1,1.8.63,2.23,2.23,0,0,1,.61,1.63c0,.1,0,.25,0,.45a4,4,0,0,1-.09.55Zm4-.62c0-.06,0-.13,0-.21v-.22a1.51,1.51,0,0,0-.4-1.09,1.59,1.59,0,0,0-1.2-.43,2.15,2.15,0,0,0-.85.16,2.2,2.2,0,0,0-.69.42,2.61,2.61,0,0,0-.51.63,2.5,2.5,0,0,0-.3.74Z" fill="#fff"/><path d="M261.8,76.1a6.18,6.18,0,0,0,1.4-.16,3.86,3.86,0,0,0,1.08-.44l.47-2.68h-2.06l.14-.75h2.92L265.06,76a6.05,6.05,0,0,1-1.6.65,6.9,6.9,0,0,1-1.71.2,4.55,4.55,0,0,1-1.6-.27,3.56,3.56,0,0,1-1.24-.77,3.34,3.34,0,0,1-.8-1.18,4,4,0,0,1-.29-1.53,5.57,5.57,0,0,1,.41-2.13A5.35,5.35,0,0,1,261,68.1a4.82,4.82,0,0,1,2-.43,4.08,4.08,0,0,1,.93.1,3.77,3.77,0,0,1,.84.28,3.14,3.14,0,0,1,.68.43,2.27,2.27,0,0,1,.49.59l-.8.53a2.11,2.11,0,0,0-.29-.42,2.23,2.23,0,0,0-.47-.38,2.7,2.7,0,0,0-.62-.27,3.24,3.24,0,0,0-.79-.09,3.81,3.81,0,0,0-1.72.38,4.57,4.57,0,0,0-1.35,1A4.91,4.91,0,0,0,258.76,73a3.6,3.6,0,0,0,.2,1.2,2.71,2.71,0,0,0,.59,1,2.74,2.74,0,0,0,.95.66A3.28,3.28,0,0,0,261.8,76.1Z" fill="#fff"/><path d="M267.8,71.52c0-.24.06-.47.08-.66h.79c0,.15,0,.33-.06.52s-.05.34-.08.47h0a2.6,2.6,0,0,1,.82-.83,2,2,0,0,1,1.11-.31h.28l.26,0-.2.79-.23,0-.34,0a1.82,1.82,0,0,0-.65.12A1.68,1.68,0,0,0,269,72a2.8,2.8,0,0,0-.47.68,4.13,4.13,0,0,0-.3,1l-.52,3h-.83l.79-4.51C267.73,72,267.76,71.77,267.8,71.52Z" fill="#fff"/><path d="M273.54,76.79a2.92,2.92,0,0,1-1.08-.19,2.37,2.37,0,0,1-.84-.51,2.21,2.21,0,0,1-.55-.79,2.61,2.61,0,0,1-.2-1,3.72,3.72,0,0,1,.25-1.38,3.55,3.55,0,0,1,.71-1.13,3.4,3.4,0,0,1,1.09-.78,3.31,3.31,0,0,1,1.38-.28,3.16,3.16,0,0,1,1.09.18,2.56,2.56,0,0,1,.84.51,2.61,2.61,0,0,1,.55.79,2.56,2.56,0,0,1,.19,1,3.82,3.82,0,0,1-.25,1.4,3.33,3.33,0,0,1-.71,1.14,3.39,3.39,0,0,1-1.09.76A3.31,3.31,0,0,1,273.54,76.79Zm2.57-3.53a2.21,2.21,0,0,0-.12-.74,1.9,1.9,0,0,0-.37-.59,1.85,1.85,0,0,0-.58-.39,2.13,2.13,0,0,0-.78-.14,2.26,2.26,0,0,0-1,.23,2.61,2.61,0,0,0-.79.62,3.07,3.07,0,0,0-.71,2,2.15,2.15,0,0,0,.12.73,1.68,1.68,0,0,0,.95,1,1.86,1.86,0,0,0,.77.15,2.3,2.3,0,0,0,1-.23,2.62,2.62,0,0,0,1.31-1.51A3.1,3.1,0,0,0,276.11,73.26Z" fill="#fff"/><path d="M282.15,76.64c0-.16,0-.33.06-.52s.05-.34.08-.47h0a2.47,2.47,0,0,1-.86.84,2.2,2.2,0,0,1-1.11.3,2.14,2.14,0,0,1-1.47-.47A1.63,1.63,0,0,1,278.3,75a1.42,1.42,0,0,1,0-.29c0-.1,0-.21,0-.32l.64-3.55h.83l-.57,3.2a3.9,3.9,0,0,0-.07.73,1.45,1.45,0,0,0,.28,1,1.23,1.23,0,0,0,1,.35,1.74,1.74,0,0,0,.66-.14,2,2,0,0,0,.62-.41,2.61,2.61,0,0,0,.52-.71,3.79,3.79,0,0,0,.32-1l.51-3h.83l-.79,4.51c0,.16-.07.36-.1.6s-.07.47-.09.66Z" fill="#fff"/><path d="M286.81,71.8a1.75,1.75,0,0,1,.36-.42,2.24,2.24,0,0,1,.5-.35,2.27,2.27,0,0,1,.6-.23,2.41,2.41,0,0,1,.67-.09,3,3,0,0,1,1.06.18,2.51,2.51,0,0,1,.83.51,2.39,2.39,0,0,1,.53.79,2.75,2.75,0,0,1,.18,1,3.63,3.63,0,0,1-.26,1.4,3.49,3.49,0,0,1-.71,1.14,3.42,3.42,0,0,1-1.07.76,3.25,3.25,0,0,1-1.36.29A2.54,2.54,0,0,1,287,76.5a1.92,1.92,0,0,1-.83-.84h0l-.71,4h-.83l1.56-8.75H287l-.17.94Zm3.87,1.46a2.19,2.19,0,0,0-.12-.73,1.85,1.85,0,0,0-.35-.59,1.78,1.78,0,0,0-.57-.4,2.05,2.05,0,0,0-.78-.14,2.29,2.29,0,0,0-1,.22,2.51,2.51,0,0,0-.82.62,2.92,2.92,0,0,0-.54.9,3.06,3.06,0,0,0-.2,1.09,2,2,0,0,0,.13.74,1.71,1.71,0,0,0,.38.6,1.65,1.65,0,0,0,.58.39,2.13,2.13,0,0,0,.78.14,2.33,2.33,0,0,0,1-.23,2.63,2.63,0,0,0,.8-.6,2.84,2.84,0,0,0,.51-.9A3.31,3.31,0,0,0,290.68,73.26Z" fill="#fff"/><circle cx="45.66" cy="45.66" r="44.59" fill="#00205c" stroke="#fff" stroke-miterlimit="10" stroke-width="2.14"/><path d="M72.53,33.68a8.26,8.26,0,0,1,6.06,2.55,14.46,14.46,0,0,1,2.93,5.05c.07.22.14.33.36.29l.88-.15c.15,0,.15-.21.15-.51l-.37-7.31c0-.29-.07-.51-.44-.51-.22,0-.33.11-.51.37l-.44.58c-.22.29-.44.4-.87.07a13.54,13.54,0,0,0-7.46-2c-6.75,0-11.59,1.45-14.72,11.19l-3,7.83L50.55,40.93s-1.91-4.56-2.74-4.56S45,40.62,45,40.62,40.09,51.18,39.8,52l-.08,0L34,35a.88.88,0,0,1,.88-1.28h.69c.26,0,.33-.11.33-.29v-.92c0-.18-.07-.25-.29-.25l-3.58.09c-.17,0-.44.53-.71,1.23-1.11,2.5-6.44,14.12-6.74,15h-.15l-6.61-15.4c-.15-.44-.4-.8-.92-.8s-.8.58-1,.95c-.73,1.83-8.18,22.29-8.55,23.1a1.79,1.79,0,0,1-1.61,1.2H2.9c-.22,0-.26.11-.26.3v1c0,.11.08.19.22.19.3,0,3.56-.11,5.61-.11,2.26,0,3.5.11,3.87.11s.29-.11.29-.3V58c0-.19,0-.3-.25-.3h-1c-.88,0-1.24-.51-1.24-1,0-2,4.16-14.07,5.26-17.29h.15l5.26,13.06s1.2,2.86,1.95,2.86c1.15,0,2.87-4,2.87-4s4.94-11,5.23-11.78l.07,0,5.69,16.89a.87.87,0,0,1-.88,1.27h-.69c-.26,0-.33.11-.33.3v.91c0,.18.07.26.29.26s1.23,0,3-.07a1,1,0,0,0,.69-.31,1.11,1.11,0,0,0,.37-.49c.15-.4,6.62-14,6.95-15.05h.14L52.81,58.2c.15.44.4.81.91.81,2,0,2.61-.78,3.39-3,.41-1.15,2.79-7.86,5-13.56C64.63,35.66,68.57,33.68,72.53,33.68ZM90,47.25c-.37,0-7.29.11-10.35.11s-4.76-.11-5.2-.11c-.14,0-.21.07-.21.29v.84c0,.18.07.33.29.33H76.1c1,0,1.32.37,1.32,1.68v2.67c0,1.9-.07,2.92-.88,3.36-1.24.66-2.63.61-5,.61-3.63,0-6.24-2.28-9.24-4.7-.46-.37-.71-.19-.83,0s-.59,1.39-.72,1.7A.87.87,0,0,0,61,55.09c2.52,2.8,6.82,4,10.29,4a21.1,21.1,0,0,0,10.38-2.41c.36-.14.58-.29.58-.58s-.14-.66-.14-1.17V50.06c0-1.06.44-1.35,1.09-1.35h6.92c.22,0,.29-.07.29-.29V47.5C90.4,47.32,90.33,47.25,90,47.25Z" fill="#fff"/></svg>