<svg xmlns="http://www.w3.org/2000/svg" viewBox="0 0 332.61 91.32"><title>mwgbs-white</title><path d="M106.58,35h7.83a18.14,18.14,0,0,1,2.74.2,7.23,7.23,0,0,1,2.48.8,4.86,4.86,0,0,1,1.78,1.68,5.41,5.41,0,0,1,.68,2.88,4.71,4.71,0,0,1-1,3.07,5.52,5.52,0,0,1-2.63,1.75v.06a5.68,5.68,0,0,1,1.88.6,4.82,4.82,0,0,1,2.39,2.77,5.78,5.78,0,0,1,.33,2,5.45,5.45,0,0,1-.71,2.89,5.77,5.77,0,0,1-1.84,1.87,8.06,8.06,0,0,1-2.54,1,13.42,13.42,0,0,1-2.8.31h-8.6Zm4.63,8.74h3.35a4.7,4.7,0,0,0,1-.12,2.8,2.8,0,0,0,.93-.41,2,2,0,0,0,.67-.74,2.28,2.28,0,0,0,.25-1.11,2.08,2.08,0,0,0-.28-1.13,2,2,0,0,0-.72-.69,3.28,3.28,0,0,0-1-.36,6,6,0,0,0-1.1-.11h-3.14Zm0,9.05h4.15a5.1,5.1,0,0,0,1.08-.12,2.78,2.78,0,0,0,1-.44,2.29,2.29,0,0,0,1-2,1.94,1.94,0,0,0-.37-1.25,2.37,2.37,0,0,0-.93-.73,4.4,4.4,0,0,0-1.22-.34,8.86,8.86,0,0,0-1.21-.09h-3.5Z" fill="#fff"/><path d="M125.8,35h8.12a13.56,13.56,0,0,1,3,.32,7.18,7.18,0,0,1,2.52,1.08,5.37,5.37,0,0,1,1.72,2,7.1,7.1,0,0,1,.64,3.2,6.56,6.56,0,0,1-1.16,3.94,5.16,5.16,0,0,1-3.38,2l5.34,9.24H137.1l-4.39-8.74h-2.29v8.74H125.8Zm4.62,9h2.73c.42,0,.86,0,1.32,0a3.76,3.76,0,0,0,1.26-.28,2.15,2.15,0,0,0,.94-.72,2.32,2.32,0,0,0,.37-1.39,2.36,2.36,0,0,0-.33-1.33,2.24,2.24,0,0,0-.83-.76,3.67,3.67,0,0,0-1.16-.35,9.3,9.3,0,0,0-1.27-.1h-3Z" fill="#fff"/><path d="M143.89,45.88a12.93,12.93,0,0,1,.84-4.76,10.27,10.27,0,0,1,6-5.93,13.25,13.25,0,0,1,9.07,0,10.27,10.27,0,0,1,5.95,5.93,13.91,13.91,0,0,1,0,9.52,10.56,10.56,0,0,1-2.36,3.63,10.2,10.2,0,0,1-3.59,2.3,13.25,13.25,0,0,1-9.07,0,10.2,10.2,0,0,1-3.59-2.3,10.42,10.42,0,0,1-2.36-3.63A12.89,12.89,0,0,1,143.89,45.88Zm4.8,0a8.28,8.28,0,0,0,.46,2.83,6.68,6.68,0,0,0,1.32,2.22,6,6,0,0,0,2.06,1.47,7.07,7.07,0,0,0,5.37,0A6,6,0,0,0,160,50.93a6.68,6.68,0,0,0,1.32-2.22,8.87,8.87,0,0,0,0-5.64A6.67,6.67,0,0,0,160,40.83a6,6,0,0,0-2.06-1.47,7.19,7.19,0,0,0-5.37,0,6,6,0,0,0-2.06,1.47,6.67,6.67,0,0,0-1.32,2.24A8.28,8.28,0,0,0,148.69,45.88Z" fill="#fff"/><path d="M169.86,35h4.63V44L182.65,35h6l-9.35,10.16L189.5,56.82H183l-8.54-10.38V56.82h-4.63Z" fill="#fff"/><path d="M191.27,35h14.27v4.44H195.9v4.08H205v4.45H195.9v4.45h10.17v4.45h-14.8Z" fill="#fff"/><path d="M209.78,35h8.13a13.47,13.47,0,0,1,3,.32,7.31,7.31,0,0,1,2.53,1.08,5.46,5.46,0,0,1,1.72,2,7.24,7.24,0,0,1,.63,3.2,6.62,6.62,0,0,1-1.15,3.94,5.18,5.18,0,0,1-3.38,2l5.33,9.24h-5.54l-4.39-8.74h-2.28v8.74h-4.63Zm4.63,9h2.72c.42,0,.86,0,1.32,0a3.76,3.76,0,0,0,1.26-.28,2.15,2.15,0,0,0,.94-.72,2.25,2.25,0,0,0,.37-1.39,2.36,2.36,0,0,0-.33-1.33,2.16,2.16,0,0,0-.83-.76,3.6,3.6,0,0,0-1.15-.35,9.44,9.44,0,0,0-1.28-.1h-3Z" fill="#fff"/><path d="M244.6,43.26a3.38,3.38,0,0,0-3-1.59,4.53,4.53,0,0,0-1.21.17,3.35,3.35,0,0,0-1.07.53,2.74,2.74,0,0,0-.76.92,2.86,2.86,0,0,0-.28,1.32,2.34,2.34,0,0,0,.59,1.71,4.82,4.82,0,0,0,1.48,1,16.44,16.44,0,0,0,1.92.7,8.56,8.56,0,0,1,1.93.82,4.72,4.72,0,0,1,1.48,1.37,4,4,0,0,1,.59,2.32,4.31,4.31,0,0,1-.45,2A4.55,4.55,0,0,1,244.61,56a5.34,5.34,0,0,1-1.65.92,5.61,5.61,0,0,1-1.84.32,6.79,6.79,0,0,1-2.72-.56,5.22,5.22,0,0,1-2.19-1.85l1.45-1.08a3.89,3.89,0,0,0,1.41,1.44,4.06,4.06,0,0,0,2.13.54,3.75,3.75,0,0,0,1.18-.2,3.44,3.44,0,0,0,1.07-.57,3.36,3.36,0,0,0,.78-.93,2.61,2.61,0,0,0,.3-1.26,2.69,2.69,0,0,0-.34-1.42,3.22,3.22,0,0,0-.9-.94,5.87,5.87,0,0,0-1.28-.63l-1.47-.5a14.66,14.66,0,0,1-1.48-.58,5,5,0,0,1-1.28-.81,3.71,3.71,0,0,1-.9-1.24,5.17,5.17,0,0,1,.09-3.91,4.2,4.2,0,0,1,1.14-1.45,5,5,0,0,1,1.62-.85,6.72,6.72,0,0,1,4.25.16,5.27,5.27,0,0,1,2,1.54Z" fill="#fff"/><path d="M251.06,55.3h8.34v1.52h-9.93V40.57h9.67v1.52h-8.08v5.53h7.55v1.51h-7.55Z" fill="#fff"/><path d="M264.12,56.82h-1.59V40.57h4.8a5.94,5.94,0,0,1,3.76,1.08,3.88,3.88,0,0,1,1.38,3.26,4.11,4.11,0,0,1-1,2.85,4.28,4.28,0,0,1-3,1.35L273,56.82H271l-4.28-7.55h-2.64Zm0-9.07h2.82a5.85,5.85,0,0,0,1.79-.23,3.18,3.18,0,0,0,1.18-.6,2.23,2.23,0,0,0,.64-.9,3.12,3.12,0,0,0,0-2.2,2.2,2.2,0,0,0-.64-.91,3,3,0,0,0-1.18-.61,6.61,6.61,0,0,0-1.79-.21h-2.82Z" fill="#fff"/><path d="M280.27,54.34h0l5.11-13.77h1.72l-6.08,16.25h-1.59l-5.92-16.25h1.76Z" fill="#fff"/><path d="M290.77,56.82h-1.58V40.57h1.58Z" fill="#fff"/><path d="M307.85,54.25a6.19,6.19,0,0,1-2.32,2.12,7.18,7.18,0,0,1-1.62.63,7.28,7.28,0,0,1-1.83.23,8,8,0,0,1-3.23-.64,7.89,7.89,0,0,1-2.58-1.78,8.18,8.18,0,0,1-1.71-2.7,9.86,9.86,0,0,1,0-6.83,8.08,8.08,0,0,1,1.71-2.7,7.89,7.89,0,0,1,2.58-1.78,8,8,0,0,1,3.23-.64,7.75,7.75,0,0,1,2.9.59,5.91,5.91,0,0,1,2.49,2l-1.39,1.08a3.8,3.8,0,0,0-.66-.78,4.83,4.83,0,0,0-.95-.69,5.66,5.66,0,0,0-1.16-.48,4,4,0,0,0-1.23-.19,6.11,6.11,0,0,0-4.71,2.11A7,7,0,0,0,296.1,46a8.35,8.35,0,0,0,0,5.35,6.89,6.89,0,0,0,1.27,2.23,5.94,5.94,0,0,0,2,1.54,6,6,0,0,0,2.69.58,6.31,6.31,0,0,0,1.22-.12,4.88,4.88,0,0,0,1.19-.39,4.52,4.52,0,0,0,1.1-.74,5.93,5.93,0,0,0,1-1.19Z" fill="#fff"/><path d="M312.1,55.3h8.35v1.52h-9.94V40.57h9.67v1.52H312.1v5.53h7.55v1.51H312.1Z" fill="#fff"/><path d="M331,43.26a3.38,3.38,0,0,0-3-1.59,4.48,4.48,0,0,0-1.21.17,3.25,3.25,0,0,0-1.07.53,2.63,2.63,0,0,0-.76.92,2.86,2.86,0,0,0-.29,1.32,2.34,2.34,0,0,0,.6,1.71,4.65,4.65,0,0,0,1.47,1,16.62,16.62,0,0,0,1.93.7,8.56,8.56,0,0,1,1.93.82A4.69,4.69,0,0,1,332,50.21a4,4,0,0,1,.6,2.32,4.31,4.31,0,0,1-.45,2A4.55,4.55,0,0,1,331,56a5.67,5.67,0,0,1-3.49,1.24,6.84,6.84,0,0,1-2.73-.56,5.22,5.22,0,0,1-2.19-1.85L324,53.74a3.79,3.79,0,0,0,1.4,1.44,4.06,4.06,0,0,0,2.13.54,3.81,3.81,0,0,0,1.19-.2A3.39,3.39,0,0,0,329.8,55a3.05,3.05,0,0,0,.78-.93,2.5,2.5,0,0,0,.31-1.26,2.69,2.69,0,0,0-.34-1.42,3.13,3.13,0,0,0-.91-.94,5.79,5.79,0,0,0-1.27-.63l-1.48-.5a13.61,13.61,0,0,1-1.47-.58,4.8,4.8,0,0,1-1.28-.81,3.6,3.6,0,0,1-.91-1.24,5.17,5.17,0,0,1,.09-3.91,4.23,4.23,0,0,1,1.15-1.45,4.92,4.92,0,0,1,1.62-.85,6.72,6.72,0,0,1,4.25.16,5.17,5.17,0,0,1,2,1.54Z" fill="#fff"/><path d="M105.46,76.65h-1l5.64-8.75h.86l1.82,8.75h-.93l-.47-2.3h-4.47Zm1.94-3.12h3.83l-.92-4.64Z" fill="#fff"/><path d="M116.63,74.3a3.86,3.86,0,0,1,.25-1.4,3.55,3.55,0,0,1,.71-1.13,3.61,3.61,0,0,1,1.08-.77,3.25,3.25,0,0,1,1.36-.28,2.53,2.53,0,0,1,1.18.28,1.92,1.92,0,0,1,.83.84h0l.81-4.53h.83L122,76.65h-.83l.18-1h0a2.58,2.58,0,0,1-2.12,1.1,3,3,0,0,1-1.07-.18,2.38,2.38,0,0,1-.83-.52,2.29,2.29,0,0,1-.53-.79A2.71,2.71,0,0,1,116.63,74.3Zm.86,0a2.19,2.19,0,0,0,.12.73,1.7,1.7,0,0,0,.35.58,1.64,1.64,0,0,0,.57.4,1.87,1.87,0,0,0,.78.14,2.29,2.29,0,0,0,1-.22,2.48,2.48,0,0,0,.82-.61,2.92,2.92,0,0,0,.54-.9,3,3,0,0,0,.2-1.09,2,2,0,0,0-.13-.75,1.71,1.71,0,0,0-.38-.6,1.9,1.9,0,0,0-.59-.39,2.11,2.11,0,0,0-.77-.13,2.32,2.32,0,0,0-1,.22,2.36,2.36,0,0,0-.79.61,2.5,2.5,0,0,0-.52.9A3.31,3.31,0,0,0,117.49,74.25Z" fill="#fff"/><path d="M125,76.65h-.83l1-5.79H126Zm1.52-8a.61.61,0,0,1-.17.42.59.59,0,0,1-.81,0,.49.49,0,0,1-.17-.41.58.58,0,0,1,.18-.43.6.6,0,0,1,.41-.17.57.57,0,0,1,.4.15A.59.59,0,0,1,126.54,68.63Z" fill="#fff"/><path d="M129.19,76.65h-.88l-1.22-5.79H128l.92,4.9h0l2.88-4.9h.9Z" fill="#fff"/><path d="M133.69,76.65h-.83l1-5.79h.83Zm1.52-8a.6.6,0,0,1-.16.42.59.59,0,0,1-.42.17.57.57,0,0,1-.4-.15.52.52,0,0,1-.17-.41.58.58,0,0,1,.18-.43.61.61,0,0,1,.42-.17.56.56,0,0,1,.39.15A.55.55,0,0,1,135.21,68.63Z" fill="#fff"/><path d="M139.71,72.14a1.39,1.39,0,0,0-.52-.53,1.67,1.67,0,0,0-.83-.2,1.85,1.85,0,0,0-.46,0,1.42,1.42,0,0,0-.45.16,1,1,0,0,0-.33.29.7.7,0,0,0-.13.44.86.86,0,0,0,.08.38.68.68,0,0,0,.23.25,1.52,1.52,0,0,0,.36.19l.48.15a3.66,3.66,0,0,1,1.3.63,1.33,1.33,0,0,1,.44,1.07,1.53,1.53,0,0,1-.21.81,1.74,1.74,0,0,1-.53.55,2.14,2.14,0,0,1-.72.32,3.37,3.37,0,0,1-2.14-.17,2.11,2.11,0,0,1-1-.82l.71-.47a1.76,1.76,0,0,0,.63.61,1.86,1.86,0,0,0,1,.25,2.32,2.32,0,0,0,.53,0,1.58,1.58,0,0,0,.46-.18.82.82,0,0,0,.33-.31.88.88,0,0,0-.24-1.15,4.53,4.53,0,0,0-1-.46l-.52-.2a1.61,1.61,0,0,1-.47-.29,1.3,1.3,0,0,1-.34-.43,1.32,1.32,0,0,1-.13-.62,1.5,1.5,0,0,1,.2-.77,1.84,1.84,0,0,1,.52-.52,2.14,2.14,0,0,1,.71-.3,3.06,3.06,0,0,1,.79-.1,2.54,2.54,0,0,1,1.19.26,1.61,1.61,0,0,1,.76.69Z" fill="#fff"/><path d="M142,76.65h-.83l1-5.79H143Zm1.52-8a.61.61,0,0,1-.17.42.57.57,0,0,1-.41.17.59.59,0,0,1-.41-.15.51.51,0,0,1-.16-.41.6.6,0,0,1,.59-.6.57.57,0,0,1,.4.15A.59.59,0,0,1,143.47,68.63Z" fill="#fff"/><path d="M146.68,76.8a3.14,3.14,0,0,1-1.08-.19,2.37,2.37,0,0,1-.84-.51,2.21,2.21,0,0,1-.55-.79,2.61,2.61,0,0,1-.2-1,3.66,3.66,0,0,1,1-2.52,3.53,3.53,0,0,1,1.09-.77,3.31,3.31,0,0,1,1.38-.28,3.16,3.16,0,0,1,1.09.18,2.4,2.4,0,0,1,.84.51,2.49,2.49,0,0,1,.55.79,2.53,2.53,0,0,1,.19,1,3.82,3.82,0,0,1-.25,1.4,3.6,3.6,0,0,1-.71,1.14,3.5,3.5,0,0,1-1.09.76A3.31,3.31,0,0,1,146.68,76.8Zm2.57-3.53a2.21,2.21,0,0,0-.12-.74,1.79,1.79,0,0,0-.37-.59,1.85,1.85,0,0,0-.58-.39,2.27,2.27,0,0,0-1.78.09,2.61,2.61,0,0,0-.79.62,3.07,3.07,0,0,0-.71,2A2.15,2.15,0,0,0,145,75a1.56,1.56,0,0,0,.37.59A1.61,1.61,0,0,0,146,76a1.92,1.92,0,0,0,.77.14,2.18,2.18,0,0,0,1-.23,2.51,2.51,0,0,0,.8-.61,2.64,2.64,0,0,0,.51-.9A3,3,0,0,0,149.25,73.27Z" fill="#fff"/><path d="M153,70.86c0,.16,0,.33-.06.52s-.05.35-.08.47h0a2.44,2.44,0,0,1,.86-.83,2.21,2.21,0,0,1,1.12-.3,2.1,2.1,0,0,1,1.47.47,1.67,1.67,0,0,1,.53,1.29c0,.1,0,.2,0,.3s0,.21-.05.32l-.64,3.55h-.83l.57-3.2a3.88,3.88,0,0,0,.08-.73,1.47,1.47,0,0,0-.29-1,1.23,1.23,0,0,0-1-.35,1.81,1.81,0,0,0-.67.13,1.89,1.89,0,0,0-.62.42,2.75,2.75,0,0,0-.51.71,3.53,3.53,0,0,0-.33,1l-.51,3h-.83l.79-4.51c0-.16.07-.36.1-.61a6.34,6.34,0,0,0,.08-.67Z" fill="#fff"/><path d="M163.78,76.8a3,3,0,0,1-1.07-.19,2.41,2.41,0,0,1-.85-.51,2.21,2.21,0,0,1-.55-.79,2.61,2.61,0,0,1-.2-1,3.93,3.93,0,0,1,.25-1.38,3.71,3.71,0,0,1,.71-1.14,3.53,3.53,0,0,1,1.09-.77,3.32,3.32,0,0,1,1.39-.28,3.14,3.14,0,0,1,1.08.18,2.4,2.4,0,0,1,.84.51,2.34,2.34,0,0,1,.55.79,2.53,2.53,0,0,1,.2,1,3.83,3.83,0,0,1-.26,1.4,3.43,3.43,0,0,1-.71,1.14,3.39,3.39,0,0,1-1.09.76A3.31,3.31,0,0,1,163.78,76.8Zm2.57-3.53a2.21,2.21,0,0,0-.12-.74,1.79,1.79,0,0,0-.37-.59,1.85,1.85,0,0,0-.58-.39,2.27,2.27,0,0,0-1.78.09,2.46,2.46,0,0,0-.78.62,2.89,2.89,0,0,0-.53.9,3,3,0,0,0-.19,1.09,2.15,2.15,0,0,0,.12.73,1.69,1.69,0,0,0,.37.59,1.56,1.56,0,0,0,.58.39,1.86,1.86,0,0,0,.77.14,2.14,2.14,0,0,0,1-.23,2.4,2.4,0,0,0,.8-.61,2.64,2.64,0,0,0,.51-.9A3,3,0,0,0,166.35,73.27Z" fill="#fff"/><path d="M171.68,71.56h-1.36l-.89,5.09h-.83l.89-5.09h-1.22l.13-.7h1.2l.27-1.56a3.78,3.78,0,0,1,.24-.83,2.35,2.35,0,0,1,.42-.68,2.14,2.14,0,0,1,.64-.46,2.09,2.09,0,0,1,.86-.17,2,2,0,0,1,.34,0,2,2,0,0,1,.34.06l-.19.73a2.15,2.15,0,0,0-.58-.07,1.21,1.21,0,0,0-.52.11,1.06,1.06,0,0,0-.36.31,2.14,2.14,0,0,0-.23.48,3.51,3.51,0,0,0-.14.58l-.26,1.48h1.38Z" fill="#fff"/><path d="M179.63,75.14h0l4.23-7.24h1.35l-1.54,8.75h-.88l1.33-7.56h0l-4.5,7.56h-.47l-1.83-7.56h0L176,76.65h-.86l1.54-8.75H178Z" fill="#fff"/><path d="M188.48,76.8a3.14,3.14,0,0,1-1.08-.19,2.46,2.46,0,0,1-.84-.51,2.21,2.21,0,0,1-.55-.79,2.61,2.61,0,0,1-.2-1,3.66,3.66,0,0,1,1-2.52,3.53,3.53,0,0,1,1.09-.77,3.32,3.32,0,0,1,1.39-.28,3.14,3.14,0,0,1,1.08.18,2.4,2.4,0,0,1,.84.51,2.34,2.34,0,0,1,.55.79,2.53,2.53,0,0,1,.19,1,3.82,3.82,0,0,1-.25,1.4,3.43,3.43,0,0,1-.71,1.14,3.39,3.39,0,0,1-1.09.76A3.31,3.31,0,0,1,188.48,76.8Zm2.57-3.53a2.21,2.21,0,0,0-.12-.74,1.79,1.79,0,0,0-.37-.59,1.85,1.85,0,0,0-.58-.39,2.27,2.27,0,0,0-1.78.09,2.61,2.61,0,0,0-.79.62,3.07,3.07,0,0,0-.71,2,2.15,2.15,0,0,0,.12.73,1.69,1.69,0,0,0,.37.59,1.56,1.56,0,0,0,.58.39,1.86,1.86,0,0,0,.77.14,2.14,2.14,0,0,0,1-.23,2.4,2.4,0,0,0,.8-.61,2.64,2.64,0,0,0,.51-.9A3,3,0,0,0,191.05,73.27Z" fill="#fff"/><path d="M193.94,71.53c0-.25.06-.47.08-.67h.79c0,.16,0,.33-.07.52a3.69,3.69,0,0,1-.07.47h0a2.64,2.64,0,0,1,.81-.82,2,2,0,0,1,1.11-.31h.29a1.32,1.32,0,0,1,.26,0l-.2.79a1.19,1.19,0,0,0-.23,0,1.87,1.87,0,0,0-.34,0,1.84,1.84,0,0,0-.65.13,1.6,1.6,0,0,0-.59.39,2.4,2.4,0,0,0-.47.68,3.21,3.21,0,0,0-.3,1l-.52,3H193l.79-4.51C193.86,72,193.9,71.78,193.94,71.53Z" fill="#fff"/><path d="M197.09,77.86a2.43,2.43,0,0,0,.87.73,2.59,2.59,0,0,0,1.23.29,2.89,2.89,0,0,0,1.07-.18,2,2,0,0,0,.74-.49,2.61,2.61,0,0,0,.47-.73,4.74,4.74,0,0,0,.26-.88l.21-1.1h0a2.69,2.69,0,0,1-1,.85,2.61,2.61,0,0,1-1.24.3,3,3,0,0,1-1.07-.19,2.5,2.5,0,0,1-.81-.54,2.42,2.42,0,0,1-.51-.81,2.66,2.66,0,0,1-.18-1,3.6,3.6,0,0,1,.25-1.32,3.43,3.43,0,0,1,.71-1.08,3.29,3.29,0,0,1,2.41-1,2.56,2.56,0,0,1,.62.07,2.25,2.25,0,0,1,.58.22,2.07,2.07,0,0,1,.47.37,1.72,1.72,0,0,1,.34.49h0l.19-1h.81l-1,5.74a9.93,9.93,0,0,1-.26,1,3.09,3.09,0,0,1-.54,1,2.77,2.77,0,0,1-1,.75,3.7,3.7,0,0,1-1.57.29,3.65,3.65,0,0,1-1.54-.31,2.8,2.8,0,0,1-1.11-.85Zm.9-3.73a2.07,2.07,0,0,0,.13.7,1.71,1.71,0,0,0,.36.59,1.49,1.49,0,0,0,.58.39,2,2,0,0,0,.79.15,2.38,2.38,0,0,0,1.81-.81,2.42,2.42,0,0,0,.52-.86,2.73,2.73,0,0,0,.19-1,2,2,0,0,0-.13-.72,1.79,1.79,0,0,0-.37-.59,1.9,1.9,0,0,0-.59-.39,1.94,1.94,0,0,0-.78-.15,2.44,2.44,0,0,0-1,.2,2.21,2.21,0,0,0-.79.55,2.41,2.41,0,0,0-.51.85A3.33,3.33,0,0,0,198,74.13Z" fill="#fff"/><path d="M208.9,73.1a1.76,1.76,0,0,0,0-.33,1.65,1.65,0,0,0,0-.21,1,1,0,0,0-.36-.89,1.63,1.63,0,0,0-1-.26,2.62,2.62,0,0,0-1,.2,3.17,3.17,0,0,0-.81.49l-.37-.56a3.6,3.6,0,0,1,1-.6,3.54,3.54,0,0,1,1.22-.22,3.35,3.35,0,0,1,.79.09,1.69,1.69,0,0,1,.65.3,1.39,1.39,0,0,1,.45.51,1.64,1.64,0,0,1,.17.76c0,.08,0,.18,0,.31s0,.23,0,.31l-.42,2.35a5,5,0,0,0-.1.69,4.88,4.88,0,0,0,0,.61h-.74a3.7,3.7,0,0,1,0-.46c0-.16,0-.33.05-.48h0a4.58,4.58,0,0,1-.5.49,2.29,2.29,0,0,1-.51.32,1.9,1.9,0,0,1-.57.18,3.37,3.37,0,0,1-.66.06,2.47,2.47,0,0,1-.6-.08,1.63,1.63,0,0,1-.57-.25,1.43,1.43,0,0,1-.42-.46,1.41,1.41,0,0,1-.16-.71,1.57,1.57,0,0,1,.39-1.11,2.54,2.54,0,0,1,1-.66,6.55,6.55,0,0,1,1.43-.31C207.84,73.13,208.37,73.1,208.9,73.1Zm-.3.63a11.17,11.17,0,0,0-1.14.06,4.24,4.24,0,0,0-1.06.21,2.1,2.1,0,0,0-.78.43.94.94,0,0,0-.3.73.9.9,0,0,0,.1.46.73.73,0,0,0,.27.28,1.08,1.08,0,0,0,.38.15,2.32,2.32,0,0,0,1.25-.11,2,2,0,0,0,.66-.41,2.44,2.44,0,0,0,.47-.59,2.65,2.65,0,0,0,.26-.73l.08-.48Z" fill="#fff"/><path d="M212.83,70.86c0,.16,0,.33-.06.52s-.05.35-.07.47h0a2.53,2.53,0,0,1,.86-.83,2.28,2.28,0,0,1,1.13-.3,2.13,2.13,0,0,1,1.47.47,1.66,1.66,0,0,1,.52,1.29,1.51,1.51,0,0,1,0,.3c0,.1,0,.21,0,.32L216,76.65h-.83l.57-3.2a3.83,3.83,0,0,0,.07-.73,1.46,1.46,0,0,0-.28-1,1.25,1.25,0,0,0-1-.35,1.77,1.77,0,0,0-.67.13,1.89,1.89,0,0,0-.62.42,2.77,2.77,0,0,0-.52.71,3.87,3.87,0,0,0-.32,1l-.52,3h-.82l.79-4.51c0-.16.06-.36.1-.61s.06-.47.08-.67Z" fill="#fff"/><path d="M223.05,75.42h0l3.64-7.52h1.07l.72,7.52h0l3.6-7.52h.93l-4.26,8.75h-1l-.7-7.54h0l-3.69,7.54h-1l-.9-8.75h.94Z" fill="#fff"/><path d="M236.16,70.72a2.09,2.09,0,0,1,1.46.47,1.63,1.63,0,0,1,.53,1.29,1.51,1.51,0,0,1,0,.3c0,.1,0,.21,0,.32l-.64,3.55h-.83l.57-3.2a3.83,3.83,0,0,0,.07-.73,1.41,1.41,0,0,0-.29-1,1.27,1.27,0,0,0-1-.35,1.72,1.72,0,0,0-.66.13,1.8,1.8,0,0,0-.62.42,2.72,2.72,0,0,0-.5.71,3.53,3.53,0,0,0-.32,1l-.52,3h-.82l1.64-9.34H235l-.79,4.51h0a2.5,2.5,0,0,1,.84-.81A2.3,2.3,0,0,1,236.16,70.72Z" fill="#fff"/><path d="M240.31,76.65h-.82l1-5.79h.83Zm1.52-8a.6.6,0,0,1-.16.42.57.57,0,0,1-.42.17.59.59,0,0,1-.4-.15.51.51,0,0,1-.16-.41.61.61,0,0,1,.17-.43.61.61,0,0,1,.42-.17.53.53,0,0,1,.39.15A.55.55,0,0,1,241.83,68.63Z" fill="#fff"/><path d="M245.7,71.56h-1.57l-.6,3.39a2,2,0,0,0,0,.4.62.62,0,0,0,.2.54.89.89,0,0,0,.52.14,1.89,1.89,0,0,0,.38,0,.87.87,0,0,0,.32-.15l-.1.72a1.24,1.24,0,0,1-.41.13,3.12,3.12,0,0,1-.54,0,2,2,0,0,1-.42,0,1,1,0,0,1-.4-.18,1,1,0,0,1-.3-.35,1.21,1.21,0,0,1-.11-.57,2.88,2.88,0,0,1,0-.39l.65-3.62h-1.2l.13-.7h1.18l.28-1.63h.83l-.29,1.63h1.6Z" fill="#fff"/><path d="M246.88,74a.78.78,0,0,0,0,.14.62.62,0,0,0,0,.13A2,2,0,0,0,247,75a1.82,1.82,0,0,0,.4.58A1.79,1.79,0,0,0,248,76a2,2,0,0,0,.74.13,2.25,2.25,0,0,0,1.18-.3,2.86,2.86,0,0,0,.82-.71l.52.49a3.21,3.21,0,0,1-1.18.91,3.39,3.39,0,0,1-1.42.31,2.9,2.9,0,0,1-1-.18,2.42,2.42,0,0,1-.84-.49,2.28,2.28,0,0,1-.55-.8,2.67,2.67,0,0,1-.21-1.08,3.64,3.64,0,0,1,.26-1.35A3.51,3.51,0,0,1,248,71a3,3,0,0,1,1.32-.29,2.4,2.4,0,0,1,1.8.63,2.23,2.23,0,0,1,.61,1.63q0,.15,0,.45a3,3,0,0,1-.08.55Zm4-.62c0-.07,0-.14,0-.22v-.21a1.5,1.5,0,0,0-.41-1.1,1.58,1.58,0,0,0-1.19-.42,2.34,2.34,0,0,0-.85.15,2.43,2.43,0,0,0-.69.43,2.81,2.81,0,0,0-.52.62,2.38,2.38,0,0,0-.29.75Z" fill="#fff"/><path d="M260.05,76.1a5.53,5.53,0,0,0,1.39-.16,3.76,3.76,0,0,0,1.09-.43l.47-2.68h-2.06l.13-.75H264L263.31,76a6.11,6.11,0,0,1-1.61.65,7.26,7.26,0,0,1-1.7.2,4.51,4.51,0,0,1-1.6-.27,3.56,3.56,0,0,1-1.24-.77,3.36,3.36,0,0,1-.81-1.18,4.06,4.06,0,0,1-.28-1.54,5.56,5.56,0,0,1,.41-2.12,5.32,5.32,0,0,1,2.78-2.89,5,5,0,0,1,2-.42,4.08,4.08,0,0,1,.93.1,3.51,3.51,0,0,1,.83.27,3,3,0,0,1,.69.44,2.44,2.44,0,0,1,.49.58l-.81.53a1.51,1.51,0,0,0-.29-.42,1.91,1.91,0,0,0-.46-.37,2.7,2.7,0,0,0-.62-.27,3.22,3.22,0,0,0-.79-.1,3.78,3.78,0,0,0-1.72.39,4.29,4.29,0,0,0-1.35,1A4.77,4.77,0,0,0,257,73a3.36,3.36,0,0,0,.2,1.2,2.69,2.69,0,0,0,.58,1,2.92,2.92,0,0,0,.95.65A3.33,3.33,0,0,0,260.05,76.1Z" fill="#fff"/><path d="M266.05,71.53c0-.25.06-.47.08-.67h.79c0,.16,0,.33-.06.52s-.05.35-.08.47h0a2.64,2.64,0,0,1,.81-.82,2,2,0,0,1,1.11-.31H269a1.32,1.32,0,0,1,.26,0l-.2.79a1.19,1.19,0,0,0-.23,0,1.87,1.87,0,0,0-.34,0,1.84,1.84,0,0,0-.65.13,1.6,1.6,0,0,0-.59.39,2.4,2.4,0,0,0-.47.68,3.21,3.21,0,0,0-.3,1l-.52,3h-.83l.79-4.51C266,72,266,71.78,266.05,71.53Z" fill="#fff"/><path d="M271.79,76.8a3.14,3.14,0,0,1-1.08-.19,2.33,2.33,0,0,1-1.4-1.3,2.61,2.61,0,0,1-.19-1,3.66,3.66,0,0,1,1-2.52,3.53,3.53,0,0,1,1.09-.77,3.31,3.31,0,0,1,1.38-.28,3.06,3.06,0,0,1,1.08.18,2.23,2.23,0,0,1,.84.51,2.21,2.21,0,0,1,.55.79,2.37,2.37,0,0,1,.2,1,3.82,3.82,0,0,1-.25,1.4,3.6,3.6,0,0,1-.71,1.14,3.5,3.5,0,0,1-1.09.76A3.31,3.31,0,0,1,271.79,76.8Zm2.57-3.53a2,2,0,0,0-.13-.74,1.62,1.62,0,0,0-.36-.59,1.9,1.9,0,0,0-.59-.39,2.07,2.07,0,0,0-.77-.14,2.1,2.1,0,0,0-1,.23,2.5,2.5,0,0,0-.79.62,3.07,3.07,0,0,0-.71,2,2.15,2.15,0,0,0,.12.73,1.54,1.54,0,0,0,.36.59,1.65,1.65,0,0,0,.58.39,1.92,1.92,0,0,0,.77.14,2.18,2.18,0,0,0,1-.23,2.36,2.36,0,0,0,.79-.61,2.5,2.5,0,0,0,.52-.9A3.29,3.29,0,0,0,274.36,73.27Z" fill="#fff"/><path d="M280.4,76.65c0-.16,0-.33.06-.52s.05-.35.08-.47h0a2.44,2.44,0,0,1-.86.83,2.22,2.22,0,0,1-1.12.31,2.13,2.13,0,0,1-1.46-.47,1.67,1.67,0,0,1-.53-1.29c0-.1,0-.2,0-.3s0-.2.05-.32l.63-3.54h.84l-.57,3.2a3.88,3.88,0,0,0-.08.73,1.46,1.46,0,0,0,.29,1,1.22,1.22,0,0,0,1,.34,1.74,1.74,0,0,0,.67-.13,1.89,1.89,0,0,0,.62-.42,2.75,2.75,0,0,0,.51-.7,3.16,3.16,0,0,0,.32-1l.52-3h.83l-.79,4.51c0,.15-.07.35-.11.6s-.06.46-.08.66Z" fill="#fff"/><path d="M285.06,71.8a2.24,2.24,0,0,1,.36-.42,2.31,2.31,0,0,1,.5-.34,2.69,2.69,0,0,1,.6-.24,2.39,2.39,0,0,1,.66-.08,3,3,0,0,1,1.07.18,2.23,2.23,0,0,1,.82.51,2.16,2.16,0,0,1,.53.79,2.53,2.53,0,0,1,.19,1,3.83,3.83,0,0,1-.26,1.4,3.6,3.6,0,0,1-.71,1.14,3.35,3.35,0,0,1-1.08.76,3.17,3.17,0,0,1-1.35.29,2.54,2.54,0,0,1-1.18-.29,1.92,1.92,0,0,1-.83-.84h0l-.7,3.94h-.83l1.56-8.75h.83l-.18.94Zm3.86,1.47a2.19,2.19,0,0,0-.11-.73,1.74,1.74,0,0,0-.35-.59,1.78,1.78,0,0,0-.57-.4,2.13,2.13,0,0,0-.78-.14,2.29,2.29,0,0,0-1,.22,2.48,2.48,0,0,0-.82.61,3,3,0,0,0-.54.91,2.8,2.8,0,0,0-.2,1.08,2,2,0,0,0,.13.75,1.68,1.68,0,0,0,.37.6,1.79,1.79,0,0,0,.59.39,2.11,2.11,0,0,0,.77.13,2.36,2.36,0,0,0,1-.22,2.47,2.47,0,0,0,.79-.61,2.55,2.55,0,0,0,.52-.89A3.68,3.68,0,0,0,288.92,73.27Z" fill="#fff"/><circle cx="45.66" cy="45.66" r="44.59" fill="none" stroke="#fff" stroke-miterlimit="10" stroke-width="2.14"/><path d="M72.53,33.68a8.26,8.26,0,0,1,6.06,2.55,14.46,14.46,0,0,1,2.93,5.05c.07.22.14.33.36.29l.88-.15c.15,0,.15-.21.15-.51l-.37-7.31c0-.29-.07-.51-.44-.51-.22,0-.33.11-.51.37l-.44.58c-.22.29-.44.4-.87.07a13.54,13.54,0,0,0-7.46-2c-6.75,0-11.59,1.45-14.72,11.19l-3,7.83L50.55,40.93s-1.91-4.56-2.74-4.56S45,40.62,45,40.62,40.09,51.18,39.8,52l-.08,0L34,35a.88.88,0,0,1,.88-1.28h.69c.26,0,.33-.11.33-.29v-.92c0-.18-.07-.25-.29-.25l-3.58.09c-.17,0-.44.53-.71,1.23-1.11,2.5-6.44,14.12-6.74,15h-.15l-6.61-15.4c-.15-.44-.4-.8-.92-.8s-.8.58-1,.95c-.73,1.83-8.18,22.29-8.55,23.1a1.79,1.79,0,0,1-1.61,1.2H2.9c-.22,0-.26.11-.26.3v1c0,.11.08.19.22.19.3,0,3.56-.11,5.61-.11,2.26,0,3.5.11,3.87.11s.29-.11.29-.3V58c0-.19,0-.3-.25-.3h-1c-.88,0-1.24-.51-1.24-1,0-2,4.16-14.07,5.26-17.29h.15l5.26,13.06s1.2,2.86,1.95,2.86c1.15,0,2.87-4,2.87-4s4.94-11,5.23-11.78l.07,0,5.69,16.89a.87.87,0,0,1-.88,1.27h-.69c-.26,0-.33.11-.33.3v.91c0,.18.07.26.29.26s1.23,0,3-.07a1,1,0,0,0,.69-.31,1.11,1.11,0,0,0,.37-.49c.15-.4,6.62-14,6.95-15.05h.14L52.81,58.2c.15.44.4.81.91.81,2,0,2.61-.78,3.39-3,.41-1.15,2.79-7.86,5-13.56C64.63,35.66,68.57,33.68,72.53,33.68ZM90,47.25c-.37,0-7.29.11-10.35.11s-4.76-.11-5.2-.11c-.14,0-.21.07-.21.29v.84c0,.18.07.33.29.33H76.1c1,0,1.32.37,1.32,1.68v2.67c0,1.9-.07,2.92-.88,3.36-1.24.66-2.63.61-5,.61-3.63,0-6.24-2.28-9.24-4.7-.46-.37-.71-.19-.83,0s-.59,1.39-.72,1.7A.87.87,0,0,0,61,55.09c2.52,2.8,6.82,4,10.29,4a21.1,21.1,0,0,0,10.38-2.41c.36-.14.58-.29.58-.58s-.14-.66-.14-1.17V50.06c0-1.06.44-1.35,1.09-1.35h6.92c.22,0,.29-.07.29-.29V47.5C90.4,47.32,90.33,47.25,90,47.25Z" fill="#fff"/></svg>