<?xml version="1.0" encoding="UTF-8"?>
<svg id="Layer_1" data-name="Layer 1" xmlns="http://www.w3.org/2000/svg" xmlns:xlink="http://www.w3.org/1999/xlink" viewBox="0 0 887.04 100">
  <defs>
    <style>
      .cls-1 {
        fill: url(#New_Gradient_Swatch);
        stroke-width: 0px;
      }
    </style>
    <linearGradient id="New_Gradient_Swatch" data-name="New Gradient Swatch" x1="250.94" y1="50" x2="636.11" y2="50" gradientUnits="userSpaceOnUse">
      <stop offset="0" stop-color="#5cf"/>
      <stop offset="1" stop-color="#0075ff"/>
    </linearGradient>
  </defs>
  <path class="cls-1" d="M588.61,81.43c-.97.58-2.27.86-3.9.86l-49.79-.09,17.68-54.78h74.54l8.96-27.43h-193.08s-33.09,0-33.09,0h-98c-6.57,0-12.5.9-17.79,2.71-5.28,1.81-9.86,4.19-13.71,7.14-3.86,2.95-6.98,6.31-9.36,10.07-2.38,3.76-3.95,7.62-4.71,11.57-.76,3.95-.67,7.83.29,11.64.95,3.81,2.7,7.32,5.64,10.14,1.49,1.43,2.55,2.27,4.09,3l-.43,9.98,5.95-9.98h16.37l.49,11.59,5.37-11.59h7.23l.49,11.59,5.37-11.59h6.32l-2.26,4.86c.55-.54,1.15-1.04,1.8-1.52,1.37-1.01,2.94-1.82,4.71-2.43,1.77-.61,3.7-.92,5.8-.92h10.56l-1.89,5.86-10.47-.03c-1.04,0-1.99.24-2.85.72-.86.48-1.6,1.07-2.2,1.78-.6.71-1.04,1.48-1.33,2.32-.29.83-.37,1.61-.26,2.33.11.72.45,1.32,1.02,1.8.57.48,1.4.72,2.5.72h4.24l1.86-5.83h7.84l-3.78,11.69h-11.9c-2.14,0-3.9-.3-5.29-.92-1.39-.61-2.46-1.42-3.2-2.43-.74-1.01-1.17-2.15-1.3-3.42-.02-.25-.03-.51-.03-.76l-3.49,7.52h-8.6l-.37-8.88-4.12,8.88h-8.6l-.65-15.68-5.04,15.68h-7.23l4.15-12.85-7.69,12.85h-7.23l.55-12.88-4.15,12.88h-6.41l-7.29,22.35h68.57c6.57,0,12.5-.9,17.78-2.71,5.29-1.81,9.88-4.22,13.79-7.21,3.9-3,7.05-6.43,9.43-10.29,2.38-3.86,3.95-7.79,4.72-11.78.76-4,.67-7.91-.29-11.72-.95-3.81-2.81-7.23-5.57-10.28-2.76-3.05-6.52-5.5-11.28-7.36-4.76-1.86-10.57-2.79-17.43-2.79h-21.14c-2.1,0-3.55-.45-4.36-1.36-.81-.9-1.05-1.88-.71-2.93.33-1.05,1.19-2,2.57-2.86,1.38-.86,3.12-1.28,5.21-1.28h132.4c3.81,0,6.67,1.05,8.57,3.14,1.9,2.1,2.74,4.38,2.5,6.86-.24,2.48-1.57,4.76-4,6.86-2.43,2.1-6.07,3.14-10.93,3.14h-23.86l3.57-11.29c-21.89,0-41.29,14.1-48.04,34.92l-9.38,28.93h36.71l8-24.71h13.43l14.71,24.71h36.71l-15.71-26.43c8-1.9,14.69-5.02,20.07-9.36,5.38-4.33,9.31-9.24,11.78-14.71,2.48-5.48,3.55-11.12,3.22-16.93-.1-1.76-.36-3.47-.74-5.14h24.36l-23.43,72.57h37s56.35,0,56.35,0c4.18,0,7.94-.57,11.3-1.72,3.36-1.15,6.28-2.68,8.76-4.58,2.48-1.91,4.48-4.09,5.99-6.54,1.51-2.45,2.51-4.95,3-7.49.48-2.54.42-5.02-.18-7.44-.61-2.42-1.79-4.6-3.54-6.54-1.76-1.94-4.15-3.5-7.17-4.67-3.03-1.18-6.72-1.77-11.08-1.77h-13.44c-1.33,0-2.25-.27-2.77-.82-.52-.54-.67-1.13-.45-1.77.21-.64.76-1.21,1.63-1.72.88-.51,1.98-.77,3.31-.77l37.49.09,5.81-17.79h-43.48c-4.18,0-7.94.58-11.3,1.72-3.36,1.15-6.26,2.66-8.71,4.54-2.45,1.88-4.44,4.01-5.95,6.4-1.51,2.39-2.51,4.84-2.99,7.35-.49,2.51-.42,4.98.18,7.4.6,2.42,1.8,4.57,3.58,6.45,1.79,1.88,4.19,3.4,7.22,4.58,3.03,1.18,6.72,1.77,11.07,1.77h12.53c1.63,0,2.77.3,3.4.91.64.61.85,1.26.64,1.95-.21.7-.8,1.33-1.77,1.91Z"/>
</svg>