<svg id="Layer_1" data-name="Layer 1" xmlns="http://www.w3.org/2000/svg" viewBox="0 0 437.2 192.8"><defs><style>.cls-1{fill:#231f20;}.cls-2{font-size:16px;fill:#fff;font-family:Avenir;}</style></defs><title>Standard Life Logos CMYK copy</title><path class="cls-1" d="M281.9,87.3c2.6-4.3,3.3-9.2.5-11s-7.3,1.1-10,5.2-3.7,9.8-.5,11.7S279.4,91.5,281.9,87.3ZM274.8,93V92.7l0.7-2.3,1.1-.3c0,0.4,0,1.7,0,2.1Zm3-1.6-0.2-.4V90.4s0-.6,0-0.8l1.4-1.1h0.4l0.4,1Zm3.7-4.2-1,1.5-1-.8,0.9-1.3,0.4-.8,0.9,0.2,0.4,0.3Zm1.2-2.4h-0.6l-0.7-.5a8,8,0,0,0,.4-1.6h1.6A15.1,15.1,0,0,1,282.7,84.8Zm1-3.6-1.9.4a3,3,0,0,0-.4-1.1l2.1-2A6.5,6.5,0,0,1,283.7,81.1Zm-2.4-4.8,1,0.4a2.8,2.8,0,0,1,.8.8L281,79.9l-0.5-.4-0.6-.3Zm-2.5.2a5.1,5.1,0,0,1,1.8-.3l-1.2,2.9h-1Zm1.5,3.3c2,1.3,1,4.2-.3,6.5s-4.3,4.3-5.8,3.5-1.1-4.8.3-6.9l0.5-.7,0.2,1,0.2,0.5H276a11.2,11.2,0,0,1,.8,1.5v2.1a0.6,0.6,0,0,0,.1.5h1a3.4,3.4,0,0,0,.1-0.5,2.6,2.6,0,0,1,.8-0.5,0.7,0.7,0,0,0,0-.3h-0.1l-0.9-1.4V80A2.6,2.6,0,0,1,280.3,79.9Zm-3.3,2.6-1.2-1h0.2l1-.9h0.2v2Zm0,0.4v0.7l-0.3-.3,0.3-.5h0.2Zm0.1-5.5v2.4l-1.4,1-1-1.6A13.5,13.5,0,0,1,277.2,77.4Zm-4.4,4.3,1-1.3,1.2,1.4-0.7.9-0.8,1.3h-0.1a0.3,0.3,0,0,0-.2-0.4l-0.8-.2H272V83.3Zm-1.5,2.8h1.9a8.6,8.6,0,0,0-.6,2.2h-0.5l-0.8.4-0.8.2h-0.2A13.6,13.6,0,0,1,271.3,84.5Zm-0.5,6.8a5.1,5.1,0,0,1-.5-2.5h0.6L272,88h0.6a3.2,3.2,0,0,0,.3,1.3l-0.3.3L271.1,91v0.2h-0.2Zm1.5,1.5a3.5,3.5,0,0,1-1.3-1.1h0.2a0.5,0.5,0,0,1,.2.2h0.4l1.4-1.7h0.2l0.5,0.3h0.3a0.7,0.7,0,0,1,0,.3L273,93.1Zm1.1,0.3,0.2-.4v0.4h-0.3Z"/><path class="cls-1" d="M290.1,89.2l2.5-1.2V67l-2.5,1Zm0.8-20.8,1.4-.7V87.6l-1.4.7V68.4Z"/><path class="cls-1" d="M313.5,94.6c2.6-.9,2.4-6.5.3-11.1s-5.2-6.7-7.8-5.8-2.6,5.4-.9,9.5S310.4,95.6,313.5,94.6Zm-3.2-.9V92.5l1.1,0.2,0.3,1.6A4.4,4.4,0,0,1,310.3,93.6Zm3,0.5h-0.2l-0.6-1.7,0.6-.4,1.1,1.4A2.1,2.1,0,0,1,313.3,94.1Zm1.4-1.6-0.2-.2h0.2v0.2Zm0.2-.5-1.2-1a4.7,4.7,0,0,0,.2-1.2l0.9,0.3H315A7.6,7.6,0,0,1,314.9,92Zm0.1-3-1.2-.3a11.9,11.9,0,0,0-.5-2l0.7-.3h0.4A16,16,0,0,1,314.9,89Zm-5.2-8.2a1.8,1.8,0,0,0,.2-0.9c0-.3,0-0.5.3-0.5h0a14.4,14.4,0,0,1,3.2,4.5l0.6,1.4-1.1.3-0.3-.7a11.3,11.3,0,0,0-3-4h0.2Zm-0.4,1.9V85h-0.2a17.8,17.8,0,0,1-1.1-1.8c0-.2-0.2-0.7-0.2-0.9a3,3,0,0,0-.6-0.8l-0.5-.5a0.6,0.6,0,0,1,.1-0.5,2.5,2.5,0,0,1,2.2.4ZM306.1,78a3.2,3.2,0,0,1,2.2.1l0.2,0.3a16.9,16.9,0,0,1,.1,1.8,2.8,2.8,0,0,0-1.8-.3l-0.4-.5-0.5-1.4h0.2Zm-1.3,1.1,0.7,1,0.3,0.3h0.1a3.1,3.1,0,0,0-.7,1.8h-0.4l-0.5-.3A5.6,5.6,0,0,1,304.8,79.2Zm0.7,6.8H305a17.1,17.1,0,0,1-.5-2H305l0.2,0.2a11.9,11.9,0,0,0,.3,1.5V86Zm0.5-4.8a2,2,0,0,1,.3.7,3.3,3.3,0,0,0,.7,1.3l1,1.2,1.5,2.4a4.9,4.9,0,0,1,.1,1.2,0.7,0.7,0,0,0,.1.9c0.3,0.5,1-.1,1.4-0.5a1.6,1.6,0,0,0,.4-1.1,6.9,6.9,0,0,0-.4-0.6h-0.3l-0.5-.7-0.7-3.8V81.4a11.9,11.9,0,0,1,2.5,3.6c1.6,3.4,1.7,6.5-.1,7s-4.3-2-5.6-5S305.3,82.5,306,81.3Zm0.7,8.4-0.8-1.5V87.9h0.4l0.7,1.3Zm1.4,1,1,1-0.3.9-1.2-1.4Z"/><path class="cls-1" d="M324.3,117.4a0.3,0.3,0,0,1-.1-0.3l0.2-.3a3.4,3.4,0,0,1-.7-0.6c-0.2-.2-1.3-2.7-1-7.1a2.2,2.2,0,0,1-.2-0.6l1.2-1.2v-0.4l0.3-.5-0.4-.4-0.2.4-0.9-.6-0.9-21.7a3,3,0,0,1,.8-1.2,1.2,1.2,0,0,1,.8-0.2l0.9,0.6h0.2V82.8l-0.4-1s-0.1-.3-0.5-0.1h-1l-1.2-.6V79.6l-0.2-.4V78.7a0.9,0.9,0,0,0,.2-0.6,4.7,4.7,0,0,0-.4-0.8l-0.2-1.7V74.6a3,3,0,0,0,.2-0.7l-0.2-.4a0.5,0.5,0,0,1,0-.4c0.1-.2.3-0.4,0.2-0.6a12.4,12.4,0,0,1-.5-1.9l-0.3,1.6a0.5,0.5,0,0,0-.2.3,1,1,0,0,0,.2.5,0.6,0.6,0,0,1,.1.3,0.9,0.9,0,0,0-.2.3,2,2,0,0,0,.1.9,4.1,4.1,0,0,1,0,1.2l-0.9-.6a6,6,0,0,1-.1-0.6,4.2,4.2,0,0,1,.2-0.8,1.3,1.3,0,0,0-.2-0.6h-0.2l-0.5.5v0.8l-0.3-.2V71.5l1.1-1V69.8l-1-1.1V62.9h-0.3v5.1s-0.4.1-.5-0.6-0.5-2.3-.5-2.3V59.4h1.9V58.9h-1.9V56.2H316v2.7h-1.9v0.5H316v4.2a2.3,2.3,0,0,1-.2.8,5.3,5.3,0,0,1-.7,1.4c-0.2,0-.1.1-0.4-0.2s-2.4-2.5-2.7-3.9a23.3,23.3,0,0,0-.8-2.8l-0.7.7a0.3,0.3,0,0,1-.4-0.1c-0.1-.2-2.2-3.5-2.8-4.7s-1.4-2.6-1.4-2.7a0.8,0.8,0,0,1,.2-0.6,2.9,2.9,0,0,0,.8-2c-0.2-.9-0.1-1.2-0.2-1.4s-0.1-.9-0.1-0.9h-0.4v0.6H306V46.9l0.5-.6-0.4-.4V44.9a5,5,0,0,0-.1-0.9,3.8,3.8,0,0,1-.1-0.6v-1h0.1V41.8h-0.6v0.5l0.2,0.3v1.3l-0.7-.5V40.5a1,1,0,0,1,.6,0l2.2,2,0.2-.3s-4.2-5.5-5.5-7.8-6.4-11.6-7.5-17.2c-0.3-1.4-1.1-6.2-1.2-7.7a3.1,3.1,0,0,1,.8-0.9h0.4a0.7,0.7,0,0,0-.1-0.4h-0.3a6.2,6.2,0,0,1-.6-1.4c0-.1-0.2-0.1,0-0.3s0.5-.5.3-0.6L293,5V3h0.3a0.6,0.6,0,0,0,.6.5h0.3a2.7,2.7,0,0,1,.4.9h0a0.6,0.6,0,0,0,.6.5,0.6,0.6,0,0,0,0-1.2h-0.1L294.5,3h0a0.6,0.6,0,0,0-.6-0.6H293V1.7a0.9,0.9,0,1,0-.6-0.1V2.3h-0.2l-0.4-.2a0.6,0.6,0,0,0-.6.6,3,3,0,0,1-.6,1.3h0a0.6,0.6,0,1,0,.8.6,0.6,0.6,0,0,0-.1-0.3h0a1.9,1.9,0,0,1,.5-0.9h0.1a0.6,0.6,0,0,0,.6-0.4h0.1V5l-0.3.2-0.6.2a1.7,1.7,0,0,0,0,.8,4.4,4.4,0,0,1-.6,1.4l-0.3.4a0.5,0.5,0,0,0,0,.5L291.4,9a0.6,0.6,0,0,1,.1.3s-1.3,7.1-2.3,9.3-5.2,12.3-6.9,14-3.2,4.8-5.6,5.8l0.3,0.5,0.6-.4,0.5,0.3,1.2-.9v3.6l-0.4.5v2.3a1.3,1.3,0,0,1,.2.5v0.8h-0.3V45.1h-0.5v2.7l-0.5.9v0.3l1.1,0.5,0.4,0.4s-2.7,4.6-3.7,5.9-3.9,5.1-4.3,5.3l-2.6,1.3V56.8h1.5V56.1h-1.6V53.8h-0.5v2.2H266v0.7h1.6v6.2l-0.7.3h-0.2V60.9h-0.5v2.8l-2.2.9V65l2.1-.7v1.4l-1.7,1.7h-0.3s-0.3,1.2-.4,1.4a7.1,7.1,0,0,0-.5,1,1.6,1.6,0,0,0,.2.5v0.4l-0.3.5V72l-0.2,3.1,0.2,0.3v0.2l-0.8.5v1.2l0.2,0.4v1.2l-1.4-.2-0.7.2-1-.3a0.5,0.5,0,0,0-.4.1,0.2,0.2,0,0,0,.2.3l0.6,0.2-0.3.4-0.2.2a15.2,15.2,0,0,0,.3,1.6l0.5-.2V80.3h0.3a1,1,0,0,0,.1.5l1.1,1.3-0.7,20.5s0.1,0,.1.2a1.1,1.1,0,0,1-.3.8,0.3,0.3,0,0,1-.5-0.2,1,1,0,0,0-.3-0.4h-0.2a2.7,2.7,0,0,1,.2.8l-0.3.2-0.2.2,0.4,0.6v0.8l0.3,0.4v0.3a4.3,4.3,0,0,0,0,.7h0.2l0.2-.2v7.5l-0.8.6h-0.9v0.4h0.2l-0.2.4v1.2h0.5l0.3-1.2,0.3-.3,1.3,0.3a1.3,1.3,0,0,1,.3.6l0.6,1.9v0.2l-2.2,42.4h1l1.7-36.2,0.5-.3v-6.7h0.3l-1.5,43.3h1.1l1.2-36.6,0.6,0.2-0.7,36.4h0.9l0.8-36.5,0.4-.3v-1.5h0.2l-0.6,38.4h0.4l0.2-11.7h2l0.5-27.6a1,1,0,0,1,.5-0.4,1.1,1.1,0,0,1,.9.1c0.1,0.2-.4,24.8-0.4,24.8h-0.2v14.7h0.5V148.7l2.1-1.2v-26a1.6,1.6,0,0,1,1.3-.5c0,0.1-.1,40.1-0.1,40.1h0.5V146.4l1.6-2.3-0.2-23.3a1.3,1.3,0,0,1,.7-0.5,1,1,0,0,1,.7-0.1c0,0.8,0,40.9,0,40.9h0.5V141.4h0.2l1-1.6-0.2-19.3a1.3,1.3,0,0,1,.4-1.1c0.1-.1,1.1-0.7,1.2,0s0.2,41.7.2,41.7h0.5V138l1.7-1.4L282,118.1a0.7,0.7,0,0,1,.3-0.5c0.2-.2,1.1-1,1.1-0.1s0.5,43.7.5,43.7h0.5V135.6l1.3-.7-0.4-18.5c0.1-.3,0-0.5.4-0.5s0.9-.4,1,0,0.4,17.4.4,17.6-0.2.5-.2,0.8,0.3,26.7.3,26.7h0.4V134.3l1.5-.4,0.5,27.2h0.5s-0.5-48.1-.5-48.2-0.2.3,0-.1a1.8,1.8,0,0,1,.5-0.7c0.2-.1.5-0.3,0.5,0.3s0.9,48.8.9,48.8h0.4l-0.9-53.5v-0.4H291l1,53.9h0.4l-0.8-49.6a0.2,0.2,0,0,1,.2-0.3,0.3,0.3,0,0,1,.5.3c0,0.3.8,49.5,0.8,49.5h0.4l-1-54.6s0.3-.4.3-0.2,1,54.8,1,54.8h0.4l-0.8-49.4a0.5,0.5,0,0,1,.2-0.4,1.1,1.1,0,0,1,.8,0,0.8,0.8,0,0,1,.4.8c0,0.5.8,49,.8,49H296l-0.9-54.2v-0.5s0.3-.1.3,0,1.1,54.7,1.1,54.7h0.5l-1-49.2s0-.6.2-0.6l0.4,0.2a1.6,1.6,0,0,1,.3.9c0,0.3,1.3,48.7,1.3,48.7h0.5l-1.4-54.3,0.2,0.2,1.5,54.1h0.6l-1.4-48.9s0-.1.2-0.2,0.1-3.7.1-3.7l0.3-.2v4.3a2.2,2.2,0,0,1,.1.6c0,0.2,1.1,48.1,1.1,48.1h1.8l-1-45.1a0.7,0.7,0,0,1,.1-0.5h0.6a0.9,0.9,0,0,1,.5.8c0,0.4.9,44.9,0.9,44.9h1.6s-0.8-41.2-.8-41.5v-1.1a2,2,0,0,1-.2-1,0.5,0.5,0,0,1,.7-0.3l0.8,0.5a0.3,0.3,0,0,1,.1.4,2.9,2.9,0,0,0-.2,1.3c0,0.6.8,41.8,0.8,41.8h2l-1.1-42.4H307l0.8,0.4,0.9,42h1.7l-1.1-41.3,1.1,0.5,1.1,40.8h2.1l-1.1-39.8,1,0.5,1.4,39.2h1.2l-1.3-38.2,1.2,0.5,1.1,37.7h5.6l-1.2-41.2a2.6,2.6,0,0,1,.2-1l1.2-1.3h0.5l0.9,0.5,0.2-.4ZM294.9,89.9l-0.2-.2-0.7.2h-0.4V89.6l0.5-.7,1.1,0.4h0a0.4,0.4,0,0,1-.1.2,0.8,0.8,0,0,0,0,.5,0.6,0.6,0,0,0,.4.4l2,0.9a0.2,0.2,0,0,1-.1.3l-0.3.2-0.5-.3L296,91h-0.3A8.2,8.2,0,0,1,294.9,89.9Zm0.1,0.9v8.3h-0.2l-0.8-.5s0.2-8.2.3-8.4,0.4,0,.4,0Zm-4.6,7.9h0v0.5h-0.1v0.2h-0.1V98.7h0.2Zm-0.2-.2V98.2h0.2v0.3h-0.2Zm-0.1-.6V94.1l0.3,0.2v3.8Zm0.1,2,0.2,0.2h0.2s0.2-5.3.2-5.8A3,3,0,0,1,291,93c0.1,0,.1.2,0.1,0.2s0.1,0.7.1,0.8,0,5.6,0,5.6l1.2-.5h0.7V98.8h0.1a2.3,2.3,0,0,0,0,.3l-0.6.3-2.3,1L290,100Zm1.6-7.2-0.4.2h-0.1V92.7l0.5-.3C291.9,92.4,291.8,92.7,291.8,92.7Zm1,0.3v5.5l-1.2.5V93.5Zm0.3-3.3-0.2.2L289,91.4a0.6,0.6,0,0,0-.6.6,0.2,0.2,0,0,0,.2.3h0.5l3.9-1.7V91l-4.2,1.9h-1.2a1.8,1.8,0,0,1-.7-0.7c-0.3-.3.3-0.5,0.5-0.6l5.7-2.3v0.4Zm-21.7,15.6,0.2,0.5-0.4.4a1.1,1.1,0,0,1-.4-0.6,0.9,0.9,0,0,1,0-.6v-0.3l0.5-1.2c0.1-.3,0-0.6.1-0.8a0.3,0.3,0,0,1,.4-0.3,0.7,0.7,0,0,1,.1.6,5.5,5.5,0,0,1-.1,1.2,3.2,3.2,0,0,1-.3.7A0.6,0.6,0,0,0,271.4,105.3Zm0.6-.5,0.2-.3v-0.5h0.1a6.4,6.4,0,0,1,0,1,0.9,0.9,0,0,0-.1.4,0.5,0.5,0,0,0,.2.3,0.3,0.3,0,0,1-.4.2,0.6,0.6,0,0,1-.2-0.4A1.1,1.1,0,0,1,272,104.7Zm0.2,2.9s0-1.4,0-1.4h0.4l0.3,0.3s0,0.8,0,1.1a0.9,0.9,0,0,1-.2.4,0.5,0.5,0,0,1-.3.3h-0.3a4.7,4.7,0,0,1,0-.5h0.1Zm0.7,1h0s0,0.1,0,.1h0Zm-4.8-7.1-3.3,1.7c-0.3.2-.5-0.1-0.5-0.3a0.6,0.6,0,0,1,.3-0.5l1-.6h0.7l19.9-9.4,0.4,0.4Zm0,5.3,0.2,0.5-0.4.3a1.1,1.1,0,0,1-.4-0.6,0.9,0.9,0,0,1,0-.6l0.2-.3,0.5-1.2c0.1-.3.1-0.5,0.2-0.8a0.3,0.3,0,0,1,.4-0.3,0.7,0.7,0,0,1,.1.6,5.1,5.1,0,0,1-.2,1.2l-0.4.7A0.6,0.6,0,0,0,268.2,106.9Zm0.2,1.4h0.1a0.5,0.5,0,0,1,.1-0.4h0.1v0.5h-0.1v1.1h-0.1c-0.1,0-.1,0-0.1-0.2S268.4,108.3,268.4,108.3Zm0.3-1.9,0.3-.3a1.5,1.5,0,0,1,.1.5h0.1V107h-0.2l-0.2-.2A4.9,4.9,0,0,1,268.7,106.4Zm0.4-.4v-0.3a0.2,0.2,0,0,1,.1-0.2,0.7,0.7,0,0,1,0,.4h-0.1Zm0.2,3s0-1.4,0-1.4h0.4l0.3,0.3s0,0.8,0,1.1a0.9,0.9,0,0,1-.2.4,0.5,0.5,0,0,1-.3.3h-0.3a4.8,4.8,0,0,1,0-.5h0.1Zm-2-1.1v2.7h-0.2v-2.7h0.2Zm-1.4-1.2-0.2.2v-1.6l0.2-.2A8.7,8.7,0,0,1,265.9,106.8Zm-0.6.4-0.4.6h0s0-2,.1-2h0.3v1.4Zm-0.4-25.8a0.5,0.5,0,0,0-.1.4s-0.8,19.9-.8,20.3a0.4,0.4,0,0,1-.3.5l-1,.4c-0.2.1-.2-0.2-0.2-0.2l0.7-21.4,2.3-.8c0.2,0,.1.5,0.1,0.5l-1,20.7v0.2h-0.3s1-20.2,1-20.4S265,81.3,264.8,81.4Zm5.9-7.5c0.1-.2.1-0.2,0.3-0.2s0.4,0,.4.2,0,0.9,0,.9l-1.8.8V74.8h0.2a0.8,0.8,0,0,0,.2.3c0.1,0,.5.2,0.5-0.1a2.6,2.6,0,0,1,.1-0.6c0.1-.1.3-0.1,0.3-0.2S270.6,74,270.7,73.9Zm0.5-.8-1,.4a4,4,0,0,1-.5-0.7,0.6,0.6,0,0,1,.2-0.5l1.5-.9h0.3Zm-1.4.9v0.4h-0.2V73.9h0.2Zm-0.1,2.4h0.4l10-5.1,7-3.4h0.3V67.2a0.4,0.4,0,0,1,.3-0.3,0.3,0.3,0,0,1,.3.3c0,0.3,0,19.7,0,19.7h-0.1v3.4a0.3,0.3,0,0,1,.1.2,0.4,0.4,0,0,1-.3.5l-1,.3-10.3,5-8.5,4-0.5.2-0.5.4a0.7,0.7,0,0,1-.5.2c-0.1-.1-0.1,0-0.1-0.4s0.1-1.7.1-1.7l1-19a6.6,6.6,0,0,1,0-.9,0.9,0.9,0,0,1,.2-0.4,0.2,0.2,0,0,1,.3.3c0,0.3-.2,10-0.2,10h-0.1s-0.5,10.8-.5,11a2.2,2.2,0,0,0,0,.5l7.4-3.6,11.5-5.4,0.2-9.6H286a0.1,0.1,0,0,0-.2.1c0,0.2-.1,1.1-0.1,1.1a0.9,0.9,0,0,1-.2.5c-0.1,0-.3.2-0.4,0a2.1,2.1,0,0,1,.2-0.9,28.8,28.8,0,0,0,.5-3.2c0.1-1.1.1-3.1,0.1-3.1h0.2V70a0.5,0.5,0,0,1,.2-0.4c0.1,0,.3.1,0.3,0.4s-0.2,20.7-.2,20.7a0.3,0.3,0,0,0,.1.3,0.3,0.3,0,0,0,.4-0.3c0-.3.1-21.6,0.1-21.6s0-.3-0.1-0.4l-0.7.3-17.2,8.2-1.7.8h-0.6l-1.2,23.1s-0.5.7-.5,0.3S266.3,78,266.3,78l0.9-.4h0.5l1.1-.5Zm2.1-3.3s0-.5,0-0.6h0.2v0.6h-0.2Zm3.5-.7H275V72.2h0.2v0.2Zm0,0.5-2,1V72.7l1.2-.7,0.3,0.9,0.5-.3v0.2Zm-0.1-1.3h-0.3V71h0.3v0.6Zm-0.8-.1-1.3.5-0.6-1,2.4-1.2Zm-1.6.9a4.3,4.3,0,0,1,0,.6h-0.3V72Zm0,1a1.8,1.8,0,0,1,0,.9h-0.3V73.6A0.3,0.3,0,0,1,272.6,73.4Zm5.5-2.7c0,0.1,0,.8,0,0.8l-0.3.2v-1h0.2Zm-0.2-.6V69.7H278v0.4h-0.2Zm-0.5,0-1,.5-0.7-1.2,2-1h0.1Zm-0.9,1,0.9-.5a3,3,0,0,1,0,.9h0.1v0.2l-1.7.9-0.2-.9h0.3a0.3,0.3,0,0,0,.3.4,0.2,0.2,0,0,0,.2-0.1V71.2Zm-0.5-.1a0.5,0.5,0,0,1-.2.3h-0.2a2.8,2.8,0,0,1,0-.6A1.1,1.1,0,0,1,276,71.1Zm4.7-.8-1.1.6V69.8h0l0.8-.4h0.2v0.8h0.2Zm-0.2-1.7-1.1.6-1-1.1,2.3-1.1ZM279.2,71l-0.6.3V70.3h0.4v0.5l0.2,0.3h0Zm-0.4-1.6v0.4h-0.4V69.1Zm2.3,0.2h0.2V70h-0.2V69.7Zm-0.1-.2V69.2h0.1v0.3h-0.1Zm0.1-.9H281V68.4h0.2v0.3Zm2.3-1.3-1.1.4-0.9-1V66.5l1.8-.9,0.5,0.2v0.9Zm0.3,1.2-0.7.5h-0.4a0.6,0.6,0,0,1-.1-0.5,0.6,0.6,0,0,0,.1-0.4,1.1,1.1,0,0,1,.7-0.4h0.1v0.4Zm-2,.4,0.4-.2v0.8l-0.4.2V69Zm-0.1-.6V67.7l0.3,0.3v0.3h-0.3Zm2.4-.6a0.4,0.4,0,0,1,.3-0.1,1.5,1.5,0,0,1,0,.5c-0.1,0-.3.1-0.3-0.1A2.9,2.9,0,0,1,284,67.8Zm0.5-11.5,0.9-2,1.3-.7-0.8,2Zm1.3,3.8a2.3,2.3,0,0,1-.7,1.5c-0.5.4-.6,0-0.6-0.3s0.3-.6.5-1.1a10.6,10.6,0,0,0,.1-1.3,0.5,0.5,0,0,1,.7-0.2A2.3,2.3,0,0,1,285.8,60.1Zm-12.5,5.3a1.3,1.3,0,0,1,.7-0.2,5.4,5.4,0,0,1,0,1.2,2.3,2.3,0,0,1-.5,1.4c-0.3.1-.5,0.1-0.5-0.1a9.3,9.3,0,0,1,.3-0.9A9.7,9.7,0,0,0,273.2,65.4Zm0.3-3.5-1.2.6,2-2.6,0.8-.4ZM276,59l1-.5-1.3,2.3-0.9.5Zm-0.1,6.1a12.3,12.3,0,0,0,.1-1.3,1.3,1.3,0,0,1,.7-0.2,5,5,0,0,1,0,1.2,1.7,1.7,0,0,1-.6,1.4c-0.3.2-.7,0.2-0.7-0.1S275.9,65.4,275.9,65.2Zm0.6-4.8,1.4-2.3,1.2-.6L278,59.6Zm8-16.4-0.4.2V43.5l0.4-.2V44Zm0,0.5v0.6l-0.4.2V44.7Zm0,3.2,0.8-.4-3.8,8.3-1,.5C281.4,55,284,49.1,284.7,47.6Zm1.8-4.7-0.4.2V42.5l0.4-.2V43Zm0,0.5v0.6l-0.4.2V43.7Zm0.4,3-3.6,8.2-0.8.4,3.6-8.2Zm1.6-4.6-0.4.2V41.4l0.4-.2v0.7Zm0,0.5V43l-0.4.2V42.6Zm0,3.2L285,53.8l-0.7.4,3.3-8Zm-8.7,10.9-1,.5,4.5-8.6L284,48Zm-1,8a7.8,7.8,0,0,1,.3-0.9,8.5,8.5,0,0,0,0-1.4,1.3,1.3,0,0,1,.7-0.2,6.3,6.3,0,0,1,.1,1.4,2.2,2.2,0,0,1-.6,1.3C278.9,64.9,278.7,65.2,278.8,64.5Zm0.2-5.4,1.2-2.2,0.8-.4-1,2.1ZM282,56l0.7-.4-0.9,2.1h-0.1l-0.8.4Zm-0.1,5.8a10.9,10.9,0,0,0,.1-1.3s0.6-.3.8-0.1a8.6,8.6,0,0,1,0,1.3,2.6,2.6,0,0,1-.8,1.8c-0.5.2-.5,0-0.5-0.2S281.9,62.1,281.9,61.8Zm0.7-4.6,1-2.1,1-.5-1.1,2.2Zm3.4-3.9,3.1-7.9,1.1-.6-2.9,7.9Zm6.3-14.8V32.9h0.2v5.4Zm0.3,0.6v0.6h-0.3V39.1h0.3Zm-0.1,1.3,0.3,0.3h0l-0.3.2h-0.2V40.4h0.2Zm0,3.1,0.8-.4-2.6,7.7-0.8.4ZM293,40l0.3-.2,0.3,0.3-0.5.4H293V40Zm-0.1-.7V38.6h0.5v0.5l-0.2.2h-0.3Zm0.6-1.6-0.6.5V32l0.6-.3v6.1Zm0.1,13.8,0.2-1.6,0.6-.3h0V51l-0.6.5h-0.1Zm0.9,2.3h0v5.8l-1.3.7-0.2-.3,0.2-5.4,0.2-.4Zm-0.9-4.5-0.7.4,1-2.9h0.2v0.4Zm-0.4.9L292.7,52h-0.1l-0.8.4,0.4-1.8Zm1.2,10.2v0.2l-6.1,3.1-0.2-.2Zm2.4-5.1v5.7l-0.5-.3V55.1Zm-0.3-14.1,0.3,0.2v0.7l-0.3-.2V41.3Zm3.9,23.1V65l-0.5,1.1v0.2h1.6a0.9,0.9,0,0,1,.6.4V67l-1.4.2-0.5.3-0.4-.4h-0.2V66.6a4.5,4.5,0,0,0-1-.6,0.3,0.3,0,0,1,0-.2h0.3l0.3-.8a1.1,1.1,0,0,1,.3.4,1.3,1.3,0,0,1-.1.4v0.5h0.3l0.4-1.2-4.6-3.5V61h0.3l0.2,0.5h0.5ZM297,55.7l0.4,0.3v4l-0.5-.3v-4Zm0-13.9,0.5,0.3v0.7l-0.5-.3V41.8Zm1.3,1v0.7l-0.5-.3V42.4Zm-0.5-1.3V40.6h0.2v0.8h-0.2Zm0.2,15.1v2.9l-0.5-.3V56.3ZM300,44v0.7l-0.5-.3V44h0V43.3h0.3v0.6H300Zm-0.2-1.3h-0.3V41.9h0.3v0.8Zm-0.1,16.8,0.5-.6,1,0.6,0.9,0.8a6.1,6.1,0,0,0,.1.7l0.2,0.3s0.1,2.7,0,2.7a0.3,0.3,0,0,1-.2.2l-0.4-.3c0-.1.1-0.8,0.1-1a15.8,15.8,0,0,1,.1-1.7V60.8h-0.3l-0.2-.2-0.2-.3-1-.4h-0.4a0.4,0.4,0,0,0,0,.3,0.3,0.3,0,0,1-.1.2v2.4l0.3,0.3a0.3,0.3,0,0,1-.1.3h-0.2l-0.4-.2-0.4-.3s0-2.5.1-2.8a0.3,0.3,0,0,1,.3-0.3h0.4Zm0.6-15.2,0.6,0.4v0.7l-0.5-.4V44.3Zm1,0.8,0.5,0.3v0.7l-0.5-.3V45.1Zm1.3,21.8s0,1.6,0,1.8-0.1.1-.2,0.1a1.3,1.3,0,0,1-.5-0.4,1.8,1.8,0,0,1,0-.4l0.5-1V66.6h0.1v0.2h0.1Zm1.2,0.5s0,1,0,1.3-0.1.4-.2,0.4a0.3,0.3,0,0,1-.3-0.2l-0.2-.5V67.1Zm-0.5-20.3h-0.3V46.3h0.3v0.7Zm1.8,24.1h0.4l0.7,0.7h0.4l10.8,7.6a10.5,10.5,0,0,0,1.5.9H319l1.2,23.3v0.4s-0.2.2-.3-0.2v-0.5l-0.4-.2L300.9,92.6h-0.4l-2.3-1.2V91.2l-0.8-.4a0.7,0.7,0,0,1,.2-0.4c0.1-.1.2,0,0.2,0v0.2l1.2,0.6v-24l-0.4-.2-0.2,1.5-0.5-.4V66.5l-0.2-.2V88.4l-0.5-.3V65.8l-0.4-.2-0.2,1.1-0.9-.5V64.8l0.2-.2L299,67h0.3l0.3,24.6,1.1,0.5,0.2-.5V67.7h0.8v0.2l-0.5.3v0.4l0.2,0.3,0.3,22.7H302V83.6l0.5,1.2,0.2,6.7,4.9,2.8V93.9a24.8,24.8,0,0,1-4.9-9.6c-0.1-.4-0.5-1.8-0.5-1.9a0.5,0.5,0,0,1,.2-0.5c0.3-.2.2-1.6,0.2-2.1s0.2-2.8,1.4-3.3a4.4,4.4,0,0,1,4.2.1,15.5,15.5,0,0,1,4.9,4.8l2,3.5a1.6,1.6,0,0,0,.3.6c0.1,0,.3-0.1.2-0.4s-2.6-5.8-5-7.7-3.5-2.7-4.9-2.5-2.6.3-3.3,2.4l-0.2.8s-0.3.2-.2-0.3a6.3,6.3,0,0,1,1.2-2.7,2.9,2.9,0,0,1,2.7-.9,8.9,8.9,0,0,1,3.5,1.6,19.4,19.4,0,0,1,5.5,6.8c1.2,2.9,3,6.5,2.7,9.3s-0.4,4.2-1.3,4.9-1.9,1.6-3.4.9c0-.2,0-0.1.2-0.2s2,0,2.7-1,1.4-1.8,1.4-3a7.2,7.2,0,0,0-.6-3.8s-0.1-.2-0.2,0a21.3,21.3,0,0,0,0,2.4c0,1.1-.3,3.5-1.7,4.2s-1.7.7-2.3,0.5-0.7-.3-0.8-0.2,0.1,0.5-.1.5-3.4-2.1-3.6-2.7h-0.2l1.1,1.2c-0.1.1-6.9-4-6.9-4l-0.2.2,17.4,10.5L318.4,81l-7.6-5L302,69.7c-0.3-.2-0.3-0.6-0.1-0.5Zm0.3-.6v0.3h-0.2l-1.2-.9a0.2,0.2,0,0,1,0-.3l0.3-.3V67.9h0.2l0.9,0.8v1.6A0.4,0.4,0,0,0,305.4,70.6Zm2.8,2.1a0.4,0.4,0,0,1,0,.2l-1.6-1.2,0.6-.7V70l0.8,0.5s0,1.5,0,1.5v0.5h0.2Zm1,0.8,0.6-.6s0-1,0-1.1l0.8,0.4v2.3Zm4.1,2.6h-0.1l-1.2-.9,0.5-.6s0-1,0-1.1h0l1,0.7s-0.2,1.5-.2,1.7S313.2,76,313.3,76.1ZM312,74.3a0.4,0.4,0,0,1-.3.2l-0.4-.4a2.3,2.3,0,0,1-.1-0.5c0-.2,0-1,0-1h0.3l0.6,0.5v1.2Zm2.5,2.2-0.7-.6V74.3l0.7,0.5S314.5,76.5,314.5,76.5Zm0.4,0.1a13.2,13.2,0,0,0,.1-1.3l0.9,0.6v1.3l-0.2.6h-0.2l-1.1-.7Zm1.5,1.2h-0.1s0-1.1.1-1.3l0.7,0.4v1h-0.7Zm1.1,0.2s0-.7.1-0.8,0.2,0,.3,0l0.2,0.2v2h-0.3l-0.8-.8Zm2.4,29v2.7l-0.8-.5v-2.7Zm-2.5,1.3-0.8-.5v-2.7l0.8,0.5v2.7Zm-2.6-4.1V107l-0.9-.5v-2.8Zm-2.5-1.6v2.8l-0.9-.6V102Zm-2.7-1.6v2.8l-0.9-.6v-2.8Zm-2.7-1.5v2.8l-0.9-.6V99ZM304.3,98v2.8l-0.9-.6V97.4Zm-2.8-1.6v2.8l-0.9-.6V95.8Zm-5.8-6.8V89.2c0.2-.2.3,0.1,0.3,0.2V90h-0.3V89.6h-0.1Zm-0.1-25.7,0.3-.7h0.1v0.9Zm0.7,0.5V63.3h0.3V64l-0.3.6ZM297,65V64.7l0.2-.5V63.7l0.3,0.2v1.3Zm1.3,0.6v0.2l-0.4-.4a11.4,11.4,0,0,1,.3-1.2l0.4,0.3-0.2.7A1.6,1.6,0,0,1,298.3,65.6Zm4.2,9.7c0-.8,1.2-1.8,2.1-2.1a2.9,2.9,0,0,1,2.3.4s-0.1.2-.2,0.1h-1.6a2,2,0,0,0-1.2.4,3.6,3.6,0,0,0-1.1,1.3C302.6,75.6,302.6,75.4,302.6,75.3Zm15.6,15.9h0.2l0.4,6.6,0.2,3.9-6.3-3.8,5.8,2.7h0.1S318.1,91.3,318.1,91.2ZM318,90h0.2v0.9h-0.2V90Zm0.1-.3-0.5-8.2h0.2l0.5,8.2h-0.3ZM301.3,64.8h0.4v1h-1.2a5.2,5.2,0,0,1-.1-0.6l0.3-.4Zm-0.5-.6V60.7l0.5,0.4v0.4h-0.1v2.7h-0.3ZM299.2,44l-0.5-.3V43l0.5,0.3V44Zm-3.8,44.1-0.7-.4V65.5l0.3-.3H295Zm-0.5.4h-0.4a2.3,2.3,0,0,1,0-.4h0.2Zm-0.6-.9-0.3.5c-0.1.2-.2,0-0.2,0s0.1-22.3.1-22.4a0.3,0.3,0,0,1,.2-0.2Zm-5.5-20,0.5-.2-0.2,22.9-0.5.2Zm-0.2-3.4L289,64l0.4,0.8v0.5h-0.2Zm0.4,2.8V66.2l1-.5,0.2,0.7Zm0.5-3.2h0.2l0.3,0.8h-0.2Zm0.6-.3h0.2l0.3,0.8h-0.2Zm-0.3,3.7,0.8-.3v0.2l-0.8.2V67.1Zm0.7-1.3a1.8,1.8,0,0,1-.1-0.7l0.6-.3a1,1,0,0,1,.2.5,2.2,2.2,0,0,1,.1.8h-0.4A1.4,1.4,0,0,1,290.5,65.8Zm0.7-1.5-0.5-1.2H291l0.5,1.2h-0.3Zm0.2-1.5h0.3l0.4,1.2-0.2.2Zm0.7-.3h0.3l0.4,1.4h-0.2Zm0.7-.4h0.3l0.3,1.4h-0.2Zm-5.9,3.6V65.6l0.5-.6h0.6l0.6,0.5v1.1h-1.2l-0.4.2h-0.1V66.3l0.2-.3C287,65.9,287,65.9,286.9,65.8Zm0.4-1.1V60.1h0.5v4.6h-0.5Zm0.7,0.1V64.5h0.2v0.2H288Zm0.1-2.1V60.1h0.6v2.5h-0.6Zm1-.9h0.6V62l-0.5.3V61.8h0Zm-0.6-7.6,0.7-1.9,0.7-.4-0.7,2Zm1.9,7.6,0.3-6.8h0.4l0.2,0.3h0.2l-0.2,6Zm0.5-8.8-0.9.4,0.7-1.9,0.9-.4Zm-1.8-1.3-1.2.6,2.8-7.8,1.1-.6Zm1.2-9.7H290V41.7h0.3V42Zm0-1.1-0.4.2V40.4l0.4-.2v0.8Zm-2.8,12.2,0.9-.5-0.7,1.9-1,.5Zm0.6,5.5h-0.3V58.2H288v0.3Zm-1.1.7a0.9,0.9,0,0,1,.8-0.4l1.1,0.3c0.1,0.1.2,0.6-.1,0.6l-0.8-.2h-0.5C287.3,59.7,286.8,59.7,287,59.3Zm-0.6,6a2.5,2.5,0,0,0-.1.5l-1,.6-0.7-1,2-1,0.3,0.4ZM286.1,67h-0.1l-0.2.4h-0.5V67.2a0.6,0.6,0,0,1,.1-0.4l0.6-.2V67Zm-1.2.8-0.2.2V67.5H285A0.8,0.8,0,0,1,285,67.8Zm-0.1-1.2a0.8,0.8,0,0,1-.1.3h-0.2a1.4,1.4,0,0,1-.1-0.6h0Zm2,28.5,0.6-.4s0.1,1.2.1,1.6a6,6,0,0,1-.2,1.2,1,1,0,0,0,0,.7l0.3,0.5v0.3l-0.6.2a5.1,5.1,0,0,1-.6-1,1,1,0,0,1,.4-0.9,1.8,1.8,0,0,0,.2-0.9A7.1,7.1,0,0,0,286.8,95.1Zm-18.3-3.7a7.6,7.6,0,0,0,1.1,3,3.6,3.6,0,0,0,2.4,1.4,0.8,0.8,0,0,0,1-.1,0.5,0.5,0,0,0-.1-0.6,0.4,0.4,0,0,0-.3.1c-2.1-.1-2.7-2.1-3-4a19.7,19.7,0,0,1,.8-6.4,26.9,26.9,0,0,1,1.9-4.2,17.1,17.1,0,0,1,5.7-5.3,7.6,7.6,0,0,1,3.6-.6c2.1,0.1,3.2,1.9,3.4,2.2s0.3,0,.3,0a3.6,3.6,0,0,0-.4-1.6c-0.5-1.1-2.2-1.9-2.7-2.1a5.2,5.2,0,0,0-2.1,0c-0.2.1-.3,0-0.2-0.2s3.5-.3,4.5.7,1.3,1.6,1.3,5-0.7,4.6-3,9.1-7.2,7.8-9.3,8.4a3.4,3.4,0,0,1-4.2-1.9h0c-1.2-1.8-1-7.6-.7-8.7s4-6.9,4.6-7.4a45.2,45.2,0,0,0-3.3,6.6A25.4,25.4,0,0,0,268.5,91.4Zm5-14.2,0.4-.3c0.1,0,0,.1,0,0.1l-0.2.3C273.5,77.4,273.4,77.2,273.5,77.2ZM278.7,94c0.1,0.1.2,0.1,0,.2l-2,1.1h-0.5l1.9-1.6a36.3,36.3,0,0,0,4.1-4.8l1.7-3.2h0.2c0,0.9-2.8,5.6-5.4,7.9C278.7,93.8,278.6,93.9,278.7,94Zm-4.3,2.2a1,1,0,0,1-.8.3h0Zm9.6,3.5,0.3,0.6-0.4.4a2.1,2.1,0,0,1-.5-0.7,1,1,0,0,1-.1-0.6l0.2-.3,0.6-1.2c0.1-.3-0.1-0.9,0-1.1a0.6,0.6,0,0,1,.5-0.4,1.1,1.1,0,0,1,.1.7,5.7,5.7,0,0,1-.1,1.4,3.5,3.5,0,0,1-.3.9A0.5,0.5,0,0,0,284,99.7Zm0.5-.2a0.5,0.5,0,0,1,.2-0.5c0.2-.1,0,0.2.1,0.6s0.2,0.3.3,0.4,0.2-.1,0,0a0.5,0.5,0,0,1-.6,0A0.5,0.5,0,0,1,284.5,99.4Zm0.4,1.3a0.2,0.2,0,0,1,.2-0.1l0.2,0.2,0.2-.2,0.2,0.2h-0.1v0.6l-0.2.3H285a0.3,0.3,0,0,1-.2-0.2S284.9,100.9,284.9,100.8Zm-2,2.5-0.4.2h-0.1v-0.2l0.2-.5,0.4,0.2A0.7,0.7,0,0,1,282.9,103.3Zm-1.1.5-0.5.3c-0.1,0-.1-0.2-0.1-0.3a0.8,0.8,0,0,1,.1-0.4l0.3-.3a4.4,4.4,0,0,0,0-.4v-0.2c-0.1-.1.1-0.4,0.3-0.4h0.2v1l-0.2.6h0Zm-1-2.6,0.4,0.5-0.4.4a1.2,1.2,0,0,1-.6-0.6,1,1,0,0,1-.1-0.7l0.2-.3,0.5-1.4c0.1-.3,0-0.7.1-0.9a0.3,0.3,0,0,1,.4-0.3,0.7,0.7,0,0,1,.1.6,5.9,5.9,0,0,1-.1,1.4,3.3,3.3,0,0,1-.4.8A0.4,0.4,0,0,0,280.9,101.3Zm1,0.5a0.6,0.6,0,0,1-.5-0.6,6.6,6.6,0,0,1,.2-1.3c0.1-.2.2-0.3,0.2-0.2a9.4,9.4,0,0,0,.2,1.1h0a2.9,2.9,0,0,1,.4.4A0.5,0.5,0,0,1,281.8,101.8Zm-2.9,2.5a3.2,3.2,0,0,0-.1.5,1.4,1.4,0,0,1-.2.6l-0.5.2c-0.1,0-.2-0.3-0.2-0.5a9.5,9.5,0,0,1,.1-1.2,0.6,0.6,0,0,1,.2-0.4,0.7,0.7,0,0,1,.6.1,0.9,0.9,0,0,1,0,.6h0Zm-1.5-1.5,0.3,0.6-0.4.4a1.2,1.2,0,0,1-.4-0.7,1,1,0,0,1,0-.7v-0.3c0.1-.2.4-1.1,0.5-1.4s0-.7.1-0.9a0.4,0.4,0,0,1,.4-0.3,0.7,0.7,0,0,1,.2.6,5.9,5.9,0,0,1-.1,1.4,3.3,3.3,0,0,1-.4.8A0.6,0.6,0,0,0,277.4,102.8Zm-1.1,1.2v-0.2c0.1-.1.1,0,0.1,0v1a0.7,0.7,0,0,1-.1-0.3v-0.3A0.7,0.7,0,0,0,276.3,104Zm0.2,1.6h0.2a1.8,1.8,0,0,1,0,.5h-0.2A4.6,4.6,0,0,1,276.5,105.6Zm-2-1.9a0.6,0.6,0,0,0-.1.4l0.2,0.5-0.4.3a1.1,1.1,0,0,1-.4-0.6,0.9,0.9,0,0,1,0-.6v-0.3l0.5-1.2c0.1-.3,0-0.6.1-0.8a0.3,0.3,0,0,1,.4-0.3,0.7,0.7,0,0,1,.1.6,5.5,5.5,0,0,1-.1,1.2A3.3,3.3,0,0,1,274.5,103.7Zm0.1,4.3-0.9.5a0.1,0.1,0,0,1-.2-0.1l0.9-.5h0.2S274.7,108,274.6,108Zm0.3-.3h0Zm0-3.5a1.1,1.1,0,0,1,.2-0.7l0.2-.3v-0.5h0.1a6.7,6.7,0,0,1,0,1,0.9,0.9,0,0,0-.1.4,0.5,0.5,0,0,0,.2.3,0.3,0.3,0,0,1-.4.2A0.6,0.6,0,0,1,274.9,104.3Zm0.5,2.1a1.1,1.1,0,0,0,.1-0.6,1.4,1.4,0,0,1,.1-0.8,0.5,0.5,0,0,1,.5.1,7.6,7.6,0,0,1,0,.8,8.5,8.5,0,0,1-.3.9,0.5,0.5,0,0,1-.5,0C275.1,106.8,275.3,106.5,275.4,106.3Zm-0.1,1.3,0.2-.2,10.9-5.2h0.2l-1,.6-10.2,4.9C275.2,107.8,275.3,107.6,275.3,107.6Zm11.1-6.2a0.3,0.3,0,0,1,.1-0.2h0.2l0.5-.3a1.8,1.8,0,0,1,.2-0.5h0.2l0.2,0.2,0.2-.2c0-.1.2-1.4,0.2-1.4h0.1v1.7l-0.7.4-1,.5h-0.2Zm6.1-12.9v0.3L289.7,90V67.9l3.4-1.3V88.2Zm-0.3-22.7h-0.5a8.3,8.3,0,0,1-.1-0.9h0.2l1.8-.8,0.2,1.1Zm5.3,35.1h-0.3s-0.1-7-.1-7.1h0.1Zm-1.3-8.5c0-.4.1-0.3,0.3-0.3a0.2,0.2,0,0,1,.2.3l0.2,8.1-0.7-.4S296.2,92.7,296.2,92.3Zm-0.8-.5a0.2,0.2,0,0,1,.3-0.2,1.5,1.5,0,0,1,.1.6v7.4l-0.4-.2S295.4,92.2,295.4,91.9Zm-0.3,8.1,0.6,0.2,26.3,15.7c0.1,0.2-.2,0-0.2,0l-26.6-15.8C294.9,100,295,99.9,295.1,99.9Zm26.1,8.3h-0.3v-0.4h0.3v0.4Zm0,0.5v6.1h-0.3v-6.1h0.3Zm-1-26.4,0.9,22.3,0.5,0.3v0.2l-1-.5-1-22.8ZM319.7,79l-0.7.4h-0.2V77.9h0.8V79Zm-1.5-3.7,0.2,0.2h-0.2V75.3h0.1Zm-1.6-4.1c0-.1.2,0.1,0.2,0.1v2.9l-0.2-.2S316.5,71.3,316.6,71.2Zm-1.2-.8a0.5,0.5,0,0,1,.6,0,0.6,0.6,0,0,1,.3.5,5.4,5.4,0,0,1,.1.9h0s0.1,1.2.1,1.4-0.2.1-.4,0.1-0.2-.2-0.2-0.3-0.2-1.7-.2-1.9,0-.1-0.3-0.2A0.6,0.6,0,0,1,315.3,70.4Zm-1.5-1.2a0.7,0.7,0,0,1,.5.2,0.6,0.6,0,0,1,.2.5,8.1,8.1,0,0,1,.2,1.7,0.3,0.3,0,0,1-.3.2,0.4,0.4,0,0,1-.4-0.3c0-.1-0.1-0.4-0.2-0.8a2.9,2.9,0,0,0-.2-0.8l-0.2-.3A0.4,0.4,0,0,1,313.8,69.2Zm0.1,3.9,0.2-.5h0.6v1l0.8,1h0.6l2.7,2h0.3V76.6h0.2V77l-0.2.3h-0.2l-1.4-.8-0.2-.3h-0.2l-4-2.8Zm-2.4-5.8a0.5,0.5,0,0,1,.5,0,0.8,0.8,0,0,1,.3.7c0,0.4.3,2,.3,2s-0.1.5-.4,0.3a1.1,1.1,0,0,1-.5-0.6c0-.1,0-1.8,0-1.8l-0.3-.2C311.4,67.5,311.4,67.3,311.6,67.3Zm-0.2,4.2V71.2l0.2-.3,0.6,0.4V72h0.3a4.7,4.7,0,0,0,.2.7h-0.1L311,71.8Zm-2.5-6.2a0.5,0.5,0,0,1,.5,0,0.8,0.8,0,0,1,.3.7c0,0.4.3,2,.3,2s-0.1.5-.4,0.3a1.1,1.1,0,0,1-.5-0.6c0-.1,0-1.8,0-1.8l-0.3-.2C308.8,65.5,308.7,65.3,308.9,65.3Zm0.2,4.7V69.6l0.2-.2h0.2l0.3,0.4v0.4l0.4,0.3,0.2,0.5,0.4,0.5h-0.2l-1.8-1.3Zm-0.5.8,0.8,0.5v1.2l-0.2.4-0.7-.6V70.8Zm-2-7.2a0.6,0.6,0,0,1,.5,0,0.8,0.8,0,0,1,.3.7c0,0.4.2,1.9,0.2,1.9s-0.3.4-.5,0.2l-0.3-.3c0-.1,0-1.8,0-1.8l-0.3-.2C306.5,63.9,306.4,63.7,306.6,63.7Zm-0.2,4.4h0.4c0.2,0-.1-0.1.1-0.3l0.4-.2c0.2,0,.1.3,0.2,0.4a0.7,0.7,0,0,1-.2.4,0.4,0.4,0,0,0,.3.2,1.5,1.5,0,0,1,.3.5l0.4,0.7h-0.2l-1.2-.9a4.8,4.8,0,0,1-.8-0.7A0.3,0.3,0,0,1,306.4,68.1Zm-0.5.9h0l0.9,0.7v1.2l-0.2.3h-0.5l-0.4-.5V68.9Zm-0.2-1.1h-0.3l-1.4-1h0.1s0-.4,0-0.5a0.3,0.3,0,0,1,.2-0.3h0.5a1,1,0,0,1,.2.5c0,0.1.1,0.2-.1,0.2h-0.2l0.3,0.2Zm-0.5-19.4-0.5-.4V46.9l0.5,0.4v1.1Zm-0.5-4.2,0.5,0.4v0.7l-0.5-.4V44.2Zm0,1.2,0.5,0.4v0.7l-0.5-.4V45.4Zm-0.2,16.4a0.8,0.8,0,0,1,.3.7c0,0.4.1,1.9,0.1,1.9s-0.2.5-.3,0.3l-0.3-.5c0-.1,0-1.8,0-1.8l-0.3-.2c-0.1-.1-0.1-0.3.1-0.4A0.6,0.6,0,0,1,304.4,61.8Zm-0.5-14.4h-0.2v-1h0.2v1Zm-0.1-3.7h-0.1V43.4h0.1v0.3Zm0-1.2h-0.1V40.4h0.1v2.2Zm-0.9-2.7,0.2-.3h0.3v0.3h-0.1v3.2l-0.3-.2V39.8ZM303.3,66v0.2H303l-0.6-.3a0.3,0.3,0,0,1-.1-0.4c0.1-.1.2-0.1,0.4,0A2.1,2.1,0,0,1,303.3,66Zm-0.6-19.4-0.5-.3V45.7l0.5,0.3v0.7Zm-0.2-7.2h0.2v0.2h-0.2V39.4Zm-0.1.7v1.5l-0.5-.2V40Zm-1.5-2.5H301v0.5l0.6,0.2h0.1l0.2,0.2v0.5h-0.4v0.4h0.1v2.8l-0.3-.2V38.7l-0.2-.2-0.2-.2S300.8,37.7,300.8,37.6Zm-0.1,2.2-0.5-.2V38.8l0.5,0.2v0.8Zm-1.6-3.6h0.1V37l0.6,0.2h0.1l0.2,0.2v0.5h-0.4v0.4h0.1v3l-0.3-.2V37.4l-0.2-.2-0.2-.2S299.2,36.3,299.2,36.3ZM299,38.4l-0.5-.2V37.3l0.5,0.2v0.8Zm-1.5-3.2h0.1v0.5l0.6,0.2h0.1l0.2,0.2v0.5h-0.4v0.4h0.1v3l-0.3-.2V36.2l-0.2-.2-0.2-.2V35.1Zm-0.2,1.3v1h-0.1V36.9l-0.4-.3V36.1l0.5,0.2h0Zm-1.9-3.1h0.1v0.8l0.9,0.5h0.1V34.5h0.2v0.9l-0.5-.2v0.4h0.1v3.2l-0.3-.2V34.9l-0.2-.2-0.4-.4S295.4,33.3,295.4,33.3Zm-0.3,1.6,0.4,0.3v0.6l-0.4-.3V34.8ZM295,40.1l0.9,0.6v0.8l-0.9-.8V40.1Zm0.3,14.4v5.3l-0.5-.3V54.3Zm-0.5-1.1a1.2,1.2,0,0,1-.6,0h-0.4a0.7,0.7,0,0,1,.7-0.4A0.3,0.3,0,0,1,294.9,53.4Zm-0.3-20.2h0.1v1.6h-0.1V33.2ZM294,39.8h0.6v0.7h-0.2L294,40V39.8Zm0,3.5v1.2l-1.9,5.6-0.8.4,2.6-7.3H294Zm-0.2-15.4-0.8.7a0.6,0.6,0,0,1,0-.2,13.5,13.5,0,0,1,.5-3Zm-0.7-6.6,0.2,2.1-1,5.6-0.9.6a0.5,0.5,0,0,1,0-.2l0.5-2.2a0.7,0.7,0,0,0,.3-0.7V26.3ZM290,34.5s0-.8,0-0.9l0.2-.2a0.1,0.1,0,0,1,.2.1v1.3H290V34.5H290Zm-0.5-3.6h0l0.8-3.4a1,1,0,0,0,.9.2l-0.5,2.6Zm-0.2,3.8V33.8h0.2v1.8h-0.2V34.7h-0.1ZM288,31.8l-0.4.2a3.1,3.1,0,0,1,.1-0.8l0.7-2a0.9,0.9,0,0,0,.8-0.9,0.7,0.7,0,0,0-.4-0.5l0.8-2.5c0.3-1,1.5-5.5,1.6-6.2l0.4-.2L291,22.2a0.6,0.6,0,0,0-.3.5,0.6,0.6,0,0,0,.1.3c-0.7,3.1-1.6,7-2.1,8.4Zm0.3,4.7h-0.1l-0.2-.3V35.7h-0.1s0-1,0-1.1a0.2,0.2,0,0,1,.2-0.2,0.1,0.1,0,0,1,.2.1v2Zm-1.6-4-0.8.5,1.4-3.9V29l0.5,0.3Zm0.8,4-0.2.2V36h-0.1V35h0.2v1.8ZM291,26h-0.4l0.7-2.9H292L291.5,26H291Zm1.9-7-0.6,3.3-0.6-.2,1.1-4.6V19Zm-0.5-7.8V11.1h0.2s0,0.6,0,2h-0.4ZM292.1,14h0.5v0.3h0s-0.6,3.7-.7,4.4l-0.4-.3,0.6-4.2h0Zm-0.3-1.6V13h-0.2Zm-0.5,1.4h0.3v0.8l-0.5,3.4-0.6.2ZM289.4,22h0V21.9c0.1-.1.3-1.4,0.7-2.9l0.6,0.3v0.6c-0.1.4-2,7.4-2.1,7.9h-0.8l0.8-2.8a0.9,0.9,0,0,0,.8-0.7,0.6,0.6,0,0,0-.5-0.4Zm-0.8.3h0L288.2,24H288Zm-2.5,6.6,1.4-3.7h0.3l-1,3.7-0.2.5a0.8,0.8,0,0,0-.7-0.5h0.1ZM286,30.4l0.5-.2c-0.5,1.3-1.3,2.9-1.6,3.5l-0.7.4c-0.2,0-.1-0.1,0-0.4l1.4-3.2H286Zm-0.1,7.5h-0.1l-0.2-.3V37.1h-0.1s0-1,0-1.1a0.2,0.2,0,0,1,.2-0.2,0.1,0.1,0,0,1,.2.1v2Zm-0.8.1-0.2.2V37.4h-0.1v-1h0.2a1,1,0,0,1,.1.3V38Zm-0.4-7.6,0.2-.3H285a42.5,42.5,0,0,1-2,4.5l-0.7.4Zm-1.3,8.6h-0.3a9.7,9.7,0,0,1,0-1.4c0.1-.1.2,0,0.2,0v1.4Zm-0.7-1v1.3h-0.3a9.8,9.8,0,0,1,0-1.6C282.6,37.7,282.7,37.9,282.7,37.9Zm0.1,2.1,0.5-.7,0.5,0.4h0.3l0.9-1.1,1.2,0.2,1.3-1.5h1l0.8-1.2h0.9s0,0.1,0,.1l0.3-.2,0.8-.6s-0.1-2.6,0-2.7h0.2l0.2,0.2v3.8l-0.5-.5h-0.6l-0.5.6v2.9l-0.4.2V36.9H289l-0.5.7v2.9l-0.5.2V38.7l-0.6-.5h-0.3l-0.8.9,0.2,2.5-0.3.2V39.7l-0.5-.5h-0.4l-0.5.9v2.4l-0.5.3s0-2.2,0-2.2l-0.6-.4h-0.2l-0.8.7v2.8l-0.5.2V40h0.8Zm-0.8,5.4V44.5l0.5-.2v0.9Zm0.4,0.2v0.7l-0.4.2V45.7Zm0.1,3.2-4.9,8.8-1,.5,5.1-8.9Zm-1.1-2-0.4.2V46.2l0.4-.2v0.7Zm-0.2-6.2h0.2v3.8l-0.4.2V40.5ZM281.1,45l0.5-.2v0.9l-0.5.2V45Zm-0.2-6.6v2.1l-1,.8V38.1Zm-0.7,7.9V45.4l0.5-.2v0.9Zm0.4,0.2v0.7l-0.4.2V46.7ZM280,45V42.3l0.9-.7v2.9Zm-1.5,1.2,0.5-.2v0.9l-0.5.2V46.1Zm0,2V47.4l0.6-.2v0.7Zm2,1.7,0.7-.3-5.5,9.1L275,59h0Zm-5.3,7.4v0.1l-1.8,2.4-0.8.4Zm-3.5,4,1.1-.5-2,2.7-1.7.9Zm-1,5.5a1.3,1.3,0,0,1,.7-0.2,5,5,0,0,1,0,1.2A1.9,1.9,0,0,1,271,69c-0.3.1-.5,0.3-0.5,0a8.6,8.6,0,0,1,.3-0.9A9.2,9.2,0,0,0,270.8,66.7ZM269,62.9v0.3l-0.5.5V63.2ZM268,68h0.2v0.7l-0.2-.2V68Zm-1.2-4,0.9-.5a0.3,0.3,0,0,1,.2.2v0.7l-1.1.9V64Zm-1.4,3.4h0.4l0.5,0.5h0.9v0.8l-0.6.5h-0.7v2.3l-0.9.7v-2L265,70l-0.4-1.9Zm-1.3,1.8h0.2s0,0.6,0,.7H264V69.2ZM264,75.8a1.4,1.4,0,0,0-.1-0.5l-0.2-.5s0.2-4,.3-4.1h0.2s-0.1,2.3,0,2.7,0.3,0.2.3,0.2l1.7-1.6h0.3l0.3-.7h-0.3l0.2-1.3,1-.6v0.3l-0.3.3c-0.8.1-.3,1,0.1,1.7s0.6,0.4,1.2.1a2.6,2.6,0,0,0,1.1-1.6h0.3c0.1,0.5.2,0.7,0.5,0.8a1.7,1.7,0,0,0,1.1-.6,6.8,6.8,0,0,0,1-1V68.7h0.4a2.9,2.9,0,0,0,0,.6c0,0.4.3,0.3,0.4,0.2l1.1-.5a4.3,4.3,0,0,0,1-1.6V66.9h0.5c0.1,0,0,.1,0,0.3a0.6,0.6,0,0,0,.2.6c0.2,0.3.8,0,1.5-.4a3.3,3.3,0,0,0,1-1.6h0.3c0.3,0.6.8,0.3,1.5,0a2.9,2.9,0,0,0,1-1.6h0.5c0.5,0.7,1,.3,1.6.1a2.9,2.9,0,0,0,1.1-1.5c0-.1,0-0.1.1,0a0.5,0.5,0,0,0,.5.2,4.5,4.5,0,0,0,1.4-.5v0.8L267.3,73l0.5,0.5,0.7-.4h0.3v0.4l-0.3.6-1.1.6v0.3l0.9-.4a0.4,0.4,0,0,1,.2.2l-0.2,1.2-1.5.8-0.6-.3V76.5h0.7l0.3-.3V75.3H267v0.6l-1.1.6a0.7,0.7,0,0,0-.3.7c0,0.2.5,0.1,0.5,0.1v0.2h-0.6v0.4l-1.7.7V77l0.7-.3V76.5h-0.2l-0.6.2c-0.1,0-.2-0.2-0.2-0.3Zm1.5,2.6v0.2l-2.1.8V79.2Zm-4.3,2v-1l1.2,0.2-0.2.3V81h0.3a2.3,2.3,0,0,0,0-.7l0.9-.5H264l0.3-.3,1.4-.5a5.5,5.5,0,0,1,0,.9l-2.8,1-0.2.7-0.5-.2Zm-0.8,24.6v-0.3l0.9-.9a0.8,0.8,0,0,0,.2-0.3l0.9-20.1h0.1s-0.6,20-.6,20.2a0.2,0.2,0,0,0,.3.2l0.8-.4,0.8-.3v0.2l0.4,0.4-2.3.9h-0.5l-0.5.5h-0.3Zm0.3,0.6,3.3-1.2,0.4,0.5s-0.1.8-.1,1h-0.3c-0.2,0-.2-0.3-0.2-0.3h-0.4a6.9,6.9,0,0,0-1.6.5,0.4,0.4,0,0,0-.2.6c0.1,0.3,0,.2,0,0.2s-0.2,5.6-.2,6,0.4,0.2.4,0.2l1.8-.9,0.3-.3a0.3,0.3,0,0,1,.3.1l0.2-.2,0.2-3.2,0.3,0.3a0.4,0.4,0,0,0,.4.1s-0.2,1.1-.2,1.3a0.7,0.7,0,0,0,.1.3h0.3a2.9,2.9,0,0,0,.2-0.8v-1.4h-0.4l-0.2-.2,0.3-.8a0.4,0.4,0,0,1,.4,0l0.4,0.9v1.7h0.3a0.5,0.5,0,0,1-.1.5l-0.7.3h-0.6a0.6,0.6,0,0,0-.3.5,1.7,1.7,0,0,0,.2.5,1.9,1.9,0,0,1-.8.5l-2.9,1.4c-0.5.2-.4-0.3-0.4-0.3l0.3-7.4Zm3.4,3.1v2.7h-0.2v-2.7h0.1Zm-0.5-2.3-0.2,5.5-1.2.7v-5.8Zm29.7-5.4-27,12.6v0.3l-4.4,2-0.2-.2v-0.3H261V115l32.3-15.3v1.2Zm0.2-2.7h-0.4V91.9l0.2-.5h0.2v6.7Zm28.6,19.1-27.9-16.2-0.5-.3V99.9l28.8,17.1Z"/><path class="cls-1" d="M346.3,104c0,6.7.3,8.7,1.7,9.5s3,0.7,5.2.7,5.8-.5,7.4-2.8,2.2-4.7,3.3-9l2.5,0.6c-0.4,3.6-1.8,12.9-2.4,15.3H331.2v-2.9c5.6-.5,6.2-1.2,6.2-11V73c0-9.8-.5-10.5-5.8-11V59.1h20.6V62c-5.4.5-5.9,1.2-5.9,11v31"/><path class="cls-1" d="M372.8,89.2c0-5.6-.1-5.7-4.5-6.3V80.4a127.4,127.4,0,0,0,12.9-3.3v32.1c0,5.2.3,5.7,4.7,6.2v2.9H368v-2.9c4.4-.5,4.7-1,4.7-6.2V89.2m8.6-26.4c0,3.6-2.2,6.6-5,6.6s-5-2.9-5-6.6,2.3-6.7,5-6.7S381.4,59.1,381.4,62.8Z"/><path class="cls-1" d="M400.9,82.9v26.5c0,4.9.3,5.4,5.9,6v2.9H388.3v-2.9c3.9-.6,4.3-1.1,4.3-6V82.9H388l-0.5-1.2,2.2-3.5h2.8V76.3a30.8,30.8,0,0,1,.8-7,23.8,23.8,0,0,1,5.1-10.7c2.7-3.1,5.1-4.5,8-5a8,8,0,0,1,6.4,3.4,3.6,3.6,0,0,1,.4,3.6,11.4,11.4,0,0,1-1.7,2.9c-0.8.9-1.4,0.7-2.1,0s-4.5-4-6.4-4-2,.9-2.3,2.5-0.3,4.9,0,13.3v3h7.8c0.3,1,.1,3.9-1,4.7h-6.8"/><path class="cls-1" d="M436.4,109.6c-3.9,7.9-9.3,9.8-11.7,9.8-9.3,0-14.6-9.1-14.6-19.3,0-13.1,7.4-23,15.8-23,6,0,10.7,6.7,10.7,13.8,0,3.5-.2,3.6-1.6,4S425,96,418.2,96.3c0,10.2,4.7,15,9.9,15,2.5,0,4.7-1.1,7.4-3.6l1,1.8m-9-17.6c1,0,1.3-.4,1.3-2.2,0-3.7-2.2-8.6-4.8-8.6s-5.1,4.7-5.5,11Z"/><path class="cls-1" d="M2.6,100.4c1.1,5,5,14.7,11.6,14.7,4.4,0,6.9-4.4,6.9-9.6s-2.5-9.1-7.6-12.1l-1.3-.8C6.6,89.1,1.8,83.9,1.8,75.3S7.4,57.6,16.7,57.6a15.1,15.1,0,0,1,6.2,1.3L25.7,60c0.3,3.3.7,7.3,1.4,12.8l-2.4.6c-1.3-5.3-3.4-11.8-9.1-11.8-4.1,0-6.5,4-6.5,9s2.5,7.9,7.3,10.7l2.1,1.3C24,85.7,29,90.5,29,100.3s-6.2,18.8-15.9,18.8a17.2,17.2,0,0,1-6.8-1.4,30.2,30.2,0,0,1-4-2.1c-0.5-2.4-1.3-8.6-2.1-14l2.4-1.2"/><path class="cls-1" d="M44.7,104.4c0,7,2.5,8.2,3.8,8.2a5.7,5.7,0,0,0,3.5-1.4l0.9,2.7-5.8,3.9a5.3,5.3,0,0,1-2.5,1c-5.2,0-8-3.1-8-11.1V82.5H32.2l-0.5-1.2,2.1-3.4h2.6V72.4l7-7.1,1.1,0.8V77.9h6.6c0.9,1,.7,3.9-0.5,4.6H44.7v21.9"/><path class="cls-1" d="M79.1,106.7c0,3.8.9,5.2,1.8,5.2a5.8,5.8,0,0,0,2.6-.9l0.7,2.6-7.2,5.2c-3.8,0-5.2-3.3-5.7-5.9-2.8,2.4-6.3,5.9-7.5,5.9-5.2,0-8.5-6-8.5-11.1s1.5-7.6,5.2-9.6,8.6-4.5,10.7-6.4V88.4c0-4.7-1.8-6.8-4.4-6.8a3.2,3.2,0,0,0-2.2,1.3c-1.1,1.4-1.9,3.9-2.4,7.4a2.3,2.3,0,0,1-2.5,2.1c-1.3,0-4-1.8-4-4.3a7.2,7.2,0,0,1,2.3-4.8,24.4,24.4,0,0,1,11.6-6.5,8.8,8.8,0,0,1,6.4,2.4c2.5,2.3,2.9,5.5,2.9,8.9v18.5M71.2,95.4c-1.3.9-3.2,2.4-4.5,3.4s-3,3.4-3,6.7S66,112,67.5,112s2.2-.8,3.7-2.4V95.4Z"/><path class="cls-1" d="M120.9,117.7H105.1v-2.9c3.4-.5,3.6-0.9,3.6-6.1V91.1c0-5.3-2-7.4-4.6-7.4s-3.8,1.2-5.7,3.3v21.7c0,5.2.3,5.5,3.2,6.1v2.9H85.4v-2.9c4.5-.5,4.8-0.9,4.8-6.1V88.6c0-5.4-.1-5.5-4.3-6.2V80a113.3,113.3,0,0,0,12.5-3.2v6.4l3.8-3.4c2.3-2,3.8-3,6.1-3,5.4,0,8.6,5.2,8.6,12.1v19.8c0,5.2.3,5.5,4,6.1v2.9"/><path class="cls-1" d="M153.5,108c0,4,.4,4.6,2.2,4.6h2.6v2.8a72.4,72.4,0,0,0-13,3.7v-5.2l-4.2,3.3c-1.7,1.4-2.6,1.6-3.4,1.6-5.7,0-13.6-6.4-13.6-19.7s7.7-22.3,18.2-22.3l3,0.4V65.1c0-5.3-.1-5.4-4.6-5.8V56.7c3.1-.6,8.5-1.9,12.8-3.2V108m-8.2-22.4c-1.1-3.4-3.2-4.7-5.2-4.7s-6.8,1.5-6.8,15.8c0,11.1,4.8,15.6,7.6,15.6a6.3,6.3,0,0,0,4.3-2.1V85.5Z"/><path class="cls-1" d="M184.4,106.7c0,3.8.9,5.2,1.8,5.2a5.8,5.8,0,0,0,2.6-.9l0.7,2.6-7.2,5.2c-3.8,0-5.2-3.3-5.7-5.9-2.8,2.4-6.3,5.9-7.5,5.9-5.2,0-8.5-6-8.5-11.1s1.5-7.6,5.2-9.6,8.6-4.5,10.7-6.4V88.4c0-4.7-1.8-6.8-4.4-6.8a3.2,3.2,0,0,0-2.2,1.3c-1.1,1.4-1.9,3.9-2.4,7.4a2.3,2.3,0,0,1-2.5,2.1c-1.3,0-4-1.8-4-4.3a7.2,7.2,0,0,1,2.3-4.8A24.3,24.3,0,0,1,175,76.8a8.8,8.8,0,0,1,6.4,2.4c2.5,2.3,2.9,5.5,2.9,8.9v18.5m-7.9-11.3c-1.3.9-3.2,2.4-4.5,3.4s-3,3.4-3,6.7,2.3,6.5,3.8,6.5,2.2-.8,3.7-2.4V95.4Z"/><path class="cls-1" d="M203.8,108.8c0,5.1.3,5.5,5.5,6.1v2.9H191.1v-2.9c4.2-.5,4.6-1,4.6-6.1v-20c0-5.5-.1-5.6-4.4-6.2V80.1c3.9-.7,8.2-2,12.6-3.3v9H204a41,41,0,0,1,3.2-5.8c1.3-1.8,2.8-3.2,4.4-3.2s4.5,2.5,4.5,5.5-1.5,5.6-3.2,6.4a1.6,1.6,0,0,1-2.1-.4,4.8,4.8,0,0,0-3.4-1.9c-1.1,0-2.5.6-3.6,4.4v17.8"/><path class="cls-1" d="M247.2,108c0,4,.4,4.6,2.2,4.6H252v2.8c-1.5.4-7.8,1.4-13,3.7v-5.2l-4.2,3.3c-1.7,1.4-2.6,1.6-3.4,1.6-5.7,0-13.6-6.4-13.6-19.7s7.7-22.3,18.2-22.3l2.9,0.4V65.1c0-5.3-.1-5.4-4.6-5.8V56.7c3.1-.6,8.5-1.9,12.8-3.2V108M239,85.5c-1.1-3.4-3.2-4.7-5.2-4.7s-6.8,1.5-6.8,15.8c0,11.1,4.8,15.6,7.6,15.6a6.2,6.2,0,0,0,4.3-2.1V85.5Z"/><path class="cls-1" d="M142.9,135.3c1.1-.3,1.3-0.4,1.4-0.6a1,1,0,0,0,.1-0.4c0-1.6-.8-2.2-1.9-2.2a2,2,0,0,0-2.1,1.5h-0.6a6.7,6.7,0,0,0,.1-1,5,5,0,0,0,0-.6,4.9,4.9,0,0,1,3-1.1c2.1,0,3.5,1,3.5,3.1s-0.1,2.8-.1,3.5,0,2.5.7,2.5l0.5-.2a0.9,0.9,0,0,0,0,.7,4.6,4.6,0,0,1-1.6.4,1.5,1.5,0,0,1-1.6-1.2,3.2,3.2,0,0,1-2.6,1.4,2.4,2.4,0,0,1-2.6-2.5c0-2.3,1.3-2.7,3.1-3.2l0.6-.2m1.4,0.5c-2.2.6-3,.8-3,2.3s0.5,1.8,1.3,1.8a1.8,1.8,0,0,0,1.7-2v-2.1Z"/><path class="cls-1" d="M157.5,138.3a19.9,19.9,0,0,0,.1,2.5h-2.5a33.7,33.7,0,0,0,.2-3.9,23.4,23.4,0,0,0-.1-3.3,1.7,1.7,0,0,0-1.8-1.4,2,2,0,0,0-1.7,1.2,9.1,9.1,0,0,0-.3,2.7c0,1.9,0,3.2.1,4.6h-2.4c0.2-2.7.2-3,.2-5.5a35.1,35.1,0,0,0-.2-4.4h2.3a8.1,8.1,0,0,0-.1,1.7,3.3,3.3,0,0,1,3-1.8c2.1,0,3.2,1.3,3.2,3.5,0,0.6-.1,3-0.1,4"/><path class="cls-1" d="M166.8,139.4a3.5,3.5,0,0,1-2.9,1.7c-2.5,0-4.2-2.2-4.2-5s1.9-5.2,4.3-5.2a3.4,3.4,0,0,1,2.7,1.3,64.2,64.2,0,0,0-.2-6.6H169c-0.1,2.4-.2,4.9-0.2,7.4,0,0.3,0,6.6.2,7.9h-2.2v-1.4m-0.1-3.5c0-2-.5-3.9-2.3-3.9s-2.3,2.2-2.3,3.7,0.3,4.2,2.3,4.2S166.8,138.6,166.8,135.9Z"/><path class="cls-1" d="M183.3,138.6l-0.8-2.2h-4.7c-0.6,1.6-1.2,3.3-1.5,4.5h-1.8l2.2-5.3c1.9-4.6,3-7.3,3.5-9h1.2c0.9,2.8,2.1,5.7,2.8,7.4l2.8,6.9h-2.9l-0.8-2.3m-3.1-8.5-1.9,5.1H182Z"/><path class="cls-1" d="M195.5,138.9a3.6,3.6,0,0,0-.4,1.4,5.8,5.8,0,0,1-2.8.7,4.7,4.7,0,0,1-4.8-5c0-2.7,1.6-5.3,5-5.3a6.3,6.3,0,0,1,2.9.7,5.8,5.8,0,0,0-.4,1.9h-0.4a2.1,2.1,0,0,0-2-1.7,2.5,2.5,0,0,0-2,1.2,5.1,5.1,0,0,0-.6,2.8c0,2,.6,4.2,2.8,4.2a3.1,3.1,0,0,0,2.3-1.2l0.3,0.2"/><path class="cls-1" d="M204.6,138.9a3.6,3.6,0,0,0-.4,1.4,5.8,5.8,0,0,1-2.8.7,4.7,4.7,0,0,1-4.8-5c0-2.7,1.6-5.3,5-5.3a6.4,6.4,0,0,1,2.9.7,5.6,5.6,0,0,0-.4,1.9h-0.4a2.1,2.1,0,0,0-2-1.7,2.5,2.5,0,0,0-2,1.2,5.1,5.1,0,0,0-.6,2.8c0,2,.6,4.2,2.8,4.2a3.1,3.1,0,0,0,2.3-1.2l0.3,0.2"/><path class="cls-1" d="M206.1,127.7a1.4,1.4,0,0,1,1.3-1.4,1.4,1.4,0,0,1,1.3,1.4,1.4,1.4,0,0,1-1.3,1.4,1.4,1.4,0,0,1-1.3-1.4m0.2,10.9c0-1,.1-1.8.1-2.5s-0.1-3.7-.2-5.1h2.5v0.9c0,0.9-.1,2.8-0.1,3.5s0,3,.1,3.7,0.1,1.4.1,1.7h-2.4v-2.2Z"/><path class="cls-1" d="M217.8,139.4a3.5,3.5,0,0,1-2.9,1.7c-2.5,0-4.2-2.2-4.2-5s1.9-5.2,4.3-5.2a3.4,3.4,0,0,1,2.7,1.3,64.3,64.3,0,0,0-.2-6.6h2.4c-0.1,2.4-.2,4.9-0.2,7.4,0,0.3,0,6.6.2,7.9h-2.2v-1.4m-0.1-3.5c0-2-.5-3.9-2.3-3.9s-2.3,2.2-2.3,3.7,0.3,4.2,2.3,4.2S217.7,138.6,217.7,135.9Z"/><path class="cls-1" d="M224.2,136c0,0.8,0,3.9,3,3.9a3.9,3.9,0,0,0,2.7-1.3h0.2l-0.2.4-0.2.9a5.1,5.1,0,0,1-3.2,1,4.9,4.9,0,0,1-3.5-1.4,5.7,5.7,0,0,1-1.3-3.9c0-3.4,2.2-5,4.4-5a3.7,3.7,0,0,1,3.6,1.9,6.9,6.9,0,0,1,.6,3.3h-6.3m4.1-1c0-1,0-3.3-1.9-3.3s-2.1,2.5-2.1,3.3h4Z"/><path class="cls-1" d="M240.8,138.3a19.3,19.3,0,0,0,.1,2.5h-2.5a33,33,0,0,0,.2-3.9,23.4,23.4,0,0,0-.1-3.3,1.7,1.7,0,0,0-1.8-1.4,2,2,0,0,0-1.7,1.2,9.1,9.1,0,0,0-.3,2.7c0,1.9,0,3.2.1,4.6h-2.4c0.2-2.7.2-3,.2-5.5a36.5,36.5,0,0,0-.2-4.4h2.3a7.8,7.8,0,0,0-.1,1.7,3.3,3.3,0,0,1,3-1.8c2.1,0,3.2,1.3,3.2,3.5,0,0.6-.1,3-0.1,4"/><path class="cls-1" d="M246.4,127.4a25.5,25.5,0,0,0-.1,3.7h2a2.2,2.2,0,0,0-.1.5,3.3,3.3,0,0,0,.1.6h-2.1c0,0.9-.1,3.1-0.1,3.9,0,3,.1,3.9,1.4,3.9a1.8,1.8,0,0,0,1.1-.4,3.1,3.1,0,0,0-.1.5,1.6,1.6,0,0,0,.1.5,5.4,5.4,0,0,1-2.2.6,2.9,2.9,0,0,1-1.7-.5,3,3,0,0,1-.8-2.3c0-.9.1-4.5,0.1-6.1h-1.5a2.3,2.3,0,0,0,.1-0.4,4,4,0,0,0-.1-0.7h1.5c0-.6,0-1.4,0-2.3a9,9,0,0,0,2.2-1.4h0.1"/><path class="cls-1" d="M80.4,147.3h2.7c-0.2,1.5-.2,5.1-0.2,7.1s0,5.3.2,6.9H80.4c0.2-2.4.2-5.8,0.2-9.4a45.2,45.2,0,0,0-.2-4.7"/><path class="cls-1" d="M94.2,158.9a20,20,0,0,0,.1,2.5H91.9a33.1,33.1,0,0,0,.2-3.9,23.3,23.3,0,0,0-.1-3.3,1.7,1.7,0,0,0-1.8-1.4,2,2,0,0,0-1.7,1.2,9.1,9.1,0,0,0-.3,2.7c0,1.9,0,3.2.1,4.6H85.9c0.2-2.7.2-3,.2-5.5a35.8,35.8,0,0,0-.2-4.4h2.3a7.8,7.8,0,0,0-.1,1.7,3.3,3.3,0,0,1,3-1.8c2.1,0,3.2,1.3,3.2,3.5,0,0.6-.1,3-0.1,4"/><path class="cls-1" d="M97,159.1a2.2,2.2,0,0,0,2.3,1.6,1.4,1.4,0,0,0,1.4-1.5c0-.9-0.7-1.1-1.6-1.5l-1.3-.5a2.6,2.6,0,0,1-1.5-2.6,3,3,0,0,1,3.3-3.2,6.1,6.1,0,0,1,2.6.6,4.7,4.7,0,0,0-.5,1.8h-0.3a1.9,1.9,0,0,0-1.8-1.4,1.4,1.4,0,0,0-1.5,1.4c0,0.9.6,1.1,2.1,1.6s2.6,0.9,2.6,2.9a3.4,3.4,0,0,1-3.7,3.4,6.3,6.3,0,0,1-2.8-.8l0.3-.9a7.4,7.4,0,0,0,.1-0.9H97"/><path class="cls-1" d="M104.7,153.7a16.5,16.5,0,0,0-.1-2.2h2.5a39.4,39.4,0,0,0-.2,4.5,21.4,21.4,0,0,0,.1,2.8,1.7,1.7,0,0,0,1.7,1.3,1.9,1.9,0,0,0,1.8-1.2,7.8,7.8,0,0,0,.3-2.5c0-1.4,0-3.6-.1-4.9H113c-0.1,1.8-.2,3.7-0.2,5.5a40.5,40.5,0,0,0,.2,4.4h-2.3a11.4,11.4,0,0,0,.1-1.7,3.7,3.7,0,0,1-3.1,1.9A2.9,2.9,0,0,1,105,160a4.9,4.9,0,0,1-.4-2c0-1.4.1-2.9,0.1-4.3"/><path class="cls-1" d="M115.6,159.4c0-.9,0-2.5,0-3.3s0-2.8-.1-4.6h2.3a14,14,0,0,0-.1,2.2c0.5-.9,1.3-2.3,2.8-2.3h0.5a5,5,0,0,0-.2,1.5,3.9,3.9,0,0,0,.1.9h-0.1a2,2,0,0,0-1.1-.3,1.9,1.9,0,0,0-1.7,1.1,4.6,4.6,0,0,0-.2,2c0,1.3.1,3.3,0.2,4.6h-2.4v-2"/><path class="cls-1" d="M125.7,155.8c1.1-.3,1.3-0.4,1.4-0.6a1,1,0,0,0,.1-0.4c0-1.6-.8-2.2-1.9-2.2a2,2,0,0,0-2.1,1.5h-0.6a6.6,6.6,0,0,0,.1-1c0-.2,0-0.4,0-0.6a4.9,4.9,0,0,1,3-1.1c2.1,0,3.5,1,3.5,3.1s-0.1,2.8-.1,3.5,0,2.5.7,2.5l0.5-.2a1.3,1.3,0,0,0-.1.4,1.3,1.3,0,0,0,.1.4,4.6,4.6,0,0,1-1.6.4,1.5,1.5,0,0,1-1.6-1.3,3.2,3.2,0,0,1-2.6,1.4,2.4,2.4,0,0,1-2.6-2.5c0-2.3,1.3-2.7,3.1-3.2l0.6-.2m1.4,0.5c-2.2.6-3,.8-3,2.3s0.5,1.8,1.3,1.8a1.8,1.8,0,0,0,1.7-2v-2.1Z"/><path class="cls-1" d="M140.3,158.9a19.9,19.9,0,0,0,.1,2.5H138a33.8,33.8,0,0,0,.2-3.9,23.3,23.3,0,0,0-.1-3.3,1.7,1.7,0,0,0-1.8-1.4,2,2,0,0,0-1.7,1.2,9,9,0,0,0-.3,2.7c0,1.9,0,3.2.1,4.6H132c0.2-2.7.2-3,.2-5.5a36,36,0,0,0-.2-4.4h2.3a8.1,8.1,0,0,0-.1,1.7,3.3,3.3,0,0,1,3-1.8c2.1,0,3.2,1.3,3.2,3.5,0,0.6-.1,3-0.1,4"/><path class="cls-1" d="M150.5,159.5a3.6,3.6,0,0,0-.4,1.4,5.8,5.8,0,0,1-2.8.7,4.7,4.7,0,0,1-4.8-5c0-2.7,1.6-5.3,5-5.3a6.3,6.3,0,0,1,2.9.7,5.7,5.7,0,0,0-.4,1.9h-0.4a2.1,2.1,0,0,0-2-1.7,2.5,2.5,0,0,0-2,1.2,5.1,5.1,0,0,0-.6,2.8c0,2,.6,4.2,2.9,4.2a3.1,3.1,0,0,0,2.3-1.2l0.3,0.2"/><path class="cls-1" d="M154,156.6c0,0.8,0,3.9,3,3.9a3.9,3.9,0,0,0,2.7-1.3h0.2l-0.2.4-0.2.9a5.1,5.1,0,0,1-3.2,1,4.9,4.9,0,0,1-3.5-1.4,5.7,5.7,0,0,1-1.3-3.9c0-3.4,2.2-5,4.4-5a3.7,3.7,0,0,1,3.6,1.9,7,7,0,0,1,.6,3.3H154m4.1-1c0-1,0-3.3-1.9-3.3s-2.1,2.5-2.1,3.3h4Z"/><path class="cls-1" d="M178.3,150.2h-0.2c-0.2-.5-0.9-1.9-3.7-1.9s-4.9,2.3-4.9,6.1a7.4,7.4,0,0,0,1.2,4.3,4,4,0,0,0,3.5,1.9,5.3,5.3,0,0,0,4.4-2.3h0.2l-0.2,2a9.4,9.4,0,0,1-4.8,1.3c-3.7,0-6.8-2.5-6.8-7.1s2.4-7.4,7.5-7.4a9.8,9.8,0,0,1,4.5,1l-0.6,2"/><path class="cls-1" d="M185,151.4c2.9,0,4.8,1.8,4.8,5.1s-1.9,5.1-4.8,5.1-4.8-1.9-4.8-5.1,1.9-5.1,4.8-5.1m0,9.4c2.1,0,2.4-2.6,2.4-4.3s-0.3-4.3-2.4-4.3-2.4,2.6-2.4,4.3S182.9,160.8,185,160.8Z"/><path class="cls-1" d="M194.3,161.4h-2.3c0.1-2.2.1-2.6,0.1-5.4s-0.1-3.3-.2-4.4h2.3a11.8,11.8,0,0,0-.1,1.8,3.2,3.2,0,0,1,2.9-1.9,2.7,2.7,0,0,1,2.8,1.9,3.5,3.5,0,0,1,3.1-1.9,2.8,2.8,0,0,1,2.9,2.9c0,0.8-.1,2.2-0.1,3s0,3.3.1,4h-2.4c0.1-1,.2-2.5.2-3.6s0-2.4,0-2.7-0.2-2.1-1.6-2.1-2,2.1-2,4.7,0.1,2.5.1,3.8h-2.4c0.2-1.2.2-3.4,0.2-4a19.4,19.4,0,0,0-.1-3.2,1.5,1.5,0,0,0-1.7-1.3,1.8,1.8,0,0,0-1.6,1.2,9.7,9.7,0,0,0-.3,2.9c0,1.5,0,3,.1,4.4"/><path class="cls-1" d="M210.6,153a3.5,3.5,0,0,1,3-1.7c2.6,0,4.1,2.5,4.1,5.1s-1.2,5.1-4.3,5.1a3.3,3.3,0,0,1-2.7-1.3c0,3,.1,4.8.2,6.6h-2.4c0.2-2.5.2-6.4,0.2-7.7s0-5.4-.2-7.5h2.2V153m2.4-.5c-1.9,0-2.3,2.4-2.3,4s0.4,4,2.4,4,2.2-2.4,2.2-3.9S215.1,152.5,212.9,152.5Z"/><path class="cls-1" d="M222.9,155.8c1.1-.3,1.3-0.4,1.4-0.6a1,1,0,0,0,.1-0.4c0-1.6-.8-2.2-1.9-2.2a2,2,0,0,0-2.1,1.5h-0.6a6.2,6.2,0,0,0,.1-1c0-.2,0-0.4,0-0.6a4.9,4.9,0,0,1,3-1.1c2.1,0,3.5,1,3.5,3.1s-0.1,2.8-.1,3.5,0,2.5.7,2.5l0.5-.2a1.2,1.2,0,0,0-.1.4,1.2,1.2,0,0,0,.1.4,4.6,4.6,0,0,1-1.6.4,1.5,1.5,0,0,1-1.6-1.3,3.2,3.2,0,0,1-2.6,1.4,2.4,2.4,0,0,1-2.6-2.5c0-2.3,1.3-2.7,3.1-3.2l0.6-.2m1.4,0.5c-2.2.6-3,.8-3,2.3s0.5,1.8,1.3,1.8a1.8,1.8,0,0,0,1.7-2v-2.1Z"/><path class="cls-1" d="M237.5,158.9a19.1,19.1,0,0,0,.1,2.5h-2.5a33.8,33.8,0,0,0,.2-3.9,23.9,23.9,0,0,0-.1-3.3,1.7,1.7,0,0,0-1.8-1.4,2,2,0,0,0-1.7,1.2,9,9,0,0,0-.3,2.7c0,1.9,0,3.2.1,4.6h-2.4c0.2-2.7.2-3,.2-5.5a35.1,35.1,0,0,0-.2-4.4h2.3a7.5,7.5,0,0,0-.1,1.7,3.3,3.3,0,0,1,3-1.8c2.1,0,3.2,1.3,3.2,3.5,0,0.6-.1,3-0.1,4"/><path class="cls-1" d="M243.9,158.8l0.3-.9c0.4-1.1,1.3-3.9,1.3-4l0.7-2.4h1.7c-1,2.1-5.3,12.4-5.9,15.2h-1.7l0.3-.5c0.4-.7,1.7-3.4,2.1-4.4s-0.3-1-1.9-4.8l-2.3-5.4h2.7c0.2,0.8,1.5,4.4,1.7,4.9l0.9,2.3"/><path class="cls-1" d="M7.9,185.2L7.2,183H3c-0.5,1.6-1.1,3.3-1.4,4.5H0l2-5.3c1.7-4.6,2.7-7.3,3.1-9H6.2c0.8,2.8,1.8,5.7,2.5,7.4l2.5,6.9H8.6l-0.7-2.3m-2.8-8.5-1.7,5.1H6.7Z"/><path class="cls-1" d="M19.2,174.7c1.1,2.8,1.6,3.9,3.2,7.4l0.9,2,0.6-1.3c1.6-3.4,2.4-5.1,4.1-9.3h0.7v1.7c0.2,2.4.4,4.7,0.7,7.1s0.5,4.2.7,5.2H27.9v-0.8c0-.4-0.1-2.2-0.2-2.6s-0.5-5.1-.5-6c-1.1,2.3-3.1,6.5-4.1,9.3H22.4l-2.4-5.4-1.7-3.7c-0.3,2.9-.6,6-0.7,9.1H16.1v-0.6c0.4-2.5,1.4-11.1,1.6-13.5h0.8l0.5,1.3"/><path class="cls-1" d="M33.8,182.6c0,0.8,0,3.9,2.7,3.9a3.4,3.4,0,0,0,2.4-1.3h0.2v0.4l-0.2.9a4.2,4.2,0,0,1-2.9,1.1,4.2,4.2,0,0,1-3.1-1.4,6.2,6.2,0,0,1-1.1-3.9c0-3.4,1.9-5,4-5a3.2,3.2,0,0,1,3.2,1.9,7.6,7.6,0,0,1,.5,3.3H33.8m3.6-1c0-1,0-3.3-1.7-3.3s-1.9,2.5-1.9,3.3h3.6Z"/><path class="cls-1" d="M43.4,187.5H41.3c0.1-2.2.1-2.6,0.1-5.4s-0.1-3.3-.1-4.4h2.1a15.7,15.7,0,0,0-.1,1.8,2.9,2.9,0,0,1,2.6-1.9,2.5,2.5,0,0,1,2.5,1.9,3.2,3.2,0,0,1,2.8-1.9,2.7,2.7,0,0,1,2.6,2.9c0,0.8-.1,2.2-0.1,3s0,3.3.1,4H51.6c0.1-1,.1-2.5.1-3.6s0-2.4,0-2.7-0.1-2.1-1.5-2.1-1.8,2.1-1.8,4.7,0.1,2.5.1,3.8H46.4c0.1-1.2.1-3.4,0.1-4a22.7,22.7,0,0,0-.1-3.2A1.4,1.4,0,0,0,45,179a1.6,1.6,0,0,0-1.5,1.2,10.9,10.9,0,0,0-.2,2.9c0,1.5,0,3,.1,4.4"/><path class="cls-1" d="M60.3,187.7a2.8,2.8,0,0,1-2.7-1.4,4.2,4.2,0,0,0-1.1,1.2H56c0.1-2.1.2-3.3,0.2-7.4s0-4-.2-7.8h2.2c-0.1,2.3-.1,2.7-0.1,6.9a3,3,0,0,1,2.6-1.7c1.7,0,3.6,1.4,3.6,4.9s-1.4,5.4-3.9,5.4m1.8-5.2c0-1.4-.2-3.8-2.1-3.8s-2.1,2.4-2.1,4,0.1,4,2,4S62.1,184.3,62.1,182.5Z"/><path class="cls-1" d="M67.8,182.6c0,0.8,0,3.9,2.7,3.9a3.4,3.4,0,0,0,2.4-1.3h0.2v0.4l-0.2.9a4.2,4.2,0,0,1-2.9,1.1,4.2,4.2,0,0,1-3.1-1.4,6.2,6.2,0,0,1-1.1-3.9c0-3.4,2-5,4-5a3.2,3.2,0,0,1,3.2,1.9,7.6,7.6,0,0,1,.5,3.3H67.8m3.6-1c0-1,0-3.3-1.7-3.3s-1.9,2.5-1.9,3.3h3.6Z"/><path class="cls-1" d="M75.4,185.5c0-.9,0-2.5,0-3.3s0-2.8-.1-4.6h2.1a15.4,15.4,0,0,0-.1,2.2c0.5-.9,1.1-2.3,2.5-2.3h0.4a5.5,5.5,0,0,0-.2,1.5,4.4,4.4,0,0,0,.1.9H80.1a1.7,1.7,0,0,0-1-.3,1.7,1.7,0,0,0-1.5,1.1,5.1,5.1,0,0,0-.2,2c0,1.3.1,3.3,0.2,4.6H75.3v-2"/><path class="cls-1" d="M89.9,177.5c2.6,0,4.3,1.8,4.3,5.1s-1.7,5.1-4.3,5.1-4.3-1.9-4.3-5.1,1.7-5.1,4.3-5.1m0,9.4c1.9,0,2.2-2.6,2.2-4.3s-0.3-4.3-2.2-4.3-2.1,2.6-2.1,4.3S88,186.9,89.9,186.9Z"/><path class="cls-1" d="M100.3,174.5A2.1,2.1,0,0,0,99,174a1.1,1.1,0,0,0-1.1,1.3,14.6,14.6,0,0,0,.5,2.4h1.8a2.5,2.5,0,0,0-.1.6,2.2,2.2,0,0,0,.1.6H98.4v1.1c0,0.5,0,5.8.2,7.6H96.4a13,13,0,0,0,.1-2.1c0-1.6,0-2.6,0-3.6s0-2.6,0-3H95.2a3,3,0,0,0,.1-0.6c0-.1,0-0.3-0.1-0.6h1.3a8.7,8.7,0,0,1,.7-3.4c0.2-.4,1-2.2,2.7-2.2h0.5a4.1,4.1,0,0,0-.1,1c0,0.4,0,.8,0,1.1h-0.1"/><path class="cls-1" d="M108.3,174.1a29.6,29.6,0,0,0-.1,3.7H110a2.4,2.4,0,0,0-.1.5,3.6,3.6,0,0,0,.1.6h-1.9c0,0.9-.1,3.1-0.1,3.9,0,3,.1,3.9,1.2,3.9a1.5,1.5,0,0,0,1-.4,2.8,2.8,0,0,0-.1.5,1.7,1.7,0,0,0,.1.5,4.4,4.4,0,0,1-1.9.6,2.4,2.4,0,0,1-1.5-.5,3.2,3.2,0,0,1-.7-2.3c0-.9.1-4.5,0.1-6.1H105a2.3,2.3,0,0,0,.1-0.5,4.4,4.4,0,0,0-.1-0.7h1.3c0-.6,0-1.4,0-2.3a8.2,8.2,0,0,0,2-1.4h0.1"/><path class="cls-1" d="M113.5,172.9c-0.1,2.3-.1,3.8-0.1,6.3a3,3,0,0,1,2.7-1.7,2.6,2.6,0,0,1,2.4,1.4,5.2,5.2,0,0,1,.4,2.5c0,0.5,0,1.6,0,2.2s0.1,3,.1,3.9h-2.2c0.1-1.2.2-2.9,0.2-4.3a15.1,15.1,0,0,0-.1-2.9,1.5,1.5,0,0,0-1.5-1.3,1.7,1.7,0,0,0-1.7,1.3,8.3,8.3,0,0,0-.2,2.4c0,2.7,0,2.9.1,4.7h-2.1c0.1-2.8.1-3.7,0.1-8v-4c0-.8-0.1-2.1-0.1-3.2h2.2v0.7"/><path class="cls-1" d="M122.8,182.6c0,0.8,0,3.9,2.7,3.9a3.4,3.4,0,0,0,2.4-1.3h0.2v0.4l-0.2.9a4.2,4.2,0,0,1-2.9,1.1,4.2,4.2,0,0,1-3.1-1.4,6.2,6.2,0,0,1-1.1-3.9c0-3.4,1.9-5,4-5a3.2,3.2,0,0,1,3.2,1.9,7.5,7.5,0,0,1,.5,3.3h-5.6m3.6-1c0-1,0-3.3-1.7-3.3s-1.9,2.5-1.9,3.3h3.6Z"/><path class="cls-1" d="M141,185.2l-0.7-2.2H136c-0.5,1.6-1.1,3.3-1.4,4.5H133l2-5.3c1.7-4.6,2.7-7.3,3.1-9h1.1c0.8,2.8,1.8,5.7,2.5,7.4l2.5,6.9h-2.6l-0.7-2.3m-2.8-8.5-1.7,5.1h3.4Z"/><path class="cls-1" d="M147.4,187.5h-2.1c0.1-2.2.1-2.6,0.1-5.4s-0.1-3.3-.1-4.4h2.1a15.2,15.2,0,0,0-.1,1.8,2.9,2.9,0,0,1,2.6-1.9,2.5,2.5,0,0,1,2.5,1.9,3.2,3.2,0,0,1,2.8-1.9,2.7,2.7,0,0,1,2.6,2.9c0,0.8,0,2.2,0,3s0,3.3.1,4h-2.1c0.1-1,.1-2.5.1-3.6s0-2.4,0-2.7-0.1-2.1-1.5-2.1-1.8,2.1-1.8,4.7,0.1,2.5.1,3.8h-2.1c0.1-1.2.1-3.4,0.1-4a22.1,22.1,0,0,0-.1-3.2A1.4,1.4,0,0,0,149,179a1.6,1.6,0,0,0-1.5,1.2,10.7,10.7,0,0,0-.2,2.9c0,1.5,0,3,.1,4.4"/><path class="cls-1" d="M161.8,182.6c0,0.8,0,3.9,2.7,3.9a3.4,3.4,0,0,0,2.4-1.3h0.2v0.4l-0.2.9a4.2,4.2,0,0,1-2.9,1.1,4.2,4.2,0,0,1-3.1-1.4,6.2,6.2,0,0,1-1.1-3.9c0-3.4,2-5,4-5a3.2,3.2,0,0,1,3.2,1.9,7.6,7.6,0,0,1,.5,3.3h-5.6m3.6-1c0-1,0-3.3-1.7-3.3s-1.9,2.5-1.9,3.3h3.6Z"/><path class="cls-1" d="M169.4,185.5c0-.9,0-2.5,0-3.3s0-2.8-.1-4.6h2.1a14.9,14.9,0,0,0-.1,2.2c0.5-.9,1.1-2.3,2.5-2.3h0.4a5.5,5.5,0,0,0-.2,1.5,4.4,4.4,0,0,0,.1.9H174a1.6,1.6,0,0,0-1-.3,1.7,1.7,0,0,0-1.5,1.1,5.2,5.2,0,0,0-.2,2c0,1.3.1,3.3,0.2,4.6h-2.2v-2"/><path class="cls-1" d="M175.6,174.3a1.2,1.2,0,1,1,1.2,1.4,1.3,1.3,0,0,1-1.2-1.4m0.2,10.9c0-1,.1-1.8.1-2.5s-0.1-3.7-.2-5.1h2.2v0.9c0,0.9-.1,2.8-0.1,3.5s0,3,0,3.7,0.1,1.4.1,1.7h-2.2v-2.2Z"/><path class="cls-1" d="M186.8,185.5a3.9,3.9,0,0,0-.3,1.4,4.7,4.7,0,0,1-2.5.7c-2.8,0-4.3-2.5-4.3-5s1.4-5.3,4.5-5.3a5.2,5.2,0,0,1,2.6.7,6.2,6.2,0,0,0-.4,1.9h-0.3a2,2,0,0,0-1.8-1.7,2.2,2.2,0,0,0-1.8,1.2,5.6,5.6,0,0,0-.5,2.8c0,2,.6,4.2,2.5,4.2a2.7,2.7,0,0,0,2.1-1.2l0.3,0.2"/><path class="cls-1" d="M191.4,181.9c1-.3,1.1-0.4,1.2-0.6a1.1,1.1,0,0,0,.1-0.4c0-1.6-.7-2.2-1.7-2.2a1.8,1.8,0,0,0-1.8,1.5h-0.5a7.1,7.1,0,0,0,.1-1c0-.2,0-0.4,0-0.6s1.8-1.1,2.7-1.1a2.8,2.8,0,0,1,3.1,3.1c0,0.8-.1,2.8-0.1,3.5s0,2.5.6,2.5l0.5-.2a1.3,1.3,0,0,0-.1.4,1.3,1.3,0,0,0,.1.4,3.8,3.8,0,0,1-1.5.4,1.4,1.4,0,0,1-1.4-1.3,2.8,2.8,0,0,1-2.3,1.4,2.3,2.3,0,0,1-2.4-2.5c0-2.3,1.2-2.7,2.8-3.2l0.6-.2m1.2,0.5c-2,.6-2.6.8-2.6,2.3s0.4,1.8,1.1,1.8a1.7,1.7,0,0,0,1.5-2v-2.1Z"/><path class="cls-1" d="M204.5,185a22.7,22.7,0,0,0,.1,2.5h-2.2a37.1,37.1,0,0,0,.2-3.9,26.8,26.8,0,0,0-.1-3.3,1.5,1.5,0,0,0-1.6-1.4,1.8,1.8,0,0,0-1.5,1.2,9.9,9.9,0,0,0-.3,2.7c0,1.9,0,3.2.1,4.6H197c0.2-2.7.2-3,.2-5.5a41.1,41.1,0,0,0-.1-4.4h2.1a8.7,8.7,0,0,0-.1,1.7c0.7-1.1,1.3-1.8,2.7-1.8s2.9,1.3,2.9,3.5c0,0.6-.1,3-0.1,4"/><path class="cls-1" d="M211.6,179.2c0-1.9,0-3.9,0-5.8h0.8c1.6,2.2,3.1,4.1,5.2,6.5l2,2.4,0.9,0.9v-4.6c0-1.7-.1-3.5-0.2-5.2h1.5c-0.2,2.5-.2,3.9-0.2,6.9,0,1.2,0,4.1,0,5.2s0,1.5,0,2h-0.7c-2.2-2.8-6.4-7.9-8.2-9.9,0,2.8,0,4.3.1,6.5s0,1.4.2,3.3h-1.5v-2.9c0-.6.1-2.1,0.1-2.7v-2.8"/><path class="cls-1" d="M227,181.9c1-.3,1.1-0.4,1.2-0.6a1.1,1.1,0,0,0,.1-0.4c0-1.6-.7-2.2-1.7-2.2a1.8,1.8,0,0,0-1.8,1.5h-0.5a7.1,7.1,0,0,0,.1-1c0-.2,0-0.4,0-0.6s1.8-1.1,2.7-1.1a2.8,2.8,0,0,1,3.1,3.1c0,0.8-.1,2.8-0.1,3.5s0,2.5.6,2.5l0.5-.2a1.6,1.6,0,0,0-.1.4,1.5,1.5,0,0,0,.1.4,3.8,3.8,0,0,1-1.5.4,1.4,1.4,0,0,1-1.4-1.3,2.8,2.8,0,0,1-2.3,1.4,2.3,2.3,0,0,1-2.4-2.5c0-2.3,1.2-2.7,2.8-3.2l0.6-.2m1.2,0.5c-2,.6-2.6.8-2.6,2.3s0.4,1.8,1.1,1.8a1.7,1.7,0,0,0,1.5-2v-2.1Z"/><path class="cls-1" d="M235.2,174.1a29.6,29.6,0,0,0-.1,3.7h1.8a2.4,2.4,0,0,0-.1.5,3.6,3.6,0,0,0,.1.6h-1.9c0,0.9-.1,3.1-0.1,3.9,0,3,.1,3.9,1.2,3.9a1.5,1.5,0,0,0,1-.4,3.8,3.8,0,0,0-.1.5,1.7,1.7,0,0,0,.1.5,4.4,4.4,0,0,1-1.9.6,2.4,2.4,0,0,1-1.5-.5,3.2,3.2,0,0,1-.7-2.3c0-.9.1-4.5,0.1-6.1h-1.3a2.3,2.3,0,0,0,.1-0.5,4.4,4.4,0,0,0-.1-0.7h1.3c0-.6,0-1.4,0-2.3a8.2,8.2,0,0,0,2-1.4h0.1"/><path class="cls-1" d="M238.5,174.3a1.2,1.2,0,1,1,1.2,1.4,1.3,1.3,0,0,1-1.2-1.4m0.2,10.9c0-1,.1-1.8.1-2.5s-0.1-3.7-.2-5.1h2.2v0.9c0,0.9-.1,2.8-0.1,3.5s0,3,.1,3.7,0.1,1.4.1,1.7h-2.2v-2.2Z"/><path class="cls-1" d="M246.9,177.5c2.6,0,4.3,1.8,4.3,5.1s-1.7,5.1-4.3,5.1-4.3-1.9-4.3-5.1,1.7-5.1,4.3-5.1m0,9.4c1.9,0,2.2-2.6,2.2-4.3s-0.3-4.3-2.2-4.3-2.2,2.6-2.2,4.3S245.1,186.9,246.9,186.9Z"/><path class="cls-1" d="M260.5,185a22.9,22.9,0,0,0,.1,2.5h-2.2a38.1,38.1,0,0,0,.2-3.9,26,26,0,0,0-.1-3.3,1.5,1.5,0,0,0-1.6-1.4,1.8,1.8,0,0,0-1.5,1.2,9.9,9.9,0,0,0-.3,2.7c0,1.9,0,3.2.1,4.6h-2.2c0.2-2.7.2-3,.2-5.5a40,40,0,0,0-.1-4.4h2.1a8.4,8.4,0,0,0-.1,1.7c0.7-1.1,1.3-1.8,2.7-1.8s2.9,1.3,2.9,3.5c0,0.6-.1,3-0.1,4"/><path class="cls-1" d="M265.7,181.9c1-.3,1.1-0.4,1.2-0.6a1.1,1.1,0,0,0,.1-0.4c0-1.6-.7-2.2-1.7-2.2a1.8,1.8,0,0,0-1.9,1.5h-0.5a6.6,6.6,0,0,0,.1-1c0-.2,0-0.4,0-0.6s1.8-1.1,2.7-1.1a2.8,2.8,0,0,1,3.1,3.1c0,0.8-.1,2.8-0.1,3.5s0,2.5.6,2.5l0.5-.2a1.3,1.3,0,0,0-.1.4,1.3,1.3,0,0,0,.1.4,3.8,3.8,0,0,1-1.5.4,1.4,1.4,0,0,1-1.4-1.3,2.8,2.8,0,0,1-2.3,1.4,2.3,2.3,0,0,1-2.4-2.5c0-2.3,1.2-2.7,2.8-3.2l0.6-.2m1.2,0.5c-1.9.6-2.6,0.8-2.6,2.3s0.4,1.8,1.1,1.8a1.7,1.7,0,0,0,1.5-2v-2.1Z"/><path class="cls-1" d="M272.5,172.4h1.1c-0.2,2.2-.2,5.4-0.2,7.6,0,0.4-.1,5.3.2,7.7h-2.2c0.2-1.6.2-7.7,0.2-8.2,0-3.8-.1-5.4-0.2-7h1.2"/><path class="cls-1" d="M282.8,179.4h3.9a2.8,2.8,0,0,0-.1.7,3.5,3.5,0,0,0,.1.7h-3.9v2.8c0,2.1,0,2.4,0,3a8.8,8.8,0,0,0,.1,1.1h-2.3c0.1-3.5.2-4,.2-7.3s-0.1-4.8-.2-6.8H287a4.4,4.4,0,0,0-.1.8,2.4,2.4,0,0,0,.1.7l-4.2-.2v4.8"/><path class="cls-1" d="M291.2,181.9c1-.3,1.1-0.4,1.2-0.6a1.1,1.1,0,0,0,.1-0.4c0-1.6-.7-2.2-1.7-2.2a1.8,1.8,0,0,0-1.8,1.5h-0.5a6.6,6.6,0,0,0,.1-1c0-.2,0-0.4,0-0.6s1.8-1.1,2.7-1.1a2.8,2.8,0,0,1,3.1,3.1c0,0.8-.1,2.8-0.1,3.5s0,2.5.6,2.5l0.5-.2a1.5,1.5,0,0,0-.1.4,1.4,1.4,0,0,0,.1.4,3.9,3.9,0,0,1-1.5.4,1.4,1.4,0,0,1-1.4-1.3,2.8,2.8,0,0,1-2.3,1.4,2.3,2.3,0,0,1-2.4-2.5c0-2.3,1.2-2.7,2.8-3.2l0.6-.2m1.2,0.5c-2,.6-2.6.8-2.6,2.3s0.4,1.8,1.1,1.8a1.7,1.7,0,0,0,1.5-2v-2.1Z"/><path class="cls-1" d="M299,187.5h-2.1c0.1-2.2.1-2.6,0.1-5.4s-0.1-3.3-.1-4.4H299a13.8,13.8,0,0,0-.1,1.8,2.9,2.9,0,0,1,2.6-1.9,2.5,2.5,0,0,1,2.5,1.9,3.2,3.2,0,0,1,2.8-1.9,2.7,2.7,0,0,1,2.6,2.9c0,0.8-.1,2.2-0.1,3s0,3.3.1,4h-2.1c0.1-1,.1-2.5.1-3.6s0-2.4,0-2.7-0.1-2.1-1.5-2.1-1.8,2.1-1.8,4.7,0.1,2.5.1,3.8h-2.2c0.1-1.2.1-3.4,0.1-4a21.4,21.4,0,0,0-.1-3.2,1.4,1.4,0,0,0-1.5-1.3,1.6,1.6,0,0,0-1.5,1.2,10.6,10.6,0,0,0-.2,2.9c0,1.5,0,3,.1,4.4"/><path class="cls-1" d="M311.6,174.3a1.2,1.2,0,1,1,1.2,1.4,1.3,1.3,0,0,1-1.2-1.4m0.2,10.9c0-1,.1-1.8.1-2.5s-0.1-3.7-.2-5.1h2.2v0.9c0,0.9-.1,2.8-0.1,3.5s0,3,0,3.7,0.1,1.4.1,1.7h-2.2v-2.2Z"/><path class="cls-1" d="M317.2,172.4h1.1c-0.2,2.2-.2,5.4-0.2,7.6,0,0.4-.1,5.3.2,7.7H316c0.2-1.6.2-7.7,0.2-8.2,0-3.8-.1-5.4-0.2-7h1.2"/><path class="cls-1" d="M324.1,184.9l0.3-.9c0.4-1,1.2-3.9,1.2-4l0.6-2.4h1.5c-0.9,2.1-4.7,12.4-5.3,15.2H321l0.3-.5c0.4-.7,1.5-3.4,1.9-4.4s-0.3-1-1.7-4.8l-2-5.4h2.4c0.2,0.8,1.3,4.4,1.5,4.9l0.8,2.3"/><path class="cls-1" d="M337.3,177.5c2.6,0,4.3,1.8,4.3,5.1s-1.7,5.1-4.3,5.1-4.3-1.9-4.3-5.1,1.7-5.1,4.3-5.1m0,9.4c1.9,0,2.2-2.6,2.2-4.3s-0.3-4.3-2.2-4.3-2.2,2.6-2.2,4.3S335.4,186.9,337.3,186.9Z"/><path class="cls-1" d="M347.7,174.5a2.1,2.1,0,0,0-1.3-.4,1.1,1.1,0,0,0-1.1,1.3,14.3,14.3,0,0,0,.5,2.4h1.8a2.7,2.7,0,0,0-.1.6,2.4,2.4,0,0,0,.1.6h-1.8v1.1c0,0.5,0,5.8.2,7.6h-2.2a13.9,13.9,0,0,0,.1-2.1c0-1.6.1-2.6,0.1-3.6s0-2.6,0-3h-1.3a3,3,0,0,0,.1-0.6c0-.1,0-0.3-0.1-0.6H344a8.5,8.5,0,0,1,.7-3.4c0.2-.4,1-2.2,2.7-2.2H348a4.1,4.1,0,0,0-.1,1c0,0.4,0,.8,0,1.1h-0.1"/><path class="cls-1" d="M363,176.3h-0.2c-0.2-.5-0.8-1.9-3.3-1.9s-4.4,2.3-4.4,6.1a8,8,0,0,0,1,4.3,3.6,3.6,0,0,0,3.1,1.9,4.6,4.6,0,0,0,4-2.3h0.2l-0.2,2a7.7,7.7,0,0,1-4.3,1.3c-3.3,0-6.1-2.5-6.1-7.1s2.1-7.4,6.7-7.4a8,8,0,0,1,4,1l-0.5,2"/><path class="cls-1" d="M369.1,177.5c2.6,0,4.3,1.8,4.3,5.1s-1.7,5.1-4.3,5.1-4.3-1.9-4.3-5.1,1.7-5.1,4.3-5.1m0,9.4c1.9,0,2.2-2.6,2.2-4.3s-0.3-4.3-2.2-4.3-2.2,2.6-2.2,4.3S367.2,186.9,369.1,186.9Z"/><path class="cls-1" d="M377.4,187.5h-2.1c0.1-2.2.1-2.6,0.1-5.4s-0.1-3.3-.1-4.4h2.1a13,13,0,0,0-.1,1.8,2.9,2.9,0,0,1,2.6-1.9,2.5,2.5,0,0,1,2.5,1.9,3.2,3.2,0,0,1,2.8-1.9,2.7,2.7,0,0,1,2.6,2.9c0,0.8-.1,2.2-0.1,3s0,3.3.1,4h-2.1c0.1-1,.1-2.5.1-3.6s0-2.4,0-2.7-0.1-2.1-1.5-2.1-1.8,2.1-1.8,4.7,0.1,2.5.1,3.8h-2.1c0.1-1.2.1-3.4,0.1-4a23.4,23.4,0,0,0-.1-3.2A1.4,1.4,0,0,0,379,179a1.6,1.6,0,0,0-1.5,1.2,10.7,10.7,0,0,0-.2,2.9c0,1.5,0,3,.1,4.4"/><path class="cls-1" d="M391.9,179.1a3.1,3.1,0,0,1,2.7-1.7c2.3,0,3.7,2.5,3.7,5.1s-1.1,5.1-3.8,5.1a2.8,2.8,0,0,1-2.4-1.3c0,3,.1,4.8.2,6.6H390c0.2-2.5.2-6.4,0.2-7.7s0-5.4-.2-7.5h2v1.4m2.1-.5c-1.7,0-2.1,2.4-2.1,4s0.3,4,2.1,4,2-2.4,2-3.9S396,178.6,394.1,178.6Z"/><path class="cls-1" d="M403,181.9c1-.3,1.1-0.4,1.2-0.6a1.1,1.1,0,0,0,.1-0.4c0-1.6-.7-2.2-1.7-2.2a1.8,1.8,0,0,0-1.8,1.5h-0.5a7.1,7.1,0,0,0,.1-1c0-.2,0-0.4,0-0.6s1.8-1.1,2.7-1.1a2.8,2.8,0,0,1,3.1,3.1c0,0.8-.1,2.8-0.1,3.5s0,2.5.6,2.5l0.5-.2a1.5,1.5,0,0,0-.1.4,1.4,1.4,0,0,0,.1.4,3.8,3.8,0,0,1-1.5.4,1.4,1.4,0,0,1-1.4-1.3,2.8,2.8,0,0,1-2.3,1.4,2.3,2.3,0,0,1-2.4-2.5c0-2.3,1.2-2.7,2.8-3.2l0.6-.2m1.2,0.5c-2,.6-2.7.8-2.7,2.3s0.4,1.8,1.1,1.8a1.7,1.7,0,0,0,1.5-2v-2.1Z"/><path class="cls-1" d="M416.1,185a22.9,22.9,0,0,0,.1,2.5H414a38.1,38.1,0,0,0,.2-3.9,26,26,0,0,0-.1-3.3,1.5,1.5,0,0,0-1.6-1.4,1.8,1.8,0,0,0-1.5,1.2,9.9,9.9,0,0,0-.3,2.7c0,1.9,0,3.2.1,4.6h-2.2c0.2-2.7.2-3,.2-5.5a40,40,0,0,0-.1-4.4h2.1a8.4,8.4,0,0,0-.1,1.7c0.7-1.1,1.3-1.8,2.7-1.8s2.9,1.3,2.9,3.5c0,0.6-.1,3-0.1,4"/><path class="cls-1" d="M418.3,174.3a1.4,1.4,0,0,1,1.2-1.4,1.4,1.4,0,0,1,1.2,1.4,1.2,1.2,0,1,1-2.4,0m0.2,10.9c0-1,.1-1.8.1-2.5s-0.1-3.7-.2-5.1h2.2v0.9c0,0.9-.1,2.8-0.1,3.5s0,3,.1,3.7,0.1,1.4.1,1.7h-2.2v-2.2Z"/><path class="cls-1" d="M424.5,182.6c0,0.8,0,3.9,2.7,3.9a3.4,3.4,0,0,0,2.4-1.3h0.2v0.4l-0.2.9a4.2,4.2,0,0,1-2.9,1.1,4.2,4.2,0,0,1-3.1-1.4,6.2,6.2,0,0,1-1.2-3.9c0-3.4,2-5,4-5a3.2,3.2,0,0,1,3.2,1.9,7.6,7.6,0,0,1,.5,3.3h-5.6m3.6-1c0-1,0-3.3-1.7-3.3s-1.9,2.5-1.9,3.3h3.6Z"/><path class="cls-1" d="M432,185.2a2,2,0,0,0,2.1,1.6,1.3,1.3,0,0,0,1.3-1.5c0-.9-0.7-1.1-1.5-1.5l-1.2-.5a2.6,2.6,0,0,1-1.4-2.6,2.9,2.9,0,0,1,3-3.2,5,5,0,0,1,2.3.6,5.3,5.3,0,0,0-.4,1.8H436a1.8,1.8,0,0,0-1.6-1.4,1.3,1.3,0,0,0-1.4,1.4c0,0.9.6,1.1,1.9,1.6s2.3,0.9,2.3,2.9a3.3,3.3,0,0,1-3.3,3.4,5.1,5.1,0,0,1-2.5-.8l0.3-.9a9.5,9.5,0,0,0,.1-0.9H432"/><text class="cls-2" transform="translate(-0.8 -6.2)">B<tspan x="10" y="0">l</tspan><tspan x="13.8" y="0">a</tspan><tspan x="22" y="0">c</tspan><tspan x="29.8" y="0">k</tspan></text></svg>