<svg xmlns="http://www.w3.org/2000/svg" viewBox="0 0 437.15 192.82"><title>slaico-blue</title><path d="M281.94,87.31c2.59-4.29,3.28-9.2.53-11-3-1.92-7.29,1.12-10,5.16s-3.73,9.78-.53,11.66C274.76,94.81,279.44,91.49,281.94,87.31ZM274.82,93a.82.82,0,0,1-.14-.25c0-.07.59-2,.68-2.32a4.61,4.61,0,0,0,1.08-.27c0,.38,0,1.7,0,2.12A7.39,7.39,0,0,1,274.82,93Zm3-1.63-.24-.4-.09-.48s0-.56,0-.85a8.41,8.41,0,0,0,1.38-1.07l.36.13.4,1A15.74,15.74,0,0,1,277.82,91.33Zm3.71-4.22a15.15,15.15,0,0,1-1,1.52l-1-.76a7.69,7.69,0,0,0,.89-1.28c.14-.25.28-.52.4-.78l.85.25.37.25C281.84,86.58,281.69,86.85,281.53,87.11Zm1.19-2.35-.61.09-.71-.54a8,8,0,0,0,.39-1.59l1.63-.06A14.77,14.77,0,0,1,282.72,84.76Zm1-3.63-1.91.41a3.06,3.06,0,0,0-.36-1.08l2.09-2A6.39,6.39,0,0,1,283.7,81.13Zm-2.37-4.79a2.85,2.85,0,0,1,1.79,1.23L281,79.92a3.34,3.34,0,0,0-.54-.44,1.85,1.85,0,0,0-.58-.25Zm-2.5.23a5,5,0,0,1,1.82-.32l-1.15,2.91a3,3,0,0,0-1,.12Zm1.52,3.32c2,1.3,1,4.19-.29,6.52-1.39,2.48-4.28,4.28-5.81,3.47-2.24-1.19-1.14-4.79.29-6.93a7.15,7.15,0,0,1,.53-.7l.23,1,.21.46.52,0a11.62,11.62,0,0,1,.78,1.47l-.14,2.08c0,.29,0,.5.07.5h1.05a3.19,3.19,0,0,0,.14-.53c0-.11.72-.47.8-.5s0-.34,0-.34l-.14-.07-.87-1.39,0-4.88A2.67,2.67,0,0,1,280.35,79.89Zm-3.29,2.56-1.22-1,.24-.14a8.86,8.86,0,0,1,1-.87l.16-.11-.06,2Zm0,.39-.07.69-.34-.3.25-.48Zm.1-5.46.13,2.41a8.24,8.24,0,0,0-1.4,1l-1-1.63A13.12,13.12,0,0,1,277.18,77.38Zm-4.39,4.34a15.39,15.39,0,0,1,1-1.31l1.16,1.43a8.7,8.7,0,0,0-.69.91,12.29,12.29,0,0,0-.76,1.34l-.14,0s.11-.32-.21-.37-.64-.18-.85-.18-.22.05-.31-.07a.46.46,0,0,1-.1-.21A15,15,0,0,1,272.79,81.72Zm-1.5,2.8.54.06.66,0a3.13,3.13,0,0,0,.43,0c.08,0,.21,0,.31.1a8.68,8.68,0,0,0-.57,2.15h-.49a2.83,2.83,0,0,1-.77.38c-.37.09-.6.23-.76.19a.59.59,0,0,1-.2-.12A13.17,13.17,0,0,1,271.29,84.52Zm-.48,6.83a5.11,5.11,0,0,1-.54-2.5l.18-.07c.1,0,.28,0,.4-.12s1-.61,1.18-.7a.92.92,0,0,1,.25-.12l.34,0a3.2,3.2,0,0,0,.34,1.29,4.26,4.26,0,0,0-.31.34s-1.58,1.42-1.58,1.48a.61.61,0,0,1-.09.21Zm1.5,1.47A3.48,3.48,0,0,1,271,91.71a1,1,0,0,0,.25-.14c.05-.07.23.23.23.23l.36-.12c.1,0,1.42-1.71,1.42-1.71l.2-.12a1.81,1.81,0,0,0,.46.32,1.59,1.59,0,0,0,.27.12.79.79,0,0,1,0,.3c-.06.2-1,2-1.24,2.47A2.41,2.41,0,0,1,272.31,92.82Zm1.06.3.21-.37.06.39Z" fill="#004990"/><path d="M290.05,89.23l2.52-1.17.14-21-2.49,1Zm.78-20.79,1.43-.7-.12,19.83-1.43.7Z" fill="#004990"/><path d="M313.45,94.56c2.59-.9,2.42-6.54.27-11.09-1.88-4-5.17-6.68-7.78-5.85s-2.6,5.4-.92,9.47S310.37,95.63,313.45,94.56Zm-3.16-.92c0-.27.1-.87.14-1.19a2.8,2.8,0,0,0,1.08.23l.25,1.56A4.35,4.35,0,0,1,310.29,93.64Zm3,.49-.17.06-.58-1.69a1.94,1.94,0,0,0,.6-.41l1.07,1.4A1.93,1.93,0,0,1,313.25,94.13Zm1.45-1.57-.18-.19.16-.14.08.14Zm.15-.53c-.26-.2-.92-.73-1.17-1a4.56,4.56,0,0,0,.18-1.17l.87.3.29,0A7.82,7.82,0,0,1,314.85,92Zm.08-3c-.29-.11-.87-.26-1.15-.34a12.29,12.29,0,0,0-.49-2,2.12,2.12,0,0,1,.69-.32l.36,0A15.94,15.94,0,0,1,314.93,89Zm-5.18-8.19c.14-.11.18-.64.18-.93s.05-.51.25-.51h0a14.68,14.68,0,0,1,3.22,4.5c.21.46.41.93.59,1.41l-1.12.26c-.1-.22-.19-.44-.3-.66a11.34,11.34,0,0,0-3-4A.27.27,0,0,0,309.75,80.85Zm-.41,1.92.11,2.24-.18.09a17.28,17.28,0,0,1-1-1.8c0-.21-.19-.69-.23-.94s-.48-.62-.59-.78-.39-.32-.55-.54,0-.37.07-.54a2.53,2.53,0,0,1,2.17.43ZM306.13,78a3.21,3.21,0,0,1,2.17.14c.08.12.2.27.24.34a15.68,15.68,0,0,1,.13,1.81,2.74,2.74,0,0,0-1.79-.29,3.38,3.38,0,0,1-.44-.51c0-.08-.38-1-.54-1.4Zm-1.33,1.13c.18.28.6,1,.66,1a2.53,2.53,0,0,0,.32.3l.06.13a3,3,0,0,0-.72,1.84.62.62,0,0,1-.37-.08l-.49-.33A5.59,5.59,0,0,1,304.8,79.17Zm.68,6.85L305,86a16.33,16.33,0,0,1-.51-2,1.59,1.59,0,0,1,.49.13l.22.2a10.15,10.15,0,0,0,.33,1.46Zm.54-4.77a2,2,0,0,1,.35.68,3.28,3.28,0,0,0,.66,1.25,15.87,15.87,0,0,0,1,1.24l1.46,2.44a4.88,4.88,0,0,1,.09,1.19c-.07.32-.21.36.12.87s1-.14,1.43-.55a1.53,1.53,0,0,0,.39-1.12c0-.11-.36-.53-.36-.6s-.32-.06-.32-.06l-.55-.71-.66-3.82.07-.63a11.76,11.76,0,0,1,2.48,3.62c1.59,3.36,1.67,6.49-.13,7-2.06.63-4.34-2-5.58-5C305.56,84.81,305.34,82.46,306,81.25Zm.68,8.4a15,15,0,0,1-.82-1.52l.12-.19h.36c.23.45.47.9.74,1.33Zm1.44,1a8.21,8.21,0,0,0,1,1l-.27.85a12.79,12.79,0,0,1-1.25-1.45Z" fill="#004990"/><path d="M314.82,122.88l1.19.55,1.14,37.68h5.62l-1.18-41.24a2.73,2.73,0,0,1,.22-1c.18-.22,1.05-1.14,1.23-1.28a1.2,1.2,0,0,1,.55-.13l.92.55.18-.37c-.09-.07-.43-.26-.43-.26s-.15-.18-.09-.27l.21-.28a3.28,3.28,0,0,1-.7-.61c-.15-.24-1.27-2.71-1-7.06a2.24,2.24,0,0,1-.25-.58l1.25-1.25v-.43l.34-.51-.37-.37-.24.43-.91-.58-.91-21.75a3.13,3.13,0,0,1,.84-1.16,1.26,1.26,0,0,1,.8-.15c.18.09.94.58.94.58l.22-.12.06-.43-.43-1s-.12-.28-.49-.06a5.55,5.55,0,0,1-1,0l-1.25-.61-.12-1.56-.22-.36,0-.58s.27-.37.2-.58a4.22,4.22,0,0,0-.42-.76l-.21-1.68,0-1.06a3.05,3.05,0,0,0,.18-.67c0-.09-.21-.28-.24-.4s-.13-.21,0-.43.33-.42.18-.57a12.76,12.76,0,0,1-.52-1.92l-.33,1.64s-.22.15-.22.31a1,1,0,0,0,.25.49.65.65,0,0,1,.09.33.82.82,0,0,0-.15.33,2,2,0,0,0,.11.89,3.9,3.9,0,0,1,0,1.25l-.91-.64a6.28,6.28,0,0,1-.12-.64,4.14,4.14,0,0,1,.15-.8c.06-.15-.24-.6-.24-.6a.3.3,0,0,0-.18.08c-.09.1-.49.46-.49.46v.76l-.27-.21V71.53l1.09-1,.06-.74-1-1.09V62.91h-.31v5.15s-.42.06-.54-.61-.54-2.25-.54-2.25V59.43h1.93v-.54h-1.93V56.21H316v2.68h-1.87v.54H316v4.24a2.25,2.25,0,0,1-.19.79c-.19.4-.55,1.35-.71,1.37s-.12.1-.39-.18c0,0-2.44-2.52-2.71-3.93a22.89,22.89,0,0,0-.76-2.8l-.73.7s-.28.09-.37-.09-2.19-3.5-2.8-4.72-1.4-2.56-1.43-2.74a.84.84,0,0,1,.18-.58,2.86,2.86,0,0,0,.76-2c-.15-.95-.12-1.16-.18-1.43s-.12-.89-.12-.89l-.37-.06-.12.58-.09-.06,0-.73.45-.61-.36-.42v-1a5.12,5.12,0,0,0-.09-.85,3.53,3.53,0,0,1-.12-.61l-.06-1,.12-.09v-.54l-.58,0,0,.55.15.28-.09,1.27-.7-.54,0-2.83a1,1,0,0,1,.64,0c.21.12,2.22,2,2.22,2l.25-.3s-4.21-5.54-5.52-7.83-6.39-11.57-7.49-17.18c-.34-1.43-1.1-6.24-1.22-7.73a3.09,3.09,0,0,1,.82-.86l.37-.06s0-.42-.06-.42-.09.06-.31-.12a6.5,6.5,0,0,1-.64-1.41c0-.09-.18-.09,0-.3s.52-.46.34-.61A9.43,9.43,0,0,1,293,5V3h.34a.6.6,0,0,0,.59.47H294l.19.14a2.83,2.83,0,0,1,.42.91s0,0,0,0a.61.61,0,1,0,.6-.71h-.11l-.6-.87a.57.57,0,0,0,0-.13.61.61,0,0,0-1-.48v0H293V1.73a.87.87,0,1,0-.61-.05v.63h-.23a.63.63,0,0,0-.44-.18.61.61,0,0,0-.61.61c-.1.3-.33,1.08-.62,1.26l0,0a.62.62,0,0,0-.43.59.6.6,0,0,0,.61.6.6.6,0,0,0,.51-.93v0a2,2,0,0,1,.49-.91h.09A.62.62,0,0,0,292.3,3h.1V5a.82.82,0,0,1-.27.18c-.28.12-.53.14-.61.21a1.6,1.6,0,0,0,0,.81,4.37,4.37,0,0,1-.6,1.44,3.58,3.58,0,0,0-.27.38s-.09.38,0,.45a7.51,7.51,0,0,1,.72.55.74.74,0,0,1,.09.31s-1.28,7.06-2.3,9.32c-.33.85-5.19,12.33-6.93,14-.3.59-3.17,4.79-5.63,5.83a2.63,2.63,0,0,0,.33.46l.64-.37.52.31,1.22-.88,0,3.56-.42.46,0,2.28s.21.37.18.52-.09.79-.09.79l-.27,0-.07-.43h-.51L278,47.8l-.55,1v.33l1.09.46.4.43s-2.68,4.63-3.72,5.94-3.92,5.14-4.32,5.27-2.56,1.28-2.56,1.28V56.79h1.5v-.73h-1.65V53.84h-.49v2.22H266v.7h1.64v6.15l-.73.34-.21-.07V60.9h-.49v2.81l-2.22.94V65l2.13-.73v1.43l-1.71,1.74-.3.06s-.31,1.22-.4,1.4a8,8,0,0,0-.46,1,1.64,1.64,0,0,0,.22.46l0,.42a2.6,2.6,0,0,0-.34.52c0,.09,0,.39,0,.39l.09.22-.16,3.11.22.3-.1.21-.82.49-.06,1.19.22.36v1.16a9.24,9.24,0,0,0-1.41-.15,1.6,1.6,0,0,1-.73.15c-.12-.06-1-.27-1-.27s-.28,0-.37.09,0,.27.16.3.6.18.6.18l-.3.37s-.21.06-.25.18a15.36,15.36,0,0,0,.31,1.56l.52-.25.06-.67h.27s0,.43.07.49,1.09,1.31,1.09,1.31l-.73,20.53s.12,0,.09.21-.09.73-.33.83a.32.32,0,0,1-.46-.22c0-.15-.3-.42-.3-.42l-.16.12s.31.7.25.82a.71.71,0,0,1-.28.21l-.24.15.39.58v.77l.31.36-.12.33a4.45,4.45,0,0,0,0,.68l.21,0,.18-.16-.12,7.5-.82.64-.85,0v.37l.18.12-.15.4-.12,1.22.48.09.28-1.16.27-.3a8.08,8.08,0,0,1,1.28.33c.18.12.3.61.3.61l.58,1.86v.2l-2.24,42.38h1l1.69-36.22.5-.31.14-6.68.27-.09-1.46,43.3h1.1l1.18-36.58.65.18-.74,36.4h.92l.77-36.53.42-.28.13-1.51.23-.09-.55,38.41h.42l.22-11.68,2,0,.5-27.55s.27-.41.5-.41.78-.13.87.09-.41,24.77-.41,24.77l-.23,0,.09,14.7h.46l.09-12.41,2.15-1.23v-26a1.6,1.6,0,0,1,1.32-.54c.05.13-.13,40.14-.13,40.14h.5l0-14.7,1.65-2.28-.19-23.35c.14-.27.6-.41.74-.45s.63-.23.73-.1c-.05.83,0,40.88,0,40.88h.45l-.09-19.68.18,0,1.05-1.55-.23-19.29a1.35,1.35,0,0,1,.37-1c.14-.09,1.1-.68,1.19,0s.18,41.65.18,41.65h.46l0-23.1,1.69-1.38L282,118.09a.67.67,0,0,1,.32-.55c.23-.19,1.09-1,1.05-.09s.46,43.66.46,43.66h.45l-.09-25.53,1.28-.68-.37-18.46c.1-.32.05-.45.37-.45s.91-.37,1,0,.42,17.36.37,17.63a7.12,7.12,0,0,0-.18.78c-.05.73.32,26.71.32,26.71h.36l.05-26.8,1.46-.42.55,27.22h.45s-.54-48.09-.54-48.23-.23.27,0-.14a1.71,1.71,0,0,1,.54-.68c.19-.14.46-.32.51.27s.87,48.78.87,48.78h.41l-.91-53.48,0-.37H291l1,53.85h.41l-.78-49.56a.23.23,0,0,1,.18-.27c.23,0,.46,0,.46.32s.82,49.51.82,49.51h.41l-1-54.58s.33-.37.33-.19,1,54.77,1,54.77h.37l-.83-49.42s.05-.41.23-.41.64-.14.78,0,.41.23.37.78.82,49,.82,49H296l-.87-54.22v-.55s.27-.13.27,0,1.06,54.72,1.06,54.72h.45l-1-49.24s0-.64.19-.59a.59.59,0,0,1,.36.23,1.57,1.57,0,0,1,.28.86c0,.28,1.27,48.74,1.27,48.74h.51l-1.42-54.31.23.18,1.55,54.13h.55l-1.42-48.87s0-.14.19-.23.13-3.65.13-3.65l.28-.19,0,4.3a2.14,2.14,0,0,1,.14.59c0,.23,1.14,48.05,1.14,48.05h1.78l-1-45.08s0-.5.14-.55a1.47,1.47,0,0,1,.59,0,.92.92,0,0,1,.51.78c0,.37.86,44.85.86,44.85h1.65s-.82-41.19-.82-41.52V118.5s-.32-.78-.19-1,.37-.5.69-.32a3.23,3.23,0,0,1,.78.46c.09.14.18.18.09.41a2.88,2.88,0,0,0-.18,1.28c0,.6.77,41.79.77,41.79h2l-1.09-42.38a.75.75,0,0,1,.37,0c.13,0,.77.41.77.41l.92,42h1.73l-1.09-41.29,1.14.46,1.14,40.83h2.1l-1.14-39.78,1,.55,1.37,39.23h1.19Zm-20-33a.3.3,0,0,0-.21-.16l-.65.22h-.42v-.29l.54-.66,1.14.4v0s0,.18-.06.21a.92.92,0,0,0,0,.46c0,.18.29.32.36.35s2,.9,2.05.95a.24.24,0,0,1-.07.28.8.8,0,0,1-.32.22,1.43,1.43,0,0,1-.53-.28L296,91l-.34,0A8.66,8.66,0,0,1,294.85,89.87Zm.11.93v8.28l-.2,0-.81-.49s.22-8.18.26-8.36.38,0,.38,0Zm-4.61,7.9v0s0,.49,0,.53-.08,0-.08,0,0,.17,0,.21-.08,0-.08,0V98.7Zm-.17-.21v-.31h.15v.31Zm-.1-.62V94.08l.3.18v3.8Zm.14,2,.25.21.18-.14s.15-5.33.15-5.75S290.89,93,291,93s.13.17.13.17.06.71.09.76,0,5.57,0,5.57,1.12-.44,1.16-.48a3.32,3.32,0,0,1,.71,0l.14-.23h.07a2,2,0,0,0,0,.32s-.61.31-.61.31l-2.31,1s-.41-.27-.41-.35S290.22,99.83,290.22,99.83Zm1.57-7.17-.43.23-.07,0,0-.23s.43-.22.52-.25S291.79,92.66,291.79,92.66Zm1,.27v5.5l-1.18.53v-5.5Zm.32-3.28-.16.18L289,91.39c-.66.25-.48.36-.59.63s.18.26.18.26a4,4,0,0,1,.48-.12c.16,0,3.93-1.74,3.93-1.74l0,.53s-4.07,1.92-4.16,1.92a6.9,6.9,0,0,1-1.21,0c-.28-.07-.46-.37-.73-.71s.34-.55.48-.64,5.73-2.26,5.73-2.26ZM271.4,105.28l.23.52-.4.35c-.12,0-.33-.43-.38-.61s-.13-.42,0-.59,0-.16.14-.31.36-1,.47-1.23,0-.61.06-.84.21-.3.35-.27.14.36.14.56a5.26,5.26,0,0,1-.13,1.25,2.8,2.8,0,0,1-.33.74A.61.61,0,0,0,271.4,105.28Zm.64-.55c.09-.13.2-.33.2-.33l.07-.47.08,0a6.14,6.14,0,0,1,0,1,.82.82,0,0,0-.08.35.56.56,0,0,0,.16.32c-.1.27-.34.19-.43.18s-.14-.25-.18-.38A1.14,1.14,0,0,1,272,104.73Zm.21,2.94c.05,0,0-1.37,0-1.45s.44,0,.44,0l.28.29s0,.84,0,1.08-.12.32-.17.45-.17.3-.32.31a.4.4,0,0,1-.29-.13,3.67,3.67,0,0,1,0-.52C272.16,107.64,272.21,107.67,272.25,107.67Zm.7,1h.28l-.06.08H273c-.05,0,0,.07-.05.11s-.08-.06-.08-.06Zm-4.78-7.1s-3,1.49-3.32,1.73-.48-.12-.52-.33a.6.6,0,0,1,.28-.49l1-.64.7-.09,19.89-9.41.4.43Zm0,5.31.23.53-.4.34c-.12,0-.33-.42-.38-.61s-.14-.43-.05-.59.14-.14.23-.29.37-1,.47-1.23.08-.54.17-.76.22-.31.35-.28.14.37.14.56a5.2,5.2,0,0,1-.23,1.18,3.06,3.06,0,0,1-.43.73A.55.55,0,0,0,268.19,106.86Zm.21,1.42.08-.06s0-.35.12-.37l.13.11v.46s-.09-.08-.09,0,0,1,0,1a.21.21,0,0,1-.12.06c-.06,0-.12,0-.12-.2S268.4,108.28,268.4,108.28Zm.31-1.89c0-.06.22-.23.28-.27s.06.53.06.53l.07.11V107c-.08.06-.15.11-.22.09s-.18-.18-.18-.18A4.53,4.53,0,0,1,268.71,106.39Zm.41-.36-.09-.16a.74.74,0,0,0,.06-.18s0-.15.09-.15,0,.35,0,.35Zm.16,3c.05,0,0-1.37,0-1.44s.44,0,.44,0l.27.29s0,.83,0,1.07-.12.32-.17.45-.17.3-.32.32a.44.44,0,0,1-.29-.14,3.67,3.67,0,0,1,0-.52C269.19,109,269.24,109,269.28,109Zm-2-1.1,0,2.68h-.17v-2.68Zm-1.4-1.15-.15.15-.07-.18v-1.37a2.31,2.31,0,0,1,.22-.15A8.9,8.9,0,0,1,265.89,106.79Zm-.64.4-.4.6,0,.1s0-2,.09-2,.28-.09.28-.09Zm-.43-25.81c-.17.09-.14.39-.14.39s-.76,19.89-.78,20.26-.18.43-.25.46a8.21,8.21,0,0,0-1,.43c-.16.11-.21-.16-.21-.16l.71-21.45s2.13-.8,2.28-.77.07.45.07.45l-1,20.72.05.18-.3,0s1-20.22,1-20.36S265,81.29,264.82,81.38Zm5.86-7.52c.11-.17.12-.23.28-.23s.37,0,.39.22,0,.88,0,.88-1.76.84-1.76.84l0-.81h.16s.07.28.16.33.46.24.49-.06a2.57,2.57,0,0,1,.06-.64c.06-.09.28-.06.26-.23S270.58,74,270.68,73.86Zm.46-.84-1,.43a3.83,3.83,0,0,1-.5-.71c-.07-.2.18-.46.18-.46l1.46-.89.25,0Zm-1.37.89v.44l-.21,0v-.44Zm-.11,2.42a2.45,2.45,0,0,0,.41-.11c.09,0,10-5.15,10-5.15l7-3.42.35-.09a1.91,1.91,0,0,0,.08-.34c0-.1.21-.28.35-.28s.34,0,.34.28S288.18,87,288.18,87l-.11,0,0,3.4a.37.37,0,0,1,.06.23c0,.16,0,.39-.32.46a7.58,7.58,0,0,0-1,.25c-.12.07-10.26,5-10.26,5s-8.41,4-8.48,4a1.79,1.79,0,0,0-.52.15c-.07.07-.5.42-.5.42s-.44.32-.55.18-.12,0-.12-.39.07-1.74.07-1.74l1-19a7.35,7.35,0,0,1,0-.94c0-.07.09-.39.21-.41a.23.23,0,0,1,.29.25c0,.26-.23,10-.23,10l-.13,0s-.46,10.8-.5,11a2.1,2.1,0,0,0-.05.46l7.45-3.56,11.49-5.37.23-9.62L286,81.7a.14.14,0,0,0-.16.14c0,.15-.14,1.09-.14,1.09s0,.5-.18.53-.32.22-.39,0a2.22,2.22,0,0,1,.23-.91,26.58,26.58,0,0,0,.46-3.2c.09-1,.11-3.08.11-3.08l.21-.14s.07-6.07.07-6.14.09-.35.23-.39.25.11.27.36-.19,20.74-.19,20.74,0,.26.12.26.37,0,.37-.26.11-21.56.11-21.56.05-.34-.13-.36a1.56,1.56,0,0,0-.74.27c-.2.11-17.15,8.18-17.15,8.18s-1.58.75-1.67.75-.57.09-.57.09l-1.19,23.1s-.5.73-.52.27S266.28,78,266.28,78l.87-.39.11,0,.36,0L268.7,77A6.65,6.65,0,0,1,269.66,76.33Zm2.08-3.26s0-.47,0-.56.17,0,.17,0l0,.6Zm3.45-.68H275v-.17h.18Zm0,.55-2,1,0-1.19,1.21-.67.28.94.55-.27Zm-.08-1.27s-.27-.06-.27-.06V71l.3,0S275.14,71.62,275.14,71.67Zm-.82-.14-1.3.53-.57-1s2.35-1.23,2.42-1.23Zm-1.64.86a4.3,4.3,0,0,1,0,.6l-.32-.08V72Zm-.05,1c.05,0,.08.85,0,.85a2,2,0,0,1-.32-.06v-.55A.29.29,0,0,1,272.63,73.38Zm5.46-2.68c0,.06,0,.82,0,.82l-.34.18.09-1S278.1,70.64,278.09,70.7Zm-.25-.57v-.38l.2,0,0,.41Zm-.51,0-1,.48-.74-1.21s2-1,2-1l.13.14Zm-.92,1s.8-.46.88-.52,0,.91,0,.91l.12.11v.15l-1.69.85s-.16-.83-.16-.88.3,0,.3,0a.3.3,0,0,0,.32.37c.2,0,.23-.12.23-.12Zm-.46-.07c-.05.07-.06.28-.17.3s-.24-.13-.24-.13a3.4,3.4,0,0,1,0-.64C275.59,70.6,276,71.1,276,71.13Zm4.66-.78-1.08.56-.09-1.14v0a4.38,4.38,0,0,1,.79-.41.23.23,0,0,1,.2.11v.79Zm-.19-1.74-1.05.59-1-1.09S280.6,67,280.74,67Zm-1.21,2.44-.61.27-.06-1.07.37-.06.09.46.2.26Zm-.36-1.6,0,.36h-.36l-.06-.73Zm2.28.24h.21V70h-.21Zm-.07-.18v-.3h.09v.3Zm.1-.86H281V68.4h.18Zm2.27-1.32-1.05.36-.93-1,0-.18,1.76-.87.52.23,0,.94Zm.28,1.23s-.57.43-.7.5a.39.39,0,0,1-.38,0c-.08,0-.14-.42-.08-.45s.06-.11.13-.4.72-.44.72-.44l.08.12,0,.4Zm-2,.4.38-.21v.77l-.38.22Zm-.13-.59v-.63l.31.31,0,.32Zm2.43-.56c0-.1.33-.09.33-.09s.09.49,0,.51-.32.07-.33-.06A2.49,2.49,0,0,1,284,67.81Zm.47-11.54.9-2,1.27-.66-.78,2Zm1.34,3.82a2.23,2.23,0,0,1-.73,1.48c-.48.44-.61,0-.59-.25s.34-.63.46-1a10.49,10.49,0,0,0,.07-1.35s.34-.42.66-.16S285.78,59.76,285.78,60.09Zm-12.54,5.32s.62-.27.67-.16a6,6,0,0,1,0,1.21c-.05.32-.19,1.26-.49,1.37s-.5.12-.48-.11.19-.69.25-.94A8.69,8.69,0,0,0,273.24,65.41Zm.3-3.47-1.18.62,2-2.64.77-.4ZM276,59.05l.95-.49-1.34,2.31-.89.46Zm-.06,6.11a11.84,11.84,0,0,0,.11-1.33s.62-.27.66-.16a4.82,4.82,0,0,1,0,1.21c0,.32-.06,1.08-.59,1.37-.27.16-.73.17-.71-.06S275.87,65.41,275.94,65.16Zm.64-4.81,1.36-2.3,1.25-.64L278,59.63Zm8-16.38-.41.21v-.69l.41-.2Zm0,.51v.59l-.4.18v-.58Zm0,3.17.78-.41-3.8,8.28-1,.53C281.4,55,284,49.12,284.67,47.65ZM286.51,43l-.4.2v-.69l.4-.2Zm0,.51v.58l-.4.19v-.58Zm.37,3-3.59,8.19-.79.41,3.56-8.16Zm1.57-4.6-.41.21v-.69l.41-.2Zm0,.51V43l-.4.18v-.58Zm0,3.25L285,53.79l-.73.38,3.31-8.05ZM279.8,56.48l-1,.54,4.54-8.64.75-.4Zm-1.05,8a7.4,7.4,0,0,1,.34-.87,8.86,8.86,0,0,0,0-1.44s.61-.27.66-.16a6,6,0,0,1,.09,1.42c0,.32-.27,1.19-.57,1.3S278.68,65.2,278.75,64.52Zm.2-5.4c.2-.38.84-1.6,1.18-2.2l.85-.43c-.2.45-.68,1.49-1,2.07ZM282,56l.68-.35c-.22.46-.73,1.55-.95,2l-.1.06-.79.41Zm-.08,5.84a11.9,11.9,0,0,0,.06-1.33s.62-.34.76-.08a8.35,8.35,0,0,1,0,1.27,2.66,2.66,0,0,1-.78,1.76c-.45.21-.52,0-.5-.21S281.85,62.05,281.93,61.8Zm.67-4.58,1-2.08,1-.49-1.14,2.15ZM286,53.28,289,45.34l1.07-.56-2.92,7.87Zm6.25-14.78V32.87h.25v5.42Zm.33.63v.56h-.26v-.56Zm-.11,1.27a3.45,3.45,0,0,1,.29.27l0,0-.3.18h-.16s0-.4,0-.45S292.44,40.4,292.44,40.4Zm0,3.14.76-.4-2.63,7.73-.75.39ZM293,40l.26-.2.33.33-.47.35,0,0L293,40.4Zm-.11-.73v-.66h.51l0,.49-.19.17Zm.58-1.57-.62.46V32l.62-.34Zm.05,13.79.2-1.62.57-.29v.07L294.28,51l-.64.49Zm.87,2.32h0l0,5.85-1.26.72-.24-.26.17-5.39s.16-.39.21-.4Zm-.91-4.49-.68.36,1-2.92.23.13v0l.05.43Zm-.35.86c-.1.37-.36,1.38-.47,1.8l-.07,0-.81.42c.07-.34.29-1.31.41-1.78Zm1.18,10.19.14.24L288.4,63.7l-.22-.21Zm2.38-5.06v5.75l-.49-.32.11-5.68Zm-.34-14.07.34.25,0,.65-.3-.25Zm3.87,23.13,0,.63s-.53,1.06-.53,1.11,0,.24,0,.24h1.56c.33,0,.6.41.6.41l.05.26-1.38.15c-.05,0-.41.24-.49.26s-.35-.33-.41-.41-.23-.09-.23-.09-.06-.25-.08-.38-.91-.54-1-.58,0-.2,0-.2l.26-.09.26-.84s.3.29.3.43a1.55,1.55,0,0,1-.12.38l-.08.18,0,.3.34,0,.41-1.24-4.6-3.52-.05-.46.31,0,.17.47.5.05Zm-3.21-8.66.38.26v4l-.48-.33Zm0-13.94.48.32v.66l-.46-.32Zm1.32,1v.65l-.46-.32,0-.65Zm-.46-1.32v-.8h.19v.8Zm.17,15.08,0,2.91-.49-.32.1-2.85Zm2-12.49,0,.66-.46-.32V44h0v-.77l.32.09v.57Zm-.18-1.26-.32-.09v-.78l.32.09Zm-.1,16.76.55-.56s.76.45,1,.64a5.18,5.18,0,0,1,.85.78c.06.15,0,.54.07.72l.17.27s.06,2.66,0,2.72-.11.25-.25.23a.61.61,0,0,1-.39-.31,9.22,9.22,0,0,1,.06-1,15.4,15.4,0,0,1,.09-1.74A1,1,0,0,0,302,61c0-.06-.09-.15-.12-.21s-.2-.06-.26-.09a.55.55,0,0,1-.23-.23.87.87,0,0,0-.21-.27,9.61,9.61,0,0,0-1-.35.88.88,0,0,0-.41,0c-.06,0-.05.17-.05.31a.34.34,0,0,1-.07.21s0,2.33,0,2.39.24.21.31.26,0,.21-.07.3-.15,0-.15,0l-.42-.24L299,62.8s0-2.52.07-2.78.12-.31.28-.34A3.22,3.22,0,0,0,299.77,59.54Zm.65-15.23.57.39v.65l-.55-.38Zm1,.77.49.32,0,.66-.45-.33Zm1.28,21.85s0,1.65,0,1.8-.07.11-.19.12-.47-.35-.5-.41a1.51,1.51,0,0,1,0-.36l.48-1,.07-.49.1.11v.19Zm1.2.54s0,1,0,1.29-.06.37-.22.41-.22,0-.32-.15a3.53,3.53,0,0,1-.24-.46l0-1.43Zm-.54-20.35-.26-.12,0-.66.29.13Zm1.75,24.09h.37l.73.7.39,0s10.33,7.28,10.75,7.65a10.12,10.12,0,0,0,1.47.91.53.53,0,0,0,.24.09l1.15,23.31,0,.39s-.25.15-.31-.18-.09-.46-.09-.46l-.4-.15L301,92.63l-.37-.1-2.28-1.18-.12-.16-.77-.36a.69.69,0,0,1,.15-.37c.13-.09.16,0,.16,0l.09.19,1.22.6,0-5.42L299,69.51l0-1.22,0-1-.4-.21-.18,1.5-.55-.4V66.49l-.24-.18-.09,1.34,0,20.74-.52-.3,0-22.3-.43-.24-.15,1.13-.88-.55V64.76l.24-.16L299,67h.27l.31,24.64,1.06.49.18-.49-.12-23.94.77-.12,0,.21-.49.34v.39s.24.18.24.28.27,22.66.27,22.66H302l.07-7.83.48,1.16.15,6.7,4.91,2.83.09-.45a24.82,24.82,0,0,1-4.91-9.57c-.12-.36-.55-1.8-.55-1.92a.49.49,0,0,1,.22-.52c.27-.15.24-1.64.24-2.13s.22-2.8,1.37-3.29a4.43,4.43,0,0,1,4.23.13,15.47,15.47,0,0,1,4.94,4.84c1.1,1.89,1.83,3.29,1.95,3.5s.19.61.31.61.3-.09.18-.4-2.56-5.81-5-7.73-3.53-2.75-4.87-2.53a3.68,3.68,0,0,0-3.26,2.41c-.06.3-.18.82-.18.82s-.33.24-.21-.28a6.24,6.24,0,0,1,1.24-2.71A2.91,2.91,0,0,1,306,74.2a8.86,8.86,0,0,1,3.48,1.58,19.4,19.4,0,0,1,5.54,6.76c1.25,2.93,3,6.46,2.68,9.29s-.42,4.18-1.25,4.88-1.86,1.55-3.41.91c0-.15,0-.12.15-.15s2,0,2.71-1,1.43-1.79,1.43-2.95a7.3,7.3,0,0,0-.6-3.78s-.13-.18-.22,0a22.06,22.06,0,0,0,0,2.38c0,1.09-.3,3.5-1.7,4.17s-1.71.7-2.26.52-.7-.28-.82-.16.06.52-.12.46-3.38-2.13-3.59-2.74c0,0-.25,0-.25.12A15.68,15.68,0,0,0,309,95.73c-.09.06-6.91-4-6.91-4l-.16.19,17.36,10.47L318.37,81s-7.46-4.87-7.65-5-8.5-6.06-8.77-6.21-.27-.61-.12-.55S305.09,71.21,305.09,71.21Zm.34-.64s0,.25,0,.29-.14,0-.23,0S304.1,70,304,69.89a.21.21,0,0,1,0-.27,1.94,1.94,0,0,1,.31-.29l0-1.45.23,0,.88.76,0,.28s0,1,0,1.1,0,.06-.11.21S305.43,70.57,305.43,70.57Zm2.81,2.11c.05,0-.05.21-.05.21l-1.56-1.19.61-.69.12-1,.76.47s0,1.47,0,1.54l-.08.22s0,.22,0,.28S308.19,72.66,308.24,72.68Zm1,.8a5.37,5.37,0,0,1,.58-.59s0-1,0-1.08l.81.42.08,2.32S309.26,73.5,309.21,73.48Zm4.05,2.57s-.12.14-.12.14-1.23-.87-1.25-.93a3.27,3.27,0,0,1,.48-.59s0-1,0-1.11l0-.12,1,.73s-.19,1.48-.24,1.7S313.24,76,313.26,76.05Zm-1.3-1.7s-.19.29-.33.23a1.27,1.27,0,0,1-.42-.41,2.23,2.23,0,0,1-.12-.52c0-.19,0-1,0-1h.28a5.31,5.31,0,0,1,.62.49S312,74.35,312,74.35Zm2.52,2.16s-.71-.59-.71-.59l0-1.57.75.52S314.45,76.47,314.48,76.51Zm.45.14c0-.06.08-1.32.08-1.32l.94.59L316,77.2l-.18.64-.15,0s-1.13-.69-1.13-.73A3.84,3.84,0,0,1,314.93,76.65Zm1.55,1.22a.2.2,0,0,1-.14-.09s.05-1.13.09-1.27l.69.39v1Zm1.08.18s0-.73.06-.84.2,0,.33,0,.22.18.22.18l.05,2-.32,0a10.37,10.37,0,0,1-.81-.82Zm2.36,29v2.71l-.76-.52v-2.71Zm-2.47,1.28-.83-.5-.09-2.68.83.5Zm-2.64-4.14V107l-.86-.52v-2.8Zm-2.47-1.58v2.8l-.94-.61V102ZM309.66,101v2.8l-1-.6v-2.81Zm-2.74-1.46v2.8l-.95-.61V99ZM304.3,98v2.81l-.95-.61v-2.8Zm-2.78-1.61v2.8l-.94-.6V95.76Zm-5.78-6.76V89.2c.19-.2.29.11.31.18s.08.3.08.3V90h-.27v-.41ZM295.66,64l.34-.69.12.06s-.11.89-.11.89Zm.69.5s.14-.41.14-.41l.09-.73.32.13V64l-.32.62S296.33,64.5,296.35,64.45Zm.7.55v-.27l.21-.52.05-.5a2.7,2.7,0,0,0,.32.19l0,.55-.09.49-.12.27Zm1.29.56a1.64,1.64,0,0,1-.12.22,4.38,4.38,0,0,1-.41-.38c0-.07.26-1.13.27-1.2s.43.33.43.33l-.17.67A1.41,1.41,0,0,1,298.34,65.56Zm4.22,9.7c0-.83,1.25-1.79,2.05-2.05a2.9,2.9,0,0,1,2.32.41c.05,0-.07.18-.24.12a10.48,10.48,0,0,0-1.63-.13c-.48,0-.61.1-1.2.44a3.49,3.49,0,0,0-1.12,1.32C302.62,75.57,302.6,75.4,302.56,75.26Zm15.57,15.9c0-.09.15,0,.15,0l.39,6.61.19,3.87-6.34-3.8,5.82,2.65.06,0S318.1,91.25,318.13,91.16ZM318,90l.25,0v1l-.15,0Zm.06-.31-.48-8.22h.24l.54,8.16ZM301.33,64.85h.29l.15.12,0,1-.41,0a.24.24,0,0,1,0-.1,3.66,3.66,0,0,0-.81,0s-.07-.5-.06-.56a3.61,3.61,0,0,1,.27-.37Zm-.51-.62V60.66l.49.38-.09.4-.06,0,0,2.71-.1.08ZM299.15,44l-.46-.32V43l.49.32Zm-3.81,44.14-.67-.4-.06-22.26.34-.34H295Zm-.49.44-.09.14v0l-.32,0a1.84,1.84,0,0,1,0-.38.14.14,0,0,1,.18-.08C294.66,88.25,294.85,88.56,294.85,88.56Zm-.61-.9s-.18.34-.3.52-.25,0-.25,0,.07-22.3.07-22.45.24-.18.24-.18Zm-5.45-20,.49-.24-.18,22.93-.49.25Zm-.18-3.44c0-.08.39-.17.39-.17a6.44,6.44,0,0,1,.43.76v.55l-.23,0S288.64,64.25,288.61,64.18ZM289,67l-.07-.79,1-.49.22.73Zm.46-3.22.17-.1.3.77-.16.11Zm.58-.3.17-.11.31.78-.17.11Zm-.27,3.67.77-.29s0,.2,0,.24a4.91,4.91,0,0,1-.8.25Zm.71-1.27a1.84,1.84,0,0,1-.1-.66l.59-.29a1.08,1.08,0,0,1,.25.48,2.2,2.2,0,0,1,.06.84.48.48,0,0,1-.4.14C290.75,66.33,290.59,66,290.48,65.83Zm.74-1.47-.52-1.16.29-.12.51,1.15Zm.19-1.54.29-.12.43,1.22-.21.17Zm.7-.29.29-.12.43,1.35-.2,0Zm.66-.36.29-.13.3,1.42-.17.11Zm-5.86,3.6a.67.67,0,0,0-.14-.15s.49-.61.53-.64a4.24,4.24,0,0,1,.61,0l.57.51v1.06l-1.2.06-.41.24h-.14l-.08-.49a1.5,1.5,0,0,0,.25-.29C287,65.88,287,65.88,286.91,65.77Zm.4-1.13V60.05h.48v4.59Zm.74.09V64.5h.17v.23Zm.1-2.09v-2.5h.64v2.5Zm1-.85.63,0,0,.23-.54.29-.09-.44Zm-.65-7.61.73-2,.73-.37-.75,2Zm1.88,7.61L290.7,55l.36,0,.23.26.2.12-.15,5.95Zm.5-8.84-.86.44c.17-.45.56-1.5.73-1.94l.86-.45Zm-1.81-1.29-1.17.61c.38-1.07,2.27-6.39,2.79-7.8l1.11-.59ZM290.3,42l-.29.12v-.45l.29-.11Zm0-1.05-.41.21v-.79l.41-.2Zm-2.81,12.18,1-.49-.72,1.93-1,.54Zm.58,5.45-.28,0,0-.36.21,0Zm-1.08.7c.11-.26.47-.35.8-.36a2.19,2.19,0,0,1,1.05.25c.12.13.23.64-.09.64s-.54-.24-.82-.23a1.39,1.39,0,0,0-.55.08C287.26,59.73,286.83,59.73,287,59.27Zm-.63,6a2.81,2.81,0,0,0-.07.5l-1,.6-.66-1,2-1,.3.37S286.45,65.18,286.4,65.25ZM286.14,67s-.06,0-.06,0a2.58,2.58,0,0,1-.19.43l-.54,0s0-.29,0-.37a.56.56,0,0,1,.11-.35,4.47,4.47,0,0,1,.61-.23Zm-1.19.81s-.15.22-.16.17-.08-.49-.08-.49H285S285,67.8,285,67.81Zm-.07-1.23c0,.06-.06.22-.06.31s-.16.06-.16.06a1.27,1.27,0,0,1-.05-.57v0S284.83,66.52,284.88,66.58Zm1.95,28.5.58-.38s.13,1.22.13,1.64a5.54,5.54,0,0,1-.15,1.2c-.08.37-.13.43,0,.69a3.3,3.3,0,0,0,.27.55l0,.29-.58.24a5.64,5.64,0,0,1-.57-1c-.12-.37.2-.75.35-.92s.14-.47.18-.94A7,7,0,0,0,286.83,95.08Zm-18.34-3.65a7.61,7.61,0,0,0,1.1,3,3.56,3.56,0,0,0,2.35,1.37c.57.2.87.07,1-.12a.54.54,0,0,0-.13-.59c-.12-.09-.35.14-.35.14-2.1-.14-2.74-2.13-3-4a19.52,19.52,0,0,1,.78-6.44,26.47,26.47,0,0,1,1.94-4.23,17.22,17.22,0,0,1,5.66-5.3,7.8,7.8,0,0,1,3.64-.59c2.07.07,3.17,1.92,3.44,2.21s.3.05.32,0,0-.41-.43-1.55-2.17-1.86-2.72-2.06a5.11,5.11,0,0,0-2.12,0c-.21.1-.3,0-.23-.16,1.35-.91,3.49-.25,4.45.69s1.26,1.58,1.3,5-.72,4.61-3,9.09-7.22,7.81-9.26,8.43A3.4,3.4,0,0,1,269,94.22l0-.07c-1.17-1.84-.95-7.63-.7-8.73.2-1.64,4-6.85,4.59-7.43a45,45,0,0,0-3.35,6.61A25.57,25.57,0,0,0,268.49,91.43Zm5-14.25s.22-.26.35-.27,0,.12,0,.12a1.52,1.52,0,0,1-.22.26C273.47,77.36,273.43,77.21,273.47,77.18ZM278.65,94c.08.07.19.09,0,.21s-2,1-2,1l-.47.06a17.73,17.73,0,0,0,1.92-1.57A37,37,0,0,0,282.29,89c.41-.78,1.73-3.16,1.73-3.16l.17-.06c-.05.89-2.77,5.64-5.37,7.9C278.7,93.76,278.59,93.92,278.65,94Zm-4.26,2.23a1,1,0,0,1-.8.28l0-.07C273.84,96.41,274.5,96.1,274.39,96.22ZM284,99.68l.32.57-.44.38a1.94,1.94,0,0,1-.52-.74c-.05-.2-.23-.44-.14-.63s.06-.17.16-.34a11.87,11.87,0,0,0,.62-1.16c.11-.31-.13-.87,0-1.12s.3-.46.45-.42.08.52.08.74a5.73,5.73,0,0,1-.13,1.38,3.22,3.22,0,0,1-.35.86A.48.48,0,0,0,284,99.68Zm.53-.23c0-.31.08-.47.23-.53s0,.21.13.62.19.3.26.38.18-.06,0,0a.54.54,0,0,1-.56,0C284.5,99.81,284.51,99.75,284.53,99.45Zm.38,1.32c0-.14.21-.07.21-.07l.19.15.15-.15a1.25,1.25,0,0,1,.18.24.4.4,0,0,1-.06.13v.65c0,.06-.12.19-.18.3s-.32.12-.43.12-.15-.21-.15-.21A11.47,11.47,0,0,1,284.91,100.77Zm-2,2.55-.43.23h0l-.1-.09v-.17l.18-.5s.34.25.38.21S282.93,103.32,282.93,103.32Zm-1.05.51a2.93,2.93,0,0,1-.55.34c-.09,0-.1-.15-.1-.29a.8.8,0,0,1,.13-.41c.06-.08.26-.23.29-.28a3,3,0,0,0,0-.44c0-.06,0,0-.12-.18s.14-.38.26-.41.24.11.24.11v1s-.19.52-.2.58Zm-1-2.56.36.48-.43.39a1.17,1.17,0,0,1-.64-.57c0-.19-.15-.46,0-.65s0-.17.15-.33.41-1.06.52-1.36,0-.68.07-.93.24-.33.39-.3.15.41.15.62a5.77,5.77,0,0,1-.14,1.38,3.44,3.44,0,0,1-.36.82A.4.4,0,0,0,280.86,101.27Zm1,.52c-.28.08-.52-.39-.52-.58a6.54,6.54,0,0,1,.21-1.29c.09-.19.25-.26.22-.2a7.8,7.8,0,0,0,.15,1.11v0c0,.11.34.22.42.43S282.12,101.72,281.85,101.79Zm-2.91,2.53a3.14,3.14,0,0,0-.09.49,1.43,1.43,0,0,1-.23.59.83.83,0,0,1-.46.2c-.12,0-.16-.29-.16-.5a9.12,9.12,0,0,1,.12-1.16.56.56,0,0,1,.24-.35c.09-.09.46,0,.58.06s0,.57,0,.62Zm-1.49-1.5.25.57-.44.38c-.13,0-.37-.47-.42-.67s-.15-.47,0-.65a2.67,2.67,0,0,1,.14-.34c.11-.16.41-1.06.53-1.36s0-.67.06-.92.23-.34.39-.31.15.41.15.63a6.2,6.2,0,0,1-.13,1.37,3.48,3.48,0,0,1-.37.82A.65.65,0,0,0,277.45,102.82ZM276.32,104s0,0,.12-.15.14,0,.14,0l0,1.19-.09-.15a.66.66,0,0,1-.08-.32s.08-.17.11-.26S276.32,104,276.32,104Zm.18,1.59c.05,0,.11.12.16.12s0,.48,0,.48l-.25.14A5.13,5.13,0,0,1,276.5,105.62Zm-2-1.88a.61.61,0,0,0-.11.43l.23.52-.39.34c-.13,0-.34-.42-.39-.6s-.13-.43,0-.6,0-.15.14-.3.36-1,.47-1.24,0-.61.06-.84.21-.3.35-.27.14.37.14.57a5.63,5.63,0,0,1-.12,1.24A3.26,3.26,0,0,1,274.51,103.74Zm.09,4.28c-.14.06-.83.46-1,.52s-.15-.08-.15-.08.84-.52.92-.55a.59.59,0,0,1,.22,0S274.73,108,274.6,108Zm.26-.27.13,0v.12l-.12,0Zm0-3.48a1.21,1.21,0,0,1,.15-.65c.09-.14.2-.34.2-.34l.08-.47h.07a6.06,6.06,0,0,1,0,1,1.09,1.09,0,0,0-.07.35.53.53,0,0,0,.15.32c-.09.28-.34.2-.43.19S274.94,104.41,274.89,104.27Zm.47,2.06a1.11,1.11,0,0,0,.08-.61c0-.19,0-.71.1-.82s.47.09.5.14a5.77,5.77,0,0,1,0,.83,8.8,8.8,0,0,1-.34.92c-.09.14-.39.1-.52,0S275.25,106.49,275.36,106.33Zm-.11,1.27.2-.17c.05,0,10.86-5.16,10.94-5.22s.17,0,.17,0l-1,.58c-.26.16-10,4.83-10.2,4.89S275.25,107.6,275.25,107.6Zm11.15-6.2s0-.2.11-.23a.18.18,0,0,1,.17,0l.51-.31s.15-.43.22-.46.13,0,.19,0,.23.17.23.17a2,2,0,0,0,.2-.23c.05-.08.2-1.45.2-1.45h.14l-.08,1.67-.73.39s-.92.49-1,.49A.47.47,0,0,1,286.4,101.4Zm6.14-13-.06.31L289.71,90l.06-22.12,3.44-1.34V88.21Zm-.26-22.72-.55-.09a8.57,8.57,0,0,1-.11-1l.1,0,.09.09,1.82-.79.22,1.08Zm5.25,35.1-.27-.13s-.09-7-.06-7,.11.07.11.07Zm-1.31-8.51c0-.43.11-.33.29-.31s.16.27.16.27l.24,8.1-.7-.42S296.24,92.75,296.22,92.32Zm-.82-.46c0-.29.23-.24.31-.21s.07.56.07.56l0,7.45-.4-.21S295.42,92.16,295.4,91.86Zm-.3,8.07c.12,0,.33.12.58.22s26.25,15.71,26.25,15.71c.06.19-.24,0-.24,0s-26.35-15.62-26.56-15.77S295,99.9,295.1,99.93Zm26.07,8.26h-.3v-.37h.3Zm0,.55v6.06h-.31v-6.06Zm-1-26.41.94,22.33.52.33v.25l-1-.55-1-22.78ZM319.71,79l-.72.44-.18,0V77.85h.8Zm-1.52-3.75.15.19,0,.13h-.22s0-.2,0-.26S318.19,75.26,318.19,75.26Zm-1.6-4.05c0-.07.21.14.21.14l0,2.86-.23-.24S316.54,71.29,316.59,71.21Zm-1.25-.8c.09-.14.33-.07.59,0s.2.3.27.52a4.88,4.88,0,0,1,.14.93l0,0s.07,1.17.06,1.36-.17.13-.37.1-.15-.18-.2-.29-.16-1.73-.16-1.87-.05-.06-.26-.15S315.25,70.54,315.34,70.41Zm-1.51-1.19c.21,0,.23.06.49.21s.15.27.23.5a8.6,8.6,0,0,1,.16,1.74c-.08.17-.12.21-.29.21a.44.44,0,0,1-.36-.32c0-.1-.09-.41-.17-.84a2.89,2.89,0,0,0-.17-.8c-.09-.13-.17-.16-.23-.29S313.62,69.23,313.83,69.22ZM314,73.1l.15-.48.56.07,0,1,.78,1s.6-.08.6,0,2.73,2,2.73,2l.33,0,.11-.15s.23,0,.23.11,0,.36,0,.36l-.2.26h-.22l-1.4-.84-.16-.31h-.24l-4-2.8Zm-2.39-5.83a.5.5,0,0,1,.54,0,.76.76,0,0,1,.28.7c0,.39.3,2,.3,2s-.14.48-.35.32-.46-.3-.54-.64c0-.09,0-1.84,0-1.84a.39.39,0,0,1-.29-.2C311.44,67.48,311.4,67.35,311.58,67.27Zm-.18,4.22a1.6,1.6,0,0,0,.13-.31c0-.06.16-.26.16-.26l.57.35-.06.69s.31.05.29.13a4.21,4.21,0,0,0,.23.75l-.05.14h0L311,71.81Zm-2.5-6.23a.53.53,0,0,1,.54,0,.81.81,0,0,1,.28.7c0,.4.3,2,.3,2s-.14.47-.35.32-.45-.31-.55-.64c0-.09,0-1.84,0-1.84a.39.39,0,0,1-.29-.2C308.76,65.47,308.71,65.33,308.9,65.26Zm.17,4.73v-.42l.24-.2.24,0,.34.42-.11.44a1.57,1.57,0,0,1,.35.27,3.07,3.07,0,0,0,.24.52c.12.18.35.46.35.46l-.18.09-1.83-1.34Zm-.5.83.84.55,0,1.15-.15.37a7,7,0,0,1-.73-.64C308.56,72.19,308.57,70.82,308.57,70.82Zm-2-7.16a.57.57,0,0,1,.55,0,.82.82,0,0,1,.27.7c0,.4.19,1.88.19,1.88s-.33.35-.48.15-.28-.26-.3-.32,0-1.84,0-1.84a.43.43,0,0,1-.29-.2C306.48,63.87,306.43,63.73,306.61,63.66Zm-.24,4.41.43,0c.16,0-.07-.13.12-.27s.24-.18.44-.15.1.27.15.39-.17.29-.2.37.19.18.29.21.23.41.28.47l.41.72-.23.06L306.89,69s-.8-.61-.81-.73S306.31,68.07,306.37,68.07Zm-.47.86v-.05a10.81,10.81,0,0,1,.9.69c0,.05.05,1.23.05,1.23l-.25.27-.46,0-.35-.55Zm-.22-1.12-.3.08-1.42-1v-.13l.14-.14s0-.41,0-.46,0-.24.15-.27a.8.8,0,0,1,.51.11,1.06,1.06,0,0,1,.2.46c0,.1.11.16-.11.18s-.28,0-.23.1a1.43,1.43,0,0,0,.3.23A9.7,9.7,0,0,1,305.68,67.81Zm-.48-19.4-.55-.42,0-1.11.55.42Zm-.54-4.18.55.42,0,.66-.55-.43Zm0,1.18.55.43,0,.66-.55-.43Zm-.21,16.37a.83.83,0,0,1,.27.71c0,.39.07,1.93.07,1.93s-.19.46-.34.26a2.72,2.72,0,0,1-.32-.49c0-.09,0-1.84,0-1.84a.47.47,0,0,1-.29-.2c-.06-.14-.11-.28.08-.35A.54.54,0,0,1,304.45,61.78Zm-.55-14.39h-.17v-1h.17Zm-.11-3.69h-.08v-.26h.08Zm-.05-1.17h-.15V40.37h.15Zm-.86-2.73.2-.26.41.07.18.14-.32,0v.31l-.14,0v3.16l-.34-.19ZM303.26,66l0,.18-.26-.09s-.46-.23-.58-.32a.33.33,0,0,1-.09-.39c.06-.12.22-.12.42,0S303.26,66,303.26,66Zm-.55-19.36-.46-.32v-.65l.49.32Zm-.22-7.22h.16v.16h-.16Zm-.14.73v1.49l-.52-.21V40Zm-1.51-2.54s.12.13.12.13l.11.55.64.24,0-.11.06.07v0l.18.17,0,.51-.44-.08a3.29,3.29,0,0,0-.07.36c0,.06.08.06.08.06l0,2.82-.34-.16.05-3.42a.31.31,0,0,0-.22-.18l-.19-.24S300.83,37.66,300.84,37.63Zm-.09,2.23-.52-.22v-.82l.52.22Zm-1.57-3.57s.12.12.12.12l.1.55.64.24,0-.11.05.07v0l.19.17-.05.51-.44-.08s-.06.29-.06.36.08.07.08.07v3l-.34-.16V37.39a.34.34,0,0,0-.22-.18l-.19-.24S299.16,36.32,299.18,36.29Zm-.2,2.07-.52-.21v-.83l.52.22Zm-1.49-3.24s.13.12.13.12l.1.55.64.24,0-.1.05.07v0l.19.17-.05.52-.43-.08a3.56,3.56,0,0,0-.07.35c0,.07.08.07.08.07v3l-.34-.16V36.22a.37.37,0,0,0-.22-.18l-.2-.23S297.48,35.15,297.49,35.12Zm-.2,1.27v1l-.15,0v-.48l-.39-.25v-.49l.52.2Zm-1.89-3.11s.13.13.13.13l.11.84.94.55.06-.12.07-.19v0l.17,0,0,.88-.54-.18s-.06.29-.06.35a.07.07,0,0,0,.07.07l0,3.16-.34-.17,0-3.75a.31.31,0,0,0-.21-.18l-.43-.42S295.39,33.32,295.4,33.28Zm-.34,1.55.41.26v.58l-.41-.27Zm-.09,5.3.87.64v.78s-.92-.8-.92-.84S295,40.13,295,40.13Zm.34,14.42-.08,5.32-.45-.34.12-5.22Zm-.46-1.14c0,.1-.49,0-.64,0a1.77,1.77,0,0,0-.35,0c0-.26.5-.4.7-.37A.33.33,0,0,1,294.85,53.41Zm-.3-20.24h.14v1.56h-.14ZM294,39.76l.63.11v.65h-.16L294,40Zm0,3.52v1.24l-1.91,5.58-.83.43,2.57-7.35Zm-.23-15.42a3.34,3.34,0,0,1-.75.68.55.55,0,0,1,0-.23,13.31,13.31,0,0,1,.51-2.95C293.63,26.68,293.74,27.64,293.77,27.86Zm-.7-6.56c.07.73.14,1.45.21,2.13l-1,5.63-.94.63a.57.57,0,0,1,0-.19c0-.09.2-1,.46-2.23a.76.76,0,0,0,.34-.73.62.62,0,0,0-.14-.25C292.4,24.44,292.86,22.3,293.07,21.3ZM290,34.48s0-.83,0-.9,0-.14.17-.18a.12.12,0,0,1,.16.1l0,1.33-.12.1s-.17,0-.16,0,.07-.41.07-.43S290,34.48,290,34.48Zm-.49-3.62s0-.09,0-.14.36-1.6.81-3.45a1,1,0,0,0,.88.24c-.21,1.1-.39,2-.49,2.58Zm-.23,3.78s0-.81,0-.87.12-.13.17-.11.13.28.13.28l0,1.5h-.23l0-.79ZM288,31.81l-.4.25a3.06,3.06,0,0,1,.15-.76c.1-.32.36-1.12.66-2,.53-.11.89-.52.81-.93a.63.63,0,0,0-.36-.45c.34-1.06.66-2.07.78-2.52.26-1,1.49-5.49,1.63-6.17a1,1,0,0,0,.45-.23c-.13.6-.38,1.8-.7,3.24a.62.62,0,0,0-.25.48.54.54,0,0,0,.08.28c-.69,3.14-1.59,7-2.1,8.37Zm.27,4.75-.14.11a2.16,2.16,0,0,1-.17-.31s0-.62,0-.66-.08,0-.08,0,0-1,0-1.06,0-.15.21-.2a.13.13,0,0,1,.18.11Zm-1.57-4-.82.48c.28-.76,1.26-3.44,1.45-3.89l.06-.19a1,1,0,0,0,.54.27C287.49,30.52,286.89,32.11,286.72,32.6Zm.77,4-.21.17,0-.77-.09,0s0-.95,0-1,.14-.15.2-.12.15.33.15.33ZM291,26a1.11,1.11,0,0,0-.37.15c.22-.91.46-1.89.69-2.86a1,1,0,0,0,.3.05,1,1,0,0,0,.43-.11c-.17.91-.35,1.87-.53,2.78A1.29,1.29,0,0,0,291,26Zm1.87-7c-.14.69-.37,1.89-.63,3.26a.88.88,0,0,0-.6-.24c.44-1.82.84-3.5,1.1-4.58C292.76,17.92,292.81,18.45,292.86,19Zm-.51-7.76.08-.16.16,0s0,.6,0,2a1.12,1.12,0,0,0-.39-.13C292.25,12.37,292.31,11.69,292.35,11.23ZM292.07,14a1.41,1.41,0,0,0,.49-.13c0,.1,0,.19,0,.3h0s-.59,3.74-.72,4.35a.71.71,0,0,0-.4-.3c.2-1.34.57-3.75.64-4.2Zm-.32-1.57c0,.12,0,.3-.07.52l-.22.06Zm-.51,1.39a1,1,0,0,0,.3.14c-.05.38-.09.7-.11.82s-.32,2-.54,3.35a1.29,1.29,0,0,0-.62.17C290.64,16.62,291,14.79,291.24,13.83ZM289.42,22h0a1,1,0,0,1,.07-.15c.06-.11.34-1.38.68-2.91a1.08,1.08,0,0,0,.6.26c-.05.31-.08.53-.09.6-.07.4-2,7.43-2.14,7.92v0a1.23,1.23,0,0,0-.38,0,1.47,1.47,0,0,0-.37.13c.23-.77.52-1.78.79-2.76.52-.12.89-.41.85-.7s-.24-.35-.53-.42Zm-.76.27h0L288.24,24h-.06L288,24Zm-2.5,6.58c.08-.13.79-2,1.43-3.71a1.52,1.52,0,0,0,.32.06c-.42,1.55-.86,3.18-1,3.71a4.45,4.45,0,0,1-.16.48.8.8,0,0,0-.66-.46ZM286,30.43a1.16,1.16,0,0,0,.48-.2c-.53,1.26-1.31,2.88-1.59,3.46l-.68.38c-.17,0-.14-.13,0-.43s.91-2,1.4-3.2A1.08,1.08,0,0,0,286,30.43Zm-.07,7.5-.14.11a2.16,2.16,0,0,1-.17-.31s0-.62,0-.66-.08,0-.08,0-.05-1,0-1,0-.16.2-.21a.13.13,0,0,1,.18.11Zm-.8.07-.21.17,0-.77-.09,0s0-1,0-1a.17.17,0,0,1,.19-.12c.06,0,.15.33.15.33Zm-.35-7.64a1.15,1.15,0,0,1,.2-.29l.08.1a44.27,44.27,0,0,1-2,4.55l-.74.41S284.7,30.47,284.73,30.36Zm-1.29,8.55-.26,0a9.45,9.45,0,0,1,0-1.41c.07-.12.22,0,.22,0Zm-.69-1V39.2l-.25.1a8.9,8.9,0,0,1,0-1.55C282.58,37.67,282.75,37.86,282.75,37.86Zm.12,2.1.46-.65.47.39.31-.15.89-1.13,1.18.17,1.31-1.46.14-.08h.24l0,.08.59,0,.84-1.17h.89s0,.06,0,.06l.28-.16a4.7,4.7,0,0,1,.83-.63s-.06-2.62,0-2.7a.23.23,0,0,1,.24-.11,1.13,1.13,0,0,1,.19.18l0,3.85-.46-.48H291l-.2.1-.51.61.05,2.94-.37.18-.06-2.63-.15-.2H289l-.48.74-.05.42,0,2.47-.46.22,0-2.09-.57-.48-.32,0-.85.94.17,2.5-.33.17-.06-2.12-.51-.46-.42,0-.53.95.06,2.39-.49.27s0-2.16,0-2.21-.63-.4-.64-.44-.24,0-.24,0l-.75.69v2.76l-.46.22-.07-4Zm-.76,5.41v-.89l.47-.21v.89Zm.42.19v.66l-.4.19v-.67Zm.08,3.18-4.85,8.8-1,.52,5.08-8.91Zm-1.08-2-.4.18v-.67l.4-.18Zm-.22-6.23.24-.1.05,3.76-.42.24ZM281.1,45l.47-.21v.89l-.47.21Zm-.23-6.59v2.14l-1,.82,0-3.29Zm-.7,7.94v-.89l.46-.2v.89Zm.42.2v.66l-.4.18v-.66ZM280,45l0-2.62.87-.7-.08,2.9Zm-1.45,1.16.47-.21v.89l-.47.21Zm0,2v-.71l.61-.21v.71Zm2,1.71.66-.34-5.54,9.14L275,59v0Zm-5.3,7.43.09-.16v.25l-1.78,2.38-.84.44Zm-3.47,4,1.06-.54-2,2.66-1.7.89Zm-.95,5.5s.62-.27.66-.16a4.91,4.91,0,0,1,0,1.22c0,.31-.18,1.11-.47,1.23s-.51.25-.48,0a7.4,7.4,0,0,1,.34-.87A9.93,9.93,0,0,0,270.82,66.73ZM269,62.94l0,.27-.53.46-.05-.47ZM268,68l.22-.14v.73l-.22-.18Zm-1.21-4s.8-.52.88-.53.15.2.15.2l0,.65-1.05.9Zm-1.39,3.38a.83.83,0,0,1,.43,0,2.76,2.76,0,0,1,.52.53l.87,0,0,.83-.64.5h-.66l0,1.48-.05.85-.87.66-.11-2L265,70l-.39-1.88Zm-1.26,1.76h.25a5.71,5.71,0,0,1,0,.68l-.34-.09Zm-.09,6.6c.06,0-.08-.41-.08-.48a3.36,3.36,0,0,0-.15-.45s.23-4,.29-4.12.23,0,.23,0-.06,2.33,0,2.65.26.16.26.16L266.3,72l.27.07.25-.69-.31,0,.15-1.35,1-.64.12.3-.26.27c-.82.14-.27,1,.07,1.67s.57.36,1.21.14.94-1.28,1.05-1.63h.28c.09.55.16.67.55.76s.75-.32,1.11-.57a6.91,6.91,0,0,0,1-1v-.62h.41a3.08,3.08,0,0,0,0,.57c.05.37.25.25.37.23a9.52,9.52,0,0,0,1.14-.48c.43-.2,1-1.62,1-1.62l-.07-.48.48-.14c.07,0,0,.12,0,.32a.63.63,0,0,0,.16.62c.23.27.84,0,1.48-.37s1.05-1.57,1.05-1.57l.3,0,.05.12c.32.57.84.25,1.46,0s1-1.57,1-1.57h.52c.55.68,1,.32,1.61.09s.93-1.19,1.11-1.53c0-.14,0-.07.12,0s.07.21.52.23a4.4,4.4,0,0,0,1.44-.45l.12.77L267.31,73l.52.55.66-.39.3,0,0,.37-.25.62-1.09.59,0,.32s.87-.32.94-.37.2.21.2.21l-.16,1.21s-1.41.78-1.48.8a2.78,2.78,0,0,1-.57-.25l0-.25.21-.07.52,0,.27-.33-.06-.82-.3-.09-.09.64a5.35,5.35,0,0,0-1.08.6.67.67,0,0,0-.29.66c0,.2.5.11.5.11l-.09.23-.59.09-.12.39-1.74.69V77l.69-.31.07-.21-.18-.14a5.22,5.22,0,0,0-.64.21c-.08,0-.16-.16-.16-.26S263.94,75.8,264,75.78Zm1.5,2.59v.22l-2.06.79v-.23Zm-4.29,2v-1l1.21.23-.23.29V81a2.77,2.77,0,0,1,.29,0c.07,0,0-.68,0-.68s.84-.46.94-.48a3.79,3.79,0,0,1,.52,0,1.56,1.56,0,0,1,.27-.32c.1,0,1.35-.41,1.4-.46a5.4,5.4,0,0,1,0,.9l-2.82,1-.2.71-.55-.18Zm-.75,24.56v-.3s.84-.84.93-.89.18-.32.18-.32l.87-20.1.11-.07s-.64,20-.59,20.24a.22.22,0,0,0,.27.2s.69-.29.78-.36a7.59,7.59,0,0,1,.76-.32l.06.2.37.37-2.33.89-.55.09-.55.46Zm.32.6,3.32-1.16.4.55s-.12.76-.12,1h-.28c-.18,0-.18-.3-.18-.3l-.36.09a6.93,6.93,0,0,0-1.62.49c-.24.22-.27.27-.15.61s0,.24,0,.24-.21,5.61-.21,6,.36.19.36.19l1.83-.86a2.73,2.73,0,0,1,.3-.3c.09-.06.28.12.28.12l.18-.15.18-3.2s.28.15.31.28.36.08.36.08-.15,1.13-.15,1.29a.74.74,0,0,0,.12.33.88.88,0,0,0,.27-.09c.1-.06.19-.79.19-.79l-.06-1.44-.4.1s-.15-.12-.15-.22a3.42,3.42,0,0,1,.33-.79c.09-.12.37,0,.37,0l.4,1,.06,1.7.3.12c.09,0,.06.43-.06.52a6.07,6.07,0,0,1-.73.31,1.71,1.71,0,0,1-.64.12c-.09,0-.3.24-.33.45s.15.31.18.52-.73.46-.83.55-2.43,1.19-2.89,1.4-.36-.3-.36-.3l.33-7.41Zm3.38,3.08v2.74l-.24,0,.12-2.74Zm-.55-2.29-.18,5.55-1.16.72.06-5.78S263.51,106.39,263.63,106.3Zm29.72-5.39L266.3,113.52v.28l-4.43,2-.18-.18,0-.32-.23-.13-.45.09L261,115l32.35-15.26Zm.22-2.73-.36,0-.07-.22.14-6s.19-.47.2-.55.2,0,.2,0l0,0Zm.65,2.88-.52-.31.09-.82,28.84,17.12-.48.21Z" fill="#004990"/><path d="M363.91,102.37c-1.1,4.38-2.2,7.29-3.3,9-1.57,2.28-4.73,2.83-7.41,2.83-2.12,0-4-.1-5.15-.74-1.44-.82-1.71-2.83-1.71-9.48V73c0-9.84.55-10.48,5.9-11V59.05H331.65V62c5.22.55,5.77,1.19,5.77,11v31.37c0,9.86-.55,10.49-6.18,11v2.92H364c.61-2.46,2-11.77,2.4-15.32Z" fill="#004990"/><path d="M385.87,115.41c-4.39-.55-4.73-1-4.73-6.2V77.11a127.45,127.45,0,0,1-12.91,3.28v2.46c4.39.64,4.53.73,4.53,6.3v20.06c0,5.2-.34,5.65-4.73,6.2v2.92h17.84Z" fill="#004990"/><path d="M376.4,69.36c2.81,0,5-2.92,5-6.57s-2.2-6.66-5-6.66-5,2.92-5,6.66S373.72,69.36,376.4,69.36Z" fill="#004990"/><path d="M408.72,78.2H400.9l-.07-3c-.28-8.39-.28-11.86,0-13.32s.89-2.46,2.26-2.46c1.86,0,5,2.37,6.39,4,.61.73,1.23.91,2,0a11.08,11.08,0,0,0,1.72-2.92,3.59,3.59,0,0,0-.41-3.56,8,8,0,0,0-6.39-3.37c-2.88.55-5.35,1.92-8,5a23.65,23.65,0,0,0-5.08,10.67,30.72,30.72,0,0,0-.83,7V78.2h-2.81l-2.2,3.47.48,1.18h4.53v26.54c0,4.92-.34,5.38-4.25,6v2.92H406.8v-2.92c-5.56-.64-5.9-1.1-5.9-6V82.85h6.79C408.79,82.13,409.06,79.21,408.72,78.2Z" fill="#004990"/><path d="M424.78,119.42c2.4,0,7.75-1.91,11.67-9.84l-1-1.83c-2.74,2.46-4.87,3.56-7.41,3.56-5.22,0-9.88-4.75-9.88-15,6.8-.36,15.92-1.18,16.88-1.46,1.38-.36,1.58-.54,1.58-4,0-7.11-4.73-13.77-10.71-13.77-8.37,0-15.78,9.85-15.78,23C410.16,110.3,415.51,119.42,424.78,119.42ZM424,81.21c2.61,0,4.81,4.84,4.81,8.58,0,1.82-.28,2.18-1.3,2.18l-9,.28C418.88,86,421.42,81.21,424,81.21Z" fill="#004990"/><path d="M29,100.27c0-9.77-5-14.57-10.33-17.64l-2.15-1.27c-4.83-2.8-7.31-6.06-7.31-10.68,0-5.06,2.42-9,6.51-9,5.7,0,7.71,6.42,9.05,11.76l2.42-.64C26.48,67.34,26,63.27,25.74,60c-.8-.36-1.81-.72-2.88-1.18a15.18,15.18,0,0,0-6.17-1.26c-9.33,0-14.9,8.05-14.9,17.73,0,8.59,4.77,13.84,10.4,17.19l1.34.81c5.1,3,7.58,6,7.58,12.12,0,5.16-2.48,9.59-6.91,9.59-6.64,0-10.46-9.68-11.6-14.65L.18,101.53c.74,5.43,1.55,11.67,2.08,14a29.69,29.69,0,0,0,4,2.08,17.18,17.18,0,0,0,6.78,1.45C22.72,119.08,29,110.94,29,100.27Z" fill="#004990"/><path d="M36.54,82.53v25.15c0,8,2.88,11.13,8.05,11.13a5.28,5.28,0,0,0,2.55-1l5.77-3.89L52,111.21a5.8,5.8,0,0,1-3.49,1.45c-1.21,0-3.76-1.27-3.76-8.23V82.53h6.17c1.21-.72,1.35-3.62.47-4.61H44.72V66.07l-1.14-.82-7,7.15v5.52H33.92l-2.14,3.44.46,1.17Z" fill="#004990"/><path d="M80.88,111.84c-.94,0-1.81-1.36-1.81-5.15V88.14c0-3.34-.47-6.6-2.95-8.86a8.76,8.76,0,0,0-6.44-2.45,24.41,24.41,0,0,0-11.61,6.52,7.23,7.23,0,0,0-2.34,4.79c0,2.45,2.68,4.25,4,4.25a2.31,2.31,0,0,0,2.48-2.07c.54-3.53,1.35-6.07,2.42-7.43a3.16,3.16,0,0,1,2.21-1.26c2.55,0,4.36,2.08,4.36,6.78v3.26c-2.15,1.9-7.51,4.61-10.73,6.42-3.62,2-5.17,5.07-5.17,9.59,0,5.16,3.29,11.13,8.46,11.13,1.2,0,4.76-3.44,7.51-5.88.53,2.53,1.88,5.88,5.7,5.88l7.25-5.25-.74-2.62A5.86,5.86,0,0,1,80.88,111.84Zm-9.73-2.26c-1.47,1.63-2.68,2.44-3.69,2.44-1.47,0-3.82-2.35-3.82-6.51,0-3.26,1-5.16,3-6.69,1.34-1,3.15-2.54,4.49-3.44Z" fill="#004990"/><path d="M108.72,91.13v17.64c0,5.15-.27,5.52-3.62,6.06v2.89h15.83v-2.89c-3.69-.54-4-.91-4-6.06V89c0-7-3.28-12.13-8.65-12.13-2.35,0-3.82,1-6.1,3-1.21,1.09-2.48,2.26-3.76,3.44V76.83A112.75,112.75,0,0,1,85.91,80v2.44c4.16.64,4.3.73,4.3,6.15v20.18c0,5.15-.34,5.52-4.83,6.06v2.89h16.23v-2.89c-2.89-.54-3.22-.91-3.22-6.06V87.06c1.88-2.17,4-3.35,5.71-3.35C106.71,83.71,108.72,85.79,108.72,91.13Z" fill="#004990"/><path d="M137.7,118.81c.8,0,1.68-.27,3.35-1.63l4.23-3.35v5.25a71.43,71.43,0,0,1,13-3.7v-2.81h-2.62c-1.81,0-2.22-.64-2.22-4.61V53.5c-4.29,1.26-9.72,2.53-12.81,3.16v2.63c4.5.36,4.63.45,4.63,5.79V77.29a26.34,26.34,0,0,0-2.95-.45c-10.53,0-18.25,10-18.25,22.25C124.08,112.39,132,118.81,137.7,118.81Zm2.42-38c1.94,0,4.09,1.26,5.16,4.7v24.69A6.26,6.26,0,0,1,141,112.3c-2.89,0-7.65-4.53-7.65-15.65C133.34,82.36,138.71,80.82,140.12,80.82Z" fill="#004990"/><path d="M165.74,98.09c-3.62,2-5.16,5.07-5.16,9.59,0,5.16,3.28,11.13,8.45,11.13,1.21,0,4.76-3.44,7.51-5.88.54,2.53,1.88,5.88,5.7,5.88l7.25-5.25-.74-2.62a5.77,5.77,0,0,1-2.55.9c-.94,0-1.81-1.36-1.81-5.15V88.14c0-3.34-.47-6.6-2.95-8.86A8.76,8.76,0,0,0,175,76.83a24.32,24.32,0,0,0-11.6,6.52,7.2,7.2,0,0,0-2.35,4.79c0,2.45,2.68,4.25,4,4.25a2.32,2.32,0,0,0,2.48-2.07c.53-3.53,1.34-6.07,2.41-7.43a3.16,3.16,0,0,1,2.21-1.26c2.56,0,4.37,2.08,4.37,6.78v3.26C174.33,93.57,169,96.28,165.74,98.09Zm10.74,11.49c-1.48,1.63-2.69,2.44-3.7,2.44-1.47,0-3.82-2.35-3.82-6.51,0-3.26,1-5.16,3-6.69,1.34-1,3.15-2.54,4.5-3.44Z" fill="#004990"/><path d="M209.34,114.83c-5.16-.55-5.5-1-5.5-6.06V91c1.14-3.8,2.49-4.44,3.63-4.44a4.78,4.78,0,0,1,3.35,1.9,1.62,1.62,0,0,0,2.08.37c1.68-.82,3.15-3.44,3.15-6.43s-1.94-5.52-4.49-5.52c-1.68,0-3.16,1.36-4.43,3.17A41.26,41.26,0,0,0,204,85.79h-.14v-9c-4.43,1.27-8.72,2.54-12.61,3.26v2.44c4.3.64,4.43.73,4.43,6.25v20c0,5.06-.34,5.51-4.56,6.06v2.89h18.24Z" fill="#004990"/><path d="M247.18,108V53.5c-4.29,1.26-9.73,2.53-12.81,3.16v2.63c4.49.36,4.63.45,4.63,5.79V77.29a26.34,26.34,0,0,0-2.95-.45c-10.54,0-18.25,10-18.25,22.25,0,13.3,7.91,19.72,13.62,19.72.8,0,1.67-.27,3.35-1.63l4.23-3.35v5.25a71.61,71.61,0,0,1,13-3.7v-2.81h-2.62C247.58,112.57,247.18,111.93,247.18,108ZM239,110.21a6.26,6.26,0,0,1-4.3,2.09c-2.88,0-7.64-4.53-7.64-15.65,0-14.29,5.36-15.83,6.77-15.83,1.95,0,4.09,1.26,5.17,4.7Z" fill="#004990"/><path d="M142.91,135.25l-.65.19c-1.78.51-3.07.88-3.07,3.16a2.42,2.42,0,0,0,2.63,2.51,3.23,3.23,0,0,0,2.56-1.4c.23.65.46,1.25,1.58,1.25a4.72,4.72,0,0,0,1.63-.45.9.9,0,0,1,0-.74,1.34,1.34,0,0,1-.54.16c-.65,0-.67-.49-.67-2.5,0-.68.06-2.75.06-3.51,0-2.08-1.41-3.08-3.47-3.08a4.83,4.83,0,0,0-3,1.15,5.06,5.06,0,0,1,0,.55,7.41,7.41,0,0,1-.09,1,1.45,1.45,0,0,1,.3,0,1.55,1.55,0,0,1,.29,0,2,2,0,0,1,2.06-1.46c1,0,1.85.61,1.85,2.18a1.14,1.14,0,0,1-.07.41C144.19,134.86,144,134.92,142.91,135.25Zm1.39,2.65a1.78,1.78,0,0,1-1.7,1.95c-.76,0-1.26-.68-1.26-1.76,0-1.48.79-1.71,3-2.32Z" fill="#004990"/><path d="M156.42,140.74c.42,0,.83.08,1.24.12a21.12,21.12,0,0,1-.13-2.53c0-1,.08-3.38.08-4,0-2.2-1.11-3.47-3.19-3.47a3.3,3.3,0,0,0-3,1.8,7.53,7.53,0,0,1,.1-1.7,3.91,3.91,0,0,1-1.05.13,5.59,5.59,0,0,1-1.27-.13,34.44,34.44,0,0,1,.16,4.38c0,2.44,0,2.75-.19,5.48a8.41,8.41,0,0,1,1.2-.12c.17,0,1,.1,1.2.12-.09-1.4-.13-2.77-.13-4.64a9.2,9.2,0,0,1,.32-2.71,2,2,0,0,1,1.7-1.19,1.68,1.68,0,0,1,1.78,1.35,24.11,24.11,0,0,1,.13,3.31,31.79,31.79,0,0,1-.23,3.88A11.59,11.59,0,0,1,156.42,140.74Z" fill="#004990"/><path d="M163.93,141.15a3.48,3.48,0,0,0,2.9-1.71l-.06,1.42a7.08,7.08,0,0,1,1.11-.12,5.41,5.41,0,0,1,1.09.12c-.17-1.23-.21-7.54-.21-7.87,0-2.44.07-4.91.21-7.35a4.61,4.61,0,0,1-1.09.12,6.81,6.81,0,0,1-1.36-.12,62,62,0,0,1,.23,6.61A3.38,3.38,0,0,0,164,130.9c-2.34,0-4.27,1.8-4.27,5.23C159.75,138.9,161.43,141.15,163.93,141.15Zm.53-9.16c1.84,0,2.29,2,2.29,3.92,0,2.71-.95,4-2.36,4-2,0-2.25-2.61-2.25-4.18S162.57,132,164.46,132Z" fill="#004990"/><path d="M183.32,138.58l.8,2.28c.35,0,.88-.12,1.41-.12s1.21.1,1.49.12c-.86-2-2.11-5.09-2.84-6.88s-1.83-4.6-2.75-7.42a1.87,1.87,0,0,1-.61.11,1.9,1.9,0,0,1-.63-.11c-.46,1.69-1.57,4.36-3.49,9l-2.22,5.3a5.4,5.4,0,0,1,.86-.12,6,6,0,0,1,.92.12c.3-1.17.92-2.88,1.52-4.46.77,0,1.53-.08,2.29-.08s1.63,0,2.45.08Zm-3.11-3.37c-.67,0-1.32-.06-2-.08l1.94-5,1.79,5C181.37,135.17,180.8,135.21,180.21,135.21Z" fill="#004990"/><path d="M195.14,140.36a3.45,3.45,0,0,1,.38-1.43l-.31-.19a3.05,3.05,0,0,1-2.32,1.22c-2.22,0-2.85-2.2-2.85-4.21a5.22,5.22,0,0,1,.59-2.78,2.52,2.52,0,0,1,2.05-1.19,2.1,2.1,0,0,1,2,1.7h.36a5.88,5.88,0,0,1,.44-1.92,6.28,6.28,0,0,0-2.92-.72c-3.44,0-5,2.57-5,5.26a4.73,4.73,0,0,0,4.75,5A5.74,5.74,0,0,0,195.14,140.36Z" fill="#004990"/><path d="M201.8,131.78a2.1,2.1,0,0,1,2,1.7h.36a5.54,5.54,0,0,1,.45-1.92,6.32,6.32,0,0,0-2.93-.72c-3.43,0-5,2.57-5,5.26a4.74,4.74,0,0,0,4.76,5,5.73,5.73,0,0,0,2.8-.75,3.79,3.79,0,0,1,.38-1.43l-.3-.19A3.07,3.07,0,0,1,202,140c-2.22,0-2.84-2.2-2.84-4.21a5.13,5.13,0,0,1,.59-2.78A2.5,2.5,0,0,1,201.8,131.78Z" fill="#004990"/><path d="M207.39,129.11a1.42,1.42,0,0,0,1.34-1.42,1.44,1.44,0,0,0-1.34-1.44,1.42,1.42,0,0,0-1.32,1.44A1.4,1.4,0,0,0,207.39,129.11Z" fill="#004990"/><path d="M208.53,139.18c0-.72-.05-2.84-.05-3.74,0-.74.07-2.65.11-3.52l0-.92a5.33,5.33,0,0,1-1.18.12,7.14,7.14,0,0,1-1.28-.12c.13,1.44.19,3.63.19,5.1,0,.75,0,1.49-.06,2.54l-.09,2.22a9.38,9.38,0,0,1,1.29-.12,6.19,6.19,0,0,1,1.11.12C208.61,140.61,208.53,139.44,208.53,139.18Z" fill="#004990"/><path d="M215,130.9c-2.35,0-4.28,1.8-4.28,5.23,0,2.77,1.68,5,4.19,5a3.49,3.49,0,0,0,2.9-1.71l-.06,1.42a7.08,7.08,0,0,1,1.11-.12,5.38,5.38,0,0,1,1.08.12c-.17-1.23-.21-7.54-.21-7.87,0-2.44.08-4.91.21-7.35a4.46,4.46,0,0,1-1.08.12,6.74,6.74,0,0,1-1.36-.12,64.82,64.82,0,0,1,.23,6.61A3.39,3.39,0,0,0,215,130.9Zm.36,9c-2,0-2.25-2.61-2.25-4.18s.44-3.74,2.33-3.74,2.29,2,2.29,3.92C217.7,138.62,216.74,139.91,215.33,139.91Z" fill="#004990"/><path d="M230,132.72a3.7,3.7,0,0,0-3.58-1.86c-2.26,0-4.43,1.56-4.43,5a5.74,5.74,0,0,0,1.27,3.92,5,5,0,0,0,3.46,1.36,5,5,0,0,0,3.21-1.05l.17-.88c0-.15.1-.29.15-.44l-.21-.14a3.87,3.87,0,0,1-2.71,1.29c-3,0-3-3.12-3-3.88h6.26A6.8,6.8,0,0,0,230,132.72ZM224.29,135c0-.79.15-3.33,2.12-3.33s1.9,2.32,1.9,3.33Z" fill="#004990"/><path d="M239.73,140.74c.42,0,.82.08,1.24.12a19.18,19.18,0,0,1-.13-2.53c0-1,.07-3.38.07-4,0-2.2-1.11-3.47-3.19-3.47a3.27,3.27,0,0,0-2.95,1.8,8.35,8.35,0,0,1,.09-1.7,3.8,3.8,0,0,1-1.05.13,5.39,5.39,0,0,1-1.26-.13,36.47,36.47,0,0,1,.16,4.38c0,2.44,0,2.75-.2,5.48a8.41,8.41,0,0,1,1.2-.12c.18,0,1,.1,1.21.12-.1-1.4-.14-2.77-.14-4.64a8.88,8.88,0,0,1,.33-2.71,1.94,1.94,0,0,1,1.7-1.19,1.67,1.67,0,0,1,1.77,1.35,22.4,22.4,0,0,1,.14,3.31,31.82,31.82,0,0,1-.24,3.88A11.79,11.79,0,0,1,239.73,140.74Z" fill="#004990"/><path d="M243.49,132.13h.57c0,1.64-.11,5.24-.11,6.14a3,3,0,0,0,.8,2.32,2.88,2.88,0,0,0,1.71.53,5.28,5.28,0,0,0,2.16-.59,1.55,1.55,0,0,1-.07-.47,3,3,0,0,1,.07-.5,1.8,1.8,0,0,1-1.14.44c-1.28,0-1.38-.89-1.38-3.92,0-.87.06-3.07.06-4a14.39,14.39,0,0,1,2.08.09,3.18,3.18,0,0,1-.06-.62,2.18,2.18,0,0,1,.06-.52l-.71.07h-1.31a24.76,24.76,0,0,1,.13-3.71l-.13-.07a8.87,8.87,0,0,1-2.18,1.44c0,1,0,1.77,0,2.34h-.84a4.08,4.08,0,0,1-.65-.08,3.85,3.85,0,0,1,.06.66,1.94,1.94,0,0,1-.06.45C242.82,132.17,243.13,132.13,243.49,132.13Z" fill="#004990"/><path d="M81.73,147.44c-.28,0-1-.08-1.36-.12a43.53,43.53,0,0,1,.2,4.74c0,3.52,0,6.91-.22,9.35.42,0,1-.12,1.38-.12s.9.1,1.34.12c-.15-1.66-.19-3.88-.19-6.94,0-2.08,0-5.63.21-7.15A11,11,0,0,1,81.73,147.44Z" fill="#004990"/><path d="M94.31,154.92c0-2.2-1.11-3.47-3.19-3.47a3.3,3.3,0,0,0-3,1.81,7.58,7.58,0,0,1,.1-1.71,4.3,4.3,0,0,1-1,.13,5.39,5.39,0,0,1-1.26-.13,37,37,0,0,1,.15,4.38c0,2.44,0,2.75-.19,5.48a8.41,8.41,0,0,1,1.2-.12c.18,0,1,.1,1.21.12-.1-1.4-.14-2.77-.14-4.64a8.88,8.88,0,0,1,.33-2.71,2,2,0,0,1,1.7-1.2A1.7,1.7,0,0,1,92,154.22a24.11,24.11,0,0,1,.13,3.31,31.79,31.79,0,0,1-.23,3.88,11.59,11.59,0,0,1,1.24-.12c.42,0,.83.08,1.24.12a21.12,21.12,0,0,1-.13-2.53C94.23,157.88,94.31,155.5,94.31,154.92Z" fill="#004990"/><path d="M100.14,155.42c-1.44-.52-2.08-.74-2.08-1.65a1.37,1.37,0,0,1,1.54-1.36c1.17,0,1.54.79,1.84,1.44h.31a4.6,4.6,0,0,1,.47-1.82,6,6,0,0,0-2.56-.62,3,3,0,0,0-3.33,3.16,2.6,2.6,0,0,0,1.52,2.61c.15.08,1.05.41,1.29.51.9.37,1.65.64,1.65,1.5a1.39,1.39,0,0,1-1.44,1.46A2.23,2.23,0,0,1,97,159.09h-.34a8.64,8.64,0,0,1-.13.94c-.08.32-.23.7-.29.87a6.28,6.28,0,0,0,2.83.8,3.44,3.44,0,0,0,3.65-3.39C102.72,156.32,101.34,155.84,100.14,155.42Z" fill="#004990"/><path d="M111.8,161.29c.34,0,.67.08,1.2.12a42.36,42.36,0,0,1-.15-4.35c0-1.85.08-3.68.19-5.51a8.33,8.33,0,0,1-1.3.13,6.86,6.86,0,0,1-1.11-.13c.14,1.25.14,3.45.14,4.87a7.8,7.8,0,0,1-.33,2.53,1.93,1.93,0,0,1-1.79,1.16,1.73,1.73,0,0,1-1.69-1.33,22.05,22.05,0,0,1-.13-2.75,39.9,39.9,0,0,1,.23-4.48,6.53,6.53,0,0,1-1.24.13,6.68,6.68,0,0,1-1.23-.13,16,16,0,0,1,.12,2.16c0,1.44-.08,2.89-.08,4.33a4.93,4.93,0,0,0,.38,2,2.93,2.93,0,0,0,2.68,1.62,3.69,3.69,0,0,0,3.1-1.88,10.73,10.73,0,0,1-.08,1.66A7.55,7.55,0,0,1,111.8,161.29Z" fill="#004990"/><path d="M121,153.87a3.74,3.74,0,0,1-.1-.88,5.11,5.11,0,0,1,.17-1.48,1.85,1.85,0,0,0-.5-.06c-1.52,0-2.29,1.38-2.8,2.26a14.35,14.35,0,0,1,.11-2.15,4.11,4.11,0,0,1-1.09.12,6.34,6.34,0,0,1-1.26-.12c.1,1.81.13,2.31.13,4.56,0,.79,0,2.38,0,3.28l-.08,2c.57-.06,1-.12,1.32-.12a10.76,10.76,0,0,1,1.11.12c-.12-1.27-.18-3.26-.18-4.58a4.7,4.7,0,0,1,.23-2,1.9,1.9,0,0,1,1.71-1.11,2,2,0,0,1,1.12.29Z" fill="#004990"/><path d="M129.81,160.49c-.65,0-.67-.5-.67-2.51,0-.67.06-2.75.06-3.51,0-2.07-1.42-3.08-3.48-3.08a4.84,4.84,0,0,0-3,1.15,5.06,5.06,0,0,1,0,.55,6.16,6.16,0,0,1-.1,1,1.65,1.65,0,0,1,.31,0,1.45,1.45,0,0,1,.29,0,2,2,0,0,1,2.06-1.46c1,0,1.85.62,1.85,2.18a.91.91,0,0,1-.07.41c-.1.19-.25.25-1.38.58L125,156c-1.78.51-3.08.88-3.08,3.16a2.43,2.43,0,0,0,2.64,2.51,3.2,3.2,0,0,0,2.56-1.4c.23.66.46,1.25,1.59,1.25a4.41,4.41,0,0,0,1.62-.45,1,1,0,0,1,0-.73A1.26,1.26,0,0,1,129.81,160.49Zm-2.75-2a1.79,1.79,0,0,1-1.71,2c-.76,0-1.26-.68-1.26-1.77,0-1.48.79-1.7,3-2.32Z" fill="#004990"/><path d="M133.17,161.29c.17,0,1,.1,1.21.12-.1-1.4-.13-2.77-.13-4.64a8.88,8.88,0,0,1,.32-2.71,2,2,0,0,1,1.7-1.2,1.7,1.7,0,0,1,1.78,1.36,24.11,24.11,0,0,1,.13,3.31,33.93,33.93,0,0,1-.23,3.88,11.34,11.34,0,0,1,1.24-.12c.43,0,.82.08,1.25.12a18.81,18.81,0,0,1-.14-2.53c0-1,.08-3.38.08-4,0-2.2-1.11-3.47-3.2-3.47a3.29,3.29,0,0,0-3,1.81,7.58,7.58,0,0,1,.1-1.71,4.37,4.37,0,0,1-1,.13,5.39,5.39,0,0,1-1.26-.13,37,37,0,0,1,.15,4.38c0,2.44,0,2.75-.2,5.48A8.69,8.69,0,0,1,133.17,161.29Z" fill="#004990"/><path d="M147.3,161.66a5.82,5.82,0,0,0,2.81-.74,3.84,3.84,0,0,1,.38-1.44l-.3-.18a3.06,3.06,0,0,1-2.33,1.21c-2.22,0-2.85-2.2-2.85-4.21a5.09,5.09,0,0,1,.59-2.77,2.5,2.5,0,0,1,2-1.2,2.11,2.11,0,0,1,2,1.71H150a5.55,5.55,0,0,1,.45-1.93,6.32,6.32,0,0,0-2.93-.72c-3.44,0-5,2.57-5,5.26A4.74,4.74,0,0,0,147.3,161.66Z" fill="#004990"/><path d="M159.92,159.3l-.22-.15a3.87,3.87,0,0,1-2.71,1.29c-3,0-3-3.12-3-3.87h6.27a6.92,6.92,0,0,0-.55-3.29,3.72,3.72,0,0,0-3.6-1.87c-2.25,0-4.43,1.56-4.43,5a5.71,5.71,0,0,0,1.28,3.92,5,5,0,0,0,3.46,1.36,5,5,0,0,0,3.21-1l.17-.88A3.16,3.16,0,0,1,159.92,159.3Zm-3.8-7.07c1.9,0,1.9,2.32,1.9,3.33h-4C154,154.78,154.14,152.23,156.12,152.23Z" fill="#004990"/><path d="M174.41,148.27c2.75,0,3.42,1.43,3.65,1.93h.19l.57-2a9.7,9.7,0,0,0-4.47-1c-5.1,0-7.46,3.3-7.46,7.43,0,4.62,3.1,7.11,6.83,7.11a9.44,9.44,0,0,0,4.84-1.3l.21-2-.21-.15a5.25,5.25,0,0,1-4.42,2.35,4.06,4.06,0,0,1-3.46-1.87,7.36,7.36,0,0,1-1.17-4.29C169.51,150.53,171.21,148.27,174.41,148.27Z" fill="#004990"/><path d="M185,161.66c2.94,0,4.8-1.94,4.8-5.12,0-3.35-1.86-5.14-4.8-5.14s-4.8,2-4.8,5.14S182.09,161.66,185,161.66Zm0-9.43c2.08,0,2.41,2.55,2.41,4.29s-.33,4.31-2.41,4.31-2.41-2.56-2.41-4.31S182.9,152.23,185,152.23Z" fill="#004990"/><path d="M205.84,154.35a2.81,2.81,0,0,0-2.91-2.88,3.51,3.51,0,0,0-3.11,1.91,2.75,2.75,0,0,0-2.81-1.91,3.2,3.2,0,0,0-2.91,1.91,14.26,14.26,0,0,1,.11-1.82,4.8,4.8,0,0,1-1,.12,10.09,10.09,0,0,1-1.32-.12c.08,1.08.15,2.19.15,4.43,0,2.79,0,3.2-.13,5.42a11.45,11.45,0,0,1,1.26-.12,9.32,9.32,0,0,1,1.09.12c-.09-1.43-.09-2.94-.09-4.41a10,10,0,0,1,.26-2.88,1.8,1.8,0,0,1,1.63-1.19,1.54,1.54,0,0,1,1.66,1.27,19.07,19.07,0,0,1,.14,3.23,39.06,39.06,0,0,1-.16,4,12.22,12.22,0,0,1,1.25-.12,10.84,10.84,0,0,1,1.16.12c0-1.25-.13-2.53-.13-3.8,0-2.63,0-4.68,2-4.68,1.5,0,1.61,1.52,1.65,2.11,0,.38,0,2.28,0,2.74,0,1.13-.08,2.63-.15,3.63.22,0,.82-.12,1.18-.12s.69.08,1.2.12c-.09-.74-.11-3.18-.11-4S205.84,155.19,205.84,154.35Z" fill="#004990"/><path d="M213.35,161.51c3.1,0,4.3-2.77,4.3-5.13,0-2.57-1.51-5.12-4.11-5.12a3.51,3.51,0,0,0-3,1.73l.06-1.44a6.23,6.23,0,0,1-1,.13,10.28,10.28,0,0,1-1.16-.13c.17,2.11.21,5.34.21,7.52,0,1.25,0,5.13-.23,7.68a5.76,5.76,0,0,1,1.18-.13,5,5,0,0,1,1.27.13c-.16-1.74-.22-3.53-.22-6.57A3.3,3.3,0,0,0,213.35,161.51Zm-.4-9c2.16,0,2.31,2.91,2.31,4.07,0,1.49-.4,3.85-2.23,3.85-2,0-2.4-2.17-2.4-4C210.63,154.9,211.08,152.52,213,152.52Z" fill="#004990"/><path d="M224.34,160.26c.23.66.46,1.25,1.59,1.25a4.46,4.46,0,0,0,1.62-.45,1,1,0,0,1,0-.73,1.26,1.26,0,0,1-.53.16c-.65,0-.67-.5-.67-2.51,0-.67.06-2.75.06-3.51,0-2.07-1.42-3.08-3.48-3.08a4.83,4.83,0,0,0-3,1.15,5.06,5.06,0,0,1,0,.55,6.16,6.16,0,0,1-.1,1,1.65,1.65,0,0,1,.31,0,1.35,1.35,0,0,1,.28,0,2,2,0,0,1,2.07-1.46c1,0,1.85.62,1.85,2.18a.91.91,0,0,1-.08.41c-.09.19-.24.25-1.37.58l-.65.18c-1.78.51-3.08.88-3.08,3.16a2.43,2.43,0,0,0,2.64,2.51A3.2,3.2,0,0,0,224.34,160.26Zm-1.78.15c-.76,0-1.26-.68-1.26-1.77,0-1.48.78-1.7,3-2.32v2.13A1.79,1.79,0,0,1,222.56,160.41Z" fill="#004990"/><path d="M237.59,154.92c0-2.2-1.11-3.47-3.19-3.47a3.3,3.3,0,0,0-3,1.81,7.58,7.58,0,0,1,.1-1.71,4.23,4.23,0,0,1-1.05.13,5.39,5.39,0,0,1-1.26-.13,37,37,0,0,1,.15,4.38c0,2.44,0,2.75-.19,5.48a8.41,8.41,0,0,1,1.2-.12c.18,0,1,.1,1.21.12-.1-1.4-.13-2.77-.13-4.64a8.88,8.88,0,0,1,.32-2.71,2,2,0,0,1,1.7-1.2,1.7,1.7,0,0,1,1.78,1.36,24.11,24.11,0,0,1,.13,3.31,31.79,31.79,0,0,1-.23,3.88,11.34,11.34,0,0,1,1.24-.12c.43,0,.82.08,1.25.12a18.81,18.81,0,0,1-.14-2.53C237.51,157.88,237.59,155.5,237.59,154.92Z" fill="#004990"/><path d="M247.09,151.68a3,3,0,0,1-.84-.12c-.21.67-.52,1.74-.71,2.42,0,.06-.92,2.91-1.34,4l-.34.86-.9-2.34c-.21-.55-1.45-4.06-1.66-4.9a10.83,10.83,0,0,1-1.32.12,10.06,10.06,0,0,1-1.34-.12l2.28,5.44c1.5,3.75,1.67,4.16,1.85,4.78-.48,1-1.74,3.7-2.14,4.4l-.31.53a3.45,3.45,0,0,1,.88-.12,3.36,3.36,0,0,1,.86.12c.59-2.71,4.91-13.1,5.89-15.15A4.46,4.46,0,0,1,247.09,151.68Z" fill="#004990"/><path d="M6.23,173.18a1.79,1.79,0,0,1-.55.11,1.8,1.8,0,0,1-.57-.11c-.41,1.69-1.4,4.36-3.13,9l-2,5.3a4.26,4.26,0,0,1,.77-.13,4.86,4.86,0,0,1,.82.13c.27-1.17.82-2.88,1.37-4.46.68,0,1.37-.08,2.05-.08s1.45,0,2.19.08l.72,2.18.71,2.28c.31,0,.79-.13,1.27-.13s1.08.11,1.33.13c-.77-2-1.9-5.1-2.55-6.88S7.05,176,6.23,173.18Zm-1.1,8.65c-.6,0-1.18-.06-1.78-.08l1.75-5.06,1.6,5.06C6.17,181.79,5.66,181.83,5.13,181.83Z" fill="#004990"/><path d="M28.93,175.09l-.14-1.7a1.13,1.13,0,0,1-.36.06,1.31,1.31,0,0,1-.38-.06c-1.74,4.19-2.49,5.89-4.1,9.28L23.32,184l-.92-2c-1.63-3.49-2.11-4.57-3.24-7.35l-.52-1.29a2.5,2.5,0,0,1-.38.06,1.27,1.27,0,0,1-.39-.06c-.21,2.38-1.24,10.9-1.65,13.45l-.1.64a2.71,2.71,0,0,1,.72-.13,3.38,3.38,0,0,1,.79.13c.12-3.08.4-6.25.71-9.12.24.53,1.46,3.12,1.71,3.72,1.28,3,1.71,3.83,2.36,5.4a1.42,1.42,0,0,1,.67,0c1-2.79,2.92-7,4.07-9.33.05.87.46,5,.55,6,0,.37.11,2.2.15,2.61l0,.76a8,8,0,0,1,1.16-.13,11.79,11.79,0,0,1,1.23.13c-.18-1-.54-4-.68-5.24C29.34,179.78,29.12,177.52,28.93,175.09Z" fill="#004990"/><path d="M38.9,179.35a3.23,3.23,0,0,0-3.22-1.87c-2,0-4,1.56-4,5a6.16,6.16,0,0,0,1.14,3.92A4.17,4.17,0,0,0,36,187.73a4.3,4.3,0,0,0,2.88-1l.15-.89a3.45,3.45,0,0,1,.14-.42l-.19-.15a3.36,3.36,0,0,1-2.43,1.3c-2.72,0-2.72-3.13-2.72-3.89h5.61A7.6,7.6,0,0,0,38.9,179.35Zm-5.08,2.28c0-.78.13-3.33,1.9-3.33s1.71,2.32,1.71,3.33Z" fill="#004990"/><path d="M53.72,180.41a2.68,2.68,0,0,0-2.6-2.87,3.16,3.16,0,0,0-2.79,1.91,2.5,2.5,0,0,0-2.51-1.91,2.87,2.87,0,0,0-2.6,1.91,17.9,17.9,0,0,1,.1-1.83,3.37,3.37,0,0,1-.9.12,6.81,6.81,0,0,1-1.18-.12c.07,1.09.14,2.2.14,4.44,0,2.79,0,3.2-.13,5.42a9.14,9.14,0,0,1,1.13-.13,6.41,6.41,0,0,1,1,.13c-.09-1.44-.09-2.94-.09-4.42a10.72,10.72,0,0,1,.24-2.87A1.63,1.63,0,0,1,45,179a1.4,1.4,0,0,1,1.48,1.27,22.06,22.06,0,0,1,.12,3.22c0,.58,0,2.75-.13,4a9.78,9.78,0,0,1,1.11-.13,7,7,0,0,1,1,.13c-.05-1.26-.12-2.53-.12-3.8,0-2.63,0-4.68,1.81-4.68,1.34,0,1.44,1.51,1.47,2.11,0,.37,0,2.28,0,2.73,0,1.13-.07,2.63-.13,3.64.2,0,.73-.13,1-.13s.62.08,1.08.13c-.08-.74-.1-3.19-.1-4S53.72,181.26,53.72,180.41Z" fill="#004990"/><path d="M60.65,177.46A3,3,0,0,0,58,179.2c0-4.21,0-4.66.14-6.94a4.53,4.53,0,0,1-1.05.12,4.63,4.63,0,0,1-1.14-.12c.18,3.8.2,5.11.2,7.8,0,4.13-.07,5.35-.17,7.42h.58a4.25,4.25,0,0,1,1.08-1.19,2.79,2.79,0,0,0,2.67,1.43c2.49,0,3.89-2.62,3.89-5.4C64.23,178.89,62.34,177.46,60.65,177.46ZM60,186.78c-1.94,0-2-2.77-2-4.05,0-1.66.29-4,2.07-4s2,2.46,2,3.82C62.12,184.26,61.79,186.78,60,186.78Z" fill="#004990"/><path d="M72.94,179.35a3.23,3.23,0,0,0-3.22-1.87c-2,0-4,1.56-4,5a6.16,6.16,0,0,0,1.14,3.92,4.17,4.17,0,0,0,3.1,1.36,4.26,4.26,0,0,0,2.87-1l.15-.89c0-.14.09-.28.14-.42l-.19-.15a3.36,3.36,0,0,1-2.42,1.3c-2.72,0-2.72-3.13-2.72-3.89h5.6A7.44,7.44,0,0,0,72.94,179.35Zm-5.08,2.28c0-.78.13-3.33,1.9-3.33s1.71,2.32,1.71,3.33Z" fill="#004990"/><path d="M79.81,177.52c-1.36,0-2,1.38-2.51,2.26a15.91,15.91,0,0,1,.1-2.16,3.25,3.25,0,0,1-1,.13,5,5,0,0,1-1.13-.13c.08,1.81.12,2.32.12,4.56,0,.8,0,2.38,0,3.29l-.06,2c.51-.06.89-.12,1.18-.12a8.94,8.94,0,0,1,1,.12c-.1-1.27-.16-3.26-.16-4.58a5,5,0,0,1,.21-2,1.67,1.67,0,0,1,1.52-1.11,1.69,1.69,0,0,1,1,.28l.12-.1a4.42,4.42,0,0,1-.09-.88,5.41,5.41,0,0,1,.16-1.48A1.53,1.53,0,0,0,79.81,177.52Z" fill="#004990"/><path d="M89.87,177.47c-2.58,0-4.29,2-4.29,5.14s1.71,5.11,4.29,5.11,4.29-1.93,4.29-5.11C94.16,179.26,92.5,177.47,89.87,177.47Zm0,9.43c-1.87,0-2.15-2.56-2.15-4.31s.28-4.29,2.15-4.29S92,180.85,92,182.59,91.73,186.9,89.87,186.9Z" fill="#004990"/><path d="M100,172.13c-1.71,0-2.53,1.81-2.74,2.24a8.62,8.62,0,0,0-.75,3.41,6.46,6.46,0,0,1-1.3-.08c0,.23,0,.41,0,.56a3.51,3.51,0,0,1,0,.55,5.75,5.75,0,0,1,.73-.06h.55c0,.41,0,2.07,0,3s0,2,0,3.62a13.13,13.13,0,0,1-.13,2.07,7,7,0,0,1,1.12-.13,7.81,7.81,0,0,1,1.07.13c-.13-1.77-.17-7.11-.17-7.6v-1.13a9.32,9.32,0,0,1,1.78.06,2.39,2.39,0,0,1-.07-.55,2.84,2.84,0,0,1,.07-.56l-.63.07H98.38a14.58,14.58,0,0,1-.48-2.42c0-1.27.82-1.32,1.14-1.32a2.16,2.16,0,0,1,1.27.42l.12-.13c0-.31,0-.72,0-1.09a4.33,4.33,0,0,1,.14-1A2,2,0,0,0,100,172.13Z" fill="#004990"/><path d="M109.35,186.62c-1.14,0-1.23-.89-1.23-3.93,0-.86,0-3.06,0-3.94a13.06,13.06,0,0,1,1.87.08,4.07,4.07,0,0,1-.05-.61,2.87,2.87,0,0,1,.05-.52l-.63.07h-1.18a29.14,29.14,0,0,1,.12-3.72l-.12-.06a8.18,8.18,0,0,1-2,1.44c0,.95,0,1.77,0,2.34h-.75a3.37,3.37,0,0,1-.58-.08,5,5,0,0,1,0,.66,2.16,2.16,0,0,1,0,.45,7.33,7.33,0,0,1,.8-.06h.52c0,1.64-.11,5.24-.11,6.14a3.22,3.22,0,0,0,.72,2.32,2.41,2.41,0,0,0,1.54.54,4.4,4.4,0,0,0,1.93-.6,2,2,0,0,1-.07-.47,3,3,0,0,1,.07-.5A1.53,1.53,0,0,1,109.35,186.62Z" fill="#004990"/><path d="M118.86,181.4a5.22,5.22,0,0,0-.39-2.5,2.57,2.57,0,0,0-2.38-1.38,3,3,0,0,0-2.66,1.68c0-2.52,0-4,.12-6.28l0-.66a3.91,3.91,0,0,1-1,.13,5,5,0,0,1-1.16-.13c0,1.09.12,2.34.12,3.16l0,4c0,4.35,0,5.27-.14,8a8.55,8.55,0,0,1,1-.13,6.38,6.38,0,0,1,1.08.13c-.08-1.85-.08-2.06-.08-4.75a8.43,8.43,0,0,1,.2-2.4,1.67,1.67,0,0,1,1.69-1.33,1.47,1.47,0,0,1,1.47,1.27,14.6,14.6,0,0,1,.12,2.92c0,1.41-.08,3.14-.18,4.29.24,0,.76-.13,1.14-.13a4.52,4.52,0,0,1,1.06.13c-.05-.82-.1-2.73-.1-3.87C118.83,183,118.86,181.87,118.86,181.4Z" fill="#004990"/><path d="M128,179.35a3.22,3.22,0,0,0-3.22-1.87c-2,0-4,1.56-4,5a6.16,6.16,0,0,0,1.14,3.92,4.17,4.17,0,0,0,3.1,1.36,4.26,4.26,0,0,0,2.87-1l.15-.89c0-.14.09-.28.14-.42l-.19-.15a3.36,3.36,0,0,1-2.43,1.3c-2.72,0-2.72-3.13-2.72-3.89h5.61A7.44,7.44,0,0,0,128,179.35Zm-5.08,2.28c0-.78.14-3.33,1.9-3.33s1.71,2.32,1.71,3.33Z" fill="#004990"/><path d="M139.26,173.18a1.45,1.45,0,0,1-1.11,0c-.41,1.69-1.4,4.36-3.13,9l-2,5.3a4.26,4.26,0,0,1,.77-.13,5,5,0,0,1,.82.13c.27-1.17.82-2.88,1.37-4.46.68,0,1.36-.08,2.05-.08s1.45,0,2.18.08l.72,2.18.72,2.28c.31,0,.79-.13,1.27-.13s1.07.11,1.33.13c-.77-2-1.9-5.1-2.55-6.88S140.08,176,139.26,173.18Zm-1.09,8.65c-.6,0-1.18-.06-1.78-.08l1.74-5.06,1.61,5.06C139.21,181.79,138.7,181.83,138.17,181.83Z" fill="#004990"/><path d="M157.77,180.41a2.67,2.67,0,0,0-2.59-2.87,3.15,3.15,0,0,0-2.79,1.91,2.5,2.5,0,0,0-2.51-1.91,2.87,2.87,0,0,0-2.6,1.91,13.31,13.31,0,0,1,.1-1.83,3.46,3.46,0,0,1-.91.12,6.79,6.79,0,0,1-1.17-.12c.06,1.09.13,2.2.13,4.44,0,2.79,0,3.2-.12,5.42a8.91,8.91,0,0,1,1.13-.13,6,6,0,0,1,1,.13c-.08-1.44-.08-2.94-.08-4.42a10.72,10.72,0,0,1,.24-2.87A1.63,1.63,0,0,1,149,179a1.42,1.42,0,0,1,1.49,1.27,22.06,22.06,0,0,1,.12,3.22c0,.58,0,2.75-.14,4a10,10,0,0,1,1.11-.13,7,7,0,0,1,1,.13c0-1.26-.11-2.53-.11-3.8,0-2.63,0-4.68,1.81-4.68,1.33,0,1.44,1.51,1.47,2.11,0,.37,0,2.28,0,2.73,0,1.13-.07,2.63-.14,3.64.21,0,.74-.13,1.06-.13s.62.08,1.08.13c-.09-.74-.1-3.19-.1-4S157.77,181.26,157.77,180.41Z" fill="#004990"/><path d="M166.9,179.35a3.2,3.2,0,0,0-3.21-1.87c-2,0-4,1.56-4,5a6.18,6.18,0,0,0,1.15,3.92,4.17,4.17,0,0,0,3.1,1.36,4.26,4.26,0,0,0,2.87-1l.15-.89c0-.14.09-.28.14-.42l-.19-.15a3.36,3.36,0,0,1-2.43,1.3c-2.71,0-2.71-3.13-2.71-3.89h5.6A7.41,7.41,0,0,0,166.9,179.35Zm-5.07,2.28c0-.78.14-3.33,1.9-3.33s1.71,2.32,1.71,3.33Z" fill="#004990"/><path d="M173.78,177.52c-1.37,0-2.05,1.38-2.51,2.26a15.91,15.91,0,0,1,.1-2.16,3.25,3.25,0,0,1-1,.13,5,5,0,0,1-1.13-.13c.08,1.81.12,2.32.12,4.56,0,.8,0,2.38,0,3.29l-.07,2c.52-.06.89-.12,1.18-.12a8.58,8.58,0,0,1,1,.12c-.1-1.27-.16-3.26-.16-4.58a5,5,0,0,1,.21-2A1.7,1.7,0,0,1,174,180l.12-.1a4.42,4.42,0,0,1-.09-.88,5.41,5.41,0,0,1,.16-1.48A1.58,1.58,0,0,0,173.78,177.52Z" fill="#004990"/><path d="M176.74,172.87a1.36,1.36,0,0,0-1.18,1.44,1.34,1.34,0,0,0,1.18,1.42,1.36,1.36,0,0,0,1.19-1.42A1.38,1.38,0,0,0,176.74,172.87Z" fill="#004990"/><path d="M177.85,177.62a4.28,4.28,0,0,1-1.06.12,5.89,5.89,0,0,1-1.15-.12c.12,1.44.18,3.64.18,5.09,0,.76,0,1.5-.06,2.55l-.08,2.22a7.63,7.63,0,0,1,1.16-.13,4.94,4.94,0,0,1,1,.13c0-.25-.07-1.42-.07-1.69,0-.72,0-2.83,0-3.73,0-.75.07-2.66.11-3.52Z" fill="#004990"/><path d="M184.47,186.57c-2,0-2.55-2.19-2.55-4.21a5.61,5.61,0,0,1,.53-2.77,2.21,2.21,0,0,1,1.83-1.19c1.47,0,1.79,1.6,1.81,1.7h.33a6.24,6.24,0,0,1,.39-1.93,5.25,5.25,0,0,0-2.62-.71c-3.08,0-4.48,2.56-4.48,5.25,0,2.47,1.44,5,4.26,5a4.76,4.76,0,0,0,2.51-.73,4,4,0,0,1,.34-1.44l-.27-.19C185.92,186,185.46,186.57,184.47,186.57Z" fill="#004990"/><path d="M195.1,186.55c-.58,0-.6-.49-.6-2.5,0-.68.05-2.75.05-3.51a2.82,2.82,0,0,0-3.11-3.08c-.89,0-1.42.2-2.72,1.14a5.33,5.33,0,0,1,0,.56,7.33,7.33,0,0,1-.08,1,1.17,1.17,0,0,1,.27,0,1,1,0,0,1,.25,0,1.81,1.81,0,0,1,1.85-1.46c.93,0,1.66.62,1.66,2.17a1.16,1.16,0,0,1-.07.42c-.08.18-.22.24-1.23.57l-.58.19c-1.59.51-2.75.88-2.75,3.16a2.32,2.32,0,0,0,2.36,2.51,2.82,2.82,0,0,0,2.29-1.4c.2.66.41,1.25,1.42,1.25a3.88,3.88,0,0,0,1.45-.45,1.21,1.21,0,0,1-.07-.37,1.27,1.27,0,0,1,.07-.37A1.05,1.05,0,0,1,195.1,186.55Zm-2.46-2c0,1.07-.6,1.95-1.52,1.95-.69,0-1.13-.68-1.13-1.76,0-1.48.7-1.71,2.65-2.33Z" fill="#004990"/><path d="M204.55,181c0-2.2-1-3.47-2.85-3.47-1.32,0-1.95.68-2.65,1.81a8.41,8.41,0,0,1,.09-1.71,3.54,3.54,0,0,1-.95.13,4.32,4.32,0,0,1-1.12-.13,40.61,40.61,0,0,1,.13,4.38c0,2.44,0,2.75-.17,5.48a6.86,6.86,0,0,1,1.08-.12c.15,0,.91.1,1.08.12-.09-1.4-.12-2.77-.12-4.64a9.93,9.93,0,0,1,.29-2.71,1.76,1.76,0,0,1,1.52-1.19,1.54,1.54,0,0,1,1.59,1.35,26.1,26.1,0,0,1,.12,3.31,36.45,36.45,0,0,1-.21,3.88,9.38,9.38,0,0,1,1.12-.12,10.74,10.74,0,0,1,1.11.12,21.59,21.59,0,0,1-.12-2.53C204.49,184,204.55,181.56,204.55,181Z" fill="#004990"/><path d="M221,173.52a2.33,2.33,0,0,1-.73-.13c.12,1.69.2,3.45.2,5.2v4.55a11.63,11.63,0,0,1-.85-.88l-2-2.38c-2.07-2.42-3.59-4.33-5.22-6.49a2.45,2.45,0,0,1-.39,0,3,3,0,0,1-.41,0c0,1.91,0,3.84,0,5.77V182c0,.58,0,2.12,0,2.68l-.13,2.85a2.35,2.35,0,0,1,.68-.12,7.36,7.36,0,0,1,.77.12c-.12-1.89-.14-2.09-.15-3.29,0-2.18-.05-3.67-.05-6.46,1.81,2,6,7,8.19,9.85a2.21,2.21,0,0,1,.35,0,2,2,0,0,1,.34,0c0-.51,0-1.58,0-2,0-1.07,0-4,0-5.22,0-3,0-4.46.19-6.94A2.32,2.32,0,0,1,221,173.52Z" fill="#004990"/><path d="M230.68,186.55c-.58,0-.59-.49-.59-2.5,0-.68,0-2.75,0-3.51a2.83,2.83,0,0,0-3.12-3.08,4.07,4.07,0,0,0-2.71,1.14c0,.19,0,.38,0,.56a7.33,7.33,0,0,1-.08,1,1.26,1.26,0,0,1,.27,0,1.17,1.17,0,0,1,.26,0,1.79,1.79,0,0,1,1.84-1.46c.93,0,1.66.62,1.66,2.17a1.16,1.16,0,0,1-.07.42c-.08.18-.22.24-1.23.57l-.58.19c-1.59.51-2.75.88-2.75,3.16a2.32,2.32,0,0,0,2.36,2.51,2.82,2.82,0,0,0,2.29-1.4c.2.66.41,1.25,1.42,1.25a3.82,3.82,0,0,0,1.45-.45,1.61,1.61,0,0,1-.07-.37,1.72,1.72,0,0,1,.07-.37A1.05,1.05,0,0,1,230.68,186.55Zm-2.46-2c0,1.07-.6,1.95-1.52,1.95-.68,0-1.13-.68-1.13-1.76,0-1.48.7-1.71,2.65-2.33Z" fill="#004990"/><path d="M236.25,186.62c-1.14,0-1.23-.89-1.23-3.93,0-.86,0-3.06,0-3.94a13.06,13.06,0,0,1,1.87.08,3.08,3.08,0,0,1-.06-.61,2.18,2.18,0,0,1,.06-.52l-.63.07h-1.18a29.14,29.14,0,0,1,.12-3.72l-.12-.06a8.18,8.18,0,0,1-1.95,1.44c0,.95,0,1.77,0,2.34h-.75a3.23,3.23,0,0,1-.58-.08,5,5,0,0,1,.05.66,3.17,3.17,0,0,1-.05.45,7.33,7.33,0,0,1,.8-.06h.51c0,1.64-.1,5.24-.1,6.14a3.22,3.22,0,0,0,.72,2.32,2.41,2.41,0,0,0,1.54.54,4.4,4.4,0,0,0,1.93-.6,1.55,1.55,0,0,1-.07-.47,4.63,4.63,0,0,1,.07-.5A1.53,1.53,0,0,1,236.25,186.62Z" fill="#004990"/><path d="M239.69,172.87a1.37,1.37,0,0,0-1.18,1.44,1.21,1.21,0,1,0,2.38,0A1.38,1.38,0,0,0,239.69,172.87Z" fill="#004990"/><path d="M240.8,177.62a4.22,4.22,0,0,1-1.06.12,5.77,5.77,0,0,1-1.14-.12c.12,1.44.17,3.64.17,5.09,0,.76,0,1.5-.05,2.55l-.09,2.22a7.62,7.62,0,0,1,1.17-.13,5,5,0,0,1,1,.13c0-.25-.07-1.42-.07-1.69,0-.72-.05-2.83-.05-3.73,0-.75.06-2.66.1-3.52Z" fill="#004990"/><path d="M246.94,177.47c-2.58,0-4.29,2-4.29,5.14s1.71,5.11,4.29,5.11,4.29-1.93,4.29-5.11C251.23,179.26,249.57,177.47,246.94,177.47Zm0,9.43c-1.86,0-2.15-2.56-2.15-4.31s.29-4.29,2.15-4.29,2.16,2.55,2.16,4.29S248.8,186.9,246.94,186.9Z" fill="#004990"/><path d="M260.59,181c0-2.2-1-3.47-2.86-3.47-1.32,0-2,.68-2.65,1.81a8.41,8.41,0,0,1,.09-1.71,3.61,3.61,0,0,1-.95.13,4.32,4.32,0,0,1-1.12-.13,40.61,40.61,0,0,1,.13,4.38c0,2.44,0,2.75-.17,5.48a6.74,6.74,0,0,1,1.07-.12c.16,0,.91.1,1.08.12-.08-1.4-.12-2.77-.12-4.64a9.93,9.93,0,0,1,.3-2.71,1.76,1.76,0,0,1,1.52-1.19,1.55,1.55,0,0,1,1.59,1.35,26.1,26.1,0,0,1,.12,3.31,36.45,36.45,0,0,1-.21,3.88,9.43,9.43,0,0,1,1.11-.12,10.18,10.18,0,0,1,1.11.12,24.69,24.69,0,0,1-.11-2.53C260.52,184,260.59,181.56,260.59,181Z" fill="#004990"/><path d="M269.39,186.55c-.58,0-.6-.49-.6-2.5,0-.68,0-2.75,0-3.51a2.82,2.82,0,0,0-3.11-3.08c-.89,0-1.42.2-2.72,1.14a5.33,5.33,0,0,1,0,.56,6.1,6.1,0,0,1-.09,1,1.35,1.35,0,0,1,.28,0,1.09,1.09,0,0,1,.25,0,1.81,1.81,0,0,1,1.85-1.46c.92,0,1.66.62,1.66,2.17a1.16,1.16,0,0,1-.07.42c-.09.18-.22.24-1.23.57l-.58.19c-1.59.51-2.75.88-2.75,3.16a2.32,2.32,0,0,0,2.36,2.51,2.82,2.82,0,0,0,2.29-1.4c.2.66.41,1.25,1.42,1.25a3.88,3.88,0,0,0,1.45-.45,1.21,1.21,0,0,1-.07-.37,1.27,1.27,0,0,1,.07-.37A1.05,1.05,0,0,1,269.39,186.55Zm-2.46-2c0,1.07-.6,1.95-1.52,1.95-.68,0-1.13-.68-1.13-1.76,0-1.48.7-1.71,2.65-2.33Z" fill="#004990"/><path d="M273.58,172.26a4.63,4.63,0,0,1-1.1.13,5,5,0,0,1-1.17-.13c.12,1.6.2,3.23.2,7.05,0,.49,0,6.59-.17,8.17a9.34,9.34,0,0,1,1.18-.12,8.7,8.7,0,0,1,1,.12c-.2-2.32-.15-7.25-.15-7.66C273.41,177.7,273.41,174.48,273.58,172.26Z" fill="#004990"/><path d="M283.72,173.52c-.84,0-2.63-.09-3.23-.13.08,2,.17,4.21.17,6.82,0,3.27,0,3.82-.15,7.27a4.27,4.27,0,0,1,1.11-.12,4.36,4.36,0,0,1,1.23.12c-.05-.43-.05-.6-.07-1.07,0-.64,0-.92,0-3v-2.75c1.83,0,2,0,3,0l.94,0a3,3,0,0,1-.09-.69,2.43,2.43,0,0,1,.09-.68c-.7,0-1.45.1-2.74.1h-1.18v-4.79c1.52,0,2.65.06,4.19.18a2.21,2.21,0,0,1-.09-.67,4.67,4.67,0,0,1,.09-.78C286,173.43,284.81,173.52,283.72,173.52Z" fill="#004990"/><path d="M294.9,186.55c-.58,0-.6-.49-.6-2.5,0-.68.05-2.75.05-3.51a2.82,2.82,0,0,0-3.11-3.08c-.89,0-1.42.2-2.72,1.14a5.33,5.33,0,0,1,0,.56,6.1,6.1,0,0,1-.09,1,1.35,1.35,0,0,1,.28,0,1.09,1.09,0,0,1,.25,0,1.81,1.81,0,0,1,1.85-1.46c.92,0,1.66.62,1.66,2.17a1.16,1.16,0,0,1-.07.42c-.08.18-.22.24-1.23.57l-.58.19c-1.59.51-2.75.88-2.75,3.16a2.31,2.31,0,0,0,2.35,2.51,2.84,2.84,0,0,0,2.3-1.4c.2.66.41,1.25,1.42,1.25a3.88,3.88,0,0,0,1.45-.45,1.61,1.61,0,0,1-.07-.37,1.72,1.72,0,0,1,.07-.37A1.09,1.09,0,0,1,294.9,186.55Zm-2.46-2c0,1.07-.6,1.95-1.52,1.95-.69,0-1.13-.68-1.13-1.76,0-1.48.7-1.71,2.65-2.33Z" fill="#004990"/><path d="M309.37,180.41a2.68,2.68,0,0,0-2.6-2.87,3.15,3.15,0,0,0-2.79,1.91,2.5,2.5,0,0,0-2.51-1.91,2.87,2.87,0,0,0-2.6,1.91,13.31,13.31,0,0,1,.1-1.83,3.43,3.43,0,0,1-.9.12,7,7,0,0,1-1.19-.12c.07,1.09.15,2.2.15,4.44,0,2.79,0,3.2-.13,5.42a8.91,8.91,0,0,1,1.13-.13,6.12,6.12,0,0,1,1,.13c-.08-1.44-.08-2.94-.08-4.42a10.72,10.72,0,0,1,.24-2.87,1.63,1.63,0,0,1,1.45-1.19,1.41,1.41,0,0,1,1.49,1.27,22.06,22.06,0,0,1,.12,3.22c0,.58,0,2.75-.14,4a10,10,0,0,1,1.11-.13,7.17,7.17,0,0,1,1.05.13c-.05-1.26-.12-2.53-.12-3.8,0-2.63,0-4.68,1.81-4.68,1.33,0,1.44,1.51,1.47,2.11,0,.37,0,2.28,0,2.73,0,1.13-.07,2.63-.14,3.64.21,0,.73-.13,1.06-.13s.62.08,1.08.13c-.09-.74-.1-3.19-.1-4S309.37,181.26,309.37,180.41Z" fill="#004990"/><path d="M313.87,177.62a4.37,4.37,0,0,1-1.07.12,5.77,5.77,0,0,1-1.14-.12c.12,1.44.17,3.64.17,5.09,0,.76,0,1.5-.05,2.55l-.09,2.22a7.62,7.62,0,0,1,1.17-.13,5.15,5.15,0,0,1,1,.13c0-.25-.07-1.42-.07-1.69,0-.72,0-2.83,0-3.73,0-.75.06-2.66.1-3.52Z" fill="#004990"/><path d="M312.75,172.87a1.37,1.37,0,0,0-1.18,1.44,1.35,1.35,0,0,0,1.18,1.42,1.36,1.36,0,0,0,1.2-1.42A1.38,1.38,0,0,0,312.75,172.87Z" fill="#004990"/><path d="M318.29,172.26a4.61,4.61,0,0,1-1.09.13,5,5,0,0,1-1.18-.13c.12,1.6.2,3.23.2,7.05,0,.49,0,6.59-.17,8.17a9.34,9.34,0,0,1,1.18-.12,8.7,8.7,0,0,1,1,.12c-.2-2.32-.15-7.25-.15-7.66C318.12,177.7,318.12,174.48,318.29,172.26Z" fill="#004990"/><path d="M326.26,177.62c-.19.68-.46,1.75-.64,2.42,0,.06-.81,2.92-1.19,4l-.31.86-.8-2.34c-.19-.56-1.3-4.07-1.49-4.91a8.56,8.56,0,0,1-1.18.12,7,7,0,0,1-1.2-.12l2,5.44c1.35,3.76,1.5,4.17,1.65,4.79-.42,1-1.55,3.69-1.91,4.39l-.27.53a2.74,2.74,0,0,1,.78-.12,2.65,2.65,0,0,1,.77.12c.53-2.71,4.4-13.09,5.27-15.15a3,3,0,0,1-.77.12A2.45,2.45,0,0,1,326.26,177.62Z" fill="#004990"/><path d="M337.27,177.47c-2.58,0-4.29,2-4.29,5.14s1.71,5.11,4.29,5.11,4.29-1.93,4.29-5.11C341.56,179.26,339.9,177.47,337.27,177.47Zm0,9.43c-1.86,0-2.16-2.56-2.16-4.31s.3-4.29,2.16-4.29,2.15,2.55,2.15,4.29S339.13,186.9,337.27,186.9Z" fill="#004990"/><path d="M347.45,172.13c-1.72,0-2.54,1.81-2.74,2.24a8.45,8.45,0,0,0-.75,3.41,6.46,6.46,0,0,1-1.3-.08c0,.23,0,.41,0,.56a3.51,3.51,0,0,1,0,.55,5.59,5.59,0,0,1,.73-.06h.55c0,.41,0,2.07,0,3s0,2-.05,3.62a14.92,14.92,0,0,1-.12,2.07,7.05,7.05,0,0,1,1.11-.13,8,8,0,0,1,1.08.13c-.13-1.77-.17-7.11-.17-7.6v-1.13a9.25,9.25,0,0,1,1.77.06,2.47,2.47,0,0,1-.06-.55,2.91,2.91,0,0,1,.06-.56l-.63.07h-1.18a14.58,14.58,0,0,1-.48-2.42c0-1.27.82-1.32,1.15-1.32a2.18,2.18,0,0,1,1.27.42l.11-.13c0-.31,0-.72,0-1.09a3.86,3.86,0,0,1,.14-1A2,2,0,0,0,347.45,172.13Z" fill="#004990"/><path d="M359.62,174.33c2.46,0,3.06,1.44,3.26,1.94h.17l.51-2a8.06,8.06,0,0,0-4-1c-4.56,0-6.66,3.31-6.66,7.44,0,4.62,2.76,7.11,6.1,7.11a7.74,7.74,0,0,0,4.32-1.3l.19-2-.19-.15a4.59,4.59,0,0,1-3.95,2.35,3.56,3.56,0,0,1-3.09-1.88,8.06,8.06,0,0,1-1-4.28C355.24,176.59,356.76,174.33,359.62,174.33Z" fill="#004990"/><path d="M369.07,177.47c-2.58,0-4.29,2-4.29,5.14s1.71,5.11,4.29,5.11,4.29-1.93,4.29-5.11C373.36,179.26,371.71,177.47,369.07,177.47Zm0,9.43c-1.86,0-2.15-2.56-2.15-4.31s.29-4.29,2.15-4.29,2.16,2.55,2.16,4.29S370.94,186.9,369.07,186.9Z" fill="#004990"/><path d="M387.72,180.41a2.68,2.68,0,0,0-2.59-2.87,3.16,3.16,0,0,0-2.8,1.91,2.49,2.49,0,0,0-2.51-1.91,2.87,2.87,0,0,0-2.6,1.91,14.48,14.48,0,0,1,.11-1.83,3.52,3.52,0,0,1-.91.12,6.92,6.92,0,0,1-1.18-.12c.07,1.09.14,2.2.14,4.44,0,2.79,0,3.2-.12,5.42a8.91,8.91,0,0,1,1.13-.13,6.12,6.12,0,0,1,1,.13c-.08-1.44-.08-2.94-.08-4.42a10.72,10.72,0,0,1,.24-2.87A1.62,1.62,0,0,1,379,179a1.42,1.42,0,0,1,1.49,1.27,24,24,0,0,1,.11,3.22c0,.58,0,2.75-.13,4a10,10,0,0,1,1.11-.13,7,7,0,0,1,1,.13c0-1.26-.11-2.53-.11-3.8,0-2.63,0-4.68,1.8-4.68,1.34,0,1.44,1.51,1.48,2.11,0,.37,0,2.28,0,2.73,0,1.13-.07,2.63-.14,3.64a10.58,10.58,0,0,1,1.06-.13c.29,0,.61.08,1.07.13-.08-.74-.1-3.19-.1-4S387.72,181.26,387.72,180.41Z" fill="#004990"/><path d="M394.61,177.33a3.12,3.12,0,0,0-2.66,1.73l.05-1.44a4.94,4.94,0,0,1-.92.13,8.61,8.61,0,0,1-1.05-.13c.16,2.11.19,5.34.19,7.52,0,1.25,0,5.13-.2,7.68a4.59,4.59,0,0,1,1.06-.13,3.88,3.88,0,0,1,1.12.13c-.13-1.74-.19-3.54-.19-6.58a2.86,2.86,0,0,0,2.43,1.34c2.77,0,3.85-2.77,3.85-5.13C398.29,179.88,396.94,177.33,394.61,177.33Zm-.46,9.19c-1.79,0-2.14-2.18-2.14-4,0-1.58.4-4,2.08-4,1.93,0,2.06,2.91,2.06,4.06C396.15,184.15,395.8,186.52,394.15,186.52Z" fill="#004990"/><path d="M406.66,186.55c-.57,0-.59-.49-.59-2.5,0-.68.05-2.75.05-3.51a2.82,2.82,0,0,0-3.11-3.08c-.89,0-1.42.2-2.72,1.14a5.33,5.33,0,0,1,0,.56,7.41,7.41,0,0,1-.09,1,1.36,1.36,0,0,1,.27,0,1.17,1.17,0,0,1,.26,0,1.81,1.81,0,0,1,1.85-1.46c.92,0,1.66.62,1.66,2.17a1.16,1.16,0,0,1-.07.42c-.09.18-.23.24-1.23.57l-.59.19c-1.59.51-2.75.88-2.75,3.16a2.32,2.32,0,0,0,2.36,2.51,2.82,2.82,0,0,0,2.29-1.4c.21.66.41,1.25,1.42,1.25a3.82,3.82,0,0,0,1.45-.45,1.59,1.59,0,0,1-.06-.37,1.68,1.68,0,0,1,.06-.37A1,1,0,0,1,406.66,186.55Zm-2.46-2c0,1.07-.59,1.95-1.52,1.95-.68,0-1.13-.68-1.13-1.76,0-1.48.7-1.71,2.65-2.33Z" fill="#004990"/><path d="M416.12,181c0-2.2-1-3.47-2.85-3.47-1.32,0-1.95.68-2.65,1.81a8.41,8.41,0,0,1,.09-1.71,3.61,3.61,0,0,1-.95.13,4.49,4.49,0,0,1-1.13-.13,40,40,0,0,1,.14,4.38c0,2.44,0,2.75-.17,5.48a6.74,6.74,0,0,1,1.08-.12c.15,0,.9.1,1.07.12-.08-1.4-.11-2.77-.11-4.64a9.94,9.94,0,0,1,.28-2.71,1.78,1.78,0,0,1,1.53-1.19,1.55,1.55,0,0,1,1.59,1.35,26.1,26.1,0,0,1,.12,3.31,36.45,36.45,0,0,1-.21,3.88,9.43,9.43,0,0,1,1.11-.12,10.18,10.18,0,0,1,1.11.12,24.69,24.69,0,0,1-.11-2.53C416.06,184,416.12,181.56,416.12,181Z" fill="#004990"/><path d="M420.57,177.62a4.28,4.28,0,0,1-1.06.12,5.69,5.69,0,0,1-1.14-.12c.11,1.44.16,3.64.16,5.09,0,.76,0,1.5,0,2.55l-.08,2.22a7.63,7.63,0,0,1,1.16-.13,4.94,4.94,0,0,1,1,.13c0-.25-.07-1.42-.07-1.69,0-.72-.05-2.83-.05-3.73,0-.75.07-2.66.1-3.52Z" fill="#004990"/><path d="M419.46,172.87a1.37,1.37,0,0,0-1.18,1.44,1.34,1.34,0,0,0,1.18,1.42,1.36,1.36,0,0,0,1.2-1.42A1.38,1.38,0,0,0,419.46,172.87Z" fill="#004990"/><path d="M429.58,179.35a3.22,3.22,0,0,0-3.22-1.87c-2,0-4,1.56-4,5a6.18,6.18,0,0,0,1.15,3.92,4.18,4.18,0,0,0,3.1,1.36,4.26,4.26,0,0,0,2.87-1l.16-.89a3.38,3.38,0,0,1,.13-.42l-.18-.15a3.38,3.38,0,0,1-2.44,1.3c-2.71,0-2.71-3.13-2.71-3.89h5.61A7.72,7.72,0,0,0,429.58,179.35Zm-5.08,2.28c0-.78.14-3.33,1.9-3.33s1.71,2.32,1.71,3.33Z" fill="#004990"/><path d="M434.85,181.48c-1.29-.51-1.87-.74-1.87-1.64a1.29,1.29,0,0,1,1.38-1.36c1.05,0,1.37.78,1.65,1.44h.27a5.45,5.45,0,0,1,.43-1.83,5.08,5.08,0,0,0-2.29-.62,2.89,2.89,0,0,0-3,3.17,2.63,2.63,0,0,0,1.36,2.61c.13.08.93.41,1.15.51.81.37,1.48.64,1.48,1.5a1.33,1.33,0,0,1-1.29,1.46,2,2,0,0,1-2.1-1.56h-.31a6.88,6.88,0,0,1-.12.94,8.17,8.17,0,0,1-.25.86,5.08,5.08,0,0,0,2.53.81,3.27,3.27,0,0,0,3.26-3.39C437.15,182.38,435.92,181.91,434.85,181.48Z" fill="#004990"/></svg>