<?xml version="1.0" encoding="iso-8859-1"?>
<!-- Generator: Adobe Illustrator 19.2.1, SVG Export Plug-In . SVG Version: 6.00 Build 0)  -->
<svg version="1.1" baseProfile="tiny" id="Layer_1" xmlns="http://www.w3.org/2000/svg" xmlns:xlink="http://www.w3.org/1999/xlink"
	 x="0px" y="0px" viewBox="0 0 437.2 192.8" xml:space="preserve">
<g>
	<path fill="#004990" d="M281.9,87.3c2.6-4.3,3.3-9.2,0.5-11c-3-1.9-7.3,1.1-10,5.2c-2.7,4-3.7,9.8-0.5,11.7
		C274.8,94.8,279.4,91.5,281.9,87.3z M274.8,93c-0.1-0.1-0.1-0.2-0.1-0.3c0-0.1,0.6-2,0.7-2.3c0.3,0,0.7-0.1,1.1-0.3
		c0,0.4,0,1.7,0,2.1C275.9,92.6,275.4,92.8,274.8,93z M277.8,91.3l-0.2-0.4l-0.1-0.5c0,0,0-0.6,0-0.8c0.5-0.3,0.9-0.7,1.4-1.1
		l0.4,0.1l0.4,1C279.1,90.3,278.4,90.8,277.8,91.3z M281.5,87.1c-0.3,0.5-0.7,1-1,1.5l-1-0.8c0.3-0.4,0.6-0.8,0.9-1.3
		c0.1-0.3,0.3-0.5,0.4-0.8l0.9,0.2l0.4,0.3C281.8,86.6,281.7,86.9,281.5,87.1z M282.7,84.8l-0.6,0.1l-0.7-0.5
		c0.2-0.5,0.3-1.1,0.4-1.6l1.6-0.1C283.2,83.4,283,84.1,282.7,84.8z M283.7,81.1l-1.9,0.4c-0.1-0.4-0.2-0.7-0.4-1.1l2.1-2
		C283.8,79.2,283.8,80.1,283.7,81.1z M281.3,76.3c0.3,0.1,0.7,0.2,1,0.4c0.3,0.2,0.6,0.5,0.8,0.8l-2.1,2.3c-0.2-0.2-0.3-0.3-0.5-0.4
		c-0.2-0.1-0.4-0.2-0.6-0.3L281.3,76.3z M278.8,76.6c0.6-0.2,1.2-0.3,1.8-0.3l-1.2,2.9c-0.3,0-0.7,0-1,0.1L278.8,76.6z M280.3,79.9
		c2,1.3,1,4.2-0.3,6.5c-1.4,2.5-4.3,4.3-5.8,3.5c-2.2-1.2-1.1-4.8,0.3-6.9c0.2-0.2,0.3-0.5,0.5-0.7l0.2,1l0.2,0.5c0,0,0.4,0,0.5,0
		c0.1,0,0.8,1.5,0.8,1.5s-0.1,1.8-0.1,2.1c0,0.3,0,0.5,0.1,0.5c0.1,0,1,0,1,0s0.1-0.4,0.1-0.5s0.7-0.5,0.8-0.5c0.1,0,0-0.3,0-0.3
		l-0.1-0.1l-0.9-1.4l0-4.9C278.7,79.6,279.6,79.4,280.3,79.9z M277.1,82.4l-1.2-1l0.2-0.1c0.2-0.2,0.9-0.8,1-0.9
		c0.1-0.1,0.2-0.1,0.2-0.1l-0.1,2L277.1,82.4z M277.1,82.8l-0.1,0.7l-0.3-0.3l0.3-0.5L277.1,82.8z M277.2,77.4l0.1,2.4
		c-0.5,0.3-0.9,0.6-1.4,1l-1-1.6C275.6,78.5,276.4,77.9,277.2,77.4z M272.8,81.7c0.3-0.4,0.6-0.9,1-1.3l1.2,1.4
		c-0.2,0.3-0.5,0.6-0.7,0.9c-0.3,0.4-0.5,0.9-0.8,1.3l-0.1,0c0,0,0.1-0.3-0.2-0.4c-0.3,0-0.6-0.2-0.8-0.2c-0.2,0-0.2,0-0.3-0.1
		c0,0-0.1-0.1-0.1-0.2C272.1,82.7,272.5,82.2,272.8,81.7z M271.3,84.5l0.5,0.1c0,0,0.5,0,0.7,0s0.3,0,0.4,0c0.1,0,0.2,0.1,0.3,0.1
		c-0.3,0.7-0.5,1.4-0.6,2.2l-0.5,0c0,0-0.4,0.3-0.8,0.4c-0.4,0.1-0.6,0.2-0.8,0.2c-0.1,0-0.1-0.1-0.2-0.1
		C270.6,86.4,270.9,85.4,271.3,84.5z M270.8,91.3c-0.4-0.7-0.5-1.6-0.5-2.5c0.1,0,0.1-0.1,0.2-0.1c0.1,0,0.3,0,0.4-0.1
		c0.1-0.1,1-0.6,1.2-0.7c0.2-0.1,0.3-0.1,0.3-0.1l0.3,0c0,0.5,0.1,0.9,0.3,1.3c-0.1,0.1-0.3,0.3-0.3,0.3s-1.6,1.4-1.6,1.5
		s-0.1,0.2-0.1,0.2L270.8,91.3z M272.3,92.8c-0.5-0.3-1-0.7-1.3-1.1c0.1,0,0.2-0.1,0.2-0.1c0-0.1,0.2,0.2,0.2,0.2s0.3-0.1,0.4-0.1
		c0.1,0,1.4-1.7,1.4-1.7l0.2-0.1c0.1,0.1,0.3,0.2,0.5,0.3c0.1,0,0.2,0.1,0.3,0.1c0,0.1,0,0.2,0,0.3c-0.1,0.2-1,2-1.2,2.5
		C272.7,93,272.5,92.9,272.3,92.8z M273.4,93.1l0.2-0.4l0.1,0.4C273.6,93.1,273.5,93.1,273.4,93.1z"/>
	<path fill="#004990" d="M290.1,89.2l2.5-1.2l0.1-21l-2.5,1L290.1,89.2z M290.8,68.4l1.4-0.7l-0.1,19.8l-1.4,0.7L290.8,68.4z"/>
	<path fill="#004990" d="M313.5,94.6c2.6-0.9,2.4-6.5,0.3-11.1c-1.9-4-5.2-6.7-7.8-5.8c-2.6,0.8-2.6,5.4-0.9,9.5
		C306.7,91.1,310.4,95.6,313.5,94.6z M310.3,93.6c0-0.3,0.1-0.9,0.1-1.2c0.4,0.1,0.7,0.2,1.1,0.2l0.3,1.6
		C311.3,94.1,310.8,93.9,310.3,93.6z M313.3,94.1c-0.1,0-0.1,0-0.2,0.1l-0.6-1.7c0.2-0.1,0.4-0.2,0.6-0.4l1.1,1.4
		C313.9,93.8,313.6,94,313.3,94.1z M314.7,92.6l-0.2-0.2l0.2-0.1l0.1,0.1C314.7,92.4,314.7,92.5,314.7,92.6z M314.9,92
		c-0.3-0.2-0.9-0.7-1.2-1c0.1-0.3,0.2-0.7,0.2-1.2l0.9,0.3l0.3,0C315,90.8,315,91.5,314.9,92z M314.9,89c-0.3-0.1-0.9-0.3-1.2-0.3
		c-0.1-0.6-0.3-1.3-0.5-2c0.2-0.1,0.5-0.3,0.7-0.3c0.1,0,0.2,0,0.4,0C314.6,87.3,314.8,88.2,314.9,89z M309.7,80.9
		c0.1-0.1,0.2-0.6,0.2-0.9s0-0.5,0.3-0.5c0,0,0,0,0,0c1.2,1.1,2.4,2.7,3.2,4.5c0.2,0.5,0.4,0.9,0.6,1.4l-1.1,0.3
		c-0.1-0.2-0.2-0.4-0.3-0.7c-0.8-1.7-1.9-3.1-3-4C309.6,80.9,309.7,80.9,309.7,80.9z M309.3,82.8l0.1,2.2l-0.2,0.1
		c0,0-1-1.6-1.1-1.8c0-0.2-0.2-0.7-0.2-0.9c0-0.3-0.5-0.6-0.6-0.8c-0.1-0.2-0.4-0.3-0.5-0.5c-0.1-0.1,0-0.4,0.1-0.5
		c0.7-0.2,1.5,0,2.2,0.4L309.3,82.8z M306.1,78c0.7-0.2,1.4-0.2,2.2,0.1c0.1,0.1,0.2,0.3,0.2,0.3c0.1,0.1,0.1,1.4,0.1,1.8
		c-0.6-0.3-1.2-0.4-1.8-0.3c-0.1-0.1-0.4-0.4-0.4-0.5c0-0.1-0.4-1-0.5-1.4C306,78.1,306,78.1,306.1,78z M304.8,79.2
		c0.2,0.3,0.6,1,0.7,1c0.1,0.1,0.3,0.3,0.3,0.3l0.1,0.1c-0.4,0.4-0.6,1.1-0.7,1.8c-0.1,0-0.3,0-0.4-0.1c-0.1-0.1-0.4-0.2-0.5-0.3
		C304.2,80.9,304.4,79.9,304.8,79.2z M305.5,86L305,86c-0.2-0.7-0.4-1.3-0.5-2c0.1,0,0.4,0.1,0.5,0.1c0,0,0.1,0.1,0.2,0.2
		c0.1,0.5,0.2,1,0.3,1.5L305.5,86z M306,81.3c0.1,0.2,0.3,0.5,0.3,0.7c0,0.2,0.3,0.7,0.7,1.3c0.4,0.6,1,1.2,1,1.2l1.5,2.4
		c0,0,0.2,0.9,0.1,1.2c-0.1,0.3-0.2,0.4,0.1,0.9c0.3,0.5,1-0.1,1.4-0.5c0.4-0.4,0.4-1,0.4-1.1s-0.4-0.5-0.4-0.6
		c0-0.1-0.3-0.1-0.3-0.1l-0.5-0.7l-0.7-3.8l0.1-0.6c0.9,0.9,1.8,2.2,2.5,3.6c1.6,3.4,1.7,6.5-0.1,7c-2.1,0.6-4.3-2-5.6-5
		C305.6,84.8,305.3,82.5,306,81.3z M306.7,89.6c-0.3-0.5-0.6-1-0.8-1.5l0.1-0.2h0.4c0.2,0.5,0.5,0.9,0.7,1.3L306.7,89.6z
		 M308.1,90.7c0.3,0.4,0.7,0.7,1,1l-0.3,0.9c-0.4-0.4-0.9-0.9-1.2-1.4L308.1,90.7z"/>
	<path fill="#004990" d="M324.3,117.4c0,0-0.2-0.2-0.1-0.3c0.1-0.1,0.2-0.3,0.2-0.3s-0.5-0.4-0.7-0.6c-0.2-0.2-1.3-2.7-1-7.1
		c-0.1-0.1-0.2-0.6-0.2-0.6l1.2-1.2v-0.4l0.3-0.5l-0.4-0.4l-0.2,0.4l-0.9-0.6l-0.9-21.7c0.1-0.4,0.7-1.1,0.8-1.2
		c0.2-0.1,0.6-0.2,0.8-0.2c0.2,0.1,0.9,0.6,0.9,0.6l0.2-0.1l0.1-0.4l-0.4-1c0,0-0.1-0.3-0.5-0.1c-0.1,0.1-1,0-1,0l-1.2-0.6l-0.1-1.6
		l-0.2-0.4l0-0.6c0,0,0.3-0.4,0.2-0.6c-0.1-0.2-0.4-0.8-0.4-0.8l-0.2-1.7l0-1.1c0,0,0.2-0.6,0.2-0.7c0-0.1-0.2-0.3-0.2-0.4
		c0-0.1-0.1-0.2,0-0.4c0.1-0.2,0.3-0.4,0.2-0.6c-0.2-0.2-0.5-1.9-0.5-1.9l-0.3,1.6c0,0-0.2,0.2-0.2,0.3c0,0.2,0.2,0.4,0.2,0.5
		c0.1,0.1,0.1,0.3,0.1,0.3s-0.1,0.2-0.2,0.3c0,0.2,0,0.6,0.1,0.9c0.1,0.3,0,1.2,0,1.2l-0.9-0.6c0,0-0.1-0.5-0.1-0.6s0.1-0.6,0.2-0.8
		c0.1-0.2-0.2-0.6-0.2-0.6s-0.1,0-0.2,0.1c-0.1,0.1-0.5,0.5-0.5,0.5v0.8l-0.3-0.2v-2.7l1.1-1l0.1-0.7l-1-1.1v-5.8h-0.3v5.1
		c0,0-0.4,0.1-0.5-0.6c-0.1-0.7-0.5-2.3-0.5-2.3v-5.8h1.9v-0.5h-1.9v-2.7H316v2.7h-1.9v0.5h1.9v4.2c0,0,0,0.4-0.2,0.8
		c-0.2,0.4-0.5,1.3-0.7,1.4c-0.2,0-0.1,0.1-0.4-0.2c0,0-2.4-2.5-2.7-3.9c-0.3-1.4-0.8-2.8-0.8-2.8l-0.7,0.7c0,0-0.3,0.1-0.4-0.1
		c-0.1-0.2-2.2-3.5-2.8-4.7c-0.6-1.2-1.4-2.6-1.4-2.7c0-0.2,0.1-0.4,0.2-0.6c0.1-0.2,0.9-1.1,0.8-2c-0.2-0.9-0.1-1.2-0.2-1.4
		c-0.1-0.3-0.1-0.9-0.1-0.9l-0.4-0.1l-0.1,0.6l-0.1-0.1l0-0.7l0.5-0.6l-0.4-0.4v-0.9c0,0,0-0.7-0.1-0.9c-0.1-0.1-0.1-0.6-0.1-0.6
		l-0.1-1l0.1-0.1v-0.5l-0.6,0l0,0.5l0.2,0.3l-0.1,1.3l-0.7-0.5l0-2.8c0,0,0.4-0.1,0.6,0c0.2,0.1,2.2,2,2.2,2l0.2-0.3
		c0,0-4.2-5.5-5.5-7.8c-1.3-2.3-6.4-11.6-7.5-17.2c-0.3-1.4-1.1-6.2-1.2-7.7c0.2-0.3,0.7-0.8,0.8-0.9c0.1,0,0.4-0.1,0.4-0.1
		s0-0.4-0.1-0.4c-0.1,0-0.1,0.1-0.3-0.1c-0.2-0.2-0.6-1.3-0.6-1.4c0-0.1-0.2-0.1,0-0.3c0.2-0.2,0.5-0.5,0.3-0.6
		c-0.2-0.1-0.8-0.4-1.1-0.6V3h0.3c0.1,0.3,0.3,0.5,0.6,0.5c0,0,0.1,0,0.1,0c0.1,0,0.1,0.1,0.2,0.1c0.1,0.1,0.4,0.8,0.4,0.9
		c0,0,0,0,0,0c0.1,0.3,0.3,0.5,0.6,0.5c0.3,0,0.6-0.3,0.6-0.6c0-0.3-0.3-0.6-0.6-0.6c0,0-0.1,0-0.1,0L294.5,3c0,0,0-0.1,0-0.1
		c0-0.3-0.3-0.6-0.6-0.6c-0.1,0-0.3,0-0.4,0.1v0H293V1.7c0.4-0.1,0.7-0.4,0.7-0.9c0-0.5-0.4-0.9-0.9-0.9s-0.9,0.4-0.9,0.9
		c0,0.4,0.2,0.7,0.5,0.8v0.6h-0.2c-0.1-0.1-0.3-0.2-0.4-0.2c-0.3,0-0.6,0.3-0.6,0.6C291,3,290.8,3.8,290.5,4c0,0,0,0,0,0
		c-0.3,0.1-0.4,0.3-0.4,0.6c0,0.3,0.3,0.6,0.6,0.6c0.3,0,0.6-0.3,0.6-0.6c0-0.1,0-0.2-0.1-0.3c0,0,0,0,0,0c0-0.3,0.3-0.8,0.5-0.9
		c0,0,0,0,0,0c0,0,0.1,0,0.1,0c0.3,0,0.5-0.2,0.6-0.4h0.1v2c-0.1,0.1-0.1,0.1-0.3,0.2c-0.3,0.1-0.5,0.1-0.6,0.2
		c-0.1,0.1,0,0.5,0,0.8c0.1,0.3-0.5,1.3-0.6,1.4c-0.1,0.1-0.3,0.3-0.3,0.4c0,0-0.1,0.4,0,0.5c0.1,0.1,0.6,0.5,0.7,0.5
		c0.1,0.1,0.1,0.3,0.1,0.3s-1.3,7.1-2.3,9.3c-0.3,0.9-5.2,12.3-6.9,14c-0.3,0.6-3.2,4.8-5.6,5.8c0.1,0.2,0.3,0.5,0.3,0.5l0.6-0.4
		l0.5,0.3l1.2-0.9l0,3.6l-0.4,0.5l0,2.3c0,0,0.2,0.4,0.2,0.5c0,0.2-0.1,0.8-0.1,0.8l-0.3,0l-0.1-0.4h-0.5l-0.1,2.7l-0.5,0.9v0.3
		l1.1,0.5l0.4,0.4c0,0-2.7,4.6-3.7,5.9c-1,1.3-3.9,5.1-4.3,5.3c-0.4,0.1-2.6,1.3-2.6,1.3v-5.7h1.5v-0.7h-1.6v-2.2h-0.5v2.2H266v0.7
		h1.6v6.2l-0.7,0.3l-0.2-0.1v-2.3h-0.5v2.8l-2.2,0.9V65l2.1-0.7v1.4l-1.7,1.7l-0.3,0.1c0,0-0.3,1.2-0.4,1.4c-0.1,0.2-0.5,0.9-0.5,1
		c0,0.1,0.2,0.5,0.2,0.5l0,0.4c0,0-0.3,0.4-0.3,0.5c0,0.1,0,0.4,0,0.4l0.1,0.2l-0.2,3.1l0.2,0.3l-0.1,0.2l-0.8,0.5l-0.1,1.2l0.2,0.4
		v1.2c0,0-1.3-0.2-1.4-0.2c-0.1,0.1-0.6,0.2-0.7,0.2c-0.1-0.1-1-0.3-1-0.3s-0.3,0-0.4,0.1c-0.1,0.1,0,0.3,0.2,0.3
		c0.2,0,0.6,0.2,0.6,0.2l-0.3,0.4c0,0-0.2,0.1-0.2,0.2c0,0.1,0.3,1.6,0.3,1.6l0.5-0.2l0.1-0.7h0.3c0,0,0,0.4,0.1,0.5
		c0.1,0.1,1.1,1.3,1.1,1.3l-0.7,20.5c0,0,0.1,0,0.1,0.2c0,0.2-0.1,0.7-0.3,0.8c-0.2,0.1-0.5-0.1-0.5-0.2c0-0.2-0.3-0.4-0.3-0.4
		l-0.2,0.1c0,0,0.3,0.7,0.2,0.8c-0.1,0.1-0.3,0.2-0.3,0.2l-0.2,0.2l0.4,0.6v0.8l0.3,0.4c0,0-0.1,0.2-0.1,0.3c0,0.1,0,0.7,0,0.7
		l0.2,0l0.2-0.2l-0.1,7.5l-0.8,0.6l-0.9,0v0.4l0.2,0.1l-0.2,0.4l-0.1,1.2l0.5,0.1l0.3-1.2l0.3-0.3c0,0,1.1,0.2,1.3,0.3
		c0.2,0.1,0.3,0.6,0.3,0.6l0.6,1.9l0,0.2l-2.2,42.4h1l1.7-36.2l0.5-0.3l0.1-6.7l0.3-0.1l-1.5,43.3h1.1l1.2-36.6l0.6,0.2l-0.7,36.4
		h0.9l0.8-36.5l0.4-0.3l0.1-1.5l0.2-0.1l-0.6,38.4h0.4l0.2-11.7l2,0l0.5-27.6c0,0,0.3-0.4,0.5-0.4c0.2,0,0.8-0.1,0.9,0.1
		c0.1,0.2-0.4,24.8-0.4,24.8l-0.2,0l0.1,14.7h0.5l0.1-12.4l2.1-1.2v-26c0.3-0.3,0.9-0.6,1.3-0.5c0,0.1-0.1,40.1-0.1,40.1h0.5l0-14.7
		l1.6-2.3l-0.2-23.3c0.1-0.3,0.6-0.4,0.7-0.5c0.1,0,0.6-0.2,0.7-0.1c0,0.8,0,40.9,0,40.9h0.5l-0.1-19.7l0.2,0l1-1.6l-0.2-19.3
		c0-0.5,0.2-1,0.4-1.1c0.1-0.1,1.1-0.7,1.2,0c0.1,0.6,0.2,41.7,0.2,41.7h0.5l0-23.1l1.7-1.4l-0.4-18.5c0-0.3,0.1-0.4,0.3-0.5
		c0.2-0.2,1.1-1,1.1-0.1c0,0.9,0.5,43.7,0.5,43.7h0.5l-0.1-25.5l1.3-0.7l-0.4-18.5c0.1-0.3,0-0.5,0.4-0.5c0.3,0,0.9-0.4,1,0
		c0.1,0.4,0.4,17.4,0.4,17.6c0,0.3-0.2,0.5-0.2,0.8c0,0.7,0.3,26.7,0.3,26.7h0.4l0-26.8l1.5-0.4l0.5,27.2h0.5c0,0-0.5-48.1-0.5-48.2
		c0-0.1-0.2,0.3,0-0.1c0.2-0.4,0.4-0.5,0.5-0.7c0.2-0.1,0.5-0.3,0.5,0.3c0,0.6,0.9,48.8,0.9,48.8h0.4l-0.9-53.5l0-0.4h0.2l1,53.9
		h0.4l-0.8-49.6c0,0,0-0.2,0.2-0.3c0.2,0,0.5,0,0.5,0.3c0,0.3,0.8,49.5,0.8,49.5h0.4l-1-54.6c0,0,0.3-0.4,0.3-0.2
		c0,0.2,1,54.8,1,54.8h0.4l-0.8-49.4c0,0,0-0.4,0.2-0.4c0.2,0,0.6-0.1,0.8,0c0.1,0.2,0.4,0.2,0.4,0.8c0,0.5,0.8,49,0.8,49h0.4
		l-0.9-54.2v-0.5c0,0,0.3-0.1,0.3,0c0,0.2,1.1,54.7,1.1,54.7h0.5l-1-49.2c0,0,0-0.6,0.2-0.6c0.2,0,0.2,0.1,0.4,0.2
		c0.1,0.1,0.3,0.6,0.3,0.9c0,0.3,1.3,48.7,1.3,48.7h0.5l-1.4-54.3l0.2,0.2l1.5,54.1h0.6l-1.4-48.9c0,0,0-0.1,0.2-0.2
		c0.2-0.1,0.1-3.7,0.1-3.7l0.3-0.2l0,4.3c0,0,0.1,0.4,0.1,0.6c0,0.2,1.1,48.1,1.1,48.1h1.8l-1-45.1c0,0,0-0.5,0.1-0.5
		c0.2,0,0.4,0,0.6,0c0.2,0,0.5,0.4,0.5,0.8c0,0.4,0.9,44.9,0.9,44.9h1.6c0,0-0.8-41.2-0.8-41.5c0-0.3,0-1.1,0-1.1s-0.3-0.8-0.2-1
		c0.1-0.2,0.4-0.5,0.7-0.3c0.3,0.2,0.7,0.3,0.8,0.5c0.1,0.1,0.2,0.2,0.1,0.4c-0.1,0.2-0.2,0.7-0.2,1.3c0,0.6,0.8,41.8,0.8,41.8h2
		l-1.1-42.4c0,0,0.2-0.1,0.4,0c0.1,0,0.8,0.4,0.8,0.4l0.9,42h1.7l-1.1-41.3l1.1,0.5l1.1,40.8h2.1l-1.1-39.8l1,0.5l1.4,39.2h1.2
		l-1.3-38.2l1.2,0.5l1.1,37.7h5.6l-1.2-41.2c0,0,0-0.8,0.2-1c0.2-0.2,1.1-1.1,1.2-1.3c0.2-0.1,0.5-0.1,0.5-0.1l0.9,0.5l0.2-0.4
		C324.6,117.6,324.3,117.4,324.3,117.4z M294.9,89.9c-0.1-0.1-0.2-0.2-0.2-0.2l-0.7,0.2h-0.4v-0.3l0.5-0.7l1.1,0.4l0,0
		c0,0,0,0.2-0.1,0.2c0,0,0,0.3,0,0.5c0,0.2,0.3,0.3,0.4,0.4c0.1,0,2,0.9,2,0.9c0,0,0,0.2-0.1,0.3c-0.1,0.1-0.2,0.2-0.3,0.2
		c-0.1,0-0.5-0.2-0.5-0.3c-0.1-0.1-0.7-0.6-0.7-0.6s-0.3,0-0.3,0C295.6,91,294.9,90,294.9,89.9z M295,90.8v8.3l-0.2,0l-0.8-0.5
		c0,0,0.2-8.2,0.3-8.4c0-0.2,0.4,0,0.4,0L295,90.8z M290.3,98.7L290.3,98.7c0,0,0,0.5,0,0.6c0,0-0.1,0-0.1,0s0,0.2,0,0.2
		c0,0-0.1,0-0.1,0l0-0.8C290.2,98.7,290.3,98.7,290.3,98.7z M290.2,98.5v-0.3h0.2v0.3H290.2z M290.1,97.9v-3.8l0.3,0.2v3.8
		L290.1,97.9z M290.2,99.8l0.2,0.2l0.2-0.1c0,0,0.2-5.3,0.2-5.8c0-0.4,0.1-1.2,0.2-1.2s0.1,0.2,0.1,0.2s0.1,0.7,0.1,0.8
		c0,0,0,5.6,0,5.6s1.1-0.4,1.2-0.5c0,0,0.7,0,0.7,0l0.1-0.2l0.1,0c0,0,0,0.3,0,0.3c0,0-0.6,0.3-0.6,0.3l-2.3,1c0,0-0.4-0.3-0.4-0.4
		C290,100,290.2,99.8,290.2,99.8z M291.8,92.7l-0.4,0.2l-0.1,0l0-0.2c0,0,0.4-0.2,0.5-0.3C291.9,92.4,291.8,92.7,291.8,92.7z
		 M292.8,92.9v5.5l-1.2,0.5v-5.5L292.8,92.9z M293.1,89.6l-0.2,0.2c0,0-3.3,1.3-3.9,1.6c-0.7,0.3-0.5,0.4-0.6,0.6
		c-0.1,0.3,0.2,0.3,0.2,0.3s0.3-0.1,0.5-0.1c0.2,0,3.9-1.7,3.9-1.7l0,0.5c0,0-4.1,1.9-4.2,1.9c-0.1,0-0.9,0.1-1.2,0
		c-0.3-0.1-0.5-0.4-0.7-0.7c-0.3-0.3,0.3-0.5,0.5-0.6c0.1-0.1,5.7-2.3,5.7-2.3V89.6z M271.4,105.3l0.2,0.5l-0.4,0.4
		c-0.1,0-0.3-0.4-0.4-0.6c0-0.2-0.1-0.4,0-0.6c0.1-0.2,0-0.2,0.1-0.3c0.1-0.2,0.4-1,0.5-1.2c0.1-0.3,0-0.6,0.1-0.8
		c0.1-0.2,0.2-0.3,0.4-0.3c0.1,0,0.1,0.4,0.1,0.6s0,1-0.1,1.2c-0.1,0.3-0.2,0.5-0.3,0.7C271.4,105.1,271.4,105.3,271.4,105.3z
		 M272,104.7c0.1-0.1,0.2-0.3,0.2-0.3l0.1-0.5l0.1,0c0,0,0.1,0.9,0,1c0,0.2-0.1,0.2-0.1,0.4s0.2,0.3,0.2,0.3
		c-0.1,0.3-0.3,0.2-0.4,0.2c-0.1,0-0.1-0.2-0.2-0.4C271.8,105.2,271.9,104.9,272,104.7z M272.3,107.7c0,0,0-1.4,0-1.4
		c0-0.1,0.4,0,0.4,0l0.3,0.3c0,0,0,0.8,0,1.1c0,0.2-0.1,0.3-0.2,0.4c0,0.1-0.2,0.3-0.3,0.3c-0.2,0-0.3-0.1-0.3-0.1s-0.1-0.5,0-0.5
		C272.2,107.6,272.2,107.7,272.3,107.7z M273,108.6h0.3l-0.1,0.1C273.2,108.7,273,108.7,273,108.6c0,0.1,0,0.2,0,0.2
		c0,0-0.1-0.1-0.1-0.1L273,108.6z M268.2,101.5c0,0-3,1.5-3.3,1.7c-0.3,0.2-0.5-0.1-0.5-0.3c0-0.2,0.2-0.4,0.3-0.5
		c0.1-0.1,1-0.6,1-0.6l0.7-0.1l19.9-9.4l0.4,0.4L268.2,101.5z M268.2,106.9l0.2,0.5l-0.4,0.3c-0.1,0-0.3-0.4-0.4-0.6
		c0-0.2-0.1-0.4,0-0.6c0.1-0.2,0.1-0.1,0.2-0.3c0.1-0.2,0.4-1,0.5-1.2s0.1-0.5,0.2-0.8c0.1-0.2,0.2-0.3,0.4-0.3
		c0.1,0,0.1,0.4,0.1,0.6c0,0.2-0.1,0.9-0.2,1.2c-0.1,0.3-0.3,0.5-0.4,0.7C268.1,106.6,268.2,106.9,268.2,106.9z M268.4,108.3
		L268.4,108.3c0.1-0.1,0.1-0.4,0.2-0.4l0.1,0.1v0.5c0,0-0.1-0.1-0.1,0c0,0.1,0,1.1,0,1.1s-0.1,0.1-0.1,0.1c-0.1,0-0.1,0-0.1-0.2
		C268.4,109.2,268.4,108.3,268.4,108.3z M268.7,106.4c0-0.1,0.2-0.2,0.3-0.3c0.1,0,0.1,0.5,0.1,0.5l0.1,0.1l0,0.3
		c-0.1,0.1-0.2,0.1-0.2,0.1c-0.1,0-0.2-0.2-0.2-0.2S268.7,106.5,268.7,106.4z M269.1,106l-0.1-0.2c0,0,0.1-0.1,0.1-0.2
		c0,0,0-0.2,0.1-0.2c0.1,0,0,0.4,0,0.4L269.1,106z M269.3,109c0,0,0-1.4,0-1.4c0-0.1,0.4,0,0.4,0l0.3,0.3c0,0,0,0.8,0,1.1
		c0,0.2-0.1,0.3-0.2,0.4c0,0.1-0.2,0.3-0.3,0.3c-0.2,0-0.3-0.1-0.3-0.1s-0.1-0.5,0-0.5C269.2,109,269.2,109,269.3,109z M267.3,107.9
		l0,2.7h-0.2v-2.7H267.3z M265.9,106.8l-0.2,0.2l-0.1-0.2v-1.4c0,0,0.1-0.1,0.2-0.2C266,105.2,265.9,106.8,265.9,106.8z
		 M265.2,107.2l-0.4,0.6l0,0.1c0,0,0-2,0.1-2c0.1-0.1,0.3-0.1,0.3-0.1L265.2,107.2z M264.8,81.4c-0.2,0.1-0.1,0.4-0.1,0.4
		s-0.8,19.9-0.8,20.3c0,0.4-0.2,0.4-0.3,0.5c-0.1,0-0.8,0.3-1,0.4c-0.2,0.1-0.2-0.2-0.2-0.2l0.7-21.4c0,0,2.1-0.8,2.3-0.8
		c0.2,0,0.1,0.5,0.1,0.5l-1,20.7l0,0.2l-0.3,0c0,0,1-20.2,1-20.4C265.3,81.4,265,81.3,264.8,81.4z M270.7,73.9
		c0.1-0.2,0.1-0.2,0.3-0.2c0.2,0,0.4,0,0.4,0.2c0,0.2,0,0.9,0,0.9c0,0-1.8,0.8-1.8,0.8l0-0.8l0.2,0c0,0,0.1,0.3,0.2,0.3
		c0.1,0,0.5,0.2,0.5-0.1c0-0.3,0-0.5,0.1-0.6c0.1-0.1,0.3-0.1,0.3-0.2C270.7,74,270.6,74,270.7,73.9z M271.1,73l-1,0.4
		c0,0-0.4-0.5-0.5-0.7c-0.1-0.2,0.2-0.5,0.2-0.5l1.5-0.9l0.3,0L271.1,73z M269.8,73.9v0.4l-0.2,0v-0.4L269.8,73.9z M269.7,76.3
		c0.1,0,0.3-0.1,0.4-0.1c0.1,0,10-5.1,10-5.1l7-3.4l0.3-0.1c0,0,0.1-0.3,0.1-0.3c0-0.1,0.2-0.3,0.3-0.3c0.1,0,0.3,0,0.3,0.3
		s0,19.7,0,19.7l-0.1,0l0,3.4c0,0,0.1,0.1,0.1,0.2s0,0.4-0.3,0.5c-0.3,0.1-0.9,0.2-1,0.3c-0.1,0.1-10.3,5-10.3,5s-8.4,4-8.5,4
		c-0.1,0-0.5,0.1-0.5,0.2c-0.1,0.1-0.5,0.4-0.5,0.4s-0.4,0.3-0.5,0.2c-0.1-0.1-0.1,0-0.1-0.4c0-0.4,0.1-1.7,0.1-1.7l1-19
		c0,0,0-0.9,0-0.9c0-0.1,0.1-0.4,0.2-0.4c0.1,0,0.3,0,0.3,0.3c0,0.3-0.2,10-0.2,10l-0.1,0c0,0-0.5,10.8-0.5,11c0,0.2,0,0.5,0,0.5
		l7.4-3.6l11.5-5.4l0.2-9.6l-0.1-0.1c0,0-0.2,0-0.2,0.1c0,0.2-0.1,1.1-0.1,1.1s0,0.5-0.2,0.5c-0.1,0-0.3,0.2-0.4,0
		c-0.1-0.2,0.1-0.7,0.2-0.9c0.1-0.2,0.4-2.1,0.5-3.2c0.1-1.1,0.1-3.1,0.1-3.1l0.2-0.1c0,0,0.1-6.1,0.1-6.1c0-0.1,0.1-0.3,0.2-0.4
		c0.1,0,0.3,0.1,0.3,0.4s-0.2,20.7-0.2,20.7s0,0.3,0.1,0.3c0.1,0,0.4,0,0.4-0.3c0-0.3,0.1-21.6,0.1-21.6s0-0.3-0.1-0.4
		c-0.2,0-0.5,0.2-0.7,0.3c-0.2,0.1-17.2,8.2-17.2,8.2s-1.6,0.8-1.7,0.8c-0.1,0-0.6,0.1-0.6,0.1l-1.2,23.1c0,0-0.5,0.7-0.5,0.3
		c0-0.5,1.1-23.5,1.1-23.5l0.9-0.4l0.1,0l0.4,0l1.1-0.5C268.7,77,269.5,76.3,269.7,76.3z M271.7,73.1c0,0,0-0.5,0-0.6
		c0-0.1,0.2,0,0.2,0l0,0.6L271.7,73.1z M275.2,72.4H275v-0.2h0.2V72.4z M275.2,72.9c0,0-2,1-2,1l0-1.2l1.2-0.7l0.3,0.9l0.5-0.3
		L275.2,72.9z M275.1,71.7c0,0-0.3-0.1-0.3-0.1l0-0.6l0.3,0C275.2,71,275.1,71.6,275.1,71.7z M274.3,71.5l-1.3,0.5l-0.6-1
		c0,0,2.4-1.2,2.4-1.2L274.3,71.5z M272.7,72.4c0,0,0,0.6,0,0.6l-0.3-0.1l0-0.9L272.7,72.4z M272.6,73.4c0,0,0.1,0.9,0,0.9
		c-0.1,0-0.3-0.1-0.3-0.1v-0.5C272.3,73.6,272.3,73.4,272.6,73.4z M278.1,70.7c0,0.1,0,0.8,0,0.8l-0.3,0.2l0.1-1
		C277.8,70.7,278.1,70.6,278.1,70.7z M277.8,70.1v-0.4l0.2,0l0,0.4H277.8z M277.3,70.2l-1,0.5l-0.7-1.2c0,0,2-1,2-1l0.1,0.1
		L277.3,70.2z M276.4,71.2c0,0,0.8-0.5,0.9-0.5c0.1-0.1,0,0.9,0,0.9l0.1,0.1v0.2l-1.7,0.9c0,0-0.2-0.8-0.2-0.9c0,0,0.3,0,0.3,0
		c0,0.3,0.1,0.4,0.3,0.4c0.2,0,0.2-0.1,0.2-0.1L276.4,71.2z M276,71.1c0,0.1-0.1,0.3-0.2,0.3c-0.1,0-0.2-0.1-0.2-0.1s0-0.6,0-0.6
		C275.6,70.6,276,71.1,276,71.1z M280.6,70.3l-1.1,0.6l-0.1-1.1v0c0,0,0.7-0.4,0.8-0.4c0.1,0,0.2,0.1,0.2,0.1l0,0.8L280.6,70.3z
		 M280.4,68.6l-1.1,0.6l-1-1.1c0,0,2.2-1.1,2.3-1.1L280.4,68.6z M279.2,71l-0.6,0.3l-0.1-1.1c0,0,0.3,0,0.4-0.1l0.1,0.5l0.2,0.3
		L279.2,71z M278.8,69.4l0,0.4l-0.4,0l-0.1-0.7L278.8,69.4z M281.1,69.7h0.2V70h-0.2V69.7z M281.1,69.5v-0.3h0.1L281.1,69.5
		L281.1,69.5z M281.2,68.7H281v-0.3h0.2V68.7z M283.4,67.3l-1.1,0.4l-0.9-1l0-0.2l1.8-0.9l0.5,0.2l0,0.9L283.4,67.3z M283.7,68.6
		c0,0-0.6,0.4-0.7,0.5c-0.1,0.1-0.3,0-0.4,0c-0.1,0-0.1-0.4-0.1-0.5c0.1,0,0.1-0.1,0.1-0.4c0.1-0.3,0.7-0.4,0.7-0.4s0,0.1,0.1,0.1
		l0,0.4L283.7,68.6z M281.7,69l0.4-0.2v0.8l-0.4,0.2V69z M281.5,68.4v-0.6l0.3,0.3l0,0.3H281.5z M284,67.8c0-0.1,0.3-0.1,0.3-0.1
		c0,0.1,0.1,0.5,0,0.5c-0.1,0-0.3,0.1-0.3-0.1C284,68,284,67.9,284,67.8z M284.4,56.3l0.9-2l1.3-0.7l-0.8,2L284.4,56.3z M285.8,60.1
		c0,0.7-0.5,1.3-0.7,1.5c-0.5,0.4-0.6,0-0.6-0.3c0-0.3,0.3-0.6,0.5-1.1c0.1-0.3,0.1-1.3,0.1-1.3s0.3-0.4,0.7-0.2
		C285.9,59,285.8,59.8,285.8,60.1z M273.2,65.4c0,0,0.6-0.3,0.7-0.2c0,0.1,0,0.9,0,1.2c0,0.3-0.2,1.3-0.5,1.4
		c-0.3,0.1-0.5,0.1-0.5-0.1c0-0.2,0.2-0.7,0.3-0.9C273.3,66.5,273.2,65.4,273.2,65.4z M273.5,61.9l-1.2,0.6l2-2.6l0.8-0.4
		L273.5,61.9z M276,59l1-0.5l-1.3,2.3l-0.9,0.5L276,59z M275.9,65.2c0.1-0.3,0.1-1.3,0.1-1.3s0.6-0.3,0.7-0.2c0,0.1,0,0.9,0,1.2
		c0,0.3-0.1,1.1-0.6,1.4c-0.3,0.2-0.7,0.2-0.7-0.1C275.4,66,275.9,65.4,275.9,65.2z M276.6,60.4c0.3-0.5,1-1.7,1.4-2.3l1.2-0.6
		l-1.2,2.2L276.6,60.4z M284.6,44l-0.4,0.2v-0.7l0.4-0.2V44z M284.6,44.5v0.6l-0.4,0.2v-0.6L284.6,44.5z M284.7,47.6l0.8-0.4
		l-3.8,8.3l-1,0.5C281.4,55,284,49.1,284.7,47.6z M286.5,43l-0.4,0.2v-0.7l0.4-0.2V43z M286.5,43.5v0.6l-0.4,0.2v-0.6L286.5,43.5z
		 M286.9,46.5l-3.6,8.2l-0.8,0.4l3.6-8.2L286.9,46.5z M288.5,41.9l-0.4,0.2v-0.7l0.4-0.2V41.9z M288.5,42.4V43l-0.4,0.2v-0.6
		L288.5,42.4z M288.5,45.6l-3.5,8.2l-0.7,0.4l3.3-8L288.5,45.6z M279.8,56.5l-1,0.5c0.4-0.8,3.8-7.3,4.5-8.6L284,48L279.8,56.5z
		 M278.8,64.5c0-0.2,0.3-0.6,0.3-0.9c0.1-0.3,0-1.4,0-1.4s0.6-0.3,0.7-0.2c0,0.1,0.1,1.1,0.1,1.4c0,0.3-0.3,1.2-0.6,1.3
		C278.9,64.9,278.7,65.2,278.8,64.5z M278.9,59.1c0.2-0.4,0.8-1.6,1.2-2.2l0.8-0.4c-0.2,0.4-0.7,1.5-1,2.1L278.9,59.1z M282,56
		l0.7-0.4c-0.2,0.5-0.7,1.6-0.9,2.1l-0.1,0.1l-0.8,0.4L282,56z M281.9,61.8c0.1-0.3,0.1-1.3,0.1-1.3s0.6-0.3,0.8-0.1
		c0.1,0.1,0,1,0,1.3c0,0.6-0.5,1.6-0.8,1.8c-0.5,0.2-0.5,0-0.5-0.2C281.5,63,281.9,62.1,281.9,61.8z M282.6,57.2l1-2.1l1-0.5
		l-1.1,2.2L282.6,57.2z M286,53.3l3.1-7.9l1.1-0.6l-2.9,7.9L286,53.3z M292.2,38.5v-5.6h0.2l0,5.4L292.2,38.5z M292.5,39.1v0.6h-0.3
		v-0.6H292.5z M292.4,40.4c0,0,0.3,0.2,0.3,0.3l0,0l-0.3,0.2h-0.2c0,0,0-0.4,0-0.4C292.2,40.4,292.4,40.4,292.4,40.4z M292.5,43.5
		l0.8-0.4l-2.6,7.7l-0.8,0.4L292.5,43.5z M293,40l0.3-0.2l0.3,0.3l-0.5,0.4l0,0l-0.2-0.1L293,40z M292.9,39.3v-0.7h0.5l0,0.5
		l-0.2,0.2H292.9z M293.5,37.7l-0.6,0.5V32l0.6-0.3V37.7z M293.6,51.5l0.2-1.6l0.6-0.3l0,0.1l-0.1,1.3L293.6,51.5L293.6,51.5z
		 M294.4,53.8L294.4,53.8l0,5.9l-1.3,0.7l-0.2-0.3l0.2-5.4c0,0,0.2-0.4,0.2-0.4C293.4,54.4,294.4,53.8,294.4,53.8z M293.5,49.4
		l-0.7,0.4l1-2.9l0.2,0.1l0,0l0,0.4L293.5,49.4z M293.2,50.2c-0.1,0.4-0.4,1.4-0.5,1.8l-0.1,0l-0.8,0.4c0.1-0.3,0.3-1.3,0.4-1.8
		L293.2,50.2z M294.4,60.4l0.1,0.2l-6.1,3.1l-0.2-0.2L294.4,60.4z M296.7,55.3v5.7l-0.5-0.3l0.1-5.7L296.7,55.3z M296.4,41.3
		l0.3,0.2l0,0.7l-0.3-0.2L296.4,41.3z M300.3,64.4l0,0.6c0,0-0.5,1.1-0.5,1.1c0,0,0,0.2,0,0.2s1.2,0,1.6,0c0.3,0,0.6,0.4,0.6,0.4
		l0,0.3c0,0-1.3,0.2-1.4,0.2c0,0-0.4,0.2-0.5,0.3c-0.1,0-0.3-0.3-0.4-0.4c-0.1-0.1-0.2-0.1-0.2-0.1s-0.1-0.2-0.1-0.4s-0.9-0.5-1-0.6
		c0,0,0-0.2,0-0.2l0.3-0.1l0.3-0.8c0,0,0.3,0.3,0.3,0.4c0,0.1-0.1,0.3-0.1,0.4l-0.1,0.2l0,0.3l0.3,0l0.4-1.2l-4.6-3.5l0-0.5l0.3,0
		l0.2,0.5l0.5,0.1L300.3,64.4z M297,55.7l0.4,0.3l0,4l-0.5-0.3L297,55.7z M297,41.8l0.5,0.3l0,0.7l-0.5-0.3L297,41.8z M298.4,42.8
		l0,0.7l-0.5-0.3l0-0.7L298.4,42.8z M297.9,41.5v-0.8h0.2v0.8H297.9z M298.1,56.5l0,2.9l-0.5-0.3l0.1-2.8L298.1,56.5z M300,44l0,0.7
		l-0.5-0.3l0-0.3h0v-0.8l0.3,0.1v0.6L300,44z M299.9,42.8l-0.3-0.1v-0.8l0.3,0.1V42.8z M299.8,59.5l0.5-0.6c0,0,0.8,0.4,1,0.6
		c0.2,0.2,0.8,0.6,0.9,0.8c0.1,0.2,0,0.5,0.1,0.7c0.1,0.2,0.2,0.3,0.2,0.3s0.1,2.7,0,2.7c0,0-0.1,0.2-0.2,0.2
		c-0.1,0-0.4-0.2-0.4-0.3c0-0.1,0.1-0.8,0.1-1c0-0.2,0-1.7,0.1-1.7c0-0.1,0.1-0.2,0.1-0.3c0-0.1-0.1-0.2-0.1-0.2
		c0-0.1-0.2-0.1-0.3-0.1c-0.1,0-0.2-0.1-0.2-0.2c-0.1-0.1-0.1-0.2-0.2-0.3c-0.1-0.1-0.9-0.3-1-0.4c-0.1,0-0.4,0-0.4,0
		c-0.1,0,0,0.2,0,0.3s-0.1,0.2-0.1,0.2s0,2.3,0,2.4s0.2,0.2,0.3,0.3c0.1,0,0,0.2-0.1,0.3c-0.1,0.1-0.2,0-0.2,0l-0.4-0.2l-0.4-0.3
		c0,0,0-2.5,0.1-2.8c0-0.3,0.1-0.3,0.3-0.3C299.5,59.7,299.8,59.5,299.8,59.5z M300.4,44.3l0.6,0.4l0,0.7l-0.5-0.4L300.4,44.3z
		 M301.4,45.1l0.5,0.3l0,0.7l-0.5-0.3L301.4,45.1z M302.7,66.9c0,0,0,1.6,0,1.8c0,0.2-0.1,0.1-0.2,0.1c-0.1,0-0.5-0.4-0.5-0.4
		c0-0.1,0-0.4,0-0.4l0.5-1l0.1-0.5l0.1,0.1L302.7,66.9L302.7,66.9z M303.9,67.5c0,0,0,1,0,1.3c0,0.3-0.1,0.4-0.2,0.4
		c-0.2,0-0.2,0-0.3-0.2c-0.1-0.1-0.2-0.5-0.2-0.5l0-1.4L303.9,67.5z M303.3,47.1l-0.3-0.1l0-0.7l0.3,0.1L303.3,47.1z M305.1,71.2
		h0.4l0.7,0.7l0.4,0c0,0,10.3,7.3,10.8,7.6c0.4,0.4,1.3,0.8,1.5,0.9c0.2,0.1,0.2,0.1,0.2,0.1l1.2,23.3l0,0.4c0,0-0.2,0.2-0.3-0.2
		c-0.1-0.3-0.1-0.5-0.1-0.5l-0.4-0.2l-18.4-10.9l-0.4-0.1l-2.3-1.2l-0.1-0.2l-0.8-0.4c0,0,0-0.3,0.2-0.4c0.1-0.1,0.2,0,0.2,0
		l0.1,0.2l1.2,0.6l0-5.4L299,69.5l0-1.2l0-1l-0.4-0.2l-0.2,1.5l-0.5-0.4v-1.7l-0.2-0.2l-0.1,1.3l0,20.7l-0.5-0.3l0-22.3l-0.4-0.2
		l-0.2,1.1l-0.9-0.5v-1.4l0.2-0.2L299,67h0.3l0.3,24.6l1.1,0.5l0.2-0.5l-0.1-23.9l0.8-0.1l0,0.2l-0.5,0.3v0.4c0,0,0.2,0.2,0.2,0.3
		c0,0.1,0.3,22.7,0.3,22.7h0.4l0.1-7.8l0.5,1.2l0.2,6.7l4.9,2.8l0.1-0.5c-0.5-0.5-3.7-4.4-4.9-9.6c-0.1-0.4-0.5-1.8-0.5-1.9
		c0-0.1-0.1-0.4,0.2-0.5c0.3-0.2,0.2-1.6,0.2-2.1c0-0.5,0.2-2.8,1.4-3.3s2.6-0.8,4.2,0.1c1.6,0.9,3.8,3,4.9,4.8
		c1.1,1.9,1.8,3.3,2,3.5c0.1,0.2,0.2,0.6,0.3,0.6c0.1,0,0.3-0.1,0.2-0.4c-0.1-0.3-2.6-5.8-5-7.7c-2.4-1.9-3.5-2.7-4.9-2.5
		c-0.7,0.2-2.6,0.3-3.3,2.4c-0.1,0.3-0.2,0.8-0.2,0.8s-0.3,0.2-0.2-0.3c0.1-0.5,0.5-2.1,1.2-2.7c0.7-0.6,1.5-1.1,2.7-0.9
		c1.2,0.2,2.2,0.7,3.5,1.6c1.2,0.9,4.3,3.8,5.5,6.8c1.2,2.9,3,6.5,2.7,9.3c-0.3,2.8-0.4,4.2-1.3,4.9c-0.8,0.7-1.9,1.6-3.4,0.9
		c0-0.2,0-0.1,0.2-0.2c0.2,0,2,0,2.7-1c0.7-1,1.4-1.8,1.4-3c0-1.2,0.1-2.4-0.6-3.8c0,0-0.1-0.2-0.2,0c-0.1,0.2,0,1.3,0,2.4
		c0,1.1-0.3,3.5-1.7,4.2c-1.4,0.7-1.7,0.7-2.3,0.5c-0.5-0.2-0.7-0.3-0.8-0.2c-0.1,0.1,0.1,0.5-0.1,0.5c-0.2-0.1-3.4-2.1-3.6-2.7
		c0,0-0.2,0-0.2,0.1c0,0.1,1.1,1.2,1.1,1.2c-0.1,0.1-6.9-4-6.9-4l-0.2,0.2l17.4,10.5L318.4,81c0,0-7.5-4.9-7.6-5
		c-0.2-0.2-8.5-6.1-8.8-6.2c-0.3-0.2-0.3-0.6-0.1-0.5C302,69.2,305.1,71.2,305.1,71.2z M305.4,70.6c0,0,0,0.2,0,0.3c0,0-0.1,0-0.2,0
		c-0.1,0-1.1-0.8-1.2-0.9c-0.1-0.1,0-0.2,0-0.3c0-0.1,0.3-0.3,0.3-0.3l0-1.4l0.2,0l0.9,0.8l0,0.3c0,0,0,1.1,0,1.1c0,0,0,0.1-0.1,0.2
		C305.3,70.4,305.4,70.6,305.4,70.6z M308.2,72.7c0,0,0,0.2,0,0.2l-1.6-1.2l0.6-0.7l0.1-1l0.8,0.5c0,0,0,1.5,0,1.5
		c0,0.1-0.1,0.2-0.1,0.2s0,0.2,0,0.3S308.2,72.7,308.2,72.7z M309.2,73.5c0,0,0.6-0.6,0.6-0.6s0-1,0-1.1l0.8,0.4l0.1,2.3
		C310.7,74.5,309.3,73.5,309.2,73.5z M313.3,76.1c0,0-0.1,0.1-0.1,0.1s-1.2-0.9-1.2-0.9c0-0.1,0.4-0.5,0.5-0.6c0,0,0-1,0-1.1l0-0.1
		l1,0.7c0,0-0.2,1.5-0.2,1.7C313.1,76.1,313.2,76,313.3,76.1z M312,74.3c0,0-0.2,0.3-0.3,0.2c-0.1-0.1-0.4-0.3-0.4-0.4
		c0-0.1-0.1-0.3-0.1-0.5c0-0.2,0-1,0-1h0.3c0,0,0.6,0.4,0.6,0.5C312,73.2,312,74.3,312,74.3z M314.5,76.5c0,0-0.7-0.6-0.7-0.6l0-1.6
		l0.7,0.5C314.5,74.9,314.5,76.5,314.5,76.5z M314.9,76.7c0-0.1,0.1-1.3,0.1-1.3l0.9,0.6l0.1,1.3l-0.2,0.6l-0.2,0
		c0,0-1.1-0.7-1.1-0.7C314.5,77.1,314.9,76.7,314.9,76.7z M316.5,77.9c-0.1,0-0.1-0.1-0.1-0.1s0-1.1,0.1-1.3l0.7,0.4l0,1
		C317.1,77.9,316.6,77.9,316.5,77.9z M317.6,78c0,0,0-0.7,0.1-0.8c0-0.1,0.2,0,0.3,0c0.1,0,0.2,0.2,0.2,0.2l0,2c0,0-0.3,0-0.3,0
		c-0.1,0-0.8-0.8-0.8-0.8L317.6,78z M319.9,107.1v2.7l-0.8-0.5v-2.7L319.9,107.1z M317.5,108.4l-0.8-0.5l-0.1-2.7l0.8,0.5
		L317.5,108.4z M314.8,104.2v2.8l-0.9-0.5v-2.8L314.8,104.2z M312.3,102.6v2.8l-0.9-0.6V102L312.3,102.6z M309.7,101v2.8l-0.9-0.6
		v-2.8L309.7,101z M306.9,99.6v2.8l-0.9-0.6V99L306.9,99.6z M304.3,98v2.8l-0.9-0.6v-2.8L304.3,98z M301.5,96.4v2.8l-0.9-0.6v-2.8
		L301.5,96.4z M295.7,89.6v-0.4c0.2-0.2,0.3,0.1,0.3,0.2c0,0.1,0.1,0.3,0.1,0.3V90h-0.3v-0.4H295.7z M295.7,63.9l0.3-0.7l0.1,0.1
		c0,0-0.1,0.9-0.1,0.9L295.7,63.9z M296.3,64.4c0,0,0.1-0.4,0.1-0.4l0.1-0.7l0.3,0.1l0,0.6l-0.3,0.6
		C296.6,64.7,296.3,64.5,296.3,64.4z M297,65v-0.3l0.2-0.5l0-0.5c0,0,0.3,0.2,0.3,0.2l0,0.5l-0.1,0.5l-0.1,0.3L297,65z M298.3,65.6
		c0,0.1-0.1,0.2-0.1,0.2s-0.4-0.3-0.4-0.4c0-0.1,0.3-1.1,0.3-1.2c0-0.1,0.4,0.3,0.4,0.3l-0.2,0.7C298.3,65.2,298.4,65.5,298.3,65.6z
		 M302.6,75.3c0-0.8,1.2-1.8,2.1-2.1c0.8-0.3,2,0.1,2.3,0.4c0,0-0.1,0.2-0.2,0.1c-0.2-0.1-1.2-0.1-1.6-0.1c-0.5,0-0.6,0.1-1.2,0.4
		c-0.6,0.3-1,1.1-1.1,1.3C302.6,75.6,302.6,75.4,302.6,75.3z M318.1,91.2c0-0.1,0.2,0,0.2,0l0.4,6.6l0.2,3.9l-6.3-3.8l5.8,2.7l0.1,0
		C318.4,100.5,318.1,91.3,318.1,91.2z M318,90l0.2,0v0.9l-0.2,0L318,90z M318.1,89.7l-0.5-8.2h0.2l0.5,8.2L318.1,89.7z M301.3,64.8
		h0.3l0.2,0.1l0,1l-0.4,0c0,0,0,0,0-0.1c0-0.1-0.8,0-0.8,0s-0.1-0.5-0.1-0.6s0.3-0.4,0.3-0.4L301.3,64.8z M300.8,64.2v-3.6l0.5,0.4
		l-0.1,0.4l-0.1,0l0,2.7l-0.1,0.1L300.8,64.2z M299.2,44l-0.5-0.3l0-0.7l0.5,0.3L299.2,44z M295.3,88.1l-0.7-0.4l-0.1-22.3l0.3-0.3
		h0.1L295.3,88.1z M294.9,88.6l-0.1,0.1v0l-0.3,0c0,0-0.1-0.3,0-0.4c0-0.1,0.1-0.1,0.2-0.1C294.7,88.3,294.9,88.6,294.9,88.6z
		 M294.2,87.7c0,0-0.2,0.3-0.3,0.5c-0.1,0.2-0.2,0-0.2,0s0.1-22.3,0.1-22.4c0-0.2,0.2-0.2,0.2-0.2L294.2,87.7z M288.8,67.6l0.5-0.2
		l-0.2,22.9l-0.5,0.2L288.8,67.6z M288.6,64.2c0-0.1,0.4-0.2,0.4-0.2s0.4,0.7,0.4,0.8l0,0.5l-0.2,0
		C289.2,65.3,288.6,64.3,288.6,64.2z M289,66.9l-0.1-0.8l1-0.5l0.2,0.7L289,66.9z M289.5,63.7l0.2-0.1l0.3,0.8l-0.2,0.1L289.5,63.7z
		 M290,63.4l0.2-0.1l0.3,0.8l-0.2,0.1L290,63.4z M289.8,67.1l0.8-0.3c0,0,0,0.2,0,0.2c0,0-0.8,0.2-0.8,0.2V67.1z M290.5,65.8
		c-0.1-0.1-0.1-0.7-0.1-0.7l0.6-0.3c0,0,0.2,0.2,0.2,0.5c0.1,0.3,0.1,0.7,0.1,0.8c-0.1,0.1-0.3,0.2-0.4,0.1
		C290.7,66.3,290.6,66,290.5,65.8z M291.2,64.4l-0.5-1.2l0.3-0.1l0.5,1.2L291.2,64.4z M291.4,62.8l0.3-0.1l0.4,1.2l-0.2,0.2
		L291.4,62.8z M292.1,62.5l0.3-0.1l0.4,1.4l-0.2,0L292.1,62.5z M292.8,62.2l0.3-0.1l0.3,1.4l-0.2,0.1L292.8,62.2z M286.9,65.8
		c-0.1-0.1-0.1-0.2-0.1-0.2s0.5-0.6,0.5-0.6c0,0,0.6,0,0.6,0l0.6,0.5l0,1.1l-1.2,0.1c0,0-0.4,0.2-0.4,0.2l-0.1,0l-0.1-0.5
		c0,0,0.1-0.1,0.2-0.3C287,65.9,287,65.9,286.9,65.8z M287.3,64.6v-4.6h0.5v4.6H287.3z M288,64.7v-0.2h0.2v0.2H288z M288.2,62.6
		v-2.5h0.6v2.5H288.2z M289.2,61.8l0.6,0l0,0.2l-0.5,0.3L289.2,61.8L289.2,61.8z M288.5,54.2c0.1-0.4,0.6-1.5,0.7-1.9l0.7-0.4
		l-0.7,2L288.5,54.2z M290.4,61.8l0.3-6.8l0.4,0l0.2,0.3l0.2,0.1l-0.2,6L290.4,61.8z M290.9,53l-0.9,0.4c0.2-0.4,0.6-1.5,0.7-1.9
		l0.9-0.4L290.9,53z M289.1,51.7l-1.2,0.6c0.4-1.1,2.3-6.4,2.8-7.8l1.1-0.6L289.1,51.7z M290.3,42l-0.3,0.1v-0.4l0.3-0.1V42z
		 M290.3,40.9l-0.4,0.2v-0.8l0.4-0.2V40.9z M287.5,53.1l0.9-0.5l-0.7,1.9l-1,0.5L287.5,53.1z M288.1,58.6l-0.3,0l0-0.4l0.2,0
		L288.1,58.6z M287,59.3c0.1-0.3,0.5-0.4,0.8-0.4c0.3,0,0.9,0.1,1.1,0.3c0.1,0.1,0.2,0.6-0.1,0.6c-0.3,0-0.5-0.2-0.8-0.2
		c-0.3,0-0.4,0-0.5,0.1C287.3,59.7,286.8,59.7,287,59.3z M286.4,65.2c0,0.1-0.1,0.5-0.1,0.5l-1,0.6l-0.7-1l2-1l0.3,0.4
		C287,64.7,286.4,65.2,286.4,65.2z M286.1,67C286.1,67,286.1,67,286.1,67c-0.1,0.1-0.3,0.5-0.3,0.5l-0.5,0c0,0,0-0.3,0-0.4
		c0-0.1,0-0.3,0.1-0.4c0.1-0.1,0.6-0.2,0.6-0.2L286.1,67z M285,67.8c0,0-0.2,0.2-0.2,0.2c0,0-0.1-0.5-0.1-0.5l0,0h0.2
		C285,67.5,285,67.8,285,67.8z M284.9,66.6c0,0.1-0.1,0.2-0.1,0.3c0,0.1-0.2,0.1-0.2,0.1s-0.1-0.4-0.1-0.6l0,0
		C284.6,66.3,284.8,66.5,284.9,66.6z M286.8,95.1l0.6-0.4c0,0,0.1,1.2,0.1,1.6c0,0.4-0.1,0.8-0.2,1.2c-0.1,0.4-0.1,0.4,0,0.7
		c0.1,0.3,0.3,0.5,0.3,0.5l0,0.3l-0.6,0.2c0,0-0.4-0.6-0.6-1c-0.1-0.4,0.2-0.7,0.4-0.9c0.2-0.2,0.1-0.5,0.2-0.9
		C287,96,286.8,95.1,286.8,95.1z M268.5,91.4c0.1,0.9,0.5,1.9,1.1,3s1.8,1.2,2.4,1.4c0.6,0.2,0.9,0.1,1-0.1c0.1-0.2,0-0.5-0.1-0.6
		c-0.1-0.1-0.3,0.1-0.3,0.1c-2.1-0.1-2.7-2.1-3-4c-0.3-1.9,0.5-5.7,0.8-6.4c0.3-0.7,0.7-1.9,1.9-4.2c1.3-2.3,4.5-4.7,5.7-5.3
		c1.2-0.6,2.7-0.6,3.6-0.6c2.1,0.1,3.2,1.9,3.4,2.2c0.3,0.3,0.3,0,0.3,0c0-0.1,0-0.4-0.4-1.6c-0.5-1.1-2.2-1.9-2.7-2.1
		c-0.5-0.2-1.9-0.1-2.1,0c-0.2,0.1-0.3,0-0.2-0.2c1.3-0.9,3.5-0.3,4.5,0.7c1,0.9,1.3,1.6,1.3,5c0,3.4-0.7,4.6-3,9.1
		c-2.2,4.5-7.2,7.8-9.3,8.4c-3.1,0.8-4.1-1.7-4.2-1.9l0-0.1c-1.2-1.8-1-7.6-0.7-8.7c0.2-1.6,4-6.9,4.6-7.4c0,0-2.6,4.3-3.3,6.6
		C268.8,86.9,268.4,90.5,268.5,91.4z M273.5,77.2c0,0,0.2-0.3,0.4-0.3c0.1,0,0,0.1,0,0.1s-0.2,0.2-0.2,0.3
		C273.5,77.4,273.4,77.2,273.5,77.2z M278.7,94c0.1,0.1,0.2,0.1,0,0.2c-0.2,0.1-2,1.1-2,1.1l-0.5,0.1c0.2-0.1,0.9-0.6,1.9-1.6
		c1-0.9,3.7-4,4.1-4.8c0.4-0.8,1.7-3.2,1.7-3.2l0.2-0.1c0,0.9-2.8,5.6-5.4,7.9C278.7,93.8,278.6,93.9,278.7,94z M274.4,96.2
		c-0.1,0.2-0.5,0.3-0.8,0.3l0-0.1C273.8,96.4,274.5,96.1,274.4,96.2z M284,99.7l0.3,0.6l-0.4,0.4c-0.2-0.2-0.5-0.5-0.5-0.7
		c0-0.2-0.2-0.4-0.1-0.6c0.1-0.2,0.1-0.2,0.2-0.3c0.1-0.2,0.5-0.9,0.6-1.2c0.1-0.3-0.1-0.9,0-1.1c0.1-0.3,0.3-0.5,0.5-0.4
		c0.2,0,0.1,0.5,0.1,0.7c0,0.2,0,1.1-0.1,1.4c-0.1,0.3-0.2,0.6-0.3,0.9C283.9,99.4,284,99.7,284,99.7z M284.5,99.4
		c0-0.3,0.1-0.5,0.2-0.5c0.2-0.1,0,0.2,0.1,0.6c0.1,0.4,0.2,0.3,0.3,0.4c0,0,0.2-0.1,0,0c-0.2,0.1-0.4,0.1-0.6,0
		C284.5,99.8,284.5,99.8,284.5,99.4z M284.9,100.8c0-0.1,0.2-0.1,0.2-0.1l0.2,0.2l0.2-0.2c0,0,0.2,0.2,0.2,0.2c0,0-0.1,0.1-0.1,0.1
		s0,0.6,0,0.6c0,0.1-0.1,0.2-0.2,0.3c-0.1,0.1-0.3,0.1-0.4,0.1c-0.1,0-0.2-0.2-0.2-0.2S284.9,100.9,284.9,100.8z M282.9,103.3
		l-0.4,0.2l0,0l-0.1-0.1l0-0.2l0.2-0.5c0,0,0.3,0.3,0.4,0.2C283,103,282.9,103.3,282.9,103.3z M281.9,103.8c0,0-0.5,0.3-0.5,0.3
		c-0.1,0-0.1-0.2-0.1-0.3c0-0.1,0.1-0.3,0.1-0.4c0.1-0.1,0.3-0.2,0.3-0.3c0,0,0-0.4,0-0.4c0-0.1,0,0-0.1-0.2
		c-0.1-0.1,0.1-0.4,0.3-0.4c0.1,0,0.2,0.1,0.2,0.1l0,1C282,103.2,281.9,103.7,281.9,103.8L281.9,103.8z M280.9,101.3l0.4,0.5
		l-0.4,0.4c-0.1,0-0.6-0.4-0.6-0.6c-0.1-0.2-0.2-0.5-0.1-0.7c0.1-0.2,0.1-0.2,0.2-0.3c0.1-0.2,0.4-1.1,0.5-1.4
		c0.1-0.3,0-0.7,0.1-0.9c0.1-0.3,0.2-0.3,0.4-0.3c0.1,0,0.1,0.4,0.1,0.6c0,0.2,0,1.1-0.1,1.4c-0.1,0.3-0.2,0.6-0.4,0.8
		C280.7,101,280.9,101.3,280.9,101.3z M281.8,101.8c-0.3,0.1-0.5-0.4-0.5-0.6c0-0.2,0.1-1.1,0.2-1.3s0.2-0.3,0.2-0.2
		c0,0.1,0.1,0.9,0.2,1.1l0,0c0,0.1,0.3,0.2,0.4,0.4C282.4,101.5,282.1,101.7,281.8,101.8z M278.9,104.3c0,0-0.1,0.4-0.1,0.5
		c0,0.1-0.1,0.5-0.2,0.6c-0.1,0.1-0.3,0.2-0.5,0.2c-0.1,0-0.2-0.3-0.2-0.5c0-0.2,0.1-0.9,0.1-1.2c0-0.2,0.2-0.3,0.2-0.4
		c0.1-0.1,0.5,0,0.6,0.1C279.1,103.7,278.9,104.2,278.9,104.3L278.9,104.3z M277.4,102.8l0.3,0.6l-0.4,0.4c-0.1,0-0.4-0.5-0.4-0.7
		c0-0.2-0.2-0.5,0-0.7c0.1-0.2,0-0.2,0.1-0.3c0.1-0.2,0.4-1.1,0.5-1.4c0.1-0.3,0-0.7,0.1-0.9c0.1-0.3,0.2-0.3,0.4-0.3
		c0.2,0,0.2,0.4,0.2,0.6c0,0.2,0,1.1-0.1,1.4c-0.1,0.3-0.2,0.6-0.4,0.8C277.4,102.6,277.4,102.8,277.4,102.8z M276.3,104
		c0,0,0,0,0.1-0.2c0.1-0.1,0.1,0,0.1,0l0,1.2c0,0,0-0.1-0.1-0.2c0-0.1-0.1-0.3-0.1-0.3c0,0,0.1-0.2,0.1-0.3
		C276.5,104.3,276.3,104,276.3,104z M276.5,105.6c0,0,0.1,0.1,0.2,0.1c0,0,0,0.5,0,0.5l-0.2,0.1
		C276.4,106.4,276.5,105.6,276.5,105.6z M274.5,103.7c-0.2,0.2-0.1,0.4-0.1,0.4l0.2,0.5l-0.4,0.3c-0.1,0-0.3-0.4-0.4-0.6
		c0-0.2-0.1-0.4,0-0.6c0.1-0.2,0-0.2,0.1-0.3c0.1-0.1,0.4-1,0.5-1.2c0.1-0.3,0-0.6,0.1-0.8c0.1-0.2,0.2-0.3,0.4-0.3
		c0.1,0,0.1,0.4,0.1,0.6c0,0.2,0,1-0.1,1.2C274.7,103.3,274.7,103.5,274.5,103.7z M274.6,108c-0.1,0.1-0.8,0.5-0.9,0.5
		c-0.1,0.1-0.2-0.1-0.2-0.1s0.8-0.5,0.9-0.5C274.5,107.9,274.6,107.9,274.6,108C274.6,107.9,274.7,108,274.6,108z M274.9,107.7
		l0.1,0l0,0.1L274.9,107.7L274.9,107.7z M274.9,104.3c0-0.1,0.1-0.5,0.2-0.7c0.1-0.1,0.2-0.3,0.2-0.3l0.1-0.5l0.1,0c0,0,0.1,0.9,0,1
		c0,0.2-0.1,0.2-0.1,0.4c0,0.2,0.2,0.3,0.2,0.3c-0.1,0.3-0.3,0.2-0.4,0.2C275,104.6,274.9,104.4,274.9,104.3z M275.4,106.3
		c0.1-0.2,0.1-0.4,0.1-0.6c0-0.2,0-0.7,0.1-0.8c0.1-0.1,0.5,0.1,0.5,0.1c0,0,0,0.8,0,0.8c0,0-0.2,0.8-0.3,0.9
		c-0.1,0.1-0.4,0.1-0.5,0C275.1,106.8,275.3,106.5,275.4,106.3z M275.3,107.6c0,0,0.2-0.1,0.2-0.2c0,0,10.9-5.2,10.9-5.2
		c0.1-0.1,0.2,0,0.2,0s-0.7,0.4-1,0.6c-0.3,0.2-10,4.8-10.2,4.9C275.2,107.8,275.3,107.6,275.3,107.6z M286.4,101.4
		c0,0,0-0.2,0.1-0.2c0.1,0,0.2,0,0.2,0l0.5-0.3c0,0,0.1-0.4,0.2-0.5c0.1,0,0.1,0,0.2,0c0.1,0,0.2,0.2,0.2,0.2s0.2-0.2,0.2-0.2
		c0-0.1,0.2-1.4,0.2-1.4h0.1l-0.1,1.7l-0.7,0.4c0,0-0.9,0.5-1,0.5C286.5,101.5,286.4,101.4,286.4,101.4z M292.5,88.5l-0.1,0.3
		l-2.8,1.2l0.1-22.1l3.4-1.3v21.7L292.5,88.5z M292.3,65.7l-0.5-0.1c0,0-0.1-0.9-0.1-0.9l0.1,0l0.1,0.1l1.8-0.8l0.2,1.1L292.3,65.7z
		 M297.5,100.8l-0.3-0.1c0,0-0.1-7-0.1-7.1c0-0.1,0.1,0.1,0.1,0.1L297.5,100.8z M296.2,92.3c0-0.4,0.1-0.3,0.3-0.3
		c0.2,0,0.2,0.3,0.2,0.3l0.2,8.1l-0.7-0.4C296.2,100,296.2,92.7,296.2,92.3z M295.4,91.9c0-0.3,0.2-0.2,0.3-0.2
		c0.1,0,0.1,0.6,0.1,0.6l0,7.4l-0.4-0.2C295.3,99.4,295.4,92.2,295.4,91.9z M295.1,99.9c0.1,0,0.3,0.1,0.6,0.2
		c0.2,0.1,26.3,15.7,26.3,15.7c0.1,0.2-0.2,0-0.2,0s-26.3-15.6-26.6-15.8C294.9,100,295,99.9,295.1,99.9z M321.2,108.2h-0.3v-0.4
		h0.3V108.2z M321.2,108.7v6.1h-0.3v-6.1H321.2z M320.2,82.3l0.9,22.3l0.5,0.3v0.2l-1-0.5l-1-22.8L320.2,82.3z M319.7,79l-0.7,0.4
		l-0.2,0l0-1.6l0.8,0L319.7,79z M318.2,75.3l0.2,0.2l0,0.1h-0.2c0,0,0-0.2,0-0.3C318.1,75.3,318.2,75.3,318.2,75.3z M316.6,71.2
		c0-0.1,0.2,0.1,0.2,0.1l0,2.9l-0.2-0.2C316.6,74,316.5,71.3,316.6,71.2z M315.3,70.4c0.1-0.1,0.3-0.1,0.6,0
		c0.3,0.1,0.2,0.3,0.3,0.5c0.1,0.2,0.1,0.9,0.1,0.9l0,0c0,0,0.1,1.2,0.1,1.4c0,0.2-0.2,0.1-0.4,0.1c-0.2,0-0.2-0.2-0.2-0.3
		c0-0.1-0.2-1.7-0.2-1.9s0-0.1-0.3-0.2C315.2,71,315.2,70.5,315.3,70.4z M313.8,69.2c0.2,0,0.2,0.1,0.5,0.2c0.3,0.2,0.2,0.3,0.2,0.5
		c0.1,0.2,0.2,1.3,0.2,1.7c-0.1,0.2-0.1,0.2-0.3,0.2c-0.2,0-0.4-0.2-0.4-0.3c0-0.1-0.1-0.4-0.2-0.8c-0.1-0.4-0.1-0.7-0.2-0.8
		c-0.1-0.1-0.2-0.2-0.2-0.3C313.4,69.5,313.6,69.2,313.8,69.2z M314,73.1l0.2-0.5l0.6,0.1l0,1l0.8,1c0,0,0.6-0.1,0.6,0s2.7,2,2.7,2
		l0.3,0l0.1-0.2c0,0,0.2,0,0.2,0.1c0,0.1,0,0.4,0,0.4l-0.2,0.3l-0.2,0l-1.4-0.8l-0.2-0.3h-0.2l-4-2.8L314,73.1z M311.6,67.3
		c0.2-0.1,0.4-0.1,0.5,0c0.2,0.1,0.3,0.3,0.3,0.7c0,0.4,0.3,2,0.3,2s-0.1,0.5-0.4,0.3c-0.3-0.2-0.5-0.3-0.5-0.6c0-0.1,0-1.8,0-1.8
		c-0.1,0-0.2-0.1-0.3-0.2C311.4,67.5,311.4,67.3,311.6,67.3z M311.4,71.5c0,0,0.1-0.2,0.1-0.3s0.2-0.3,0.2-0.3l0.6,0.4l-0.1,0.7
		c0,0,0.3,0,0.3,0.1c0,0.1,0.2,0.7,0.2,0.7l0,0.1l0,0l-1.6-1.2L311.4,71.5z M308.9,65.3c0.2-0.1,0.4-0.1,0.5,0
		c0.2,0.1,0.3,0.3,0.3,0.7c0,0.4,0.3,2,0.3,2s-0.1,0.5-0.4,0.3c-0.3-0.2-0.5-0.3-0.5-0.6c0-0.1,0-1.8,0-1.8c-0.1,0-0.2-0.1-0.3-0.2
		C308.8,65.5,308.7,65.3,308.9,65.3z M309.1,70v-0.4l0.2-0.2l0.2,0l0.3,0.4l-0.1,0.4c0,0,0.3,0.2,0.4,0.3c0,0.1,0.1,0.3,0.2,0.5
		c0.1,0.2,0.4,0.5,0.4,0.5l-0.2,0.1l-1.8-1.3L309.1,70z M308.6,70.8l0.8,0.5l0,1.2l-0.2,0.4c0,0-0.7-0.6-0.7-0.6
		S308.6,70.8,308.6,70.8z M306.6,63.7c0.2-0.1,0.4-0.1,0.5,0c0.2,0.1,0.3,0.3,0.3,0.7c0,0.4,0.2,1.9,0.2,1.9s-0.3,0.4-0.5,0.2
		c-0.2-0.3-0.3-0.3-0.3-0.3c0-0.1,0-1.8,0-1.8c-0.1,0-0.2-0.1-0.3-0.2C306.5,63.9,306.4,63.7,306.6,63.7z M306.4,68.1
		c0.1,0,0.3,0,0.4,0s-0.1-0.1,0.1-0.3c0.2-0.1,0.2-0.2,0.4-0.2c0.2,0,0.1,0.3,0.2,0.4c0,0.1-0.2,0.3-0.2,0.4c0,0.1,0.2,0.2,0.3,0.2
		c0.1,0,0.2,0.4,0.3,0.5c0,0.1,0.4,0.7,0.4,0.7l-0.2,0.1l-1.2-0.9c0,0-0.8-0.6-0.8-0.7C306.1,68.2,306.3,68.1,306.4,68.1z
		 M305.9,68.9L305.9,68.9c0,0,0.9,0.6,0.9,0.6c0,0,0,1.2,0,1.2l-0.2,0.3l-0.5,0l-0.4-0.5L305.9,68.9z M305.7,67.8l-0.3,0.1l-1.4-1
		v-0.1l0.1-0.1c0,0,0-0.4,0-0.5c0,0,0-0.2,0.2-0.3c0.1,0,0.4,0,0.5,0.1c0.1,0.1,0.2,0.3,0.2,0.5c0,0.1,0.1,0.2-0.1,0.2
		c-0.2,0-0.3,0-0.2,0.1c0,0.1,0.2,0.2,0.3,0.2C305,67,305.7,67.8,305.7,67.8z M305.2,48.4l-0.5-0.4l0-1.1l0.5,0.4L305.2,48.4z
		 M304.7,44.2l0.5,0.4l0,0.7l-0.5-0.4L304.7,44.2z M304.7,45.4l0.5,0.4l0,0.7l-0.5-0.4L304.7,45.4z M304.4,61.8
		c0.1,0.1,0.3,0.3,0.3,0.7c0,0.4,0.1,1.9,0.1,1.9s-0.2,0.5-0.3,0.3c-0.2-0.2-0.3-0.4-0.3-0.5c0-0.1,0-1.8,0-1.8
		c-0.1,0-0.2-0.1-0.3-0.2c-0.1-0.1-0.1-0.3,0.1-0.4C304.1,61.7,304.3,61.7,304.4,61.8z M303.9,47.4h-0.2v-1h0.2V47.4z M303.8,43.7
		L303.8,43.7l-0.1-0.3h0.1V43.7z M303.7,42.5h-0.1v-2.2h0.1V42.5z M302.9,39.8l0.2-0.3l0.4,0.1l0.2,0.1l-0.3,0l0,0.3l-0.1,0v3.2
		l-0.3-0.2L302.9,39.8z M303.3,66l0,0.2l-0.3-0.1c0,0-0.5-0.2-0.6-0.3c-0.1-0.1-0.2-0.3-0.1-0.4c0.1-0.1,0.2-0.1,0.4,0
		C303,65.5,303.3,66,303.3,66z M302.7,46.7l-0.5-0.3l0-0.7l0.5,0.3L302.7,46.7z M302.5,39.4h0.2v0.2h-0.2V39.4z M302.3,40.2v1.5
		l-0.5-0.2V40L302.3,40.2z M300.8,37.6c0,0,0.1,0.1,0.1,0.1l0.1,0.5l0.6,0.2l0-0.1l0.1,0.1v0l0.2,0.2l0,0.5l-0.4-0.1
		c0,0-0.1,0.3-0.1,0.4c0,0.1,0.1,0.1,0.1,0.1l0,2.8l-0.3-0.2l0.1-3.4c0,0-0.1-0.1-0.2-0.2l-0.2-0.2
		C300.8,38.3,300.8,37.7,300.8,37.6z M300.7,39.9l-0.5-0.2v-0.8l0.5,0.2V39.9z M299.2,36.3c0,0,0.1,0.1,0.1,0.1l0.1,0.5l0.6,0.2
		l0-0.1l0.1,0.1v0l0.2,0.2l0,0.5l-0.4-0.1c0,0-0.1,0.3-0.1,0.4c0,0.1,0.1,0.1,0.1,0.1l0,3l-0.3-0.2v-3.6c0,0-0.1-0.1-0.2-0.2
		l-0.2-0.2C299.1,37,299.2,36.3,299.2,36.3z M299,38.4l-0.5-0.2v-0.8l0.5,0.2V38.4z M297.5,35.1c0,0,0.1,0.1,0.1,0.1l0.1,0.5
		l0.6,0.2l0-0.1l0.1,0.1v0l0.2,0.2l0,0.5l-0.4-0.1c0,0-0.1,0.3-0.1,0.4c0,0.1,0.1,0.1,0.1,0.1l0,3l-0.3-0.2v-3.6
		c0,0-0.1-0.1-0.2-0.2l-0.2-0.2C297.4,35.8,297.5,35.2,297.5,35.1z M297.3,36.4v1l-0.1,0v-0.5l-0.4-0.3v-0.5L297.3,36.4L297.3,36.4z
		 M295.4,33.3c0,0,0.1,0.1,0.1,0.1l0.1,0.8l0.9,0.5l0.1-0.1l0.1-0.2v0l0.2,0l0,0.9l-0.5-0.2c0,0-0.1,0.3-0.1,0.4
		c0,0.1,0.1,0.1,0.1,0.1l0,3.2l-0.3-0.2l0-3.8c0,0-0.1-0.1-0.2-0.2l-0.4-0.4C295.3,34.3,295.4,33.3,295.4,33.3z M295.1,34.8l0.4,0.3
		v0.6l-0.4-0.3V34.8z M295,40.1l0.9,0.6v0.8c0,0-0.9-0.8-0.9-0.8C294.9,40.7,295,40.1,295,40.1z M295.3,54.6l-0.1,5.3l-0.5-0.3
		l0.1-5.2L295.3,54.6z M294.9,53.4c0,0.1-0.5,0-0.6,0c-0.2,0-0.4,0-0.4,0c0-0.3,0.5-0.4,0.7-0.4C294.8,53.1,294.9,53.3,294.9,53.4z
		 M294.5,33.2h0.1v1.6h-0.1V33.2z M294,39.8l0.6,0.1v0.7h-0.2L294,40V39.8z M294,43.3v1.2l-1.9,5.6l-0.8,0.4l2.6-7.3L294,43.3z
		 M293.8,27.9c-0.1,0.1-0.4,0.4-0.8,0.7c0-0.1,0-0.1,0-0.2c0-0.3,0.2-2,0.5-3C293.6,26.7,293.7,27.6,293.8,27.9z M293.1,21.3
		c0.1,0.7,0.1,1.4,0.2,2.1l-1,5.6c-0.3,0.2-0.6,0.4-0.9,0.6c0-0.1,0-0.1,0-0.2c0-0.1,0.2-1,0.5-2.2c0.3-0.2,0.4-0.5,0.3-0.7
		c0-0.1-0.1-0.2-0.1-0.3C292.4,24.4,292.9,22.3,293.1,21.3z M290,34.5c0,0,0-0.8,0-0.9c0-0.1,0-0.1,0.2-0.2c0.1,0,0.2,0.1,0.2,0.1
		l0,1.3l-0.1,0.1c0,0-0.2,0-0.2,0C290,34.9,290.1,34.5,290,34.5C290.1,34.5,290,34.5,290,34.5z M289.5,30.9c0,0,0-0.1,0-0.1
		c0-0.2,0.4-1.6,0.8-3.4c0.2,0.2,0.5,0.3,0.9,0.2c-0.2,1.1-0.4,2-0.5,2.6C290.3,30.4,289.9,30.6,289.5,30.9z M289.3,34.6
		c0,0,0-0.8,0-0.9c0-0.1,0.1-0.1,0.2-0.1c0,0,0.1,0.3,0.1,0.3l0,1.5l-0.2,0L289.3,34.6L289.3,34.6z M288,31.8
		c-0.1,0.1-0.2,0.2-0.4,0.2c0-0.2,0-0.4,0.1-0.8c0.1-0.3,0.4-1.1,0.7-2c0.5-0.1,0.9-0.5,0.8-0.9c0-0.2-0.2-0.3-0.4-0.5
		c0.3-1.1,0.7-2.1,0.8-2.5c0.3-1,1.5-5.5,1.6-6.2c0.2,0,0.3-0.1,0.4-0.2c-0.1,0.6-0.4,1.8-0.7,3.2c-0.2,0.1-0.3,0.3-0.3,0.5
		c0,0.1,0,0.2,0.1,0.3c-0.7,3.1-1.6,7-2.1,8.4C288.5,31.5,288.2,31.7,288,31.8z M288.3,36.6l-0.1,0.1c0,0-0.2-0.3-0.2-0.3
		c0,0,0-0.6,0-0.7c0,0-0.1,0-0.1,0s0-1,0-1.1c0-0.1,0-0.2,0.2-0.2c0.2,0,0.2,0.1,0.2,0.1L288.3,36.6z M286.7,32.6
		c-0.3,0.2-0.5,0.3-0.8,0.5c0.3-0.8,1.3-3.4,1.4-3.9c0,0,0-0.1,0.1-0.2c0.1,0.1,0.3,0.2,0.5,0.3C287.5,30.5,286.9,32.1,286.7,32.6z
		 M287.5,36.6l-0.2,0.2l0-0.8l-0.1,0c0,0,0-0.9,0-1c0-0.1,0.1-0.2,0.2-0.1c0.1,0,0.1,0.3,0.1,0.3L287.5,36.6z M291,26
		c-0.1,0-0.3,0.1-0.4,0.1c0.2-0.9,0.5-1.9,0.7-2.9c0.1,0,0.2,0,0.3,0c0.2,0,0.3,0,0.4-0.1c-0.2,0.9-0.4,1.9-0.5,2.8
		C291.4,26,291.2,26,291,26z M292.9,19c-0.1,0.7-0.4,1.9-0.6,3.3c-0.1-0.1-0.4-0.2-0.6-0.2c0.4-1.8,0.8-3.5,1.1-4.6
		C292.8,17.9,292.8,18.4,292.9,19z M292.4,11.2c0-0.1,0.1-0.2,0.1-0.2l0.2,0c0,0,0,0.6,0,2c-0.1-0.1-0.2-0.1-0.4-0.1
		C292.2,12.4,292.3,11.7,292.4,11.2z M292.1,14c0.2,0,0.4-0.1,0.5-0.1c0,0.1,0,0.2,0,0.3v0c0,0-0.6,3.7-0.7,4.4
		c-0.1-0.1-0.2-0.2-0.4-0.3C291.6,16.9,292,14.5,292.1,14C292.1,14,292.1,14,292.1,14z M291.7,12.4c0,0.1,0,0.3-0.1,0.5
		c-0.1,0-0.1,0-0.2,0.1C291.5,12.9,291.6,12.7,291.7,12.4z M291.2,13.8c0.1,0.1,0.2,0.1,0.3,0.1c-0.1,0.4-0.1,0.7-0.1,0.8
		c0,0.2-0.3,2-0.5,3.4c-0.2,0-0.5,0.1-0.6,0.2C290.6,16.6,291,14.8,291.2,13.8z M289.4,22L289.4,22c0,0,0-0.1,0-0.2
		c0.1-0.1,0.3-1.4,0.7-2.9c0.1,0.1,0.3,0.2,0.6,0.3c0,0.3-0.1,0.5-0.1,0.6c-0.1,0.4-2,7.4-2.1,7.9c0,0,0,0,0,0c-0.1,0-0.2,0-0.4,0
		c-0.1,0-0.3,0.1-0.4,0.1c0.2-0.8,0.5-1.8,0.8-2.8c0.5-0.1,0.9-0.4,0.8-0.7c0-0.2-0.2-0.3-0.5-0.4C289.2,22.9,289.4,22,289.4,22z
		 M288.7,22.3L288.7,22.3c0,0.3-0.2,1-0.4,1.7c0,0,0,0-0.1,0c-0.1,0-0.1,0-0.2,0C288.4,23,288.7,22.3,288.7,22.3z M286.2,28.9
		c0.1-0.1,0.8-2,1.4-3.7c0.1,0,0.2,0.1,0.3,0.1c-0.4,1.5-0.9,3.2-1,3.7c0,0.1-0.1,0.3-0.2,0.5C286.7,29.2,286.4,29,286.2,28.9
		C286.1,28.9,286.1,28.9,286.2,28.9z M286,30.4c0.2,0,0.3-0.1,0.5-0.2c-0.5,1.3-1.3,2.9-1.6,3.5c-0.2,0.1-0.5,0.3-0.7,0.4
		c-0.2,0-0.1-0.1,0-0.4c0.1-0.3,0.9-2,1.4-3.2C285.7,30.5,285.8,30.5,286,30.4z M285.9,37.9l-0.1,0.1c0,0-0.2-0.3-0.2-0.3
		c0,0,0-0.6,0-0.7s-0.1,0-0.1,0s0-1,0-1.1c0-0.1,0-0.2,0.2-0.2c0.2,0,0.2,0.1,0.2,0.1L285.9,37.9z M285.1,38l-0.2,0.2l0-0.8l-0.1,0
		c0,0,0-0.9,0-1c0-0.1,0.1-0.1,0.2-0.1c0.1,0,0.1,0.3,0.1,0.3L285.1,38z M284.7,30.4c0,0,0.1-0.2,0.2-0.3c0,0,0,0.1,0.1,0.1
		c-0.5,1.4-1.6,3.9-2,4.5c-0.4,0.3-0.7,0.4-0.7,0.4S284.7,30.5,284.7,30.4z M283.4,38.9l-0.3,0c0,0-0.1-1.3,0-1.4
		c0.1-0.1,0.2,0,0.2,0L283.4,38.9z M282.7,37.9v1.3l-0.3,0.1c0,0-0.1-1.5,0-1.6C282.6,37.7,282.7,37.9,282.7,37.9z M282.9,40
		l0.5-0.7l0.5,0.4l0.3-0.1l0.9-1.1l1.2,0.2l1.3-1.5l0.1-0.1h0.2l0,0.1l0.6,0l0.8-1.2c0,0,0.9,0,0.9,0c0,0,0,0.1,0,0.1l0.3-0.2
		c0,0,0.7-0.6,0.8-0.6c0,0-0.1-2.6,0-2.7c0-0.1,0.2-0.1,0.2-0.1c0.1,0,0.2,0.2,0.2,0.2l0,3.8l-0.5-0.5l-0.4,0l-0.2,0.1l-0.5,0.6
		l0,2.9l-0.4,0.2l-0.1-2.6l-0.1-0.2H289l-0.5,0.7l0,0.4l0,2.5l-0.5,0.2l0-2.1l-0.6-0.5l-0.3,0l-0.8,0.9l0.2,2.5l-0.3,0.2l-0.1-2.1
		l-0.5-0.5l-0.4,0l-0.5,0.9l0.1,2.4l-0.5,0.3c0,0,0-2.2,0-2.2c0-0.1-0.6-0.4-0.6-0.4c0,0-0.2,0-0.2,0l-0.8,0.7l0,2.8l-0.5,0.2
		l-0.1-4L282.9,40z M282.1,45.4v-0.9l0.5-0.2v0.9L282.1,45.4z M282.5,45.6v0.7l-0.4,0.2v-0.7L282.5,45.6z M282.6,48.7l-4.9,8.8
		l-1,0.5l5.1-8.9L282.6,48.7z M281.5,46.7l-0.4,0.2v-0.7l0.4-0.2V46.7z M281.3,40.5l0.2-0.1l0.1,3.8l-0.4,0.2L281.3,40.5z M281.1,45
		l0.5-0.2v0.9l-0.5,0.2V45z M280.9,38.4v2.1l-1,0.8l0-3.3L280.9,38.4z M280.2,46.3v-0.9l0.5-0.2v0.9L280.2,46.3z M280.6,46.5v0.7
		l-0.4,0.2v-0.7L280.6,46.5z M280,45l0-2.6l0.9-0.7l-0.1,2.9L280,45z M278.6,46.1l0.5-0.2v0.9l-0.5,0.2V46.1z M278.5,48.1v-0.7
		l0.6-0.2v0.7L278.5,48.1z M280.5,49.8l0.7-0.3l-5.5,9.1L275,59l0,0L280.5,49.8z M275.2,57.3l0.1-0.2L275.2,57.3l-1.7,2.5l-0.8,0.4
		L275.2,57.3z M271.8,61.2l1.1-0.5l-2,2.7l-1.7,0.9L271.8,61.2z M270.8,66.7c0,0,0.6-0.3,0.7-0.2c0,0.1,0,0.9,0,1.2
		c0,0.3-0.2,1.1-0.5,1.2c-0.3,0.1-0.5,0.3-0.5,0c0-0.2,0.3-0.6,0.3-0.9C270.9,67.9,270.8,66.7,270.8,66.7z M269,62.9l0,0.3l-0.5,0.5
		l0-0.5L269,62.9z M268,68l0.2-0.1v0.7l-0.2-0.2V68z M266.8,64c0,0,0.8-0.5,0.9-0.5c0.1,0,0.2,0.2,0.2,0.2l0,0.7l-1.1,0.9V64z
		 M265.4,67.4c0,0,0.3-0.1,0.4,0c0.2,0.1,0.5,0.5,0.5,0.5l0.9,0l0,0.8l-0.6,0.5h-0.7l0,1.5l0,0.8l-0.9,0.7l-0.1-2L265,70l-0.4-1.9
		L265.4,67.4z M264.1,69.2h0.2c0,0,0,0.6,0,0.7l-0.3-0.1L264.1,69.2z M264,75.8c0.1,0-0.1-0.4-0.1-0.5c0-0.1-0.2-0.5-0.2-0.5
		s0.2-4,0.3-4.1c0.1-0.1,0.2,0,0.2,0s-0.1,2.3,0,2.7c0.1,0.3,0.3,0.2,0.3,0.2l1.7-1.6l0.3,0.1l0.3-0.7l-0.3,0l0.2-1.3l1-0.6l0.1,0.3
		l-0.3,0.3c-0.8,0.1-0.3,1,0.1,1.7c0.3,0.7,0.6,0.4,1.2,0.1c0.6-0.2,0.9-1.3,1.1-1.6h0.3c0.1,0.5,0.2,0.7,0.5,0.8
		c0.4,0.1,0.8-0.3,1.1-0.6c0.4-0.2,1-1,1-1v-0.6h0.4c0,0,0,0.2,0,0.6c0,0.4,0.3,0.3,0.4,0.2c0.1,0,0.7-0.3,1.1-0.5
		c0.4-0.2,1-1.6,1-1.6l-0.1-0.5c0,0,0.4-0.1,0.5-0.1c0.1,0,0,0.1,0,0.3c0,0.2-0.1,0.3,0.2,0.6c0.2,0.3,0.8,0,1.5-0.4
		c0.6-0.3,1-1.6,1-1.6l0.3,0l0.1,0.1c0.3,0.6,0.8,0.3,1.5,0c0.6-0.3,1-1.6,1-1.6h0.5c0.5,0.7,1,0.3,1.6,0.1c0.6-0.2,0.9-1.2,1.1-1.5
		c0-0.1,0-0.1,0.1,0c0.2,0.1,0.1,0.2,0.5,0.2s1.4-0.5,1.4-0.5l0.1,0.8L267.3,73l0.5,0.5l0.7-0.4l0.3,0l0,0.4l-0.3,0.6l-1.1,0.6
		l0,0.3c0,0,0.9-0.3,0.9-0.4c0.1,0,0.2,0.2,0.2,0.2l-0.2,1.2c0,0-1.4,0.8-1.5,0.8c-0.1,0-0.6-0.3-0.6-0.3l0-0.3l0.2-0.1l0.5,0
		l0.3-0.3l-0.1-0.8l-0.3-0.1l-0.1,0.6c0,0-0.8,0.3-1.1,0.6c-0.3,0.3-0.3,0.5-0.3,0.7c0,0.2,0.5,0.1,0.5,0.1l-0.1,0.2l-0.6,0.1
		l-0.1,0.4l-1.7,0.7V77l0.7-0.3l0.1-0.2l-0.2-0.1c0,0-0.6,0.2-0.6,0.2c-0.1,0-0.2-0.2-0.2-0.3S263.9,75.8,264,75.8z M265.5,78.4v0.2
		l-2.1,0.8v-0.2L265.5,78.4z M261.2,80.3v-1l1.2,0.2l-0.2,0.3V81c0,0,0.2,0,0.3,0s0-0.7,0-0.7s0.8-0.5,0.9-0.5c0.1,0,0.5,0,0.5,0
		s0.2-0.3,0.3-0.3c0.1,0,1.3-0.4,1.4-0.5c0,0,0,0.9,0,0.9l-2.8,1l-0.2,0.7l-0.5-0.2L261.2,80.3z M260.5,104.9v-0.3
		c0,0,0.8-0.8,0.9-0.9c0.1,0,0.2-0.3,0.2-0.3l0.9-20.1l0.1-0.1c0,0-0.6,20-0.6,20.2s0.3,0.2,0.3,0.2s0.7-0.3,0.8-0.4
		c0.1-0.1,0.8-0.3,0.8-0.3l0.1,0.2l0.4,0.4l-2.3,0.9l-0.5,0.1l-0.5,0.5L260.5,104.9z M260.8,105.5l3.3-1.2l0.4,0.5
		c0,0-0.1,0.8-0.1,1c0,0-0.1,0-0.3,0s-0.2-0.3-0.2-0.3s-0.2,0.1-0.4,0.1c-0.1,0-1.4,0.3-1.6,0.5c-0.2,0.2-0.3,0.3-0.2,0.6
		c0.1,0.3,0,0.2,0,0.2s-0.2,5.6-0.2,6c0,0.4,0.4,0.2,0.4,0.2l1.8-0.9c0,0,0.2-0.2,0.3-0.3c0.1-0.1,0.3,0.1,0.3,0.1l0.2-0.2l0.2-3.2
		c0,0,0.3,0.2,0.3,0.3c0,0.1,0.4,0.1,0.4,0.1s-0.2,1.1-0.2,1.3c0,0.2,0.1,0.3,0.1,0.3s0.2,0,0.3-0.1c0.1-0.1,0.2-0.8,0.2-0.8
		l-0.1-1.4l-0.4,0.1c0,0-0.2-0.1-0.2-0.2c0-0.1,0.2-0.7,0.3-0.8c0.1-0.1,0.4,0,0.4,0l0.4,0.9l0.1,1.7c0,0,0.2,0.1,0.3,0.1
		c0.1,0,0.1,0.4-0.1,0.5c-0.1,0.1-0.4,0.2-0.7,0.3c-0.3,0.1-0.5,0.1-0.6,0.1c-0.1,0-0.3,0.2-0.3,0.5c0,0.2,0.2,0.3,0.2,0.5
		c0,0.2-0.7,0.5-0.8,0.5c-0.1,0.1-2.4,1.2-2.9,1.4c-0.5,0.2-0.4-0.3-0.4-0.3l0.3-7.4L260.8,105.5z M264.2,108.6v2.7l-0.2,0l0.1-2.7
		L264.2,108.6z M263.6,106.3l-0.2,5.5l-1.2,0.7l0.1-5.8C262.4,106.8,263.5,106.4,263.6,106.3z M293.3,100.9l-27,12.6v0.3l-4.4,2
		l-0.2-0.2l0-0.3l-0.2-0.1l-0.5,0.1l0-0.3l32.3-15.3V100.9z M293.6,98.2l-0.4,0l-0.1-0.2l0.1-6c0,0,0.2-0.5,0.2-0.5
		c0-0.1,0.2,0,0.2,0l0,0L293.6,98.2z M322.1,117.3l-27.9-16.2l-0.5-0.3l0.1-0.8l28.8,17.1L322.1,117.3z"/>
</g>
<path fill="#004990" d="M346.3,104c0,6.7,0.3,8.7,1.7,9.5c1.2,0.6,3,0.7,5.2,0.7c2.7,0,5.8-0.5,7.4-2.8c1.1-1.7,2.2-4.7,3.3-9
	l2.5,0.6c-0.4,3.6-1.8,12.9-2.4,15.3h-32.7v-2.9c5.6-0.5,6.2-1.2,6.2-11V73c0-9.8-0.5-10.5-5.8-11v-2.9h20.6V62
	c-5.4,0.5-5.9,1.2-5.9,11V104"/>
<path fill="#004990" d="M372.8,89.2c0-5.6-0.1-5.7-4.5-6.3v-2.5c4-0.7,8.6-2,12.9-3.3v32.1c0,5.2,0.3,5.7,4.7,6.2v2.9H368v-2.9
	c4.4-0.5,4.7-1,4.7-6.2V89.2 M381.4,62.8c0,3.6-2.2,6.6-5,6.6c-2.7,0-5-2.9-5-6.6c0-3.7,2.3-6.7,5-6.7
	C379.2,56.1,381.4,59.1,381.4,62.8z"/>
<path fill="#004990" d="M400.9,82.9v26.5c0,4.9,0.3,5.4,5.9,6v2.9h-18.5v-2.9c3.9-0.6,4.3-1.1,4.3-6V82.9H388l-0.5-1.2l2.2-3.5h2.8
	v-1.9c0-2.6,0.3-4.9,0.8-7c0.4-1.8,1.4-6.5,5.1-10.7c2.7-3.1,5.1-4.5,8-5c3,0.2,5.1,1.6,6.4,3.4c0.9,1.3,0.8,2.5,0.4,3.6
	c-0.3,0.8-1,2.2-1.7,2.9c-0.8,0.9-1.4,0.7-2.1,0c-1.4-1.6-4.5-4-6.4-4c-1.4,0-2,0.9-2.3,2.5c-0.3,1.5-0.3,4.9,0,13.3l0.1,3h7.8
	c0.3,1,0.1,3.9-1,4.7H400.9"/>
<path fill="#004990" d="M436.4,109.6c-3.9,7.9-9.3,9.8-11.7,9.8c-9.3,0-14.6-9.1-14.6-19.3c0-13.1,7.4-23,15.8-23
	c6,0,10.7,6.7,10.7,13.8c0,3.5-0.2,3.6-1.6,4c-1,0.3-10.1,1.1-16.9,1.5c0,10.2,4.7,15,9.9,15c2.5,0,4.7-1.1,7.4-3.6L436.4,109.6
	 M427.5,92c1,0,1.3-0.4,1.3-2.2c0-3.7-2.2-8.6-4.8-8.6c-2.5,0-5.1,4.7-5.5,11L427.5,92z"/>
<path fill="#004990" d="M2.6,100.4c1.1,5,5,14.7,11.6,14.7c4.4,0,6.9-4.4,6.9-9.6c0-6.2-2.5-9.1-7.6-12.1l-1.3-0.8
	C6.6,89.1,1.8,83.9,1.8,75.3c0-9.7,5.6-17.7,14.9-17.7c2,0,4.2,0.4,6.2,1.3c1.1,0.5,2.1,0.8,2.9,1.2c0.3,3.3,0.7,7.3,1.4,12.8
	l-2.4,0.6c-1.3-5.3-3.4-11.8-9.1-11.8c-4.1,0-6.5,4-6.5,9c0,4.6,2.5,7.9,7.3,10.7l2.1,1.3C24,85.7,29,90.5,29,100.3
	c0,10.7-6.2,18.8-15.9,18.8c-2.5,0-5-0.6-6.8-1.4c-1.9-0.8-3.1-1.5-4-2.1c-0.5-2.4-1.3-8.6-2.1-14L2.6,100.4"/>
<path fill="#004990" d="M44.7,104.4c0,7,2.5,8.2,3.8,8.2c1.1,0,2.2-0.5,3.5-1.4l0.9,2.7l-5.8,3.9c-1.1,0.7-2.1,1-2.5,1
	c-5.2,0-8-3.1-8-11.1V82.5h-4.3l-0.5-1.2l2.1-3.4h2.6v-5.5l7-7.1l1.1,0.8v11.9h6.6c0.9,1,0.7,3.9-0.5,4.6h-6.2V104.4"/>
<path fill="#004990" d="M79.1,106.7c0,3.8,0.9,5.2,1.8,5.2c0.8,0,1.7-0.4,2.6-0.9l0.7,2.6l-7.2,5.2c-3.8,0-5.2-3.3-5.7-5.9
	c-2.8,2.4-6.3,5.9-7.5,5.9c-5.2,0-8.5-6-8.5-11.1c0-4.5,1.5-7.6,5.2-9.6c3.2-1.8,8.6-4.5,10.7-6.4v-3.3c0-4.7-1.8-6.8-4.4-6.8
	c-0.7,0-1.5,0.4-2.2,1.3c-1.1,1.4-1.9,3.9-2.4,7.4c-0.2,1.4-1.3,2.1-2.5,2.1c-1.3,0-4-1.8-4-4.3c0-1.5,0.8-3.2,2.3-4.8
	c2.2-2.4,6.5-5.3,11.6-6.5c2.7,0,4.8,0.8,6.4,2.4c2.5,2.3,2.9,5.5,2.9,8.9V106.7 M71.2,95.4c-1.3,0.9-3.2,2.4-4.5,3.4
	c-2,1.5-3,3.4-3,6.7c0,4.2,2.4,6.5,3.8,6.5c1,0,2.2-0.8,3.7-2.4V95.4z"/>
<path fill="#004990" d="M120.9,117.7h-15.8v-2.9c3.4-0.5,3.6-0.9,3.6-6.1V91.1c0-5.3-2-7.4-4.6-7.4c-1.7,0-3.8,1.2-5.7,3.3v21.7
	c0,5.2,0.3,5.5,3.2,6.1v2.9H85.4v-2.9c4.5-0.5,4.8-0.9,4.8-6.1V88.6c0-5.4-0.1-5.5-4.3-6.2V80c3.8-0.6,8.1-1.9,12.5-3.2v6.4
	c1.3-1.2,2.6-2.4,3.8-3.4c2.3-2,3.8-3,6.1-3c5.4,0,8.6,5.2,8.6,12.1v19.8c0,5.2,0.3,5.5,4,6.1V117.7"/>
<path fill="#004990" d="M153.5,108c0,4,0.4,4.6,2.2,4.6h2.6v2.8c-1.5,0.4-7.8,1.4-13,3.7v-5.2l-4.2,3.3c-1.7,1.4-2.6,1.6-3.4,1.6
	c-5.7,0-13.6-6.4-13.6-19.7c0-12.2,7.7-22.3,18.2-22.3c0.4,0,1.5,0.2,3,0.4V65.1c0-5.3-0.1-5.4-4.6-5.8v-2.6
	c3.1-0.6,8.5-1.9,12.8-3.2V108 M145.3,85.5c-1.1-3.4-3.2-4.7-5.2-4.7c-1.4,0-6.8,1.5-6.8,15.8c0,11.1,4.8,15.6,7.6,15.6
	c1.3,0,2.8-0.6,4.3-2.1V85.5z"/>
<path fill="#004990" d="M184.4,106.7c0,3.8,0.9,5.2,1.8,5.2c0.8,0,1.7-0.4,2.6-0.9l0.7,2.6l-7.2,5.2c-3.8,0-5.2-3.3-5.7-5.9
	c-2.8,2.4-6.3,5.9-7.5,5.9c-5.2,0-8.5-6-8.5-11.1c0-4.5,1.5-7.6,5.2-9.6c3.2-1.8,8.6-4.5,10.7-6.4v-3.3c0-4.7-1.8-6.8-4.4-6.8
	c-0.7,0-1.5,0.4-2.2,1.3c-1.1,1.4-1.9,3.9-2.4,7.4c-0.2,1.4-1.3,2.1-2.5,2.1c-1.3,0-4-1.8-4-4.3c0-1.5,0.8-3.2,2.3-4.8
	c2.2-2.4,6.5-5.3,11.6-6.5c2.7,0,4.8,0.8,6.4,2.4c2.5,2.3,2.9,5.5,2.9,8.9V106.7 M176.5,95.4c-1.3,0.9-3.2,2.4-4.5,3.4
	c-2,1.5-3,3.4-3,6.7c0,4.2,2.3,6.5,3.8,6.5c1,0,2.2-0.8,3.7-2.4V95.4z"/>
<path fill="#004990" d="M203.8,108.8c0,5.1,0.3,5.5,5.5,6.1v2.9h-18.2v-2.9c4.2-0.5,4.6-1,4.6-6.1v-20c0-5.5-0.1-5.6-4.4-6.2v-2.4
	c3.9-0.7,8.2-2,12.6-3.3v9h0.1c0.9-1.8,1.9-4,3.2-5.8c1.3-1.8,2.8-3.2,4.4-3.2c2.6,0,4.5,2.5,4.5,5.5c0,3-1.5,5.6-3.2,6.4
	c-0.9,0.4-1.5,0.2-2.1-0.4c-1.1-1.3-2.3-1.9-3.4-1.9c-1.1,0-2.5,0.6-3.6,4.4V108.8"/>
<path fill="#004990" d="M247.2,108c0,4,0.4,4.6,2.2,4.6h2.6v2.8c-1.5,0.4-7.8,1.4-13,3.7v-5.2l-4.2,3.3c-1.7,1.4-2.6,1.6-3.4,1.6
	c-5.7,0-13.6-6.4-13.6-19.7c0-12.2,7.7-22.3,18.2-22.3c0.4,0,1.5,0.2,2.9,0.4V65.1c0-5.3-0.1-5.4-4.6-5.8v-2.6
	c3.1-0.6,8.5-1.9,12.8-3.2V108 M239,85.5c-1.1-3.4-3.2-4.7-5.2-4.7c-1.4,0-6.8,1.5-6.8,15.8c0,11.1,4.8,15.6,7.6,15.6
	c1.3,0,2.8-0.6,4.3-2.1V85.5z"/>
<path fill="#004990" d="M142.9,135.3c1.1-0.3,1.3-0.4,1.4-0.6c0.1-0.1,0.1-0.3,0.1-0.4c0-1.6-0.8-2.2-1.9-2.2c-1.4,0-1.9,1-2.1,1.5
	c-0.1,0-0.2,0-0.3,0s-0.2,0-0.3,0c0.1-0.4,0.1-0.7,0.1-1c0-0.2,0-0.4,0-0.6c1.5-0.9,2-1.1,3-1.1c2.1,0,3.5,1,3.5,3.1
	c0,0.8-0.1,2.8-0.1,3.5c0,2,0,2.5,0.7,2.5c0.2,0,0.4-0.1,0.5-0.2c0,0.1-0.1,0.2-0.1,0.4c0,0.1,0,0.2,0.1,0.4
	c-0.5,0.2-1.1,0.4-1.6,0.4c-1.1,0-1.4-0.6-1.6-1.2c-0.6,0.8-1.6,1.4-2.6,1.4c-2.2,0-2.6-1.7-2.6-2.5c0-2.3,1.3-2.7,3.1-3.2
	L142.9,135.3 M144.3,135.8c-2.2,0.6-3,0.8-3,2.3c0,1.1,0.5,1.8,1.3,1.8c1,0,1.7-0.9,1.7-2V135.8z"/>
<path fill="#004990" d="M157.5,138.3c0,1,0.1,2.1,0.1,2.5c-0.4,0-0.8-0.1-1.2-0.1c-0.4,0-0.9,0.1-1.2,0.1c0.2-1,0.2-2.9,0.2-3.9
	c0-1.1,0-2.8-0.1-3.3c-0.2-1-1-1.4-1.8-1.4c-0.7,0-1.4,0.5-1.7,1.2c-0.3,0.6-0.3,2-0.3,2.7c0,1.9,0,3.2,0.1,4.6
	c-0.2,0-1-0.1-1.2-0.1c-0.4,0-0.8,0.1-1.2,0.1c0.2-2.7,0.2-3,0.2-5.5c0-2.6,0-2.9-0.2-4.4c0.2,0,0.6,0.1,1.3,0.1
	c0.5,0,0.7-0.1,1-0.1c-0.1,0.6-0.1,0.7-0.1,1.7c0.8-1.1,1.5-1.8,3-1.8c2.1,0,3.2,1.3,3.2,3.5C157.6,134.9,157.5,137.3,157.5,138.3"
	/>
<path fill="#004990" d="M166.8,139.4c-0.5,0.7-1.4,1.7-2.9,1.7c-2.5,0-4.2-2.2-4.2-5c0-3.4,1.9-5.2,4.3-5.2c1.4,0,2.1,0.7,2.7,1.3
	c0-2.6,0-4.9-0.2-6.6c0.4,0.1,0.8,0.1,1.4,0.1c0.4,0,0.8,0,1.1-0.1c-0.1,2.4-0.2,4.9-0.2,7.4c0,0.3,0,6.6,0.2,7.9
	c-0.2,0-0.6-0.1-1.1-0.1c-0.5,0-0.8,0.1-1.1,0.1L166.8,139.4 M166.8,135.9c0-2-0.5-3.9-2.3-3.9c-1.9,0-2.3,2.2-2.3,3.7
	c0,1.6,0.3,4.2,2.3,4.2C165.8,139.9,166.8,138.6,166.8,135.9z"/>
<path fill="#004990" d="M183.3,138.6l-0.8-2.2c-0.8,0-1.6-0.1-2.4-0.1c-0.8,0-1.5,0-2.3,0.1c-0.6,1.6-1.2,3.3-1.5,4.5
	c-0.3,0-0.6-0.1-0.9-0.1c-0.3,0-0.6,0.1-0.9,0.1l2.2-5.3c1.9-4.6,3-7.3,3.5-9c0.2,0.1,0.4,0.1,0.6,0.1c0.2,0,0.4,0,0.6-0.1
	c0.9,2.8,2.1,5.7,2.8,7.4c0.7,1.8,2,4.9,2.8,6.9c-0.3,0-1-0.1-1.5-0.1c-0.5,0-1.1,0.1-1.4,0.1L183.3,138.6 M180.2,130.1l-1.9,5.1
	c0.7,0,1.3,0.1,2,0.1c0.6,0,1.2,0,1.8-0.1L180.2,130.1z"/>
<path fill="#004990" d="M195.5,138.9c-0.3,0.4-0.3,0.9-0.4,1.4c-1.1,0.6-2.1,0.7-2.8,0.7c-3.2,0-4.8-2.5-4.8-5c0-2.7,1.6-5.3,5-5.3
	c1.2,0,1.9,0.3,2.9,0.7c-0.1,0.3-0.3,0.9-0.4,1.9h-0.4c0-0.1-0.4-1.7-2-1.7c-0.9,0-1.7,0.6-2,1.2c-0.5,0.8-0.6,1.7-0.6,2.8
	c0,2,0.6,4.2,2.8,4.2c1.1,0,1.6-0.5,2.3-1.2L195.5,138.9"/>
<path fill="#004990" d="M204.6,138.9c-0.3,0.4-0.3,0.9-0.4,1.4c-1.1,0.6-2.1,0.7-2.8,0.7c-3.2,0-4.8-2.5-4.8-5c0-2.7,1.6-5.3,5-5.3
	c1.2,0,1.9,0.3,2.9,0.7c-0.1,0.3-0.3,0.9-0.4,1.9h-0.4c0-0.1-0.4-1.7-2-1.7c-0.9,0-1.7,0.6-2,1.2c-0.5,0.8-0.6,1.7-0.6,2.8
	c0,2,0.6,4.2,2.8,4.2c1.1,0,1.6-0.5,2.3-1.2L204.6,138.9"/>
<path fill="#004990" d="M206.1,127.7c0-0.8,0.6-1.4,1.3-1.4c0.7,0,1.3,0.7,1.3,1.4c0,0.8-0.6,1.4-1.3,1.4
	C206.7,129.1,206.1,128.5,206.1,127.7 M206.3,138.6c0-1,0.1-1.8,0.1-2.5c0-1.5-0.1-3.7-0.2-5.1c0.4,0.1,0.7,0.1,1.3,0.1
	c0.6,0,0.9-0.1,1.2-0.1l0,0.9c0,0.9-0.1,2.8-0.1,3.5c0,0.9,0,3,0.1,3.7c0,0.3,0.1,1.4,0.1,1.7c-0.4-0.1-0.7-0.1-1.1-0.1
	c-0.4,0-0.9,0.1-1.3,0.1L206.3,138.6z"/>
<path fill="#004990" d="M217.8,139.4c-0.5,0.7-1.4,1.7-2.9,1.7c-2.5,0-4.2-2.2-4.2-5c0-3.4,1.9-5.2,4.3-5.2c1.4,0,2.1,0.7,2.7,1.3
	c0-2.6,0-4.9-0.2-6.6c0.4,0.1,0.8,0.1,1.4,0.1c0.4,0,0.8,0,1.1-0.1c-0.1,2.4-0.2,4.9-0.2,7.4c0,0.3,0,6.6,0.2,7.9
	c-0.2,0-0.6-0.1-1.1-0.1c-0.5,0-0.8,0.1-1.1,0.1L217.8,139.4 M217.7,135.9c0-2-0.5-3.9-2.3-3.9c-1.9,0-2.3,2.2-2.3,3.7
	c0,1.6,0.3,4.2,2.3,4.2C216.7,139.9,217.7,138.6,217.7,135.9z"/>
<path fill="#004990" d="M224.2,136c0,0.8,0,3.9,3,3.9c0.9,0,2.1-0.5,2.7-1.3l0.2,0.1c-0.1,0.1-0.1,0.3-0.2,0.4l-0.2,0.9
	c-0.1,0.2-1.4,1-3.2,1c-0.7,0-2.4-0.2-3.5-1.4c-1.3-1.4-1.3-3.2-1.3-3.9c0-3.4,2.2-5,4.4-5c0.7,0,2.6,0,3.6,1.9
	c0.3,0.7,0.6,1.7,0.6,3.3H224.2 M228.3,135c0-1,0-3.3-1.9-3.3c-2,0-2.1,2.5-2.1,3.3H228.3z"/>
<path fill="#004990" d="M240.8,138.3c0,1,0.1,2.1,0.1,2.5c-0.4,0-0.8-0.1-1.2-0.1c-0.4,0-0.9,0.1-1.2,0.1c0.2-1,0.2-2.9,0.2-3.9
	c0-1.1,0-2.8-0.1-3.3c-0.2-1-1-1.4-1.8-1.4c-0.7,0-1.4,0.5-1.7,1.2c-0.3,0.6-0.3,2-0.3,2.7c0,1.9,0,3.2,0.1,4.6
	c-0.2,0-1-0.1-1.2-0.1c-0.4,0-0.8,0.1-1.2,0.1c0.2-2.7,0.2-3,0.2-5.5c0-2.6,0-2.9-0.2-4.4c0.2,0,0.6,0.1,1.3,0.1
	c0.5,0,0.7-0.1,1.1-0.1c-0.1,0.6-0.1,0.7-0.1,1.7c0.8-1.1,1.5-1.8,3-1.8c2.1,0,3.2,1.3,3.2,3.5C240.9,134.9,240.8,137.3,240.8,138.3
	"/>
<path fill="#004990" d="M246.4,127.4c-0.1,0.3-0.1,0.6-0.1,3.7c0.9,0,1,0,1.3,0l0.7-0.1c0,0.2-0.1,0.3-0.1,0.5c0,0.2,0,0.4,0.1,0.6
	c-0.8-0.1-1-0.1-2.1-0.1c0,0.9-0.1,3.1-0.1,3.9c0,3,0.1,3.9,1.4,3.9c0.4,0,0.8-0.1,1.1-0.4c0,0.1-0.1,0.3-0.1,0.5
	c0,0.2,0,0.3,0.1,0.5c-0.6,0.3-1.5,0.6-2.2,0.6c-0.5,0-1.3-0.2-1.7-0.5c-0.6-0.6-0.8-1.5-0.8-2.3c0-0.9,0.1-4.5,0.1-6.1h-0.6
	c-0.4,0-0.7,0-0.9,0.1c0-0.1,0.1-0.2,0.1-0.4c0-0.2,0-0.4-0.1-0.7c0.1,0,0.4,0.1,0.6,0.1h0.8c0-0.6,0-1.4,0-2.3
	c1.1-0.5,1.8-1.1,2.2-1.4L246.4,127.4"/>
<path fill="#004990" d="M80.4,147.3c0.4,0,1.1,0.1,1.4,0.1c0.4,0,0.9-0.1,1.4-0.1c-0.2,1.5-0.2,5.1-0.2,7.1c0,3.1,0,5.3,0.2,6.9
	c-0.4,0-0.9-0.1-1.3-0.1c-0.4,0-1,0.1-1.4,0.1c0.2-2.4,0.2-5.8,0.2-9.4C80.6,150.8,80.6,149.3,80.4,147.3"/>
<path fill="#004990" d="M94.2,158.9c0,1,0.1,2.1,0.1,2.5c-0.4,0-0.8-0.1-1.2-0.1c-0.4,0-0.9,0.1-1.2,0.1c0.2-1,0.2-2.9,0.2-3.9
	c0-1.1,0-2.8-0.1-3.3c-0.2-1-1-1.4-1.8-1.4c-0.7,0-1.4,0.5-1.7,1.2c-0.3,0.6-0.3,2-0.3,2.7c0,1.9,0,3.2,0.1,4.6
	c-0.2,0-1-0.1-1.2-0.1c-0.4,0-0.8,0.1-1.2,0.1c0.2-2.7,0.2-3,0.2-5.5c0-2.6,0-2.9-0.2-4.4c0.2,0,0.6,0.1,1.3,0.1
	c0.5,0,0.7-0.1,1.1-0.1c-0.1,0.6-0.1,0.7-0.1,1.7c0.8-1.1,1.5-1.8,3-1.8c2.1,0,3.2,1.3,3.2,3.5C94.3,155.5,94.2,157.9,94.2,158.9"/>
<path fill="#004990" d="M97,159.1c0.2,0.4,0.6,1.6,2.3,1.6c1,0,1.4-0.7,1.4-1.5c0-0.9-0.7-1.1-1.6-1.5c-0.2-0.1-1.1-0.4-1.3-0.5
	c-0.4-0.2-1.5-0.7-1.5-2.6c0-1.8,1.2-3.2,3.3-3.2c1.1,0,2,0.4,2.6,0.6c-0.4,0.8-0.4,1.4-0.5,1.8h-0.3c-0.3-0.7-0.7-1.4-1.8-1.4
	c-0.9,0-1.5,0.5-1.5,1.4c0,0.9,0.6,1.1,2.1,1.6c1.2,0.4,2.6,0.9,2.6,2.9c0,1.3-0.9,3.4-3.7,3.4c-1.1,0-1.9-0.4-2.8-0.8
	c0.1-0.2,0.2-0.5,0.3-0.9c0.1-0.3,0.1-0.7,0.1-0.9H97"/>
<path fill="#004990" d="M104.7,153.7c0-0.9,0-1.3-0.1-2.2c0.4,0.1,0.8,0.1,1.2,0.1c0.4,0,0.8,0,1.2-0.1c-0.2,0.9-0.2,3.6-0.2,4.5
	c0,0.6,0,2.3,0.1,2.8c0.2,0.8,0.9,1.3,1.7,1.3c1.2,0,1.7-0.9,1.8-1.2c0.3-0.5,0.3-1.7,0.3-2.5c0-1.4,0-3.6-0.1-4.9
	c0.3,0.1,0.7,0.1,1.1,0.1c0.3,0,0.6,0,1.3-0.1c-0.1,1.8-0.2,3.7-0.2,5.5c0,2.6,0.1,3.2,0.2,4.4c-0.5,0-0.9-0.1-1.2-0.1
	c-0.4,0-0.7,0.1-1.1,0.1c0.1-0.8,0.1-0.8,0.1-1.7c-0.5,0.7-1.4,1.9-3.1,1.9c-1.1,0-2.1-0.6-2.7-1.6c-0.4-0.7-0.4-1.7-0.4-2
	C104.6,156.6,104.7,155.1,104.7,153.7"/>
<path fill="#004990" d="M115.6,159.4c0-0.9,0-2.5,0-3.3c0-2.2,0-2.8-0.1-4.6c0.4,0.1,0.8,0.1,1.3,0.1c0.5,0,0.8,0,1.1-0.1
	c-0.1,1-0.1,1.2-0.1,2.2c0.5-0.9,1.3-2.3,2.8-2.3c0.2,0,0.3,0,0.5,0.1c-0.2,0.3-0.2,1.2-0.2,1.5c0,0.3,0,0.6,0.1,0.9l-0.1,0.1
	c-0.3-0.3-1-0.3-1.1-0.3c-0.9,0-1.5,0.6-1.7,1.1c-0.1,0.3-0.2,0.6-0.2,2c0,1.3,0.1,3.3,0.2,4.6c-0.2,0-0.7-0.1-1.1-0.1
	c-0.3,0-0.7,0.1-1.3,0.1L115.6,159.4"/>
<path fill="#004990" d="M125.7,155.8c1.1-0.3,1.3-0.4,1.4-0.6c0.1-0.1,0.1-0.3,0.1-0.4c0-1.6-0.8-2.2-1.9-2.2c-1.5,0-2,1-2.1,1.5
	c-0.1,0-0.2,0-0.3,0c-0.1,0-0.2,0-0.3,0c0.1-0.4,0.1-0.7,0.1-1c0-0.2,0-0.4,0-0.6c1.5-0.9,2-1.1,3-1.1c2.1,0,3.5,1,3.5,3.1
	c0,0.8-0.1,2.8-0.1,3.5c0,2,0,2.5,0.7,2.5c0.2,0,0.4-0.1,0.5-0.2c0,0.1-0.1,0.2-0.1,0.4c0,0.1,0,0.2,0.1,0.4
	c-0.5,0.2-1.1,0.4-1.6,0.4c-1.1,0-1.4-0.6-1.6-1.3c-0.6,0.8-1.6,1.4-2.6,1.4c-2.2,0-2.6-1.7-2.6-2.5c0-2.3,1.3-2.7,3.1-3.2
	L125.7,155.8 M127.1,156.3c-2.2,0.6-3,0.8-3,2.3c0,1.1,0.5,1.8,1.3,1.8c1,0,1.7-0.9,1.7-2V156.3z"/>
<path fill="#004990" d="M140.3,158.9c0,1,0.1,2.1,0.1,2.5c-0.4,0-0.8-0.1-1.2-0.1s-0.9,0.1-1.2,0.1c0.2-1,0.2-2.9,0.2-3.9
	c0-1.1,0-2.8-0.1-3.3c-0.2-1-1-1.4-1.8-1.4c-0.7,0-1.4,0.5-1.7,1.2c-0.3,0.6-0.3,2-0.3,2.7c0,1.9,0,3.2,0.1,4.6
	c-0.2,0-1-0.1-1.2-0.1c-0.4,0-0.8,0.1-1.2,0.1c0.2-2.7,0.2-3,0.2-5.5c0-2.6,0-2.9-0.2-4.4c0.2,0,0.6,0.1,1.3,0.1
	c0.5,0,0.7-0.1,1.1-0.1c-0.1,0.6-0.1,0.7-0.1,1.7c0.8-1.1,1.5-1.8,3-1.8c2.1,0,3.2,1.3,3.2,3.5C140.4,155.5,140.3,157.9,140.3,158.9
	"/>
<path fill="#004990" d="M150.5,159.5c-0.3,0.4-0.3,0.9-0.4,1.4c-1.1,0.6-2.1,0.7-2.8,0.7c-3.2,0-4.8-2.5-4.8-5c0-2.7,1.6-5.3,5-5.3
	c1.2,0,1.9,0.3,2.9,0.7c-0.1,0.3-0.3,0.9-0.4,1.9h-0.4c0-0.1-0.4-1.7-2-1.7c-0.9,0-1.7,0.6-2,1.2c-0.5,0.8-0.6,1.7-0.6,2.8
	c0,2,0.6,4.2,2.9,4.2c1.1,0,1.6-0.5,2.3-1.2L150.5,159.5"/>
<path fill="#004990" d="M154,156.6c0,0.8,0,3.9,3,3.9c0.9,0,2.1-0.5,2.7-1.3l0.2,0.1c-0.1,0.1-0.1,0.3-0.2,0.4l-0.2,0.9
	c-0.1,0.2-1.4,1-3.2,1c-0.7,0-2.4-0.2-3.5-1.4c-1.3-1.4-1.3-3.2-1.3-3.9c0-3.4,2.2-5,4.4-5c0.7,0,2.6,0,3.6,1.9
	c0.3,0.7,0.6,1.7,0.6,3.3H154 M158,155.6c0-1,0-3.3-1.9-3.3c-2,0-2.1,2.5-2.1,3.3H158z"/>
<path fill="#004990" d="M178.3,150.2h-0.2c-0.2-0.5-0.9-1.9-3.7-1.9c-3.2,0-4.9,2.3-4.9,6.1c0,0.7,0,2.6,1.2,4.3
	c0.7,1,1.7,1.9,3.5,1.9c2.3,0,3.6-1.2,4.4-2.3l0.2,0.1l-0.2,2c-1.5,0.9-3.1,1.3-4.8,1.3c-3.7,0-6.8-2.5-6.8-7.1
	c0-4.1,2.4-7.4,7.5-7.4c1.6,0,2.9,0.3,4.5,1L178.3,150.2"/>
<path fill="#004990" d="M185,151.4c2.9,0,4.8,1.8,4.8,5.1c0,3.2-1.9,5.1-4.8,5.1c-2.9,0-4.8-1.9-4.8-5.1
	C180.2,153.4,182.1,151.4,185,151.4 M185,160.8c2.1,0,2.4-2.6,2.4-4.3c0-1.7-0.3-4.3-2.4-4.3c-2.1,0-2.4,2.6-2.4,4.3
	C182.6,158.3,182.9,160.8,185,160.8z"/>
<path fill="#004990" d="M194.3,161.4c-0.4,0-0.7-0.1-1.1-0.1c-0.5,0-1.1,0.1-1.3,0.1c0.1-2.2,0.1-2.6,0.1-5.4c0-2.2-0.1-3.3-0.2-4.4
	c0.4,0.1,0.8,0.1,1.3,0.1c0.5,0,0.7-0.1,1-0.1c-0.1,0.5-0.1,0.6-0.1,1.8c0.7-1.2,1.6-1.9,2.9-1.9c2,0,2.5,1.2,2.8,1.9
	c0.6-1,1.6-1.9,3.1-1.9c2.2,0,2.9,1.8,2.9,2.9c0,0.8-0.1,2.2-0.1,3c0,0.9,0,3.3,0.1,4c-0.5,0-0.9-0.1-1.2-0.1c-0.4,0-1,0.1-1.2,0.1
	c0.1-1,0.2-2.5,0.2-3.6c0-0.5,0-2.4,0-2.7c0-0.6-0.2-2.1-1.6-2.1c-2,0-2,2.1-2,4.7c0,1.3,0.1,2.5,0.1,3.8c-0.4,0-0.8-0.1-1.2-0.1
	c-0.4,0-0.7,0.1-1.2,0.1c0.2-1.2,0.2-3.4,0.2-4c0-1.4,0-2.7-0.1-3.2c-0.2-0.7-0.6-1.3-1.7-1.3c-0.7,0-1.3,0.5-1.6,1.2
	c-0.3,0.6-0.3,2-0.3,2.9C194.2,158.5,194.2,160,194.3,161.4"/>
<path fill="#004990" d="M210.6,153c0.5-0.8,1.4-1.7,3-1.7c2.6,0,4.1,2.5,4.1,5.1c0,2.4-1.2,5.1-4.3,5.1c-1.5,0-2.1-0.7-2.7-1.3
	c0,3,0.1,4.8,0.2,6.6c-0.4-0.1-0.6-0.1-1.3-0.1c-0.5,0-0.7,0-1.2,0.1c0.2-2.5,0.2-6.4,0.2-7.7c0-2.2,0-5.4-0.2-7.5
	c0.4,0,0.8,0.1,1.2,0.1c0.4,0,0.7-0.1,1-0.1L210.6,153 M212.9,152.5c-1.9,0-2.3,2.4-2.3,4c0,1.8,0.4,4,2.4,4c1.8,0,2.2-2.4,2.2-3.9
	C215.3,155.4,215.1,152.5,212.9,152.5z"/>
<path fill="#004990" d="M222.9,155.8c1.1-0.3,1.3-0.4,1.4-0.6c0.1-0.1,0.1-0.3,0.1-0.4c0-1.6-0.8-2.2-1.9-2.2c-1.5,0-2,1-2.1,1.5
	c-0.1,0-0.2,0-0.3,0c-0.1,0-0.2,0-0.3,0c0.1-0.4,0.1-0.7,0.1-1c0-0.2,0-0.4,0-0.6c1.4-0.9,2-1.1,3-1.1c2.1,0,3.5,1,3.5,3.1
	c0,0.8-0.1,2.8-0.1,3.5c0,2,0,2.5,0.7,2.5c0.2,0,0.4-0.1,0.5-0.2c0,0.1-0.1,0.2-0.1,0.4c0,0.1,0,0.2,0.1,0.4
	c-0.5,0.2-1.1,0.4-1.6,0.4c-1.1,0-1.4-0.6-1.6-1.3c-0.6,0.8-1.6,1.4-2.6,1.4c-2.2,0-2.6-1.7-2.6-2.5c0-2.3,1.3-2.7,3.1-3.2
	L222.9,155.8 M224.3,156.3c-2.2,0.6-3,0.8-3,2.3c0,1.1,0.5,1.8,1.3,1.8c1,0,1.7-0.9,1.7-2V156.3z"/>
<path fill="#004990" d="M237.5,158.9c0,1,0.1,2.1,0.1,2.5c-0.4,0-0.8-0.1-1.2-0.1c-0.4,0-0.9,0.1-1.2,0.1c0.2-1,0.2-2.9,0.2-3.9
	c0-1.1,0-2.8-0.1-3.3c-0.2-1-1-1.4-1.8-1.4c-0.7,0-1.4,0.5-1.7,1.2c-0.3,0.6-0.3,2-0.3,2.7c0,1.9,0,3.2,0.1,4.6
	c-0.2,0-1-0.1-1.2-0.1c-0.4,0-0.8,0.1-1.2,0.1c0.2-2.7,0.2-3,0.2-5.5c0-2.6,0-2.9-0.2-4.4c0.2,0,0.6,0.1,1.3,0.1
	c0.5,0,0.7-0.1,1.1-0.1c-0.1,0.6-0.1,0.7-0.1,1.7c0.8-1.1,1.5-1.8,3-1.8c2.1,0,3.2,1.3,3.2,3.5C237.6,155.5,237.5,157.9,237.5,158.9
	"/>
<path fill="#004990" d="M243.9,158.8l0.3-0.9c0.4-1.1,1.3-3.9,1.3-4c0.2-0.7,0.5-1.7,0.7-2.4c0.3,0.1,0.5,0.1,0.8,0.1
	c0.3,0,0.6-0.1,0.9-0.1c-1,2.1-5.3,12.4-5.9,15.2c-0.3-0.1-0.5-0.1-0.9-0.1c-0.3,0-0.6,0-0.9,0.1l0.3-0.5c0.4-0.7,1.7-3.4,2.1-4.4
	c-0.2-0.6-0.3-1-1.9-4.8l-2.3-5.4c0.7,0.1,1,0.1,1.3,0.1s0.7,0,1.3-0.1c0.2,0.8,1.5,4.4,1.7,4.9L243.9,158.8"/>
<path fill="#004990" d="M7.9,185.2L7.2,183c-0.7,0-1.5-0.1-2.2-0.1c-0.7,0-1.4,0-2.1,0.1c-0.5,1.6-1.1,3.3-1.4,4.5
	c-0.2,0-0.5-0.1-0.8-0.1c-0.3,0-0.5,0.1-0.8,0.1l2-5.3c1.7-4.6,2.7-7.3,3.1-9c0.2,0.1,0.4,0.1,0.6,0.1c0.2,0,0.4,0,0.5-0.1
	c0.8,2.8,1.8,5.7,2.5,7.4c0.6,1.8,1.8,4.9,2.5,6.9c-0.3,0-0.9-0.1-1.3-0.1c-0.5,0-1,0.1-1.3,0.1L7.9,185.2 M5.1,176.7l-1.7,5.1
	c0.6,0,1.2,0.1,1.8,0.1c0.5,0,1,0,1.6-0.1L5.1,176.7z"/>
<path fill="#004990" d="M19.2,174.7c1.1,2.8,1.6,3.9,3.2,7.4l0.9,2l0.6-1.3c1.6-3.4,2.4-5.1,4.1-9.3c0.1,0,0.3,0.1,0.4,0.1
	c0.1,0,0.2,0,0.4-0.1l0.1,1.7c0.2,2.4,0.4,4.7,0.7,7.1c0.1,1.2,0.5,4.2,0.7,5.2c-0.4-0.1-1-0.1-1.2-0.1c-0.3,0-0.6,0-1.2,0.1
	l-0.1-0.8c0-0.4-0.1-2.2-0.2-2.6c-0.1-0.9-0.5-5.1-0.5-6c-1.1,2.3-3.1,6.5-4.1,9.3c-0.1,0-0.2,0-0.3,0c-0.1,0-0.2,0-0.3,0
	c-0.6-1.6-1.1-2.4-2.4-5.4c-0.3-0.6-1.5-3.2-1.7-3.7c-0.3,2.9-0.6,6-0.7,9.1c-0.3-0.1-0.6-0.1-0.8-0.1c-0.3,0-0.5,0.1-0.7,0.1
	l0.1-0.6c0.4-2.5,1.4-11.1,1.6-13.5c0.1,0,0.3,0.1,0.4,0.1c0.1,0,0.3,0,0.4-0.1L19.2,174.7"/>
<path fill="#004990" d="M33.8,182.6c0,0.8,0,3.9,2.7,3.9c0.8,0,1.9-0.5,2.4-1.3l0.2,0.1c-0.1,0.1-0.1,0.3-0.1,0.4l-0.2,0.9
	c-0.1,0.2-1.2,1.1-2.9,1.1c-0.6,0-2.2-0.2-3.1-1.4c-1.1-1.4-1.1-3.2-1.1-3.9c0-3.4,1.9-5,4-5c0.6,0,2.4,0,3.2,1.9
	c0.3,0.7,0.5,1.7,0.5,3.3H33.8 M37.4,181.6c0-1,0-3.3-1.7-3.3c-1.8,0-1.9,2.5-1.9,3.3H37.4z"/>
<path fill="#004990" d="M43.4,187.5c-0.3,0-0.6-0.1-1-0.1c-0.4,0-1,0.1-1.1,0.1c0.1-2.2,0.1-2.6,0.1-5.4c0-2.2-0.1-3.3-0.1-4.4
	c0.4,0.1,0.7,0.1,1.2,0.1c0.4,0,0.7-0.1,0.9-0.1c-0.1,0.5-0.1,0.6-0.1,1.8c0.6-1.2,1.4-1.9,2.6-1.9c1.8,0,2.3,1.2,2.5,1.9
	c0.6-1,1.4-1.9,2.8-1.9c2,0,2.6,1.8,2.6,2.9c0,0.8-0.1,2.2-0.1,3c0,0.9,0,3.3,0.1,4c-0.5,0-0.8-0.1-1.1-0.1c-0.3,0-0.9,0.1-1.1,0.1
	c0.1-1,0.1-2.5,0.1-3.6c0-0.4,0-2.4,0-2.7c0-0.6-0.1-2.1-1.5-2.1c-1.8,0-1.8,2.1-1.8,4.7c0,1.3,0.1,2.5,0.1,3.8
	c-0.3,0-0.7-0.1-1-0.1c-0.3,0-0.6,0.1-1.1,0.1c0.1-1.2,0.1-3.4,0.1-4c0-1.4,0-2.7-0.1-3.2c-0.2-0.7-0.6-1.3-1.5-1.3
	c-0.7,0-1.2,0.5-1.5,1.2c-0.2,0.6-0.2,2-0.2,2.9C43.3,184.5,43.3,186,43.4,187.5"/>
<path fill="#004990" d="M60.3,187.7c-1,0-1.9-0.2-2.7-1.4c-0.5,0.4-0.6,0.5-1.1,1.2H56c0.1-2.1,0.2-3.3,0.2-7.4c0-2.7,0-4-0.2-7.8
	c0.3,0.1,0.7,0.1,1.1,0.1c0.5,0,0.8-0.1,1-0.1c-0.1,2.3-0.1,2.7-0.1,6.9c0.6-1.1,1.5-1.7,2.6-1.7c1.7,0,3.6,1.4,3.6,4.9
	C64.2,185.1,62.8,187.7,60.3,187.7 M62.1,182.5c0-1.4-0.2-3.8-2.1-3.8c-1.8,0-2.1,2.4-2.1,4c0,1.3,0.1,4,2,4
	C61.8,186.8,62.1,184.3,62.1,182.5z"/>
<path fill="#004990" d="M67.8,182.6c0,0.8,0,3.9,2.7,3.9c0.8,0,1.9-0.5,2.4-1.3l0.2,0.1c-0.1,0.1-0.1,0.3-0.1,0.4l-0.2,0.9
	c-0.1,0.2-1.2,1.1-2.9,1.1c-0.6,0-2.2-0.2-3.1-1.4c-1.1-1.4-1.1-3.2-1.1-3.9c0-3.4,2-5,4-5c0.6,0,2.4,0,3.2,1.9
	c0.3,0.7,0.5,1.7,0.5,3.3H67.8 M71.5,181.6c0-1,0-3.3-1.7-3.3c-1.8,0-1.9,2.5-1.9,3.3H71.5z"/>
<path fill="#004990" d="M75.4,185.5c0-0.9,0-2.5,0-3.3c0-2.2,0-2.8-0.1-4.6c0.4,0.1,0.7,0.1,1.1,0.1c0.4,0,0.7,0,1-0.1
	c-0.1,1-0.1,1.2-0.1,2.2c0.5-0.9,1.1-2.3,2.5-2.3c0.2,0,0.3,0,0.4,0.1c-0.1,0.3-0.2,1.2-0.2,1.5c0,0.3,0,0.6,0.1,0.9l-0.1,0.1
	c-0.3-0.3-0.9-0.3-1-0.3c-0.8,0-1.3,0.6-1.5,1.1c-0.1,0.3-0.2,0.6-0.2,2c0,1.3,0.1,3.3,0.2,4.6c-0.2,0-0.6-0.1-1-0.1
	c-0.3,0-0.7,0.1-1.2,0.1L75.4,185.5"/>
<path fill="#004990" d="M89.9,177.5c2.6,0,4.3,1.8,4.3,5.1c0,3.2-1.7,5.1-4.3,5.1c-2.6,0-4.3-1.9-4.3-5.1
	C85.6,179.4,87.3,177.5,89.9,177.5 M89.9,186.9c1.9,0,2.2-2.6,2.2-4.3c0-1.7-0.3-4.3-2.2-4.3c-1.9,0-2.1,2.6-2.1,4.3
	C87.7,184.3,88,186.9,89.9,186.9z"/>
<path fill="#004990" d="M100.3,174.5c-0.5-0.4-1.1-0.4-1.3-0.4c-0.3,0-1.1,0-1.1,1.3c0,0.6,0.3,1.8,0.5,2.4c0.8,0,0.9,0,1.2,0
	l0.6-0.1c0,0.2-0.1,0.3-0.1,0.6c0,0.2,0,0.4,0.1,0.6c-0.3-0.1-0.5-0.1-1.8-0.1v1.1c0,0.5,0,5.8,0.2,7.6c-0.3,0-0.8-0.1-1.1-0.1
	c-0.4,0-0.8,0.1-1.1,0.1c0.1-0.6,0.1-0.9,0.1-2.1c0-1.6,0-2.6,0-3.6c0-1,0-2.6,0-3H96c-0.3,0-0.5,0-0.7,0.1c0-0.2,0.1-0.4,0.1-0.6
	c0-0.1,0-0.3-0.1-0.6c0.8,0.1,0.2,0.1,1.3,0.1c0.1-1.5,0.2-2.2,0.7-3.4c0.2-0.4,1-2.2,2.7-2.2c0.1,0,0.1,0,0.5,0.1
	c-0.1,0.3-0.1,0.7-0.1,1c0,0.4,0,0.8,0,1.1L100.3,174.5"/>
<path fill="#004990" d="M108.3,174.1c-0.1,0.3-0.1,0.6-0.1,3.7c0.8,0,0.9,0,1.2,0l0.6-0.1c0,0.2-0.1,0.3-0.1,0.5
	c0,0.2,0,0.4,0.1,0.6c-0.7-0.1-0.9-0.1-1.9-0.1c0,0.9-0.1,3.1-0.1,3.9c0,3,0.1,3.9,1.2,3.9c0.4,0,0.7-0.1,1-0.4
	c0,0.1-0.1,0.3-0.1,0.5c0,0.2,0,0.3,0.1,0.5c-0.5,0.3-1.4,0.6-1.9,0.6c-0.5,0-1.1-0.2-1.5-0.5c-0.6-0.6-0.7-1.5-0.7-2.3
	c0-0.9,0.1-4.5,0.1-6.1h-0.5c-0.3,0-0.6,0-0.8,0.1c0-0.1,0.1-0.2,0.1-0.5c0-0.2,0-0.4-0.1-0.7c0.1,0,0.4,0.1,0.6,0.1h0.8
	c0-0.6,0-1.4,0-2.3c1-0.5,1.6-1.1,2-1.4L108.3,174.1"/>
<path fill="#004990" d="M113.5,172.9c-0.1,2.3-0.1,3.8-0.1,6.3c0.7-1.2,1.7-1.7,2.7-1.7c0.9,0,1.8,0.3,2.4,1.4
	c0.4,0.7,0.4,1.6,0.4,2.5c0,0.5,0,1.6,0,2.2c0,1.1,0.1,3,0.1,3.9c-0.3-0.1-0.7-0.1-1.1-0.1c-0.4,0-0.9,0.1-1.1,0.1
	c0.1-1.2,0.2-2.9,0.2-4.3c0-1.9,0-2.4-0.1-2.9c-0.2-0.8-0.8-1.3-1.5-1.3c-0.6,0-1.4,0.3-1.7,1.3c-0.1,0.5-0.2,1-0.2,2.4
	c0,2.7,0,2.9,0.1,4.7c-0.3-0.1-0.7-0.1-1.1-0.1c-0.4,0-0.9,0.1-1,0.1c0.1-2.8,0.1-3.7,0.1-8l0-4c0-0.8-0.1-2.1-0.1-3.2
	c0.3,0.1,0.7,0.1,1.2,0.1c0.4,0,0.7,0,1-0.1L113.5,172.9"/>
<path fill="#004990" d="M122.8,182.6c0,0.8,0,3.9,2.7,3.9c0.8,0,1.9-0.5,2.4-1.3l0.2,0.1c-0.1,0.1-0.1,0.3-0.1,0.4l-0.2,0.9
	c-0.1,0.2-1.2,1.1-2.9,1.1c-0.6,0-2.2-0.2-3.1-1.4c-1.1-1.4-1.1-3.2-1.1-3.9c0-3.4,1.9-5,4-5c0.6,0,2.4,0,3.2,1.9
	c0.3,0.7,0.5,1.7,0.5,3.3H122.8 M126.5,181.6c0-1,0-3.3-1.7-3.3c-1.8,0-1.9,2.5-1.9,3.3H126.5z"/>
<path fill="#004990" d="M141,185.2l-0.7-2.2c-0.7,0-1.5-0.1-2.2-0.1c-0.7,0-1.4,0-2.1,0.1c-0.5,1.6-1.1,3.3-1.4,4.5
	c-0.2,0-0.5-0.1-0.8-0.1c-0.3,0-0.5,0.1-0.8,0.1l2-5.3c1.7-4.6,2.7-7.3,3.1-9c0.2,0.1,0.4,0.1,0.6,0.1c0.2,0,0.4,0,0.5-0.1
	c0.8,2.8,1.8,5.7,2.5,7.4c0.6,1.8,1.8,4.9,2.5,6.9c-0.3,0-0.9-0.1-1.3-0.1c-0.5,0-1,0.1-1.3,0.1L141,185.2 M138.1,176.7l-1.7,5.1
	c0.6,0,1.2,0.1,1.8,0.1c0.5,0,1,0,1.6-0.1L138.1,176.7z"/>
<path fill="#004990" d="M147.4,187.5c-0.3,0-0.6-0.1-1-0.1c-0.4,0-1,0.1-1.1,0.1c0.1-2.2,0.1-2.6,0.1-5.4c0-2.2-0.1-3.3-0.1-4.4
	c0.4,0.1,0.7,0.1,1.2,0.1c0.4,0,0.6-0.1,0.9-0.1c-0.1,0.5-0.1,0.6-0.1,1.8c0.6-1.2,1.4-1.9,2.6-1.9c1.8,0,2.3,1.2,2.5,1.9
	c0.6-1,1.4-1.9,2.8-1.9c1.9,0,2.6,1.8,2.6,2.9c0,0.8,0,2.2,0,3c0,0.9,0,3.3,0.1,4c-0.5,0-0.8-0.1-1.1-0.1c-0.3,0-0.9,0.1-1.1,0.1
	c0.1-1,0.1-2.5,0.1-3.6c0-0.4,0-2.4,0-2.7c0-0.6-0.1-2.1-1.5-2.1c-1.8,0-1.8,2.1-1.8,4.7c0,1.3,0.1,2.5,0.1,3.8
	c-0.3,0-0.7-0.1-1-0.1c-0.3,0-0.6,0.1-1.1,0.1c0.1-1.2,0.1-3.4,0.1-4c0-1.4,0-2.7-0.1-3.2c-0.2-0.7-0.6-1.3-1.5-1.3
	c-0.6,0-1.2,0.5-1.5,1.2c-0.2,0.6-0.2,2-0.2,2.9C147.3,184.5,147.3,186,147.4,187.5"/>
<path fill="#004990" d="M161.8,182.6c0,0.8,0,3.9,2.7,3.9c0.8,0,1.9-0.5,2.4-1.3l0.2,0.1c-0.1,0.1-0.1,0.3-0.1,0.4l-0.2,0.9
	c-0.1,0.2-1.2,1.1-2.9,1.1c-0.6,0-2.2-0.2-3.1-1.4c-1.1-1.4-1.1-3.2-1.1-3.9c0-3.4,2-5,4-5c0.6,0,2.4,0,3.2,1.9
	c0.3,0.7,0.5,1.7,0.5,3.3H161.8 M165.4,181.6c0-1,0-3.3-1.7-3.3c-1.8,0-1.9,2.5-1.9,3.3H165.4z"/>
<path fill="#004990" d="M169.4,185.5c0-0.9,0-2.5,0-3.3c0-2.2,0-2.8-0.1-4.6c0.4,0.1,0.7,0.1,1.1,0.1c0.4,0,0.7,0,1-0.1
	c-0.1,1-0.1,1.2-0.1,2.2c0.5-0.9,1.1-2.3,2.5-2.3c0.2,0,0.3,0,0.4,0.1c-0.1,0.3-0.2,1.2-0.2,1.5c0,0.3,0,0.6,0.1,0.9L174,180
	c-0.3-0.3-0.9-0.3-1-0.3c-0.8,0-1.3,0.6-1.5,1.1c-0.1,0.3-0.2,0.6-0.2,2c0,1.3,0.1,3.3,0.2,4.6c-0.2,0-0.6-0.1-1-0.1
	c-0.3,0-0.7,0.1-1.2,0.1L169.4,185.5"/>
<path fill="#004990" d="M175.6,174.3c0-0.8,0.5-1.4,1.2-1.4c0.6,0,1.2,0.7,1.2,1.4c0,0.8-0.6,1.4-1.2,1.4
	C176.1,175.7,175.6,175.1,175.6,174.3 M175.8,185.3c0-1,0.1-1.8,0.1-2.5c0-1.5-0.1-3.7-0.2-5.1c0.3,0.1,0.6,0.1,1.1,0.1
	c0.5,0,0.8-0.1,1.1-0.1l0,0.9c0,0.9-0.1,2.8-0.1,3.5c0,0.9,0,3,0,3.7c0,0.3,0.1,1.4,0.1,1.7c-0.3-0.1-0.6-0.1-1-0.1
	c-0.4,0-0.8,0.1-1.2,0.1L175.8,185.3z"/>
<path fill="#004990" d="M186.8,185.5c-0.2,0.4-0.3,0.9-0.3,1.4c-0.9,0.6-1.9,0.7-2.5,0.7c-2.8,0-4.3-2.5-4.3-5
	c0-2.7,1.4-5.3,4.5-5.3c1,0,1.7,0.3,2.6,0.7c-0.1,0.3-0.3,0.9-0.4,1.9h-0.3c0-0.1-0.3-1.7-1.8-1.7c-0.8,0-1.5,0.6-1.8,1.2
	c-0.4,0.8-0.5,1.7-0.5,2.8c0,2,0.6,4.2,2.5,4.2c1,0,1.5-0.5,2.1-1.2L186.8,185.5"/>
<path fill="#004990" d="M191.4,181.9c1-0.3,1.1-0.4,1.2-0.6c0.1-0.1,0.1-0.3,0.1-0.4c0-1.6-0.7-2.2-1.7-2.2c-1.3,0-1.7,1-1.8,1.5
	c-0.1,0-0.2,0-0.3,0c-0.1,0-0.2,0-0.3,0c0.1-0.4,0.1-0.7,0.1-1c0-0.2,0-0.4,0-0.6c1.3-0.9,1.8-1.1,2.7-1.1c1.8,0,3.1,1,3.1,3.1
	c0,0.8-0.1,2.8-0.1,3.5c0,2,0,2.5,0.6,2.5c0.2,0,0.3-0.1,0.5-0.2c0,0.1-0.1,0.3-0.1,0.4c0,0.1,0,0.3,0.1,0.4c-0.4,0.2-1,0.4-1.5,0.4
	c-1,0-1.2-0.6-1.4-1.3c-0.5,0.8-1.4,1.4-2.3,1.4c-2,0-2.4-1.7-2.4-2.5c0-2.3,1.2-2.7,2.8-3.2L191.4,181.9 M192.6,182.4
	c-2,0.6-2.6,0.8-2.6,2.3c0,1.1,0.4,1.8,1.1,1.8c0.9,0,1.5-0.9,1.5-2V182.4z"/>
<path fill="#004990" d="M204.5,185c0,1,0.1,2.1,0.1,2.5c-0.4,0-0.7-0.1-1.1-0.1c-0.4,0-0.8,0.1-1.1,0.1c0.1-1,0.2-2.9,0.2-3.9
	c0-1.1,0-2.8-0.1-3.3c-0.2-1-0.9-1.4-1.6-1.4c-0.6,0-1.2,0.5-1.5,1.2c-0.2,0.6-0.3,2-0.3,2.7c0,1.9,0,3.2,0.1,4.6
	c-0.2,0-0.9-0.1-1.1-0.1c-0.3,0-0.7,0.1-1.1,0.1c0.2-2.7,0.2-3,0.2-5.5c0-2.6,0-2.9-0.1-4.4c0.2,0,0.5,0.1,1.1,0.1
	c0.5,0,0.7-0.1,0.9-0.1c-0.1,0.6-0.1,0.7-0.1,1.7c0.7-1.1,1.3-1.8,2.7-1.8c1.9,0,2.9,1.3,2.9,3.5C204.6,181.6,204.5,183.9,204.5,185
	"/>
<path fill="#004990" d="M211.6,179.2c0-1.9,0-3.9,0-5.8c0.1,0,0.3,0,0.4,0c0.1,0,0.3,0,0.4,0c1.6,2.2,3.1,4.1,5.2,6.5l2,2.4
	c0.3,0.4,0.5,0.5,0.9,0.9v-4.6c0-1.7-0.1-3.5-0.2-5.2c0.2,0.1,0.4,0.1,0.7,0.1c0.3,0,0.5-0.1,0.7-0.1c-0.2,2.5-0.2,3.9-0.2,6.9
	c0,1.2,0,4.1,0,5.2c0,0.5,0,1.5,0,2c-0.1,0-0.2,0-0.3,0c-0.1,0-0.2,0-0.4,0c-2.2-2.8-6.4-7.9-8.2-9.9c0,2.8,0,4.3,0.1,6.5
	c0,1.2,0,1.4,0.2,3.3c-0.2,0-0.5-0.1-0.8-0.1c-0.3,0-0.5,0.1-0.7,0.1l0.1-2.9c0-0.6,0.1-2.1,0.1-2.7V179.2"/>
<path fill="#004990" d="M227,181.9c1-0.3,1.1-0.4,1.2-0.6c0.1-0.1,0.1-0.3,0.1-0.4c0-1.6-0.7-2.2-1.7-2.2c-1.3,0-1.7,1-1.8,1.5
	c-0.1,0-0.2,0-0.3,0c-0.1,0-0.2,0-0.3,0c0.1-0.4,0.1-0.7,0.1-1c0-0.2,0-0.4,0-0.6c1.3-0.9,1.8-1.1,2.7-1.1c1.8,0,3.1,1,3.1,3.1
	c0,0.8-0.1,2.8-0.1,3.5c0,2,0,2.5,0.6,2.5c0.2,0,0.3-0.1,0.5-0.2c0,0.1-0.1,0.3-0.1,0.4c0,0.1,0,0.3,0.1,0.4c-0.4,0.2-1,0.4-1.5,0.4
	c-1,0-1.2-0.6-1.4-1.3c-0.5,0.8-1.4,1.4-2.3,1.4c-2,0-2.4-1.7-2.4-2.5c0-2.3,1.2-2.7,2.8-3.2L227,181.9 M228.2,182.4
	c-2,0.6-2.6,0.8-2.6,2.3c0,1.1,0.4,1.8,1.1,1.8c0.9,0,1.5-0.9,1.5-2V182.4z"/>
<path fill="#004990" d="M235.2,174.1c-0.1,0.3-0.1,0.6-0.1,3.7c0.8,0,0.9,0,1.2,0l0.6-0.1c0,0.2-0.1,0.3-0.1,0.5
	c0,0.2,0,0.4,0.1,0.6c-0.7-0.1-0.9-0.1-1.9-0.1c0,0.9-0.1,3.1-0.1,3.9c0,3,0.1,3.9,1.2,3.9c0.4,0,0.7-0.1,1-0.4
	c0,0.1-0.1,0.3-0.1,0.5c0,0.2,0,0.3,0.1,0.5c-0.5,0.3-1.4,0.6-1.9,0.6c-0.5,0-1.1-0.2-1.5-0.5c-0.6-0.6-0.7-1.5-0.7-2.3
	c0-0.9,0.1-4.5,0.1-6.1h-0.5c-0.3,0-0.6,0-0.8,0.1c0-0.1,0.1-0.2,0.1-0.5c0-0.2,0-0.4-0.1-0.7c0.1,0,0.4,0.1,0.6,0.1h0.8
	c0-0.6,0-1.4,0-2.3c1-0.5,1.6-1.1,2-1.4L235.2,174.1"/>
<path fill="#004990" d="M238.5,174.3c0-0.8,0.5-1.4,1.2-1.4c0.6,0,1.2,0.7,1.2,1.4c0,0.8-0.6,1.4-1.2,1.4S238.5,175.1,238.5,174.3
	 M238.7,185.3c0-1,0.1-1.8,0.1-2.5c0-1.5-0.1-3.7-0.2-5.1c0.3,0.1,0.6,0.1,1.1,0.1c0.5,0,0.8-0.1,1.1-0.1l0,0.9
	c0,0.9-0.1,2.8-0.1,3.5c0,0.9,0,3,0.1,3.7c0,0.3,0.1,1.4,0.1,1.7c-0.3-0.1-0.6-0.1-1-0.1c-0.4,0-0.8,0.1-1.2,0.1L238.7,185.3z"/>
<path fill="#004990" d="M246.9,177.5c2.6,0,4.3,1.8,4.3,5.1c0,3.2-1.7,5.1-4.3,5.1c-2.6,0-4.3-1.9-4.3-5.1
	C242.6,179.4,244.4,177.5,246.9,177.5 M246.9,186.9c1.9,0,2.2-2.6,2.2-4.3c0-1.7-0.3-4.3-2.2-4.3c-1.9,0-2.2,2.6-2.2,4.3
	C244.8,184.3,245.1,186.9,246.9,186.9z"/>
<path fill="#004990" d="M260.5,185c0,1,0.1,2.1,0.1,2.5c-0.4,0-0.7-0.1-1.1-0.1c-0.4,0-0.8,0.1-1.1,0.1c0.1-1,0.2-2.9,0.2-3.9
	c0-1.1,0-2.8-0.1-3.3c-0.2-1-0.9-1.4-1.6-1.4c-0.6,0-1.2,0.5-1.5,1.2c-0.2,0.6-0.3,2-0.3,2.7c0,1.9,0,3.2,0.1,4.6
	c-0.2,0-0.9-0.1-1.1-0.1c-0.3,0-0.7,0.1-1.1,0.1c0.2-2.7,0.2-3,0.2-5.5c0-2.6,0-2.9-0.1-4.4c0.2,0,0.5,0.1,1.1,0.1
	c0.5,0,0.7-0.1,0.9-0.1c-0.1,0.6-0.1,0.7-0.1,1.7c0.7-1.1,1.3-1.8,2.7-1.8c1.9,0,2.9,1.3,2.9,3.5C260.6,181.6,260.5,183.9,260.5,185
	"/>
<path fill="#004990" d="M265.7,181.9c1-0.3,1.1-0.4,1.2-0.6c0.1-0.1,0.1-0.3,0.1-0.4c0-1.6-0.7-2.2-1.7-2.2c-1.3,0-1.7,1-1.9,1.5
	c-0.1,0-0.2,0-0.3,0c-0.1,0-0.2,0-0.3,0c0.1-0.4,0.1-0.7,0.1-1c0-0.2,0-0.4,0-0.6c1.3-0.9,1.8-1.1,2.7-1.1c1.8,0,3.1,1,3.1,3.1
	c0,0.8-0.1,2.8-0.1,3.5c0,2,0,2.5,0.6,2.5c0.2,0,0.3-0.1,0.5-0.2c0,0.1-0.1,0.3-0.1,0.4c0,0.1,0,0.3,0.1,0.4c-0.4,0.2-1,0.4-1.5,0.4
	c-1,0-1.2-0.6-1.4-1.3c-0.5,0.8-1.4,1.4-2.3,1.4c-2,0-2.4-1.7-2.4-2.5c0-2.3,1.2-2.7,2.8-3.2L265.7,181.9 M266.9,182.4
	c-1.9,0.6-2.6,0.8-2.6,2.3c0,1.1,0.4,1.8,1.1,1.8c0.9,0,1.5-0.9,1.5-2V182.4z"/>
<path fill="#004990" d="M272.5,172.4c0.6,0,0.8-0.1,1.1-0.1c-0.2,2.2-0.2,5.4-0.2,7.6c0,0.4-0.1,5.3,0.2,7.7c-0.3,0-0.7-0.1-1-0.1
	c-0.3,0-0.6,0-1.2,0.1c0.2-1.6,0.2-7.7,0.2-8.2c0-3.8-0.1-5.4-0.2-7C271.7,172.3,271.9,172.4,272.5,172.4"/>
<path fill="#004990" d="M282.8,179.4h1.2c1.3,0,2-0.1,2.7-0.1c-0.1,0.2-0.1,0.4-0.1,0.7c0,0.2,0,0.4,0.1,0.7l-0.9,0
	c-0.9,0-1.1,0-3,0v2.8c0,2.1,0,2.4,0,3c0,0.5,0,0.6,0.1,1.1c-0.4-0.1-0.8-0.1-1.2-0.1c-0.5,0-0.8,0-1.1,0.1c0.1-3.5,0.2-4,0.2-7.3
	c0-2.6-0.1-4.8-0.2-6.8c0.6,0,2.4,0.1,3.2,0.1c1.1,0,2.3-0.1,3.2-0.1c-0.1,0.3-0.1,0.5-0.1,0.8c0,0.1,0,0.4,0.1,0.7
	c-1.5-0.1-2.7-0.2-4.2-0.2V179.4"/>
<path fill="#004990" d="M291.2,181.9c1-0.3,1.1-0.4,1.2-0.6c0-0.1,0.1-0.3,0.1-0.4c0-1.6-0.7-2.2-1.7-2.2c-1.3,0-1.7,1-1.8,1.5
	c-0.1,0-0.2,0-0.3,0c-0.1,0-0.2,0-0.3,0c0.1-0.4,0.1-0.7,0.1-1c0-0.2,0-0.4,0-0.6c1.3-0.9,1.8-1.1,2.7-1.1c1.8,0,3.1,1,3.1,3.1
	c0,0.8-0.1,2.8-0.1,3.5c0,2,0,2.5,0.6,2.5c0.2,0,0.3-0.1,0.5-0.2c0,0.1-0.1,0.3-0.1,0.4c0,0.1,0,0.3,0.1,0.4c-0.4,0.2-1,0.4-1.5,0.4
	c-1,0-1.2-0.6-1.4-1.3c-0.5,0.8-1.4,1.4-2.3,1.4c-2,0-2.4-1.7-2.4-2.5c0-2.3,1.2-2.7,2.8-3.2L291.2,181.9 M292.4,182.4
	c-2,0.6-2.6,0.8-2.6,2.3c0,1.1,0.4,1.8,1.1,1.8c0.9,0,1.5-0.9,1.5-2V182.4z"/>
<path fill="#004990" d="M299,187.5c-0.3,0-0.6-0.1-1-0.1c-0.4,0-1,0.1-1.1,0.1c0.1-2.2,0.1-2.6,0.1-5.4c0-2.2-0.1-3.3-0.1-4.4
	c0.4,0.1,0.7,0.1,1.2,0.1c0.4,0,0.6-0.1,0.9-0.1c-0.1,0.5-0.1,0.6-0.1,1.8c0.6-1.2,1.4-1.9,2.6-1.9c1.8,0,2.3,1.2,2.5,1.9
	c0.6-1,1.4-1.9,2.8-1.9c2,0,2.6,1.8,2.6,2.9c0,0.8-0.1,2.2-0.1,3c0,0.9,0,3.3,0.1,4c-0.5,0-0.8-0.1-1.1-0.1c-0.3,0-0.9,0.1-1.1,0.1
	c0.1-1,0.1-2.5,0.1-3.6c0-0.4,0-2.4,0-2.7c0-0.6-0.1-2.1-1.5-2.1c-1.8,0-1.8,2.1-1.8,4.7c0,1.3,0.1,2.5,0.1,3.8
	c-0.3,0-0.7-0.1-1-0.1c-0.3,0-0.6,0.1-1.1,0.1c0.1-1.2,0.1-3.4,0.1-4c0-1.4,0-2.7-0.1-3.2c-0.2-0.7-0.6-1.3-1.5-1.3
	c-0.7,0-1.2,0.5-1.5,1.2c-0.2,0.6-0.2,2-0.2,2.9C298.9,184.5,298.9,186,299,187.5"/>
<path fill="#004990" d="M311.6,174.3c0-0.8,0.5-1.4,1.2-1.4c0.6,0,1.2,0.7,1.2,1.4c0,0.8-0.6,1.4-1.2,1.4
	C312.1,175.7,311.6,175.1,311.6,174.3 M311.8,185.3c0-1,0.1-1.8,0.1-2.5c0-1.5-0.1-3.7-0.2-5.1c0.3,0.1,0.6,0.1,1.1,0.1
	c0.5,0,0.8-0.1,1.1-0.1l0,0.9c0,0.9-0.1,2.8-0.1,3.5c0,0.9,0,3,0,3.7c0,0.3,0.1,1.4,0.1,1.7c-0.3-0.1-0.6-0.1-1-0.1
	c-0.4,0-0.8,0.1-1.2,0.1L311.8,185.3z"/>
<path fill="#004990" d="M317.2,172.4c0.6,0,0.8-0.1,1.1-0.1c-0.2,2.2-0.2,5.4-0.2,7.6c0,0.4-0.1,5.3,0.2,7.7c-0.3,0-0.7-0.1-1-0.1
	c-0.3,0-0.6,0-1.2,0.1c0.2-1.6,0.2-7.7,0.2-8.2c0-3.8-0.1-5.4-0.2-7C316.4,172.3,316.7,172.4,317.2,172.4"/>
<path fill="#004990" d="M324.1,184.9l0.3-0.9c0.4-1,1.2-3.9,1.2-4c0.2-0.7,0.4-1.7,0.6-2.4c0.3,0.1,0.5,0.1,0.8,0.1
	c0.3,0,0.5-0.1,0.8-0.1c-0.9,2.1-4.7,12.4-5.3,15.2c-0.2-0.1-0.4-0.1-0.8-0.1c-0.3,0-0.5,0-0.8,0.1l0.3-0.5c0.4-0.7,1.5-3.4,1.9-4.4
	c-0.2-0.6-0.3-1-1.7-4.8l-2-5.4c0.6,0.1,0.9,0.1,1.2,0.1c0.3,0,0.7,0,1.2-0.1c0.2,0.8,1.3,4.4,1.5,4.9L324.1,184.9"/>
<path fill="#004990" d="M337.3,177.5c2.6,0,4.3,1.8,4.3,5.1c0,3.2-1.7,5.1-4.3,5.1c-2.6,0-4.3-1.9-4.3-5.1
	C333,179.4,334.7,177.5,337.3,177.5 M337.3,186.9c1.9,0,2.2-2.6,2.2-4.3c0-1.7-0.3-4.3-2.2-4.3c-1.9,0-2.2,2.6-2.2,4.3
	C335.1,184.3,335.4,186.9,337.3,186.9z"/>
<path fill="#004990" d="M347.7,174.5c-0.5-0.4-1.1-0.4-1.3-0.4c-0.3,0-1.1,0-1.1,1.3c0,0.6,0.3,1.8,0.5,2.4c0.8,0,0.9,0,1.2,0
	l0.6-0.1c0,0.2-0.1,0.3-0.1,0.6c0,0.2,0,0.4,0.1,0.6c-0.3-0.1-0.5-0.1-1.8-0.1v1.1c0,0.5,0,5.8,0.2,7.6c-0.3,0-0.8-0.1-1.1-0.1
	c-0.4,0-0.8,0.1-1.1,0.1c0.1-0.6,0.1-0.9,0.1-2.1c0-1.6,0.1-2.6,0.1-3.6c0-1,0-2.6,0-3h-0.5c-0.3,0-0.5,0-0.7,0.1
	c0-0.2,0.1-0.4,0.1-0.6c0-0.1,0-0.3-0.1-0.6c0.8,0.1,0.2,0.1,1.3,0.1c0.1-1.5,0.2-2.2,0.7-3.4c0.2-0.4,1-2.2,2.7-2.2
	c0.1,0,0.1,0,0.5,0.1c-0.1,0.3-0.1,0.7-0.1,1c0,0.4,0,0.8,0,1.1L347.7,174.5"/>
<path fill="#004990" d="M363,176.3h-0.2c-0.2-0.5-0.8-1.9-3.3-1.9c-2.9,0-4.4,2.3-4.4,6.1c0,0.7,0,2.6,1,4.3c0.6,1,1.5,1.9,3.1,1.9
	c2.1,0,3.2-1.2,4-2.3l0.2,0.1l-0.2,2c-1.3,0.9-2.8,1.3-4.3,1.3c-3.3,0-6.1-2.5-6.1-7.1c0-4.1,2.1-7.4,6.7-7.4c1.4,0,2.6,0.3,4,1
	L363,176.3"/>
<path fill="#004990" d="M369.1,177.5c2.6,0,4.3,1.8,4.3,5.1c0,3.2-1.7,5.1-4.3,5.1c-2.6,0-4.3-1.9-4.3-5.1
	C364.8,179.4,366.5,177.5,369.1,177.5 M369.1,186.9c1.9,0,2.2-2.6,2.2-4.3c0-1.7-0.3-4.3-2.2-4.3c-1.9,0-2.2,2.6-2.2,4.3
	C366.9,184.3,367.2,186.9,369.1,186.9z"/>
<path fill="#004990" d="M377.4,187.5c-0.3,0-0.6-0.1-1-0.1c-0.4,0-1,0.1-1.1,0.1c0.1-2.2,0.1-2.6,0.1-5.4c0-2.2-0.1-3.3-0.1-4.4
	c0.4,0.1,0.7,0.1,1.2,0.1c0.4,0,0.7-0.1,0.9-0.1c-0.1,0.5-0.1,0.6-0.1,1.8c0.6-1.2,1.4-1.9,2.6-1.9c1.8,0,2.3,1.2,2.5,1.9
	c0.6-1,1.4-1.9,2.8-1.9c1.9,0,2.6,1.8,2.6,2.9c0,0.8-0.1,2.2-0.1,3c0,0.9,0,3.3,0.1,4c-0.5,0-0.8-0.1-1.1-0.1
	c-0.3,0-0.9,0.1-1.1,0.1c0.1-1,0.1-2.5,0.1-3.6c0-0.4,0-2.4,0-2.7c0-0.6-0.1-2.1-1.5-2.1c-1.8,0-1.8,2.1-1.8,4.7
	c0,1.3,0.1,2.5,0.1,3.8c-0.3,0-0.7-0.1-1-0.1c-0.3,0-0.6,0.1-1.1,0.1c0.1-1.2,0.1-3.4,0.1-4c0-1.4,0-2.7-0.1-3.2
	c-0.2-0.7-0.6-1.3-1.5-1.3c-0.6,0-1.2,0.5-1.5,1.2c-0.2,0.6-0.2,2-0.2,2.9C377.3,184.5,377.3,186,377.4,187.5"/>
<path fill="#004990" d="M391.9,179.1c0.4-0.8,1.3-1.7,2.7-1.7c2.3,0,3.7,2.5,3.7,5.1c0,2.4-1.1,5.1-3.8,5.1c-1.3,0-1.9-0.7-2.4-1.3
	c0,3,0.1,4.8,0.2,6.6c-0.3-0.1-0.5-0.1-1.1-0.1c-0.4,0-0.7,0-1.1,0.1c0.2-2.5,0.2-6.4,0.2-7.7c0-2.2,0-5.4-0.2-7.5
	c0.3,0,0.7,0.1,1,0.1c0.4,0,0.7-0.1,0.9-0.1L391.9,179.1 M394.1,178.6c-1.7,0-2.1,2.4-2.1,4c0,1.8,0.3,4,2.1,4c1.6,0,2-2.4,2-3.9
	C396.2,181.5,396,178.6,394.1,178.6z"/>
<path fill="#004990" d="M403,181.9c1-0.3,1.1-0.4,1.2-0.6c0.1-0.1,0.1-0.3,0.1-0.4c0-1.6-0.7-2.2-1.7-2.2c-1.3,0-1.7,1-1.8,1.5
	c-0.1,0-0.2,0-0.3,0c-0.1,0-0.2,0-0.3,0c0.1-0.4,0.1-0.7,0.1-1c0-0.2,0-0.4,0-0.6c1.3-0.9,1.8-1.1,2.7-1.1c1.8,0,3.1,1,3.1,3.1
	c0,0.8-0.1,2.8-0.1,3.5c0,2,0,2.5,0.6,2.5c0.2,0,0.3-0.1,0.5-0.2c0,0.1-0.1,0.3-0.1,0.4c0,0.1,0,0.3,0.1,0.4c-0.4,0.2-1,0.4-1.5,0.4
	c-1,0-1.2-0.6-1.4-1.3c-0.5,0.8-1.4,1.4-2.3,1.4c-2,0-2.4-1.7-2.4-2.5c0-2.3,1.2-2.7,2.8-3.2L403,181.9 M404.2,182.4
	c-2,0.6-2.7,0.8-2.7,2.3c0,1.1,0.4,1.8,1.1,1.8c0.9,0,1.5-0.9,1.5-2V182.4z"/>
<path fill="#004990" d="M416.1,185c0,1,0.1,2.1,0.1,2.5c-0.4,0-0.7-0.1-1.1-0.1c-0.4,0-0.8,0.1-1.1,0.1c0.1-1,0.2-2.9,0.2-3.9
	c0-1.1,0-2.8-0.1-3.3c-0.2-1-0.9-1.4-1.6-1.4c-0.6,0-1.2,0.5-1.5,1.2c-0.2,0.6-0.3,2-0.3,2.7c0,1.9,0,3.2,0.1,4.6
	c-0.2,0-0.9-0.1-1.1-0.1c-0.3,0-0.7,0.1-1.1,0.1c0.2-2.7,0.2-3,0.2-5.5c0-2.6,0-2.9-0.1-4.4c0.2,0,0.5,0.1,1.1,0.1
	c0.5,0,0.7-0.1,0.9-0.1c-0.1,0.6-0.1,0.7-0.1,1.7c0.7-1.1,1.3-1.8,2.7-1.8c1.9,0,2.9,1.3,2.9,3.5C416.1,181.6,416.1,183.9,416.1,185
	"/>
<path fill="#004990" d="M418.3,174.3c0-0.8,0.5-1.4,1.2-1.4c0.6,0,1.2,0.7,1.2,1.4c0,0.8-0.6,1.4-1.2,1.4
	C418.8,175.7,418.3,175.1,418.3,174.3 M418.5,185.3c0-1,0.1-1.8,0.1-2.5c0-1.5-0.1-3.7-0.2-5.1c0.3,0.1,0.6,0.1,1.1,0.1
	c0.5,0,0.8-0.1,1.1-0.1l0,0.9c0,0.9-0.1,2.8-0.1,3.5c0,0.9,0,3,0.1,3.7c0,0.3,0.1,1.4,0.1,1.7c-0.3-0.1-0.6-0.1-1-0.1
	c-0.4,0-0.8,0.1-1.2,0.1L418.5,185.3z"/>
<path fill="#004990" d="M424.5,182.6c0,0.8,0,3.9,2.7,3.9c0.8,0,1.9-0.5,2.4-1.3l0.2,0.1c-0.1,0.1-0.1,0.3-0.1,0.4l-0.2,0.9
	c-0.1,0.2-1.2,1.1-2.9,1.1c-0.6,0-2.2-0.2-3.1-1.4c-1.1-1.4-1.2-3.2-1.2-3.9c0-3.4,2-5,4-5c0.6,0,2.4,0,3.2,1.9
	c0.3,0.7,0.5,1.7,0.5,3.3H424.5 M428.1,181.6c0-1,0-3.3-1.7-3.3c-1.8,0-1.9,2.5-1.9,3.3H428.1z"/>
<path fill="#004990" d="M432,185.2c0.2,0.4,0.5,1.6,2.1,1.6c0.9,0,1.3-0.7,1.3-1.5c0-0.9-0.7-1.1-1.5-1.5c-0.2-0.1-1-0.4-1.2-0.5
	c-0.3-0.2-1.4-0.7-1.4-2.6c0-1.8,1.1-3.2,3-3.2c1,0,1.8,0.4,2.3,0.6c-0.3,0.8-0.4,1.4-0.4,1.8H436c-0.3-0.7-0.6-1.4-1.6-1.4
	c-0.8,0-1.4,0.5-1.4,1.4c0,0.9,0.6,1.1,1.9,1.6c1.1,0.4,2.3,0.9,2.3,2.9c0,1.3-0.8,3.4-3.3,3.4c-1,0-1.7-0.4-2.5-0.8
	c0.1-0.2,0.2-0.6,0.3-0.9c0.1-0.4,0.1-0.7,0.1-0.9H432"/>
</svg>
