<?xml version="1.0" encoding="utf-8"?>
<svg version="1.1" xmlns="http://www.w3.org/2000/svg" xmlns:xlink="http://www.w3.org/1999/xlink" x="0px" y="0px" width="383.5px" height="71.28px" viewBox="0 0 383.5 71.28" style="enable-background:new 0 0 383.5 71.28;" xml:space="preserve">
	
	<g style="fill:#015E81;">
		<g>
			<path d="M86.597,63.88v0.427c0,2.94-2.074,5.199-5.071,5.199c-2.998,0-5.413-2.586-5.413-5.555
				c0-3.083,2.472-5.611,5.555-5.611c1.662,0,3.31,0.753,4.361,2.074l-0.938,0.895c-0.767-1.051-2.06-1.747-3.367-1.747
				c-2.401,0-4.276,1.946-4.276,4.348c0,2.244,1.847,4.375,4.162,4.375c1.662,0,3.452-1.435,3.509-3.183h-2.77V63.88H86.597z"/>
			<path d="M94.676,69.278h-1.62l-3.154-4.531h-0.554v4.531h-1.335V58.567h1.619
				c0.952,0,1.975,0.014,2.827,0.497c0.895,0.525,1.406,1.534,1.406,2.557c0,1.535-1.022,2.813-2.571,2.998L94.676,69.278z
				 M89.349,63.638h0.426c1.364,0,2.841-0.256,2.841-1.96c0-1.677-1.591-1.918-2.912-1.918h-0.355V63.638z"/>
			<path d="M106.105,63.923c0,3.183-2.515,5.583-5.611,5.583c-3.097,0-5.611-2.4-5.611-5.583
				c0-3.068,2.543-5.583,5.611-5.583S106.105,60.854,106.105,63.923z M104.77,63.923c0-2.358-1.762-4.333-4.276-4.333
				c-2.515,0-4.276,1.975-4.276,4.333c0,2.443,1.96,4.333,4.276,4.333S104.77,66.366,104.77,63.923z"/>
			<path d="M108.75,58.567v6.321c0,1.748,0.526,3.367,2.585,3.367c2.06,0,2.585-1.619,2.585-3.367v-6.321
				h1.335v6.776c0,2.358-1.463,4.162-3.921,4.162c-2.458,0-3.92-1.804-3.92-4.162v-6.776H108.75z"/>
			<path d="M118.572,69.278h-1.335V58.567h1.534c3.296,0,4.318,1.137,4.318,3.097
				c0,2.259-1.719,3.125-3.75,3.125h-0.767V69.278z M118.572,63.595h0.426c1.364,0,2.841-0.255,2.841-1.96
				c0-1.677-1.591-1.875-2.912-1.875h-0.355V63.595z"/>
			<path d="M133.695,60.598c-0.397-0.668-0.909-1.009-1.719-1.009c-0.853,0-1.79,0.583-1.79,1.521
				c0,0.838,0.824,1.278,1.492,1.534l0.767,0.298c1.52,0.597,2.657,1.436,2.657,3.225c0,1.946-1.506,3.339-3.424,3.339
				c-1.733,0-3.083-1.278-3.31-2.997l1.35-0.284c-0.014,1.179,0.923,2.031,2.074,2.031c1.15,0,1.975-0.966,1.975-2.089
				c0-1.15-0.923-1.647-1.847-2.031l-0.738-0.312c-1.222-0.525-2.33-1.222-2.33-2.713c0-1.733,1.534-2.771,3.154-2.771
				c1.193,0,2.173,0.583,2.756,1.619L133.695,60.598z"/>
			<path d="M137.681,58.567v6.321c0,1.748,0.525,3.367,2.585,3.367s2.586-1.619,2.586-3.367v-6.321h1.335
				v6.776c0,2.358-1.463,4.162-3.921,4.162c-2.457,0-3.921-1.804-3.921-4.162v-6.776H137.681z"/>
			<path d="M147.503,69.278h-1.336V58.567h1.534c3.296,0,4.319,1.137,4.319,3.097
				c0,2.259-1.719,3.125-3.751,3.125h-0.767V69.278z M147.503,63.595h0.426c1.364,0,2.842-0.255,2.842-1.96
				c0-1.677-1.592-1.875-2.913-1.875h-0.354V63.595z"/>
			<path d="M154.475,69.278h-1.336V58.567h1.534c3.296,0,4.32,1.137,4.32,3.097
				c0,2.259-1.719,3.125-3.751,3.125h-0.767V69.278z M154.475,63.595h0.426c1.364,0,2.842-0.255,2.842-1.96
				c0-1.677-1.592-1.875-2.914-1.875h-0.354V63.595z"/>
			<path d="M161.446,68.056h3.253v1.222h-4.589V58.567h1.336V68.056z"/>
			<path d="M165.661,58.567h5.754v1.222h-4.418v2.997h4.29v1.222h-4.29v4.049h4.418v1.222h-5.754V58.567z"/>
			<path d="M175.006,62.204h-0.028l-1.25,7.074h-1.378l2.188-11.166l3.68,8.438l3.68-8.438l2.188,11.166
				h-1.378l-1.25-7.074h-0.028l-3.211,7.302L175.006,62.204z"/>
			<path d="M185.368,58.567h5.754v1.222h-4.418v2.997h4.29v1.222h-4.29v4.049h4.418v1.222h-5.754V58.567z"/>
			<path d="M192.624,58.055l8.041,8.425v-7.913H202v11.151l-8.04-8.424v7.983h-1.336V58.055z"/>
			<path d="M206.873,69.278h-1.335v-9.489h-2.543v-1.222h6.421v1.222h-2.543V69.278z"/>
			<path d="M211.279,66.594l-1.222,2.685h-1.435l5.113-11.166l5.114,11.166h-1.435l-1.222-2.685H211.279z
				 M213.736,61.039l-1.903,4.333h3.808L213.736,61.039z"/>
			<path d="M221.176,68.056h3.253v1.222h-4.589V58.567h1.336V68.056z"/>
			<path d="M231.271,69.278h-1.335V58.567h1.335V69.278z"/>
			<path d="M233.276,58.055l8.041,8.425v-7.913h1.335v11.151l-8.04-8.424v7.983h-1.336V58.055z"/>
			<path d="M249.37,60.598c-0.398-0.668-0.909-1.009-1.72-1.009c-0.852,0-1.789,0.583-1.789,1.521
				c0,0.838,0.823,1.278,1.491,1.534l0.767,0.298c1.521,0.597,2.657,1.436,2.657,3.225c0,1.946-1.506,3.339-3.424,3.339
				c-1.733,0-3.083-1.278-3.31-2.997l1.349-0.284c-0.014,1.179,0.924,2.031,2.074,2.031c1.151,0,1.975-0.966,1.975-2.089
				c0-1.15-0.923-1.647-1.847-2.031l-0.738-0.312c-1.222-0.525-2.33-1.222-2.33-2.713c0-1.733,1.534-2.771,3.154-2.771
				c1.192,0,2.173,0.583,2.756,1.619L249.37,60.598z"/>
			<path d="M253.355,58.567v6.321c0,1.748,0.525,3.367,2.585,3.367s2.586-1.619,2.586-3.367v-6.321h1.335
				v6.776c0,2.358-1.463,4.162-3.921,4.162c-2.457,0-3.921-1.804-3.921-4.162v-6.776H253.355z"/>
			<path d="M268.505,69.278h-1.619l-3.154-4.531h-0.554v4.531h-1.336V58.567h1.62
				c0.951,0,1.975,0.014,2.827,0.497c0.895,0.525,1.406,1.534,1.406,2.557c0,1.535-1.023,2.813-2.571,2.998L268.505,69.278z
				 M263.178,63.638h0.426c1.364,0,2.842-0.256,2.842-1.96c0-1.677-1.592-1.918-2.913-1.918h-0.354V63.638z"/>
			<path d="M271.656,66.594l-1.222,2.685H269l5.113-11.166l5.114,11.166h-1.435l-1.222-2.685H271.656z
				 M274.113,61.039l-1.903,4.333h3.808L274.113,61.039z"/>
			<path d="M280.154,58.055l8.041,8.425v-7.913h1.335v11.151l-8.04-8.424v7.983h-1.336V58.055z"/>
			<path d="M299.392,60.613c-0.768-0.683-1.818-1.052-2.827-1.052c-2.401,0-4.233,2.003-4.233,4.376
				c0,2.344,1.818,4.347,4.205,4.347c1.051,0,2.06-0.397,2.855-1.108v1.577c-0.824,0.483-1.876,0.753-2.813,0.753
				c-3.054,0-5.583-2.43-5.583-5.526c0-3.168,2.543-5.64,5.697-5.64c0.938,0,1.889,0.228,2.699,0.725V60.613z"/>
			<path d="M300.797,58.567h5.754v1.222h-4.418v2.997h4.29v1.222h-4.29v4.049h4.418v1.222h-5.754V58.567z"/>
		</g>
		<g>
			<path d="M16.003,13.489v35.612H7.631V13.489H3.202V5.238h17.291v8.251H16.003z"/>
			<path d="M30.747,49.101V21.194c0-0.485,0-0.971-0.607-0.971h-1.092v28.878h-7.401V5.238h7.401v8.797h3.944
				c2.851,0,5.217,2.245,5.217,4.975v30.092H30.747z"/>
			<path d="M52.406,49.101h-7.341c-2.366,0-4.611-1.638-4.611-4.125V18.645c0-2.608,2.002-4.61,4.611-4.61
				h7.341c2.609,0,4.611,2.002,4.611,4.61v15.168h-9.1v7.583c0,0.364,0.243,0.607,0.546,0.607h0.485
				c0.364,0,0.606-0.243,0.606-0.607V35.39h7.462v9.586C57.017,47.464,54.772,49.101,52.406,49.101z M49.554,21.801
				c0-0.364-0.303-0.667-0.667-0.667h-0.304c-0.424,0-0.667,0.303-0.667,0.667v5.703h1.638V21.801z"/>
			<path d="M82.438,35.997h-5.399v13.104h-8.373V5.238h13.833c3.033,0,5.521,2.427,5.521,5.46v19.778
				C88.02,33.753,85.411,35.997,82.438,35.997z M79.647,14.641c0-0.606-0.485-1.092-1.092-1.092h-1.517v15.228h1.638
				c0.546,0,0.971-0.425,0.971-0.971V14.641z"/>
			<path d="M101.124,20.344c-2.366,0-3.701,1.941-3.701,4.247v24.51h-7.826V14.035h7.826v2.427
				c0.364-1.274,1.638-2.427,2.73-2.427h1.881v6.31H101.124z"/>
			<path d="M114.774,49.101h-7.341c-2.366,0-4.611-1.638-4.611-4.125V18.645c0-2.608,2.002-4.61,4.611-4.61
				h7.341c2.609,0,4.611,2.002,4.611,4.61v15.168h-9.1v7.583c0,0.364,0.243,0.607,0.546,0.607h0.485
				c0.364,0,0.606-0.243,0.606-0.607V35.39h7.462v9.586C119.385,47.464,117.14,49.101,114.774,49.101z M111.922,21.801
				c0-0.364-0.303-0.667-0.667-0.667h-0.304c-0.424,0-0.667,0.303-0.667,0.667v5.703h1.638V21.801z"/>
			<path d="M139.892,49.101V20.89c0-0.485,0-0.606-0.606-0.667h-1.153v28.878h-7.401V21.072
				c0-0.606,0-0.788-0.607-0.849h-1.092v28.878h-7.401V14.035h10.496c1.335,0,2.002,0.667,2.548,1.517v-1.517h7.947
				c2.488,0,4.793,2.245,4.793,4.914v30.152H139.892z"/>
			<path d="M149.6,12.7V5.238h7.402V12.7H149.6z M157.001,49.101H149.6V14.035h7.462L157.001,49.101z"/>
			<path d="M164.464,49.101c-2.791,0-5.218-2.244-5.218-4.975V14.035h7.463v27.847
				c0,0.485,0,0.971,0.606,0.971h1.092V14.035h7.401v35.066H164.464z"/>
			<path d="M196.315,49.101V20.89c0-0.485,0-0.606-0.606-0.667h-1.152v28.878h-7.401V21.072
				c0-0.606,0-0.788-0.607-0.849h-1.092v28.878h-7.401V14.035h10.495c1.335,0,2.003,0.667,2.549,1.517v-1.517h7.947
				c2.487,0,4.793,2.245,4.793,4.914v30.152H196.315z"/>
			<path d="M229.26,49.101h-1.517v3.033h-5.339v-3.033h-6.977V33.874h8.312v6.855h2.669v-9.465h-10.98V10.637
				c0-2.973,2.427-5.399,5.46-5.399h1.517V2.022h5.339v3.216h6.978v15.046h-8.312v-6.795h-2.669v9.464h10.981v20.628
				C234.721,46.614,232.232,49.101,229.26,49.101z"/>
			<path d="M241.272,49.101c-2.79,0-4.854-2.608-4.854-5.096V32.478c0-2.67,2.427-4.914,5.218-4.914
				l3.883-0.061v-4.308c0-0.364-0.242-0.85-0.85-0.85h-0.849v3.579h-6.128V14.035h10.011c2.79,0,5.156,3.397,5.156,6.249v28.817
				H241.272z M245.52,33.753h-1.092c-0.606,0.061-0.606,0.485-0.606,0.971v7.219h1.698V33.753z"/>
			<path d="M267.543,49.101h-8.312c-2.791-5.218-4.308-7.098-4.308-15.471V14.035h7.341v21.72
				c0,2.608,0.303,5.217,1.213,6.188c0.789-0.971,1.031-3.458,1.031-6.127v-21.78h7.402V33.51
				C271.851,41.882,270.88,43.641,267.543,49.101z"/>
			<path d="M285.927,49.101h-7.342c-2.365,0-4.61-1.638-4.61-4.125V18.645c0-2.608,2.002-4.61,4.61-4.61
				h7.342c2.608,0,4.61,2.002,4.61,4.61v15.168h-9.101v7.583c0,0.364,0.243,0.607,0.547,0.607h0.484
				c0.364,0,0.607-0.243,0.607-0.607V35.39h7.462v9.586C290.537,47.464,288.292,49.101,285.927,49.101z M283.075,21.801
				c0-0.364-0.304-0.667-0.668-0.667h-0.303c-0.425,0-0.668,0.303-0.668,0.667v5.703h1.639V21.801z"/>
			<path d="M304.31,20.344c-2.366,0-3.701,1.941-3.701,4.247v24.51h-7.826V14.035h7.826v2.427
				c0.364-1.274,1.639-2.427,2.73-2.427h1.881v6.31H304.31z"/>
			<path d="M329.184,35.997h-5.399v13.104h-8.372V5.238h13.833c3.033,0,5.521,2.427,5.521,5.46v19.778
				C334.766,33.753,332.157,35.997,329.184,35.997z M326.394,14.641c0-0.606-0.485-1.092-1.093-1.092h-1.517v15.228h1.639
				c0.546,0,0.971-0.425,0.971-0.971V14.641z"/>
			<path d="M336.343,49.101V5.238h7.462v43.863H336.343z"/>
			<path d="M350.357,49.101c-2.791,0-4.854-2.608-4.854-5.096V32.478c0-2.67,2.427-4.914,5.218-4.914
				l3.883-0.061v-4.308c0-0.364-0.243-0.85-0.85-0.85h-0.85v3.579h-6.127V14.035h10.01c2.791,0,5.157,3.397,5.157,6.249v28.817
				H350.357z M354.604,33.753h-1.092c-0.607,0.061-0.607,0.485-0.607,0.971v7.219h1.699V33.753z"/>
			<path d="M373.595,49.101V21.194c0-0.485,0-0.971-0.607-0.971h-1.092v28.878h-7.401V14.035h11.345
				c2.791,0,5.218,2.245,5.218,4.914v30.152H373.595z"/>
		</g>
	</g>
</svg>
