<?xml version="1.0" encoding="iso-8859-1"?>
<!-- Generator: Adobe Illustrator 19.1.0, SVG Export Plug-In . SVG Version: 6.00 Build 0)  -->
<svg version="1.1" baseProfile="tiny" id="Layer_1" xmlns="http://www.w3.org/2000/svg" xmlns:xlink="http://www.w3.org/1999/xlink"
	 x="0px" y="0px" viewBox="0 0 238.2 78.5" xml:space="preserve">
<g>
	<path fill="#FFFFFF" d="M14.7,44.2H9.3v13.1H0.9V13.5h13.8c3,0,5.5,2.4,5.5,5.5v19.8C20.3,42,17.6,44.2,14.7,44.2z M11.9,22.9
		c0-0.6-0.5-1.1-1.1-1.1H9.3V37h1.6c0.5,0,1-0.4,1-1V22.9z"/>
	<path fill="#FFFFFF" d="M33.4,28.6c-2.4,0-3.7,1.9-3.7,4.2v24.5h-7.8V22.3h7.8v2.4c0.4-1.3,1.6-2.4,2.7-2.4h1.9v6.3H33.4z"/>
	<path fill="#FFFFFF" d="M47,57.3h-7.3c-2.4,0-4.6-1.6-4.6-4.1V26.9c0-2.6,2-4.6,4.6-4.6H47c2.6,0,4.6,2,4.6,4.6V42h-9.1v7.6
		c0,0.4,0.2,0.6,0.5,0.6h0.5c0.4,0,0.6-0.2,0.6-0.6v-6h7.5v9.6C51.6,55.7,49.4,57.3,47,57.3z M44.2,30c0-0.4-0.3-0.7-0.7-0.7h-0.3
		c-0.4,0-0.7,0.3-0.7,0.7v5.7h1.6V30z"/>
	<path fill="#FFFFFF" d="M72.1,57.3V29.1c0-0.5,0-0.6-0.6-0.7h-1.2v28.9H63v-28c0-0.6,0-0.8-0.6-0.8h-1.1v28.9h-7.4V22.3h10.5
		c1.3,0,2,0.7,2.5,1.5v-1.5h7.9c2.5,0,4.8,2.2,4.8,4.9v30.2H72.1z"/>
	<path fill="#FFFFFF" d="M81.8,20.9v-7.5h7.4v7.5H81.8z M89.2,57.3h-7.4V22.3h7.5L89.2,57.3z"/>
	<path fill="#FFFFFF" d="M96.7,57.3c-2.8,0-5.2-2.2-5.2-5V22.3h7.5v27.8c0,0.5,0,1,0.6,1h1.1V22.3h7.4v35.1H96.7z"/>
	<path fill="#FFFFFF" d="M128.5,57.3V29.1c0-0.5,0-0.6-0.6-0.7h-1.2v28.9h-7.4v-28c0-0.6,0-0.8-0.6-0.8h-1.1v28.9h-7.4V22.3h10.5
		c1.3,0,2,0.7,2.5,1.5v-1.5h7.9c2.5,0,4.8,2.2,4.8,4.9v30.2H128.5z"/>
	<path fill="#FFFFFF" d="M161.5,57.3H160v3h-5.3v-3h-7V42.1h8.3V49h2.7v-9.5h-11V18.9c0-3,2.4-5.4,5.5-5.4h1.5v-3.2h5.3v3.2h7v15
		h-8.3v-6.8H156v9.5h11v20.6C167,54.8,164.5,57.3,161.5,57.3z"/>
	<path fill="#FFFFFF" d="M173.5,57.3c-2.8,0-4.9-2.6-4.9-5.1V40.7c0-2.7,2.4-4.9,5.2-4.9l3.9-0.1v-4.3c0-0.4-0.2-0.8-0.8-0.8h-0.8
		v3.6h-6.1V22.3h10c2.8,0,5.2,3.4,5.2,6.2v28.8H173.5z M177.8,42h-1.1c-0.6,0.1-0.6,0.5-0.6,1v7.2h1.7V42z"/>
	<path fill="#FFFFFF" d="M199.8,57.3h-8.3c-2.8-5.2-4.3-7.1-4.3-15.5V22.3h7.3V44c0,2.6,0.3,5.2,1.2,6.2c0.8-1,1-3.5,1-6.1V22.3h7.4
		v19.5C204.1,50.1,203.1,51.9,199.8,57.3z"/>
	<path fill="#FFFFFF" d="M218.2,57.3h-7.3c-2.4,0-4.6-1.6-4.6-4.1V26.9c0-2.6,2-4.6,4.6-4.6h7.3c2.6,0,4.6,2,4.6,4.6V42h-9.1v7.6
		c0,0.4,0.2,0.6,0.5,0.6h0.5c0.4,0,0.6-0.2,0.6-0.6v-6h7.5v9.6C222.8,55.7,220.5,57.3,218.2,57.3z M215.3,30c0-0.4-0.3-0.7-0.7-0.7
		h-0.3c-0.4,0-0.7,0.3-0.7,0.7v5.7h1.6V30z"/>
	<path fill="#FFFFFF" d="M236.5,28.6c-2.4,0-3.7,1.9-3.7,4.2v24.5H225V22.3h7.8v2.4c0.4-1.3,1.6-2.4,2.7-2.4h1.9v6.3H236.5z"/>
</g>
<path fill="#FFFFFF" d="M68.2,1c1.8,0,3.1,0.8,3.9,1.6c0.9,1,1.5,2.3,1.9,3.2C74,6,74.1,6,74.2,6l0.6-0.1c0.1,0,0.1-0.1,0.1-0.3
	l-0.2-4.7c0-0.2,0-0.3-0.3-0.3c-0.1,0-0.2,0.1-0.3,0.2l-0.3,0.4c-0.1,0.2-0.3,0.3-0.6,0C72.4,0.7,70.7,0,68.4,0
	C64.1,0,61,0.9,59,7.1l-1.9,5l-2.9-6.5c0,0-1.2-2.9-1.7-2.9c-0.5,0-1.8,2.7-1.8,2.7s-3.1,6.7-3.3,7.2l0,0L43.7,1.8
	C43.6,1.4,43.8,1,44.3,1h0.4c0.2,0,0.2-0.1,0.2-0.2V0.3c0-0.1,0-0.2-0.2-0.2c-0.2,0-1.3,0-2.3,0.1c-0.1,0-0.3,0.3-0.4,0.8
	c-0.7,1.6-4.1,9-4.3,9.6h-0.1l-4.2-9.8c-0.1-0.3-0.3-0.5-0.6-0.5c-0.3,0-0.5,0.4-0.6,0.6C31.8,2,27,15,26.8,15.5
	c-0.2,0.5-0.7,0.8-1,0.8h-0.5c-0.1,0-0.2,0.1-0.2,0.2v0.6c0,0.1,0,0.1,0.1,0.1c0.2,0,0.9-0.1,2.2-0.1c1.4,0,2.2,0.1,2.5,0.1
	c0.1,0,0.2-0.1,0.2-0.2v-0.6c0-0.1,0-0.2-0.2-0.2h-0.6c-0.6,0-0.8-0.3-0.8-0.7c0-1.3,2.7-9,3.4-11h0.1l3.4,8.3c0,0,0.8,1.8,1.2,1.8
	c0.7,0,1.8-2.6,1.8-2.6s3.1-7,3.3-7.5l0,0l3.6,10.8c0.2,0.5-0.1,0.8-0.6,0.8h-0.4c-0.2,0-0.2,0.1-0.2,0.2v0.6c0,0.1,0,0.2,0.2,0.2
	c0.2,0,0.8,0,1.9,0c0.2,0,0.3-0.1,0.4-0.2c0.1-0.1,0.2-0.2,0.2-0.3c0.1-0.3,4.2-8.9,4.4-9.6h0.1l4.2,9.5c0.1,0.3,0.3,0.5,0.6,0.5
	c1.2,0,1.7-0.5,2.2-1.9c0.3-0.7,1.8-5,3.2-8.6C63.2,2.2,65.7,1,68.2,1z M75.8,9.6c-0.2,0-1,0.1-3,0.1c-1.9,0-3-0.1-3.3-0.1
	c-0.1,0-0.1,0-0.1,0.2v0.5c0,0.1,0,0.2,0.2,0.2h1c0.6,0,0.8,0.2,0.8,1.1v1.7c0,1.2,0,1.9-0.6,2.1c-0.8,0.4-1.7,0.4-3.2,0.4
	c-2.3,0-4-1.5-5.9-3c-0.3-0.2-0.5-0.1-0.5,0c-0.1,0.1-0.4,0.9-0.5,1.1c-0.1,0.2-0.1,0.4,0.1,0.7c1.6,1.8,4.3,2.5,6.6,2.5
	c2.8,0,4.7-0.6,6.6-1.5c0.2-0.1,0.4-0.2,0.4-0.4c0-0.2-0.1-0.4-0.1-0.7v-3.1c0-0.7,0.3-0.9,0.7-0.9h0.8c0.1,0,0.2,0,0.2-0.2V9.8
	C76,9.7,76,9.6,75.8,9.6z"/>
<g>
	<path fill="#FFFFFF" d="M9.7,70.2v1c0,2.8-0.7,6.5-4.4,6.5S0.5,73.9,0.5,71c0-3,1-6.9,4.8-6.9c2.1,0,3.4,1.3,4,3.1l-2.6,1
		c-0.1-0.7-0.3-1.7-1.4-1.7c-1.8-0.1-2,3.2-2,4.4c0,1.4,0.1,4.4,2.1,4.4c1.4,0,1.6-1.8,1.6-2.7H5.3v-2.5H9.7z"/>
	<path fill="#FFFFFF" d="M11,77.5V64.3h2.7c1.7,0,4.8,0.2,4.8,3.8c0,1.5-0.6,2.7-1.9,3.4l2.4,6h-2.8l-2.4-6.1h0v6.1H11z M13.7,70
		l0.5,0c1.2,0,1.7-0.8,1.7-1.9c0-0.9-0.5-1.7-1.8-1.6h-0.4V70z"/>
	<path fill="#FFFFFF" d="M29.2,70.9c0,5-2.4,6.8-4.8,6.8c-2.4,0-4.8-1.9-4.8-6.8s2.4-6.8,4.8-6.8C26.8,64.1,29.2,66,29.2,70.9z
		 M24.4,75.3c1.8,0,1.9-3.3,1.9-4.4c0-1.2-0.1-4.4-1.9-4.4c-1.8,0-1.9,3.2-1.9,4.4C22.5,72,22.6,75.3,24.4,75.3z"/>
	<path fill="#FFFFFF" d="M33.1,64.3v8.5c0,1-0.1,2.5,1.3,2.5c1.3,0,1.3-1,1.3-1.9v-9.1h2.7v9.6c0,1.4-0.2,3.8-4,3.8
		c-2.5,0-4-1.1-4-3.6v-9.8H33.1z"/>
	<path fill="#FFFFFF" d="M40.2,77.5V64.3H43c0.6,0,4.6-0.4,4.6,3.9c0,2.5-1.6,3.9-4.1,3.9l-0.6,0v5.4H40.2z M42.9,69.9
		c1.3,0.1,2-0.4,2-1.8c0-0.9-0.4-1.7-1.5-1.7h-0.5V69.9z"/>
	<path fill="#FFFFFF" d="M59,67.3c-0.5-0.5-1.2-0.8-1.9-0.8c-0.8,0-1.4,0.5-1.4,1.3c0,2.2,4.1,2.3,4.1,5.9c0,2.3-1.4,4.1-3.9,4.1
		c-0.8,0-1.7-0.2-2.3-0.7v-2.5c0.6,0.4,1.2,0.7,2,0.7c0.9,0,1.5-0.6,1.5-1.4c0-1-0.8-1.4-1.6-1.9c-1.5-1-2.5-2-2.5-3.9
		c0-2.1,1.2-3.9,3.5-3.9c0.9,0,1.6,0.2,2.4,0.6V67.3z"/>
	<path fill="#FFFFFF" d="M63.7,64.3v8.5c0,1-0.1,2.5,1.3,2.5c1.3,0,1.3-1,1.3-1.9v-9.1H69v9.6c0,1.4-0.2,3.8-4,3.8
		c-2.5,0-4-1.1-4-3.6v-9.8H63.7z"/>
	<path fill="#FFFFFF" d="M70.8,77.5V64.3h2.8c0.6,0,4.6-0.4,4.6,3.9c0,2.5-1.6,3.9-4.1,3.9l-0.6,0v5.4H70.8z M73.5,69.9
		c1.3,0.1,2-0.4,2-1.8c0-0.9-0.4-1.7-1.5-1.7h-0.5V69.9z"/>
	<path fill="#FFFFFF" d="M79.3,77.5V64.3h2.8c0.6,0,4.6-0.4,4.6,3.9c0,2.5-1.6,3.9-4.1,3.9l-0.6,0v5.4H79.3z M82,69.9
		c1.3,0.1,2-0.4,2-1.8c0-0.9-0.4-1.7-1.5-1.7H82V69.9z"/>
	<path fill="#FFFFFF" d="M90.5,64.3v10.7h2.8v2.5h-5.5V64.3H90.5z"/>
	<path fill="#FFFFFF" d="M99.8,64.3v2.5H97v2.9h2.4v2.5H97v3h2.8v2.5h-5.4V64.3H99.8z"/>
	<path fill="#FFFFFF" d="M105.5,64.3l1.3,7.8h0l1.1-7.8h3.6l1.4,13.2h-2.8l-0.6-9.5h0l-0.4,3.3l-1.2,6.2h-2.1l-1.3-6.3l-0.5-2.9V68
		h0l-0.4,9.5h-2.9l1.2-13.2H105.5z"/>
	<path fill="#FFFFFF" d="M119.6,64.3v2.5h-2.7v2.9h2.4v2.5h-2.4v3h2.8v2.5h-5.4V64.3H119.6z"/>
	<path fill="#FFFFFF" d="M123.7,64.3l3.4,8l0,0c-0.2-0.6-0.2-1.3-0.2-2v-5.9h2.7v13.2H127l-3.3-8l0,0l0.1,1.3l0,0.5v6.1h-2.7V64.3
		H123.7z"/>
	<path fill="#FFFFFF" d="M137.5,64.3v2.5h-2.1v10.7h-2.7V66.8h-2.1v-2.5H137.5z"/>
	<path fill="#FFFFFF" d="M143.1,64.3l3.3,13.2h-2.9l-0.5-2.2h-2.7l-0.5,2.2h-2.7l3.2-13.2H143.1z M141.9,69.7l-0.3-2h0l-0.3,2
		l-0.6,3.5h1.9L141.9,69.7z"/>
	<path fill="#FFFFFF" d="M150,64.3v10.7h2.8v2.5h-5.5V64.3H150z"/>
	<path fill="#FFFFFF" d="M161.1,64.3v13.2h-2.7V64.3H161.1z"/>
	<path fill="#FFFFFF" d="M165.5,64.3l3.4,8l0,0c-0.2-0.6-0.2-1.3-0.2-2v-5.9h2.7v13.2h-2.5l-3.3-8l0,0l0.1,1.3l0,0.5v6.1h-2.7V64.3
		H165.5z"/>
	<path fill="#FFFFFF" d="M178.6,67.3c-0.5-0.5-1.2-0.8-1.9-0.8c-0.8,0-1.4,0.5-1.4,1.3c0,2.2,4.1,2.3,4.1,5.9c0,2.3-1.4,4.1-3.9,4.1
		c-0.8,0-1.7-0.2-2.3-0.7v-2.5c0.6,0.4,1.2,0.7,2,0.7c0.9,0,1.5-0.6,1.5-1.4c0-1-0.8-1.4-1.6-1.9c-1.5-1-2.5-2-2.5-3.9
		c0-2.1,1.2-3.9,3.6-3.9c0.9,0,1.6,0.2,2.4,0.6V67.3z"/>
	<path fill="#FFFFFF" d="M183.3,64.3v8.5c0,1-0.1,2.5,1.3,2.5c1.3,0,1.3-1,1.3-1.9v-9.1h2.7v9.6c0,1.4-0.2,3.8-4,3.8
		c-2.5,0-4-1.1-4-3.6v-9.8H183.3z"/>
	<path fill="#FFFFFF" d="M190.4,77.5V64.3h2.7c1.7,0,4.8,0.2,4.8,3.8c0,1.5-0.6,2.7-1.9,3.4l2.4,6h-2.8l-2.4-6.1h0v6.1H190.4z
		 M193,70l0.5,0c1.2,0,1.7-0.8,1.7-1.9c0-0.9-0.5-1.7-1.8-1.6H193V70z"/>
	<path fill="#FFFFFF" d="M205.1,64.3l3.3,13.2h-2.9l-0.5-2.2h-2.7l-0.5,2.2h-2.7l3.2-13.2H205.1z M203.9,69.7l-0.3-2h0l-0.3,2
		l-0.6,3.5h1.9L203.9,69.7z"/>
	<path fill="#FFFFFF" d="M211.9,64.3l3.4,8l0,0c-0.2-0.6-0.2-1.3-0.2-2v-5.9h2.7v13.2h-2.5l-3.3-8l0,0l0.1,1.3l0,0.5v6.1h-2.7V64.3
		H211.9z"/>
	<path fill="#FFFFFF" d="M226.3,66.8c-0.3-0.1-0.7-0.1-1-0.1c-2.4,0-3.4,2.1-3.4,4.1c0,2,1,4.4,3.4,4.4c0.3,0,0.7-0.1,1-0.2v2.5
		c-0.4,0.2-0.8,0.2-1.2,0.2c-3.9,0-6-3.4-6-6.9c0-3.3,2.2-6.6,5.9-6.6c0.5,0,0.9,0.1,1.4,0.2V66.8z"/>
	<path fill="#FFFFFF" d="M232.8,64.3v2.5h-2.7v2.9h2.4v2.5h-2.4v3h2.8v2.5h-5.4V64.3H232.8z"/>
</g>
</svg>
