<svg xmlns="http://www.w3.org/2000/svg" viewBox="0 0 415.08 102.41"><title>color-tagline</title><path d="M298.55,4.43v0A4.42,4.42,0,0,1,303,0a4.37,4.37,0,0,1,4.39,4.38v0a4.42,4.42,0,0,1-4.42,4.4,4.37,4.37,0,0,1-4.39-4.38m8.3,0v0a3.9,3.9,0,1,0-7.79,0v0a3.9,3.9,0,1,0,7.79,0M301.19,2h2a1.92,1.92,0,0,1,1.41.5,1.38,1.38,0,0,1,.38,1v0a1.41,1.41,0,0,1-1,1.41l1.11,1.64H304l-1-1.47h-.8V6.56h-1Zm2,2.23c.51,0,.78-.27.78-.65v0c0-.44-.31-.67-.8-.67h-1V4.22Z" fill="#54565a"/><path d="M0,0H9.27a6.45,6.45,0,0,1,5.52,3.11l12.42,22,12.42-22A6.46,6.46,0,0,1,45.15,0h9.27V54.43H42.53V20L30.77,39.49H23.52L11.89,20V54.43H0Z" fill="#54565a"/><path d="M66.46,5.7A5.7,5.7,0,0,1,72.16,0H87.68c17.11,0,28.92,11.74,28.92,27.06v.15c0,15.32-11.81,27.21-28.92,27.21H66.46ZM87.68,43.62c9.8,0,16.41-6.61,16.41-16.25v-.16c0-9.64-6.61-16.4-16.41-16.4H78.43V43.62Z" fill="#54565a"/><path d="M125.92,0h6.28a5.69,5.69,0,0,1,5.69,5.69V43.54h21.44a5.69,5.69,0,0,1,5.7,5.69v5.19H125.92Z" fill="#ce0e2d"/><path d="M178.57,0h6.27V54.42h-12V5.7a5.7,5.7,0,0,1,5.7-5.7" fill="#ce0e2d"/><path d="M192.79,0h8.74a6.44,6.44,0,0,1,6,4.2l12.67,34.13L232.9,4.22A6.46,6.46,0,0,1,239,0h8.41l-22,54.81H214.79Z" fill="#ce0e2d"/><path d="M259.84,0H293.5V10.65H266.1v11h25.65V32.34H266.1V43.77h27.79v4.95a5.7,5.7,0,0,1-5.7,5.7h-34V5.64A5.64,5.64,0,0,1,259.84,0" fill="#ce0e2d"/><polygon points="126.34 77.14 128.77 77.14 134.87 94.78 140.99 77.14 143.33 77.14 135.87 98 133.83 98 126.34 77.14" fill="#54565a"/><path d="M146,76.76h2.37v2.51H146Zm.12,5.68h2.13V97.85h-2.13Z" fill="#54565a"/><path d="M152.31,82.44h2.13v3.4a6.43,6.43,0,0,1,2.05-2.66,4.81,4.81,0,0,1,3.25-1v2.31h-.12a5.4,5.4,0,0,0-2,.37A4.52,4.52,0,0,0,156,86a5.36,5.36,0,0,0-1.11,1.88,8,8,0,0,0-.4,2.61v7.33h-2.13Z" fill="#54565a"/><path d="M167.31,98.09a5.34,5.34,0,0,1-1.53-.21,3.17,3.17,0,0,1-1.21-.66,3.26,3.26,0,0,1-.81-1.18,4.59,4.59,0,0,1-.3-1.76V84.36H161.6V82.44h1.86v-4.5h2.13v4.5h4v1.92h-4V94a2.1,2.1,0,0,0,.61,1.73,2.46,2.46,0,0,0,1.61.49,4.51,4.51,0,0,0,1.81-.44v1.83a6.16,6.16,0,0,1-1.07.38,4.79,4.79,0,0,1-1.24.15" fill="#54565a"/><path d="M177.19,98.15a4.73,4.73,0,0,1-3.7-1.49,6,6,0,0,1-1.33-4.1V82.44h2.13v9.5a4.83,4.83,0,0,0,.94,3.18,3.22,3.22,0,0,0,2.62,1.11,4,4,0,0,0,1.55-.31,3.58,3.58,0,0,0,1.24-.89,4.07,4.07,0,0,0,.81-1.39,5.17,5.17,0,0,0,.3-1.79V82.44h2.13V97.85h-2.13V95.34a6.41,6.41,0,0,1-1.73,2,4.53,4.53,0,0,1-2.83.83" fill="#54565a"/><path d="M191.79,98.18a5.29,5.29,0,0,1-1.87-.33,4.65,4.65,0,0,1-1.58-.93,4.46,4.46,0,0,1-1.09-1.49,4.78,4.78,0,0,1-.42-2.05v-.11a4.54,4.54,0,0,1,1.55-3.69,6.33,6.33,0,0,1,4.13-1.28,11.69,11.69,0,0,1,2.18.17,16.72,16.72,0,0,1,1.79.45V88a3.78,3.78,0,0,0-1-2.87,4.05,4.05,0,0,0-2.9-1,7.33,7.33,0,0,0-2.14.31,11.44,11.44,0,0,0-1.8.73l-.67-1.74a14.66,14.66,0,0,1,2.26-.87,9.12,9.12,0,0,1,2.59-.35,5.86,5.86,0,0,1,4.33,1.54,4.73,4.73,0,0,1,1.11,1.76,6.88,6.88,0,0,1,.39,2.41v9.91h-2.13l0-2.25a5.77,5.77,0,0,1-1.84,1.84,5.25,5.25,0,0,1-2.87.74m.46-1.78a4.69,4.69,0,0,0,1.65-.28,4,4,0,0,0,1.35-.81,4.22,4.22,0,0,0,.92-1.25,3.64,3.64,0,0,0,.34-1.56V90.57a12.59,12.59,0,0,0-1.67-.44,11,11,0,0,0-2.06-.18,4.19,4.19,0,0,0-2.84.87,3,3,0,0,0-1,2.36v.09a2.91,2.91,0,0,0,.95,2.29,3.39,3.39,0,0,0,2.34.84" fill="#54565a"/><rect x="202.47" y="76.49" width="2.13" height="21.37" fill="#54565a"/><path d="M224.67,98.15a8.2,8.2,0,0,1-6.38-2.9,10.2,10.2,0,0,1-1.88-3.33,13,13,0,0,1-.68-4.3v-.18a12.54,12.54,0,0,1,.7-4.29,10.36,10.36,0,0,1,1.9-3.36,8.41,8.41,0,0,1,6.49-3,8.28,8.28,0,0,1,3.6.71,11,11,0,0,1,2.7,1.84l-1.36,1.68a9.5,9.5,0,0,0-2.18-1.55,6.16,6.16,0,0,0-2.79-.6,5.94,5.94,0,0,0-2.67.61A6.43,6.43,0,0,0,220,81.28a8.25,8.25,0,0,0-1.42,2.7,10.73,10.73,0,0,0-.52,3.43v.12a11,11,0,0,0,.52,3.49A8.3,8.3,0,0,0,220,93.71a6.43,6.43,0,0,0,2.14,1.75,6,6,0,0,0,2.67.62,6,6,0,0,0,2.79-.62,10.45,10.45,0,0,0,2.32-1.69l1.34,1.54a11.15,11.15,0,0,1-2.89,2.07,8.22,8.22,0,0,1-3.68.77" fill="#54565a"/><path d="M238.28,98.18a5.29,5.29,0,0,1-1.87-.33,4.51,4.51,0,0,1-1.57-.93,4.35,4.35,0,0,1-1.1-1.49,4.78,4.78,0,0,1-.42-2.05v-.11a4.52,4.52,0,0,1,1.56-3.69A6.28,6.28,0,0,1,239,88.3a11.69,11.69,0,0,1,2.18.17,16.14,16.14,0,0,1,1.79.45V88a3.74,3.74,0,0,0-1-2.87,4.05,4.05,0,0,0-2.9-1,7.38,7.38,0,0,0-2.14.31,10.94,10.94,0,0,0-1.79.73l-.68-1.74a15.07,15.07,0,0,1,2.26-.87,9.17,9.17,0,0,1,2.59-.35,5.85,5.85,0,0,1,4.33,1.54,4.73,4.73,0,0,1,1.11,1.76,6.88,6.88,0,0,1,.39,2.41v9.91H243l0-2.25a5.74,5.74,0,0,1-1.83,1.84,5.29,5.29,0,0,1-2.88.74m.46-1.78a4.78,4.78,0,0,0,1.66-.28,3.88,3.88,0,0,0,1.34-.81,4.05,4.05,0,0,0,.92-1.25A3.5,3.5,0,0,0,243,92.5V90.57a12.19,12.19,0,0,0-1.67-.44,11,11,0,0,0-2.06-.18,4.19,4.19,0,0,0-2.84.87,3,3,0,0,0-1,2.36v.09a2.91,2.91,0,0,0,1,2.29,3.39,3.39,0,0,0,2.34.84" fill="#54565a"/><path d="M248.87,82.44H251v3.4a6.43,6.43,0,0,1,2.05-2.66,4.82,4.82,0,0,1,3.25-1v2.31h-.12a5.4,5.4,0,0,0-2,.37A4.52,4.52,0,0,0,252.51,86a5.36,5.36,0,0,0-1.11,1.88,8,8,0,0,0-.4,2.61v7.33h-2.13Z" fill="#54565a"/><path d="M264.49,98.18a6.48,6.48,0,0,1-2.67-.55,6.3,6.3,0,0,1-2.16-1.56,7.36,7.36,0,0,1-1.45-2.49,9.52,9.52,0,0,1-.53-3.3v-.15a10.1,10.1,0,0,1,.49-3.24,7.87,7.87,0,0,1,1.34-2.52,6.46,6.46,0,0,1,2-1.64,5.49,5.49,0,0,1,2.51-.59,5.53,5.53,0,0,1,4.56,2.23,7.47,7.47,0,0,1,1.21,2.52,11.65,11.65,0,0,1,.42,3.21v.42a3.38,3.38,0,0,1,0,.47H259.81a7.29,7.29,0,0,0,.5,2.25,5.43,5.43,0,0,0,1.05,1.65,4.44,4.44,0,0,0,1.47,1,4.3,4.3,0,0,0,1.74.36,4.83,4.83,0,0,0,2.24-.49,7.05,7.05,0,0,0,1.76-1.29l1.21,1.36a8.31,8.31,0,0,1-2.29,1.71,6.64,6.64,0,0,1-3,.63m3.61-8.85a9.14,9.14,0,0,0-.35-2.07,5.24,5.24,0,0,0-.8-1.7,3.84,3.84,0,0,0-1.24-1.14,3.6,3.6,0,0,0-3.28,0,4.06,4.06,0,0,0-1.3,1.08,5.88,5.88,0,0,0-.89,1.67,8.42,8.42,0,0,0-.43,2.19Z" fill="#54565a"/><path d="M272.22,100.43a3.39,3.39,0,0,0,1.54-1,2.35,2.35,0,0,0,.38-1.56h-1.09v-3h2.66v2.6a4.11,4.11,0,0,1-.76,2.69,4.32,4.32,0,0,1-2.38,1.34Z" fill="#54565a"/><path d="M293.61,77h2.19l7.9,20.83h-2.37l-2-5.44H290l-2,5.44h-2.28Zm5,13.38-3.9-10.51L290.74,90.4Z" fill="#54565a"/><path d="M306.39,82.44h2.13V85a6.41,6.41,0,0,1,1.73-2,4.55,4.55,0,0,1,2.83-.83,4.67,4.67,0,0,1,3.7,1.51,6,6,0,0,1,1.33,4.11V97.85H316v-9.5a4.84,4.84,0,0,0-.93-3.18,3.24,3.24,0,0,0-2.62-1.11,3.68,3.68,0,0,0-1.57.33,3.8,3.8,0,0,0-1.23.9,4.07,4.07,0,0,0-.81,1.39,5.17,5.17,0,0,0-.3,1.79v9.38h-2.13Z" fill="#54565a"/><path d="M330.94,82.44h2.27l-5.47,15.68a8.13,8.13,0,0,1-1.88,3.35,3.76,3.76,0,0,1-2.62.94,5.75,5.75,0,0,1-2.78-.71l.65-1.77a5.88,5.88,0,0,0,.93.39,3.4,3.4,0,0,0,1.08.17,2.05,2.05,0,0,0,1.47-.58,6.06,6.06,0,0,0,1.2-2.06l-5.92-15.41h2.31l4.61,12.69Z" fill="#54565a"/><polygon points="335.2 82.44 337.45 82.44 340.85 94.72 344.37 82.41 346.18 82.41 349.7 94.72 353.13 82.44 355.29 82.44 350.68 97.97 348.75 97.97 345.26 85.96 341.74 97.97 339.82 97.97 335.2 82.44" fill="#54565a"/><path d="M357.87,76.49H360V85a6.55,6.55,0,0,1,1.73-2,4.53,4.53,0,0,1,2.83-.83,4.67,4.67,0,0,1,3.7,1.51,6,6,0,0,1,1.33,4.11V97.85h-2.13v-9.5a4.79,4.79,0,0,0-.94-3.18,3.2,3.2,0,0,0-2.61-1.11,3.65,3.65,0,0,0-1.57.33,3.8,3.8,0,0,0-1.23.9,4.07,4.07,0,0,0-.81,1.39,5.17,5.17,0,0,0-.3,1.79v9.38h-2.13Z" fill="#54565a"/><path d="M379.43,98.18a6.4,6.4,0,0,1-2.66-.55,6.47,6.47,0,0,1-2.18-1.56,7.51,7.51,0,0,1-1.44-2.49,9.76,9.76,0,0,1-.53-3.3v-.15a10.39,10.39,0,0,1,.49-3.24,7.89,7.89,0,0,1,1.35-2.52,6.32,6.32,0,0,1,2-1.64,5.49,5.49,0,0,1,2.51-.59,5.53,5.53,0,0,1,4.56,2.23,7.49,7.49,0,0,1,1.22,2.52,12.05,12.05,0,0,1,.41,3.21v.42a3.38,3.38,0,0,1,0,.47H374.75a7,7,0,0,0,.51,2.25,5.08,5.08,0,0,0,1.05,1.65,4.46,4.46,0,0,0,3.21,1.37,4.82,4.82,0,0,0,2.23-.49,7.05,7.05,0,0,0,1.76-1.29l1.22,1.36a8.5,8.5,0,0,1-2.3,1.71,6.64,6.64,0,0,1-3,.63M383,89.33a9.73,9.73,0,0,0-.34-2.07,5.47,5.47,0,0,0-.81-1.7,3.84,3.84,0,0,0-1.24-1.14A3.32,3.32,0,0,0,379,84a3.41,3.41,0,0,0-1.61.38,4,4,0,0,0-1.28,1.08,5.65,5.65,0,0,0-.9,1.67,8.42,8.42,0,0,0-.43,2.19Z" fill="#54565a"/><path d="M388.25,82.44h2.13v3.4a6.33,6.33,0,0,1,2-2.66,4.82,4.82,0,0,1,3.25-1v2.31h-.11a5.45,5.45,0,0,0-2,.37A4.4,4.4,0,0,0,391.89,86a5.21,5.21,0,0,0-1.11,1.88,7.7,7.7,0,0,0-.4,2.61v7.33h-2.13Z" fill="#54565a"/><path d="M403.86,98.18a6.43,6.43,0,0,1-2.66-.55A6.33,6.33,0,0,1,399,96.07a7.36,7.36,0,0,1-1.45-2.49,9.76,9.76,0,0,1-.53-3.3v-.15a10.39,10.39,0,0,1,.49-3.24,8.09,8.09,0,0,1,1.35-2.52,6.32,6.32,0,0,1,2-1.64,5.5,5.5,0,0,1,2.52-.59A5.53,5.53,0,0,1,408,84.37a7.49,7.49,0,0,1,1.22,2.52,12.05,12.05,0,0,1,.41,3.21v.42a3.38,3.38,0,0,1,0,.47H399.18a7,7,0,0,0,.51,2.25,5.08,5.08,0,0,0,1.05,1.65,4.31,4.31,0,0,0,1.46,1,4.35,4.35,0,0,0,1.75.36,4.79,4.79,0,0,0,2.23-.49,7.05,7.05,0,0,0,1.76-1.29l1.22,1.36a8.35,8.35,0,0,1-2.3,1.71,6.61,6.61,0,0,1-3,.63m3.61-8.85a9.14,9.14,0,0,0-.34-2.07,5.69,5.69,0,0,0-.8-1.7,4,4,0,0,0-1.25-1.14A3.29,3.29,0,0,0,403.4,84a3.34,3.34,0,0,0-1.6.38,3.92,3.92,0,0,0-1.29,1.08,5.65,5.65,0,0,0-.9,1.67,8.86,8.86,0,0,0-.43,2.19Z" fill="#54565a"/><rect x="412.42" y="94.81" width="2.66" height="3.05" fill="#54565a"/></svg>