<?xml version="1.0" encoding="UTF-8"?>
<svg id="Layer_1" data-name="Layer 1" xmlns="http://www.w3.org/2000/svg" viewBox="0 0 162.71 52.56">
  <defs>
    <style>
      .cls-1 {
        stroke-width: 0px;
      }
    </style>
  </defs>
  <path class="cls-1" d="M23.21,27.57c-1.35-.71-2.48-.86-6.77-.86H0v20.48h6.51v-5.03h10.51c3.29,0,4.87-.18,5.96-.71,2.16-.98,3-3.01,3-7.28,0-3.71-.77-5.56-2.77-6.6ZM16.02,37.18H6.51v-5.5h9.51c2.84,0,3.45.55,3.45,3.01,0,1.93-.77,2.49-3.45,2.49Z"/>
  <path class="cls-1" d="M87.98,33.46c0-3.22-.81-5.07-2.58-5.96-1.23-.58-2.77-.8-5.96-.8h-18.54v20.48h6.51v-5.16h10.03c1.77,0,2.29.06,2.8.4.58.4.81,1.04.81,2.21v2.55h6.64v-3.22c0-1.57-.16-2.3-.65-3.04-.65-1.01-1.55-1.32-4-1.44l-1.06-.06c2.61-.37,3.35-.55,4.16-1.11,1.23-.8,1.84-2.43,1.84-4.85ZM77.63,37.02h-10.22v-5.28h10.45c1.97,0,2.48.09,3,.58.42.43.55.98.55,2.43,0,1.87-.65,2.27-3.77,2.27Z"/>
  <polygon class="cls-1" points="114.71 26.71 89.01 26.71 89.01 31.77 98.59 31.77 98.59 47.18 105.13 47.18 105.13 31.77 114.71 31.77 114.71 26.71"/>
  <path class="cls-1" d="M119.93,26.71l-12.09,20.48h7.42l2.06-3.65h13.86l2.13,3.65h7.16l-11.77-20.48h-8.77ZM119.67,39.26l4.58-8.17,4.64,8.17h-9.22Z"/>
  <polygon class="cls-1" points="147.91 42.12 147.91 26.71 141.37 26.71 141.37 47.18 162.71 47.18 162.71 42.12 147.91 42.12"/>
  <path class="cls-1" d="M60.19,24.12c-5.66,3.18-12.49,10.73-12.76,11.1l-.29.22,5.02,2.1-11.72,4.81-3.67-11.84,5.3,2.82s.09-5.2,1.13-9.34c.66-2.26.96-3.3,1.5-4.4l-.32-.15c-.44.89-.82,1.78-1.14,2.65-8.4.02-15.21,6.83-15.21,15.24s6.82,15.24,15.24,15.24,15.24-6.82,15.24-15.24c0-3.42-1.14-6.56-3.04-9.1,1.59-1.53,3.29-2.94,4.91-3.84l-.21-.26ZM43.3,49.36c-6.64,0-12.04-5.4-12.04-12.04,0-6.28,4.83-11.41,10.97-11.96-.69,2.6-1.02,4.85-1.31,6.27l-4.82-2.05,3.15,16.07,15.22-7.94-5.35-2.31c.75-.97,2.26-2.85,4.11-4.86,1.33,1.93,2.12,4.26,2.12,6.78,0,6.64-5.4,12.04-12.04,12.04Z"/>
  <path class="cls-1" d="M35.2,17.3c.15.83.76,1.63,1.31,2.34.67.85.99,1.25,1.28,1.25.34,0-.01-.59,1.21-2.84,1.07-1.96,2.4-4.18,3.72-6,.9.87,1.9,1.42,2.98,1.42,3.63,0,10.7-1.87,12.72-5.22.28-.45.48-1.02.37-1.63-.32-1.7-2.66-6.41-4.88-6.59C53.57,0,53.12,0,52.78,0,45.25,0,35.74,4.51,36.08,6.41c.05.31.3.66.46.92.06.09.12.14.16.14s.13-.05.24-.17c1.59-1.58,4.65-2.93,8.27-3.73-.26.33-1.58,1.51-4.28,5.03l-.16-.14c-.13-.12-.25-.17-.32-.17-.11,0-.16.09-.13.26.02.12.07.26.17.43l.07.14c-2.4,3.14-5.6,6.76-5.35,8.18ZM49.11,4.09c.09-.12.1-.19.09-.26-.01-.07-.07-.14-.18-.24-.13-.12-.46-.33-.84-.52,1.28-.14,2.57-.24,3.9-.24.29,0,4.3.33,4.59,2.01.37,2.1-6.78,5.06-11.47,5.06-.27,0-.52,0-.77-.02,2-2.46,4.24-5.25,4.66-5.79Z"/>
  <path class="cls-1" d="M54.42,16c-.62.83-1.47,1.95-1.26,3.12.18,1.01,1.31,2.08,1.63,2.08.5,0,.76-.91.93-1.17,2.3-3.25,4.56-5.74,5.88-6.54.14-.08.23-.1.33-.1.57,0,.98,1.04,1.42,1.04.22,0,2.04-1.48,1.79-2.93-.09-.52-.54-1.12-1.16-1.12-.99,0-3.31,2-4.6,3.17-.02-.13.39-.73.79-1.4.19-.34.39-.62.33-.93-.08-.47-.82-1.43-1.37-1.43-.12,0-.24.05-.34.18-1.73,2.29-2.95,4.08-4.38,6.05Z"/>
  <path class="cls-1" d="M64.38,16.94c.29,1.66,2.5,3.64,3.3,4.23.34.26.93.34,1.32.34,2.6,0,5.4-3.27,5.86-5.53.09-.47.04-1.01-.04-1.51-.15-.86-.53-1.74-1.26-1.97.19-.03.36-.05.54-.05.25,0,.44-.03.41-.18-.03-.18-.44-.93-1.07-1.58-.75-.75-1.1-1.06-1.82-1.06-.45,0-1.05.08-1.76.44-2.54,1.35-5.96,4.13-5.48,6.88ZM72.3,12.84c-.4.42-.61,1.06-.55,1.4.09.52.36.75.41,1.04.06.36-.59,1.43-1.49,2.26-.43.39-2.18,1.82-3.02,1.82-.3,0-.73-.36-.8-.73-.26-1.64,2.71-4.7,5.45-5.79Z"/>
  <path class="cls-1" d="M95.4,9.9c.94,0,1.74-1.66,1.63-2.29-.18-1.04-1.27-1.74-1.69-1.74-.47,0-1.94.68-1.66,2.23.17.93,1.26,1.79,1.73,1.79Z"/>
  <path class="cls-1" d="M96.16,21.82c1.34,0,2.7-1.53,3.51-2.28.21,1.17,1.19,2.13,2.26,2.13s3.27-1.94,4.51-3.42c.24,1.06,3.01,3.68,4.09,3.68,1.94,0,3.68-1.16,5.07-2.51.31.91,1.25,1.78,1.55,1.78.5,0,.76-.91.93-1.17,2.3-3.25,4.56-5.74,5.88-6.54.14-.08.23-.1.33-.1.57,0,.98,1.04,1.42,1.04.22,0,2.04-1.48,1.79-2.93-.09-.52-.54-1.12-1.16-1.12-.99,0-3.31,2-4.6,3.17-.02-.13.39-.73.79-1.4.19-.34.39-.62.33-.93-.08-.47-.82-1.43-1.37-1.43-.12,0-.24.05-.34.18-1.73,2.29-2.95,4.08-4.38,6.05-.27.35-.57.76-.81,1.2-1.04.77-2.51,1.7-4.48,2.51-.28.1-.8.26-1.24.26-.77,0-1.06-.55-1.14-.96-.08-.47.08-1.12.41-1.87.65.6,1.45.91,1.97.91,1.86,0,5.32-3.53,4.89-6.02-.06-.34-.21-.78-1.25-1.64-.75-.73-1.54-1.27-2.06-1.27-.94,0-2.31.83-3.96,2.7-1.09,1.23-2.12,2.61-2.53,4.13-.32.24-.94,1-1.43,1.48-1.86,1.79-2.49,2.18-3.08,2.18-.2,0-.29-.08-.31-.23-.09-.52.51-1.45,1.39-2.67,3.05-4.34,5.69-8.08,9.16-12.15.13-.13.14-.34.11-.52-.07-.39-1.12-1.58-1.84-2.03-.17-.1-.27-.13-.37-.13-.15,0-.26.08-.4.26-1.38,1.58-6.32,8.96-7.17,10.21-.34-.52-.9-1.32-1.79-1.97-.23-.16-.49-.23-.78-.23-2.05,0-5.97,3.39-6.96,6.7-.24.24-.48.5-.69.67-1.74,1.53-2.99,2.31-3.56,2.31-.12,0-.16-.08-.18-.16-.08-.44.82-1.69,5.15-7.04.12-.16.12-.31.1-.39-.08-.44-2.11-2-2.31-2-.1,0-.2,0-.37.16-.29.26-1.84,2.04-3.19,4-.58.52-1.31.96-1.84.96-.15,0-.28-.03-.4-.16.97-1.53,2.58-4.08,2.44-4.86-.07-.42-.83-.94-1.16-.94-1.14,0-3.69,3.92-3.45,5.3-1.53,2.29-3.98,4.99-4.99,4.99-.12,0-.29-.08-.34-.36-.11-.6.94-3.25,4.7-7.48.02-.03.08-.1.07-.16,0-.03-.04-.08-.07-.1-.15-.13-1.64-1.45-2.44-1.45-.59,0-1.94,1.35-3.18,3.17-1.12,1.64-2.08,3.66-1.73,5.66.12.7.84,1.25,1.46,1.79.64.68,1.2,1.06,1.92,1.06,2.48,0,4.65-3.58,5.94-5.25.3.29.54.39.86.39.25,0,.5-.07.75-.17-.45.91-.7,1.73-.6,2.3.23,1.3,1.35,2.6,2.76,2.6.92,0,2.93-1.48,4.29-2.78.47,1.15,1.84,2.91,3.12,2.91ZM113.77,11.93c.11-.08.31-.18.49-.18s.31.08.35.29c.14.8-2.48,4.47-3.9,4.47-.12,0-.4-.03-.65-.34.88-1.45,2.26-3.04,3.71-4.23ZM100.77,12.97c.45,0,.69.29.75.62.15.86-3.64,4.8-4.65,5.66-.32.29-.6.39-.8.39-.4,0-.46-.21-.5-.47-.3-1.69,4.48-6.21,5.2-6.21Z"/>
</svg>