<svg xmlns="http://www.w3.org/2000/svg" viewBox="0 0 324.42 91.32"><title>risk-reverse</title><path d="M118.65,40.17a3.31,3.31,0,0,0-1.53-1.09,5.2,5.2,0,0,0-1.82-.36,4.23,4.23,0,0,0-1,.13,4,4,0,0,0-1,.38,2.35,2.35,0,0,0-.77.7,1.8,1.8,0,0,0-.3,1,1.75,1.75,0,0,0,.72,1.51,6.64,6.64,0,0,0,1.79.9c.72.24,1.5.49,2.33.74a9.41,9.41,0,0,1,2.33,1A5.56,5.56,0,0,1,121.14,47a5.68,5.68,0,0,1,.71,3.06,7.37,7.37,0,0,1-.65,3.18,6.37,6.37,0,0,1-1.76,2.26,7.51,7.51,0,0,1-2.58,1.32,11.3,11.3,0,0,1-6.9-.21,9.36,9.36,0,0,1-3.26-2.1L110,50.74a4.81,4.81,0,0,0,1.79,1.53,5,5,0,0,0,2.24.54,5.09,5.09,0,0,0,1.15-.14,3.38,3.38,0,0,0,1-.42,2.1,2.1,0,0,0,.74-.71,1.82,1.82,0,0,0,.29-1A1.89,1.89,0,0,0,116.5,49a6.62,6.62,0,0,0-1.82-1c-.74-.27-1.53-.54-2.38-.8a10.22,10.22,0,0,1-2.37-1.09,5.76,5.76,0,0,1-1.82-1.79,5.23,5.23,0,0,1-.73-2.93,6.73,6.73,0,0,1,.67-3.09,6.48,6.48,0,0,1,1.78-2.22,7.56,7.56,0,0,1,2.56-1.35,10.1,10.1,0,0,1,3-.45,11.39,11.39,0,0,1,3.44.53,7.94,7.94,0,0,1,3,1.76Z" fill="#fff"/><path d="M125.47,34.83h14.26v4.45H130.1v4.08h9.1V47.8h-9.1v4.45h10.17V56.7h-14.8Z" fill="#fff"/><path d="M144,34.83h6.29L159.19,50h.06V34.83h4.62V56.7h-6.05l-9.16-15.57h-.06V56.7H144Z" fill="#fff"/><path d="M168.08,34.83h4.63V56.7h-4.63Z" fill="#fff"/><path d="M175.79,45.77a12.89,12.89,0,0,1,.85-4.76A10.42,10.42,0,0,1,179,37.38a10.2,10.2,0,0,1,3.59-2.3,13.1,13.1,0,0,1,9.07,0,10.29,10.29,0,0,1,3.59,2.3A10.56,10.56,0,0,1,197.61,41a13.88,13.88,0,0,1,0,9.51,10.56,10.56,0,0,1-2.36,3.63,10.29,10.29,0,0,1-3.59,2.3,13.1,13.1,0,0,1-9.07,0,10.2,10.2,0,0,1-3.59-2.3,10.42,10.42,0,0,1-2.36-3.63A12.84,12.84,0,0,1,175.79,45.77Zm4.81,0a8.18,8.18,0,0,0,.46,2.82,6.47,6.47,0,0,0,1.32,2.23,6.08,6.08,0,0,0,2.06,1.46,7.07,7.07,0,0,0,5.37,0,6.18,6.18,0,0,0,2.06-1.46,6.63,6.63,0,0,0,1.32-2.23,8.42,8.42,0,0,0,.46-2.82,8.6,8.6,0,0,0-.46-2.82,6.67,6.67,0,0,0-1.32-2.24,6.18,6.18,0,0,0-2.06-1.46,7.07,7.07,0,0,0-5.37,0,6.08,6.08,0,0,0-2.06,1.46A6.51,6.51,0,0,0,181.06,43,8.34,8.34,0,0,0,180.6,45.77Z" fill="#fff"/><path d="M201.59,34.83h8.13a14.17,14.17,0,0,1,3,.32,7,7,0,0,1,2.52,1.09,5.27,5.27,0,0,1,1.72,2,7.1,7.1,0,0,1,.64,3.2,6.61,6.61,0,0,1-1.16,3.94,5.14,5.14,0,0,1-3.38,2.05l5.34,9.24h-5.55L208.5,48h-2.28V56.7h-4.63Zm4.63,9.05H209c.41,0,.85,0,1.32-.05a4.15,4.15,0,0,0,1.26-.27,2.22,2.22,0,0,0,.93-.73,2.25,2.25,0,0,0,.37-1.39,2.45,2.45,0,0,0-.32-1.33,2.2,2.2,0,0,0-.83-.75,3.43,3.43,0,0,0-1.16-.36,9.26,9.26,0,0,0-1.27-.09h-3Z" fill="#fff"/><path d="M236.41,43.14a3.36,3.36,0,0,0-3-1.58,4.11,4.11,0,0,0-1.21.17,3.23,3.23,0,0,0-1.07.52,2.63,2.63,0,0,0-.76.92,2.92,2.92,0,0,0-.29,1.32,2.31,2.31,0,0,0,.6,1.71,4.49,4.49,0,0,0,1.47,1,16.62,16.62,0,0,0,1.93.7,8.58,8.58,0,0,1,1.93.83,4.66,4.66,0,0,1,1.47,1.36,4,4,0,0,1,.6,2.32,4.28,4.28,0,0,1-.45,2,4.57,4.57,0,0,1-1.19,1.48,5.51,5.51,0,0,1-1.66.92,5.36,5.36,0,0,1-1.84.32,6.66,6.66,0,0,1-2.72-.56A5.15,5.15,0,0,1,228,54.7l1.46-1.07a3.84,3.84,0,0,0,1.4,1.43,4.06,4.06,0,0,0,2.13.54,3.81,3.81,0,0,0,1.19-.2,3.39,3.39,0,0,0,1.06-.57,2.94,2.94,0,0,0,.78-.93,2.5,2.5,0,0,0,.31-1.26,2.63,2.63,0,0,0-.34-1.41,2.92,2.92,0,0,0-.91-.94,5,5,0,0,0-1.27-.63l-1.48-.51c-.51-.17-1-.36-1.48-.57a5.22,5.22,0,0,1-1.27-.82,3.6,3.6,0,0,1-.91-1.24,4.6,4.6,0,0,1-.34-1.87,4.64,4.64,0,0,1,.43-2,4.33,4.33,0,0,1,1.15-1.45,4.63,4.63,0,0,1,1.62-.84A6.1,6.1,0,0,1,233.4,40a6.37,6.37,0,0,1,2.4.44,5.14,5.14,0,0,1,2,1.53Z" fill="#fff"/><path d="M242.87,55.19h8.35V56.7h-9.94V40.45H251V42h-8.08V47.5h7.56V49h-7.56Z" fill="#fff"/><path d="M255.93,56.7h-1.58V40.45h4.8a5.94,5.94,0,0,1,3.76,1.08,3.91,3.91,0,0,1,1.37,3.26,4.18,4.18,0,0,1-1,2.86,4.31,4.31,0,0,1-3,1.34l4.49,7.71h-1.94l-4.27-7.55h-2.65Zm0-9.06h2.82a6.2,6.2,0,0,0,1.8-.23,3.53,3.53,0,0,0,1.18-.61,2.29,2.29,0,0,0,.64-.9,3.08,3.08,0,0,0,.19-1.11,3,3,0,0,0-.19-1.09,2.48,2.48,0,0,0-.64-.91,3,3,0,0,0-1.18-.6,6.23,6.23,0,0,0-1.8-.22h-2.82Z" fill="#fff"/><path d="M272.08,54.22h0l5.12-13.77H279L272.87,56.7h-1.58l-5.93-16.25h1.76Z" fill="#fff"/><path d="M282.59,56.7H281V40.45h1.59Z" fill="#fff"/><path d="M299.66,54.13a6.21,6.21,0,0,1-1,1.17,5.83,5.83,0,0,1-1.33,1,7.18,7.18,0,0,1-1.62.63,6.87,6.87,0,0,1-1.84.23,8,8,0,0,1-3.23-.64,7.89,7.89,0,0,1-2.58-1.78,8.17,8.17,0,0,1-1.7-2.69,9.74,9.74,0,0,1,0-6.84,8.32,8.32,0,0,1,1.7-2.7,7.89,7.89,0,0,1,2.58-1.78,8,8,0,0,1,3.23-.64,7.58,7.58,0,0,1,2.91.6,5.88,5.88,0,0,1,2.49,2l-1.39,1.08a3.8,3.8,0,0,0-.66-.78,4.9,4.9,0,0,0-1-.69,5.66,5.66,0,0,0-1.16-.48,4.36,4.36,0,0,0-1.23-.18,6.17,6.17,0,0,0-2.69.57,6,6,0,0,0-2,1.54,6.72,6.72,0,0,0-1.27,2.23,8.35,8.35,0,0,0,0,5.35,6.76,6.76,0,0,0,1.27,2.24,6.27,6.27,0,0,0,2,1.54,6.51,6.51,0,0,0,3.91.45,4.69,4.69,0,0,0,2.29-1.13,5.25,5.25,0,0,0,1-1.18Z" fill="#fff"/><path d="M303.91,55.19h8.35V56.7h-9.93V40.45H312V42h-8.09V47.5h7.56V49h-7.56Z" fill="#fff"/><path d="M322.77,43.14a3.38,3.38,0,0,0-3-1.58,4.16,4.16,0,0,0-1.21.17,3.33,3.33,0,0,0-1.07.52,2.74,2.74,0,0,0-.76.92,2.91,2.91,0,0,0-.28,1.32A2.31,2.31,0,0,0,317,46.2a4.65,4.65,0,0,0,1.48,1,16.44,16.44,0,0,0,1.92.7,8.58,8.58,0,0,1,1.93.83,4.69,4.69,0,0,1,1.48,1.36,4,4,0,0,1,.59,2.32,4.28,4.28,0,0,1-.45,2,4.45,4.45,0,0,1-1.19,1.48,5.61,5.61,0,0,1-3.49,1.24,6.63,6.63,0,0,1-2.72-.56,5.15,5.15,0,0,1-2.19-1.85l1.45-1.07a3.94,3.94,0,0,0,1.41,1.43,4.06,4.06,0,0,0,2.13.54,3.75,3.75,0,0,0,1.18-.2,3.44,3.44,0,0,0,1.07-.57,3.22,3.22,0,0,0,.78-.93,2.95,2.95,0,0,0,0-2.67,2.88,2.88,0,0,0-.9-.94,4.93,4.93,0,0,0-1.28-.63l-1.47-.51c-.51-.17-1-.36-1.48-.57a5.28,5.28,0,0,1-1.28-.82,3.71,3.71,0,0,1-.9-1.24,4.43,4.43,0,0,1-.34-1.87,4.51,4.51,0,0,1,.43-2,4.3,4.3,0,0,1,1.14-1.45,4.81,4.81,0,0,1,1.62-.84,6.1,6.1,0,0,1,1.85-.28,6.37,6.37,0,0,1,2.4.44,5.24,5.24,0,0,1,2,1.53Z" fill="#fff"/><path d="M107.15,76.53h-1l5.64-8.75h.86l1.82,8.75h-.93l-.47-2.3h-4.47Zm1.94-3.11h3.83L112,68.77Z" fill="#fff"/><path d="M118.32,74.18a3.77,3.77,0,0,1,.25-1.39,3.49,3.49,0,0,1,.71-1.14,3.61,3.61,0,0,1,1.08-.77,3.25,3.25,0,0,1,1.36-.28,2.53,2.53,0,0,1,1.18.28,1.92,1.92,0,0,1,.83.84h0l.8-4.53h.83l-1.66,9.34h-.83l.18-1h0a2.37,2.37,0,0,1-.85.77,2.48,2.48,0,0,1-1.27.33,3,3,0,0,1-1.07-.18,2.33,2.33,0,0,1-1.36-1.3A2.8,2.8,0,0,1,118.32,74.18Zm.86-.05a2.15,2.15,0,0,0,.12.73,1.85,1.85,0,0,0,.35.59,1.61,1.61,0,0,0,.57.39A1.87,1.87,0,0,0,121,76a2.3,2.3,0,0,0,1-.23,2.35,2.35,0,0,0,.82-.61,2.92,2.92,0,0,0,.54-.9,3,3,0,0,0,.2-1.09,2,2,0,0,0-.13-.75,1.76,1.76,0,0,0-.38-.59,1.6,1.6,0,0,0-.59-.39,2.11,2.11,0,0,0-.77-.14,2.31,2.31,0,0,0-1.82.83,2.69,2.69,0,0,0-.52.9A3.31,3.31,0,0,0,119.18,74.13Z" fill="#fff"/><path d="M126.71,76.53h-.83l1-5.78h.82Zm1.52-8a.57.57,0,0,1-.17.42.53.53,0,0,1-.41.17.56.56,0,0,1-.4-.14.5.5,0,0,1-.17-.41.62.62,0,0,1,.59-.61.54.54,0,0,1,.4.16A.57.57,0,0,1,128.23,68.51Z" fill="#fff"/><path d="M130.89,76.53H130l-1.22-5.78h.86l.92,4.89h0l2.88-4.89h.9Z" fill="#fff"/><path d="M135.38,76.53h-.83l1-5.78h.83Zm1.52-8a.57.57,0,0,1-.16.42.55.55,0,0,1-.42.17.56.56,0,0,1-.4-.14.53.53,0,0,1-.17-.41.57.57,0,0,1,.18-.43.58.58,0,0,1,.42-.18.55.55,0,0,1,.55.57Z" fill="#fff"/><path d="M141.4,72a1.37,1.37,0,0,0-.52-.52,1.57,1.57,0,0,0-.83-.21,2.49,2.49,0,0,0-.46,0,1.72,1.72,0,0,0-.45.16,1.15,1.15,0,0,0-.33.29.72.72,0,0,0-.13.44.8.8,0,0,0,.08.38.82.82,0,0,0,.23.26,1.51,1.51,0,0,0,.36.18,3.85,3.85,0,0,0,.48.16,3.5,3.5,0,0,1,1.3.62,1.34,1.34,0,0,1,.44,1.07,1.53,1.53,0,0,1-.21.81,1.77,1.77,0,0,1-.53.56,2.39,2.39,0,0,1-.71.31,3.09,3.09,0,0,1-.78.1,3.49,3.49,0,0,1-1.37-.27,2.16,2.16,0,0,1-1-.82l.71-.47a1.76,1.76,0,0,0,.63.61,1.86,1.86,0,0,0,1,.26,2.33,2.33,0,0,0,.53-.06,1.57,1.57,0,0,0,.46-.17.9.9,0,0,0,.33-.31.84.84,0,0,0,.12-.45.78.78,0,0,0-.36-.7,4.49,4.49,0,0,0-1-.47,4.65,4.65,0,0,1-.52-.2,1.61,1.61,0,0,1-.47-.29,1.3,1.3,0,0,1-.34-.43,1.28,1.28,0,0,1-.13-.61,1.45,1.45,0,0,1,.2-.77,1.75,1.75,0,0,1,.52-.53,2.37,2.37,0,0,1,.71-.3,3.11,3.11,0,0,1,.79-.1,2.67,2.67,0,0,1,1.19.26,1.69,1.69,0,0,1,.77.69Z" fill="#fff"/><path d="M143.64,76.53h-.83l1-5.78h.83Zm1.52-8a.57.57,0,0,1-.17.42.53.53,0,0,1-.41.17.6.6,0,0,1-.41-.14.53.53,0,0,1-.16-.41.57.57,0,0,1,.18-.43.55.55,0,0,1,.41-.18.54.54,0,0,1,.4.16A.57.57,0,0,1,145.16,68.51Z" fill="#fff"/><path d="M148.37,76.68a2.92,2.92,0,0,1-1.08-.19,2.37,2.37,0,0,1-.84-.51,2.21,2.21,0,0,1-.55-.79,2.61,2.61,0,0,1-.2-1,3.75,3.75,0,0,1,.25-1.38,3.55,3.55,0,0,1,.71-1.13,3.4,3.4,0,0,1,1.09-.78,3.31,3.31,0,0,1,1.38-.28,3.16,3.16,0,0,1,1.09.18,2.56,2.56,0,0,1,.84.51,2.38,2.38,0,0,1,.74,1.81,3.77,3.77,0,0,1-.25,1.39,3.49,3.49,0,0,1-.71,1.14,3.24,3.24,0,0,1-1.09.76A3.31,3.31,0,0,1,148.37,76.68Zm2.57-3.53a2.25,2.25,0,0,0-.12-.74,1.9,1.9,0,0,0-.37-.59,1.85,1.85,0,0,0-.58-.39,2.13,2.13,0,0,0-.78-.14,2.26,2.26,0,0,0-1,.23,2.61,2.61,0,0,0-.79.62,3.07,3.07,0,0,0-.71,2,2.25,2.25,0,0,0,.12.74,1.6,1.6,0,0,0,.37.58,1.56,1.56,0,0,0,.58.39,1.86,1.86,0,0,0,.77.15,2.3,2.3,0,0,0,1-.23,2.62,2.62,0,0,0,1.31-1.51A3.1,3.1,0,0,0,150.94,73.15Z" fill="#fff"/><path d="M154.71,70.75c0,.15,0,.33-.06.52s-.05.34-.08.47h0a2.38,2.38,0,0,1,.86-.84,2.21,2.21,0,0,1,1.12-.3,2.1,2.1,0,0,1,1.47.48,1.64,1.64,0,0,1,.53,1.29,2.83,2.83,0,0,1,0,.29c0,.1,0,.21-.05.32l-.64,3.55H157l.57-3.2a3.79,3.79,0,0,0,.08-.73,1.5,1.5,0,0,0-.29-1,1.23,1.23,0,0,0-1-.35,1.83,1.83,0,0,0-.67.14,1.89,1.89,0,0,0-.62.42,2.59,2.59,0,0,0-.51.71,3.16,3.16,0,0,0-.32,1l-.52,3h-.83l.79-4.51c0-.16.07-.36.1-.61a5.89,5.89,0,0,0,.08-.66Z" fill="#fff"/><path d="M165.47,76.68a2.83,2.83,0,0,1-1.07-.19,2.41,2.41,0,0,1-.85-.51,2.21,2.21,0,0,1-.55-.79,2.61,2.61,0,0,1-.2-1,4,4,0,0,1,.25-1.38,3.41,3.41,0,0,1,.72-1.13,3.25,3.25,0,0,1,1.08-.78,3.32,3.32,0,0,1,1.39-.28,3.14,3.14,0,0,1,1.08.18,2.56,2.56,0,0,1,.84.51,2.44,2.44,0,0,1,.55.79,2.61,2.61,0,0,1,.2,1,3.77,3.77,0,0,1-.26,1.39,3.33,3.33,0,0,1-.71,1.14,3.24,3.24,0,0,1-1.09.76A3.31,3.31,0,0,1,165.47,76.68ZM168,73.15a2.25,2.25,0,0,0-.12-.74,1.9,1.9,0,0,0-.37-.59,1.85,1.85,0,0,0-.58-.39,2.13,2.13,0,0,0-.78-.14,2.26,2.26,0,0,0-1,.23,2.46,2.46,0,0,0-.78.62,2.89,2.89,0,0,0-.53.9,3.09,3.09,0,0,0-.19,1.09,2.25,2.25,0,0,0,.12.74,1.75,1.75,0,0,0,.37.58,1.56,1.56,0,0,0,.58.39,1.86,1.86,0,0,0,.77.15,2.24,2.24,0,0,0,1-.23,2.57,2.57,0,0,0,.8-.62,2.9,2.9,0,0,0,.52-.89A3.34,3.34,0,0,0,168,73.15Z" fill="#fff"/><path d="M173.37,71.44H172l-.89,5.09h-.83l.89-5.09H170l.13-.69h1.2l.27-1.57a3.7,3.7,0,0,1,.24-.82,2.23,2.23,0,0,1,.42-.68,2,2,0,0,1,.64-.47,2.09,2.09,0,0,1,.86-.17l.34,0a1.37,1.37,0,0,1,.34.07l-.19.73a2.14,2.14,0,0,0-.58-.08,1.21,1.21,0,0,0-.52.11,1.1,1.1,0,0,0-.36.32,1.87,1.87,0,0,0-.23.47,3.63,3.63,0,0,0-.14.59l-.26,1.48h1.38Z" fill="#fff"/><path d="M181.32,75h0l4.23-7.24h1.35l-1.54,8.75h-.88L185.83,69h0l-4.5,7.56h-.47L179,69h0l-1.34,7.56h-.86l1.54-8.75h1.34Z" fill="#fff"/><path d="M190.17,76.68a2.83,2.83,0,0,1-1.07-.19,2.41,2.41,0,0,1-.85-.51,2.21,2.21,0,0,1-.55-.79,2.61,2.61,0,0,1-.2-1,4,4,0,0,1,.25-1.38,3.55,3.55,0,0,1,.71-1.13,3.4,3.4,0,0,1,1.09-.78,3.32,3.32,0,0,1,1.39-.28,3.14,3.14,0,0,1,1.08.18,2.56,2.56,0,0,1,.84.51,2.44,2.44,0,0,1,.55.79,2.61,2.61,0,0,1,.2,1,3.77,3.77,0,0,1-.26,1.39,3.33,3.33,0,0,1-.71,1.14,3.24,3.24,0,0,1-1.09.76A3.31,3.31,0,0,1,190.17,76.68Zm2.57-3.53a2.25,2.25,0,0,0-.12-.74,1.9,1.9,0,0,0-.37-.59,1.85,1.85,0,0,0-.58-.39,2.13,2.13,0,0,0-.78-.14,2.26,2.26,0,0,0-1,.23,2.46,2.46,0,0,0-.78.62,2.89,2.89,0,0,0-.53.9,3.09,3.09,0,0,0-.19,1.09,2.25,2.25,0,0,0,.12.74,1.75,1.75,0,0,0,.37.58,1.56,1.56,0,0,0,.58.39,1.86,1.86,0,0,0,.77.15,2.27,2.27,0,0,0,1-.23,2.57,2.57,0,0,0,.8-.62,2.9,2.9,0,0,0,.52-.89A3.34,3.34,0,0,0,192.74,73.15Z" fill="#fff"/><path d="M195.63,71.41c0-.24.06-.46.08-.66h.79c0,.15,0,.33-.07.52a4,4,0,0,1-.07.47h0a2.57,2.57,0,0,1,.81-.83,2,2,0,0,1,1.11-.31h.29l.26,0-.2.79-.23,0-.34,0a1.82,1.82,0,0,0-.65.12,1.6,1.6,0,0,0-.59.39,2.55,2.55,0,0,0-.47.68,3.37,3.37,0,0,0-.3,1l-.52,3h-.83l.79-4.51C195.55,71.86,195.59,71.66,195.63,71.41Z" fill="#fff"/><path d="M198.78,77.74a2.45,2.45,0,0,0,.87.74,2.72,2.72,0,0,0,1.23.29,2.89,2.89,0,0,0,1.07-.18,2.15,2.15,0,0,0,.74-.5,2.61,2.61,0,0,0,.47-.73,4.74,4.74,0,0,0,.26-.88l.21-1.1h0a2.65,2.65,0,0,1-2.2,1.15,2.83,2.83,0,0,1-1.07-.19A2.33,2.33,0,0,1,199,75a2.73,2.73,0,0,1-.18-1,3.41,3.41,0,0,1,.26-1.32,3.19,3.19,0,0,1,.7-1.09,3.4,3.4,0,0,1,2.41-1,2.56,2.56,0,0,1,.62.07,2.27,2.27,0,0,1,.58.23,2.35,2.35,0,0,1,.47.36,1.87,1.87,0,0,1,.34.49h0l.19-1h.81l-1,5.73a7.41,7.41,0,0,1-.26,1,3.14,3.14,0,0,1-.54,1,2.75,2.75,0,0,1-1,.74,3.51,3.51,0,0,1-1.57.3,3.81,3.81,0,0,1-1.54-.31,2.82,2.82,0,0,1-1.11-.86Zm.9-3.73a2,2,0,0,0,.13.7,1.68,1.68,0,0,0,.94,1,2.14,2.14,0,0,0,.79.14,2.31,2.31,0,0,0,1-.22,2.42,2.42,0,0,0,.79-.58,2.61,2.61,0,0,0,.52-.86,2.78,2.78,0,0,0,.19-1,2,2,0,0,0-.13-.72,1.73,1.73,0,0,0-1-1,1.94,1.94,0,0,0-.78-.15,2.61,2.61,0,0,0-1,.2,2.21,2.21,0,0,0-.79.55,2.37,2.37,0,0,0-.51.86A3.31,3.31,0,0,0,199.68,74Z" fill="#fff"/><path d="M210.6,73a2.74,2.74,0,0,0,0-.32,1.8,1.8,0,0,0,0-.22,1,1,0,0,0-.36-.89,1.7,1.7,0,0,0-1-.26,2.46,2.46,0,0,0-1,.21,2.89,2.89,0,0,0-.81.48l-.37-.55a3.19,3.19,0,0,1,1-.6,3.56,3.56,0,0,1,1.22-.23,3.35,3.35,0,0,1,.79.09,1.69,1.69,0,0,1,.65.3,1.42,1.42,0,0,1,.45.52,1.61,1.61,0,0,1,.17.76c0,.07,0,.17,0,.3s0,.23,0,.32L211,75.23a5.36,5.36,0,0,0-.1.7,4.73,4.73,0,0,0,0,.6h-.74a3.78,3.78,0,0,1,0-.46c0-.16,0-.32,0-.48h0a4.58,4.58,0,0,1-.5.49,2.34,2.34,0,0,1-.51.33,2.7,2.7,0,0,1-.57.18,4.43,4.43,0,0,1-.66,0,2.46,2.46,0,0,1-.6-.07,1.64,1.64,0,0,1-.57-.26,1.33,1.33,0,0,1-.42-.46,1.37,1.37,0,0,1-.16-.7,1.59,1.59,0,0,1,.39-1.12,2.65,2.65,0,0,1,1-.66,6.55,6.55,0,0,1,1.43-.31C209.53,73,210.06,73,210.6,73Zm-.31.63a11.17,11.17,0,0,0-1.14.06,5.38,5.38,0,0,0-1.06.21,2.25,2.25,0,0,0-.78.43,1,1,0,0,0-.3.74.88.88,0,0,0,.1.45.81.81,0,0,0,.27.28,1.16,1.16,0,0,0,.38.15,2.42,2.42,0,0,0,1.25-.1,2.23,2.23,0,0,0,.66-.41,2.31,2.31,0,0,0,.47-.6,2.7,2.7,0,0,0,.26-.72l.08-.49Z" fill="#fff"/><path d="M214.52,70.75c0,.15,0,.33-.06.52s-.05.34-.07.47h0a2.47,2.47,0,0,1,.86-.84,2.28,2.28,0,0,1,1.13-.3,2.13,2.13,0,0,1,1.47.48,1.63,1.63,0,0,1,.52,1.29,1.42,1.42,0,0,1,0,.29c0,.1,0,.21,0,.32l-.64,3.55h-.83l.57-3.2a3.75,3.75,0,0,0,.07-.73,1.5,1.5,0,0,0-.28-1,1.23,1.23,0,0,0-1-.35,1.79,1.79,0,0,0-.67.14,1.89,1.89,0,0,0-.62.42,2.61,2.61,0,0,0-.52.71,3.75,3.75,0,0,0-.32,1l-.52,3h-.82l.79-4.51c0-.16.06-.36.1-.61s.06-.46.08-.66Z" fill="#fff"/><path d="M224.74,75.31h0l3.64-7.53h1.07l.72,7.53h0l3.6-7.53h.93l-4.26,8.75h-1l-.7-7.54h0L225,76.53h-1l-.9-8.75H224Z" fill="#fff"/><path d="M237.85,70.6a2.09,2.09,0,0,1,1.46.48,1.61,1.61,0,0,1,.53,1.29,1.42,1.42,0,0,1,0,.29c0,.1,0,.21,0,.32l-.64,3.55h-.83l.57-3.2a3.75,3.75,0,0,0,.07-.73,1.45,1.45,0,0,0-.29-1,1.27,1.27,0,0,0-1-.35,1.74,1.74,0,0,0-.66.14,1.8,1.8,0,0,0-.62.42,2.57,2.57,0,0,0-.5.71,3.43,3.43,0,0,0-.32,1l-.52,3h-.82l1.64-9.34h.83l-.79,4.51h0a2.38,2.38,0,0,1,.84-.8A2.2,2.2,0,0,1,237.85,70.6Z" fill="#fff"/><path d="M242,76.53h-.83l1-5.78H243Zm1.51-8a.57.57,0,0,1-.16.42.54.54,0,0,1-.42.17.58.58,0,0,1-.4-.14.53.53,0,0,1-.16-.41.57.57,0,0,1,.18-.43.54.54,0,0,1,.41-.18.5.5,0,0,1,.39.16A.53.53,0,0,1,243.52,68.51Z" fill="#fff"/><path d="M247.39,71.44h-1.57l-.6,3.39a2.07,2.07,0,0,0,0,.4.64.64,0,0,0,.2.55.89.89,0,0,0,.52.13,1.37,1.37,0,0,0,.38,0,.73.73,0,0,0,.32-.14l-.1.71a1.24,1.24,0,0,1-.41.13,3.12,3.12,0,0,1-.54,0,2,2,0,0,1-.42,0,1.32,1.32,0,0,1-.4-.18,1.07,1.07,0,0,1-.3-.36,1.14,1.14,0,0,1-.11-.56,3,3,0,0,1,0-.4l.65-3.62h-1.2l.13-.69h1.18l.28-1.63h.83l-.29,1.63h1.6Z" fill="#fff"/><path d="M248.57,73.86a.78.78,0,0,0,0,.14.66.66,0,0,0,0,.14,2,2,0,0,0,.14.74,2,2,0,0,0,.4.59,1.93,1.93,0,0,0,.59.38,2,2,0,0,0,.74.14,2.16,2.16,0,0,0,1.18-.31,2.72,2.72,0,0,0,.82-.71l.52.5a3.44,3.44,0,0,1-1.18.91,3.38,3.38,0,0,1-1.42.3,3.13,3.13,0,0,1-1-.17,2.44,2.44,0,0,1-.84-.5,2.2,2.2,0,0,1-.55-.8,2.6,2.6,0,0,1-.21-1.08,3.59,3.59,0,0,1,.26-1.34,3.49,3.49,0,0,1,1.77-1.9,3.1,3.1,0,0,1,1.32-.29,2.4,2.4,0,0,1,1.8.63,2.23,2.23,0,0,1,.61,1.63q0,.15,0,.45a2.91,2.91,0,0,1-.08.55Zm4-.62c0-.06,0-.13,0-.21v-.22a1.48,1.48,0,0,0-.41-1.09,1.55,1.55,0,0,0-1.19-.43,2.15,2.15,0,0,0-.85.16,2.2,2.2,0,0,0-.69.42,2.65,2.65,0,0,0-.52.63,2.48,2.48,0,0,0-.29.74Z" fill="#fff"/><path d="M261.74,76a6,6,0,0,0,1.39-.16,3.65,3.65,0,0,0,1.09-.44l.47-2.68h-2.06l.13-.75h2.93L265,75.9a6.15,6.15,0,0,1-1.61.66,7.26,7.26,0,0,1-1.7.19,4.51,4.51,0,0,1-1.6-.27,3.7,3.7,0,0,1-1.24-.76,3.4,3.4,0,0,1-.81-1.19,4,4,0,0,1-.28-1.53,5.57,5.57,0,0,1,.41-2.13,5.28,5.28,0,0,1,1.12-1.72A5.12,5.12,0,0,1,261,68a4.82,4.82,0,0,1,2-.43,4.08,4.08,0,0,1,.93.1,3.52,3.52,0,0,1,.83.28,2.71,2.71,0,0,1,.69.44,2.26,2.26,0,0,1,.49.58l-.81.53a1.51,1.51,0,0,0-.29-.42,1.94,1.94,0,0,0-.46-.38,2.7,2.7,0,0,0-.62-.27,3.24,3.24,0,0,0-.79-.09,3.81,3.81,0,0,0-1.72.39,4.26,4.26,0,0,0-1.35,1,4.82,4.82,0,0,0-1.19,3.17,3.45,3.45,0,0,0,.2,1.21,2.64,2.64,0,0,0,.58,1,2.79,2.79,0,0,0,.95.66A3.33,3.33,0,0,0,261.74,76Z" fill="#fff"/><path d="M267.74,71.41c0-.24.06-.46.08-.66h.79c0,.15,0,.33-.06.52s-.05.34-.08.47h0a2.57,2.57,0,0,1,.81-.83,2,2,0,0,1,1.12-.31h.28l.26,0-.2.79-.23,0-.34,0a1.82,1.82,0,0,0-.65.12,1.6,1.6,0,0,0-.59.39,2.55,2.55,0,0,0-.47.68,3.69,3.69,0,0,0-.3,1l-.52,3h-.83l.79-4.51C267.67,71.86,267.7,71.66,267.74,71.41Z" fill="#fff"/><path d="M273.48,76.68a2.92,2.92,0,0,1-1.08-.19,2.37,2.37,0,0,1-.84-.51,2.21,2.21,0,0,1-.55-.79,2.44,2.44,0,0,1-.2-1,3.75,3.75,0,0,1,.25-1.38,3.55,3.55,0,0,1,.71-1.13,3.4,3.4,0,0,1,1.09-.78,3.31,3.31,0,0,1,1.38-.28,3.06,3.06,0,0,1,1.08.18,2.37,2.37,0,0,1,.84.51,2.3,2.3,0,0,1,.55.79,2.44,2.44,0,0,1,.2,1,3.77,3.77,0,0,1-.25,1.39,3.49,3.49,0,0,1-.71,1.14,3.43,3.43,0,0,1-2.47,1.05Zm2.57-3.53a2,2,0,0,0-.13-.74,1.71,1.71,0,0,0-.36-.59,1.9,1.9,0,0,0-.59-.39,2.07,2.07,0,0,0-.77-.14,2.23,2.23,0,0,0-1,.23,2.5,2.5,0,0,0-.79.62,3.07,3.07,0,0,0-.71,2,2.25,2.25,0,0,0,.12.74,1.58,1.58,0,0,0,.36.58,1.65,1.65,0,0,0,.58.39,1.92,1.92,0,0,0,.77.15,2.31,2.31,0,0,0,1-.23,2.72,2.72,0,0,0,1.31-1.51A3.1,3.1,0,0,0,276.05,73.15Z" fill="#fff"/><path d="M282.09,76.53c0-.16,0-.33.06-.52s.05-.34.08-.47h0a2.47,2.47,0,0,1-.86.84,2.21,2.21,0,0,1-1.12.3,2.13,2.13,0,0,1-1.46-.47,1.64,1.64,0,0,1-.53-1.29c0-.09,0-.19,0-.29s0-.21.05-.32l.63-3.55h.84L279.2,74a4,4,0,0,0-.08.73,1.46,1.46,0,0,0,.29,1,1.22,1.22,0,0,0,1,.35,1.75,1.75,0,0,0,.67-.14,2,2,0,0,0,.62-.41,2.59,2.59,0,0,0,.51-.71,3.18,3.18,0,0,0,.32-1l.52-3h.83l-.79,4.51c0,.16-.07.36-.11.6s-.06.47-.08.66Z" fill="#fff"/><path d="M286.75,71.69a1.75,1.75,0,0,1,.36-.42,2.34,2.34,0,0,1,.5-.35,2.27,2.27,0,0,1,.6-.23,2.39,2.39,0,0,1,.66-.09,3,3,0,0,1,1.07.18,2.37,2.37,0,0,1,.82.51,2.24,2.24,0,0,1,.53.79,2.61,2.61,0,0,1,.19,1,3.77,3.77,0,0,1-.26,1.39,3.49,3.49,0,0,1-.71,1.14,3.39,3.39,0,0,1-2.43,1.05,2.54,2.54,0,0,1-1.18-.29,1.83,1.83,0,0,1-.83-.84h0l-.7,4h-.83l1.56-8.75h.83l-.18.94Zm3.87,1.46a2.09,2.09,0,0,0-.12-.72,1.63,1.63,0,0,0-.92-1,2.09,2.09,0,0,0-.78-.14,2.44,2.44,0,0,0-1,.22,2.51,2.51,0,0,0-.82.62,2.92,2.92,0,0,0-.54.9,2.85,2.85,0,0,0-.2,1.09,2,2,0,0,0,.13.75,1.62,1.62,0,0,0,.38.59,1.65,1.65,0,0,0,.58.39,2.11,2.11,0,0,0,.77.14,2.37,2.37,0,0,0,1-.23,2.44,2.44,0,0,0,.79-.6,2.69,2.69,0,0,0,.52-.9A3.31,3.31,0,0,0,290.62,73.15Z" fill="#fff"/><circle cx="45.66" cy="45.66" r="44.59" fill="#00205c" stroke="#fff" stroke-miterlimit="10" stroke-width="2.14"/><path d="M72.53,33.68a8.26,8.26,0,0,1,6.06,2.55,14.46,14.46,0,0,1,2.93,5.05c.07.22.14.33.36.29l.88-.15c.15,0,.15-.21.15-.51l-.37-7.31c0-.29-.07-.51-.44-.51-.22,0-.33.11-.51.37l-.44.58c-.22.29-.44.4-.87.07a13.54,13.54,0,0,0-7.46-2c-6.75,0-11.59,1.45-14.72,11.19l-3,7.83L50.55,40.93s-1.91-4.56-2.74-4.56S45,40.62,45,40.62,40.09,51.18,39.8,52l-.08,0L34,35a.88.88,0,0,1,.88-1.28h.69c.26,0,.33-.11.33-.29v-.92c0-.18-.07-.25-.29-.25l-3.58.09c-.17,0-.44.53-.71,1.23-1.11,2.5-6.44,14.12-6.74,15h-.15l-6.61-15.4c-.15-.44-.4-.8-.92-.8s-.8.58-1,.95c-.73,1.83-8.18,22.29-8.55,23.1a1.79,1.79,0,0,1-1.61,1.2H2.9c-.22,0-.26.11-.26.3v1c0,.11.08.19.22.19.3,0,3.56-.11,5.61-.11,2.26,0,3.5.11,3.87.11s.29-.11.29-.3V58c0-.19,0-.3-.25-.3h-1c-.88,0-1.24-.51-1.24-1,0-2,4.16-14.07,5.26-17.29h.15l5.26,13.06s1.2,2.86,1.95,2.86c1.15,0,2.87-4,2.87-4s4.94-11,5.23-11.78l.07,0,5.69,16.89a.87.87,0,0,1-.88,1.27h-.69c-.26,0-.33.11-.33.3v.91c0,.18.07.26.29.26s1.23,0,3-.07a1,1,0,0,0,.69-.31,1.11,1.11,0,0,0,.37-.49c.15-.4,6.62-14,6.95-15.05h.14L52.81,58.2c.15.44.4.81.91.81,2,0,2.61-.78,3.39-3,.41-1.15,2.79-7.86,5-13.56C64.63,35.66,68.57,33.68,72.53,33.68ZM90,47.25c-.37,0-7.29.11-10.35.11s-4.76-.11-5.2-.11c-.14,0-.21.07-.21.29v.84c0,.18.07.33.29.33H76.1c1,0,1.32.37,1.32,1.68v2.67c0,1.9-.07,2.92-.88,3.36-1.24.66-2.63.61-5,.61-3.63,0-6.24-2.28-9.24-4.7-.46-.37-.71-.19-.83,0s-.59,1.39-.72,1.7A.87.87,0,0,0,61,55.09c2.52,2.8,6.82,4,10.29,4a21.1,21.1,0,0,0,10.38-2.41c.36-.14.58-.29.58-.58s-.14-.66-.14-1.17V50.06c0-1.06.44-1.35,1.09-1.35h6.92c.22,0,.29-.07.29-.29V47.5C90.4,47.32,90.33,47.25,90,47.25Z" fill="#fff"/></svg>