<svg xmlns="http://www.w3.org/2000/svg" viewBox="0 0 351.36 98.32"><title>mwgi-color-solid-1c</title><rect x="110.03" y="38.44" width="4.63" height="21.87" fill="#00205c"/><polygon points="134.13 53.64 134.08 53.64 125.15 38.44 118.86 38.44 118.86 60.31 123.49 60.31 123.49 44.74 123.55 44.74 132.71 60.31 138.76 60.31 138.76 38.44 134.13 38.44 134.13 53.64" fill="#00205c"/><polygon points="141.1 42.7 147.09 42.7 147.09 60.31 151.72 60.31 151.72 42.7 157.71 42.7 157.71 38.44 141.1 38.44 141.1 42.7" fill="#00205c"/><polygon points="164.86 51.41 173.96 51.41 173.96 46.97 164.86 46.97 164.86 42.89 174.5 42.89 174.5 38.44 160.23 38.44 160.23 60.31 175.03 60.31 175.03 55.86 164.86 55.86 164.86 51.41" fill="#00205c"/><path d="M193.62,49a6.61,6.61,0,0,0,1.16-3.94,7.13,7.13,0,0,0-.64-3.2,5.27,5.27,0,0,0-1.72-2,7,7,0,0,0-2.52-1.09,14.17,14.17,0,0,0-3-.32h-8.12V60.31h4.62V51.57h2.29L190,60.31h5.55l-5.34-9.24A5.12,5.12,0,0,0,193.62,49Zm-4-2.58a2.25,2.25,0,0,1-.94.73,4.08,4.08,0,0,1-1.26.27c-.46,0-.9.05-1.32.05h-2.73v-5h3a9.26,9.26,0,0,1,1.27.09,3.43,3.43,0,0,1,1.16.36,2.13,2.13,0,0,1,.83.75,2.36,2.36,0,0,1,.33,1.33A2.32,2.32,0,0,1,189.61,46.44Z" fill="#00205c"/><polygon points="213.23 53.64 213.17 53.64 204.24 38.44 197.95 38.44 197.95 60.31 202.58 60.31 202.58 44.74 202.64 44.74 211.8 60.31 217.85 60.31 217.85 38.44 213.23 38.44 213.23 53.64" fill="#00205c"/><path d="M229,38.44,220,60.31h5.1l1.75-4.63H235l1.81,4.63H242l-9.13-21.87Zm-.77,13.16,2.55-6.8,2.58,6.8Z" fill="#00205c"/><polygon points="239.44 42.7 245.43 42.7 245.43 60.31 250.06 60.31 250.06 42.7 256.05 42.7 256.05 38.44 239.44 38.44 239.44 42.7" fill="#00205c"/><rect x="258.33" y="38.44" width="4.63" height="21.87" fill="#00205c"/><path d="M285.49,41a10.16,10.16,0,0,0-3.58-2.3,13.13,13.13,0,0,0-9.08,0,10.29,10.29,0,0,0-3.59,2.3,10.54,10.54,0,0,0-2.35,3.63,13.73,13.73,0,0,0,0,9.51,10.54,10.54,0,0,0,2.35,3.63,10.29,10.29,0,0,0,3.59,2.3,13.13,13.13,0,0,0,9.08,0,10.16,10.16,0,0,0,3.58-2.3,10.42,10.42,0,0,0,2.36-3.63,13.73,13.73,0,0,0,0-9.51A10.42,10.42,0,0,0,285.49,41ZM283.43,52.2a6.32,6.32,0,0,1-1.32,2.23,6,6,0,0,1-2.06,1.46,7,7,0,0,1-5.36,0,6.08,6.08,0,0,1-2.07-1.46,6.45,6.45,0,0,1-1.31-2.23,8.18,8.18,0,0,1-.46-2.82,8.34,8.34,0,0,1,.46-2.82,6.49,6.49,0,0,1,1.31-2.24,6.22,6.22,0,0,1,2.07-1.46,7,7,0,0,1,5.36,0,6.08,6.08,0,0,1,2.06,1.46,6.36,6.36,0,0,1,1.32,2.24,8.34,8.34,0,0,1,.46,2.82A8.18,8.18,0,0,1,283.43,52.2Z" fill="#00205c"/><polygon points="307.11 53.64 307.05 53.64 298.13 38.44 291.84 38.44 291.84 60.31 296.47 60.31 296.47 44.74 296.53 44.74 305.69 60.31 311.74 60.31 311.74 38.44 307.11 38.44 307.11 53.64" fill="#00205c"/><path d="M322.92,38.44l-9.07,21.87H319l1.75-4.63h8.15l1.81,4.63h5.22l-9.14-21.87Zm-.77,13.16,2.55-6.8,2.58,6.8Z" fill="#00205c"/><polygon points="342.79 55.86 342.79 38.44 338.16 38.44 338.16 60.31 351.36 60.31 351.36 55.86 342.79 55.86" fill="#00205c"/><path d="M113.58,71.39,108,80.14h1l1.44-2.3h4.47l.47,2.3h.93l-1.82-8.75ZM110.9,77l2.92-4.65.91,4.65Z" fill="#00205c"/><path d="M125.57,75.33h0a1.83,1.83,0,0,0-.83-.84,2.53,2.53,0,0,0-1.18-.28,3.17,3.17,0,0,0-1.35.28,3.37,3.37,0,0,0-1.08.77,3.19,3.19,0,0,0-.71,1.14,3.77,3.77,0,0,0-.26,1.39,2.61,2.61,0,0,0,.19,1,2.34,2.34,0,0,0,.53.79,2.37,2.37,0,0,0,.82.51,3,3,0,0,0,1.07.18A2.48,2.48,0,0,0,124,80a2.38,2.38,0,0,0,.85-.77h0l-.17,1h.82l1.66-9.34h-.83Zm-.38,2.53a3.15,3.15,0,0,1-.55.9,2.41,2.41,0,0,1-.81.61,2.35,2.35,0,0,1-1,.23,1.86,1.86,0,0,1-.77-.15,1.45,1.45,0,0,1-.57-.39,1.71,1.71,0,0,1-.36-.59,2.43,2.43,0,0,1-.11-.73,3.31,3.31,0,0,1,.18-1.11,2.84,2.84,0,0,1,.51-.9,2.54,2.54,0,0,1,.8-.61,2.47,2.47,0,0,1,1-.22,2.06,2.06,0,0,1,.76.14,1.64,1.64,0,0,1,.6.39,1.73,1.73,0,0,1,.37.59,2,2,0,0,1,.13.75A3,3,0,0,1,125.19,77.86Z" fill="#00205c"/><path d="M129.49,71.55a.58.58,0,0,0-.42.18.55.55,0,0,0-.18.43.53.53,0,0,0,.17.41.63.63,0,0,0,.4.14.54.54,0,0,0,.42-.17.57.57,0,0,0,.16-.42.53.53,0,0,0-.16-.41A.51.51,0,0,0,129.49,71.55Z" fill="#00205c"/><polygon points="127.69 80.14 128.52 80.14 129.55 74.36 128.72 74.36 127.69 80.14" fill="#00205c"/><polygon points="132.4 79.25 132.38 79.25 131.45 74.36 130.6 74.36 131.81 80.14 132.7 80.14 136.18 74.36 135.28 74.36 132.4 79.25" fill="#00205c"/><polygon points="136.37 80.14 137.2 80.14 138.22 74.36 137.39 74.36 136.37 80.14" fill="#00205c"/><path d="M138.16,71.55a.62.62,0,0,0-.59.61.53.53,0,0,0,.16.41.66.66,0,0,0,.41.14.53.53,0,0,0,.41-.17.57.57,0,0,0,.17-.42.57.57,0,0,0-.16-.41A.54.54,0,0,0,138.16,71.55Z" fill="#00205c"/><path d="M141,75.11a1.6,1.6,0,0,1,.45-.16,2.49,2.49,0,0,1,.46,0,1.6,1.6,0,0,1,.83.21,1.27,1.27,0,0,1,.51.52l.66-.47a1.66,1.66,0,0,0-.76-.69,2.7,2.7,0,0,0-1.19-.26,3,3,0,0,0-.79.1,2.27,2.27,0,0,0-.71.3,1.65,1.65,0,0,0-.52.53,1.36,1.36,0,0,0-.21.77,1.41,1.41,0,0,0,.13.61,1.44,1.44,0,0,0,.34.43,1.75,1.75,0,0,0,.47.29c.18.08.35.14.52.2a4.38,4.38,0,0,1,1,.47.78.78,0,0,1,.36.7.84.84,0,0,1-.12.45,1.08,1.08,0,0,1-.33.31,1.68,1.68,0,0,1-.46.17,2.42,2.42,0,0,1-.54.06,1.83,1.83,0,0,1-1-.26,1.76,1.76,0,0,1-.63-.61l-.72.47a2.13,2.13,0,0,0,1,.82,3.4,3.4,0,0,0,1.36.27,3,3,0,0,0,.78-.1,2.33,2.33,0,0,0,.72-.32,1.74,1.74,0,0,0,.53-.55,1.53,1.53,0,0,0,.21-.81,1.32,1.32,0,0,0-.45-1.07,3.45,3.45,0,0,0-1.29-.62,3.53,3.53,0,0,1-.49-.16,1.27,1.27,0,0,1-.35-.18.81.81,0,0,1-.18-1.08A.94.94,0,0,1,141,75.11Z" fill="#00205c"/><path d="M146.41,71.55a.57.57,0,0,0-.41.18.55.55,0,0,0-.18.43.53.53,0,0,0,.17.41.61.61,0,0,0,.4.14.53.53,0,0,0,.41-.17.57.57,0,0,0,.17-.42.53.53,0,0,0-.16-.41A.54.54,0,0,0,146.41,71.55Z" fill="#00205c"/><polygon points="144.62 80.14 145.45 80.14 146.48 74.36 145.65 74.36 144.62 80.14" fill="#00205c"/><path d="M152.87,74.9a2.37,2.37,0,0,0-.84-.51,3.06,3.06,0,0,0-1.08-.18,3.29,3.29,0,0,0-2.47,1.06,3.39,3.39,0,0,0-.71,1.13,3.72,3.72,0,0,0-.26,1.38,2.61,2.61,0,0,0,.2,1,2.34,2.34,0,0,0,.55.79,2.5,2.5,0,0,0,.85.51,2.9,2.9,0,0,0,1.07.19,3.32,3.32,0,0,0,1.39-.29,3.5,3.5,0,0,0,1.09-.76,3.31,3.31,0,0,0,.7-1.14,3.83,3.83,0,0,0,.26-1.4,2.56,2.56,0,0,0-.2-1A2.3,2.3,0,0,0,152.87,74.9Zm-.3,3a2.71,2.71,0,0,1-.52.89,2.65,2.65,0,0,1-.79.62,2.31,2.31,0,0,1-1,.23,1.89,1.89,0,0,1-.77-.15,1.64,1.64,0,0,1-.94-1,2.26,2.26,0,0,1-.13-.74,3.1,3.1,0,0,1,.2-1.09,2.87,2.87,0,0,1,.52-.9,2.39,2.39,0,0,1,.79-.62,2.2,2.2,0,0,1,1-.23,2.11,2.11,0,0,1,.77.14,1.9,1.9,0,0,1,.59.39,1.71,1.71,0,0,1,.36.59,2.25,2.25,0,0,1,.12.74A3.34,3.34,0,0,1,152.57,77.86Z" fill="#00205c"/><path d="M158.39,74.21a2.24,2.24,0,0,0-1.12.3,2.38,2.38,0,0,0-.86.84h0c0-.13.05-.28.07-.47s0-.37.06-.52h-.8c0,.2,0,.42-.08.66s-.07.45-.11.61l-.79,4.51h.83l.52-3a3.46,3.46,0,0,1,.32-1,2.81,2.81,0,0,1,.51-.71,2,2,0,0,1,.63-.42,1.75,1.75,0,0,1,.67-.14,1.25,1.25,0,0,1,1,.35,1.5,1.5,0,0,1,.28,1,3.75,3.75,0,0,1-.07.73l-.57,3.2h.83l.64-3.55c0-.11,0-.22,0-.32s0-.2,0-.29a1.64,1.64,0,0,0-.53-1.29A2.1,2.1,0,0,0,158.39,74.21Z" fill="#00205c"/><path d="M170,74.9a2.37,2.37,0,0,0-.84-.51,3.06,3.06,0,0,0-1.08-.18,3.29,3.29,0,0,0-2.47,1.06,3.55,3.55,0,0,0-.71,1.13,3.72,3.72,0,0,0-.25,1.38,2.61,2.61,0,0,0,.19,1,2.33,2.33,0,0,0,1.4,1.3,2.9,2.9,0,0,0,1.07.19,3.32,3.32,0,0,0,1.39-.29,3.32,3.32,0,0,0,1.8-1.9,3.82,3.82,0,0,0,.25-1.4,2.56,2.56,0,0,0-.2-1A2.3,2.3,0,0,0,170,74.9Zm-.3,3a2.71,2.71,0,0,1-.52.89,2.53,2.53,0,0,1-.79.62,2.31,2.31,0,0,1-1,.23,1.89,1.89,0,0,1-.77-.15,1.65,1.65,0,0,1-.58-.39,1.58,1.58,0,0,1-.36-.58,2.25,2.25,0,0,1-.12-.74,3.09,3.09,0,0,1,.19-1.09,2.87,2.87,0,0,1,.52-.9,2.39,2.39,0,0,1,.79-.62,2.23,2.23,0,0,1,1-.23,2.11,2.11,0,0,1,.77.14,1.9,1.9,0,0,1,.59.39,1.71,1.71,0,0,1,.36.59,2.26,2.26,0,0,1,.13.74A3.34,3.34,0,0,1,169.67,77.86Z" fill="#00205c"/><path d="M175.54,70.65a2.14,2.14,0,0,0-.87.17,2,2,0,0,0-.63.47,2.25,2.25,0,0,0-.43.68,3.68,3.68,0,0,0-.23.82l-.28,1.57h-1.19l-.14.69H173l-.89,5.09h.83l.89-5.09h1.36l.14-.69h-1.39l.26-1.49a3.77,3.77,0,0,1,.14-.58,1.88,1.88,0,0,1,.24-.47.93.93,0,0,1,.36-.32,1.13,1.13,0,0,1,.51-.11,2.08,2.08,0,0,1,.58.08l.2-.73a1.45,1.45,0,0,0-.35-.07Z" fill="#00205c"/><polygon points="183.15 78.63 183.14 78.63 181.48 71.39 180.15 71.39 178.6 80.14 179.47 80.14 180.8 72.58 180.83 72.58 182.66 80.14 183.13 80.14 187.62 72.58 187.65 72.58 186.31 80.14 187.19 80.14 188.74 71.39 187.39 71.39 183.15 78.63" fill="#00205c"/><path d="M194.67,74.9a2.37,2.37,0,0,0-.84-.51,3.06,3.06,0,0,0-1.08-.18,3.29,3.29,0,0,0-2.47,1.06,3.55,3.55,0,0,0-.71,1.13,3.72,3.72,0,0,0-.25,1.38,2.61,2.61,0,0,0,.19,1,2.33,2.33,0,0,0,1.4,1.3,2.92,2.92,0,0,0,1.08.19,3.31,3.31,0,0,0,1.38-.29,3.32,3.32,0,0,0,1.8-1.9,3.82,3.82,0,0,0,.25-1.4,2.56,2.56,0,0,0-.2-1A2.3,2.3,0,0,0,194.67,74.9Zm-.3,3a2.71,2.71,0,0,1-.52.89,2.53,2.53,0,0,1-.79.62,2.31,2.31,0,0,1-1,.23,1.89,1.89,0,0,1-.77-.15,1.65,1.65,0,0,1-.58-.39,1.58,1.58,0,0,1-.36-.58,2.25,2.25,0,0,1-.12-.74,3.09,3.09,0,0,1,.19-1.09,2.87,2.87,0,0,1,.52-.9,2.5,2.5,0,0,1,.79-.62,2.23,2.23,0,0,1,1-.23,2.11,2.11,0,0,1,.77.14,1.9,1.9,0,0,1,.59.39,1.71,1.71,0,0,1,.36.59,2.26,2.26,0,0,1,.13.74A3.34,3.34,0,0,1,194.37,77.86Z" fill="#00205c"/><path d="M200.47,75.06l.2-.79-.26,0h-.28a2,2,0,0,0-1.11.31,2.6,2.6,0,0,0-.82.83h0c0-.13,0-.28.07-.47s0-.37.06-.52h-.79c0,.2,0,.42-.08.66s-.07.45-.11.61l-.79,4.51h.83l.52-3a4.13,4.13,0,0,1,.3-1,2.8,2.8,0,0,1,.47-.68,1.68,1.68,0,0,1,.59-.39,1.84,1.84,0,0,1,.66-.12l.33,0Z" fill="#00205c"/><path d="M206.05,75.36h0a1.63,1.63,0,0,0-.33-.49,1.89,1.89,0,0,0-.48-.36,2.35,2.35,0,0,0-.57-.23,2.62,2.62,0,0,0-.62-.07,3.32,3.32,0,0,0-1.35.27,3.22,3.22,0,0,0-1.77,1.8,3.5,3.5,0,0,0-.25,1.33,2.73,2.73,0,0,0,.18,1,2.48,2.48,0,0,0,.51.8,2.3,2.3,0,0,0,.81.54,2.76,2.76,0,0,0,1.07.19,2.6,2.6,0,0,0,1.23-.3,2.71,2.71,0,0,0,1-.85h0l-.21,1.1A4.09,4.09,0,0,1,205,81a2.23,2.23,0,0,1-.47.73,2.06,2.06,0,0,1-.74.5,2.83,2.83,0,0,1-1.06.18,2.66,2.66,0,0,1-1.23-.29,2.29,2.29,0,0,1-.87-.74l-.56.59a2.82,2.82,0,0,0,1.11.86,3.86,3.86,0,0,0,1.55.31,3.57,3.57,0,0,0,1.57-.3,3.08,3.08,0,0,0,1-.74,2.92,2.92,0,0,0,.53-1,6.17,6.17,0,0,0,.26-1l1-5.73h-.82Zm-.36,2.43a3,3,0,0,1-.52.86,2.46,2.46,0,0,1-.8.58,2.31,2.31,0,0,1-1,.22,2.18,2.18,0,0,1-.79-.14,1.72,1.72,0,0,1-.58-.4,1.62,1.62,0,0,1-.36-.59,2,2,0,0,1-.12-.7,3.31,3.31,0,0,1,.18-1.11,2.54,2.54,0,0,1,.52-.86,2.21,2.21,0,0,1,.79-.55,2.61,2.61,0,0,1,1-.2,1.94,1.94,0,0,1,.78.15,1.85,1.85,0,0,1,.58.39,1.73,1.73,0,0,1,.37.59,2,2,0,0,1,.13.72A3,3,0,0,1,205.69,77.79Z" fill="#00205c"/><path d="M212.64,74.6a1.74,1.74,0,0,0-.66-.3,3.33,3.33,0,0,0-.78-.09,3.56,3.56,0,0,0-1.22.23,3.09,3.09,0,0,0-1,.6l.37.55a2.7,2.7,0,0,1,.8-.48,2.49,2.49,0,0,1,1-.21,1.7,1.7,0,0,1,1,.26,1,1,0,0,1,.36.89,1.7,1.7,0,0,1,0,.22c0,.08,0,.18-.05.32-.54,0-1.07,0-1.59.08a6.42,6.42,0,0,0-1.43.31,2.51,2.51,0,0,0-1,.66,1.55,1.55,0,0,0-.4,1.12,1.37,1.37,0,0,0,.17.7,1.43,1.43,0,0,0,.42.46,1.68,1.68,0,0,0,.56.26,2.6,2.6,0,0,0,.61.07,4.54,4.54,0,0,0,.66,0A2.7,2.7,0,0,0,211,80a3.67,3.67,0,0,0,.51-.33,4.53,4.53,0,0,0,.49-.49h0a3.93,3.93,0,0,0-.06.48c0,.17,0,.32,0,.46h.75c0-.16,0-.37,0-.61s.06-.47.1-.69l.42-2.35a2,2,0,0,0,0-.31c0-.13,0-.23,0-.3a1.53,1.53,0,0,0-.61-1.28Zm-.43,3.11a2.4,2.4,0,0,1-.26.72,2.12,2.12,0,0,1-.47.6,2.17,2.17,0,0,1-.65.41,2.39,2.39,0,0,1-.82.14,2.18,2.18,0,0,1-.44,0,1.16,1.16,0,0,1-.38-.15.7.7,0,0,1-.26-.28.88.88,0,0,1-.1-.45,1,1,0,0,1,.3-.74,2.08,2.08,0,0,1,.78-.43,5.42,5.42,0,0,1,1.05-.21,11.17,11.17,0,0,1,1.14-.06h.2Z" fill="#00205c"/><path d="M218.21,74.21a2.21,2.21,0,0,0-1.12.3,2.38,2.38,0,0,0-.86.84h0c0-.13.05-.28.08-.47s0-.37.06-.52h-.8c0,.2,0,.42-.08.66s-.08.45-.11.61l-.79,4.51h.83l.52-3a3.18,3.18,0,0,1,.32-1,2.81,2.81,0,0,1,.51-.71,1.89,1.89,0,0,1,.62-.42,1.83,1.83,0,0,1,.67-.14,1.23,1.23,0,0,1,1,.35,1.5,1.5,0,0,1,.29,1,3.79,3.79,0,0,1-.08.73l-.57,3.2h.84l.64-3.55c0-.11,0-.22,0-.32s0-.2,0-.29a1.64,1.64,0,0,0-.53-1.29A2.1,2.1,0,0,0,218.21,74.21Z" fill="#00205c"/><polygon points="235.64 71.39 232.04 78.92 232.02 78.92 231.29 71.39 230.23 71.39 226.58 78.92 226.56 78.92 225.85 71.39 224.92 71.39 225.82 80.14 226.85 80.14 230.55 72.6 230.57 72.6 231.28 80.14 232.32 80.14 236.58 71.39 235.64 71.39" fill="#00205c"/><path d="M239.67,74.21a2.15,2.15,0,0,0-1.11.3,2.22,2.22,0,0,0-.84.8h0l.79-4.51h-.83L236,80.14h.83l.52-3a3.46,3.46,0,0,1,.31-1,2.79,2.79,0,0,1,.5-.71,1.89,1.89,0,0,1,.62-.42,1.79,1.79,0,0,1,.67-.14,1.29,1.29,0,0,1,1,.35,1.5,1.5,0,0,1,.29,1,3.79,3.79,0,0,1-.08.73l-.56,3.2H241l.64-3.55c0-.11,0-.22,0-.32s0-.2,0-.29a1.64,1.64,0,0,0-.53-1.29A2.11,2.11,0,0,0,239.67,74.21Z" fill="#00205c"/><polygon points="242.99 80.14 243.82 80.14 244.84 74.36 244.02 74.36 242.99 80.14" fill="#00205c"/><path d="M244.78,71.55a.57.57,0,0,0-.41.18.55.55,0,0,0-.18.43.53.53,0,0,0,.17.41.61.61,0,0,0,.4.14.53.53,0,0,0,.41-.17.57.57,0,0,0,.17-.42.53.53,0,0,0-.16-.41A.54.54,0,0,0,244.78,71.55Z" fill="#00205c"/><path d="M248,72.73h-.82l-.29,1.63h-1.17l-.14.69h1.2l-.64,3.62a2,2,0,0,0,0,.39,1,1,0,0,0,.81,1.1,1.58,1.58,0,0,0,.43,0,2.93,2.93,0,0,0,.53,0,1.39,1.39,0,0,0,.42-.13l.1-.72a.79.79,0,0,1-.32.15,1.89,1.89,0,0,1-.39,0,.91.91,0,0,1-.52-.13.64.64,0,0,1-.19-.55,3.15,3.15,0,0,1,0-.4l.61-3.39h1.57l.13-.69h-1.59Z" fill="#00205c"/><path d="M252.86,74.21a3.09,3.09,0,0,0-1.31.29,3.4,3.4,0,0,0-1.06.77,3.55,3.55,0,0,0-.71,1.13,3.37,3.37,0,0,0-.26,1.34,2.6,2.6,0,0,0,.2,1.08,2.22,2.22,0,0,0,.56.8,2.39,2.39,0,0,0,.83.5,3.19,3.19,0,0,0,1,.17,3.3,3.3,0,0,0,1.42-.31,3.26,3.26,0,0,0,1.17-.9l-.52-.5a2.56,2.56,0,0,1-.81.71,2.2,2.2,0,0,1-1.19.31,1.94,1.94,0,0,1-.73-.14,1.73,1.73,0,0,1-.6-.39,1.81,1.81,0,0,1-.53-1.33v-.13s0-.09,0-.14h4.78a4,4,0,0,0,.09-.55q0-.3,0-.45a2.23,2.23,0,0,0-.62-1.63A2.37,2.37,0,0,0,252.86,74.21Zm1.58,2.43a1.25,1.25,0,0,1,0,.21h-3.93a2.5,2.5,0,0,1,.3-.74,2.61,2.61,0,0,1,.51-.63,2.2,2.2,0,0,1,.69-.42,2.18,2.18,0,0,1,.85-.16,1.56,1.56,0,0,1,1.2.43,1.52,1.52,0,0,1,.41,1.09A1.7,1.7,0,0,1,254.44,76.64Z" fill="#00205c"/><path d="M261.71,73.35a4.4,4.4,0,0,1,1.34-1,3.85,3.85,0,0,1,1.73-.38,3.1,3.1,0,0,1,.78.09,2.78,2.78,0,0,1,.63.27,2.17,2.17,0,0,1,.46.38,1.76,1.76,0,0,1,.29.42l.8-.53a2.08,2.08,0,0,0-.49-.59,3.14,3.14,0,0,0-.68-.43,3.77,3.77,0,0,0-.84-.28,4.08,4.08,0,0,0-.93-.1,4.88,4.88,0,0,0-2,.43,5.23,5.23,0,0,0-1.66,1.16A5.44,5.44,0,0,0,260,74.48a5.57,5.57,0,0,0-.41,2.13,4,4,0,0,0,.29,1.53,3.38,3.38,0,0,0,.8,1.18,3.66,3.66,0,0,0,1.24.77,4.59,4.59,0,0,0,1.6.27,6.79,6.79,0,0,0,1.71-.2,6.25,6.25,0,0,0,1.61-.65l.69-3.94h-2.93l-.14.75h2.07L266,79a3.76,3.76,0,0,1-1.09.44,6.12,6.12,0,0,1-1.4.16,3.28,3.28,0,0,1-1.3-.24,2.84,2.84,0,0,1-.95-.66,2.71,2.71,0,0,1-.59-1,3.6,3.6,0,0,1-.2-1.2,4.84,4.84,0,0,1,.32-1.71A4.59,4.59,0,0,1,261.71,73.35Z" fill="#00205c"/><path d="M272.52,74.22h-.28a2,2,0,0,0-1.11.31,2.71,2.71,0,0,0-.82.83h0c0-.13,0-.28.07-.47s.05-.37.06-.52h-.79a5.89,5.89,0,0,1-.08.66c0,.25-.07.45-.1.61l-.79,4.51h.82l.52-3a3.72,3.72,0,0,1,.31-1,2.34,2.34,0,0,1,.47-.68,1.57,1.57,0,0,1,.58-.39A1.88,1.88,0,0,1,272,75l.34,0,.23,0,.19-.79Z" fill="#00205c"/><path d="M278,74.9a2.56,2.56,0,0,0-.84-.51,3.14,3.14,0,0,0-1.08-.18,3.35,3.35,0,0,0-1.39.28,3.49,3.49,0,0,0-1.79,1.91,3.72,3.72,0,0,0-.26,1.38,2.61,2.61,0,0,0,.2,1,2.34,2.34,0,0,0,.55.79,2.5,2.5,0,0,0,.85.51,2.9,2.9,0,0,0,1.07.19,3.36,3.36,0,0,0,3.18-2.19,3.83,3.83,0,0,0,.26-1.4,2.56,2.56,0,0,0-.2-1A2.44,2.44,0,0,0,278,74.9Zm-.3,3a2.9,2.9,0,0,1-.52.89,2.57,2.57,0,0,1-.8.62,2.24,2.24,0,0,1-1,.23,1.86,1.86,0,0,1-.77-.15,1.64,1.64,0,0,1-.94-1,2,2,0,0,1-.13-.74,3.33,3.33,0,0,1,.19-1.09,3.1,3.1,0,0,1,.53-.9,2.39,2.39,0,0,1,.79-.62,2.19,2.19,0,0,1,1-.23,2.13,2.13,0,0,1,.78.14,1.9,1.9,0,0,1,.59.39,1.71,1.71,0,0,1,.36.59,2.25,2.25,0,0,1,.12.74A3.34,3.34,0,0,1,277.68,77.86Z" fill="#00205c"/><path d="M284.34,77.34a3.79,3.79,0,0,1-.32,1,2.81,2.81,0,0,1-.51.71,2.07,2.07,0,0,1-.63.41,1.74,1.74,0,0,1-.66.14,1.23,1.23,0,0,1-1-.35,1.45,1.45,0,0,1-.28-1,3.9,3.9,0,0,1,.07-.73l.57-3.2h-.83l-.64,3.55c0,.11,0,.22,0,.32a1.46,1.46,0,0,0,0,.29,1.63,1.63,0,0,0,.52,1.29,2.14,2.14,0,0,0,1.47.47,2.24,2.24,0,0,0,1.12-.3,2.56,2.56,0,0,0,.86-.84h0c0,.12-.05.28-.07.47s-.05.36-.07.52h.81a6.5,6.5,0,0,1,.08-.66c0-.24.07-.44.1-.6l.79-4.51h-.82Z" fill="#00205c"/><path d="M293.11,75.69a2.24,2.24,0,0,0-.53-.79,2.47,2.47,0,0,0-.82-.51,3,3,0,0,0-1.07-.18,2.52,2.52,0,0,0-.67.09,2.57,2.57,0,0,0-.6.23,2.49,2.49,0,0,0-.5.35,1.75,1.75,0,0,0-.36.42h0l.17-.94h-.83l-1.55,8.75h.82l.71-4h0a1.9,1.9,0,0,0,.84.84,2.51,2.51,0,0,0,1.18.29,3.24,3.24,0,0,0,1.35-.29,3.3,3.3,0,0,0,1.07-.76A3.51,3.51,0,0,0,293,78.1a3.83,3.83,0,0,0,.26-1.4A2.75,2.75,0,0,0,293.11,75.69Zm-.86,2.18a2.84,2.84,0,0,1-.51.9,2.37,2.37,0,0,1-.8.6,2.33,2.33,0,0,1-1,.23,2,2,0,0,1-.77-.14,1.69,1.69,0,0,1-.59-.39,1.93,1.93,0,0,1-.38-.59,2.27,2.27,0,0,1-.13-.75,3.06,3.06,0,0,1,.2-1.09,2.92,2.92,0,0,1,.54-.9,2.73,2.73,0,0,1,.82-.62,2.44,2.44,0,0,1,1-.22,2.05,2.05,0,0,1,.78.14,1.78,1.78,0,0,1,.57.4,1.54,1.54,0,0,1,.35.59,2.19,2.19,0,0,1,.12.73A3.31,3.31,0,0,1,292.25,77.87Z" fill="#00205c"/><path d="M49.16,0A49.16,49.16,0,1,1,0,49.16,49.22,49.22,0,0,1,49.16,0Z" fill="#fff"/><path d="M49.16,96.18a47,47,0,1,0-47-47A47.07,47.07,0,0,0,49.16,96.18Zm0-91.56A44.54,44.54,0,0,1,93.69,49.16c0,.53,0,1.06,0,1.59-1.05,0-7.57.11-10.47.11s-4.75-.11-5.19-.11c-.14,0-.21.07-.21.29v.84c0,.18.07.33.29.33H79.6c1,0,1.32.37,1.32,1.68v2.67c0,1.9-.07,2.92-.88,3.36-1.24.66-2.63.62-5,.62-3.63,0-6.24-2.28-9.24-4.71-.46-.37-.71-.19-.83,0s-.6,1.39-.72,1.7a.86.86,0,0,0,.21,1.06c2.52,2.8,6.82,4,10.29,4a21.13,21.13,0,0,0,10.38-2.41c.36-.14.58-.29.58-.58s-.14-.66-.14-1.17V53.56c0-1.06.44-1.35,1.09-1.35h6.89A44.53,44.53,0,0,1,6.71,62.64c1.61,0,4-.07,5.26-.07,2.26,0,3.5.11,3.87.11.22,0,.29-.11.29-.3v-.87c0-.19,0-.3-.25-.3h-1c-.88,0-1.24-.51-1.24-1,0-2,4.16-14.07,5.26-17.29h.15L24.32,56s1.2,2.86,1.95,2.86c1.15,0,2.87-4,2.87-4s4.94-11,5.23-11.78l.07,0,5.69,16.89a.87.87,0,0,1-.88,1.27h-.69c-.26,0-.33.11-.33.3v.91c0,.18.07.26.29.26s1.23,0,3-.07a1,1,0,0,0,.69-.31,1.11,1.11,0,0,0,.37-.49c.15-.4,6.62-14,6.95-15.05h.14L56.31,61.7c.14.44.4.81.91.81,2,0,2.61-.78,3.39-3,.41-1.16,2.79-7.87,5-13.57,2.57-6.78,6.51-8.76,10.47-8.76a8.26,8.26,0,0,1,6.06,2.55A14.46,14.46,0,0,1,85,44.78c.07.22.14.33.36.29l.88-.15c.15,0,.15-.21.15-.51L86,37.1c0-.29-.07-.51-.44-.51-.22,0-.33.11-.51.37l-.44.58c-.22.29-.44.4-.87.07a13.54,13.54,0,0,0-7.46-2c-6.75,0-11.59,1.45-14.72,11.19l-3,7.83L54.05,44.43s-1.91-4.56-2.74-4.56-2.79,4.25-2.79,4.25S43.59,54.68,43.3,55.45l-.08,0L37.54,38.53a.88.88,0,0,1,.88-1.28h.69c.26,0,.33-.11.33-.29v-.91c0-.19-.07-.26-.29-.26l-3.58.09c-.18,0-.44.53-.71,1.23-1.11,2.5-6.44,14.12-6.74,15H28l-6.61-15.4c-.15-.44-.4-.8-.92-.8s-.8.58-1,.95c-.73,1.83-8.18,22.29-8.55,23.1a1.79,1.79,0,0,1-1.61,1.2h-3A44.51,44.51,0,0,1,49.16,4.62Z" fill="#fff"/><path d="M49.16,98.32A49.16,49.16,0,1,0,0,49.16,49.22,49.22,0,0,0,49.16,98.32Zm0-96.18a47,47,0,1,1-47,47A47.07,47.07,0,0,1,49.16,2.14Z" fill="#00205c"/><path d="M6.29,61.21h3A1.79,1.79,0,0,0,10.94,60c.37-.81,7.82-21.27,8.55-23.1.15-.37.44-.95,1-.95s.77.36.92.8L28,52.16h.15c.3-.93,5.63-12.55,6.74-15,.27-.7.53-1.22.71-1.23l3.58-.09c.22,0,.29.07.29.26V37c0,.18-.07.29-.33.29h-.69a.88.88,0,0,0-.88,1.28l5.68,16.89.08,0c.29-.77,5.22-11.33,5.22-11.33s2-4.25,2.79-4.25,2.74,4.56,2.74,4.56l4.56,10.23,3-7.83c3.13-9.74,8-11.19,14.72-11.19a13.54,13.54,0,0,1,7.46,2c.43.33.65.22.87-.07l.44-.58c.18-.26.29-.37.51-.37.37,0,.44.22.44.51l.37,7.31c0,.3,0,.48-.15.51l-.88.15c-.22,0-.29-.07-.36-.29a14.46,14.46,0,0,0-2.93-5.05A8.26,8.26,0,0,0,76,37.18c-4,0-7.9,2-10.47,8.76-2.16,5.7-4.54,12.41-5,13.57-.78,2.22-1.43,3-3.39,3-.51,0-.77-.37-.91-.81L49.69,46.76h-.14c-.33,1-6.8,14.65-6.95,15.05a1.11,1.11,0,0,1-.37.49,1,1,0,0,1-.69.31c-1.79,0-2.72.07-3,.07s-.29-.08-.29-.26v-.91c0-.19.07-.3.33-.3h.69a.87.87,0,0,0,.88-1.27L34.44,43.05l-.07,0c-.29.77-5.23,11.78-5.23,11.78s-1.72,4-2.87,4c-.75,0-1.95-2.86-1.95-2.86L19.06,42.9h-.15c-1.1,3.22-5.26,15.28-5.26,17.29,0,.51.36,1,1.24,1h1c.22,0,.25.11.25.3v.87c0,.19-.07.3-.29.3-.37,0-1.61-.11-3.87-.11-1.3,0-3.65,0-5.26.07A44.53,44.53,0,0,0,93.58,52.21H86.69c-.65,0-1.09.29-1.09,1.35v4.83c0,.51.14.87.14,1.17s-.22.44-.58.58a21.13,21.13,0,0,1-10.38,2.41c-3.47,0-7.77-1.16-10.29-4a.86.86,0,0,1-.21-1.06c.12-.31.6-1.5.72-1.7s.37-.37.83,0c3,2.43,5.61,4.71,9.24,4.71,2.34,0,3.73,0,5-.62.81-.44.88-1.46.88-3.36V53.89c0-1.31-.37-1.68-1.32-1.68H78.07c-.22,0-.29-.15-.29-.33V51c0-.22.07-.29.21-.29.44,0,2.2.11,5.19.11s9.42-.1,10.47-.11c0-.53,0-1.06,0-1.59A44.54,44.54,0,1,0,6.29,61.21Z" fill="#00205c"/></svg>