<svg xmlns="http://www.w3.org/2000/svg" viewBox="0 0 349.58 91.32"><title>mwgi-reverse</title><path d="M108.25,35.05h4.63V56.92h-4.63Z" fill="#fff"/><path d="M117.09,35.05h6.28l8.93,15.19h.06V35.05H137V56.92h-6.05l-9.17-15.57h-.06V56.92h-4.62Z" fill="#fff"/><path d="M145.32,39.31h-6V35.05h16.61v4.26h-6V56.92h-4.62Z" fill="#fff"/><path d="M158.46,35.05h14.26v4.44h-9.64v4.08h9.11V48h-9.11v4.45h10.17v4.45H158.46Z" fill="#fff"/><path d="M177,35.05h8.13a13.62,13.62,0,0,1,3,.32,7.26,7.26,0,0,1,2.52,1.08,5.46,5.46,0,0,1,1.72,2,7.24,7.24,0,0,1,.63,3.2,6.64,6.64,0,0,1-1.15,3.94,5.18,5.18,0,0,1-3.38,2l5.34,9.24h-5.55l-4.39-8.75h-2.28v8.75H177Zm4.63,9.05h2.73c.41,0,.85,0,1.32-.05a3.87,3.87,0,0,0,1.26-.28,2.18,2.18,0,0,0,.93-.72,2.27,2.27,0,0,0,.37-1.39,2.36,2.36,0,0,0-.33-1.33,2.16,2.16,0,0,0-.83-.76,3.6,3.6,0,0,0-1.15-.35,8.06,8.06,0,0,0-1.28-.1h-3Z" fill="#fff"/><path d="M196.18,35.05h6.28l8.93,15.19h.06V35.05h4.63V56.92H210l-9.17-15.57h-.06V56.92h-4.62Z" fill="#fff"/><path d="M227.26,35.05h3.82l9.14,21.87H235l-1.81-4.64H225l-1.75,4.64h-5.1ZM229,41.41l-2.56,6.8h5.14Z" fill="#fff"/><path d="M243.66,39.31h-6V35.05h16.6v4.26h-6V56.92h-4.62Z" fill="#fff"/><path d="M256.56,35.05h4.62V56.92h-4.62Z" fill="#fff"/><path d="M264.27,46a12.93,12.93,0,0,1,.84-4.76,10.2,10.2,0,0,1,5.95-5.93,13.25,13.25,0,0,1,9.07,0,10.2,10.2,0,0,1,5.95,5.93,13.91,13.91,0,0,1,0,9.52,10.56,10.56,0,0,1-2.36,3.63,10.34,10.34,0,0,1-3.59,2.3,13.25,13.25,0,0,1-9.07,0,10.2,10.2,0,0,1-5.95-5.93A12.89,12.89,0,0,1,264.27,46Zm4.8,0a8.28,8.28,0,0,0,.46,2.83A6.68,6.68,0,0,0,270.85,51a6,6,0,0,0,2.06,1.47,7.19,7.19,0,0,0,5.37,0A6,6,0,0,0,280.34,51a6.68,6.68,0,0,0,1.32-2.22,8.87,8.87,0,0,0,0-5.64,6.67,6.67,0,0,0-1.32-2.24,6,6,0,0,0-2.06-1.47,7.19,7.19,0,0,0-5.37,0,6,6,0,0,0-2.06,1.47,6.67,6.67,0,0,0-1.32,2.24A8.24,8.24,0,0,0,269.07,46Z" fill="#fff"/><path d="M290.07,35.05h6.28l8.93,15.19h.06V35.05H310V56.92h-6l-9.16-15.57h-.06V56.92h-4.62Z" fill="#fff"/><path d="M321.14,35.05H325l9.13,21.87h-5.22l-1.81-4.64h-8.15l-1.75,4.64h-5.1Zm1.78,6.36-2.55,6.8h5.13Z" fill="#fff"/><path d="M336.39,35.05H341V52.47h8.57v4.45H336.39Z" fill="#fff"/><path d="M107.19,76.75h-1L111.81,68h.86l1.82,8.75h-.93l-.47-2.3h-4.47Zm1.94-3.12H113L112,69Z" fill="#fff"/><path d="M118.36,74.4a3.82,3.82,0,0,1,.25-1.4,3.35,3.35,0,0,1,1.79-1.9,3.25,3.25,0,0,1,1.36-.29,2.54,2.54,0,0,1,1.18.29,1.92,1.92,0,0,1,.83.84h0l.81-4.54h.83l-1.66,9.35h-.83l.17-1h0a2.4,2.4,0,0,1-.85.78,2.61,2.61,0,0,1-1.28.32,3,3,0,0,1-1.06-.18,2.26,2.26,0,0,1-1.36-1.3A2.71,2.71,0,0,1,118.36,74.4Zm.86-.06a2.11,2.11,0,0,0,.12.73,1.6,1.6,0,0,0,.35.59,1.78,1.78,0,0,0,.57.4,2.05,2.05,0,0,0,.78.14,2.29,2.29,0,0,0,1-.22,2.59,2.59,0,0,0,.82-.61,2.92,2.92,0,0,0,.54-.9,3,3,0,0,0,.2-1.09,2,2,0,0,0-.13-.75,1.71,1.71,0,0,0-.38-.6,1.6,1.6,0,0,0-.59-.39,2.11,2.11,0,0,0-.77-.13,2.32,2.32,0,0,0-1,.22,2.51,2.51,0,0,0-.8.61,2.69,2.69,0,0,0-.51.89A3.4,3.4,0,0,0,119.22,74.34Z" fill="#fff"/><path d="M126.75,76.75h-.83l1-5.79h.83Zm1.52-8a.61.61,0,0,1-.17.42.57.57,0,0,1-.41.17.61.61,0,0,1-.41-.15.51.51,0,0,1-.16-.41.58.58,0,0,1,.18-.43.6.6,0,0,1,.41-.17.57.57,0,0,1,.4.15A.59.59,0,0,1,128.27,68.73Z" fill="#fff"/><path d="M130.92,76.75H130L128.82,71h.86l.92,4.9h0l2.88-4.9h.9Z" fill="#fff"/><path d="M135.42,76.75h-.83l1-5.79h.83Zm1.52-8a.57.57,0,0,1-.17.42.55.55,0,0,1-.41.17.57.57,0,0,1-.4-.15.52.52,0,0,1-.17-.41.58.58,0,0,1,.18-.43.61.61,0,0,1,.42-.17.56.56,0,0,1,.39.15A.55.55,0,0,1,136.94,68.73Z" fill="#fff"/><path d="M141.44,72.24a1.39,1.39,0,0,0-.52-.53,1.57,1.57,0,0,0-.83-.2,1.85,1.85,0,0,0-.46,0,1.42,1.42,0,0,0-.45.16,1,1,0,0,0-.33.29.7.7,0,0,0-.13.44.86.86,0,0,0,.08.38.78.78,0,0,0,.23.25,2,2,0,0,0,.36.19l.48.15a3.5,3.5,0,0,1,1.3.63,1.32,1.32,0,0,1,.44,1.06,1.48,1.48,0,0,1-.21.81,1.78,1.78,0,0,1-.53.56,2.36,2.36,0,0,1-.72.32,3.44,3.44,0,0,1-.77.09,3.63,3.63,0,0,1-1.37-.26,2.11,2.11,0,0,1-1-.82l.71-.47a1.76,1.76,0,0,0,.63.61,1.86,1.86,0,0,0,1,.25,3.07,3.07,0,0,0,.53,0,1.58,1.58,0,0,0,.46-.18.84.84,0,0,0,.45-.76.8.8,0,0,0-.36-.7,4.53,4.53,0,0,0-1-.46l-.52-.2a1.86,1.86,0,0,1-.47-.29,1.34,1.34,0,0,1-.34-.44,1.28,1.28,0,0,1-.13-.61,1.47,1.47,0,0,1,.2-.77,1.72,1.72,0,0,1,.52-.52,2.39,2.39,0,0,1,.71-.31,3.56,3.56,0,0,1,.79-.1,2.67,2.67,0,0,1,1.19.26,1.68,1.68,0,0,1,.76.7Z" fill="#fff"/><path d="M143.68,76.75h-.83l1-5.79h.83Zm1.51-8a.6.6,0,0,1-.16.42.57.57,0,0,1-.42.17.59.59,0,0,1-.4-.15.51.51,0,0,1-.16-.41.58.58,0,0,1,.18-.43.57.57,0,0,1,.41-.17.53.53,0,0,1,.39.15A.55.55,0,0,1,145.19,68.73Z" fill="#fff"/><path d="M148.41,76.89a3.14,3.14,0,0,1-1.08-.18,2.52,2.52,0,0,1-.84-.51,2.24,2.24,0,0,1-.55-.8,2.53,2.53,0,0,1-.2-1,3.66,3.66,0,0,1,1-2.52,3.53,3.53,0,0,1,1.09-.77,3.31,3.31,0,0,1,1.38-.29,3.16,3.16,0,0,1,1.09.18,2.42,2.42,0,0,1,.84.52,2.49,2.49,0,0,1,.55.79,2.53,2.53,0,0,1,.19,1,3.82,3.82,0,0,1-.25,1.4,3.4,3.4,0,0,1-1.8,1.9A3.31,3.31,0,0,1,148.41,76.89ZM151,73.36a2.15,2.15,0,0,0-.12-.73,1.69,1.69,0,0,0-.37-.59,1.56,1.56,0,0,0-.58-.39,1.94,1.94,0,0,0-.78-.14,2.13,2.13,0,0,0-1,.23,2.75,2.75,0,0,0-.79.61,3.26,3.26,0,0,0-.52.91,3,3,0,0,0-.19,1.08,2.21,2.21,0,0,0,.12.74,1.62,1.62,0,0,0,.36.59,1.81,1.81,0,0,0,1.35.53,2.18,2.18,0,0,0,1-.23,2.51,2.51,0,0,0,.8-.61,2.84,2.84,0,0,0,.51-.9A3.07,3.07,0,0,0,151,73.36Z" fill="#fff"/><path d="M154.75,71c0,.16,0,.33-.06.52s-.05.35-.08.47h0a2.44,2.44,0,0,1,.86-.83,2.22,2.22,0,0,1,1.12-.31,2.1,2.1,0,0,1,1.47.48,1.66,1.66,0,0,1,.52,1.29c0,.1,0,.2,0,.3s0,.2,0,.32l-.64,3.55h-.83l.57-3.2a3.88,3.88,0,0,0,.08-.73,1.47,1.47,0,0,0-.29-1,1.2,1.2,0,0,0-1-.35,1.81,1.81,0,0,0-.67.13,1.89,1.89,0,0,0-.62.42,2.53,2.53,0,0,0-.51.71,3.24,3.24,0,0,0-.32,1l-.52,3H153l.79-4.51c0-.16.07-.36.1-.61a6.34,6.34,0,0,0,.08-.67Z" fill="#fff"/><path d="M165.51,76.89a3.14,3.14,0,0,1-1.08-.18,2.63,2.63,0,0,1-.84-.51,2.24,2.24,0,0,1-.55-.8,2.53,2.53,0,0,1-.2-1,3.93,3.93,0,0,1,.25-1.38,3.71,3.71,0,0,1,.71-1.14,3.53,3.53,0,0,1,1.09-.77,3.32,3.32,0,0,1,1.39-.29,3.14,3.14,0,0,1,1.08.18,2.42,2.42,0,0,1,.84.52,2.49,2.49,0,0,1,.55.79,2.53,2.53,0,0,1,.19,1,3.82,3.82,0,0,1-.25,1.4,3.4,3.4,0,0,1-1.8,1.9A3.31,3.31,0,0,1,165.51,76.89Zm2.57-3.53a2.15,2.15,0,0,0-.12-.73,1.69,1.69,0,0,0-.37-.59,1.56,1.56,0,0,0-.58-.39,1.94,1.94,0,0,0-.78-.14,2.13,2.13,0,0,0-1,.23,2.75,2.75,0,0,0-.79.61,3.26,3.26,0,0,0-.52.91,3,3,0,0,0-.19,1.08,2.21,2.21,0,0,0,.12.74,1.79,1.79,0,0,0,.37.59,1.85,1.85,0,0,0,.58.39,2,2,0,0,0,.77.14,2.12,2.12,0,0,0,1-.23,2.4,2.4,0,0,0,.8-.61,3.07,3.07,0,0,0,.52-.9A3.3,3.3,0,0,0,168.08,73.36Z" fill="#fff"/><path d="M173.4,71.65h-1.35l-.89,5.1h-.83l.89-5.1H170l.14-.69h1.2l.27-1.57a3.7,3.7,0,0,1,.24-.82,2.16,2.16,0,0,1,.42-.68,2,2,0,0,1,.64-.46,1.94,1.94,0,0,1,.86-.17h.34l.34.07-.2.73a2,2,0,0,0-.58-.07,1,1,0,0,0-.87.42,2.14,2.14,0,0,0-.23.48,3.28,3.28,0,0,0-.14.58L172.16,71h1.38Z" fill="#fff"/><path d="M181.36,75.24h0L185.61,68H187l-1.54,8.75h-.88l1.33-7.57h0l-4.5,7.57h-.47l-1.83-7.57h0l-1.34,7.57h-.86L178.37,68h1.34Z" fill="#fff"/><path d="M190.21,76.89a3.14,3.14,0,0,1-1.08-.18,2.63,2.63,0,0,1-.84-.51,2.24,2.24,0,0,1-.55-.8,2.53,2.53,0,0,1-.2-1,3.93,3.93,0,0,1,.25-1.38,3.71,3.71,0,0,1,.71-1.14,3.53,3.53,0,0,1,1.09-.77,3.32,3.32,0,0,1,1.39-.29,3.14,3.14,0,0,1,1.08.18,2.42,2.42,0,0,1,.84.52,2.34,2.34,0,0,1,.55.79,2.53,2.53,0,0,1,.2,1,3.83,3.83,0,0,1-.26,1.4,3.4,3.4,0,0,1-1.8,1.9A3.31,3.31,0,0,1,190.21,76.89Zm2.57-3.53a2.15,2.15,0,0,0-.12-.73,1.69,1.69,0,0,0-.37-.59,1.56,1.56,0,0,0-.58-.39,1.94,1.94,0,0,0-.78-.14,2.13,2.13,0,0,0-1,.23,2.58,2.58,0,0,0-.78.61,3.06,3.06,0,0,0-.53.91,3,3,0,0,0-.19,1.08,2.21,2.21,0,0,0,.12.74,1.79,1.79,0,0,0,.37.59,1.85,1.85,0,0,0,.58.39,2,2,0,0,0,.77.14,2.12,2.12,0,0,0,1-.23,2.4,2.4,0,0,0,.8-.61,3.07,3.07,0,0,0,.52-.9A3.3,3.3,0,0,0,192.78,73.36Z" fill="#fff"/><path d="M195.66,71.63a6.34,6.34,0,0,0,.08-.67h.8c0,.16,0,.33-.07.52s-.05.35-.07.47h0a2.67,2.67,0,0,1,.82-.82,2,2,0,0,1,1.11-.32l.29,0a1.32,1.32,0,0,1,.26,0l-.2.79a.72.72,0,0,0-.23,0,2,2,0,0,0-.34,0,1.64,1.64,0,0,0-.65.13,1.6,1.6,0,0,0-.59.39,2.21,2.21,0,0,0-.47.68,3.21,3.21,0,0,0-.3,1l-.52,3h-.83l.79-4.51C195.59,72.08,195.63,71.88,195.66,71.63Z" fill="#fff"/><path d="M198.82,78a2.43,2.43,0,0,0,.87.73,2.59,2.59,0,0,0,1.23.29A2.8,2.8,0,0,0,202,78.8a2.08,2.08,0,0,0,.75-.49,2.61,2.61,0,0,0,.47-.73,5,5,0,0,0,.26-.88l.21-1.1h0a2.69,2.69,0,0,1-1,.85,2.61,2.61,0,0,1-1.24.3,2.83,2.83,0,0,1-1.07-.2,2.32,2.32,0,0,1-.81-.53,2.42,2.42,0,0,1-.51-.81,2.7,2.7,0,0,1-.18-1,3.6,3.6,0,0,1,.25-1.32,3.43,3.43,0,0,1,.71-1.08,3.35,3.35,0,0,1,2.41-1,2.57,2.57,0,0,1,.62.08,2.25,2.25,0,0,1,.58.22,2.07,2.07,0,0,1,.47.37,1.82,1.82,0,0,1,.34.48h0l.19-1h.81l-1,5.74a9.93,9.93,0,0,1-.26,1,3.09,3.09,0,0,1-.54,1,2.63,2.63,0,0,1-1,.74,3.51,3.51,0,0,1-1.57.3,3.65,3.65,0,0,1-1.54-.31,2.8,2.8,0,0,1-1.11-.85Zm.9-3.73a2.07,2.07,0,0,0,.13.7,1.71,1.71,0,0,0,.36.59,1.49,1.49,0,0,0,.58.39,2,2,0,0,0,.79.14,2.33,2.33,0,0,0,1.81-.8,2.51,2.51,0,0,0,.52-.86,2.73,2.73,0,0,0,.19-1,2.09,2.09,0,0,0-.13-.72,1.79,1.79,0,0,0-.37-.59,1.92,1.92,0,0,0-.59-.4,2.13,2.13,0,0,0-.78-.14,2.61,2.61,0,0,0-1,.19,2.49,2.49,0,0,0-.79.55,2.46,2.46,0,0,0-.51.86A3.33,3.33,0,0,0,199.72,74.23Z" fill="#fff"/><path d="M210.63,73.2a1.76,1.76,0,0,0,.05-.33,1.83,1.83,0,0,0,0-.21,1,1,0,0,0-.36-.89,1.63,1.63,0,0,0-1-.26,2.45,2.45,0,0,0-1,.2,3.17,3.17,0,0,0-.81.49l-.37-.56a3.6,3.6,0,0,1,1-.6,3.56,3.56,0,0,1,1.22-.23,3.42,3.42,0,0,1,.79.1,1.84,1.84,0,0,1,.65.29,1.5,1.5,0,0,1,.45.52,1.64,1.64,0,0,1,.17.76c0,.08,0,.18,0,.31s0,.23,0,.31L211,75.45a5,5,0,0,0-.1.69,4.88,4.88,0,0,0,0,.61h-.74a3.7,3.7,0,0,1,0-.46c0-.17,0-.33,0-.48h0a3.7,3.7,0,0,1-.5.48,2,2,0,0,1-.51.33,2.7,2.7,0,0,1-.57.18,3.37,3.37,0,0,1-.66.06,2.47,2.47,0,0,1-.6-.08,1.63,1.63,0,0,1-.57-.25,1.43,1.43,0,0,1-.42-.46,1.41,1.41,0,0,1-.16-.71,1.61,1.61,0,0,1,.39-1.12,2.64,2.64,0,0,1,1-.65,6,6,0,0,1,1.43-.31C209.57,73.23,210.1,73.2,210.63,73.2Zm-.3.63a11,11,0,0,0-1.14.06,4.24,4.24,0,0,0-1.06.21,2.1,2.1,0,0,0-.78.43.94.94,0,0,0-.3.73.88.88,0,0,0,.1.45.75.75,0,0,0,.27.29,1.08,1.08,0,0,0,.38.15,2.32,2.32,0,0,0,1.25-.11,2,2,0,0,0,.66-.41,2.31,2.31,0,0,0,.47-.6,2.47,2.47,0,0,0,.26-.72l.08-.48Z" fill="#fff"/><path d="M214.56,71c0,.16,0,.33-.06.52s-.05.35-.07.47h0a2.53,2.53,0,0,1,.86-.83,2.26,2.26,0,0,1,1.13-.31,2.09,2.09,0,0,1,1.46.48,1.63,1.63,0,0,1,.53,1.29,1.51,1.51,0,0,1,0,.3c0,.1,0,.2,0,.32l-.64,3.55h-.83l.57-3.2a3.83,3.83,0,0,0,.07-.73,1.46,1.46,0,0,0-.28-1,1.21,1.21,0,0,0-1-.35,1.74,1.74,0,0,0-.67.13,1.89,1.89,0,0,0-.62.42,2.77,2.77,0,0,0-.52.71,3.53,3.53,0,0,0-.32,1l-.52,3h-.83l.79-4.51c0-.16.07-.36.11-.61s.06-.47.08-.67Z" fill="#fff"/><path d="M224.78,75.52h0L228.45,68h1.07l.72,7.52h0L233.86,68h.94l-4.26,8.75h-1l-.7-7.54h0l-3.69,7.54h-1l-.9-8.75h.94Z" fill="#fff"/><path d="M237.89,70.81a2.09,2.09,0,0,1,1.46.48,1.67,1.67,0,0,1,.53,1.29,1.51,1.51,0,0,1,0,.3c0,.1,0,.2,0,.32l-.64,3.55h-.83l.57-3.2a3.83,3.83,0,0,0,.07-.73,1.41,1.41,0,0,0-.29-1,1.23,1.23,0,0,0-1-.35,1.72,1.72,0,0,0-.66.13,1.8,1.8,0,0,0-.62.42,2.72,2.72,0,0,0-.5.71,3.53,3.53,0,0,0-.32,1l-.52,3h-.82l1.64-9.35h.83l-.79,4.51h0a2.47,2.47,0,0,1,.84-.8A2.2,2.2,0,0,1,237.89,70.81Z" fill="#fff"/><path d="M242,76.75h-.82l1-5.79h.83Zm1.52-8a.6.6,0,0,1-.16.42.57.57,0,0,1-.42.17.59.59,0,0,1-.4-.15.51.51,0,0,1-.16-.41.61.61,0,0,1,.17-.43.61.61,0,0,1,.42-.17.54.54,0,0,1,.39.15A.55.55,0,0,1,243.56,68.73Z" fill="#fff"/><path d="M247.43,71.65h-1.57l-.6,3.4a2,2,0,0,0,0,.4.62.62,0,0,0,.2.54.89.89,0,0,0,.52.14,1.42,1.42,0,0,0,.38-.06.73.73,0,0,0,.32-.14l-.1.72a1.52,1.52,0,0,1-.41.13,3.12,3.12,0,0,1-.54,0,2.18,2.18,0,0,1-.43,0,1,1,0,0,1-.39-.18,1,1,0,0,1-.3-.35,1.21,1.21,0,0,1-.11-.57,3.15,3.15,0,0,1,0-.4l.64-3.62h-1.19L244,71h1.18l.28-1.63h.83L246,71h1.6Z" fill="#fff"/><path d="M248.61,74.08a.68.68,0,0,0,0,.14.62.62,0,0,0,0,.13,2,2,0,0,0,.14.75,1.94,1.94,0,0,0,.4.58,1.66,1.66,0,0,0,.59.38,1.81,1.81,0,0,0,.74.14,2.25,2.25,0,0,0,1.18-.3,2.86,2.86,0,0,0,.82-.71l.52.49a3.21,3.21,0,0,1-1.18.91,3.38,3.38,0,0,1-1.42.3,3,3,0,0,1-1-.17,2.29,2.29,0,0,1-1.39-1.29,2.85,2.85,0,0,1-.2-1.08A3.64,3.64,0,0,1,248,73a3.51,3.51,0,0,1,.71-1.12,3.73,3.73,0,0,1,1.06-.78,3.1,3.1,0,0,1,1.32-.29,2.4,2.4,0,0,1,1.8.63,2.25,2.25,0,0,1,.61,1.64q0,.14,0,.45a3,3,0,0,1-.08.55Zm4-.62c0-.07,0-.14,0-.22a1.62,1.62,0,0,0,0-.21,1.5,1.5,0,0,0-.41-1.1,1.58,1.58,0,0,0-1.19-.42,2.34,2.34,0,0,0-.85.15,2.23,2.23,0,0,0-.69.43,2.46,2.46,0,0,0-.81,1.37Z" fill="#fff"/><path d="M261.78,76.2a5.53,5.53,0,0,0,1.39-.16,3.93,3.93,0,0,0,1.09-.43l.47-2.68h-2.06l.13-.76h2.93l-.69,4a6.11,6.11,0,0,1-1.61.65,7.26,7.26,0,0,1-1.7.2,4.51,4.51,0,0,1-1.6-.27,3.56,3.56,0,0,1-1.24-.77,3.31,3.31,0,0,1-.81-1.19,4,4,0,0,1-.28-1.53,5.52,5.52,0,0,1,.41-2.12,5.32,5.32,0,0,1,1.12-1.73A5.12,5.12,0,0,1,261,68.2a5,5,0,0,1,2-.43,4.73,4.73,0,0,1,.93.1,4,4,0,0,1,.83.28,3,3,0,0,1,.69.44,2.44,2.44,0,0,1,.49.58l-.81.53a1.51,1.51,0,0,0-.29-.42,1.91,1.91,0,0,0-.46-.37,2.33,2.33,0,0,0-.62-.27,2.8,2.8,0,0,0-.79-.1,3.81,3.81,0,0,0-1.72.39,4.29,4.29,0,0,0-1.35,1,4.77,4.77,0,0,0-1.19,3.17,3.4,3.4,0,0,0,.2,1.2,2.77,2.77,0,0,0,.58,1,2.92,2.92,0,0,0,1,.65A3.33,3.33,0,0,0,261.78,76.2Z" fill="#fff"/><path d="M267.78,71.63c0-.25.06-.47.08-.67h.79c0,.16,0,.33-.06.52s0,.35-.08.47h0a2.54,2.54,0,0,1,.81-.82,2,2,0,0,1,1.11-.32l.29,0a1.32,1.32,0,0,1,.26,0l-.2.79a.72.72,0,0,0-.23,0,1.87,1.87,0,0,0-.34,0,1.64,1.64,0,0,0-.65.13,1.6,1.6,0,0,0-.59.39,2.4,2.4,0,0,0-.47.68,3.51,3.51,0,0,0-.3,1l-.52,3h-.83l.79-4.51C267.7,72.08,267.74,71.88,267.78,71.63Z" fill="#fff"/><path d="M273.52,76.89a3.14,3.14,0,0,1-1.08-.18,2.52,2.52,0,0,1-.84-.51,2.24,2.24,0,0,1-.55-.8,2.37,2.37,0,0,1-.2-1,3.66,3.66,0,0,1,1-2.52,3.53,3.53,0,0,1,1.09-.77,3.31,3.31,0,0,1,1.38-.29,3.06,3.06,0,0,1,1.08.18,2.25,2.25,0,0,1,.84.52,2.21,2.21,0,0,1,.55.79,2.37,2.37,0,0,1,.2,1,3.82,3.82,0,0,1-.25,1.4,3.4,3.4,0,0,1-1.8,1.9A3.31,3.31,0,0,1,273.52,76.89Zm2.57-3.53a1.93,1.93,0,0,0-.13-.73,1.54,1.54,0,0,0-.36-.59,1.6,1.6,0,0,0-.59-.39,1.89,1.89,0,0,0-.77-.14,2.1,2.1,0,0,0-1,.23,2.62,2.62,0,0,0-.79.61,3.26,3.26,0,0,0-.52.91,3,3,0,0,0-.19,1.08,2.21,2.21,0,0,0,.12.74,1.62,1.62,0,0,0,.36.59,2,2,0,0,0,.58.39,2.11,2.11,0,0,0,.77.14,2.18,2.18,0,0,0,1-.23,2.36,2.36,0,0,0,.79-.61,2.69,2.69,0,0,0,.52-.9A3.07,3.07,0,0,0,276.09,73.36Z" fill="#fff"/><path d="M282.13,76.75c0-.16,0-.33.06-.52s.05-.35.07-.47h0a2.44,2.44,0,0,1-.86.83,2.21,2.21,0,0,1-1.12.3,2.09,2.09,0,0,1-1.46-.47,1.63,1.63,0,0,1-.53-1.28c0-.1,0-.2,0-.3s0-.2,0-.32L279,71h.84l-.57,3.2a3.86,3.86,0,0,0-.08.72,1.47,1.47,0,0,0,.29,1,1.21,1.21,0,0,0,1,.34,1.74,1.74,0,0,0,.67-.13,1.89,1.89,0,0,0,.62-.42,2.75,2.75,0,0,0,.51-.7,3.24,3.24,0,0,0,.32-1l.52-3h.83l-.79,4.5c0,.16-.07.36-.11.61s-.06.46-.08.66Z" fill="#fff"/><path d="M286.79,71.9a1.75,1.75,0,0,1,.36-.42,2,2,0,0,1,.5-.34,2.69,2.69,0,0,1,.6-.24,2.39,2.39,0,0,1,.66-.09A3,3,0,0,1,290,71a2.25,2.25,0,0,1,.82.52,2.16,2.16,0,0,1,.53.79,2.53,2.53,0,0,1,.19,1,3.83,3.83,0,0,1-.26,1.4,3.55,3.55,0,0,1-.71,1.13,3.44,3.44,0,0,1-1.07.77,3.25,3.25,0,0,1-1.36.28,2.53,2.53,0,0,1-1.18-.28,1.87,1.87,0,0,1-.83-.84h0l-.7,3.94h-.83L286.11,71h.83l-.18.94Zm3.86,1.46a2.17,2.17,0,0,0-.11-.72,1.64,1.64,0,0,0-.92-1,1.91,1.91,0,0,0-.78-.14,2.37,2.37,0,0,0-1,.22,2.55,2.55,0,0,0-.81.61,2.85,2.85,0,0,0-.54.91,2.8,2.8,0,0,0-.2,1.08,2,2,0,0,0,.13.75,1.58,1.58,0,0,0,.38.6,1.65,1.65,0,0,0,.58.39,2.11,2.11,0,0,0,.77.13,2.31,2.31,0,0,0,1.83-.83,2.5,2.5,0,0,0,.52-.9A3.31,3.31,0,0,0,290.65,73.36Z" fill="#fff"/><circle cx="45.66" cy="45.66" r="44.59" fill="#00205c" stroke="#fff" stroke-miterlimit="10" stroke-width="2.14"/><path d="M72.53,33.68a8.26,8.26,0,0,1,6.06,2.55,14.46,14.46,0,0,1,2.93,5.05c.07.22.14.33.36.29l.88-.15c.15,0,.15-.21.15-.51l-.37-7.31c0-.29-.07-.51-.44-.51-.22,0-.33.11-.51.37l-.44.58c-.22.29-.44.4-.87.07a13.54,13.54,0,0,0-7.46-2c-6.75,0-11.59,1.45-14.72,11.19l-3,7.83L50.55,40.93s-1.91-4.56-2.74-4.56S45,40.62,45,40.62,40.09,51.18,39.8,52l-.08,0L34,35a.88.88,0,0,1,.88-1.28h.69c.26,0,.33-.11.33-.29v-.92c0-.18-.07-.25-.29-.25l-3.58.09c-.17,0-.44.53-.71,1.23-1.11,2.5-6.44,14.12-6.74,15h-.15l-6.61-15.4c-.15-.44-.4-.8-.92-.8s-.8.58-1,.95c-.73,1.83-8.18,22.29-8.55,23.1a1.79,1.79,0,0,1-1.61,1.2H2.9c-.22,0-.26.11-.26.3v1c0,.11.08.19.22.19.3,0,3.56-.11,5.61-.11,2.26,0,3.5.11,3.87.11s.29-.11.29-.3V58c0-.19,0-.3-.25-.3h-1c-.88,0-1.24-.51-1.24-1,0-2,4.16-14.07,5.26-17.29h.15l5.26,13.06s1.2,2.86,1.95,2.86c1.15,0,2.87-4,2.87-4s4.94-11,5.23-11.78l.07,0,5.69,16.89a.87.87,0,0,1-.88,1.27h-.69c-.26,0-.33.11-.33.3v.91c0,.18.07.26.29.26s1.23,0,3-.07a1,1,0,0,0,.69-.31,1.11,1.11,0,0,0,.37-.49c.15-.4,6.62-14,6.95-15.05h.14L52.81,58.2c.15.44.4.81.91.81,2,0,2.61-.78,3.39-3,.41-1.15,2.79-7.86,5-13.56C64.63,35.66,68.57,33.68,72.53,33.68ZM90,47.25c-.37,0-7.29.11-10.35.11s-4.76-.11-5.2-.11c-.14,0-.21.07-.21.29v.84c0,.18.07.33.29.33H76.1c1,0,1.32.37,1.32,1.68v2.67c0,1.9-.07,2.92-.88,3.36-1.24.66-2.63.61-5,.61-3.63,0-6.24-2.28-9.24-4.7-.46-.37-.71-.19-.83,0s-.59,1.39-.72,1.7A.87.87,0,0,0,61,55.09c2.52,2.8,6.82,4,10.29,4a21.1,21.1,0,0,0,10.38-2.41c.36-.14.58-.29.58-.58s-.14-.66-.14-1.17V50.06c0-1.06.44-1.35,1.09-1.35h6.92c.22,0,.29-.07.29-.29V47.5C90.4,47.32,90.33,47.25,90,47.25Z" fill="#fff"/></svg>