<svg id="Layer_1" data-name="Layer 1" xmlns="http://www.w3.org/2000/svg" viewBox="0 0 364.98 216.35"><path d="M349.4,207.3l16.7,31.9a3.92,3.92,0,0,0,2.1,1.7c.8.3,8.7,2.3,8.7,2.3,2,.2,2.9-.5,3-2.1.3-2,.8-7.8.8-7.8a5.81,5.81,0,0,0-.9-4.2c-1.2-1.1-20.8-28-20.8-28-.5-.5-.9-.5-.9.5s-.5,5-.5,5,0,1.2-.6,1.5a3.05,3.05,0,0,1-2.3,0c-.8-.2-4.7-1.4-4.7-1.4s-.9-.2-.6.6" transform="translate(-67.36 -141.85)" fill="#000101"/><path d="M332.7,212.9l8.1,22.6c.5.8.9,1.7,1.7,2s7.5,3.3,7.5,3.3a2.84,2.84,0,0,0,3.2-.8c.8-1.1,3.9-6.6,3.9-6.6a3,3,0,0,0-.2-2.9c-.5-.8-9.8-20.6-9.8-20.6-.3-.6-.9-.6-1.1-.2s-2.4,4.2-2.4,4.2a3.55,3.55,0,0,1-.9,1.1c-.5.2-1.4-.3-2.6-.6s-6.9-2.3-6.9-2.3-.8.2-.5.8" transform="translate(-67.36 -141.85)" fill="#000101"/><path d="M316.3,215.7c1.1.6,5.7,3.2,5.7,3.2a2,2,0,0,0,2.3-.5c.5-.6,3-4.2,3-4.2.3-.5,1.1-.2,1.4.6s6.5,18.2,6.5,18.2a2.32,2.32,0,0,1,0,2c-.5.6-4.4,6.3-4.4,6.3a2.8,2.8,0,0,1-3.6.6c-1.4-1.1-5.4-3.9-5.4-3.9a4.83,4.83,0,0,1-1.4-2c-.2-.8-5.1-19.7-5.1-19.7,0-.7.4-1,1-.6" transform="translate(-67.36 -141.85)" fill="#000101"/><path d="M300.7,216s5,3.2,5.7,3.5,1.1.6,1.5.2,2.3-2.1,2.9-2.6,1.4.3,1.4.8c.2.5,4.2,16.7,4.2,17.2a1.55,1.55,0,0,1-.2,1.7c-.6.8-3.3,3.5-3.8,4.1a1.81,1.81,0,0,1-2.4,0c-.9-.6-5.4-2.9-6.2-3.3s-1.4-.9-1.5-1.8c-.2-1.1-2.6-18.2-2.7-18.7,0-1.1.6-1.4,1.1-1.1" transform="translate(-67.36 -141.85)" fill="#000101"/><path d="M296,215.3l2.7,20.8c.2.6-.6,1.4-1.1,1.7l-3.8,2.3c-1.1.6-1.7.8-2.7.2a46.14,46.14,0,0,1-3.9-3.6,2.61,2.61,0,0,1-.9-1.8c0-.8,0-5.7-.2-9.2a75.09,75.09,0,0,0-1.1-9.5c-.2-.6,0-1.5.6-.9a40.56,40.56,0,0,0,3.6,2.6c.6.3,1.1.8,2.1-.2s3.3-2.4,3.6-2.7c.7-.3,1-.2,1.1.3" transform="translate(-67.36 -141.85)" fill="#000101"/><path d="M204.2,215.3l-2.7,20.8c-.2.6.6,1.4,1.1,1.7l3.8,2.3c1.1.6,1.7.8,2.7.2a46.14,46.14,0,0,0,3.9-3.6,2.61,2.61,0,0,0,.9-1.8c0-.8,0-5.7.2-9.2a75.09,75.09,0,0,1,1.1-9.5c.2-.6,0-1.5-.6-.9a40.56,40.56,0,0,1-3.6,2.6c-.6.3-1.1.8-2.1-.2s-3.3-2.4-3.6-2.7c-.7-.3-1-.2-1.1.3" transform="translate(-67.36 -141.85)" fill="#000101"/><path d="M199.5,216s-5,3.2-5.7,3.5-1.1.6-1.5.2-2.3-2.1-2.9-2.6-1.4.3-1.4.8c-.2.5-4.2,16.7-4.2,17.2a1.55,1.55,0,0,0,.2,1.7c.5.8,3.3,3.5,3.8,4.1a1.81,1.81,0,0,0,2.4,0c.9-.6,5.4-2.9,6.2-3.3s1.4-.9,1.5-1.8c.2-1.1,2.6-18.2,2.7-18.7,0-1.1-.6-1.4-1.1-1.1" transform="translate(-67.36 -141.85)" fill="#000101"/><path d="M183.9,215.7c-1.1.6-5.7,3.2-5.7,3.2a2,2,0,0,1-2.3-.5c-.5-.6-3-4.2-3-4.2-.3-.5-1.1-.2-1.4.6-.3.5-6.6,18.1-6.6,18.1a2.32,2.32,0,0,0,0,2c.5.6,4.4,6.3,4.4,6.3a2.8,2.8,0,0,0,3.6.6c1.4-1.1,5.6-3.9,5.6-3.9a4.83,4.83,0,0,0,1.4-2c.2-.8,5.1-19.7,5.1-19.7-.1-.6-.5-.9-1.1-.5" transform="translate(-67.36 -141.85)" fill="#000101"/><path d="M167.5,212.9l-8.1,22.6c-.5.8-.9,1.7-1.7,2s-7.5,3.3-7.5,3.3a2.8,2.8,0,0,1-3.2-.8c-.8-1.1-3.9-6.6-3.9-6.6a3,3,0,0,1,.2-2.9c.5-.8,9.8-20.6,9.8-20.6.3-.6.8-.6,1.1-.2s2.3,4.2,2.3,4.2a3.55,3.55,0,0,0,.9,1.1c.5.2,1.4-.3,2.4-.6,1.2-.3,6.9-2.3,6.9-2.3s1.1.2.8.8" transform="translate(-67.36 -141.85)" fill="#000101"/><path d="M150.8,207.3l-16.7,31.9a3.92,3.92,0,0,1-2.1,1.7c-.8.3-8.7,2.3-8.7,2.3-2,.2-2.9-.5-3-2.1-.3-2-.8-7.8-.8-7.8a5.81,5.81,0,0,1,.9-4.2c.9-1,20.6-28.1,20.6-28.1.5-.5.9-.5.9.5s.5,5,.5,5,0,1.2.6,1.5a3.31,3.31,0,0,0,2.4,0c.6-.2,4.7-1.4,4.7-1.4s1-.1.7.7" transform="translate(-67.36 -141.85)" fill="#000101"/><path d="M339.6,177.2l13.8,11.7a15.31,15.31,0,0,0,2.4,1.4c1.2.5,7.1,2.6,7.1,2.6.6.2.9-.3.8-.9-.3-.6-1.2-6.2-1.5-6.5a2.16,2.16,0,0,0-1.2-1.1L343.4,174c-.3-.2-.5-.5-.8-.2s-2.4,2.4-2.9,2.9c.1-.1-.4.2-.1.5" transform="translate(-67.36 -141.85)" fill="#000101"/><path d="M333.3,182.6l12.2,17.5a2.86,2.86,0,0,0,1.2.9c.5.2,5.4,1.8,5.4,1.8a1.28,1.28,0,0,0,1.4-.6c.2-.5.8-6.2.8-6.6s0-.9-.5-1.2c-.3-.3-16.3-14.9-16.3-14.9-.3-.2-.6-.5-.9-.2s-2.3,1.8-3.2,2.6a.76.76,0,0,0-.1.7" transform="translate(-67.36 -141.85)" fill="#000101"/><path d="M322.5,189.2l9,17.6c.2.5.3.6,1.1.9s6.6,1.8,6.6,1.8a.85.85,0,0,0,1.2-.5c.2-.5,2.6-5.1,2.6-5.1a1.56,1.56,0,0,0-.2-1.7c-.5-.5-11.9-18.1-11.9-18.1-.3-.3-.5-.6-.9-.2-.6.5-6,3.6-7.1,4.1-.3.3-.7.6-.4,1.2" transform="translate(-67.36 -141.85)" fill="#000101"/><path d="M310,193.9l5.1,15.5a1.46,1.46,0,0,0,.8.9c.5.2,5.4,2.6,5.4,2.6a2,2,0,0,0,1.7-.5c.3-.3,3.5-5.1,3.5-5.1a2.18,2.18,0,0,0,.2-1.5c-.2-.3-7.1-15.2-7.1-15.2-.2-.3-.6-.8-.9-.6a47,47,0,0,1-8,2.7c-.6.3-.9.8-.7,1.2" transform="translate(-67.36 -141.85)" fill="#000101"/><path d="M306.1,214.2s-5.3-2.1-5.7-2.3-.3-.3-.5-.6L297,195.9c0-.2.2-.3.6-.5a79.74,79.74,0,0,0,8.7-1.5c.3-.2.6.2.8.3,0,0,4.4,14.4,4.5,14.9a1.14,1.14,0,0,1-.3,1.2s-3.6,3.3-3.9,3.5a1.13,1.13,0,0,1-1.3.4" transform="translate(-67.36 -141.85)" fill="#000101"/><path d="M280.5,196.2a81.28,81.28,0,0,0,12.9-.2c.5,0,.6.6.6.6s2,11.9,2,12.2.2.9-.3,1.2-3.8,2.4-4.7,3-1.5.5-1.8.2-4.5-2.4-4.8-2.7a3.17,3.17,0,0,1-.5-.6l-3.8-13.1c.1.3-.1-.6.4-.6" transform="translate(-67.36 -141.85)" fill="#000101"/><path d="M219.7,196.2a81.28,81.28,0,0,1-12.9-.2c-.5,0-.6.6-.6.6s-2,11.9-2,12.2-.2.9.3,1.2,3.8,2.4,4.7,3,1.5.5,1.8.2,4.5-2.4,4.8-2.7a3.17,3.17,0,0,0,.5-.6l3.8-13.1c-.1.3.1-.6-.4-.6" transform="translate(-67.36 -141.85)" fill="#000101"/><path d="M194.1,214.2s5.3-2.1,5.7-2.3.3-.3.5-.6l2.9-15.4c0-.2-.2-.3-.6-.5a79.74,79.74,0,0,1-8.7-1.5c-.3-.2-.6.2-.8.3,0,0-4.4,14.4-4.5,14.9a1.14,1.14,0,0,0,.3,1.2s3.6,3.3,3.9,3.5a1.13,1.13,0,0,0,1.3.4" transform="translate(-67.36 -141.85)" fill="#000101"/><path d="M190.2,193.9l-5.1,15.5a1.46,1.46,0,0,1-.8.9c-.5.2-5.4,2.6-5.4,2.6a2,2,0,0,1-1.7-.5c-.3-.3-3.5-5.1-3.5-5.1a2.18,2.18,0,0,1-.2-1.5c.2-.3,7.1-15.2,7.1-15.2.2-.3.6-.8.9-.6a47,47,0,0,0,8,2.7c.6.3.9.8.7,1.2" transform="translate(-67.36 -141.85)" fill="#000101"/><path d="M177.7,189.2l-9,17.6c-.2.5-.3.6-1.1.9s-6.6,1.8-6.6,1.8a.85.85,0,0,1-1.2-.5c-.2-.5-2.6-5.1-2.6-5.1a1.56,1.56,0,0,1,.2-1.7c.5-.5,11.9-18.1,11.9-18.1.3-.3.5-.6.9-.2a77,77,0,0,0,7.2,4.1c.2.3.6.6.3,1.2" transform="translate(-67.36 -141.85)" fill="#000101"/><path d="M166.9,182.6l-12.2,17.5a2.86,2.86,0,0,1-1.2.9c-.5.2-5.4,1.8-5.4,1.8a1.28,1.28,0,0,1-1.4-.6c-.2-.5-.8-6.2-.8-6.6s0-.9.5-1.2c.3-.3,16.3-14.9,16.3-14.9.3-.2.6-.5.9-.2s2.3,1.8,3.2,2.6a.76.76,0,0,1,.1.7" transform="translate(-67.36 -141.85)" fill="#000101"/><path d="M160.6,177.2l-13.8,11.7a15.31,15.31,0,0,1-2.4,1.4c-1.2.5-7.1,2.6-7.1,2.6-.6.2-.9-.3-.8-.9.3-.6,1.1-6.2,1.4-6.5a2.16,2.16,0,0,1,1.2-1.1L156.7,174c.3-.2.5-.5.8-.2a39.62,39.62,0,0,1,3,2.9c-.1-.1.4.2.1.5" transform="translate(-67.36 -141.85)" fill="#000101"/><path d="M282,185.5a26.77,26.77,0,0,1-6.2.3c-.9,0-1.2.5-1.4,1.5s-1.1,6.8-1.2,7.8-.8,1.4-2,.8a30.63,30.63,0,0,1-4.2-3.2,1.3,1.3,0,0,0-2,.3c-.6.9-3.2,5.4-3.8,6.6-.8,1.2-1.4,1.1-2.1.3s-2.9-5-3.3-5.6c-.5-.8-1.1-1.1-2-.2s-4.2,5.4-5,6.3-1.5.6-2.1-.3c-.6-1.1-1.8-5.6-2.1-6.3a1.09,1.09,0,0,0-1.8-.6c-.9.5-5.3,4.7-6.2,5.4s-1.2.2-1.7-.9a42,42,0,0,1-1.4-5.9c-.2-1.1-.5-1.4-1.7-1.5s-7.4-.6-8.9-.8-.9-.6-.2-1.8a59.17,59.17,0,0,1,6.5-6c.9-.6.5-1.2-.2-1.5s-6.2-2.9-6.6-3.3c-.6-.5.5-1.4,1.7-2.3a70.23,70.23,0,0,1,7.5-3.5,11.31,11.31,0,0,0,3.9-2.9c1.4-1.4,8.3-7.8,14.4-12.6l.6-.5c5.9-4.7,11.3-9.2,17.5-10.1,6.6-1.1,11.7.3,13.8,2.1l.5.5a6.14,6.14,0,0,0,2.4,1.7,6.56,6.56,0,0,0,2.3.2,27.34,27.34,0,0,1,5,.5c1.7.5,3.6,1.2,5,4.8a15.68,15.68,0,0,0-2.9.2h-.6a20.85,20.85,0,0,0-11.6,4.4,21.35,21.35,0,0,0-7.4,11.3,4.71,4.71,0,0,0,1.2,4.8l.6.6c1.1,1.1,5.1,6,5.9,7.1,1,1.1,1.5,2-.2,2.3m-3.6,53.6c0,1.8-.3,3-.9,3.5s-2,.2-2.9,0-1.8,0-2.4-.8a5.26,5.26,0,0,0-4.7-2.6h-.9a4.86,4.86,0,0,0-4.7,2.6c-.6.8-1.5.6-2.4.8s-2.3.5-2.9,0-.9-1.7-.9-3.5c-.2-16.3,5-30.7,11.3-30.7s11.5,14.5,11.4,30.7m1.8,10.8a45.71,45.71,0,0,0-6.6-.8c-2.4.2-4.5.6-4.8,1.5a18.24,18.24,0,0,1-1.2,3.2.6.6,0,0,1-.8,0,13.54,13.54,0,0,1-1.2-3.2c-.3-.9-2.1-1.7-4.7-1.7-2.1,0-5.4.8-6.8.8-1.2.2,0-1.7.8-2.1a24.24,24.24,0,0,1,6.3-1.7,7.48,7.48,0,0,0,3.3-2.1,3.08,3.08,0,0,1,2.6-1.2h.2a3.73,3.73,0,0,1,2.6,1.2,4.66,4.66,0,0,0,3.3,2.1,24.24,24.24,0,0,1,6.3,1.7c.7.5,2.1,2.4.7,2.3m-34.2,0a36.23,36.23,0,0,0-6.8-.8c-2.6.2-4.2.8-4.7,1.7a18.24,18.24,0,0,1-1.2,3.2.6.6,0,0,1-.8,0,13.54,13.54,0,0,1-1.2-3.2c-.3-.9-2.3-1.5-4.8-1.5a49.65,49.65,0,0,0-6.6.8c-1.2.2,0-1.7.8-2.1a24.24,24.24,0,0,1,6.3-1.7,6.42,6.42,0,0,0,3.3-2.1,3.08,3.08,0,0,1,2.6-1.2h.2a3.73,3.73,0,0,1,2.6,1.2,4.66,4.66,0,0,0,3.3,2.1,24.24,24.24,0,0,1,6.3,1.7c.6.1,1.9,2,.7,1.9m-12.9-41.5h0c6.2,0,11.4,14.6,11.3,30.7,0,1.8-.3,3-.9,3.5s-2,.2-2.9,0-1.8,0-2.4-.8a5.26,5.26,0,0,0-4.7-2.6h-.9a4.86,4.86,0,0,0-4.7,2.6c-.6.8-1.5.6-2.4.8s-2.3.5-2.9,0-.9-1.7-.9-3.5c0-16.2,5.1-30.7,11.4-30.7m197.5,26.3c-2.7-2.7-64-63.5-65.3-64.9a11.51,11.51,0,0,0-5.6-3.2c-1.7-.3-39.6-5.4-41.4-5.6a8.62,8.62,0,0,0-5.3,1.2l-.2.2c-.8.5-17.2,11.4-18.8,12.6s-2.1,1.2-2.6,1.2h-7.1c-3.3,0-4.2-1.4-5.6-2.4l-.6-.6a1.46,1.46,0,0,1-.3-1.7,18,18,0,0,1,16.4-13.4h.6a7.53,7.53,0,0,1,3,0c1.2,0,2.6.2,2.9-.2a3.2,3.2,0,0,0,.2-2v.1c-1.8-6.6-5-8.1-7.8-8.7-1.7-.3-3.9-.5-5.4-.6a3.92,3.92,0,0,1-1.7-.2c-.2,0-.6-.5-.9-.8l-.6-.6c-3-2.7-9.5-3.9-16.3-2.9s-12.8,5.7-19,10.8l-.6.5c-6.2,5-13.1,11.4-14.6,12.9a12.79,12.79,0,0,1-3.2,2.3s-5.9,2.7-8.7,3.9a25.61,25.61,0,0,0-4.4,2.7c-.6.5-1.4.9-1.8,1.2H209c-.5,0-1.1-.2-2.6-1.2-1.7-1.1-18.1-12-18.8-12.6l-.2-.2a8,8,0,0,0-5.3-1.2c-2-.2-39.9,5-41.5,5.3a12.72,12.72,0,0,0-5.6,3.2c-1.5,1.4-62.6,62.2-65.3,64.9-1.2,1.5-2.6,3.3-2.3,5.7.8,6.2,2,6.9,2.6,7.2a2.69,2.69,0,0,0,1.5.5,14,14,0,0,0,5.1-1.5,57.54,57.54,0,0,0,8.4-4.4,58,58,0,0,0,5.1-5.1,6.93,6.93,0,0,1,1.2-1.1c.5,0,.6.6.6.8s1.2,5.4,1.2,5.6c.5,1.4.6,2,1.2,2.6s1.7.5,3.3-.2,8.6-3.8,9.6-4.4a6.2,6.2,0,0,0,2.4-2.1s28-39.1,28.6-40,.2-.9-.5-.9c0,0-3.3.5-4.7.6s-1.5-.5-1.5-1.7l.3-5.6c0-.9-.6-.9-1.4-.3-12.5,12.9-46.5,48.2-47.9,49.2a29,29,0,0,1-7.1,3.9c-1.2.5-3.8,1.8-4.2,1.2a17.62,17.62,0,0,1-1.1-4.8c-.2-1.1.5-2,1.4-3.2,22-21.8,63.8-63.5,65.2-64.6,1.5-1.4,2.7-2.3,4.1-2.4l41.1-5.6a4.58,4.58,0,0,1,3.5.8c1.1.8,17.2,11.4,18.7,12.5,1.7,1.2,2.9,1.8,4.4,1.8,0,0,8.7,0,10.5.2a9.36,9.36,0,0,1,3,1.2c.8.6.9,1.2.6,1.7a34.69,34.69,0,0,0-2.6,3.3,1.89,1.89,0,0,1-1.4.8h-9.3c-2.4,0-3.6-.3-7.1-2.1s-18.8-11.7-20.3-12.5a8.45,8.45,0,0,0-5-.8l-12.3,1.2c-1.2.2-2.6,1.7-1.2,3,1.2,1.2,10.5,7.4,15.7,9.3s17,7.4,24.5,8.6a49.52,49.52,0,0,0,16.3-.5c1.4-.2,2.9-.2,3.3.3a1.79,1.79,0,0,1,.2,2.1c-.5.8-6.6,15.8-7.2,32.1-.3,10.7,2.3,17,2.4,17.3a1.54,1.54,0,0,1-.6,1.1,15.32,15.32,0,0,0-3.5,5.3c-.5,1.5-.8,3-.3,3.3s4.7-.6,8.7-.9c3.2-.2,5.1-.2,5.4,0,.5.3.8.5.9,1.1.5,1.2,2.1,4.1,2.7,4.4a.75.75,0,0,0,.9,0,18.37,18.37,0,0,0,2.7-4.4,2,2,0,0,1,.9-1.1c.5-.3,2.6-.3,5.1-.2,2.4.3,5,1.1,8,1.1s5.6-.8,8-1.1,4.7-.2,5.1.2a2,2,0,0,1,.9,1.1,19.64,19.64,0,0,0,2.7,4.4.75.75,0,0,0,.9,0c.6-.3,2.3-3.3,2.7-4.4a2,2,0,0,1,.9-1.1q.75-.45,5.4,0c4.1.3,8.4,1.2,8.7.9.5-.3.2-1.8-.3-3.3a15.32,15.32,0,0,0-3.5-5.3,1.25,1.25,0,0,1-.6-1.1,48,48,0,0,0,2.4-17.3c-.6-16.1-6.8-31.3-7.2-32.1a1.65,1.65,0,0,1,.2-2.1c.5-.5,2-.6,3.3-.3a49.52,49.52,0,0,0,16.3.5c7.7-1.2,19.4-6.5,24.5-8.6s14.4-8,15.7-9.3,0-2.7-1.2-3L322.1,171a8.45,8.45,0,0,0-5,.8c-1.5.9-16.9,10.7-20.3,12.5a15,15,0,0,1-7.5,2.1c-1.4,0-2-.3-2.3-1.1a55.48,55.48,0,0,0-2.9-4.8c-.8-.8-.6-1.2,0-1.2h6.6c1.5,0,2.7-.6,4.4-1.8,1.5-1.1,17.5-11.7,18.7-12.5a5.05,5.05,0,0,1,3.5-.8l41.1,5.6a10.42,10.42,0,0,1,4.1,2.4c1.2,1.2,43.2,42.7,65.2,64.6a4,4,0,0,1,1.4,3.2,16.6,16.6,0,0,1-1.1,4.8c-.3.6-3-.8-4.2-1.2-2.4-.9-5.9-2.7-7.1-3.9-1.4-1.2-35.4-36.3-47.9-49.2-.6-.6-1.4-.6-1.4.3l.3,5.6c0,1.1-.2,1.8-1.5,1.7s-4.7-.6-4.7-.6c-.6-.2-1.1,0-.5.9s28.6,40,28.6,40a9.55,9.55,0,0,0,2.4,2.1c1.1.6,8,3.8,9.6,4.4s2.7.8,3.3.2a4.51,4.51,0,0,0,1.2-2.6c0-.2,1.2-5.6,1.2-5.6,0-.2.2-.8.6-.8s1.2,1.1,1.2,1.1a46.57,46.57,0,0,0,5.1,5.1,52.89,52.89,0,0,0,8.4,4.4c2.1.8,3.8,1.5,5.1,1.5a2.46,2.46,0,0,0,1.5-.5c.5-.3,1.8-1.1,2.6-7.2,1.3-2.7,0-4.3-1.2-5.8" transform="translate(-67.36 -141.85)" fill="#000101"/><path d="M265,153.3c2.4-1.4,5.4-2.9,11.3-2.4a5.89,5.89,0,0,1,2.1.5c.3.3.2.8-.5.8s-1.7-.2-2,.6-.3,2.9-2.1,3.5a3.55,3.55,0,0,1-3.9-.9c-.9-.9-2.3-.8-3.5-.8s-2,.2-2.3-.2c-.2-.2.1-.7.9-1.1" transform="translate(-67.36 -141.85)" fill="#000101"/><path d="M311.5,277.7a9.55,9.55,0,0,0-2.1-2.4,20.12,20.12,0,0,0-2.9-1.7,7.45,7.45,0,0,0-3.3-.6,11.85,11.85,0,0,0-5.3,1.2,10.41,10.41,0,0,0-3.6,3.3,18,18,0,0,0-2,4.7,19.89,19.89,0,0,0-.6,5.4,23.28,23.28,0,0,0,.6,5.3,19.57,19.57,0,0,0,2,4.7,10.41,10.41,0,0,0,3.6,3.3,11.2,11.2,0,0,0,5.3,1.2,8.1,8.1,0,0,0,6.6-2.7,12.14,12.14,0,0,0,3-6.9h9a25.32,25.32,0,0,1-1.8,7.2,20.74,20.74,0,0,1-3.9,5.6,17.54,17.54,0,0,1-5.7,3.5,20.13,20.13,0,0,1-7.2,1.2,21.43,21.43,0,0,1-8.7-1.7,19.82,19.82,0,0,1-6.6-4.7,20,20,0,0,1-4.1-7.1,27.35,27.35,0,0,1-1.4-8.7,28.61,28.61,0,0,1,1.4-8.9,21.41,21.41,0,0,1,4.1-7.2,17.89,17.89,0,0,1,6.6-4.8,20.84,20.84,0,0,1,8.7-1.8,18.31,18.31,0,0,1,6.6,1.1,21.48,21.48,0,0,1,5.6,3,17.16,17.16,0,0,1,4.1,4.8,15.93,15.93,0,0,1,2,6.6h-9a8.36,8.36,0,0,0-1-2.9" transform="translate(-67.36 -141.85)" fill="#ee3124"/><rect x="202.44" y="124.45" width="9.3" height="42.9" fill="#ee3124"/><path d="M249.5,285.7a6.74,6.74,0,0,0,4.8-1.5c1.1-.9,1.7-2.6,1.7-4.7a5.52,5.52,0,0,0-1.7-4.5,7.42,7.42,0,0,0-4.8-1.4H239.3v12h10.2Zm3.3-19.4a13.28,13.28,0,0,1,5.1.9,10.69,10.69,0,0,1,3.9,2.6,11.19,11.19,0,0,1,2.6,3.8,11.66,11.66,0,0,1,.9,4.5,13,13,0,0,1-1.5,6.5,9.45,9.45,0,0,1-5.1,4.2v.2a6.68,6.68,0,0,1,2.9,1.5,6.09,6.09,0,0,1,1.8,2.4,15.36,15.36,0,0,1,1.1,3c.2,1.1.3,2.1.5,3.3,0,.6.2,1.5.2,2.4s.2,1.8.2,2.9c.2.9.3,1.8.5,2.7a10,10,0,0,0,.9,2.3h-9.3a14.14,14.14,0,0,1-.9-4.8c-.2-1.8-.3-3.6-.6-5.4a9.69,9.69,0,0,0-2-5c-1.1-1.1-2.7-1.5-5.1-1.5h-9.3v16.7h-9.3v-43h22.5Z" transform="translate(-67.36 -141.85)" fill="#ee3124"/><polygon points="158.84 124.45 158.84 132.45 136.34 132.45 136.34 141.65 156.84 141.65 156.84 148.85 136.34 148.85 136.34 159.35 159.24 159.35 159.24 167.35 127.04 167.35 127.04 124.45 158.84 124.45" fill="#ee3124"/><polygon points="89.44 124.45 99.24 153.95 99.34 153.95 108.74 124.45 121.94 124.45 121.94 167.35 113.24 167.35 113.24 136.95 113.04 136.95 102.64 167.35 95.44 167.35 85.04 137.25 84.94 137.25 84.94 167.35 76.14 167.35 76.14 124.45 89.44 124.45" fill="#ee3124"/><path d="M127.6,292.6l-5.3-15.7h-.2l-5.6,15.7Zm-.6-26.3,15.8,42.9h-9.6l-3.2-9.5H114.2l-3.3,9.5h-9.3l16-42.9Z" transform="translate(-67.36 -141.85)" fill="#ee3124"/><polygon points="304.64 172.65 304.64 207.55 325.24 207.55 325.24 215.35 295.34 215.35 295.34 172.65 304.64 172.65" fill="#005daa"/><path d="M175.3,340.6,170,325h-.2l-5.6,15.7h11.1Zm-.5-26.1,15.8,42.9H181l-3.2-9.5h-16l-3.3,9.5h-9.3l16-42.9Z" transform="translate(-67.36 -141.85)" fill="#005daa"/><polygon points="221.54 172.65 239.14 201.15 239.34 201.15 239.34 172.65 248.04 172.65 248.04 215.35 238.74 215.35 221.14 186.75 220.94 186.75 220.94 215.35 212.24 215.35 212.24 172.65 221.54 172.65" fill="#005daa"/><path d="M243.9,341.2a15.39,15.39,0,0,0,2,4.5,10.41,10.41,0,0,0,3.6,3.3,11.2,11.2,0,0,0,5.3,1.2,11.85,11.85,0,0,0,5.3-1.2,10.41,10.41,0,0,0,3.6-3.3,16.86,16.86,0,0,0,2.6-9.8,23.52,23.52,0,0,0-.6-5.4,16.66,16.66,0,0,0-2-4.7,10.41,10.41,0,0,0-3.6-3.3,11.2,11.2,0,0,0-5.3-1.2,11.85,11.85,0,0,0-5.3,1.2,10.41,10.41,0,0,0-3.6,3.3,16.66,16.66,0,0,0-2,4.7,19.89,19.89,0,0,0-.6,5.4,22,22,0,0,0,.6,5.3m-8.5-14.1a21.41,21.41,0,0,1,4.1-7.2,17.89,17.89,0,0,1,6.6-4.8,20.84,20.84,0,0,1,8.7-1.8,19.89,19.89,0,0,1,8.7,1.8,18.37,18.37,0,0,1,6.5,4.8,20.49,20.49,0,0,1,4.1,7.2,28.14,28.14,0,0,1,1.4,8.9,26.9,26.9,0,0,1-1.4,8.7,20,20,0,0,1-4.1,7.1,18.12,18.12,0,0,1-6.5,4.7,20.18,20.18,0,0,1-8.7,1.7,21.43,21.43,0,0,1-8.7-1.7,19.82,19.82,0,0,1-6.6-4.7,20,20,0,0,1-4.1-7.1A27.35,27.35,0,0,1,234,336a25.57,25.57,0,0,1,1.4-8.9" transform="translate(-67.36 -141.85)" fill="#005daa"/><rect x="153.44" y="172.65" width="9.3" height="42.9" fill="#005daa"/><polygon points="114.84 180.45 114.84 172.65 149.64 172.65 149.64 180.45 136.94 180.45 136.94 215.35 127.64 215.35 127.64 180.45 114.84 180.45" fill="#005daa"/><path d="M344.2,340.6l-5.3-15.7h-.2l-5.6,15.7Zm-.5-26.1,15.8,42.9h-9.6l-3.2-9.5H330.9l-3.3,9.5h-9.3l16-42.9Z" transform="translate(-67.36 -141.85)" fill="#005daa"/><polygon points="52.74 172.65 70.44 201.15 70.64 201.15 70.64 172.65 79.34 172.65 79.34 215.35 70.04 215.35 52.44 186.75 52.24 186.75 52.24 215.35 43.54 215.35 43.54 172.65 52.74 172.65" fill="#005daa"/><polygon points="304.84 124.45 322.54 153.15 322.54 124.45 331.24 124.45 331.24 167.35 322.14 167.35 304.34 138.55 304.34 167.35 295.64 167.35 295.64 124.45 304.84 124.45" fill="#ee3124"/><path d="M341.6,276.9h-.2l-5.6,15.7h11.1m-.5-26.3,15.8,42.9h-9.6l-3.2-9.5h-16l-3.3,9.5h-9.3l16-42.9Z" transform="translate(-67.36 -141.85)" fill="#ee3124"/><path d="M394,318.7c.5,0,.9,0,1.1-.2a.71.71,0,0,0,.3-.6,1.91,1.91,0,0,0-.3-.8c-.2-.2-.6-.2-1.1-.2h-.8v1.8Zm1.2.4,1.2,2.4h-1.2l-1.1-2.3H393v2.3h-.9v-5.3h2a5.17,5.17,0,0,1,1.7.3,1.52,1.52,0,0,1,.6,1.1,1.3,1.3,0,0,1-.3.9,1,1,0,0,1-.9.6m3,0a10.1,10.1,0,0,0-.3-1.7,3.92,3.92,0,0,0-2.3-2.3,3.23,3.23,0,0,0-1.7-.3,5.67,5.67,0,0,0-1.5.3,5.51,5.51,0,0,0-1.4.9,2.78,2.78,0,0,0-.9,1.4,4.43,4.43,0,0,0-.3,1.5,5.67,5.67,0,0,0,.3,1.5,5.51,5.51,0,0,0,.9,1.4,2.78,2.78,0,0,0,1.4.9,4.43,4.43,0,0,0,1.5.3,10.1,10.1,0,0,0,1.7-.3,5.51,5.51,0,0,0,1.4-.9c.5-.3.6-.8.9-1.4a3.55,3.55,0,0,0,.3-1.3m-4.2-4.8a5.67,5.67,0,0,1,1.5.3,10,10,0,0,1,1.4.8,5.52,5.52,0,0,1,1.4,1.7,5,5,0,0,1,.5,2.1,11.27,11.27,0,0,1-.3,1.8,4.18,4.18,0,0,1-1.1,1.5,11.24,11.24,0,0,1-1.5,1.1,3.81,3.81,0,0,1-1.8.3,11.27,11.27,0,0,1-1.8-.3,4.18,4.18,0,0,1-1.5-1.1,5.27,5.27,0,0,1-1.1-1.5,3.81,3.81,0,0,1-.3-1.8,6.64,6.64,0,0,1,.3-1.5,10,10,0,0,1,.8-1.4,5.52,5.52,0,0,1,1.7-1.4,2.79,2.79,0,0,1,1.8-.6" transform="translate(-67.36 -141.85)" fill="#000101"/></svg>
