<?xml version="1.0" encoding="iso-8859-1"?>
<!-- Generator: Adobe Illustrator 19.1.0, SVG Export Plug-In . SVG Version: 6.00 Build 0)  -->
<svg version="1.1" xmlns="http://www.w3.org/2000/svg" xmlns:xlink="http://www.w3.org/1999/xlink" x="0px" y="0px"
	 viewBox="0 0 300.6 99" style="enable-background:new 0 0 300.6 99;" xml:space="preserve">
<style type="text/css">
	.st0{display:none;}
	.st1{display:inline;fill:#5D5E5E;}
	.st2{fill:#FFFFFF;}
	.st3{fill:#001F5B;}
	.st4{fill:#9E9E9E;}
	.st5{fill:none;stroke:#8083A9;stroke-width:2.1109;stroke-miterlimit:10;}
	.st6{fill:#8285AA;}
	.st7{fill:#808285;}
	.st8{fill:none;stroke:#FFFFFF;stroke-width:2.1378;stroke-miterlimit:10;}
	.st9{fill:#001F5B;stroke:#FFFFFF;stroke-width:2.1378;stroke-miterlimit:10;}
</style>
<a xmlns="http://www.w3.org/2000/svg" xmlns:xlink="http://www.w3.org/1999/xlink" xlink:href="http://morganwhite.com" target="_top">
<g id="logo-division">
	<path d="M110.9,38.7h7c1.7,0,3.3,0.2,4.8,0.6c1.5,0.4,2.9,1,4,1.9c1.1,0.9,2,2,2.7,3.4c0.7,1.4,1,3.1,1,5.1c0,1.8-0.3,3.4-1,4.7
		c-0.6,1.4-1.5,2.5-2.6,3.4c-1.1,0.9-2.4,1.6-3.8,2.1c-1.4,0.5-2.9,0.7-4.5,0.7h-7.6V38.7z M115.6,56.3h2.4c1.1,0,2.1-0.1,3-0.3
		c0.9-0.2,1.7-0.6,2.4-1.1c0.7-0.5,1.2-1.2,1.6-2.1c0.4-0.9,0.6-1.9,0.6-3.2c0-1.1-0.2-2-0.6-2.8c-0.4-0.8-0.9-1.5-1.6-2
		c-0.7-0.5-1.4-0.9-2.3-1.2c-0.9-0.3-1.8-0.4-2.8-0.4h-2.7V56.3z"/>
	<path d="M133.5,38.7h4.7v22h-4.7V38.7z"/>
	<path d="M142.4,38.7h8.2c1.1,0,2.1,0.1,3.1,0.3c1,0.2,1.8,0.6,2.5,1.1c0.7,0.5,1.3,1.2,1.7,2.1c0.4,0.9,0.6,1.9,0.6,3.2
		c0,1.6-0.4,2.9-1.2,4c-0.8,1.1-1.9,1.8-3.4,2.1l5.4,9.3h-5.6l-4.4-8.8h-2.3v8.8h-4.7V38.7z M147.1,47.8h2.7c0.4,0,0.9,0,1.3,0
		c0.5,0,0.9-0.1,1.3-0.3c0.4-0.2,0.7-0.4,0.9-0.7c0.2-0.3,0.4-0.8,0.4-1.4c0-0.6-0.1-1-0.3-1.3c-0.2-0.3-0.5-0.6-0.8-0.8
		c-0.3-0.2-0.7-0.3-1.2-0.4c-0.4-0.1-0.9-0.1-1.3-0.1h-3V47.8z"/>
	<path d="M162,38.7h14.4v4.5h-9.7v4.1h9.2v4.5h-9.2v4.5h10.2v4.5H162V38.7z"/>
	<path d="M194.4,44.5c-0.5-0.6-1-1-1.7-1.3c-0.7-0.3-1.4-0.5-2.3-0.5c-0.9,0-1.7,0.2-2.4,0.5c-0.7,0.4-1.4,0.8-1.9,1.5
		c-0.5,0.6-1,1.4-1.3,2.3c-0.3,0.9-0.5,1.8-0.5,2.8c0,1,0.2,2,0.5,2.8c0.3,0.9,0.7,1.6,1.3,2.2c0.5,0.6,1.2,1.1,1.9,1.5
		c0.7,0.4,1.5,0.5,2.3,0.5c1,0,1.8-0.2,2.5-0.6c0.7-0.4,1.3-1,1.8-1.7l3.9,3c-0.9,1.3-2,2.3-3.4,2.9c-1.4,0.6-2.8,0.9-4.2,0.9
		c-1.7,0-3.2-0.3-4.6-0.8c-1.4-0.5-2.6-1.3-3.6-2.3c-1-1-1.8-2.2-2.4-3.7c-0.6-1.4-0.9-3-0.9-4.8s0.3-3.4,0.9-4.8
		c0.6-1.4,1.4-2.7,2.4-3.7c1-1,2.2-1.8,3.6-2.3c1.4-0.5,2.9-0.8,4.6-0.8c0.6,0,1.2,0.1,1.9,0.2c0.6,0.1,1.3,0.3,1.9,0.5
		c0.6,0.2,1.2,0.6,1.8,1c0.6,0.4,1.1,0.9,1.6,1.5L194.4,44.5z"/>
	<path d="M205.2,43h-6v-4.3h16.7V43h-6v17.7h-4.7V43z"/>
	<path class="st2" d="M49.5,96.9c26.1,0,47.4-21.2,47.4-47.4c0-26.1-21.3-47.4-47.4-47.4C23.4,2.2,2.2,23.4,2.2,49.5
		C2.2,75.6,23.4,96.9,49.5,96.9z M49.5,4.7c24.8,0,44.9,20.1,44.9,44.9c0,0.5,0,1.1,0,1.6c-1,0-7.6,0.1-10.5,0.1
		c-3,0-4.8-0.1-5.2-0.1c-0.1,0-0.2,0.1-0.2,0.3v0.8c0,0.2,0.1,0.3,0.3,0.3h1.5c1,0,1.3,0.4,1.3,1.7V57c0,1.9-0.1,2.9-0.9,3.4
		C79.4,61,78,61,75.6,61c-3.7,0-6.3-2.3-9.3-4.7c-0.5-0.4-0.7-0.2-0.8,0c-0.1,0.2-0.6,1.4-0.7,1.7c-0.1,0.3-0.2,0.7,0.2,1.1
		c2.5,2.8,6.9,4,10.4,4c4.4,0,7.4-0.9,10.5-2.4c0.4-0.1,0.6-0.3,0.6-0.6s-0.1-0.7-0.1-1.2V54c0-1.1,0.4-1.4,1.1-1.4h6.9
		c-1.6,23.3-21,41.8-44.7,41.8c-20,0-37-13.1-42.8-31.3c1.6,0,4-0.1,5.3-0.1c2.3,0,3.5,0.1,3.9,0.1c0.2,0,0.3-0.1,0.3-0.3V62
		c0-0.2,0-0.3-0.3-0.3h-1c-0.9,0-1.3-0.5-1.3-1c0-2,4.2-14.2,5.3-17.4h0.1l5.3,13.2c0,0,1.2,2.9,2,2.9c1.2,0,2.9-4.1,2.9-4.1
		s5-11.1,5.3-11.9l0.1,0l5.7,17c0.3,0.8-0.1,1.3-0.9,1.3h-0.7c-0.3,0-0.3,0.1-0.3,0.3v0.9c0,0.2,0.1,0.3,0.3,0.3c0.3,0,1.2,0,3-0.1
		c0.3,0,0.5-0.1,0.7-0.3c0.2-0.1,0.3-0.3,0.4-0.5c0.1-0.4,6.7-14.1,7-15.2h0.1l6.7,15.1c0.1,0.4,0.4,0.8,0.9,0.8c2,0,2.6-0.8,3.4-3
		c0.4-1.2,2.8-7.9,5-13.7c2.6-6.8,6.6-8.8,10.5-8.8c2.8,0,4.9,1.3,6.1,2.6c1.5,1.5,2.4,3.6,2.9,5.1c0.1,0.2,0.1,0.3,0.4,0.3l0.9-0.1
		c0.1,0,0.1-0.2,0.1-0.5l-0.4-7.4c0-0.3-0.1-0.5-0.4-0.5c-0.2,0-0.3,0.1-0.5,0.4l-0.4,0.6c-0.2,0.3-0.4,0.4-0.9,0.1
		c-1.2-0.9-4-2-7.5-2c-6.8,0-11.7,1.5-14.8,11.3l-3,7.9l-4.6-10.3c0,0-1.9-4.6-2.8-4.6c-0.8,0-2.8,4.3-2.8,4.3s-5,10.6-5.3,11.4
		l-0.1,0l-5.7-17c-0.3-0.8,0.1-1.3,0.9-1.3h0.7c0.3,0,0.3-0.1,0.3-0.3v-0.9c0-0.2-0.1-0.3-0.3-0.3c-0.3,0-2,0.1-3.6,0.1
		c-0.2,0-0.4,0.5-0.7,1.2c-1.1,2.5-6.5,14.2-6.8,15.2h-0.1L21.5,37c-0.1-0.4-0.4-0.8-0.9-0.8c-0.5,0-0.8,0.6-1,1
		C18.9,39,11.4,59.6,11,60.5c-0.4,0.8-1,1.2-1.6,1.2H6.3c-1.1-3.9-1.7-7.9-1.7-12.1C4.7,24.7,24.7,4.7,49.5,4.7z"/>
	<path class="st2" d="M49.5,0C76.8,0,99,22.2,99,49.5C99,76.8,76.8,99,49.5,99C22.2,99,0,76.8,0,49.5C0,22.2,22.2,0,49.5,0z"/>
	<path class="st4" d="M49.5,99C76.8,99,99,76.8,99,49.5C99,22.2,76.8,0,49.5,0C22.2,0,0,22.2,0,49.5C0,76.8,22.2,99,49.5,99z
		 M49.5,2.2c26.1,0,47.4,21.2,47.4,47.4c0,26.1-21.3,47.4-47.4,47.4c-26.1,0-47.4-21.2-47.4-47.4C2.2,23.4,23.4,2.2,49.5,2.2z"/>
	<path d="M9.4,61.7c0.6,0,1.3-0.4,1.6-1.2c0.4-0.8,7.9-21.4,8.6-23.3c0.1-0.4,0.4-1,1-1c0.5,0,0.8,0.4,0.9,0.8l6.7,15.5h0.1
		c0.3-0.9,5.7-12.6,6.8-15.2c0.3-0.7,0.5-1.2,0.7-1.2c1.6,0,3.3-0.1,3.6-0.1c0.2,0,0.3,0.1,0.3,0.3v0.9c0,0.2-0.1,0.3-0.3,0.3h-0.7
		c-0.7,0-1.1,0.5-0.9,1.3l5.7,17l0.1,0c0.3-0.8,5.3-11.4,5.3-11.4s2-4.3,2.8-4.3c0.8,0,2.8,4.6,2.8,4.6L59,55.1l3-7.9
		c3.1-9.8,8-11.3,14.8-11.3c3.5,0,6.3,1.1,7.5,2c0.4,0.3,0.7,0.2,0.9-0.1l0.4-0.6c0.2-0.3,0.3-0.4,0.5-0.4c0.4,0,0.4,0.2,0.4,0.5
		l0.4,7.4c0,0.3,0,0.5-0.1,0.5L86,45.4c-0.2,0-0.3-0.1-0.4-0.3c-0.5-1.5-1.5-3.5-2.9-5.1c-1.3-1.3-3.3-2.6-6.1-2.6
		c-4,0-8,2-10.5,8.8c-2.2,5.7-4.6,12.5-5,13.7c-0.8,2.2-1.4,3-3.4,3c-0.5,0-0.8-0.4-0.9-0.8l-6.7-15.1h-0.1c-0.3,1-6.8,14.8-7,15.2
		c-0.1,0.2-0.2,0.4-0.4,0.5c-0.2,0.2-0.4,0.3-0.7,0.3c-1.8,0-2.7,0.1-3,0.1c-0.2,0-0.3-0.1-0.3-0.3V62c0-0.2,0.1-0.3,0.3-0.3h0.7
		c0.7,0,1.1-0.5,0.9-1.3l-5.7-17l-0.1,0c-0.3,0.8-5.3,11.9-5.3,11.9s-1.7,4.1-2.9,4.1c-0.8,0-2-2.9-2-2.9l-5.3-13.2h-0.1
		c-1.1,3.2-5.3,15.4-5.3,17.4c0,0.5,0.4,1,1.3,1h1c0.2,0,0.3,0.1,0.3,0.3v0.9c0,0.2-0.1,0.3-0.3,0.3c-0.4,0-1.6-0.1-3.9-0.1
		c-1.3,0-3.7,0-5.3,0.1c5.8,18.1,22.7,31.3,42.8,31.3c23.7,0,43.2-18.4,44.7-41.8h-6.9c-0.7,0-1.1,0.3-1.1,1.4v4.9
		c0,0.5,0.1,0.9,0.1,1.2s-0.2,0.4-0.6,0.6c-3,1.5-6,2.4-10.5,2.4c-3.5,0-7.8-1.2-10.4-4c-0.4-0.4-0.3-0.7-0.2-1.1
		c0.1-0.3,0.6-1.5,0.7-1.7c0.1-0.2,0.4-0.4,0.8,0c3,2.4,5.7,4.7,9.3,4.7c2.4,0,3.8,0,5-0.6c0.8-0.4,0.9-1.5,0.9-3.4v-2.7
		c0-1.3-0.4-1.7-1.3-1.7h-1.5c-0.2,0-0.3-0.1-0.3-0.3v-0.8c0-0.2,0.1-0.3,0.2-0.3c0.4,0,2.2,0.1,5.2,0.1c2.9,0,9.5-0.1,10.5-0.1
		c0-0.5,0-1.1,0-1.6c0-24.8-20.1-44.9-44.9-44.9S4.7,24.7,4.7,49.5c0,4.2,0.6,8.3,1.7,12.1H9.4z"/>
	<path class="st7" d="M110.8,80.7h-0.9l1.6-8.8h0.9L110.8,80.7z"/>
	<path class="st7" d="M114.7,74.9c0,0.2,0,0.3-0.1,0.5c0,0.2,0,0.3-0.1,0.5h0c0.2-0.4,0.5-0.6,0.9-0.8c0.4-0.2,0.7-0.3,1.1-0.3
		c0.6,0,1.1,0.2,1.5,0.5c0.4,0.3,0.5,0.8,0.5,1.3c0,0.1,0,0.2,0,0.3c0,0.1,0,0.2,0,0.3l-0.6,3.6h-0.8l0.6-3.2c0-0.3,0.1-0.5,0.1-0.7
		c0-0.4-0.1-0.7-0.3-1c-0.2-0.2-0.5-0.4-1-0.4c-0.2,0-0.4,0-0.7,0.1c-0.2,0.1-0.4,0.2-0.6,0.4c-0.2,0.2-0.4,0.4-0.5,0.7
		c-0.1,0.3-0.3,0.6-0.3,1l-0.5,3h-0.8l0.8-4.5c0-0.2,0.1-0.4,0.1-0.6c0-0.2,0.1-0.5,0.1-0.7H114.7z"/>
	<path class="st7" d="M123.9,76.2c-0.1-0.2-0.3-0.4-0.5-0.5c-0.2-0.1-0.5-0.2-0.8-0.2c-0.1,0-0.3,0-0.5,0c-0.2,0-0.3,0.1-0.4,0.2
		c-0.1,0.1-0.2,0.2-0.3,0.3c-0.1,0.1-0.1,0.3-0.1,0.4c0,0.2,0,0.3,0.1,0.4c0.1,0.1,0.1,0.2,0.2,0.3c0.1,0.1,0.2,0.1,0.4,0.2
		c0.1,0.1,0.3,0.1,0.5,0.2c0.6,0.2,1,0.4,1.3,0.6c0.3,0.3,0.4,0.6,0.4,1.1c0,0.3-0.1,0.6-0.2,0.8c-0.1,0.2-0.3,0.4-0.5,0.6
		c-0.2,0.1-0.5,0.3-0.7,0.3c-0.3,0.1-0.5,0.1-0.8,0.1c-0.5,0-0.9-0.1-1.4-0.3c-0.4-0.2-0.8-0.5-1-0.8l0.7-0.5
		c0.1,0.2,0.4,0.4,0.6,0.6c0.3,0.2,0.6,0.3,1,0.3c0.2,0,0.4,0,0.5-0.1c0.2,0,0.3-0.1,0.5-0.2c0.1-0.1,0.2-0.2,0.3-0.3
		c0.1-0.1,0.1-0.3,0.1-0.5c0-0.3-0.1-0.5-0.4-0.7c-0.2-0.2-0.6-0.3-1.1-0.5c-0.2-0.1-0.3-0.1-0.5-0.2c-0.2-0.1-0.3-0.2-0.5-0.3
		c-0.1-0.1-0.3-0.3-0.3-0.4c-0.1-0.2-0.1-0.4-0.1-0.6c0-0.3,0.1-0.6,0.2-0.8c0.1-0.2,0.3-0.4,0.5-0.5c0.2-0.1,0.4-0.2,0.7-0.3
		c0.3-0.1,0.5-0.1,0.8-0.1c0.4,0,0.8,0.1,1.2,0.3c0.4,0.2,0.6,0.4,0.8,0.7L123.9,76.2z"/>
	<path class="st7" d="M129.4,80.7c0-0.2,0-0.3,0.1-0.5c0-0.2,0-0.3,0.1-0.5h0c-0.2,0.4-0.5,0.6-0.9,0.8c-0.4,0.2-0.7,0.3-1.1,0.3
		c-0.6,0-1.1-0.2-1.5-0.5c-0.4-0.3-0.5-0.7-0.5-1.3c0-0.1,0-0.2,0-0.3c0-0.1,0-0.2,0-0.3l0.6-3.6h0.8l-0.6,3.2
		c0,0.3-0.1,0.5-0.1,0.7c0,0.4,0.1,0.7,0.3,1c0.2,0.2,0.5,0.3,1,0.3c0.2,0,0.4,0,0.7-0.1c0.2-0.1,0.4-0.2,0.6-0.4
		c0.2-0.2,0.4-0.4,0.5-0.7c0.1-0.3,0.3-0.6,0.3-1l0.5-3h0.8l-0.8,4.5c0,0.2-0.1,0.4-0.1,0.6c0,0.2-0.1,0.5-0.1,0.7H129.4z"/>
	<path class="st7" d="M133.2,75.6c0-0.2,0.1-0.5,0.1-0.7h0.8c0,0.2,0,0.3-0.1,0.5s0,0.3-0.1,0.5h0c0.2-0.3,0.5-0.6,0.8-0.8
		c0.3-0.2,0.7-0.3,1.1-0.3c0.1,0,0.2,0,0.3,0c0.1,0,0.2,0,0.3,0l-0.2,0.8c0,0-0.1,0-0.2,0c-0.1,0-0.2,0-0.3,0c-0.2,0-0.4,0-0.7,0.1
		c-0.2,0.1-0.4,0.2-0.6,0.4c-0.2,0.2-0.3,0.4-0.5,0.7c-0.1,0.3-0.2,0.6-0.3,1l-0.5,3h-0.8l0.8-4.5C133.1,76,133.2,75.8,133.2,75.6z"
		/>
	<path class="st7" d="M140.7,77.2c0-0.1,0-0.3,0-0.3c0-0.1,0-0.2,0-0.2c0-0.4-0.1-0.7-0.4-0.9c-0.2-0.2-0.6-0.3-1-0.3
		c-0.3,0-0.7,0.1-1,0.2c-0.3,0.1-0.6,0.3-0.8,0.5l-0.4-0.6c0.3-0.2,0.6-0.4,1-0.6c0.4-0.2,0.8-0.2,1.2-0.2c0.3,0,0.5,0,0.8,0.1
		c0.3,0.1,0.5,0.2,0.7,0.3c0.2,0.1,0.3,0.3,0.4,0.5c0.1,0.2,0.2,0.5,0.2,0.8c0,0.1,0,0.2,0,0.3c0,0.1,0,0.2,0,0.3l-0.4,2.4
		c0,0.2-0.1,0.5-0.1,0.7c0,0.2,0,0.4,0,0.6h-0.7c0-0.1,0-0.3,0-0.5c0-0.2,0-0.3,0.1-0.5h0c-0.2,0.2-0.3,0.4-0.5,0.5
		c-0.2,0.1-0.3,0.2-0.5,0.3c-0.2,0.1-0.4,0.1-0.6,0.2c-0.2,0-0.4,0.1-0.7,0.1c-0.2,0-0.4,0-0.6-0.1c-0.2,0-0.4-0.1-0.6-0.3
		c-0.2-0.1-0.3-0.3-0.4-0.5c-0.1-0.2-0.2-0.4-0.2-0.7c0-0.5,0.1-0.8,0.4-1.1c0.3-0.3,0.6-0.5,1-0.7c0.4-0.2,0.9-0.3,1.4-0.3
		C139.6,77.2,140.1,77.2,140.7,77.2z M140.3,77.8c-0.4,0-0.8,0-1.1,0.1c-0.4,0-0.7,0.1-1.1,0.2c-0.3,0.1-0.6,0.2-0.8,0.4
		c-0.2,0.2-0.3,0.4-0.3,0.7c0,0.2,0,0.3,0.1,0.5c0.1,0.1,0.2,0.2,0.3,0.3s0.2,0.1,0.4,0.1c0.1,0,0.3,0,0.4,0c0.3,0,0.6,0,0.8-0.1
		c0.2-0.1,0.5-0.2,0.7-0.4c0.2-0.2,0.3-0.4,0.5-0.6c0.1-0.2,0.2-0.5,0.3-0.7l0.1-0.5H140.3z"/>
	<path class="st7" d="M144.6,74.9c0,0.2,0,0.3-0.1,0.5c0,0.2,0,0.3-0.1,0.5h0c0.2-0.4,0.5-0.6,0.9-0.8c0.4-0.2,0.7-0.3,1.1-0.3
		c0.6,0,1.1,0.2,1.5,0.5c0.4,0.3,0.5,0.8,0.5,1.3c0,0.1,0,0.2,0,0.3c0,0.1,0,0.2,0,0.3l-0.6,3.6H147l0.6-3.2c0-0.3,0.1-0.5,0.1-0.7
		c0-0.4-0.1-0.7-0.3-1c-0.2-0.2-0.5-0.4-1-0.4c-0.2,0-0.4,0-0.7,0.1c-0.2,0.1-0.4,0.2-0.6,0.4c-0.2,0.2-0.4,0.4-0.5,0.7
		c-0.1,0.3-0.3,0.6-0.3,1l-0.5,3h-0.8l0.8-4.5c0-0.2,0.1-0.4,0.1-0.6c0-0.2,0.1-0.5,0.1-0.7H144.6z"/>
	<path class="st7" d="M154.7,76.2c-0.1-0.2-0.3-0.4-0.5-0.6c-0.2-0.1-0.5-0.2-0.8-0.2c-0.4,0-0.7,0.1-1,0.2
		c-0.3,0.2-0.6,0.4-0.8,0.6c-0.2,0.3-0.4,0.6-0.5,0.9c-0.1,0.3-0.2,0.7-0.2,1.1c0,0.3,0,0.5,0.1,0.7c0.1,0.2,0.2,0.4,0.4,0.6
		c0.2,0.2,0.4,0.3,0.6,0.4c0.2,0.1,0.5,0.1,0.8,0.1c0.4,0,0.7-0.1,1-0.2c0.3-0.1,0.5-0.3,0.7-0.5l0.5,0.5c-0.3,0.3-0.6,0.5-1,0.7
		c-0.4,0.2-0.8,0.3-1.3,0.3c-0.4,0-0.8-0.1-1.1-0.2c-0.3-0.1-0.6-0.3-0.9-0.5c-0.2-0.2-0.4-0.5-0.5-0.8c-0.1-0.3-0.2-0.6-0.2-1
		c0-0.5,0.1-1,0.3-1.4c0.2-0.4,0.4-0.8,0.7-1.2c0.3-0.3,0.7-0.6,1.1-0.8c0.4-0.2,0.9-0.3,1.4-0.3c0.4,0,0.8,0.1,1.2,0.2
		c0.4,0.2,0.7,0.4,0.9,0.7L154.7,76.2z"/>
	<path class="st7" d="M156.8,78c0,0.1,0,0.1,0,0.1c0,0,0,0.1,0,0.1c0,0.3,0,0.5,0.1,0.8c0.1,0.2,0.2,0.4,0.4,0.6
		c0.2,0.2,0.4,0.3,0.6,0.4c0.2,0.1,0.5,0.1,0.7,0.1c0.5,0,0.9-0.1,1.2-0.3c0.3-0.2,0.6-0.4,0.8-0.7l0.5,0.5
		c-0.3,0.4-0.7,0.7-1.2,0.9c-0.4,0.2-0.9,0.3-1.4,0.3c-0.4,0-0.7-0.1-1-0.2c-0.3-0.1-0.6-0.3-0.8-0.5s-0.4-0.5-0.6-0.8
		c-0.1-0.3-0.2-0.7-0.2-1.1c0-0.5,0.1-0.9,0.3-1.4c0.2-0.4,0.4-0.8,0.7-1.1c0.3-0.3,0.7-0.6,1.1-0.8c0.4-0.2,0.9-0.3,1.3-0.3
		c0.8,0,1.4,0.2,1.8,0.6c0.4,0.4,0.6,1,0.6,1.6c0,0.1,0,0.3,0,0.5c0,0.2,0,0.4-0.1,0.6H156.8z M160.8,77.4c0-0.1,0-0.1,0-0.2
		c0-0.1,0-0.2,0-0.2c0-0.4-0.1-0.8-0.4-1.1c-0.3-0.3-0.7-0.4-1.2-0.4c-0.3,0-0.6,0.1-0.9,0.2c-0.3,0.1-0.5,0.2-0.7,0.4
		c-0.2,0.2-0.4,0.4-0.5,0.6c-0.1,0.2-0.2,0.5-0.3,0.8H160.8z"/>
	<path class="st7" d="M169.1,75.6h-1.4l-0.9,5.1H166l0.9-5.1h-1.2l0.1-0.7h1.2l0.3-1.6c0-0.3,0.1-0.6,0.2-0.8
		c0.1-0.3,0.3-0.5,0.4-0.7c0.2-0.2,0.4-0.3,0.6-0.5c0.2-0.1,0.5-0.2,0.9-0.2c0.1,0,0.2,0,0.3,0c0.1,0,0.2,0,0.3,0.1l-0.2,0.7
		c-0.2,0-0.4-0.1-0.6-0.1c-0.2,0-0.4,0-0.5,0.1c-0.1,0.1-0.3,0.2-0.4,0.3c-0.1,0.1-0.2,0.3-0.2,0.5c-0.1,0.2-0.1,0.4-0.1,0.6
		l-0.3,1.5h1.4L169.1,75.6z"/>
	<path class="st7" d="M171.9,80.9c-0.4,0-0.8-0.1-1.1-0.2c-0.3-0.1-0.6-0.3-0.9-0.5c-0.2-0.2-0.4-0.5-0.6-0.8
		c-0.1-0.3-0.2-0.7-0.2-1c0-0.5,0.1-1,0.3-1.4c0.2-0.4,0.4-0.8,0.7-1.1c0.3-0.3,0.7-0.6,1.1-0.8c0.4-0.2,0.9-0.3,1.4-0.3
		c0.4,0,0.8,0.1,1.1,0.2c0.3,0.1,0.6,0.3,0.8,0.5c0.2,0.2,0.4,0.5,0.6,0.8c0.1,0.3,0.2,0.6,0.2,1c0,0.5-0.1,1-0.3,1.4
		c-0.2,0.4-0.4,0.8-0.7,1.1c-0.3,0.3-0.7,0.6-1.1,0.8C172.9,80.8,172.4,80.9,171.9,80.9z M174.5,77.3c0-0.3,0-0.5-0.1-0.7
		c-0.1-0.2-0.2-0.4-0.4-0.6c-0.2-0.2-0.4-0.3-0.6-0.4c-0.2-0.1-0.5-0.1-0.8-0.1c-0.4,0-0.7,0.1-1,0.2c-0.3,0.2-0.6,0.4-0.8,0.6
		c-0.2,0.3-0.4,0.6-0.5,0.9c-0.1,0.3-0.2,0.7-0.2,1.1c0,0.3,0,0.5,0.1,0.7c0.1,0.2,0.2,0.4,0.4,0.6c0.2,0.2,0.4,0.3,0.6,0.4
		c0.2,0.1,0.5,0.1,0.8,0.1c0.4,0,0.7-0.1,1-0.2c0.3-0.2,0.6-0.4,0.8-0.6c0.2-0.3,0.4-0.6,0.5-0.9C174.4,78.1,174.5,77.7,174.5,77.3z
		"/>
	<path class="st7" d="M177.4,75.6c0-0.2,0.1-0.5,0.1-0.7h0.8c0,0.2,0,0.3-0.1,0.5s0,0.3-0.1,0.5h0c0.2-0.3,0.5-0.6,0.8-0.8
		c0.3-0.2,0.7-0.3,1.1-0.3c0.1,0,0.2,0,0.3,0c0.1,0,0.2,0,0.3,0l-0.2,0.8c0,0-0.1,0-0.2,0c-0.1,0-0.2,0-0.3,0c-0.2,0-0.4,0-0.7,0.1
		c-0.2,0.1-0.4,0.2-0.6,0.4c-0.2,0.2-0.3,0.4-0.5,0.7c-0.1,0.3-0.2,0.6-0.3,1l-0.5,3h-0.8l0.8-4.5C177.3,76,177.4,75.8,177.4,75.6z"
		/>
	<path class="st7" d="M184.6,80.7h-0.9l1.6-8.8h0.9L184.6,80.7z"/>
	<path class="st7" d="M188.5,74.9c0,0.2,0,0.3-0.1,0.5c0,0.2,0,0.3-0.1,0.5h0c0.2-0.4,0.5-0.6,0.9-0.8c0.4-0.2,0.7-0.3,1.1-0.3
		c0.6,0,1.1,0.2,1.5,0.5c0.4,0.3,0.5,0.8,0.5,1.3c0,0.1,0,0.2,0,0.3c0,0.1,0,0.2,0,0.3l-0.6,3.6h-0.8l0.6-3.2c0-0.3,0.1-0.5,0.1-0.7
		c0-0.4-0.1-0.7-0.3-1c-0.2-0.2-0.5-0.4-1-0.4c-0.2,0-0.4,0-0.7,0.1c-0.2,0.1-0.4,0.2-0.6,0.4c-0.2,0.2-0.4,0.4-0.5,0.7
		c-0.1,0.3-0.3,0.6-0.3,1l-0.5,3h-0.8l0.8-4.5c0-0.2,0.1-0.4,0.1-0.6c0-0.2,0.1-0.5,0.1-0.7H188.5z"/>
	<path class="st7" d="M193.7,78.4c0-0.5,0.1-1,0.3-1.4c0.2-0.4,0.4-0.8,0.7-1.1c0.3-0.3,0.7-0.6,1.1-0.8c0.4-0.2,0.9-0.3,1.4-0.3
		c0.4,0,0.8,0.1,1.2,0.3c0.4,0.2,0.6,0.5,0.8,0.8h0l0.8-4.6h0.8l-1.7,9.4h-0.8l0.2-1h0c-0.2,0.3-0.5,0.6-0.9,0.8
		c-0.4,0.2-0.8,0.3-1.3,0.3c-0.4,0-0.8-0.1-1.1-0.2c-0.3-0.1-0.6-0.3-0.8-0.5c-0.2-0.2-0.4-0.5-0.5-0.8
		C193.8,79.1,193.7,78.7,193.7,78.4z M194.6,78.3c0,0.3,0,0.5,0.1,0.7c0.1,0.2,0.2,0.4,0.4,0.6c0.2,0.2,0.3,0.3,0.6,0.4
		c0.2,0.1,0.5,0.1,0.8,0.1c0.4,0,0.7-0.1,1-0.2c0.3-0.1,0.6-0.4,0.8-0.6c0.2-0.3,0.4-0.6,0.5-0.9c0.1-0.3,0.2-0.7,0.2-1.1
		c0-0.3,0-0.5-0.1-0.8c-0.1-0.2-0.2-0.4-0.4-0.6c-0.2-0.2-0.4-0.3-0.6-0.4c-0.2-0.1-0.5-0.1-0.8-0.1c-0.4,0-0.7,0.1-1,0.2
		c-0.3,0.2-0.6,0.4-0.8,0.6c-0.2,0.3-0.4,0.6-0.5,0.9C194.6,77.5,194.6,77.9,194.6,78.3z"/>
	<path class="st7" d="M202.2,80.7h-0.8l1-5.8h0.8L202.2,80.7z M203.7,72.7c0,0.2-0.1,0.3-0.2,0.4c-0.1,0.1-0.3,0.2-0.4,0.2
		c-0.2,0-0.3,0-0.4-0.1c-0.1-0.1-0.2-0.2-0.2-0.4c0-0.2,0.1-0.3,0.2-0.4c0.1-0.1,0.3-0.2,0.4-0.2s0.3,0.1,0.4,0.2
		C203.6,72.3,203.7,72.5,203.7,72.7z"/>
	<path class="st7" d="M206.4,80.7h-0.9l-1.2-5.8h0.9l0.9,4.9h0l2.9-4.9h0.9L206.4,80.7z"/>
	<path class="st7" d="M210.9,80.7h-0.8l1-5.8h0.8L210.9,80.7z M212.4,72.7c0,0.2-0.1,0.3-0.2,0.4c-0.1,0.1-0.3,0.2-0.4,0.2
		c-0.2,0-0.3,0-0.4-0.1c-0.1-0.1-0.2-0.2-0.2-0.4c0-0.2,0.1-0.3,0.2-0.4c0.1-0.1,0.3-0.2,0.4-0.2c0.2,0,0.3,0.1,0.4,0.2
		C212.4,72.3,212.4,72.5,212.4,72.7z"/>
	<path class="st7" d="M213,78.4c0-0.5,0.1-1,0.3-1.4c0.2-0.4,0.4-0.8,0.7-1.1c0.3-0.3,0.7-0.6,1.1-0.8c0.4-0.2,0.9-0.3,1.4-0.3
		c0.4,0,0.8,0.1,1.2,0.3c0.4,0.2,0.6,0.5,0.8,0.8h0l0.8-4.6h0.8l-1.7,9.4h-0.8l0.2-1h0c-0.2,0.3-0.5,0.6-0.9,0.8
		c-0.4,0.2-0.8,0.3-1.3,0.3c-0.4,0-0.8-0.1-1.1-0.2c-0.3-0.1-0.6-0.3-0.8-0.5c-0.2-0.2-0.4-0.5-0.5-0.8C213,79.1,213,78.7,213,78.4z
		 M213.8,78.3c0,0.3,0,0.5,0.1,0.7c0.1,0.2,0.2,0.4,0.4,0.6c0.2,0.2,0.3,0.3,0.6,0.4c0.2,0.1,0.5,0.1,0.8,0.1c0.4,0,0.7-0.1,1-0.2
		c0.3-0.1,0.6-0.4,0.8-0.6c0.2-0.3,0.4-0.6,0.5-0.9c0.1-0.3,0.2-0.7,0.2-1.1c0-0.3,0-0.5-0.1-0.8c-0.1-0.2-0.2-0.4-0.4-0.6
		c-0.2-0.2-0.4-0.3-0.6-0.4c-0.2-0.1-0.5-0.1-0.8-0.1c-0.4,0-0.7,0.1-1,0.2c-0.3,0.2-0.6,0.4-0.8,0.6c-0.2,0.3-0.4,0.6-0.5,0.9
		C213.9,77.5,213.8,77.9,213.8,78.3z"/>
	<path class="st7" d="M224.7,80.7c0-0.2,0-0.3,0.1-0.5s0-0.3,0.1-0.5h0c-0.2,0.4-0.5,0.6-0.9,0.8c-0.4,0.2-0.7,0.3-1.1,0.3
		c-0.6,0-1.1-0.2-1.5-0.5c-0.4-0.3-0.5-0.7-0.5-1.3c0-0.1,0-0.2,0-0.3c0-0.1,0-0.2,0-0.3l0.6-3.6h0.8l-0.6,3.2
		c0,0.3-0.1,0.5-0.1,0.7c0,0.4,0.1,0.7,0.3,1c0.2,0.2,0.5,0.3,1,0.3c0.2,0,0.4,0,0.7-0.1c0.2-0.1,0.4-0.2,0.6-0.4
		c0.2-0.2,0.4-0.4,0.5-0.7c0.1-0.3,0.3-0.6,0.3-1l0.5-3h0.8l-0.8,4.5c0,0.2-0.1,0.4-0.1,0.6c0,0.2-0.1,0.5-0.1,0.7H224.7z"/>
	<path class="st7" d="M231.9,77.2c0-0.1,0-0.3,0-0.3c0-0.1,0-0.2,0-0.2c0-0.4-0.1-0.7-0.4-0.9c-0.2-0.2-0.6-0.3-1-0.3
		c-0.3,0-0.7,0.1-1,0.2c-0.3,0.1-0.6,0.3-0.8,0.5l-0.4-0.6c0.3-0.2,0.6-0.4,1-0.6c0.4-0.2,0.8-0.2,1.2-0.2c0.3,0,0.5,0,0.8,0.1
		c0.3,0.1,0.5,0.2,0.7,0.3c0.2,0.1,0.3,0.3,0.4,0.5c0.1,0.2,0.2,0.5,0.2,0.8c0,0.1,0,0.2,0,0.3c0,0.1,0,0.2,0,0.3l-0.4,2.4
		c0,0.2-0.1,0.5-0.1,0.7c0,0.2,0,0.4,0,0.6h-0.7c0-0.1,0-0.3,0-0.5c0-0.2,0-0.3,0.1-0.5h0c-0.2,0.2-0.3,0.4-0.5,0.5
		c-0.2,0.1-0.3,0.2-0.5,0.3c-0.2,0.1-0.4,0.1-0.6,0.2c-0.2,0-0.4,0.1-0.7,0.1c-0.2,0-0.4,0-0.6-0.1c-0.2,0-0.4-0.1-0.6-0.3
		c-0.2-0.1-0.3-0.3-0.4-0.5c-0.1-0.2-0.2-0.4-0.2-0.7c0-0.5,0.1-0.8,0.4-1.1c0.3-0.3,0.6-0.5,1-0.7c0.4-0.2,0.9-0.3,1.4-0.3
		C230.8,77.2,231.4,77.2,231.9,77.2z M231.6,77.8c-0.4,0-0.8,0-1.1,0.1c-0.4,0-0.7,0.1-1.1,0.2c-0.3,0.1-0.6,0.2-0.8,0.4
		c-0.2,0.2-0.3,0.4-0.3,0.7c0,0.2,0,0.3,0.1,0.5c0.1,0.1,0.2,0.2,0.3,0.3s0.2,0.1,0.4,0.1c0.1,0,0.3,0,0.4,0c0.3,0,0.6,0,0.8-0.1
		c0.2-0.1,0.5-0.2,0.7-0.4c0.2-0.2,0.3-0.4,0.5-0.6c0.1-0.2,0.2-0.5,0.3-0.7l0.1-0.5H231.6z"/>
	<path class="st7" d="M235,80.7h-0.8l1.7-9.4h0.8L235,80.7z"/>
	<path class="st7" d="M241,76.2c-0.1-0.2-0.3-0.4-0.5-0.5c-0.2-0.1-0.5-0.2-0.8-0.2c-0.1,0-0.3,0-0.5,0c-0.2,0-0.3,0.1-0.4,0.2
		c-0.1,0.1-0.2,0.2-0.3,0.3c-0.1,0.1-0.1,0.3-0.1,0.4c0,0.2,0,0.3,0.1,0.4c0.1,0.1,0.1,0.2,0.2,0.3c0.1,0.1,0.2,0.1,0.4,0.2
		c0.1,0.1,0.3,0.1,0.5,0.2c0.6,0.2,1,0.4,1.3,0.6c0.3,0.3,0.4,0.6,0.4,1.1c0,0.3-0.1,0.6-0.2,0.8c-0.1,0.2-0.3,0.4-0.5,0.6
		c-0.2,0.1-0.5,0.3-0.7,0.3c-0.3,0.1-0.5,0.1-0.8,0.1c-0.5,0-0.9-0.1-1.4-0.3c-0.4-0.2-0.8-0.5-1-0.8l0.7-0.5
		c0.1,0.2,0.4,0.4,0.6,0.6c0.3,0.2,0.6,0.3,1,0.3c0.2,0,0.4,0,0.5-0.1c0.2,0,0.3-0.1,0.5-0.2c0.1-0.1,0.2-0.2,0.3-0.3
		c0.1-0.1,0.1-0.3,0.1-0.5c0-0.3-0.1-0.5-0.4-0.7c-0.2-0.2-0.6-0.3-1.1-0.5c-0.2-0.1-0.3-0.1-0.5-0.2c-0.2-0.1-0.3-0.2-0.5-0.3
		c-0.1-0.1-0.3-0.3-0.3-0.4c-0.1-0.2-0.1-0.4-0.1-0.6c0-0.3,0.1-0.6,0.2-0.8c0.1-0.2,0.3-0.4,0.5-0.5c0.2-0.1,0.4-0.2,0.7-0.3
		c0.3-0.1,0.5-0.1,0.8-0.1c0.4,0,0.8,0.1,1.2,0.3c0.4,0.2,0.6,0.4,0.8,0.7L241,76.2z"/>
	<path class="st7" d="M251.3,73.6c0,0.3-0.1,0.6-0.2,0.8c-0.1,0.2-0.3,0.5-0.5,0.7c-0.2,0.2-0.5,0.4-0.7,0.6
		c-0.3,0.2-0.6,0.3-0.9,0.5l1.7,2.1l1.6-2.2h1l-2.1,2.8l1.6,2h-1.1l-1-1.3c-0.4,0.5-0.9,0.9-1.3,1.1c-0.4,0.2-0.9,0.4-1.5,0.4
		c-0.4,0-0.7,0-1-0.1c-0.3-0.1-0.6-0.2-0.8-0.4c-0.2-0.2-0.4-0.4-0.5-0.7c-0.1-0.3-0.2-0.6-0.2-1c0-0.4,0.1-0.7,0.2-1
		c0.2-0.3,0.4-0.6,0.6-0.8c0.2-0.2,0.5-0.4,0.8-0.6c0.3-0.2,0.6-0.3,0.9-0.4c-0.2-0.3-0.4-0.6-0.5-0.9c-0.1-0.3-0.2-0.6-0.2-1
		c0-0.3,0.1-0.6,0.2-0.9c0.1-0.3,0.3-0.5,0.5-0.7c0.2-0.2,0.4-0.4,0.7-0.5c0.3-0.1,0.6-0.2,0.9-0.2c0.6,0,1.1,0.2,1.4,0.5
		C251.1,72.5,251.3,73,251.3,73.6z M248.2,76.4c-0.3,0.1-0.5,0.2-0.7,0.4c-0.2,0.1-0.5,0.3-0.6,0.5c-0.2,0.2-0.3,0.4-0.4,0.6
		c-0.1,0.2-0.2,0.5-0.2,0.8c0,0.5,0.2,0.8,0.5,1.1c0.3,0.3,0.7,0.4,1.2,0.4c0.4,0,0.8-0.1,1.2-0.3c0.4-0.2,0.7-0.5,1.1-1L248.2,76.4
		z M250.4,73.6c0-0.4-0.1-0.7-0.3-0.9c-0.2-0.2-0.5-0.3-0.8-0.3c-0.4,0-0.7,0.1-1,0.4c-0.3,0.3-0.4,0.6-0.4,1.1
		c0,0.3,0.1,0.6,0.2,0.9c0.1,0.3,0.3,0.5,0.4,0.7c0.3-0.1,0.5-0.2,0.7-0.4c0.2-0.1,0.4-0.3,0.6-0.4c0.2-0.1,0.3-0.3,0.4-0.5
		C250.4,74,250.4,73.8,250.4,73.6z"/>
	<path class="st7" d="M257.9,80.7H257l1.6-8.8h5.2l-0.1,0.8h-4.3l-0.5,3.1h4l-0.1,0.8h-4L257.9,80.7z"/>
	<path class="st7" d="M267.3,77.2c0-0.1,0-0.3,0-0.3c0-0.1,0-0.2,0-0.2c0-0.4-0.1-0.7-0.4-0.9c-0.2-0.2-0.6-0.3-1-0.3
		c-0.3,0-0.7,0.1-1,0.2c-0.3,0.1-0.6,0.3-0.8,0.5l-0.4-0.6c0.3-0.2,0.6-0.4,1-0.6c0.4-0.2,0.8-0.2,1.2-0.2c0.3,0,0.5,0,0.8,0.1
		c0.3,0.1,0.5,0.2,0.7,0.3c0.2,0.1,0.3,0.3,0.4,0.5c0.1,0.2,0.2,0.5,0.2,0.8c0,0.1,0,0.2,0,0.3c0,0.1,0,0.2,0,0.3l-0.4,2.4
		c0,0.2-0.1,0.5-0.1,0.7c0,0.2,0,0.4,0,0.6h-0.7c0-0.1,0-0.3,0-0.5c0-0.2,0-0.3,0.1-0.5h0c-0.2,0.2-0.3,0.4-0.5,0.5
		c-0.2,0.1-0.3,0.2-0.5,0.3c-0.2,0.1-0.4,0.1-0.6,0.2c-0.2,0-0.4,0.1-0.7,0.1c-0.2,0-0.4,0-0.6-0.1c-0.2,0-0.4-0.1-0.6-0.3
		c-0.2-0.1-0.3-0.3-0.4-0.5c-0.1-0.2-0.2-0.4-0.2-0.7c0-0.5,0.1-0.8,0.4-1.1c0.3-0.3,0.6-0.5,1-0.7c0.4-0.2,0.9-0.3,1.4-0.3
		C266.3,77.2,266.8,77.2,267.3,77.2z M267,77.8c-0.4,0-0.8,0-1.1,0.1c-0.4,0-0.7,0.1-1.1,0.2c-0.3,0.1-0.6,0.2-0.8,0.4
		c-0.2,0.2-0.3,0.4-0.3,0.7c0,0.2,0,0.3,0.1,0.5c0.1,0.1,0.2,0.2,0.3,0.3c0.1,0.1,0.2,0.1,0.4,0.1c0.1,0,0.3,0,0.4,0
		c0.3,0,0.6,0,0.8-0.1c0.2-0.1,0.5-0.2,0.7-0.4c0.2-0.2,0.3-0.4,0.5-0.6c0.1-0.2,0.2-0.5,0.3-0.7l0.1-0.5H267z"/>
	<path class="st7" d="M276.9,74.8c0.6,0,1.1,0.2,1.5,0.5c0.4,0.3,0.5,0.8,0.5,1.3c0,0.1,0,0.2,0,0.3c0,0.1,0,0.2,0,0.3l-0.6,3.6
		h-0.8l0.6-3.2c0-0.3,0.1-0.5,0.1-0.7c0-0.4-0.1-0.7-0.3-1c-0.2-0.2-0.5-0.4-1-0.4c-0.3,0-0.6,0.1-0.8,0.2c-0.2,0.1-0.4,0.3-0.6,0.5
		c-0.2,0.2-0.3,0.4-0.4,0.7c-0.1,0.3-0.2,0.5-0.2,0.8l-0.5,3.1h-0.8l0.6-3.4c0-0.3,0.1-0.5,0.1-0.8c0-0.3-0.1-0.6-0.3-0.8
		c-0.2-0.2-0.5-0.3-0.9-0.3c-0.2,0-0.4,0-0.6,0.1c-0.2,0.1-0.4,0.2-0.6,0.4c-0.2,0.2-0.4,0.4-0.5,0.7c-0.1,0.3-0.3,0.6-0.3,1l-0.5,3
		h-0.8l0.8-4.5c0-0.2,0.1-0.4,0.1-0.6c0-0.2,0.1-0.5,0.1-0.7h0.8c0,0.2,0,0.3-0.1,0.5s0,0.3-0.1,0.5h0c0.2-0.4,0.5-0.6,0.9-0.8
		c0.3-0.2,0.7-0.3,1.1-0.3c0.2,0,0.3,0,0.5,0c0.2,0,0.3,0.1,0.5,0.2c0.2,0.1,0.3,0.2,0.4,0.4c0.1,0.2,0.2,0.4,0.2,0.6
		c0.2-0.4,0.5-0.7,0.9-0.9C276,74.9,276.4,74.8,276.9,74.8z"/>
	<path class="st7" d="M281.1,80.7h-0.8l1-5.8h0.8L281.1,80.7z M282.6,72.7c0,0.2-0.1,0.3-0.2,0.4c-0.1,0.1-0.3,0.2-0.4,0.2
		c-0.2,0-0.3,0-0.4-0.1c-0.1-0.1-0.2-0.2-0.2-0.4c0-0.2,0.1-0.3,0.2-0.4c0.1-0.1,0.3-0.2,0.4-0.2s0.3,0.1,0.4,0.2
		C282.5,72.3,282.6,72.5,282.6,72.7z"/>
	<path class="st7" d="M284,80.7h-0.8l1.7-9.4h0.8L284,80.7z"/>
	<path class="st7" d="M287,80.7h-0.8l1-5.8h0.8L287,80.7z M288.5,72.7c0,0.2-0.1,0.3-0.2,0.4c-0.1,0.1-0.3,0.2-0.4,0.2
		c-0.2,0-0.3,0-0.4-0.1c-0.1-0.1-0.2-0.2-0.2-0.4c0-0.2,0.1-0.3,0.2-0.4c0.1-0.1,0.3-0.2,0.4-0.2c0.2,0,0.3,0.1,0.4,0.2
		C288.5,72.3,288.5,72.5,288.5,72.7z"/>
	<path class="st7" d="M289.9,78c0,0.1,0,0.1,0,0.1c0,0,0,0.1,0,0.1c0,0.3,0,0.5,0.1,0.8c0.1,0.2,0.2,0.4,0.4,0.6
		c0.2,0.2,0.4,0.3,0.6,0.4c0.2,0.1,0.5,0.1,0.7,0.1c0.5,0,0.9-0.1,1.2-0.3c0.3-0.2,0.6-0.4,0.8-0.7l0.5,0.5
		c-0.3,0.4-0.7,0.7-1.2,0.9c-0.4,0.2-0.9,0.3-1.4,0.3c-0.4,0-0.7-0.1-1-0.2c-0.3-0.1-0.6-0.3-0.8-0.5c-0.2-0.2-0.4-0.5-0.6-0.8
		c-0.1-0.3-0.2-0.7-0.2-1.1c0-0.5,0.1-0.9,0.3-1.4c0.2-0.4,0.4-0.8,0.7-1.1c0.3-0.3,0.7-0.6,1.1-0.8c0.4-0.2,0.9-0.3,1.3-0.3
		c0.8,0,1.4,0.2,1.8,0.6c0.4,0.4,0.6,1,0.6,1.6c0,0.1,0,0.3,0,0.5c0,0.2,0,0.4-0.1,0.6H289.9z M294,77.4c0-0.1,0-0.1,0-0.2
		c0-0.1,0-0.2,0-0.2c0-0.4-0.1-0.8-0.4-1.1c-0.3-0.3-0.7-0.4-1.2-0.4c-0.3,0-0.6,0.1-0.9,0.2c-0.3,0.1-0.5,0.2-0.7,0.4
		c-0.2,0.2-0.4,0.4-0.5,0.6c-0.1,0.2-0.2,0.5-0.3,0.8H294z"/>
	<path class="st7" d="M299.9,76.2c-0.1-0.2-0.3-0.4-0.5-0.5c-0.2-0.1-0.5-0.2-0.8-0.2c-0.1,0-0.3,0-0.5,0c-0.2,0-0.3,0.1-0.4,0.2
		c-0.1,0.1-0.2,0.2-0.3,0.3c-0.1,0.1-0.1,0.3-0.1,0.4c0,0.2,0,0.3,0.1,0.4c0.1,0.1,0.1,0.2,0.2,0.3c0.1,0.1,0.2,0.1,0.4,0.2
		c0.1,0.1,0.3,0.1,0.5,0.2c0.6,0.2,1,0.4,1.3,0.6c0.3,0.3,0.4,0.6,0.4,1.1c0,0.3-0.1,0.6-0.2,0.8s-0.3,0.4-0.5,0.6
		c-0.2,0.1-0.5,0.3-0.7,0.3c-0.3,0.1-0.5,0.1-0.8,0.1c-0.5,0-0.9-0.1-1.4-0.3c-0.4-0.2-0.8-0.5-1-0.8l0.7-0.5
		c0.1,0.2,0.4,0.4,0.6,0.6c0.3,0.2,0.6,0.3,1,0.3c0.2,0,0.4,0,0.5-0.1c0.2,0,0.3-0.1,0.5-0.2c0.1-0.1,0.2-0.2,0.3-0.3
		c0.1-0.1,0.1-0.3,0.1-0.5c0-0.3-0.1-0.5-0.4-0.7s-0.6-0.3-1.1-0.5c-0.2-0.1-0.3-0.1-0.5-0.2c-0.2-0.1-0.3-0.2-0.5-0.3
		c-0.1-0.1-0.3-0.3-0.3-0.4c-0.1-0.2-0.1-0.4-0.1-0.6c0-0.3,0.1-0.6,0.2-0.8c0.1-0.2,0.3-0.4,0.5-0.5c0.2-0.1,0.4-0.2,0.7-0.3
		c0.3-0.1,0.5-0.1,0.8-0.1c0.4,0,0.8,0.1,1.2,0.3c0.4,0.2,0.6,0.4,0.8,0.7L299.9,76.2z"/>
</g>
</a>
</svg>
