<?xml version="1.0" encoding="iso-8859-1"?>
<!-- Generator: Adobe Illustrator 19.1.0, SVG Export Plug-In . SVG Version: 6.00 Build 0)  -->
<svg version="1.1" baseProfile="tiny" id="Layer_1" xmlns="http://www.w3.org/2000/svg" xmlns:xlink="http://www.w3.org/1999/xlink"
	 x="0px" y="0px" viewBox="0 0 238.6 68.7" xml:space="preserve">
<g>
	<path fill="#FFFFFF" d="M15,34.5H9.6v13.1H1.2V3.7h13.8c3,0,5.5,2.4,5.5,5.5V29C20.6,32.2,18,34.5,15,34.5z M12.2,13.1
		c0-0.6-0.5-1.1-1.1-1.1H9.6v15.2h1.6c0.5,0,1-0.4,1-1V13.1z"/>
	<path fill="#FFFFFF" d="M33.7,18.8c-2.4,0-3.7,1.9-3.7,4.2v24.5h-7.8V12.5H30v2.4c0.4-1.3,1.6-2.4,2.7-2.4h1.9v6.3H33.7z"/>
	<path fill="#FFFFFF" d="M47.3,47.6H40c-2.4,0-4.6-1.6-4.6-4.1V17.1c0-2.6,2-4.6,4.6-4.6h7.3c2.6,0,4.6,2,4.6,4.6v15.2h-9.1v7.6
		c0,0.4,0.2,0.6,0.5,0.6h0.5c0.4,0,0.6-0.2,0.6-0.6v-6H52v9.6C52,45.9,49.7,47.6,47.3,47.6z M44.5,20.3c0-0.4-0.3-0.7-0.7-0.7h-0.3
		c-0.4,0-0.7,0.3-0.7,0.7V26h1.6V20.3z"/>
	<path fill="#FFFFFF" d="M72.5,47.6V19.4c0-0.5,0-0.6-0.6-0.7h-1.2v28.9h-7.4v-28c0-0.6,0-0.8-0.6-0.8h-1.1v28.9h-7.4V12.5h10.5
		c1.3,0,2,0.7,2.5,1.5v-1.5h7.9c2.5,0,4.8,2.2,4.8,4.9v30.2H72.5z"/>
	<path fill="#FFFFFF" d="M82.2,11.2V3.7h7.4v7.5H82.2z M89.6,47.6h-7.4V12.5h7.5L89.6,47.6z"/>
	<path fill="#FFFFFF" d="M97,47.6c-2.8,0-5.2-2.2-5.2-5V12.5h7.5v27.8c0,0.5,0,1,0.6,1h1.1V12.5h7.4v35.1H97z"/>
	<path fill="#FFFFFF" d="M128.9,47.6V19.4c0-0.5,0-0.6-0.6-0.7h-1.2v28.9h-7.4v-28c0-0.6,0-0.8-0.6-0.8H118v28.9h-7.4V12.5h10.5
		c1.3,0,2,0.7,2.5,1.5v-1.5h7.9c2.5,0,4.8,2.2,4.8,4.9v30.2H128.9z"/>
	<path fill="#FFFFFF" d="M161.8,47.6h-1.5v3H155v-3h-7V32.4h8.3v6.9h2.7v-9.5h-11V9.1c0-3,2.4-5.4,5.5-5.4h1.5V0.5h5.3v3.2h7v15H159
		V12h-2.7v9.5h11v20.6C167.3,45.1,164.8,47.6,161.8,47.6z"/>
	<path fill="#FFFFFF" d="M173.8,47.6c-2.8,0-4.9-2.6-4.9-5.1V31c0-2.7,2.4-4.9,5.2-4.9l3.9-0.1v-4.3c0-0.4-0.2-0.8-0.8-0.8h-0.8v3.6
		h-6.1V12.5h10c2.8,0,5.2,3.4,5.2,6.2v28.8H173.8z M178.1,32.2H177c-0.6,0.1-0.6,0.5-0.6,1v7.2h1.7V32.2z"/>
	<path fill="#FFFFFF" d="M200.1,47.6h-8.3c-2.8-5.2-4.3-7.1-4.3-15.5V12.5h7.3v21.7c0,2.6,0.3,5.2,1.2,6.2c0.8-1,1-3.5,1-6.1V12.5
		h7.4V32C204.4,40.4,203.5,42.1,200.1,47.6z"/>
	<path fill="#FFFFFF" d="M218.5,47.6h-7.3c-2.4,0-4.6-1.6-4.6-4.1V17.1c0-2.6,2-4.6,4.6-4.6h7.3c2.6,0,4.6,2,4.6,4.6v15.2H214v7.6
		c0,0.4,0.2,0.6,0.5,0.6h0.5c0.4,0,0.6-0.2,0.6-0.6v-6h7.5v9.6C223.1,45.9,220.9,47.6,218.5,47.6z M215.6,20.3
		c0-0.4-0.3-0.7-0.7-0.7h-0.3c-0.4,0-0.7,0.3-0.7,0.7V26h1.6V20.3z"/>
	<path fill="#FFFFFF" d="M236.9,18.8c-2.4,0-3.7,1.9-3.7,4.2v24.5h-7.8V12.5h7.8v2.4c0.4-1.3,1.6-2.4,2.7-2.4h1.9v6.3H236.9z"/>
</g>
<g>
	<path fill="#FFFFFF" d="M9.7,60.4v1C9.7,64.2,9,68,5.3,68s-4.8-3.8-4.8-6.7c0-3,1-6.9,4.8-6.9c2.1,0,3.4,1.3,4,3.1l-2.6,1
		c-0.1-0.7-0.3-1.7-1.4-1.7c-1.8-0.1-2,3.2-2,4.4c0,1.4,0.1,4.4,2.1,4.4c1.4,0,1.6-1.8,1.6-2.7H5.3v-2.5H9.7z"/>
	<path fill="#FFFFFF" d="M11,67.8V54.6h2.7c1.7,0,4.8,0.2,4.8,3.8c0,1.5-0.6,2.7-1.9,3.4l2.4,6h-2.8l-2.4-6.1h0v6.1H11z M13.7,60.2
		l0.5,0c1.2,0,1.7-0.8,1.7-1.9c0-0.9-0.5-1.7-1.8-1.6h-0.4V60.2z"/>
	<path fill="#FFFFFF" d="M29.2,61.2c0,5-2.4,6.8-4.8,6.8s-4.8-1.9-4.8-6.8s2.4-6.8,4.8-6.8S29.2,56.2,29.2,61.2z M24.4,65.6
		c1.8,0,1.9-3.3,1.9-4.4c0-1.2-0.1-4.4-1.9-4.4s-1.9,3.2-1.9,4.4C22.5,62.2,22.6,65.6,24.4,65.6z"/>
	<path fill="#FFFFFF" d="M33.1,54.6v8.5c0,1-0.1,2.5,1.3,2.5c1.3,0,1.3-1,1.3-1.9v-9.1h2.7v9.6c0,1.4-0.2,3.8-4,3.8
		c-2.5,0-4-1.1-4-3.6v-9.8H33.1z"/>
	<path fill="#FFFFFF" d="M40.2,67.8V54.6H43c0.6,0,4.6-0.4,4.6,3.9c0,2.5-1.6,3.9-4.1,3.9l-0.6,0v5.4H40.2z M42.9,60.2
		c1.3,0.1,2-0.4,2-1.8c0-0.9-0.4-1.7-1.5-1.7h-0.5V60.2z"/>
	<path fill="#FFFFFF" d="M59,57.5c-0.5-0.5-1.2-0.8-1.9-0.8c-0.8,0-1.4,0.5-1.4,1.3c0,2.2,4.1,2.3,4.1,5.9c0,2.3-1.4,4.1-3.9,4.1
		c-0.8,0-1.7-0.2-2.3-0.7v-2.5c0.6,0.4,1.2,0.7,2,0.7c0.9,0,1.5-0.6,1.5-1.4c0-1-0.8-1.4-1.6-1.9c-1.5-1-2.5-2-2.5-3.9
		c0-2.1,1.2-3.9,3.5-3.9c0.9,0,1.6,0.2,2.4,0.6V57.5z"/>
	<path fill="#FFFFFF" d="M63.7,54.6v8.5c0,1-0.1,2.5,1.3,2.5c1.3,0,1.3-1,1.3-1.9v-9.1H69v9.6c0,1.4-0.2,3.8-4,3.8
		c-2.5,0-4-1.1-4-3.6v-9.8H63.7z"/>
	<path fill="#FFFFFF" d="M70.8,67.8V54.6h2.8c0.6,0,4.6-0.4,4.6,3.9c0,2.5-1.6,3.9-4.1,3.9l-0.6,0v5.4H70.8z M73.5,60.2
		c1.3,0.1,2-0.4,2-1.8c0-0.9-0.4-1.7-1.5-1.7h-0.5V60.2z"/>
	<path fill="#FFFFFF" d="M79.3,67.8V54.6h2.8c0.6,0,4.6-0.4,4.6,3.9c0,2.5-1.6,3.9-4.1,3.9l-0.6,0v5.4H79.3z M82,60.2
		c1.3,0.1,2-0.4,2-1.8c0-0.9-0.4-1.7-1.5-1.7H82V60.2z"/>
	<path fill="#FFFFFF" d="M90.5,54.6v10.7h2.8v2.5h-5.5V54.6H90.5z"/>
	<path fill="#FFFFFF" d="M99.8,54.6V57H97v2.9h2.4v2.5H97v3h2.8v2.5h-5.4V54.6H99.8z"/>
	<path fill="#FFFFFF" d="M105.5,54.6l1.3,7.8h0l1.1-7.8h3.6l1.4,13.2h-2.8l-0.6-9.5h0l-0.4,3.3l-1.2,6.2h-2.1l-1.3-6.3l-0.5-2.9
		v-0.2h0l-0.4,9.5h-2.9l1.2-13.2H105.5z"/>
	<path fill="#FFFFFF" d="M119.6,54.6V57h-2.7v2.9h2.4v2.5h-2.4v3h2.8v2.5h-5.4V54.6H119.6z"/>
	<path fill="#FFFFFF" d="M123.7,54.6l3.4,8l0,0c-0.2-0.6-0.2-1.3-0.2-2v-5.9h2.7v13.2H127l-3.3-8l0,0l0.1,1.3l0,0.5v6.1h-2.7V54.6
		H123.7z"/>
	<path fill="#FFFFFF" d="M137.5,54.6V57h-2.1v10.7h-2.7V57h-2.1v-2.5H137.5z"/>
	<path fill="#FFFFFF" d="M143.1,54.6l3.3,13.2h-2.9l-0.5-2.2h-2.7l-0.5,2.2h-2.7l3.2-13.2H143.1z M141.9,60l-0.3-2h0l-0.3,2
		l-0.6,3.5h1.9L141.9,60z"/>
	<path fill="#FFFFFF" d="M150,54.6v10.7h2.8v2.5h-5.5V54.6H150z"/>
	<path fill="#FFFFFF" d="M161.1,54.6v13.2h-2.7V54.6H161.1z"/>
	<path fill="#FFFFFF" d="M165.5,54.6l3.4,8l0,0c-0.2-0.6-0.2-1.3-0.2-2v-5.9h2.7v13.2h-2.5l-3.3-8l0,0l0.1,1.3l0,0.5v6.1h-2.7V54.6
		H165.5z"/>
	<path fill="#FFFFFF" d="M178.6,57.5c-0.5-0.5-1.2-0.8-1.9-0.8c-0.8,0-1.4,0.5-1.4,1.3c0,2.2,4.1,2.3,4.1,5.9c0,2.3-1.4,4.1-3.9,4.1
		c-0.8,0-1.7-0.2-2.3-0.7v-2.5c0.6,0.4,1.2,0.7,2,0.7c0.9,0,1.5-0.6,1.5-1.4c0-1-0.8-1.4-1.6-1.9c-1.5-1-2.5-2-2.5-3.9
		c0-2.1,1.2-3.9,3.6-3.9c0.9,0,1.6,0.2,2.4,0.6V57.5z"/>
	<path fill="#FFFFFF" d="M183.3,54.6v8.5c0,1-0.1,2.5,1.3,2.5c1.3,0,1.3-1,1.3-1.9v-9.1h2.7v9.6c0,1.4-0.2,3.8-4,3.8
		c-2.5,0-4-1.1-4-3.6v-9.8H183.3z"/>
	<path fill="#FFFFFF" d="M190.4,67.8V54.6h2.7c1.7,0,4.8,0.2,4.8,3.8c0,1.5-0.6,2.7-1.9,3.4l2.4,6h-2.8l-2.4-6.1h0v6.1H190.4z
		 M193,60.2l0.5,0c1.2,0,1.7-0.8,1.7-1.9c0-0.9-0.5-1.7-1.8-1.6H193V60.2z"/>
	<path fill="#FFFFFF" d="M205.1,54.6l3.3,13.2h-2.9l-0.5-2.2h-2.7l-0.5,2.2h-2.7l3.2-13.2H205.1z M203.9,60l-0.3-2h0l-0.3,2
		l-0.6,3.5h1.9L203.9,60z"/>
	<path fill="#FFFFFF" d="M211.9,54.6l3.4,8l0,0c-0.2-0.6-0.2-1.3-0.2-2v-5.9h2.7v13.2h-2.5l-3.3-8l0,0l0.1,1.3l0,0.5v6.1h-2.7V54.6
		H211.9z"/>
	<path fill="#FFFFFF" d="M226.3,57c-0.3-0.1-0.7-0.1-1-0.1c-2.4,0-3.4,2.1-3.4,4.1c0,2,1,4.4,3.4,4.4c0.3,0,0.7-0.1,1-0.2v2.5
		c-0.4,0.2-0.8,0.2-1.2,0.2c-3.9,0-6-3.4-6-6.9c0-3.3,2.2-6.6,5.9-6.6c0.5,0,0.9,0.1,1.4,0.2V57z"/>
	<path fill="#FFFFFF" d="M232.8,54.6V57h-2.7v2.9h2.4v2.5h-2.4v3h2.8v2.5h-5.4V54.6H232.8z"/>
</g>
</svg>
