<svg id="Layer_1" data-name="Layer 1" xmlns="http://www.w3.org/2000/svg" viewBox="0 0 351 101.59"><defs><style>.cls-1{fill:#004c74;}.cls-2{fill:#c4ae82;}.cls-3{fill:#f0e9de;}</style></defs><title>color</title><path class="cls-1" d="M131.84,8.11c0-2.65-.69-2.65-1.34-2.65h-2V3.81h22.1l-.35,3.13c-.08.6.05,1.81-.82,1.81a.72.72,0,0,1-.82-.77c-.09-.92-.44-1.18-1.26-1.48-2.26-.74-4.38-.78-7.67-.78-.61,0-.87,0-.87.7v9.14h2.39c4.85,0,5-.65,5-1.82V12.31h1.48V20h-1.48v-.78c0-1.3,0-1.9-3.64-1.9h-3.77v5.41c0,5.85.26,6.68,1.13,6.68,4.07,0,9.45-.18,10.75-2.69.17-.39.3-.61.78-.61a.59.59,0,0,1,.65.65,38.81,38.81,0,0,1-1.22,4.55H129.55V29.69c2,0,2.29,0,2.29-.44Z"/><path class="cls-1" d="M171.49,20.8c3.21-7.58,4.59-10.4,7.71-17H188V5.46h-1.51c-.61,0-.74,0-.83.82V25.53c0,.86,0,4.16,1,4.16H189v1.64H176.21V29.69c2.17,0,2.47,0,2.47-.44V9.71h-.12l-9,20.19c-.17.35-.3.91-.73.91s-.44-.3-.52-.52l-9-19.63h-.08V26.87c0,1.78.3,2.82,1.3,2.82h2.12v1.64h-8.06V29.69h1.56c.39,0,.91,0,.91-.44V9.49c0-3.81-1.47-4-3.81-4V3.81h10.09Z"/><path class="cls-1" d="M204.87,31.33H192.05V29.69c2,0,2.29,0,2.29-.44V8.11c0-2.65-.69-2.65-1.34-2.65h-2V3.81h14.09c7.58,0,9.62,4.56,9.62,7.59s-2.82,7.5-9.79,7.5a11.66,11.66,0,0,1-3.6-.52v7.15c0,.86,0,4.16,1,4.16h2.51Zm-3.55-14.64a4.85,4.85,0,0,0,1.73.3,4.56,4.56,0,0,0,4.68-4.9c0-3.16-2-6.37-5.41-6.37-.65,0-1,0-1,.48Z"/><path class="cls-1" d="M226.15,22.75c0,5.85.25,6.68,1.12,6.68,4.08,0,9.45-.18,10.75-2.69.17-.39.3-.61.78-.61a.59.59,0,0,1,.65.65,38.43,38.43,0,0,1-1.21,4.55H216.87V29.69c2,0,2.3,0,2.3-.44V8.11c0-2.65-.7-2.65-1.35-2.65h-2V3.81h13.09V5.46H227c-.61,0-.74,0-.82.82Z"/><path class="cls-1" d="M240.65,18.33c0-6,3.72-15.34,15.38-15.34,8.24,0,14.39,5,14.39,13.83,0,6-3.77,15.34-15.43,15.34C246.76,32.16,240.65,27.13,240.65,18.33Zm16.08,12.05c5.37,0,6.71-5.55,6.71-9.71,0-5.46-1.73-15.9-9.14-15.9-5.38,0-6.68,5.55-6.68,9.71C247.62,19.94,249.32,30.38,256.73,30.38Z"/><path class="cls-1" d="M296.5,5.46h-1.21c-1,0-1,.09-1.35.61l-7.15,13.22v6.24c0,.86,0,4.16,1,4.16h2.34v1.64H277.39V29.69c2.12,0,2.42,0,2.42-.44V19.81L274.48,9.54c-2.08-4-2.38-4.08-3.72-4.08h-1V3.81h13.05V5.46h-1.78c-.56,0-.69,0-.69.26,0,.48,1.56,3.17,5.54,11.18,3.6-7.15,5.29-10,5.29-11,0-.48-.34-.48-1-.48h-2.12V3.81h8.45Z"/><path class="cls-1" d="M301.44,8.11c0-2.65-.7-2.65-1.35-2.65h-2V3.81h22.1l-.35,3.13c-.08.6,0,1.81-.82,1.81a.72.72,0,0,1-.82-.77c-.09-.92-.44-1.18-1.26-1.48-2.25-.74-4.38-.78-7.67-.78-.61,0-.87,0-.87.7v9.14h2.39c4.85,0,5-.65,5-1.82V12.31h1.48V20h-1.48v-.78c0-1.3,0-1.9-3.64-1.9h-3.77v5.41c0,5.85.26,6.68,1.13,6.68,4.07,0,9.45-.18,10.75-2.69.17-.39.3-.61.78-.61a.59.59,0,0,1,.65.65,38.43,38.43,0,0,1-1.21,4.55H299.14V29.69c2,0,2.3,0,2.3-.44Z"/><path class="cls-1" d="M333.66,25.53c0,.86,0,4.16,1,4.16h2.52v1.64H324.39V29.69c2,0,2.3,0,2.3-.44V8.11c0-2.65-.7-2.65-1.35-2.65h-2V3.81h14c.9,0,9.7,0,9.7,8.33a5.9,5.9,0,0,1-5.63,5.41,57.7,57.7,0,0,0,7.37,11.05A2.65,2.65,0,0,0,351,29.69v1.64h-6.37c-1.69,0-2.12,0-2.69-.6-1.9-2-4.81-8.28-6.15-11.75h-2.13Zm0-8.32h1.13c3.3,0,5.25-1.91,5.25-5.25,0-3-2.17-6.24-5.42-6.24-.56,0-1,0-1,.48Z"/><path class="cls-1" d="M146.84,43.36a.7.7,0,0,1-.69.83c-.61,0-.74-.35-.87-.83-.48-2-2.91-2.81-4.77-2.81-2.51,0-5.37,1.43-5.37,4.24,0,4.55,6.54,3.51,11.35,7.46a8.56,8.56,0,0,1,2.73,6.19c0,3.9-2.94,9.36-11.53,9.36A22.23,22.23,0,0,1,130,66.46a42.29,42.29,0,0,1-.87-4.33c0-.61.22-.87.83-.87s.73.48.91,1c1,2.85,5.15,3.68,6.58,3.68,3.17,0,6.07-1.87,6.07-5.29,0-5-7.11-4.38-11.05-7.58a7.14,7.14,0,0,1-2.77-5.9c0-5.89,5.76-8.49,10.92-8.49a18.43,18.43,0,0,1,5.94.82Z"/><path class="cls-1" d="M154.65,43.75c0-2.64-.69-2.64-1.34-2.64h-2V39.46h22.11l-.35,3.12c-.09.61,0,1.82-.82,1.82-.57,0-.78-.26-.83-.78-.09-.91-.43-1.17-1.26-1.47-2.25-.74-4.37-.78-7.67-.78-.6,0-.86,0-.86.69v9.15H164c4.85,0,5-.65,5-1.82V48h1.47v7.71H169v-.78c0-1.3,0-1.91-3.64-1.91h-3.77V58.4c0,5.85.26,6.67,1.12,6.67,4.08,0,9.45-.17,10.75-2.68.18-.39.31-.61.78-.61a.59.59,0,0,1,.65.65A38.43,38.43,0,0,1,173.72,67H152.35V65.33c2,0,2.3,0,2.3-.43Z"/><path class="cls-1" d="M186.88,61.17c0,.87,0,4.16,1,4.16h2.51V67H177.6V65.33c2,0,2.3,0,2.3-.43V43.75c0-2.64-.69-2.64-1.34-2.64h-2V39.46h14c.91,0,9.71,0,9.71,8.32a5.91,5.91,0,0,1-5.64,5.42,58.49,58.49,0,0,0,7.37,11,2.65,2.65,0,0,0,2.25,1.08V67h-6.37c-1.69,0-2.12,0-2.69-.61-1.9-2-4.81-8.27-6.15-11.74h-2.12Zm0-8.32H188c3.3,0,5.25-1.9,5.25-5.24,0-3-2.17-6.24-5.42-6.24-.56,0-1,0-1,.48Z"/><path class="cls-1" d="M231,41.11h-1.81c-.39,0-.57,0-.83.65l-10.79,25c-.13.4-.26.78-.74.78s-.6-.52-.82-.86l-9.27-20.24c-1.95-4.25-2.47-5.33-3.6-5.33h-1.43V39.46h12.7v1.65h-1.26c-.61,0-1,0-1,.3a17.48,17.48,0,0,0,.82,2l6.42,14.08c2.68-5.81,6.28-14,6.28-15.82,0-.56-.39-.56-1-.56h-2V39.46H231Z"/><path class="cls-1" d="M232.5,39.46h12.83v1.65h-1.69c-.61,0-.73,0-.82.82V61.17c0,.87,0,4.16,1,4.16h2.51V67H233.54V65.33c2,0,2.3,0,2.3-.43V43.75c0-2.64-.69-2.64-1.34-2.64h-2Z"/><path class="cls-1" d="M273.29,43.15c-.08.56,0,1.43-.82,1.43-.61,0-.69-.39-.78-.87a1.5,1.5,0,0,0-.61-1.17,8.84,8.84,0,0,0-5.63-2c-4.46,0-9.92,4.55-9.92,12.61,0,5.8,2.68,12.74,9.49,12.74,2.47,0,7.15-1.69,7.8-4.55.08-.48.17-.87.78-.87a.65.65,0,0,1,.69.74c0,.6-.26,2.29-.43,4.37a26.26,26.26,0,0,1-10.79,2.21c-11,0-14.82-6.63-14.82-13.26,0-11.52,10.35-15.9,17.46-15.9a21.71,21.71,0,0,1,7.89,1.6Z"/><path class="cls-1" d="M280,43.75c0-2.64-.7-2.64-1.34-2.64h-2V39.46h22.1l-.34,3.12c-.09.61,0,1.82-.83,1.82-.56,0-.78-.26-.82-.78-.09-.91-.43-1.17-1.26-1.47-2.25-.74-4.37-.78-7.67-.78-.6,0-.86,0-.86.69v9.15h2.38c4.85,0,5-.65,5-1.82V48h1.47v7.71h-1.47v-.78c0-1.3,0-1.91-3.64-1.91H287V58.4c0,5.85.26,6.67,1.12,6.67,4.08,0,9.45-.17,10.75-2.68.17-.39.3-.61.78-.61a.59.59,0,0,1,.65.65A38.43,38.43,0,0,1,299.09,67H277.72V65.33c2,0,2.3,0,2.3-.43Z"/><path class="cls-1" d="M320.75,43.36a.71.71,0,0,1-.7.83c-.6,0-.73-.35-.86-.83-.48-2-2.9-2.81-4.77-2.81-2.51,0-5.37,1.43-5.37,4.24,0,4.55,6.54,3.51,11.35,7.46a8.6,8.6,0,0,1,2.73,6.19c0,3.9-2.94,9.36-11.53,9.36a22.23,22.23,0,0,1-7.71-1.34,42.29,42.29,0,0,1-.87-4.33c0-.61.22-.87.83-.87s.73.48.91,1c1,2.85,5.15,3.68,6.58,3.68,3.17,0,6.07-1.87,6.07-5.29,0-5-7.11-4.38-11.05-7.58a7.14,7.14,0,0,1-2.77-5.9c0-5.89,5.76-8.49,10.92-8.49a18.33,18.33,0,0,1,5.93.82Z"/><path class="cls-2" d="M140.13,89.24H148v1h-1.31c-.33,0-.51.1-.48.42v4.19c0,1.44.42,1.2.42,1.62,0,.27,0,.71-4.1,1.64a16.65,16.65,0,0,1-4,.51c-5.95,0-9.72-3.65-9.72-9.63,0-6.76,5.74-10.5,12-10.5a13.7,13.7,0,0,1,5.6,1.08c-.33,2.36-.48,2.75-.78,2.75s-.45-.24-.45-.66c0-.6-1.61-1.94-4.81-1.94-1.41,0-8.08.74-8.08,8.82,0,4.25,2.3,8.85,7.36,8.85a7.35,7.35,0,0,0,3.23-.69V94.29c0-4-.18-4.07-1.14-4.07h-1.61Z"/><path class="cls-2" d="M151.1,98V97h1.34c.39,0,.45-.18.45-.47V84.09c0-3.94-.18-4.06-1.14-4.06h-1.34V79h8.76c4.25,0,6.28,2.69,6.28,5.14,0,2.61-1.79,4.25-4.28,4.61a66.81,66.81,0,0,0,5,7.15c.81.86,1,1.1,2.18,1.1v1h-3.41a2.59,2.59,0,0,1-1.49-.24c-.87-.72-3.08-4.25-5.21-8.4h-1.85V93c0,3.94.18,4.06,1.14,4.06h1.34v1Zm5.26-9.63h1.08c2.39,0,4.54-1.05,4.54-3.74a4.26,4.26,0,0,0-3.92-4.46h-1.31c-.3,0-.39.1-.39.39Z"/><path class="cls-2" d="M169.36,89c0-6,4.1-10.56,10.23-10.56,5.83,0,9.63,3.77,9.63,9.57S185.12,98.6,179,98.6C173.16,98.6,169.36,94.83,169.36,89Zm16.39.63c0-7.72-4.27-10.11-7-10.11-.92,0-5.89.21-5.89,7.86s4.28,10.11,7,10.11C180.79,97.52,185.75,97.31,185.75,89.66Z"/><path class="cls-2" d="M199,80h-1.34c-.39,0-.45.17-.45.47v10c0,2.37.18,6.67,5.05,6.67,1.35,0,5.75-.3,5.75-6.31V86.25a42,42,0,0,0-.21-5.24c-.15-.92-.36-1-1.17-1h-1.2V79h5.6v1h-.84c-.78,0-.93,0-.93.38V91c0,5.51-4,7.6-7.8,7.6-6.1,0-7.72-3.29-7.72-6.55v-8c0-3.94-.18-4.06-1.14-4.06h-1.34V79H199Z"/><path class="cls-2" d="M218.94,93c0,3.94.17,4.06,1.13,4.06h1.35v1h-7.75V97H215c.39,0,.45-.18.45-.47V84.09c0-3.94-.18-4.06-1.14-4.06H213V79h8.62c5.41,0,6.58,3.11,6.58,5.17,0,3.08-3.08,5.24-6.61,5.24a8.82,8.82,0,0,1-2.63-.39Zm0-4.94a4.77,4.77,0,0,0,1.82.33,3.67,3.67,0,0,0,4-3.77,4.3,4.3,0,0,0-4.58-4.4h-.81c-.29,0-.38.1-.38.39Z"/><rect class="cls-2" x="110.72" width="1.26" height="101.59"/><polygon class="cls-2" points="45.51 0 45.51 11.45 45.51 22.9 45.51 34.35 81.16 56.53 81.16 67.96 81.13 67.97 63.91 57.26 54.71 62.98 37.46 73.72 46.71 79.41 63.91 68.71 71.93 73.7 45.51 90.14 28.29 79.42 19.09 73.7 54.71 51.53 45.51 45.81 9.89 67.97 9.86 67.96 9.86 56.53 40.66 37.37 40.66 25.92 9.86 45.08 9.86 33.63 40.66 14.47 40.66 3.02 0 28.32 0 32.1 0 39.77 0 51.22 0 53.17 0 53.89 0 61.82 0 62.67 0 66.68 0 73.27 9.89 79.42 19.09 85.15 45.51 101.59 81.13 79.42 91.02 73.27 91.02 66.68 91.02 62.67 91.02 61.82 91.02 54.38 91.02 51.22 55.37 29.04 55.37 28.78 55.37 17.59 91.02 39.77 91.02 28.32 45.51 0"/><polygon class="cls-3" points="55.37 17.59 55.37 28.78 55.37 29.04 91.02 51.22 91.02 39.77 55.37 17.59"/><polygon class="cls-3" points="45.51 22.9 45.51 11.45 45.51 0 40.66 3.02 40.66 14.47 9.86 33.63 9.86 45.08 40.66 25.92 40.66 37.37 9.86 56.53 9.86 67.96 9.89 67.97 45.51 45.81 54.71 51.53 19.09 73.7 28.29 79.42 45.51 90.14 71.93 73.7 63.91 68.71 46.71 79.41 37.46 73.72 54.71 62.98 63.91 57.26 81.13 67.97 81.16 67.96 81.16 56.53 45.51 34.35 45.51 22.9"/></svg>