<?xml version="1.0" encoding="utf-8"?>
<!-- Generator: Adobe Illustrator 19.1.0, SVG Export Plug-In . SVG Version: 6.00 Build 0)  -->
<svg version="1.1" id="Layer_1" xmlns="http://www.w3.org/2000/svg" xmlns:xlink="http://www.w3.org/1999/xlink" x="0px" y="0px"
	 viewBox="0 0 487.6 59.6" style="enable-background:new 0 0 487.6 59.6;" xml:space="preserve">
<style type="text/css">
	.st0{fill:#8DBCD1;}
	.st1{fill:#005378;}
	.st2{fill:#FFFFFF;}
	.st3{fill:#CCECFA;}
	.st4{fill:#003149;}
</style>
<path class="st0" d="M227.4,38.6c-0.4-4.3,1.9-7.3,2-9.8c0-1.4-2-2.5-2.7-3.5c-0.9,1.7-1.7,3.5-2.5,5.2l0,0
	c-1.3,2.9-3.8,4.9-6.5,5.6c-1.6,3.4-4.1,5.2-7.6,5c-3.3-0.2-5.7-2.6-6.7-5.8c-1.2,1.5-2.7,2.5-5,2.9c2.7,1.8,4.3,4.1,5,6
	c1,3,0.2,5.2-2.5,4.7c-2.3-0.4-5.3-1.7-7.4-6c-5.2-10.5-0.3-25.3,4.2-31.3c1.4-1.9,3.7-3.2,5.6-3.6c2.3-0.5,4.2,0.4,3.9,2.6
	c-1.2,9.2-8.7,17.1-11.2,20c-0.2,2-0.2,4,0,5.8c3.3-0.2,5.4-1.5,6.8-3.8c-0.2-2,0.1-4.2,1-6.4c0.7,0.1,1.5,0.2,2.2,0.3
	c0.4-3.3,3.1-6.5,7.5-6.9c4.2-0.3,6.2,3.2,6.2,7.4c0,2.3-0.6,4.7-1.2,6.8c1.5-0.6,2.8-1.7,3.8-4c0,0,0,0,0,0c1-2.3,1.9-4.7,2.6-7.1
	c-0.6-1-1-2.3-0.9-4c0.1-1.5,0.7-3.5,2-6.1c1.6,0.2,3.1,0.5,4.7,0.7c-0.6,3.2-1.3,5.6-2.4,8.2c2,1.6,6,3.4,5.9,6.2
	c-0.2,3.2-2.6,6.7-2.4,10.8c0.2,3.5,2,5.6,4.2,6.7c3-4.6,4.8-10.1,4.8-16.1c0-16.2-13.1-29.3-29.3-29.3c-16.2,0-29.3,13.1-29.3,29.3
	s13.1,29.3,29.3,29.3c9.3,0,17.6-4.4,22.9-11.1C230.9,45.9,227.9,42.8,227.4,38.6z"/>
<path class="st0" d="M200.6,47c1.1,0.2,1.2-0.9,0.6-2.5c-0.7-1.7-2.2-3.8-4.6-5.3c0.3,1.8,0.8,3.3,1.3,4.6
	C198.8,45.6,199.7,46.8,200.6,47z"/>
<path class="st0" d="M215.3,26.1c-0.1-2.1-0.7-3.6-2.4-3.5c-0.1,0-0.3,0.1-0.4,0.1c-1.8,0.4-3.1,3.4-2.9,6.2
	c0.2,2.4,1.5,4.7,4.1,5.3C214.6,31.8,215.3,28.6,215.3,26.1z"/>
<path class="st0" d="M204,10.6c-1.3,0.2-5.6,7.6-7.2,15.9c2.5-3.7,7.1-9.9,7.7-15.1C204.6,10.8,204.4,10.5,204,10.6z"/>
<path class="st0" d="M207.2,31.5c0,0.7,0,1.3,0.1,1.9c0.4,2.6,1.7,4.4,3.1,4.4c0.2,0,0.3,0,0.4,0c0.7-0.2,1.3-0.8,1.8-1.6
	C210.1,35.3,208.3,33.5,207.2,31.5z"/>
<path class="st1" d="M5.4,7.1c0,0,5.9-0.7,13.5-0.7c11.6,0,19.2,4.1,19.2,15.2c0,16.1-9.4,26.1-23.8,26.4h-1.6
	C6.2,48.1,0,47.5,0,47.5L5.4,7.1z M8.9,42.4c0,0,2.1,0.9,5.7,0.9c10.1,0,14.4-9.3,14.4-20.5c0-9.6-5.3-12.2-12.9-12.2
	c-1.8,0-3,0.3-3,0.3C11.7,21.4,10.3,31.9,8.9,42.4z"/>
<path class="st1" d="M58.7,15.9c5.2,0,8.8,2.3,8.8,6.6c0,7.5-8.2,12-15,12c-2.6,0-4-0.4-4.3-0.5c0,0.2-0.1,0.6-0.1,1.3
	c0,4.6,2.1,7.9,8.2,7.9c5,0,9.3-3,9.3-3l-1,4.5c0-0.1-4.5,3.6-11.9,3.6c-8.1,0-12.4-4.4-12.4-11.7C40.4,22.7,49.9,15.9,58.7,15.9z
	 M51.7,30.6c4.7,0,8.7-2.6,8.7-6.9c0-2.6-1.5-3.8-3.6-3.8c-4.3,0-7.2,5.8-8,10.5C49,30.4,49.9,30.6,51.7,30.6z"/>
<path class="st1" d="M73.8,16.5h8l-0.7,5.2c1.5-1,5.4-5.8,12.2-5.8c4.9,0,7.7,3.1,7.7,7.7c0,1.2-0.2,2.8-0.4,4.4
	c-0.7,5.1-2.6,19.5-2.6,19.5h-8c0.7-5.2,1.4-10.4,2-15.6c0.3-2.2,0.6-4.5,0.6-6.1c0-2.9-1.1-4.5-3.7-4.5c-4.4,0-8.6,4.8-9.4,11.9
	c-0.7,4.8-1.9,14.4-1.9,14.4h-8L73.8,16.5z"/>
<path class="st1" d="M106.8,38.2l2.7-18h-5.4l0.5-3.8h5.4c0.4-2.5,0.7-5,1.1-7.4h7.8c-0.4,2.4-0.7,4.9-1,7.4h8.1
	c-0.1,1.3-0.3,2.5-0.5,3.8h-8.2c-0.7,5.1-1.4,10.3-2.2,15.5c-0.1,0.9-0.4,2.7-0.4,4c0,1.6,0.4,3.7,3.1,3.7c2.5,0,5.3-1.6,5.3-1.6
	l-0.5,3.8c0,0-3.3,2.7-9.1,2.7c-4.4,0-7-2.3-7-6.3C106.5,40.6,106.7,39.1,106.8,38.2z"/>
<path class="st1" d="M143.7,15.9c5.1,0,8.1,2,8.1,2l1.8-1.4h5.4c-3,16.4-4.6,30.5-4.5,31h-6.7c0,0,0-3.7,0.2-7.9
	c-2.8,3.3-7,8.8-13,8.8c-5.7,0-9.2-4.1-9.2-11.4C125.9,24.1,133.8,15.9,143.7,15.9z M149.3,24.2c0.1-0.3,0-0.8-0.2-1.4
	c-0.8-1.1-2.7-2.9-5.9-2.9c-6.7,0-9.4,9-9.5,15.5c-0.1,4.2,1.1,7.7,4.2,7.7C144.4,43,148.9,29.1,149.3,24.2z"/>
<path class="st1" d="M167.3,3.6h7.9l-5.8,43.9h-7.9L167.3,3.6z"/>
<path class="st1" d="M258.6,28.6l-1.7,14.5h3.8c7,0,12.4-1.5,12.4-1.5l-0.8,5.9h-24.3l5.4-40.4h23.3c-0.2,1.9-0.5,3.9-0.8,5.8
	c0,0-5.1-1.5-12.2-1.5h-2.8c-0.5,4.4-1.1,8.7-1.7,13h14.7c-0.2,1.4-0.4,2.7-0.7,4.2H258.6z"/>
<path class="st1" d="M278.1,16.5h7.8c1.4,8,2.9,16,4.4,23.9l3.8-8.2c5-10.9,6.1-15.7,6.1-15.7h7.3l-15.2,31h-8.4L278.1,16.5z"/>
<path class="st1" d="M323.7,15.9c5.2,0,8.8,2.3,8.8,6.6c0,7.5-8.2,12-15,12c-2.6,0-4-0.4-4.3-0.5c0,0.2-0.1,0.6-0.1,1.3
	c0,4.6,2.1,7.9,8.2,7.9c5,0,9.3-3,9.3-3l-1,4.5c0-0.1-4.5,3.6-11.9,3.6c-8.1,0-12.4-4.4-12.4-11.7C305.4,22.7,314.9,15.9,323.7,15.9
	z M316.7,30.6c4.7,0,8.7-2.6,8.7-6.9c0-2.6-1.5-3.8-3.6-3.8c-4.3,0-7.2,5.8-8,10.5C314,30.4,314.9,30.6,316.7,30.6z"/>
<path class="st1" d="M339.6,16.5h7.9c-0.2,1.9-0.5,3.8-0.8,5.7c0.4-0.4,1.7-1.9,2.9-2.8c2.1-1.7,4.7-3.6,8.7-3.6
	c0.6,0,1.6,0.2,1.8,0.2c-0.5,2.4-1.1,4.8-1.6,7.2c0,0-2.3-1.2-4.4-1.2c-5.3,0-8.1,5.6-9,12.5l-1.7,13h-7.9L339.6,16.5z"/>
<path class="st1" d="M363.7,54.5c4.7,0,7-3.7,8.1-5.7c0.5-0.8,0.9-1.6,1.3-2.4c-1-0.7-2-1.4-3-2.1c-2.4-9.3-4.8-18.5-7.1-27.8h8.2
	l4.9,23.3c0.4-0.9,1.3-2.7,3.1-7.1c4.2-10.1,5.6-16.2,5.6-16.2h8.7c-0.1-0.1-13.5,28.9-16.4,33.4c-2.1,3.5-6.3,9.8-13.5,9.8
	c-3,0-4.8-1.1-4.8-1.1c0.3-1.6,0.6-3.2,0.8-4.8C359.7,53.7,361.5,54.5,363.7,54.5z"/>
<path class="st1" d="M409.9,15.9c7.5,0,12.8,4.3,12.8,13.1c0,13-9.1,19.3-18.3,19.3c-7.6,0-12.8-4.3-12.8-13.1
	C391.7,22.2,400.7,15.9,409.9,15.9z M405.9,44c5.4,0,8.7-7.2,8.7-14.2c0-5.4-2-9.7-6.3-9.7c-5.4,0-8.5,7.1-8.5,14.7
	C399.9,39.7,401.8,44,405.9,44z"/>
<path class="st1" d="M429.6,16.5h8l-0.7,5.2c1.5-1,5.4-5.8,12.2-5.8c4.9,0,7.7,3.1,7.7,7.7c0,1.2-0.2,2.8-0.4,4.4
	c-0.7,5.1-2.6,19.5-2.6,19.5h-8c0.7-5.2,1.4-10.4,2-15.6c0.3-2.2,0.6-4.5,0.6-6.1c0-2.9-1.1-4.5-3.7-4.5c-4.4,0-8.6,4.8-9.4,11.9
	c-0.7,4.8-1.8,14.4-1.8,14.4h-8L429.6,16.5z"/>
<path class="st1" d="M478.8,15.9c5.2,0,8.8,2.3,8.8,6.6c0,7.5-8.2,12-15,12c-2.6,0-4-0.4-4.3-0.5c0,0.2-0.1,0.6-0.1,1.3
	c0,4.6,2.1,7.9,8.2,7.9c5,0,9.3-3,9.3-3l-1,4.5c0-0.1-4.5,3.6-11.9,3.6c-8.1,0-12.4-4.4-12.4-11.7C460.5,22.7,470,15.9,478.8,15.9z
	 M471.8,30.6c4.7,0,8.7-2.6,8.7-6.9c0-2.6-1.5-3.8-3.6-3.8c-4.3,0-7.2,5.8-8,10.5C469.1,30.4,470,30.6,471.8,30.6z"/>
</svg>
