<?xml version="1.0" encoding="UTF-8"?>
<svg id="Layer_1" data-name="Layer 1" xmlns="http://www.w3.org/2000/svg" viewBox="0 0 243.67 124.67">
  <defs>
    <style>
      .cls-1 {
        fill: #003149;
      }

      .cls-2 {
        fill: #8dbcd1;
      }
    </style>
  </defs>
  <g>
    <path class="cls-1" d="M40.93,5.74s5.91-.66,13.55-.66c11.64,0,19.16,4.06,19.16,15.22,0,16.12-9.37,26.15-23.82,26.44h-1.61c-6.51,0-12.71-.6-12.71-.6L40.93,5.74Zm3.46,35.34s2.09,.9,5.67,.9c10.15,0,14.39-9.25,14.39-20.53,0-9.61-5.31-12.18-12.89-12.18-1.79,0-2.98,.3-2.98,.3-1.37,10.45-2.81,21.01-4.18,31.52Z"/>
    <path class="cls-1" d="M94.22,14.52c5.19,0,8.77,2.27,8.77,6.57,0,7.52-8.24,12-14.98,12-2.63,0-4-.42-4.3-.48,0,.18-.06,.6-.06,1.31,0,4.6,2.15,7.94,8.18,7.94,4.95,0,9.25-2.98,9.25-3.04l-.96,4.54c0-.06-4.54,3.64-11.88,3.64-8.12,0-12.36-4.42-12.36-11.7,0-13.91,9.49-20.77,18.33-20.77Zm-6.98,14.74c4.72,0,8.66-2.63,8.66-6.92,0-2.57-1.49-3.82-3.58-3.82-4.3,0-7.16,5.79-8,10.51,.18,0,1.07,.24,2.93,.24Z"/>
    <path class="cls-1" d="M109.33,15.11h8l-.72,5.19c1.49-.96,5.43-5.79,12.18-5.79,4.89,0,7.7,3.1,7.7,7.7,0,1.19-.18,2.81-.36,4.42-.66,5.07-2.57,19.52-2.57,19.52h-8c.72-5.19,1.37-10.39,2.03-15.64,.3-2.21,.6-4.54,.6-6.09,0-2.87-1.13-4.54-3.7-4.54-4.42,0-8.6,4.83-9.43,11.88-.66,4.78-1.85,14.39-1.85,14.39h-8l4.12-31.04Z"/>
    <path class="cls-1" d="M142.34,36.84l2.69-17.97h-5.43l.54-3.76h5.43c.36-2.51,.72-4.95,1.07-7.4h7.82c-.36,2.45-.66,4.9-1.01,7.4h8.06c-.12,1.25-.3,2.51-.48,3.76h-8.18c-.72,5.13-1.43,10.27-2.21,15.46-.12,.9-.42,2.75-.42,4,0,1.61,.42,3.7,3.1,3.7,2.51,0,5.31-1.61,5.31-1.61l-.54,3.82s-3.34,2.69-9.13,2.69c-4.42,0-6.98-2.33-6.98-6.27,0-1.43,.24-2.93,.36-3.82Z"/>
    <path class="cls-1" d="M179.16,14.52c5.07,0,8.12,2.03,8.12,2.03l1.79-1.43h5.43c-2.98,16.42-4.6,30.5-4.48,31.04h-6.75s0-3.7,.24-7.94c-2.81,3.28-6.98,8.78-12.95,8.78s-9.19-4.12-9.19-11.4c0-12.83,7.88-21.07,17.79-21.07Zm5.61,8.3c.06-.3,0-.84-.24-1.43-.84-1.13-2.69-2.92-5.91-2.92-6.69,0-9.37,8.95-9.49,15.46-.06,4.18,1.13,7.7,4.18,7.7,6.57,0,11.04-13.85,11.46-18.8Z"/>
    <path class="cls-1" d="M202.76,2.22h7.94l-5.85,43.93h-7.94l5.85-43.93Z"/>
  </g>
  <g>
    <path class="cls-1" d="M13.51,89.74l-1.73,14.51h3.76c7.04,0,12.36-1.49,12.36-1.49l-.84,5.91H2.76l5.43-40.41H31.53c-.24,1.91-.54,3.88-.78,5.85,0,0-5.07-1.49-12.18-1.49h-2.81c-.54,4.36-1.13,8.66-1.73,12.95h14.68c-.24,1.37-.42,2.75-.66,4.18H13.51Z"/>
    <path class="cls-1" d="M33.08,77.63h7.76c1.43,8,2.87,16,4.36,23.94l3.76-8.24c5.01-10.92,6.09-15.7,6.09-15.7h7.28l-15.16,31.04h-8.36l-5.73-31.04Z"/>
    <path class="cls-1" d="M78.63,77.03c5.19,0,8.77,2.27,8.77,6.57,0,7.52-8.24,12-14.98,12-2.63,0-4-.42-4.3-.48,0,.18-.06,.6-.06,1.31,0,4.6,2.15,7.94,8.18,7.94,4.95,0,9.25-2.98,9.25-3.04l-.96,4.54c0-.06-4.54,3.64-11.88,3.64-8.12,0-12.36-4.42-12.36-11.7,0-13.91,9.49-20.77,18.33-20.77Zm-6.98,14.74c4.72,0,8.66-2.63,8.66-6.92,0-2.57-1.49-3.82-3.58-3.82-4.3,0-7.16,5.79-8,10.51,.18,0,1.07,.24,2.93,.24Z"/>
    <path class="cls-1" d="M94.57,77.63h7.94c-.24,1.91-.54,3.76-.78,5.73,.36-.42,1.73-1.85,2.87-2.81,2.09-1.73,4.72-3.58,8.71-3.58,.6,0,1.55,.18,1.79,.18-.54,2.45-1.07,4.83-1.61,7.22,0,0-2.33-1.19-4.42-1.19-5.25,0-8.06,5.61-8.95,12.48l-1.73,13.01h-7.94l4.12-31.04Z"/>
    <path class="cls-1" d="M118.62,115.65c4.72,0,6.98-3.7,8.12-5.73,.48-.84,.9-1.61,1.31-2.45-1.01-.66-2.03-1.37-3.04-2.09-2.39-9.25-4.78-18.5-7.1-27.76h8.18l4.9,23.28c.42-.9,1.25-2.69,3.1-7.1,4.18-10.15,5.61-16.18,5.61-16.18h8.66c-.12-.06-13.55,28.89-16.36,33.37-2.09,3.52-6.27,9.79-13.49,9.79-3.04,0-4.77-1.07-4.77-1.07,.3-1.61,.6-3.22,.84-4.83,.06,0,1.85,.78,4.06,.78Z"/>
    <path class="cls-1" d="M164.88,77.03c7.52,0,12.77,4.3,12.83,13.13,0,12.95-9.07,19.28-18.33,19.28-7.58,0-12.77-4.3-12.77-13.13,0-12.95,9.01-19.28,18.27-19.28Zm-4.06,28.18c5.43,0,8.71-7.16,8.71-14.21,0-5.37-2.03-9.67-6.27-9.67-5.37,0-8.48,7.1-8.48,14.68,0,4.84,1.91,9.19,6.03,9.19Z"/>
    <path class="cls-1" d="M184.58,77.63h8l-.72,5.19c1.49-.96,5.43-5.79,12.18-5.79,4.89,0,7.7,3.1,7.7,7.7,0,1.19-.18,2.81-.36,4.42-.66,5.07-2.57,19.52-2.57,19.52h-8c.72-5.19,1.37-10.39,2.03-15.64,.3-2.21,.6-4.54,.6-6.09,0-2.87-1.13-4.54-3.7-4.54-4.42,0-8.6,4.83-9.43,11.88-.66,4.78-1.85,14.39-1.85,14.39h-8l4.12-31.04Z"/>
    <path class="cls-1" d="M233.77,77.03c5.19,0,8.77,2.27,8.77,6.57,0,7.52-8.24,12-14.98,12-2.63,0-4-.42-4.3-.48,0,.18-.06,.6-.06,1.31,0,4.6,2.15,7.94,8.18,7.94,4.96,0,9.25-2.98,9.25-3.04l-.96,4.54c0-.06-4.54,3.64-11.88,3.64-8.12,0-12.36-4.42-12.36-11.7,0-13.91,9.49-20.77,18.33-20.77Zm-6.98,14.74c4.72,0,8.66-2.63,8.66-6.92,0-2.57-1.49-3.82-3.58-3.82-4.3,0-7.16,5.79-8,10.51,.18,0,1.07,.24,2.92,.24Z"/>
  </g>
  <g>
    <path class="cls-2" d="M133.35,67.42c-.31-3.21,1.43-5.39,1.47-7.22,.02-1.07-1.49-1.86-1.96-2.59-.64,1.28-1.25,2.56-1.81,3.81h0c-.99,2.14-2.81,3.6-4.79,4.16-1.21,2.48-3.01,3.82-5.61,3.67-2.44-.15-4.19-1.96-4.94-4.3-.89,1.09-2.03,1.86-3.68,2.17,2.03,1.33,3.21,3.02,3.71,4.47,.75,2.19,.15,3.82-1.82,3.46-1.7-.32-3.91-1.26-5.47-4.43-3.88-7.75-.25-18.7,3.13-23.17,1.06-1.4,2.71-2.36,4.15-2.65,1.69-.34,3.08,.29,2.87,1.93-.88,6.82-6.43,12.68-8.29,14.82-.15,1.51-.13,2.96-.02,4.31,2.48-.13,3.99-1.1,5.06-2.8-.13-1.51,.09-3.13,.72-4.72,.55,.07,1.09,.14,1.64,.21,.3-2.48,2.26-4.83,5.55-5.1,3.1-.26,4.58,2.33,4.61,5.47,.02,1.7-.44,3.48-.89,5,1.09-.41,2.07-1.29,2.83-2.95h0c.76-1.7,1.37-3.49,1.9-5.22-.43-.76-.75-1.7-.68-2.94,.07-1.14,.49-2.57,1.44-4.49,1.15,.17,2.3,.34,3.44,.53-.45,2.4-.96,4.17-1.79,6.07,1.45,1.15,4.44,2.52,4.34,4.59-.11,2.33-1.96,4.95-1.79,8.01,.15,2.6,1.45,4.17,3.11,4.95,2.25-3.42,3.57-7.5,3.57-11.9,0-11.97-9.7-21.67-21.67-21.67s-21.67,9.7-21.67,21.67,9.7,21.67,21.67,21.67c6.89,0,13.01-3.22,16.98-8.23-2.72-1.17-4.99-3.48-5.3-6.57Z"/>
    <path class="cls-2" d="M113.49,73.63c.8,.13,.91-.69,.48-1.82-.48-1.24-1.61-2.83-3.39-3.94,.25,1.31,.59,2.45,1,3.4,.59,1.37,1.27,2.25,1.92,2.35Z"/>
    <path class="cls-2" d="M124.33,58.22c-.04-1.53-.53-2.66-1.81-2.57-.09,0-.23,.05-.32,.05-1.33,.29-2.32,2.49-2.14,4.58,.15,1.76,1.07,3.46,3.05,3.9,.74-1.76,1.27-4.16,1.22-5.96Z"/>
    <path class="cls-2" d="M116.02,46.71c-.93,.17-4.18,5.64-5.3,11.77,1.82-2.77,5.23-7.31,5.7-11.16,.05-.44-.11-.66-.4-.61Z"/>
    <path class="cls-2" d="M118.37,62.16c-.03,.48,0,.97,.06,1.38,.29,1.89,1.23,3.23,2.27,3.26,.13,0,.21,0,.33-.03,.51-.12,.95-.56,1.37-1.21-1.85-.56-3.22-1.87-4.02-3.4Z"/>
  </g>
</svg>