<?xml version="1.0" encoding="UTF-8"?>
<svg id="Layer_1" data-name="Layer 1" xmlns="http://www.w3.org/2000/svg" viewBox="0 0 213.28 201.79">
  <g>
    <path d="M72.49,145.04c-.06.91-.09,1.79.09,2.63l.04.19c.15.7.37,1.69.82,2.34,2.93,2.23,6.08,4.15,9.36,5.71-1.51-2.12-1.89-4.47-2.25-6.77-.14-.87-.28-1.76-.49-2.65-.77-.41-1.55-.82-2.33-1.24-1.65-.88-3.3-1.79-4.95-2.72-.03-.02-.06-.03-.09-.05-.03.39-.06.79-.1,1.17-.04.46-.09.93-.11,1.39Z" fill="none" stroke-width="0"/>
    <path d="M88.18,157.59c-.04.06-.08.12-.13.18-.06.07-.12.15-.19.22,1.55.54,3.11,1.01,4.68,1.38,4.41,1.04,8.03,1.55,10.4,1.84-1.15-1.07-2.33-2.11-3.55-3.07-3.53-2.77-7.34-5.11-11.31-7.33.68,1.6,1.23,5.01.1,6.78Z" fill="none" stroke-width="0"/>
    <path d="M177.84,62.59c-1.52,0-3.28-1.14-4.59-2.35,0,.32,0,.64,0,.96,0,5.71-.03,10.91-.09,15.6,1.06-2.27,2.43-5.4,3.78-9.27.57-1.62,1.04-3.3,1.44-5-.11.02-.21.04-.31.05-.08,0-.16,0-.24,0Z" fill="none" stroke-width="0"/>
    <path d="M141.55,147.67c.18-.84.15-1.72.09-2.63-.03-.46-.07-.93-.11-1.39-.04-.4-.07-.81-.1-1.22-.6.34-1.2.68-1.8,1.02-1.85,1.03-3.7,2.01-5.54,2.99-.21.9-.36,1.8-.5,2.69-.37,2.3-.74,4.66-2.25,6.77,3.27-1.56,6.42-3.48,9.36-5.71.45-.65.67-1.64.82-2.34l.04-.19Z" fill="none" stroke-width="0"/>
    <path d="M147.87,142.1c-.47.91-1.1,1.71-1.71,2.49-.61.78-1.2,1.51-1.63,2.36-.01.03-.03.06-.04.09,1.4-1.28,2.73-2.62,3.97-4.04,3.28-3.73,8.51-11.18,9.19-12.18,0,0,0-.01,0-.02-2.15,2.03-4.37,3.86-6.66,5.53-.66.48-1.32.94-1.98,1.4-.16,1.53-.44,3.04-1.13,4.38Z" fill="none" stroke-width="0"/>
    <path d="M67.97,144.59c-.61-.77-1.24-1.58-1.71-2.49-.68-1.33-.97-2.82-1.13-4.33-.16-.11-.32-.21-.47-.32-1.6-1.11-3.17-2.28-4.71-3.54-1.03-.84-2.04-1.72-3.04-2.64-.11-.1-.22-.21-.33-.32.96,1.39,5.92,8.44,9.09,12.04,1.24,1.41,2.58,2.76,3.97,4.04-.01-.03-.02-.06-.04-.09-.43-.84-1.02-1.58-1.63-2.36Z" fill="none" stroke-width="0"/>
    <path d="M126.08,157.77c-.05-.06-.09-.12-.13-.18-1.14-1.79-.56-5.26.12-6.83-5.05,2.82-9.83,5.83-14.13,9.67-.29.25-.55.54-.84.8,2.36-.29,6.02-.8,10.48-1.85,1.57-.37,3.13-.84,4.68-1.38-.07-.07-.14-.15-.19-.22Z" fill="none" stroke-width="0"/>
    <path d="M35.36,62.51c-.08,0-.16,0-.24-.01-.1,0-.2-.03-.31-.05.39,1.71.85,3.38,1.41,5.01,1.8,5.26,3.65,9.18,4.7,11.38-.08-5.69-.12-12.21-.12-19.51-1.3,1.46-3.56,3.19-5.44,3.18Z" fill="none" stroke-width="0"/>
    <path d="M37.78,41.24c-.85.47-1.67.94-2.32,1.58l-.15.14c-.55.53-1.31,1.29-1.65,2.07-.34,3.91-.29,7.84.16,11.68,1.05-2.56,2.97-4.24,4.83-5.88.73-.64,1.47-1.3,2.17-2.01.02-2.97.04-6.05.06-9.23-.59.35-1.2.66-1.8.96-.44.22-.88.45-1.32.68Z" fill="none" stroke-width="0"/>
    <path d="M35.62,36.9c.35-.99.71-2.02,1.27-2.95.99-1.67,2.51-2.94,4.1-4.11.03-3.02.07-6.13.12-9.31v-.84c-1.13,2.72-4.06,9.88-5.35,14.23-.57,1.92-1.03,3.89-1.39,5.87.02-.03.04-.05.05-.08.51-.87.85-1.81,1.2-2.81Z" fill="none" stroke-width="0"/>
    <path d="M178.01,43.04l-.15-.14c-.65-.64-1.46-1.12-2.31-1.59-.43-.24-.87-.47-1.31-.69-.36-.18-.72-.37-1.08-.57.03,3.31.05,6.51.06,9.59.46.43.92.85,1.39,1.26,1.86,1.65,3.76,3.34,4.8,5.91.47-3.84.55-7.77.23-11.68-.33-.78-1.09-1.54-1.63-2.08Z" fill="none" stroke-width="0"/>
    <path d="M176.49,34.02c.55.94.91,1.97,1.25,2.96.35,1,.67,1.94,1.18,2.81.02.03.04.06.05.08-.35-1.99-.79-3.95-1.35-5.88-1.07-3.72-3.33-9.49-4.67-12.8.04,3.14.08,6.2.11,9.18,1.34,1.05,2.58,2.2,3.42,3.64Z" fill="none" stroke-width="0"/>
    <path d="M107.07,50.84c.23,0,.46.01.7.02v-31.81c-.24-.12-.49-.23-.73-.35-.24.12-.49.23-.73.35v31.82c.26,0,.51-.02.77-.02Z" fill="#7e9d66" stroke-width="0"/>
    <path d="M107.07,114.69c-.26,0-.51-.01-.77-.02v37.7c.24.2.49.39.73.6.24-.21.49-.4.73-.6v-37.7c-.23,0-.46.02-.7.02Z" fill="#7e9d66" stroke-width="0"/>
    <path d="M162.52,27.92l-18.4,18.12c.39.29.78.59,1.16.91l18.93-18.63c0-.23,0-.45,0-.67-.56.11-1.12.19-1.68.28Z" fill="#7e9d66" stroke-width="0"/>
    <path d="M84.19,105.02l-20.63,20.31c.37.33.73.66,1.1.97l20.58-20.25c-.36-.33-.71-.68-1.05-1.03Z" fill="#7e9d66" stroke-width="0"/>
    <path d="M84.28,60.41L51.08,27.84c-.41-.07-.81-.13-1.22-.2,0,.35,0,.7-.01,1.05l33.43,32.79c.33-.36.66-.72,1-1.07Z" fill="#7e9d66" stroke-width="0"/>
    <path d="M128.81,106.13l20.58,20.18c.37-.32.74-.65,1.1-.97l-20.63-20.23c-.34.35-.69.69-1.05,1.02Z" fill="#7e9d66" stroke-width="0"/>
    <path d="M75.14,82.77c0-.24.01-.48.02-.72h-25.37c0,.49,0,.98,0,1.47h25.37c0-.25-.02-.49-.02-.74Z" fill="#7e9d66" stroke-width="0"/>
    <path d="M138.99,82.77c0,.25-.01.5-.02.74h25.3c0-.49,0-.97,0-1.47h-25.3c0,.24.02.48.02.72Z" fill="#7e9d66" stroke-width="0"/>
    <g>
      <path d="M166.52,83.04c0-1.12,0-2.25.02-3.39.21-13.56.16-31.96-.12-54.76-5.78,1.31-11.65,1.97-17.53,1.97h0c-.38,0-.76-.01-1.14-.02-.48,0-.96,0-1.44-.02-.21,0-.42-.02-.63-.03-2.37-.1-4.76-.29-7.15-.6-.12-.02-.24-.04-.36-.05-.75-.1-1.5-.2-2.25-.33-.26-.04-.52-.09-.78-.14-5.95-1.01-11.95-2.67-17.96-4.98-.86-.33-1.72-.67-2.58-1.03-1.45-.6-2.89-1.24-4.34-1.91-1.08-.5-2.16-1.02-3.25-1.57-14.06,7.08-28.13,10.67-41.86,10.67-5.87,0-11.75-.66-17.52-1.97-.29,22.77-.33,41.18-.12,54.76.03,2.25.01,4.48,0,6.63v.09c0,.72-.02,1.44-.02,2.16,0,.72,0,1.45,0,2.18,0,.73,0,1.46.02,2.19.03,1.46.08,2.92.18,4.39.15,2.19.39,4.38.8,6.54,1.39,7.38,5.94,15.76,11.58,21.34,7.12,7.04,15.73,11.6,24.05,16.01,1.02.54,2.04,1.08,3.05,1.62,2.02,1.08,4.02,2.17,5.97,3.3s3.88,2.3,5.75,3.56c1.88,1.25,3.71,2.59,5.49,4.05.89.73,1.77,1.48,2.63,2.28,6.92-6.33,14.71-10.46,22.91-14.81,6.24-3.31,12.64-6.7,18.46-11.16.97-.74,1.92-1.52,2.85-2.32.93-.81,1.85-1.65,2.74-2.53,1.06-1.05,2.08-2.19,3.05-3.41,1.29-1.62,2.49-3.38,3.56-5.2.54-.91,1.04-1.84,1.51-2.78.47-.94.9-1.89,1.3-2.85.99-2.39,1.73-4.79,2.17-7.1.81-4.33.98-8.76.99-13.13,0-1.46-.01-2.91-.03-4.34-.01-1.09-.02-2.2-.03-3.32ZM163.37,103.41c-1.31,6.96-5.61,14.88-10.95,20.16-.62.62-1.27,1.19-1.92,1.77-.37.33-.73.66-1.1.97-6.26,5.31-13.47,9.15-20.5,12.87-7.49,3.97-14.6,7.75-21.13,13.19-.24.2-.49.39-.73.6-.24-.21-.49-.4-.73-.6-6.53-5.44-13.64-9.22-21.13-13.19-7.02-3.72-14.25-7.56-20.51-12.88-.37-.32-.73-.65-1.1-.97-.64-.58-1.29-1.15-1.91-1.76-5.34-5.28-9.64-13.19-10.95-20.16-1.04-5.55-.99-11.38-.93-17v-.12c.01-.91.02-1.84.02-2.78,0-.49,0-.97,0-1.47,0-.81,0-1.61-.01-2.43-.19-12.81-.17-29.93.08-50.92,0-.35,0-.7.01-1.05.41.08.81.13,1.22.2,4.67.82,9.39,1.25,14.09,1.25,13.51,0,27.33-3.39,41.13-10.06.24-.12.49-.23.73-.35.24.12.49.23.73.35,13.79,6.67,27.62,10.06,41.12,10.06,4.55,0,9.11-.41,13.63-1.18.56-.1,1.12-.17,1.68-.28,0,.23,0,.45,0,.67.25,21.22.28,38.47.08,51.3-.01.82-.01,1.62-.01,2.43,0,.49,0,.98,0,1.47,0,.94.01,1.88.02,2.79v.07c.06,5.64.12,11.47-.93,17.03Z" fill="#f8df8d" stroke-width="0"/>
      <path d="M72.96,72.58c.87.44,2.3,1.09,3.36,1.6-.7,2.51-1.1,5.15-1.16,7.87,0,.24-.02.48-.02.72s.01.5.02.74c.04,1.77.22,3.5.54,5.19,3.9-1.64,7.55-3.38,10.95-5.19.91-.48,1.79-.97,2.66-1.47,3.28-1.86,6.32-3.77,9.12-5.71.41-.29.81-.57,1.22-.86,2.39-1.7,4.61-3.42,6.66-5.12.49-.41.99-.82,1.47-1.23,6.22-5.37,10.78-10.54,13.96-14.72-.58-.3-1.17-.59-1.77-.85.32-1.03.77-2.46,1.01-3.28.54-1.9,1.07-3.8,1.56-5.72.5-1.92.97-3.84,1.38-5.79-1.02,1.71-1.98,3.45-2.91,5.19-.94,1.74-1.84,3.5-2.73,5.26-.36.71-1.15,2.13-1.63,3.07-2.8-.88-5.78-1.37-8.85-1.44-.23,0-.46-.02-.7-.02-.26,0-.51.01-.77.02-4.1.1-8.01.96-11.59,2.46-.5-.93-1.01-1.85-1.52-2.77-.96-1.73-1.93-3.44-2.94-5.15-1-1.71-2.03-3.4-3.12-5.07.49,1.93,1.04,3.84,1.62,5.73.57,1.9,1.17,3.78,1.79,5.65.35,1.04.7,2.09,1.06,3.13-2.7,1.5-5.16,3.38-7.31,5.57-.34.35-.68.7-1,1.07-2.45,2.74-4.43,5.9-5.83,9.36-1.08-.32-2.39-.67-3.43-.97-1.9-.54-3.8-1.06-5.72-1.56-1.92-.49-3.84-.97-5.79-1.37,1.71,1.02,3.45,1.98,5.19,2.91,1.74.94,3.5,1.84,5.26,2.73Z" fill="#f8df8d" stroke-width="0"/>
      <path d="M139.92,95.59c-.62-.31-1.98-1-3-1.51,1.25-3.3,1.97-6.85,2.05-10.57,0-.25.02-.49.02-.74s-.01-.48-.02-.72c0-.33-.01-.65-.03-.97-.54.33-1.08.66-1.62.97-.85.5-1.7.99-2.55,1.47-6.26,3.52-12.33,6.36-18.13,8.64-.51.2-1.01.38-1.51.58-2.51.96-4.98,1.82-7.38,2.58-.49.16-.98.31-1.47.45-5.01,1.52-9.74,2.65-14.12,3.46-.86.16-1.71.31-2.54.44-3.19.52-6.18.89-8.93,1.13,1.04,1.51,2.2,2.93,3.48,4.24.34.35.69.69,1.05,1.03,2.44,2.29,5.24,4.2,8.3,5.63-.38,1.26-.76,2.53-1.12,3.8-.54,1.9-1.06,3.8-1.56,5.72-.49,1.92-.97,3.84-1.37,5.79,1.02-1.71,1.98-3.45,2.91-5.19.94-1.74,1.84-3.5,2.73-5.26.59-1.17,1.16-2.35,1.73-3.53,2.98,1,6.15,1.58,9.44,1.66.26,0,.51.02.77.02.23,0,.46-.01.7-.02,3.25-.07,6.38-.62,9.32-1.59.61,1.14,1.23,2.29,1.86,3.43.96,1.72,1.94,3.44,2.95,5.15,1.01,1.71,2.03,3.4,3.12,5.07-.49-1.93-1.04-3.84-1.61-5.73-.57-1.9-1.17-3.78-1.79-5.65-.39-1.19-.8-2.38-1.21-3.56,3.1-1.43,5.94-3.34,8.41-5.64.36-.33.71-.67,1.05-1.02,2.23-2.27,4.11-4.87,5.59-7.73,1.13.3,2.69.7,3.42.91,1.9.54,3.8,1.07,5.72,1.56,1.92.5,3.84.97,5.79,1.38-1.71-1.02-3.45-1.98-5.19-2.91-1.74-.94-3.5-1.84-5.26-2.73Z" fill="#f8df8d" stroke-width="0"/>
      <path d="M142.95,49.23c-.39-.32-.78-.62-1.18-.9-2.86-2.06-5.68-3.21-7.88-3.21-1.14,0-2.11.31-2.83.96-.19.17-.36.37-.51.59h0s-.01.03-.02.04c-.15.22-.27.46-.37.71-.73,1.35-2.53,4.48-5.67,8.61-3.64,4.8-9.09,10.94-16.74,17.23-.48.4-.96.8-1.47,1.2-1.38,1.09-2.84,2.19-4.35,3.27-.4.29-.8.58-1.21.87-1.65,1.16-3.39,2.3-5.2,3.44-.78.49-1.58.98-2.39,1.47-4.97,2.96-10.51,5.79-16.68,8.35-4.75,1.98-9.85,3.81-15.36,5.4,0,0,6.69,1.22,17.74.42,4.34-.31,9.35-.94,14.9-2.07.88-.18,1.77-.37,2.67-.57,3.15-.71,6.45-1.59,9.88-2.67.49-.15.97-.31,1.47-.47,1.59-.52,3.2-1.07,4.83-1.68.5-.19,1.01-.38,1.51-.57,4.45-1.7,9.07-3.73,13.82-6.15.93-.47,1.86-.96,2.79-1.47,2.58-1.39,5.19-2.89,7.84-4.52,4.25-2.62,8.58-5.57,12.95-8.89,2.89-2.62.66-9.79-4.98-16.02-1.15-1.27-2.36-2.4-3.57-3.38ZM149.99,66.97s-.04.02-.05.03c-.28.23-.7.35-1.26.35-2.33,0-6.76-2.11-10.96-6.75-1.02-1.13-1.94-2.32-2.73-3.52-.28-.43-.54-.85-.79-1.28-.74-1.28-1.32-2.54-1.69-3.72-.47-1.52-.57-2.86-.3-3.69.09-.27.21-.49.38-.64.28-.25.72-.38,1.32-.38,1.46,0,3.72.82,6.25,2.57.39.27.79.58,1.18.89,1.16.91,2.35,1.99,3.53,3.29,2.48,2.73,4.38,5.84,5.21,8.52.63,2.02.6,3.72-.07,4.32ZM128.41,75.78c-2.69,1.66-5.45,3.2-8.27,4.61-1.14.58-2.3,1.12-3.47,1.65-1.11.51-2.23.99-3.35,1.47-.61.26-1.21.53-1.82.77-.69.27-1.38.54-2.07.8-.51.19-1.02.37-1.53.55-.05.02-.1.04-.15.05-.49.17-.98.34-1.47.5-.45.15-.89.3-1.34.44-.8.25-1.59.49-2.4.72,1.01-.44,2.01-.88,3.01-1.32.24-.11.48-.21.72-.32.39-.17.78-.34,1.16-.52.1-.05.2-.09.3-.14.38-.17.75-.34,1.13-.51.76-.34,1.53-.68,2.29-1.03,0,0,0,0,.01,0,1.05-.48,2.09-.97,3.12-1.47,1.79-.85,3.57-1.71,5.34-2.6,2.8-1.41,5.58-2.87,8.33-4.39,2.75-1.51,5.48-3.08,8.22-4.64-2.49,1.93-5.11,3.7-7.8,5.36Z" fill="#f8df8d" stroke-width="0"/>
    </g>
    <g>
      <path d="M193.16,57.24c-.52-.39-2.09.67-2.3.82-1.37,1.01-2.9,1.83-4.38,2.62-1.55.83-3.14,1.68-4.59,2.76-1.01.75-1.82,1.47-2.51,2.19,1.21-4.35,2-9,2.2-13.45.7-1.31,1.88-2.06,3.13-2.86.34-.21.68-.43,1.01-.66,1.46-1,2.53-2.1,3.38-3.45,1.1-1.76,1.82-3.82,2.4-5.47.72-2.07,1.48-4.43,1.31-6.27-.03-.29-.04-.63-.12-.66-.33-.15-.84.31-1.2.57-.08.05-.15.11-.22.15l-.64.41c-2.58,1.64-5.25,3.33-7.1,6.02-1.09,1.58-1.67,3.38-2.09,4.93,0,.02-.01.05-.02.07-.32-4.13-1.05-8.07-2.17-11.75-.05-.15-.11-.3-.16-.45.34-1.07.87-2.07,1.43-3.11.77-1.42,1.56-2.88,1.8-4.57.31-2.12-.03-4.23-.36-6.28-.25-1.55-.5-3.15-.46-4.71.02-.69.07-1.41-.25-1.54-.07-.03-.42.22-.65.46-2.36,2.5-4.1,5.84-4.66,8.93-.18,1.01-.13,2.18-.01,3.31-1.01-2.17-2.03-4.39-2.74-6.66,2.43-4.66.19-9.22-1.98-13.62-.5-1.02-.96-2-1.4-2.96-.61-1.34-1.33-2.28-1.36-1.94l-.29,1.58c-.31,3.12-1.07,6.58-.68,9.51.27,1.99.98,4.45,2.22,6.03l-.86.25c-6.54,1.86-13.25,2.8-19.95,2.8-.19,0-.38,0-.57,0-1.29-.01-2.58-.06-3.87-.14-3.05-.19-6.11-.57-9.19-1.14-5.24-.96-10.52-2.45-15.83-4.49-.51-.2-1.01-.4-1.52-.6-2.27-.92-4.54-1.93-6.82-3.04-.85-.42-1.7-.85-2.55-1.29l-1.5-.78-1.5.78c-13.62,7.11-27.2,10.72-40.36,10.72-.67,0-1.33-.02-2-.03-.17,0-.34,0-.51,0-.84-.03-1.67-.07-2.5-.13,0,0,0,0,0,0-.73-.05-1.45-.12-2.18-.19-.11-.01-.22-.02-.33-.03-.42-.04-.83-.1-1.24-.15-3.76-.46-7.49-1.2-11.17-2.25l-1.34-.38c1.19-1.58,1.9-3.97,2.17-5.9.41-2.94-.32-6.39-.62-9.52l-.28-1.58c-.03-.34-.76.59-1.38,1.93-.44.96-.91,1.93-1.42,2.95-2.2,4.39-4.47,8.93-2.07,13.61-.73,2.26-1.76,4.48-2.78,6.64.12-1.13.19-2.3.01-3.31-.53-3.09-2.25-6.44-4.6-8.96-.23-.24-.58-.49-.65-.47-.32.13-.27.85-.26,1.54.03,1.56-.24,3.16-.49,4.7-.34,2.04-.69,4.16-.4,6.28.23,1.69,1.02,3.16,1.77,4.58.56,1.05,1.08,2.05,1.41,3.12-.05.15-.11.3-.16.45-1.15,3.67-1.9,7.6-2.25,11.73,0-.02-.01-.05-.02-.07-.41-1.55-.98-3.35-2.06-4.94-1.83-2.7-4.49-4.41-7.06-6.06l-.64-.41c-.07-.04-.14-.1-.21-.15-.36-.26-.87-.73-1.19-.58-.08.04-.09.37-.12.66-.18,1.83.56,4.2,1.27,6.27.57,1.66,1.27,3.72,2.36,5.49.84,1.36,1.91,2.46,3.36,3.47.33.23.67.45,1.01.66,1.25.8,2.42,1.56,3.11,2.88.17,4.45.93,9.11,2.11,13.46-.69-.73-1.5-1.45-2.5-2.21-1.44-1.09-3.03-1.95-4.57-2.79-1.48-.8-3-1.63-4.36-2.65-.2-.15-1.77-1.23-2.29-.84-.15.11-.07.69.04.98,1.94,5.28,7.45,14.85,14.84,14.93.64,0,1.14.11,1.54.23,1.3,2.95,2.81,5.51,4.44,7.43,0,.8.01,1.6.01,2.39,0,1.09-.02,2.18-.03,3.25,0,.76-.02,1.52-.02,2.29,0,.76,0,1.53,0,2.3,0,.77,0,1.54.02,2.32.07,3.88.33,7.84,1.08,11.84.99,5.26,3.25,10.78,6.33,15.78-1.16-.55-2.35-1.08-3.45-1.64l-1.4-.57c-.28-.14.09.9.85,2.06.54.83,1.08,1.69,1.64,2.6,2.39,3.94,4.86,8.01,9.78,8.44,1.43,1.71,2.68,3.64,3.89,5.53-.84-.66-1.73-1.3-2.63-1.66-2.72-1.12-6.24-1.43-9.41-.82-.31.06-.68.21-.69.28-.06.32.54.64,1.09.98,1.25.76,2.39,1.77,3.49,2.74,1.45,1.29,2.96,2.62,4.79,3.45,1.46.66,3.02.77,4.52.88,1.11.08,2.17.17,3.19.44.1.12.18.24.28.35,2.34,2.75,5.09,5.3,8.19,7.65-.02,0-.05-.01-.07-.02-1.44-.45-3.15-.9-4.95-.83-3.05.11-5.74,1.36-8.34,2.57l-.65.3c-.07.03-.14.06-.23.09-.38.15-1.01.33-1.06.66-.01.08.25.26.46.43,1.36,1.06,3.61,1.65,5.62,2.13,1.6.38,3.59.85,5.54.86,1.5.01,2.9-.29,4.43-.94.35-.15.69-.31,1.03-.47,1.26-.59,2.44-1.14,3.83-1.04,3.62,2.09,7.7,3.82,11.75,5.05-.92.18-1.9.47-3,.88-1.59.6-3.07,1.43-4.5,2.24-1.37.77-2.79,1.57-4.28,2.15-.22.09-1.86.79-1.81,1.4.01.17.52.4.8.46,5.16,1.1,15.51,1.51,19.27-4.32.33-.51.65-.85.95-1.1,2.48.36,4.82.48,6.88.32.19.19.4.37.59.56l2.31,2.38,2.31-2.38c.19-.2.4-.38.6-.57,2.08.17,4.44.06,6.95-.31.3.25.63.6.95,1.1,3.76,5.83,14.11,5.42,19.27,4.32.28-.06.78-.29.8-.46.05-.61-1.59-1.32-1.81-1.4-1.49-.58-2.91-1.37-4.28-2.15-1.43-.81-2.92-1.64-4.5-2.24-1.1-.42-2.08-.7-3-.88,4.05-1.23,8.13-2.96,11.75-5.05,1.39-.11,2.58.45,3.83,1.04.34.16.68.32,1.03.47,1.53.65,2.94.95,4.43.94,1.95-.01,3.94-.49,5.54-.86,2-.47,4.25-1.07,5.62-2.13.22-.17.47-.35.46-.43-.05-.33-.67-.5-1.06-.66-.08-.03-.16-.06-.23-.09l-.65-.3c-2.6-1.21-5.29-2.47-8.34-2.57-1.8-.06-3.51.39-4.95.83-.02,0-.05.01-.07.02,3.11-2.34,5.86-4.9,8.19-7.65.1-.11.19-.24.28-.35,1.02-.27,2.08-.36,3.19-.44,1.51-.11,3.07-.22,4.52-.88,1.83-.83,3.33-2.16,4.79-3.45,1.1-.97,2.23-1.98,3.49-2.74.55-.33,1.15-.65,1.09-.98-.01-.07-.39-.22-.69-.28-3.17-.61-6.69-.3-9.41.82-.89.37-1.79,1-2.63,1.66,1.2-1.89,2.45-3.82,3.89-5.53,4.91-.43,7.38-4.5,9.78-8.44.56-.92,1.09-1.77,1.64-2.6.76-1.16,1.13-2.2.85-2.06l-1.4.57c-1.13.57-2.36,1.12-3.56,1.69,3.1-5.01,5.37-10.56,6.36-15.83.9-4.81,1.1-9.54,1.11-14.16,0-1.54-.01-3.07-.03-4.59-.01-1.07-.02-2.16-.03-3.25,0-1.09,0-2.19.02-3.29,0-.1,0-.2,0-.29,1.27-1.72,2.45-3.82,3.51-6.17.4-.12.9-.22,1.54-.22,7.39-.04,12.96-9.57,14.93-14.84.11-.29.19-.87.05-.98ZM33.67,45.03c.33-.78,1.1-1.53,1.65-2.07l.15-.14c.65-.64,1.47-1.11,2.32-1.58.43-.24.88-.46,1.32-.68.6-.3,1.2-.61,1.8-.96-.03,3.18-.05,6.26-.06,9.23-.7.71-1.44,1.37-2.17,2.01-1.87,1.64-3.78,3.31-4.83,5.88-.45-3.84-.5-7.77-.16-11.68ZM114.62,19.66c6.87,2.85,13.73,4.85,20.53,6.01.26.04.52.1.78.14.75.12,1.5.23,2.25.33.12.02.24.04.36.05,2.39.31,4.77.5,7.15.6.21,0,.42.02.63.03.48.02.96.02,1.44.02.38,0,.76.02,1.14.02h0c5.87,0,11.75-.66,17.53-1.97.29,22.8.33,41.21.12,54.76-.02,1.14-.02,2.27-.02,3.39,0,1.12.02,2.23.03,3.32.01,1.44.03,2.89.03,4.34,0,4.37-.18,8.79-.99,13.13-.43,2.31-1.18,4.71-2.17,7.1-.4.95-.83,1.91-1.3,2.85-.47.94-.97,1.87-1.51,2.78-1.07,1.83-2.27,3.58-3.56,5.2-.97,1.22-1.99,2.36-3.05,3.41-1.78,1.76-3.65,3.36-5.59,4.85-5.81,4.46-12.22,7.85-18.46,11.16-8.2,4.34-15.99,8.47-22.91,14.81-.86-.79-1.74-1.55-2.63-2.28-1.78-1.45-3.62-2.79-5.49-4.05-1.88-1.25-3.8-2.43-5.75-3.56s-3.95-2.22-5.97-3.3c-1.01-.54-2.03-1.08-3.05-1.62-8.33-4.41-16.93-8.97-24.05-16.01-5.65-5.58-10.19-13.96-11.58-21.34-.41-2.16-.65-4.35-.8-6.54-.1-1.46-.15-2.93-.18-4.39-.01-.73-.02-1.46-.02-2.19,0-.73,0-1.45,0-2.18,0-.72.01-1.44.02-2.16v-.09c.02-2.16.05-4.38.01-6.63-.21-13.58-.16-31.99.12-54.76,5.78,1.31,11.65,1.97,17.52,1.97,13.73,0,27.8-3.59,41.86-10.67,1.08.54,2.16,1.06,3.25,1.57,1.45.67,2.89,1.31,4.34,1.91ZM173.17,40.04c.36.19.72.38,1.08.57.44.23.88.45,1.31.69.85.47,1.66.95,2.31,1.59l.15.14c.54.54,1.31,1.3,1.63,2.08.32,3.91.24,7.85-.23,11.68-1.04-2.57-2.94-4.26-4.8-5.91-.46-.41-.93-.83-1.39-1.26-.01-3.08-.04-6.28-.06-9.59ZM177.63,34c.56,1.93,1,3.9,1.35,5.88-.02-.03-.04-.05-.05-.08-.51-.87-.84-1.82-1.18-2.81-.35-.99-.7-2.02-1.25-2.96-.84-1.44-2.08-2.59-3.42-3.64-.03-2.98-.07-6.04-.11-9.18,1.34,3.31,3.6,9.08,4.67,12.8ZM41.12,19.69v.84c-.05,3.19-.09,6.29-.13,9.31-1.59,1.17-3.11,2.44-4.1,4.11-.56.94-.92,1.96-1.27,2.95-.35,1-.69,1.94-1.2,2.81-.02.03-.04.05-.05.08.36-1.98.82-3.95,1.39-5.87,1.29-4.35,4.22-11.51,5.36-14.23ZM36.22,67.46c-.56-1.63-1.02-3.3-1.41-5.01.11.02.21.04.31.05.08,0,.16.01.24.01,1.89.01,4.14-1.72,5.44-3.18,0,7.3.04,13.81.12,19.51-1.05-2.2-2.89-6.12-4.7-11.38ZM65.67,142.99c-3.17-3.6-8.13-10.64-9.09-12.04.11.1.22.21.33.32,1,.92,2.01,1.8,3.04,2.64,1.54,1.26,3.12,2.44,4.71,3.54.16.11.31.21.47.32.16,1.51.45,3,1.13,4.33.47.91,1.1,1.71,1.71,2.49.61.78,1.2,1.51,1.63,2.36.01.03.03.06.04.09-1.4-1.28-2.73-2.62-3.97-4.04ZM73.45,150.2c-.45-.65-.67-1.64-.82-2.34l-.04-.19c-.18-.84-.15-1.72-.09-2.63.03-.46.07-.93.11-1.39.04-.39.07-.78.1-1.17.03.02.06.03.09.05,1.65.94,3.3,1.84,4.95,2.72.78.42,1.55.83,2.33,1.24.2.89.35,1.77.49,2.65.37,2.3.74,4.66,2.25,6.77-3.27-1.56-6.42-3.48-9.36-5.71ZM92.54,159.37c-1.57-.37-3.13-.84-4.68-1.38.07-.07.14-.15.19-.22.05-.06.09-.12.13-.18,1.13-1.77.57-5.18-.1-6.78,3.97,2.22,7.78,4.56,11.31,7.33,1.22.96,2.4,1.99,3.55,3.07-2.37-.29-5.99-.8-10.4-1.84ZM121.59,159.37c-4.46,1.05-8.12,1.56-10.48,1.85.28-.26.55-.54.84-.8,4.3-3.83,9.08-6.84,14.13-9.67-.69,1.58-1.27,5.04-.12,6.83.04.06.08.12.13.18.06.07.12.15.19.22-1.55.54-3.11,1.01-4.68,1.38ZM133.58,149.13c.14-.89.29-1.79.5-2.69,1.84-.98,3.69-1.96,5.54-2.99.6-.33,1.2-.67,1.8-1.02.03.41.06.82.1,1.22.04.46.09.93.11,1.39.06.91.09,1.79-.09,2.63l-.04.19c-.15.7-.37,1.69-.82,2.34-2.93,2.23-6.08,4.15-9.36,5.71,1.51-2.12,1.89-4.47,2.25-6.77ZM148.46,142.99c-1.24,1.41-2.58,2.76-3.97,4.04.01-.03.02-.06.04-.09.43-.84,1.02-1.58,1.63-2.36.61-.77,1.24-1.58,1.71-2.49.69-1.35.98-2.85,1.13-4.38.66-.46,1.33-.92,1.98-1.4,2.29-1.67,4.51-3.5,6.66-5.53,0,0,0,.01,0,.02-.68,1-5.91,8.45-9.19,12.18ZM173.26,60.24c1.3,1.21,3.06,2.35,4.59,2.35.08,0,.16,0,.24,0,.1,0,.2-.02.31-.05-.4,1.7-.88,3.38-1.44,5-1.35,3.86-2.72,7-3.78,9.27.06-4.69.09-9.89.09-15.6,0-.31,0-.64,0-.96Z" fill="#487629" stroke-width="0"/>
      <path d="M120.4,111.77c.41,1.18.82,2.37,1.21,3.56.62,1.87,1.22,3.76,1.79,5.65.57,1.89,1.13,3.8,1.61,5.73-1.09-1.67-2.12-3.36-3.12-5.07-1.01-1.7-1.99-3.42-2.95-5.15-.63-1.14-1.25-2.28-1.86-3.43-2.94.97-6.07,1.52-9.32,1.59v37.7c6.53-5.44,13.64-9.22,21.13-13.19,7.02-3.72,14.24-7.56,20.5-12.87l-20.58-20.18c-2.47,2.3-5.31,4.21-8.41,5.64Z" fill="#487629" stroke-width="0"/>
      <path d="M164.29,86.3c0-.92-.02-1.85-.02-2.79h-25.3c-.09,3.71-.8,7.27-2.05,10.57,1.02.51,2.38,1.2,3,1.51,1.76.89,3.52,1.79,5.26,2.73,1.75.93,3.48,1.89,5.19,2.91-1.95-.41-3.87-.88-5.79-1.38-1.92-.49-3.82-1.02-5.72-1.56-.72-.21-2.29-.61-3.42-.91-1.47,2.85-3.36,5.46-5.59,7.73l20.63,20.23c.65-.58,1.3-1.16,1.92-1.77,5.34-5.28,9.64-13.19,10.95-20.16,1.05-5.56.99-11.39.93-17.03v-.07Z" fill="#487629" stroke-width="0"/>
      <path d="M95.12,116.54c-.89,1.76-1.79,3.52-2.73,5.26-.93,1.74-1.89,3.48-2.91,5.19.41-1.95.88-3.88,1.37-5.79.49-1.92,1.01-3.82,1.56-5.72.36-1.27.74-2.54,1.12-3.8-3.06-1.44-5.86-3.35-8.3-5.63l-20.58,20.25c6.26,5.32,13.48,9.16,20.51,12.88,7.49,3.97,14.6,7.76,21.13,13.19v-37.7c-3.3-.08-6.47-.65-9.44-1.66-.57,1.18-1.14,2.36-1.73,3.53Z" fill="#487629" stroke-width="0"/>
      <path d="M49.78,82.04h25.37c.06-2.72.46-5.36,1.16-7.87-1.06-.5-2.49-1.16-3.36-1.6-1.76-.89-3.52-1.79-5.26-2.73-1.74-.93-3.48-1.89-5.19-2.91,1.95.41,3.88.88,5.79,1.37,1.92.49,3.82,1.01,5.72,1.56,1.05.3,2.35.65,3.43.97,1.4-3.46,3.38-6.62,5.83-9.36L49.85,28.69c-.24,20.99-.27,38.11-.08,50.92.01.82.01,1.62.01,2.43Z" fill="#487629" stroke-width="0"/>
      <path d="M91.59,54.84c-.36-1.04-.71-2.08-1.06-3.13-.62-1.87-1.22-3.76-1.79-5.65-.57-1.89-1.13-3.8-1.62-5.73,1.09,1.67,2.12,3.36,3.12,5.07,1.01,1.7,1.98,3.42,2.94,5.15.51.92,1.02,1.85,1.52,2.77,3.58-1.5,7.49-2.36,11.59-2.46v-31.82c-13.79,6.67-27.62,10.06-41.13,10.06-4.7,0-9.42-.43-14.09-1.25l33.2,32.56c2.15-2.19,4.61-4.07,7.31-5.57Z" fill="#487629" stroke-width="0"/>
      <path d="M107.76,69.12c-.47.41-.97.82-1.47,1.23-2.05,1.7-4.26,3.41-6.66,5.12-.4.29-.8.58-1.22.86-2.8,1.94-5.84,3.85-9.12,5.71-.87.49-1.75.98-2.66,1.47-3.39,1.81-7.04,3.55-10.95,5.19-.32-1.69-.5-3.42-.54-5.19h-25.37c0,.94-.01,1.87-.02,2.78v.12c-.06,5.62-.12,11.45.93,17,1.31,6.96,5.61,14.88,10.95,20.16.62.61,1.27,1.19,1.91,1.76l20.63-20.31c-1.27-1.31-2.44-2.73-3.48-4.24,2.75-.24,5.73-.6,8.93-1.13.83-.14,1.68-.28,2.54-.44,4.38-.81,9.11-1.93,14.12-3.46.49-.15.97-.3,1.47-.45,2.4-.76,4.86-1.62,7.38-2.58.5-.19,1-.38,1.51-.58,5.8-2.28,11.87-5.13,18.13-8.64.85-.48,1.7-.96,2.55-1.47.54-.32,1.08-.65,1.62-.97.02.32.02.65.03.97h25.3c0-.81,0-1.61.01-2.43.2-12.83.17-30.08-.08-51.3l-18.93,18.63c-.39-.32-.77-.62-1.16-.91l18.4-18.12c-4.52.77-9.08,1.18-13.63,1.18-13.5,0-27.33-3.39-41.12-10.06v31.81c3.08.07,6.05.56,8.85,1.44.49-.94,1.28-2.37,1.63-3.07.89-1.76,1.79-3.52,2.73-5.26.93-1.75,1.89-3.48,2.91-5.19-.41,1.95-.88,3.87-1.38,5.79-.49,1.92-1.02,3.82-1.56,5.72-.23.82-.69,2.25-1.01,3.28.6.27,1.19.55,1.77.85-3.18,4.18-7.73,9.35-13.96,14.72ZM124.51,56.03c3.13-4.13,4.94-7.25,5.67-8.61.1-.26.22-.5.37-.71,0,0,.02-.04.02-.04h0c.15-.21.31-.41.51-.58.72-.65,1.69-.96,2.83-.96,2.2,0,5.02,1.16,7.88,3.21.39.28.78.58,1.18.9,1.21.98,2.42,2.11,3.57,3.38,5.64,6.23,7.87,13.4,4.98,16.02-4.37,3.32-8.7,6.27-12.95,8.89-2.64,1.63-5.26,3.13-7.84,4.52-.94.5-1.87.99-2.79,1.47-4.75,2.42-9.37,4.45-13.82,6.15-.51.19-1.01.38-1.51.57-1.64.6-3.25,1.16-4.83,1.68-.49.16-.98.31-1.47.47-3.43,1.07-6.74,1.95-9.88,2.67-.9.21-1.79.39-2.67.57-5.55,1.13-10.56,1.76-14.9,2.07-11.05.8-17.74-.42-17.74-.42,5.51-1.6,10.61-3.42,15.36-5.4,6.17-2.57,11.71-5.39,16.68-8.35.81-.49,1.61-.97,2.39-1.47,1.81-1.14,3.56-2.28,5.2-3.44.41-.29.8-.58,1.21-.87,1.51-1.09,2.97-2.18,4.35-3.27.5-.4.98-.8,1.47-1.2,7.65-6.29,13.1-12.43,16.74-17.23Z" fill="#487629" stroke-width="0"/>
      <path d="M107.46,85.19c-.39.17-.77.35-1.16.52-.24.11-.48.21-.72.32-1,.44-2.01.88-3.01,1.32.8-.22,1.6-.47,2.4-.72.45-.14.89-.29,1.34-.44.49-.16.98-.33,1.47-.5.05-.02.1-.04.15-.05.51-.18,1.02-.36,1.53-.55.69-.26,1.38-.53,2.07-.8.61-.24,1.21-.52,1.82-.77,1.12-.47,2.24-.96,3.35-1.47,1.16-.54,2.32-1.08,3.47-1.65,2.82-1.42,5.58-2.96,8.27-4.61,2.68-1.66,5.3-3.43,7.8-5.36-2.74,1.56-5.46,3.13-8.22,4.64-2.75,1.51-5.53,2.98-8.33,4.39-1.77.89-3.55,1.75-5.34,2.6-1.04.49-2.08.99-3.12,1.47,0,0,0,0-.01,0-.76.35-1.53.69-2.29,1.03-.38.17-.75.34-1.13.51-.1.05-.2.09-.3.14Z" fill="#487629" stroke-width="0"/>
      <path d="M134.2,55.8c.25.43.51.85.79,1.28.79,1.2,1.71,2.39,2.73,3.52,4.2,4.64,8.63,6.75,10.96,6.75.57,0,.98-.12,1.26-.35.01-.01.04-.02.05-.03.67-.61.7-2.31.07-4.32-.83-2.68-2.73-5.79-5.21-8.52-1.18-1.3-2.37-2.38-3.53-3.29-.4-.31-.8-.62-1.18-.89-2.52-1.74-4.79-2.57-6.25-2.57-.6,0-1.04.13-1.32.38-.17.15-.29.37-.38.64-.27.83-.17,2.17.3,3.69.37,1.18.95,2.44,1.69,3.72Z" fill="#487629" stroke-width="0"/>
    </g>
  </g>
  <g>
    <path d="M6.45,192.7v4.72c0,2.64.85,3.49,2.68,3.68v.19H.25v-.19c1.45-.09,2.3-1.2,2.3-2.99v-15.96c0-1.79-.85-2.89-2.3-2.99v-.19h9.32c5.41,0,8.22,2.11,8.22,6.51s-4.12,7.21-10.04,7.21h-1.29ZM9,179.73c-1.7,0-2.55.82-2.55,2.27v9.85h1.29c4,0,5.92-1.95,5.92-5.98,0-3.49-1.7-6.14-4.66-6.14Z" fill="#487629" stroke="#487629" stroke-miterlimit="10" stroke-width=".5"/>
    <path d="M20.45,200.44l-.69-7.08h.03c1.16,2.52,2.3,4.31,3.46,5.41,1.42,1.35,3.02,2.01,4.91,2.01,2.86,0,4.6-1.48,4.6-3.93s-1.6-3.84-6.23-5.48c-4.66-1.67-6.42-3.46-6.42-6.51,0-3.71,3.12-6.23,7.71-6.23,1.95,0,4.15.35,5.6.85l.69,6.39h-.03c-1.04-2.36-2.05-3.93-3.18-4.97-1.13-1.04-2.39-1.51-4.09-1.51-2.49,0-4.25,1.45-4.25,3.53s1.35,3.27,5.85,4.97c5.07,1.89,6.8,3.62,6.8,6.86,0,4-3.24,6.8-7.8,6.8-2.83,0-5.16-.38-6.96-1.1Z" fill="#487629" stroke="#487629" stroke-miterlimit="10" stroke-width=".5"/>
    <path d="M36.76,201.29v-.19c2.11-.09,2.93-1.26,2.93-2.99v-14.1c0-1.92-.69-2.99-2.64-2.99v-.19l5.7-2.2h.47v19.48c0,1.73.85,2.9,2.96,2.99v.19h-9.41Z" fill="#487629" stroke="#487629" stroke-miterlimit="10" stroke-width=".5"/>
    <path d="M48.05,201.29v-.19c2.11-.09,2.93-1.26,2.93-2.99v-14.1c0-1.92-.69-2.99-2.64-2.99v-.19l5.7-2.2h.47v19.48c0,1.73.85,2.9,2.96,2.99v.19h-9.41Z" fill="#487629" stroke="#487629" stroke-miterlimit="10" stroke-width=".5"/>
    <path d="M74.37,194.96l-1.29,6.29-13.53.03v-.32l6.17-6.83c2.86-3.3,3.4-5.19,3.4-8.06,0-3.34-2.05-6.11-4.69-6.11-1.7,0-2.77.85-2.77,2.17,0,1.04.28,1.73,1.01,2.49-.25.63-1.01,1.07-1.86,1.07-.94,0-1.7-.66-1.7-1.83,0-2.33,4.12-5.26,7.74-5.26s5.98,1.86,5.98,5.48c0,2.33-.57,3.87-6.17,10.1l-3.87,4.19h5.48c3.84,0,4.88-.63,5.95-3.43h.16Z" fill="#487629" stroke="#487629" stroke-miterlimit="10" stroke-width=".5"/>
    <path d="M84.22,190.4c0-6.55,4.56-11.74,11.14-11.74,2.42,0,4.53.41,6.26,1.1l.69,6.74h-.03c-1.1-2.39-2.42-4.12-3.65-5.19-1.51-1.29-2.96-1.79-4.6-1.79-3.9,0-6.96,3.08-6.96,8.37,0,6.36,4.06,10.89,9.38,10.89,2.83,0,5.76-1.23,6.83-4.5l.13.03c-1.13,5.16-4.91,7.24-8.97,7.24-5.57,0-10.23-3.59-10.23-11.14Z" fill="#487629" stroke="#487629" stroke-miterlimit="10" stroke-width=".5"/>
    <path d="M122.08,198.11c.69,1.64,1.26,2.8,2.68,2.99v.19h-8.66v-.19c1.45-.16,2.17-.69,2.17-1.76,0-.53-.16-1.07-.41-1.7l-1.29-3.18h-8.69l-1.01,2.68c-.25.66-.38,1.29-.38,1.83,0,1.29.66,1.86,2.14,2.14v.19h-5.89v-.19c1.48-.41,2.52-2.27,3.3-4.28l6.96-18.07h.88l8.18,19.36ZM108.23,193.61h7.99l-4.15-10.1-3.84,10.1Z" fill="#487629" stroke="#487629" stroke-miterlimit="10" stroke-width=".5"/>
    <path d="M132.46,192.7v4.72c0,2.64.85,3.49,2.68,3.68v.19h-8.88v-.19c1.45-.09,2.3-1.2,2.3-2.99v-15.96c0-1.79-.85-2.89-2.3-2.99v-.19h9.32c5.41,0,8.22,2.11,8.22,6.51s-4.12,7.21-10.04,7.21h-1.29ZM135.01,179.73c-1.7,0-2.55.82-2.55,2.27v9.85h1.29c4,0,5.92-1.95,5.92-5.98,0-3.49-1.7-6.14-4.66-6.14Z" fill="#487629" stroke="#487629" stroke-miterlimit="10" stroke-width=".5"/>
    <path d="M144.72,201.29v-.19c1.48-.09,2.3-1.26,2.3-2.99v-15.96c0-1.73-.85-2.89-2.33-2.99v-.19h8.53v.19c-1.48.09-2.3,1.26-2.3,2.99v15.96c0,1.73.85,2.9,2.33,2.99v.19h-8.53Z" fill="#487629" stroke="#487629" stroke-miterlimit="10" stroke-width=".5"/>
    <path d="M174.09,186.4h-.16c-.53-2.17-1.57-3.84-2.71-5.07-.72-.79-1.86-1.6-3.08-1.6-1.07,0-1.57.6-1.57,1.92v16.46c0,1.79.66,2.9,2.3,2.99v.19h-8.5v-.19c1.45-.09,2.3-1.2,2.3-2.99v-16.46c0-1.32-.5-1.92-1.64-1.92-1.45,0-2.71.88-3.49,1.79-1.04,1.2-1.89,2.71-2.52,4.88h-.16l.79-7.43h17.66l.79,7.43Z" fill="#487629" stroke="#487629" stroke-miterlimit="10" stroke-width=".5"/>
    <path d="M191.9,198.11c.69,1.64,1.26,2.8,2.68,2.99v.19h-8.66v-.19c1.45-.16,2.17-.69,2.17-1.76,0-.53-.16-1.07-.41-1.7l-1.29-3.18h-8.69l-1.01,2.68c-.25.66-.38,1.29-.38,1.83,0,1.29.66,1.86,2.14,2.14v.19h-5.89v-.19c1.48-.41,2.52-2.27,3.3-4.28l6.96-18.07h.88l8.18,19.36ZM178.05,193.61h7.99l-4.15-10.1-3.84,10.1Z" fill="#487629" stroke="#487629" stroke-miterlimit="10" stroke-width=".5"/>
    <path d="M212.98,193.2l-1.26,8.09h-15.64v-.19c1.45-.09,2.3-1.2,2.3-2.99v-15.96c0-1.76-.88-2.89-2.33-2.99v-.19h8.53v.19c-1.45.09-2.3,1.2-2.3,2.99v16.18c0,1.67.72,2.2,2.77,2.2h.63c1.23,0,3.4-.94,4.6-2.36.97-1.16,1.89-2.45,2.55-4.97h.16Z" fill="#487629" stroke="#487629" stroke-miterlimit="10" stroke-width=".5"/>
  </g>
</svg>