<?xml version="1.0" encoding="utf-8"?>
<!-- Generator: Adobe Illustrator 19.1.0, SVG Export Plug-In . SVG Version: 6.00 Build 0)  -->
<svg version="1.1" xmlns="http://www.w3.org/2000/svg" xmlns:xlink="http://www.w3.org/1999/xlink" x="0px" y="0px"
	 viewBox="0 0 173.3 173.3" style="enable-background:new 0 0 173.3 173.3;" xml:space="preserve">
<style type="text/css">
	.Arched_x0020_Green{fill:url(#SVGID_1_);stroke:#FFFFFF;stroke-width:0.25;stroke-miterlimit:1;}
	.st0{display:none;}
	.st1{display:inline;fill:#5D5E5E;}
	.st2{fill:#FFFFFF;}
	.st3{fill:#9CC5CA;}
</style>
<linearGradient id="SVGID_1_" gradientUnits="userSpaceOnUse" x1="-522.8975" y1="687.6997" x2="-522.1904" y2="686.9926">
	<stop  offset="0" style="stop-color:#20AC4B"/>
	<stop  offset="0.9831" style="stop-color:#19361A"/>
</linearGradient>
<g id="DO_NOT_PRINT" class="st0">
	<rect x="-9.9" y="-8.3" class="st1" width="189.5" height="190"/>
</g>
<g id="PRINT">
	<path class="st2" d="M51.8,136.1c-0.5,0-1,0.5-1,1v11.9c0,0.6,0.4,1,1,1s1-0.5,1-1v-11.9C52.8,136.6,52.3,136.1,51.8,136.1z"/>
	<path class="st2" d="M62.1,138.1c1.4,0,2.5,0.6,3.4,1.5c0.4,0.4,1,0.4,1.4,0c0.4-0.4,0.4-1,0-1.5c-1.2-1.3-2.9-2.2-4.7-2.2
		c-3.6,0-6.6,3.2-6.6,7.1c0,3.9,2.9,7.1,6.6,7.1c1.9,0,3.6-0.9,4.8-2.2c0.2-0.2,0.3-0.4,0.3-0.7v-3.1c0-0.6-0.4-1-1-1
		c-0.5,0-1,0.5-1,1v2.7c-0.8,0.8-1.9,1.2-3.1,1.2c-2.7,0-4.6-2.3-4.6-5C57.5,140.4,59.4,138.1,62.1,138.1z"/>
	<path class="st2" d="M75.5,116c1.7-0.3,3.5-1.5,5.6-3.4c5.1-4.5,10.1-11.5,10.5-13.4c0-0.5-0.1-0.8-0.4-0.8c-0.2,0-0.6,0.1-0.9,0.6
		c-3.6,4.5-11.5,11.5-15.8,11.9c-2,0-2.9-1.9-2.9-3.7c0-4.5,3.4-10.7,6.4-14.5c5.2-6.7,12.2-12.5,17.1-14c0,3.8-8,13.6-13.8,15.3
		c-0.5,0.1-2.1,0-2.1,0.8c0,0.5,0.8,1.1,3.1,1.1c5.9,0,17.2-7.5,17.2-14.5C99.1,79,95,72,92.7,72c-0.6,0-1.7,0.1-3,0.8
		c-9.5,4.8-22.6,19.6-22.6,31.6C67.1,109.2,71.1,116,75.5,116z"/>
	<path class="st2" d="M83.3,136.1c-0.5,0-1,0.5-1,1v9.4L72,136.6c-0.4-0.4-0.6-0.5-1-0.5c-0.5,0-1,0.5-1,1v11.9c0,0.6,0.4,1,1,1
		s1-0.5,1-1v-9.4l10.2,9.9c0.4,0.4,0.6,0.5,1,0.5c0.5,0,1-0.5,1-1v-11.9C84.2,136.6,83.8,136.1,83.3,136.1z"/>
	<path class="st2" d="M104.4,79.4c1.1-0.4,6.2-4.4,6.2-4.4c-6.7,10.2-12,20.2-16.9,29.4c-0.8,1.6-1.1,3.5-1.1,5.3
		c0.1,2,1.8,5.2,3.1,5.2c1.3,0,1-1.1,1.5-2.3c1.9-4.8,4-8.3,7-12.1c6.2-8.1,12.8-14.7,18.5-19.8c0,0-6.7,12-10.3,20.2
		c-1.3,2.8-1.8,4.7-1.8,5.9c0,1.9,1.8,4.2,3.1,4.2c0.5,0,1-0.4,1.5-1c1.3-1.9,2.5-4.3,3.9-5.9c3.1-4.3,8.6-10.5,12.6-15.2
		c-3.5,6.3-5.5,12.3-5.5,16.4c0,4.5,2.5,8.6,5.7,8.6c0.8,0,2-0.4,2-1.4c0-0.1-0.2-0.3-0.3-0.3c-2.1,0-2.2-3.2-2.2-5.1
		c0.1-4.2,2.6-10.1,5.5-15.2c1.2-2.1,1.7-3,1.7-4.7c0-2-2.6-4.7-4.1-4.7c-0.5,0-1,0.5-13.5,15.2c0,0,4.6-9.4,9.4-16.4
		c0.2-0.5,0.3-1.3,0.3-1.8c0-2.1-2.6-4.9-4.5-4.9c-2.8,0-10.3,8.7-12.4,11c-4.2,4.7-8.2,9.2-9.3,10.4c2.2-3.3,12.7-15.9,12.7-19.6
		c0-2.5-3.1-4.9-4.7-4.9c-1.3,0-8.8,5.7-8.6,7C103.9,78.7,103.9,79.4,104.4,79.4z"/>
	<path class="st2" d="M42.7,139.5c0-0.9,0.5-1.5,1.6-1.5c0.5,0,1.3,0.2,1.9,0.6c0.4,0.3,1,0.2,1.4-0.3c0.4-0.7,0-1.3-0.2-1.5
		c-0.8-0.7-1.8-1-3-1c-2.4,0-3.7,1.6-3.7,3.6c0,4.1,5.5,4,5.5,6.8c0,1-0.7,1.8-1.8,1.8c-0.5,0-1.4-0.1-2-0.8
		c-0.4-0.4-1.1-0.4-1.4,0.1c-0.5,0.7,0,1.4,0.2,1.5c0.8,0.8,1.9,1.2,3.2,1.2c2.3,0,3.8-1.7,3.8-3.9
		C48.2,141.8,42.7,141.9,42.7,139.5z"/>
	<path class="st2" d="M92,139.5c0-0.9,0.5-1.5,1.6-1.5c0.5,0,1.3,0.2,1.9,0.6c0.4,0.3,1,0.2,1.4-0.3c0.4-0.7,0-1.3-0.2-1.5
		c-0.8-0.7-1.8-1-3-1c-2.4,0-3.7,1.6-3.7,3.6c0,4.1,5.5,4,5.5,6.8c0,1-0.7,1.8-1.8,1.8c-0.5,0-1.4-0.1-2-0.8
		c-0.4-0.4-1.1-0.4-1.4,0.1c-0.5,0.7,0,1.4,0.2,1.5c0.8,0.8,1.9,1.2,3.2,1.2c2.3,0,3.8-1.7,3.8-3.9C97.4,141.8,92,141.9,92,139.5z"
		/>
	<path class="st2" d="M22,136.2h-6.1c-0.5,0-1,0.5-1,1V149c0,0.6,0.4,1,1,1H22c3.6,0,6.6-3,6.6-6.9C28.6,139.2,25.6,136.2,22,136.2z
		 M22,147.9h-5.1v-9.6H22c2.7,0,4.6,2.1,4.6,4.8C26.6,145.8,24.7,147.9,22,147.9z"/>
	<path class="st2" d="M37.9,138.3c0.5,0,1-0.5,1-1c0-0.6-0.4-1-1-1h-5.6c-0.5,0-1,0.5-1,1V149c0,0.6,0.4,1,1,1h5.6c0.5,0,1-0.5,1-1
		c0-0.6-0.4-1-1-1h-4.6v-4.2h3.5c0.5,0,1-0.5,1-1c0-0.6-0.4-1-1-1h-3.5v-3.3H37.9z"/>
	<path class="st2" d="M44.9,107.4c4.9-8.1,13-15.8,19.2-23c-1,2.1-1.2,4-1.2,6.1c0,3,1.6,6.1,3.9,6.1c0.1,0,0.3,0,0.5-0.1
		c-0.4-0.6-0.7-1.5-0.7-2.3c0-2.7,1.5-5.3,2.9-7.2c1.4-1.8,2.6-3,2.6-4.2c0-1.9-2.3-4.5-3.6-4.5c-0.4,0-0.7,0.1-1.1,0.6
		c0,0-5.6,4.3-16.4,17.2l9.6-14.7c0.8-1.1,1.4-2,1.7-3.3c0-2.4-2.5-5.1-4.4-5.1c-1.8,0-8.3,5.9-10.5,7.8c0,0-0.8,0.6-0.8,1.3
		c0,0.1,0.3,0.6,0.8,0.6s1-0.6,7.6-5.6c-7,12-10.9,19.6-14.6,26.5c-0.6,1.5-2.1,4.3-2.1,7.3c0,2.7,0.8,4.7,3.1,4.9
		C41.4,113.7,43.2,110.2,44.9,107.4z"/>
	<path class="st2" d="M105.5,136.2h-5.6c-0.5,0-1,0.5-1,1c0,0.6,0.4,1,1,1h1.8v10.8c0,0.6,0.4,1,1,1c0.5,0,1-0.5,1-1v-10.8h1.8
		c0.5,0,1-0.5,1-1C106.4,136.7,106,136.2,105.5,136.2z"/>
	<path class="st2" d="M0,0v173.3h173.3V0H0z M168,168H5.6v-57.6c2.5,3.2,5.9,5.2,9.3,5.2c10.3,0,19.7-12.6,24.7-22
		c0,0,1.1-2.2,1.1-2.9c0-0.4-0.3-0.7-0.5-0.7c-0.6,0-1.5,1.3-1.5,1.3c-5,7.2-16.9,17.6-25,17.6c-5.8,0-8-4.6-8-10.1
		c0-20.4,27.9-49.3,41.9-49.3c1.1,0,2.1,0.3,2.5,1.3c-1.8,5-10.8,13.8-10.8,16.2c0,0.4,0.1,0.5,0.4,0.5c2-0.5,13.7-10.4,15.4-13.3
		c0.1-0.4,0.1-0.5,0.1-0.8c0-1.1-0.6-3.5-1.9-5.1c-2.1-4.6-4.1-7.1-7.2-7.1C31.7,43.1,14,58.7,5.6,75.9V39.3
		c29.6-12.1,122-11.5,162.1,32.4c-0.5-0.3-1.1-0.4-1.7-0.4c-11.5,0-30,22.9-30,37.3v1.1c0.4,2.5,2.4,6.4,4.1,6.4
		c1.4,0,2.9-5.1,10.1-13.3c4.3-4.8,6.3-7,8.5-8.6c0,0-1.8,5.3-1.8,10.4c0,3.4,1.5,9.7,5.8,9.9c0.4,0,0.9-0.1,1-0.4
		c0-1.3-2.6-0.4-2.6-6.2c0-1.4,0.4-3.9,1-6.3c0-0.1,1.8-7.1,4-8.2c0-0.8-2.5-4.4-4.1-4.4c-1.1,0-2.1,0.9-2.9,1.8
		c0,0-12.5,10.4-17.6,17.7c0.2-3.7,3-9.5,5-12.6c5-8.1,14.5-16.7,21-16.7c0.2,0,0.4,0,0.6,0V168z M168,31.1
		C117.3,14,51.9,12.9,5.6,30.6V5.6H168V31.1z"/>
	<path class="st2" d="M142.1,136.1c-0.5,0-1,0.5-1,1v11.9c0,0.6,0.4,1,1,1c0.5,0,1-0.5,1-1v-11.9
		C143.1,136.6,142.7,136.1,142.1,136.1z"/>
	<path class="st2" d="M152.4,136c-3.6,0-6.6,3.2-6.6,7.1c0,3.9,2.9,7.1,6.6,7.1c3.6,0,6.6-3.2,6.6-7.1
		C159,139.2,156.1,136,152.4,136z M152.4,148.1c-2.7,0-4.6-2.3-4.6-5c0-2.7,1.9-5,4.6-5c2.7,0,4.6,2.3,4.6,5
		C157,145.8,155.1,148.1,152.4,148.1z"/>
	<path class="st2" d="M120.6,136.1c-0.5,0-1,0.5-1,1v6c0,2.7-1.9,5-4.6,5c-2.7,0-4.6-2.3-4.6-5v-6c0-0.6-0.4-1-1-1s-1,0.5-1,1v6
		c0,3.9,2.9,7.1,6.6,7.1c3.6,0,6.6-3.2,6.6-7.1v-6C121.5,136.6,121.1,136.1,120.6,136.1z"/>
	<path class="st2" d="M131.8,136.2h-6.1c-0.5,0-1,0.5-1,1V149c0,0.6,0.4,1,1,1h6.1c3.6,0,6.6-3,6.6-6.9
		C138.4,139.2,135.4,136.2,131.8,136.2z M131.8,147.9h-5.1v-9.6h5.1c2.7,0,4.6,2.1,4.6,4.8C136.4,145.8,134.5,147.9,131.8,147.9z"/>
</g>
</svg>
