<svg xmlns="http://www.w3.org/2000/svg" viewBox="0 0 295.48193 162.24396">
  <title>white</title>
  <g>
    <path d="M166.61981,12.90651c3.51367,9.73291-1.12988,19.07715-4.51855,25.56592-5.01953,9.603-12.80078,22.58106-19.57862,32.833,13.93116.12988,20.33155-1.168,28.1128-2.98486V86.14107h15.36383c-.37976-12.90222-.63257-26.05725-.63257-35.54431,9.48706,11.89044,18.5943,26.05725,26.437,35.54431,5.69214,0,10.49884-.37921,25.42462,0-4.17413-4.17413-8.34826-9.36065-12.396-13.7876-7.96912-8.47528-12.90223-15.3056-20.23871-23.907,13.7876-1.64435,21.12408-14.16711,21.37689-24.41284C226.47668,11.8904,217.62225,0,202.82281,0H152.0672C158.09125,1.76479,163.83417,5.38588,166.61981,12.90651Zm19.25305.881a74.99,74.99,0,0,1,10.75165,0c6.83087.50592,9.86627,5.56573,9.86627,10.11938,0,5.18622-2.02356,9.61347-8.22186,11.13147a66.39347,66.39347,0,0,1-12.64941.37946C185.61951,25.425,185.61951,20.49178,185.87286,13.78756Z" fill="#fff"/>
    <path d="M56.50677,86.14107H76.99829c-.1264-13.914-.37952-27.955-.37952-38.57995H100.273c-.1264,12.77551-.759,29.09289-.63257,38.57995h9.77539c18.567-24.93341,29.63117-42.18585,38.37787-61.2951,2.38477-5.06153.62793-9.99317-3.89014-11.29053-5.648-1.55762-15.81347-2.33594-26.73242,8.43506V0H99.64038c.37946,14.42023.25305,23.02161.37946,33.52045H76.49237c.1264-8.72809.25311-23.78058.759-33.52045H56.25366C57.77161,30.10524,57.51855,55.90938,56.50677,86.14107Z" fill="#fff"/>
    <polygon points="11.463 106.456 7.263 112.388 5.213 106.456 1.341 106.456 5.177 115.694 3.937 123.529 7.265 123.529 8.506 115.694 15.358 106.456 11.463 106.456" fill="#fff"/>
    <path d="M18.53906,112.04848a6.827,6.827,0,0,0-6.78174,5.93262c-.54492,3.44238,1.41944,5.91016,4.90625,5.91016a6.80268,6.80268,0,0,0,6.77832-5.91016C23.99023,114.51723,22.00342,112.04848,18.53906,112.04848Zm1.687,5.93262c-.23632,1.49512-1.4873,3.10254-3.11767,3.10254s-2.37207-1.60742-2.13574-3.10254c.24414-1.53906,1.49121-3.125,3.12158-3.125S20.47021,116.442,20.22607,117.9811Z" fill="#fff"/>
    <path d="M28.794,123.89126c3.30566,0,5.25048-1.69825,5.76318-4.93653l1.03613-6.54394H32.42334l-.9541,6.02343c-.20069,1.26856-.64453,2.78516-2.25244,2.78516-1.60742,0-1.57129-1.5166-1.37061-2.78516l.9541-6.02343H25.62988l-1.03613,6.54394C24.08105,122.193,25.48779,123.89126,28.794,123.89126Z" fill="#fff"/>
    <path d="M39.894,118.525c.27246-1.7207.80762-3.66894,3.00391-3.66894a1.97707,1.97707,0,0,1,1.249.4082l.85108-2.94433a3.35157,3.35157,0,0,0-1.27051-.27149,3.808,3.808,0,0,0-3.00293,1.51758h-.04492l.18261-1.15527H37.69238L35.93164,123.529h3.16992Z" fill="#fff"/>
    <path d="M54.06543,123.529l1.3374-8.44629H57.939l.42334-2.67187H55.82617l.44483-2.80762c.14306-.90625.2749-2.74023,1.6792-2.74023a2.512,2.512,0,0,1,1.22949.38476l.44824-2.83008a2.92542,2.92542,0,0,0-1.45947-.3623c-3.05713,0-4.56592,2.37793-4.9961,5.09472l-.5166,3.26075h-1.064l-.42334,2.67187h1.06445l-1.3374,8.44629Z" fill="#fff"/>
    <path d="M62.32178,123.89126a6.80269,6.80269,0,0,0,6.77832-5.91016c.54834-3.46387-1.43848-5.93262-4.90283-5.93262a6.827,6.827,0,0,0-6.78174,5.93262C56.87061,121.42348,58.835,123.89126,62.32178,123.89126Zm-1.69092-5.91016c.24414-1.53906,1.49121-3.125,3.12158-3.125s2.376,1.58594,2.13184,3.125c-.23633,1.49512-1.48731,3.10254-3.11768,3.10254S60.39453,119.47622,60.63086,117.9811Z" fill="#fff"/>
    <path d="M78.73193,112.32a3.35148,3.35148,0,0,0-1.2705-.27149,3.808,3.808,0,0,0-3.00293,1.51758h-.04541l.1831-1.15527H71.42627L69.66553,123.529h3.16992l.79248-5.00391c.27246-1.7207.80762-3.66894,3.00391-3.66894a1.97711,1.97711,0,0,1,1.249.4082Z" fill="#fff"/>
    <path d="M83.7832,114.58462c1.65284,0,1.16553,2.21972.99366,3.30664l-.89307,5.63769H87.0542l.86377-5.457c.1831-1.1543.52978-3.4873,2.251-3.4873,1.562,0,1.17529,2.01562,1.00293,3.10253l-.92481,5.8418H93.417l1.09717-6.92871c.38379-2.42285.019-4.55176-2.81152-4.55176a4.60614,4.60614,0,0,0-3.51416,1.74414,2.93637,2.93637,0,0,0-2.917-1.74414,3.97784,3.97784,0,0,0-2.93212,1.3584H82.294l.15771-.99609H79.28174L77.521,123.529h3.16992l.86426-5.457C81.7417,116.89419,82.01709,114.58462,83.7832,114.58462Z" fill="#fff"/>
    <path d="M100.33447,112.41079H97.16406l-1.03613,6.54394c-.5127,3.23828.894,4.93653,4.20019,4.93653,3.30567,0,5.25049-1.69825,5.76319-4.93653l1.03613-6.54394h-3.16992l-.9541,6.02343c-.20069,1.26856-.64453,2.78516-2.25244,2.78516-1.60743,0-1.57129-1.5166-1.37061-2.78516Z" fill="#fff"/>
    <polygon points="110.502 104.327 107.461 123.529 110.631 123.529 113.672 104.327 110.502 104.327" fill="#fff"/>
    <path d="M123.29053,123.529l1.76074-11.11816h-3.125l-.165,1.042a3.46623,3.46623,0,0,0-2.87988-1.4043c-3.19287,0-5.53467,2.9209-6.001,5.86524-.47705,3.01172.91016,5.97754,4.1709,5.97754a4.53679,4.53679,0,0,0,3.23047-1.38086h.04492l-.16113,1.01855Zm-5.06983-2.44531c-1.63086,0-2.36865-1.62988-2.13232-3.125.23682-1.49414,1.48779-3.10254,3.11816-3.10254s2.395,1.6084,2.15821,3.10254C121.12793,119.45376,119.85059,121.08364,118.2207,121.08364Z" fill="#fff"/>
    <path d="M139.28516,106.86294a2.512,2.512,0,0,1,1.22949.38476l.44824-2.83008a2.92537,2.92537,0,0,0-1.45947-.3623c-3.05713,0-4.56592,2.37793-4.9961,5.09472l-.5166,3.26075h-1.064l-.42334,2.67187h1.06445l-1.3374,8.44629h3.16992l1.3374-8.44629h2.53614l.42334-2.67187h-2.53614l.44483-2.80762C137.749,108.69692,137.88086,106.86294,139.28516,106.86294Z" fill="#fff"/>
    <path d="M145.53174,112.04848a6.82682,6.82682,0,0,0-6.78125,5.93262c-.54492,3.44238,1.41943,5.91016,4.90625,5.91016a6.80135,6.80135,0,0,0,6.77734-5.91016C150.98291,114.51723,148.99658,112.04848,145.53174,112.04848Zm1.6875,5.93262c-.23731,1.49512-1.48828,3.10254-3.11768,3.10254-1.63037,0-2.37207-1.60742-2.13574-3.10254.24414-1.53906,1.49121-3.125,3.12158-3.125C146.71729,114.8561,147.4624,116.442,147.21924,117.9811Z" fill="#fff"/>
    <path d="M155.79346,113.56606h-.0459l.18359-1.15527h-3.1709L150.99951,123.529h3.1709l.792-5.00391c.27246-1.7207.80762-3.66894,3.00391-3.66894a1.97612,1.97612,0,0,1,1.249.4082l.85059-2.94433a3.34652,3.34652,0,0,0-1.26953-.27149A3.80656,3.80656,0,0,0,155.79346,113.56606Z" fill="#fff"/>
    <polygon points="175.429 123.529 178.757 123.529 181.461 106.456 178.132 106.456 177.068 113.181 170.909 113.181 171.973 106.456 168.645 106.456 165.941 123.529 169.27 123.529 170.478 115.898 176.637 115.898 175.429 123.529" fill="#fff"/>
    <path d="M193.49561,111.59536c.57714-3.64551-1.51856-5.13965-4.89258-5.13965h-4.50586l-2.7041,17.07324h3.3291l1.08984-6.88379h.04492l3.05371,6.88379h4.03125l-3.68359-7.20019A5.51285,5.51285,0,0,0,193.49561,111.59536Zm-3.34278.09082c-.33008,2.083-1.707,2.627-3.541,2.627h-.43067l.81446-5.14062h.45214C189.21436,109.17251,190.48584,109.58071,190.15283,111.68618Z" fill="#fff"/>
    <path d="M207.77783,106.45571H203.272l-2.7041,17.07324h3.3291l1.08985-6.88379h.04492l3.05371,6.88379h4.03125l-3.68359-7.20019a5.51284,5.51284,0,0,0,4.2373-4.7334C213.24756,107.94985,211.15186,106.45571,207.77783,106.45571Zm1.54981,5.23047c-.33008,2.083-1.707,2.627-3.541,2.627H205.356l.81445-5.14062h.45215C208.38916,109.17251,209.66064,109.58071,209.32764,111.68618Z" fill="#fff"/>
    <path d="M223.11963,120.42739l-2.8457-.47559a2.82947,2.82947,0,0,1-2.36914,1.5166c-1.65333,0-1.94532-1.585-1.72364-2.98925h7.31446l.06054-.38477c.53125-3.35059-.67285-6.0459-4.31836-6.0459-3.60058,0-5.80859,2.64942-6.34277,6.02344s1.18457,5.81934,4.626,5.81934A6.19735,6.19735,0,0,0,223.11963,120.42739Zm-4.05176-6.15918c1.22266,0,1.77149,1.10937,1.751,2.24121h-4.23438A2.7994,2.7994,0,0,1,219.06787,114.26821Z" fill="#fff"/>
    <path d="M229.45654,114.26821a2.1112,2.1112,0,0,1,1.55371.76953l1.64844-1.834a5.03909,5.03909,0,0,0-3.39453-1.15528,4.15905,4.15905,0,0,0-4.10254,3.60059,2.46727,2.46727,0,0,0,1.75684,2.9209c1.03418.47558,2.10742.70215,1.95312,1.67578a1.449,1.449,0,0,1-1.458,1.20019,2.76687,2.76687,0,0,1-2.15039-1.291l-1.74707,1.87988a4.28663,4.28663,0,0,0,3.62305,1.85645,4.836,4.836,0,0,0,4.94922-3.93946,2.67715,2.67715,0,0,0-1.78125-3.19336c-1.05371-.498-2.17188-.72461-2.043-1.54A1.24375,1.24375,0,0,1,229.45654,114.26821Z" fill="#fff"/>
    <path d="M238.01807,123.89126a6.80135,6.80135,0,0,0,6.77734-5.91016c.54883-3.46387-1.4375-5.93262-4.90234-5.93262a6.82537,6.82537,0,0,0-6.78125,5.93262C232.56592,121.42348,234.53076,123.89126,238.01807,123.89126Zm-1.69141-5.91016c.24414-1.53906,1.49121-3.125,3.12207-3.125,1.62988,0,2.375,1.58594,2.13184,3.125-.23731,1.49512-1.48828,3.10254-3.11817,3.10254C236.83154,121.08364,236.09033,119.47622,236.32666,117.9811Z" fill="#fff"/>
    <path d="M252.82373,118.43422c-.20019,1.26856-.64453,2.78516-2.252,2.78516-1.6084,0-1.57129-1.5166-1.3711-2.78516l.95411-6.02343h-3.16993l-1.03613,6.54394c-.51367,3.23828.89356,4.93653,4.19922,4.93653,3.30664,0,5.251-1.69825,5.76367-4.93653l1.03613-6.54394h-3.16992Z" fill="#fff"/>
    <path d="M261.24854,118.525c.27246-1.7207.80761-3.66894,3.0039-3.66894a1.9761,1.9761,0,0,1,1.249.4082l.85059-2.94433a3.34652,3.34652,0,0,0-1.26953-.27149,3.80658,3.80658,0,0,0-3.00293,1.51758h-.0459l.1836-1.15527h-3.1709L257.28564,123.529h3.1709Z" fill="#fff"/>
    <path d="M265.26514,118.00454c-.50586,3.19238,1.39941,5.88672,4.68359,5.88672a6.14152,6.14152,0,0,0,2.84668-.67872l.48438-3.05761a3.57925,3.57925,0,0,1-2.3877,1.06445c-1.81152,0-2.69141-1.44922-2.415-3.19238.25781-1.63086,1.542-3.30664,3.33106-3.30664a2.62331,2.62331,0,0,1,2.16015,1.08691l.48438-3.05664a4.4128,4.4128,0,0,0-2.47071-.70215A6.99118,6.99118,0,0,0,265.26514,118.00454Z" fill="#fff"/>
    <path d="M285.31982,118.47915l.06055-.38477c.53125-3.35059-.67285-6.0459-4.31836-6.0459-3.60058,0-5.80859,2.64942-6.34277,6.02344s1.18457,5.81934,4.626,5.81934a6.19736,6.19736,0,0,0,5.59864-3.46387l-2.84571-.47559a2.82945,2.82945,0,0,1-2.36914,1.5166c-1.65332,0-1.94531-1.585-1.72363-2.98925Zm-4.42773-4.21094c1.22266,0,1.77148,1.10937,1.751,2.24121h-4.23438A2.7994,2.7994,0,0,1,280.89209,114.26821Z" fill="#fff"/>
    <path d="M292.13232,116.75844c-1.05371-.498-2.17187-.72461-2.043-1.54a1.24373,1.24373,0,0,1,1.19238-.95019,2.11122,2.11122,0,0,1,1.55371.76953l1.64844-1.834a5.03911,5.03911,0,0,0-3.39453-1.15528,4.159,4.159,0,0,0-4.10254,3.60059,2.46727,2.46727,0,0,0,1.75683,2.9209c1.03418.47558,2.10742.70215,1.95313,1.67578a1.449,1.449,0,0,1-1.458,1.20019,2.76687,2.76687,0,0,1-2.15039-1.291l-1.74707,1.87988a4.28662,4.28662,0,0,0,3.623,1.85645,4.836,4.836,0,0,0,4.94921-3.93946A2.67714,2.67714,0,0,0,292.13232,116.75844Z" fill="#fff"/>
    <path d="M28.59229,145.47231a3.57135,3.57135,0,0,0-2.5669-.72949H23.93115v12.49512H24.687v-5.93262h1.33838a3.79561,3.79561,0,0,0,2.64551-.7959,3.592,3.592,0,0,0-.07861-5.03711Zm-.45655,4.4082a2.76752,2.76752,0,0,1-2.07861.67871H24.687v-5.07031h1.24414a3.15981,3.15981,0,0,1,2.07862.49707,2.54272,2.54272,0,0,1,.89746,2.02149A2.51094,2.51094,0,0,1,28.13574,149.88051Z" fill="#fff"/>
    <path d="M33.32617,149.41665a3.99678,3.99678,0,1,0,3.82666,3.99316A3.89125,3.89125,0,0,0,33.32617,149.41665Zm-.04736,7.291a3.30061,3.30061,0,1,1,3.16553-3.28125A3.17508,3.17508,0,0,1,33.27881,156.70766Z" fill="#fff"/>
    <polygon points="45.678 155.862 43.096 149.168 40.529 155.862 37.962 149.582 37.238 149.582 40.513 157.652 43.064 151.04 45.631 157.652 48.922 149.582 48.198 149.582 45.678 155.862" fill="#fff"/>
    <path d="M52.56641,149.41665a3.69274,3.69274,0,0,0-3.52735,3.97656c0,2.1709,1.37012,4.00976,3.52735,4.00976a3.5303,3.5303,0,0,0,3.25976-2.07128l-.59863-.36426a2.86682,2.86682,0,0,1-5.48-1.49121H56.0625C56.07812,151.27212,54.771,149.41665,52.56641,149.41665Zm.01562.69531a2.91532,2.91532,0,0,1,2.77149,2.668h-5.606A2.92476,2.92476,0,0,1,52.582,150.112Z" fill="#fff"/>
    <path d="M59.7334,149.41665a1.66,1.66,0,0,0-1.57471,1.15918H58.127v-.99414h-.70849v7.65625H58.127V153.3268c0-1.12695-.09424-3.21484,1.4961-3.21484a.93853.93853,0,0,1,.5039.14941l.37793-.66308A1.76341,1.76341,0,0,0,59.7334,149.41665Z" fill="#fff"/>
    <path d="M63.94141,149.41665a3.69274,3.69274,0,0,0-3.52735,3.97656c0,2.1709,1.37012,4.00976,3.52735,4.00976a3.5303,3.5303,0,0,0,3.25976-2.07128l-.59863-.36426a2.86682,2.86682,0,0,1-5.48-1.49121H67.4375C67.45312,151.27212,66.146,149.41665,63.94141,149.41665Zm.01562.69531a2.91532,2.91532,0,0,1,2.77149,2.668h-5.606A2.92476,2.92476,0,0,1,63.957,150.112Z" fill="#fff"/>
    <path d="M74.665,150.90786h-.03125a3.30045,3.30045,0,0,0-2.80274-1.49121c-2.189,0-3.55908,1.70605-3.55908,3.94336s1.38574,4.043,3.59033,4.043a3.214,3.214,0,0,0,2.77149-1.541H74.665v1.376h.709V143.567h-.709Zm-2.81836,5.7998a3.33436,3.33436,0,0,1-.04736-6.5957,2.93685,2.93685,0,0,1,2.91308,3.165C74.7124,155.11684,73.70459,156.70766,71.84668,156.70766Z" fill="#fff"/>
    <path d="M85.90918,149.41665a3.30066,3.30066,0,0,0-2.80322,1.49121h-.03174V143.567h-.7085v13.6709h.7085v-1.376H83.106a3.21461,3.21461,0,0,0,2.77148,1.541c2.20459,0,3.59033-1.80566,3.59033-4.043S88.082,149.41665,85.90918,149.41665Zm-.01611,7.291c-1.79493,0-2.86573-1.541-2.86573-3.33105,0-1.82324,1.05469-3.26465,2.89746-3.26465a3.057,3.057,0,0,1,2.83448,3.248C88.75928,155.11684,87.67285,156.70766,85.89307,156.70766Z" fill="#fff"/>
    <polygon points="93.301 156.508 90.199 149.582 89.459 149.582 92.955 157.371 91.207 161.712 91.932 161.712 96.813 149.582 96.089 149.582 93.301 156.508" fill="#fff"/>
    <polygon points="152.633 157.188 158.79 157.188 158.79 155.895 153.956 155.895 153.956 150.99 158.648 150.99 158.648 149.698 153.956 149.698 153.956 145.986 158.79 145.986 158.79 144.693 152.633 144.693 152.633 157.188" fill="#fff"/>
    <path d="M167.812,149.18422a2.44171,2.44171,0,0,0-2.2207,1.292,2.25667,2.25667,0,0,0-2.04688-1.292,2.0694,2.0694,0,0,0-1.77929,1.06055h-.03223v-.8457h-1.25977v7.78906h1.25977v-4.02734c0-1.17578.1582-2.75,1.63867-2.75,1.21192,0,1.32227,1.3916,1.32227,2.35254v4.4248h1.25976v-4.126c0-1.17675.15723-2.65136,1.60645-2.65136,1.291,0,1.35449,1.24218,1.35449,2.25293v4.52441h1.25977v-4.73926C170.17432,150.80825,169.70166,149.18422,167.812,149.18422Z" fill="#fff"/>
    <path d="M175.99072,149.18422a3.06861,3.06861,0,0,0-2.55078,1.3252h-.03125v-1.11035h-1.25976v12.16406h1.25976v-5.46875h.03125a3.06736,3.06736,0,0,0,2.53516,1.30859c2.2207,0,3.55957-1.87207,3.55957-4.09277C179.53467,151.1559,178.16455,149.18422,175.99072,149.18422Zm-.21972,6.99317c-1.5752,0-2.42481-1.44238-2.42481-2.9668a2.59124,2.59124,0,0,1,2.40918-2.7998,2.5512,2.5512,0,0,1,2.48731,2.8164C178.24268,154.80141,177.39307,156.17739,175.771,156.17739Z" fill="#fff"/>
    <rect x="181.03076" y="143.51723" width="1.25977" height="13.6709" fill="#fff"/>
    <path d="M187.61084,149.18422a4.11558,4.11558,0,1,0,3.88965,4.126A3.99188,3.99188,0,0,0,187.61084,149.18422Zm0,6.99317a2.89551,2.89551,0,1,1,2.62988-2.88379A2.6995,2.6995,0,0,1,187.61084,156.17739Z" fill="#fff"/>
    <polygon points="195.569 154.984 192.955 149.399 191.491 149.399 194.892 156.459 192.499 161.563 193.931 161.563 199.395 149.399 197.962 149.399 195.569 154.984" fill="#fff"/>
    <path d="M203.03955,149.18422c-2.31543,0-3.59082,1.90528-3.59082,4.209,0,2.2373,1.417,4.00976,3.62207,4.00976a3.71682,3.71682,0,0,0,3.417-2.1875l-1.07031-.6455a2.53843,2.53843,0,0,1-2.252,1.60742,2.46531,2.46531,0,0,1-2.42481-2.60156h5.81055C206.67725,151.25551,205.41748,149.18422,203.03955,149.18422Zm-2.23633,3.26465a2.38024,2.38024,0,0,1,2.252-2.03808,2.30161,2.30161,0,0,1,2.17285,2.03808Z" fill="#fff"/>
    <path d="M209.27,150.24477h-.03125v-.8457H207.979v7.78906h1.25977V153.2936c0-1.01074.0625-2.88281,1.44922-2.88281a1.19929,1.19929,0,0,1,.75586.34765l.59765-1.21a2.15268,2.15268,0,0,0-1.13379-.36426C210.08936,149.18422,209.71143,149.63149,209.27,150.24477Z" fill="#fff"/>
    <path d="M221.86768,150.029l-.78711-.36426c-.80274-.38086-1.8584-.87793-1.8584-1.95507a1.92868,1.92868,0,0,1,1.96875-1.93946,2.17308,2.17308,0,0,1,2.04687,1.35938l1.05567-.71289a3.38762,3.38762,0,0,0-3.07129-1.93848,3.18269,3.18269,0,0,0-3.32227,3.18164c0,1.78906,1.19629,2.53516,2.582,3.19824l.72461.33106c1.10254.53027,2.18848,1.02734,2.18848,2.48535a2.44352,2.44352,0,0,1-2.44043,2.43652,2.50111,2.50111,0,0,1-2.37793-2.32031l-1.291.38086a3.72427,3.72427,0,0,0,3.7002,3.23144,3.76185,3.76185,0,0,0,3.73242-3.86035C224.71826,151.55337,223.41162,150.74184,221.86768,150.029Z" fill="#fff"/>
    <path d="M229.43408,149.18422c-2.31543,0-3.59082,1.90528-3.59082,4.209,0,2.2373,1.417,4.00976,3.62207,4.00976a3.71682,3.71682,0,0,0,3.417-2.1875L231.812,154.57a2.53843,2.53843,0,0,1-2.25195,1.60742,2.46531,2.46531,0,0,1-2.42481-2.60156h5.81055C233.07178,151.25551,231.812,149.18422,229.43408,149.18422Zm-2.23633,3.26465a2.38024,2.38024,0,0,1,2.252-2.03808,2.3016,2.3016,0,0,1,2.17285,2.03808Z" fill="#fff"/>
    <path d="M235.66455,150.24477h-.03125v-.8457h-1.25976v7.78906h1.25976V153.2936c0-1.01074.0625-2.88281,1.44922-2.88281a1.19927,1.19927,0,0,1,.75586.34765l.59766-1.21a2.15274,2.15274,0,0,0-1.13379-.36426C236.48389,149.18422,236.106,149.63149,235.66455,150.24477Z" fill="#fff"/>
    <polygon points="242.469 154.636 240.264 149.399 238.832 149.399 242.469 157.702 246.091 149.399 244.674 149.399 242.469 154.636" fill="#fff"/>
    <ellipse cx="247.8042" cy="146.46645" rx="0.89746" ry="0.94434" fill="#fff"/>
    <rect x="247.17432" y="149.39907" width="1.25977" height="7.78906" fill="#fff"/>
    <path d="M253.771,156.17739a2.677,2.677,0,0,1-2.55079-2.88379,2.72547,2.72547,0,0,1,2.61426-2.88281,2.81853,2.81853,0,0,1,2.29883,1.30859h.03125v-1.75684a3.85419,3.85419,0,0,0-2.2832-.77832,4.00736,4.00736,0,0,0-3.95215,4.10938,3.92018,3.92018,0,0,0,6.28223,3.31445v-1.77343h-.03125A2.83778,2.83778,0,0,1,253.771,156.17739Z" fill="#fff"/>
    <path d="M260.88135,149.18422c-2.31543,0-3.59082,1.90528-3.59082,4.209,0,2.2373,1.417,4.00976,3.62207,4.00976a3.71683,3.71683,0,0,0,3.417-2.1875l-1.07031-.6455a2.53843,2.53843,0,0,1-2.252,1.60742,2.46531,2.46531,0,0,1-2.4248-2.60156h5.81055C264.519,151.25551,263.25928,149.18422,260.88135,149.18422Zm-2.23633,3.26465a2.38024,2.38024,0,0,1,2.252-2.03808,2.3016,2.3016,0,0,1,2.17285,2.03808Z" fill="#fff"/>
    <path d="M268.68506,152.63051c-.86621-.38086-1.7168-.6455-1.7168-1.35839a.91558.91558,0,0,1,.91309-.86133,1.18959,1.18959,0,0,1,1.00781.79492l1.05566-.58008a2.24331,2.24331,0,0,0-1.96875-1.44141,2.15958,2.15958,0,0,0-2.2041,2.20411c0,2.45214,3.33789,1.85546,3.33789,3.5957a1.15294,1.15294,0,0,1-1.19726,1.19336c-.834,0-1.19629-.51367-1.51172-1.24317l-1.11719.49707A2.67446,2.67446,0,0,0,267.897,157.403a2.48107,2.48107,0,0,0,2.50391-2.53515A2.34706,2.34706,0,0,0,268.68506,152.63051Z" fill="#fff"/>
    <path d="M145.42255,150.33956c-.21015,0-.92359.063-2.68531.063-1.72088,0-2.7276-.063-2.97955-.063-.08374,0-.12549.04193-.12549.168V150.99c0,.105.04175.18884.16785.18884h.881c.54541,0,.75519.2099.75519.965v1.53174c0,1.09082-.042,1.67822-.50366,1.93011a6.0472,6.0472,0,0,1-2.85309.35162c-2.08576,0-3.58344-1.30859-5.30646-2.70275-.26153-.2096-.40832-.10932-.47479.00347s-.34125.79657-.41388.97583a.49763.49763,0,0,0,.12146.6059,8.19692,8.19692,0,0,0,5.90582,2.27631,12.14342,12.14342,0,0,0,5.95832-1.38452c.20959-.08393.33569-.16779.33569-.33564s-.08411-.37756-.08411-.67144V151.955c0-.6084.25189-.77619.62952-.77619h.71319c.126,0,.16785-.042.16785-.16778v-.52454C145.63214,150.38149,145.59033,150.33956,145.42255,150.33956Z" fill="#fff"/>
    <path d="M138.628,142.54873a4.73747,4.73747,0,0,1,3.48316,1.46844,8.32684,8.32684,0,0,1,1.678,2.89551c.042.12579.08429.1889.20978.16791l.50366-.08411c.08411-.02106.08411-.12573.08411-.29346l-.21014-4.19622c0-.16785-.04181-.29389-.25159-.29389-.126,0-.189.06305-.29382.20978l-.25159.33594c-.126.16778-.25153.23047-.50366.04168a7.73028,7.73028,0,0,0-4.28009-1.13281c-3.87384,0-6.65375.83051-8.44727,6.42011l-1.71686,4.4978-2.61718-5.874s-1.09589-2.61561-1.5738-2.61561c-.47833,0-1.59954,2.44141-1.59954,2.44141s-2.83258,6.06165-3.00019,6.50226l-.042-.02087-3.26324-9.69245a.50312.50312,0,0,1,.50341-.73468h.39844c.14722,0,.189-.06262.189-.16766v-.52442c0-.1051-.04181-.14666-.16785-.14666-.15729,0-1.15942.03521-2.05444.05291-.09949.002-.24945.30494-.405.70728-.64063,1.43127-3.69965,8.10516-3.87055,8.6369h-.08392l-3.79742-8.83807c-.08374-.2519-.23066-.46173-.52454-.46173-.29358,0-.46149.336-.54511.54571-.41967,1.04883-4.69989,12.79761-4.90985,13.25928a1.0356,1.0356,0,0,1-.92291.6922h-.44061c-.12567,0-.14667.063-.14667.16815v.56647c0,.0625.04218.10461.12579.10461.16809,0,.79725-.063,1.97242-.063,1.30059,0,2.01385.063,2.22351.063.12579,0,.1679-.063.1679-.1676v-.50348c0-.10516-.02093-.16815-.14691-.16815h-.5664c-.50354,0-.7132-.29352-.7132-.5874,0-1.15381,2.39154-8.07709,3.02087-9.9234h.08393l3.02118,7.4953s.68768,1.63952,1.12091,1.63952c.658,0,1.64862-2.31079,1.64862-2.31079s2.83209-6.32037,2.99994-6.761l.04187.02094,3.26336,9.69269a.50283.50283,0,0,1-.50354.73413h-.39849c-.14692,0-.18879.063-.18879.16815v.52435c0,.10462.04187.14673.16791.14673.16962,0,.70642-.02,1.731-.03576a.559.559,0,0,0,.3985-.17927.67251.67251,0,0,0,.21423-.28131c.08417-.23083,3.79779-8.055,3.98633-8.64245h.08411l3.79718,8.5794c.08367.2519.23046.46174.52429.46174,1.12463,0,1.49768-.445,1.94629-1.7229.2323-.66224,1.59936-4.51478,2.83984-7.78656C134.09692,143.68563,136.35663,142.54873,138.628,142.54873Z" fill="#fff"/>
  </g>
</svg>
