<svg xmlns="http://www.w3.org/2000/svg" viewBox="0 0 376.77 98.32"><title>1c</title><circle cx="49.16" cy="49.16" r="48.09" fill="none" stroke="#7e83a9" stroke-miterlimit="10" stroke-width="2.14"/><circle cx="49.16" cy="49.16" r="44.54" fill="#00205c"/><path d="M76,37.18a8.26,8.26,0,0,1,6.06,2.55A14.46,14.46,0,0,1,85,44.78c.07.22.14.33.36.29l.88-.15c.15,0,.15-.21.15-.51L86,37.1c0-.29-.07-.51-.44-.51-.22,0-.33.11-.51.37l-.44.58c-.22.29-.44.4-.87.07a13.54,13.54,0,0,0-7.46-2c-6.75,0-11.59,1.45-14.72,11.19l-3,7.83L54.05,44.43s-1.91-4.56-2.74-4.56-2.79,4.25-2.79,4.25S43.59,54.68,43.3,55.45l-.08,0L37.54,38.53a.88.88,0,0,1,.88-1.28h.69c.26,0,.33-.11.33-.29V36c0-.18-.07-.25-.29-.25l-3.58.09c-.17,0-.44.53-.71,1.23-1.11,2.5-6.44,14.12-6.74,15H28l-6.61-15.4c-.15-.44-.4-.8-.92-.8s-.8.58-1,.95c-.73,1.83-8.18,22.29-8.55,23.1a1.79,1.79,0,0,1-1.61,1.2H5c-.22,0-.26.11-.26.3v1c0,.11.08.19.22.19.3,0,5-.11,7-.11,2.26,0,3.5.11,3.87.11.22,0,.29-.11.29-.3v-.87c0-.19,0-.3-.25-.3h-1c-.88,0-1.24-.51-1.24-1,0-2,4.16-14.07,5.26-17.29h.15L24.32,56s1.2,2.86,1.95,2.86c1.15,0,2.87-4,2.87-4s4.94-11,5.23-11.78l.07,0,5.69,16.89a.87.87,0,0,1-.88,1.27h-.69c-.26,0-.33.11-.33.3v.91c0,.18.07.26.29.26s1.23,0,3-.07a1,1,0,0,0,.69-.31,1.11,1.11,0,0,0,.37-.49c.15-.4,6.62-14,6.95-15.05h.14L56.31,61.7c.15.44.4.81.91.81,2,0,2.61-.78,3.39-3,.41-1.15,2.79-7.86,5-13.56C68.13,39.16,72.07,37.18,76,37.18ZM93.2,50.75c-.37,0-7,.11-10,.11s-4.76-.11-5.2-.11c-.14,0-.21.07-.21.29v.84c0,.18.07.33.29.33H79.6c1,0,1.32.37,1.32,1.68v2.67c0,1.9-.07,2.92-.88,3.36-1.24.66-2.63.61-5,.61-3.63,0-6.24-2.28-9.24-4.7-.46-.37-.71-.19-.83,0s-.59,1.39-.72,1.7a.87.87,0,0,0,.21,1.06c2.52,2.8,6.82,4,10.29,4a21.1,21.1,0,0,0,10.38-2.41c.36-.14.58-.29.58-.58s-.14-.66-.14-1.17V53.56c0-1.06.44-1.35,1.09-1.35h6.58c.22,0,.29-.07.29-.29V51C93.56,50.82,93.49,50.75,93.2,50.75Z" fill="#fff"/><path d="M109,80.14h-1l5.63-8.75h.87l1.82,8.75h-.93l-.47-2.3H110.4ZM110.9,77h3.83l-.91-4.65Z" fill="#8085aa"/><path d="M120.13,77.79a3.77,3.77,0,0,1,.26-1.39,3.19,3.19,0,0,1,.71-1.14,3.37,3.37,0,0,1,1.08-.77,3.17,3.17,0,0,1,1.35-.28,2.53,2.53,0,0,1,1.18.28,1.83,1.83,0,0,1,.83.84h0l.8-4.53h.83l-1.66,9.34h-.82l.17-1h0A2.41,2.41,0,0,1,124,80a2.48,2.48,0,0,1-1.27.33,3,3,0,0,1-1.07-.18,2.37,2.37,0,0,1-.82-.51,2.34,2.34,0,0,1-.53-.79A2.61,2.61,0,0,1,120.13,77.79Zm.87-.05a2.15,2.15,0,0,0,.12.73,1.54,1.54,0,0,0,.35.59,1.45,1.45,0,0,0,.57.39,1.86,1.86,0,0,0,.77.15,2.35,2.35,0,0,0,1-.23,2.55,2.55,0,0,0,.81-.61,3.15,3.15,0,0,0,.55-.9,3,3,0,0,0,.19-1.09,2,2,0,0,0-.13-.75,1.73,1.73,0,0,0-.37-.59,1.64,1.64,0,0,0-.6-.39,2.06,2.06,0,0,0-.76-.14,2.47,2.47,0,0,0-1,.22,2.54,2.54,0,0,0-.8.61,2.84,2.84,0,0,0-.51.9A3.31,3.31,0,0,0,121,77.74Z" fill="#8085aa"/><path d="M128.52,80.14h-.82l1-5.78h.83Zm1.52-8a.57.57,0,0,1-.16.42.54.54,0,0,1-.42.17.63.63,0,0,1-.4-.14.53.53,0,0,1-.17-.41.55.55,0,0,1,.18-.43.58.58,0,0,1,.42-.18.51.51,0,0,1,.39.16A.53.53,0,0,1,130,72.12Z" fill="#8085aa"/><path d="M132.7,80.14h-.89l-1.21-5.78h.85l.93,4.89h0l2.88-4.89h.9Z" fill="#8085aa"/><path d="M137.2,80.14h-.83l1-5.78h.83Zm1.52-8a.57.57,0,0,1-.17.42.53.53,0,0,1-.41.17.66.66,0,0,1-.41-.14.53.53,0,0,1-.16-.41.62.62,0,0,1,.59-.61.54.54,0,0,1,.4.16A.57.57,0,0,1,138.72,72.12Z" fill="#8085aa"/><path d="M143.21,75.63a1.27,1.27,0,0,0-.51-.52,1.6,1.6,0,0,0-.83-.21,2.49,2.49,0,0,0-.46,0,1.6,1.6,0,0,0-.45.16.94.94,0,0,0-.33.29.77.77,0,0,0,.18,1.08,1.27,1.27,0,0,0,.35.18,3.53,3.53,0,0,0,.49.16,3.45,3.45,0,0,1,1.29.62,1.32,1.32,0,0,1,.45,1.07,1.53,1.53,0,0,1-.21.81,1.74,1.74,0,0,1-.53.55,2.33,2.33,0,0,1-.72.32,3,3,0,0,1-.78.1,3.4,3.4,0,0,1-1.36-.27,2.13,2.13,0,0,1-1-.82l.72-.47a1.76,1.76,0,0,0,.63.61,1.83,1.83,0,0,0,1,.26,2.42,2.42,0,0,0,.54-.06,1.68,1.68,0,0,0,.46-.17,1.08,1.08,0,0,0,.33-.31.84.84,0,0,0,.12-.45.78.78,0,0,0-.36-.7,4.81,4.81,0,0,0-1-.47c-.17-.06-.34-.12-.52-.2a1.75,1.75,0,0,1-.47-.29,1.44,1.44,0,0,1-.34-.43,1.41,1.41,0,0,1-.13-.61,1.36,1.36,0,0,1,.21-.77,1.65,1.65,0,0,1,.52-.53,2.27,2.27,0,0,1,.71-.3,3,3,0,0,1,.79-.1,2.7,2.7,0,0,1,1.19.26,1.66,1.66,0,0,1,.76.69Z" fill="#8085aa"/><path d="M145.45,80.14h-.83l1-5.78h.83Zm1.52-8a.57.57,0,0,1-.17.42.53.53,0,0,1-.41.17.61.61,0,0,1-.4-.14.53.53,0,0,1-.17-.41.55.55,0,0,1,.18-.43.57.57,0,0,1,.41-.18.54.54,0,0,1,.4.16A.53.53,0,0,1,147,72.12Z" fill="#8085aa"/><path d="M150.18,80.29a2.9,2.9,0,0,1-1.07-.19,2.5,2.5,0,0,1-.85-.51,2.34,2.34,0,0,1-.55-.79,2.61,2.61,0,0,1-.2-1,3.76,3.76,0,0,1,.26-1.38,3.39,3.39,0,0,1,.71-1.13A3.29,3.29,0,0,1,151,74.21a3.06,3.06,0,0,1,1.08.18,2.37,2.37,0,0,1,.84.51,2.3,2.3,0,0,1,.55.79,2.58,2.58,0,0,1,.2,1,4,4,0,0,1-.25,1.39,3.49,3.49,0,0,1-.71,1.14,3.43,3.43,0,0,1-2.48,1.05Zm2.57-3.53a2.25,2.25,0,0,0-.12-.74,1.71,1.71,0,0,0-.36-.59,1.9,1.9,0,0,0-.59-.39,2.11,2.11,0,0,0-.77-.14,2.2,2.2,0,0,0-1,.23,2.39,2.39,0,0,0-.79.62,2.87,2.87,0,0,0-.52.9,3.1,3.1,0,0,0-.2,1.09,2.26,2.26,0,0,0,.13.74,1.64,1.64,0,0,0,.94,1,1.89,1.89,0,0,0,.77.15,2.31,2.31,0,0,0,1-.23,2.65,2.65,0,0,0,.79-.62,2.71,2.71,0,0,0,.52-.89A3.34,3.34,0,0,0,152.75,76.76Z" fill="#8085aa"/><path d="M156.52,74.36c0,.15,0,.33-.06.52s-.05.34-.07.47h0a2.38,2.38,0,0,1,.86-.84,2.24,2.24,0,0,1,1.12-.3,2.14,2.14,0,0,1,1.47.47,1.67,1.67,0,0,1,.53,1.3c0,.09,0,.19,0,.29s0,.21,0,.32l-.64,3.55h-.83l.57-3.2a3.83,3.83,0,0,0,.07-.73,1.5,1.5,0,0,0-.28-1,1.25,1.25,0,0,0-1-.35,1.75,1.75,0,0,0-.67.14,2,2,0,0,0-.63.42,2.81,2.81,0,0,0-.51.71,3.46,3.46,0,0,0-.32,1l-.52,3h-.83l.79-4.51c0-.16.07-.36.11-.61s.06-.46.08-.66Z" fill="#8085aa"/><path d="M167.28,80.29a2.9,2.9,0,0,1-1.07-.19,2.33,2.33,0,0,1-1.4-1.3,2.61,2.61,0,0,1-.19-1,3.75,3.75,0,0,1,.25-1.38,3.55,3.55,0,0,1,.71-1.13,3.29,3.29,0,0,1,2.47-1.06,3.06,3.06,0,0,1,1.08.18,2.37,2.37,0,0,1,.84.51,2.3,2.3,0,0,1,.55.79,2.58,2.58,0,0,1,.2,1,3.81,3.81,0,0,1-.25,1.39,3.49,3.49,0,0,1-.71,1.14,3.43,3.43,0,0,1-2.48,1.05Zm2.58-3.53a2.26,2.26,0,0,0-.13-.74,1.71,1.71,0,0,0-.36-.59,1.9,1.9,0,0,0-.59-.39,2.11,2.11,0,0,0-.77-.14,2.23,2.23,0,0,0-1,.23,2.39,2.39,0,0,0-.79.62,2.87,2.87,0,0,0-.52.9,3.09,3.09,0,0,0-.19,1.09,2.25,2.25,0,0,0,.12.74,1.58,1.58,0,0,0,.36.58,1.65,1.65,0,0,0,.58.39,1.89,1.89,0,0,0,.77.15,2.31,2.31,0,0,0,1-.23,2.53,2.53,0,0,0,.79-.62,2.71,2.71,0,0,0,.52-.89A3.34,3.34,0,0,0,169.86,76.76Z" fill="#8085aa"/><path d="M175.18,75.05h-1.36l-.89,5.09h-.83l.89-5.09h-1.22l.14-.69h1.19l.28-1.57a3.68,3.68,0,0,1,.23-.82,2.25,2.25,0,0,1,.43-.68,2,2,0,0,1,.63-.47,2.14,2.14,0,0,1,.87-.17l.33,0a1.45,1.45,0,0,1,.35.07l-.2.73a2.08,2.08,0,0,0-.58-.08,1.13,1.13,0,0,0-.51.11.93.93,0,0,0-.36.32,1.88,1.88,0,0,0-.24.47,3.77,3.77,0,0,0-.14.58l-.26,1.49h1.39Z" fill="#8085aa"/><path d="M183.14,78.63h0l4.24-7.24h1.35l-1.55,8.75h-.88l1.34-7.56h0l-4.49,7.56h-.47l-1.83-7.56h0l-1.33,7.56h-.87l1.55-8.75h1.33Z" fill="#8085aa"/><path d="M192,80.29a2.92,2.92,0,0,1-1.08-.19,2.33,2.33,0,0,1-1.4-1.3,2.61,2.61,0,0,1-.19-1,3.75,3.75,0,0,1,.25-1.38,3.55,3.55,0,0,1,.71-1.13,3.29,3.29,0,0,1,2.47-1.06,3.06,3.06,0,0,1,1.08.18,2.37,2.37,0,0,1,.84.51,2.3,2.3,0,0,1,.55.79,2.58,2.58,0,0,1,.2,1,3.81,3.81,0,0,1-.25,1.39,3.49,3.49,0,0,1-.71,1.14A3.43,3.43,0,0,1,192,80.29Zm2.57-3.53a2.26,2.26,0,0,0-.13-.74,1.71,1.71,0,0,0-.36-.59,1.9,1.9,0,0,0-.59-.39,2.11,2.11,0,0,0-.77-.14,2.23,2.23,0,0,0-1,.23,2.5,2.5,0,0,0-.79.62,2.87,2.87,0,0,0-.52.9,3.09,3.09,0,0,0-.19,1.09,2.25,2.25,0,0,0,.12.74,1.58,1.58,0,0,0,.36.58,1.65,1.65,0,0,0,.58.39,1.89,1.89,0,0,0,.77.15,2.31,2.31,0,0,0,1-.23,2.53,2.53,0,0,0,.79-.62,2.71,2.71,0,0,0,.52-.89A3.34,3.34,0,0,0,194.56,76.76Z" fill="#8085aa"/><path d="M197.44,75c0-.24.06-.46.08-.66h.79c0,.15,0,.33-.06.52s-.05.34-.07.47h0a2.6,2.6,0,0,1,.82-.83,2,2,0,0,1,1.11-.31h.28l.26,0-.2.79-.23,0-.33,0a1.84,1.84,0,0,0-.66.12,1.68,1.68,0,0,0-.59.39,2.8,2.8,0,0,0-.47.68,4.13,4.13,0,0,0-.3,1l-.52,3h-.83l.79-4.51C197.37,75.47,197.4,75.27,197.44,75Z" fill="#8085aa"/><path d="M200.6,81.35a2.29,2.29,0,0,0,.87.74,2.66,2.66,0,0,0,1.23.29,2.83,2.83,0,0,0,1.06-.18,2.06,2.06,0,0,0,.74-.5A2.23,2.23,0,0,0,205,81a4.09,4.09,0,0,0,.26-.88l.21-1.1h0a2.71,2.71,0,0,1-1,.85,2.6,2.6,0,0,1-1.23.3,2.76,2.76,0,0,1-1.07-.19,2.3,2.3,0,0,1-.81-.54,2.48,2.48,0,0,1-.51-.8,2.73,2.73,0,0,1-.18-1,3.41,3.41,0,0,1,.25-1.32,3.34,3.34,0,0,1,.7-1.09,3.63,3.63,0,0,1,1.07-.73,3.49,3.49,0,0,1,1.35-.26,2.62,2.62,0,0,1,.62.07,2.35,2.35,0,0,1,.57.23,1.89,1.89,0,0,1,.48.36,1.63,1.63,0,0,1,.33.49h0l.18-1h.82l-1,5.73a6.17,6.17,0,0,1-.26,1,2.92,2.92,0,0,1-.53,1,3.08,3.08,0,0,1-1,.74,3.57,3.57,0,0,1-1.57.3,3.86,3.86,0,0,1-1.55-.31,2.82,2.82,0,0,1-1.11-.86Zm.9-3.73a2,2,0,0,0,.12.7,1.62,1.62,0,0,0,.36.59,1.72,1.72,0,0,0,.58.4,2.18,2.18,0,0,0,.79.14,2.31,2.31,0,0,0,1-.22,2.46,2.46,0,0,0,.8-.58,2.78,2.78,0,0,0,.7-1.9,2,2,0,0,0-.13-.72,1.73,1.73,0,0,0-.37-.59,1.85,1.85,0,0,0-.58-.39,1.94,1.94,0,0,0-.78-.15,2.61,2.61,0,0,0-1,.2,2.21,2.21,0,0,0-.79.55,2.54,2.54,0,0,0-.52.86A3.31,3.31,0,0,0,201.5,77.62Z" fill="#8085aa"/><path d="M212.41,76.59c0-.14,0-.25.05-.32a1.7,1.7,0,0,0,0-.22,1,1,0,0,0-.36-.89,1.7,1.7,0,0,0-1-.26,2.49,2.49,0,0,0-1,.21,2.7,2.7,0,0,0-.8.48l-.37-.55a3.09,3.09,0,0,1,1-.6,3.56,3.56,0,0,1,1.22-.23,3.33,3.33,0,0,1,.78.09,1.74,1.74,0,0,1,.66.3,1.53,1.53,0,0,1,.61,1.28c0,.07,0,.17,0,.3a2.31,2.31,0,0,1,0,.32l-.42,2.34c0,.23-.07.46-.1.69s0,.45,0,.61h-.75c0-.14,0-.29,0-.46a3.93,3.93,0,0,1,.06-.48h0a4.53,4.53,0,0,1-.49.49A2.93,2.93,0,0,1,211,80a2.7,2.7,0,0,1-.57.18,4.54,4.54,0,0,1-.66,0,2.6,2.6,0,0,1-.61-.07,1.68,1.68,0,0,1-.56-.26,1.43,1.43,0,0,1-.42-.46,1.37,1.37,0,0,1-.17-.7,1.55,1.55,0,0,1,.4-1.12,2.51,2.51,0,0,1,1-.66,6.42,6.42,0,0,1,1.43-.31C211.34,76.62,211.87,76.59,212.41,76.59Zm-.31.63a11.17,11.17,0,0,0-1.14.06,5.42,5.42,0,0,0-1.05.21,2.08,2.08,0,0,0-.78.43,1,1,0,0,0-.3.74.88.88,0,0,0,.1.45.7.7,0,0,0,.26.28,1.16,1.16,0,0,0,.38.15,2.25,2.25,0,0,0,.44,0,2.39,2.39,0,0,0,.82-.14,2.17,2.17,0,0,0,.65-.41,2.12,2.12,0,0,0,.47-.6,2.4,2.4,0,0,0,.26-.72l.09-.49Z" fill="#8085aa"/><path d="M216.34,74.36c0,.15,0,.33-.06.52s-.05.34-.08.47h0a2.38,2.38,0,0,1,.86-.84,2.21,2.21,0,0,1,1.12-.3,2.14,2.14,0,0,1,1.47.47,1.67,1.67,0,0,1,.53,1.3c0,.09,0,.19,0,.29s0,.21,0,.32l-.64,3.55h-.84l.57-3.2a3.88,3.88,0,0,0,.08-.73,1.5,1.5,0,0,0-.29-1,1.23,1.23,0,0,0-1-.35,1.74,1.74,0,0,0-.66.14,1.83,1.83,0,0,0-.63.42,2.81,2.81,0,0,0-.51.71,3.18,3.18,0,0,0-.32,1l-.52,3h-.83l.79-4.51c0-.16.07-.36.11-.61s.06-.46.08-.66Z" fill="#8085aa"/><path d="M226.56,78.92h0l3.65-7.53h1.06l.73,7.53h0l3.6-7.53h.94l-4.26,8.75h-1l-.71-7.54h0l-3.69,7.54h-1l-.9-8.75h.93Z" fill="#8085aa"/><path d="M239.67,74.21a2.15,2.15,0,0,1,1.46.47,1.67,1.67,0,0,1,.53,1.3c0,.09,0,.19,0,.29s0,.21,0,.32L241,80.14h-.83l.56-3.2a3.88,3.88,0,0,0,.08-.73,1.5,1.5,0,0,0-.29-1,1.29,1.29,0,0,0-1-.35,1.79,1.79,0,0,0-.67.14,1.89,1.89,0,0,0-.62.42,2.79,2.79,0,0,0-.5.71,3.46,3.46,0,0,0-.31,1l-.52,3H236l1.64-9.34h.83l-.79,4.51h0a2.22,2.22,0,0,1,.84-.8A2.15,2.15,0,0,1,239.67,74.21Z" fill="#8085aa"/><path d="M243.82,80.14H243l1-5.78h.83Zm1.52-8a.57.57,0,0,1-.17.42.53.53,0,0,1-.41.17.61.61,0,0,1-.4-.14.53.53,0,0,1-.17-.41.55.55,0,0,1,.18-.43.57.57,0,0,1,.41-.18.54.54,0,0,1,.4.16A.53.53,0,0,1,245.34,72.12Z" fill="#8085aa"/><path d="M249.21,75.05h-1.57L247,78.44a3.15,3.15,0,0,0,0,.4.64.64,0,0,0,.19.55.91.91,0,0,0,.52.13,1.39,1.39,0,0,0,.39,0,.79.79,0,0,0,.32-.15l-.1.72a1.39,1.39,0,0,1-.42.13,2.93,2.93,0,0,1-.53,0,2.09,2.09,0,0,1-.43,0,1.44,1.44,0,0,1-.4-.18,1.18,1.18,0,0,1-.29-.36,1.13,1.13,0,0,1-.12-.56,2,2,0,0,1,0-.4l.64-3.62h-1.2l.14-.69h1.17l.29-1.63H248l-.28,1.63h1.59Z" fill="#8085aa"/><path d="M250.38,77.47s0,.1,0,.14v.13a1.81,1.81,0,0,0,.53,1.33,1.73,1.73,0,0,0,.6.39,1.94,1.94,0,0,0,.73.14,2.2,2.2,0,0,0,1.19-.31,2.56,2.56,0,0,0,.81-.71l.52.5a3.26,3.26,0,0,1-1.17.9,3.3,3.3,0,0,1-1.42.31,3.19,3.19,0,0,1-1-.17,2.39,2.39,0,0,1-.83-.5,2.22,2.22,0,0,1-.56-.8,2.6,2.6,0,0,1-.2-1.08,3.37,3.37,0,0,1,.26-1.34,3.55,3.55,0,0,1,.71-1.13,3.4,3.4,0,0,1,1.06-.77,3.1,3.1,0,0,1,1.32-.29,2.36,2.36,0,0,1,1.79.63,2.23,2.23,0,0,1,.62,1.63q0,.15,0,.45a4,4,0,0,1-.09.55Zm4-.62a1.25,1.25,0,0,0,0-.21,1.7,1.7,0,0,0,0-.22,1.52,1.52,0,0,0-.41-1.09,1.56,1.56,0,0,0-1.2-.43,2.18,2.18,0,0,0-.85.16,2.2,2.2,0,0,0-.69.42,2.61,2.61,0,0,0-.51.63,2.5,2.5,0,0,0-.3.74Z" fill="#8085aa"/><path d="M263.55,79.6a6.12,6.12,0,0,0,1.4-.16A4.06,4.06,0,0,0,266,79l.47-2.68h-2.07l.14-.75h2.93l-.69,3.94a6.29,6.29,0,0,1-1.61.66,7.29,7.29,0,0,1-1.71.19,4.59,4.59,0,0,1-1.6-.27,3.66,3.66,0,0,1-1.24-.77,3.38,3.38,0,0,1-.8-1.18,4,4,0,0,1-.29-1.53,5.57,5.57,0,0,1,.41-2.13,5.44,5.44,0,0,1,1.12-1.72,5.23,5.23,0,0,1,1.66-1.16,4.88,4.88,0,0,1,2-.43,4.08,4.08,0,0,1,.93.1,3.77,3.77,0,0,1,.84.28,3.14,3.14,0,0,1,.68.43,2.08,2.08,0,0,1,.49.59l-.8.53a1.76,1.76,0,0,0-.29-.42,2.17,2.17,0,0,0-.46-.38,2.78,2.78,0,0,0-.63-.27,3.1,3.1,0,0,0-.78-.09,4,4,0,0,0-1.73.38,4.4,4.4,0,0,0-1.34,1,4.59,4.59,0,0,0-.88,1.46,4.84,4.84,0,0,0-.32,1.71,3.6,3.6,0,0,0,.2,1.2,2.71,2.71,0,0,0,.59,1,2.84,2.84,0,0,0,.95.66A3.28,3.28,0,0,0,263.55,79.6Z" fill="#8085aa"/><path d="M269.55,75a5.89,5.89,0,0,0,.08-.66h.79c0,.15,0,.33-.06.52s-.05.34-.07.47h0a2.71,2.71,0,0,1,.82-.83,2,2,0,0,1,1.11-.31h.28l.26,0-.19.79-.23,0L272,75a1.88,1.88,0,0,0-.66.12,1.57,1.57,0,0,0-.58.39,2.34,2.34,0,0,0-.47.68,3.72,3.72,0,0,0-.31,1l-.52,3h-.82l.79-4.51C269.48,75.47,269.52,75.27,269.55,75Z" fill="#8085aa"/><path d="M275.29,80.29a2.9,2.9,0,0,1-1.07-.19,2.5,2.5,0,0,1-.85-.51,2.34,2.34,0,0,1-.55-.79,2.61,2.61,0,0,1-.2-1,3.76,3.76,0,0,1,.26-1.38,3.49,3.49,0,0,1,1.79-1.91,3.35,3.35,0,0,1,1.39-.28,3.14,3.14,0,0,1,1.08.18,2.56,2.56,0,0,1,.84.51,2.44,2.44,0,0,1,.55.79,2.58,2.58,0,0,1,.2,1,3.81,3.81,0,0,1-.26,1.39,3.33,3.33,0,0,1-.71,1.14,3.2,3.2,0,0,1-1.08.76A3.36,3.36,0,0,1,275.29,80.29Zm2.57-3.53a2.25,2.25,0,0,0-.12-.74,1.71,1.71,0,0,0-.36-.59,1.9,1.9,0,0,0-.59-.39,2.13,2.13,0,0,0-.78-.14,2.19,2.19,0,0,0-1,.23,2.39,2.39,0,0,0-.79.62,3.1,3.1,0,0,0-.53.9,3.33,3.33,0,0,0-.19,1.09,2,2,0,0,0,.13.74,1.64,1.64,0,0,0,.94,1,1.86,1.86,0,0,0,.77.15,2.31,2.31,0,0,0,1-.23,2.65,2.65,0,0,0,.79-.62,2.9,2.9,0,0,0,.52-.89A3.34,3.34,0,0,0,277.86,76.76Z" fill="#8085aa"/><path d="M283.9,80.14c0-.16,0-.33.07-.52s0-.34.07-.47h0a2.56,2.56,0,0,1-.86.84,2.24,2.24,0,0,1-1.12.3,2.14,2.14,0,0,1-1.47-.47,1.63,1.63,0,0,1-.52-1.29,1.46,1.46,0,0,1,0-.29c0-.1,0-.21,0-.32l.64-3.55h.83l-.57,3.2a3.9,3.9,0,0,0-.07.73,1.45,1.45,0,0,0,.28,1,1.23,1.23,0,0,0,1,.35,1.74,1.74,0,0,0,.66-.14,2.07,2.07,0,0,0,.63-.41,2.81,2.81,0,0,0,.51-.71,3.79,3.79,0,0,0,.32-1l.52-3h.82l-.79,4.51c0,.16-.07.36-.1.6a6.5,6.5,0,0,0-.08.66Z" fill="#8085aa"/><path d="M288.56,75.3a1.75,1.75,0,0,1,.36-.42,2.49,2.49,0,0,1,.5-.35,2.57,2.57,0,0,1,.6-.23,2.52,2.52,0,0,1,.67-.09,3,3,0,0,1,1.07.18,2.47,2.47,0,0,1,.82.51,2.24,2.24,0,0,1,.53.79,2.77,2.77,0,0,1,.19,1A3.81,3.81,0,0,1,293,78.1a3.51,3.51,0,0,1-.72,1.14,3.16,3.16,0,0,1-1.07.76,3.24,3.24,0,0,1-1.35.29,2.51,2.51,0,0,1-1.18-.29,1.85,1.85,0,0,1-.84-.84h0l-.71,4h-.82l1.55-8.75h.83l-.17.94Zm3.87,1.46a2.19,2.19,0,0,0-.12-.73,1.54,1.54,0,0,0-.35-.59,1.68,1.68,0,0,0-.57-.4,2.05,2.05,0,0,0-.78-.14,2.44,2.44,0,0,0-1,.22,2.73,2.73,0,0,0-.82.62,2.92,2.92,0,0,0-.54.9,3.06,3.06,0,0,0-.2,1.09,2.27,2.27,0,0,0,.13.75,1.93,1.93,0,0,0,.38.59,1.69,1.69,0,0,0,.59.39,2,2,0,0,0,.77.14,2.33,2.33,0,0,0,1-.23,2.51,2.51,0,0,0,.8-.6,2.84,2.84,0,0,0,.51-.9A3.31,3.31,0,0,0,292.43,76.76Z" fill="#8085aa"/><path d="M127.41,44.76a6.84,6.84,0,0,1-.69,3.22,5.83,5.83,0,0,1-1.85,2.11,8.2,8.2,0,0,1-2.69,1.17,13.23,13.23,0,0,1-3.17.37h-2.54v8.23h-5.11V38.05h7.77a13.87,13.87,0,0,1,3.24.35A7.58,7.58,0,0,1,125,39.54a5.46,5.46,0,0,1,1.77,2.06A7.14,7.14,0,0,1,127.41,44.76Zm-5.11,0a2.4,2.4,0,0,0-.3-1.26,2.07,2.07,0,0,0-.81-.77,3.24,3.24,0,0,0-1.15-.37,9.58,9.58,0,0,0-1.33-.09h-2.24v5.14h2.15a7.7,7.7,0,0,0,1.38-.12,3.69,3.69,0,0,0,1.18-.43,2.3,2.3,0,0,0,.82-.82A2.47,2.47,0,0,0,122.3,44.79Z" fill="#00205c"/><path d="M143,59.86l-1.64-4.29H133.2l-1.55,4.29h-5.56L135,38.05h5l8.78,21.81Zm-5.67-16-2.69,7.48H140Z" fill="#00205c"/><path d="M159,50.61v9.25h-5.11V50.61L145.9,38.05h6.18l4.52,8.07,4.51-8.07h6Z" fill="#00205c"/><path d="M180,59.86,175.4,51.2h-1.75v8.66h-5V38.05h8.06a13.25,13.25,0,0,1,3,.32,7.66,7.66,0,0,1,2.6,1.09,5.66,5.66,0,0,1,1.84,2,6.48,6.48,0,0,1,.69,3.14,5.91,5.91,0,0,1-1.17,3.73,6.33,6.33,0,0,1-3.22,2.15L186,59.86Zm-.21-15.13a2.25,2.25,0,0,0-.32-1.25,2.21,2.21,0,0,0-.81-.74,3.52,3.52,0,0,0-1.11-.35,8.12,8.12,0,0,0-1.18-.09h-2.74v5.08h2.44a8.22,8.22,0,0,0,1.29-.11,4.11,4.11,0,0,0,1.2-.38,2.33,2.33,0,0,0,.88-.8A2.45,2.45,0,0,0,179.78,44.73Z" fill="#00205c"/><path d="M210.52,48.86a12.48,12.48,0,0,1-.87,4.73,10.59,10.59,0,0,1-2.4,3.66,10.78,10.78,0,0,1-3.66,2.36,13.13,13.13,0,0,1-9.19,0,10.63,10.63,0,0,1-6.05-6,12.68,12.68,0,0,1-.86-4.73,12.49,12.49,0,0,1,.86-4.73,10.37,10.37,0,0,1,2.41-3.59,10.81,10.81,0,0,1,3.64-2.28,13.6,13.6,0,0,1,9.19,0,10.9,10.9,0,0,1,3.66,2.28,10.21,10.21,0,0,1,2.4,3.59A12.3,12.3,0,0,1,210.52,48.86Zm-5.47,0a7.88,7.88,0,0,0-.44-2.65,6.47,6.47,0,0,0-1.24-2.11,5.71,5.71,0,0,0-1.92-1.39,5.91,5.91,0,0,0-6.82,1.39,6,6,0,0,0-1.24,2.11,7.88,7.88,0,0,0-.44,2.65,8,8,0,0,0,.45,2.72,6.49,6.49,0,0,0,1.24,2.15,6,6,0,0,0,6.8,1.4,5.9,5.9,0,0,0,1.91-1.4,6.36,6.36,0,0,0,1.26-2.15A8.21,8.21,0,0,0,205.05,48.86Z" fill="#00205c"/><path d="M213.9,59.86V38.05H219V55.27h8.18v4.59Z" fill="#00205c"/><path d="M229.61,59.86V38.05h5.14V55.27h8.19v4.59Z" fill="#00205c"/><path d="M257.8,45.72a3.77,3.77,0,0,0-3.22-1.61,4,4,0,0,0-1.16.18,3.47,3.47,0,0,0-1.08.56,2.77,2.77,0,0,0-1.08,2.28,2.54,2.54,0,0,0,.29,1.27,2.68,2.68,0,0,0,.76.85,4.38,4.38,0,0,0,1.07.58l1.26.45c.54.18,1.09.38,1.64.59a5.94,5.94,0,0,1,1.48.83A4,4,0,0,1,258.83,53a4.19,4.19,0,0,1,.42,2,4.45,4.45,0,0,1-.45,2.07,4.31,4.31,0,0,1-1.15,1.44,4.72,4.72,0,0,1-1.62.84,6.45,6.45,0,0,1-1.84.27,7.49,7.49,0,0,1-1.41-.14,6.21,6.21,0,0,1-1.34-.45,5.26,5.26,0,0,1-1.19-.74,5.71,5.71,0,0,1-1-1.05l1.37-1a4.34,4.34,0,0,0,1.42,1.44,3.94,3.94,0,0,0,2.14.58,4,4,0,0,0,1.21-.2,3.13,3.13,0,0,0,1.11-.59,3.36,3.36,0,0,0,.82-1,2.8,2.8,0,0,0,.31-1.35,2.84,2.84,0,0,0-.31-1.4,2.88,2.88,0,0,0-.85-.92,5.31,5.31,0,0,0-1.21-.63l-1.43-.5c-.51-.16-1-.35-1.52-.56a5.38,5.38,0,0,1-1.34-.83A3.91,3.91,0,0,1,250,49a4.22,4.22,0,0,1-.36-1.84,4.05,4.05,0,0,1,1.63-3.38,5,5,0,0,1,1.6-.79,6.26,6.26,0,0,1,1.74-.25,5.8,5.8,0,0,1,2.71.58,4.64,4.64,0,0,1,1.69,1.37Z" fill="#00205c"/><path d="M278.05,51.17a9.07,9.07,0,0,1-.61,3.38,8.1,8.1,0,0,1-1.71,2.66A7.69,7.69,0,0,1,273.16,59a8.54,8.54,0,0,1-6.44,0,7.84,7.84,0,0,1-2.58-1.76,8.24,8.24,0,0,1-1.7-2.66,9.52,9.52,0,0,1,0-6.76,8.18,8.18,0,0,1,1.7-2.67,8,8,0,0,1,2.58-1.76,8.54,8.54,0,0,1,6.44,0,7.84,7.84,0,0,1,2.57,1.76,8,8,0,0,1,1.71,2.67A9,9,0,0,1,278.05,51.17Zm-1.67,0a7.87,7.87,0,0,0-.44-2.67,6.72,6.72,0,0,0-1.27-2.23,6,6,0,0,0-2-1.53,6.66,6.66,0,0,0-5.39,0,5.92,5.92,0,0,0-2,1.53,6.74,6.74,0,0,0-1.28,2.23,8.13,8.13,0,0,0-.44,2.67,8.21,8.21,0,0,0,.44,2.67,6.79,6.79,0,0,0,1.28,2.22,6.3,6.3,0,0,0,2,1.52,6.35,6.35,0,0,0,7.43-1.52,6.77,6.77,0,0,0,1.27-2.22A8,8,0,0,0,276.38,51.18Z" fill="#00205c"/><path d="M282.94,57.74h7.26v1.45h-8.85v-16h1.59Z" fill="#00205c"/><path d="M297.79,59.6A5.87,5.87,0,0,1,294.9,59a5.26,5.26,0,0,1-1.78-1.58,5.82,5.82,0,0,1-.91-2.07,9.61,9.61,0,0,1-.25-2.12V43.14h1.58V53a7.88,7.88,0,0,0,.22,1.89,4.81,4.81,0,0,0,.71,1.63,3.78,3.78,0,0,0,1.31,1.16,4.79,4.79,0,0,0,4,0,3.78,3.78,0,0,0,1.31-1.16,4.81,4.81,0,0,0,.71-1.63A7.88,7.88,0,0,0,302,53V43.14h1.58V53.21a9.61,9.61,0,0,1-.25,2.12,5.82,5.82,0,0,1-.91,2.07A5.2,5.2,0,0,1,300.66,59,5.89,5.89,0,0,1,297.79,59.6Z" fill="#00205c"/><path d="M312.65,59.19h-1.58V44.59h-5.21V43.14h12v1.45h-5.22Z" fill="#00205c"/><path d="M321.78,59.19H320.2v-16h1.58Z" fill="#00205c"/><path d="M341.31,51.17a9.07,9.07,0,0,1-.61,3.38A8.1,8.1,0,0,1,339,57.21,7.69,7.69,0,0,1,336.42,59,8.54,8.54,0,0,1,330,59a7.84,7.84,0,0,1-2.58-1.76,8.24,8.24,0,0,1-1.7-2.66,9.52,9.52,0,0,1,0-6.76,8.18,8.18,0,0,1,1.7-2.67A8,8,0,0,1,330,43.36a8.54,8.54,0,0,1,6.44,0A7.84,7.84,0,0,1,339,45.12a8,8,0,0,1,1.71,2.67A9,9,0,0,1,341.31,51.17Zm-1.67,0a7.87,7.87,0,0,0-.44-2.67,6.72,6.72,0,0,0-1.27-2.23,6,6,0,0,0-2-1.53,6.66,6.66,0,0,0-5.39,0,5.92,5.92,0,0,0-2,1.53,6.74,6.74,0,0,0-1.28,2.23,8.13,8.13,0,0,0-.44,2.67,8.21,8.21,0,0,0,.44,2.67,6.79,6.79,0,0,0,1.28,2.22,6.3,6.3,0,0,0,2,1.52,6.35,6.35,0,0,0,7.43-1.52,6.77,6.77,0,0,0,1.27-2.22A8,8,0,0,0,339.64,51.18Z" fill="#00205c"/><path d="M355.66,56.81h0V43.14h1.58v16h-2l-9.06-13.81h0V59.19h-1.59v-16h2Z" fill="#00205c"/><path d="M369,45.72a3.82,3.82,0,0,0-1.3-1.16,3.78,3.78,0,0,0-1.91-.45,4.06,4.06,0,0,0-1.17.18,3.53,3.53,0,0,0-1.07.56,2.64,2.64,0,0,0-.78.94,2.85,2.85,0,0,0-.3,1.34,2.54,2.54,0,0,0,.28,1.27,2.81,2.81,0,0,0,.76.85,4.45,4.45,0,0,0,1.08.58l1.26.45c.54.18,1.08.38,1.63.59a5.77,5.77,0,0,1,1.48.83A4,4,0,0,1,370,53a4.32,4.32,0,0,1,.41,2,4.58,4.58,0,0,1-.44,2.07,4.34,4.34,0,0,1-1.16,1.44,4.63,4.63,0,0,1-1.62.84,6.45,6.45,0,0,1-1.84.27,7.39,7.39,0,0,1-1.4-.14,6,6,0,0,1-1.34-.45,5,5,0,0,1-1.19-.74,5.38,5.38,0,0,1-1-1.05l1.36-1a4.34,4.34,0,0,0,1.42,1.44,4,4,0,0,0,2.15.58,4,4,0,0,0,1.21-.2,3.13,3.13,0,0,0,1.11-.59,3.18,3.18,0,0,0,.81-1,2.81,2.81,0,0,0,.32-1.35,2.84,2.84,0,0,0-.32-1.4,2.67,2.67,0,0,0-.85-.92,5.11,5.11,0,0,0-1.21-.63l-1.43-.5a16.07,16.07,0,0,1-1.51-.56,5.44,5.44,0,0,1-1.35-.83,3.88,3.88,0,0,1-1-1.26,4.22,4.22,0,0,1-.36-1.84,4,4,0,0,1,.45-2,4.28,4.28,0,0,1,1.17-1.39,5,5,0,0,1,1.61-.79,6.15,6.15,0,0,1,1.74-.25,5.79,5.79,0,0,1,2.7.58,4.68,4.68,0,0,1,1.7,1.37Z" fill="#00205c"/></svg>