<svg xmlns="http://www.w3.org/2000/svg" viewBox="0 0 374.89 91.32"><title>reverse</title><path d="M107.08,76.55h-1l5.63-8.75h.87l1.81,8.75h-.92l-.47-2.3h-4.47ZM109,73.44h3.83l-.91-4.65Z" fill="#fff"/><path d="M118.25,74.2a3.77,3.77,0,0,1,.26-1.39,3.19,3.19,0,0,1,.71-1.14,3.37,3.37,0,0,1,1.08-.77,3.17,3.17,0,0,1,1.35-.28,2.53,2.53,0,0,1,1.18.28,1.87,1.87,0,0,1,.83.84h0l.8-4.53h.83l-1.66,9.34h-.82l.17-1h0a2.37,2.37,0,0,1-.85.77,2.48,2.48,0,0,1-1.27.33,3,3,0,0,1-1.07-.18A2.37,2.37,0,0,1,119,76a2.34,2.34,0,0,1-.53-.79A2.61,2.61,0,0,1,118.25,74.2Zm.87,0a2.43,2.43,0,0,0,.11.73,1.71,1.71,0,0,0,.36.59,1.49,1.49,0,0,0,.56.39,1.94,1.94,0,0,0,.78.15,2.35,2.35,0,0,0,1-.23,2.41,2.41,0,0,0,.81-.61,3.15,3.15,0,0,0,.55-.9,3,3,0,0,0,.19-1.09,2,2,0,0,0-.13-.75,1.64,1.64,0,0,0-1-1,2.06,2.06,0,0,0-.76-.14,2.43,2.43,0,0,0-1,.22,2.54,2.54,0,0,0-.8.61,2.84,2.84,0,0,0-.51.9A3.31,3.31,0,0,0,119.12,74.15Z" fill="#fff"/><path d="M126.64,76.55h-.83l1-5.78h.83Zm1.52-8A.54.54,0,0,1,128,69a.52.52,0,0,1-.41.17.61.61,0,0,1-.4-.14.53.53,0,0,1-.17-.41.57.57,0,0,1,.18-.43.58.58,0,0,1,.42-.18.55.55,0,0,1,.55.57Z" fill="#fff"/><path d="M130.82,76.55h-.89l-1.21-5.78h.85l.93,4.89h0l2.88-4.89h.9Z" fill="#fff"/><path d="M135.32,76.55h-.83l1-5.78h.83Zm1.52-8a.57.57,0,0,1-.17.42.53.53,0,0,1-.41.17.64.64,0,0,1-.41-.14.53.53,0,0,1-.16-.41.57.57,0,0,1,.18-.43.57.57,0,0,1,.81,0A.57.57,0,0,1,136.84,68.53Z" fill="#fff"/><path d="M141.33,72a1.24,1.24,0,0,0-.52-.52,1.54,1.54,0,0,0-.82-.21,2.59,2.59,0,0,0-.47,0,1.54,1.54,0,0,0-.44.16,1.07,1.07,0,0,0-.34.29.78.78,0,0,0-.12.44.72.72,0,0,0,.08.38.78.78,0,0,0,.22.26,1.51,1.51,0,0,0,.36.18,3.85,3.85,0,0,0,.48.16,3.42,3.42,0,0,1,1.3.62,1.32,1.32,0,0,1,.45,1.07,1.53,1.53,0,0,1-.21.81,1.74,1.74,0,0,1-.53.55,2.33,2.33,0,0,1-.72.32,3.09,3.09,0,0,1-.78.1,3.49,3.49,0,0,1-1.37-.27,2.16,2.16,0,0,1-1-.82l.72-.47a1.76,1.76,0,0,0,.63.61,1.83,1.83,0,0,0,1,.26,2.33,2.33,0,0,0,.53-.06,1.63,1.63,0,0,0,.47-.17,1.08,1.08,0,0,0,.33-.31.84.84,0,0,0,.12-.45.77.77,0,0,0-.37-.7,4.49,4.49,0,0,0-1-.47,5.55,5.55,0,0,1-.52-.2,1.75,1.75,0,0,1-.47-.29,1.44,1.44,0,0,1-.34-.43,1.28,1.28,0,0,1-.13-.61,1.36,1.36,0,0,1,.21-.77,1.62,1.62,0,0,1,.51-.53,2.33,2.33,0,0,1,.72-.3,3,3,0,0,1,.79-.1,2.7,2.7,0,0,1,1.19.26,1.66,1.66,0,0,1,.76.69Z" fill="#fff"/><path d="M143.57,76.55h-.83l1-5.78h.83Zm1.52-8a.57.57,0,0,1-.17.42.53.53,0,0,1-.41.17.61.61,0,0,1-.4-.14.53.53,0,0,1-.17-.41.62.62,0,0,1,.59-.61.54.54,0,0,1,.4.16A.53.53,0,0,1,145.09,68.53Z" fill="#fff"/><path d="M148.3,76.7a2.9,2.9,0,0,1-1.07-.19,2.5,2.5,0,0,1-.85-.51,2.34,2.34,0,0,1-.55-.79,2.61,2.61,0,0,1-.2-1,3.76,3.76,0,0,1,.26-1.38,3.39,3.39,0,0,1,.71-1.13,3.25,3.25,0,0,1,1.08-.78,3.35,3.35,0,0,1,1.39-.28,3.14,3.14,0,0,1,1.08.18,2.37,2.37,0,0,1,.84.51,2.3,2.3,0,0,1,.55.79,2.58,2.58,0,0,1,.2,1,3.81,3.81,0,0,1-.26,1.39,3.33,3.33,0,0,1-.71,1.14,3.2,3.2,0,0,1-1.08.76A3.32,3.32,0,0,1,148.3,76.7Zm2.57-3.53a2.25,2.25,0,0,0-.12-.74,1.71,1.71,0,0,0-.36-.59,1.9,1.9,0,0,0-.59-.39,2.13,2.13,0,0,0-.78-.14,2.19,2.19,0,0,0-1,.23,2.39,2.39,0,0,0-.79.62,3.1,3.1,0,0,0-.53.9,3.33,3.33,0,0,0-.19,1.09,2,2,0,0,0,.13.74,1.64,1.64,0,0,0,.94,1,1.86,1.86,0,0,0,.77.15,2.31,2.31,0,0,0,1-.23,2.65,2.65,0,0,0,.79-.62,2.9,2.9,0,0,0,.52-.89A3.34,3.34,0,0,0,150.87,73.17Z" fill="#fff"/><path d="M154.64,70.77c0,.15,0,.33-.06.52s-.05.34-.07.47h0a2.38,2.38,0,0,1,.86-.84,2.24,2.24,0,0,1,1.12-.3,2.14,2.14,0,0,1,1.47.47,1.67,1.67,0,0,1,.53,1.3,2.83,2.83,0,0,1,0,.29c0,.1,0,.21,0,.32l-.64,3.55H157l.57-3.2a3.83,3.83,0,0,0,.07-.73,1.56,1.56,0,0,0-.28-1,1.26,1.26,0,0,0-1-.35,1.74,1.74,0,0,0-.66.14,1.93,1.93,0,0,0-.63.42,2.81,2.81,0,0,0-.51.71,3.16,3.16,0,0,0-.32,1l-.52,3h-.83l.79-4.51c0-.16.07-.36.11-.61s.06-.46.08-.66Z" fill="#fff"/><path d="M165.4,76.7a2.9,2.9,0,0,1-1.07-.19,2.5,2.5,0,0,1-.85-.51,2.34,2.34,0,0,1-.55-.79,2.61,2.61,0,0,1-.2-1,3.76,3.76,0,0,1,.26-1.38,3.39,3.39,0,0,1,.71-1.13,3.29,3.29,0,0,1,2.47-1.06,3.06,3.06,0,0,1,1.08.18,2.37,2.37,0,0,1,.84.51,2.3,2.3,0,0,1,.55.79,2.58,2.58,0,0,1,.2,1,4,4,0,0,1-.25,1.39,3.49,3.49,0,0,1-.71,1.14,3.43,3.43,0,0,1-2.48,1ZM168,73.17a2.25,2.25,0,0,0-.12-.74,1.71,1.71,0,0,0-.36-.59,1.9,1.9,0,0,0-.59-.39,2.11,2.11,0,0,0-.77-.14,2.2,2.2,0,0,0-1,.23,2.39,2.39,0,0,0-.79.62,2.87,2.87,0,0,0-.52.9,3.1,3.1,0,0,0-.2,1.09,2.26,2.26,0,0,0,.13.74,1.64,1.64,0,0,0,.94,1,1.89,1.89,0,0,0,.77.15,2.31,2.31,0,0,0,1-.23,2.65,2.65,0,0,0,.79-.62,2.71,2.71,0,0,0,.52-.89A3.34,3.34,0,0,0,168,73.17Z" fill="#fff"/><path d="M173.3,71.46h-1.36l-.89,5.09h-.83l.89-5.09h-1.22l.13-.69h1.2l.27-1.57a3.7,3.7,0,0,1,.24-.82,2.25,2.25,0,0,1,.43-.68,2,2,0,0,1,.63-.47,2.14,2.14,0,0,1,.87-.17l.33,0a1.45,1.45,0,0,1,.35.07l-.2.73a2.08,2.08,0,0,0-.58-.08,1.13,1.13,0,0,0-.51.11.93.93,0,0,0-.36.32,1.6,1.6,0,0,0-.24.47,3.77,3.77,0,0,0-.14.58l-.26,1.49h1.38Z" fill="#fff"/><path d="M181.26,75h0l4.24-7.24h1.34l-1.54,8.75h-.88L185.77,69h0l-4.5,7.56h-.47L179,69h0l-1.33,7.56h-.87l1.55-8.75h1.33Z" fill="#fff"/><path d="M190.1,76.7a2.9,2.9,0,0,1-1.07-.19,2.5,2.5,0,0,1-.85-.51,2.34,2.34,0,0,1-.55-.79,2.61,2.61,0,0,1-.2-1,3.76,3.76,0,0,1,.26-1.38,3.39,3.39,0,0,1,.71-1.13,3.29,3.29,0,0,1,2.47-1.06,3.06,3.06,0,0,1,1.08.18,2.37,2.37,0,0,1,.84.51,2.3,2.3,0,0,1,.55.79,2.58,2.58,0,0,1,.2,1,4,4,0,0,1-.25,1.39,3.49,3.49,0,0,1-.71,1.14,3.43,3.43,0,0,1-2.48,1Zm2.57-3.53a2.25,2.25,0,0,0-.12-.74,1.71,1.71,0,0,0-.36-.59,1.9,1.9,0,0,0-.59-.39,2.11,2.11,0,0,0-.77-.14,2.2,2.2,0,0,0-1,.23,2.39,2.39,0,0,0-.79.62,2.87,2.87,0,0,0-.52.9,3.1,3.1,0,0,0-.2,1.09,2.26,2.26,0,0,0,.13.74,1.64,1.64,0,0,0,.94,1,1.89,1.89,0,0,0,.77.15,2.31,2.31,0,0,0,1-.23,2.65,2.65,0,0,0,.79-.62,2.71,2.71,0,0,0,.52-.89A3.34,3.34,0,0,0,192.67,73.17Z" fill="#fff"/><path d="M195.56,71.43c0-.24.06-.46.08-.66h.79c0,.15,0,.33-.06.52s-.05.34-.08.47h0a2.68,2.68,0,0,1,.81-.83,2,2,0,0,1,1.12-.31h.28l.26.05-.2.79-.23,0-.34,0a1.82,1.82,0,0,0-.65.12,1.6,1.6,0,0,0-.59.39,2.55,2.55,0,0,0-.47.68,4.08,4.08,0,0,0-.3,1l-.52,3h-.83l.79-4.51C195.49,71.88,195.52,71.68,195.56,71.43Z" fill="#fff"/><path d="M198.72,77.76a2.29,2.29,0,0,0,.87.74,2.66,2.66,0,0,0,1.23.29,2.83,2.83,0,0,0,1.06-.18,2.06,2.06,0,0,0,.74-.5,2.23,2.23,0,0,0,.47-.73,4.09,4.09,0,0,0,.26-.88l.21-1.1h0a2.65,2.65,0,0,1-2.19,1.15,2.76,2.76,0,0,1-1.07-.19,2.3,2.3,0,0,1-.81-.54,2.35,2.35,0,0,1-.52-.8,2.73,2.73,0,0,1-.17-1A3.41,3.41,0,0,1,199,72.7a3.34,3.34,0,0,1,.7-1.09,3.4,3.4,0,0,1,2.42-1,2.68,2.68,0,0,1,.62.07,2.35,2.35,0,0,1,.57.23,1.89,1.89,0,0,1,.48.36,1.63,1.63,0,0,1,.33.49h0l.18-1h.82l-1,5.73a6.17,6.17,0,0,1-.26,1,2.92,2.92,0,0,1-.53,1,3.08,3.08,0,0,1-1,.74,3.57,3.57,0,0,1-1.57.3,3.86,3.86,0,0,1-1.55-.31,2.82,2.82,0,0,1-1.11-.86Zm.9-3.73a2,2,0,0,0,.12.7,1.62,1.62,0,0,0,.36.59,1.72,1.72,0,0,0,.58.4,2.18,2.18,0,0,0,.79.14,2.31,2.31,0,0,0,1-.22,2.46,2.46,0,0,0,.8-.58,2.78,2.78,0,0,0,.7-1.9,2,2,0,0,0-.13-.72,1.6,1.6,0,0,0-.37-.58,1.67,1.67,0,0,0-.59-.4,1.92,1.92,0,0,0-.77-.15,2.61,2.61,0,0,0-1,.2,2.12,2.12,0,0,0-.79.55,2.54,2.54,0,0,0-.52.86A3.31,3.31,0,0,0,199.62,74Z" fill="#fff"/><path d="M210.53,73c0-.14,0-.24.05-.32a1.7,1.7,0,0,0,0-.22,1,1,0,0,0-.36-.89,1.7,1.7,0,0,0-1-.26,2.49,2.49,0,0,0-1,.21,2.7,2.7,0,0,0-.8.48l-.37-.55a3.14,3.14,0,0,1,1-.6,3.61,3.61,0,0,1,1.23-.23,3.33,3.33,0,0,1,.78.09,1.81,1.81,0,0,1,.66.3,1.49,1.49,0,0,1,.44.52,1.61,1.61,0,0,1,.17.76c0,.07,0,.17,0,.3a2.31,2.31,0,0,1,0,.32l-.42,2.34c0,.23-.07.46-.1.7s0,.44,0,.6H210c0-.14,0-.29,0-.46a3.93,3.93,0,0,1,.06-.48h0a4.53,4.53,0,0,1-.49.49,2.67,2.67,0,0,1-.52.33,2.45,2.45,0,0,1-.56.18,4.65,4.65,0,0,1-.66,0,2.6,2.6,0,0,1-.61-.07,1.6,1.6,0,0,1-.56-.26,1.33,1.33,0,0,1-.42-.46,1.37,1.37,0,0,1-.17-.7,1.55,1.55,0,0,1,.4-1.12,2.51,2.51,0,0,1,1-.66,6.45,6.45,0,0,1,1.42-.31C209.46,73,210,73,210.53,73Zm-.31.63a11.17,11.17,0,0,0-1.14.06,5.27,5.27,0,0,0-1.05.21,2.08,2.08,0,0,0-.78.43,1,1,0,0,0-.3.74,1,1,0,0,0,.09.45.81.81,0,0,0,.27.28,1.16,1.16,0,0,0,.38.15,2.46,2.46,0,0,0,1.26-.1,2.31,2.31,0,0,0,.65-.41,2.12,2.12,0,0,0,.47-.6,2.7,2.7,0,0,0,.26-.72l.09-.49Z" fill="#fff"/><path d="M214.46,70.77c0,.15,0,.33-.06.52s-.05.34-.08.47h0a2.38,2.38,0,0,1,.86-.84,2.21,2.21,0,0,1,1.12-.3,2.14,2.14,0,0,1,1.47.47,1.67,1.67,0,0,1,.53,1.3,2.83,2.83,0,0,1,0,.29c0,.1,0,.21-.05.32l-.64,3.55h-.83l.57-3.2a3.88,3.88,0,0,0,.08-.73,1.5,1.5,0,0,0-.29-1,1.23,1.23,0,0,0-1-.35,1.83,1.83,0,0,0-.67.14,1.89,1.89,0,0,0-.62.42,2.81,2.81,0,0,0-.51.71,3.16,3.16,0,0,0-.32,1l-.52,3h-.83l.79-4.51c0-.16.07-.36.1-.61a5.89,5.89,0,0,0,.08-.66Z" fill="#fff"/><path d="M224.68,75.33h0l3.65-7.53h1.06l.73,7.53h0l3.6-7.53h.94l-4.26,8.75h-1L228.69,69h0L225,76.55h-1L223,67.8H224Z" fill="#fff"/><path d="M237.79,70.62a2.17,2.17,0,0,1,1.46.47,1.67,1.67,0,0,1,.53,1.3,2.83,2.83,0,0,1,0,.29c0,.1,0,.21,0,.32l-.64,3.55h-.83l.57-3.2a3.88,3.88,0,0,0,.08-.73,1.5,1.5,0,0,0-.29-1,1.29,1.29,0,0,0-1-.35,1.75,1.75,0,0,0-.67.14,1.89,1.89,0,0,0-.62.42,2.79,2.79,0,0,0-.5.71,3.43,3.43,0,0,0-.31,1l-.52,3h-.83l1.64-9.34h.83l-.79,4.51h0a2.22,2.22,0,0,1,.84-.8A2.15,2.15,0,0,1,237.79,70.62Z" fill="#fff"/><path d="M241.94,76.55h-.83l1-5.78H243Zm1.52-8a.57.57,0,0,1-.17.42.53.53,0,0,1-.41.17.61.61,0,0,1-.4-.14.5.5,0,0,1-.17-.41.62.62,0,0,1,.59-.61.54.54,0,0,1,.4.16A.57.57,0,0,1,243.46,68.53Z" fill="#fff"/><path d="M247.33,71.46h-1.57l-.61,3.39a3.37,3.37,0,0,0,0,.4.64.64,0,0,0,.2.55.91.91,0,0,0,.52.13,1.33,1.33,0,0,0,.38-.05,1,1,0,0,0,.33-.14l-.1.71a1.39,1.39,0,0,1-.42.13,3,3,0,0,1-.53,0,2.09,2.09,0,0,1-.43,0,1.32,1.32,0,0,1-.4-.18,1,1,0,0,1-.29-.36,1.13,1.13,0,0,1-.12-.56,2,2,0,0,1,0-.4l.64-3.62h-1.2l.14-.69H245l.28-1.63h.83l-.28,1.63h1.59Z" fill="#fff"/><path d="M248.5,73.88c0,.05,0,.1,0,.14v.14a1.85,1.85,0,0,0,.53,1.33,1.86,1.86,0,0,0,.6.38,1.94,1.94,0,0,0,.73.14,2.22,2.22,0,0,0,1.19-.31,2.56,2.56,0,0,0,.81-.71l.52.5a3.5,3.5,0,0,1-1.17.91,3.45,3.45,0,0,1-1.42.3,3.19,3.19,0,0,1-1-.17,2.53,2.53,0,0,1-.84-.5,2.33,2.33,0,0,1-.55-.8,2.6,2.6,0,0,1-.2-1.08,3.58,3.58,0,0,1,.25-1.34,3.74,3.74,0,0,1,.71-1.13,3.56,3.56,0,0,1,1.07-.77,3.06,3.06,0,0,1,1.31-.29,2.4,2.4,0,0,1,1.8.63,2.23,2.23,0,0,1,.61,1.63,4.23,4.23,0,0,1,0,.45,4,4,0,0,1-.09.55Zm4-.62a1.25,1.25,0,0,0,0-.21c0-.08,0-.15,0-.22a1.52,1.52,0,0,0-.41-1.09,1.56,1.56,0,0,0-1.2-.43,2.15,2.15,0,0,0-.85.16,2.2,2.2,0,0,0-.69.42,2.61,2.61,0,0,0-.51.63,2.5,2.5,0,0,0-.3.74Z" fill="#fff"/><path d="M261.67,76a6.12,6.12,0,0,0,1.4-.16,4.06,4.06,0,0,0,1.09-.44l.47-2.68h-2.07l.14-.75h2.93l-.7,3.94a6.09,6.09,0,0,1-1.6.66,7.35,7.35,0,0,1-1.71.19,4.55,4.55,0,0,1-1.6-.27,3.8,3.8,0,0,1-1.24-.76,3.38,3.38,0,0,1-.8-1.19,4,4,0,0,1-.29-1.53,5.57,5.57,0,0,1,.41-2.13,5.44,5.44,0,0,1,1.12-1.72A5.23,5.23,0,0,1,260.88,68a4.88,4.88,0,0,1,2-.43,4.08,4.08,0,0,1,.93.1,3.77,3.77,0,0,1,.84.28,2.83,2.83,0,0,1,.68.44,2.08,2.08,0,0,1,.49.58l-.8.53a2.11,2.11,0,0,0-.29-.42,2,2,0,0,0-.47-.38,2.52,2.52,0,0,0-.62-.27,3.15,3.15,0,0,0-.78-.09,3.82,3.82,0,0,0-1.73.39,4.22,4.22,0,0,0-1.34,1,4.59,4.59,0,0,0-.88,1.46,4.84,4.84,0,0,0-.32,1.71,3.7,3.7,0,0,0,.2,1.21,2.67,2.67,0,0,0,.59,1,2.7,2.7,0,0,0,.95.66A3.28,3.28,0,0,0,261.67,76Z" fill="#fff"/><path d="M267.67,71.43c0-.24.06-.46.08-.66h.79c0,.15,0,.33-.06.52s-.05.34-.07.47h0a2.6,2.6,0,0,1,.82-.83,2,2,0,0,1,1.11-.31h.28l.26.05-.2.79-.22,0-.34,0a1.88,1.88,0,0,0-.66.12,1.68,1.68,0,0,0-.59.39,2.53,2.53,0,0,0-.46.68,3.68,3.68,0,0,0-.31,1l-.52,3h-.82l.79-4.51C267.6,71.88,267.63,71.68,267.67,71.43Z" fill="#fff"/><path d="M273.41,76.7a2.87,2.87,0,0,1-1.07-.19,2.41,2.41,0,0,1-.85-.51,2.21,2.21,0,0,1-.55-.79,2.61,2.61,0,0,1-.2-1,3.76,3.76,0,0,1,.26-1.38,3.49,3.49,0,0,1,1.79-1.91,3.32,3.32,0,0,1,1.39-.28,3.14,3.14,0,0,1,1.08.18,2.56,2.56,0,0,1,.84.51,2.44,2.44,0,0,1,.55.79,2.58,2.58,0,0,1,.2,1,3.81,3.81,0,0,1-.26,1.39,3.33,3.33,0,0,1-.71,1.14,3.15,3.15,0,0,1-1.09.76A3.31,3.31,0,0,1,273.41,76.7ZM276,73.17a2.25,2.25,0,0,0-.12-.74,1.73,1.73,0,0,0-.37-.59,1.85,1.85,0,0,0-.58-.39,2.13,2.13,0,0,0-.78-.14,2.19,2.19,0,0,0-1,.23,2.39,2.39,0,0,0-.79.62,2.89,2.89,0,0,0-.53.9,3.09,3.09,0,0,0-.19,1.09,2.25,2.25,0,0,0,.12.74,1.75,1.75,0,0,0,.37.58,1.56,1.56,0,0,0,.58.39,1.86,1.86,0,0,0,.77.15,2.24,2.24,0,0,0,1-.23,2.57,2.57,0,0,0,.8-.62,2.9,2.9,0,0,0,.52-.89A3.34,3.34,0,0,0,276,73.17Z" fill="#fff"/><path d="M282,76.55c0-.16,0-.33.06-.52s.05-.34.08-.47h0a2.39,2.39,0,0,1-.86.84,2.18,2.18,0,0,1-1.11.3,2.14,2.14,0,0,1-1.47-.47,1.63,1.63,0,0,1-.52-1.29,1.46,1.46,0,0,1,0-.29c0-.1,0-.21,0-.32l.64-3.55h.83l-.57,3.2a3.9,3.9,0,0,0-.07.73,1.45,1.45,0,0,0,.28,1,1.23,1.23,0,0,0,1,.35,1.74,1.74,0,0,0,.66-.14,1.91,1.91,0,0,0,.62-.41,2.61,2.61,0,0,0,.52-.71,3.79,3.79,0,0,0,.32-1l.51-3h.83L283,75.29c0,.16-.07.36-.1.6a6.5,6.5,0,0,0-.08.66Z" fill="#fff"/><path d="M286.68,71.71a1.75,1.75,0,0,1,.36-.42,2.62,2.62,0,0,1,.5-.35,2.57,2.57,0,0,1,.6-.23,2.46,2.46,0,0,1,.67-.09,3,3,0,0,1,1.07.18,2.47,2.47,0,0,1,.82.51,2.39,2.39,0,0,1,.53.79,2.76,2.76,0,0,1,.18,1,3.62,3.62,0,0,1-.26,1.39,3.49,3.49,0,0,1-.71,1.14,3.34,3.34,0,0,1-2.42,1,2.51,2.51,0,0,1-1.18-.29,1.8,1.8,0,0,1-.84-.84h0l-.71,4h-.83L286,70.77h.83l-.17.94Zm3.87,1.46a2.09,2.09,0,0,0-.12-.72,1.64,1.64,0,0,0-.35-.6,1.78,1.78,0,0,0-.57-.4,2.05,2.05,0,0,0-.78-.14,2.44,2.44,0,0,0-1,.22,2.62,2.62,0,0,0-.82.62,2.92,2.92,0,0,0-.54.9,3.06,3.06,0,0,0-.2,1.09,2.27,2.27,0,0,0,.13.75,1.76,1.76,0,0,0,.38.59,1.6,1.6,0,0,0,.59.39A2,2,0,0,0,288,76a2.33,2.33,0,0,0,1-.23,2.37,2.37,0,0,0,.8-.6,2.84,2.84,0,0,0,.51-.9A3.31,3.31,0,0,0,290.55,73.17Z" fill="#fff"/><circle cx="45.66" cy="45.66" r="44.59" fill="#00205c" stroke="#fff" stroke-miterlimit="10" stroke-width="2.14"/><path d="M72.53,33.68a8.26,8.26,0,0,1,6.06,2.55,14.46,14.46,0,0,1,2.93,5.05c.07.22.14.33.36.29l.88-.15c.15,0,.15-.21.15-.51l-.37-7.31c0-.29-.07-.51-.44-.51-.22,0-.33.11-.51.37l-.44.58c-.22.29-.44.4-.87.07a13.54,13.54,0,0,0-7.46-2c-6.75,0-11.59,1.45-14.72,11.19l-3,7.83L50.55,40.93s-1.91-4.56-2.74-4.56S45,40.62,45,40.62,40.09,51.18,39.8,52l-.08,0L34,35a.88.88,0,0,1,.88-1.28h.69c.26,0,.33-.11.33-.29v-.92c0-.18-.07-.25-.29-.25l-3.58.09c-.17,0-.44.53-.71,1.23-1.11,2.5-6.44,14.12-6.74,15h-.15l-6.61-15.4c-.15-.44-.4-.8-.92-.8s-.8.58-1,.95c-.73,1.83-8.18,22.29-8.55,23.1a1.79,1.79,0,0,1-1.61,1.2H2.9c-.22,0-.26.11-.26.3v1c0,.11.08.19.22.19.3,0,3.56-.11,5.61-.11,2.26,0,3.5.11,3.87.11s.29-.11.29-.3V58c0-.19,0-.3-.25-.3h-1c-.88,0-1.24-.51-1.24-1,0-2,4.16-14.07,5.26-17.29h.15l5.26,13.06s1.2,2.86,1.95,2.86c1.15,0,2.87-4,2.87-4s4.94-11,5.23-11.78l.07,0,5.69,16.89a.87.87,0,0,1-.88,1.27h-.69c-.26,0-.33.11-.33.3v.91c0,.18.07.26.29.26s1.23,0,3-.07a1,1,0,0,0,.69-.31,1.11,1.11,0,0,0,.37-.49c.15-.4,6.62-14,6.95-15.05h.14L52.81,58.2c.15.44.4.81.91.81,2,0,2.61-.78,3.39-3,.41-1.15,2.79-7.86,5-13.56C64.63,35.66,68.57,33.68,72.53,33.68ZM90,47.25c-.37,0-7.29.11-10.35.11s-4.76-.11-5.2-.11c-.14,0-.21.07-.21.29v.84c0,.18.07.33.29.33H76.1c1,0,1.32.37,1.32,1.68v2.67c0,1.9-.07,2.92-.88,3.36-1.24.66-2.63.61-5,.61-3.63,0-6.24-2.28-9.24-4.7-.46-.37-.71-.19-.83,0s-.59,1.39-.72,1.7A.87.87,0,0,0,61,55.09c2.52,2.8,6.82,4,10.29,4a21.1,21.1,0,0,0,10.38-2.41c.36-.14.58-.29.58-.58s-.14-.66-.14-1.17V50.06c0-1.06.44-1.35,1.09-1.35h6.92c.22,0,.29-.07.29-.29V47.5C90.4,47.32,90.33,47.25,90,47.25Z" fill="#fff"/><path d="M124.53,41.26a6.84,6.84,0,0,1-.69,3.22A5.83,5.83,0,0,1,122,46.59a8.29,8.29,0,0,1-2.69,1.17,13.23,13.23,0,0,1-3.17.37h-2.54v8.23h-5.11V34.55h7.77a13.87,13.87,0,0,1,3.24.35A7.66,7.66,0,0,1,122.12,36a5.35,5.35,0,0,1,1.76,2.06A7,7,0,0,1,124.53,41.26Zm-5.11,0a2.4,2.4,0,0,0-.3-1.26,2.07,2.07,0,0,0-.81-.77,3.24,3.24,0,0,0-1.15-.37,9.58,9.58,0,0,0-1.33-.09h-2.24v5.14h2.15a7.7,7.7,0,0,0,1.38-.12,3.69,3.69,0,0,0,1.18-.43,2.3,2.3,0,0,0,.82-.82A2.47,2.47,0,0,0,119.42,41.29Z" fill="#fff"/><path d="M140.15,56.36l-1.64-4.29h-8.19l-1.55,4.29h-5.56l8.87-21.81h5l8.79,21.81Zm-5.67-16-2.69,7.48h5.31Z" fill="#fff"/><path d="M156.07,47.11v9.25H151V47.11L143,34.55h6.18l4.51,8.07,4.52-8.07h6Z" fill="#fff"/><path d="M177.11,56.36l-4.6-8.66h-1.74v8.66h-5V34.55h8.07a13.25,13.25,0,0,1,3,.32,7.66,7.66,0,0,1,2.6,1.09,5.66,5.66,0,0,1,1.84,2,6.48,6.48,0,0,1,.69,3.14,5.91,5.91,0,0,1-1.17,3.73A6.38,6.38,0,0,1,177.56,47l5.52,9.34Zm-.21-15.13a2.25,2.25,0,0,0-.32-1.25,2.21,2.21,0,0,0-.81-.74,3.52,3.52,0,0,0-1.11-.35,8.12,8.12,0,0,0-1.18-.09h-2.74v5.08h2.43a8.25,8.25,0,0,0,1.3-.11,4.11,4.11,0,0,0,1.2-.38,2.33,2.33,0,0,0,.88-.8A2.45,2.45,0,0,0,176.9,41.23Z" fill="#fff"/><path d="M207.64,45.36a12.48,12.48,0,0,1-.87,4.73,10.53,10.53,0,0,1-6.06,6,12.62,12.62,0,0,1-4.6.83,12.49,12.49,0,0,1-4.59-.83,10.63,10.63,0,0,1-6.05-6,12.48,12.48,0,0,1-.86-4.73,12.3,12.3,0,0,1,.86-4.73A10.37,10.37,0,0,1,187.88,37a10.81,10.81,0,0,1,3.64-2.28,12.9,12.9,0,0,1,4.59-.8,13,13,0,0,1,4.6.8A10.9,10.9,0,0,1,204.37,37a10.34,10.34,0,0,1,2.4,3.59A12.3,12.3,0,0,1,207.64,45.36Zm-5.47,0a7.64,7.64,0,0,0-.45-2.65,6.14,6.14,0,0,0-1.24-2.11,5.57,5.57,0,0,0-1.91-1.39,5.86,5.86,0,0,0-2.46-.51,5.78,5.78,0,0,0-4.36,1.9,5.84,5.84,0,0,0-1.24,2.11,7.88,7.88,0,0,0-.44,2.65,8,8,0,0,0,.45,2.72,6.49,6.49,0,0,0,1.24,2.15,6,6,0,0,0,6.8,1.4,6,6,0,0,0,1.91-1.4,6.18,6.18,0,0,0,1.25-2.15A8,8,0,0,0,202.17,45.36Z" fill="#fff"/><path d="M211,56.36V34.55h5.13V51.77h8.19v4.59Z" fill="#fff"/><path d="M226.73,56.36V34.55h5.14V51.77h8.18v4.59Z" fill="#fff"/><path d="M254.92,42.22a3.77,3.77,0,0,0-3.22-1.61,4,4,0,0,0-1.16.18,3.47,3.47,0,0,0-1.08.56,2.77,2.77,0,0,0-1.08,2.28,2.54,2.54,0,0,0,.29,1.27,2.77,2.77,0,0,0,.75.85,4.64,4.64,0,0,0,1.08.58l1.26.45c.54.18,1.09.38,1.64.59a5.94,5.94,0,0,1,1.48.83A4.11,4.11,0,0,1,256,49.49a4.19,4.19,0,0,1,.42,2,4.45,4.45,0,0,1-.45,2.07A4.31,4.31,0,0,1,254.77,55a4.81,4.81,0,0,1-1.62.84,6.51,6.51,0,0,1-1.84.27A7.49,7.49,0,0,1,249.9,56a6,6,0,0,1-1.34-.45,5.26,5.26,0,0,1-1.19-.74,5.38,5.38,0,0,1-1-1.05l1.37-1a4.24,4.24,0,0,0,1.42,1.44,3.94,3.94,0,0,0,2.14.58,4,4,0,0,0,1.21-.2,3.13,3.13,0,0,0,1.11-.59,3.18,3.18,0,0,0,.81-1,2.7,2.7,0,0,0,.32-1.35,2.63,2.63,0,0,0-1.16-2.32,5.31,5.31,0,0,0-1.21-.63l-1.43-.5c-.52-.16-1-.35-1.52-.56a5.21,5.21,0,0,1-1.34-.83,3.77,3.77,0,0,1-1-1.26,4.22,4.22,0,0,1-.36-1.84,4.05,4.05,0,0,1,1.63-3.38,5,5,0,0,1,1.6-.79,6.26,6.26,0,0,1,1.74-.25,5.8,5.8,0,0,1,2.71.58,4.64,4.64,0,0,1,1.69,1.37Z" fill="#fff"/><path d="M275.17,47.67a9.07,9.07,0,0,1-.61,3.38,8.1,8.1,0,0,1-1.71,2.66,7.69,7.69,0,0,1-2.57,1.76,8.57,8.57,0,0,1-6.45,0,7.79,7.79,0,0,1-2.57-1.76,8.08,8.08,0,0,1-1.7-2.66,9.52,9.52,0,0,1,0-6.76,7.84,7.84,0,0,1,4.27-4.43,8.57,8.57,0,0,1,6.45,0,7.84,7.84,0,0,1,2.57,1.76,8,8,0,0,1,1.71,2.67A9,9,0,0,1,275.17,47.67Zm-1.67,0a7.87,7.87,0,0,0-.44-2.67,6.72,6.72,0,0,0-1.27-2.23,6,6,0,0,0-2-1.53,6.66,6.66,0,0,0-5.39,0,5.83,5.83,0,0,0-2,1.53A6.74,6.74,0,0,0,261.05,45a8.13,8.13,0,0,0-.44,2.67,8.21,8.21,0,0,0,.44,2.67,6.79,6.79,0,0,0,1.28,2.22,6.19,6.19,0,0,0,2,1.52,6.35,6.35,0,0,0,7.43-1.52,6.77,6.77,0,0,0,1.27-2.22A8,8,0,0,0,273.5,47.68Z" fill="#fff"/><path d="M280.06,54.24h7.25v1.45h-8.84v-16h1.59Z" fill="#fff"/><path d="M294.9,56.1a5.85,5.85,0,0,1-2.88-.62,5.16,5.16,0,0,1-1.78-1.58,5.82,5.82,0,0,1-.91-2.07,9.65,9.65,0,0,1-.26-2.12V39.64h1.59v9.89a7.88,7.88,0,0,0,.22,1.89,4.62,4.62,0,0,0,.71,1.63,3.78,3.78,0,0,0,1.31,1.16,4.79,4.79,0,0,0,4,0,3.74,3.74,0,0,0,1.3-1.16,4.82,4.82,0,0,0,.72-1.63,7.88,7.88,0,0,0,.22-1.89V39.64h1.58V49.71a9.61,9.61,0,0,1-.25,2.12,5.82,5.82,0,0,1-.91,2.07,5.15,5.15,0,0,1-1.8,1.58A5.84,5.84,0,0,1,294.9,56.1Z" fill="#fff"/><path d="M309.77,55.69h-1.58V41.09H303V39.64h12v1.45h-5.21Z" fill="#fff"/><path d="M318.9,55.69h-1.58v-16h1.58Z" fill="#fff"/><path d="M338.43,47.67a9.07,9.07,0,0,1-.61,3.38,8.1,8.1,0,0,1-1.71,2.66,7.69,7.69,0,0,1-2.57,1.76,8.57,8.57,0,0,1-6.45,0,7.79,7.79,0,0,1-2.57-1.76,8.08,8.08,0,0,1-1.7-2.66,9.52,9.52,0,0,1,0-6.76,7.84,7.84,0,0,1,4.27-4.43,8.57,8.57,0,0,1,6.45,0,7.84,7.84,0,0,1,2.57,1.76,8,8,0,0,1,1.71,2.67A9,9,0,0,1,338.43,47.67Zm-1.67,0a8.13,8.13,0,0,0-.44-2.67,6.72,6.72,0,0,0-1.27-2.23,6,6,0,0,0-2-1.53,6.66,6.66,0,0,0-5.39,0,5.83,5.83,0,0,0-2,1.53A6.74,6.74,0,0,0,324.31,45a8.13,8.13,0,0,0-.44,2.67,8.21,8.21,0,0,0,.44,2.67,6.79,6.79,0,0,0,1.28,2.22,6.19,6.19,0,0,0,2,1.52,6.35,6.35,0,0,0,7.43-1.52,6.77,6.77,0,0,0,1.27-2.22A8.21,8.21,0,0,0,336.76,47.68Z" fill="#fff"/><path d="M352.77,53.31h.05V39.64h1.58v16h-2l-9.06-13.81h0V55.69h-1.59v-16h2Z" fill="#fff"/><path d="M366.08,42.22a3.76,3.76,0,0,0-3.21-1.61,4.06,4.06,0,0,0-1.17.18,3.53,3.53,0,0,0-1.07.56,2.78,2.78,0,0,0-.79.94,3,3,0,0,0-.29,1.34,2.54,2.54,0,0,0,.28,1.27,2.68,2.68,0,0,0,.76.85,4.38,4.38,0,0,0,1.07.58l1.27.45c.54.18,1.08.38,1.63.59a5.77,5.77,0,0,1,1.48.83,4,4,0,0,1,1.08,1.29,4.32,4.32,0,0,1,.41,2,4.58,4.58,0,0,1-.44,2.07A4.34,4.34,0,0,1,365.93,55a4.63,4.63,0,0,1-1.62.84,6.45,6.45,0,0,1-1.84.27,7.49,7.49,0,0,1-1.41-.14,6.4,6.4,0,0,1-1.34-.45,5.19,5.19,0,0,1-1.18-.74,5.38,5.38,0,0,1-1-1.05l1.36-1a4.34,4.34,0,0,0,1.42,1.44,4.06,4.06,0,0,0,3.35.38,3.26,3.26,0,0,0,1.93-1.56,2.81,2.81,0,0,0,.32-1.35,2.84,2.84,0,0,0-.32-1.4,2.77,2.77,0,0,0-.85-.92,5.11,5.11,0,0,0-1.21-.63l-1.43-.5a16.07,16.07,0,0,1-1.51-.56,5.44,5.44,0,0,1-1.35-.83,3.88,3.88,0,0,1-.95-1.26,4.08,4.08,0,0,1-.37-1.84,4.15,4.15,0,0,1,.45-2,4.43,4.43,0,0,1,1.18-1.39,5,5,0,0,1,1.61-.79,6.15,6.15,0,0,1,1.74-.25,5.79,5.79,0,0,1,2.7.58,4.56,4.56,0,0,1,1.69,1.37Z" fill="#fff"/></svg>