<svg xmlns="http://www.w3.org/2000/svg" viewBox="0 0 246.96 177.52"><title>stacked-color</title><path d="M122.71,27c-11.34-2-19.85,1-25.45-9,12.57,8.24,26.49,0,31.74,12.76A9.85,9.85,0,0,0,122.71,27Z" fill="#eb0029"/><path d="M138.25,33.07h-5.84a10.07,10.07,0,0,0-3.85-8.77l0,0c-7.95-7.7-30.53-1.63-36.75-14.41,7.49,7.17,32.72,2,42.79,10.36C139.5,24.33,140.12,29,138.25,33.07Z" fill="#eb0029"/><path d="M120.39,6.92C136,6.7,138.63,17,138.73,20.64,131.17,6,93.1,19.39,86.65-.53,86.65-.53,91.89,7.32,120.39,6.92Z" fill="#eb0029"/><path d="M126.73,47.28c.07.93,2.38,41.07,3.39,58.61,1.66-.06,3.33-.17,5-.13l.26-4.81-.25,4.44,0,.37c-.82,0-1.91-.12-2.73-.09.52-15.37,1.88-47.31,2.23-57.28a1.5,1.5,0,0,0-1.5-1.55H130s1.66-.92,3.13-1.78a8.84,8.84,0,0,0,3.23-3.2c1.24-2.15,2.52-5,2.52-5H116.12C119.15,36.9,126.34,42.45,126.73,47.28Z" fill="#b1aecc"/><path d="M196.56,41a4.21,4.21,0,0,0-4.21-4.14H149.23a9.59,9.59,0,0,0-4.75,1.86c-3,2-5.8,5.21-6,8.24-.08.78-2,34.7-3.12,54l-.26,4.81c-1.66,0-3.32.07-5,.13-1-17.54-3.32-57.68-3.39-58.61-.39-4.84-7.59-10.39-10.61-10.39h-3.21a6.62,6.62,0,0,0-5.79,3.32c-1.3,2.13-43.33,71.89-43.33,71.89-2.66,4.59-6,7.86-11.61,8l-.85,6h32.4l1-6c-7.74,0-10.16-1.21-10.16-5.44,0-3.63,2.54-9.67,8.71-20.31H110c1.21,12.82,1.57,16.44,1.57,18.74,0,6-1.81,7-10.16,7l-1,6H166v-6c-9.31-.73-10.33-2.3-10.33-12.57l.11-22.73c15,0,16.69,6.41,17.77,15.48h5.52V62h-5.52c-1.09,9.07-2.78,15.48-17.77,15.48V58.06c0-3.72-.11-7.87.07-10.54a3.1,3.1,0,0,1,3.28-2.64h2.45c19.87,0,26.2,6.29,29.1,21.52H197ZM86.88,87.56l18.44-31c.6-1.09.85-1.33,1.21-1.33s.6.36.73,1.33l2.12,31Z" fill="#022169"/><path d="M133.12,45.06c-1.47.86-3.13,1.78-3.13,1.78h3.11a1.5,1.5,0,0,1,1.5,1.55c-.35,10-1.72,41.91-2.23,57.28.82,0,1.91.07,2.73.09l0-.37.25-4.44c1.1-19.26,3-53.18,3.12-54,.18-3,3-6.26,6-8.24a9.59,9.59,0,0,1,4.75-1.86H138.88s-1.28,2.81-2.52,5A8.84,8.84,0,0,1,133.12,45.06Z" fill="#fff"/><polygon points="132.56 120.06 128.97 109.02 117.36 109.02 126.75 102.19 123.16 91.15 132.56 97.98 141.95 91.15 138.36 102.19 147.75 109.02 136.15 109.02 132.56 120.06" fill="#fff"/><path d="M15.67,170.64v-1.47c2.1,0,3.1-.4,3.1-1.5a5.38,5.38,0,0,0-.4-1.8l-1.47-4.24H8.16c-1.4,4.07-1.6,5.21-1.6,5.91,0,1.33.87,1.57,3,1.63v1.47H1.22v-1.47c1.9-.07,2.44-1.5,3.44-4.07L12.17,146H15.3c.63,2.34,1.4,4.61,2.14,6.61l5.21,14.25a3.14,3.14,0,0,0,2.94,2.3v1.47Zm.63-10.75L13,150.49c-.07-.23-.17-.47-.37-.47s-.3.27-.4.53L8.83,159.9Z" fill="#022169"/><path d="M27.1,170.64v-1.47c1.6,0,2.4-.4,2.4-2.67v-8.34c0-1.8-.6-2.64-2.2-2.8V154l5.61-1v2.7c0,.1,0,.1.1.1s.2-.13.73-.63A6.77,6.77,0,0,1,38.44,153a4.44,4.44,0,0,1,3.9,1.7c.73.9.7,1.3.9,1.3s.2-.3,1.33-1.24A6.36,6.36,0,0,1,49,153c2.64,0,4.77,1.4,4.77,4.47v9c0,2.27.8,2.67,2.4,2.67v1.47H47.92v-1.47c1.6,0,2.4-.4,2.4-2.67v-8c0-2.07-1.13-3-2.87-3a5.17,5.17,0,0,0-4.14,2.67v8.34c0,2.27.8,2.67,2.4,2.67v1.47H37.51v-1.47c1.6,0,2.4-.4,2.4-2.67v-8c0-2.07-1.13-3-2.87-3s-3.17,1.3-4.14,2.67v8.34c0,2.27.8,2.67,2.4,2.67v1.47Z" fill="#022169"/><path d="M57.63,170.64v-1.47c2.87-.07,3.6-.8,3.6-2.67V150.69c0-1.87-.73-2.6-3.6-2.67v-1.47h15c2,0,4-.17,6-.27v7.94H77.08c-.37-4.74-1.4-6.21-8.38-6.21H65.3c-.1,1.57-.2,3-.2,4.41v4.94c5.14-.07,5.74-.87,6-4.07h1.47v9.61H71.11c-.27-3.2-.87-4-6-4.07v7.68c0,1.87.73,2.6,3.6,2.67v1.47Z" fill="#022169"/><path d="M80,170.64v-1.47c2.07,0,2.87-.4,2.87-2.67v-8.34c0-1.8-.6-2.64-2.8-2.8V154l6.21-1v13.48c0,2.27.8,2.67,2.87,2.67v1.47Zm4.5-25.23a2.07,2.07,0,1,1-2.07,2.07A2,2,0,0,1,84.47,145.42Z" fill="#022169"/><path d="M90.2,170.64v-1.47c1.8,0,2.6-.4,2.6-2.67v-9c0-1.6-.63-2.17-2.74-2.37v-1.33l5.81-.73v3.9c0,.23,0,.37.23.37s.13-.17,1.07-1.6a5.19,5.19,0,0,1,4.37-2.67c2,0,3.27,1.24,3.27,2.57a2.53,2.53,0,0,1-2.8,2.84,4.78,4.78,0,0,1-1-.1,2.57,2.57,0,0,0,.23-1.17c0-1.13-.67-1.67-1.44-1.67-1.5,0-3.64,2.6-3.64,6.24v4.77c0,2.14.73,2.67,3.4,2.67v1.47Z" fill="#022169"/><path d="M107.93,164.64c.4,2.87,2.4,4.94,5,4.94,2.07,0,3.34-1.27,3.34-3,0-4.44-9.81-2.5-9.81-8.51,0-3.2,2.47-5.07,5.81-5.07a19.62,19.62,0,0,1,4,.67,1.52,1.52,0,0,0,.9-.27h.87v5.14h-1.47c-.83-3.14-2.67-4.07-4.6-4.07a2.54,2.54,0,0,0-2.74,2.5c0,4.1,9.81,1.94,9.81,8.54,0,3.24-2.47,5.51-6.14,5.51-2.14,0-3.6-.8-4.5-.8a1,1,0,0,0-.7.4h-1.47v-6Z" fill="#022169"/><path d="M125.93,148.69v4.74h4.94v1.87h-4.94v11.61c0,1.27.8,2,2.27,2a7,7,0,0,0,2.6-.53V170a9.75,9.75,0,0,1-4.4,1.07c-2.67,0-3.87-1.37-3.87-3.47V155.29H120V154a19.84,19.84,0,0,0,4.81-5.27Z" fill="#022169"/><path d="M162.73,166.71a12,12,0,0,1-9.48,4.47c-7.34,0-12-5.41-12-12.58S146,146,153.46,146a39,39,0,0,1,8,.8v7.74H159.8c-.1-5.07-2.6-7.07-6.34-7.07-5.07,0-7.87,4.2-7.87,10.78,0,6.77,3.87,10.91,8.41,10.91a10.12,10.12,0,0,0,7.54-3.74Z" fill="#022169"/><path d="M181.13,170.64a14.5,14.5,0,0,1-3.24.4,2,2,0,0,1-2.07-1.27c-.23-.6-.17-1.2-.5-1.2-.63,0-1.84,2.47-5.81,2.47-3.14,0-5.27-1.8-5.27-4.87,0-2.3,1.17-3.94,6.67-5.34,4.61-1.17,4.61-1.07,4.61-3.27,0-2-1.07-3.07-3.17-3.07-1.57,0-2.5.8-2.5,1.8a3.29,3.29,0,0,0,.4,1.54,3.76,3.76,0,0,1-2.54,1.13,2,2,0,0,1-2-2.14c0-2.07,2.27-3.8,6.34-3.8,4.67,0,6.74,1.67,6.74,5.27V167c0,1.6.43,2.47,2.34,2.47Zm-5.61-9.54c-3.1,1.13-7.41,1.54-7.41,4.84a2.69,2.69,0,0,0,2.74,3c2.37,0,4.67-1.74,4.67-6.07Z" fill="#022169"/><path d="M180.62,177v-1.47c1.8-.07,2.54-.8,2.54-2.67V157.46c0-1.6-.63-2.17-2.34-2.37v-1.33l5.74-.73v2.17c0,.2.07.23.17.23s.27-.2.7-.53A7.08,7.08,0,0,1,192,153c4,0,6.47,2.8,6.47,8.44S195,171,190.37,171a7.23,7.23,0,0,1-3.8-1.07v2.87c0,1.87.73,2.6,3.4,2.67V177Zm5.94-10.58a3.14,3.14,0,0,0,3.47,3.17c3,0,4.91-2.94,4.91-7.08,0-4.41-1.83-7-4.44-7a5.31,5.31,0,0,0-3.94,2Z" fill="#022169"/><path d="M199.49,170.64v-1.47c2.07,0,2.87-.4,2.87-2.67v-8.34c0-1.8-.6-2.64-2.8-2.8V154l6.21-1v13.48c0,2.27.8,2.67,2.87,2.67v1.47Zm4.5-25.23a2.07,2.07,0,1,1-2.07,2.07A2,2,0,0,1,204,145.42Z" fill="#022169"/><path d="M214.12,148.69v4.74h4.94v1.87h-4.94v11.61c0,1.27.8,2,2.27,2a7,7,0,0,0,2.6-.53V170a9.75,9.75,0,0,1-4.41,1.07c-2.67,0-3.87-1.37-3.87-3.47V155.29h-2.54V154a19.86,19.86,0,0,0,4.81-5.27Z" fill="#022169"/><path d="M237,170.64a14.5,14.5,0,0,1-3.24.4,2,2,0,0,1-2.07-1.27c-.23-.6-.17-1.2-.5-1.2-.63,0-1.84,2.47-5.81,2.47-3.14,0-5.27-1.8-5.27-4.87,0-2.3,1.17-3.94,6.67-5.34,4.61-1.17,4.61-1.07,4.61-3.27,0-2-1.07-3.07-3.17-3.07-1.57,0-2.5.8-2.5,1.8a3.29,3.29,0,0,0,.4,1.54A3.76,3.76,0,0,1,223.6,159a2,2,0,0,1-2-2.14c0-2.07,2.27-3.8,6.34-3.8,4.67,0,6.74,1.67,6.74,5.27V167c0,1.6.43,2.47,2.34,2.47Zm-5.61-9.54c-3.1,1.13-7.41,1.54-7.41,4.84a2.69,2.69,0,0,0,2.74,3c2.37,0,4.67-1.74,4.67-6.07Z" fill="#022169"/><path d="M238,170.64v-1.47c2.07,0,2.87-.4,2.87-2.67V149.85c0-1.6-.63-2.17-2.74-2.37v-1.33l6.14-.73v21.09c0,2.27.8,2.67,2.87,2.67v1.47Z" fill="#022169"/></svg>