<svg xmlns="http://www.w3.org/2000/svg" viewBox="0 0 381.07 100.94"><title>white</title><path d="M330.94,71.33,315.1,62.18a24.15,24.15,0,0,0,0-18.37l15.85-9.15a2.69,2.69,0,0,0-.66-4.93,2.66,2.66,0,0,0-2,.27L312.51,39.1A24.23,24.23,0,0,0,295.94,29V11.24a2.69,2.69,0,1,0-5.38,0V28.88a24.19,24.19,0,0,0-17,9.32l-18-10.37a2.7,2.7,0,0,0-3.67,1h0a2.69,2.69,0,0,0,1,3.68l17.85,10.3a24.14,24.14,0,0,0,0,20.42L252.9,73.51a2.69,2.69,0,0,0-1,3.67,2.7,2.7,0,0,0,3.67,1l18-10.37a24.2,24.2,0,0,0,17,9.31V98.25a2.69,2.69,0,1,0,5.38,0V77A24.23,24.23,0,0,0,312.51,66.9L328.25,76a2.69,2.69,0,0,0,2.69-4.66ZM292.7,69.95A17,17,0,1,1,309.65,53,17,17,0,0,1,292.7,69.95Z" fill="#fff"/><rect x="25.46" y="0.41" width="7.51" height="24.68" fill="#fff"/><path d="M45.26,17.28c0-3.81,1.22-4.92,5.44-4.92S56,13.14,56,16.17v8.92h6.36V15.91c0-3.07-.44-4.74-1.59-6.07C59.28,8.1,57,7.4,53.07,7.4c-5.22,0-7.1,1-8,4.4v-4H38.89V25.09h6.36Z" fill="#fff"/><path d="M70.27,25.09h6.36v-13H83V7.81H76.64V7.29c0-2.33.81-3,3.48-3,.7,0,1.33,0,2.52.07V.15C81,0,80.19,0,79.08,0c-3.37,0-5,.26-6.25,1-1.89,1.11-2.55,2.78-2.55,6.25v.55H66.83v4.33h3.44Z" fill="#fff"/><path d="M108.53,24.05c2-1.22,2.48-2.66,2.48-8.1,0-2.81-.15-4.11-.63-5.18a5.74,5.74,0,0,0-4.33-2.89,49.56,49.56,0,0,0-7.36-.48c-4.74,0-7.59.33-9.32,1.11-2.33,1.07-3,2.81-3,8,0,4.63.41,6.07,2,7.33s4.18,1.7,9.88,1.7c1.7,0,4.11-.07,5.55-.22C106.27,25.09,107.35,24.79,108.53,24.05ZM98.73,20.8c-5.22,0-6-.52-6-4.26s.74-4.44,5.74-4.44a13.77,13.77,0,0,1,4.51.41c1.26.48,1.59,1.37,1.59,4,0,2.18-.22,2.92-1,3.55S101.8,20.8,98.73,20.8Z" fill="#fff"/><rect x="305.37" y="94.57" width="2.73" height="3.02" fill="#fff"/><path d="M325.91,94.84c-.73,1.05-1.84,1.32-5.45,1.32-3.24,0-4.24-.16-5-.86s-1-1.86-1-4.1a6.89,6.89,0,0,1,.67-3.7c.7-1,1.73-1.24,5-1.24s4.43.19,5.18.89a2.32,2.32,0,0,1,.78,1.89v.27h2.11V89a4.18,4.18,0,0,0-1.32-3.13c-1.05-.95-2.75-1.27-6.56-1.27S315,85,314,85.91s-1.51,2.54-1.51,5.29.43,4.35,1.51,5.32,2.7,1.27,6.45,1.27c4.24,0,5.94-.38,7-1.59.7-.81.95-1.51,1-3.27h-2.08A3.17,3.17,0,0,1,325.91,94.84Z" fill="#fff"/><path d="M340.09,84.64c-4,0-5.75.32-6.83,1.27s-1.57,2.54-1.57,5.32.46,4.32,1.57,5.29,2.83,1.27,6.72,1.27,5.67-.32,6.75-1.27,1.57-2.54,1.57-5.29-.46-4.35-1.57-5.32S343.89,84.64,340.09,84.64Zm5.45,10.31c-.7.95-2,1.21-5.53,1.21-3.13,0-4.48-.22-5.21-.86s-1.08-1.86-1.08-4.1c0-4.29.81-4.94,6.18-4.94,3.21,0,4.56.22,5.29.86s1.08,1.86,1.08,4.08A6.76,6.76,0,0,1,345.54,94.95Z" fill="#fff"/><path d="M373,84.64c-4.56,0-6.1.59-6.94,2.7-.65-2.05-2-2.7-5.61-2.7-4.27,0-5.53.54-6.32,2.7V84.83h-1.92V97.59h1.92v-7.5c0-2.75,1.65-3.83,5.83-3.83,3.83,0,4.78.67,4.78,3.37v8h1.92v-7.5c0-2.73,1.67-3.83,5.83-3.83a8.46,8.46,0,0,1,3.37.46c1.05.46,1.4,1.16,1.4,2.92v8h1.92v-8C379.21,85.72,377.83,84.64,373,84.64Z" fill="#fff"/><polygon points="7.96 36.25 0 36.25 0 70.47 33.63 70.47 33.63 64.04 7.96 64.04 7.96 36.25" fill="#fff"/><path d="M78.27,36.25H53.06q-4.91,0-6.7,1.66t-1.79,6.43v18q0,4.78,1.79,6.43t6.7,1.66H78.27q4.91,0,6.7-1.66t1.79-6.43v-18q0-4.78-1.79-6.43T78.27,36.25ZM78.8,64H52.53V42.35H78.8Z" fill="#fff"/><path d="M131.73,36.25H111.3q-4.91,0-6.7,1.66t-1.79,6.43v18q0,4.78,1.79,6.43t6.7,1.66h20.43q4.91,0,6.7-1.66t1.79-6.43v-4l-8-1.66V64H110.77V42.35h21.49v6.5l8-1.26V44.34q0-4.78-1.79-6.43T131.73,36.25Z" fill="#fff"/><polygon points="195.21 36.25 183.67 36.25 164.7 50.51 164.7 36.25 156.67 36.25 156.67 70.47 164.7 70.47 164.7 55.42 185.19 70.47 198 70.47 172.52 52.37 195.21 36.25" fill="#fff"/><path d="M240.45,52.83q5.9-.73,5.9-5.77V42.88q0-6.63-7.69-6.63H209.34V70.47h27.2q10.08,0,10.08-6.7V59.4Q246.61,53.62,240.45,52.83Zm-23.28-11h18.17q3.65,0,3.65,2.45v3.25Q239,50,235.34,50H217.16Zm22,19.43a2.82,2.82,0,0,1-1.06,2.59,6,6,0,0,1-2.79.46H217.16V55.62h18.17a6,6,0,0,1,2.79.46,2.82,2.82,0,0,1,1.06,2.59Z" fill="#fff"/><polygon points="336.76 70.47 346.18 70.47 357.72 57.21 370.26 70.47 381.07 70.47 362.63 51.97 377.55 36.25 368.4 36.25 357.99 47.85 347.04 36.25 336.5 36.25 353.01 52.9 336.76 70.47" fill="#fff"/></svg>