<?xml version="1.0" encoding="UTF-8"?>
<svg id="Layer_1" data-name="Layer 1" xmlns="http://www.w3.org/2000/svg" viewBox="0 0 100 100">
  <defs>
    <style>
      .cls-1 {
        fill: #fff;
      }

      .cls-2 {
        fill: #1c75bc;
      }
    </style>
  </defs>
  <g id="stroke">
    <circle class="cls-1" cx="50" cy="50" r="49"/>
    <path class="cls-2" d="M50,2c26.47,0,48,21.53,48,48s-21.53,48-48,48S2,76.47,2,50,23.53,2,50,2m0-2C22.39,0,0,22.39,0,50s22.39,50,50,50,50-22.39,50-50S77.61,0,50,0h0Z"/>
  </g>
  <path id="fill" class="cls-2" d="M49.53,5.5C24.96,5.76,5.24,25.89,5.5,50.47c.26,24.58,20.39,44.29,44.97,44.03,24.57-.26,44.29-20.39,44.03-44.96-.26-24.58-20.39-44.29-44.96-44.03Z"/>
  <g>
    <path class="cls-1" d="M49.89,67.84c-.07,.13-.29,.51-.41,1.07-.06,.28-.1,.61-.1,.94,0,.33,.09,.67,.22,1,.1,.26,.24,.51,.38,.74l-.07-3.77s-.02,.02-.02,.04Z"/>
    <path class="cls-1" d="M51.17,65.15c.08-.1,.17-.19,.25-.29,.33-.41,.6-.84,.71-1.29,.06-.23,.07-.44,.06-.69-.01-.25-.05-.5-.11-.73-.14-.56-.43-1.06-.82-1.51l-.08,4.52Z"/>
    <path class="cls-1" d="M48.32,31c-.45,.5-.73,1.35-.82,2.29-.02,.23-.04,.5-.04,.71,0,.21,.01,.41,.04,.6,.06,.38,.19,.73,.41,1.07,.31,.5,.82,.97,1.43,1.42l-.12-6.69c-.36,.13-.67,.32-.9,.59Z"/>
    <path class="cls-1" d="M48.27,53.93c-.15,.99,0,1.9,.56,2.7,.25,.36,.56,.7,.9,1.03l-.11-6.1c-.74,.63-1.21,1.41-1.35,2.37Z"/>
    <path class="cls-1" d="M78.94,57.88l-12.89-7.87,12.9-7.88c.44-.27,.58-.84,.31-1.28l-7.75-12.69c-.27-.44-.84-.58-1.28-.31l-11.87,7.25v-13.9c0-.51-.42-.93-.93-.93h-14.87c-.51,0-.93,.42-.93,.93v13.9l-11.86-7.25c-.44-.27-1.01-.13-1.28,.31l-7.75,12.69c-.27,.44-.13,1.01,.31,1.28l12.9,7.88-12.9,7.88c-.44,.27-.58,.84-.31,1.28l7.75,12.69c.27,.44,.84,.58,1.28,.31l11.87-7.25v13.9c0,.51,.42,.93,.93,.93h14.87c.51,0,.93-.42,.93-.93v-13.9l11.86,7.24c.44,.27,1.01,.13,1.28-.31l7.75-12.69c.27-.44,.13-1.01-.31-1.28Zm-26.1-18.23c.93,.84,1.74,2.01,2.06,3.3,.17,.64,.24,1.29,.23,1.91,0,.63-.08,1.32-.32,1.96-.23,.65-.61,1.25-1.06,1.73-.45,.49-.95,.87-1.44,1.2-.3,.2-.59,.38-.88,.56l-.16,8.77c.35,.34,.7,.72,.99,1.14,.35,.5,.62,1.09,.74,1.7,.06,.31,.09,.61,.09,.92,0,.31-.03,.65-.13,.95-.19,.63-.56,1.14-.94,1.57-.29,.32-.59,.62-.89,.92l-.12,6.63c.12,.14,.19,.23,.17,.25-.01,.02-.08-.02-.18-.07l-.02,1.06c0,.51-.23,.93-.48,.93s-.47-.42-.48-.93l-.04-1.96c-.29-.32-.59-.71-.82-1.17-.17-.35-.3-.75-.33-1.15-.03-.4,0-.76,.05-1.09,.11-.66,.35-1.11,.42-1.26,.17-.33,.36-.63,.58-.91l-.14-7.37c-.67-.54-1.38-1.1-1.97-1.87-.38-.5-.69-1.1-.84-1.73-.16-.64-.17-1.28-.11-1.9,.06-.63,.24-1.27,.54-1.86,.3-.59,.72-1.1,1.17-1.53,.33-.31,.68-.59,1.03-.84l-.18-9.54c-.22-.13-.45-.27-.68-.41-.96-.6-2.06-1.29-2.9-2.46-.42-.58-.72-1.28-.88-1.99-.08-.35-.12-.71-.13-1.05-.01-.34,0-.63,0-.96,.03-.64,.12-1.29,.31-1.96,.2-.67,.51-1.35,.99-1.96,.48-.61,1.14-1.11,1.83-1.43,.4-.19,.81-.31,1.22-.4l-.03-1.52c0-.51,.4-.93,.91-.93h.93c.51,0,.92,.42,.91,.93l-.03,1.4c.7,.07,1.37,.2,2.02,.37,.68,.16,1.66,1.03,1.18,2.09-.51,1.12-1.5,1.11-2.04,.96-.4-.13-.81-.22-1.22-.3l-.15,8.35c.4,.29,.8,.59,1.18,.95Z"/>
    <path class="cls-1" d="M51.48,48.19c.76-.58,1.31-1.22,1.53-1.97,.12-.41,.16-.85,.14-1.32-.02-.48-.09-.95-.23-1.38-.24-.77-.7-1.41-1.31-1.98l-.12,6.65Z"/>
  </g>
</svg>