<?xml version="1.0" encoding="UTF-8"?>
<svg id="Layer_1" data-name="Layer 1" xmlns="http://www.w3.org/2000/svg" viewBox="0 0 100 100">
  <defs>
    <style>
      .cls-1 {
        fill: #f6adcd;
      }

      .cls-2 {
        fill: #fff;
      }
    </style>
  </defs>
  <g>
    <circle id="stroke" class="cls-2" cx="50" cy="50" r="50"/>
    <path id="stroke-2" data-name="stroke" class="cls-1" d="M50,2c26.47,0,48,21.53,48,48s-21.53,48-48,48S2,76.47,2,50,23.53,2,50,2m0-2C22.39,0,0,22.39,0,50s22.39,50,50,50,50-22.39,50-50S77.61,0,50,0h0Z"/>
  </g>
  <path id="fill" class="cls-1" d="M49.53,5.5C24.96,5.76,5.24,25.89,5.5,50.47c.26,24.58,20.39,44.29,44.97,44.03,24.57-.26,44.29-20.39,44.03-44.96-.26-24.58-20.39-44.29-44.96-44.03Z"/>
  <path class="cls-2" d="M67.93,73.91s-6.05-10.35-11.92-20.37c2.32-4.32,5.75-10.76,5.97-11.44,.37-1.13,2.36-5.91-.11-14.35-1.29-4.39-2.8-6.86-3.96-8.22-.01-.01-.02-.03-.03-.04-.99-1.23-2.38-2.1-3.87-2.58-1.5-.49-3.08-.63-4.64-.6-1.56,.04-3.14,.25-4.61,.82-.73,.28-1.43,.66-2.06,1.13-.63,.47-1.18,1.05-1.62,1.7-.27,.39-.49,.8-.68,1.23-.91,1.47-1.89,3.57-2.77,6.56-2.48,8.44-.48,13.22-.11,14.35,.23,.69,3.85,7.49,6.17,11.8-5.73,10.19-11.6,20.71-11.6,20.71l5.86,9.07,11.81-19.4,11.81,19.4,6.38-9.77Zm-22.67-38.61c-.49-.8-.97-1.6-1.44-2.42-.83-1.46-1.77-3.22-2.43-5.04,7.1-5.42,13.97-2.29,16.87-.46-.67,1.99-1.69,3.92-2.59,5.5-.46,.81-.95,1.62-1.44,2.42-.55,.9-2.22,3.82-4.42,7.69-2.27-3.86-4-6.79-4.56-7.69Z"/>
</svg>