<?xml version="1.0" encoding="UTF-8"?>
<svg id="Layer_1" data-name="Layer 1" xmlns="http://www.w3.org/2000/svg" viewBox="0 0 100 100">
  <defs>
    <style>
      .cls-1, .cls-2 {
        fill: #fff;
      }

      .cls-3 {
        fill: #ed1c24;
      }

      .cls-2 {
        stroke: #ed1c24;
        stroke-width: 1.99px;
      }
    </style>
  </defs>
  <g>
    <path class="cls-2" d="M99,49.48c.29,27.07-21.42,49.23-48.48,49.52C23.45,99.29,1.28,77.58,1,50.52,.71,23.45,22.42,1.28,49.49,1c27.06-.28,49.23,21.42,49.51,48.48Z"/>
    <path class="cls-3" d="M49.54,5.55C25.01,5.81,5.33,25.91,5.59,50.44c.26,24.53,20.35,44.21,44.89,43.95,24.53-.26,44.21-20.35,43.95-44.89-.26-24.53-20.35-44.21-44.89-43.95Z"/>
  </g>
  <g>
    <path class="cls-1" d="M57.93,30.94h5.81c.69,0,1.25-.53,1.25-1.18s-.56-1.18-1.25-1.18h-5.81c-.69,0-1.25,.53-1.25,1.18s.56,1.18,1.25,1.18Z"/>
    <path class="cls-1" d="M54.2,37.25h9.54c.69,0,1.25-.53,1.25-1.18s-.56-1.18-1.25-1.18h-9.54c-.69,0-1.25,.53-1.25,1.18s.56,1.18,1.25,1.18Z"/>
    <path class="cls-1" d="M63.74,41.19h-5.81c-.69,0-1.25,.53-1.25,1.18s.56,1.18,1.25,1.18h5.81c.69,0,1.25-.53,1.25-1.18s-.56-1.18-1.25-1.18Z"/>
    <path class="cls-1" d="M45.49,73.61c0,1.53,1.19,2.8,2.74,3.03v3.71h-2.67c-.89,0-1.61,.68-1.61,1.52s.72,1.52,1.61,1.52h.03v3.92c0,1.95,1.01,3.73,2.64,4.81v1.05c0,1.52,.27,2.98,.74,4.34,.93-.54,1.9-1,2.92-1.36-.29-.95-.45-1.95-.45-2.98v-1.05c1.62-1.08,2.64-2.87,2.64-4.81v-3.92h.03c.89,0,1.61-.68,1.61-1.52s-.72-1.52-1.61-1.52h-2.67v-3.68c1.71-.09,3.06-1.43,3.06-3.07v-1.52h7.04c4.85,0,8.79-3.73,8.79-8.32V27.28c0-4.59-3.94-8.32-8.79-8.32h-4.26c-.74-3.17-3.73-5.54-7.29-5.54s-6.55,2.38-7.29,5.54h-4.26c-4.85,0-8.79,3.73-8.79,8.32V63.78c0,4.59,3.94,8.32,8.79,8.32h7.04v1.52Zm-7.04-4.56c-3.08,0-5.58-2.37-5.58-5.28V27.28c0-2.91,2.5-5.28,5.58-5.28h5.69c.89,0,1.61-.68,1.61-1.52,0-2.22,1.91-4.02,4.25-4.02s4.25,1.8,4.25,4.02c0,.84,.72,1.52,1.61,1.52h5.69c3.08,0,5.58,2.37,5.58,5.28V63.78c0,2.91-2.5,5.28-5.58,5.28h-23.1Z"/>
    <ellipse class="cls-1" cx="50" cy="20.35" rx="1.88" ry="1.78"/>
    <path class="cls-1" d="M64.99,63.78v-16.85c-1.91,1.22-3.89,1.82-5.99,1.82-.4,0-.81-.02-1.23-.07-2.58-.27-5.06-1.37-7.45-2.43-4.79-2.12-9.31-4.12-14.92-.12-.12,.09-.25,.15-.39,.19v17.45c0,1.79,1.54,3.25,3.44,3.25h23.1c1.9,0,3.44-1.46,3.44-3.25Z"/>
  </g>
</svg>