<?xml version="1.0" encoding="UTF-8"?>
<svg id="Layer_1" data-name="Layer 1" xmlns="http://www.w3.org/2000/svg" viewBox="0 0 100 100">
  <defs>
    <style>
      .cls-1, .cls-2 {
        fill: #fff;
      }

      .cls-3 {
        fill: #00a770;
      }

      .cls-2 {
        stroke: #00a770;
        stroke-width: 1.99px;
      }
    </style>
  </defs>
  <path class="cls-2" d="M99,49.48c.29,27.07-21.42,49.23-48.48,49.52C23.45,99.29,1.28,77.58,1,50.52,.71,23.45,22.42,1.28,49.49,1c27.06-.28,49.23,21.42,49.51,48.48Z"/>
  <path class="cls-3" d="M94.43,49.51c.26,24.53-19.42,44.63-43.95,44.89-24.53,.26-44.63-19.42-44.89-43.95C5.33,25.91,25.01,5.81,49.54,5.55c24.53-.26,44.63,19.42,44.89,43.95Z"/>
  <path class="cls-1" d="M49.66,21.86s13.12-9.85,20.98,.47c11.09,14.56-2.2,26.37-2.2,26.37,0,0-1.72,1.1-.55,2.93,0,0,8.77,20.52-9.38,32.77,0,0-6.3,3.02-2.6-6.39,2.84-7.23-1.13-14.97-1.13-14.97,0,0-4.77-9.67-9.71,1.27,0,0-2.86,5.86-.77,19.07,0,0-.57,1.37-4.29-.54,0,0-10.14-2.42-8.38-20.14,1.37-13.78-2.91-18.06-2.91-18.06,0,0-9.06-11.19-.23-22.36,8.83-11.18,21.18-.42,21.18-.42Z"/>
</svg>