<?xml version="1.0" encoding="UTF-8"?>
<svg id="Layer_1" data-name="Layer 1" xmlns="http://www.w3.org/2000/svg" viewBox="0 0 100 100">
  <defs>
    <style>
      .cls-1 {
        fill: #00599b;
      }

      .cls-2 {
        fill: #fff;
      }
    </style>
  </defs>
  <g id="stroke">
    <circle class="cls-2" cx="50" cy="50" r="49"/>
    <path class="cls-1" d="M50,2c26.47,0,48,21.53,48,48s-21.53,48-48,48S2,76.47,2,50,23.53,2,50,2m0-2C22.39,0,0,22.39,0,50s22.39,50,50,50,50-22.39,50-50S77.61,0,50,0h0Z"/>
  </g>
  <path id="fill" class="cls-1" d="M49.53,5.5C24.96,5.76,5.24,25.89,5.5,50.47c.26,24.58,20.39,44.29,44.97,44.03,24.57-.26,44.29-20.39,44.03-44.96-.26-24.58-20.39-44.29-44.96-44.03Z"/>
  <g id="icon">
    <path class="cls-2" d="M83.25,42.7c0,1.98-1.31,3.71-3.25,4.31l-10.64,3.28,1.39,11.16c0,3.45-8.39,6.25-18.75,6.25s-18.75-2.8-18.75-6.25l1.4-11.16-5.36-1.65c-.18,.31-.36,.61-.47,.96,.78,.57,1.31,1.44,1.31,2.48s-.56,1.94-1.35,2.5l2.49,11.22c.22,.98-.53,1.9-1.53,1.9h-5.48c-1,0-1.74-.93-1.53-1.9l2.49-11.22c-.8-.57-1.35-1.45-1.35-2.5,0-1.24,.74-2.29,1.78-2.79,.13-.56,.32-1.09,.56-1.59l-2.21-.68c-1.94-.6-3.25-2.33-3.25-4.31s1.31-3.71,3.25-4.31l25.2-7.77c1.84-.56,3.77-.56,5.61,0l25.2,7.77c1.94,.6,3.25,2.33,3.25,4.31Zm-5.19,0l-24.63-7.6c-.92-.28-1.93-.28-2.85,0l-24.63,7.6,4.04,1.25c.58-.27,1.18-.49,1.83-.61l19.9-3.73c.84-.16,1.66,.39,1.82,1.25,.16,.85-.4,1.67-1.25,1.82l-16.44,3.08,14.72,4.54c.92,.28,1.93,.28,2.85,0l24.63-7.6Zm-13.25,8.99l-10,3.08c-2.46,.76-4.52,.33-5.61,0l-10-3.08-1.1,8.82c5.76,3.3,21.99,3.34,27.82,0l-1.1-8.82Z"/>
  </g>
</svg>