<?xml version="1.0" encoding="UTF-8"?>
<svg id="Layer_1" data-name="Layer 1" xmlns="http://www.w3.org/2000/svg" viewBox="0 0 100 100">
  <defs>
    <style>
      .cls-1 {
        fill: #00599b;
      }

      .cls-2 {
        fill: #fff;
      }
    </style>
  </defs>
  <g id="stroke">
    <circle class="cls-2" cx="50" cy="50" r="49"/>
    <path class="cls-1" d="M50,2c26.47,0,48,21.53,48,48s-21.53,48-48,48S2,76.47,2,50,23.53,2,50,2m0-2C22.39,0,0,22.39,0,50s22.39,50,50,50,50-22.39,50-50S77.61,0,50,0h0Z"/>
  </g>
  <path id="fill" class="cls-1" d="M49.53,5.5C24.96,5.76,5.24,25.89,5.5,50.47c.26,24.58,20.39,44.29,44.97,44.03,24.57-.26,44.29-20.39,44.03-44.96-.26-24.58-20.39-44.29-44.96-44.03Z"/>
  <path class="cls-2" d="M69.19,51.86l3.11,1.79c.92,.53,1.37,1.62,1.09,2.64-1.11,4.15-3.31,7.87-6.26,10.82-.75,.75-1.91,.9-2.83,.37l-3.1-1.79c-.84,.6-2.28,1.43-3.21,1.86v3.59c0,1.06-.72,1.99-1.74,2.27-4.08,1.09-8.42,1.08-12.49,0-.96-.26-1.74-1.27-1.74-2.27v-3.59c-.94-.43-2.38-1.26-3.21-1.86l-3.1,1.79c-.92,.53-2.08,.38-2.83-.37-2.95-2.95-5.14-6.67-6.26-10.82-.27-1.03,.17-2.11,1.09-2.64l3.11-1.79c-.05-.51-.09-1.34-.09-1.86s.04-1.34,.09-1.86l-3.11-1.8c-.92-.53-1.37-1.62-1.09-2.64,1.11-4.15,3.31-7.87,6.26-10.82,.75-.75,1.91-.9,2.83-.37l3.1,1.79c.84-.6,2.28-1.43,3.21-1.86v-3.59c0-1.06,.72-1.99,1.74-2.27,4.08-1.09,8.42-1.08,12.49,0,.96,.26,1.74,1.27,1.74,2.27v3.59c.94,.43,2.38,1.26,3.21,1.86l3.1-1.79c.92-.53,2.08-.38,2.83,.37,2.95,2.95,5.14,6.67,6.26,10.82,.27,1.03-.17,2.11-1.09,2.64l-3.11,1.79c.12,1.24,.12,2.48,0,3.71Zm-5.14-6.15l4.28-2.47c-.64-1.73-2.12-4.29-3.31-5.72l-4.28,2.47c-3.12-2.67-3.58-2.94-7.44-4.3v-4.94c-.9-.15-2.38-.28-3.3-.28s-2.4,.13-3.3,.28v4.94c-3.86,1.36-4.31,1.62-7.44,4.3l-4.28-2.47c-1.42,1.71-2.54,3.64-3.31,5.72l4.28,2.47c-.75,4.04-.75,4.56,0,8.6l-4.28,2.47c.64,1.73,2.12,4.29,3.31,5.71l4.28-2.47c3.12,2.67,3.58,2.94,7.44,4.3v4.94c.91,.15,2.38,.28,3.3,.28s2.4-.12,3.3-.28v-4.94c3.86-1.36,4.31-1.62,7.44-4.3l4.28,2.47c1.18-1.42,2.66-3.98,3.31-5.71l-4.28-2.47c.75-4.04,.75-4.56,0-8.6Zm-4.67,4.3c0,5.17-4.21,9.38-9.38,9.38s-9.38-4.21-9.38-9.38,4.21-9.38,9.38-9.38,9.38,4.21,9.38,9.38Zm-4.69,0c0-2.58-2.1-4.69-4.69-4.69s-4.69,2.1-4.69,4.69,2.1,4.69,4.69,4.69,4.69-2.1,4.69-4.69Z"/>
</svg>