<?xml version="1.0" encoding="UTF-8"?>
<svg id="Layer_1" data-name="Layer 1" xmlns="http://www.w3.org/2000/svg" viewBox="0 0 100 100">
  <defs>
    <style>
      .cls-1 {
        fill: #66b2e3;
      }

      .cls-2, .cls-3 {
        fill: #fff;
      }

      .cls-3 {
        stroke: #66b2e3;
        stroke-width: 1.99px;
      }
    </style>
  </defs>
  <g>
    <path class="cls-3" d="M99,49.48c.29,27.07-21.42,49.23-48.48,49.52C23.45,99.29,1.28,77.58,1,50.52,.71,23.45,22.42,1.28,49.49,1c27.06-.28,49.23,21.42,49.51,48.48Z"/>
    <path class="cls-1" d="M49.54,5.55C25.01,5.81,5.33,25.91,5.59,50.44c.26,24.53,20.35,44.21,44.89,43.95,24.53-.26,44.21-20.35,43.95-44.89-.26-24.53-20.35-44.21-44.89-43.95Z"/>
  </g>
  <g>
    <path class="cls-2" d="M59.38,11.55l-5.34-8.83c-1.35,.19-2.69,.28-4.03,.31l6.28,10.39c.33,.55,3.12,5.5-2.14,8.68-5.21,3.15-8.34-1.6-8.67-2.14-1.79-2.94-6.92-7.43-13.66-3.37-6.72,4.08-5.14,10.71-3.36,13.64l3.27,5.4c.47-.35,.97-.69,1.49-1.01,.51-.32,1.05-.6,1.59-.87l-3.25-5.38c-.34-.56-3.12-5.5,2.14-8.68,5.2-3.15,8.34,1.6,8.67,2.14,1.78,2.95,6.92,7.44,13.65,3.36,6.73-4.06,5.14-10.7,3.36-13.65Z"/>
    <path class="cls-2" d="M34.07,36.03c-8.56,5.18-11.31,16.32-6.13,24.89l10.43,17.23c2.59,4.28,6.67,7.1,11.17,8.22,4.5,1.11,9.43,.5,13.72-2.08,8.56-5.18,11.31-16.32,6.13-24.89l-10.43-17.23c-2.59-4.29-6.66-7.12-11.18-8.23-4.5-1.11-9.44-.5-13.71,2.09Zm25.16,20.96c.49-.31,1.14-.14,1.45,.36l5.11,8.46c.3,.5,.14,1.15-.36,1.46l-3.91,2.36,2.36,3.9c.3,.5,.14,1.15-.36,1.46l-8.46,5.11c-.5,.3-1.15,.14-1.45-.36l-2.36-3.91-3.9,2.36c-.5,.3-1.16,.14-1.46-.36l-5.11-8.46c-.3-.5-.14-1.15,.36-1.46l3.9-2.35-2.36-3.91c-.3-.5-.14-1.15,.36-1.46l8.46-5.11c.5-.3,1.15-.14,1.46,.36l2.36,3.91,3.91-2.36Zm-17.58-12.51l3.74,6.17c.56,.94,.27,2.18-.68,2.75-.48,.29-1.02,.35-1.51,.23-.5-.12-.96-.44-1.24-.91l-3.73-6.18c-.57-.95-.27-2.18,.68-2.74,.47-.29,1.01-.35,1.51-.23,.5,.12,.95,.43,1.23,.91Z"/>
  </g>
</svg>