<?xml version="1.0" encoding="UTF-8"?>
<svg id="Layer_1" data-name="Layer 1" xmlns="http://www.w3.org/2000/svg" viewBox="0 0 100 100">
  <defs>
    <style>
      .cls-1, .cls-2 {
        fill: #fff;
      }

      .cls-3 {
        fill: #4d62ad;
      }

      .cls-2 {
        stroke: #4d62ad;
        stroke-width: 1.99px;
      }
    </style>
  </defs>
  <g>
    <path class="cls-2" d="M99,49.48c.29,27.07-21.42,49.23-48.48,49.52C23.45,99.29,1.28,77.58,1,50.52,.71,23.45,22.42,1.28,49.49,1c27.06-.28,49.23,21.42,49.51,48.48Z"/>
    <path class="cls-3" d="M94.43,49.51c.26,24.53-19.42,44.63-43.95,44.89-24.53,.26-44.63-19.42-44.89-43.95C5.33,25.91,25.01,5.81,49.54,5.55c24.53-.26,44.63,19.42,44.89,43.95Z"/>
  </g>
  <g>
    <path class="cls-1" d="M87.01,46.85c-.16-.2-3.92-4.91-10.36-9.65-8.61-6.33-17.98-9.67-27.1-9.67s-18.49,3.34-27.1,9.67c-6.44,4.73-10.2,9.45-10.36,9.65l-1.33,1.69,1.33,1.69c.16,.2,3.92,4.91,10.36,9.65,8.61,6.33,17.98,9.67,27.1,9.67s18.49-3.34,27.1-9.67c6.44-4.73,10.2-9.45,10.36-9.65l1.33-1.69-1.33-1.69Zm-37.46,16.4c-8.11,0-14.71-6.6-14.71-14.71,0-1.27,.16-2.51,.47-3.68l-3.36-.57c-.33,1.36-.5,2.79-.5,4.25,0,5.24,2.24,9.97,5.81,13.28-4.6-1.7-8.5-4.08-11.45-6.23-3.65-2.67-6.39-5.37-7.95-7.04,1.56-1.68,4.3-4.38,7.95-7.04,2.95-2.15,6.86-4.54,11.45-6.23l2.25,2.54c2.63-2.46,6.17-3.98,10.05-3.98,8.11,0,14.71,6.6,14.71,14.71s-6.6,14.71-14.71,14.71Zm23.76-7.67c-2.95,2.15-6.86,4.54-11.45,6.23,3.57-3.31,5.81-8.04,5.81-13.28s-2.24-9.97-5.81-13.28c4.6,1.7,8.5,4.08,11.45,6.23,3.65,2.67,6.39,5.37,7.95,7.04-1.56,1.68-4.3,4.38-7.95,7.04Z"/>
    <path class="cls-1" d="M40.19,45.68c-.28,.91-.43,1.87-.43,2.86,0,5.41,4.38,9.79,9.79,9.79s9.79-4.38,9.79-9.79-4.38-9.79-9.79-9.79c-2.63,0-5.02,1.04-6.78,2.73l4.83,5.44-7.41-1.25Z"/>
  </g>
</svg>