<?xml version="1.0" encoding="UTF-8"?>
<svg id="Layer_1" data-name="Layer 1" xmlns="http://www.w3.org/2000/svg" viewBox="0 0 487.12 59.62">
  <defs>
    <style>
      .cls-1 {
        fill: #003149;
      }

      .cls-2 {
        fill: #8dbcd1;
      }
    </style>
  </defs>
  <g>
    <path class="cls-2" d="M224.96,38.57c-.42-4.34,1.94-7.28,1.99-9.76,.03-1.44-2.01-2.51-2.65-3.5-.86,1.74-1.68,3.45-2.45,5.16h0c-1.33,2.89-3.8,4.87-6.47,5.62-1.63,3.35-4.07,5.16-7.58,4.95-3.3-.2-5.66-2.65-6.68-5.81-1.2,1.47-2.75,2.52-4.98,2.93,2.75,1.8,4.34,4.08,5.01,6.04,1.01,2.95,.2,5.17-2.45,4.67-2.29-.43-5.28-1.7-7.4-5.99-5.25-10.48-.34-25.28,4.23-31.32,1.43-1.89,3.66-3.19,5.61-3.58,2.28-.46,4.17,.39,3.88,2.61-1.18,9.22-8.69,17.14-11.21,20.02-.2,2.04-.17,4-.03,5.83,3.35-.18,5.4-1.49,6.83-3.78-.17-2.04,.13-4.23,.97-6.38,.74,.09,1.47,.19,2.21,.28,.41-3.35,3.05-6.52,7.5-6.89,4.19-.35,6.19,3.16,6.23,7.39,.02,2.3-.59,4.71-1.2,6.75,1.47-.56,2.8-1.74,3.83-3.99h0c1.03-2.3,1.86-4.72,2.56-7.06-.58-1.03-1.02-2.3-.92-3.97,.09-1.54,.67-3.48,1.95-6.07,1.55,.22,3.1,.46,4.65,.71-.6,3.25-1.29,5.63-2.43,8.2,1.96,1.55,6,3.4,5.87,6.2-.15,3.15-2.65,6.69-2.42,10.83,.2,3.52,1.96,5.64,4.21,6.69,3.04-4.62,4.82-10.14,4.82-16.08,0-16.18-13.11-29.29-29.29-29.29s-29.29,13.11-29.29,29.29,13.11,29.29,29.29,29.29c9.31,0,17.58-4.35,22.95-11.12-3.68-1.58-6.75-4.71-7.16-8.89Z"/>
    <path class="cls-2" d="M198.12,46.97c1.08,.17,1.23-.93,.64-2.45-.65-1.68-2.17-3.82-4.59-5.32,.34,1.78,.8,3.31,1.35,4.59,.8,1.86,1.72,3.04,2.6,3.18Z"/>
    <path class="cls-2" d="M212.78,26.14c-.05-2.07-.72-3.59-2.44-3.48-.12,0-.31,.06-.43,.07-1.79,.4-3.13,3.37-2.9,6.19,.21,2.38,1.45,4.67,4.12,5.28,1.01-2.38,1.71-5.62,1.65-8.05Z"/>
    <path class="cls-2" d="M201.53,10.59c-1.26,.23-5.65,7.63-7.17,15.91,2.46-3.74,7.07-9.88,7.7-15.08,.07-.59-.15-.9-.54-.82Z"/>
    <path class="cls-2" d="M204.71,31.47c-.04,.65,0,1.31,.08,1.87,.39,2.55,1.66,4.36,3.07,4.41,.17,0,.29,0,.45-.03,.69-.16,1.28-.75,1.85-1.64-2.5-.76-4.35-2.53-5.44-4.6Z"/>
  </g>
  <g>
    <path class="cls-1" d="M32.5,7.09s-1.58,4.83-7.42,16.36c-2.82,5.43-5.52,10.86-8.27,16.3-2.5-10.86-5.06-21.79-7.62-32.65H0L9.45,47.5h9.98L41.36,7.09h-8.86Z"/>
    <path class="cls-1" d="M49.13,2.67c-2.69,0-5.06,1.31-5.06,4.48,0,2.63,2.1,3.34,4.07,3.34,2.63,0,4.99-1.31,4.99-4.48,0-1.79-.92-3.34-4.01-3.34Z"/>
    <polygon class="cls-1" points="38.36 47.5 47.09 47.5 51.62 16.46 42.89 16.46 38.36 47.5"/>
    <path class="cls-1" d="M68.73,20.04c4.6,0,9.78,3.4,9.78,3.4l1.38-6.03s-3.15-1.55-9.65-1.55c-8.34,0-13.92,3.88-13.92,9.61,0,5.19,4.27,7.4,8.86,9.37,2.89,1.19,6.17,2.75,6.17,5.49,0,2.15-1.77,3.76-5.25,3.76-5.25,0-11.42-3.94-11.42-3.94-.46,2.15-.98,4.24-1.44,6.33,0,0,3.87,1.79,10.97,1.79,9.32,0,14.97-4.18,14.97-10.27,0-5.13-4.2-7.28-9-9.25-3.02-1.25-6.24-2.39-6.24-5.13,0-2.33,2.23-3.58,4.79-3.58Z"/>
    <path class="cls-1" d="M93.66,2.67c-2.69,0-5.06,1.31-5.06,4.48,0,2.63,2.1,3.34,4.07,3.34,2.63,0,4.99-1.31,4.99-4.48,0-1.79-.92-3.34-4.01-3.34Z"/>
    <polygon class="cls-1" points="82.89 47.5 91.62 47.5 96.15 16.46 87.42 16.46 82.89 47.5"/>
    <path class="cls-1" d="M119.13,15.86c-10.18,0-20.09,6.33-20.09,19.28,0,8.83,5.71,13.13,14.05,13.13,10.18,0,20.16-6.33,20.16-19.28-.07-8.83-5.84-13.13-14.12-13.13Zm-4.46,28.17c-4.53,0-6.63-4.36-6.63-9.19,0-7.58,3.41-14.68,9.32-14.68,4.66,0,6.89,4.3,6.89,9.67,0,7.04-3.61,14.21-9.59,14.21Z"/>
    <path class="cls-1" d="M162.14,15.86c-7.42,0-11.75,4.83-13.39,5.79l.79-5.19h-8.8l-4.53,31.04h8.8s1.31-9.61,2.04-14.39c.92-7.04,5.52-11.88,10.37-11.88,2.82,0,4.07,1.67,4.07,4.54,0,1.55-.33,3.88-.66,6.09-.72,5.25-1.44,10.45-2.23,15.64h8.8s2.1-14.45,2.82-19.52c.2-1.61,.39-3.22,.39-4.42,0-4.6-3.09-7.7-8.47-7.7Z"/>
    <path class="cls-1" d="M247.33,47.5h24.29l.84-5.91s-5.31,1.49-12.36,1.49h-3.76l1.73-14.5h14.57c.24-1.43,.42-2.81,.66-4.18h-14.68c.6-4.3,1.19-8.6,1.73-12.95h2.81c7.1,0,12.18,1.49,12.18,1.49,.24-1.97,.54-3.94,.78-5.85h-23.34l-5.43,40.41Z"/>
    <path class="cls-1" d="M299.62,16.46s-1.07,4.78-6.09,15.7l-3.76,8.24c-1.49-7.94-2.93-15.94-4.36-23.94h-7.76l5.73,31.04h8.36l15.16-31.04h-7.28Z"/>
    <path class="cls-1" d="M316.99,34.43c6.75,0,14.98-4.48,14.98-12,0-4.3-3.58-6.57-8.77-6.57-8.83,0-18.33,6.86-18.33,20.77,0,7.28,4.24,11.7,12.36,11.7,7.34,0,11.88-3.7,11.88-3.64l.96-4.54c0,.06-4.3,3.04-9.25,3.04-6.03,0-8.18-3.34-8.18-7.94,0-.72,.06-1.13,.06-1.31,.3,.06,1.67,.48,4.3,.48Zm4.3-14.56c2.09,0,3.58,1.25,3.58,3.82,0,4.3-3.94,6.92-8.66,6.92-1.85,0-2.75-.24-2.92-.24,.83-4.72,3.7-10.51,8-10.51Z"/>
    <path class="cls-1" d="M357.88,15.8c-4,0-6.63,1.85-8.72,3.58-1.13,.96-2.51,2.39-2.87,2.81,.24-1.97,.54-3.82,.78-5.73h-7.94l-4.12,31.04h7.94l1.73-13.01c.9-6.86,3.7-12.48,8.95-12.48,2.09,0,4.42,1.19,4.42,1.19,.54-2.39,1.07-4.78,1.61-7.22-.24,0-1.19-.18-1.79-.18Z"/>
    <path class="cls-1" d="M384.27,16.46s-1.43,6.03-5.61,16.18c-1.85,4.42-2.69,6.21-3.1,7.1l-4.9-23.28h-8.18c2.33,9.25,4.72,18.5,7.1,27.76,1.01,.72,2.03,1.43,3.04,2.09-.42,.84-.84,1.61-1.31,2.45-1.13,2.03-3.4,5.73-8.12,5.73-2.21,0-4-.78-4.06-.78-.24,1.61-.54,3.22-.83,4.83,0,0,1.73,1.07,4.78,1.07,7.22,0,11.4-6.27,13.49-9.79,2.81-4.48,16.24-33.43,16.36-33.37h-8.66Z"/>
    <path class="cls-1" d="M409.46,15.86c-9.25,0-18.27,6.33-18.27,19.28,0,8.83,5.19,13.13,12.77,13.13,9.25,0,18.33-6.33,18.33-19.28-.06-8.83-5.31-13.13-12.83-13.13Zm-4.06,28.17c-4.12,0-6.03-4.36-6.03-9.19,0-7.58,3.1-14.68,8.48-14.68,4.24,0,6.27,4.3,6.27,9.67,0,7.04-3.28,14.21-8.71,14.21Z"/>
    <path class="cls-1" d="M448.61,15.86c-6.75,0-10.68,4.83-12.18,5.79l.72-5.19h-8l-4.12,31.04h8s1.19-9.61,1.85-14.39c.84-7.04,5.01-11.88,9.43-11.88,2.57,0,3.7,1.67,3.7,4.54,0,1.55-.3,3.88-.6,6.09-.66,5.25-1.31,10.45-2.03,15.64h8s1.91-14.45,2.57-19.52c.18-1.61,.36-3.22,.36-4.42,0-4.6-2.81-7.7-7.7-7.7Z"/>
    <path class="cls-1" d="M467.78,35.26c0-.72,.06-1.13,.06-1.31,.3,.06,1.67,.48,4.3,.48,6.75,0,14.98-4.48,14.98-12,0-4.3-3.58-6.57-8.77-6.57-8.83,0-18.33,6.86-18.33,20.77,0,7.28,4.24,11.7,12.36,11.7,7.34,0,11.88-3.7,11.88-3.64l.96-4.54c0,.06-4.3,3.04-9.25,3.04-6.03,0-8.18-3.34-8.18-7.94Zm8.66-15.4c2.09,0,3.58,1.25,3.58,3.82,0,4.3-3.94,6.92-8.66,6.92-1.85,0-2.75-.24-2.92-.24,.83-4.72,3.7-10.51,8-10.51Z"/>
  </g>
</svg>