<?xml version="1.0" encoding="UTF-8"?>
<svg id="Layer_1" data-name="Layer 1" xmlns="http://www.w3.org/2000/svg" viewBox="0 0 487.12 59.62">
  <defs>
    <style>
      .cls-1 {
        fill: #fff;
      }

      .cls-2 {
        fill: #ccecfa;
      }
    </style>
  </defs>
  <g>
    <path class="cls-1" d="M224.96,38.57c-.42-4.34,1.94-7.28,1.99-9.76,.03-1.44-2.01-2.51-2.65-3.5-.86,1.74-1.68,3.45-2.45,5.16h0c-1.33,2.89-3.8,4.87-6.47,5.62-1.63,3.35-4.07,5.16-7.58,4.95-3.3-.2-5.66-2.65-6.68-5.81-1.2,1.47-2.75,2.52-4.98,2.93,2.75,1.8,4.34,4.08,5.01,6.04,1.01,2.95,.2,5.17-2.45,4.67-2.29-.43-5.28-1.7-7.4-5.99-5.25-10.48-.34-25.28,4.23-31.32,1.43-1.89,3.66-3.19,5.61-3.58,2.28-.46,4.17,.39,3.88,2.61-1.18,9.22-8.69,17.14-11.21,20.02-.2,2.04-.17,4-.03,5.83,3.35-.18,5.4-1.49,6.83-3.78-.17-2.04,.13-4.23,.97-6.38,.74,.09,1.47,.19,2.21,.28,.41-3.35,3.05-6.52,7.5-6.89,4.19-.35,6.19,3.16,6.23,7.39,.02,2.3-.59,4.71-1.2,6.75,1.47-.56,2.8-1.74,3.83-3.99h0c1.03-2.3,1.86-4.72,2.56-7.06-.58-1.03-1.02-2.3-.92-3.97,.09-1.54,.67-3.48,1.95-6.07,1.55,.22,3.1,.46,4.65,.71-.6,3.25-1.29,5.63-2.43,8.2,1.96,1.55,6,3.4,5.87,6.2-.15,3.15-2.65,6.69-2.42,10.83,.2,3.52,1.96,5.64,4.21,6.69,3.04-4.62,4.82-10.14,4.82-16.08,0-16.18-13.11-29.29-29.29-29.29s-29.29,13.11-29.29,29.29,13.11,29.29,29.29,29.29c9.31,0,17.58-4.35,22.95-11.12-3.68-1.58-6.75-4.71-7.16-8.89Z"/>
    <path class="cls-1" d="M198.12,46.97c1.08,.17,1.23-.93,.64-2.45-.65-1.68-2.17-3.82-4.59-5.32,.34,1.78,.8,3.31,1.35,4.59,.8,1.86,1.72,3.04,2.6,3.18Z"/>
    <path class="cls-1" d="M212.78,26.14c-.05-2.07-.72-3.59-2.44-3.48-.12,0-.31,.06-.43,.07-1.79,.4-3.13,3.37-2.9,6.19,.21,2.38,1.45,4.67,4.12,5.28,1.01-2.38,1.71-5.62,1.65-8.05Z"/>
    <path class="cls-1" d="M201.53,10.59c-1.26,.23-5.65,7.63-7.17,15.91,2.46-3.74,7.07-9.88,7.7-15.08,.07-.59-.15-.9-.54-.82Z"/>
    <path class="cls-1" d="M204.71,31.47c-.04,.65,0,1.31,.08,1.87,.39,2.55,1.66,4.36,3.07,4.41,.17,0,.29,0,.45-.03,.69-.16,1.28-.75,1.85-1.64-2.5-.76-4.35-2.53-5.44-4.6Z"/>
  </g>
  <g>
    <path class="cls-2" d="M25.08,23.44c5.84-11.52,7.42-16.36,7.42-16.36h8.86L19.43,47.5H9.45L0,7.09H9.19c2.56,10.86,5.12,21.79,7.62,32.65,2.76-5.43,5.45-10.86,8.27-16.3Z"/>
    <path class="cls-2" d="M42.89,16.46h8.73l-4.53,31.04h-8.73l4.53-31.04Zm1.18-9.31c0-3.16,2.36-4.48,5.06-4.48,3.09,0,4.01,1.55,4.01,3.34,0,3.16-2.36,4.48-4.99,4.48-1.97,0-4.07-.72-4.07-3.34Z"/>
    <path class="cls-2" d="M54.68,40.16s6.17,3.94,11.42,3.94c3.48,0,5.25-1.61,5.25-3.76,0-2.75-3.28-4.3-6.17-5.49-4.6-1.97-8.86-4.18-8.86-9.37,0-5.73,5.58-9.61,13.92-9.61,6.5,0,9.65,1.55,9.65,1.55l-1.38,6.03s-5.19-3.4-9.78-3.4c-2.56,0-4.79,1.25-4.79,3.58,0,2.75,3.22,3.88,6.24,5.13,4.79,1.97,9,4.12,9,9.25,0,6.09-5.65,10.27-14.97,10.27-7.09,0-10.97-1.79-10.97-1.79,.46-2.09,.98-4.18,1.44-6.33Z"/>
    <path class="cls-2" d="M87.42,16.46h8.73l-4.53,31.04h-8.73l4.53-31.04Zm1.18-9.31c0-3.16,2.36-4.48,5.06-4.48,3.09,0,4.01,1.55,4.01,3.34,0,3.16-2.36,4.48-4.99,4.48-1.97,0-4.07-.72-4.07-3.34Z"/>
    <path class="cls-2" d="M119.13,15.86c8.27,0,14.05,4.3,14.12,13.13,0,12.95-9.98,19.28-20.16,19.28-8.34,0-14.05-4.3-14.05-13.13,0-12.95,9.91-19.28,20.09-19.28Zm-4.46,28.17c5.98,0,9.59-7.16,9.59-14.21,0-5.37-2.23-9.67-6.89-9.67-5.91,0-9.32,7.1-9.32,14.68,0,4.84,2.1,9.19,6.63,9.19Z"/>
    <path class="cls-2" d="M140.74,16.46h8.8l-.79,5.19c1.64-.96,5.98-5.79,13.39-5.79,5.38,0,8.47,3.1,8.47,7.7,0,1.19-.2,2.81-.39,4.42-.72,5.07-2.82,19.52-2.82,19.52h-8.8c.79-5.19,1.51-10.39,2.23-15.64,.33-2.21,.66-4.54,.66-6.09,0-2.87-1.25-4.54-4.07-4.54-4.86,0-9.46,4.83-10.37,11.88-.72,4.78-2.04,14.39-2.04,14.39h-8.8l4.53-31.04Z"/>
  </g>
  <g>
    <path class="cls-2" d="M258.08,28.58l-1.73,14.5h3.76c7.04,0,12.36-1.49,12.36-1.49l-.84,5.91h-24.29l5.43-40.41h23.34c-.24,1.91-.54,3.88-.78,5.85,0,0-5.07-1.49-12.18-1.49h-2.81c-.54,4.36-1.13,8.66-1.73,12.95h14.68c-.24,1.37-.42,2.75-.66,4.18h-14.57Z"/>
    <path class="cls-2" d="M277.66,16.46h7.76c1.43,8,2.87,16,4.36,23.94l3.76-8.24c5.01-10.92,6.09-15.7,6.09-15.7h7.28l-15.16,31.04h-8.36l-5.73-31.04Z"/>
    <path class="cls-2" d="M323.2,15.86c5.19,0,8.77,2.27,8.77,6.57,0,7.52-8.24,12-14.98,12-2.63,0-4-.42-4.3-.48,0,.18-.06,.6-.06,1.31,0,4.6,2.15,7.94,8.18,7.94,4.96,0,9.25-2.98,9.25-3.04l-.96,4.54c0-.06-4.54,3.64-11.88,3.64-8.12,0-12.36-4.42-12.36-11.7,0-13.91,9.49-20.77,18.33-20.77Zm-6.98,14.74c4.72,0,8.66-2.63,8.66-6.92,0-2.57-1.49-3.82-3.58-3.82-4.3,0-7.16,5.79-8,10.51,.18,0,1.07,.24,2.92,.24Z"/>
    <path class="cls-2" d="M339.14,16.46h7.94c-.24,1.91-.54,3.76-.78,5.73,.36-.42,1.73-1.85,2.87-2.81,2.09-1.73,4.72-3.58,8.72-3.58,.6,0,1.55,.18,1.79,.18-.54,2.45-1.07,4.83-1.61,7.22,0,0-2.33-1.19-4.42-1.19-5.25,0-8.06,5.61-8.95,12.48l-1.73,13.01h-7.94l4.12-31.04Z"/>
    <path class="cls-2" d="M363.2,54.48c4.72,0,6.98-3.7,8.12-5.73,.48-.84,.9-1.61,1.31-2.45-1.02-.66-2.03-1.37-3.04-2.09-2.39-9.25-4.78-18.5-7.1-27.76h8.18l4.9,23.28c.42-.9,1.25-2.69,3.1-7.1,4.18-10.15,5.61-16.18,5.61-16.18h8.66c-.12-.06-13.55,28.89-16.36,33.37-2.09,3.52-6.27,9.79-13.49,9.79-3.04,0-4.78-1.07-4.78-1.07,.3-1.61,.6-3.22,.83-4.83,.06,0,1.85,.78,4.06,.78Z"/>
    <path class="cls-2" d="M409.46,15.86c7.52,0,12.77,4.3,12.83,13.13,0,12.95-9.07,19.28-18.33,19.28-7.58,0-12.77-4.3-12.77-13.13,0-12.95,9.01-19.28,18.27-19.28Zm-4.06,28.17c5.43,0,8.71-7.16,8.71-14.21,0-5.37-2.03-9.67-6.27-9.67-5.37,0-8.48,7.1-8.48,14.68,0,4.84,1.91,9.19,6.03,9.19Z"/>
    <path class="cls-2" d="M429.15,16.46h8l-.72,5.19c1.49-.96,5.43-5.79,12.18-5.79,4.89,0,7.7,3.1,7.7,7.7,0,1.19-.18,2.81-.36,4.42-.66,5.07-2.57,19.52-2.57,19.52h-8c.72-5.19,1.37-10.39,2.03-15.64,.3-2.21,.6-4.54,.6-6.09,0-2.87-1.13-4.54-3.7-4.54-4.42,0-8.6,4.83-9.43,11.88-.66,4.78-1.85,14.39-1.85,14.39h-8l4.12-31.04Z"/>
    <path class="cls-2" d="M478.34,15.86c5.19,0,8.77,2.27,8.77,6.57,0,7.52-8.24,12-14.98,12-2.63,0-4-.42-4.3-.48,0,.18-.06,.6-.06,1.31,0,4.6,2.15,7.94,8.18,7.94,4.96,0,9.25-2.98,9.25-3.04l-.96,4.54c0-.06-4.54,3.64-11.88,3.64-8.12,0-12.36-4.42-12.36-11.7,0-13.91,9.49-20.77,18.33-20.77Zm-6.98,14.74c4.72,0,8.66-2.63,8.66-6.92,0-2.57-1.49-3.82-3.58-3.82-4.3,0-7.16,5.79-8,10.51,.18,0,1.07,.24,2.92,.24Z"/>
  </g>
</svg>