<?xml version="1.0" encoding="iso-8859-1"?>
<!-- Generator: Adobe Illustrator 19.1.0, SVG Export Plug-In . SVG Version: 6.00 Build 0)  -->
<svg version="1.1" xmlns="http://www.w3.org/2000/svg" xmlns:xlink="http://www.w3.org/1999/xlink" x="0px" y="0px"
	 viewBox="0 0 403.7 91.3" style="enable-background:new 0 0 403.7 91.3;" xml:space="preserve">
<style type="text/css">
	.st0{display:none;}
	.st1{display:inline;fill:#5D5E5E;}
	.st2{fill:#001F5B;}
	.st3{fill:#808285;}
	.st4{fill:#FFFFFF;}
	.st5{fill:#9E9E9E;}
	.st6{fill:none;stroke:#8083A9;stroke-width:2.1378;stroke-miterlimit:10;}
	.st7{fill:#8285AA;}
	.st8{fill:none;stroke:#FFFFFF;stroke-width:2.1378;stroke-miterlimit:10;}
	.st9{fill:#001F5B;stroke:#FFFFFF;stroke-width:2.1378;stroke-miterlimit:10;}
</style>
<a xmlns="http://www.w3.org/2000/svg" xmlns:xlink="http://www.w3.org/1999/xlink" xlink:href="http://mestmaker.com/" target="_top">
<g id="logo-division">
	<path class="st4" d="M108.2,35.1h7l4.8,14.3h0.1l4.9-14.3h7v21.9h-4.6V40.2h-0.1l-5.5,16.8h-3.5l-5.3-16.8h-0.1v16.8h-4.6V35.1z"/>
	<path class="st4" d="M136.4,35.1h14.3v4.4H141v4.1h9.1V48H141v4.4h10.2v4.4h-14.8V35.1z"/>
	<path class="st4" d="M165.3,40.4c-0.4-0.5-0.9-0.9-1.5-1.1c-0.6-0.2-1.3-0.4-1.8-0.4c-0.3,0-0.7,0-1,0.1c-0.4,0.1-0.7,0.2-1,0.4
		s-0.6,0.4-0.8,0.7c-0.2,0.3-0.3,0.6-0.3,1c0,0.7,0.2,1.2,0.7,1.5c0.5,0.4,1.1,0.6,1.8,0.9s1.5,0.5,2.3,0.7c0.8,0.2,1.6,0.6,2.3,1
		c0.7,0.5,1.3,1.1,1.8,1.8c0.5,0.8,0.7,1.8,0.7,3.1c0,1.2-0.2,2.3-0.7,3.2c-0.4,0.9-1,1.7-1.8,2.3c-0.7,0.6-1.6,1-2.6,1.3
		c-1,0.3-2,0.4-3.1,0.4c-1.4,0-2.6-0.2-3.8-0.6c-1.2-0.4-2.3-1.1-3.3-2.1l3.3-3.8c0.5,0.7,1.1,1.2,1.8,1.5s1.5,0.5,2.2,0.5
		c0.4,0,0.8,0,1.1-0.1s0.7-0.2,1-0.4c0.3-0.2,0.6-0.4,0.7-0.7c0.2-0.3,0.3-0.6,0.3-1c0-0.7-0.2-1.2-0.7-1.6c-0.5-0.4-1.1-0.7-1.8-1
		s-1.5-0.5-2.4-0.8c-0.8-0.3-1.6-0.6-2.4-1.1s-1.3-1-1.8-1.8c-0.5-0.7-0.7-1.7-0.7-2.9c0-1.2,0.2-2.2,0.7-3.1c0.4-0.9,1-1.6,1.8-2.2
		c0.7-0.6,1.6-1,2.6-1.3c1-0.3,2-0.4,3-0.4c1.2,0,2.3,0.2,3.4,0.5c1.1,0.3,2.1,0.9,3,1.8L165.3,40.4z"/>
	<path class="st4" d="M176,39.3h-6v-4.3h16.6v4.3h-6v17.6H176V39.3z"/>
	<path class="st4" d="M188.9,35.1h7l4.8,14.3h0.1l4.9-14.3h7v21.9H208V40.2H208l-5.5,16.8h-3.5l-5.3-16.8h-0.1v16.8h-4.6V35.1z"/>
	<path class="st4" d="M223.8,35.1h3.8l9.1,21.9h-5.2l-1.8-4.6h-8.2l-1.7,4.6h-5.1L223.8,35.1z M225.6,41.4l-2.6,6.8h5.1L225.6,41.4z
		"/>
	<path class="st4" d="M239.1,35.1h4.6v9.1l8.2-9.1h6l-9.3,10.2l10.1,11.7h-6.5l-8.5-10.4v10.4h-4.6V35.1z"/>
	<path class="st4" d="M260.5,35.1h14.3v4.4h-9.6v4.1h9.1V48h-9.1v4.4h10.2v4.4h-14.8V35.1z"/>
	<path class="st4" d="M279,35.1h8.1c1.1,0,2.1,0.1,3,0.3c1,0.2,1.8,0.6,2.5,1.1c0.7,0.5,1.3,1.2,1.7,2c0.4,0.9,0.6,1.9,0.6,3.2
		c0,1.5-0.4,2.9-1.2,3.9c-0.8,1.1-1.9,1.8-3.4,2.1l5.3,9.2h-5.5l-4.4-8.7h-2.3v8.7H279V35.1z M283.6,44.1h2.7c0.4,0,0.9,0,1.3,0
		c0.5,0,0.9-0.1,1.3-0.3c0.4-0.2,0.7-0.4,0.9-0.7c0.2-0.3,0.4-0.8,0.4-1.4c0-0.6-0.1-1-0.3-1.3c-0.2-0.3-0.5-0.6-0.8-0.8
		c-0.3-0.2-0.7-0.3-1.2-0.4c-0.4-0.1-0.9-0.1-1.3-0.1h-3V44.1z"/>
	<path class="st4" d="M316,53.2l3.5,3.8h-2.2l-2.2-2.4c-0.6,0.9-1.3,1.6-2.1,2.1s-1.6,0.7-2.7,0.7c-0.6,0-1.3-0.1-1.9-0.3
		c-0.6-0.2-1.1-0.5-1.6-0.9c-0.4-0.4-0.8-0.9-1.1-1.5c-0.3-0.6-0.4-1.2-0.4-2c0-0.6,0.1-1.1,0.3-1.6c0.2-0.5,0.5-0.9,0.8-1.3
		c0.3-0.4,0.7-0.7,1.1-1c0.4-0.3,0.9-0.6,1.3-0.8c-0.5-0.5-0.9-1.1-1.3-1.7c-0.4-0.6-0.6-1.3-0.6-2.1c0-0.6,0.1-1.2,0.3-1.6
		c0.2-0.5,0.5-0.9,0.8-1.2c0.4-0.3,0.8-0.6,1.2-0.7c0.5-0.2,1-0.3,1.5-0.3c0.5,0,1,0.1,1.5,0.2c0.5,0.2,0.9,0.4,1.2,0.7
		c0.3,0.3,0.6,0.7,0.8,1.1s0.3,1,0.3,1.6c0,0.5-0.1,1-0.3,1.4c-0.2,0.4-0.5,0.8-0.8,1.1c-0.3,0.3-0.7,0.7-1.1,0.9s-0.8,0.5-1.2,0.7
		l3.6,3.9l2.1-3.9h1.8L316,53.2z M309.9,48.9c-0.5,0.3-1,0.6-1.3,0.9c-0.4,0.3-0.7,0.6-0.9,0.8c-0.2,0.3-0.4,0.6-0.5,1
		c-0.1,0.3-0.2,0.7-0.2,1.1c0,0.5,0.1,0.9,0.3,1.3c0.2,0.4,0.4,0.7,0.7,1s0.6,0.5,1,0.6c0.4,0.2,0.8,0.2,1.2,0.2s0.8-0.1,1.2-0.2
		c0.3-0.1,0.7-0.3,1-0.5c0.3-0.2,0.6-0.5,0.8-0.8c0.3-0.3,0.5-0.6,0.8-0.9L309.9,48.9z M313.2,43.9c0-0.6-0.2-1.2-0.6-1.5
		c-0.4-0.4-0.9-0.6-1.5-0.6c-0.7,0-1.2,0.2-1.7,0.6c-0.4,0.4-0.7,1-0.7,1.7c0,0.3,0.1,0.6,0.2,0.9c0.1,0.3,0.3,0.6,0.4,0.8
		c0.2,0.3,0.3,0.5,0.5,0.7s0.3,0.4,0.5,0.5c0.3-0.2,0.6-0.4,0.9-0.6c0.3-0.2,0.6-0.4,0.9-0.7c0.3-0.2,0.5-0.5,0.7-0.8
		C313.1,44.7,313.2,44.3,313.2,43.9z"/>
	<path class="st4" d="M327.8,56.9h-1.9l6.8-16.2h1.5l6.8,16.2h-1.9l-1.7-4.3h-8L327.8,56.9z M330.1,51.1h6.8l-3.4-8.5L330.1,51.1z"
		/>
	<path class="st4" d="M350.6,43.4c-0.7-1.1-1.7-1.6-3-1.6c-0.4,0-0.8,0.1-1.2,0.2c-0.4,0.1-0.8,0.3-1.1,0.5
		c-0.3,0.2-0.6,0.5-0.8,0.9s-0.3,0.8-0.3,1.3c0,0.7,0.2,1.3,0.6,1.7c0.4,0.4,0.9,0.7,1.5,1c0.6,0.3,1.2,0.5,1.9,0.7
		c0.7,0.2,1.3,0.5,1.9,0.8c0.6,0.3,1.1,0.8,1.5,1.4c0.4,0.6,0.6,1.3,0.6,2.3c0,0.7-0.2,1.4-0.5,2c-0.3,0.6-0.7,1.1-1.2,1.5
		c-0.5,0.4-1,0.7-1.7,0.9s-1.2,0.3-1.8,0.3c-1,0-1.9-0.2-2.7-0.6c-0.9-0.4-1.6-1-2.2-1.8l1.5-1.1c0.3,0.6,0.8,1.1,1.4,1.4
		s1.3,0.5,2.1,0.5c0.4,0,0.8-0.1,1.2-0.2c0.4-0.1,0.8-0.3,1.1-0.6c0.3-0.3,0.6-0.6,0.8-0.9s0.3-0.8,0.3-1.3c0-0.6-0.1-1-0.3-1.4
		s-0.5-0.7-0.9-0.9c-0.4-0.3-0.8-0.5-1.3-0.6c-0.5-0.2-1-0.3-1.5-0.5c-0.5-0.2-1-0.4-1.5-0.6c-0.5-0.2-0.9-0.5-1.3-0.8
		c-0.4-0.3-0.7-0.7-0.9-1.2c-0.2-0.5-0.3-1.1-0.3-1.9c0-0.8,0.1-1.5,0.4-2s0.7-1.1,1.1-1.4c0.5-0.4,1-0.7,1.6-0.8s1.2-0.3,1.9-0.3
		c0.9,0,1.7,0.1,2.4,0.4c0.7,0.3,1.4,0.8,2,1.5L350.6,43.4z"/>
	<path class="st4" d="M362.8,43.4c-0.7-1.1-1.7-1.6-3-1.6c-0.4,0-0.8,0.1-1.2,0.2c-0.4,0.1-0.8,0.3-1.1,0.5
		c-0.3,0.2-0.6,0.5-0.8,0.9s-0.3,0.8-0.3,1.3c0,0.7,0.2,1.3,0.6,1.7c0.4,0.4,0.9,0.7,1.5,1c0.6,0.3,1.2,0.5,1.9,0.7
		c0.7,0.2,1.3,0.5,1.9,0.8c0.6,0.3,1.1,0.8,1.5,1.4c0.4,0.6,0.6,1.3,0.6,2.3c0,0.7-0.2,1.4-0.5,2c-0.3,0.6-0.7,1.1-1.2,1.5
		c-0.5,0.4-1,0.7-1.7,0.9s-1.2,0.3-1.8,0.3c-1,0-1.9-0.2-2.7-0.6c-0.9-0.4-1.6-1-2.2-1.8l1.5-1.1c0.3,0.6,0.8,1.1,1.4,1.4
		s1.3,0.5,2.1,0.5c0.4,0,0.8-0.1,1.2-0.2c0.4-0.1,0.8-0.3,1.1-0.6c0.3-0.3,0.6-0.6,0.8-0.9s0.3-0.8,0.3-1.3c0-0.6-0.1-1-0.3-1.4
		s-0.5-0.7-0.9-0.9c-0.4-0.3-0.8-0.5-1.3-0.6c-0.5-0.2-1-0.3-1.5-0.5c-0.5-0.2-1-0.4-1.5-0.6c-0.5-0.2-0.9-0.5-1.3-0.8
		c-0.4-0.3-0.7-0.7-0.9-1.2c-0.2-0.5-0.3-1.1-0.3-1.9c0-0.8,0.1-1.5,0.4-2s0.7-1.1,1.1-1.4c0.5-0.4,1-0.7,1.6-0.8s1.2-0.3,1.9-0.3
		c0.9,0,1.7,0.1,2.4,0.4c0.7,0.3,1.4,0.8,2,1.5L362.8,43.4z"/>
	<path class="st4" d="M382.9,48.8c0,1.2-0.2,2.4-0.6,3.4s-1,1.9-1.7,2.7c-0.7,0.8-1.6,1.4-2.6,1.8s-2.1,0.6-3.2,0.6
		s-2.2-0.2-3.2-0.6s-1.9-1-2.6-1.8c-0.7-0.8-1.3-1.7-1.7-2.7s-0.6-2.2-0.6-3.4c0-1.2,0.2-2.4,0.6-3.4c0.4-1,1-1.9,1.7-2.7
		c0.7-0.8,1.6-1.3,2.6-1.8c1-0.4,2.1-0.6,3.2-0.6s2.2,0.2,3.2,0.6c1,0.4,1.9,1,2.6,1.8c0.7,0.8,1.3,1.7,1.7,2.7
		C382.7,46.4,382.9,47.6,382.9,48.8z M381.2,48.8c0-0.9-0.1-1.8-0.4-2.7s-0.7-1.6-1.3-2.2s-1.2-1.2-2-1.5c-0.8-0.4-1.7-0.6-2.7-0.6
		c-1,0-1.9,0.2-2.7,0.6c-0.8,0.4-1.5,0.9-2,1.5s-1,1.4-1.3,2.2c-0.3,0.8-0.4,1.7-0.4,2.7c0,0.9,0.1,1.8,0.4,2.7
		c0.3,0.8,0.7,1.6,1.3,2.2s1.2,1.2,2,1.5c0.8,0.4,1.7,0.6,2.7,0.6c1,0,1.9-0.2,2.7-0.6c0.8-0.4,1.5-0.9,2-1.5s1-1.4,1.3-2.2
		C381,50.6,381.2,49.7,381.2,48.8z"/>
	<path class="st4" d="M398.9,54.4c-0.3,0.4-0.6,0.8-1,1.2c-0.4,0.4-0.8,0.7-1.3,1c-0.5,0.3-1,0.5-1.6,0.6c-0.6,0.2-1.2,0.2-1.8,0.2
		c-1.2,0-2.2-0.2-3.2-0.6s-1.9-1-2.6-1.8c-0.7-0.8-1.3-1.7-1.7-2.7S385,50,385,48.8c0-1.2,0.2-2.4,0.6-3.4c0.4-1,1-1.9,1.7-2.7
		c0.7-0.8,1.6-1.3,2.6-1.8c1-0.4,2.1-0.6,3.2-0.6c1,0,1.9,0.2,2.9,0.6c1,0.4,1.8,1.1,2.5,2l-1.4,1.1c-0.2-0.3-0.4-0.5-0.7-0.8
		c-0.3-0.3-0.6-0.5-1-0.7c-0.4-0.2-0.7-0.4-1.2-0.5c-0.4-0.1-0.8-0.2-1.2-0.2c-1,0-1.9,0.2-2.7,0.6c-0.8,0.4-1.5,0.9-2,1.5
		s-1,1.4-1.3,2.2c-0.3,0.8-0.4,1.7-0.4,2.7c0,0.9,0.1,1.8,0.4,2.7c0.3,0.8,0.7,1.6,1.3,2.2s1.2,1.2,2,1.5c0.8,0.4,1.7,0.6,2.7,0.6
		c0.4,0,0.8,0,1.2-0.1c0.4-0.1,0.8-0.2,1.2-0.4c0.4-0.2,0.8-0.4,1.1-0.7c0.3-0.3,0.7-0.7,1-1.2L398.9,54.4z"/>
	<path class="st4" d="M403.7,55.8c0,0.3-0.1,0.6-0.3,0.9c-0.2,0.3-0.5,0.4-0.9,0.4s-0.6-0.1-0.9-0.4c-0.2-0.3-0.3-0.5-0.3-0.9
		s0.1-0.6,0.3-0.9c0.2-0.3,0.5-0.4,0.9-0.4s0.6,0.1,0.9,0.4C403.6,55.2,403.7,55.5,403.7,55.8z"/>
	<path class="st4" d="M107.1,76.8h-1l5.6-8.7h0.9l1.8,8.7h-0.9l-0.5-2.3h-4.5L107.1,76.8z M109,73.6h3.8l-0.9-4.6L109,73.6z"/>
	<path class="st4" d="M118.3,74.4c0-0.5,0.1-1,0.3-1.4c0.2-0.4,0.4-0.8,0.7-1.1s0.7-0.6,1.1-0.8s0.9-0.3,1.4-0.3
		c0.4,0,0.8,0.1,1.2,0.3s0.6,0.5,0.8,0.8h0l0.8-4.5h0.8l-1.7,9.3h-0.8l0.2-1h0c-0.2,0.3-0.5,0.6-0.9,0.8c-0.4,0.2-0.8,0.3-1.3,0.3
		c-0.4,0-0.8-0.1-1.1-0.2c-0.3-0.1-0.6-0.3-0.8-0.5c-0.2-0.2-0.4-0.5-0.5-0.8C118.3,75.1,118.3,74.8,118.3,74.4z M119.1,74.4
		c0,0.3,0,0.5,0.1,0.7s0.2,0.4,0.4,0.6c0.2,0.2,0.3,0.3,0.6,0.4c0.2,0.1,0.5,0.1,0.8,0.1c0.4,0,0.7-0.1,1-0.2
		c0.3-0.1,0.6-0.4,0.8-0.6c0.2-0.3,0.4-0.6,0.5-0.9s0.2-0.7,0.2-1.1c0-0.3,0-0.5-0.1-0.8c-0.1-0.2-0.2-0.4-0.4-0.6
		c-0.2-0.2-0.4-0.3-0.6-0.4c-0.2-0.1-0.5-0.1-0.8-0.1c-0.4,0-0.7,0.1-1,0.2c-0.3,0.1-0.6,0.4-0.8,0.6c-0.2,0.3-0.4,0.6-0.5,0.9
		C119.2,73.6,119.1,74,119.1,74.4z"/>
	<path class="st4" d="M126.6,76.8h-0.8l1-5.8h0.8L126.6,76.8z M128.2,68.7c0,0.2-0.1,0.3-0.2,0.4c-0.1,0.1-0.2,0.2-0.4,0.2
		c-0.2,0-0.3,0-0.4-0.1c-0.1-0.1-0.2-0.2-0.2-0.4s0.1-0.3,0.2-0.4c0.1-0.1,0.3-0.2,0.4-0.2s0.3,0.1,0.4,0.2
		C128.1,68.4,128.2,68.6,128.2,68.7z"/>
	<path class="st4" d="M130.8,76.8h-0.9l-1.2-5.8h0.9l0.9,4.9h0l2.9-4.9h0.9L130.8,76.8z"/>
	<path class="st4" d="M135.3,76.8h-0.8l1-5.8h0.8L135.3,76.8z M136.8,68.7c0,0.2-0.1,0.3-0.2,0.4c-0.1,0.1-0.2,0.2-0.4,0.2
		c-0.2,0-0.3,0-0.4-0.1c-0.1-0.1-0.2-0.2-0.2-0.4s0.1-0.3,0.2-0.4c0.1-0.1,0.3-0.2,0.4-0.2s0.3,0.1,0.4,0.2
		C136.8,68.4,136.8,68.6,136.8,68.7z"/>
	<path class="st4" d="M141.3,72.3c-0.1-0.2-0.3-0.4-0.5-0.5c-0.2-0.1-0.5-0.2-0.8-0.2c-0.1,0-0.3,0-0.5,0c-0.2,0-0.3,0.1-0.4,0.2
		s-0.2,0.2-0.3,0.3c-0.1,0.1-0.1,0.3-0.1,0.4c0,0.2,0,0.3,0.1,0.4s0.1,0.2,0.2,0.3c0.1,0.1,0.2,0.1,0.4,0.2c0.1,0.1,0.3,0.1,0.5,0.2
		c0.6,0.2,1,0.4,1.3,0.6c0.3,0.3,0.4,0.6,0.4,1.1c0,0.3-0.1,0.6-0.2,0.8c-0.1,0.2-0.3,0.4-0.5,0.6s-0.5,0.2-0.7,0.3
		c-0.3,0.1-0.5,0.1-0.8,0.1c-0.5,0-0.9-0.1-1.4-0.3c-0.4-0.2-0.8-0.5-1-0.8l0.7-0.5c0.1,0.2,0.4,0.4,0.6,0.6c0.3,0.2,0.6,0.3,1,0.3
		c0.2,0,0.4,0,0.5-0.1s0.3-0.1,0.5-0.2s0.2-0.2,0.3-0.3s0.1-0.3,0.1-0.5c0-0.3-0.1-0.5-0.4-0.7c-0.2-0.2-0.6-0.3-1-0.5
		c-0.2-0.1-0.3-0.1-0.5-0.2s-0.3-0.2-0.5-0.3c-0.1-0.1-0.3-0.3-0.3-0.4c-0.1-0.2-0.1-0.4-0.1-0.6c0-0.3,0.1-0.6,0.2-0.8
		s0.3-0.4,0.5-0.5c0.2-0.1,0.4-0.2,0.7-0.3s0.5-0.1,0.8-0.1c0.4,0,0.8,0.1,1.2,0.3c0.3,0.2,0.6,0.4,0.8,0.7L141.3,72.3z"/>
	<path class="st4" d="M143.6,76.8h-0.8l1-5.8h0.8L143.6,76.8z M145.1,68.7c0,0.2-0.1,0.3-0.2,0.4c-0.1,0.1-0.2,0.2-0.4,0.2
		c-0.2,0-0.3,0-0.4-0.1c-0.1-0.1-0.2-0.2-0.2-0.4s0.1-0.3,0.2-0.4c0.1-0.1,0.3-0.2,0.4-0.2s0.3,0.1,0.4,0.2
		C145,68.4,145.1,68.6,145.1,68.7z"/>
	<path class="st4" d="M148.3,76.9c-0.4,0-0.7-0.1-1.1-0.2c-0.3-0.1-0.6-0.3-0.8-0.5c-0.2-0.2-0.4-0.5-0.5-0.8
		c-0.1-0.3-0.2-0.6-0.2-1c0-0.5,0.1-0.9,0.3-1.4c0.2-0.4,0.4-0.8,0.7-1.1c0.3-0.3,0.7-0.6,1.1-0.8c0.4-0.2,0.9-0.3,1.4-0.3
		c0.4,0,0.8,0.1,1.1,0.2s0.6,0.3,0.8,0.5c0.2,0.2,0.4,0.5,0.5,0.8s0.2,0.6,0.2,1c0,0.5-0.1,1-0.3,1.4s-0.4,0.8-0.7,1.1
		s-0.7,0.6-1.1,0.8C149.3,76.8,148.8,76.9,148.3,76.9z M150.9,73.4c0-0.3,0-0.5-0.1-0.7c-0.1-0.2-0.2-0.4-0.4-0.6s-0.4-0.3-0.6-0.4
		c-0.2-0.1-0.5-0.1-0.8-0.1c-0.4,0-0.7,0.1-1,0.2c-0.3,0.2-0.6,0.4-0.8,0.6c-0.2,0.3-0.4,0.6-0.5,0.9c-0.1,0.3-0.2,0.7-0.2,1.1
		c0,0.3,0,0.5,0.1,0.7c0.1,0.2,0.2,0.4,0.4,0.6c0.2,0.2,0.4,0.3,0.6,0.4c0.2,0.1,0.5,0.1,0.8,0.1c0.4,0,0.7-0.1,1-0.2
		c0.3-0.2,0.6-0.4,0.8-0.6s0.4-0.6,0.5-0.9S150.9,73.8,150.9,73.4z"/>
	<path class="st4" d="M154.6,71c0,0.2,0,0.3-0.1,0.5c0,0.2,0,0.3-0.1,0.5h0c0.2-0.4,0.5-0.6,0.9-0.8c0.4-0.2,0.7-0.3,1.1-0.3
		c0.6,0,1.1,0.2,1.5,0.5c0.4,0.3,0.5,0.7,0.5,1.3c0,0.1,0,0.2,0,0.3c0,0.1,0,0.2,0,0.3l-0.6,3.5H157l0.6-3.2c0-0.3,0.1-0.5,0.1-0.7
		c0-0.4-0.1-0.7-0.3-1c-0.2-0.2-0.5-0.4-1-0.4c-0.2,0-0.4,0-0.7,0.1c-0.2,0.1-0.4,0.2-0.6,0.4c-0.2,0.2-0.4,0.4-0.5,0.7
		s-0.3,0.6-0.3,1l-0.5,3h-0.8l0.8-4.5c0-0.2,0.1-0.4,0.1-0.6s0.1-0.5,0.1-0.7H154.6z"/>
	<path class="st4" d="M165.4,76.9c-0.4,0-0.7-0.1-1.1-0.2c-0.3-0.1-0.6-0.3-0.8-0.5c-0.2-0.2-0.4-0.5-0.5-0.8
		c-0.1-0.3-0.2-0.6-0.2-1c0-0.5,0.1-0.9,0.3-1.4c0.2-0.4,0.4-0.8,0.7-1.1c0.3-0.3,0.7-0.6,1.1-0.8c0.4-0.2,0.9-0.3,1.4-0.3
		c0.4,0,0.8,0.1,1.1,0.2s0.6,0.3,0.8,0.5c0.2,0.2,0.4,0.5,0.5,0.8s0.2,0.6,0.2,1c0,0.5-0.1,1-0.3,1.4s-0.4,0.8-0.7,1.1
		s-0.7,0.6-1.1,0.8C166.4,76.8,165.9,76.9,165.4,76.9z M168,73.4c0-0.3,0-0.5-0.1-0.7c-0.1-0.2-0.2-0.4-0.4-0.6s-0.4-0.3-0.6-0.4
		c-0.2-0.1-0.5-0.1-0.8-0.1c-0.4,0-0.7,0.1-1,0.2c-0.3,0.2-0.6,0.4-0.8,0.6c-0.2,0.3-0.4,0.6-0.5,0.9c-0.1,0.3-0.2,0.7-0.2,1.1
		c0,0.3,0,0.5,0.1,0.7c0.1,0.2,0.2,0.4,0.4,0.6c0.2,0.2,0.4,0.3,0.6,0.4c0.2,0.1,0.5,0.1,0.8,0.1c0.4,0,0.7-0.1,1-0.2
		c0.3-0.2,0.6-0.4,0.8-0.6s0.4-0.6,0.5-0.9S168,73.8,168,73.4z"/>
	<path class="st4" d="M173.3,71.7h-1.4l-0.9,5.1h-0.8l0.9-5.1h-1.2L170,71h1.2l0.3-1.6c0-0.3,0.1-0.6,0.2-0.8
		c0.1-0.3,0.2-0.5,0.4-0.7c0.2-0.2,0.4-0.3,0.6-0.5s0.5-0.2,0.9-0.2c0.1,0,0.2,0,0.3,0c0.1,0,0.2,0,0.3,0.1l-0.2,0.7
		c-0.2,0-0.4-0.1-0.6-0.1c-0.2,0-0.4,0-0.5,0.1c-0.1,0.1-0.3,0.2-0.4,0.3c-0.1,0.1-0.2,0.3-0.2,0.5c-0.1,0.2-0.1,0.4-0.1,0.6
		l-0.3,1.5h1.4L173.3,71.7z"/>
	<path class="st4" d="M181.3,75.3L181.3,75.3l4.2-7.2h1.3l-1.5,8.7h-0.9l1.3-7.6h0l-4.5,7.6h-0.5l-1.8-7.6h0l-1.3,7.6h-0.9l1.5-8.7
		h1.3L181.3,75.3z"/>
	<path class="st4" d="M190.1,76.9c-0.4,0-0.7-0.1-1.1-0.2c-0.3-0.1-0.6-0.3-0.8-0.5c-0.2-0.2-0.4-0.5-0.5-0.8
		c-0.1-0.3-0.2-0.6-0.2-1c0-0.5,0.1-0.9,0.3-1.4c0.2-0.4,0.4-0.8,0.7-1.1c0.3-0.3,0.7-0.6,1.1-0.8c0.4-0.2,0.9-0.3,1.4-0.3
		c0.4,0,0.8,0.1,1.1,0.2s0.6,0.3,0.8,0.5c0.2,0.2,0.4,0.5,0.5,0.8s0.2,0.6,0.2,1c0,0.5-0.1,1-0.3,1.4s-0.4,0.8-0.7,1.1
		s-0.7,0.6-1.1,0.8C191.1,76.8,190.6,76.9,190.1,76.9z M192.7,73.4c0-0.3,0-0.5-0.1-0.7c-0.1-0.2-0.2-0.4-0.4-0.6s-0.4-0.3-0.6-0.4
		c-0.2-0.1-0.5-0.1-0.8-0.1c-0.4,0-0.7,0.1-1,0.2c-0.3,0.2-0.6,0.4-0.8,0.6c-0.2,0.3-0.4,0.6-0.5,0.9c-0.1,0.3-0.2,0.7-0.2,1.1
		c0,0.3,0,0.5,0.1,0.7c0.1,0.2,0.2,0.4,0.4,0.6c0.2,0.2,0.4,0.3,0.6,0.4c0.2,0.1,0.5,0.1,0.8,0.1c0.4,0,0.7-0.1,1-0.2
		c0.3-0.2,0.6-0.4,0.8-0.6s0.4-0.6,0.5-0.9S192.7,73.8,192.7,73.4z"/>
	<path class="st4" d="M195.6,71.6c0-0.2,0.1-0.5,0.1-0.7h0.8c0,0.2,0,0.3-0.1,0.5c0,0.2,0,0.3-0.1,0.5h0c0.2-0.3,0.5-0.6,0.8-0.8
		s0.7-0.3,1.1-0.3c0.1,0,0.2,0,0.3,0c0.1,0,0.2,0,0.3,0l-0.2,0.8c0,0-0.1,0-0.2,0s-0.2,0-0.3,0c-0.2,0-0.4,0-0.7,0.1
		c-0.2,0.1-0.4,0.2-0.6,0.4c-0.2,0.2-0.3,0.4-0.5,0.7c-0.1,0.3-0.2,0.6-0.3,1l-0.5,3h-0.8l0.8-4.5C195.5,72.1,195.5,71.9,195.6,71.6
		z"/>
	<path class="st4" d="M198.7,78c0.2,0.3,0.5,0.5,0.9,0.7s0.8,0.3,1.2,0.3c0.4,0,0.8-0.1,1.1-0.2c0.3-0.1,0.5-0.3,0.7-0.5
		c0.2-0.2,0.4-0.5,0.5-0.7s0.2-0.6,0.3-0.9l0.2-1.1h0c-0.3,0.4-0.6,0.7-1,0.9c-0.4,0.2-0.8,0.3-1.2,0.3c-0.4,0-0.8-0.1-1.1-0.2
		c-0.3-0.1-0.6-0.3-0.8-0.5c-0.2-0.2-0.4-0.5-0.5-0.8c-0.1-0.3-0.2-0.6-0.2-1c0-0.5,0.1-0.9,0.3-1.3c0.2-0.4,0.4-0.8,0.7-1.1
		s0.7-0.6,1.1-0.7c0.4-0.2,0.9-0.3,1.3-0.3c0.2,0,0.4,0,0.6,0.1c0.2,0,0.4,0.1,0.6,0.2c0.2,0.1,0.3,0.2,0.5,0.4
		c0.1,0.1,0.3,0.3,0.3,0.5h0l0.2-1h0.8l-1,5.7c-0.1,0.3-0.1,0.6-0.3,1s-0.3,0.7-0.5,1s-0.6,0.5-1,0.7c-0.4,0.2-0.9,0.3-1.6,0.3
		c-0.6,0-1.1-0.1-1.5-0.3s-0.8-0.5-1.1-0.9L198.7,78z M199.6,74.2c0,0.2,0,0.5,0.1,0.7s0.2,0.4,0.4,0.6s0.3,0.3,0.6,0.4
		c0.2,0.1,0.5,0.1,0.8,0.1c0.4,0,0.7-0.1,1-0.2c0.3-0.1,0.6-0.3,0.8-0.6c0.2-0.2,0.4-0.5,0.5-0.9c0.1-0.3,0.2-0.7,0.2-1
		c0-0.3,0-0.5-0.1-0.7c-0.1-0.2-0.2-0.4-0.4-0.6c-0.2-0.2-0.4-0.3-0.6-0.4s-0.5-0.1-0.8-0.1c-0.4,0-0.7,0.1-1,0.2s-0.6,0.3-0.8,0.5
		c-0.2,0.2-0.4,0.5-0.5,0.9C199.7,73.5,199.6,73.8,199.6,74.2z"/>
	<path class="st4" d="M210.5,73.2c0-0.1,0-0.2,0-0.3c0-0.1,0-0.2,0-0.2c0-0.4-0.1-0.7-0.4-0.9c-0.2-0.2-0.6-0.3-1-0.3
		c-0.3,0-0.7,0.1-1,0.2s-0.6,0.3-0.8,0.5l-0.4-0.6c0.3-0.2,0.6-0.4,1-0.6c0.4-0.2,0.8-0.2,1.2-0.2c0.3,0,0.5,0,0.8,0.1
		c0.3,0.1,0.5,0.2,0.7,0.3s0.3,0.3,0.4,0.5c0.1,0.2,0.2,0.5,0.2,0.8c0,0.1,0,0.2,0,0.3c0,0.1,0,0.2,0,0.3l-0.4,2.3
		c0,0.2-0.1,0.5-0.1,0.7c0,0.2,0,0.4,0,0.6H210c0-0.1,0-0.3,0-0.5c0-0.2,0-0.3,0.1-0.5h0c-0.2,0.2-0.3,0.4-0.5,0.5
		c-0.2,0.1-0.3,0.2-0.5,0.3c-0.2,0.1-0.4,0.1-0.6,0.2c-0.2,0-0.4,0.1-0.7,0.1c-0.2,0-0.4,0-0.6-0.1s-0.4-0.1-0.6-0.3
		c-0.2-0.1-0.3-0.3-0.4-0.5s-0.2-0.4-0.2-0.7c0-0.5,0.1-0.8,0.4-1.1s0.6-0.5,1-0.7c0.4-0.2,0.9-0.3,1.4-0.3S210,73.2,210.5,73.2z
		 M210.2,73.8c-0.4,0-0.8,0-1.1,0.1c-0.4,0-0.7,0.1-1.1,0.2s-0.6,0.2-0.8,0.4c-0.2,0.2-0.3,0.4-0.3,0.7c0,0.2,0,0.3,0.1,0.5
		c0.1,0.1,0.2,0.2,0.3,0.3c0.1,0.1,0.2,0.1,0.4,0.1c0.1,0,0.3,0,0.4,0c0.3,0,0.6,0,0.8-0.1c0.2-0.1,0.5-0.2,0.7-0.4s0.3-0.4,0.5-0.6
		c0.1-0.2,0.2-0.5,0.3-0.7l0.1-0.5H210.2z"/>
	<path class="st4" d="M214.5,71c0,0.2,0,0.3-0.1,0.5c0,0.2,0,0.3-0.1,0.5h0c0.2-0.4,0.5-0.6,0.9-0.8c0.4-0.2,0.7-0.3,1.1-0.3
		c0.6,0,1.1,0.2,1.5,0.5c0.4,0.3,0.5,0.7,0.5,1.3c0,0.1,0,0.2,0,0.3c0,0.1,0,0.2,0,0.3l-0.6,3.5h-0.8l0.6-3.2c0-0.3,0.1-0.5,0.1-0.7
		c0-0.4-0.1-0.7-0.3-1c-0.2-0.2-0.5-0.4-1-0.4c-0.2,0-0.4,0-0.7,0.1c-0.2,0.1-0.4,0.2-0.6,0.4c-0.2,0.2-0.4,0.4-0.5,0.7
		s-0.3,0.6-0.3,1l-0.5,3h-0.8l0.8-4.5c0-0.2,0.1-0.4,0.1-0.6s0.1-0.5,0.1-0.7H214.5z"/>
	<path class="st4" d="M224.7,75.5L224.7,75.5l3.7-7.5h1.1l0.7,7.5h0l3.6-7.5h0.9l-4.3,8.7h-1l-0.7-7.5h0l-3.7,7.5h-1L223,68h0.9
		L224.7,75.5z"/>
	<path class="st4" d="M237.8,70.8c0.6,0,1.1,0.2,1.5,0.5c0.4,0.3,0.5,0.7,0.5,1.3c0,0.1,0,0.2,0,0.3c0,0.1,0,0.2,0,0.3l-0.6,3.5
		h-0.8l0.6-3.2c0-0.3,0.1-0.5,0.1-0.7c0-0.4-0.1-0.7-0.3-1c-0.2-0.2-0.5-0.4-1-0.4c-0.2,0-0.4,0-0.7,0.1c-0.2,0.1-0.4,0.2-0.6,0.4
		s-0.4,0.4-0.5,0.7c-0.1,0.3-0.2,0.6-0.3,1l-0.5,3h-0.8l1.6-9.3h0.8l-0.8,4.5h0c0.2-0.3,0.5-0.6,0.8-0.8
		C237,70.9,237.4,70.8,237.8,70.8z"/>
	<path class="st4" d="M241.9,76.8h-0.8l1-5.8h0.8L241.9,76.8z M243.5,68.7c0,0.2-0.1,0.3-0.2,0.4c-0.1,0.1-0.2,0.2-0.4,0.2
		c-0.2,0-0.3,0-0.4-0.1c-0.1-0.1-0.2-0.2-0.2-0.4s0.1-0.3,0.2-0.4c0.1-0.1,0.3-0.2,0.4-0.2s0.3,0.1,0.4,0.2
		C243.4,68.4,243.5,68.6,243.5,68.7z"/>
	<path class="st4" d="M247.3,71.7h-1.6l-0.6,3.4c0,0.1,0,0.3,0,0.4c0,0.3,0.1,0.5,0.2,0.5s0.3,0.1,0.5,0.1c0.1,0,0.2,0,0.4-0.1
		s0.2-0.1,0.3-0.1l-0.1,0.7c-0.1,0.1-0.2,0.1-0.4,0.1c-0.2,0-0.3,0-0.5,0c-0.1,0-0.3,0-0.4,0c-0.1,0-0.3-0.1-0.4-0.2
		c-0.1-0.1-0.2-0.2-0.3-0.4c-0.1-0.1-0.1-0.3-0.1-0.6c0-0.1,0-0.2,0-0.4l0.6-3.6h-1.2l0.1-0.7h1.2l0.3-1.6h0.8l-0.3,1.6h1.6
		L247.3,71.7z"/>
	<path class="st4" d="M248.5,74.1c0,0,0,0.1,0,0.1c0,0,0,0.1,0,0.1c0,0.3,0,0.5,0.1,0.7s0.2,0.4,0.4,0.6s0.4,0.3,0.6,0.4
		c0.2,0.1,0.5,0.1,0.7,0.1c0.5,0,0.8-0.1,1.2-0.3c0.3-0.2,0.6-0.4,0.8-0.7l0.5,0.5c-0.3,0.4-0.7,0.7-1.2,0.9
		c-0.4,0.2-0.9,0.3-1.4,0.3c-0.4,0-0.7-0.1-1-0.2s-0.6-0.3-0.8-0.5c-0.2-0.2-0.4-0.5-0.6-0.8c-0.1-0.3-0.2-0.7-0.2-1.1
		c0-0.5,0.1-0.9,0.3-1.3c0.2-0.4,0.4-0.8,0.7-1.1s0.7-0.6,1.1-0.8c0.4-0.2,0.8-0.3,1.3-0.3c0.8,0,1.4,0.2,1.8,0.6
		c0.4,0.4,0.6,1,0.6,1.6c0,0.1,0,0.2,0,0.5s0,0.4-0.1,0.5H248.5z M252.5,73.5c0-0.1,0-0.1,0-0.2c0-0.1,0-0.2,0-0.2
		c0-0.4-0.1-0.8-0.4-1.1c-0.3-0.3-0.7-0.4-1.2-0.4c-0.3,0-0.6,0.1-0.8,0.2c-0.3,0.1-0.5,0.2-0.7,0.4c-0.2,0.2-0.4,0.4-0.5,0.6
		c-0.1,0.2-0.2,0.5-0.3,0.7H252.5z"/>
	<path class="st4" d="M261.7,76.2c0.5,0,1-0.1,1.4-0.2c0.4-0.1,0.8-0.3,1.1-0.4l0.5-2.7h-2.1l0.1-0.8h2.9l-0.7,3.9
		c-0.5,0.3-1.1,0.5-1.6,0.7c-0.5,0.1-1.1,0.2-1.7,0.2c-0.6,0-1.1-0.1-1.6-0.3c-0.5-0.2-0.9-0.4-1.2-0.8c-0.3-0.3-0.6-0.7-0.8-1.2
		c-0.2-0.5-0.3-1-0.3-1.5c0-0.8,0.1-1.5,0.4-2.1c0.3-0.7,0.6-1.2,1.1-1.7c0.5-0.5,1-0.9,1.7-1.2c0.6-0.3,1.3-0.4,2-0.4
		c0.3,0,0.6,0,0.9,0.1c0.3,0.1,0.6,0.2,0.8,0.3c0.3,0.1,0.5,0.3,0.7,0.4c0.2,0.2,0.4,0.4,0.5,0.6l-0.8,0.5c-0.1-0.1-0.2-0.3-0.3-0.4
		c-0.1-0.1-0.3-0.3-0.5-0.4c-0.2-0.1-0.4-0.2-0.6-0.3c-0.2-0.1-0.5-0.1-0.8-0.1c-0.6,0-1.2,0.1-1.7,0.4c-0.5,0.3-1,0.6-1.3,1
		c-0.4,0.4-0.7,0.9-0.9,1.5s-0.3,1.1-0.3,1.7c0,0.4,0.1,0.8,0.2,1.2c0.1,0.4,0.3,0.7,0.6,1s0.6,0.5,1,0.7
		C260.7,76.1,261.2,76.2,261.7,76.2z"/>
	<path class="st4" d="M267.7,71.6c0-0.2,0.1-0.5,0.1-0.7h0.8c0,0.2,0,0.3-0.1,0.5c0,0.2,0,0.3-0.1,0.5h0c0.2-0.3,0.5-0.6,0.8-0.8
		s0.7-0.3,1.1-0.3c0.1,0,0.2,0,0.3,0c0.1,0,0.2,0,0.3,0l-0.2,0.8c0,0-0.1,0-0.2,0s-0.2,0-0.3,0c-0.2,0-0.4,0-0.7,0.1
		c-0.2,0.1-0.4,0.2-0.6,0.4c-0.2,0.2-0.3,0.4-0.5,0.7c-0.1,0.3-0.2,0.6-0.3,1l-0.5,3h-0.8l0.8-4.5C267.6,72.1,267.6,71.9,267.7,71.6
		z"/>
	<path class="st4" d="M273.4,76.9c-0.4,0-0.7-0.1-1.1-0.2c-0.3-0.1-0.6-0.3-0.8-0.5c-0.2-0.2-0.4-0.5-0.5-0.8
		c-0.1-0.3-0.2-0.6-0.2-1c0-0.5,0.1-0.9,0.3-1.4c0.2-0.4,0.4-0.8,0.7-1.1c0.3-0.3,0.7-0.6,1.1-0.8c0.4-0.2,0.9-0.3,1.4-0.3
		c0.4,0,0.8,0.1,1.1,0.2s0.6,0.3,0.8,0.5c0.2,0.2,0.4,0.5,0.5,0.8s0.2,0.6,0.2,1c0,0.5-0.1,1-0.3,1.4s-0.4,0.8-0.7,1.1
		s-0.7,0.6-1.1,0.8C274.4,76.8,273.9,76.9,273.4,76.9z M276,73.4c0-0.3,0-0.5-0.1-0.7c-0.1-0.2-0.2-0.4-0.4-0.6s-0.4-0.3-0.6-0.4
		c-0.2-0.1-0.5-0.1-0.8-0.1c-0.4,0-0.7,0.1-1,0.2c-0.3,0.2-0.6,0.4-0.8,0.6c-0.2,0.3-0.4,0.6-0.5,0.9c-0.1,0.3-0.2,0.7-0.2,1.1
		c0,0.3,0,0.5,0.1,0.7c0.1,0.2,0.2,0.4,0.4,0.6c0.2,0.2,0.4,0.3,0.6,0.4c0.2,0.1,0.5,0.1,0.8,0.1c0.4,0,0.7-0.1,1-0.2
		c0.3-0.2,0.6-0.4,0.8-0.6s0.4-0.6,0.5-0.9S276,73.8,276,73.4z"/>
	<path class="st4" d="M282,76.8c0-0.2,0-0.3,0.1-0.5s0-0.3,0.1-0.5h0c-0.2,0.4-0.5,0.6-0.9,0.8c-0.3,0.2-0.7,0.3-1.1,0.3
		c-0.6,0-1.1-0.2-1.5-0.5c-0.4-0.3-0.5-0.7-0.5-1.3c0-0.1,0-0.2,0-0.3c0-0.1,0-0.2,0-0.3l0.6-3.5h0.8l-0.6,3.2
		c0,0.3-0.1,0.5-0.1,0.7c0,0.4,0.1,0.7,0.3,1s0.5,0.3,1,0.3c0.2,0,0.4,0,0.7-0.1s0.4-0.2,0.6-0.4c0.2-0.2,0.4-0.4,0.5-0.7
		c0.1-0.3,0.3-0.6,0.3-1l0.5-3h0.8l-0.8,4.5c0,0.2-0.1,0.4-0.1,0.6c0,0.2-0.1,0.5-0.1,0.7H282z"/>
	<path class="st4" d="M286.7,71.9c0.1-0.1,0.2-0.3,0.4-0.4c0.1-0.1,0.3-0.2,0.5-0.3c0.2-0.1,0.4-0.2,0.6-0.2
		c0.2-0.1,0.4-0.1,0.7-0.1c0.4,0,0.8,0.1,1.1,0.2c0.3,0.1,0.6,0.3,0.8,0.5s0.4,0.5,0.5,0.8c0.1,0.3,0.2,0.6,0.2,1
		c0,0.5-0.1,1-0.3,1.4s-0.4,0.8-0.7,1.1s-0.7,0.6-1.1,0.8c-0.4,0.2-0.9,0.3-1.4,0.3c-0.4,0-0.8-0.1-1.2-0.3
		c-0.4-0.2-0.6-0.5-0.8-0.8h0l-0.7,3.9h-0.8L286,71h0.8L286.7,71.9L286.7,71.9z M290.5,73.4c0-0.3,0-0.5-0.1-0.7
		c-0.1-0.2-0.2-0.4-0.4-0.6s-0.3-0.3-0.6-0.4s-0.5-0.1-0.8-0.1c-0.4,0-0.7,0.1-1,0.2c-0.3,0.1-0.6,0.4-0.8,0.6
		c-0.2,0.3-0.4,0.6-0.5,0.9c-0.1,0.3-0.2,0.7-0.2,1.1c0,0.3,0,0.5,0.1,0.7c0.1,0.2,0.2,0.4,0.4,0.6c0.2,0.2,0.4,0.3,0.6,0.4
		s0.5,0.1,0.8,0.1c0.4,0,0.7-0.1,1-0.2c0.3-0.1,0.6-0.4,0.8-0.6c0.2-0.3,0.4-0.6,0.5-0.9C290.5,74.1,290.5,73.8,290.5,73.4z"/>
	<circle class="st9" cx="45.7" cy="45.7" r="44.6"/>
	<path class="st4" d="M72.5,33.7c2.8,0,4.8,1.2,6.1,2.6c1.5,1.5,2.4,3.6,2.9,5c0.1,0.2,0.1,0.3,0.4,0.3l0.9-0.1
		c0.1,0,0.1-0.2,0.1-0.5l-0.4-7.3c0-0.3-0.1-0.5-0.4-0.5c-0.2,0-0.3,0.1-0.5,0.4L81.2,34c-0.2,0.3-0.4,0.4-0.9,0.1
		c-1.2-0.9-3.9-2-7.5-2c-6.7,0-11.6,1.4-14.7,11.2l-3,7.8l-4.6-10.2c0,0-1.9-4.6-2.7-4.6c-0.8,0-2.8,4.3-2.8,4.3S40.1,51.2,39.8,52
		l-0.1,0L34,35c-0.3-0.8,0.1-1.3,0.9-1.3h0.7c0.3,0,0.3-0.1,0.3-0.3v-0.9c0-0.2-0.1-0.3-0.3-0.3c-0.3,0-2,0.1-3.6,0.1
		c-0.2,0-0.4,0.5-0.7,1.2c-1.1,2.5-6.4,14.1-6.7,15h-0.1l-6.6-15.4c-0.1-0.4-0.4-0.8-0.9-0.8c-0.5,0-0.8,0.6-0.9,1
		c-0.7,1.8-8.2,22.3-8.6,23.1c-0.4,0.8-1,1.2-1.6,1.2H2.9c-0.2,0-0.3,0.1-0.3,0.3v1c0,0.1,0.1,0.2,0.2,0.2c0.3,0,3.6-0.1,5.6-0.1
		c2.3,0,3.5,0.1,3.9,0.1c0.2,0,0.3-0.1,0.3-0.3V58c0-0.2,0-0.3-0.3-0.3h-1c-0.9,0-1.2-0.5-1.2-1c0-2,4.2-14.1,5.3-17.3h0.1l5.3,13.1
		c0,0,1.2,2.9,2,2.9c1.1,0,2.9-4,2.9-4s4.9-11,5.2-11.8l0.1,0l5.7,16.9c0.3,0.8-0.1,1.3-0.9,1.3h-0.7c-0.3,0-0.3,0.1-0.3,0.3v0.9
		c0,0.2,0.1,0.3,0.3,0.3c0.3,0,1.2,0,3-0.1c0.3,0,0.5-0.1,0.7-0.3c0.2-0.1,0.3-0.3,0.4-0.5c0.1-0.4,6.6-14,6.9-15.1h0.1l6.6,14.9
		c0.1,0.4,0.4,0.8,0.9,0.8c2,0,2.6-0.8,3.4-3c0.4-1.2,2.8-7.9,4.9-13.6C64.6,35.7,68.6,33.7,72.5,33.7z M90,47.2
		c-0.4,0-7.3,0.1-10.4,0.1c-3,0-4.8-0.1-5.2-0.1c-0.1,0-0.2,0.1-0.2,0.3v0.8c0,0.2,0.1,0.3,0.3,0.3h1.5c1,0,1.3,0.4,1.3,1.7v2.7
		c0,1.9-0.1,2.9-0.9,3.4c-1.2,0.7-2.6,0.6-5,0.6c-3.6,0-6.2-2.3-9.2-4.7c-0.5-0.4-0.7-0.2-0.8,0c-0.1,0.2-0.6,1.4-0.7,1.7
		c-0.1,0.3-0.2,0.7,0.2,1.1c2.5,2.8,6.8,4,10.3,4c4.4,0,7.4-0.9,10.4-2.4c0.4-0.1,0.6-0.3,0.6-0.6c0-0.3-0.1-0.7-0.1-1.2v-4.8
		c0-1.1,0.4-1.4,1.1-1.4h6.9c0.2,0,0.3-0.1,0.3-0.3v-0.9C90.4,47.3,90.3,47.2,90,47.2z"/>
</g>
</a>
</svg>
