<svg xmlns="http://www.w3.org/2000/svg" viewBox="0 0 402.07 91.32"><title>mestmaker-white</title><path d="M106.58,34.92h7l4.83,14.27h.06l4.87-14.27h7V56.79h-4.62V40h-.06L120.1,56.79h-3.53L111.27,40h-.06V56.79h-4.63Z" fill="#fff"/><path d="M134.75,34.92H149v4.45h-9.64v4.08h9.1V47.9h-9.1v4.44h10.17v4.45h-14.8Z" fill="#fff"/><path d="M163.64,40.27a3.33,3.33,0,0,0-1.53-1.1,5.21,5.21,0,0,0-1.83-.36,4.69,4.69,0,0,0-1,.13,4,4,0,0,0-1,.38,2.26,2.26,0,0,0-.77.7,1.8,1.8,0,0,0-.3,1,1.77,1.77,0,0,0,.71,1.51,6.87,6.87,0,0,0,1.8.9c.72.25,1.5.49,2.33.74a9.54,9.54,0,0,1,2.32,1.05,5.69,5.69,0,0,1,1.8,1.82,5.82,5.82,0,0,1,.71,3.06,7.31,7.31,0,0,1-.65,3.18,6.51,6.51,0,0,1-1.77,2.26,7.35,7.35,0,0,1-2.58,1.33A11.38,11.38,0,0,1,155,56.7a9.27,9.27,0,0,1-3.26-2.1L155,50.83a4.81,4.81,0,0,0,1.79,1.53,4.85,4.85,0,0,0,3.38.4,3.44,3.44,0,0,0,1-.42,2.19,2.19,0,0,0,.74-.71,1.77,1.77,0,0,0,.28-1,1.91,1.91,0,0,0-.72-1.56,6.84,6.84,0,0,0-1.83-1c-.73-.27-1.52-.53-2.37-.8a10.63,10.63,0,0,1-2.37-1.08,6,6,0,0,1-1.83-1.79,5.36,5.36,0,0,1-.72-2.94,6.89,6.89,0,0,1,.66-3.09,6.8,6.8,0,0,1,1.78-2.22,7.7,7.7,0,0,1,2.57-1.35,10.4,10.4,0,0,1,3-.44,11.29,11.29,0,0,1,3.44.52,7.9,7.9,0,0,1,3,1.76Z" fill="#fff"/><path d="M174.34,39.18h-6V34.92H185v4.26h-6V56.79h-4.63Z" fill="#fff"/><path d="M187.3,34.92h7l4.83,14.27h.06l4.87-14.27h7V56.79H206.4V40h-.06l-5.52,16.77h-3.53L192,40h-.06V56.79H187.3Z" fill="#fff"/><path d="M222.21,34.92H226l9.14,21.87H230l-1.81-4.63H220l-1.75,4.63h-5.1ZM224,41.29l-2.56,6.79h5.14Z" fill="#fff"/><path d="M237.45,34.92h4.62V44l8.16-9.08h6l-9.34,10.17,10.14,11.7h-6.46l-8.55-10.38V56.79h-4.62Z" fill="#fff"/><path d="M258.86,34.92h14.26v4.45h-9.63v4.08h9.1V47.9h-9.1v4.44h10.17v4.45h-14.8Z" fill="#fff"/><path d="M277.36,34.92h8.13a13.55,13.55,0,0,1,3,.33,6.83,6.83,0,0,1,2.52,1.08,5.31,5.31,0,0,1,1.72,2,7.19,7.19,0,0,1,.64,3.19,6.61,6.61,0,0,1-1.16,3.94,5.19,5.19,0,0,1-3.38,2.06l5.34,9.23h-5.55l-4.39-8.74H282v8.74h-4.63ZM282,44h2.73c.41,0,.85,0,1.32,0a4.15,4.15,0,0,0,1.26-.28,2.22,2.22,0,0,0,.93-.73,2.25,2.25,0,0,0,.37-1.39,2.47,2.47,0,0,0-.32-1.33,2.29,2.29,0,0,0-.83-.75,3.5,3.5,0,0,0-1.16-.36A9.4,9.4,0,0,0,285,39h-3Z" fill="#fff"/><path d="M314.34,53l3.51,3.76H315.6l-2.2-2.38a8.74,8.74,0,0,1-2.08,2.05,4.64,4.64,0,0,1-2.68.75,5.76,5.76,0,0,1-1.86-.31,4.63,4.63,0,0,1-1.57-.91,4.39,4.39,0,0,1-1.07-1.46,4.7,4.7,0,0,1-.39-2,4.46,4.46,0,0,1,.28-1.63,4.63,4.63,0,0,1,.79-1.32,5.89,5.89,0,0,1,1.13-1,9.18,9.18,0,0,1,1.34-.81A9.73,9.73,0,0,1,306,46a3.93,3.93,0,0,1-.57-2.07,4.12,4.12,0,0,1,.3-1.63,3.48,3.48,0,0,1,.83-1.21,3.35,3.35,0,0,1,1.23-.74,4.52,4.52,0,0,1,1.54-.26,4.38,4.38,0,0,1,1.46.24,3.79,3.79,0,0,1,1.2.7,3.24,3.24,0,0,1,.81,1.14,3.82,3.82,0,0,1,.3,1.57,3.18,3.18,0,0,1-.31,1.44,4.27,4.27,0,0,1-.8,1.14,6.17,6.17,0,0,1-1.11.92c-.42.27-.82.51-1.22.72l3.6,3.86L315.42,48h1.79Zm-6.06-4.22a14.25,14.25,0,0,0-1.31.86,4.15,4.15,0,0,0-.87.85,3,3,0,0,0-.48.95,3.93,3.93,0,0,0-.16,1.12,3,3,0,0,0,.27,1.27,3.13,3.13,0,0,0,.7,1,3.35,3.35,0,0,0,1,.63,3.07,3.07,0,0,0,1.21.23,3.57,3.57,0,0,0,1.16-.18,3.7,3.7,0,0,0,1-.51,4.62,4.62,0,0,0,.85-.75,10.61,10.61,0,0,0,.77-1Zm3.27-5a2,2,0,0,0-.63-1.55,2.16,2.16,0,0,0-1.53-.58A2.25,2.25,0,0,0,307.05,44a2.09,2.09,0,0,0,.19.86,4.78,4.78,0,0,0,.44.84,8,8,0,0,0,.53.73,3.78,3.78,0,0,0,.47.49c.3-.19.61-.37.95-.56a5.66,5.66,0,0,0,.94-.66,3.18,3.18,0,0,0,.7-.85A2.22,2.22,0,0,0,311.55,43.78Z" fill="#fff"/><path d="M326.17,56.79h-1.85l6.79-16.24h1.54l6.79,16.24h-1.86l-1.71-4.27h-8ZM328.49,51h6.76l-3.37-8.54Z" fill="#fff"/><path d="M348.93,43.23a3.38,3.38,0,0,0-3-1.58,4.53,4.53,0,0,0-1.21.17,3.15,3.15,0,0,0-1.07.53,2.65,2.65,0,0,0-.76.92,2.86,2.86,0,0,0-.28,1.32,2.3,2.3,0,0,0,.59,1.7,4.65,4.65,0,0,0,1.48,1,14.81,14.81,0,0,0,1.92.7,8.58,8.58,0,0,1,1.93.83A4.69,4.69,0,0,1,350,50.18a4,4,0,0,1,.59,2.32,4.32,4.32,0,0,1-.45,2A4.55,4.55,0,0,1,348.94,56a5.32,5.32,0,0,1-1.65.91,5.38,5.38,0,0,1-1.84.33,6.63,6.63,0,0,1-2.72-.57,5.2,5.2,0,0,1-2.19-1.84L342,53.72a3.94,3.94,0,0,0,1.41,1.43,4.06,4.06,0,0,0,2.13.54,3.73,3.73,0,0,0,1.18-.19,3.46,3.46,0,0,0,1.07-.58,3.22,3.22,0,0,0,.78-.93,2.55,2.55,0,0,0,.3-1.26,2.68,2.68,0,0,0-.34-1.41,3.1,3.1,0,0,0-.9-.94,5.87,5.87,0,0,0-1.28-.63l-1.47-.51a14.61,14.61,0,0,1-1.48-.57,5,5,0,0,1-1.28-.82,3.67,3.67,0,0,1-.9-1.23,4.47,4.47,0,0,1-.34-1.87,4.55,4.55,0,0,1,.43-2,4.05,4.05,0,0,1,1.14-1.44,4.83,4.83,0,0,1,1.62-.85,6.1,6.1,0,0,1,1.85-.28,6.37,6.37,0,0,1,2.4.44,5.17,5.17,0,0,1,2,1.54Z" fill="#fff"/><path d="M361.18,43.23a3.38,3.38,0,0,0-3-1.58,4.53,4.53,0,0,0-1.21.17,3.15,3.15,0,0,0-1.07.53,2.54,2.54,0,0,0-.76.92,2.86,2.86,0,0,0-.29,1.32,2.3,2.3,0,0,0,.6,1.7,4.6,4.6,0,0,0,1.47,1,15,15,0,0,0,1.93.7,8.58,8.58,0,0,1,1.93.83,4.69,4.69,0,0,1,1.48,1.36,4,4,0,0,1,.59,2.32,4.32,4.32,0,0,1-.45,2A4.55,4.55,0,0,1,361.19,56a5.32,5.32,0,0,1-1.65.91,5.42,5.42,0,0,1-1.84.33,6.63,6.63,0,0,1-2.72-.57,5.28,5.28,0,0,1-2.2-1.84l1.46-1.08a3.92,3.92,0,0,0,1.4,1.43,4.06,4.06,0,0,0,2.13.54A3.75,3.75,0,0,0,359,55.5a3.46,3.46,0,0,0,1.07-.58,3,3,0,0,0,.77-.93,2.45,2.45,0,0,0,.31-1.26,2.68,2.68,0,0,0-.34-1.41,3.1,3.1,0,0,0-.9-.94,5.87,5.87,0,0,0-1.28-.63l-1.48-.51a14.43,14.43,0,0,1-1.47-.57,4.83,4.83,0,0,1-1.28-.82,3.54,3.54,0,0,1-.9-1.23,4.46,4.46,0,0,1-.35-1.87,4.69,4.69,0,0,1,.43-2,4.19,4.19,0,0,1,1.15-1.44,4.83,4.83,0,0,1,1.62-.85,6.1,6.1,0,0,1,1.85-.28,6.37,6.37,0,0,1,2.4.44,5.17,5.17,0,0,1,2,1.54Z" fill="#fff"/><path d="M381.25,48.67a9.25,9.25,0,0,1-.62,3.42,8.18,8.18,0,0,1-1.71,2.7,7.72,7.72,0,0,1-2.57,1.77,8.35,8.35,0,0,1-6.46,0,7.86,7.86,0,0,1-2.58-1.77,8.32,8.32,0,0,1-1.7-2.7,9.74,9.74,0,0,1,0-6.84,8.32,8.32,0,0,1,1.7-2.7,7.86,7.86,0,0,1,2.58-1.77,8.35,8.35,0,0,1,6.46,0,7.72,7.72,0,0,1,2.57,1.77,8.18,8.18,0,0,1,1.71,2.7A9.25,9.25,0,0,1,381.25,48.67Zm-1.72,0a8.17,8.17,0,0,0-.44-2.67,6.94,6.94,0,0,0-1.27-2.24,6.21,6.21,0,0,0-9.4,0A6.59,6.59,0,0,0,367.15,46a8.32,8.32,0,0,0,0,5.34,6.59,6.59,0,0,0,1.27,2.24,6.21,6.21,0,0,0,9.4,0,6.94,6.94,0,0,0,1.27-2.24A8.21,8.21,0,0,0,379.53,48.67Z" fill="#fff"/><path d="M397.26,54.22a5.64,5.64,0,0,1-1,1.17,6.19,6.19,0,0,1-1.33,1,8.26,8.26,0,0,1-1.62.63,7.3,7.3,0,0,1-1.84.23,8,8,0,0,1-3.23-.65,7.72,7.72,0,0,1-2.57-1.77,8.18,8.18,0,0,1-1.71-2.7,9.74,9.74,0,0,1,0-6.84,8.18,8.18,0,0,1,1.71-2.7,7.72,7.72,0,0,1,2.57-1.77,8,8,0,0,1,3.23-.65,7.58,7.58,0,0,1,2.91.6,6,6,0,0,1,2.49,2l-1.39,1.08a3.8,3.8,0,0,0-.66-.78,4.9,4.9,0,0,0-1-.69,5.44,5.44,0,0,0-1.16-.48,4.36,4.36,0,0,0-1.23-.18,6,6,0,0,0-4.7,2.11A6.76,6.76,0,0,0,385.52,46a8.32,8.32,0,0,0,0,5.34,6.76,6.76,0,0,0,1.27,2.24,6,6,0,0,0,4.7,2.11,7.1,7.1,0,0,0,1.22-.11,5.18,5.18,0,0,0,1.19-.39,4.38,4.38,0,0,0,1.1-.75,5.25,5.25,0,0,0,1-1.18Z" fill="#fff"/><path d="M402.07,55.69a1.28,1.28,0,0,1-.34.86,1.15,1.15,0,0,1-1.71,0,1.29,1.29,0,0,1,0-1.72,1.15,1.15,0,0,1,1.71,0A1.28,1.28,0,0,1,402.07,55.69Z" fill="#fff"/><path d="M105.46,76.62h-1l5.64-8.74h.86l1.82,8.74h-.93l-.47-2.29h-4.47Zm1.94-3.11h3.83l-.92-4.65Z" fill="#fff"/><path d="M116.63,74.28a3.82,3.82,0,0,1,.25-1.4,3.49,3.49,0,0,1,.71-1.14,3.58,3.58,0,0,1,1.08-.76,3.25,3.25,0,0,1,1.36-.29,2.54,2.54,0,0,1,1.18.29,1.92,1.92,0,0,1,.83.84h0l.8-4.54h.83L122,76.62h-.83l.18-1h0a2.29,2.29,0,0,1-.85.77,2.51,2.51,0,0,1-1.27.33,3,3,0,0,1-1.07-.18,2.41,2.41,0,0,1-.83-.51,2.39,2.39,0,0,1-.53-.79A2.75,2.75,0,0,1,116.63,74.28Zm.86-.06a2.11,2.11,0,0,0,.12.73,1.85,1.85,0,0,0,.35.59,1.78,1.78,0,0,0,.57.4,2.05,2.05,0,0,0,.78.14,2.29,2.29,0,0,0,1-.22,2.51,2.51,0,0,0,.82-.62,2.92,2.92,0,0,0,.54-.9,3,3,0,0,0,.2-1.08,2,2,0,0,0-.13-.75,1.71,1.71,0,0,0-.38-.6,1.6,1.6,0,0,0-.59-.39,2.11,2.11,0,0,0-.77-.14,2.33,2.33,0,0,0-1,.23,2.63,2.63,0,0,0-.8.6,2.84,2.84,0,0,0-.51.9A3.36,3.36,0,0,0,117.49,74.22Z" fill="#fff"/><path d="M125,76.62h-.83l1-5.78H126Zm1.52-8a.57.57,0,0,1-.17.42.54.54,0,0,1-.41.18.57.57,0,0,1-.4-.15.5.5,0,0,1-.17-.41.57.57,0,0,1,.18-.43A.56.56,0,0,1,126,68a.53.53,0,0,1,.56.56Z" fill="#fff"/><path d="M129.19,76.62h-.88l-1.22-5.78H128l.92,4.89h0l2.88-4.89h.9Z" fill="#fff"/><path d="M133.69,76.62h-.83l1-5.78h.83Zm1.52-8A.54.54,0,0,1,135,69a.52.52,0,0,1-.41.18.57.57,0,0,1-.4-.15.53.53,0,0,1-.17-.41.6.6,0,0,1,1-.45A.53.53,0,0,1,135.21,68.6Z" fill="#fff"/><path d="M139.71,72.11a1.37,1.37,0,0,0-.52-.52,1.57,1.57,0,0,0-.83-.21,2.49,2.49,0,0,0-.46.05,2.18,2.18,0,0,0-.45.16,1.15,1.15,0,0,0-.33.29.72.72,0,0,0-.13.44.87.87,0,0,0,.08.39.9.9,0,0,0,.23.25,1.51,1.51,0,0,0,.36.18,3.85,3.85,0,0,0,.48.16,3.5,3.5,0,0,1,1.3.62,1.34,1.34,0,0,1,.44,1.07,1.5,1.5,0,0,1-.21.81,1.77,1.77,0,0,1-.53.56,2.12,2.12,0,0,1-.72.31,3,3,0,0,1-.77.1,3.45,3.45,0,0,1-1.37-.27,2.1,2.1,0,0,1-1-.82l.71-.46a1.84,1.84,0,0,0,1.61.86,2.33,2.33,0,0,0,.53-.06,1.33,1.33,0,0,0,.46-.17.9.9,0,0,0,.33-.31.85.85,0,0,0,.13-.45.79.79,0,0,0-.37-.7,4.49,4.49,0,0,0-1-.47,4.6,4.6,0,0,1-.52-.19,2.19,2.19,0,0,1-.47-.29,1.34,1.34,0,0,1-.34-.44,1.28,1.28,0,0,1-.13-.61,1.47,1.47,0,0,1,.2-.77,1.87,1.87,0,0,1,.52-.53,2.66,2.66,0,0,1,.71-.3,3.11,3.11,0,0,1,.79-.1,2.75,2.75,0,0,1,1.2.26,1.69,1.69,0,0,1,.75.69Z" fill="#fff"/><path d="M142,76.62h-.83l1-5.78H143Zm1.52-8a.57.57,0,0,1-.17.42.54.54,0,0,1-.41.18.59.59,0,0,1-.41-.15.53.53,0,0,1-.16-.41.57.57,0,0,1,.18-.43.53.53,0,0,1,.41-.17.53.53,0,0,1,.56.56Z" fill="#fff"/><path d="M146.68,76.77a3.14,3.14,0,0,1-1.08-.18,2.54,2.54,0,0,1-.84-.52,2.12,2.12,0,0,1-.55-.79,2.61,2.61,0,0,1-.2-1,3.79,3.79,0,0,1,.25-1.38,3.55,3.55,0,0,1,.71-1.13,3.37,3.37,0,0,1,1.09-.77,3.31,3.31,0,0,1,1.38-.29,3.16,3.16,0,0,1,1.09.18,2.56,2.56,0,0,1,.84.51,2.73,2.73,0,0,1,.55.79,2.61,2.61,0,0,1,.19,1,3.77,3.77,0,0,1-.25,1.39,3.49,3.49,0,0,1-.71,1.14,3.42,3.42,0,0,1-1.09.77A3.31,3.31,0,0,1,146.68,76.77Zm2.57-3.53a2.15,2.15,0,0,0-.12-.73,1.69,1.69,0,0,0-.37-.59,1.56,1.56,0,0,0-.58-.39,1.94,1.94,0,0,0-.78-.15,2.26,2.26,0,0,0-1,.23,2.78,2.78,0,0,0-.79.62,3.12,3.12,0,0,0-.71,2A2.21,2.21,0,0,0,145,75a1.64,1.64,0,0,0,.37.59,1.85,1.85,0,0,0,.58.39,2,2,0,0,0,.77.14,2.27,2.27,0,0,0,1-.23,2.66,2.66,0,0,0,.8-.61,2.84,2.84,0,0,0,.51-.9A3.07,3.07,0,0,0,149.25,73.24Z" fill="#fff"/><path d="M153,70.84c0,.16,0,.33-.06.52s-.05.35-.08.47h0a2.36,2.36,0,0,1,.86-.83,2.13,2.13,0,0,1,1.12-.31,2.1,2.1,0,0,1,1.47.48,1.67,1.67,0,0,1,.53,1.29c0,.1,0,.2,0,.3s0,.2-.05.32l-.64,3.54h-.83l.57-3.2a3.79,3.79,0,0,0,.08-.73,1.46,1.46,0,0,0-.29-1,1.2,1.2,0,0,0-1-.36,1.83,1.83,0,0,0-.67.14,1.89,1.89,0,0,0-.62.42,3,3,0,0,0-.51.71,3.16,3.16,0,0,0-.32,1l-.52,3h-.83l.79-4.51c0-.15.07-.35.1-.6a6.34,6.34,0,0,0,.08-.67Z" fill="#fff"/><path d="M163.78,76.77a3.14,3.14,0,0,1-1.08-.18,2.65,2.65,0,0,1-.84-.52,2.12,2.12,0,0,1-.55-.79,2.61,2.61,0,0,1-.2-1,4,4,0,0,1,.25-1.38,3.55,3.55,0,0,1,.71-1.13,3.37,3.37,0,0,1,1.09-.77,3.32,3.32,0,0,1,1.39-.29,3.14,3.14,0,0,1,1.08.18,2.35,2.35,0,0,1,1.39,1.3,2.61,2.61,0,0,1,.2,1,3.77,3.77,0,0,1-.26,1.39,3.33,3.33,0,0,1-.71,1.14,3.42,3.42,0,0,1-1.09.77A3.31,3.31,0,0,1,163.78,76.77Zm2.57-3.53a2.15,2.15,0,0,0-.12-.73,1.68,1.68,0,0,0-.95-1,1.94,1.94,0,0,0-.78-.15,2.26,2.26,0,0,0-1,.23,2.61,2.61,0,0,0-.78.62,2.83,2.83,0,0,0-.53.91,3,3,0,0,0-.19,1.08,2.21,2.21,0,0,0,.12.74,1.79,1.79,0,0,0,.37.59,1.85,1.85,0,0,0,.58.39,2,2,0,0,0,.77.14,2.24,2.24,0,0,0,1-.23,2.54,2.54,0,0,0,.8-.61,3.07,3.07,0,0,0,.52-.9A3.3,3.3,0,0,0,166.35,73.24Z" fill="#fff"/><path d="M171.68,71.53h-1.36l-.89,5.09h-.83l.89-5.09h-1.22l.13-.69h1.2l.27-1.57a3.7,3.7,0,0,1,.24-.82,2.23,2.23,0,0,1,.42-.68,2,2,0,0,1,.64-.46,1.94,1.94,0,0,1,.86-.18l.34,0a2.05,2.05,0,0,1,.34.07l-.19.73a2.15,2.15,0,0,0-.58-.07,1.08,1.08,0,0,0-.52.11,1.06,1.06,0,0,0-.36.31,2.14,2.14,0,0,0-.23.48,3.28,3.28,0,0,0-.14.58l-.26,1.48h1.38Z" fill="#fff"/><path d="M179.63,75.12h0l4.23-7.24h1.35l-1.54,8.74h-.88l1.33-7.56h0l-4.5,7.56h-.47l-1.83-7.56h0L176,76.62h-.86l1.54-8.74H178Z" fill="#fff"/><path d="M188.48,76.77a3.18,3.18,0,0,1-1.08-.18,2.65,2.65,0,0,1-.84-.52,2.12,2.12,0,0,1-.55-.79,2.61,2.61,0,0,1-.2-1,3.8,3.8,0,0,1,.26-1.38,3.43,3.43,0,0,1,1.79-1.9,3.32,3.32,0,0,1,1.39-.29,3.14,3.14,0,0,1,1.08.18,2.35,2.35,0,0,1,1.39,1.3,2.61,2.61,0,0,1,.2,1,3.77,3.77,0,0,1-.26,1.39,3.33,3.33,0,0,1-.71,1.14,3.42,3.42,0,0,1-1.09.77A3.31,3.31,0,0,1,188.48,76.77Zm2.57-3.53a2.15,2.15,0,0,0-.12-.73,1.68,1.68,0,0,0-1-1,1.94,1.94,0,0,0-.78-.15,2.26,2.26,0,0,0-1,.23,2.61,2.61,0,0,0-.78.62,2.83,2.83,0,0,0-.53.91,3,3,0,0,0-.19,1.08,2.21,2.21,0,0,0,.12.74,1.79,1.79,0,0,0,.37.59,1.85,1.85,0,0,0,.58.39,2,2,0,0,0,.77.14,2.24,2.24,0,0,0,1-.23,2.54,2.54,0,0,0,.8-.61,3.07,3.07,0,0,0,.52-.9A3.3,3.3,0,0,0,191.05,73.24Z" fill="#fff"/><path d="M193.94,71.51c0-.25.06-.47.08-.67h.79c0,.16,0,.33-.07.52s-.05.35-.07.47h0a2.67,2.67,0,0,1,.82-.82,2,2,0,0,1,1.11-.32h.29l.26,0-.2.8a.72.72,0,0,0-.23,0,1.87,1.87,0,0,0-.34,0,1.82,1.82,0,0,0-.65.12,1.89,1.89,0,0,0-.59.39,2.48,2.48,0,0,0-.47.68,3.37,3.37,0,0,0-.3,1l-.52,3H193l.79-4.51C193.86,72,193.9,71.76,193.94,71.51Z" fill="#fff"/><path d="M197.09,77.83a2.35,2.35,0,0,0,.87.74,2.72,2.72,0,0,0,1.23.29,2.89,2.89,0,0,0,1.07-.18,2.13,2.13,0,0,0,.74-.49,2.77,2.77,0,0,0,.47-.73,4.85,4.85,0,0,0,.26-.89l.21-1.1h0a2.59,2.59,0,0,1-2.2,1.15,2.83,2.83,0,0,1-1.07-.19,2.35,2.35,0,0,1-.81-.54,2.38,2.38,0,0,1-.51-.8,2.7,2.7,0,0,1-.18-1,3.41,3.41,0,0,1,.26-1.32,3.24,3.24,0,0,1,.7-1.08,3.18,3.18,0,0,1,1.07-.73,3.32,3.32,0,0,1,1.35-.27,2.55,2.55,0,0,1,.61.08,2.25,2.25,0,0,1,.58.22,2.35,2.35,0,0,1,.47.36,2,2,0,0,1,.34.49h0l.19-1h.81l-1,5.73a8.71,8.71,0,0,1-.26,1,3,3,0,0,1-.54,1,2.75,2.75,0,0,1-1,.74,3.51,3.51,0,0,1-1.57.3,3.65,3.65,0,0,1-1.54-.31,2.89,2.89,0,0,1-1.11-.85Zm.9-3.73a2.13,2.13,0,0,0,.13.71,1.66,1.66,0,0,0,.36.58,1.62,1.62,0,0,0,.58.4,2.14,2.14,0,0,0,.79.14,2.33,2.33,0,0,0,1.81-.8,2.61,2.61,0,0,0,.52-.86,2.77,2.77,0,0,0,.19-1,2.2,2.2,0,0,0-.13-.73,1.73,1.73,0,0,0-1-1,1.94,1.94,0,0,0-.78-.15,2.61,2.61,0,0,0-1,.2,2.34,2.34,0,0,0-.79.55,2.46,2.46,0,0,0-.51.86A3.31,3.31,0,0,0,198,74.1Z" fill="#fff"/><path d="M208.9,73.08a1.76,1.76,0,0,0,0-.33,1.8,1.8,0,0,0,0-.22,1,1,0,0,0-.36-.89,1.7,1.7,0,0,0-1-.26,2.46,2.46,0,0,0-1,.21,2.91,2.91,0,0,0-.81.49l-.37-.56a3.19,3.19,0,0,1,1-.6,3.56,3.56,0,0,1,1.22-.23,3.35,3.35,0,0,1,.79.09,2.05,2.05,0,0,1,.65.3,1.5,1.5,0,0,1,.45.52,1.61,1.61,0,0,1,.17.76c0,.07,0,.18,0,.3s0,.24,0,.32l-.42,2.35a5,5,0,0,0-.1.69,4.85,4.85,0,0,0,0,.6h-.74a3.54,3.54,0,0,1,0-.45c0-.17,0-.33.05-.49h0a3.81,3.81,0,0,1-.5.49,2,2,0,0,1-.51.33,2.7,2.7,0,0,1-.57.18,3.41,3.41,0,0,1-.66,0,2.46,2.46,0,0,1-.6-.07,1.63,1.63,0,0,1-.57-.25,1.59,1.59,0,0,1-.42-.47,1.37,1.37,0,0,1-.16-.7,1.61,1.61,0,0,1,.39-1.12,2.64,2.64,0,0,1,1-.65,5.56,5.56,0,0,1,1.43-.31A14.11,14.11,0,0,1,208.9,73.08Zm-.3.63c-.37,0-.75,0-1.14.05a5.38,5.38,0,0,0-1.06.21,2.27,2.27,0,0,0-.78.44.94.94,0,0,0-.3.73.88.88,0,0,0,.1.45.75.75,0,0,0,.27.29,1,1,0,0,0,.38.14,2.15,2.15,0,0,0,1.25-.1,2.23,2.23,0,0,0,.66-.41,2.31,2.31,0,0,0,.47-.6,2.58,2.58,0,0,0,.26-.72l.08-.48Z" fill="#fff"/><path d="M212.83,70.84c0,.16,0,.33-.06.52s-.05.35-.07.47h0a2.44,2.44,0,0,1,.86-.83,2.19,2.19,0,0,1,1.13-.31,2.09,2.09,0,0,1,1.46.48,1.63,1.63,0,0,1,.53,1.29,1.51,1.51,0,0,1,0,.3c0,.09,0,.2,0,.32L216,76.62h-.83l.57-3.2a3.75,3.75,0,0,0,.07-.73,1.45,1.45,0,0,0-.28-1,1.22,1.22,0,0,0-1-.36,1.75,1.75,0,0,0-.67.14,1.89,1.89,0,0,0-.62.42,2.77,2.77,0,0,0-.52.71,3.43,3.43,0,0,0-.32,1l-.52,3h-.82l.79-4.51c0-.15.06-.35.1-.6s.06-.47.08-.67Z" fill="#fff"/><path d="M223.05,75.4h0l3.64-7.52h1.07l.73,7.52h0l3.6-7.52h.93l-4.26,8.74h-1l-.7-7.53h0l-3.69,7.53h-1l-.9-8.74h.94Z" fill="#fff"/><path d="M236.16,70.69a2.09,2.09,0,0,1,1.46.48,1.63,1.63,0,0,1,.53,1.29,1.51,1.51,0,0,1,0,.3c0,.09,0,.2,0,.32l-.64,3.54h-.83l.57-3.2a3.75,3.75,0,0,0,.07-.73,1.4,1.4,0,0,0-.29-1,1.24,1.24,0,0,0-1-.36,1.74,1.74,0,0,0-.66.14,1.8,1.8,0,0,0-.62.42,2.72,2.72,0,0,0-.5.71,3.43,3.43,0,0,0-.32,1l-.52,3h-.82l1.64-9.34H235l-.79,4.51h0a2.47,2.47,0,0,1,.84-.8A2.2,2.2,0,0,1,236.16,70.69Z" fill="#fff"/><path d="M240.32,76.62h-.83l1-5.78h.83Zm1.51-8a.57.57,0,0,1-.16.42.54.54,0,0,1-.42.18.59.59,0,0,1-.4-.15.53.53,0,0,1-.16-.41.6.6,0,0,1,.17-.43.57.57,0,0,1,.42-.17.53.53,0,0,1,.55.56Z" fill="#fff"/><path d="M245.7,71.53h-1.57l-.6,3.4a2,2,0,0,0,0,.39.63.63,0,0,0,.2.55.89.89,0,0,0,.52.14,1.42,1.42,0,0,0,.38-.06.73.73,0,0,0,.32-.14l-.1.71a1,1,0,0,1-.41.13,3.1,3.1,0,0,1-.54,0,2,2,0,0,1-.42,0,1.12,1.12,0,0,1-.4-.18,1.14,1.14,0,0,1-.3-.35,1.21,1.21,0,0,1-.11-.57,3,3,0,0,1,0-.4l.65-3.62h-1.2l.13-.69h1.18l.28-1.63h.83l-.29,1.63h1.6Z" fill="#fff"/><path d="M246.88,74a.77.77,0,0,0,0,.15.57.57,0,0,0,0,.13A2,2,0,0,0,247,75a1.87,1.87,0,0,0,.4.59,1.93,1.93,0,0,0,.59.38,2,2,0,0,0,.74.14,2.25,2.25,0,0,0,1.18-.3,2.86,2.86,0,0,0,.82-.71l.52.49a3.32,3.32,0,0,1-1.18.91,3.38,3.38,0,0,1-1.42.3,3.13,3.13,0,0,1-1-.17,2.44,2.44,0,0,1-.84-.5,2.24,2.24,0,0,1-.55-.79,2.67,2.67,0,0,1-.21-1.08,3.64,3.64,0,0,1,.26-1.35,3.51,3.51,0,0,1,.71-1.12A3.55,3.55,0,0,1,248,71a3.1,3.1,0,0,1,1.32-.29,2.4,2.4,0,0,1,1.8.63,2.24,2.24,0,0,1,.61,1.63q0,.15,0,.45a2.79,2.79,0,0,1-.08.55Zm4-.61c0-.07,0-.14,0-.22V72.9a1.48,1.48,0,0,0-.41-1.09,1.59,1.59,0,0,0-1.19-.43,2.34,2.34,0,0,0-.85.16,2.06,2.06,0,0,0-.69.43,2.6,2.6,0,0,0-.52.62,2.44,2.44,0,0,0-.29.75Z" fill="#fff"/><path d="M260.05,76.08a5.53,5.53,0,0,0,1.39-.16,3.93,3.93,0,0,0,1.09-.43L263,72.8h-2.06l.13-.75H264L263.31,76a5.83,5.83,0,0,1-1.61.66,7.26,7.26,0,0,1-1.7.2,4.3,4.3,0,0,1-1.6-.28,3.54,3.54,0,0,1-1.24-.76,3.4,3.4,0,0,1-.81-1.19,4,4,0,0,1-.28-1.53,5.57,5.57,0,0,1,.41-2.13,5.28,5.28,0,0,1,1.12-1.72,5.12,5.12,0,0,1,1.66-1.16,4.82,4.82,0,0,1,2-.43,4.73,4.73,0,0,1,.93.1,4,4,0,0,1,.83.28,3,3,0,0,1,.69.44,2.26,2.26,0,0,1,.49.58l-.81.53a1.51,1.51,0,0,0-.29-.42,1.94,1.94,0,0,0-.46-.38,2.31,2.31,0,0,0-.62-.26,2.8,2.8,0,0,0-.79-.1,3.81,3.81,0,0,0-1.72.39,4.54,4.54,0,0,0-1.35,1,5,5,0,0,0-.88,1.47A4.74,4.74,0,0,0,257,73a3.45,3.45,0,0,0,.2,1.21,2.64,2.64,0,0,0,.58,1,2.79,2.79,0,0,0,.95.66A3.33,3.33,0,0,0,260.05,76.08Z" fill="#fff"/><path d="M266.05,71.51c0-.25.06-.47.08-.67h.79c0,.16,0,.33-.06.52s-.05.35-.08.47h0a2.54,2.54,0,0,1,.81-.82,2,2,0,0,1,1.12-.32H269l.26,0-.2.8a.72.72,0,0,0-.23,0,1.87,1.87,0,0,0-.34,0,1.82,1.82,0,0,0-.65.12,1.89,1.89,0,0,0-.59.39,2.72,2.72,0,0,0-.47.68,3.69,3.69,0,0,0-.3,1l-.52,3h-.83l.79-4.51C266,72,266,71.76,266.05,71.51Z" fill="#fff"/><path d="M271.79,76.77a3.14,3.14,0,0,1-1.08-.18,2.54,2.54,0,0,1-.84-.52,2.12,2.12,0,0,1-.55-.79,2.44,2.44,0,0,1-.2-1,3.79,3.79,0,0,1,.25-1.38,3.55,3.55,0,0,1,.71-1.13,3.37,3.37,0,0,1,1.09-.77,3.31,3.31,0,0,1,1.38-.29,3.06,3.06,0,0,1,1.08.18,2.37,2.37,0,0,1,.84.51,2.4,2.4,0,0,1,.55.79,2.44,2.44,0,0,1,.2,1,3.77,3.77,0,0,1-.25,1.39,3.49,3.49,0,0,1-.71,1.14,3.53,3.53,0,0,1-1.09.77A3.31,3.31,0,0,1,271.79,76.77Zm2.57-3.53a1.93,1.93,0,0,0-.13-.73,1.61,1.61,0,0,0-1-1,1.86,1.86,0,0,0-.77-.15,2.26,2.26,0,0,0-1,.23,2.65,2.65,0,0,0-.79.62,3.12,3.12,0,0,0-.71,2,2.21,2.21,0,0,0,.12.74,1.62,1.62,0,0,0,.36.59,2,2,0,0,0,.58.39,2.11,2.11,0,0,0,.77.14,2.31,2.31,0,0,0,1-.23,2.5,2.5,0,0,0,.79-.61,2.69,2.69,0,0,0,.52-.9A3.07,3.07,0,0,0,274.36,73.24Z" fill="#fff"/><path d="M280.4,76.62c0-.15,0-.33.06-.52s.05-.34.07-.47h0a2.38,2.38,0,0,1-.86.84,2.21,2.21,0,0,1-1.12.3,2.09,2.09,0,0,1-1.46-.47,1.63,1.63,0,0,1-.53-1.28c0-.1,0-.2,0-.3s0-.21.05-.32l.63-3.55h.84l-.57,3.2a4.06,4.06,0,0,0-.08.73,1.44,1.44,0,0,0,.29,1,1.21,1.21,0,0,0,1,.35,1.75,1.75,0,0,0,.67-.14,1.86,1.86,0,0,0,.62-.41,2.94,2.94,0,0,0,.51-.7,3.24,3.24,0,0,0,.32-1l.52-3h.83l-.79,4.51c0,.16-.07.36-.11.61s-.06.46-.08.65Z" fill="#fff"/><path d="M285.06,71.78a1.75,1.75,0,0,1,.36-.42,2.34,2.34,0,0,1,.5-.35,2.67,2.67,0,0,1,.6-.23,2.39,2.39,0,0,1,.66-.09,3,3,0,0,1,1.07.18,2.37,2.37,0,0,1,.82.51,2.52,2.52,0,0,1,.54.79,2.8,2.8,0,0,1,.18,1,3.77,3.77,0,0,1-.26,1.39,3.49,3.49,0,0,1-.71,1.14,3.44,3.44,0,0,1-1.07.77,3.25,3.25,0,0,1-1.36.28,2.53,2.53,0,0,1-1.18-.28,1.92,1.92,0,0,1-.83-.84h0l-.7,3.94h-.83l1.56-8.75h.83l-.18.94Zm3.87,1.46a2.18,2.18,0,0,0-.12-.72,1.79,1.79,0,0,0-.35-.6,1.61,1.61,0,0,0-.57-.39,1.9,1.9,0,0,0-.78-.15,2.3,2.3,0,0,0-1,.23,2.48,2.48,0,0,0-.82.61,2.85,2.85,0,0,0-.54.91,3,3,0,0,0-.2,1.08,2,2,0,0,0,.13.75,1.73,1.73,0,0,0,1,1,2.11,2.11,0,0,0,.77.14,2.31,2.31,0,0,0,1.83-.83,2.69,2.69,0,0,0,.52-.9A3.31,3.31,0,0,0,288.93,73.24Z" fill="#fff"/><circle cx="45.66" cy="45.66" r="44.59" fill="none" stroke="#fff" stroke-miterlimit="10" stroke-width="2.14"/><path d="M72.53,33.68a8.26,8.26,0,0,1,6.06,2.55,14.46,14.46,0,0,1,2.93,5.05c.07.22.14.33.36.29l.88-.15c.15,0,.15-.21.15-.51l-.37-7.31c0-.29-.07-.51-.44-.51-.22,0-.33.11-.51.37l-.44.58c-.22.29-.44.4-.87.07a13.54,13.54,0,0,0-7.46-2c-6.75,0-11.59,1.45-14.72,11.19l-3,7.83L50.55,40.93s-1.91-4.56-2.74-4.56S45,40.62,45,40.62,40.09,51.18,39.8,52l-.08,0L34,35a.88.88,0,0,1,.88-1.28h.69c.26,0,.33-.11.33-.29v-.92c0-.18-.07-.25-.29-.25l-3.58.09c-.17,0-.44.53-.71,1.23-1.11,2.5-6.44,14.12-6.74,15h-.15l-6.61-15.4c-.15-.44-.4-.8-.92-.8s-.8.58-1,.95c-.73,1.83-8.18,22.29-8.55,23.1a1.79,1.79,0,0,1-1.61,1.2H2.9c-.22,0-.26.11-.26.3v1c0,.11.08.19.22.19.3,0,3.56-.11,5.61-.11,2.26,0,3.5.11,3.87.11s.29-.11.29-.3V58c0-.19,0-.3-.25-.3h-1c-.88,0-1.24-.51-1.24-1,0-2,4.16-14.07,5.26-17.29h.15l5.26,13.06s1.2,2.86,1.95,2.86c1.15,0,2.87-4,2.87-4s4.94-11,5.23-11.78l.07,0,5.69,16.89a.87.87,0,0,1-.88,1.27h-.69c-.26,0-.33.11-.33.3v.91c0,.18.07.26.29.26s1.23,0,3-.07a1,1,0,0,0,.69-.31,1.11,1.11,0,0,0,.37-.49c.15-.4,6.62-14,6.95-15.05h.14L52.81,58.2c.15.44.4.81.91.81,2,0,2.61-.78,3.39-3,.41-1.15,2.79-7.86,5-13.56C64.63,35.66,68.57,33.68,72.53,33.68ZM90,47.25c-.37,0-7.29.11-10.35.11s-4.76-.11-5.2-.11c-.14,0-.21.07-.21.29v.84c0,.18.07.33.29.33H76.1c1,0,1.32.37,1.32,1.68v2.67c0,1.9-.07,2.92-.88,3.36-1.24.66-2.63.61-5,.61-3.63,0-6.24-2.28-9.24-4.7-.46-.37-.71-.19-.83,0s-.59,1.39-.72,1.7A.87.87,0,0,0,61,55.09c2.52,2.8,6.82,4,10.29,4a21.1,21.1,0,0,0,10.38-2.41c.36-.14.58-.29.58-.58s-.14-.66-.14-1.17V50.06c0-1.06.44-1.35,1.09-1.35h6.92c.22,0,.29-.07.29-.29V47.5C90.4,47.32,90.33,47.25,90,47.25Z" fill="#fff"/></svg>