<svg xmlns="http://www.w3.org/2000/svg" viewBox="0 0 763.26 400.46" version="1.1" xml:space="preserve" xmlns:xlink="http://www.w3.org/1999/xlink">
	<defs>
		<style>
			.fill-black path {fill:#333;}
			line,polyline {stroke:#333; fill:none;}
			text, foreignObject {
				font-family:'Roboto-Regular','Helvetica Neue', Arial, sans-serif;
				font-size: 7.75px;
				text-align: center;
			}
			foreignObject p {margin:0;}
			a:hover {cursor: pointer;}
		</style>
	</defs>
	
	<g id="Text_Lines" data-name="Text &amp;amp; Lines">
		<polyline points="125.47 98.61 125.47 68.25 408.45 67.3"/>
		<polyline points="697.68 85.76 697.68 67.3 408.95 67.3"/>
		<line x1="408.31" y1="240.91" x2="408.31" y2="259.21"/>
		<line x1="408.31" y1="98.61" x2="408.31" y2="55.56"/>
		<text id="Oklahoma_Domiciled_Insurer_Owned_100_by_AmFirst_Holdings_Inc." data-name="Oklahoma Domiciled Insurer Owned 100% byAmFirst Holdings, Inc." transform="translate(358.89 206.05)"><tspan x="0" y="0">Oklahoma Domiciled Insurer</tspan><tspan x="20.71" y="8.92">Owned 100% by</tspan><tspan x="10.75" y="17.85">AmFirst Holdings, Inc.</tspan></text>
		<text transform="translate(488.6 149.89)"><tspan x="0" y="0">Infolockbox.com, Inc.</tspan><tspan x="8.92" y="8.92">Owned 100% by</tspan><tspan x="-1.04" y="17.85">AmFirst Holdings, Inc.</tspan></text>
		<text transform="translate(72.22 157.26)"><tspan x="0" y="0">Puerto Rico Domiciled Company</tspan><tspan x="27.82" y="8.92">Owned 100% by</tspan><tspan x="17.86" y="17.85">AmFirst Holdings, Inc.</tspan></text>
		<text transform="translate(649.41 189.89)"><tspan x="0" y="0">Bahamas Domiciled Insurer</tspan><tspan x="-18.45" y="8.92">Owned 75% by AmFirst Holdings, Inc.</tspan></text>
		<text transform="translate(269.6 38.28)"><tspan x="0" y="0">Owned 55% by Wheaton Holdings, LLC and 45% by the Estate of John Morgan</tspan></text>
		<line x1="278.33" y1="165.74" x2="278.33" y2="67.6"/>
		<line x1="602.43" y1="205.45" x2="602.43" y2="67.6"/>
		<line x1="523.28" y1="106.67" x2="523.28" y2="67.6"/>
		<text transform="translate(570.28 303.02)"><tspan x="0" y="0">PS112 Capital, Inc.</tspan><tspan x="3.64" y="8.92">Owned 100% by</tspan><tspan x="-6.31" y="17.85">AmFirst Holdings, Inc.</tspan></text>
		<text transform="translate(357.32 351.47)"><tspan x="0" y="0">Mississippi Domiciled Insurer</tspan><tspan x="22.41" y="8.92">Owned 100% by</tspan><tspan x="1.66" y="17.85">AmFirst Insurance Company</tspan></text>
		<text transform="translate(237.8 257.76)"><tspan x="0" y="0">Nevis Domiciled Insurer</tspan><tspan x="12.92" y="8.92">Owned 100% by</tspan><tspan x="2.97" y="17.85">AmFirst Holdings, Inc.</tspan></text>
		<polyline points="189.98 275.93 189.98 252.79 64.79 252.79 64.79 263.53"/>
		<line x1="124.82" y1="252.29" x2="124.82" y2="182.25"/>
		<text id="Puerto_Rico_Domiciled_Insurer_Owned_100_by_AMF_Holdings_Inc." data-name="Puerto Rico Domiciled Insurer Owned 100% by AMF Holdings, Inc." transform="translate(10.4 351.47)"><tspan x="0" y="0">Puerto Rico Domiciled Insurer</tspan><tspan x="-10.51" y="8.92">Owned 100% by AMF Holdings, Inc.</tspan></text>
		<text transform="translate(132.61 342.55)"><tspan x="0" y="0">Puerto Rico Domiciled Company</tspan><tspan x="27.82" y="8.92">Owned 100% by</tspan><tspan x="23.48" y="17.85">AMF Holdings, Inc.</tspan></text>
	</g>
	<g id="Placeholders">
		<image id="amf-holdings" x="80.72" y="102.23" width="96.82" height="46.15" xlink:href="https://cdn.cremadesignstudio.com/mwg/partners/holdings/amf-holdings-black.svgz"/>
		<image id="amfirst" x="366.86" y="106" width="86" height="86.98" xlink:href="https://cdn.cremadesignstudio.com/mwg/partners/amfirst/color.svgz"/>
		<image id="new-providence-life" x="653.76" y="92.68" width="86.75" height="86.14" xlink:href="https://cdn.cremadesignstudio.com/mwg/partners/npl/color.svgz"/>
		<image id="info-lockbox" x="479.53" y="112.57" width="91" height="27.97" xlink:href="https://cdn.cremadesignstudio.com/mwg/partners/lockbox/info-black.svgz"/>
		<image id="amf-services" x="153.94" y="285.13" width="72.31" height="43.6" xlink:href="https://cdn.cremadesignstudio.com/mwg/partners/holdings/amf-services-black.svgz"/>
		<image id="amfirst-life" x="20.92" y="269.05" width="78.68" height="66.74" xlink:href="https://cdn.cremadesignstudio.com/mwg/partners/amfirst-life/center-color.svgz"/>
		<image id="london-america" x="232.06" y="173.11" width="94.48" height="69.63" xlink:href="https://cdn.cremadesignstudio.com/mwg/partners/london-america/color.svgz"/>
		<image id="amfirst-specialty" x="368.07" y="269.05" width="80.45" height="64.87" xlink:href="https://cdn.cremadesignstudio.com/mwg/partners/amfirst-specialty/color.svgz"/>
		<image id="ps112-capital" x="563.4" y="212.7" width="78.18" height="74.2" xlink:href="https://cdn.cremadesignstudio.com/mwg/partners/ps112-capital/square-color.svg"/>
		<image id="amfirst-holdings" x="294.39" width="227.82" height="28.99" xlink:href="https://cdn.cremadesignstudio.com/mwg/partners/amfirst-holdings/black.svgz"/>
	</g>
</svg>