<svg xmlns="http://www.w3.org/2000/svg" viewBox="0 0 367.83 91.32"><title>white</title><path d="M113.54,35h3.82l9.14,21.87h-5.22l-1.81-4.63h-8.16l-1.75,4.63h-5.1Zm1.78,6.36-2.55,6.8h5.13Z" fill="#fff"/><path d="M128.6,35h6.94a19.11,19.11,0,0,1,4.79.59,10.72,10.72,0,0,1,4,1.9A9.12,9.12,0,0,1,147,40.89a11.74,11.74,0,0,1,1,5.1,10.81,10.81,0,0,1-1,4.68,10,10,0,0,1-2.59,3.4,11.45,11.45,0,0,1-3.77,2.08,13.87,13.87,0,0,1-4.48.71H128.6Zm4.63,17.42h2.4a12.25,12.25,0,0,0,3-.34A6.21,6.21,0,0,0,141,51a5.4,5.4,0,0,0,1.58-2.07,7.56,7.56,0,0,0,.58-3.14,6.23,6.23,0,0,0-.58-2.79A5.51,5.51,0,0,0,141,41a6.72,6.72,0,0,0-2.3-1.15,9.76,9.76,0,0,0-2.77-.39h-2.73Z" fill="#fff"/><path d="M151.11,35h7l4.83,14.27H163L167.87,35h7V56.86h-4.62V40.09h-.06l-5.52,16.77H161.1l-5.3-16.77h-.06V56.86h-4.63Z" fill="#fff"/><path d="M179,35h4.63V56.86H179Z" fill="#fff"/><path d="M187.88,35h6.29l8.93,15.2h.05V35h4.63V56.86h-6.05l-9.16-15.57h-.06V56.86h-4.63Z" fill="#fff"/><path d="M212,35h4.63V56.86H212Z" fill="#fff"/><path d="M231.21,40.34a3.33,3.33,0,0,0-1.53-1.1,5.2,5.2,0,0,0-1.82-.36,4.7,4.7,0,0,0-1,.13,4,4,0,0,0-1,.38,2.26,2.26,0,0,0-.77.7,1.8,1.8,0,0,0-.3,1,1.77,1.77,0,0,0,.71,1.51,6.87,6.87,0,0,0,1.8.9c.72.25,1.5.49,2.33.74a9.54,9.54,0,0,1,2.32,1.05,5.59,5.59,0,0,1,1.8,1.82,5.8,5.8,0,0,1,.71,3.06,7.31,7.31,0,0,1-.65,3.18A6.39,6.39,0,0,1,232,55.66,7.35,7.35,0,0,1,229.41,57a11.22,11.22,0,0,1-3.1.43,10.85,10.85,0,0,1-3.79-.65,9.36,9.36,0,0,1-3.26-2.1l3.29-3.77a4.81,4.81,0,0,0,1.79,1.53,4.85,4.85,0,0,0,3.38.4,3.44,3.44,0,0,0,1-.42,2.19,2.19,0,0,0,.74-.71,1.77,1.77,0,0,0,.28-1,1.91,1.91,0,0,0-.72-1.56,6.69,6.69,0,0,0-1.83-1c-.73-.27-1.52-.53-2.37-.8a10.63,10.63,0,0,1-2.37-1.08,5.79,5.79,0,0,1-1.82-1.8,5.21,5.21,0,0,1-.73-2.93,6.76,6.76,0,0,1,.67-3.09,6.46,6.46,0,0,1,1.78-2.22A7.56,7.56,0,0,1,225,34.88a10.42,10.42,0,0,1,3-.44,11.38,11.38,0,0,1,3.44.52,7.94,7.94,0,0,1,3,1.76Z" fill="#fff"/><path d="M241.91,39.25h-6V35h16.61v4.26h-6V56.86h-4.63Z" fill="#fff"/><path d="M254.87,35H263a13.55,13.55,0,0,1,3,.33,6.83,6.83,0,0,1,2.52,1.08,5.31,5.31,0,0,1,1.72,2,7.19,7.19,0,0,1,.64,3.19,6.61,6.61,0,0,1-1.16,3.94,5.19,5.19,0,0,1-3.38,2.06l5.34,9.23h-5.55l-4.39-8.74H259.5v8.74h-4.63Zm4.63,9h2.73c.41,0,.85,0,1.32,0a4.15,4.15,0,0,0,1.26-.28,2.28,2.28,0,0,0,.93-.73,2.25,2.25,0,0,0,.37-1.39,2.47,2.47,0,0,0-.32-1.33,2.2,2.2,0,0,0-.83-.75,3.5,3.5,0,0,0-1.16-.36,9.4,9.4,0,0,0-1.28-.09h-3Z" fill="#fff"/><path d="M281,35h3.82L294,56.86h-5.22l-1.81-4.63h-8.16L277,56.86h-5.1Zm1.78,6.36-2.55,6.8h5.13Z" fill="#fff"/><path d="M297.4,39.25h-6V35H308v4.26h-6V56.86H297.4Z" fill="#fff"/><path d="M309.23,45.93a12.69,12.69,0,0,1,.85-4.76,10.4,10.4,0,0,1,2.35-3.63,10.29,10.29,0,0,1,3.59-2.3,13.28,13.28,0,0,1,9.08,0,10.16,10.16,0,0,1,3.58,2.3A10.42,10.42,0,0,1,331,41.17a13.73,13.73,0,0,1,0,9.51,10.27,10.27,0,0,1-5.94,5.94,13.28,13.28,0,0,1-9.08,0,10.46,10.46,0,0,1-3.59-2.31,10.22,10.22,0,0,1-2.35-3.63A12.64,12.64,0,0,1,309.23,45.93Zm4.8,0a8.42,8.42,0,0,0,.46,2.82A6.63,6.63,0,0,0,315.81,51a6.21,6.21,0,0,0,2.06,1.47,6.69,6.69,0,0,0,2.69.52,6.61,6.61,0,0,0,2.68-.52A6.11,6.11,0,0,0,325.3,51a6.32,6.32,0,0,0,1.32-2.23,8.84,8.84,0,0,0,0-5.63,6.27,6.27,0,0,0-1.32-2.24,6,6,0,0,0-2.06-1.47,6.61,6.61,0,0,0-2.68-.53,6.69,6.69,0,0,0-2.69.53,6.07,6.07,0,0,0-2.06,1.47,6.58,6.58,0,0,0-1.32,2.24A8.49,8.49,0,0,0,314,45.93Z" fill="#fff"/><path d="M335,35h8.13a13.62,13.62,0,0,1,3,.33,6.9,6.9,0,0,1,2.52,1.08,5.31,5.31,0,0,1,1.72,2,7.19,7.19,0,0,1,.63,3.19,6.6,6.6,0,0,1-1.15,3.94,5.19,5.19,0,0,1-3.38,2.06l5.33,9.23h-5.54l-4.39-8.74h-2.28v8.74H335Zm4.63,9h2.73c.41,0,.85,0,1.31,0a4,4,0,0,0,1.26-.28,2.06,2.06,0,0,0,1.31-2.12,2.38,2.38,0,0,0-.33-1.33,2.06,2.06,0,0,0-.83-.75,3.37,3.37,0,0,0-1.15-.36,9.4,9.4,0,0,0-1.28-.09h-3Z" fill="#fff"/><path d="M364.63,40.34a3.33,3.33,0,0,0-1.53-1.1,5.2,5.2,0,0,0-1.82-.36,4.7,4.7,0,0,0-1,.13,4,4,0,0,0-1,.38,2.26,2.26,0,0,0-.77.7,1.8,1.8,0,0,0-.3,1,1.77,1.77,0,0,0,.71,1.51,6.87,6.87,0,0,0,1.8.9c.72.25,1.5.49,2.33.74a9.54,9.54,0,0,1,2.32,1.05,5.69,5.69,0,0,1,1.8,1.82,5.8,5.8,0,0,1,.71,3.06,7.31,7.31,0,0,1-.65,3.18,6.51,6.51,0,0,1-1.77,2.26A7.35,7.35,0,0,1,362.83,57a11.22,11.22,0,0,1-3.1.43,10.85,10.85,0,0,1-3.79-.65,9.27,9.27,0,0,1-3.26-2.1L356,50.9a4.81,4.81,0,0,0,1.79,1.53,4.85,4.85,0,0,0,3.38.4,3.44,3.44,0,0,0,1-.42,2.19,2.19,0,0,0,.74-.71,1.77,1.77,0,0,0,.28-1,1.91,1.91,0,0,0-.72-1.56,6.84,6.84,0,0,0-1.83-1c-.73-.27-1.52-.53-2.37-.8a10.63,10.63,0,0,1-2.37-1.08,5.93,5.93,0,0,1-1.83-1.8,5.3,5.3,0,0,1-.72-2.93,6.76,6.76,0,0,1,.67-3.09,6.55,6.55,0,0,1,1.77-2.22,7.7,7.7,0,0,1,2.57-1.35,10.42,10.42,0,0,1,3-.44,11.27,11.27,0,0,1,3.43.52,7.9,7.9,0,0,1,3,1.76Z" fill="#fff"/><path d="M105.5,76.69h-1l5.64-8.75H111l1.82,8.75h-.93l-.47-2.3h-4.47Zm1.94-3.11h3.83l-.91-4.65Z" fill="#fff"/><path d="M116.67,74.34a3.77,3.77,0,0,1,.26-1.39,3.35,3.35,0,0,1,1.79-1.9,3.24,3.24,0,0,1,1.35-.29,2.51,2.51,0,0,1,1.18.29,1.85,1.85,0,0,1,.84.84h0l.8-4.54h.83l-1.65,9.34h-.83l.17-1h0a2.37,2.37,0,0,1-.85.77,2.52,2.52,0,0,1-1.28.33,3,3,0,0,1-1.07-.18,2.47,2.47,0,0,1-.82-.51,2.24,2.24,0,0,1-.53-.79A2.77,2.77,0,0,1,116.67,74.34Zm.87,0a2.15,2.15,0,0,0,.12.73,1.68,1.68,0,0,0,.35.59,1.78,1.78,0,0,0,.57.4,2.05,2.05,0,0,0,.78.14,2.44,2.44,0,0,0,1-.22,2.58,2.58,0,0,0,.81-.62,2.76,2.76,0,0,0,.55-.9,3,3,0,0,0,.2-1.09,2.27,2.27,0,0,0-.13-.75,1.93,1.93,0,0,0-.38-.59,1.69,1.69,0,0,0-.59-.39,2.11,2.11,0,0,0-.77-.14,2.33,2.33,0,0,0-1,.23,2.51,2.51,0,0,0-.8.6,2.84,2.84,0,0,0-.51.9A3.31,3.31,0,0,0,117.54,74.29Z" fill="#fff"/><path d="M125.06,76.69h-.82l1-5.78h.83Zm1.52-8a.57.57,0,0,1-.16.42.54.54,0,0,1-.42.18.59.59,0,0,1-.4-.15.53.53,0,0,1-.16-.41.6.6,0,0,1,.17-.43.58.58,0,0,1,.42-.18.55.55,0,0,1,.39.16A.53.53,0,0,1,126.58,68.67Z" fill="#fff"/><path d="M129.24,76.69h-.89l-1.21-5.78H128l.93,4.89h0l2.88-4.89h.91Z" fill="#fff"/><path d="M133.74,76.69h-.83l1-5.78h.82Zm1.52-8a.57.57,0,0,1-.17.42.54.54,0,0,1-.41.18.57.57,0,0,1-.4-.15.53.53,0,0,1-.17-.41.62.62,0,0,1,.59-.61.58.58,0,0,1,.4.16A.53.53,0,0,1,135.26,68.67Z" fill="#fff"/><path d="M139.76,72.18a1.37,1.37,0,0,0-.52-.52,1.57,1.57,0,0,0-.83-.21,2.49,2.49,0,0,0-.46,0,2.18,2.18,0,0,0-.45.16,1,1,0,0,0-.33.29.72.72,0,0,0-.13.44.75.75,0,0,0,.08.39.77.77,0,0,0,.23.25,1.34,1.34,0,0,0,.36.18,3.85,3.85,0,0,0,.48.16,3.37,3.37,0,0,1,1.29.62,1.32,1.32,0,0,1,.45,1.07,1.53,1.53,0,0,1-.21.81,1.89,1.89,0,0,1-.53.56,2.31,2.31,0,0,1-.72.31,3,3,0,0,1-.78.1,3.44,3.44,0,0,1-1.36-.27,2.08,2.08,0,0,1-1-.82l.72-.47a1.78,1.78,0,0,0,.63.62,2,2,0,0,0,1,.25,2.39,2.39,0,0,0,.53-.06,1.41,1.41,0,0,0,.46-.17.9.9,0,0,0,.33-.31.84.84,0,0,0,.12-.45.78.78,0,0,0-.36-.7,4.6,4.6,0,0,0-1.05-.47c-.17,0-.34-.12-.52-.19a2.47,2.47,0,0,1-.47-.29,1.62,1.62,0,0,1-.34-.44,1.41,1.41,0,0,1-.13-.61,1.39,1.39,0,0,1,.21-.77,1.75,1.75,0,0,1,.52-.53,2.53,2.53,0,0,1,.71-.3,3.06,3.06,0,0,1,.79-.1,2.7,2.7,0,0,1,1.19.26,1.71,1.71,0,0,1,.76.69Z" fill="#fff"/><path d="M142,76.69h-.83l1-5.78H143Zm1.52-8a.58.58,0,0,1-.58.6.59.59,0,0,1-.4-.15.53.53,0,0,1-.17-.41.57.57,0,0,1,.18-.43.58.58,0,0,1,.42-.18.55.55,0,0,1,.39.16A.53.53,0,0,1,143.51,68.67Z" fill="#fff"/><path d="M146.73,76.84a3.14,3.14,0,0,1-1.08-.18,2.7,2.7,0,0,1-.85-.52,2.38,2.38,0,0,1-.55-.79,2.61,2.61,0,0,1-.19-1,3.79,3.79,0,0,1,.25-1.38,3.55,3.55,0,0,1,.71-1.13,3.27,3.27,0,0,1,1.09-.77,3.31,3.31,0,0,1,1.38-.29,3.06,3.06,0,0,1,1.08.18,2.37,2.37,0,0,1,.84.51,2.4,2.4,0,0,1,.55.79,2.61,2.61,0,0,1,.2,1,3.77,3.77,0,0,1-.25,1.39,3.49,3.49,0,0,1-.71,1.14,3.53,3.53,0,0,1-1.09.77A3.31,3.31,0,0,1,146.73,76.84Zm2.57-3.53a2.26,2.26,0,0,0-.13-.74,1.58,1.58,0,0,0-.36-.58,1.6,1.6,0,0,0-.59-.39,1.92,1.92,0,0,0-.77-.15,2.23,2.23,0,0,0-1,.23,2.65,2.65,0,0,0-.79.62,2.81,2.81,0,0,0-.52.91,3,3,0,0,0-.19,1.08,2.25,2.25,0,0,0,.12.74,1.62,1.62,0,0,0,.36.59A2,2,0,0,0,146,76a2.07,2.07,0,0,0,.77.14,2.31,2.31,0,0,0,1-.23,2.5,2.5,0,0,0,.79-.61,2.87,2.87,0,0,0,.52-.9A3.3,3.3,0,0,0,149.3,73.31Z" fill="#fff"/><path d="M153.06,70.91c0,.16,0,.33-.06.52s-.05.34-.07.47h0a2.56,2.56,0,0,1,.86-.84,2.28,2.28,0,0,1,1.13-.3,2.13,2.13,0,0,1,1.47.48,1.63,1.63,0,0,1,.52,1.29,1.51,1.51,0,0,1,0,.3c0,.09,0,.2,0,.32l-.64,3.54h-.83l.57-3.2a3.75,3.75,0,0,0,.07-.73,1.45,1.45,0,0,0-.28-1,1.22,1.22,0,0,0-1-.36,1.79,1.79,0,0,0-.67.14,1.89,1.89,0,0,0-.62.42,2.77,2.77,0,0,0-.52.71,3.75,3.75,0,0,0-.32,1l-.52,3h-.82l.79-4.51c0-.15.06-.36.1-.6s.06-.47.08-.67Z" fill="#fff"/><path d="M163.83,76.84a3.14,3.14,0,0,1-1.08-.18,2.54,2.54,0,0,1-.84-.52,2.12,2.12,0,0,1-.55-.79,2.44,2.44,0,0,1-.2-1,3.79,3.79,0,0,1,.25-1.38,3.55,3.55,0,0,1,.71-1.13,3.37,3.37,0,0,1,1.09-.77,3.31,3.31,0,0,1,1.38-.29,3.06,3.06,0,0,1,1.08.18,2.37,2.37,0,0,1,.84.51,2.4,2.4,0,0,1,.55.79,2.44,2.44,0,0,1,.2,1,3.77,3.77,0,0,1-.25,1.39,3.49,3.49,0,0,1-.71,1.14,3.53,3.53,0,0,1-1.09.77A3.31,3.31,0,0,1,163.83,76.84Zm2.57-3.53a2,2,0,0,0-.13-.74,1.64,1.64,0,0,0-.94-1,1.94,1.94,0,0,0-.78-.15,2.23,2.23,0,0,0-1,.23,2.65,2.65,0,0,0-.79.62,3.12,3.12,0,0,0-.71,2,2.25,2.25,0,0,0,.12.74,1.62,1.62,0,0,0,.36.59,2,2,0,0,0,.58.39,2.11,2.11,0,0,0,.77.14,2.31,2.31,0,0,0,1-.23,2.5,2.5,0,0,0,.79-.61,2.69,2.69,0,0,0,.52-.9A3.07,3.07,0,0,0,166.4,73.31Z" fill="#fff"/><path d="M171.72,71.6h-1.36l-.89,5.09h-.82l.89-5.09h-1.23l.14-.69h1.2l.27-1.57a4.31,4.31,0,0,1,.23-.82,2.25,2.25,0,0,1,.43-.68,2,2,0,0,1,.64-.46,1.91,1.91,0,0,1,.86-.18l.33,0a2.17,2.17,0,0,1,.35.07l-.2.73a2,2,0,0,0-.58-.08,1,1,0,0,0-.51.12,1,1,0,0,0-.36.31,2.14,2.14,0,0,0-.23.48,3.28,3.28,0,0,0-.15.58l-.26,1.48h1.39Z" fill="#fff"/><path d="M179.68,75.18h0l4.24-7.24h1.35l-1.55,8.75h-.87l1.33-7.56h0l-4.5,7.56h-.47l-1.83-7.56h0L176,76.69h-.87l1.55-8.75H178Z" fill="#fff"/><path d="M188.53,76.84a3.14,3.14,0,0,1-1.08-.18,2.7,2.7,0,0,1-.85-.52,2.22,2.22,0,0,1-.54-.79,2.44,2.44,0,0,1-.2-1,3.79,3.79,0,0,1,.25-1.38,3.55,3.55,0,0,1,.71-1.13,3.37,3.37,0,0,1,1.09-.77,3.31,3.31,0,0,1,1.38-.29,3.06,3.06,0,0,1,1.08.18,2.37,2.37,0,0,1,.84.51,2.4,2.4,0,0,1,.55.79,2.44,2.44,0,0,1,.2,1,3.77,3.77,0,0,1-.25,1.39,3.49,3.49,0,0,1-.71,1.14,3.53,3.53,0,0,1-1.09.77A3.31,3.31,0,0,1,188.53,76.84Zm2.57-3.53a2,2,0,0,0-.13-.74,1.58,1.58,0,0,0-.36-.58,1.6,1.6,0,0,0-.59-.39,1.89,1.89,0,0,0-.77-.15,2.23,2.23,0,0,0-1,.23,2.65,2.65,0,0,0-.79.62,3.12,3.12,0,0,0-.71,2,2.25,2.25,0,0,0,.12.74,1.62,1.62,0,0,0,.36.59,2,2,0,0,0,.58.39,2.11,2.11,0,0,0,.77.14,2.31,2.31,0,0,0,1-.23,2.5,2.5,0,0,0,.79-.61,2.69,2.69,0,0,0,.52-.9A3.07,3.07,0,0,0,191.1,73.31Z" fill="#fff"/><path d="M194,71.58a6.34,6.34,0,0,0,.08-.67h.79c0,.16,0,.33-.06.52s0,.34-.07.47h0a2.67,2.67,0,0,1,.82-.82,2,2,0,0,1,1.11-.32H197l.26,0-.19.79-.23,0-.34,0a1.92,1.92,0,0,0-.66.12,1.85,1.85,0,0,0-.58.39,2.48,2.48,0,0,0-.47.68,3.68,3.68,0,0,0-.31,1l-.52,3h-.82l.79-4.51C193.91,72,194,71.82,194,71.58Z" fill="#fff"/><path d="M197.14,77.9a2.28,2.28,0,0,0,.87.74,2.66,2.66,0,0,0,1.23.29,2.8,2.8,0,0,0,1.06-.18,2,2,0,0,0,.74-.49,2.34,2.34,0,0,0,.47-.73,4.18,4.18,0,0,0,.26-.89l.21-1.1h0a2.84,2.84,0,0,1-1,.86,2.69,2.69,0,0,1-1.23.29,2.8,2.8,0,0,1-1.07-.19,2.3,2.3,0,0,1-.81-.54,2.38,2.38,0,0,1-.51-.8,2.7,2.7,0,0,1-.18-1,3.41,3.41,0,0,1,.25-1.32,3.33,3.33,0,0,1,.71-1.08,3.14,3.14,0,0,1,1.06-.73,3.39,3.39,0,0,1,1.35-.27,2.64,2.64,0,0,1,.62.08,1.78,1.78,0,0,1,.57.22,2.15,2.15,0,0,1,.48.36,1.76,1.76,0,0,1,.33.49h0l.18-1h.82l-1,5.73a8.71,8.71,0,0,1-.26,1,3.14,3.14,0,0,1-.54,1,2.84,2.84,0,0,1-1,.74,3.54,3.54,0,0,1-1.57.3,3.9,3.9,0,0,1-1.55-.31,2.89,2.89,0,0,1-1.11-.85Zm.9-3.73a2.12,2.12,0,0,0,.12.71,2,2,0,0,0,.36.58,1.72,1.72,0,0,0,.58.4,2.18,2.18,0,0,0,.79.14,2.28,2.28,0,0,0,1-.22,2.46,2.46,0,0,0,.8-.58,2.79,2.79,0,0,0,.52-.86,3,3,0,0,0,.18-1,2.19,2.19,0,0,0-.12-.73,1.62,1.62,0,0,0-.38-.58,1.72,1.72,0,0,0-.58-.4,1.94,1.94,0,0,0-.78-.15,2.61,2.61,0,0,0-1,.2,2.34,2.34,0,0,0-.79.55,2.46,2.46,0,0,0-.51.86A3.08,3.08,0,0,0,198,74.17Z" fill="#fff"/><path d="M209,73.15c0-.14,0-.25.05-.33a1.7,1.7,0,0,0,0-.22,1.06,1.06,0,0,0-.35-.89,1.73,1.73,0,0,0-1-.26,2.49,2.49,0,0,0-1,.21,2.71,2.71,0,0,0-.8.49l-.37-.56a3.19,3.19,0,0,1,1-.6,3.56,3.56,0,0,1,1.22-.23,3.48,3.48,0,0,1,.79.09,1.85,1.85,0,0,1,.65.3,1.48,1.48,0,0,1,.44.52,1.5,1.5,0,0,1,.17.76c0,.07,0,.17,0,.3a2.13,2.13,0,0,1,0,.32l-.42,2.34c0,.23-.07.46-.1.7s0,.44,0,.6h-.74c0-.14,0-.29,0-.45s0-.33.06-.49h0a3.77,3.77,0,0,1-.49.49,2.21,2.21,0,0,1-.51.33,2.7,2.7,0,0,1-.57.18,3.41,3.41,0,0,1-.66,0,2.6,2.6,0,0,1-.61-.07,1.66,1.66,0,0,1-.56-.25,1.47,1.47,0,0,1-.42-.47,1.37,1.37,0,0,1-.17-.7,1.6,1.6,0,0,1,.4-1.12,2.56,2.56,0,0,1,1-.65,5.47,5.47,0,0,1,1.43-.31A14,14,0,0,1,209,73.15Zm-.31.63c-.37,0-.75,0-1.13,0a5.38,5.38,0,0,0-1.06.21,2.08,2.08,0,0,0-.78.43,1,1,0,0,0-.3.74.88.88,0,0,0,.1.45.64.64,0,0,0,.26.28,1.13,1.13,0,0,0,.39.15,2.1,2.1,0,0,0,.43,0,2.18,2.18,0,0,0,.82-.15,2.06,2.06,0,0,0,.65-.41,2.12,2.12,0,0,0,.47-.6,2.3,2.3,0,0,0,.26-.72l.09-.48Z" fill="#fff"/><path d="M212.88,70.91c0,.16,0,.33-.06.52s0,.34-.07.47h0a2.47,2.47,0,0,1,.86-.84,2.24,2.24,0,0,1,1.12-.3,2.1,2.1,0,0,1,1.47.48,1.64,1.64,0,0,1,.53,1.29c0,.1,0,.2,0,.3s0,.2,0,.32l-.64,3.54h-.83l.57-3.2a4.73,4.73,0,0,0,.07-.73,1.51,1.51,0,0,0-.28-1,1.23,1.23,0,0,0-1-.36,1.74,1.74,0,0,0-.66.14,1.93,1.93,0,0,0-.63.42,3,3,0,0,0-.51.71,3.16,3.16,0,0,0-.32,1l-.52,3h-.83l.79-4.51c0-.15.07-.36.11-.6s.06-.47.08-.67Z" fill="#fff"/><path d="M223.1,75.47h0l3.65-7.53h1.06l.73,7.53h0l3.59-7.53h.94l-4.26,8.75h-1l-.7-7.53h0l-3.69,7.53h-1l-.9-8.75h.94Z" fill="#fff"/><path d="M236.21,70.76a2.11,2.11,0,0,1,1.46.48,1.64,1.64,0,0,1,.53,1.29c0,.1,0,.2,0,.3s0,.2,0,.32l-.64,3.54h-.83l.57-3.2a3.75,3.75,0,0,0,.07-.73,1.46,1.46,0,0,0-.29-1,1.24,1.24,0,0,0-1-.36,1.83,1.83,0,0,0-.67.14,1.76,1.76,0,0,0-.61.42,3,3,0,0,0-.51.71,3.76,3.76,0,0,0-.31,1l-.52,3h-.83l1.65-9.34H235l-.79,4.51h0a2.3,2.3,0,0,1,.84-.8A2.15,2.15,0,0,1,236.21,70.76Z" fill="#fff"/><path d="M240.36,76.69h-.83l1-5.78h.83Zm1.52-8a.54.54,0,0,1-.17.42.52.52,0,0,1-.41.18.57.57,0,0,1-.4-.15.53.53,0,0,1-.17-.41.57.57,0,0,1,.18-.43.57.57,0,0,1,.81,0A.53.53,0,0,1,241.88,68.67Z" fill="#fff"/><path d="M245.75,71.6h-1.57l-.61,3.4a3,3,0,0,0,0,.39c0,.28.06.46.2.55a.88.88,0,0,0,.51.13,1.39,1.39,0,0,0,.39,0,.79.79,0,0,0,.32-.14l-.1.71a1.41,1.41,0,0,1-.41.13,3.1,3.1,0,0,1-.54,0,2.18,2.18,0,0,1-.43,0,1.38,1.38,0,0,1-.39-.18,1.14,1.14,0,0,1-.3-.35,1.2,1.2,0,0,1-.12-.57,2,2,0,0,1,0-.4l.64-3.62h-1.2l.14-.69h1.17l.29-1.63h.83l-.29,1.63h1.6Z" fill="#fff"/><path d="M246.92,74s0,.1,0,.15v.13A2,2,0,0,0,247,75a1.87,1.87,0,0,0,.4.59A1.71,1.71,0,0,0,248,76a2,2,0,0,0,.73.14,2.29,2.29,0,0,0,1.19-.3,3,3,0,0,0,.82-.71l.52.49a3.32,3.32,0,0,1-1.18.91,3.41,3.41,0,0,1-1.42.3,3.19,3.19,0,0,1-1-.17,2.39,2.39,0,0,1-.83-.5,2.27,2.27,0,0,1-.56-.79,2.85,2.85,0,0,1-.2-1.08,3.45,3.45,0,0,1,.26-1.35,3.67,3.67,0,0,1,.71-1.13,3.57,3.57,0,0,1,1.06-.77,3.1,3.1,0,0,1,1.32-.29,2.36,2.36,0,0,1,1.79.63,2.25,2.25,0,0,1,.62,1.63q0,.15,0,.45a2.74,2.74,0,0,1-.09.55Zm4-.61a1.5,1.5,0,0,0,0-.22,1.7,1.7,0,0,0,0-.22,1.52,1.52,0,0,0-.41-1.09,1.6,1.6,0,0,0-1.2-.43,2.32,2.32,0,0,0-.84.16,2.37,2.37,0,0,0-.7.42,2.82,2.82,0,0,0-.51.63,2.46,2.46,0,0,0-.3.75Z" fill="#fff"/><path d="M260.09,76.15a5.61,5.61,0,0,0,1.4-.16,4.06,4.06,0,0,0,1.09-.43l.47-2.69H261l.14-.75h2.93l-.69,3.94a6,6,0,0,1-1.61.66,7.26,7.26,0,0,1-1.7.2,4.51,4.51,0,0,1-1.6-.28,3.59,3.59,0,0,1-1.25-.76,3.52,3.52,0,0,1-.8-1.19,4,4,0,0,1-.28-1.53,5.42,5.42,0,0,1,1.52-3.85,5.35,5.35,0,0,1,1.66-1.16,4.88,4.88,0,0,1,2-.43,4.83,4.83,0,0,1,.94.1,4.26,4.26,0,0,1,.83.28,2.9,2.9,0,0,1,.69.44,2,2,0,0,1,.48.58l-.8.53a1.76,1.76,0,0,0-.29-.42,2.17,2.17,0,0,0-.46-.38,2.25,2.25,0,0,0-.63-.26,2.68,2.68,0,0,0-.78-.1,3.85,3.85,0,0,0-1.73.39,4.37,4.37,0,0,0-1.34,1,4.82,4.82,0,0,0-1.19,3.17,3.7,3.7,0,0,0,.19,1.21,2.67,2.67,0,0,0,.59,1,2.79,2.79,0,0,0,1,.66A3.31,3.31,0,0,0,260.09,76.15Z" fill="#fff"/><path d="M266.09,71.58a6.34,6.34,0,0,0,.08-.67h.8c0,.16,0,.33-.07.52s0,.34-.07.47h0a2.67,2.67,0,0,1,.82-.82,2,2,0,0,1,1.11-.32h.29l.26,0-.2.79-.23,0-.34,0a1.92,1.92,0,0,0-.66.12,1.85,1.85,0,0,0-.58.39,2.48,2.48,0,0,0-.47.68,3.68,3.68,0,0,0-.31,1l-.51,3h-.83l.79-4.51C266,72,266.06,71.82,266.09,71.58Z" fill="#fff"/><path d="M271.83,76.84a3.12,3.12,0,0,1-1.07-.18,2.7,2.7,0,0,1-.85-.52,2.24,2.24,0,0,1-.55-.79,2.61,2.61,0,0,1-.2-1,3.8,3.8,0,0,1,.26-1.38,3.39,3.39,0,0,1,.71-1.13,3.27,3.27,0,0,1,1.09-.77,3.31,3.31,0,0,1,1.38-.29,3.14,3.14,0,0,1,1.08.18,2.37,2.37,0,0,1,.84.51,2.4,2.4,0,0,1,.55.79,2.61,2.61,0,0,1,.2,1,4,4,0,0,1-.25,1.39,3.47,3.47,0,0,1-1.8,1.91A3.32,3.32,0,0,1,271.83,76.84Zm2.57-3.53a2.25,2.25,0,0,0-.12-.74,1.58,1.58,0,0,0-.36-.58,1.6,1.6,0,0,0-.59-.39,1.92,1.92,0,0,0-.77-.15,2.2,2.2,0,0,0-1,.23,2.53,2.53,0,0,0-.79.62,3,3,0,0,0-.53.91,3.23,3.23,0,0,0-.19,1.08,2,2,0,0,0,.13.74,1.62,1.62,0,0,0,.36.59,1.85,1.85,0,0,0,.58.39,2.07,2.07,0,0,0,.77.14,2.31,2.31,0,0,0,1-.23,2.62,2.62,0,0,0,.79-.61,2.87,2.87,0,0,0,.52-.9A3.3,3.3,0,0,0,274.4,73.31Z" fill="#fff"/><path d="M280.45,76.69c0-.15,0-.33.06-.52s.05-.34.07-.47h0a2.47,2.47,0,0,1-.86.84,2.21,2.21,0,0,1-1.12.3,2.12,2.12,0,0,1-1.46-.47,1.63,1.63,0,0,1-.53-1.28c0-.1,0-.2,0-.3s0-.21,0-.32l.64-3.55h.83l-.57,3.2a5.11,5.11,0,0,0-.07.73,1.44,1.44,0,0,0,.28,1,1.25,1.25,0,0,0,1,.35,1.83,1.83,0,0,0,.67-.14,2.15,2.15,0,0,0,.62-.41,2.81,2.81,0,0,0,.51-.71,3.46,3.46,0,0,0,.32-1l.52-3h.83l-.8,4.51c0,.16-.06.36-.1.6s-.06.47-.08.66Z" fill="#fff"/><path d="M285.1,71.85a1.75,1.75,0,0,1,.36-.42,3,3,0,0,1,.5-.35,3.1,3.1,0,0,1,.6-.23,2.52,2.52,0,0,1,.67-.09,3,3,0,0,1,1.07.18,2.37,2.37,0,0,1,.82.51,2.34,2.34,0,0,1,.53.79,2.8,2.8,0,0,1,.19,1,3.77,3.77,0,0,1-.26,1.39,3.67,3.67,0,0,1-.71,1.14,3.37,3.37,0,0,1-1.08.77,3.2,3.2,0,0,1-1.35.28,2.5,2.5,0,0,1-1.18-.28,1.9,1.9,0,0,1-.84-.84h0l-.7,3.94h-.83l1.55-8.75h.83l-.17.94ZM289,73.31a2.13,2.13,0,0,0-.12-.72,1.51,1.51,0,0,0-.35-.6,1.45,1.45,0,0,0-.57-.39,1.86,1.86,0,0,0-.77-.15,2.31,2.31,0,0,0-1,.23,2.55,2.55,0,0,0-.81.61,2.94,2.94,0,0,0-.55.9,3.1,3.1,0,0,0-.2,1.09,2.27,2.27,0,0,0,.13.75,1.81,1.81,0,0,0,.38.59,1.69,1.69,0,0,0,.59.39,2.07,2.07,0,0,0,.77.14,2.47,2.47,0,0,0,1-.22,2.54,2.54,0,0,0,.8-.61,2.84,2.84,0,0,0,.51-.9A3.31,3.31,0,0,0,289,73.31Z" fill="#fff"/><circle cx="45.66" cy="45.66" r="44.59" fill="none" stroke="#fff" stroke-miterlimit="10" stroke-width="2.14"/><path d="M72.53,33.68a8.26,8.26,0,0,1,6.06,2.55,14.46,14.46,0,0,1,2.93,5.05c.07.22.14.33.36.29l.88-.15c.15,0,.15-.21.15-.51l-.37-7.31c0-.29-.07-.51-.44-.51-.22,0-.33.11-.51.37l-.44.58c-.22.29-.44.4-.87.07a13.54,13.54,0,0,0-7.46-2c-6.75,0-11.59,1.45-14.72,11.19l-3,7.83L50.55,40.93s-1.91-4.56-2.74-4.56S45,40.62,45,40.62,40.09,51.18,39.8,52l-.08,0L34,35a.88.88,0,0,1,.88-1.28h.69c.26,0,.33-.11.33-.29v-.92c0-.18-.07-.25-.29-.25l-3.58.09c-.17,0-.44.53-.71,1.23-1.11,2.5-6.44,14.12-6.74,15h-.15l-6.61-15.4c-.15-.44-.4-.8-.92-.8s-.8.58-1,.95c-.73,1.83-8.18,22.29-8.55,23.1a1.79,1.79,0,0,1-1.61,1.2H2.9c-.22,0-.26.11-.26.3v1c0,.11.08.19.22.19.3,0,3.56-.11,5.61-.11,2.26,0,3.5.11,3.87.11s.29-.11.29-.3V58c0-.19,0-.3-.25-.3h-1c-.88,0-1.24-.51-1.24-1,0-2,4.16-14.07,5.26-17.29h.15l5.26,13.06s1.2,2.86,1.95,2.86c1.15,0,2.87-4,2.87-4s4.94-11,5.23-11.78l.07,0,5.69,16.89a.87.87,0,0,1-.88,1.27h-.69c-.26,0-.33.11-.33.3v.91c0,.18.07.26.29.26s1.23,0,3-.07a1,1,0,0,0,.69-.31,1.11,1.11,0,0,0,.37-.49c.15-.4,6.62-14,6.95-15.05h.14L52.81,58.2c.15.44.4.81.91.81,2,0,2.61-.78,3.39-3,.41-1.15,2.79-7.86,5-13.56C64.63,35.66,68.57,33.68,72.53,33.68ZM90,47.25c-.37,0-7.29.11-10.35.11s-4.76-.11-5.2-.11c-.14,0-.21.07-.21.29v.84c0,.18.07.33.29.33H76.1c1,0,1.32.37,1.32,1.68v2.67c0,1.9-.07,2.92-.88,3.36-1.24.66-2.63.61-5,.61-3.63,0-6.24-2.28-9.24-4.7-.46-.37-.71-.19-.83,0s-.59,1.39-.72,1.7A.87.87,0,0,0,61,55.09c2.52,2.8,6.82,4,10.29,4a21.1,21.1,0,0,0,10.38-2.41c.36-.14.58-.29.58-.58s-.14-.66-.14-1.17V50.06c0-1.06.44-1.35,1.09-1.35h6.92c.22,0,.29-.07.29-.29V47.5C90.4,47.32,90.33,47.25,90,47.25Z" fill="#fff"/></svg>