<svg xmlns="http://www.w3.org/2000/svg" viewBox="0 0 144 144.31"><title>amfirst-black</title><polygon points="18.85 101.45 21.39 105.38 21.64 100.71 26.17 99.5 21.8 97.82 22.05 93.15 19.11 96.78 14.74 95.09 17.28 99.02 14.33 102.65 18.85 101.45" fill="#231f20"/><polygon points="11.5 87.96 13.13 83.57 17.8 83.76 14.13 80.86 15.76 76.47 11.87 79.07 8.2 76.16 9.46 80.67 5.56 83.26 10.24 83.45 11.5 87.96" fill="#231f20"/><polygon points="7.11 66.86 10.04 63.2 14.41 64.86 11.84 60.95 14.77 57.29 10.26 58.53 7.69 54.62 7.47 59.29 2.95 60.53 7.33 62.18 7.11 66.86" fill="#231f20"/><polygon points="131.16 41.72 129.92 46.23 133.57 43.31 137.48 45.88 135.83 41.5 139.48 38.58 134.81 38.79 133.16 34.42 131.92 38.93 127.25 39.15 131.16 41.72" fill="#231f20"/><polygon points="9.49 45.88 13.39 43.31 17.05 46.23 15.81 41.72 19.71 39.14 15.04 38.93 13.79 34.42 12.15 38.8 7.47 38.59 11.13 41.51 9.49 45.88" fill="#231f20"/><polygon points="22.21 26.11 24.82 29.99 24.98 25.31 29.48 24.03 25.09 22.43 25.26 17.75 22.37 21.43 17.98 19.83 20.59 23.71 17.71 27.4 22.21 26.11" fill="#231f20"/><polygon points="127.85 96.78 124.9 93.15 125.16 97.83 120.79 99.51 125.31 100.71 125.57 105.39 128.11 101.46 132.63 102.66 129.68 99.03 132.22 95.1 127.85 96.78" fill="#231f20"/><polygon points="138.75 76.17 135.08 79.08 131.19 76.48 132.81 80.87 129.14 83.78 133.82 83.58 135.44 87.97 136.71 83.46 141.38 83.28 137.49 80.68 138.75 76.17" fill="#231f20"/><polygon points="136.7 58.56 132.19 57.31 135.11 60.97 132.53 64.87 136.91 63.23 139.82 66.89 139.62 62.22 144 60.58 139.49 59.33 139.28 54.65 136.7 58.56" fill="#231f20"/><polygon points="121.95 25.3 122.12 29.98 124.73 26.09 129.23 27.37 126.34 23.69 128.95 19.81 124.56 21.42 121.67 17.74 121.85 22.41 117.45 24.02 121.95 25.3" fill="#231f20"/><polygon points="109.05 12.89 110.53 17.32 111.94 12.87 116.62 12.82 112.81 10.11 114.22 5.64 110.46 8.43 106.65 5.71 108.14 10.15 104.37 12.93 109.05 12.89" fill="#231f20"/><path d="M26.74,119.15h6.15l.43,3.5c0,.69-.08,1.15-.77,1.47a3.79,3.79,0,0,1-1.48.26v.72h8.69v-.72a4,4,0,0,1-1.41-.2,2.71,2.71,0,0,1-.49-.46,4.44,4.44,0,0,1-.38-1l-2.86-17.1H33.9L23.45,122.1c-.66,1-1.24,2.05-2.54,2.28v.72h5.57v-.72c-.69-.06-1.85,0-1.85-1a2.3,2.3,0,0,1,.21-.84Zm4.91-8.08,1,7H27.41Z" fill="#231f20"/><path d="M55.21,122.5a2.13,2.13,0,0,0,1.94,3c2.13,0,3.63-2,4.53-3.76l-.64-.37c-1.38,2.42-2.62,2.4-2.42,1.73l2.25-7.33c1.1-3.61-1-3.87-2.14-3.87-2.25,0-4.27,3-5.25,4.68l-.06-.06c1.1-3.06.52-4.62-1.21-4.62-2.74,0-4.82,3.35-6,5.37l-.05-.06,1.61-5.31c-2.16.4-4,.63-5.71.78v.78c.6-.06,1.73,0,1.53.69l-2.89,11h3.46a40.57,40.57,0,0,1,1.68-5.4c1.35-3.14,2.6-4.76,3.84-5.51.81-.49,1.18-.12.84,1.33l-2.95,9.58H51A46.24,46.24,0,0,1,53.45,118c.52-1,2.25-4,3.52-4,.93,0,.75.72.55,1.35Z" fill="#231f20"/><path d="M76.37,111.5c-1.27,3-2.71,3-5.65,3l1.64-6a2.85,2.85,0,0,1,.55-1.27c.29-.35,1-.35,1.44-.35,3.73,0,5.06,1.59,5,4.39l.78.15L81.31,106H66.1v.72c1.07.2,2.07-.11,2.07,1.3l-3.69,14a3.47,3.47,0,0,1-1,2,3.4,3.4,0,0,1-1.36.4v.72h8.43v-.72a3.43,3.43,0,0,1-1.41-.26c-.81-.37-.61-.92-.61-1.21l2-7.45c1.06,0,3.11,0,3.63,1.15a5.51,5.51,0,0,1,.18,2.66l.78.14,2.13-7.79Z" fill="#231f20"/><path d="M80.47,122.39c-.63,2.31.81,3.09,1.79,3.09,2.43,0,3.64-2.14,4.86-4l-.64-.4a10.53,10.53,0,0,1-1.65,2.11c-.57.26-.75.2-1,0a1.9,1.9,0,0,1,0-.92l2.77-10.45c-2.28.29-4.36.58-5.74.78v.78c1.41,0,1.93.17,1.53,1.64Z" fill="#231f20"/><path d="M87.81,107.49a2,2,0,0,0-1.91-1.91,2,2,0,1,0,1.91,1.91Z" fill="#231f20"/><path d="M87.89,125.1h3.47c1.24-3.52,1.91-7.45,4.5-10.28a.57.57,0,0,1,.55,0c.61.73.87,1,1.5,1,1.22,0,1.71-1.18,1.71-2.22A1.63,1.63,0,0,0,98,111.88c-1.9,0-3.75,3.64-4.44,5.14l-.15-.06L95,111.88c-2.08.34-3.93.52-5.72.78v.78c.69,0,1-.06,1.3.17s.35.81,0,1.91Z" fill="#231f20"/><path d="M105.42,112.77c1.65,0,2.43,2,2.54,3.44l.75.06.67-4.39h-.84c-.26.75-.87.69-1.33.55a15.58,15.58,0,0,0-1.59-.55A5.13,5.13,0,0,0,104,112a3.37,3.37,0,0,0-2.72,3.49c0,1.73.93,3,2,4.24.63.78,1.9,2.23,1.9,3.32a1.57,1.57,0,0,1-1.7,1.59c-1.68,0-2.66-2.39-2.69-3.81l-.75-.09-.63,4.77h.78a.84.84,0,0,1,.72-.58,12.58,12.58,0,0,0,2.8.58c3.55,0,4.22-2.63,4.22-3.9a5.92,5.92,0,0,0-1.42-3.29l-2.19-3A1.53,1.53,0,0,1,105.42,112.77Z" fill="#231f20"/><path d="M117.29,121.58l-.61-.4a6.79,6.79,0,0,1-2.17,2.31c-.49.2-.54-.5-.37-1.13l2.4-9h2.36v-1.18h-2.05L118,108h-1a10.47,10.47,0,0,1-5.23,4.36v1h1.48L111.11,121c-1.47,4.13.37,4.54,1.24,4.54C114.8,125.51,116.19,123.4,117.29,121.58Z" fill="#231f20"/><path d="M13.26,129.6H9.35v.26c.68.08,1.1.12,1.1.68a3.61,3.61,0,0,1-.17,1l-1.95,7c-.26,1-.5,1-1.28,1.17v.26h3.86v-.26c-.68-.08-1.07-.13-1.07-.63a3.5,3.5,0,0,1,.17-1l2-7c.27-1,.52-1,1.3-1.17Z" fill="#231f20"/><path d="M18.43,139.33a.26.26,0,0,1-.26-.26c0-.48,1.27-4.39,1.27-5.07a1,1,0,0,0-1.09-1c-1.31,0-2.77,2.2-3.51,3.37l0,0,1-3.31-.05,0-2.56.49v.25c.85,0,1,.18,1,.41s-1.06,4-1.55,5.83h1.19A12.13,12.13,0,0,1,15.44,136c.57-.88,1.56-2.25,2.32-2.25.3,0,.4.23.4.51,0,.63-1.17,4.5-1.17,4.87s0,.94.76.94,1.41-.73,2.2-1.79l-.22-.21C19.14,138.83,18.75,139.33,18.43,139.33Z" fill="#231f20"/><path d="M25.49,133.23c-.48,0-.8-.27-1.51-.27a1.7,1.7,0,0,0-1.9,1.76c0,1.21,1.89,2.73,1.89,3.78a1.16,1.16,0,0,1-1.14,1.28c-1.29,0-1.54-1.46-1.65-2.15h-.25l-.32,2.51h.25c.1-.17.16-.33.39-.33.45,0,1.09.3,1.56.3A2.13,2.13,0,0,0,25.17,138c0-1.35-1.93-2.75-1.93-3.75,0-.78.5-.92.85-.92,1,0,1.41.92,1.49,1.82h.25l.32-2.2h-.22A.48.48,0,0,1,25.49,133.23Z" fill="#231f20"/><path d="M32.51,139.33c-.17,0-.19-.17-.19-.25a8,8,0,0,1,.3-1.25l1.25-4.73H32.7A17,17,0,0,1,31,137c-.54.82-1.54,2.31-2.22,2.31-.33,0-.38-.33-.33-.54L29.85,133l-.05,0a21.86,21.86,0,0,1-2.37.43v.22c.65,0,.95,0,.95.46s-1.2,4.41-1.2,5.11.3.93.87.93c1.42,0,2.59-2,3.67-3.77h.05a21.22,21.22,0,0,0-.68,2.92.71.71,0,0,0,.74.82c.79,0,1.2-.41,2.2-1.85l-.22-.15C33.25,138.78,32.81,139.33,32.51,139.33Z" fill="#231f20"/><path d="M40.18,133c-1,0-2.2,1.85-2.72,2.89l-.13.32,0,0,.78-3.15,0,0c-.71.11-1.64.31-2.45.43v.26a3.12,3.12,0,0,1,.52-.08c.49,0,.57.26.57.48a7.39,7.39,0,0,1-.25,1.27l-1.28,4.62h1.2a20,20,0,0,1,1.47-4c.13-.24,1.08-2,1.56-2s.15.57.83.57c.17,0,.74,0,.74-.83A.73.73,0,0,0,40.18,133Z" fill="#231f20"/><path d="M46.65,139.29a.22.22,0,0,1-.22-.21c0-.49,1.46-5.88,1.5-6.07l-.11,0-1,.11,0,.05-.16.69h0a1.18,1.18,0,0,0-1.25-.85c-2.1,0-4.52,3-4.52,5.28a1.61,1.61,0,0,0,1.63,1.87c1,0,1.78-.47,3.1-2.4l0,0a6.93,6.93,0,0,0-.33,1.67c0,.27,0,.68.66.68s1.22-.57,2.17-1.74l-.19-.16C47.21,138.89,46.89,139.29,46.65,139.29Zm-3.52,0c-.43,0-1-.28-1-1.12,0-1.42,1.42-4.9,3.27-4.9.46,0,.9.3.9,1.06C46.35,135.92,44.8,139.33,43.13,139.33Z" fill="#231f20"/><path d="M54.47,139.33a.26.26,0,0,1-.25-.26c0-.48,1.26-4.39,1.26-5.07a1,1,0,0,0-1.09-1c-1.31,0-2.77,2.2-3.51,3.37l0,0,1-3.31,0,0-2.56.49v.25c.85,0,1,.18,1,.41s-1.06,4-1.55,5.83H49.9A12.36,12.36,0,0,1,51.48,136c.57-.88,1.56-2.25,2.33-2.25.3,0,.39.23.39.51,0,.63-1.17,4.5-1.17,4.87s0,.94.76.94,1.41-.73,2.2-1.79l-.22-.21C55.18,138.83,54.79,139.33,54.47,139.33Z" fill="#231f20"/><path d="M61.4,133a5,5,0,0,0-4.53,4.65c0,2.1,1.32,2.5,2.35,2.5a3.76,3.76,0,0,0,3-1.69l-.25-.16a3.22,3.22,0,0,1-2.27,1.28c-1,0-1.44-.71-1.44-1.93,0-1.52,1.1-4.32,3.15-4.32.29,0,.6.08.6.32s-.23.36-.23.77a.56.56,0,0,0,.63.59.72.72,0,0,0,.74-.73C63.12,133.75,62.73,133,61.4,133Z" fill="#231f20"/><path d="M68.64,133c-2.23,0-4.73,2.66-4.73,4.92a2.05,2.05,0,0,0,2.17,2.23,4.9,4.9,0,0,0,3.2-1.71l-.19-.19a3.81,3.81,0,0,1-2.31,1.19A1.38,1.38,0,0,1,65.29,138a4.18,4.18,0,0,1,.16-1l.44-.06c2.57-.37,4-1.65,4-2.9C69.94,133.34,69.45,133,68.64,133Zm-3.08,3.68.27-.69c.58-1.41,1.66-2.63,2.51-2.63.4,0,.56.3.56.64C68.9,134.08,68.82,136,65.56,136.64Z" fill="#231f20"/><path d="M84.34,129.78a16.64,16.64,0,0,0-2.47-.38c-3.62,0-6.42,3.49-6.42,6.55a4,4,0,0,0,4.14,4.27,5.7,5.7,0,0,0,4.31-2.36l-.27-.22A5.12,5.12,0,0,1,80,139.51c-1.88,0-2.75-1.32-2.75-3.39,0-2.32,1.61-6.15,4.78-6.15a2.44,2.44,0,0,1,2.44,2.56l.28.05.58-3.15H85C84.89,129.59,84.8,129.78,84.34,129.78Z" fill="#231f20"/><path d="M90,133c-2.31,0-4.65,2.55-4.65,4.87a2.12,2.12,0,0,0,2.39,2.28c2.42,0,4.59-2.86,4.59-4.81A2.15,2.15,0,0,0,90,133Zm-2,6.82c-.79,0-1.27-.57-1.27-1.47,0-1.87,1.44-5,3.21-5,.76,0,1.11.7,1.11,1.52C91,136.5,89.78,139.78,88,139.78Z" fill="#231f20"/><path d="M103.93,138.39l.07-.12-.23-.19c-.6.75-1,1.25-1.31,1.25s-.24,0-.24-.31,1.28-4.46,1.28-5a1,1,0,0,0-.93-1.06c-1,0-2.33,1.39-3.44,3.23l0,0a15.69,15.69,0,0,0,.59-2.16c0-.67-.34-1-.94-1-1.33,0-3,2.45-3.43,3.23l0,0,.88-3.16,0,0-2.54.49v.25c.78,0,1,0,1,.38s-1.3,4.81-1.55,5.86h1.18A14.74,14.74,0,0,1,95.78,136c.43-.63,1.63-2.23,2.34-2.23.14,0,.35,0,.35.43s-1.09,4.19-1.51,5.73h1.19a12.42,12.42,0,0,1,1.49-4c.49-.78,1.63-2.17,2.28-2.17a.32.32,0,0,1,.33.36c0,.32-1.24,4.74-1.24,5.16,0,.22,0,.78.67.78C102.57,140.08,103.36,139.19,103.93,138.39Z" fill="#231f20"/><path d="M109.83,133a3.42,3.42,0,0,0-2.58,1.71l0,0,.42-1.48c.07-.17,0-.2,0-.2l-2.46.35,0,.25.37,0c.36,0,.66.18.66.46s-1.61,6.22-2,8c-.12.51-.22.94-1.06.94v.25h3.25v-.24c-.42,0-1,0-1-.5,0-.32.45-2.06.59-2.6a2.15,2.15,0,0,0,1.07.27c2.19,0,4.72-2.63,4.72-5.08C111.71,133.89,111.24,133,109.83,133Zm-2.9,6.85c-.39,0-.79-.17-.79-.59a18.12,18.12,0,0,1,1-3.78,2.61,2.61,0,0,1,2.07-1.8c1,0,1.05.92,1.05,1.34C110.29,136.87,108.86,139.81,106.93,139.81Z" fill="#231f20"/><path d="M118.28,139.29a.22.22,0,0,1-.23-.21c0-.49,1.46-5.88,1.51-6.07l-.11,0-1,.11,0,.05-.15.69h0A1.17,1.17,0,0,0,117,133c-2.1,0-4.52,3-4.52,5.28a1.61,1.61,0,0,0,1.63,1.87c1,0,1.79-.47,3.1-2.4l0,0a6.93,6.93,0,0,0-.33,1.67c0,.27,0,.68.67.68s1.21-.57,2.16-1.74l-.19-.16C118.83,138.89,118.51,139.29,118.28,139.29Zm-3.53,0c-.43,0-1-.28-1-1.12,0-1.42,1.42-4.9,3.27-4.9.46,0,.91.3.91,1.06C118,135.92,116.42,139.33,114.75,139.33Z" fill="#231f20"/><path d="M126.09,139.33a.26.26,0,0,1-.25-.26c0-.48,1.26-4.39,1.26-5.07a1,1,0,0,0-1.09-1c-1.31,0-2.77,2.2-3.51,3.37l0,0,1-3.31,0,0-2.56.49v.25c.86,0,1,.18,1,.41s-1.06,4-1.55,5.83h1.19A12.36,12.36,0,0,1,123.1,136c.57-.88,1.57-2.25,2.33-2.25.3,0,.39.23.39.51,0,.63-1.17,4.5-1.17,4.87s0,.94.76.94,1.41-.73,2.2-1.79l-.22-.21C126.8,138.83,126.41,139.33,126.09,139.33Z" fill="#231f20"/><path d="M133.86,133a.57.57,0,0,0-.59.55c0,.73.86.56.86,1.21,0,.83-1.25,3-1.93,4.08l-.32-1.84a14.87,14.87,0,0,0-1.34-4c-.29,0-1.52.25-2.28.38v.27a1.77,1.77,0,0,1,.54-.07c.9,0,1.1.68,1.53,2.12a30,30,0,0,1,.93,4.23c0,.42-.66,1.2-1,1.66-.54.63-.75.77-1,.77s-.49-.44-1-.44a.6.6,0,0,0-.6.6c0,.67.68.71.81.71,1.88,0,6.31-7.37,6.31-9.25A.88.88,0,0,0,133.86,133Z" fill="#231f20"/><path d="M25.15,5.2A68.86,68.86,0,0,0,33.6,8.35l.56,1.76-3.79,2.73,4.67,0,1.43,4.46,1.47-4.45,4.67,0-3.77-2.77L39,9.56a36.62,36.62,0,0,0,4.26.4c12.06.42,18.41,3.41,22.21,5.2a10.86,10.86,0,0,0,4,1.4v1.81c-.57.11-.87.65-1.14,1.12s-.54.9-.95.9-.64-.34-1-.9-.67-1.15-1.4-1.15-1,.66-1.27,1.18-.4.87-.8.87-.77-.45-1.1-.92-.8-1.13-1.51-1.13-.94.71-1,1.22-.21.83-.56.83-.72-.42-1-.91-.73-1.14-1.46-1.14a.81.81,0,0,0-.57.21,1.46,1.46,0,0,0-.24,1.07c0,.28,0,.6-.11.71a.28.28,0,0,1-.21.06c-.36,0-.48-.26-.67-.85s-.38-1.2-1.14-1.2l-.25.06v3.26h0v1.48h5.26V26h4.33v.8l.1.08c.07.05,1.34.95,6,1.39v1h.72v1.6h.36l.09,2.54H48.64L35.73,81.34a13.53,13.53,0,0,1-1,2.91,3.08,3.08,0,0,1-1.18,1.17,5,5,0,0,1-2.27.39v8.5H50v-8.5a13,13,0,0,1-2.8-.17,2,2,0,0,1-1.12-.83,2.33,2.33,0,0,1-.34-1.26A14.12,14.12,0,0,1,46.25,81l3.43-12.65H58V81c0,.87.2,2.86-1,3.82a2.56,2.56,0,0,1-1.56.89l-2.12.09v8.5H72l.08,2.57a2.56,2.56,0,0,0-.54,1.56v.88a2.58,2.58,0,0,0,2.57,2.57H75a2.57,2.57,0,0,0,2.57-2.57v-.88A2.54,2.54,0,0,0,77,96.91l.09-2.6H96.21v-8.5H94.49a4.73,4.73,0,0,1-2.33-.39c-.4-.26-.48-.79-.88-1.19S91,82.67,91,81.14V68.46h2.3a6.32,6.32,0,0,1,3.38.75,7.63,7.63,0,0,1,1.41,1.5H103V57.25H97.57a3.41,3.41,0,0,1-.83,1.59,7.73,7.73,0,0,1-3.37.66H91V43.42h11a23,23,0,0,1,4.56.31,5.71,5.71,0,0,1,4.28,4l5.37,0V33.41h-37l.09-2.54h.33v-1.6h.71v-1c4.68-.44,6-1.34,6-1.39l.1-.08V26h4.33V23.14H96V18.65h-.24l.24,0,0-.27h-.27c-.75,0-1.05.62-1.33,1.16s-.47.89-.87.89-.35-.13-.36-.78c0-.5,0-1.27-.85-1.27s-1.11.61-1.45,1.14-.58.91-1,.91-.43-.24-.56-.82-.25-1.23-1-1.23S87.25,19,87,19.5s-.48.89-.89.89-.63-.34-1-.9-.66-1.15-1.39-1.15-1.07.61-1.38,1.15-.54.9-1,.9-.64-.34-1-.9a2.56,2.56,0,0,0-.82-1V16.45A8.34,8.34,0,0,0,83.41,9.8c.08-2.12-.63-5.18-4.53-7.73C76,.21,71,.56,65.11,1c-4.81.33-10.27.71-15.44-.07l-.27.64a14.3,14.3,0,0,0,3.92,2.12c-4.52.81-15.21,2.08-30.25-.06a1.14,1.14,0,0,0-.39,0l0,.71.3,0C23.38,4.43,24.25,4.8,25.15,5.2ZM57.89,59.47H52l4.27-16.08h1.64ZM76.83,99.32A1.85,1.85,0,0,1,75,101.17h-.89a1.85,1.85,0,0,1-1.85-1.85v-.88a1.85,1.85,0,0,1,1.85-1.85H75a1.85,1.85,0,0,1,1.85,1.85Zm-.5-3.06A2.57,2.57,0,0,0,75,95.87h-.89a2.52,2.52,0,0,0-1.33.38L70.55,31h8Zm2.77-66H70v-1H79.1Zm.71-1.49H69.25v-.55H79.81ZM86,26.5c-.37.2-1.86.86-5.64,1.22H68.75c-3.76-.36-5.23-1-5.6-1.22V26H86Zm4.33-1H58.82V23.14H90.28Zm5.25-2.82h-42v-1h42ZM80,19.74c.31.54.67,1.15,1.4,1.15s1.08-.61,1.39-1.15.54-.9.94-.9.63.34,1,.9.66,1.15,1.39,1.15,1.06-.62,1.33-1.16.48-.89.88-.89.43.24.55.83.26,1.22,1.05,1.22,1.11-.6,1.45-1.14.58-.91,1-.91c.29,0,.35.13.35.78s0,1.27.86,1.27,1-.62,1.32-1.16.38-.72.62-.83v2.26h-42V18.91c.18.11.28.36.42.78s.38,1.2,1.14,1.2a.77.77,0,0,0,.57-.21,1.46,1.46,0,0,0,.25-1.07c0-.28,0-.59.1-.7s.06-.07.21-.07c.45,0,.73.43,1,.91s.74,1.14,1.46,1.14.94-.71,1-1.22.21-.83.56-.83.76.45,1.1.92.8,1.13,1.51,1.13,1-.65,1.26-1.17.4-.88.81-.88.64.34,1,.9.67,1.15,1.4,1.15,1.07-.61,1.38-1.15.54-.9.94-.9.64.34,1,.9.66,1.15,1.4,1.15,1.07-.61,1.38-1.15.54-.9,1-.9.62.34.94.9.65,1.15,1.38,1.15,1.07-.61,1.38-1.15.53-.9.94-.9S79.7,19.18,80,19.74ZM70,18.38V16.55h9.14v1.8h-.08c-.73,0-1.07.61-1.38,1.15s-.54.9-.94.9-.63-.34-1-.9-.65-1.15-1.37-1.15S73.33,19,73,19.49s-.54.9-.94.9-.64-.34-1-.9S70.55,18.51,70,18.38ZM55,4.05l0-.71a11.17,11.17,0,0,1-3.9-1.54,80.38,80.38,0,0,0,14.08-.12c5.73-.4,10.68-.74,13.32,1C82.1,5,82.76,7.84,82.69,9.77a7.61,7.61,0,0,1-3.41,6.06H69.71c-.92.09-2.17-.5-3.9-1.32C62,12.7,55.52,9.66,43.32,9.24,35.89,9,29.4,6.25,25.75,4.67,41.49,6.55,52,4.7,55,4.05Z" fill="#231f20"/></svg>