<svg xmlns="http://www.w3.org/2000/svg" width="2in" height="2in" viewBox="0 0 144 144.3"><defs><style>.a{fill:#231f20;}</style></defs><title>AmFirst CDN Logos</title><polygon class="a" points="18.9 101.4 21.4 105.4 21.6 100.7 26.2 99.5 21.8 97.8 22.1 93.1 19.1 96.8 14.7 95.1 17.3 99 14.3 102.7 18.9 101.4"/><polygon class="a" points="11.5 88 13.1 83.6 17.8 83.8 14.1 80.9 15.8 76.5 11.9 79.1 8.2 76.2 9.5 80.7 5.6 83.3 10.2 83.5 11.5 88"/><polygon class="a" points="7.1 66.9 10 63.2 14.4 64.9 11.8 60.9 14.8 57.3 10.3 58.5 7.7 54.6 7.5 59.3 3 60.5 7.3 62.2 7.1 66.9"/><polygon class="a" points="131.2 41.7 129.9 46.2 133.6 43.3 137.5 45.9 135.8 41.5 139.5 38.6 134.8 38.8 133.2 34.4 131.9 38.9 127.2 39.1 131.2 41.7"/><polygon class="a" points="9.5 45.9 13.4 43.3 17 46.2 15.8 41.7 19.7 39.1 15 38.9 13.8 34.4 12.1 38.8 7.5 38.6 11.1 41.5 9.5 45.9"/><polygon class="a" points="22.2 26.1 24.8 30 25 25.3 29.5 24 25.1 22.4 25.3 17.7 22.4 21.4 18 19.8 20.6 23.7 17.7 27.4 22.2 26.1"/><polygon class="a" points="127.9 96.8 124.9 93.2 125.2 97.8 120.8 99.5 125.3 100.7 125.6 105.4 128.1 101.5 132.6 102.7 129.7 99 132.2 95.1 127.9 96.8"/><polygon class="a" points="138.8 76.2 135.1 79.1 131.2 76.5 132.8 80.9 129.1 83.8 133.8 83.6 135.4 88 136.7 83.5 141.4 83.3 137.5 80.7 138.8 76.2"/><polygon class="a" points="136.7 58.6 132.2 57.3 135.1 61 132.5 64.9 136.9 63.2 139.8 66.9 139.6 62.2 144 60.6 139.5 59.3 139.3 54.7 136.7 58.6"/><polygon class="a" points="122 25.3 122.1 30 124.7 26.1 129.2 27.4 126.3 23.7 129 19.8 124.6 21.4 121.7 17.7 121.8 22.4 117.5 24 122 25.3"/><polygon class="a" points="109.1 12.9 110.5 17.3 111.9 12.9 116.6 12.8 112.8 10.1 114.2 5.6 110.5 8.4 106.7 5.7 108.1 10.1 104.4 12.9 109.1 12.9"/><path class="a" d="M26.7,119.2h6.1l0.4,3.5a1.3,1.3,0,0,1-.8,1.5,3.7,3.7,0,0,1-1.5.3v0.7h8.7v-0.7l-1.4-.2-0.5-.5a4.1,4.1,0,0,1-.4-1l-2.9-17.1H33.9L23.5,122.1c-0.7,1-1.2,2.1-2.5,2.3v0.7h5.6v-0.7c-0.7-.1-1.8,0-1.8-1a2.4,2.4,0,0,1,.2-0.8Zm4.9-8.1,1,7H27.4Z"/><path class="a" d="M55.2,122.5a2.1,2.1,0,0,0,1.9,3c2.1,0,3.6-2,4.5-3.8l-0.6-.4c-1.4,2.4-2.6,2.4-2.4,1.7l2.3-7.3c1.1-3.6-1-3.9-2.1-3.9s-4.3,3-5.3,4.7H53.4c1.1-3.1.5-4.6-1.2-4.6s-4.8,3.3-6,5.4H46.1l1.6-5.3a56.2,56.2,0,0,1-5.7.8v0.8c0.6-.1,1.7,0,1.5.7l-2.9,11h3.5a40.2,40.2,0,0,1,1.7-5.4c1.4-3.1,2.6-4.8,3.8-5.5s1.2-.1.8,1.3l-2.9,9.6H51a46.1,46.1,0,0,1,2.5-7.1c0.5-1,2.3-4,3.5-4s0.8,0.7.5,1.4Z"/><path class="a" d="M76.4,111.5c-1.3,3-2.7,3-5.7,3l1.6-6a2.8,2.8,0,0,1,.5-1.3,2.1,2.1,0,0,1,1.4-.3c3.7,0,5.1,1.6,5,4.4h0.8l1.2-5.4H66.1v0.7c1.1,0.2,2.1-.1,2.1,1.3l-3.7,14a3.4,3.4,0,0,1-1,2,3.3,3.3,0,0,1-1.4.4v0.7h8.4v-0.7a3.4,3.4,0,0,1-1.4-.3,1,1,0,0,1-.6-1.2l2-7.4c1.1,0,3.1,0,3.6,1.2a5.4,5.4,0,0,1,.2,2.7H75l2.1-7.8H76.4Z"/><path class="a" d="M80.5,122.4c-0.6,2.3.8,3.1,1.8,3.1s3.6-2.1,4.9-4l-0.6-.4a10.6,10.6,0,0,1-1.6,2.1c-0.6.3-.7,0.2-1,0a2,2,0,0,1,0-.9l2.8-10.5-5.7.8v0.8c1.4,0,1.9.2,1.5,1.6Z"/><path class="a" d="M87.8,107.5a2,2,0,0,0-1.9-1.9A1.9,1.9,0,1,0,87.8,107.5Z"/><path class="a" d="M87.9,125.1h3.5c1.2-3.5,1.9-7.4,4.5-10.3a0.5,0.5,0,0,1,.5,0c0.6,0.7.9,1,1.5,1s1.7-1.2,1.7-2.2a1.6,1.6,0,0,0-1.6-1.7c-1.9,0-3.8,3.6-4.4,5.1H93.4l1.6-5.1-5.7.8v0.8a2,2,0,0,1,1.3.2c0.3,0.3.3,0.8,0,1.9Z"/><path class="a" d="M105.4,112.8c1.6,0,2.4,2,2.5,3.4h0.8l0.7-4.4h-0.8a0.9,0.9,0,0,1-1.3.5l-1.6-.5h-1.7a3.4,3.4,0,0,0-2.7,3.5c0,1.7.9,3,2,4.2s1.9,2.2,1.9,3.3a1.6,1.6,0,0,1-1.7,1.6c-1.7,0-2.7-2.4-2.7-3.8H100l-0.6,4.8h0.8a0.9,0.9,0,0,1,.7-0.6,12.7,12.7,0,0,0,2.8.6c3.6,0,4.2-2.6,4.2-3.9a5.9,5.9,0,0,0-1.4-3.3l-2.2-2.9A1.5,1.5,0,0,1,105.4,112.8Z"/><path class="a" d="M117.3,121.6l-0.6-.4a6.7,6.7,0,0,1-2.2,2.3c-0.5.2-.5-0.5-0.4-1.1l2.4-9h2.4v-1.2h-2.1L118,108h-1a10.5,10.5,0,0,1-5.2,4.4v1h1.5l-2.1,7.6c-1.5,4.1.4,4.5,1.2,4.5C114.8,125.5,116.2,123.4,117.3,121.6Z"/><path class="a" d="M13.3,129.6H9.3v0.3c0.7,0.1,1.1.1,1.1,0.7a3.8,3.8,0,0,1-.2,1l-1.9,7a1.2,1.2,0,0,1-1.3,1.2v0.3h3.9v-0.3c-0.7-.1-1.1-0.1-1.1-0.6a3.4,3.4,0,0,1,.2-1l1.9-7a1.2,1.2,0,0,1,1.3-1.2v-0.3Z"/><path class="a" d="M18.4,139.3a0.3,0.3,0,0,1-.3-0.3c0-.5,1.3-4.4,1.3-5.1a1,1,0,0,0-1.1-1c-1.3,0-2.8,2.2-3.5,3.4h0l1-3.3h0l-2.6.5v0.3c0.9,0,1,.2,1,0.4s-1.1,4-1.5,5.8h1.2a12.4,12.4,0,0,1,1.6-3.9c0.6-.9,1.6-2.2,2.3-2.2a0.4,0.4,0,0,1,.4.5c0,0.6-1.2,4.5-1.2,4.9s0,0.9.8,0.9,1.4-.7,2.2-1.8l-0.2-.2A2.9,2.9,0,0,1,18.4,139.3Z"/><path class="a" d="M25.5,133.2c-0.5,0-.8-0.3-1.5-0.3a1.7,1.7,0,0,0-1.9,1.8c0,1.2,1.9,2.7,1.9,3.8a1.2,1.2,0,0,1-1.1,1.3c-1.3,0-1.5-1.5-1.6-2.2H20.9l-0.3,2.5h0.3a0.4,0.4,0,0,1,.4-0.3l1.6,0.3a2.1,2.1,0,0,0,2.4-2.1c0-1.3-1.9-2.8-1.9-3.7a0.8,0.8,0,0,1,.9-0.9c1,0,1.4.9,1.5,1.8h0.3l0.3-2.2H25.9A0.5,0.5,0,0,1,25.5,133.2Z"/><path class="a" d="M32.5,139.3a0.2,0.2,0,0,1-.2-0.3,7.5,7.5,0,0,1,.3-1.2l1.3-4.7H32.7A16.6,16.6,0,0,1,31,137c-0.5.8-1.5,2.3-2.2,2.3a0.4,0.4,0,0,1-.3-0.5l1.4-5.7h0l-2.4.4v0.2c0.6,0,.9,0,0.9.5s-1.2,4.4-1.2,5.1a0.8,0.8,0,0,0,.9.9c1.4,0,2.6-2,3.7-3.8h0a22.2,22.2,0,0,0-.7,2.9,0.7,0.7,0,0,0,.7.8c0.8,0,1.2-.4,2.2-1.9H33.8A3.1,3.1,0,0,1,32.5,139.3Z"/><path class="a" d="M40.2,133c-1,0-2.2,1.9-2.7,2.9v0.3h0l0.8-3.1h0l-2.5.4v0.3h0.5a0.5,0.5,0,0,1,.6.5,7.5,7.5,0,0,1-.3,1.3l-1.3,4.6h1.2a19.7,19.7,0,0,1,1.5-4c0.1-.2,1.1-2,1.6-2s0.1,0.6.8,0.6a0.7,0.7,0,0,0,.7-0.8A0.7,0.7,0,0,0,40.2,133Z"/><path class="a" d="M46.7,139.3a0.2,0.2,0,0,1-.2-0.2c0-.5,1.5-5.9,1.5-6.1H46.8l-0.2.7h0a1.2,1.2,0,0,0-1.2-.9c-2.1,0-4.5,3-4.5,5.3a1.6,1.6,0,0,0,1.6,1.9c0.9,0,1.8-.5,3.1-2.4h0a6.8,6.8,0,0,0-.3,1.7,0.6,0.6,0,0,0,.7.7c0.7,0,1.2-.6,2.2-1.7l-0.2-.2A3.8,3.8,0,0,1,46.7,139.3Zm-3.5,0a1,1,0,0,1-.9-1.1c0-1.4,1.4-4.9,3.3-4.9a0.9,0.9,0,0,1,.9,1.1C46.4,135.9,44.8,139.3,43.1,139.3Z"/><path class="a" d="M54.5,139.3a0.3,0.3,0,0,1-.3-0.3c0-.5,1.3-4.4,1.3-5.1a1,1,0,0,0-1.1-1c-1.3,0-2.8,2.2-3.5,3.4h0l1-3.3h0l-2.6.5v0.3c0.9,0,1,.2,1,0.4s-1.1,4-1.6,5.8h1.2a12.5,12.5,0,0,1,1.6-3.9c0.6-.9,1.6-2.2,2.3-2.2a0.4,0.4,0,0,1,.4.5c0,0.6-1.2,4.5-1.2,4.9s0,0.9.8,0.9,1.4-.7,2.2-1.8l-0.2-.2A2.9,2.9,0,0,1,54.5,139.3Z"/><path class="a" d="M61.4,133a4.9,4.9,0,0,0-4.5,4.7c0,2.1,1.3,2.5,2.3,2.5a3.7,3.7,0,0,0,3-1.7l-0.3-.2a3.2,3.2,0,0,1-2.3,1.3c-1,0-1.4-.7-1.4-1.9s1.1-4.3,3.2-4.3c0.3,0,.6.1,0.6,0.3a5.2,5.2,0,0,0-.2.8,0.6,0.6,0,0,0,.6.6,0.7,0.7,0,0,0,.7-0.7C63.1,133.7,62.7,133,61.4,133Z"/><path class="a" d="M68.6,133c-2.2,0-4.7,2.7-4.7,4.9a2.1,2.1,0,0,0,2.2,2.2,4.9,4.9,0,0,0,3.2-1.7l-0.2-.2a3.8,3.8,0,0,1-2.3,1.2,1.4,1.4,0,0,1-1.5-1.4,4.3,4.3,0,0,1,.2-1h0.4c2.6-.4,4-1.6,4-2.9A1.1,1.1,0,0,0,68.6,133Zm-3.1,3.7,0.3-.7c0.6-1.4,1.7-2.6,2.5-2.6a0.6,0.6,0,0,1,.6.6C68.9,134.1,68.8,136,65.6,136.6Z"/><path class="a" d="M84.3,129.8a16.8,16.8,0,0,0-2.5-.4c-3.6,0-6.4,3.5-6.4,6.5a4,4,0,0,0,4.1,4.3,5.7,5.7,0,0,0,4.3-2.4l-0.3-.2a5.1,5.1,0,0,1-3.7,1.9c-1.9,0-2.8-1.3-2.8-3.4S78.8,130,82,130a2.4,2.4,0,0,1,2.4,2.6h0.3l0.6-3.1H85A0.6,0.6,0,0,1,84.3,129.8Z"/><path class="a" d="M90,133c-2.3,0-4.7,2.5-4.7,4.9a2.1,2.1,0,0,0,2.4,2.3c2.4,0,4.6-2.9,4.6-4.8A2.1,2.1,0,0,0,90,133ZM88,139.8a1.3,1.3,0,0,1-1.3-1.5c0-1.9,1.4-5,3.2-5a1.3,1.3,0,0,1,1.1,1.5C91,136.5,89.8,139.8,88,139.8Z"/><path class="a" d="M103.9,138.4H104l-0.2-.2a3.1,3.1,0,0,1-1.3,1.3c-0.2,0-.2,0-0.2-0.3s1.3-4.5,1.3-5a0.9,0.9,0,0,0-.9-1.1c-1,0-2.3,1.4-3.4,3.2h0a15.4,15.4,0,0,0,.6-2.2,0.9,0.9,0,0,0-.9-1c-1.3,0-3,2.5-3.4,3.2h0l0.9-3.2h0l-2.5.5v0.3c0.8,0,1,0,1,.4s-1.3,4.8-1.6,5.9h1.2a14.5,14.5,0,0,1,1.5-3.9c0.4-.6,1.6-2.2,2.3-2.2s0.3,0,.3.4-1.1,4.2-1.5,5.7h1.2a12.5,12.5,0,0,1,1.5-4c0.5-.8,1.6-2.2,2.3-2.2a0.3,0.3,0,0,1,.3.4c0,0.3-1.2,4.7-1.2,5.2a0.6,0.6,0,0,0,.7.8C102.6,140.1,103.4,139.2,103.9,138.4Z"/><path class="a" d="M109.8,133a3.4,3.4,0,0,0-2.6,1.7h0l0.4-1.5c0.1-.2,0-0.2,0-0.2l-2.5.3v0.3h0.4a0.6,0.6,0,0,1,.7.5c0,0.3-1.6,6.2-2,8a0.9,0.9,0,0,1-1.1.9v0.3h3.2v-0.2c-0.4,0-1,0-1-.5a26.1,26.1,0,0,1,.6-2.6l1.1,0.3c2.2,0,4.7-2.6,4.7-5.1A1.8,1.8,0,0,0,109.8,133Zm-2.9,6.9a0.7,0.7,0,0,1-.8-0.6,18.3,18.3,0,0,1,1-3.8,2.6,2.6,0,0,1,2.1-1.8,1.1,1.1,0,0,1,1,1.3C110.3,136.9,108.9,139.8,106.9,139.8Z"/><path class="a" d="M118.3,139.3a0.2,0.2,0,0,1-.2-0.2c0-.5,1.5-5.9,1.5-6.1h-1.1l-0.2.7h0a1.2,1.2,0,0,0-1.3-.9c-2.1,0-4.5,3-4.5,5.3a1.6,1.6,0,0,0,1.6,1.9c0.9,0,1.8-.5,3.1-2.4h0a6.9,6.9,0,0,0-.3,1.7,0.6,0.6,0,0,0,.7.7c0.7,0,1.2-.6,2.2-1.7l-0.2-.2A3.8,3.8,0,0,1,118.3,139.3Zm-3.5,0a1,1,0,0,1-1-1.1c0-1.4,1.4-4.9,3.3-4.9a0.9,0.9,0,0,1,.9,1.1C118,135.9,116.4,139.3,114.7,139.3Z"/><path class="a" d="M126.1,139.3a0.3,0.3,0,0,1-.3-0.3c0-.5,1.3-4.4,1.3-5.1a1,1,0,0,0-1.1-1c-1.3,0-2.8,2.2-3.5,3.4h0l1-3.3h0l-2.6.5v0.3c0.9,0,1,.2,1,0.4s-1.1,4-1.6,5.8h1.2a12.4,12.4,0,0,1,1.6-3.9c0.6-.9,1.6-2.2,2.3-2.2a0.4,0.4,0,0,1,.4.5c0,0.6-1.2,4.5-1.2,4.9s0,0.9.8,0.9,1.4-.7,2.2-1.8l-0.2-.2A2.9,2.9,0,0,1,126.1,139.3Z"/><path class="a" d="M133.9,133a0.6,0.6,0,0,0-.6.6c0,0.7.9,0.6,0.9,1.2s-1.2,3-1.9,4.1l-0.3-1.8a15,15,0,0,0-1.3-4l-2.3.4v0.3h0.5c0.9,0,1.1.7,1.5,2.1a29.7,29.7,0,0,1,.9,4.2,4.1,4.1,0,0,1-1.1,1.7,1.5,1.5,0,0,1-1,.8,4.7,4.7,0,0,0-1-.4,0.6,0.6,0,0,0-.6.6,0.7,0.7,0,0,0,.8.7c1.9,0,6.3-7.4,6.3-9.3A0.9,0.9,0,0,0,133.9,133Z"/><path class="a" d="M25.2,5.2a67.6,67.6,0,0,0,8.4,3.1l0.6,1.8-3.8,2.7H35l1.4,4.5,1.5-4.4h4.7l-3.8-2.8L39,9.6,43.3,10c12.1,0.4,18.4,3.4,22.2,5.2a10.8,10.8,0,0,0,4,1.4v1.8a1.9,1.9,0,0,0-1.1,1.1,1.3,1.3,0,0,1-.9.9,1.3,1.3,0,0,1-1-.9A1.7,1.7,0,0,0,65,18.3a1.5,1.5,0,0,0-1.3,1.2,1,1,0,0,1-.8.9,1.6,1.6,0,0,1-1.1-.9,2,2,0,0,0-1.5-1.1,1.2,1.2,0,0,0-1,1.2c-0.1.6-.2,0.8-0.6,0.8a1.5,1.5,0,0,1-1-.9,1.9,1.9,0,0,0-1.5-1.1l-0.6.2a1.4,1.4,0,0,0-.2,1.1,1.2,1.2,0,0,1-.1.7H55.1c-0.4,0-.5-0.3-0.7-0.8a1.3,1.3,0,0,0-1.1-1.2H53.1v3.3h0v1.5h5.3V26h4.3v0.8h0.1c0.1,0.1,1.3.9,6,1.4v1h0.7v1.6h0.4v2.5H48.6L35.7,81.3a13.1,13.1,0,0,1-1,2.9,3.1,3.1,0,0,1-1.2,1.2,5,5,0,0,1-2.3.4v8.5H50V85.8l-2.8-.2a2,2,0,0,1-1.1-.8,2.3,2.3,0,0,1-.3-1.3,14.1,14.1,0,0,1,.5-2.6l3.4-12.7h8.3V81c0,0.9.2,2.9-1,3.8a2.6,2.6,0,0,1-1.6.9H53.3v8.5H72v2.6a2.5,2.5,0,0,0-.5,1.6v0.9a2.6,2.6,0,0,0,2.6,2.6H75a2.6,2.6,0,0,0,2.6-2.6V98.4a2.5,2.5,0,0,0-.5-1.5V94.3H96.2V85.8H94.5a4.8,4.8,0,0,1-2.3-.4,8.5,8.5,0,0,1-.9-1.2C91,83.9,91,82.7,91,81.1V68.5h2.3a6.4,6.4,0,0,1,3.4.7,7.9,7.9,0,0,1,1.4,1.5H103V57.2H97.6a3.4,3.4,0,0,1-.8,1.6,7.7,7.7,0,0,1-3.4.7H91V43.4h11a22.9,22.9,0,0,1,4.6.3,5.7,5.7,0,0,1,4.3,4h5.4V33.4h-37V30.9h0.3V29.3h0.7v-1c4.7-.4,6-1.3,6-1.4h0.1V26h4.3V23.1H96V18.6h0V18.3H95.8a1.6,1.6,0,0,0-1.3,1.2,1.1,1.1,0,0,1-.9.9c-0.3,0-.3-0.1-0.4-0.8s0-1.3-.9-1.3a1.9,1.9,0,0,0-1.5,1.1,1.4,1.4,0,0,1-1,.9c-0.3,0-.4-0.2-0.6-0.8a1.2,1.2,0,0,0-1-1.2A1.6,1.6,0,0,0,87,19.5a1.1,1.1,0,0,1-.9.9,1.3,1.3,0,0,1-1-.9,1.4,1.4,0,0,0-2.8,0,1.3,1.3,0,0,1-.9.9,1.3,1.3,0,0,1-1-.9,2.6,2.6,0,0,0-.8-1v-2a8.4,8.4,0,0,0,3.8-6.7c0.1-2.1-.6-5.2-4.5-7.7S71,0.6,65.1,1,54.8,1.7,49.7.9l-0.3.6a14.4,14.4,0,0,0,3.9,2.1c-4.5.8-15.2,2.1-30.3-.1H22.7V4.3H23ZM57.9,59.5H52l4.3-16.1h1.6V59.5ZM76.8,99.3a1.9,1.9,0,0,1-1.8,1.9H74.1a1.9,1.9,0,0,1-1.9-1.9V98.4a1.9,1.9,0,0,1,1.9-1.8H75a1.9,1.9,0,0,1,1.8,1.8v0.9Zm-0.5-3.1a2.5,2.5,0,0,0-1.4-.4H74.1a2.5,2.5,0,0,0-1.3.4L70.6,31h8Zm2.8-66H70v-1h9.1v1Zm0.7-1.5H69.3V28.2H79.8v0.6ZM86,26.5c-0.4.2-1.9,0.9-5.6,1.2H68.8c-3.8-.4-5.2-1-5.6-1.2V26H86v0.5Zm4.3-1H58.8V23.1H90.3v2.3Zm5.3-2.8h-42v-1h42v1ZM80,19.7a1.7,1.7,0,0,0,1.4,1.1,1.7,1.7,0,0,0,1.4-1.1,1,1,0,0,1,1.9,0,1.7,1.7,0,0,0,1.4,1.1,1.6,1.6,0,0,0,1.3-1.2,1.1,1.1,0,0,1,.9-0.9c0.3,0,.4.2,0.6,0.8a1.2,1.2,0,0,0,1,1.2,1.8,1.8,0,0,0,1.5-1.1,1.4,1.4,0,0,1,1-.9c0.3,0,.3.1,0.4,0.8s0,1.3.9,1.3a1.6,1.6,0,0,0,1.3-1.2,1.7,1.7,0,0,1,.6-0.8v2.3h-42V18.9a1.4,1.4,0,0,1,.4.8,1.3,1.3,0,0,0,1.1,1.2l0.6-.2a1.4,1.4,0,0,0,.2-1.1,1.2,1.2,0,0,1,.1-0.7h0.2a1.5,1.5,0,0,1,1,.9,1.9,1.9,0,0,0,1.5,1.1,1.2,1.2,0,0,0,1.1-1.2c0.1-.6.2-0.8,0.6-0.8a1.6,1.6,0,0,1,1.1.9A2,2,0,0,0,63,20.9a1.5,1.5,0,0,0,1.3-1.2,1,1,0,0,1,.8-0.9,1.3,1.3,0,0,1,1,.9,1.7,1.7,0,0,0,1.4,1.1,1.7,1.7,0,0,0,1.4-1.1,1,1,0,0,1,1.9,0,1.4,1.4,0,0,0,2.8,0,0.9,0.9,0,0,1,1.9,0,1.4,1.4,0,0,0,2.8,0,1.3,1.3,0,0,1,.9-0.9A1.3,1.3,0,0,1,80,19.7ZM70,18.4V16.6h9.1v1.8H79a1.7,1.7,0,0,0-1.4,1.1,0.9,0.9,0,0,1-1.9,0,1.4,1.4,0,0,0-2.8,0,1,1,0,0,1-1.9,0A2,2,0,0,0,70,18.4ZM55,4.1V3.3a11.3,11.3,0,0,1-3.9-1.5,79.5,79.5,0,0,0,14.1-.1c5.7-.4,10.7-0.7,13.3,1s4.3,5.2,4.2,7.1a7.6,7.6,0,0,1-3.4,6.1H69.7c-0.9.1-2.2-.5-3.9-1.3C62,12.7,55.5,9.7,43.3,9.2c-7.4-.3-13.9-3-17.6-4.6C41.5,6.5,52,4.7,55,4.1Z"/></svg>