<svg xmlns="http://www.w3.org/2000/svg" viewBox="0 0 319.49 103.9"><title>logowhite</title><path d="M45.69,31.93,32.77,79.85a13,13,0,0,1-1,2.91,3.23,3.23,0,0,1-1.17,1.18,5.14,5.14,0,0,1-2.27.39v8.5H47.08v-8.5a12,12,0,0,1-2.8-.18,2,2,0,0,1-1.12-.82,2.39,2.39,0,0,1-.35-1.26,14,14,0,0,1,.48-2.56l3.44-12.66H55V79.52c0,.88.2,2.87-1,3.82a2.54,2.54,0,0,1-1.55.9l-2.12.09v8.5H68.88l-2.06-60.9ZM54.94,58H49L53.29,41.9h1.65Z" fill="#fff"/><polygon points="67.82 31.93 69.89 92.83 70.98 92.83 72.34 92.83 73.31 92.83 75.37 31.93 74.81 31.93 72.44 31.93 67.82 31.93" fill="#fff"/><path d="M74.31,92.83h19v-8.5H91.53a4.8,4.8,0,0,1-2.32-.39c-.41-.26-.48-.79-.88-1.19s-.27-1.57-.27-3.1V67h2.29a6.36,6.36,0,0,1,3.39.74,8,8,0,0,1,1.4,1.51h4.91V55.76H94.61a3.31,3.31,0,0,1-.83,1.59,7.65,7.65,0,0,1-3.36.66H88.06V41.94h11a22.35,22.35,0,0,1,4.56.31,5.69,5.69,0,0,1,4.28,4l5.37,0V31.93H76.37Z" fill="#fff"/><path d="M32.09,11.38l1.43,4.45L35,11.39l4.68,0L36.41,9a43.2,43.2,0,0,1-5.47-1.24l.27.84-3.8,2.73Z" fill="#fff"/><path d="M68.25,18.58c.3.52.51.84.87.84s.55-.32.85-.84.69-1.2,1.48-1.2,1.17.67,1.47,1.2.5.84.85.84.55-.32.85-.84.68-1.2,1.47-1.2a1.66,1.66,0,0,1,.33,0V15.49H66.79v1.89C67.57,17.39,68,18.05,68.25,18.58Z" fill="#fff"/><rect x="68.93" y="94.74" width="5.31" height="5.31" rx="2.21" ry="2.21" fill="#fff"/><polygon points="19.1 91.66 16.15 95.29 11.79 93.61 14.33 97.54 11.38 101.17 15.9 99.96 18.44 103.89 18.69 99.22 23.21 98.02 18.85 96.34 19.1 91.66" fill="#fff"/><polygon points="11.18 79.38 12.81 74.99 8.91 77.58 5.24 74.68 6.5 79.18 2.61 81.78 7.29 81.97 8.55 86.47 10.17 82.09 14.85 82.28 11.18 79.38" fill="#fff"/><polygon points="4.16 65.37 7.08 61.72 11.46 63.37 8.89 59.46 11.82 55.81 7.3 57.04 4.74 53.13 4.52 57.81 0 59.04 4.38 60.69 4.16 65.37" fill="#fff"/><polygon points="128.21 40.23 126.97 44.75 130.62 41.82 134.53 44.4 132.88 40.01 136.53 37.09 131.86 37.31 130.21 32.93 128.97 37.44 124.3 37.66 128.21 40.23" fill="#fff"/><polygon points="6.54 44.4 10.44 41.82 14.1 44.74 12.85 40.23 16.76 37.66 12.08 37.44 10.84 32.94 9.2 37.31 4.52 37.1 8.18 40.02 6.54 44.4" fill="#fff"/><polygon points="22.3 16.26 19.42 19.95 15.03 18.34 17.64 22.23 14.75 25.91 19.25 24.62 21.87 28.5 22.03 23.83 26.53 22.54 22.14 20.94 22.3 16.26" fill="#fff"/><polygon points="129.27 93.61 124.9 95.3 121.95 91.67 122.2 96.34 117.84 98.03 122.36 99.23 122.61 103.9 125.15 99.97 129.68 101.17 126.72 97.54 129.27 93.61" fill="#fff"/><polygon points="135.8 74.69 132.13 77.59 128.24 75 129.86 79.39 126.19 82.29 130.87 82.1 132.49 86.49 133.75 81.98 138.43 81.79 134.53 79.19 135.8 74.69" fill="#fff"/><polygon points="136.33 53.17 133.75 57.07 129.24 55.82 132.16 59.48 129.57 63.39 133.96 61.75 136.87 65.41 136.66 60.73 141.05 59.09 136.54 57.84 136.33 53.17" fill="#fff"/><polygon points="119 23.82 119.17 28.49 121.78 24.61 126.28 25.89 123.39 22.21 126 18.32 121.61 19.93 118.72 16.25 118.89 20.93 114.5 22.54 119 23.82" fill="#fff"/><polygon points="111.27 4.16 107.51 6.94 103.7 4.22 105.18 8.66 101.42 11.44 106.1 11.4 107.58 15.84 108.99 11.38 113.67 11.34 109.86 8.62 111.27 4.16" fill="#fff"/><path d="M78.47,20.15c-1.19,0-1.19-2-2.38-2s-1.16,2-2.32,2-1.16-2-2.32-2-1.17,2-2.33,2-1.18-2-2.35-2-1.16,2-2.33,2-1.18-2-2.36-2-.89,2-2.07,2-1.45-2-2.61-2-.43,2-1.61,2-1.32-2-2.5-2,0,2-1.12,2-.66-2-1.82-2v2.46H92.82V18.1c-1.18,0-1,2-2.2,2s0-2-1.21-2-1.31,2-2.48,2-.43-2-1.59-2-1,2-2.21,2-1.18-2-2.35-2S79.63,20.15,78.47,20.15Z" fill="#fff"/><polygon points="92.82 21.28 50.36 21.28 50.35 21.28 50.35 22.04 92.82 22.04 92.82 21.28" fill="#fff"/><rect x="55.61" y="22.76" width="31.96" height="2" fill="#fff"/><rect x="66.78" y="28.24" width="9.63" height="1.9" fill="#fff"/><path d="M83.24,26.15v-.67H59.94v.67s1.25.93,6.14,1.36h11C82,27.08,83.24,26.15,83.24,26.15Z" fill="#fff"/><path d="M67,15h9.49c3.34-1.83,6.4-9-.69-13.61C70.8-1.89,58.42,2,47.14.24a12.16,12.16,0,0,0,5.24,2.42C46.64,3.9,35.25,5,20.64,2.86c1.21-.07,9.81,5.25,20.29,5.61C58.56,9.07,63.86,15.25,67,15Z" fill="#fff"/><path d="M159.05,51.83a7.76,7.76,0,0,1-1.92-.39c-.31-.15-.46-.49-.46-1a2.42,2.42,0,0,1,.17-.89,5.22,5.22,0,0,1,.39-.86l2.15-3.87h8c.21,1.62.33,2.55.36,2.77.13,1.08.2,1.76.2,2.05a1.82,1.82,0,0,1-.66,1.67,5.66,5.66,0,0,1-2.25.53v.91h11.21v-.91A3.84,3.84,0,0,1,174,51.2a5.63,5.63,0,0,1-.86-2.69l-3.54-21.8h-1L154.91,49.13a7.2,7.2,0,0,1-1.6,2,5.2,5.2,0,0,1-1.52.69v.91h7.26ZM165.73,34l1.37,9.29h-6.84Z" fill="#fff"/><path d="M180.78,40.54l-3.24,12.2H182c.55-2,1-3.54,1.33-4.59a34.76,34.76,0,0,1,1.39-4.06,20.83,20.83,0,0,1,2.53-4.43c.88-1.14,1.59-1.7,2.13-1.7a.81.81,0,0,1,.47.14q.21.13.21.66a2.84,2.84,0,0,1-.09.69c-.06.24-.14.5-.24.79l-3.27,12.5h4.44q1.77-5.72,2.22-6.82a13.58,13.58,0,0,1,.89-1.86A23.58,23.58,0,0,1,197,40c1.21-1.33,2.3-2,3.26-2a1,1,0,0,1,.79.32,1.37,1.37,0,0,1,.23.8,2.19,2.19,0,0,1,0,.36q0,.2-.06.36l-1.52,5.83c-.34.94-.61,1.78-.82,2.51a11.49,11.49,0,0,0-.48,2.77,1.89,1.89,0,0,0,.81,1.72,3.25,3.25,0,0,0,1.75.52,4.88,4.88,0,0,0,3.51-1.73,19.88,19.88,0,0,0,2.33-3.3l-.81-.54a18.87,18.87,0,0,1-1.11,1.68c-.63.83-1.11,1.24-1.46,1.24a.89.89,0,0,1-.39-.11.37.37,0,0,1-.21-.33,2.64,2.64,0,0,1,.19-.77c.13-.36.26-.71.41-1l2-6.05c.23-.84.35-1.32.38-1.46a10.63,10.63,0,0,0,.34-2.33,3.26,3.26,0,0,0-.82-2.38,3.43,3.43,0,0,0-2.54-.84,7.57,7.57,0,0,0-4.93,2,29.2,29.2,0,0,0-3.74,4.2c.2-.66.36-1.21.48-1.66a7.81,7.81,0,0,0,.32-2.07,2.41,2.41,0,0,0-.68-1.82,2.39,2.39,0,0,0-1.72-.66,5.85,5.85,0,0,0-4.22,2.09,36.81,36.81,0,0,0-3.65,5.06l-.13-.09,2.23-7.06c-1.61.32-2.77.54-3.48.64-1.09.16-2.42.29-4,.39v1a6.67,6.67,0,0,1,1.64.22c.25.1.37.35.37.76a4.14,4.14,0,0,1-.09.84C181.1,39.32,181,39.82,180.78,40.54Z" fill="#fff"/><path d="M222.38,37.94a14.11,14.11,0,0,1-4.81.67l2.18-8.46a2.42,2.42,0,0,1,.74-1.39,3.08,3.08,0,0,1,1.71-.34q4.22,0,5.63,2a7.13,7.13,0,0,1,.85,3.89l1,.16,1.57-7.24H211.58v1a7.92,7.92,0,0,1,2.19.39c.33.16.5.55.5,1.15a6.5,6.5,0,0,1-.16,1.25c-.06.26-.13.56-.22.91L209.35,49a3.81,3.81,0,0,1-1,2,3.77,3.77,0,0,1-2,.69v1H217.3v-1a4.67,4.67,0,0,1-1.74-.24,1.49,1.49,0,0,1-.92-1.51,2,2,0,0,1,0-.41c0-.13,0-.28.09-.44l2.43-9.31c2.1,0,3.47.27,4.11.82a3.36,3.36,0,0,1,1,2.7c0,.14,0,.36,0,.63s-.05.59-.1,1l1,.18,2.74-10.42-1-.13C224,36.45,223.13,37.57,222.38,37.94Z" fill="#fff"/><path d="M236,49.42c-.56.66-1,1-1.39,1a.7.7,0,0,1-.4-.12c-.12-.08-.18-.26-.18-.53A11,11,0,0,1,234.3,48c.09-.36.25-1,.49-1.93l2.87-10.86-1.58.32c-.55.11-1.48.24-2.8.4s-2.33.26-3,.31v1a6.28,6.28,0,0,1,1.71.24c.31.13.47.44.47.95a1.41,1.41,0,0,1,0,.28l-.06.3-2.28,8.56c-.17.64-.29,1.15-.38,1.53a8.1,8.1,0,0,0-.21,1.47,2.39,2.39,0,0,0,.8,2,2.89,2.89,0,0,0,1.82.64,4.71,4.71,0,0,0,3.36-1.57,26,26,0,0,0,2.77-3.68l-.81-.54A14.6,14.6,0,0,1,236,49.42Z" fill="#fff"/><path d="M238.39,27.42a2.33,2.33,0,0,0-1.75-.75,2.37,2.37,0,0,0-1.76.75,2.48,2.48,0,0,0-.73,1.8,2.5,2.5,0,0,0,.73,1.82,2.37,2.37,0,0,0,1.76.75,2.33,2.33,0,0,0,1.75-.75,2.54,2.54,0,0,0,.72-1.82A2.51,2.51,0,0,0,238.39,27.42Z" fill="#fff"/><path d="M244.55,49c.53-1.74,1-3.08,1.33-4a28.34,28.34,0,0,1,1.92-4c.75-1.31,1.37-2,1.84-2a.42.42,0,0,1,.26.07,1.14,1.14,0,0,1,.19.19l.34.45a1.77,1.77,0,0,0,.66.56,2,2,0,0,0,.84.18,1.78,1.78,0,0,0,1.58-.87,3.56,3.56,0,0,0,.57-2,2.85,2.85,0,0,0-.51-1.65,1.82,1.82,0,0,0-1.6-.75c-1,0-2.11.77-3.23,2.31A34.49,34.49,0,0,0,246.2,42l-.17,0,2.06-6.76c-1.69.32-2.88.54-3.58.64q-1.63.24-4,.39v1a4,4,0,0,1,1.55.21c.3.13.45.44.45.91a33.22,33.22,0,0,1-1.12,5q-1,3.91-2.49,9.38h4.46C243.62,52,244,50.73,244.55,49Z" fill="#fff"/><path d="M258.54,52.09a3.16,3.16,0,0,1-2.2-1.14A6.45,6.45,0,0,1,255,47l-1-.07-.83,6.35h1a1.86,1.86,0,0,1,.38-.6.87.87,0,0,1,.68-.26,5.93,5.93,0,0,1,1.35.43,5.86,5.86,0,0,0,6-1,4.68,4.68,0,0,0,1.61-3.71,5.66,5.66,0,0,0-.47-2.2,8.84,8.84,0,0,0-1.07-1.89l-1.82-2.38a17.41,17.41,0,0,1-1.36-2,2.64,2.64,0,0,1-.36-1.31,2.19,2.19,0,0,1,.49-1.39,1.75,1.75,0,0,1,1.51-.64,2.71,2.71,0,0,1,2,1.06,6.77,6.77,0,0,1,1.28,3.49l1,.09.83-5.83h-1.06a1.9,1.9,0,0,1-.4.6.94.94,0,0,1-.65.2,5,5,0,0,1-1.42-.43,5.7,5.7,0,0,0-2.06-.42,5.09,5.09,0,0,0-3.76,1.37,4.44,4.44,0,0,0-1.39,3.27,6.22,6.22,0,0,0,.63,2.68,9.28,9.28,0,0,0,1.54,2.35l1.37,1.76a13.12,13.12,0,0,1,1.16,1.77,3.55,3.55,0,0,1,.5,1.67,2.09,2.09,0,0,1-.56,1.45A1.92,1.92,0,0,1,258.54,52.09Z" fill="#fff"/><path d="M269.85,53.15a5,5,0,0,0,3.56-1.68,23.34,23.34,0,0,0,2.64-3.57l-.81-.54a13.16,13.16,0,0,1-1.51,2.12c-.55.62-1,.93-1.34.93a.85.85,0,0,1-.36-.11.5.5,0,0,1-.2-.47,10.22,10.22,0,0,1,.3-1.84c.12-.52.29-1.17.5-2L275,37.19h3.09V35.63h-2.66l1.47-5.53h-1.34a13.26,13.26,0,0,1-3.71,4.11,15.3,15.3,0,0,1-3.09,1.68v1.3h1.88l-2.75,10.35q-.36,1.35-.48,2a5.71,5.71,0,0,0-.12,1,2.52,2.52,0,0,0,.73,1.87A2.43,2.43,0,0,0,269.85,53.15Z" fill="#fff"/><path d="M156,70.19l2.63-9.51a2.45,2.45,0,0,1,.59-1.22,2.62,2.62,0,0,1,1.17-.37v-.34h-5.32v.34a3,3,0,0,1,1.18.25.74.74,0,0,1,.34.71,2.59,2.59,0,0,1-.05.47c0,.15-.1.43-.2.81l-2.64,9.51a2.43,2.43,0,0,1-.72,1.32,2.28,2.28,0,0,1-1,.27v.34h5.27v-.34a2.87,2.87,0,0,1-1.09-.21.72.72,0,0,1-.38-.71,3,3,0,0,1,.06-.49C155.84,70.8,155.91,70.53,156,70.19Z" fill="#fff"/><path d="M167.56,71.64a.94.94,0,0,1-.6.31.25.25,0,0,1-.23-.12.57.57,0,0,1-.08-.28,1.39,1.39,0,0,1,.06-.32c0-.16.06-.28.09-.39l1.38-5c.06-.21.1-.4.14-.58a3.38,3.38,0,0,0,.05-.53,1.29,1.29,0,0,0-.64-1.25,1.73,1.73,0,0,0-.81-.18A4.1,4.1,0,0,0,164.2,65,24.86,24.86,0,0,0,162,67.88l1.39-4.51a.19.19,0,0,0-.08-.1l-1.87.41-.62.13-1,.16v.34l.26,0,.25,0a1,1,0,0,1,.68.17.69.69,0,0,1,.17.48,1.53,1.53,0,0,1,0,.38c0,.12-.11.45-.26,1l-1.8,6.48h1.61c.46-1.52.79-2.57,1-3.15a10,10,0,0,1,.87-1.77,18.57,18.57,0,0,1,1.44-2c.81-.95,1.48-1.42,2-1.42a.47.47,0,0,1,.43.18.78.78,0,0,1,.12.44c0,.07,0,.2,0,.38s-.07.41-.14.69l-1.34,5.1a2.53,2.53,0,0,0-.07.34,2.64,2.64,0,0,0,0,.38,1,1,0,0,0,.33.86A1.1,1.1,0,0,0,166,73a2.4,2.4,0,0,0,1.62-.83A13.77,13.77,0,0,0,169,70.54l-.31-.27A12.27,12.27,0,0,1,167.56,71.64Z" fill="#fff"/><path d="M176.54,63.56a.63.63,0,0,1-.39.1,3.84,3.84,0,0,1-.9-.19,4.28,4.28,0,0,0-1.18-.2,2.44,2.44,0,0,0-1.86.7,2.28,2.28,0,0,0-.66,1.61,2.55,2.55,0,0,0,.31,1.2,17.54,17.54,0,0,0,1,1.57l.87,1.3a2,2,0,0,1,.39,1.29,1.64,1.64,0,0,1-.43,1.19,1.44,1.44,0,0,1-1.08.45,1.85,1.85,0,0,1-1.72-1.08,6.9,6.9,0,0,1-.55-1.85H170l-.42,3.43h.34a.8.8,0,0,1,.19-.28.4.4,0,0,1,.31-.1,8.06,8.06,0,0,1,.92.18,6,6,0,0,0,1.23.18,3.56,3.56,0,0,0,2.3-.78,2.37,2.37,0,0,0,1-1.91,2.66,2.66,0,0,0-.24-1.13,8.82,8.82,0,0,0-.82-1.36L174,66.81a11.42,11.42,0,0,1-.74-1.15,1.67,1.67,0,0,1-.16-.76,1,1,0,0,1,.36-.84,1.23,1.23,0,0,1,.82-.29,1.68,1.68,0,0,1,1.6.95,4.79,4.79,0,0,1,.41,1.53h.34l.43-3h-.3A1.18,1.18,0,0,1,176.54,63.56Z" fill="#fff"/><path d="M186.5,71c-.2.25-.34.41-.41.49a3.68,3.68,0,0,1-.42.37.53.53,0,0,1-.31.12.23.23,0,0,1-.22-.1.41.41,0,0,1-.06-.23,1.24,1.24,0,0,1,0-.3c0-.11.06-.24.09-.38l2.06-7.46h-1.58c-.42,1.18-.75,2-1,2.58a16.77,16.77,0,0,1-1.21,2.36,19.2,19.2,0,0,1-1.67,2.3c-.63.73-1.15,1.1-1.57,1.1a.49.49,0,0,1-.36-.14.51.51,0,0,1-.14-.38,1.26,1.26,0,0,1,0-.21c0-.09.06-.23.11-.41l2-7.09,0-.17a.16.16,0,0,0,0-.13s-.06-.06-.1,0l-1.69.32-1.56.3v.29a3.19,3.19,0,0,1,1,.11c.17.06.26.25.26.55a1.09,1.09,0,0,1,0,.18c0,.06,0,.12,0,.19l-1.63,5.9c0,.16-.06.29-.08.38a3.21,3.21,0,0,0,0,.36,1.1,1.1,0,0,0,.55,1,1.37,1.37,0,0,0,.64.15A3.89,3.89,0,0,0,182,71.28a31,31,0,0,0,2.3-3.47h.08l-.28,1c-.2.74-.37,1.35-.5,1.84a7.07,7.07,0,0,0-.16.73,3.38,3.38,0,0,0-.06.6,1,1,0,0,0,.3.78,1.09,1.09,0,0,0,.75.26,2.79,2.79,0,0,0,1.91-1.16,8.62,8.62,0,0,0,1-1.38l-.3-.2Z" fill="#fff"/><path d="M196.13,64.32a1.11,1.11,0,0,0-.27-.74.92.92,0,0,0-.76-.33,2.69,2.69,0,0,0-1.92,1.23,14,14,0,0,0-1.77,2.7l-.25.48,1.07-4.09a.63.63,0,0,0,0-.16.28.28,0,0,0,0-.13.15.15,0,0,0-.13-.06s-.38.06-1,.19-1.24.24-1.79.36l-.42.08v.35l.45-.06.32,0a.71.71,0,0,1,.54.17.65.65,0,0,1,.16.48,3.6,3.6,0,0,1-.09.71c-.06.28-.14.61-.24,1l-1.75,6.32h1.62c.31-1,.57-1.82.76-2.38a22,22,0,0,1,.82-2.14,16,16,0,0,1,1.38-2.48c.51-.76.91-1.14,1.18-1.14a.26.26,0,0,1,.14,0,.32.32,0,0,1,.1.1l.13.23a.93.93,0,0,0,.26.3.84.84,0,0,0,.49.12.94.94,0,0,0,.74-.3A1.17,1.17,0,0,0,196.13,64.32Z" fill="#fff"/><path d="M204.47,71.06l-.26.25-.2.17-.19.15a2.33,2.33,0,0,1-.28.19.48.48,0,0,1-.21.06.29.29,0,0,1-.2-.07.25.25,0,0,1-.07-.21,17.15,17.15,0,0,1,.38-1.84c.16-.6.35-1.3.58-2.12l1-3.76c0-.1.05-.17.07-.22a1.5,1.5,0,0,1,.06-.22.2.2,0,0,0,0-.13s0,0-.11,0l-1.21.14q-.12,0-.15.06a.81.81,0,0,0-.08.18l-.23.79-.06-.15a1.51,1.51,0,0,0-.38-.61,1.82,1.82,0,0,0-1.29-.43c-1.47,0-2.9.83-4.27,2.49a7.32,7.32,0,0,0-2,4.61,2.71,2.71,0,0,0,.69,2,2.14,2.14,0,0,0,1.54.7,3.44,3.44,0,0,0,1.05-.19,5.06,5.06,0,0,0,1.46-1,7.44,7.44,0,0,0,1.1-1.17,9.77,9.77,0,0,0,.63-.92c-.09.32-.18.72-.27,1.19a5.63,5.63,0,0,0-.15,1.08,1.09,1.09,0,0,0,.22.68.74.74,0,0,0,.61.28,2.24,2.24,0,0,0,1.3-.5,11.78,11.78,0,0,0,1.8-1.9l-.25-.22Zm-2.89-1.67c-1,1.7-2,2.56-3.05,2.56a1.19,1.19,0,0,1-.9-.39,1.73,1.73,0,0,1-.36-1.22,8.46,8.46,0,0,1,1.31-4c1-1.75,2.06-2.63,3.21-2.63a1.13,1.13,0,0,1,.85.36A1.52,1.52,0,0,1,203,65.2,8.29,8.29,0,0,1,201.58,69.39Z" fill="#fff"/><path d="M214.55,71.64a1,1,0,0,1-.61.31.26.26,0,0,1-.23-.12.55.55,0,0,1-.07-.28,1.24,1.24,0,0,1,.05-.32c0-.16.06-.28.09-.39l1.38-5a5.36,5.36,0,0,0,.14-.58,2.49,2.49,0,0,0,0-.53,1.29,1.29,0,0,0-.64-1.25,1.69,1.69,0,0,0-.8-.18A4.1,4.1,0,0,0,211.18,65,24.86,24.86,0,0,0,209,67.88l1.39-4.51a.19.19,0,0,0-.08-.1l-1.87.41-.62.13-1,.16v.34l.27,0,.24,0a1,1,0,0,1,.68.17.64.64,0,0,1,.17.48,2.25,2.25,0,0,1,0,.38l-.27,1-1.8,6.48h1.61c.46-1.52.8-2.57,1-3.15a10.61,10.61,0,0,1,.86-1.77,17.29,17.29,0,0,1,1.45-2c.8-.95,1.47-1.42,2-1.42a.49.49,0,0,1,.43.18.78.78,0,0,1,.12.44c0,.07,0,.2,0,.38a5.61,5.61,0,0,1-.14.69l-1.34,5.1a2.53,2.53,0,0,0-.07.34,2.64,2.64,0,0,0,0,.38,1,1,0,0,0,.33.86A1.12,1.12,0,0,0,213,73a2.4,2.4,0,0,0,1.62-.83A12.84,12.84,0,0,0,216,70.54l-.31-.27A12.55,12.55,0,0,1,214.55,71.64Z" fill="#fff"/><path d="M223,63.29a5.71,5.71,0,0,0-4.15,2,6.18,6.18,0,0,0-1.94,4.39,3.38,3.38,0,0,0,.87,2.45A3,3,0,0,0,220,73a4.47,4.47,0,0,0,2.68-.87,7.76,7.76,0,0,0,1.42-1.44l-.31-.23-.07.08a6.24,6.24,0,0,1-1.4,1.19,3,3,0,0,1-1.57.47,1.78,1.78,0,0,1-1.51-.67,3,3,0,0,1-.51-1.86,7.32,7.32,0,0,1,1.25-4,3.53,3.53,0,0,1,2.93-1.92,1.33,1.33,0,0,1,.69.13.38.38,0,0,1,.22.32,1.23,1.23,0,0,1-.18.41,1.27,1.27,0,0,0-.17.58.79.79,0,0,0,.26.6.93.93,0,0,0,.65.24,1,1,0,0,0,.7-.27,1,1,0,0,0,.29-.76,1.64,1.64,0,0,0-.57-1.12A2.53,2.53,0,0,0,223,63.29Z" fill="#fff"/><path d="M228,68.76l.6-.07a9.38,9.38,0,0,0,3.72-1.31,3.07,3.07,0,0,0,1.77-2.59,1.34,1.34,0,0,0-.48-1.12,2.07,2.07,0,0,0-1.3-.38,6,6,0,0,0-4.3,2.19,6.49,6.49,0,0,0-2.1,4.51,2.93,2.93,0,0,0,.84,2.25,2.79,2.79,0,0,0,1.95.79,5.35,5.35,0,0,0,3.14-1.13,6.72,6.72,0,0,0,1.36-1.23l-.27-.24a15.62,15.62,0,0,1-1.46,1.1,3.4,3.4,0,0,1-1.67.52,2.13,2.13,0,0,1-1.44-.52,1.78,1.78,0,0,1-.6-1.43,3.82,3.82,0,0,1,.05-.65C227.85,69.28,227.91,69.05,228,68.76Zm.53-1.42a9.91,9.91,0,0,1,.88-1.65,7.77,7.77,0,0,1,1.18-1.31,2,2,0,0,1,1.34-.58.67.67,0,0,1,.55.23,1,1,0,0,1,.19.64,3.07,3.07,0,0,1-1.26,2.21,6,6,0,0,1-3.26,1.41C228.28,67.94,228.41,67.62,228.53,67.34Z" fill="#fff"/><path d="M253.57,58.5a1,1,0,0,1-.26.35.87.87,0,0,1-.55.13,9,9,0,0,1-1.32-.25,8.92,8.92,0,0,0-2-.25,8.18,8.18,0,0,0-6.4,3,8.93,8.93,0,0,0-2.4,6,6,6,0,0,0,1.43,4,5.1,5.1,0,0,0,4.13,1.7,6.43,6.43,0,0,0,3.27-.85A9.33,9.33,0,0,0,252.1,70l-.34-.3a13.55,13.55,0,0,1-2.11,1.73,5.89,5.89,0,0,1-3,.8,3.3,3.3,0,0,1-2.59-1.14,4.9,4.9,0,0,1-1-3.35,9.93,9.93,0,0,1,1.66-5.53,5.62,5.62,0,0,1,4.84-2.94,2.91,2.91,0,0,1,2.74,1.44,5,5,0,0,1,.57,2l.38.05L254,58.5Z" fill="#fff"/><path d="M260.08,63.25a5.87,5.87,0,0,0-4.32,2.15,6.43,6.43,0,0,0-1.95,4.4,3.1,3.1,0,0,0,.87,2.36A3.17,3.17,0,0,0,257,73a5.87,5.87,0,0,0,4.33-2.23,6.46,6.46,0,0,0,2-4.37,3.56,3.56,0,0,0-.72-2.22A3,3,0,0,0,260.08,63.25Zm.29,6.7q-1.32,2.58-3,2.58a1.51,1.51,0,0,1-1.28-.57,2.3,2.3,0,0,1-.43-1.44A8.67,8.67,0,0,1,257,66.1c.94-1.61,1.94-2.41,3-2.41a1.36,1.36,0,0,1,1.35.92,3.65,3.65,0,0,1,.19,1.27A9.14,9.14,0,0,1,260.37,70Z" fill="#fff"/><path d="M278.74,70.66l.11-.15-.33-.25-.75.92c-.09.1-.2.23-.34.36a2.75,2.75,0,0,1-.36.32.63.63,0,0,1-.33.09.27.27,0,0,1-.28-.14.35.35,0,0,1,0-.28l1.65-5.72a6.66,6.66,0,0,0,.2-1.12,1.29,1.29,0,0,0-.41-1.08,1.35,1.35,0,0,0-.9-.34c-.78,0-1.68.57-2.7,1.69a23.19,23.19,0,0,0-2,2.72c.3-.94.51-1.62.62-2.05a3.86,3.86,0,0,0,.18-1,1.28,1.28,0,0,0-.51-1.14,1.31,1.31,0,0,0-.76-.23,3.92,3.92,0,0,0-2.55,1.52A27.35,27.35,0,0,0,267,67.64l1.19-4.29-.09-.08c-1.57.35-2.71.58-3.41.7v.34a3.84,3.84,0,0,1,1.09.06c.19,0,.28.22.28.49a1.64,1.64,0,0,1,0,.23,2.25,2.25,0,0,1-.05.22l-2,7.46h1.62c.36-1.18.66-2.09.88-2.72a12.65,12.65,0,0,1,1.19-2.49,18.18,18.18,0,0,1,1.63-2.06c.66-.74,1.22-1.1,1.67-1.1a.44.44,0,0,1,.37.14.62.62,0,0,1,.11.39,1.15,1.15,0,0,1,0,.19c0,.06,0,.12,0,.18l-2.1,7.47h1.63c.46-1.69.78-2.79,1-3.29a12.13,12.13,0,0,1,.9-1.87,17.84,17.84,0,0,1,1.67-2.15,2.52,2.52,0,0,1,1.67-1.06.45.45,0,0,1,.34.13.53.53,0,0,1,.13.39.5.5,0,0,1,0,.17c0,.06,0,.13,0,.21l-1.63,5.89a3.53,3.53,0,0,0-.08.4,2,2,0,0,0,0,.33,1.08,1.08,0,0,0,.36.92.94.94,0,0,0,.57.17,2.42,2.42,0,0,0,1.51-.64A8.43,8.43,0,0,0,278.74,70.66Z" fill="#fff"/><path d="M286.6,63.27a3.34,3.34,0,0,0-2.17.89,8.42,8.42,0,0,0-1.26,1.41l.58-1.94c0-.06,0-.16.08-.28s-.06-.09-.1-.09l-3.4.5,0,.34.2,0h.2a1.39,1.39,0,0,1,.75.17.59.59,0,0,1,.26.52,1.58,1.58,0,0,1,0,.26c0,.11-.06.3-.13.55l-2.9,10.25a1.41,1.41,0,0,1-.47.8,1.59,1.59,0,0,1-1,.24v.34h4.47v-.31a3.69,3.69,0,0,1-1.08-.16c-.18-.07-.27-.26-.27-.54a13.4,13.4,0,0,1,.27-1.37c.07-.31.2-.82.38-1.54l.17-.64a5.22,5.22,0,0,0,.74.3,2.63,2.63,0,0,0,.74.09A5.87,5.87,0,0,0,287,70.81a6.88,6.88,0,0,0,2.08-4.7,3,3,0,0,0-.66-2.14A2.34,2.34,0,0,0,286.6,63.27Zm-.73,6.94c-.93,1.56-2,2.34-3.22,2.34a1.52,1.52,0,0,1-.79-.19.62.62,0,0,1-.32-.59,10.87,10.87,0,0,1,.4-1.68c.26-1,.55-1.87.86-2.75a5.31,5.31,0,0,1,1.42-2.4,2.56,2.56,0,0,1,1.58-.72A1.14,1.14,0,0,1,287,65a3.18,3.18,0,0,1,.16,1.09A8,8,0,0,1,285.87,70.21Z" fill="#fff"/><path d="M298.78,71.06l-.27.25-.19.17-.19.15-.28.19a.48.48,0,0,1-.21.06.27.27,0,0,1-.2-.07.26.26,0,0,1-.08-.21,15.88,15.88,0,0,1,.39-1.84c.16-.6.35-1.3.58-2.12l1-3.76c0-.1.05-.17.06-.22l.07-.22a.2.2,0,0,0,0-.13s-.05,0-.12,0l-1.21.14c-.07,0-.12,0-.14.06a.51.51,0,0,0-.08.18l-.24.79-.05-.15a1.63,1.63,0,0,0-.38-.61,1.85,1.85,0,0,0-1.3-.43q-2.21,0-4.26,2.49a7.34,7.34,0,0,0-2,4.61,2.67,2.67,0,0,0,.7,2A2.14,2.14,0,0,0,292,73a3.32,3.32,0,0,0,1-.19,5.09,5.09,0,0,0,1.47-1,7.44,7.44,0,0,0,1.1-1.17c.29-.4.51-.71.63-.92-.09.32-.18.72-.28,1.19a6.33,6.33,0,0,0-.14,1.08,1,1,0,0,0,.22.68.74.74,0,0,0,.61.28,2.27,2.27,0,0,0,1.3-.5,11.78,11.78,0,0,0,1.8-1.9l-.25-.22Zm-2.89-1.67c-1,1.7-2,2.56-3.05,2.56a1.17,1.17,0,0,1-.9-.39,1.73,1.73,0,0,1-.36-1.22,8.46,8.46,0,0,1,1.31-4c1-1.75,2.06-2.63,3.21-2.63a1.14,1.14,0,0,1,.85.36,1.57,1.57,0,0,1,.35,1.12A8.29,8.29,0,0,1,295.89,69.39Z" fill="#fff"/><path d="M310,70.27a12.27,12.27,0,0,1-1.12,1.37.92.92,0,0,1-.6.31.24.24,0,0,1-.23-.12.57.57,0,0,1-.08-.28,2,2,0,0,1,.05-.32l.1-.39,1.38-5c.06-.21.1-.4.14-.58a3.38,3.38,0,0,0,.05-.53,1.29,1.29,0,0,0-.64-1.25,1.73,1.73,0,0,0-.81-.18A4.1,4.1,0,0,0,305.49,65a24.86,24.86,0,0,0-2.16,2.92l1.39-4.51a.19.19,0,0,0-.08-.1l-1.87.41-.62.13-1,.16v.34l.26,0,.25,0a1,1,0,0,1,.68.17.69.69,0,0,1,.17.48,1.53,1.53,0,0,1,0,.38c0,.12-.11.45-.26,1l-1.8,6.48h1.61c.46-1.52.79-2.57,1-3.15a10,10,0,0,1,.87-1.77,18.57,18.57,0,0,1,1.44-2c.81-.95,1.48-1.42,2-1.42a.47.47,0,0,1,.43.18.78.78,0,0,1,.12.44c0,.07,0,.2,0,.38s-.07.41-.14.69l-1.34,5.1a1.57,1.57,0,0,0-.07.34,2.64,2.64,0,0,0,0,.38,1,1,0,0,0,.33.86,1.1,1.1,0,0,0,.67.24,2.4,2.4,0,0,0,1.62-.83,13.77,13.77,0,0,0,1.34-1.64Z" fill="#fff"/><path d="M319.17,63.55a1.17,1.17,0,0,0-.85-.31.86.86,0,0,0-.63.22.78.78,0,0,0-.22.55.86.86,0,0,0,.23.62,1.53,1.53,0,0,0,.39.31l.18.1a.55.55,0,0,1,.3.3,1,1,0,0,1,.06.35,7.39,7.39,0,0,1-1,2.72c-.34.66-.88,1.61-1.62,2.84l-.42-2.5a26.74,26.74,0,0,0-.84-3.14c-.49-1.59-.83-2.38-1-2.36l-.22,0-2.87.56v.35l.52-.06.22,0a1.4,1.4,0,0,1,1.25.67,10.66,10.66,0,0,1,.94,2.56c.25.89.5,1.91.76,3.06a13.42,13.42,0,0,1,.4,2.31,4,4,0,0,1-1.14,2c-.76.91-1.31,1.36-1.66,1.36a.47.47,0,0,1-.17,0,.29.29,0,0,1-.14-.08l-.15-.1a2.28,2.28,0,0,0-.42-.29,1,1,0,0,0-.46-.1.76.76,0,0,0-.61.24.86.86,0,0,0-.21.58.85.85,0,0,0,.33.71,1.16,1.16,0,0,0,.76.27c.74,0,1.66-.64,2.77-1.9a33.39,33.39,0,0,0,2.51-3.43,35.33,35.33,0,0,0,2.11-3.68,9.65,9.65,0,0,0,1.23-3.61A1.46,1.46,0,0,0,319.17,63.55Z" fill="#fff"/></svg>