<svg id="logo-division" xmlns="http://www.w3.org/2000/svg" viewBox="0 0 298.08 99.05"><defs><style>.cls-1{fill:#231f20;}.cls-2{fill:#fff;}.cls-3{fill:#9e9e9e;}</style></defs><path class="cls-1" d="M108.65,38.73h7a19,19,0,0,1,4.83.59,10.75,10.75,0,0,1,4,1.91,9.3,9.3,0,0,1,2.71,3.44,11.9,11.9,0,0,1,1,5.14,10.8,10.8,0,0,1-1,4.71,10,10,0,0,1-2.62,3.42,11.14,11.14,0,0,1-3.79,2.1,14.11,14.11,0,0,1-4.51.72h-7.62Zm4.66,17.55h2.42a12.87,12.87,0,0,0,3-.34,6.33,6.33,0,0,0,2.41-1.14,5.4,5.4,0,0,0,1.6-2.08,7.69,7.69,0,0,0,.58-3.16,6.37,6.37,0,0,0-.58-2.82,5.59,5.59,0,0,0-1.57-2,6.93,6.93,0,0,0-2.32-1.16,9.8,9.8,0,0,0-2.79-.39h-2.75Z"/><path class="cls-1" d="M131.27,38.73h4.66v22h-4.66Z"/><path class="cls-1" d="M140.17,38.73h8.19a14.43,14.43,0,0,1,3.06.32A7.19,7.19,0,0,1,154,40.14a5.4,5.4,0,0,1,1.73,2.06,7.16,7.16,0,0,1,.64,3.22,6.72,6.72,0,0,1-1.16,4,5.24,5.24,0,0,1-3.41,2.06l5.38,9.31h-5.59L147.13,52h-2.3v8.81h-4.66Zm4.66,9.11h2.75c.42,0,.86,0,1.33,0a4.15,4.15,0,0,0,1.27-.28,2.25,2.25,0,0,0,.94-.73,2.31,2.31,0,0,0,.37-1.4,2.39,2.39,0,0,0-.33-1.34,2.16,2.16,0,0,0-.83-.76,3.49,3.49,0,0,0-1.17-.36,8.06,8.06,0,0,0-1.28-.1h-3Z"/><path class="cls-1" d="M159.71,38.73h14.37v4.48h-9.71v4.11h9.17V51.8h-9.17v4.48h10.25v4.48H159.71Z"/><path class="cls-1" d="M192.18,44.45a4.75,4.75,0,0,0-1.68-1.34,6,6,0,0,0-4.75.07,5.84,5.84,0,0,0-1.95,1.47,7.23,7.23,0,0,0-1.28,2.26,9,9,0,0,0,0,5.68,7.1,7.1,0,0,0,1.27,2.24,5.79,5.79,0,0,0,1.9,1.48,5.28,5.28,0,0,0,2.34.53,4.94,4.94,0,0,0,4.36-2.37l3.89,3a8.27,8.27,0,0,1-3.41,2.9,10.2,10.2,0,0,1-4.24.93,12.5,12.5,0,0,1-4.57-.81,10.26,10.26,0,0,1-6-6,13.95,13.95,0,0,1,0-9.59,10.24,10.24,0,0,1,6-6,12.71,12.71,0,0,1,4.57-.8,10.24,10.24,0,0,1,1.87.17,9.58,9.58,0,0,1,1.91.54,8.21,8.21,0,0,1,1.8,1,7.23,7.23,0,0,1,1.56,1.52Z"/><path class="cls-1" d="M202.91,43h-6V38.73H213.6V43h-6V60.76h-4.66Z"/><path class="cls-2" d="M49.52,96.9A47.38,47.38,0,1,0,2.15,49.53,47.43,47.43,0,0,0,49.52,96.9Zm0-92.24A44.87,44.87,0,0,1,94.39,49.52c0,.54,0,1.07,0,1.61-1,0-7.63.11-10.55.11s-4.78-.11-5.23-.11c-.14,0-.22.07-.22.29v.85c0,.18.08.33.3.33H80.2c1,0,1.32.37,1.32,1.69V57c0,1.92-.07,3-.88,3.39-1.25.66-2.65.62-5,.62-3.66,0-6.29-2.3-9.31-4.75-.46-.37-.72-.19-.84,0s-.6,1.4-.72,1.71A.86.86,0,0,0,65,59c2.54,2.82,6.87,4,10.36,4a21.28,21.28,0,0,0,10.46-2.43c.37-.15.59-.3.59-.59s-.15-.66-.15-1.18V54c0-1.07.45-1.36,1.11-1.36h6.93A44.86,44.86,0,0,1,6.76,63.11c1.63,0,4-.08,5.29-.08,2.29,0,3.54.11,3.91.11.22,0,.29-.11.29-.29V62c0-.19,0-.3-.26-.3H15c-.88,0-1.25-.52-1.25-1,0-2,4.2-14.18,5.3-17.42h.15l5.3,13.16s1.21,2.88,2,2.88c1.15,0,2.89-4.06,2.89-4.06s5-11.09,5.27-11.87l.07,0,5.73,17a.89.89,0,0,1-.89,1.29h-.7c-.25,0-.33.11-.33.3v.92c0,.18.08.25.3.25l3-.06a1,1,0,0,0,.7-.31,1.16,1.16,0,0,0,.38-.5c.15-.4,6.67-14.14,7-15.17h.14l6.67,15.06c.14.44.4.81.92.81,2,0,2.63-.78,3.41-3,.41-1.16,2.81-7.93,5-13.67,2.59-6.83,6.56-8.83,10.54-8.83A8.33,8.33,0,0,1,82.71,40a14.6,14.6,0,0,1,2.94,5.08c.07.22.15.33.37.3l.88-.15c.15,0,.15-.22.15-.52l-.37-7.36c0-.3-.07-.52-.44-.52-.22,0-.33.11-.52.37l-.44.59c-.22.3-.44.41-.88.07a13.62,13.62,0,0,0-7.51-2c-6.8,0-11.68,1.45-14.83,11.26l-3,7.9-4.6-10.31s-1.92-4.59-2.76-4.59-2.8,4.28-2.8,4.28-5,10.64-5.27,11.41l-.07,0-5.73-17a.88.88,0,0,1,.88-1.29h.7c.26,0,.33-.11.33-.3v-.92c0-.18-.07-.25-.29-.25l-3.61.09c-.17,0-.43.53-.71,1.24C34,39.9,28.63,51.61,28.33,52.55h-.15L21.52,37c-.15-.44-.41-.81-.92-.81s-.81.59-1,1C18.9,39,11.39,59.65,11,60.46A1.82,1.82,0,0,1,9.4,61.67H6.34a44.85,44.85,0,0,1,43.18-57Z"/><path class="cls-2" d="M49.52,0A49.53,49.53,0,1,1,0,49.53,49.59,49.59,0,0,1,49.52,0Z"/><path class="cls-3" d="M49.52,99.05A49.53,49.53,0,1,0,0,49.53,49.59,49.59,0,0,0,49.52,99.05Zm0-96.9A47.38,47.38,0,1,1,2.15,49.53,47.43,47.43,0,0,1,49.52,2.15Z"/><path class="cls-1" d="M9.4,61.67A1.82,1.82,0,0,0,11,60.46c.37-.81,7.88-21.43,8.62-23.28.15-.36.44-1,1-1s.77.37.92.81l6.66,15.51h.15c.3-.94,5.67-12.65,6.79-15.16.28-.71.54-1.24.71-1.24l3.61-.09c.22,0,.29.07.29.25v.92c0,.19-.07.3-.33.3h-.7a.88.88,0,0,0-.88,1.29l5.73,17,.07,0c.29-.77,5.27-11.41,5.27-11.41s2-4.28,2.8-4.28,2.76,4.59,2.76,4.59l4.6,10.31,3-7.9c3.15-9.81,8-11.26,14.83-11.26a13.62,13.62,0,0,1,7.51,2c.44.34.66.23.88-.07l.44-.59c.19-.26.3-.37.52-.37.37,0,.44.22.44.52l.37,7.36c0,.3,0,.48-.15.52l-.88.15c-.22,0-.3-.08-.37-.3A14.6,14.6,0,0,0,82.71,40a8.33,8.33,0,0,0-6.12-2.58c-4,0-8,2-10.54,8.83C63.87,52,61.47,58.79,61.06,60c-.78,2.24-1.44,3-3.41,3-.52,0-.78-.37-.92-.81L50.06,47.1h-.14c-.33,1-6.85,14.77-7,15.17a1.16,1.16,0,0,1-.38.5,1,1,0,0,1-.7.31l-3,.06c-.22,0-.3-.07-.3-.25V62c0-.19.08-.3.33-.3h.7a.89.89,0,0,0,.89-1.29l-5.73-17-.07,0c-.3.78-5.27,11.87-5.27,11.87s-1.74,4.06-2.89,4.06c-.76,0-2-2.88-2-2.88L19.2,43.22h-.15c-1.1,3.24-5.3,15.39-5.3,17.42,0,.51.37,1,1.25,1h1c.23,0,.26.11.26.3v.88c0,.18-.07.29-.29.29-.37,0-1.62-.11-3.91-.11-1.3,0-3.66,0-5.29.08A44.86,44.86,0,0,0,94.27,52.6H87.34c-.66,0-1.11.29-1.11,1.36v4.86c0,.52.15.89.15,1.18s-.22.44-.59.59A21.28,21.28,0,0,1,75.33,63c-3.49,0-7.82-1.18-10.36-4A.86.86,0,0,1,64.76,58c.12-.31.61-1.51.72-1.71s.38-.38.84,0C69.34,58.69,72,61,75.63,61c2.36,0,3.76,0,5-.62.81-.44.88-1.47.88-3.39V54.29c0-1.32-.37-1.69-1.32-1.69H78.65c-.22,0-.3-.15-.3-.33v-.85c0-.22.08-.29.22-.29.45,0,2.21.11,5.23.11s9.51-.1,10.55-.11c0-.54,0-1.07,0-1.61a44.87,44.87,0,1,0-88,12.15Z"/><path class="cls-1" d="M110,81h-.85l1.5-8.49h.85Z"/><path class="cls-1" d="M113.83,75.4c0,.15,0,.32-.06.5a3.5,3.5,0,0,1-.07.46h0a2.3,2.3,0,0,1,.83-.81,2.13,2.13,0,0,1,1.09-.3,2.05,2.05,0,0,1,1.43.47,1.58,1.58,0,0,1,.51,1.25,2.83,2.83,0,0,1,0,.29c0,.09,0,.2,0,.31L116.91,81h-.81l.55-3.1a3.68,3.68,0,0,0,.08-.71,1.47,1.47,0,0,0-.28-.93,1.18,1.18,0,0,0-1-.34,1.68,1.68,0,0,0-.65.13,1.82,1.82,0,0,0-.61.41,2.65,2.65,0,0,0-.49.69,3.25,3.25,0,0,0-.32,1l-.5,2.88h-.8l.76-4.38c0-.15.07-.34.11-.58s.06-.46.07-.65Z"/><path class="cls-1" d="M122.74,76.63a1.38,1.38,0,0,0-.51-.51,1.55,1.55,0,0,0-.8-.19,2.42,2.42,0,0,0-.45,0,1.82,1.82,0,0,0-.43.16,1.12,1.12,0,0,0-.33.28.75.75,0,0,0-.12.43.7.7,0,0,0,.08.37.65.65,0,0,0,.22.25,2.25,2.25,0,0,0,.35.18l.46.15a3.36,3.36,0,0,1,1.26.6,1.29,1.29,0,0,1,.44,1,1.46,1.46,0,0,1-.21.79,1.76,1.76,0,0,1-.51.54,2.09,2.09,0,0,1-.7.3,2.89,2.89,0,0,1-.76.1,3.41,3.41,0,0,1-1.32-.26,2.07,2.07,0,0,1-1-.8l.7-.45a1.65,1.65,0,0,0,.61.59,1.84,1.84,0,0,0,1,.25,2.16,2.16,0,0,0,.51-.06,1.28,1.28,0,0,0,.45-.17A.77.77,0,0,0,122,80a.85.85,0,0,0-.23-1.12,5.07,5.07,0,0,0-1-.45c-.16,0-.33-.12-.5-.19a1.67,1.67,0,0,1-.46-.28,1.7,1.7,0,0,1-.33-.42,1.4,1.4,0,0,1-.12-.6,1.28,1.28,0,0,1,.2-.74,1.62,1.62,0,0,1,.5-.51,2.16,2.16,0,0,1,.69-.3,3.39,3.39,0,0,1,.77-.1,2.57,2.57,0,0,1,1.16.26,1.55,1.55,0,0,1,.73.67Z"/><path class="cls-1" d="M128.08,81c0-.15,0-.32.06-.5s.05-.34.07-.46h0a2.32,2.32,0,0,1-.84.81,2.1,2.1,0,0,1-1.08.3,2,2,0,0,1-1.43-.46,1.58,1.58,0,0,1-.51-1.24,2.64,2.64,0,0,1,0-.29c0-.1,0-.2,0-.32l.62-3.44h.81l-.55,3.11a3.63,3.63,0,0,0-.07.71,1.42,1.42,0,0,0,.27.92,1.22,1.22,0,0,0,1,.34,1.69,1.69,0,0,0,.65-.14,1.85,1.85,0,0,0,.6-.4,2.79,2.79,0,0,0,.5-.68,3.32,3.32,0,0,0,.31-1l.5-2.88h.81L129,79.79c0,.15-.07.35-.1.59a5.71,5.71,0,0,0-.08.63Z"/><path class="cls-1" d="M131.83,76.05c0-.24.06-.46.08-.65h.76c0,.15,0,.32-.06.5a3.5,3.5,0,0,1-.07.46h0a2.42,2.42,0,0,1,.79-.8,2,2,0,0,1,1.08-.31l.27,0a1.27,1.27,0,0,1,.26,0l-.2.77-.22,0-.33,0a1.72,1.72,0,0,0-.63.12,1.63,1.63,0,0,0-.57.38,2.21,2.21,0,0,0-.46.66,3.5,3.5,0,0,0-.29,1L131.76,81H131l.77-4.38C131.76,76.48,131.79,76.29,131.83,76.05Z"/><path class="cls-1" d="M139.05,77.57a2.74,2.74,0,0,0,0-.32,1.49,1.49,0,0,0,0-.21,1,1,0,0,0-.35-.86,1.62,1.62,0,0,0-1-.25,2.55,2.55,0,0,0-1,.19,3.24,3.24,0,0,0-.78.48l-.36-.54a3.11,3.11,0,0,1,1-.58,3.39,3.39,0,0,1,1.19-.23,3.16,3.16,0,0,1,.76.09,1.79,1.79,0,0,1,.64.29,1.43,1.43,0,0,1,.43.51,1.51,1.51,0,0,1,.16.73c0,.08,0,.17,0,.3a2,2,0,0,1,0,.3l-.4,2.28c0,.22-.08.44-.1.68s0,.42,0,.58h-.72c0-.13,0-.28,0-.44a3.55,3.55,0,0,1,.06-.47h0a4.34,4.34,0,0,1-.48.48,2.18,2.18,0,0,1-.5.31,2.37,2.37,0,0,1-.55.18,4.16,4.16,0,0,1-.64.05,2.44,2.44,0,0,1-.59-.07,1.48,1.48,0,0,1-.54-.25,1.28,1.28,0,0,1-.41-.45,1.29,1.29,0,0,1-.16-.68,1.53,1.53,0,0,1,.38-1.09,2.6,2.6,0,0,1,1-.63,5.68,5.68,0,0,1,1.39-.3C138,77.6,138.53,77.57,139.05,77.57Zm-.3.61a10.6,10.6,0,0,0-1.11.06,4.39,4.39,0,0,0-1,.2,2.06,2.06,0,0,0-.76.42.91.91,0,0,0-.29.71.93.93,0,0,0,.09.44.78.78,0,0,0,.26.28,1.09,1.09,0,0,0,.37.14,2.31,2.31,0,0,0,1.22-.1,2.23,2.23,0,0,0,.64-.4,2.15,2.15,0,0,0,.45-.58,2.17,2.17,0,0,0,.25-.7l.09-.47Z"/><path class="cls-1" d="M142.91,75.4c0,.15,0,.32-.06.5s0,.34-.07.46h0a2.41,2.41,0,0,1,.84-.81,2.11,2.11,0,0,1,1.09-.3,2,2,0,0,1,1.42.47,1.56,1.56,0,0,1,.52,1.25,2.83,2.83,0,0,1,0,.29c0,.09,0,.2,0,.31L146,81h-.81l.55-3.1a3.63,3.63,0,0,0,.07-.71,1.47,1.47,0,0,0-.27-.93,1.2,1.2,0,0,0-1-.34,1.63,1.63,0,0,0-.64.13,1.82,1.82,0,0,0-.61.41,2.67,2.67,0,0,0-.5.69,3.25,3.25,0,0,0-.31,1L142,81h-.81l.77-4.38c0-.15.07-.34.1-.58s.06-.46.08-.65Z"/><path class="cls-1" d="M152.69,76.67a1.21,1.21,0,0,0-.5-.53,1.53,1.53,0,0,0-.81-.21,2.31,2.31,0,0,0-1,.21,2.47,2.47,0,0,0-.79.6,2.85,2.85,0,0,0-.52.88,3.06,3.06,0,0,0-.18,1.06,2.09,2.09,0,0,0,.12.72,1.65,1.65,0,0,0,.35.57,1.73,1.73,0,0,0,.57.38,2.07,2.07,0,0,0,.77.14,2,2,0,0,0,.95-.21,2.32,2.32,0,0,0,.71-.53l.51.45a3.48,3.48,0,0,1-1,.7,2.92,2.92,0,0,1-1.26.26,3.06,3.06,0,0,1-1.08-.18,2.23,2.23,0,0,1-.83-.49,2,2,0,0,1-.52-.76,2.41,2.41,0,0,1-.19-1,3.61,3.61,0,0,1,.25-1.36,3.49,3.49,0,0,1,.68-1.11,3,3,0,0,1,1.07-.75,3.4,3.4,0,0,1,1.38-.28,3.09,3.09,0,0,1,1.17.23,1.65,1.65,0,0,1,.82.72Z"/><path class="cls-1" d="M154.71,78.42a.78.78,0,0,0,0,.14.62.62,0,0,0,0,.13,1.85,1.85,0,0,0,.14.72,1.73,1.73,0,0,0,.38.57,1.69,1.69,0,0,0,.58.37,1.87,1.87,0,0,0,.71.14,2.2,2.2,0,0,0,1.16-.3,2.66,2.66,0,0,0,.79-.69l.5.48a3.19,3.19,0,0,1-1.14.88,3.23,3.23,0,0,1-1.38.3,3.06,3.06,0,0,1-1-.17,2.35,2.35,0,0,1-.81-.48,2.54,2.54,0,0,1-.54-.77,2.69,2.69,0,0,1-.19-1,3.39,3.39,0,0,1,.25-1.31,3.49,3.49,0,0,1,.69-1.09,3.07,3.07,0,0,1,1-.75,2.93,2.93,0,0,1,1.28-.29,2.29,2.29,0,0,1,1.74.62,2.14,2.14,0,0,1,.6,1.58c0,.1,0,.24,0,.44a2.81,2.81,0,0,1-.08.53Zm3.92-.6c0-.06,0-.13,0-.21V77.4a1.49,1.49,0,0,0-.39-1.06,1.53,1.53,0,0,0-1.17-.41,2.21,2.21,0,0,0-1.49.56,2.59,2.59,0,0,0-.79,1.33Z"/><path class="cls-1" d="M166.71,76.07h-1.32L164.52,81h-.8l.86-4.94h-1.19l.14-.67h1.16l.26-1.53a4,4,0,0,1,.23-.79,2,2,0,0,1,.42-.66,1.83,1.83,0,0,1,.61-.45,1.86,1.86,0,0,1,.84-.17,1.83,1.83,0,0,1,.33,0,1.91,1.91,0,0,1,.33.06l-.19.71a2,2,0,0,0-.56-.07,1,1,0,0,0-.5.11.92.92,0,0,0-.35.3,2,2,0,0,0-.23.46,3.39,3.39,0,0,0-.13.57l-.26,1.44h1.35Z"/><path class="cls-1" d="M169.47,81.16a3,3,0,0,1-1.05-.18,2.51,2.51,0,0,1-.82-.5,2.08,2.08,0,0,1-.53-.77,2.47,2.47,0,0,1-.2-1,3.75,3.75,0,0,1,.25-1.34,3.3,3.3,0,0,1,.69-1.1,3.19,3.19,0,0,1,1.06-.75,3.24,3.24,0,0,1,1.34-.28,3,3,0,0,1,1,.18,2.21,2.21,0,0,1,.82.5,2.42,2.42,0,0,1,.53.76,2.46,2.46,0,0,1,.19,1,3.76,3.76,0,0,1-.24,1.35,3.47,3.47,0,0,1-.69,1.11,3.32,3.32,0,0,1-1.06.74A3.16,3.16,0,0,1,169.47,81.16ZM172,77.73a2,2,0,0,0-.12-.71,1.61,1.61,0,0,0-.35-.58,1.7,1.7,0,0,0-.57-.37,1.79,1.79,0,0,0-.75-.14,2.1,2.1,0,0,0-1,.22,2.5,2.5,0,0,0-.77.6,3.17,3.17,0,0,0-.51.88,3,3,0,0,0-.18,1.05,2.09,2.09,0,0,0,.12.72,1.52,1.52,0,0,0,.35.57,1.68,1.68,0,0,0,.56.38,2,2,0,0,0,.75.14,2.19,2.19,0,0,0,1-.23,2.33,2.33,0,0,0,.77-.59,2.87,2.87,0,0,0,.5-.87A3.16,3.16,0,0,0,172,77.73Z"/><path class="cls-1" d="M174.81,76.05c0-.24.06-.46.08-.65h.77c0,.15,0,.32-.06.5s0,.34-.07.46h0a2.52,2.52,0,0,1,.79-.8,2,2,0,0,1,1.08-.31l.28,0a1.18,1.18,0,0,1,.25,0l-.19.77-.22,0-.33,0a1.77,1.77,0,0,0-.64.12,1.63,1.63,0,0,0-.57.38,2.64,2.64,0,0,0-.46.66,3.5,3.5,0,0,0-.29,1l-.5,2.88h-.81l.77-4.38C174.74,76.48,174.78,76.29,174.81,76.05Z"/><path class="cls-1" d="M181.8,81H181l1.5-8.49h.85Z"/><path class="cls-1" d="M185.64,75.4c0,.15,0,.32-.06.5s-.05.34-.07.46h0a2.41,2.41,0,0,1,.84-.81,2.11,2.11,0,0,1,1.09-.3,2.05,2.05,0,0,1,1.43.47A1.58,1.58,0,0,1,189.4,77a2.83,2.83,0,0,1,0,.29c0,.09,0,.2,0,.31L188.72,81h-.81l.55-3.1a3.63,3.63,0,0,0,.07-.71,1.47,1.47,0,0,0-.27-.93,1.19,1.19,0,0,0-1-.34,1.64,1.64,0,0,0-.65.13,1.82,1.82,0,0,0-.61.41,2.67,2.67,0,0,0-.5.69,3.57,3.57,0,0,0-.31,1l-.5,2.88h-.81l.77-4.38c0-.15.07-.34.1-.58a6,6,0,0,0,.08-.65Z"/><path class="cls-1" d="M190.71,78.73a3.76,3.76,0,0,1,.24-1.35,3.71,3.71,0,0,1,.69-1.11,3.39,3.39,0,0,1,1.05-.74,3.22,3.22,0,0,1,1.32-.28,2.49,2.49,0,0,1,1.14.28,1.79,1.79,0,0,1,.81.82h0l.78-4.41h.8L196,81h-.8l.17-.92h0a2.26,2.26,0,0,1-.83.75,2.42,2.42,0,0,1-1.23.32,2.84,2.84,0,0,1-1-.18,2.15,2.15,0,0,1-1.31-1.26A2.64,2.64,0,0,1,190.71,78.73Zm.84,0a2,2,0,0,0,.11.71A1.63,1.63,0,0,0,192,80a1.53,1.53,0,0,0,.55.39,2,2,0,0,0,.76.14,2.31,2.31,0,0,0,1-.22,2.34,2.34,0,0,0,.8-.6,2.72,2.72,0,0,0,.52-.87,2.86,2.86,0,0,0,.2-1.06,2.09,2.09,0,0,0-.13-.72,1.52,1.52,0,0,0-.37-.58,1.59,1.59,0,0,0-.57-.38,2,2,0,0,0-.75-.13,2.25,2.25,0,0,0-1.77.8,2.62,2.62,0,0,0-.5.88A3.12,3.12,0,0,0,191.55,78.68Z"/><path class="cls-1" d="M198.9,81h-.8l1-5.61h.81Zm1.48-7.78a.58.58,0,0,1-.16.4.53.53,0,0,1-.41.17.6.6,0,0,1-.39-.14.54.54,0,0,1-.16-.4.6.6,0,0,1,.58-.59.52.52,0,0,1,.38.15A.53.53,0,0,1,200.38,73.23Z"/><path class="cls-1" d="M203,81h-.87L201,75.4h.82l.9,4.75h0l2.79-4.75h.88Z"/><path class="cls-1" d="M207.42,81h-.8l1-5.61h.81Zm1.48-7.78a.58.58,0,0,1-.16.4.53.53,0,0,1-.41.17.6.6,0,0,1-.39-.14.54.54,0,0,1-.16-.4.6.6,0,0,1,.58-.59.52.52,0,0,1,.38.15A.53.53,0,0,1,208.9,73.23Z"/><path class="cls-1" d="M209.47,78.73a3.56,3.56,0,0,1,.25-1.35,3.35,3.35,0,0,1,.69-1.11,3.28,3.28,0,0,1,2.36-1,2.54,2.54,0,0,1,1.15.28,1.84,1.84,0,0,1,.81.82h0l.78-4.41h.81L214.73,81h-.81l.17-.92h0a2.34,2.34,0,0,1-.83.75,2.46,2.46,0,0,1-1.24.32,2.82,2.82,0,0,1-1-.18,2.24,2.24,0,0,1-.8-.49,2.38,2.38,0,0,1-.52-.77A2.64,2.64,0,0,1,209.47,78.73Zm.84,0a2,2,0,0,0,.12.71,1.5,1.5,0,0,0,.34.57,1.53,1.53,0,0,0,.55.39,2,2,0,0,0,.76.14,2.31,2.31,0,0,0,1-.22,2.22,2.22,0,0,0,.79-.6,2.75,2.75,0,0,0,.53-.87,2.85,2.85,0,0,0,.19-1.06,2.09,2.09,0,0,0-.12-.72,1.65,1.65,0,0,0-.37-.58,1.54,1.54,0,0,0-.58-.38,2,2,0,0,0-.74-.13,2.33,2.33,0,0,0-1,.21,2.36,2.36,0,0,0-.77.59,2.46,2.46,0,0,0-.5.88A3.12,3.12,0,0,0,210.31,78.68Z"/><path class="cls-1" d="M220.79,81c0-.15,0-.32.06-.5s.05-.34.07-.46h0a2.32,2.32,0,0,1-.84.81,2.1,2.1,0,0,1-1.08.3,2.07,2.07,0,0,1-1.43-.46,1.58,1.58,0,0,1-.51-1.24,2.64,2.64,0,0,1,0-.29c0-.1,0-.2.05-.32l.62-3.44h.8L218,78.52a3.63,3.63,0,0,0-.07.71,1.42,1.42,0,0,0,.27.92,1.22,1.22,0,0,0,1,.34,1.69,1.69,0,0,0,.65-.14,1.75,1.75,0,0,0,.6-.4,2.55,2.55,0,0,0,.5-.68,3.32,3.32,0,0,0,.31-1l.5-2.88h.81l-.77,4.38c0,.15-.07.35-.1.59a5.71,5.71,0,0,0-.08.63Z"/><path class="cls-1" d="M227.83,77.57c0-.14,0-.24,0-.32a1.48,1.48,0,0,0,0-.21,1,1,0,0,0-.35-.86,1.6,1.6,0,0,0-1-.25,2.5,2.5,0,0,0-1,.19,3.24,3.24,0,0,0-.78.48l-.36-.54a3,3,0,0,1,1-.58,3.35,3.35,0,0,1,1.19-.23,3.22,3.22,0,0,1,.76.09,1.82,1.82,0,0,1,.63.29,1.36,1.36,0,0,1,.44.51,1.64,1.64,0,0,1,.16.73c0,.08,0,.17,0,.3a2,2,0,0,1,0,.3l-.41,2.28c0,.22-.07.44-.09.68a4.45,4.45,0,0,0,0,.58h-.72c0-.13,0-.28,0-.44s0-.32,0-.47h0a4.34,4.34,0,0,1-.48.48,2.42,2.42,0,0,1-.5.31,2.53,2.53,0,0,1-.55.18,4.26,4.26,0,0,1-.64.05,2.44,2.44,0,0,1-.59-.07,1.61,1.61,0,0,1-.55-.25,1.38,1.38,0,0,1-.41-.45,1.39,1.39,0,0,1-.16-.68,1.53,1.53,0,0,1,.39-1.09,2.52,2.52,0,0,1,1-.63,5.6,5.6,0,0,1,1.38-.3C226.8,77.6,227.31,77.57,227.83,77.57Zm-.3.61a10.28,10.28,0,0,0-1.1.06,4.48,4.48,0,0,0-1,.2,1.94,1.94,0,0,0-.75.42.91.91,0,0,0-.3.71.82.82,0,0,0,.1.44.7.7,0,0,0,.26.28,1.09,1.09,0,0,0,.37.14,2,2,0,0,0,.42,0,2,2,0,0,0,1.43-.54,2,2,0,0,0,.46-.58,2.44,2.44,0,0,0,.25-.7l.08-.47Z"/><path class="cls-1" d="M230.81,81H230l1.6-9.07h.82Z"/><path class="cls-1" d="M236.7,76.63a1.43,1.43,0,0,0-.5-.51,1.62,1.62,0,0,0-.81-.19,2.42,2.42,0,0,0-.45,0,2,2,0,0,0-.43.16,1,1,0,0,0-.32.28.69.69,0,0,0-.13.43.81.81,0,0,0,.08.37.75.75,0,0,0,.22.25,2.81,2.81,0,0,0,.35.18l.47.15a3.52,3.52,0,0,1,1.26.6,1.29,1.29,0,0,1,.43,1,1.46,1.46,0,0,1-.21.79,1.65,1.65,0,0,1-.51.54,2.09,2.09,0,0,1-.7.3,2.76,2.76,0,0,1-.75.1,3.47,3.47,0,0,1-1.33-.26,2,2,0,0,1-1-.8l.69-.45a1.73,1.73,0,0,0,.61.59,1.87,1.87,0,0,0,.95.25,2.24,2.24,0,0,0,.52-.06,1.35,1.35,0,0,0,.45-.17A.84.84,0,0,0,236,80a.78.78,0,0,0,.12-.44.77.77,0,0,0-.36-.68,4.7,4.7,0,0,0-1-.45,5.27,5.27,0,0,1-.51-.19,1.62,1.62,0,0,1-.45-.28,1.34,1.34,0,0,1-.33-.42,1.26,1.26,0,0,1-.13-.6,1.36,1.36,0,0,1,.2-.74,1.62,1.62,0,0,1,.5-.51,2.37,2.37,0,0,1,.69-.3,3.46,3.46,0,0,1,.77-.1,2.57,2.57,0,0,1,1.16.26,1.57,1.57,0,0,1,.74.67Z"/><path class="cls-1" d="M238,82.69h-.69l1.31-2.82h.85Z"/><path class="cls-1" d="M110,95.42h-.85l1.5-8.5h5l-.14.75h-4.15l-.53,3h3.86l-.12.73h-3.86Z"/><path class="cls-1" d="M119.17,92c0-.14,0-.24,0-.32a1.48,1.48,0,0,0,0-.21,1,1,0,0,0-.34-.86,1.65,1.65,0,0,0-1-.25,2.34,2.34,0,0,0-1,.2,2.94,2.94,0,0,0-.78.47l-.36-.54a3.19,3.19,0,0,1,1-.58,3.38,3.38,0,0,1,1.19-.22,2.73,2.73,0,0,1,.76.09,1.69,1.69,0,0,1,.64.28,1.48,1.48,0,0,1,.59,1.25c0,.07,0,.17,0,.29a2,2,0,0,1,0,.3l-.41,2.29a6.39,6.39,0,0,0-.09.67,4.48,4.48,0,0,0,0,.59h-.72c0-.14,0-.29,0-.45s0-.31,0-.47h0a4.34,4.34,0,0,1-.48.48,2.42,2.42,0,0,1-.5.31,2.37,2.37,0,0,1-.55.18,4.26,4.26,0,0,1-.64,0,2.44,2.44,0,0,1-.59-.07,1.8,1.8,0,0,1-.55-.24,1.37,1.37,0,0,1-.4-.46,1.29,1.29,0,0,1-.17-.68,1.49,1.49,0,0,1,.39-1.08,2.43,2.43,0,0,1,1-.64,5.58,5.58,0,0,1,1.39-.3C118.14,92,118.65,92,119.17,92Zm-.3.61a10.42,10.42,0,0,0-1.1.06,4.48,4.48,0,0,0-1,.2,2,2,0,0,0-.75.42,1,1,0,0,0-.2,1.15.7.7,0,0,0,.26.28,1.09,1.09,0,0,0,.37.14,2,2,0,0,0,.43,0,2,2,0,0,0,1.42-.54,2,2,0,0,0,.46-.58,2.44,2.44,0,0,0,.25-.7l.09-.47Z"/><path class="cls-1" d="M128.42,89.66a2,2,0,0,1,1.43.46,1.58,1.58,0,0,1,.51,1.25,2.83,2.83,0,0,1,0,.29c0,.09,0,.2,0,.31l-.62,3.45h-.81l.55-3.11a3.63,3.63,0,0,0,.07-.71,1.47,1.47,0,0,0-.27-.93,1.19,1.19,0,0,0-1-.34,1.57,1.57,0,0,0-.77.18,1.76,1.76,0,0,0-.54.48,2.49,2.49,0,0,0-.34.67,4.83,4.83,0,0,0-.2.77l-.53,3h-.8l.58-3.27a4,4,0,0,0,.08-.73,1.23,1.23,0,0,0-.25-.8,1.06,1.06,0,0,0-.87-.29,1.51,1.51,0,0,0-.6.13,1.85,1.85,0,0,0-.59.41,2.65,2.65,0,0,0-.49.69,3.23,3.23,0,0,0-.31,1l-.51,2.88h-.8l.77-4.38c0-.16.06-.35.1-.59s.06-.46.08-.65H123c0,.15,0,.32-.06.5s0,.34-.08.46h0a2.7,2.7,0,0,1,.84-.81,2.09,2.09,0,0,1,1.11-.29,2.56,2.56,0,0,1,.47,0,1.72,1.72,0,0,1,.47.19,1.33,1.33,0,0,1,.39.36,1.59,1.59,0,0,1,.24.59,2.43,2.43,0,0,1,.83-.88A2.22,2.22,0,0,1,128.42,89.66Z"/><path class="cls-1" d="M132.51,95.42h-.81l1-5.62h.8ZM134,87.63a.57.57,0,0,1-.16.41.54.54,0,0,1-.4.16.55.55,0,0,1-.39-.14.51.51,0,0,1-.16-.4.56.56,0,0,1,.57-.58.55.55,0,0,1,.39.14A.58.58,0,0,1,134,87.63Z"/><path class="cls-1" d="M135.42,95.42h-.81l1.59-9.08H137Z"/><path class="cls-1" d="M138.31,95.42h-.8l1-5.62h.8Zm1.48-7.79a.57.57,0,0,1-.16.41.54.54,0,0,1-.4.16.52.52,0,0,1-.39-.14.51.51,0,0,1-.17-.4.58.58,0,0,1,.18-.42.55.55,0,0,1,.4-.16.51.51,0,0,1,.38.14A.54.54,0,0,1,139.79,87.63Z"/><path class="cls-1" d="M141.21,92.82a.78.78,0,0,0,0,.14.62.62,0,0,0,0,.13,1.85,1.85,0,0,0,.14.72,1.73,1.73,0,0,0,.38.57,1.69,1.69,0,0,0,.58.37,1.87,1.87,0,0,0,.71.14,2.2,2.2,0,0,0,1.16-.3,2.66,2.66,0,0,0,.79-.69l.5.48a3.19,3.19,0,0,1-1.14.88,3.23,3.23,0,0,1-1.38.3,3.06,3.06,0,0,1-1-.17,2.35,2.35,0,0,1-.81-.48,2.42,2.42,0,0,1-.54-.77,2.69,2.69,0,0,1-.19-1,3.43,3.43,0,0,1,.25-1.31,3.49,3.49,0,0,1,.69-1.09,3.07,3.07,0,0,1,1-.75,2.92,2.92,0,0,1,1.28-.28,2.29,2.29,0,0,1,1.74.61,2.14,2.14,0,0,1,.6,1.58c0,.1,0,.24,0,.44a2.69,2.69,0,0,1-.08.53Zm3.92-.6c0-.06,0-.13,0-.21V91.8a1.49,1.49,0,0,0-.39-1.06,1.53,1.53,0,0,0-1.17-.41,2.21,2.21,0,0,0-1.49.56,2.59,2.59,0,0,0-.79,1.33Z"/><path class="cls-1" d="M150.89,91a1.29,1.29,0,0,0-.5-.51,1.52,1.52,0,0,0-.81-.2,2.42,2.42,0,0,0-.45,0,2,2,0,0,0-.43.16,1,1,0,0,0-.32.28.69.69,0,0,0-.13.43.81.81,0,0,0,.08.37.65.65,0,0,0,.22.25,1.9,1.9,0,0,0,.35.18l.47.15a3.52,3.52,0,0,1,1.26.6,1.32,1.32,0,0,1,.43,1,1.46,1.46,0,0,1-.21.79,1.65,1.65,0,0,1-.51.54,2.09,2.09,0,0,1-.7.3,2.82,2.82,0,0,1-.75.1,3.43,3.43,0,0,1-1.33-.26,2.12,2.12,0,0,1-1-.8l.7-.45a1.73,1.73,0,0,0,.61.59,1.84,1.84,0,0,0,.95.25,2.24,2.24,0,0,0,.52-.06,1.72,1.72,0,0,0,.45-.16.92.92,0,0,0,.31-.31.78.78,0,0,0,.12-.44.74.74,0,0,0-.35-.67,4.42,4.42,0,0,0-1-.46,5.27,5.27,0,0,1-.51-.19,1.48,1.48,0,0,1-.45-.28,1.34,1.34,0,0,1-.33-.42,1.24,1.24,0,0,1-.13-.6,1.36,1.36,0,0,1,.2-.74,1.62,1.62,0,0,1,.5-.51,2.37,2.37,0,0,1,.69-.3,3.37,3.37,0,0,1,.77-.09,2.57,2.57,0,0,1,1.16.25,1.68,1.68,0,0,1,.74.67Z"/><path class="cls-1" d="M152.14,97.09h-.69l1.31-2.81h.85Z"/><path class="cls-1" d="M162,92c0-.14,0-.24.05-.32a1.48,1.48,0,0,0,0-.21,1,1,0,0,0-.35-.86,1.6,1.6,0,0,0-1-.25,2.34,2.34,0,0,0-1,.2A2.94,2.94,0,0,0,159,91l-.36-.54a3.19,3.19,0,0,1,1-.58,3.34,3.34,0,0,1,1.19-.22,2.78,2.78,0,0,1,.76.09,1.64,1.64,0,0,1,.63.28,1.55,1.55,0,0,1,.44.51,1.65,1.65,0,0,1,.16.74c0,.07,0,.17,0,.29a2,2,0,0,1,0,.3l-.41,2.29a6.39,6.39,0,0,0-.09.67,4.48,4.48,0,0,0,0,.59h-.72c0-.14,0-.29,0-.45s0-.31.05-.47h0a4.34,4.34,0,0,1-.48.48,2.42,2.42,0,0,1-.5.31,2.53,2.53,0,0,1-.55.18,4.26,4.26,0,0,1-.64,0,2.38,2.38,0,0,1-.59-.07,1.8,1.8,0,0,1-.55-.24,1.52,1.52,0,0,1-.41-.46,1.39,1.39,0,0,1-.16-.68,1.49,1.49,0,0,1,.39-1.08,2.43,2.43,0,0,1,1-.64,5.6,5.6,0,0,1,1.38-.3C161,92,161.48,92,162,92Zm-.3.61a10.28,10.28,0,0,0-1.1.06,4.48,4.48,0,0,0-1,.2,1.94,1.94,0,0,0-.75.42.91.91,0,0,0-.3.71.82.82,0,0,0,.1.44.7.7,0,0,0,.26.28,1,1,0,0,0,.37.14,2,2,0,0,0,.42,0,2,2,0,0,0,1.43-.54,2,2,0,0,0,.46-.58,2.44,2.44,0,0,0,.25-.7l.08-.47Z"/><path class="cls-1" d="M165.87,89.8c0,.15,0,.32-.06.5s-.05.34-.08.46h0a2.38,2.38,0,0,1,.83-.81,2.15,2.15,0,0,1,1.09-.29,2,2,0,0,1,1.43.46,1.58,1.58,0,0,1,.51,1.25,1.42,1.42,0,0,1,0,.29c0,.09,0,.2,0,.31l-.62,3.45h-.81l.56-3.11a4.6,4.6,0,0,0,.07-.71,1.41,1.41,0,0,0-.28-.93,1.18,1.18,0,0,0-1-.34,1.68,1.68,0,0,0-.65.13,1.79,1.79,0,0,0-.6.41,2.45,2.45,0,0,0-.5.69,3,3,0,0,0-.31,1l-.51,2.88h-.8l.77-4.38c0-.16.06-.35.1-.59s.06-.46.08-.65Z"/><path class="cls-1" d="M170.93,93.13a3.6,3.6,0,0,1,.25-1.35,3.26,3.26,0,0,1,1.74-1.85,3.17,3.17,0,0,1,1.31-.27,2.53,2.53,0,0,1,1.15.27,1.94,1.94,0,0,1,.81.82h0l.78-4.41h.8l-1.6,9.08h-.81l.17-.93h0a2.34,2.34,0,0,1-.83.75,2.46,2.46,0,0,1-1.24.32,2.87,2.87,0,0,1-1-.18,2.29,2.29,0,0,1-.79-.49,2.14,2.14,0,0,1-.52-.77A2.61,2.61,0,0,1,170.93,93.13Zm.84,0a2.25,2.25,0,0,0,.11.71,1.52,1.52,0,0,0,.35.57,1.45,1.45,0,0,0,.55.39,1.93,1.93,0,0,0,.75.14,2.35,2.35,0,0,0,1-.22,2.41,2.41,0,0,0,.79-.59,3.13,3.13,0,0,0,.53-.88,2.85,2.85,0,0,0,.19-1.06,1.88,1.88,0,0,0-.13-.72,1.58,1.58,0,0,0-.36-.58,1.54,1.54,0,0,0-.58-.38,2,2,0,0,0-.74-.13,2.33,2.33,0,0,0-1,.21,2.51,2.51,0,0,0-.78.59,2.8,2.8,0,0,0-.5.88A3.38,3.38,0,0,0,171.77,93.08Z"/><path class="cls-1" d="M182.1,95.42h-.85l1.5-8.5H185a4.32,4.32,0,0,1,1.05.12,2.42,2.42,0,0,1,.83.37,1.7,1.7,0,0,1,.55.64,1.93,1.93,0,0,1,.2.9,2.48,2.48,0,0,1-.19,1,2,2,0,0,1-.54.72,2.59,2.59,0,0,1-.79.47,3.88,3.88,0,0,1-1,.21l1.88,4h-1l-1.77-4h-1.5Zm.83-4.7h1.51a6,6,0,0,0,.85-.06,2.52,2.52,0,0,0,.76-.25,1.49,1.49,0,0,0,.55-.51,1.56,1.56,0,0,0,.21-.86,1.18,1.18,0,0,0-.51-1,2.42,2.42,0,0,0-1.39-.35h-1.44Z"/><path class="cls-1" d="M189,92.82c0,.05,0,.1,0,.14a.62.62,0,0,0,0,.13,1.85,1.85,0,0,0,.14.72,1.73,1.73,0,0,0,.38.57,1.69,1.69,0,0,0,.58.37,1.87,1.87,0,0,0,.71.14,2.14,2.14,0,0,0,1.15-.3,2.58,2.58,0,0,0,.8-.69l.5.48a3.19,3.19,0,0,1-1.14.88,3.23,3.23,0,0,1-1.38.3,3,3,0,0,1-1-.17,2.35,2.35,0,0,1-.81-.48,2.14,2.14,0,0,1-.54-.77,2.69,2.69,0,0,1-.2-1,3.44,3.44,0,0,1,.26-1.31,3.16,3.16,0,0,1,.69-1.09,3.07,3.07,0,0,1,1-.75,2.89,2.89,0,0,1,1.28-.28,2.31,2.31,0,0,1,1.74.61,2.14,2.14,0,0,1,.6,1.58c0,.1,0,.24,0,.44a2.69,2.69,0,0,1-.08.53Zm3.93-.6c0-.06,0-.13,0-.21V91.8a1.49,1.49,0,0,0-.39-1.06,1.55,1.55,0,0,0-1.17-.41,2.21,2.21,0,0,0-.82.15,2.08,2.08,0,0,0-.67.41,2.67,2.67,0,0,0-.5.61,2.37,2.37,0,0,0-.29.72Z"/><path class="cls-1" d="M198,90.47H196.5l-.59,3.3a2.75,2.75,0,0,0,0,.38.6.6,0,0,0,.19.53.87.87,0,0,0,.5.14,1.36,1.36,0,0,0,.38-.06.74.74,0,0,0,.31-.14l-.1.7a1.56,1.56,0,0,1-.4.13,4.22,4.22,0,0,1-.52,0,2,2,0,0,1-.42,0,1,1,0,0,1-.38-.18.89.89,0,0,1-.29-.34,1.25,1.25,0,0,1-.11-.55,2.75,2.75,0,0,1,0-.38l.63-3.52h-1.17l.14-.67h1.14l.27-1.59h.81l-.28,1.59h1.55Z"/><path class="cls-1" d="M199.21,95.42h-.8l1-5.62h.8Zm1.48-7.79a.57.57,0,0,1-.16.41.54.54,0,0,1-.4.16.52.52,0,0,1-.39-.14.51.51,0,0,1-.17-.4.58.58,0,0,1,.18-.42.55.55,0,0,1,.4-.16.51.51,0,0,1,.38.14A.54.54,0,0,1,200.69,87.63Z"/><path class="cls-1" d="M202.16,90.45c0-.24.06-.46.08-.65H203c0,.15,0,.32-.06.5s0,.34-.08.46h0a2.62,2.62,0,0,1,.79-.8,2,2,0,0,1,1.08-.3h.28a1.18,1.18,0,0,1,.25,0l-.19.77-.23,0-.33,0a1.76,1.76,0,0,0-.63.12,1.63,1.63,0,0,0-.57.38,2.41,2.41,0,0,0-.46.66,3.47,3.47,0,0,0-.29,1l-.51,2.88h-.8l.77-4.38C202.09,90.88,202.12,90.69,202.16,90.45Z"/><path class="cls-1" d="M206,92.82c0,.05,0,.1,0,.14v.13a1.85,1.85,0,0,0,.13.72,1.75,1.75,0,0,0,.39.57,1.56,1.56,0,0,0,.57.37,1.89,1.89,0,0,0,.72.14,2.17,2.17,0,0,0,1.15-.3,2.54,2.54,0,0,0,.79-.69l.51.48a3.19,3.19,0,0,1-1.14.88,3.3,3.3,0,0,1-1.38.3,3,3,0,0,1-1-.17,2.35,2.35,0,0,1-.81-.48,2.14,2.14,0,0,1-.54-.77,2.69,2.69,0,0,1-.2-1,3.43,3.43,0,0,1,.25-1.31,3.49,3.49,0,0,1,.69-1.09,3.18,3.18,0,0,1,1-.75,3,3,0,0,1,1.28-.28,2.33,2.33,0,0,1,1.75.61,2.18,2.18,0,0,1,.59,1.58c0,.1,0,.24,0,.44a3.64,3.64,0,0,1-.09.53Zm3.92-.6a1.25,1.25,0,0,0,0-.21,1.48,1.48,0,0,0,0-.21,1.46,1.46,0,0,0-.4-1.06,1.51,1.51,0,0,0-1.16-.41,2.18,2.18,0,0,0-.82.15,2.13,2.13,0,0,0-.68.41,2.63,2.63,0,0,0-.49.61,2.14,2.14,0,0,0-.29.72Z"/><path class="cls-1" d="M212.71,92.82a.71.71,0,0,0,0,.14.62.62,0,0,0,0,.13,1.85,1.85,0,0,0,.14.72,1.73,1.73,0,0,0,.38.57,1.6,1.6,0,0,0,.58.37,1.83,1.83,0,0,0,.71.14,2.14,2.14,0,0,0,1.15-.3,2.7,2.7,0,0,0,.8-.69l.5.48a3.19,3.19,0,0,1-1.14.88,3.23,3.23,0,0,1-1.38.3,3,3,0,0,1-1-.17,2.35,2.35,0,0,1-.81-.48,2.14,2.14,0,0,1-.54-.77,2.69,2.69,0,0,1-.2-1,3.44,3.44,0,0,1,.26-1.31,3.16,3.16,0,0,1,.69-1.09,3.07,3.07,0,0,1,1-.75,2.89,2.89,0,0,1,1.28-.28,2.31,2.31,0,0,1,1.74.61,2.14,2.14,0,0,1,.6,1.58c0,.1,0,.24,0,.44a2.69,2.69,0,0,1-.08.53Zm3.93-.6c0-.06,0-.13,0-.21V91.8a1.49,1.49,0,0,0-.39-1.06,1.55,1.55,0,0,0-1.17-.41,2.21,2.21,0,0,0-.82.15,2.08,2.08,0,0,0-.67.41,2.43,2.43,0,0,0-.5.61,2.37,2.37,0,0,0-.29.72Z"/><path class="cls-1" d="M222.4,91a1.32,1.32,0,0,0-.51-.51,1.46,1.46,0,0,0-.8-.2,2.42,2.42,0,0,0-.45,0,1.82,1.82,0,0,0-.43.16,1.12,1.12,0,0,0-.33.28.75.75,0,0,0-.12.43.7.7,0,0,0,.08.37.65.65,0,0,0,.22.25,1.62,1.62,0,0,0,.35.18l.46.15a3.36,3.36,0,0,1,1.26.6,1.29,1.29,0,0,1,.44,1,1.46,1.46,0,0,1-.21.79,1.76,1.76,0,0,1-.51.54,2.09,2.09,0,0,1-.7.3,2.89,2.89,0,0,1-.76.1,3.41,3.41,0,0,1-1.32-.26,2.07,2.07,0,0,1-1-.8l.7-.45a1.65,1.65,0,0,0,.61.59,1.84,1.84,0,0,0,1,.25,2.16,2.16,0,0,0,.51-.06,1.5,1.5,0,0,0,.45-.16.87.87,0,0,0,.32-.31.78.78,0,0,0,.12-.44.76.76,0,0,0-.35-.67,4.52,4.52,0,0,0-1-.46c-.16-.05-.33-.12-.5-.19a1.67,1.67,0,0,1-.46-.28,1.7,1.7,0,0,1-.33-.42,1.37,1.37,0,0,1-.12-.6,1.28,1.28,0,0,1,.2-.74,1.62,1.62,0,0,1,.5-.51,2.16,2.16,0,0,1,.69-.3,3.37,3.37,0,0,1,.77-.09,2.6,2.6,0,0,1,1.16.25,1.6,1.6,0,0,1,.73.67Z"/></svg>