<svg id="logo-division" xmlns="http://www.w3.org/2000/svg" viewBox="0 0 298.08 97.08"><defs><style>.cls-1{fill:#00205c;}.cls-2{fill:none;stroke:#7e83a9;stroke-miterlimit:10;stroke-width:2.11px;}.cls-3{fill:#fff;}</style></defs><path class="cls-1" d="M106.13,38H113a18.69,18.69,0,0,1,4.73.58,10.67,10.67,0,0,1,3.91,1.87,9.28,9.28,0,0,1,2.65,3.37,11.8,11.8,0,0,1,1,5,10.68,10.68,0,0,1-1,4.62,9.84,9.84,0,0,1-2.57,3.35A11.12,11.12,0,0,1,118,58.85a13.88,13.88,0,0,1-4.43.7h-7.46Zm4.56,17.2h2.38a12.49,12.49,0,0,0,2.94-.33,6.3,6.3,0,0,0,2.36-1.12,5.35,5.35,0,0,0,1.56-2,7.56,7.56,0,0,0,.57-3.1,6.27,6.27,0,0,0-.57-2.76,5.55,5.55,0,0,0-1.53-1.94,7,7,0,0,0-2.27-1.14,9.91,9.91,0,0,0-2.74-.38h-2.7Z"/><path class="cls-1" d="M128.29,38h4.57V59.55h-4.57Z"/><path class="cls-1" d="M137,38h8a13.14,13.14,0,0,1,3,.32,6.84,6.84,0,0,1,2.49,1.07,5.09,5.09,0,0,1,1.7,2,7,7,0,0,1,.63,3.15,6.51,6.51,0,0,1-1.14,3.89,5.07,5.07,0,0,1-3.34,2l5.27,9.12h-5.47l-4.34-8.63h-2.25v8.63H137Zm4.57,8.93h2.69c.41,0,.85,0,1.3,0a3.76,3.76,0,0,0,1.25-.28,2.14,2.14,0,0,0,.92-.71,2.24,2.24,0,0,0,.37-1.38,2.42,2.42,0,0,0-.32-1.31,2.23,2.23,0,0,0-.82-.74,3.69,3.69,0,0,0-1.15-.36,9.11,9.11,0,0,0-1.26-.09h-3Z"/><path class="cls-1" d="M156.17,38h14.09v4.39h-9.52v4h9v4.39h-9v4.39h10v4.39H156.17Z"/><path class="cls-1" d="M188,43.57a4.47,4.47,0,0,0-1.65-1.31,5.26,5.26,0,0,0-2.27-.46,5.46,5.46,0,0,0-2.39.52,5.6,5.6,0,0,0-1.9,1.45A6.75,6.75,0,0,0,178.53,46a8.66,8.66,0,0,0,0,5.57,7.09,7.09,0,0,0,1.24,2.19,5.65,5.65,0,0,0,1.86,1.45,5.14,5.14,0,0,0,2.3.52,4.94,4.94,0,0,0,2.49-.61,5.13,5.13,0,0,0,1.79-1.71l3.8,3a8,8,0,0,1-3.34,2.84,9.93,9.93,0,0,1-4.15.91,12.26,12.26,0,0,1-4.48-.79A10.34,10.34,0,0,1,176.49,57a10.47,10.47,0,0,1-2.33-3.59,13.69,13.69,0,0,1,0-9.39,10.47,10.47,0,0,1,2.33-3.59A10.34,10.34,0,0,1,180,38.2a12.26,12.26,0,0,1,4.48-.79,9.9,9.9,0,0,1,1.83.17,9.67,9.67,0,0,1,1.87.53,7.71,7.71,0,0,1,1.77,1,6.7,6.7,0,0,1,1.52,1.49Z"/><path class="cls-1" d="M198.51,42.17H192.6V38H209v4.21h-5.92V59.55h-4.57Z"/><circle class="cls-2" cx="48.54" cy="48.54" r="47.49"/><circle class="cls-1" cx="48.54" cy="48.54" r="43.98"/><path class="cls-3" d="M75.07,36.71a8.12,8.12,0,0,1,6,2.53,14,14,0,0,1,2.89,5c.07.21.15.32.36.29l.87-.15c.14,0,.14-.22.14-.5L85,36.64c0-.29-.07-.51-.43-.51s-.33.11-.51.36l-.43.58c-.22.29-.43.4-.87.07a13.31,13.31,0,0,0-7.36-2c-6.66,0-11.44,1.43-14.53,11.05L57.88,54l-4.51-10.1s-1.88-4.5-2.7-4.5-2.75,4.2-2.75,4.2S43,54,42.75,54.76l-.07,0L37.07,38.05c-.25-.76.14-1.27.86-1.27h.69c.25,0,.32-.1.32-.29v-.9c0-.18-.07-.25-.28-.25l-3.54.09c-.17,0-.43.53-.69,1.22-1.11,2.46-6.37,13.94-6.66,14.86h-.15L21.09,36.3a1,1,0,0,0-.9-.79c-.51,0-.8.58-.94.94-.72,1.8-8.08,22-8.45,22.81a1.78,1.78,0,0,1-1.58,1.19H5c-.22,0-.26.1-.26.28v1c0,.11.08.18.22.18s4.88-.11,6.91-.11c2.23,0,3.46.11,3.82.11s.29-.11.29-.29v-.87c0-.18,0-.28-.25-.28h-1c-.86,0-1.22-.51-1.22-1,0-2,4.11-13.9,5.19-17.08h.15L24,55.26s1.19,2.82,1.93,2.82c1.13,0,2.84-4,2.84-4s4.87-10.87,5.16-11.63l.07,0,5.61,16.67a.87.87,0,0,1-.86,1.27h-.69c-.25,0-.32.1-.32.28v.91c0,.18.07.25.29.25l3-.06a1,1,0,0,0,.69-.31,1.14,1.14,0,0,0,.37-.48c.14-.4,6.53-13.86,6.86-14.87h.14L55.6,60.93c.15.43.4.79.9.79,1.94,0,2.58-.76,3.35-3,.4-1.14,2.75-7.77,4.89-13.4C67.28,38.67,71.17,36.71,75.07,36.71Zm17,13.4c-.36,0-6.86.11-9.89.11s-4.69-.11-5.12-.11c-.15,0-.22.07-.22.29v.83c0,.18.07.33.29.33H78.6c.94,0,1.3.36,1.3,1.66v2.63c0,1.88-.07,2.89-.86,3.32-1.23.65-2.6.61-4.91.61-3.59,0-6.17-2.26-9.13-4.65-.45-.36-.7-.19-.82,0s-.58,1.37-.71,1.68a.86.86,0,0,0,.21,1c2.49,2.77,6.73,3.92,10.16,3.92a21,21,0,0,0,10.25-2.38c.36-.15.58-.29.58-.58s-.15-.65-.15-1.16V52.89c0-1,.44-1.33,1.09-1.33H92.1c.22,0,.29-.08.29-.29v-.91C92.39,50.18,92.32,50.11,92,50.11Z"/><path class="cls-1" d="M107.54,80h-.85l1.5-8.5H109Z"/><path class="cls-1" d="M111.38,74.36q0,.23-.06.51c0,.18,0,.33-.07.45h0a2.5,2.5,0,0,1,.84-.81,2.2,2.2,0,0,1,1.09-.29,2,2,0,0,1,1.42.46,1.59,1.59,0,0,1,.52,1.25,2.64,2.64,0,0,1,0,.29c0,.1,0,.2,0,.31L114.46,80h-.81l.55-3.11a3.56,3.56,0,0,0,.07-.71,1.47,1.47,0,0,0-.27-.93,1.2,1.2,0,0,0-1-.34,1.63,1.63,0,0,0-.64.13,2,2,0,0,0-.61.41,2.67,2.67,0,0,0-.5.69,3.32,3.32,0,0,0-.31,1l-.5,2.88h-.81l.77-4.38c0-.15.07-.35.1-.59s.06-.46.08-.65Z"/><path class="cls-1" d="M120.28,75.6a1.29,1.29,0,0,0-.5-.51,1.56,1.56,0,0,0-.8-.2,2.3,2.3,0,0,0-.45,0,1.63,1.63,0,0,0-.44.15,1,1,0,0,0-.32.29.7.7,0,0,0-.13.42.78.78,0,0,0,.08.37.75.75,0,0,0,.22.25,1.64,1.64,0,0,0,.35.18l.47.15a3.36,3.36,0,0,1,1.26.61,1.27,1.27,0,0,1,.43,1,1.52,1.52,0,0,1-.2.79,1.79,1.79,0,0,1-.52.54A2.39,2.39,0,0,1,119,80a3.43,3.43,0,0,1-2.09-.17,2.08,2.08,0,0,1-1-.79l.69-.46a1.68,1.68,0,0,0,.62.59,1.72,1.72,0,0,0,.94.25,3,3,0,0,0,.52,0,1.83,1.83,0,0,0,.45-.17,1,1,0,0,0,.32-.3.81.81,0,0,0,.12-.44.75.75,0,0,0-.36-.68,3.89,3.89,0,0,0-1-.45,4.34,4.34,0,0,1-.5-.2,1.67,1.67,0,0,1-.46-.28,1.14,1.14,0,0,1-.33-.42,1.32,1.32,0,0,1-.13-.59,1.4,1.4,0,0,1,.2-.75,1.55,1.55,0,0,1,.51-.51,2.4,2.4,0,0,1,.69-.3,3.29,3.29,0,0,1,.76-.09,2.54,2.54,0,0,1,1.16.25,1.62,1.62,0,0,1,.74.67Z"/><path class="cls-1" d="M125.62,80q0-.23.06-.51c0-.18,0-.33.08-.45h0a2.38,2.38,0,0,1-.83.81,2.2,2.2,0,0,1-1.09.29,2.07,2.07,0,0,1-1.42-.45,1.6,1.6,0,0,1-.51-1.25,2.83,2.83,0,0,1,0-.29c0-.1,0-.2,0-.31l.62-3.45h.81l-.55,3.11a3.76,3.76,0,0,0-.08.71,1.42,1.42,0,0,0,.28.92,1.18,1.18,0,0,0,1,.34,1.63,1.63,0,0,0,.64-.13,2,2,0,0,0,.61-.4,2.43,2.43,0,0,0,.49-.69,3.22,3.22,0,0,0,.32-1l.5-2.88h.8l-.77,4.38c0,.16-.06.35-.1.59s-.06.45-.08.64Z"/><path class="cls-1" d="M129.37,75a6,6,0,0,0,.08-.65h.77q0,.23-.06.51c0,.18,0,.33-.07.45h0a2.62,2.62,0,0,1,.79-.8,2,2,0,0,1,1.08-.3h.28a1.23,1.23,0,0,1,.25,0l-.19.77a.64.64,0,0,0-.22,0,1.84,1.84,0,0,0-.33,0,1.77,1.77,0,0,0-.64.12,1.63,1.63,0,0,0-.57.38,2.39,2.39,0,0,0-.45.66,3.46,3.46,0,0,0-.3,1l-.5,2.88h-.81l.77-4.38C129.3,75.45,129.34,75.25,129.37,75Z"/><path class="cls-1" d="M136.59,76.53c0-.13,0-.24,0-.31a1.62,1.62,0,0,0,0-.21,1,1,0,0,0-.35-.87,1.6,1.6,0,0,0-1-.25,2.51,2.51,0,0,0-1,.2,2.94,2.94,0,0,0-.78.47l-.36-.54a3.19,3.19,0,0,1,1-.58,3.34,3.34,0,0,1,1.19-.22,3.22,3.22,0,0,1,.76.09,1.66,1.66,0,0,1,.63.29,1.52,1.52,0,0,1,.44.5,1.65,1.65,0,0,1,.16.74c0,.07,0,.17,0,.29a2,2,0,0,1,0,.31L137,78.72c0,.21-.07.44-.09.67a4.59,4.59,0,0,0,0,.59h-.72c0-.14,0-.29,0-.45s0-.31,0-.46h0a4.21,4.21,0,0,1-.48.47,2.48,2.48,0,0,1-.5.32,2.07,2.07,0,0,1-.55.17,3.24,3.24,0,0,1-.64.06,2.39,2.39,0,0,1-.59-.08,1.59,1.59,0,0,1-.55-.24,1.61,1.61,0,0,1-.41-.45,1.44,1.44,0,0,1-.16-.69,1.51,1.51,0,0,1,.39-1.08,2.43,2.43,0,0,1,1-.64,5.6,5.6,0,0,1,1.38-.3C135.56,76.56,136.07,76.53,136.59,76.53Zm-.3.62a10.24,10.24,0,0,0-1.1,0,5.08,5.08,0,0,0-1,.2,1.94,1.94,0,0,0-.75.42.92.92,0,0,0-.3.72.87.87,0,0,0,.1.44.75.75,0,0,0,.26.27,1,1,0,0,0,.37.15,3,3,0,0,0,.42,0,2.07,2.07,0,0,0,.8-.15,1.86,1.86,0,0,0,.63-.39,2.14,2.14,0,0,0,.46-.58,2.5,2.5,0,0,0,.25-.71l.08-.46Z"/><path class="cls-1" d="M140.46,74.36q0,.23-.06.51c0,.18-.05.33-.08.45h0a2.38,2.38,0,0,1,.83-.81,2.25,2.25,0,0,1,1.09-.29,2,2,0,0,1,1.43.46,1.61,1.61,0,0,1,.51,1.25,1.37,1.37,0,0,1,0,.29c0,.1,0,.2,0,.31L143.53,80h-.81l.56-3.11a4.49,4.49,0,0,0,.07-.71,1.41,1.41,0,0,0-.28-.93,1.18,1.18,0,0,0-1-.34,1.68,1.68,0,0,0-.65.13,2,2,0,0,0-.6.41,2.45,2.45,0,0,0-.5.69,3.05,3.05,0,0,0-.31,1L139.53,80h-.8l.77-4.38c0-.15.06-.35.1-.59s.06-.46.08-.65Z"/><path class="cls-1" d="M150.24,75.63a1.27,1.27,0,0,0-.5-.53,1.58,1.58,0,0,0-.81-.21,2.25,2.25,0,0,0-1,.22,2.37,2.37,0,0,0-.78.59,2.77,2.77,0,0,0-.52.88,3.12,3.12,0,0,0-.19,1.07,2.08,2.08,0,0,0,.12.71,1.63,1.63,0,0,0,.93,1,2,2,0,0,0,.77.14,2.13,2.13,0,0,0,.94-.2,2.54,2.54,0,0,0,.71-.53l.52.44a3.29,3.29,0,0,1-1,.7,2.78,2.78,0,0,1-1.26.26,3.31,3.31,0,0,1-1.08-.17,2.53,2.53,0,0,1-.83-.49,2.17,2.17,0,0,1-.53-.77,2.55,2.55,0,0,1-.18-1,3.85,3.85,0,0,1,.24-1.36,3.52,3.52,0,0,1,.69-1.11,3.39,3.39,0,0,1,1.06-.75,3.47,3.47,0,0,1,1.38-.27,2.84,2.84,0,0,1,1.17.23,1.57,1.57,0,0,1,.82.72Z"/><path class="cls-1" d="M152.25,77.39s0,.09,0,.14v.12a1.73,1.73,0,0,0,.14.73,1.79,1.79,0,0,0,.38.56,1.77,1.77,0,0,0,.58.38,1.83,1.83,0,0,0,.71.13,2.26,2.26,0,0,0,1.15-.29,2.83,2.83,0,0,0,.79-.69l.51.48a3.31,3.31,0,0,1-1.14.88,3.38,3.38,0,0,1-1.38.29,2.78,2.78,0,0,1-1-.17,2.35,2.35,0,0,1-.81-.48,2.06,2.06,0,0,1-.54-.77,2.69,2.69,0,0,1-.2-1,3.51,3.51,0,0,1,.94-2.4,3.55,3.55,0,0,1,1-.75,2.88,2.88,0,0,1,1.27-.28,2.33,2.33,0,0,1,1.75.61,2.17,2.17,0,0,1,.59,1.58,4,4,0,0,1,0,.44,3.87,3.87,0,0,1-.08.54Zm3.93-.6c0-.07,0-.14,0-.21a1.62,1.62,0,0,0,0-.21,1.46,1.46,0,0,0-.4-1.07,1.55,1.55,0,0,0-1.16-.41,2.18,2.18,0,0,0-.82.15,2.28,2.28,0,0,0-.67.41,2.56,2.56,0,0,0-.79,1.34Z"/><path class="cls-1" d="M164.25,75h-1.32l-.86,5h-.81l.87-5h-1.19l.13-.67h1.17l.26-1.52a3.51,3.51,0,0,1,.23-.8,2.23,2.23,0,0,1,.41-.66,1.87,1.87,0,0,1,.62-.45,2,2,0,0,1,.84-.17l.32,0a1.28,1.28,0,0,1,.34.07l-.19.7a2.47,2.47,0,0,0-.57-.07,1.07,1.07,0,0,0-.49.11.87.87,0,0,0-.35.31,1.8,1.8,0,0,0-.23.46,3.06,3.06,0,0,0-.14.56L163,74.36h1.34Z"/><path class="cls-1" d="M167,80.12a3,3,0,0,1-1-.18,2.26,2.26,0,0,1-.82-.5,2.19,2.19,0,0,1-.54-.76,2.46,2.46,0,0,1-.19-1,3.51,3.51,0,0,1,.25-1.34,3.22,3.22,0,0,1,3.09-2.13,3.21,3.21,0,0,1,1.05.17,2.4,2.4,0,0,1,.81.5,2.33,2.33,0,0,1,.54.77,2.55,2.55,0,0,1,.19,1A3.65,3.65,0,0,1,170.1,78a3.21,3.21,0,0,1-.69,1.1,3.46,3.46,0,0,1-1,.75A3.32,3.32,0,0,1,167,80.12Zm2.5-3.42a2.09,2.09,0,0,0-.12-.72,1.54,1.54,0,0,0-.36-.57,1.59,1.59,0,0,0-.56-.38,2.06,2.06,0,0,0-.76-.14,2.13,2.13,0,0,0-1,.22,2.46,2.46,0,0,0-.76.6,2.86,2.86,0,0,0-.51.88,2.93,2.93,0,0,0-.19,1.06,2.08,2.08,0,0,0,.12.71,1.54,1.54,0,0,0,.36.57,1.59,1.59,0,0,0,.56.38,2,2,0,0,0,.75.14,2.14,2.14,0,0,0,1-.22,2.55,2.55,0,0,0,.78-.6,2.87,2.87,0,0,0,.5-.87A3.11,3.11,0,0,0,169.51,76.7Z"/><path class="cls-1" d="M172.36,75c0-.24.06-.46.08-.65h.76q0,.23-.06.51a3.59,3.59,0,0,1-.07.45h0a2.51,2.51,0,0,1,.79-.8,2,2,0,0,1,1.08-.3h.27a1.32,1.32,0,0,1,.26,0l-.2.77a.64.64,0,0,0-.22,0,1.84,1.84,0,0,0-.33,0,1.72,1.72,0,0,0-.63.12,1.63,1.63,0,0,0-.57.38,2.21,2.21,0,0,0-.46.66,3.47,3.47,0,0,0-.29,1L172.29,80h-.8l.77-4.38C172.29,75.45,172.32,75.25,172.36,75Z"/><path class="cls-1" d="M179.35,80h-.85l1.5-8.5h.85Z"/><path class="cls-1" d="M183.19,74.36q0,.23-.06.51c0,.18,0,.33-.07.45h0a2.41,2.41,0,0,1,.84-.81,2.2,2.2,0,0,1,1.09-.29,2,2,0,0,1,1.42.46,1.61,1.61,0,0,1,.51,1.25,2.71,2.71,0,0,1,0,.29c0,.1,0,.2-.05.31L186.26,80h-.8l.55-3.11a3.56,3.56,0,0,0,.07-.71,1.41,1.41,0,0,0-.28-.93,1.16,1.16,0,0,0-1-.34,1.71,1.71,0,0,0-.65.13,2.07,2.07,0,0,0-.6.41,2.45,2.45,0,0,0-.5.69,3.32,3.32,0,0,0-.31,1L182.26,80h-.8l.77-4.38c0-.15.06-.35.1-.59s.06-.46.08-.65Z"/><path class="cls-1" d="M188.25,77.7a3.65,3.65,0,0,1,.25-1.36,3.21,3.21,0,0,1,.69-1.1,3.35,3.35,0,0,1,1.05-.75,3.17,3.17,0,0,1,1.31-.27,2.53,2.53,0,0,1,1.15.27,1.94,1.94,0,0,1,.81.82h0l.78-4.4h.81L193.51,80h-.81l.17-.93h0a2.51,2.51,0,0,1-2.07,1.07,3,3,0,0,1-1-.17,2.26,2.26,0,0,1-.8-.5,2.14,2.14,0,0,1-.52-.77A2.55,2.55,0,0,1,188.25,77.7Zm.84,0a2.08,2.08,0,0,0,.12.71,1.66,1.66,0,0,0,.34.57,1.55,1.55,0,0,0,.55.38,2,2,0,0,0,.76.14,2.17,2.17,0,0,0,1-.22,2.41,2.41,0,0,0,.79-.59,2.85,2.85,0,0,0,.72-1.93,2.11,2.11,0,0,0-.12-.73,1.85,1.85,0,0,0-.37-.58,1.67,1.67,0,0,0-.58-.38,2,2,0,0,0-.74-.13,2.19,2.19,0,0,0-1,.22,2.37,2.37,0,0,0-.78.59,2.65,2.65,0,0,0-.49.87A3.14,3.14,0,0,0,189.09,77.65Z"/><path class="cls-1" d="M196.45,80h-.81l1-5.62h.8Zm1.47-7.79a.56.56,0,0,1-.16.41.54.54,0,0,1-.4.17.56.56,0,0,1-.39-.15.48.48,0,0,1-.16-.39.57.57,0,0,1,.17-.42.54.54,0,0,1,.4-.17.54.54,0,0,1,.39.15A.54.54,0,0,1,197.92,72.19Z"/><path class="cls-1" d="M200.55,80h-.86l-1.18-5.62h.83l.9,4.75h0l2.8-4.75h.88Z"/><path class="cls-1" d="M205,80h-.81l1-5.62h.8Zm1.47-7.79a.56.56,0,0,1-.16.41.54.54,0,0,1-.4.17.56.56,0,0,1-.39-.15.48.48,0,0,1-.16-.39.57.57,0,0,1,.17-.42.54.54,0,0,1,.4-.17.54.54,0,0,1,.39.15A.54.54,0,0,1,206.44,72.19Z"/><path class="cls-1" d="M207,77.7a3.85,3.85,0,0,1,.24-1.36,3.39,3.39,0,0,1,.7-1.1,3.35,3.35,0,0,1,1-.75,3.17,3.17,0,0,1,1.31-.27,2.46,2.46,0,0,1,1.14.27,1.91,1.91,0,0,1,.82.82h0l.78-4.4h.8L212.28,80h-.81l.17-.93h0a2.23,2.23,0,0,1-.82.75,2.36,2.36,0,0,1-1.24.32,3.11,3.11,0,0,1-1-.17,2.22,2.22,0,0,1-.79-.5,2.14,2.14,0,0,1-.52-.77A2.55,2.55,0,0,1,207,77.7Zm.84,0a2.35,2.35,0,0,0,.11.71,1.69,1.69,0,0,0,.35.57,1.55,1.55,0,0,0,.55.38,1.89,1.89,0,0,0,.75.14,2.24,2.24,0,0,0,1-.22,2.52,2.52,0,0,0,.79-.59,3.07,3.07,0,0,0,.53-.87,3.11,3.11,0,0,0,.19-1.06A1.9,1.9,0,0,0,212,76a1.59,1.59,0,0,0-.94-1,2,2,0,0,0-.74-.13,2.26,2.26,0,0,0-1,.22,2.44,2.44,0,0,0-.77.59,2.87,2.87,0,0,0-.5.87A3.4,3.4,0,0,0,207.86,77.65Z"/><path class="cls-1" d="M218.33,80c0-.15,0-.32.07-.51a3.59,3.59,0,0,1,.07-.45h0a2.38,2.38,0,0,1-.83.81,2.2,2.2,0,0,1-1.09.29,2.07,2.07,0,0,1-1.42-.45,1.6,1.6,0,0,1-.51-1.25,2.83,2.83,0,0,1,0-.29c0-.1,0-.2,0-.31l.62-3.45h.81l-.55,3.11a3.76,3.76,0,0,0-.08.71,1.42,1.42,0,0,0,.28.92,1.18,1.18,0,0,0,1,.34,1.63,1.63,0,0,0,.64-.13,2,2,0,0,0,.61-.4,2.67,2.67,0,0,0,.5-.69,3.53,3.53,0,0,0,.31-1l.5-2.88h.8l-.77,4.38c0,.16-.06.35-.1.59s-.06.45-.08.64Z"/><path class="cls-1" d="M225.38,76.53l.05-.31c0-.08,0-.15,0-.21a1,1,0,0,0-.35-.87,1.62,1.62,0,0,0-1-.25,2.48,2.48,0,0,0-1,.2,2.65,2.65,0,0,0-.78.47L222,75a3.13,3.13,0,0,1,1-.58,3.38,3.38,0,0,1,1.19-.22,3.1,3.1,0,0,1,.76.09,1.63,1.63,0,0,1,.64.29,1.49,1.49,0,0,1,.43.5,1.53,1.53,0,0,1,.17.74c0,.07,0,.17,0,.29s0,.23,0,.31l-.41,2.28c0,.21-.07.44-.1.67s0,.43,0,.59h-.72a3.54,3.54,0,0,1,0-.45,3.41,3.41,0,0,1,.05-.46h0a4.21,4.21,0,0,1-.48.47,2.42,2.42,0,0,1-.49.32,2.19,2.19,0,0,1-.55.17,3.34,3.34,0,0,1-.65.06,2.46,2.46,0,0,1-.59-.08,1.46,1.46,0,0,1-.95-.69,1.33,1.33,0,0,1-.16-.69,1.55,1.55,0,0,1,.38-1.08,2.47,2.47,0,0,1,1-.64,5.6,5.6,0,0,1,1.38-.3C224.34,76.56,224.86,76.53,225.38,76.53Zm-.3.62a10.54,10.54,0,0,0-1.11,0,5.12,5.12,0,0,0-1,.2,2.06,2.06,0,0,0-.76.42,1,1,0,0,0-.29.72A1,1,0,0,0,222,79a.84.84,0,0,0,.26.27,1.2,1.2,0,0,0,.37.15,3.13,3.13,0,0,0,.43,0,2.17,2.17,0,0,0,1.43-.54,2.11,2.11,0,0,0,.45-.58,2.52,2.52,0,0,0,.26-.71l.08-.46Z"/><path class="cls-1" d="M228.36,80h-.82l1.59-9.07H230Z"/><path class="cls-1" d="M234.25,75.6a1.32,1.32,0,0,0-.51-.51,1.56,1.56,0,0,0-.8-.2,2.38,2.38,0,0,0-.45,0,1.46,1.46,0,0,0-.43.15,1,1,0,0,0-.33.29.7.7,0,0,0-.12.42.68.68,0,0,0,.08.37.65.65,0,0,0,.22.25,1.36,1.36,0,0,0,.34.18l.47.15a3.21,3.21,0,0,1,1.26.61,1.27,1.27,0,0,1,.43,1,1.43,1.43,0,0,1-.2.79,1.88,1.88,0,0,1-.51.54,2.45,2.45,0,0,1-.7.31,3.35,3.35,0,0,1-.76.09,3.24,3.24,0,0,1-1.32-.26,2.06,2.06,0,0,1-1-.79l.7-.46a1.65,1.65,0,0,0,.61.59,1.75,1.75,0,0,0,1,.25,2.84,2.84,0,0,0,.51,0,1.83,1.83,0,0,0,.45-.17.93.93,0,0,0,.32-.3.81.81,0,0,0,.12-.44.76.76,0,0,0-.35-.68,4.14,4.14,0,0,0-1-.45,5.21,5.21,0,0,1-.5-.2,1.67,1.67,0,0,1-.46-.28,1.4,1.4,0,0,1-.33-.42,1.51,1.51,0,0,1,.08-1.34,1.52,1.52,0,0,1,.5-.51,2.4,2.4,0,0,1,.69-.3,3.37,3.37,0,0,1,.77-.09,2.6,2.6,0,0,1,1.16.25,1.6,1.6,0,0,1,.73.67Z"/><path class="cls-1" d="M235.49,81.66h-.68l1.31-2.82H237Z"/><path class="cls-1" d="M107.54,94.38h-.85l1.5-8.5h5l-.13.76h-4.15l-.53,3h3.85l-.12.73h-3.85Z"/><path class="cls-1" d="M116.72,90.93l0-.31a1.62,1.62,0,0,0,0-.21,1,1,0,0,0-.35-.87,1.6,1.6,0,0,0-1-.25,2.48,2.48,0,0,0-1,.2,2.94,2.94,0,0,0-.78.47l-.36-.54a3.19,3.19,0,0,1,1-.58,3.32,3.32,0,0,1,1.18-.22,3.25,3.25,0,0,1,.77.09,1.82,1.82,0,0,1,.63.29,1.38,1.38,0,0,1,.43.5,1.53,1.53,0,0,1,.17.74c0,.07,0,.17,0,.29a2.16,2.16,0,0,1,0,.31l-.41,2.28c0,.21-.07.44-.1.67s0,.43,0,.59h-.72a3.54,3.54,0,0,1,0-.45c0-.15,0-.31,0-.46h0a4.21,4.21,0,0,1-.48.47,2.48,2.48,0,0,1-.5.32,2.07,2.07,0,0,1-.55.17,3.27,3.27,0,0,1-.65.06,2.38,2.38,0,0,1-.58-.08,1.51,1.51,0,0,1-.55-.24,1.61,1.61,0,0,1-.41-.45,1.33,1.33,0,0,1-.16-.69,1.55,1.55,0,0,1,.38-1.08,2.47,2.47,0,0,1,1-.64,6.1,6.1,0,0,1,1.38-.3C115.68,91,116.2,90.93,116.72,90.93Zm-.3.62a10.24,10.24,0,0,0-1.1,0,5.08,5.08,0,0,0-1,.2,2.21,2.21,0,0,0-.76.42,1,1,0,0,0-.29.72.84.84,0,0,0,.1.44.81.81,0,0,0,.25.27,1.16,1.16,0,0,0,.38.15,2,2,0,0,0,.42,0,2.22,2.22,0,0,0,.79-.14,2.1,2.1,0,0,0,.64-.4,2.35,2.35,0,0,0,.46-.58,2.5,2.5,0,0,0,.25-.71l.08-.46Z"/><path class="cls-1" d="M126,88.62a2,2,0,0,1,1.42.46,1.61,1.61,0,0,1,.51,1.25,2.71,2.71,0,0,1,0,.29c0,.1,0,.2,0,.31l-.62,3.45h-.8l.55-3.11a3.56,3.56,0,0,0,.07-.71,1.41,1.41,0,0,0-.28-.93,1.19,1.19,0,0,0-1-.34,1.53,1.53,0,0,0-.76.18,1.76,1.76,0,0,0-.54.48,2.51,2.51,0,0,0-.35.67,6.69,6.69,0,0,0-.2.77l-.52,3h-.81l.59-3.26a4,4,0,0,0,.07-.74,1.25,1.25,0,0,0-.24-.8,1.12,1.12,0,0,0-.87-.29,1.44,1.44,0,0,0-.6.13,1.91,1.91,0,0,0-.59.41,2.43,2.43,0,0,0-.49.69,3.32,3.32,0,0,0-.32,1l-.5,2.88h-.8l.76-4.38c0-.15.07-.35.11-.59s.06-.46.07-.65h.77q0,.22-.06.51c0,.18-.05.33-.07.45h0a2.84,2.84,0,0,1,.85-.81,2.12,2.12,0,0,1,1.1-.29,2.06,2.06,0,0,1,.48,0,1.43,1.43,0,0,1,.47.18,1.93,1.93,0,0,1,.39.37,1.52,1.52,0,0,1,.24.59,2.31,2.31,0,0,1,.83-.89A2.19,2.19,0,0,1,126,88.62Z"/><path class="cls-1" d="M130.05,94.38h-.8l1-5.62h.81Zm1.48-7.79a.6.6,0,0,1-.16.41.57.57,0,0,1-.41.17.56.56,0,0,1-.39-.15.52.52,0,0,1-.16-.39.54.54,0,0,1,.18-.42.56.56,0,0,1,.78,0A.51.51,0,0,1,131.53,86.59Z"/><path class="cls-1" d="M133,94.38h-.82l1.6-9.07h.81Z"/><path class="cls-1" d="M135.86,94.38h-.8l1-5.62h.81Zm1.48-7.79a.57.57,0,0,1-.17.41.53.53,0,0,1-.4.17.56.56,0,0,1-.39-.15.48.48,0,0,1-.16-.39.57.57,0,0,1,.17-.42.54.54,0,0,1,.41-.17.52.52,0,0,1,.38.15A.54.54,0,0,1,137.34,86.59Z"/><path class="cls-1" d="M138.75,91.79s0,.09,0,.14v.12a1.73,1.73,0,0,0,.14.73,1.79,1.79,0,0,0,.38.56,1.77,1.77,0,0,0,.58.38,1.83,1.83,0,0,0,.71.13,2.26,2.26,0,0,0,1.15-.29,2.83,2.83,0,0,0,.79-.69l.51.48a3.31,3.31,0,0,1-1.14.88,3.38,3.38,0,0,1-1.38.29,2.78,2.78,0,0,1-1-.17,2.35,2.35,0,0,1-.81-.48,2.06,2.06,0,0,1-.54-.77,2.69,2.69,0,0,1-.2-1,3.51,3.51,0,0,1,.94-2.4,3.55,3.55,0,0,1,1-.75,2.88,2.88,0,0,1,1.27-.28,2.33,2.33,0,0,1,1.75.61,2.17,2.17,0,0,1,.59,1.58,4,4,0,0,1,0,.44,3.87,3.87,0,0,1-.08.54Zm3.93-.6c0-.07,0-.14,0-.21a1.62,1.62,0,0,0,0-.21,1.46,1.46,0,0,0-.4-1.07,1.55,1.55,0,0,0-1.16-.41,2.18,2.18,0,0,0-.82.15,2.28,2.28,0,0,0-.67.41,2.56,2.56,0,0,0-.79,1.34Z"/><path class="cls-1" d="M148.44,90a1.32,1.32,0,0,0-.51-.51,1.56,1.56,0,0,0-.8-.2,2.3,2.3,0,0,0-.45,0,1.46,1.46,0,0,0-.43.15,1,1,0,0,0-.33.29.7.7,0,0,0-.12.42.86.86,0,0,0,.07.38.87.87,0,0,0,.23.24,1.36,1.36,0,0,0,.34.18l.47.15a3.36,3.36,0,0,1,1.26.61,1.27,1.27,0,0,1,.43,1,1.43,1.43,0,0,1-.2.79,1.79,1.79,0,0,1-.52.54,2.28,2.28,0,0,1-.69.31,3.35,3.35,0,0,1-.76.09,3.24,3.24,0,0,1-1.32-.26,2,2,0,0,1-1-.79l.7-.46a1.65,1.65,0,0,0,.61.59,1.75,1.75,0,0,0,1,.25,2.94,2.94,0,0,0,.51,0,1.83,1.83,0,0,0,.45-.17,1,1,0,0,0,.32-.3.81.81,0,0,0,.12-.44.78.78,0,0,0-.35-.68,4.14,4.14,0,0,0-1-.45l-.5-.19a2,2,0,0,1-.46-.29,1.4,1.4,0,0,1-.33-.42,1.32,1.32,0,0,1-.12-.59,1.39,1.39,0,0,1,.19-.75,1.65,1.65,0,0,1,.51-.51,2.4,2.4,0,0,1,.69-.3,3.31,3.31,0,0,1,.77-.09,2.52,2.52,0,0,1,1.15.25,1.62,1.62,0,0,1,.74.67Z"/><path class="cls-1" d="M149.68,96.06H149l1.31-2.82h.85Z"/><path class="cls-1" d="M159.55,90.93l0-.31c0-.08,0-.15,0-.21a1,1,0,0,0-.35-.87,1.62,1.62,0,0,0-1-.25,2.48,2.48,0,0,0-1,.2,2.65,2.65,0,0,0-.78.47l-.36-.54a3.13,3.13,0,0,1,1-.58,3.38,3.38,0,0,1,1.19-.22,3.1,3.1,0,0,1,.76.09,1.79,1.79,0,0,1,.64.29,1.49,1.49,0,0,1,.43.5,1.53,1.53,0,0,1,.16.74c0,.07,0,.17,0,.29s0,.23,0,.31l-.41,2.28c0,.21-.07.44-.1.67s0,.43,0,.59h-.72c0-.14,0-.29,0-.45s0-.31.06-.46h0a4.21,4.21,0,0,1-.48.47,2.42,2.42,0,0,1-.49.32,2.14,2.14,0,0,1-.56.17,3.16,3.16,0,0,1-.64.06,2.46,2.46,0,0,1-.59-.08,1.46,1.46,0,0,1-1-.69,1.33,1.33,0,0,1-.16-.69,1.55,1.55,0,0,1,.38-1.08,2.5,2.5,0,0,1,1-.64A6.31,6.31,0,0,1,158,91C158.51,91,159,90.93,159.55,90.93Zm-.3.62a10.54,10.54,0,0,0-1.11,0,5.12,5.12,0,0,0-1,.2,2.21,2.21,0,0,0-.76.42,1.07,1.07,0,0,0-.2,1.16.84.84,0,0,0,.26.27,1.11,1.11,0,0,0,.37.15,2.09,2.09,0,0,0,.43,0,2,2,0,0,0,1.43-.54,2.32,2.32,0,0,0,.45-.58,2.52,2.52,0,0,0,.26-.71l.08-.46Z"/><path class="cls-1" d="M163.41,88.76q0,.22-.06.51c0,.18,0,.33-.07.45h0a2.5,2.5,0,0,1,.84-.81,2.2,2.2,0,0,1,1.09-.29,2,2,0,0,1,1.43.46,1.61,1.61,0,0,1,.51,1.25,2.64,2.64,0,0,1,0,.29c0,.1,0,.2,0,.31l-.62,3.45h-.81l.55-3.11a3.56,3.56,0,0,0,.07-.71,1.47,1.47,0,0,0-.27-.93,1.22,1.22,0,0,0-1-.34,1.64,1.64,0,0,0-.65.13,2,2,0,0,0-.61.41,2.67,2.67,0,0,0-.5.69,3.64,3.64,0,0,0-.31,1l-.5,2.88h-.81l.77-4.38c0-.15.07-.35.1-.59a6,6,0,0,0,.08-.65Z"/><path class="cls-1" d="M168.48,92.1a3.85,3.85,0,0,1,.24-1.36,3.54,3.54,0,0,1,.69-1.1,3.59,3.59,0,0,1,1.05-.75,3.21,3.21,0,0,1,1.32-.27,2.49,2.49,0,0,1,1.14.27,1.84,1.84,0,0,1,.81.82h0l.78-4.4h.8l-1.61,9.07h-.8l.17-.93h0a2.26,2.26,0,0,1-.83.75,2.33,2.33,0,0,1-1.23.32,3.06,3.06,0,0,1-1-.17,2.36,2.36,0,0,1-.8-.5,2.25,2.25,0,0,1-.51-.77A2.55,2.55,0,0,1,168.48,92.1Zm.84,0a2.07,2.07,0,0,0,.11.71,1.84,1.84,0,0,0,.34.57,1.64,1.64,0,0,0,.55.38,2,2,0,0,0,.76.14,2.17,2.17,0,0,0,1-.22,2.45,2.45,0,0,0,.8-.59,2.84,2.84,0,0,0,.52-.87,2.89,2.89,0,0,0,.2-1.06,2.11,2.11,0,0,0-.13-.73,1.69,1.69,0,0,0-.37-.58,1.73,1.73,0,0,0-.57-.38,2,2,0,0,0-.75-.13,2.3,2.3,0,0,0-1.77.81,2.68,2.68,0,0,0-.5.87A3.14,3.14,0,0,0,169.32,92.05Z"/><path class="cls-1" d="M179.65,94.38h-.85l1.5-8.5h2.29a4.3,4.3,0,0,1,1,.12,2.68,2.68,0,0,1,.84.37A1.79,1.79,0,0,1,185,87a2,2,0,0,1,.2.9,2.47,2.47,0,0,1-.2,1,1.94,1.94,0,0,1-.53.73,2.62,2.62,0,0,1-.8.46,3.8,3.8,0,0,1-1,.21l1.87,4h-1l-1.78-4h-1.5Zm.83-4.69H182a6,6,0,0,0,.85-.07,2.35,2.35,0,0,0,.76-.25,1.52,1.52,0,0,0,.54-.5,1.61,1.61,0,0,0,.21-.86,1.21,1.21,0,0,0-.5-1.05,2.44,2.44,0,0,0-1.39-.34H181Z"/><path class="cls-1" d="M186.5,91.79s0,.09,0,.14v.12a1.9,1.9,0,0,0,.13.73,1.82,1.82,0,0,0,.39.56,1.73,1.73,0,0,0,.57.38,1.88,1.88,0,0,0,.72.13,2.26,2.26,0,0,0,1.15-.29,2.83,2.83,0,0,0,.79-.69l.51.48a3.31,3.31,0,0,1-1.14.88,3.45,3.45,0,0,1-1.38.29,2.78,2.78,0,0,1-1-.17,2.35,2.35,0,0,1-.81-.48,2.06,2.06,0,0,1-.54-.77,2.69,2.69,0,0,1-.2-1,3.43,3.43,0,0,1,.25-1.31,3.61,3.61,0,0,1,.69-1.09,3.5,3.5,0,0,1,1-.75,3,3,0,0,1,1.28-.28,2.33,2.33,0,0,1,1.75.61,2.21,2.21,0,0,1,.59,1.58c0,.1,0,.25,0,.44a3.79,3.79,0,0,1-.09.54Zm3.92-.6a1.49,1.49,0,0,0,0-.21,1.62,1.62,0,0,0,0-.21,1.46,1.46,0,0,0-.4-1.07,1.55,1.55,0,0,0-1.16-.41,2.18,2.18,0,0,0-.82.15,2.33,2.33,0,0,0-.68.41,2.63,2.63,0,0,0-.49.61,2.19,2.19,0,0,0-.29.73Z"/><path class="cls-1" d="M195.57,89.43h-1.52l-.59,3.3a3,3,0,0,0,0,.39.61.61,0,0,0,.2.53.9.9,0,0,0,.5.13,1.72,1.72,0,0,0,.37,0,.82.82,0,0,0,.31-.14l-.09.69a1.34,1.34,0,0,1-.4.13,3,3,0,0,1-.53,0,2,2,0,0,1-.41,0,1,1,0,0,1-.38-.17,1,1,0,0,1-.29-.34,1.16,1.16,0,0,1-.12-.56,2.9,2.9,0,0,1,0-.38l.62-3.52h-1.16l.13-.67h1.14l.28-1.58h.8l-.27,1.58h1.54Z"/><path class="cls-1" d="M196.76,94.38H196l1-5.62h.81Zm1.48-7.79a.57.57,0,0,1-.17.41.53.53,0,0,1-.4.17.56.56,0,0,1-.39-.15.48.48,0,0,1-.16-.39.57.57,0,0,1,.17-.42.54.54,0,0,1,.41-.17.52.52,0,0,1,.38.15A.54.54,0,0,1,198.24,86.59Z"/><path class="cls-1" d="M199.71,89.41c0-.24.06-.46.07-.65h.77q0,.22-.06.51c0,.18-.05.33-.07.45h0a2.65,2.65,0,0,1,.8-.8,2,2,0,0,1,1.08-.3h.27l.25.05-.19.77a.64.64,0,0,0-.22,0,1.84,1.84,0,0,0-.33,0,1.77,1.77,0,0,0-.64.12,2,2,0,0,0-.57.38,2.39,2.39,0,0,0-.45.66,3.83,3.83,0,0,0-.3,1l-.5,2.88h-.8L199.6,90C199.64,89.85,199.67,89.65,199.71,89.41Z"/><path class="cls-1" d="M203.58,91.79a.59.59,0,0,0,0,.14.49.49,0,0,0,0,.12,1.9,1.9,0,0,0,.14.73,1.79,1.79,0,0,0,.38.56,1.79,1.79,0,0,0,1.29.51,2.29,2.29,0,0,0,1.16-.29,3,3,0,0,0,.79-.69l.5.48a3.31,3.31,0,0,1-1.14.88,3.38,3.38,0,0,1-1.38.29,2.82,2.82,0,0,1-1-.17,2.35,2.35,0,0,1-.81-.48,2.31,2.31,0,0,1-.54-.77,2.69,2.69,0,0,1-.19-1,3.43,3.43,0,0,1,.25-1.31,3.61,3.61,0,0,1,.69-1.09,3.38,3.38,0,0,1,1-.75,2.92,2.92,0,0,1,1.28-.28,2.29,2.29,0,0,1,1.74.61,2.17,2.17,0,0,1,.6,1.58c0,.1,0,.25,0,.44a2.8,2.8,0,0,1-.08.54Zm3.92-.6c0-.07,0-.14,0-.21v-.21a1.5,1.5,0,0,0-.39-1.07,1.57,1.57,0,0,0-1.17-.41,2.21,2.21,0,0,0-.82.15,2.41,2.41,0,0,0-.67.41,2.67,2.67,0,0,0-.5.61,2.72,2.72,0,0,0-.29.73Z"/><path class="cls-1" d="M210.26,91.79a.59.59,0,0,0,0,.14v.12a1.9,1.9,0,0,0,.13.73,1.82,1.82,0,0,0,.39.56,1.73,1.73,0,0,0,.57.38,1.88,1.88,0,0,0,.72.13,2.26,2.26,0,0,0,1.15-.29,2.83,2.83,0,0,0,.79-.69l.5.48a3.18,3.18,0,0,1-1.13.88,3.45,3.45,0,0,1-1.38.29,2.75,2.75,0,0,1-1-.17,2.35,2.35,0,0,1-.81-.48,2.06,2.06,0,0,1-.54-.77,2.69,2.69,0,0,1-.2-1,3.43,3.43,0,0,1,.25-1.31,3.61,3.61,0,0,1,.69-1.09,3.5,3.5,0,0,1,1-.75,3,3,0,0,1,1.28-.28,2.33,2.33,0,0,1,1.75.61,2.21,2.21,0,0,1,.59,1.58c0,.1,0,.25,0,.44a3.79,3.79,0,0,1-.09.54Zm3.92-.6a1.49,1.49,0,0,0,0-.21c0-.08,0-.15,0-.21a1.51,1.51,0,0,0-.4-1.07,1.55,1.55,0,0,0-1.16-.41,2.27,2.27,0,0,0-.83.15,2.41,2.41,0,0,0-.67.41,2.63,2.63,0,0,0-.49.61,2.19,2.19,0,0,0-.29.73Z"/><path class="cls-1" d="M219.94,90a1.29,1.29,0,0,0-.5-.51,1.56,1.56,0,0,0-.8-.2,2.3,2.3,0,0,0-.45,0,1.63,1.63,0,0,0-.44.15,1,1,0,0,0-.32.29.7.7,0,0,0-.13.42.86.86,0,0,0,.08.38.83.83,0,0,0,.22.24A1.64,1.64,0,0,0,218,91l.47.15a3.36,3.36,0,0,1,1.26.61,1.27,1.27,0,0,1,.43,1,1.52,1.52,0,0,1-.2.79,1.79,1.79,0,0,1-.52.54,2.39,2.39,0,0,1-.69.31,3.43,3.43,0,0,1-2.09-.17,2,2,0,0,1-1-.79l.69-.46a1.73,1.73,0,0,0,.61.59,1.77,1.77,0,0,0,1,.25,3,3,0,0,0,.52,0,1.83,1.83,0,0,0,.45-.17,1,1,0,0,0,.32-.3.81.81,0,0,0,.12-.44.76.76,0,0,0-.36-.68,3.89,3.89,0,0,0-1-.45l-.5-.19a1.8,1.8,0,0,1-.46-.29,1.14,1.14,0,0,1-.33-.42,1.32,1.32,0,0,1-.13-.59,1.4,1.4,0,0,1,.2-.75,1.55,1.55,0,0,1,.51-.51,2.4,2.4,0,0,1,.69-.3,3.29,3.29,0,0,1,.76-.09,2.57,2.57,0,0,1,1.16.25,1.62,1.62,0,0,1,.74.67Z"/></svg>