<svg id="logo-division" xmlns="http://www.w3.org/2000/svg" viewBox="0 0 298.08 91.32"><defs><style>.cls-1{fill:#fff;}.cls-2{fill:#00205c;stroke:#fff;stroke-miterlimit:10;stroke-width:2.14px;}</style></defs><path class="cls-1" d="M108.71,35h7a18.68,18.68,0,0,1,4.8.59,10.69,10.69,0,0,1,4,1.9,9.26,9.26,0,0,1,2.69,3.42,12,12,0,0,1,1,5.11,10.82,10.82,0,0,1-1,4.69,10,10,0,0,1-2.6,3.41,11.42,11.42,0,0,1-3.78,2.09,14.2,14.2,0,0,1-4.48.71h-7.58Zm4.63,17.46h2.41a12.33,12.33,0,0,0,3-.34A6.23,6.23,0,0,0,121.13,51a5.42,5.42,0,0,0,1.59-2.07,7.61,7.61,0,0,0,.58-3.15,6.28,6.28,0,0,0-.58-2.8,5.62,5.62,0,0,0-1.56-2,6.82,6.82,0,0,0-2.3-1.16,10.14,10.14,0,0,0-2.78-.38h-2.74Z"/><path class="cls-1" d="M131.21,35h4.63V56.92h-4.63Z"/><path class="cls-1" d="M140.07,35h8.14a14.26,14.26,0,0,1,3,.32,7,7,0,0,1,2.52,1.09,5.25,5.25,0,0,1,1.73,2,7.24,7.24,0,0,1,.64,3.2,6.64,6.64,0,0,1-1.16,4,5.18,5.18,0,0,1-3.39,2.06L157,56.92h-5.56L147,48.16H144.7v8.76h-4.63Zm4.63,9.07h2.74c.41,0,.85,0,1.32,0a3.76,3.76,0,0,0,1.26-.28A2.15,2.15,0,0,0,151,43a2.29,2.29,0,0,0,.37-1.4,2.38,2.38,0,0,0-.33-1.33,2.16,2.16,0,0,0-.83-.76,3.67,3.67,0,0,0-1.16-.35,9.32,9.32,0,0,0-1.28-.1h-3Z"/><path class="cls-1" d="M159.51,35H173.8v4.46h-9.66v4.08h9.13V48h-9.13v4.46h10.2v4.46H159.51Z"/><path class="cls-1" d="M191.82,40.69a4.73,4.73,0,0,0-1.68-1.33,5.9,5.9,0,0,0-4.73.07,5.77,5.77,0,0,0-1.93,1.47,6.83,6.83,0,0,0-1.28,2.24,8.34,8.34,0,0,0-.46,2.82,8.24,8.24,0,0,0,.46,2.83A7.23,7.23,0,0,0,183.46,51a5.83,5.83,0,0,0,1.89,1.47,5.27,5.27,0,0,0,2.33.53A4.94,4.94,0,0,0,192,50.67l3.87,3a8.11,8.11,0,0,1-3.39,2.88,10.11,10.11,0,0,1-4.22.93,12.43,12.43,0,0,1-4.55-.81,10.35,10.35,0,0,1-3.6-2.31,10.56,10.56,0,0,1-2.36-3.63,13.81,13.81,0,0,1,0-9.54,10.21,10.21,0,0,1,6-5.95,12.64,12.64,0,0,1,4.55-.8,11.18,11.18,0,0,1,1.86.17,9.31,9.31,0,0,1,1.9.54,8.85,8.85,0,0,1,1.8,1,7.39,7.39,0,0,1,1.54,1.52Z"/><path class="cls-1" d="M202.49,39.27h-6V35h16.65v4.27h-6V56.92h-4.63Z"/><circle class="cls-2" cx="45.66" cy="45.66" r="44.59"/><path class="cls-1" d="M72.53,33.68a8.26,8.26,0,0,1,6.06,2.55,14.46,14.46,0,0,1,2.93,5.05c.07.22.14.33.36.29l.88-.15c.15,0,.15-.21.15-.51l-.37-7.31c0-.29-.07-.51-.44-.51-.22,0-.33.11-.51.37l-.44.58c-.22.29-.44.4-.87.07a13.54,13.54,0,0,0-7.46-2c-6.75,0-11.59,1.45-14.72,11.19l-3,7.83L50.55,40.93s-1.91-4.56-2.74-4.56S45,40.62,45,40.62,40.09,51.18,39.8,52l-.08,0L34,35a.88.88,0,0,1,.88-1.28h.69c.26,0,.33-.11.33-.29v-.92c0-.18-.07-.25-.29-.25l-3.58.09c-.17,0-.44.53-.71,1.23-1.11,2.5-6.44,14.12-6.74,15h-.15l-6.61-15.4c-.15-.44-.4-.8-.92-.8s-.8.58-1,.95c-.73,1.83-8.18,22.29-8.55,23.1a1.79,1.79,0,0,1-1.61,1.2H2.9c-.22,0-.26.11-.26.3v1c0,.11.08.19.22.19.3,0,3.56-.11,5.61-.11,2.26,0,3.5.11,3.87.11s.29-.11.29-.3V58c0-.19,0-.3-.25-.3h-1c-.88,0-1.24-.51-1.24-1,0-2,4.16-14.07,5.26-17.29h.15l5.26,13.06s1.2,2.86,1.95,2.86c1.15,0,2.87-4,2.87-4s4.94-11,5.23-11.78l.07,0,5.69,16.89a.87.87,0,0,1-.88,1.27h-.69c-.26,0-.33.11-.33.3v.91c0,.18.07.26.29.26s1.23,0,3-.07a1,1,0,0,0,.69-.31,1.11,1.11,0,0,0,.37-.49c.15-.4,6.62-14,6.95-15.05h.14L52.81,58.2c.15.44.4.81.91.81,2,0,2.61-.78,3.39-3,.41-1.15,2.79-7.86,5-13.56C64.63,35.66,68.57,33.68,72.53,33.68ZM90,47.25c-.37,0-7.29.11-10.35.11s-4.76-.11-5.2-.11c-.14,0-.21.07-.21.29v.84c0,.18.07.33.29.33H76.1c1,0,1.32.37,1.32,1.68v2.67c0,1.9-.07,2.92-.88,3.36-1.24.66-2.63.61-5,.61-3.63,0-6.24-2.28-9.24-4.7-.46-.37-.71-.19-.83,0s-.59,1.39-.72,1.7A.87.87,0,0,0,61,55.09c2.52,2.8,6.82,4,10.29,4a21.1,21.1,0,0,0,10.38-2.41c.36-.14.58-.29.58-.58s-.14-.66-.14-1.17V50.06c0-1.06.44-1.35,1.09-1.35h6.92c.22,0,.29-.07.29-.29V47.5C90.4,47.32,90.33,47.25,90,47.25Z"/><path class="cls-1" d="M108.58,74.11h-.86l1.5-8.49h.86Z"/><path class="cls-1" d="M112.42,68.5c0,.15,0,.32-.06.5s0,.34-.08.46h0a2.22,2.22,0,0,1,.83-.81,2.16,2.16,0,0,1,1.09-.3,2.05,2.05,0,0,1,1.43.47,1.58,1.58,0,0,1,.51,1.25,1.46,1.46,0,0,1,0,.29c0,.09,0,.2,0,.31l-.62,3.44h-.81l.56-3.11a4.37,4.37,0,0,0,.07-.7,1.4,1.4,0,0,0-.28-.93,1.18,1.18,0,0,0-1-.34,1.68,1.68,0,0,0-.65.13,1.65,1.65,0,0,0-.6.41,2.55,2.55,0,0,0-.5.68,3.13,3.13,0,0,0-.31,1l-.51,2.88h-.8l.77-4.38c0-.15.06-.34.1-.58s.06-.46.08-.65Z"/><path class="cls-1" d="M121.32,69.73a1.43,1.43,0,0,0-.5-.51A1.62,1.62,0,0,0,120,69a2.42,2.42,0,0,0-.45,0,2,2,0,0,0-.43.16,1,1,0,0,0-.32.28.69.69,0,0,0-.13.43.81.81,0,0,0,.08.37.74.74,0,0,0,.22.25,1.9,1.9,0,0,0,.35.17,3.2,3.2,0,0,0,.47.16,3.36,3.36,0,0,1,1.26.6,1.31,1.31,0,0,1,.43,1,1.46,1.46,0,0,1-.21.79,1.75,1.75,0,0,1-.51.54,2.32,2.32,0,0,1-.7.3,2.82,2.82,0,0,1-.75.1A3.43,3.43,0,0,1,118,74a2.18,2.18,0,0,1-1-.8l.7-.46a1.67,1.67,0,0,0,.61.6,1.84,1.84,0,0,0,1,.24,2.24,2.24,0,0,0,.52,0,1.74,1.74,0,0,0,.45-.17.81.81,0,0,0,.31-.3.78.78,0,0,0,.12-.44.77.77,0,0,0-.35-.68,5,5,0,0,0-1-.45,5.27,5.27,0,0,1-.51-.19,1.71,1.71,0,0,1-.45-.28,1.34,1.34,0,0,1-.33-.42,1.26,1.26,0,0,1-.13-.6,1.4,1.4,0,0,1,.2-.75,1.87,1.87,0,0,1,.5-.51,2.35,2.35,0,0,1,.69-.29,3.39,3.39,0,0,1,.77-.1,2.57,2.57,0,0,1,1.16.26,1.62,1.62,0,0,1,.74.67Z"/><path class="cls-1" d="M126.66,74.11c0-.15,0-.32.06-.5s0-.34.07-.46h0a2.32,2.32,0,0,1-.84.81,2.1,2.1,0,0,1-1.08.3,2,2,0,0,1-1.42-.46,1.58,1.58,0,0,1-.51-1.25,2.62,2.62,0,0,1,0-.28c0-.1,0-.2,0-.32l.62-3.44h.8l-.55,3.11a3.6,3.6,0,0,0-.07.7,1.38,1.38,0,0,0,.28.93,1.18,1.18,0,0,0,1,.33,1.68,1.68,0,0,0,.65-.13,1.8,1.8,0,0,0,.6-.4,2.55,2.55,0,0,0,.5-.68,3.32,3.32,0,0,0,.31-1l.5-2.88h.81l-.77,4.38c0,.15-.07.35-.1.58s-.06.46-.08.64Z"/><path class="cls-1" d="M130.41,69.15c0-.25.06-.46.08-.65h.77c0,.15,0,.32-.06.5s0,.34-.08.46h0a2.52,2.52,0,0,1,.79-.8,1.92,1.92,0,0,1,1.08-.31h.28l.25,0-.19.77a1.19,1.19,0,0,0-.23-.05l-.33,0a1.76,1.76,0,0,0-.63.12,1.63,1.63,0,0,0-.57.38,2.41,2.41,0,0,0-.46.66,3.4,3.4,0,0,0-.29,1l-.51,2.88h-.8l.77-4.38C130.34,69.58,130.37,69.39,130.41,69.15Z"/><path class="cls-1" d="M137.63,70.67c0-.14,0-.24.05-.32s0-.15,0-.21a1,1,0,0,0-.35-.86,1.62,1.62,0,0,0-1-.25,2.47,2.47,0,0,0-1,.19,2.66,2.66,0,0,0-.78.48l-.36-.54a3.15,3.15,0,0,1,1-.59,3.62,3.62,0,0,1,1.19-.22,3.1,3.1,0,0,1,.76.09,1.79,1.79,0,0,1,.64.29,1.49,1.49,0,0,1,.43.5,1.58,1.58,0,0,1,.16.74c0,.07,0,.17,0,.3s0,.22,0,.3L138,72.85c0,.22-.07.44-.1.68s0,.42,0,.58h-.72c0-.13,0-.28,0-.44s0-.32.06-.47h0a3.51,3.51,0,0,1-.48.47,2.06,2.06,0,0,1-.49.32,2.62,2.62,0,0,1-.56.18,4.16,4.16,0,0,1-.64,0,2.44,2.44,0,0,1-.59-.07,1.48,1.48,0,0,1-.54-.25,1.28,1.28,0,0,1-.41-.45,1.29,1.29,0,0,1-.16-.68,1.57,1.57,0,0,1,.38-1.09,2.48,2.48,0,0,1,1-.63,5.79,5.79,0,0,1,1.39-.3A13.3,13.3,0,0,1,137.63,70.67Zm-.3.61c-.36,0-.73,0-1.11,0a5.11,5.11,0,0,0-1,.21,2.06,2.06,0,0,0-.76.42.94.94,0,0,0-.29.71,1,1,0,0,0,.09.44.78.78,0,0,0,.26.28,1.35,1.35,0,0,0,.37.14,2.09,2.09,0,0,0,.43,0,2,2,0,0,0,.79-.14,2.23,2.23,0,0,0,.64-.4,2.32,2.32,0,0,0,.45-.58,2.46,2.46,0,0,0,.26-.7l.08-.47Z"/><path class="cls-1" d="M141.49,68.5c0,.15,0,.32-.06.5s-.05.34-.07.46h0a2.32,2.32,0,0,1,.84-.81,2.11,2.11,0,0,1,1.09-.3,2.05,2.05,0,0,1,1.43.47,1.58,1.58,0,0,1,.51,1.25c0,.09,0,.19,0,.29s0,.2,0,.31l-.62,3.44h-.81l.55-3.11a3.46,3.46,0,0,0,.07-.7,1.45,1.45,0,0,0-.27-.93,1.19,1.19,0,0,0-1-.34,1.64,1.64,0,0,0-.65.13,1.68,1.68,0,0,0-.61.41,2.79,2.79,0,0,0-.5.68,3.76,3.76,0,0,0-.31,1l-.5,2.88h-.81l.77-4.38c0-.15.07-.34.1-.58a6.34,6.34,0,0,0,.08-.65Z"/><path class="cls-1" d="M151.27,69.77a1.13,1.13,0,0,0-.5-.54A1.62,1.62,0,0,0,150,69a2.31,2.31,0,0,0-1,.21,2.34,2.34,0,0,0-.79.6,2.64,2.64,0,0,0-.51.88,2.85,2.85,0,0,0-.19,1.06,2.09,2.09,0,0,0,.12.72,1.65,1.65,0,0,0,.35.57,1.9,1.9,0,0,0,.57.38,2.07,2.07,0,0,0,.77.13,2,2,0,0,0,1-.2,2.49,2.49,0,0,0,.71-.53l.51.45a3.53,3.53,0,0,1-1,.7,2.92,2.92,0,0,1-1.26.26,3.06,3.06,0,0,1-1.08-.18,2.33,2.33,0,0,1-.82-.49,2.13,2.13,0,0,1-.53-.76,2.63,2.63,0,0,1-.18-1,3.78,3.78,0,0,1,.24-1.36,3.39,3.39,0,0,1,.68-1.11,3.14,3.14,0,0,1,1.07-.75,3.24,3.24,0,0,1,1.38-.28,3.09,3.09,0,0,1,1.17.23,1.61,1.61,0,0,1,.82.72Z"/><path class="cls-1" d="M153.29,71.52a.78.78,0,0,0,0,.14s0,.09,0,.13a1.89,1.89,0,0,0,.14.72,1.61,1.61,0,0,0,.39.57,1.7,1.7,0,0,0,.57.37,1.88,1.88,0,0,0,.72.13,2.16,2.16,0,0,0,1.15-.29,2.68,2.68,0,0,0,.79-.69l.5.48a3,3,0,0,1-1.14.88,3.23,3.23,0,0,1-1.38.3,3,3,0,0,1-1-.17,2.21,2.21,0,0,1-1.35-1.26,2.46,2.46,0,0,1-.2-1,3.38,3.38,0,0,1,.25-1.3,3.49,3.49,0,0,1,.69-1.09,3.18,3.18,0,0,1,1-.75,2.93,2.93,0,0,1,1.28-.29,2.37,2.37,0,0,1,1.75.61,2.22,2.22,0,0,1,.59,1.59c0,.1,0,.24,0,.44a3.89,3.89,0,0,1-.09.53Zm3.92-.6a1.25,1.25,0,0,0,0-.21c0-.07,0-.14,0-.21a1.48,1.48,0,0,0-.4-1.06,1.51,1.51,0,0,0-1.16-.41,2.26,2.26,0,0,0-.83.14,2.44,2.44,0,0,0-.67.42,3.19,3.19,0,0,0-.5.6,2.4,2.4,0,0,0-.28.73Z"/><path class="cls-1" d="M165.29,69.17H164l-.87,4.94h-.8l.86-4.94H162l.13-.67h1.16l.27-1.53a3.65,3.65,0,0,1,.22-.8,2.27,2.27,0,0,1,.42-.65,1.91,1.91,0,0,1,1.46-.62H166l.34.07-.2.71a1.91,1.91,0,0,0-.56-.07,1,1,0,0,0-.85.41,2,2,0,0,0-.22.46,3.39,3.39,0,0,0-.14.57l-.25,1.44h1.34Z"/><path class="cls-1" d="M168.05,74.26a3,3,0,0,1-1.05-.18,2.51,2.51,0,0,1-.82-.5,2.21,2.21,0,0,1-.53-.77,2.46,2.46,0,0,1-.19-1,3.75,3.75,0,0,1,.24-1.34,3.54,3.54,0,0,1,.69-1.1,3.19,3.19,0,0,1,1.06-.75,3.12,3.12,0,0,1,1.34-.28,2.89,2.89,0,0,1,1.05.18,2.21,2.21,0,0,1,.82.5,2.26,2.26,0,0,1,.53.76,2.46,2.46,0,0,1,.19,1,3.76,3.76,0,0,1-.24,1.35,3.59,3.59,0,0,1-.69,1.11,3.32,3.32,0,0,1-1.06.74A3.28,3.28,0,0,1,168.05,74.26Zm2.49-3.43a2.09,2.09,0,0,0-.12-.72,1.52,1.52,0,0,0-.35-.57,1.67,1.67,0,0,0-.57-.38,2,2,0,0,0-.75-.13,2.1,2.1,0,0,0-1,.22,2.5,2.5,0,0,0-.77.6,2.8,2.8,0,0,0-.5.88,2.84,2.84,0,0,0-.19,1,2.09,2.09,0,0,0,.12.72,1.65,1.65,0,0,0,.35.57,1.85,1.85,0,0,0,.56.38,2,2,0,0,0,.75.13,2.18,2.18,0,0,0,1-.22,2.36,2.36,0,0,0,.77-.59,2.62,2.62,0,0,0,.5-.88A3.06,3.06,0,0,0,170.54,70.83Z"/><path class="cls-1" d="M173.39,69.15a6.34,6.34,0,0,0,.08-.65h.77c0,.15,0,.32-.06.5s-.05.34-.07.46h0a2.52,2.52,0,0,1,.79-.8,1.92,1.92,0,0,1,1.08-.31h.28l.25,0-.19.77a1,1,0,0,0-.22-.05l-.33,0a1.77,1.77,0,0,0-.64.12,1.63,1.63,0,0,0-.57.38,2.39,2.39,0,0,0-.45.66,3.39,3.39,0,0,0-.3,1l-.5,2.88h-.81l.77-4.38C173.32,69.58,173.36,69.39,173.39,69.15Z"/><path class="cls-1" d="M180.38,74.11h-.85l1.5-8.49h.85Z"/><path class="cls-1" d="M184.22,68.5c0,.15,0,.32-.06.5a3.5,3.5,0,0,1-.07.46h0a2.22,2.22,0,0,1,.83-.81,2.13,2.13,0,0,1,1.09-.3,2.05,2.05,0,0,1,1.43.47,1.58,1.58,0,0,1,.51,1.25c0,.09,0,.19,0,.29s0,.2,0,.31l-.62,3.44h-.81L187,71a3.5,3.5,0,0,0,.08-.7,1.45,1.45,0,0,0-.28-.93,1.18,1.18,0,0,0-1-.34,1.78,1.78,0,0,0-1.26.54,2.76,2.76,0,0,0-.49.68,3.42,3.42,0,0,0-.32,1l-.5,2.88h-.8l.76-4.38c0-.15.07-.34.11-.58s.06-.46.07-.65Z"/><path class="cls-1" d="M189.29,71.83a3.76,3.76,0,0,1,.24-1.35,3.59,3.59,0,0,1,.69-1.11,3.39,3.39,0,0,1,1.05-.74,3.1,3.1,0,0,1,1.32-.28,2.35,2.35,0,0,1,1.14.28,1.77,1.77,0,0,1,.81.81h0l.78-4.4h.8l-1.61,9.07h-.8l.17-.92h0a2.31,2.31,0,0,1-.82.75,2.46,2.46,0,0,1-1.24.32,2.87,2.87,0,0,1-1-.18,2.22,2.22,0,0,1-1.31-1.26A2.64,2.64,0,0,1,189.29,71.83Zm.84,0a2.3,2.3,0,0,0,.11.71,1.63,1.63,0,0,0,.34.57,1.71,1.71,0,0,0,.56.39,1.9,1.9,0,0,0,.75.13,2.38,2.38,0,0,0,1-.21,2.55,2.55,0,0,0,.79-.6,2.94,2.94,0,0,0,.53-.87,3.07,3.07,0,0,0,.19-1.06,1.93,1.93,0,0,0-.13-.73,1.54,1.54,0,0,0-.36-.57,1.62,1.62,0,0,0-.58-.38,2,2,0,0,0-.74-.13,2.37,2.37,0,0,0-1,.21,2.47,2.47,0,0,0-.77.59,2.68,2.68,0,0,0-.5.87A3.49,3.49,0,0,0,190.13,71.78Z"/><path class="cls-1" d="M197.48,74.11h-.8l1-5.61h.8ZM199,66.32a.56.56,0,0,1-.16.41.51.51,0,0,1-.4.17.56.56,0,0,1-.39-.14.51.51,0,0,1-.17-.4.54.54,0,0,1,.18-.42.56.56,0,0,1,.4-.17.53.53,0,0,1,.54.55Z"/><path class="cls-1" d="M201.59,74.11h-.87l-1.17-5.61h.83l.9,4.75h0l2.8-4.75H205Z"/><path class="cls-1" d="M206,74.11h-.8l1-5.61h.8Zm1.48-7.79a.56.56,0,0,1-.16.41.51.51,0,0,1-.4.17.56.56,0,0,1-.39-.14.51.51,0,0,1-.17-.4.54.54,0,0,1,.18-.42.56.56,0,0,1,.4-.17.53.53,0,0,1,.54.55Z"/><path class="cls-1" d="M208.06,71.83a3.76,3.76,0,0,1,.24-1.35,3.59,3.59,0,0,1,.69-1.11,3.39,3.39,0,0,1,1-.74,3.07,3.07,0,0,1,1.32-.28,2.38,2.38,0,0,1,1.14.28,1.77,1.77,0,0,1,.81.81h0l.78-4.4h.81l-1.61,9.07h-.8l.16-.92h0a2.26,2.26,0,0,1-.83.75,2.45,2.45,0,0,1-1.23.32,2.84,2.84,0,0,1-1-.18,2.13,2.13,0,0,1-.8-.5,2.21,2.21,0,0,1-.51-.76A2.46,2.46,0,0,1,208.06,71.83Zm.84,0a2,2,0,0,0,.11.71,1.63,1.63,0,0,0,.34.57,1.67,1.67,0,0,0,.55.39,2,2,0,0,0,.76.13,2.3,2.3,0,0,0,1-.21,2.48,2.48,0,0,0,.8-.6,2.92,2.92,0,0,0,.52-.87,2.85,2.85,0,0,0,.19-1.06,2.15,2.15,0,0,0-.12-.73,1.56,1.56,0,0,0-.37-.57,1.59,1.59,0,0,0-.57-.38,2,2,0,0,0-.75-.13,2.25,2.25,0,0,0-1.77.8,2.68,2.68,0,0,0-.5.87A3.22,3.22,0,0,0,208.9,71.78Z"/><path class="cls-1" d="M219.37,74.11c0-.15,0-.32.06-.5s0-.34.07-.46h0a2.3,2.3,0,0,1-.83.81,2.16,2.16,0,0,1-1.09.3,2,2,0,0,1-1.42-.46,1.58,1.58,0,0,1-.51-1.25,1.32,1.32,0,0,1,0-.28c0-.1,0-.2,0-.32l.62-3.44h.8l-.55,3.11a4.6,4.6,0,0,0-.07.7,1.38,1.38,0,0,0,.28.93,1.19,1.19,0,0,0,1,.33,1.63,1.63,0,0,0,.64-.13,2,2,0,0,0,.61-.4,2.76,2.76,0,0,0,.49-.68,3.32,3.32,0,0,0,.31-1l.5-2.88h.81l-.77,4.38c0,.15-.06.35-.1.58s-.06.46-.08.64Z"/><path class="cls-1" d="M226.41,70.67c0-.14,0-.24.05-.32a1.55,1.55,0,0,0,0-.21,1,1,0,0,0-.34-.86,1.65,1.65,0,0,0-1-.25,2.5,2.5,0,0,0-1,.19,3,3,0,0,0-.78.48l-.36-.54a3.32,3.32,0,0,1,1-.59,3.62,3.62,0,0,1,1.19-.22,3.16,3.16,0,0,1,.76.09,1.87,1.87,0,0,1,.64.29,1.49,1.49,0,0,1,.43.5,1.58,1.58,0,0,1,.16.74c0,.07,0,.17,0,.3a2,2,0,0,1,0,.3l-.4,2.28c0,.22-.08.44-.1.68a4.45,4.45,0,0,0,0,.58h-.72c0-.13,0-.28,0-.44s0-.32.05-.47h0a3.51,3.51,0,0,1-.48.47,2.11,2.11,0,0,1-.5.32,2.37,2.37,0,0,1-.55.18,4.26,4.26,0,0,1-.64,0,2.44,2.44,0,0,1-.59-.07,1.61,1.61,0,0,1-.55-.25,1.25,1.25,0,0,1-.4-.45,1.29,1.29,0,0,1-.17-.68,1.53,1.53,0,0,1,.39-1.09,2.48,2.48,0,0,1,1-.63,5.68,5.68,0,0,1,1.39-.3A13.13,13.13,0,0,1,226.41,70.67Zm-.3.61c-.36,0-.72,0-1.1,0a4.83,4.83,0,0,0-1,.21,2,2,0,0,0-.76.42.91.91,0,0,0-.29.71,1,1,0,0,0,.09.44.7.7,0,0,0,.26.28,1.35,1.35,0,0,0,.37.14,2,2,0,0,0,.43,0,2,2,0,0,0,1.42-.54,2.14,2.14,0,0,0,.46-.58,2.44,2.44,0,0,0,.25-.7l.09-.47Z"/><path class="cls-1" d="M229.39,74.11h-.82l1.6-9.07H231Z"/><path class="cls-1" d="M235.28,69.73a1.43,1.43,0,0,0-.5-.51A1.55,1.55,0,0,0,234,69a2.28,2.28,0,0,0-.45,0,2.09,2.09,0,0,0-.44.16,1,1,0,0,0-.32.28.75.75,0,0,0-.13.43.81.81,0,0,0,.08.37.86.86,0,0,0,.22.25,1.9,1.9,0,0,0,.35.17,3.67,3.67,0,0,0,.47.16,3.36,3.36,0,0,1,1.26.6,1.27,1.27,0,0,1,.43,1,1.54,1.54,0,0,1-.2.79,1.91,1.91,0,0,1-.52.54,2.32,2.32,0,0,1-.7.3,2.76,2.76,0,0,1-.75.1A3.47,3.47,0,0,1,232,74a2.1,2.1,0,0,1-1-.8l.69-.46a1.67,1.67,0,0,0,.61.6,1.86,1.86,0,0,0,1,.24,2.24,2.24,0,0,0,.52,0,1.5,1.5,0,0,0,.45-.17.84.84,0,0,0,.32-.3.78.78,0,0,0,.12-.44.77.77,0,0,0-.36-.68,4.7,4.7,0,0,0-1-.45,4.29,4.29,0,0,1-.5-.19,1.77,1.77,0,0,1-.46-.28,1.34,1.34,0,0,1-.33-.42,1.26,1.26,0,0,1-.13-.6,1.4,1.4,0,0,1,.2-.75,1.77,1.77,0,0,1,.51-.51,2.14,2.14,0,0,1,.69-.29,3.3,3.3,0,0,1,.76-.1,2.57,2.57,0,0,1,1.16.26,1.57,1.57,0,0,1,.74.67Z"/><path class="cls-1" d="M236.53,75.79h-.68l1.3-2.82H238Z"/><path class="cls-1" d="M108.58,88.51h-.86l1.5-8.49h5l-.13.75h-4.16l-.52,3h3.85l-.12.73H109.3Z"/><path class="cls-1" d="M117.76,85.07a2.74,2.74,0,0,0,0-.32,1.49,1.49,0,0,0,0-.21,1,1,0,0,0-.35-.86,1.62,1.62,0,0,0-1-.25,2.55,2.55,0,0,0-1,.19,3,3,0,0,0-.78.48l-.36-.54a3.11,3.11,0,0,1,1-.58,3.39,3.39,0,0,1,1.19-.23,3.16,3.16,0,0,1,.76.09,1.79,1.79,0,0,1,.64.29,1.43,1.43,0,0,1,.43.51,1.51,1.51,0,0,1,.16.73c0,.07,0,.17,0,.3a2,2,0,0,1,0,.3l-.4,2.28c0,.22-.08.44-.1.68s0,.42,0,.58h-.72c0-.13,0-.28,0-.44a3.55,3.55,0,0,1,.06-.47h0a3.51,3.51,0,0,1-.48.47,1.93,1.93,0,0,1-.5.32,2.37,2.37,0,0,1-.55.18,4.16,4.16,0,0,1-.64.05,2.44,2.44,0,0,1-.59-.07,1.48,1.48,0,0,1-.54-.25,1.28,1.28,0,0,1-.41-.45,1.29,1.29,0,0,1-.16-.68,1.53,1.53,0,0,1,.38-1.09,2.6,2.6,0,0,1,1-.63,5.68,5.68,0,0,1,1.39-.3C116.72,85.1,117.24,85.07,117.76,85.07Zm-.3.61c-.36,0-.73,0-1.11,0a5,5,0,0,0-1,.21,2.06,2.06,0,0,0-.76.42.91.91,0,0,0-.29.71.93.93,0,0,0,.09.44.78.78,0,0,0,.26.28,1.09,1.09,0,0,0,.37.14,2.31,2.31,0,0,0,1.22-.1,2.23,2.23,0,0,0,.64-.4,2.15,2.15,0,0,0,.45-.58,2.17,2.17,0,0,0,.25-.7l.09-.47Z"/><path class="cls-1" d="M127,82.75a2,2,0,0,1,1.42.47,1.58,1.58,0,0,1,.51,1.25,2.83,2.83,0,0,1,0,.29c0,.09,0,.2,0,.31l-.62,3.44h-.81L128,85.4a3.5,3.5,0,0,0,.08-.7,1.47,1.47,0,0,0-.28-.93,1.18,1.18,0,0,0-1-.34,1.4,1.4,0,0,0-.76.18,1.56,1.56,0,0,0-.54.48,2.25,2.25,0,0,0-.35.67,4.83,4.83,0,0,0-.2.77l-.53,3h-.8l.59-3.26a5.11,5.11,0,0,0,.07-.73,1.18,1.18,0,0,0-.25-.8,1.06,1.06,0,0,0-.87-.29,1.51,1.51,0,0,0-.6.13A1.85,1.85,0,0,0,122,84a3,3,0,0,0-.49.68,3.42,3.42,0,0,0-.31,1l-.5,2.88h-.81l.77-4.38c0-.15.07-.34.1-.58s.06-.46.08-.65h.77c0,.15,0,.32-.06.5s0,.34-.07.46h0a2.49,2.49,0,0,1,.84-.81,2.1,2.1,0,0,1,1.11-.3,2.59,2.59,0,0,1,.47,0,1.37,1.37,0,0,1,.47.19,1.33,1.33,0,0,1,.39.36,1.59,1.59,0,0,1,.24.59,2.43,2.43,0,0,1,.83-.88A2.23,2.23,0,0,1,127,82.75Z"/><path class="cls-1" d="M131.09,88.51h-.81l1-5.61h.8Zm1.47-7.78a.54.54,0,0,1-.16.4.51.51,0,0,1-.4.17.6.6,0,0,1-.39-.14.51.51,0,0,1-.16-.4.58.58,0,0,1,.57-.59.54.54,0,0,1,.39.15A.56.56,0,0,1,132.56,80.73Z"/><path class="cls-1" d="M134,88.51h-.81l1.59-9.07h.82Z"/><path class="cls-1" d="M136.9,88.51h-.81l1-5.61h.8Zm1.47-7.78a.54.54,0,0,1-.16.4.51.51,0,0,1-.4.17.6.6,0,0,1-.39-.14.51.51,0,0,1-.16-.4.54.54,0,0,1,.17-.42.58.58,0,0,1,.4-.17.52.52,0,0,1,.54.56Z"/><path class="cls-1" d="M139.79,85.92a.78.78,0,0,0,0,.14s0,.09,0,.13a1.89,1.89,0,0,0,.14.72,1.61,1.61,0,0,0,.39.57,1.7,1.7,0,0,0,.57.37,1.88,1.88,0,0,0,.72.13,2.16,2.16,0,0,0,1.15-.29,2.54,2.54,0,0,0,.79-.69l.5.48a3,3,0,0,1-1.14.88,3.23,3.23,0,0,1-1.38.3,3,3,0,0,1-1-.17,2.21,2.21,0,0,1-1.35-1.26,2.44,2.44,0,0,1-.2-1,3.39,3.39,0,0,1,.25-1.31,3.49,3.49,0,0,1,.69-1.09,3.18,3.18,0,0,1,1-.75,2.93,2.93,0,0,1,1.28-.29,2.37,2.37,0,0,1,1.75.61,2.22,2.22,0,0,1,.59,1.59c0,.1,0,.24,0,.44a3.89,3.89,0,0,1-.09.53Zm3.92-.6a1.25,1.25,0,0,0,0-.21c0-.07,0-.14,0-.21a1.48,1.48,0,0,0-.4-1.06,1.51,1.51,0,0,0-1.16-.41,2.49,2.49,0,0,0-.83.14,2.44,2.44,0,0,0-.67.42,3,3,0,0,0-.5.61,2.34,2.34,0,0,0-.28.72Z"/><path class="cls-1" d="M149.47,84.13a1.43,1.43,0,0,0-.5-.51,1.59,1.59,0,0,0-.81-.19,2.42,2.42,0,0,0-.45,0,2,2,0,0,0-.43.16,1,1,0,0,0-.32.28.69.69,0,0,0-.13.43.81.81,0,0,0,.08.37.75.75,0,0,0,.22.25,2.81,2.81,0,0,0,.35.18l.47.15a3.36,3.36,0,0,1,1.26.6,1.29,1.29,0,0,1,.43,1,1.54,1.54,0,0,1-.2.79,1.79,1.79,0,0,1-.52.54,2.09,2.09,0,0,1-.7.3,2.76,2.76,0,0,1-.75.1,3.47,3.47,0,0,1-1.33-.26,2,2,0,0,1-1-.8l.69-.45a1.73,1.73,0,0,0,.61.59,1.86,1.86,0,0,0,1,.24,2.24,2.24,0,0,0,.52,0,1.28,1.28,0,0,0,.45-.17.84.84,0,0,0,.32-.3.78.78,0,0,0,.12-.44.77.77,0,0,0-.36-.68,4.7,4.7,0,0,0-1-.45,5.27,5.27,0,0,1-.51-.19,1.89,1.89,0,0,1-.45-.28,1.34,1.34,0,0,1-.33-.42,1.26,1.26,0,0,1-.13-.6,1.4,1.4,0,0,1,.2-.75,1.87,1.87,0,0,1,.5-.51,2.35,2.35,0,0,1,.69-.29,3.46,3.46,0,0,1,.77-.1,2.57,2.57,0,0,1,1.16.26,1.57,1.57,0,0,1,.74.67Z"/><path class="cls-1" d="M150.72,90.19H150l1.3-2.82h.86Z"/><path class="cls-1" d="M160.58,85.07c0-.14,0-.24,0-.32a1.48,1.48,0,0,0,0-.21,1,1,0,0,0-.34-.86,1.65,1.65,0,0,0-1-.25,2.5,2.5,0,0,0-1,.19,3,3,0,0,0-.78.48l-.36-.54a3,3,0,0,1,1-.58,3.39,3.39,0,0,1,1.19-.23,3.16,3.16,0,0,1,.76.09,1.87,1.87,0,0,1,.64.29,1.43,1.43,0,0,1,.43.51,1.51,1.51,0,0,1,.16.73c0,.07,0,.17,0,.3a2,2,0,0,1,0,.3l-.41,2.28c0,.22-.07.44-.09.68a4.45,4.45,0,0,0,0,.58h-.72c0-.13,0-.28,0-.44s0-.32,0-.47h0a3.51,3.51,0,0,1-.48.47,2.11,2.11,0,0,1-.5.32,2.37,2.37,0,0,1-.55.18,4.26,4.26,0,0,1-.64.05,2.44,2.44,0,0,1-.59-.07,1.61,1.61,0,0,1-.55-.25,1.25,1.25,0,0,1-.4-.45,1.29,1.29,0,0,1-.17-.68,1.53,1.53,0,0,1,.39-1.09,2.52,2.52,0,0,1,1-.63,5.58,5.58,0,0,1,1.39-.3C159.55,85.1,160.06,85.07,160.58,85.07Zm-.3.61c-.36,0-.72,0-1.1,0a5.07,5.07,0,0,0-1,.21,2,2,0,0,0-.75.42,1,1,0,0,0-.2,1.15.7.7,0,0,0,.26.28,1.09,1.09,0,0,0,.37.14,2,2,0,0,0,.43,0,2,2,0,0,0,1.42-.54,2,2,0,0,0,.46-.58,2.44,2.44,0,0,0,.25-.7l.09-.47Z"/><path class="cls-1" d="M164.45,82.9c0,.15,0,.32-.06.5s0,.34-.07.46h0a2.32,2.32,0,0,1,.84-.81,2.11,2.11,0,0,1,1.09-.3,2,2,0,0,1,1.42.47,1.58,1.58,0,0,1,.51,1.25,2.81,2.81,0,0,1,0,.29c0,.09,0,.2-.05.31l-.62,3.44h-.8l.55-3.11a3.46,3.46,0,0,0,.07-.7,1.41,1.41,0,0,0-.28-.93,1.16,1.16,0,0,0-1-.34,1.71,1.71,0,0,0-.65.13,1.89,1.89,0,0,0-.6.41,2.55,2.55,0,0,0-.5.68,3.42,3.42,0,0,0-.31,1l-.51,2.88h-.8l.77-4.38c0-.15.06-.34.1-.58s.06-.46.08-.65Z"/><path class="cls-1" d="M169.51,86.23a3.56,3.56,0,0,1,.25-1.35,3.25,3.25,0,0,1,.69-1.11,3.28,3.28,0,0,1,2.36-1A2.54,2.54,0,0,1,174,83a1.84,1.84,0,0,1,.81.82h0l.78-4.41h.81l-1.61,9.07H174l.17-.92h0a2.34,2.34,0,0,1-.83.75,2.46,2.46,0,0,1-1.24.32,2.78,2.78,0,0,1-1-.18,2.13,2.13,0,0,1-.8-.5,2.1,2.1,0,0,1-.52-.76A2.64,2.64,0,0,1,169.51,86.23Zm.84,0a2,2,0,0,0,.12.71,1.5,1.5,0,0,0,.34.57,1.57,1.57,0,0,0,.55.39,2,2,0,0,0,.76.13,2.3,2.3,0,0,0,1-.21,2.44,2.44,0,0,0,.79-.6,2.75,2.75,0,0,0,.53-.87,2.85,2.85,0,0,0,.19-1.06,2.15,2.15,0,0,0-.12-.73,1.7,1.7,0,0,0-.37-.57,1.54,1.54,0,0,0-.58-.38,2,2,0,0,0-.74-.13,2.33,2.33,0,0,0-1,.21,2.51,2.51,0,0,0-.78.59,2.65,2.65,0,0,0-.49.87A3.22,3.22,0,0,0,170.35,86.18Z"/><path class="cls-1" d="M180.68,88.51h-.85l1.5-8.49h2.29a4.32,4.32,0,0,1,1,.12,2.34,2.34,0,0,1,.83.37,1.7,1.7,0,0,1,.55.64,1.81,1.81,0,0,1,.2.9,2.48,2.48,0,0,1-.19,1,2.14,2.14,0,0,1-.53.72,2.53,2.53,0,0,1-.8.46,3.51,3.51,0,0,1-1,.22l1.87,4h-1l-1.78-4h-1.5Zm.83-4.69H183a6.11,6.11,0,0,0,.86-.06,2.45,2.45,0,0,0,.75-.25,1.42,1.42,0,0,0,.55-.51,1.59,1.59,0,0,0,.21-.86,1.18,1.18,0,0,0-.51-1,2.42,2.42,0,0,0-1.39-.35h-1.44Z"/><path class="cls-1" d="M187.54,85.92a.78.78,0,0,0,0,.14.57.57,0,0,0,0,.13,1.89,1.89,0,0,0,.14.72,1.73,1.73,0,0,0,.38.57,1.83,1.83,0,0,0,1.29.5,2.2,2.2,0,0,0,1.16-.29,2.66,2.66,0,0,0,.79-.69l.5.48a3.19,3.19,0,0,1-1.14.88,3.23,3.23,0,0,1-1.38.3,3.06,3.06,0,0,1-1-.17,2.35,2.35,0,0,1-.81-.48,2.47,2.47,0,0,1-.54-.78,2.61,2.61,0,0,1-.19-1,3.39,3.39,0,0,1,.25-1.31,3.49,3.49,0,0,1,.69-1.09,3.07,3.07,0,0,1,1-.75,2.93,2.93,0,0,1,1.28-.29,2.33,2.33,0,0,1,1.74.61,2.18,2.18,0,0,1,.6,1.59c0,.1,0,.24,0,.44a2.81,2.81,0,0,1-.08.53Zm3.92-.6c0-.06,0-.13,0-.21V84.9a1.47,1.47,0,0,0-.39-1.06,1.53,1.53,0,0,0-1.17-.41,2.09,2.09,0,0,0-1.49.56,2.59,2.59,0,0,0-.79,1.33Z"/><path class="cls-1" d="M196.61,83.57h-1.53l-.58,3.3a1.82,1.82,0,0,0,0,.38.6.6,0,0,0,.19.53.88.88,0,0,0,.51.13,1.3,1.3,0,0,0,.37,0,.74.74,0,0,0,.31-.14l-.1.7a1.19,1.19,0,0,1-.4.12,2.87,2.87,0,0,1-.52,0,1.92,1.92,0,0,1-.41,0,1,1,0,0,1-.68-.52,1.25,1.25,0,0,1-.11-.55,1.82,1.82,0,0,1,0-.38l.62-3.52h-1.16l.13-.67h1.14l.27-1.59h.81l-.28,1.59h1.55Z"/><path class="cls-1" d="M197.8,88.51H197l1-5.61h.8Zm1.47-7.78a.54.54,0,0,1-.16.4.51.51,0,0,1-.4.17.6.6,0,0,1-.39-.14.51.51,0,0,1-.16-.4.54.54,0,0,1,.17-.42.58.58,0,0,1,.4-.17.52.52,0,0,1,.54.56Z"/><path class="cls-1" d="M200.74,83.55c0-.24.06-.46.08-.65h.77c0,.15,0,.32-.06.5s-.05.34-.07.46h0a2.52,2.52,0,0,1,.79-.8,2,2,0,0,1,1.08-.31l.28,0a1.18,1.18,0,0,1,.25,0l-.19.77-.22,0-.33,0a1.77,1.77,0,0,0-.64.12,1.63,1.63,0,0,0-.57.38,2.64,2.64,0,0,0-.46.66,3.5,3.5,0,0,0-.29,1l-.5,2.88h-.81l.77-4.38C200.67,84,200.71,83.79,200.74,83.55Z"/><path class="cls-1" d="M204.61,85.92s0,.1,0,.14v.13a1.8,1.8,0,0,0,.52,1.29,1.75,1.75,0,0,0,.58.37,1.83,1.83,0,0,0,.71.13,2.16,2.16,0,0,0,1.15-.29,2.54,2.54,0,0,0,.79-.69l.51.48a3.19,3.19,0,0,1-1.14.88,3.23,3.23,0,0,1-1.38.3,3,3,0,0,1-1-.17,2.35,2.35,0,0,1-.81-.48,2.18,2.18,0,0,1-.54-.78,2.61,2.61,0,0,1-.2-1,3.59,3.59,0,0,1,.25-1.31,3.49,3.49,0,0,1,.69-1.09,3.22,3.22,0,0,1,1-.75,2.89,2.89,0,0,1,1.27-.29,2.37,2.37,0,0,1,1.75.61,2.17,2.17,0,0,1,.59,1.59,4.07,4.07,0,0,1,0,.44,4,4,0,0,1-.08.53Zm3.93-.6c0-.06,0-.13,0-.21a1.48,1.48,0,0,0,0-.21,1.44,1.44,0,0,0-.4-1.06,1.51,1.51,0,0,0-1.16-.41,2.39,2.39,0,0,0-.82.14,2.3,2.3,0,0,0-.67.42,2.43,2.43,0,0,0-.5.61,2.37,2.37,0,0,0-.29.72Z"/><path class="cls-1" d="M211.3,85.92a.78.78,0,0,0,0,.14.57.57,0,0,0,0,.13,1.89,1.89,0,0,0,.14.72,1.73,1.73,0,0,0,.38.57,1.83,1.83,0,0,0,1.29.5,2.2,2.2,0,0,0,1.16-.29A2.66,2.66,0,0,0,215,87l.5.48a3.19,3.19,0,0,1-1.14.88,3.23,3.23,0,0,1-1.38.3,3.06,3.06,0,0,1-1-.17,2.35,2.35,0,0,1-.81-.48,2.31,2.31,0,0,1-.54-.78,2.61,2.61,0,0,1-.19-1,3.39,3.39,0,0,1,.25-1.31,3.49,3.49,0,0,1,.69-1.09,3.07,3.07,0,0,1,1-.75,2.9,2.9,0,0,1,1.28-.29,2.33,2.33,0,0,1,1.74.61,2.18,2.18,0,0,1,.6,1.59c0,.1,0,.24,0,.44a2.81,2.81,0,0,1-.08.53Zm3.92-.6c0-.06,0-.13,0-.21V84.9a1.47,1.47,0,0,0-.39-1.06,1.53,1.53,0,0,0-1.17-.41,2.09,2.09,0,0,0-1.49.56,2.59,2.59,0,0,0-.79,1.33Z"/><path class="cls-1" d="M221,84.13a1.43,1.43,0,0,0-.5-.51,1.62,1.62,0,0,0-.81-.19,2.42,2.42,0,0,0-.45,0,2,2,0,0,0-.43.16,1,1,0,0,0-.32.28.69.69,0,0,0-.13.43.7.7,0,0,0,.08.37.65.65,0,0,0,.22.25,2.81,2.81,0,0,0,.35.18l.47.15a3.36,3.36,0,0,1,1.26.6,1.32,1.32,0,0,1,.43,1,1.46,1.46,0,0,1-.21.79,1.65,1.65,0,0,1-.51.54,2.09,2.09,0,0,1-.7.3,2.82,2.82,0,0,1-.75.1,3.43,3.43,0,0,1-1.33-.26,2.12,2.12,0,0,1-1-.8l.7-.45a1.73,1.73,0,0,0,.61.59,1.84,1.84,0,0,0,.95.24,2.29,2.29,0,0,0,.52,0,1.3,1.3,0,0,0,.44-.17.77.77,0,0,0,.32-.3.78.78,0,0,0,.12-.44.77.77,0,0,0-.35-.68,5,5,0,0,0-1-.45,5.27,5.27,0,0,1-.51-.19,1.71,1.71,0,0,1-.45-.28,1.34,1.34,0,0,1-.33-.42,1.26,1.26,0,0,1-.13-.6,1.4,1.4,0,0,1,.2-.75,1.87,1.87,0,0,1,.5-.51,2.35,2.35,0,0,1,.69-.29,3.39,3.39,0,0,1,.77-.1,2.57,2.57,0,0,1,1.16.26,1.55,1.55,0,0,1,.73.67Z"/></svg>