<svg id="logo-division" xmlns="http://www.w3.org/2000/svg" viewBox="0 0 298.08 91.32"><defs><style>.cls-1{fill:#fff;}.cls-2{fill:none;stroke:#fff;stroke-miterlimit:10;stroke-width:2.14px;}</style></defs><path class="cls-1" d="M106.88,34.91h7a19.4,19.4,0,0,1,4.82.59,10.83,10.83,0,0,1,4,1.91,9.21,9.21,0,0,1,2.69,3.43,11.88,11.88,0,0,1,1,5.13,10.73,10.73,0,0,1-1,4.7,9.87,9.87,0,0,1-2.61,3.42A11.24,11.24,0,0,1,119,56.18a14,14,0,0,1-4.5.72h-7.61Zm4.65,17.52H114a13,13,0,0,0,3-.34,6.36,6.36,0,0,0,2.4-1.14,5.48,5.48,0,0,0,1.59-2.08,7.61,7.61,0,0,0,.58-3.15,6.29,6.29,0,0,0-.58-2.81,5.68,5.68,0,0,0-1.56-2,6.93,6.93,0,0,0-2.32-1.16,9.78,9.78,0,0,0-2.78-.39h-2.75Z"/><path class="cls-1" d="M129.45,34.91h4.65v22h-4.65Z"/><path class="cls-1" d="M138.34,34.91h8.17a13.64,13.64,0,0,1,3.05.33,7.1,7.1,0,0,1,2.54,1.08,5.44,5.44,0,0,1,1.73,2,7.16,7.16,0,0,1,.64,3.22,6.69,6.69,0,0,1-1.16,4,5.24,5.24,0,0,1-3.4,2.06l5.36,9.29H149.7l-4.41-8.79H143V56.9h-4.65ZM143,44h2.74c.42,0,.86,0,1.33,0a3.88,3.88,0,0,0,1.27-.28,2.15,2.15,0,0,0,.94-.73,2.32,2.32,0,0,0,.37-1.39,2.39,2.39,0,0,0-.33-1.34,2.32,2.32,0,0,0-.83-.76,3.49,3.49,0,0,0-1.17-.36A9.29,9.29,0,0,0,146,39h-3Z"/><path class="cls-1" d="M157.84,34.91h14.34v4.47h-9.69v4.1h9.15V48h-9.15v4.48h10.23V56.9H157.84Z"/><path class="cls-1" d="M190.25,40.62a4.57,4.57,0,0,0-1.69-1.33,5.38,5.38,0,0,0-2.31-.47,5.64,5.64,0,0,0-4.36,2,6.9,6.9,0,0,0-1.29,2.25,9,9,0,0,0,0,5.67A7.05,7.05,0,0,0,181.87,51a5.86,5.86,0,0,0,1.89,1.48,5.35,5.35,0,0,0,2.34.53,5,5,0,0,0,2.54-.63,5.18,5.18,0,0,0,1.82-1.73l3.87,3a8.1,8.1,0,0,1-3.4,2.89,10.16,10.16,0,0,1-4.23.93,12.49,12.49,0,0,1-4.56-.81,10.45,10.45,0,0,1-3.61-2.31,10.67,10.67,0,0,1-2.37-3.65,13.89,13.89,0,0,1,0-9.57,10.67,10.67,0,0,1,2.37-3.65,10.45,10.45,0,0,1,3.61-2.31,12.49,12.49,0,0,1,4.56-.81,11,11,0,0,1,1.86.17,10.64,10.64,0,0,1,1.91.54,8.27,8.27,0,0,1,1.81,1,7.42,7.42,0,0,1,1.55,1.52Z"/><path class="cls-1" d="M201,39.2h-6V34.91h16.7V39.2h-6V56.9H201Z"/><circle class="cls-2" cx="45.66" cy="45.66" r="44.59"/><path class="cls-1" d="M72.53,33.68a8.26,8.26,0,0,1,6.06,2.55,14.46,14.46,0,0,1,2.93,5.05c.07.22.14.33.36.29l.88-.15c.15,0,.15-.21.15-.51l-.37-7.31c0-.29-.07-.51-.44-.51-.22,0-.33.11-.51.37l-.44.58c-.22.29-.44.4-.87.07a13.54,13.54,0,0,0-7.46-2c-6.75,0-11.59,1.45-14.72,11.19l-3,7.83L50.55,40.93s-1.91-4.56-2.74-4.56S45,40.62,45,40.62,40.09,51.18,39.8,52l-.08,0L34,35a.88.88,0,0,1,.88-1.28h.69c.26,0,.33-.11.33-.29v-.92c0-.18-.07-.25-.29-.25l-3.58.09c-.17,0-.44.53-.71,1.23-1.11,2.5-6.44,14.12-6.74,15h-.15l-6.61-15.4c-.15-.44-.4-.8-.92-.8s-.8.58-1,.95c-.73,1.83-8.18,22.29-8.55,23.1a1.79,1.79,0,0,1-1.61,1.2H2.9c-.22,0-.26.11-.26.3v1c0,.11.08.19.22.19.3,0,3.56-.11,5.61-.11,2.26,0,3.5.11,3.87.11s.29-.11.29-.3V58c0-.19,0-.3-.25-.3h-1c-.88,0-1.24-.51-1.24-1,0-2,4.16-14.07,5.26-17.29h.15l5.26,13.06s1.2,2.86,1.95,2.86c1.15,0,2.87-4,2.87-4s4.94-11,5.23-11.78l.07,0,5.69,16.89a.87.87,0,0,1-.88,1.27h-.69c-.26,0-.33.11-.33.3v.91c0,.18.07.26.29.26s1.23,0,3-.07a1,1,0,0,0,.69-.31,1.11,1.11,0,0,0,.37-.49c.15-.4,6.62-14,6.95-15.05h.14L52.81,58.2c.15.44.4.81.91.81,2,0,2.61-.78,3.39-3,.41-1.15,2.79-7.86,5-13.56C64.63,35.66,68.57,33.68,72.53,33.68ZM90,47.25c-.37,0-7.29.11-10.35.11s-4.76-.11-5.2-.11c-.14,0-.21.07-.21.29v.84c0,.18.07.33.29.33H76.1c1,0,1.32.37,1.32,1.68v2.67c0,1.9-.07,2.92-.88,3.36-1.24.66-2.63.61-5,.61-3.63,0-6.24-2.28-9.24-4.7-.46-.37-.71-.19-.83,0s-.59,1.39-.72,1.7A.87.87,0,0,0,61,55.09c2.52,2.8,6.82,4,10.29,4a21.1,21.1,0,0,0,10.38-2.41c.36-.14.58-.29.58-.58s-.14-.66-.14-1.17V50.06c0-1.06.44-1.35,1.09-1.35h6.92c.22,0,.29-.07.29-.29V47.5C90.4,47.32,90.33,47.25,90,47.25Z"/><path class="cls-1" d="M108.33,74.2h-.85l1.5-8.49h.85Z"/><path class="cls-1" d="M112.17,68.59c0,.15,0,.32-.06.5s0,.34-.07.46h0a2.41,2.41,0,0,1,.84-.81,2.11,2.11,0,0,1,1.09-.3,2,2,0,0,1,1.42.47,1.58,1.58,0,0,1,.51,1.25,2.81,2.81,0,0,1,0,.29c0,.09,0,.2,0,.31l-.62,3.44h-.8l.55-3.1a3.63,3.63,0,0,0,.07-.71,1.41,1.41,0,0,0-.28-.93,1.16,1.16,0,0,0-1-.34,1.71,1.71,0,0,0-.65.13,1.89,1.89,0,0,0-.6.41,2.45,2.45,0,0,0-.5.69,3.25,3.25,0,0,0-.31,1l-.51,2.88h-.8l.77-4.38c0-.15.06-.34.1-.58s.06-.46.08-.65Z"/><path class="cls-1" d="M121.07,69.82a1.33,1.33,0,0,0-.5-.5,1.46,1.46,0,0,0-.8-.2,2.28,2.28,0,0,0-.45,0,2.09,2.09,0,0,0-.44.16,1,1,0,0,0-.32.28.75.75,0,0,0-.13.43.81.81,0,0,0,.08.37.75.75,0,0,0,.22.25,2.28,2.28,0,0,0,.35.18l.47.15a3.52,3.52,0,0,1,1.26.6,1.29,1.29,0,0,1,.43,1,1.54,1.54,0,0,1-.2.79,1.79,1.79,0,0,1-.52.54,2.13,2.13,0,0,1-.69.3,2.89,2.89,0,0,1-.76.1,3.5,3.5,0,0,1-1.33-.26,2,2,0,0,1-1-.8l.69-.45a1.68,1.68,0,0,0,.62.59,1.81,1.81,0,0,0,.94.25,2.24,2.24,0,0,0,.52-.06,1.28,1.28,0,0,0,.45-.17.84.84,0,0,0,.32-.3.78.78,0,0,0,.12-.44.77.77,0,0,0-.36-.68,4.7,4.7,0,0,0-1-.45,4.29,4.29,0,0,1-.5-.19,1.67,1.67,0,0,1-.46-.28,1.34,1.34,0,0,1-.33-.42,1.4,1.4,0,0,1-.13-.6,1.36,1.36,0,0,1,.2-.74,1.55,1.55,0,0,1,.51-.51,2.16,2.16,0,0,1,.69-.3,3.3,3.3,0,0,1,.76-.1,2.54,2.54,0,0,1,1.16.26,1.57,1.57,0,0,1,.74.67Z"/><path class="cls-1" d="M126.41,74.2c0-.15,0-.32.06-.5s0-.34.07-.46h0a2.3,2.3,0,0,1-.83.81,2.13,2.13,0,0,1-1.09.3,2,2,0,0,1-1.42-.46,1.58,1.58,0,0,1-.51-1.24,1.37,1.37,0,0,1,0-.29c0-.1,0-.2,0-.32l.62-3.44h.81l-.55,3.11a3.68,3.68,0,0,0-.08.71,1.37,1.37,0,0,0,.28.92,1.16,1.16,0,0,0,1,.34,1.64,1.64,0,0,0,.64-.14,1.79,1.79,0,0,0,.61-.4,2.76,2.76,0,0,0,.49-.68,3.05,3.05,0,0,0,.31-1l.51-2.88h.8L127.37,73c0,.15-.06.35-.1.59s-.06.45-.08.63Z"/><path class="cls-1" d="M130.16,69.24c0-.24.06-.46.08-.65H131c0,.15,0,.32-.06.5s0,.34-.07.46h0a2.52,2.52,0,0,1,.79-.8,2,2,0,0,1,1.08-.31l.28,0a1.18,1.18,0,0,1,.25,0l-.19.77-.22,0-.33,0a1.77,1.77,0,0,0-.64.12,1.63,1.63,0,0,0-.57.38,2.39,2.39,0,0,0-.45.66,3.19,3.19,0,0,0-.3,1l-.5,2.88h-.81l.77-4.38C130.09,69.67,130.13,69.48,130.16,69.24Z"/><path class="cls-1" d="M137.38,70.76c0-.14,0-.24.05-.32a1.48,1.48,0,0,0,0-.21,1,1,0,0,0-.35-.86,1.6,1.6,0,0,0-1-.25,2.31,2.31,0,0,0-1,.2,2.94,2.94,0,0,0-.78.47l-.36-.54a3.19,3.19,0,0,1,1-.58,3.34,3.34,0,0,1,1.18-.23,3.25,3.25,0,0,1,.77.09,1.82,1.82,0,0,1,.63.29,1.34,1.34,0,0,1,.43.51,1.53,1.53,0,0,1,.17.74c0,.07,0,.16,0,.29a2.16,2.16,0,0,1,0,.3l-.41,2.28c0,.22-.07.44-.1.68s0,.42,0,.58h-.72a3.47,3.47,0,0,1,0-.44c0-.16,0-.32.05-.47h0a4.34,4.34,0,0,1-.48.48,2.42,2.42,0,0,1-.5.31,2.53,2.53,0,0,1-.55.18,4.29,4.29,0,0,1-.65,0,2.36,2.36,0,0,1-.58-.07,1.53,1.53,0,0,1-.55-.25,1.38,1.38,0,0,1-.41-.45,1.29,1.29,0,0,1-.16-.68,1.53,1.53,0,0,1,.38-1.08,2.47,2.47,0,0,1,1-.64,5.6,5.6,0,0,1,1.38-.3C136.34,70.79,136.86,70.76,137.38,70.76Zm-.3.61a10.28,10.28,0,0,0-1.1.06,4.48,4.48,0,0,0-1,.2,2.06,2.06,0,0,0-.76.42.94.94,0,0,0-.29.71.82.82,0,0,0,.1.44.76.76,0,0,0,.25.28,1.15,1.15,0,0,0,.38.14,2,2,0,0,0,.42,0,2,2,0,0,0,.79-.14,2.1,2.1,0,0,0,.64-.4,2.18,2.18,0,0,0,.46-.58,2.44,2.44,0,0,0,.25-.7l.08-.47Z"/><path class="cls-1" d="M141.24,68.59c0,.15,0,.32-.06.5a3.5,3.5,0,0,1-.07.46h0a2.3,2.3,0,0,1,.83-.81,2.13,2.13,0,0,1,1.09-.3,2.05,2.05,0,0,1,1.43.47,1.58,1.58,0,0,1,.51,1.25,2.83,2.83,0,0,1,0,.29c0,.09,0,.2,0,.31l-.62,3.44h-.81l.55-3.1a3.68,3.68,0,0,0,.08-.71,1.47,1.47,0,0,0-.28-.93,1.18,1.18,0,0,0-1-.34,1.68,1.68,0,0,0-.65.13,1.82,1.82,0,0,0-.61.41,2.65,2.65,0,0,0-.49.69,3.25,3.25,0,0,0-.32,1l-.5,2.88h-.8l.76-4.38c0-.15.07-.34.11-.58s.06-.46.07-.65Z"/><path class="cls-1" d="M151,69.86a1.18,1.18,0,0,0-.49-.53,1.58,1.58,0,0,0-.81-.21,2.36,2.36,0,0,0-1,.21,2.59,2.59,0,0,0-.79.6,2.64,2.64,0,0,0-.51.88,2.85,2.85,0,0,0-.19,1.06,2.09,2.09,0,0,0,.12.72,1.63,1.63,0,0,0,.93,1,2,2,0,0,0,.76.14,2,2,0,0,0,1-.21,2.32,2.32,0,0,0,.71-.53l.52.45a3.52,3.52,0,0,1-1,.7,2.92,2.92,0,0,1-1.26.26,3.06,3.06,0,0,1-1.08-.18,2.19,2.19,0,0,1-.82-.49,2,2,0,0,1-.53-.76,2.59,2.59,0,0,1-.18-1,3.81,3.81,0,0,1,.24-1.36,3.35,3.35,0,0,1,.69-1.11,3,3,0,0,1,1.06-.75,3.47,3.47,0,0,1,1.38-.28,3,3,0,0,1,1.17.23,1.66,1.66,0,0,1,.82.72Z"/><path class="cls-1" d="M153,71.61s0,.1,0,.14v.13a1.85,1.85,0,0,0,.13.72,1.75,1.75,0,0,0,.39.57,1.56,1.56,0,0,0,.57.37,1.89,1.89,0,0,0,.72.14,2.17,2.17,0,0,0,1.15-.3,2.54,2.54,0,0,0,.79-.69l.51.48a3.19,3.19,0,0,1-1.14.88,3.3,3.3,0,0,1-1.38.3,3,3,0,0,1-1-.17,2.35,2.35,0,0,1-.81-.48,2.23,2.23,0,0,1-.54-.77,2.69,2.69,0,0,1-.2-1.05,3.39,3.39,0,0,1,.25-1.31,3.49,3.49,0,0,1,.69-1.09,3.18,3.18,0,0,1,1-.75,3,3,0,0,1,1.28-.29,2.33,2.33,0,0,1,1.75.62,2.18,2.18,0,0,1,.59,1.58c0,.1,0,.24,0,.44a3.64,3.64,0,0,1-.09.53ZM157,71a1.25,1.25,0,0,0,0-.21,1.48,1.48,0,0,0,0-.21,1.46,1.46,0,0,0-.4-1.06,1.51,1.51,0,0,0-1.16-.41,2.18,2.18,0,0,0-.82.15,2.13,2.13,0,0,0-.68.41,2.63,2.63,0,0,0-.49.61,2.14,2.14,0,0,0-.29.72Z"/><path class="cls-1" d="M165,69.26h-1.32l-.86,4.94h-.81l.87-4.94h-1.19l.13-.67H163l.27-1.52a3.37,3.37,0,0,1,.23-.8,2,2,0,0,1,.41-.66,1.91,1.91,0,0,1,1.46-.62,1.77,1.77,0,0,1,.32,0,2,2,0,0,1,.34.06l-.19.71a2,2,0,0,0-.57-.07,1,1,0,0,0-.5.11.89.89,0,0,0-.34.3,1.65,1.65,0,0,0-.23.46,3.39,3.39,0,0,0-.14.57l-.25,1.44h1.34Z"/><path class="cls-1" d="M167.8,74.35a2.91,2.91,0,0,1-1-.18,2.56,2.56,0,0,1-.83-.5,2.35,2.35,0,0,1-.53-.77,2.46,2.46,0,0,1-.19-1,3.75,3.75,0,0,1,.24-1.34,3.66,3.66,0,0,1,.69-1.1,3.19,3.19,0,0,1,1.06-.75,3.31,3.31,0,0,1,1.34-.28,2.89,2.89,0,0,1,1.05.18,2.21,2.21,0,0,1,.82.5,2.13,2.13,0,0,1,.53.76,2.47,2.47,0,0,1,.2,1,3.77,3.77,0,0,1-.25,1.35,3.16,3.16,0,0,1-.69,1.11,3.32,3.32,0,0,1-1.06.74A3.09,3.09,0,0,1,167.8,74.35Zm2.5-3.43a2,2,0,0,0-.12-.71,1.5,1.5,0,0,0-.36-.58,1.57,1.57,0,0,0-.56-.37,1.87,1.87,0,0,0-.76-.14,2.13,2.13,0,0,0-1,.22,2.46,2.46,0,0,0-.76.6,2.75,2.75,0,0,0-.51.88,2.84,2.84,0,0,0-.19,1.05,2.09,2.09,0,0,0,.12.72,1.65,1.65,0,0,0,.35.57,1.73,1.73,0,0,0,.57.38,2,2,0,0,0,.75.14,2.17,2.17,0,0,0,1-.23,2.23,2.23,0,0,0,.77-.59,2.7,2.7,0,0,0,.51-.87A3.16,3.16,0,0,0,170.3,70.92Z"/><path class="cls-1" d="M173.15,69.24c0-.24.06-.46.07-.65H174c0,.15,0,.32-.06.5s-.05.34-.07.46h0a2.55,2.55,0,0,1,.8-.8,2,2,0,0,1,1.08-.31l.27,0a1.09,1.09,0,0,1,.25,0l-.19.77-.22,0-.33,0a1.77,1.77,0,0,0-.64.12,1.83,1.83,0,0,0-.57.38,2.39,2.39,0,0,0-.45.66,3.88,3.88,0,0,0-.3,1l-.5,2.88h-.8l.76-4.38C173.08,69.67,173.11,69.48,173.15,69.24Z"/><path class="cls-1" d="M180.14,74.2h-.86l1.5-8.49h.86Z"/><path class="cls-1" d="M184,68.59c0,.15,0,.32-.06.5s0,.34-.08.46h0a2.33,2.33,0,0,1,.84-.81,2.1,2.1,0,0,1,1.08-.3,2.05,2.05,0,0,1,1.43.47,1.58,1.58,0,0,1,.51,1.25,1.42,1.42,0,0,1,0,.29c0,.09,0,.2,0,.31l-.62,3.44h-.81l.56-3.1a4.6,4.6,0,0,0,.07-.71,1.41,1.41,0,0,0-.28-.93,1.18,1.18,0,0,0-1-.34,1.68,1.68,0,0,0-.65.13,1.79,1.79,0,0,0-.6.41,2.45,2.45,0,0,0-.5.69,3,3,0,0,0-.31,1l-.51,2.88h-.8l.77-4.38c0-.15.06-.34.1-.58s.06-.46.08-.65Z"/><path class="cls-1" d="M189,71.92a3.56,3.56,0,0,1,.25-1.35,3.35,3.35,0,0,1,.69-1.11,3.28,3.28,0,0,1,2.36-1,2.54,2.54,0,0,1,1.15.28,1.89,1.89,0,0,1,.81.82h0l.78-4.41h.8l-1.6,9.07h-.81l.17-.92h0a2.34,2.34,0,0,1-.83.75,2.46,2.46,0,0,1-1.24.32,2.87,2.87,0,0,1-1-.18,2.29,2.29,0,0,1-.79-.49,2.23,2.23,0,0,1-.52-.77A2.64,2.64,0,0,1,189,71.92Zm.84,0a2.3,2.3,0,0,0,.11.71,1.52,1.52,0,0,0,.35.57,1.45,1.45,0,0,0,.55.39,1.93,1.93,0,0,0,.75.14,2.35,2.35,0,0,0,1-.22,2.31,2.31,0,0,0,.79-.6A2.94,2.94,0,0,0,194,72a2.85,2.85,0,0,0,.19-1.06,1.88,1.88,0,0,0-.13-.72,1.5,1.5,0,0,0-.36-.58,1.54,1.54,0,0,0-.58-.38,2,2,0,0,0-.74-.13,2.33,2.33,0,0,0-1,.21,2.51,2.51,0,0,0-.78.59,2.8,2.8,0,0,0-.5.88A3.38,3.38,0,0,0,189.88,71.87Z"/><path class="cls-1" d="M197.24,74.2h-.81l1-5.61h.8Zm1.47-7.78a.54.54,0,0,1-.16.4.51.51,0,0,1-.4.17.6.6,0,0,1-.39-.14.51.51,0,0,1-.16-.4.55.55,0,0,1,.17-.42.58.58,0,0,1,.4-.17.52.52,0,0,1,.54.56Z"/><path class="cls-1" d="M201.34,74.2h-.86l-1.18-5.61h.83l.9,4.75h0l2.8-4.75h.87Z"/><path class="cls-1" d="M205.76,74.2H205l1-5.61h.8Zm1.47-7.78a.54.54,0,0,1-.16.4.51.51,0,0,1-.4.17.6.6,0,0,1-.39-.14.51.51,0,0,1-.16-.4.55.55,0,0,1,.17-.42.58.58,0,0,1,.4-.17.52.52,0,0,1,.54.56Z"/><path class="cls-1" d="M207.81,71.92a3.76,3.76,0,0,1,.24-1.35,3.71,3.71,0,0,1,.69-1.11,3.39,3.39,0,0,1,1-.74,3.25,3.25,0,0,1,1.32-.28,2.46,2.46,0,0,1,1.14.28,1.79,1.79,0,0,1,.81.82h0l.78-4.41h.8l-1.61,9.07h-.8l.17-.92h0a2.31,2.31,0,0,1-.82.75,2.46,2.46,0,0,1-1.24.32,2.87,2.87,0,0,1-1-.18A2.15,2.15,0,0,1,208,72.91,2.64,2.64,0,0,1,207.81,71.92Zm.84,0a2.3,2.3,0,0,0,.11.71,1.63,1.63,0,0,0,.34.57,1.57,1.57,0,0,0,.56.39,1.89,1.89,0,0,0,.75.14,2.35,2.35,0,0,0,1.78-.82,2.94,2.94,0,0,0,.53-.87,3.07,3.07,0,0,0,.19-1.06,1.88,1.88,0,0,0-.13-.72,1.5,1.5,0,0,0-.36-.58,1.62,1.62,0,0,0-.58-.38,2,2,0,0,0-.74-.13,2.37,2.37,0,0,0-1,.21,2.47,2.47,0,0,0-.77.59,2.62,2.62,0,0,0-.5.88A3.38,3.38,0,0,0,208.65,71.87Z"/><path class="cls-1" d="M219.12,74.2c0-.15,0-.32.06-.5s0-.34.08-.46h0a2.22,2.22,0,0,1-.83.81,2.11,2.11,0,0,1-1.09.3,2,2,0,0,1-1.42-.46,1.58,1.58,0,0,1-.51-1.24,2.64,2.64,0,0,1,0-.29c0-.1,0-.2,0-.32l.62-3.44h.81l-.55,3.11a3.68,3.68,0,0,0-.08.71,1.42,1.42,0,0,0,.28.92,1.16,1.16,0,0,0,1,.34,1.64,1.64,0,0,0,.64-.14,1.79,1.79,0,0,0,.61-.4,2.76,2.76,0,0,0,.49-.68,3.05,3.05,0,0,0,.31-1l.51-2.88h.8L220.08,73c0,.15-.06.35-.1.59s-.06.45-.08.63Z"/><path class="cls-1" d="M226.17,70.76c0-.14,0-.24.05-.32s0-.14,0-.21a1,1,0,0,0-.35-.86,1.62,1.62,0,0,0-1-.25,2.31,2.31,0,0,0-1,.2,2.65,2.65,0,0,0-.78.47l-.36-.54a3.13,3.13,0,0,1,1-.58,3.39,3.39,0,0,1,1.19-.23,3.1,3.1,0,0,1,.76.09,1.79,1.79,0,0,1,.64.29,1.43,1.43,0,0,1,.43.51,1.53,1.53,0,0,1,.16.74c0,.07,0,.16,0,.29s0,.22,0,.3l-.41,2.28c0,.22-.07.44-.1.68s0,.42,0,.58h-.72c0-.13,0-.28,0-.44s0-.32.06-.47h0a4.34,4.34,0,0,1-.48.48,2.36,2.36,0,0,1-.49.31,2.62,2.62,0,0,1-.56.18,4.16,4.16,0,0,1-.64,0,2.44,2.44,0,0,1-.59-.07,1.48,1.48,0,0,1-.54-.25,1.28,1.28,0,0,1-.41-.45,1.29,1.29,0,0,1-.16-.68,1.53,1.53,0,0,1,.38-1.08,2.5,2.5,0,0,1,1-.64,5.79,5.79,0,0,1,1.39-.3C225.13,70.79,225.65,70.76,226.17,70.76Zm-.3.61a10.6,10.6,0,0,0-1.11.06,4.5,4.5,0,0,0-1,.2,2.06,2.06,0,0,0-.76.42.94.94,0,0,0-.29.71.93.93,0,0,0,.09.44.78.78,0,0,0,.26.28,1.09,1.09,0,0,0,.37.14,2.09,2.09,0,0,0,.43,0,2,2,0,0,0,.79-.14,2.23,2.23,0,0,0,.64-.4,2.15,2.15,0,0,0,.45-.58,2.46,2.46,0,0,0,.26-.7l.08-.47Z"/><path class="cls-1" d="M229.14,74.2h-.81l1.59-9.07h.82Z"/><path class="cls-1" d="M235,69.82a1.36,1.36,0,0,0-.51-.5,1.46,1.46,0,0,0-.8-.2,2.28,2.28,0,0,0-.45,0,1.82,1.82,0,0,0-.43.16,1,1,0,0,0-.33.28.75.75,0,0,0-.12.43.82.82,0,0,0,.07.37.78.78,0,0,0,.23.25,1.79,1.79,0,0,0,.34.18l.47.15a3.52,3.52,0,0,1,1.26.6,1.29,1.29,0,0,1,.43,1,1.45,1.45,0,0,1-.2.79,1.79,1.79,0,0,1-.52.54,2,2,0,0,1-.69.3,2.89,2.89,0,0,1-.76.1,3.41,3.41,0,0,1-1.32-.26,2,2,0,0,1-1-.8l.7-.45a1.65,1.65,0,0,0,.61.59,1.84,1.84,0,0,0,.95.25,2.22,2.22,0,0,0,.51-.06,1.28,1.28,0,0,0,.45-.17.84.84,0,0,0,.32-.3.85.85,0,0,0-.23-1.12,5.07,5.07,0,0,0-1-.45,5.1,5.1,0,0,1-.5-.19,1.67,1.67,0,0,1-.46-.28,1.7,1.7,0,0,1-.33-.42,1.4,1.4,0,0,1-.12-.6,1.36,1.36,0,0,1,.19-.74,1.65,1.65,0,0,1,.51-.51,2.16,2.16,0,0,1,.69-.3,3.32,3.32,0,0,1,.77-.1,2.53,2.53,0,0,1,1.15.26,1.57,1.57,0,0,1,.74.67Z"/><path class="cls-1" d="M236.28,75.88h-.68l1.31-2.81h.85Z"/><path class="cls-1" d="M108.33,88.61h-.85l1.5-8.5h5l-.13.75H109.7l-.53,3H113l-.12.73h-3.85Z"/><path class="cls-1" d="M117.51,85.16c0-.13,0-.24,0-.32a1.48,1.48,0,0,0,0-.21,1,1,0,0,0-.35-.86,1.6,1.6,0,0,0-1-.25,2.31,2.31,0,0,0-1,.2,2.79,2.79,0,0,0-.78.47l-.36-.54a3.19,3.19,0,0,1,1-.58,3.28,3.28,0,0,1,1.18-.22,2.8,2.8,0,0,1,.77.09,1.64,1.64,0,0,1,.63.28,1.42,1.42,0,0,1,.43.51,1.53,1.53,0,0,1,.17.74c0,.07,0,.17,0,.29a2.51,2.51,0,0,1,0,.31l-.41,2.28c0,.21-.07.43-.1.67s0,.42,0,.59H117a3.54,3.54,0,0,1,0-.45c0-.16,0-.31,0-.47h0a5.42,5.42,0,0,1-.48.48,2.72,2.72,0,0,1-.5.31,2.09,2.09,0,0,1-.55.18,4.29,4.29,0,0,1-.65,0,2.3,2.3,0,0,1-.58-.07,1.7,1.7,0,0,1-.55-.24,1.52,1.52,0,0,1-.41-.46,1.29,1.29,0,0,1-.16-.68,1.53,1.53,0,0,1,.38-1.08,2.47,2.47,0,0,1,1-.64,5.6,5.6,0,0,1,1.38-.3C116.47,85.19,117,85.16,117.51,85.16Zm-.3.61a10.28,10.28,0,0,0-1.1.06,4.48,4.48,0,0,0-1,.2,2.06,2.06,0,0,0-.76.42.94.94,0,0,0-.29.71.82.82,0,0,0,.1.44.68.68,0,0,0,.25.28,1.18,1.18,0,0,0,.37.14,2.18,2.18,0,0,0,.43,0,2,2,0,0,0,.79-.15,2.44,2.44,0,0,0,.64-.39,2.4,2.4,0,0,0,.46-.59,2.44,2.44,0,0,0,.25-.7l.08-.47Z"/><path class="cls-1" d="M126.76,82.85a2,2,0,0,1,1.42.46,1.58,1.58,0,0,1,.51,1.25,1.42,1.42,0,0,1,0,.29c0,.09,0,.2,0,.31L128,88.61h-.8l.55-3.11a4.6,4.6,0,0,0,.07-.71,1.41,1.41,0,0,0-.28-.93,1.18,1.18,0,0,0-1-.34,1.5,1.5,0,0,0-.76.18,1.76,1.76,0,0,0-.54.48,2.25,2.25,0,0,0-.35.67,6.2,6.2,0,0,0-.2.77l-.52,3h-.81l.59-3.27a3.9,3.9,0,0,0,.07-.73,1.23,1.23,0,0,0-.24-.8,1.1,1.1,0,0,0-.88-.29,1.51,1.51,0,0,0-.6.13,1.82,1.82,0,0,0-.58.41,2.67,2.67,0,0,0-.5.69,3.53,3.53,0,0,0-.31,1l-.5,2.88h-.8l.76-4.38c0-.16.07-.35.1-.59a6,6,0,0,0,.08-.65h.77c0,.15,0,.32-.06.5s0,.34-.07.46h0a2.93,2.93,0,0,1,.84-.81,2.09,2.09,0,0,1,1.11-.29,2.56,2.56,0,0,1,.47,0,1.5,1.5,0,0,1,.47.19,1.33,1.33,0,0,1,.39.36,1.31,1.31,0,0,1,.24.59,2.51,2.51,0,0,1,.83-.88A2.25,2.25,0,0,1,126.76,82.85Z"/><path class="cls-1" d="M130.84,88.61H130L131,83h.81Zm1.48-7.79a.58.58,0,0,1-.17.41.52.52,0,0,1-.4.16.55.55,0,0,1-.39-.14.51.51,0,0,1-.16-.4.58.58,0,0,1,.18-.42.54.54,0,0,1,.4-.16.56.56,0,0,1,.38.14A.58.58,0,0,1,132.32,80.82Z"/><path class="cls-1" d="M133.76,88.61h-.82l1.6-9.08h.81Z"/><path class="cls-1" d="M136.65,88.61h-.81l1-5.62h.81Zm1.48-7.79a.58.58,0,0,1-.17.41.52.52,0,0,1-.4.16.55.55,0,0,1-.39-.14.51.51,0,0,1-.16-.4.61.61,0,0,1,.17-.42.6.6,0,0,1,.79,0A.58.58,0,0,1,138.13,80.82Z"/><path class="cls-1" d="M139.54,86s0,.1,0,.14v.13a1.85,1.85,0,0,0,.13.72,1.92,1.92,0,0,0,.39.57,1.65,1.65,0,0,0,.57.37,1.92,1.92,0,0,0,.72.14,2.17,2.17,0,0,0,1.15-.3,2.54,2.54,0,0,0,.79-.69l.51.48a3.19,3.19,0,0,1-1.14.88,3.26,3.26,0,0,1-1.38.3,3,3,0,0,1-1-.17,2.35,2.35,0,0,1-.81-.48,2.14,2.14,0,0,1-.54-.77,2.69,2.69,0,0,1-.2-1A3.63,3.63,0,0,1,139,85a3.49,3.49,0,0,1,.69-1.09,3.64,3.64,0,0,1,1-.75,3,3,0,0,1,1.28-.28,2.33,2.33,0,0,1,1.75.61,2.18,2.18,0,0,1,.59,1.58c0,.1,0,.24,0,.44a3.71,3.71,0,0,1-.08.53Zm3.92-.6a1.25,1.25,0,0,0,0-.21,1.48,1.48,0,0,0,0-.21,1.46,1.46,0,0,0-.4-1.06,1.51,1.51,0,0,0-1.16-.41,2.18,2.18,0,0,0-.82.15,2.08,2.08,0,0,0-.67.41,2.43,2.43,0,0,0-.5.61,2.37,2.37,0,0,0-.29.72Z"/><path class="cls-1" d="M149.23,84.23a1.39,1.39,0,0,0-.51-.51,1.46,1.46,0,0,0-.8-.2,1.73,1.73,0,0,0-.45,0,1.46,1.46,0,0,0-.43.15.91.91,0,0,0-.33.28.75.75,0,0,0-.12.43.82.82,0,0,0,.07.37.68.68,0,0,0,.23.25,1.79,1.79,0,0,0,.34.18l.47.15A3.52,3.52,0,0,1,149,86a1.29,1.29,0,0,1,.43,1,1.45,1.45,0,0,1-.2.79,1.79,1.79,0,0,1-.52.54,2.13,2.13,0,0,1-.69.3,2.89,2.89,0,0,1-.76.1,3.41,3.41,0,0,1-1.32-.26,2,2,0,0,1-1-.8l.7-.45a1.58,1.58,0,0,0,.61.59,1.84,1.84,0,0,0,.95.25,2.22,2.22,0,0,0,.51-.06,1.5,1.5,0,0,0,.45-.16,1,1,0,0,0,.32-.31.78.78,0,0,0,.12-.44.75.75,0,0,0-.36-.67,4.22,4.22,0,0,0-1-.46,5.1,5.1,0,0,1-.5-.19,1.67,1.67,0,0,1-.46-.28,1.7,1.7,0,0,1-.33-.42,1.55,1.55,0,0,1,.07-1.34,1.65,1.65,0,0,1,.51-.51,2.16,2.16,0,0,1,.69-.3,3.29,3.29,0,0,1,.76-.09,2.54,2.54,0,0,1,1.16.25,1.62,1.62,0,0,1,.74.67Z"/><path class="cls-1" d="M150.47,90.28h-.68l1.31-2.81H152Z"/><path class="cls-1" d="M160.34,85.16a2.51,2.51,0,0,0,0-.32,1.49,1.49,0,0,0,0-.21,1,1,0,0,0-.35-.86,1.62,1.62,0,0,0-1-.25,2.39,2.39,0,0,0-1,.2,2.94,2.94,0,0,0-.78.47l-.36-.54a3.3,3.3,0,0,1,1-.58,3.38,3.38,0,0,1,1.19-.22,2.73,2.73,0,0,1,.76.09,1.62,1.62,0,0,1,.64.28,1.48,1.48,0,0,1,.59,1.25c0,.07,0,.17,0,.29a2.36,2.36,0,0,1,0,.31l-.4,2.28a6.32,6.32,0,0,0-.1.67c0,.23,0,.42,0,.59h-.73c0-.14,0-.29,0-.45a3.78,3.78,0,0,1,.06-.47h0a4.34,4.34,0,0,1-.48.48,2.18,2.18,0,0,1-.5.31,2,2,0,0,1-.55.18,4.16,4.16,0,0,1-.64,0,2.44,2.44,0,0,1-.59-.07,1.65,1.65,0,0,1-.54-.24,1.4,1.4,0,0,1-.41-.46,1.29,1.29,0,0,1-.16-.68,1.49,1.49,0,0,1,.38-1.08,2.5,2.5,0,0,1,1-.64,5.68,5.68,0,0,1,1.39-.3C159.3,85.19,159.82,85.16,160.34,85.16Zm-.3.61a10.6,10.6,0,0,0-1.11.06,4.39,4.39,0,0,0-1,.2,2.06,2.06,0,0,0-.76.42.91.91,0,0,0-.29.71.93.93,0,0,0,.09.44.78.78,0,0,0,.26.28,1.09,1.09,0,0,0,.37.14,2,2,0,0,0,1.22-.1,2.44,2.44,0,0,0,.64-.39,2.37,2.37,0,0,0,.45-.59,2.17,2.17,0,0,0,.25-.7l.09-.47Z"/><path class="cls-1" d="M164.2,83c0,.15,0,.32-.06.5s0,.34-.07.46h0a2.5,2.5,0,0,1,.84-.81,2.1,2.1,0,0,1,1.09-.29,2,2,0,0,1,1.42.46,1.56,1.56,0,0,1,.52,1.25,2.83,2.83,0,0,1,0,.29c0,.09,0,.2,0,.31l-.62,3.45h-.81L167,85.5a3.63,3.63,0,0,0,.07-.71,1.47,1.47,0,0,0-.27-.93,1.2,1.2,0,0,0-1-.34,1.63,1.63,0,0,0-.64.13,1.82,1.82,0,0,0-.61.41,2.67,2.67,0,0,0-.5.69,3.23,3.23,0,0,0-.31,1l-.5,2.88h-.81l.77-4.38c0-.16.07-.35.1-.59s.06-.46.08-.65Z"/><path class="cls-1" d="M169.26,86.32a3.81,3.81,0,0,1,.25-1.35,3.35,3.35,0,0,1,.69-1.11,3.56,3.56,0,0,1,1.05-.74,3.17,3.17,0,0,1,1.31-.27,2.53,2.53,0,0,1,1.15.27,1.84,1.84,0,0,1,.81.82h0l.78-4.41h.81l-1.61,9.08h-.8l.16-.93h0a2.26,2.26,0,0,1-.83.75,2.45,2.45,0,0,1-1.23.32,2.84,2.84,0,0,1-1-.18,2.24,2.24,0,0,1-.8-.49,2.28,2.28,0,0,1-.52-.77A2.61,2.61,0,0,1,169.26,86.32Zm.84,0a2,2,0,0,0,.12.71,1.5,1.5,0,0,0,.34.57,1.53,1.53,0,0,0,.55.39,2,2,0,0,0,.76.14,2.38,2.38,0,0,0,1.77-.81,2.91,2.91,0,0,0,.53-.88,2.85,2.85,0,0,0,.19-1.06,2.09,2.09,0,0,0-.12-.72,1.75,1.75,0,0,0-.37-.58,1.59,1.59,0,0,0-.57-.38,2,2,0,0,0-.75-.13,2.33,2.33,0,0,0-1,.21,2.36,2.36,0,0,0-.77.59,2.46,2.46,0,0,0-.5.88A3.12,3.12,0,0,0,170.1,86.27Z"/><path class="cls-1" d="M180.44,88.61h-.86l1.5-8.5h2.3a4.3,4.3,0,0,1,1,.12,2.34,2.34,0,0,1,.83.37,1.82,1.82,0,0,1,.56.64,1.93,1.93,0,0,1,.19.9,2.48,2.48,0,0,1-.19,1,2,2,0,0,1-.53.72,2.77,2.77,0,0,1-.8.47,3.8,3.8,0,0,1-1,.21l1.87,4h-1l-1.78-4h-1.5Zm.82-4.7h1.52a6.07,6.07,0,0,0,.85-.06,2.45,2.45,0,0,0,.75-.25,1.42,1.42,0,0,0,.55-.51,1.56,1.56,0,0,0,.21-.86,1.19,1.19,0,0,0-.5-1,2.46,2.46,0,0,0-1.4-.35H181.8Z"/><path class="cls-1" d="M187.29,86a.78.78,0,0,0,0,.14s0,.09,0,.13a1.85,1.85,0,0,0,.14.72,1.61,1.61,0,0,0,.39.57,1.56,1.56,0,0,0,.57.37,1.89,1.89,0,0,0,.72.14,2.17,2.17,0,0,0,1.15-.3,2.54,2.54,0,0,0,.79-.69l.5.48a3,3,0,0,1-1.14.88,3.23,3.23,0,0,1-1.38.3,3,3,0,0,1-1-.17,2.18,2.18,0,0,1-.81-.48,2.14,2.14,0,0,1-.54-.77,2.52,2.52,0,0,1-.2-1A3.43,3.43,0,0,1,186.7,85a3.42,3.42,0,0,1,1.72-1.84,2.92,2.92,0,0,1,1.28-.28,2.33,2.33,0,0,1,1.75.61A2.18,2.18,0,0,1,192,85c0,.1,0,.24,0,.44a3.64,3.64,0,0,1-.09.53Zm3.92-.6a1.25,1.25,0,0,0,0-.21c0-.07,0-.14,0-.21a1.4,1.4,0,0,0-1.56-1.47,2.27,2.27,0,0,0-.83.15,2.2,2.2,0,0,0-.67.41,3,3,0,0,0-.5.61,2.34,2.34,0,0,0-.28.72Z"/><path class="cls-1" d="M196.36,83.66h-1.52l-.59,3.3a1.82,1.82,0,0,0,0,.38.62.62,0,0,0,.19.53.88.88,0,0,0,.51.14,1.35,1.35,0,0,0,.37-.06.69.69,0,0,0,.31-.14l-.09.7a1.32,1.32,0,0,1-.41.13,4.07,4.07,0,0,1-.52,0,2,2,0,0,1-.41-.05,1,1,0,0,1-.39-.18.87.87,0,0,1-.28-.34,1.12,1.12,0,0,1-.12-.55,1.82,1.82,0,0,1,0-.38l.62-3.52h-1.16L193,83h1.14l.28-1.59h.8L194.94,83h1.55Z"/><path class="cls-1" d="M197.55,88.61h-.81l1-5.62h.8ZM199,80.82a.57.57,0,0,1-.16.41.54.54,0,0,1-.4.16.55.55,0,0,1-.39-.14.51.51,0,0,1-.16-.4.61.61,0,0,1,.17-.42.57.57,0,0,1,.4-.16.58.58,0,0,1,.39.14A.58.58,0,0,1,199,80.82Z"/><path class="cls-1" d="M200.49,83.64a6,6,0,0,0,.08-.65h.77c0,.15,0,.32-.06.5s-.05.34-.07.46h0a2.62,2.62,0,0,1,.79-.8,2,2,0,0,1,1.08-.3h.28a1.18,1.18,0,0,1,.25,0l-.19.77-.22,0-.33,0a1.77,1.77,0,0,0-.64.12,1.63,1.63,0,0,0-.57.38,2.39,2.39,0,0,0-.45.66,3.46,3.46,0,0,0-.3,1l-.5,2.88h-.81l.77-4.38C200.42,84.07,200.46,83.88,200.49,83.64Z"/><path class="cls-1" d="M204.36,86s0,.1,0,.14a.62.62,0,0,0,0,.13,1.85,1.85,0,0,0,.14.72,1.73,1.73,0,0,0,.38.57,1.69,1.69,0,0,0,.58.37,1.87,1.87,0,0,0,.71.14,2.14,2.14,0,0,0,1.15-.3,2.58,2.58,0,0,0,.8-.69l.5.48a3.19,3.19,0,0,1-1.14.88,3.23,3.23,0,0,1-1.38.3,3,3,0,0,1-1-.17,2.35,2.35,0,0,1-.81-.48,2.14,2.14,0,0,1-.54-.77,2.69,2.69,0,0,1-.2-1,3.44,3.44,0,0,1,.26-1.31,3.16,3.16,0,0,1,.69-1.09,3.38,3.38,0,0,1,1-.75,2.89,2.89,0,0,1,1.28-.28,2.31,2.31,0,0,1,1.74.61,2.14,2.14,0,0,1,.6,1.58c0,.1,0,.24,0,.44A2.69,2.69,0,0,1,209,86Zm3.93-.6c0-.06,0-.13,0-.21V85a1.49,1.49,0,0,0-.39-1.06,1.55,1.55,0,0,0-1.17-.41,2.21,2.21,0,0,0-.82.15,2.08,2.08,0,0,0-.67.41,2.67,2.67,0,0,0-.5.61,2.37,2.37,0,0,0-.29.72Z"/><path class="cls-1" d="M211.05,86a.78.78,0,0,0,0,.14s0,.09,0,.13a1.85,1.85,0,0,0,.14.72,1.61,1.61,0,0,0,.39.57,1.56,1.56,0,0,0,.57.37,1.89,1.89,0,0,0,.72.14,2.17,2.17,0,0,0,1.15-.3,2.54,2.54,0,0,0,.79-.69l.5.48a3,3,0,0,1-1.14.88,3.23,3.23,0,0,1-1.38.3,3,3,0,0,1-1-.17,2.18,2.18,0,0,1-.81-.48,2.14,2.14,0,0,1-.54-.77,2.52,2.52,0,0,1-.2-1,3.43,3.43,0,0,1,.25-1.31,3.42,3.42,0,0,1,1.72-1.84,2.92,2.92,0,0,1,1.28-.28,2.33,2.33,0,0,1,1.75.61A2.18,2.18,0,0,1,215.8,85c0,.1,0,.24,0,.44a3.64,3.64,0,0,1-.09.53Zm3.92-.6a1.25,1.25,0,0,0,0-.21c0-.07,0-.14,0-.21a1.4,1.4,0,0,0-1.56-1.47,2.27,2.27,0,0,0-.83.15,2.2,2.2,0,0,0-.67.41,3,3,0,0,0-.5.61,2.34,2.34,0,0,0-.28.72Z"/><path class="cls-1" d="M220.73,84.23a1.29,1.29,0,0,0-.5-.51,1.5,1.5,0,0,0-.81-.2,1.82,1.82,0,0,0-.45,0,1.57,1.57,0,0,0-.43.15,1,1,0,0,0-.32.28.69.69,0,0,0-.13.43.81.81,0,0,0,.08.37.75.75,0,0,0,.22.25,1.9,1.9,0,0,0,.35.18l.47.15a3.52,3.52,0,0,1,1.26.6,1.29,1.29,0,0,1,.43,1,1.54,1.54,0,0,1-.2.79,1.79,1.79,0,0,1-.52.54,2.09,2.09,0,0,1-.7.3,2.76,2.76,0,0,1-.75.1,3.47,3.47,0,0,1-1.33-.26,2,2,0,0,1-1-.8l.69-.45a1.73,1.73,0,0,0,.61.59,1.87,1.87,0,0,0,.95.25,2.24,2.24,0,0,0,.52-.06,1.5,1.5,0,0,0,.45-.16,1,1,0,0,0,.32-.31.78.78,0,0,0,.12-.44.75.75,0,0,0-.36-.67,4.22,4.22,0,0,0-1-.46,5.27,5.27,0,0,1-.51-.19,1.62,1.62,0,0,1-.45-.28,1.34,1.34,0,0,1-.33-.42,1.24,1.24,0,0,1-.13-.6,1.36,1.36,0,0,1,.2-.74,1.62,1.62,0,0,1,.5-.51,2.37,2.37,0,0,1,.69-.3,3.44,3.44,0,0,1,.77-.09,2.57,2.57,0,0,1,1.16.25,1.62,1.62,0,0,1,.74.67Z"/></svg>