<svg id="london-america" xmlns="http://www.w3.org/2000/svg" viewBox="0 0 234.76 176.36"><defs><style>.cls-1{fill:#8f9cbe;}.cls-2{fill:#002d62;}</style></defs><title>london-america-blue</title><g id="london-america-blue"><g id="Insurance_Company" data-name="Insurance Company"><polygon class="cls-1" points="44.53 167.85 43.51 164.71 42.48 167.85 39.18 167.85 41.85 169.8 40.82 172.96 43.51 171 46.19 172.96 45.16 169.8 47.83 167.85 44.53 167.85"/><rect class="cls-1" x="52.21" y="164.94" width="1.08" height="8.67"/><polygon class="cls-1" points="62.01 171.35 55.49 164.53 55.49 173.62 56.58 173.62 56.58 167.15 63.09 173.97 63.09 164.94 62.01 164.94 62.01 171.35"/><path class="cls-1" d="M68.16,168.49l-.62-.24c-.54-.21-1.21-.56-1.21-1.24a1.37,1.37,0,0,1,1.45-1.23,1.49,1.49,0,0,1,1.39.82l.86-.52a2.47,2.47,0,0,0-2.23-1.31A2.37,2.37,0,0,0,65.25,167c0,1.21.9,1.77,1.89,2.2l.6.25c.75.31,1.49.71,1.49,1.65a1.64,1.64,0,1,1-3.28,0l-1.09.23a2.7,2.7,0,0,0,2.68,2.43,2.67,2.67,0,0,0,2.77-2.7C70.31,169.65,69.39,169,68.16,168.49Z"/><path class="cls-1" d="M77.31,170.06c0,1.42-.43,2.73-2.09,2.73s-2.09-1.31-2.09-2.73v-5.12H72v5.49a3.18,3.18,0,1,0,6.35,0v-5.49H77.31Z"/><path class="cls-1" d="M85.32,167.42a2.4,2.4,0,0,0-1.14-2.07,4.58,4.58,0,0,0-2.29-.4H80.58v8.67h1.08v-3.67h.45l2.55,3.67H86l-2.74-3.77A2.36,2.36,0,0,0,85.32,167.42ZM82,169.05h-.35v-3.14h.29c1.07,0,2.36.2,2.36,1.55S83.11,169.05,82,169.05Z"/><path class="cls-1" d="M86.59,173.62h1.16l1-2.17h4l1,2.17h1.16l-4.14-9Zm2.6-3.16,1.54-3.51,1.54,3.51Z"/><polygon class="cls-1" points="102.7 171.35 96.18 164.53 96.18 173.62 97.27 173.62 97.27 167.15 103.78 173.97 103.78 164.94 102.7 164.94 102.7 171.35"/><path class="cls-1" d="M105.53,169.33a4.49,4.49,0,0,0,4.52,4.47,4.68,4.68,0,0,0,2.28-.61v-1.28a3.49,3.49,0,1,1-2.29-6.17,3.5,3.5,0,0,1,2.29.85v-1.25a4.17,4.17,0,0,0-2.19-.59A4.56,4.56,0,0,0,105.53,169.33Z"/><polygon class="cls-1" points="114.3 173.62 118.96 173.62 118.96 172.63 115.38 172.63 115.38 169.35 118.85 169.35 118.85 168.36 115.38 168.36 115.38 165.93 118.96 165.93 118.96 164.94 114.3 164.94 114.3 173.62"/><path class="cls-1" d="M124.52,169.33A4.49,4.49,0,0,0,129,173.8a4.68,4.68,0,0,0,2.28-.61v-1.28a3.49,3.49,0,1,1-2.29-6.17,3.5,3.5,0,0,1,2.29.85v-1.25a4.18,4.18,0,0,0-2.19-.59A4.56,4.56,0,0,0,124.52,169.33Z"/><path class="cls-1" d="M137.23,164.76a4.56,4.56,0,0,0-4.54,4.52,4.54,4.54,0,0,0,9.09,0A4.56,4.56,0,0,0,137.23,164.76Zm0,8a3.48,3.48,0,0,1-3.46-3.51,3.46,3.46,0,1,1,6.92,0A3.48,3.48,0,0,1,137.23,172.79Z"/><polygon class="cls-1" points="147.59 171.41 144.61 164.58 142.84 173.62 143.95 173.62 144.96 167.89 144.99 167.89 147.59 173.8 150.19 167.89 150.21 167.89 151.22 173.62 152.34 173.62 150.57 164.58 147.59 171.41"/><path class="cls-1" d="M155.23,164.94H154v8.67h1.08V170h.62c1.65,0,3-.7,3-2.53C158.73,165.87,157.9,164.94,155.23,164.94Zm.18,4.07h-.35v-3.11h.29c1.07,0,2.36.16,2.36,1.52S156.52,169,155.41,169Z"/><path class="cls-1" d="M158.54,173.62h1.16l1-2.17h4l1,2.17h1.16l-4.14-9Zm2.6-3.16,1.54-3.51,1.54,3.51Z"/><polygon class="cls-1" points="174.65 171.35 168.14 164.53 168.14 173.62 169.22 173.62 169.22 167.15 175.73 173.97 175.73 164.94 174.65 164.94 174.65 171.35"/><polygon class="cls-1" points="180.48 168.65 178.35 164.94 177.11 164.94 179.94 169.85 179.94 173.62 181.02 173.62 181.02 169.85 183.85 164.94 182.61 164.94 180.48 168.65"/><polygon class="cls-1" points="195.1 167.85 191.79 167.85 190.77 164.71 189.74 167.85 186.44 167.85 189.11 169.8 188.08 172.96 190.77 171 193.45 172.96 192.42 169.8 195.1 167.85"/></g><path class="cls-2" d="M231.82,156.38a1.66,1.66,0,0,1-1.15.78c-.66,0-1.07-.61-1.07-1.88v-7.37c0-3.41-3-4.28-5.55-4.28-3,0-5.83.64-5.83,4.57h3.52a3.06,3.06,0,0,1-.22-1.16,2.19,2.19,0,0,1,2.31-2.14c1.43,0,2.31,1,2.31,2.6v2.28l-4.45.84c-2.58.49-4.37,1.68-4.37,4.25s1.92,4.08,4.42,4.08a5.4,5.4,0,0,0,4.53-2.57c.19,1.41,1,2.57,2.42,2.57a3.35,3.35,0,0,0,3.35-2.49Zm-5.69-2.6a3,3,0,0,1-2.86,3.21,2.27,2.27,0,0,1-2.28-2.52,2.8,2.8,0,0,1,2.42-2.92l2.72-.49Z"/><path class="cls-2" d="M210.86,156.82c-2.31,0-4.07-1.85-4.07-5.9s1.51-6,3.66-6c2.34,0,3.27,1.94,3.79,3.06l.47,1h.19v-5.32h-.19a1,1,0,0,1-.83.43,8.12,8.12,0,0,1-1.57-.23,15,15,0,0,0-2.47-.2c-4,0-7.06,3.33-7.06,7.55,0,5.41,3.35,7.78,6.82,7.78,2.58,0,4.73-1.33,5.91-4.34l-.55-.29A5,5,0,0,1,210.86,156.82Z"/><path class="cls-2" d="M198,141.55a2,2,0,1,0-2.09-2A2,2,0,0,0,198,141.55Z"/><path class="cls-2" d="M199.7,155.2v-8.47c0-.9.08-1.76.17-2.66H193.8v.2l1.29.52c.77.32,1.15.78,1.15,2.6v7.81c0,1.82-.38,2.28-1.15,2.6l-1.29.52v.2h8.35v-.2l-1.29-.52C200.09,157.48,199.7,157,199.7,155.2Z"/><path class="cls-2" d="M189.93,143.63c-2.23,0-3.54,1.53-4.34,3.09h-.06v-2.66h-5.93v.2l1.26.52c.83.32,1.21.78,1.21,2.6v7.81c0,1.82-.38,2.28-1.21,2.6l-1.26.52v.2h8.79v-.2l-1.71-.52c-.77-.32-1.15-.78-1.15-2.6v-5.52c0-2,1.62-3.9,3-3.9a1.22,1.22,0,0,1,1.24,1.27,3.08,3.08,0,0,1-.25,1.33h3.3a3.36,3.36,0,0,0,.25-1.39A3.08,3.08,0,0,0,189.93,143.63Z"/><path class="cls-2" d="M172.48,143.63c-3.74,0-7.2,2.75-7.2,7.66s2.86,7.66,7.2,7.66a6.26,6.26,0,0,0,6.07-4.4l-.5-.29s0,0,0,.06a5.06,5.06,0,0,1-4.53,2.49c-3.71,0-4.37-3.56-4.37-5.75h9.78C178.91,146.38,176.63,143.63,172.48,143.63Zm1.15,6.16h-4.48c0-2.05.85-4.89,3.33-4.89,1.68,0,2.58,1.33,2.58,3.33C175.06,149.35,174.65,149.79,173.63,149.79Z"/><path class="cls-2" d="M162.23,155.2v-6.94c0-3.09-1.48-4.63-4.42-4.63-2.17,0-3.57,1.16-4.56,3.15-.58-2.37-2-3.15-4.18-3.15a4.62,4.62,0,0,0-4.48,3h-.05v-2.54h-5.91v.2l1.29.52c.77.32,1.15.78,1.15,2.6v7.81c0,1.82-.38,2.28-1.15,2.6l-1.29.52v.2h8.05v-.2l-1.18-.46c-.85-.32-1-1.16-1-2.66v-6.07a2.93,2.93,0,0,1,2.77-3.12c1.21,0,2.61.81,2.61,3.24v6c0,1.5-.11,2.34-1,2.66l-1.18.46v.2h7.75v-.2l-1.18-.46c-.85-.32-1-1.16-1-2.66v-6.07a2.93,2.93,0,0,1,2.78-3.12c1.21,0,2.61.81,2.61,3.24v6c0,1.5-.11,2.34-1,2.66l-1.18.46v.2h8.05v-.2l-1.29-.52C162.62,157.48,162.23,157,162.23,155.2Z"/><path class="cls-2" d="M134.6,155.05l-7.45-17.55h-2l-7.8,18a4.17,4.17,0,0,1-1.65,2.25l-1.15.52v.2h6.79v-.2l-1.35-.55c-.69-.29-1-.64-1-1.13a5.1,5.1,0,0,1,.52-1.71l1.35-3.24h8.08l1.35,3.18a5.48,5.48,0,0,1,.5,1.76c0,.49-.44.84-1.1,1.1l-1.43.58v.2h9.56v-.2l-1.15-.58A5.76,5.76,0,0,1,134.6,155.05Zm-13.16-5,3.38-8.1,3.38,8.1Z"/><path class="cls-2" d="M104,155.2v-6.94c0-3.09-1.48-4.63-4.42-4.63a4.58,4.58,0,0,0-4.78,3.06h-.05v-2.63H88.82v.2l1.29.52c.77.32,1.15.78,1.15,2.6v7.81c0,1.82-.38,2.28-1.15,2.6l-1.29.52v.2h8.11v-.2l-1.24-.46c-.85-.32-1-1.16-1-2.66v-6.13A3.15,3.15,0,0,1,97.86,146c1.76,0,2.67,1.21,2.67,3v6.19c0,1.5-.11,2.34-.93,2.66l-1.26.46v.2h8.11v-.2l-1.29-.52C104.37,157.48,104,157,104,155.2Z"/><path class="cls-2" d="M80.63,143.63a7.66,7.66,0,1,0,7.56,7.66A7.37,7.37,0,0,0,80.63,143.63Zm0,14.05c-2,0-3.54-2.05-3.54-6.39s1.51-6.39,3.54-6.39,3.55,2.05,3.55,6.39S82.67,157.68,80.63,157.68Z"/><path class="cls-2" d="M70,153.81V137.7H64.12v.2l.88.35c1.35.55,1.57,1,1.57,3.64v4.71h-.08a4.79,4.79,0,0,0-4.48-3c-4.07,0-6.46,3-6.46,7.75,0,4.13,2.53,7.58,6.54,7.58a4.44,4.44,0,0,0,4.48-3h.05v2.57h5.85v-.2l-.88-.38C70.19,157.31,70,157.13,70,153.81ZM63.1,157c-2.36,0-3.54-2.34-3.54-5.55,0-4,1.4-5.84,3.54-5.84s3.55,2,3.55,5.84C66.65,155,65.47,157,63.1,157Z"/><path class="cls-2" d="M52.48,155.2v-6.94c0-3.09-1.48-4.63-4.42-4.63a4.58,4.58,0,0,0-4.78,3.06h-.05v-2.63H37.31v.2l1.29.52c.77.32,1.15.78,1.15,2.6v7.81c0,1.82-.38,2.28-1.15,2.6l-1.29.52v.2h8.11v-.2l-1.24-.46c-.85-.32-1-1.16-1-2.66v-6.13A3.15,3.15,0,0,1,46.35,146c1.76,0,2.67,1.21,2.67,3v6.19c0,1.5-.11,2.34-.93,2.66l-1.26.46v.2h8.11v-.2l-1.29-.52C52.86,157.48,52.48,157,52.48,155.2Z"/><path class="cls-2" d="M29.12,143.63a7.66,7.66,0,0,0,0,15.33,7.66,7.66,0,0,0,0-15.33Zm0,14.05c-2,0-3.54-2.05-3.54-6.39s1.51-6.39,3.54-6.39,3.55,2.05,3.55,6.39S31.15,157.68,29.12,157.68Z"/><path class="cls-2" d="M18.87,154.44c-.6,1.36-1.24,2.46-2.55,2.46H9.48V141.12c0-1.27.36-1.88,1.24-2.26l1.68-.72v-.2H2.72v.2l1.68.72c.88.38,1.24,1,1.24,2.26v12.2c0,3.12,0,3.64-1,4.13l-1.87.87v.2H19.81v-5.75h-.19Z"/><path id="clocktower-star" class="cls-2" d="M77.09,127.32l38.07-24.16,38.07,24.16-12-45.46,34-30.61H136.38v4.18h27.94L138.4,78.75l-1.9,1.71.65,2.47,9.3,35.15-15.58-9.89V98.57l2.84,0V62.82h-2.84V51.25h-2.43a73.44,73.44,0,0,1-6.29-14.69V24.8l-.07-.18h0a141,141,0,0,1-6.89-22.08l0-.16,0,.11a140.64,140.64,0,0,1-6.88,22.07l-.09.23V36.56a73.34,73.34,0,0,1-6.29,14.69H99.44V62.82H96.6v35.8l2.84,0v9.62l-15.58,9.89,9.3-35.15.65-2.47-1.9-1.71L66,55.43H93.88V51.25H55.11l34,30.61Zm45.59-71.46s0-.61,1.08-.61,1.11.61,1.11.61v6.9h-2.2Zm-4.31,0s0-.61,1.08-.61,1.11.61,1.11.61v6.9h-2.2ZM117.67,35v-7.5s0-.61.89-.61.91.61.91.61V35Zm-2.52,20.21c1.05,0,1.11.61,1.11.61v6.9h-2.2v-6.9S114.09,55.25,115.15,55.25ZM114.23,35v-7.5s0-.61.89-.61.91.61.91.61V35Zm-3.44,0v-7.5s0-.61.89-.61.91.61.91.61V35Zm1.15,20.82v6.9h-2.2v-6.9s0-.61,1.08-.61S111.95,55.86,111.95,55.86Zm-6.51,0s0-.61,1.08-.61,1.11.61,1.11.61v6.9h-2.2ZM114,68.18V84.66L122.23,74l-1.89-1.46-4,5.14V68.18a13.05,13.05,0,1,1-2.39,0Z"/></g></svg>