<svg id="Layer_1" data-name="Layer 1" xmlns="http://www.w3.org/2000/svg" viewBox="0 0 219.39 48.08"><defs><style>.cls-1{fill:#f58a1f;}.cls-2{fill:#eb5724;}.cls-3{fill:#1e2d5d;}</style></defs><polygon class="cls-1" points="28.88 34.84 51.34 34.84 51.34 1.54 28.88 34.84"/><polygon class="cls-2" points="1 1 1 34.84 51.34 1 1 1"/><path class="cls-3" d="M214.8,2.29a3.56,3.56,0,1,1-3.59,3.57,3.58,3.58,0,0,1,3.59-3.57m0,6.59a3,3,0,1,0-3-3,3,3,0,0,0,3,3m-1.4-5.05h1.42c.75,0,1.49.32,1.49,1.18a1.07,1.07,0,0,1-.93,1.09l1.09,1.76h-.88l-1-1.68h-.52V7.86h-.72Zm1.31,1.77c.41,0,.88-.12.88-.6s-.43-.55-.81-.55h-.66V5.6Zm-8.66,24.34c-2.83,0-4.14-1.38-4.14-4.34V14.25h5.43V9.33h-5.43v-7h-5.55V25.6c0,5.89,3.37,9.42,8.81,9.42a18.26,18.26,0,0,0,2.26-.16v-5c-.7.06-1.09.07-1.38.07m-16-17.62a11.88,11.88,0,0,0-8.76-3.56c-7,0-12.44,5.84-12.44,13.18S174.15,35,181.44,35a13.17,13.17,0,0,0,10.08-5l-4.33-3a7.5,7.5,0,0,1-5.75,3,7,7,0,0,1-6.74-5.77h18.63a13.45,13.45,0,0,0-3.27-11.86m-15.32,7.23c.21-1.51,2-5.71,6.57-5.71s6.33,4.07,6.51,5.71ZM160.49,9.33v2.3a10.66,10.66,0,0,0-7.35-2.87c-7.11,0-12.69,5.68-12.69,13.11S146,35,153.14,35a10.78,10.78,0,0,0,7.21-2.75s1.13,9.61-7.34,9.61a8.71,8.71,0,0,1-7.23-4.5l-4.44,3.12A13.18,13.18,0,0,0,153,47.08a13.32,13.32,0,0,0,8.77-2.93c2.69-2.37,4.16-5.67,4.16-10.11V9.33ZM153.14,29.9c-4,0-7.13-3.56-7.13-8.08s3.19-7.94,7.13-7.94,7.21,3.63,7.21,7.94-3.24,8.08-7.21,8.08M124.6,35a12.73,12.73,0,0,1-12.7-13.1c0-7.45,5.59-13.16,12.7-13.16a10.78,10.78,0,0,1,7.21,2.75V1h5.56V34.5H132V32.16A10.69,10.69,0,0,1,124.6,35m0-21.11c-4,0-7.13,3.54-7.13,8.06s3.19,7.94,7.13,7.94,7.21-3.63,7.21-7.94-3.23-8.06-7.21-8.06m-15.45,8.41v-13h-5.56v13c0,4.62-2.36,7.6-6.06,7.6s-6-3-6-7.6v-13H85.91v13c0,7.75,5.17,12.7,11.62,12.7s11.62-5,11.62-12.7M59.81,34.84V1H71.56c4.57,0,10.09,2.41,10.09,8.77,0,3.8-1.78,6.24-3.38,7.15,4.3,1.65,5.15,5.74,5.15,8.15,0,5.41-4.46,9.77-11.56,9.77Zm11.4-5.07a9.59,9.59,0,0,0,3.49-.53,4.85,4.85,0,0,0,0-8.92,9.38,9.38,0,0,0-3.93-.57h-5.3v10ZM70.3,14.9a9.83,9.83,0,0,0,3.64-.52c1.46-.81,1.93-2.07,1.93-4a4,4,0,0,0-2.28-3.76,7.55,7.55,0,0,0-3.43-.57H65.47V14.9Z"/></svg>