<svg xmlns="http://www.w3.org/2000/svg" viewBox="0 0 112.25 51.18"><title>oic-holdings</title><path d="M48.26,2.37A9,9,0,0,0,41.85,0Q36,0,31.26,5.56a17.12,17.12,0,0,0-4.59,11.22,8.35,8.35,0,0,0,2.43,6.29,8.66,8.66,0,0,0,6.29,2.36q6.13,0,10.87-5.63a17,17,0,0,0,4.5-11.07A8.28,8.28,0,0,0,48.26,2.37Zm-3.4,8.33A33,33,0,0,1,43,16.62c-1.25,2.95-2.45,4.95-3.62,6a5.66,5.66,0,0,1-3.88,1.58A3.14,3.14,0,0,1,32.37,22h0a7.34,7.34,0,0,1-.4-2.63A29.46,29.46,0,0,1,34.25,9.28q3.07-8,7.57-8a3.19,3.19,0,0,1,2.81,1.3,5.32,5.32,0,0,1,.9,3.12A24.85,24.85,0,0,1,44.86,10.7Z" fill="#333"/><path d="M49.57,24.8H60.34v-1a7,7,0,0,1-2.13-.39c-.33-.17-.49-.55-.49-1.16a1.93,1.93,0,0,1,0-.34,1.13,1.13,0,0,0,.06-.36l.28-1.25L62.52,4.12a3.74,3.74,0,0,1,1-2,4,4,0,0,1,1.91-.63V.55H54.67v.94a7.4,7.4,0,0,1,2.13.38c.34.16.51.55.51,1.16a4.48,4.48,0,0,1-.1.82c-.07.31-.16.7-.29,1.16L52.48,21.22a3.7,3.7,0,0,1-1,2,3.94,3.94,0,0,1-1.91.63Z" fill="#333"/><path d="M82.67,19.26a14,14,0,0,1-2.54,2.56,8.26,8.26,0,0,1-5,1.75,5.86,5.86,0,0,1-3.75-1.38q-1.72-1.38-1.72-5.14A20.45,20.45,0,0,1,72.45,6.91q3.1-5.58,7.3-5.58a4.52,4.52,0,0,1,3.41,1.39A6,6,0,0,1,84.5,7v.4l-.06.89,1.13.21L87.4,0H86.31a3.06,3.06,0,0,1-.55.78,1.14,1.14,0,0,1-.85.28A14.64,14.64,0,0,1,82.55.55,14.59,14.59,0,0,0,78.72,0a13.47,13.47,0,0,0-10.3,4.8,16.26,16.26,0,0,0-4.33,11.31,8.72,8.72,0,0,0,2.83,6.82,10.35,10.35,0,0,0,7.17,2.55,11.07,11.07,0,0,0,5.22-1.34,12.3,12.3,0,0,0,4.45-4.09Z" fill="#333"/><path d="M12.25,45.05l.19-.8L15,35a2.49,2.49,0,0,1,.58-1.21,2.56,2.56,0,0,1,1.14-.34v-.34H11.53v.34a2.82,2.82,0,0,1,1,.15.73.73,0,0,1,.5.72,2.81,2.81,0,0,1,0,.41,4.53,4.53,0,0,1-.13.64l-1,3.72H5.4L6.53,35a2,2,0,0,1,.89-1.27,3.2,3.2,0,0,1,1.22-.28v-.34H2.9v.34a3,3,0,0,1,1.28.22.75.75,0,0,1,.35.71,2.4,2.4,0,0,1,0,.46c0,.15-.1.42-.19.79L1.72,44.88A2.31,2.31,0,0,1,1,46.16a2.2,2.2,0,0,1-1,.27v.37H5.2v-.38A3.27,3.27,0,0,1,4,46.2a.76.76,0,0,1-.32-.74.74.74,0,0,1,0-.21V45l.2-.8,1.2-4.33h6.5l-1.37,5a2,2,0,0,1-.9,1.28,3.14,3.14,0,0,1-1.21.27v.34h5.74v-.37a3.69,3.69,0,0,1-1.28-.2.76.76,0,0,1-.35-.76.74.74,0,0,1,0-.21Z" fill="#333"/><path d="M21.65,37.47a5.72,5.72,0,0,0-4.21,2.1,6.25,6.25,0,0,0-1.91,4.3A2.89,2.89,0,0,0,18.65,47a5.74,5.74,0,0,0,4.22-2.17,6.34,6.34,0,0,0,1.92-4.27,3.41,3.41,0,0,0-.71-2.17A2.89,2.89,0,0,0,21.65,37.47ZM22,44q-1.34,2.52-3,2.52A1.48,1.48,0,0,1,17.73,46h0a2.29,2.29,0,0,1-.36-1.42,8.48,8.48,0,0,1,1.29-4.32c.91-1.57,1.89-2.35,2.94-2.35a1.31,1.31,0,0,1,1.31.89A3.49,3.49,0,0,1,23.08,40,8.91,8.91,0,0,1,22,44Z" fill="#333"/><path d="M28.78,45.4c-.42.44-.75.66-1,.66a.27.27,0,0,1-.27-.14.75.75,0,0,1-.07-.33.54.54,0,0,1,0-.18l.13-.53L31,32.55c0-.1.68-.31-.14-.1-.55.14-1,.24-1.4.31l-.79.11L27.58,33v.34a4.61,4.61,0,0,1,1.11.07.39.39,0,0,1,.28.43v.21a1.28,1.28,0,0,1,0,.27L26,44.58a2.61,2.61,0,0,0-.14.59,4.06,4.06,0,0,0-.08.69,1,1,0,0,0,.44.94A1.14,1.14,0,0,0,27,47a2.5,2.5,0,0,0,1.72-.85,13.42,13.42,0,0,0,1.38-1.8l-.28-.19A11.17,11.17,0,0,1,28.78,45.4Z" fill="#333"/><path d="M39.42,45.36a1.57,1.57,0,0,1-.85.53.49.49,0,0,1-.24-.08c-.14-.05-.14-.17-.14-.36a1,1,0,0,1,0-.25.45.45,0,0,0,.07-.3L39.64,40l2-7.37v-.11l-.09-.1c-1.38.25-2.46.43-3.23.53v.34H39a.72.72,0,0,1,.43.1c.1.07.15.23.15.5v.24a1.55,1.55,0,0,1-.07.31l-1.21,4.2a1.79,1.79,0,0,0-.31-.77,1.44,1.44,0,0,0-1.09-.45q-1.95,0-4,2.35a7.06,7.06,0,0,0-2.06,4.59,2.58,2.58,0,0,0,.67,2A2.18,2.18,0,0,0,33.1,47a3.13,3.13,0,0,0,2-.76,8.59,8.59,0,0,0,1.71-1.95,8.29,8.29,0,0,0-.19,1q0,.34-.06.69a.93.93,0,0,0,.42.88,1,1,0,0,0,.51.12,3,3,0,0,0,1.91-1,7.3,7.3,0,0,0,1-1.15l.14-.22-.24-.23C39.93,44.81,39.63,45.15,39.42,45.36Zm-2.69-1.78c-.9,1.57-1.84,2.36-2.82,2.36a1,1,0,0,1-1-.47h0a2,2,0,0,1-.25-1.06A8.07,8.07,0,0,1,34,40.5Q35.41,38,37,38a.85.85,0,0,1,.84.41,2.3,2.3,0,0,1,.21,1A8.29,8.29,0,0,1,36.73,43.58Z" fill="#333"/><path d="M45.15,33a.94.94,0,0,0-.72.33,1.12,1.12,0,0,0-.3.8,1.1,1.1,0,0,0,.3.79h0a.9.9,0,0,0,.69.32,1,1,0,0,0,.72-.32,1.1,1.1,0,0,0,.3-.79,1.12,1.12,0,0,0-.3-.8A1,1,0,0,0,45.15,33Z" fill="#333"/><path d="M44.46,45.37a1.83,1.83,0,0,1-.92.61c-.14,0-.26,0-.26-.12a.63.63,0,0,1-.06-.27,5.42,5.42,0,0,1,.14-.7l2.07-7.32a.07.07,0,0,0,0-.09,1.16,1.16,0,0,0-.49,0q-.44.11-.93.18l-.75.12L42,38v.34a3.84,3.84,0,0,1,1.07.09.42.42,0,0,1,.27.46.74.74,0,0,1,0,.21l0,.23-1.46,5.27a3.93,3.93,0,0,0-.15.65,2.26,2.26,0,0,0,0,.52,1.38,1.38,0,0,0,.29.87.91.91,0,0,0,.73.37,2.32,2.32,0,0,0,1.54-.74,11.76,11.76,0,0,0,1.27-1.55l.1-.14-.27-.23A11.28,11.28,0,0,1,44.46,45.37Z" fill="#333"/><path d="M54.71,45.59a1,1,0,0,1-.59.31.25.25,0,0,1-.23-.12.55.55,0,0,1-.07-.28,1.67,1.67,0,0,1,0-.31l.09-.37,1.35-4.91a2.58,2.58,0,0,0,.13-.57,2.94,2.94,0,0,0,.05-.51,1.26,1.26,0,0,0-.63-1.22,1.68,1.68,0,0,0-.79-.17,4,4,0,0,0-2.66,1.65,24.4,24.4,0,0,0-2.11,2.85l1.36-4.41a.24.24,0,0,0-.08-.09l-1.82.4-.61.12-.94.15v.34h.5a1,1,0,0,1,.66.17.64.64,0,0,1,.17.47,2.29,2.29,0,0,1,0,.37c0,.13-.11.47-.26,1L46.53,46.8,48,46.72c.46-1.49.79-2.51,1-3.08a10,10,0,0,1,.84-1.74,16.38,16.38,0,0,1,1.41-2c.81-.93,1.48-1.39,2-1.39a.46.46,0,0,1,.42.18.79.79,0,0,1,.12.42,2.29,2.29,0,0,1,0,.37c0,.23-.08.45-.14.67l-1.31,5a2.05,2.05,0,0,0-.07.34,2.29,2.29,0,0,0,0,.37,1,1,0,0,0,.32.84,1.06,1.06,0,0,0,.66.23,2.33,2.33,0,0,0,1.58-.81,12.53,12.53,0,0,0,1.31-1.6l-.3-.27A11.6,11.6,0,0,1,54.71,45.59Z" fill="#333"/><path d="M63.71,37.77a3.73,3.73,0,0,0-1.58-.29,4.46,4.46,0,0,0-3,1,3.2,3.2,0,0,0-1.21,2.57,2.17,2.17,0,0,0,.57,1.57,3.16,3.16,0,0,0,1.13.7,8.35,8.35,0,0,0-1.07.81,1.48,1.48,0,0,0-.58,1,.7.7,0,0,0,.16.48,2,2,0,0,0,.42.34,6.48,6.48,0,0,0-1.87,1.38,2.2,2.2,0,0,0-.57,1.51A2,2,0,0,0,57,50.49a4.12,4.12,0,0,0,2.5.68,5.26,5.26,0,0,0,3.4-.93,2.75,2.75,0,0,0,1.13-2.16q0-1.65-2.25-2.49c-1.51-.56-2.26-1-2.26-1.19a.92.92,0,0,1,.28-.53q.27-.3.42-.3l.33.06h.29a4.61,4.61,0,0,0,2.78-1A3.07,3.07,0,0,0,64.94,40a4.51,4.51,0,0,0,0-.52,2.26,2.26,0,0,1-.09-.41h1v-.83H64.47A1.92,1.92,0,0,0,63.71,37.77Zm-3.53,8.85c.67.25,1.14.45,1.42.59a3,3,0,0,1,.73.48,1.38,1.38,0,0,1,.42,1,1.71,1.71,0,0,1-.8,1.39,3.32,3.32,0,0,1-2,.63,3.93,3.93,0,0,1-1.52-.27,1.87,1.87,0,0,1-1.18-1.88A2.14,2.14,0,0,1,58,47c.49-.47.82-.71,1-.71A6.74,6.74,0,0,1,60.18,46.62ZM62.59,42a2,2,0,0,1-1.65,1.17,1.2,1.2,0,0,1-1.18-.63h0a2.19,2.19,0,0,1-.19-1,4.67,4.67,0,0,1,.7-2.35A2.08,2.08,0,0,1,62.12,38a1.08,1.08,0,0,1,.89.38,1.73,1.73,0,0,1,.3,1.06A4.85,4.85,0,0,1,62.59,42Z" fill="#333"/><path d="M72.69,37.78a.58.58,0,0,1-.38.1,3.84,3.84,0,0,1-.88-.19,4.07,4.07,0,0,0-1.15-.19,2.36,2.36,0,0,0-1.82.68,2.24,2.24,0,0,0-.64,1.57,2.64,2.64,0,0,0,.3,1.17c.15.26.49.77,1,1.54L70,43.72a2.57,2.57,0,0,1,.27.52,2.08,2.08,0,0,1,.11.74,1.64,1.64,0,0,1-.43,1.17,1.38,1.38,0,0,1-1,.44,1.81,1.81,0,0,1-1.68-1.06,6.62,6.62,0,0,1-.53-1.81h-.34l-.43,3.33h.34a.84.84,0,0,1,.18-.28.4.4,0,0,1,.3-.09c.3,0,.6.1.9.17a6.09,6.09,0,0,0,1.2.17,3.46,3.46,0,0,0,2.25-.76A2.33,2.33,0,0,0,72,44.39a2.67,2.67,0,0,0-.24-1.11A9.87,9.87,0,0,0,71,42l-.73-1a12,12,0,0,1-.72-1.13,1.57,1.57,0,0,1-.16-.74,1,1,0,0,1,.35-.83,1.3,1.3,0,0,1,.8-.28,1.64,1.64,0,0,1,1.56.93,4.57,4.57,0,0,1,.4,1.5h.34l.42-2.91h-.3A1,1,0,0,1,72.69,37.78Z" fill="#333"/><path d="M75.83,44.66a1,1,0,0,0-.8.3.91.91,0,0,0-.23.52,1.49,1.49,0,0,0,.09.59,2.39,2.39,0,0,0,.47.58l.19.2a.68.68,0,0,1,.19.47,1.62,1.62,0,0,1-.6,1.07,9.18,9.18,0,0,1-1,.77l.19.34.32-.17A6.48,6.48,0,0,0,76.26,48a2.72,2.72,0,0,0,.79-1.89,1.65,1.65,0,0,0-.34-1.07A1.08,1.08,0,0,0,75.83,44.66Z" fill="#333"/><path d="M86.5,44.24,89.07,35a2.42,2.42,0,0,1,.58-1.19,2.45,2.45,0,0,1,1.14-.35v-.34h-5.2v.34a2.9,2.9,0,0,1,1.16.24.73.73,0,0,1,.33.69,2.4,2.4,0,0,1,0,.46c0,.15-.1.42-.19.79l-2.57,9.29a2.31,2.31,0,0,1-.71,1.28,2.2,2.2,0,0,1-1,.27v.37h5.12v-.37a2.8,2.8,0,0,1-1.07-.21.7.7,0,0,1-.36-.69,3.93,3.93,0,0,1,.06-.48C86.35,44.84,86.41,44.57,86.5,44.24Z" fill="#333"/><path d="M97.8,45.59a1,1,0,0,1-.59.31.25.25,0,0,1-.23-.12.55.55,0,0,1-.07-.28,1.67,1.67,0,0,1,0-.31l.09-.37,1.35-4.91c0-.2.1-.39.13-.57a2.94,2.94,0,0,0,0-.51A1.26,1.26,0,0,0,98,37.61a1.68,1.68,0,0,0-.79-.17,4,4,0,0,0-2.66,1.65,24.4,24.4,0,0,0-2.11,2.85l1.36-4.41a.24.24,0,0,0-.08-.09l-1.82.4-.61.12-.94.15v.34h.5a1,1,0,0,1,.66.17.64.64,0,0,1,.17.47,2.29,2.29,0,0,1,0,.37c0,.13-.11.47-.26,1L89.61,46.8l1.44-.08c.46-1.49.79-2.51,1-3.08a10,10,0,0,1,.84-1.74,16.38,16.38,0,0,1,1.41-2c.81-.93,1.48-1.39,2-1.39a.46.46,0,0,1,.42.18.79.79,0,0,1,.12.42,2.29,2.29,0,0,1,0,.37c0,.23-.08.45-.14.67l-1.31,5c0,.11,0,.23-.07.34a2.29,2.29,0,0,0,0,.37,1,1,0,0,0,.32.84,1.06,1.06,0,0,0,.66.23,2.33,2.33,0,0,0,1.58-.81,12.53,12.53,0,0,0,1.31-1.6l-.3-.27A11.6,11.6,0,0,1,97.8,45.59Z" fill="#333"/><path d="M106,37.5a5.58,5.58,0,0,0-4.06,2,6.07,6.07,0,0,0-1.9,4.29,3.28,3.28,0,0,0,.85,2.39,3,3,0,0,0,2.23.88,4.38,4.38,0,0,0,2.61-.85,7.32,7.32,0,0,0,1.38-1.4l-.3-.23-.07.08a6.34,6.34,0,0,1-1.37,1.16,3,3,0,0,1-1.53.46,1.73,1.73,0,0,1-1.48-.66,3,3,0,0,1-.49-1.82,7.2,7.2,0,0,1,1.21-3.94A3.46,3.46,0,0,1,106,37.93a1.3,1.3,0,0,1,.67.13.38.38,0,0,1,.21.31,1.18,1.18,0,0,1-.17.4,1.26,1.26,0,0,0-.17.57.77.77,0,0,0,.26.58.88.88,0,0,0,.64.24h.1a1,1,0,0,0,.9-1,1.6,1.6,0,0,0-.55-1.09A2.45,2.45,0,0,0,106,37.5Z" fill="#333"/><path d="M111.91,45a1.18,1.18,0,0,0-1.65,0,1.09,1.09,0,0,0-.34.82,1.17,1.17,0,0,0,.34.83h0a1.17,1.17,0,0,0,2-.84A1.09,1.09,0,0,0,111.91,45Z" fill="#333"/></svg>