<svg xmlns="http://www.w3.org/2000/svg" viewBox="0 0 363.78 314.54"><title>color</title><path d="M181.89,1.88c-99.42,0-180,54.07-180,120.79s80.59,120.79,180,120.79,180-54.08,180-120.79S281.31,1.88,181.89,1.88Z" fill="#008368"/><path d="M181.89,1.88c-99.42,0-180,54.07-180,120.79s80.59,120.79,180,120.79,180-54.08,180-120.79S281.31,1.88,181.89,1.88Z" fill="#008368" stroke="#fff" stroke-miterlimit="10" stroke-width="3.75"/><rect x="140.63" y="24.23" width="0.02" height="0.01" fill="#fff"/><polygon points="35.82 294.44 31.86 294.44 31.86 314.19 43.49 314.19 43.49 311.08 35.82 311.08 35.82 294.44" fill="#000101"/><path d="M57.05,294.1c-6.28,0-9.68,4.1-9.68,10.16s3.34,10.27,9.68,10.27,9.68-4.29,9.68-10.27S63.24,294.1,57.05,294.1Zm0,17.32c-4,0-5.55-3.59-5.55-7.16s1.61-7.05,5.55-7.05,5.55,3.57,5.55,7.05S61.1,311.42,57.05,311.42Z" fill="#000101"/><path d="M82.55,311.42c-4.22,0-6.7-3-6.7-7.05s2.55-7.16,6.62-7.16a8.15,8.15,0,0,1,4.27,1.05l.29-3.34a13,13,0,0,0-4.48-.82c-6.7,0-10.84,3.79-10.84,10.56s4.44,9.88,10.84,9.88a20,20,0,0,0,4.5-.63l-.17-3.31A11,11,0,0,1,82.55,311.42Z" fill="#000101"/><path d="M98,294.45l-7.7,19.74h4.11l1.72-4.52h8l1.7,4.52h4.39l-7.76-19.74Zm-.73,12.1,2.86-8.15h.06l2.85,8.15Z" fill="#000101"/><polygon points="119.01 294.44 115.05 294.44 115.05 314.19 126.68 314.19 126.68 311.08 119.01 311.08 119.01 294.44" fill="#000101"/><polygon points="141.66 299.07 143.64 301.66 146.98 298.94 146.98 314.19 150.94 314.19 150.94 294.44 147.43 294.44 141.66 299.07" fill="#000101"/><path d="M165.46,301.4a9.61,9.61,0,0,0-1.81.2l.08-4.22h7.61v-2.94H160l-.19,10.61a11.72,11.72,0,0,1,3.54-.53c2.26,0,4.53.87,4.53,3.42s-2.16,3.48-4.22,3.48a10.11,10.11,0,0,1-4.05-1l-.08,3.54a21.47,21.47,0,0,0,4.61.56c5.1,0,7.69-3,7.69-6.7C171.82,302.7,168.24,301.4,165.46,301.4Z" fill="#000101"/><path d="M189.21,299.88c0-3.88-2.44-5.78-6.2-5.78a13.21,13.21,0,0,0-5.86,1.41l.31,3.29a8.58,8.58,0,0,1,4.56-1.59c1.62,0,3.22.85,3.22,2.67,0,3.62-6.7,9.22-8.54,11v3.3h13.13v-3.11h-8.06C185,307.92,189.21,304.06,189.21,299.88Z" fill="#000101"/><path d="M221.93,294.45l-7.69,19.74h4.1l1.72-4.52h8l1.7,4.52h4.39l-7.75-19.74Zm-.74,12.1,2.86-8.15h.06l2.86,8.15Z" fill="#000101"/><polygon points="239.02 314.19 242.99 314.19 242.99 305.54 249.67 305.54 249.67 302.42 242.99 302.42 242.99 297.55 250.01 297.55 250.01 294.44 239.02 294.44 239.02 314.19" fill="#000101"/><polygon points="259.46 294.44 255.5 294.44 255.5 314.19 267.13 314.19 267.13 311.08 259.46 311.08 259.46 294.44" fill="#000101"/><rect x="270.67" y="305.02" width="7.45" height="3.12" fill="#000101"/><path d="M293.6,311.42c-4.22,0-6.7-3-6.7-7.05s2.54-7.16,6.61-7.16a8.18,8.18,0,0,1,4.28,1.05l.28-3.34a12.94,12.94,0,0,0-4.47-.82c-6.7,0-10.85,3.79-10.85,10.56s4.45,9.88,10.85,9.88a20,20,0,0,0,4.5-.63l-.17-3.31A11,11,0,0,1,293.6,311.42Z" fill="#000101"/><rect x="303" y="294.44" width="3.96" height="19.75" fill="#000101"/><path d="M322.24,294.1c-6.28,0-9.67,4.1-9.67,10.16s3.33,10.27,9.67,10.27,9.68-4.29,9.68-10.27S328.44,294.1,322.24,294.1Zm0,17.32c-4,0-5.54-3.59-5.54-7.16s1.61-7.05,5.54-7.05,5.55,3.57,5.55,7.05S326.29,311.42,322.24,311.42Z" fill="#000101"/><path d="M41.71,279.85h8.7l1.77,5.82H63l-9.59-26.88H39.2l-9.43,26.88H40.05Zm4.39-15.28h.07l2.92,8.82h-6Z" fill="#000101"/><polygon points="89.52 285.67 99.84 285.67 99.84 276.07 112.16 276.07 112.16 269.61 99.84 269.61 99.84 265.26 112.54 265.26 112.54 258.79 89.52 258.79 89.52 285.67" fill="#000101"/><path d="M166.11,277.12c0-10.36-14.13-7.05-14.13-10.55,0-1.73,2.82-1.77,4.43-1.77a24.05,24.05,0,0,1,8,1.35v-6.89a45.7,45.7,0,0,0-8.89-.93c-6.12,0-13.82,1.31-13.82,8.7,0,10.43,14.13,7.16,14.13,10.78,0,1.35-2.19,1.85-4.63,1.85a24.81,24.81,0,0,1-9.23-1.77v7A46.92,46.92,0,0,0,153,286.13C159,286.13,166.11,284.32,166.11,277.12Z" fill="#000101"/><path d="M216.44,277.93a16.85,16.85,0,0,1-5.57,1c-4.28,0-7.36-2.35-7.36-7,0-4.39,3.31-6.74,7.7-6.74a17,17,0,0,1,5.15,1v-7.09a36.4,36.4,0,0,0-7.31-.84c-8.62,0-16.09,4.51-16.09,13.52,0,9.57,7.16,14.28,16.09,14.28a29.24,29.24,0,0,0,7.39-1.09Z" fill="#000101"/><polygon points="262 273.5 261.92 273.5 258.41 258.79 243.17 258.79 243.17 285.67 251.94 285.67 252.06 264.57 252.21 264.57 257.34 285.67 265.92 285.67 271.2 264.57 271.27 264.57 271.42 285.67 280.66 285.67 280.66 258.79 265.46 258.79 262 273.5" fill="#000101"/><polygon points="320.52 279.34 320.52 275.68 333.16 275.68 333.16 269.21 320.52 269.21 320.52 265.4 333.74 265.4 333.74 258.93 310.44 258.93 310.44 285.81 334.01 285.81 334.01 279.34 320.52 279.34" fill="#000101"/><polygon points="292.81 229.53 294.27 229.53 294.27 223.38 296.36 223.38 296.36 222.23 290.72 222.23 290.72 223.38 292.81 223.38 292.81 229.53" fill="#000101"/><polygon points="304.13 223.51 304.13 229.53 305.53 229.53 305.53 222.23 303.19 222.23 301.45 227.77 301.43 227.77 299.69 222.23 297.35 222.23 297.35 229.53 298.75 229.53 298.75 223.53 298.77 223.51 300.74 229.53 302.14 229.53 304.11 223.51 304.13 223.51" fill="#000101"/><path d="M311.24,65.69a86.44,86.44,0,0,0-9.46-10.36,69.26,69.26,0,0,1,5.12,7.12,2.39,2.39,0,0,1,.13.21c.42.68.83,1.35,1.22,2l.25.46A57.19,57.19,0,0,1,312,72.52l.14.36c.28.74.54,1.49.79,2.24a50.21,50.21,0,0,1,2.55,15.73c0,14.31-6.2,27.73-17,39.33a45.79,45.79,0,0,0,7.62-24.8c0-37-48-68.4-107.78-69.48v0a4.18,4.18,0,0,0-3.09-4.41c-1.8-.4-3.6.76-4.29,1.27,0,0-.89.65-1.51,1.1a3.87,3.87,0,0,0-2.9.91l-.92.8-.88.4-.9.3c-1.27.08-2.53.18-3.78.29a5.5,5.5,0,0,0-4.18-1.89l-.11-.16a5.51,5.51,0,0,0-2.42-3.87,11.41,11.41,0,0,1-1.86-2,5.67,5.67,0,0,0-3.92-2.3,4.63,4.63,0,0,0-3.6,1.18,10.57,10.57,0,0,0-2.63,4.07l-1,.52h0a10.59,10.59,0,0,0-2.41.82c.15-1.8-.12-4.13-1.3-5.51a8.51,8.51,0,0,0-5.23-2.34,7.65,7.65,0,0,0-4.95.94,5.67,5.67,0,0,0-3.24,1,3.64,3.64,0,0,0-2.43-2.77A4,4,0,0,0,136.15,26l-.37.37a9.92,9.92,0,0,0-2.37,3.19,7.82,7.82,0,0,0-.8,4.39,4.21,4.21,0,0,0,1.83,2.8,4.05,4.05,0,0,0,2.81.5,5.26,5.26,0,0,0,5.42,4h0v0h0A7.89,7.89,0,0,0,146.56,43c-37,11.45-62.46,35.45-62.46,62.4,0,26,23.77,48.63,58.7,60.1-50-10.95-85.69-40.22-85.69-74.63,0-15.25,7-29.48,19.18-41.57l.83-.81.92-.88.86-.8,1-.88.87-.77,1.12-1,1.55-1.28,1.06-.85,1.09-.83.92-.7,1.17-.85.88-.64,1.25-.87.83-.57L92,36.7l.67-.43c1.79-1.15,3.62-2.27,5.51-3.35l.31-.18,1.75-1,.59-.32,1.74-.93.62-.32q2.11-1.08,4.3-2.12A150.88,150.88,0,0,0,83.55,39.76C58.18,55.26,42.12,76.94,42.1,101.21c0,23.75,15.75,44.71,39.4,59.71s55.46,24.26,88.42,24.57h0c.12,0,1.17,0,2.73.13,4.72.25,14.78.75,26.76.75,6.49,0,13.54-.14,20.63-.55a3.74,3.74,0,0,1,3.77,3.66,3,3,0,0,1-1,2.34,5.92,5.92,0,0,1-3.13,1.35h0c-8.68,1.54-19.3,2.08-29.66,2.07-10.8,0-21.32-.57-29.13-1.15S148,192.94,148,192.94h-.22a7.55,7.55,0,1,0-.15,15.09,408.06,408.06,0,0,0,43.22,2.26,286.94,286.94,0,0,0,44.92-3.19,3.74,3.74,0,0,1,3.71,3.66,3,3,0,0,1-1.11,2.33,6,6,0,0,1-3,1.37l-.08,0-.08,0c-10.76,2.8-25.09,3.67-38.26,3.67-9.68,0-18.75-.46-25.4-.92s-10.83-.92-10.84-.92h-.21a7.93,7.93,0,0,0-5.37,2,7.17,7.17,0,0,0-2.3,5.28,7.62,7.62,0,0,0,7.52,7.54,288,288,0,0,0,29.2,1.48,194.89,194.89,0,0,0,30.19-2.11h.31a3.8,3.8,0,0,1,2.94,1,3.61,3.61,0,0,1,.87,2.51v.14a3.69,3.69,0,0,1-1.05,2.57c-1,1.06-3.05,2-5.89,2.53a50.72,50.72,0,0,1-6.34.77,4,4,0,0,0-3.69,4.06h0s10.63-.85,13.82-1.82a11.19,11.19,0,0,0,4.88-2.84,7.55,7.55,0,0,0,2.14-5.17v-.24a7.44,7.44,0,0,0-1.9-5.15,7.65,7.65,0,0,0-5.78-2.27h-.69l-.11,0a190.85,190.85,0,0,1-29.7,2.08c-8.06,0-15.28-.37-20.48-.74s-8.34-.73-8.34-.73l-.12,0h-.11a3.73,3.73,0,0,1-3.79-3.66c0-1.94,1.52-3.36,3.74-3.43,1.71.18,17.94,1.84,36.5,1.84,13.36,0,27.88-.84,39.24-3.79h0A9.77,9.77,0,0,0,241,216a6.9,6.9,0,0,0,2.39-5.22,7.61,7.61,0,0,0-7.66-7.54h-.16l-.16,0a282.78,282.78,0,0,1-44.52,3.17c-12,0-22.73-.56-30.45-1.12-3.85-.28-7-.56-9.09-.77s-3.29-.35-3.3-.35h-.23a3.67,3.67,0,1,1-.06-7.34c1.84.21,21.47,2.32,42.31,2.32,10.49,0,21.26-.53,30.32-2.13h0a9.76,9.76,0,0,0,5.15-2.35,6.92,6.92,0,0,0,2.21-5.17,7.61,7.61,0,0,0-7.68-7.54h-.11c-7,.41-14,.56-20.48.56-7.91,0-15-.22-20.22-.44-2.62-.11-4.77-.22-6.34-.31s-2.46-.13-2.88-.14h0a10.09,10.09,0,0,1-3.71-.65,3.08,3.08,0,0,1-1.94-2.17,4.8,4.8,0,0,1-.2-1.31,2.85,2.85,0,0,1,1.09-2.34,4.87,4.87,0,0,1,3-.92h.39s5.58.32,14.28.32c12.69,0,32.07-.66,51-3.94,43.32-7.45,65.67-24.59,77-40.06,11.05-15,11.71-28.28,11.75-29.24a41.28,41.28,0,0,0,.24-4.44C322.91,86,318.66,75.4,311.24,65.69ZM136.78,28v0Zm5.89,13.28-.13-.12.15.12Zm13.69-2.63,0,0,0,0Z" fill="#fff"/><path d="M261,89.66H239.62V123.9H216.09v-7.66c6.23.17,12.21-.41,16.12-2.77l2.37-7.42c-3.78,2.1-10.29,2.81-18.49,2.59V96.47H230l5.06-6.81H202.13v17.82c-8.49-1.44-20.77-4.83-29.54.17l-3.38,7.85a30.08,30.08,0,0,1,13-3.26v12.69c-13,0-19.15-5.8-19.15-15,0-7.38,4-14.5,16.65-14.5,5.34,0,7.35.92,10.89,2.51l4.55-6.61a64.7,64.7,0,0,0-18.57-2.7c-14.74,0-25.23,6-27.76,16.46V89.66h-14V107.8h-16V89.66h-14v41.06h14V116h10.64l5.34-3.88v18.59h14V115.33c2.53,10.47,13,16.41,27.76,16.41a78.42,78.42,0,0,0,18.75-2V113.49c2.64.51,5,1.06,6.8,1.41v15.82h50.12l0-14.26h7.23l4.09-3.25,11,17.51h15.23Zm-9,18.77V97.07l8.33,11.36Z" fill="#008368"/><path d="M142.6,38.08a3.16,3.16,0,0,1,2.23.84,6.23,6.23,0,0,0,3.47,1,6.35,6.35,0,0,0,3.77-1,7.65,7.65,0,0,0,1.69-2.23,19.65,19.65,0,0,0,.81-3.68,5.74,5.74,0,0,0-.52-3.55,5.76,5.76,0,0,0-3.13-1.23,4.59,4.59,0,0,0-2.86.38,2.51,2.51,0,0,1-1.72.56,2.4,2.4,0,0,0-1.79.76,13.24,13.24,0,0,1-1.85,1.74c-.67.52-1.4,1.07-1.6,1.24a2.84,2.84,0,0,0-.79,1.71,4.51,4.51,0,0,0,.32,2.48A2.28,2.28,0,0,0,142.6,38.08Z" fill="#008368"/><path d="M159.73,38.32a5.64,5.64,0,0,0,2.09,2.32,11.38,11.38,0,0,1,2.76,2.6,2.75,2.75,0,0,0,3,.85,3.75,3.75,0,0,0,2.14-1.65,1.49,1.49,0,0,0-.44-1.44l0-.8c.38-.18.75.19.81.82a1.79,1.79,0,0,0,1,1.45l1.72,1a4.65,4.65,0,0,0,3.11.19,29.43,29.43,0,0,1,3.87-.62c.89-.05,1.1-.47.46-.93a9.59,9.59,0,0,1-2.16-2.64,2.74,2.74,0,0,0-2.31-1.59,3,3,0,0,1-2.37-.95,3.29,3.29,0,0,1-.93-2c.08-.45-.42-1.19-1.08-1.65a14.05,14.05,0,0,1-2.64-2.72c-.78-1-2-1.34-2.77-.65a7.51,7.51,0,0,0-1.86,3c-.27,1-1.75,2-3.28,2.36s-2.53.9-2.22,1.23A6.1,6.1,0,0,1,159.73,38.32Z" fill="#008368"/><path d="M184.38,42.65a7.69,7.69,0,0,0,2.16-1.06A10.5,10.5,0,0,1,190,40.38a13.33,13.33,0,0,0,2.75-.83c.56-.2.78-1,1.29-1.62a4.55,4.55,0,0,0,1-2.18c0-.56-.23-1.08-.55-1.15a2.91,2.91,0,0,0-1.69.7c-.6.45-1.58,1.16-2.16,1.55s-1.19.55-1.33.32l-.81,0-1,.86a6.83,6.83,0,0,1-1.78.89c-.75.27-1.62.55-1.94.62a1.21,1.21,0,0,0-.76,1.23,6,6,0,0,0,.05,1.6C183.22,42.69,183.8,42.79,184.38,42.65Z" fill="#008368"/><path d="M192.42,44.2a7.78,7.78,0,0,0-3.11,0c-.79.2-1.49.63-1.53,1L188,46l1.19.83.78,1,.55,1.24a2.71,2.71,0,0,0,2.16.36,5.47,5.47,0,0,0,2.3-1.09,1.91,1.91,0,0,0,0-2.25A4.72,4.72,0,0,0,192.42,44.2Z" fill="#008368"/><path d="M194.67,50.72a1,1,0,0,0-.54,1.36,4.36,4.36,0,0,0,1.77,1.77,7.94,7.94,0,0,0,2.32.93c.69.1,1.36,0,1.47-.15l0-.62-.76-.82a5.94,5.94,0,0,0-2.9-2.36A2.82,2.82,0,0,0,194.67,50.72Z" fill="#008368"/><path d="M199.93,47.69a2.48,2.48,0,0,1,1.83.56,4.41,4.41,0,0,1,.07,2.57,5.76,5.76,0,0,0,.57,3.57A3.92,3.92,0,0,0,205.06,56c.92.05,2.22.12,2.86.14a10.2,10.2,0,0,1,2.1.37,5.16,5.16,0,0,0,2.41-.1,19.76,19.76,0,0,0,3.19-1.36c1-.52,1.69-1.44,1.63-2a3.14,3.14,0,0,0-1.17-1.91,16.56,16.56,0,0,1-2.22-2.17,22.65,22.65,0,0,1-1.92-2.59,4.68,4.68,0,0,0-2.12-1.73,12.23,12.23,0,0,0-3.34-.47,22.58,22.58,0,0,1-2.81-.11l-1.18-.88c-.17-.4-.53-1.31-.78-2a2.9,2.9,0,0,0-1.54-1.61,3.52,3.52,0,0,0-1.68-.18,2.35,2.35,0,0,0-1.39.83,5.08,5.08,0,0,0-.81,2.24,7.4,7.4,0,0,0,1.1,3.4A3.81,3.81,0,0,0,199.93,47.69Z" fill="#008368"/><path d="M220.68,67.65a38.3,38.3,0,0,1,2.26,3.67,18.32,18.32,0,0,1,.95,4.54,24.34,24.34,0,0,0,.73,4.31,4.21,4.21,0,0,0,1,1.56A16.52,16.52,0,0,0,229.78,84c2,.71,4,.05,4.31-1a9.8,9.8,0,0,1,1.16-2.78,7.49,7.49,0,0,0,.69-1.63c.43-.9,1.52-1.89,3.4-3.31a20.45,20.45,0,0,1,5.55-3.13c1.18-.28,3.72-2.19,5.63-4.25s3.28-4.22,3-4.82a3.25,3.25,0,0,0-1.82-1.55,8,8,0,0,1-2.88-2.35,5.63,5.63,0,0,0-2.72-2,1.76,1.76,0,0,1-1.37-1.61,6.23,6.23,0,0,0-2.21-3.11,11.7,11.7,0,0,0-4-2,16.86,16.86,0,0,1-3.24-1,13.27,13.27,0,0,0-4.41-.55,34.28,34.28,0,0,1-4-.11,19.72,19.72,0,0,1-3.22-1.41,7.64,7.64,0,0,0-3.29-.85c-.91,0-1.07.69-1.27,1a4.63,4.63,0,0,0,.44,2.68A8.51,8.51,0,0,0,221.27,53c.48.43.3,1.83-.42,3.13s-1.88,3.35-2.59,4.56-.83,2.72-.25,3.36S219.78,66.34,220.68,67.65Z" fill="#008368"/><path d="M136.33,35.41a3,3,0,0,0,1.41-1.26,7.64,7.64,0,0,1,1.51-1.8,2.11,2.11,0,0,0,.77-1.6,8.3,8.3,0,0,1,.06-1.92c.08-.55-.08-1.07-.35-1.15l-.94.55-1.24,1.31A7.61,7.61,0,0,0,136,31.82a5.7,5.7,0,0,0-.6,2.72C135.47,35.11,135.91,35.51,136.33,35.41Z" fill="#008368"/></svg>