<svg xmlns="http://www.w3.org/2000/svg" viewBox="0 0 363.78 245.34"><title>color-notag</title><path d="M181.89,1.87c-99.42,0-180,54.08-180,120.8s80.59,120.79,180,120.79,180-54.08,180-120.79S281.31,1.87,181.89,1.87Z" fill="#008368"/><path d="M181.89,1.87c-99.42,0-180,54.08-180,120.8s80.59,120.79,180,120.79,180-54.08,180-120.79S281.31,1.87,181.89,1.87Z" fill="#008368" stroke="#fff" stroke-miterlimit="10" stroke-width="3.75"/><rect x="140.63" y="24.23" width="0.02" height="0.01" fill="#fff"/><path d="M311.24,65.69a86.44,86.44,0,0,0-9.46-10.36,69.26,69.26,0,0,1,5.12,7.12,2.39,2.39,0,0,1,.13.21c.42.68.83,1.35,1.22,2l.25.46A55.89,55.89,0,0,1,312,72.52l.14.36c.28.74.54,1.49.79,2.24a50.21,50.21,0,0,1,2.55,15.73c0,14.31-6.2,27.73-17,39.33a45.79,45.79,0,0,0,7.62-24.8c0-37-48-68.4-107.78-69.48v0a4.18,4.18,0,0,0-3.09-4.41c-1.8-.4-3.6.76-4.29,1.27,0,0-.89.65-1.51,1.1a3.87,3.87,0,0,0-2.9.91l-.92.8-.88.4-.9.3c-1.27.08-2.53.18-3.78.29a5.5,5.5,0,0,0-4.18-1.89l-.11-.16a5.51,5.51,0,0,0-2.42-3.87,11.41,11.41,0,0,1-1.86-2,5.67,5.67,0,0,0-3.92-2.3,4.63,4.63,0,0,0-3.6,1.18,10.57,10.57,0,0,0-2.63,4.07l-1,.52h0a10.52,10.52,0,0,0-2.42.82c.15-1.8-.12-4.13-1.3-5.51a8.51,8.51,0,0,0-5.23-2.34,7.65,7.65,0,0,0-4.95.94,5.67,5.67,0,0,0-3.24,1,3.64,3.64,0,0,0-2.43-2.77A4,4,0,0,0,136.15,26l-.37.37a9.82,9.82,0,0,0-2.37,3.19,7.82,7.82,0,0,0-.8,4.39,4.21,4.21,0,0,0,1.83,2.8,4.05,4.05,0,0,0,2.81.5,5.26,5.26,0,0,0,5.42,4h0v0h0A7.89,7.89,0,0,0,146.56,43c-37,11.45-62.46,35.45-62.46,62.4,0,26,23.77,48.63,58.7,60.1-50-10.95-85.69-40.22-85.69-74.63,0-15.25,7-29.48,19.18-41.57l.83-.81.92-.88.86-.8,1-.88.87-.77,1.12-1c.51-.43,1-.85,1.56-1.28l1-.85,1.09-.83.92-.7,1.17-.85.88-.64,1.25-.87.84-.57L92,36.7l.67-.43c1.79-1.15,3.62-2.27,5.51-3.35l.31-.18,1.75-1,.59-.32,1.75-.93.61-.32q2.11-1.08,4.3-2.12A150.88,150.88,0,0,0,83.55,39.76C58.18,55.26,42.12,76.94,42.1,101.21c0,23.75,15.75,44.71,39.4,59.71s55.46,24.26,88.42,24.57h0c.12,0,1.17,0,2.73.13,4.72.25,14.78.75,26.76.75,6.49,0,13.54-.15,20.63-.55a3.74,3.74,0,0,1,3.77,3.66,3,3,0,0,1-1,2.34,5.92,5.92,0,0,1-3.13,1.35h0c-8.68,1.54-19.3,2.08-29.66,2.07-10.8,0-21.32-.57-29.13-1.15S148,192.94,148,192.94h-.22a7.55,7.55,0,1,0-.15,15.09,408.06,408.06,0,0,0,43.22,2.26,286.94,286.94,0,0,0,44.92-3.19,3.74,3.74,0,0,1,3.71,3.66,3,3,0,0,1-1.11,2.33,6,6,0,0,1-3,1.37l-.08,0-.08,0c-10.76,2.8-25.08,3.67-38.25,3.67-9.69,0-18.76-.46-25.41-.92s-10.83-.92-10.84-.92h-.21a7.93,7.93,0,0,0-5.37,2,7.17,7.17,0,0,0-2.3,5.28,7.62,7.62,0,0,0,7.52,7.54,288,288,0,0,0,29.2,1.48,194.89,194.89,0,0,0,30.19-2.11h.31a3.8,3.8,0,0,1,2.94,1,3.61,3.61,0,0,1,.87,2.51v.14a3.69,3.69,0,0,1-1.05,2.57c-1,1.06-3.05,2-5.89,2.53a50.72,50.72,0,0,1-6.34.77,4,4,0,0,0-3.69,4.06h0s10.63-.85,13.82-1.82a11.19,11.19,0,0,0,4.88-2.84,7.55,7.55,0,0,0,2.14-5.17v-.24a7.44,7.44,0,0,0-1.9-5.15,7.65,7.65,0,0,0-5.78-2.27h-.69l-.1,0a191,191,0,0,1-29.71,2.08c-8.06,0-15.28-.37-20.48-.74s-8.34-.73-8.34-.73l-.12,0h-.11a3.73,3.73,0,0,1-3.79-3.66c0-1.94,1.52-3.36,3.74-3.43,1.71.18,17.94,1.84,36.51,1.84,13.35,0,27.87-.84,39.23-3.79h0A9.78,9.78,0,0,0,241,216a6.9,6.9,0,0,0,2.39-5.22,7.61,7.61,0,0,0-7.66-7.54h-.16l-.16,0a282.78,282.78,0,0,1-44.52,3.17c-12,0-22.73-.56-30.45-1.12-3.85-.28-7-.56-9.09-.77s-3.29-.35-3.3-.35h-.23a3.67,3.67,0,1,1-.06-7.34c1.84.21,21.47,2.32,42.31,2.32,10.49,0,21.26-.53,30.32-2.13h0a9.76,9.76,0,0,0,5.15-2.35,6.92,6.92,0,0,0,2.21-5.17,7.61,7.61,0,0,0-7.68-7.54h-.11c-7,.41-14,.56-20.48.56-7.91,0-15-.22-20.22-.44-2.62-.11-4.77-.22-6.34-.31s-2.46-.13-2.88-.14h0a10.09,10.09,0,0,1-3.71-.65,3.08,3.08,0,0,1-1.94-2.17,4.8,4.8,0,0,1-.2-1.31,2.85,2.85,0,0,1,1.09-2.34,4.87,4.87,0,0,1,3-.92h.4s5.57.32,14.28.32c12.68,0,32.06-.66,51-3.94,43.32-7.45,65.67-24.59,77-40.06,11.05-15,11.71-28.28,11.75-29.24a41.28,41.28,0,0,0,.24-4.44C322.91,86,318.66,75.4,311.24,65.69ZM136.78,28v0Zm5.89,13.28-.13-.12.15.12Zm13.69-2.63,0,0,0,0Z" fill="#fff"/><path d="M261,89.66H239.62V123.9H216.09v-7.66c6.23.17,12.21-.41,16.12-2.77l2.37-7.42c-3.78,2.1-10.29,2.81-18.49,2.59V96.47H230l5.06-6.81H202.13v17.82c-8.49-1.44-20.77-4.83-29.54.17l-3.38,7.85a30.08,30.08,0,0,1,13-3.26v12.69c-13,0-19.15-5.8-19.15-15,0-7.38,4-14.5,16.65-14.5,5.34,0,7.35.92,10.89,2.51l4.55-6.61a64.7,64.7,0,0,0-18.57-2.7c-14.74,0-25.23,6-27.76,16.46V89.66h-14V107.8h-16V89.66h-14v41.06h14V116h10.64l5.34-3.88v18.59h14V115.33c2.53,10.47,13,16.41,27.76,16.41a78.36,78.36,0,0,0,18.75-2V113.49c2.64.51,5,1.06,6.8,1.41v15.82h50.12l0-14.26h7.23l4.09-3.25,11,17.51h15.23Zm-9,18.77V97.07l8.33,11.36Z" fill="#008368"/><path d="M142.6,38.08a3.22,3.22,0,0,1,2.24.83,6.08,6.08,0,0,0,3.46,1,6.33,6.33,0,0,0,3.77-1,7.65,7.65,0,0,0,1.69-2.23,18.88,18.88,0,0,0,.81-3.68,5.74,5.74,0,0,0-.52-3.55,5.76,5.76,0,0,0-3.13-1.23,4.59,4.59,0,0,0-2.86.38,2.56,2.56,0,0,1-1.72.56,2.4,2.4,0,0,0-1.79.76,13.24,13.24,0,0,1-1.85,1.74c-.67.52-1.4,1.07-1.6,1.24a2.84,2.84,0,0,0-.79,1.71,4.51,4.51,0,0,0,.32,2.48A2.28,2.28,0,0,0,142.6,38.08Z" fill="#008368"/><path d="M159.73,38.32a5.64,5.64,0,0,0,2.09,2.32,11.38,11.38,0,0,1,2.76,2.6,2.75,2.75,0,0,0,3,.85c1-.4,2-1.14,2.14-1.65a1.49,1.49,0,0,0-.44-1.44l0-.8c.38-.18.75.19.81.82a1.79,1.79,0,0,0,1,1.45l1.72,1a4.65,4.65,0,0,0,3.11.19,29.43,29.43,0,0,1,3.87-.62c.89-.05,1.1-.47.46-.93a9.59,9.59,0,0,1-2.16-2.64,2.74,2.74,0,0,0-2.31-1.59,3,3,0,0,1-2.37-.95,3.29,3.29,0,0,1-.93-2c.08-.45-.42-1.19-1.08-1.65a14.05,14.05,0,0,1-2.64-2.72c-.77-1-2-1.34-2.76-.65a7.42,7.42,0,0,0-1.87,3c-.27,1-1.75,2-3.28,2.36s-2.53.9-2.22,1.23A6.1,6.1,0,0,1,159.73,38.32Z" fill="#008368"/><path d="M184.38,42.65a7.48,7.48,0,0,0,2.16-1.07,10.75,10.75,0,0,1,3.48-1.2,13.33,13.33,0,0,0,2.75-.83c.56-.2.78-1,1.29-1.62a4.55,4.55,0,0,0,1-2.18c0-.56-.23-1.08-.55-1.15a2.91,2.91,0,0,0-1.69.7c-.6.45-1.58,1.16-2.16,1.55s-1.19.55-1.33.32l-.81,0-1,.86a6.83,6.83,0,0,1-1.78.89c-.75.27-1.62.55-1.93.62a1.19,1.19,0,0,0-.76,1.23,6,6,0,0,0,0,1.6C183.22,42.69,183.8,42.79,184.38,42.65Z" fill="#008368"/><path d="M192.42,44.2a7.78,7.78,0,0,0-3.11,0c-.79.2-1.49.63-1.53,1L188,46l1.19.83.78,1,.55,1.24a2.71,2.71,0,0,0,2.16.36,5.47,5.47,0,0,0,2.3-1.09,1.91,1.91,0,0,0,0-2.25A4.72,4.72,0,0,0,192.42,44.2Z" fill="#008368"/><path d="M194.67,50.72a1,1,0,0,0-.54,1.36,4.36,4.36,0,0,0,1.77,1.77,7.94,7.94,0,0,0,2.32.93c.69.1,1.36,0,1.47-.15l0-.62-.76-.82a5.94,5.94,0,0,0-2.9-2.36C195.39,50.71,195.16,50.58,194.67,50.72Z" fill="#008368"/><path d="M199.93,47.69a2.48,2.48,0,0,1,1.83.56,4.41,4.41,0,0,1,.07,2.57,5.7,5.7,0,0,0,.58,3.57A3.88,3.88,0,0,0,205.06,56c.92.05,2.22.12,2.86.14a10.2,10.2,0,0,1,2.1.37,5.16,5.16,0,0,0,2.41-.1,19.76,19.76,0,0,0,3.19-1.36c1-.52,1.69-1.44,1.63-2a3.14,3.14,0,0,0-1.17-1.91,16.56,16.56,0,0,1-2.22-2.17A21.39,21.39,0,0,1,212,46.35a4.76,4.76,0,0,0-2.13-1.73,12.17,12.17,0,0,0-3.34-.47,22.58,22.58,0,0,1-2.81-.11l-1.18-.88c-.17-.41-.53-1.31-.78-2a2.9,2.9,0,0,0-1.54-1.61,3.68,3.68,0,0,0-1.68-.19,2.43,2.43,0,0,0-1.39.84,5.08,5.08,0,0,0-.81,2.24,7.4,7.4,0,0,0,1.1,3.4A3.81,3.81,0,0,0,199.93,47.69Z" fill="#008368"/><path d="M220.68,67.65a38.3,38.3,0,0,1,2.26,3.67,18.32,18.32,0,0,1,.95,4.54,24.34,24.34,0,0,0,.73,4.31,4.33,4.33,0,0,0,1,1.56A16.52,16.52,0,0,0,229.78,84c2,.71,4,.05,4.31-1a9.8,9.8,0,0,1,1.16-2.78,7,7,0,0,0,.69-1.63c.43-.9,1.52-1.89,3.41-3.31a20.28,20.28,0,0,1,5.54-3.13c1.18-.28,3.72-2.19,5.64-4.25s3.27-4.22,3-4.83a3.28,3.28,0,0,0-1.82-1.54,8,8,0,0,1-2.88-2.35,5.63,5.63,0,0,0-2.72-2,1.77,1.77,0,0,1-1.37-1.61,6.19,6.19,0,0,0-2.21-3.11,11.7,11.7,0,0,0-4-2,16.86,16.86,0,0,1-3.24-1,13.27,13.27,0,0,0-4.41-.55,34.28,34.28,0,0,1-4-.11,20.1,20.1,0,0,1-3.22-1.41,7.64,7.64,0,0,0-3.29-.85c-.91,0-1.07.69-1.27,1a4.63,4.63,0,0,0,.44,2.68A8.51,8.51,0,0,0,221.27,53c.48.43.3,1.83-.42,3.13s-1.87,3.35-2.59,4.56-.83,2.72-.25,3.36S219.78,66.33,220.68,67.65Z" fill="#008368"/><path d="M136.33,35.41a3,3,0,0,0,1.41-1.26,7.64,7.64,0,0,1,1.51-1.8,2.11,2.11,0,0,0,.77-1.6,8.3,8.3,0,0,1,.06-1.92c.08-.55-.08-1.07-.35-1.15l-.94.55-1.24,1.31A7.8,7.8,0,0,0,136,31.82a5.7,5.7,0,0,0-.6,2.72C135.47,35.11,135.91,35.51,136.33,35.41Z" fill="#008368"/></svg>