<?xml version="1.0" encoding="UTF-8"?>
<svg id="Layer_1" data-name="Layer 1" xmlns="http://www.w3.org/2000/svg" viewBox="0 0 100 100">
  <defs>
    <style>
      .cls-1 {
        fill: #66b2e3;
      }

      .cls-2, .cls-3 {
        fill: #fff;
      }

      .cls-3 {
        stroke: #66b2e3;
        stroke-width: 1.99px;
      }
    </style>
  </defs>
  <g>
    <path class="cls-3" d="M99,49.48c.29,27.07-21.42,49.23-48.48,49.52C23.45,99.29,1.28,77.58,1,50.52,.71,23.45,22.42,1.28,49.49,1c27.06-.28,49.23,21.42,49.51,48.48Z"/>
    <path class="cls-1" d="M49.54,5.55C25.01,5.81,5.33,25.91,5.59,50.44c.26,24.53,20.35,44.21,44.89,43.95,24.53-.26,44.21-20.35,43.95-44.89-.26-24.53-20.35-44.21-44.89-43.95Z"/>
  </g>
  <g>
    <path class="cls-2" d="M47.08,75.01c-8.49,0-15.41-6.91-15.41-15.41,0-4.6,2.03-8.74,5.24-11.56v-6.56c-6.33,3.57-10.62,10.35-10.62,18.12,0,11.46,9.33,20.79,20.79,20.79,6.08,0,11.55-2.62,15.36-6.79l-1.57-7.14c-2.53,5.06-7.76,8.55-13.79,8.55Z"/>
    <path class="cls-2" d="M78.76,69.42c-.29-1.41-1.85-2.29-3.46-1.96l-4.29,.89-3.49-16.79c-.18-1.48-1.44-2.64-2.97-2.64h-16.68v-4.06h9.97c1.64,0,2.99-1.3,2.99-2.88s-1.34-2.88-2.99-2.88h-9.97v-3.86c0-1.64-1.35-2.99-2.99-2.99h-1.84c-1.64,0-2.99,1.35-2.99,2.99v17.63c0,1.64,1.35,2.99,2.99,2.99h18.39l3.34,16.06c.33,1.61,1.93,2.65,3.54,2.32l.83-.17c.11-.01,.22-.03,.33-.05l6.91-1.44c1.61-.33,2.69-1.76,2.39-3.18Z"/>
    <path class="cls-2" d="M43.96,30.64c3.57,0,6.46-2.89,6.46-6.45s-2.89-6.46-6.46-6.46-6.46,2.89-6.46,6.46,2.89,6.45,6.46,6.45Z"/>
  </g>
</svg>