<?xml version="1.0" encoding="UTF-8"?>
<svg id="Layer_1" data-name="Layer 1" xmlns="http://www.w3.org/2000/svg" viewBox="0 0 100 100">
  <defs>
    <style>
      .cls-1, .cls-2 {
        fill: #fff;
      }

      .cls-3 {
        fill: #95917e;
      }

      .cls-2 {
        stroke: #95917e;
        stroke-width: 1.99px;
      }
    </style>
  </defs>
  <g>
    <path class="cls-2" d="M99,49.48c.29,27.07-21.42,49.23-48.48,49.52C23.45,99.29,1.28,77.58,1,50.52,.71,23.45,22.42,1.28,49.49,1c27.06-.28,49.23,21.42,49.51,48.48Z"/>
    <path class="cls-3" d="M49.54,5.55C25.01,5.81,5.33,25.91,5.59,50.44c.26,24.53,20.35,44.21,44.89,43.95,24.53-.26,44.21-20.35,43.95-44.89-.26-24.53-20.35-44.21-44.89-43.95Z"/>
  </g>
  <path class="cls-1" d="M68.66,42.93h-1.01v-7.08c0-9.92-8.04-17.95-17.95-17.95-9.92,0-17.95,8.04-17.95,17.95v7.08h-1c-1.43,0-2.6,1.17-2.6,2.6v28.55c0,1.43,1.17,2.6,2.6,2.6h37.92c1.43,0,2.6-1.17,2.6-2.6v-28.55c0-1.43-1.17-2.6-2.6-2.6Zm-31.95,26.44c-.79,0-1.42-.64-1.42-1.42s.64-1.42,1.42-1.42,1.42,.64,1.42,1.42-.64,1.42-1.42,1.42Zm0-8.53c-.79,0-1.42-.64-1.42-1.42s.64-1.42,1.42-1.42,1.42,.64,1.42,1.42-.64,1.42-1.42,1.42Zm0-8.53c-.79,0-1.42-.64-1.42-1.42s.64-1.42,1.42-1.42,1.42,.64,1.42,1.42-.64,1.42-1.42,1.42Zm25.78,17.48h-16.89c-.9,0-1.63-.73-1.63-1.63s.73-1.63,1.63-1.63h16.89c.9,0,1.63,.73,1.63,1.63s-.73,1.63-1.63,1.63Zm0-8.53h-16.89c-.9,0-1.63-.73-1.63-1.63s.73-1.63,1.63-1.63h16.89c.9,0,1.63,.73,1.63,1.63s-.73,1.63-1.63,1.63Zm0-8.53h-16.89c-.9,0-1.63-.73-1.63-1.63s.73-1.63,1.63-1.63h16.89c.9,0,1.63,.73,1.63,1.63s-.73,1.63-1.63,1.63Zm-1.99-9.78h-21.59v-7.08c.01-5.96,4.84-10.79,10.8-10.8,5.96,.01,10.79,4.84,10.8,10.8v7.08Z"/>
</svg>