<?xml version="1.0" encoding="UTF-8"?>
<svg id="Layer_1" data-name="Layer 1" xmlns="http://www.w3.org/2000/svg" viewBox="0 0 100 100">
  <defs>
    <style>
      .cls-1 {
        fill: #f58220;
      }

      .cls-2 {
        fill: #fff;
        stroke: #f58220;
        stroke-width: 1.99px;
      }
    </style>
  </defs>
  <path class="cls-2" d="M99,49.48c.29,27.07-21.42,49.23-48.48,49.52C23.45,99.29,1.28,77.58,1,50.52,.71,23.45,22.42,1.28,49.49,1c27.06-.28,49.23,21.42,49.51,48.48Z"/>
  <path class="cls-1" d="M49.54,5.55C25.01,5.81,5.33,25.91,5.59,50.44c.26,24.53,20.35,44.21,44.89,43.95,24.53-.26,44.21-20.35,43.95-44.89-.26-24.53-20.35-44.21-44.89-43.95Zm.46,81.49C24.71,69.31,16.06,55.17,15.17,43.71v-3.99c.96-11.97,8.85-18.22,15.68-18.89,1.12-.11,2.17-.16,3.16-.16,7.89,0,11.67,3.41,16,8.57,4.33-5.16,8.11-8.57,16-8.57,.98,0,2.03,.05,3.16,.16,6.82,.67,14.72,6.91,15.68,18.89v3.99c-.9,11.46-9.55,25.6-34.83,43.33Z"/>
</svg>