<?xml version="1.0" encoding="UTF-8"?>
<svg id="Layer_1" data-name="Layer 1" xmlns="http://www.w3.org/2000/svg" viewBox="0 0 100 100">
  <defs>
    <style>
      .cls-1 {
        fill: #fff;
      }

      .cls-2 {
        fill: #ed1c24;
      }
    </style>
  </defs>
  <g>
    <path class="cls-1" d="M99,49.48c.29,27.07-21.42,49.23-48.48,49.52C23.45,99.28,1.28,77.58,1,50.51,.71,23.45,22.42,1.28,49.49,1c27.06-.28,49.23,21.42,49.51,48.48Z"/>
    <path class="cls-2" d="M49.99,100C22.66,100,.29,77.92,0,50.52-.14,37.17,4.93,24.56,14.27,15.02S36.12,.14,49.48,0c13.35-.1,25.96,4.93,35.51,14.27,9.54,9.34,14.87,21.84,15.01,35.2,.14,13.36-4.93,25.97-14.27,35.51-9.34,9.54-21.84,14.88-35.2,15.02-.18,0-.36,0-.53,0Zm.02-98.01c-.17,0-.34,0-.52,0-12.82,.13-24.83,5.25-33.8,14.42C6.73,25.57,1.86,37.68,2,50.5c.28,26.3,21.76,47.5,48,47.5,.17,0,.34,0,.51,0,12.82-.13,24.82-5.25,33.79-14.42,8.97-9.16,13.84-21.27,13.7-34.1h0c-.13-12.82-5.25-24.82-14.42-33.79C74.55,6.85,62.64,1.99,50.01,1.99Z"/>
  </g>
  <path class="cls-2" d="M94.42,49.53c.26,24.53-19.42,44.63-43.95,44.89-24.53,.26-44.63-19.42-44.89-43.95C5.32,25.93,25,5.84,49.53,5.58c24.53-.26,44.63,19.42,44.89,43.95Z"/>
  <g>
    <path class="cls-1" d="M40.22,29.3c0-1.72,1.4-3.12,3.12-3.12h13.33c1.72,0,3.12,1.4,3.12,3.12v1.9h5.43v-1.9c0-4.72-3.84-8.55-8.55-8.55h-13.33c-4.72,0-8.55,3.84-8.55,8.55v1.9h5.43v-1.9Z"/>
    <path class="cls-1" d="M54.08,50.37v-6.05c0-.64-.52-1.17-1.17-1.17h-5.84c-.64,0-1.17,.52-1.17,1.17v6.05h-6.05c-.64,0-1.17,.52-1.17,1.17v5.84c0,.64,.52,1.17,1.17,1.17h6.05v6.05c0,.64,.52,1.17,1.17,1.17h5.84c.64,0,1.17-.52,1.17-1.17v-6.05h6.05c.64,0,1.17-.52,1.17-1.17v-5.84c0-.64-.52-1.17-1.17-1.17h-6.05Z"/>
    <path class="cls-1" d="M75.27,33.33H24.73c-2.93,0-5.31,2.38-5.31,5.31v31.31c0,2.93,2.38,5.31,5.31,5.31h50.54c2.93,0,5.31-2.38,5.31-5.31v-31.31c0-2.93-2.38-5.31-5.31-5.31Zm-25.27,36.18c-8.4,0-15.22-6.81-15.22-15.22s6.81-15.22,15.22-15.22,15.22,6.81,15.22,15.22-6.81,15.22-15.22,15.22Z"/>
  </g>
</svg>