<?xml version="1.0" encoding="UTF-8"?>
<svg id="Layer_1" data-name="Layer 1" xmlns="http://www.w3.org/2000/svg" viewBox="0 0 100 100">
  <defs>
    <style>
      .cls-1, .cls-2 {
        fill: #fff;
      }

      .cls-3 {
        fill: #00a770;
      }

      .cls-2 {
        stroke: #00a770;
        stroke-width: 1.99px;
      }
    </style>
  </defs>
  <g>
    <path class="cls-2" d="M99,49.48c.29,27.07-21.42,49.23-48.48,49.52C23.45,99.29,1.28,77.58,1,50.52,.71,23.45,22.42,1.28,49.49,1c27.06-.28,49.23,21.42,49.51,48.48Z"/>
    <path class="cls-3" d="M94.43,49.51c.26,24.53-19.42,44.63-43.95,44.89-24.53,.26-44.63-19.42-44.89-43.95C5.33,25.91,25.01,5.81,49.54,5.55c24.53-.26,44.63,19.42,44.89,43.95Z"/>
  </g>
  <g>
    <path class="cls-1" d="M37.42,34.84c-1.32,0-2.39-1.01-2.39-2.26s1.07-2.26,2.39-2.26h13.57c1.32,0,2.4,1.01,2.4,2.26s-1.07,2.26-2.4,2.26h-13.57Z"/>
    <path class="cls-1" d="M77.21,63.32h-16.71c-1.1,0-1.99-.89-1.99-1.99s.89-1.99,1.99-1.99h16.71c1.1,0,1.99,.89,1.99,1.99s-.89,1.99-1.99,1.99Zm.78,9.89c0-1.1-.89-1.99-1.99-1.99h-16.71c-1.1,0-1.99,.89-1.99,1.99s.89,1.99,1.99,1.99h16.71c1.1,0,1.99-.89,1.99-1.99Zm-1.39-5.94c0-1.1-.89-1.99-1.99-1.99h-16.71c-1.1,0-1.99,.89-1.99,1.99s.89,1.99,1.99,1.99h16.71c1.1,0,1.99-.89,1.99-1.99Z"/>
    <g>
      <path class="cls-1" d="M31.78,21.33l5.02,6.54c.2-.03,.41-.06,.62-.06h13.57c.21,0,.4,.04,.6,.06l5.02-6.57c1.66-1.08,1.3-1.78-.79-1.57,0,0-5.62,.56-11.95,.56s-11.29-.54-11.29-.54c-2.09-.23-2.45,.48-.81,1.57Z"/>
      <path class="cls-1" d="M55.07,73.21c0-.85,.25-1.64,.69-2.3-1.24-.73-2.07-2.09-2.07-3.63,0-1.92,1.29-3.55,3.05-4.05-.29-.57-.45-1.21-.45-1.9,0-2.33,1.89-4.22,4.22-4.22h3.33c-.23-1.35-.48-2.82-.76-4.47-1.32-7.58-4.88-12.98-10.24-15.66-.57,.22-1.19,.35-1.84,.35h-13.57c-.65,0-1.27-.13-1.84-.35-5.4,2.69-9,8.11-10.23,15.66-1.81,11.05-2.47,15.15-2.47,15.15-.65,4.09,2.34,7.44,6.63,7.44h26.08c-.33-.6-.54-1.28-.54-2.01Zm-9.67-7.58v3.08h-3.07v-2.84c-2.08-.09-4.09-.66-5.27-1.29l.93-3.49c1.3,.69,3.12,1.31,5.14,1.31,1.8,0,3-.68,3-1.85s-.99-1.85-3.31-2.6c-3.32-1.08-5.58-2.57-5.58-5.47,0-2.66,1.93-4.72,5.24-5.32v-2.84h3.03v2.63c2.05,.06,3.44,.51,4.53,.99l-.93,3.37c-.77-.36-2.23-1.05-4.46-1.05-2.01,0-2.66,.87-2.66,1.7,0,.96,1.08,1.61,3.74,2.54,3.69,1.26,5.14,2.9,5.14,5.62s-1.92,4.93-5.48,5.5Z"/>
    </g>
  </g>
</svg>