<?xml version="1.0" encoding="UTF-8"?>
<svg id="Layer_1" data-name="Layer 1" xmlns="http://www.w3.org/2000/svg" viewBox="0 0 100 100">
  <defs>
    <style>
      .cls-1 {
        fill: #00599b;
      }

      .cls-2 {
        fill: #fff;
      }
    </style>
  </defs>
  <g id="icon-shield">
    <g id="stroke">
      <circle class="cls-2" cx="50" cy="50" r="49"/>
      <path class="cls-1" d="M50,2c26.47,0,48,21.53,48,48s-21.53,48-48,48S2,76.47,2,50,23.53,2,50,2m0-2C22.39,0,0,22.39,0,50s22.39,50,50,50,50-22.39,50-50S77.61,0,50,0h0Z"/>
    </g>
    <path id="fill" class="cls-1" d="M49.54,5.91C25.01,6.16,5.33,26.26,5.59,50.79c.26,24.53,20.35,44.21,44.89,43.95,24.53-.26,44.21-20.35,43.95-44.89-.26-24.53-20.35-44.21-44.89-43.95Z"/>
    <path id="icon" class="cls-2" d="M66.95,54.04c-.36,1.25-.78,2.45-1.26,3.59-.43,1.01-.92,2-1.48,2.96-2.8,4.85-7.28,9.2-14.21,14.03h0c-.68-.48-1.33-.94-1.96-1.41-.15-.11-.31-.23-.46-.34-.14-.1-.28-.21-.42-.31-.28-.21-.55-.41-.81-.62-.11-.08-.21-.16-.31-.24-.2-.15-.39-.31-.58-.46-.12-.1-.24-.19-.35-.28-.24-.19-.47-.39-.71-.58-.12-.1-.23-.2-.35-.3-.17-.14-.33-.28-.49-.42-.12-.1-.24-.21-.36-.31-.18-.16-.35-.32-.53-.47-.16-.14-.31-.28-.46-.43-.13-.12-.26-.24-.38-.36-.12-.12-.24-.23-.36-.35-.13-.13-.27-.26-.4-.39-.17-.17-.34-.34-.5-.51-.11-.11-.22-.22-.32-.34-.11-.12-.22-.24-.33-.35-.13-.14-.25-.27-.37-.41-.14-.16-.28-.31-.41-.47-.11-.13-.22-.26-.33-.39-.09-.1-.17-.21-.26-.31-1.06-1.3-1.97-2.61-2.75-3.96-.56-.97-1.05-1.95-1.48-2.96-.48-1.14-.9-2.33-1.26-3.59-.84-2.9-1.38-6.13-1.76-9.84-.05-.48-.09-.97-.14-1.47,0-.04-.14-2.11-.2-2.76-.13-2.04-.23-4.21-.32-6.54,3.5,.07,6.43-.17,9.28-.85,2.54-.6,4.98-1.54,7.66-2.89,.78-.39,1.58-.81,2.41-1.27h0c3.69,2.05,6.8,3.38,10.08,4.16,1.44,.34,2.91,.58,4.46,.71l-14.54,22.42-.12,.19-8.12-11.85h-7.05l.8,1.17,12.03,17.55,2.46,3.59h0l2.37-3.64,11.84-18.25,1.95-3.01,9.2-14.18-3.18,.21c-3.58,.23-7.24,.26-10.76-.58-3.08-.73-6.08-2.1-9.87-4.3l-1.56-.9h0l-1.55,.9c-.71,.41-1.4,.8-2.06,1.15-2.86,1.54-5.3,2.55-7.81,3.14-3.08,.74-6.37,.86-10.76,.58l-3.18-.21,.1,3.19c.04,1.18,.07,2.33,.12,3.44,0,0,0,.02,0,.02,.1,2.69,.22,5.18,.39,7.52,.07,.94,.14,1.85,.23,2.74,.25,2.72,.55,5.3,1.15,7.97,.59,2.63,1.3,5.22,2.35,7.71,.27,.63,.55,1.24,.85,1.85,.46,.93,.97,1.84,1.52,2.74,3.45,5.6,8.73,10.48,16.95,16l.57,.38h0l1.14,.76h0l1.72-1.14c8.23-5.52,13.5-10.4,16.95-16,.55-.89,1.05-1.8,1.52-2.74,.3-.61,.58-1.22,.85-1.85,1.19-2.8,2.02-5.79,2.62-9.1,.11-.64,.22-1.29,.32-1.95,.22-1.47,.4-3.01,.55-4.63,.08-.89,.16-1.8,.23-2.74,.13-1.83,.24-3.76,.32-5.8l-6.57,10.23c-.36,3.01-.86,5.7-1.57,8.15Z"/>
  </g>
</svg>