<svg id="Layer_1" data-name="Layer 1" xmlns="http://www.w3.org/2000/svg" viewBox="0 0 366.96 151.91"><defs><style>.cls-1{fill:#1664a9;}.cls-2{fill:#7cc244;}</style></defs><path class="cls-1" d="M65.59,21.35c.92-2.08,1.7-4.18,2.75-6.14A26.68,26.68,0,0,1,85,1.81a42.18,42.18,0,0,1,24.58,0c11,3.34,17.31,11,19.76,22a54.67,54.67,0,0,1,1.18,10.68c.17,8.48.12,17,0,25.44a45.77,45.77,0,0,1-3,16.76,26,26,0,0,1-17.93,16.13,43.66,43.66,0,0,1-23.91-.09c-10.76-3.06-17.22-10.36-20.11-21A48.88,48.88,0,0,1,64,59.45c0-3.34,0-6.69-.24-10.09-.4.7-.76,1.44-1.21,2.11-4.12,6.13-8.21,12.29-12.41,18.37C45,77.27,39.72,84.63,34.56,92a1.86,1.86,0,0,1-1.75.92c-6,0-12,0-18,0H13.49L32.1,66.56c-1.7-.16-3.23-.24-4.75-.46A31.44,31.44,0,0,1,.72,40.57C-1.23,30,.71,20.18,7.61,11.71,13.3,4.73,20.9,1.16,29.8.3A35.49,35.49,0,0,1,52.93,5.65,31.57,31.57,0,0,1,65.59,21.35Zm47.8,25.87h0c0-3.16,0-6.32,0-9.48a46.33,46.33,0,0,0-1-11c-1.37-5.39-4.4-9.27-10.09-10.28a36.67,36.67,0,0,0-8-.34c-5.69.27-9.63,3.4-11.5,8.78a31.27,31.27,0,0,0-1.62,10.13C81.08,43,81,51,81.18,59a42,42,0,0,0,1.2,9c1.25,5.18,4.28,8.9,9.75,10.07a26.37,26.37,0,0,0,10.36.07c4.09-.76,7.12-3,8.59-6.83A28.19,28.19,0,0,0,113,63.52C113.38,58.1,113.22,52.65,113.39,47.22ZM32.48,50.54c5,0,8.65-1,11.67-3.57,5.6-4.67,7.23-10.77,5.74-17.69-3-13.84-18.45-16.49-26.55-9.84a16.7,16.7,0,0,0-5.95,11.88C16.41,41.46,22.44,50.39,32.48,50.54Z"/><path class="cls-2" d="M168.3,128.83H141.49V117.66h42.85c2-4.86,4.12-9.86,6.2-14.87q3.39-8.13,6.75-16.26a1.28,1.28,0,0,1,1.41-1c2.48,0,5,0,7.44,0a1.45,1.45,0,0,1,1.57,1.09q11.07,26.46,22.19,52.9a1.38,1.38,0,0,0,.51.7V85.67c.54,0,1-.07,1.4-.07,5.24,0,10.48-.12,15.71,0a57.94,57.94,0,0,1,10.47,1c7,1.51,11.36,6.06,13.27,12.9a23.08,23.08,0,0,1-1.05,15.6,16.26,16.26,0,0,1-14.33,10.44c-3.89.35-7.81.33-11.73.48-.47,0-.94,0-1.5,0v24.69c-.47,0-.85.06-1.23.06-6.36,0-12.72,0-19.08,0a1.4,1.4,0,0,1-1.57-1c-2-5-4.09-9.89-6.1-14.85a1.28,1.28,0,0,0-1.38-1q-10.62.06-21.24,0a1.21,1.21,0,0,0-1.3.9q-3.18,7.5-6.44,15c-.17.39-.64.92-1,.92-4.2.06-8.39,0-12.78,0,1.07-2.59,2.09-5.06,3.1-7.53l-.31-.2c-.47.39-.94.8-1.42,1.18a34.52,34.52,0,0,1-25.06,7.55A35,35,0,0,1,124,141.31a31.84,31.84,0,0,1-9.26-20.41,33.28,33.28,0,0,1,21.36-34C151,81,169.4,86.45,177.94,99.39c1.06,1.62,1.86,3.4,2.91,5.33-.67.06-1,.13-1.35.13-4,0-8.08,0-12.12,0a2,2,0,0,1-1.39-.65c-4.85-6-11.27-8.31-18.77-7.91a21.11,21.11,0,0,0-20.31,19.63c-1.15,12.42,7.07,22.72,19.46,24.11,9,1,16.28-1.91,21.22-9.8C167.81,129.84,168,129.44,168.3,128.83Zm74.36-14.39c4.08,0,8.06.15,12-1,3.12-1,4.95-3,5.21-6.28.37-4.77-1.11-7.78-5.12-9s-8-.86-12-.91Zm-33.29,7.88c-2.31-6.56-4.57-12.94-6.89-19.54l-6.89,19.54Z"/><path class="cls-1" d="M234.5,55.24V50.15H266a20,20,0,0,1-2.1,8.67c-4.24,8.57-11.11,13.24-20.71,13.77-11.13.61-21.76-6.08-25.08-17.05a23.63,23.63,0,0,1,19-30c7.63-1.12,14.63.36,20.71,5.28a17.73,17.73,0,0,1,5.69,8.16c-2,0-3.85,0-5.71,0a1.08,1.08,0,0,1-.68-.52c-4.19-7.12-13-9.38-20.47-7.41a18.49,18.49,0,0,0,2.57,36.29c8,.82,14.31-2,18.75-8.77a25.07,25.07,0,0,0,1.54-3.27Z"/><path class="cls-1" d="M141.4,26c4.46,0,8.85-.14,13.24,0a46.86,46.86,0,0,1,9.24,1.11c10,2.49,16.18,10.62,16.36,21,.1,5.59-1,10.82-4.63,15.26-3.87,4.75-9.12,7-15,7.93a56.91,56.91,0,0,1-7.4.53c-3.91.08-7.82,0-11.8,0Zm5.51,40.76c5.49,0,10.93.36,16.23-1.18a14.54,14.54,0,0,0,6.77-4.12c4.33-4.74,5.48-10.36,4.32-16.49s-4.74-10.53-10.75-12.5a32.16,32.16,0,0,0-7.64-1.3c-3-.21-6-.05-8.93-.05Z"/><path class="cls-1" d="M303.36,71.86c-2.31,0-4.31,0-6.3,0a1.46,1.46,0,0,1-1-.5q-7.65-10.23-15.25-20.49a2.31,2.31,0,0,1-.11-.29c2.23-.11,4.45-.13,6.64-.35a32,32,0,0,0,5.05-.91,6.61,6.61,0,0,0,5.25-6,20.1,20.1,0,0,0,.07-4.65c-.46-3.88-3-5.9-6.59-6.84a50.94,50.94,0,0,0-13.58-.67V71.8h-5.45V26a1.59,1.59,0,0,1,.38-.09c5.51.09,11,0,16.54.34a21.55,21.55,0,0,1,6.47,1.56,11.48,11.48,0,0,1,7.69,9.6c.77,5.1.27,9.91-3.72,13.73a14.88,14.88,0,0,1-7.58,3.6l-1.14.26Z"/><path class="cls-1" d="M192.08,46.1h19.25v5H192.07V66.7h28.08v5.12H186.57V26h33.58v5H192.08Z"/><path class="cls-1" d="M334.44,71.83H309V26h25.49v5h-20V46.09h19.25v5.06H314.48V66.74h20Z"/><path class="cls-1" d="M367,26v5h-19.9V46.09h19.25v5.09H347.06V66.71h19.86v5.06H341.54V26Z"/></svg>