<svg xmlns="http://www.w3.org/2000/svg" viewBox="0 0 347.89 73.46"><defs><style>.a{fill:#001f5b;}</style></defs><title>mwgd-outline-1c</title><path class="a" d="M172.28,22.13a18.57,18.57,0,0,0-6.5-2.9,31.65,31.65,0,0,0-7.4-.87h-12.8v35.4h13.2a25.82,25.82,0,0,0,7.2-1,19,19,0,0,0,6.38-3.2A16.17,16.17,0,0,0,176.9,44a17.43,17.43,0,0,0,1.73-8,18.23,18.23,0,0,0-1.75-8.4A14.85,14.85,0,0,0,172.28,22.13ZM168.75,40.9a8.56,8.56,0,0,1-2.6,3.2,10.46,10.46,0,0,1-3.75,1.73,18.4,18.4,0,0,1-4.42.52h-4V25.65h4.25a18.23,18.23,0,0,1,4.28.5,10.4,10.4,0,0,1,3.7,1.68,8.38,8.38,0,0,1,2.6,3.15,11.22,11.22,0,0,1,1,5A11.25,11.25,0,0,1,168.75,40.9Z"/><polygon class="a" points="190.53 39.1 205.23 39.1 205.23 32.25 190.53 32.25 190.53 25.55 206.08 25.55 206.08 18.35 182.28 18.35 182.28 53.75 206.98 53.75 206.98 46.45 190.53 46.45 190.53 39.1"/><polygon class="a" points="235.73 41.45 235.58 41.45 221.38 18.35 211.63 18.35 211.63 53.75 219.93 53.75 219.73 30.6 219.88 30.6 234.13 53.75 243.83 53.75 243.83 18.35 235.53 18.35 235.73 41.45"/><polygon class="a" points="276.28 18.35 247.73 18.35 247.73 25.65 257.73 25.65 257.73 53.75 266.28 53.75 266.28 25.65 276.28 25.65 276.28 18.35"/><path class="a" d="M285.68,18.35l-14.85,35.4h9.3l2.6-7h13.7l2.75,7h9.5L294,18.35Zm-.5,21.6,4.5-12.15L294.08,40Z"/><polygon class="a" points="320.23 18.35 311.63 18.35 311.63 53.75 333.93 53.75 333.93 46.3 320.23 46.3 320.23 18.35"/><path class="a" d="M336.88,0H11A11,11,0,0,0,0,11V62.45a11,11,0,0,0,11,11H336.88a11,11,0,0,0,11-11V11A11,11,0,0,0,336.88,0ZM77.81,53.52c-.7,0-1-.5-1.24-1.1l-9-20.35h-.2c-.45,1.39-9.26,20-9.46,20.5a1.59,1.59,0,0,1-.51.67,1.33,1.33,0,0,1-.95.42c-2.43,0-3.7.09-4.11.09s-.4-.1-.4-.35V52.16c0-.25.1-.4.45-.4h.95A1.19,1.19,0,0,0,54.53,50L46.78,27l-.1,0c-.4,1-7.12,16-7.12,16s-2.35,5.48-3.91,5.48c-1,0-2.66-3.89-2.66-3.89L25.83,26.82h-.2c-1.49,4.38-7.17,20.81-7.17,23.54,0,.7.5,1.39,1.69,1.39H21.5c.3,0,.35.15.35.4v1.19c0,.25-.1.4-.4.4-.5,0-2.19-.15-5.28-.15-2.79,0-4.28.15-4.68.15-.2,0-.3-.1-.3-.25V52.16c0-.25,0-.4.35-.4h1a2.46,2.46,0,0,0,2.19-1.64c.5-1.1,10.65-29,11.65-31.46.2-.5.6-1.29,1.29-1.29s1,.5,1.24,1.1l9,21h.2c.41-1.26,7.66-17.09,9.18-20.49.37-1,.72-1.67,1-1.68,2.12,0,4.5-.13,4.87-.13s.4.1.4.35v1.24c0,.25-.1.4-.45.4H52.2A1.19,1.19,0,0,0,51,20.87l7.74,23,.1,0c.4-1,7.12-15.43,7.12-15.43s2.66-5.79,3.79-5.79,3.73,6.2,3.73,6.2L79.7,42.83l4.07-10.67c4.25-13.26,10.85-15.23,20-15.23,4.78,0,8.56,1.49,10.15,2.69.6.45.9.3,1.19-.1l.6-.8c.25-.35.4-.5.7-.5.5,0,.6.3.6.7l.5,10c0,.4,0,.65-.2.7l-1.19.2c-.3,0-.4-.1-.5-.4a19.76,19.76,0,0,0-4-6.87A11.24,11.24,0,0,0,103.41,19C98,19,92.66,21.72,89.16,31c-2.94,7.76-6.19,16.9-6.74,18.47C81.36,52.46,80.47,53.52,77.81,53.52ZM120,39.1c0,.3-.1.4-.4.4h-1.69c-.9,0-1.49.4-1.49,1.84v6.57c0,.7.2,1.19.2,1.59s-.3.6-.8.8a28.81,28.81,0,0,1-14.14,3.29c-4.73,0-10.58-1.59-14-5.4a1.18,1.18,0,0,1-.29-1.44c.17-.42.82-2,1-2.31s.51-.51,1.13,0c4.09,3.31,7.64,6.41,12.59,6.41,3.19,0,5.08.06,6.77-.83,1.1-.6,1.19-2,1.19-4.58V41.79c0-1.79-.5-2.29-1.79-2.29h-2.09c-.3,0-.4-.2-.4-.45V37.91c0-.3.1-.4.3-.4.6,0,3,.15,7.07.15s5.87-.15,6.37-.15.5.1.5.35ZM345.89,62.45a9,9,0,0,1-9,9H125.58A75.71,75.71,0,0,0,127,2H336.88a9,9,0,0,1,9,9Z"/></svg>