<svg xmlns="http://www.w3.org/2000/svg" viewBox="0 0 531.94 272.31"><title>Artboard 1</title><path d="M304.21,190.72c-6.07,3.16-15.26-2.44-9.69-3.09,2.88,0,7.32,1.12,9.69,3.09ZM275,227.28c.15-17.17,20.35-24.33,22.21-27-20.38,6.09-35.66,36.47-13.22,36.47,20.22-1.76,34.46-23.43,23.09-44.2,1.34-1,18.69-6.55,18.69-25,0-8.06-2.52-13.38-7.93-18.5,3.22-2.31,6.31-4.35,9.5-6.36,13.81-8.11,31.63-14.46,47.69-12.2,60.08,8.45,9.59,71.05-39.74,52.91,56.37,27.82,99.11-48.93,39.66-54.44-24.32-.92-39.33,6.27-58.38,19-10.19-7.32-20.76-10-33.1-10-21.41,0-47.59,15.19-47.59,35.94,0,8.76,6.89,16.39,15.86,16.39,10.88,0,18.42-4.83,27-11.1,3.45-2.53,14.42-15.42,14.81-20.09-2.51,4.45-11,15.22-14.56,18.22-8.83,7.41-16.92,11.38-28.27,11.38-17.94-4.07-15-21.15-7.79-30.51a39.3,39.3,0,0,1,9.79-9.24c6.09-4.06,18.29-9.4,28.13-9.4,9.58-.55,26.78,3.2,33.31,10-14.39,14-26.66,29.09-39.51,44.54-5.45,6.55-11.46,15.63-17.2,21.39-3.06,3.06-5.67,7.25-9,10.57-1.65,1.65-2.67,3.21-4.49,5-1.44,1.44-4.66,3.08-4.89,5.15h15.33c.17-.66,12.51-16.83,14.53-20.36,4.29-7.48,8.76-14.43,12.79-22.1a162.53,162.53,0,0,1,34-42.94c9.48,9.24,1.23,33.84-9.8,39.4-2.05-1.85-6.58-4.21-10.29-4.21-1.64,0-4.23.46-4.23,2.64,0,6.47,11.16,4.62,13.75,4.23a22.94,22.94,0,0,1,1.59,7.4c0,12.83-13.14,33.83-24.85,33.83-4.17,0-6.54-2.9-6.87-6.87Z" fill="#302e2f" fill-rule="evenodd"/><path d="M68.84,191.07a26,26,0,0,1-7,.79c-4,0-6.67-4.47-1.48-4.47,2.61,0,7.3,1.52,8.45,3.69Zm116.23,26.16c0-.74.72-1.06,1.59-1.06,2.2,0,3.56.12,4.23,2.64-1.22,0-5.82.56-5.82-1.59ZM110.51,232c0-6,17.18-29.6,23.27-29.6,3.3,0,2.64,3,2.64,5.29,0,3.06-5.82-.45-5.82,12.69-3,4.46-11.27,15.33-18,15.33-2.25,0-2.11-2.13-2.11-3.7Zm-10-23.26c0-1.57.83-8.46-2.12-8.46-5.2-1.29-16.16,10.48-20.62,19,1.75-.47,19-24.52,19-15.33,0,4.17-19.25,28.42-19.56,32.24l6.53-.24,18.33-26.72,2.11-1.06v1.59c0,1.93,1.46,4.23,3.17,4.23h2.12c1.82,0,2-.39,3.7-.53-1.42,2.93-6.87,10.07-6.87,15.33,0,3.63,1.06,8.46,5.82,8.46,5.2,0,9.62-3.83,12.89-7.73,1.47-1.75,7.26-9,8.26-9.71,3.26.05,6.26-1.36,9-2.64-.3,3.58-4.23,7.19-4.23,12.69,0,3.06,2.23,7.4,5.82,7.4,8.89,0,16.31-11,20.62-17.44,5,0,12.19-3.85,13.84-5.37l-13.8,21.45,5.78.31c3-4.12,10.8-15.15,13.22-18,2.76,2.24,3.89,1.88,7.4,1.59-.1,4.46-4.76,6.42-4.76,11.63,0,3.54,1.67,5.28,5.29,5.28,5.31,0,7.61-2.79,11.46-5.16,3.41,4.19,5.44,5.69,10.75,5.69,3.94,0,10.64-4.09,13.22-5.81,2.89-1.93,10.2-7.7,11.1-11.1-3,1.83-8.21,8.65-12.16,9,4.8-9.07,4.12-13.81,3.68-23.77-.22-4.91.85-4.71,1.61-7.95l-.45-.32-3.78,5.6-15.33,18a9.14,9.14,0,0,0-9.14,8.78c-3.41,2.62-5.94,5-10.43,5-3.12-2,3.83-9.66,2.64-15.33,5.48-1.28,14.81-6.79,14.81-12.69,0-4.09-2.26-6.34-6.34-6.34-5.15,0-7.29,2-11.37,4.59l31.46-49.51h-6.87c-.41,1.53-16.5,26.35-18.82,29.81-3.37,5-6.29,9.71-9.63,14.69-1.73,2.57-3.12,4.77-4.95,7.21-4.26,5.69-10,11.35-17.56,11.58,1.61-3,5.3-7.81,5.3-11.49,0-3.92-1.27-6.87-6.15-6.87-11.59,0-19.89,18.26-30.67,18.5,2.55-3.23,4.23-5.61,4.23-13.21,0-3.41-1.55-5.29-5.29-5.29-8.4,0-17.25,12.16-21.68,12.16h-3.17a3,3,0,0,1-2.64-2.64,5.39,5.39,0,0,1,1.06-3.17c1.65.14,1.88.53,3.7.53,2.66,0,5.29-1,5.29-4.23,0-2-1.7-2.11-3.17-2.11-5.56,0-8.88,6.28-11.63,7.93Zm41.77,23.78c0-6.36,17.2-30.13,23.27-30.13,2.76,0,3.17,1.61,3.17,4.23,0,3.27-6.35,3.71-6.35,9a15.44,15.44,0,0,0,.53,3.7c-2.48,4.69-11.58,16.39-18,16.39-2.14,0-2.64-1.18-2.64-3.17ZM227.9,204c0,5.45-3.06,16.77-4.76,20.73-2.41,5.58-16.43,17.78-19,4.11,0-2.25.85-3.22,2.64-3.7.36,1.34,1,2.64,2.64,2.64,3.34,0,7.57-4.22,4.11-7.06L227.9,204Zm-41.77,10.57c2.29-3.72,9.9-11.63,14.81-11.63,6.17,0-2.05,14.8-7.4,14.8-.76-2.15-4.36-3.45-7.4-3.17ZM56.44,172.69c-12.19,13.49-22.48,29-34.36,42.82C20.15,217.76,3.77,236,3.7,236.26H18.18c4.67-5.48,23.95-35.06,27.64-41.94,8.2-15.3,20.35-33,34.73-43,6.32,10.49,3.2,37.16-9.82,39.42-2.7-3.8-15.19-6.49-15.19-1,0,4.56,11,4.53,14.28,3.7A37.85,37.85,0,0,1,70.85,203c0,10.69-13.73,31.18-23.79,31.18-4.67,0-7.93-3-7.93-7.93,0-14.79,21.7-24,22.21-25.9-16.68,8.33-24.56,16.41-23.54,28.54,0,3.47,5.08,7.93,8.74,7.93,12.83,1.58,29.06-8.11,29.61-27.48,0-7.3-1.57-11.44-4.05-16.53,15.65-4.12,18.17-26.57,10.08-42.1,11.45-11.26,32.41-20.12,48.43-20.12,9.45,0,18.9.39,26.88,6.43,16.36,12.36,6.69,32.64-8.73,40.79-17.26,9.12-31.1,8.91-49.35,6.17l.11.82,2.57,1c55.25,19.37,93.7-52.8,36.45-56.3-23.19-1.31-38.72,5.71-58,19.46C59.09,123.83,0,140.7,0,176c4.43,33,55.38,3.79,57.64-16.39-1.85,2.13-5,7.25-6.55,9.31-2.35,4-11.67,13.88-22.26,17.71-13.18,4.78-27.84,2-27.77-12.22,0-11,9.13-20.53,16.07-25.16,14.89-9.92,45-18.68,62.3.44-8.38,6.69-15.79,15-23,23Z" fill="#393839" fill-rule="evenodd"/><path d="M444.57,217.23c1.37-2.7,12.85-16.44,17.57-16.38,8.82.23-8.36,16.3-17.57,16.38Zm50.36-3.17c8,0,13.14-8.12,16.39-9-.08,3.85-5.94,14-7.82,17-3.23,5.14-8.75,12.57-15.45,12.57-2.77,0-4-1.63-4.23-4.23a7.66,7.66,0,0,0,2.64.53c1.93,0,4.23-1.46,4.23-3.17,0-6.67-8.46-3.52-8.46,2.64,0,3.27,4.28,6.34,7.4,6.34,10.76,1.46,21-5.36,28.68-13.61,2.77-2.79,12.75-12.09,13.62-16-1.85,1-18.27,22.45-28.55,24.84.65-2.45,6.9-7.3,8.8-15.52.61-2.63,1.08-7.81,1.57-10.59.92-5.21,2.34-6.77,3.38-8.77-3.08.82-16,19.08-23.79,15.33-1.77-2.64-2-4-.53-6.87,1.65.14,1.88.53,3.7.53,2.3,0,5.82-1,5.82-3.17,0-2.47-.93-3.17-3.7-3.17-5.69,0-9.67,7.64-13.22,9.51,1.38-3.17,2.68-10-2.64-10-8.13,0-21,20.19-27.36,26.57-3.85,3.89-6.59,5.19-10.19,8.32-3,1.39-6.87,1.25-6.87-3.17,0-2.95,3.5-9.94,5.29-12.22,2.11-.42,4.41-.42,8.09-1.89,4.64-1.86,14.11-8.19,14.11-13.91,0-2.84-2.5-3.7-4.76-3.7-7.23,0-16.41,8.51-20.63,14.27a138.83,138.83,0,0,1-14.8,16.92c-.72,1-4.83,4.23-6.35,4.23-1.09,0-1.06-1.35-1.06-2.11,0-.44,13.28-21.38,14.81-23.78,1.68-3.18,2.06-8.49-2.11-9.51-8.69-.86-11.12,5.08-16.68,9.33l34.66-53.73h-5.82c-2.15,3-26.11,39.15-31.51,47.25-8.06,12.09-17.54,20.76-28.24,30.44-1.41,1.14-5.82,3.34-5.82.53,0-4.06,22.55-37.17,23.43-38.06h9.88V194l-9.23-.16,7.65-12.53H404c-1.13,1.5-6.92,9.54-8.86,12.54l-10.71.14V195l10.15-.19c-1.24,2.74-8.18,11.23-9.93,13.62-3.4,4.64-9.67,10-15.61,9.61,3.29-4.36,4.81-7.82,4.81-13.53,0-4.31-3.78-4.23-6.87-4.23-7.56,0-15.57,12.16-21.15,12.16-5.36,0-5.12-4.1-4.29-6,3,2.19,9.58,1.27,9.58-4a2,2,0,0,0-2.12-2.11h-1.06c-4,0-8.85,6.06-11.63,7.93.79-5.07.06-10.13-6.35-7.93-3.84,1.46-15.92,15.28-16.92,19,2.48-.27,6.31-7.54,8-9.59,2.61-3.11,7.31-8.38,11.53-8.38,3.38,2.29-17.88,27.12-19.56,34.36h5.29c2.56,0,15.82-23.92,21.08-27.47.92,6.1,3.52,5.56,9.06,5.27-1.07,4-14,23.26-.53,23.26,8.2,0,17.11-11.29,20.13-16.71a26.14,26.14,0,0,0,12.13-5c-3.25,5.3-6.87,9.38-6.87,15.86,0,6.89,6.69,6.52,11.37,2.18l14-11.69-8.46,14.27H396c2.26-3.2,9.62-13.83,11.5-16,3.2-3.67,14.16-18.9,19.69-18.9.94,0,2.12-.22,2.12,2.11,0,4.4-15.86,21.45-15.86,27.48,0,3.06.92,6.34,4.76,6.34,5.69,0,11.9-8.86,15.86-12.16-1.85,9.39,4.94,15.42,12.69,10,6.54-4.38,12.74-11,17.84-17,3.23-3.85,12.74-16.66,18.11-16.78,4.16,2.34-13.75,25.25-20.62,34.88l6.27-.06c2.92-4.21,15.93-24.58,21.76-28.48,0,2.78,1.31,6.87,4.76,6.87Zm-129,1.06c0,7.27-8.69,20.08-16.92,20.08-1.62,0-3.17-.49-3.17-2.11v-.53c0-5.87,17.65-30.66,23.27-30.66h1.06c1.71,0,2.64,1.92,2.64,3.7,0,4.17-6.87,4.92-6.87,9.51Z" fill="#212928" fill-rule="evenodd"/><path d="M254.87,46V47h1.06V44.4h1.59V42.28h1.59L257,40.7l-.89-.06,1,3-4.86-1.93c.89,1.21,4.67,2.54,2.64,4.23Z" fill="#b6b8ba" fill-rule="evenodd"/><polygon points="248.52 44.4 249.62 46.08 251.19 45.44 251.69 47.04 252.87 47.01 252.22 44.93 248.52 43.34 248.52 44.4 248.52 44.4" fill="#5c5d60" fill-rule="evenodd"/><path d="M239,47l-.53,1.06h-1.06l-.62.61,1.66,2.1-2.09-.59-.53.53.53.53,1.16.57-.63,1.55,1.06,2.11h-1.06v1.59h-1.06V56h-1.06v2.64h-1.06V57.08l-.06-1L232.13,55l-1.51-.52-.6,2.1,2.64.53c.18,2.17.53,1.18.53,3.17,0,1.46-.41,1.27-1.59,1.59l0,2.72,2.48-1.36.36.4L232,67l.43.43,3.94-3,1.06.53,1.08-2-2.26.36,1.71-3.63h-1.06l-.41-.41,2.53-1.7-1.59-.53.37-.84L239,54.44l-.53-1.59c2.33.19,3.36,2.13,2.12,3.17l1,.51.6-1.57L242,54l-1.93-2.78c2.51.21,1.85.6,3.17,2.11l1.06-.53V51.27c0-1.94-1.59-1.23-1.59-3.17V46.51l.84.1,1.3,3.18,2.62-.64V48.1c-.83-.58-1.92-1-.53-2.11l1.59-1.59V43.34l3.7,1.59.53-.53-1.06-2.11-6,.15,1.77,2.45-5.4-.78,2.22.83V46l-2.55,0,.4,2.21L239,47Z" fill="#c4c6c8" fill-rule="evenodd"/><path d="M275.49,47l2.64,1.06c.36-.65.53-.57.53-1.59V44.93h1.06v2.64h1.59v1.59h1.06V47l-1.14,0,.61-1-1.55-3.19L275,41.61l0,1.73c0,1.82.39,2,.53,3.7Z" fill="#989897" fill-rule="evenodd"/><path d="M281.83,46l1.06.53V44.4l.44,0,.73,4.4,2-1.24.43,3.46,1.69-2.41,0,3.25,1-.61-.5-2.66L286.59,46l-1,.61c-.25-2.73-1.06-2.12-3.2-3.25L281.83,46Z" fill="#939598" fill-rule="evenodd"/><path d="M247.46,49.15h1.06c-.18-2.11-.31-2.24-1.59-3.17-1.39,1.16-.3,1.54.53,2.11v1.06Z" fill="#555c5c" fill-rule="evenodd"/><path d="M269.14,50.74l.29-6.93.24,1.64h2.11V47h1.59l0-1.63,1,.57-.83-1.73-.11-2.51h-1.17v1.59h-1.06c-.18-2.21-.43-2.46-2.64-2.64v1.06h1.06v1.06h-1.06l.53,7.93Z" fill="#a3a5a8" fill-rule="evenodd"/><path d="M236.36,50.21l2.09.59-1.66-2.1.62-.61c0-1.14-2.64-.6-2.64.53,0,.66,1,1.06,1.59,1.59Z" fill="#313938" fill-rule="evenodd"/><path d="M235.83,50.74l.53-.53c-.61-.53-1.59-.93-1.59-1.59,0-1.13,2.64-1.67,2.64-.53h1.06L239,47l-2.12-.53a4.69,4.69,0,0,0-3,1.06l-.1,2.53,2.09.64Z" fill="#9a9c9c" fill-rule="evenodd"/><path d="M294,53.91h1.59V51.8c-1.64.44-1.59.08-1.59,2.11Z" fill="#acadac" fill-rule="evenodd"/><path d="M226.84,55H229l1.06-.53v2.11l.6-2.1,1.51.52.22-1.32L234.77,56h1.06v1.06h1.06V55.5h1.06l-1.06-2.11.63-1.55-1.16-.57h-4.23v-1.6l-2.66.57,2.13,2.09A7.67,7.67,0,0,0,229,51.8l-1.73.07,1.18,2.49-1.57.6Z" fill="#b1b1b1" fill-rule="evenodd"/><path d="M242.18,55l1.06.53V53.38c-1.32-1.52-.66-1.91-3.17-2.11L242,54l.18.93Z" fill="#4f5656" fill-rule="evenodd"/><polygon points="232.13 54.97 233.65 56.1 233.72 57.08 233.72 58.67 234.77 58.67 234.77 56.03 232.35 53.65 232.13 54.97 232.13 54.97" fill="#4f5656" fill-rule="evenodd"/><path d="M239,54.44,240.59,56c1.25-1,.22-3-2.12-3.17l.53,1.59Z" fill="#5c6262" fill-rule="evenodd"/><polygon points="295.05 56.03 297.17 56.03 297.17 54.44 295.05 54.44 295.05 56.03 295.05 56.03" fill="#abadb0" fill-rule="evenodd"/><path d="M226.84,61.84,229,60.78v1.06c1.84-.49,1.94-.49,2.11-2.64a5.46,5.46,0,0,0-4.23,2.64Z" fill="#a1a3a6" fill-rule="evenodd"/><path d="M243.23,62.37l0-2.67-1.1-1.56-.53.53a3.34,3.34,0,0,1,.53,2.11v1.59Z" fill="#384040" fill-rule="evenodd"/><path d="M223.67,64h1.06l-2.12-5.29.94,0,.64,2.08c3.49-.81,4-2.44,4.76-5.81h-2.12l-1.81.68,1.92,3-.52.48L224.32,57l.1-.8-4.45,3c-.43,1.85-1.06,1.78-1.06,3.7,0,1.22.37,1.59,1.59,1.59l1.83-.23L220,61.31l3.7,1.06V64Z" fill="#c9cacc" fill-rule="evenodd"/><path d="M237.42,65v1.06c1.64-.44,5.39-5.24,2.64-6.34v1.59H239v-3.7l-2.53,1.7.41.41h1.06l-1.71,3.63L238.5,63l-1.08,2Z" fill="#4d4d4f" fill-rule="evenodd"/><path d="M291.88,56.55l-.53,2.11h1.06v1.59c0,1.82.39,2,.53,3.7.35-.51,1.69-2.42,1.62-3.18l-.81-5.42-1.87,2.78V56.55Z" fill="#a2a3a3" fill-rule="evenodd"/><path d="M296.11,59.2c0,3-1.66,3.16.59,4.74l-.59-2.09c1.18.31,1.59.12,1.59,1.59V65c.89-.62,1.06-.08,1.06-1.59V62.37l0-1-1.56-1.1h1.59l-.12-.87-1.47-1.24h1.06V57.08c-4.22.09-2.11,1.08-2.11,2.11Z" fill="#a6a6a5" fill-rule="evenodd"/><path d="M241.12,66.07l1.59-1.59V62.9c-2.19,1.61.11,1.38-2.64,2.11v1.06Z" fill="#525959" fill-rule="evenodd"/><path d="M240.06,59.73c2.74,1.11-1,5.9-2.64,6.34V65l-1.06-.53-3.6,4.94,3.53-1.9-.15.79,3.92.92,3.71-3.11-2.65-.06h-1.06V65c2.75-.73.45-.51,2.64-2.11v1.59l.53-2.11h-1.06V60.78a3.34,3.34,0,0,0-.53-2.11l.53-.53-.8-.38-1.31,2Z" fill="#afb1b4" fill-rule="evenodd"/><path d="M294.52,68.18l.53-.53V66.58l2.64.55c-.43-1.62-2-2.35-3.05-3.15L294,67.15l.57,1Z" fill="#bec0c2" fill-rule="evenodd"/><path d="M225.26,65.56v3.68c0,1.46.41,1.27,1.59,1.59V68.18c0-2.07.8-.06,1-3.28l-2.61.66Z" fill="#353c3b" fill-rule="evenodd"/><path d="M294.52,68.18l1.24.64-1.24,2,1,0,.57,1,1.12-.55-.59-2.09h1.59V68.18h-1.59c-2,0-.19.16-1.59-.53l-.53.53Z" fill="#7c7e7e" fill-rule="evenodd"/><polygon points="245.08 72.15 247.2 71.09 246.67 70.56 245.08 72.15 245.08 72.15" fill="#9c9c9c" fill-rule="evenodd"/><path d="M292.94,73.47H294v3.7l.53,1.06c.82-.55,1.59-.7,1.59-2.11V74l-1.24-.11,1.24-2-.57-1-1,0L294,69.77l-.73.24-2.47,3.93,2.14-.47Z" fill="#a7a9ac" fill-rule="evenodd"/><polygon points="271.26 73.47 272.32 73.47 272.32 71.35 271.26 71.35 270.2 71.35 271.26 73.47 271.26 73.47" fill="#898b8b" fill-rule="evenodd"/><path d="M283.95,76.11c1.91-2.74,7.53-5.5,8.45-8.91l-1.55-.54,2.09-.59,0-1-1-.61-5.08,6.09-2.3.89,0,1.48h-1.59v1.59h1.06v1.59Z" fill="#9c9c9c" fill-rule="evenodd"/><path d="M275,72.41l2.09,2,2.67-.39.59-2.09-2.18,0c-1.72,0-.4-.46-2.64-1.06L275,72.41Z" fill="#888887" fill-rule="evenodd"/><path d="M252.22,79.81,250,79.22l1-1.35-2.53-2.22-4.23-.59-.61,1,.68,0-.08,1.58h1.59v1.06h3.7v.53h-2.64c.57,2.12.14,1.53,2.91,1.59l.27-1.06Z" fill="#656a69" fill-rule="evenodd"/><path d="M294,77.17v-3.7h-1.06l-.59,1.61.29,2.37-2.34-2.39v1.59c0,1.22.37,1.59,1.59,1.59l1.51,0,.61-1Z" fill="#cbccce" fill-rule="evenodd"/><path d="M287.12,77.17l.53,2.64,1.08-5.74,1-.61c-3.3.07-2.64.51-2.64,3.7Z" fill="#b1b3b6" fill-rule="evenodd"/><polygon points="244.29 75.05 248.52 75.64 251.04 77.87 250.03 79.22 252.22 79.81 254.18 79.88 256.01 82.97 254.79 78.75 254.69 76.94 252.12 78.72 252.75 77.17 250.64 77.17 250.64 76.11 249.05 76.11 248.41 73.5 244.82 73.47 244.29 72.41 242.18 74 245.46 74.1 244.29 75.05 244.29 75.05" fill="#abadb0" fill-rule="evenodd"/><polygon points="271.26 71.35 272.32 71.35 272.32 73.47 277.54 78.23 278.13 80.87 278.13 79.83 281.83 80.34 277.68 75.42 278.13 75.05 281.31 75.05 281.31 74 279.72 74 277.05 74.38 274.96 72.41 271.26 70.3 271.26 71.35 271.26 71.35" fill="#231f20" fill-rule="evenodd"/><path d="M254.75,85.11,257,86.68v6.87c-1.34-.36-1.42,0-1.5-1.59l-.73-6.85Zm38.72-56.57c.49-2,.78-2.06,3.17-2.11-.49,1.83-.92,1.93-3.17,2.11Zm1.06-5.29c-1.06.45-2.09-1.33-3.7-1.06-.35-.24-1.4-.84-1.06-1.59.62-1,4.23.65,4.76,2.64Zm-2.64,0V28c0,1.22.37,1.59,1.59,1.59,2.56,0,2.37-1.34,5.16-1.56l.66,3.15,1,0,.67-1.65,1.55.63c0-3-.44-6.34-3.17-6.34a5.4,5.4,0,0,0-3.17,1.06,3.08,3.08,0,0,0,0-3.19Q293,18.23,286.59,18V15.86c0-2.06-2-4.76-3.7-4.76h-1.06a7.14,7.14,0,0,0-5.29,2.64L275,12.16l-2.3-.13,1.77-3c.82-.55,1.59-.7,1.59-2.11V5.81c0-2.3-6.7-6-9.52-4.23l-3.17,3.7-.06-2.57-1.52-1.13A3.07,3.07,0,0,0,258.57,0c-1.58,0-6.35,5.11-6.35,6.87,0,4.06,3.6,2.53,3.7,6.87h-1.06c-.31-1.18-.12-1.59-1.59-1.59h-1.06c-.34,0-6.35,3.86-6.35,4.76v.53c0,2.05,1,.1,1.06,3.7-5.44,1.27-2.7,3.92-5.29,5.81L241,27l-.46-4.84c-2.23-1.18-5-1.59-8.46-1.59-1.88,0-2.07,1.25-2.12,3.17-4,0-6.89,1.35-8.46,3.7h2.64v2.64c2.12-.57,1.73-1.59,4.23-1.59h4.23a7.64,7.64,0,0,0,.53-2.64V24.31h3.17c2.05,0,1.59,1.75,1.59,3.7,1,.64.93,1.06,2.11,1.06h3.7c2.86,0,1.36-2.81,3.36-4.56,1-.87,4.57-2.21,4.57-3.36,0-1.77-1.5-1.06-1.55-4.66l1.55-.63c4.51,3,3.22,6.74,8.46,9.51l-.53,13.74-3.22.56.16.28-2.75.75c-8.18,0-6.32-.43-12,2.28-2.44,1.16-7.93,3.39-9.59,4.68-2,1.53-2.49,1.21-4.53,2.34-2.82,1.56-.94,2.66-2.79,4.61s-7,3.16-7,7.23v1.59c-.79.19-1.59.12-1.59,1.06,0,1.91,1.33,1.59,3.17,1.59,1.25,2.35,3.81,11.63,5.82,11.63h1.06a3.73,3.73,0,0,0,3.32-1.7l2-5.56,4.74-.67c2.64,5.51.86,1.7,3.8,4.66,1,1,.56,1.7,1.51,2.72.61.65,1.72,1,2.5,1.73,2.89,2.57,6.36,5.48,6.47,10.45l.53-3.7,1.47.07-1.91-4,2.88,1.3,1.26,9.49c.28,2-.53,2.8-.53,5.29l2.64.53c.44-.84,1.59-2.39,1.59-3.17l-.23-2.62-1.67-16.38.58.2,1.32-1.82,4.76.53h1.06c3.53,0,3.51-1.51,6.87-1.59l-1.06-2.11h1.06V70.3l-1.5-2.65-.61-16.91-.53-7.93h1.06V41.75h-1.06V40.7c2.21.18,2.46.43,2.64,2.64h1.06V41.75h1.17l.11,2.51.83,1.73L275.49,47c-.14-1.65-.53-1.88-.53-3.7l0-1.73,5.29,1.18L281.83,46l.53-2.64c2.14,1.13,3,.52,3.2,3.25l1-.61,2.14,2.63.5,2.66,1-1.16-.4,4.87c2.32-.63,1.57-1.18,1.57-4.23l1.55.63-1,5.19v1.59l1.87-2.78.81,5.42c.06.75-1.27,2.67-1.62,3.18l-1.06.53,1,.61,0,1-2.09.59,1.55.54c-.92,3.41-6.54,6.17-8.45,8.91l-.61,1-1.51,0-.5,1,1,.61,3,3.67L285,87.74l-1.06,4.76h.53c.46-.68,5.29-10.41,5.29-10.57V79.28h4.76c1.49,0,2-1.21,2.64-2.11V72.94c.49-.73,2.64-5,2.64-5.81V57.61c0-5.46-8.19-10.58-12.16-12.69l-.53-1.06c-2.27-.05-10-3.74-14.79-4.24-4.53-.47-4.31-.33-4.25-5.27,0-3.45-1-6.83,0-9,1.69-.45,4.76-3.64,4.76-5.29V18.5h1c.92,3.21,1,3.16,4.3,3.16,0,3,.2,6.87,4.23,6.87,3,0,3.25-6.34,4.76-6.34a15.87,15.87,0,0,1,4.76,1.06ZM270.58,3.4c2.41,0,2.84.05,3.19,2.09L270.58,3.4Zm-3-.76.63,1.09-.63,1.55-3,6.17-1.19.17c.39-4.69,2.4-6.09,3.17-9Zm.53,3.17c1-.64.93-1.06,2.11-1.06,1.6,0,1.46.62,1.59,2.11-1.29.86-2,2.64-2.64,2.64-1.12,0-.7-.19-2.12-.53l1.06-3.17Zm19.56,74-.53-2.64c0-3.19-.66-3.63,2.64-3.7l-1,.61-1.08,5.74Zm7.4-12.16c1.39.69-.43.53,1.59.53h1.59v1.06h-1.59l.59,2.09-1.12.55-1.24,2,1.24.11v2.11c0,1.41-.76,1.56-1.59,2.11L294,77.17l-.61,1-1.51,0c-1.22,0-1.59-.37-1.59-1.59V75.05l2.34,2.39-.29-2.37.59-1.61-2.14.47L293.26,70l.73-.24.53,1.06,1.24-2-1.24-.64-.57-1,.69-3.18c1.1.8,2.62,1.54,3.05,3.15l-2.64-.55v1.08Zm1.06-8.46c0-1-2.1-2,2.11-2.11v1.06h-1.06l1.47,1.24.12.87h-1.59l1.56,1.1,0,1v1.06c0,1.51-.17,1-1.06,1.59V63.43c0-1.46-.41-1.27-1.59-1.59l.59,2.09c-2.25-1.58-.59-1.7-.59-4.74ZM297.17,56h-2.12V54.44h2.12V56ZM294,53.91c0-2-.06-1.68,1.59-2.11v2.11ZM243.5,28.28l-.26-1.85,1.85.26-1.59,1.59Zm29.35-15.06c1.91.51,1.41,0,1.59,2.11-2.31-1.22-1.31.41-1.59-2.11Zm7.93,12.69a.75.75,0,1,1,0,1.06.84.84,0,0,1,0-1.06Zm-12.16-9.51V19l-1.24,2c-2-.07-1-.41-3-.41a7.66,7.66,0,0,0-2.64.53l-1.06-.53-.63-5.28,1.16-1.59,5-.71,2.42,3.35ZM257,40.7l2.12,1.59-.53,19.56-.6,2.11h-1.51L255,71.39l1.46-.53v2.61h-1.59l-2.11,3.7-.63,1.55,2.57-1.78.1,1.81L256,83l-1.84-3.09-2-.07h-2.11l-.27,1.06c-2.76-.06-2.34.54-2.91-1.59h2.64v-.53h-3.7V77.7h-1.59l.08-1.58-.68,0,.61-1,1.16-1L242.18,74l2.11-1.59h-2.11l1.26-1.4-3.91-.19.53-1.59-3.92-.92.15-.79-3.53,1.9,3.6-4.94-3.94,3L232,67l2.49-3.43-.36-.4-2.48,1.36,0-2.72c1.18-.31,1.59-.12,1.59-1.59,0-2-.35-1-.53-3.17L230,56.55V54.44L229,55c-.79,3.38-1.27,5-4.76,5.81l-.64-2.08-.94,0L224.73,64l5.27-.66-.58,2.23,1.12,0v3.17c0,3-2.64,4-2.64,5.81v1.59h-1.06V74.53l-2.47,1.81-2.89-10.78L223.67,64V62.37L220,61.31l2.36,2.94-1.83.23c-1.22,0-1.59-.37-1.59-1.59,0-1.92.63-1.85,1.06-3.7l4.45-3-.1.8,2.12,2.11.52-.48-1.92-3,1.81-.68,1.57-.6-1.18-2.49L229,51.8a7.67,7.67,0,0,1,2.64.53l-2.13-2.09,2.66-.57v1.6h4.23l-.53-.53-2.09-.64.1-2.53a4.69,4.69,0,0,1,3-1.06L239,47l3.14,1.13-.4-2.21,2.55,0V44.93l-2.22-.83,5.4.78-1.77-2.45,6-.15,1.06,2.11L254.87,46c2-1.69-1.76-3-2.64-4.23l4.86,1.93-1-3,.89.06Zm3.7-38.06h1.06V11.1c0,1.8-.67,1.43-1.59,1.06V10.57l.53-7.93Zm24.18,16.87,2.79,0c-.41,1.14-2.45,3.36-3.94,3.63l1.15-3.67Zm-3.56,4.27c0-2.92.3-4.13,2.64-4.76-.42,1.82-.86,4.28-2.64,4.76Zm-2.12-7.93a2.12,2.12,0,0,1,4.23,0c0,.81-3.35,2.41-4.23,2.64V15.86Zm-5.82-7.93V9l-4.63,4.88c-.86-1.43-.65,0-.65-1.18a36.71,36.71,0,0,1,4.23-4.76ZM225.78,25.37c1.91.51,1.41,0,1.59,2.11h-1.59V25.37Zm2.64,0h2.12V27c-3.09-.26-1.18.18-2.12-1.58Zm7.93-2.11h-4.23V21.67l6.86.61v1.5a7.65,7.65,0,0,0-2.64-.53Zm9-.53c2.73-.64,1.61-1.37,4.23-1.59V22.2c-2.73.64-1.61,1.37-4.23,1.59V22.73Zm15.33,1.58c-2.1-.56-3.2-2.07-3.7-4.23,2.72.06,1.52-.48,2.64,1.06h-1.06c.79,2.94,1.26.82,2.11,3.17ZM258.57,19c-2.34-.19-3.17-.65-3.7-2.64,1.61.43,3.26,1,3.7,2.64ZM255.4,9c2.16.18,2.15.27,2.64,2.11-2.34-.05-2.45.17-2.64-2.11ZM258,4.23c.74,0,1.06.72,1.06,1.59V9c-1.41-.38-3.17-1.49-3.17-3.17,0-.64,1.09-1.59,2.11-1.59Zm-31.2,57.61a5.46,5.46,0,0,1,4.23-2.64c-.18,2.15-.27,2.15-2.11,2.64V60.78l-2.12,1.06Z" fill="#231f20" fill-rule="evenodd"/><path d="M277.6,93l1.06-5.29h1.59v1.59c0,1.07-1.22,3.32-2.64,3.7ZM275,94.08l4-.43-1.32,3.08,1.59,2.11-.62-2.2,1.68-2-1,0,2.6-7.42-2.11-2.64v1.59h-1l-.59-4.75c0,5.58-.35,10-3.17,12.69Z" fill="#7d7e81" fill-rule="evenodd"/><path d="M277.6,93c1.42-.38,2.64-2.63,2.64-3.7V87.74h-1.59L277.6,93Z" fill="#cfd1d2" fill-rule="evenodd"/><path d="M278.13,80.87v.53l.59,4.75h1V84.57l2.11,2.64,1.15-2.1-.62,4.21a6.62,6.62,0,0,0,1.59-4.76V84a3.76,3.76,0,0,0-2.12-3.7l-3.71-.51v1Z" fill="#181f1f" fill-rule="evenodd"/><path d="M255.48,92c.08,1.56.16,1.24,1.5,1.59V86.68l-2.24-1.57.73,6.85Z" fill="#cdcfd0" fill-rule="evenodd"/><path d="M250.64,89.33l-1.06,9h1.59V95.67c1-1.47,2.11-1.83,2.11-4.23V89.85h.64l-.64,7.39,1.06.53c0-2.49.81-3.31.53-5.29L253.61,83l-2.88-1.3,1.91,4-1.47-.07-.53,3.7Z" fill="#b7b7b6" fill-rule="evenodd"/><path d="M281.83,80.34a3.76,3.76,0,0,1,2.12,3.7v.53a6.62,6.62,0,0,1-1.59,4.76l.62-4.21-1.15,2.1-2.6,7.42,1,0,1.06-.53v1.06l.44.34,2.2-3L285,87.74l.34-5.31-3-3.67-1-.61.5-1,.57-1L281.31,74v1.06h-3.17l-.45.37,4.15,4.92Z" fill="#abadb0" fill-rule="evenodd"/><path d="M251.17,98.31l1-.11,1.16-1,.64-7.39h-.64v1.59c0,2.4-1.13,2.76-2.11,4.23v2.64Z" fill="#1e2524" fill-rule="evenodd"/><polygon points="274.96 94.08 274.43 96.72 277.6 96.72 278.92 93.65 274.96 94.08 274.96 94.08" fill="#434345" fill-rule="evenodd"/><polygon points="280.25 94.61 278.57 96.64 279.19 98.84 281.63 99.05 284.48 94.61 284.48 92.5 283.95 92.5 281.75 95.47 281.31 95.14 281.31 94.08 280.25 94.61 280.25 94.61" fill="#434345" fill-rule="evenodd"/><path d="M78.63,259.33H89.71l.25,4.45H89.2a7.29,7.29,0,0,0-.67-2.27,2.6,2.6,0,0,0-1.05-1,3.58,3.58,0,0,0-1.7-.35H84.05a.9.9,0,0,0-.59.16.55.55,0,0,0-.18.44v4.41h.59a2.1,2.1,0,0,0,1.59-.58,3,3,0,0,0,.67-1.88h.77v5.92h-.77a3.28,3.28,0,0,0-.64-2.07,2.25,2.25,0,0,0-1.71-.6h-.49v4.71a.49.49,0,0,0,.18.44,1.4,1.4,0,0,0,.79.19h1.53a3.46,3.46,0,0,0,2.57-1,5,5,0,0,0,1.24-3h.78l-.19,4.84H78.63v-.8h1.14a.81.81,0,0,0,.59-.2.71.71,0,0,0,.21-.53v-9.79a.53.53,0,0,0-.21-.46,1.28,1.28,0,0,0-.72-.15h-1v-.8Zm32.5,1,.8-1.13h.61l.08,4.39h-.77a6,6,0,0,0-1.71-2.83,3.71,3.71,0,0,0-2.45-.94,2.74,2.74,0,0,0-1.86.63,1.92,1.92,0,0,0-.72,1.49,1.68,1.68,0,0,0,.28.94,2.24,2.24,0,0,0,.92.74,10.89,10.89,0,0,0,2.22.63,15.08,15.08,0,0,1,2.55.7,3.87,3.87,0,0,1,1.68,1.32,3.45,3.45,0,0,1,.56,2,3.52,3.52,0,0,1-1.21,2.81,5.34,5.34,0,0,1-3.62,1.27,5.49,5.49,0,0,1-3.63-1.39l-1,1.26h-.62v-4.71H104q1.13,4,4.58,4a3.33,3.33,0,0,0,2.19-.65,2,2,0,0,0,.78-1.62,1.85,1.85,0,0,0-.34-1.14,2.38,2.38,0,0,0-1.07-.75,17,17,0,0,0-2-.49,12.25,12.25,0,0,1-3-1,3.33,3.33,0,0,1-1.32-1.22,3.39,3.39,0,0,1-.42-1.75,3.7,3.7,0,0,1,1.17-2.83,4.37,4.37,0,0,1,3.13-1.1,5.27,5.27,0,0,1,3.45,1.3Zm14.93-1h11.12l.28,4.83h-.78a8.76,8.76,0,0,0-.71-2.41,3.1,3.1,0,0,0-1-1.24,2.23,2.23,0,0,0-1.24-.37.82.82,0,0,0-.57.16.58.58,0,0,0-.18.46v9.84a.63.63,0,0,0,.18.46.58.58,0,0,0,.42.18H135v.8h-6.8v-.8h1.37a.65.65,0,0,0,.49-.18.62.62,0,0,0,.18-.47v-9.79a.65.65,0,0,0-.19-.51.85.85,0,0,0-.58-.16q-2.2,0-3,4h-.76l.28-4.83Zm30-.31,4.77,11.41a1.5,1.5,0,0,0,.45.65,1.07,1.07,0,0,0,.64.17h.46v.8h-6v-.8H157a2,2,0,0,0,.91-.15.44.44,0,0,0,.25-.39,1.16,1.16,0,0,0-.1-.44l-1-2.35h-4.75l-.46,1.07a2.9,2.9,0,0,0-.29,1,1.12,1.12,0,0,0,.41.91,1.71,1.71,0,0,0,1.13.35h.4v.8h-4.82v-.8H149a1.25,1.25,0,0,0,.81-.29,2.73,2.73,0,0,0,.78-1.05L155.15,259Zm-1.39,3.22-2,4.84h4l-2-4.84Zm19.36-2.91h7.72a4.3,4.3,0,0,1,2.83.85,2.67,2.67,0,0,1,1,2.13,2.5,2.5,0,0,1-.82,1.89,5.65,5.65,0,0,1-2.46,1.21,6.08,6.08,0,0,1,3.09,1.2,2.7,2.7,0,0,1,.92,2.09,2.93,2.93,0,0,1-.65,1.91,3.89,3.89,0,0,1-1.62,1,7.79,7.79,0,0,1-2.73.43h-7.29v-.8h1.17a.57.57,0,0,0,.46-.18.88.88,0,0,0,.21-.59v-9.85a.42.42,0,0,0-.19-.36,1.11,1.11,0,0,0-.64-.14h-1v-.8Zm4.56,5.76h1.44a3,3,0,0,0,2.11-.62,2.79,2.79,0,0,0,.63-2,2.22,2.22,0,0,0-.61-1.77,3.73,3.73,0,0,0-2.32-.52,2.27,2.27,0,0,0-1,.15.6.6,0,0,0-.22.54v4.27Zm0,.79v4.63a.86.86,0,0,0,.15.55.52.52,0,0,0,.42.19h1.65a2.66,2.66,0,0,0,1.91-.66,2.56,2.56,0,0,0,.69-1.95,2.71,2.71,0,0,0-.74-2.05,3,3,0,0,0-2.15-.71Zm20.16-5.75v-.8h6.53v.8h-1.1a.94.94,0,0,0-.66.18.78.78,0,0,0-.19.58v9.46c0,.38.06.63.18.73a1.45,1.45,0,0,0,.85.16h1.83a2.58,2.58,0,0,0,1.91-1,6.8,6.8,0,0,0,1.36-3.1h.77l-.29,4.88H198.8v-.8h1.12a.76.76,0,0,0,.56-.19.73.73,0,0,0,.19-.53V260.8a.63.63,0,0,0-.19-.51,1.07,1.07,0,0,0-.66-.16Zm23.67-.8H229v.8h-1.18a.83.83,0,0,0-.55.15.55.55,0,0,0-.17.44v9.85a.59.59,0,0,0,.18.49,1,1,0,0,0,.67.19h1v.8h-6.52v-.8h1a1.17,1.17,0,0,0,.73-.17.62.62,0,0,0,.21-.51v-9.74a.69.69,0,0,0-.19-.53.9.9,0,0,0-.61-.17h-1.13v-.8Zm26.91,1,.8-1.13h.61l.07,4.39h-.77a6,6,0,0,0-1.71-2.83,3.71,3.71,0,0,0-2.45-.94,2.74,2.74,0,0,0-1.86.63,1.91,1.91,0,0,0-.72,1.49,1.66,1.66,0,0,0,.29.94,2.21,2.21,0,0,0,.92.74,10.8,10.8,0,0,0,2.21.63,15.28,15.28,0,0,1,2.56.7,3.87,3.87,0,0,1,1.68,1.32,3.47,3.47,0,0,1,.56,2,3.53,3.53,0,0,1-1.21,2.81,5.33,5.33,0,0,1-3.62,1.27,5.5,5.5,0,0,1-3.63-1.39l-1,1.26h-.62v-4.71h.75q1.13,4,4.58,4a3.33,3.33,0,0,0,2.19-.65,2,2,0,0,0,.78-1.62,1.84,1.84,0,0,0-.34-1.14,2.38,2.38,0,0,0-1.07-.75,17.1,17.1,0,0,0-2-.49,12.21,12.21,0,0,1-3-1,3.31,3.31,0,0,1-1.32-1.22,3.36,3.36,0,0,1-.43-1.75,3.7,3.7,0,0,1,1.16-2.83,4.38,4.38,0,0,1,3.13-1.1,5.27,5.27,0,0,1,3.45,1.3Zm15-1h5.89v.8h-.87a.81.81,0,0,0-.55.16.57.57,0,0,0-.18.44v4.17h4.85v-4a.85.85,0,0,0-.19-.63.93.93,0,0,0-.65-.18H272v-.8h5.9v.8h-.79a1,1,0,0,0-.65.17.7.7,0,0,0-.19.53v9.61a.86.86,0,0,0,.19.62.76.76,0,0,0,.55.19h.89v.8H272v-.8h.89a.72.72,0,0,0,.53-.17.77.77,0,0,0,.16-.55V266h-4.85v4.57a.79.79,0,0,0,.16.54.53.53,0,0,0,.42.17h1v.8H264.4v-.8h.95a.62.62,0,0,0,.48-.17.81.81,0,0,0,.15-.55v-9.59a.84.84,0,0,0-.2-.63.89.89,0,0,0-.64-.19h-.74v-.8Zm26,0h11.08l.25,4.45H301a7.23,7.23,0,0,0-.67-2.27,2.59,2.59,0,0,0-1-1,3.6,3.6,0,0,0-1.7-.35h-1.74a.9.9,0,0,0-.59.16.55.55,0,0,0-.18.44v4.41h.59a2.09,2.09,0,0,0,1.59-.58,3,3,0,0,0,.67-1.88h.77v5.92h-.77a3.29,3.29,0,0,0-.64-2.07,2.25,2.25,0,0,0-1.71-.6h-.49v4.71a.49.49,0,0,0,.18.44,1.39,1.39,0,0,0,.79.19h1.53a3.46,3.46,0,0,0,2.57-1,5,5,0,0,0,1.24-3h.77l-.19,4.84H290.42v-.8h1.14a.8.8,0,0,0,.59-.2.7.7,0,0,0,.2-.53v-9.79a.52.52,0,0,0-.2-.46,1.27,1.27,0,0,0-.72-.15h-1v-.8Zm24.45,0h6.85a6.61,6.61,0,0,1,3.28.79,5.63,5.63,0,0,1,2.21,2.25,6.75,6.75,0,0,1,.8,3.29,7.06,7.06,0,0,1-.73,3.31,5.46,5.46,0,0,1-2.19,2.24,6.22,6.22,0,0,1-3.12.83h-7.1v-.8h1.06a.75.75,0,0,0,.58-.21.81.81,0,0,0,.2-.59v-9.58a.69.69,0,0,0-.21-.56,1.06,1.06,0,0,0-.7-.18h-.94v-.8Zm6.25,11.92a3.72,3.72,0,0,0,2.09-.6,3.33,3.33,0,0,0,1.32-1.62,9.36,9.36,0,0,0,.4-3.19,9.92,9.92,0,0,0-.47-3.48,3.43,3.43,0,0,0-1.3-1.72,4.54,4.54,0,0,0-2.4-.51,2.43,2.43,0,0,0-1.09.15.59.59,0,0,0-.22.54v9.62a.88.88,0,0,0,.18.62.74.74,0,0,0,.56.19Z" fill="#231f20"/><path d="M355.49,261.2a11.43,11.43,0,0,0,2.27-.34,9.37,9.37,0,0,0,1.87-.78h.63v10.53a.64.64,0,0,0,.17.48.65.65,0,0,0,.47.17h1.6v.8h-6.68v-.8h1.26a.92.92,0,0,0,.68-.21,1,1,0,0,0,.2-.69v-7.81a.52.52,0,0,0-.17-.42.74.74,0,0,0-.5-.15h-1.82v-.77ZM381.67,265a5,5,0,0,1,2.11,1.44,3.25,3.25,0,0,1,.58,2,3.75,3.75,0,0,1-1.14,2.84,4.3,4.3,0,0,1-3.1,1.09,4.6,4.6,0,0,1-3-.88,2.77,2.77,0,0,1-1.07-2.25,2.56,2.56,0,0,1,.6-1.71,5,5,0,0,1,2.15-1.23A4.47,4.47,0,0,1,377,264.9a2.94,2.94,0,0,1-.49-1.71,3.2,3.2,0,0,1,1.06-2.4,3.69,3.69,0,0,1,2.66-1,4,4,0,0,1,2.55.77,2.24,2.24,0,0,1,1,1.78,2.29,2.29,0,0,1-.45,1.38,4.72,4.72,0,0,1-1.64,1.25Zm-.67-.24a3.23,3.23,0,0,0,.94-1,2.39,2.39,0,0,0,.25-1.13,2,2,0,0,0-.56-1.48,2,2,0,0,0-1.48-.56,1.94,1.94,0,0,0-1.39.5,1.68,1.68,0,0,0-.53,1.27,1.72,1.72,0,0,0,.5,1.24,7,7,0,0,0,2.27,1.16Zm-1.45,1.86a2.64,2.64,0,0,0-1.21.94,2.76,2.76,0,0,0-.39,1.54,2.47,2.47,0,0,0,.64,1.81,2.26,2.26,0,0,0,1.7.65,2.58,2.58,0,0,0,1.79-.61,2,2,0,0,0,.68-1.58,1.82,1.82,0,0,0-.67-1.48,10.17,10.17,0,0,0-2.55-1.27Zm18.22-5.38a11.41,11.41,0,0,0,2.27-.34,9.21,9.21,0,0,0,1.87-.78h.63v10.53a.64.64,0,0,0,.17.48.65.65,0,0,0,.47.17h1.6v.8h-6.68v-.8h1.26a.91.91,0,0,0,.68-.21,1,1,0,0,0,.2-.69v-7.81a.53.53,0,0,0-.17-.42.74.74,0,0,0-.51-.15h-1.81v-.77ZM424,265a5,5,0,0,1,2.11,1.44,3.23,3.23,0,0,1,.58,2,3.75,3.75,0,0,1-1.14,2.84,4.3,4.3,0,0,1-3.1,1.09,4.58,4.58,0,0,1-3-.88,2.77,2.77,0,0,1-1.07-2.25,2.56,2.56,0,0,1,.6-1.71,5,5,0,0,1,2.15-1.23,4.47,4.47,0,0,1-1.79-1.34,3,3,0,0,1-.49-1.71,3.2,3.2,0,0,1,1.05-2.4,3.68,3.68,0,0,1,2.65-1,4,4,0,0,1,2.55.77,2.23,2.23,0,0,1,1,1.78,2.3,2.3,0,0,1-.46,1.38A4.67,4.67,0,0,1,424,265Zm-.66-.24a3.19,3.19,0,0,0,.94-1,2.37,2.37,0,0,0,.25-1.13,1.93,1.93,0,0,0-2-2,1.94,1.94,0,0,0-1.39.5,1.68,1.68,0,0,0-.52,1.27,1.7,1.7,0,0,0,.5,1.24,6.85,6.85,0,0,0,2.27,1.16Zm-1.45,1.86a2.63,2.63,0,0,0-1.22.94,2.76,2.76,0,0,0-.39,1.54,2.48,2.48,0,0,0,.64,1.81,2.27,2.27,0,0,0,1.7.65,2.56,2.56,0,0,0,1.79-.61,2,2,0,0,0,.68-1.58,1.81,1.81,0,0,0-.67-1.48,10,10,0,0,0-2.54-1.27Z" fill="#231f20"/></svg>