<?xml version="1.0" encoding="utf-8"?>
<!-- Generator: Adobe Illustrator 18.1.1, SVG Export Plug-In . SVG Version: 6.00 Build 0)  -->
<svg version="1.1" id="Layer_1" xmlns="http://www.w3.org/2000/svg" xmlns:xlink="http://www.w3.org/1999/xlink" x="0px" y="0px"
	 width="509.64px" height="85.21px" viewBox="0 0 509.64 85.21" style="enable-background:new 0 0 509.64 85.21;"
	 xml:space="preserve">
<g>
	<path style="fill:#000001;" d="M14.62,55.01c-7.85,0-8.9-7.98-8.9-12.47c0-5.71,2.1-12.47,8.9-12.47c4.03,0,6.21,2.81,6.84,5.2
		l3.78-0.97c-0.76-1.97-2.73-7.35-10.62-7.35c-6.3,0-13.02,3.99-13.02,15.58c0,7.51,3.27,15.57,13.02,15.57
		c5.5,0,9.28-2.43,11.04-8.06l-3.82-0.92C21,52.28,18.94,55.01,14.62,55.01z"/>
	<path style="fill:#000001;" d="M39.08,32.17c-7.6,0-10.45,6.51-10.45,12.89c0,5.04,1.64,12.93,10.45,12.93
		c7.6,0,10.46-6.51,10.46-12.93C49.53,40.06,47.89,32.17,39.08,32.17z M39.08,55.05c-5.25,0-6.59-5.16-6.59-10.04
		c0-4.79,1.34-9.91,6.59-9.91c5.25,0,6.59,5.12,6.59,9.91C45.67,49.89,44.32,55.05,39.08,55.05z"/>
	<path style="fill:#000001;" d="M63.79,46.86c-0.72,2.18-1.09,3.65-1.97,6.93h-0.21c-0.88-3.28-1.3-4.75-1.97-6.93l-4.32-14.19
		h-4.12l8.15,24.81h4.58l8.1-24.81h-3.7L63.79,46.86z"/>
	<path style="fill:#000001;" d="M84.14,32.17c-8.82,0-10.45,7.89-10.45,12.89c0,5.04,1.64,12.93,10.45,12.93
		c4.54,0,7.6-2.35,9.2-6.17l-3.23-1.13c-0.38,1.35-1.93,4.37-5.96,4.37c-3.32,0-6.42-2.35-6.59-9.03h16.29v-1.85
		C93.84,38.34,91.28,32.17,84.14,32.17z M77.55,43.25c0.5-5.08,2.6-8.14,6.46-8.14c3.95,0,5.96,3.69,5.96,8.14H77.55z"/>
	<path style="fill:#000001;" d="M102.14,37.08h-0.08v-4.41h-3.7v24.81h3.7V40.27c3.11-4.16,6.42-4.16,8.27-4.16v-3.69
		C107.22,32.42,104.32,34.06,102.14,37.08z"/>
	<path style="fill:#000001;" d="M125.98,32.17c-3.78,0-6.38,2.73-8.39,4.53V24.87h-3.7v32.62h3.7V39.81
		c1.51-1.77,3.73-4.28,7.18-4.28c3.06,0,3.65,2.48,3.65,5v16.96h3.69V39.18C132.15,34.48,129.8,32.17,125.98,32.17z"/>
	<path style="fill:#000001;" d="M147.08,32.17c-7.6,0-10.45,6.51-10.45,12.89c0,5.04,1.64,12.93,10.45,12.93
		c7.6,0,10.46-6.51,10.46-12.93C157.54,40.06,155.9,32.17,147.08,32.17z M147.08,55.05c-5.25,0-6.59-5.16-6.59-10.04
		c0-4.79,1.34-9.91,6.59-9.91c5.25,0,6.59,5.12,6.59,9.91C153.67,49.89,152.33,55.05,147.08,55.05z"/>
	<rect x="162.35" y="24.87" style="fill:#000001;" width="3.7" height="32.62"/>
	<path style="fill:#000001;" d="M186.73,35.91c-2.65-2.98-4.75-3.74-7.22-3.74c-3.82,0-8.65,2.77-8.65,12.81
		c0,8.23,3.4,13.01,8.99,13.01c3.82,0,5.96-2.39,6.8-3.73h0.08v3.23h3.69V24.87h-3.69V35.91z M186.73,51.15
		c-0.67,1.43-2.77,3.74-5.96,3.74c-5.16,0-6.04-6.09-6.04-10.16c0-3.23,0.67-9.45,6-9.45c2.39,0,4.66,1.81,6,3.7V51.15z"/>
	<path style="fill:#000001;" d="M205.41,32.17c-8.82,0-10.46,7.89-10.46,12.89c0,5.04,1.64,12.93,10.46,12.93
		c4.53,0,7.6-2.35,9.19-6.17l-3.23-1.13c-0.38,1.35-1.93,4.37-5.96,4.37c-3.32,0-6.43-2.35-6.59-9.03h16.29v-1.85
		C215.1,38.34,212.54,32.17,205.41,32.17z M198.81,43.25c0.5-5.08,2.61-8.14,6.47-8.14c3.94,0,5.96,3.69,5.96,8.14H198.81z"/>
	<path style="fill:#000001;" d="M223.4,37.08h-0.09v-4.41h-3.69v24.81h3.69V40.27c3.11-4.16,6.43-4.16,8.27-4.16v-3.69
		C228.48,32.42,225.59,34.06,223.4,37.08z"/>
	<path style="fill:#000001;" d="M263.82,41.53c0-4.37-0.97-9.36-8.31-9.36c-6,0-7.85,3.23-8.98,6.21l3.19,0.97
		c1.09-2.69,2.52-4.41,5.58-4.41c4.83,0,4.83,3.99,4.83,5.67v1.6h-3.57c-6.84,0-11.21,2.85-11.21,8.52c0,3.24,1.8,7.01,6.93,7.01
		c2.94,0,5.37-1.3,7.77-4.45h0.08v4.2h3.91c-0.21-1.38-0.21-2.35-0.21-2.9V41.53z M260.12,50.56c-3.4,3.86-5.41,4.24-6.93,4.24
		c-3.07,0-4.16-2.14-4.16-4.41c0-3.73,3.11-5.42,8.4-5.42h2.68V50.56z"/>
	<path style="fill:#000001;" d="M277.74,55.05c-2.73,0-2.94-1.89-2.94-3.95V37.42h5.84v-2.77h-5.84v-7.69l-3.7,1.56v6.13h-3.73v2.77
		h3.73v14.15c0,2.77,0.93,6.42,6.26,6.42c0.63,0,2.1-0.17,3.48-0.71v-2.94C279.55,54.84,278.91,55.05,277.74,55.05z"/>
</g>
<rect x="297.24" y="0" style="fill:#000001;" width="212.4" height="85.21"/>
<path style="fill:#FFFFFF;" d="M464.75,27.81c0.21,2.43-1.82,5.99-3.13,6.73l-0.91-0.96c1.19-1.76,0.96-5.77-0.22-6.38l0.13-0.3
	c0.96,0,2.61,0.34,3.22,0.51C464.41,27.6,464.44,27.64,464.75,27.81"/>
<path style="fill:#FFFFFF;" d="M482.84,49.12c0,4.69-3.44,8.07-9.29,8.07c-2.29,0-5.43-0.48-6.82-1.17c0,0-0.13-0.2-0.13-1
	c0-2,0.17-5.28,0.21-5.86h1.22c0.11,0.6,0.21,1.44,0.48,2.39c0.76,2.65,2.86,3.65,5.42,3.65c2.59,0,4.78-1.39,4.78-4.26
	c0-2.18-1.35-3.28-3.95-5.5l-1.52-1.31c-3.27-2.8-5.86-5.23-5.86-8.9c0-4.11,3.28-7.33,8.77-7.33c2.26,0,4.64,0.44,5.51,0.65
	c0.33,0.08,0.52,0.14,0.52,0.39c0,0.47-0.17,2.81-0.17,5.64h-1.08c-0.76-2.75-1.28-4.73-5.17-4.73c-3.09,0-4.34,2.09-4.34,3.99
	c0,1.81,1.38,3.24,4.09,5.48l1.52,1.26C480.95,43.83,482.84,45.56,482.84,49.12"/>
<path style="fill:#FFFFFF;" d="M428.06,29.51c-1.65,0-2.92,0.48-4.35,2.2c-1.19,1.47-5.59,9.99-6.59,12.29
	c-0.37,0.84-0.57,0.89-0.57,2.61v3.47c0,0.58-0.02,1.9,0.09,3.42c0.07,1.05,0.42,1.85,1.52,2c0.5,0.07,1.66,0.13,2.17,0.13v1.13
	h-12.2v-1.13c0.51,0,1.89-0.06,2.21-0.13c0.38-0.08,1.22-0.24,1.35-2c0.11-1.52,0.13-2.85,0.13-3.42v-3.69
	c0-1.27-0.08-1.33-0.87-2.78c-0.55-1-4.81-9.14-6.07-11.03c-1.49-2.19-2.37-3.07-4.77-3.07v-1.08h7.85c0,0,0.14,0.47,1.21,2.72
	c0.51,1.09,5.19,10.02,5.77,11.03c0,0,4.91-9.38,7.21-13.75h5.9V29.51z"/>
<path style="fill:#FFFFFF;" d="M367.25,50.51c0,0-0.89,4.29-1.17,5.34c-0.22,0.8-0.35,0.92-0.35,0.92h-19.44v-1.13
	c0.54,0,1.75-0.11,2.08-0.18c0.73-0.14,1.04-0.68,1.17-1.74c0.16-1.26,0.17-4.16,0.17-7.5v-7.08c0-5.52-0.01-6.3-0.09-7.46
	c-0.07-1.24-0.32-1.82-1.52-2.09c-0.3-0.06-1.26-0.08-1.74-0.08v-1.08h8.12v3.16c0,0-0.04,1.94-0.04,7.38v7.11
	c0,4.98-0.01,7.09,0.74,7.74c0.61,0.52,2.07,0.73,4.86,0.73c2.54,0,3.4-0.1,4.26-0.96c0.73-0.73,1.06-1.49,1.47-3.08H367.25z"/>
<path style="fill:#FFFFFF;" d="M343.68,50.51c0,0-0.88,4.29-1.17,5.34c-0.22,0.8-0.34,0.92-0.34,0.92h-19.45v-1.13
	c0.55,0,1.75-0.11,2.08-0.18c0.73-0.14,1.04-0.68,1.18-1.74c0.16-1.26,0.17-4.16,0.17-7.5v-7.08c0-5.52-0.01-6.3-0.09-7.46
	c-0.07-1.24-0.32-1.82-1.52-2.09c-0.3-0.06-1.26-0.08-1.74-0.08v-1.08h8.12v3.16c0,0-0.05,1.94-0.05,7.38v7.11
	c0,4.98-0.01,7.09,0.74,7.74c0.61,0.52,2.07,0.73,4.87,0.73c2.54,0,3.39-0.1,4.25-0.96c0.73-0.73,1.06-1.49,1.47-3.08H343.68z"/>
<path style="fill:#FFFFFF;" d="M459.1,41.95c0,4.99-1.92,8.74-3.95,10.81c-1.68,1.71-5.09,4-11.81,4h-14.06v-1.13
	c2.43-0.07,3.34-0.01,3.56-2.04c0.18-1.55,0.13-5.73,0.13-7.6v-6.85c0-5.52-0.02-6.3-0.09-7.46c-0.08-1.24-0.37-1.82-1.57-2.09
	c-0.29-0.06-1.27-0.08-1.78-0.08v-1.08H441c4.54,0,10.58-0.02,14.55,4.12C457.35,34.44,459.1,37.47,459.1,41.95 M454.06,43.01
	c0-4.73-1.89-7.65-3.43-9.12c-3.34-3.2-7.32-3.6-10.11-3.6c-0.72,0-2.05,0.13-2.34,0.25c-0.32,0.16-0.42,0.35-0.43,0.74
	c-0.03,1.22-0.05,4.34-0.05,7.17v5.33c0,3.79,0.06,6.53,0.09,7.21c0.04,0.9,0.11,2.33,0.39,2.73c0.48,0.69,1.82,1.43,4.64,1.43
	c3.65,0,5.96-0.7,8.12-2.56C453.28,50.57,454.06,46.69,454.06,43.01"/>
<path style="fill:#FFFFFF;" d="M398.89,41.91c0,8.47-5.53,15.33-14.72,15.33c-10.17,0-14.24-7.92-14.24-14.68
	c0-6.87,4.27-14.67,14.59-14.67C393.6,27.9,398.89,33.61,398.89,41.91 M393.47,43.21c0-8.09-4.19-13.19-9.9-13.19
	c-4.23,0-8.34,3.21-8.34,11.46c0,6.99,3.54,13.49,9.9,13.49C390.35,54.98,393.47,50.93,393.47,43.21"/>
</svg>