<svg xmlns="http://www.w3.org/2000/svg" viewBox="0 0 295.48193 162.24396">
  <title>black</title>
  <g>
    <path d="M166.61981,12.90656c3.51367,9.73291-1.12988,19.07714-4.51855,25.56591-5.01953,9.603-12.80078,22.58106-19.57862,32.833,13.93116.12988,20.33155-1.168,28.1128-2.98486V86.14111h15.36383c-.37976-12.90222-.63257-26.05725-.63257-35.54431,9.48706,11.89044,18.5943,26.05725,26.437,35.54431,5.69214,0,10.49884-.37921,25.42462,0-4.17413-4.17413-8.34826-9.36065-12.396-13.78759-7.96912-8.47529-12.90223-15.30561-20.23871-23.907,13.7876-1.64434,21.12408-14.16711,21.37689-24.41284C226.47668,11.89044,217.62225,0,202.82281,0H152.0672C158.09125,1.76483,163.83417,5.38593,166.61981,12.90656Zm19.25305.881a74.99,74.99,0,0,1,10.75165,0c6.83087.50592,9.86627,5.56573,9.86627,10.11938,0,5.18622-2.02356,9.61347-8.22186,11.13147a66.3926,66.3926,0,0,1-12.64941.37946C185.61951,25.425,185.61951,20.49182,185.87286,13.7876Z" fill="#231f20"/>
    <path d="M56.50677,86.14111H76.99829c-.1264-13.914-.37952-27.955-.37952-38.57995H100.273c-.1264,12.77551-.759,29.09289-.63257,38.57995h9.77539c18.567-24.93341,29.63117-42.18585,38.37787-61.2951,2.38477-5.06153.62793-9.99317-3.89014-11.29053-5.648-1.55762-15.81347-2.33594-26.73242,8.43506V0H99.64038c.37946,14.42023.25305,23.02161.37946,33.52045H76.49237c.1264-8.72809.25311-23.78058.759-33.52045H56.25366C57.77161,30.10529,57.51855,55.90942,56.50677,86.14111Z" fill="#231f20"/>
    <polygon points="11.463 106.455 7.263 112.388 5.213 106.455 1.341 106.455 5.177 115.695 3.937 123.53 7.265 123.53 8.506 115.695 15.358 106.455 11.463 106.455" fill="#231f20"/>
    <path d="M18.53906,112.04913a6.82612,6.82612,0,0,0-6.78174,5.93262c-.54492,3.44141,1.41944,5.91016,4.90625,5.91016a6.80351,6.80351,0,0,0,6.77832-5.91016C23.99023,114.51691,22.00342,112.04913,18.53906,112.04913Zm1.687,5.93262c-.23632,1.49414-1.4873,3.10156-3.11767,3.10156s-2.37207-1.60742-2.13574-3.10156c.24414-1.54,1.49121-3.125,3.12158-3.125S20.47021,116.44171,20.22607,117.98175Z" fill="#231f20"/>
    <path d="M28.794,123.89191c3.30566,0,5.25048-1.69825,5.76318-4.93653l1.03613-6.54394H32.42334l-.9541,6.02344c-.20069,1.26757-.64453,2.78515-2.25244,2.78515-1.60742,0-1.57129-1.51758-1.37061-2.78515l.9541-6.02344H25.62988l-1.03613,6.54394C24.08105,122.19366,25.48779,123.89191,28.794,123.89191Z" fill="#231f20"/>
    <path d="M39.894,118.52472c.27246-1.7207.80762-3.668,3.00391-3.668a1.97631,1.97631,0,0,1,1.249.40723l.85108-2.94336a3.35157,3.35157,0,0,0-1.27051-.27149,3.807,3.807,0,0,0-3.00293,1.5166h-.04492l.18261-1.15429H37.69238L35.93164,123.5296h3.16992Z" fill="#231f20"/>
    <path d="M54.06543,123.5296l1.3374-8.44629H57.939l.42334-2.67187H55.82617l.44483-2.8086c.14306-.90527.2749-2.73925,1.6792-2.73925a2.50188,2.50188,0,0,1,1.22949.38476l.44824-2.83105a2.92532,2.92532,0,0,0-1.45947-.36231c-3.05713,0-4.56592,2.37793-4.9961,5.09571l-.5166,3.26074h-1.064l-.42334,2.67187h1.06445l-1.3374,8.44629Z" fill="#231f20"/>
    <path d="M62.32178,123.89191a6.80352,6.80352,0,0,0,6.77832-5.91016c.54834-3.46484-1.43848-5.93262-4.90283-5.93262a6.82611,6.82611,0,0,0-6.78174,5.93262C56.87061,121.42316,58.835,123.89191,62.32178,123.89191Zm-1.69092-5.91016c.24414-1.54,1.49121-3.125,3.12158-3.125s2.376,1.585,2.13184,3.125c-.23633,1.49414-1.48731,3.10156-3.11768,3.10156S60.39453,119.47589,60.63086,117.98175Z" fill="#231f20"/>
    <path d="M78.73193,112.32062a3.35148,3.35148,0,0,0-1.2705-.27149,3.807,3.807,0,0,0-3.00293,1.5166h-.04541l.1831-1.15429H71.42627L69.66553,123.5296h3.16992l.79248-5.00488c.27246-1.7207.80762-3.668,3.00391-3.668a1.97635,1.97635,0,0,1,1.249.40723Z" fill="#231f20"/>
    <path d="M83.7832,114.58527c1.65284,0,1.16553,2.21875.99366,3.30566l-.89307,5.63867H87.0542l.86377-5.457c.1831-1.15527.52978-3.4873,2.251-3.4873,1.562,0,1.17529,2.01464,1.00293,3.10156l-.92481,5.84277H93.417l1.09717-6.92969c.38379-2.42285.019-4.55078-2.81152-4.55078a4.60508,4.60508,0,0,0-3.51416,1.74317,2.93562,2.93562,0,0,0-2.917-1.74317,3.97784,3.97784,0,0,0-2.93212,1.3584H82.294l.15771-.99609H79.28174L77.521,123.5296h3.16992l.86426-5.457C81.7417,116.89484,82.01709,114.58527,83.7832,114.58527Z" fill="#231f20"/>
    <path d="M100.33447,112.41144H97.16406l-1.03613,6.54394c-.5127,3.23828.894,4.93653,4.20019,4.93653,3.30567,0,5.25049-1.69825,5.76319-4.93653l1.03613-6.54394h-3.16992l-.9541,6.02344c-.20069,1.26757-.64453,2.78515-2.25244,2.78515-1.60743,0-1.57129-1.51758-1.37061-2.78515Z" fill="#231f20"/>
    <polygon points="110.502 104.327 107.461 123.53 110.631 123.53 113.672 104.327 110.502 104.327" fill="#231f20"/>
    <path d="M123.29053,123.5296l1.76074-11.11816h-3.125l-.165,1.041a3.468,3.468,0,0,0-2.87988-1.40332c-3.19287,0-5.53467,2.9209-6.001,5.86426-.47705,3.01172.91016,5.97852,4.1709,5.97852a4.53379,4.53379,0,0,0,3.23047-1.38184h.04492l-.16113,1.01953Zm-5.06983-2.44629c-1.63086,0-2.36865-1.62988-2.13232-3.124.23682-1.49512,1.48779-3.10254,3.11816-3.10254s2.395,1.60742,2.15821,3.10254C121.12793,119.45343,119.85059,121.08331,118.2207,121.08331Z" fill="#231f20"/>
    <path d="M139.28516,106.86359a2.50188,2.50188,0,0,1,1.22949.38476l.44824-2.83105a2.92527,2.92527,0,0,0-1.45947-.36231c-3.05713,0-4.56592,2.37793-4.9961,5.09571l-.5166,3.26074h-1.064l-.42334,2.67187h1.06445l-1.3374,8.44629h3.16992l1.3374-8.44629h2.53614l.42334-2.67187h-2.53614l.44483-2.8086C137.749,108.69757,137.88086,106.86359,139.28516,106.86359Z" fill="#231f20"/>
    <path d="M145.53174,112.04913a6.826,6.826,0,0,0-6.78125,5.93262c-.54492,3.44141,1.41943,5.91016,4.90625,5.91016a6.80218,6.80218,0,0,0,6.77734-5.91016C150.98291,114.51691,148.99658,112.04913,145.53174,112.04913Zm1.6875,5.93262c-.23731,1.49414-1.48828,3.10156-3.11768,3.10156-1.63037,0-2.37207-1.60742-2.13574-3.10156.24414-1.54,1.49121-3.125,3.12158-3.125C146.71729,114.85675,147.4624,116.44171,147.21924,117.98175Z" fill="#231f20"/>
    <path d="M155.79346,113.56573h-.0459l.18359-1.15429h-3.1709l-1.76074,11.11816h3.1709l.792-5.00488c.27246-1.7207.80762-3.668,3.00391-3.668a1.97536,1.97536,0,0,1,1.249.40723l.85059-2.94336a3.34652,3.34652,0,0,0-1.26953-.27149A3.80554,3.80554,0,0,0,155.79346,113.56573Z" fill="#231f20"/>
    <polygon points="175.429 123.53 178.757 123.53 181.461 106.455 178.132 106.455 177.068 113.181 170.909 113.181 171.973 106.455 168.645 106.455 165.941 123.53 169.27 123.53 170.478 115.899 176.637 115.899 175.429 123.53" fill="#231f20"/>
    <path d="M193.49561,111.596c.57714-3.64551-1.51856-5.14063-4.89258-5.14063h-4.50586l-2.7041,17.07422h3.3291l1.08984-6.88379h.04492l3.05371,6.88379h4.03125l-3.68359-7.20117A5.5106,5.5106,0,0,0,193.49561,111.596Zm-3.34278.09082c-.33008,2.083-1.707,2.626-3.541,2.626h-.43067l.81446-5.13965h.45214C189.21436,109.17316,190.48584,109.58038,190.15283,111.68683Z" fill="#231f20"/>
    <path d="M207.77783,106.45538H203.272l-2.7041,17.07422h3.3291l1.08985-6.88379h.04492l3.05371,6.88379h4.03125l-3.68359-7.20117a5.51059,5.51059,0,0,0,4.2373-4.73242C213.24756,107.9505,211.15186,106.45538,207.77783,106.45538Zm1.54981,5.23145c-.33008,2.083-1.707,2.626-3.541,2.626H205.356l.81445-5.13965h.45215C208.38916,109.17316,209.66064,109.58038,209.32764,111.68683Z" fill="#231f20"/>
    <path d="M223.11963,120.42706l-2.8457-.47558a2.83054,2.83054,0,0,1-2.36914,1.51758c-1.65333,0-1.94532-1.585-1.72364-2.98926h7.31446l.06054-.38477c.53125-3.35156-.67285-6.0459-4.31836-6.0459-3.60058,0-5.80859,2.64942-6.34277,6.02344-.53418,3.37305,1.18457,5.81934,4.626,5.81934A6.19828,6.19828,0,0,0,223.11963,120.42706Zm-4.05176-6.15918c1.22266,0,1.77149,1.10938,1.751,2.24219h-4.23438A2.79931,2.79931,0,0,1,219.06787,114.26788Z" fill="#231f20"/>
    <path d="M229.45654,114.26788a2.11461,2.11461,0,0,1,1.55371.76953l1.64844-1.834a5.04335,5.04335,0,0,0-3.39453-1.1543,4.15818,4.15818,0,0,0-4.10254,3.59961,2.46837,2.46837,0,0,0,1.75684,2.92188c1.03418.47558,2.10742.70117,1.95312,1.67578a1.44812,1.44812,0,0,1-1.458,1.19922,2.76843,2.76843,0,0,1-2.15039-1.29l-1.74707,1.8789a4.28745,4.28745,0,0,0,3.62305,1.85743,4.83591,4.83591,0,0,0,4.94922-3.94043,2.676,2.676,0,0,0-1.78125-3.19239c-1.05371-.498-2.17188-.72461-2.043-1.54A1.24356,1.24356,0,0,1,229.45654,114.26788Z" fill="#231f20"/>
    <path d="M238.01807,123.89191a6.80218,6.80218,0,0,0,6.77734-5.91016c.54883-3.46484-1.4375-5.93262-4.90234-5.93262a6.82454,6.82454,0,0,0-6.78125,5.93262C232.56592,121.42316,234.53076,123.89191,238.01807,123.89191Zm-1.69141-5.91016c.24414-1.54,1.49121-3.125,3.12207-3.125,1.62988,0,2.375,1.585,2.13184,3.125-.23731,1.49414-1.48828,3.10156-3.11817,3.10156C236.83154,121.08331,236.09033,119.47589,236.32666,117.98175Z" fill="#231f20"/>
    <path d="M252.82373,118.43488c-.20019,1.26757-.64453,2.78515-2.252,2.78515-1.6084,0-1.57129-1.51758-1.3711-2.78515l.95411-6.02344h-3.16993l-1.03613,6.54394c-.51367,3.23828.89356,4.93653,4.19922,4.93653,3.30664,0,5.251-1.69825,5.76367-4.93653l1.03613-6.54394h-3.16992Z" fill="#231f20"/>
    <path d="M261.24854,118.52472c.27246-1.7207.80761-3.668,3.0039-3.668a1.97534,1.97534,0,0,1,1.249.40723l.85059-2.94336a3.34652,3.34652,0,0,0-1.26953-.27149,3.80557,3.80557,0,0,0-3.00293,1.5166h-.0459l.1836-1.15429h-3.1709l-1.76075,11.11816h3.1709Z" fill="#231f20"/>
    <path d="M265.26514,118.00421c-.50586,3.19238,1.39941,5.8877,4.68359,5.8877a6.14275,6.14275,0,0,0,2.84668-.67969l.48438-3.05664a3.58375,3.58375,0,0,1-2.3877,1.06445c-1.81152,0-2.69141-1.44922-2.415-3.19336.25781-1.62988,1.542-3.30566,3.33106-3.30566a2.62074,2.62074,0,0,1,2.16015,1.08691l.48438-3.05761a4.41988,4.41988,0,0,0-2.47071-.70118A6.99119,6.99119,0,0,0,265.26514,118.00421Z" fill="#231f20"/>
    <path d="M285.31982,118.4798l.06055-.38477c.53125-3.35156-.67285-6.0459-4.31836-6.0459-3.60058,0-5.80859,2.64942-6.34277,6.02344-.53418,3.37305,1.18457,5.81934,4.626,5.81934a6.19829,6.19829,0,0,0,5.59864-3.46485l-2.84571-.47558a2.83051,2.83051,0,0,1-2.36914,1.51758c-1.65332,0-1.94531-1.585-1.72363-2.98926Zm-4.42773-4.21192c1.22266,0,1.77148,1.10938,1.751,2.24219h-4.23438A2.79931,2.79931,0,0,1,280.89209,114.26788Z" fill="#231f20"/>
    <path d="M292.13232,116.75909c-1.05371-.498-2.17187-.72461-2.043-1.54a1.24354,1.24354,0,0,1,1.19238-.95118,2.11462,2.11462,0,0,1,1.55371.76953l1.64844-1.834a5.04337,5.04337,0,0,0-3.39453-1.1543,4.15817,4.15817,0,0,0-4.10254,3.59961,2.46836,2.46836,0,0,0,1.75683,2.92188c1.03418.47558,2.10742.70117,1.95313,1.67578a1.44812,1.44812,0,0,1-1.458,1.19922,2.76843,2.76843,0,0,1-2.15039-1.29l-1.74707,1.8789a4.28744,4.28744,0,0,0,3.623,1.85743,4.8359,4.8359,0,0,0,4.94921-3.94043A2.676,2.676,0,0,0,292.13232,116.75909Z" fill="#231f20"/>
    <path d="M28.59229,145.472a3.57524,3.57524,0,0,0-2.5669-.72851H23.93115v12.49414H24.687V151.305h1.33838a3.79487,3.79487,0,0,0,2.64551-.79492,3.59315,3.59315,0,0,0-.07861-5.03809Zm-.45655,4.40821a2.76831,2.76831,0,0,1-2.07861.67969H24.687v-5.07129h1.24414a3.15981,3.15981,0,0,1,2.07862.49707,2.54467,2.54467,0,0,1,.89746,2.02246A2.51032,2.51032,0,0,1,28.13574,149.88019Z" fill="#231f20"/>
    <path d="M33.32617,149.41632a3.9973,3.9973,0,1,0,3.82666,3.99316A3.89186,3.89186,0,0,0,33.32617,149.41632Zm-.04736,7.291a3.30011,3.30011,0,1,1,3.16553-3.28125A3.17509,3.17509,0,0,1,33.27881,156.70734Z" fill="#231f20"/>
    <polygon points="45.678 155.863 43.096 149.167 40.529 155.863 37.962 149.582 37.238 149.582 40.513 157.652 43.064 151.04 45.631 157.652 48.922 149.582 48.198 149.582 45.678 155.863" fill="#231f20"/>
    <path d="M52.56641,149.41632a3.6933,3.6933,0,0,0-3.52735,3.97656c0,2.1709,1.37012,4.01075,3.52735,4.01075a3.53191,3.53191,0,0,0,3.25976-2.07129l-.59863-.36426a2.86705,2.86705,0,0,1-5.48-1.49219H56.0625C56.07812,151.27179,54.771,149.41632,52.56641,149.41632Zm.01562.69629a2.91452,2.91452,0,0,1,2.77149,2.668h-5.606A2.924,2.924,0,0,1,52.582,150.11261Z" fill="#231f20"/>
    <path d="M59.7334,149.41632a1.6597,1.6597,0,0,0-1.57471,1.16016H58.127v-.99414h-.70849v7.65527H58.127v-3.91016c0-1.12695-.09424-3.21484,1.4961-3.21484a.94582.94582,0,0,1,.5039.14844l.37793-.66211A1.76434,1.76434,0,0,0,59.7334,149.41632Z" fill="#231f20"/>
    <path d="M63.94141,149.41632a3.6933,3.6933,0,0,0-3.52735,3.97656c0,2.1709,1.37012,4.01075,3.52735,4.01075a3.53191,3.53191,0,0,0,3.25976-2.07129l-.59863-.36426a2.86705,2.86705,0,0,1-5.48-1.49219H67.4375C67.45312,151.27179,66.146,149.41632,63.94141,149.41632Zm.01562.69629a2.91452,2.91452,0,0,1,2.77149,2.668h-5.606A2.924,2.924,0,0,1,63.957,150.11261Z" fill="#231f20"/>
    <path d="M74.665,150.90753h-.03125a3.30045,3.30045,0,0,0-2.80274-1.49121c-2.189,0-3.55908,1.707-3.55908,3.94434,0,2.23632,1.38574,4.043,3.59033,4.043a3.21617,3.21617,0,0,0,2.77149-1.541H74.665v1.375h.709v-13.6709h-.709Zm-2.81836,5.79981a3.3338,3.3338,0,0,1-.04736-6.59473,2.93632,2.93632,0,0,1,2.91308,3.165C74.7124,155.11652,73.70459,156.70734,71.84668,156.70734Z" fill="#231f20"/>
    <path d="M85.90918,149.41632a3.30066,3.30066,0,0,0-2.80322,1.49121h-.03174v-7.34082h-.7085v13.6709h.7085v-1.375H83.106a3.21675,3.21675,0,0,0,2.77148,1.541c2.20459,0,3.59033-1.80665,3.59033-4.043C89.46777,151.12335,88.082,149.41632,85.90918,149.41632Zm-.01611,7.291c-1.79493,0-2.86573-1.541-2.86573-3.33008,0-1.82324,1.05469-3.26465,2.89746-3.26465a3.057,3.057,0,0,1,2.83448,3.24805C88.75928,155.11652,87.67285,156.70734,85.89307,156.70734Z" fill="#231f20"/>
    <polygon points="93.301 156.509 90.199 149.582 89.459 149.582 92.955 157.37 91.207 161.712 91.932 161.712 96.813 149.582 96.089 149.582 93.301 156.509" fill="#231f20"/>
    <polygon points="152.633 157.188 158.79 157.188 158.79 155.896 153.956 155.896 153.956 150.991 158.648 150.991 158.648 149.698 153.956 149.698 153.956 145.986 158.79 145.986 158.79 144.694 152.633 144.694 152.633 157.188" fill="#231f20"/>
    <path d="M167.812,149.1839a2.44259,2.44259,0,0,0-2.2207,1.293,2.25591,2.25591,0,0,0-2.04688-1.293,2.07142,2.07142,0,0,0-1.77929,1.06055h-.03223v-.84473h-1.25977v7.78809h1.25977v-4.02637c0-1.17676.1582-2.751,1.63867-2.751,1.21192,0,1.32227,1.3916,1.32227,2.35352v4.42383h1.25976v-4.126c0-1.17676.15723-2.65137,1.60645-2.65137,1.291,0,1.35449,1.24317,1.35449,2.25391v4.52344h1.25977v-4.73926C170.17432,150.80792,169.70166,149.1839,167.812,149.1839Z" fill="#231f20"/>
    <path d="M175.99072,149.1839a3.06709,3.06709,0,0,0-2.55078,1.32617h-.03125v-1.11035h-1.25976v12.16309h1.25976v-5.46875h.03125a3.06579,3.06579,0,0,0,2.53516,1.30957c2.2207,0,3.55957-1.87305,3.55957-4.09278C179.53467,151.15656,178.16455,149.1839,175.99072,149.1839Zm-.21972,6.99316c-1.5752,0-2.42481-1.4414-2.42481-2.96582a2.59158,2.59158,0,0,1,2.40918-2.80078,2.55205,2.55205,0,0,1,2.48731,2.81738C178.24268,154.80206,177.39307,156.17706,175.771,156.17706Z" fill="#231f20"/>
    <rect x="181.03076" y="143.51691" width="1.25977" height="13.6709" fill="#231f20"/>
    <path d="M187.61084,149.1839a4.1161,4.1161,0,1,0,3.88965,4.12695A3.99274,3.99274,0,0,0,187.61084,149.1839Zm0,6.99316a2.89551,2.89551,0,1,1,2.62988-2.88281A2.69864,2.69864,0,0,1,187.61084,156.17706Z" fill="#231f20"/>
    <polygon points="195.569 154.984 192.955 149.4 191.491 149.4 194.892 156.459 192.499 161.563 193.931 161.563 199.395 149.4 197.962 149.4 195.569 154.984" fill="#231f20"/>
    <path d="M203.03955,149.1839c-2.31543,0-3.59082,1.90625-3.59082,4.209,0,2.23731,1.417,4.01075,3.62207,4.01075a3.71843,3.71843,0,0,0,3.417-2.1875l-1.07031-.64649a2.53841,2.53841,0,0,1-2.252,1.60742,2.46531,2.46531,0,0,1-2.42481-2.60156h5.81055C206.67725,151.25519,205.41748,149.1839,203.03955,149.1839Zm-2.23633,3.26465a2.38024,2.38024,0,0,1,2.252-2.03809,2.30161,2.30161,0,0,1,2.17285,2.03809Z" fill="#231f20"/>
    <path d="M209.27,150.24445h-.03125v-.84473H207.979v7.78809h1.25977v-3.89356c0-1.01172.0625-2.88379,1.44922-2.88379a1.20432,1.20432,0,0,1,.75586.34766l.59765-1.209a2.14519,2.14519,0,0,0-1.13379-.36523C210.08936,149.1839,209.71143,149.63116,209.27,150.24445Z" fill="#231f20"/>
    <path d="M221.86768,150.0296l-.78711-.36523c-.80274-.38086-1.8584-.87793-1.8584-1.95508a1.92786,1.92786,0,0,1,1.96875-1.93848,2.17364,2.17364,0,0,1,2.04687,1.3584l1.05567-.71191a3.38855,3.38855,0,0,0-3.07129-1.93946,3.18329,3.18329,0,0,0-3.32227,3.18164c0,1.79,1.19629,2.53516,2.582,3.19825l.72461.332c1.10254.53027,2.18848,1.02734,2.18848,2.48535a2.44332,2.44332,0,0,1-2.44043,2.43555,2.501,2.501,0,0,1-2.37793-2.31934l-1.291.38086a3.72512,3.72512,0,0,0,3.7002,3.23145,3.7627,3.7627,0,0,0,3.73242-3.86133C224.71826,151.554,223.41162,150.74152,221.86768,150.0296Z" fill="#231f20"/>
    <path d="M229.43408,149.1839c-2.31543,0-3.59082,1.90625-3.59082,4.209,0,2.23731,1.417,4.01075,3.62207,4.01075a3.71843,3.71843,0,0,0,3.417-2.1875l-1.07031-.64649a2.53841,2.53841,0,0,1-2.25195,1.60742,2.46531,2.46531,0,0,1-2.42481-2.60156h5.81055C233.07178,151.25519,231.812,149.1839,229.43408,149.1839Zm-2.23633,3.26465a2.38024,2.38024,0,0,1,2.252-2.03809,2.3016,2.3016,0,0,1,2.17285,2.03809Z" fill="#231f20"/>
    <path d="M235.66455,150.24445h-.03125v-.84473h-1.25976v7.78809h1.25976v-3.89356c0-1.01172.0625-2.88379,1.44922-2.88379a1.2043,1.2043,0,0,1,.75586.34766l.59766-1.209a2.14524,2.14524,0,0,0-1.13379-.36523C236.48389,149.1839,236.106,149.63116,235.66455,150.24445Z" fill="#231f20"/>
    <polygon points="242.469 154.636 240.264 149.4 238.832 149.4 242.469 157.701 246.091 149.4 244.674 149.4 242.469 154.636" fill="#231f20"/>
    <path d="M247.8042,145.52179a.9324.9324,0,0,0-.89746.94434.89862.89862,0,1,0,.89746-.94434Z" fill="#231f20"/>
    <rect x="247.17432" y="149.39972" width="1.25977" height="7.78809" fill="#231f20"/>
    <path d="M253.771,156.17706a2.67611,2.67611,0,0,1-2.55079-2.88281,2.72635,2.72635,0,0,1,2.61426-2.88379A2.81711,2.81711,0,0,1,256.1333,151.72h.03125V149.9632a3.85524,3.85524,0,0,0-2.2832-.7793,4.00821,4.00821,0,0,0-3.95215,4.11035,3.91924,3.91924,0,0,0,6.28223,3.31348v-1.77246h-.03125A2.83908,2.83908,0,0,1,253.771,156.17706Z" fill="#231f20"/>
    <path d="M260.88135,149.1839c-2.31543,0-3.59082,1.90625-3.59082,4.209,0,2.23731,1.417,4.01075,3.62207,4.01075a3.71844,3.71844,0,0,0,3.417-2.1875l-1.07031-.64649a2.53841,2.53841,0,0,1-2.252,1.60742,2.4653,2.4653,0,0,1-2.4248-2.60156h5.81055C264.519,151.25519,263.25928,149.1839,260.88135,149.1839Zm-2.23633,3.26465a2.38024,2.38024,0,0,1,2.252-2.03809,2.3016,2.3016,0,0,1,2.17285,2.03809Z" fill="#231f20"/>
    <path d="M268.68506,152.63116c-.86621-.38085-1.7168-.64648-1.7168-1.35937a.91559.91559,0,0,1,.91309-.86133,1.18912,1.18912,0,0,1,1.00781.7959l1.05566-.58008a2.24275,2.24275,0,0,0-1.96875-1.44238,2.16017,2.16017,0,0,0-2.2041,2.2041c0,2.45313,3.33789,1.85645,3.33789,3.5957a1.15294,1.15294,0,0,1-1.19726,1.19336c-.834,0-1.19629-.51367-1.51172-1.24316l-1.11719.49805a2.67559,2.67559,0,0,0,2.61328,1.97168,2.48108,2.48108,0,0,0,2.50391-2.53516A2.34521,2.34521,0,0,0,268.68506,152.63116Z" fill="#231f20"/>
    <path d="M145.42255,150.33954c-.21015,0-.92359.06305-2.68531.06305-1.72088,0-2.7276-.06305-2.97955-.06305-.08374,0-.12549.04193-.12549.168v.48236c0,.105.04175.1889.16785.1889h.881c.54541,0,.75519.20984.75519.965v1.53168c0,1.09088-.042,1.67822-.50366,1.93011a6.0463,6.0463,0,0,1-2.85309.35162c-2.08576,0-3.58344-1.30859-5.30646-2.70269-.26153-.2096-.40832-.10938-.47479.00341s-.34125.79664-.41388.9759a.49763.49763,0,0,0,.12146.60589,8.19686,8.19686,0,0,0,5.90582,2.27625,12.14342,12.14342,0,0,0,5.95832-1.38452c.20959-.08393.33569-.16779.33569-.33564s-.08411-.37756-.08411-.67144V151.955c0-.6084.25189-.77613.62952-.77613h.71319c.126,0,.16785-.04205.16785-.16784v-.52448C145.63214,150.38147,145.59033,150.33954,145.42255,150.33954Z" fill="#231f20"/>
    <path d="M138.628,142.54877a4.73767,4.73767,0,0,1,3.48316,1.46838,8.32684,8.32684,0,0,1,1.678,2.89551c.042.12579.08429.1889.20978.168l.50366-.08411c.08411-.02106.08411-.12579.08411-.29352l-.21014-4.19623c0-.16778-.04181-.29382-.25159-.29382-.126,0-.189.063-.29382.20978l-.25159.33588c-.126.16784-.25153.23053-.50366.04168a7.73087,7.73087,0,0,0-4.28009-1.13275c-3.87384,0-6.65375.83045-8.44727,6.42005l-1.71686,4.4978-2.61718-5.874s-1.09589-2.61553-1.5738-2.61553c-.47833,0-1.59954,2.44134-1.59954,2.44134s-2.83258,6.06165-3.00019,6.50226l-.042-.02088-3.26324-9.69244a.50312.50312,0,0,1,.50341-.73468h.39844c.14722,0,.189-.06256.189-.16766v-.52442c0-.105-.04181-.14666-.16785-.14666-.15729,0-1.15942.03527-2.05444.053-.09949.002-.24945.30494-.405.70722-.64063,1.43127-3.69965,8.10516-3.87055,8.6369h-.08392l-3.79742-8.838c-.08374-.252-.23066-.46179-.52454-.46179-.29358,0-.46149.336-.54511.54577-.41967,1.04877-4.69989,12.79755-4.90985,13.25928a1.03563,1.03563,0,0,1-.92291.69214h-.44061c-.12567,0-.14667.063-.14667.16821v.56647c0,.06244.04218.10461.12579.10461.16809,0,.79725-.06305,1.97242-.06305,1.30059,0,2.01385.06305,2.22351.06305.12579,0,.1679-.06305.1679-.16766v-.50342c0-.10522-.02093-.16821-.14691-.16821h-.5664c-.50354,0-.7132-.29352-.7132-.58734,0-1.15387,2.39154-8.07715,3.02087-9.92347h.08393l3.02118,7.49531s.68768,1.63952,1.12091,1.63952c.658,0,1.64862-2.31079,1.64862-2.31079s2.83209-6.32037,2.99994-6.761l.04187.021,3.26336,9.69263a.50283.50283,0,0,1-.50354.73413h-.39849c-.14692,0-.18879.063-.18879.16821v.52429c0,.10462.04187.14679.16791.14679.16962,0,.70642-.02,1.731-.03576a.55933.55933,0,0,0,.3985-.17933.67207.67207,0,0,0,.21423-.28131c.08417-.23083,3.79779-8.05493,3.98633-8.64239h.08411l3.79718,8.57934c.08367.252.23046.46174.52429.46174,1.12463,0,1.49768-.445,1.94629-1.72291.2323-.66217,1.59936-4.51477,2.83984-7.78649C134.09692,143.68561,136.35663,142.54877,138.628,142.54877Z" fill="#231f20"/>
  </g>
</svg>
