<svg xmlns="http://www.w3.org/2000/svg" viewBox="0 0 520 140"><path d="M295.13 113.36c-34.12 13.94-24.48-37.13-24-61h21v-23h-21a204 204 0 0 1 1-28c-3.86-.26-16.32-.1-20 0-2.41 17.59-8.58 31.42-27 33v18c3.7.64 10-1.29 12 1 3.49 27-6.75 57.26 5 74 9.77 13.91 32.92 12.08 54 9-.33-7.67-1.56-14.43-1-23zM204.13 33.36c-11.18-7.4-27.9-8.31-42-7-27.71 2.58-43.62 19.92-47 46-6-.65-14.65 1.32-19-1 9.86-50.7-50.74-50.82-85-39 1.37 6.63 1 15 1 23 15.45-8.3 55.6-16.74 50 16-27.13 1.25-53.13 2.52-59 23-14.94 52.09 47.31 45.73 93 42-.64-14.08-2.34-32.25 0-46h20c-3.3 48.07 53.39 55.63 95 43 0-8-1.69-14.31-1-23-19.22 10.1-60.74 12.25-58-19 22.7-.21 48.32-.1 59-14 9.74-12.68 6.8-34.86-7-44zm-142 84c-8.58 1.91-19.78 1.38-25-3-8.94-17.46 8.49-28.87 25-24zm89-45c-4.82-20.09 21.13-35.81 31-22 10.56 14.77-12.13 28.97-31 22zM398.13 34.36c-20.85-16.39-55.73-3.51-88-5 1.53 33.92 1.62 73.1 0 107h36c-2.24-28.56-1.86-57.45-1-87 47.93-19.3 25.81 58.78 30 87h35c-7.13-34.73 10.87-84.03-12-102zM501.13 30.36c-16.88-7.94-49-4.28-68 2 1.7 6.3.78 15.22 1 23 15.55-8.32 55.44-16.69 50 16-27.4.46-55.6 4.4-60 24-11.57 51.6 51.77 45 95 40-9.31-35.64 13.52-90.18-18-105zm-17 87c-8.58 1.91-19.78 1.38-25-3-8.94-17.46 8.49-28.87 25-24z" fill="#7d3d9b"/></svg>