<svg xmlns="http://www.w3.org/2000/svg" viewBox="0 0 766.56 648.48"><title>color</title><path d="M373,0c4,.61,8,1.12,11.94,1.84,26.61,4.84,47.3,18.84,62.68,40.88C459.89,60.37,467,80.2,471.34,101.08c5.61,26.94,6.71,54.18,4.92,81.59-1.45,22.26-5.15,44.07-13.05,65-7.15,19-17.32,35.95-32.77,49.41a93.15,93.15,0,0,1-48.77,22.21c-20.48,3-40.49,1.39-59.73-6.63-21.46-8.94-36.95-24.48-48.32-44.41-9.11-16-14.65-33.23-18.25-51.17a289.64,289.64,0,0,1-5.17-61.77c.39-25.17,3.16-50,10.92-74.13C267,62.91,275.45,46,288.48,31.7,303.72,14.94,322.64,5,345,1.4c2.77-.44,5.54-.93,8.31-1.4Zm57.68,160.54a266,266,0,0,0-3-42.29c-2.32-14.64-6-28.92-12.87-42.16-9.58-18.38-23.36-31.33-45-33.54-17.59-1.8-32.87,3.38-45.2,16.25-9.9,10.33-15.7,23-19.81,36.49-5.54,18.18-7.59,36.89-8.09,55.79-.57,22.2.54,44.27,5.72,66,3.32,13.92,8.35,27.09,16.74,38.88,21.08,29.6,63.4,29.92,85,4.95,9.18-10.63,14.83-23,18.7-36.34C428.89,203.64,430.55,182.18,430.64,160.54Z" fill="#e22927"/><path d="M662.88,0c2.61.43,5.22.87,7.84,1.28C701.56,6,724.43,22.55,740.57,48.85c10.27,16.74,16.32,35.09,20.2,54.21,4.3,21.25,5.66,42.76,5.2,64.39-.54,25-3.48,49.67-11.4,73.56-5.31,16-12.67,31-23.48,44.11-14.51,17.57-32.87,28.88-55.29,33.27-20.8,4.08-41.35,3.07-61.34-4.32-22.48-8.32-38.88-23.79-50.91-44.19-10.09-17.11-16-35.76-19.66-55.16A286.64,286.64,0,0,1,539.16,158c.26-26.46,3-52.59,11.33-77.89,6-18.09,14.44-34.77,27.45-48.88C593.12,14.74,611.87,5,633.93,1.4,636.7,1,639.47.47,642.24,0Zm56.74,160.43c0-17.62-1.2-35.13-4.91-52.4-3.19-14.85-8.15-29-16.77-41.69a54.41,54.41,0,0,0-89.26-1.81c-7.54,10.36-12.46,21.86-15.87,34.1-4.91,17.58-6.74,35.6-7.15,53.78-.47,21,.61,41.87,5.24,62.43,3.21,14.27,8.15,27.8,16.48,40,21.27,31.23,66.39,32,88.43,2.81,8.34-11,13.52-23.45,17-36.68C718.05,201.15,719.59,180.87,719.62,160.43Z" fill="#e22927"/><path d="M0,272.16a73.14,73.14,0,0,1,5.07-6.25c5-5,10.16-10,15.43-14.74,4.83-4.38,7.65-3.92,12.22.7,17,17.21,37.16,28.25,61.8,28.74,26,.53,48.47-14.91,58.05-39.1,7.27-18.37,7.32-36.7-1.88-54.45-7.74-14.94-20.63-23.52-36.75-27.1a103.07,103.07,0,0,0-20.88-2.33c-22.24-.29-44.48-.11-66.72-.11-10.54,0-16.65-6.17-16.66-16.84q0-24.84,0-49.68c0-25.36.07-50.72-.06-76.08,0-5.71,3.1-10.48,10.48-10.45,46.31.15,92.63.08,139,.08,6.28,0,9.78,3.45,9.82,9.78,0,6.72,0,13.44,0,20.16,0,6.55-3.59,10.07-10.12,10.07q-52.32,0-104.63-.06c-2.59,0-3.06.76-3.05,3.16q.14,33.24,0,66.47c0,2.07.45,2.66,2.6,2.64,15.6-.1,31.2-.22,46.8,0,16.08.22,31.81,2.69,46.77,8.94,29,12.12,46.39,33.9,52.83,64.41C204.74,212.17,203.83,234,195,255c-13.37,31.84-37,52.71-70.22,61.41-35.07,9.19-68.61,4.34-99.46-15.45A89.33,89.33,0,0,1,3.89,281.62C2.46,279.85,1.29,277.88,0,276Z" fill="#e22a27"/><path d="M482.88,648.48c-3.79-1.14-7.68-2-11.34-3.49-6-2.38-10.72-6.55-14.8-11.5-.9-1.09-.72-1.7.24-2.55,2.27-2,4.51-4.07,6.66-6.22,1-1,1.55-1.05,2.56.14a33.24,33.24,0,0,0,35.28,9.82c8.85-2.94,14.14-9.75,14.55-19,.19-4.15,0-8.31,0-12.69a3.92,3.92,0,0,0-.73.58c-11.72,16.71-37.73,18.07-51.9.28C449.68,586.54,452,559.05,468.52,545a33,33,0,0,1,47.06,4.44c.68.85,1.35,1.72,2.51,3.2,0-4.42.1-8.12,0-11.82-.07-1.81.47-2.34,2.28-2.26a97.67,97.67,0,0,0,9.83,0c2-.1,2.53.48,2.52,2.5-.08,21.84,0,43.67-.1,65.51,0,5.33,0,10.81-1.15,16-3.14,13.54-12.71,20.88-25.6,24.52-1.88.53-3.78,1-5.67,1.49Zm33.29-70.34a38.36,38.36,0,0,1,0-5c.76-5.71-1.91-10-5.53-13.94-8.56-9.31-21.32-10.56-30.26-3-10.65,9-12.48,26.67-3.92,37.78,9.46,12.27,26.71,12.44,36.35.34,2.19-2.75,3.68-5.74,3.36-9.45C516,582.63,516.17,580.38,516.17,578.14Z" fill="#6a6c6f"/><path d="M766.56,444.48c-.23.89-.49,1.77-.7,2.67-3.45,14.17-13.1,22.11-26.71,25-17,3.65-32.47-.46-46-11.34-3.42-2.73-3.46-3.75-1.1-7.43,1.12-1.75,2.13-3.57,3.3-5.28,2.17-3.19,4.11-3.42,7.14-1.1,6.73,5.16,13.94,9.33,22.48,10.63a22.46,22.46,0,0,0,14-2.08c9.48-4.9,11.52-16.09,4.33-24-4.28-4.71-9.89-7.46-15.5-10.21-7.16-3.5-14.61-6.55-21.31-10.77-14.23-9-19.13-25.59-12.3-40.12,5-10.54,13.81-16.11,25-18,14.35-2.47,27.58.79,39.74,8.65,2.92,1.9,3.34,4,1.48,6.88-1.12,1.76-2.29,3.47-3.43,5.21-2.36,3.63-3.9,4-7.69,1.72-5.71-3.42-11.61-6.42-18.28-7.45a22.53,22.53,0,0,0-14.42,2.23,14.6,14.6,0,0,0-4.4,22.51c4.32,5.23,10.34,7.84,16.28,10.65,7.48,3.55,15.09,6.93,22.19,11.15,7.95,4.73,13.46,11.69,15.26,21.11.2,1.05.48,2.09.73,3.13Z" fill="#5a5b5d"/><path d="M296.16,412.56V357.85c0-3.63.86-4.49,4.51-4.49h44.87c16,0,30.37,10.38,35.07,25.3,4.76,15.11-.75,30.85-14.18,40.26a46.2,46.2,0,0,1-7.27,4.14c-1.62.74-1.65,1.32-.87,2.74q10.69,19.68,21.28,39.41a13.78,13.78,0,0,1,1.05,2.15c.76,2.33-.49,4.32-2.92,4.38-4.48.1-9,.18-13.43-.09a4.72,4.72,0,0,1-3.15-2.36q-10.58-20.67-20.86-41.49a3.57,3.57,0,0,0-3.82-2.31c-6.88.11-13.76.1-20.64,0-1.68,0-2.15.46-2.14,2.14.07,13,0,26.08,0,39.11,0,4.18-.86,5-5.1,5h-8.16c-3.33,0-4.28-.94-4.28-4.25ZM314,390.48c0,6.08.06,12.16,0,18.23,0,1.7.47,2.14,2.14,2.13,8.4-.09,16.79,0,25.19-.06a39.51,39.51,0,0,0,6.44-.39c9.66-1.67,17.3-11.28,16.83-21-.48-10-8.53-18.78-18.56-19.27s-20.3-.19-30.45-.31c-1.59,0-1.57.83-1.57,2C314,378,314,384.24,314,390.48Z" fill="#5a5b5d"/><path d="M149.76,412.43V358c0-3.75.88-4.61,4.68-4.61h64.78c3.81,0,4.69.85,4.71,4.61q0,3.48,0,7c0,3.43-1,4.43-4.42,4.43q-24.48,0-48.95,0a5,5,0,0,0-1.9.06c-.55.24-1.3.9-1.3,1.38-.08,10.47,0,20.95-.09,31.42,0,2,1.27,1.43,2.25,1.43q20.5,0,41,0c4.2,0,5,.83,5,5,0,2.24,0,4.48,0,6.72,0,3.34-.9,4.33-4.26,4.35-8.07.05-16.15,0-24.23,0-5.75,0-11.51.08-17.27,0-1.9,0-2.62.32-2.59,2.43q.17,15.72,0,31.43c0,1.94.58,2.38,2.43,2.37,16.4-.07,32.79,0,49.19,0,4.29,0,5.08.78,5.06,5,0,2.4.06,4.8,0,7.19-.08,2.56-1.17,3.64-3.74,3.65q-33.34,0-66.69,0c-2.66,0-3.72-1.23-3.72-4.14Q149.75,440,149.76,412.43Z" fill="#5a5b5d"/><path d="M552.48,412.55V358.08c0-3.87.87-4.72,4.82-4.72h64.54c3.94,0,4.79.85,4.81,4.76,0,2.24,0,4.48,0,6.71,0,3.6-1,4.54-4.58,4.54-16.4,0-32.79.05-49.19-.05-2.23,0-3,.42-2.95,2.83q.24,14.39,0,28.79c0,2.41.7,2.81,2.92,2.79,13.59-.11,27.19-.05,40.78-.05,3.7,0,4.67,1,4.68,4.66q0,3.6,0,7.2c0,3.19-1,4.18-4.14,4.21-6.24.05-12.48,0-18.71,0-7.68,0-15.36.05-23,0-1.76,0-2.5.3-2.48,2.31q.16,15.84,0,31.67c0,1.83.53,2.26,2.3,2.25,16.32-.07,32.63,0,49,0,4.85,0,5.45.63,5.43,5.59,0,2,0,4,0,6,0,3.28-1,4.26-4.35,4.26H559.91c-7.43,0-7.43,0-7.43-7.39Z" fill="#5a5a5d"/><path d="M41.62,473.4A54.33,54.33,0,0,1,6.68,461c-3.7-3-3.73-3.86-1.2-7.8,1.17-1.81,2.23-3.7,3.48-5.45,2-2.8,3.9-3,6.65-.86,6.79,5.2,14.06,9.45,22.68,10.76a22.59,22.59,0,0,0,14-2.09c9.4-4.81,11.69-16.12,4.34-23.72a47.25,47.25,0,0,0-11.54-8.38c-6.36-3.45-13.19-6.05-19.65-9.35-7.07-3.61-13.38-8.31-17.14-15.55-9-17.31-1.55-39.28,20.06-45.16,15.89-4.31,30.67-.89,44.3,8,2.45,1.6,2.8,3.73,1.26,6.2-1.14,1.82-2.35,3.61-3.54,5.41-2.63,3.92-3.93,4.19-8.05,1.73-5.65-3.37-11.5-6.3-18.07-7.32a22.7,22.7,0,0,0-14.43,2.26C20,374.92,19.08,387.84,28.44,395c4.61,3.54,10,6.16,15.38,8.57,8.89,4,17.94,7.68,25.32,14.31,16.69,15,13.28,40.51-6.71,50.73A42.89,42.89,0,0,1,41.62,473.4Z" fill="#5a5b5d"/><path d="M5.18,566.85c0-26,12.56-45.83,31.58-53,16.7-6.32,32.8-4.9,47.38,6.23a36.33,36.33,0,0,1,9.74,11.72c.49.91.88,1.57-.34,2.34-3.64,2.32-7.21,4.76-10.76,7.2-1,.66-1.41.6-1.92-.52-8.63-18.71-37.44-21.08-50.56-3.22C17.51,555,20.08,581.36,36.2,594.77c14.53,12.07,36.61,7.82,45.38-8.81.74-1.41,1.3-1.42,2.5-.7,3.37,2,6.73,4,10.22,5.8,1.87,1,1.82,1.92,1,3.51a37.43,37.43,0,0,1-14.94,15.17C58,622.39,32,618.09,16.15,596.1,8.93,586.09,5.23,574.88,5.18,566.85Z" fill="#6a6b6e"/><path d="M291.64,582.66q-14.26,0-28.54,0c-1.29,0-2.24-.11-2.07,1.83.74,8.68,7.87,17.3,16.6,19.81,9.13,2.63,19.68-.45,24.68-7.81,1.84-2.71,3.35-3,6.08-2a45.86,45.86,0,0,0,7.81,2.24c2.28.45,1.9,1.34,1,2.85a33.12,33.12,0,0,1-13.52,12.87C287.62,621,264,618.87,251.36,602,235,580.05,244,543.2,276.17,537.79c24-4,43.91,10.64,46.73,34.37a78.85,78.85,0,0,1,.09,8.14c0,1.78-.64,2.43-2.56,2.41C310.83,582.6,301.24,582.66,291.64,582.66Zm-8.14-11.4h19.67c4,0,4,0,3-3.84-2.79-10.93-11.9-18.24-22.71-18.2-11.11,0-20.07,7.48-22.62,18.79-.73,3.21-.7,3.25,2.47,3.25Z" fill="#6a6c6f"/><path d="M159.19,603.52A36.25,36.25,0,0,1,146,613.88c-9,3.94-18.16,5-27.44,1.13-13.72-5.71-19-22.23-10.94-34.11,3.92-5.76,9.71-8.93,16.29-10.64,10.16-2.65,20.25-2,30.26.91.84.24,1.67.5,3.19,1-.52-4.27-.6-8.28-1.57-12.06-1.61-6.25-7.32-10.29-14.26-11-9.65-1-18.1,2.27-26,7.39-1.88,1.23-2.49.77-3.23-1-1-2.35-2.26-4.58-3.25-6.93a2,2,0,0,1,.36-1.9c14.44-9.23,29.88-12.69,46.31-6.53,12.27,4.6,17.15,14.7,17.46,27.22.23,9.59.06,19.19,0,28.78,0,2.78.44,5.13,3.75,5.74.37.07.84.89.85,1.36.07,3.76.08,7.52,0,11.27,0,.55-.77,1.52-1.22,1.54-3.25.16-6.57.57-9.74,0-4.55-.73-7-4-7.45-8.76C159.33,606.29,159.3,605.26,159.19,603.52ZM157,587.72c0-6.49,0-6.49-5.89-8-.84-.23-1.69-.45-2.55-.61-7.07-1.35-14.1-1.73-20.89,1.32-5.57,2.5-8.45,6.91-8.15,12.31a13.27,13.27,0,0,0,9.37,11.56c6.12,2,12.12,1,17.66-1.68C152.72,599.52,158.09,595.46,157,587.72Z" fill="#6a6c6e"/><path d="M386.23,553.37a35,35,0,0,1,14.84-12.77,37.72,37.72,0,0,1,19.39-3.3c10.71,1.08,17.09,7.32,19.15,18.59a66.31,66.31,0,0,1,1.08,11.42c.12,15.43,0,30.87.09,46.3,0,1.75-.37,2.35-2.22,2.28-4-.15-8-.15-12,0-1.84.07-2.24-.51-2.23-2.27.05-14.55.07-29.11-.08-43.66a32.13,32.13,0,0,0-1.34-8.47c-2.26-7.73-8-11.14-15.83-9.3-9.13,2.15-15.34,7.88-18.95,16.45a9.38,9.38,0,0,0-.45,3.52c0,13.76-.07,27.51,0,41.26,0,2.05-.56,2.55-2.52,2.47-4.08-.16-8.16-.09-12.24,0-1.35,0-1.78-.38-1.77-1.75q0-36.95,0-73.88c0-1.44.51-1.73,1.81-1.71,3.83.07,7.67.08,11.51,0,1.39,0,1.77.45,1.75,1.78C386.19,544.41,386.23,548.52,386.23,553.37Z" fill="#6a6c6f"/><path d="M707.53,553.57a33.75,33.75,0,0,1,15.73-13.31,38.57,38.57,0,0,1,21.12-2.63c8.33,1.33,14.32,7.47,16.35,17.26A62.52,62.52,0,0,1,762.11,567c.16,15.51,0,31,.11,46.54,0,1.93-.54,2.41-2.39,2.35-3.84-.15-7.68-.16-11.52,0-1.95.08-2.55-.41-2.53-2.45.09-13.36.14-26.71,0-40.07A53,53,0,0,0,744.43,562c-1.9-8-8.12-11.72-16.15-9.76-9.13,2.23-15.28,8-18.83,16.58a8.68,8.68,0,0,0-.47,3.27c0,13.67-.09,27.35,0,41,0,2.41-.68,2.9-2.91,2.79-3.91-.2-7.84-.11-11.75,0-1.34,0-1.76-.32-1.76-1.72q.06-36.95,0-73.89c0-1.37.39-1.76,1.75-1.73,3.84.08,7.68.09,11.51,0,1.45,0,1.7.53,1.68,1.8C707.48,544.53,707.53,548.73,707.53,553.57Z" fill="#696b6e"/><path d="M638,544.36c0,2.08.7,4.58-.22,6.1-.74,1.21-3.47,1.16-5.29,1.74a20.9,20.9,0,0,0-11.59,8.85c-6.3,10-6.79,20.37-1.13,30.68,4.35,7.93,11.44,12.14,20.57,11.47,9.87-.72,16.16-6.61,19.66-15.61a37.24,37.24,0,0,0,1.57-6.49c.23-1.21.63-1.74,2-1.71,4.48.09,9,.08,13.44,0,1.48,0,1.71.54,1.57,1.87-2.08,19.38-14.79,33.08-34,35.66-24.63,3.3-42.88-13.16-45.09-34.92-1.4-13.82,2.6-25.78,12.95-35.26,6.69-6.13,14.84-8.89,23.79-9.56,1.3-.09,1.93.2,1.84,1.66-.1,1.83,0,3.68,0,5.52Z" fill="#6a6b6e"/><path d="M555.75,577.11c0-7.91-.06-15.83,0-23.74,0-1.82-.53-2.39-2.31-2.27-2.07.14-4.16,0-6.23.06-1.4.06-2-.27-1.94-1.83.13-3,.14-5.92,0-8.87-.08-1.69.59-2,2.07-1.93,2,.11,4-.12,6,.07s2.46-.68,2.43-2.57c-.11-6.88,0-13.76-.09-20.63,0-1.95.58-2.38,2.4-2.32,4.08.13,8.16.11,12.23,0,1.5,0,1.88.4,1.86,1.87-.07,7,.08,14.08-.09,21.11-.06,2.23.66,2.62,2.66,2.54,4.16-.15,8.32,0,12.48-.07,1.33,0,1.8.33,1.75,1.72-.1,3-.12,6.08,0,9.11.07,1.61-.6,1.82-2,1.8-4.24-.07-8.48,0-12.71-.06-1.58,0-2.22.26-2.21,2,.08,13.67,0,27.35,0,41,0,4.82,3,8,7.78,7.68a40.12,40.12,0,0,0,9.68-2.3c1.5-.49,1.88-.28,2.23,1.12.81,3.25,1.8,6.45,2.59,9.71.14.56-.16,1.69-.57,1.87-8.07,3.55-16.35,6.1-25.29,4.12-7.9-1.76-12.58-7.42-12.72-15.51-.15-7.91,0-15.83,0-23.75Z" fill="#696b6d"/><path d="M473.05,412.55v53.73c0,4.82-.68,5.48-5.58,5.48-2.8,0-5.6.05-8.39,0-2.49-.05-3.65-1.21-3.8-3.67,0-.55,0-1.12,0-1.68V358.47c0-4.31.82-5.12,5.23-5.11,2.88,0,5.75,0,8.63,0,2.65,0,3.75,1.1,3.91,3.77,0,.64,0,1.28,0,1.92Z" fill="#595a5c"/><path d="M208.14,554.39c2.73-3.29,5-6.46,7.73-9.23a23.47,23.47,0,0,1,18.55-7.42c1.51.07,2.13.4,2.08,2q-.15,5.52,0,11c.05,1.61-.53,2-2.06,2.06a30.73,30.73,0,0,0-18.13,6.63,28.89,28.89,0,0,0-2.93,2.82,14.73,14.73,0,0,0-4.2,11c.28,13.43.07,26.87.14,40.31,0,1.73-.32,2.35-2.19,2.28-4.16-.16-8.32-.1-12.48,0-1.39,0-1.72-.42-1.72-1.76q.06-37,0-73.9c0-1.17.21-1.72,1.56-1.69,4,.08,8,.09,12,0,1.49,0,1.69.61,1.68,1.86C208.11,545,208.14,549.6,208.14,554.39Z" fill="#696b6e"/><path d="M352.32,577.26c0,12.16,0,24.32,0,36.48,0,1.63-.34,2.21-2.08,2.15-4-.14-8-.17-12,0-2,.08-2.33-.57-2.33-2.39q.09-35.16,0-70.32c0-4.62,0-4.62,4.56-4.62,3.28,0,6.56.09,9.84,0,1.63-.07,2,.51,2,2C352.3,552.79,352.32,565,352.32,577.26Z" fill="#686a6d"/><path d="M670,576c-2.48,0-5.53.88-7.25-.26-1.47-1-1.35-4.28-2-6.52-2.77-8.94-8.35-15.11-17.63-17.48-1-.27-1.41-.58-1.38-1.69.08-3.68.1-7.36,0-11,0-1.48.47-1.61,1.79-1.51,16.32,1.15,30.84,14.16,34.19,30.83.49,2.4.59,4.89.87,7.34l-7.09.33c-.48,0-1,0-1.44,0Z" fill="#e22b27"/><path d="M352.32,517c0,2.4-.05,4.79,0,7.19,0,1.25-.18,1.87-1.66,1.83-4.39-.09-8.78-.06-13.18,0-1.1,0-1.55-.28-1.53-1.46,0-5.11,0-10.22.08-15.33A1.9,1.9,0,0,1,337.4,508c4.46-.1,8.94,0,13.41-.09,1.37,0,1.56.6,1.53,1.74C352.28,512.08,352.32,514.56,352.32,517Z" fill="#6a6c6f"/></svg>