<svg xmlns="http://www.w3.org/2000/svg" xmlns:xlink="http://www.w3.org/1999/xlink" viewBox="0 0 360 87.84"><defs><linearGradient id="a" x1="9.35" y1="32.11" x2="64.17" y2="32.11" gradientUnits="userSpaceOnUse"><stop offset="0" stop-color="#c1e8fb"/><stop offset="0.1" stop-color="#b8e6fb"/><stop offset="0.27" stop-color="#a0e1f9"/><stop offset="0.49" stop-color="#78d8f8"/><stop offset="0.74" stop-color="#41cbf5"/><stop offset="1" stop-color="#00bdf2"/></linearGradient><linearGradient id="b" y1="32.12" x2="39.43" y2="32.12" gradientUnits="userSpaceOnUse"><stop offset="0" stop-color="#007dc5"/><stop offset="0.01" stop-color="#007dc5"/><stop offset="0.04" stop-color="#027ac3"/><stop offset="0.46" stop-color="#1a52a8"/><stop offset="0.79" stop-color="#293a98"/><stop offset="1" stop-color="#2e3192"/></linearGradient></defs><title>careington-horiz-gradient</title><path d="M91,69.92a19.86,19.86,0,0,0-3.31.26V83.62h1.72V78.17a6,6,0,0,0,1.39.12,5.45,5.45,0,0,0,4.08-1.49,4,4,0,0,0,1-2.9,3.68,3.68,0,0,0-1.18-2.85A5.37,5.37,0,0,0,91,69.92Zm-.16,7a5.8,5.8,0,0,1-1.43-.14V71.45A7.26,7.26,0,0,1,91,71.31c1.9,0,3.15.87,3.15,2.67S92.88,76.88,90.8,76.88Z" fill="#0067b1"/><path d="M99.4,75.77h-.08l-.06-1.92H97.74c.06.91.08,1.9.08,3.05v6.72h1.72V78.41a5.19,5.19,0,0,1,.08-.83A2.46,2.46,0,0,1,102,75.31a2.61,2.61,0,0,1,.59.06V73.69a1.88,1.88,0,0,0-.49-.06A2.9,2.9,0,0,0,99.4,75.77Z" fill="#0067b1"/><path d="M108.16,73.63c-2.66,0-4.76,1.92-4.76,5.19,0,3.09,2,5,4.6,5,2.32,0,4.78-1.57,4.78-5.18C112.78,75.67,110.91,73.63,108.16,73.63Zm-.08,8.88c-1.7,0-2.91-1.62-2.91-3.75,0-1.86.89-3.8,3-3.8s2.87,2.1,2.87,3.76C111,80.91,109.75,82.51,108.08,82.51Z" fill="#0067b1"/><path d="M125.52,73.63a3.2,3.2,0,0,0-2.12.69,4,4,0,0,0-1.07,1.27h0a2.85,2.85,0,0,0-2.72-2,3.31,3.31,0,0,0-3,1.8h-.06l-.08-1.58H114.9c.06.81.08,1.64.08,2.65v7.12h1.7V77.73a2.44,2.44,0,0,1,.14-.87A2.39,2.39,0,0,1,119,75.09c1.33,0,2,1.13,2,2.68v5.85h1.7v-6a3.26,3.26,0,0,1,.14-.89,2.27,2.27,0,0,1,2.06-1.61c1.41,0,2.09,1.13,2.09,3v5.53h1.7V77.87C128.67,74.48,126.79,73.63,125.52,73.63Z" fill="#0067b1"/><path d="M135.56,73.63c-2.65,0-4.75,1.92-4.75,5.19,0,3.09,2,5,4.59,5,2.32,0,4.78-1.57,4.78-5.18C140.18,75.67,138.32,73.63,135.56,73.63Zm-.08,8.88c-1.7,0-2.91-1.62-2.91-3.75,0-1.86.89-3.8,3-3.8s2.88,2.1,2.88,3.76C138.4,80.91,137.15,82.51,135.48,82.51Z" fill="#0067b1"/><path d="M144.48,71.52l-1.7.54v1.79h-1.49V75.2h1.49v5.33a3.63,3.63,0,0,0,.67,2.54,2.38,2.38,0,0,0,1.88.77,4.18,4.18,0,0,0,1.55-.26l-.08-1.33a3.6,3.6,0,0,1-1,.12c-1,0-1.31-.69-1.31-1.9V75.2H147V73.85h-2.49Z" fill="#0067b1"/><path d="M149.81,70a1.07,1.07,0,0,0-1.09,1.11A1.08,1.08,0,1,0,149.81,70Z" fill="#0067b1"/><rect x="148.94" y="73.85" width="1.74" height="9.76" fill="#0067b1"/><path d="M158.35,73.63a3.5,3.5,0,0,0-3.17,1.84h0l-.1-1.62h-1.55c.06.81.08,1.64.08,2.65v7.12h1.75V77.75a2.34,2.34,0,0,1,.12-.83,2.48,2.48,0,0,1,2.33-1.82c1.65,0,2.22,1.32,2.22,2.89v5.63h1.75V77.79C161.74,74.44,159.68,73.63,158.35,73.63Z" fill="#0067b1"/><path d="M171.23,75.33h0a3.19,3.19,0,0,0-3-1.7c-2.2,0-4.32,1.88-4.32,5.19,0,2.7,1.7,4.76,4.08,4.76a3.4,3.4,0,0,0,3-1.64h0V83c0,2.46-1.31,3.41-3.09,3.41a5.34,5.34,0,0,1-2.81-.76L164.71,87a6.14,6.14,0,0,0,3.19.81,5,5,0,0,0,3.49-1.18c.93-.84,1.37-2.21,1.37-4.45V76.54c0-1.2,0-2,.07-2.69h-1.52Zm-.2,4.13a3.08,3.08,0,0,1-.14,1,2.56,2.56,0,0,1-2.42,1.82c-1.88,0-2.83-1.59-2.83-3.51,0-2.27,1.19-3.7,2.85-3.7A2.6,2.6,0,0,1,171,77.71Z" fill="#0067b1"/><polygon points="188.09 75.71 181.63 75.71 181.63 70.02 179.91 70.02 179.91 83.61 181.63 83.61 181.63 77.24 188.09 77.24 188.09 83.61 189.83 83.61 189.83 70.02 188.09 70.02 188.09 75.71" fill="#0067b1"/><path d="M196.57,73.63c-2.79,0-4.5,2.32-4.5,5.27s1.77,4.94,4.72,4.94a7.68,7.68,0,0,0,3.19-.62l-.3-1.28a6.07,6.07,0,0,1-2.65.51,3.1,3.1,0,0,1-3.29-3.39h6.74c0-.18.05-.47.05-.83C200.53,76.43,199.7,73.63,196.57,73.63Zm-2.81,4.16c.13-1.23.91-2.89,2.67-2.89,2,0,2.44,1.75,2.42,2.89Z" fill="#0067b1"/><path d="M209.43,77.62c0-2-.71-4-3.65-4a5.86,5.86,0,0,0-3.15.87l.4,1.17a4.67,4.67,0,0,1,2.5-.73,2,2,0,0,1,2.18,2.26v.2c-3.7,0-5.77,1.27-5.77,3.63a2.75,2.75,0,0,0,2.93,2.81,3.56,3.56,0,0,0,2.94-1.45h.06l.13,1.23h1.59a14,14,0,0,1-.16-2.34Zm-1.68,2.71a1.84,1.84,0,0,1-.1.56,2.39,2.39,0,0,1-2.32,1.64,1.56,1.56,0,0,1-1.64-1.69c0-1.9,2.15-2.25,4.06-2.21Z" fill="#0067b1"/><rect x="212.25" y="69.29" width="1.74" height="14.32" fill="#0067b1"/><path d="M219,71.52l-1.7.54v1.79h-1.49V75.2h1.49v5.33a3.68,3.68,0,0,0,.67,2.54,2.38,2.38,0,0,0,1.88.77,4.18,4.18,0,0,0,1.55-.26l-.08-1.33a3.6,3.6,0,0,1-1,.12c-1,0-1.31-.69-1.31-1.9V75.2h2.5V73.85H219Z" fill="#0067b1"/><path d="M228.3,73.63a3.49,3.49,0,0,0-1.79.51,3.26,3.26,0,0,0-1.25,1.25h0v-6.1h-1.74V83.62h1.74V77.73a2.18,2.18,0,0,1,.12-.85,2.52,2.52,0,0,1,2.34-1.78c1.64,0,2.22,1.34,2.22,2.91v5.61h1.74V77.81C231.64,74.44,229.58,73.63,228.3,73.63Z" fill="#0067b1"/><path d="M245.41,77.62c0-2-.71-4-3.64-4a5.87,5.87,0,0,0-3.16.87l.4,1.17a4.7,4.7,0,0,1,2.5-.73,2,2,0,0,1,2.18,2.26v.2c-3.71,0-5.77,1.27-5.77,3.63a2.75,2.75,0,0,0,2.93,2.81,3.54,3.54,0,0,0,2.94-1.45h.06l.13,1.23h1.59a14,14,0,0,1-.16-2.34Zm-1.68,2.71a1.84,1.84,0,0,1-.1.56,2.39,2.39,0,0,1-2.32,1.64,1.56,1.56,0,0,1-1.64-1.69c0-1.9,2.16-2.25,4.06-2.21Z" fill="#0067b1"/><path d="M253,73.63a3.52,3.52,0,0,0-3.17,1.84h0l-.1-1.62h-1.54c0,.81.07,1.64.07,2.65v7.12H250V77.75a2.59,2.59,0,0,1,.12-.83,2.49,2.49,0,0,1,2.34-1.82c1.64,0,2.22,1.32,2.22,2.89v5.63h1.74V77.79C256.39,74.44,254.33,73.63,253,73.63Z" fill="#0067b1"/><path d="M267.51,69.29h-1.75v5.83h0a3.19,3.19,0,0,0-2.89-1.49c-2.34,0-4.32,2-4.3,5.25,0,3,1.78,5,4.1,5a3.53,3.53,0,0,0,3.27-1.92h0l.08,1.7h1.56c-.05-.67-.07-1.66-.07-2.53Zm-1.75,10.23a3.14,3.14,0,0,1-.08.77,2.62,2.62,0,0,1-2.55,2.12c-1.89,0-2.84-1.64-2.84-3.61,0-2.16,1.07-3.78,2.88-3.78a2.57,2.57,0,0,1,2.51,2.06,3.13,3.13,0,0,1,.08.75Z" fill="#0067b1"/><path d="M285.52,76.88c-.42,1.7-.8,3.21-1.07,4.7h0c-.2-1.43-.56-3-.93-4.66L281.85,70h-1.8l-1.78,6.86c-.46,1.75-.88,3.37-1.09,4.72h0c-.24-1.31-.6-3-1-4.7L274.56,70h-1.82l3.38,13.6h1.81l1.9-7.08c.49-1.76.79-3.09,1-4.44h0a44,44,0,0,0,.87,4.44l1.69,7.08h1.8L289,70h-1.76Z" fill="#0067b1"/><path d="M293.8,73.63c-2.79,0-4.5,2.32-4.5,5.27s1.76,4.94,4.72,4.94a7.64,7.64,0,0,0,3.19-.62l-.3-1.28a6.07,6.07,0,0,1-2.65.51,3.11,3.11,0,0,1-3.3-3.39h6.74a6.84,6.84,0,0,0,.06-.83C297.76,76.43,296.93,73.63,293.8,73.63ZM291,77.79c.14-1.23.91-2.89,2.67-2.89,2,0,2.44,1.75,2.42,2.89Z" fill="#0067b1"/><rect x="299.92" y="69.29" width="1.74" height="14.32" fill="#0067b1"/><rect x="304.6" y="69.29" width="1.74" height="14.32" fill="#0067b1"/><rect x="308.42" y="77.51" width="4.89" height="1.31" fill="#0067b1"/><path d="M321.08,76.33v0a3.19,3.19,0,0,0,2.26-3,2.84,2.84,0,0,0-1.11-2.4,5.41,5.41,0,0,0-3.66-1,16.71,16.71,0,0,0-3.16.28V83.58a20.11,20.11,0,0,0,2.68.16c2.18,0,3.69-.41,4.62-1.27a3.73,3.73,0,0,0,1.13-2.73A3.49,3.49,0,0,0,321.08,76.33Zm-3.94-4.94a7.34,7.34,0,0,1,1.53-.12c1.74,0,2.93.63,2.93,2.22,0,1.31-1.07,2.28-2.89,2.28h-1.57Zm1.45,11a9.16,9.16,0,0,1-1.45-.08V77.1h1.43c1.88,0,3.44.77,3.44,2.63S320.38,82.37,318.59,82.37Z" fill="#0067b1"/><path d="M330,73.63c-2.79,0-4.5,2.32-4.5,5.27s1.76,4.94,4.72,4.94a7.68,7.68,0,0,0,3.19-.62l-.3-1.28a6.07,6.07,0,0,1-2.65.51,3.1,3.1,0,0,1-3.29-3.39h6.73a6.44,6.44,0,0,0,.07-.83C334,76.43,333.11,73.63,330,73.63Zm-2.81,4.16c.14-1.23.91-2.89,2.67-2.89,2,0,2.44,1.75,2.42,2.89Z" fill="#0067b1"/><rect x="336.1" y="73.85" width="1.75" height="9.76" fill="#0067b1"/><path d="M337,70a1.07,1.07,0,0,0-1.08,1.11,1,1,0,0,0,1.05,1.09,1,1,0,0,0,1.1-1.09A1,1,0,0,0,337,70Z" fill="#0067b1"/><path d="M345.52,73.63a3.5,3.5,0,0,0-3.17,1.84h0l-.1-1.62h-1.55c.06.81.08,1.64.08,2.65v7.12h1.74V77.75a2.59,2.59,0,0,1,.12-.83,2.49,2.49,0,0,1,2.34-1.82c1.65,0,2.22,1.32,2.22,2.89v5.63h1.74V77.79C348.9,74.44,346.84,73.63,345.52,73.63Z" fill="#0067b1"/><path d="M358.47,73.85l-.07,1.48h0a3.16,3.16,0,0,0-3-1.7c-2.19,0-4.32,1.88-4.32,5.19,0,2.7,1.71,4.76,4.09,4.76a3.42,3.42,0,0,0,3.05-1.64h0V83c0,2.46-1.31,3.41-3.09,3.41a5.38,5.38,0,0,1-2.82-.76L351.87,87a6.2,6.2,0,0,0,3.2.81,5,5,0,0,0,3.48-1.18c.93-.84,1.37-2.21,1.37-4.45V76.54c0-1.2,0-2,.08-2.69Zm-.27,5.61a3.08,3.08,0,0,1-.14,1,2.56,2.56,0,0,1-2.42,1.82c-1.88,0-2.84-1.59-2.84-3.51,0-2.27,1.2-3.7,2.86-3.7a2.6,2.6,0,0,1,2.54,2.69Z" fill="#0067b1"/><path d="M106.38,51a26.53,26.53,0,0,0,9.42-1.7v-7a27.2,27.2,0,0,1-9.54,2.38c-7.51,0-13-6.07-13-14.45,0-6,2.19-10.49,6.3-12.82a14.65,14.65,0,0,1,6.88-1.81,27.44,27.44,0,0,1,9.36,2.32V11a26.29,26.29,0,0,0-9.42-1.7c-12.37,0-20.87,8.5-20.87,20.92S94,51,106.38,51Z" fill="#0067b1"/><path d="M137.83,50.31h6.82V30.59c0-6-4.8-9.7-12.49-9.7a31,31,0,0,0-9.59,1.76v6.24a24.54,24.54,0,0,1,9.13-2.33c3.81,0,6.13,1.7,6.13,4.53v1.53a34,34,0,0,0-10.4,1.25c-4.63,1.48-7.41,4.65-7.41,8.45,0,5.33,4,8.67,10.29,8.67a9.4,9.4,0,0,0,7.52-3.17Zm-6.42-4.48c-2.54,0-4.28-1.42-4.28-3.45s1.68-3.75,4.39-4.43a26.1,26.1,0,0,1,6.31-.57v3.29C137.83,43.45,134.82,45.83,131.41,45.83Z" fill="#0067b1"/><path d="M158.3,34.15c0-4.24,3-7.08,7.58-7.08a14,14,0,0,1,2.89.34V20.89a9.13,9.13,0,0,0-1-.05c-4.1,0-7.11,1.3-9.48,4.13V21.35h-6.54v29h6.59Z" fill="#0067b1"/><path d="M194.53,49.17V43.28a24.87,24.87,0,0,1-9.48,2.26c-4.22,0-6.83-1.8-6.83-4.81V39.48h3.88c9.13,0,14.45-3.28,14.45-8.9s-5.14-9.69-12.26-9.69c-7.62,0-12.82,4.65-12.82,11.51v8.67c0,6.07,5.14,9.92,13.23,9.92A29.23,29.23,0,0,0,194.53,49.17ZM178.28,31c0-2.72,2.55-4.65,6.19-4.65,3.06,0,5.37,1.82,5.37,4.25,0,2.89-2.71,4.15-8.78,4.15h-1.62a8.68,8.68,0,0,0-1.16-.07Z" fill="#0067b1"/><path d="M205.16,7.12a4.23,4.23,0,0,0-4,4.31,4,4,0,1,0,7.92,0A4.16,4.16,0,0,0,205.16,7.12Z" fill="#00aeef"/><rect x="201.87" y="21.34" width="6.65" height="28.97" fill="#00aeef"/><path d="M230.9,20.89a11,11,0,0,0-8.61,3.69V21.35h-6.77v29h6.77V34.49c0-4.76,2.77-7.82,7.16-7.82,3,0,4.74,1.7,4.74,4.71V50.31h6.94V29.91C241.13,24.35,237.2,20.89,230.9,20.89Z" fill="#00aeef"/><path d="M267.5,23.78a10.23,10.23,0,0,0-7.39-2.89c-7.92,0-13.82,6.35-13.82,14.91,0,8.9,6,15.19,14.51,15.19a11.34,11.34,0,0,0,6.88-2.21V51c0,3.12-2.84,5.44-6.65,5.44-2.14,0-5.38-.79-9.49-2.27V60a28.44,28.44,0,0,0,9.6,1.87c7.92,0,13.24-4.25,13.24-10.54v-30H267.5Zm.29,12.64c.12,5.44-2.6,9-6.93,9-4.52,0-7.7-3.8-7.7-9.24,0-5.61,3.24-9.63,7.75-9.63a6.76,6.76,0,0,1,6.82,7Z" fill="#00aeef"/><path d="M288.12,42.54V27h7.05V21.35h-7.05V14.77h-6.66v28.4c0,4.25,3.54,7.37,8.39,7.37a27.1,27.1,0,0,0,6.71-1.3v-6.3a19.18,19.18,0,0,1-6.42,1.42A1.77,1.77,0,0,1,288.12,42.54Z" fill="#00aeef"/><path d="M313.46,20.89c-8.33,0-14.17,6.12-14.17,14.91,0,9.47,5.32,15.19,14.22,15.19,8,0,13.87-6.41,13.87-15.25C327.38,26.73,321.89,20.89,313.46,20.89Zm-.18,24.49c-4.62,0-7.11-3.4-7.11-9.53,0-5.78,2.84-9.4,7.4-9.4,4.28,0,7.06,3.62,7.06,9.29C320.63,41.58,317.74,45.38,313.28,45.38Z" fill="#00aeef"/><path d="M348.16,20.89a11,11,0,0,0-8.61,3.69V21.35h-6.77v29h6.77V34.49c0-4.76,2.77-7.82,7.16-7.82,3,0,4.74,1.7,4.74,4.71V50.31h6.94V29.91C358.39,24.35,354.46,20.89,348.16,20.89Z" fill="#00aeef"/><path d="M9.35,9.42a26.28,26.28,0,1,1,0,45.39,32.12,32.12,0,1,0,0-45.39" fill="url(#a)"/><path d="M0,30.69v2.85A22.62,22.62,0,0,0,39.43,47.2a16.79,16.79,0,1,1,0-30.17A22.62,22.62,0,0,0,0,30.69" fill="url(#b)"/></svg>