<svg xmlns="http://www.w3.org/2000/svg" viewBox="0 0 765.12 758.4"><title>color</title><path d="M765.12,505.44c-1,4.4-1.76,8.9-3.14,13.18-6.76,21-20.7,35.88-39.83,46.13-18.31,9.81-38.07,13-58.63,12-25.17-1.35-48.47-8.67-69.53-22.56a162.51,162.51,0,0,1-15.78-12.45c-3.26-2.78-4-5.87-1.9-9.48A237.27,237.27,0,0,1,589.76,511c3.78-5.19,9-5.17,14-1.23,15.39,12.11,32,22,51.24,26.57,13.66,3.25,27.16,2.8,40.07-3.16,11.91-5.49,20.1-14.38,22.53-27.62,2.51-13.73-2-25.32-11.59-35.15-8.38-8.59-18.48-14.75-29.16-19.89-11.71-5.63-23.72-10.64-35.52-16.11-13.89-6.44-27.13-14-38.49-24.42-19.46-17.88-27.77-40.34-24.86-66.26,3.66-32.64,22.39-54.25,52.88-65.17,27.33-9.79,55-8.14,82.26,1a141.45,141.45,0,0,1,34.47,17c5.87,4,7,9.53,3.12,15.5q-5.22,8-10.55,16c-4.16,6.22-9.15,7.3-15.58,3.37-12.49-7.65-25.43-14.34-39.66-18.19s-28-3.52-41.48,2.47c-24,10.7-30.25,39.22-13.06,59.15,6.91,8,15.53,13.84,25,18.32,12.67,6,25.64,11.42,38.44,17.19,15.11,6.83,29.65,14.64,42.43,25.37,14.34,12,24.27,26.78,27.76,45.45q.57,3,1.16,6Z" fill="#e22927"/><path d="M300.48,0c2.59,1.51,3.84,4,5,6.62q44.58,98.52,89.25,197c.3.66.61,1.31.85,2,1.36,3.75-.63,7.26-4.61,7.39-6.87.23-13.76.16-20.63,0-3.11-.07-4.95-2.16-6.19-4.92-5.75-12.81-11.58-25.58-17.3-38.39a3.09,3.09,0,0,0-3.33-2.2q-46.67.1-93.33,0a3.05,3.05,0,0,0-3.35,2.12c-5.61,12.78-11.34,25.5-17,38.26a8,8,0,0,1-8,5.27c-5.76,0-11.52,0-17.28,0s-8-3.57-5.6-8.91q40.16-88,80.32-176.08c3.34-7.33,6.75-14.63,10-22,1.12-2.56,2.48-4.75,5-6.12ZM259.6,141.6c24.59,0,48.74,0,72.89,0,2.35,0,1.51-1,1-2.1q-17.5-39-35-77.91a11.57,11.57,0,0,0-1.63-2.11,11,11,0,0,0-1.62,2.1q-12.32,27.53-24.56,55.08C267,124.91,263.37,133.12,259.6,141.6Z" fill="#e22a27"/><path d="M118.56,0c3.57.59,7.15,1.16,10.72,1.78,17.82,3.11,33.33,11.12,47.3,22.39,1.49,1.2,3,2.4,4.4,3.7a5.62,5.62,0,0,1,.26,8.5q-6.81,7.08-13.73,14.07c-2,2.07-4.23,2-6.76-.28a82.12,82.12,0,0,0-30.51-17C94,21.92,55.57,39.85,40.28,75.08c-15.69,36.15-4.13,77.66,28.44,98.25,26.65,16.85,54,16.19,80.92-.22,3.47-2.11,6.73-4.59,10-7,4-3,6.15-2.86,9.63.58,3.81,3.77,7.67,7.49,11.48,11.25,3.26,3.22,3.22,6.51-.19,9.73-10.29,9.71-21.89,17.57-35.36,21.94-42.09,13.64-80,6.16-112.61-24.12C13.69,167.91,3.53,145.59.5,120a7.24,7.24,0,0,0-.5-1.44V100.32a15.24,15.24,0,0,0,.39-1.85,93.22,93.22,0,0,1,5-24.32C19.64,34.78,47.2,10.56,88.22,1.82,91.44,1.13,94.69.6,97.92,0Z" fill="#e22a27"/><path d="M481.44,758.4c-3.84-.93-7.75-1.63-11.5-2.83-7.14-2.28-12.75-6.81-17.43-12.59-.79-1-.76-1.48.18-2.3,2.16-1.89,4.29-3.84,6.28-5.91,1.34-1.41,2.09-1.48,3.46.13,8.89,10.41,25.72,14,37.65,8.27,8-3.85,11.52-10.49,11.95-19,.19-3.82,0-7.65,0-11.78-.43.3-.72.41-.86.62-11.37,16.49-37,18.29-51.41,1-14.07-16.83-12.26-44.78,3.89-59a33.07,33.07,0,0,1,48.38,4.7l1.92,2.48v-10a11.83,11.83,0,0,1,.07-2.86c.13-.54.87-1.3,1.36-1.31,3.83-.11,7.67-.12,11.51,0a2.09,2.09,0,0,1,1.43,1.45c.15,2.71.07,5.43.07,8.15,0,21.35-.23,42.7.07,64,.27,19.69-12.19,32.16-30.45,35.64l-5.08,1Zm30.62-70.86a31.36,31.36,0,0,1,0-4.55c.84-5.72-1.87-10-5.38-14-8.91-10.09-23.23-10.87-32-1.78a29,29,0,0,0-4.51,33.13c6.16,11.3,19.55,15.85,30.52,10,7.16-3.81,12.25-9.24,11.38-18.25C511.94,690.59,512.06,689.06,512.06,687.54Z" fill="#6a6c6e"/><path d="M383.89,272.16a152.07,152.07,0,0,1,152.19,149.7c1.68,87-68.13,156.91-155.9,155C297,575.06,230.63,507.79,231.84,422.59,233,339.83,299,272.28,383.89,272.16ZM274.16,424.91c.42,61.15,49.66,109.06,108.63,109.53,60.54.48,110.33-48.21,110.89-108.19.56-60.42-48.4-110.34-107.64-111.61C326.42,313.36,274.72,362.43,274.16,424.91Z" fill="#e22927"/><path d="M2.16,424.37V286.15c0-6.78,2.85-9.67,9.54-9.67,32.24,0,64.47-.22,96.7.07,24.73.22,46.1,9.36,64,26.3,14.65,13.86,24.17,30.79,27.54,50.68,5.19,30.58-2.72,57.79-23.54,80.74-18.67,20.58-42.28,30.87-70.18,30.92q-28.9.06-57.83,0c-2.16,0-2.62.58-2.62,2.66.07,31.67,0,63.35.13,95,0,6-4,10.15-9.87,9.9-8.14-.35-16.31-.09-24.47-.09-6.4,0-9.43-3-9.43-9.34ZM45.85,371c0,16.56,0,33.12-.05,49.67,0,2.26.45,3,2.84,2.94,18.56-.11,37.12,0,55.67-.12a56.83,56.83,0,0,0,11.41-1.21c29.44-6.26,48.2-37,40.3-65.9-6-21.85-27.52-37.57-51.64-37.61-18.63,0-37.27,0-55.91-.06-2.08,0-2.68.46-2.67,2.61C45.9,337.92,45.85,354.48,45.85,371Z" fill="#e22a27"/><path d="M428.08,108V10.09c0-5.28,1.93-7.21,7.25-7.21,27.36,0,54.72-.32,82.07.17,33,.58,59.71,25.54,62.93,56.67,2.87,27.78-9.41,48.09-32.37,62.66a78.52,78.52,0,0,1-9.58,4.9c-1.5.69-1.75,1.17-.91,2.71q17.41,32.1,34.7,64.27c1.66,3.09,3.35,6.17,5,9.26,2.85,5.3.42,9.54-5.56,9.59-7.2,0-14.4,0-21.6,0A6.67,6.67,0,0,1,543.4,209c-12.28-24.64-24.73-49.2-36.91-73.89-1.61-3.27-3.37-4.34-7-4.26-12.4.27-24.8.1-37.2.1-3.35,0-3.35,0-3.35,3.48v71.75c0,4.72-2.13,6.91-6.82,6.92-5.6,0-11.2,0-16.8,0-5.34,0-7.26-1.92-7.26-7.2Zm31.53-39.57q0,17.14,0,34.3c0,1.16-.34,2.36,1.67,2.35,17.83-.13,35.67.21,53.48-.32,18.54-.56,34.11-16.71,34.75-35.12.69-20.08-16-37.44-36.16-37.47-17.19,0-34.38,0-51.58-.05-1.81,0-2.23.46-2.21,2.24C459.66,45.72,459.61,57.07,459.61,68.43Z" fill="#e22927"/><path d="M630.24,108.06V9.92c0-4.91,2.07-7,7-7H754.55c5.22,0,7.21,2,7.21,7.28,0,4.88,0,9.76,0,14.64,0,4.17-2.11,6.42-6.3,6.44-10.63.07-21.27,0-31.91,0-19.91,0-39.83,0-59.75-.05-2.12,0-2.65.51-2.64,2.64q.14,27.95,0,55.91c0,2.07.45,2.67,2.61,2.66,25.36-.08,50.71,0,76.07,0,5.17,0,7.12,1.93,7.12,7s0,10.23,0,15.35c0,3.44-1.89,5.49-5.34,5.83-1,.1-2.07.14-3.11.14-24.87,0-49.75,0-74.62,0-2.26,0-2.74.65-2.73,2.8q.12,29.39,0,58.79c0,2.42.73,2.82,3,2.81q45-.1,90,0c5.94,0,7.68,1.76,7.68,7.73,0,4.64,0,9.28,0,13.92,0,4.08-2.28,6.42-6.38,6.43q-59.26,0-118.53,0c-4.45,0-6.61-2.25-6.61-6.67Z" fill="#e22a27"/><path d="M47.56,726.33C33.24,726,20.26,718,10.81,704-4.08,682-2,654.17,15.94,634.61c7.88-8.57,17.93-13.2,29.49-14.42a47.57,47.57,0,0,1,28.08,5.1,40.17,40.17,0,0,1,16,15.74c.8,1.38.7,2.14-.72,3-3.45,2.16-6.8,4.49-10.17,6.79-.9.62-1.44.74-2-.46-8.07-18.52-39-22.48-52.46-.48-9.83,16.12-7.89,38,4.94,51.85,13.85,15,38.75,11.79,48.21-6.16.68-1.3,1.08-1.61,2.42-.78,3.34,2,6.72,4,10.22,5.78,2,1,1.89,2,1,3.67-4.29,8-10.92,13.45-19,17.22C65.19,724.68,58,726.31,47.56,726.33Z" fill="#6a6b6e"/><path d="M287.51,692.16c-9.6,0-19.2,0-28.8,0-1.52,0-2.1.29-1.88,2a23.38,23.38,0,0,0,35.56,17.13c2.68-1.66,4.8-4.35,6.87-6.83.9-1.09,1.43-1.31,2.7-.91,3.27,1,6.56,2.07,9.9,2.8,2.32.5,2.09,1.37,1.12,3-4.62,7.82-11.47,12.74-20,15.5-16.87,5.47-34.92.48-45.17-12.46-17-21.39-8.62-57.83,22-64.55,22.85-5,44.84,7.52,48.68,32.49.5,3.19.1,6.52.23,9.78.07,1.69-.56,2.14-2.21,2.12C306.86,692.13,297.18,692.16,287.51,692.16Zm-8.13-11.34H300c2.77,0,2.87-.13,2.28-2.84-2.51-11.66-11.83-19.26-23.34-19s-20.32,8-22.48,19.69c-.31,1.71.09,2.23,1.85,2.21C265.32,680.77,272.35,680.82,279.38,680.82Z" fill="#6a6c6f"/><path d="M154.88,713.27c-7.6,9-16.93,13.35-28.17,13.65-17.71.46-30-13.57-26.3-29.56,2-8.85,8.51-13.87,16.71-16.68,11.14-3.82,22.33-3,33.47.25.6.18,1.19.38,2,.64.17-4.45.42-8.72-1.24-12.83-2.75-6.84-8.23-9.66-15.18-10.19-9.29-.71-17.4,2.68-25,7.64-1.6,1-2.18.88-2.89-.82-1-2.44-2.33-4.73-3.35-7.16a2.24,2.24,0,0,1,.41-2.06c13.48-8.71,28-12,43.65-7.43,12.85,3.77,19.92,14.17,20,28.33,0,9.36,0,18.72,0,28.08,0,2.87.07,5.76,4,6.31.29,0,.64,1,.65,1.5.05,3.68.07,7.36,0,11,0,.58-.67,1.59-1.11,1.64a39.49,39.49,0,0,1-8.11.43c-5.54-.57-8.3-3.52-9.11-9.1C155.16,715.87,155.06,714.77,154.88,713.27Zm-2.18-16.38a33.05,33.05,0,0,1,0-3.59c.18-1.71-.35-2.65-2.14-3-2.41-.5-4.76-1.38-7.18-1.8-6.86-1.17-13.7-1.51-20.2,1.63-5.63,2.72-8.54,7.4-7.93,12.47a13.7,13.7,0,0,0,10.83,11.68,24.81,24.81,0,0,0,14.79-1.44C149,709.7,152.7,704.59,152.7,696.89Z" fill="#6a6c6e"/><path d="M382,663.11a33.85,33.85,0,0,1,17.59-14,36.68,36.68,0,0,1,19.57-1.79c9.6,1.89,14.22,8.59,16.09,17.51a63.33,63.33,0,0,1,1.3,12.36c.15,15.27,0,30.55.1,45.83,0,1.85-.44,2.49-2.38,2.41-3.91-.16-7.84-.15-11.76,0-1.88.07-2.42-.47-2.4-2.38.08-13.36.16-26.71,0-40.07a50.52,50.52,0,0,0-1.58-12.51c-1.9-6.92-7.58-10.23-14.6-8.86-9.8,1.91-16.38,7.84-20.07,17a8.36,8.36,0,0,0-.37,3c0,13.68-.07,27.35,0,41,0,2.29-.69,2.8-2.81,2.71-3.75-.16-7.52-.14-11.27,0-1.88.07-2.4-.46-2.39-2.37.09-14.47.05-28.95.05-43.43,0-9.59.1-19.19-.06-28.79,0-2.42.71-3,2.94-2.82,3.35.19,6.72.13,10.08,0,1.61-.06,2,.49,2,2C382,654.18,382,658.3,382,663.11Z" fill="#6a6c6f"/><path d="M703.3,662.41a38.47,38.47,0,0,1,36.49-15.26c7.38,1.21,12.46,5.43,15.25,12.37a42.86,42.86,0,0,1,2.86,15.94c.06,15.92,0,31.83.07,47.74,0,1.84-.5,2.28-2.26,2.22-3.83-.14-7.68-.15-11.51,0-2,.07-2.68-.32-2.66-2.55.12-13.76.17-27.51,0-41.27A43.15,43.15,0,0,0,740,670.52c-2-6.88-7.65-10.28-14.6-8.94-9.91,1.91-16.52,7.91-20.23,17.18a8.37,8.37,0,0,0-.38,3c0,13.68-.07,27.35,0,41,0,2.19-.63,2.66-2.67,2.58-4-.16-8-.09-12,0-1.35,0-1.78-.39-1.78-1.77q.06-36.95,0-73.89c0-1.45.58-1.72,1.85-1.7,3.76.06,7.52.09,11.27,0,1.54,0,1.88.54,1.85,2C703.25,654.12,703.3,658.26,703.3,662.41Z" fill="#696b6e"/><path d="M633.9,654a51.41,51.41,0,0,1-.06,5.27c-.06.61-.82,1.59-1.34,1.64-9.46.9-17.38,8.31-19.88,19.15a28.38,28.38,0,0,0,2.16,19.84c4.36,8.47,11.21,13.32,20.93,12.92,9.42-.39,15.68-5.75,19.46-14.07a38.5,38.5,0,0,0,2.3-8.25c.26-1.25.69-1.53,1.84-1.52,4.47,0,9,.08,13.43,0,1.43,0,1.76.51,1.64,1.83-1.61,17.49-13.6,32.33-31.77,35.45-11.57,2-22.51.19-32-7-10-7.55-14.94-17.87-15.46-30.32-.58-13.8,4.13-25.38,15-34.12,6.44-5.17,14-7.52,22.19-7.9a2.09,2.09,0,0,1,1.52,1.35c.18,1.9.07,3.83.07,5.75Z" fill="#6a6c6f"/><path d="M551.58,686.46c0-7.83-.06-15.67,0-23.5,0-1.85-.54-2.33-2.29-2.21a43.66,43.66,0,0,1-6.47,0,2.12,2.12,0,0,1-1.46-1.44c-.13-3.19,0-6.39-.09-9.59,0-1.25.4-1.69,1.66-1.64,2.07.08,4.16-.1,6.23.05,1.85.14,2.46-.38,2.42-2.34-.13-7,0-13.91-.09-20.87,0-1.75.39-2.37,2.24-2.3,4,.14,8,.15,12,0,1.93-.08,2.22.66,2.2,2.34-.08,7,0,13.92-.07,20.87,0,1.75.37,2.39,2.23,2.32,4.24-.14,8.48,0,12.71-.07,1.45,0,2,.37,1.92,1.87-.1,3-.11,5.92,0,8.87.06,1.59-.44,2.08-2,2.05-4.24-.1-8.48,0-12.72-.07-1.71,0-2.13.54-2.13,2.19.06,13.43,0,26.87.05,40.3,0,5.64,3.15,8.75,8.75,8.18a44.44,44.44,0,0,0,9-2.33c1.16-.37,1.6-.55,1.94.87.77,3.26,1.83,6.44,2.63,9.69.16.67-.1,2-.52,2.17-8.07,3.55-16.35,6.19-25.3,4.15-8.16-1.87-12.73-7.81-12.83-16.24V686.46Z" fill="#6a6c6f"/><path d="M203.94,664.33c2.23-2.92,4-5.66,6.2-8.05,5.41-6,12-9.45,20.31-8.89,1.4.09,2,.36,1.91,1.89-.11,3.75-.12,7.51,0,11.27,0,1.57-.58,1.77-1.93,1.86-8,.54-15.16,3-20.8,9A15.24,15.24,0,0,0,205,682.73c.26,13.43.06,26.87.15,40.3,0,1.87-.45,2.46-2.37,2.39-4-.15-8-.1-12,0-1.48,0-2.09-.28-2.09-1.95q.09-36.71,0-73.41c0-1.59.48-2,2-2,3.76.09,7.52.1,11.28,0,1.61,0,2,.5,2,2.05C203.88,654.71,203.94,659.35,203.94,664.33Z" fill="#6a6c6e"/><path d="M348.1,686.63c0,12-.08,24,.07,36,0,2.4-.69,2.93-2.93,2.82-3.91-.19-7.83-.11-11.75,0-1.36,0-1.77-.4-1.77-1.77q.06-36.93,0-73.87c0-1.17.25-1.75,1.58-1.73,4.4.07,8.8.1,13.19,0,1.8,0,1.61,1,1.61,2.14Z" fill="#696b6e"/><path d="M666.06,685.52c-2.24,0-4.48-.07-6.72,0-1.32.06-1.65-.37-1.82-1.7-1.17-9.38-5.43-16.75-14.19-21a9.69,9.69,0,0,0-3.13-1.14c-2.15-.21-2.7-1.25-2.58-3.29.17-3.11.14-6.24,0-9.35-.07-1.76.5-2.14,2.17-2a38.79,38.79,0,0,1,33.15,28.48c.71,2.69,1,5.49,1.46,8.24.22,1.29-.2,1.84-1.63,1.76C670.54,685.44,668.29,685.52,666.06,685.52Z" fill="#e22c27"/><path d="M331.74,626.64c0-2.48.07-5,0-7.44,0-1.39.45-1.8,1.79-1.77,4.32.06,8.64.05,13,0,1.23,0,1.68.37,1.66,1.64-.06,5-.07,9.92,0,14.88,0,1.29-.41,1.62-1.65,1.6-4.32-.07-8.64-.1-13,0-1.6.05-1.85-.61-1.8-2C331.8,631.28,331.74,629,331.74,626.64Z" fill="#6b6d70"/></svg>