<svg xmlns="http://www.w3.org/2000/svg" viewBox="0 0 741.6 144"><title>care_color</title><path d="M50.09,5.11c17.6,0,30.87,8.94,37.15,21.65L75,35c-5.3-12-16.2-15.78-25.42-15.78-20.25,0-30.86,18.57-30.86,35.89C18.67,74.39,31.8,91.56,50,91.56c9.5,0,20.81-4.75,25.84-16.34l13,7.41c-6.15,14.8-23.88,23-39.38,23-27.38,0-46.65-26-46.65-51.12C2.75,30.53,20.21,5.11,50.09,5.11Z" fill="#686a6c"/><path d="M96.18,83.32c0-13.68,12.71-23,30.87-23a55.23,55.23,0,0,1,19.27,3.35v-5c0-10.75-6.42-17.18-17.88-17.18-7.68,0-15.22,2.94-23.18,8.38L100.51,40c9.36-6.29,19-9.5,29.33-9.5,20,0,31.85,10.75,31.85,29.75v26.4c0,3.49,1.11,4.88,4.32,5v13.13a40.52,40.52,0,0,1-7.54.7c-5.86-.42-8.94-3.35-9.64-8L148.42,93a34.35,34.35,0,0,1-27.52,13.27C106.8,106.23,96.18,96.31,96.18,83.32Zm47.21,3.91a7.61,7.61,0,0,0,2.93-5.3V72.29a49.6,49.6,0,0,0-16.9-3.21c-10.89,0-18.71,5.31-18.71,13,0,7.26,6.14,12.85,14.38,12.85C132.49,94.92,139.76,92,143.39,87.23Z" fill="#686a6c"/><path d="M221.46,45.05c-11.87.28-21.65,5.73-25.7,15.09v44.69H180.4v-73h14.24V48.13c5.17-10.06,13.83-17,22.91-17a29.37,29.37,0,0,1,3.91.14Z" fill="#686a6c"/><path d="M228.16,68.52c0-20.67,15.09-38,38-38s37.29,17.6,37.29,37.29a48.58,48.58,0,0,1-.42,5.59H244.5c1,12.85,10.76,21.51,22.07,21.51,8.24,0,16.34-4.47,19.13-11.18l13.13,3.77c-5,10.9-17.46,18.72-32.82,18.72C243.25,106.23,228.16,88.91,228.16,68.52Zm60.06-5.73C287,50.36,277.74,41.84,266,41.84s-20.95,8.52-21.93,20.95Z" fill="#686a6c"/><path d="M315.73,19.77V2.88h15.36V19.77Zm0,85.06v-73h15.36v73Z" fill="#686a6c"/><path d="M414.75,104.83H399.39V63.91c0-13.69-4.61-19.69-13-19.69-8.94,0-18.72,7.26-21.93,17.18v43.43H349.11v-73h14V46.45c5.59-9.78,16.9-15.92,29.75-15.92,17.6,0,21.93,13.69,21.93,29.75Z" fill="#686a6c"/><path d="M427.88,68.38c0-20.81,13.82-37.85,33.8-37.85,11.87,0,20.67,6.14,26.39,15.08V31.79h13.55v70.95c0,21.09-16.76,33.24-38.83,33.24-16.2,0-26.26-5.87-33.66-15.64l8.66-8.11c5.59,7.83,15.09,12,25,12,12.71,0,23.47-6.71,23.47-21.51V91.56c-5.17,8.8-15.09,14-25.14,14C441.42,105.53,427.88,88.07,427.88,68.38Zm58.38,10.19V59.44c-3.64-9.22-12.43-15.78-21.23-15.78-13.27,0-21.65,12.57-21.65,25.14,0,13.27,9.91,24.3,22.76,24.3C475.36,93.1,484,86.26,486.26,78.57Z" fill="#686a6c"/><path d="M560.56,101.06c-4,1.82-11.31,4.89-19.28,4.89-9.49,0-17.59-4.89-17.59-16.62V43.66h-9.78V31.79h9.78v-24h15.36v24H555V43.66H539.05V84.44c0,5.17,3.49,7.4,7.68,7.4a24.15,24.15,0,0,0,10.48-2.93Z" fill="#686a6c"/><path d="M718.8,104.83H703.44V63.91c0-13.69-4.61-19.69-13-19.69-8.94,0-18.72,7.26-21.93,17.18v43.43H653.16v-73h14V46.45c5.58-9.78,16.9-15.92,29.74-15.92,17.6,0,21.93,13.69,21.93,29.75Z" fill="#686a6c"/><path d="M602.32,93.1c-12.15,0-21.79-10.47-21.79-24.58,0-13.75,9.15-24.5,20.89-24.83V30.56c-22.3.29-36.67,17.74-36.67,37.82,0,20.25,14.67,37.85,37.57,37.85,21.94,0,36.45-16.36,37.47-35.68H624C623.07,83.44,613.83,93.1,602.32,93.1Z" fill="#686a6c"/><path d="M624.05,67.11h15.78c-.6-18.78-14.19-34.94-34.75-36.43V43.93C615.42,45.52,623.51,55,624.05,67.11Z" fill="#e1251b"/><path d="M221.07,130.08a9.49,9.49,0,0,0-4.1-1.42c-.74,0-1.24.22-1.24.77,0,.8,1.09,1,2.88,1.54,2.85.9,4.66,1.9,4.66,4.81,0,3.72-3,4.92-5.88,4.92a14.25,14.25,0,0,1-6.74-1.81l1.83-3.73a10.88,10.88,0,0,0,5,1.7c.91,0,1.24-.26,1.24-.67,0-.9-1.59-1.09-3.44-1.73-2.73-.91-3.93-2.07-3.93-4.33,0-3.43,2.73-5.24,5.78-5.24a13.42,13.42,0,0,1,5.8,1.68Z" fill="#e1251b"/><path d="M234.41,132.81A7.65,7.65,0,0,1,241.9,125c4.45,0,7.37,3.95,7.37,7.89a7.64,7.64,0,0,1-7.46,7.81C237.38,140.7,234.41,136.8,234.41,132.81Zm7.44,4.12c2.16,0,3.1-2.1,3.1-4.12s-1-4-3.12-4-3.1,2-3.1,4.08S239.74,136.93,241.85,136.93Z" fill="#e1251b"/><path d="M261.19,140.7V125.22h4.26V137h7v3.71Z" fill="#e1251b"/><path d="M293.6,133.05v-8h4.26v8c0,4.32-2.21,7.65-7,7.65-5,0-7-3.55-7-7.65v-8h4.26v8c0,2,.76,3.88,2.72,3.88S293.6,135.05,293.6,133.05Z" fill="#e1251b"/><path d="M322.43,128.92H318V140.7h-4.25V128.92h-4.48v-3.7h13.18Z" fill="#e1251b"/><path d="M334.07,140.7V125.22h4.26V140.7Z" fill="#e1251b"/><path d="M350.25,132.81a7.65,7.65,0,0,1,7.48-7.81c4.45,0,7.38,3.95,7.38,7.89a7.64,7.64,0,0,1-7.46,7.81C353.22,140.7,350.25,136.8,350.25,132.81Zm7.44,4.12c2.16,0,3.1-2.1,3.1-4.12s-1-4-3.12-4-3.1,2-3.1,4.08S355.57,136.93,357.69,136.93Z" fill="#e1251b"/><path d="M381.28,133.09v7.61H377V125.22h3.31l6.22,7.87v-7.87h4.25V140.7h-3.38Z" fill="#e1251b"/><path d="M413,130.08a9.55,9.55,0,0,0-4.1-1.42c-.74,0-1.24.22-1.24.77,0,.8,1.09,1,2.87,1.54,2.86.9,4.67,1.9,4.67,4.81,0,3.72-3,4.92-5.89,4.92a14.32,14.32,0,0,1-6.74-1.81l1.84-3.73a10.88,10.88,0,0,0,5,1.7c.91,0,1.24-.26,1.24-.67,0-.9-1.59-1.09-3.45-1.73-2.72-.91-3.92-2.07-3.92-4.33,0-3.43,2.73-5.24,5.78-5.24a13.42,13.42,0,0,1,5.8,1.68Z" fill="#e1251b"/><path d="M523,130.26a9.36,9.36,0,0,0-4-1.4c-.73,0-1.23.21-1.23.75,0,.79,1.08,1,2.84,1.53,2.81.88,4.59,1.86,4.59,4.72,0,3.67-3,4.85-5.79,4.85a14.1,14.1,0,0,1-6.64-1.78l1.8-3.67a10.79,10.79,0,0,0,4.9,1.67c.9,0,1.22-.26,1.22-.66,0-.88-1.56-1.08-3.39-1.7-2.68-.9-3.86-2-3.86-4.27,0-3.37,2.68-5.15,5.69-5.15a13.27,13.27,0,0,1,5.71,1.65Z" fill="#e1251b"/><path d="M536.91,140.71V125.47h4.19v15.24Z" fill="#e1251b"/><path d="M565.18,140.71v-8l-2.55,5.65h-2.24l-2.55-5.65v8h-4.19V125.47h4.57l3.29,7.17,3.3-7.17h4.55v15.24Z" fill="#e1251b"/><path d="M581.92,140.71V125.47h6.57a5.31,5.31,0,0,1,5.13,5.28,5.14,5.14,0,0,1-5,5.28h-2.5v4.68Zm4.18-8.33h2.22c.51,0,1-.41,1-1.63s-.65-1.63-1.16-1.63H586.1Z" fill="#e1251b"/><path d="M605.16,141.12V125.88h4.19v11.59h6.91v3.65Z" fill="#e1251b"/><path d="M627.72,140.71V125.47h4.19v15.24Z" fill="#e1251b"/><path d="M644.46,140.71V125.47h10.45v3.65h-6.27v2.53h5.11V135h-5.11v5.67Z" fill="#e1251b"/><path d="M666.39,140.71V125.47h4.19v15.24Z" fill="#e1251b"/><path d="M694,137.06v3.65H683.13V125.47H693.8v3.65h-6.48v2.14h5.54v3.39h-5.54v2.41Z" fill="#e1251b"/><path d="M705.88,140.71V125.47h5.86c5.07,0,7.69,3.39,7.69,7.6,0,4.61-3,7.64-7.69,7.64Zm5.86-11.59h-1.67v7.94h1.67c2.19,0,3.44-1.7,3.44-4S713.89,129.12,711.74,129.12Z" fill="#e1251b"/><path d="M738.85,123.85a7.32,7.32,0,1,1-7.29-7.13A7.16,7.16,0,0,1,738.85,123.85Zm-12.81,0a5.52,5.52,0,0,0,5.56,5.69,5.7,5.7,0,0,0,0-11.38A5.54,5.54,0,0,0,726,123.85Zm4.39,3.73h-1.65v-7.12a14.34,14.34,0,0,1,2.73-.22,4.48,4.48,0,0,1,2.48.52,2,2,0,0,1,.69,1.57,1.82,1.82,0,0,1-1.47,1.65v.08a2.12,2.12,0,0,1,1.3,1.74,5.58,5.58,0,0,0,.52,1.78h-1.78a5.79,5.79,0,0,1-.56-1.74c-.13-.78-.57-1.12-1.48-1.12h-.78Zm0-4h.78c.91,0,1.65-.3,1.65-1s-.47-1.08-1.52-1.08a4.26,4.26,0,0,0-.91.08Z" fill="#686a6c"/></svg>