<svg xmlns="http://www.w3.org/2000/svg" xmlns:xlink="http://www.w3.org/1999/xlink" viewBox="0 0 602.4 474.76"><defs><radialGradient id="a" cx="525.52" cy="37.82" r="58.18" gradientUnits="userSpaceOnUse"><stop offset="0.15" stop-color="#ffcc92"/><stop offset="0.3" stop-color="#fcb654"/><stop offset="0.31" stop-color="#f9b351"/><stop offset="0.46" stop-color="#d59531"/><stop offset="0.75" stop-color="#b88229"/><stop offset="1" stop-color="#966b20"/></radialGradient></defs><title>csi_color</title><path d="M406.75,223.47c-11.64-8.73-24.83-14.12-38.53-18.4-10.48-3.27-21.2-5.82-31.59-9.36a124.9,124.9,0,0,1-20.95-9.22c-9.52-5.38-12.1-14.64-11.26-24.89.77-9.35,6.16-15.67,14.61-19.23,11.31-4.78,23.05-5.06,34.75-1.77,17,4.76,29.56,15.7,39.35,29.85,4.68,6.77,8.18,14.37,12.54,22.19h13.92c-1.14-24.32-2.25-48.16-3.37-72.07H400.15l-4.46,11.72a28.28,28.28,0,0,1-4-.87,164.92,164.92,0,0,0-73.5-10.57c-19.1,1.62-37,6.49-52.78,17.81-11.69,8.41-20.62,19.16-23.73,33.44-7.11,32.67,5.8,58.25,34.5,74.6,11.25,6.41,23.83,9.26,36,13.2,11.56,3.74,23.19,7.29,34.56,11.53,7.58,2.83,14.24,7.49,17.74,15.19a28.35,28.35,0,0,1-17.75,38.87,63.12,63.12,0,0,1-46.64-4.09c-17.72-8.69-30.94-22.26-40.91-39.07-3.87-6.53-7.15-13.42-10.93-20.58h-15.1c1.11,26.78,2.18,52.81,3.28,79.24H253c2.09-4.49,4.23-9.1,6.2-13.31,8.95,3.6,17.24,7.44,25.85,10.32,33.22,11.12,66.45,10.79,99.33-1.37,12.47-4.62,23.59-11.71,32.09-22.2,13-16.08,16.3-34.68,12.9-54.6C426.77,244.78,419.07,232.69,406.75,223.47Z" fill="#003e60"/><path d="M196.58,282.71c-10,14.46-21.88,26.15-40.06,30-23.91,5-43.63-1-59.25-20.17-10.35-12.69-15.72-27.36-17.75-43.26a188.12,188.12,0,0,1,3.4-67c2.7-11.61,6.82-22.65,14.59-32,8.54-10.24,19.52-14.63,32.77-13.22a15.8,15.8,0,0,1,10.16,4.78c1.66,1.74,2.46,3.54,1.84,5.86-1.13,4.17-2.51,8.29-3.41,12.51a173.86,173.86,0,0,0-3.39,18.59c-1.24,12,4.94,20,15.11,25.13,12,6.09,24.68,6.14,37.52,3.22,10.28-2.34,16.57-9.2,19.27-19,4.63-16.73,1.57-32-10.53-44.92-7.94-8.5-17.94-13.72-28.82-17.21-19.83-6.35-40.21-7.46-60.78-5.24-36.8,4-67,19.75-88.3,50.69C9.88,184.68,3.74,199.18,1.54,215.13a133.68,133.68,0,0,0,5.26,60.2c8.54,26.23,25.66,45.05,50.34,57.06,15.78,7.67,32.56,11.58,50,12.62,13.51.81,27.11,1,40.22-2.65,30.77-8.62,54.36-26.62,69.43-55.16a13.07,13.07,0,0,0,.75-2.82l-15.34-10.63C200.12,277.11,198.46,280,196.58,282.71Z" fill="#003e60"/><path d="M576.67,318.87a33.87,33.87,0,0,1-9.18-4.83c-5.6-4.3-7.18-10.54-7.18-17.32q0-80.94,0-161.9c0-2,.08-4-.07-6-.26-3.56-1.91-5.12-5.34-5.19-1.5,0-3,.11-4.49.18q-41.14,2.15-82.29,4.31c-5.25.28-10.5.74-15.66,1.1v14.58c6.63,1.94,12.7,3.62,18.71,5.49,10.11,3.14,18.87,12.9,18.74,27-.38,40.64-.13,81.28-.14,121.92a49.76,49.76,0,0,1-.19,6c-.88,7.36-4.39,12.88-11.63,15.39a60,60,0,0,1-9.18,2.25c-3.56.62-7.18.93-10.88,1.39v15H593V323.71C587.17,322,581.82,320.72,576.67,318.87Z" fill="#003e60"/><ellipse cx="518.35" cy="47.44" rx="50.16" ry="47.44" fill="url(#a)"/><path d="M16.62,404.08A12.76,12.76,0,0,1,6.68,400Q3,395.89,3,388.9t3.72-11.08a12.75,12.75,0,0,1,9.94-4.09,13,13,0,0,1,8.14,2.58,9.4,9.4,0,0,1,3.79,6.81h-4a6,6,0,0,0-2.41-4.43,8.84,8.84,0,0,0-5.47-1.64,8.8,8.8,0,0,0-7.07,3.07c-1.74,2.05-2.6,5-2.6,8.78s.86,6.72,2.58,8.77a8.65,8.65,0,0,0,7,3.08,8.69,8.69,0,0,0,5.56-1.68,6.52,6.52,0,0,0,2.4-4.8h4a9.84,9.84,0,0,1-3.69,7.24A12.91,12.91,0,0,1,16.62,404.08Z" fill="#003e60"/><path d="M55.9,403.58H34V374.23h21.2v3.48H37.9v9H54.09v3.48H37.9v9.93h18Z" fill="#003e60"/><path d="M84.49,403.58h-4L65.13,380.41v23.17H61.44V374.23h4l15.37,23.16V374.23h3.71Z" fill="#003e60"/><path d="M112,377.71h-9.71v25.87H98.38V377.71H88.75v-3.48H112Z" fill="#003e60"/><path d="M141.54,403.58h-4.2l-2.76-7.83a7.33,7.33,0,0,0-2.46-3.4,6.36,6.36,0,0,0-4-1.33H121v12.56h-3.88V374.23h13a19.51,19.51,0,0,1,5.57.66,6.35,6.35,0,0,1,3.52,2.78,8.67,8.67,0,0,1,1.36,4.79,7.48,7.48,0,0,1-1.76,5.08,8.29,8.29,0,0,1-4.82,2.66v.08q3.06,1,4.66,5.31Zm-20.58-16h8.67q3.63,0,5.26-1.14c1.09-.76,1.63-2.08,1.63-3.94q0-5-6.29-5H121Z" fill="#003e60"/><path d="M171.7,403.58h-4.39l-3.4-8.93H151.62l-3.25,8.93h-4.1l11.27-29.35h4.18Zm-8.93-12L157.6,378l-4.92,13.61Z" fill="#003e60"/><path d="M193.18,403.58H175V374.23h3.88v25.86h14.28Z" fill="#003e60"/><path d="M220.77,404.08q-6.21,0-9.28-2.79a9.66,9.66,0,0,1-3.23-7.14H212a6.08,6.08,0,0,0,2.73,4.85,10.58,10.58,0,0,0,5.88,1.57,9.19,9.19,0,0,0,5.25-1.34,4.18,4.18,0,0,0,2-3.64,3.72,3.72,0,0,0-2.07-3.53,30.09,30.09,0,0,0-7.09-2.17q-5-1.06-7.23-3a6.38,6.38,0,0,1-2.19-5.06,7.16,7.16,0,0,1,2.85-5.85,11.79,11.79,0,0,1,7.58-2.28,13,13,0,0,1,8,2.3,8.16,8.16,0,0,1,3.22,6.51h-3.79q-.57-5.32-7.28-5.33a8.88,8.88,0,0,0-5,1.22,3.77,3.77,0,0,0-1.78,3.25,3.09,3.09,0,0,0,1.43,2.76,18.27,18.27,0,0,0,5.35,1.78,49.46,49.46,0,0,1,6.21,1.7,10,10,0,0,1,3.95,2.61,6.76,6.76,0,0,1,1.64,4.76,7.84,7.84,0,0,1-3,6.28A11.9,11.9,0,0,1,220.77,404.08Z" fill="#003e60"/><path d="M258,377.71h-9.71v25.87h-3.91V377.71h-9.63v-3.48H258Z" fill="#003e60"/><path d="M283.9,403.58h-4.39l-3.4-8.93H263.82l-3.25,8.93h-4.1l11.27-29.35h4.18Zm-8.93-12L269.8,378l-4.92,13.61Z" fill="#003e60"/><path d="M304,377.71h-9.71v25.87h-3.9V377.71h-9.63v-3.48H304Z" fill="#003e60"/><path d="M330.13,403.58H308.25V374.23h21.2v3.48H312.13v9h16.2v3.48h-16.2v9.93h18Z" fill="#003e60"/><path d="M346.75,404.08q-6.21,0-9.28-2.79a9.66,9.66,0,0,1-3.23-7.14H338a6.08,6.08,0,0,0,2.73,4.85,10.58,10.58,0,0,0,5.88,1.57,9.21,9.21,0,0,0,5.25-1.34,4.17,4.17,0,0,0,2-3.64,3.71,3.71,0,0,0-2.06-3.53,30.09,30.09,0,0,0-7.09-2.17q-5-1.06-7.23-3a6.38,6.38,0,0,1-2.19-5.06,7.16,7.16,0,0,1,2.85-5.85,11.79,11.79,0,0,1,7.58-2.28,12.92,12.92,0,0,1,8,2.3,8.14,8.14,0,0,1,3.23,6.51h-3.79q-.57-5.32-7.28-5.33a8.86,8.86,0,0,0-5,1.22,3.77,3.77,0,0,0-1.78,3.25,3.09,3.09,0,0,0,1.43,2.76,18.27,18.27,0,0,0,5.35,1.78,49.46,49.46,0,0,1,6.21,1.7,10,10,0,0,1,4,2.61,6.76,6.76,0,0,1,1.64,4.76,7.84,7.84,0,0,1-3,6.28A11.9,11.9,0,0,1,346.75,404.08Z" fill="#003e60"/><path d="M380.1,403.58h-3.9V374.23h3.9Z" fill="#003e60"/><path d="M410.23,403.58h-4l-15.38-23.17v23.17h-3.68V374.23h4l15.38,23.16V374.23h3.7Z" fill="#003e60"/><path d="M416.88,374.23h9.31q15,0,15,14.51,0,14.83-15,14.84h-9.31Zm3.89,25.86h5.34q6.39,0,8.71-3t2.32-8.38c0-3.51-.77-6.22-2.31-8.15s-4.45-2.88-8.72-2.88h-5.34Z" fill="#003e60"/><path d="M468.45,403.58H446.57V374.23h21.2v3.48H450.46v9h16.19v3.48H450.46v9.93h18Z" fill="#003e60"/><path d="M502.41,403.58h-3.69v-25l-8.36,25h-3.49l-8.37-25v25h-3.68V374.23h5.83l7.94,24.46,8-24.46h5.83Z" fill="#003e60"/><path d="M532.92,403.58h-4l-15.38-23.17v23.17h-3.68V374.23h4l15.38,23.16V374.23h3.7Z" fill="#003e60"/><path d="M544,403.58h-3.9V374.23H544Z" fill="#003e60"/><path d="M571.9,377.71h-9.71v25.87h-3.9V377.71h-9.63v-3.48H571.9Z" fill="#003e60"/><path d="M601.67,374.23l-11.53,16.91v12.44h-3.89V391.14l-11.53-16.91h4.73l8.77,13.51L597,374.23Z" fill="#003e60"/><path d="M28.72,465.94H24.13l-1.62-9.15H9.64L4.3,465.94H0l18.19-30.07h4.39ZM22,453.64l-2.45-13.95-8.12,13.95Z" fill="#003e60"/><path d="M66.81,457.2a9.84,9.84,0,0,1-4.31,6.48,16,16,0,0,1-9,2.26H42l6.39-30.07H59.31q4.91,0,7.28,2.06a5.4,5.4,0,0,1,1.62,5.62q-.93,4.33-5.79,6.43a5.75,5.75,0,0,1,3.87,2.72A6.39,6.39,0,0,1,66.81,457.2Zm-20,5.17h7.4q7.29,0,8.39-5.17c.38-1.79.1-3.1-.85-3.92S58.84,452,55.88,452H49Zm2.95-13.9H56.6a10.47,10.47,0,0,0,5.19-1.06,5,5,0,0,0,2.34-3.52,3.21,3.21,0,0,0-.84-3.33c-.88-.74-2.6-1.12-5.15-1.12H51.68Z" fill="#003e60"/><path d="M78.67,466.45q-4.9,0-7.25-3t-1.19-8.38a14.6,14.6,0,0,1,4.66-8.36,12.2,12.2,0,0,1,8.18-3q4.75,0,7,3c1.47,2,1.82,4.79,1,8.41l-.2.92H74.14c-.37,2.52,0,4.39.94,5.6a5.14,5.14,0,0,0,4.23,1.83,8.15,8.15,0,0,0,4-1,4.57,4.57,0,0,0,2.37-2.94h4.09a9.55,9.55,0,0,1-4.22,5.19A13.09,13.09,0,0,1,78.67,466.45ZM87.37,453a6.44,6.44,0,0,0-1.17-4.7,4.7,4.7,0,0,0-3.77-1.56,7.12,7.12,0,0,0-4.4,1.55A9.9,9.9,0,0,0,74.87,453Z" fill="#003e60"/><path d="M107.86,447.71a8.22,8.22,0,0,0-2.36-.25q-3,0-5.84,3.1l-3.27,15.38h-4l4.62-21.76h4l-.65,3c2.17-2.36,4.34-3.53,6.54-3.53a10.12,10.12,0,0,1,1.77.16Z" fill="#003e60"/><path d="M124.34,465.94h-4.72l-4.88-11.05-3,2.39-1.84,8.66h-4l6.39-30.07h4l-3.62,17.05,10.43-8.74h5L118,452.28Z" fill="#003e60"/><path d="M134.49,466.45q-9.12,0-8.05-7h4q-.79,4,4.69,4a7,7,0,0,0,4-1,4,4,0,0,0,1.82-2.49,1.72,1.72,0,0,0-.82-2.08,26.6,26.6,0,0,0-4.86-1.57,15.57,15.57,0,0,1-5.28-2.15c-1-.8-1.35-2.19-.93-4.19a7.13,7.13,0,0,1,3.21-4.48,11.2,11.2,0,0,1,6.4-1.77q8.74,0,7.64,6.09h-3.94q.44-3.07-4.06-3.08a7.61,7.61,0,0,0-3.46.74,3.07,3.07,0,0,0-1.77,2.15,1.58,1.58,0,0,0,.61,1.84,21.47,21.47,0,0,0,4.72,1.52,15.81,15.81,0,0,1,5.53,2.22c1.12.85,1.47,2.31,1,4.39a7.88,7.88,0,0,1-3.46,4.93A11.91,11.91,0,0,1,134.49,466.45Z" fill="#003e60"/><path d="M155.35,447c2.43-2.18,4.88-3.26,7.34-3.26,5,0,7,2.67,5.82,8l-3,14.23h-4l3-14.07c.38-1.78.33-3.06-.16-3.83s-1.47-1.17-2.95-1.17q-3,0-6.78,3.48l-3.31,15.59h-4l6.39-30.07h4Z" fill="#003e60"/><path d="M174.42,465.94h-4l4.62-21.76h4Zm5.5-25.88h-4l.89-4.19h4Z" fill="#003e60"/><path d="M194.9,447.71a8.18,8.18,0,0,0-2.36-.25c-2,0-4,1-5.83,3.1l-3.27,15.38h-4l4.63-21.76h4l-.64,3c2.16-2.36,4.34-3.53,6.53-3.53a10.12,10.12,0,0,1,1.77.16Z" fill="#003e60"/><path d="M202.35,466.45q-4.9,0-7.25-3t-1.19-8.38a14.58,14.58,0,0,1,4.65-8.36,12.22,12.22,0,0,1,8.18-3q4.77,0,7,3c1.48,2,1.83,4.79,1.06,8.41l-.2.92H197.82q-.56,3.78.94,5.6a5.14,5.14,0,0,0,4.23,1.83,8.08,8.08,0,0,0,4-1,4.59,4.59,0,0,0,2.38-2.94h4.09a9.59,9.59,0,0,1-4.22,5.19A13.12,13.12,0,0,1,202.35,466.45ZM211,453a6.39,6.39,0,0,0-1.16-4.7,4.73,4.73,0,0,0-3.78-1.56,7.09,7.09,0,0,0-4.39,1.55,9.9,9.9,0,0,0-3.16,4.71Z" fill="#003e60"/><path d="M251.4,465.94h-4.09l3-14.15h-16l-3,14.15h-4.07l6.39-30.07h4.07l-2.62,12.35h16l2.63-12.35h4.09Z" fill="#003e60"/><path d="M271.54,463.7a13.35,13.35,0,0,1-8.36,2.75,6.89,6.89,0,0,1-5.08-1.75,4.62,4.62,0,0,1-1.18-4.52q1.62-7.64,15.06-7.63h1.93a16.45,16.45,0,0,0,.47-3.4,2.15,2.15,0,0,0-1-1.75,6.45,6.45,0,0,0-3.52-.7q-5.28,0-6.24,3.69h-3.94q1.86-6.7,11-6.7,4.27,0,6.31,1.66t1,6.52l-3,14.07h-3.95Zm.74-3.48,1-4.82h-2.7q-8.6,0-9.57,4.57a2.41,2.41,0,0,0,.72,2.55,4.87,4.87,0,0,0,3.2.9,10.07,10.07,0,0,0,4-.86A9.88,9.88,0,0,0,272.28,460.22Z" fill="#003e60"/><path d="M288.71,466a16.43,16.43,0,0,1-2.88.25,5.21,5.21,0,0,1-3.39-.85,2.82,2.82,0,0,1-.94-2.19,20,20,0,0,1,.5-3.63l2.63-12.34h-2.75l.65-3h2.74l1.15-5.41h3.95l-1.16,5.41h3.61l-.64,3h-3.61l-2.67,12.55c-.32,1.49-.32,2.43,0,2.84a1.71,1.71,0,0,0,1.46.6,12.2,12.2,0,0,0,2-.16Z" fill="#003e60"/><path d="M299.24,447c2.43-2.18,4.88-3.26,7.34-3.26q7.53,0,5.82,8l-3,14.23h-4l3-14.07c.38-1.78.33-3.06-.16-3.83s-1.46-1.17-2.95-1.17q-3,0-6.77,3.48l-3.32,15.59h-4l6.39-30.07h4Z" fill="#003e60"/><path d="M328.91,463.7a13.35,13.35,0,0,1-8.36,2.75,6.9,6.9,0,0,1-5.08-1.75,4.62,4.62,0,0,1-1.18-4.52q1.62-7.64,15.06-7.63h1.93a16.45,16.45,0,0,0,.47-3.4,2.15,2.15,0,0,0-1-1.75,6.43,6.43,0,0,0-3.52-.7q-5.28,0-6.24,3.69H317q1.88-6.7,11-6.7c2.85,0,5,.55,6.31,1.66s1.7,3.28,1,6.52l-3,14.07h-3.94Zm.74-3.48,1-4.82H328q-8.6,0-9.57,4.57a2.42,2.42,0,0,0,.72,2.55,4.88,4.88,0,0,0,3.21.9,10,10,0,0,0,3.95-.86A9.88,9.88,0,0,0,329.65,460.22Z" fill="#003e60"/><path d="M369.94,444.18l-11.31,21.76h-3.77l-1.43-16-8.2,16h-3.77l-2.08-21.76h4.38l.56,16.59,8.54-16.59h3.6L358,460.77l7.61-16.59Z" fill="#003e60"/><path d="M382.25,463.7a13.35,13.35,0,0,1-8.36,2.75,6.9,6.9,0,0,1-5.08-1.75,4.62,4.62,0,0,1-1.17-4.52q1.62-7.64,15.06-7.63h1.92a15.78,15.78,0,0,0,.47-3.4,2.13,2.13,0,0,0-1-1.75,6.43,6.43,0,0,0-3.52-.7q-5.28,0-6.23,3.69h-3.95q1.88-6.7,11-6.7,4.28,0,6.32,1.66t1,6.52l-3,14.07h-3.94Zm.74-3.48,1-4.82h-2.71q-8.6,0-9.56,4.57a2.4,2.4,0,0,0,.71,2.55,4.88,4.88,0,0,0,3.21.9,10,10,0,0,0,3.95-.86A9.78,9.78,0,0,0,383,460.22Z" fill="#003e60"/><path d="M390.94,471.19q2.94,0,5.92-5.25l-3.79-21.76h4.28l2.27,17,9.51-17h4.28l-13,21.76q-1.87,3.12-3.09,4.81a12,12,0,0,1-2.83,2.85,6.07,6.07,0,0,1-3.61,1.16,9.38,9.38,0,0,1-2.5-.29l.76-3.57A5.84,5.84,0,0,0,390.94,471.19Z" fill="#003e60"/><path d="M435.41,466.45c-4.34,0-7.52-1.4-9.51-4.19s-2.49-6.58-1.48-11.35a20.1,20.1,0,0,1,6.3-11.35,16.58,16.58,0,0,1,11.3-4.2,11.49,11.49,0,0,1,8,2.65,7.65,7.65,0,0,1,2.48,7h-4.19a4.84,4.84,0,0,0-1.56-4.53,7.9,7.9,0,0,0-5.38-1.68,11.49,11.49,0,0,0-8.07,3.14,16.62,16.62,0,0,0-4.64,9q-1.23,5.82.8,9c1.35,2.1,3.58,3.16,6.67,3.16a10.92,10.92,0,0,0,6.19-1.73,8.68,8.68,0,0,0,3.56-4.92h4.2a13.24,13.24,0,0,1-5.44,7.43A16.31,16.31,0,0,1,435.41,466.45Z" fill="#003e60"/><path d="M466.11,443.69q4.75,0,7,3c1.47,2,1.82,4.79,1.05,8.41a14.7,14.7,0,0,1-4.63,8.4,12.21,12.21,0,0,1-8.23,3q-4.74,0-6.95-3t-1.05-8.4a14.66,14.66,0,0,1,4.63-8.41A12.21,12.21,0,0,1,466.11,443.69Zm-4.2,19.73a7.07,7.07,0,0,0,5-2.11,11.78,11.78,0,0,0,3.09-6.24c.59-2.78.45-4.86-.43-6.27a4.54,4.54,0,0,0-4.14-2.1,7.11,7.11,0,0,0-5,2.1,11.85,11.85,0,0,0-3.1,6.27c-.58,2.76-.44,4.84.44,6.24A4.51,4.51,0,0,0,461.91,463.42Z" fill="#003e60"/><path d="M505.53,465.94h-4l3-14.07a6.47,6.47,0,0,0,0-3.86,2.4,2.4,0,0,0-2.41-1.14q-2.88,0-6.38,3.48l-3.32,15.59h-3.94l3-14.07a6.55,6.55,0,0,0,0-3.86c-.36-.76-1.18-1.14-2.44-1.14q-2.87,0-6.35,3.48l-3.32,15.59h-4l4.62-21.76h4l-.59,2.77c2.33-2.18,4.64-3.26,6.92-3.26q4.88,0,5.39,3.94a16.49,16.49,0,0,1,4.46-3.25,8.51,8.51,0,0,1,3.19-.69q6.84,0,5.13,8Z" fill="#003e60"/><path d="M518.5,446.78a10.16,10.16,0,0,1,7-3.09c2.91,0,4.94,1,6.11,3s1.38,4.74.65,8.18a15.73,15.73,0,0,1-4.47,8.46,10.61,10.61,0,0,1-7.4,3.1,7.24,7.24,0,0,1-5.62-2.19l-2.13,10.05h-4l6.4-30.13h4Zm-3,14a6.25,6.25,0,0,0,5.26,2.65,6,6,0,0,0,4.52-2.15,13.39,13.39,0,0,0,2.87-6.38q.86-4-.13-6.11a3.57,3.57,0,0,0-3.54-2.08c-2.19,0-4.46,1.25-6.79,3.73Z" fill="#003e60"/><path d="M548.14,463.7a13.38,13.38,0,0,1-8.37,2.75,6.9,6.9,0,0,1-5.08-1.75,4.64,4.64,0,0,1-1.17-4.52q1.62-7.64,15.06-7.63h1.93a16.45,16.45,0,0,0,.47-3.4,2.16,2.16,0,0,0-1-1.75,6.43,6.43,0,0,0-3.52-.7q-5.28,0-6.23,3.69h-3.94q1.86-6.7,11-6.7c2.86,0,5,.55,6.32,1.66s1.69,3.28,1,6.52l-3,14.07h-3.94Zm.74-3.48,1-4.82h-2.7q-8.6,0-9.57,4.57a2.4,2.4,0,0,0,.71,2.55,4.9,4.9,0,0,0,3.21.9,10.07,10.07,0,0,0,4-.86A9.88,9.88,0,0,0,548.88,460.22Z" fill="#003e60"/><path d="M564.68,447c2.43-2.18,4.88-3.26,7.34-3.26q7.53,0,5.82,8l-3,14.23h-4l3-14.07c.38-1.78.33-3.06-.16-3.83s-1.47-1.17-2.95-1.17q-3,0-6.78,3.48l-3.31,15.59h-4l4.62-21.76h4Z" fill="#003e60"/><path d="M579.93,471.19c2,0,3.93-1.75,5.92-5.25l-3.79-21.76h4.28l2.27,17,9.51-17h4.28l-13,21.76q-1.87,3.12-3.09,4.81a12.16,12.16,0,0,1-2.83,2.85,6.07,6.07,0,0,1-3.61,1.16,9.38,9.38,0,0,1-2.5-.29l.76-3.57A5.84,5.84,0,0,0,579.93,471.19Z" fill="#003e60"/></svg>