<svg xmlns="http://www.w3.org/2000/svg" viewBox="0 0 373.25 122.2"><title>cigna-horiz-color</title><path d="M57.65,58.11a7.56,7.56,0,1,0,7.56-7.76,7.65,7.65,0,0,0-7.56,7.76" fill="#f8971f"/><path d="M129.79,106.81C119.05,100.2,102.7,93.33,79,91.15a29.91,29.91,0,0,0-.25,3.72,20.16,20.16,0,0,0,.16,2,180.57,180.57,0,0,1,50.77,10.41,2.6,2.6,0,0,0,.55.18.18.18,0,0,0,.19-.18c0-.18-.19-.24-.63-.5M77.48,18.4a7.07,7.07,0,0,1-2.16-7.91C76.44,6.86,79.24,3.9,82.2,3.1c2,2.33,2.64,6.35,1.52,10A7,7,0,0,1,77.48,18.4ZM94.93,32.92a6.75,6.75,0,0,1,2.34-7.51c2.79-2.36,6.58-3.32,9.39-2.43.42,2.92-1.15,6.5-3.93,8.87A6.77,6.77,0,0,1,94.93,32.92Zm.55,21.91a6.65,6.65,0,0,1,6-4.81c3.56-.39,7.16.92,9,3.19-1.27,2.6-4.51,4.65-8.06,5A6.63,6.63,0,0,1,95.48,54.83Zm-6.31,7.93a5.89,5.89,0,0,1,6.39-2.5c3.13.6,5.84,2.66,6.78,5.06-1.77,1.88-5.06,2.77-8.18,2.16A5.88,5.88,0,0,1,89.17,62.76ZM70.17,42a8.43,8.43,0,0,1-2.58-9.48c1.34-4.36,4.69-7.92,8.26-8.88,2.39,2.81,3.16,7.63,1.81,12A8.47,8.47,0,0,1,70.17,42Zm8.3,4.83a7.62,7.62,0,0,1,2.63-8.45c3.14-2.65,7.4-3.73,10.57-2.73.46,3.29-1.3,7.31-4.43,10A7.62,7.62,0,0,1,78.47,46.87ZM84,29.16a8.64,8.64,0,0,1,.1-10c2.54-3.91,6.81-6.46,10.58-6.41,1.57,3.42,1,8.36-1.56,12.26A8.63,8.63,0,0,1,84,29.16ZM95.19,44.54a8,8,0,0,1,5.13-7.81c4-1.79,8.58-1.64,11.51.29-.48,3.47-3.43,7-7.38,8.84A8.06,8.06,0,0,1,95.19,44.54ZM59.11,12.62c0-5.27,2.49-10.34,6.1-12.62,3.61,2.28,6.09,7.35,6.09,12.62a9.8,9.8,0,0,1-6.09,9.6A9.81,9.81,0,0,1,59.11,12.62ZM0,107.31a.18.18,0,0,0,.19.18,2.6,2.6,0,0,0,.55-.18A180.73,180.73,0,0,1,51.51,96.9a20.16,20.16,0,0,0,.16-2,29.91,29.91,0,0,0-.25-3.72c-23.7,2.18-40.05,9-50.79,15.66C.19,107.07,0,107.13,0,107.31ZM46.7,13.08c-1.12-3.63-.48-7.65,1.52-10,3,.8,5.76,3.76,6.88,7.39a7.07,7.07,0,0,1-2.16,7.91A7,7,0,0,1,46.7,13.08Zm-19,18.77c-2.79-2.37-4.36-6-3.94-8.87,2.82-.89,6.61.07,9.39,2.43a6.75,6.75,0,0,1,2.34,7.51A6.76,6.76,0,0,1,27.7,31.85ZM28,58.24c-3.55-.38-6.79-2.43-8.06-5,1.8-2.27,5.4-3.58,9-3.19a6.65,6.65,0,0,1,6,4.81A6.63,6.63,0,0,1,28,58.24Zm8.25,9.24c-3.12.61-6.42-.28-8.18-2.16.94-2.4,3.65-4.46,6.78-5.06a5.89,5.89,0,0,1,6.39,2.5A5.88,5.88,0,0,1,36.26,67.48Zm16.5-31.81c-1.35-4.36-.59-9.18,1.82-12,3.56,1,6.9,4.52,8.25,8.88A8.43,8.43,0,0,1,60.25,42,8.47,8.47,0,0,1,52.76,35.67Zm-9.58,10c-3.13-2.66-4.89-6.68-4.42-10,3.17-1,7.42.08,10.56,2.73A7.62,7.62,0,0,1,52,46.87,7.62,7.62,0,0,1,43.18,45.66ZM37.3,25c-2.54-3.9-3.13-8.84-1.56-12.26,3.77-.05,8,2.5,10.58,6.41a8.64,8.64,0,0,1,.1,10A8.63,8.63,0,0,1,37.3,25ZM26,45.86C22,44.07,19.07,40.49,18.59,37c2.92-1.93,7.56-2.08,11.51-.29a8,8,0,0,1,5.12,7.81A8,8,0,0,1,26,45.86Z" fill="#56b948"/><path d="M39.59,51.54c-.63,0-.91.35-.91.74,0,.94,1,2,2.29,3.59,4.41,5.43,14.26,15.08,14.26,39,0,12.38-2,17.53-2,23.32,0,2.64.52,4,1.89,4,3.11,0,8.39-13.06,8.39-28.73C63.47,60.67,42.79,51.54,39.59,51.54Z" fill="#0982c6"/><path d="M90.82,51.54C87.63,51.54,67,60.67,67,93.47c0,15.67,5.27,28.73,8.39,28.73,1.37,0,1.89-1.37,1.89-4,0-5.79-2-10.94-2-23.32,0-23.92,9.84-33.57,14.25-39,1.31-1.61,2.29-2.65,2.29-3.59C91.73,51.89,91.46,51.54,90.82,51.54Z" fill="#0982c6"/><rect x="192.2" y="47.34" width="10.49" height="43.84" fill="#0982c6"/><path d="M197.44,29.5a6.38,6.38,0,1,0,6.49,6.37A6.43,6.43,0,0,0,197.44,29.5Z" fill="#0982c6"/><path d="M137.49,60.91c0,17,11.57,30.91,31.28,30.91a37.86,37.86,0,0,0,12.94-2v-9.4a30.22,30.22,0,0,1-11.84,2.22c-12.05,0-20.92-8.62-20.92-21.76s8.81-21.77,20.92-21.77a29.29,29.29,0,0,1,11.84,2.21V32a37.61,37.61,0,0,0-12.94-2C150.05,30,137.49,42.92,137.49,60.91Z" fill="#0982c6"/><path d="M350.92,48.2a59.28,59.28,0,0,0-14.42-2c-17.79,0-25.43,11.91-25.43,24.8,0,11.85,5.95,21.14,17.38,21.14A14.41,14.41,0,0,0,342,83.88h.27c.1,1.36.48,6,.6,7.29h9.42a110.42,110.42,0,0,1-1.33-14.48ZM340.44,69.42c0,10.06-3.94,14.25-9.63,14.25s-9-4.86-9-13.4c0-8.72,5-15.93,14.24-15.93a18.92,18.92,0,0,1,4.36.45Z" fill="#0982c6"/><path d="M286.41,46.22a14.48,14.48,0,0,0-12.85,7.15h-.19l-.45-6.17H263.5c.1,1.77.48,9.57.48,13.64V91.17h10.49V64.68c0-5.36,2.94-9.81,8.45-9.81,5.34,0,8.45,4.22,8.45,9.81V91.17h10.49V62.6C301.86,53.51,296.34,46.22,286.41,46.22Z" fill="#0982c6"/><path d="M212.25,71c0,11.85,6,21.14,17.39,21.14A14.46,14.46,0,0,0,242,85.92h.19v3.27c0,9-5.52,12.45-12.37,12.45a34,34,0,0,1-12.14-2.35v8.86A46.8,46.8,0,0,0,231,110c12.67,0,21.14-5.22,21.14-23.15V48.2a59,59,0,0,0-14.42-2C219.9,46.22,212.25,58.13,212.25,71Zm29.37-1.6c0,10.06-3.94,14.25-9.64,14.25S223,78.81,223,70.27c0-8.72,5-15.93,14.23-15.93a18.73,18.73,0,0,1,4.36.45Z" fill="#0982c6"/><path d="M370,88.52c0-.17,0-.33,0-.48v-.46a1.71,1.71,0,0,0-.35-1,1.51,1.51,0,0,0-1.1-.62,2.4,2.4,0,0,0,.93-.32,1.39,1.39,0,0,0,.63-1.26,1.59,1.59,0,0,0-1-1.62,4.74,4.74,0,0,0-1.75-.23h-2.24v6.4h1.13V86.41h.89a2.69,2.69,0,0,1,1.26.21,1.56,1.56,0,0,1,.6,1.46v.51l0,.21s0,0,0,.07a.14.14,0,0,0,0,.06H370l0-.08A.93.93,0,0,1,370,88.52Zm-1.67-3a3.28,3.28,0,0,1-1.08.14h-1V83.3h1a2.91,2.91,0,0,1,1.37.24,1,1,0,0,1,.43.94A1,1,0,0,1,368.28,85.48Z" fill="#0982c6"/><path d="M371.54,81.63a5.62,5.62,0,0,0-4.13-1.7,5.82,5.82,0,0,0-5.82,5.81,5.83,5.83,0,1,0,10-4.11Zm-.59,7.7a5,5,0,0,1-7.1,0,4.92,4.92,0,0,1-1.45-3.58,5,5,0,1,1,10,0A4.9,4.9,0,0,1,371,89.33Z" fill="#0982c6"/></svg>