<svg xmlns="http://www.w3.org/2000/svg" viewBox="0 0 235.76 251.98"><title>cigna-stacked-color</title><path d="M97.47,76.39a9.94,9.94,0,1,0,9.94-10.2,10.07,10.07,0,0,0-9.94,10.2" fill="#f8971f"/><path d="M192.31,140.41c-14.12-8.69-35.62-17.72-66.78-20.58a41.15,41.15,0,0,0-.32,4.88,22.37,22.37,0,0,0,.22,2.67,237.6,237.6,0,0,1,66.73,13.69,4,4,0,0,0,.72.23.22.22,0,0,0,.25-.23c0-.23-.25-.32-.82-.66M123.54,24.19a9.29,9.29,0,0,1-2.84-10.4c1.48-4.77,5.15-8.66,9-9.72,2.63,3.07,3.47,8.36,2,13.13A9.26,9.26,0,0,1,123.54,24.19Zm22.94,19.09a8.91,8.91,0,0,1,3.07-9.88c3.67-3.1,8.65-4.36,12.35-3.19.55,3.84-1.51,8.55-5.17,11.66A8.91,8.91,0,0,1,146.48,43.28Zm.72,28.8a8.77,8.77,0,0,1,7.94-6.33c4.67-.5,9.41,1.22,11.77,4.2-1.67,3.42-5.93,6.11-10.6,6.62A8.75,8.75,0,0,1,147.2,72.08Zm-8.3,10.43a7.79,7.79,0,0,1,8.41-3.3c4.11.8,7.68,3.5,8.91,6.66-2.32,2.47-6.65,3.64-10.76,2.84A7.78,7.78,0,0,1,138.9,82.51Zm-25-27.24c-2.86-2.58-5.25-6.47-3.4-12.47,1.78-5.73,6.18-10.41,10.86-11.67,3.16,3.69,4.16,10,2.39,15.76C121.92,52.89,117.75,54.76,113.93,55.27Zm10.91,6.35A10,10,0,0,1,128.3,50.5c4.12-3.48,9.72-4.9,13.89-3.59.61,4.33-1.7,9.62-5.82,13.11A10,10,0,0,1,124.84,61.62Zm7.27-23.29c-2.09-3.32-3.35-7.81.14-13.19,3.33-5.13,8.95-8.48,13.9-8.42,2.07,4.49,1.29,11-2,16.12C140.62,38.22,136,38.89,132.11,38.33Zm14.72,20.22c0-3.65,1.3-7.81,6.74-10.27,5.19-2.34,11.28-2.15,15.13.38-.63,4.57-4.52,9.27-9.71,11.62C153.55,62.74,149.6,61,146.83,58.55Zm-47.44-42c0-6.93,3.27-13.59,8-16.59,4.74,3,8,9.66,8,16.59,0,7.26-4,10.75-8,12.62C103.37,27.34,99.39,23.85,99.39,16.59ZM21.69,141.07a.22.22,0,0,0,.25.23,4,4,0,0,0,.72-.23A237.68,237.68,0,0,1,89.4,127.38a25.54,25.54,0,0,0,.21-2.67,41.15,41.15,0,0,0-.32-4.88c-31.16,2.86-52.65,11.89-66.78,20.58C21.94,140.75,21.69,140.84,21.69,141.07ZM83.08,17.2c-1.47-4.77-.64-10.06,2-13.13C89,5.13,92.64,9,94.12,13.79a9.29,9.29,0,0,1-2.83,10.4A9.28,9.28,0,0,1,83.08,17.2Zm-25,24.67c-3.66-3.11-5.72-7.82-5.17-11.66,3.7-1.17,8.68.09,12.35,3.19a8.89,8.89,0,0,1,3.07,9.88A8.91,8.91,0,0,1,58.09,41.87Zm.42,34.7c-4.67-.51-8.92-3.2-10.6-6.62,2.37-3,7.1-4.7,11.78-4.2a8.76,8.76,0,0,1,7.93,6.33A8.74,8.74,0,0,1,58.51,76.57ZM69.36,88.71c-4.11.8-8.44-.37-10.76-2.84,1.23-3.16,4.8-5.86,8.91-6.66a7.79,7.79,0,0,1,8.41,3.3A7.75,7.75,0,0,1,69.36,88.71ZM91.05,46.89c-1.78-5.73-.78-12.07,2.38-15.76,4.68,1.26,9.08,5.94,10.86,11.67,1.86,6-.54,9.89-3.4,12.47C97.07,54.76,92.9,52.89,91.05,46.89ZM78.45,60c-4.11-3.49-6.43-8.78-5.82-13.11C76.8,45.6,82.4,47,86.52,50.5A10,10,0,0,1,90,61.62,10,10,0,0,1,78.45,60ZM70.72,32.84c-3.34-5.13-4.12-11.63-2-16.12,5-.06,10.57,3.29,13.9,8.42,3.49,5.38,2.23,9.87.14,13.19C78.82,38.89,74.2,38.22,70.72,32.84ZM55.83,60.28c-5.19-2.35-9.07-7.05-9.71-11.62,3.85-2.53,10-2.72,15.14-.38A10.56,10.56,0,0,1,68,58.55C65.23,61,61.28,62.74,55.83,60.28Z" fill="#56b948"/><path d="M94.29,124.71c0,16.28-2.68,23-2.68,30.67,0,3.46.68,5.27,2.48,5.27,4.1,0,11-17.18,11-37.78,0-43.11-27.19-55.11-31.38-55.11-.84,0-1.2.45-1.2,1,0,1.24,1.29,2.61,3,4.73C81.35,80.59,94.29,93.28,94.29,124.71Z" fill="#0982c6"/><path d="M139.27,73.45c1.72-2.12,3-3.49,3-4.73,0-.51-.36-1-1.2-1-4.2,0-31.38,12-31.38,55.11,0,20.6,6.93,37.78,11,37.78,1.8,0,2.48-1.81,2.48-5.27,0-7.63-2.68-14.39-2.68-30.67C120.53,93.28,133.47,80.59,139.27,73.45Z" fill="#0982c6"/><rect x="54.71" y="189.28" width="10.49" height="43.84" fill="#0982c6"/><path d="M60,171.44a6.37,6.37,0,1,0,6.49,6.37A6.44,6.44,0,0,0,60,171.44Z" fill="#0982c6"/><path d="M0,202.85c0,17,11.57,30.9,31.28,30.9a38,38,0,0,0,12.95-2v-9.4a30.4,30.4,0,0,1-11.84,2.22c-12.06,0-20.93-8.62-20.93-21.76s8.81-21.77,20.93-21.77a29.33,29.33,0,0,1,11.84,2.21V173.9a37.63,37.63,0,0,0-12.95-2C12.57,171.93,0,184.86,0,202.85Z" fill="#0982c6"/><path d="M213.44,190.14a58.79,58.79,0,0,0-14.43-2c-17.78,0-25.42,11.91-25.42,24.8,0,11.85,5.95,21.14,17.37,21.14a14.4,14.4,0,0,0,13.51-8.28h.27c.11,1.36.49,6,.61,7.29h9.41a112.58,112.58,0,0,1-1.32-14.48ZM203,211.36c0,10.06-3.94,14.25-9.63,14.25s-9-4.87-9-13.4c0-8.72,5-15.93,14.23-15.93a18.32,18.32,0,0,1,4.36.45Z" fill="#0982c6"/><path d="M148.93,188.16a14.5,14.5,0,0,0-12.86,7.15h-.19l-.45-6.17H126c.1,1.77.48,9.57.48,13.64v30.33H137V206.62c0-5.36,2.93-9.81,8.45-9.81,5.34,0,8.45,4.22,8.45,9.81v26.49h10.48V204.53C164.37,195.44,158.85,188.16,148.93,188.16Z" fill="#0982c6"/><path d="M74.77,213c0,11.85,6,21.14,17.38,21.14a14.44,14.44,0,0,0,12.33-6.24h.2v3.27c0,9-5.52,12.45-12.38,12.45a33.7,33.7,0,0,1-12.14-2.36v8.87A46.8,46.8,0,0,0,93.47,252c12.68,0,21.15-5.23,21.15-23.16V190.14a58.7,58.7,0,0,0-14.43-2C82.42,188.16,74.77,200.07,74.77,213Zm29.36-1.6c0,10.06-3.94,14.25-9.64,14.25s-8.95-4.87-8.95-13.4c0-8.72,5-15.93,14.23-15.93a18.2,18.2,0,0,1,4.36.45Z" fill="#0982c6"/><path d="M232.46,230.46c0-.17,0-.33,0-.48v-.47a1.78,1.78,0,0,0-.35-1,1.55,1.55,0,0,0-1.1-.63,2.25,2.25,0,0,0,.92-.31,1.39,1.39,0,0,0,.63-1.26,1.58,1.58,0,0,0-1-1.62,4.77,4.77,0,0,0-1.75-.24h-2.25v6.41h1.13v-2.52h.89a2.69,2.69,0,0,1,1.26.21,1.56,1.56,0,0,1,.61,1.46v.51l0,.21s0,0,0,.07,0,0,0,.06h1.06l0-.08A.86.86,0,0,1,232.46,230.46Zm-1.67-3.05a2.93,2.93,0,0,1-1.07.15h-1v-2.32h1a3,3,0,0,1,1.37.24,1.15,1.15,0,0,1-.24,1.93Z" fill="#0982c6"/><path d="M234.05,223.57a5.62,5.62,0,0,0-4.13-1.7,5.82,5.82,0,0,0-5.82,5.81,5.83,5.83,0,1,0,11.66,0A5.57,5.57,0,0,0,234.05,223.57Zm-.58,7.7a5,5,0,0,1-7.1,0,4.93,4.93,0,0,1-1.46-3.58,4.86,4.86,0,0,1,1.46-3.55,5,5,0,0,1,7.1,0,4.86,4.86,0,0,1,1.46,3.55A4.93,4.93,0,0,1,233.47,231.27Z" fill="#0982c6"/></svg>