<?xml version="1.0" encoding="iso-8859-1"?>
<!-- Generator: Adobe Illustrator 19.1.0, SVG Export Plug-In . SVG Version: 6.00 Build 0)  -->
<svg version="1.1" id="Layer_1" xmlns="http://www.w3.org/2000/svg" xmlns:xlink="http://www.w3.org/1999/xlink" x="0px" y="0px"
	 viewBox="0 0 373.2 122.2" style="enable-background:new 0 0 373.2 122.2;" xml:space="preserve">
<style type="text/css">
	.st0{fill:#F8971F;}
	.st1{fill:#56B948;}
	.st2{fill:#0982C6;}
	.st3{fill:#BB8545;}
	.st4{fill:#0065A5;}
</style>
<path class="st0" d="M57.7,58.1c0,4.3,3.4,7.8,7.6,7.8c4.2,0,7.6-3.5,7.6-7.8c0-4.3-3.4-7.8-7.6-7.8C61,50.4,57.7,53.8,57.7,58.1"/>
<path class="st1" d="M129.8,106.8C119,100.2,102.7,93.3,79,91.2c0,0.3-0.2,2-0.2,3.7c0,0.8,0.1,1.8,0.2,2
	c23.1,1.5,39.6,6.4,50.8,10.4c0.2,0.1,0.4,0.2,0.6,0.2c0.1,0,0.2-0.1,0.2-0.2C130.4,107.1,130.2,107.1,129.8,106.8 M77.5,18.4
	c-1.8-1.6-3.3-4.1-2.2-7.9c1.1-3.6,3.9-6.6,6.9-7.4c2,2.3,2.6,6.4,1.5,10C82.5,16.9,79.9,18.1,77.5,18.4z M94.9,32.9
	c-0.6-2.3-0.6-5,2.3-7.5c2.8-2.4,6.6-3.3,9.4-2.4c0.4,2.9-1.2,6.5-3.9,8.9C99.8,34.3,97.1,33.9,94.9,32.9z M95.5,54.8
	c0.7-2.2,2.3-4.4,6-4.8c3.6-0.4,7.2,0.9,9,3.2c-1.3,2.6-4.5,4.6-8.1,5C98.7,58.6,96.7,56.8,95.5,54.8z M89.2,62.8
	c1.2-1.7,3.1-3.1,6.4-2.5c3.1,0.6,5.8,2.7,6.8,5.1c-1.8,1.9-5.1,2.8-8.2,2.2C90.9,66.8,89.7,64.8,89.2,62.8z M70.2,42
	c-2.2-2-4-4.9-2.6-9.5c1.3-4.4,4.7-7.9,8.3-8.9c2.4,2.8,3.2,7.6,1.8,12C76.2,40.2,73.1,41.7,70.2,42z M78.5,46.9
	c-0.7-2.5-0.6-5.7,2.6-8.5c3.1-2.7,7.4-3.7,10.6-2.7c0.5,3.3-1.3,7.3-4.4,10C84,48.4,80.9,48,78.5,46.9z M84,29.2
	c-1.6-2.5-2.6-5.9,0.1-10c2.5-3.9,6.8-6.5,10.6-6.4c1.6,3.4,1,8.4-1.6,12.3C90.5,29.1,87,29.6,84,29.2z M95.2,44.5
	c0-2.8,1-5.9,5.1-7.8c3.9-1.8,8.6-1.6,11.5,0.3c-0.5,3.5-3.4,7.1-7.4,8.8C100.3,47.7,97.3,46.4,95.2,44.5z M59.1,12.6
	c0-5.3,2.5-10.3,6.1-12.6c3.6,2.3,6.1,7.3,6.1,12.6c0,5.5-3,8.2-6.1,9.6C62.1,20.8,59.1,18.1,59.1,12.6z M0,107.3
	c0,0.1,0.1,0.2,0.2,0.2c0.1,0,0.3-0.1,0.5-0.2c11.2-4,27.6-8.9,50.8-10.4c0-0.2,0.2-1.2,0.2-2c0-1.7-0.2-3.4-0.2-3.7
	c-23.7,2.2-40.1,9-50.8,15.7C0.2,107.1,0,107.1,0,107.3z M46.7,13.1c-1.1-3.6-0.5-7.7,1.5-10c3,0.8,5.8,3.8,6.9,7.4
	c1.2,3.8-0.3,6.3-2.2,7.9C50.5,18.1,47.9,16.9,46.7,13.1z M27.7,31.8c-2.8-2.4-4.4-5.9-3.9-8.9c2.8-0.9,6.6,0.1,9.4,2.4
	c2.9,2.5,3,5.3,2.3,7.5C33.4,33.9,30.6,34.3,27.7,31.8z M28,58.2c-3.6-0.4-6.8-2.4-8.1-5c1.8-2.3,5.4-3.6,9-3.2
	c3.7,0.4,5.3,2.6,6,4.8C33.8,56.8,31.7,58.6,28,58.2z M36.3,67.5c-3.1,0.6-6.4-0.3-8.2-2.2c0.9-2.4,3.7-4.5,6.8-5.1
	c3.3-0.6,5.2,0.8,6.4,2.5C40.8,64.8,39.5,66.8,36.3,67.5z M52.8,35.7c-1.3-4.4-0.6-9.2,1.8-12c3.6,1,6.9,4.5,8.3,8.9
	c1.4,4.6-0.4,7.5-2.6,9.5C57.3,41.7,54.2,40.2,52.8,35.7z M43.2,45.7c-3.1-2.7-4.9-6.7-4.4-10c3.2-1,7.4,0.1,10.6,2.7
	c3.3,2.8,3.3,5.9,2.6,8.5C49.6,48,46.5,48.4,43.2,45.7z M37.3,25c-2.5-3.9-3.1-8.8-1.6-12.3c3.8,0,8,2.5,10.6,6.4
	c2.7,4.1,1.7,7.5,0.1,10C43.5,29.6,39.9,29.1,37.3,25z M26,45.9c-3.9-1.8-6.9-5.4-7.4-8.8c2.9-1.9,7.6-2.1,11.5-0.3
	c4.1,1.9,5.1,5,5.1,7.8C33.1,46.4,30.1,47.7,26,45.9z"/>
<g>
	<path class="st2" d="M39.6,51.5c-0.6,0-0.9,0.3-0.9,0.7c0,0.9,1,2,2.3,3.6c4.4,5.4,14.3,15.1,14.3,39c0,12.4-2,17.5-2,23.3
		c0,2.6,0.5,4,1.9,4c3.1,0,8.4-13.1,8.4-28.7C63.5,60.7,42.8,51.5,39.6,51.5z"/>
	<path class="st2" d="M90.8,51.5c-3.2,0-23.9,9.1-23.9,41.9c0,15.7,5.3,28.7,8.4,28.7c1.4,0,1.9-1.4,1.9-4c0-5.8-2-10.9-2-23.3
		c0-23.9,9.8-33.6,14.3-39c1.3-1.6,2.3-2.7,2.3-3.6C91.7,51.9,91.5,51.5,90.8,51.5z"/>
	<rect x="192.2" y="47.3" class="st2" width="10.5" height="43.8"/>
	<path class="st2" d="M197.4,29.5c-3.6,0-6.5,2.9-6.5,6.4c0,3.5,2.9,6.4,6.5,6.4c3.6,0,6.5-2.8,6.5-6.4
		C203.9,32.4,201,29.5,197.4,29.5z"/>
	<path class="st2" d="M137.5,60.9c0,17,11.6,30.9,31.3,30.9c5.8,0,10.1-0.9,12.9-2v-9.4c-2.8,1.3-7.4,2.2-11.8,2.2
		c-12.1,0-20.9-8.6-20.9-21.8c0-13,8.8-21.8,20.9-21.8c6,0,10.3,1.5,11.8,2.2V32c-2.6-1-6.9-2-12.9-2
		C150.1,30,137.5,42.9,137.5,60.9z"/>
	<path class="st2" d="M350.9,48.2c-1.6-0.4-7.6-2-14.4-2c-17.8,0-25.4,11.9-25.4,24.8c0,11.8,6,21.1,17.4,21.1
		c8.4,0,12.1-5.4,13.5-8.3h0.3c0.1,1.4,0.5,6,0.6,7.3h9.4c-0.3-2.5-1.3-8.9-1.3-14.5V48.2z M340.4,69.4c0,10.1-3.9,14.3-9.6,14.3
		c-5.7,0-9-4.9-9-13.4c0-8.7,5-15.9,14.2-15.9c1.9,0,3.2,0.2,4.4,0.5V69.4z"/>
	<path class="st2" d="M286.4,46.2c-8.2,0-11.8,5.4-12.9,7.2h-0.2l-0.5-6.2h-9.4c0.1,1.8,0.5,9.6,0.5,13.6v30.3h10.5V64.7
		c0-5.4,2.9-9.8,8.5-9.8c5.3,0,8.5,4.2,8.5,9.8v26.5h10.5V62.6C301.9,53.5,296.3,46.2,286.4,46.2z"/>
	<path class="st2" d="M212.3,71c0,11.8,6,21.1,17.4,21.1c7.5,0,11.1-4.6,12.3-6.2h0.2v3.3c0,9-5.5,12.4-12.4,12.4
		c-6.2,0-10.7-1.8-12.1-2.4v8.9c1.2,0.3,6.2,1.9,13.3,1.9c12.7,0,21.1-5.2,21.1-23.2V48.2c-1.6-0.4-7.6-2-14.4-2
		C219.9,46.2,212.3,58.1,212.3,71z M241.6,69.4c0,10.1-3.9,14.3-9.6,14.3c-5.7,0-9-4.9-9-13.4c0-8.7,5-15.9,14.2-15.9
		c1.9,0,3.2,0.2,4.4,0.5V69.4z"/>
	<path class="st2" d="M369.9,88.5c0-0.2,0-0.3,0-0.5v-0.5c0-0.3-0.1-0.7-0.3-1c-0.2-0.3-0.6-0.5-1.1-0.6c0.4-0.1,0.7-0.2,0.9-0.3
		c0.4-0.3,0.6-0.7,0.6-1.3c0-0.8-0.3-1.3-1-1.6c-0.4-0.2-1-0.2-1.8-0.2h-2.2v6.4h1.1v-2.5h0.9c0.6,0,1,0.1,1.3,0.2
		c0.4,0.2,0.6,0.7,0.6,1.5v0.5l0,0.2c0,0,0,0,0,0.1c0,0,0,0,0,0.1h1.1l0-0.1C370,88.8,370,88.7,369.9,88.5z M368.3,85.5
		c-0.2,0.1-0.6,0.1-1.1,0.1h-1v-2.3h1c0.6,0,1.1,0.1,1.4,0.2c0.3,0.2,0.4,0.5,0.4,0.9C368.9,85,368.7,85.3,368.3,85.5z"/>
	<path class="st2" d="M371.5,81.6c-1.1-1.1-2.5-1.7-4.1-1.7c-1.6,0-3,0.6-4.1,1.7c-1.1,1.1-1.7,2.5-1.7,4.1c0,1.6,0.6,3,1.7,4.1
		c1.1,1.1,2.5,1.7,4.1,1.7c1.6,0,3-0.6,4.1-1.7c1.1-1.1,1.7-2.5,1.7-4.1C373.2,84.1,372.7,82.8,371.5,81.6z M371,89.3
		c-1,1-2.2,1.5-3.5,1.5c-1.4,0-2.6-0.5-3.6-1.5c-1-1-1.5-2.2-1.5-3.6c0-1.4,0.5-2.6,1.5-3.6c1-1,2.2-1.5,3.5-1.5
		c1.4,0,2.6,0.5,3.5,1.5c1,1,1.5,2.2,1.5,3.6C372.4,87.1,371.9,88.3,371,89.3z"/>
</g>
<g>
	<path class="st3" d="M-71.2,363.5c1.2-0.2,2.5-0.3,4-0.3c2.7,0,4.6,0.7,5.9,1.8c1.3,1.2,2.1,2.9,2.1,5.3c0,2.4-0.8,4.3-2.1,5.7
		c-1.4,1.4-3.7,2.1-6.5,2.1c-1.4,0-2.5-0.1-3.4-0.2V363.5z M-69.3,376.5c0.5,0.1,1.2,0.1,1.9,0.1c4.1,0,6.2-2.3,6.2-6.2
		c0-3.5-1.9-5.6-5.9-5.6c-1,0-1.7,0.1-2.2,0.2V376.5z"/>
	<path class="st3" d="M-47.2,372.6c0,3.9-2.7,5.6-5.2,5.6c-2.8,0-5-2.1-5-5.4c0-3.5,2.3-5.6,5.2-5.6
		C-49.2,367.2-47.2,369.4-47.2,372.6z M-55.5,372.7c0,2.3,1.3,4,3.2,4c1.8,0,3.2-1.7,3.2-4.1c0-1.8-0.9-4-3.2-4
		C-54.5,368.7-55.5,370.7-55.5,372.7z"/>
	<path class="st3" d="M-44.2,367.4l1.4,5.3c0.3,1.2,0.6,2.3,0.8,3.3h0.1c0.2-1.1,0.6-2.2,0.9-3.3l1.7-5.4h1.6l1.6,5.3
		c0.4,1.3,0.7,2.4,0.9,3.4h0.1c0.2-1.1,0.5-2.2,0.8-3.4l1.5-5.3h1.9l-3.4,10.5H-36l-1.6-5c-0.4-1.2-0.7-2.2-0.9-3.5h0
		c-0.3,1.3-0.6,2.3-1,3.5l-1.7,5H-43l-3.2-10.5H-44.2z"/>
	<path class="st3" d="M-28.9,370.3c0-1.1,0-2-0.1-2.8h1.7l0.1,1.7h0c0.5-1,1.7-2,3.5-2c1.5,0,3.7,0.9,3.7,4.5v6.3h-1.9v-6.1
		c0-1.7-0.6-3.1-2.4-3.1c-1.2,0-2.2,0.9-2.6,2c-0.1,0.2-0.1,0.6-0.1,0.9v6.3h-1.9V370.3z"/>
	<path class="st3" d="M-16.9,362.5h1.9V378h-1.9V362.5z"/>
	<path class="st3" d="M-2.2,372.6c0,3.9-2.7,5.6-5.2,5.6c-2.8,0-5-2.1-5-5.4c0-3.5,2.3-5.6,5.2-5.6C-4.3,367.2-2.2,369.4-2.2,372.6z
		 M-10.6,372.7c0,2.3,1.3,4,3.2,4c1.8,0,3.2-1.7,3.2-4.1c0-1.8-0.9-4-3.2-4C-9.6,368.7-10.6,370.7-10.6,372.7z"/>
	<path class="st3" d="M7.6,375.4c0,0.9,0,1.8,0.2,2.5H6l-0.2-1.3H5.8c-0.6,0.8-1.7,1.6-3.2,1.6c-2.1,0-3.2-1.5-3.2-3
		c0-2.5,2.3-3.9,6.3-3.9v-0.2c0-0.8-0.2-2.4-2.4-2.4c-1,0-2,0.3-2.8,0.8l-0.4-1.3c0.9-0.5,2.2-0.9,3.5-0.9c3.2,0,4,2.2,4,4.3V375.4z
		 M5.7,372.6c-2.1,0-4.5,0.3-4.5,2.4c0,1.3,0.8,1.8,1.8,1.8c1.4,0,2.3-0.9,2.6-1.8c0.1-0.2,0.1-0.4,0.1-0.6V372.6z"/>
	<path class="st3" d="M19.7,362.5v12.7c0,0.9,0,2,0.1,2.7h-1.7l-0.1-1.8H18c-0.6,1.2-1.8,2.1-3.5,2.1c-2.5,0-4.5-2.2-4.5-5.3
		c0-3.5,2.2-5.6,4.7-5.6c1.6,0,2.7,0.8,3.2,1.6h0v-6.3H19.7z M17.8,371.7c0-0.2,0-0.6-0.1-0.8c-0.3-1.2-1.3-2.2-2.8-2.2
		c-2,0-3.2,1.7-3.2,4c0,2.1,1.1,3.9,3.1,3.9c1.3,0,2.5-0.9,2.8-2.3c0.1-0.3,0.1-0.5,0.1-0.8V371.7z"/>
	<path class="st3" d="M26.9,378v-1.2l1.5-1.5c3.6-3.4,5.3-5.3,5.3-7.4c0-1.4-0.7-2.8-2.8-2.8c-1.3,0-2.3,0.7-3,1.2l-0.6-1.3
		c1-0.8,2.4-1.4,4-1.4c3,0,4.3,2.1,4.3,4.1c0,2.6-1.9,4.7-4.9,7.6l-1.1,1v0h6.3v1.6H26.9z"/>
	<path class="st3" d="M47.5,370.7c0,4.8-1.8,7.5-4.9,7.5c-2.8,0-4.6-2.6-4.7-7.3c0-4.8,2.1-7.3,4.9-7.3
		C45.8,363.6,47.5,366.2,47.5,370.7z M39.8,371c0,3.7,1.1,5.8,2.9,5.8c1.9,0,2.9-2.3,2.9-5.9c0-3.5-0.9-5.8-2.9-5.8
		C41,365.1,39.8,367.1,39.8,371z"/>
	<path class="st3" d="M58.6,370.7c0,4.8-1.8,7.5-4.9,7.5c-2.8,0-4.6-2.6-4.7-7.3c0-4.8,2.1-7.3,4.9-7.3
		C56.9,363.6,58.6,366.2,58.6,370.7z M51,371c0,3.7,1.1,5.8,2.9,5.8c1.9,0,2.9-2.3,2.9-5.9c0-3.5-0.9-5.8-2.9-5.8
		C52.2,365.1,51,367.1,51,371z"/>
	<path class="st3" d="M59.7,380.7c0.5-1.3,1.1-3.6,1.3-5.2l2.1-0.2c-0.5,1.8-1.5,4.3-2.1,5.3L59.7,380.7z"/>
	<path class="st3" d="M74.3,370.7c0,4.8-1.8,7.5-4.9,7.5c-2.8,0-4.6-2.6-4.7-7.3c0-4.8,2.1-7.3,4.9-7.3
		C72.6,363.6,74.3,366.2,74.3,370.7z M66.6,371c0,3.7,1.1,5.8,2.9,5.8c1.9,0,2.9-2.3,2.9-5.9c0-3.5-0.9-5.8-2.9-5.8
		C67.8,365.1,66.6,367.1,66.6,371z"/>
	<path class="st3" d="M85.4,370.7c0,4.8-1.8,7.5-4.9,7.5c-2.8,0-4.6-2.6-4.7-7.3c0-4.8,2.1-7.3,4.9-7.3
		C83.7,363.6,85.4,366.2,85.4,370.7z M77.8,371c0,3.7,1.1,5.8,2.9,5.8c1.9,0,2.9-2.3,2.9-5.9c0-3.5-0.9-5.8-2.9-5.8
		C79,365.1,77.8,367.1,77.8,371z"/>
	<path class="st3" d="M96.6,370.7c0,4.8-1.8,7.5-4.9,7.5c-2.8,0-4.7-2.6-4.7-7.3c0-4.8,2.1-7.3,4.9-7.3
		C94.9,363.6,96.6,366.2,96.6,370.7z M88.9,371c0,3.7,1.1,5.8,2.9,5.8c1.9,0,2.9-2.3,2.9-5.9c0-3.5-0.9-5.8-2.9-5.8
		C90.1,365.1,88.9,367.1,88.9,371z"/>
	<path class="st3" d="M104.5,366.4v5.1h4.9v1.3h-4.9v5.1h-1.4v-5.1h-4.9v-1.3h4.9v-5.1H104.5z"/>
	<path class="st3" d="M116.5,362.5h1.9v6.6h0c0.7-1.2,1.9-1.9,3.6-1.9c2.6,0,4.5,2.2,4.5,5.3c0,3.8-2.4,5.6-4.7,5.6
		c-1.5,0-2.7-0.6-3.5-2h0L118,378h-1.6c0-0.7,0.1-1.8,0.1-2.7V362.5z M118.4,373.7c0,0.2,0,0.5,0.1,0.7c0.3,1.3,1.5,2.2,2.9,2.2
		c2,0,3.2-1.6,3.2-4c0-2.1-1.1-3.9-3.2-3.9c-1.3,0-2.5,0.9-2.9,2.3c-0.1,0.2-0.1,0.5-0.1,0.8V373.7z"/>
	<path class="st3" d="M128.9,370.7c0-1.2,0-2.3-0.1-3.3h1.7l0.1,2.1h0.1c0.5-1.4,1.7-2.3,2.9-2.3c0.2,0,0.3,0,0.5,0v1.8
		c-0.2,0-0.4,0-0.7,0c-1.3,0-2.3,1-2.6,2.4c0,0.3-0.1,0.6-0.1,0.9v5.6h-1.9V370.7z"/>
	<path class="st3" d="M143.2,375.4c0,0.9,0,1.8,0.2,2.5h-1.7l-0.2-1.3h-0.1c-0.6,0.8-1.7,1.6-3.2,1.6c-2.1,0-3.2-1.5-3.2-3
		c0-2.5,2.3-3.9,6.3-3.9v-0.2c0-0.8-0.2-2.4-2.4-2.4c-1,0-2,0.3-2.8,0.8l-0.4-1.3c0.9-0.5,2.2-0.9,3.5-0.9c3.2,0,4,2.2,4,4.3V375.4z
		 M141.4,372.6c-2.1,0-4.5,0.3-4.5,2.4c0,1.3,0.8,1.8,1.8,1.8c1.4,0,2.3-0.9,2.6-1.8c0.1-0.2,0.1-0.4,0.1-0.6V372.6z"/>
	<path class="st3" d="M146.3,370.3c0-1.1,0-2-0.1-2.8h1.7l0.1,1.7h0c0.5-1,1.7-2,3.5-2c1.5,0,3.7,0.9,3.7,4.5v6.3h-1.9v-6.1
		c0-1.7-0.6-3.1-2.4-3.1c-1.2,0-2.2,0.9-2.6,2c-0.1,0.2-0.1,0.6-0.1,0.9v6.3h-1.9V370.3z"/>
	<path class="st3" d="M167.4,362.5v12.7c0,0.9,0,2,0.1,2.7h-1.7l-0.1-1.8h-0.1c-0.6,1.2-1.8,2.1-3.5,2.1c-2.5,0-4.5-2.2-4.5-5.3
		c0-3.5,2.2-5.6,4.7-5.6c1.6,0,2.7,0.8,3.2,1.6h0v-6.3H167.4z M165.6,371.7c0-0.2,0-0.6-0.1-0.8c-0.3-1.2-1.3-2.2-2.8-2.2
		c-2,0-3.2,1.7-3.2,4c0,2.1,1.1,3.9,3.1,3.9c1.3,0,2.5-0.9,2.8-2.3c0.1-0.3,0.1-0.5,0.1-0.8V371.7z"/>
	<path class="st3" d="M175.3,362.5h1.9V378h-1.9V362.5z"/>
	<path class="st3" d="M189.9,372.6c0,3.9-2.7,5.6-5.2,5.6c-2.8,0-5-2.1-5-5.4c0-3.5,2.3-5.6,5.2-5.6
		C187.9,367.2,189.9,369.4,189.9,372.6z M181.6,372.7c0,2.3,1.3,4,3.2,4c1.8,0,3.2-1.7,3.2-4.1c0-1.8-0.9-4-3.2-4
		C182.6,368.7,181.6,370.7,181.6,372.7z"/>
	<path class="st3" d="M201.3,376.4c0,2.4-0.5,3.9-1.5,4.8c-1,0.9-2.5,1.3-3.8,1.3c-1.3,0-2.7-0.3-3.5-0.9l0.5-1.5
		c0.7,0.5,1.8,0.8,3.1,0.8c2,0,3.4-1,3.4-3.7v-1.2h0c-0.6,1-1.7,1.8-3.3,1.8c-2.6,0-4.5-2.2-4.5-5.1c0-3.6,2.3-5.6,4.8-5.6
		c1.8,0,2.8,0.9,3.3,1.8h0l0.1-1.6h1.7c-0.1,0.7-0.1,1.6-0.1,2.9V376.4z M199.4,371.6c0-0.3,0-0.6-0.1-0.8c-0.3-1.1-1.3-2-2.7-2
		c-1.8,0-3.1,1.5-3.1,4c0,2.1,1.1,3.8,3.1,3.8c1.2,0,2.3-0.7,2.7-2c0.1-0.3,0.2-0.7,0.2-1V371.6z"/>
	<path class="st3" d="M214,372.6c0,3.9-2.7,5.6-5.2,5.6c-2.8,0-5-2.1-5-5.4c0-3.5,2.3-5.6,5.2-5.6C211.9,367.2,214,369.4,214,372.6z
		 M205.7,372.7c0,2.3,1.3,4,3.2,4c1.8,0,3.2-1.7,3.2-4.1c0-1.8-0.9-4-3.2-4C206.6,368.7,205.7,370.7,205.7,372.7z"/>
	<path class="st3" d="M216.1,376c0.6,0.3,1.6,0.7,2.5,0.7c1.4,0,2-0.7,2-1.6c0-0.9-0.5-1.4-1.9-1.9c-1.9-0.7-2.8-1.7-2.8-3
		c0-1.7,1.4-3.1,3.6-3.1c1.1,0,2,0.3,2.6,0.7l-0.5,1.4c-0.4-0.3-1.2-0.6-2.2-0.6c-1.1,0-1.7,0.7-1.7,1.4c0,0.9,0.6,1.3,2,1.8
		c1.8,0.7,2.8,1.6,2.8,3.2c0,1.9-1.5,3.2-3.9,3.2c-1.2,0-2.2-0.3-3-0.7L216.1,376z"/>
	<path class="st3" d="M231.7,364.5c0,0.7-0.5,1.2-1.2,1.2c-0.7,0-1.2-0.5-1.2-1.2c0-0.7,0.5-1.2,1.2-1.2
		C231.3,363.3,231.7,363.8,231.7,364.5z M229.6,378v-10.5h1.9V378H229.6z"/>
	<path class="st3" d="M234.7,370.3c0-1.1,0-2-0.1-2.8h1.7l0.1,1.7h0c0.5-1,1.7-2,3.5-2c1.5,0,3.7,0.9,3.7,4.5v6.3h-1.9v-6.1
		c0-1.7-0.6-3.1-2.4-3.1c-1.2,0-2.2,0.9-2.6,2c-0.1,0.2-0.1,0.6-0.1,0.9v6.3h-1.9V370.3z"/>
	<path class="st3" d="M252.1,367.4l2.1,5.9c0.3,1,0.6,1.8,0.8,2.7h0.1c0.2-0.9,0.5-1.7,0.9-2.7l2-5.9h2l-4.1,10.5h-1.8l-4-10.5
		H252.1z"/>
	<path class="st3" d="M262.7,373.1c0,2.6,1.7,3.7,3.6,3.7c1.4,0,2.2-0.2,2.9-0.5l0.3,1.4c-0.7,0.3-1.8,0.7-3.5,0.7
		c-3.2,0-5.2-2.2-5.2-5.3c0-3.2,1.9-5.7,4.9-5.7c3.5,0,4.3,3,4.3,4.9c0,0.4,0,0.7-0.1,0.9H262.7z M268.3,371.7
		c0-1.2-0.5-3.1-2.7-3.1c-2,0-2.8,1.8-2.9,3.1H268.3z"/>
	<path class="st3" d="M280,377.6c-0.5,0.2-1.6,0.6-3,0.6c-3.2,0-5.2-2.2-5.2-5.4c0-3.2,2.2-5.6,5.7-5.6c1.1,0,2.1,0.3,2.7,0.6
		l-0.4,1.5c-0.5-0.2-1.2-0.5-2.2-0.5c-2.4,0-3.7,1.8-3.7,4c0,2.4,1.6,3.9,3.7,3.9c1.1,0,1.8-0.3,2.3-0.5L280,377.6z"/>
	<path class="st3" d="M284.8,364.9v2.5h2.7v1.5h-2.7v5.7c0,1.3,0.4,2,1.4,2c0.5,0,0.8,0,1.1-0.1l0.1,1.5c-0.4,0.1-1,0.3-1.7,0.3
		c-0.9,0-1.6-0.3-2.1-0.8c-0.5-0.6-0.7-1.5-0.7-2.8v-5.7h-1.6v-1.5h1.6v-2L284.8,364.9z"/>
	<path class="st3" d="M299.1,372.6c0,3.9-2.7,5.6-5.2,5.6c-2.8,0-5-2.1-5-5.4c0-3.5,2.3-5.6,5.2-5.6
		C297,367.2,299.1,369.4,299.1,372.6z M290.8,372.7c0,2.3,1.3,4,3.2,4c1.8,0,3.2-1.7,3.2-4.1c0-1.8-0.9-4-3.2-4
		C291.7,368.7,290.8,370.7,290.8,372.7z"/>
	<path class="st3" d="M301.5,370.7c0-1.2,0-2.3-0.1-3.3h1.7l0.1,2.1h0.1c0.5-1.4,1.7-2.3,2.9-2.3c0.2,0,0.3,0,0.5,0v1.8
		c-0.2,0-0.4,0-0.7,0c-1.3,0-2.3,1-2.6,2.4c0,0.3-0.1,0.6-0.1,0.9v5.6h-1.9V370.7z"/>
	<path class="st3" d="M313.4,378v-9.1H312v-1.5h1.5v-0.5c0-1.5,0.3-2.8,1.2-3.7c0.7-0.7,1.7-1,2.6-1c0.7,0,1.3,0.2,1.6,0.3l-0.3,1.5
		c-0.3-0.1-0.7-0.2-1.2-0.2c-1.6,0-2,1.4-2,3v0.6h2.5v1.5h-2.5v9.1H313.4z"/>
	<path class="st3" d="M328.8,372.6c0,3.9-2.7,5.6-5.2,5.6c-2.8,0-5-2.1-5-5.4c0-3.5,2.3-5.6,5.2-5.6
		C326.8,367.2,328.8,369.4,328.8,372.6z M320.5,372.7c0,2.3,1.3,4,3.2,4c1.8,0,3.2-1.7,3.2-4.1c0-1.8-0.9-4-3.2-4
		C321.5,368.7,320.5,370.7,320.5,372.7z"/>
	<path class="st3" d="M331.2,370.7c0-1.2,0-2.3-0.1-3.3h1.7l0.1,2.1h0.1c0.5-1.4,1.7-2.3,2.9-2.3c0.2,0,0.3,0,0.5,0v1.8
		c-0.2,0-0.4,0-0.7,0c-1.3,0-2.3,1-2.6,2.4c0,0.3-0.1,0.6-0.1,0.9v5.6h-1.9V370.7z"/>
	<path class="st3" d="M338.4,370.3c0-1.1,0-2-0.1-2.8h1.7l0.1,1.7h0.1c0.6-1,1.6-1.9,3.3-1.9c1.4,0,2.5,0.9,3,2.1h0
		c0.3-0.6,0.8-1,1.2-1.4c0.6-0.5,1.3-0.7,2.3-0.7c1.4,0,3.5,0.9,3.5,4.6v6.2h-1.9V372c0-2-0.8-3.2-2.3-3.2c-1.1,0-1.9,0.8-2.3,1.7
		c-0.1,0.3-0.2,0.6-0.2,1v6.5H345v-6.3c0-1.7-0.7-2.9-2.2-2.9c-1.2,0-2.1,1-2.4,1.9c-0.1,0.3-0.2,0.6-0.2,0.9v6.3h-1.9V370.3z"/>
	<path class="st3" d="M363.9,375.4c0,0.9,0,1.8,0.2,2.5h-1.7l-0.2-1.3h-0.1c-0.6,0.8-1.7,1.6-3.2,1.6c-2.1,0-3.2-1.5-3.2-3
		c0-2.5,2.3-3.9,6.3-3.9v-0.2c0-0.8-0.2-2.4-2.4-2.4c-1,0-2,0.3-2.8,0.8l-0.4-1.3c0.9-0.5,2.2-0.9,3.5-0.9c3.2,0,4,2.2,4,4.3V375.4z
		 M362.1,372.6c-2.1,0-4.5,0.3-4.5,2.4c0,1.3,0.8,1.8,1.8,1.8c1.4,0,2.3-0.9,2.6-1.8c0.1-0.2,0.1-0.4,0.1-0.6V372.6z"/>
	<path class="st3" d="M369.2,364.9v2.5h2.7v1.5h-2.7v5.7c0,1.3,0.4,2,1.4,2c0.5,0,0.8,0,1.1-0.1l0.1,1.5c-0.4,0.1-1,0.3-1.7,0.3
		c-0.9,0-1.6-0.3-2.1-0.8c-0.5-0.6-0.7-1.5-0.7-2.8v-5.7h-1.6v-1.5h1.6v-2L369.2,364.9z"/>
	<path class="st3" d="M378.9,378v-9.1h-1.5v-1.5h1.5v-0.5c0-1.5,0.3-2.8,1.2-3.7c0.7-0.7,1.7-1,2.6-1c0.7,0,1.3,0.2,1.6,0.3
		l-0.3,1.5c-0.3-0.1-0.7-0.2-1.2-0.2c-1.6,0-2,1.4-2,3v0.6h2.5v1.5h-2.5v9.1H378.9z"/>
	<path class="st3" d="M394.3,372.6c0,3.9-2.7,5.6-5.2,5.6c-2.8,0-5-2.1-5-5.4c0-3.5,2.3-5.6,5.2-5.6
		C392.3,367.2,394.3,369.4,394.3,372.6z M386,372.7c0,2.3,1.3,4,3.2,4c1.8,0,3.2-1.7,3.2-4.1c0-1.8-0.9-4-3.2-4
		C387,368.7,386,370.7,386,372.7z"/>
	<path class="st3" d="M396.7,370.7c0-1.2,0-2.3-0.1-3.3h1.7l0.1,2.1h0.1c0.5-1.4,1.7-2.3,2.9-2.3c0.2,0,0.3,0,0.5,0v1.8
		c-0.2,0-0.4,0-0.7,0c-1.3,0-2.3,1-2.6,2.4c0,0.3-0.1,0.6-0.1,0.9v5.6h-1.9V370.7z"/>
	<path class="st3" d="M408.6,378v-9.1h-1.5v-1.5h1.5v-0.5c0-1.5,0.3-2.8,1.2-3.7c0.7-0.7,1.7-1,2.6-1c0.7,0,1.3,0.2,1.6,0.3
		l-0.3,1.5c-0.3-0.1-0.7-0.2-1.2-0.2c-1.6,0-2,1.4-2,3v0.6h2.5v1.5h-2.5v9.1H408.6z"/>
	<path class="st3" d="M414.8,370.7c0-1.2,0-2.3-0.1-3.3h1.7l0.1,2.1h0.1c0.5-1.4,1.7-2.3,2.9-2.3c0.2,0,0.3,0,0.5,0v1.8
		c-0.2,0-0.4,0-0.7,0c-1.3,0-2.3,1-2.6,2.4c0,0.3-0.1,0.6-0.1,0.9v5.6h-1.9V370.7z"/>
	<path class="st3" d="M422.7,373.1c0,2.6,1.7,3.7,3.6,3.7c1.4,0,2.2-0.2,2.9-0.5l0.3,1.4c-0.7,0.3-1.8,0.7-3.5,0.7
		c-3.2,0-5.2-2.2-5.2-5.3c0-3.2,1.9-5.7,4.9-5.7c3.5,0,4.3,3,4.3,4.9c0,0.4,0,0.7-0.1,0.9H422.7z M428.3,371.7
		c0-1.2-0.5-3.1-2.7-3.1c-2,0-2.8,1.8-2.9,3.1H428.3z"/>
	<path class="st3" d="M433.6,373.1c0,2.6,1.7,3.7,3.6,3.7c1.4,0,2.2-0.2,2.9-0.5l0.3,1.4c-0.7,0.3-1.8,0.7-3.5,0.7
		c-3.2,0-5.2-2.2-5.2-5.3c0-3.2,1.9-5.7,4.9-5.7c3.5,0,4.3,3,4.3,4.9c0,0.4,0,0.7-0.1,0.9H433.6z M439.2,371.7
		c0-1.2-0.5-3.1-2.7-3.1c-2,0-2.8,1.8-2.9,3.1H439.2z"/>
	<path class="st3" d="M442.7,376.8c0-0.8,0.5-1.4,1.3-1.4c0.8,0,1.3,0.6,1.3,1.4c0,0.8-0.5,1.4-1.3,1.4
		C443.3,378.2,442.7,377.6,442.7,376.8z"/>
	<path class="st4" d="M40.2,388.6h3.3v6.1h0c0.3-0.5,0.8-0.8,1.3-1.1c0.5-0.3,1.1-0.4,1.7-0.4c2.1,0,3.7,1.5,3.7,4.7v6.2h-3.3v-5.8
		c0-1.4-0.5-2.3-1.7-2.3c-0.9,0-1.4,0.6-1.7,1.2c-0.1,0.2-0.1,0.5-0.1,0.7v6.3h-3.3V388.6z"/>
	<path class="st4" d="M58.6,390.5v2.9H61v2.4h-2.4v3.8c0,1.3,0.3,1.9,1.3,1.9c0.5,0,0.7,0,1-0.1l0,2.5c-0.4,0.2-1.2,0.3-2.1,0.3
		c-1.1,0-2-0.4-2.5-0.9c-0.6-0.6-0.9-1.7-0.9-3.2v-4.3H54v-2.4h1.4v-2L58.6,390.5z"/>
	<path class="st4" d="M68.8,390.5v2.9h2.4v2.4h-2.4v3.8c0,1.3,0.3,1.9,1.3,1.9c0.5,0,0.7,0,1-0.1l0,2.5c-0.4,0.2-1.2,0.3-2.1,0.3
		c-1.1,0-2-0.4-2.5-0.9c-0.6-0.6-0.9-1.7-0.9-3.2v-4.3h-1.4v-2.4h1.4v-2L68.8,390.5z"/>
	<path class="st4" d="M75.2,397c0-1.4,0-2.6-0.1-3.6H78l0.2,1.5h0c0.8-1.1,2-1.7,3.5-1.7c2.3,0,4.4,2,4.4,5.4c0,3.9-2.5,5.7-4.8,5.7
		c-1.3,0-2.3-0.5-2.8-1.2h0v5.3h-3.3V397z M78.5,399.5c0,0.3,0,0.5,0.1,0.7c0.2,0.9,1,1.6,1.9,1.6c1.4,0,2.3-1.2,2.3-3
		c0-1.7-0.8-3-2.2-3c-0.9,0-1.8,0.7-2,1.7c0,0.2-0.1,0.4-0.1,0.6V399.5z"/>
	<path class="st4" d="M90.2,395.3c0-1.2,0.8-2,1.9-2c1.2,0,1.9,0.8,1.9,2c0,1.1-0.8,2-2,2C91,397.3,90.2,396.4,90.2,395.3z
		 M90.2,402.3c0-1.2,0.8-2,1.9-2c1.2,0,1.9,0.8,1.9,2c0,1.1-0.8,2-2,2C91,404.3,90.2,403.4,90.2,402.3z"/>
	<path class="st4" d="M97.3,404.9l4.7-15.8h2.2l-4.7,15.8H97.3z"/>
	<path class="st4" d="M106.6,404.9l4.7-15.8h2.2l-4.7,15.8H106.6z"/>
	<path class="st4" d="M119.3,393.4l0.9,4.4c0.2,1.1,0.4,2.3,0.6,3.5h0.1c0.2-1.2,0.5-2.4,0.8-3.5l1.1-4.4h2.6l1.1,4.2
		c0.3,1.2,0.6,2.4,0.8,3.6h0c0.2-1.2,0.4-2.4,0.6-3.6l0.9-4.2h3.2l-3.3,10.6h-3.1l-1-3.7c-0.3-1-0.5-2-0.7-3.3h0
		c-0.2,1.3-0.4,2.3-0.7,3.3l-1.1,3.7H119l-3.1-10.6H119.3z"/>
	<path class="st4" d="M138.3,393.4l0.9,4.4c0.2,1.1,0.4,2.3,0.6,3.5h0.1c0.2-1.2,0.5-2.4,0.8-3.5l1.1-4.4h2.6l1.1,4.2
		c0.3,1.2,0.6,2.4,0.8,3.6h0c0.2-1.2,0.4-2.4,0.6-3.6l0.9-4.2h3.2l-3.3,10.6h-3.1l-1-3.7c-0.3-1-0.5-2-0.7-3.3h0
		c-0.2,1.3-0.4,2.3-0.7,3.3l-1.1,3.7h-3.1l-3.1-10.6H138.3z"/>
	<path class="st4" d="M157.4,393.4l0.9,4.4c0.2,1.1,0.4,2.3,0.6,3.5h0.1c0.2-1.2,0.5-2.4,0.8-3.5l1.1-4.4h2.6l1.1,4.2
		c0.3,1.2,0.6,2.4,0.8,3.6h0c0.2-1.2,0.4-2.4,0.6-3.6l0.9-4.2h3.2l-3.3,10.6h-3.1l-1-3.7c-0.3-1-0.5-2-0.7-3.3h0
		c-0.2,1.3-0.4,2.3-0.7,3.3l-1.1,3.7h-3.1l-3.1-10.6H157.4z"/>
	<path class="st4" d="M172.5,402.3c0-1.2,0.8-2,2-2c1.1,0,1.9,0.8,1.9,2c0,1.2-0.8,2-2,2C173.3,404.3,172.5,403.4,172.5,402.3z"/>
	<path class="st4" d="M180.6,388.6h3.3V404h-3.3V388.6z"/>
	<path class="st4" d="M199.2,398.6c0,3.9-2.8,5.7-5.6,5.7c-3.1,0-5.5-2-5.5-5.5c0-3.5,2.3-5.6,5.7-5.6
		C197.1,393.2,199.2,395.4,199.2,398.6z M191.5,398.7c0,1.8,0.8,3.2,2.2,3.2c1.3,0,2.1-1.3,2.1-3.2c0-1.6-0.6-3.2-2.1-3.2
		C192.2,395.5,191.5,397.2,191.5,398.7z"/>
	<path class="st4" d="M213.6,402.5c0,2-0.4,3.7-1.6,4.8c-1.2,1-2.7,1.3-4.3,1.3c-1.4,0-2.9-0.3-3.8-0.8l0.7-2.5
		c0.7,0.4,1.8,0.8,3.1,0.8c1.6,0,2.8-0.8,2.8-2.8v-0.7h0c-0.6,0.9-1.7,1.4-2.9,1.4c-2.6,0-4.5-2.1-4.5-5.2c0-3.4,2.2-5.6,4.8-5.6
		c1.5,0,2.4,0.6,2.9,1.5h0l0.1-1.3h2.9c0,0.7-0.1,1.6-0.1,3.2V402.5z M210.3,397.7c0-0.2,0-0.4-0.1-0.6c-0.2-0.9-0.9-1.5-1.8-1.5
		c-1.2,0-2.2,1.1-2.2,3c0,1.6,0.8,2.8,2.2,2.8c0.9,0,1.5-0.6,1.8-1.3c0.1-0.3,0.1-0.6,0.1-0.9V397.7z"/>
	<path class="st4" d="M228.9,398.6c0,3.9-2.8,5.7-5.6,5.7c-3.1,0-5.5-2-5.5-5.5c0-3.5,2.3-5.6,5.7-5.6
		C226.7,393.2,228.9,395.4,228.9,398.6z M221.2,398.7c0,1.8,0.8,3.2,2.2,3.2c1.3,0,2.1-1.3,2.1-3.2c0-1.6-0.6-3.2-2.1-3.2
		C221.8,395.5,221.2,397.2,221.2,398.7z"/>
	<path class="st4" d="M235.7,399.8c0.1,1.4,1.5,2,3,2c1.1,0,2-0.2,2.9-0.5l0.4,2.2c-1.1,0.5-2.4,0.7-3.8,0.7c-3.6,0-5.7-2.1-5.7-5.4
		c0-2.7,1.7-5.7,5.4-5.7c3.4,0,4.7,2.7,4.7,5.3c0,0.6-0.1,1.1-0.1,1.3H235.7z M239.6,397.5c0-0.8-0.3-2.2-1.9-2.2
		c-1.4,0-2,1.3-2,2.2H239.6z"/>
	<path class="st4" d="M246.8,397c0-1.4,0-2.6-0.1-3.6h2.9l0.2,1.5h0c0.8-1.1,2-1.7,3.5-1.7c2.3,0,4.4,2,4.4,5.4
		c0,3.9-2.5,5.7-4.8,5.7c-1.3,0-2.3-0.5-2.8-1.2h0v5.3h-3.3V397z M250.1,399.5c0,0.3,0,0.5,0.1,0.7c0.2,0.9,1,1.6,1.9,1.6
		c1.4,0,2.3-1.2,2.3-3c0-1.7-0.8-3-2.2-3c-0.9,0-1.8,0.7-2,1.7c0,0.2-0.1,0.4-0.1,0.6V399.5z"/>
	<path class="st4" d="M262,401.2c0.6,0.4,1.9,0.8,2.8,0.8c1,0,1.4-0.3,1.4-0.9c0-0.6-0.3-0.8-1.5-1.2c-2.2-0.7-3.1-1.9-3-3.2
		c0-2,1.7-3.5,4.3-3.5c1.2,0,2.3,0.3,3,0.6l-0.6,2.3c-0.5-0.3-1.4-0.6-2.3-0.6c-0.8,0-1.3,0.3-1.3,0.8c0,0.5,0.4,0.8,1.7,1.2
		c2,0.7,2.8,1.7,2.9,3.3c0,2-1.5,3.5-4.6,3.5c-1.4,0-2.6-0.3-3.4-0.8L262,401.2z"/>
	<path class="st4" d="M273.2,402.3c0-1.2,0.8-2,2-2c1.1,0,1.9,0.8,1.9,2c0,1.2-0.8,2-2,2C274,404.3,273.2,403.4,273.2,402.3z"/>
	<path class="st4" d="M289.2,403.8c-0.6,0.3-1.7,0.5-3,0.5c-3.4,0-5.6-2.1-5.6-5.4c0-3.1,2.1-5.6,6.1-5.6c0.9,0,1.8,0.2,2.5,0.4
		l-0.5,2.5c-0.4-0.2-1-0.3-1.8-0.3c-1.7,0-2.9,1.2-2.8,3c0,1.9,1.3,3,2.9,3c0.8,0,1.4-0.1,1.9-0.3L289.2,403.8z"/>
	<path class="st4" d="M303.4,398.6c0,3.9-2.8,5.7-5.6,5.7c-3.1,0-5.5-2-5.5-5.5c0-3.5,2.3-5.6,5.7-5.6
		C301.3,393.2,303.4,395.4,303.4,398.6z M295.8,398.7c0,1.8,0.8,3.2,2.2,3.2c1.3,0,2.1-1.3,2.1-3.2c0-1.6-0.6-3.2-2.1-3.2
		C296.4,395.5,295.8,397.2,295.8,398.7z"/>
	<path class="st4" d="M307.7,396.8c0-1.3,0-2.4-0.1-3.4h2.8l0.1,1.4h0.1c0.5-0.7,1.4-1.7,3.2-1.7c1.4,0,2.5,0.7,2.9,1.8h0
		c0.4-0.6,0.9-1,1.4-1.3c0.6-0.3,1.2-0.5,2-0.5c2,0,3.6,1.4,3.6,4.6v6.3h-3.2v-5.8c0-1.5-0.5-2.4-1.6-2.4c-0.8,0-1.3,0.5-1.5,1.2
		c-0.1,0.2-0.1,0.6-0.1,0.8v6.2h-3.2v-6c0-1.3-0.5-2.2-1.5-2.2c-0.8,0-1.3,0.7-1.5,1.2c-0.1,0.3-0.1,0.6-0.1,0.8v6.2h-3.2V396.8z"/>
	<path class="st4" d="M327.6,404.9l4.6-15.8h2.2l-4.7,15.8H327.6z"/>
</g>
<g>
</g>
<g>
</g>
</svg>
