<svg xmlns="http://www.w3.org/2000/svg" viewBox="0 0 226.32 42.8"><title>white</title><path d="M9.81,20.46c0,2.34.08,3.87.85,4.76a4.55,4.55,0,0,0,3.52,1.23c7.34,0,9.85-6.54,9.85-12.31C24,6.5,20,2,12.31,2a3.09,3.09,0,0,0-2.21.56A5.23,5.23,0,0,0,9.81,5ZM3.74,7c0-4-.09-4.84-2-5.06L.89,1.87C.47,1.66.47.42,1,.38,4.54.17,7.85,0,12.35,0a29.73,29.73,0,0,1,9.9,1.4,12.87,12.87,0,0,1,8.61,12.31c0,5.69-2.71,10.28-7.59,12.7-2.89,1.44-6.37,2-10.75,2-2,0-4.11-.25-5.64-.25-2,0-4.21,0-6.63.13a1.24,1.24,0,0,1,0-1.49l1.32-.21c1.91-.3,2.17-.64,2.17-4.55Z" fill="#fff"/><path d="M25.25,37.23c0,.37,0,.4.38.4h.92c.7,0,.86-.1,1-.74l.07-.33c.09-.11.43-.11.49,0,0,.43,0,.91,0,1.42s0,1,0,1.42c-.06.12-.4.13-.49,0l-.07-.33c-.13-.64-.29-.75-1-.75h-.92c-.36,0-.38,0-.38.41v1.6a2.43,2.43,0,0,0,.22,1.27c.17.24.43.35,1.4.35,1.17,0,1.62,0,2.36-1.56a.32.32,0,0,1,.49.07,7.33,7.33,0,0,1-.56,2.14c-.71,0-2,0-3.09,0H24.33c-.64,0-1.3,0-2.3,0a.38.38,0,0,1,0-.47l.63-.09c.6-.09.68-.17.68-1.41v-5c0-1.22-.08-1.3-.68-1.42l-.34-.06a.33.33,0,0,1,0-.47c.63,0,1.28,0,1.93,0h2.83c.86,0,1.62,0,1.8,0,0,.21.1,1.17.17,2.07,0,.15-.36.18-.49,0a3.19,3.19,0,0,0-.51-1,1.75,1.75,0,0,0-1.31-.42H25.7c-.45,0-.45,0-.45.52Z" fill="#fff"/><path d="M37.39,40.65c0,1.25.08,1.36.68,1.44l.54.06a.44.44,0,0,1,0,.47c-.87,0-1.53,0-2.17,0s-1.31,0-2.1,0a.38.38,0,0,1,0-.47l.45-.06c.61-.1.69-.19.69-1.44V40a2.82,2.82,0,0,0-.36-1.59l-1.6-3.29c-.26-.55-.38-.76-.85-.85l-.46-.08c-.12-.1-.11-.42.06-.46.6,0,1.09,0,1.88,0s1.5,0,2,0c.12,0,.14.36,0,.46l-.45.11c-.24.06-.32.11-.32.12a3,3,0,0,0,.35.94l.62,1.43c.2.44.51,1.06.67,1.39.39-.65.81-1.52,1.15-2.2a5.42,5.42,0,0,0,.65-1.52c0-.08-.22-.16-.54-.21L38,34.17c-.11-.06-.12-.4,0-.46.54,0,1,0,1.5,0s.92,0,1.31,0c.16,0,.16.37.05.46l-.34.07a1.23,1.23,0,0,0-.7.32,15.7,15.7,0,0,0-1.16,1.9L37.83,38a3,3,0,0,0-.44,1.73Z" fill="#fff"/><path d="M46.83,37.23c0,.37,0,.4.37.4h.92c.7,0,.86-.1,1-.74l.07-.33c.1-.11.43-.11.5,0,0,.43,0,.91,0,1.42s0,1,0,1.42a.39.39,0,0,1-.5,0l-.07-.33c-.13-.64-.29-.75-1-.75H47.2c-.36,0-.37,0-.37.41v1.6A2.45,2.45,0,0,0,47,41.62c.18.24.43.35,1.41.35,1.16,0,1.62,0,2.35-1.56a.34.34,0,0,1,.5.07,8,8,0,0,1-.56,2.14c-.71,0-2,0-3.1,0H45.9c-.64,0-1.3,0-2.3,0a.38.38,0,0,1,0-.47l.63-.09c.6-.09.68-.17.68-1.41v-5c0-1.22-.08-1.3-.68-1.42l-.34-.06a.34.34,0,0,1,0-.47c.63,0,1.29,0,1.93,0h2.84c.85,0,1.62,0,1.79,0,0,.21.11,1.17.18,2.07-.06.15-.37.18-.5,0a3.19,3.19,0,0,0-.51-1,1.72,1.72,0,0,0-1.31-.42H47.27c-.44,0-.44,0-.44.52Z" fill="#fff"/><path d="M63.15,33.88A18,18,0,0,0,63.31,36a.36.36,0,0,1-.5.09,2.44,2.44,0,0,0-2.52-1.91c-1.49,0-3.08,1.27-3.08,3.93s1.54,4.1,3.15,4.1a2.89,2.89,0,0,0,2.73-2.07.38.38,0,0,1,.51.09,6.26,6.26,0,0,1-.51,2.1,10.08,10.08,0,0,1-2.72.5,6.11,6.11,0,0,1-3.6-1,4.22,4.22,0,0,1-1.7-3.51,4.45,4.45,0,0,1,1.62-3.55,5.85,5.85,0,0,1,3.71-1.19,15.88,15.88,0,0,1,2.75.35" fill="#fff"/><path d="M71.24,38.85c.3,0,.37,0,.26-.39l-.34-1.09c-.19-.57-.43-1.29-.55-1.58-.11.31-.38,1-.58,1.65l-.33,1c-.12.36-.06.4.28.4Zm-1.53.71c-.32,0-.36,0-.44.26l-.52,1.56a1.58,1.58,0,0,0-.1.48c0,.08.18.16.55.23l.4.06c.08.1.11.4,0,.47l-1.52,0c-.45,0-.76,0-1.38,0-.14-.08-.13-.36,0-.47l.36,0a.9.9,0,0,0,.81-.67c.23-.53.48-1.17.85-2.14L69.88,36a4.92,4.92,0,0,0,.5-1.7,2.64,2.64,0,0,0,1.16-.81c.18,0,.26.07.31.27.11.39.27.88.6,1.83l1.83,5.25c.28.8.4,1.11.89,1.19l.51.08c.08.07.11.39,0,.47-.65,0-1.37,0-2.06,0s-1.2,0-1.81,0a.3.3,0,0,1,0-.47l.43-.06c.31-.06.36-.15.36-.23a5.19,5.19,0,0,0-.25-.91L72,39.8c-.07-.22-.18-.24-.65-.24Z" fill="#fff"/><path d="M81.89,37.61c0,.47,0,.51.83.51a1.32,1.32,0,0,0,1-.37,2,2,0,0,0,.48-1.45,1.77,1.77,0,0,0-1.76-2c-.55,0-.57,0-.57.69Zm-1.84-1.69c0-1.34,0-1.49-.58-1.57l-.37-.05c-.13-.07-.13-.41,0-.47,1-.07,2.05-.12,3.32-.12a5.64,5.64,0,0,1,2.63.48,2.19,2.19,0,0,1,1.17,2,2.16,2.16,0,0,1-1.42,2c-.13.06-.13.14-.06.29a10.92,10.92,0,0,0,2.07,3.35,1.62,1.62,0,0,0,.9.37.26.26,0,0,1,.05.35,3,3,0,0,1-1.06.12,2.73,2.73,0,0,1-2.59-1.4,16.91,16.91,0,0,1-1-2.08.68.68,0,0,0-.71-.47c-.47,0-.49,0-.49.3v1.64c0,1.23.08,1.33.68,1.44l.36.06a.41.41,0,0,1,0,.47c-.71,0-1.32,0-2,0s-1.25,0-1.95,0a.38.38,0,0,1,0-.47l.36-.06c.6-.11.68-.21.68-1.44Z" fill="#fff"/><path d="M94.07,37.23c0,.37,0,.4.37.4h.93c.69,0,.85-.1,1-.74l.06-.33c.1-.11.43-.11.5,0,0,.43,0,.91,0,1.42s0,1,0,1.42a.39.39,0,0,1-.5,0l-.06-.33c-.14-.64-.3-.75-1-.75h-.93c-.36,0-.37,0-.37.41v1.6a2.45,2.45,0,0,0,.21,1.27c.17.24.43.35,1.41.35,1.16,0,1.62,0,2.35-1.56a.34.34,0,0,1,.5.07A7.66,7.66,0,0,1,98,42.62c-.71,0-2,0-3.1,0H93.14c-.64,0-1.29,0-2.3,0a.38.38,0,0,1,0-.47l.63-.09c.6-.09.68-.17.68-1.41v-5c0-1.22-.08-1.3-.68-1.42l-.33-.06a.33.33,0,0,1,0-.47c.63,0,1.29,0,1.93,0h2.84c.85,0,1.62,0,1.79,0,0,.21.11,1.17.17,2.07,0,.15-.36.18-.49,0a3,3,0,0,0-.51-1,1.72,1.72,0,0,0-1.31-.42H94.51c-.44,0-.44,0-.44.52Z" fill="#fff"/><path d="M114.77,37.61c0,.47,0,.51.83.51a1.32,1.32,0,0,0,1-.37,2,2,0,0,0,.48-1.45,1.77,1.77,0,0,0-1.75-2c-.55,0-.58,0-.58.69Zm-1.83-1.69c0-1.34,0-1.49-.59-1.57L112,34.3c-.14-.07-.14-.41,0-.47,1-.07,2-.12,3.32-.12a5.64,5.64,0,0,1,2.63.48,2.19,2.19,0,0,1,1.17,2,2.16,2.16,0,0,1-1.42,2c-.13.06-.13.14-.06.29a10.92,10.92,0,0,0,2.07,3.35,1.62,1.62,0,0,0,.9.37.26.26,0,0,1,0,.35,3,3,0,0,1-1,.12,2.74,2.74,0,0,1-2.6-1.4,15.52,15.52,0,0,1-1-2.08.69.69,0,0,0-.71-.47c-.47,0-.5,0-.5.3v1.64c0,1.23.08,1.33.68,1.44l.36.06a.41.41,0,0,1,0,.47c-.7,0-1.32,0-2,0s-1.26,0-2,0a.41.41,0,0,1,0-.47l.36-.06c.61-.11.69-.21.69-1.44Z" fill="#fff"/><path d="M127,37.23c0,.37,0,.4.37.4h.93c.69,0,.85-.1,1-.74l.06-.33c.1-.11.43-.11.5,0,0,.43,0,.91,0,1.42s0,1,0,1.42a.39.39,0,0,1-.5,0l-.06-.33c-.14-.64-.3-.75-1-.75h-.93c-.36,0-.37,0-.37.41v1.6a2.45,2.45,0,0,0,.21,1.27c.18.24.43.35,1.41.35,1.16,0,1.62,0,2.35-1.56a.34.34,0,0,1,.5.07,7.66,7.66,0,0,1-.56,2.14c-.71,0-2,0-3.09,0H126c-.65,0-1.3,0-2.31,0a.41.41,0,0,1,0-.47l.63-.09c.6-.09.68-.17.68-1.41v-5c0-1.22-.08-1.3-.68-1.42l-.33-.06a.34.34,0,0,1,0-.47c.63,0,1.29,0,1.93,0h2.84c.86,0,1.62,0,1.79,0,0,.21.11,1.17.18,2.07-.06.15-.36.18-.5,0a3,3,0,0,0-.51-1,1.72,1.72,0,0,0-1.31-.42h-1.07c-.44,0-.44,0-.44.52Z" fill="#fff"/><path d="M138.1,37.33c0,.37,0,.41.37.41h1c.71,0,.86-.1,1-.75l.07-.32a.39.39,0,0,1,.51,0c0,.43,0,.92,0,1.43s0,1,0,1.39a.41.41,0,0,1-.51,0l-.07-.33c-.13-.64-.28-.74-1-.74h-1c-.36,0-.37,0-.37.4v1.8c0,1.25.08,1.36.68,1.44l.49.06a.41.41,0,0,1,0,.47c-.83,0-1.48,0-2.12,0s-1.29,0-2.09,0a.38.38,0,0,1,0-.47l.44-.06c.6-.1.68-.19.68-1.44v-5c0-1.24-.08-1.36-.68-1.46l-.27,0c-.12-.08-.12-.42,0-.47.57,0,1.24,0,1.89,0H140c.85,0,1.62,0,1.8,0,0,.22,0,1.19,0,2.08,0,.15-.35.17-.51.06a3.33,3.33,0,0,0-.39-1.05,1.56,1.56,0,0,0-1.31-.44h-1c-.44,0-.44,0-.44.55Z" fill="#fff"/><path d="M148.56,37.61c0,.47,0,.51.83.51a1.32,1.32,0,0,0,1-.37,2,2,0,0,0,.48-1.45,1.77,1.77,0,0,0-1.75-2c-.55,0-.58,0-.58.69Zm-1.83-1.69c0-1.34,0-1.49-.59-1.57l-.36-.05c-.14-.07-.14-.41,0-.47,1-.07,2-.12,3.32-.12a5.64,5.64,0,0,1,2.63.48,2.19,2.19,0,0,1-.24,4c-.14.06-.14.14-.07.29a10.92,10.92,0,0,0,2.07,3.35,1.62,1.62,0,0,0,.9.37.26.26,0,0,1,.05.35,3,3,0,0,1-1.05.12,2.74,2.74,0,0,1-2.6-1.4,15.52,15.52,0,0,1-1-2.08.69.69,0,0,0-.71-.47c-.47,0-.5,0-.5.3v1.64c0,1.23.08,1.33.68,1.44l.36.06a.41.41,0,0,1,0,.47c-.7,0-1.32,0-2,0s-1.26,0-2,0a.41.41,0,0,1,0-.47l.36-.06c.61-.11.69-.21.69-1.44Z" fill="#fff"/><path d="M161.57,38.85c.31,0,.37,0,.27-.39l-.35-1.09c-.19-.57-.43-1.29-.55-1.58-.11.31-.37,1-.58,1.65l-.33,1c-.12.36-.05.4.28.4Zm-1.53.71c-.32,0-.36,0-.44.26l-.52,1.56a1.47,1.47,0,0,0-.09.48c0,.08.17.16.55.23l.4.06c.08.1.1.4,0,.47l-1.51,0c-.46,0-.77,0-1.38,0-.15-.08-.14-.36,0-.47l.36,0a.92.92,0,0,0,.82-.67c.22-.53.48-1.17.84-2.14L160.22,36a5.07,5.07,0,0,0,.49-1.7,2.7,2.7,0,0,0,1.17-.81c.17,0,.25.07.31.27.1.39.26.88.6,1.83l1.82,5.25c.28.8.4,1.11.89,1.19l.51.08c.08.07.11.39,0,.47-.64,0-1.37,0-2.06,0s-1.19,0-1.81,0a.3.3,0,0,1,0-.47l.42-.06c.31-.06.37-.15.37-.23a5.7,5.7,0,0,0-.26-.91l-.36-1.15c-.07-.22-.17-.24-.64-.24Z" fill="#fff"/><path d="M169.32,34.17c-.11-.1-.11-.42,0-.46.45,0,1,0,1.68,0,.45,0,.83,0,1.32,0a7.68,7.68,0,0,0,1,2.9l.89,1.89c.12.27.6,1.11.79,1.44.17-.32.38-.73.75-1.52l.68-1.47a16.64,16.64,0,0,0,1.27-3.24c.62,0,.92,0,1.33,0s1,0,1.54,0a.34.34,0,0,1,0,.46l-.39.07c-.55.1-.82.26-.82,1,0,2.75,0,4.2.11,5.88,0,.62.08.94.6,1l.43,0c.11.11.11.42,0,.47-.61,0-1.19,0-1.85,0s-1.33,0-2,0a.31.31,0,0,1,0-.47l.4,0c.62-.08.62-.24.62-1.06l0-3.48V36h0c-1,2.14-2.07,4.37-2.95,6.64a.44.44,0,0,1-.27.09.71.71,0,0,1-.34-.08c-.53-1.66-2.17-5-2.92-6.72h0c-.05.87-.07,1.46-.08,2.15,0,.87,0,2.21,0,3,0,.66.08.85.62.93l.52.08a.38.38,0,0,1,0,.47c-.49,0-1.07,0-1.57,0s-.94,0-1.48,0c-.17,0-.17-.4,0-.47l.24,0c.68-.12.76-.2.84-1,.07-.65.11-1.82.19-3.09,0-.9.08-2,.08-2.7s-.29-1-.83-1.06Z" fill="#fff"/><path d="M187.67,37.23c0,.37,0,.4.37.4H189c.7,0,.86-.1,1-.74l.07-.33c.1-.11.43-.11.5,0,0,.43,0,.91,0,1.42s0,1,0,1.42a.39.39,0,0,1-.5,0l-.07-.33c-.13-.64-.29-.75-1-.75H188c-.36,0-.37,0-.37.41v1.6a2.45,2.45,0,0,0,.21,1.27c.17.24.43.35,1.41.35,1.16,0,1.62,0,2.35-1.56a.34.34,0,0,1,.5.07,7.63,7.63,0,0,1-.57,2.14c-.7,0-2,0-3.09,0h-1.74c-.64,0-1.3,0-2.3,0a.38.38,0,0,1,0-.47l.63-.09c.6-.09.68-.17.68-1.41v-5c0-1.22-.08-1.3-.68-1.42l-.34-.06a.34.34,0,0,1,0-.47c.63,0,1.29,0,1.93,0h2.84c.85,0,1.62,0,1.79,0,0,.21.11,1.17.17,2.07-.05.15-.36.18-.49,0a3.19,3.19,0,0,0-.51-1,1.72,1.72,0,0,0-1.31-.42h-1.07c-.44,0-.44,0-.44.52Z" fill="#fff"/><path d="M198.81,40.16a2.42,2.42,0,0,0,.27,1.5,1.43,1.43,0,0,0,1.11.39c2.32,0,3.11-2.06,3.11-3.89,0-2.41-1.27-3.84-3.7-3.84-.36,0-.61.07-.69.18a1.57,1.57,0,0,0-.1.77Zm-1.91-4.24c0-1.28,0-1.53-.64-1.6l-.26,0c-.13-.07-.13-.46,0-.47,1.12-.07,2.17-.12,3.59-.12a9.24,9.24,0,0,1,3.12.44A4.06,4.06,0,0,1,205.45,38a4.26,4.26,0,0,1-2.39,4,7.42,7.42,0,0,1-3.39.63c-.63,0-1.3-.08-1.78-.08-.64,0-1.33,0-2.09,0a.38.38,0,0,1,0-.47l.42-.06c.6-.1.68-.21.68-1.44Z" fill="#fff"/><path d="M40.77,18.88c.76,0,.93-.1.66-1l-.86-2.69C40.1,13.79,39.5,12,39.2,11.3c-.26.76-.93,2.56-1.43,4.09l-.83,2.49c-.3.9-.13,1,.7,1ZM37,20.64c-.8,0-.9,0-1.1.66l-1.3,3.86a3.8,3.8,0,0,0-.23,1.19c0,.2.43.4,1.36.57l1,.16c.2.24.27,1-.07,1.17-1.16-.07-2.35-.07-3.75-.1-1.13,0-1.89.1-3.42.1-.37-.2-.33-.9-.1-1.17l.9-.1a2.26,2.26,0,0,0,2-1.66c.57-1.33,1.2-2.92,2.09-5.31l3-8.11c.76-2.1,1.33-3.26,1.23-4.22a6.76,6.76,0,0,0,2.89-2c.43,0,.63.17.76.67.27,1,.67,2.19,1.5,4.55l4.52,13c.7,2,1,2.76,2.23,3l1.26.19c.2.17.26,1,0,1.17-1.59-.07-3.39-.1-5.11-.1s-3,0-4.49.1a.76.76,0,0,1-.07-1.17l1.07-.16c.76-.14.9-.37.9-.57a14.48,14.48,0,0,0-.64-2.26l-.89-2.86c-.17-.53-.44-.59-1.6-.59Z" fill="#fff"/><path d="M63.29,19.91c-1.69,4-2.55,6.64-3.32,8.5a2.18,2.18,0,0,1-1.16.27,1.36,1.36,0,0,1-.9-.27c-.37-.89-.93-2.66-1.4-3.79L51.13,11.1c-1.26-3.19-1.43-3.26-2.49-3.52l-1.33-.33a.84.84,0,0,1,.13-1.13c1.7,0,2.79.1,4.52.1,1.53,0,3,0,5-.1.26.2.23.83,0,1.13l-1,.2c-.59.13-.83.33-.83.63a27.36,27.36,0,0,0,1.33,3.65l2.93,7.48c.46,1.23.86,2.23,1.09,2.79.27-.56.8-1.69,1.2-2.69L63,16.18c.83-2.09,2.26-5.81,2.66-6.94A4.42,4.42,0,0,0,66,8c0-.23-.26-.36-1.06-.56l-1.06-.23c-.27-.27-.27-1,.13-1.13,1.56.06,2.82.1,4.08.1s2.13,0,3.09-.1c.27.13.3.93.07,1.13l-.86.16a2.45,2.45,0,0,0-1.93,1.1,39.06,39.06,0,0,0-2.69,5.65Z" fill="#fff"/><path d="M78.11,23.3c0,3.12.2,3.35,1.73,3.62l.93.16a1,1,0,0,1,0,1.17c-1.8-.07-3.43-.1-5-.1s-3.25,0-5,.1a1,1,0,0,1,0-1.17l.93-.16c1.53-.27,1.73-.5,1.73-3.62V11.07c0-3.13-.2-3.36-1.73-3.62l-.93-.17a1,1,0,0,1,0-1.16c1.8.06,3.46.1,5,.1s3.22,0,5-.1a.93.93,0,0,1,0,1.16l-.93.17c-1.53.26-1.73.49-1.73,3.62Z" fill="#fff"/><path d="M89.37,28.68a11.48,11.48,0,0,1-5.64-1.26c-.64-.73-1.07-3.13-1.07-5.39a.83.83,0,0,1,1.27-.1c.66,2.16,2.89,5.22,5.71,5.22a3.3,3.3,0,0,0,3.59-3.36c0-2.69-2.53-4.28-4.52-5.28-2.39-1.2-5-3.19-5-6.48,0-3.75,2.89-6.35,7.71-6.35a13.46,13.46,0,0,1,3.79.54,7.29,7.29,0,0,0,1.13.26,16,16,0,0,1,.6,4.75c-.17.4-1,.43-1.3.1-.56-1.69-2-4.12-4.38-4.12a3.09,3.09,0,0,0-3.39,3.09c0,1.53,1.36,2.93,3,3.79l2.19,1.16c2.06,1.1,4.69,3,4.69,6.68,0,4.09-3.36,6.75-8.38,6.75" fill="#fff"/><path d="M125.92,17.62c-2.17,5.14-3.27,8.49-4.25,10.87a2.88,2.88,0,0,1-1.49.34,1.76,1.76,0,0,1-1.14-.34c-.47-1.15-1.19-3.4-1.78-4.84L110.38,6.37c-1.62-4.08-1.83-4.16-3.19-4.5l-1.69-.43A1.07,1.07,0,0,1,105.67,0c2.16,0,3.56.13,5.77.13,2,0,3.78,0,6.37-.13.34.25.29,1.06,0,1.44l-1.27.26c-.77.17-1.06.42-1.06.81a34,34,0,0,0,1.69,4.66L121,16.73c.59,1.57,1.1,2.84,1.4,3.56.34-.72,1-2.16,1.53-3.44l1.61-4c1.06-2.67,2.89-7.43,3.4-8.87a5.39,5.39,0,0,0,.42-1.53c0-.29-.34-.46-1.36-.72l-1.35-.3c-.34-.34-.34-1.23.17-1.44,2,.09,3.6.13,5.22.13,1.44,0,2.72,0,3.95-.13.34.17.38,1.19.08,1.44l-1.1.22a3.14,3.14,0,0,0-2.47,1.4A49.8,49.8,0,0,0,129,10.27Z" fill="#fff"/><path d="M142.48,23.3c0,3.12.2,3.35,1.73,3.62l.93.16a1,1,0,0,1,0,1.17c-1.8-.07-3.42-.1-5-.1s-3.25,0-5.05.1a1,1,0,0,1,0-1.17l.93-.16c1.53-.27,1.73-.5,1.73-3.62V11.07c0-3.13-.2-3.36-1.73-3.62l-.93-.17a1,1,0,0,1,0-1.16c1.8.06,3.46.1,5.05.1s3.23,0,5-.1a.93.93,0,0,1,0,1.16l-.93.17c-1.53.26-1.73.49-1.73,3.62Z" fill="#fff"/><path d="M153.75,28.68a11.59,11.59,0,0,1-5.66-1.26c-.62-.73-1.06-3.13-1.06-5.39a.83.83,0,0,1,1.27-.1c.66,2.16,2.89,5.22,5.71,5.22a3.3,3.3,0,0,0,3.59-3.36c0-2.69-2.53-4.28-4.52-5.28-2.39-1.2-5-3.19-5-6.48,0-3.75,2.89-6.35,7.71-6.35a13.46,13.46,0,0,1,3.79.54,7.29,7.29,0,0,0,1.13.26,16,16,0,0,1,.6,4.75c-.17.4-1,.43-1.3.1-.56-1.69-2-4.12-4.38-4.12a3.09,3.09,0,0,0-3.39,3.09c0,1.53,1.36,2.93,3,3.79l2.19,1.16c2.06,1.1,4.69,3,4.69,6.68,0,4.09-3.36,6.75-8.37,6.75" fill="#fff"/><path d="M171.62,23.3c0,3.12.2,3.35,1.73,3.62l.93.16a1,1,0,0,1,0,1.17c-1.8-.07-3.43-.1-5-.1s-3.25,0-5,.1a1,1,0,0,1,0-1.17l.93-.16c1.53-.27,1.73-.5,1.73-3.62V11.07c0-3.13-.2-3.36-1.73-3.62l-.93-.17a1,1,0,0,1,0-1.16c1.8.06,3.46.1,5,.1s3.22,0,5-.1a1,1,0,0,1,0,1.16l-.93.17c-1.53.26-1.73.49-1.73,3.62Z" fill="#fff"/><path d="M188.33,7.21c-4.08,0-6.28,3.82-6.28,9.37,0,4.06,1.43,10.57,6.85,10.57,4.35,0,6-4.25,6-9.64,0-5.68-2.5-10.3-6.62-10.3m11.93,9.87c0,7.25-4.85,11.6-12,11.6-6.68,0-11.53-4.39-11.53-11.33A11.44,11.44,0,0,1,188.6,5.68c6.91,0,11.66,4.66,11.66,11.4" fill="#fff"/><path d="M223.26,22.5c0,2.16,0,4.25.06,5.35a2.61,2.61,0,0,1-2,.76s-1.13-1.69-2.69-3.62L211,15.49a47.64,47.64,0,0,0-3.62-4.26,6.14,6.14,0,0,0-.16,2.13v6.45a23.63,23.63,0,0,0,.49,6.08c.3.7,1.07.93,1.93,1.06l.93.13a1.06,1.06,0,0,1,0,1.17c-1.79-.07-3.12-.1-4.45-.1s-2.46,0-3.72.1a1.06,1.06,0,0,1,0-1.17L203,27c.9-.16,1.56-.39,1.83-1.09.37-.9.46-3.39.46-6.08V11.37A7.67,7.67,0,0,0,205,8.54c-.26-.56-.73-1-1.89-1.13l-.93-.13c-.24-.27-.2-1.06.13-1.16,1.56.06,3.22.1,4.59.1,1.13,0,2.09,0,2.79-.1.33,1.49,2.49,4,5.48,7.57L218,17c1.46,1.73,2.43,2.89,3.19,3.66a4.89,4.89,0,0,0,.13-1.5V14.56a23.53,23.53,0,0,0-.49-6.08c-.3-.7-1-.93-1.93-1.07l-.9-.13a1.06,1.06,0,0,1,0-1.16c1.8.06,3.09.1,4.45.1s2.43,0,3.73-.1a1.06,1.06,0,0,1,0,1.16l-.6.1a2,2,0,0,0-1.8,1.1,23.53,23.53,0,0,0-.49,6.08Z" fill="#fff"/><path d="M207.42,34.81a1.62,1.62,0,0,0,.86.24c.49,0,.78-.26.78-.63s-.2-.55-.71-.74-1-.54-1-1.06a1.07,1.07,0,0,1,1.21-1,1.63,1.63,0,0,1,.82.18l-.14.39a1.35,1.35,0,0,0-.7-.18c-.51,0-.7.31-.7.56s.22.52.74.72.94.55.94,1.1-.42,1.08-1.3,1.08a1.87,1.87,0,0,1-1-.25Z" fill="#fff"/><path d="M213.35,33.76c0-.52-.06-1.15-.06-1.61h0c-.13.43-.28.9-.47,1.41l-.66,1.82h-.36l-.61-1.78c-.18-.53-.32-1-.43-1.45h0c0,.46,0,1.08-.07,1.65l-.1,1.6h-.46l.26-3.73H211l.63,1.8c.16.46.28.87.38,1.26h0c.1-.38.23-.79.4-1.26l.66-1.8h.62l.23,3.73h-.48Z" fill="#fff"/></svg>