<svg id="Layer_2" data-name="Layer 2" xmlns="http://www.w3.org/2000/svg" viewBox="0 0 517.94 109.82">
  <title>Artboard 1</title>
  <path d="M57.49,44a10.43,10.43,0,0,1,1.72.55L63.7,30.79c.55.24,1.1.5,1.64.78l4.16-12.8a14.78,14.78,0,0,0-1.56-1L72.73,3,71,2.41,66.36,16.75c-.53-.32-1.06-.64-1.6-.93L60.3,29.55c.58.16,1.15.36,1.72.56Z" fill="#0cb6c0"/>
  <path d="M88.13,54c0-.61,0-1.21-.06-1.81h-8.8c.06.6.09,1.2.11,1.81H66.05v1.8H79.38a10,10,0,0,1-.11,1.81h8.8c0-.6.05-1.21.06-1.81h21.69V54Z" fill="#0cb6c0"/>
  <path d="M55.81,66.05H54v15.2H52.19v17.2c.61-.12,1.21-.27,1.81-.41v11.78h1.8V97.58c.61-.17,1.21-.34,1.81-.53V80.89c-.6.1-1.2.17-1.81.24Z" fill="#0cb6c0"/>
  <path d="M52.32,65.78a11.48,11.48,0,0,1-1.72-.55l-4.88,15c-.58-.16-1.16-.34-1.72-.55L37.79,98.83c.61.08,1.22.13,1.84.19l-2.55,7.83,1.72.56,2.68-8.25c.62,0,1.24.07,1.87.07L49.27,81c-.61-.09-1.2-.2-1.79-.33Z" fill="#0cb6c0"/>
  <path d="M81.8,32l-8.41,6.12c.38.46.74.94,1.09,1.43L63.39,47.63a9.54,9.54,0,0,1,1.06,1.46l11-8a16.92,16.92,0,0,1,.9,1.57l8-5.77c-.25-.56-.53-1.1-.8-1.65L99.86,23.36,98.8,21.9,82.69,33.61C82.4,33.08,82.11,32.54,81.8,32Z" fill="#0cb6c0"/>
  <path d="M67.56,32.89c.5.33,1,.71,1.45,1.07l-8.28,11.4a12.63,12.63,0,0,1,1.46,1.06l8.22-11.31c.45.4.92.79,1.34,1.22l6.66-9.16c-.39-.48-.8-.94-1.21-1.41L87.91,11l-1.46-1L76,24.4c-.42-.44-.84-.89-1.28-1.31Z" fill="#0cb6c0"/>
  <path d="M86.21,41.89l-8.83,2.87c.23.55.43,1.12.63,1.69L65.24,50.6a10.4,10.4,0,0,1,.54,1.72l12.74-4.14c.16.59.3,1.17.41,1.77l8.55-2.78c-.11-.59-.24-1.18-.37-1.77l20.3-6.6-.56-1.72L86.69,43.63C86.54,43.05,86.39,42.46,86.21,41.89Z" fill="#0cb6c0"/>
  <path d="M54,28.57v15.2c.3,0,.6-.05.9-.05s.6,0,.9.05V28.69c.61.06,1.21.13,1.81.24V12.77c-.6-.19-1.2-.36-1.81-.53V0H54V11.78c-.6-.14-1.2-.29-1.81-.41V28.54H53A8.06,8.06,0,0,1,54,28.57Z" fill="#0cb6c0"/>
  <path d="M37.79,11,44,30.1c.56-.2,1.14-.38,1.72-.55l4.88,15A11.48,11.48,0,0,1,52.32,44L47.48,29.12c.59-.13,1.18-.24,1.79-.33L43.35,10.58c-.63,0-1.25.05-1.87.08L38.8,2.41,37.08,3l2.55,7.83C39,10.86,38.4,10.91,37.79,11Z" fill="#0cb6c0"/>
  <path d="M10.33,25.87,30.77,40.72c.33-.51.69-1,1.05-1.47l13.55,9.84a10.87,10.87,0,0,1,1.06-1.46L32.94,37.84c.4-.47.78-.93,1.2-1.37L14.16,22c-.45.41-.88.84-1.32,1.27L11,21.9l-1,1.46,1.6,1.17C11.15,25,10.73,25.41,10.33,25.87Z" fill="#0cb6c0"/>
  <path d="M78.41,82.64l-6.66-9.15c-.42.43-.89.82-1.34,1.22L62.19,63.39a10.87,10.87,0,0,1-1.46,1.06L69,75.85c-.48.37-1,.74-1.45,1.07l7.12,9.81c.44-.42.86-.87,1.28-1.31l10.5,14.44,1.46-1.06L77.2,84.05C77.61,83.59,78,83.13,78.41,82.64Z" fill="#0cb6c0"/>
  <path d="M34.14,73.34c-.42-.43-.8-.9-1.2-1.36l13.49-9.79a10.15,10.15,0,0,1-1.06-1.47L31.82,70.57c-.36-.49-.72-1-1.05-1.47L10.33,84c.4.45.82.89,1.23,1.33L10,86.45l1,1.46,1.82-1.32c.44.43.87.86,1.32,1.27Z" fill="#0cb6c0"/>
  <path d="M69.5,91.05,65.34,78.24c-.54.29-1.09.54-1.65.79L59.21,65.24a10.4,10.4,0,0,1-1.72.54L62,79.71c-.57.2-1.14.39-1.72.56L64.76,94c.54-.3,1.07-.62,1.6-.93L71,107.41l1.71-.56L67.94,92.09C68.46,91.75,69,91.41,69.5,91.05Z" fill="#0cb6c0"/>
  <path d="M84.33,72.94l-8-5.78c-.28.54-.59,1.06-.9,1.58l-11-8a11.55,11.55,0,0,1-1.06,1.46l11.09,8c-.35.49-.71,1-1.09,1.44L81.8,77.8c.32-.52.6-1.06.89-1.59L98.8,87.91l1.06-1.46L83.53,74.59C83.8,74,84.08,73.5,84.33,72.94Z" fill="#0cb6c0"/>
  <path d="M87.48,62.64l-8.55-2.77c-.11.59-.25,1.18-.41,1.76L65.78,57.49a10.4,10.4,0,0,1-.54,1.72L78,63.36c-.2.58-.4,1.14-.63,1.7l8.84,2.87c.17-.58.32-1.16.47-1.75l20.16,6.55L107.4,71l-20.3-6.6C87.24,63.83,87.37,63.24,87.48,62.64Z" fill="#0cb6c0"/>
  <path d="M23.09,15.72,36.57,34.28c.47-.38,1-.73,1.46-1.07l9.6,13.22a10.87,10.87,0,0,1,1.46-1.06L39.55,32.23a16,16,0,0,1,1.59-.88l-13-17.91c-.58.22-1.15.47-1.72.71L23.36,10,21.9,11l2.83,3.89C24.18,15.18,23.63,15.43,23.09,15.72Z" fill="#0cb6c0"/>
  <path d="M26.65,55.81H43.77c0-.3-.05-.6-.05-.9s0-.6.05-.9H26.65a18.13,18.13,0,0,1,.12-1.81H0v5.42H26.77C26.71,57,26.67,56.42,26.65,55.81Z" fill="#0cb6c0"/>
  <path d="M27.83,47.06,44,52.32a11.44,11.44,0,0,1,.54-1.72L28.43,45.35c.22-.56.45-1.12.7-1.66L4,35.5a44.57,44.57,0,0,0-2.07,5l25.42,8.3Q27.56,47.92,27.83,47.06Z" fill="#0cb6c0"/>
  <path d="M41.14,78.47c-.55-.27-1.07-.57-1.59-.88l9.54-13.14a12.63,12.63,0,0,1-1.46-1.06L38,76.61c-.5-.34-1-.7-1.46-1.07L23.09,94.1c.54.28,1.09.54,1.64.81L21.9,98.8l1.46,1.06,3.05-4.19c.57.24,1.14.49,1.72.71Z" fill="#0cb6c0"/>
  <path d="M28.43,64.46l16.15-5.25A11.59,11.59,0,0,1,44,57.49L27.83,62.76c-.18-.58-.34-1.15-.48-1.74L1.88,69.29a44.57,44.57,0,0,0,2.07,5l25.18-8.18C28.88,65.59,28.65,65,28.43,64.46Z" fill="#0cb6c0"/>
  <polygon points="262.19 27.6 262.19 35.99 274.29 35.99 274.29 30.76 274.29 27.6 262.19 27.6" fill="#505759"/>
  <path d="M309.42,71.14h0a8.58,8.58,0,0,0,1.32-4.93,14.33,14.33,0,0,0-.35-3.2,6.93,6.93,0,0,0-1.24-2.65,9.58,9.58,0,0,0-2.52-2.27,18.35,18.35,0,0,0-4.2-1.92c-1.17-.39-2.27-.72-3.29-1s-2-.55-2.8-.83a7.34,7.34,0,0,1-2.1-1.08,2.49,2.49,0,0,1-1-2c0-1.87,1.55-2.81,4.59-2.81a12.57,12.57,0,0,1,4.84.94,30.84,30.84,0,0,1,3.62,1.74l3.54-6.51A23.69,23.69,0,0,0,304.11,42a25.9,25.9,0,0,0-7.53-1,20.24,20.24,0,0,0-5.89.82A14.54,14.54,0,0,0,286.17,44a10.28,10.28,0,0,0-2.84,3.21,8.08,8.08,0,0,0-1,3.84,8.83,8.83,0,0,0,.71,3.62,8.24,8.24,0,0,0,2,2.72,13.26,13.26,0,0,0,3.16,2.07,26.09,26.09,0,0,0,4.11,1.55c1.95.57,3.88,1.24,5.76,2a2.83,2.83,0,0,1,2,2.56,2.67,2.67,0,0,1-1.87,2.78,11.71,11.71,0,0,1-3.53.48,12.83,12.83,0,0,1-2.54-.28,23.16,23.16,0,0,1-2.84-.72,20.32,20.32,0,0,1-2.73-1.12,13.06,13.06,0,0,1-1.64-1l-4.53,6.73a18.41,18.41,0,0,0,6.36,3A30.29,30.29,0,0,0,301,76.2a15.74,15.74,0,0,0,4.92-1.8A10.5,10.5,0,0,0,309.42,71.14Z" fill="#505759"/>
  <polygon points="262.71 42.2 262.71 75.56 273.76 75.56 273.76 68.26 273.76 42.2 262.71 42.2" fill="#505759"/>
  <polygon points="244.66 42.2 237.55 64.64 229.88 42.2 217.88 42.2 231.94 75.56 242.16 75.56 256.63 42.2 244.66 42.2" fill="#505759"/>
  <path d="M185.05,74.73a9.61,9.61,0,0,0,3.3,1.55,13.91,13.91,0,0,0,3.45.46,15.39,15.39,0,0,0,5.7-.91,13.26,13.26,0,0,0,4.51-3.3l1.06-1.12.57,4.15H214V55.25a15.85,15.85,0,0,0-1.13-6.2,12.17,12.17,0,0,0-3.14-4.4A13.28,13.28,0,0,0,204.92,42a21.79,21.79,0,0,0-6.37-.89,29.27,29.27,0,0,0-10,1.43,23.91,23.91,0,0,0-5.49,2.75l4,6a18,18,0,0,1,3.63-1.64,19.37,19.37,0,0,1,6.09-.89,11.4,11.4,0,0,1,2.1.2,7,7,0,0,1,2.08.75,4.8,4.8,0,0,1,1.66,1.57,4.71,4.71,0,0,1,.67,2.59v1.49l-.82-.09c-.81-.1-1.56-.17-2.23-.22S198.7,55,197.59,55a23.86,23.86,0,0,0-6.18.79,16.43,16.43,0,0,0-5.1,2.3,11,11,0,0,0-3.41,3.75A10.39,10.39,0,0,0,181.65,67a10.75,10.75,0,0,0,.95,4.81A8.13,8.13,0,0,0,185.05,74.73Zm9-13.12a7.85,7.85,0,0,1,5.06-1.39,16.56,16.56,0,0,1,3.58.31l.56.14v2.88a6.84,6.84,0,0,1-.55,2.9,5.47,5.47,0,0,1-1.41,1.92,5,5,0,0,1-2,1,8,8,0,0,1-2.12.28c-3.15,0-4.88-1.63-4.88-4.59a4.4,4.4,0,0,1,1.79-3.45Z" fill="#505759"/>
  <path d="M174,62.25a25.47,25.47,0,0,0,2-10.41,28.3,28.3,0,0,0-2-10.91,20,20,0,0,0-5.36-7.5,22.54,22.54,0,0,0-8.15-4.38,35.49,35.49,0,0,0-10.34-1.45H131.92v48h18.16a34.62,34.62,0,0,0,10.31-1.49,22.52,22.52,0,0,0,8.18-4.45A20.94,20.94,0,0,0,174,62.25Zm-13.84-.68c-2.48,2.59-6,3.9-10.5,3.9h-6.07V37.62h6.07a17.61,17.61,0,0,1,6.27,1,12,12,0,0,1,4.45,2.88A11.87,11.87,0,0,1,163,45.93a17.8,17.8,0,0,1,.85,5.61,13.94,13.94,0,0,1-3.71,10Z" fill="#505759"/>
  <path d="M313.85,27.58h7.7L336.15,67l14.61-39.42H358l-18.56,48h-7Z" fill="#505759"/>
  <path d="M363.05,28.87h7.27v7.27h-7.27Zm.44,13.24H370V75.55h-6.47Z" fill="#505759"/>
  <path d="M381.32,67.14A13.62,13.62,0,0,0,385.64,70a14.89,14.89,0,0,0,5.83,1.07,12.31,12.31,0,0,0,5.39-1A3.43,3.43,0,0,0,399,66.78a4,4,0,0,0-.47-2A4.09,4.09,0,0,0,397,63.33a13.12,13.12,0,0,0-3-1.19c-1.22-.36-2.75-.76-4.57-1.19a27.05,27.05,0,0,1-3.85-1.15,12.41,12.41,0,0,1-3.41-1.9,9.44,9.44,0,0,1-2.43-2.9,8.36,8.36,0,0,1-.93-4.07,8.15,8.15,0,0,1,1.11-4.28,9.94,9.94,0,0,1,3-3.09,14.5,14.5,0,0,1,4.2-1.91A17.88,17.88,0,0,1,392,41a21.3,21.3,0,0,1,7.3,1.11,17.2,17.2,0,0,1,5.36,3.13l-3.52,4.46a12.87,12.87,0,0,0-3.78-2.3,13.68,13.68,0,0,0-5.29-.94,10.53,10.53,0,0,0-5,1,3.46,3.46,0,0,0-1.87,3.31c0,1.44.83,2.51,2.48,3.2a40.13,40.13,0,0,0,6.51,2,40.11,40.11,0,0,1,4.42,1.33,13.33,13.33,0,0,1,3.6,1.94,8.74,8.74,0,0,1,2.45,2.92,9,9,0,0,1,.9,4.17,8.38,8.38,0,0,1-1.16,4.42,9.84,9.84,0,0,1-3.09,3.2,14.2,14.2,0,0,1-4.46,1.94,20.63,20.63,0,0,1-5.25.65q-9.5,0-14.24-5.11Z" fill="#505759"/>
  <path d="M413,28.87h7.27v7.27H413Zm.44,13.24h6.47V75.55h-6.47Z" fill="#505759"/>
  <path d="M445.2,76.56a17.77,17.77,0,0,1-7.12-1.4,17.11,17.11,0,0,1-5.58-3.85,18.22,18.22,0,0,1-3.67-5.65,18.08,18.08,0,0,1,3.67-19.38,17.11,17.11,0,0,1,5.58-3.85,18.6,18.6,0,0,1,14.17,0,17.34,17.34,0,0,1,5.61,3.85,18,18,0,0,1,3.7,5.64,18.44,18.44,0,0,1,0,13.74,17.84,17.84,0,0,1-3.7,5.65,17.34,17.34,0,0,1-5.61,3.85A17.61,17.61,0,0,1,445.2,76.56Zm0-5.61a10.48,10.48,0,0,0,4.67-1,11.24,11.24,0,0,0,3.53-2.74,11.83,11.83,0,0,0,2.19-3.88,13.55,13.55,0,0,0,.76-4.5,13.29,13.29,0,0,0-.76-4.42,12,12,0,0,0-2.23-3.92,11.41,11.41,0,0,0-3.52-2.77,10.22,10.22,0,0,0-4.64-1,10.36,10.36,0,0,0-4.68,1A11.16,11.16,0,0,0,437,50.41a12.19,12.19,0,0,0-2.2,3.89,13.69,13.69,0,0,0-.75,4.49,13.52,13.52,0,0,0,.75,4.46,12.19,12.19,0,0,0,2.2,3.89,11.33,11.33,0,0,0,3.53,2.77A10.11,10.11,0,0,0,445.2,71Z" fill="#505759"/>
  <path d="M470.23,75.55v-30c0-1.1,0-2.25-.07-3.45h6.18l.22,5c.43-.57,1-1.21,1.58-1.9a10.53,10.53,0,0,1,2.3-1.91,13.35,13.35,0,0,1,3.2-1.44,14.14,14.14,0,0,1,4.14-.58q6.54,0,9.71,3.82t3.17,10.36v20.1h-6.48V56q0-4.68-2-6.87a7.33,7.33,0,0,0-5.68-2.19,8.43,8.43,0,0,0-7.68,4.15,13.33,13.33,0,0,0-1.61,4.17A22.26,22.26,0,0,0,476.7,60V75.55Z" fill="#505759"/>
  <path d="M503.62,29.36h-3V27.9h7.57v1.46h-3v7.29h-1.65Z" fill="#505759"/>
  <path d="M509.64,27.9h1.53L513.6,32l2.4-4.1h1.54l.42,8.75h-1.62L516,30.59l-2.1,3.56h-.78L511,30.68l-.28,6h-1.55Z" fill="#505759"/>
</svg>
