<svg xmlns="http://www.w3.org/2000/svg" viewBox="0 0 360 88.2"><title>Delta Dental Logo</title><rect width="360" height="88.16" fill="#6cc04a"/><rect width="360" height="88.16" fill="#6cc04a"/><path d="M109.7,35.7c-2.9-2.8-6.8-3.6-11.7-3.8H89.7v24c5.3,0,12.8.5,16.5-1.1,6.9-2.9,9.4-13.5,3.5-19.3M98.4,48.8V39.6c7.7-.6,7.7,10,0,9.2" fill="#fff"/><path d="M237,32.4h8.6a94.6,94.6,0,0,0,7.3,12.2V32.4h8.5c0,6,0,14.5,0,23.7h-8.9c-1.5-2.5-4.2-7.4-6.9-11.3,0,2,0,8.5,0,11.3H237c-0.1-3.2.1-17.8,0-23.8" fill="#fff"/><path d="M63.4,24L77.7,48.1l-5.2,8H43.7l-4.6-7.7L49.3,32.1h9.3L54.3,24h9.2Zm-4.9,8.6L49.7,48.1h18l-9-15.9Z" fill="#fff"/><polygon points="177.2 32.1 177.2 32.1 169.1 32.1 160.4 56.1 168.8 56.1 173.1 41.8 177.5 56.1 185.9 56.1 177.2 32.1" fill="#fff"/><polygon points="294.6 32.1 294.6 32.1 286.5 32.1 277.8 56.1 286.2 56.1 290.6 41.8 295 56.1 303.3 56.1 294.6 32.1" fill="#fff"/><polygon points="130.5 56.1 114.3 56.1 114.3 32.1 130.6 32.1 130.6 38.5 123 38.5 123 40.9 129.7 40.9 129.7 47.1 123 47.1 123 49.5 130.5 49.5 130.5 56.1" fill="#fff"/><path d="M214,35.7c-2.9-2.8-6.8-3.6-11.7-3.8H194v24c5.3,0,12.8.5,16.5-1.1,6.9-2.9,9.4-13.5,3.5-19.3M202.8,48.8V39.6c7.7-.6,7.7,10,0,9.2" fill="#fff"/><polygon points="234.9 56.1 218.7 56.1 218.7 32.1 234.9 32.1 234.9 38.5 227.4 38.5 227.4 40.9 234.1 40.9 234.1 47.1 227.4 47.1 227.4 49.5 234.9 49.5 234.9 56.1" fill="#fff"/><polygon points="132.6 56.1 132.6 32.1 141.2 32.1 141.2 48.3 148.5 48.3 148.5 56.1 132.6 56.1" fill="#fff"/><polygon points="304.5 56.1 304.5 32.1 313.1 32.1 313.1 48.3 320.4 48.3 320.4 56.1 304.5 56.1" fill="#fff"/><polygon points="145.9 39.8 145.9 32.1 164.1 32.1 164.1 39.8 159.4 39.8 159.4 56.1 150.4 56.1 150.4 39.8 145.9 39.8" fill="#fff"/><polygon points="263.1 39.8 263.1 32.1 281.4 32.1 281.4 39.8 276.7 39.8 276.7 56.1 267.7 56.1 267.7 39.8 263.1 39.8" fill="#fff"/><path d="M319.9,33.9a3.3,3.3,0,1,1,3.3,3.2,3.2,3.2,0,0,1-3.3-3.2m6,0a2.8,2.8,0,1,0-2.8,2.7,2.8,2.8,0,0,0,2.8-2.7m-1.2,1.8h-0.6L323.1,34h-0.6v1.6H322V32.1h1.5a1,1,0,0,1,1.3.9,1,1,0,0,1-1.1,1Zm-1.7-2.1c0.4,0,1.2.1,1.2-.5s-0.5-.4-0.9-0.4h-0.9v0.9h0.6Z" fill="#fff"/></svg>