<svg xmlns="http://www.w3.org/2000/svg" viewBox="0 0 685.27 172.24"><title>dentegra-color</title><path d="M56.09,75a6.77,6.77,0,0,0,3.38-9.91C58.5,63.5,48.6,50.37,48.6,50.37L0,52.06l39.16,29S50.28,77.45,56.09,75Z" fill="#0081c6"/><path d="M75.13,60.6c1.24-1.41,10.69-14.87,10.69-14.87L69.29,0,53.71,46.18s6.86,9.47,10.95,14.25A6.76,6.76,0,0,0,75.13,60.6Z" fill="#0081c6"/><path d="M80,64.5a6.78,6.78,0,0,0,2.7,10.13c1.71.79,17.24,6.2,17.24,6.2L139.36,52.4,90.68,50.06S83.46,59.26,80,64.5Z" fill="#0081c6"/><path d="M81.94,81.7a6.75,6.75,0,0,0-8.62,5.93c-.2,1.88-.06,18.32-.06,18.32l40,27.62L99.13,86.92S88,83.2,81.94,81.7Z" fill="#0081c6"/><path d="M57.9,81.5c-1.83.46-17.26,6.14-17.26,6.14l-12.5,47,39.13-29s-.24-11.7-.87-18A6.78,6.78,0,0,0,57.9,81.5Z" fill="#0081c6"/><path d="M673.49,124.49c-54.54,33.3-117.34,48.89-180.67,36.68a225.85,225.85,0,0,1-52.09-16.85l-1.43,1.5A273.44,273.44,0,0,0,486,163.76c68.39,19.46,139.39,4.09,199.25-32.47C684.28,131.9,676,123,673.49,124.49Z" fill="#0081c6"/><path d="M192.19,55.87c-7.07-3.14-14.25-4.36-26.18-4.36H156.2A2.22,2.22,0,0,0,153.77,54V94.65A2.26,2.26,0,0,0,156.2,97H165c11.19,0,17.73-.89,24.49-3.34,10.76-4,17.41-11.47,17.41-19.67C206.86,66.73,201.38,60,192.19,55.87Zm-3.48,34.34c-5.6,2.73-13.09,4.17-22.27,4.17H161c-.63,0-1.27-.41-1.27-.82V55c0-.41.64-.75,1.27-.75h5c10.34,0,16.89,1.16,22.91,4.09,7.39,3.62,11.82,9.49,11.82,15.7S196,86.6,188.71,90.21Z" fill="#231f20"/><path d="M258.59,94.18a14.71,14.71,0,0,1-3.28.27H227.24c-.74,0-1.27-.41-1.27-.82V75.53c0-.4.53-.75,1.27-.75h25.54c1.69.14,3.8-.13,3.8-1.23v-.4c0-1-1.9-1.23-3.48-1.17-.21,0-.42.07-.74.07H227.24c-.74,0-1.27-.41-1.27-.81V55.06c0-.41.53-.82,1.27-.82H254.9a14.54,14.54,0,0,1,1.9.13c1.68.34,4,.42,4.22-.68s.1-2.12-1.06-2.12H222.49c-1.69,0-2.54,1.09-2.43,2.19V94.85a2.17,2.17,0,0,0,2.43,2.26h39.16c1.16,0,1.37-1.09,1.16-2.26S260.28,93.76,258.59,94.18Z" fill="#231f20"/><path d="M327.61,51.51h-1.47c-1.37,0-2.1,1-1.68,1.7a3.74,3.74,0,0,1,.42,1.91V90.28c0,.27-.42.41-.64.21l-42-39c-.53-.55-1.9-.69-3.27-.62-2,.07-2.53,1.64-2.43,3V93.49a3.77,3.77,0,0,1-.31,2.05c-.32.68,0,1.5,1.16,1.5h2.53c1.27,0,1.27-1.09,1.06-1.91a4,4,0,0,1-.22-1.3v-36c0-.2.53-.34.75-.14l39.68,36.74c2.11,1.84,5,4.43,7.71,2.93.21-.07.21-.2.21-.34V55.12a5.46,5.46,0,0,1,.21-1.43A1.64,1.64,0,0,0,327.61,51.51Z" fill="#231f20"/><path d="M368.68,94V54.24h16.26a8.63,8.63,0,0,1,3.48.47c.74.28,1.8,0,1.8-.55,0-1.43-1.8-2.65-4-2.65H345.57c-2.33,0-4.12,1.22-4.12,2.65,0,.55,1.06.89,1.69.55a8.36,8.36,0,0,1,3.37-.47h16.26V93.36a7.9,7.9,0,0,1-.11,1.7,1.78,1.78,0,0,0,1.91,2h2.32c1.37,0,2.11-.89,1.9-1.78A4.32,4.32,0,0,1,368.68,94Z" fill="#231f20"/><path d="M403.09,97.11h39.16c1.16,0,1.38-1.09,1.16-2.26s-2.53-1.09-4.21-.67a14.77,14.77,0,0,1-3.28.27H407.85c-.75,0-1.27-.41-1.27-.82V75.53c0-.4.52-.75,1.27-.75h25.53c1.69.14,3.81-.13,3.81-1.23v-.4c0-1-1.9-1.23-3.49-1.17-.21,0-.42.07-.73.07H407.85c-.75,0-1.27-.41-1.27-.81V55.06c0-.41.52-.82,1.27-.82H435.5a14.29,14.29,0,0,1,1.9.13c1.69.34,4,.42,4.22-.68s.11-2.12-1.06-2.12H403.09c-1.69,0-2.54,1.09-2.42,2.19V94.85A2.16,2.16,0,0,0,403.09,97.11Z" fill="#231f20"/><path d="M498.94,76.63c-3.16-.07-5.49,0-3.8.55a3.6,3.6,0,0,0,.64.13c2.63.62,3.48,1.29,3.48,3V91.65a1.27,1.27,0,0,1-.85,1.09A43,43,0,0,1,484,95.06c-15.1,0-25.87-8.53-25.87-20.55s11.2-21,26.4-21c7,0,12,1.78,15.93,5.6.75.82,2.86.68,2.86-.34V57c0-1.92-2.75-3.07-5.39-4l-1.16-.47a43.14,43.14,0,0,0-12.67-1.91c-18.68,0-32.3,10.24-32.3,24.3,0,13.65,12.78,23,31.25,23a61.08,61.08,0,0,0,17.84-2.6c2.74-.88,4.33-2.79,4.33-4.84V82.56C505.17,79.77,503.16,76.83,498.94,76.63Z" fill="#231f20"/><path d="M567.45,97.66a10,10,0,0,0,4.22-.62,11.6,11.6,0,0,1-2.55-.89,16.08,16.08,0,0,1-3.26-2.66L547.92,76.7c-.32-.35.21-.76.74-.76,5.17-.34,7.7-.81,10.44-2,4.65-2,7.71-5.94,7.71-9.91,0-4.3-3.28-8.19-8.76-10.3-4.12-1.64-9.08-2.26-17.94-2.26H524.38c-1.7,0-2.64,1.1-2.54,2.19V94a4.77,4.77,0,0,1-.1,1.29c-.11.89.64,1.78,2,1.78H526c1.36,0,2.1-.89,1.89-1.78,0-.33-.11-.75-.11-1.29V77.1c0-.47.64-.82,1.27-.82h5.7c4.11,0,7.81,1.31,10,3.49l15.94,15.56C562.17,96.77,564.8,97.51,567.45,97.66Zm-27-24.17H529c-.63,0-1.27-.34-1.27-.83V55.06c0-.48.64-.82,1.27-.82h11.19c7.07,0,11.29.61,14.67,2.18s5.71,4.64,5.71,7.64-2.54,6.35-6.13,7.86C551.5,73.15,548.76,73.49,540.42,73.49Z" fill="#231f20"/><path d="M575.58,97h2.63c1.37,0,1.7-1.09,1.7-2a3.5,3.5,0,0,1,.62-1.58l7.39-12.63a1.3,1.3,0,0,1,1.27-.61h27.65a1.55,1.55,0,0,1,1.27.61l7.5,12.63c.74,1.36.84,1.58.84,1.91,0,.76,0,1.71,1.16,1.71h4.65c1.16,0,1.58-.89,1-1.57a1.54,1.54,0,0,1-.42-.69L632,93.42,608.51,54.17c-1-1.57-3.38-2.66-6-2.66h-1.06a2,2,0,0,0-2.11,1.84,3.18,3.18,0,0,1-.64,1.64L576.1,92.88a20.53,20.53,0,0,1-1.69,2.59C573.78,96.15,574.31,97,575.58,97ZM589.93,76.9l12.45-20.82c.21-.21.64-.21.75,0L615.79,76.9c.21.28-.1.55-.53.55h-24.8C590,77.45,589.72,77.18,589.93,76.9Z" fill="#231f20"/><path d="M381.69,114.92l.06-.19c.18-.51.18-1-.41-1h-.72a1.29,1.29,0,0,0-1.09.85l-.06.19a3.63,3.63,0,0,1-.18.57L373,133.19a5.29,5.29,0,0,1-.22.53s0,.1-.05.13c-.15.44,0,.92.46.92h.72a1.37,1.37,0,0,0,1.15-1l.08-.22c0-.09,0-.21.08-.34l6.35-17.89C381.56,115.17,381.65,115,381.69,114.92Z" fill="#231f20"/><path d="M392.85,118.9a9.45,9.45,0,0,0-6.25,3.21l.87-2.64c.13-.35-.21-.51-.7-.51a1.47,1.47,0,0,0-1.5,1.17c0,.15-.07.32-.13.47l-4.57,12.87c-.18.51-.36,1.3.26,1.3h.53c.72,0,1-.73,1.16-1.27l.06-.15c0-.07,0-.1,0-.13l2.82-8c1.88-2.74,4.77-4.89,6.84-4.89,1.77,0,2.11,1,1.25,3.38l-2.79,7.88c-.65,1.83-.74,3.37,1,3.37.27,0,.62-.06.71-.31a.32.32,0,0,0,0-.22,7.62,7.62,0,0,1,.47-3.62l2.52-7.1C396.73,120.16,395.43,118.9,392.85,118.9Z" fill="#231f20"/><path d="M409.06,119.43a8.31,8.31,0,0,0-2.79-.53c-2.85,0-5.64,1.79-6.46,4.1-.69,1.93,0,3.15,2.5,4.29.09,0,.13.09.22.13h0c.61.31,1.21.54,1.74.81,1.39.76,1.75,1.61,1.32,2.82a4.27,4.27,0,0,1-4.18,2.67c-1.71,0-2.79-.57-3.28-1.67a.47.47,0,0,0-.4-.25,1,1,0,0,0-.92.67l-.24.66c-.27.75.38,1.16,1.07,1.32l.86.35a6.69,6.69,0,0,0,2.49.38,7,7,0,0,0,6.74-4.32c.77-2.18-.3-3.7-3.19-5-2.45-1-3.1-1.7-2.63-3a4.08,4.08,0,0,1,4.13-2.49,3,3,0,0,1,2.6,1,.64.64,0,0,0,.54.25,1,1,0,0,0,1-.63l.1-.28C410.48,120,409.66,119.69,409.06,119.43Z" fill="#231f20"/><path d="M426.56,118.93a1.5,1.5,0,0,0-1.54,1c-.1.28-.09.63-.2,1l-1.79,5c-1.64,4.64-4.69,7.76-7.64,7.76-2,0-2.31-1-1.21-4.13l3.58-10.09c.14-.42-.18-.54-.63-.54a1.45,1.45,0,0,0-1.55,1c-.1.29-.14.6-.26.92l-3.26,9.21c-1.13,3.18-.27,5.08,2.65,5.08a8.27,8.27,0,0,0,6.19-3.26c-.32,1.11-.75,2.59-.19,2.94h0a.74.74,0,0,0,.4.15c.59,0,1.16-.75,1.4-1.44.3-.86.59-2.31,1.53-4.95l3.24-9.15C427.4,119.05,427,118.93,426.56,118.93Z" fill="#231f20"/><path d="M440.06,120.92a1,1,0,0,0,1-.64c.16-.44.2-.85-.13-1l0,0a3.58,3.58,0,0,0-1.82-.41c-1.94,0-3.31.81-5.62,3.56l1.06-3c.15-.42-.17-.54-.66-.54a1.47,1.47,0,0,0-1.52,1.07c-.11.28-.15.6-.26.92l-4.48,12.61c-.17.51-.41,1.24.32,1.24h.49c.72,0,1-.7,1.16-1.24l0-.15c0-.06,0-.1,0-.13l2.79-7.88.18-.32c2.18-2.75,4.53-4.58,5.85-4.58C439.17,120.47,439.44,120.92,440.06,120.92Z" fill="#231f20"/><path d="M449.42,118.9a10.68,10.68,0,0,0-5,1.19.5.5,0,0,0-.21.19c-.12.35.76.82,1.45.82a1.11,1.11,0,0,0,.46-.09,7,7,0,0,1,2.87-.63c2.24,0,2.88,1.23,2,3.94,0,0,0,.07-.06.07l-.08,0a18.68,18.68,0,0,1-4.5,1.35h0c-3.82.72-6.8,2.08-7.8,4.93-.89,2.49.73,4.47,3.65,4.47a8.25,8.25,0,0,0,5.91-2.74,4.11,4.11,0,0,0-.18,1v0a1.31,1.31,0,0,0,1.39,1.6c.43,0,.77-.12.83-.31,0,0,0-.06,0-.1a7.52,7.52,0,0,1,.44-3.72c.12-.31.35-1,.79-2l1.13-3.18c1-2.84,1.14-3.5,1-4.64C453.24,119.65,451.78,118.9,449.42,118.9Zm.69,7.92c-1.48,4.16-4.3,6.87-7.18,6.87-1.87,0-2.93-1.35-2.33-3s2.06-2.49,5.68-3.37a34.15,34.15,0,0,0,3.87-1.24l.27-.08Z" fill="#231f20"/><path d="M467.14,118.9a9.47,9.47,0,0,0-6.26,3.21l.88-2.64c.12-.35-.22-.51-.71-.51a1.45,1.45,0,0,0-1.49,1.17c-.06.15-.08.32-.14.47l-4.56,12.87c-.18.51-.37,1.3.26,1.3h.52c.72,0,1-.73,1.17-1.27l.06-.15c0-.07,0-.1,0-.13l2.82-8c1.89-2.74,4.78-4.89,6.85-4.89,1.76,0,2.11,1,1.25,3.38l-2.8,7.88c-.65,1.83-.74,3.37,1,3.37.27,0,.62-.06.71-.31a.24.24,0,0,0,0-.22,7.52,7.52,0,0,1,.48-3.62l2.51-7.1C471,120.16,469.72,118.9,467.14,118.9Z" fill="#231f20"/><path d="M484.92,119.53l-.16-.13a4.6,4.6,0,0,0-2.27-.5c-4,0-8.23,3.52-9.89,8.23s0,8,4,8a9,9,0,0,0,4-1.1,2.71,2.71,0,0,0,1.28-1.38l.24-.7a.29.29,0,0,0-.26-.44.57.57,0,0,0-.4.19,6,6,0,0,1-4.23,1.95c-2.88,0-4-2.74-2.61-6.56s4.42-6.75,7.11-6.75a3.12,3.12,0,0,1,2.51,1.32.56.56,0,0,0,.47.26,1,1,0,0,0,.91-.66l.14-.38C486.05,120.19,485.47,119.82,484.92,119.53Z" fill="#231f20"/><path d="M496.7,118.9c-3.9,0-8,3.44-9.64,8-1.73,4.89,0,8.23,4,8.23,2.38,0,5.87-1.23,6.56-3.18l.27-.76a.3.3,0,0,0-.27-.44.5.5,0,0,0-.37.22v0a8,8,0,0,1-5.45,2.71,3.09,3.09,0,0,1-3.3-3.16,10.43,10.43,0,0,1,.35-2.56c3.42-.31,7.34-.75,10.74-1.1a.71.71,0,0,0,.54-.41l.17-.48C501.88,121.64,500.43,118.9,496.7,118.9Zm1.91,6.24-.14.38c-3,.35-6.06.76-9.09,1.08,1.35-3.44,3.88-6.22,6.73-6.22C498.49,120.38,499.58,122.43,498.61,125.14Z" fill="#231f20"/><path d="M530.34,115.05c.11-.28.23-.54.3-.76.25-.69.35-1.17.18-1.17s-.33.23-.7.7l0,0c-.34.41-.56.56-.73.56a1.58,1.58,0,0,1-.43-.15,7.09,7.09,0,0,0-3.54-.92c-5.67,0-11.28,4.48-13.61,11-2.22,6.25.14,10.85,5.61,10.85a12,12,0,0,0,5.43-1.54h0l.31-.12h0l.18-.13h0c.73-.29,1.4-.6,1.57-1.08l.3-.85a.47.47,0,0,0-.48-.66,1,1,0,0,0-.57.19,10.55,10.55,0,0,1-6,2.53c-4.23,0-5.82-3.82-4-9.09C516.07,119,520.67,115,525,115a4.12,4.12,0,0,1,2.62.83,1.88,1.88,0,0,0,2.75-.76Z" fill="#231f20"/><path d="M539.68,118.9c-4,0-8.24,3.5-9.86,8s.13,8.23,4.09,8.23,8.26-3.56,9.91-8.2S543.68,118.9,539.68,118.9ZM541.8,127c-1.33,3.73-4.58,6.72-7.37,6.72s-3.88-3-2.56-6.69,4.51-6.62,7.29-6.62S543.1,123.29,541.8,127Z" fill="#231f20"/><path d="M566.68,124.1c1.84-5.17-.64-5.2-1.89-5.2-2,0-3.52,1-5.6,3,.36-2.83-1.53-3-2.52-3a6.4,6.4,0,0,0-5,2.46c.33-1,1.21-2.4-.2-2.4a1.39,1.39,0,0,0-1.41,1.13c-.1.26-.13.54-.21.77l-4.38,12.36a1.47,1.47,0,0,1-.12.25c-.2.54-.44,1.3.29,1.3h.49c.65,0,1-.79,1.17-1.3l3.23-9.08a1.53,1.53,0,0,1,.19-.35l0,0c1.42-1.89,3.54-3.69,5.27-3.69.74,0,2.08,0,.59,4.23l-3.05,8.61c-.11.29-.24.47-.33.73-.14.41,0,.82.47.82h.52c.62,0,.95-.58,1.13-1.08.07-.18.07-.28.14-.47l3.15-8.9a2,2,0,0,1,.19-.35c1.69-2.17,3.36-3.56,5.27-3.59.73.06,2,0,.5,4.23l-2.5,7c-.66,1.89-.8,3.37,1,3.37.26,0,.61-.06.7-.31a.32.32,0,0,0,0-.22,7.72,7.72,0,0,1,.54-3.63Z" fill="#231f20"/><path d="M580.54,118.9a8.23,8.23,0,0,0-5.86,2.78c.47-1.14.48-1.08,1-2.28.12-.35-.23-.47-.72-.47-1.18,0-1.43.73-1.78,1.7a.73.73,0,0,1,0,.23l-6.36,17.91a12,12,0,0,1-2.08,3.63,1.15,1.15,0,0,0-.14.19c-.08.25.23.32.49.32,1.7,0,2.69-1.43,3.39-3.38l2.43-6.84c.42,1.57,1.84,2.48,3.9,2.48,3.86,0,7.94-3.5,9.62-8.19S584.38,118.9,580.54,118.9Zm1.84,7.92c-1.42,4-4.43,6.87-7.15,6.87s-3.85-2.71-2.45-6.65,4.26-6.66,7-6.66S583.7,123.1,582.38,126.82Z" fill="#231f20"/><path d="M597,118.9a10.71,10.71,0,0,0-5,1.19c-.12.07-.18.13-.2.19-.12.35.76.82,1.44.82a1.08,1.08,0,0,0,.46-.09,7,7,0,0,1,2.88-.63c2.22,0,2.87,1.23,1.94,3.94,0,0,0,.07-.05.07l-.08,0a19.1,19.1,0,0,1-4.51,1.35h0c-3.82.72-6.79,2.08-7.8,4.93-.89,2.49.74,4.47,3.64,4.47a8.29,8.29,0,0,0,5.93-2.74,4.18,4.18,0,0,0-.19,1v0A1.32,1.32,0,0,0,597,135c.43,0,.77-.12.83-.31,0,0,0-.06,0-.1a7.42,7.42,0,0,1,.45-3.72c.11-.31.34-1,.78-2l1.12-3.18c1-2.84,1.15-3.5,1-4.64C600.86,119.65,599.4,118.9,597,118.9Zm.7,7.92c-1.48,4.16-4.31,6.87-7.19,6.87-1.87,0-2.92-1.35-2.33-3s2.06-2.49,5.68-3.37a35.57,35.57,0,0,0,3.88-1.24L598,126Z" fill="#231f20"/><path d="M617.36,123.76c1.27-3.6,0-4.86-2.61-4.86a9.42,9.42,0,0,0-6.24,3.21l.87-2.64c.13-.35-.21-.51-.7-.51a1.45,1.45,0,0,0-1.5,1.17c0,.15-.08.32-.13.47l-4.57,12.87c-.18.51-.36,1.3.26,1.3h.53c.72,0,1-.73,1.16-1.27l.06-.15c0-.07,0-.1,0-.13l2.82-8c1.88-2.74,4.77-4.89,6.84-4.89,1.76,0,2.1,1,1.25,3.38l-2.79,7.88c-.66,1.83-.74,3.37,1,3.37.27,0,.62-.06.71-.31a.32.32,0,0,0,0-.22,7.5,7.5,0,0,1,.47-3.62Z" fill="#231f20"/><path d="M634.59,119.27h-.13c-1.08,0-1.18,1.14-1.69,1.83l-8.06,11.08-.4-11a4.88,4.88,0,0,0,0-.76v0c0-.53.12-1.14-.57-1.14h-.62a1,1,0,0,0-.91.7c-.16.44,0,.29-.05,1.26l.52,13.13a1.78,1.78,0,0,1-.11.56,7.6,7.6,0,0,1-.87,1.46v0c-1.55,2-2.42,2.75-3.44,2.75a1.16,1.16,0,0,1-1.2-.83l0,0c-.05-.13-.16-.19-.36-.19a.77.77,0,0,0-.7.41c-.44,1.23.12,2,1.7,2,2,0,3.55-1.17,5.77-4.26,1.29-1.8,9.59-13.28,10.88-15.08h0l.73-.91a1,1,0,0,0,.11-.23A.56.56,0,0,0,634.59,119.27Z" fill="#231f20"/><path d="M632.28,52.89a2.2,2.2,0,0,0-.92-.68,3.2,3.2,0,0,0,1.37-.6,1.67,1.67,0,0,0,.61-1.42,1.78,1.78,0,0,0-.71-1.57,3.29,3.29,0,0,0-1.92-.5h-3.25V55.4h1.81V52.5a1.56,1.56,0,0,1,.64.12,2.85,2.85,0,0,1,.67.86q.43.71,1,1.92h2.13l-.67-1.25A8.8,8.8,0,0,0,632.28,52.89Zm-2.23-1.69h-.78V49.39h.85a1.91,1.91,0,0,1,1,.22.74.74,0,0,1,.37.68.73.73,0,0,1-.37.7A2.13,2.13,0,0,1,630.05,51.2Z" fill="#231f20"/><path d="M636.81,49.09a6.82,6.82,0,0,0-8.87-3.59,6.76,6.76,0,0,0-3.66,3.62,6.47,6.47,0,0,0-.53,2.63,6.78,6.78,0,0,0,6.8,6.8,6.6,6.6,0,0,0,3.39-.91,6.76,6.76,0,0,0,2.49-2.49,6.61,6.61,0,0,0,.91-3.4A6.83,6.83,0,0,0,636.81,49.09ZM635.3,54.5a5.53,5.53,0,0,1-2,2,5.25,5.25,0,0,1-2.75.74,5.35,5.35,0,0,1-2.76-.73,5.47,5.47,0,0,1-2.29-6.88,5.28,5.28,0,0,1,1.17-1.74,5.18,5.18,0,0,1,1.77-1.16,5.31,5.31,0,0,1,2.11-.43,5.55,5.55,0,0,1,3.88,1.6,5.71,5.71,0,0,1,1.18,1.73,5.4,5.4,0,0,1,.42,2.13A5.46,5.46,0,0,1,635.3,54.5Z" fill="#231f20"/></svg>