<svg id="Layer_1" data-name="Layer 1" xmlns="http://www.w3.org/2000/svg" viewBox="0 0 117 24"><title>color</title><path d="M32.7,5.7a.68.68,0,0,0-.7.7V20.1a16.48,16.48,0,0,1-3.2.4c-2.4,0-3.2-.9-3.2-3.5V6.4a.67.67,0,0,0-.6-.7H21.4V17c0,5.3,2.8,7,7.3,7a29.85,29.85,0,0,0,7.5-1.1V5.7ZM87.8,23.8a.75.75,0,0,0,.7-.7V9.3a16.48,16.48,0,0,1,3.2-.4c2.4,0,3.2.9,3.2,3.5V23.1a.67.67,0,0,0,.6.7h3.6V12.4c0-5.3-2.8-7-7.3-7a29.85,29.85,0,0,0-7.5,1.1V23.8ZM73.4,5.4c-4.7,0-7.6,2.5-7.6,8v2.7c0,6,3.2,8,6.6,8a5.82,5.82,0,0,0,4-1.9v1.1a.65.65,0,0,0,.6.6h3.6V6.4A27.75,27.75,0,0,0,73.4,5.4Zm3.1,14a3.87,3.87,0,0,1-3.1,1.1C71,20.6,70,19.1,70,16V13.5C70,10,71.3,9,73.4,9a15.87,15.87,0,0,1,3.1.2Zm33.2-14c-4.7,0-7.6,2.5-7.6,8v2.7c0,6,3.2,8,6.7,8a5.82,5.82,0,0,0,4-1.9v1.1a.65.65,0,0,0,.6.6H117V6.4A30.07,30.07,0,0,0,109.7,5.4Zm3.1,14a3.87,3.87,0,0,1-3.1,1.1c-2.4,0-3.4-1.4-3.4-4.5V13.5c0-3.6,1.3-4.5,3.4-4.5a15.87,15.87,0,0,1,3.1.2ZM0,23.8H3.8a.65.65,0,0,0,.6-.6v-10h7a1.92,1.92,0,0,1,2,1.9v8.1a.65.65,0,0,0,.6.6h3.8V0H14a.65.65,0,0,0-.6.6v9H6.2A1.69,1.69,0,0,1,4.5,7.9V.6C4.4.4,4.2,0,3.8,0H0ZM56.3,5.4a9.43,9.43,0,0,0-4.8,1.4,8.54,8.54,0,0,0-5.3-1.4,18.25,18.25,0,0,0-6.5,1.2V23.9h3.6c.4,0,.6-.3.6-.7V9.3A10.33,10.33,0,0,1,46.1,9c2.5,0,3.1,1,3.1,3.5V23.2a.66.66,0,0,0,.6.7h3c.4,0,.6-.3.6-.7V9.8A4.38,4.38,0,0,1,55.9,9c1.9,0,2.7.9,2.7,3.2v11a.66.66,0,0,0,.6.7h3.6V11.6C62.9,7,60,5.4,56.3,5.4Z" fill="#4e8416"/></svg>