<svg xmlns="http://www.w3.org/2000/svg" viewBox="0 0 282.39 36"><title>madison-dental_color</title><path d="M19.25,14l9-10.37H34.3v28h-7V14.18L19.77,23h-1l-7.56-8.77V31.64h-7v-28h6Z" fill="#005cb9"/><path d="M59.12,27v3.3A11.16,11.16,0,0,1,53.55,32c-1.86,0-3-.71-3.32-2.12A11,11,0,0,1,44,32a5.39,5.39,0,0,1-3.74-1.39,4.24,4.24,0,0,1-1.54-3.24,5.25,5.25,0,0,1,1.59-4q1.59-1.52,9.64-3.9.19-3.16-3.28-3.16a9.72,9.72,0,0,0-7,3.16V14.65a15.22,15.22,0,0,1,8.19-2.31q8,0,8,5.76v8.61c0,.89.32,1.33,1,1.33A4.76,4.76,0,0,0,59.12,27ZM50,27.05V22.47a16.51,16.51,0,0,0-4.09,1.88,2.55,2.55,0,0,0-1.11,2.12,2,2,0,0,0,.56,1.42,1.8,1.8,0,0,0,1.36.59A4.94,4.94,0,0,0,50,27.05Z" fill="#005cb9"/><path d="M80.6,3.67v28H74.65V30.12A8,8,0,0,1,69.41,32a8.17,8.17,0,0,1-6.32-2.8,10.11,10.11,0,0,1-2.53-7,10,10,0,0,1,2.57-7.07,8.66,8.66,0,0,1,6.6-2.75,11,11,0,0,1,4.92,1.2V3.67ZM74.65,26.46v-9a5.78,5.78,0,0,0-3.32-1.1,4.22,4.22,0,0,0-3.49,1.56,6.8,6.8,0,0,0-1.25,4.38,6.54,6.54,0,0,0,1.24,4.18A4,4,0,0,0,71.13,28,5.17,5.17,0,0,0,74.65,26.46Z" fill="#005cb9"/><path d="M85.29,6.6a3.19,3.19,0,0,1,1-2.33,3.26,3.26,0,0,1,4.62,0,3.19,3.19,0,0,1,1,2.33,3.18,3.18,0,0,1-1,2.31,3.24,3.24,0,0,1-4.62,0A3.18,3.18,0,0,1,85.29,6.6Zm6.26,6.14v18.9H85.61V12.74Z" fill="#005cb9"/><path d="M109.59,13.74V18a12.24,12.24,0,0,0-6.31-2.08c-1.43,0-2.14.48-2.14,1.46a1,1,0,0,0,.45.75,20.92,20.92,0,0,0,3.46,1.56,10.16,10.16,0,0,1,4.24,2.76,5.38,5.38,0,0,1,1.24,3.43,5.51,5.51,0,0,1-2,4.55,8.94,8.94,0,0,1-5.71,1.6,15.82,15.82,0,0,1-6.76-1.38V26.44a15.94,15.94,0,0,0,6.1,1.6c1.92,0,2.88-.47,2.88-1.4a1.36,1.36,0,0,0-.53-1A17,17,0,0,0,100.94,24a9.72,9.72,0,0,1-4.16-2.61,5.12,5.12,0,0,1,1-7.37,9.11,9.11,0,0,1,5.67-1.63A13.21,13.21,0,0,1,109.59,13.74Z" fill="#005cb9"/><path d="M123.84,12.34A11.28,11.28,0,0,1,131.38,15a9,9,0,0,1,3.09,7.25,8.8,8.8,0,0,1-3.14,7.24A11.48,11.48,0,0,1,123.84,32a11,11,0,0,1-7.69-2.73,9.18,9.18,0,0,1-3-7.11A9,9,0,0,1,116.21,15,11.13,11.13,0,0,1,123.84,12.34Zm0,16.14q4.28,0,4.27-6.44,0-6.15-4.27-6.15a3.7,3.7,0,0,0-3.19,1.62,7.94,7.94,0,0,0-1.15,4.65Q119.5,28.48,123.84,28.48Z" fill="#005cb9"/><path d="M144.4,12.74v2.69a7.87,7.87,0,0,1,6.15-3.09,6.81,6.81,0,0,1,4.91,1.89,7.07,7.07,0,0,1,2,5.39v12h-5.95V20.12q0-3.8-2.94-3.79c-1.4,0-2.79,1-4.15,3.12V31.64h-5.94V12.74Z" fill="#005cb9"/><path d="M171.41,31.6V3.67h9.43a19.93,19.93,0,0,1,9,1.72,13,13,0,0,1,5.28,5,14,14,0,0,1,2,7.25,13.78,13.78,0,0,1-8.9,12.89,14.5,14.5,0,0,1-2.91.83,38.82,38.82,0,0,1-5,.21Zm9-24.36h-5V28h5.13a20.69,20.69,0,0,0,4.66-.41,11.4,11.4,0,0,0,2.78-1A9.76,9.76,0,0,0,190,25a10.41,10.41,0,0,0,3-7.59,9.67,9.67,0,0,0-5.62-9.09,10.88,10.88,0,0,0-2.75-.9A27.54,27.54,0,0,0,180.42,7.24Z" fill="#005cb9"/><path d="M217.31,22.75H204.36A6,6,0,0,0,206.13,27a5.87,5.87,0,0,0,4.22,1.56A11,11,0,0,0,217,26.28v3.56a12.06,12.06,0,0,1-3.33,1.6,13.92,13.92,0,0,1-3.87.48,8.73,8.73,0,0,1-4.93-1.26,9.17,9.17,0,0,1-3-3.39,10.32,10.32,0,0,1-1.13-4.94,9.77,9.77,0,0,1,2.38-6.83,8,8,0,0,1,6.19-2.64,7.27,7.27,0,0,1,5.84,2.57,10.17,10.17,0,0,1,2.18,6.86Zm-12.87-2.18h9.27a5.1,5.1,0,0,0-1.3-3.36A4.18,4.18,0,0,0,209.29,16a4.5,4.5,0,0,0-3.22,1.18A5.93,5.93,0,0,0,204.44,20.57Z" fill="#005cb9"/><path d="M224.9,13.22v2.35a7.31,7.31,0,0,1,5.55-2.71,6.16,6.16,0,0,1,3.2.89,5.79,5.79,0,0,1,2.25,2.45,11.55,11.55,0,0,1,.77,4.91V31.64H233V21.15a7.18,7.18,0,0,0-.86-4,3.3,3.3,0,0,0-2.88-1.21,5.25,5.25,0,0,0-4.39,2.58V31.64h-3.72V13.22Z" fill="#005cb9"/><path d="M239.18,16.15,246,9.42v3.8h5.83v3.29H246v9c0,2.11.88,3.16,2.62,3.16a8.14,8.14,0,0,0,4.15-1.3v3.4A9.18,9.18,0,0,1,248.2,32,6.1,6.1,0,0,1,244,30.5a4,4,0,0,1-.86-1,5.14,5.14,0,0,1-.57-1.44,16.55,16.55,0,0,1-.23-3.4V16.51h-3.2Z" fill="#005cb9"/><path d="M267,20.57V28.4c0,.63.22.94.64.94a4.49,4.49,0,0,0,2.07-1v2.22a12.05,12.05,0,0,1-2,1.09,4.17,4.17,0,0,1-1.57.29c-1.56,0-2.48-.61-2.76-1.84a8,8,0,0,1-4.95,1.8,4.36,4.36,0,0,1-4.48-4.46,4.54,4.54,0,0,1,1.25-3.12,8.56,8.56,0,0,1,3.55-2.17l4.67-1.6v-1q0-3.32-3.32-3.32c-2,0-3.93,1-5.81,3.08v-4a7.56,7.56,0,0,1,6.11-2.51,7,7,0,0,1,4.78,1.56,5,5,0,0,1,1.08,1.34,4.6,4.6,0,0,1,.61,1.66A23.87,23.87,0,0,1,267,20.57ZM263.4,28V22.53l-2.44.94A8.52,8.52,0,0,0,258.32,25a2.71,2.71,0,0,0,0,3.74,2.59,2.59,0,0,0,1.9.72A4.57,4.57,0,0,0,263.4,28Z" fill="#005cb9"/><path d="M273,3.67h3.64v28H273Z" fill="#005cb9"/></svg>