<?xml version="1.0" encoding="UTF-8"?>
<svg id="svg285" xmlns="http://www.w3.org/2000/svg" viewBox="0 0 163.39 35.1">
  <defs>
    <style>
      .cls-1 {
        fill: #1563a9;
      }

      .cls-2 {
        fill: #239de0;
      }

      .cls-3 {
        fill: #231f20;
      }

      .cls-4 {
        fill: #99d538;
      }
    </style>
  </defs>
  <g>
    <path class="cls-3" d="M105.63,25.1c-.32,.23-.67,.43-1.04,.61-.37,.17-.81,.26-1.32,.26-.67,0-1.16-.21-1.48-.64-.31-.43-.47-1.04-.47-1.82v-6.43h4.2v-3.93h-4.2v-4.37h-5v4.37h-2.58v3.93h2.58v6.15c0,1.02,.1,1.95,.31,2.78,.21,.83,.56,1.55,1.04,2.14,.49,.59,1.12,1.05,1.91,1.39,.79,.33,1.76,.5,2.92,.5,1.85,0,3.57-.63,5.14-1.88l-2.02-3.06Z"/>
    <path class="cls-3" d="M148.93,7.35c-.74-.63-1.56-1.07-2.47-1.32-.9-.25-1.8-.38-2.68-.38-.83,0-1.65,.13-2.45,.4-.8,.27-1.51,.67-2.14,1.22-.63,.54-1.13,1.23-1.51,2.07-.38,.83-.57,1.83-.57,2.99v.83h-2.64v3.93h2.64v12.37h4.97v-12.37h3.86v-3.93h-3.86v-.9c0-.81,.21-1.44,.63-1.88,.42-.44,.97-.66,1.67-.66,.44,0,.87,.07,1.29,.21,.42,.14,.8,.34,1.15,.59l2.12-3.16Z"/>
    <polygon class="cls-3" points="126.95 29.44 131.95 29.44 131.95 13.15 129.45 13.15 126.95 13.15 126.95 29.44"/>
    <polygon class="cls-3" points="109.52 29.44 124.76 29.44 124.76 25.15 114.76 25.15 114.76 6.27 109.52 6.27 109.52 29.44"/>
    <path class="cls-3" d="M163.39,21.94c0-1.37-.17-2.62-.52-3.77-.35-1.15-.86-2.13-1.55-2.95-.68-.82-1.52-1.46-2.52-1.93-1-.46-2.15-.69-3.47-.69s-2.5,.24-3.54,.71c-1.04,.47-1.92,1.11-2.64,1.89-.72,.79-1.27,1.71-1.65,2.76-.38,1.05-.57,2.15-.57,3.28,0,1.3,.2,2.48,.61,3.56,.41,1.08,1,2,1.77,2.76,.77,.76,1.72,1.36,2.83,1.79,1.11,.43,2.36,.64,3.75,.64,1.04,0,1.97-.1,2.78-.3,.81-.2,1.51-.42,2.1-.68,.59-.25,1.07-.51,1.44-.78,.37-.27,.65-.46,.83-.57l-2.05-3.16c-.37,.28-.96,.61-1.77,.99-.81,.38-1.86,.57-3.16,.57s-2.36-.33-3.11-.99c-.75-.66-1.14-1.43-1.16-2.31h11.6v-.83Zm-11.6-2.36c0-.35,.07-.7,.23-1.06,.15-.36,.37-.69,.66-.99,.29-.3,.65-.55,1.09-.75,.44-.2,.95-.3,1.53-.3s1.08,.1,1.49,.3c.42,.2,.76,.45,1.04,.75,.28,.3,.49,.63,.62,.99,.14,.36,.21,.71,.21,1.06h-6.88Z"/>
    <path class="cls-3" d="M90.48,15.22c-.68-.82-1.52-1.46-2.52-1.93-.99-.46-2.15-.69-3.47-.69s-2.5,.24-3.54,.71c-1.04,.47-1.92,1.11-2.64,1.89-.72,.79-1.27,1.71-1.65,2.76-.38,1.05-.57,2.15-.57,3.28,0,1.3,.2,2.48,.61,3.56,.4,1.08,.99,2,1.77,2.76s1.72,1.36,2.83,1.79c1.11,.43,2.36,.64,3.75,.64,1.04,0,1.97-.1,2.78-.3,.81-.2,1.51-.42,2.1-.68,.59-.25,1.07-.51,1.44-.78,.37-.27,.65-.46,.83-.57l-2.05-3.16c-.37,.28-.96,.61-1.77,.99-.81,.38-1.86,.57-3.16,.57s-2.36-.33-3.11-.99c-.75-.66-1.14-1.43-1.16-2.31h11.6v-.83c0-1.37-.17-2.62-.52-3.77-.35-1.15-.86-2.13-1.55-2.95Zm-9.53,4.36c0-.35,.07-.7,.23-1.06,.15-.36,.37-.69,.66-.99,.29-.3,.65-.55,1.09-.75s.95-.3,1.53-.3,1.08,.1,1.49,.3c.42,.2,.77,.45,1.04,.75,.28,.3,.49,.63,.63,.99,.14,.36,.21,.71,.21,1.06h-6.88Z"/>
    <polygon class="cls-3" points="49.89 29.44 54.89 29.44 55.48 14.4 60.55 23.33 63.26 23.33 68.06 14.3 68.72 29.44 73.96 29.44 72.89 6.27 67.88 6.27 61.98 17.14 55.93 6.27 50.97 6.27 49.89 29.44"/>
    <path class="cls-3" d="M129.45,11.29c-1.54,0-2.82-1.27-2.82-2.82s1.27-2.82,2.82-2.82,2.82,1.24,2.82,2.82-1.27,2.82-2.82,2.82"/>
  </g>
  <path id="path88" class="cls-4" d="M19.06,11.37c3.93,5.21,6.27,11.7,6.27,18.73,0,1.7-.14,3.36-.4,4.99h11.39c.99,0,1.79-.81,1.79-1.8V1.8c0-1.17-1.11-2.04-2.24-1.74-6.8,1.8-12.69,5.85-16.82,11.31"/>
  <path id="path92" class="cls-2" d="M13.19,35.09c-.26-1.62-.4-3.29-.4-4.99,0-7.04,2.34-13.53,6.27-18.73C14.93,5.91,9.04,1.85,2.24,.06,1.11-.24,0,.63,0,1.8v31.5c0,.99,.8,1.8,1.79,1.8H13.19Z"/>
  <path id="path96" class="cls-1" d="M19.06,11.37c-3.93,5.21-6.27,11.7-6.27,18.73,0,1.7,.14,3.36,.4,4.99h11.74c.26-1.63,.4-3.29,.4-4.99,0-7.04-2.33-13.53-6.27-18.73"/>
</svg>