<svg xmlns="http://www.w3.org/2000/svg" viewBox="0 0 173.55 130.26"><title>mutual-centerwhite</title><path d="M35.81,51.64A51.11,51.11,0,0,1,86.92.5h0a51.14,51.14,0,0,1,0,102.28m0,0A51.16,51.16,0,0,1,35.78,51.64" fill="none" stroke="#fff" stroke-miterlimit="3.86"/><path d="M130.74,90.35a2.66,2.66,0,0,0-1.45-.44,2.65,2.65,0,0,0-2.64,2.64,2.64,2.64,0,1,0,4.09-2.2Zm-1.46,4.34a2.14,2.14,0,1,1,2.13-2.13A2.13,2.13,0,0,1,129.28,94.69Z" fill="#fff"/><path d="M129.79,93l-.22-.28a.75.75,0,0,0,.81-.79.78.78,0,0,0-.29-.61,1.17,1.17,0,0,0-.78-.21h-.92V94h.46V92.74h.29l.57.85A4.07,4.07,0,0,1,130,94h.56l-.47-.67C130,93.2,129.85,93.08,129.79,93Zm-.94-.54v-1h.34a1.35,1.35,0,0,1,.4,0,.46.46,0,0,1,.31.43.49.49,0,0,1-.16.39.83.83,0,0,1-.57.14Z" fill="#fff"/><path d="M86.92,3A48.65,48.65,0,0,0,57.48,90.35h0a48.59,48.59,0,0,0,58.87,0h0A48.64,48.64,0,0,0,86.92,3Zm-35,31.4h8.48a1.63,1.63,0,0,1,1.32.66c0,.09,1.42,2.92,1.42,2.92H51.93Zm11.32,6s1-.1,1.31.65c0,.1,1.61,3.21,1.61,3.21H52V40.4Zm-10.09,9h3.11l-1.51,4.81A2.32,2.32,0,0,1,57,56.9H50.79A33.29,33.29,0,0,1,53.16,49.36ZM71.08,87.74,65.7,84.82l2.83-4.15-2-4.81h8.11Zm48.38-24.9c-1.23.1-2.74-1.51-3.4.1l6.6,3.3S120,73.41,116,72.93a5.73,5.73,0,0,1-3.29-1.32,1.29,1.29,0,0,0-1.7-.09l5.47,5.56c-2.64,2.27-3.87,3.78-6.32,4.06s-4-.76-5.47-2.55a1,1,0,0,0-1.13-.28l2.83,6.32s-2.83,1.32-3.68,1.6a5.48,5.48,0,0,1-2.83.38,4.34,4.34,0,0,1-2.74-1.22,6.56,6.56,0,0,1-1.79-3.12c-.19-.57-.75-.66-1.23-.66,0,0,.76,4.81,1.14,7.07A8.74,8.74,0,0,1,85.6,85.2,7.3,7.3,0,0,1,84,81.05V68.88H76.73c0-.09-1.32,4.24-1.32,4.24H54.57l-1.32-4,1.51-2-.95-3.3.57-.76h2.54l.67,1.23h1.88l-1.32-3.21h-4V59.07h5.28l1.13,3h2.17L60,54.45H58.81V49.26H62.4L63,48h5l8.77,17.83H83.9V42.47H81.41a4.87,4.87,0,0,1,0,.66,6,6,0,1,1-7.77-5.79l-1.93-2.58A2.87,2.87,0,0,1,69.46,36,2.84,2.84,0,0,1,66.78,34a2.58,2.58,0,0,1,.44-2.64,3.6,3.6,0,0,1,.33-.36,4.94,4.94,0,0,1,.41-.34l-2.74-2c-2,3.39-5.37.75-4.81-1,10.47-8.68,23-12.07,35.28-16.5,1,1.22,1.6,3.3.66,4.52-.66,1-2,1.42-1.23,2.65l7.35-3.87a32.65,32.65,0,0,1,3.31,4.43,2.73,2.73,0,0,1-.38,3.21c-.47.75-1.79,1.32-1.32,2.45l7.64-3.77c1.89,2.35,4.43,4.81,3.59,7.92-.76,2.17-2,2.26-2.84,2.92a1.37,1.37,0,0,0-.37,1.51s4.52-2.07,6.69-2.92c1.32,2.83,4,5.47,2.17,9.33-.85,1.23-1.79,1.7-3.48,2.46a1,1,0,0,0-.67,1.32s7.08-1.42,7.08-1.32c.09,1.41,2.16,8-1.61,10-1.79,1.14-3.39-.18-3.77,1.7l6.79.66c-.47,2-.75,3.59-1.32,5.47S121.06,62.84,119.46,62.84Z" fill="#fff"/><polygon points="73.63 115.09 69.11 115.09 69.11 129.76 78.16 129.76 78.16 127.99 73.63 127.99 73.63 115.09" fill="#fff"/><path d="M27.56,128.58c-1.28.09-2.36-.21-2.36-1.38V115.09H21v11.32a3,3,0,0,0,1.77,3,3.9,3.9,0,0,0,1.57.39h7.58V115.09H27.56Z" fill="#fff"/><polygon points="32.58 116.96 35.73 117.06 35.73 129.76 40.26 129.76 40.26 116.96 43.51 116.96 43.51 115.09 32.58 115.09 32.58 116.96" fill="#fff"/><polygon points="156.91 117.06 156.91 121.19 156.91 121.78 154.75 121.78 154.75 121.19 154.75 117.06 154.75 115.09 150.61 115.09 150.61 117.06 150.61 121.19 150.61 122.35 150.61 125.33 150.61 129.37 150.61 129.76 154.75 129.76 154.75 129.37 154.75 125.33 154.75 123.56 156.91 123.56 156.91 125.33 156.91 129.37 156.91 129.76 161.05 129.76 161.05 129.37 161.05 125.33 161.05 122.35 161.05 121.19 161.05 117.06 161.05 115.09 156.91 115.09 156.91 117.06" fill="#fff"/><path d="M146.77,115.09H138.7v1.37h4.92a1.12,1.12,0,0,1,.88.6,2.71,2.71,0,0,1,.2,1.37v10.14c-1.28.1-2.07,0-2.17-1.37v-7.68h-2.26a2.38,2.38,0,0,0-2.17,2.53v4.46a3.07,3.07,0,0,0,1.28,2.85,2.26,2.26,0,0,0,1.38.4H149v-12.7A2.18,2.18,0,0,0,146.77,115.09Z" fill="#fff"/><path d="M92.59,114.35h0a7.86,7.86,0,0,1,.73-1.32,2.44,2.44,0,0,1,2.46-1.29v-1.08a7.34,7.34,0,0,0-3.65,2,13.3,13.3,0,0,0-1.46,1.73h0a11.89,11.89,0,0,0-.79,1.24H84a5.31,5.31,0,0,0-2.46.1A5,5,0,0,0,78.16,119a2.71,2.71,0,0,0,.3,2.85,2.24,2.24,0,0,0,.51.46h0a5.73,5.73,0,0,0,5.3,0h0a2.61,2.61,0,0,0,.28-.17,5,5,0,0,0,1.84-5.11,1.84,1.84,0,0,1-.07-.3h3a1.08,1.08,0,0,0-.19.3c-.3.78-1.08,2.56-1.78,4.13a8.81,8.81,0,0,1-.52,1.15h0c-.16.31-.32.58-.46.81a6.8,6.8,0,0,1-3.64,3.64,5.83,5.83,0,0,1-4.13-.55l-.1,1c.35.17.5.26.65.32a6.47,6.47,0,0,0,1,.27c2.33.54,5.61-1,7.18-2.56a10,10,0,0,0,2.12-3h0c.17-.34.35-.72.54-1.15a10.09,10.09,0,0,0,.59-1.48c.49-1.27,1-2.95,1-2.95h3.93l.3-1.18H92.14A7,7,0,0,1,92.59,114.35Zm-9.11,5.56a6.48,6.48,0,0,1-.69,1.28c-.5.69-1.07,1.08-1.78.89s-.88-.4-.88-.89a4.69,4.69,0,0,1,.49-1.67c.21-.49,1.28-2.46,1.28-2.46a1.38,1.38,0,0,1,.89-.59c.78-.13,1.37.1,1.47.59C84.46,117.94,83.94,118.85,83.48,119.91Z" fill="#fff"/><path d="M133.44,115.09h-15v14.67h4.52V116.47c1.28,0,2.17.29,2.17,1.47v11.82h4.63V116.47c1.28,0,2.17.29,2.17,1.47v11.82h4.63V117.82A3.29,3.29,0,0,0,133.44,115.09Z" fill="#fff"/><path d="M117.15,115.09c-.07-.24-.14-.5-.22-.74h0a7.16,7.16,0,0,0-.48-1.31c-1.57-3.84-4.82-5.62-9.25-5.62-4.82-.1-8,2.26-9.45,5.62a9.28,9.28,0,0,0-.46,1.31h0l0,.16a19.6,19.6,0,0,0-.4,2.56,19.81,19.81,0,0,0-.09,4.13c0,.4.11.78.18,1.16h0a10.7,10.7,0,0,0,.65,2.39c.09.18.15.39.25.59a8.71,8.71,0,0,0,4.23,4,11,11,0,0,0,5.22.88,10.52,10.52,0,0,0,4.43-.88,10.81,10.81,0,0,0,3.93-2.85,5.33,5.33,0,0,0,.69-1.18,14.24,14.24,0,0,0,.82-3h0c.06-.38.12-.76.17-1.15a28.46,28.46,0,0,0,0-4.13A13.17,13.17,0,0,0,117.15,115.09Zm-5.23,3.74v3.52h0a14.35,14.35,0,0,1-.29,3c-.49,2.16-1.67,3.74-4.43,3.74-3,0-4.23-1.48-4.72-3.74a23.09,23.09,0,0,1-.28-3h0c0-.37,0-.75,0-1.15v-4.13c0-1,0-1.87,0-2.71h0a13,13,0,0,1,.15-1.32c.29-2.67,1.37-4.24,4.82-4.24,3,0,4.14,1.77,4.53,4.24.06.4.11.85.14,1.32h0c0,.86,0,1.81,0,2.81Z" fill="#fff"/><path d="M171.28,115.09h-8.07v1.37h4.92a1.13,1.13,0,0,1,.89.6,2.84,2.84,0,0,1,.2,1.37v10.14c-1.29.1-2.07,0-2.17-1.37v-7.68h-2.27a2.37,2.37,0,0,0-2.16,2.53v4.45a3.06,3.06,0,0,0,1.28,2.86,2.22,2.22,0,0,0,1.38.4h8.27v-12.7A2.19,2.19,0,0,0,171.28,115.09Z" fill="#fff"/><path d="M65.26,115.09H57.19v1.38h4.92a1.12,1.12,0,0,1,.89.59,2.76,2.76,0,0,1,.2,1.38v3.91h0v6.23c-1.29.09-2.07,0-2.17-1.38v-4.85h0v-2.83H58.77a2.38,2.38,0,0,0-2.17,2.53v4.46a3.08,3.08,0,0,0,1.28,2.86,2.32,2.32,0,0,0,1.38.39h8.27v-7.41h0v-5.29A2.2,2.2,0,0,0,65.26,115.09Z" fill="#fff"/><path d="M50.69,122.35v6.22c-1.28.1-2.36-.21-2.36-1.38v-4.84h0v-7.26H44.1v7.26h0v4.05a2.94,2.94,0,0,0,1.77,3,3.92,3.92,0,0,0,1.57.4H55V115.09H50.69Z" fill="#fff"/><polygon points="19.39 108 13.78 108 12.2 114.35 10.2 122.35 10.2 122.35 10.04 122.97 9.87 122.35 7.66 114.35 5.91 108 0 108 0 114.35 0 122.35 0 129.76 2.07 129.76 2.07 122.35 2.07 114.35 2.07 112.53 2.56 114.35 4.76 122.35 4.76 122.35 6.79 129.76 10.24 129.76 12.14 122.35 12.14 122.35 14.2 114.35 14.2 114.35 14.67 112.53 14.67 114.35 14.67 114.35 14.67 122.35 14.67 129.76 19.39 129.76 19.39 122.35 19.39 114.35 19.39 114.35 19.39 108" fill="#fff"/></svg>