<svg id="Layer_1" data-name="Layer 1" xmlns="http://www.w3.org/2000/svg" viewBox="0 0 290 55"><title>mutual-omahablack</title><g id="Mutual_Blue_" data-name="Mutual (Blue)"><path d="M49.9,50.26A1.13,1.13,0,1,1,51,49.13a1.12,1.12,0,0,1-1.12,1.13m0-2.52a1.4,1.4,0,0,0,0,2.79,1.4,1.4,0,1,0,0-2.79"/><path d="M50.56,49.91l-.25-.35a2.11,2.11,0,0,0-.15-.19l-.11-.15a.4.4,0,0,0,.43-.42.42.42,0,0,0-.16-.32.65.65,0,0,0-.41-.11h-.49v1.55h.25v-.69h.15l.3.46.15.22Zm-.34-1.11a.27.27,0,0,1-.08.21.46.46,0,0,1-.3.07h-.17v-.53h.18a.58.58,0,0,1,.21,0,.22.22,0,0,1,.16.22"/><path d="M27.5,0A27.5,27.5,0,1,0,55,27.5,27.5,27.5,0,0,0,27.5,0Zm0,54.54a27,27,0,1,1,27-27A27,27,0,0,1,27.5,54.54Z"/><path d="M27.5,2.11A25.38,25.38,0,1,0,52.88,27.49,25.39,25.39,0,0,0,27.5,2.11ZM9,18.36h4.49a.86.86,0,0,1,.7.36s.74,1.54.74,1.54H9v-1.9Zm6,3.2s.55,0,.7.34c0,.06.85,1.7.85,1.7H9.05v-2ZM8.4,30.28a17.82,17.82,0,0,1,1.25-4h1.64l-.8,2.55a1.25,1.25,0,0,1,1,.59,1.29,1.29,0,0,1,.15.86ZM19.12,46.59,16.28,45l1.49-2.19-1-2.54H21ZM44.71,33.42c-.66,0-1.45-.8-1.8,0l3.49,1.75S45,39,42.86,38.76a3.1,3.1,0,0,1-1.75-.7.68.68,0,0,0-.89-.05L43.11,41c-1.4,1.2-2,2-3.35,2.15a3,3,0,0,1-2.89-1.35.49.49,0,0,0-.59-.15L37.77,45s-1.49.69-1.94.84a2.89,2.89,0,0,1-1.5.2,2.32,2.32,0,0,1-1.45-.64,3.41,3.41,0,0,1-.94-1.65.6.6,0,0,0-.65-.35s.4,2.54.6,3.74a4.62,4.62,0,0,1-5.09-1.85A3.82,3.82,0,0,1,26,43.05V36.62H22.11s-.69,2.24-.69,2.24h-11l-.7-2.09.8-1.05L10,34l.3-.4h1.35l.35.65h1l-.7-1.7H10.14V31.43h2.8L13.53,33h1.15l-1.39-4h-.65V26.24h1.89l.3-.65h2.65L22.11,35H25.9V22.65H24.59c0,.12,0,.24,0,.35a3.19,3.19,0,1,1-4.11-3.06l-1-1.36a1.49,1.49,0,0,1-2.63-.4,1.36,1.36,0,0,1,.24-1.39l.17-.19.22-.18L16,15.37a1.31,1.31,0,0,1-2.54-.55C19,10.23,25.66,8.44,32.14,6.1a2.06,2.06,0,0,1,.35,2.39c-.35.55-1.05.75-.65,1.4l3.89-2.05a17.85,17.85,0,0,1,1.75,2.35,1.46,1.46,0,0,1-.2,1.69c-.25.4-1,.7-.7,1.3l4-2c1,1.25,2.34,2.55,1.89,4.19-.4,1.15-1,1.2-1.5,1.55a.76.76,0,0,0-.2.8s2.4-1.1,3.55-1.55c.69,1.5,2.09,2.89,1.14,4.94a3.7,3.7,0,0,1-1.84,1.29.54.54,0,0,0-.35.7s3.74-.75,3.74-.7c.05.75,1.15,4.24-.85,5.29-1,.6-1.79-.1-2,.89l3.59.36c-.25,1-.4,1.89-.7,2.89A2.56,2.56,0,0,1,44.71,33.42Z"/><polygon points="162.04 31.76 162.04 22.47 156.25 22.47 156.25 31.76 156.25 41.25 167.85 41.25 167.85 38.99 162.04 38.99 162.04 31.76"/><polygon points="109.48 24.86 113.51 24.99 113.51 31.76 113.51 41.25 119.31 41.25 119.31 31.76 119.31 24.86 123.47 24.86 123.47 22.47 109.48 22.47 109.48 24.86"/><path d="M103.05,31.76v8c-1.64.13-3-.27-3-1.76V22.47H94.6V37a3.79,3.79,0,0,0,2.27,3.79,5,5,0,0,0,2,.5h9.71V22.47h-5.54v9.29Z"/><path d="M151.33,22.47H141v1.76h6.31a1.44,1.44,0,0,1,1.13.76,3.52,3.52,0,0,1,.25,1.76v13c-1.64.13-2.65,0-2.77-1.76V28.14H143a3,3,0,0,0-2.77,3.24v5.71c0,1.9.63,3,1.64,3.66a2.86,2.86,0,0,0,1.76.5h10.59V25A2.8,2.8,0,0,0,151.33,22.47Z"/><path d="M132.67,31.76v8c-1.64.13-3-.27-3-1.76V22.46h-5.42V37a3.76,3.76,0,0,0,2.26,3.78,5,5,0,0,0,2,.5h9.71V22.46h-5.55v9.3Z"/><path d="M287.1,22.46H276.77v1.77h6.3a1.46,1.46,0,0,1,1.13.75,3.55,3.55,0,0,1,.25,1.77v13c-1.64.13-2.64,0-2.77-1.76V28.14h-2.9A3,3,0,0,0,276,31.38v5.7c0,1.9.63,3,1.64,3.66a2.88,2.88,0,0,0,1.76.51H290V25A2.81,2.81,0,0,0,287.1,22.46Z"/><path d="M255.71,22.46H245.37v1.77h6.3a1.46,1.46,0,0,1,1.14.76,3.47,3.47,0,0,1,.25,1.75v13c-1.64.13-2.65,0-2.77-1.76V28.14h-2.9a3,3,0,0,0-2.77,3.23v5.71c0,1.9.63,3,1.64,3.66a2.86,2.86,0,0,0,1.76.51h10.59V25A2.81,2.81,0,0,0,255.71,22.46Z"/><polygon points="268.7 24.99 268.7 30.28 268.7 31.04 265.93 31.04 265.93 30.28 265.93 24.99 265.93 22.47 260.63 22.47 260.63 24.99 260.63 30.28 260.63 31.76 260.63 35.58 260.63 40.75 260.63 41.25 265.93 41.25 265.93 40.75 265.93 35.58 265.93 33.31 268.7 33.31 268.7 35.58 268.7 40.75 268.7 41.25 274 41.25 274 40.75 274 35.58 274 31.76 274 30.28 274 24.99 274 22.47 268.7 22.47 268.7 24.99"/><path d="M238.64,22.47H219.4V41.25h5.8v-17c1.64,0,2.77.38,2.77,1.88V41.25h5.93v-17c1.64,0,2.77.38,2.77,1.88V41.25h5.92V26C242.59,24.46,240.66,22.47,238.64,22.47Z"/><path d="M217.77,22.47c-.09-.31-.18-.64-.27-1h0a9.18,9.18,0,0,0-.62-1.68c-2-4.92-6.17-7.19-11.84-7.19-6.18-.13-10.21,2.9-12.11,7.19a12.06,12.06,0,0,0-.58,1.69h0c0,.06,0,.13,0,.2a23.24,23.24,0,0,0-.5,3.28,25.5,25.5,0,0,0-.13,5.29c.07.5.15,1,.23,1.48h0a13.33,13.33,0,0,0,.85,3.06c.1.24.18.51.31.76a11.21,11.21,0,0,0,5.42,5.17,14.34,14.34,0,0,0,6.68,1.12,13.47,13.47,0,0,0,5.67-1.12,14.09,14.09,0,0,0,5-3.66,8.1,8.1,0,0,0,.88-1.51,18.2,18.2,0,0,0,1-3.82h0c.08-.48.16-1,.23-1.47A38.9,38.9,0,0,0,218,25,16,16,0,0,0,217.77,22.47Zm-6.69,9.29a18.13,18.13,0,0,1-.38,3.82c-.62,2.77-2.14,4.79-5.67,4.79-3.78,0-5.42-1.89-6.05-4.79a28.15,28.15,0,0,1-.35-3.82h0c0-.47,0-1,0-1.47V25c0-1.23,0-2.39.06-3.48,0-.59.1-1.16.19-1.69.38-3.41,1.76-5.42,6.18-5.42,3.9,0,5.29,2.27,5.79,5.42a16.44,16.44,0,0,1,.19,1.69h0c.06,1.09.07,2.31.07,3.6v5.16c0,.5,0,1,0,1.48Z"/><polygon points="83.37 21.51 80.81 31.76 80.61 32.55 80.39 31.76 77.56 21.51 75.31 13.39 67.75 13.39 67.75 21.51 67.75 31.76 67.75 41.25 70.4 41.25 70.4 31.76 70.4 21.51 70.4 19.19 71.03 21.51 73.84 31.76 76.44 41.25 80.86 41.25 83.3 31.76 85.94 21.51 86.53 19.19 86.53 21.51 86.53 31.76 86.53 41.25 92.58 41.25 92.58 31.76 92.58 21.51 92.58 13.39 85.4 13.39 83.37 21.51"/><path d="M183.87,21.51h0c-.64.91-1,1.58-1,1.58h-7.57a6.92,6.92,0,0,0-3.15.13c-2.81.81-3.66,2.87-4.28,4.29a3.46,3.46,0,0,0,.37,3.65,3.77,3.77,0,0,0,.66.6h0c1.77,1.19,4.85,1,6.78,0h0l.36-.21A6.38,6.38,0,0,0,178.4,25a1.89,1.89,0,0,1-.09-.38h3.77a1.89,1.89,0,0,0-.25.38c-.38,1-1.38,3.28-2.26,5.29a14.58,14.58,0,0,1-.68,1.48h0c-.21.4-.41.75-.59,1.05-.63,1.12-1.82,3.71-4.66,4.66-2.52.83-5.29-.71-5.29-.71l-.13,1.34.84.42a8.83,8.83,0,0,0,1.3.34c3,.7,7.19-1.26,9.21-3.28a13,13,0,0,0,2.7-3.82h0c.22-.43.45-.92.7-1.47a14.85,14.85,0,0,0,.75-1.89c.63-1.64,1.26-3.78,1.26-3.78H190l.38-1.52h-4.66a10.14,10.14,0,0,1,.56-1.57h0a10,10,0,0,1,.94-1.7,3.13,3.13,0,0,1,3.15-1.64V16.8a9.4,9.4,0,0,0-4.68,2.49A16.58,16.58,0,0,0,183.87,21.51Zm-9.22,7.13a8,8,0,0,1-.88,1.64c-.63.89-1.37,1.38-2.27,1.14-.74-.21-1.13-.51-1.13-1.14a6.24,6.24,0,0,1,.62-2.14c.28-.64,1.65-3.15,1.65-3.15a1.8,1.8,0,0,1,1.13-.76c1-.16,1.77.13,1.89.76C175.91,26.12,175.24,27.28,174.65,28.64Z"/></g></svg>