<svg xmlns="http://www.w3.org/2000/svg" viewBox="0 0 247.52 97"><title>nationwide_color-horizontal</title><path d="M52.85,79.76H70.33V22.08h-16V58l-4.65-4.55V24.82C49.61,8,51.62,0,51.62,0c-5.41,0-8.22,5.13-8.85,6.65-3,.33-5.53,2.08-7.2,5.49A18.64,18.64,0,0,0,34,16.84c-6.41,1.48-7,12.89-6.54,14.94l-9.95-9.7H.06V79.76h16V44.9l7.73,7.32a10,10,0,0,0,1.39,3l-3-2.6c-.55,5.66,1,8.56,2.52,10.7L21,60.14a13,13,0,0,0,4.09,10.55L20.18,68.3c-.34,3.36,3,8.29,5,9.24l-4.12-.62a9.09,9.09,0,0,0,4.12,6.31s-7-.15-10.27-.15A115.72,115.72,0,0,0,0,83.93s4,4,9.07,4.14l-4.53,2.8a16.8,16.8,0,0,0,6.42.7L8.34,94.7s8.24-3.17,11.72-2.93C22.83,92,35.75,97,44.43,97c5.82,0,10-2.22,13.43-4a18.83,18.83,0,0,1,5.61-2.24c3.14-.48,4.56.66,4.56.66.32-1.32,1.29-4.66-3.81-5.48a3.09,3.09,0,0,0-2.4-2.3c-2.74-.41-14.27-1.3-14.61-1.32-1-.06-4.31-.7-1.25-5.08.23-.33,1.77-2.28,1.77-2.28Zm-.41,4.31c3.79.3,6.48.55,9.18.89,1,.13,1.43,1.31,1.56,1.86a21.53,21.53,0,0,0-3.34-.41l-.11,1.23a15.66,15.66,0,0,1,3.66-.52s3.93,0,3.74,2.63c-1.07-.74-3.26-.44-3.88-.34a20.34,20.34,0,0,0-6,2.38,37.5,37.5,0,0,1-6.65,2.95c1.1-1.07,4-4.26,4-4.26l-3.85-1.33,3.15-2.75L49,83.79l3.4.28M46.86,73.74c-1.78,2.07-4.09,5-3.59,7.14h0c.37,1.78,2.87,2.87,2.87,2.87l5.38,2.91-3.49,3L52.22,91S48.38,95,47.94,95.36a20.49,20.49,0,0,1-3.51.3c-8.89,0-21.24-5.25-24.3-5.29-3.69,0-8.31,2.08-8.31,2.08l2.41-2.61A25.29,25.29,0,0,1,8,90.22l4.33-2.94a17.57,17.57,0,0,1-8.7-2.36s7-.56,16.48-.46c3.84,0,10.35.43,10.35.43-3.22-1.37-6.23-3.17-7.52-6.33l6.14.92c-2.58-1.58-6.32-5.52-7-8.58l6.84,2.4C27.7,72,23.47,68,22.71,63.43l5.41,3.41c-1.42-1.43-5.26-9-4.61-11.24l5,3.39c-2.42-3-5.24-10.89-3.32-14,1.53,6,5,8.14,5,8.14C28,49.9,23.11,38.4,27.73,33.33c1.21,11.47,6.09,15.35,6.09,15.35-4-6.44-8.64-26.18-.06-30.18-1.68,12.69,2.37,19.59,2.37,19.59C33.58,26.4,33.66,9.83,42.35,8.32c-4.27,12.49-1.24,22.12-1.24,22.12C40.49,1.23,49.9,1.72,49.9,1.72S48.35,10,48.35,24.8V67.48c0,3-.25,4.71-1.49,6.26" fill="#185aa5"/><path d="M141,33.08a2.33,2.33,0,1,1-2.46,2.33A2.41,2.41,0,0,1,141,33.08" fill="#010101"/><path d="M203.88,33.08a2.33,2.33,0,1,1-2.45,2.33,2.4,2.4,0,0,1,2.45-2.33" fill="#010101"/><path d="M120.14,47.66h-.37a14.85,14.85,0,0,0-3.37.4c-.81.22-1.48.75-1.48,1.49,0,1,1,1.5,2,1.5a2.94,2.94,0,0,0,3.24-2.95Zm3.93-2.42v8.7h-3.81V52.48a5.43,5.43,0,0,1-4.13,1.8c-3,.09-5.37-1.74-5.37-4.48,0-4.21,4.49-5.14,8.88-5.14h.5c0-1.16-.52-2.24-2.84-2.24a5.61,5.61,0,0,0-3.86,1.38l-2.31-2.3a8.82,8.82,0,0,1,6.28-2.36c2.44,0,3.78.35,5.14,1.57s1.52,3.32,1.52,4.53" fill="#010101"/><path d="M132.47,39.49V34.93h-4.11v4.56h-2.83v3.43h2.83v6.14c0,2,.35,3.27,1.17,4.09a5,5,0,0,0,3.68,1.13,8.09,8.09,0,0,0,3.08-.59V50.44a7.41,7.41,0,0,1-2.22.29c-1.28,0-1.6-.7-1.6-1.87V42.92h3.82V39.49Z" fill="#010101"/><path d="M236.72,45.09a2.75,2.75,0,0,0-3.1-2.69,3.09,3.09,0,0,0-3.12,2.69ZM241.09,47v1.09h-10.6c.07,1.48,1.74,2.75,3.71,2.82A4.45,4.45,0,0,0,238,49.2l2.61,1.91a7.6,7.6,0,0,1-6.33,3.17c-4.4,0-8-2.73-8-7.57,0-3.86,2.41-7.57,7.49-7.57,5.23,0,7.33,4.06,7.33,7.83" fill="#010101"/><polygon points="103.76 32.96 103.76 47.2 94.86 32.96 89.3 32.96 89.3 53.94 93.83 53.94 93.83 39.22 102.97 53.94 108.28 53.94 108.28 32.96 103.76 32.96" fill="#010101"/><polygon points="196.02 39.48 193.69 48.46 191.36 39.48 187.05 39.48 184.8 48.44 182.47 39.48 177.92 39.48 182.55 53.94 186.68 53.94 189.16 44.85 191.94 53.94 195.76 53.94 200.38 39.48 196.02 39.48" fill="#010101"/><polygon points="143.09 39.49 138.93 39.49 138.93 46.24 138.93 53.94 143.09 53.94 143.09 46.43 143.09 39.49" fill="#010101"/><polygon points="205.97 39.49 201.81 39.49 201.81 46.71 201.81 53.94 205.97 53.94 205.97 46.71 205.97 39.49" fill="#010101"/><path d="M175.36,40.47a4.47,4.47,0,0,0-3.57-1.32,5.85,5.85,0,0,0-4.3,1.91V39.49h-4V53.94h4.15V46.09a3.28,3.28,0,0,1,.77-2.31,2.53,2.53,0,0,1,1.81-.82,1.93,1.93,0,0,1,1.8.81,4.87,4.87,0,0,1,.56,2.86v7.31h4.16v-9a5.89,5.89,0,0,0-1.4-4.45" fill="#010101"/><path d="M219.86,46.72a3.68,3.68,0,1,0-3.68,3.9,3.69,3.69,0,0,0,3.68-3.9m4-13.76v21H220V52.33a5.77,5.77,0,0,1-4.49,2,6.91,6.91,0,0,1-5-2,7.84,7.84,0,0,1-2.13-5.61c0-4.39,2.94-7.58,7-7.58a6.15,6.15,0,0,1,4.38,1.62V33Z" fill="#010101"/><path d="M153.3,42.81a3.67,3.67,0,0,0-3.66,3.9,3.67,3.67,0,1,0,3.66-3.9m7.82,3.9a7.82,7.82,0,1,1-7.82-7.57,7.44,7.44,0,0,1,7.82,7.57" fill="#010101"/><path d="M241.49,36.25A2.73,2.73,0,1,1,244.21,39a2.72,2.72,0,0,1-2.72-2.72m-.58,0a3.31,3.31,0,1,0,3.3-3.31,3.31,3.31,0,0,0-3.3,3.31m2.72-1.32h.51c.43,0,.9,0,.9.52s-.47.53-.9.53h-.51Zm-.69,3.19h.69V36.57h.51l1,1.55h.72l-1-1.6a1,1,0,0,0,.9-1c0-.73-.42-1.14-1.33-1.14h-1.46Z" fill="#010101"/><path d="M52.44,84.07c3.79.3,6.48.55,9.18.89,1,.13,1.43,1.31,1.56,1.86a21.53,21.53,0,0,0-3.34-.41l-.11,1.23a15.66,15.66,0,0,1,3.66-.52s3.93,0,3.74,2.63c-1.07-.74-3.26-.44-3.88-.34a20.34,20.34,0,0,0-6,2.38,37.5,37.5,0,0,1-6.65,2.95c1.1-1.07,4-4.26,4-4.26l-3.85-1.33,3.15-2.75L49,83.79l3.4.28M46.86,73.74c-1.78,2.07-4.09,5-3.59,7.14h0c.37,1.78,2.87,2.87,2.87,2.87l5.38,2.91-3.49,3L52.22,91S48.38,95,47.94,95.36a20.49,20.49,0,0,1-3.51.3c-8.89,0-21.24-5.25-24.3-5.29-3.69,0-8.31,2.08-8.31,2.08l2.41-2.61A25.29,25.29,0,0,1,8,90.22l4.33-2.94a17.57,17.57,0,0,1-8.7-2.36s7-.56,16.48-.46c3.84,0,10.35.43,10.35.43-3.22-1.37-6.23-3.17-7.52-6.33l6.14.92c-2.58-1.58-6.32-5.52-7-8.58l6.84,2.4C27.7,72,23.47,68,22.71,63.43l5.41,3.41c-1.42-1.43-5.26-9-4.61-11.24l5,3.39c-2.42-3-5.24-10.89-3.32-14,1.53,6,5,8.14,5,8.14C28,49.9,23.11,38.4,27.73,33.33c1.21,11.47,6.09,15.35,6.09,15.35-4-6.44-8.64-26.18-.06-30.18-1.68,12.69,2.37,19.59,2.37,19.59C33.58,26.4,33.66,9.83,42.35,8.32c-4.27,12.49-1.24,22.12-1.24,22.12C40.49,1.23,49.9,1.72,49.9,1.72S48.35,10,48.35,24.8V67.48c0,3-.25,4.71-1.49,6.26" fill="#fff"/><polygon points="113.29 61.6 114.52 61.6 114.52 65.64 114.52 69.84 113.29 69.84 113.29 65.64 113.29 61.6" fill="#010101"/><path d="M116.22,68.79l.62-.87a4.8,4.8,0,0,0,2.85,1c1,0,1.71-.51,1.71-1.31v0c0-.83-1-1.15-2.06-1.45-1.29-.37-2.72-.81-2.72-2.33v0c0-1.42,1.18-2.36,2.8-2.36a5.63,5.63,0,0,1,3,.91l-.56.92a4.7,4.7,0,0,0-2.44-.79c-1,0-1.59.51-1.59,1.19v0c0,.78,1,1.09,2.12,1.42,1.27.38,2.64.88,2.64,2.36v0c0,1.57-1.29,2.47-2.93,2.47a5.65,5.65,0,0,1-3.41-1.21" fill="#010101"/><path d="M128.48,65.76v0a4.3,4.3,0,0,1,8.59,0v0A4.28,4.28,0,0,1,132.75,70a4.23,4.23,0,0,1-4.27-4.28m7.33,0v0a3.12,3.12,0,0,0-3.06-3.22,3,3,0,0,0-3,3.19v0a3.1,3.1,0,0,0,3,3.21,3,3,0,0,0,3-3.18" fill="#010101"/><path d="M138.94,61.6h1.23V63A3.12,3.12,0,0,1,143,61.43a3,3,0,0,1,3.16,3.3v5.11h-1.23V65a2.2,2.2,0,0,0-2.28-2.49,2.43,2.43,0,0,0-2.47,2.59v4.71h-1.23Z" fill="#010101"/><path d="M152.43,72l.42-1a2.64,2.64,0,0,0,1.29.3c.73,0,1.19-.38,1.69-1.55l-3.75-8.21h1.36l3,6.87,2.65-6.87h1.31l-3.46,8.52c-.7,1.7-1.5,2.32-2.74,2.32a3.77,3.77,0,0,1-1.76-.41" fill="#010101"/><path d="M161,65.76v0a4.3,4.3,0,0,1,8.59,0v0A4.28,4.28,0,0,1,165.29,70,4.23,4.23,0,0,1,161,65.76m7.33,0v0a3.12,3.12,0,0,0-3.06-3.22,3,3,0,0,0-3,3.19v0a3.1,3.1,0,0,0,3,3.21,3,3,0,0,0,3-3.18" fill="#010101"/><path d="M171.39,66.72V61.6h1.22v4.82a2.19,2.19,0,0,0,2.28,2.48,2.42,2.42,0,0,0,2.47-2.58V61.6h1.22v8.24h-1.22V68.41A3.13,3.13,0,0,1,174.54,70a3,3,0,0,1-3.15-3.3" fill="#010101"/><path d="M181,61.6h1.22v2.16a3.53,3.53,0,0,1,3.37-2.3v1.32h-.1c-1.8,0-3.27,1.29-3.27,3.78v3.28H181Z" fill="#010101"/><path d="M190.88,68.79l.63-.87a4.8,4.8,0,0,0,2.85,1c1,0,1.7-.51,1.7-1.31v0c0-.83-1-1.15-2.05-1.45-1.29-.37-2.73-.81-2.73-2.33v0c0-1.42,1.18-2.36,2.81-2.36a5.6,5.6,0,0,1,3,.91l-.56.92a4.66,4.66,0,0,0-2.43-.79c-1,0-1.6.51-1.6,1.19v0c0,.78,1,1.09,2.12,1.42,1.28.38,2.65.88,2.65,2.36v0c0,1.57-1.29,2.47-2.94,2.47a5.69,5.69,0,0,1-3.41-1.21" fill="#010101"/><polygon points="199.12 61.6 200.35 61.6 200.35 65.64 200.35 69.84 199.12 69.84 199.12 65.64 199.12 61.6" fill="#010101"/><path d="M202.29,65.75v0a4,4,0,0,1,3.93-4.29,3.74,3.74,0,0,1,3.16,1.75v-5h1.23V69.84h-1.23V68.19A3.7,3.7,0,0,1,206.22,70a4,4,0,0,1-3.93-4.27m7.14,0v0a3.06,3.06,0,0,0-3-3.17,2.9,2.9,0,0,0-2.9,3.17v0a3,3,0,0,0,2.9,3.19,3.08,3.08,0,0,0,3-3.19" fill="#010101"/><path d="M216.66,69a3.37,3.37,0,0,0,2.59-1.17l.77.69a4.27,4.27,0,0,1-3.4,1.55,4.32,4.32,0,0,1-.16-8.61c2.44,0,3.85,1.94,3.85,4.37a3.73,3.73,0,0,1,0,.43h-6.53a2.88,2.88,0,0,0,2.9,2.74m2.4-3.73c-.14-1.5-1-2.78-2.63-2.78a2.84,2.84,0,0,0-2.67,2.78Z" fill="#010101"/><path d="M198.88,59.28a.86.86,0,1,1,.86.83.85.85,0,0,1-.86-.83" fill="#010101"/><path d="M113.05,59.28a.86.86,0,1,1,.86.83.85.85,0,0,1-.86-.83" fill="#010101"/></svg>