<?xml version="1.0" encoding="utf-8"?>
<!-- Generator: Adobe Illustrator 26.5.0, SVG Export Plug-In . SVG Version: 6.00 Build 0)  -->
<svg version="1.1" id="Layer_1" xmlns="http://www.w3.org/2000/svg" xmlns:xlink="http://www.w3.org/1999/xlink" x="0px" y="0px"
	 viewBox="0 0 151.6 37.3" style="enable-background:new 0 0 151.6 37.3;" xml:space="preserve">
<style type="text/css">
	.st0{fill:#9399D3;}
	.st1{fill:url(#SVGID_1_);}
	.st2{fill:#242459;}
</style>
<image style="overflow:visible;" width="311" height="162" xlink:href="E7551997.jpg"  transform="matrix(1 0 0 1 -7653.6519 -5747.6968)">
</image>
<image style="overflow:visible;" width="311" height="162" xlink:href="E7551995.jpg"  transform="matrix(1 0 0 1 -7653.6519 -5747.6968)">
</image>
<g>
	<g>
		<g>
			<g>
				<path class="st0" d="M53.9,27.1v6.9h-1.7v-2.8h-2.6v2.8H48v-6.9h1.7v2.7h2.6v-2.7H53.9z M63.6,28.4v1.4h2.2v1.3h-2.2v1.5h2.5
					v1.3H62v-6.9h4.2v1.3H63.6z M78.4,32.7h-2.6l-0.4,1.2h-1.8l2.5-6.9h1.9l2.5,6.9h-1.8L78.4,32.7z M78,31.4l-0.9-2.5l-0.8,2.5H78z
					 M89.9,32.6h2.2v1.3h-3.9v-6.9h1.7V32.6z M104.7,27.1v1.3h-1.8v5.5h-1.7v-5.5h-1.8v-1.3H104.7z M118.3,27.1v6.9h-1.7v-2.8H114
					v2.8h-1.7v-6.9h1.7v2.7h2.6v-2.7H118.3z"/>
			</g>
			<linearGradient id="SVGID_1_" gradientUnits="userSpaceOnUse" x1="0.8631" y1="18.6456" x2="36.8622" y2="18.6456">
				<stop  offset="0" style="stop-color:#657CE9"/>
				<stop  offset="1" style="stop-color:#B068E9"/>
			</linearGradient>
			<path class="st1" d="M34.6,12.4c-0.5,0.2-0.7,0.8-0.5,1.2c0.2,0.5,0.8,0.7,1.2,0.5c0.5-0.2,0.7-0.8,0.5-1.2
				C35.6,12.4,35.1,12.2,34.6,12.4 M34.2,16.9c-1,0.4-1.4,1.5-1,2.5c0.4,1,1.5,1.4,2.5,1c1-0.4,1.4-1.5,1-2.5S35.2,16.5,34.2,16.9
				 M34.6,23.1c-0.5,0.2-0.7,0.8-0.5,1.2c0.2,0.5,0.8,0.7,1.2,0.5c0.5-0.2,0.7-0.8,0.5-1.2C35.6,23.2,35.1,22.9,34.6,23.1 M25.1,2.2
				c-0.2-0.5-0.8-0.7-1.2-0.5c-0.5,0.2-0.7,0.8-0.5,1.2c0.2,0.5,0.8,0.7,1.2,0.5C25.1,3.2,25.3,2.7,25.1,2.2 M20.6,1.8
				c-0.4-1-1.5-1.4-2.5-1c-1,0.4-1.4,1.5-1,2.5c0.4,1,1.5,1.4,2.5,1C20.5,3.9,21,2.8,20.6,1.8 M14.4,2.2c-0.2-0.5-0.8-0.7-1.2-0.5
				c-0.5,0.2-0.7,0.8-0.5,1.2c0.2,0.5,0.8,0.7,1.2,0.5C14.3,3.2,14.6,2.7,14.4,2.2 M31.3,7.2c-0.4-1-1.5-1.4-2.5-1
				c-1,0.4-1.4,1.5-1,2.5c0.4,1,1.5,1.4,2.5,1C31.3,9.3,31.7,8.2,31.3,7.2 M26,7.2c-0.4-1-1.5-1.4-2.5-1c-1,0.4-1.4,1.5-1,2.5
				c0.4,1,1.5,1.4,2.5,1C25.9,9.3,26.4,8.2,26,7.2 M20.2,7.4c-0.3-0.7-1.1-1.1-1.9-0.8c-0.7,0.3-1.1,1.1-0.8,1.9
				c0.3,0.7,1.1,1.1,1.9,0.8C20.1,8.9,20.5,8.1,20.2,7.4 M15.2,7.2c-0.4-1-1.5-1.4-2.5-1c-1,0.4-1.4,1.5-1,2.5c0.4,1,1.5,1.4,2.5,1
				C15.2,9.3,15.6,8.2,15.2,7.2 M9.9,7.2c-0.4-1-1.5-1.4-2.5-1c-1,0.4-1.4,1.5-1,2.5c0.4,1,1.5,1.4,2.5,1C9.8,9.3,10.3,8.2,9.9,7.2
				 M31.3,12.6c-0.4-1-1.5-1.4-2.5-1c-1,0.4-1.4,1.5-1,2.5c0.4,1,1.5,1.4,2.5,1C31.3,14.6,31.7,13.5,31.3,12.6 M26,12.6
				c-0.4-1-1.5-1.4-2.5-1c-1,0.4-1.4,1.5-1,2.5c0.4,1,1.5,1.4,2.5,1C25.9,14.6,26.4,13.5,26,12.6 M19.7,12.9
				c-0.2-0.5-0.8-0.7-1.2-0.5c-0.5,0.2-0.7,0.8-0.5,1.2c0.2,0.5,0.8,0.7,1.2,0.5C19.7,14,19.9,13.4,19.7,12.9 M15.2,12.6
				c-0.4-1-1.5-1.4-2.5-1c-1,0.4-1.4,1.5-1,2.5c0.4,1,1.5,1.4,2.5,1C15.2,14.6,15.6,13.5,15.2,12.6 M9.9,12.6c-0.4-1-1.5-1.4-2.5-1
				c-1,0.4-1.4,1.5-1,2.5c0.4,1,1.5,1.4,2.5,1C9.8,14.6,10.3,13.5,9.9,12.6 M3.6,12.9c-0.2-0.5-0.8-0.7-1.2-0.5
				c-0.5,0.2-0.7,0.8-0.5,1.2c0.2,0.5,0.8,0.7,1.2,0.5C3.6,14,3.8,13.4,3.6,12.9 M30.9,18.1c-0.3-0.7-1.1-1.1-1.9-0.8
				c-0.7,0.3-1.1,1.1-0.8,1.9c0.3,0.7,1.1,1.1,1.9,0.8C30.8,19.7,31.2,18.8,30.9,18.1 M25.1,18.3c-0.2-0.5-0.8-0.7-1.2-0.5
				c-0.5,0.2-0.7,0.8-0.5,1.2c0.2,0.5,0.8,0.7,1.2,0.5C25.1,19.3,25.3,18.8,25.1,18.3 M19.3,18.5c-0.1-0.2-0.4-0.4-0.6-0.3
				c-0.2,0.1-0.4,0.4-0.3,0.6c0.1,0.2,0.4,0.4,0.6,0.3C19.3,19,19.4,18.7,19.3,18.5 M14.4,18.3c-0.2-0.5-0.8-0.7-1.2-0.5
				c-0.5,0.2-0.7,0.8-0.5,1.2c0.2,0.5,0.8,0.7,1.2,0.5C14.3,19.3,14.6,18.8,14.4,18.3 M9.4,18.1c-0.3-0.7-1.1-1.1-1.9-0.8
				c-0.7,0.3-1.1,1.1-0.8,1.9c0.3,0.7,1.1,1.1,1.9,0.8C9.4,19.7,9.7,18.8,9.4,18.1 M4.5,17.9c-0.4-1-1.5-1.4-2.5-1
				c-1,0.4-1.4,1.5-1,2.5c0.4,1,1.5,1.4,2.5,1C4.4,20,4.9,18.9,4.5,17.9 M31.3,23.3c-0.4-1-1.5-1.4-2.5-1c-1,0.4-1.4,1.5-1,2.5
				c0.4,1,1.5,1.4,2.5,1C31.3,25.4,31.7,24.3,31.3,23.3 M26,23.3c-0.4-1-1.5-1.4-2.5-1c-1,0.4-1.4,1.5-1,2.5c0.4,1,1.5,1.4,2.5,1
				C25.9,25.4,26.4,24.3,26,23.3 M19.7,23.6c-0.2-0.5-0.8-0.7-1.2-0.5c-0.5,0.2-0.7,0.8-0.5,1.2c0.2,0.5,0.8,0.7,1.2,0.5
				C19.7,24.7,19.9,24.1,19.7,23.6 M15.2,23.3c-0.4-1-1.5-1.4-2.5-1c-1,0.4-1.4,1.5-1,2.5c0.4,1,1.5,1.4,2.5,1
				C15.2,25.4,15.6,24.3,15.2,23.3 M9.9,23.3c-0.4-1-1.5-1.4-2.5-1c-1,0.4-1.4,1.5-1,2.5c0.4,1,1.5,1.4,2.5,1
				C9.8,25.4,10.3,24.3,9.9,23.3 M3.6,23.6c-0.2-0.5-0.8-0.7-1.2-0.5c-0.5,0.2-0.7,0.8-0.5,1.2c0.2,0.5,0.8,0.7,1.2,0.5
				C3.6,24.7,3.8,24.1,3.6,23.6 M31.3,28.7c-0.4-1-1.5-1.4-2.5-1c-1,0.4-1.4,1.5-1,2.5c0.4,1,1.5,1.4,2.5,1
				C31.3,30.7,31.7,29.6,31.3,28.7 M26,28.7c-0.4-1-1.5-1.4-2.5-1c-1,0.4-1.4,1.5-1,2.5c0.4,1,1.5,1.4,2.5,1
				C25.9,30.7,26.4,29.6,26,28.7 M20.2,28.8c-0.3-0.7-1.1-1.1-1.9-0.8c-0.7,0.3-1.1,1.1-0.8,1.9c0.3,0.7,1.1,1.1,1.9,0.8
				C20.1,30.4,20.5,29.6,20.2,28.8 M15.2,28.7c-0.4-1-1.5-1.4-2.5-1c-1,0.4-1.4,1.5-1,2.5c0.4,1,1.5,1.4,2.5,1
				C15.2,30.7,15.6,29.6,15.2,28.7 M9.9,28.7c-0.4-1-1.5-1.4-2.5-1c-1,0.4-1.4,1.5-1,2.5c0.4,1,1.5,1.4,2.5,1
				C9.8,30.7,10.3,29.6,9.9,28.7 M25.1,34.4c-0.2-0.5-0.8-0.7-1.2-0.5c-0.5,0.2-0.7,0.8-0.5,1.2c0.2,0.5,0.8,0.7,1.2,0.5
				C25.1,35.4,25.3,34.9,25.1,34.4 M20.6,34c-0.4-1-1.5-1.4-2.5-1c-1,0.4-1.4,1.5-1,2.5c0.4,1,1.5,1.4,2.5,1
				C20.5,36.1,21,35,20.6,34 M14.4,34.4c-0.2-0.5-0.8-0.7-1.2-0.5c-0.5,0.2-0.7,0.8-0.5,1.2c0.2,0.5,0.8,0.7,1.2,0.5
				C14.3,35.4,14.6,34.9,14.4,34.4"/>
		</g>
		<g>
			<path class="st2" d="M56.2,20.8l-3.4-6.1h-0.9v6.1h-3.9V4.6h6.6c1.3,0,2.4,0.2,3.3,0.7c0.9,0.4,1.6,1.1,2,1.8
				c0.4,0.8,0.7,1.6,0.7,2.6c0,1.1-0.3,2-0.9,2.9c-0.6,0.8-1.5,1.4-2.7,1.8l3.7,6.4H56.2 M51.9,11.9h2.4c0.7,0,1.3-0.2,1.6-0.5
				c0.4-0.4,0.5-0.9,0.5-1.5c0-0.6-0.2-1.1-0.5-1.4S55,7.9,54.3,7.9h-2.4V11.9z"/>
			<polygon class="st2" points="69.2,7.8 69.2,11 74.4,11 74.4,14.1 69.2,14.1 69.2,17.6 75.1,17.6 75.1,20.8 65.2,20.8 65.2,4.6 
				75.1,4.6 75.1,7.8 			"/>
			<path class="st2" d="M103.7,4.6v9.7c0,1,0.2,1.7,0.7,2.2c0.5,0.5,1.2,0.8,2.1,0.8c0.9,0,1.6-0.3,2.1-0.8c0.5-0.5,0.7-1.3,0.7-2.2
				V4.6h3.9v9.6c0,1.4-0.3,2.7-0.9,3.7c-0.6,1-1.4,1.7-2.5,2.3c-1,0.5-2.2,0.8-3.5,0.8c-1.3,0-2.4-0.2-3.4-0.7
				c-1-0.5-1.8-1.3-2.4-2.3c-0.6-1-0.9-2.2-0.9-3.7V4.6H103.7"/>
			<path class="st2" d="M126.6,20.8l-3.4-6.1h-0.9v6.1h-3.9V4.6h6.6c1.3,0,2.4,0.2,3.3,0.7c0.9,0.4,1.6,1.1,2,1.8
				c0.4,0.8,0.7,1.6,0.7,2.6c0,1.1-0.3,2-0.9,2.9c-0.6,0.8-1.5,1.4-2.7,1.8l3.7,6.4H126.6 M122.3,11.9h2.4c0.7,0,1.3-0.2,1.6-0.5
				c0.4-0.4,0.5-0.9,0.5-1.5c0-0.6-0.2-1.1-0.5-1.4c-0.4-0.4-0.9-0.5-1.6-0.5h-2.4V11.9z"/>
			<path class="st2" d="M91.2,15c-0.8,1.3-2.2,2.1-3.7,2.1c-2.4,0-4.4-2-4.4-4.4c0-2.4,2-4.4,4.4-4.4c1.6,0,3,0.8,3.7,2.1h4.1
				c-1-3.4-4.1-5.9-7.9-5.9c-4.5,0-8.2,3.7-8.2,8.2c0,4.5,3.7,8.2,8.2,8.2c3.7,0,6.9-2.5,7.9-5.9H91.2"/>
			<path class="st2" d="M142.4,20.9c-4.5,0-8.2-3.7-8.2-8.2c0-4.5,3.7-8.2,8.2-8.2c4.5,0,8.2,3.7,8.2,8.2
				C150.6,17.2,146.9,20.9,142.4,20.9 M142.4,8.3c-2.4,0-4.4,2-4.4,4.4c0,2.4,2,4.4,4.4,4.4c2.4,0,4.4-2,4.4-4.4
				C146.8,10.3,144.8,8.3,142.4,8.3"/>
			<polygon class="st2" points="148.7,20 148.7,20.1 148.4,20.1 148.4,20.9 148.3,20.9 148.3,20.1 148,20.1 148,20 			"/>
			<polygon class="st2" points="149.8,20 149.8,20.9 149.7,20.9 149.7,20.3 149.4,20.9 149.3,20.9 149,20.3 149,20.9 148.8,20.9 
				148.8,20 149,20 149.3,20.7 149.6,20 			"/>
		</g>
	</g>
</g>
</svg>
