<svg xmlns="http://www.w3.org/2000/svg" width="286.104" height="45.055" viewBox="0 0 286.104 45.055"><g transform="translate(-0.754 -0.75)"><path d="M16.64,7.168h9.677V8.379c-2.619.2-2.822.6-2.822,2.621V28.339c0,3.63,2.217,5.643,5.041,5.643,3.428,0,5.443-2.217,5.443-5.643V11.4c0-2.015-.6-2.822-3.024-3.024V7.168h7.66V8.379c-2.417.2-3.024,1.008-3.024,3.024V27.33c0,5.039-2.217,7.864-7.862,7.864-5.445,0-8.066-3.025-8.066-8.066V11c0-2.017-.4-2.419-3.024-2.621V7.168Z" transform="translate(13.564 5.48)" fill="#004997" fill-rule="evenodd"/><path d="M28.168,30.968V29.756c2.017-.2,2.621-.8,2.621-2.015V15.24c0-1.815-.4-2.017-2.621-2.217V11.812l5.847-.2v3.83h0c1.211-2.219,2.621-4.032,5.445-4.032,3.426,0,4.837,2.217,4.837,5.647V27.74c0,1.411.606,1.815,2.621,2.015v1.212H40.87V16.651c0-2.621-1.008-3.428-2.419-3.428-2.017,0-4.234,2.823-4.234,6.653V27.74c0,1.211.6,1.815,2.619,2.015v1.212Z" transform="translate(23.407 9.102)" fill="#004997" fill-rule="evenodd"/><path d="M38.718,34.775V33.563c2.015-.2,2.619-.8,2.619-2.015v-12.7c0-1.817-.6-2.017-2.619-2.219V15.419l6.047-.2v16.33c0,1.211.6,1.815,2.621,2.015v1.212Zm6.047-25.4c0,1.613-.806,2.621-2.017,2.621s-2.015-1.008-2.015-2.621c0-1.413.806-2.419,2.015-2.419s2.017,1.007,2.017,2.419Z" transform="translate(32.415 5.295)" fill="#004997" fill-rule="evenodd"/><path d="M49.348,7.712V14.97h4.84v1.613h-4.84V30.7q0,2.419,1.815,2.419c1.211,0,2.219-.806,2.219-5.041V26.866h1.411v2.015c0,4.032-1.613,5.849-4.636,5.849-2.621,0-4.234-1.817-4.234-5.041V16.583H43.5V15.374c2.822-1.209,4.434-2.621,4.636-7.662Z" transform="translate(36.501 5.944)" fill="#004997" fill-rule="evenodd"/><path d="M54.186,19.876c0-5.241,1.613-7.258,3.83-7.258,2.015,0,3.226,2.017,3.226,7.258Zm11.088,1.413c0-5.847-2.822-9.879-7.258-9.879s-7.662,4.032-7.662,10.079c0,5.042,3.226,10.083,8.266,10.083,4.436,0,6.453-3.632,6.653-7.058l-1.211-.4c-.4,2.823-1.611,5.847-5.039,5.847-2.823,0-4.838-3.024-4.838-8.669Z" transform="translate(42.35 9.102)" fill="#004997" fill-rule="evenodd"/><path d="M63.32,25.3c0-6.047,1.411-8.669,3.628-8.669,2.421,0,4.034,3.024,4.034,8.669,0,6.857-2.219,8.67-4.234,8.67S63.32,31.548,63.32,25.3ZM68.361,8.564c2.017,0,2.621.4,2.621,2.015v7.258h-.2a4.208,4.208,0,0,0-4.032-2.619c-4.032,0-7.258,4.234-7.258,10.079,0,6.251,3.226,10.083,6.854,10.083,2.419,0,3.832-1.413,4.638-3.43h.2v2.825l5.445-.2V33.363c-1.613,0-2.219-.6-2.219-2.823V6.951l-6.047.4V8.564Z" transform="translate(50.151 5.295)" fill="#004997" fill-rule="evenodd"/><path d="M69.278,34.59V33.378c2.419-.2,2.822-.6,2.822-2.822V11c0-2.017-.4-2.419-2.822-2.621V7.168h9.675V8.379c-2.417.2-2.822.6-2.822,2.621v8.466H84.8V11c0-2.017-.606-2.419-3.024-2.621V7.168h9.675V8.379c-2.417.2-2.822.6-2.822,2.621V30.556c0,2.217.4,2.621,2.822,2.822V34.59H81.778V33.378c2.417-.2,3.024-.6,3.024-2.822V20.877h-8.67v9.679c0,2.217.4,2.621,2.822,2.822V34.59Z" transform="translate(58.508 5.48)" fill="#004997" fill-rule="evenodd"/><path d="M85.4,19.876c0-5.241,1.613-7.258,3.83-7.258s3.428,2.017,3.428,7.258Zm11.09,1.413c0-5.847-2.823-9.879-7.26-9.879s-7.66,4.032-7.66,10.079c0,5.042,3.226,10.083,8.266,10.083,4.434,0,6.451-3.632,6.855-7.058l-1.413-.4c-.4,2.823-1.613,5.847-5.041,5.847-2.621,0-4.838-3.024-4.838-8.669Z" transform="translate(69.001 9.102)" fill="#004997" fill-rule="evenodd"/><path d="M99.618,23.1c0,4.436-1.813,6.855-3.83,6.855-1.209,0-2.217-1.007-2.217-3.226,0-3.426,2.822-4.839,6.047-6.047V23.1Zm5.445,2.419c0,2.825-.4,3.63-1.008,3.63s-1.008-.4-1.008-1.613V16.451c0-3.025-1.613-5.041-6.049-5.041-3.628,0-6.047,2.217-6.047,4.839,0,1.611.806,2.419,1.815,2.419,1.209,0,2.015-.808,2.015-2.419a2,2,0,0,0-1.613-2.219,4.16,4.16,0,0,1,3.43-1.411c2.013,0,3.022,1.008,3.022,3.226v3.428c-3.426,1.209-9.677,3.024-9.677,7.662a4.5,4.5,0,0,0,4.839,4.638c2.822,0,4.034-1.413,5.041-3.226h0c.2,2.215,1.411,3.226,3.226,3.226,2.421,0,3.428-1.817,3.428-6.051Z" transform="translate(76.151 9.102)" fill="#004997" fill-rule="evenodd"/><path d="M99.532,34.775V33.563c2.017-.2,2.623-.8,2.623-2.015V10.781c0-1.411-.806-2.217-2.623-2.217V7.153l6.049-.2v24.6c0,1.211.6,1.815,2.621,2.015v1.212Z" transform="translate(84.34 5.295)" fill="#004997" fill-rule="evenodd"/><path d="M109.946,7.712V14.97h4.84v1.613h-4.84V30.7q0,2.419,1.815,2.419c1.211,0,2.217-.806,2.217-5.041V26.866h1.413v2.015c0,4.032-1.613,5.849-4.636,5.849-2.621,0-4.234-1.817-4.234-5.041V16.583H104.1V15.374c2.822-1.209,4.433-2.621,4.636-7.662Z" transform="translate(88.241 5.944)" fill="#004997" fill-rule="evenodd"/><path d="M110.082,34.775V33.563c2.015-.2,2.619-.8,2.619-2.015V10.579c0-1.613-.6-2.015-2.619-2.015V7.353l6.049-.4v11.9h0a5.539,5.539,0,0,1,5.041-3.63c3.024,0,5.039,2.217,5.039,5.647V31.548c0,1.211.606,1.815,2.419,2.015v1.212h-5.845V20.66c0-2.621-1.008-3.63-2.421-3.63-2.015,0-4.232,2.621-4.232,6.453v8.064c0,1.211.6,1.815,2.619,2.015v1.212Z" transform="translate(93.348 5.295)" fill="#004997" fill-rule="evenodd"/><path d="M133.728,24.732c-.4,3.83-2.015,7.26-6.449,7.26-4.236,0-7.866-4.236-7.866-10.283,0-4.837,3.43-10.081,8.266-10.081,3.43,0,5.645,2.217,5.645,5.244,0,2.013-.6,3.024-2.015,3.024a2.143,2.143,0,0,1-2.017-2.419c0-1.615.606-2.421,1.615-2.421a.883.883,0,0,1,.6.2h.2a3.434,3.434,0,0,0-3.428-2.219c-3.024,0-5.041,3.025-5.041,8.67,0,6.653,2.217,8.669,4.434,8.669,3.228,0,4.436-3.024,4.84-5.845l1.209.2Z" transform="translate(101.315 9.287)" fill="#004997" fill-rule="evenodd"/><path d="M137.572,23.321c0,4.636-1.813,7.056-3.83,7.056-1.209,0-2.217-1.007-2.217-3.226,0-3.426,2.822-4.839,6.047-6.047v2.217Zm5.647,2.619c-.2,2.825-.4,3.832-1.211,3.832-.6,0-.806-.6-.806-1.815V16.668c0-3.024-1.813-5.041-6.251-5.041-3.628,0-6.047,2.217-6.047,5.041q0,2.416,1.815,2.419c1.211,0,2.017-1.007,2.017-2.419,0-1.209-.4-2.217-1.613-2.217a4.152,4.152,0,0,1,3.428-1.413c2.015,0,3.022,1.008,3.022,3.228v3.226c-3.426,1.411-9.675,3.226-9.675,7.862a4.5,4.5,0,0,0,4.838,4.638c2.823,0,4.032-1.413,5.041-3.226h0c.2,2.215,1.411,3.226,3.224,3.226,2.621,0,3.43-1.817,3.43-6.051Z" transform="translate(108.559 9.287)" fill="#004997" fill-rule="evenodd"/><path d="M137.125,31.387V30.175c1.815-.2,2.419-.8,2.419-2.013V17.07c0-2.619-.6-3.628-2.621-3.628V12.231l5.645-.4v4.839h0c.6-2.217,2.017-5.041,4.436-5.041,1.411,0,2.823,1.211,2.823,3.63,0,1.615-.808,2.621-1.815,2.621-.806,0-1.815-.6-1.815-2.419a1.854,1.854,0,0,1,1.815-2.017c-.2-.4-.606-.4-1.211-.4-2.621,0-3.83,5.847-3.83,9.275v5.849c0,1.209.6,1.813,3.426,2.013v1.212Z" transform="translate(116.266 9.287)" fill="#004997" fill-rule="evenodd"/><path d="M147.916,20.1c0-5.041,1.411-7.058,3.83-7.058,2.015,0,3.226,2.017,3.226,7.058ZM159,21.708c0-5.847-2.822-10.081-7.258-10.081-4.638,0-7.862,4.234-7.862,10.281,0,5.042,3.428,10.083,8.266,10.083,4.636,0,6.451-3.63,6.854-7.058l-1.209-.4c-.4,2.822-1.613,5.845-5.243,5.845-2.619,0-4.636-3.024-4.636-8.669Z" transform="translate(122.209 9.287)" fill="#004997" fill-rule="evenodd"/><path d="M154.738,9.2a2.716,2.716,0,0,1,2.822,2.621,2.755,2.755,0,0,1-2.822,2.822,2.715,2.715,0,0,1-2.619-2.822A2.669,2.669,0,0,1,154.738,9.2Zm0-.4a3.1,3.1,0,0,0-3.024,3.025,3.145,3.145,0,0,0,3.024,3.226,3.185,3.185,0,0,0,3.226-3.226A3.148,3.148,0,0,0,154.738,8.8Zm-.6,3.228h.6c.2,0,.6,0,.6.4,0,.606,0,1.008.2,1.211h.6c-.2-.2-.2-.806-.2-.806,0-.806-.2-1.008-.6-1.008h0a.867.867,0,0,0,.808-.806,1.081,1.081,0,0,0-1.008-1.008h-1.413v3.63h.4V12.027Zm0-1.613h.806a.645.645,0,0,1,.606.6.535.535,0,0,1-.606.6h-.806V10.414Z" transform="translate(128.895 6.873)" fill="#004997" fill-rule="evenodd"/><path d="M9.1,31.969c-1.264,4.8-3.793,5.311-4.805,5.311-1.769,0-3.539-1.266-3.539-9.353V8.961l9.1-4.8V22.614A51.809,51.809,0,0,1,9.1,31.969Z" transform="translate(0 2.912)" fill="#004997" fill-rule="evenodd"/><path d="M8.459,7.073l2.021.25v16.94a60.14,60.14,0,0,1-.758,10.871c-1.008,3.543-3.033,5.057-4.3,5.562l-2.529-.5H2.39a2.739,2.739,0,0,0,2.023,2.021,2.9,2.9,0,0,0,2.024,1.77,3.424,3.424,0,0,0,3.285,1.772c1.77.254,3.035-.5,4.553-1.516,4.3-3.035,5.815-9.862,5.815-18.961V.75L8.459,7.073ZM5.173,42.213c3.541-.5,5.562-4.549,6.068-6.32a38.148,38.148,0,0,0,1.012-9.859V5.049l2.023.254V25.022c0,4.8-.254,9.1-1.264,12.137-1.264,2.777-3.035,4.8-5.309,5.308l-2.529-.254ZM18.32,25.022c0,6.576-.758,11.125-2.277,14.16s-3.791,4.8-6.068,5.306l-2.781-.5c3.793,0,6.068-3.537,7.08-5.562,1.264-2.779,1.769-6.824,1.769-12.641V2.773l2.277.5V25.022Z" transform="translate(1.397 0)" fill="#004997" fill-rule="evenodd"/></g></svg>