<svg xmlns="http://www.w3.org/2000/svg" viewBox="0 0 192.44 158.68"><title>vsp-vision-color</title><path d="M34.59,126.33a3.81,3.81,0,0,0,.29-.78Z" fill="#325565"/><path d="M111.81,30.69a15.37,15.37,0,0,1,21.17,7c4,8.07,1,18-6.72,22.18a15.36,15.36,0,0,1-21.17-7,16.85,16.85,0,0,1,6.72-22.18" fill="#87cbdf"/><path d="M96,2.91a8.61,8.61,0,0,1,9.69,7.61,8.92,8.92,0,0,1-7.26,10.15,8.63,8.63,0,0,1-9.7-7.61A8.91,8.91,0,0,1,96,2.91" fill="#a2c534"/><path d="M35.09,126.33a3.81,3.81,0,0,0,.29-.78Z" fill="#325565"/><path d="M180,83.16a31.76,31.76,0,0,0-17.78-16.94,29.91,29.91,0,0,0-24,1.2,32.13,32.13,0,0,0-16.17,18.63c-1.44,4.21-1.78,10.86-1.8,14.78v55h4.06c2.41,0,3.58-1.44,3.58-3.74V118.69A31.12,31.12,0,0,0,141,128.11a29.9,29.9,0,0,0,24-1.21,32.13,32.13,0,0,0,16.16-18.62A34.09,34.09,0,0,0,180,83.16m-5.26,22.71a25.16,25.16,0,0,1-12.65,14.59,23.36,23.36,0,0,1-18.81.94c-6.18-2.32-10.42-7-13.21-13.26a26.63,26.63,0,0,1-.91-19.68c2.22-6.48,6-11.66,12-14.59a23.42,23.42,0,0,1,18.8-1,24.9,24.9,0,0,1,13.93,13.27,26.68,26.68,0,0,1,.89,19.68" fill="#325565"/><path d="M73,82.35c0-6.41,7-9.82,12.5-9.87,6.08,0,9,1.57,12.38,5.79,1.22,1.53,2.66,2.15,4.5,1l3.86-2.41c0-.09-.07-.18-.12-.27a19.22,19.22,0,0,0-7.34-8A25.3,25.3,0,0,0,85.5,65.27C75.81,65.27,65.36,71,65.36,83c0,23.49,34.92,11.61,34.92,28.56,0,7.07-6.88,11.34-13.51,11.34a19.4,19.4,0,0,1-15.5-7.35c-1.53-1.77-3-1.73-4.85-.47l-3.48,2.49.13.23a22.1,22.1,0,0,0,7.34,7.88,29.45,29.45,0,0,0,16.24,4.44c11.21,0,21.28-6.41,21.28-19.09,0-25-34.93-12-34.93-28.7" fill="#325565"/><path d="M30.09,119.88,48.9,69.1A3.2,3.2,0,0,1,52,66.89h6.34L35.7,125l-.35.91-.16.41a3.52,3.52,0,0,1-3.1,2.25h-4a3.51,3.51,0,0,1-3.1-2.25l-.16-.41-.36-.91L1.78,66.89H8.13a3.19,3.19,0,0,1,3.13,2.21l18.81,50.78Z" fill="#325565"/><path d="M184.62,131.4a6,6,0,1,1,6-6A6,6,0,0,1,184.62,131.4Zm0-11a4.92,4.92,0,1,0,4.84,4.91A4.88,4.88,0,0,0,184.62,120.45Zm3,8.1h-1.43L185,126.23h-1.62v2.3h-1.25v-6.64h3.19a2.17,2.17,0,0,1,.9,4.19Zm-2.3-3.47a1,1,0,0,0,1-1c0-.76-.4-1-1-1h-2v2Z" fill="#325565"/></svg>