<svg id="Layer_1" data-name="Layer 1" xmlns="http://www.w3.org/2000/svg" viewBox="0 0 476.84 149"><defs><style>.cls-1{fill:#d4002a;}</style></defs><path class="cls-1" d="M417,40.17c-8.71-7.81-16.67-10.39-25.19-10.39s-19.16,2.92-19.16,13.76c0,9.08,8.14,12.16,21.11,16.24,18.58,6,42.58,13.76,42.58,41.05,0,31.54-25.36,45.67-52.45,45.67-19.56,0-39.31-7.16-51.3-19.74l20.3-20.83c8.08,8.71,20.15,13.28,31,13.28,10.05,0,19-3.89,19-14.9,0-10.46-10.46-14-28.46-19.78-17.4-5.61-35-14.3-35-39.06,0-30.39,27.48-43,53-43,15.49,0,32.91,5.82,44.91,16.83ZM93.11,89.6H58.67l17.4-47ZM149.62,143,93.57,6h-33L2.5,143H39.12l10-26.89h53.06L112.86,143ZM267.21,6H230.63l-31.74,99L166.58,6H129.42l51.87,137h33.1Zm13.26,137h33.29V6H280.47ZM450.88,17.63A11.73,11.73,0,1,0,462.57,6,11.57,11.57,0,0,0,450.88,17.63Zm1.86,0a9.88,9.88,0,1,1,9.83,9.88A9.86,9.86,0,0,1,452.74,17.63ZM458,24.17h2.37v-5.5h1.73l3.05,5.5h2.87l-3.55-5.76a3.52,3.52,0,0,0,3.05-3.56c0-2.82-2.43-3.86-5-3.86H458Zm2.37-7.41V13h2.15c1.24,0,2.63.35,2.63,1.79s-1.54,2-2.93,2Z"/></svg>