<svg xmlns="http://www.w3.org/2000/svg" viewBox="0 0 459.36 135.35"><title>reverse-outline</title><polygon points="42.61 92.17 57.89 92.17 56.31 69.17 42.61 92.17" fill="none"/><path d="M149.83,73.64l-.41-25.13A6.68,6.68,0,0,0,142.77,42H91.29l.13-.29a12,12,0,0,0,.86-7.92l-.16-5.5c0-.65-.7-16-20.17-16H69.39c-18.3,0-25.54-3.28-28.18-5.11C37.68,4.72,34.89,0,34.89,0a41.57,41.57,0,0,0,.8,8.11A8.86,8.86,0,0,0,36,9.21a16.29,16.29,0,0,0,2.36,4.33L41,18.8a14.72,14.72,0,0,0,3.45,4.56l2,3.54c4.7,8.42,11.5,8.84,18.7,9.29a69.07,69.07,0,0,1,8.24.85A7.24,7.24,0,0,1,78,39.79L79.58,42H64a9,9,0,0,0-7.86,4.48C54.92,48.54,13.66,117,13.24,117.7c-2.68,4.63-5.5,6.62-9.43,6.71l-2.11,0-.29,2.09-.84,6-.4,2.82H37.25l.33-2.09,1-6,.46-2.87H36.1c-7.59,0-7.59-1.16-7.59-2.91,0-3,2.41-8.62,7.58-17.65H58.88l.07.77c.94,10,1.26,13.35,1.26,15.32,0,4,0,4.47-7.59,4.47H50.52l-.33,2.09-1,6-.46,2.87h70.37V124.59l-2.29-.18c-4.16-.32-6.08-.82-6.84-1.76-.93-1.16-1.11-4-1.11-8.23l.09-20c10.64.59,11.75,5.26,12.69,13.09l.26,2.18h10.14V66.89H121.95l-.26,2.18c-.94,7.83-2,12.49-12.68,13.09V65.42c0-1,0-2.07,0-3.11,0-2.62,0-5.34.08-7.16a1,1,0,0,1,.78-.31h2.43c19.33,0,23.91,6.23,26.41,19.31l.38,2h10.8ZM42.61,92.17l13.7-23,1.57,23Z" fill="#fff"/><path d="M73.77,34.6c-11.23-2-19.67,1-25.22-8.91C61,33.86,74.79,25.69,80,38.34A9.76,9.76,0,0,0,73.77,34.6Z" fill="#eb0029"/><path d="M89.17,40.66H83.38A10,10,0,0,0,79.56,32l0,0c-7.87-7.63-30.26-1.62-36.42-14.28,7.42,7.1,32.42,2,42.4,10.27C90.4,32,91,36.59,89.17,40.66Z" fill="#eb0029"/><path d="M71.47,14.74c15.42-.22,18.07,10,18.17,13.6C82.15,13.85,44.42,27.1,38,7.35,38,7.35,43.22,15.14,71.47,14.74Z" fill="#eb0029"/><path d="M77.75,54.74c.06.77,1.67,28.76,2.78,48.06l3,2.17.09-.06v0l.05-1.36v-.31l0-1.24,0-.54,0-1.21v-.36c.08-2,.16-4.1.24-6.23l0-.5.06-1.62h0l.07-1.77h0l.06-1.56,0-.79c.13-3.32.27-6.64.4-9.84v-.23l.26-6.4L85,70l.06-1.43v-.25l0-.83,0-1.2,0-.52,0-.79.12-3v-.31l0-1,0-.4,0-.79,0-.57,0-.58,0-.54,0-.5,0-.52,0-.89a1.49,1.49,0,0,0-1.49-1.54H81s1.64-.91,3.1-1.76a8.76,8.76,0,0,0,3.2-3.17c1.23-2.13,2.5-4.92,2.5-4.92H67.23C70.23,44.45,77.36,49.95,77.75,54.74Z" fill="#b1aecc"/><path d="M186.48,94.57V92.39c3.12,0,4.61-.59,4.61-2.23a8,8,0,0,0-.59-2.67l-2.18-6.29h-13c-2.08,6-2.38,7.73-2.38,8.77,0,2,1.29,2.33,4.46,2.43v2.18H165V92.39c2.82-.1,3.62-2.23,5.1-6L181.28,58h4.66c.94,3.47,2.08,6.84,3.17,9.81L196.84,89a4.66,4.66,0,0,0,4.36,3.42v2.18Zm.94-15.95-5-14c-.1-.35-.25-.69-.54-.69s-.45.4-.59.79l-5,13.87Z" fill="#fff"/><path d="M203.21,94.57V92.39c2.38,0,3.57-.59,3.57-4V76c0-2.67-.89-3.91-3.27-4.16v-2l8.32-1.49v4c0,.15,0,.15.15.15s.3-.2,1.09-.94c2-1.88,4.16-3.22,7-3.22s4.36.74,5.79,2.53c1.09,1.34,1,1.93,1.34,1.93s.3-.45,2-1.83a9.44,9.44,0,0,1,6.49-2.62c3.91,0,7.08,2.08,7.08,6.64V88.43c0,3.37,1.19,4,3.57,4v2.18H234.12V92.39c2.38,0,3.57-.59,3.57-4V76.54c0-3.07-1.68-4.46-4.26-4.46-2.77,0-4.85,2-6.14,4V88.43c0,3.37,1.19,4,3.57,4v2.18H218.67V92.39c2.38,0,3.57-.59,3.57-4V76.54c0-3.07-1.68-4.46-4.26-4.46s-4.71,1.93-6.14,4V88.43c0,3.37,1.19,4,3.57,4v2.18Z" fill="#fff"/><path d="M248.3,94.57V92.39c4.26-.1,5.35-1.19,5.35-4V64.95c0-2.77-1.09-3.86-5.35-4V58.81h22.19c3,0,6-.25,8.87-.4V70.2h-2.18c-.54-7-2.08-9.21-12.43-9.21H259.7c-.15,2.33-.3,4.41-.3,6.54v7.33c7.63-.1,8.52-1.29,8.92-6h2.18V83.08h-2.18c-.4-4.75-1.29-5.94-8.92-6V88.43c0,2.77,1.09,3.86,5.35,4v2.18Z" fill="#fff"/><path d="M281.23,94.57V92.39c3.07,0,4.26-.59,4.26-4V76c0-2.67-.89-3.91-4.16-4.16v-2l9.21-1.49v20c0,3.37,1.19,4,4.26,4v2.18Zm6.69-37.44a3.07,3.07,0,1,1-3.07,3.07A3,3,0,0,1,287.91,57.12Z" fill="#fff"/><path d="M296.21,94.57V92.39c2.67,0,3.86-.59,3.86-4V75c0-2.38-.94-3.22-4.06-3.52v-2l8.62-1.09v5.79c0,.35,0,.54.35.54s.2-.25,1.58-2.38,3.57-4,6.49-4,4.85,1.83,4.85,3.81c0,2.82-1.54,4.21-4.16,4.21a7.1,7.1,0,0,1-1.44-.15,3.8,3.8,0,0,0,.35-1.73c0-1.68-1-2.48-2.13-2.48-2.23,0-5.4,3.86-5.4,9.26v7.08c0,3.17,1.09,4,5.05,4v2.18Z" fill="#fff"/><path d="M322.29,85.65c.59,4.26,3.57,7.33,7.43,7.33,3.07,0,5-1.88,5-4.41,0-6.59-14.56-3.71-14.56-12.63,0-4.75,3.67-7.53,8.62-7.53,3.12,0,5.25,1,6,1a2.25,2.25,0,0,0,1.34-.4h1.29v7.63h-2.18c-1.24-4.66-4-6-6.83-6a3.77,3.77,0,0,0-4.06,3.71c0,6.09,14.56,2.87,14.56,12.68,0,4.8-3.67,8.17-9.11,8.17-3.17,0-5.35-1.19-6.69-1.19a1.51,1.51,0,0,0-1,.59h-2.18V85.65Z" fill="#fff"/><path d="M348.75,62v7h7.33v2.77h-7.33V89c0,1.88,1.19,3,3.37,3A10.36,10.36,0,0,0,356,91.2v2.38a14.46,14.46,0,0,1-6.54,1.58c-4,0-5.75-2-5.75-5.15V71.78h-3.76v-2A29.44,29.44,0,0,0,347.06,62Z" fill="#fff"/><path d="M370.19,94.57V92.39c4.26-.1,5.35-1.19,5.35-4V64.95c0-2.77-1.09-3.86-5.35-4V58.81h16.44V61c-4.26.1-5.35,1.19-5.35,4v20.7c0,2.13.15,4.21.3,6.54,1.58.1,3.22.2,4.71.2,8.27,0,11-1.24,13-10.1h2.18l-1.09,12.28Z" fill="#fff"/><path d="M402.83,94.57V92.39c3.07,0,4.26-.59,4.26-4V76c0-2.67-.89-3.91-4.16-4.16v-2l9.21-1.49v20c0,3.37,1.19,4,4.26,4v2.18Zm6.69-37.44a3.07,3.07,0,1,1-3.07,3.07A3,3,0,0,1,409.52,57.12Z" fill="#fff"/><path d="M418,94.57V92.39c3.07,0,4.26-.59,4.26-4V71.78h-3.86V70.3c3.32-.4,3.86-2.43,4.26-5.5.64-4.9,4.06-7.68,8.77-7.68a22.39,22.39,0,0,1,6.29,1.09v6.34h-4.26c-.1-3.86-1.09-4.85-2.87-4.85-2.23,0-3.27,2.08-3.27,5.65V69h6.93v2.77H427.3V88.43c0,2.77,1.09,3.86,5.35,4v2.18Z" fill="#fff"/><path d="M440.66,80.7c0,6.39,3.47,10.5,8.32,10.5,3.17,0,5.65-1.24,8.22-5.05l2,1.09C455.92,93,452.5,95.16,447,95.16c-7.53,0-11.84-5.45-11.84-13.37,0-8.22,5.55-13.37,12.18-13.37s11.09,4.16,11.29,12.28Zm12.28-2.58c-.1-5.45-2.87-7.53-5.75-7.53-3.67,0-5.94,2.87-6.44,7.53Z" fill="#fff"/><path d="M168.12,109.09l-.23,0-.45.08v8.16l.45.08.23,0h.09a.45.45,0,0,1,.39.48v.92h-4.44V118a.45.45,0,0,1,.39-.48h.09l.23,0,.47-.08v-8.16l-.47-.08-.23,0-.09,0a.45.45,0,0,1-.39-.48v-.92h4.44v.92a.45.45,0,0,1-.39.48Z" fill="#fff"/><path d="M182.22,107.67v.92a.45.45,0,0,1-.39.48l-.09,0-.23,0-.45.08v9.69H180a1,1,0,0,1-.4-.08.86.86,0,0,1-.33-.28l-5.87-7.47c0,.17,0,.33,0,.48s0,.31,0,.45v5.36l1,.14a.45.45,0,0,1,.39.48v.92H170.4V118a.45.45,0,0,1,.39-.48h.09l.23,0,.47-.08v-8.16l-.47-.08-.23,0-.09,0a.45.45,0,0,1-.39-.48v-.92h2.27l.23,0a.32.32,0,0,1,.17,0,.37.37,0,0,1,.14.09l.16.19,5.9,7.5,0-.53c0-.17,0-.34,0-.5v-5.28l-1-.14a.45.45,0,0,1-.39-.48v-.92h4.41Z" fill="#fff"/><path d="M191.21,115.39a3.88,3.88,0,0,1-.26,1.41,3.1,3.1,0,0,1-.76,1.17,3.53,3.53,0,0,1-1.23.78,4.52,4.52,0,0,1-1.65.28h-.23a10.12,10.12,0,0,1-3.22-.59v-2.89h.89a.33.33,0,0,1,.36.28c0,.14.08.57.14,1.29a7.91,7.91,0,0,0,2.13.2,2.07,2.07,0,0,0,1.38-.42,1.5,1.5,0,0,0,.48-1.21A1.2,1.2,0,0,0,189,115a1.64,1.64,0,0,0-.59-.47,5,5,0,0,0-.82-.33c-.31-.09-.64-.17-.95-.28a9.93,9.93,0,0,1-.95-.37,3.12,3.12,0,0,1-.84-.58,2.31,2.31,0,0,1-.57-.87,3.42,3.42,0,0,1-.23-1.29,3.15,3.15,0,0,1,1-2.24,3.69,3.69,0,0,1,1.15-.71,4.1,4.1,0,0,1,1.57-.28,8.52,8.52,0,0,1,3.21.64v2.87h-.88a.34.34,0,0,1-.36-.29q0-.21-.14-1.26a4.88,4.88,0,0,0-1.82-.25,2.63,2.63,0,0,0-.75.09,1.64,1.64,0,0,0-.54.29,1.36,1.36,0,0,0-.34.45,1.4,1.4,0,0,0-.11.58,1,1,0,0,0,.23.65,1.72,1.72,0,0,0,.57.45,5.25,5.25,0,0,0,.84.34l.95.31a10,10,0,0,1,.95.39,3.06,3.06,0,0,1,.84.56,2.43,2.43,0,0,1,.59.82A2.79,2.79,0,0,1,191.21,115.39Z" fill="#fff"/><path d="M204.48,107.67v.92a.45.45,0,0,1-.39.48l-.09,0-.23,0-.47.08v5.19a5.07,5.07,0,0,1-.33,1.85,4.37,4.37,0,0,1-.92,1.48,4.41,4.41,0,0,1-1.48,1,5.69,5.69,0,0,1-3.88,0,4.34,4.34,0,0,1-1.46-1,4.39,4.39,0,0,1-.93-1.48,5.07,5.07,0,0,1-.31-1.85v-5.19l-.47-.08-.23,0-.09,0a.45.45,0,0,1-.39-.48v-.92h4.5v.92a.45.45,0,0,1-.39.48l-.11,0-.26,0-.48.08v5.17a3.41,3.41,0,0,0,.17,1.17,2.57,2.57,0,0,0,.51.9,2.22,2.22,0,0,0,.79.56,3,3,0,0,0,2.17,0,2.29,2.29,0,0,0,.81-.56,2.73,2.73,0,0,0,.5-.89,3.82,3.82,0,0,0,.19-1.17v-5.19l-.48-.08-.26,0-.11,0a.45.45,0,0,1-.39-.48v-.92h4.5Z" fill="#fff"/><path d="M216.32,118v.92h-2.1a.87.87,0,0,1-.47-.11,1,1,0,0,1-.31-.31l-2.36-3.6a.83.83,0,0,0-.29-.28,1,1,0,0,0-.47-.09h-.79v2.86l.47.08.23,0h.09a.45.45,0,0,1,.39.48v.92h-4.44V118a.45.45,0,0,1,.39-.48h.09l.23,0,.47-.08v-8.16l-.47-.08-.23,0-.09,0a.45.45,0,0,1-.39-.48v-.92h4.49a7.32,7.32,0,0,1,2,.23,3.72,3.72,0,0,1,1.34.67,2.61,2.61,0,0,1,.78,1,3.26,3.26,0,0,1,.25,1.3,3.53,3.53,0,0,1-.17,1.07,3.21,3.21,0,0,1-.48.92,2.85,2.85,0,0,1-.78.71,4.38,4.38,0,0,1-1.06.5,2.11,2.11,0,0,1,.68.65l1.77,2.61.48.08c.12,0,.2,0,.26,0h.12A.45.45,0,0,1,216.32,118Zm-3.84-5.53a1.7,1.7,0,0,0,.42-.62,2.08,2.08,0,0,0,.14-.78,1.62,1.62,0,0,0-.56-1.32,2.66,2.66,0,0,0-1.72-.45h-1.23V113h1.2a3.37,3.37,0,0,0,1-.16A1.94,1.94,0,0,0,212.48,112.46Z" fill="#fff"/><path d="M230.16,118.11v.79h-3.79v-.79a.44.44,0,0,1,.31-.4l.31-.12-.06-.17-.56-1.52h-4.47l-.58,1.6,0,.09.31.12a.44.44,0,0,1,.31.4v.79H218.1v-.79a.44.44,0,0,1,.31-.4l.85-.36,3.79-9.68h2.14l3.81,9.68.85.36A.41.41,0,0,1,230.16,118.11Zm-7.72-3.7h3.4l-1.29-3.5-.2-.57c-.08-.22-.14-.48-.22-.75-.08.26-.16.51-.22.75s-.14.42-.2.59Z" fill="#fff"/><path d="M243.8,107.67v.92a.45.45,0,0,1-.39.48l-.09,0-.23,0-.45.08v9.69h-1.09a1,1,0,0,1-.4-.08.86.86,0,0,1-.33-.28l-5.87-7.47c0,.17,0,.33,0,.48s0,.31,0,.45v5.36l1,.14a.45.45,0,0,1,.39.48v.92H232V118a.45.45,0,0,1,.39-.48h.09l.23,0,.47-.08v-8.16l-.47-.08-.23,0-.09,0a.45.45,0,0,1-.39-.48v-.92h2.27l.23,0a.32.32,0,0,1,.17,0,.37.37,0,0,1,.14.09l.16.19,5.9,7.5,0-.53c0-.17,0-.34,0-.5v-5.28l-1-.14a.45.45,0,0,1-.39-.48v-.92h4.41Z" fill="#fff"/><path d="M253.28,110.94c0-.14-.08-.56-.14-1.24a7.74,7.74,0,0,0-2.14-.36,3.75,3.75,0,0,0-1.46.26,3.11,3.11,0,0,0-1.13.79,3.79,3.79,0,0,0-.75,1.24,5.13,5.13,0,0,0,0,3.34,3.73,3.73,0,0,0,.71,1.24,3.18,3.18,0,0,0,1.09.78,3.22,3.22,0,0,0,1.34.26,5.94,5.94,0,0,0,.78,0,3.51,3.51,0,0,0,.64-.14,2.53,2.53,0,0,0,.54-.26,4,4,0,0,0,.51-.4.65.65,0,0,1,.17-.11.39.39,0,0,1,.19,0,.37.37,0,0,1,.29.12l.82.9a4.43,4.43,0,0,1-1.68,1.29,6,6,0,0,1-2.41.45,5.69,5.69,0,0,1-2.24-.43,4.74,4.74,0,0,1-1.71-1.18,5.36,5.36,0,0,1-1.09-1.82,6.81,6.81,0,0,1-.37-2.3,6.29,6.29,0,0,1,.42-2.33,5.34,5.34,0,0,1,3-3,6.31,6.31,0,0,1,2.35-.42,10.25,10.25,0,0,1,3.53.81v2.86h-.9A.33.33,0,0,1,253.28,110.94Z" fill="#fff"/><path d="M264.69,107.67v3h-.9a.34.34,0,0,1-.36-.29c0-.12-.06-.45-.11-1H259.7v3.11h3.81v1.62H259.7v3.17h3.62c0-.54.09-.87.11-1a.34.34,0,0,1,.36-.29h.9v3h-8.26V118a.45.45,0,0,1,.39-.48h.09l.23,0,.47-.08v-8.16l-.47-.08-.23,0-.09,0a.45.45,0,0,1-.39-.48v-.92h8.26Z" fill="#fff"/><path d="M279.48,110.94c0-.14-.08-.56-.14-1.24a7.74,7.74,0,0,0-2.14-.36,3.75,3.75,0,0,0-1.46.26,3.11,3.11,0,0,0-1.13.79,3.79,3.79,0,0,0-.75,1.24,5.13,5.13,0,0,0,0,3.34,3.73,3.73,0,0,0,.71,1.24,3.18,3.18,0,0,0,1.09.78,3.22,3.22,0,0,0,1.34.26,5.94,5.94,0,0,0,.78,0,3.51,3.51,0,0,0,.64-.14,2.53,2.53,0,0,0,.54-.26,4,4,0,0,0,.51-.4.65.65,0,0,1,.17-.11.39.39,0,0,1,.19,0,.37.37,0,0,1,.29.12l.82.9a4.43,4.43,0,0,1-1.68,1.29,6,6,0,0,1-2.41.45,5.69,5.69,0,0,1-2.24-.43,4.74,4.74,0,0,1-1.71-1.18,5.36,5.36,0,0,1-1.09-1.82,6.81,6.81,0,0,1-.37-2.3,6.29,6.29,0,0,1,.42-2.33,5.34,5.34,0,0,1,3-3,6.31,6.31,0,0,1,2.35-.42,10.25,10.25,0,0,1,3.53.81v2.86h-.9A.33.33,0,0,1,279.48,110.94Z" fill="#fff"/><path d="M293.4,115.58a5.48,5.48,0,0,1-1.15,1.82,5.15,5.15,0,0,1-1.8,1.2,6.14,6.14,0,0,1-2.31.43,6.23,6.23,0,0,1-2.33-.43,5.16,5.16,0,0,1-1.8-1.2,5.54,5.54,0,0,1-1.17-1.82,6.18,6.18,0,0,1-.4-2.3,6.09,6.09,0,0,1,.4-2.28,5.54,5.54,0,0,1,1.17-1.82,5.16,5.16,0,0,1,1.8-1.2,6.23,6.23,0,0,1,2.33-.43,5.85,5.85,0,0,1,2.31.43,5.37,5.37,0,0,1,1.8,1.2A5.48,5.48,0,0,1,293.4,111a6.08,6.08,0,0,1,.42,2.28A6.16,6.16,0,0,1,293.4,115.58Zm-2-3.95a3.24,3.24,0,0,0-.7-1.24,3.2,3.2,0,0,0-1.12-.79,3.73,3.73,0,0,0-1.48-.26,3.81,3.81,0,0,0-1.49.26,3.19,3.19,0,0,0-1.12.79,3.49,3.49,0,0,0-.71,1.24,5,5,0,0,0-.25,1.65,5.05,5.05,0,0,0,.25,1.66,3.48,3.48,0,0,0,.71,1.24,3.19,3.19,0,0,0,1.12.79,3.83,3.83,0,0,0,1.49.26,3.74,3.74,0,0,0,1.48-.26,3.2,3.2,0,0,0,1.12-.79,3.24,3.24,0,0,0,.7-1.24,5.5,5.5,0,0,0,.25-1.66A5.39,5.39,0,0,0,291.43,111.63Z" fill="#fff"/><path d="M309.41,109.09l-.23,0-.45.08v8.16l.45.08.23,0h.09a.45.45,0,0,1,.39.48v.92h-4.41V118a.45.45,0,0,1,.39-.48l1-.14v-5.72c0-.14,0-.28,0-.44s0-.33,0-.5l-3.39,6.37a1,1,0,0,1-.31.34.8.8,0,0,1-.44.12h-.28a.8.8,0,0,1-.43-.12,1,1,0,0,1-.31-.34l-3.43-6.38c0,.17,0,.34,0,.5s0,.31,0,.45v5.72l1,.14a.45.45,0,0,1,.39.48v.92h-4.41V118a.45.45,0,0,1,.39-.48h.09l.23,0,.47-.08v-8.16l-.47-.08-.23,0-.09,0a.45.45,0,0,1-.39-.48v-.92h2.75l.25,0a.66.66,0,0,1,.19,0c.06,0,.09.06.14.11a1,1,0,0,1,.14.19l3.36,6.23c.09.17.16.34.23.51l.23.54.22-.54a5.47,5.47,0,0,1,.25-.53l3.32-6.21a1,1,0,0,1,.13-.19.34.34,0,0,1,.16-.11.77.77,0,0,1,.19,0l.23,0h2.75v.92a.45.45,0,0,1-.39.48Z" fill="#fff"/><path d="M320.74,111.25a3.94,3.94,0,0,1-.28,1.51,3.2,3.2,0,0,1-.81,1.17,3.87,3.87,0,0,1-1.37.76,5.94,5.94,0,0,1-1.91.26H315v2.42l.47.08.23,0h.09a.45.45,0,0,1,.39.48v.92h-4.44V118a.45.45,0,0,1,.39-.48h.09l.23,0,.47-.08v-8.16l-.47-.08-.23,0-.09,0a.45.45,0,0,1-.39-.48v-.92h4.64a6.62,6.62,0,0,1,2,.26,3.77,3.77,0,0,1,1.35.75,2.84,2.84,0,0,1,.79,1.12A3.92,3.92,0,0,1,320.74,111.25Zm-2.1,0a2.25,2.25,0,0,0-.14-.81,1.57,1.57,0,0,0-.42-.62,1.91,1.91,0,0,0-.7-.39,3.24,3.24,0,0,0-1-.14H315v4h1.38a3.24,3.24,0,0,0,1-.14,1.74,1.74,0,0,0,.7-.4,1.58,1.58,0,0,0,.42-.65A2.55,2.55,0,0,0,318.64,111.25Z" fill="#fff"/><path d="M333.05,118.11v.79h-3.79v-.79a.44.44,0,0,1,.31-.4l.31-.12-.06-.17-.56-1.52h-4.47l-.58,1.6,0,.09.31.12a.44.44,0,0,1,.31.4v.79H321v-.79a.44.44,0,0,1,.31-.4l.85-.36,3.79-9.68h2.14l3.81,9.68.85.36A.41.41,0,0,1,333.05,118.11Zm-7.72-3.7h3.4l-1.29-3.5-.2-.57c-.08-.22-.14-.48-.22-.75-.08.26-.16.51-.22.75s-.14.42-.2.59Z" fill="#fff"/><path d="M346.7,107.67v.92a.45.45,0,0,1-.39.48l-.09,0-.23,0-.45.08v9.69h-1.09a1,1,0,0,1-.4-.08.86.86,0,0,1-.33-.28l-5.87-7.47c0,.17,0,.33,0,.48s0,.31,0,.45v5.36l1,.14a.45.45,0,0,1,.39.48v.92h-4.41V118a.45.45,0,0,1,.39-.48h.09l.23,0,.47-.08v-8.16l-.47-.08-.23,0-.09,0a.45.45,0,0,1-.39-.48v-.92h2.27l.23,0a.32.32,0,0,1,.17,0,.37.37,0,0,1,.14.09l.16.19,5.9,7.5,0-.53c0-.17,0-.34,0-.5v-5.28l-1-.14a.45.45,0,0,1-.39-.48v-.92h4.41Z" fill="#fff"/><path d="M359.24,107.67v.92a.45.45,0,0,1-.39.48l-.09,0-.23,0-.45.08-3.17,5.33v2.83l.45.08.23,0h.09a.45.45,0,0,1,.39.48v.92h-4.44V118a.45.45,0,0,1,.39-.48h.11l.23,0,.45-.08v-2.83l-3.17-5.33-.47-.08-.23,0-.09,0a.45.45,0,0,1-.39-.48v-.92h4.19v.92a.45.45,0,0,1-.39.48l-.06,0-.16,0-.22,0,1.49,2.72c.12.22.22.42.31.62s.16.4.23.59a4.7,4.7,0,0,1,.23-.59c.09-.2.19-.4.31-.62l1.48-2.72-.23,0a1.44,1.44,0,0,0-.14,0l-.08,0a.45.45,0,0,1-.39-.48v-.92h4.19Z" fill="#fff"/><path d="M370,109.09l-.23,0-.45.08v8.16l.45.08.23,0h.09a.45.45,0,0,1,.39.48v.92H366V118a.45.45,0,0,1,.39-.48h.09l.23,0,.47-.08v-8.16l-.47-.08-.23,0-.09,0a.45.45,0,0,1-.39-.48v-.92h4.44v.92a.45.45,0,0,1-.39.48Z" fill="#fff"/><path d="M372.71,117.38a1.14,1.14,0,0,1,.62-.62,1.13,1.13,0,0,1,.47-.09,1.19,1.19,0,0,1,.47.09,1.14,1.14,0,0,1,.62.62,1.2,1.2,0,0,1,.09.47,1.15,1.15,0,0,1-.09.47,1.13,1.13,0,0,1-.25.36,1.2,1.2,0,0,1-.37.25,1.11,1.11,0,0,1-.45.09,1.13,1.13,0,0,1-.47-.09,1.28,1.28,0,0,1-.39-.25,1.11,1.11,0,0,1-.34-.82A1.18,1.18,0,0,1,372.71,117.38Z" fill="#fff"/><path d="M381.11,109.09l-.23,0-.45.08v8.16l.45.08.23,0h.09a.45.45,0,0,1,.39.48v.92h-4.44V118a.45.45,0,0,1,.39-.48h.09l.23,0,.47-.08v-8.16l-.47-.08-.23,0-.09,0a.45.45,0,0,1-.39-.48v-.92h4.44v.92a.45.45,0,0,1-.39.48Z" fill="#fff"/><path d="M383.86,117.38a1.14,1.14,0,0,1,.62-.62,1.13,1.13,0,0,1,.47-.09,1.19,1.19,0,0,1,.47.09,1.14,1.14,0,0,1,.62.62,1.2,1.2,0,0,1,.09.47,1.15,1.15,0,0,1-.09.47,1.13,1.13,0,0,1-.25.36,1.2,1.2,0,0,1-.37.25,1.11,1.11,0,0,1-.45.09,1.13,1.13,0,0,1-.47-.09,1.28,1.28,0,0,1-.39-.25,1.11,1.11,0,0,1-.34-.82A1.18,1.18,0,0,1,383.86,117.38Z" fill="#fff"/><path d="M146.94,48.55a4.17,4.17,0,0,0-4.17-4.1H100a9.5,9.5,0,0,0-4.71,1.85A17.85,17.85,0,0,0,93.2,48a16,16,0,0,0-1.86,2,8.47,8.47,0,0,0-1.93,4.47s-2.54,43.7-2.65,45.62l-.09,1.57-.06,1.08,6.22-4.52-3.56,10.94,9.31,6.76H87.08l-3.56,10.94L80,115.92H68.46l9.31-6.76L74.21,98.22l6.32,4.59c-1.11-19.3-2.72-47.29-2.78-48.06-.38-4.79-7.52-10.29-10.52-10.29H64a6.56,6.56,0,0,0-5.74,3.29C57,49.85,15.37,119,15.37,119c-2.64,4.55-6,7.79-11.5,7.91l-.84,6H35.14l1-6c-7.67,0-10.07-1.2-10.07-5.39,0-3.59,2.52-9.59,8.63-20.13H61.14c1.2,12.7,1.56,16.3,1.56,18.57,0,6-1.8,6.95-10.07,6.95l-1,6h65v-6c-9.23-.72-10.23-2.28-10.23-12.46l.11-22.53c14.86,0,16.54,6.35,17.61,15.34h5.47V69.37h-5.47c-1.08,9-2.76,15.34-17.61,15.34V65.42c0-3.68-.11-7.8.07-10.44a3.07,3.07,0,0,1,3.25-2.62h2.43c19.69,0,26,6.23,28.84,21.33h6.23ZM38.25,94.65,56.52,64c.6-1.08.84-1.32,1.2-1.32s.6.36.72,1.32l2.1,30.67Z" fill="#022169"/></svg>