<svg xmlns="http://www.w3.org/2000/svg" viewBox="0 0 459.36 135.36"><title>color</title><path d="M72.31,32.15c-11.24-2-19.68,1-25.23-8.91,12.47,8.17,26.26,0,31.47,12.65A9.77,9.77,0,0,0,72.31,32.15Z" fill="#eb0029"/><path d="M87.72,38.21H81.92a10,10,0,0,0-3.81-8.7l0,0c-7.88-7.63-30.27-1.62-36.44-14.29,7.43,7.11,32.43,2,42.42,10.27C89,29.54,89.57,34.14,87.72,38.21Z" fill="#eb0029"/><path d="M70,12.28c15.43-.22,18.07,10,18.18,13.6-7.5-14.49-45.25-1.23-51.64-21C36.56,4.89,41.75,12.68,70,12.28Z" fill="#eb0029"/><path d="M76.29,52.3c.06.77,1.67,28.78,2.78,48.09l3,2.17.09-.06v0l.05-1.35v-.3l.05-1.42v-.16l.05-1.39,0-.84,0-.89,0-1.13.05-1.35,0-1.26,0-.43.06-1.57,0-.47.05-1.36,0-1.19v-.06c.08-2,.16-4.06.24-6.08l.08-2.08.43-10.61,0-1,.13-3.22v0l.05-1.34,0-.46,0-.89,0-1,0-1.08v-.16l0-1.18,0-.39L84,57l0-.57,0-.67V55.4l0-.87v-.18l0-1a1.49,1.49,0,0,0-1.49-1.54H79.53s1.64-.91,3.1-1.76a8.77,8.77,0,0,0,3.2-3.17c1.23-2.13,2.5-4.92,2.5-4.92H65.77C68.77,42,75.91,47.5,76.29,52.3Z" fill="#b1aecc"/><path d="M176.06,90.07c-3.17-.1-4.46-.45-4.46-2.43,0-1,.3-2.72,2.38-8.77h13l2.18,6.29a8,8,0,0,1,.59,2.67c0,1.63-1.49,2.23-4.61,2.23v2.18h14.71V90.07a4.66,4.66,0,0,1-4.36-3.42L187.75,65.5c-1.09-3-2.23-6.34-3.17-9.81h-4.66L168.78,84c-1.49,3.81-2.28,5.94-5.1,6v2.18h12.38ZM180,62.43c.15-.4.3-.79.59-.79s.45.35.54.69l5,14H175Z" fill="#022169"/><path d="M225.93,86.11V73.72c1.29-2,3.37-4,6.14-4,2.58,0,4.26,1.39,4.26,4.46V86.11c0,3.37-1.19,4-3.57,4v2.18h12.18V90.07c-2.38,0-3.57-.59-3.57-4V72.73c0-4.56-3.17-6.64-7.08-6.64a9.44,9.44,0,0,0-6.49,2.63c-1.68,1.39-1.54,1.83-2,1.83s-.25-.59-1.34-1.93c-1.44-1.78-3.07-2.53-5.79-2.53s-5,1.34-7,3.22c-.79.74-.94.94-1.09.94s-.15,0-.15-.15v-4l-8.32,1.49v2c2.38.25,3.27,1.49,3.27,4.16V86.11c0,3.37-1.19,4-3.57,4v2.18H214V90.07c-2.38,0-3.57-.59-3.57-4V73.72c1.44-2,3.71-4,6.14-4s4.26,1.39,4.26,4.46V86.11c0,3.37-1.19,4-3.57,4v2.18h12.18V90.07C227.11,90.07,225.93,89.47,225.93,86.11Z" fill="#022169"/><path d="M258,72.53V65.2c0-2.13.15-4.21.3-6.54h5.05c10.35,0,11.89,2.18,12.43,9.21H278V56.09c-2.87.15-5.89.4-8.87.4H246.94v2.18c4.26.1,5.35,1.19,5.35,4V86.11c0,2.77-1.09,3.86-5.35,4v2.18h16.44V90.07c-4.26-.1-5.35-1.19-5.35-4V74.71c7.63.1,8.52,1.29,8.92,6h2.18V66.49H267C266.56,71.25,265.67,72.43,258,72.53Z" fill="#022169"/><path d="M289.18,86.11v-20L280,67.58v2c3.27.25,4.16,1.49,4.16,4.16V86.11c0,3.37-1.19,4-4.26,4v2.18h13.57V90.07C290.37,90.07,289.18,89.47,289.18,86.11Z" fill="#022169"/><path d="M286.55,60.94a3.07,3.07,0,1,0-3.07-3.07A3,3,0,0,0,286.55,60.94Z" fill="#022169"/><path d="M309.16,69.76c1.14,0,2.13.79,2.13,2.48a3.8,3.8,0,0,1-.35,1.73,7.1,7.1,0,0,0,1.44.15c2.63,0,4.16-1.39,4.16-4.21,0-2-1.83-3.81-4.85-3.81s-5.05,1.73-6.49,4-1.24,2.38-1.58,2.38-.35-.2-.35-.54V66.09l-8.62,1.09v2c3.12.3,4.06,1.14,4.06,3.52V86.11c0,3.37-1.19,4-3.86,4v2.18h14V90.07c-4,0-5.05-.79-5.05-4V79C303.76,73.62,306.93,69.76,309.16,69.76Z" fill="#022169"/><path d="M321.67,91.65c1.34,0,3.52,1.19,6.69,1.19,5.45,0,9.11-3.37,9.11-8.17,0-9.81-14.56-6.59-14.56-12.68A3.77,3.77,0,0,1,327,68.27c2.87,0,5.6,1.39,6.83,6H336V66.69H334.7a2.25,2.25,0,0,1-1.34.4c-.74,0-2.87-1-6-1-5,0-8.62,2.77-8.62,7.53,0,8.92,14.56,6,14.56,12.63,0,2.53-1.88,4.41-5,4.41-3.86,0-6.83-3.07-7.43-7.33h-2.48v8.92h2.18A1.51,1.51,0,0,1,321.67,91.65Z" fill="#022169"/><path d="M342.34,87.69c0,3.12,1.78,5.15,5.75,5.15a14.46,14.46,0,0,0,6.54-1.58V88.88a10.36,10.36,0,0,1-3.86.79c-2.18,0-3.37-1.09-3.37-3V69.46h7.33V66.69h-7.33v-7H345.7a29.44,29.44,0,0,1-7.13,7.83v2h3.76Z" fill="#022169"/><path d="M384.93,90.07c-1.49,0-3.12-.1-4.71-.2-.15-2.33-.3-4.41-.3-6.54V62.63c0-2.77,1.09-3.86,5.35-4V56.49H368.83v2.18c4.26.1,5.35,1.19,5.35,4V86.11c0,2.77-1.09,3.86-5.35,4v2.18H399L400.08,80H397.9C396,88.83,393.2,90.07,384.93,90.07Z" fill="#022169"/><path d="M410.78,86.11v-20l-9.21,1.49v2c3.27.25,4.16,1.49,4.16,4.16V86.11c0,3.37-1.19,4-4.26,4v2.18H415V90.07C412,90.07,410.78,89.47,410.78,86.11Z" fill="#022169"/><path d="M408.16,60.94a3.07,3.07,0,1,0-3.07-3.07A3,3,0,0,0,408.16,60.94Z" fill="#022169"/><path d="M425.94,63c0-3.57,1-5.65,3.27-5.65,1.78,0,2.77,1,2.87,4.85h4.26V55.89a22.39,22.39,0,0,0-6.29-1.09c-4.71,0-8.12,2.77-8.77,7.68-.4,3.07-.94,5.1-4.26,5.5v1.49h3.86V86.11c0,3.37-1.19,4-4.26,4v2.18h14.66V90.07c-4.26-.1-5.35-1.19-5.35-4V69.46h6.93V66.69h-6.93Z" fill="#022169"/><path d="M455.84,83.83c-2.58,3.81-5.05,5.05-8.22,5.05-4.85,0-8.32-4.11-8.32-10.5h18c-.2-8.12-4.51-12.28-11.29-12.28s-12.18,5.15-12.18,13.37c0,7.92,4.31,13.37,11.84,13.37,5.45,0,8.87-2.18,12.13-7.92Zm-10-15.55c2.87,0,5.65,2.08,5.75,7.53H439.4C439.89,71.15,442.17,68.27,445.84,68.27Z" fill="#022169"/><path d="M164,105.35H162.8v.92a.45.45,0,0,0,.39.48l.09,0,.23,0,.47.08V115l-.47.08-.23,0h-.09a.45.45,0,0,0-.39.48v.92h4.44v-.92a.45.45,0,0,0-.39-.48h-.09l-.23,0-.45-.08v-8.16l.45-.08.23,0,.09,0a.45.45,0,0,0,.39-.48v-.92H164Z" fill="#022169"/><path d="M177.85,105.35h-1.4v.92a.45.45,0,0,0,.39.48l1,.14v5.28c0,.16,0,.33,0,.5l0,.53-5.9-7.5-.16-.19a.37.37,0,0,0-.14-.09.32.32,0,0,0-.17,0l-.23,0H169v.92a.45.45,0,0,0,.39.48l.09,0,.23,0,.47.08V115l-.47.08-.23,0h-.09a.45.45,0,0,0-.39.48v.92h4.41v-.92a.45.45,0,0,0-.39-.48l-1-.14v-5.36c0-.14,0-.3,0-.45s0-.31,0-.48l5.87,7.47a.86.86,0,0,0,.33.28,1,1,0,0,0,.4.08h1.09v-9.69l.45-.08.23,0,.09,0a.45.45,0,0,0,.39-.48v-.92h-3Z" fill="#022169"/><path d="M189,111.05a3.06,3.06,0,0,0-.84-.56,10,10,0,0,0-.95-.39l-.95-.31a5.25,5.25,0,0,1-.84-.34,1.72,1.72,0,0,1-.57-.45,1,1,0,0,1-.23-.65,1.4,1.4,0,0,1,.11-.58,1.36,1.36,0,0,1,.34-.45,1.64,1.64,0,0,1,.54-.29,2.63,2.63,0,0,1,.75-.09,4.88,4.88,0,0,1,1.82.25q.09,1,.14,1.26a.34.34,0,0,0,.36.29h.88v-2.87a8.52,8.52,0,0,0-3.21-.64,4.1,4.1,0,0,0-1.57.28,3.69,3.69,0,0,0-1.15.71,3.15,3.15,0,0,0-1,2.24,3.42,3.42,0,0,0,.23,1.29,2.31,2.31,0,0,0,.57.87,3.12,3.12,0,0,0,.84.58,9.93,9.93,0,0,0,.95.37c.31.11.64.19.95.28a5,5,0,0,1,.82.33,1.64,1.64,0,0,1,.59.47,1.2,1.2,0,0,1,.22.73,1.5,1.5,0,0,1-.48,1.21A2.07,2.07,0,0,1,186,115a7.91,7.91,0,0,1-2.13-.2c-.06-.71-.11-1.15-.14-1.29a.33.33,0,0,0-.36-.28h-.89v2.89a10.12,10.12,0,0,0,3.22.59h.23a4.52,4.52,0,0,0,1.65-.28,3.53,3.53,0,0,0,1.23-.78,3.1,3.1,0,0,0,.76-1.17,3.88,3.88,0,0,0,.26-1.41,2.79,2.79,0,0,0-.22-1.2A2.43,2.43,0,0,0,189,111.05Z" fill="#022169"/><path d="M199.86,105.35h-1.24v.92a.45.45,0,0,0,.39.48l.11,0,.26,0,.48.08v5.19a3.82,3.82,0,0,1-.19,1.17,2.73,2.73,0,0,1-.5.89,2.29,2.29,0,0,1-.81.56,3,3,0,0,1-2.17,0,2.22,2.22,0,0,1-.79-.56,2.57,2.57,0,0,1-.51-.9,3.41,3.41,0,0,1-.17-1.17v-5.17l.48-.08.26,0,.11,0a.45.45,0,0,0,.39-.48v-.92h-4.5v.92a.45.45,0,0,0,.39.48l.09,0,.23,0,.47.08v5.19a5.07,5.07,0,0,0,.31,1.85,4.39,4.39,0,0,0,.93,1.48,4.34,4.34,0,0,0,1.46,1,5.69,5.69,0,0,0,3.88,0,4.41,4.41,0,0,0,1.48-1,4.37,4.37,0,0,0,.92-1.48,5.07,5.07,0,0,0,.33-1.85v-5.19l.47-.08.23,0,.09,0a.45.45,0,0,0,.39-.48v-.92h-3.26Z" fill="#022169"/><path d="M214.57,115.18h-.12c-.06,0-.14,0-.26,0l-.48-.08-1.77-2.61a2.11,2.11,0,0,0-.68-.65,4.38,4.38,0,0,0,1.06-.5,2.85,2.85,0,0,0,.78-.71,3.21,3.21,0,0,0,.48-.92,3.53,3.53,0,0,0,.17-1.07,3.26,3.26,0,0,0-.25-1.3,2.61,2.61,0,0,0-.78-1,3.72,3.72,0,0,0-1.34-.67,7.32,7.32,0,0,0-2-.23h-4.49v.92a.45.45,0,0,0,.39.48l.09,0,.23,0,.47.08V115l-.47.08-.23,0h-.09a.45.45,0,0,0-.39.48v.92h4.44v-.92a.45.45,0,0,0-.39-.48h-.09l-.23,0-.47-.08v-2.86H209a1,1,0,0,1,.47.09.83.83,0,0,1,.29.28l2.36,3.6a1,1,0,0,0,.31.31.87.87,0,0,0,.47.11H215v-.92A.45.45,0,0,0,214.57,115.18Zm-4.18-4.64a3.37,3.37,0,0,1-1,.16h-1.2V107h1.23a2.66,2.66,0,0,1,1.72.45,1.62,1.62,0,0,1,.56,1.32,2.08,2.08,0,0,1-.14.78,1.7,1.7,0,0,1-.42.62A1.94,1.94,0,0,1,210.39,110.54Z" fill="#022169"/><path d="M228.5,115.39l-.85-.36-3.81-9.68H221.7L217.91,115l-.85.36a.44.44,0,0,0-.31.4v.79h3.79v-.79a.44.44,0,0,0-.31-.4l-.31-.12,0-.09.58-1.6H225l.56,1.52.06.17-.31.12a.44.44,0,0,0-.31.4v.79h3.79v-.79A.41.41,0,0,0,228.5,115.39Zm-7.42-3.29,1.27-3.48c.06-.17.14-.36.2-.59s.14-.48.22-.75c.08.26.14.53.22.75l.2.57,1.29,3.5Z" fill="#022169"/><path d="M239.43,105.35H238v.92a.45.45,0,0,0,.39.48l1,.14v5.28c0,.16,0,.33,0,.5l0,.53-5.9-7.5-.16-.19a.37.37,0,0,0-.14-.09.32.32,0,0,0-.17,0l-.23,0h-2.27v.92a.45.45,0,0,0,.39.48l.09,0,.23,0,.47.08V115l-.47.08-.23,0H231a.45.45,0,0,0-.39.48v.92H235v-.92a.45.45,0,0,0-.39-.48l-1-.14v-5.36c0-.14,0-.3,0-.45s0-.31,0-.48l5.87,7.47a.86.86,0,0,0,.33.28,1,1,0,0,0,.4.08h1.09v-9.69l.45-.08.23,0,.09,0a.45.45,0,0,0,.39-.48v-.92h-3Z" fill="#022169"/><path d="M252.26,113.94a.39.39,0,0,0-.19,0,.65.65,0,0,0-.17.11,4,4,0,0,1-.51.4,2.53,2.53,0,0,1-.54.26,3.51,3.51,0,0,1-.64.14,5.94,5.94,0,0,1-.78,0,3.22,3.22,0,0,1-1.34-.26,3.18,3.18,0,0,1-1.09-.78,3.73,3.73,0,0,1-.71-1.24,5.13,5.13,0,0,1,0-3.34,3.79,3.79,0,0,1,.75-1.24,3.11,3.11,0,0,1,1.13-.79,3.75,3.75,0,0,1,1.46-.26,7.74,7.74,0,0,1,2.14.36c.06.68.11,1.1.14,1.24a.33.33,0,0,0,.36.28h.9V106a10.25,10.25,0,0,0-3.53-.81,6.31,6.31,0,0,0-2.35.42,5.34,5.34,0,0,0-3,3,6.29,6.29,0,0,0-.42,2.33,6.81,6.81,0,0,0,.37,2.3,5.36,5.36,0,0,0,1.09,1.82,4.74,4.74,0,0,0,1.71,1.18,5.69,5.69,0,0,0,2.24.43,6,6,0,0,0,2.41-.45,4.43,4.43,0,0,0,1.68-1.29l-.82-.9A.37.37,0,0,0,252.26,113.94Z" fill="#022169"/><path d="M255.06,105.35v.92a.45.45,0,0,0,.39.48l.09,0,.23,0,.47.08V115l-.47.08-.23,0h-.09a.45.45,0,0,0-.39.48v.92h8.26v-3h-.9a.34.34,0,0,0-.36.29c0,.12-.06.45-.11,1h-3.62v-3.17h3.81v-1.62h-3.81V107H262c0,.54.09.87.11,1a.34.34,0,0,0,.36.29h.9v-3h-8.26Z" fill="#022169"/><path d="M278.46,113.94a.39.39,0,0,0-.19,0,.65.65,0,0,0-.17.11,4,4,0,0,1-.51.4,2.53,2.53,0,0,1-.54.26,3.51,3.51,0,0,1-.64.14,5.94,5.94,0,0,1-.78,0,3.22,3.22,0,0,1-1.34-.26,3.18,3.18,0,0,1-1.09-.78,3.73,3.73,0,0,1-.71-1.24,5.13,5.13,0,0,1,0-3.34,3.79,3.79,0,0,1,.75-1.24,3.11,3.11,0,0,1,1.13-.79,3.75,3.75,0,0,1,1.46-.26,7.74,7.74,0,0,1,2.14.36c.06.68.11,1.1.14,1.24a.33.33,0,0,0,.36.28h.9V106a10.25,10.25,0,0,0-3.53-.81,6.31,6.31,0,0,0-2.35.42,5.34,5.34,0,0,0-3,3,6.29,6.29,0,0,0-.42,2.33,6.81,6.81,0,0,0,.37,2.3,5.36,5.36,0,0,0,1.09,1.82,4.74,4.74,0,0,0,1.71,1.18,5.69,5.69,0,0,0,2.24.43,6,6,0,0,0,2.41-.45,4.43,4.43,0,0,0,1.68-1.29l-.82-.9A.37.37,0,0,0,278.46,113.94Z" fill="#022169"/><path d="M290.89,106.86a5.37,5.37,0,0,0-1.8-1.2,5.85,5.85,0,0,0-2.31-.43,6.23,6.23,0,0,0-2.33.43,5.16,5.16,0,0,0-1.8,1.2,5.54,5.54,0,0,0-1.17,1.82,6.09,6.09,0,0,0-.4,2.28,6.18,6.18,0,0,0,.4,2.3,5.54,5.54,0,0,0,1.17,1.82,5.16,5.16,0,0,0,1.8,1.2,6.23,6.23,0,0,0,2.33.43,6.14,6.14,0,0,0,2.31-.43,5.15,5.15,0,0,0,1.8-1.2,5.48,5.48,0,0,0,1.15-1.82,6.16,6.16,0,0,0,.42-2.3,6.08,6.08,0,0,0-.42-2.28A5.48,5.48,0,0,0,290.89,106.86Zm-.82,5.76a3.24,3.24,0,0,1-.7,1.24,3.2,3.2,0,0,1-1.12.79,3.74,3.74,0,0,1-1.48.26,3.83,3.83,0,0,1-1.49-.26,3.19,3.19,0,0,1-1.12-.79,3.48,3.48,0,0,1-.71-1.24,5.05,5.05,0,0,1-.25-1.66,5,5,0,0,1,.25-1.65,3.49,3.49,0,0,1,.71-1.24,3.19,3.19,0,0,1,1.12-.79,3.81,3.81,0,0,1,1.49-.26,3.73,3.73,0,0,1,1.48.26,3.2,3.2,0,0,1,1.12.79,3.24,3.24,0,0,1,.7,1.24,5.39,5.39,0,0,1,.25,1.65A5.5,5.5,0,0,1,290.07,112.62Z" fill="#022169"/><path d="M305.78,105.35l-.23,0a.77.77,0,0,0-.19,0,.34.34,0,0,0-.16.11,1,1,0,0,0-.12.19l-3.32,6.21a5.47,5.47,0,0,0-.25.53l-.22.54-.23-.54c-.08-.17-.14-.34-.23-.51l-3.36-6.23a1,1,0,0,0-.14-.19s-.08-.09-.14-.11a.66.66,0,0,0-.19,0l-.25,0H294v.92a.45.45,0,0,0,.39.48l.09,0,.23,0,.47.08V115l-.47.08-.23,0h-.09a.45.45,0,0,0-.39.48v.92h4.41v-.92a.45.45,0,0,0-.39-.48l-1-.14v-5.72c0-.14,0-.29,0-.45s0-.33,0-.5l3.43,6.38a1,1,0,0,0,.31.34.8.8,0,0,0,.43.12h.28a.8.8,0,0,0,.44-.12,1,1,0,0,0,.31-.34l3.39-6.37c0,.17,0,.34,0,.5s0,.3,0,.44V115l-1,.14a.45.45,0,0,0-.39.48v.92h4.41v-.92a.45.45,0,0,0-.39-.48h-.09l-.23,0-.45-.08v-8.16l.45-.08.23,0,.09,0a.45.45,0,0,0,.39-.48v-.92h-2.75Z" fill="#022169"/><path d="M318.33,106.36a3.77,3.77,0,0,0-1.35-.75,6.62,6.62,0,0,0-2-.26h-4.64v.92a.45.45,0,0,0,.39.48l.09,0,.23,0,.47.08V115l-.47.08-.23,0h-.09a.45.45,0,0,0-.39.48v.92h4.44v-.92a.45.45,0,0,0-.39-.48h-.09l-.23,0-.47-.08v-2.42H315a5.94,5.94,0,0,0,1.91-.26,3.87,3.87,0,0,0,1.37-.76,3.2,3.2,0,0,0,.81-1.17,4.13,4.13,0,0,0,0-3A2.84,2.84,0,0,0,318.33,106.36Zm-1.18,3.43a1.58,1.58,0,0,1-.42.65,1.74,1.74,0,0,1-.7.4,3.24,3.24,0,0,1-1,.14h-1.38v-4H315a3.24,3.24,0,0,1,1,.14,1.91,1.91,0,0,1,.7.39,1.57,1.57,0,0,1,.42.62,2.25,2.25,0,0,1,.14.81A2.55,2.55,0,0,1,317.14,109.79Z" fill="#022169"/><path d="M331.4,115.39l-.85-.36-3.81-9.68h-2.14L320.8,115l-.85.36a.44.44,0,0,0-.31.4v.79h3.79v-.79a.44.44,0,0,0-.31-.4l-.31-.12,0-.09.58-1.6h4.47l.56,1.52.06.17-.31.12a.44.44,0,0,0-.31.4v.79h3.79v-.79A.41.41,0,0,0,331.4,115.39ZM324,112.09l1.27-3.48c.06-.17.14-.36.2-.59s.14-.48.22-.75c.08.26.14.53.22.75l.2.57,1.29,3.5Z" fill="#022169"/><path d="M342.32,105.35h-1.4v.92a.45.45,0,0,0,.39.48l1,.14v5.28c0,.16,0,.33,0,.5l0,.53-5.9-7.5-.16-.19a.37.37,0,0,0-.14-.09.32.32,0,0,0-.17,0l-.23,0h-2.27v.92a.45.45,0,0,0,.39.48l.09,0,.23,0,.47.08V115l-.47.08-.23,0h-.09a.45.45,0,0,0-.39.48v.92h4.41v-.92a.45.45,0,0,0-.39-.48l-1-.14v-5.36c0-.14,0-.3,0-.45s0-.31,0-.48l5.87,7.47a.86.86,0,0,0,.33.28,1,1,0,0,0,.4.08h1.09v-9.69l.45-.08.23,0,.09,0a.45.45,0,0,0,.39-.48v-.92h-3Z" fill="#022169"/><path d="M357.35,105.35h-3.67v.92a.45.45,0,0,0,.39.48l.08,0a1.44,1.44,0,0,1,.14,0l.23,0L353,109.58c-.12.22-.22.42-.31.62a4.7,4.7,0,0,0-.23.59c-.08-.19-.14-.39-.23-.59s-.19-.4-.31-.62l-1.49-2.72.22,0,.16,0,.06,0a.45.45,0,0,0,.39-.48v-.92H347.1v.92a.45.45,0,0,0,.39.48l.09,0,.23,0,.47.08,3.17,5.33V115l-.45.08-.23,0h-.11a.45.45,0,0,0-.39.48v.92h4.44v-.92a.45.45,0,0,0-.39-.48h-.09l-.23,0-.45-.08v-2.83l3.17-5.33.45-.08.23,0,.09,0a.45.45,0,0,0,.39-.48v-.92h-.53Z" fill="#022169"/><path d="M365.82,105.35h-1.18v.92a.45.45,0,0,0,.39.48l.09,0,.23,0,.47.08V115l-.47.08-.23,0H365a.45.45,0,0,0-.39.48v.92h4.44v-.92a.45.45,0,0,0-.39-.48h-.09l-.23,0-.45-.08v-8.16l.45-.08.23,0,.09,0a.45.45,0,0,0,.39-.48v-.92h-3.26Z" fill="#022169"/><path d="M373.28,114.69a1.21,1.21,0,0,0-.37-.25,1.19,1.19,0,0,0-.47-.09,1.13,1.13,0,0,0-.47.09,1.14,1.14,0,0,0-.62.62,1.18,1.18,0,0,0-.09.47,1.11,1.11,0,0,0,.34.82,1.28,1.28,0,0,0,.39.25,1.13,1.13,0,0,0,.47.09,1.11,1.11,0,0,0,.45-.09,1.2,1.2,0,0,0,.37-.25,1.13,1.13,0,0,0,.25-.36,1.15,1.15,0,0,0,.09-.47,1.2,1.2,0,0,0-.09-.47A1.21,1.21,0,0,0,373.28,114.69Z" fill="#022169"/><path d="M377,105.35h-1.18v.92a.45.45,0,0,0,.39.48l.09,0,.23,0,.47.08V115l-.47.08-.23,0h-.09a.45.45,0,0,0-.39.48v.92h4.44v-.92a.45.45,0,0,0-.39-.48h-.09l-.23,0-.45-.08v-8.16l.45-.08.23,0,.09,0a.45.45,0,0,0,.39-.48v-.92H377Z" fill="#022169"/><path d="M384.43,114.69a1.21,1.21,0,0,0-.37-.25,1.19,1.19,0,0,0-.47-.09,1.13,1.13,0,0,0-.47.09,1.14,1.14,0,0,0-.62.62,1.18,1.18,0,0,0-.09.47,1.11,1.11,0,0,0,.34.82,1.28,1.28,0,0,0,.39.25,1.13,1.13,0,0,0,.47.09,1.11,1.11,0,0,0,.45-.09,1.2,1.2,0,0,0,.37-.25,1.13,1.13,0,0,0,.25-.36,1.15,1.15,0,0,0,.09-.47,1.2,1.2,0,0,0-.09-.47A1.21,1.21,0,0,0,384.43,114.69Z" fill="#022169"/><path d="M141.35,42H98.6a6.16,6.16,0,0,0-2.2.5l-.61.27a14,14,0,0,0-1.26.68l-.64.4C91,45.8,88.13,49,88,52h0v.67l0,.31,0,.32,0,.27,0,.43,0,.44,0,.34,0,.51,0,.61,0,.33,0,.81v.2l-.06,1-.12,2.13-.06,1-.21,3.55-.35,6v.12l-.09,1.48-.06,1,0,.5L86.55,76,86,85.64l-.1,1.8-.74,12.88,6.22-4.52-3.56,10.95,9.31,6.77H85.62l-3.56,10.95-3.56-10.95H67l9.31-6.77L72.76,95.79l6.32,4.59C78,81.08,76.35,53.07,76.29,52.3,75.91,47.5,68.77,42,65.77,42H62.59a6.56,6.56,0,0,0-5.74,3.29c-1.29,2.12-43,71.27-43,71.27-2.64,4.56-6,7.79-11.51,7.91l-.84,6H33.66l1-6c-7.67,0-10.07-1.2-10.07-5.39,0-3.6,2.52-9.59,8.63-20.14H59.68c1.2,12.71,1.56,16.3,1.56,18.58,0,6-1.8,7-10.07,7l-1,6h65v-6C106,123.76,105,122.2,105,112l.11-22.54c14.86,0,16.54,6.35,17.62,15.34h5.47V66.93h-5.47c-1.08,9-2.76,15.34-17.62,15.34V63c0-3.69-.11-7.8.07-10.45a3.07,3.07,0,0,1,3.25-2.62h2.43c19.7,0,26,6.23,28.85,21.34h6.23l-.41-25.14A4.17,4.17,0,0,0,141.35,42ZM36.78,92.23,55.06,61.54c.6-1.08.84-1.32,1.2-1.32s.6.36.72,1.32l2.1,30.69Z" fill="#022169"/></svg>