<?xml version="1.0" encoding="iso-8859-1"?>
<!-- Generator: Adobe Illustrator 19.1.0, SVG Export Plug-In . SVG Version: 6.00 Build 0)  -->
<svg version="1.1" baseProfile="tiny" id="Layer_1" xmlns="http://www.w3.org/2000/svg" xmlns:xlink="http://www.w3.org/1999/xlink"
	 x="0px" y="0px" viewBox="0 0 272.8 52" xml:space="preserve">
<g>
	<path d="M6.9,12.8c1.2,0,2.3-0.2,3.5-0.5c1.1-0.3,2.9-1,2.9-2.8c0-0.6-0.1-1.8-0.7-2.5c0,0,1.4-0.4,2.1-0.7
		c1.2-0.5,2.6-1.1,2.6-1.9c0-0.7-0.1-1.2-1-2.7C15.6,0.4,15.2,0,13.2,0C9.6,0,6.2,0.9,3,2.5C2.6,2.7,1.6,3.2,1.6,3.9
		c0,0.2,0,0.6,0.1,0.6c0,0,0.1,0,0.1-0.1c1.6-1,3.6-1.6,5.6-1.9C6.4,3.6,5.1,4.9,4,6c-1.4,1.4-4,3.9-4,4.8c0,0.6,0.3,1,0.6,1.5
		c0.4,0.6,0.6,0.7,0.6,0.7c0.2,0,0.7-1.1,1.5-2.2C3.3,12.5,5.3,12.8,6.9,12.8z M8,4.9c1-1.1,1.8-1.7,1.8-1.9S9.4,2.6,9,2.4
		c1.5-0.1,2.9-0.1,4-0.1c1.4,0,2.6,0.1,2.6,0.7c0,1.2-5.7,2.5-8.3,2.6L8,4.9z M6.5,6.5c0,0.3-0.1,0.7-0.1,1.2c0,0.1,0,0.1,0.1,0.1
		c0,0,0.1,0,0.2,0c0.1,0,1.5-0.4,3.3-0.4c1.1,0,2.1,0.2,2.1,0.9c0,0.9-1.3,1.3-2.1,1.5c-1.3,0.4-2.8,0.6-4.1,0.6
		c-0.6,0-2.3,0-2.3-0.7C3.7,9.2,5.6,7.4,6.5,6.5z"/>
	<path d="M13.6,11c0,0.6,0.6,1.3,0.8,1.3c0.3,0,0.6-0.6,0.7-0.7c1.8-2,3.4-3.5,4.4-4c0.1,0,0.2-0.1,0.2-0.1c0.4,0,0.5,0.6,0.8,0.6
		c0.1,0,1.4-0.9,1.4-1.8c0-0.3-0.2-0.7-0.6-0.7c-0.6,0-2.3,1.2-3.2,2c0-0.1,0.3-0.4,0.6-0.9C18.8,6.5,19,6.3,19,6.1
		c0-0.3-0.4-0.9-0.7-0.9c-0.1,0-0.2,0-0.2,0.1c-1.3,1.4-2.3,2.5-3.4,3.7C14.2,9.6,13.6,10.3,13.6,11z"/>
	<path d="M22.3,12.3c0.2,0.2,0.5,0.2,0.8,0.2c1.6,0,3.7-2,4.2-3.4c0.1-0.3,0.1-0.6,0.1-0.9c0-0.5-0.1-1.1-0.6-1.2c0.1,0,0.2,0,0.3,0
		c0.2,0,0.3,0,0.3-0.1c0-0.1-0.2-0.6-0.5-1c-0.4-0.5-0.6-0.7-1-0.7c-0.3,0-0.7,0-1.1,0.3c-1.7,0.8-4.1,2.5-4.1,4.2
		C20.7,10.7,21.9,11.9,22.3,12.3z M26.1,7.1c-0.3,0.3-0.5,0.7-0.5,0.9c0,0.3,0.1,0.5,0.1,0.6c0,0.2-0.5,0.9-1.2,1.4
		c-0.3,0.2-1.5,1.1-2.1,1.1c-0.2,0-0.4-0.2-0.4-0.4C22.1,9.7,24.3,7.8,26.1,7.1z"/>
	<path d="M37.5,12.7c1.2,0,2.4-0.7,3.4-1.5c0.1,0.6,0.6,1.1,0.8,1.1c0.3,0,0.6-0.6,0.7-0.7c1.8-2,3.4-3.5,4.4-4
		c0.1,0,0.2-0.1,0.2-0.1c0.4,0,0.5,0.6,0.8,0.6c0.1,0,1.4-0.9,1.4-1.8c0-0.3-0.2-0.7-0.6-0.7c-0.6,0-2.3,1.2-3.2,2
		c0-0.1,0.3-0.4,0.6-0.9c0.2-0.2,0.3-0.4,0.3-0.6c0-0.3-0.4-0.9-0.7-0.9c-0.1,0-0.2,0-0.2,0.1c-1.3,1.4-2.3,2.5-3.4,3.7
		c-0.2,0.2-0.4,0.5-0.6,0.7c-0.7,0.5-1.7,1-3,1.5c-0.2,0.1-0.5,0.2-0.8,0.2c-0.5,0-0.6-0.3-0.6-0.6c0-0.3,0.2-0.7,0.5-1.2
		c0.3,0.4,0.8,0.6,1.1,0.6c1.1,0,3.7-2.2,3.7-3.7c0-0.2,0-0.5-0.6-1c-0.4-0.4-0.8-0.8-1.1-0.8c-0.6,0-1.5,0.5-2.7,1.7
		c-1,0.9-1.9,2-2.2,3.2c-1.4,1.2-2.2,1.8-2.9,1.8c-0.7,0-1.1-0.5-1.1-1.2c0-0.2,0-0.3,0-0.5c0.8-0.1,4.4-0.8,4.4-2.3
		c0-0.6-0.8-1.3-1.5-1.3c-0.8,0-1.5,0.4-2.2,0.8c1.3-1.4,3-3.1,5.6-5.4c0.1-0.1,0.1-0.1,0.1-0.2c0-0.4-0.7-1-0.9-1
		c-0.1,0-0.2,0-0.3,0.1c-1.7,1.4-3.5,2.9-7.6,7.5c-0.8,0.9-2.4,2.6-2.4,3.3c0,0.4,0.8,1.5,1.2,1.5c0.2,0,0.4-0.5,0.5-0.7
		c0.4-0.8,0.9-1.5,1.6-2.5c-0.1,0.2-0.1,0.4-0.1,0.6c0,1.9,0.7,2.7,1.9,2.7c1.4,0,2.7-1,3.8-2C35.9,11.6,37,12.7,37.5,12.7z
		 M40.6,6.6c0.1,0,0.2-0.1,0.3-0.1c0.1,0,0.2,0,0.2,0.2c0,0.5-2,2.8-2.9,2.8c-0.1,0-0.2,0-0.4-0.2C38.6,8.3,39.6,7.3,40.6,6.6z
		 M34.5,7c0.1,0,0.2,0,0.2,0.1c0,0.4-1.7,1.1-2.6,1.3C32.6,7.7,33.4,7,34.5,7z"/>
	<path d="M31.8,18.2c-1.8-0.9-3.2-1.1-8.8-1.1H1.6v26.7h8.5v-6.6h13.7c4.3,0,6.3-0.2,7.8-0.9c2.8-1.3,3.9-3.9,3.9-9.5
		C35.4,21.9,34.4,19.5,31.8,18.2z M22.5,30.7H10.1v-7.2h12.4c3.7,0,4.5,0.7,4.5,3.9C27,30,26,30.7,22.5,30.7z"/>
	<path d="M116.2,25.9c0-4.2-1.1-6.6-3.4-7.8c-1.6-0.8-3.6-1-7.8-1H80.9v26.7h8.5V37h13.1c2.3,0,3,0.1,3.7,0.5
		c0.8,0.5,1.1,1.4,1.1,2.9v3.3h8.7v-4.2c0-2-0.2-3-0.8-4c-0.8-1.3-2-1.7-5.2-1.9l-1.4-0.1c3.4-0.5,4.4-0.7,5.4-1.4
		C115.4,31.1,116.2,29,116.2,25.9z M102.7,30.5H89.4v-6.9H103c2.6,0,3.2,0.1,3.9,0.8c0.5,0.6,0.7,1.3,0.7,3.2
		C107.6,30,106.8,30.5,102.7,30.5z"/>
	<polygon points="151,17.1 117.6,17.1 117.6,23.7 130,23.7 130,43.7 138.6,43.7 138.6,23.7 151,23.7 	"/>
	<path d="M157.8,17.1l-15.8,26.7h9.7l2.7-4.8h18.1l2.8,4.8h9.3l-15.3-26.7H157.8z M157.5,33.4l6-10.6l6,10.6H157.5z"/>
	<polygon points="194.3,17.1 185.8,17.1 185.8,43.7 213.6,43.7 213.6,37.1 194.3,37.1 	"/>
	<path d="M266.7,31c1.4,0,2.4,0.6,3,1.3c0.7,0.8,1.2,1.8,1.5,2.5c0,0.1,0.1,0.2,0.2,0.1l0.4-0.1c0.1,0,0.1-0.1,0.1-0.3l-0.2-3.7
		c0-0.1,0-0.3-0.2-0.3c-0.1,0-0.2,0.1-0.3,0.2l-0.2,0.3c-0.1,0.1-0.2,0.2-0.4,0c-0.6-0.4-2-1-3.7-1c-3.4,0-5.8,0.7-7.4,5.6l-1.5,3.9
		l-2.3-5.1c0,0-1-2.3-1.4-2.3c-0.4,0-1.4,2.1-1.4,2.1s-2.5,5.3-2.6,5.7l0,0l-2.8-8.4c-0.1-0.4,0.1-0.6,0.4-0.6h0.3
		c0.1,0,0.2-0.1,0.2-0.1v-0.5c0-0.1,0-0.1-0.1-0.1c-0.1,0-1,0-1.8,0c-0.1,0-0.2,0.3-0.4,0.6c-0.6,1.2-3.2,7.1-3.4,7.5h-0.1l-3.3-7.7
		c-0.1-0.2-0.2-0.4-0.5-0.4c-0.3,0-0.4,0.3-0.5,0.5c-0.4,0.9-4.1,11.1-4.3,11.6c-0.2,0.4-0.5,0.6-0.8,0.6h-0.4
		c-0.1,0-0.1,0.1-0.1,0.1v0.5c0,0.1,0,0.1,0.1,0.1c0.1,0,0.7-0.1,1.7-0.1c1.1,0,1.8,0.1,1.9,0.1c0.1,0,0.1-0.1,0.1-0.1v-0.4
		c0-0.1,0-0.1-0.1-0.1h-0.5c-0.4,0-0.6-0.3-0.6-0.5c0-1,2.1-7,2.6-8.6h0.1l2.6,6.5c0,0,0.6,1.4,1,1.4c0.6,0,1.4-2,1.4-2
		s2.5-5.5,2.6-5.9l0,0l2.8,8.4c0.1,0.4-0.1,0.6-0.4,0.6h-0.3c-0.1,0-0.2,0.1-0.2,0.1v0.5c0,0.1,0,0.1,0.1,0.1c0.1,0,0.6,0,1.5,0
		c0.1,0,0.3-0.1,0.3-0.2c0.1-0.1,0.1-0.2,0.2-0.2c0.1-0.2,3.3-7,3.5-7.5h0.1l3.3,7.5c0.1,0.2,0.2,0.4,0.5,0.4c1,0,1.3-0.4,1.7-1.5
		c0.2-0.6,1.4-3.9,2.5-6.8C262.7,32,264.7,31,266.7,31z"/>
	<path d="M272.6,37.8c-0.2,0-0.8,0.1-2.3,0.1c-1.5,0-2.4-0.1-2.6-0.1c-0.1,0-0.1,0-0.1,0.1v0.4c0,0.1,0,0.2,0.1,0.2h0.8
		c0.5,0,0.7,0.2,0.7,0.8v1.3c0,0.9,0,1.5-0.4,1.7c-0.6,0.3-1.3,0.3-2.5,0.3c-1.8,0-3.1-1.1-4.6-2.4c-0.2-0.2-0.4-0.1-0.4,0
		c-0.1,0.1-0.3,0.7-0.4,0.9c-0.1,0.2-0.1,0.3,0.1,0.5c1.3,1.4,3.4,2,5.1,2c2.2,0,3.7-0.4,5.2-1.2c0.2-0.1,0.3-0.1,0.3-0.3
		s-0.1-0.3-0.1-0.6v-2.4c0-0.5,0.2-0.7,0.5-0.7h0.6c0.1,0,0.1,0,0.1-0.1v-0.5C272.8,37.8,272.7,37.8,272.6,37.8z"/>
	<path d="M223.5,39.2c0-0.4-0.3-0.7-0.7-1.1c-0.3-0.3-0.8-0.6-1.4-0.6c2.5-2.5,4.5-3.8,5.1-4.6c0.1-0.1,0.1-0.2,0.1-0.2
		c0-0.4-0.8-1.3-1-1.3c-0.1,0-0.3,0.1-0.4,0.2c-0.9,0.8-1.9,1.6-4.4,4.1c-1.9,1.9-3.1,3-3.9,4.5c-0.3,0.5-0.7,1.2-0.7,1.9
		c0,0.3,0,0.6,0.6,1.2c0.7,0.7,1.1,1.2,1.8,1.2c1.7,0,4.1-3.1,4.7-4.5C223.4,39.7,223.5,39.4,223.5,39.2z M219.3,42.2
		c-0.5,0.4-0.8,0.6-1.1,0.6c-0.2,0-0.2-0.2-0.2-0.3c0-0.9,2.7-4.2,3.7-4.2c0.1,0,0.3,0.1,0.3,0.3C222,39.4,220.1,41.5,219.3,42.2z"
		/>
	<path d="M233.1,38.7c0-0.6-0.9-1.2-1.2-1.2c-0.2,0-0.4,0.1-0.5,0.2c-3.6,2.9-5,4.3-6.6,5.2c-0.1,0-0.1,0.1-0.2,0.1
		c-0.1,0-0.2-0.1-0.2-0.2c0-0.1,0-0.1,0.1-0.2c1.4-1.5,3-2.8,4.6-4.1c0,0,0.1-0.1,0.1-0.1c0-0.2-0.8-1.2-1.5-1.2c-0.1,0-0.1,0-0.2,0
		c-2.6,2.1-4.8,3.6-4.8,5.3c0,0.3,0.2,0.8,0.3,1.1c0.4,0.7,0.7,0.9,1,0.9c0.2,0,0.6,0,2.6-1.7c0,0,0.1-0.1,0.1-0.1c0,0,0,0,0,0
		s0,0.1-0.1,0.1c-1.2,1.2-2,2-2.9,3.1c-0.7,0.8-1.5,1.8-1.5,2.8c0,0.9,0.8,1.6,1,1.6c0.1,0,0.4-0.6,0.6-0.8c2.3-3.4,4.8-6.3,7.7-9.2
		C232.3,39.5,233.1,38.9,233.1,38.7z"/>
	<path d="M67,15c0,0,4.9-3.7,14.4-4.3c0,0-8.9-1.6-12.8,1.2c0,0-2-3.9-3.8-6.1C64.8,5.8,67.3,11.6,67,15z"/>
	<path d="M81.8,11.9l-0.3-0.4c-7.8,4.4-17.3,14.9-17.7,15.4l-0.4,0.3l7,2.9l-16.2,6.7L49,20.4l7.4,3.9c0,0,1-14.4,4.7-21.8l-0.4-0.2
		c-1,2-1.8,4.2-2.6,6.5c0,0,0,0,0,0c-11.7,0-21.1,9.5-21.1,21.1C36.9,41.5,46.4,51,58,51c11.7,0,21.1-9.5,21.1-21.1
		c0-4.7-1.6-9.1-4.2-12.6C77.2,15.1,79.5,13.1,81.8,11.9z M58,48c-10,0-18.1-8.1-18.1-18.1c0-9.7,7.7-17.6,17.2-18.1
		c-1.2,4.3-2,8.3-2.4,10.2l-6.7-2.8l4.4,22.3l21.1-11l-7.4-3.2c1.2-1.5,3.7-4.6,6.7-7.8c2.1,3,3.4,6.6,3.4,10.5
		C76.2,39.8,68,48,58,48z"/>
</g>
</svg>
