<?xml version="1.0" encoding="iso-8859-1"?>
<!-- Generator: Adobe Illustrator 19.1.0, SVG Export Plug-In . SVG Version: 6.00 Build 0)  -->
<svg version="1.1" baseProfile="tiny" id="Layer_1" xmlns="http://www.w3.org/2000/svg" xmlns:xlink="http://www.w3.org/1999/xlink"
	 x="0px" y="0px" viewBox="0 0 272.8 53.2" xml:space="preserve">
<g>
	<path fill="#FFFFFF" d="M17.9,12.2c0,0.6,0.6,1.3,0.8,1.3c0.3,0,0.6-0.6,0.7-0.7c1.8-2,3.5-3.5,4.4-4c0.1,0,0.2-0.1,0.2-0.1
		c0.4,0,0.5,0.6,0.8,0.6c0.1,0,1.4-0.9,1.4-1.8c0-0.3-0.2-0.7-0.6-0.7c-0.6,0-2.3,1.2-3.2,2c0-0.1,0.3-0.4,0.7-0.9
		c0.2-0.2,0.3-0.4,0.3-0.6c0-0.3-0.4-0.9-0.7-0.9c-0.1,0-0.2,0-0.2,0.1C21.1,8,20.2,9.1,19,10.3C18.6,10.8,17.9,11.5,17.9,12.2z"/>
	<path fill="#FFFFFF" d="M26.8,13.5c0.2,0.2,0.5,0.2,0.8,0.2c1.6,0,3.7-2,4.3-3.4C31.9,10,32,9.6,32,9.3c0-0.5-0.1-1.1-0.6-1.2
		c0.1,0,0.2,0,0.3,0c0.2,0,0.3,0,0.3-0.1c0-0.1-0.2-0.6-0.5-1c-0.4-0.5-0.6-0.7-1-0.7c-0.3,0-0.7,0-1.1,0.3
		c-1.7,0.8-4.2,2.5-4.2,4.2C25.2,11.9,26.3,13.1,26.8,13.5z M30.6,8.3c-0.3,0.3-0.5,0.7-0.5,0.9c0,0.3,0.1,0.5,0.1,0.6
		c0,0.2-0.5,0.9-1.2,1.4c-0.3,0.2-1.6,1.1-2.1,1.1c-0.2,0-0.4-0.2-0.4-0.4C26.5,10.9,28.8,9,30.6,8.3z"/>
	<path fill="#FFFFFF" d="M41.7,12.4c0.3,0.7,1,1.4,1.7,1.4c1.5,0,4.9-3.6,4.9-4.8c0-0.8-1.1-2.1-1.9-2.1c-0.4,0-0.8,0.3-1.3,0.6
		c0.1-0.2,0.2-0.5,0.2-0.7c0-0.3-0.5-0.7-0.5-0.7c-0.1,0-0.1,0-0.2,0.1c-1.4,1.6-2.5,2.7-3.8,4.2c0,0,0,0-0.1,0
		c-0.9,0.8-2.8,2.2-3.3,2.2c-0.1,0-0.1,0-0.1-0.2c0-0.7,1.4-1.8,4.3-4.8c0.1-0.1,0.1-0.1,0.1-0.2c0-0.2-0.7-1-1.4-1
		c-0.1,0-0.2,0-0.2,0.1c-1.6,1.7-2.8,3-4.7,4.7c-0.2,0.2-0.9,0.8-1.2,0.8C34,12,34,11.8,34,11.7c0-0.9,2.9-3.2,3.8-4
		c0,0,0.1-0.1,0.1-0.1c0-0.2-0.8-1.2-1.1-1.2c-0.1,0-0.2,0-0.2,0.1c-1.1,0.8-2.2,1.7-3.1,2.8c-0.6,0.6-1.4,1.7-1.4,2.5
		c0,0.3,0.2,0.7,0.4,1.1c0.3,0.5,0.5,0.8,1.1,0.8c0.5,0,1.1-0.3,1.5-0.6l1-0.8c0,0.8,0.8,1.6,1.4,1.6c0.2,0,0.4,0,0.5-0.1
		c0,0,0.1,0,0.1-0.1c-0.1,0.1-0.2,0.3-0.4,0.4c-0.7,0.8-1.7,2.1-1.7,2.9c0,0.7,0.3,1.2,0.8,1.7c0,0,0.2,0.1,0.2,0.1c0,0,0.1,0,0.1,0
		C37.4,17.3,39.8,14.6,41.7,12.4z M46.3,8c0.3,0,0.4,0.3,0.4,0.4c0,0.8-2.6,3.7-4.1,3.7c-0.2,0-0.2-0.1-0.2-0.2
		C42.3,10.9,45.7,8,46.3,8z"/>
	<path fill="#FFFFFF" d="M80.8,14.1c0.3,0,0.7,0.1,1,0.1c1.9,0,4.4-0.7,8.5-3.1c-0.1,0.1-0.3,0.3-0.4,0.4c-0.2,0.2-0.3,0.5-0.3,0.7
		c0,0.5,0.5,1.2,0.9,1.5c0.1,0,0.1,0.1,0.2,0.1c0.1,0,0.1,0,0.2-0.2c1.2-1.4,2.9-3,4-3.7c0,0,0.1-0.1,0.2-0.1c0,0,0,0,0,0
		c0,0,0,0.1-0.1,0.1c-0.6,0.6-1.4,1.5-1.4,2.3c0,0.9,0.7,1.6,1.5,1.6c0.8,0,1.6-0.6,2.5-1.3c0.1,0.5,0.6,1,0.8,1
		c0.3,0,0.6-0.6,0.7-0.7c1.8-2,3.5-3.5,4.4-4c0.1,0,0.2-0.1,0.2-0.1c0.4,0,0.5,0.6,0.8,0.6c0.1,0,1.4-0.9,1.4-1.8
		c0-0.3-0.2-0.7-0.6-0.7c-0.6,0-2.3,1.2-3.2,2c0-0.1,0.3-0.4,0.7-0.9c0.2-0.2,0.3-0.4,0.3-0.6c0-0.3-0.4-0.9-0.7-0.9
		c-0.1,0-0.2,0-0.2,0.1c-1.3,1.4-2.3,2.5-3.4,3.7c-0.2,0.2-0.4,0.4-0.5,0.6c-1.1,0.9-2.4,1.7-2.7,1.7c-0.2,0-0.2-0.2-0.2-0.3
		c0-0.6,2.4-2.7,3.4-3.6c0.1-0.1,0.1-0.2,0.1-0.3c0-0.4-0.9-1.2-1.3-1.2c0,0-0.1,0-0.1,0c-1.6,0.8-3.2,1.9-3.4,1.9
		c0.1-0.2,0.8-0.9,0.8-1.2c0-0.3-0.5-1-0.7-1c0,0-0.1,0-0.2,0.1c-0.6,0.8-1.2,1.5-1.9,2.1C91.7,9.4,90.8,9.8,90,10
		c-1.5,0.6-7.5,2.4-9.5,2.4c-0.4,0-0.7-0.2-0.8-0.4c0.5-0.1,1.1-0.1,1.6-0.1c0,0-0.7-0.1-1.7-0.2c0,0,0-0.1,0-0.1c0-1.3,3.2-4,10-4
		c0.4,0,0.9,0,1.3,0c0.2,0,0.3-0.2,0.5-0.6c0.2-0.5,0.4-1,0.4-1.4c0-0.3-0.4-0.3-0.7-0.3c-2.1,0-5.9-0.1-5.9-1
		c0-1.2,7.1-2.4,8.2-2.4c0.2,0,0.4,0.1,0.4,0.3c0,0.2-0.6,0.8-0.7,0.8C93,3,93,3,93,2.8c0,0,0-0.1,0-0.2c0,0,0-0.1,0-0.1
		c-0.2,0-1.7,0.8-1.7,1.2c0,0.3,0.3,0.9,0.5,0.9c0.4,0,1-0.2,3.3-1.2c0.4-0.2,0.5-0.4,0.5-1.1c0-0.6-0.2-1.2-0.6-1.4
		c-0.6-0.4-1.7-0.4-2.5-0.4c-1.9,0-3.2,0.1-4.5,0.3c-1.7,0.3-3.2,1-3.2,2.5c0,1.2,0,1.8,0.5,2.3c-2.3,0.4-6.9,2-6.9,4.4
		c0,0.3,0.1,0.9,0.3,1.4c-3-0.2-7.4-0.2-9.9,1.5c0,0-2-3.9-3.8-6.1c0,0,2.5,5.8,2.2,9.2c0,0,4-3,11.7-4c0.3,0.6,0.7,1.2,1.2,1.5
		c-7.5,4.8-15.7,14-16.1,14.4l-0.4,0.3l7,2.9L54.1,38L49,21.6l7.4,3.9c0,0,1-14.4,4.7-21.8l-0.4-0.2c-1,2-1.8,4.2-2.6,6.5
		c0,0,0,0,0,0c-11.7,0-21.1,9.5-21.1,21.1c0,11.7,9.5,21.1,21.1,21.1c11.7,0,21.1-9.5,21.1-21.1c0-4.7-1.6-9.1-4.2-12.6
		c1.7-1.7,3.6-3.2,5.4-4.4C80.5,14,80.6,14.1,80.8,14.1z M58,49.2C48,49.2,39.9,41,39.9,31c0-9.7,7.7-17.6,17.2-18.1
		c-1.2,4.3-2,8.3-2.4,10.2l-6.7-2.8l4.4,22.3l21.1-11l-7.4-3.2c1.2-1.5,3.7-4.6,6.7-7.8c2.1,3,3.4,6.6,3.4,10.5
		C76.2,41,68,49.2,58,49.2z"/>
	<path fill="#FFFFFF" d="M106.5,13.5c0.2,0.2,0.5,0.2,0.8,0.2c1.6,0,3.7-2,4.3-3.4c0.1-0.3,0.1-0.6,0.1-0.9c0-0.5-0.1-1.1-0.6-1.2
		c0.1,0,0.2,0,0.3,0c0.2,0,0.3,0,0.3-0.1c0-0.1-0.2-0.6-0.5-1c-0.4-0.5-0.6-0.7-1-0.7c-0.3,0-0.7,0-1.1,0.3
		c-1.7,0.8-4.2,2.5-4.2,4.2C104.9,11.9,106.1,13.1,106.5,13.5z M110.4,8.3c-0.3,0.3-0.5,0.7-0.5,0.9c0,0.3,0.1,0.5,0.1,0.6
		c0,0.2-0.5,0.9-1.2,1.4c-0.3,0.2-1.6,1.1-2.1,1.1c-0.2,0-0.4-0.2-0.4-0.4C106.3,10.9,108.5,9,110.4,8.3z"/>
	<path fill="#FFFFFF" d="M114,13.9c1.4,0,3.2-1.2,4.4-2.2c0,1.2,0.9,2.2,2,2.2c1.1,0,2.4-0.7,3.4-1.4c0.2,0.4,0.5,0.9,0.6,1
		c0.1,0.1,0.1,0.1,0.1,0.1c0,0,0.1,0,0.2-0.1c2.2-2.4,3.4-3.4,4.6-4.1c0.1,0,0.1-0.1,0.1-0.1c0,0,0,0,0,0s0,0.1-0.1,0.1
		c-1.7,1.8-2.1,2.3-2.1,2.6s0.5,1.4,0.9,1.4c0,0,0.1,0,0.2-0.1c1.1-1.4,2.3-2.7,3.4-3.5c0,0,0.1,0,0.1,0c0,0,0.1,0,0.1,0.1
		c0,0,0,0.1-0.1,0.1c-0.5,0.6-1.4,1.3-1.4,2.2c0,0.7,0.5,1.1,0.9,1.3c0.2,0.1,0.4,0.1,0.5,0.1c1,0,2.6-1.1,3.6-2
		c0.1,0.7,1.5,2.2,2.1,2.2c1.1,0,2.2-0.6,3.2-1.3c0.2,0.4,0.5,0.9,0.8,1c0.1,0,0.1,0.1,0.2,0.1c0.1,0,0.1,0,0.2-0.2
		c1.2-1.4,2.9-3,4-3.7c0,0,0.1-0.1,0.2-0.1c0,0,0,0,0,0c0,0,0,0.1-0.1,0.1c-0.6,0.6-1.4,1.5-1.4,2.3c0,0.9,0.7,1.6,1.5,1.6
		c0.8,0,1.8-0.7,2.8-1.5c0.1-0.1,0.1-0.1,0.2-0.1c0.1,0.6,0.8,1.7,1.5,1.7c0.6,0,1.4-0.4,1.9-0.8c2.2-1.6,2.8-2.4,2.8-2.6
		c0-0.2-0.2-0.4-0.3-0.4c-0.2,0-0.3,0.1-0.4,0.2c-1.9,1.8-2.9,2.1-3.3,2.1c-0.2,0-0.3-0.1-0.3-0.2c0-0.7,2.4-3.1,4.4-5
		c1.5-0.1,3-0.3,3-0.6c0-0.2-0.1-0.4-0.3-0.7c-0.2-0.3-0.5-0.4-0.9-0.4c0.4-0.4,0.7-0.6,0.7-0.7c0,0,0-0.1,0-0.1
		c-0.2-0.4-0.8-1.1-1-1.1c-0.1,0-0.4,0.3-2.7,2.5C153.8,6,153.2,6,152.6,6c-0.6,0-0.7-0.2-0.9-0.2c-0.1,0-0.1,0.1-0.1,0.1
		c0,0.8,0.4,1.1,1.4,1.1c-1.5,1.5-2.5,2.5-3.1,3.3c-1.2,1.2-2.9,2.2-3.3,2.2c-0.2,0-0.2-0.2-0.2-0.3c0-0.6,2.4-2.7,3.4-3.6
		c0.1-0.1,0.1-0.2,0.1-0.3c0-0.4-0.9-1.2-1.3-1.2c0,0-0.1,0-0.1,0c-1.6,0.8-3.2,1.9-3.4,1.9c0.1-0.2,0.8-0.9,0.8-1.2
		c0-0.3-0.5-1-0.7-1c0,0-0.1,0-0.2,0.1c-1.2,1.5-2.1,2.4-3.6,3.9c-0.7,0.5-1.7,1-3.1,1.5c-0.2,0.1-0.5,0.2-0.8,0.2
		c-0.5,0-0.6-0.3-0.6-0.6c0-0.3,0.2-0.7,0.5-1.2c0.3,0.4,0.8,0.6,1.1,0.6c1.2,0,3.7-2.2,3.7-3.7c0-0.2,0-0.5-0.6-1
		c-0.4-0.4-0.8-0.8-1.1-0.8c-0.6,0-1.5,0.5-2.8,1.7c-0.8,0.8-1.6,1.6-2,2.5c0,0-0.1,0.1-0.1,0.1c-1,0.9-2.6,2.2-3.2,2.2
		c-0.2,0-0.3-0.1-0.3-0.2c0-0.1,0-0.2,0.1-0.3c1.2-1.3,2.5-2.3,3.8-3.3c0.1,0,0.1-0.1,0.1-0.2c0-0.5-0.7-1.1-1.1-1.1
		c-0.2,0-1.7,0.6-3.1,1.4c-0.1,0-0.1,0.1-0.1,0.1c0,0,0,0,0,0c0,0,0-0.1,0.1-0.2c0.2-0.2,0.3-0.5,0.3-0.7c0-0.4-0.6-0.8-1-0.8
		c-0.7,0-1.8,1-2.5,1.5c0.3-0.4,0.3-0.7,0.3-0.8c0-0.2-0.5-1-0.8-1c-0.1,0-0.2,0.1-0.4,0.3c-1,1.3-2.2,2.5-3.1,3.4
		c-1.3,1.1-3.2,2.4-4.3,2.4c-0.3,0-0.5-0.1-0.5-0.5c0-0.7,0.5-1.6,1.2-2.5c0.2,0.3,0.3,0.4,0.6,0.4c0.7,0,5.9-3.7,7.6-5.7
		c0.3-0.3,0.5-0.6,0.5-1.1c0-0.7-1-1.6-2-1.6c-0.7,0-1.9,0.8-2.7,1.4c-2.3,1.6-5.4,4.7-6.5,7c-1.3,1.1-3.4,2.7-4.6,2.7
		c-0.3,0-0.5-0.1-0.5-0.5c0-0.7,0.5-1.6,1.2-2.5c0.2,0.3,0.3,0.4,0.6,0.4c0.7,0,5.9-3.7,7.6-5.7c0.3-0.3,0.5-0.6,0.5-1.1
		c0-0.7-1-1.6-2-1.6c-0.7,0-1.9,0.8-2.7,1.4c-2.8,2-6.8,6.1-6.8,8.4C112,12.9,112.9,13.9,114,13.9z M140.7,7.8
		c0.1,0,0.2-0.1,0.3-0.1c0.1,0,0.2,0,0.2,0.2c0,0.5-2,2.8-2.9,2.8c-0.1,0-0.2,0-0.4-0.2C138.7,9.5,139.7,8.5,140.7,7.8z M128.1,3.3
		c0.2,0,0.2,0.1,0.2,0.3c0,0.8-6.1,5.6-6.5,5.6c-0.1,0-0.1,0-0.1-0.1C124.1,6.4,127.9,3.3,128.1,3.3z M121.8,3.3
		c0.2,0,0.2,0.1,0.2,0.3c0,0.8-6.1,5.6-6.5,5.6c-0.1,0-0.1,0-0.1-0.1C117.8,6.4,121.6,3.3,121.8,3.3z"/>
	<path fill="#FFFFFF" d="M31.8,19.4c-1.8-0.9-3.2-1.1-8.8-1.1H10.5c2-2.5,5.2-6.3,9.2-10.6c0.6-0.6,1.5-1.3,1.5-1.6
		c0-0.4-0.9-1.4-1.2-1.6c0.6-0.5,1-1.1,1-1.7c0-0.6-0.3-0.9-0.6-1.2C19.8,0.8,19.5,0,18.2,0c-2,0-4.3,1.4-5.8,2.3
		C9.6,4.1,6,7.6,6,10.5c0,2,1.5,3.5,2.9,3.5c1.3,0,2.7-0.9,4.6-2.4c-1.9,2-5.1,4.8-6.4,6.8H1.6v26.7h8.5v-6.6h13.7
		c4.3,0,6.3-0.2,7.8-0.9c2.8-1.3,3.9-3.9,3.9-9.5C35.4,23.1,34.4,20.7,31.8,19.4z M8.1,12.3c-0.6,0-0.8-0.2-0.8-0.8
		c0-2.7,8.1-9.5,11.9-9.5c0.3,0,0.5,0.2,0.5,0.5c0,1.2-4.7,3.8-5.7,4.1c-0.1,0-0.2,0.1-0.4,0.1c-0.2,0-0.2,0.1-0.2,0.3
		c0,0.3,0.3,0.6,0.7,0.6c0.4,0,3.2-1.1,5.1-2.4C16.2,8.2,10.8,12.3,8.1,12.3z M22.5,31.9H10.1v-7.2h12.4c3.7,0,4.5,0.7,4.5,3.9
		C27,31.2,26,31.9,22.5,31.9z"/>
	<path fill="#FFFFFF" d="M116.2,27.1c0-4.2-1.1-6.6-3.4-7.8c-1.6-0.8-3.6-1-7.8-1H80.9v26.7h8.5v-6.7h13.1c2.3,0,3,0.1,3.7,0.5
		c0.8,0.5,1.1,1.4,1.1,2.9v3.3h8.7v-4.2c0-2-0.2-3-0.8-4c-0.8-1.3-2-1.7-5.2-1.9l-1.4-0.1c3.4-0.5,4.4-0.7,5.4-1.4
		C115.4,32.3,116.2,30.2,116.2,27.1z M102.7,31.7H89.4v-6.9H103c2.6,0,3.2,0.1,3.9,0.8c0.5,0.6,0.7,1.3,0.7,3.2
		C107.6,31.2,106.8,31.7,102.7,31.7z"/>
	<polygon fill="#FFFFFF" points="151,18.3 117.6,18.3 117.6,24.9 130,24.9 130,44.9 138.6,44.9 138.6,24.9 151,24.9 	"/>
	<path fill="#FFFFFF" d="M157.8,18.3l-15.8,26.7h9.7l2.7-4.8h18.1l2.8,4.8h9.3l-15.3-26.7H157.8z M157.5,34.6l6-10.6l6,10.6H157.5z"
		/>
	<polygon fill="#FFFFFF" points="194.3,18.3 185.8,18.3 185.8,44.9 213.6,44.9 213.6,38.3 194.3,38.3 	"/>
	<path fill="#FFFFFF" d="M272.6,39c-0.2,0-0.8,0.1-2.3,0.1c-1.5,0-2.4-0.1-2.6-0.1c-0.1,0-0.1,0-0.1,0.1v0.4c0,0.1,0,0.2,0.1,0.2
		h0.8c0.5,0,0.7,0.2,0.7,0.8v1.3c0,0.9,0,1.5-0.4,1.7c-0.6,0.3-1.3,0.3-2.5,0.3c-1.8,0-3.1-1.1-4.6-2.4c-0.2-0.2-0.4-0.1-0.4,0
		c-0.1,0.1-0.3,0.7-0.4,0.9c-0.1,0.2-0.1,0.3,0.1,0.5c1.3,1.4,3.4,2,5.1,2c2.2,0,3.7-0.4,5.2-1.2c0.2-0.1,0.3-0.1,0.3-0.3
		s-0.1-0.3-0.1-0.6v-2.4c0-0.5,0.2-0.7,0.5-0.7h0.6c0.1,0,0.1,0,0.1-0.1v-0.5C272.8,39,272.7,39,272.6,39z"/>
	<path fill="#FFFFFF" d="M266.7,32.2c1.4,0,2.4,0.6,3,1.3c0.7,0.8,1.2,1.8,1.5,2.5c0,0.1,0.1,0.2,0.2,0.1l0.4-0.1
		c0.1,0,0.1-0.1,0.1-0.3l-0.2-3.7c0-0.1,0-0.3-0.2-0.3c-0.1,0-0.2,0.1-0.3,0.2l-0.2,0.3c-0.1,0.1-0.2,0.2-0.4,0c-0.6-0.4-2-1-3.7-1
		c-3.4,0-5.8,0.7-7.4,5.6L258,41l-2.3-5.1c0,0-1-2.3-1.4-2.3c-0.4,0-1.4,2.1-1.4,2.1s-2.5,5.3-2.6,5.7l0,0l-2.8-8.4
		c-0.1-0.4,0.1-0.6,0.4-0.6h0.3c0.1,0,0.2-0.1,0.2-0.1v-0.5c0-0.1,0-0.1-0.1-0.1c-0.1,0-1,0-1.8,0c-0.1,0-0.2,0.3-0.4,0.6
		c-0.6,1.2-3.2,7.1-3.4,7.5h-0.1l-3.3-7.7c-0.1-0.2-0.2-0.4-0.5-0.4c-0.3,0-0.4,0.3-0.5,0.5c-0.4,0.9-4.1,11.1-4.3,11.6
		c-0.2,0.4-0.5,0.6-0.8,0.6h-0.4c-0.1,0-0.1,0.1-0.1,0.1v0.5c0,0.1,0,0.1,0.1,0.1c0.1,0,0.7-0.1,1.7-0.1c1.1,0,1.8,0.1,1.9,0.1
		c0.1,0,0.1-0.1,0.1-0.1v-0.4c0-0.1,0-0.1-0.1-0.1h-0.5c-0.4,0-0.6-0.3-0.6-0.5c0-1,2.1-7,2.6-8.6h0.1l2.6,6.5c0,0,0.6,1.4,1,1.4
		c0.6,0,1.4-2,1.4-2s2.5-5.5,2.6-5.9l0,0l2.8,8.4c0.1,0.4-0.1,0.6-0.4,0.6h-0.3c-0.1,0-0.2,0.1-0.2,0.1v0.5c0,0.1,0,0.1,0.1,0.1
		c0.1,0,0.6,0,1.5,0c0.1,0,0.3-0.1,0.3-0.2c0.1-0.1,0.1-0.2,0.2-0.2c0.1-0.2,3.3-7,3.5-7.5h0.1l3.3,7.5c0.1,0.2,0.2,0.4,0.5,0.4
		c1,0,1.3-0.4,1.7-1.5c0.2-0.6,1.4-3.9,2.5-6.8C262.7,33.2,264.7,32.2,266.7,32.2z"/>
	<path fill="#FFFFFF" d="M223.5,40.4c0-0.4-0.3-0.7-0.7-1.1c-0.3-0.3-0.8-0.6-1.4-0.6c2.5-2.5,4.5-3.8,5.1-4.6
		c0.1-0.1,0.1-0.2,0.1-0.2c0-0.4-0.8-1.3-1-1.3c-0.1,0-0.3,0.1-0.4,0.2c-0.9,0.8-1.9,1.6-4.4,4.1c-1.9,1.9-3.1,3-3.9,4.5
		c-0.3,0.5-0.7,1.2-0.7,1.9c0,0.3,0,0.6,0.6,1.2c0.7,0.7,1.1,1.2,1.8,1.2c1.7,0,4.1-3.1,4.7-4.5C223.4,40.9,223.5,40.6,223.5,40.4z
		 M219.3,43.4c-0.5,0.4-0.8,0.6-1.1,0.6c-0.2,0-0.2-0.2-0.2-0.3c0-0.9,2.7-4.2,3.7-4.2c0.1,0,0.3,0.1,0.3,0.3
		C222,40.6,220.1,42.7,219.3,43.4z"/>
	<path fill="#FFFFFF" d="M233.1,39.9c0-0.6-0.9-1.2-1.2-1.2c-0.2,0-0.4,0.1-0.5,0.2c-3.6,2.9-5,4.3-6.6,5.2c-0.1,0-0.1,0.1-0.2,0.1
		c-0.1,0-0.2-0.1-0.2-0.2c0-0.1,0-0.1,0.1-0.2c1.4-1.5,3-2.8,4.6-4.1c0,0,0.1-0.1,0.1-0.1c0-0.2-0.8-1.2-1.5-1.2c-0.1,0-0.1,0-0.2,0
		c-2.6,2.1-4.8,3.6-4.8,5.3c0,0.3,0.2,0.8,0.3,1.1c0.4,0.7,0.7,0.9,1,0.9c0.2,0,0.6,0,2.6-1.7c0,0,0.1-0.1,0.1-0.1c0,0,0,0,0,0
		s0,0.1-0.1,0.1c-1.2,1.2-2,2-2.9,3.1c-0.7,0.8-1.5,1.8-1.5,2.8c0,0.9,0.8,1.6,1,1.6c0.1,0,0.4-0.6,0.6-0.8c2.3-3.4,4.8-6.3,7.7-9.2
		C232.3,40.7,233.1,40.1,233.1,39.9z"/>
</g>
</svg>
