<svg id="Layer_1" data-name="Layer 1" xmlns="http://www.w3.org/2000/svg" width="216.2px" height="55.5px" viewBox="0 0 216.192 55.496"><defs><style>.cls-1,.cls-5{fill:#fff;}.cls-1{stroke:#7b868c;stroke-miterlimit:10;}.cls-2{fill:#002f87;}.cls-3{fill:#7b868c;}.cls-4{fill:#231f20;}</style></defs><title>color</title><rect class="cls-1" x="0.5" y="0.559" width="215.192" height="54.438"/><path class="cls-2" d="M100.784,20.382H96.5V19.067a2.577,2.577,0,0,0-.164-1.173.6.6,0,0,0-.549-.253.7.7,0,0,0-.63.341,1.978,1.978,0,0,0-.213,1.031,2.924,2.924,0,0,0,.24,1.338,3.5,3.5,0,0,0,1.3,1.085,13.158,13.158,0,0,1,3.882,3,6.876,6.876,0,0,1,.8,3.782,6.633,6.633,0,0,1-.444,2.8,3.476,3.476,0,0,1-1.716,1.507,6.776,6.776,0,0,1-2.959.609,6.611,6.611,0,0,1-3.162-.7,3.441,3.441,0,0,1-1.716-1.787,9.169,9.169,0,0,1-.405-3.08V26.4h4.286v2.159a2.855,2.855,0,0,0,.18,1.283.7.7,0,0,0,.642.285.75.75,0,0,0,.685-.362,2.07,2.07,0,0,0,.225-1.074,3.322,3.322,0,0,0-.428-2.05A13.727,13.727,0,0,0,94.2,25.03a21.43,21.43,0,0,1-2.281-1.655,3.866,3.866,0,0,1-.925-1.426,6.258,6.258,0,0,1-.368-2.323,6.45,6.45,0,0,1,.521-2.982,3.5,3.5,0,0,1,1.682-1.474,6.7,6.7,0,0,1,2.807-.532,7.314,7.314,0,0,1,3.063.581,3.207,3.207,0,0,1,1.678,1.464,7.763,7.763,0,0,1,.411,3Z"/><path class="cls-2" d="M106.928,16.272v2.29h1.194v2.3h-1.194v7.782a4.183,4.183,0,0,0,.148,1.6q.147.163,1.233.164v2.346h-1.787a12.8,12.8,0,0,1-2.16-.126,2.3,2.3,0,0,1-1.139-.581,1.918,1.918,0,0,1-.614-1.042,18.334,18.334,0,0,1-.121-2.757V20.865h-.954v-2.3h.954v-2.29Z"/><path class="cls-2" d="M112.854,23.846H108.7V22.87a6.888,6.888,0,0,1,.389-2.6,3.623,3.623,0,0,1,1.562-1.617,7.294,7.294,0,0,1,6.435.093,3.1,3.1,0,0,1,1.371,1.951,30.83,30.83,0,0,1,.229,4.763v7.3h-4.307v-1.3a2.7,2.7,0,0,1-2.577,1.56,3.741,3.741,0,0,1-2.132-.652q-.969-.652-.97-2.856v-1.2a3.506,3.506,0,0,1,.515-2.225,7.258,7.258,0,0,1,2.554-1.381,7.315,7.315,0,0,0,2.336-1.151,3.069,3.069,0,0,0,.152-1.2,4.107,4.107,0,0,0-.168-1.486.585.585,0,0,0-.565-.346q-.452,0-.559.291a5.85,5.85,0,0,0-.11,1.507Zm1.4,2a3.288,3.288,0,0,0-1.232,1.3,5.161,5.161,0,0,0-.17,1.513A4.4,4.4,0,0,0,113,30.116a.579.579,0,0,0,.586.329.544.544,0,0,0,.543-.258,4.173,4.173,0,0,0,.125-1.353Z"/><path class="cls-2" d="M124.512,18.212l-.077,1.34a3.321,3.321,0,0,1,1.179-1.2,3.162,3.162,0,0,1,1.606-.4,3.049,3.049,0,0,1,1.864.538,2.391,2.391,0,0,1,.932,1.353,12.523,12.523,0,0,1,.207,2.724v10.2h-4.429V22.684a9.466,9.466,0,0,0-.1-1.831c-.066-.219-.248-.329-.548-.329a.549.549,0,0,0-.592.379,9.518,9.518,0,0,0-.121,2.022v9.833h-4.428V18.212Z"/><path class="cls-2" d="M141.618,15.011V32.758H137.19V31.7a4.551,4.551,0,0,1-1.338.989,3.407,3.407,0,0,1-1.468.33,2.981,2.981,0,0,1-1.787-.543,2.41,2.41,0,0,1-.971-1.255,8.973,8.973,0,0,1-.213-2.324V22.092a9.184,9.184,0,0,1,.213-2.378,2.369,2.369,0,0,1,.981-1.234,3.141,3.141,0,0,1,1.831-.532,3.622,3.622,0,0,1,2.752,1.187V15.011Zm-4.428,6.862a2.743,2.743,0,0,0-.138-1.074.545.545,0,0,0-.541-.275.556.556,0,0,0-.533.247,2.744,2.744,0,0,0-.136,1.1V29a3.315,3.315,0,0,0,.13,1.168.505.505,0,0,0,.5.279.565.565,0,0,0,.571-.313,4.848,4.848,0,0,0,.142-1.528Z"/><path class="cls-2" d="M146.94,23.846h-4.155V22.87a6.908,6.908,0,0,1,.389-2.6,3.628,3.628,0,0,1,1.562-1.617,7.294,7.294,0,0,1,6.435.093,3.1,3.1,0,0,1,1.371,1.951,30.83,30.83,0,0,1,.229,4.763v7.3h-4.307v-1.3a2.7,2.7,0,0,1-2.577,1.56,3.738,3.738,0,0,1-2.131-.652q-.97-.652-.971-2.856v-1.2a3.506,3.506,0,0,1,.515-2.225,7.265,7.265,0,0,1,2.555-1.381,7.289,7.289,0,0,0,2.335-1.151,3.063,3.063,0,0,0,.153-1.2,4.1,4.1,0,0,0-.169-1.486.585.585,0,0,0-.565-.346c-.3,0-.487.1-.559.291a5.85,5.85,0,0,0-.11,1.507Zm1.4,2a3.273,3.273,0,0,0-1.232,1.3,5.155,5.155,0,0,0-.171,1.513,4.4,4.4,0,0,0,.148,1.458.58.58,0,0,0,.586.329.543.543,0,0,0,.543-.258,4.161,4.161,0,0,0,.126-1.353Z"/><path class="cls-2" d="M158.522,18.212l-.174,1.912a3.292,3.292,0,0,1,2.8-2.176v5.12a3.7,3.7,0,0,0-1.787.329,1.385,1.385,0,0,0-.7.915,16.476,16.476,0,0,0-.132,2.7v5.744H154.1V18.212Z"/><path class="cls-2" d="M172,15.011V32.758h-4.429V31.7a4.548,4.548,0,0,1-1.337.989,3.411,3.411,0,0,1-1.469.33,2.983,2.983,0,0,1-1.787-.543,2.413,2.413,0,0,1-.97-1.255A8.973,8.973,0,0,1,161.8,28.9V22.092a9.184,9.184,0,0,1,.213-2.378,2.364,2.364,0,0,1,.981-1.234,3.137,3.137,0,0,1,1.831-.532,3.622,3.622,0,0,1,2.751,1.187V15.011Zm-4.429,6.862a2.743,2.743,0,0,0-.138-1.074.545.545,0,0,0-.541-.275.555.555,0,0,0-.532.247,2.744,2.744,0,0,0-.136,1.1V29a3.29,3.29,0,0,0,.13,1.168.5.5,0,0,0,.5.279.564.564,0,0,0,.571-.313,4.817,4.817,0,0,0,.142-1.528Z"/><path class="cls-3" d="M181.867,15.011v14.2h2.807v3.552h-7.422V15.011Z"/><path class="cls-3" d="M190,15.011v2.313h-4.559V15.011Zm0,3.2V32.758h-4.559V18.212Z"/><path class="cls-3" d="M197.029,15.011v2.247a5.478,5.478,0,0,0-1.617.126c-.164.084-.247.323-.247.718v.46h1.864v2.3h-1.052V32.758h-4.429V20.865h-.91v-2.3h.91a11.887,11.887,0,0,1,.1-1.918,1.651,1.651,0,0,1,.488-.86,2.508,2.508,0,0,1,1.092-.576,8.725,8.725,0,0,1,2.18-.2Z"/><path class="cls-3" d="M207.677,25.742h-5.732v3.146a3.522,3.522,0,0,0,.142,1.272.554.554,0,0,0,.548.285.663.663,0,0,0,.674-.378,4.122,4.122,0,0,0,.17-1.463V26.685h4.2v1.074a9.572,9.572,0,0,1-.17,2.072,4.19,4.19,0,0,1-.794,1.546,3.862,3.862,0,0,1-1.584,1.233,6.129,6.129,0,0,1-2.406.411,6.969,6.969,0,0,1-2.477-.406,3.965,3.965,0,0,1-1.672-1.112,4.021,4.021,0,0,1-.828-1.557,10.13,10.13,0,0,1-.229-2.472V23.232a7.237,7.237,0,0,1,.514-3.009,3.542,3.542,0,0,1,1.688-1.688,5.956,5.956,0,0,1,2.7-.587,6.037,6.037,0,0,1,3.075.707,3.893,3.893,0,0,1,1.7,1.875,8.838,8.838,0,0,1,.486,3.283Zm-4.439-2.367V22.311a5.33,5.33,0,0,0-.121-1.458.476.476,0,0,0-.493-.329c-.306,0-.5.093-.569.28a5.768,5.768,0,0,0-.11,1.507v1.064Z"/><path class="cls-4" d="M92.932,38.476l-.343,1.169h-.458l1.236-4.016h.5l1.189,4.016h-.484l-.325-1.169Zm1.158-.481-.485-1.768H93.6l-.527,1.768Z"/><path class="cls-4" d="M98.618,35.629h.431v4.016h-.5L96.879,36.4H96.87v3.244h-.43V35.629h.526l1.644,3.244h.008Z"/><path class="cls-4" d="M100.74,35.629h1.331c.855,0,1.381.794,1.381,1.952,0,.9-.319,2.064-1.4,2.064H100.74Zm.443,3.552h.86c.577,0,.952-.554.952-1.566s-.38-1.522-.983-1.522h-.829Z"/><path class="cls-4" d="M107.5,38.476l-.343,1.169H106.7l1.237-4.016h.5l1.189,4.016h-.485l-.324-1.169Zm1.157-.481-.484-1.768h-.01l-.526,1.768Z"/><path class="cls-4" d="M113.317,36.837A.887.887,0,0,0,112.4,36c-.6,0-1.076.537-1.076,1.594,0,.945.275,1.672,1.09,1.672.288,0,.787-.168.938-1.1h.43c-.183,1.516-1.191,1.583-1.438,1.583-.745,0-1.477-.593-1.477-2.136,0-1.237.576-2.093,1.533-2.093a1.344,1.344,0,0,1,1.35,1.315Z"/><path class="cls-4" d="M117.593,36.837a.886.886,0,0,0-.918-.833c-.6,0-1.076.537-1.076,1.594,0,.945.274,1.672,1.089,1.672.289,0,.787-.168.938-1.1h.43c-.183,1.516-1.19,1.583-1.437,1.583-.746,0-1.478-.593-1.478-2.136,0-1.237.577-2.093,1.534-2.093a1.344,1.344,0,0,1,1.349,1.315Z"/><path class="cls-4" d="M120.078,39.645h-.443V35.629h.443Z"/><path class="cls-4" d="M121.833,35.629h1.331c.855,0,1.382.794,1.382,1.952,0,.9-.32,2.064-1.4,2.064h-1.313Zm.443,3.552h.86c.577,0,.952-.554.952-1.566s-.38-1.522-.983-1.522h-.829Z"/><path class="cls-4" d="M128.557,39.645h-2.426V35.629h2.394v.481h-1.95v1.23h1.8v.482h-1.8v1.342h1.982Z"/><path class="cls-4" d="M132.289,35.629h.431v4.016h-.5L130.55,36.4h-.009v3.244h-.431V35.629h.527l1.643,3.244h.009Z"/><path class="cls-4" d="M134.1,35.629h2.668v.481H135.66v3.535h-.444V36.11H134.1Z"/><path class="cls-4" d="M140.836,39.645h-.444V35.629h.444Z"/><path class="cls-4" d="M144.745,35.629h.431v4.016h-.5l-1.67-3.244H143v3.244h-.431V35.629h.527l1.643,3.244h.009Z"/><path class="cls-4" d="M148.825,36.8a.77.77,0,0,0-.815-.816.666.666,0,0,0-.75.7.476.476,0,0,0,.389.509l.938.263a1,1,0,0,1,.745,1.074,1.162,1.162,0,0,1-1.285,1.213,1.174,1.174,0,0,1-.994-.386,1.393,1.393,0,0,1-.333-1.018h.416a.846.846,0,0,0,.906.94c.32,0,.86-.1.86-.677,0-.419-.16-.554-.7-.71l-.673-.191a.9.9,0,0,1-.7-.945,1.12,1.12,0,0,1,1.131-1.242,1.167,1.167,0,0,1,1.281,1.281Z"/><path class="cls-4" d="M153.467,35.629v2.606a1.334,1.334,0,0,1-1.323,1.516,1.275,1.275,0,0,1-1.263-1.442v-2.68h.444v2.528c0,.873.435,1.113.834,1.113s.864-.229.864-1.1V35.629Z"/><path class="cls-4" d="M155.644,39.645H155.2V35.629h1.519a.971.971,0,0,1,1.082,1.08,1.027,1.027,0,0,1-.459.961c.188.1.376.2.393.755l.029.728c0,.223.026.307.164.4v.09h-.545a6.107,6.107,0,0,1-.078-1.007c0-.329-.055-.716-.586-.716h-1.075Zm0-2.187h1.029c.326,0,.669-.1.669-.694,0-.62-.37-.671-.59-.671h-1.108Z"/><path class="cls-4" d="M159.939,38.476l-.343,1.169h-.458l1.236-4.016h.5l1.19,4.016h-.486l-.324-1.169Zm1.157-.481-.485-1.768H160.6l-.525,1.768Z"/><path class="cls-4" d="M165.625,35.629h.431v4.016h-.5l-1.67-3.244h-.009v3.244h-.43V35.629h.526l1.644,3.244h.008Z"/><path class="cls-4" d="M170.029,36.837A.887.887,0,0,0,169.11,36c-.6,0-1.076.537-1.076,1.594,0,.945.275,1.672,1.09,1.672.288,0,.787-.168.938-1.1h.43c-.183,1.516-1.191,1.583-1.438,1.583-.745,0-1.478-.593-1.478-2.136,0-1.237.577-2.093,1.534-2.093a1.343,1.343,0,0,1,1.349,1.315Z"/><path class="cls-4" d="M174.472,39.645h-2.425V35.629h2.393v.481h-1.95v1.23h1.8v.482h-1.8v1.342h1.982Z"/><path class="cls-4" d="M180.576,36.837a.887.887,0,0,0-.919-.833c-.6,0-1.077.537-1.077,1.594,0,.945.275,1.672,1.09,1.672.289,0,.787-.168.938-1.1h.431c-.184,1.516-1.191,1.583-1.438,1.583-.746,0-1.478-.593-1.478-2.136,0-1.237.577-2.093,1.534-2.093a1.344,1.344,0,0,1,1.349,1.315Z"/><path class="cls-4" d="M183.978,39.751c-1.227,0-1.6-1.247-1.6-2.114s.374-2.115,1.6-2.115,1.6,1.248,1.6,2.115S185.205,39.751,183.978,39.751Zm0-3.747c-.713,0-1.144.688-1.144,1.633s.431,1.633,1.144,1.633,1.145-.688,1.145-1.633S184.692,36,183.978,36Z"/><path class="cls-4" d="M189.785,39.645V37.273c0-.117.009-.626.009-1h-.009l-.925,3.373h-.439l-.924-3.367h-.011c0,.369.011.878.011,1v2.372h-.431V35.629h.636l.938,3.4h.009l.933-3.4h.632v4.016Z"/><path class="cls-4" d="M192.354,39.645h-.443V35.629h1.477a1,1,0,0,1,.975,1.13c0,.559-.26,1.192-.975,1.192h-1.034Zm0-2.159h.883c.4,0,.669-.179.669-.722a.585.585,0,0,0-.649-.671h-.9Z"/><path class="cls-4" d="M196.072,38.476l-.344,1.169h-.458l1.236-4.016h.5l1.19,4.016h-.486l-.324-1.169Zm1.156-.481-.483-1.768h-.011l-.525,1.768Z"/><path class="cls-4" d="M201.757,35.629h.431v4.016h-.5l-1.67-3.244h-.009v3.244h-.43V35.629h.526l1.644,3.244h.008Z"/><path class="cls-4" d="M205.257,39.645h-.444V38.028l-1.241-2.4h.518l.942,1.93.944-1.93h.521l-1.24,2.4Z"/><rect class="cls-3" x="0.057" width="82.798" height="54.957"/><path class="cls-5" d="M42.4,16.926c.082.132.493.9.624,1.042s.264.165.4-.05.6-1.058.707-1.215a.243.243,0,0,1,.37-.066,5.383,5.383,0,0,0,.774.578c.206.091.321.05.353-.149s.2-1.24.223-1.446.057-.3.238-.29a6.545,6.545,0,0,0,1.144-.066c.321-.074.239-.223.1-.422s-.889-1.124-1.078-1.313l-.121-.109a.869.869,0,0,1-.227-.9,4.029,4.029,0,0,1,1.37-2.1A3.987,3.987,0,0,1,49.435,9.6l.1-.013a3.373,3.373,0,0,1,.54-.022c-.266-.69-.616-.83-.93-.9a5.826,5.826,0,0,0-.911-.084,2.879,2.879,0,0,1-.405-.03.938.938,0,0,1-.46-.3,1.062,1.062,0,0,0-.08-.076,3.416,3.416,0,0,0-2.561-.4,7.451,7.451,0,0,0-3.237,1.882l-.112.091c-1.128.915-2.409,2.1-2.671,2.356a2.56,2.56,0,0,1-.734.521c-.512.238-1.146.494-1.385.651s-.411.331-.313.414,1.136.545,1.235.6.18.178.025.29a10.766,10.766,0,0,0-1.2,1.124c-.156.223-.247.315.016.347s1.424.116,1.638.141.263.083.3.281a8.907,8.907,0,0,0,.247,1.083c.082.207.148.29.313.166s.995-.91,1.151-1,.313-.041.346.116a7.452,7.452,0,0,0,.379,1.182c.115.191.263.24.4.067s.756-1.009.921-1.175S42.315,16.794,42.4,16.926Zm1.684-7.665a3.256,3.256,0,0,1,2.084-.452,1.058,1.058,0,0,1,.378.083c.049.053.025.144-.082.148-.142.006-.3-.033-.351.116s-.061.542-.384.651A.724.724,0,0,1,45,9.636a.839.839,0,0,0-.642-.133c-.219.006-.378.023-.422-.022S43.933,9.349,44.082,9.261Z"/><path class="cls-5" d="M35.092,22.957a18.109,18.109,0,0,1,1.343-5.943.338.338,0,0,0-.032-.386c-.082-.094-.368-.1-.609-.06a9.37,9.37,0,0,1-3.028.088A26.766,26.766,0,0,1,28.2,15.074a14.545,14.545,0,0,1-2.9-1.726c-.231-.237.006-.513.23-.546l2.3-.225a1.639,1.639,0,0,1,.922.148c.28.157,3.119,1.993,3.76,2.332a2.293,2.293,0,0,0,1.309.389h1.736a.33.33,0,0,0,.241-.152c.1-.149.4-.513.466-.606s.049-.2-.1-.309a1.136,1.136,0,0,0-.559-.237c-.338-.027-1.958-.026-1.958-.026a1.425,1.425,0,0,1-.815-.341c-.282-.2-3.256-2.182-3.465-2.321a.967.967,0,0,0-.651-.15c-.257.02-5.593.745-7.627,1.023a1.727,1.727,0,0,0-.761.46c-.236.211-8.017,7.939-12.1,12-.187.225-.287.386-.262.583a3.129,3.129,0,0,0,.205.9c.063.116.554-.135.775-.219a5.566,5.566,0,0,0,1.322-.723c.242-.217,6.557-6.734,8.881-9.138.119-.108.242-.1.241.051l-.055,1.047c0,.2.038.325.285.3s.867-.121.867-.121c.115-.022.208,0,.093.159l-5.315,7.426a1.165,1.165,0,0,1-.455.392c-.209.105-1.476.694-1.794.8s-.515.143-.62.038a1.008,1.008,0,0,1-.225-.474c-.009-.032-.235-1.03-.235-1.047s-.017-.149-.11-.138-.235.192-.235.192-.25.286-.519.559l.032.141c.158.623.3,1.2.835,1.437a1.611,1.611,0,0,0,1.1,0,13.52,13.52,0,0,0,1.376-.589,5.176,5.176,0,0,0,1.013-.523,2.561,2.561,0,0,0,.518-.575l.2-.283v-.01c.02.2.041.406.061.608a1.306,1.306,0,0,0,.453.806,1.509,1.509,0,0,0,1.131.274l.961-.245a2.777,2.777,0,0,0,1.451-.646,4.749,4.749,0,0,0,.392-.622l.174-.335v-.009l.236.405a2.249,2.249,0,0,0,.706.858,1.5,1.5,0,0,0,1.051.136,3.492,3.492,0,0,0,.552-.221l.8-.344c.253-.109.65-.253.764-.485l.023-.019.175.254a3.477,3.477,0,0,0,.631.815,1.619,1.619,0,0,0,.382.217,1.476,1.476,0,0,0,.947.014,2.747,2.747,0,0,0,.608-.386l.853-.6c.294.223.458.573.824.73a1.427,1.427,0,0,0,.877.038,2.487,2.487,0,0,0,.509-.26l.6-.306.41-.231a4.444,4.444,0,0,0,1.4.754,1.355,1.355,0,0,0,1.2-.433c.137-.109.248-.246.382-.354a1.7,1.7,0,0,0,.494-.614A9.983,9.983,0,0,1,35.092,22.957Zm-4.221-6.111a16.084,16.084,0,0,0,1.617.286c.074.008.111.037.1.074l-.531,2.857c-.021.046,0,.071-.086.111s-1.062.43-1.062.43a.337.337,0,0,1-.25-.061c-.062-.052-.721-.654-.721-.654a.24.24,0,0,1-.049-.231c.033-.066.848-2.754.848-2.754A.121.121,0,0,1,30.871,16.846Zm-2.464-.628c.025-.046.1-.141.177-.1a14.307,14.307,0,0,0,1.469.516c.106.025.16.095.131.182l-.959,2.89c-.04.083-.07.145-.148.178s-1.008.48-1.008.48a.359.359,0,0,1-.3-.091c-.049-.062-.646-.947-.646-.947a.337.337,0,0,1-.033-.294C27.127,18.98,28.407,16.218,28.407,16.218ZM26.44,14.994c.1.07,1.127.666,1.33.753.074.045.155.082.089.219L26.173,19.24c-.037.075-.05.116-.2.161s-1.235.348-1.235.348a.226.226,0,0,1-.23-.083c-.041-.074-.469-.959-.469-.959a.37.37,0,0,1,.021-.314c.074-.087,2.2-3.366,2.2-3.366C26.313,14.965,26.337,14.924,26.44,14.994Zm-1.217-.9c.066.054.431.347.6.467a.11.11,0,0,1,.033.157l-2.271,3.242a.5.5,0,0,1-.222.173c-.094.025-1,.327-1,.327a.213.213,0,0,1-.246-.112c-.021-.078-.14-1.145-.153-1.232a.265.265,0,0,1,.074-.227c.063-.066,3.02-2.775,3.02-2.775C25.112,14.076,25.157,14.043,25.223,14.1Zm-4.875,2.5c-.1.025-.181-.053-.136-.169s.209-1.14.262-1.211a.706.706,0,0,1,.214-.207c.091-.045,3.275-1.922,3.275-1.922.053-.029.082-.07.128-.029s.47.45.564.536c0,0,.078.075.037.108l-2.583,2.183a2.037,2.037,0,0,1-.457.24C21.43,16.209,20.348,16.6,20.348,16.6Zm-.576,8.628a.833.833,0,0,1-.384.308c-.148.066-1.618.425-1.618.425-.351.027-.527-.094-.56-.38-.043-.375-.126-1.456-.126-1.456a1.129,1.129,0,0,1,.175-.788c.171-.2,3.824-5.215,3.824-5.215.077-.094.164-.094.164.077s.077.926.077.926-.005.215.11.281a.622.622,0,0,0,.434.006c.125-.039.871-.248.871-.248s.192,0,.126.148Zm4.7-.684a.694.694,0,0,1-.318.353c-.137.049-1.41.606-1.41.606a.5.5,0,0,1-.576-.143c-.142-.2-.724-1.23-.724-1.23a.58.58,0,0,1,.039-.518c.087-.126,1.815-3.831,1.815-3.831.066-.116.154-.116.192-.033s.434.794.434.794.076.154.164.193.241-.05.461-.1,1.294-.408,1.294-.408.181,0,.143.127Zm3.774.088a.625.625,0,0,1-.247.358s-.768.53-1.02.723a.49.49,0,0,1-.658-.1s-.736-1.064-.807-1.18a.375.375,0,0,1-.01-.375s1.157-3.258,1.211-3.4.2-.171.247-.1c0,0,.472.661.565.782a.339.339,0,0,0,.406.089s.882-.456,1.075-.574c.11-.066.209-.01.187.1C29.19,20.964,28.279,24.487,28.241,24.63ZM32.1,21.062c-.017.091-.469,3.287-.5,3.469a.493.493,0,0,1-.271.347c-.132.083-.98.5-1.144.609a.364.364,0,0,1-.453,0c-.09-.1-.605-.611-.7-.744a.334.334,0,0,1-.017-.314c.025-.083.77-3.1.795-3.175s.164-.215.263-.132.424.4.519.479.164.041.287-.017,1.057-.65,1.057-.65A.113.113,0,0,1,32.1,21.062Zm2.693-.109a16.692,16.692,0,0,0-.2,1.759c-.031.621-.02,1.552-.028,1.692a.532.532,0,0,1-.156.339c-.119.112-.551.538-.732.662s-.3.082-.49-.017c0,0-.6-.339-.687-.405s-.222-.19-.2-.314L32.8,20.8c.024-.091.074-.132.133-.083s.468.323.674.5.279.091.394.042a6.8,6.8,0,0,0,.678-.483C34.79,20.68,34.815,20.829,34.79,20.953Zm.16-1.028c-.069.049-.837.461-.9.494a.312.312,0,0,1-.338-.042c-.172-.107-.78-.479-.871-.546s-.057-.173-.057-.223.361-2.27.361-2.27.02-.136.107-.124a16.15,16.15,0,0,0,2.409.035c.1,0,.07.149.07.149l-.691,2.419A.2.2,0,0,1,34.95,19.925Z"/><path class="cls-5" d="M44.483,19.5h0c-1.152,0-2.119,2.705-2.085,5.714a.865.865,0,0,0,.165.652c.107.1.37.025.518.008s.329-.008.436-.141a.963.963,0,0,1,.881-.479h.172a.964.964,0,0,1,.881.479c.107.133.288.124.436.141s.412.091.518-.008a.869.869,0,0,0,.166-.652C46.6,22.2,45.635,19.5,44.483,19.5Z"/><path class="cls-5" d="M36.054,25.213a.869.869,0,0,0,.166.652c.106.1.37.025.518.008s.329-.008.436-.141a.962.962,0,0,1,.88-.479h.173a.963.963,0,0,1,.881.479c.107.133.288.124.436.141s.411.091.518-.008a.864.864,0,0,0,.166-.652c.034-3.009-.934-5.714-2.087-5.714h0C36.989,19.5,36.02,22.2,36.054,25.213Z"/><path class="cls-5" d="M74.4,24.782C70.316,20.726,62.534,13,62.3,12.787a1.722,1.722,0,0,0-.761-.46c-2.034-.278-7.371-1-7.627-1.023a.97.97,0,0,0-.651.15c-.209.139-3.182,2.124-3.464,2.321a1.43,1.43,0,0,1-.815.341H47.754c-.115,0-.132.1,0,.23a6.142,6.142,0,0,1,.543.9c.058.141.181.215.428.207a2.72,2.72,0,0,0,1.39-.4c.641-.339,3.48-2.175,3.76-2.332a1.637,1.637,0,0,1,.921-.148l2.3.225c.225.033.46.309.23.546a14.558,14.558,0,0,1-2.9,1.726,26.784,26.784,0,0,1-4.568,1.582,9.379,9.379,0,0,1-3.029-.088c-.241-.039-.526-.034-.609.06a.34.34,0,0,0-.032.386,18.126,18.126,0,0,1,1.344,5.943,9.826,9.826,0,0,1-.157,2.153,1.845,1.845,0,0,0,.264.258c.163.132.3.3.467.429a1.3,1.3,0,0,0,1.074.391,2.179,2.179,0,0,0,.782-.33l.467-.269.217-.165c.19.1.394.21.584.321l.448.226a2.347,2.347,0,0,0,.476.245,1.433,1.433,0,0,0,.923-.047c.347-.153.509-.5.792-.716l.966.678a2.231,2.231,0,0,0,.495.306l.269.066a1.254,1.254,0,0,0,.49-.028c.586-.146.766-.471,1.065-.9l.3-.439.014-.009a1.559,1.559,0,0,0,.806.518l.8.344a3.2,3.2,0,0,0,.528.212,1.514,1.514,0,0,0,1.027-.122,2.327,2.327,0,0,0,.754-.91l.207-.358v-.009l.2.377a2.307,2.307,0,0,0,.551.749,4.01,4.01,0,0,0,1.329.5l.905.231a1.561,1.561,0,0,0,.957-.156c.5-.294.666-.779.688-1.546h.005c.067.095.135.189.2.283a2.534,2.534,0,0,0,.472.552,4.133,4.133,0,0,0,.871.475c.4.178.8.366,1.212.542a1.9,1.9,0,0,0,1.418.151c.573-.247.7-.793.872-1.446l.081-.359c-.179-.19-.315-.346-.315-.346s-.142-.181-.235-.192-.109.121-.109.138-.227,1.015-.237,1.047a1,1,0,0,1-.224.474c-.105.105-.3.072-.62-.038s-1.585-.7-1.793-.8a1.168,1.168,0,0,1-.456-.392L62.045,17.62c-.115-.159-.022-.181.093-.159,0,0,.62.093.867.121s.285-.094.285-.3l-.055-1.047c0-.154.122-.159.242-.051,2.323,2.4,8.639,8.921,8.88,9.138a5.606,5.606,0,0,0,1.322.723c.221.084.712.335.776.219a3.19,3.19,0,0,0,.2-.9C74.684,25.168,74.584,25.007,74.4,24.782ZM56.8,14.564c.165-.12.53-.413.6-.467s.111-.021.164.02c0,0,2.958,2.709,3.02,2.775a.265.265,0,0,1,.074.227c-.013.087-.131,1.154-.153,1.232a.212.212,0,0,1-.246.112s-.9-.3-1-.327a.5.5,0,0,1-.222-.173l-2.271-3.242A.11.11,0,0,1,56.8,14.564Zm-1.95,1.183c.2-.087,1.226-.683,1.329-.753s.127-.029.177.033c0,0,2.127,3.279,2.2,3.366a.369.369,0,0,1,.02.314s-.428.885-.469.959a.226.226,0,0,1-.23.083s-1.086-.3-1.234-.348-.161-.086-.2-.161l-1.688-3.274C54.7,15.829,54.78,15.792,54.854,15.747Zm-2.283.888a14.561,14.561,0,0,0,1.469-.516c.077-.042.152.053.176.1,0,0,1.28,2.762,1.312,2.815a.33.33,0,0,1-.032.294s-.6.885-.646.947a.357.357,0,0,1-.3.091s-.93-.447-1.008-.48-.107-.1-.148-.178l-.959-2.89C52.411,16.73,52.464,16.66,52.571,16.635Zm-4.984,3.182L46.9,17.4s-.028-.149.07-.149a16.15,16.15,0,0,0,2.409-.035c.087-.012.108.124.108.124s.361,2.221.361,2.27.033.157-.057.223-.7.439-.872.546a.312.312,0,0,1-.338.042c-.065-.033-.834-.445-.9-.494A.213.213,0,0,1,47.587,19.817Zm2.536,5.166c-.09.066-.687.405-.687.405-.189.1-.309.141-.49.017s-.612-.55-.732-.662a.527.527,0,0,1-.156-.339c-.008-.14,0-1.071-.027-1.692a16.881,16.881,0,0,0-.2-1.759c-.024-.124,0-.273.116-.182a6.793,6.793,0,0,0,.677.483c.115.049.189.132.4-.042s.617-.446.674-.5.107-.008.132.083l.494,3.87C50.346,24.793,50.213,24.917,50.123,24.983Zm-.09-7.777c-.009-.037.028-.066.1-.074a16.144,16.144,0,0,0,1.618-.286.123.123,0,0,1,.131.058s.815,2.688.847,2.754a.24.24,0,0,1-.049.231s-.659.6-.72.654a.34.34,0,0,1-.251.061s-.979-.388-1.061-.43-.066-.065-.087-.111ZM53.6,24.743c-.1.133-.614.645-.7.744a.364.364,0,0,1-.453,0c-.164-.107-1.012-.526-1.143-.609a.492.492,0,0,1-.272-.347c-.033-.182-.484-3.378-.5-3.469a.113.113,0,0,1,.169-.128s.933.593,1.057.65.184.1.287.017.42-.4.518-.479.24.057.264.132.769,3.092.794,3.175A.333.333,0,0,1,53.6,24.743Zm3.514-.311c-.071.116-.807,1.18-.807,1.18a.49.49,0,0,1-.658.1c-.252-.193-1.02-.723-1.02-.723a.625.625,0,0,1-.247-.358c-.038-.143-.949-3.666-.949-3.666-.022-.115.077-.171.187-.1.194.118,1.075.574,1.075.574a.338.338,0,0,0,.406-.089c.093-.121.565-.782.565-.782.05-.072.192-.039.248.1s1.211,3.4,1.211,3.4A.382.382,0,0,1,57.114,24.432Zm4.07-.3s-.581,1.031-.724,1.23a.5.5,0,0,1-.576.143s-1.273-.557-1.41-.606a.7.7,0,0,1-.318-.353l-1.514-4.19c-.038-.127.144-.127.144-.127s1.074.359,1.293.408.373.138.461.1.164-.193.164-.193.395-.711.434-.794.126-.083.193.033c0,0,1.727,3.705,1.814,3.831A.577.577,0,0,1,61.184,24.128Zm4.179-.793a1.124,1.124,0,0,1,.176.788s-.083,1.081-.127,1.456c-.032.286-.208.407-.559.38,0,0-1.47-.359-1.618-.425a.826.826,0,0,1-.383-.308L59.757,19.31c-.065-.148.127-.148.127-.148s.746.209.872.248a.62.62,0,0,0,.433-.006c.115-.066.11-.281.11-.281s.077-.755.077-.926.088-.171.165-.077C61.541,18.12,65.194,23.131,65.363,23.335ZM62.275,16.6s-1.082-.389-1.3-.471a2,2,0,0,1-.456-.24L57.931,13.7c-.041-.033.037-.108.037-.108.095-.086.5-.495.543-.536s.074,0,.128.029c0,0,3.184,1.877,3.274,1.922a.7.7,0,0,1,.214.207c.053.071.239,1.095.284,1.211S62.374,16.623,62.275,16.6Z"/><path class="cls-5" d="M47.064,26.8a4.286,4.286,0,0,0-1.326-.348A1.127,1.127,0,0,1,45.056,26a.7.7,0,0,0-.552-.269h-.018a.7.7,0,0,0-.551.269,1.134,1.134,0,0,1-.682.455,4.278,4.278,0,0,0-1.326.348c-.153.082-.428.587-.161.562a11.484,11.484,0,0,1,1.413-.172c.521.017.9.034.972.233a2.975,2.975,0,0,0,.261.655.127.127,0,0,0,.167,0,3.4,3.4,0,0,0,.26-.655c.075-.2.489-.188,1.009-.205a11.481,11.481,0,0,1,1.378.144C47.492,27.389,47.218,26.884,47.064,26.8Z"/><path class="cls-5" d="M40.7,26.8a4.269,4.269,0,0,0-1.326-.348A1.131,1.131,0,0,1,38.688,26a.7.7,0,0,0-.551-.269h-.018a.7.7,0,0,0-.552.269,1.127,1.127,0,0,1-.682.455,4.278,4.278,0,0,0-1.326.348c-.154.082-.427.587-.162.562a11.481,11.481,0,0,1,1.378-.144c.521.017.934.006,1.009.205a3.4,3.4,0,0,0,.26.655.127.127,0,0,0,.167,0,2.926,2.926,0,0,0,.261-.655c.074-.2.451-.216.972-.233a11.528,11.528,0,0,1,1.414.172C41.124,27.389,40.85,26.884,40.7,26.8Z"/><path class="cls-5" d="M63.941,39.194v6.483h3.833v1.469H62.211V39.194Z"/><path class="cls-5" d="M27.326,39.194l2.941,7.952H28.472l-.6-1.771H24.936l-.617,1.771H22.578l2.975-7.952Zm.1,4.879-.991-2.92h-.022l-1.025,2.92Z"/><path class="cls-5" d="M48.51,39.194l3.282,5.335h.022V39.194h1.619v7.952H51.7l-3.27-5.324H48.41v5.324H46.791V39.194Z"/><path class="cls-5" d="M38.577,41.549a3.985,3.985,0,0,1,.759-1.331,3.5,3.5,0,0,1,1.218-.891,4.257,4.257,0,0,1,3.253,0,3.507,3.507,0,0,1,1.212.891,3.989,3.989,0,0,1,.761,1.331,5.029,5.029,0,0,1,.263,1.655,4.86,4.86,0,0,1-.263,1.621,3.887,3.887,0,0,1-.761,1.307,3.492,3.492,0,0,1-1.212.875,4.331,4.331,0,0,1-3.253,0,3.488,3.488,0,0,1-1.218-.875,3.883,3.883,0,0,1-.759-1.307,4.835,4.835,0,0,1-.265-1.621A5,5,0,0,1,38.577,41.549Zm1.58,2.629a2.66,2.66,0,0,0,.369.853,1.888,1.888,0,0,0,.661.606,2.268,2.268,0,0,0,1.982,0,1.893,1.893,0,0,0,.66-.606,2.66,2.66,0,0,0,.369-.853,4.089,4.089,0,0,0,.116-.974A4.409,4.409,0,0,0,44.2,42.19a2.7,2.7,0,0,0-.369-.874,1.894,1.894,0,0,0-.66-.613,2.268,2.268,0,0,0-1.982,0,1.888,1.888,0,0,0-.661.613,2.7,2.7,0,0,0-.369.874,4.465,4.465,0,0,0-.116,1.014A4.141,4.141,0,0,0,40.157,44.178Z"/><path class="cls-5" d="M37.594,39.194v7.952H35.865V39.194Z"/><path class="cls-5" d="M28.72,40.663V39.194h6.444v1.469H32.806v6.483H31.077V40.663Z"/><path class="cls-5" d="M58.692,39.194l2.942,7.952h-1.8l-.595-1.771H56.3l-.618,1.771h-1.74l2.975-7.952Zm.1,4.879-.991-2.92h-.022l-1.025,2.92Z"/><path class="cls-5" d="M17.174,39.194l3.282,5.335h.023V39.194H22.1v7.952H20.369L17.1,41.822h-.022v5.324H15.456V39.194Z"/><path class="cls-5" d="M63.985,30.263,67.268,35.6h.022V30.263h1.619v7.953h-1.73l-3.271-5.324h-.022v5.324H62.267V30.263Z"/><path class="cls-5" d="M59.194,30.263l2.941,7.953h-1.8l-.594-1.771H56.8l-.618,1.771H54.447l2.973-7.953Zm.1,4.879L58.3,32.224h-.023l-1.023,2.918Z"/><path class="cls-5" d="M52.706,32.386a1.791,1.791,0,0,0-1.52-.842,2,2,0,0,0-.991.229,1.862,1.862,0,0,0-.661.613,2.659,2.659,0,0,0-.369.874,4.4,4.4,0,0,0-.115,1.013,4.083,4.083,0,0,0,.115.974,2.629,2.629,0,0,0,.369.853,1.891,1.891,0,0,0,.661.607,1.99,1.99,0,0,0,.991.228,1.585,1.585,0,0,0,1.239-.49,2.285,2.285,0,0,0,.546-1.292h1.673A4.066,4.066,0,0,1,54.3,36.5a3.23,3.23,0,0,1-.727,1.024,3.082,3.082,0,0,1-1.058.647,3.838,3.838,0,0,1-1.332.222,3.993,3.993,0,0,1-1.625-.317,3.494,3.494,0,0,1-1.217-.874,3.884,3.884,0,0,1-.76-1.309,4.864,4.864,0,0,1-.265-1.621,5.028,5.028,0,0,1,.265-1.654,3.987,3.987,0,0,1,.76-1.331,3.471,3.471,0,0,1,1.217-.89,4.123,4.123,0,0,1,2.853-.135,3.351,3.351,0,0,1,1.035.551,2.984,2.984,0,0,1,.755.9,3.227,3.227,0,0,1,.374,1.225H52.9A1.423,1.423,0,0,0,52.706,32.386Z"/><path class="cls-5" d="M46.692,30.263v7.953H44.963V30.263Z"/><path class="cls-5" d="M41.8,30.263a2.509,2.509,0,0,1,.953.173,2.226,2.226,0,0,1,.726.473,2.091,2.091,0,0,1,.462.7,2.237,2.237,0,0,1,.159.851,2.42,2.42,0,0,1-.291,1.215,1.837,1.837,0,0,1-.952.779v.023a1.3,1.3,0,0,1,.528.273,1.525,1.525,0,0,1,.341.434,2.065,2.065,0,0,1,.193.551,4.79,4.79,0,0,1,.082.6c.007.127.015.276.022.446s.021.346.039.524a3.4,3.4,0,0,0,.089.506,1.169,1.169,0,0,0,.181.407H42.608a3.127,3.127,0,0,1-.178-.9c-.021-.349-.054-.684-.1-1a1.575,1.575,0,0,0-.375-.912,1.278,1.278,0,0,0-.936-.29H39.292v3.107h-1.73V30.263Zm-.617,3.6a1.3,1.3,0,0,0,.892-.268,1.117,1.117,0,0,0,.3-.869,1.065,1.065,0,0,0-.3-.841,1.318,1.318,0,0,0-.892-.261H39.292v2.239Z"/><path class="cls-5" d="M36.857,30.263v1.47H32.705v1.705h3.811V34.8H32.705v1.949h4.241v1.47h-5.97V30.263Z"/><path class="cls-5" d="M23.97,30.263l1.84,5.469h.022l1.74-5.469h2.434v7.953H28.387V32.581h-.022l-1.927,5.635H25.1l-1.927-5.58h-.022v5.58H21.536V30.263Z"/><path class="cls-5" d="M18.462,30.263,21.4,38.216H19.608l-.595-1.771H16.072l-.617,1.771h-1.74l2.974-7.953Zm.1,4.879-.992-2.918h-.022l-1.024,2.918Z"/><path class="cls-5" d="M68.043,39.186a.876.876,0,0,1,.284.046.856.856,0,0,1,.251.134.882.882,0,0,1,.27,1.024.8.8,0,0,1-.189.277.943.943,0,0,1-.288.192.838.838,0,0,1-.659,0,.877.877,0,0,1-.285-.193.851.851,0,0,1-.188-.281.839.839,0,0,1-.066-.328.858.858,0,0,1,.048-.283.9.9,0,0,1,.14-.257.845.845,0,0,1,.3-.245A.858.858,0,0,1,68.043,39.186Zm.761.877a.77.77,0,0,0-.056-.3.724.724,0,0,0-.163-.247.781.781,0,0,0-.834-.164.7.7,0,0,0-.24.159.8.8,0,0,0-.17.25.754.754,0,0,0-.059.292.743.743,0,0,0,.222.528.765.765,0,0,0,.247.167.731.731,0,0,0,.285.059.792.792,0,0,0,.3-.057.765.765,0,0,0,.252-.165.737.737,0,0,0,.219-.525Zm-.553.019.223.449h-.211l-.2-.42h-.183v.42h-.186v-.985h.371a.57.57,0,0,1,.311.068.225.225,0,0,1,.1.2.263.263,0,0,1-.061.176A.274.274,0,0,1,68.251,40.082Zm-.215-.089a.377.377,0,0,0,.194-.037.133.133,0,0,0,.057-.12.144.144,0,0,0-.06-.129.365.365,0,0,0-.2-.041h-.152v.327Z"/><path class="cls-4" d="M92.031,47.153l1.3-3.379h.482l1.383,3.379h-.509L94.29,46.13H92.876l-.37,1.023Zm.975-1.387h1.145L93.8,44.83q-.16-.426-.239-.7a4.358,4.358,0,0,1-.182.646Z"/><path class="cls-4" d="M95.546,47.153V43.774h.459l1.775,2.653V43.774h.429v3.379H97.75L95.975,44.5v2.655Z"/><path class="cls-4" d="M99.641,47.153l1.3-3.379h.481l1.383,3.379h-.509L101.9,46.13h-1.412l-.372,1.023Zm.974-1.387h1.147l-.352-.936q-.162-.426-.241-.7a4.358,4.358,0,0,1-.182.646Z"/><path class="cls-4" d="M103.148,47.153V43.774h.673l.8,2.393c.072.222.127.389.161.5.039-.123.1-.3.179-.542l.809-2.351h.6v3.379h-.43V44.325l-.982,2.828h-.4l-.978-2.877v2.877Z"/><path class="cls-4" d="M107.1,47.153V43.774h2.443v.4h-2v1.035h1.869v.4H107.55v1.15h2.074v.4Z"/><path class="cls-4" d="M110.249,47.153V43.774h1.5a1.987,1.987,0,0,1,.686.091.748.748,0,0,1,.376.322.956.956,0,0,1,.14.509.848.848,0,0,1-.232.606,1.177,1.177,0,0,1-.719.314,1.188,1.188,0,0,1,.269.168,2.382,2.382,0,0,1,.372.449l.587.92h-.562l-.447-.7c-.132-.2-.238-.358-.322-.465a1.089,1.089,0,0,0-.228-.227.7.7,0,0,0-.2-.089,1.322,1.322,0,0,0-.249-.016H110.7v1.5Zm.447-1.888h.961a1.454,1.454,0,0,0,.48-.063.519.519,0,0,0,.263-.2.562.562,0,0,0,.09-.3.508.508,0,0,0-.174-.394.817.817,0,0,0-.551-.154H110.7Z"/><path class="cls-4" d="M113.728,47.153V43.774h.447v3.379Z"/><path class="cls-4" d="M117.374,45.968l.449.114a1.517,1.517,0,0,1-.508.84,1.386,1.386,0,0,1-.892.289,1.6,1.6,0,0,1-.889-.223,1.387,1.387,0,0,1-.52-.644,2.282,2.282,0,0,1-.179-.906,1.985,1.985,0,0,1,.2-.921,1.389,1.389,0,0,1,.574-.6,1.668,1.668,0,0,1,.819-.2,1.389,1.389,0,0,1,.854.259,1.345,1.345,0,0,1,.482.726l-.441.1a1.044,1.044,0,0,0-.342-.537.9.9,0,0,0-.562-.168,1.091,1.091,0,0,0-.65.187.983.983,0,0,0-.369.5,2.01,2.01,0,0,0-.1.649,2.059,2.059,0,0,0,.126.753.936.936,0,0,0,.39.481,1.1,1.1,0,0,0,.574.159.965.965,0,0,0,.636-.217A1.109,1.109,0,0,0,117.374,45.968Z"/><path class="cls-4" d="M118,47.153l1.3-3.379h.481l1.383,3.379h-.509l-.395-1.023h-1.412l-.372,1.023Zm.974-1.387h1.147l-.352-.936q-.162-.426-.241-.7a4.358,4.358,0,0,1-.182.646Z"/><path class="cls-4" d="M121.518,47.153V43.774h.458l1.775,2.653V43.774h.429v3.379h-.458L121.947,44.5v2.655Z"/><path class="cls-4" d="M126.239,47.153V43.774h.459l1.775,2.653V43.774h.429v3.379h-.459L126.668,44.5v2.655Z"/><path class="cls-4" d="M129.282,47.153l1.3-3.379h.48l1.383,3.379h-.508l-.4-1.023h-1.413l-.371,1.023Zm.975-1.387H131.4l-.352-.936q-.162-.426-.241-.7a4.358,4.358,0,0,1-.182.646Z"/><path class="cls-4" d="M133.311,47.153v-2.98H132.2v-.4h2.679v.4h-1.119v2.98Z"/><path class="cls-4" d="M135.412,47.153V43.774h.446v3.379Z"/><path class="cls-4" d="M136.511,45.508a1.838,1.838,0,0,1,.452-1.318,1.537,1.537,0,0,1,1.166-.476,1.628,1.628,0,0,1,.845.224,1.473,1.473,0,0,1,.572.623,2.167,2.167,0,0,1-.01,1.827,1.416,1.416,0,0,1-.589.614,1.678,1.678,0,0,1-.82.209,1.6,1.6,0,0,1-.853-.231,1.482,1.482,0,0,1-.57-.629A1.921,1.921,0,0,1,136.511,45.508Zm.461.006a1.355,1.355,0,0,0,.329.963,1.145,1.145,0,0,0,1.655,0,1.439,1.439,0,0,0,.325-1.008,1.729,1.729,0,0,0-.139-.72,1.062,1.062,0,0,0-.408-.477,1.105,1.105,0,0,0-.6-.17,1.148,1.148,0,0,0-.818.326A1.459,1.459,0,0,0,136.972,45.514Z"/><path class="cls-4" d="M140.314,47.153V43.774h.458l1.775,2.653V43.774h.429v3.379h-.458L140.743,44.5v2.655Z"/><path class="cls-4" d="M143.356,47.153l1.3-3.379h.481l1.383,3.379h-.509l-.395-1.023H144.2l-.371,1.023Zm.975-1.387h1.146l-.352-.936c-.108-.284-.187-.518-.241-.7a4.24,4.24,0,0,1-.182.646Z"/><path class="cls-4" d="M146.859,47.153V43.774h.447v2.981h1.664v.4Z"/><path class="cls-4" d="M153.051,45.968l.448.114a1.516,1.516,0,0,1-.507.84,1.388,1.388,0,0,1-.892.289,1.6,1.6,0,0,1-.889-.223,1.383,1.383,0,0,1-.521-.644,2.282,2.282,0,0,1-.179-.906,2,2,0,0,1,.2-.921,1.4,1.4,0,0,1,.574-.6,1.672,1.672,0,0,1,.82-.2,1.388,1.388,0,0,1,.853.259,1.339,1.339,0,0,1,.482.726l-.44.1a1.057,1.057,0,0,0-.342-.537.906.906,0,0,0-.562-.168,1.094,1.094,0,0,0-.651.187.981.981,0,0,0-.368.5,2.01,2.01,0,0,0-.1.649,2.059,2.059,0,0,0,.125.753.933.933,0,0,0,.391.481,1.1,1.1,0,0,0,.574.159.967.967,0,0,0,.636-.217A1.114,1.114,0,0,0,153.051,45.968Z"/><path class="cls-4" d="M153.913,45.508a1.834,1.834,0,0,1,.453-1.318,1.534,1.534,0,0,1,1.166-.476,1.621,1.621,0,0,1,.844.224,1.469,1.469,0,0,1,.573.623,2.036,2.036,0,0,1,.2.908,1.992,1.992,0,0,1-.207.919,1.411,1.411,0,0,1-.589.614,1.672,1.672,0,0,1-.819.209,1.6,1.6,0,0,1-.853-.231,1.482,1.482,0,0,1-.57-.629A1.908,1.908,0,0,1,153.913,45.508Zm.462.006a1.355,1.355,0,0,0,.328.963,1.145,1.145,0,0,0,1.655,0,1.435,1.435,0,0,0,.326-1.008,1.729,1.729,0,0,0-.139-.72,1.064,1.064,0,0,0-.409-.477,1.1,1.1,0,0,0-.6-.17,1.151,1.151,0,0,0-.818.326A1.463,1.463,0,0,0,154.375,45.514Z"/><path class="cls-4" d="M157.707,47.153V43.774h.673l.8,2.393c.072.222.127.389.161.5q.057-.185.179-.542l.809-2.351h.6v3.379h-.43V44.325l-.983,2.828h-.4l-.978-2.877v2.877Z"/><path class="cls-4" d="M161.652,47.153V43.774h1.275a3.011,3.011,0,0,1,.514.033,1.014,1.014,0,0,1,.418.157.862.862,0,0,1,.271.326,1.1,1.1,0,0,1-.172,1.191,1.316,1.316,0,0,1-.992.3H162.1v1.373Zm.449-1.772h.872a.926.926,0,0,0,.616-.162.575.575,0,0,0,.182-.454.615.615,0,0,0-.107-.363.5.5,0,0,0-.282-.2,1.921,1.921,0,0,0-.418-.03H162.1Z"/><path class="cls-4" d="M164.08,47.153l1.3-3.379h.481l1.383,3.379h-.509l-.4-1.023h-1.412l-.371,1.023Zm.974-1.387H166.2l-.352-.936q-.162-.426-.241-.7a4.358,4.358,0,0,1-.182.646Z"/><path class="cls-4" d="M167.6,47.153V43.774h.458l1.775,2.653V43.774h.429v3.379H169.8L168.025,44.5v2.655Z"/><path class="cls-4" d="M171.962,47.153V45.722l-1.3-1.948h.544l.666,1.019c.124.19.238.381.345.572q.15-.265.368-.6l.655-.993h.521l-1.349,1.948v1.431Z"/></svg>
