<?xml version="1.0" encoding="UTF-8"?>
<svg id="Layer_1" data-name="Layer 1" xmlns="http://www.w3.org/2000/svg" viewBox="0 0 153.8 54.44">
  <defs>
    <style>
      .cls-1 {
        opacity: .75;
      }

      .cls-2 {
        fill: #fff;
        stroke-width: 0px;
      }
    </style>
  </defs>
  <g class="cls-1">
    <path class="cls-2" d="M151.8,2v50.44H2V2h149.8M153.8,0H0v54.44h153.8V0h0Z"/>
  </g>
  <g>
    <g>
      <path class="cls-2" d="M21.57,23.69h-4.91v-1.51c0-.7-.06-1.15-.19-1.34-.13-.19-.33-.29-.63-.29-.32,0-.56.13-.72.39-.16.26-.24.65-.24,1.18,0,.68.09,1.19.27,1.53.18.34.67.76,1.49,1.24,2.35,1.4,3.83,2.54,4.44,3.44.61.89.92,2.34.92,4.33,0,1.45-.17,2.51-.51,3.2-.34.69-.99,1.26-1.96,1.72-.97.46-2.1.7-3.39.7-1.41,0-2.62-.27-3.62-.8-1-.53-1.65-1.22-1.96-2.04-.31-.83-.46-2-.46-3.52v-1.33h4.9v2.47c0,.76.07,1.25.21,1.47.14.22.38.33.73.33s.61-.14.78-.41.26-.69.26-1.23c0-1.2-.16-1.98-.49-2.35-.34-.37-1.16-.98-2.47-1.84-1.31-.87-2.18-1.5-2.61-1.89s-.78-.94-1.06-1.63-.42-1.58-.42-2.66c0-1.56.2-2.69.6-3.41s1.04-1.28,1.93-1.69c.89-.41,1.96-.61,3.21-.61,1.37,0,2.54.22,3.51.67s1.61,1,1.92,1.67c.31.67.47,1.82.47,3.43v.8Z"/>
      <path class="cls-2" d="M28.61,18.99v2.62h1.37v2.63h-1.37v8.91c0,1.1.06,1.71.17,1.83.11.13.58.19,1.41.19v2.68h-2.04c-1.15,0-1.98-.05-2.47-.14-.49-.1-.93-.32-1.3-.67-.38-.35-.61-.74-.7-1.19-.09-.45-.14-1.5-.14-3.16v-8.45h-1.09v-2.63h1.09v-2.62h5.08Z"/>
      <path class="cls-2" d="M35.39,27.65h-4.75v-1.12c0-1.29.15-2.28.45-2.98.3-.7.89-1.32,1.79-1.85.9-.53,2.06-.8,3.49-.8,1.71,0,3.01.3,3.88.91.87.61,1.39,1.35,1.57,2.23.17.88.26,2.7.26,5.45v8.35h-4.93v-1.48c-.31.59-.71,1.04-1.2,1.34-.49.3-1.07.45-1.75.45-.89,0-1.7-.25-2.44-.75s-1.11-1.59-1.11-3.27v-1.37c0-1.25.2-2.09.59-2.55.39-.45,1.37-.98,2.92-1.58,1.66-.65,2.55-1.09,2.67-1.32.12-.23.17-.69.17-1.38,0-.87-.06-1.44-.19-1.7-.13-.26-.35-.4-.65-.4-.34,0-.56.11-.64.33-.08.22-.13.8-.13,1.72v1.74ZM36.99,29.94c-.81.59-1.28,1.09-1.41,1.49-.13.4-.19.98-.19,1.73,0,.86.06,1.42.17,1.67s.34.38.67.38.52-.1.62-.3c.1-.2.14-.71.14-1.55v-3.42Z"/>
      <path class="cls-2" d="M48.73,21.21l-.09,1.53c.37-.61.82-1.07,1.35-1.38.53-.31,1.14-.46,1.84-.46.87,0,1.58.21,2.13.62s.91.93,1.07,1.55c.16.62.24,1.66.24,3.12v11.67h-5.07v-11.53c0-1.15-.04-1.84-.11-2.09-.08-.25-.28-.38-.63-.38s-.59.14-.68.43-.14,1.06-.14,2.31v11.25h-5.07v-16.65h5.15Z"/>
      <path class="cls-2" d="M68.3,17.54v20.31h-5.07v-1.21c-.49.5-1,.88-1.53,1.13s-1.1.38-1.68.38c-.79,0-1.47-.21-2.04-.62s-.95-.89-1.11-1.44-.24-1.43-.24-2.66v-7.79c0-1.28.08-2.19.24-2.72.16-.54.54-1.01,1.12-1.41.59-.41,1.28-.61,2.1-.61.63,0,1.2.11,1.72.34.52.23,1,.57,1.42,1.02v-4.72h5.07ZM63.23,25.4c0-.61-.05-1.02-.16-1.23-.1-.21-.31-.31-.62-.31s-.5.09-.61.28-.16.61-.16,1.26v8.15c0,.68.05,1.12.15,1.34.1.21.29.32.58.32.33,0,.54-.12.65-.36.11-.24.16-.82.16-1.75v-7.7Z"/>
      <path class="cls-2" d="M74.39,27.65h-4.75v-1.12c0-1.29.15-2.28.45-2.98.3-.7.89-1.32,1.79-1.85.9-.53,2.06-.8,3.49-.8,1.71,0,3.01.3,3.88.91.87.61,1.39,1.35,1.57,2.23.17.88.26,2.7.26,5.45v8.35h-4.93v-1.48c-.31.59-.71,1.04-1.2,1.34-.49.3-1.07.45-1.75.45-.89,0-1.7-.25-2.44-.75s-1.11-1.59-1.11-3.27v-1.37c0-1.25.2-2.09.59-2.55.39-.45,1.37-.98,2.92-1.58,1.66-.65,2.55-1.09,2.67-1.32.12-.23.17-.69.17-1.38,0-.87-.06-1.44-.19-1.7-.13-.26-.35-.4-.65-.4-.34,0-.56.11-.64.33-.08.22-.13.8-.13,1.72v1.74ZM76,29.94c-.81.59-1.28,1.09-1.41,1.49-.13.4-.19.98-.19,1.73,0,.86.06,1.42.17,1.67s.34.38.67.38.52-.1.62-.3c.1-.2.14-.71.14-1.55v-3.42Z"/>
      <path class="cls-2" d="M87.64,21.21l-.2,2.19c.74-1.57,1.8-2.4,3.2-2.49v5.86c-.93,0-1.61.13-2.04.38-.44.25-.7.6-.8,1.05-.1.45-.15,1.48-.15,3.09v6.57h-5.07v-16.65h5.07Z"/>
      <path class="cls-2" d="M103.07,17.54v20.31h-5.07v-1.21c-.49.5-1,.88-1.53,1.13s-1.1.38-1.68.38c-.79,0-1.47-.21-2.04-.62s-.95-.89-1.11-1.44-.24-1.43-.24-2.66v-7.79c0-1.28.08-2.19.24-2.72.16-.54.54-1.01,1.12-1.41.59-.41,1.28-.61,2.1-.61.63,0,1.2.11,1.72.34.52.23,1,.57,1.42,1.02v-4.72h5.07ZM98,25.4c0-.61-.05-1.02-.16-1.23-.1-.21-.31-.31-.62-.31s-.5.09-.61.28-.16.61-.16,1.26v8.15c0,.68.05,1.12.15,1.34.1.21.29.32.58.32.33,0,.54-.12.65-.36.11-.24.16-.82.16-1.75v-7.7Z"/>
      <path class="cls-2" d="M114.36,17.54v16.24h3.21v4.06h-8.49v-20.31h5.28Z"/>
      <path class="cls-2" d="M123.66,17.54v2.65h-5.22v-2.65h5.22ZM123.66,21.21v16.65h-5.22v-16.65h5.22Z"/>
      <path class="cls-2" d="M131.71,17.54v2.57c-1.05,0-1.66.05-1.85.14-.19.1-.28.37-.28.82v.53h2.13v2.63h-1.2v13.61h-5.07v-13.61h-1.04v-2.63h1.04c0-1.1.04-1.83.11-2.19.08-.37.26-.7.56-.99.3-.29.71-.51,1.25-.66.53-.15,1.37-.23,2.49-.23h1.86Z"/>
      <path class="cls-2" d="M143.89,29.82h-6.56v3.6c0,.75.05,1.24.16,1.45.11.22.32.33.63.33.39,0,.64-.14.77-.43.13-.29.19-.85.19-1.67v-2.2h4.8v1.23c0,1.03-.06,1.82-.19,2.37-.13.55-.43,1.14-.91,1.77-.48.63-1.08,1.1-1.81,1.41-.73.31-1.65.47-2.75.47s-2.02-.15-2.84-.46c-.82-.31-1.46-.73-1.91-1.27-.46-.54-.77-1.13-.95-1.78-.17-.65-.26-1.59-.26-2.83v-4.85c0-1.45.2-2.6.59-3.44s1.04-1.48,1.93-1.93c.9-.45,1.92-.67,3.09-.67,1.42,0,2.59.27,3.52.81.92.54,1.57,1.25,1.94,2.15.37.89.56,2.14.56,3.76v2.21ZM138.81,27.12v-1.22c0-.86-.05-1.42-.14-1.67-.09-.25-.28-.38-.56-.38-.35,0-.57.11-.65.32-.08.21-.13.79-.13,1.72v1.22h1.48Z"/>
    </g>
    <g>
      <path class="cls-2" d="M12.59,44.4l-.39,1.34h-.52l1.41-4.6h.58l1.36,4.6h-.55l-.37-1.34h-1.51ZM13.91,43.85l-.56-2.02h-.01l-.6,2.02h1.17Z"/>
      <path class="cls-2" d="M19.1,41.14h.49v4.6h-.57l-1.91-3.71h-.01v3.71h-.49v-4.6h.6l1.88,3.71h.01v-3.71Z"/>
      <path class="cls-2" d="M21.52,41.14h1.52c.98,0,1.58.91,1.58,2.23,0,1.03-.37,2.36-1.6,2.36h-1.5v-4.6ZM22.03,45.2h.98c.66,0,1.09-.63,1.09-1.79s-.44-1.74-1.13-1.74h-.95v3.53Z"/>
      <path class="cls-2" d="M29.26,44.4l-.39,1.34h-.52l1.42-4.6h.58l1.36,4.6h-.56l-.37-1.34h-1.51ZM30.59,43.85l-.55-2.02h-.01l-.6,2.02h1.17Z"/>
      <path class="cls-2" d="M35.92,42.52c-.14-.81-.69-.95-1.05-.95-.68,0-1.23.61-1.23,1.82,0,1.08.31,1.91,1.25,1.91.33,0,.9-.19,1.07-1.26h.49c-.21,1.73-1.36,1.81-1.65,1.81-.85,0-1.69-.68-1.69-2.45,0-1.42.66-2.39,1.76-2.39.97,0,1.47.74,1.54,1.5h-.49Z"/>
      <path class="cls-2" d="M40.81,42.52c-.14-.81-.69-.95-1.05-.95-.68,0-1.23.61-1.23,1.82,0,1.08.31,1.91,1.25,1.91.33,0,.9-.19,1.07-1.26h.49c-.21,1.73-1.36,1.81-1.65,1.81-.85,0-1.69-.68-1.69-2.45,0-1.42.66-2.39,1.76-2.39.97,0,1.47.74,1.54,1.5h-.49Z"/>
      <path class="cls-2" d="M43.65,45.73h-.51v-4.6h.51v4.6Z"/>
      <path class="cls-2" d="M45.66,41.14h1.52c.98,0,1.58.91,1.58,2.23,0,1.03-.37,2.36-1.6,2.36h-1.5v-4.6ZM46.17,45.2h.98c.66,0,1.09-.63,1.09-1.79s-.44-1.74-1.13-1.74h-.95v3.53Z"/>
      <path class="cls-2" d="M53.36,45.73h-2.78v-4.6h2.74v.55h-2.23v1.41h2.06v.55h-2.06v1.54h2.27v.55Z"/>
      <path class="cls-2" d="M57.63,41.14h.49v4.6h-.57l-1.91-3.71h-.01v3.71h-.49v-4.6h.6l1.88,3.71h.01v-3.71Z"/>
      <path class="cls-2" d="M59.7,41.14h3.05v.55h-1.27v4.04h-.51v-4.04h-1.27v-.55Z"/>
      <path class="cls-2" d="M67.41,45.73h-.51v-4.6h.51v4.6Z"/>
      <path class="cls-2" d="M71.88,41.14h.49v4.6h-.57l-1.91-3.71h-.01v3.71h-.49v-4.6h.6l1.88,3.71h.01v-3.71Z"/>
      <path class="cls-2" d="M76.55,42.48c-.03-.71-.51-.93-.93-.93-.32,0-.86.11-.86.81,0,.39.23.52.45.58l1.07.3c.49.14.85.5.85,1.23,0,1.09-.83,1.39-1.47,1.39-.7,0-.97-.26-1.14-.44-.32-.35-.38-.74-.38-1.17h.48c0,.83.56,1.08,1.04,1.08.37,0,.98-.12.98-.77,0-.48-.18-.63-.8-.81l-.77-.22c-.25-.07-.8-.28-.8-1.08,0-.72.38-1.42,1.29-1.42,1.32,0,1.45.96,1.47,1.47h-.48Z"/>
      <path class="cls-2" d="M81.86,41.14v2.98c0,.94-.48,1.73-1.51,1.73s-1.45-.79-1.45-1.65v-3.07h.51v2.89c0,1,.5,1.27.95,1.27s.99-.26.99-1.26v-2.91h.51Z"/>
      <path class="cls-2" d="M84.35,45.73h-.51v-4.6h1.74c.62,0,1.24.26,1.24,1.24,0,.68-.28.93-.52,1.1.21.11.43.22.45.86l.03.83c0,.26.03.35.19.46v.1h-.62c-.07-.28-.09-.98-.09-1.15,0-.38-.06-.82-.67-.82h-1.23v1.97ZM84.35,43.23h1.18c.37,0,.77-.12.77-.79s-.42-.77-.68-.77h-1.27v1.56Z"/>
      <path class="cls-2" d="M89.27,44.4l-.39,1.34h-.52l1.42-4.6h.58l1.36,4.6h-.56l-.37-1.34h-1.51ZM90.59,43.85l-.56-2.02h-.01l-.6,2.02h1.17Z"/>
      <path class="cls-2" d="M95.77,41.14h.49v4.6h-.57l-1.91-3.71h-.01v3.71h-.49v-4.6h.6l1.88,3.71h.01v-3.71Z"/>
      <path class="cls-2" d="M100.81,42.52c-.14-.81-.69-.95-1.05-.95-.68,0-1.23.61-1.23,1.82,0,1.08.31,1.91,1.25,1.91.33,0,.9-.19,1.07-1.26h.49c-.21,1.73-1.36,1.81-1.65,1.81-.85,0-1.69-.68-1.69-2.45,0-1.42.66-2.39,1.76-2.39.97,0,1.47.74,1.54,1.5h-.49Z"/>
      <path class="cls-2" d="M105.9,45.73h-2.78v-4.6h2.74v.55h-2.23v1.41h2.06v.55h-2.06v1.54h2.27v.55Z"/>
      <path class="cls-2" d="M112.88,42.52c-.14-.81-.69-.95-1.05-.95-.68,0-1.23.61-1.23,1.82,0,1.08.31,1.91,1.25,1.91.33,0,.9-.19,1.07-1.26h.49c-.21,1.73-1.36,1.81-1.65,1.81-.85,0-1.69-.68-1.69-2.45,0-1.42.66-2.39,1.76-2.39.97,0,1.47.74,1.54,1.5h-.49Z"/>
      <path class="cls-2" d="M116.77,45.86c-1.4,0-1.83-1.43-1.83-2.42s.43-2.42,1.83-2.42,1.83,1.43,1.83,2.42-.43,2.42-1.83,2.42ZM116.77,41.57c-.82,0-1.31.79-1.31,1.87s.49,1.87,1.31,1.87,1.31-.79,1.31-1.87-.49-1.87-1.31-1.87Z"/>
      <path class="cls-2" d="M123.42,45.73v-2.71c0-.13.01-.72.01-1.15h-.01l-1.06,3.86h-.5l-1.06-3.85h-.01c0,.42.01,1.01.01,1.14v2.71h-.49v-4.6h.73l1.07,3.89h.01l1.07-3.89h.72v4.6h-.49Z"/>
      <path class="cls-2" d="M126.36,45.73h-.51v-4.6h1.69c.7,0,1.12.55,1.12,1.29,0,.64-.3,1.36-1.12,1.36h-1.18v1.94ZM126.36,43.26h1.01c.46,0,.77-.2.77-.83,0-.58-.32-.77-.74-.77h-1.03v1.59Z"/>
      <path class="cls-2" d="M130.61,44.4l-.39,1.34h-.52l1.42-4.6h.58l1.36,4.6h-.56l-.37-1.34h-1.51ZM131.94,43.85l-.55-2.02h-.01l-.6,2.02h1.17Z"/>
      <path class="cls-2" d="M137.12,41.14h.49v4.6h-.57l-1.91-3.71h-.01v3.71h-.49v-4.6h.6l1.88,3.71h.01v-3.71Z"/>
      <path class="cls-2" d="M141.12,45.73h-.51v-1.85l-1.42-2.75h.59l1.08,2.21,1.08-2.21h.6l-1.42,2.75v1.85Z"/>
    </g>
  </g>
</svg>