<?xml version="1.0" encoding="iso-8859-1"?>
<!-- Generator: Adobe Illustrator 19.1.0, SVG Export Plug-In . SVG Version: 6.00 Build 0)  -->
<svg version="1.1" baseProfile="tiny" id="Layer_1" xmlns="http://www.w3.org/2000/svg" xmlns:xlink="http://www.w3.org/1999/xlink"
	 x="0px" y="0px" viewBox="0 0 249.9 52.9" xml:space="preserve">
<g>
	<path d="M30.9,19.2c-1.8-0.9-3.2-1.1-8.8-1.1H0.7v26.7h8.5v-6.6h13.7c4.3,0,6.3-0.2,7.8-0.9c2.8-1.3,3.9-3.9,3.9-9.5
		C34.5,22.9,33.5,20.5,30.9,19.2z M21.5,31.7H9.1v-7.2h12.4c3.7,0,4.5,0.7,4.5,3.9C26,31,25,31.7,21.5,31.7z"/>
	<path d="M115.3,26.8c0-4.2-1.1-6.6-3.4-7.8c-1.6-0.8-3.6-1-7.8-1H80v26.7h8.5V38h13.1c2.3,0,3,0.1,3.7,0.5c0.8,0.5,1.1,1.4,1.1,2.9
		v3.3h8.7v-4.2c0-2-0.2-3-0.8-4c-0.8-1.3-2-1.7-5.2-1.9l-1.4-0.1c3.4-0.5,4.4-0.7,5.4-1.4C114.5,32.1,115.3,30,115.3,26.8z
		 M101.8,31.5H88.5v-6.9h13.6c2.6,0,3.2,0.1,3.9,0.8c0.5,0.6,0.7,1.3,0.7,3.2C106.7,31,105.9,31.5,101.8,31.5z"/>
	<polygon points="150.1,18 116.6,18 116.6,24.6 129.1,24.6 129.1,44.7 137.6,44.7 137.6,24.6 150.1,24.6 	"/>
	<path d="M156.9,18l-15.8,26.7h9.7l2.7-4.8h18.1l2.8,4.8h9.3L168.3,18H156.9z M156.6,34.4l6-10.6l6,10.6H156.6z"/>
	<polygon points="193.3,18 184.8,18 184.8,44.7 212.6,44.7 212.6,38.1 193.3,38.1 	"/>
	<path d="M248.2,30.5c-1.3-1.4-3-1.9-7.2-2.1c-2.3-0.1-3.9-0.1-4.5-0.1h-7.9c-2.7,0-2.9-0.1-3.4-0.2c-1.3-0.3-1.9-1-1.9-2.2
		c0-1.5,0.8-2.1,2.9-2.2c1.3-0.1,5.1-0.2,7.7-0.2c5.8,0,6.6,0.3,6.6,2.6h8.3c0-4.6-0.9-6.4-3.7-7.4c-2.1-0.8-4.4-0.9-12.6-0.9
		c-5.4,0-7.8,0.1-10.5,0.4c-5.2,0.7-7,2.8-7,8.1c0,4.2,1.2,6.3,4.1,7.2c1.4,0.5,3.9,0.7,7.9,0.7h7.7c3.5,0,3.7,0,4.2,0.1
		c1.7,0.2,2.6,0.9,2.6,2.3c0,2.4-1,2.6-11.1,2.6c-2.1,0-4.5-0.1-5.3-0.3c-1.3-0.3-1.6-0.8-1.6-2.8H215c0,0.6,0,1.3,0,1.6
		c0,3.8,1.3,5.7,4.5,6.5c2.1,0.5,4.9,0.7,11.3,0.7c6,0,8.4-0.1,11.8-0.4c5.4-0.5,7.4-2.7,7.4-8.1C249.9,33.7,249.3,31.7,248.2,30.5z
		"/>
	<path d="M102.2,13.5c0.1,0,0.7-0.1,1.7-0.1c1.1,0,1.8,0.1,1.9,0.1c0.1,0,0.1-0.1,0.1-0.1v-0.4c0-0.1,0-0.1-0.1-0.1h-0.5
		c-0.4,0-0.6-0.3-0.6-0.5c0-1,2.1-7,2.6-8.6h0.1l2.6,6.5c0,0,0.6,1.4,1,1.4c0.6,0,1.4-2,1.4-2s2.5-5.5,2.6-5.9l0,0l2.8,8.4
		c0.1,0.4-0.1,0.6-0.4,0.6h-0.3c-0.1,0-0.2,0.1-0.2,0.1v0.5c0,0.1,0,0.1,0.1,0.1c0.1,0,0.6,0,1.5,0c0.1,0,0.3-0.1,0.3-0.2
		c0.1-0.1,0.1-0.2,0.2-0.2c0.1-0.2,3.3-7,3.5-7.5h0.1l3.3,7.5c0.1,0.2,0.2,0.4,0.5,0.4c1,0,1.3-0.4,1.7-1.5c0.2-0.6,1.4-3.9,2.5-6.8
		c1.3-3.4,3.3-4.4,5.2-4.4c1.4,0,2.4,0.6,3,1.3c0.7,0.8,1.2,1.8,1.5,2.5c0,0.1,0.1,0.2,0.2,0.1l0.4-0.1c0.1,0,0.1-0.1,0.1-0.3
		L141,0.7c0-0.1,0-0.3-0.2-0.3c-0.1,0-0.2,0.1-0.3,0.2L140.3,1c-0.1,0.1-0.2,0.2-0.4,0c-0.6-0.4-2-1-3.7-1c-3.4,0-5.8,0.7-7.4,5.6
		l-1.5,3.9L125,4.4c0,0-1-2.3-1.4-2.3c-0.4,0-1.4,2.1-1.4,2.1s-2.5,5.3-2.6,5.7l0,0l-2.8-8.4c-0.1-0.4,0.1-0.6,0.4-0.6h0.3
		c0.1,0,0.2-0.1,0.2-0.1V0.2c0-0.1,0-0.1-0.1-0.1c-0.1,0-1,0-1.8,0c-0.1,0-0.2,0.3-0.4,0.6c-0.6,1.2-3.2,7.1-3.4,7.5H112l-3.3-7.7
		c-0.1-0.2-0.2-0.4-0.5-0.4c-0.3,0-0.4,0.3-0.5,0.5c-0.4,0.9-4.1,11.1-4.3,11.6c-0.2,0.4-0.5,0.6-0.8,0.6h-0.4
		c-0.1,0-0.1,0.1-0.1,0.1v0.5C102.1,13.5,102.2,13.5,102.2,13.5z"/>
	<path d="M137,7.6c-0.1,0-0.1,0-0.1,0.1v0.4c0,0.1,0,0.2,0.1,0.2h0.8c0.5,0,0.7,0.2,0.7,0.8v1.3c0,0.9,0,1.5-0.4,1.7
		c-0.6,0.3-1.3,0.3-2.5,0.3c-1.8,0-3.1-1.1-4.6-2.4c-0.2-0.2-0.4-0.1-0.4,0c-0.1,0.1-0.3,0.7-0.4,0.9c-0.1,0.2-0.1,0.3,0.1,0.5
		c1.3,1.4,3.4,2,5.1,2c2.2,0,3.7-0.4,5.2-1.2c0.2-0.1,0.3-0.1,0.3-0.3c0-0.1-0.1-0.3-0.1-0.6V9c0-0.5,0.2-0.7,0.5-0.7h0.6
		c0.1,0,0.1,0,0.1-0.1V7.7c0-0.1,0-0.1-0.2-0.1c-0.2,0-0.8,0.1-2.3,0.1C138.1,7.6,137.2,7.6,137,7.6z"/>
	<path d="M66.1,15.9c0,0,4.9-3.7,14.4-4.3c0,0-8.9-1.6-12.8,1.2c0,0-2-3.9-3.8-6.1C63.9,6.8,66.4,12.6,66.1,15.9z"/>
	<path d="M80.8,12.9l-0.3-0.4c-7.8,4.4-17.3,14.9-17.7,15.4l-0.4,0.3l7,2.9l-16.2,6.7l-5.1-16.4l7.4,3.9c0,0,1-14.4,4.7-21.8
		l-0.4-0.2c-1,2-1.8,4.2-2.6,6.5c0,0,0,0,0,0C45.4,9.7,36,19.1,36,30.8c0,11.7,9.5,21.1,21.1,21.1c11.7,0,21.1-9.5,21.1-21.1
		c0-4.7-1.6-9.1-4.2-12.6C76.2,16.1,78.6,14.1,80.8,12.9z M57.1,48.9c-10,0-18.1-8.1-18.1-18.1c0-9.7,7.7-17.6,17.2-18.1
		c-1.2,4.3-2,8.3-2.4,10.2l-6.7-2.8l4.4,22.3l21.1-11l-7.4-3.2c1.2-1.5,3.7-4.6,6.7-7.8c2.1,3,3.4,6.6,3.4,10.5
		C75.2,40.8,67.1,48.9,57.1,48.9z"/>
</g>
</svg>
