<svg xmlns="http://www.w3.org/2000/svg" viewBox="0 0 162.71 47.68"><title>Broker Portal</title><path d="M23.21,22.69c-1.35-.71-2.48-.86-6.77-.86H0V42.31H6.51v-5H17c3.29,0,4.87-.18,6-.71,2.16-1,3-3,3-7.27C26,25.57,25.21,23.73,23.21,22.69ZM16,32.3H6.51V26.8H16c2.84,0,3.45.55,3.45,3C19.47,31.75,18.7,32.3,16,32.3Z" fill="#231f20"/><path d="M88,28.58c0-3.22-.8-5.06-2.58-5.95-1.22-.59-2.77-.8-6-.8H60.9V42.31h6.51V37.15h10c1.77,0,2.29.06,2.8.4s.81,1,.81,2.21v2.55h6.64V39.08a5,5,0,0,0-.64-3c-.65-1-1.55-1.32-4-1.44L82,34.54c2.61-.37,3.35-.55,4.15-1.11C87.37,32.64,88,31,88,28.58ZM77.63,32.14H67.41V26.86H77.86c2,0,2.48.1,3,.59s.55,1,.55,2.42C81.41,31.75,80.76,32.14,77.63,32.14Z" fill="#231f20"/><polygon points="114.71 21.83 89.01 21.83 89.01 26.89 98.59 26.89 98.59 42.31 105.13 42.31 105.13 26.89 114.71 26.89 114.71 21.83" fill="#231f20"/><path d="M119.93,21.83,107.84,42.31h7.41l2.07-3.66h13.86l2.13,3.66h7.16L128.7,21.83Zm-.26,12.56,4.58-8.17,4.64,8.17Z" fill="#231f20"/><polygon points="147.91 37.24 147.91 21.83 141.37 21.83 141.37 42.31 162.71 42.31 162.71 37.24 147.91 37.24" fill="#231f20"/><path d="M60.19,19.24C54.53,22.41,47.7,30,47.44,30.33l-.29.22,5,2.1L40.45,37.46,36.78,25.62l5.31,2.82a45.24,45.24,0,0,1,1-9.06h.06l.22-1.1a21,21,0,0,1,1.31-3.57l-.31-.15c-.44.89-.82,1.78-1.15,2.65a15.31,15.31,0,1,0,12.23,6.14A26.23,26.23,0,0,1,60.4,19.5ZM43.3,44.48a12,12,0,0,1-1.08-24c-.69,2.6-1,4.85-1.31,6.27L36.09,24.7l3.14,16.07,15.22-7.94-5.34-2.31c.75-1,2.26-2.86,4.11-4.86A12,12,0,0,1,43.3,44.48Z" fill="#231f20"/><path d="M49,22.11s2.4-2.86,10.05-3.3c0,0-5.92-1.1-8.77.81a30.83,30.83,0,0,0-3.06-4.92S49.24,19.42,49,22.11Z" fill="#231f20"/><path d="M58.84,11.36a3.59,3.59,0,0,0,.73-2.57c0-1.69-.63-2.65-1.91-2.86v0c1.1-.27,1.64-1.14,1.64-2.62a3.44,3.44,0,0,0-.69-2.5A3.91,3.91,0,0,0,56,.11H50.49v12h5.78A3.54,3.54,0,0,0,58.84,11.36ZM52.61,2h3c1,0,1.52.48,1.52,1.44,0,.72-.11,1.18-.34,1.38a2.77,2.77,0,0,1-1.61.3H52.61Zm2.32,8.17H52.61V6.82h2.71a3.33,3.33,0,0,1,1.75.28c.24.19.35.65.35,1.37a1.92,1.92,0,0,1-.34,1.37,2.09,2.09,0,0,1-1.41.33Z" fill="#231f20"/><path d="M63.23,8.06h3.05c1.13,0,1.7.62,1.7,1.85V12.1h2.11V9.46c0-1.47-.61-2.25-1.85-2.33V7.05a2.29,2.29,0,0,0,1.59-.92,5.48,5.48,0,0,0,.39-2.49A3.84,3.84,0,0,0,69.44.87,4,4,0,0,0,66.61.11h-5.5v12h2.12Zm0-6h3.19a1.72,1.72,0,0,1,1.34.38,2.91,2.91,0,0,1,.31,1.65,2.74,2.74,0,0,1-.36,1.68,1.92,1.92,0,0,1-1.44.41h-3Z" fill="#231f20"/><path d="M76.19,12.21c2.25,0,3.67-.36,4.26-1.07s.87-2.45.87-5.2c0-2.51-.29-4.13-.87-4.85S78.56,0,76.53,0c-2.27,0-3.7.37-4.29,1.1s-.87,2.53-.87,5.39c0,2.4.3,3.95.89,4.66S74.16,12.21,76.19,12.21ZM73.88,2.54C74.12,2.15,75,2,76.37,2s2.18.18,2.43.55.37,1.55.37,3.56-.13,3.21-.39,3.6-1,.6-2.36.6-2.2-.18-2.48-.53-.42-1.39-.42-3.11Q73.52,3.13,73.88,2.54Z" fill="#231f20"/><polygon points="84.87 6.91 85.89 6.91 89.97 12.1 92.69 12.1 87.71 5.93 92.21 0.1 89.58 0.1 85.87 4.99 84.87 4.99 84.87 0.1 82.75 0.1 82.75 12.1 84.87 12.1 84.87 6.91" fill="#231f20"/><polygon points="101.01 10.19 95.44 10.19 95.44 6.79 100.67 6.79 100.67 5.12 95.44 5.12 95.44 2.02 100.96 2.02 100.96 0.1 93.32 0.1 93.32 12.1 101.01 12.1 101.01 10.19" fill="#231f20"/><path d="M104.7,8.06h3c1.13,0,1.7.62,1.7,1.85V12.1h2.12V9.46c0-1.47-.62-2.25-1.86-2.33V7.05a2.29,2.29,0,0,0,1.59-.92,5.48,5.48,0,0,0,.39-2.49,3.84,3.84,0,0,0-.78-2.77,4,4,0,0,0-2.83-.76h-5.5v12h2.12Zm0-6h3.19a1.72,1.72,0,0,1,1.34.38,2.83,2.83,0,0,1,.31,1.65,2.74,2.74,0,0,1-.36,1.68,1.89,1.89,0,0,1-1.44.41h-3Z" fill="#231f20"/></svg>