<svg id="Layer_1" data-name="Layer 1" xmlns="http://www.w3.org/2000/svg" viewBox="0 0 344.3 50"><g id="Layer_2" data-name="Layer 2"><g id="Layer_1-2" data-name="Layer 1-2"><path d="M185,37.1c-2.2.8-6.5.8-7.2.8H163.9V36h1c2.7,0,2.5-.2,2.5-3.4V5.8c0-2.2-.3-2.5-2.4-2.5h-1.2V1.4h11.5c5,0,6.8.4,8.3,1a8.34,8.34,0,0,1,5.3,8,8.36,8.36,0,0,1-5.2,7.9v.1c2.1.4,7.6,1.7,7.6,9.2A9.74,9.74,0,0,1,185,37.1ZM177.1,3.8h-6.5V17.7h5.3c2.5,0,9.6,0,9.6-7.2C185.6,3.8,178.9,3.8,177.1,3.8Zm.3,16.3h-6.7V35.6h8c4.8,0,9.2-1.3,9.2-7.7C187.9,20.1,181,20.1,177.4,20.1Z" fill="#0b4a7a"/><path d="M198.8,24.4c.1,2.7.1,7,3.3,9.9a7.6,7.6,0,0,0,5.2,1.9c4.1,0,7.5-2.9,8.9-4.2v2.9a12.38,12.38,0,0,1-9.2,3.8c-7,0-11.2-5.2-11.2-12.8,0-10.7,6.5-13.6,11.2-13.6,9.5,0,9.7,8.9,9.8,12.1Zm8-10c-2.9,0-6.6,1.4-7.6,8h14.3c-.2-1.9-.6-8.1-6.7-8Z" fill="#0b4a7a"/><path d="M236.4,37.9V36.2c2.3,0,2.6,0,2.8-.5a6.56,6.56,0,0,0,.4-2.3V21.7c0-2.6-.2-6.8-5.6-6.8a7.35,7.35,0,0,0-6.2,3.4c-1.1,1.8-1,5-1,6v9.4c0,2.6-.1,2.6,2,2.6h1V38H221V36.3h1c2,0,2-.5,2-2.6V17.8c0-2,0-2.7-1.6-2.7a16.35,16.35,0,0,0-2.2.2V13.6l6-.7a13.31,13.31,0,0,1,.5,4h.1a8.28,8.28,0,0,1,7.9-4.4c3.3,0,5.6,1.3,7,3.5.4.8.9,1.9.9,5.7V34.5c0,1.9.2,1.9,2.1,1.9h1v1.7h-9.3Z" fill="#0b4a7a"/><path d="M251.3,24.4c.1,2.7.1,7,3.3,9.9a7.6,7.6,0,0,0,5.2,1.9c4.1,0,7.5-2.9,8.9-4.2v2.9a12.38,12.38,0,0,1-9.2,3.8c-7,0-11.2-5.2-11.2-12.8,0-10.7,6.5-13.6,11.2-13.6,9.5,0,9.7,8.9,9.8,12.1Zm8-10c-2.9,0-6.6,1.4-7.6,8H266c-.1-1.9-.5-8.1-6.7-8Z" fill="#0b4a7a"/><path d="M306.5,38.6c-4.8,0-4.8-4.1-4.8-6.6V15.1h-3.1V13.8c3.8-1.4,4.2-5.4,4.4-7.3h1.7V13h6.8v2.2h-6.8V31.9c0,1.9,0,4.5,2.7,4.5a9,9,0,0,0,4.7-1.7v2.2A10.84,10.84,0,0,1,306.5,38.6Z" fill="#0b4a7a"/><path d="M323.4,38.7a21.88,21.88,0,0,1-7.6-1.5V30h2.5v2.6a8.33,8.33,0,0,0,.3,2.2c.8,1.4,3.3,2,4.9,2,1.2,0,6.5-.2,6.5-5,0-2.1-1.3-3.7-5.5-5.4-4.6-1.9-8.2-3.4-8.2-7.6,0-3.2,2.1-6.5,8.2-6.5a14.13,14.13,0,0,1,7,1.6v6.4h-2.2V18a4.22,4.22,0,0,0-.3-1.9c-.5-1.3-2.9-2-4.7-2-3.4,0-5.3,1.6-5.3,4.1,0,2.9,2.5,4.1,5.8,5.4,4,1.6,8,3.3,8,7.9C332.8,35.6,329.6,38.7,323.4,38.7Z" fill="#0b4a7a"/><path d="M294.9,36.2c-1.9,0-1.9-.1-1.9-2.2V13H279.2V10.7c0-2.9-.2-7.6,4.4-8.4,3.4-.6,5.5.8,6,1.4a2.06,2.06,0,0,0-1,1.7,2.1,2.1,0,0,0,4.2,0c0-1.3-1.7-5.8-8.8-5.1-7.5.7-7.6,7.2-7.6,9.2v3.4h-3.5V15h3.5V33.6c0,2.3-.1,2.6-2.6,2.6h-.9v1.7h9.9V36.2h-1.2c-1.4,0-1.7,0-2.1-.4-.2-.2-.3-.4-.3-2.6V15.1h10.5c.5.3.5,1.1.5,2.8V33.3c0,2.9.1,2.9-2.1,2.9h-1v1.7h9V36.2Z" fill="#0b4a7a"/><path d="M35.6,18.5v-.1a8.27,8.27,0,0,0,5.1-7.9c0-9.2-9.5-9.2-12.7-9.2H13.2V5h1.2c2.4,0,2.4.8,2.4,2.4V17.7a9.16,9.16,0,0,1-8.9-6.2H7.1A12.14,12.14,0,0,1,0,18.6v.7a12.14,12.14,0,0,1,7.1,7.1h.7a9.16,9.16,0,0,1,8.9-6.2H20c5.4.3,15.9,1.4,16.2,7.1.4,6-5,6.2-7.1,6.2h-6V24a15.69,15.69,0,0,0-6.4-1.4v9.1c0,2.3-.3,2.6-2.4,2.6H13.1V38H30a18.8,18.8,0,0,0,6.6-.9,9.87,9.87,0,0,0,6.3-9.6C42.9,20.3,37.4,18.8,35.6,18.5Zm-12.5-.7V5.8h4.7c1.4,0,6.6,0,6.6,5.2C34.4,16.7,31.2,17.8,23.1,17.8Z" fill="#0b4a7a"/><path d="M55,12.2a23,23,0,0,1,.5,4.5h.1c.6-1.1,2.7-4.9,7.2-4.9a7.22,7.22,0,0,1,3.2.8v6.8H61.7c0-1.2,0-2.4-1.4-2.4-1.2,0-4.8,1.9-4.8,9.9v5.7c0,1.3.2,1.9,2,1.9h1.4v3.4H46.6V34.5h.8c1.9,0,2.3-.4,2.3-2.3V18.5c0-2.4-.6-2.4-3.4-2.2V12.9Z" fill="#0b4a7a"/><path d="M79.2,11.8V31.7c0,2.6,0,2.8,2.1,2.8h.8v3.4H69.9V34.5h1.3c1.7,0,2-.2,2-2.3V19.4c0-2.8,0-3.4-2-3.4H69.6V12.6Zm0-8.2a3.44,3.44,0,0,1-3.3,3.5h-.3A3.34,3.34,0,0,1,72.1,4V3.7A3.35,3.35,0,0,1,75.4.3h.2a3.26,3.26,0,0,1,3.5,3,.37.37,0,0,1,.1.3Z" fill="#0b4a7a"/><path d="M110.5,16.2h-4.3a8.1,8.1,0,0,1,1.4,5,8.82,8.82,0,0,1-4,7.7c-1.7,1-3,1.3-6.6,1.5-1.8.1-4.6.3-4.6,1.9,0,1.3,1.8,1.7,4.1,1.8.6,0,4,.2,4.6.2,2.8.1,9.3.4,9.3,6.8a8.1,8.1,0,0,1-4.3,7.1c-2.7,1.5-6.2,1.8-9.6,1.8-6.9,0-12.8-1.2-12.8-6.3,0-2.9,2.5-5.2,5.7-5.8v-.1a3.85,3.85,0,0,1-3-3.7c0-2.7,2.2-3.9,4.6-4.9a8.51,8.51,0,0,1-5.2-8.3c0-5.6,3.6-9.7,11-9.7a14.81,14.81,0,0,1,5.1.9h8.5Zm-13.3,30c2.3,0,7.5-.5,7.5-3.7,0-2-2-2.9-7.5-2.9-2.6,0-7.5.2-7.5,3.3.1,2.5,3.8,3.3,7.5,3.3Zm4.5-25.4c0-2.4-.7-6.1-4.9-6.1-4.5,0-4.8,5.2-4.8,6.5,0,2.6,1.3,5.9,4.9,5.9,2.8-.1,4.8-2.3,4.8-6.3Z" fill="#0b4a7a"/><path d="M121.9,0V15.6h.1c.5-1,2.6-4,7.6-4,8.4,0,8.4,7,8.4,10.1V31.8c0,2.6.1,2.6,3.1,2.6v3.4H128.8V34.4h.9c2.1,0,2.1-.3,2.1-3.1V22.4c0-2.2,0-6.1-4.2-6.1-5.6,0-5.6,6.2-5.6,7.9v7.5c0,2.5,0,2.8,2,2.8h1v3.4H112.8V34.5h.9c2.2,0,2.3-.4,2.3-2.8V7.1c0-2.5,0-2.8-2.3-2.8h-1.3V1Z" fill="#0b4a7a"/><path d="M152.4,4.6v7.6h6.5v4.3h-6.5v13c0,1.4,0,4.2,2.6,4.2,1.3,0,2.1-.4,4.2-1.3v4.3a14,14,0,0,1-6.6,1.9c-6.4,0-6.4-5.1-6.4-7.3V16.5H143V13.1c5-1.7,5.5-6.4,5.8-8.5Z" fill="#0b4a7a"/><path d="M340,37.7v.5h-1V41h-.6V38.2h-1v-.5Zm3.6,3.3-.1-2v-.9h0c-.1.3-.2.7-.3,1l-.6,1.8h-.7l-.6-1.9-.2-.9h0V39l-.2,2h-.6l.2-3.3h1l.6,1.6c.1.3.1.5.2.8h0c.1-.3.1-.6.2-.8l.6-1.6h1l.2,3.3Z" fill="#0b4a7a"/></g></g></svg>