<?xml version="1.0" encoding="UTF-8"?>
<svg id="Layer_1" data-name="Layer 1" xmlns="http://www.w3.org/2000/svg" viewBox="0 0 769.65 222.81">
  <defs>
    <style>
      .cls-1 {
        fill: #ba9dfb;
      }
    </style>
  </defs>
  <g>
    <path class="cls-1" d="M398.8,73.17c0-25.65-19.07-43.35-48.35-43.35h-56.98V166.01h33.37v-50.84l34.73,50.84h41.77l-36.78-50.62c20.21-4.99,32.23-18.39,32.23-42.23Zm-45.17,15.67h-26.78v-30.64h25.87c7.49,0,13.39,7.04,13.39,14.98s-4.99,15.67-12.49,15.67Z"/>
    <path class="cls-1" d="M.05,65.9v100.12H33.42V65.91c-4.5,3.88-10.29,6.31-16.68,6.31S4.56,69.79,.05,65.9Z"/>
    <path class="cls-1" d="M27.34,33.63c-1.65-1.36-3.56-2.4-5.65-3.05-1.57-.49-3.23-.75-4.96-.75h0c-1.73,0-3.39,.26-4.96,.75-1.04,.32-2.04,.75-2.99,1.26-2.16,1.17-4.02,2.82-5.47,4.78-.45,.61-.88,1.25-1.25,1.92C.79,40.89,.06,43.6,.05,46.47v.07c.02,9.2,7.48,16.65,16.69,16.65,2.6,0,5.05-.61,7.24-1.67,.53-.26,1.04-.54,1.54-.84,.63-.39,1.25-.81,1.82-1.29,.82-.68,1.58-1.43,2.26-2.26s1.28-1.71,1.8-2.66c1.28-2.36,2.02-5.06,2.02-7.94v-.06c0-1.73-.27-3.39-.76-4.95-.98-3.13-2.85-5.86-5.32-7.9Zm4.08,12.91c-.01,8.08-6.6,14.66-14.68,14.66s-14.67-6.57-14.69-14.65v-.06c.02-8.08,6.6-14.65,14.69-14.65s14.67,6.58,14.68,14.65v.05Z"/>
    <polygon class="cls-1" points="83.39 112.9 135.83 112.9 135.83 83.85 83.39 83.85 83.39 59.33 140.13 59.33 140.13 29.82 50.02 29.82 50.02 166.01 142.63 166.01 142.63 137.41 83.39 137.41 83.39 112.9"/>
    <polygon class="cls-1" points="243.11 110.63 190.22 29.82 155.03 29.82 155.03 166.01 188.41 166.01 188.41 84.98 241.51 166.01 276.25 166.01 276.25 29.82 243.11 29.82 243.11 110.63"/>
    <polygon class="cls-1" points="605.36 29.82 571.99 29.82 571.99 166.01 664.6 166.01 664.6 137.41 605.36 137.41 605.36 29.82"/>
    <polygon class="cls-1" points="710.41 137.41 710.41 29.82 677.04 29.82 677.04 166.01 769.65 166.01 769.65 137.41 710.41 137.41"/>
    <path class="cls-1" d="M586.17,2.92c.09-.05,.18-.1,.28-.16,.03-.02,.06-.04,.09-.06,.06-.04,.12-.08,.18-.13,.03-.03,.07-.06,.1-.08,.05-.04,.1-.08,.15-.13,.03-.03,.07-.06,.1-.1,.04-.04,.09-.09,.13-.13,.03-.04,.06-.07,.09-.11,.04-.05,.08-.09,.11-.14,.03-.04,.05-.08,.08-.11,.03-.05,.06-.09,.09-.14,.02-.04,.04-.08,.06-.12,.02-.05,.04-.09,.06-.14,.02-.04,.03-.08,.04-.12,.01-.04,.03-.09,.04-.13,0-.04,.01-.08,.02-.11,0-.04,0-.08,0-.13,0-.04,0-.07,0-.11,0-.04-.02-.08-.03-.12-.01-.03-.02-.07-.04-.1-.02-.04-.04-.07-.07-.1-.02-.03-.04-.06-.07-.08-.03-.03-.07-.06-.11-.09-.03-.02-.07-.05-.1-.07-.05-.03-.1-.05-.16-.07-.04-.02-.09-.04-.14-.05-.06-.02-.14-.03-.21-.05-.06-.01-.11-.02-.17-.03-.08-.01-.18-.01-.27-.02-.07,0-.13-.01-.21-.01-.01,0-.02,0-.04,0-.16,0-.33,0-.52,.02-5.47,.43-10.85,1.52-16.11,3.15-1.5,.46-2.99,.97-4.47,1.52-3.7,1.37-7.32,3-10.86,4.85-1.41,.74-2.81,1.51-4.2,2.31s-2.75,1.64-4.11,2.5c-.68,.43-1.35,.87-2.02,1.32-2.01,1.34-3.97,2.74-5.9,4.19-1.28,.97-2.55,1.96-3.8,2.97-1.25,1.01-2.47,2.04-3.68,3.09-.6,.52-1.2,1.05-1.79,1.59-1.78,1.6-3.51,3.24-5.19,4.9-.68,.68-1.36,1.36-2.02,2.04-10.62-5.84-23.11-9.17-36.91-9.17-1.94,0-3.84,.09-5.72,.21-.35,.02-.71,.05-1.06,.07-1.9,.15-3.77,.36-5.61,.64-.06,0-.11,.02-.16,.03-35.29,5.4-59.36,33.47-60.7,68.59-.05,1.02-.07,2.05-.07,3.09,0,1.45,.05,2.88,.12,4.31,.02,.44,.06,.88,.09,1.32,.07,1,.15,1.99,.26,2.97,.05,.48,.11,.96,.17,1.44,.13,.99,.27,1.96,.43,2.93,.07,.41,.13,.83,.21,1.24,.5,2.75,1.15,5.45,1.94,8.07,.09,.32,.2,.62,.3,.94,.32,1.01,.65,2.01,1.01,3,.13,.36,.26,.71,.4,1.07,.38,.99,.78,1.97,1.2,2.94,.12,.28,.24,.56,.36,.84,1.13,2.53,2.4,4.97,3.81,7.32,.08,.13,.16,.26,.24,.39,.63,1.04,1.28,2.05,1.96,3.05,.14,.2,.28,.41,.42,.61,.68,.97,1.38,1.93,2.1,2.87,.11,.14,.21,.28,.32,.41,2.58,3.27,5.45,6.3,8.58,9.07,.12,.1,.23,.2,.35,.3,.97,.84,1.96,1.65,2.97,2.44,.09,.07,.17,.14,.26,.2,12.22,9.37,27.89,14.91,45.81,14.91,34.31,0,60.61-20.48,69.78-49.46,.05-.16,.1-.32,.15-.48,.51-1.66,.97-3.35,1.37-5.07,.05-.21,.09-.43,.14-.64,.35-1.58,.66-3.18,.91-4.8,.03-.2,.07-.4,.1-.6,.25-1.69,.44-3.41,.58-5.14,.03-.37,.05-.75,.08-1.13,.12-1.76,.2-3.54,.2-5.33,0-18.85-6.55-35.83-17.85-48.63-.27-.31-.55-.6-.83-.9,1.1-1.81,2.37-3.98,3.18-5.1,2.09-2.88,4.32-5.79,6.67-8.68,1.57-1.92,3.2-3.84,4.88-5.73s3.42-3.75,5.21-5.57c8.04-8.18,17.12-15.48,26.99-20.39Zm-66.1,76.26c-4.32,9.16-8.77,20.61-11.54,28.4-.57,1.61-1.15,3.42-1.76,5.33-2.48,7.76-5.56,17.43-11.11,22.86-1.56,1.53-3.18,2.61-4.95,3.29-5.66,2.23-10.2,3.81-14.26,4.98-.09,.03-.18,.04-.26,.04s-.21-.01-.38-.11c-.22-.12-.28-.24-.32-.4-.52-2.12-1.21-4.43-2.19-7.26l-.07-.21c-.03-.11-.07-.21-.1-.31-1.21-3.48-2.62-7.03-4.2-10.57-4.06-9.1-8.76-17.16-13.97-23.96-2.61-3.41-5.4-6.52-8.29-9.24-6.09-5.75-12.57-9.67-19.26-11.66-.31-.09-.4-.25-.46-.4-.06-.17-.07-.31,.07-.52,1.83-2.65,4.95-5.34,8.55-7.38,4.39-2.49,9.26-3.9,14.1-4.09,.22,0,.44-.01,.65-.01,2.05,0,4.19,.38,6.34,1.14,11.1,3.9,20.5,17.06,26.12,24.92l1.95,2.72,1.48-3.01c4.42-9.01,10.98-21.61,17.87-32.14,6.4,3.49,11.48,8.7,14.92,15.09,.38,.81,.74,1.62,1.07,2.47Zm-43.01-21.69h0c1.19-.2,2.4-.36,3.63-.48,1.28-.11,2.57-.18,3.91-.18,6.6,0,12.52,1.42,17.68,3.88-7.02,10.75-13.56,23.38-17.87,32.17-1.61-2.25-3.4-4.73-5.36-7.25-1.47-1.89-3.03-3.79-4.68-5.64-1.1-1.23-2.24-2.43-3.42-3.59-1.18-1.15-2.39-2.25-3.64-3.28-.62-.51-1.26-1.01-1.9-1.48-1.28-.94-2.6-1.8-3.95-2.54s-2.73-1.38-4.14-1.87c5.17-4.96,11.83-8.4,19.73-9.74Zm-23.32,67.17s.06-.06,.09-.08c-3.02-3.9-5.4-8.36-6.85-13.34h0c-1.22-4.17-1.88-8.64-1.88-13.32,0-1.5,.07-2.97,.2-4.42,1.48,1.4,2.9,2.87,4.25,4.38s2.62,3.06,3.82,4.63c.69,.9,1.37,1.82,2.03,2.74,4.62,6.5,8.5,13.62,11.71,20.81,.76,1.71,1.49,3.43,2.18,5.17,.35,.87,.68,1.74,1.01,2.61,.33,.87,.64,1.75,.95,2.63,.06,.17,.11,.34,.17,.51-7.28-2.35-13.26-6.66-17.67-12.33Zm70.2-22.98c-.02,.3-.05,.6-.07,.9-.11,1.2-.26,2.38-.46,3.54-.04,.21-.09,.42-.13,.63-.18,.96-.39,1.91-.63,2.85-.09,.35-.18,.71-.27,1.05-.28,1.02-.6,2.02-.95,3-.14,.4-.31,.79-.46,1.18-.25,.64-.52,1.26-.8,1.88-.2,.45-.4,.9-.62,1.34-.4,.8-.83,1.58-1.27,2.35-.31,.53-.64,1.04-.97,1.55-.22,.34-.45,.67-.68,1-.72,1.03-1.48,2.03-2.3,2.98-.11,.12-.21,.25-.32,.38-.49,.55-.99,1.09-1.52,1.62-.12,.12-.24,.23-.36,.35-1.03,1.01-2.11,1.96-3.26,2.84-.07,.06-.14,.11-.21,.17-.63,.48-1.28,.94-1.94,1.38h0c-2.91,1.92-6.13,3.48-9.66,4.56,7.33-7.18,10.48-20.87,13.35-28.96,2.88-8.09,6.94-18.41,10.77-26.73,.05,.14,.11,.28,.16,.42,1.8,4.9,2.75,10.29,2.75,15.98,0,1.27-.07,2.52-.16,3.76Zm16.86-59.57c-.71,.98-1.69,2.61-2.64,4.18-.12,.2-.23,.39-.35,.58-3.6-3.7-7.62-7.02-12.01-9.86-.8-.57-1.6-1.12-2.4-1.64,24.31-24.83,46.79-31.47,59.62-33.07-18.05,9.76-32.84,26.89-42.22,39.8Z"/>
  </g>
  <g>
    <path class="cls-1" d="M0,222.03v-29.13H34.75v6.18H8.13v4.36h26.63v5.92H8.13v6.48h26.63v6.18H0Z"/>
    <path class="cls-1" d="M79.68,222.64h-.99l-30.47-17.46v16.86h-8.13v-29.74h1.08l30.39,17.38v-16.77h8.13v29.74Z"/>
    <path class="cls-1" d="M112.34,222.03l-9.98-10.85h-8.82v10.85h-8.13v-29.13h26.76c5.58,0,10.33,2.9,10.33,8.95,0,5.49-4.06,8.64-9.21,8.9h-1.3l11.19,11.28h-10.85Zm-2.07-22.99h-16.73v6.35h17.03c2.29,0,3.98-.99,3.98-3.29,0-1.99-1.73-3.07-4.28-3.07Z"/>
    <path class="cls-1" d="M146.68,222.81c-10.46,0-21.18-4.23-21.18-15.34s10.68-15.34,21.18-15.34,21.18,4.28,21.18,15.34-10.59,15.34-21.18,15.34Zm0-24.68c-7.69,0-12.62,3.42-12.62,9.34s4.93,9.34,12.62,9.34,12.53-3.37,12.53-9.34-4.93-9.34-12.53-9.34Z"/>
    <path class="cls-1" d="M172.11,222.03v-29.13h8.13v22.65h26.41v6.48h-34.53Z"/>
    <path class="cls-1" d="M210.48,222.03v-29.13h8.13v22.65h26.41v6.48h-34.53Z"/>
    <path class="cls-1" d="M286.23,222.03v-16.21l-14.18,9.12h-.99l-14.09-8.99v16.08h-8.13v-29.74h1.04l21.7,13.96,21.79-13.96h.99v29.74h-8.13Z"/>
    <path class="cls-1" d="M300.08,222.03v-29.13h34.75v6.18h-26.63v4.36h26.63v5.92h-26.63v6.48h26.63v6.18h-34.75Z"/>
    <path class="cls-1" d="M379.76,222.64h-.99l-30.47-17.46v16.86h-8.13v-29.74h1.08l30.39,17.38v-16.77h8.13v29.74Z"/>
    <path class="cls-1" d="M407.62,199.38v22.65h-8.08v-22.65h-16.25v-6.48h40.59v6.48h-16.25Z"/>
    <path class="cls-1" d="M466.33,222.03l-9.98-10.85h-8.82v10.85h-8.13v-29.13h26.76c5.58,0,10.33,2.9,10.33,8.95,0,5.49-4.06,8.64-9.21,8.9h-1.3l11.19,11.28h-10.85Zm-2.07-22.99h-16.73v6.35h17.03c2.29,0,3.98-.99,3.98-3.29,0-1.99-1.73-3.07-4.28-3.07Z"/>
    <path class="cls-1" d="M481.78,222.03v-29.13h34.75v6.18h-26.63v4.36h26.63v5.92h-26.63v6.48h26.63v6.18h-34.75Z"/>
    <path class="cls-1" d="M547.55,222.29h-8.6l-19.23-29.39h10.16l13.4,21.74,13.53-21.74h9.98l-19.23,29.39Z"/>
    <path class="cls-1" d="M570.39,222.03v-29.13h8.13v29.13h-8.13Z"/>
    <path class="cls-1" d="M584.3,222.03v-29.13h34.75v6.18h-26.63v4.36h26.63v5.92h-26.63v6.48h26.63v6.18h-34.75Z"/>
    <path class="cls-1" d="M668.95,222.29h-8.39l-5.32-8.21-5.27,8.21h-8.43l-19.32-29.39h10.03l13.74,22,4.84-7.69-9.21-14.31h9.25l4.41,7.13,4.49-7.13h9.03l-9.16,14.26,4.84,7.74,13.92-22h9.81l-19.28,29.39Z"/>
    <path class="cls-1" d="M691.78,222.03v-29.13h34.75v6.18h-26.63v4.36h26.63v5.92h-26.63v6.48h26.63v6.18h-34.75Z"/>
    <path class="cls-1" d="M758.8,222.03l-9.98-10.85h-8.82v10.85h-8.13v-29.13h26.76c5.58,0,10.33,2.9,10.33,8.95,0,5.49-4.06,8.64-9.21,8.9h-1.3l11.19,11.28h-10.85Zm-2.07-22.99h-16.73v6.35h17.03c2.29,0,3.98-.99,3.98-3.29,0-1.99-1.73-3.07-4.28-3.07Z"/>
  </g>
</svg>