<?xml version="1.0" encoding="UTF-8"?>
<svg id="Layer_1" data-name="Layer 1" xmlns="http://www.w3.org/2000/svg" viewBox="0 0 750 175">
  <defs>
    <style>
      .cls-1 {
        fill: #ba9dfb;
      }

      .cls-1, .cls-2 {
        stroke-width: 0px;
      }

      .cls-2 {
        fill: #6c3;
      }
    </style>
  </defs>
  <path class="cls-1" d="M385.34,78.52c0-19.02-14.14-32.15-35.86-32.15h-42.25v101h24.75v-37.7l25.75,37.7h30.97l-27.27-37.53c14.98-3.7,23.9-13.64,23.9-31.31ZM351.85,90.14h-19.86v-22.72h19.19c5.56,0,9.93,5.22,9.93,11.11s-3.7,11.62-9.26,11.62Z"/>
  <path class="cls-1" d="M89.65,73.13v74.24h24.74v-74.23c-3.34,2.88-7.63,4.68-12.37,4.68s-9.03-1.8-12.37-4.69Z"/>
  <path class="cls-2" d="M102.02,46.38c-6.82,0-12.36,5.53-12.37,12.35v.05c.01,6.82,5.55,12.35,12.37,12.35s12.36-5.53,12.37-12.35v-.04c-.01-6.82-5.54-12.35-12.37-12.35Z"/>
  <polygon class="cls-1" points="151.45 107.98 190.33 107.98 190.33 86.44 151.45 86.44 151.45 68.25 193.53 68.25 193.53 46.37 126.7 46.37 126.7 147.37 195.38 147.37 195.38 126.16 151.45 126.16 151.45 107.98"/>
  <polygon class="cls-1" points="269.89 106.3 230.67 46.37 204.58 46.37 204.58 147.37 229.32 147.37 229.32 87.28 268.71 147.37 294.46 147.37 294.46 46.37 269.89 46.37 269.89 106.3"/>
  <polygon class="cls-1" points="538.52 46.37 513.77 46.37 513.77 147.37 582.45 147.37 582.45 126.16 538.52 126.16 538.52 46.37"/>
  <polygon class="cls-1" points="616.42 126.16 616.42 46.37 591.67 46.37 591.67 147.37 660.35 147.37 660.35 126.16 616.42 126.16"/>
  <path class="cls-2" d="M524.29,26.43c1.13-.56,2.18-2.35-.38-2.15-18.54,1.47-35.76,13.09-48.5,26.51,4.72,2.78,9.52,6.95,13.07,10.97.86-1.26,2.48-4.17,3.38-5.4,8.27-11.38,19.44-23.45,32.44-29.93Z"/>
  <path class="cls-2" d="M463.32,67.41c-5.66,8.33-11.04,18.69-14.49,25.72-4.78-6.68-11.71-16.07-20.08-19.02-1.84-.65-3.76-1-5.73-.92-3.92.15-7.75,1.31-11.13,3.22-2.55,1.45-5.18,3.53-6.83,5.92-.37.53-.45,1.14-.23,1.74.22.6.68,1.02,1.31,1.21,5.22,1.55,9.78,4.62,13.69,8.31,2.2,2.08,4.2,4.35,5.99,6.68,4.1,5.34,7.47,11.37,10.18,17.47,1.13,2.53,2.16,5.11,3.07,7.72.04.13.08.25.13.38.59,1.72,1.15,3.48,1.58,5.25.13.54.46.96.96,1.24.5.28,1.05.34,1.61.18,3.59-1.03,7.23-2.37,10.71-3.74,1.57-.61,2.94-1.56,4.16-2.76,5.44-5.33,7.77-15.48,9.9-21.47,2.33-6.56,5.71-15.08,8.77-21.49-2.51-6.83-7.13-12.42-13.56-15.63Z"/>
  <path class="cls-1" d="M477.66,50.55c-8.15-4.8-17.88-7.54-28.68-7.54-1.44,0-2.85.06-4.24.16-.26.02-.53.03-.79.06-1.41.11-2.79.27-4.16.47-.04,0-.08.01-.12.02-26.17,4.01-44.02,24.82-45.01,50.86-.03.76-.05,1.52-.05,2.29,0,1.07.04,2.14.09,3.19.02.33.05.65.07.98.05.74.11,1.47.19,2.2.04.36.08.71.13,1.07.09.73.2,1.46.32,2.18.05.31.1.61.15.92.37,2.04.85,4.04,1.44,5.99.07.23.15.46.22.7.24.75.49,1.49.75,2.22.1.27.2.53.3.79.28.73.58,1.46.89,2.18.09.21.18.42.27.62.84,1.87,1.78,3.69,2.82,5.43.06.1.12.19.18.29.47.77.95,1.52,1.45,2.26.1.15.21.3.31.45.5.72,1.02,1.43,1.56,2.13.08.1.15.2.23.3,1.91,2.43,4.04,4.68,6.36,6.72.09.08.17.15.26.23.72.62,1.45,1.23,2.2,1.81.06.05.13.1.19.15,9.06,6.95,20.68,11.06,33.97,11.06,25.44,0,44.94-15.19,51.74-36.67.04-.12.08-.24.11-.36.38-1.23.72-2.48,1.02-3.76.04-.16.07-.32.1-.48.26-1.17.49-2.36.68-3.56.02-.15.05-.3.07-.45.19-1.25.33-2.53.43-3.81.02-.28.04-.56.06-.84.09-1.31.15-2.62.15-3.95,0-13.98-4.86-26.57-13.24-36.06-3.55-4.02-7.73-7.49-12.45-10.26ZM478.26,96.87c0,.94-.05,1.87-.12,2.79-.02.22-.03.44-.05.66-.08.89-.19,1.76-.34,2.62-.03.16-.06.31-.09.47-.13.71-.29,1.42-.47,2.11-.07.26-.13.52-.2.78-.21.75-.45,1.5-.71,2.22-.11.3-.23.59-.34.88-.19.47-.38.94-.59,1.4-.15.33-.3.67-.46.99-.3.59-.61,1.17-.94,1.74-.23.39-.47.77-.72,1.15-.16.25-.33.5-.51.74-.53.76-1.1,1.5-1.7,2.21-.08.09-.15.19-.23.28-.36.41-.74.81-1.12,1.2-.09.09-.18.17-.27.26-.76.75-1.57,1.45-2.42,2.11-.05.04-.11.08-.16.12-.47.36-.95.7-1.44,1.02h0c-2.16,1.43-4.54,2.58-7.16,3.38-1.22,1.2-2.6,2.15-4.16,2.76-3.48,1.37-7.12,2.71-10.71,3.74-.56.16-1.1.1-1.61-.18-.5-.28-.83-.7-.96-1.24-.43-1.77-.99-3.53-1.58-5.25-5.4-1.74-9.83-4.94-13.1-9.14.02-.02.04-.04.07-.06-2.24-2.89-4-6.2-5.08-9.89h0c-.9-3.09-1.4-6.4-1.4-9.88,0-1.11.05-2.2.15-3.28-3.91-3.69-8.47-6.75-13.69-8.31-.63-.19-1.09-.61-1.31-1.21-.22-.6-.14-1.21.23-1.74,1.65-2.39,4.28-4.47,6.83-5.92,3.38-1.92,7.21-3.07,11.13-3.22,1.98-.08,3.89.27,5.73.92,3.83-3.67,8.77-6.23,14.63-7.22h0c.88-.15,1.78-.27,2.69-.35.95-.08,1.91-.14,2.9-.14,5.09,0,9.63,1.13,13.56,3.09,6.43,3.21,11.18,8.7,13.68,15.53,1.33,3.63,2.04,7.63,2.04,11.85Z"/>
</svg>