<?xml version="1.0" encoding="UTF-8"?>
<svg id="Layer_1" data-name="Layer 1" xmlns="http://www.w3.org/2000/svg" viewBox="0 0 769.65 222.81">
  <defs>
    <style>
      .cls-1 {
        fill: #fff;
      }

      .cls-2 {
        fill: #ba9dfb;
      }
    </style>
  </defs>
  <g>
    <path class="cls-2" d="M398.8,73.17c0-25.65-19.07-43.35-48.35-43.35h-56.98V166.02h33.37v-50.84l34.73,50.84h41.77l-36.78-50.62c20.21-4.99,32.23-18.39,32.23-42.23Zm-45.17,15.67h-26.78v-30.64h25.87c7.49,0,13.39,7.04,13.39,14.98s-4.99,15.67-12.49,15.67Z"/>
    <path class="cls-2" d="M.05,65.9v100.12H33.42V65.91c-4.5,3.88-10.29,6.31-16.68,6.31S4.56,69.79,.05,65.9Z"/>
    <path class="cls-1" d="M16.74,29.82C7.53,29.82,.07,37.27,.05,46.47v.07c.02,9.2,7.48,16.65,16.69,16.65s16.66-7.45,16.68-16.65v-.06c-.02-9.2-7.48-16.65-16.68-16.65Z"/>
    <polygon class="cls-2" points="83.39 112.9 135.83 112.9 135.83 83.85 83.39 83.85 83.39 59.33 140.13 59.33 140.13 29.82 50.02 29.82 50.02 166.02 142.63 166.02 142.63 137.41 83.39 137.41 83.39 112.9"/>
    <polygon class="cls-2" points="243.11 110.63 190.22 29.82 155.03 29.82 155.03 166.02 188.41 166.02 188.41 84.98 241.52 166.02 276.25 166.02 276.25 29.82 243.11 29.82 243.11 110.63"/>
    <polygon class="cls-2" points="605.36 29.82 571.99 29.82 571.99 166.02 664.61 166.02 664.61 137.41 605.36 137.41 605.36 29.82"/>
    <polygon class="cls-2" points="710.41 137.41 710.41 29.82 677.04 29.82 677.04 166.02 769.65 166.02 769.65 137.41 710.41 137.41"/>
    <path class="cls-1" d="M586.17,2.92c1.52-.76,2.94-3.17-.52-2.9-25,1.98-48.22,17.65-65.41,35.74,6.36,3.74,12.84,9.37,17.62,14.8,1.16-1.7,3.35-5.62,4.55-7.28,11.15-15.35,26.21-31.62,43.74-40.36Z"/>
    <path class="cls-1" d="M503.95,58.19c-7.64,11.23-14.89,25.2-19.54,34.68-6.44-9.01-15.8-21.67-27.08-25.64-2.49-.88-5.07-1.34-7.73-1.24-5.29,.2-10.45,1.76-15.01,4.35-3.44,1.95-6.98,4.77-9.21,7.98-.5,.72-.6,1.54-.31,2.34,.3,.81,.91,1.38,1.77,1.63,7.04,2.09,13.19,6.23,18.46,11.2,2.97,2.8,5.67,5.87,8.07,9,5.53,7.21,10.07,15.33,13.73,23.56,1.52,3.41,2.91,6.89,4.14,10.41,.06,.17,.11,.34,.17,.51,.8,2.32,1.55,4.7,2.13,7.08,.18,.73,.62,1.3,1.29,1.67,.68,.37,1.41,.46,2.17,.24,4.84-1.39,9.75-3.2,14.44-5.04,2.11-.82,3.97-2.11,5.62-3.72,7.33-7.18,10.48-20.87,13.35-28.96,3.14-8.84,7.7-20.34,11.83-28.98-3.38-9.21-9.61-16.75-18.29-21.07Z"/>
    <path class="cls-2" d="M523.29,35.45c-10.99-6.47-24.11-10.17-38.68-10.17-1.94,0-3.84,.09-5.72,.21-.35,.02-.71,.05-1.06,.07-1.9,.15-3.77,.36-5.61,.64-.06,0-.11,.02-.16,.03-35.29,5.4-59.36,33.47-60.7,68.59-.05,1.02-.07,2.05-.07,3.09,0,1.45,.05,2.88,.12,4.31,.02,.44,.06,.88,.09,1.32,.07,1,.15,1.99,.26,2.97,.05,.48,.11,.96,.17,1.44,.13,.99,.27,1.96,.43,2.93,.07,.41,.13,.83,.21,1.24,.5,2.75,1.15,5.45,1.94,8.07,.09,.32,.2,.62,.3,.94,.32,1.01,.65,2.01,1.01,3,.13,.36,.26,.71,.4,1.07,.38,.99,.78,1.97,1.2,2.94,.12,.28,.24,.56,.36,.84,1.13,2.53,2.4,4.97,3.81,7.32,.08,.13,.16,.26,.24,.39,.63,1.04,1.28,2.05,1.96,3.05,.14,.2,.28,.41,.42,.61,.68,.97,1.38,1.93,2.1,2.87,.11,.14,.21,.28,.32,.41,2.58,3.27,5.45,6.3,8.58,9.07,.12,.1,.23,.2,.35,.3,.97,.84,1.96,1.65,2.97,2.44,.09,.07,.17,.14,.26,.2,12.22,9.37,27.89,14.91,45.81,14.91,34.31,0,60.61-20.48,69.78-49.46,.05-.16,.1-.32,.15-.48,.51-1.66,.97-3.35,1.37-5.07,.05-.21,.09-.43,.14-.64,.35-1.58,.66-3.18,.91-4.8,.03-.2,.07-.4,.1-.6,.25-1.69,.44-3.41,.58-5.14,.03-.37,.05-.75,.08-1.13,.12-1.76,.2-3.54,.2-5.33,0-18.85-6.55-35.83-17.85-48.63-4.79-5.42-10.43-10.1-16.78-13.84Zm.82,62.47c0,1.27-.07,2.52-.16,3.76-.02,.3-.05,.6-.07,.9-.11,1.2-.26,2.38-.46,3.54-.04,.21-.09,.42-.13,.63-.18,.96-.39,1.91-.63,2.85-.09,.35-.18,.71-.27,1.05-.28,1.02-.6,2.02-.95,3-.14,.4-.31,.79-.46,1.18-.25,.64-.52,1.26-.8,1.88-.2,.45-.4,.9-.62,1.34-.4,.8-.83,1.58-1.27,2.35-.31,.53-.64,1.04-.97,1.55-.22,.34-.45,.67-.68,1-.72,1.03-1.48,2.03-2.3,2.98-.11,.12-.21,.25-.32,.38-.49,.55-.99,1.09-1.52,1.62-.12,.12-.24,.23-.36,.35-1.03,1.01-2.11,1.96-3.26,2.84-.07,.06-.14,.11-.21,.17-.63,.48-1.28,.94-1.94,1.38h0c-2.91,1.92-6.13,3.48-9.66,4.56-1.65,1.61-3.5,2.91-5.62,3.72-4.69,1.85-9.6,3.65-14.44,5.04-.76,.22-1.49,.14-2.17-.24-.68-.38-1.12-.94-1.29-1.67-.58-2.38-1.33-4.75-2.13-7.08-7.28-2.35-13.26-6.66-17.67-12.33,.03-.03,.06-.06,.09-.08-3.02-3.9-5.4-8.36-6.85-13.34h0c-1.22-4.17-1.88-8.64-1.88-13.32,0-1.5,.07-2.97,.2-4.42-5.27-4.98-11.42-9.11-18.46-11.2-.85-.25-1.47-.82-1.77-1.63-.3-.81-.19-1.63,.31-2.34,2.22-3.22,5.77-6.03,9.21-7.98,4.56-2.58,9.72-4.14,15.01-4.35,2.67-.1,5.24,.36,7.73,1.24,5.17-4.96,11.83-8.4,19.73-9.74h0c1.19-.2,2.4-.36,3.63-.48,1.28-.11,2.57-.18,3.91-.18,6.86,0,12.99,1.52,18.29,4.16,8.68,4.33,15.07,11.74,18.45,20.95,1.8,4.9,2.75,10.29,2.75,15.98Z"/>
  </g>
  <g>
    <path class="cls-2" d="M0,222.03v-29.13H34.75v6.18H8.13v4.36h26.63v5.92H8.13v6.48h26.63v6.18H0Z"/>
    <path class="cls-2" d="M79.68,222.64h-.99l-30.47-17.46v16.86h-8.13v-29.74h1.08l30.39,17.38v-16.77h8.13v29.74Z"/>
    <path class="cls-2" d="M112.34,222.03l-9.98-10.85h-8.82v10.85h-8.13v-29.13h26.76c5.58,0,10.33,2.9,10.33,8.95,0,5.49-4.06,8.64-9.21,8.9h-1.3l11.19,11.28h-10.85Zm-2.07-22.99h-16.73v6.35h17.03c2.29,0,3.98-.99,3.98-3.29,0-1.99-1.73-3.07-4.28-3.07Z"/>
    <path class="cls-2" d="M146.68,222.81c-10.46,0-21.18-4.23-21.18-15.34s10.68-15.34,21.18-15.34,21.18,4.28,21.18,15.34-10.59,15.34-21.18,15.34Zm0-24.68c-7.69,0-12.62,3.42-12.62,9.34s4.93,9.34,12.62,9.34,12.53-3.37,12.53-9.34-4.93-9.34-12.53-9.34Z"/>
    <path class="cls-2" d="M172.11,222.03v-29.13h8.13v22.65h26.41v6.48h-34.53Z"/>
    <path class="cls-2" d="M210.48,222.03v-29.13h8.13v22.65h26.41v6.48h-34.53Z"/>
    <path class="cls-2" d="M286.23,222.03v-16.21l-14.18,9.12h-.99l-14.09-8.99v16.08h-8.13v-29.74h1.04l21.7,13.96,21.79-13.96h.99v29.74h-8.13Z"/>
    <path class="cls-2" d="M300.08,222.03v-29.13h34.75v6.18h-26.63v4.36h26.63v5.92h-26.63v6.48h26.63v6.18h-34.75Z"/>
    <path class="cls-2" d="M379.76,222.64h-.99l-30.47-17.46v16.86h-8.13v-29.74h1.08l30.39,17.38v-16.77h8.13v29.74Z"/>
    <path class="cls-2" d="M407.62,199.38v22.65h-8.08v-22.65h-16.25v-6.48h40.59v6.48h-16.25Z"/>
    <path class="cls-2" d="M466.33,222.03l-9.98-10.85h-8.82v10.85h-8.13v-29.13h26.76c5.58,0,10.33,2.9,10.33,8.95,0,5.49-4.06,8.64-9.21,8.9h-1.3l11.19,11.28h-10.85Zm-2.07-22.99h-16.73v6.35h17.03c2.29,0,3.98-.99,3.98-3.29,0-1.99-1.73-3.07-4.28-3.07Z"/>
    <path class="cls-2" d="M481.78,222.03v-29.13h34.75v6.18h-26.63v4.36h26.63v5.92h-26.63v6.48h26.63v6.18h-34.75Z"/>
    <path class="cls-2" d="M547.55,222.29h-8.6l-19.23-29.39h10.16l13.4,21.74,13.53-21.74h9.98l-19.23,29.39Z"/>
    <path class="cls-2" d="M570.39,222.03v-29.13h8.13v29.13h-8.13Z"/>
    <path class="cls-2" d="M584.3,222.03v-29.13h34.75v6.18h-26.63v4.36h26.63v5.92h-26.63v6.48h26.63v6.18h-34.75Z"/>
    <path class="cls-2" d="M668.95,222.29h-8.39l-5.32-8.21-5.27,8.21h-8.43l-19.32-29.39h10.03l13.74,22,4.84-7.69-9.21-14.31h9.25l4.41,7.13,4.49-7.13h9.03l-9.16,14.26,4.84,7.74,13.92-22h9.81l-19.28,29.39Z"/>
    <path class="cls-2" d="M691.79,222.03v-29.13h34.75v6.18h-26.63v4.36h26.63v5.92h-26.63v6.48h26.63v6.18h-34.75Z"/>
    <path class="cls-2" d="M758.8,222.03l-9.98-10.85h-8.82v10.85h-8.13v-29.13h26.76c5.58,0,10.33,2.9,10.33,8.95,0,5.49-4.06,8.64-9.21,8.9h-1.3l11.19,11.28h-10.85Zm-2.07-22.99h-16.73v6.35h17.03c2.29,0,3.98-.99,3.98-3.29,0-1.99-1.73-3.07-4.28-3.07Z"/>
  </g>
</svg>