<?xml version="1.0" encoding="utf-8"?>
<!-- Generator: Adobe Illustrator 25.2.3, SVG Export Plug-In . SVG Version: 6.00 Build 0)  -->
<svg version="1.1" id="Layer_1" xmlns="http://www.w3.org/2000/svg" xmlns:xlink="http://www.w3.org/1999/xlink" x="0px" y="0px"
	 viewBox="0 0 509.6 85.2" style="enable-background:new 0 0 509.6 85.2;" xml:space="preserve">
<style type="text/css">
	.st0{fill:#000001;}
	.st1{fill:#FFFFFF;}
</style>
<g>
	<path class="st0" d="M14.6,55c-7.8,0-8.9-8-8.9-12.5c0-5.7,2.1-12.5,8.9-12.5c4,0,6.2,2.8,6.8,5.2l3.8-1c-0.8-2-2.7-7.4-10.6-7.4
		c-6.3,0-13,4-13,15.6c0,7.5,3.3,15.6,13,15.6c5.5,0,9.3-2.4,11-8.1l-3.8-0.9C21,52.3,18.9,55,14.6,55z"/>
	<path class="st0" d="M39.1,32.2c-7.6,0-10.5,6.5-10.5,12.9c0,5,1.6,12.9,10.5,12.9c7.6,0,10.5-6.5,10.5-12.9
		C49.5,40.1,47.9,32.2,39.1,32.2z M39.1,55c-5.2,0-6.6-5.2-6.6-10c0-4.8,1.3-9.9,6.6-9.9s6.6,5.1,6.6,9.9C45.7,49.9,44.3,55,39.1,55
		z"/>
	<path class="st0" d="M63.8,46.9c-0.7,2.2-1.1,3.7-2,6.9h-0.2c-0.9-3.3-1.3-4.8-2-6.9l-4.3-14.2h-4.1l8.1,24.8h4.6L72,32.7h-3.7
		L63.8,46.9z"/>
	<path class="st0" d="M84.1,32.2c-8.8,0-10.4,7.9-10.4,12.9c0,5,1.6,12.9,10.4,12.9c4.5,0,7.6-2.3,9.2-6.2l-3.2-1.1
		c-0.4,1.3-1.9,4.4-6,4.4c-3.3,0-6.4-2.3-6.6-9h16.3v-1.8C93.8,38.3,91.3,32.2,84.1,32.2z M77.6,43.2c0.5-5.1,2.6-8.1,6.5-8.1
		c3.9,0,6,3.7,6,8.1H77.6z"/>
	<path class="st0" d="M102.1,37.1L102.1,37.1l-0.1-4.4h-3.7v24.8h3.7V40.3c3.1-4.2,6.4-4.2,8.3-4.2v-3.7
		C107.2,32.4,104.3,34.1,102.1,37.1z"/>
	<path class="st0" d="M126,32.2c-3.8,0-6.4,2.7-8.4,4.5V24.9h-3.7v32.6h3.7V39.8c1.5-1.8,3.7-4.3,7.2-4.3c3.1,0,3.6,2.5,3.6,5v17
		h3.7V39.2C132.1,34.5,129.8,32.2,126,32.2z"/>
	<path class="st0" d="M147.1,32.2c-7.6,0-10.4,6.5-10.4,12.9c0,5,1.6,12.9,10.4,12.9c7.6,0,10.5-6.5,10.5-12.9
		C157.5,40.1,155.9,32.2,147.1,32.2z M147.1,55c-5.2,0-6.6-5.2-6.6-10c0-4.8,1.3-9.9,6.6-9.9s6.6,5.1,6.6,9.9
		C153.7,49.9,152.3,55,147.1,55z"/>
	<rect x="162.4" y="24.9" class="st0" width="3.7" height="32.6"/>
	<path class="st0" d="M186.7,35.9c-2.6-3-4.8-3.7-7.2-3.7c-3.8,0-8.6,2.8-8.6,12.8c0,8.2,3.4,13,9,13c3.8,0,6-2.4,6.8-3.7h0.1v3.2
		h3.7V24.9h-3.7L186.7,35.9L186.7,35.9z M186.7,51.2c-0.7,1.4-2.8,3.7-6,3.7c-5.2,0-6-6.1-6-10.2c0-3.2,0.7-9.5,6-9.5
		c2.4,0,4.7,1.8,6,3.7V51.2z"/>
	<path class="st0" d="M205.4,32.2c-8.8,0-10.5,7.9-10.5,12.9c0,5,1.6,12.9,10.5,12.9c4.5,0,7.6-2.3,9.2-6.2l-3.2-1.1
		c-0.4,1.3-1.9,4.4-6,4.4c-3.3,0-6.4-2.3-6.6-9h16.3v-1.8C215.1,38.3,212.5,32.2,205.4,32.2z M198.8,43.2c0.5-5.1,2.6-8.1,6.5-8.1
		c3.9,0,6,3.7,6,8.1H198.8z"/>
	<path class="st0" d="M223.4,37.1L223.4,37.1l-0.1-4.4h-3.7v24.8h3.7V40.3c3.1-4.2,6.4-4.2,8.3-4.2v-3.7
		C228.5,32.4,225.6,34.1,223.4,37.1z"/>
	<path class="st0" d="M263.8,41.5c0-4.4-1-9.4-8.3-9.4c-6,0-7.9,3.2-9,6.2l3.2,1c1.1-2.7,2.5-4.4,5.6-4.4c4.8,0,4.8,4,4.8,5.7v1.6
		h-3.6c-6.8,0-11.2,2.8-11.2,8.5c0,3.2,1.8,7,6.9,7c2.9,0,5.4-1.3,7.8-4.5h0.1v4.2h3.9c-0.2-1.4-0.2-2.3-0.2-2.9L263.8,41.5
		L263.8,41.5z M260.1,50.6c-3.4,3.9-5.4,4.2-6.9,4.2c-3.1,0-4.2-2.1-4.2-4.4c0-3.7,3.1-5.4,8.4-5.4h2.7L260.1,50.6L260.1,50.6z"/>
	<path class="st0" d="M277.7,55c-2.7,0-2.9-1.9-2.9-4V37.4h5.8v-2.8h-5.8V27l-3.7,1.6v6.1h-3.7v2.8h3.7v14.2c0,2.8,0.9,6.4,6.3,6.4
		c0.6,0,2.1-0.2,3.5-0.7v-2.9C279.5,54.8,278.9,55,277.7,55z"/>
</g>
<rect x="297.2" class="st0" width="212.4" height="85.2"/>
<path class="st1" d="M464.8,27.8c0.2,2.4-1.8,6-3.1,6.7l-0.9-1c1.2-1.8,1-5.8-0.2-6.4l0.1-0.3c1,0,2.6,0.3,3.2,0.5
	C464.4,27.6,464.4,27.6,464.8,27.8"/>
<path class="st1" d="M482.8,49.1c0,4.7-3.4,8.1-9.3,8.1c-2.3,0-5.4-0.5-6.8-1.2c0,0-0.1-0.2-0.1-1c0-2,0.2-5.3,0.2-5.9h1.2
	c0.1,0.6,0.2,1.4,0.5,2.4c0.8,2.7,2.9,3.7,5.4,3.7c2.6,0,4.8-1.4,4.8-4.3c0-2.2-1.4-3.3-4-5.5l-1.5-1.3c-3.3-2.8-5.9-5.2-5.9-8.9
	c0-4.1,3.3-7.3,8.8-7.3c2.3,0,4.6,0.4,5.5,0.6c0.3,0.1,0.5,0.1,0.5,0.4c0,0.5-0.2,2.8-0.2,5.6h-1.1c-0.8-2.8-1.3-4.7-5.2-4.7
	c-3.1,0-4.3,2.1-4.3,4c0,1.8,1.4,3.2,4.1,5.5l1.5,1.3C481,43.8,482.8,45.6,482.8,49.1"/>
<path class="st1" d="M428.1,29.5c-1.6,0-2.9,0.5-4.4,2.2c-1.2,1.5-5.6,10-6.6,12.3c-0.4,0.8-0.6,0.9-0.6,2.6v3.5
	c0,0.6,0,1.9,0.1,3.4c0.1,1,0.4,1.8,1.5,2c0.5,0.1,1.7,0.1,2.2,0.1v1.1h-12.2v-1.1c0.5,0,1.9-0.1,2.2-0.1c0.4-0.1,1.2-0.2,1.4-2
	c0.1-1.5,0.1-2.8,0.1-3.4v-3.7c0-1.3-0.1-1.3-0.9-2.8c-0.5-1-4.8-9.1-6.1-11c-1.5-2.2-2.4-3.1-4.8-3.1v-1.1h7.9c0,0,0.1,0.5,1.2,2.7
	c0.5,1.1,5.2,10,5.8,11c0,0,4.9-9.4,7.2-13.8h5.9L428.1,29.5L428.1,29.5z"/>
<path class="st1" d="M367.2,50.5c0,0-0.9,4.3-1.2,5.3c-0.2,0.8-0.4,0.9-0.4,0.9h-19.4v-1.1c0.5,0,1.8-0.1,2.1-0.2
	c0.7-0.1,1-0.7,1.2-1.7c0.2-1.3,0.2-4.2,0.2-7.5v-7.1c0-5.5,0-6.3-0.1-7.5c-0.1-1.2-0.3-1.8-1.5-2.1c-0.3-0.1-1.3-0.1-1.7-0.1v-1.1
	h8.1v3.2c0,0,0,1.9,0,7.4v7.1c0,5,0,7.1,0.7,7.7c0.6,0.5,2.1,0.7,4.9,0.7c2.5,0,3.4-0.1,4.3-1c0.7-0.7,1.1-1.5,1.5-3.1
	C365.8,50.5,367.2,50.5,367.2,50.5z"/>
<path class="st1" d="M343.7,50.5c0,0-0.9,4.3-1.2,5.3c-0.2,0.8-0.3,0.9-0.3,0.9h-19.5v-1.1c0.5,0,1.8-0.1,2.1-0.2
	c0.7-0.1,1-0.7,1.2-1.7c0.2-1.3,0.2-4.2,0.2-7.5v-7.1c0-5.5,0-6.3-0.1-7.5c-0.1-1.2-0.3-1.8-1.5-2.1c-0.3-0.1-1.3-0.1-1.7-0.1v-1.1
	h8.1v3.2c0,0,0,1.9,0,7.4v7.1c0,5,0,7.1,0.7,7.7c0.6,0.5,2.1,0.7,4.9,0.7c2.5,0,3.4-0.1,4.2-1c0.7-0.7,1.1-1.5,1.5-3.1
	C342.2,50.5,343.7,50.5,343.7,50.5z"/>
<path class="st1" d="M459.1,42c0,5-1.9,8.7-4,10.8c-1.7,1.7-5.1,4-11.8,4h-14.1v-1.1c2.4-0.1,3.3,0,3.6-2C433,52,433,47.9,433,46
	v-6.8c0-5.5,0-6.3-0.1-7.5c-0.1-1.2-0.4-1.8-1.6-2.1c-0.3-0.1-1.3-0.1-1.8-0.1v-1.1H441c4.5,0,10.6,0,14.5,4.1
	C457.4,34.4,459.1,37.5,459.1,42 M454.1,43c0-4.7-1.9-7.7-3.4-9.1c-3.3-3.2-7.3-3.6-10.1-3.6c-0.7,0-2,0.1-2.3,0.2
	c-0.3,0.2-0.4,0.4-0.4,0.7c0,1.2,0,4.3,0,7.2v5.3c0,3.8,0.1,6.5,0.1,7.2c0,0.9,0.1,2.3,0.4,2.7c0.5,0.7,1.8,1.4,4.6,1.4
	c3.6,0,6-0.7,8.1-2.6C453.3,50.6,454.1,46.7,454.1,43"/>
<path class="st1" d="M398.9,41.9c0,8.5-5.5,15.3-14.7,15.3c-10.2,0-14.2-7.9-14.2-14.7c0-6.9,4.3-14.7,14.6-14.7
	C393.6,27.9,398.9,33.6,398.9,41.9 M393.5,43.2c0-8.1-4.2-13.2-9.9-13.2c-4.2,0-8.3,3.2-8.3,11.5c0,7,3.5,13.5,9.9,13.5
	C390.4,55,393.5,50.9,393.5,43.2"/>
</svg>
