<svg id="Layer_1" data-name="Layer 1" xmlns="http://www.w3.org/2000/svg" viewBox="0 0 432 170.24">
  <title>white</title>
  <g>
    <path d="M130,79.57c3.38,6,14.55,25.8,14.55,25.8,46.88-55.76,112-50.51,125.37-49.11C257.33,47.84,239.11,42,218.52,41.83,190.22,41.83,159.65,51.82,130,79.57Z" fill="#fff"/>
    <path d="M110.2,44.4c4.85,8.32,11.57,20.44,11.57,20.44,24.29-21.31,55-34.43,87.24-34.43a90.7,90.7,0,0,1,24.76,3.2c-6.06-3.84-22.47-14.18-52-14.18C155.52,19.43,133.38,27.79,110.2,44.4Z" fill="#fff"/>
    <path d="M168.43,9.38a85,85,0,0,1,26.51,4C177.54.64,136.66-9,92.8,13.54c0,0,7.19,12.84,9.92,17.58C122.07,18.75,144.23,9.38,168.43,9.38Z" fill="#fff"/>
    <path d="M180.24,163.11l-15.36-42.06h-6.16l-7.54,20.65c-2.24,6.06-5.26,14.43-7.77,20.78-1.51,3.76-2.16,4.6-6.69,4.82v2h15.82v-2l-3.74-.36c-2.15-.21-2.37-.9-1.8-2.78,1.22-4.19,2.74-8.51,4.39-13.47h16.09L172.29,164c.72,2,.37,2.79-1.93,3l-3.24.28v2h19.37v-2C182.33,166.94,181.54,166.73,180.24,163.11ZM152.31,148c2.31-7,4.83-13.81,7-19.95h.22L166.63,148Z" fill="#fff"/>
    <path d="M214.21,160H214s-9.1-21.61-10.81-25.65H188.75v2c5.1.26,5.54.35,5.54,4v18.68a44.22,44.22,0,0,1-.37,6.15,2.6,2.6,0,0,1-2.59,2.09l-2.29.2v2h14.15v-2l-2.51-.2c-1.88-.22-2.88-.7-3.1-2.09a46.1,46.1,0,0,1-.36-6.15v-20.3h.29l13.3,30.7h2.3l13.53-30.7h.27v24.76c0,3.64-.35,3.7-5.38,4v2h18v-2c-5.1-.28-5.53-.34-5.53-4V140.24c0-3.63.35-3.72,5.53-4v-2H225.41C223.75,138.34,214.21,160,214.21,160Z" fill="#fff"/>
    <path d="M273.17,165.48c-1.3,1.11-3.81,1.54-7.83,1.54-3.33,0-5.62-.35-6.4-.92s-1.16-1.81-1.16-3.83v-9.64h6.9c4.67,0,5.6.84,6.11,4.61h2V145.73h-2c-.51,3.77-1.44,4.6-6.11,4.6h-6.9v-12c0-1.25.36-1.73,1.59-1.73h5.24c5.4,0,8.12.7,8.91,6.48h2V134.3H244.9v2c5.12.26,5.54.35,5.54,4v23.15c0,3.64-.35,3.7-5.54,4v1.95h32l.65-9.48h-2C275.1,162,274.24,164.44,273.17,165.48Z" fill="#fff"/>
    <path d="M316.42,160.94c-.76-4.39-1.67-7.67-7.41-8.92v-.14c5.1-.57,8.84-3.62,8.84-8.51,0-5.24-3.45-9.07-13.22-9.07H284.35v2c5.09.26,5.52.35,5.52,4v23.14c0,3.64-.36,3.7-5.52,4v2h18.4v-2c-5.1-.28-5.54-.34-5.54-4V153.13h4.61c3.09,0,4.78.92,5.6,2.59,1.13,2.28,1.18,6,2.51,9.48,1.08,2.77,2.76,4.12,7.25,4.12h5.05v-2a5.2,5.2,0,0,1-3.74-1.32C317.85,165.32,317,164.42,316.42,160.94Zm-14.18-10.11h-5V138.77c0-1.89,1.44-2.16,4.82-2.16,3.59,0,8,1.19,8,7.18C310,148.67,307.14,150.83,302.24,150.83Z" fill="#fff"/>
    <path d="M325.64,136.26c5.1.26,5.54.34,5.54,4v23.15c0,3.64-.36,3.7-5.54,4v1.95h18.41v-1.95c-5.1-.28-5.53-.34-5.53-4V140.23c0-3.63.36-3.71,5.53-4v-2H325.64Z" fill="#fff"/>
    <path d="M369.52,167.85c-10.86,0-12.8-10.18-12.8-16.32,0-8.86,4.11-15.91,12.58-15.76,7.05,0,9.27,4.32,10.35,8.71h2v-8.93c-3.22-1.45-7.91-2-12-2.09-6.4,0-12.08,1.62-15.46,4.81-3.59,3.36-5.47,7.75-5.47,13.83,0,5.77,1.73,10.31,5,13.45s8.56,4.6,15.1,4.6a32.75,32.75,0,0,0,13-2.3l.86-9.35h-2C378.93,163.38,377.13,167.85,369.52,167.85Z" fill="#fff"/>
    <path d="M419.48,164.78,408.13,134.3H402l-5.75,15.48c-1.58,4.27-3.88,10.48-5.54,14.45-1,2.5-1.87,2.93-5.53,3.13v2h13.37v-2l-3.3-.28c-1.53-.14-1.53-1-1.24-2.16.58-2.09,1.72-5.51,2.81-8.37h12l3.15,8.58c.43,1.18.43,2-1,2l-2.86.2v2h16.61v-2C421.43,167.23,420.34,167.08,419.48,164.78Zm-21.86-10.53,5.24-14.44H403l5,14.44Z" fill="#fff"/>
    <path d="M24.6,119.88c-7.91,0-14.25,2.37-18.27,6.77C2.45,130.82,0,137.18,0,145.07s2.45,14.22,6.33,18.41c4,4.4,10.36,6.76,18.27,6.76s14.24-2.36,18.26-6.76c4-4.19,6.33-10.61,6.33-18.41s-2.37-14.25-6.33-18.42C38.84,122.25,32.58,119.88,24.6,119.88Zm0,47.92c-12.8,0-15.74-12.48-15.89-22.73.15-10.26,3.09-22.75,15.89-22.75s15.74,12.49,15.88,22.75C40.34,155.32,37.39,167.8,24.6,167.8Z" fill="#fff"/>
    <path d="M81.1,136.14l2.8.27c1.8.14,2.81.69,3,2.23a45,45,0,0,1,.36,6.14v15.69H87c-6.41-8.86-12.5-17.29-19-26.28H54.06v1.95c5.1.27,5.54.35,5.54,4v18.48a44.32,44.32,0,0,1-.37,6.15A2.58,2.58,0,0,1,56.64,167l-2.3.28v2H68.66v-2L66,167c-1.86-.14-2.87-.63-3.09-2.22a46.22,46.22,0,0,1-.36-6.15v-19.1h.29C70.12,149.73,77,159.22,84.24,169.2h6V144.78a53,53,0,0,1,.43-6.34,2.68,2.68,0,0,1,2.52-2l2.3-.27v-1.95H81.1Z" fill="#fff"/>
    <path d="M127.67,165.36c-1.29,1.12-3.8,1.54-7.83,1.54-3.31,0-5.61-.35-6.4-.92s-1.15-1.8-1.15-3.82v-9.65h6.9c4.67,0,5.6.84,6.11,4.61h2V145.61h-2c-.51,3.77-1.44,4.6-6.11,4.6h-6.9v-12c0-1.24.36-1.73,1.59-1.73h5.24c5.39,0,8.12.69,8.92,6.48h2v-8.78H99.42v1.95c5.09.27,5.54.35,5.54,4v23.15c0,3.64-.36,3.7-5.54,4v2h32l.65-9.49h-2C129.61,161.87,128.75,164.32,127.67,165.36Z" fill="#fff"/>
    <polygon points="146.76 123.67 86.54 16.9 82 19.58 143.43 132.78 146.76 123.67" fill="#fff"/>
    <path d="M424.89,124.42a7.06,7.06,0,1,0,7.11,7.06A7.08,7.08,0,0,0,424.89,124.42Zm0,13.23a6.18,6.18,0,1,1,5.86-6.17A6,6,0,0,1,424.89,137.65Z" fill="#fff"/>
    <path d="M427.35,133.3c-.16-.87-.35-1.59-1.52-1.88v0c1.09-.17,1.89-.78,1.89-1.86s-.64-1.83-2.54-1.83h-3.52v.39l.61.08c.33.05.39.21.39.58v5.38c0,.33-.06.5-.39.54l-.61.08v.39h3.28v-.39l-.58-.08c-.35,0-.43-.21-.43-.54v-2.41h.66a1.15,1.15,0,0,1,1.18.59c.17.37.23,1.21.51,2,.19.55.58.84,1.42.84h.86v-.29a1.66,1.66,0,0,1-.68-.33A2.34,2.34,0,0,1,427.35,133.3Zm-2.68-2.13h-.74v-2.52c0-.3.08-.42.88-.42s1.54.26,1.54,1.45S425.67,131.17,424.67,131.17Z" fill="#fff"/>
  </g>
</svg>
