<svg xmlns="http://www.w3.org/2000/svg" viewBox="0 0 700.75 136.38"><title>color</title><rect x="2" y="2" width="225" height="132.38" rx="23.2" ry="23.2" fill="#0060a9"/><path d="M203.79,4A21.22,21.22,0,0,1,225,25.2v86a21.22,21.22,0,0,1-21.2,21.2H25.2A21.22,21.22,0,0,1,4,111.18v-86A21.22,21.22,0,0,1,25.2,4H203.79m0-4H25.2A25.27,25.27,0,0,0,0,25.2v86a25.27,25.27,0,0,0,25.2,25.2H203.79a25.27,25.27,0,0,0,25.2-25.2v-86A25.27,25.27,0,0,0,203.79,0Z" fill="#fff"/><path d="M203.79,2A23.23,23.23,0,0,1,227,25.2v86a23.23,23.23,0,0,1-23.2,23.2H25.2A23.23,23.23,0,0,1,2,111.18v-86A23.23,23.23,0,0,1,25.2,2H203.79m0-2H25.2A25.27,25.27,0,0,0,0,25.2v86a25.27,25.27,0,0,0,25.2,25.2H203.79a25.27,25.27,0,0,0,25.2-25.2v-86A25.27,25.27,0,0,0,203.79,0Z" fill="#0060a9"/><path d="M205.81,20.76v-.6c-1,.15-6.56.6-8.67.6s-7.61-.45-8.57-.6v.6c3.6,1.2,4.65,5.25,4.65,45.77,0,39.92-.95,44.57-4.65,45.77v1.21h17.24V112.3c-3.6-1.35-4.65-4.8-4.65-45.77C201.16,26.61,202,22.11,205.81,20.76Z" fill="#fff"/><path d="M169.79,66.12c-4.87-19.06-9.62-38.87-11-45.92a41.27,41.27,0,0,1-4.65.6,27.6,27.6,0,0,1-5.5-.6A16.84,16.84,0,0,1,150,27c0,3.6-2.75,12.75-8.36,33.31C136.48,79.33,127.38,109,123,112.34v1.21h14.59v-1.21c-.84-.75-2.33-1.65-2.33-5.55,0-5.7,6.35-29.26,7.09-32.11,3.6-.15,7.09-.3,10.68-.3s7.09,0,10.57.3c1.9,7.5,8.78,38.87,8.78,38.87h13v-1.2C180.79,110.09,174.34,84,169.79,66.12Zm-16.92,3a80.48,80.48,0,0,1-9.1-.45c1.38-5.25,6.66-27,9.1-35.71,1.59,5.1,6.66,25.81,9.31,35.71C159,69,155.94,69.12,152.87,69.12Z" fill="#fff"/><path d="M113.06,63.45a23.25,23.25,0,0,0,7.84-16.65q0-12.13-4.73-17.59A22.76,22.76,0,0,0,103.73,22Q96,20.17,81.08,20.17h-20c2.45,4.25,3.4,9.83-2.65,14.68,3.06,3.66,6.14,11.4,6.65,13.63S67,53.56,63.5,56c-1.74,1.22-3,5.09-1.12,6.51s5.47,6.92,6.44,9.36S69.77,77,66,78.4c-1.61.61-3.72,1.22-3.85,3.05-.11,1.47.15,3.47-1.57,4.94a6,6,0,0,1-1.64,1c1.23,1.22,1,3.25-1,4.68s-1.26,3.66-.57,5.09.45,6.11-6.24,8.55c-6.2,2.26-22.79,1.91-26.77,1.84l-3.78,6.06h65.5c12.7,0,21.37,0,25.2-1.67C124.4,106.28,132.76,76.68,113.06,63.45ZM100.15,79.28c-1.47.56-3.4,1.12-3.53,2.79-.1,1.35.13,3.18-1.44,4.53a5.52,5.52,0,0,1-1.5.88c1.12,1.12,1,3-.9,4.28s-1.16,3.35-.53,4.66.41,5.59-5.71,7.82-20.88,1.61-19.35,1.49c11.3-.91,8.15-11.55,8.13-12.18a2.18,2.18,0,0,1,1.32-2c3.29-1.62,3.46-3.47,2.51-5a4.86,4.86,0,0,0-.56-.74c2.17-1,4-2.61,2.71-5.71s.78-3.68,2-4.58,2.84-2,3.73-2.63c4.07-2.86.19-6-.46-6.46a45.4,45.4,0,0,1-7.18-8.2c-2.39-3.73,0-8.57,1.47-12,4-1.29,6-18.43-7.78-20.73L92,28.2c1.56.65,8,5.16,1.19,11.2,2.81,3.35,5.62,10.43,6.1,12.48s1.75,4.65-1.45,6.89c-1.59,1.12-2.79,4.66-1,6s5,6.34,5.89,8.57S103.62,78,100.15,79.28Z" fill="#fff"/><path d="M246.87,22.21H263.1c7,0,10.35,5.47,10.35,11.76,0,5.81-2.71,9.55-6.29,10.58,4,.76,6.94,5.6,6.94,11.35,0,7-3.35,12.45-10.47,12.45H246.87ZM261.22,41c2.82,0,4.18-2.28,4.18-5.4S264,30.1,261.22,30.1h-6.47V41Zm.29,19.51c2.94,0,4.53-2.21,4.53-5.81,0-3.18-1.53-5.81-4.53-5.81h-6.76V60.47Z" fill="#0060a9"/><path d="M290,34.11c7.82,0,12.23,7.47,12.23,17.85v2.35H284.42c.29,4.57,2.59,8.16,6.88,8.16a8.07,8.07,0,0,0,6.17-3.25l3.23,5a12.91,12.91,0,0,1-10.17,5c-8,0-13.23-7.06-13.23-17.57C277.31,41.93,282.13,34.11,290,34.11Zm-5.59,14.53h11c-.12-3.46-1.41-7.82-5.53-7.82C286,40.82,284.54,45.18,284.42,48.64Z" fill="#0060a9"/><path d="M322.21,46.36c0-3.53-1.35-4.91-3.71-4.91s-4.17,2.14-5.17,4.15V68.36h-7.06V34.94h7.06V39.3c1.53-2.63,4.71-5.19,8.35-5.19,5.23,0,7.59,3.6,7.59,9.13V68.36h-7.06Z" fill="#0060a9"/><path d="M346.1,34.11c7.82,0,12.23,7.47,12.23,17.85v2.35H340.52c.29,4.57,2.59,8.16,6.88,8.16a8.07,8.07,0,0,0,6.17-3.25l3.23,5a12.91,12.91,0,0,1-10.17,5c-8,0-13.23-7.06-13.23-17.57C333.4,41.93,338.22,34.11,346.1,34.11Zm-5.59,14.53h11c-.12-3.46-1.41-7.82-5.53-7.82C342,40.82,340.63,45.18,340.52,48.64Z" fill="#0060a9"/><path d="M363.53,42.2h-3.65V34.94h3.65V32.31c0-6.85,3.35-10.79,8.29-10.79a8.74,8.74,0,0,1,4.71,1.18L375.23,29a2.37,2.37,0,0,0-1.76-.62c-1.71,0-2.82,1.38-2.82,3.94v2.63h4.65V42.2h-4.65V68.36h-7.12ZM378.47,25c0-2.77,1.94-5.05,4.23-5.05s4.23,2.28,4.23,5.05-1.88,5-4.23,5S378.47,27.81,378.47,25Zm.71,9.89h7.06V68.36h-7.06Z" fill="#0060a9"/><path d="M393,60.33V42.2h-3.7V34.94H393V25.81h7.06v9.13h4.7V42.2h-4.7V58.39c0,2.14.71,3.46,2.06,3.46a2.62,2.62,0,0,0,2.12-1l1.47,6.37a7.39,7.39,0,0,1-5.47,1.94C395.32,69.19,393,66.21,393,60.33Z" fill="#0060a9"/><path d="M410.27,58.6a10.93,10.93,0,0,0,7.82,4.08c2.71,0,4.17-1.31,4.17-3.46s-2.18-3.25-4.88-4.29c-4-1.52-9.17-3.32-9.17-10.79,0-5.4,3.71-10,10.35-10a13.52,13.52,0,0,1,9.88,4.29L425.62,44a9,9,0,0,0-6.94-3.46c-2.23,0-3.76,1.25-3.76,3.11s1.94,3,4.59,3.94c4.12,1.52,9.53,3.53,9.53,11.21,0,6-4.18,10.38-10.82,10.38a13.84,13.84,0,0,1-10.94-4.77Z" fill="#0060a9"/><path d="M465.55,60.12H452.73l-1.82,8.23h-8.17l11.64-46.15h9.53l11.64,46.15h-8.17ZM454.32,52H464l-4.82-21.58Z" fill="#0060a9"/><path d="M479.83,58.6a10.93,10.93,0,0,0,7.82,4.08c2.71,0,4.17-1.31,4.17-3.46s-2.18-3.25-4.88-4.29c-4-1.52-9.17-3.32-9.17-10.79,0-5.4,3.71-10,10.35-10A13.52,13.52,0,0,1,498,38.4L495.18,44a9,9,0,0,0-6.94-3.46c-2.23,0-3.76,1.25-3.76,3.11s1.94,3,4.59,3.94c4.12,1.52,9.53,3.53,9.53,11.21,0,6-4.18,10.38-10.82,10.38a13.84,13.84,0,0,1-10.94-4.77Z" fill="#0060a9"/><path d="M503.42,58.6a10.93,10.93,0,0,0,7.82,4.08c2.71,0,4.18-1.31,4.18-3.46s-2.18-3.25-4.88-4.29c-4-1.52-9.17-3.32-9.17-10.79,0-5.4,3.71-10,10.35-10a13.52,13.52,0,0,1,9.88,4.29L518.77,44a9,9,0,0,0-6.94-3.46c-2.23,0-3.76,1.25-3.76,3.11s1.94,3,4.59,3.94c4.12,1.52,9.53,3.53,9.53,11.21,0,6-4.18,10.38-10.82,10.38a13.84,13.84,0,0,1-10.94-4.77Z" fill="#0060a9"/><path d="M524.57,51.61c0-9.34,4.47-17.5,12.82-17.5s12.88,8.16,12.88,17.5-4.41,17.57-12.88,17.57S524.57,61,524.57,51.61Zm18.41,0c0-5.47-1.71-10.17-5.59-10.17s-5.47,4.7-5.47,10.17,1.71,10.24,5.47,10.24S543,57.15,543,51.61Z" fill="#0060a9"/><path d="M566,34.11a10.66,10.66,0,0,1,9.06,4.5l-3.53,5.74c-1.29-1.87-2.82-2.91-4.76-2.91-4.06,0-6.47,4.36-6.47,10.17s2.41,10.24,6.47,10.24c1.94,0,3.47-1,4.76-2.91L575,64.69a10.66,10.66,0,0,1-9.06,4.5c-7.82,0-13-7.33-13-17.57S558.15,34.11,566,34.11Z" fill="#0060a9"/><path d="M577.35,25c0-2.77,1.94-5.05,4.23-5.05s4.23,2.28,4.23,5.05-1.88,5-4.23,5S577.35,27.81,577.35,25Zm.71,9.89h7.06V68.36h-7.06Z" fill="#0060a9"/><path d="M605.29,65a8.86,8.86,0,0,1-7.47,4.15c-4.47,0-8.76-3.94-8.76-11.07,0-7.33,4.29-10.79,8.76-10.79a8.53,8.53,0,0,1,7.47,3.94V46.84c0-3.6-1.88-5.81-5.23-5.81a9.3,9.3,0,0,0-7,3.6L590.41,39a14.79,14.79,0,0,1,10.94-4.84c6.17,0,11.06,3.25,11.06,11.83V68.36h-7.12Zm0-8.92a5.4,5.4,0,0,0-4.76-3.25c-2.65,0-4.41,2.21-4.41,5.4s1.76,5.33,4.41,5.33a5.22,5.22,0,0,0,4.76-3.18Z" fill="#0060a9"/><path d="M618.91,60.33V42.2h-3.7V34.94h3.7V25.81H626v9.13h4.7V42.2H626V58.39c0,2.14.71,3.46,2.06,3.46a2.62,2.62,0,0,0,2.12-1l1.47,6.37a7.39,7.39,0,0,1-5.47,1.94C621.2,69.19,618.91,66.21,618.91,60.33Z" fill="#0060a9"/><path d="M633.75,25c0-2.77,1.94-5.05,4.23-5.05s4.23,2.28,4.23,5.05-1.88,5-4.23,5S633.75,27.81,633.75,25Zm.71,9.89h7.06V68.36h-7.06Z" fill="#0060a9"/><path d="M645.49,51.61c0-9.34,4.47-17.5,12.82-17.5s12.88,8.16,12.88,17.5-4.41,17.57-12.88,17.57S645.49,61,645.49,51.61Zm18.41,0c0-5.47-1.71-10.17-5.59-10.17s-5.47,4.7-5.47,10.17,1.71,10.24,5.47,10.24S663.89,57.15,663.89,51.61Z" fill="#0060a9"/><path d="M691.33,46.36c0-3.53-1.35-4.91-3.71-4.91s-4.17,2.14-5.17,4.15V68.36H675.4V34.94h7.06V39.3c1.53-2.63,4.71-5.19,8.35-5.19,5.23,0,7.59,3.6,7.59,9.13V68.36h-7.06Z" fill="#0060a9"/><path d="M262.39,97c-.92,5.8-2.93,15.93-10.14,15.93-6.79,0-6.24-8.69-5.09-15.93,1.25-7.86,3.55-15.93,10.14-15.93C264.3,81.08,263.47,90.18,262.39,97Zm-12.27,0c-.87,5.48-1.87,13.13,2.57,13.13s5.86-7.66,6.73-13.13,1.87-13.13-2.57-13.13C252.44,83.67,251,91.54,250.12,97Z" fill="#a9bcc3"/><path d="M269.41,93.1a6.51,6.51,0,0,1,4.48-2c3.75,0,3.53,3.46,3.07,6.34l-2.39,15.11h-2.68l2.35-14.82c.4-2.51.54-4.45-1.68-4.45-3,0-3.7,3.33-4,5.56l-2.17,13.71h-2.68L267,91.41h2.68Z" fill="#a9bcc3"/><path d="M282.22,102.53l-.1.62c-.33,2.1-.77,7.21,2.15,7.21,2.35,0,3.2-3.29,3.46-5h2.76c-.55,3.21-2.46,7.49-6.37,7.49-5.56,0-5.26-6.59-4.58-10.83.6-3.79,2.56-11,7.66-11,4.94,0,4.7,6.46,4.11,10.17l-.2,1.28Zm6.53-2.26,0-.37c.24-2,.83-6.3-2-6.3-2.55,0-3.88,4.78-4.18,6.67Z" fill="#a9bcc3"/><path d="M312.66,112.53H310l.26-1.65h-.08a4.93,4.93,0,0,1-3.81,2c-3.37,0-4.72-1.89-3.26-11.12.75-4.73,1.85-10.66,7-10.66a3.07,3.07,0,0,1,3,1.77h.08l.23-1.44H316Zm-2.34-19.27c-3,0-3.87,4.69-4.44,8.27-1.38,8.73,0,9.14,1.56,9.14,2.59,0,3.47-2.43,4.52-9.06C312.68,97.05,313,93.27,310.32,93.27Z" fill="#a9bcc3"/><path d="M327.25,95.74h-.08A3.7,3.7,0,0,0,324,93.59a3.18,3.18,0,0,0-3.08,2.8c-.32,2,1.21,3.25,2.68,4.65s2.94,3,2.5,5.76a6.91,6.91,0,0,1-6.72,6.05,5.62,5.62,0,0,1-3.6-1.44l.5-3.13a4.32,4.32,0,0,0,3.42,2.06,3.72,3.72,0,0,0,3.6-3.21c.33-2.1-1.13-3.5-2.62-5s-2.92-3.13-2.52-5.64a6.13,6.13,0,0,1,6.12-5.39,5.26,5.26,0,0,1,3.49,1.36Z" fill="#a9bcc3"/><path d="M338.36,95.74h-.08a3.7,3.7,0,0,0-3.16-2.14,3.18,3.18,0,0,0-3.08,2.8c-.32,2,1.21,3.25,2.68,4.65s2.94,3,2.5,5.76a6.91,6.91,0,0,1-6.72,6.05,5.62,5.62,0,0,1-3.6-1.44l.5-3.13a4.32,4.32,0,0,0,3.42,2.06,3.72,3.72,0,0,0,3.6-3.21c.33-2.1-1.13-3.5-2.62-5s-2.92-3.13-2.52-5.64a6.13,6.13,0,0,1,6.12-5.39,5.26,5.26,0,0,1,3.49,1.36Z" fill="#a9bcc3"/><path d="M352.19,102c-.63,4-2.22,10.91-7.78,10.91s-5-6.92-4.33-10.91,2.21-10.87,7.77-10.87S352.81,98,352.19,102Zm-9.34,0c-.33,2.06-1.25,8.4,2,8.4s4.3-6.34,4.62-8.4,1.24-8.36-2-8.36S343.16,99.93,342.84,102Z" fill="#a9bcc3"/><path d="M365.06,95a3.06,3.06,0,0,0-2.33-1.4c-3.46,0-4.74,6-5.12,8.44-.33,2.1-.86,8.32,2.31,8.32a4.07,4.07,0,0,0,2.93-1.89h.08l-.53,3.33a5.83,5.83,0,0,1-3.22,1.07c-4.86,0-5-6.83-4.4-10.46.63-4,2.62-11.32,8-11.32a5,5,0,0,1,2.79.82Z" fill="#a9bcc3"/><path d="M367.14,112.53h-2.68l3.34-21.12h2.68Zm2.7-25.36a1.68,1.68,0,0,1-1.7-2,2.45,2.45,0,0,1,2.33-2,1.66,1.66,0,0,1,1.66,2A2.45,2.45,0,0,1,369.83,87.17Z" fill="#a9bcc3"/><path d="M381.95,112.53h-2.68l.26-1.65h-.08a4.93,4.93,0,0,1-3.81,2c-3.37,0-4.72-1.89-3.26-11.12.75-4.73,1.85-10.66,7-10.66a3.07,3.07,0,0,1,3,1.77h.08l.23-1.44h2.68ZM379.6,93.27c-3,0-3.87,4.69-4.44,8.27-1.38,8.73,0,9.14,1.56,9.14,2.59,0,3.47-2.43,4.52-9.06C382,97.05,382.24,93.27,379.6,93.27Z" fill="#a9bcc3"/><path d="M395.83,93.88h-3.5l-3,18.65h-2.68l3-18.65h-2.26l.39-2.47H390l.91-5.76h2.68l-.91,5.76h3.5Z" fill="#a9bcc3"/><path d="M397,112.53h-2.68l3.34-21.12h2.68Zm2.7-25.36a1.68,1.68,0,0,1-1.7-2,2.45,2.45,0,0,1,2.33-2,1.66,1.66,0,0,1,1.66,2A2.45,2.45,0,0,1,399.69,87.17Z" fill="#a9bcc3"/><path d="M414,102c-.63,4-2.22,10.91-7.78,10.91s-5-6.92-4.33-10.91,2.21-10.87,7.77-10.87S414.66,98,414,102Zm-9.34,0c-.33,2.06-1.25,8.4,2,8.4s4.3-6.34,4.62-8.4,1.24-8.36-2-8.36S405,99.93,404.69,102Z" fill="#a9bcc3"/><path d="M421.48,93.1a6.51,6.51,0,0,1,4.48-2c3.75,0,3.53,3.46,3.07,6.34l-2.39,15.11H424l2.35-14.82c.4-2.51.54-4.45-1.68-4.45-3,0-3.7,3.33-4,5.56l-2.17,13.71h-2.68l3.34-21.12h2.68Z" fill="#a9bcc3"/><path d="M429.48,119.16l-1.83-.95,4.68-9.55,2.71,1.32Z" fill="#a9bcc3"/><path d="M453.28,93.1a6.51,6.51,0,0,1,4.48-2c3.87,0,3.54,3.38,3.07,6.34l-2.39,15.11h-2.68l2.32-14.66c.52-3.29.36-4.61-1.66-4.61-3,0-3.7,3.33-4,5.56l-2.17,13.71h-2.68l5.21-32.93h2.68Z" fill="#a9bcc3"/><path d="M468.26,91.41l-2.1,13.26c-.46,2.88-.73,5.68,1.9,5.68s3.28-2.8,3.78-5.68l2.1-13.26h2.68l-2.46,15.52c-.56,3.54-2.67,5.93-6.46,5.93s-5.15-2.35-4.58-5.93l2.46-15.52Z" fill="#a9bcc3"/><path d="M483,93.1a6.51,6.51,0,0,1,4.48-2c3.75,0,3.53,3.46,3.07,6.34l-2.39,15.11h-2.68l2.35-14.82c.4-2.51.54-4.45-1.68-4.45-3,0-3.7,3.33-4,5.56l-2.17,13.71H477.2l3.34-21.12h2.68Z" fill="#a9bcc3"/><path d="M500.35,110.89h-.08a4.93,4.93,0,0,1-3.81,2c-4.4,0-4.17-5.35-3.26-11.12s2.26-10.66,7-10.66a3.07,3.07,0,0,1,3,1.77h.08l2.1-13.26H508l-5.21,32.93h-2.68Zm.07-17.62c-3,0-4,5.27-4.44,8.27-.31,2-1.86,9.14,1.56,9.14,2.84,0,3.64-3.5,4.52-9.06C502.83,96.81,502.89,93.27,500.42,93.27Z" fill="#a9bcc3"/><path d="M512.48,94.21h.08c.81-1.48,2.23-3.17,4-3.13l-.5,3.13-.53,0c-2.76,0-3.47,2.68-4,6.05l-1.95,12.31h-2.68l3.34-21.12h2.68Z" fill="#a9bcc3"/><path d="M518.53,102.53l-.1.62c-.33,2.1-.77,7.21,2.15,7.21,2.35,0,3.2-3.29,3.46-5h2.76c-.55,3.21-2.46,7.49-6.37,7.49-5.56,0-5.26-6.59-4.58-10.83.6-3.79,2.56-11,7.66-11,4.94,0,4.7,6.46,4.11,10.17l-.2,1.28Zm6.53-2.26,0-.37c.24-2,.83-6.3-2-6.3-2.55,0-3.88,4.78-4.18,6.67Z" fill="#a9bcc3"/><path d="M537.54,110.89h-.08a4.93,4.93,0,0,1-3.81,2c-4.4,0-4.17-5.35-3.26-11.12s2.26-10.66,7-10.66a3.07,3.07,0,0,1,3,1.77h.08l2.1-13.26h2.68L540,112.53h-2.68Zm.07-17.62c-3,0-4,5.27-4.44,8.27-.31,2-1.86,9.14,1.56,9.14,2.84,0,3.64-3.5,4.52-9.06C540,96.81,540.08,93.27,537.61,93.27Z" fill="#a9bcc3"/><path d="M554.6,95.74h-.08a3.7,3.7,0,0,0-3.16-2.14,3.18,3.18,0,0,0-3.08,2.8c-.32,2,1.21,3.25,2.68,4.65s2.94,3,2.5,5.76a6.91,6.91,0,0,1-6.72,6.05,5.62,5.62,0,0,1-3.6-1.44l.5-3.13a4.32,4.32,0,0,0,3.42,2.06,3.72,3.72,0,0,0,3.6-3.21c.33-2.1-1.13-3.5-2.62-5s-2.92-3.13-2.52-5.64a6.13,6.13,0,0,1,6.12-5.39,5.26,5.26,0,0,1,3.49,1.36Z" fill="#a9bcc3"/><path d="M577.86,102c-.63,4-2.22,10.91-7.78,10.91s-5-6.92-4.33-10.91,2.21-10.87,7.77-10.87S578.49,98,577.86,102Zm-9.34,0c-.33,2.06-1.25,8.4,2,8.4s4.3-6.34,4.62-8.4,1.24-8.36-2-8.36S568.83,99.93,568.52,102Z" fill="#a9bcc3"/><path d="M589,93.88h-3.5l-3,18.65h-2.68l3-18.65h-2.26l.39-2.47h2.26l1-6.22c.57-3.58,1.88-5.93,4.89-5.93a5.32,5.32,0,0,1,2.28.45l-.46,2.92a2.63,2.63,0,0,0-1.79-.91c-1.48,0-1.89,1.28-2.22,3.38l-1,6.3h3.5Z" fill="#a9bcc3"/><path d="M602.62,79.6h2.68l-2.1,13.26h.08a4.28,4.28,0,0,1,3.57-1.77c4.9,0,4.3,5.89,3.54,10.66-.85,5.35-2.17,11.12-6.78,11.12a3.4,3.4,0,0,1-3.19-2h-.08l-.26,1.65h-2.68Zm5,21.94c.76-4.82.86-8.27-1.82-8.27-3.25,0-3.95,6.22-4.25,8.11-.41,2.59-1.8,9.3,1.62,9.3C605.4,110.68,606.52,108.79,607.67,101.54Z" fill="#a9bcc3"/><path d="M615.8,102.53l-.1.62c-.33,2.1-.77,7.21,2.15,7.21,2.35,0,3.2-3.29,3.46-5h2.76c-.55,3.21-2.46,7.49-6.37,7.49-5.56,0-5.26-6.59-4.58-10.83.6-3.79,2.56-11,7.66-11,4.94,0,4.7,6.46,4.11,10.17l-.2,1.28Zm6.53-2.26,0-.37c.24-2,.83-6.3-2-6.3-2.55,0-3.88,4.78-4.18,6.67Z" fill="#a9bcc3"/><path d="M632.18,93.1a6.51,6.51,0,0,1,4.48-2c3.75,0,3.53,3.46,3.07,6.34l-2.39,15.11h-2.68L637,97.71c.4-2.51.54-4.45-1.68-4.45-3,0-3.7,3.33-4,5.56l-2.17,13.71h-2.68l3.34-21.12h2.68Z" fill="#a9bcc3"/><path d="M645,102.53l-.1.62c-.33,2.1-.77,7.21,2.15,7.21,2.35,0,3.2-3.29,3.46-5h2.76c-.55,3.21-2.46,7.49-6.37,7.49-5.56,0-5.26-6.59-4.58-10.83.6-3.79,2.56-11,7.66-11,4.94,0,4.7,6.46,4.11,10.17l-.2,1.28Zm6.53-2.26,0-.37c.24-2,.83-6.3-2-6.3-2.55,0-3.88,4.78-4.18,6.67Z" fill="#a9bcc3"/><path d="M665.16,93.88h-3.5l-3,18.65H656l3-18.65h-2.26l.39-2.47h2.26l1-6.22c.57-3.58,1.88-5.93,4.89-5.93a5.32,5.32,0,0,1,2.28.45l-.46,2.92a2.63,2.63,0,0,0-1.79-.91c-1.48,0-1.89,1.28-2.22,3.38l-1,6.3h3.5Z" fill="#a9bcc3"/><path d="M666.57,112.53h-2.68l3.34-21.12h2.68Zm2.7-25.36a1.68,1.68,0,0,1-1.7-2,2.45,2.45,0,0,1,2.33-2,1.66,1.66,0,0,1,1.66,2A2.45,2.45,0,0,1,669.27,87.17Z" fill="#a9bcc3"/><path d="M680.47,93.88H677l-3,18.65h-2.68l3-18.65H672l.39-2.47h2.26l.91-5.76h2.68l-.91,5.76h3.5Z" fill="#a9bcc3"/><path d="M689.58,95.74h-.08a3.7,3.7,0,0,0-3.16-2.14,3.18,3.18,0,0,0-3.08,2.8c-.32,2,1.21,3.25,2.68,4.65s2.94,3,2.5,5.76a6.91,6.91,0,0,1-6.72,6.05,5.62,5.62,0,0,1-3.6-1.44l.5-3.13a4.32,4.32,0,0,0,3.42,2.06,3.72,3.72,0,0,0,3.6-3.21c.33-2.1-1.13-3.5-2.62-5s-2.92-3.13-2.52-5.64a6.13,6.13,0,0,1,6.12-5.39,5.26,5.26,0,0,1,3.49,1.36Z" fill="#a9bcc3"/><path d="M695.92,110.76a2.57,2.57,0,0,1-2.43,2.1,1.75,1.75,0,0,1-1.77-2.1,2.57,2.57,0,0,1,2.43-2.1A1.75,1.75,0,0,1,695.92,110.76Zm1.13-29.27h2.76l-3.68,23.26h-2.76Z" fill="#a9bcc3"/></svg>