<svg xmlns="http://www.w3.org/2000/svg" viewBox="0 0 720 165.89"><title>black</title><path d="M34,58.23,71.5,31.64,90.91,18v3.29L107.05,10,102,6.69l-39.77,28L6.83,74.1,0,79v3.45C1.61,81.34,3.43,80,5,78.88Z" fill="#231f20"/><polygon points="90.91 31.98 90.91 35.4 117.47 16.8 112.31 13.45 80.37 35.88 0 92.96 0 96.39 29.91 75.12 90.91 31.98" fill="#231f20"/><polygon points="40.3 89.46 40.3 81.93 90.91 46.04 90.91 49.5 127.81 23.56 122.7 20.21 99.59 36.46 14.91 96.42 0.36 106.85 8.44 112.12 30.88 96.23 40.3 89.46" fill="#231f20"/><polygon points="40.3 96.04 90.91 60.23 90.91 63.59 138.22 30.34 133.15 27.03 10.69 113.58 18.67 118.79 40.3 103.51 40.3 96.04" fill="#231f20"/><polygon points="40.3 110.13 90.91 74.28 90.91 77.75 148.61 37.13 143.48 33.77 75.26 81.9 21.04 120.33 28.99 125.53 40.3 117.55 40.3 110.13" fill="#231f20"/><polygon points="90.91 91.75 158.89 43.82 153.81 40.52 31.3 127.01 40.3 132.89 40.3 124.12 90.91 88.38 90.91 91.75" fill="#231f20"/><polygon points="94.82 103.06 134.42 75.12 169.32 50.63 164.22 47.29 41.58 133.74 49.62 138.97 97.75 104.99 94.82 103.06" fill="#231f20"/><polygon points="51.88 140.44 59.98 145.75 108.04 111.73 105.11 109.81 140.63 84.73 140.63 88.87 148.61 83.19 145.66 81.25 179.6 57.33 174.49 53.99 51.88 140.44" fill="#231f20"/><polygon points="115.39 116.56 140.63 98.64 140.63 102.79 158.96 89.97 155.87 87.95 179.42 71.43 179.42 64.63 179.01 64.91 141.87 91.03 62.24 147.22 70.33 152.48 118.4 118.53 115.39 116.56" fill="#231f20"/><polygon points="125.64 123.29 140.63 112.64 140.63 116.82 169.28 96.73 166.19 94.72 179.42 85.5 179.42 78.7 161.1 91.54 72.59 153.96 80.66 159.22 128.69 125.28 125.64 123.29" fill="#231f20"/><path d="M179.42,99.43V92.68l-23,16.1-73.57,51.9,8,5.21,48-33.9-3-2c1.36-1,3.38-2.52,4.68-3.47v4.22l38.94-27.3-3-2Z" fill="#231f20"/><path d="M60.57,25.41,90.91,4.08V7.31C92.8,6,94.79,4.57,96.67,3.24L91.7,0,45.94,32.2,0,65v3.41l18.3-13Z" fill="#231f20"/><path d="M642.34,83.13a15.55,15.55,0,0,0-5.42,6.25c-.55-3-.69-6.17-1.67-9H616.64a88.56,88.56,0,0,1,1,12l0,39.8h19.68l0-23.83a14,14,0,0,1,1.58-6.72c3.17-5.13,9.25-4.5,14.66-4.85V80h-.37C649.28,80.16,645.54,81,642.34,83.13Z" fill="#231f20"/><path d="M292.8,80.83a17.1,17.1,0,0,0-10,6.2c-.63.73-.85,1.76-1.6,2.35L281,89.2a45.62,45.62,0,0,0-1.41-8.72H260.75a63.69,63.69,0,0,1,.79,7.4v44.65h19.72v-9.92l0-14.73a14.71,14.71,0,0,1,1.36-5.07c2.83-5.84,9.4-5.43,15.19-5.56V80.31l-.38,0A29.69,29.69,0,0,0,292.8,80.83Z" fill="#231f20"/><polygon points="272.47 57.55 205.52 57.58 205.52 73.5 228.16 73.5 228.18 132.53 250.02 132.53 250.02 73.5 272.47 73.49 272.47 57.55" fill="#231f20"/><path d="M543.35,81.89c-7-3.4-17.37-3.19-23.25,2.35-1.8,1.38-3,3.23-4.33,4.76a18.62,18.62,0,0,0-12.72-8.8c-8.31-1.45-16.31,1.18-21.12,8.32-.59-2.57-.32-5.52-.9-8.1H462a54.5,54.5,0,0,1,.65,6.19v45.66h19.66l0-30c.09-2.91.47-5.73,2.7-7.76,2.29-2.43,6-2.78,9.1-1.87,3.3,1.14,4.18,4.6,4.48,7.67v32H518.2v-33a7.4,7.4,0,0,1,2.16-5A8.89,8.89,0,0,1,529,92.38a7.41,7.41,0,0,1,4.76,6.26v33.63H553V98.8l-.3-3.73A16.26,16.26,0,0,0,543.35,81.89Z" fill="#231f20"/><path d="M609.67,110.12l0-4.93c-.2-4.85.17-10-1.42-14.23C604.94,81.22,594.49,80,585.61,79.4l-.09.08c-6.58-.18-13,.72-18.43,3.65-4.87,2.92-6.69,8.12-6.81,13.54h18.05c-.09-2.94.46-5.86,3.16-7.38a7.24,7.24,0,0,1,6.74.26c3.29,2.54,3.41,6.65,3.17,10.58l-7.28.19c-8.32.85-17,.87-23,7.19-4,4.32-3.68,11.93-1.59,17,2,4.78,7.05,7.5,11.69,8.51,7.58,1,15.32-.15,20.11-6.55h.28a57.48,57.48,0,0,0,1.21,5.78h18c-.62-3.31-.69-6.9-1-10.37ZM587.2,121.9a7.75,7.75,0,0,1-8.14-.26c-2.12-1.85-2.64-4.46-2.31-7.21a7.59,7.59,0,0,1,2.78-4.4c3.31-2.23,7.7-1.94,11.87-2,0,.64.07,1.5.1,2.14C591.57,114.79,591.51,119.32,587.2,121.9Z" fill="#231f20"/><polygon points="657.88 132.18 677.46 132.18 677.51 57.88 657.88 57.88 657.88 132.18" fill="#231f20"/><polygon points="698.71 102.83 698.71 102.56 717.69 80.31 695.16 80.31 694.89 80.6 678.08 103.3 696.07 132.18 720 132.18 698.71 102.83" fill="#231f20"/><path d="M356.44,80.37h-20V113.6a7.51,7.51,0,0,1-2.14,5.34,8.64,8.64,0,0,1-8.18,1.69,7.29,7.29,0,0,1-4.68-6.4l0-33.86h-19.8v33.77c.24,6,1.1,11.7,5.91,15.79,6.11,5.46,16.77,4.82,23.64,1.49,2.48-1.15,4.59-3.49,6.22-5.63l.16.2c.27,2.13.59,4.28,1,6.37h19.2c-.94-3.11-1-6.69-1.38-10Z" fill="#231f20"/><path d="M392.08,99.23c-3.42-1.32-8.28-.72-9.85-4.89a4.09,4.09,0,0,1,1.11-3.93c1.94-1.79,5-1.71,7.32-.86,2.48,1.3,3,3.92,3.13,6.41h18.95a14.86,14.86,0,0,0-.58-5.55c-1.87-7.41-9.8-10.9-16.5-12-9.13-.93-18.62-.5-25.81,4.33a14.86,14.86,0,0,0-5.92,16.33c1.28,6.28,8.14,9.6,13.62,11l9.83,2.16a13.76,13.76,0,0,1,4.89,1.77,5,5,0,0,1,2.25,4,4.71,4.71,0,0,1-2.7,4.41,8.26,8.26,0,0,1-7.53-.39c-2.38-1.67-2.8-4.32-2.91-7H362.22a19.51,19.51,0,0,0,1.71,8.9c5.23,10.11,16.58,10.6,27.11,10.43,5.8-.42,11.48-1.05,16.14-4.15a15.35,15.35,0,0,0,7.13-15.47C413,103.54,400.78,101.28,392.08,99.23Z" fill="#231f20"/><path d="M446.7,119.4c-2.15-.9-2.48-3.25-2.62-5.34l0-20.45H455.8V80.27H444v-16l-19.22,8.6v7.35h-10l0,13.42H425v24.52c.11,3.08.35,6.1,1.62,8.71,1.94,3.91,6,5.53,9.92,6a80.39,80.39,0,0,0,19.34-1.33v-12C452.94,119.81,449.46,120.46,446.7,119.4Z" fill="#231f20"/></svg>