<svg xmlns="http://www.w3.org/2000/svg" viewBox="0 0 867.33 136.26"><title>stacked-ml-horizontal-color</title><path d="M2.61,127.4c1.5-34.67,10.68-56.67,34.27-82.13C64.25,15.74,91.24,3.95,131.52,3.94V30.59c-29.78.38-49.15,8.28-70.71,28.83-21.22,20.23-30,38.74-32.09,68Z" fill="#74bdab"/><path d="M34.7,127.95h25c1.53-20.43,7.79-33.41,22.84-47.32s28.47-19.12,49-19V36c-28.52.52-47.09,8.3-67.44,28.28C44.57,83.46,36.62,100.68,34.7,127.95Z" fill="#009470"/><path d="M66.25,127.4H95.07c1.74-9.15,4.9-14.6,12-20.67,7.54-6.46,14-8.81,23.93-8.7l.55-29.91c-18.87-.33-31.38,4.49-45.14,17.4-13.22,12.4-18.7,23.82-20.12,41.88Z" fill="#007357"/><path d="M102.69,127.4H131V104.56c-7.57-.4-12.59,1.23-18.49,6s-8.58,9.36-9.79,16.86Z" fill="#007357"/><path d="M138.59,53.44V20.8A97.33,97.33,0,0,1,164.15,9.38c13.72-4.19,22.11-5.32,36.44-4.89v25c-13.24,1-20.81,2.78-33.18,7.61-12,4.7-18.6,8.42-28.82,16.32Z" fill="#74bdab"/><path d="M138.59,100.21V61.59c9-8.73,15.17-12.91,26.65-17.95C178,38.06,186.15,36.27,200,36V60.51C187,61.82,179.34,64.27,168,70.84c-14,8.1-21.28,15.34-29.37,29.37Z" fill="#009470"/><path d="M138.59,127.4c1.61-16.16,6-26,16.86-38.07,12.84-14.22,25-20.2,44.05-21.76V98c-9.27.85-15,3.42-21.76,9.79-6.37,6-9.17,11-10.88,19.58Z" fill="#007357"/><path d="M173.94,127.95H199.5V105.11c-7.12.42-11.57,2.29-16.86,7.07s-7.5,8.85-8.7,15.77Z" fill="#007357"/><path d="M206.57,12.65V43.1A82,82,0,0,1,230,33.31,82.09,82.09,0,0,1,256.61,30V2.85a88.54,88.54,0,0,0-25,1.63,88.45,88.45,0,0,0-25,8.16Z" fill="#74bdab"/><path d="M207.12,49.09V79.54c8-7,13.46-10.26,23.39-14.14A69.11,69.11,0,0,1,256.61,60V35.49a72.48,72.48,0,0,0-25,2.72,72.52,72.52,0,0,0-24.47,10.88Z" fill="#009470"/><path d="M207.12,90.42v37.53h12.51C221,118.66,224.08,113,231,106.73c7.87-7.11,15-9.68,25.56-9.24V68.12c-11.86-.88-19.3.61-29.91,6-8.87,4.49-13.56,8.41-19.58,16.32Z" fill="#007357"/><path d="M226.15,127.95h31V104.56c-7.63-.75-12.72.55-19,4.9-7.08,4.86-10.43,10-12,18.49Z" fill="#007357"/><path d="M275.47,126.83l5.81-29.26h4.11l-5.79,29.26Z" fill="#231f20"/><path d="M285.81,126.83l4.27-21.47H294l-1.74,8.78a29.77,29.77,0,0,1,5.15-6.62,8.39,8.39,0,0,1,5.72-2.66,3.5,3.5,0,0,1,2.55,1,4.22,4.22,0,0,1,1,3.12,13.53,13.53,0,0,1-.22,2.52l-3.05,15.36h-3.91l3.07-15.5a5.61,5.61,0,0,0,.1-1.07,1.61,1.61,0,0,0-.36-1.09,1.12,1.12,0,0,0-.89-.42q-1.58,0-3.93,2.5a78.08,78.08,0,0,0-6.25,8l-1.5,7.55Z" fill="#231f20"/><path d="M307.91,125.69l.65-3.28a16.12,16.12,0,0,0,6.76,2,3.91,3.91,0,0,0,2.57-.77,2.48,2.48,0,0,0,.93-2,2.66,2.66,0,0,0-.38-1.4A11.11,11.11,0,0,0,317,118.5l-1.8-1.84a16.53,16.53,0,0,1-2.87-3.55,5.42,5.42,0,0,1-.59-2.38,5.71,5.71,0,0,1,1.82-4q1.82-1.9,5.58-1.9a16.79,16.79,0,0,1,2.32.17,20.47,20.47,0,0,1,3.69,1.08l-.65,3.28A18.9,18.9,0,0,0,321,108a9.89,9.89,0,0,0-2.06-.23,3.59,3.59,0,0,0-2.5.74,2.34,2.34,0,0,0-.8,1.77,2.63,2.63,0,0,0,.36,1.31,12.48,12.48,0,0,0,1.78,2.08l2,2a13.6,13.6,0,0,1,2.3,2.91,5.72,5.72,0,0,1,.68,2.75,5.29,5.29,0,0,1-2.08,4.33,8.76,8.76,0,0,1-5.63,1.66,14.38,14.38,0,0,1-2.14-.17,17.88,17.88,0,0,1-2.15-.46A26.88,26.88,0,0,1,307.91,125.69Z" fill="#231f20"/><path d="M346.5,105.36l-4.26,21.47h-3.91l1.74-8.78a29.72,29.72,0,0,1-4.7,6.61q-2.57,2.66-5.23,2.66a3.13,3.13,0,0,1-2.34-1,4.45,4.45,0,0,1-.93-3.17,12.09,12.09,0,0,1,.24-2.45l3.05-15.38h3.93L331,120.86a5.23,5.23,0,0,0-.1,1.06,1.78,1.78,0,0,0,.31,1.11,1,1,0,0,0,.81.41q1.45,0,3.63-2.65a79.6,79.6,0,0,0,5.44-7.84l1.51-7.57Z" fill="#231f20"/><path d="M348.81,126.83l4.27-21.47H357l-1.74,8.78a28.21,28.21,0,0,1,3.59-4.93,18.92,18.92,0,0,1,3.71-3.31,6.71,6.71,0,0,1,3.63-1,9.48,9.48,0,0,1,1,.06l-.85,4.27a4.65,4.65,0,0,0-1.5-.3,6,6,0,0,0-4,2.1,72.55,72.55,0,0,0-6.55,8.28l-1.52,7.55Z" fill="#231f20"/><path d="M378.39,126.83l1.74-8.78a26.5,26.5,0,0,1-5.46,6.73q-3,2.54-5.56,2.54a3.47,3.47,0,0,1-3-1.6,6.12,6.12,0,0,1-1.11-3.58,18.15,18.15,0,0,1,2.2-8.24,18.62,18.62,0,0,1,5.4-6.67,11.27,11.27,0,0,1,6.82-2.36,10.38,10.38,0,0,1,1.5.12,13.42,13.42,0,0,1,1.72.38h3.91l-4.25,21.47Zm2.66-13.42,1-5a6.45,6.45,0,0,0-1.46-.56,6.35,6.35,0,0,0-1.56-.19,7.27,7.27,0,0,0-4.53,1.86,13.66,13.66,0,0,0-3.82,5.42,16.64,16.64,0,0,0-1.52,6.45,2.7,2.7,0,0,0,.4,1.52,1.36,1.36,0,0,0,1.21.61Q373.69,123.53,381.05,113.41Z" fill="#231f20"/><path d="M388.29,126.83l4.27-21.47h3.91l-1.74,8.78a29.77,29.77,0,0,1,5.15-6.62,8.39,8.39,0,0,1,5.72-2.66,3.5,3.5,0,0,1,2.55,1,4.22,4.22,0,0,1,1,3.12,13.53,13.53,0,0,1-.22,2.52l-3.05,15.36H402l3.07-15.5a5.61,5.61,0,0,0,.1-1.07,1.61,1.61,0,0,0-.36-1.09,1.12,1.12,0,0,0-.89-.42q-1.58,0-3.93,2.5a78.08,78.08,0,0,0-6.25,8l-1.5,7.55Z" fill="#231f20"/><path d="M426.65,125.37a20.16,20.16,0,0,1-7.93,2,6.69,6.69,0,0,1-5.19-2,8,8,0,0,1-1.81-5.59,14.81,14.81,0,0,1,1.89-7.26,15.7,15.7,0,0,1,5-5.53,11.39,11.39,0,0,1,6.45-2.11,20.33,20.33,0,0,1,5,.71l-.63,3.12a12.28,12.28,0,0,0-4.47-.91,7.54,7.54,0,0,0-4.44,1.45,10.42,10.42,0,0,0-3.36,4.33,14.23,14.23,0,0,0-1.31,6A4.54,4.54,0,0,0,417,123a4,4,0,0,0,2.83,1.06,9.24,9.24,0,0,0,2-.28,26.15,26.15,0,0,0,2.58-.75,17.23,17.23,0,0,0,3-1.38Z" fill="#231f20"/><path d="M446.89,124.68a20.94,20.94,0,0,1-9.61,2.65,6.81,6.81,0,0,1-5.23-2A7.57,7.57,0,0,1,430.2,120a16.08,16.08,0,0,1,1.7-7.16,15.88,15.88,0,0,1,4.62-5.7,10.2,10.2,0,0,1,6.34-2.24A5.3,5.3,0,0,1,446.5,106a4,4,0,0,1,1.26,3.17,7.27,7.27,0,0,1-1.55,4.48,12,12,0,0,1-4.63,3.47,22,22,0,0,1-7.46,1.78,5.77,5.77,0,0,0,1.2,4,4.06,4.06,0,0,0,3.11,1.29,14.57,14.57,0,0,0,4.08-.8,20.34,20.34,0,0,0,5.13-2.5ZM434.47,116a18.82,18.82,0,0,0,5.43-1.15,7.62,7.62,0,0,0,3-2.17,4.2,4.2,0,0,0,1.1-2.6,2.11,2.11,0,0,0-.64-1.47,2.16,2.16,0,0,0-1.65-.68,5,5,0,0,0-2.73.87,8.45,8.45,0,0,0-2,1.82,11.52,11.52,0,0,0-1.33,1.95A14.82,14.82,0,0,0,434.47,116Z" fill="#231f20"/><path d="M485,125.13a31.12,31.12,0,0,1-11.21,2.43,10.34,10.34,0,0,1-7.77-2.94q-2.87-2.94-2.87-8.12a20.3,20.3,0,0,1,2.44-9.56,19.92,19.92,0,0,1,6.46-7.37,16.75,16.75,0,0,1,9.65-2.73,36.07,36.07,0,0,1,8.21,1l-.71,3.62a34.07,34.07,0,0,0-5.73-1.4q-1.5-.12-2.25-.12a11.67,11.67,0,0,0-6.82,2,15.2,15.2,0,0,0-4.88,6.08,18.48,18.48,0,0,0-1.95,8.08,8.19,8.19,0,0,0,2.06,5.92,7.85,7.85,0,0,0,5.93,2.14,22.26,22.26,0,0,0,3.24-.27,44.27,44.27,0,0,0,6.85-2.11Z" fill="#231f20"/><path d="M495.26,127.33a6.57,6.57,0,0,1-5.33-2.08,7.74,7.74,0,0,1-1.75-5.16,17,17,0,0,1,1.83-7.56,14.72,14.72,0,0,1,4.59-5.7,10.85,10.85,0,0,1,6.46-2q3.72,0,5.43,2.09a7.84,7.84,0,0,1,1.71,5.14,17,17,0,0,1-1.81,7.51,15.17,15.17,0,0,1-4.54,5.72A10.8,10.8,0,0,1,495.26,127.33Zm.87-2.93q3.28,0,5.59-3.57a14.25,14.25,0,0,0,2.31-7.91,6.29,6.29,0,0,0-1-3.85,3.47,3.47,0,0,0-2.94-1.28q-3.14,0-5.47,3.54a14.12,14.12,0,0,0-2.32,7.92,6.35,6.35,0,0,0,1,3.84A3.31,3.31,0,0,0,496.13,124.4Z" fill="#231f20"/><path d="M510.06,126.83l4.27-21.47h3.91l-1.74,8.78a24.08,24.08,0,0,1,4.76-6.26q3.1-3,6-3a3.35,3.35,0,0,1,2.27.86,3.66,3.66,0,0,1,1,2.88,13.78,13.78,0,0,1-.3,2.6l-.59,2.93a26.56,26.56,0,0,1,5.06-6.55q2.93-2.72,5.75-2.72a3.31,3.31,0,0,1,2.25.87,3.66,3.66,0,0,1,1,2.88,14,14,0,0,1-.3,2.6l-3.1,15.62H536.4l3.1-15.64a4.53,4.53,0,0,0,.1-1,1.48,1.48,0,0,0-.36-1.09,1.06,1.06,0,0,0-.75-.36q-2.37,0-9.81,10.26l-1.54,7.81h-3.91l3.1-15.64a4.46,4.46,0,0,0,.1-1,1.46,1.46,0,0,0-.36-1.07,1.06,1.06,0,0,0-.75-.36q-2.33,0-9,9.19l-.77,1.07L514,126.83Z" fill="#231f20"/><path d="M544.63,134.64l5.82-29.28h3.91l-1.74,8.78a26,26,0,0,1,5.44-6.74q3-2.54,5.56-2.54a3.46,3.46,0,0,1,3,1.57,6.13,6.13,0,0,1,1.11,3.63,18.15,18.15,0,0,1-2.17,8.19,18.63,18.63,0,0,1-5.37,6.68,11.21,11.21,0,0,1-6.82,2.38,12.93,12.93,0,0,1-3.23-.49l-1.55,7.81Zm7.07-15.86-1,5a6.51,6.51,0,0,0,3,.73,7.24,7.24,0,0,0,4.51-1.86,13.64,13.64,0,0,0,3.82-5.42,16.75,16.75,0,0,0,1.51-6.45,2.66,2.66,0,0,0-.41-1.53,1.36,1.36,0,0,0-1.2-.6Q559,108.65,551.69,118.79Z" fill="#231f20"/><path d="M582.21,126.83l1.74-8.78a26.5,26.5,0,0,1-5.46,6.73q-3,2.54-5.56,2.54a3.47,3.47,0,0,1-3-1.6,6.12,6.12,0,0,1-1.11-3.58,18.15,18.15,0,0,1,2.2-8.24,18.62,18.62,0,0,1,5.4-6.67,11.27,11.27,0,0,1,6.82-2.36,10.38,10.38,0,0,1,1.5.12,13.42,13.42,0,0,1,1.72.38h3.91l-4.25,21.47Zm2.66-13.42,1-5a6.45,6.45,0,0,0-1.46-.56,6.35,6.35,0,0,0-1.56-.19,7.27,7.27,0,0,0-4.53,1.86A13.66,13.66,0,0,0,574.5,115,16.64,16.64,0,0,0,573,121.4a2.7,2.7,0,0,0,.4,1.52,1.36,1.36,0,0,0,1.21.61Q577.52,123.53,584.88,113.41Z" fill="#231f20"/><path d="M592.12,126.83l4.27-21.47h3.91l-1.74,8.78a29.77,29.77,0,0,1,5.15-6.62,8.39,8.39,0,0,1,5.72-2.66,3.5,3.5,0,0,1,2.55,1,4.22,4.22,0,0,1,1,3.12,13.53,13.53,0,0,1-.22,2.52l-3.05,15.36h-3.91l3.07-15.5a5.61,5.61,0,0,0,.1-1.07,1.61,1.61,0,0,0-.36-1.09,1.12,1.12,0,0,0-.89-.42q-1.58,0-3.93,2.5a78.08,78.08,0,0,0-6.25,8l-1.5,7.55Z" fill="#231f20"/><path d="M615.12,134.64l4.9-7.83-3.58-21.45h4l2.75,16.51,10.26-16.51h3.74l-18.33,29.28Z" fill="#231f20"/><path d="M654,127.33a6.57,6.57,0,0,1-5.33-2.08,7.74,7.74,0,0,1-1.75-5.16,17,17,0,0,1,1.83-7.56,14.72,14.72,0,0,1,4.59-5.7,10.85,10.85,0,0,1,6.46-2q3.72,0,5.43,2.09a7.84,7.84,0,0,1,1.71,5.14,17,17,0,0,1-1.81,7.51,15.17,15.17,0,0,1-4.54,5.72A10.8,10.8,0,0,1,654,127.33Zm.87-2.93q3.28,0,5.59-3.57a14.25,14.25,0,0,0,2.31-7.91,6.29,6.29,0,0,0-1-3.85,3.47,3.47,0,0,0-2.94-1.28q-3.14,0-5.47,3.54a14.12,14.12,0,0,0-2.32,7.92,6.35,6.35,0,0,0,1,3.84A3.31,3.31,0,0,0,654.82,124.4Z" fill="#231f20"/><path d="M667.89,134.64l5.23-26.35h-3.21l.59-2.93h3.2l.19-1a12.29,12.29,0,0,1,4.22-7.24,8.08,8.08,0,0,1,5.68-2,13.32,13.32,0,0,1,3.68.57l-.63,3.1a8,8,0,0,0-3.4-.75,4.61,4.61,0,0,0-3.55,1.66,10.94,10.94,0,0,0-2.17,5.25l-.08.4h5.92l-.59,2.93H677l-5.25,26.35Z" fill="#231f20"/><path d="M695.57,126.83l5.81-29.26h4l10.15,23.18,4.61-23.18h3.56l-5.81,29.26h-4.07l-10.14-23.21-4.59,23.21Z" fill="#231f20"/><path d="M740.88,124.68a20.94,20.94,0,0,1-9.61,2.65,6.81,6.81,0,0,1-5.23-2A7.57,7.57,0,0,1,724.2,120a16.08,16.08,0,0,1,1.7-7.16,15.88,15.88,0,0,1,4.62-5.7,10.2,10.2,0,0,1,6.34-2.24,5.3,5.3,0,0,1,3.64,1.13,4,4,0,0,1,1.26,3.17,7.27,7.27,0,0,1-1.55,4.48,12,12,0,0,1-4.63,3.47,22,22,0,0,1-7.46,1.78,5.77,5.77,0,0,0,1.2,4,4.06,4.06,0,0,0,3.11,1.29,14.57,14.57,0,0,0,4.08-.8,20.34,20.34,0,0,0,5.13-2.5ZM728.47,116a18.82,18.82,0,0,0,5.43-1.15,7.62,7.62,0,0,0,3-2.17,4.2,4.2,0,0,0,1.1-2.6,2.11,2.11,0,0,0-.64-1.47,2.16,2.16,0,0,0-1.65-.68,5,5,0,0,0-2.73.87,8.45,8.45,0,0,0-2,1.82,11.52,11.52,0,0,0-1.33,1.95A14.82,14.82,0,0,0,728.47,116Z" fill="#231f20"/><path d="M747.37,126.83l-2-21.47h3.67l1.5,16.29,7.84-16.29h3.81l1.08,16.29,8.25-16.29h3.53l-10.93,21.47h-4l-1-16.35-7.87,16.35Z" fill="#231f20"/><path d="M788.31,126.83l2.62-13.18-6.78-16.08h4.47l5.21,12.31,9.78-12.31h4.13L795,113.64l-2.6,13.2Z" fill="#231f20"/><path d="M809.38,127.33a6.57,6.57,0,0,1-5.33-2.08,7.74,7.74,0,0,1-1.75-5.16,17,17,0,0,1,1.83-7.56,14.72,14.72,0,0,1,4.59-5.7,10.85,10.85,0,0,1,6.46-2q3.72,0,5.43,2.09a7.84,7.84,0,0,1,1.71,5.14,17,17,0,0,1-1.81,7.51,15.17,15.17,0,0,1-4.54,5.72A10.8,10.8,0,0,1,809.38,127.33Zm.87-2.93q3.28,0,5.59-3.57a14.25,14.25,0,0,0,2.31-7.91,6.29,6.29,0,0,0-1-3.85,3.47,3.47,0,0,0-2.94-1.28q-3.14,0-5.47,3.54a14.12,14.12,0,0,0-2.32,7.92,6.35,6.35,0,0,0,1,3.84A3.31,3.31,0,0,0,810.25,124.4Z" fill="#231f20"/><path d="M824.18,126.83l4.27-21.47h3.91l-1.74,8.78a28.21,28.21,0,0,1,3.59-4.93,18.92,18.92,0,0,1,3.71-3.31,6.71,6.71,0,0,1,3.63-1,9.48,9.48,0,0,1,1,.06l-.85,4.27a4.65,4.65,0,0,0-1.5-.3,6,6,0,0,0-4,2.1,72.55,72.55,0,0,0-6.55,8.28l-1.52,7.55Z" fill="#231f20"/><path d="M841.37,126.83l6.2-31.22h3.93l-3.93,19.74,10.25-10h4.59l-10.23,10,8,11.44h-4.45l-8.17-11.51-2.29,11.51Z" fill="#231f20"/><path d="M277.19,76.32V1.86h17.33l15.31,52.41L325.49,1.86h15.32V76.32H328.65V20.09l-15.4,51.29H302.66l-15.14-52v57Zm102.72,1.85a30.93,30.93,0,0,1-17.24-4.84,30.38,30.38,0,0,1-11.12-13.8A52.29,52.29,0,0,1,347.8,39a52.5,52.5,0,0,1,3.76-20.39,30,30,0,0,1,11.2-13.8,32.62,32.62,0,0,1,34.22,0,30,30,0,0,1,11.2,13.8A52.34,52.34,0,0,1,411.94,39a52.13,52.13,0,0,1-3.76,20.49,30.39,30.39,0,0,1-11.11,13.8,30.64,30.64,0,0,1-17.15,4.84Zm0-10.2c6,0,10.59-2.88,13.56-8.75A44,44,0,0,0,397.94,39,43.51,43.51,0,0,0,393.48,19c-3-5.87-7.52-8.76-13.56-8.76S369.24,13.09,366.26,19A43.49,43.49,0,0,0,361.8,39a43.92,43.92,0,0,0,4.46,20.18c3,5.87,7.53,8.75,13.65,8.75Zm38.76,8.34V1.86h11.73l29.14,50.87V1.86h10.58V76.32H458.31L429.25,25.44V76.32Zm62.3,0V1.86h13.12V76.32Zm39.9,0V12.16H498.2V1.86h58.46v10.3H534V76.32Zm67.81,1.85a30.92,30.92,0,0,1-17.24-4.84,30.34,30.34,0,0,1-11.11-13.8A52.22,52.22,0,0,1,556.56,39a52.43,52.43,0,0,1,3.76-20.39,30,30,0,0,1,11.2-13.8,32.61,32.61,0,0,1,34.21,0,30,30,0,0,1,11.2,13.8A52.41,52.41,0,0,1,620.7,39a52.2,52.2,0,0,1-3.76,20.49,30.35,30.35,0,0,1-11.12,13.8,30.62,30.62,0,0,1-17.15,4.84Zm0-10.2c6,0,10.59-2.88,13.56-8.75A44,44,0,0,0,606.69,39,43.54,43.54,0,0,0,602.23,19c-3-5.87-7.53-8.76-13.56-8.76S578,13.09,575,19A43.54,43.54,0,0,0,570.55,39,44,44,0,0,0,575,59.22c3,5.87,7.53,8.75,13.66,8.75Zm38.75,8.34V1.86h23.72q7.22,0,11,2.16a15.25,15.25,0,0,1,6,6.48,21.06,21.06,0,0,1,2.19,9.79,24.91,24.91,0,0,1-3.24,12.36,21.37,21.37,0,0,1-9,8.86l20.73,34.81H662.78L647,45.83h-7.17V76.32Zm12.43-40.68h3.06c5.34,0,9.1-1.44,11.2-4.22A15.07,15.07,0,0,0,657.26,22a10.49,10.49,0,0,0-2.53-7.32c-1.67-1.74-5.08-2.67-10.33-2.67h-4.54Z" fill="#231f20"/><path d="M706.2,76.32V1.86h13.12V65.71h28.35v10.6Zm45.94,0V1.86h13.13V76.32Zm24.05,0V1.86h39.56v10.3H789.32V34.71H811V45H789.32V76.32Zm45.23,0V1.86H862v10.3H834.55v20.7H857.3v10.3H834.55V65.71H864v10.6Z" fill="#231f20"/></svg>