<svg xmlns="http://www.w3.org/2000/svg" viewBox="0 0 867.33 136.26"><title>horizontal-color</title><path d="M2.61,127.4c1.5-34.67,10.68-56.67,34.27-82.12C64.25,15.74,91.24,4,131.52,3.94V30.59c-29.78.38-49.15,8.28-70.71,28.83-21.22,20.23-30,38.74-32.09,68Z" fill="#74bdab"/><path d="M34.7,128h25c1.53-20.44,7.79-33.41,22.85-47.32s28.46-19.12,49-19V36c-28.52.52-47.09,8.3-67.44,28.28C44.57,83.46,36.62,100.68,34.7,128Z" fill="#009470"/><path d="M66.25,127.4H95.07c1.75-9.14,4.9-14.6,12-20.67,7.54-6.46,14-8.81,23.93-8.7l.55-29.91c-18.87-.33-31.38,4.5-45.15,17.4-13.21,12.4-18.7,23.82-20.12,41.88Z" fill="#007357"/><path d="M102.69,127.4H131V104.56c-7.57-.4-12.59,1.23-18.49,6s-8.58,9.36-9.79,16.86Z" fill="#007357"/><path d="M138.59,53.44V20.8A97.45,97.45,0,0,1,164.15,9.38c13.71-4.19,22.11-5.32,36.44-4.89v25c-13.24,1-20.81,2.78-33.18,7.61-12,4.7-18.6,8.42-28.82,16.32Z" fill="#74bdab"/><path d="M138.59,100.21V61.59c9-8.73,15.17-12.9,26.65-17.94C178,38.06,186.15,36.27,200.05,36V60.51C187,61.82,179.34,64.27,168,70.84c-14,8.1-21.28,15.34-29.37,29.37Z" fill="#009470"/><path d="M138.59,127.4c1.61-16.15,6-26,16.86-38.07,12.84-14.22,25-20.2,44.05-21.75V98c-9.26.86-15,3.43-21.75,9.79-6.37,6-9.17,11-10.88,19.58Z" fill="#007357"/><path d="M173.94,128H199.5V105.11c-7.12.42-11.57,2.29-16.86,7.07s-7.5,8.85-8.7,15.77Z" fill="#007357"/><path d="M206.57,12.65V43.1A82.1,82.1,0,0,1,230,33.31a82.22,82.22,0,0,1,26.65-3.26V2.85a88.69,88.69,0,0,0-25,1.64,88,88,0,0,0-25,8.16Z" fill="#74bdab"/><path d="M207.12,49.09V79.54c8-7,13.46-10.26,23.38-14.14A69.34,69.34,0,0,1,256.61,60V35.49a72.43,72.43,0,0,0-25,2.72,72.4,72.4,0,0,0-24.47,10.88Z" fill="#009470"/><path d="M207.12,90.42V128h12.5c1.43-9.29,4.46-14.91,11.42-21.22,7.87-7.1,15-9.67,25.57-9.24V68.12c-11.87-.88-19.3.61-29.91,6-8.87,4.49-13.56,8.41-19.58,16.32Z" fill="#007357"/><path d="M226.15,128h31V104.56c-7.63-.75-12.72.56-19,4.9-7.08,4.86-10.43,10-12,18.49Z" fill="#007357"/><path d="M275.47,126.83l5.82-29.26h4.11l-5.79,29.26Z" fill="#231f20"/><path d="M285.81,126.83l4.26-21.47H294l-1.74,8.78a29.89,29.89,0,0,1,5.15-6.62,8.38,8.38,0,0,1,5.72-2.65,3.51,3.51,0,0,1,2.55,1,4.21,4.21,0,0,1,1,3.13,13.88,13.88,0,0,1-.22,2.51l-3.05,15.36h-3.91l3.07-15.49a5.39,5.39,0,0,0,.1-1.07,1.66,1.66,0,0,0-.35-1.09,1.13,1.13,0,0,0-.89-.42c-1.06,0-2.37.84-3.94,2.5a78.42,78.42,0,0,0-6.24,8l-1.5,7.55Z" fill="#231f20"/><path d="M307.91,125.69l.66-3.28a16.08,16.08,0,0,0,6.76,2,3.88,3.88,0,0,0,2.57-.77,2.47,2.47,0,0,0,.93-2,2.64,2.64,0,0,0-.38-1.39A11,11,0,0,0,317,118.5l-1.8-1.84a16.45,16.45,0,0,1-2.87-3.55,5.46,5.46,0,0,1-.59-2.38,5.74,5.74,0,0,1,1.82-4q1.81-1.9,5.57-1.9a17.17,17.17,0,0,1,2.33.17,20.17,20.17,0,0,1,3.68,1.08l-.65,3.28A18.58,18.58,0,0,0,321,108a10,10,0,0,0-2.05-.22,3.59,3.59,0,0,0-2.51.74,2.33,2.33,0,0,0-.8,1.77,2.64,2.64,0,0,0,.36,1.31,13,13,0,0,0,1.78,2.08l2,2a14,14,0,0,1,2.3,2.91,5.77,5.77,0,0,1,.68,2.75,5.31,5.31,0,0,1-2.07,4.34,8.79,8.79,0,0,1-5.64,1.66,14.65,14.65,0,0,1-2.14-.17,17.77,17.77,0,0,1-2.15-.45A27,27,0,0,1,307.91,125.69Z" fill="#231f20"/><path d="M346.5,105.36l-4.26,21.47h-3.91l1.74-8.77a29.91,29.91,0,0,1-4.7,6.61q-2.58,2.65-5.23,2.66a3.12,3.12,0,0,1-2.34-1,4.46,4.46,0,0,1-.93-3.17,12.66,12.66,0,0,1,.23-2.45l3.06-15.39h3.93l-3.1,15.5a5,5,0,0,0-.1,1.06,1.75,1.75,0,0,0,.32,1.1.94.94,0,0,0,.8.41q1.46,0,3.63-2.65a78.12,78.12,0,0,0,5.45-7.84l1.5-7.58Z" fill="#231f20"/><path d="M348.81,126.83l4.27-21.47H357l-1.74,8.78a28.23,28.23,0,0,1,3.59-4.93,18.83,18.83,0,0,1,3.72-3.31,6.64,6.64,0,0,1,3.63-1,9.32,9.32,0,0,1,1,.06l-.85,4.27a4.62,4.62,0,0,0-1.5-.3,6,6,0,0,0-4,2.1,72.65,72.65,0,0,0-6.55,8.28l-1.52,7.55Z" fill="#231f20"/><path d="M378.39,126.83l1.74-8.77a26.86,26.86,0,0,1-5.46,6.73c-2,1.69-3.84,2.54-5.57,2.54a3.44,3.44,0,0,1-3-1.6,6.08,6.08,0,0,1-1.12-3.58,18.21,18.21,0,0,1,2.2-8.24,18.69,18.69,0,0,1,5.4-6.68,11.29,11.29,0,0,1,6.82-2.36,10.28,10.28,0,0,1,1.5.12,14.08,14.08,0,0,1,1.72.37h3.9l-4.24,21.47Zm2.66-13.42,1-5a6.19,6.19,0,0,0-1.46-.56,6.09,6.09,0,0,0-1.55-.19,7.23,7.23,0,0,0-4.53,1.86,13.56,13.56,0,0,0-3.83,5.41,16.71,16.71,0,0,0-1.52,6.45,2.71,2.71,0,0,0,.41,1.52,1.35,1.35,0,0,0,1.21.61Q373.7,123.53,381.05,113.41Z" fill="#231f20"/><path d="M388.29,126.83l4.26-21.47h3.91l-1.73,8.78a29.87,29.87,0,0,1,5.14-6.62,8.39,8.39,0,0,1,5.72-2.65,3.51,3.51,0,0,1,2.55,1,4.21,4.21,0,0,1,1,3.13,13,13,0,0,1-.22,2.51l-3.05,15.36H402L405,111.34a6.26,6.26,0,0,0,.09-1.07,1.61,1.61,0,0,0-.35-1.09,1.12,1.12,0,0,0-.89-.42c-1.05,0-2.37.84-3.93,2.5a78.2,78.2,0,0,0-6.25,8l-1.5,7.55Z" fill="#231f20"/><path d="M426.65,125.37a20.07,20.07,0,0,1-7.92,2,6.69,6.69,0,0,1-5.19-2,8,8,0,0,1-1.81-5.59,14.79,14.79,0,0,1,1.89-7.26,15.52,15.52,0,0,1,5-5.53,11.34,11.34,0,0,1,6.44-2.11,20.45,20.45,0,0,1,5,.71l-.63,3.13a12.18,12.18,0,0,0-4.47-.91,7.59,7.59,0,0,0-4.44,1.44,10.46,10.46,0,0,0-3.36,4.34,14.3,14.3,0,0,0-1.31,6A4.54,4.54,0,0,0,417,123a4,4,0,0,0,2.82,1.06,9.56,9.56,0,0,0,2-.28,23.81,23.81,0,0,0,2.58-.75,17.86,17.86,0,0,0,3-1.38Z" fill="#231f20"/><path d="M446.89,124.68a20.89,20.89,0,0,1-9.61,2.65,6.81,6.81,0,0,1-5.23-2A7.58,7.58,0,0,1,430.2,120a16.5,16.5,0,0,1,6.32-12.86,10.21,10.21,0,0,1,6.34-2.24A5.32,5.32,0,0,1,446.5,106a4,4,0,0,1,1.26,3.17,7.3,7.3,0,0,1-1.55,4.48,12.08,12.08,0,0,1-4.63,3.48,22,22,0,0,1-7.46,1.78,5.81,5.81,0,0,0,1.19,4,4.07,4.07,0,0,0,3.12,1.29,14.44,14.44,0,0,0,4.08-.81,19.88,19.88,0,0,0,5.13-2.5ZM434.47,116a18.41,18.41,0,0,0,5.43-1.15,7.63,7.63,0,0,0,3-2.16,4.19,4.19,0,0,0,1.09-2.6,2.09,2.09,0,0,0-.64-1.47,2.16,2.16,0,0,0-1.65-.69,5,5,0,0,0-2.73.87,8.44,8.44,0,0,0-2,1.82,11.37,11.37,0,0,0-1.33,2A15,15,0,0,0,434.47,116Z" fill="#231f20"/><path d="M485,125.13a31,31,0,0,1-11.21,2.44,10.36,10.36,0,0,1-7.77-2.95q-2.87-2.94-2.87-8.12a20.26,20.26,0,0,1,2.45-9.56,19.79,19.79,0,0,1,6.45-7.37,16.75,16.75,0,0,1,9.65-2.73,36.09,36.09,0,0,1,8.2,1l-.71,3.62a33.48,33.48,0,0,0-5.73-1.4q-1.5-.12-2.25-.12a11.7,11.7,0,0,0-6.82,2,15.24,15.24,0,0,0-4.88,6.08,18.48,18.48,0,0,0-1.95,8.08,8.16,8.16,0,0,0,2.07,5.92,7.84,7.84,0,0,0,5.93,2.15,22.05,22.05,0,0,0,3.24-.27,44.12,44.12,0,0,0,6.85-2.11Z" fill="#231f20"/><path d="M495.26,127.33a6.58,6.58,0,0,1-5.33-2.08,7.77,7.77,0,0,1-1.75-5.16,17,17,0,0,1,1.83-7.56,14.64,14.64,0,0,1,4.59-5.7,10.84,10.84,0,0,1,6.46-2q3.7,0,5.42,2.09a7.82,7.82,0,0,1,1.71,5.13,16.89,16.89,0,0,1-1.81,7.51,15,15,0,0,1-4.53,5.72A10.81,10.81,0,0,1,495.26,127.33Zm.87-2.93q3.28,0,5.6-3.57a14.27,14.27,0,0,0,2.31-7.91,6.31,6.31,0,0,0-1-3.85,3.46,3.46,0,0,0-2.93-1.27q-3.15,0-5.47,3.54a14.11,14.11,0,0,0-2.32,7.92,6.29,6.29,0,0,0,1,3.84A3.29,3.29,0,0,0,496.13,124.4Z" fill="#231f20"/><path d="M510.06,126.83l4.27-21.47h3.91l-1.74,8.78a24,24,0,0,1,4.76-6.26q3.09-3,6-3a3.37,3.37,0,0,1,2.27.86,3.67,3.67,0,0,1,1,2.89,13.54,13.54,0,0,1-.3,2.59l-.59,2.93a26.53,26.53,0,0,1,5.06-6.55q2.92-2.72,5.75-2.72a3.32,3.32,0,0,1,2.26.87,3.66,3.66,0,0,1,1,2.88,13.72,13.72,0,0,1-.3,2.59l-3.1,15.62H536.4l3.1-15.63a4.87,4.87,0,0,0,.1-1,1.48,1.48,0,0,0-.36-1.09,1.06,1.06,0,0,0-.75-.36q-2.37,0-9.81,10.27l-1.54,7.8h-3.91l3.1-15.63a4.2,4.2,0,0,0,.1-1,1.48,1.48,0,0,0-.35-1.07,1.06,1.06,0,0,0-.76-.36q-2.33,0-9,9.2l-.77,1.07-1.56,7.8Z" fill="#231f20"/><path d="M544.63,134.64l5.81-29.28h3.91l-1.73,8.78a25.84,25.84,0,0,1,5.44-6.73c2-1.7,3.84-2.54,5.56-2.54a3.45,3.45,0,0,1,3,1.57,6.14,6.14,0,0,1,1.11,3.63,18.21,18.21,0,0,1-2.18,8.2,18.64,18.64,0,0,1-5.37,6.67,11.22,11.22,0,0,1-6.82,2.39,12.94,12.94,0,0,1-3.23-.5l-1.55,7.81Zm7.06-15.85-1,5a6.45,6.45,0,0,0,3,.73,7.25,7.25,0,0,0,4.51-1.86,13.76,13.76,0,0,0,3.82-5.42,16.91,16.91,0,0,0,1.51-6.46,2.61,2.61,0,0,0-.42-1.53,1.35,1.35,0,0,0-1.19-.6Q559,108.65,551.69,118.79Z" fill="#231f20"/><path d="M582.21,126.83l1.74-8.77a26.43,26.43,0,0,1-5.46,6.73c-2,1.69-3.84,2.54-5.56,2.54a3.47,3.47,0,0,1-3-1.6,6.14,6.14,0,0,1-1.11-3.58,18.09,18.09,0,0,1,2.2-8.24,18.67,18.67,0,0,1,5.39-6.68,11.32,11.32,0,0,1,6.83-2.36,10.28,10.28,0,0,1,1.5.12,13.55,13.55,0,0,1,1.71.37h3.91l-4.25,21.47Zm2.67-13.42,1-5a6.41,6.41,0,0,0-3-.75,7.28,7.28,0,0,0-4.53,1.86A13.64,13.64,0,0,0,574.5,115,16.71,16.71,0,0,0,573,121.4a2.71,2.71,0,0,0,.41,1.52,1.35,1.35,0,0,0,1.21.61Q577.52,123.53,584.88,113.41Z" fill="#231f20"/><path d="M592.12,126.83l4.26-21.47h3.91l-1.74,8.78a29.89,29.89,0,0,1,5.15-6.62,8.38,8.38,0,0,1,5.72-2.65,3.51,3.51,0,0,1,2.55,1,4.21,4.21,0,0,1,1,3.13,13.88,13.88,0,0,1-.22,2.51l-3,15.36h-3.91l3.07-15.49a5.39,5.39,0,0,0,.1-1.07,1.66,1.66,0,0,0-.35-1.09,1.13,1.13,0,0,0-.89-.42c-1.06,0-2.37.84-3.94,2.5a78.42,78.42,0,0,0-6.24,8l-1.5,7.55Z" fill="#231f20"/><path d="M615.12,134.64l4.9-7.82-3.58-21.46h4l2.75,16.51,10.27-16.51h3.73l-18.32,29.28Z" fill="#231f20"/><path d="M654,127.33a6.56,6.56,0,0,1-5.33-2.08,7.77,7.77,0,0,1-1.75-5.16,17,17,0,0,1,1.83-7.56,14.64,14.64,0,0,1,4.59-5.7,10.83,10.83,0,0,1,6.45-2q3.72,0,5.43,2.09a7.82,7.82,0,0,1,1.71,5.13,16.89,16.89,0,0,1-1.81,7.51,15.07,15.07,0,0,1-4.54,5.72A10.78,10.78,0,0,1,654,127.33Zm.87-2.93c2.19,0,4-1.19,5.6-3.57a14.27,14.27,0,0,0,2.31-7.91,6.31,6.31,0,0,0-1-3.85,3.46,3.46,0,0,0-2.94-1.27q-3.13,0-5.46,3.54a14.12,14.12,0,0,0-2.33,7.92,6.36,6.36,0,0,0,1,3.84A3.31,3.31,0,0,0,654.82,124.4Z" fill="#231f20"/><path d="M667.89,134.64l5.23-26.35h-3.21l.59-2.93h3.2l.2-1a12.25,12.25,0,0,1,4.21-7.24,8.13,8.13,0,0,1,5.68-2,13,13,0,0,1,3.68.58l-.63,3.1a8,8,0,0,0-3.41-.75,4.59,4.59,0,0,0-3.55,1.66,10.91,10.91,0,0,0-2.17,5.25l-.08.4h5.92l-.59,2.93h-5.91l-5.25,26.35Z" fill="#231f20"/><path d="M695.57,126.83l5.81-29.26h4l10.15,23.19,4.6-23.19h3.56l-5.81,29.26h-4.08l-10.14-23.21-4.59,23.21Z" fill="#231f20"/><path d="M740.88,124.68a20.88,20.88,0,0,1-9.6,2.65,6.79,6.79,0,0,1-5.23-2A7.53,7.53,0,0,1,724.2,120a16.53,16.53,0,0,1,6.31-12.86,10.23,10.23,0,0,1,6.34-2.24,5.31,5.31,0,0,1,3.64,1.13,4,4,0,0,1,1.26,3.17,7.23,7.23,0,0,1-1.55,4.48,12,12,0,0,1-4.62,3.48,22,22,0,0,1-7.47,1.78,5.76,5.76,0,0,0,1.2,4,4,4,0,0,0,3.11,1.29,14.31,14.31,0,0,0,4.08-.81,20.09,20.09,0,0,0,5.14-2.5ZM728.47,116a18.41,18.41,0,0,0,5.43-1.15,7.67,7.67,0,0,0,3-2.16,4.21,4.21,0,0,0,1.1-2.6,2.1,2.1,0,0,0-.65-1.47,2.13,2.13,0,0,0-1.65-.69,5,5,0,0,0-2.72.87,8.67,8.67,0,0,0-2,1.82,12.64,12.64,0,0,0-1.33,2A15.12,15.12,0,0,0,728.47,116Z" fill="#231f20"/><path d="M747.37,126.83l-2-21.47h3.68l1.5,16.3,7.84-16.3h3.81l1.08,16.3,8.26-16.3h3.53l-10.94,21.47h-3.95l-1-16.35-7.87,16.35Z" fill="#231f20"/><path d="M788.31,126.83l2.62-13.17-6.78-16.09h4.47l5.21,12.31,9.78-12.31h4.13L795,113.64l-2.6,13.19Z" fill="#231f20"/><path d="M809.38,127.33a6.56,6.56,0,0,1-5.33-2.08,7.72,7.72,0,0,1-1.75-5.16,17,17,0,0,1,1.83-7.56,14.64,14.64,0,0,1,4.59-5.7,10.83,10.83,0,0,1,6.45-2q3.72,0,5.43,2.09a7.82,7.82,0,0,1,1.71,5.13,16.89,16.89,0,0,1-1.81,7.51,15.16,15.16,0,0,1-4.54,5.72A10.78,10.78,0,0,1,809.38,127.33Zm.87-2.93q3.29,0,5.59-3.57a14.19,14.19,0,0,0,2.32-7.91,6.31,6.31,0,0,0-1-3.85,3.46,3.46,0,0,0-2.94-1.27c-2.09,0-3.92,1.18-5.46,3.54a14.12,14.12,0,0,0-2.33,7.92,6.36,6.36,0,0,0,1,3.84A3.3,3.3,0,0,0,810.25,124.4Z" fill="#231f20"/><path d="M824.18,126.83l4.26-21.47h3.91l-1.73,8.78a28.23,28.23,0,0,1,3.59-4.93,18.82,18.82,0,0,1,3.71-3.31,6.7,6.7,0,0,1,3.64-1,9,9,0,0,1,1,.06l-.84,4.27a4.63,4.63,0,0,0-1.51-.3,6,6,0,0,0-4,2.1,72.65,72.65,0,0,0-6.55,8.28l-1.52,7.55Z" fill="#231f20"/><path d="M841.37,126.83l6.2-31.21h3.93l-3.93,19.74,10.25-10h4.59l-10.24,10,8,11.43h-4.44l-8.17-11.51-2.3,11.51Z" fill="#231f20"/><path d="M277.19,76.32V1.86h17.33l15.31,52.42L325.49,1.86h15.32V76.32H328.65V20.09l-15.4,51.29H302.66l-15.14-52V76.32Zm102.72,1.85a30.92,30.92,0,0,1-17.24-4.84,30.37,30.37,0,0,1-11.11-13.8A52.17,52.17,0,0,1,347.8,39a52.36,52.36,0,0,1,3.76-20.39,30,30,0,0,1,11.2-13.8,32.61,32.61,0,0,1,34.22,0,30,30,0,0,1,11.2,13.8A52.36,52.36,0,0,1,411.94,39a52.17,52.17,0,0,1-3.76,20.49,30.33,30.33,0,0,1-11.12,13.8,30.59,30.59,0,0,1-17.15,4.84Zm0-10.19c6,0,10.59-2.88,13.57-8.76A44,44,0,0,0,397.94,39,43.54,43.54,0,0,0,393.48,19c-3-5.87-7.53-8.76-13.57-8.76S369.24,13.09,366.26,19A43.54,43.54,0,0,0,361.8,39a44,44,0,0,0,4.46,20.18c3,5.88,7.53,8.76,13.65,8.76Zm38.76,8.34V1.86h11.72l29.15,50.87V1.86h10.58V76.32H458.31L429.25,25.44V76.32Zm62.29,0V1.86h13.13V76.32Zm39.9,0V12.16H498.2V1.86h58.45v10.3H534V76.32Zm67.81,1.85a30.92,30.92,0,0,1-17.24-4.84,30.31,30.31,0,0,1-11.11-13.8A52.17,52.17,0,0,1,556.56,39a52.36,52.36,0,0,1,3.76-20.39,30,30,0,0,1,11.2-13.8,32.59,32.59,0,0,1,34.21,0,29.9,29.9,0,0,1,11.2,13.8A52.36,52.36,0,0,1,620.7,39a52.17,52.17,0,0,1-3.77,20.49,30.25,30.25,0,0,1-11.11,13.8,30.62,30.62,0,0,1-17.15,4.84Zm0-10.19c6,0,10.59-2.88,13.56-8.76A43.86,43.86,0,0,0,606.69,39,43.41,43.41,0,0,0,602.23,19c-3-5.87-7.53-8.76-13.56-8.76S578,13.09,575,19A43.54,43.54,0,0,0,570.55,39,44,44,0,0,0,575,59.22c3,5.88,7.53,8.76,13.66,8.76Zm38.75,8.34V1.86h23.72q7.22,0,11,2.16a15.29,15.29,0,0,1,6,6.49,21.06,21.06,0,0,1,2.19,9.78,24.88,24.88,0,0,1-3.24,12.36,21.38,21.38,0,0,1-9,8.86l20.73,34.81H662.78L647,45.83h-7.17V76.32Zm12.43-40.68h3.06c5.34,0,9.1-1.45,11.2-4.22A15.12,15.12,0,0,0,657.26,22a10.47,10.47,0,0,0-2.53-7.31c-1.67-1.74-5.08-2.67-10.33-2.67h-4.55Z" fill="#231f20"/><path d="M706.2,76.32V1.86h13.13V65.71h28.35V76.32Zm45.94,0V1.86h13.12V76.32Zm24.05,0V1.86h39.56v10.3H789.32V34.71H811V45h-21.7V76.32Zm45.23,0V1.86H862v10.3H834.55v20.7H857.3V43.15H834.55V65.71H864V76.32Z" fill="#231f20"/></svg>