<?xml version="1.0" encoding="iso-8859-1"?>
<!-- Generator: Adobe Illustrator 19.1.0, SVG Export Plug-In . SVG Version: 6.00 Build 0)  -->
<svg version="1.1" id="Layer_1" xmlns="http://www.w3.org/2000/svg" xmlns:xlink="http://www.w3.org/1999/xlink" x="0px" y="0px"
	 viewBox="0 0 867.3 136.3" style="enable-background:new 0 0 867.3 136.3;" xml:space="preserve">
<style type="text/css">
	.st0{fill:#74BDAB;}
	.st1{fill:#009470;}
	.st2{fill:#007357;}
	.st3{fill:#FFFFFF;}
</style>
<g>
	<path class="st0" d="M2.6,127.4c1.5-34.7,10.7-56.7,34.3-82.1C64.3,15.7,91.2,3.9,131.5,3.9v26.7c-29.8,0.4-49.2,8.3-70.7,28.8
		c-21.2,20.2-30,38.7-32.1,68H2.6L2.6,127.4z"/>
	<path class="st1" d="M34.7,127.9h25c1.5-20.4,7.8-33.4,22.8-47.3c15-13.9,28.5-19.1,49-19V36c-28.5,0.5-47.1,8.3-67.4,28.3
		C44.6,83.5,36.6,100.7,34.7,127.9L34.7,127.9z"/>
	<path class="st2" d="M66.2,127.4h28.8c1.7-9.1,4.9-14.6,12-20.7c7.5-6.5,14-8.8,23.9-8.7l0.5-29.9c-18.9-0.3-31.4,4.5-45.1,17.4
		C73.2,97.9,67.7,109.3,66.2,127.4L66.2,127.4z"/>
	<path class="st2" d="M102.7,127.4H131v-22.8c-7.6-0.4-12.6,1.2-18.5,6C106.6,115.3,103.9,119.9,102.7,127.4L102.7,127.4z"/>
	<path class="st0" d="M138.6,53.4V20.8c9.3-5.7,15.1-8.2,25.6-11.4c13.7-4.2,22.1-5.3,36.4-4.9v25c-13.2,1-20.8,2.8-33.2,7.6
		C155.4,41.8,148.8,45.5,138.6,53.4L138.6,53.4z"/>
	<path class="st1" d="M138.6,100.2V61.6c9-8.7,15.2-12.9,26.6-17.9c12.7-5.6,20.9-7.4,34.8-7.6v24.5c-13.1,1.3-20.7,3.8-32.1,10.3
		C153.9,78.9,146.7,86.2,138.6,100.2L138.6,100.2z"/>
	<path class="st2" d="M138.6,127.4c1.6-16.2,6-26,16.9-38.1c12.8-14.2,25-20.2,44.1-21.8V98c-9.3,0.9-15,3.4-21.8,9.8
		c-6.4,6-9.2,11-10.9,19.6H138.6L138.6,127.4z"/>
	<path class="st2" d="M173.9,127.9h25.6v-22.8c-7.1,0.4-11.6,2.3-16.9,7.1C177.4,116.9,175.1,121,173.9,127.9L173.9,127.9z"/>
	<path class="st0" d="M206.6,12.6v30.5c8.5-5,13.8-7.2,23.4-9.8c10.1-2.7,16.2-3.5,26.6-3.3V2.9c-9.8-0.6-15.4-0.2-25,1.6
		C221.5,6.4,215.8,8.2,206.6,12.6L206.6,12.6z"/>
	<path class="st1" d="M207.1,49.1v30.5c8-7,13.5-10.3,23.4-14.1c9.7-3.8,15.7-5,26.1-5.4V35.5c-9.8-0.4-15.5,0.2-25,2.7
		C221.5,40.9,215.9,43.4,207.1,49.1L207.1,49.1z"/>
	<path class="st2" d="M207.1,90.4v37.5h12.5c1.4-9.3,4.5-14.9,11.4-21.2c7.9-7.1,15-9.7,25.6-9.2V68.1c-11.9-0.9-19.3,0.6-29.9,6
		C217.8,78.6,213.1,82.5,207.1,90.4L207.1,90.4z"/>
	<path class="st2" d="M226.2,127.9h31v-23.4c-7.6-0.8-12.7,0.6-19,4.9C231,114.3,227.7,119.5,226.2,127.9L226.2,127.9z"/>
</g>
<g>
	<path d="M275.5,126.8l5.8-29.3h4.1l-5.8,29.3H275.5z"/>
	<path d="M285.8,126.8l4.3-21.5h3.9l-1.7,8.8c1.6-2.6,3.3-4.8,5.1-6.6c1.9-1.8,3.8-2.7,5.7-2.7c1,0,1.9,0.3,2.5,1
		c0.7,0.6,1,1.7,1,3.1c0,0.9-0.1,1.8-0.2,2.5l-3.1,15.4h-3.9l3.1-15.5c0.1-0.3,0.1-0.7,0.1-1.1c0-0.4-0.1-0.8-0.4-1.1
		c-0.2-0.3-0.5-0.4-0.9-0.4c-1.1,0-2.4,0.8-3.9,2.5c-1.6,1.7-3.6,4.3-6.2,8l-1.5,7.6H285.8z"/>
	<path d="M307.9,125.7l0.7-3.3c2.7,1.3,5,2,6.8,2c1.1,0,2-0.3,2.6-0.8s0.9-1.2,0.9-2c0-0.5-0.1-1-0.4-1.4s-0.7-1-1.4-1.7l-1.8-1.8
		c-1.5-1.6-2.5-2.7-2.9-3.6s-0.6-1.6-0.6-2.4c0-1.4,0.6-2.7,1.8-4c1.2-1.3,3.1-1.9,5.6-1.9c0.8,0,1.5,0.1,2.3,0.2
		c0.8,0.1,2,0.5,3.7,1.1l-0.7,3.3c-1.6-0.8-2.8-1.2-3.5-1.4s-1.4-0.2-2.1-0.2c-1.1,0-2,0.2-2.5,0.7c-0.5,0.5-0.8,1.1-0.8,1.8
		c0,0.4,0.1,0.9,0.4,1.3c0.2,0.4,0.8,1.1,1.8,2.1l2,2c1.1,1.1,1.8,2.1,2.3,2.9c0.5,0.8,0.7,1.8,0.7,2.8c0,1.8-0.7,3.2-2.1,4.3
		c-1.4,1.1-3.3,1.7-5.6,1.7c-0.7,0-1.4-0.1-2.1-0.2c-0.7-0.1-1.5-0.3-2.1-0.5C310,126.5,309.1,126.2,307.9,125.7z"/>
	<path d="M346.5,105.4l-4.3,21.5h-3.9l1.7-8.8c-1.4,2.6-3,4.8-4.7,6.6c-1.7,1.8-3.5,2.7-5.2,2.7c-0.9,0-1.7-0.3-2.3-1
		c-0.6-0.6-0.9-1.7-0.9-3.2c0-0.9,0.1-1.7,0.2-2.5l3.1-15.4h3.9l-3.1,15.5c-0.1,0.3-0.1,0.7-0.1,1.1c0,0.5,0.1,0.8,0.3,1.1
		c0.2,0.3,0.5,0.4,0.8,0.4c1,0,2.2-0.9,3.6-2.7c1.5-1.8,3.3-4.4,5.4-7.8l1.5-7.6H346.5z"/>
	<path d="M348.8,126.8l4.3-21.5h3.9l-1.7,8.8c1-1.8,2.2-3.4,3.6-4.9s2.6-2.6,3.7-3.3c1.1-0.7,2.3-1,3.6-1c0.3,0,0.6,0,1,0.1
		l-0.8,4.3c-0.6-0.2-1.1-0.3-1.5-0.3c-1.3,0-2.6,0.7-4,2.1c-1.4,1.4-3.6,4.2-6.5,8.3l-1.5,7.6H348.8z"/>
	<path d="M378.4,126.8l1.7-8.8c-1.7,2.8-3.5,5-5.5,6.7c-2,1.7-3.8,2.5-5.6,2.5c-1.2,0-2.2-0.5-3-1.6c-0.7-1.1-1.1-2.3-1.1-3.6
		c0-2.6,0.7-5.4,2.2-8.2c1.5-2.9,3.3-5.1,5.4-6.7c2.1-1.6,4.4-2.4,6.8-2.4c0.5,0,1,0,1.5,0.1s1.1,0.2,1.7,0.4h3.9l-4.2,21.5H378.4z
		 M381.1,113.4l1-5c-0.5-0.3-1-0.4-1.5-0.6c-0.5-0.1-1-0.2-1.6-0.2c-1.5,0-3,0.6-4.5,1.9c-1.5,1.2-2.8,3-3.8,5.4
		c-1,2.4-1.5,4.5-1.5,6.4c0,0.6,0.1,1.1,0.4,1.5c0.3,0.4,0.7,0.6,1.2,0.6C372.7,123.5,376.1,120.2,381.1,113.4z"/>
	<path d="M388.3,126.8l4.3-21.5h3.9l-1.7,8.8c1.6-2.6,3.3-4.8,5.1-6.6c1.9-1.8,3.8-2.7,5.7-2.7c1,0,1.9,0.3,2.5,1
		c0.7,0.6,1,1.7,1,3.1c0,0.9-0.1,1.8-0.2,2.5l-3.1,15.4H402l3.1-15.5c0.1-0.3,0.1-0.7,0.1-1.1c0-0.4-0.1-0.8-0.4-1.1
		c-0.2-0.3-0.5-0.4-0.9-0.4c-1.1,0-2.4,0.8-3.9,2.5c-1.6,1.7-3.6,4.3-6.2,8l-1.5,7.6H388.3z"/>
	<path d="M426.7,125.4c-3,1.3-5.6,2-7.9,2c-2.3,0-4-0.7-5.2-2s-1.8-3.2-1.8-5.6c0-2.6,0.6-5,1.9-7.3s2.9-4.1,5-5.5
		c2.1-1.4,4.2-2.1,6.4-2.1c1.5,0,3.2,0.2,5,0.7l-0.6,3.1c-1.6-0.6-3-0.9-4.5-0.9c-1.6,0-3.1,0.5-4.4,1.4c-1.4,1-2.5,2.4-3.4,4.3
		s-1.3,3.9-1.3,6c0,1.6,0.4,2.8,1.1,3.5s1.7,1.1,2.8,1.1c0.6,0,1.2-0.1,2-0.3c0.8-0.2,1.7-0.4,2.6-0.8c0.9-0.3,1.9-0.8,3-1.4
		L426.7,125.4z"/>
	<path d="M446.9,124.7c-3.4,1.8-6.6,2.6-9.6,2.6c-2.3,0-4-0.7-5.2-2s-1.8-3.1-1.8-5.4c0-2.5,0.6-4.9,1.7-7.2
		c1.1-2.3,2.7-4.2,4.6-5.7c1.9-1.5,4.1-2.2,6.3-2.2c1.6,0,2.8,0.4,3.6,1.1c0.8,0.8,1.3,1.8,1.3,3.2c0,1.6-0.5,3.1-1.6,4.5
		c-1,1.4-2.6,2.5-4.6,3.5c-2,1-4.5,1.5-7.5,1.8c0,1.8,0.4,3.2,1.2,4c0.8,0.9,1.8,1.3,3.1,1.3c1,0,2.4-0.3,4.1-0.8
		c1.7-0.5,3.4-1.4,5.1-2.5L446.9,124.7z M434.5,116c2.4-0.2,4.2-0.6,5.4-1.1c1.3-0.5,2.3-1.3,3-2.2c0.7-0.9,1.1-1.8,1.1-2.6
		c0-0.5-0.2-1-0.6-1.5c-0.4-0.5-1-0.7-1.7-0.7c-0.9,0-1.8,0.3-2.7,0.9c-0.7,0.5-1.4,1.1-2,1.8c-0.5,0.6-0.9,1.2-1.3,1.9
		C435.2,113.3,434.8,114.4,434.5,116z"/>
	<path d="M485,125.1c-4.1,1.6-7.9,2.4-11.2,2.4c-3.3,0-5.9-1-7.8-2.9c-1.9-2-2.9-4.7-2.9-8.1c0-3.3,0.8-6.5,2.4-9.6
		c1.6-3.1,3.8-5.6,6.5-7.4c2.7-1.8,5.9-2.7,9.6-2.7c2.6,0,5.3,0.3,8.2,1l-0.7,3.6c-2.8-0.9-4.7-1.3-5.7-1.4s-1.8-0.1-2.3-0.1
		c-2.6,0-4.9,0.7-6.8,2c-2,1.4-3.6,3.4-4.9,6.1c-1.3,2.7-1.9,5.4-1.9,8.1c0,2.5,0.7,4.5,2.1,5.9c1.4,1.4,3.4,2.1,5.9,2.1
		c1,0,2-0.1,3.2-0.3c1.2-0.2,3.5-0.9,6.9-2.1L485,125.1z"/>
	<path d="M495.3,127.3c-2.4,0-4.2-0.7-5.3-2.1c-1.2-1.4-1.8-3.1-1.8-5.2c0-2.5,0.6-5.1,1.8-7.6c1.2-2.5,2.7-4.4,4.6-5.7
		c1.8-1.3,4-2,6.5-2c2.5,0,4.3,0.7,5.4,2.1c1.1,1.4,1.7,3.1,1.7,5.1c0,2.5-0.6,5-1.8,7.5c-1.2,2.5-2.7,4.4-4.5,5.7
		C500,126.7,497.8,127.3,495.3,127.3z M496.1,124.4c2.2,0,4.1-1.2,5.6-3.6s2.3-5,2.3-7.9c0-1.7-0.3-3-1-3.9
		c-0.7-0.9-1.6-1.3-2.9-1.3c-2.1,0-3.9,1.2-5.5,3.5c-1.5,2.4-2.3,5-2.3,7.9c0,1.7,0.3,3,1,3.8S494.9,124.4,496.1,124.4z"/>
	<path d="M510.1,126.8l4.3-21.5h3.9l-1.7,8.8c1.1-2.2,2.7-4.3,4.8-6.3c2.1-2,4.1-3,6-3c0.9,0,1.6,0.3,2.3,0.9s1,1.5,1,2.9
		c0,0.7-0.1,1.6-0.3,2.6l-0.6,2.9c1.4-2.5,3.1-4.7,5.1-6.5s3.9-2.7,5.8-2.7c0.8,0,1.6,0.3,2.3,0.9c0.7,0.6,1,1.5,1,2.9
		c0,0.7-0.1,1.6-0.3,2.6l-3.1,15.6h-3.9l3.1-15.6c0.1-0.3,0.1-0.6,0.1-1c0-0.5-0.1-0.9-0.4-1.1s-0.5-0.4-0.8-0.4
		c-1.6,0-4.9,3.4-9.8,10.3l-1.5,7.8h-3.9l3.1-15.6c0.1-0.3,0.1-0.6,0.1-1c0-0.5-0.1-0.8-0.4-1.1c-0.2-0.2-0.5-0.4-0.8-0.4
		c-1.6,0-4.6,3.1-9,9.2l-0.8,1.1l-1.6,7.8H510.1z"/>
	<path d="M544.6,134.6l5.8-29.3h3.9l-1.7,8.8c1.6-2.8,3.5-5,5.4-6.7c2-1.7,3.8-2.5,5.6-2.5c1.2,0,2.2,0.5,3,1.6
		c0.7,1,1.1,2.3,1.1,3.6c0,2.6-0.7,5.3-2.2,8.2c-1.5,2.9-3.2,5.1-5.4,6.7s-4.4,2.4-6.8,2.4c-0.9,0-2-0.2-3.2-0.5l-1.6,7.8H544.6z
		 M551.7,118.8l-1,5c1,0.5,2,0.7,3,0.7c1.5,0,3-0.6,4.5-1.9s2.8-3,3.8-5.4c1-2.4,1.5-4.5,1.5-6.5c0-0.6-0.1-1.1-0.4-1.5
		s-0.7-0.6-1.2-0.6C560,108.6,556.6,112,551.7,118.8z"/>
	<path d="M582.2,126.8l1.7-8.8c-1.7,2.8-3.5,5-5.5,6.7c-2,1.7-3.8,2.5-5.6,2.5c-1.2,0-2.2-0.5-3-1.6c-0.7-1.1-1.1-2.3-1.1-3.6
		c0-2.6,0.7-5.4,2.2-8.2c1.5-2.9,3.3-5.1,5.4-6.7c2.1-1.6,4.4-2.4,6.8-2.4c0.5,0,1,0,1.5,0.1s1.1,0.2,1.7,0.4h3.9l-4.2,21.5H582.2z
		 M584.9,113.4l1-5c-0.5-0.3-1-0.4-1.5-0.6c-0.5-0.1-1-0.2-1.6-0.2c-1.5,0-3,0.6-4.5,1.9c-1.5,1.2-2.8,3-3.8,5.4
		c-1,2.4-1.5,4.5-1.5,6.4c0,0.6,0.1,1.1,0.4,1.5c0.3,0.4,0.7,0.6,1.2,0.6C576.5,123.5,580,120.2,584.9,113.4z"/>
	<path d="M592.1,126.8l4.3-21.5h3.9l-1.7,8.8c1.6-2.6,3.3-4.8,5.1-6.6c1.9-1.8,3.8-2.7,5.7-2.7c1,0,1.9,0.3,2.5,1
		c0.7,0.6,1,1.7,1,3.1c0,0.9-0.1,1.8-0.2,2.5l-3.1,15.4h-3.9l3.1-15.5c0.1-0.3,0.1-0.7,0.1-1.1c0-0.4-0.1-0.8-0.4-1.1
		c-0.2-0.3-0.5-0.4-0.9-0.4c-1.1,0-2.4,0.8-3.9,2.5c-1.6,1.7-3.6,4.3-6.2,8l-1.5,7.6H592.1z"/>
	<path d="M615.1,134.6l4.9-7.8l-3.6-21.5h4l2.8,16.5l10.3-16.5h3.7l-18.3,29.3H615.1z"/>
	<path d="M654,127.3c-2.4,0-4.2-0.7-5.3-2.1c-1.2-1.4-1.8-3.1-1.8-5.2c0-2.5,0.6-5.1,1.8-7.6c1.2-2.5,2.7-4.4,4.6-5.7
		c1.8-1.3,4-2,6.5-2c2.5,0,4.3,0.7,5.4,2.1c1.1,1.4,1.7,3.1,1.7,5.1c0,2.5-0.6,5-1.8,7.5c-1.2,2.5-2.7,4.4-4.5,5.7
		C658.7,126.7,656.5,127.3,654,127.3z M654.8,124.4c2.2,0,4.1-1.2,5.6-3.6s2.3-5,2.3-7.9c0-1.7-0.3-3-1-3.9
		c-0.7-0.9-1.6-1.3-2.9-1.3c-2.1,0-3.9,1.2-5.5,3.5c-1.5,2.4-2.3,5-2.3,7.9c0,1.7,0.3,3,1,3.8S653.6,124.4,654.8,124.4z"/>
	<path d="M667.9,134.6l5.2-26.4h-3.2l0.6-2.9h3.2l0.2-1c0.6-2.9,2-5.4,4.2-7.2c0.8-0.7,1.7-1.2,2.6-1.5s1.9-0.5,3.1-0.5
		c1.1,0,2.4,0.2,3.7,0.6l-0.6,3.1c-1.1-0.5-2.2-0.8-3.4-0.8c-1.4,0-2.6,0.6-3.6,1.7c-1,1.1-1.7,2.9-2.2,5.3l-0.1,0.4h5.9l-0.6,2.9
		H677l-5.3,26.4H667.9z"/>
	<path d="M695.6,126.8l5.8-29.3h4l10.1,23.2l4.6-23.2h3.6l-5.8,29.3h-4.1l-10.1-23.2l-4.6,23.2H695.6z"/>
	<path d="M740.9,124.7c-3.4,1.8-6.6,2.6-9.6,2.6c-2.3,0-4-0.7-5.2-2s-1.8-3.1-1.8-5.4c0-2.5,0.6-4.9,1.7-7.2
		c1.1-2.3,2.7-4.2,4.6-5.7c1.9-1.5,4.1-2.2,6.3-2.2c1.6,0,2.8,0.4,3.6,1.1c0.8,0.8,1.3,1.8,1.3,3.2c0,1.6-0.5,3.1-1.6,4.5
		c-1,1.4-2.6,2.5-4.6,3.5c-2,1-4.5,1.5-7.5,1.8c0,1.8,0.4,3.2,1.2,4c0.8,0.9,1.8,1.3,3.1,1.3c1,0,2.4-0.3,4.1-0.8
		c1.7-0.5,3.4-1.4,5.1-2.5L740.9,124.7z M728.5,116c2.4-0.2,4.2-0.6,5.4-1.1c1.3-0.5,2.3-1.3,3-2.2c0.7-0.9,1.1-1.8,1.1-2.6
		c0-0.5-0.2-1-0.6-1.5c-0.4-0.5-1-0.7-1.7-0.7c-0.9,0-1.8,0.3-2.7,0.9c-0.7,0.5-1.4,1.1-2,1.8c-0.5,0.6-0.9,1.2-1.3,1.9
		C729.2,113.3,728.8,114.4,728.5,116z"/>
	<path d="M747.4,126.8l-2-21.5h3.7l1.5,16.3l7.8-16.3h3.8l1.1,16.3l8.3-16.3h3.5l-10.9,21.5h-4l-1-16.4l-7.9,16.4H747.4z"/>
	<path d="M788.3,126.8l2.6-13.2l-6.8-16.1h4.5l5.2,12.3l9.8-12.3h4.1L795,113.6l-2.6,13.2H788.3z"/>
	<path d="M809.4,127.3c-2.4,0-4.2-0.7-5.3-2.1c-1.2-1.4-1.8-3.1-1.8-5.2c0-2.5,0.6-5.1,1.8-7.6c1.2-2.5,2.7-4.4,4.6-5.7
		c1.8-1.3,4-2,6.5-2c2.5,0,4.3,0.7,5.4,2.1c1.1,1.4,1.7,3.1,1.7,5.1c0,2.5-0.6,5-1.8,7.5c-1.2,2.5-2.7,4.4-4.5,5.7
		C814.1,126.7,811.9,127.3,809.4,127.3z M810.2,124.4c2.2,0,4.1-1.2,5.6-3.6s2.3-5,2.3-7.9c0-1.7-0.3-3-1-3.9
		c-0.7-0.9-1.6-1.3-2.9-1.3c-2.1,0-3.9,1.2-5.5,3.5c-1.5,2.4-2.3,5-2.3,7.9c0,1.7,0.3,3,1,3.8S809,124.4,810.2,124.4z"/>
	<path d="M824.2,126.8l4.3-21.5h3.9l-1.7,8.8c1-1.8,2.2-3.4,3.6-4.9s2.6-2.6,3.7-3.3c1.1-0.7,2.3-1,3.6-1c0.3,0,0.6,0,1,0.1
		l-0.8,4.3c-0.6-0.2-1.1-0.3-1.5-0.3c-1.3,0-2.6,0.7-4,2.1c-1.4,1.4-3.6,4.2-6.5,8.3l-1.5,7.6H824.2z"/>
	<path d="M841.4,126.8l6.2-31.2h3.9l-3.9,19.7l10.2-10h4.6l-10.2,10l8,11.4h-4.4l-8.2-11.5l-2.3,11.5H841.4z"/>
</g>
<g>
	<path d="M277.2,76.3V1.9h17.3l15.3,52.4l15.7-52.4h15.3v74.5h-12.2V20.1l-15.4,51.3h-10.6l-15.1-52v57H277.2z M379.9,78.2
		c-6.6,0-12.3-1.6-17.2-4.8c-4.8-3.2-8.6-7.8-11.1-13.8c-2.5-6-3.8-12.9-3.8-20.5c0-7.5,1.2-14.3,3.8-20.4c2.5-6,6.3-10.6,11.2-13.8
		c4.9-3.2,10.6-4.8,17.2-4.8c6.5,0,12.2,1.7,17.1,4.8c4.9,3.2,8.7,7.8,11.2,13.8c2.5,6.1,3.8,12.9,3.8,20.4c0,7.6-1.2,14.5-3.8,20.5
		c-2.5,6-6.3,10.6-11.1,13.8C392.2,76.5,386.5,78.2,379.9,78.2L379.9,78.2z M379.9,68c6,0,10.6-2.9,13.6-8.8
		c3-5.9,4.5-12.6,4.5-20.2c0-7.5-1.5-14.3-4.5-20.1c-3-5.9-7.5-8.8-13.6-8.8c-6.1,0-10.7,2.9-13.7,8.8c-3,5.8-4.5,12.6-4.5,20.1
		c0,7.6,1.5,14.3,4.5,20.2C369.2,65.1,373.8,68,379.9,68L379.9,68z M418.7,76.3V1.9h11.7l29.1,50.9V1.9h10.6v74.5h-11.8l-29.1-50.9
		v50.9H418.7z M481,76.3V1.9h13.1v74.5H481z M520.9,76.3V12.2h-22.7V1.9h58.5v10.3H534v64.2H520.9z M588.7,78.2
		c-6.6,0-12.3-1.6-17.2-4.8c-4.8-3.2-8.6-7.8-11.1-13.8c-2.5-6-3.8-12.9-3.8-20.5c0-7.5,1.2-14.3,3.8-20.4c2.5-6,6.3-10.6,11.2-13.8
		c4.9-3.2,10.6-4.8,17.2-4.8c6.5,0,12.2,1.7,17.1,4.8c4.9,3.2,8.7,7.8,11.2,13.8c2.5,6.1,3.8,12.9,3.8,20.4c0,7.6-1.2,14.5-3.8,20.5
		c-2.5,6-6.3,10.6-11.1,13.8C600.9,76.5,595.2,78.2,588.7,78.2L588.7,78.2z M588.7,68c6,0,10.6-2.9,13.6-8.8
		c3-5.9,4.5-12.6,4.5-20.2c0-7.5-1.5-14.3-4.5-20.1c-3-5.9-7.5-8.8-13.6-8.8c-6.1,0-10.7,2.9-13.7,8.8c-3,5.8-4.5,12.6-4.5,20.1
		c0,7.6,1.5,14.3,4.5,20.2C578,65.1,582.5,68,588.7,68L588.7,68z M627.4,76.3V1.9h23.7c4.8,0,8.5,0.7,11,2.2c2.5,1.4,4.6,3.6,6,6.5
		c1.5,2.9,2.2,6.2,2.2,9.8c0,4.3-1.1,8.4-3.2,12.4c-2.1,3.9-5.2,6.8-9,8.9l20.7,34.8h-16.1L647,45.8h-7.2v30.5H627.4z M639.9,35.6
		h3.1c5.3,0,9.1-1.4,11.2-4.2c2.1-2.8,3.2-5.9,3.2-9.4c0-3.1-0.9-5.5-2.5-7.3c-1.7-1.7-5.1-2.7-10.3-2.7h-4.5V35.6z"/>
	<path d="M706.2,76.3V1.9h13.1v63.9h28.4v10.6H706.2z M752.1,76.3V1.9h13.1v74.5H752.1z M776.2,76.3V1.9h39.6v10.3h-26.4v22.6H811
		V45h-21.7v31.3H776.2z M821.4,76.3V1.9H862v10.3h-27.5v20.7h22.8v10.3h-22.8v22.6H864v10.6H821.4z"/>
</g>
</svg>
