<svg xmlns="http://www.w3.org/2000/svg" viewBox="0 0 266.4 216"><defs><style>.cls-1{fill:#231f20;}.cls-2{fill:#009470;}.cls-3{fill:#74bdab;}.cls-4{fill:#007357;}</style></defs><title>ml-color-2017</title><g id="Layer_3" data-name="Layer 3"><g id="company-type"><path class="cls-1" d="M4.2,205.52,7,189.73H8.68L5.86,205.52Z"/><path class="cls-1" d="M10.51,205.52H8.94l2-11.21h1.29v1.52h0a4.71,4.71,0,0,1,1.46-1.33,3.69,3.69,0,0,1,1.88-.48,3,3,0,0,1,1.06.18,2.29,2.29,0,0,1,.82.53,2.39,2.39,0,0,1,.53.85,3.23,3.23,0,0,1,.19,1.16,7.74,7.74,0,0,1-.07,1q-.07.52-.17,1.06l-1.21,6.75H15.21l1.24-7a8,8,0,0,0,.16-1.42,2.19,2.19,0,0,0-.11-.73,1.15,1.15,0,0,0-.76-.76,1.85,1.85,0,0,0-.58-.09,2.84,2.84,0,0,0-1.27.29,3.43,3.43,0,0,0-1,.8,4.71,4.71,0,0,0-.77,1.19,6.08,6.08,0,0,0-.46,1.49Z"/><path class="cls-1" d="M21.68,197.32a1.45,1.45,0,0,0,.13.63,1.49,1.49,0,0,0,.34.46,2.17,2.17,0,0,0,.5.34l.6.27.88.38a3.31,3.31,0,0,1,.81.53,2.5,2.5,0,0,1,.6.82,3,3,0,0,1,.23,1.27,4.18,4.18,0,0,1-.3,1.64,3.29,3.29,0,0,1-.83,1.19,3.53,3.53,0,0,1-1.27.72,5.12,5.12,0,0,1-1.61.24,6.63,6.63,0,0,1-1.58-.19,3.75,3.75,0,0,1-1.25-.51l.29-1.53a8.28,8.28,0,0,0,1.17.48,4.38,4.38,0,0,0,1.36.21A3.12,3.12,0,0,0,23,204a2.14,2.14,0,0,0,.75-.53,1.62,1.62,0,0,0,.35-.65,2.5,2.5,0,0,0,.09-.59,1.48,1.48,0,0,0-.18-.77,1.73,1.73,0,0,0-.48-.52,3.45,3.45,0,0,0-.67-.37l-.77-.32q-.37-.17-.74-.37a2.64,2.64,0,0,1-.64-.51,2.3,2.3,0,0,1-.45-.74,3,3,0,0,1-.17-1.08A4,4,0,0,1,20.4,196a3.09,3.09,0,0,1,1.88-1.77,4,4,0,0,1,1.33-.22,5.2,5.2,0,0,1,.82.06,6.87,6.87,0,0,1,.78.17,6.57,6.57,0,0,1,.7.24,4.3,4.3,0,0,1,.58.29l-.27,1.51a8.65,8.65,0,0,0-1.25-.51,4.19,4.19,0,0,0-1.28-.21,2.53,2.53,0,0,0-.86.14,1.87,1.87,0,0,0-.63.37,1.52,1.52,0,0,0-.39.55A1.81,1.81,0,0,0,21.68,197.32Z"/><path class="cls-1" d="M30.85,205.81a4.09,4.09,0,0,1-1.51-.25,2.79,2.79,0,0,1-1.05-.7,2.85,2.85,0,0,1-.61-1.06,4.33,4.33,0,0,1-.2-1.33c0-.17,0-.35,0-.54s0-.39.09-.62l1.25-7h1.57l-1.23,6.88c0,.2-.06.38-.08.56a4.66,4.66,0,0,0,0,.51,3.1,3.1,0,0,0,.1.82,1.62,1.62,0,0,0,.32.63,1.42,1.42,0,0,0,.57.4,2.26,2.26,0,0,0,.85.14A2.66,2.66,0,0,0,32,204a2.14,2.14,0,0,0,.79-.6,3.28,3.28,0,0,0,.53-.94,7,7,0,0,0,.32-1.22l1.25-7h1.57l-1.31,7.29a9.69,9.69,0,0,1-.33,1.32,5.51,5.51,0,0,1-.53,1.17A3.62,3.62,0,0,1,33,205.34,4.27,4.27,0,0,1,30.85,205.81Z"/><path class="cls-1" d="M43.61,195.86a4.16,4.16,0,0,0-.62,0,2.88,2.88,0,0,0-1.28.28,3.09,3.09,0,0,0-1,.76A4.09,4.09,0,0,0,40,198a6.54,6.54,0,0,0-.4,1.36l-1.11,6.18H37l2-11.21h1.29v1.52h0a5.68,5.68,0,0,1,.54-.71,3.52,3.52,0,0,1,.66-.58,3.15,3.15,0,0,1,.8-.39,3,3,0,0,1,.94-.14l.36,0,.33.05Z"/><path class="cls-1" d="M49.27,203.68a5.17,5.17,0,0,1-.74,1,4.36,4.36,0,0,1-.8.66,3.1,3.1,0,0,1-.81.37,2.85,2.85,0,0,1-.77.11,2.29,2.29,0,0,1-1.12-.27,2.33,2.33,0,0,1-.82-.76,3.7,3.7,0,0,1-.51-1.19,6.43,6.43,0,0,1-.17-1.55,13,13,0,0,1,.14-1.92,12.27,12.27,0,0,1,.42-1.86,9.4,9.4,0,0,1,.7-1.67,6.46,6.46,0,0,1,1-1.35,4.2,4.2,0,0,1,1.2-.91,3.17,3.17,0,0,1,1.44-.33,2.49,2.49,0,0,1,1.36.37,2.41,2.41,0,0,1,.9,1h0l.47-1.12h1.28l-1.55,8.63a4.74,4.74,0,0,0-.07.67.55.55,0,0,0,.14.41.7.7,0,0,0,.48.13,3.77,3.77,0,0,0,.67-.07l-.27,1.51a3.91,3.91,0,0,1-.94.11,1.48,1.48,0,0,1-1.22-.46,2.42,2.42,0,0,1-.35-1.56Zm1.14-6.86a4.89,4.89,0,0,0-.31-.44,2.44,2.44,0,0,0-.41-.41,2,2,0,0,0-.52-.29,1.8,1.8,0,0,0-.65-.11,2,2,0,0,0-1.09.31,3.22,3.22,0,0,0-.86.81,5.43,5.43,0,0,0-.65,1.15,9.48,9.48,0,0,0-.45,1.34,11,11,0,0,0-.26,1.36,9.62,9.62,0,0,0-.09,1.23,5.37,5.37,0,0,0,.12,1.23,2.13,2.13,0,0,0,.32.76,1.13,1.13,0,0,0,.47.39,1.39,1.39,0,0,0,.55.11,2,2,0,0,0,1-.3,3.45,3.45,0,0,0,1-.87,6.33,6.33,0,0,0,.8-1.4,8.85,8.85,0,0,0,.55-1.89Z"/><path class="cls-1" d="M54.95,205.52H53.38l2-11.21h1.29v1.52h0a4.71,4.71,0,0,1,1.46-1.33,3.69,3.69,0,0,1,1.88-.48,3,3,0,0,1,1.06.18,2.29,2.29,0,0,1,.82.53,2.39,2.39,0,0,1,.53.85,3.23,3.23,0,0,1,.19,1.16,7.74,7.74,0,0,1-.07,1q-.07.52-.17,1.06l-1.21,6.75H59.65l1.24-7a8,8,0,0,0,.16-1.42,2.19,2.19,0,0,0-.11-.73,1.15,1.15,0,0,0-.76-.76,1.85,1.85,0,0,0-.58-.09,2.84,2.84,0,0,0-1.27.29,3.43,3.43,0,0,0-1,.8,4.71,4.71,0,0,0-.77,1.19,6.08,6.08,0,0,0-.46,1.49Z"/><path class="cls-1" d="M71.57,196.19a5.43,5.43,0,0,0-1.07-.42,4,4,0,0,0-1.09-.17,2.73,2.73,0,0,0-1.24.28,3.34,3.34,0,0,0-1,.75,4.7,4.7,0,0,0-.72,1.07,7.5,7.5,0,0,0-.49,1.24,8.8,8.8,0,0,0-.27,1.27,8.35,8.35,0,0,0-.09,1.14,4.71,4.71,0,0,0,.17,1.38,2.2,2.2,0,0,0,.48.88,1.72,1.72,0,0,0,.74.46,3.11,3.11,0,0,0,.94.14,4.56,4.56,0,0,0,1.4-.22,5.05,5.05,0,0,0,1.15-.51l-.28,1.68a3.16,3.16,0,0,1-.49.25,4.8,4.8,0,0,1-.62.21,6.34,6.34,0,0,1-.7.14,5,5,0,0,1-.73.05,4.1,4.1,0,0,1-1.39-.24,3,3,0,0,1-1.16-.76,3.75,3.75,0,0,1-.8-1.35,5.93,5.93,0,0,1-.29-2,10.74,10.74,0,0,1,.13-1.64,10.44,10.44,0,0,1,.41-1.69,8.86,8.86,0,0,1,.71-1.59,5.69,5.69,0,0,1,1-1.32,4.65,4.65,0,0,1,1.36-.9,4.22,4.22,0,0,1,1.7-.34,4.39,4.39,0,0,1,.72.06,6.57,6.57,0,0,1,.68.15,5.67,5.67,0,0,1,.6.2,4.23,4.23,0,0,1,.47.22Z"/><path class="cls-1" d="M80.24,196.91a3,3,0,0,1-1.74,2.9,7.11,7.11,0,0,1-2.07.64,20.8,20.8,0,0,1-2.8.25c0,.09,0,.17,0,.26s0,.18,0,.28a3.21,3.21,0,0,0,.66,2.24,2.58,2.58,0,0,0,2,.71,5.06,5.06,0,0,0,.72-.05,6,6,0,0,0,.74-.15q.36-.1.7-.23a4.64,4.64,0,0,0,.61-.28l-.28,1.68a6,6,0,0,1-2.75.65,4.37,4.37,0,0,1-1.78-.33,3.23,3.23,0,0,1-1.23-.93,3.87,3.87,0,0,1-.71-1.42,6.73,6.73,0,0,1-.23-1.8,10.72,10.72,0,0,1,.15-1.79,9.58,9.58,0,0,1,.45-1.71,7.87,7.87,0,0,1,.74-1.51,5.64,5.64,0,0,1,1-1.21,4.55,4.55,0,0,1,1.29-.81,4,4,0,0,1,1.55-.29,3.77,3.77,0,0,1,1.14.17,2.69,2.69,0,0,1,1,.53,2.54,2.54,0,0,1,.66.91A3.15,3.15,0,0,1,80.24,196.91Zm-6.32,2.16a13.86,13.86,0,0,0,2-.13,5.91,5.91,0,0,0,1.49-.4,2.32,2.32,0,0,0,.93-.68,1.62,1.62,0,0,0,.32-1,1.28,1.28,0,0,0-.09-.48,1.16,1.16,0,0,0-.27-.41,1.36,1.36,0,0,0-.45-.28,1.67,1.67,0,0,0-.61-.11,2.54,2.54,0,0,0-1.1.25,3.15,3.15,0,0,0-1,.71,4.63,4.63,0,0,0-.76,1.11A6.42,6.42,0,0,0,73.92,199.07Z"/><path class="cls-1" d="M93.35,191.14a4.48,4.48,0,0,0-1.73.33,5.09,5.09,0,0,0-1.46.91A6.69,6.69,0,0,0,89,193.77a8.85,8.85,0,0,0-.86,1.73,11.48,11.48,0,0,0-.53,2,12,12,0,0,0-.18,2.09,6.22,6.22,0,0,0,.35,2.29,3.55,3.55,0,0,0,.92,1.38,3.1,3.1,0,0,0,1.29.68,5.87,5.87,0,0,0,1.45.18,7,7,0,0,0,1.58-.18,10.67,10.67,0,0,0,1.38-.41l-.31,1.76a6.48,6.48,0,0,1-1.41.41,8.74,8.74,0,0,1-1.53.14,6.38,6.38,0,0,1-2.15-.35,4.54,4.54,0,0,1-1.74-1.1,5.16,5.16,0,0,1-1.16-1.9,8.07,8.07,0,0,1-.42-2.76,14.29,14.29,0,0,1,.21-2.4,12.88,12.88,0,0,1,.63-2.36,11.39,11.39,0,0,1,1.07-2.14,8,8,0,0,1,1.5-1.75,6.71,6.71,0,0,1,2-1.18,6.48,6.48,0,0,1,2.4-.43,7.12,7.12,0,0,1,1.6.17,7.26,7.26,0,0,1,1.28.41l-.3,1.71a9.71,9.71,0,0,0-1.21-.41A5.81,5.81,0,0,0,93.35,191.14Z"/><path class="cls-1" d="M104.91,198.42a10.17,10.17,0,0,1-.13,1.57,10.29,10.29,0,0,1-.41,1.66,9.22,9.22,0,0,1-.7,1.58,5.81,5.81,0,0,1-1,1.33,4.67,4.67,0,0,1-1.33.91,4,4,0,0,1-1.68.34,3.51,3.51,0,0,1-1.41-.28,2.87,2.87,0,0,1-1.09-.82,3.94,3.94,0,0,1-.7-1.33,5.94,5.94,0,0,1-.25-1.8,10.82,10.82,0,0,1,.13-1.59,10.47,10.47,0,0,1,.4-1.69,9.49,9.49,0,0,1,.7-1.62,6.22,6.22,0,0,1,1-1.37,4.53,4.53,0,0,1,1.33-.95,3.88,3.88,0,0,1,1.67-.35,3.5,3.5,0,0,1,1.42.28,2.94,2.94,0,0,1,1.09.83,3.84,3.84,0,0,1,.7,1.37A6.73,6.73,0,0,1,104.91,198.42Zm-3.55-2.86a2.25,2.25,0,0,0-1.08.26,3.22,3.22,0,0,0-.88.7,4.8,4.8,0,0,0-.7,1,7.79,7.79,0,0,0-.5,1.25,9,9,0,0,0-.3,1.36,9.3,9.3,0,0,0-.1,1.35,5,5,0,0,0,.12,1.12,2.56,2.56,0,0,0,.36.87,1.66,1.66,0,0,0,.62.55,1.89,1.89,0,0,0,.88.19,2.26,2.26,0,0,0,1.07-.26,3.17,3.17,0,0,0,.89-.7,4.86,4.86,0,0,0,.7-1,7.67,7.67,0,0,0,.5-1.24,9.17,9.17,0,0,0,.3-1.36,9.38,9.38,0,0,0,.1-1.36,5,5,0,0,0-.12-1.13,2.54,2.54,0,0,0-.36-.86,1.66,1.66,0,0,0-.62-.55A1.89,1.89,0,0,0,101.36,195.57Z"/><path class="cls-1" d="M114.66,196.31a5.6,5.6,0,0,1,.79-1.05,4.57,4.57,0,0,1,.88-.71,3.64,3.64,0,0,1,.91-.41,3.26,3.26,0,0,1,.89-.13,2.58,2.58,0,0,1,1,.18,2.2,2.2,0,0,1,.78.53,2.45,2.45,0,0,1,.51.85,3.32,3.32,0,0,1,.19,1.16,7.92,7.92,0,0,1-.07,1q-.07.52-.17,1.06l-1.21,6.75h-1.57l1.27-7.13q.08-.46.11-.77c0-.2,0-.37,0-.48a1.72,1.72,0,0,0-.35-1.19,1.17,1.17,0,0,0-.93-.38,2.31,2.31,0,0,0-1.11.29,3.57,3.57,0,0,0-1,.8,5,5,0,0,0-.77,1.19,6,6,0,0,0-.46,1.49l-1.11,6.18h-1.57l1.27-7.13q.08-.46.11-.77c0-.2,0-.37,0-.48a1.7,1.7,0,0,0-.37-1.21,1.25,1.25,0,0,0-.92-.36,2.31,2.31,0,0,0-1.11.29,3.48,3.48,0,0,0-1,.8,5.2,5.2,0,0,0-.77,1.19,5.81,5.81,0,0,0-.47,1.49l-1.11,6.18H105.8l2-11.21h1.29v1.52h0a4.58,4.58,0,0,1,1.43-1.35,3.36,3.36,0,0,1,1.71-.47,2.53,2.53,0,0,1,.88.15,2,2,0,0,1,.71.44,2.29,2.29,0,0,1,.5.72,3.05,3.05,0,0,1,.24,1Z"/><path class="cls-1" d="M125,195.84h0a5.45,5.45,0,0,1,.7-.86,3.93,3.93,0,0,1,.73-.57,2.84,2.84,0,0,1,.74-.31A2.9,2.9,0,0,1,128,194a2.37,2.37,0,0,1,2.05,1.08,3.93,3.93,0,0,1,.54,1.27,7.14,7.14,0,0,1,.18,1.69,12.35,12.35,0,0,1-.14,1.81,11.05,11.05,0,0,1-.42,1.79,9.65,9.65,0,0,1-.69,1.62,5.85,5.85,0,0,1-1,1.32,4.4,4.4,0,0,1-1.23.89,3.37,3.37,0,0,1-1.49.33,3.19,3.19,0,0,1-1.35-.27,2.75,2.75,0,0,1-1-.73h0L122.34,211h-1.57l3-16.7H125Zm-1.33,7.47a3.2,3.2,0,0,0,.8.67,2.25,2.25,0,0,0,1.17.28,2.07,2.07,0,0,0,1.1-.3,3.35,3.35,0,0,0,.88-.8,5.28,5.28,0,0,0,.68-1.14,9.24,9.24,0,0,0,.47-1.32,10.75,10.75,0,0,0,.27-1.35,9.17,9.17,0,0,0,.09-1.23,5,5,0,0,0-.13-1.23,2.2,2.2,0,0,0-.35-.78,1.22,1.22,0,0,0-.5-.41,1.52,1.52,0,0,0-.59-.12,1.9,1.9,0,0,0-1,.31,3.72,3.72,0,0,0-1,.88,6.12,6.12,0,0,0-.82,1.41,8.75,8.75,0,0,0-.55,1.9Z"/><path class="cls-1" d="M137.78,203.68a5.17,5.17,0,0,1-.74,1,4.36,4.36,0,0,1-.8.66,3.1,3.1,0,0,1-.81.37,2.85,2.85,0,0,1-.77.11,2.29,2.29,0,0,1-1.12-.27,2.33,2.33,0,0,1-.82-.76,3.7,3.7,0,0,1-.51-1.19,6.43,6.43,0,0,1-.17-1.55,13,13,0,0,1,.14-1.92,12.27,12.27,0,0,1,.42-1.86,9.4,9.4,0,0,1,.7-1.67,6.46,6.46,0,0,1,1-1.35,4.2,4.2,0,0,1,1.2-.91,3.17,3.17,0,0,1,1.44-.33,2.49,2.49,0,0,1,1.36.37,2.41,2.41,0,0,1,.9,1h0l.47-1.12h1.28l-1.55,8.63a4.74,4.74,0,0,0-.07.67.55.55,0,0,0,.14.41.7.7,0,0,0,.48.13,3.77,3.77,0,0,0,.67-.07l-.27,1.51a3.91,3.91,0,0,1-.94.11,1.48,1.48,0,0,1-1.22-.46,2.42,2.42,0,0,1-.35-1.56Zm1.14-6.86a4.89,4.89,0,0,0-.31-.44,2.44,2.44,0,0,0-.41-.41,2,2,0,0,0-.52-.29,1.8,1.8,0,0,0-.65-.11,2,2,0,0,0-1.09.31,3.22,3.22,0,0,0-.86.81,5.43,5.43,0,0,0-.65,1.15,9.48,9.48,0,0,0-.45,1.34,11,11,0,0,0-.26,1.36,9.62,9.62,0,0,0-.09,1.23,5.37,5.37,0,0,0,.12,1.23,2.13,2.13,0,0,0,.32.76,1.13,1.13,0,0,0,.47.39,1.39,1.39,0,0,0,.55.11,2,2,0,0,0,1-.3,3.45,3.45,0,0,0,1-.87,6.33,6.33,0,0,0,.8-1.4,8.85,8.85,0,0,0,.55-1.89Z"/><path class="cls-1" d="M143.46,205.52h-1.57l2-11.21h1.29v1.52h0a4.71,4.71,0,0,1,1.46-1.33,3.69,3.69,0,0,1,1.88-.48,3,3,0,0,1,1.06.18,2.29,2.29,0,0,1,.82.53,2.39,2.39,0,0,1,.53.85,3.23,3.23,0,0,1,.19,1.16,7.74,7.74,0,0,1-.07,1q-.07.52-.17,1.06l-1.21,6.75h-1.57l1.24-7a8,8,0,0,0,.16-1.42,2.19,2.19,0,0,0-.11-.73,1.15,1.15,0,0,0-.76-.76,1.85,1.85,0,0,0-.58-.09,2.84,2.84,0,0,0-1.27.29,3.43,3.43,0,0,0-1,.8,4.71,4.71,0,0,0-.77,1.19,6.08,6.08,0,0,0-.46,1.49Z"/><path class="cls-1" d="M152.61,194.31h1.62l1.67,8.86h0l4.11-8.86h1.82l-5.51,11.53q-.51,1.06-1,2a11.26,11.26,0,0,1-1,1.58,5.25,5.25,0,0,1-1.55,1.44,3.88,3.88,0,0,1-2,.5l-.43,0-.45-.06.28-1.58.3,0,.29,0a2.53,2.53,0,0,0,1.13-.25,3.3,3.3,0,0,0,1-.78,7.08,7.08,0,0,0,.92-1.35,20.34,20.34,0,0,0,.91-2Z"/><path class="cls-1" d="M174.41,198.42a10.17,10.17,0,0,1-.13,1.57,10.29,10.29,0,0,1-.41,1.66,9.22,9.22,0,0,1-.7,1.58,5.81,5.81,0,0,1-1,1.33,4.67,4.67,0,0,1-1.33.91,4,4,0,0,1-1.68.34,3.51,3.51,0,0,1-1.41-.28,2.87,2.87,0,0,1-1.09-.82,3.94,3.94,0,0,1-.7-1.33,5.94,5.94,0,0,1-.25-1.8,10.82,10.82,0,0,1,.13-1.59,10.47,10.47,0,0,1,.4-1.69,9.49,9.49,0,0,1,.7-1.62,6.22,6.22,0,0,1,1-1.37,4.53,4.53,0,0,1,1.33-.95,3.88,3.88,0,0,1,1.67-.35,3.5,3.5,0,0,1,1.42.28,2.94,2.94,0,0,1,1.09.83,3.84,3.84,0,0,1,.7,1.37A6.73,6.73,0,0,1,174.41,198.42Zm-3.55-2.86a2.25,2.25,0,0,0-1.08.26,3.22,3.22,0,0,0-.88.7,4.8,4.8,0,0,0-.7,1,7.79,7.79,0,0,0-.5,1.25,9,9,0,0,0-.3,1.36,9.3,9.3,0,0,0-.1,1.35,5,5,0,0,0,.12,1.12,2.56,2.56,0,0,0,.36.87,1.66,1.66,0,0,0,.62.55,1.89,1.89,0,0,0,.88.19,2.26,2.26,0,0,0,1.07-.26,3.17,3.17,0,0,0,.89-.7,4.86,4.86,0,0,0,.7-1,7.67,7.67,0,0,0,.5-1.24,9.17,9.17,0,0,0,.3-1.36,9.38,9.38,0,0,0,.1-1.36,5,5,0,0,0-.12-1.13,2.54,2.54,0,0,0-.36-.86,1.66,1.66,0,0,0-.62-.55A1.89,1.89,0,0,0,170.86,195.57Z"/><path class="cls-1" d="M177.16,207.06a8.22,8.22,0,0,1-.59,2,4.18,4.18,0,0,1-.9,1.3,3.17,3.17,0,0,1-1.19.71,4.61,4.61,0,0,1-1.45.22,3.93,3.93,0,0,1-.84-.08,3.61,3.61,0,0,1-.55-.15l.25-1.56a2.67,2.67,0,0,0,.53.15,3.06,3.06,0,0,0,.54.05,2.76,2.76,0,0,0,1-.17,1.85,1.85,0,0,0,.76-.58,3.57,3.57,0,0,0,.56-1.07,10.49,10.49,0,0,0,.41-1.64l1.87-10.37H175.8l.28-1.57h1.78l.35-1.95a5.82,5.82,0,0,1,1.44-3.19,3.49,3.49,0,0,1,2.55-1,4.4,4.4,0,0,1,.89.08,3.46,3.46,0,0,1,.62.18l-.24,1.52a4.22,4.22,0,0,0-.61-.14,3.9,3.9,0,0,0-.6,0,2.09,2.09,0,0,0-1.63.68,4.21,4.21,0,0,0-.87,2.11l-.31,1.79h2.65l-.28,1.57h-2.65Z"/><path class="cls-1" d="M195.14,202.67q.06-.46.12-1c0-.33.08-.67.13-1s.1-.68.15-1,.11-.66.16-1l1.61-9H199l-2.82,15.79h-1.54l-3.68-9.2q-.36-.87-.73-1.85t-.66-1.92h0q-.11,1-.25,2t-.31,2l-1.6,9h-1.65l2.82-15.79H190l3.95,9.9.59,1.49q.3.78.55,1.55Z"/><path class="cls-1" d="M207.74,196.91a3,3,0,0,1-1.74,2.9,7.11,7.11,0,0,1-2.07.64,20.8,20.8,0,0,1-2.8.25c0,.09,0,.17,0,.26s0,.18,0,.28a3.21,3.21,0,0,0,.66,2.24,2.58,2.58,0,0,0,2,.71,5.06,5.06,0,0,0,.72-.05,6,6,0,0,0,.74-.15q.36-.1.7-.23a4.64,4.64,0,0,0,.61-.28l-.28,1.68a6,6,0,0,1-2.75.65,4.37,4.37,0,0,1-1.78-.33,3.23,3.23,0,0,1-1.23-.93,3.87,3.87,0,0,1-.71-1.42,6.73,6.73,0,0,1-.23-1.8,10.72,10.72,0,0,1,.15-1.79,9.58,9.58,0,0,1,.45-1.71,7.87,7.87,0,0,1,.74-1.51,5.64,5.64,0,0,1,1-1.21,4.55,4.55,0,0,1,1.29-.81,4,4,0,0,1,1.55-.29,3.77,3.77,0,0,1,1.14.17,2.69,2.69,0,0,1,1,.53,2.54,2.54,0,0,1,.66.91A3.15,3.15,0,0,1,207.74,196.91Zm-6.32,2.16a13.86,13.86,0,0,0,2-.13,5.91,5.91,0,0,0,1.49-.4,2.32,2.32,0,0,0,.93-.68,1.62,1.62,0,0,0,.32-1,1.28,1.28,0,0,0-.09-.48,1.16,1.16,0,0,0-.27-.41,1.36,1.36,0,0,0-.45-.28,1.67,1.67,0,0,0-.61-.11,2.54,2.54,0,0,0-1.1.25,3.15,3.15,0,0,0-1,.71,4.63,4.63,0,0,0-.76,1.11A6.42,6.42,0,0,0,201.42,199.07Z"/><path class="cls-1" d="M215.56,196.37c-.06.21-.13.46-.22.73s-.19.57-.29.87l-.34,1-.36,1-2.1,5.6h-1.65l-1.67-11.21h1.6l.66,5q.09.68.16,1.26t.13,1.06l.1.91c0,.28.06.55.09.81h.05q.09-.32.22-.7l.26-.77.26-.77c.09-.25.17-.48.25-.7l2.29-6.12h1.7l.54,6.1q0,.32.06.7t.06.77q0,.39.06.77t0,.71h.05q.25-.74.58-1.51t.62-1.4l2.81-6.14h1.79l-5.37,11.21h-1.62l-.47-5.64q0-.46-.08-.95t-.06-1q0-.47,0-.88t0-.72Z"/><path class="cls-1" d="M230.32,205.52l1.15-6.38-3.18-9.4H230l2.46,7.53h0l4.33-7.53h1.92l-5.59,9.42L232,205.52Z"/><path class="cls-1" d="M245.6,198.42a10.17,10.17,0,0,1-.13,1.57,10.29,10.29,0,0,1-.41,1.66,9.22,9.22,0,0,1-.7,1.58,5.81,5.81,0,0,1-1,1.33,4.67,4.67,0,0,1-1.33.91,4,4,0,0,1-1.68.34,3.51,3.51,0,0,1-1.41-.28,2.87,2.87,0,0,1-1.09-.82,3.94,3.94,0,0,1-.7-1.33,5.94,5.94,0,0,1-.25-1.8A10.82,10.82,0,0,1,237,200a10.47,10.47,0,0,1,.4-1.69,9.49,9.49,0,0,1,.7-1.62,6.22,6.22,0,0,1,1-1.37,4.53,4.53,0,0,1,1.33-.95,3.88,3.88,0,0,1,1.67-.35,3.5,3.5,0,0,1,1.42.28,2.94,2.94,0,0,1,1.09.83,3.84,3.84,0,0,1,.7,1.37A6.73,6.73,0,0,1,245.6,198.42ZM242,195.57a2.25,2.25,0,0,0-1.08.26,3.22,3.22,0,0,0-.88.7,4.8,4.8,0,0,0-.7,1,7.79,7.79,0,0,0-.5,1.25,9,9,0,0,0-.3,1.36,9.3,9.3,0,0,0-.1,1.35,5,5,0,0,0,.12,1.12,2.56,2.56,0,0,0,.36.87,1.66,1.66,0,0,0,.62.55,1.89,1.89,0,0,0,.88.19,2.26,2.26,0,0,0,1.07-.26,3.17,3.17,0,0,0,.89-.7,4.86,4.86,0,0,0,.7-1,7.67,7.67,0,0,0,.5-1.24,9.17,9.17,0,0,0,.3-1.36,9.38,9.38,0,0,0,.1-1.36,5,5,0,0,0-.12-1.13,2.54,2.54,0,0,0-.36-.86,1.66,1.66,0,0,0-.62-.55A1.89,1.89,0,0,0,242,195.57Z"/><path class="cls-1" d="M253.14,195.86a4.16,4.16,0,0,0-.62,0,2.88,2.88,0,0,0-1.28.28,3.09,3.09,0,0,0-1,.76,4.09,4.09,0,0,0-.68,1.12,6.54,6.54,0,0,0-.4,1.36l-1.11,6.18H246.5l2-11.21h1.29v1.52h0a5.68,5.68,0,0,1,.54-.71,3.52,3.52,0,0,1,.66-.58,3.15,3.15,0,0,1,.8-.39,3,3,0,0,1,.94-.14l.36,0,.33.05Z"/><path class="cls-1" d="M260.49,205.74a3.6,3.6,0,0,1-.5,0,2.22,2.22,0,0,1-1.09-.26,2.81,2.81,0,0,1-.82-.68,4.58,4.58,0,0,1-.61-1q-.26-.55-.47-1.12t-.35-1q-.17-.5-.34-.92a4.22,4.22,0,0,0-.38-.73,1.12,1.12,0,0,0-.47-.42l-1,5.86h-1.57l3.05-17.08h1.57l-1.94,10.84h.05l4.59-5h2.15l-5,5.22a1.59,1.59,0,0,1,.31.45,5.85,5.85,0,0,1,.27.65l.26.77c.09.27.18.54.28.81s.21.51.33.76a3.1,3.1,0,0,0,.42.64,1.94,1.94,0,0,0,.53.44,1.39,1.39,0,0,0,.69.17,1.76,1.76,0,0,0,.33,0Z"/></g><g id="company-name"><path class="cls-1" d="M17.91,165.94q.9-3.86,2.23-8.29L24.87,142h7v32.71h-5V158.14q0-3.64.25-8.46H27q-.35,1.39-.82,3.13t-1,3.42l-5.67,18.48H16.26l-5.67-18.48q-.51-1.69-1-3.42t-.82-3.13H8.6q.25,4.52.25,8.43v16.6h-5V142h7l4.73,15.57q1.19,3.89,2.23,8.36Z"/><path class="cls-1" d="M62.6,158.36a24.9,24.9,0,0,1-.89,6.86,16,16,0,0,1-2.6,5.37,11.92,11.92,0,0,1-4.19,3.5,13.46,13.46,0,0,1-11.31,0,11.92,11.92,0,0,1-4.19-3.5,16.07,16.07,0,0,1-2.6-5.37,26.87,26.87,0,0,1,0-13.71,16.07,16.07,0,0,1,2.6-5.37,11.92,11.92,0,0,1,4.19-3.5,13.46,13.46,0,0,1,11.31,0,11.92,11.92,0,0,1,4.19,3.5,16,16,0,0,1,2.6,5.37A24.9,24.9,0,0,1,62.6,158.36Zm-5.18,0a19.84,19.84,0,0,0-.61-5.22,11.43,11.43,0,0,0-1.7-3.73,7,7,0,0,0-2.58-2.22,7.68,7.68,0,0,0-6.55,0,7,7,0,0,0-2.58,2.22,11.43,11.43,0,0,0-1.7,3.73,22.47,22.47,0,0,0,0,10.44,11.29,11.29,0,0,0,1.7,3.72A7.14,7.14,0,0,0,46,169.52a7.56,7.56,0,0,0,6.55,0,7.14,7.14,0,0,0,2.58-2.22,11.29,11.29,0,0,0,1.7-3.72A19.82,19.82,0,0,0,57.42,158.36Z"/><path class="cls-1" d="M80,157.21q2.95,5,4.79,8.9h.12q-.25-6.38-.25-9.29V142h5v32.71H84.42L75.5,159.66q-2.35-3.91-4.87-9.07h-.12q.25,6,.25,9.31v14.81h-5V142H71Z"/><path class="cls-1" d="M95,174.71V142h5v32.71Z"/><path class="cls-1" d="M116.35,174.71h-5V147H102.5v-5h22.67v5h-8.82Z"/><path class="cls-1" d="M151.83,158.36a24.9,24.9,0,0,1-.89,6.86,16,16,0,0,1-2.6,5.37,11.92,11.92,0,0,1-4.19,3.5,13.46,13.46,0,0,1-11.31,0,11.92,11.92,0,0,1-4.19-3.5,16.07,16.07,0,0,1-2.6-5.37,26.87,26.87,0,0,1,0-13.71,16.07,16.07,0,0,1,2.6-5.37,11.92,11.92,0,0,1,4.19-3.5,13.46,13.46,0,0,1,11.31,0,11.92,11.92,0,0,1,4.19,3.5,16,16,0,0,1,2.6,5.37A24.9,24.9,0,0,1,151.83,158.36Zm-5.18,0a19.84,19.84,0,0,0-.61-5.22,11.43,11.43,0,0,0-1.7-3.73,7,7,0,0,0-2.58-2.22,7.68,7.68,0,0,0-6.55,0,7,7,0,0,0-2.58,2.22,11.43,11.43,0,0,0-1.7,3.73,22.47,22.47,0,0,0,0,10.44,11.29,11.29,0,0,0,1.7,3.72,7.14,7.14,0,0,0,2.58,2.22,7.56,7.56,0,0,0,6.55,0,7.14,7.14,0,0,0,2.58-2.22,11.29,11.29,0,0,0,1.7-3.72A19.82,19.82,0,0,0,146.65,158.36Z"/><path class="cls-1" d="M176.07,151.83a10.25,10.25,0,0,1-1.59,5.81,9.29,9.29,0,0,1-4.9,3.53v.1l8.14,13.44h-6l-7.45-12.66h-3.44v12.66h-5V142h8.33a24.68,24.68,0,0,1,3.85.28,12.31,12.31,0,0,1,3,.84,8.22,8.22,0,0,1,3.72,3.26A10.35,10.35,0,0,1,176.07,151.83ZM163.3,157a19.69,19.69,0,0,0,2.92-.18,7.89,7.89,0,0,0,2-.55,4.08,4.08,0,0,0,2.1-1.87,6.09,6.09,0,0,0,.58-2.73,5.6,5.6,0,0,0-.46-2.33,3.39,3.39,0,0,0-1.57-1.6,5.78,5.78,0,0,0-1.8-.57,16.47,16.47,0,0,0-2.68-.18h-3.58v10Z"/><path class="cls-1" d="M197.87,142v27.7h12.81v5H192.86V142Z"/><path class="cls-1" d="M213.6,174.71V142h5v32.71Z"/><path class="cls-1" d="M228.89,174.71h-5V142h17.43v5H228.89v8.46h10.62v5H228.89Z"/><path class="cls-1" d="M249.1,169.7h13.46v5H244.09V142h17.74v5H249.1v8.46H260v5H249.1Z"/></g><g id="ml-symbol"><path class="cls-2" d="M36.26,133.48H62.79a70.77,70.77,0,0,1,70.69-70.69V36.26A97.33,97.33,0,0,0,36.26,133.48Z"/><path class="cls-2" d="M142.25,98.87a70.72,70.72,0,0,1,61.6-36.08V36.26a96.77,96.77,0,0,0-61.6,22.06Z"/><path class="cls-2" d="M212.62,50.24V83.75a70.47,70.47,0,0,1,50.18-21V36.26A96.63,96.63,0,0,0,212.62,50.24Z"/><path class="cls-3" d="M3.6,133.48H30.13A103.46,103.46,0,0,1,133.48,30.13V3.6A129.88,129.88,0,0,0,3.6,133.48Z"/><path class="cls-3" d="M142.25,50.55a102.8,102.8,0,0,1,61.6-20.42V3.6a129.3,129.3,0,0,0-61.6,15.51Z"/><path class="cls-3" d="M212.62,13.66V43.16a102.7,102.7,0,0,1,50.18-13V3.6A129.47,129.47,0,0,0,212.62,13.66Z"/><path class="cls-4" d="M101.57,133.48h31.91V101.57A32,32,0,0,0,101.57,133.48Z"/><path class="cls-4" d="M68.91,133.48H95.44a38.08,38.08,0,0,1,38-38V68.91A64.64,64.64,0,0,0,68.91,133.48Z"/><path class="cls-4" d="M171.94,133.48h31.91V101.57A32,32,0,0,0,171.94,133.48Z"/><path class="cls-4" d="M142.25,114.13v19.35h23.57a38.08,38.08,0,0,1,38-38V68.91A64.68,64.68,0,0,0,142.25,114.13Z"/><path class="cls-4" d="M230.89,133.48H262.8V101.57A32,32,0,0,0,230.89,133.48Z"/><path class="cls-4" d="M212.62,92.92v40.56h12.15a38.08,38.08,0,0,1,38-38V68.91A64.46,64.46,0,0,0,212.62,92.92Z"/></g></g></svg>