<svg xmlns="http://www.w3.org/2000/svg" viewBox="0 0 247 177.5"><path fill="#eb0029" d="M122.7 27c-11.3-2-19.8 1-25.4-9 12.5 8.2 26.4 0 31.7 12.8a9.8 9.8 0 0 0-6.3-3.8z"/><path fill="#eb0029" d="M138.3 33h-5.9a10 10 0 0 0-3.8-8.7c-8-7.7-30.6-1.6-36.8-14.4 7.5 7.2 32.7 2 42.8 10.3 4.9 4.1 5.5 8.8 3.7 12.9z"/><path fill="#eb0029" d="M120.4 7c15.6-.3 18.2 10 18.3 13.6-7.5-14.6-45.6-1.2-52-21.1 0 0 5.2 7.8 33.7 7.4z"/><path fill="#b1aecc" d="M126.7 47.3l3.4 58.6c1.7 0 3.4-.2 5-.1l.3-4.8-.3 4.4v.4c-.8 0-1.9-.2-2.7-.1l2.2-57.3a1.5 1.5 0 0 0-1.5-1.6H130l3.1-1.7a8.8 8.8 0 0 0 3.3-3.2l2.5-5H116c3 0 10.2 5.6 10.6 10.4z"/><path fill="#022169" d="M196.6 41a4.2 4.2 0 0 0-4.2-4.1h-43.2a9.6 9.6 0 0 0-4.7 1.8c-3 2-5.8 5.2-6 8.3l-3.1 54-.3 4.8-5 .1-3.4-58.6c-.4-4.8-7.6-10.4-10.6-10.4h-3.2a6.6 6.6 0 0 0-5.8 3.3l-43.3 72c-2.7 4.5-6 7.8-11.6 8l-.9 6h32.4l1-6c-7.7 0-10.2-1.3-10.2-5.5 0-3.7 2.6-9.7 8.8-20.3H110c1.2 12.8 1.6 16.4 1.6 18.7 0 6-1.8 7-10.2 7l-1 6H166v-6c-9.3-.7-10.3-2.3-10.3-12.6V84.8c15 0 16.8 6.4 17.9 15.5h5.5V62h-5.5c-1.1 9-2.8 15.5-17.8 15.5V58 47.5a3.1 3.1 0 0 1 3.3-2.6h2.5c19.8 0 26.2 6.3 29 21.5h6.4zM86.9 87.6l18.4-31c.6-1.1.9-1.4 1.2-1.4s.6.4.8 1.4l2 31z"/><path fill="#fff" d="M133.1 45c-1.4 1-3.1 1.8-3.1 1.8h3.1a1.5 1.5 0 0 1 1.5 1.6l-2.2 57.3h2.7v-.3l.3-4.5 3-54c.3-3 3-6.2 6-8.2a9.6 9.6 0 0 1 4.8-1.9H139s-1.3 2.9-2.5 5a8.8 8.8 0 0 1-3.3 3.3z"/><path fill="#fff" d="M132.6 120.1L129 109h-11.6l9.4-6.8-3.6-11 9.4 6.8 9.3-6.8-3.5 11 9.4 6.8h-11.6l-3.6 11.1z"/><path fill="#022169" d="M15.7 170.6v-1.4c2 0 3-.4 3-1.5a5.4 5.4 0 0 0-.3-1.8l-1.5-4.3H8.2c-1.4 4.1-1.6 5.2-1.6 6 0 1.3.8 1.5 3 1.6v1.4H1.2v-1.4c2-.1 2.5-1.5 3.5-4.1l7.5-19.1h3.1c.6 2.3 1.4 4.6 2.1 6.6l5.3 14.3a3.1 3.1 0 0 0 2.9 2.3v1.4zm.6-10.7l-3.3-9.4c0-.2-.2-.5-.4-.5s-.3.3-.4.6l-3.4 9.3zM27.1 170.6v-1.4c1.6 0 2.4-.4 2.4-2.7v-8.3c0-1.8-.6-2.7-2.2-2.8V154l5.6-1v2.7l.1.1.7-.6a6.8 6.8 0 0 1 4.7-2.2 4.4 4.4 0 0 1 4 1.7c.7.9.6 1.3.8 1.3s.2-.3 1.4-1.2A6.4 6.4 0 0 1 49 153c2.6 0 4.8 1.4 4.8 4.5v9c0 2.2.8 2.6 2.4 2.6v1.5h-8.3v-1.5c1.6 0 2.4-.4 2.4-2.6v-8c0-2.1-1.1-3-2.8-3a5.2 5.2 0 0 0-4.2 2.6v8.4c0 2.2.8 2.6 2.4 2.6v1.5h-8.2v-1.5c1.6 0 2.4-.4 2.4-2.6v-8c0-2-1.1-3-2.9-3S34 156.8 33 158v8.4c0 2.3.8 2.7 2.4 2.7v1.4zM57.6 170.6v-1.4c2.9-.1 3.6-.8 3.6-2.7v-15.8c0-1.9-.7-2.6-3.6-2.7v-1.4h15l6-.3v8h-1.5c-.4-4.8-1.4-6.3-8.4-6.3h-3.4l-.2 4.4v5c5.1-.1 5.7-1 6-4.1h1.5v9.6H71c-.3-3.2-.9-4-6-4v7.6c0 1.9.7 2.6 3.6 2.7v1.4zM80 170.6v-1.4c2 0 2.9-.4 2.9-2.7v-8.3c0-1.8-.6-2.7-2.8-2.8V154l6.2-1v13.5c0 2.2.8 2.6 2.9 2.6v1.5zm4.5-25.2a2 2 0 1 1-2 2 2 2 0 0 1 2-2zM90.2 170.6v-1.4c1.8 0 2.6-.4 2.6-2.7v-9c0-1.6-.6-2.2-2.7-2.4v-1.3l5.8-.7v3.9c0 .2 0 .3.2.3s.1-.1 1-1.6a5.2 5.2 0 0 1 4.4-2.6c2 0 3.3 1.2 3.3 2.5a2.5 2.5 0 0 1-2.8 2.9 4.8 4.8 0 0 1-1-.1 2.6 2.6 0 0 0 .2-1.2c0-1.1-.6-1.7-1.4-1.7-1.5 0-3.6 2.6-3.6 6.3v4.8c0 2 .7 2.6 3.4 2.6v1.5zM108 164.6c.3 3 2.3 5 5 5 2 0 3.3-1.3 3.3-3 0-4.5-9.8-2.5-9.8-8.5 0-3.2 2.4-5.1 5.8-5.1a19.6 19.6 0 0 1 4 .7 1.5 1.5 0 0 0 .9-.3h.8v5.1h-1.4c-.9-3.1-2.7-4-4.6-4a2.5 2.5 0 0 0-2.8 2.5c0 4 9.8 2 9.8 8.5 0 3.2-2.4 5.5-6.1 5.5-2.1 0-3.6-.8-4.5-.8a1 1 0 0 0-.7.4h-1.5v-6zM126 148.7v4.7h4.9v1.9h-5v11.6c0 1.3.8 2 2.3 2a7 7 0 0 0 2.6-.5v1.6a9.8 9.8 0 0 1-4.4 1c-2.7 0-3.9-1.3-3.9-3.4v-12.3H120V154a19.8 19.8 0 0 0 4.8-5.3zM162.7 166.7a12 12 0 0 1-9.4 4.5c-7.4 0-12-5.4-12-12.6S146 146 153.4 146a39 39 0 0 1 8 .8v7.7h-1.7c-.1-5-2.6-7-6.3-7-5.1 0-8 4.2-8 10.8 0 6.7 4 10.9 8.5 10.9a10.1 10.1 0 0 0 7.5-3.8zM181.1 170.6a14.5 14.5 0 0 1-3.2.4 2 2 0 0 1-2-1.2c-.3-.6-.3-1.2-.6-1.2-.6 0-1.8 2.4-5.8 2.4-3.1 0-5.3-1.8-5.3-4.8 0-2.3 1.2-4 6.7-5.4 4.6-1.1 4.6-1 4.6-3.2 0-2-1-3.1-3.2-3.1-1.5 0-2.5.8-2.5 1.8a3.3 3.3 0 0 0 .4 1.5 3.8 3.8 0 0 1-2.5 1.2 2 2 0 0 1-2-2.2c0-2 2.3-3.8 6.4-3.8 4.6 0 6.7 1.7 6.7 5.3v8.7c0 1.6.4 2.5 2.3 2.5zm-5.6-9.5c-3 1.1-7.4 1.5-7.4 4.8a2.7 2.7 0 0 0 2.7 3c2.4 0 4.7-1.7 4.7-6z"/><path fill="#022169" d="M180.6 177v-1.5c1.8 0 2.6-.8 2.6-2.6v-15.4c0-1.6-.7-2.2-2.4-2.4v-1.3l5.8-.8v2.2l.1.2.7-.5a7 7 0 0 1 4.6-1.9c4 0 6.5 2.8 6.5 8.4s-3.5 9.6-8.1 9.6a7.2 7.2 0 0 1-3.8-1v2.8c0 1.9.7 2.6 3.4 2.7v1.5zm6-10.6a3.1 3.1 0 0 0 3.4 3.2c3 0 5-3 5-7 0-4.5-1.9-7-4.5-7a5.3 5.3 0 0 0-4 2zM199.5 170.6v-1.4c2 0 2.9-.4 2.9-2.7v-8.3c0-1.8-.6-2.7-2.8-2.8V154l6.2-1v13.5c0 2.2.8 2.6 2.8 2.6v1.5zm4.5-25.2a2 2 0 1 1-2 2 2 2 0 0 1 2-2zM214.1 148.7v4.7h5v1.9h-5v11.6c0 1.3.8 2 2.3 2a7 7 0 0 0 2.6-.5v1.6a9.8 9.8 0 0 1-4.4 1c-2.7 0-3.9-1.3-3.9-3.4v-12.3h-2.5V154a19.9 19.9 0 0 0 4.8-5.3zM237 170.6a14.5 14.5 0 0 1-3.2.4 2 2 0 0 1-2.1-1.2c-.2-.6-.2-1.2-.5-1.2-.6 0-1.8 2.4-5.8 2.4-3.2 0-5.3-1.8-5.3-4.8 0-2.3 1.2-4 6.7-5.4 4.6-1.1 4.6-1 4.6-3.2 0-2-1-3.1-3.2-3.1-1.5 0-2.5.8-2.5 1.8a3.3 3.3 0 0 0 .4 1.5 3.8 3.8 0 0 1-2.5 1.2 2 2 0 0 1-2-2.1c0-2.1 2.3-3.8 6.3-3.8 4.7 0 6.8 1.6 6.8 5.2v8.7c0 1.6.4 2.5 2.3 2.5zm-5.6-9.5c-3.1 1.1-7.4 1.5-7.4 4.8a2.7 2.7 0 0 0 2.7 3c2.4 0 4.7-1.7 4.7-6zM238 170.6v-1.4c2 0 2.9-.4 2.9-2.7v-16.7c0-1.6-.7-2.1-2.8-2.3V146l6.2-.7v21.1c0 2.3.8 2.7 2.8 2.7v1.4z"/></svg>