<svg xmlns="http://www.w3.org/2000/svg" viewBox="0 0 40 40">
    <circle cx="20" cy="20" r="20" fill="#2e78d4"/>

    <g id="icon" fill="#fff">
        <path d="M-214.292,35.506a13.065,13.065,0,0,1-.56,1.532,11.3,11.3,0,0,1-.654,1.264c-1.241,2.07-3.23,3.926-6.3,5.987l0,0c-.3-.2-.588-.4-.867-.6l-.2-.144-.185-.133c-.122-.089-.243-.177-.361-.266l-.138-.1-.259-.2-.157-.122q-.16-.124-.314-.248l-.156-.127-.218-.181-.158-.134-.234-.2-.2-.182-.17-.154-.159-.148-.176-.168c-.075-.073-.149-.146-.223-.218l-.142-.143-.147-.151q-.084-.088-.165-.176t-.183-.2l-.146-.165-.115-.133a12.7,12.7,0,0,1-1.221-1.691,11.226,11.226,0,0,1-.654-1.264,13.062,13.062,0,0,1-.56-1.532,22.778,22.778,0,0,1-.779-4.2c-.021-.206-.042-.413-.06-.627,0-.017-.064-.9-.09-1.178-.059-.871-.1-1.8-.141-2.791a16.492,16.492,0,0,0,4.116-.365,15.875,15.875,0,0,0,3.4-1.233c.346-.166.7-.347,1.07-.544l0,0a17.7,17.7,0,0,0,4.472,1.778,14.166,14.166,0,0,0,1.977.3l-6.452,9.571-.054.08-3.6-5.057h-3.127l.357.5,5.335,7.492,1.09,1.532,0,0,1.051-1.559,5.252-7.791.866-1.284,4.081-6.054-1.409.089a16.715,16.715,0,0,1-4.772-.246,16.492,16.492,0,0,1-4.378-1.835l-.691-.385,0,0-.688.384q-.475.264-.915.493a14.488,14.488,0,0,1-3.462,1.342,16.329,16.329,0,0,1-4.772.246l-1.411-.089.042,1.361c.016.5.033.994.051,1.47,0,0,0,.007,0,.01.045,1.147.1,2.213.175,3.212q.043.6.1,1.168a25.5,25.5,0,0,0,.508,3.4A18.608,18.608,0,0,0-231.14,38c.118.268.244.529.377.788q.307.6.672,1.168c1.531,2.39,3.871,4.472,7.52,6.829l.253.163h0l.506.324,0,0,.761-.488c3.649-2.358,5.99-4.439,7.52-6.829q.366-.571.673-1.168c.133-.259.259-.521.377-.788a17.7,17.7,0,0,0,1.163-3.887c.051-.272.1-.55.143-.833.1-.629.179-1.285.245-1.974q.057-.568.1-1.168c.059-.782.105-1.606.144-2.477l-2.914,4.369A21.187,21.187,0,0,1-214.292,35.506Z" transform="translate(242.059 -13.705)"/>
    </g>
</svg>
