<svg xmlns="http://www.w3.org/2000/svg" viewBox="0 0 40 40">
    <circle cx="20" cy="20" r="20" fill="#2d509f"/>

    <g id="icon" fill="#fff" transform="translate(3 11)">
        <path d="M-863.548,36.137a25.074,25.074,0,0,0-4.536-4.118,20.511,20.511,0,0,0-11.864-4.128,20.513,20.513,0,0,0-11.865,4.128,25.078,25.078,0,0,0-4.536,4.118l-.584.719.584.72a25.09,25.09,0,0,0,4.536,4.118,20.512,20.512,0,0,0,11.864,4.128,20.511,20.511,0,0,0,11.864-4.128,25.075,25.075,0,0,0,4.536-4.118l.584-.72Zm-16.4,7a6.371,6.371,0,0,1-6.443-6.281,6.11,6.11,0,0,1,.2-1.572l-1.471-.242a7.541,7.541,0,0,0-.221,1.813,7.625,7.625,0,0,0,2.543,5.668,21.051,21.051,0,0,1-5.015-2.661,24.8,24.8,0,0,1-3.483-3.007,24.826,24.826,0,0,1,3.483-3.007,21.046,21.046,0,0,1,5.015-2.662l.987,1.085a6.508,6.508,0,0,1,4.4-1.7,6.371,6.371,0,0,1,6.443,6.281A6.371,6.371,0,0,1-879.948,43.137Zm10.4-3.274a21.065,21.065,0,0,1-5.015,2.661,7.624,7.624,0,0,0,2.543-5.668,7.624,7.624,0,0,0-2.543-5.668,21.05,21.05,0,0,1,5.015,2.662,24.8,24.8,0,0,1,3.483,3.007A24.8,24.8,0,0,1-869.547,39.863Z" transform="translate(896.932 -27.89)"/>
        <path d="M-867.75,42.063a4.179,4.179,0,0,0-.182,1.221,4.179,4.179,0,0,0,4.179,4.179,4.179,4.179,0,0,0,4.179-4.179,4.179,4.179,0,0,0-4.179-4.179,4.162,4.162,0,0,0-2.895,1.167l2.061,2.323Z" transform="translate(880.737 -34.318)"/>
    </g>
</svg>
