<?xml version="1.0" encoding="utf-8"?>
<!-- Generator: Adobe Illustrator 18.1.0, SVG Export Plug-In . SVG Version: 6.00 Build 0)  -->
<svg version="1.1" id="Layer_1" xmlns="http://www.w3.org/2000/svg" xmlns:xlink="http://www.w3.org/1999/xlink" x="0px" y="0px"
	 width="500px" height="71.89px" viewBox="0 0 500 71.89" enable-background="new 0 0 500 71.89" xml:space="preserve">
	 
	 
	 
<a xlink:href="http://dev.cremadesignstudio.com/dfe2014/index.html" target="_top">	 
<g>
	<path fill="#003149" d="M172.46-270.09c0,4.09-1.27,7.59-3.8,10.51c-2.54,2.92-5.76,4.38-9.69,4.38c-1.86,0-4.29-0.08-7.31-0.23
		c0.25-1.78,0.76-6.22,1.54-13.3c0.47-4.74,0.74-8.78,0.8-12.13h3.27c0.51,0,1.26-0.02,2.25-0.06c1-0.04,1.77-0.06,2.31-0.06
		c3.54,0,6.19,1.03,7.97,3.1C171.57-275.83,172.46-273.23,172.46-270.09z M167.58-269.49c0-2.23-0.58-4.05-1.75-5.47
		c-1.17-1.42-2.94-2.13-5.32-2.13c-0.59,0-1.32,0.06-2.17,0.18c-0.07,1.2-0.3,3.92-0.69,8.16c-0.31,3.11-0.57,6.2-0.78,9.26
		c0.75,0.17,1.54,0.25,2.36,0.25c2.61,0,4.65-1.01,6.13-3.04C166.84-264.3,167.58-266.7,167.58-269.49z"/>
	<path fill="#003149" d="M190.33-269.96c0,3.88-3.96,5.9-11.89,6.05c0,1.72,0.3,3,0.91,3.86c0.61,0.85,1.66,1.28,3.17,1.28
		c1.98,0,4.1-0.67,6.36-2.01l-0.58,3.87c-1.84,1.35-4.18,2.03-7.01,2.03c-2.52,0-4.39-0.8-5.59-2.39c-1.21-1.59-1.81-3.71-1.81-6.34
		c0-3.4,1.01-6.12,3.03-8.17c2.02-2.05,4.42-3.08,7.19-3.08c1.92,0,3.42,0.42,4.51,1.25C189.76-272.75,190.33-271.53,190.33-269.96z
		 M186.19-269.57c0-1.26-0.92-1.89-2.76-1.89c-1.05,0-2.05,0.41-2.99,1.22c-0.94,0.81-1.55,1.98-1.84,3.51
		C183.66-266.84,186.19-267.78,186.19-269.57z"/>
	<path fill="#003149" d="M208.76-268.8c0,1.15-0.17,3.29-0.5,6.45c-0.33,3.15-0.5,5.46-0.5,6.91l-4.79,0.2
		c0-0.62,0.2-2.48,0.61-5.58c0.41-3.09,0.61-5.28,0.61-6.55c0-1.35-0.19-2.29-0.56-2.81c-0.37-0.52-0.99-0.78-1.86-0.78
		c-1.08,0-2.12,0.78-3.14,2.32c-1.01,1.55-1.63,3.44-1.84,5.66c-0.27,2.8-0.48,5.31-0.61,7.54l-4.66,0.2
		c0.87-6.74,1.3-11.3,1.3-13.67c0-1.37-0.1-3.03-0.3-5l4.6-0.49c0.09,1.11,0.13,2.4,0.13,3.87h0.26c1.45-2.72,3.59-4.08,6.42-4.08
		C207.15-274.62,208.76-272.68,208.76-268.8z"/>
	<path fill="#003149" d="M222.58-273.82l-0.5,3.89c-1.74-0.08-3.17-0.12-4.29-0.12c-0.52,3.54-0.78,6.17-0.78,7.89
		c0,1.3,0.14,2.19,0.41,2.68c0.27,0.48,0.76,0.72,1.47,0.72c1.09,0,2.25-0.4,3.47-1.21l-0.63,3.55c-1.11,0.92-2.5,1.39-4.16,1.39
		c-1.76,0-3.01-0.45-3.75-1.36c-0.74-0.9-1.11-2.43-1.11-4.58c0-1.59,0.31-4.62,0.93-9.08c-0.59,0-1.44,0.04-2.54,0.12l0.52-3.85
		c0.94,0.08,1.8,0.12,2.58,0.12c0.12-0.91,0.39-2.73,0.8-5.45l4.12-0.57c-0.21,1.24-0.5,3.24-0.87,6.02
		C219.23-273.67,220.68-273.72,222.58-273.82z"/>
	<path fill="#003149" d="M240.78-274.88c-0.99,7.06-1.48,11.93-1.48,14.63c0,1.37,0.1,2.9,0.32,4.61l-4.56,0.55
		c-0.07-1.08-0.11-2.34-0.11-3.77h-0.28c-1.37,2.64-3.41,3.96-6.12,3.96c-1.56,0-2.73-0.62-3.53-1.85
		c-0.79-1.23-1.19-2.91-1.19-5.05c0-3.07,1.02-5.84,3.06-8.31c2.04-2.47,5.21-3.76,9.52-3.88l0.82-0.61L240.78-274.88z
		 M236.03-270.89c-2.59,0.03-4.48,0.82-5.7,2.38c-1.21,1.56-1.82,3.67-1.82,6.33c0,2.41,0.72,3.61,2.15,3.61
		c1.11,0,2.14-0.85,3.07-2.56c0.93-1.71,1.52-3.34,1.77-4.89C235.76-267.58,235.93-269.2,236.03-270.89z"/>
	<path fill="#003149" d="M250.01-283.22c0,0.66-0.19,2.37-0.56,5.13c-0.37,2.75-0.69,5.47-0.96,8.13c-0.61,6.03-1,10.85-1.17,14.45
		l-4.81,0.29c0-0.22,0.2-1.9,0.6-5.03c0.4-3.13,0.77-6.37,1.1-9.72c0.51-5.08,0.76-9.39,0.76-12.95L250.01-283.22z"/>
</g>
<g>
	<path fill="#003149" d="M316.83-280.87l-0.58,4.28c-3.48-0.21-6.65-0.31-9.52-0.31c-0.09,1.39-0.25,3.53-0.48,6.41
		c2.45,0,5.08-0.07,7.89-0.21l-0.43,4.08c-2.71-0.13-5.32-0.2-7.83-0.2c-0.26,2.64-0.47,5.12-0.63,7.42c3.22,0,6.67-0.11,10.35-0.33
		l-0.59,4.3h-14.99c0.26-1.78,0.78-6.22,1.56-13.3c0.47-4.74,0.74-8.78,0.8-12.13H316.83z"/>
	<path fill="#003149" d="M334.33-274.21c0,1.11-1.34,4.32-4.04,9.65c-2.69,5.33-4.07,8.37-4.15,9.12h-4.81
		c0-1.89-0.63-5.07-1.88-9.54c-1.25-4.47-1.88-7.48-1.88-9.01l5.07-0.21c0,1.28,0.35,3.63,1.05,7.07c0.7,3.44,1.05,5.73,1.05,6.88
		h0.22c0.05-0.49,0.83-2.59,2.35-6.29c1.51-3.7,2.27-6.18,2.27-7.44L334.33-274.21z"/>
	<path fill="#003149" d="M350.38-269.96c0,3.88-3.96,5.9-11.89,6.05c0,1.72,0.3,3,0.91,3.86c0.61,0.85,1.66,1.28,3.17,1.28
		c1.98,0,4.1-0.67,6.36-2.01l-0.58,3.87c-1.84,1.35-4.18,2.03-7.01,2.03c-2.52,0-4.39-0.8-5.59-2.39c-1.21-1.59-1.81-3.71-1.81-6.34
		c0-3.4,1.01-6.12,3.03-8.17c2.02-2.05,4.42-3.08,7.19-3.08c1.92,0,3.42,0.42,4.51,1.25C349.81-272.75,350.38-271.53,350.38-269.96z
		 M346.25-269.57c0-1.26-0.92-1.89-2.76-1.89c-1.05,0-2.05,0.41-2.99,1.22c-0.94,0.81-1.55,1.98-1.84,3.51
		C343.72-266.84,346.25-267.78,346.25-269.57z"/>
	<path fill="#003149" d="M364.97-274.21l-1.47,4.59c-0.83-0.26-1.69-0.39-2.6-0.39c-2.24,0-3.49,1.3-3.75,3.89
		c-0.4,3.93-0.7,7.49-0.91,10.68l-4.66,0.2c0.87-6.74,1.3-11.3,1.3-13.67c0-1.37-0.1-3.03-0.3-5l4.6-0.49
		c0.07,0.86,0.11,1.72,0.11,2.58h0.28c1.26-1.88,2.79-2.81,4.6-2.81C363.04-274.64,363.97-274.5,364.97-274.21z"/>
	<path fill="#003149" d="M382.11-274.21c0,1.84-1.23,5.17-3.68,10.01c-2.46,4.84-3.86,7.8-4.22,8.88c-1.09,3.23-2.36,5.46-3.8,6.69
		c-1.45,1.23-3.43,1.85-5.94,1.85v-3.77c1.56,0,2.9-0.52,4.04-1.57c1.13-1.05,1.7-2.37,1.7-3.97c0-1.77-0.75-4.86-2.26-9.26
		c-1.5-4.4-2.25-7.28-2.25-8.63l5.34-0.21c0,1.78,0.35,4.29,1.05,7.51c0.7,3.22,1.05,5.42,1.05,6.59h0.28
		c0.05-0.45,0.72-2.41,2.02-5.85c1.3-3.44,1.95-6.1,1.95-7.98L382.11-274.21z"/>
	<path fill="#003149" d="M399.89-266.15c0,3.18-0.96,5.88-2.88,8.12c-1.92,2.23-4.39,3.35-7.41,3.35c-2.1,0-3.91-0.81-5.42-2.43
		c-1.51-1.62-2.26-3.77-2.26-6.44c0-3.16,0.96-5.84,2.89-8.03s4.41-3.28,7.44-3.28c2.12,0,3.92,0.79,5.41,2.35
		C399.15-270.94,399.89-268.82,399.89-266.15z M395.2-265.72c0-1.61-0.33-2.94-0.99-3.97c-0.66-1.04-1.56-1.55-2.7-1.55
		c-1.46,0-2.64,0.78-3.55,2.32c-0.91,1.55-1.36,3.26-1.36,5.12c0,1.62,0.33,2.94,1,3.97c0.67,1.04,1.58,1.55,2.73,1.55
		c1.5,0,2.68-0.76,3.56-2.29C394.76-262.1,395.2-263.82,395.2-265.72z"/>
	<path fill="#003149" d="M418.04-268.8c0,1.15-0.17,3.29-0.5,6.45c-0.33,3.15-0.5,5.46-0.5,6.91l-4.79,0.2
		c0-0.62,0.21-2.48,0.61-5.58c0.41-3.09,0.61-5.28,0.61-6.55c0-1.35-0.19-2.29-0.56-2.81c-0.37-0.52-0.99-0.78-1.86-0.78
		c-1.08,0-2.12,0.78-3.13,2.32c-1.02,1.55-1.63,3.44-1.84,5.66c-0.27,2.8-0.48,5.31-0.61,7.54l-4.66,0.2
		c0.87-6.74,1.3-11.3,1.3-13.67c0-1.37-0.1-3.03-0.3-5l4.6-0.49c0.09,1.11,0.13,2.4,0.13,3.87h0.26c1.45-2.72,3.59-4.08,6.42-4.08
		C416.44-274.62,418.04-272.68,418.04-268.8z"/>
	<path fill="#003149" d="M436.67-269.96c0,3.88-3.96,5.9-11.89,6.05c0,1.72,0.3,3,0.91,3.86c0.61,0.85,1.66,1.28,3.17,1.28
		c1.98,0,4.1-0.67,6.37-2.01l-0.58,3.87c-1.84,1.35-4.18,2.03-7.01,2.03c-2.52,0-4.39-0.8-5.59-2.39c-1.21-1.59-1.81-3.71-1.81-6.34
		c0-3.4,1.01-6.12,3.03-8.17c2.02-2.05,4.42-3.08,7.19-3.08c1.92,0,3.42,0.42,4.51,1.25C436.1-272.75,436.67-271.53,436.67-269.96z
		 M432.53-269.57c0-1.26-0.92-1.89-2.76-1.89c-1.05,0-2.05,0.41-2.99,1.22c-0.94,0.81-1.55,1.98-1.84,3.51
		C430-266.84,432.53-267.78,432.53-269.57z"/>
</g>
<g>
	<path fill="#8DBCD1" d="M286.43-260.36c-0.31-3.13,1.4-5.25,1.43-7.04c0.02-1.04-1.45-1.81-1.91-2.53
		c-0.62,1.25-1.21,2.49-1.77,3.72l0,0c-0.96,2.09-2.74,3.51-4.67,4.05c-1.17,2.42-2.94,3.72-5.46,3.57
		c-2.38-0.14-4.08-1.91-4.82-4.19c-0.87,1.06-1.98,1.82-3.59,2.11c1.98,1.3,3.13,2.94,3.61,4.36c0.73,2.13,0.14,3.73-1.77,3.37
		c-1.65-0.31-3.81-1.23-5.34-4.32c-3.78-7.56-0.24-18.23,3.05-22.59c1.03-1.36,2.64-2.3,4.05-2.58c1.65-0.33,3.01,0.28,2.8,1.88
		c-0.85,6.65-6.26,12.36-8.08,14.44c-0.14,1.47-0.12,2.89-0.02,4.2c2.41-0.13,3.89-1.08,4.93-2.73c-0.12-1.47,0.09-3.05,0.7-4.6
		c0.53,0.07,1.06,0.14,1.6,0.21c0.29-2.41,2.2-4.7,5.41-4.97c3.02-0.25,4.46,2.28,4.49,5.33c0.02,1.66-0.43,3.4-0.87,4.87
		c1.06-0.4,2.02-1.25,2.76-2.88c0,0,0,0,0,0c0.74-1.66,1.34-3.4,1.85-5.09c-0.42-0.74-0.74-1.66-0.66-2.86
		c0.07-1.11,0.48-2.51,1.41-4.38c1.12,0.16,2.24,0.33,3.36,0.51c-0.43,2.34-0.93,4.06-1.75,5.92c1.41,1.12,4.33,2.46,4.23,4.47
		c-0.11,2.27-1.91,4.82-1.74,7.81c0.14,2.54,1.41,4.06,3.03,4.82c2.19-3.33,3.48-7.31,3.48-11.6c0-11.67-9.46-21.12-21.12-21.12
		c-11.67,0-21.12,9.46-21.12,21.12c0,11.67,9.46,21.12,21.12,21.12c6.71,0,12.68-3.14,16.55-8.02
		C288.95-255.09,286.73-257.34,286.43-260.36z"/>
	<path fill="#8DBCD1" d="M267.08-254.3c0.78,0.12,0.89-0.67,0.46-1.77c-0.47-1.21-1.57-2.76-3.31-3.84
		c0.25,1.28,0.58,2.39,0.97,3.31C265.78-255.26,266.45-254.4,267.08-254.3z"/>
	<path fill="#8DBCD1" d="M277.65-269.32c-0.04-1.49-0.52-2.59-1.76-2.51c-0.09,0-0.22,0.04-0.31,0.05
		c-1.29,0.29-2.26,2.43-2.09,4.46c0.15,1.72,1.05,3.37,2.97,3.8C277.18-265.24,277.69-267.57,277.65-269.32z"/>
	<path fill="#8DBCD1" d="M269.54-280.54c-0.91,0.17-4.07,5.5-5.17,11.47c1.77-2.7,5.1-7.13,5.56-10.88
		C269.98-280.37,269.82-280.59,269.54-280.54z"/>
	<path fill="#8DBCD1" d="M271.83-265.48c-0.03,0.47,0,0.94,0.06,1.35c0.28,1.84,1.2,3.14,2.21,3.18c0.12,0,0.21,0,0.32-0.02
		c0.5-0.12,0.93-0.54,1.33-1.18C273.95-262.71,272.62-263.99,271.83-265.48z"/>
</g>
<g opacity="0.2">
	<g>
		<path fill="#003149" d="M232.96,45.23c-0.42-4.34,1.94-7.28,1.99-9.76c0.03-1.44-2.01-2.51-2.65-3.5
			c-0.86,1.74-1.68,3.45-2.45,5.16l0,0c-1.33,2.89-3.8,4.87-6.47,5.62c-1.63,3.35-4.07,5.16-7.58,4.95c-3.3-0.2-5.66-2.65-6.68-5.81
			c-1.2,1.47-2.75,2.52-4.98,2.93c2.75,1.8,4.34,4.08,5.01,6.04c1.01,2.95,0.2,5.17-2.45,4.67c-2.29-0.43-5.28-1.7-7.4-5.99
			c-5.25-10.48-0.34-25.28,4.23-31.32c1.43-1.89,3.66-3.19,5.61-3.58c2.28-0.46,4.17,0.39,3.88,2.61
			c-1.18,9.22-8.69,17.14-11.21,20.02c-0.2,2.04-0.17,4-0.03,5.83c3.35-0.18,5.4-1.49,6.83-3.78c-0.17-2.04,0.13-4.23,0.97-6.38
			c0.74,0.09,1.47,0.19,2.21,0.28c0.41-3.35,3.05-6.52,7.5-6.89c4.19-0.35,6.19,3.16,6.23,7.39c0.02,2.3-0.59,4.71-1.2,6.75
			c1.47-0.56,2.8-1.74,3.83-3.99c0,0,0,0,0,0c1.03-2.3,1.86-4.72,2.56-7.06c-0.58-1.03-1.02-2.3-0.92-3.97
			c0.09-1.54,0.67-3.48,1.95-6.07c1.55,0.22,3.1,0.46,4.65,0.71c-0.6,3.25-1.29,5.63-2.43,8.2c1.96,1.55,6,3.4,5.87,6.2
			c-0.15,3.15-2.65,6.69-2.42,10.83c0.2,3.52,1.96,5.64,4.21,6.69c3.04-4.62,4.82-10.14,4.82-16.08c0-16.18-13.11-29.29-29.29-29.29
			c-16.18,0-29.29,13.11-29.29,29.29S201,65.23,217.18,65.23c9.31,0,17.58-4.35,22.95-11.12C236.44,52.53,233.37,49.41,232.96,45.23
			z"/>
		<path fill="#003149" d="M206.12,53.63c1.08,0.17,1.23-0.93,0.64-2.45c-0.65-1.68-2.17-3.82-4.59-5.32
			c0.34,1.78,0.8,3.31,1.35,4.59C204.32,52.3,205.24,53.49,206.12,53.63z"/>
		<path fill="#003149" d="M220.78,32.79c-0.05-2.07-0.72-3.59-2.44-3.48c-0.12,0.01-0.31,0.06-0.43,0.07
			c-1.79,0.4-3.13,3.37-2.9,6.19c0.21,2.38,1.45,4.67,4.12,5.28C220.13,38.46,220.84,35.23,220.78,32.79z"/>
		<path fill="#003149" d="M209.54,17.24c-1.26,0.23-5.65,7.63-7.17,15.91c2.46-3.74,7.07-9.88,7.7-15.08
			C210.14,17.48,209.92,17.17,209.54,17.24z"/>
		<path fill="#003149" d="M212.71,38.12c-0.04,0.65,0,1.31,0.08,1.87c0.39,2.55,1.66,4.36,3.07,4.41c0.17,0.01,0.29,0,0.45-0.03
			c0.69-0.16,1.28-0.75,1.85-1.64C215.65,41.97,213.8,40.19,212.71,38.12z"/>
	</g>
</g>
<g opacity="0.2">
	<g>
		<path fill="#003149" d="M10.95,13.74c0,0,5.91-0.66,13.55-0.66c11.64,0,19.16,4.06,19.16,15.22c0,16.12-9.37,26.15-23.82,26.44
			h-1.61c-6.51,0-12.71-0.6-12.71-0.6L10.95,13.74z M14.41,49.08c0,0,2.09,0.9,5.67,0.9c10.15,0,14.39-9.25,14.39-20.53
			c0-9.61-5.31-12.18-12.89-12.18c-1.79,0-2.98,0.3-2.98,0.3C17.22,28.01,15.79,38.57,14.41,49.08z"/>
		<path fill="#003149" d="M64.24,22.52c5.19,0,8.77,2.27,8.77,6.57c0,7.52-8.24,12-14.98,12c-2.63,0-4-0.42-4.3-0.48
			c0,0.18-0.06,0.6-0.06,1.31c0,4.6,2.15,7.94,8.18,7.94c4.95,0,9.25-2.98,9.25-3.04l-0.96,4.54c0-0.06-4.54,3.64-11.88,3.64
			c-8.12,0-12.36-4.42-12.36-11.7C45.92,29.38,55.41,22.52,64.24,22.52z M57.26,37.26c4.72,0,8.66-2.63,8.66-6.92
			c0-2.57-1.49-3.82-3.58-3.82c-4.3,0-7.16,5.79-8,10.51C54.51,37.02,55.41,37.26,57.26,37.26z"/>
		<path fill="#003149" d="M79.35,23.11h8l-0.72,5.19c1.49-0.96,5.43-5.79,12.18-5.79c4.9,0,7.7,3.1,7.7,7.7
			c0,1.19-0.18,2.81-0.36,4.42c-0.66,5.07-2.57,19.52-2.57,19.52h-8c0.72-5.19,1.37-10.39,2.03-15.64c0.3-2.21,0.6-4.54,0.6-6.09
			c0-2.87-1.13-4.54-3.7-4.54c-4.42,0-8.6,4.83-9.43,11.88c-0.66,4.78-1.85,14.39-1.85,14.39h-8L79.35,23.11z"/>
		<path fill="#003149" d="M112.36,44.84l2.69-17.97h-5.43l0.54-3.76h5.43c0.36-2.51,0.72-4.95,1.07-7.4h7.82
			c-0.36,2.45-0.66,4.89-1.01,7.4h8.06c-0.12,1.25-0.3,2.51-0.48,3.76h-8.18c-0.72,5.13-1.43,10.27-2.21,15.46
			c-0.12,0.9-0.42,2.75-0.42,4c0,1.61,0.42,3.7,3.1,3.7c2.51,0,5.31-1.61,5.31-1.61l-0.54,3.82c0,0-3.34,2.69-9.13,2.69
			c-4.42,0-6.98-2.33-6.98-6.27C112,47.23,112.24,45.74,112.36,44.84z"/>
		<path fill="#003149" d="M149.18,22.52c5.07,0,8.12,2.03,8.12,2.03l1.79-1.43h5.43c-2.98,16.42-4.6,30.5-4.48,31.04h-6.75
			c0,0,0-3.7,0.24-7.94c-2.81,3.28-6.98,8.78-12.95,8.78c-5.73,0-9.19-4.12-9.19-11.4C131.4,30.75,139.28,22.52,149.18,22.52z
			 M154.8,30.81c0.06-0.3,0-0.83-0.24-1.43c-0.84-1.13-2.69-2.92-5.91-2.92c-6.69,0-9.37,8.95-9.49,15.46
			c-0.06,4.18,1.13,7.7,4.18,7.7C149.9,49.62,154.38,35.77,154.8,30.81z"/>
		<path fill="#003149" d="M172.79,10.22h7.94l-5.85,43.93h-7.94L172.79,10.22z"/>
	</g>
</g>
<g opacity="0.2">
	<g>
		<path fill="#003149" d="M264.08,35.23l-1.73,14.5h3.76c7.04,0,12.36-1.49,12.36-1.49l-0.84,5.91h-24.29l5.43-40.41h23.34
			c-0.24,1.91-0.54,3.88-0.78,5.85c0,0-5.07-1.49-12.18-1.49h-2.81c-0.54,4.36-1.13,8.66-1.73,12.95h14.68
			c-0.24,1.37-0.42,2.75-0.66,4.18H264.08z"/>
		<path fill="#003149" d="M283.66,23.11h7.76c1.43,8,2.87,16,4.36,23.94l3.76-8.24c5.01-10.92,6.09-15.7,6.09-15.7h7.28
			l-15.16,31.04h-8.36L283.66,23.11z"/>
		<path fill="#003149" d="M329.21,22.52c5.19,0,8.77,2.27,8.77,6.57c0,7.52-8.24,12-14.98,12c-2.63,0-4-0.42-4.3-0.48
			c0,0.18-0.06,0.6-0.06,1.31c0,4.6,2.15,7.94,8.18,7.94c4.96,0,9.25-2.98,9.25-3.04l-0.96,4.54c0-0.06-4.54,3.64-11.88,3.64
			c-8.12,0-12.36-4.42-12.36-11.7C310.88,29.38,320.37,22.52,329.21,22.52z M322.22,37.26c4.72,0,8.66-2.63,8.66-6.92
			c0-2.57-1.49-3.82-3.58-3.82c-4.3,0-7.16,5.79-8,10.51C319.48,37.02,320.37,37.26,322.22,37.26z"/>
		<path fill="#003149" d="M345.14,23.11h7.94c-0.24,1.91-0.54,3.76-0.78,5.73c0.36-0.42,1.73-1.85,2.87-2.81
			c2.09-1.73,4.72-3.58,8.72-3.58c0.6,0,1.55,0.18,1.79,0.18c-0.54,2.45-1.07,4.83-1.61,7.22c0,0-2.33-1.19-4.42-1.19
			c-5.25,0-8.06,5.61-8.95,12.48l-1.73,13.01h-7.94L345.14,23.11z"/>
		<path fill="#003149" d="M369.2,61.14c4.72,0,6.98-3.7,8.12-5.73c0.48-0.84,0.9-1.61,1.31-2.45c-1.02-0.66-2.03-1.37-3.04-2.09
			c-2.39-9.25-4.78-18.5-7.1-27.76h8.18l4.9,23.28c0.42-0.9,1.25-2.69,3.1-7.1c4.18-10.15,5.61-16.18,5.61-16.18h8.66
			c-0.12-0.06-13.55,28.89-16.36,33.37c-2.09,3.52-6.27,9.79-13.49,9.79c-3.04,0-4.78-1.07-4.78-1.07c0.3-1.61,0.6-3.22,0.83-4.83
			C365.2,60.36,366.99,61.14,369.2,61.14z"/>
		<path fill="#003149" d="M415.46,22.52c7.52,0,12.77,4.3,12.83,13.13c0,12.95-9.07,19.28-18.33,19.28
			c-7.58,0-12.77-4.3-12.77-13.13C397.19,28.84,406.21,22.52,415.46,22.52z M411.4,50.69c5.43,0,8.71-7.16,8.71-14.21
			c0-5.37-2.03-9.67-6.27-9.67c-5.37,0-8.48,7.1-8.48,14.68C405.37,46.33,407.28,50.69,411.4,50.69z"/>
		<path fill="#003149" d="M435.16,23.11h8l-0.72,5.19c1.49-0.96,5.43-5.79,12.18-5.79c4.89,0,7.7,3.1,7.7,7.7
			c0,1.19-0.18,2.81-0.36,4.42c-0.66,5.07-2.57,19.52-2.57,19.52h-8c0.72-5.19,1.37-10.39,2.03-15.64c0.3-2.21,0.6-4.54,0.6-6.09
			c0-2.87-1.13-4.54-3.7-4.54c-4.42,0-8.6,4.83-9.43,11.88c-0.66,4.78-1.85,14.39-1.85,14.39h-8L435.16,23.11z"/>
		<path fill="#003149" d="M484.34,22.52c5.19,0,8.77,2.27,8.77,6.57c0,7.52-8.24,12-14.98,12c-2.63,0-4-0.42-4.3-0.48
			c0,0.18-0.06,0.6-0.06,1.31c0,4.6,2.15,7.94,8.18,7.94c4.96,0,9.25-2.98,9.25-3.04l-0.96,4.54c0-0.06-4.54,3.64-11.88,3.64
			c-8.12,0-12.36-4.42-12.36-11.7C466.02,29.38,475.51,22.52,484.34,22.52z M477.36,37.26c4.72,0,8.66-2.63,8.66-6.92
			c0-2.57-1.49-3.82-3.58-3.82c-4.3,0-7.16,5.79-8,10.51C474.61,37.02,475.51,37.26,477.36,37.26z"/>
	</g>
</g>
<g>
	<g>
		<path fill="#FFFFFF" d="M232.96,43.23c-0.42-4.34,1.94-7.28,1.99-9.76c0.03-1.44-2.01-2.51-2.65-3.5
			c-0.86,1.74-1.68,3.45-2.45,5.16l0,0c-1.33,2.89-3.8,4.87-6.47,5.62c-1.63,3.35-4.07,5.16-7.58,4.95c-3.3-0.2-5.66-2.65-6.68-5.81
			c-1.2,1.47-2.75,2.52-4.98,2.93c2.75,1.8,4.34,4.08,5.01,6.04c1.01,2.95,0.2,5.17-2.45,4.67c-2.29-0.43-5.28-1.7-7.4-5.99
			c-5.25-10.48-0.34-25.28,4.23-31.32c1.43-1.89,3.66-3.19,5.61-3.58c2.28-0.46,4.17,0.39,3.88,2.61
			c-1.18,9.22-8.69,17.14-11.21,20.02c-0.2,2.04-0.17,4-0.03,5.83c3.35-0.18,5.4-1.49,6.83-3.78c-0.17-2.04,0.13-4.23,0.97-6.38
			c0.74,0.09,1.47,0.19,2.21,0.28c0.41-3.35,3.05-6.52,7.5-6.89c4.19-0.35,6.19,3.16,6.23,7.39c0.02,2.3-0.59,4.71-1.2,6.75
			c1.47-0.56,2.8-1.74,3.83-3.99c0,0,0,0,0,0c1.03-2.3,1.86-4.72,2.56-7.06c-0.58-1.03-1.02-2.3-0.92-3.97
			c0.09-1.54,0.67-3.48,1.95-6.07c1.55,0.22,3.1,0.46,4.65,0.71c-0.6,3.25-1.29,5.63-2.43,8.2c1.96,1.55,6,3.4,5.87,6.2
			c-0.15,3.15-2.65,6.69-2.42,10.83c0.2,3.52,1.96,5.64,4.21,6.69c3.04-4.62,4.82-10.14,4.82-16.08c0-16.18-13.11-29.29-29.29-29.29
			c-16.18,0-29.29,13.11-29.29,29.29S201,63.23,217.18,63.23c9.31,0,17.58-4.35,22.95-11.12C236.44,50.53,233.37,47.41,232.96,43.23
			z"/>
		<path fill="#FFFFFF" d="M206.12,51.63c1.08,0.17,1.23-0.93,0.64-2.45c-0.65-1.68-2.17-3.82-4.59-5.32
			c0.34,1.78,0.8,3.31,1.35,4.59C204.32,50.3,205.24,51.49,206.12,51.63z"/>
		<path fill="#FFFFFF" d="M220.78,30.79c-0.05-2.07-0.72-3.59-2.44-3.48c-0.12,0.01-0.31,0.06-0.43,0.07
			c-1.79,0.4-3.13,3.37-2.9,6.19c0.21,2.38,1.45,4.67,4.12,5.28C220.13,36.46,220.84,33.23,220.78,30.79z"/>
		<path fill="#FFFFFF" d="M209.54,15.24c-1.26,0.23-5.65,7.63-7.17,15.91c2.46-3.74,7.07-9.88,7.7-15.08
			C210.14,15.48,209.92,15.17,209.54,15.24z"/>
		<path fill="#FFFFFF" d="M212.71,36.12c-0.04,0.65,0,1.31,0.08,1.87c0.39,2.55,1.66,4.36,3.07,4.41c0.17,0.01,0.29,0,0.45-0.03
			c0.69-0.16,1.28-0.75,1.85-1.64C215.65,39.97,213.8,38.19,212.71,36.12z"/>
	</g>
</g>
<g>
	<path fill="#CCECFA" d="M546.55-30.61c0,0,5.91-0.66,13.55-0.66c11.64,0,19.16,4.06,19.16,15.22c0,16.12-9.37,26.15-23.82,26.44
		h-1.61c-6.51,0-12.71-0.6-12.71-0.6L546.55-30.61z M550.01,4.73c0,0,2.09,0.9,5.67,0.9c10.15,0,14.39-9.25,14.39-20.53
		c0-9.61-5.31-12.18-12.89-12.18c-1.79,0-2.98,0.3-2.98,0.3C552.81-16.34,551.38-5.78,550.01,4.73z"/>
	<path fill="#CCECFA" d="M599.84-21.83c5.19,0,8.77,2.27,8.77,6.57c0,7.52-8.24,12-14.98,12c-2.63,0-4-0.42-4.3-0.48
		c0,0.18-0.06,0.6-0.06,1.31c0,4.6,2.15,7.94,8.18,7.94c4.96,0,9.25-2.98,9.25-3.04L605.75,7c0-0.06-4.54,3.64-11.88,3.64
		c-8.12,0-12.36-4.42-12.36-11.7C581.51-14.97,591-21.83,599.84-21.83z M592.86-7.09c4.71,0,8.65-2.63,8.65-6.92
		c0-2.57-1.49-3.82-3.58-3.82c-4.3,0-7.16,5.79-8,10.51C590.11-7.33,591-7.09,592.86-7.09z"/>
	<path fill="#CCECFA" d="M614.95-21.24h8l-0.72,5.19c1.49-0.96,5.43-5.79,12.18-5.79c4.89,0,7.7,3.1,7.7,7.7
		c0,1.19-0.18,2.81-0.36,4.42c-0.66,5.07-2.57,19.52-2.57,19.52h-8c0.72-5.19,1.37-10.39,2.03-15.64c0.3-2.21,0.6-4.54,0.6-6.09
		c0-2.87-1.13-4.54-3.7-4.54c-4.42,0-8.6,4.83-9.43,11.88c-0.66,4.78-1.85,14.39-1.85,14.39h-8L614.95-21.24z"/>
	<path fill="#CCECFA" d="M647.96,0.49l2.69-17.97h-5.43l0.54-3.76h5.43c0.36-2.51,0.72-4.96,1.07-7.4h7.82
		c-0.36,2.45-0.66,4.9-1.01,7.4h8.06c-0.12,1.25-0.3,2.51-0.48,3.76h-8.18c-0.72,5.13-1.43,10.27-2.21,15.46
		c-0.12,0.9-0.42,2.75-0.42,4c0,1.61,0.42,3.7,3.1,3.7c2.51,0,5.31-1.61,5.31-1.61l-0.54,3.82c0,0-3.34,2.69-9.13,2.69
		c-4.42,0-6.98-2.33-6.98-6.27C647.6,2.88,647.84,1.39,647.96,0.49z"/>
	<path fill="#CCECFA" d="M684.78-21.83c5.07,0,8.12,2.03,8.12,2.03l1.79-1.43h5.43c-2.99,16.42-4.6,30.5-4.48,31.04h-6.75
		c0,0,0-3.7,0.24-7.94c-2.8,3.28-6.98,8.78-12.95,8.78c-5.73,0-9.19-4.12-9.19-11.4C666.99-13.6,674.87-21.83,684.78-21.83z
		 M690.39-13.54c0.06-0.3,0-0.83-0.24-1.43c-0.84-1.13-2.69-2.92-5.91-2.92c-6.69,0-9.37,8.95-9.49,15.46
		c-0.06,4.18,1.13,7.7,4.18,7.7C685.5,5.27,689.97-8.58,690.39-13.54z"/>
	<path fill="#CCECFA" d="M708.38-34.13h7.94L710.47,9.8h-7.94L708.38-34.13z"/>
</g>
<g>
	<path fill="#CCECFA" d="M799.68-9.12l-1.73,14.51h3.76c7.04,0,12.36-1.49,12.36-1.49l-0.84,5.91h-24.29l5.43-40.41h23.34
		c-0.24,1.91-0.54,3.88-0.78,5.85c0,0-5.07-1.49-12.18-1.49h-2.81c-0.54,4.36-1.13,8.65-1.73,12.95h14.68
		c-0.24,1.37-0.42,2.75-0.66,4.18H799.68z"/>
	<path fill="#CCECFA" d="M819.25-21.24h7.76c1.43,8,2.87,16,4.36,23.94l3.76-8.24c5.01-10.92,6.09-15.7,6.09-15.7h7.28L833.34,9.8
		h-8.36L819.25-21.24z"/>
	<path fill="#CCECFA" d="M864.8-21.83c5.19,0,8.77,2.27,8.77,6.57c0,7.52-8.24,12-14.98,12c-2.63,0-4-0.42-4.3-0.48
		c0,0.18-0.06,0.6-0.06,1.31c0,4.6,2.15,7.94,8.18,7.94c4.96,0,9.25-2.98,9.25-3.04L870.71,7c0-0.06-4.54,3.64-11.88,3.64
		c-8.12,0-12.36-4.42-12.36-11.7C846.47-14.97,855.97-21.83,864.8-21.83z M857.82-7.09c4.72,0,8.66-2.63,8.66-6.92
		c0-2.57-1.49-3.82-3.58-3.82c-4.3,0-7.16,5.79-8,10.51C855.07-7.33,855.97-7.09,857.82-7.09z"/>
	<path fill="#CCECFA" d="M880.74-21.24h7.94c-0.24,1.91-0.54,3.76-0.78,5.73c0.36-0.42,1.73-1.85,2.87-2.81
		c2.09-1.73,4.72-3.58,8.72-3.58c0.6,0,1.55,0.18,1.79,0.18c-0.54,2.45-1.07,4.83-1.61,7.22c0,0-2.33-1.19-4.42-1.19
		c-5.25,0-8.06,5.61-8.95,12.48L884.56,9.8h-7.94L880.74-21.24z"/>
	<path fill="#CCECFA" d="M904.79,16.79c4.72,0,6.98-3.7,8.12-5.73c0.48-0.84,0.9-1.61,1.31-2.45c-1.02-0.66-2.03-1.37-3.04-2.09
		c-2.39-9.25-4.78-18.5-7.1-27.76h8.18l4.9,23.28c0.42-0.9,1.25-2.69,3.1-7.1c4.18-10.15,5.61-16.18,5.61-16.18h8.66
		c-0.12-0.06-13.55,28.89-16.36,33.37c-2.09,3.52-6.27,9.79-13.49,9.79c-3.04,0-4.78-1.07-4.78-1.07c0.3-1.61,0.6-3.22,0.83-4.83
		C900.79,16.01,902.58,16.79,904.79,16.79z"/>
	<path fill="#CCECFA" d="M951.05-21.83c7.52,0,12.77,4.3,12.83,13.13c0,12.95-9.07,19.28-18.33,19.28c-7.58,0-12.77-4.3-12.77-13.13
		C932.79-15.51,941.8-21.83,951.05-21.83z M947,6.34c5.43,0,8.71-7.16,8.71-14.21c0-5.37-2.03-9.67-6.27-9.67
		c-5.37,0-8.48,7.1-8.48,14.68C940.97,1.98,942.88,6.34,947,6.34z"/>
	<path fill="#CCECFA" d="M970.75-21.24h8l-0.72,5.19c1.49-0.96,5.43-5.79,12.18-5.79c4.89,0,7.7,3.1,7.7,7.7
		c0,1.19-0.18,2.81-0.36,4.42c-0.66,5.07-2.57,19.52-2.57,19.52h-8c0.72-5.19,1.37-10.39,2.03-15.64c0.3-2.21,0.6-4.54,0.6-6.09
		c0-2.87-1.13-4.54-3.7-4.54c-4.42,0-8.6,4.83-9.43,11.88c-0.66,4.78-1.85,14.39-1.85,14.39h-8L970.75-21.24z"/>
	<path fill="#CCECFA" d="M1019.94-21.83c5.19,0,8.77,2.27,8.77,6.57c0,7.52-8.24,12-14.98,12c-2.63,0-4-0.42-4.3-0.48
		c0,0.18-0.06,0.6-0.06,1.31c0,4.6,2.15,7.94,8.18,7.94c4.96,0,9.25-2.98,9.25-3.04L1025.85,7c0-0.06-4.54,3.64-11.88,3.64
		c-8.12,0-12.36-4.42-12.36-11.7C1001.61-14.97,1011.1-21.83,1019.94-21.83z M1012.96-7.09c4.72,0,8.66-2.63,8.66-6.92
		c0-2.57-1.49-3.82-3.58-3.82c-4.3,0-7.16,5.79-8,10.51C1010.21-7.33,1011.1-7.09,1012.96-7.09z"/>
</g>
<g>
	<path fill="#FFFFFF" d="M752.15-11.43c-2.96,0-4.67,3.92-4.67,8.1c0,2.67,1.05,5.07,3.32,5.07c3,0,4.81-3.95,4.81-7.83
		C755.6-9.06,754.48-11.43,752.15-11.43z"/>
	<path fill="#FFFFFF" d="M751.55-36.9c-16.96,0-30.72,13.75-30.72,30.72s13.75,30.72,30.72,30.72s30.72-13.75,30.72-30.72
		S768.51-36.9,751.55-36.9z M737.04,8.22h-3.65c0.63-6.75,1.48-14.09,2.27-19.55h-3.29l0.26-2.14h3.39c0.86-5.1,3.65-7.57,7.67-7.57
		c1.65,0,3,0.46,3,0.46c-0.13,0.89-0.3,1.78-0.43,2.63h-0.4c-0.07-0.03-1.35-0.86-2.63-0.86c-1.91,0-2.24,1.78-2.63,4.15l-0.2,1.19
		h3.78l-0.26,2.11h-3.85L737.04,8.22z M750.01,4.07c-4.18,0-7.04-2.37-7.04-7.24c0-7.14,4.97-10.63,10.07-10.63
		c4.15,0,7.04,2.37,7.08,7.24C760.11,0.59,755.11,4.07,750.01,4.07z M771.9-10.41c-2.9,0-4.44,3.09-4.94,6.88l-0.95,7.17h-4.38
		l2.27-17.11h4.38c-0.13,1.05-0.3,2.07-0.43,3.16c0.2-0.23,0.95-1.02,1.58-1.55c1.15-0.95,2.6-1.98,4.81-1.98
		c0.33,0,0.86,0.1,0.99,0.1c-0.3,1.35-0.59,2.67-0.89,3.98C774.33-9.75,773.05-10.41,771.9-10.41z"/>
</g>
<g>
	<g>
		<path fill="#CCECFA" d="M10.95,11.74c0,0,5.91-0.66,13.55-0.66c11.64,0,19.16,4.06,19.16,15.22c0,16.12-9.37,26.15-23.82,26.44
			h-1.61c-6.51,0-12.71-0.6-12.71-0.6L10.95,11.74z M14.41,47.08c0,0,2.09,0.9,5.67,0.9c10.15,0,14.39-9.25,14.39-20.53
			c0-9.61-5.31-12.18-12.89-12.18c-1.79,0-2.98,0.3-2.98,0.3C17.22,26.01,15.79,36.57,14.41,47.08z"/>
		<path fill="#CCECFA" d="M64.24,20.52c5.19,0,8.77,2.27,8.77,6.57c0,7.52-8.24,12-14.98,12c-2.63,0-4-0.42-4.3-0.48
			c0,0.18-0.06,0.6-0.06,1.31c0,4.6,2.15,7.94,8.18,7.94c4.95,0,9.25-2.98,9.25-3.04l-0.96,4.54c0-0.06-4.54,3.64-11.88,3.64
			c-8.12,0-12.36-4.42-12.36-11.7C45.92,27.38,55.41,20.52,64.24,20.52z M57.26,35.26c4.72,0,8.66-2.63,8.66-6.92
			c0-2.57-1.49-3.82-3.58-3.82c-4.3,0-7.16,5.79-8,10.51C54.51,35.02,55.41,35.26,57.26,35.26z"/>
		<path fill="#CCECFA" d="M79.35,21.11h8l-0.72,5.19c1.49-0.96,5.43-5.79,12.18-5.79c4.9,0,7.7,3.1,7.7,7.7
			c0,1.19-0.18,2.81-0.36,4.42c-0.66,5.07-2.57,19.52-2.57,19.52h-8c0.72-5.19,1.37-10.39,2.03-15.64c0.3-2.21,0.6-4.54,0.6-6.09
			c0-2.87-1.13-4.54-3.7-4.54c-4.42,0-8.6,4.83-9.43,11.88c-0.66,4.78-1.85,14.39-1.85,14.39h-8L79.35,21.11z"/>
		<path fill="#CCECFA" d="M112.36,42.84l2.69-17.97h-5.43l0.54-3.76h5.43c0.36-2.51,0.72-4.95,1.07-7.4h7.82
			c-0.36,2.45-0.66,4.89-1.01,7.4h8.06c-0.12,1.25-0.3,2.51-0.48,3.76h-8.18c-0.72,5.13-1.43,10.27-2.21,15.46
			c-0.12,0.9-0.42,2.75-0.42,4c0,1.61,0.42,3.7,3.1,3.7c2.51,0,5.31-1.61,5.31-1.61l-0.54,3.82c0,0-3.34,2.69-9.13,2.69
			c-4.42,0-6.98-2.33-6.98-6.27C112,45.23,112.24,43.74,112.36,42.84z"/>
		<path fill="#CCECFA" d="M149.18,20.52c5.07,0,8.12,2.03,8.12,2.03l1.79-1.43h5.43c-2.98,16.42-4.6,30.5-4.48,31.04h-6.75
			c0,0,0-3.7,0.24-7.94c-2.81,3.28-6.98,8.78-12.95,8.78c-5.73,0-9.19-4.12-9.19-11.4C131.4,28.75,139.28,20.52,149.18,20.52z
			 M154.8,28.81c0.06-0.3,0-0.83-0.24-1.43c-0.84-1.13-2.69-2.92-5.91-2.92c-6.69,0-9.37,8.95-9.49,15.46
			c-0.06,4.18,1.13,7.7,4.18,7.7C149.9,47.62,154.38,33.77,154.8,28.81z"/>
		<path fill="#CCECFA" d="M172.79,8.22h7.94l-5.85,43.93h-7.94L172.79,8.22z"/>
	</g>
</g>
<g>
	<g>
		<path fill="#CCECFA" d="M264.08,33.23l-1.73,14.5h3.76c7.04,0,12.36-1.49,12.36-1.49l-0.84,5.91h-24.29l5.43-40.41h23.34
			c-0.24,1.91-0.54,3.88-0.78,5.85c0,0-5.07-1.49-12.18-1.49h-2.81c-0.54,4.36-1.13,8.66-1.73,12.95h14.68
			c-0.24,1.37-0.42,2.75-0.66,4.18H264.08z"/>
		<path fill="#CCECFA" d="M283.66,21.11h7.76c1.43,8,2.87,16,4.36,23.94l3.76-8.24c5.01-10.92,6.09-15.7,6.09-15.7h7.28
			l-15.16,31.04h-8.36L283.66,21.11z"/>
		<path fill="#CCECFA" d="M329.21,20.52c5.19,0,8.77,2.27,8.77,6.57c0,7.52-8.24,12-14.98,12c-2.63,0-4-0.42-4.3-0.48
			c0,0.18-0.06,0.6-0.06,1.31c0,4.6,2.15,7.94,8.18,7.94c4.96,0,9.25-2.98,9.25-3.04l-0.96,4.54c0-0.06-4.54,3.64-11.88,3.64
			c-8.12,0-12.36-4.42-12.36-11.7C310.88,27.38,320.37,20.52,329.21,20.52z M322.22,35.26c4.72,0,8.66-2.63,8.66-6.92
			c0-2.57-1.49-3.82-3.58-3.82c-4.3,0-7.16,5.79-8,10.51C319.48,35.02,320.37,35.26,322.22,35.26z"/>
		<path fill="#CCECFA" d="M345.14,21.11h7.94c-0.24,1.91-0.54,3.76-0.78,5.73c0.36-0.42,1.73-1.85,2.87-2.81
			c2.09-1.73,4.72-3.58,8.72-3.58c0.6,0,1.55,0.18,1.79,0.18c-0.54,2.45-1.07,4.83-1.61,7.22c0,0-2.33-1.19-4.42-1.19
			c-5.25,0-8.06,5.61-8.95,12.48l-1.73,13.01h-7.94L345.14,21.11z"/>
		<path fill="#CCECFA" d="M369.2,59.14c4.72,0,6.98-3.7,8.12-5.73c0.48-0.84,0.9-1.61,1.31-2.45c-1.02-0.66-2.03-1.37-3.04-2.09
			c-2.39-9.25-4.78-18.5-7.1-27.76h8.18l4.9,23.28c0.42-0.9,1.25-2.69,3.1-7.1c4.18-10.15,5.61-16.18,5.61-16.18h8.66
			c-0.12-0.06-13.55,28.89-16.36,33.37c-2.09,3.52-6.27,9.79-13.49,9.79c-3.04,0-4.78-1.07-4.78-1.07c0.3-1.61,0.6-3.22,0.83-4.83
			C365.2,58.36,366.99,59.14,369.2,59.14z"/>
		<path fill="#CCECFA" d="M415.46,20.52c7.52,0,12.77,4.3,12.83,13.13c0,12.95-9.07,19.28-18.33,19.28
			c-7.58,0-12.77-4.3-12.77-13.13C397.19,26.84,406.21,20.52,415.46,20.52z M411.4,48.69c5.43,0,8.71-7.16,8.71-14.21
			c0-5.37-2.03-9.67-6.27-9.67c-5.37,0-8.48,7.1-8.48,14.68C405.37,44.33,407.28,48.69,411.4,48.69z"/>
		<path fill="#CCECFA" d="M435.16,21.11h8l-0.72,5.19c1.49-0.96,5.43-5.79,12.18-5.79c4.89,0,7.7,3.1,7.7,7.7
			c0,1.19-0.18,2.81-0.36,4.42c-0.66,5.07-2.57,19.52-2.57,19.52h-8c0.72-5.19,1.37-10.39,2.03-15.64c0.3-2.21,0.6-4.54,0.6-6.09
			c0-2.87-1.13-4.54-3.7-4.54c-4.42,0-8.6,4.83-9.43,11.88c-0.66,4.78-1.85,14.39-1.85,14.39h-8L435.16,21.11z"/>
		<path fill="#CCECFA" d="M484.34,20.52c5.19,0,8.77,2.27,8.77,6.57c0,7.52-8.24,12-14.98,12c-2.63,0-4-0.42-4.3-0.48
			c0,0.18-0.06,0.6-0.06,1.31c0,4.6,2.15,7.94,8.18,7.94c4.96,0,9.25-2.98,9.25-3.04l-0.96,4.54c0-0.06-4.54,3.64-11.88,3.64
			c-8.12,0-12.36-4.42-12.36-11.7C466.02,27.38,475.51,20.52,484.34,20.52z M477.36,35.26c4.72,0,8.66-2.63,8.66-6.92
			c0-2.57-1.49-3.82-3.58-3.82c-4.3,0-7.16,5.79-8,10.51C474.61,35.02,475.51,35.26,477.36,35.26z"/>
	</g>
</g>
<g>
	<path fill="#003149" d="M10.95-210.99c0,0,5.91-0.66,13.55-0.66c11.64,0,19.16,4.06,19.16,15.22c0,16.12-9.37,26.15-23.82,26.44
		h-1.61c-6.51,0-12.71-0.6-12.71-0.6L10.95-210.99z M14.41-175.65c0,0,2.09,0.9,5.67,0.9c10.15,0,14.39-9.25,14.39-20.53
		c0-9.61-5.31-12.18-12.89-12.18c-1.79,0-2.98,0.3-2.98,0.3C17.22-196.72,15.79-186.16,14.41-175.65z"/>
	<path fill="#003149" d="M64.24-202.21c5.19,0,8.77,2.27,8.77,6.57c0,7.52-8.24,12-14.98,12c-2.63,0-4-0.42-4.3-0.48
		c0,0.18-0.06,0.6-0.06,1.31c0,4.6,2.15,7.94,8.18,7.94c4.95,0,9.25-2.98,9.25-3.04l-0.96,4.54c0-0.06-4.54,3.64-11.88,3.64
		c-8.12,0-12.36-4.42-12.36-11.7C45.92-195.35,55.41-202.21,64.24-202.21z M57.26-187.47c4.72,0,8.66-2.63,8.66-6.92
		c0-2.57-1.49-3.82-3.58-3.82c-4.3,0-7.16,5.79-8,10.51C54.51-187.71,55.41-187.47,57.26-187.47z"/>
	<path fill="#003149" d="M79.35-201.62h8l-0.72,5.19c1.49-0.96,5.43-5.79,12.18-5.79c4.9,0,7.7,3.1,7.7,7.7
		c0,1.19-0.18,2.81-0.36,4.42c-0.66,5.07-2.57,19.52-2.57,19.52h-8c0.72-5.19,1.37-10.39,2.03-15.64c0.3-2.21,0.6-4.54,0.6-6.09
		c0-2.87-1.13-4.54-3.7-4.54c-4.42,0-8.6,4.83-9.43,11.88c-0.66,4.78-1.85,14.39-1.85,14.39h-8L79.35-201.62z"/>
	<path fill="#003149" d="M112.36-179.89l2.69-17.97h-5.43l0.54-3.76h5.43c0.36-2.51,0.72-4.95,1.07-7.4h7.82
		c-0.36,2.45-0.66,4.9-1.01,7.4h8.06c-0.12,1.25-0.3,2.51-0.48,3.76h-8.18c-0.72,5.13-1.43,10.27-2.21,15.46
		c-0.12,0.9-0.42,2.75-0.42,4c0,1.61,0.42,3.7,3.1,3.7c2.51,0,5.31-1.61,5.31-1.61l-0.54,3.82c0,0-3.34,2.69-9.13,2.69
		c-4.42,0-6.98-2.33-6.98-6.27C112-177.5,112.24-178.99,112.36-179.89z"/>
	<path fill="#003149" d="M149.18-202.21c5.07,0,8.12,2.03,8.12,2.03l1.79-1.43h5.43c-2.98,16.42-4.6,30.5-4.48,31.04h-6.75
		c0,0,0-3.7,0.24-7.94c-2.81,3.28-6.98,8.78-12.95,8.78c-5.73,0-9.19-4.12-9.19-11.4C131.4-193.98,139.28-202.21,149.18-202.21z
		 M154.8-193.92c0.06-0.3,0-0.84-0.24-1.43c-0.84-1.13-2.69-2.92-5.91-2.92c-6.69,0-9.37,8.95-9.49,15.46
		c-0.06,4.18,1.13,7.7,4.18,7.7C149.9-175.11,154.38-188.96,154.8-193.92z"/>
	<path fill="#003149" d="M172.79-214.51h7.94l-5.85,43.93h-7.94L172.79-214.51z"/>
</g>
<g>
	<path fill="#003149" d="M264.08-189.5l-1.73,14.51h3.76c7.04,0,12.36-1.49,12.36-1.49l-0.84,5.91h-24.29l5.43-40.41h23.34
		c-0.24,1.91-0.54,3.88-0.78,5.85c0,0-5.07-1.49-12.18-1.49h-2.81c-0.54,4.36-1.13,8.66-1.73,12.95h14.68
		c-0.24,1.37-0.42,2.75-0.66,4.18H264.08z"/>
	<path fill="#003149" d="M283.66-201.62h7.76c1.43,8,2.87,16,4.36,23.94l3.76-8.24c5.01-10.92,6.09-15.7,6.09-15.7h7.28
		l-15.16,31.04h-8.36L283.66-201.62z"/>
	<path fill="#003149" d="M329.21-202.21c5.19,0,8.77,2.27,8.77,6.57c0,7.52-8.24,12-14.98,12c-2.63,0-4-0.42-4.3-0.48
		c0,0.18-0.06,0.6-0.06,1.31c0,4.6,2.15,7.94,8.18,7.94c4.96,0,9.25-2.98,9.25-3.04l-0.96,4.54c0-0.06-4.54,3.64-11.88,3.64
		c-8.12,0-12.36-4.42-12.36-11.7C310.88-195.35,320.37-202.21,329.21-202.21z M322.22-187.47c4.72,0,8.66-2.63,8.66-6.92
		c0-2.57-1.49-3.82-3.58-3.82c-4.3,0-7.16,5.79-8,10.51C319.48-187.71,320.37-187.47,322.22-187.47z"/>
	<path fill="#003149" d="M345.14-201.62h7.94c-0.24,1.91-0.54,3.76-0.78,5.73c0.36-0.42,1.73-1.85,2.87-2.81
		c2.09-1.73,4.72-3.58,8.72-3.58c0.6,0,1.55,0.18,1.79,0.18c-0.54,2.45-1.07,4.83-1.61,7.22c0,0-2.33-1.19-4.42-1.19
		c-5.25,0-8.06,5.61-8.95,12.48l-1.73,13.01h-7.94L345.14-201.62z"/>
	<path fill="#003149" d="M369.2-163.59c4.72,0,6.98-3.7,8.12-5.73c0.48-0.84,0.9-1.61,1.31-2.45c-1.02-0.66-2.03-1.37-3.04-2.09
		c-2.39-9.25-4.78-18.5-7.1-27.76h8.18l4.9,23.28c0.42-0.9,1.25-2.69,3.1-7.1c4.18-10.15,5.61-16.18,5.61-16.18h8.66
		c-0.12-0.06-13.55,28.89-16.36,33.37c-2.09,3.52-6.27,9.79-13.49,9.79c-3.04,0-4.78-1.07-4.78-1.07c0.3-1.61,0.6-3.22,0.83-4.83
		C365.2-164.37,366.99-163.59,369.2-163.59z"/>
	<path fill="#003149" d="M415.46-202.21c7.52,0,12.77,4.3,12.83,13.13c0,12.95-9.07,19.28-18.33,19.28
		c-7.58,0-12.77-4.3-12.77-13.13C397.19-195.89,406.21-202.21,415.46-202.21z M411.4-174.04c5.43,0,8.71-7.16,8.71-14.21
		c0-5.37-2.03-9.67-6.27-9.67c-5.37,0-8.48,7.1-8.48,14.68C405.37-178.4,407.28-174.04,411.4-174.04z"/>
	<path fill="#003149" d="M435.16-201.62h8l-0.72,5.19c1.49-0.96,5.43-5.79,12.18-5.79c4.89,0,7.7,3.1,7.7,7.7
		c0,1.19-0.18,2.81-0.36,4.42c-0.66,5.07-2.57,19.52-2.57,19.52h-8c0.72-5.19,1.37-10.39,2.03-15.64c0.3-2.21,0.6-4.54,0.6-6.09
		c0-2.87-1.13-4.54-3.7-4.54c-4.42,0-8.6,4.83-9.43,11.88c-0.66,4.78-1.85,14.39-1.85,14.39h-8L435.16-201.62z"/>
	<path fill="#003149" d="M484.34-202.21c5.19,0,8.77,2.27,8.77,6.57c0,7.52-8.24,12-14.98,12c-2.63,0-4-0.42-4.3-0.48
		c0,0.18-0.06,0.6-0.06,1.31c0,4.6,2.15,7.94,8.18,7.94c4.96,0,9.25-2.98,9.25-3.04l-0.96,4.54c0-0.06-4.54,3.64-11.88,3.64
		c-8.12,0-12.36-4.42-12.36-11.7C466.02-195.35,475.51-202.21,484.34-202.21z M477.36-187.47c4.72,0,8.66-2.63,8.66-6.92
		c0-2.57-1.49-3.82-3.58-3.82c-4.3,0-7.16,5.79-8,10.51C474.61-187.71,475.51-187.47,477.36-187.47z"/>
</g>
<circle fill="#8DBCD1" cx="217.5" cy="-188.99" r="29.47"/>
<g>
	<g>
		<path fill="#FFFFFF" d="M338.91-199.12c-0.05,1.3,0.92,1.82,2.2,1.72c2.25-0.18,5.59-2.18,7.19-4.93
			c0.24-0.39,0.59-0.58,0.91-0.61c0.39-0.03,0.66,0.22,0.57,0.81c-0.06,0.38-0.27,0.99-0.8,1.78c-2.37,3.57-5.72,5.26-8.7,5.5
			c-2.97,0.24-5.53-1.01-5.55-3.45c0.01-1.25,0.49-2.92,3.24-5.07c-1.08-0.03-2.21-0.15-3.22-0.4c-3.06,3.1-6.65,5.57-9.67,5.87
			c-0.11,0.15-0.22,0.31-0.33,0.46c-2.21,2.69-4.97,4.3-7.57,4.52c-2.53,0.21-5.1-1-6.25-3.33c-1.48,1.61-2.78,2.55-4.05,3.71
			c1.15,1.62,1.92,3.27,2.45,4.94c2.08,7.07,0.6,13.75-2.24,14.04c-2.1,0.21-4.58-2.41-6.32-5.76c-1.74-3.34-3-7.87-3.46-12.62
			c-0.18,0.11-0.35,0.22-0.52,0.32c-0.56,0.38-1.07,0.54-1.41,0.57c-0.5,0.04-0.81-0.15-0.92-0.42c-0.26-0.65,1.5-1.58,2.67-2.52
			c-0.05-1.22-0.11-2.38-0.1-3.61c-0.18-18.1,13.49-30.01,17.82-30.24c1.14-0.07,1.75,0.66,1.48,2.4
			c-1.98,8.75-9.24,24.08-13.65,28.98c-0.29,0.3-0.68,0.61-1.06,0.98c-0.16,6.34,1.39,13.23,3.08,16.56
			c0.73,1.48,1.59,2.23,2.22,2.17c1.34-0.13,1.13-3.47-1.39-10.46c-0.62-1.72-1.25-3.16-1.76-3.84c-0.13-0.21-0.23-0.37-0.27-0.48
			c-0.14-0.43-0.06-0.94,0.52-1.38c2.69-2.11,4.43-3.47,6.29-5.66c-0.29-2.3,1.39-7.03,4.15-7.23c0.77-0.06,1.31,0.34,1.36,1.04
			c0.04,0.6-0.38,1.99-1.31,3.6c-0.02,0.39-0.03,0.82,0.04,1.31c0.37,2.71,2.16,4.55,4.27,4.37c1.36-0.11,2.78-1.05,3.88-2.45
			c-3.13-0.4-5.74-2.28-5.99-5.21c-0.28-3.04,1.71-6.28,5.6-6.56c3.15-0.23,5.43,2.18,5.37,5.22c-0.01,1.14-0.27,2.41-0.85,3.65
			c2.04-0.38,4.21-1.75,6.03-3.51c-1.87-0.88-2.75-2.01-2.64-3.69c0.19-3.36,4.17-5.93,6.96-6.12c2.01-0.14,2.91,0.86,2.68,2.21
			c-0.25,1.46-1.01,2.96-2.1,4.54c1.61,0.15,3.53-0.05,4.91-0.1c1.05-0.02,1.61,0.58,1.48,1.44c-0.05,0.38-0.31,0.83-0.73,1.13
			C340.77-202.83,338.97-200.69,338.91-199.12z M310.17-221.67c-1.67,0.07-7.97,11.52-8.46,23.31c4.89-6.4,8.44-21.32,8.83-22.28
			C310.58-221.38,310.46-221.69,310.17-221.67z M319.04-204.51c0.11,2.01,2.3,3.31,4.87,3.71c0.21-0.78,0.25-1.49,0.23-2.14
			c-0.06-2.06-0.74-4.18-2.77-4.02C319.86-206.86,318.97-205.87,319.04-204.51z M335.73-207.99c0.49-0.9,0.8-1.83,0.93-2.75
			c0.14-1.03-0.21-1.37-0.62-1.34c-0.62,0.04-1.53,0.8-1.64,1.78C334.3-209.44,334.87-208.57,335.73-207.99z"/>
	</g>
</g>
</a>



</svg>
