<svg xmlns="http://www.w3.org/2000/svg" viewBox="0 0 100 100"><title>logodental</title><path d="M99,49.48A49,49,0,1,1,49.49,1,49,49,0,0,1,99,49.48Z" fill="#fff" stroke="#00a770" stroke-width="1.99"/><path d="M94.43,49.51a44.42,44.42,0,1,1-44.89-44A44.42,44.42,0,0,1,94.43,49.51Z" fill="#00a770"/><path d="M49.66,21.86s13.12-9.85,21,.47c11.09,14.56-2.2,26.37-2.2,26.37a2,2,0,0,0-.56,2.92s8.77,20.52-9.38,32.77c0,0-6.3,3-2.59-6.39,2.84-7.22-1.13-15-1.13-15S50,53.36,45.06,64.31c0,0-2.85,5.86-.77,19.07,0,0-.57,1.37-4.28-.54,0,0-10.14-2.42-8.38-20.14C33,48.92,28.71,44.64,28.71,44.64s-9.06-11.19-.23-22.36S49.66,21.86,49.66,21.86Z" fill="#fff"/></svg>