<svg xmlns="http://www.w3.org/2000/svg" viewBox="0 0 100 100"><title>logolife</title><path d="M99,49.48A49,49,0,1,1,49.49,1,49,49,0,0,1,99,49.48Z" fill="#fff" stroke="#f58220" stroke-width="1.99"/><path d="M49.54,5.55a44.42,44.42,0,1,0,44.89,44A44.43,44.43,0,0,0,49.54,5.55ZM50,87C24.71,69.31,16.06,55.17,15.17,43.71v-4c1-12,8.85-18.23,15.67-18.89C32,20.73,33,20.67,34,20.67c7.88,0,11.67,3.41,16,8.57,4.33-5.16,8.11-8.57,16-8.57,1,0,2,.06,3.15.17,6.83.66,14.72,6.91,15.68,18.89v4C83.94,55.17,75.28,69.31,50,87Z" fill="#f58220"/></svg>