<svg xmlns="http://www.w3.org/2000/svg" viewBox="0 0 100.08 100.08"><title>logopremium-saver</title><path d="M66.49,66.49a23.26,23.26,0,1,1,0-32.9A23.25,23.25,0,0,1,66.49,66.49ZM16.13,16.13a48,48,0,1,0,67.82,0A48,48,0,0,0,16.13,16.13Z" fill="#13b5e5"/><path d="M16.13,16.13a48,48,0,1,0,67.82,0A48,48,0,0,0,16.13,16.13ZM66.49,66.49a23.26,23.26,0,1,1,0-32.9A23.25,23.25,0,0,1,66.49,66.49Z" fill="#fff" stroke="#ed1c24" stroke-miterlimit="10" stroke-width="3.94"/><path d="M66.49,33.59a23.11,23.11,0,0,1,4.91,7.24L89.47,22.75A47.76,47.76,0,0,0,77.33,10.61L59.25,28.68A23.11,23.11,0,0,1,66.49,33.59Z" fill="#ed1c24"/><path d="M33.59,66.49a23.11,23.11,0,0,1-4.91-7.24L10.61,77.33A47.76,47.76,0,0,0,22.75,89.47L40.83,71.4A23.11,23.11,0,0,1,33.59,66.49Z" fill="#ed1c24"/><path d="M89.47,77.33,71.4,59.25A23.22,23.22,0,0,1,59.25,71.4L77.33,89.47A47.76,47.76,0,0,0,89.47,77.33Z" fill="#ed1c24"/><path d="M10.61,22.75,28.68,40.83A23.22,23.22,0,0,1,40.83,28.68L22.75,10.61A47.76,47.76,0,0,0,10.61,22.75Z" fill="#ed1c24"/></svg>