<svg xmlns="http://www.w3.org/2000/svg" viewBox="0 0 100 100"><title>logotelemedicine</title><path d="M99,49.48A49,49,0,1,1,49.49,1,49,49,0,0,1,99,49.48Z" fill="#fff" stroke="#ed1c24" stroke-width="1.99"/><path d="M49.54,5.55a44.42,44.42,0,1,0,44.89,44A44.43,44.43,0,0,0,49.54,5.55Z" fill="#ed1c24"/><path d="M59.38,11.55,54.05,2.72A36.63,36.63,0,0,1,50,3l6.27,10.39c.34.55,3.13,5.5-2.14,8.68S45.82,20.51,45.48,20C43.69,17,38.56,12.54,31.82,16.6s-5.13,10.71-3.36,13.64l3.27,5.4c.47-.35,1-.69,1.5-1s1.05-.6,1.59-.87l-3.26-5.38c-.34-.56-3.12-5.5,2.14-8.69s8.34,1.6,8.68,2.14c1.78,3,6.92,7.44,13.64,3.36S61.17,14.49,59.38,11.55Z" fill="#fff"/><path d="M34.07,36a18.14,18.14,0,0,0-6.14,24.89L38.36,78.15a18.13,18.13,0,1,0,31-18.76L59,42.16A18.1,18.1,0,0,0,34.07,36ZM59.23,57a1,1,0,0,1,1.44.35l5.11,8.46a1.06,1.06,0,0,1-.35,1.46l-3.91,2.36,2.36,3.89A1.06,1.06,0,0,1,63.52,75l-8.45,5.12a1.05,1.05,0,0,1-1.45-.36l-2.36-3.91-3.9,2.36a1.06,1.06,0,0,1-1.46-.36l-5.12-8.45a1.07,1.07,0,0,1,.36-1.46l3.91-2.35-2.36-3.91A1,1,0,0,1,43,60.2l8.46-5.12a1.07,1.07,0,0,1,1.46.36l2.36,3.91ZM41.65,44.47l3.74,6.17a2,2,0,0,1-.68,2.76,2,2,0,0,1-1.51.23A2,2,0,0,1,42,52.72l-3.72-6.18a2,2,0,0,1,.67-2.74,1.94,1.94,0,0,1,1.51-.23A2,2,0,0,1,41.65,44.47Z" fill="#fff"/></svg>