<svg xmlns="http://www.w3.org/2000/svg" viewBox="0 0 100 100"><title>logovision</title><path d="M99,49.48A49,49,0,1,1,49.49,1,49,49,0,0,1,99,49.48Z" fill="#fff" stroke="#4d62ad" stroke-width="1.99"/><path d="M94.43,49.51a44.42,44.42,0,1,1-44.89-44A44.42,44.42,0,0,1,94.43,49.51Z" fill="#4d62ad"/><path d="M87,46.85A58,58,0,0,0,76.65,37.2c-8.61-6.32-18-9.67-27.1-9.67S31.07,30.88,22.46,37.2A57.55,57.55,0,0,0,12.1,46.85l-1.34,1.69,1.34,1.68a57.15,57.15,0,0,0,10.36,9.65c8.61,6.33,18,9.67,27.09,9.67S68,66.2,76.65,59.87A57.56,57.56,0,0,0,87,50.22l1.33-1.68ZM49.55,63.25A14.73,14.73,0,0,1,34.84,48.54a14.39,14.39,0,0,1,.47-3.68L32,44.29a18.06,18.06,0,0,0,5.3,17.53A47.67,47.67,0,0,1,25.8,55.58a57.28,57.28,0,0,1-8-7,57.16,57.16,0,0,1,8-7,48,48,0,0,1,11.45-6.23L39.5,37.8a14.71,14.71,0,1,1,10,25.45Zm23.76-7.67a47.67,47.67,0,0,1-11.45,6.24,18.08,18.08,0,0,0,0-26.56,48,48,0,0,1,11.45,6.23,57,57,0,0,1,8,7A57.68,57.68,0,0,1,73.31,55.58Z" fill="#fff"/><path d="M40.19,45.68a9.61,9.61,0,0,0-.43,2.86,9.79,9.79,0,1,0,3-7.06l4.83,5.44Z" fill="#fff"/></svg>