<?xml version="1.0" encoding="utf-8"?>
<!-- Generator: Adobe Illustrator 17.1.0, SVG Export Plug-In . SVG Version: 6.00 Build 0)  -->
<!DOCTYPE svg PUBLIC "-//W3C//DTD SVG 1.1//EN" "http://www.w3.org/Graphics/SVG/1.1/DTD/svg11.dtd">
<svg version="1.1" id="Layer_1" xmlns="http://www.w3.org/2000/svg" xmlns:xlink="http://www.w3.org/1999/xlink" x="0px" y="0px"
	 viewBox="0 0 227.95 218.434" enable-background="new 0 0 227.95 218.434" xml:space="preserve">
<g>
	<path fill="#041E41" d="M137.474,49.541c1.053-0.072,3.123,0.037,4.865-0.036c1.744-0.073,1.125,1.853,1.125,1.853
		s0.801-2.216,1.309-3.051c0.51-0.835,0.545-1.488,0.545-1.488c-1.199,0.654-5.084,0.217-7.52,0.943
		c-2.434,0.726-3.813,3.487-3.813,3.487C134.71,50.449,136.419,49.613,137.474,49.541z"/>
	<path fill="#041E41" d="M151.929,51.92c-4.723-1.09-8.246,1.163-8.246,1.163c9.736-2.251,11.732,3.996,11.26,6.574
		c-0.408,2.233-2.324,2.651-2.324,2.651c0.436,0.8,3.814,2.106,5.086-1.198C159.036,57.646,156.651,53.01,151.929,51.92z"/>
	<path fill="#041E41" d="M149.821,54.735c-4.721-1.452-8.936,1.162-8.936,1.162c1.527-1.452,1.527-4.793,1.527-4.793
		s-1.164,0.218-3.777,0c-2.615-0.218-4.648,2.179-4.648,2.179c-0.219,3.051-2.834,6.284-2.834,6.284l-2.182,7.343
		c0,0,0,1.569,0,2.346c1.801-1.125,3.393-2.449,4.797-3.769c3.559-3.342,8.062-8.499,13.512-9.153
		c5.447-0.652,6.102,5.158,6.102,5.158S154.544,56.189,149.821,54.735z"/>
</g>
<g>
	<path fill="#041E41" d="M82.086,51.358c0,0-0.618-1.925,1.126-1.853c1.743,0.073,3.813-0.036,4.867,0.036
		c1.053,0.072,2.761,0.908,3.487,1.708c0,0-1.38-2.761-3.814-3.487c-2.434-0.726-6.319-0.29-7.519-0.943
		c0,0,0.037,0.654,0.545,1.488C81.287,49.141,82.086,51.358,82.086,51.358z"/>
	<path fill="#041E41" d="M94.398,59.566c0,0-2.616-3.232-2.834-6.284c0,0-2.034-2.397-4.648-2.179c-2.615,0.218-3.777,0-3.777,0
		s0,3.341,1.525,4.793c0,0-4.214-2.614-8.936-1.162c-4.722,1.453-3.559,6.756-3.559,6.756s0.653-5.811,6.101-5.158
		c5.449,0.654,9.954,5.812,13.512,9.153c1.449,1.36,3.096,2.729,4.968,3.876c0.008-0.793,0.037-2.38,0.037-2.38L94.398,59.566z"/>
	<path fill="#041E41" d="M70.608,59.657c-0.472-2.578,1.525-8.826,11.259-6.574c0,0-3.523-2.253-8.244-1.163
		c-4.723,1.09-7.109,5.725-5.776,9.19c1.272,3.305,4.649,1.998,5.085,1.198C72.933,62.309,71.018,61.891,70.608,59.657z"/>
</g>
<g>
	<g>
		<path fill="#041E41" d="M60.924,42.87c1.345-7.724,15.496,8.772,27.221-8.553c-4.372,0.142-9.949-15.329-8.385-27.038
			c-10.758,14.374-16.826,2.98-21.41,4.219c-1.183,0.169-2.197,1.613-1.529,5.015c0.562,2.859,3.695,20.329,4.108,26.468
			c0.113,1.676,6.736,2.938,3.593,8.992c-3.997,7.073-13.135-2.223-18.654,1.822c-5.519,4.045-13.462,10.333-16.493,18.868
			c2.603-12.805,4.386-34.449,12.81-40.478c8.421-6.026,11.843-1.382,16.001-8.503"/>
		<path fill="#041E41" d="M65.173,50.36l-0.344-0.281c0.904-4.628,0.875-8.111,0.781-9.625l0.534,0.572
			C66.24,42.562,66.088,45.672,65.173,50.36z"/>
		<path fill="#041E41" d="M118.94,130.448L78.379,2.768c-0.793-2.061,1.328-4.076,2.497-1.678
			c1.61,3.306,40.734,128.225,40.734,128.225"/>
	</g>
	<polygon fill="#041E41" points="60.366,44.293 62.528,38.485 62.199,27.412 58.815,22.572 58.104,23.862 	"/>
</g>
<g>
	<g>
		<path fill="#041E41" d="M164.806,42.87c-1.346-7.724-15.496,8.772-27.223-8.553c4.373,0.142,9.949-15.329,8.385-27.038
			c10.758,14.374,16.826,2.98,21.41,4.219c1.184,0.169,2.197,1.613,1.529,5.015c-0.562,2.859-3.695,20.329-4.107,26.468
			c-0.113,1.676-6.736,2.938-3.594,8.992c3.998,7.073,13.135-2.223,18.654,1.822c5.52,4.045,13.461,10.333,16.494,18.868
			c-2.604-12.805-4.387-34.449-12.811-40.478c-8.422-6.026-11.844-1.382-16.002-8.503"/>
		<path fill="#041E41" d="M160.61,50.423c-1.062-4.688-1.121-7.862-1.025-9.396l0.494-0.322c-0.094,1.514-0.029,4.683,0.875,9.312
			L160.61,50.423z"/>
		<path fill="#041E41" d="M106.788,130.448L147.349,2.768c0.793-2.061-1.328-4.076-2.496-1.678
			c-1.611,3.306-40.734,128.225-40.734,128.225"/>
	</g>
	<polygon fill="#041E41" points="165.362,44.293 163.2,38.485 163.528,27.412 166.913,22.572 167.624,23.862 	"/>
</g>
<g>
	<path fill="#041E41" d="M93.128,3.727h5.111l0.873,0.683l2.784,2.184l2.791,2.204l0.88,0.689V6.054l-1.529-2.163h-0.409V3.727
		h4.081l-0.007,0.164h-0.416l-1.453,2.136v7.233h-0.341l-1.194-0.942l-3.732-2.941L96.826,6.45l-1.194-0.934v5.295l1.529,2.286h0.43
		v0.164h-4.115l0.007-0.17h0.403l1.48-2.225V5.317l-1.822-1.426h-0.416V3.727z"/>
	<path fill="#041E41" d="M108.638,3.727h7.335c0.414,0,0.847,0.03,1.3,0.089c0.453,0.059,0.862,0.145,1.228,0.256
		c0.366,0.111,0.67,0.24,0.911,0.386c0.419,0.232,0.745,0.524,0.979,0.876c0.234,0.353,0.352,0.736,0.352,1.15
		c0,0.56-0.201,1.035-0.602,1.426c-0.4,0.391-0.986,0.687-1.76,0.887c-0.773,0.2-1.71,0.3-2.812,0.3h-1.999v3.057l1.494,0.935h0.362
		v0.17h-6.776v-0.17h0.321l1.494-0.921V4.819l-1.535-0.921h-0.293V3.727z M113.571,3.98v4.865h1.385
		c0.496,0,0.911-0.047,1.245-0.143c0.334-0.096,0.599-0.243,0.795-0.443c0.4-0.419,0.601-1.072,0.601-1.958
		c0-0.514-0.086-0.943-0.256-1.286c-0.171-0.344-0.425-0.602-0.764-0.775c-0.339-0.173-0.759-0.259-1.259-0.259H113.571z"/>
	<path fill="#041E41" d="M121.882,3.727h6.742v0.171h-0.293l-1.57,0.948v8.161h2.758l3.746-3.146l0.027-0.348h0.149l-0.225,3.746
		h-11.375v-0.17h0.32l1.515-0.921v-7.39l-1.453-0.88h-0.342V3.727z"/>
</g>
<ellipse fill="#041E41" cx="132.101" cy="96.587" rx="1.916" ry="1.633"/>
<path fill="#041E41" d="M165.829,75.698l4.49-8.839h-7.1H64.3h-7.098l4.489,8.839c1.072,65.211,14.901,75.184,49.534,97.004h5.339
	C151.196,150.882,164.757,140.909,165.829,75.698z"/>
<path fill="none" stroke="#FFFFFF" stroke-width="1.0716" stroke-miterlimit="10" d="M113.76,167.085
	c-16.399-10.008-26.961-17.072-34.067-28.748c-7.625-12.527-11.099-23.812-11.614-54.062c0,0-0.016-5.224-0.954-8.305
	c-0.938-3.081-1.457-3.904-1.457-3.904h96.187c0,0-2.301,4.307-2.301,6.717c0,1.621-0.111,6.297-0.111,6.297
	c-0.516,30.248-3.99,40.73-11.615,53.258C140.722,150.013,130.159,157.077,113.76,167.085z"/>
<g>
	<defs>
		<path id="SVGID_1_" d="M113.76,162.562c-14.758-9.058-24.329-15.643-30.772-26.23c-7.244-11.901-10.549-29.573-11.052-59.088
			l-0.023-1.32h83.693l-0.021,1.322c-0.504,29.514-3.809,47.186-11.053,59.086C138.089,146.919,128.518,153.504,113.76,162.562z"/>
	</defs>
	<clipPath id="SVGID_2_">
		<use xlink:href="#SVGID_1_"  overflow="visible"/>
	</clipPath>
	<g clip-path="url(#SVGID_2_)">
		
			<rect x="60.989" y="68.725" fill="#FFF100" stroke="#FFFFFF" stroke-width="0.5358" stroke-miterlimit="10" width="108.363" height="106.631"/>
		<rect x="63.471" y="71.079" fill="#2F7DE1" width="50.29" height="43.467"/>
		<rect x="113.761" y="114.331" fill="#2F7DE1" width="49.248" height="59.098"/>
	</g>
</g>
<path fill="#041E41" d="M173.741,89.003c0,0,1.094,1.061,1.02,3.178c-0.074,2.122-1.311,3.398-2.562,8.3
	c-1.252,4.903,0.217,9.554,0.217,9.554c-3.764-6.428,1.396-16.982,1.396-16.982c-0.549-1.523-1.721-2.965-2.691-3.666
	c-0.969-0.704-2.525-0.799-2.525-0.799c1.195,1.49,0.955,3.635,0.6,5.388c-0.357,1.753-1.535,6.739-0.291,11.22
	c1.242,4.48,7.295,8.814,7.295,8.814c-9.826-3.759-8.43-13.141-8.43-13.141s-0.791-0.887-1.768-1.314
	c-0.977-0.427-1.416-0.229-1.416-0.229c2.684,2.812-0.328,8.767,4.645,13.375c2.846,2.635,5.482,3.25,7.219,3.295
	c-3.99-1.65-7.715-4.381-9.045-8.566c1.875,4.398,6.357,6.65,10.588,7.727c-3.033-3.447-2.799-8.154-2.527-12.571
	c0.285-4.673-0.229-6.441-0.229-6.441c1.721,2.093,0.826,11.423,1.719,14.624c0.896,3.198,1.795,3.93,1.795,3.93
	c-0.322-1.055-0.752-3.93-0.193-7.205c0.561-3.277,1.326-8.154,0.033-12.729C177.298,90.187,173.741,89.003,173.741,89.003z
	 M169.921,105.802c-0.998-4.111-0.207-8.594,0.715-11.458c0.613-2.509-0.01-4.243-0.312-4.759c-0.045-0.053-0.09-0.107-0.139-0.159
	c0.016-0.016,0.07,0.039,0.139,0.159c1.359,1.551,1.105,3.959,0.795,5.766c-0.5,1.972-0.91,3.617-1.016,5.209
	C169.833,103.666,169.938,105.804,169.921,105.802z M174.024,102.378c-0.264,4.811,0.893,9.326,1.287,10.111
	c0.033,0.043,0.062,0.09,0.096,0.132c-0.023,0.001-0.057-0.054-0.096-0.132C172.155,108.2,173.89,102.915,174.024,102.378
	c0.002-0.014,0.002-0.027,0.004-0.04C174.036,102.32,174.034,102.338,174.024,102.378z M183.749,76.924c0,0,0.477,2.83-0.814,6.351
	c-0.824,2.246-1.182,5.238-1.076,7.77c0.113-1.791,0.5-3.551,1.035-5.241c-0.633,2.626-0.861,5.425-0.359,8.008
	c0.014-4.308,0.555-8.671,2.975-12.367c-2.244,4.911-2.445,10.266-1.578,15.407c0.221-0.713,0.418-1.443,0.613-2.176
	c-0.215-2.69-0.188-8.443,3.074-13.789C187.618,80.886,185.778,76.911,183.749,76.924z M193.345,74.064c0,0,0,1.508-2.342,4.021
	c-2.17,2.328-5.824,6.313-6.232,15.758c0.246-0.916,0.506-1.834,0.812-2.734c0.955-2.994,2.688-5.584,4.229-8.221
	c-1.389,2.718-2.967,5.422-3.721,8.377c-0.68,2.396-0.965,4.881-1.742,7.334c0.01,0.16-0.016,0.309-0.09,0.454
	c-0.455,0.869-3.647,11.351-4.846,14.96c-1.201,3.609-4.373,12.33-6.037,16.09c-1.666,3.762-3.23,5.449-3.23,5.449
	s1.627-2.382,2.203-5.217c0.578-2.834,0.865-7.446-3.332-11.868c-4.199-4.423-7.047-3.894-7.047-3.894s1.725,1.141,1.467,4.215
	c-0.258,3.074,0.104,8.405,1.189,11.367c1.088,2.965,2.748,8.014,2.748,8.014s-3.256-4.521-4.188-8.229
	c-0.664-2.646-0.992-3.887-0.992-3.887s-1.777-1.791-2.484-1.816c0,0-0.623,2.225-0.484,4.174c0.107,1.537,1.125,4.988,3.354,7.513
	c-0.377-0.786-0.682-1.599-0.939-2.396c-0.77-2.767-1.264-5.528-1.73-8.323c1.459,5.118,2.508,11.915,7.441,13.897
	c1.609,0.602,2.229,0.32,2.229,0.32s0.916,0.428,0.945,1.4c0,0-2.418-0.734-3.766,0.328c-1.348,1.063-1.678,2.388-1.678,2.388
	s0.834,0.696,1.199,0.825c1.26,0.443,1.723,0.484,2.936,0.035c1.213-0.451,1.621-1.928,1.621-1.928s-0.084,1.488-1.332,2.613
	c-1.248,1.124-2.82,0.448-2.82,0.448s-0.926,2.268,0.312,3.344c0,0,1.721,0.115,3.014-0.209c0.887-0.223,2.523-1.72,2.629-3.677
	c-0.303,0.495-0.627,0.978-0.994,1.452c-1.1,1.594-3.217,1.112-4.232,1.857c0.965-0.936,3.082-0.852,3.66-2.275
	c0.533-0.967,0.949-2.03,1.311-3.101c0.18-0.62,0.49-2.188-0.479-3.459c-1.076-1.415,0.541-3.778,1.145-4.184
	c0.603-0.403,2.453-1.485,5.23-1.48c2.777,0.003,7.225-0.174,9.49-2.341c2.076-1.981,2.191-2.978,2.191-2.978
	s-0.564,0.276-1.52,0.352c-0.604,0.048-1.764,0.119-1.764,0.119s-4.51,2.898-10.643,4.414c0,0,6.402-2.302,11.199-6.305
	c4.795-4,4.986-10.25,6.336-11.888c0,0-2.234,1.675-4.273,2.223c-2.039,0.546-8.461,2.285-10.133,7.195
	c-0.107,0.315-0.207,0.616-0.301,0.903c1.217-1.172,2.479-2.283,3.797-3.328c-1.715,1.886-3.275,3.907-4.654,5.992
	c-0.006,0.017-0.012,0.039-0.02,0.059c2.186-1.688,4.365-3.385,6.52-5.109c-2.574,2.653-5.195,5.264-7.828,7.867
	c-0.514,0.667-1.189,1.184-2.217,1.656c0,0,10.678-4.902,14.928-11.952c0,0-3.137,7.858-16.061,13.34c0,0,3.178-6.099,4.865-10.687
	c1.688-4.586,5.774-18.178,15.475-20.709c0,0-6.453,3.15-11.211,12.68c0,0,5.84-0.207,10.146-3.848
	c4.307-3.641,4.986-8.248,5.9-9.447c0,0-1.422-0.211-3.09,1.584c0,0-2.115,3.589-4.684,5.781c-2.316,1.98-5.82,2.943-6.559,4.021
	c0,0,0.578-1.206,2.977-2.394c2.4-1.186,6.145-5.877,7.404-7.978c1.26-2.104,2.902-3.411,2.902-3.411s-2.309,0.453-5.113,0.609
	c-3.904,0.215-8.813,5.879-10.719,12.18c0.674-2.329,2.834-9.511,4.922-13.299c0,0,4.209-1.765,6.672-4.161
	c2.465-2.397,3.666-5.946,4.65-7.182c0.986-1.237,0.986-1.237,0.986-1.237s-2.168-0.29-3.617,0.523
	c-1.449,0.813-5.623,2.472-9.189,10.989c0,0,0.27-3.488,2.971-6.762c2.701-3.273,5.389-5.243,5.389-5.243s0.656-3.086,0.617-6.474
	C194.981,76.168,193.345,74.064,193.345,74.064z M182.61,112.101c0.84-2.861,2.389-5.487,3.971-7.105
	c1.572-1.682,3.146-2.052,3.113-2.053C185.147,106.566,182.825,112.243,182.61,112.101z M165.554,143.323
	c2.555-0.184,4.506-1.001,4.715-1.334c-0.367,1.426-2.15,1.785-3.051,1.705C166.188,143.646,165.55,143.319,165.554,143.323z
	 M169.948,141.414c-1.957,0.202-3.586,1.111-3.598,1.151C167.665,140.808,170.081,141.407,169.948,141.414z M164.358,123.149
	c0.037-0.01,0.098,0.129,0.178,0.387c1.826,4.054,1.875,8.516,1.936,9.289c0.008,0.041,0.016,0.08,0.021,0.118
	c-0.008,0.005-0.014-0.037-0.021-0.118c-0.756-4.07-1.555-8.061-1.936-9.289C164.477,123.408,164.419,123.278,164.358,123.149z
	 M165.157,120.674c0.031-0.009,0.1,0.129,0.191,0.388c3.705,7.398,2.48,14.525,2.436,15.301c0.002,0.021,0,0.043,0.002,0.066
	c-0.004,0.008-0.004-0.017-0.002-0.066c-0.195-6.981-1.84-13.658-2.436-15.301C165.286,120.931,165.224,120.802,165.157,120.674z
	 M168.241,138.226c2.387-11.957-3.375-21.205-3.904-22.033c-0.016-0.02-0.029-0.041-0.045-0.061
	c-0.002-0.01,0.016,0.016,0.045,0.061c3.494,4.58,5.467,9.436,5.426,13.781C169.802,134.386,168.233,138.251,168.241,138.226z
	 M181.423,113.105c-0.004,0.018-0.008,0.033-0.014,0.051C181.409,113.155,181.417,113.135,181.423,113.105z M193.534,76.47
	c0.643,5.944-3.658,10.87-5.688,14.417c-2.055,3.347-2.502,6.137-2.541,6.574c0,0.022-0.002,0.044-0.004,0.067
	c-0.002,0,0-0.027,0.004-0.067c0.168-6.021,4.654-10.499,6.332-14.261C193.71,79.425,193.538,76.444,193.534,76.47z M157.956,135.69
	c0,0-2.619,3.895-0.107,5.243c2.51,1.35,3.99,0.151,3.99,0.151c1.305,0.114,2.412-0.191,2.412-0.191
	c-6.07,4.89-11.482,7.327-20.219,11.986c-6.303,3.363-10.318,7.219-10.205,11.382c0.012,0.351,0.062,0.678,0.131,0.988
	c0.016-0.121,0.039-0.242,0.064-0.358c0.305-1.841,1.17-3.472,2.236-4.905c2.162-2.949,5.457-4.555,8.416-6.307
	c5.984-3.526,12.482-6.314,17.935-10.555c-5.35,4.387-11.789,7.344-17.664,11.012c-2.926,1.83-6.096,3.5-8.039,6.316
	c-1.607,2.066-2.859,5.719-1.25,7.502c1.523,1.202,3.611,1.479,4.754,0.906c1.789-0.894,2.82-3.369,0.299-4.588
	c-1.893-0.917-2.254,0.885-3.014,1.122c-0.76,0.235-1.131-1.787,1.193-4.624c2.438-2.975,9.672-6.993,14.756-9.676
	c5.715-3.016,10.062-6.414,10.062-6.414c-0.662-2.23,1.195-3.548,2.428-4.155c-1.441-0.101-2.873-0.257-4.316-0.575
	c-1.818-0.328-3.922-1.787-3.684-3.877c0.064,2.107,2.096,3.047,3.816,3.178c0.057,0.005,0.143-0.188,0.197-0.183
	c-0.102-0.186-0.191-0.2-0.178-0.443c0.072-1.427-1.057-2.061-1.928-2.196C159.177,136.293,157.956,135.69,157.956,135.69z
	 M158.804,136.515c1.166,1.225,2.635,2.008,2.648,2.059C159.552,138.39,158.688,136.478,158.804,136.515z"/>
<path fill="#041E41" d="M48.422,94.763c-1.292,4.574-0.526,9.451,0.034,12.729c0.559,3.275,0.128,6.15-0.193,7.205
	c0,0,0.899-0.731,1.794-3.93c0.893-3.201,0-12.531,1.719-14.624c0,0-0.513,1.769-0.228,6.441c0.271,4.417,0.506,9.124-2.529,12.571
	c4.231-1.076,8.715-3.328,10.59-7.727c-1.332,4.186-5.055,6.916-9.046,8.566c1.738-0.045,4.373-0.66,7.218-3.295
	c4.973-4.608,1.961-10.562,4.645-13.375c0,0-0.44-0.198-1.416,0.229c-0.976,0.428-1.768,1.314-1.768,1.314s1.397,9.382-8.429,13.141
	c0,0,6.053-4.334,7.296-8.814c1.243-4.48,0.065-9.467-0.291-11.22c-0.356-1.753-0.597-3.897,0.599-5.388
	c0,0-1.557,0.095-2.526,0.799c-0.969,0.701-2.141,2.143-2.691,3.666c0,0,5.161,10.555,1.397,16.982c0,0,1.468-4.65,0.216-9.554
	c-1.252-4.901-2.487-6.178-2.563-8.3c-0.074-2.117,1.021-3.178,1.021-3.178S49.714,90.187,48.422,94.763z M56.91,100.56
	c-0.106-1.592-0.516-3.237-1.016-5.209c-0.311-1.807-0.565-4.215,0.794-5.766c0.07-0.12,0.124-0.175,0.14-0.159
	c-0.05,0.052-0.094,0.106-0.14,0.159c-0.303,0.516-0.925,2.25-0.312,4.759c0.922,2.864,1.713,7.347,0.715,11.458
	C57.074,105.804,57.178,103.666,56.91,100.56z M52.984,102.338c0.002,0.013,0.001,0.026,0.003,0.04
	c0.135,0.537,1.869,5.822-1.288,10.111c-0.039,0.078-0.072,0.133-0.094,0.132c0.034-0.042,0.062-0.089,0.094-0.132
	c0.395-0.785,1.552-5.301,1.288-10.111C52.977,102.338,52.974,102.32,52.984,102.338z M39.393,80.886
	c3.262,5.346,3.29,11.099,3.073,13.789c0.196,0.732,0.394,1.463,0.614,2.176c0.868-5.142,0.666-10.496-1.577-15.407
	c2.42,3.696,2.959,8.06,2.974,12.367c0.503-2.583,0.274-5.382-0.359-8.008c0.536,1.69,0.923,3.45,1.036,5.241
	c0.105-2.531-0.252-5.524-1.076-7.77c-1.291-3.521-0.815-6.351-0.815-6.351C41.233,76.911,39.393,80.886,39.393,80.886z
	 M31.988,79.554c-0.041,3.388,0.617,6.474,0.617,6.474s2.687,1.97,5.388,5.243c2.701,3.274,2.97,6.762,2.97,6.762
	c-3.566-8.518-7.74-10.176-9.188-10.989c-1.449-0.812-3.619-0.523-3.619-0.523s0,0,0.987,1.237c0.985,1.235,2.186,4.784,4.65,7.182
	c2.464,2.396,6.672,4.161,6.672,4.161c2.088,3.788,4.248,10.97,4.921,13.299c-1.907-6.301-6.814-11.965-10.719-12.18
	c-2.805-0.156-5.113-0.609-5.113-0.609s1.643,1.308,2.903,3.411c1.259,2.101,5.004,6.792,7.403,7.978
	c2.399,1.188,2.978,2.394,2.978,2.394c-0.738-1.078-4.243-2.041-6.559-4.021c-2.568-2.192-4.685-5.781-4.685-5.781
	c-1.668-1.795-3.09-1.584-3.09-1.584c0.914,1.199,1.596,5.807,5.902,9.447c4.306,3.641,10.146,3.848,10.146,3.848
	c-4.758-9.529-11.211-12.68-11.211-12.68c9.701,2.531,13.787,16.123,15.475,20.709c1.688,4.588,4.866,10.687,4.866,10.687
	c-12.924-5.481-16.062-13.34-16.062-13.34c4.25,7.05,14.928,11.952,14.928,11.952c-1.027-0.473-1.703-0.989-2.217-1.656
	c-2.632-2.604-5.254-5.214-7.828-7.867c2.154,1.725,4.333,3.422,6.52,5.109c-0.007-0.02-0.014-0.041-0.02-0.059
	c-1.378-2.085-2.94-4.107-4.655-5.992c1.32,1.045,2.582,2.156,3.798,3.328c-0.094-0.287-0.194-0.588-0.302-0.903
	c-1.671-4.91-8.094-6.649-10.132-7.195c-2.038-0.548-4.273-2.223-4.273-2.223c1.35,1.638,1.54,7.888,6.337,11.888
	c4.796,4.003,11.199,6.305,11.199,6.305c-6.134-1.516-10.643-4.414-10.643-4.414s-1.16-0.071-1.765-0.119
	c-0.956-0.075-1.52-0.352-1.52-0.352s0.115,0.996,2.19,2.978c2.267,2.167,6.713,2.344,9.491,2.341
	c2.777-0.005,4.627,1.077,5.231,1.48c0.603,0.406,2.22,2.77,1.143,4.184c-0.968,1.271-0.657,2.839-0.478,3.459
	c0.362,1.07,0.777,2.134,1.311,3.101c0.578,1.424,2.695,1.34,3.66,2.275c-1.014-0.744-3.131-0.263-4.231-1.857
	c-0.366-0.474-0.692-0.957-0.994-1.452c0.105,1.957,1.743,3.454,2.63,3.677c1.293,0.324,3.013,0.209,3.013,0.209
	c1.237-1.075,0.312-3.344,0.312-3.344s-1.573,0.676-2.821-0.448c-1.248-1.125-1.331-2.613-1.331-2.613s0.407,1.476,1.621,1.928
	c1.214,0.449,1.676,0.408,2.935-0.035c0.365-0.129,1.198-0.825,1.198-0.825s-0.329-1.324-1.677-2.388
	c-1.348-1.062-3.765-0.328-3.765-0.328c0.029-0.973,0.945-1.4,0.945-1.4s0.619,0.281,2.229-0.32
	c4.933-1.981,5.982-8.778,7.44-13.897c-0.467,2.795-0.961,5.557-1.729,8.323c-0.259,0.798-0.564,1.61-0.941,2.396
	c2.229-2.524,3.246-5.976,3.354-7.513c0.138-1.949-0.485-4.174-0.485-4.174c-0.706,0.025-2.483,1.816-2.483,1.816
	s-0.329,1.24-0.994,3.887c-0.932,3.707-4.186,8.229-4.186,8.229s1.659-5.049,2.747-8.014c1.087-2.962,1.448-8.293,1.19-11.367
	c-0.258-3.074,1.466-4.215,1.466-4.215s-2.847-0.529-7.045,3.894c-4.199,4.422-3.912,9.034-3.333,11.868
	c0.577,2.835,2.204,5.217,2.204,5.217s-1.566-1.688-3.23-5.449c-1.664-3.76-4.836-12.481-6.038-16.09
	c-1.2-3.609-4.392-14.091-4.846-14.96c-0.075-0.146-0.1-0.294-0.091-0.454c-0.776-2.453-1.061-4.938-1.742-7.334
	c-0.752-2.955-2.332-5.659-3.72-8.377c1.542,2.637,3.274,5.227,4.229,8.221c0.308,0.9,0.566,1.818,0.813,2.734
	c-0.408-9.444-4.063-13.43-6.232-15.758c-2.342-2.514-2.342-4.021-2.342-4.021S32.029,76.168,31.988,79.554z M37.316,102.942
	c-0.032,0.001,1.541,0.371,3.113,2.053c1.583,1.618,3.131,4.244,3.972,7.105C44.187,112.243,41.864,106.566,37.316,102.942z
	 M59.794,143.694c-0.899,0.08-2.683-0.279-3.053-1.705c0.21,0.333,2.161,1.15,4.716,1.334
	C61.462,143.319,60.824,143.646,59.794,143.694z M60.661,142.566c-0.012-0.04-1.641-0.949-3.597-1.151
	C56.931,141.407,59.346,140.808,60.661,142.566z M62.475,123.536c-0.38,1.229-1.179,5.219-1.936,9.289
	c-0.007,0.081-0.013,0.123-0.021,0.118c0.006-0.038,0.015-0.077,0.021-0.118C60.601,132.052,60.649,127.59,62.475,123.536
	c0.08-0.258,0.142-0.396,0.179-0.387C62.593,123.278,62.534,123.408,62.475,123.536z M61.663,121.062
	c-0.595,1.642-2.24,8.319-2.435,15.301c0.002,0.049,0.002,0.073-0.003,0.066c0.002-0.023,0.001-0.044,0.003-0.066
	C59.181,135.587,57.958,128.46,61.663,121.062c0.092-0.259,0.161-0.397,0.193-0.388C61.788,120.802,61.726,120.931,61.663,121.062z
	 M57.248,129.974c-0.04-4.346,1.933-9.201,5.427-13.781c0.028-0.045,0.046-0.07,0.044-0.061c-0.016,0.02-0.029,0.041-0.044,0.061
	c-0.528,0.828-6.291,10.076-3.905,22.033C58.778,138.251,57.21,134.386,57.248,129.974z M45.602,113.155
	c-0.005-0.018-0.01-0.033-0.014-0.051C45.595,113.135,45.602,113.155,45.602,113.155z M35.374,83.2
	c1.678,3.762,6.165,8.24,6.332,14.261c0.004,0.04,0.006,0.067,0.003,0.067c0-0.023-0.001-0.045-0.003-0.067
	c-0.04-0.438-0.487-3.228-2.541-6.574c-2.029-3.547-6.33-8.473-5.688-14.417C33.473,76.444,33.302,79.425,35.374,83.2z
	 M66.967,136.429c-0.871,0.136-1.999,0.77-1.926,2.196c0.013,0.243-0.077,0.258-0.178,0.443c0.054-0.006,0.14,0.188,0.196,0.183
	c1.721-0.131,3.752-1.07,3.816-3.178c0.24,2.09-1.864,3.549-3.683,3.877c-1.443,0.318-2.875,0.475-4.318,0.575
	c1.233,0.607,3.091,1.925,2.428,4.155c0,0,4.349,3.398,10.063,6.414c5.084,2.683,12.317,6.7,14.755,9.676
	c2.325,2.837,1.953,4.859,1.193,4.624c-0.759-0.237-1.12-2.039-3.013-1.122c-2.521,1.219-1.491,3.694,0.299,4.588
	c1.142,0.572,3.231,0.296,4.753-0.906c1.609-1.783,0.357-5.436-1.25-7.502c-1.942-2.816-5.112-4.486-8.039-6.316
	c-5.875-3.668-12.314-6.625-17.664-11.012c5.453,4.24,11.953,7.028,17.938,10.555c2.957,1.752,6.252,3.357,8.414,6.307
	c1.068,1.434,1.932,3.064,2.238,4.905c0.026,0.116,0.048,0.237,0.063,0.358c0.068-0.311,0.12-0.637,0.13-0.988
	c0.113-4.163-3.902-8.019-10.204-11.382c-8.737-4.659-14.15-7.097-20.219-11.986c0,0,1.108,0.306,2.412,0.191
	c0,0,1.48,1.198,3.991-0.151c2.51-1.349-0.108-5.243-0.108-5.243S67.835,136.293,66.967,136.429z M65.559,138.573
	c0.014-0.051,1.484-0.834,2.648-2.059C68.323,136.478,67.46,138.39,65.559,138.573z"/>
<path fill="#041E41" d="M81.96,164.856c0,0,1.646-3.466,0.722-5.099c-0.161-0.287-0.519-0.712-1.01-1.2
	c-1.96-1.208-4.902-1.675-7.295-0.464c1.43-1.033,3.415-1.402,5.371-1.189c-0.02-0.015-0.039-0.029-0.06-0.043
	c-2.151-0.619-4.325-0.629-6.485,0.149c-1.934,0.847-5.029,2.73-3.91,4.581c-1.346-1.834,0.819-4.131,2.888-5.238
	c1.562-0.691,3.649-0.932,5.396-0.872c-2.518-1.124-6.903-0.125-8.918,1.954c-2.044,2.126-2.803,5.934-6.844,6.727
	c3.963-1.03,4.25-4.597,6.288-7.061c1.502-1.582,3.798-2.766,6.301-3.012c-1.622-0.477-3.286-0.592-4.796-0.01
	c-5.174,1.996-5.654,4.022-5.689,5.508c-0.036,1.482-2.368,5.123-3.907,4.566c0,0,9.656,3.76,13.67-5.32
	c0,0-1.371,3.225,1.607,4.922c2.528,1.439,4.463-1.42,4.993-2.318C79.957,162.093,79.416,163.817,81.96,164.856z"/>
<path fill="#041E41" d="M148.96,161.437c0.529,0.898,2.465,3.758,4.992,2.318c2.979-1.697,1.607-4.922,1.607-4.922
	c4.014,9.08,13.67,5.32,13.67,5.32c-1.539,0.557-3.871-3.084-3.906-4.566c-0.037-1.485-0.516-3.512-5.689-5.508
	c-1.512-0.582-3.176-0.467-4.797,0.01c2.502,0.246,4.799,1.43,6.301,3.012c2.037,2.464,2.326,6.03,6.289,7.061
	c-4.041-0.793-4.801-4.601-6.846-6.727c-2.016-2.079-6.398-3.078-8.918-1.954c1.748-0.06,3.836,0.181,5.396,0.872
	c2.07,1.107,4.234,3.404,2.889,5.238c1.119-1.851-1.977-3.734-3.91-4.581c-2.16-0.778-4.334-0.769-6.484-0.149
	c-0.021,0.014-0.041,0.028-0.061,0.043c1.955-0.213,3.941,0.156,5.371,1.189c-2.393-1.211-5.336-0.744-7.295,0.464
	c-0.492,0.488-0.85,0.913-1.01,1.2c-0.924,1.633,0.721,5.099,0.721,5.099C149.825,163.817,149.282,162.093,148.96,161.437z"/>
<g>
	<path fill="#041E41" d="M0.233,187.525h5.245l9.079,9.406v-5.629c0-0.686-0.117-1.285-0.351-1.799
		c-0.234-0.515-0.572-0.906-1.015-1.174c-0.237-0.149-0.475-0.256-0.715-0.318c-0.24-0.062-0.575-0.108-1.005-0.14v-0.347h6.47
		v0.347H17.81c-0.941,0-1.658,0.3-2.15,0.897c-0.492,0.599-0.738,1.468-0.738,2.608v9.341h-0.309L3.337,189.135v7.76
		c0,0.754,0.09,1.357,0.271,1.809c0.181,0.452,0.474,0.807,0.879,1.061c0.33,0.2,0.732,0.327,1.206,0.384
		c0.262,0.043,0.636,0.074,1.122,0.094v0.346H0v-0.346c0.698-0.038,1.267-0.161,1.706-0.37c0.439-0.208,0.764-0.519,0.973-0.931
		c0.208-0.411,0.313-0.922,0.313-1.533v-7.386c0-0.455-0.102-0.841-0.304-1.159c-0.203-0.318-0.497-0.562-0.884-0.734
		c-0.386-0.171-0.854-0.257-1.402-0.257H0.233V187.525z"/>
	<path fill="#041E41" d="M18.83,187.525h13.893v5.059h-0.281c-0.255-0.885-0.484-1.547-0.687-1.986
		c-0.203-0.439-0.466-0.855-0.79-1.248c-0.393-0.468-0.82-0.801-1.281-1.001c-0.767-0.317-1.699-0.477-2.796-0.477h-2.571v6.208
		h0.692c1.028,0,1.845-0.442,2.449-1.328c0.312-0.455,0.542-0.996,0.692-1.627c0.075-0.268,0.143-0.663,0.206-1.187h0.327v8.564
		h-0.327c-0.075-0.461-0.163-0.896-0.267-1.304c-0.103-0.408-0.218-0.74-0.346-0.995c-0.128-0.256-0.291-0.512-0.491-0.768
		c-0.561-0.691-1.359-1.037-2.393-1.037h-0.542v5.844h2.15c0.636,0,1.208-0.046,1.715-0.137c0.508-0.09,0.965-0.23,1.37-0.42
		c0.405-0.19,0.785-0.438,1.141-0.744c0.611-0.517,1.085-1.162,1.421-1.936c0.193-0.441,0.396-1.04,0.608-1.795h0.346v5.377H18.848
		l-0.018-0.346h0.355c1.583,0,2.375-0.799,2.375-2.395v-7.601c0-0.811-0.193-1.409-0.58-1.796c-0.387-0.386-0.985-0.579-1.795-0.579
		H18.83V187.525z"/>
	<path fill="#041E41" d="M34.359,187.525h6.797l0.019,0.347c-0.555,0.007-0.961,0.081-1.22,0.224
		c-0.259,0.145-0.388,0.369-0.388,0.674c0,0.299,0.056,0.614,0.168,0.944l2.758,7.639l2.665-6.629
		c-0.218-0.636-0.41-1.103-0.575-1.402c-0.166-0.3-0.376-0.57-0.631-0.813c-0.225-0.236-0.457-0.402-0.696-0.496
		c-0.24-0.093-0.532-0.14-0.875-0.14v-0.347h7.087v0.347h-0.346c-0.561,0-0.998,0.095-1.309,0.285
		c-0.312,0.19-0.467,0.466-0.467,0.827c0,0.243,0.043,0.475,0.131,0.691l2.814,7.677l2.758-7.03
		c0.137-0.381,0.206-0.724,0.206-1.029c0-0.467-0.182-0.816-0.547-1.047c-0.365-0.23-0.927-0.355-1.688-0.374l-0.019-0.347h5.245
		v0.347c-0.349,0.024-0.631,0.079-0.846,0.163c-0.215,0.084-0.451,0.224-0.706,0.416c-0.523,0.412-0.969,1.076-1.337,1.992
		l-4.104,10.434h-0.346l-3.571-9.732l-3.89,9.732h-0.364l-3.777-10.34c-0.331-0.941-0.701-1.621-1.113-2.039
		c-0.411-0.417-0.913-0.626-1.505-0.626h-0.328V187.525z"/>
	<path fill="#041E41" d="M63.137,187.525h7.798c0.461,0,0.966,0.016,1.514,0.047c0.549,0.031,1.041,0.07,1.478,0.117
		c0.436,0.047,0.798,0.102,1.084,0.164c1.028,0.219,1.815,0.609,2.361,1.174c0.545,0.564,0.818,1.264,0.818,2.098
		c0,0.574-0.131,1.086-0.392,1.534c-0.262,0.448-0.646,0.827-1.155,1.136c-0.508,0.309-1.13,0.544-1.865,0.706
		c-0.735,0.162-1.564,0.243-2.487,0.243h-3.581v3.104c0,1.596,0.792,2.395,2.375,2.395h0.654v0.346h-8.62v-0.346h0.458
		c1.583,0,2.375-0.799,2.375-2.395v-7.601c0-1.583-0.792-2.375-2.375-2.375h-0.439V187.525z M68.709,187.872v6.507h2.609
		c1.29,0,2.244-0.266,2.861-0.799c0.617-0.533,0.925-1.357,0.925-2.473c0-1.303-0.427-2.21-1.281-2.721
		c-0.305-0.182-0.664-0.312-1.075-0.393c-0.411-0.082-0.922-0.122-1.533-0.122H68.709z"/>
	<path fill="#041E41" d="M88.287,194.192h-2.935v3.655c0,0.799,0.196,1.393,0.589,1.786c0.393,0.393,0.988,0.589,1.786,0.589h0.383
		v0.365h-8.246v-0.365h0.355c0.804,0,1.401-0.195,1.791-0.584c0.389-0.39,0.584-0.986,0.584-1.791v-7.601
		c0-0.811-0.193-1.409-0.58-1.796c-0.387-0.386-0.985-0.579-1.795-0.579h-0.355v-0.347h10.126c1.371,0,2.456,0.101,3.254,0.3
		c0.798,0.2,1.43,0.536,1.898,1.01c0.268,0.269,0.482,0.586,0.64,0.954c0.159,0.367,0.239,0.732,0.239,1.094
		c0,0.984-0.511,1.776-1.534,2.375c-0.38,0.205-0.897,0.389-1.552,0.551c-0.655,0.162-1.306,0.271-1.954,0.328
		c-0.493,0.037-1.244,0.056-2.253,0.056v0.037c0.498,0.324,0.951,0.593,1.356,0.804c0.405,0.213,0.813,0.392,1.225,0.538
		c0.412,0.146,0.879,0.279,1.402,0.398l0.309,0.467c0.205,0.3,0.358,0.524,0.458,0.674s0.215,0.321,0.346,0.514
		c0.349,0.53,0.681,0.99,0.996,1.379c0.315,0.391,0.575,0.663,0.781,0.818c0.405,0.269,0.985,0.402,1.739,0.402h0.365v0.365h-4.899
		L88.287,194.192z M85.352,193.846h3.721c0.879,0,1.6-0.107,2.164-0.322c0.564-0.215,0.985-0.542,1.262-0.982
		c0.277-0.439,0.416-1.005,0.416-1.696c0-1.982-1.262-2.974-3.786-2.974h-3.777V193.846z"/>
	<path fill="#041E41" d="M107.108,187.264c1.222,0,2.339,0.195,3.352,0.585c1.013,0.39,1.893,0.958,2.641,1.706
		c0.629,0.637,1.116,1.346,1.459,2.127c0.343,0.783,0.514,1.582,0.514,2.398c0,1.229-0.348,2.359-1.043,3.395
		c-0.695,1.034-1.639,1.854-2.833,2.459c-1.193,0.604-2.501,0.906-3.922,0.906c-1.085,0-2.105-0.172-3.062-0.514
		c-0.957-0.344-1.8-0.828-2.529-1.455c-0.729-0.626-1.298-1.356-1.706-2.191c-0.408-0.836-0.612-1.708-0.612-2.618
		c0-1.21,0.352-2.337,1.056-3.385c0.705-1.047,1.649-1.878,2.833-2.491C104.44,187.571,105.724,187.264,107.108,187.264z
		 M107.351,187.602c-0.567,0-1.102,0.098-1.604,0.294c-0.502,0.196-0.924,0.476-1.267,0.837c-0.374,0.393-0.694,0.858-0.958,1.397
		c-0.265,0.539-0.464,1.141-0.599,1.805c-0.134,0.663-0.201,1.379-0.201,2.145c0,0.96,0.106,1.834,0.318,2.623
		c0.212,0.788,0.517,1.467,0.916,2.037c0.399,0.57,0.876,1.006,1.431,1.305c0.555,0.299,1.172,0.449,1.851,0.449
		c0.922,0,1.725-0.264,2.408-0.79c0.683-0.526,1.206-1.279,1.571-2.259c0.364-0.979,0.547-2.141,0.547-3.486
		c0-0.873-0.1-1.689-0.299-2.45c-0.2-0.761-0.486-1.423-0.86-1.986c-0.374-0.564-0.826-1.011-1.355-1.342
		c-0.262-0.175-0.564-0.315-0.907-0.421C107.999,187.654,107.669,187.602,107.351,187.602z"/>
	<path fill="#041E41" d="M116.775,187.525h7.639v0.347h-0.935c-0.424,0-0.758,0.087-1.001,0.262
		c-0.243,0.175-0.364,0.421-0.364,0.739c0,0.299,0.09,0.654,0.271,1.065l3.562,7.815l2.991-6.74
		c0.237-0.518,0.355-0.963,0.355-1.338c0-0.535-0.166-0.963-0.5-1.28c-0.334-0.317-0.796-0.492-1.389-0.523v-0.347h5.265v0.347
		c-0.499,0.056-0.944,0.201-1.338,0.435c-0.393,0.234-0.751,0.57-1.075,1.01c-0.324,0.439-0.65,1.023-0.98,1.754l-4.339,9.77
		l-0.327,0.019l-5.058-11.032c-0.598-1.303-1.371-1.954-2.318-1.954h-0.458V187.525z"/>
	<path fill="#041E41" d="M134.184,200.223h0.365c0.804,0,1.4-0.195,1.79-0.584c0.39-0.39,0.584-0.986,0.584-1.791
		c0.05-0.336,0.089-0.634,0.117-0.893c0.028-0.258,0.045-0.555,0.052-0.889c0.006-0.333,0.006-0.752,0-1.257
		c-0.025-2.132-0.088-3.737-0.188-4.815c-0.037-0.436-0.107-0.775-0.21-1.02c-0.103-0.242-0.258-0.445-0.463-0.607
		c-0.374-0.33-0.936-0.495-1.683-0.495h-0.365v-0.347h8.228v0.347h-0.364c-0.805,0-1.399,0.193-1.786,0.579
		c-0.387,0.387-0.579,0.985-0.579,1.796v7.601c0,0.805,0.194,1.401,0.584,1.791c0.39,0.389,0.983,0.584,1.781,0.584h0.364v0.365
		h-8.228V200.223z"/>
	<path fill="#041E41" d="M143.889,187.525h8.667c1.408,0,2.638,0.177,3.688,0.529c1.05,0.352,1.934,0.893,2.65,1.621
		c0.648,0.631,1.148,1.341,1.501,2.133c0.352,0.791,0.528,1.605,0.528,2.439c0,0.916-0.19,1.764-0.57,2.543
		c-0.381,0.779-0.918,1.453-1.613,2.02c-0.695,0.568-1.519,1.006-2.473,1.314c-0.954,0.309-1.985,0.463-3.095,0.463h-9.284v-0.365
		h0.477c0.805,0,1.401-0.195,1.791-0.584c0.39-0.39,0.584-0.986,0.584-1.791v-7.601c0-0.811-0.193-1.409-0.58-1.796
		c-0.386-0.386-0.984-0.579-1.795-0.579h-0.477V187.525z M149.498,187.872v12.351h2.524c0.717,0,1.325-0.041,1.823-0.121
		c0.499-0.081,0.935-0.214,1.31-0.397c0.374-0.185,0.701-0.426,0.981-0.725c1.034-1.054,1.552-2.675,1.552-4.862
		c0-0.717-0.063-1.395-0.191-2.033c-0.128-0.639-0.314-1.201-0.557-1.688c-0.243-0.486-0.549-0.913-0.916-1.281
		c-0.306-0.299-0.649-0.541-1.033-0.725c-0.383-0.184-0.826-0.316-1.327-0.396c-0.502-0.082-1.105-0.122-1.81-0.122H149.498z"/>
	<path fill="#041E41" d="M162.85,187.525h13.894v5.059h-0.28c-0.256-0.885-0.485-1.547-0.688-1.986
		c-0.203-0.439-0.466-0.855-0.79-1.248c-0.392-0.468-0.819-0.801-1.281-1.001c-0.767-0.317-1.698-0.477-2.795-0.477h-2.571v6.208
		h0.691c1.029,0,1.846-0.442,2.45-1.328c0.312-0.455,0.542-0.996,0.691-1.627c0.075-0.268,0.143-0.663,0.206-1.187h0.327v8.564
		h-0.327c-0.075-0.461-0.164-0.896-0.267-1.304c-0.102-0.408-0.219-0.74-0.346-0.995c-0.128-0.256-0.292-0.512-0.491-0.768
		c-0.561-0.691-1.358-1.037-2.393-1.037h-0.542v5.844h2.15c0.636,0,1.207-0.046,1.716-0.137c0.508-0.09,0.964-0.23,1.369-0.42
		c0.405-0.19,0.786-0.438,1.141-0.744c0.611-0.517,1.085-1.162,1.422-1.936c0.192-0.441,0.395-1.04,0.607-1.795h0.346v5.377h-14.221
		l-0.019-0.346h0.355c1.583,0,2.375-0.799,2.375-2.395v-7.601c0-0.811-0.193-1.409-0.58-1.796c-0.387-0.386-0.985-0.579-1.795-0.579
		h-0.355V187.525z"/>
	<path fill="#041E41" d="M178.763,187.525h5.245l9.078,9.406v-5.629c0-0.686-0.116-1.285-0.351-1.799
		c-0.233-0.515-0.571-0.906-1.014-1.174c-0.237-0.149-0.476-0.256-0.716-0.318c-0.24-0.062-0.575-0.108-1.005-0.14v-0.347h6.47
		v0.347h-0.131c-0.941,0-1.658,0.3-2.15,0.897c-0.492,0.599-0.738,1.468-0.738,2.608v9.341h-0.309l-11.275-11.584v7.76
		c0,0.754,0.09,1.357,0.27,1.809c0.181,0.452,0.474,0.807,0.879,1.061c0.331,0.2,0.732,0.327,1.206,0.384
		c0.262,0.043,0.636,0.074,1.122,0.094v0.346h-6.815v-0.346c0.698-0.038,1.267-0.161,1.706-0.37c0.44-0.208,0.764-0.519,0.973-0.931
		c0.209-0.411,0.314-0.922,0.314-1.533v-7.386c0-0.455-0.102-0.841-0.305-1.159c-0.202-0.318-0.497-0.562-0.883-0.734
		c-0.387-0.171-0.855-0.257-1.402-0.257h-0.169V187.525z"/>
	<path fill="#041E41" d="M211.617,195.987h0.327c-0.149,0.556-0.314,1.017-0.495,1.384c-0.181,0.367-0.43,0.752-0.748,1.15
		c-1.266,1.559-2.958,2.337-5.077,2.337c-1.334,0-2.577-0.31-3.73-0.931c-1.153-0.619-2.069-1.455-2.748-2.506
		c-0.68-1.049-1.02-2.183-1.02-3.398c0-0.723,0.134-1.441,0.402-2.154c0.268-0.714,0.659-1.381,1.173-2.001
		c0.515-0.62,1.111-1.151,1.791-1.595c1.028-0.672,2.216-1.01,3.562-1.01c0.449,0,0.875,0.039,1.276,0.117
		c0.402,0.078,0.782,0.203,1.141,0.375c0.358,0.171,0.728,0.396,1.108,0.678c0.424,0.293,0.735,0.439,0.935,0.439
		c0.442,0,0.997-0.462,1.664-1.385h0.327l0.271,6.283h-0.309c-0.107-0.455-0.207-0.826-0.304-1.112
		c-0.097-0.286-0.227-0.586-0.388-0.897c-0.431-0.879-0.939-1.633-1.525-2.263c-0.586-0.63-1.225-1.109-1.917-1.441
		c-0.691-0.33-1.402-0.495-2.131-0.495c-0.873,0-1.584,0.232-2.132,0.696c-0.549,0.465-0.955,1.188-1.221,2.17
		c-0.265,0.98-0.397,2.229-0.397,3.744c0,0.873,0.047,1.646,0.141,2.318c0.094,0.674,0.238,1.242,0.435,1.707
		c0.196,0.464,0.444,0.852,0.743,1.164c0.368,0.373,0.815,0.658,1.342,0.855c0.526,0.195,1.102,0.294,1.726,0.294
		c0.579,0,1.136-0.075,1.669-0.225c0.532-0.149,1.031-0.372,1.495-0.669c0.465-0.295,0.89-0.662,1.276-1.098
		c0.312-0.361,0.564-0.725,0.758-1.09C211.23,197.067,211.424,196.586,211.617,195.987z"/>
	<path fill="#041E41" d="M213.711,187.525h13.894v5.059h-0.28c-0.256-0.885-0.485-1.547-0.688-1.986
		c-0.203-0.439-0.466-0.855-0.79-1.248c-0.393-0.468-0.819-0.801-1.281-1.001c-0.767-0.317-1.698-0.477-2.795-0.477h-2.571v6.208
		h0.691c1.029,0,1.846-0.442,2.45-1.328c0.311-0.455,0.542-0.996,0.691-1.627c0.075-0.268,0.144-0.663,0.206-1.187h0.327v8.564
		h-0.327c-0.075-0.461-0.164-0.896-0.267-1.304c-0.103-0.408-0.219-0.74-0.346-0.995c-0.128-0.256-0.292-0.512-0.491-0.768
		c-0.561-0.691-1.358-1.037-2.394-1.037h-0.542v5.844h2.15c0.636,0,1.207-0.046,1.716-0.137c0.508-0.09,0.964-0.23,1.369-0.42
		c0.405-0.19,0.786-0.438,1.141-0.744c0.611-0.517,1.085-1.162,1.422-1.936c0.192-0.441,0.395-1.04,0.607-1.795h0.346v5.377h-14.221
		l-0.019-0.346h0.355c1.583,0,2.375-0.799,2.375-2.395v-7.601c0-0.811-0.193-1.409-0.58-1.796c-0.387-0.386-0.985-0.579-1.795-0.579
		h-0.355V187.525z"/>
</g>
<path fill="#041E41" d="M129.718,39.092c0-0.021,0.006-0.04,0.006-0.061v-1.658c0-0.244-0.092-0.469-0.256-0.633
	c-0.195-0.197-0.473-0.288-0.771-0.243c-1.297,0.197-2.599,0.37-3.906,0.518v-4.419c0.413-0.045,0.635-0.074,0.635-0.074v-0.763
	l-7.032-3.271v-6.541c0,0-4.489-4.742-5.287-4.742c-0.797,0-5.287,4.742-5.287,4.742v6.541l-7.032,3.271v0.763
	c0,0,0.247,0.03,0.702,0.078v4.439c-1.386-0.154-2.769-0.333-4.144-0.542c-0.573-0.086-1.026,0.322-1.026,0.876v1.658
	c0,0.021,0.004,0.04,0.006,0.061c-0.131-0.023-0.201-0.036-0.201-0.036h0v0.867c0,0,7.305,1.25,7.305,6.073v23.834
	c0,0,3.376,1.636,9.589,1.636c6.215,0,9.598-1.636,9.598-1.636l0,0V56.566V46.181v-0.185c0-4.824,7.303-6.073,7.303-6.073v-0.867
	C129.917,39.057,129.848,39.069,129.718,39.092z M101.488,39.86c-1.958-0.249-3.544-0.497-4.469-0.65
	c-0.029-0.056-0.047-0.117-0.047-0.178v-1.658c0-0.142,0.089-0.233,0.226-0.233c0.016,0,0.032,0.001,0.048,0.004
	c1.407,0.213,2.822,0.396,4.242,0.553V39.86z M107.382,40.463c-1.737-0.13-3.411-0.302-4.913-0.482v-2.182
	c1.634,0.164,3.272,0.293,4.913,0.381V40.463z M107.382,37.526c-1.64-0.089-3.279-0.219-4.913-0.384v-4.445
	c1.15,0.105,2.84,0.238,4.913,0.338V37.526z M108.691,33.09c1.398,0.052,2.934,0.086,4.571,0.086c1.464,0,2.833-0.028,4.089-0.071
	v4.482c-0.439,0.019-0.877,0.031-1.314,0.044c0.061-0.244,0.097-0.499,0.097-0.761c0-1.726-1.404-3.13-3.131-3.13
	c-1.726,0-3.13,1.404-3.13,3.13c0,0.262,0.037,0.516,0.098,0.76c-0.427-0.013-0.853-0.025-1.279-0.043V33.09z M110.527,36.871
	c0-1.365,1.11-2.477,2.476-2.477c1.366,0,2.477,1.111,2.477,2.477c0,1.365-1.111,2.476-2.477,2.476
	C111.637,39.347,110.527,38.236,110.527,36.871z M114.577,40.633v-1.062c0.516-0.301,0.938-0.746,1.211-1.279
	c0.521-0.014,1.041-0.028,1.563-0.05v2.31c-0.056,0.003-0.111,0.007-0.166,0.01C116.315,40.597,115.446,40.62,114.577,40.633z
	 M114.866,62.077c0.183-0.015,0.381-0.032,0.59-0.049c0.209-0.017,0.428-0.062,0.655-0.093c0.453-0.071,0.936-0.143,1.415-0.222
	c0.471-0.107,0.943-0.214,1.385-0.315c0.221-0.054,0.432-0.087,0.635-0.156c0.201-0.059,0.393-0.117,0.57-0.17
	c0.706-0.212,1.176-0.354,1.176-0.354l0.223,0.956c0,0-0.484,0.081-1.211,0.203c-0.182,0.031-0.379,0.064-0.586,0.1
	c-0.205,0.042-0.44,0.051-0.671,0.078c-0.465,0.046-0.962,0.096-1.459,0.145c-0.496,0.021-0.991,0.03-1.454,0.045
	c-0.231,0.003-0.454,0.021-0.666,0.01c-0.212-0.008-0.413-0.016-0.597-0.024c-0.737-0.03-1.228-0.051-1.228-0.051
	S114.132,62.139,114.866,62.077z M108.821,40.56c-0.044-0.002-0.087-0.005-0.13-0.007v-2.311c0.509,0.021,1.018,0.035,1.526,0.049
	c0.309,0.603,0.808,1.092,1.417,1.39v0.953C110.697,40.622,109.759,40.598,108.821,40.56z M120.032,63.972
	c-0.224,0.047-0.467,0.096-0.724,0.149c-0.253,0.062-0.54,0.085-0.825,0.129c-0.574,0.079-1.186,0.163-1.798,0.247
	c-0.307,0.029-0.614,0.044-0.916,0.065c-0.301,0.02-0.598,0.041-0.885,0.061c-0.286,0.015-0.562,0.046-0.826,0.046
	c-0.263-0.002-0.512-0.002-0.741-0.003c-0.917-0.002-1.527-0.005-1.527-0.005s0.607-0.059,1.518-0.147
	c0.227-0.023,0.473-0.047,0.732-0.072c0.26-0.024,0.531-0.084,0.813-0.128c0.28-0.047,0.571-0.097,0.866-0.146
	c0.295-0.052,0.594-0.097,0.891-0.154c0.586-0.142,1.172-0.283,1.722-0.416c0.274-0.07,0.537-0.116,0.788-0.205
	c0.25-0.078,0.486-0.153,0.704-0.222c0.875-0.274,1.457-0.458,1.457-0.458l0.246,0.95C121.526,63.662,120.929,63.785,120.032,63.972
	z M120.565,59.887c-0.145,0.025-0.301,0.055-0.467,0.085c-0.162,0.036-0.35,0.047-0.535,0.072c-0.373,0.043-0.77,0.089-1.167,0.135
	c-0.397,0.024-0.792,0.038-1.162,0.056c-0.185,0.005-0.362,0.022-0.532,0.018c-0.169-0.005-0.33-0.008-0.478-0.012
	c-0.588-0.015-0.98-0.024-0.98-0.024s0.389-0.051,0.971-0.128c0.145-0.019,0.301-0.041,0.467-0.062
	c0.167-0.02,0.339-0.064,0.519-0.1c0.358-0.074,0.739-0.148,1.117-0.231c0.371-0.103,0.741-0.206,1.088-0.303
	c0.173-0.051,0.338-0.086,0.498-0.147c0.158-0.057,0.309-0.109,0.447-0.159c0.556-0.194,0.925-0.324,0.925-0.324l0.253,0.948
	C121.53,59.709,121.144,59.78,120.565,59.887z M120.812,57.566c-0.111,0.024-0.231,0.048-0.358,0.074
	c-0.124,0.03-0.27,0.044-0.413,0.066c-0.287,0.041-0.593,0.083-0.899,0.127c-0.307,0.026-0.612,0.045-0.896,0.066
	c-0.142,0.009-0.278,0.024-0.41,0.025c-0.13,0-0.254,0-0.368,0c-0.454,0-0.756,0.001-0.756,0.001s0.295-0.062,0.739-0.153
	c0.109-0.023,0.229-0.048,0.355-0.074c0.125-0.026,0.255-0.069,0.391-0.105c0.27-0.077,0.558-0.155,0.843-0.24
	c0.277-0.1,0.555-0.198,0.815-0.291c0.13-0.048,0.252-0.084,0.373-0.141c0.119-0.052,0.232-0.1,0.336-0.146
	c0.415-0.179,0.692-0.299,0.692-0.299l0.296,0.937C121.552,57.414,121.256,57.475,120.812,57.566z M121.022,55.319
	c-0.084,0.02-0.174,0.041-0.271,0.064c-0.092,0.025-0.203,0.042-0.312,0.062c-0.219,0.038-0.451,0.08-0.686,0.122
	c-0.232,0.029-0.465,0.052-0.682,0.076c-0.107,0.01-0.211,0.025-0.311,0.03c-0.1,0.004-0.194,0.008-0.281,0.011
	c-0.345,0.015-0.575,0.022-0.575,0.022s0.219-0.068,0.547-0.173c0.082-0.025,0.17-0.054,0.262-0.083
	c0.094-0.03,0.189-0.072,0.289-0.11c0.197-0.079,0.409-0.16,0.615-0.246c0.202-0.096,0.403-0.191,0.592-0.28
	c0.094-0.046,0.184-0.083,0.27-0.135c0.087-0.048,0.168-0.092,0.244-0.134c0.302-0.167,0.502-0.277,0.502-0.277l0.356,0.915
	C121.581,55.185,121.357,55.238,121.022,55.319z M123.81,39.953c-1.562,0.189-3.322,0.373-5.151,0.51v-2.282
	c1.719-0.093,3.438-0.23,5.151-0.406V39.953z M123.81,37.117c-1.713,0.178-3.432,0.316-5.151,0.409v-4.472
	c2.207-0.1,3.977-0.244,5.151-0.356V37.117z M129.068,39.032c0,0.061-0.017,0.122-0.046,0.178c-0.889,0.146-2.383,0.381-4.232,0.619
	v-2.157c1.34-0.151,2.676-0.327,4.005-0.528c0.085-0.014,0.16,0.007,0.21,0.058c0.041,0.042,0.063,0.102,0.063,0.172V39.032z"/>
<polygon fill="#041E41" points="113.76,97.885 117.06,108.039 127.738,108.039 119.1,114.316 122.398,124.471 113.76,118.194 
	105.122,124.471 108.421,114.316 99.783,108.039 110.46,108.039 "/>
<g>
	<path fill="#041E41" d="M18.421,217.604c0.51,0,0.799-0.039,0.909-0.59h0.3v1.27h-5.167v-0.299c0.39-0.09,0.37-0.16,0.37-0.62
		v-5.298c0-0.459,0.02-0.529-0.37-0.619v-0.3h1.649v0.3c-0.36,0.13-0.34,0.18-0.34,0.619v5.537H18.421z"/>
	<path fill="#041E41" d="M21.253,212.066c0-0.459,0.02-0.529-0.4-0.619v-0.3h1.739v0.3c-0.42,0.13-0.399,0.18-0.399,0.619v5.298
		c0,0.439-0.021,0.489,0.399,0.62v0.299h-1.739v-0.299c0.42-0.09,0.4-0.16,0.4-0.62V212.066z"/>
	<path fill="#041E41" d="M25.512,213.916h2.159c0.34,0,0.68,0.05,0.789-0.369h0.3v1.408h-0.3c-0.069-0.389-0.319-0.359-0.629-0.359
		h-2.319v2.769c0,0.439-0.02,0.489,0.34,0.62v0.299h-1.649v-0.299c0.391-0.09,0.37-0.16,0.37-0.62v-5.298
		c0-0.459,0.021-0.529-0.37-0.619v-0.3h5.747v1.329h-0.3c-0.05-0.779-1.039-0.649-1.599-0.649h-2.539V213.916z"/>
	<path fill="#041E41" d="M32.722,213.916h2.229c0.329,0,0.779,0.061,0.879-0.359h0.3v1.379h-0.3c-0.1-0.369-0.34-0.34-0.659-0.34
		h-2.449v3.008h3.458c0.51,0,0.99,0.021,1.109-0.6h0.3v1.279h-6.216v-0.299c0.439-0.07,0.409-0.221,0.409-0.62v-5.298
		c0-0.409,0.03-0.559-0.409-0.619v-0.3h5.876v1.169h-0.3c-0.14-0.449-0.329-0.489-0.77-0.489h-3.458V213.916z"/>
	<path fill="#041E41" d="M43.053,212.066c0-0.459,0.02-0.529-0.4-0.619v-0.3h1.739v0.3c-0.42,0.13-0.399,0.18-0.399,0.619v5.298
		c0,0.439-0.021,0.489,0.399,0.62v0.299h-1.739v-0.299c0.42-0.09,0.4-0.16,0.4-0.62V212.066z"/>
	<path fill="#041E41" d="M47.212,217.364c0,0.46-0.021,0.53,0.42,0.62v0.299h-1.56v-0.299c0.439-0.09,0.42-0.16,0.42-0.62v-5.298
		c0-0.459,0.02-0.529-0.42-0.619v-0.3h1.379l4.019,3.498v-2.579c0-0.459,0.02-0.529-0.41-0.619v-0.3h1.499v0.3
		c-0.39,0.09-0.369,0.16-0.369,0.619v5.298c0,0.46-0.021,0.53,0.369,0.62v0.299H51.06v-0.299c0.43-0.09,0.41-0.16,0.41-0.62v-1.47
		l-4.258-3.728V217.364z"/>
	<path fill="#041E41" d="M55.151,216.025l0.2,0.279c-0.14,0.13-0.29,0.24-0.29,0.449c0,0.801,1.43,1,1.989,1
		c0.85,0,1.969-0.289,1.969-1.309c0-1.83-4.607-1.02-4.607-3.539c0-1.359,1.439-1.908,2.599-1.908c1.01,0,1.759,0.35,2.509,1.01
		l-0.79,0.929l-0.279-0.18c0.06-0.11,0.12-0.229,0.12-0.36c0-0.6-1.149-0.719-1.56-0.719c-0.62,0-1.759,0.25-1.759,1.029
		c0,1.729,4.607,0.93,4.607,3.628c0,1.519-1.589,2.099-2.879,2.099c-1.309,0-2.389-0.479-2.878-1.77L55.151,216.025z"/>
	<path fill="#041E41" d="M66.18,212.066c0-0.459,0.02-0.529-0.37-0.619v-0.3h1.699v0.3c-0.409,0.13-0.39,0.18-0.39,0.619v5.298
		c0,0.46-0.02,0.53,0.39,0.62v0.299h-2.998c-0.779,0-1.6-0.14-2.219-0.659c-0.649-0.53-0.93-1.399-0.93-2.209
		c0-1.249,0.6-2.618,1.229-3.678c0.149-0.25-0.08-0.26-0.34-0.29v-0.3h1.789v0.3c-0.45,0.09-0.7,0.59-0.899,0.949
		c-0.479,0.9-0.74,1.93-0.74,2.939c0,0.619,0.17,1.269,0.61,1.709c0.539,0.549,1.139,0.559,1.869,0.559h1.299V212.066z"/>
	<path fill="#041E41" d="M74.399,217.454c0.2,0.271,0.359,0.489,0.72,0.53v0.299h-1.22l-2.378-3.218h-0.84v2.299
		c0,0.439-0.021,0.489,0.34,0.62v0.299h-1.649v-0.299c0.39-0.09,0.37-0.16,0.37-0.62v-5.298c0-0.459,0.02-0.529-0.37-0.619v-0.3
		h2.998c1.27,0,2.389,0.47,2.389,1.89c0,1.289-0.979,1.959-2.188,2.028L74.399,217.454z M71.801,214.416
		c0.92,0,2.119-0.13,2.119-1.319c0-1.04-0.78-1.3-1.68-1.3h-1.559v2.619H71.801z"/>
	<path fill="#041E41" d="M78.321,215.396l-0.85,2.069c-0.2,0.489,0.12,0.439,0.27,0.52v0.299h-1.449v-0.299
		c0.24-0.07,0.3-0.221,0.39-0.43l2.688-6.407h0.7l2.748,6.217c0.11,0.239,0.23,0.56,0.53,0.62v0.299h-1.649v-0.299
		c0.29-0.101,0.399-0.101,0.16-0.62l-0.91-1.969H78.321z M79.601,212.327l-0.989,2.389h2.049L79.601,212.327z"/>
	<path fill="#041E41" d="M85.911,217.364c0,0.46-0.02,0.53,0.42,0.62v0.299h-1.559v-0.299c0.439-0.09,0.419-0.16,0.419-0.62v-5.298
		c0-0.459,0.021-0.529-0.419-0.619v-0.3h1.379l4.018,3.498v-2.579c0-0.459,0.021-0.529-0.409-0.619v-0.3h1.499v0.3
		c-0.39,0.09-0.37,0.16-0.37,0.619v5.298c0,0.46-0.02,0.53,0.37,0.62v0.299H89.76v-0.299c0.43-0.09,0.409-0.16,0.409-0.62v-1.47
		l-4.258-3.728V217.364z"/>
	<path fill="#041E41" d="M98.869,218.283c-0.41,0.101-0.82,0.15-1.239,0.15c-1.12,0-2.22-0.369-3.099-1.069
		c-0.93-0.729-1.539-1.858-1.539-3.048c0-2.01,1.688-3.318,3.607-3.318c1,0,1.93,0.379,2.659,1.068l-0.91,0.881l-0.239-0.17
		c0.06-0.08,0.1-0.17,0.1-0.271c0-0.64-1.089-0.81-1.569-0.81c-1.589,0-2.608,1.08-2.608,2.648c0,1.869,1.64,3.389,3.479,3.389
		c0.479,0,0.959-0.17,1.089-0.689h0.271V218.283z"/>
	<path fill="#041E41" d="M102.321,213.916h2.229c0.33,0,0.779,0.061,0.88-0.359h0.3v1.379h-0.3c-0.101-0.369-0.34-0.34-0.66-0.34
		h-2.448v3.008h3.458c0.51,0,0.989,0.021,1.109-0.6h0.3v1.279h-6.217v-0.299c0.439-0.07,0.41-0.221,0.41-0.62v-5.298
		c0-0.409,0.029-0.559-0.41-0.619v-0.3h5.877v1.169h-0.3c-0.14-0.449-0.33-0.489-0.77-0.489h-3.458V213.916z"/>
	<path fill="#041E41" d="M118.169,218.283c-0.41,0.101-0.82,0.15-1.239,0.15c-1.12,0-2.22-0.369-3.099-1.069
		c-0.93-0.729-1.539-1.858-1.539-3.048c0-2.01,1.688-3.318,3.607-3.318c1,0,1.93,0.379,2.659,1.068l-0.91,0.881l-0.239-0.17
		c0.06-0.08,0.1-0.17,0.1-0.271c0-0.64-1.089-0.81-1.569-0.81c-1.589,0-2.608,1.08-2.608,2.648c0,1.869,1.64,3.389,3.479,3.389
		c0.479,0,0.959-0.17,1.089-0.689h0.271V218.283z"/>
	<path fill="#041E41" d="M120.162,214.636c0-2.129,1.579-3.638,3.688-3.638c2.139,0,3.628,1.578,3.628,3.697
		c0,2.129-1.489,3.738-3.647,3.738C121.631,218.434,120.162,216.795,120.162,214.636z M121.201,214.695
		c0,1.67,0.85,3.059,2.658,3.059c1.76,0,2.579-1.329,2.579-2.969c0-1.688-0.819-3.107-2.679-3.107
		C121.99,211.678,121.201,213.047,121.201,214.695z"/>
	<path fill="#041E41" d="M134.509,212.367l-1.649,4.237h-0.42l-1.759-4.237l-0.869,5.117c-0.051,0.289-0.04,0.449,0.26,0.5v0.299
		h-1.39v-0.299c0.29-0.08,0.33-0.301,0.38-0.561l0.989-5.496c0.07-0.36,0.08-0.391-0.26-0.48v-0.3h1.27l1.679,4.058l1.56-4.058
		h1.289v0.3c-0.36,0.03-0.34,0.15-0.29,0.4l1.079,5.637c0.051,0.27,0.101,0.42,0.38,0.5v0.299h-1.559v-0.299
		c0.42-0.061,0.279-0.33,0.25-0.5L134.509,212.367z"/>
	<path fill="#041E41" d="M139.301,217.364c0,0.439-0.021,0.489,0.409,0.62v0.299h-1.759v-0.299c0.43-0.09,0.41-0.16,0.41-0.62
		v-5.298c0-0.459,0.02-0.529-0.41-0.619v-0.3h2.608c1.22,0,2.709,0.351,2.709,1.859c0,1.858-2.619,2.618-3.968,3.108V217.364z
		 M139.301,211.797v3.608c0.999-0.37,3.028-1.04,3.028-2.389c0-1.089-1.08-1.22-1.93-1.22H139.301z"/>
	<path fill="#041E41" d="M145.49,215.396l-0.85,2.069c-0.2,0.489,0.119,0.439,0.27,0.52v0.299h-1.449v-0.299
		c0.24-0.07,0.3-0.221,0.39-0.43l2.688-6.407h0.7l2.748,6.217c0.11,0.239,0.23,0.56,0.529,0.62v0.299h-1.648v-0.299
		c0.29-0.101,0.399-0.101,0.16-0.62l-0.91-1.969H145.49z M146.77,212.327l-0.99,2.389h2.049L146.77,212.327z"/>
	<path fill="#041E41" d="M153.081,217.364c0,0.46-0.021,0.53,0.419,0.62v0.299h-1.559v-0.299c0.439-0.09,0.42-0.16,0.42-0.62v-5.298
		c0-0.459,0.02-0.529-0.42-0.619v-0.3h1.379l4.018,3.498v-2.579c0-0.459,0.021-0.529-0.409-0.619v-0.3h1.499v0.3
		c-0.39,0.09-0.37,0.16-0.37,0.619v5.298c0,0.46-0.02,0.53,0.37,0.62v0.299h-1.499v-0.299c0.43-0.09,0.409-0.16,0.409-0.62v-1.47
		l-4.257-3.728V217.364z"/>
	<path fill="#041E41" d="M163.31,215.635v1.729c0,0.439-0.021,0.489,0.39,0.62v0.299h-1.749v-0.299c0.439-0.09,0.42-0.16,0.42-0.62
		v-1.669l-1.979-3.658c-0.13-0.23-0.319-0.55-0.619-0.59v-0.3h1.688v0.3c-0.369,0.051-0.319,0.1-0.159,0.4l1.639,2.998l1.449-2.799
		c0.21-0.399,0.34-0.549-0.09-0.6v-0.3h1.499v0.3c-0.33,0.051-0.449,0.33-0.59,0.6L163.31,215.635z"/>
	<path fill="#041E41" d="M174.788,217.604c0.51,0,0.8-0.039,0.91-0.59h0.3v1.27h-5.167v-0.299c0.39-0.09,0.369-0.16,0.369-0.62
		v-5.298c0-0.459,0.021-0.529-0.369-0.619v-0.3h1.648v0.3c-0.359,0.13-0.34,0.18-0.34,0.619v5.537H174.788z"/>
	<path fill="#041E41" d="M177.62,212.066c0-0.459,0.021-0.529-0.399-0.619v-0.3h1.739v0.3c-0.42,0.13-0.4,0.18-0.4,0.619v5.298
		c0,0.439-0.02,0.489,0.4,0.62v0.299h-1.739v-0.299c0.42-0.09,0.399-0.16,0.399-0.62V212.066z"/>
	<path fill="#041E41" d="M185.978,212.367l-1.649,4.237h-0.419l-1.76-4.237l-0.869,5.117c-0.05,0.289-0.04,0.449,0.26,0.5v0.299
		h-1.39v-0.299c0.29-0.08,0.33-0.301,0.38-0.561l0.99-5.496c0.069-0.36,0.079-0.391-0.261-0.48v-0.3h1.27l1.68,4.058l1.559-4.058
		h1.289v0.3c-0.359,0.03-0.34,0.15-0.289,0.4l1.079,5.637c0.05,0.27,0.1,0.42,0.38,0.5v0.299h-1.56v-0.299
		c0.42-0.061,0.28-0.33,0.25-0.5L185.978,212.367z"/>
	<path fill="#041E41" d="M189.819,212.066c0-0.459,0.021-0.529-0.399-0.619v-0.3h1.739v0.3c-0.42,0.13-0.4,0.18-0.4,0.619v5.298
		c0,0.439-0.02,0.489,0.4,0.62v0.299h-1.739v-0.299c0.42-0.09,0.399-0.16,0.399-0.62V212.066z"/>
	<path fill="#041E41" d="M195.959,217.364c0,0.46-0.02,0.53,0.42,0.62v0.299H194.6v-0.299c0.439-0.09,0.42-0.16,0.42-0.62v-5.537
		h-1.499c-0.46,0-0.68-0.04-0.77,0.51h-0.3v-1.189h6.076v1.189h-0.3c-0.05-0.54-0.239-0.51-0.699-0.51h-1.569V217.364z"/>
	<path fill="#041E41" d="M201.29,213.916h2.229c0.33,0,0.779,0.061,0.879-0.359h0.3v1.379h-0.3c-0.1-0.369-0.34-0.34-0.659-0.34
		h-2.448v3.008h3.458c0.51,0,0.989,0.021,1.109-0.6h0.3v1.279h-6.217v-0.299c0.439-0.07,0.41-0.221,0.41-0.62v-5.298
		c0-0.409,0.029-0.559-0.41-0.619v-0.3h5.877v1.169h-0.3c-0.141-0.449-0.33-0.489-0.77-0.489h-3.458V213.916z"/>
	<path fill="#041E41" d="M208.03,212.066c0-0.459,0.02-0.529-0.41-0.619v-0.3h1.789c1.25,0,2.279,0.11,3.299,0.919
		c0.939,0.75,1.519,1.949,1.519,3.148c0,2.109-1.608,3.068-3.538,3.068h-3.068v-0.299c0.43-0.09,0.41-0.16,0.41-0.62V212.066z
		 M210.499,217.604c1.629,0,2.688-0.77,2.688-2.479c0-1.059-0.439-2.068-1.31-2.698c-0.839-0.62-1.839-0.649-2.908-0.649v5.826
		H210.499z"/>
</g>
</svg>
