<?xml version="1.0" encoding="utf-8"?>
<!-- Generator: Adobe Illustrator 19.1.0, SVG Export Plug-In . SVG Version: 6.00 Build 0)  -->
<svg version="1.1" xmlns="http://www.w3.org/2000/svg" xmlns:xlink="http://www.w3.org/1999/xlink" x="0px" y="0px"
	 viewBox="0 0 173.3 173.3" style="enable-background:new 0 0 173.3 173.3;" xml:space="preserve">
<style type="text/css">
	.Arched_x0020_Green{fill:url(#SVGID_1_);stroke:#FFFFFF;stroke-width:0.25;stroke-miterlimit:1;}
	.st0{display:none;}
	.st1{display:inline;fill:#5D5E5E;}
	.st2{fill:#FFFFFF;}
	.st3{fill:#9CC5CA;}
</style>
<linearGradient id="SVGID_1_" gradientUnits="userSpaceOnUse" x1="-301.8975" y1="687.6997" x2="-301.1904" y2="686.9926">
	<stop  offset="0" style="stop-color:#20AC4B"/>
	<stop  offset="0.9831" style="stop-color:#19361A"/>
</linearGradient>
<g id="DO_NOT_PRINT" class="st0">
</g>
<g id="PRINT">
	<rect x="0" y="0" class="st2" width="173.3" height="173.3"/>
	<path d="M168,31.1V5.6H5.6v25.1C51.9,12.9,117.3,14,168,31.1z"/>
	<path d="M5.6,39.3v36.6C14,58.7,31.7,43.1,46,41.4c3.1,0,5.1,2.5,7.2,7.1c1.3,1.6,1.9,4.1,1.9,5.1c0,0.3,0,0.4-0.1,0.8
		c-1.7,2.9-13.4,12.8-15.4,13.3c-0.3,0-0.4-0.1-0.4-0.5c0-2.4,9-11.2,10.8-16.2c-0.4-1.1-1.4-1.3-2.5-1.3c-14,0-41.9,28.9-41.9,49.3
		c0,5.5,2.2,10.1,8,10.1c8.1,0,20-10.4,25-17.6c0,0,0.9-1.3,1.5-1.3c0.2,0,0.5,0.3,0.5,0.7c0,0.7-1.1,2.9-1.1,2.9
		c-5,9.3-14.4,22-24.7,22c-3.4,0-6.7-2-9.3-5.2V168H168V72.1C128.2,27.8,35.2,27.2,5.6,39.3z"/>
	<path class="st2" d="M51,96c10.8-12.9,16.4-17.2,16.4-17.2c0.4-0.5,0.7-0.6,1.1-0.6c1.3,0,3.6,2.7,3.6,4.5c0,1.1-1.2,2.4-2.6,4.2
		c-1.4,1.9-2.9,4.5-2.9,7.2c0,0.8,0.3,1.6,0.7,2.3c-0.2,0.1-0.4,0.1-0.5,0.1c-2.3,0-3.9-3-3.9-6.1c0-2,0.2-3.9,1.2-6.1
		c-6.2,7.2-14.3,14.9-19.2,23c-1.7,2.8-3.5,6.3-3.5,8.6c-2.3-0.3-3.1-2.3-3.1-4.9c0-3,1.5-5.8,2.1-7.3c3.7-7,7.6-14.5,14.6-26.5
		c-6.6,4.9-7.1,5.6-7.6,5.6s-0.8-0.5-0.8-0.6c0-0.6,0.8-1.3,0.8-1.3C49.6,79,56.1,73,57.9,73c1.9,0,4.4,2.7,4.4,5.1
		c-0.3,1.3-0.9,2.1-1.7,3.3L51,96z"/>
	<path class="st2" d="M67.1,104.4c0-12,13.1-26.8,22.6-31.6c1.3-0.6,2.4-0.8,3-0.8c2.3,0,6.4,7,6.8,9.4c0,7.1-11.3,14.5-17.2,14.5
		c-2.3,0-3.1-0.6-3.1-1.1c0-0.8,1.6-0.6,2.1-0.8c5.8-1.6,13.8-11.5,13.8-15.3c-4.9,1.5-11.9,7.3-17.1,14c-3,3.8-6.4,10-6.4,14.5
		c0,1.8,0.9,3.7,2.9,3.7c4.3-0.4,12.2-7.3,15.8-11.9c0.3-0.5,0.7-0.6,0.9-0.6c0.3,0,0.4,0.3,0.4,0.8c-0.4,1.9-5.4,8.8-10.5,13.4
		c-2.1,1.9-3.9,3.2-5.6,3.4C71.1,116,67.1,109.2,67.1,104.4z"/>
	<path class="st2" d="M104.4,79.4c-0.5,0-0.5-0.6-0.5-0.9c-0.2-1.3,7.3-7,8.6-7c1.6,0,4.7,2.4,4.7,4.9c0,3.7-10.5,16.3-12.7,19.6
		c1.1-1.1,5.1-5.7,9.3-10.4c2.1-2.3,9.6-11,12.4-11c1.9,0,4.5,2.8,4.5,4.9c0,0.5-0.1,1.3-0.3,1.8c-4.8,7.1-9.4,16.4-9.4,16.4
		c12.5-14.7,13-15.2,13.5-15.2c1.5,0,4.1,2.7,4.1,4.7c0,1.6-0.5,2.5-1.7,4.7c-2.9,5.1-5.4,11-5.5,15.2c0,1.9,0.1,5.1,2.2,5.1
		c0.1,0,0.3,0.1,0.3,0.3c0,1-1.2,1.4-2,1.4c-3.2,0-5.7-4-5.7-8.6c0-4.2,2-10.1,5.5-16.4c-4,4.7-9.5,10.9-12.6,15.2
		c-1.4,1.6-2.6,4-3.9,5.9c-0.5,0.6-1,1-1.5,1c-1.3,0-3.1-2.3-3.1-4.2c0-1.3,0.5-3.2,1.8-5.9c3.6-8.2,10.3-20.2,10.3-20.2
		c-5.7,5.2-12.3,11.8-18.5,19.8c-3,3.8-5.1,7.3-7,12.1c-0.5,1.1-0.2,2.3-1.5,2.3c-1.3,0-3-3.2-3.1-5.2c0-1.8,0.3-3.7,1.1-5.3
		c4.9-9.2,10.2-19.2,16.9-29.4C110.6,74.9,105.5,79,104.4,79.4z"/>
	<path class="st2" d="M172.1,78.2c0.5,1.1,0.6,1.5,0.6,2.5c0,3.2-1.2,5.7-2,5.7c-0.2-0.1-0.2-0.4-0.2-0.5c0-0.5,0.3-0.8,0.5-1.4
		c0.3-0.8,0.5-1.9,0.5-2.4c0-2.7-2.6-3-4-3c-6.5,0-16,8.6-21,16.7c-2,3.2-4.8,9-5,12.6c5.1-7.3,17.6-17.7,17.6-17.7
		c0.8-0.9,1.8-1.8,2.9-1.8c1.6,0,4.1,3.7,4.1,4.4c-2.2,1.1-4,8.1-4,8.2c-0.6,2.4-1,4.9-1,6.3c0,5.8,2.6,4.9,2.6,6.2
		c-0.1,0.3-0.6,0.4-1,0.4c-4.3-0.1-5.8-6.4-5.8-9.9c0-5.1,1.8-10.4,1.8-10.4c-2.2,1.6-4.2,3.8-8.5,8.6c-7.2,8.2-8.7,13.3-10.1,13.3
		c-1.7,0-3.7-3.9-4.1-6.4v-1.1c0-14.4,18.5-37.3,30-37.3c0.9,0,1.7,0.3,2.4,1C170.4,74.3,171.6,77.1,172.1,78.2z"/>
	<g>
		<path class="st2" d="M22,136.2c3.6,0,6.6,3,6.6,6.9S25.6,150,22,150h-6.1c-0.5,0-1-0.5-1-1v-11.7c0-0.6,0.4-1,1-1H22z M16.9,138.3
			v9.6H22c2.7,0,4.6-2.1,4.6-4.8c0-2.7-1.9-4.8-4.6-4.8H16.9z"/>
		<path class="st2" d="M33.3,138.3v3.3h3.5c0.5,0,1,0.5,1,1c0,0.6-0.4,1-1,1h-3.5v4.2h4.6c0.5,0,1,0.5,1,1c0,0.6-0.4,1-1,1h-5.6
			c-0.5,0-1-0.5-1-1v-11.7c0-0.6,0.4-1,1-1h5.6c0.5,0,1,0.5,1,1c0,0.6-0.4,1-1,1H33.3z"/>
		<path class="st2" d="M48.2,146.3c0,2.2-1.5,3.9-3.8,3.9c-1.4,0-2.4-0.4-3.2-1.2c-0.2-0.2-0.7-0.8-0.2-1.5c0.4-0.5,1-0.5,1.4-0.1
			c0.6,0.6,1.5,0.8,2,0.8c1.2,0,1.8-0.7,1.8-1.8c0-2.8-5.5-2.7-5.5-6.8c0-2,1.3-3.6,3.7-3.6c1.1,0,2.1,0.3,3,1
			c0.2,0.2,0.6,0.8,0.2,1.5c-0.3,0.5-0.9,0.6-1.4,0.3c-0.6-0.4-1.4-0.6-1.9-0.6c-1.2,0-1.6,0.6-1.6,1.5
			C42.7,141.9,48.2,141.8,48.2,146.3z"/>
		<path class="st2" d="M52.8,149.1c0,0.6-0.4,1-1,1s-1-0.5-1-1v-11.9c0-0.6,0.4-1,1-1s1,0.5,1,1V149.1z"/>
		<path class="st2" d="M62.1,138.1c-2.7,0-4.6,2.3-4.6,5c0,2.7,1.9,5,4.6,5c1.2,0,2.3-0.5,3.1-1.2v-2.7c0-0.6,0.4-1,1-1s1,0.5,1,1
			v3.1c0,0.3-0.1,0.5-0.3,0.7c-1.2,1.3-2.9,2.2-4.8,2.2c-3.6,0-6.6-3.2-6.6-7.1s2.9-7.1,6.6-7.1c1.9,0,3.5,0.8,4.7,2.2
			c0.4,0.4,0.4,1,0,1.5s-1,0.4-1.4,0C64.6,138.7,63.5,138.1,62.1,138.1z"/>
		<path class="st2" d="M72,139.6v9.4c0,0.6-0.4,1-1,1s-1-0.5-1-1v-11.9c0-0.6,0.4-1,1-1c0.4,0,0.6,0.1,1,0.5l10.2,9.9v-9.4
			c0-0.6,0.4-1,1-1s1,0.5,1,1v11.9c0,0.6-0.4,1-1,1c-0.4,0-0.6-0.1-1-0.5L72,139.6z"/>
		<path class="st2" d="M97.4,146.3c0,2.2-1.5,3.9-3.8,3.9c-1.4,0-2.4-0.4-3.2-1.2c-0.2-0.2-0.7-0.8-0.2-1.5c0.4-0.5,1-0.5,1.4-0.1
			c0.6,0.6,1.5,0.8,2,0.8c1.2,0,1.8-0.7,1.8-1.8c0-2.8-5.5-2.7-5.5-6.8c0-2,1.3-3.6,3.7-3.6c1.1,0,2.1,0.3,3,1
			c0.2,0.2,0.6,0.8,0.2,1.5c-0.3,0.5-0.9,0.6-1.4,0.3c-0.6-0.4-1.4-0.6-1.9-0.6c-1.2,0-1.6,0.6-1.6,1.5
			C92,141.9,97.4,141.8,97.4,146.3z"/>
		<path class="st2" d="M99.9,138.3c-0.5,0-1-0.5-1-1c0-0.6,0.4-1,1-1h5.6c0.5,0,1,0.5,1,1c0,0.6-0.4,1-1,1h-1.8v10.8
			c0,0.6-0.4,1-1,1s-1-0.5-1-1v-10.8H99.9z"/>
		<path class="st2" d="M119.6,137.1c0-0.6,0.4-1,1-1s1,0.5,1,1v6c0,3.9-2.9,7.1-6.6,7.1c-3.6,0-6.6-3.2-6.6-7.1v-6c0-0.6,0.4-1,1-1
			s1,0.5,1,1v6c0,2.7,1.9,5,4.6,5c2.7,0,4.6-2.3,4.6-5V137.1z"/>
		<path class="st2" d="M131.8,136.2c3.6,0,6.6,3,6.6,6.9s-2.9,6.9-6.6,6.9h-6.1c-0.5,0-1-0.5-1-1v-11.7c0-0.6,0.4-1,1-1H131.8z
			 M126.7,138.3v9.6h5.1c2.7,0,4.6-2.1,4.6-4.8c0-2.7-1.9-4.8-4.6-4.8H126.7z"/>
		<path class="st2" d="M143.1,149.1c0,0.6-0.4,1-1,1c-0.5,0-1-0.5-1-1v-11.9c0-0.6,0.4-1,1-1c0.5,0,1,0.5,1,1V149.1z"/>
		<path class="st2" d="M152.4,136c3.6,0,6.6,3.2,6.6,7.1s-2.9,7.1-6.6,7.1s-6.6-3.2-6.6-7.1S148.8,136,152.4,136z M152.4,148.1
			c2.7,0,4.6-2.3,4.6-5c0-2.7-1.9-5-4.6-5s-4.6,2.3-4.6,5C147.8,145.8,149.7,148.1,152.4,148.1z"/>
	</g>
</g>
</svg>
