<svg id="Layer_1" data-name="Layer 1" xmlns="http://www.w3.org/2000/svg" viewBox="0 0 2048.08 1042.98"><defs><style>.cls-1{fill:#df282a;}.cls-2{fill:#030303;}.cls-3{fill:#080808;}.cls-4{fill:#f2b330;}</style></defs><path class="cls-1" d="M714.75,597.6c-5.38,13.94-9.87,27-17.08,38.86-2.34,3.84-4.6,7.72-6.85,11.61-15.83,27.42-64,33.52-88.73,2-9.19-11.72-11.83-24.11-10.37-38.23.33-3.2,2.17-7.72-.26-9.39-2.22-1.52-5.28,2.44-8,3.86-21.29,11-43,19-67.84,15.91C489.33,618.93,470,606,456.86,583.36c-1.3-2.23-1.93-6.15-4.36-6s-3.06,4-4.17,6.34c-9.64,20.28-23.62,36.73-43.79,46.87-16.16,8.11-33,10.39-49.48.05-2.57-1.61-4.58-3.83-6.77-5.87-2.75-2.56-4.77-2.65-6.65,1.37C333,644.71,321,660.73,304.19,673c-13.92,10.16-29.21,14.91-46.47,12.62-12.16-1.61-21.42-11-24.78-24.88-3-12.48-1.12-24.86.41-37.24,1.83-14.87,4.54-29.67,1.76-44.72-2.29-12.44-6.21-24.1-14.4-34.07A24.48,24.48,0,0,0,205.94,536c-19.84-3.75-36,2.6-48.49,18.42-2.24,2.83-1.78,6-1.26,9.09,1.58,9.51,3.24,19,4.91,28.52,4.53,25.91-4.14,47.77-24,60.61-12.79,8.24-25,3.41-28.84-11.21-2.92-11.14-1.75-22.15.5-33.16,3.3-16.14,7.64-32,12.14-47.87C124,549.29,116,533.72,105,530.55c-3.61-1-6.91.58-10,2.26-8.51,4.69-14.58,12-20.21,19.66C61,571.15,50.33,591.65,40.09,612.41c-4.91,10-8.91,20.45-15.85,29.33-5.47,7-11.77,8.34-18.7,4.07-4.76-2.93-6.6-7-4.95-12.34,9-29,16.05-58.42,22.81-88,3.93-17.19,6.71-34.63,11.5-51.63a102.57,102.57,0,0,1,5.75-15.44c3.08-6.6,6.8-8.64,12.92-7.51,5.48,1,9.25,5.91,9.56,12.43.2,4.23-1.2,8.22-2,12.28-2.25,11.26-4.63,22.5-6.91,33.75a35.63,35.63,0,0,0-.29,4.38c3.64-1.63,5.16-4.93,7.52-7.3,11-11,24-17.57,39.63-18.55C115.35,507,126.28,514,136.3,523c7.07,6.36,7.32,6.92,15.78,2.12,18.32-10.38,37.85-13.36,58.34-10.28,24.24,3.64,38.69,18,46.24,41.24,8.17,25.12,6.76,50.19,3.08,75.56-.74,5.11-1.33,10.23-1.88,15.36a22.72,22.72,0,0,0,.63,8.91c2.34,7.83,6.27,10.09,14.21,8.1a38.91,38.91,0,0,0,16.47-9,114.29,114.29,0,0,0,26.18-33q8.81-17.05,18.51-33.65c2.54-4.35,2.83-9.17,4.42-13.69,9.84-27.83,26.14-50.3,53.09-63.78,17.53-8.77,36.37-9.79,55.11-6.22,13.11,2.5,20.35,12.51,23.34,25.34,2.45,10.53,4.7,21.1,7.05,31.66,4.14,18.56,21.38,33.87,40.48,36.42,17.71,2.37,33.55-3.25,48.85-11,22-11.17,41.86-25.17,58.23-43.82,15.32-17.45,34.64-25.18,57.72-23.38,15.57,1.21,26.93,9,33.77,23,10.71,22,23,43.13,35.32,64.21,3,5,3.93,5.19,8.1,1.16,10.52-10.15,20.5-20.86,32.57-29.34,15.7-11,32.53-19.41,51.28-23.76,6.42-1.49,12.51-1.9,18.93,1,9.16,4.14,12.68,9.82,9.46,19.5-4.13,12.44-9,24.45-17,35.25-7.62,10.26-11.41,22.51-12.41,35.38-.58,7.48,1.93,10.25,9.59,10.86,10.06.81,19.5-1.87,28.56-5.83,23-10,42.39-25.44,61.44-41.37,5.38-4.49,9.47-10.46,15.11-14.36,13.55-9.38,23.55-22.24,34.8-33.87,7.82-8.1,12.77-18.57,21.57-25.94,17.18-14.37,35.35-26.74,58.36-29.25,12.36-1.34,24.69-1.7,35.07,7.24,5,4.29,8.81,9.52,12.35,14.94,2.25,3.45,1,9.47-2.3,12.39-3.57,3.17-7.63,4.17-11.93,1.54A55.33,55.33,0,0,1,1092.15,532c-3.28-3.71-7.25-5-11.92-5.2-10-.45-19,2.48-27.47,7.61s-16.59,10.76-23.36,17.81c-9.56,9.95-14.26,22.65-17.28,35.95-4.18,18.46,3,32.41,17.18,43.72,19.77,15.79,42.33,21.28,67.28,19.18,24.59-2.08,47.68-9.23,69.46-20.4,11.29-5.8,20.32-14.93,29.51-23.61a302.32,302.32,0,0,0,32.45-36.5c3.28-4.28,4.5-9.56,7.19-14.15,10.21-17.47,22.38-33.13,40.53-43,20.17-11,41.6-13.55,63.71-7.51,9.92,2.71,15.76,10.54,18.48,20,3.06,10.7,5.5,21.62,7.52,32.57,4.09,22.2,24,39.31,47.5,40.06,19.47.62,36-6.65,51.71-16.94,9.35-6.13,17.74-13.46,25.93-21a6.72,6.72,0,0,0,2.23-4.73c2.3-22.86,9.37-44.42,16.55-66.14,8.09-24.49,18.29-48.13,27.17-72.28A594.94,594.94,0,0,1,1583,319.88c9.73-16.47,21.14-31.79,30.78-48.29,4.87-8.32,13.13-13.06,22.71-14.91,8.88-1.7,14.75,1.85,17.66,10.54,2.51,7.51,1.58,15.2.45,22.76-3.88,25.81-12,50.46-20.77,74.93-11.39,31.92-23.5,63.57-38.18,94.16-7.69,16-16.6,31.45-25.63,46.79-11.12,18.89-23,37.28-34.88,55.73a79.8,79.8,0,0,1-6.78,8.6c-6.37,7.45-8.24,15.83-5.17,25.15,3.25,9.86,7.46,19.6,14.48,27,8.63,9.17,19.9,13.9,33,14.25,16.24.43,30.49-5.65,45.07-11.45,24.53-9.75,40.69-29.84,59.49-46.72,6-5.44,10.49-12.46,17.28-17.15s14.91-2.59,18.2,5a8.4,8.4,0,0,1-.23,7.65,53.68,53.68,0,0,1-9.72,13.23c-17.75,18-35.9,35.69-57.39,49.32-24,15.23-50.05,24-78.88,22.33-27.19-1.58-47-14.82-60-38.66A127.35,127.35,0,0,1,1493.65,592a152.24,152.24,0,0,1-33.27,20.46c-19.9,9.17-40.43,12.93-62.22,8.79-24.9-4.73-42.11-19.34-53.84-41.19-.62-1.14-.78-2.57-2.74-3.46-3.26,6-6.16,12.31-9.88,18.07-13.11,20.26-29.51,36.5-54.28,41.46-21.43,4.3-37.61-3.59-48-23.25-1.86-3.54-2.61-4.45-5.94-1-10.56,10.82-20.73,22.15-32.89,31.24-17.55,13.11-37.86,19.9-58.92,24.73-7.13,1.63-14.3,3.15-21.53,4.2-42.91,6.25-81.3-1.62-111-36.1A64,64,0,0,1,985,607.94c-11.72,8.59-22.09,18.16-32.94,27.16-20.31,16.86-41.71,32-66.64,41.42-13.54,5.1-27.53,7.83-42.11,5.58-17-2.61-26.36-13.32-27-30.53-.46-12.58,3.45-24.28,6.76-36.12,2.57-9.19,7-17.55,11.13-26.05.83-1.7,2.8-3.78,1.32-5.31-1.32-1.37-3.78-.09-5.67.48a66.19,66.19,0,0,0-20.5,11c-13.31,10-25.82,20.94-36.29,34-2.93,3.66-3.55,7.35-1.35,11.53s4.14,8.33,6.38,12.41c11.52,21,19.9,43.53,31.1,64.69C826.54,751,833.56,786.7,839.3,822.7c3,19,.9,38.25-.43,57.36-1,14.78-1.78,29.61-4.84,44.16-3,14.16-5.88,28.33-10.11,42.21-5.26,17.26-16.07,31.23-26.24,45.62-.77,1.09-1.68,2.08-2.34,3.23-11.2,19.45-29.91,25.61-50.41,27.38-27.89,2.4-50.65-8.83-69-29.23-8-8.95-12.83-20.17-18.09-30.9C652,970.62,645.35,959.06,642,946c-5.52-21.5-7.82-43.17-4.36-65.25,2.37-15.12,5.09-30.15,9.24-44.93,3-10.7,3.19-21.94,7-32.61,15.39-42.92,32.73-85,55.1-124.75,7.33-13.05,15.52-25.61,23.61-38.21,3.13-4.88,3.33-9.22.66-14.32C728.17,616.22,722,607.25,714.75,597.6ZM815.12,866.05a278.42,278.42,0,0,0-1.71-35.16c-3.29-29.57-10.62-58.14-20.87-86.07-10.46-28.5-23.87-55.54-38.82-81.87-2.54-4.46-3.36-4.36-6.4-.07-.58.81-1.09,1.67-1.62,2.52a521.42,521.42,0,0,0-27.33,50.4c-11,22.76-20.86,46-30.1,69.56C678.5,810.21,671.94,836,666.7,862.1c-4.29,21.36-6.22,42.76-2,64.46,5.56,28.55,18.13,53.89,35.47,76.8,17.1,22.59,51.09,24.93,71.83,5.83,10.6-9.77,17.47-22,22.76-35.13C809,938.7,815.12,901.8,815.12,866.05ZM617.78,614.44c-.16,9.59,1.59,18.63,8,26.09,11.32,13.19,32,11.34,42.49-2.71,10.34-13.88,15.6-29.92,19.78-46.4,3.69-14.52,2-28.72-3-42.63-1.88-5.28-5.86-7.73-11.46-7.7a33.12,33.12,0,0,0-19.6,6.23,80.56,80.56,0,0,0-19.56,20.41C624.76,581.8,618.07,597,617.78,614.44ZM1321,526.06c-12.17-.06-23.81,2-34.4,8.46-16.95,10.3-27.07,26.16-35,43.6a29.17,29.17,0,0,0-1.24,20.55c3,10.44,11.67,16.42,22.14,15,6.24-.85,11.64-3.69,16.56-7.57,10.49-8.29,17.84-19.14,24.55-30.44,7.92-13.34,14.7-27.22,18-42.54,1.31-6.14.6-7-5.55-7C1324.34,526.05,1322.67,526.06,1321,526.06ZM360.12,590.44c0,1.16-.08,2.33,0,3.49,1.29,15.19,14.16,23.38,28.49,18.32a43,43,0,0,0,17.48-12c15.51-17,26.31-36.68,33.75-58.3,1.4-4.06,2.72-8.23,2.46-12.68-.1-1.82-.2-3.14-2.64-3.21-10.18-.29-20.3-.24-30.13,2.94-17.25,5.57-29.29,17.43-38.31,32.54C365.9,570.46,360.22,579.43,360.12,590.44Zm1265-293.86c-47.37,75.47-80.35,157.05-104.55,242.4C1554.33,502.47,1628.09,331.23,1625.08,296.58ZM130.43,626c4.95-6.8,4.64-14.1,4.46-21.89C131.06,611.54,129.64,618.42,130.43,626Z"/><path class="cls-2" d="M412.75,322.71c12.63-16.68,25-33,37.33-49.3q23.35-30.87,46.63-61.78a7.76,7.76,0,0,1,7-3.58q78,.18,156,0c4.14,0,5.77.58,5.58,5.29-.43,10.59-.13,10.62-10.6,10.6a85.32,85.32,0,0,0-14.45.88c-7,1.2-11.42,5-12.63,12.14a41.6,41.6,0,0,0-.74,6.94c0,45-.08,90,.15,135,.07,14.08,2,28.12,8.67,40.69,11.53,21.67,36.37,39.42,69.39,32,13.22-3,25.32-8,35.91-16.55a18.21,18.21,0,0,0,4.9-6.18c9-17.92,12.92-37,12.94-56.91,0-52.67.18-105.34-.07-158-.13-26.83,15.66-45.18,37.06-55.67a3.89,3.89,0,0,1,1.38-.57c14-.53,28-.14,41.23,5.42,2.6,1.09,1.74,3.31,1.76,5.16.13,9.82,0,10.71-9.71,9.61-13.74-1.57-22.94,12.89-26.29,24.33a45.4,45.4,0,0,0-1.42,12.88c0,49.5.15,99,0,148.5-.07,17.87-1.69,35.66-8.36,52.48-12.78,32.25-37.16,51.36-70.19,59.55a155.35,155.35,0,0,1-74.3.51c-33-7.93-54.65-28.28-63.36-61.61A138.6,138.6,0,0,1,582,379c.1-44.33,0-88.66.1-133,0-14.24-6.05-21.33-22.16-22-1.82-.08-3.66,0-5.49,0-7.19.09-11.74,3.73-13.52,10.84a75.06,75.06,0,0,0-1.86,18.35q0,121,0,242a120.5,120.5,0,0,0,.86,13.95c1.63,13.95,11.09,21.14,25.25,19.5,1.66-.19,4-1.76,5,.38a27.71,27.71,0,0,1,3.07,9.92c.07,1-1.12,1-1.88,1.28-15.15,5.26-30.46,6.41-45.31-.41-19.45-8.94-28.47-25.33-28.57-46-.34-73.66-.13-147.33-.13-221V266c-4.75,6.16-8.76,11.3-12.69,16.49q-30.33,40-60.59,80c-1.68,2.23-3.57,2.62-6.2,3.09-11,2-17.23-2.89-23.2-12-17.7-27-36.49-53.26-54.85-79.81-.63-.91-1.31-1.79-2.8-3.83v7.41q0,75.26-.05,150.5a129,129,0,0,0,2.15,23.86c1.54,8.25,7.26,12.92,15.73,13.09,11.65.23,11.54.23,11.39,11.72,0,2.83-.77,3.64-3.62,3.63q-46.74-.15-93.5,0c-3.32,0-3.74-1.23-3.75-4.08-.06-11.32-.15-11.27,11.07-11.7,3.31-.13,6.66-.22,9.86-1.38,5.77-2.1,8.85-6.29,8.85-12.45q0-101.75,0-203.49a45.17,45.17,0,0,0-1-8.42c-1.81-9.4-7.77-14.35-17.36-14.69-3.63-.13-8.42,1.55-10.58-.7-2.37-2.47-.4-7.31-.82-11.08-.37-3.31.86-4.14,4.16-4.12,19.83.17,39.66.22,59.49,0,4.24-.06,6.53,1.49,8.78,4.81q36.4,53.71,73.06,107.26C411.33,320.75,411.83,321.42,412.75,322.71Z"/><path class="cls-2" d="M1046.9,363.83c-.11-5.32-.31-10.65-.31-16q0-47.75,0-95.49c0-3.83-.14-7.67-.5-11.48-1.27-13.32-4.93-17.43-18-19.91a138.89,138.89,0,0,0-15.36-1.92c-2.35-.18-3-.85-3.13-3.2-.66-13.05-.72-13.05,12.19-13.05q107.49,0,215-.12c4.56,0,5.43,1.28,5.47,5.53.2,19.48.7,39,1.29,58.44.08,2.85-.44,3.91-3.44,3.74-4.65-.25-10,1.24-13.82-.54-4.27-2-2.87-8.2-4.18-12.48-7-23-12.55-27.63-37.07-29.39-26.47-1.9-53-.59-79.47-.84-6.2-.06-7.26,1.15-7.28,7.41-.08,28.66,0,57.33,0,86,0,1.62-.44,3.43,2.29,3.38,24.31-.47,48.64.64,73-.67,13.31-.72,20.64-7.74,23.68-20.16,1.26-5.17,2.72-10.3,3.72-15.52.45-2.35,1.39-3,3.6-2.89a74.79,74.79,0,0,0,10.48,0c3.67-.36,4.33,1.07,4.31,4.45-.14,27.33-.07,54.66-.07,82,0,1.17.06,2.34,0,3.5-.27,4.43,1.92,10.5-.9,12.84s-8.57.56-13,.86c-2.81.18-4.06-.61-4.57-3.6-1.09-6.39-3.11-12.56-5-18.77-3.16-10.33-10.24-15.09-20.49-16-4.65-.4-9.31-.84-14-.86-19.5-.1-39,0-58.49-.1-3.25,0-4.61.57-4.59,4.28.15,31.33,0,62.66.1,94,0,7.13,1.78,9.38,8.91,9.91,29.46,2.17,58.88,2.85,88.16-2.42,19.91-3.57,32.8-15.88,42.32-32.69,2.22-3.91,4.71-7.75,6.2-11.94s4-5.48,8.22-5.05a55.56,55.56,0,0,0,10,0c3.73-.29,4.42.82,3.39,4.45-6,21.28-11.8,42.64-17.71,64-2.72,9.81-2.78,9.79-12.94,9.8q-110,0-220,.14c-4.12,0-5.37-1-5.24-5.21.32-10.34.1-10.45,10.33-12a120,120,0,0,0,15.6-3.35c5.61-1.61,8.51-5.35,9.64-10.9a81.44,81.44,0,0,0,1.5-15.88c.06-8.83.08-17.66.12-26.49a23.44,23.44,0,0,0,6-7.19c2.35-3.91,5.34-5.38,9.85-4.8,3.16.4,6.42.07,10,.07l-3.44-5.84c2.54-2.55,5.72-5.12-1.28-7.49,4.46,1.09,3.91-2.4,5.1-4.16,1.77,3.06,9.52,5.13,12.16,3.5,2.38-1.47,2.86-10.39.77-14.49-1-1.9-7.77-1.93-11.07,0,8,1.91,8,1.91,5.29,6.47l-1,.25a24.91,24.91,0,0,0-10.48-6.87l-.23.17-.23-.16a10.19,10.19,0,0,0-10.15,0c-1.67.89-3.16,1.47-3.85-.9C1053.05,364.32,1050.3,363.58,1046.9,363.83Zm30-28.19-.05.09c.49,0,1.37,0,1.42-.15,1.31-4.56,4.43-8.1,6.74-12.1l.3.07a1.29,1.29,0,0,0,1.59-.92c0-.54.08-1.08.13-1.63,1.26-2.36,2.51-4.81-2.1-3.93-1,.19-1.73.21-1.73-.82,0-3.18-2.17-5.37-3.24-8-1.66-4.13-5.5-3.07-8.29-4.15-2.39-.93-3.23,1.65-3.57,3.69-.23,1.38-.85,2.14-2.28,2s-1.25-1-1.26-2.11c0-2.93-2.33-1.87-3.6-1.49-2.62.81-5.25,6.92-4.43,9.65.17.56-.11,1.18.64,1.65,2.38,1.49,2.49,2.28.77,3.74-3.21,2.7-2.61,7.19,1.27,9.52v0c.58,2.32-3.85,1.7-2.46,5a9,9,0,0,1,10.08-1.11,15.11,15.11,0,0,0,7.63,1.13.51.51,0,0,1,.59.39c.33.46.69,1.31,1,1.29C1077.12,337.34,1076.94,336.4,1076.89,335.64Zm43.72,4.9a3.49,3.49,0,0,0,3.17-3.84,3.43,3.43,0,0,0-3.83-3.61c-2.19.1-3.82,1.49-3.66,3.82C1116.45,339.07,1117.82,340.49,1120.61,340.54Z"/><path class="cls-2" d="M916.53,492.13c23.36-2,40.12-16.42,43.06-38,2.26-16.6-5.28-29.76-16.69-40.92-8.88-8.69-19.86-14.54-30.3-21.07-19.89-12.45-40.27-24.14-59-38.34-18.32-13.88-32.1-30.93-36.61-54.13-10.44-53.66,32.6-101.43,87.12-97.46,16.15,1.17,30.76,6.33,45.51,12.19,11.53,4.59,10.59,7.67,15.68-7.61A118.43,118.43,0,0,0,970,184.35c.34-2.62,1.2-3.58,4-3.62,12-.15,12-.27,12,11.68,0,32.5-.06,65,.08,97.5,0,3.76-.68,5.14-4.82,5-10-.31-10-.07-12.57-9.86-8.11-30.73-32.19-52.77-62-56.78-24.34-3.27-45.5,11-50.12,33.94a33.1,33.1,0,0,0,5.95,27c8.24,11.23,19.6,19,31.09,26.32,18.78,12,38,23.4,56.85,35.27,15.29,9.61,29.87,20.1,39.92,35.61.14,1.77-1.46,2.46-2.27,3.64A5.72,5.72,0,0,0,988,397c2.37,3.62,5.68,2.44,8.9,1.78,23.65,57.81-17.16,118.91-79.69,119.25-5.48,0-11-.33-16.44-.51-.54-6,1.65-9.82,7.72-11.88,5.14-1.73,9.87-4.63,15-7.14-2.38-2.5-5-3.12-7.31-4.38C914.33,493.05,916.4,492.78,916.53,492.13Zm45.08-92.36c2.79.32,4.42-1.77,4.47-4.94,0-2.64-2.63-3.93-4.41-3.77s-5.36.86-4.73,3.4C957.36,396.15,956.55,400.32,961.61,399.77Zm17.83,18.07c-.05-2.55-1.79-3.58-3.91-3.58a3.27,3.27,0,0,0-3.53,3.43c0,2.34,1.2,3.84,3.61,3.85S979.31,420.29,979.44,417.84Z"/><path class="cls-3" d="M1804.3,837.07c-33.17,0-57-24.17-57-57.61s24.19-57.56,57.24-57.5c33.31.06,57.4,24.43,57.35,58C1861.85,813.08,1837.6,837.12,1804.3,837.07Zm-.06-12.17c24.68.14,43.47-19.32,43.48-45,0-26.23-18.42-45.64-43.39-45.72-24.12-.07-42.77,19.46-43.06,45.11S1779.7,824.77,1804.24,824.9Z"/><path class="cls-3" d="M1091.26,836.66c-.9.23-1.06.3-1.22.31-14.45.69-14.44.68-21.93-11.74-6.6-11-13.36-21.84-19.75-32.92-1.9-3.29-3.9-4.59-7.8-4.49-11.34.3-11.35.09-11.35,11.41,0,11-.14,22,.08,33,.07,3.69-.55,5.23-4.79,5-8.42-.42-8.43-.14-8.43-8.78,0-32,.09-63.94-.13-95.9,0-4.33,1.23-5.18,5.25-5,11.14.38,22.3.26,33.45.44a49.31,49.31,0,0,1,13.72,2.41c12.33,3.81,18.59,11.88,19.35,24.84.79,13.46-5.07,23.6-16.56,28.6-1.06.47-2.16.85-3.26,1.22-7,2.34-7,2.32-3.17,8.49C1073.5,807.74,1082.26,822,1091.26,836.66Zm-62-78.88c0,5,0,10,0,15,0,1.89.15,3.12,2.59,3.08,8.8-.14,17.66.53,26.35-1.15,6.94-1.34,13-4.18,15-12,2.62-10.6-2.31-19-12.91-21.52-9.49-2.28-19.19-1-28.8-1.3-2.32-.08-2.18,1.43-2.17,3C1029.21,747.82,1029.2,752.8,1029.21,757.78Z"/><path class="cls-3" d="M1223.48,837.07c-4.77,0-8.89-.14-13,0-2.47.12-3-1.41-3.7-3.18-2.75-6.76-5.73-13.44-8.36-20.26-1-2.57-2.29-3.57-5.09-3.55q-23.71.21-47.44.06c-2.58,0-3.86.86-4.79,3.24-2.6,6.65-5.59,13.15-8.15,19.82-1.11,2.9-2.61,4.19-5.83,3.89s-6.62-.07-10.73-.07c3-6.86,5.7-13.2,8.48-19.52,12.67-28.73,25.5-57.4,37.87-86.26,2-4.77,5.23-3.54,8.44-3.67,3-.13,5.78-.63,7.49,3.61C1185.8,749,1193.5,766.44,1201,784S1215.76,818.88,1223.48,837.07ZM1147.65,798c14.13,0,27.43-.12,40.73.08,3.91.05,3-1.64,2.11-3.84-6.61-16.28-13.2-32.57-20.16-49.74Z"/><path class="cls-2" d="M1362.13,782.38c0-16.83.11-33.65-.09-50.47,0-3.57,1-4.41,4.47-4.38,20,.14,40,.18,60-.07,4.24-.05,4.86,1.49,4.73,5.14-.27,7.22-.08,7.24-7.38,7.24-14.83,0-29.65.11-44.47-.07-3.34,0-4.24.92-4.15,4.2.24,8.32.3,16.66,0,25-.14,3.87.73,5.14,4.84,5.06,14.16-.27,28.32,0,42.48-.2,3.84-.06,5.54.83,4.86,4.86a14.8,14.8,0,0,0,0,4c.36,2.92-.93,3.55-3.7,3.53-14.49-.14-29,0-43.47-.15-3.81-.06-5.19.74-5,4.9q.54,14.47,0,29c-.15,4.34,1.34,5.15,5.34,5.1,16.16-.23,32.32,0,48.47-.17,3.8-.05,5.59.76,4.93,4.83a21.72,21.72,0,0,0-.05,4.49c.09,2-.5,3-2.81,3q-33-.11-66,0c-3.64,0-3-2.24-3-4.3Q1362.11,807.62,1362.13,782.38Z"/><path class="cls-2" d="M862.13,507c-5.72-1.71-11.36-3.8-17.19-5-6.52-1.38-7.93-.07-9,6.47a205.24,205.24,0,0,0-2.3,24.36c-.11,2.95-1,3.87-4.1,3.86-11.48,0-11.48.13-11.48-11.35,0-35.33.12-70.66-.15-106,0-4.76,1.53-5.41,5.58-5.33,9,.19,9,0,11,9,2.14,9.57,4.45,19.09,8.1,28.24,4,10,10.88,17.77,19.1,24.49-3.7-.31-4.72.78-2.61,4.26,2,3.24,3.07,7.08,5.3,10.1C869.33,496.72,866.75,501.92,862.13,507Z"/><path class="cls-3" d="M1676.31,837.09c-35.38,0-60.89-29.72-55.93-65.21,4.34-31,27.14-50.84,57.84-49.85,13,.42,24.76,4.64,34,14.44,1.94,2,2.35,3.44-.5,4.78a8.45,8.45,0,0,0-1.19.9c-2.3,1.65-4.45,4.29-7,4.67-2.76.43-4-3.38-6.16-5.07-12.42-9.72-29.8-10.09-43.84-.67-26.09,17.49-26,60.3.07,77.39A39.84,39.84,0,0,0,1704,813c2.48-2.58,3.89-3.35,6.93-.56,6.87,6.32,7.11,6.17-.11,12.57C1701,833.74,1689.22,837.1,1676.31,837.09Z"/><path class="cls-3" d="M1282.86,817.59c6.87-17.78,13.21-34.15,19.54-50.53,4.5-11.62,9.12-23.2,13.43-34.89,1.27-3.44,2.89-5.19,6.77-4.66,2.74.37,5.57.07,9,.07-5.13,13.23-10,25.85-14.93,38.45q-12.78,32.75-25.64,65.45c-.76,1.92-1,5-3,5.34-3.72.62-7.63.29-11.44,0-1.21-.08-1.28-1.77-1.69-2.84q-19.8-51.64-39.64-103.29c-.87-2.26-.86-3.44,2-3.12a8.34,8.34,0,0,0,1,0c10.82-.29,10.78-.27,14.54,9.79C1262.63,763.7,1272.5,790,1282.86,817.59Z"/><path class="cls-2" d="M946.12,788.51c0,14.82-.07,29.64.07,44.45,0,3-.38,4.29-3.92,4.2-9.2-.23-9.21,0-9.21-9.42,0-27.8-.08-55.61.11-83.41,0-3.89-1.1-4.68-4.72-4.58-9.15.26-18.31,0-27.46.18-3.25.08-4.19-.79-4.13-4.08.16-8.27,0-8.26,8.41-8.25,24,0,48,.11,71.92-.08,4,0,5.93.76,5.18,5.07a13.34,13.34,0,0,0,0,4c.36,2.68-.75,3.37-3.34,3.33-9.32-.15-18.65.1-28-.15-3.74-.1-5.07.7-5,4.81.28,14.64.11,29.29.11,43.94Z"/><path class="cls-3" d="M1472.35,781.86c0-16.65.1-33.3-.08-50,0-3.48.83-4.49,4.38-4.42,8.91.18,8.91,0,8.91,8.83,0,27.64.08,55.28-.1,82.92,0,4.28.67,6,5.53,5.81,13.31-.4,26.64,0,40-.24,3.72-.07,4.85.9,4.7,4.65-.3,7.65-.1,7.63-8,7.62-17,0-34-.09-50.95.1-3.47,0-4.43-.83-4.39-4.37.2-17,.09-34,.09-50.95Z"/><path class="cls-4" d="M862.13,507c4.62-5.1,7.2-10.3,2.3-16.9-2.23-3-3.33-6.86-5.3-10.1-2.11-3.48-1.09-4.57,2.61-4.26,5.57,2.3,11.77,1.73,17.4,3.77,1.66.6,2.61-.19,3.78-1.42,4-4.18,8.19-8.16,12.32-12.2,1-1,1.76-2.64,3.62-1.83,1.63.71.92,2.29,1.07,3.51.67,5.42,1.23,10.84,1.93,16.25.34,2.68,7.95,7.87,11.74,8.13,1,.07,2,.11,2.93.16-.13.65-2.2.92-.29,2,2.27,1.26,4.93,1.88,7.31,4.38-5.17,2.51-9.9,5.41-15,7.14-6.07,2.06-8.26,5.89-7.72,11.88-1.47,3.83-.76,7.91-1.36,11.85a15.53,15.53,0,0,1-1.9,4.84c-5.16-4.63-9.32-10.22-14.13-15.22-3.39-3.51-6.43-3.57-10.16-2.36-4.28,1.39-8.7,1.58-13.09,2-2.68.27-3.23-.83-2.12-3.23C859.35,512.59,861.83,510.34,862.13,507Z"/><path class="cls-4" d="M1644.56,55.1c-6.17,3.1-11.4,6.33-17,8.37-3.88,1.39-5.14,3.73-5.67,7.22-.7,4.6-1.34,9.2-2.19,13.78-.31,1.7-.33,3.63-1.87,5.21-5-5.26-9.92-10.34-14.76-15.46-1.17-1.24-2-1.45-4-1.15-6.08.89-12.19,1.47-18.23,2.7-2.85.58-3.74-.54-2.21-3.26,2.5-4.48,4.72-9.12,7.39-13.49,2.34-3.83,1.53-7.29-.35-10.83-2-3.74-4.14-7.39-5.94-11.21-.58-1.23-2-2.94-.82-4.14s3-.44,4.69-.06c5,1.15,9.93,2.12,14.92,3.11a6.29,6.29,0,0,0,6.2-2.21c3.81-4.06,7.83-7.92,11.7-11.92.7-.73,1.27-1.67,2.39-1.49s1.24,1.42,1.39,2.36c.61,3.77,2,7.62,1.59,11.3-1,9.74,6,12.58,12.68,15.72A65.52,65.52,0,0,1,1644.56,55.1Z"/><path class="cls-4" d="M1968.87,739.5c-2.95-5.65-2.68-11.27-3.65-16.63-.8-4.41-1.8-7.93-7.1-9.56-4.62-1.42-8.77-4.49-13.49-6.11a3.39,3.39,0,0,1-2-2c-.28-1.35,1.32-1.09,2.08-1.57a98.18,98.18,0,0,1,15.18-8.26c2-.81,3.15-2.35,3.48-4.93.71-5.59,1.62-11.16,1.87-16.8.14-3.09,1.36-4,3.79-1.73,4.24,3.9,8.49,7.81,12.53,11.91,1.72,1.74,3.59,2.75,5.74,1.84,4.32-1.83,9.15-1.28,13.45-3.27,1.71-.79,4.31-1.18,5.69.25s-.57,3.27-1.1,4.94c-1.35,4.3-4.39,7.69-5.9,12a10.37,10.37,0,0,0,1.82,10.47c2.63,3.3,3.84,7.25,6.15,10.65,1.44,2.13.84,4.59-2.48,4-4.57-.83-9.31-.38-13.75-2-3.75-1.38-6.74-1-9.5,2.56C1977.85,730.12,1973.36,734.55,1968.87,739.5Z"/><path class="cls-4" d="M1279.92,312.33c.31,5.7,4.67,6.21,8.82,6.63,5.76.58,11.57.83,17.7,1.25-.76,3.31-3.26,5.31-5.26,7.08-3.26,2.9-4.42,7.65-9,9.44-1.49.58-1,2.92-.56,4.6q2,7.69,3.9,15.43c.39,1.6,1.2,3.67.11,4.79-1.31,1.35-2.93-.29-4.36-.95-4-1.84-8.3-3.3-12.14-5.51-6.35-3.64-10.06,1.93-14.74,3.85-2.68,1.1-4.88,3.32-7.42,4.82-.87.51-1.79,1.84-3.07.91-1.1-.79-.9-2.08-.8-3.23.38-4.46.27-9.06,1.35-13.35,1.51-6-1.68-9.12-5.74-12.26-3.26-2.51-6.29-5.33-9.5-7.92-2.58-2.1-1.8-3.35,1-3.83,3.9-.66,7.6-2.06,11.65-2.39,7.92-.65,10.52-3.52,12.16-11.9,3-1.68,2.38-5.18,3.84-7.67,1.87-3.19,2.9-3.32,5.1-.24C1275.42,305.29,1275.89,310,1279.92,312.33Z"/><path class="cls-4" d="M1887.83,328.88c.79-3.32,3.07-5.89,4.87-8.58a7.08,7.08,0,0,0,.41-7.88c-1.73-3.54-3.56-7-5.34-10.55-1-6.75-1-6.74,5.87-6.21,1.14.09,2.28.07,3.42.09,2.64.95,5.54.32,8.16,1.81,2.28,1.3,4.06-.47,5.61-2,4.7-4.74,9.38-9.5,14.39-14.59,2.41,5.65,2.64,10.76,2.83,15.87.21,5.28,1.43,9.61,7.32,11.56,3.84,1.27,7.29,3.69,11,5.46,1.37.66,3.14,1.14,3,2.82-.11,1.5-1.81,2.44-3.16,2.82-4.5,1.27-8,4.54-12.46,5.81-4.12,1.18-5.21,4-5.73,7.74-.82,6-1.91,12-3.07,19-4.51-4.78-8.35-8.61-11.91-12.69-2.88-3.29-6.17-4.7-10.53-4-3.11.5-6.29.59-9.43.86-7.64-.07-7.64-.07-5.24-6.84A1.29,1.29,0,0,0,1887.83,328.88Z"/><path class="cls-4" d="M1069.08,391.85l3.44,5.84c-3.6,0-6.86.33-10-.07-4.51-.58-7.5.89-9.85,4.8a23.44,23.44,0,0,1-6,7.19c-1.31-3.7-3.49-7-3.9-11.13-.56-5.55-6.2-4.52-9.43-6.58-1.73-1.1-5-1.08-5.33-3-.47-2.71,3-3.21,4.81-4.25,4.69-2.72,8.27-5.65,7.48-11.83-.28-2.2-1.28-5,.35-6.73,2.3-2.49,3.28,2.74,5.7,1.56,2.92,2.08,4.72,6.43,9.2,5.37,4.28-1,8.4-2.66,12.6-4l.23.16.23-.16c.47,3.12-1,5.87-2.41,8.27C1062.71,383.23,1064.5,387.72,1069.08,391.85Z"/><path class="cls-4" d="M1811.48,538a3.88,3.88,0,0,1-3-2.55c-3.45-6.83-9.34-6.19-15.37-5.38-.89.12-1.66,1.63-2.58.48s-.26-2.17.61-3.09a4.76,4.76,0,0,0,.48-.86c3-5.11,4.43-10.17.45-15.59-.67-.92-1.54-2.84-.33-4.17,1-1.11,2.54-.8,3.72-.15,5.64,3.13,9.74,1,13.34-3.56,1-1.23,1.78-3.26,3.73-2.82,2.21.5,1.54,2.8,1.56,4.24.09,6,2,10.5,8.44,12.2,1.17.31,3.17,1.14,2.89,2.87-.19,1.21-1.82,1.68-3.06,2.24-5,2.24-9.49,4.85-8.75,11.59A4.31,4.31,0,0,1,1811.48,538Z"/><path class="cls-4" d="M1850,214.46c-.14-.41-.28-.62-.23-.7,4.4-6.57,6-13.23,1-20.33-.8-1.14-.2-2.28,1.54-2.05.49.06,1,.19,1.47.24,5.81.65,11.63,1.49,15.37-4.78.6-1,2.14-1.49,3.28-2.23a6.52,6.52,0,0,1,1.66,5c-.56,7,3.84,10,9.34,12.16,1,.41,2.5.37,2.28,2a2.23,2.23,0,0,1-2.1,1.83c-7.86,1.08-10.11,6.7-11,13.46-.3,2.48-1.65,4.44-3.49,1.66-4.12-6.22-9.41-8.07-16.39-6.23A9.71,9.71,0,0,1,1850,214.46Z"/><path class="cls-4" d="M1394.68,217.07a2.63,2.63,0,0,1,.5.06c6.54,2.46,12.09,1.24,16.59-4.3.73-.9,1.59-2.53,3-1.65,1.14.69,1.36,2.31,1.16,3.64-.81,5.63,1.23,9.22,6.62,11.61,3.82,1.7,3.54,5.82-.37,7-5.19,1.59-7,5-7.33,9.94-.11,1.57.18,3.71-1.72,4.29s-3.07-1.29-3.87-2.59c-3.33-5.4-8.13-6.07-13.72-4.72-1.1.26-2.45,1-3.27,0s-.1-2.52.26-3.76a3.27,3.27,0,0,1,.77-1.27c4.53-4.64,2.91-9.2-.17-13.73a4.24,4.24,0,0,1-.72-4.22C1392.88,216.41,1393.92,217.14,1394.68,217.07Z"/><path class="cls-4" d="M1760,45.05l-.27-1.17c-.82-5.93-.37-6.53,5.35-4.7s8.62-.9,11.05-5.27c1.33-.84,2.3-2.64,4.27-1.85s1.36,2.67,1.15,3.91c-1.1,6.52,2.43,9.89,7.92,11.68,4.25,1.39,4,2.91.75,5.15-.27.19-.48.54-.77.61-6.83,1.6-8.35,6.82-8.86,12.81-.09,1.09-.25,2.54-1.63,2.79s-2-.87-2.74-1.81c-5-6.68-7.79-7.65-15.49-5.5-.84.24-1.38,2.31-2.66.39a3,3,0,0,1-.16-3.23c.74-1.64,2.36-2.9,2.16-4.94,1.64-.88,3.05-1.88,2.08-4.09-.1-.65-.19-1.3-.29-2C1762.26,46.27,1761,45.75,1760,45.05Z"/><path class="cls-4" d="M1975.71,541.94c-1.71-.23-1.54-1.86-1.9-3-1.32-4.12-3-7.79-8.24-7.71-2.08,0-2.7-1.74-3.14-3.33-.54-2,1.65-1.95,2.48-2.43,3.61-2.12,7.75-3.37,4.62-9.19-.83-1.55,1.68-3.23,3.89-2.61a7.92,7.92,0,0,1,3.36,2c2.38,2.39,4.73,3.45,7.83,1.2a3.94,3.94,0,0,1,4.27-.22c1.6,1,.07,2.38-.12,3.56-.62,3.84-2.33,7.69,1.78,10.9,1.55,1.21,1.44,3-1.1,3.46a21.9,21.9,0,0,1-4.88.8c-3.29-.16-5.38,1.22-6.5,4.2C1977.64,540.68,1977.17,541.7,1975.71,541.94Z"/><path class="cls-4" d="M1455.4,122.82a32.87,32.87,0,0,1-1.79-5c-.68-3.94-2.41-6.39-6.85-6.11a2.53,2.53,0,0,1-2.83-1.61c-.39-1.43.91-2.15,1.82-2.68,4-2.36,6.52-5.23,5.78-10.42-.45-3.13,1.87-3.48,3.69-1.56,3.67,3.87,7.38,4.4,11.8,1.47,1-.65,2.84-.5,2.6,1s2.5,2.17.37,3.62c-3.62,2.45-2.33,5.13-.41,8,1,1.54,3.22,3.15,1.93,5.26-1.1,1.79-3.4.82-5.1.74a6.71,6.71,0,0,0-6.4,3A13.22,13.22,0,0,1,1455.4,122.82Z"/><path class="cls-4" d="M1796.8,575.51c-1.34-6.34-3.63-11.35-10.43-12.57-1.7-.31-2-1.62-.32-2.77,1.09-.73,2.13-1.53,3.25-2.22,2.76-1.69,4.66-3.64,3.34-7.29-.49-1.34-.67-3.2.75-4.15,1.6-1.07,3.11.36,3.84,1.41,3,4.29,6.66,3.49,10.46,1.74,1.07-.5,1.84-1.37,3.07-.45s.44,2.09.28,3.17c0,.33,0,.74-.22,1-3.07,3.7-2.14,6.79.94,10.1,2.73,2.94,1.59,5.11-2.34,4.3C1802.83,566.37,1801.46,572.75,1796.8,575.51Z"/><path class="cls-4" d="M1851.64,435.41c3.94,1.52,7.74,1.15,10.83-3.15.79-1.1,3.94-1.8,3.47,1.56-.66,4.74,1.89,7,5.61,8.77,1.25.61,3.1,1.06,3,2.91s-1.87,2.12-3.3,2.42c-4,.83-5.16,3.67-5.65,7.21-.22,1.58,0,3.69-1.88,4.27-1.67.52-2.7-1.26-3.42-2.38-2.42-3.78-5.86-3.71-9.65-3.2-1.22.16-2.85.89-3.75-.33s.57-2.43,1.16-3.48c2.06-3.64,3.72-7.12,0-10.79a2.6,2.6,0,0,1-.32-3.26C1848.56,434.92,1849.94,435.49,1851.64,435.41Z"/><path class="cls-4" d="M2028.92,623.38a10.75,10.75,0,0,1-2.39-5.22c-.53-3.52-2-5.86-6-6-1.26,0-2.68-.4-3.23-1.92-.77-2.16,1.29-2.57,2.32-3.25,3.44-2.28,5.67-4.93,4.64-9.4a2.71,2.71,0,0,1,.93-3.14,2.29,2.29,0,0,1,3.07.9c2.83,4.5,6.83,3.77,10.89,2.56,3.72-1.1,5,.25,3.12,3.49-2.48,4.22-1.48,7.43,1.56,10.72,1,1.08,3.25,3-.47,3.75C2034.57,617.67,2034.57,617.67,2028.92,623.38Z"/><path class="cls-4" d="M1350.28,243.12c-1.67-.82-2.07-2.58-2.6-4-1.35-3.7-3.48-5.9-7.72-5.48-1.29.13-2.83-.05-3.44-1.45s.39-2.31,1.34-2.95c3.79-2.56,4.76-5.9,3.77-10.33-.63-2.83-.26-5.62,3.83-2.81,3.51,2.41,7,3.18,11,.46,2.61-1.78,4.27-.12,3.49,2.74-1.35,4.95-.51,8.58,4.47,10.94,1.94.92,1.37,2.4-.42,3.22C1354.27,237.89,1354.27,237.88,1350.28,243.12Z"/><path class="cls-4" d="M1712.16,162.43c2.69.72,3.85,2.17,5.29,3.2,2.73,1.93,5.37,4,8.77.85a3.09,3.09,0,0,1,4.14.28c1,1.14.13,2.56-.55,3.67-2.17,3.55-2.46,6.67,1.24,9.56,1,.79,2.1,2.53,1.09,3.94a3.57,3.57,0,0,1-3.13.95c-4.63-1.34-7.19,1.38-9.71,4.48-.68.84-.94,2.38-2.4,2.21s-1.62-1.69-1.68-2.69c-.34-5.44-4.16-7.41-8.53-8.87-1.94-.64-3.45-2.4-1.16-3.18C1712.71,174.37,1712.74,168.86,1712.16,162.43Z"/><path class="cls-4" d="M1839.48,141.38c-5.65-2.59-7.8,1.57-9.77,6-.23.52,0,1.43-1.07,1.13s-2-.71-2.16-1.82c-.78-5.92-4.17-9.29-9.8-11.07-2.86-.91-.33-2.78.43-3.12,4.66-2.13,7.17-5.22,6.54-10.68-.3-2.66,2.15-2.62,3.33-1.38,3.43,3.6,7,4.58,11.55,2.24,2-1,2.74.32,2.2,2.28-1.28,4.63-1.77,8.9,2.25,12.84C1844.83,139.64,1843.21,141.44,1839.48,141.38Z"/><path class="cls-4" d="M1485.21,148.29c3.46,1.38,7.26,1.49,9.85-3.61a2,2,0,0,1,3.64,1.4c-.31,5.41,2.57,8.2,7,10.08.94.39,2,.93,2,2,.11,1.66-1.47,1.42-2.47,1.81-4.09,1.59-7.22,3.85-7,8.95.06,1.08.2,3-1.57,3.2a2.9,2.9,0,0,1-2.76-1.82c-2-4.19-5.55-4.6-9.63-3.87-1.21.22-2.86.71-3.71-.58s.24-2.71,1-3.55c2.88-2.94,2.21-5.56.36-8.83C1481.21,152,1478.13,147.71,1485.21,148.29Z"/><path class="cls-4" d="M1753.92,96.82a28,28,0,0,1-3.72,2.51c-4.18,1.87-6.61,4.67-6.1,9.57.29,2.83-1,4-3.27,1.69-3.34-3.36-7.21-3.72-11.44-2.66-3.08.78-3.9-.57-2.53-3,2.34-4.16,2.29-7.79-1.28-11.15-.91-.86-1.47-2-.85-3.1s2.07-1,3.15-.76c4.31.87,7.59-.16,9.91-4.22,1.86-3.26,3.38-2,4.7.75C1745.47,92.59,1746.6,93.57,1753.92,96.82Z"/><path class="cls-3" d="M1905.08,821.92a11.14,11.14,0,0,1-11.31,11.4A11.4,11.4,0,0,1,1882,821.77a11.85,11.85,0,0,1,12-11.55A11.57,11.57,0,0,1,1905.08,821.92Z"/><path class="cls-4" d="M1648.09,204.81c.09.36.18.71.26,1.07,0,1.83-.83,2.85-2.75,2.51-6-1.07-8.7,2.65-10.61,7.45l0,0-2.91-.09c.26-5.35-1.4-9.27-7.27-10.48-1.25-.25-3.25-.72-3.14-2.61.08-1.29,1.24-2.21,2.59-2.72,3.36-1.27,4.55-3.78,4.59-7.34,0-1.81-.36-4.06,1.69-5.81,3.89,5.2,8.74,6.87,14.92,4,2.61-1.22,2,.7,1.75,2.31-.43,2.93-3.55,5.52-1.16,8.82A3.53,3.53,0,0,0,1648.09,204.81Z"/><path class="cls-4" d="M1949.17,255.9c-.81,1.72-.73,3.52-3,3.28-2.6-.28-4.11,1.2-4.67,3.54-.86,3.57-2.41,2.39-4,.64-.73-.84-1-2.13-1.72-2.94-3.59-3.79-4.74-6.92-4.3-11.93.09-1,.22-2.52,1.33-2.17,4,1.24,10.07-2.71,10.64-1C1944.9,249.33,1945.84,253.25,1949.17,255.9Z"/><path class="cls-4" d="M1467,214.17c-1,3,.75,4.46,2.54,5.72,2.14,1.49,1.82,3.11-.39,3.36-3.4.39-4.26,2.72-5.3,5.17-.44,1-.5,2.5-2,2.51s-1.66-1.47-2.19-2.41c-1.31-2.3-2.9-4-5.78-4s-2.58-1.69-1.23-3.09c2-2.06,2.55-4.06,1.2-6.65a2.71,2.71,0,0,1,.51-3.24c1.37-1.45,2.11.35,2.85.75a5.46,5.46,0,0,0,6.06-.25C1466.87,209.58,1467.49,211.08,1467,214.17Z"/><path class="cls-4" d="M1565.25,117c-.45,1.7-1.39,2.55-3.24,2.35-2.52-.29-4.29.28-3.83,3.48a2.26,2.26,0,0,1-1.41,2.4c-1.24.5-1.82-.46-2.45-1.21-1.71-2-2.33-5.81-6.69-3.2-1,.61-3.14-2-1.48-3.9,2.11-2.4,2.34-4.84,1.75-7.82-.55-2.8,1.38-3,3.4-2.26.87.33,1.69,1.73,2.56,1.14,6.17-4.18,6.59.44,7.6,4.68C1561.93,114.57,1564.81,114.79,1565.25,117Z"/><path class="cls-4" d="M930.92,444.89c.17-3.27,2.66-5.87,2.7-8.5.06-5,.23-8.05,6.21-4.94.37.19,1.3-.32,1.77-.73,4.33-3.78,5.8-1.84,5.41,2.86-.18,2.12,1.2,2.94,2.24,4.09.74.82,2.28,1.2,1.71,2.64-.49,1.25-1.9,1.25-3,1.27-2.56,0-3.71,1.08-4.19,3.76-.56,3.12-2.52,3.45-4.23.68C937.11,442.15,934.37,441.85,930.92,444.89Z"/><path class="cls-4" d="M1292.8,279.63c3.25.66,5.58,1.07,8.11-.9,2.14-1.67,3.52.43,3.2,2.48a6.11,6.11,0,0,0,2.81,6.41c2.76,1.92.53,3.12-.73,3.33a7.21,7.21,0,0,0-6.09,5c-.58,1.55-2.64,2.15-3,.83-1-3.81-4.33-3.63-6.77-4.72-2.21-1-2.74-2.62-1.12-3.5,3-1.65,2.06-3.65,1.55-5.88S1290.55,278.91,1292.8,279.63Z"/><path class="cls-4" d="M1435.89,169.37c1.68.87,3.38.93,5.45-.74,1.16-.93,4.17-1.47,4.69,1.56.48,2.74.72,5.28,3.27,7.22,1.22.92.26,2.39-1.26,3-1.37.54-3.71.9-3.93,1.77-2,7.8-4.1,2.12-7.63,1.07-6.29-1.85-5.81-4-3.19-8.33.5-.82.16-2.32-.14-3.42C1432.5,169.12,1433.65,168.91,1435.89,169.37Z"/><path class="cls-4" d="M998.39,375c2.26-3.21,4.8-6.22,3.22-10.51-.48-1.32.85-1.94,2.29-1.29.76.34,1.64.42,2.36.81,3,1.72,5.37-5,7.84-1.13,1.4,2.22.44,5.82,3.27,7.9,1,.72,2.08,2.7-.08,3-4.48.57-5.28,8.27-8.57,6.51C1002.32,376.87,1002.8,376,998.39,375Z"/><path class="cls-4" d="M1896,543.05c-3.32,2.2-7.09,3.47-8.26,7.68-.38,1.38-1.83,1-2.21,0-1.21-3.24-4.09-3.63-6.79-4.28-2.24-.53-2.84-1.34-1.27-3.33,1.71-2.16,2.58-4.48,1.56-7.4-.93-2.67,0-4,3-2.63,2.29,1.06,4.44,2.27,6.66-.41,1-1.17,3.1-.82,2.89.84C1891,537.75,1894,540.14,1896,543.05Z"/><path class="cls-4" d="M1828,35c-.14,2.35.32,3.91,2.37,5.21,3.34,2.11,1.18,4.57-1,4.87-3.08.42-4.29,2.2-5.15,4.43-1.08,2.83-2.17,2.15-3.13.19-1.34-2.75-2.83-4.41-6.39-4.08-2.93.28-2.92-1.92-1.08-3.41,2.29-1.87,3.15-3.72,1.59-6.38a2.26,2.26,0,0,1,.75-3.07,2.14,2.14,0,0,1,2.76.14c2,1.62,3.53,1.31,5.69-.24S1829.13,31.17,1828,35Z"/><path class="cls-4" d="M1888.61,97.34c3.07.37,5.82,1.67,8.66-.84,1.47-1.31,2.58.19,2.35,2.17-.33,2.76.16,5,2.84,6.78,3,2,0,3.43-1.28,3.63-2.89.45-4.28,1.87-5.16,4.51s-2.82,2.5-3.72.2c-1.14-2.93-2.77-4.24-5.9-3.93-1.06.1-2.43.09-2.66-1.56-.21-1.5.81-1.87,1.91-2.45,2.28-1.21,3-2.51.88-5S1886.37,97.46,1888.61,97.34Z"/><path class="cls-4" d="M1729.34,22.31c-1.84-5.51-3.73-8.66-8.57-8.15-1.16.13-2-.23-2.12-1.48-.09-1-.08-2,1.09-2.52,2.54-1,3.48-2.41,1.46-4.87a2.33,2.33,0,0,1,0-3.19c.81-.85,2-.54,2.82-.16,2.44,1.05,4.65,1.55,6.59-1a2.51,2.51,0,0,1,3.2-.63c1.13.62.34,1.8.16,2.71-.49,2.43.58,4,2.33,5.61.92.86,3.23,3.34.74,3.83C1732.1,13.45,1731.2,17.35,1729.34,22.31Z"/><path class="cls-4" d="M1394.74,302.94c-2.68,2.88-5.63,4.71-4.63,9.15.78,3.42-2.1,2.18-3.41,1.29-2.26-1.53-4-2.33-6.61-.33-2,1.55-3,0-2.66-2.16.18-1.3,1.17-3.12.64-3.77-7-8.72,4.74-7.35,6.23-11.52.67-1.87,2.49-.15,2.87.93C1388.41,300,1391.33,301.4,1394.74,302.94Z"/><path class="cls-4" d="M1822.23,203.83c-.41,1.77-.07,3.71,2.7,4.41a1.86,1.86,0,0,1,1.64,2.12c-.11,1.17-.93,1.69-2,1.91-2.95.62-5.25,1.81-5.46,5.34a2.5,2.5,0,0,1-1.55,1.69c-.9.25-1.45-.71-1.7-1.49-1-3.12-2.82-4.43-6.24-4.2-2.79.19-2.28-2-1.35-3.44,1.53-2.33,2.35-4.48,1.51-7.37-.93-3.23,1.58-3,3.15-2,2.09,1.32,3.59,1.74,5.77.11C1821.29,199,1823.11,199.33,1822.23,203.83Z"/><path class="cls-4" d="M1120.9,309.51c2.41-3.3,4.38-6.08,2.75-10.12-.88-2.17,1.47-2.3,2.84-1.6,3.56,1.84,7.14-2.28,9.49-.73,2,1.29-.69,6.24,3.51,8.28,1.92.94,1,3.19-1.25,3.86-2.45.73-4.47,1.53-4.76,4.71-.18,2.1-2.24,2.41-3,.52C1128.83,310,1125,310,1120.9,309.51Z"/><path class="cls-4" d="M1343,271.6c3.12.72,5.69,1.65,1.15,4.34-3.13,1.85.22,5.91-2.37,7.4-2.28,1.31-4.33-3.23-7.22-1.2-4.1,2.88-4.51.53-3.74-2.81.49-2.15-.59-3.51-1.75-4.86-1.53-1.77-.87-2.56,1.07-3,2.4.49,4.08-.18,5.21-2.57,1.24-2.64,2.79-2.58,4.11.08C1340.21,270.48,1340.74,272.22,1343,271.6Z"/><path class="cls-4" d="M1696.58,62c.47,3.53.12,6.69,2.83,8.72.57.44,1,1.08.53,1.69-2.1,2.89-6.19,3.74-7.65,7.4-.13.35-2,.12-2-.68.07-3.7-2.09-3.32-4.76-3.41-2.23-.08-3.6-1.75-1.46-4,1.32-1.41,1.93-2.8,1-4.83-1.35-2.88-.09-4.37,2.77-2.93C1691.1,65.6,1693.41,63.77,1696.58,62Z"/><path class="cls-4" d="M1328.94,357.36c-1.69-.25-4.36.74-4.68-.56-.66-2.72-3-5.35-2.82-7.35.32-3.15,5.52-2.62,7.18-5.63,2.18,1.95,4.88,3.6,6.26,6,.55.95-1.6,3.56-1.61,5.86C1333.26,359.63,1330.12,356.12,1328.94,357.36Z"/><path class="cls-4" d="M1245.18,293.74a11.28,11.28,0,0,1,1.13,1.6c1.21,2.61,6.42,2.15,5.64,4.6-.71,2.22-3,3.9-1.88,6.84.27.74-.62,1.58-1.64,1.11-2.11-.95-4.23-.57-6.34-.14-1.44.29-1.75-.39-1.69-1.57a10.05,10.05,0,0,0-1.53-6.12c-.76-1.23-1.29-3.55,2.12-2.59C1243.29,298.11,1243,294.88,1245.18,293.74Z"/><path class="cls-4" d="M1169.13,278.77c2,2.42,2.61,5.54,6,5.57a1.69,1.69,0,0,1,1,.75c-.72,1.81-2.05,3.55-2.19,5.38-.18,2.53-1.36,2.53-3.37,3-3.58.78-6.94,2.32-6-3.78a2.12,2.12,0,0,0-.84-1.66c-3.33-2.06-2.3-3.43.78-3.73C1167.89,283.94,1167.92,281.19,1169.13,278.77Z"/><path class="cls-4" d="M1851.49,370.77c0-4.06,2.65-6.25,6.16-6.3,3.3-.06,5.72,2.69,6.5,5.72s-3.29,7.17-6.15,7.18A6.33,6.33,0,0,1,1851.49,370.77Z"/><path class="cls-4" d="M1567.35,192.22c1,1.38,1.49,2.78,2.77,3.72s4.13-.32,4.07,1.79c-.08,2.52-1.34,5-2.18,7.5a2,2,0,0,1-1.09.78c-2.82-3-5.42,1-7.58.32s-.27-4.25-1.81-6.22c-2.74-3.54.22-3.46,2.55-3.91C1566,195.83,1565.6,193.41,1567.35,192.22Z"/><path class="cls-4" d="M1910,176.45c-.64,1.87-1.28,3.35-1.65,4.9-.63,2.62-.56,5.76-4.74,2.8-1.9-1.35-3.36,1.65-5.77,1.72-.29-3.08.21-6.57-4.06-9.28,5.14.06,7.6-2.1,9-6.14C1903.3,175.08,1905.83,176.89,1910,176.45Z"/><path class="cls-4" d="M1802.08,450.61c3.88-.05,6.68-1.06,7.49-5.79,2.3,3.35,4.1,6.21,8.91,5.15-2,2.83-3.83,4.95-3.23,7.88.14.66-.28,1.57-.94,1.48-2.73-.38-5.4-2.68-8.21,0-.26.25-.94-1-.75-1.52C1806.5,454.48,1804.18,452.76,1802.08,450.61Z"/><path class="cls-4" d="M1872.77,249.46c-.7-3.38.79-6.59-2.74-9.26,4.32-.12,5.58-2.63,6.61-5.42,3.32,1.21,4.45,5,8.86,5.57-3.88,2.63-4.8,5.26-1.28,9.16C1879.67,248.49,1876.22,245.65,1872.77,249.46Z"/><path class="cls-4" d="M2031.39,533.56c.58,3.82,3.26,4.9,7,4.76-.8,2.6-3.82,4.17-2.2,7.27.57,1.09-1.92,2.27-2.19,1.65-2.08-4.75-7,3.53-8.39-1.85C2024.34,540.34,2026.34,536.37,2031.39,533.56Z"/><path class="cls-4" d="M1547.4,160c.94,4.44,2.67,7,7.43,6.61-1.07,1.19-1.64,1.72-2.08,2.34-.6.84-7.27,6.23-8.07,6.35-.48.07-1.36.13-1.39,0-.76-2.86-1.17-5.85-3.54-8,.32-.34.69-1,1-1C1544.76,166.84,1545.23,163.26,1547.4,160Z"/><path class="cls-4" d="M1384.12,274.45c.2,4.31-2.57,6.12-6,6.7-2.9.5-6.14-3.3-5.9-6.44.29-3.77,2.42-6.35,6.18-6.35S1383.57,271.2,1384.12,274.45Z"/><path class="cls-4" d="M2048.08,575.68c0,3.7-1.7,5.92-5.53,6.08-3,.12-6.57-3.38-6.45-6.06.18-4,2.32-6,6.24-6.12C2046.64,569.46,2048.07,571,2048.08,575.68Z"/><path class="cls-4" d="M1598.39,160.1c-4.61.8-5.74-2.27-5.63-5.88.09-3.13,1.36-6,5.27-5.82,3.71.17,6.45,2,6.58,6S1602.74,160.58,1598.39,160.1Z"/><path class="cls-4" d="M1932.28,516.27c2.24-.69,5.6.48,6.07-3.55a1.17,1.17,0,0,1,2.24-.28c1.31,3.24,4.27,3.31,7.7,4.21-3.18,1.33-6.17,2.5-3.4,6.16.22.29-.27,1.22-.58,1.76-.42.73-1.3.76-1.61.15-1.81-3.48-6.76,2.16-7.81-2.65C1934.42,519.91,1932.07,518.79,1932.28,516.27Z"/><path class="cls-4" d="M1523.08,63c.84-3.45,2.65-6.72-1.7-8.69a1.56,1.56,0,0,1-.51-1.3,1.35,1.35,0,0,1,1.85-1c3.28,4.89,3.67-10.36,7.47-1,.68,1.69,2.29.85,3.5,1,1.89.18,2.53,2.17,1.52,2.53-5,1.78-2,5.1-1.58,8.78C1529.84,59.3,1526.44,58.13,1523.08,63Z"/><path class="cls-4" d="M1843.54,507.21c.16,3.93-2.44,5.63-5.66,6.2s-6.24-2.68-6.35-6.08c-.13-4.09,2.33-5.59,5.87-5.82A5.73,5.73,0,0,1,1843.54,507.21Z"/><path class="cls-4" d="M1229.26,353.88c-1.49-5.46-1.49-5.46,3.44-14,2.39.38,1.89,6.4,6.13,3.21.09-.07.43,0,.45.06.41,1.08,1.2,2.77,0,3.15-3.26,1.08.65,6.81-3.85,6.1C1233.14,352.06,1231.38,351.85,1229.26,353.88Z"/><path class="cls-4" d="M1843,468.16c1.46,2.8,1.76,5.85,5.75,4.75,1.1-.3,2.39,1.68.53,3.13s-3.07,3.41-.86,6.56c-4-.74-6.92-2.37-9.58.71-.9-2.88.35-5.79-2-7.86-1-.91,0-1.74,1.07-2C1840.4,472.81,1841.47,470.67,1843,468.16Z"/><path class="cls-4" d="M1175.34,312.28c-4,2.89-3.79,6-4.2,8.91-2.21-.12-3.68-1.94-5.87-1.36-1.06.28-3.6,1.84-3.32-.74s-3.57-5.06.18-7.48c1.86-1.2,3.93-2.37,4.86-5.12C1167.21,311.14,1169.78,312.71,1175.34,312.28Z"/><path class="cls-4" d="M1446.71,273.64c-3.21-1-5.44-3.07-8-.55-1.11,1.07-2.09-.13-2-1.6a6.89,6.89,0,0,0-1.35-4.67c-.84-1.11-1-2.44.83-2.43,3.19,0,4-2.33,4.55-4.77,2.38.81,2,3.21,3.42,3.91a24.1,24.1,0,0,0,4.59,1.16C1447.18,267.37,1444.49,269.64,1446.71,273.64Z"/><path class="cls-4" d="M1819.85,253.12c-3.72-3.66-6.76-3.68-10.48-.12.92-3.8,1.92-6.44-.81-8.7-1.08-.9-.13-2.21,1.39-2.17s2.25-1,3.22-1.92c.73-.69,1.76-2.76,2.82-.41.93,2.09,2.37,2.36,4.34,2.24,2.53-.14,2.66,1.92,1.12,2.57C1817.43,246.3,1819.58,249.14,1819.85,253.12Z"/><path class="cls-4" d="M996.92,398.77c-3.22.66-6.53,1.84-8.9-1.78a5.72,5.72,0,0,1,.1-6.92c.81-1.18,2.41-1.87,2.27-3.64.48.42.88,1.05,1.43,1.24C999.69,390.37,1000.17,391.38,996.92,398.77Z"/><path class="cls-4" d="M2003.54,657.4c-1.88,1.67-3.6,3-3,5.78.41,2-.94,1.45-2.38,2-7,2.58-5.93-3.9-8.11-6.63-.77-1-.4-2.23.87-2.06,3.73.49,2.94-4.08,4.81-4.44,3.51-.69.88,4.26,3.82,5.16A6,6,0,0,0,2003.54,657.4Z"/><path class="cls-4" d="M1838.76,561.87l2.08-3.22c1.65,2,2.94,4.61,6.31,3.85,1.26-.29,1.62,1.71.94,2-4.28,2.08-2.2,5.51-1.79,8.39-1.75.89-2.07-1.17-3.26-1-1.42-3.73-4.1,0-6-1h0c.37-2.62-1.36-4.51-2.62-6.58C1836,563.21,1838.21,564,1838.76,561.87Z"/><path class="cls-4" d="M1648,147.45a25.18,25.18,0,0,0,0-2.86c-.19-1.8-4.26-3.15-1.87-4.59s5.69-4.85,9.33-1.09c.73.74,2.44.54,3.61.76C1657.92,145.74,1655.33,149.85,1648,147.45Z"/><path class="cls-4" d="M1109.59,368.33c2.15-4.14-.85-5.68-3.76-8.3,5.27.8,6.88-2,8-5.7,2.53,2.11,1.75,7.28,7.43,5.44-2.19,3.09-3.94,5.4-1.94,9.07C1115.76,367.83,1112.93,366.42,1109.59,368.33Z"/><path class="cls-3" d="M1068.15,369c-4.2,1.36-8.32,3-12.6,4-4.48,1.06-6.28-3.29-9.2-5.37.19-1.28.37-2.57.55-3.85,3.4-.25,6.15.49,7.25,4.27.69,2.37,2.18,1.79,3.85.9A10.19,10.19,0,0,1,1068.15,369Z"/><path class="cls-4" d="M1907,392a4.32,4.32,0,0,0,1.33,3.55c1.09.92,4.41.31,2.62,3.18-1.4,2.26-1.43,6.38-6.12,5.14-1.45-.38-3.41,0-2.72-2.1.62-1.89-4.55-4.28.56-5.56a1.9,1.9,0,0,0,1.33-2.34.61.61,0,0,0,.2-.8A2.87,2.87,0,0,1,1907,392Z"/><path class="cls-4" d="M1845.19,400c3.36,0,5.18,1.38,5.14,4.11,0,2.26-1.76,3.42-4,3.45-2.46,0-4.33-1-4.42-3.58S1843.05,399.89,1845.19,400Z"/><path class="cls-4" d="M1342.62,310.07c2.16,1.05,4.64,1.42,4.77,4,.13,2.44-1.41,4-4,4.13a4.12,4.12,0,0,1-4.57-3.63C1338.28,311.59,1341.34,311.65,1342.62,310.07Z"/><path class="cls-4" d="M1944.38,217.69c-.22,2.3-1.42,3.93-4,3.76-2.27-.15-3.75-1.58-3.51-3.91s1.7-4.82,4.11-4.79C1943.17,212.78,1944.21,215.17,1944.38,217.69Z"/><path class="cls-4" d="M1789.89,168c2.59,0,3.42,1.94,3.54,4.27.11,2.12-.85,3.41-3.22,3.5-3,.11-4.14-1.6-4.39-4.24C1785.55,168.72,1787.54,168.29,1789.89,168Z"/><path class="cls-4" d="M2007.76,570c-.29,1.91-1,3.74-3.84,3.73-2.5,0-3.69-1.23-3.58-3.62s1.18-4,3.87-4.14S2007.72,567.32,2007.76,570Z"/><path class="cls-4" d="M1664,18.28c.14,2.2-.7,3.79-3.22,3.86-2.87.08-4.25-1.71-4.26-4.29s2.63-2.84,4.31-3A2.78,2.78,0,0,1,1664,18.28Z"/><path class="cls-4" d="M1903.81,364.08c-.1,2.52-1.12,3.82-3.64,3.85s-3.72-1.07-3.67-3.52c0-2.26,1.13-4,3.5-3.87A3.78,3.78,0,0,1,1903.81,364.08Z"/><path class="cls-4" d="M1681.5,123.79c.39-1.29.66-3.92,3.6-3.4,2.59.46,2.79,2.87,2.81,5.1,0,2.72-1.84,2.68-3.74,2.63C1681.78,128.07,1681,126.77,1681.5,123.79Z"/><path class="cls-4" d="M2013.65,648.06c0-.78,0-1.56,0-2.35,1.7-1.55,2.88-4.22,6-2.62s2.76,4.07,2.14,6.75a.7.7,0,0,0-.79.38C2018.11,651.15,2015.53,650.8,2013.65,648.06Z"/><path class="cls-4" d="M1087,321c0,.55-.09,1.09-.13,1.63l-1.59.92-.3-.06c-7.5,2.56-7.7,2.87-8.16,12.24l.05-.09-1.84.47a.51.51,0,0,0-.59-.39c-3.4-6.79-8.88-7.25-15.25-5v0c0-.79-.26-1.86.14-2.33,4.52-5.22,3.4-10.37.07-15.59-.08-.12.23-.5.43-.89,3,.36,6.2,1.32,9.18.93,3.3-.44,4.31-4.86,8.19-6C1076.66,314.31,1079.57,319.34,1087,321Z"/><path class="cls-3" d="M1069.08,391.85c-4.58-4.13-6.37-8.62-2.88-14.55,1.4-2.4,2.88-5.15,2.41-8.27a24.79,24.79,0,0,1,10.48,6.86c-1.47,1.5-2.58,3.15-1.32,5.29a3.53,3.53,0,0,0,4.27,1.72,3.3,3.3,0,0,0,2.6-3.74c-.24-2.71-2.21-3.44-4.59-3.52,2.73-4.56,2.73-4.56-5.29-6.47,3.3-1.89,10.1-1.86,11.07,0,2.09,4.1,1.61,13-.77,14.49-2.64,1.63-10.39-.44-12.16-3.5-1.19,1.76-.64,5.25-5.1,4.16C1074.8,386.73,1071.62,389.3,1069.08,391.85Z"/><path class="cls-3" d="M1087,321c-7.45-1.66-10.36-6.69-9.81-14.14-3.88,1.13-4.89,5.55-8.19,6-3,.39-6.15-.57-9.18-.93-.2.39-.51.77-.43.89,3.33,5.22,4.45,10.37-.07,15.59-.4.47-.11,1.54-.14,2.33-3.88-2.33-4.48-6.82-1.27-9.52,1.72-1.46,1.61-2.25-.77-3.74-.75-.47-.47-1.09-.64-1.65-.82-2.73,1.81-8.84,4.43-9.65,1.27-.38,3.58-1.44,3.6,1.49,0,1.13-.09,2,1.26,2.11s2-.63,2.28-2c.34-2,1.18-4.62,3.57-3.69,2.79,1.08,6.63,0,8.29,4.15,1.07,2.66,3.25,4.85,3.24,8,0,1,.7,1,1.73.82C1089.53,316.19,1088.28,318.64,1087,321Z"/><path class="cls-3" d="M1059.21,330.71c6.37-2.24,11.85-1.78,15.25,5a15.11,15.11,0,0,1-7.63-1.13,9,9,0,0,0-10.08,1.11C1055.36,332.41,1059.79,333,1059.21,330.71Z"/><path class="cls-4" d="M1120.61,340.54c-2.79-.05-4.16-1.47-4.32-3.63-.16-2.33,1.47-3.72,3.66-3.82a3.43,3.43,0,0,1,3.83,3.61A3.49,3.49,0,0,1,1120.61,340.54Z"/><path class="cls-4" d="M1080.05,375.64c2.38.08,4.35.81,4.59,3.52a3.3,3.3,0,0,1-2.6,3.74,3.53,3.53,0,0,1-4.27-1.72c-1.26-2.14-.15-3.79,1.32-5.29Z"/><path class="cls-3" d="M1076.84,335.73c.46-9.37.66-9.68,8.16-12.24-2.31,4-5.43,7.53-6.74,12.09C1078.21,335.75,1077.33,335.69,1076.84,335.73Z"/><path class="cls-3" d="M1075.05,336.11l1.84-.47c0,.76.23,1.7-.85,1.76C1075.74,337.42,1075.38,336.57,1075.05,336.11Z"/><path class="cls-3" d="M1085.3,323.55l1.59-.92A1.29,1.29,0,0,1,1085.3,323.55Z"/><path class="cls-4" d="M961.61,399.77c-5.06.55-4.25-3.62-4.67-5.31-.63-2.54,3-3.25,4.73-3.4s4.45,1.13,4.41,3.77C966,398,964.4,400.09,961.61,399.77Z"/><path class="cls-4" d="M979.44,417.84c-.13,2.45-1.5,3.7-3.83,3.7S972,420,972,417.69a3.27,3.27,0,0,1,3.53-3.43C977.65,414.26,979.39,415.29,979.44,417.84Z"/><path class="cls-4" d="M1493.25,262.63c-.16,3.41-1.57,5.41-5.14,5.53s-5.86-1.51-5.95-5.12c-.08-3.45,1.95-5.86,5.39-6S1492.74,259.42,1493.25,262.63Z"/><path class="cls-4" d="M1837.06,570.87c0,.13,0,.27-.07.41l-.32-.28.41-.12Z"/></svg>