<svg xmlns="http://www.w3.org/2000/svg" viewBox="0 0 373.27 91.32"><title>mwges-white</title><path d="M106.76,34.94H121v4.45h-9.64v4.07h9.11v4.45h-9.11v4.45h10.18v4.45h-14.8Z" fill="#fff"/><path d="M125.26,34.94h7l4.84,14.27h.05L142,34.94h7V56.81h-4.63V40h-.06l-5.51,16.77h-3.53L130,40h-.06V56.81h-4.63Z" fill="#fff"/><path d="M153.26,34.94h7.8a14.56,14.56,0,0,1,3.08.31,6.9,6.9,0,0,1,2.54,1.06,5.46,5.46,0,0,1,1.72,2,7.32,7.32,0,0,1,.63,3.23,7.61,7.61,0,0,1-.59,3.21,5.22,5.22,0,0,1-1.63,2.07,6.43,6.43,0,0,1-2.46,1.1,13.7,13.7,0,0,1-3.09.32h-3.38v8.53h-4.62Zm4.62,9.27H161a6,6,0,0,0,1.2-.13,3.28,3.28,0,0,0,1-.41,2.32,2.32,0,0,0,.74-.81,2.61,2.61,0,0,0,.28-1.28,2.19,2.19,0,0,0-.37-1.34,2.43,2.43,0,0,0-1-.79,3.85,3.85,0,0,0-1.29-.36,13,13,0,0,0-1.36-.07h-2.38Z" fill="#fff"/><path d="M172.12,34.94h4.62V52.36h8.57v4.45H172.12Z" fill="#fff"/><path d="M186.74,45.87a12.84,12.84,0,0,1,.84-4.75,10.56,10.56,0,0,1,2.36-3.63,10.2,10.2,0,0,1,3.59-2.3,13.1,13.1,0,0,1,9.07,0,10.2,10.2,0,0,1,3.59,2.3,10.42,10.42,0,0,1,2.36,3.63,13.88,13.88,0,0,1,0,9.51,10.42,10.42,0,0,1-2.36,3.63,10.2,10.2,0,0,1-3.59,2.3,13.1,13.1,0,0,1-9.07,0,10.2,10.2,0,0,1-3.59-2.3,10.56,10.56,0,0,1-2.36-3.63A12.89,12.89,0,0,1,186.74,45.87Zm4.8,0A8.24,8.24,0,0,0,192,48.7a6.49,6.49,0,0,0,1.32,2.22,6,6,0,0,0,2.06,1.47,7.07,7.07,0,0,0,5.37,0,6,6,0,0,0,2.06-1.47,6.49,6.49,0,0,0,1.32-2.22,8.87,8.87,0,0,0,0-5.64,6.67,6.67,0,0,0-1.32-2.24,6.08,6.08,0,0,0-2.06-1.46,7.07,7.07,0,0,0-5.37,0,6.08,6.08,0,0,0-2.06,1.46A6.67,6.67,0,0,0,192,43.06,8.28,8.28,0,0,0,191.54,45.87Z" fill="#fff"/><path d="M217.7,47.48l-7.89-12.54h5.75L220,43.12l4.72-8.18h5.48l-7.89,12.54v9.33H217.7Z" fill="#fff"/><path d="M231.93,34.94H246.2v4.45h-9.64v4.07h9.1v4.45h-9.1v4.45h10.17v4.45h-14.8Z" fill="#fff"/><path d="M250.44,34.94h8.12a14.17,14.17,0,0,1,3,.32,7.18,7.18,0,0,1,2.52,1.08,5.37,5.37,0,0,1,1.72,2,7.1,7.1,0,0,1,.64,3.2,6.63,6.63,0,0,1-1.16,3.94,5.16,5.16,0,0,1-3.38,2l5.34,9.24h-5.55l-4.38-8.74h-2.29v8.74h-4.62ZM255.06,44h2.73c.42,0,.86,0,1.32-.05a4.08,4.08,0,0,0,1.26-.27,2.25,2.25,0,0,0,.94-.73,2.32,2.32,0,0,0,.37-1.39,2.36,2.36,0,0,0-.33-1.33,2.32,2.32,0,0,0-.83-.76,3.67,3.67,0,0,0-1.16-.35,9.26,9.26,0,0,0-1.27-.09h-3Z" fill="#fff"/><path d="M285.26,43.25a3.38,3.38,0,0,0-3-1.59,4.12,4.12,0,0,0-1.21.18,3.23,3.23,0,0,0-1.07.52,2.63,2.63,0,0,0-.76.92,2.92,2.92,0,0,0-.29,1.32,2.31,2.31,0,0,0,.6,1.71,4.6,4.6,0,0,0,1.47,1,16.62,16.62,0,0,0,1.93.7,8.58,8.58,0,0,1,1.93.83,4.45,4.45,0,0,1,1.47,1.36,4,4,0,0,1,.6,2.32,4.31,4.31,0,0,1-.45,2A4.45,4.45,0,0,1,285.27,56a5.34,5.34,0,0,1-1.65.92,5.66,5.66,0,0,1-1.84.32,6.76,6.76,0,0,1-2.72-.56,5.23,5.23,0,0,1-2.2-1.85l1.46-1.08a3.79,3.79,0,0,0,1.4,1.44,4.06,4.06,0,0,0,2.13.54,3.81,3.81,0,0,0,1.19-.2,3.39,3.39,0,0,0,1.06-.57,2.94,2.94,0,0,0,.78-.93,2.5,2.5,0,0,0,.31-1.26,2.63,2.63,0,0,0-.34-1.41,3,3,0,0,0-.9-.94,5.47,5.47,0,0,0-1.28-.64l-1.48-.5c-.5-.17-1-.36-1.47-.57a5.1,5.1,0,0,1-1.28-.82,3.45,3.45,0,0,1-.9-1.24,4.46,4.46,0,0,1-.35-1.87,4.64,4.64,0,0,1,.43-2,4.33,4.33,0,0,1,1.15-1.45,5,5,0,0,1,1.62-.85,6.42,6.42,0,0,1,1.85-.27,6.18,6.18,0,0,1,2.4.44,5.14,5.14,0,0,1,2,1.53Z" fill="#fff"/><path d="M291.71,55.29h8.35v1.52h-9.93V40.56h9.67v1.52h-8.09v5.53h7.56v1.51h-7.56Z" fill="#fff"/><path d="M304.78,56.81h-1.59V40.56H308a5.94,5.94,0,0,1,3.76,1.08,3.89,3.89,0,0,1,1.38,3.26,4.2,4.2,0,0,1-1,2.86,4.31,4.31,0,0,1-3,1.34l4.49,7.71h-1.94l-4.27-7.55h-2.64Zm0-9.07h2.82a6.21,6.21,0,0,0,1.79-.22,3.44,3.44,0,0,0,1.18-.61,2.26,2.26,0,0,0,.64-.9,3.12,3.12,0,0,0,0-2.2,2.36,2.36,0,0,0-.64-.91,3.12,3.12,0,0,0-1.18-.61,6.61,6.61,0,0,0-1.79-.21h-2.82Z" fill="#fff"/><path d="M320.92,54.33H321l5.11-13.77h1.72l-6.08,16.25h-1.59L314.2,40.56H316Z" fill="#fff"/><path d="M331.43,56.81h-1.58V40.56h1.58Z" fill="#fff"/><path d="M348.5,54.24a6.26,6.26,0,0,1-2.31,2.12,7.18,7.18,0,0,1-1.62.63,6.87,6.87,0,0,1-1.84.23,8.06,8.06,0,0,1-3.23-.64,7.74,7.74,0,0,1-2.57-1.78,8.14,8.14,0,0,1-1.71-2.69,9.74,9.74,0,0,1,0-6.84,8.18,8.18,0,0,1,1.71-2.7,7.74,7.74,0,0,1,2.57-1.78,8.06,8.06,0,0,1,3.23-.64,7.58,7.58,0,0,1,2.91.6,5.81,5.81,0,0,1,2.49,2l-1.39,1.08a3.8,3.8,0,0,0-.66-.78,4.9,4.9,0,0,0-1-.69,5.58,5.58,0,0,0-1.15-.48,4.5,4.5,0,0,0-1.24-.19,6.17,6.17,0,0,0-2.69.58,6,6,0,0,0-2,1.54A6.89,6.89,0,0,0,336.76,46a8.35,8.35,0,0,0,0,5.35A7,7,0,0,0,338,53.6a6.1,6.1,0,0,0,2,1.53,6,6,0,0,0,2.69.58,6.23,6.23,0,0,0,1.22-.12,4.37,4.37,0,0,0,1.19-.39,4.57,4.57,0,0,0,1.11-.74,5.77,5.77,0,0,0,.95-1.18Z" fill="#fff"/><path d="M352.76,55.29h8.34v1.52h-9.93V40.56h9.67v1.52h-8.08v5.53h7.55v1.51h-7.55Z" fill="#fff"/><path d="M371.61,43.25a3.37,3.37,0,0,0-3-1.59,4.17,4.17,0,0,0-1.21.18,3.43,3.43,0,0,0-1.07.52,2.74,2.74,0,0,0-.76.92,2.91,2.91,0,0,0-.28,1.32,2.35,2.35,0,0,0,.59,1.71,4.65,4.65,0,0,0,1.48,1,16.62,16.62,0,0,0,1.93.7,8.5,8.5,0,0,1,1.92.83,4.58,4.58,0,0,1,1.48,1.36,4,4,0,0,1,.6,2.32A4.42,4.42,0,0,1,371.62,56a5.34,5.34,0,0,1-1.65.92,5.61,5.61,0,0,1-1.84.32,6.83,6.83,0,0,1-2.72-.56,5.15,5.15,0,0,1-2.19-1.85l1.45-1.08a3.89,3.89,0,0,0,1.41,1.44,4.06,4.06,0,0,0,2.13.54,3.75,3.75,0,0,0,1.18-.2,3.44,3.44,0,0,0,1.07-.57,3.22,3.22,0,0,0,.78-.93,2.87,2.87,0,0,0,0-2.67,2.79,2.79,0,0,0-.9-.94,5.28,5.28,0,0,0-1.28-.64l-1.47-.5c-.51-.17-1-.36-1.48-.57a5.28,5.28,0,0,1-1.28-.82,3.71,3.71,0,0,1-.9-1.24,4.58,4.58,0,0,1,1.23-5.36,5,5,0,0,1,1.62-.85,6.47,6.47,0,0,1,1.85-.27,6.2,6.2,0,0,1,2.41.44,5.21,5.21,0,0,1,2,1.53Z" fill="#fff"/><path d="M105.46,76.64h-1l5.64-8.75h.86l1.82,8.75h-.93l-.47-2.3h-4.47Zm1.94-3.11h3.83l-.92-4.65Z" fill="#fff"/><path d="M116.63,74.29a3.77,3.77,0,0,1,.25-1.39,3.49,3.49,0,0,1,.71-1.14,3.61,3.61,0,0,1,1.08-.77,3.25,3.25,0,0,1,1.36-.28,2.53,2.53,0,0,1,1.18.28,1.92,1.92,0,0,1,.83.84h0l.81-4.53h.83L122,76.64h-.83l.18-1h0a2.47,2.47,0,0,1-.85.77,2.52,2.52,0,0,1-1.28.33,3,3,0,0,1-1.06-.18,2.24,2.24,0,0,1-1.36-1.31A2.71,2.71,0,0,1,116.63,74.29Zm.86-.05a2.15,2.15,0,0,0,.12.73,1.85,1.85,0,0,0,.35.59,1.61,1.61,0,0,0,.57.39,1.87,1.87,0,0,0,.78.15,2.3,2.3,0,0,0,1-.23,2.48,2.48,0,0,0,.82-.61,2.92,2.92,0,0,0,.54-.9,3,3,0,0,0,.2-1.09,2,2,0,0,0-.13-.75,1.66,1.66,0,0,0-.38-.59,1.6,1.6,0,0,0-.59-.39,2.11,2.11,0,0,0-.77-.14,2.32,2.32,0,0,0-1,.22,2.51,2.51,0,0,0-.8.61,2.84,2.84,0,0,0-.51.9A3.31,3.31,0,0,0,117.49,74.24Z" fill="#fff"/><path d="M125,76.64h-.83l1-5.78H126Zm1.52-8a.59.59,0,0,1-.17.42.53.53,0,0,1-.41.17.57.57,0,0,1-.4-.15.47.47,0,0,1-.17-.4.59.59,0,0,1,.18-.44.6.6,0,0,1,.41-.17.54.54,0,0,1,.4.16A.57.57,0,0,1,126.54,68.62Z" fill="#fff"/><path d="M129.19,76.64h-.88l-1.22-5.78H128l.92,4.89h0l2.88-4.89h.9Z" fill="#fff"/><path d="M133.69,76.64h-.83l1-5.78h.83Zm1.52-8A.55.55,0,0,1,135,69a.52.52,0,0,1-.41.17.57.57,0,0,1-.4-.15.5.5,0,0,1-.17-.4.59.59,0,0,1,.18-.44.61.61,0,0,1,.42-.17.55.55,0,0,1,.55.57Z" fill="#fff"/><path d="M139.71,72.13a1.46,1.46,0,0,0-.52-.53,1.67,1.67,0,0,0-.83-.2,2.49,2.49,0,0,0-.46,0,1.72,1.72,0,0,0-.45.16,1,1,0,0,0-.33.29.72.72,0,0,0-.13.44.82.82,0,0,0,.08.38.82.82,0,0,0,.23.26,1.51,1.51,0,0,0,.36.18l.48.16a3.5,3.5,0,0,1,1.3.62,1.34,1.34,0,0,1,.44,1.07,1.53,1.53,0,0,1-.21.81,1.86,1.86,0,0,1-.53.55,2.14,2.14,0,0,1-.72.32,3.37,3.37,0,0,1-2.14-.17,2.11,2.11,0,0,1-1-.82l.71-.47a1.76,1.76,0,0,0,.63.61,1.86,1.86,0,0,0,1,.26,2.33,2.33,0,0,0,.53-.06,1.57,1.57,0,0,0,.46-.17.9.9,0,0,0,.33-.31.86.86,0,0,0,.13-.46.82.82,0,0,0-.37-.7,4.53,4.53,0,0,0-1-.46,4.65,4.65,0,0,1-.52-.2,1.61,1.61,0,0,1-.47-.29,1.3,1.3,0,0,1-.34-.43,1.32,1.32,0,0,1-.13-.62,1.43,1.43,0,0,1,.2-.76,1.75,1.75,0,0,1,.52-.53,2.14,2.14,0,0,1,.71-.3,3.11,3.11,0,0,1,.79-.1,2.54,2.54,0,0,1,1.19.26,1.61,1.61,0,0,1,.76.69Z" fill="#fff"/><path d="M142,76.64h-.83l1-5.78H143Zm1.52-8a.59.59,0,0,1-.17.42.53.53,0,0,1-.41.17.59.59,0,0,1-.41-.15.49.49,0,0,1-.16-.4.59.59,0,0,1,.18-.44.57.57,0,0,1,.41-.17.54.54,0,0,1,.4.16A.57.57,0,0,1,143.47,68.62Z" fill="#fff"/><path d="M146.68,76.79a2.92,2.92,0,0,1-1.08-.19,2.37,2.37,0,0,1-.84-.51,2.21,2.21,0,0,1-.55-.79,2.61,2.61,0,0,1-.2-1,3.66,3.66,0,0,1,1-2.52,3.53,3.53,0,0,1,1.09-.77,3.31,3.31,0,0,1,1.38-.28,3.16,3.16,0,0,1,1.09.18,2.56,2.56,0,0,1,.84.51,2.61,2.61,0,0,1,.55.79,2.56,2.56,0,0,1,.19,1,3.82,3.82,0,0,1-.25,1.4,3.49,3.49,0,0,1-.71,1.14,3.39,3.39,0,0,1-1.09.76A3.31,3.31,0,0,1,146.68,76.79Zm2.57-3.53a2.21,2.21,0,0,0-.12-.74,1.79,1.79,0,0,0-.37-.59,1.85,1.85,0,0,0-.58-.39,2.13,2.13,0,0,0-.78-.14,2.26,2.26,0,0,0-1,.23,2.61,2.61,0,0,0-.79.62,3.07,3.07,0,0,0-.71,2A2.15,2.15,0,0,0,145,75a1.68,1.68,0,0,0,.95,1,1.84,1.84,0,0,0,.76.15,2.31,2.31,0,0,0,1-.23,2.62,2.62,0,0,0,1.31-1.51A3.1,3.1,0,0,0,149.25,73.26Z" fill="#fff"/><path d="M153,70.86c0,.15,0,.33-.06.52s-.05.34-.08.46h0a2.44,2.44,0,0,1,.86-.83,2.21,2.21,0,0,1,1.12-.3,2.14,2.14,0,0,1,1.47.47,1.67,1.67,0,0,1,.53,1.3c0,.09,0,.19,0,.29s0,.21-.05.32l-.64,3.55h-.83l.57-3.2a3.88,3.88,0,0,0,.08-.73,1.5,1.5,0,0,0-.29-1,1.23,1.23,0,0,0-1-.35,1.83,1.83,0,0,0-.67.14,1.89,1.89,0,0,0-.62.42,2.81,2.81,0,0,0-.51.71,3.18,3.18,0,0,0-.32,1l-.52,3h-.83l.79-4.51c0-.16.07-.36.1-.61a6.18,6.18,0,0,0,.08-.66Z" fill="#fff"/><path d="M163.78,76.79a2.92,2.92,0,0,1-1.08-.19,2.46,2.46,0,0,1-.84-.51,2.21,2.21,0,0,1-.55-.79,2.61,2.61,0,0,1-.2-1,3.93,3.93,0,0,1,.25-1.38,3.71,3.71,0,0,1,.71-1.14,3.53,3.53,0,0,1,1.09-.77,3.32,3.32,0,0,1,1.39-.28,3.14,3.14,0,0,1,1.08.18,2.56,2.56,0,0,1,.84.51,2.44,2.44,0,0,1,.55.79,2.56,2.56,0,0,1,.2,1,3.83,3.83,0,0,1-.26,1.4,3.33,3.33,0,0,1-.71,1.14,3.39,3.39,0,0,1-1.09.76A3.31,3.31,0,0,1,163.78,76.79Zm2.57-3.53a2.21,2.21,0,0,0-.12-.74,1.79,1.79,0,0,0-.37-.59,1.85,1.85,0,0,0-.58-.39,2.13,2.13,0,0,0-.78-.14,2.26,2.26,0,0,0-1,.23,2.46,2.46,0,0,0-.78.62,2.89,2.89,0,0,0-.53.9,3.09,3.09,0,0,0-.19,1.09,2.15,2.15,0,0,0,.12.73,1.69,1.69,0,0,0,.37.59,1.56,1.56,0,0,0,.58.39,1.86,1.86,0,0,0,.77.15,2.24,2.24,0,0,0,1-.23,2.57,2.57,0,0,0,.8-.62,2.9,2.9,0,0,0,.52-.89A3.34,3.34,0,0,0,166.35,73.26Z" fill="#fff"/><path d="M171.68,71.55h-1.36l-.89,5.09h-.83l.89-5.09h-1.22l.13-.69h1.2l.27-1.57a3.55,3.55,0,0,1,.24-.82,2,2,0,0,1,.42-.68,2,2,0,0,1,.64-.47,2.09,2.09,0,0,1,.86-.17l.34,0a1.37,1.37,0,0,1,.34.07l-.19.73a2.16,2.16,0,0,0-.59-.08,1.19,1.19,0,0,0-.51.11,1.1,1.1,0,0,0-.36.32,1.87,1.87,0,0,0-.23.47,3.51,3.51,0,0,0-.14.58l-.26,1.49h1.38Z" fill="#fff"/><path d="M179.63,75.13h0l4.24-7.24h1.35l-1.54,8.75h-.88l1.33-7.56h0l-4.5,7.56h-.47l-1.83-7.56h0L176,76.64h-.86l1.54-8.75H178Z" fill="#fff"/><path d="M188.48,76.79a2.92,2.92,0,0,1-1.08-.19,2.46,2.46,0,0,1-.84-.51,2.21,2.21,0,0,1-.55-.79,2.61,2.61,0,0,1-.2-1,3.93,3.93,0,0,1,.25-1.38,3.71,3.71,0,0,1,.71-1.14,3.53,3.53,0,0,1,1.09-.77,3.32,3.32,0,0,1,1.39-.28,3.14,3.14,0,0,1,1.08.18,2.56,2.56,0,0,1,.84.51,2.44,2.44,0,0,1,.55.79,2.56,2.56,0,0,1,.2,1,3.83,3.83,0,0,1-.26,1.4,3.33,3.33,0,0,1-.71,1.14,3.39,3.39,0,0,1-1.09.76A3.31,3.31,0,0,1,188.48,76.79Zm2.57-3.53a2.21,2.21,0,0,0-.12-.74,1.64,1.64,0,0,0-.37-.59,1.85,1.85,0,0,0-.58-.39,2.13,2.13,0,0,0-.78-.14,2.26,2.26,0,0,0-1,.23,2.46,2.46,0,0,0-.78.62,2.89,2.89,0,0,0-.53.9,3.09,3.09,0,0,0-.19,1.09,2.15,2.15,0,0,0,.12.73,1.69,1.69,0,0,0,.37.59,1.56,1.56,0,0,0,.58.39,1.86,1.86,0,0,0,.77.15,2.24,2.24,0,0,0,1-.23,2.57,2.57,0,0,0,.8-.62,2.9,2.9,0,0,0,.52-.89A3.34,3.34,0,0,0,191.05,73.26Z" fill="#fff"/><path d="M193.93,71.52c0-.24.07-.47.09-.66h.79c0,.15,0,.33-.07.52s-.05.34-.07.46h0a2.79,2.79,0,0,1,.82-.82,2,2,0,0,1,1.11-.31h.29l.26,0-.2.79a1.19,1.19,0,0,0-.23,0,1.88,1.88,0,0,0-.34,0,1.82,1.82,0,0,0-.65.12,1.6,1.6,0,0,0-.59.39,2.34,2.34,0,0,0-.47.68,3.39,3.39,0,0,0-.3,1l-.52,3H193l.79-4.51C193.86,72,193.9,71.77,193.93,71.52Z" fill="#fff"/><path d="M197.09,77.85a2.45,2.45,0,0,0,.87.74,2.72,2.72,0,0,0,1.23.29,2.89,2.89,0,0,0,1.07-.18,2.15,2.15,0,0,0,.74-.5,2.61,2.61,0,0,0,.47-.73,4.74,4.74,0,0,0,.26-.88l.21-1.1h0a2.65,2.65,0,0,1-2.2,1.15,2.83,2.83,0,0,1-1.07-.19,2.33,2.33,0,0,1-1.32-1.34,2.73,2.73,0,0,1-.18-1,3.7,3.7,0,0,1,.25-1.33,3.43,3.43,0,0,1,.71-1.08,3.33,3.33,0,0,1,1.07-.73,3.49,3.49,0,0,1,1.35-.26,2.54,2.54,0,0,1,.61.07,2.68,2.68,0,0,1,.58.22,2.4,2.4,0,0,1,.47.37,1.87,1.87,0,0,1,.34.49h0l.19-1h.81l-1,5.73a9.28,9.28,0,0,1-.26,1,3,3,0,0,1-.54,1,2.87,2.87,0,0,1-1,.74,3.52,3.52,0,0,1-1.57.29,3.81,3.81,0,0,1-1.54-.3,2.82,2.82,0,0,1-1.11-.86Zm.9-3.73a2,2,0,0,0,.13.7,1.68,1.68,0,0,0,.94,1,2.14,2.14,0,0,0,.79.14,2.38,2.38,0,0,0,1.81-.81,2.47,2.47,0,0,0,.52-.85,2.78,2.78,0,0,0,.19-1,2.18,2.18,0,0,0-.13-.72,1.79,1.79,0,0,0-.37-.59,1.9,1.9,0,0,0-.59-.39,1.94,1.94,0,0,0-.78-.15,2.61,2.61,0,0,0-1,.2,2.21,2.21,0,0,0-.79.55,2.37,2.37,0,0,0-.51.86A3.27,3.27,0,0,0,198,74.12Z" fill="#fff"/><path d="M208.9,73.09a4.23,4.23,0,0,0,.07-.54,1,1,0,0,0-.36-.89,1.7,1.7,0,0,0-1-.26,2.62,2.62,0,0,0-1,.2,3.17,3.17,0,0,0-.81.49l-.37-.55a3.19,3.19,0,0,1,1-.6,3.41,3.41,0,0,1,2-.14,1.69,1.69,0,0,1,.65.3,1.42,1.42,0,0,1,.45.52,1.61,1.61,0,0,1,.17.76c0,.07,0,.17,0,.3s0,.23,0,.31l-.42,2.35a5.21,5.21,0,0,0-.1.69,4.88,4.88,0,0,0,0,.61h-.74a3.78,3.78,0,0,1,0-.46c0-.16,0-.32.05-.48h0a4.58,4.58,0,0,1-.5.49,2.78,2.78,0,0,1-.51.33,2.7,2.7,0,0,1-.57.18,4.43,4.43,0,0,1-.66,0,2.46,2.46,0,0,1-.6-.07,1.64,1.64,0,0,1-.57-.26,1.43,1.43,0,0,1-.42-.46,1.37,1.37,0,0,1-.16-.7,1.57,1.57,0,0,1,.39-1.12,2.54,2.54,0,0,1,1-.66,6.55,6.55,0,0,1,1.43-.31C207.84,73.12,208.37,73.09,208.9,73.09Zm-.3.63a11.17,11.17,0,0,0-1.14.06,5.38,5.38,0,0,0-1.06.21,2.25,2.25,0,0,0-.78.43,1,1,0,0,0-.3.74.88.88,0,0,0,.1.45.73.73,0,0,0,.27.28,1.16,1.16,0,0,0,.38.15,2.12,2.12,0,0,0,.44,0,2.33,2.33,0,0,0,.81-.14,2.23,2.23,0,0,0,.66-.41,2.41,2.41,0,0,0,.73-1.32l.08-.49Z" fill="#fff"/><path d="M212.83,70.86c0,.15,0,.33-.06.52s-.05.34-.07.46h0a2.53,2.53,0,0,1,.86-.83,2.25,2.25,0,0,1,1.13-.3,2.13,2.13,0,0,1,1.46.47,1.64,1.64,0,0,1,.53,1.3,1.46,1.46,0,0,1,0,.29c0,.1,0,.21,0,.32L216,76.64h-.83l.57-3.2a3.83,3.83,0,0,0,.07-.73,1.5,1.5,0,0,0-.28-1,1.25,1.25,0,0,0-1-.35,1.75,1.75,0,0,0-.67.14,1.89,1.89,0,0,0-.62.42,2.61,2.61,0,0,0-.52.71,3.46,3.46,0,0,0-.32,1l-.52,3h-.82l.79-4.51c0-.16.06-.36.1-.61s.06-.47.08-.66Z" fill="#fff"/><path d="M223.05,75.42h0l3.64-7.53h1.07l.73,7.53h0l3.6-7.53h.93l-4.26,8.75h-1l-.7-7.54h0l-3.69,7.54h-1l-.9-8.75h.94Z" fill="#fff"/><path d="M236.16,70.71a2.13,2.13,0,0,1,1.46.47,1.64,1.64,0,0,1,.53,1.3,1.46,1.46,0,0,1,0,.29c0,.1,0,.21,0,.32l-.64,3.55h-.83l.57-3.2a3.83,3.83,0,0,0,.07-.73,1.45,1.45,0,0,0-.29-1,1.27,1.27,0,0,0-1-.35,1.74,1.74,0,0,0-.66.14,1.8,1.8,0,0,0-.62.42,2.57,2.57,0,0,0-.5.71,3.46,3.46,0,0,0-.32,1l-.52,3h-.82l1.64-9.34H235l-.79,4.51h0a2.5,2.5,0,0,1,.84-.81A2.3,2.3,0,0,1,236.16,70.71Z" fill="#fff"/><path d="M240.31,76.64h-.82l1-5.78h.83Zm1.52-8a.58.58,0,0,1-.16.42.54.54,0,0,1-.42.17.59.59,0,0,1-.4-.15.49.49,0,0,1-.16-.4.62.62,0,0,1,.17-.44.61.61,0,0,1,.42-.17.51.51,0,0,1,.39.16A.53.53,0,0,1,241.83,68.62Z" fill="#fff"/><path d="M245.7,71.55h-1.57l-.6,3.39a2,2,0,0,0,0,.4.65.65,0,0,0,.2.55.89.89,0,0,0,.52.13,1.89,1.89,0,0,0,.38,0,.73.73,0,0,0,.32-.15l-.1.72a1.24,1.24,0,0,1-.41.13,3.12,3.12,0,0,1-.54,0,1.63,1.63,0,0,1-.43,0,1.13,1.13,0,0,1-.39-.17,1.07,1.07,0,0,1-.3-.36,1.18,1.18,0,0,1-.11-.57,3,3,0,0,1,0-.39l.65-3.62h-1.2l.13-.69h1.18l.28-1.63h.83l-.29,1.63h1.6Z" fill="#fff"/><path d="M246.88,74a.78.78,0,0,0,0,.14.62.62,0,0,0,0,.13A2,2,0,0,0,247,75a1.82,1.82,0,0,0,.4.58A1.79,1.79,0,0,0,248,76a2,2,0,0,0,.74.14,2.25,2.25,0,0,0,1.18-.31,2.86,2.86,0,0,0,.82-.71l.52.5a3.29,3.29,0,0,1-1.18.9,3.24,3.24,0,0,1-1.42.31,3,3,0,0,1-1-.18,2.47,2.47,0,0,1-.83-.49,2.2,2.2,0,0,1-.55-.8,2.6,2.6,0,0,1-.21-1.08A3.55,3.55,0,0,1,248,71a3.1,3.1,0,0,1,1.32-.29,2.4,2.4,0,0,1,1.8.63,2.23,2.23,0,0,1,.61,1.63q0,.15,0,.45a2.91,2.91,0,0,1-.08.55Zm4-.62a1.41,1.41,0,0,0,0-.21,1.7,1.7,0,0,0,0-.22,1.48,1.48,0,0,0-.41-1.09,1.55,1.55,0,0,0-1.19-.43,2.34,2.34,0,0,0-.85.15,2.43,2.43,0,0,0-.69.43,2.65,2.65,0,0,0-.52.63,2.48,2.48,0,0,0-.29.74Z" fill="#fff"/><path d="M260.05,76.1a6,6,0,0,0,1.39-.16,3.93,3.93,0,0,0,1.09-.44l.47-2.68h-2.06l.13-.75H264L263.31,76a6.11,6.11,0,0,1-1.61.65,6.77,6.77,0,0,1-1.7.2,4.51,4.51,0,0,1-1.6-.27,3.56,3.56,0,0,1-1.24-.77,3.36,3.36,0,0,1-.81-1.18,4,4,0,0,1-.28-1.53,5.57,5.57,0,0,1,.41-2.13,5.41,5.41,0,0,1,2.78-2.89,5,5,0,0,1,2-.42,4.08,4.08,0,0,1,.93.1,3.52,3.52,0,0,1,.83.28,2.68,2.68,0,0,1,.69.43,2.65,2.65,0,0,1,.49.58l-.81.54a1.51,1.51,0,0,0-.29-.42,1.94,1.94,0,0,0-.46-.38,2.7,2.7,0,0,0-.62-.27,3.22,3.22,0,0,0-.79-.1,3.81,3.81,0,0,0-1.72.39,4.45,4.45,0,0,0-1.35,1A4.77,4.77,0,0,0,257,73a3.36,3.36,0,0,0,.2,1.2,2.69,2.69,0,0,0,.58,1,2.77,2.77,0,0,0,.95.65A3.16,3.16,0,0,0,260.05,76.1Z" fill="#fff"/><path d="M266.05,71.52c0-.24.06-.47.08-.66h.79c0,.15,0,.33-.06.52s-.05.34-.08.46h0a2.64,2.64,0,0,1,.81-.82,2,2,0,0,1,1.11-.31H269l.26,0-.2.79a1.19,1.19,0,0,0-.23,0,1.88,1.88,0,0,0-.34,0,1.82,1.82,0,0,0-.65.12,1.6,1.6,0,0,0-.59.39,2.55,2.55,0,0,0-.47.68,3.72,3.72,0,0,0-.3,1l-.52,3h-.83l.79-4.51C266,72,266,71.77,266.05,71.52Z" fill="#fff"/><path d="M271.79,76.79a2.92,2.92,0,0,1-1.08-.19,2.37,2.37,0,0,1-.84-.51,2.21,2.21,0,0,1-.55-.79,2.44,2.44,0,0,1-.2-1,3.66,3.66,0,0,1,1-2.52,3.53,3.53,0,0,1,1.09-.77,3.31,3.31,0,0,1,1.38-.28,3.06,3.06,0,0,1,1.08.18,2.37,2.37,0,0,1,.84.51,2.3,2.3,0,0,1,.55.79,2.4,2.4,0,0,1,.2,1,3.82,3.82,0,0,1-.25,1.4,3.32,3.32,0,0,1-1.8,1.9A3.31,3.31,0,0,1,271.79,76.79Zm2.57-3.53a2,2,0,0,0-.13-.74,1.62,1.62,0,0,0-.36-.59,1.79,1.79,0,0,0-.59-.39,2,2,0,0,0-.77-.14,2.23,2.23,0,0,0-1,.23,2.5,2.5,0,0,0-.79.62,3.07,3.07,0,0,0-.71,2,2.15,2.15,0,0,0,.12.73,1.54,1.54,0,0,0,.36.59,1.65,1.65,0,0,0,.58.39,1.92,1.92,0,0,0,.77.15,2.31,2.31,0,0,0,1-.23,2.72,2.72,0,0,0,1.31-1.51A3.1,3.1,0,0,0,274.36,73.26Z" fill="#fff"/><path d="M280.4,76.64c0-.16,0-.33.06-.52s.05-.35.07-.47h0a2.47,2.47,0,0,1-.86.84,2.21,2.21,0,0,1-1.12.3,2.13,2.13,0,0,1-1.46-.47,1.64,1.64,0,0,1-.53-1.29,2.83,2.83,0,0,1,0-.29c0-.1,0-.21,0-.32l.64-3.55h.84l-.57,3.2a4,4,0,0,0-.08.73,1.46,1.46,0,0,0,.29,1,1.21,1.21,0,0,0,1,.35,1.75,1.75,0,0,0,.67-.14,2,2,0,0,0,.62-.41,2.81,2.81,0,0,0,.51-.71,3.16,3.16,0,0,0,.32-1l.52-3h.83l-.79,4.51c0,.16-.07.36-.11.6s-.06.47-.08.66Z" fill="#fff"/><path d="M285.06,71.8a1.75,1.75,0,0,1,.36-.42,2,2,0,0,1,.5-.35,2.69,2.69,0,0,1,.6-.24,2.84,2.84,0,0,1,.66-.08,3,3,0,0,1,1.07.18,2.37,2.37,0,0,1,.82.51,2.24,2.24,0,0,1,.53.79,2.56,2.56,0,0,1,.19,1,3.83,3.83,0,0,1-.26,1.4,3.49,3.49,0,0,1-.71,1.14,3.42,3.42,0,0,1-1.07.76,3.25,3.25,0,0,1-1.36.29,2.54,2.54,0,0,1-1.18-.29,1.92,1.92,0,0,1-.83-.84h0l-.7,3.94h-.83l1.56-8.74h.83l-.18.94Zm3.87,1.46a2.19,2.19,0,0,0-.12-.73,1.85,1.85,0,0,0-.35-.59,1.78,1.78,0,0,0-.57-.4,2.09,2.09,0,0,0-.78-.14,2.29,2.29,0,0,0-1,.22,2.51,2.51,0,0,0-.82.62,2.92,2.92,0,0,0-.54.9,2.8,2.8,0,0,0-.2,1.08,2,2,0,0,0,.13.75,1.71,1.71,0,0,0,.38.6,1.65,1.65,0,0,0,.58.39,2.11,2.11,0,0,0,.77.14,2.37,2.37,0,0,0,1-.23,2.47,2.47,0,0,0,.79-.6,2.69,2.69,0,0,0,.52-.9A3.4,3.4,0,0,0,288.93,73.26Z" fill="#fff"/><circle cx="45.66" cy="45.66" r="44.59" fill="none" stroke="#fff" stroke-miterlimit="10" stroke-width="2.14"/><path d="M72.53,33.68a8.26,8.26,0,0,1,6.06,2.55,14.46,14.46,0,0,1,2.93,5.05c.07.22.14.33.36.29l.88-.15c.15,0,.15-.21.15-.51l-.37-7.31c0-.29-.07-.51-.44-.51-.22,0-.33.11-.51.37l-.44.58c-.22.29-.44.4-.87.07a13.54,13.54,0,0,0-7.46-2c-6.75,0-11.59,1.45-14.72,11.19l-3,7.83L50.55,40.93s-1.91-4.56-2.74-4.56S45,40.62,45,40.62,40.09,51.18,39.8,52l-.08,0L34,35a.88.88,0,0,1,.88-1.28h.69c.26,0,.33-.11.33-.29v-.92c0-.18-.07-.25-.29-.25l-3.58.09c-.17,0-.44.53-.71,1.23-1.11,2.5-6.44,14.12-6.74,15h-.15l-6.61-15.4c-.15-.44-.4-.8-.92-.8s-.8.58-1,.95c-.73,1.83-8.18,22.29-8.55,23.1a1.79,1.79,0,0,1-1.61,1.2H2.9c-.22,0-.26.11-.26.3v1c0,.11.08.19.22.19.3,0,3.56-.11,5.61-.11,2.26,0,3.5.11,3.87.11s.29-.11.29-.3V58c0-.19,0-.3-.25-.3h-1c-.88,0-1.24-.51-1.24-1,0-2,4.16-14.07,5.26-17.29h.15l5.26,13.06s1.2,2.86,1.95,2.86c1.15,0,2.87-4,2.87-4s4.94-11,5.23-11.78l.07,0,5.69,16.89a.87.87,0,0,1-.88,1.27h-.69c-.26,0-.33.11-.33.3v.91c0,.18.07.26.29.26s1.23,0,3-.07a1,1,0,0,0,.69-.31,1.11,1.11,0,0,0,.37-.49c.15-.4,6.62-14,6.95-15.05h.14L52.81,58.2c.15.44.4.81.91.81,2,0,2.61-.78,3.39-3,.41-1.15,2.79-7.86,5-13.56C64.63,35.66,68.57,33.68,72.53,33.68ZM90,47.25c-.37,0-7.29.11-10.35.11s-4.76-.11-5.2-.11c-.14,0-.21.07-.21.29v.84c0,.18.07.33.29.33H76.1c1,0,1.32.37,1.32,1.68v2.67c0,1.9-.07,2.92-.88,3.36-1.24.66-2.63.61-5,.61-3.63,0-6.24-2.28-9.24-4.7-.46-.37-.71-.19-.83,0s-.59,1.39-.72,1.7A.87.87,0,0,0,61,55.09c2.52,2.8,6.82,4,10.29,4a21.1,21.1,0,0,0,10.38-2.41c.36-.14.58-.29.58-.58s-.14-.66-.14-1.17V50.06c0-1.06.44-1.35,1.09-1.35h6.92c.22,0,.29-.07.29-.29V47.5C90.4,47.32,90.33,47.25,90,47.25Z" fill="#fff"/></svg>