<svg id="Layer_1" data-name="Layer 1" xmlns="http://www.w3.org/2000/svg" viewBox="0 0 421.2 192.33"><defs><style>.cls-1{fill:#231f20;}.cls-2{fill:#dcaa00;}</style></defs><title>tpm-tweaked-points-02</title><path class="cls-1" d="M216.47,191.6a11,11,0,0,1-5.94-1.31l-.3.16c-1.33.72-2.12,1.15-5.64,1.15a13.41,13.41,0,0,1-9.84-4.25,13,13,0,0,1-2.36-3.52,19.7,19.7,0,0,1-9.06,2.31,12.38,12.38,0,0,1-11.72-8.22h-18.7c-.34.28-.68.57-1,.87a19.36,19.36,0,0,1-3,2.3,11.54,11.54,0,0,1-5.72,1.5,10.34,10.34,0,0,1-8.51-4.16,11.14,11.14,0,0,1-1.76-5.23,14.45,14.45,0,0,1,0-2h-21.4l-.17-.41c-.8-2-3.22-7.07-5.45-9a13.91,13.91,0,0,1-1.87,2.83,15.5,15.5,0,0,1-10.48,4.76,14.88,14.88,0,0,1-9.79-4.24,13,13,0,0,1-2.37-3.53A23.1,23.1,0,0,1,72.23,164a14,14,0,0,1-9.53-4.44,12,12,0,0,1-2.16-3.78H51.43c-.11.09-.27.25-.35.33l-.22.21-.28.24A16.34,16.34,0,0,1,46,159.64a10.79,10.79,0,0,1-3.95.73,11.4,11.4,0,0,1-2.12-.2,10.35,10.35,0,0,1-8.55-9.56v-.34c0-.26,0-.5,0-.72H23.1v-9.18H13.92V120.93L1,107.91l12.88-13V75.45H23.1V66.27h8.39V64.91a10.67,10.67,0,0,1,.94-3.3,12.67,12.67,0,0,1,2.23-3,10,10,0,0,1,7.73-3c3.05,0,6.25,2.25,7.71,4.36l.18.3.19.33H87.66l-7.34-6.79.6-.47c.6-.47,1.22-.93,1.83-1.38.78-.58,1.59-1.18,2.36-1.8a18.18,18.18,0,0,0,2.41-2.31,18.67,18.67,0,0,0,2-3.31L85.17,38h41.26l-.73-3.58,6.76-1.75a315.7,315.7,0,0,1,42.16-7.9,38.86,38.86,0,0,1,71.84,0,315.69,315.69,0,0,1,42.16,7.9l6.76,1.75L294.64,38H335.9l-4.33,6.49a18.7,18.7,0,0,0,2,3.31A18.34,18.34,0,0,0,336,50.13c.76.62,1.57,1.22,2.35,1.8.62.46,1.23.91,1.83,1.38l.58.46-6.95,6.8H370.6l.19-.33.17-.3A10.2,10.2,0,0,1,377,55.8c.4-.09,1.78-.22,2.05-.24h.11a10.45,10.45,0,0,1,5,1.32,9.47,9.47,0,0,1,2.19,1.68,12.67,12.67,0,0,1,2.23,3,10.65,10.65,0,0,1,.94,3.23c0,.3,0,.93,0,1.43H398v9.18h9.18V94.89l12.88,13-12.87,13v19.44H398v9.18h-8.39c0,.48.05,1,.05,1a10.35,10.35,0,0,1-8.55,9.62,11.4,11.4,0,0,1-2.12.2,10.8,10.8,0,0,1-3.95-.73,16.34,16.34,0,0,1-4.53-3.07l-.28-.24-.22-.21c-.08-.08-.24-.24-.35-.33h-9.11a12,12,0,0,1-2.16,3.78,12.69,12.69,0,0,1-9.6,4.44,19.28,19.28,0,0,1-9-2.3,13,13,0,0,1-2.37,3.52,14,14,0,0,1-9.79,4.24,14.58,14.58,0,0,1-10.49-4.76,13.94,13.94,0,0,1-1.87-2.83c-2.23,1.89-4.65,7-5.45,9l-.16.41H288.22a14.33,14.33,0,0,1,0,2,11.15,11.15,0,0,1-1.76,5.23,10.33,10.33,0,0,1-8.51,4.16,11.54,11.54,0,0,1-5.72-1.5,19.34,19.34,0,0,1-3-2.3c-.34-.29-.67-.59-1-.87h-18.7a12.38,12.38,0,0,1-11.72,8.22,18.58,18.58,0,0,1-9.07-2.3,13,13,0,0,1-2.36,3.51A15.53,15.53,0,0,1,216.47,191.6Z"/><path class="cls-2" d="M210.53,1.38a38.24,38.24,0,0,1,35.46,24,314.78,314.78,0,0,1,42.45,7.93l6.16,1.6-.77,3.76h40.84l-3.81,5.71a14.42,14.42,0,0,0,2.18,3.87,19.1,19.1,0,0,0,2.49,2.39c1.36,1.11,2.81,2.11,4.2,3.19l-7.56,7.4h38.75a7.4,7.4,0,0,0,.56-.92,9.49,9.49,0,0,1,5.67-3.87c.38-.09,2-.23,2-.23h0a9.73,9.73,0,0,1,4.72,1.24,8.81,8.81,0,0,1,2,1.57A11.91,11.91,0,0,1,388,61.89a10,10,0,0,1,.88,3s0,1.75,0,2h8.39V76.1h9.18V95.15l12.61,12.76L406.5,120.67v19.05h-9.18v9.18h-8.45c.05.43.11,1.69.11,1.69a9.76,9.76,0,0,1-8,8.95,10.73,10.73,0,0,1-2,.19,10.2,10.2,0,0,1-3.71-.68,17,17,0,0,1-4.63-3.19c-.15-.13-.65-.7-.84-.7h-9.73a11.46,11.46,0,0,1-2.19,4,12,12,0,0,1-9.1,4.21,19.26,19.26,0,0,1-9.35-2.55,12.44,12.44,0,0,1-2.52,4,13.42,13.42,0,0,1-9.31,4,13,13,0,0,1-12.1-7.92c-3.09,1.81-6.3,9.68-6.3,9.68H287.43c.21,0,.14,2.27.11,2.53A10.74,10.74,0,0,1,285.9,178a9.75,9.75,0,0,1-8,3.89,10.92,10.92,0,0,1-5.4-1.42,33.45,33.45,0,0,1-4.12-3.25H249a11.72,11.72,0,0,1-11.25,8.22,18.54,18.54,0,0,1-9.39-2.55,12.46,12.46,0,0,1-2.51,4,14.88,14.88,0,0,1-9.37,4,10.56,10.56,0,0,1-5.94-1.4c-1.71.88-2.09,1.4-5.94,1.4a12.7,12.7,0,0,1-9.37-4,12.46,12.46,0,0,1-2.51-4,19.78,19.78,0,0,1-9.39,2.55,11.72,11.72,0,0,1-11.25-8.22h-19.4a33.46,33.46,0,0,1-4.12,3.25,10.92,10.92,0,0,1-5.4,1.42,9.75,9.75,0,0,1-8-3.89,10.74,10.74,0,0,1-1.64-4.93c0-.26-.1-2.53.11-2.53H111.89s-3.21-7.88-6.3-9.68a14.15,14.15,0,0,1-2.11,3.38,14.84,14.84,0,0,1-10,4.54,14.29,14.29,0,0,1-9.31-4,12.43,12.43,0,0,1-2.52-4,22.57,22.57,0,0,1-9.42,2.55,13.36,13.36,0,0,1-9-4.21,11.46,11.46,0,0,1-2.19-4H51.28c-.19,0-.69.57-.84.7A17,17,0,0,1,45.81,159a10.2,10.2,0,0,1-3.71.68,10.73,10.73,0,0,1-2-.19,9.76,9.76,0,0,1-8-8.95v-.15c0-.11,0-.18,0-.18v-.07a10.1,10.1,0,0,1,.12-1.29H23.75v-9.18H14.57V120.67L2,107.91,14.57,95.15V76.1h9.18V66.92h8.39v-2a10,10,0,0,1,.88-3A11.91,11.91,0,0,1,35.13,59a9.48,9.48,0,0,1,7.27-2.79c2.87,0,5.84,2.15,7.18,4.08a7.41,7.41,0,0,0,.56.92H88.88a2,2,0,0,0-.18-.46,1.43,1.43,0,0,0-.29-.38l-7.08-6.55c1.38-1.08,2.84-2.08,4.2-3.19A19.09,19.09,0,0,0,88,48.24a14.42,14.42,0,0,0,2.18-3.87l-3.81-5.71h40.84l-.77-3.76,6.16-1.6a314.78,314.78,0,0,1,42.45-7.93,38.24,38.24,0,0,1,35.46-24m0-1.3a39.54,39.54,0,0,0-36.38,24.11,316.33,316.33,0,0,0-41.87,7.87l-6.16,1.6-1.19.31.25,1.21.45,2.2H84l1.35,2,3.46,5.17A18.35,18.35,0,0,1,87,47.4a17.61,17.61,0,0,1-2.33,2.22c-.75.61-1.55,1.21-2.33,1.78-.62.46-1.24.92-1.84,1.39l-1.2.94,1.12,1L86,59.92H50.85l-.21-.36c-1.59-2.31-4.94-4.64-8.25-4.64a10.78,10.78,0,0,0-8.21,3.2,13.31,13.31,0,0,0-2.34,3.21,11.31,11.31,0,0,0-1,3.42v.86H22.45V74.8H13.27V94.62L1,107l-.9.91.9.91L13.27,121.2V141h9.18v9.18h8.33v.43a11,11,0,0,0,9.08,10.18,12,12,0,0,0,2.24.21,11.43,11.43,0,0,0,4.18-.77A16.8,16.8,0,0,0,51,157.08l.28-.24.26-.25.14-.14h8.41A12.66,12.66,0,0,0,62.21,160a14.68,14.68,0,0,0,10,4.67,23.12,23.12,0,0,0,8.79-2.1,13.66,13.66,0,0,0,2.21,3.11,15.59,15.59,0,0,0,10.26,4.45,16.23,16.23,0,0,0,11-5,13.93,13.93,0,0,0,1.54-2.19,32.11,32.11,0,0,1,4.68,8.14l.33.81h21.15a13,13,0,0,0,.07,1.39,11.75,11.75,0,0,0,1.88,5.53,11,11,0,0,0,9,4.42,12.2,12.2,0,0,0,6-1.59,19.83,19.83,0,0,0,3.12-2.37l.83-.71h18a13,13,0,0,0,12.17,8.22,19.93,19.93,0,0,0,8.76-2.09,13.7,13.7,0,0,0,2.18,3.09,14.05,14.05,0,0,0,10.32,4.46c3.52,0,4.46-.42,5.95-1.23h0a11.63,11.63,0,0,0,5.93,1.23,16.27,16.27,0,0,0,10.31-4.46,13.71,13.71,0,0,0,2.18-3.08,18.77,18.77,0,0,0,8.77,2.08,13,13,0,0,0,12.17-8.22h18l.83.71a19.83,19.83,0,0,0,3.12,2.37,12.2,12.2,0,0,0,6,1.59,11,11,0,0,0,9-4.42,11.75,11.75,0,0,0,1.88-5.53,13,13,0,0,0,.07-1.39h21.15l.33-.81a32.11,32.11,0,0,1,4.68-8.14,14,14,0,0,0,1.54,2.19,15.27,15.27,0,0,0,11,5,14.7,14.7,0,0,0,10.26-4.45,13.65,13.65,0,0,0,2.19-3.1,19.78,19.78,0,0,0,8.72,2.08,13.34,13.34,0,0,0,10.1-4.67,12.66,12.66,0,0,0,2.11-3.55h8.41l.14.14.26.25.28.24a16.8,16.8,0,0,0,4.71,3.17A11.43,11.43,0,0,0,379,161a12,12,0,0,0,2.24-.21,11,11,0,0,0,9.08-10.18v-.1l0-.33h8.35V141h9.18V121.2L420,108.82l.9-.91L420,107,407.8,94.62V74.8h-9.18V65.62h-8.39c0-.26,0-.51,0-.72v-.14a11.31,11.31,0,0,0-1-3.42,13.34,13.34,0,0,0-2.34-3.22,10.09,10.09,0,0,0-2.34-1.8,11.11,11.11,0,0,0-5.36-1.41H379c-.5,0-1.72.16-2.14.26a10.86,10.86,0,0,0-6.45,4.4l-.21.35H335.37l5.28-5.17,1.06-1-1.17-.91c-.61-.47-1.23-.93-1.84-1.39-.78-.58-1.58-1.17-2.33-1.78A17.61,17.61,0,0,1,334,47.4a18.35,18.35,0,0,1-1.74-2.83l3.46-5.17,1.35-2H295.43l.45-2.2.25-1.21-1.19-.31-6.16-1.6a316.32,316.32,0,0,0-41.87-7.87A39.55,39.55,0,0,0,210.53.08Z"/><path class="cls-2" d="M399.8,97.88V82.8h-4.93a4.17,4.17,0,0,1-1.61-.32,4.48,4.48,0,0,1-1.92-1.58h0a3.76,3.76,0,0,1-.39-.72,4.06,4.06,0,0,1-.24-.79h0a4.74,4.74,0,0,1-.08-.82V73.62H30.45v4.94a4.21,4.21,0,0,1-.32,1.61,4.31,4.31,0,0,1-.93,1.38,4.44,4.44,0,0,1-.65.54h0a3.93,3.93,0,0,1-.72.39,4.33,4.33,0,0,1-.79.24,4.4,4.4,0,0,1-.82.08H21.27V97.91l-9.88,10,9.88,10V133H26.2a4.12,4.12,0,0,1,1.61.33,4.28,4.28,0,0,1,1.38.93,4.4,4.4,0,0,1,.54.65h0a4.34,4.34,0,0,1,.39.73,4.11,4.11,0,0,1,.24.79h0a4.68,4.68,0,0,1,.08.83v4.93H390.62v-4.93a4.11,4.11,0,0,1,.33-1.61,4.22,4.22,0,0,1,.93-1.38,4.15,4.15,0,0,1,.65-.54h0a3.78,3.78,0,0,1,.73-.39,4.47,4.47,0,0,1,.79-.24,4.58,4.58,0,0,1,.83-.08h4.93V117.94l9.91-10Zm-1.52,19.44V131.5h-3.42a5.73,5.73,0,0,0-2.19.43,6,6,0,0,0-1.88,1.26,5.78,5.78,0,0,0-1.7,4.07v3.42H32a46.4,46.4,0,0,0-.43-5.61,5.82,5.82,0,0,0-1.26-1.88,5.76,5.76,0,0,0-4.07-1.7H22.79V117.29l-6.89-7-2.38-2.4,2.38-2.4,6.89-7V84.32H26.2a5.72,5.72,0,0,0,2.19-.43,5.87,5.87,0,0,0,1.88-1.26A5.75,5.75,0,0,0,32,78.56V75.14H389.1v3.42a5.73,5.73,0,0,0,.43,2.19,5.93,5.93,0,0,0,1.26,1.88,5.77,5.77,0,0,0,4.07,1.7h3.42V98.5l9.3,9.41Z"/><path class="cls-2" d="M394.87,99.91V87.74a9.21,9.21,0,0,1-9.18-9.18H35.38a9.21,9.21,0,0,1-9.18,9.18v12.2l-7.88,8,7.88,8v12.2a9.21,9.21,0,0,1,9.18,9.18h350.3a9.21,9.21,0,0,1,9.18-9.18V115.91l7.92-8Zm-353,12.9a10.81,10.81,0,0,0-4.89-4.9A8.91,8.91,0,0,0,41.89,103a9,9,0,0,0,4.9,4.89A10.85,10.85,0,0,0,41.89,112.81ZM98.3,97.12H95.65c-2.38-7-3.29-9.93-9.72-9.93h-2.8v38.52c0,2.52.49,3.56,2.73,3.7l4,.28v2.66H65.23V129.7l4-.28c2.24-.14,2.73-1.19,2.73-3.7V87.19h-2.8c-6.43,0-7.34,2.94-9.72,9.93H56.77V84H98.3Zm39.22,12.52c-3.22,2.31-8.39,3.5-15,3.5h-4.2v12.44c0,3.57.56,3.92,6.71,4.27v2.52H101.66V129.7c5-.21,5.52-.56,5.52-4.13V90.76c0-3.56-.56-3.92-5.52-4.13V84h21.67c5.66,0,10.21.56,13.63,2.66s5.94,5.94,5.94,11.54C142.91,103.34,141,107.12,137.53,109.63Zm65-23c-5,.21-5.52.56-5.52,4.13v34.82c0,3.57.56,3.92,5.52,4.13v2.66H180.81V129.7c5-.21,5.52-.56,5.52-4.13V90.9h-.21l-14.61,40.2h-4.2l-15-40.2h-.21v23.84a99.72,99.72,0,0,0,.35,10.91c.21,2.45,1,3.57,2.94,3.71l3.77.35v2.66H142.42V129.7l2.45-.35c1.61-.21,2.31-1.26,2.52-3.71a98.11,98.11,0,0,0,.35-10.91v-24c0-3.56-.56-3.92-5.52-4.13V84h18.46c.91,3,2.52,7.13,3.71,10.28l8.32,21.47h.21l5.94-16.36c1.89-5.17,4.26-12,5.45-15.38h18.18Zm54.19,45.73H219V129.7c5-.21,5.52-.56,5.52-4.13V90.76c0-3.56-.56-3.92-5.52-4.13V84h23.07v2.66c-5.8.21-6.36.56-6.36,4.13V124c0,4.47,1.89,5.11,7.76,5.11,8,0,8.88-3.85,11.4-10.84h2.66Zm25.45-45.73c-5,.21-5.52.56-5.52,4.13v34.82c0,3.57.56,3.92,5.52,4.13v2.66H259.89V129.7c5-.21,5.52-.56,5.52-4.13V90.76c0-3.56-.56-3.92-5.52-4.13V84h22.23Zm40.63,10.28h-2.66c-2.17-6.78-3.43-9.72-10.63-9.72h-4.68c-2,0-2.45.49-2.45,2.52v16.78h8c4.4,0,5.31-1.19,6.43-6.29h2.66v16.22h-2.66c-1.12-5.1-2-6.29-6.43-6.29h-8v15.45c0,3.57.56,3.92,6.71,4.13v2.66H285.62V129.7c5-.21,5.52-.56,5.52-4.13V90.76c0-3.56-.56-3.92-5.52-4.13V84h37.13Zm41.74,35.45H325.41V129.7c5-.21,5.52-.56,5.52-4.13V90.76c0-3.56-.56-3.92-5.52-4.13V84h37.68V96.91h-2.66c-2.17-6.92-3.43-9.72-10.63-9.72h-5.24c-2,0-2.45.49-2.45,2.52v15.45h6.64c4.4,0,5.31-1.19,6.43-6.29h2.66v16.22h-2.66c-1.12-5.1-2-6.29-6.43-6.29h-6.64V124c0,4.47,2.17,5.11,8.6,5.11,8.25,0,9.44-3.85,12-11.33h2.66Zm14.72-19.55a10.83,10.83,0,0,0-4.89-4.9,8.92,8.92,0,0,0,4.89-4.89,8.93,8.93,0,0,0,4.9,4.89A10.84,10.84,0,0,0,379.21,112.81Z"/><path class="cls-2" d="M122.5,87.19c-3.57,0-4.13.63-4.13,2.59v17.13c0,2.66,1.19,3,3.91,3,7.06,0,8.88-6.22,8.88-11.54C131.16,90.34,127.18,87.19,122.5,87.19Z"/><path class="cls-2" d="M297.6,54.71h1V51.52q0-.58-.83-.58h-.19c-.5,0-.76.19-.76.58V54Q296.84,54.71,297.6,54.71Z"/><path class="cls-2" d="M178.07,48.78a33.87,33.87,0,0,1-.36-17,306.24,306.24,0,0,0-43.42,8l3.44,16.8A290.4,290.4,0,0,1,178.07,48.78ZM165.69,37.14a8.47,8.47,0,0,0,5.12,4.08,10.21,10.21,0,0,0-4.08,5.12,10.17,10.17,0,0,0-5.13-4.08A8.47,8.47,0,0,0,165.69,37.14Zm-12.3,3.34a6.33,6.33,0,0,0,4.08,2.72,7.61,7.61,0,0,0-2.72,4.08,7.59,7.59,0,0,0-4.08-2.72A6.33,6.33,0,0,0,153.39,40.48Zm-10.15,3.42a4.28,4.28,0,0,0,2.88,1.67,5.18,5.18,0,0,0-1.66,2.89,5.18,5.18,0,0,0-2.88-1.67A4.31,4.31,0,0,0,143.24,43.91Z"/><path class="cls-2" d="M283.43,56.61l3.44-16.8a320.4,320.4,0,0,0-43.46-7.94,33.92,33.92,0,0,1-.33,16.77A266.69,266.69,0,0,1,283.43,56.61Zm-5.5-12.7a4.27,4.27,0,0,0,1.66,2.88,5.18,5.18,0,0,0-2.88,1.67A5.16,5.16,0,0,0,275,45.58,4.31,4.31,0,0,0,277.92,43.91Zm-10.15-3.43a6.31,6.31,0,0,0,2.72,4.08,7.59,7.59,0,0,0-4.08,2.72,7.63,7.63,0,0,0-2.72-4.08A6.34,6.34,0,0,0,267.77,40.48Zm-12.3-3.34a8.44,8.44,0,0,0,4.08,5.12,10.16,10.16,0,0,0-5.12,4.08,10.19,10.19,0,0,0-4.09-5.12A8.47,8.47,0,0,0,255.47,37.14Z"/><path class="cls-2" d="M148.57,63.13l-12.71-4.19-2.44-13.56H99.52l7,8.82-7,8.93ZM129.93,59.4h-1.79V57.77h1.79Zm-6.19-9.62h4.93v1.17H127V59.4h-1.69V50.94h-1.62Zm-5.89,7.37h1.69v.52c0,.38.25.56.76.56h.3c.45,0,.67-.19.67-.56V56a.41.41,0,0,0-.14-.36,3.58,3.58,0,0,0-.46-.24l-1.6-.68a5.22,5.22,0,0,1-.77-.36A.85.85,0,0,1,118,54a1.47,1.47,0,0,1-.11-.61v-2q0-1.65,2-1.65h1.05q2,0,2,1.65v.94h-1.69v-.84q0-.58-.74-.58h-.26c-.48,0-.72.19-.72.58v1.59a.4.4,0,0,0,.14.36,3.59,3.59,0,0,0,.46.24l1.6.66a7.9,7.9,0,0,1,.75.36,1,1,0,0,1,.34.31,1.33,1.33,0,0,1,.12.69v2.05q0,1.62-2,1.62h-1q-2,0-2-1.77Zm-5.23-7.37h4.19v1.17h-2.5v2.92h2.22V55h-2.22v3.2h2.5V59.4h-4.19Z"/><path class="cls-2" d="M272.53,63.13h49.06l-7-8.93,7-8.82h-33.9l-2.44,13.56ZM306,51.43q0-1.65,2-1.65h.88q2,0,2,1.65v2.31a1.08,1.08,0,0,1-.1.47,1.6,1.6,0,0,1-.5.5l-1.87,1.37a1.76,1.76,0,0,0-.4.35.45.45,0,0,0-.06.19c0,.06,0,.15,0,.26v1.39h2.85V59.4h-4.54v-3a1.3,1.3,0,0,1,.05-.4.81.81,0,0,1,.18-.3,4.31,4.31,0,0,1,.47-.4l1.71-1.25.31-.26a.89.89,0,0,0,.16-.18.4.4,0,0,0,.05-.15,1.92,1.92,0,0,0,0-.22V51.51q0-.56-.72-.56h-.11q-.72,0-.72.56v1H306Zm-3.53-.92a3,3,0,0,0,.72-.72h.17l1.11.46V59.4h-1.67V51.67l-1.06.24-.39-.89A3.46,3.46,0,0,0,302.47,50.5Zm-7.32,1q0-1.69,2-1.69h1.11q2,0,2,1.69v6.22q0,1.71-2,1.71h-1q-2,0-2-1.71v-.54h1.69v.39q0,.7.76.7H298q.67,0,.67-.56V55.34l-1.05.54h-.39q-2,0-2-1.71Zm-3.68-1a3,3,0,0,0,.72-.72h.17l1.11.46V59.4h-1.67V51.67l-1.06.24-.39-.89A3.46,3.46,0,0,0,291.48,50.5Z"/><path class="cls-2" d="M94.53,57.58a7.15,7.15,0,0,1,3.25-3.25,5.93,5.93,0,0,1-3.25-3.26,5.93,5.93,0,0,1-3.25,3.26A7.15,7.15,0,0,1,94.53,57.58Z"/><path class="cls-2" d="M326.57,57.58a7.14,7.14,0,0,1,3.26-3.25,5.93,5.93,0,0,1-3.26-3.26,5.92,5.92,0,0,1-3.25,3.26A7.17,7.17,0,0,1,326.57,57.58Z"/><path class="cls-2" d="M41.67,69.43H158.46A3.67,3.67,0,0,0,161,68.29a3.72,3.72,0,0,0,.9-1.59h0a3.16,3.16,0,0,0,0-1.83h0A3.26,3.26,0,0,0,160.21,63v0a1.93,1.93,0,0,0-1-.31,2,2,0,1,0,0,4,2,2,0,0,0,1.25-.48s0,.06,0,.08a2.2,2.2,0,0,1-2,1.61,3.42,3.42,0,0,1-2.4-.71,3,3,0,0,1-1-2.14V65a3.55,3.55,0,0,1,.78-2.47,4,4,0,0,1,2.92-1.29h.14c2.61-.13,5.85,1.85,9.17,3.87,3.54,2.16,7.15,4.36,10.52,4.36a8,8,0,0,0,5.68-2.11,7.86,7.86,0,0,0,2.36-5.59v-.39a8.14,8.14,0,0,0-.22-1.57c.61.73,1.24,1.44,1.92,2.11h0a31.52,31.52,0,0,0,44.58,0h0c.67-.67,1.31-1.38,1.92-2.11a8.17,8.17,0,0,0-.22,1.57v.39a7.88,7.88,0,0,0,2.36,5.59,8,8,0,0,0,5.68,2.11c3.37,0,7-2.2,10.52-4.36,3.31-2,6.56-4,9.17-3.87h.14a4,4,0,0,1,2.92,1.29A3.51,3.51,0,0,1,266.1,65v.09a3,3,0,0,1-1,2.14,3.43,3.43,0,0,1-2.41.71,2.14,2.14,0,0,1-1.5-.68,2.25,2.25,0,0,1-.53-.93s0-.06,0-.08a2,2,0,0,0,1.25.48,2,2,0,1,0,0-4,1.93,1.93,0,0,0-1,.31v0c-.09,0-.14.12-.22.17a2,2,0,0,0-.2.16,3.21,3.21,0,0,0-1.23,1.51h0a3.11,3.11,0,0,0,0,1.83h0a3.71,3.71,0,0,0,3.44,2.73c.14,0,.27,0,.4,0v0h116.4v0a3,3,0,0,0,1.89-.94,3.35,3.35,0,0,0,.88-2.27h0V66a3.33,3.33,0,0,0-1-2.2h0a3.09,3.09,0,0,0-2.19-.92h0a2.6,2.6,0,0,0-1.94,1,2.8,2.8,0,0,0-.67,1.69h0a1,1,0,0,0,0,.11,1.09,1.09,0,1,0,1.81-.81l0,0a1.12,1.12,0,0,1,.8-.45h0a1.57,1.57,0,0,1,1.1.48,1.78,1.78,0,0,1,.52,1.19v.08h0a1.82,1.82,0,0,1-.47,1.25,1.48,1.48,0,0,1-1,.5H266.49a4.63,4.63,0,0,0,1.12-2.75h0v-.09h0a5.05,5.05,0,0,0-1.13-3.53,5.52,5.52,0,0,0-4-1.83h-.16a11.71,11.71,0,0,0-5.64,1.57,4.77,4.77,0,0,0,.08-1.19,3.91,3.91,0,0,0-1.33-2.77,4.25,4.25,0,0,0-3-.93,3.23,3.23,0,0,0-2.23,1,3.27,3.27,0,0,0-.78,1.39h0a2.78,2.78,0,0,0,0,1.62A2.86,2.86,0,0,0,250.95,62l0,0a1.72,1.72,0,0,0,.89.27,1.78,1.78,0,0,0,0-3.55,1.74,1.74,0,0,0-.78.2,1.74,1.74,0,0,1,.27-.47,1.71,1.71,0,0,1,1.18-.53,2.8,2.8,0,0,1,2,.58,2.44,2.44,0,0,1,.8,1.72,3.07,3.07,0,0,1-.25,1.45h0a2.54,2.54,0,0,1-.87,1h0l-1.85,1.11c-3.35,2-6.78,4.14-9.73,4.14a6.53,6.53,0,0,1-4.64-1.69,6.35,6.35,0,0,1-1.89-4.51V61.4a6.39,6.39,0,0,1,1.49-4A4.69,4.69,0,0,1,241,55.75h.34a4.76,4.76,0,0,1,3.29,1.45A3.93,3.93,0,0,1,245.77,60v0l0,.35a3.87,3.87,0,0,1-1.14,2.4,2.75,2.75,0,0,1-2,.78h-.19a2.59,2.59,0,0,1-.94-.4,2,2,0,0,0,1.61-1.91,2,2,0,0,0-4,0s0,.05,0,.08a3.44,3.44,0,0,0,.74,2.47h0a3.86,3.86,0,0,0,2.4,1.27h0l.2,0h0a4.26,4.26,0,0,0,3.1-1.19,5.41,5.41,0,0,0,1.61-3.36v0l0-.36V60h0a5.46,5.46,0,0,0-1.52-3.84,6.28,6.28,0,0,0-4.32-1.93H241a5.94,5.94,0,0,0-3.07.94,31.52,31.52,0,1,0-54.78,0,5.94,5.94,0,0,0-3.07-.93h-.42a6.28,6.28,0,0,0-4.32,1.93A5.44,5.44,0,0,0,173.83,60h0v.1l0,.36v0a5.39,5.39,0,0,0,1.61,3.36,4.25,4.25,0,0,0,3.1,1.19h0l.2,0h0a3.87,3.87,0,0,0,2.41-1.27,3.43,3.43,0,0,0,.74-2.47s0-.05,0-.08a2,2,0,1,0-4,0,2,2,0,0,0,1.61,1.91,2.6,2.6,0,0,1-.94.4h-.2a2.75,2.75,0,0,1-2-.78,3.86,3.86,0,0,1-1.14-2.4l0-.35v0a3.91,3.91,0,0,1,1.11-2.75,4.76,4.76,0,0,1,3.29-1.45h.33a4.69,4.69,0,0,1,3.48,1.69,6.4,6.4,0,0,1,1.49,4v.33a6.36,6.36,0,0,1-1.89,4.51,6.52,6.52,0,0,1-4.64,1.69c-2.95,0-6.37-2.09-9.73-4.14L167,62.68h0a2.54,2.54,0,0,1-.87-1h0a3,3,0,0,1-.24-1.45,2.44,2.44,0,0,1,.8-1.72,2.79,2.79,0,0,1,1.95-.58,1.51,1.51,0,0,1,1.45,1,1.74,1.74,0,0,0-.78-.2,1.78,1.78,0,0,0,0,3.55,1.72,1.72,0,0,0,.89-.27l0,0a2.88,2.88,0,0,0,1.45-1.62,2.81,2.81,0,0,0,0-1.62h0a3.26,3.26,0,0,0-.79-1.39,3.21,3.21,0,0,0-2.23-1,4.25,4.25,0,0,0-3,.93,3.94,3.94,0,0,0-1.33,2.77,4.72,4.72,0,0,0,.08,1.19,11.73,11.73,0,0,0-5.65-1.58h-.16a5.53,5.53,0,0,0-4,1.83,5.05,5.05,0,0,0-1.13,3.53h0v.09h0a4.62,4.62,0,0,0,1.12,2.75H41.77a1.47,1.47,0,0,1-1-.5,1.82,1.82,0,0,1-.47-1.25h0V66.1a1.78,1.78,0,0,1,.51-1.19,1.57,1.57,0,0,1,1.1-.48h0a1.12,1.12,0,0,1,.8.45l0,0a1.09,1.09,0,1,0,1.81.81,1,1,0,0,0,0-.11h0a2.82,2.82,0,0,0-.66-1.69,2.61,2.61,0,0,0-1.94-1h0a3.09,3.09,0,0,0-2.19.92h0a3.31,3.31,0,0,0-1,2.2v.13h0a3.34,3.34,0,0,0,.88,2.27A3,3,0,0,0,41.67,69.43ZM180.55,39.61a30,30,0,0,1,51.22-21.22h0a30,30,0,0,1,0,42.43h0a30,30,0,0,1-51.22-21.22Z"/><path class="cls-2" d="M231,55.61a1.27,1.27,0,0,0,.22,1.77,1.26,1.26,0,1,0,1.54-2A1.27,1.27,0,0,0,231,55.61Z"/><path class="cls-2" d="M236.16,35.09a1.27,1.27,0,0,0,1.46,1,1.26,1.26,0,1,0-1.46-1Z"/><path class="cls-2" d="M231.66,22.29a1.26,1.26,0,1,0-1.78-.09A1.27,1.27,0,0,0,231.66,22.29Z"/><path class="cls-2" d="M217.73,14.6a1.26,1.26,0,1,0,.69-2.42,1.26,1.26,0,1,0-.69,2.42Z"/><path class="cls-2" d="M233.93,28.2a1.27,1.27,0,0,0,1.68.58,1.26,1.26,0,1,0-1.68-.58Z"/><path class="cls-2" d="M235.29,31.56a1.26,1.26,0,1,0,.8-1.58A1.26,1.26,0,0,0,235.29,31.56Z"/><path class="cls-2" d="M228.59,60.09a1.26,1.26,0,1,0,1.81-1.75,1.26,1.26,0,0,0-1.81,1.75Z"/><path class="cls-2" d="M229,19.52a1.26,1.26,0,1,0-1.77.15A1.26,1.26,0,0,0,229,19.52Z"/><path class="cls-2" d="M224.33,17.54a1.27,1.27,0,0,0,1.74-.4,1.26,1.26,0,1,0-1.74.4Z"/><path class="cls-2" d="M221.13,15.84a1.26,1.26,0,1,0,1-2.3,1.26,1.26,0,0,0-1,2.3Z"/><path class="cls-2" d="M225.56,62.4a1.26,1.26,0,1,0,.28-1.76A1.27,1.27,0,0,0,225.56,62.4Z"/><path class="cls-2" d="M232.11,25.06a1.26,1.26,0,1,0,2.08-1.41,1.26,1.26,0,0,0-2.08,1.41Z"/><path class="cls-2" d="M216,65a1.27,1.27,0,0,0-1,1.49,1.26,1.26,0,1,0,2.46-.53A1.27,1.27,0,0,0,216,65Z"/><path class="cls-2" d="M212.36,65.54a1.27,1.27,0,0,0-1.17,1.34,1.26,1.26,0,1,0,2.51-.18A1.27,1.27,0,0,0,212.36,65.54Z"/><path class="cls-2" d="M222.76,62.56a1.27,1.27,0,0,0-.52,1.7,1.26,1.26,0,1,0,.52-1.7Z"/><path class="cls-2" d="M208.73,65.54a1.26,1.26,0,1,0,1.17,1.34A1.27,1.27,0,0,0,208.73,65.54Z"/><path class="cls-2" d="M205.14,65a1.27,1.27,0,0,0-1.49,1,1.26,1.26,0,1,0,2.46.52A1.26,1.26,0,0,0,205.14,65Z"/><path class="cls-2" d="M236.3,48.65a1.26,1.26,0,1,0-.94,2.33,1.26,1.26,0,0,0,.94-2.33Z"/><path class="cls-2" d="M237.79,41.2a1.26,1.26,0,1,0,1.13,1.38A1.25,1.25,0,0,0,237.79,41.2Z"/><path class="cls-2" d="M237.31,45a1.26,1.26,0,1,0,.92,1.52A1.26,1.26,0,0,0,237.31,45Z"/><path class="cls-2" d="M236.55,38.69a1.26,1.26,0,1,0,1.2-1.3A1.27,1.27,0,0,0,236.55,38.69Z"/><path class="cls-2" d="M234.79,52.14a1.26,1.26,0,1,0,.47,1.72A1.27,1.27,0,0,0,234.79,52.14Z"/><path class="cls-2" d="M214.17,13.84a1.26,1.26,0,1,0,.35-2.49,1.26,1.26,0,0,0-.35,2.49Z"/><path class="cls-2" d="M183.26,39.9A1.26,1.26,0,1,0,182,38.6,1.26,1.26,0,0,0,183.26,39.9Z"/><circle class="cls-2" cx="183.7" cy="34.86" r="1.26" transform="translate(117.51 209.73) rotate(-80.01)"/><path class="cls-2" d="M184.68,42.31a1.26,1.26,0,1,0-1.12,1.38A1.26,1.26,0,0,0,184.68,42.31Z"/><circle class="cls-2" cx="184.62" cy="31.17" r="1.26" transform="translate(97.93 197.13) rotate(-72)"/><circle class="cls-2" cx="186.04" cy="27.64" r="1.26" transform="translate(79.74 182.81) rotate(-64.03)"/><path class="cls-2" d="M190.05,55.61a1.26,1.26,0,0,0-1.76-.21,1.26,1.26,0,0,0,1.55,2A1.26,1.26,0,0,0,190.05,55.61Z"/><path class="cls-2" d="M188,52.6a1.26,1.26,0,1,0-.46,1.72A1.26,1.26,0,0,0,188,52.6Z"/><circle class="cls-2" cx="187.95" cy="24.35" r="1.26" transform="translate(62.75 166.63) rotate(-56.04)"/><path class="cls-2" d="M186.43,49.34a1.26,1.26,0,1,0-.69,1.64A1.26,1.26,0,0,0,186.43,49.34Z"/><circle class="cls-2" cx="184.09" cy="46.19" r="1.26" transform="translate(-5.71 46.21) rotate(-14.09)"/><circle class="cls-2" cx="210.55" cy="12.33" r="1.26"/><circle class="cls-2" cx="203.04" cy="13.39" r="1.25" transform="translate(4.24 56.76) rotate(-16.08)"/><circle class="cls-2" cx="190.29" cy="21.35" r="1.26" transform="translate(47.12 148.5) rotate(-48.01)"/><circle class="cls-2" cx="206.76" cy="12.6" r="1.26" transform="translate(0.27 29.04) rotate(-8.04)"/><path class="cls-2" d="M201.65,64a1.27,1.27,0,0,0-1.61.75,1.26,1.26,0,1,0,1.61-.75Z"/><circle class="cls-2" cx="199.46" cy="14.69" r="1.26" transform="translate(11.29 82.46) rotate(-24.02)"/><path class="cls-2" d="M190.74,60.12a1.26,1.26,0,1,0,0-1.78A1.26,1.26,0,0,0,190.74,60.12Z"/><circle class="cls-2" cx="193.03" cy="18.71" r="1.26" transform="translate(33.23 128.6) rotate(-40.05)"/><circle class="cls-2" cx="196.1" cy="16.47" r="1.26" transform="translate(21.11 106.51) rotate(-32.03)"/><path class="cls-2" d="M193.78,62.67a1.26,1.26,0,1,0-.28-1.76A1.25,1.25,0,0,0,193.78,62.67Z"/><path class="cls-2" d="M219.45,64a1.27,1.27,0,0,0-.75,1.61,1.26,1.26,0,1,0,.75-1.61Z"/><path class="cls-2" d="M198.34,62.56a1.26,1.26,0,0,0-1.7.52,1.26,1.26,0,1,0,1.7-.52Z"/><path class="cls-2" d="M223.83,47.66c-1.32-1.42-3.41-4.48-3.76-9.86l-.27-6.9c0-.14,0-.28,0-.42a8,8,0,0,0-.17-1.71A4.2,4.2,0,0,0,218,26.33a7.25,7.25,0,0,0-.74-.45,17.86,17.86,0,0,0-4.43-1.44.64.64,0,0,0-.29-.63,2.19,2.19,0,0,0,.27-1.05,2.24,2.24,0,0,0-4.47,0,2.19,2.19,0,0,0,.27,1.05.64.64,0,0,0-.29.63,14.75,14.75,0,0,0-5.17,1.89,4.21,4.21,0,0,0-1.65,2.45,8,8,0,0,0-.17,1.71c0,.14,0,.28,0,.42L201,37.8c-.35,5.37-2.44,8.44-3.76,9.86Zm-13.29-26a1.1,1.1,0,1,1-1.1,1.1A1.1,1.1,0,0,1,210.54,21.62Z"/><path class="cls-2" d="M225.26,49.3H195.85a2.11,2.11,0,0,0-.1,1.7,1.71,1.71,0,0,0,1.38.81H224a1.7,1.7,0,0,0,1.37-.81A2.11,2.11,0,0,0,225.26,49.3Z"/><path class="cls-2" d="M213.67,53a.09.09,0,0,0,0-.07.1.1,0,0,0-.07,0h-6a.1.1,0,0,0-.07,0,.09.09,0,0,0,0,.07s.26,3,2.93,3.13h.19C213.4,56.16,213.67,53.05,213.67,53Z"/><path class="cls-2" d="M379.44,146.93H349.28v0l-.33,0a3.7,3.7,0,0,0-2.54,1.15,3.77,3.77,0,0,0-.9,1.59h0a3.18,3.18,0,0,0,0,1.83h0a3.26,3.26,0,0,0,1.65,1.84h0a1.93,1.93,0,0,0,1,.31,2,2,0,1,0,0-4,2,2,0,0,0-1.25.48s0-.06,0-.08a2.14,2.14,0,0,1,.53-.93,2.16,2.16,0,0,1,1.49-.68,3.45,3.45,0,0,1,2.41.72,3,3,0,0,1,1,2.14v.09a3.57,3.57,0,0,1-.78,2.48,4.06,4.06,0,0,1-2.92,1.29h-.14c-2.61.13-5.86-1.85-9.17-3.87-3.54-2.16-7.15-4.36-10.52-4.36a8,8,0,0,0-5.68,2.11,7.85,7.85,0,0,0-2.36,5.59V155a8,8,0,0,0,1.86,4.9,6.18,6.18,0,0,0,4.61,2.21h.42a6.24,6.24,0,0,0,4.32-1.92,5.47,5.47,0,0,0,1.52-3.84h0v-.1l0-.36v0a5.38,5.38,0,0,0-1.61-3.36,4.24,4.24,0,0,0-3.1-1.19h0l-.19,0h0a3.86,3.86,0,0,0-2.41,1.27,3.4,3.4,0,0,0-.74,2.47s0,.05,0,.08a2,2,0,0,0,4,0,2,2,0,0,0-1.61-1.91,2.63,2.63,0,0,1,.94-.4h.19a2.76,2.76,0,0,1,2,.78A3.89,3.89,0,0,1,332,156l0,.36h0v0a3.92,3.92,0,0,1-1.11,2.75,4.75,4.75,0,0,1-3.29,1.45h-.33a4.7,4.7,0,0,1-3.48-1.69,6.43,6.43,0,0,1-1.49-4v-.33a6.35,6.35,0,0,1,1.89-4.51,6.54,6.54,0,0,1,4.64-1.69c2.95,0,6.37,2.09,9.73,4.14,3.51,2.14,7,4.24,10,4.09h.16a5.51,5.51,0,0,0,4-1.83,5,5,0,0,0,1.14-3.53v-.11h0a4.61,4.61,0,0,0-1.11-2.75h26.55a1.49,1.49,0,0,1,1,.5,1.81,1.81,0,0,1,.47,1.25h0v.08a1.78,1.78,0,0,1-.52,1.19,1.57,1.57,0,0,1-1.1.48h0a1.12,1.12,0,0,1-.8-.45l0,0a1.08,1.08,0,0,0,.38-.81,1.1,1.1,0,0,0-2.19,0,1,1,0,0,0,0,.11h0a2.83,2.83,0,0,0,.67,1.69,2.61,2.61,0,0,0,1.94,1h0a3.07,3.07,0,0,0,2.19-.92h0a3.31,3.31,0,0,0,1-2.2v-.14h0a3.35,3.35,0,0,0-.88-2.28A3,3,0,0,0,379.44,146.93Z"/><path class="cls-2" d="M92.22,146.92c-3.37,0-7,2.2-10.52,4.36-3.31,2-6.56,4-9.17,3.87H72.4a4.06,4.06,0,0,1-2.92-1.29,3.55,3.55,0,0,1-.78-2.48v-.09a3,3,0,0,1,1-2.14,3.45,3.45,0,0,1,2.4-.72,2.19,2.19,0,0,1,1.5.68,2.16,2.16,0,0,1,.53.93h0s0,.06,0,.09a2,2,0,0,0-1.25-.48,2,2,0,0,0,0,4,1.93,1.93,0,0,0,1-.31h0a3.24,3.24,0,0,0,1.65-1.84h0a3.13,3.13,0,0,0,0-1.83h0a3.71,3.71,0,0,0-3.44-2.73l-.32,0v0H41.67v0a3,3,0,0,0-2,1,3.36,3.36,0,0,0-.87,2.28h0v.14a3.29,3.29,0,0,0,1,2.2h0a3.08,3.08,0,0,0,2.19.92h0a2.6,2.6,0,0,0,1.94-1,2.84,2.84,0,0,0,.66-1.69h0a1,1,0,0,0,0-.11,1.1,1.1,0,0,0-2.19,0,1.08,1.08,0,0,0,.38.81l0,0a1.14,1.14,0,0,1-.8.45h0a1.57,1.57,0,0,1-1.1-.48h0a1.8,1.8,0,0,1-.52-1.19v-.08h0a1.81,1.81,0,0,1,.47-1.25,1.49,1.49,0,0,1,1-.5H68.31a4.61,4.61,0,0,0-1.11,2.75h0v.11a5,5,0,0,0,1.13,3.53,5.51,5.51,0,0,0,4,1.83h.16c3.07.15,6.52-1.94,10-4.09,3.35-2,6.78-4.14,9.73-4.14a6.51,6.51,0,0,1,4.64,1.69,6.35,6.35,0,0,1,1.89,4.51V155a6.42,6.42,0,0,1-1.49,4,4.7,4.7,0,0,1-3.48,1.69h-.33a4.76,4.76,0,0,1-3.29-1.45A3.91,3.91,0,0,1,89,156.41v0l0-.36a3.87,3.87,0,0,1,1.14-2.4,2.76,2.76,0,0,1,2-.78h.2a2.63,2.63,0,0,1,.94.4,2,2,0,0,0-1.62,1.91,2,2,0,0,0,4,0s0-.05,0-.08a3.42,3.42,0,0,0-.74-2.47,3.86,3.86,0,0,0-2.41-1.27h0l-.2,0h0a4.25,4.25,0,0,0-3.1,1.19,5.38,5.38,0,0,0-1.61,3.36v0l0,.36v.1h0a5.44,5.44,0,0,0,1.52,3.84,6.22,6.22,0,0,0,4.32,1.92h.42a6.16,6.16,0,0,0,4.6-2.21,7.92,7.92,0,0,0,1.86-4.9v-.39A7.87,7.87,0,0,0,97.9,149,8,8,0,0,0,92.22,146.92Z"/><path class="cls-2" d="M278.05,169.07v0H238.3v0c-.13,0-.24,0-.38,0a3.64,3.64,0,0,0-2.54,1.15,3.73,3.73,0,0,0-.9,1.59,3.18,3.18,0,0,0,0,1.84,3.27,3.27,0,0,0,1.65,1.84v0a1.93,1.93,0,0,0,1,.31,2,2,0,0,0,0-4,2,2,0,0,0-1.25.48s0-.06,0-.08a2.22,2.22,0,0,1,.53-.93,2.18,2.18,0,0,1,1.5-.67,3.42,3.42,0,0,1,2.41.71,3,3,0,0,1,1,2.14v.09a3.56,3.56,0,0,1-.78,2.47,4,4,0,0,1-2.92,1.29h-.14c-2.61.13-5.85-1.85-9.17-3.87-3.54-2.16-7.15-4.36-10.52-4.36a8,8,0,0,0-5.68,2.11,7.44,7.44,0,0,0-1.61,2.31,7.43,7.43,0,0,0-1.6-2.31,8,8,0,0,0-5.68-2.11c-3.37,0-7,2.21-10.52,4.36-3.31,2-6.56,4-9.17,3.87h-.14a4,4,0,0,1-2.92-1.29,3.52,3.52,0,0,1-.78-2.47v-.09a3,3,0,0,1,1-2.14,3.43,3.43,0,0,1,2.41-.71,2.2,2.2,0,0,1,2,1.61h0s0,.06,0,.09a2,2,0,0,0-1.25-.48,2,2,0,0,0,0,4,1.93,1.93,0,0,0,1-.31v0a3.28,3.28,0,0,0,1.65-1.84,3.19,3.19,0,0,0,0-1.84,3.7,3.7,0,0,0-.9-1.59,3.65,3.65,0,0,0-2.55-1.15c-.15,0-.28,0-.43,0v0H143v0a3,3,0,0,0-2,1,3.33,3.33,0,0,0-.88,2.27h0v.13a3.32,3.32,0,0,0,1,2.2,3.06,3.06,0,0,0,2.19.92h0a2.6,2.6,0,0,0,1.94-1,2.81,2.81,0,0,0,.66-1.69h0a1,1,0,0,0,0-.1,1.09,1.09,0,1,0-2.19,0,1.08,1.08,0,0,0,.38.81l0,0a1.12,1.12,0,0,1-.8.44h0a1.57,1.57,0,0,1-1.1-.48,1.79,1.79,0,0,1-.51-1.19v-.08h0a1.83,1.83,0,0,1,.47-1.25,1.46,1.46,0,0,1,1-.5h36.2a4.6,4.6,0,0,0-1.12,2.75v.1h0a5.06,5.06,0,0,0,1.13,3.53,5.51,5.51,0,0,0,4,1.83h.16c3.07.15,6.52-1.95,10-4.09,3.35-2,6.78-4.14,9.73-4.14a6.51,6.51,0,0,1,4.64,1.69,6.36,6.36,0,0,1,1.89,4.51v.33a6.4,6.4,0,0,1-1.5,4,4.67,4.67,0,0,1-3.48,1.69h-.33a4.75,4.75,0,0,1-3.29-1.45,3.91,3.91,0,0,1-1.11-2.75v0l0-.36a3.84,3.84,0,0,1,1.14-2.4,2.71,2.71,0,0,1,2-.78l.19,0a2.58,2.58,0,0,1,.94.39,2,2,0,0,0-1.61,1.91,2,2,0,1,0,4,0s0-.05,0-.08a3.45,3.45,0,0,0-.74-2.47h0a3.86,3.86,0,0,0-2.4-1.27h0l-.2,0h0a4.21,4.21,0,0,0-3.1,1.19,5.39,5.39,0,0,0-1.61,3.36v0l0,.35v.1h0a5.45,5.45,0,0,0,1.52,3.85,6.29,6.29,0,0,0,4.32,1.92h.43a6.18,6.18,0,0,0,4.6-2.21,7.49,7.49,0,0,0,1.11-1.79,7.52,7.52,0,0,0,1.11,1.79,6.19,6.19,0,0,0,4.61,2.21h.42a6.27,6.27,0,0,0,4.32-1.92,5.46,5.46,0,0,0,1.52-3.85h0v-.1l0-.35v0a5.39,5.39,0,0,0-1.61-3.36,4.2,4.2,0,0,0-3.1-1.19h0l-.19,0h0a3.86,3.86,0,0,0-2.41,1.27,3.42,3.42,0,0,0-.74,2.46s0,.06,0,.09a2,2,0,1,0,4,0,2,2,0,0,0-1.61-1.91,2.58,2.58,0,0,1,.93-.39l.2,0a2.71,2.71,0,0,1,2,.78,3.87,3.87,0,0,1,1.14,2.4l0,.36h0v0a3.92,3.92,0,0,1-1.11,2.75,4.77,4.77,0,0,1-3.29,1.45h-.34a4.68,4.68,0,0,1-3.48-1.69,6.41,6.41,0,0,1-1.49-4v-.33a6.35,6.35,0,0,1,1.89-4.51,6.54,6.54,0,0,1,4.64-1.69c2.95,0,6.37,2.09,9.73,4.14,3.52,2.14,7,4.24,10,4.09h.16a5.51,5.51,0,0,0,4-1.83,5.05,5.05,0,0,0,1.13-3.53h0v-.1a4.62,4.62,0,0,0-1.12-2.75h36.15a1.46,1.46,0,0,1,1,.5,1.85,1.85,0,0,1,.47,1.25h0v.08a1.79,1.79,0,0,1-.51,1.19,1.57,1.57,0,0,1-1.1.48h0a1.12,1.12,0,0,1-.8-.44l0,0a1.08,1.08,0,0,0,.38-.81,1.1,1.1,0,1,0-2.19,0,1,1,0,0,0,0,.1h0a2.82,2.82,0,0,0,.67,1.69,2.6,2.6,0,0,0,1.94,1h0a3.06,3.06,0,0,0,2.19-.92,3.29,3.29,0,0,0,1-2.2v-.13h0a3.35,3.35,0,0,0-.87-2.27A3,3,0,0,0,278.05,169.07Z"/><path class="cls-2" d="M111.89,151.21a6.44,6.44,0,0,1-3.53,3.53,7.78,7.78,0,0,1,3.53,3.53,7.79,7.79,0,0,1,3.53-3.53A6.45,6.45,0,0,1,111.89,151.21Z"/><path class="cls-2" d="M309.18,151.21a6.45,6.45,0,0,1-3.53,3.53,7.76,7.76,0,0,1,3.53,3.53,7.81,7.81,0,0,1,3.54-3.53A6.44,6.44,0,0,1,309.18,151.21Z"/><rect class="cls-2" x="120.85" y="147.21" width="2.93" height="16.68"/><polygon class="cls-2" points="132.59 155.27 129.45 147.21 126.53 147.21 126.53 163.89 129.45 163.89 129.45 152.97 132.59 160.56 132.59 163.89 135.52 163.89 135.52 147.21 132.59 147.21 132.59 155.27"/><path class="cls-2" d="M143.27,163.89q3.54,0,3.54-2.81v-3.55a2.31,2.31,0,0,0-.21-1.2,1.76,1.76,0,0,0-.6-.53,13.35,13.35,0,0,0-1.3-.62L141.92,154a6.36,6.36,0,0,1-.79-.42.7.7,0,0,1-.24-.63v-2.76q0-1,1.25-1h.46q1.28,0,1.28,1v1.46h2.93v-1.63q0-2.86-3.51-2.86h-1.83q-3.51,0-3.51,2.86v3.42a2.6,2.6,0,0,0,.18,1.06,1.49,1.49,0,0,0,.6.66,9.46,9.46,0,0,0,1.33.63l2.78,1.18a6.91,6.91,0,0,1,.79.42.7.7,0,0,1,.24.63v2.83q0,1-1.16,1h-.52q-1.31,0-1.31-1V160H138v.84q0,3.07,3.51,3.07Z"/><path class="cls-2" d="M149.24,147.21v13.5q0,3.18,3.51,3.18h2.47q3.53,0,3.54-3.16V147.21h-2.93v13.57c0,.73-.4,1.09-1.19,1.09h-1.19c-.85,0-1.28-.36-1.28-1.09V147.21Z"/><path class="cls-2" d="M170.59,154.17v-4.11q0-2.86-3.35-2.86H161.5v16.68h2.93v-6.74h1.77l1.92,6.74h2.78l-2-6.95A2.58,2.58,0,0,0,170.59,154.17Zm-2.93-.14q0,1.21-1.31,1.21h-1.92v-6h1.92q1.31,0,1.31,1.21Z"/><path class="cls-2" d="M182.09,163.89V150.06q0-2.86-3.51-2.86h-2.19q-3.51,0-3.51,2.86v13.83h2.93v-6.11h3.35v6.11Zm-6.28-8.13V150.2q0-1,1.28-1h.79c.86,0,1.28.33,1.28,1v5.55Z"/><polygon class="cls-2" points="193.67 163.89 193.67 147.21 190.75 147.21 190.75 155.27 187.6 147.21 184.68 147.21 184.68 163.89 187.6 163.89 187.6 152.97 190.75 160.56 190.75 163.89 193.67 163.89"/><path class="cls-2" d="M205.17,151.92V150q0-2.83-3.51-2.83h-1.89q-3.51,0-3.51,2.83v11q0,2.83,3.51,2.83h1.89q3.51,0,3.51-2.83V160h-2.93v.91q0,1-1.16,1h-.73q-1.16,0-1.16-1V150.2q0-1,1.16-1h.58c.87,0,1.31.33,1.31,1v1.72Z"/><polygon class="cls-2" points="214.72 149.23 214.72 147.21 207.46 147.21 207.46 163.89 214.72 163.89 214.72 161.87 210.38 161.87 210.38 156.31 214.23 156.31 214.23 154.29 210.38 154.29 210.38 149.23 214.72 149.23"/><path class="cls-2" d="M230.45,151.92V150q0-2.83-3.51-2.83h-1.89q-3.51,0-3.51,2.83v11q0,2.83,3.51,2.83h1.89q3.51,0,3.51-2.83V160h-2.93v.91q0,1-1.16,1h-.73q-1.16,0-1.16-1V150.2q0-1,1.16-1h.58c.87,0,1.31.33,1.31,1v1.72Z"/><path class="cls-2" d="M238.87,163.89q3.54,0,3.54-2.83v-11q0-2.86-3.51-2.86h-2.8q-3.51,0-3.51,2.86v11q0,2.83,3.54,2.83Zm-3.35-3V150.2q0-1,1.28-1h1.37q1.31,0,1.31,1v10.69q0,1-1.16,1h-1.49Q235.51,161.86,235.51,160.89Z"/><polygon class="cls-2" points="256.89 163.89 256.89 147.21 253.66 147.21 250.94 157.01 248.23 147.21 245 147.21 245 163.89 247.92 163.89 247.62 152.97 249.81 160.87 252.07 160.87 254.26 152.97 253.96 163.89 256.89 163.89"/><path class="cls-2" d="M265,157.85q3.51,0,3.51-2.83v-5q0-2.86-3.54-2.86h-5.34v16.68h2.93v-6Zm-2.44-8.62h1.71c.87,0,1.31.33,1.31,1v4.65c0,.65-.39,1-1.16,1h-1.86Z"/><path class="cls-2" d="M279.88,163.89V150.06q0-2.86-3.51-2.86h-2.19q-3.51,0-3.51,2.86v13.83h2.93v-6.11H277v6.11Zm-6.28-8.13V150.2q0-1,1.28-1h.79c.86,0,1.28.33,1.28,1v5.55Z"/><polygon class="cls-2" points="288.54 155.27 285.4 147.21 282.47 147.21 282.47 163.89 285.4 163.89 285.4 152.97 288.54 160.56 288.54 163.89 291.47 163.89 291.47 147.21 288.54 147.21 288.54 155.27"/><polygon class="cls-2" points="297.72 154.45 297.63 154.45 295.43 147.21 292.54 147.21 296.13 157.75 296.13 163.89 299.06 163.89 299.06 157.75 302.6 147.21 299.7 147.21 297.72 154.45"/></svg>