<?xml version="1.0" encoding="UTF-8"?>
<svg id="Logos" xmlns="http://www.w3.org/2000/svg" viewBox="0 0 83.83 21.03">
  <defs>
    <style>
      .cls-1 {
        fill: none;
        stroke: #994425;
        stroke-linecap: round;
        stroke-miterlimit: 10;
        stroke-width: .3px;
      }

      .cls-2 {
        fill: #dd6730;
      }

      .cls-2, .cls-3 {
        stroke-width: 0px;
      }

      .cls-3 {
        fill: #994425;
      }
    </style>
  </defs>
  <g>
    <path class="cls-3" d="M16.19,20.98c-.07,0-.11-.03-.14-.1-.04-.11-.09-.23-.15-.36-.06-.13-.12-.27-.18-.42h-1.71c-.06.14-.11.28-.16.41-.05.13-.1.25-.14.36-.01.03-.03.06-.06.08s-.06.03-.09.03c-.04,0-.07-.02-.1-.05-.03-.03-.05-.07-.05-.11,0-.01,0-.03,0-.05s.02-.07.05-.14c.07-.18.15-.39.25-.62s.2-.48.31-.73c.11-.25.22-.51.33-.77.11-.26.22-.5.33-.73.03-.06.08-.09.15-.09h.02c.07,0,.12.03.15.08.11.23.22.49.35.76s.24.54.36.8c.12.26.22.51.32.74.1.23.18.42.24.57.03.07.05.12.06.15s0,.04,0,.05c0,.04-.01.08-.04.11-.03.03-.07.05-.11.05ZM15.6,19.8c-.12-.27-.24-.55-.37-.83-.13-.28-.25-.55-.38-.8-.11.26-.23.53-.35.81s-.24.56-.35.83h1.45Z"/>
    <path class="cls-3" d="M18.23,20.98s-.08-.02-.11-.05-.05-.07-.05-.11v-2.93s.02-.08.05-.11.07-.04.11-.04h1.06c.27,0,.52.07.75.21.23.14.42.33.56.57.14.24.21.52.21.84s-.06.58-.19.82-.3.44-.53.58-.49.22-.8.22h-1.06ZM18.39,18.04v2.63h.91c.25,0,.47-.06.65-.18.18-.12.32-.28.42-.48s.15-.42.15-.66c0-.25-.06-.48-.17-.68-.11-.2-.26-.35-.45-.47-.19-.11-.39-.17-.6-.17h-.91Z"/>
    <path class="cls-3" d="M26.33,20.99s-.07-.01-.1-.04c-.03-.02-.05-.06-.05-.1-.03-.23-.06-.49-.11-.78-.04-.29-.09-.59-.15-.9-.05-.31-.11-.61-.16-.9-.13.27-.27.55-.41.84s-.27.58-.4.86c-.12.28-.24.55-.34.79-.03.07-.07.1-.13.1-.07,0-.12-.03-.15-.08-.12-.25-.25-.52-.39-.81-.14-.29-.28-.59-.42-.88-.14-.29-.27-.57-.39-.82-.03.21-.07.44-.1.68-.03.24-.07.47-.1.71-.03.23-.06.45-.08.66-.03.21-.05.38-.06.53,0,.04-.02.07-.05.09-.03.03-.07.04-.11.04s-.07-.01-.1-.04c-.03-.03-.04-.07-.04-.11,0,0,0-.07.02-.18.02-.13.04-.31.07-.54s.06-.48.1-.75c.04-.27.07-.54.12-.81.04-.27.08-.51.11-.73,0-.04.03-.07.06-.09.03-.02.06-.04.1-.04.05,0,.08.02.11.05.04.04.07.09.1.15.11.23.24.48.37.76.13.28.28.57.42.86.15.29.28.58.41.85.12-.27.24-.55.38-.85.13-.3.27-.6.42-.9.14-.3.28-.58.42-.84.03-.05.08-.08.14-.08.04,0,.07.01.1.03.03.02.05.05.05.09.05.24.1.49.14.76.05.27.09.53.13.77.04.25.07.46.1.64.03.18.04.31.06.38.03.2.05.32.06.38,0,.06,0,.09,0,.1,0,.04-.01.08-.04.11-.03.03-.06.04-.11.04Z"/>
    <path class="cls-3" d="M28.74,20.82s-.01.08-.04.11c-.03.03-.06.05-.11.05-.04,0-.08-.02-.11-.05s-.05-.07-.05-.11v-2.93s.02-.08.05-.11.07-.04.11-.04c.04,0,.08.01.11.04.03.03.04.06.04.11v2.93Z"/>
    <path class="cls-3" d="M33.15,20.92c-.14-.19-.3-.39-.47-.62-.18-.23-.36-.46-.55-.7s-.37-.47-.55-.7-.33-.43-.47-.6v2.53s-.01.08-.04.11-.06.05-.11.05c-.04,0-.08-.02-.11-.05s-.05-.07-.05-.11v-2.93s.02-.08.05-.11.06-.04.1-.04c.08,0,.13.02.16.06.1.13.23.3.39.51.16.21.34.43.53.68.19.24.38.49.58.74s.38.48.54.7v-2.53s.02-.08.05-.11.07-.04.11-.04c.04,0,.08.01.11.04s.04.06.04.11v2.93s-.01.08-.04.11-.06.05-.1.05c-.08,0-.13-.02-.16-.06Z"/>
    <path class="cls-3" d="M35.82,20.82s-.01.08-.04.11c-.03.03-.06.05-.11.05-.04,0-.08-.02-.11-.05s-.05-.07-.05-.11v-2.93s.02-.08.05-.11.07-.04.11-.04c.04,0,.08.01.11.04.03.03.04.06.04.11v2.93Z"/>
    <path class="cls-3" d="M39.53,18.14c-.1-.04-.2-.07-.32-.1-.12-.02-.27-.04-.45-.04-.21,0-.37.05-.49.15-.12.1-.18.22-.18.35s.06.25.17.35c.11.1.33.2.66.27.29.06.51.15.67.25.16.1.27.21.34.34.06.13.1.27.1.42s-.04.29-.11.43c-.07.13-.2.25-.36.33s-.39.13-.67.13c-.4,0-.76-.09-1.09-.28-.05-.03-.08-.08-.08-.13,0-.04.01-.07.04-.1.03-.03.06-.05.11-.05.02,0,.05,0,.07.02.29.16.6.24.95.24.27,0,.48-.06.63-.17.14-.12.21-.25.21-.41,0-.17-.07-.31-.2-.42-.14-.11-.36-.21-.66-.28-.29-.07-.51-.16-.66-.25-.16-.09-.26-.2-.32-.31-.06-.12-.09-.25-.09-.39,0-.13.04-.25.11-.37.07-.12.18-.22.33-.29.15-.08.32-.11.53-.11.22,0,.4.02.54.05.13.03.28.08.43.14.06.02.1.07.1.14,0,.04-.02.08-.05.11-.03.03-.07.04-.11.04,0,0-.02,0-.04,0-.02,0-.05-.02-.1-.04Z"/>
    <path class="cls-3" d="M42.83,20.98s-.08-.02-.11-.05-.05-.07-.05-.11v-2.78h-1.13s-.08-.02-.11-.05c-.03-.03-.05-.07-.05-.11,0-.04.02-.08.05-.11s.07-.04.11-.04h2.59s.08.01.11.04.04.06.04.11c0,.04-.01.08-.04.11-.03.03-.06.05-.11.05h-1.16v2.78s-.01.08-.04.11c-.03.03-.06.05-.11.05Z"/>
    <path class="cls-3" d="M48.15,20.98s-.08-.02-.11-.05l-.99-1.15h-.81v1.05s-.01.08-.04.11-.06.05-.11.05c-.04,0-.08-.02-.11-.05s-.05-.07-.05-.11v-2.93s.02-.08.05-.11.07-.04.11-.04h.89c.24,0,.44.04.61.13.17.09.3.21.4.36s.14.33.14.52c0,.22-.06.42-.18.59-.12.18-.3.3-.55.37l.86,1.01s.04.06.04.1c0,.04-.01.07-.04.1s-.06.05-.11.05ZM46.24,18.04v1.43h.74c.28,0,.49-.07.64-.21.14-.14.22-.31.22-.51,0-.21-.08-.39-.24-.52-.16-.13-.36-.2-.61-.2h-.74Z"/>
    <path class="cls-3" d="M52.7,20.98c-.07,0-.11-.03-.14-.1-.04-.11-.09-.23-.15-.36-.06-.13-.12-.27-.18-.42h-1.71c-.06.14-.11.28-.16.41-.05.13-.1.25-.14.36-.01.03-.03.06-.06.08s-.06.03-.09.03c-.04,0-.07-.02-.1-.05-.03-.03-.05-.07-.05-.11,0-.01,0-.03,0-.05s.02-.07.05-.14c.07-.18.15-.39.25-.62s.2-.48.31-.73c.11-.25.22-.51.33-.77.11-.26.22-.5.33-.73.03-.06.08-.09.15-.09h.02c.07,0,.12.03.15.08.11.23.22.49.35.76s.24.54.36.8c.12.26.22.51.32.74.1.23.18.42.24.57.03.07.05.12.06.15s0,.04,0,.05c0,.04-.01.08-.04.11-.03.03-.07.05-.11.05ZM52.1,19.8c-.12-.27-.24-.55-.37-.83-.13-.28-.25-.55-.38-.8-.11.26-.23.53-.35.81s-.24.56-.35.83h1.45Z"/>
    <path class="cls-3" d="M55.33,20.98s-.08-.02-.11-.05-.05-.07-.05-.11v-2.78h-1.13s-.08-.02-.11-.05c-.03-.03-.05-.07-.05-.11,0-.04.02-.08.05-.11s.07-.04.11-.04h2.59s.08.01.11.04.04.06.04.11c0,.04-.01.08-.04.11-.03.03-.06.05-.11.05h-1.16v2.78s-.01.08-.04.11c-.03.03-.06.05-.11.05Z"/>
    <path class="cls-3" d="M59.64,17.69c.29,0,.55.07.78.21.24.14.42.34.56.59.14.25.21.54.21.87s-.06.6-.18.85-.3.45-.53.6c-.23.15-.51.22-.84.22-.31,0-.58-.07-.82-.22-.24-.15-.42-.35-.56-.6s-.2-.53-.2-.83c0-.34.07-.64.2-.89.13-.25.32-.45.55-.59.24-.14.51-.21.83-.21ZM59.64,17.99c-.25,0-.48.06-.67.18-.19.12-.34.28-.45.49-.11.21-.16.45-.16.72,0,.25.05.47.16.68.11.21.26.37.45.49s.41.18.67.18c.27,0,.49-.06.68-.18.19-.12.33-.29.43-.49.1-.21.15-.44.15-.69s-.06-.5-.17-.71c-.11-.21-.26-.37-.45-.49-.19-.12-.4-.18-.63-.18Z"/>
    <path class="cls-3" d="M65.22,20.98s-.08-.02-.11-.05l-.99-1.15h-.81v1.05s-.01.08-.04.11-.06.05-.11.05c-.04,0-.08-.02-.11-.05s-.05-.07-.05-.11v-2.93s.02-.08.05-.11.07-.04.11-.04h.89c.24,0,.44.04.61.13.17.09.3.21.4.36s.14.33.14.52c0,.22-.06.42-.18.59-.12.18-.3.3-.55.37l.86,1.01s.04.06.04.1c0,.04-.01.07-.04.1s-.06.05-.11.05ZM63.3,18.04v1.43h.74c.28,0,.49-.07.64-.21.14-.14.22-.31.22-.51,0-.21-.08-.39-.24-.52-.16-.13-.36-.2-.61-.2h-.74Z"/>
    <path class="cls-3" d="M68.8,18.14c-.1-.04-.2-.07-.32-.1-.12-.02-.27-.04-.45-.04-.21,0-.37.05-.49.15-.12.1-.18.22-.18.35s.06.25.17.35c.11.1.33.2.66.27.29.06.51.15.67.25.16.1.27.21.34.34.06.13.1.27.1.42s-.04.29-.11.43c-.07.13-.2.25-.36.33s-.39.13-.67.13c-.4,0-.76-.09-1.09-.28-.05-.03-.08-.08-.08-.13,0-.04.01-.07.04-.1.03-.03.06-.05.11-.05.02,0,.05,0,.07.02.29.16.6.24.95.24.27,0,.48-.06.63-.17.14-.12.21-.25.21-.41,0-.17-.07-.31-.2-.42-.14-.11-.36-.21-.66-.28-.29-.07-.51-.16-.66-.25-.16-.09-.26-.2-.32-.31-.06-.12-.09-.25-.09-.39,0-.13.04-.25.11-.37.07-.12.18-.22.33-.29.15-.08.32-.11.53-.11.22,0,.4.02.54.05.13.03.28.08.43.14.06.02.1.07.1.14,0,.04-.02.08-.05.11-.03.03-.07.04-.11.04,0,0-.02,0-.04,0-.02,0-.05-.02-.1-.04Z"/>
  </g>
  <line class="cls-1" x1=".15" y1="19.26" x2="9.62" y2="19.26"/>
  <line class="cls-1" x1="74.28" y1="19.26" x2="83.69" y2="19.26"/>
  <g>
    <path class="cls-2" d="M.03,7.26C.03,3.23,3.04,0,7.06,0c2.5,0,4.53,1.18,5.51,3.31l-2.56,1.67c-.68-1.58-1.79-2.31-3.16-2.31-2.12,0-3.42,1.79-3.42,4.59s1.3,4.59,3.42,4.59c1.37,0,2.48-.73,3.16-2.31l2.56,1.67c-.98,2.14-3.01,3.31-5.51,3.31C3.04,14.53.03,11.3.03,7.26Z"/>
    <path class="cls-2" d="M14.77,8.42V.21h3.2v8.37c0,2.16,1,3.27,2.73,3.27s2.76-1.11,2.76-3.27V.21h3.2v8.2c0,3.91-2.26,6.11-5.96,6.11s-5.94-2.2-5.94-6.11Z"/>
    <path class="cls-2" d="M28.77,12.37l1.86-2.12c.77,1.09,2.26,1.71,3.67,1.71s2.2-.66,2.2-1.62c0-.79-.51-1.35-1.73-1.6l-1.69-.36c-2.41-.51-3.7-1.86-3.7-3.82,0-2.59,2.26-4.55,5.49-4.55,2.05,0,4.04.79,4.89,2.05l-1.99,1.99c-.62-.96-1.86-1.47-3.03-1.47-1.37,0-2.14.68-2.14,1.64,0,.85.58,1.35,1.71,1.58l1.69.36c2.37.51,3.7,1.86,3.7,3.85,0,2.56-2.24,4.53-5.62,4.53-2.09,0-4.34-.75-5.32-2.16Z"/>
    <path class="cls-2" d="M45.05,2.69h-4.08V.21h11.37v2.48h-4.08v11.62h-3.2V2.69Z"/>
    <path class="cls-2" d="M68.84.21h2.71l4.79,7.43L81.14.21h2.54v14.1h-2.88V5.64l-3.72,5.77h-1.62l-3.72-5.75v8.65h-2.91V.21Z"/>
    <g>
      <path class="cls-3" d="M57.83,9.69c0,.05.01.11.02.16,0-.05-.01-.11-.02-.16Z"/>
      <path class="cls-3" d="M59.78,6.63s.08-.02.12-.03c-.02,0-.03,0-.05,0-.02,0-.05.02-.07.02Z"/>
      <path class="cls-3" d="M55.58,10.38c-.03-.3-.06-.59-.09-.85.03.26.06.54.09.85Z"/>
      <path class="cls-3" d="M54,9.35c.05.36.11.85.17,1.35,0,0,0,0,0,0-.06-.49-.13-.99-.17-1.35Z"/>
      <path class="cls-3" d="M53.99,9.32c-.01-.11-.03-.21-.04-.28.01.08.02.17.04.28Z"/>
      <path class="cls-3" d="M55.72,12.2c-.02-.41-.05-.85-.09-1.29.04.43.07.88.09,1.29Z"/>
      <path class="cls-3" d="M63.13,13.36s0,0,0,0c0,0,0,0,0,.01,0,0,0,0,0-.01Z"/>
      <path class="cls-3" d="M63.13,13.33c0-.23-.02-.51-.04-.81.02.3.03.58.04.81Z"/>
      <path class="cls-3" d="M60.36,6.63c.38.12.69.46.77.87,0-.02,0-.04-.01-.06-.08-.41-.39-.71-.76-.81Z"/>
      <path class="cls-3" d="M61.62,13.62c0,.07,0,.15,0,.22,0,0,0,0,0,0,0-.07,0-.14,0-.22Z"/>
      <path class="cls-3" d="M65.71,8.33c.02.16.05.44.08.76-.03-.32-.06-.59-.08-.76Z"/>
      <path class="cls-3" d="M65.4,10.72s-.03.03-.04.06c0-.02.03-.04.04-.06Z"/>
      <path class="cls-3" d="M65.43,10.68c.06-.05.13-.09.22-.09h0c-.08,0-.16.03-.22.09Z"/>
      <path class="cls-3" d="M65.33,10.89s.01-.05.02-.07c0,.02-.02.04-.02.07,0,0,0,0,0,0Z"/>
      <path class="cls-3" d="M66.8,7.43c0-3.84-2.98-6.95-6.83-6.93-3.44.01-6.37,2.73-6.73,6.15-.16,1.5.15,2.9.78,4.1.01.01.04.02.06.02.05,0,.08-.04.08-.08-.06-.49-.13-.99-.17-1.35,0-.01,0-.02,0-.04-.01-.11-.03-.21-.04-.28,0,0,0-.01,0-.02,0-.04-.01-.08-.02-.11-.49-3.42,1.5-6.69,4.88-7.38,1.11-.22,2.26-.15,3.31.23.2.07.31.3.24.5-.07.2-.3.31-.5.24-.92-.33-1.93-.39-2.9-.2-2.96.6-4.65,3.46-4.27,6.46.01.1.03.22.04.34,0,.03,0,.05.01.08,0,.02,0,.04,0,.06,0,.05.01.1.02.15,0,.03,0,.07.01.1.04.31.08.65.13.98.01.09.02.18.03.27,0,.07.02.13.03.2,0,.04.01.09.02.13,0,.06.02.12.02.18,0,0,0,0,0,0,0,.06.01.11.02.17,0,.03,0,.06.01.09,0,.04.01.08.02.12,0,.03,0,.07.01.1,0,.04,0,.07.01.1,0,.03,0,.06.01.09.02.14.02.32.1.45.15.24.51.13.51-.15-.02-.41-.05-.85-.09-1.29,0-.08-.01-.17-.02-.25,0,0,0-.01,0-.02,0-.08-.01-.16-.02-.24,0,0,0-.02,0-.03-.03-.3-.06-.59-.09-.85,0-.03,0-.07-.01-.1,0-.04,0-.08-.01-.11,0-.04,0-.07-.01-.11,0-.03,0-.07-.01-.1,0-.04,0-.07-.01-.11,0-.03,0-.05-.01-.08,0-.04-.01-.07-.01-.11,0-.02,0-.04,0-.06,0-.05-.01-.1-.02-.14-.22-1.39.06-2.81.93-3.92.13-.17.38-.2.55-.07.17.13.2.38.07.55-.73.93-.98,2.12-.78,3.28.06.33.11.67.15,1,.07.59.13,1.17.17,1.76.02.37.04.75.06,1.12,0,.21.01.41.02.62,0,.14-.02.29.04.42.13.27.55.16.55-.14,0,0,0-.02,0-.03,0-.09,0-.19,0-.29,0,0,0-.02,0-.02,0-.1,0-.19,0-.29,0-.01,0-.02,0-.03,0-.1,0-.19,0-.29,0-.01,0-.03,0-.04,0-.1,0-.2,0-.3,0,0,0-.01,0-.02,0-.31-.02-.62-.03-.93,0-.03,0-.05,0-.08,0-.07,0-.13-.01-.2,0-.05,0-.11,0-.16,0-.06,0-.12-.01-.17,0-.06,0-.12-.01-.18,0-.05,0-.11-.01-.16,0-.06,0-.12-.01-.18,0-.05,0-.1-.01-.15,0-.06-.01-.12-.02-.18,0-.05,0-.09-.01-.14,0-.06-.01-.12-.02-.18,0-.04,0-.09-.01-.13,0-.06-.01-.12-.02-.17,0-.04,0-.08-.01-.11,0-.06-.02-.12-.03-.18,0-.03,0-.06-.01-.08-.01-.08-.03-.16-.04-.24-.37-1.8.8-3.56,2.59-3.92.22-.04.44-.07.67-.07,1.44,0,2.71.92,3.16,2.29.07.21-.04.43-.25.5-.2.07-.43-.04-.5-.25-.34-1.05-1.31-1.75-2.41-1.75-.17,0-.34.02-.51.05-1.37.28-2.31,1.63-1.98,3,.03.11.05.22.07.33,0,.03.01.06.02.09.02.09.03.17.05.26,0,.03,0,.05.01.08.02.1.03.2.04.3,0,.01,0,.03,0,.04.02.14.04.29.05.44,0,.05.01.11.02.16.01.12.02.23.03.35.09,1.13.08,2.3.05,3.25-.01.44.23.67.58.74.22.05.44.09.66.11.46.06.87-.31.88-.77.02-.66.05-1.52.05-1.7,0-1.38-.14-2.75-.41-4.1,0-.03,0-.05,0-.08,0-.18.13-.35.31-.38.21-.04.42.09.46.31.29,1.4.43,2.83.43,4.26,0,.02,0,.04,0,.07,0,0,0,.02,0,.03,0,.02,0,.04,0,.06,0,.01,0,.02,0,.04,0,.02,0,.05,0,.08,0,.01,0,.02,0,.04,0,.03,0,.06,0,.09,0,.03,0,.07,0,.1,0,.02,0,.04,0,.06,0,.03,0,.07,0,.11,0,0,0,.02,0,.03,0,.04,0,.08,0,.11,0,.01,0,.02,0,.03,0,.21-.01.43-.02.64v.36c0,.1-.01.22.02.31.05.16.21.25.34.26,0,0,.01,0,.02,0,.06,0,.11-.01.16-.04.14-.06.24-.2.24-.37,0-.07,0-.14,0-.22,0-.05,0-.09,0-.14,0-.07,0-.14,0-.22,0-.06,0-.11,0-.17,0-.07,0-.15,0-.22,0-.06,0-.12,0-.18,0-.08,0-.15,0-.23,0-.07,0-.13,0-.2,0-.08,0-.15,0-.23,0-.07,0-.14,0-.22,0-.08,0-.15-.01-.23,0-.08,0-.15-.01-.23,0-.07,0-.15-.01-.22,0-.08,0-.16-.02-.24,0-.07,0-.15-.01-.22,0-.08-.01-.16-.02-.24,0-.07-.01-.15-.02-.22,0-.08-.01-.16-.02-.25,0-.07-.01-.14-.02-.2,0-.09-.02-.17-.02-.26,0-.06-.01-.12-.02-.18,0-.09-.02-.19-.03-.28,0-.05-.01-.1-.02-.15-.01-.12-.03-.24-.04-.36,0-.01,0-.03,0-.04-.02-.13-.03-.26-.05-.38,0-.04-.01-.07-.02-.11-.01-.08-.03-.16-.04-.24,0-.04-.01-.08-.02-.12-.01-.06-.02-.11-.03-.17-.08-.41-.39-.75-.78-.87-.05-.01-.1-.02-.15-.03-.03,0-.05,0-.08,0-.04,0-.07,0-.11,0-.03,0-.07,0-.1.01-.04,0-.08.02-.12.03-.03,0-.07.02-.1.03-.04.01-.07.03-.11.05-.03.02-.06.03-.09.05-.03.02-.06.05-.09.07-.02.02-.05.04-.07.06-.03.03-.05.06-.08.09-.02.02-.04.05-.06.07-.02.03-.04.07-.06.11-.01.03-.03.05-.04.08-.02.04-.03.08-.04.12,0,.03-.02.05-.02.08,0,.05-.01.09-.02.14,0,.02,0,.05,0,.07,0,.07,0,.15.02.22.18.86.33,2.16.38,3.04.01.22-.15.4-.37.42-.04,0-.07,0-.1,0,0,0-.02,0-.03,0-.03,0-.06-.02-.08-.03,0,0,0,0-.01,0-.03-.02-.05-.04-.08-.06,0,0-.01-.01-.02-.02-.02-.02-.03-.04-.05-.07,0,0,0-.01,0-.02-.02-.03-.03-.06-.03-.09,0,0,0-.02,0-.02,0-.01,0-.03,0-.04-.06-.84-.2-2.1-.37-2.94,0,0,0-.02,0-.02-.01-.07-.02-.13-.03-.2,0-.02,0-.05,0-.07,0-.05,0-.11,0-.16,0-.02,0-.04,0-.06,0-.07.02-.14.03-.22,0,0,0-.01,0-.02.01-.06.03-.13.05-.19,0-.02.01-.04.02-.06.02-.05.04-.1.06-.15,0-.02.02-.04.03-.06.03-.06.07-.13.11-.18,0,0,0,0,0-.01.04-.06.08-.11.12-.16.01-.02.03-.03.04-.05.04-.04.07-.08.11-.11.02-.01.03-.03.05-.04.05-.05.11-.09.18-.14.06-.04.12-.07.18-.11.02-.01.04-.02.06-.03.05-.02.1-.04.15-.06.02,0,.04-.02.06-.02.07-.02.14-.04.22-.06,1.01-.2,1.99.45,2.19,1.45.02.09.04.2.06.3,0,.04.01.08.02.11.01.07.02.14.04.22,0,.05.01.1.02.15.01.07.02.14.03.22,0,.05.01.11.02.17,0,.07.02.14.03.22,0,.06.01.12.02.18,0,.07.02.14.02.22,0,.07.01.13.02.2,0,.07.01.14.02.21,0,.07.01.15.02.22,0,.06.01.12.02.19,0,.08.01.17.02.25,0,.05,0,.09.01.14.04.54.08,1.08.1,1.62.01.26.06,1.27.08,1.51.01.1.03.18.11.25.12.11.32.1.44,0,.15-.11.14-.3.14-.47,0-.22-.02-.45-.03-.67,0-.02,0-.03,0-.05,0-.09,0-.18-.02-.28,0-.03,0-.05,0-.08,0-.09-.01-.18-.02-.27,0-.04,0-.07,0-.11,0-.08-.01-.17-.02-.26,0-.04,0-.09,0-.13,0-.08-.01-.16-.02-.24,0-.05,0-.1,0-.15,0-.08-.01-.15-.02-.23,0-.06,0-.11-.01-.17,0-.07-.01-.14-.02-.21,0-.06,0-.11-.01-.17,0-.07-.01-.13-.02-.2,0-.06,0-.12-.01-.18,0-.06,0-.12-.01-.18,0-.06-.01-.12-.02-.18,0-.05,0-.11-.01-.16,0-.06-.01-.12-.02-.18,0-.05,0-.09-.01-.14,0-.06-.01-.11-.02-.17,0-.04,0-.08-.01-.12,0-.06-.01-.11-.02-.17,0-.03,0-.05,0-.08,0-.07-.02-.14-.03-.2-.03-.21.11-.42.33-.45.21-.03.42.11.45.33,0,.04.01.08.02.13,0,0,0,.02,0,.02.01.09.02.19.04.3.05.45.09.89.13,1.34.05.53.09,1.05.13,1.58.02.29.03.58.06.87.01.11.04.21.13.29.08.07.18.11.28.11.13,0,.26-.07.34-.18.08-.12.05-.45.03-.66-.02-.19-.04-.37-.07-.56-.05-.43-.11-.86-.16-1.29s-.11-.89-.17-1.33c-.05-.38-.1-.76-.16-1.15-.04-.25-.07-.49-.12-.73,0,0,0,0,0-.01-.38-1.86-2.03-3.21-3.93-3.21-.27,0-.54.03-.8.08-.49.1-.94.28-1.36.55-.18.12-.43.06-.54-.12-.12-.18-.06-.43.12-.54.5-.32,1.04-.54,1.63-.66.32-.06.64-.1.96-.1,2.27,0,4.24,1.61,4.69,3.83.03.16.06.32.08.48.06.4.11.79.16,1.19.06.47.12.95.18,1.42.03.23.06.45.08.68.01.1.03.21.04.31.01.11.02.25.1.34.06.07.14.1.23.1.09,0,.17-.04.23-.1.08-.09.08-.21.07-.32,0-.12-.02-.24-.03-.36-.02-.28-.05-.56-.08-.83-.02-.17-.03-.34-.05-.51-.03-.32-.06-.59-.08-.76,0-.03,0-.06-.01-.08-.03-.21.11-.42.33-.45.21-.03.42.11.45.33,0,.05.02.11.02.17,0,.03,0,.05,0,.08,0,.04,0,.07.01.11.01.09.02.19.03.3,0,.03.03.06.06.06s.06-.03.06-.06c.09-.44.13-.89.13-1.35ZM58.63,12.12c0-.22.17-.39.4-.39.22,0,.39.18.39.4,0,.04,0,.08,0,.13,0,.33,0,.79-.02,1.09-.01.21-.19.37-.39.37,0,0-.02,0-.02,0-.19-.01-.34-.16-.37-.34,0-.02,0-.05,0-.07.02-.32.01-.86.02-1.18ZM65.53,10.61s.08-.02.12-.02h0s-.08,0-.12.02ZM65.96,7.23s-.05,0-.07,0c-.18,0-.35-.13-.39-.32l-.03-.15c-.01-.07-.02-.13-.04-.2-.29-1.42-1.12-2.65-2.34-3.46-.18-.12-.23-.36-.11-.54.12-.18.36-.23.54-.11,1.39.93,2.34,2.33,2.67,3.96.01.07.03.15.04.22l.03.14c.04.21-.1.42-.31.46Z"/>
    </g>
  </g>
</svg>