<svg xmlns="http://www.w3.org/2000/svg" viewBox="0 0 495.92 91.32"><title>black-outline</title><path d="M104.6,76.65h-1l5.64-8.75h.86l1.82,8.75H111l-.47-2.3H106Zm1.94-3.12h3.83l-.92-4.64Z" fill="#231f20"/><path d="M115.77,74.3a3.86,3.86,0,0,1,.25-1.4,3.55,3.55,0,0,1,.71-1.13,3.61,3.61,0,0,1,1.08-.77,3.25,3.25,0,0,1,1.36-.28,2.53,2.53,0,0,1,1.18.28,1.92,1.92,0,0,1,.83.84h0l.81-4.53h.83l-1.66,9.34h-.83l.17-1h0a2.47,2.47,0,0,1-.85.77,2.52,2.52,0,0,1-1.28.33,3,3,0,0,1-1.06-.18A2.31,2.31,0,0,1,116,75.31,2.71,2.71,0,0,1,115.77,74.3Zm.86,0a2.19,2.19,0,0,0,.12.73,1.7,1.7,0,0,0,.35.58,1.64,1.64,0,0,0,.57.4,1.87,1.87,0,0,0,.78.14,2.29,2.29,0,0,0,1-.22,2.48,2.48,0,0,0,.82-.61,2.92,2.92,0,0,0,.54-.9,3,3,0,0,0,.2-1.09,2,2,0,0,0-.13-.75,1.71,1.71,0,0,0-.38-.6,1.9,1.9,0,0,0-.59-.39,2.11,2.11,0,0,0-.77-.13,2.32,2.32,0,0,0-1,.22,2.51,2.51,0,0,0-.8.61,2.64,2.64,0,0,0-.51.9A3.31,3.31,0,0,0,116.63,74.25Z" fill="#231f20"/><path d="M124.16,76.65h-.83l1-5.79h.82Zm1.52-8a.61.61,0,0,1-.17.42.59.59,0,0,1-.81,0,.49.49,0,0,1-.17-.41.6.6,0,0,1,.59-.6.57.57,0,0,1,.4.15A.59.59,0,0,1,125.68,68.63Z" fill="#231f20"/><path d="M128.33,76.65h-.89l-1.21-5.79h.86l.92,4.9h0l2.88-4.9h.9Z" fill="#231f20"/><path d="M132.83,76.65H132l1-5.79h.83Zm1.52-8a.57.57,0,0,1-.17.42.55.55,0,0,1-.41.17.57.57,0,0,1-.4-.15.52.52,0,0,1-.17-.41.58.58,0,0,1,.18-.43.61.61,0,0,1,.42-.17.56.56,0,0,1,.39.15A.55.55,0,0,1,134.35,68.63Z" fill="#231f20"/><path d="M138.85,72.14a1.39,1.39,0,0,0-.52-.53,1.67,1.67,0,0,0-.83-.2,1.85,1.85,0,0,0-.46,0,1.42,1.42,0,0,0-.45.16,1,1,0,0,0-.33.29.7.7,0,0,0-.13.44.86.86,0,0,0,.08.38.68.68,0,0,0,.23.25,1.52,1.52,0,0,0,.36.19l.48.15a3.66,3.66,0,0,1,1.3.63A1.33,1.33,0,0,1,139,75a1.53,1.53,0,0,1-.21.81,1.86,1.86,0,0,1-.53.55,2.14,2.14,0,0,1-.72.32,3.37,3.37,0,0,1-2.14-.17,2.11,2.11,0,0,1-1-.82l.71-.47a1.76,1.76,0,0,0,.63.61,1.86,1.86,0,0,0,1,.25,2.32,2.32,0,0,0,.53,0,1.58,1.58,0,0,0,.46-.18.82.82,0,0,0,.33-.31.88.88,0,0,0-.24-1.15,4.53,4.53,0,0,0-1-.46l-.52-.2a1.61,1.61,0,0,1-.47-.29,1.3,1.3,0,0,1-.34-.43,1.32,1.32,0,0,1-.13-.62,1.5,1.5,0,0,1,.2-.77,1.84,1.84,0,0,1,.52-.52,2.14,2.14,0,0,1,.71-.3,3.06,3.06,0,0,1,.79-.1,2.54,2.54,0,0,1,1.19.26,1.61,1.61,0,0,1,.76.69Z" fill="#231f20"/><path d="M141.09,76.65h-.83l1-5.79h.83Zm1.52-8a.61.61,0,0,1-.17.42.57.57,0,0,1-.42.17.59.59,0,0,1-.4-.15.51.51,0,0,1-.16-.41.58.58,0,0,1,.18-.43.57.57,0,0,1,.41-.17.53.53,0,0,1,.39.15A.56.56,0,0,1,142.61,68.63Z" fill="#231f20"/><path d="M145.82,76.8a3.14,3.14,0,0,1-1.08-.19,2.37,2.37,0,0,1-.84-.51,2.21,2.21,0,0,1-.55-.79,2.44,2.44,0,0,1-.2-1,3.66,3.66,0,0,1,1-2.52A3.53,3.53,0,0,1,145.2,71a3.31,3.31,0,0,1,1.38-.28,3.16,3.16,0,0,1,1.09.18,2.4,2.4,0,0,1,.84.51,2.49,2.49,0,0,1,.55.79,2.53,2.53,0,0,1,.19,1,3.82,3.82,0,0,1-.25,1.4,3.6,3.6,0,0,1-.71,1.14,3.5,3.5,0,0,1-1.09.76A3.31,3.31,0,0,1,145.82,76.8Zm2.57-3.53a2,2,0,0,0-.13-.74,1.62,1.62,0,0,0-.36-.59,1.85,1.85,0,0,0-.58-.39,2.27,2.27,0,0,0-1.78.09,2.5,2.5,0,0,0-.79.62,3.07,3.07,0,0,0-.71,2,2.15,2.15,0,0,0,.12.73,1.56,1.56,0,0,0,.37.59,1.61,1.61,0,0,0,.57.39,1.92,1.92,0,0,0,.77.14,2.18,2.18,0,0,0,1-.23,2.51,2.51,0,0,0,.8-.61,2.64,2.64,0,0,0,.51-.9A3,3,0,0,0,148.39,73.27Z" fill="#231f20"/><path d="M152.16,70.86c0,.16,0,.33-.06.52s0,.35-.08.47h0a2.44,2.44,0,0,1,.86-.83,2.21,2.21,0,0,1,1.12-.3,2.1,2.1,0,0,1,1.47.47,1.66,1.66,0,0,1,.52,1.29c0,.1,0,.2,0,.3s0,.21,0,.32l-.64,3.55h-.83l.57-3.2a3.88,3.88,0,0,0,.08-.73,1.47,1.47,0,0,0-.29-1,1.23,1.23,0,0,0-1-.35,1.81,1.81,0,0,0-.67.13,1.89,1.89,0,0,0-.62.42,2.75,2.75,0,0,0-.51.71,3.53,3.53,0,0,0-.33,1l-.51,3h-.83l.79-4.51c0-.16.07-.36.1-.61a6.34,6.34,0,0,0,.08-.67Z" fill="#231f20"/><path d="M162.92,76.8a3.14,3.14,0,0,1-1.08-.19,2.37,2.37,0,0,1-.84-.51,2.21,2.21,0,0,1-.55-.79,2.61,2.61,0,0,1-.2-1,3.66,3.66,0,0,1,1-2.52A3.53,3.53,0,0,1,162.3,71a3.32,3.32,0,0,1,1.39-.28,3.14,3.14,0,0,1,1.08.18,2.4,2.4,0,0,1,.84.51,2.34,2.34,0,0,1,.55.79,2.53,2.53,0,0,1,.19,1,3.82,3.82,0,0,1-.25,1.4,3.43,3.43,0,0,1-.71,1.14,3.39,3.39,0,0,1-1.09.76A3.31,3.31,0,0,1,162.92,76.8Zm2.57-3.53a2.21,2.21,0,0,0-.12-.74,1.79,1.79,0,0,0-.37-.59,1.85,1.85,0,0,0-.58-.39,2.27,2.27,0,0,0-1.78.09,2.61,2.61,0,0,0-.79.62,3.07,3.07,0,0,0-.71,2,2.15,2.15,0,0,0,.12.73,1.69,1.69,0,0,0,.37.59,1.56,1.56,0,0,0,.58.39,1.86,1.86,0,0,0,.77.14,2.14,2.14,0,0,0,1-.23,2.4,2.4,0,0,0,.8-.61,2.64,2.64,0,0,0,.51-.9A3,3,0,0,0,165.49,73.27Z" fill="#231f20"/><path d="M170.82,71.56h-1.36l-.89,5.09h-.83l.89-5.09H167.4l.14-.7h1.2L169,69.3a3.78,3.78,0,0,1,.24-.83,2,2,0,0,1,1.06-1.14,2.09,2.09,0,0,1,.86-.17,2,2,0,0,1,.34,0,2,2,0,0,1,.34.06l-.19.73a2.17,2.17,0,0,0-.59-.07,1.19,1.19,0,0,0-.51.11,1.06,1.06,0,0,0-.36.31,2.14,2.14,0,0,0-.23.48,3.51,3.51,0,0,0-.14.58l-.26,1.48H171Z" fill="#231f20"/><path d="M178.77,75.14h0L183,67.9h1.35l-1.54,8.75H182l1.33-7.56h0l-4.5,7.56h-.47l-1.83-7.56h0l-1.34,7.56h-.86l1.54-8.75h1.34Z" fill="#231f20"/><path d="M187.62,76.8a3.14,3.14,0,0,1-1.08-.19,2.37,2.37,0,0,1-.84-.51,2.21,2.21,0,0,1-.55-.79,2.61,2.61,0,0,1-.2-1,3.66,3.66,0,0,1,1-2.52A3.53,3.53,0,0,1,187,71a3.32,3.32,0,0,1,1.39-.28,3.14,3.14,0,0,1,1.08.18,2.4,2.4,0,0,1,.84.51,2.49,2.49,0,0,1,.55.79,2.53,2.53,0,0,1,.19,1,3.82,3.82,0,0,1-.25,1.4,3.43,3.43,0,0,1-.71,1.14,3.39,3.39,0,0,1-1.09.76A3.31,3.31,0,0,1,187.62,76.8Zm2.57-3.53a2.21,2.21,0,0,0-.12-.74,1.79,1.79,0,0,0-.37-.59,1.85,1.85,0,0,0-.58-.39,2.27,2.27,0,0,0-1.78.09,2.61,2.61,0,0,0-.79.62,3.07,3.07,0,0,0-.71,2A2.15,2.15,0,0,0,186,75a1.69,1.69,0,0,0,.37.59,1.56,1.56,0,0,0,.58.39,1.86,1.86,0,0,0,.77.14,2.14,2.14,0,0,0,1-.23,2.51,2.51,0,0,0,.8-.61,2.64,2.64,0,0,0,.51-.9A3,3,0,0,0,190.19,73.27Z" fill="#231f20"/><path d="M193.07,71.53c0-.25.07-.47.09-.67H194c0,.16,0,.33-.07.52s0,.35-.07.47h0a2.79,2.79,0,0,1,.82-.82,2,2,0,0,1,1.11-.31h.29a1.32,1.32,0,0,1,.26,0l-.2.79a1.19,1.19,0,0,0-.23,0,1.87,1.87,0,0,0-.34,0,1.84,1.84,0,0,0-.65.13,1.6,1.6,0,0,0-.59.39,2.21,2.21,0,0,0-.47.68,3.21,3.21,0,0,0-.3,1l-.52,3h-.83l.79-4.51C193,72,193,71.78,193.07,71.53Z" fill="#231f20"/><path d="M196.23,77.86a2.43,2.43,0,0,0,.87.73,2.59,2.59,0,0,0,1.23.29,2.8,2.8,0,0,0,1.06-.18,2,2,0,0,0,.75-.49,2.61,2.61,0,0,0,.47-.73,4.74,4.74,0,0,0,.26-.88l.21-1.1h0a2.69,2.69,0,0,1-1,.85,2.61,2.61,0,0,1-1.24.3,3,3,0,0,1-1.07-.19,2.5,2.5,0,0,1-.81-.54,2.42,2.42,0,0,1-.51-.81,2.66,2.66,0,0,1-.18-1,3.6,3.6,0,0,1,.25-1.32,3.43,3.43,0,0,1,.71-1.08,3.29,3.29,0,0,1,2.41-1,2.56,2.56,0,0,1,.62.07,2.25,2.25,0,0,1,.58.22,2.07,2.07,0,0,1,.47.37,1.72,1.72,0,0,1,.34.49h0l.19-1h.81l-1,5.74a9.93,9.93,0,0,1-.26,1,3.09,3.09,0,0,1-.54,1,2.86,2.86,0,0,1-1,.75,3.7,3.7,0,0,1-1.57.29,3.65,3.65,0,0,1-1.54-.31,2.8,2.8,0,0,1-1.11-.85Zm.9-3.73a1.85,1.85,0,0,0,.13.7,1.71,1.71,0,0,0,.36.59,1.49,1.49,0,0,0,.58.39A2,2,0,0,0,199,76a2.38,2.38,0,0,0,1.81-.81,2.42,2.42,0,0,0,.52-.86,2.73,2.73,0,0,0,.19-1,2.18,2.18,0,0,0-.13-.72A1.79,1.79,0,0,0,201,72a1.9,1.9,0,0,0-.59-.39,1.94,1.94,0,0,0-.78-.15,2.44,2.44,0,0,0-1,.2,2.21,2.21,0,0,0-.79.55,2.41,2.41,0,0,0-.51.85A3.33,3.33,0,0,0,197.13,74.13Z" fill="#231f20"/><path d="M208,73.1a1.76,1.76,0,0,0,.05-.33,1.65,1.65,0,0,0,0-.21,1,1,0,0,0-.36-.89,1.63,1.63,0,0,0-1-.26,2.62,2.62,0,0,0-1,.2,3,3,0,0,0-.81.49l-.37-.56a3.6,3.6,0,0,1,1-.6,3.54,3.54,0,0,1,1.22-.22,3.35,3.35,0,0,1,.79.09,1.69,1.69,0,0,1,.65.3,1.39,1.39,0,0,1,.45.51,1.64,1.64,0,0,1,.16.76c0,.08,0,.18,0,.31s0,.23,0,.31l-.43,2.35q-.06.33-.09.69a4.88,4.88,0,0,0,0,.61h-.74a3.7,3.7,0,0,1,0-.46c0-.16,0-.33.05-.48h0a4.58,4.58,0,0,1-.5.49,2.29,2.29,0,0,1-.51.32,1.9,1.9,0,0,1-.57.18,3.37,3.37,0,0,1-.66.06,2.47,2.47,0,0,1-.6-.08,1.63,1.63,0,0,1-.57-.25,1.43,1.43,0,0,1-.42-.46,1.41,1.41,0,0,1-.16-.71,1.57,1.57,0,0,1,.39-1.11,2.54,2.54,0,0,1,1-.66,6.55,6.55,0,0,1,1.43-.31C207,73.13,207.51,73.1,208,73.1Zm-.3.63a11,11,0,0,0-1.14.06,4.24,4.24,0,0,0-1.06.21,2,2,0,0,0-.78.43.94.94,0,0,0-.3.73.9.9,0,0,0,.1.46.73.73,0,0,0,.27.28,1.08,1.08,0,0,0,.38.15,2.32,2.32,0,0,0,1.25-.11,2,2,0,0,0,.66-.41,2.44,2.44,0,0,0,.47-.59,2.65,2.65,0,0,0,.26-.73l.08-.48Z" fill="#231f20"/><path d="M212,70.86c0,.16,0,.33-.06.52s0,.35-.07.47h0a2.53,2.53,0,0,1,.86-.83,2.25,2.25,0,0,1,1.13-.3,2.09,2.09,0,0,1,1.46.47,1.63,1.63,0,0,1,.53,1.29,1.51,1.51,0,0,1,0,.3c0,.1,0,.21,0,.32l-.64,3.55h-.83l.57-3.2a3.83,3.83,0,0,0,.07-.73,1.46,1.46,0,0,0-.28-1,1.25,1.25,0,0,0-1-.35,1.74,1.74,0,0,0-.67.13,1.89,1.89,0,0,0-.62.42,2.77,2.77,0,0,0-.52.71,3.53,3.53,0,0,0-.32,1l-.52,3h-.83l.8-4.51c0-.16.06-.36.1-.61s.06-.47.08-.67Z" fill="#231f20"/><path d="M222.19,75.42h0l3.64-7.52h1.07l.72,7.52h0l3.59-7.52h.94L228,76.65h-1l-.7-7.54h0l-3.69,7.54h-1l-.9-8.75h.94Z" fill="#231f20"/><path d="M235.3,70.72a2.09,2.09,0,0,1,1.46.47,1.63,1.63,0,0,1,.53,1.29,1.51,1.51,0,0,1,0,.3c0,.1,0,.21,0,.32l-.64,3.55h-.83l.57-3.2a3.83,3.83,0,0,0,.07-.73,1.41,1.41,0,0,0-.29-1,1.27,1.27,0,0,0-1-.35,1.72,1.72,0,0,0-.66.13,1.8,1.8,0,0,0-.62.42,2.72,2.72,0,0,0-.5.71,3.53,3.53,0,0,0-.32,1l-.52,3h-.82l1.64-9.34h.83l-.79,4.51h0a2.33,2.33,0,0,1,.84-.81A2.3,2.3,0,0,1,235.3,70.72Z" fill="#231f20"/><path d="M239.45,76.65h-.82l1-5.79h.83Zm1.52-8a.6.6,0,0,1-.16.42.57.57,0,0,1-.42.17.59.59,0,0,1-.4-.15.52.52,0,0,1-.17-.41.58.58,0,0,1,.18-.43.61.61,0,0,1,.42-.17.54.54,0,0,1,.39.15A.55.55,0,0,1,241,68.63Z" fill="#231f20"/><path d="M244.84,71.56h-1.57l-.6,3.39a2,2,0,0,0,0,.4.62.62,0,0,0,.2.54.89.89,0,0,0,.52.14,1.89,1.89,0,0,0,.38,0,.87.87,0,0,0,.32-.15l-.1.72a1.24,1.24,0,0,1-.41.13,3.12,3.12,0,0,1-.54,0,2.18,2.18,0,0,1-.43,0,1,1,0,0,1-.39-.18,1,1,0,0,1-.3-.35,1.21,1.21,0,0,1-.11-.57,2.88,2.88,0,0,1,0-.39l.64-3.62h-1.19l.13-.7h1.18l.28-1.63h.83l-.29,1.63H245Z" fill="#231f20"/><path d="M246,74a.78.78,0,0,0,0,.14.62.62,0,0,0,0,.13,2,2,0,0,0,.14.75,1.82,1.82,0,0,0,.4.58,1.79,1.79,0,0,0,.59.39,2,2,0,0,0,.74.13,2.25,2.25,0,0,0,1.18-.3,2.86,2.86,0,0,0,.82-.71l.52.49a3.21,3.21,0,0,1-1.18.91,3.42,3.42,0,0,1-1.42.31,3,3,0,0,1-1-.18,2.29,2.29,0,0,1-1.39-1.29,2.85,2.85,0,0,1-.2-1.08,3.64,3.64,0,0,1,.26-1.35A3.51,3.51,0,0,1,247.18,71a3,3,0,0,1,1.32-.29,2.4,2.4,0,0,1,1.8.63,2.27,2.27,0,0,1,.61,1.63q0,.15,0,.45a3,3,0,0,1-.08.55Zm4-.62c0-.07,0-.14,0-.22a1.55,1.55,0,0,0,0-.21,1.5,1.5,0,0,0-.41-1.1,1.59,1.59,0,0,0-1.2-.42,2.32,2.32,0,0,0-.84.15,2.43,2.43,0,0,0-.69.43,2.56,2.56,0,0,0-.52.62,2.38,2.38,0,0,0-.29.75Z" fill="#231f20"/><path d="M259.19,76.1a5.53,5.53,0,0,0,1.39-.16,3.76,3.76,0,0,0,1.09-.43l.47-2.68h-2.06l.13-.75h2.93L262.45,76a6.11,6.11,0,0,1-1.61.65,7.26,7.26,0,0,1-1.7.2,4.51,4.51,0,0,1-1.6-.27,3.56,3.56,0,0,1-1.24-.77,3.36,3.36,0,0,1-.81-1.18,4.06,4.06,0,0,1-.28-1.54,5.38,5.38,0,0,1,.41-2.12,5.23,5.23,0,0,1,2.78-2.89,5,5,0,0,1,2-.42,4.08,4.08,0,0,1,.93.1,3.51,3.51,0,0,1,.83.27,3,3,0,0,1,.69.44,2.44,2.44,0,0,1,.49.58l-.81.53a1.51,1.51,0,0,0-.29-.42,1.91,1.91,0,0,0-.46-.37,2.7,2.7,0,0,0-.62-.27,3.22,3.22,0,0,0-.79-.1,3.78,3.78,0,0,0-1.72.39,4.29,4.29,0,0,0-1.35,1A4.77,4.77,0,0,0,256.15,73a3.36,3.36,0,0,0,.2,1.2,2.69,2.69,0,0,0,.58,1,2.92,2.92,0,0,0,.95.65A3.33,3.33,0,0,0,259.19,76.1Z" fill="#231f20"/><path d="M265.19,71.53c0-.25.06-.47.08-.67h.79c0,.16,0,.33-.06.52s-.05.35-.08.47h0a2.64,2.64,0,0,1,.81-.82,2,2,0,0,1,1.11-.31h.29a1.32,1.32,0,0,1,.26,0l-.2.79a1.19,1.19,0,0,0-.23,0,1.87,1.87,0,0,0-.34,0,1.84,1.84,0,0,0-.65.13,1.6,1.6,0,0,0-.59.39,2.4,2.4,0,0,0-.47.68,3.21,3.21,0,0,0-.3,1l-.52,3h-.83l.79-4.51C265.11,72,265.15,71.78,265.19,71.53Z" fill="#231f20"/><path d="M270.93,76.8a3.14,3.14,0,0,1-1.08-.19,2.33,2.33,0,0,1-1.4-1.3,2.61,2.61,0,0,1-.19-1,3.66,3.66,0,0,1,1-2.52,3.53,3.53,0,0,1,1.09-.77,3.31,3.31,0,0,1,1.38-.28,3.06,3.06,0,0,1,1.08.18,2.23,2.23,0,0,1,.84.51,2.21,2.21,0,0,1,.55.79,2.53,2.53,0,0,1,.2,1,3.82,3.82,0,0,1-.25,1.4,3.6,3.6,0,0,1-.71,1.14,3.5,3.5,0,0,1-1.09.76A3.31,3.31,0,0,1,270.93,76.8Zm2.57-3.53a2.21,2.21,0,0,0-.13-.74,1.62,1.62,0,0,0-.36-.59,1.9,1.9,0,0,0-.59-.39,2.07,2.07,0,0,0-.77-.14,2.1,2.1,0,0,0-1,.23,2.5,2.5,0,0,0-.79.62,2.87,2.87,0,0,0-.52.9,3,3,0,0,0-.19,1.09,2.15,2.15,0,0,0,.12.73,1.54,1.54,0,0,0,.36.59,1.65,1.65,0,0,0,.58.39,1.89,1.89,0,0,0,.77.14,2.18,2.18,0,0,0,1-.23,2.36,2.36,0,0,0,.79-.61,2.5,2.5,0,0,0,.52-.9A3.29,3.29,0,0,0,273.5,73.27Z" fill="#231f20"/><path d="M279.54,76.65c0-.16,0-.33.06-.52s0-.35.07-.47h0a2.44,2.44,0,0,1-.86.83,2.22,2.22,0,0,1-1.12.31,2.13,2.13,0,0,1-1.46-.47,1.67,1.67,0,0,1-.53-1.29c0-.1,0-.2,0-.3s0-.2,0-.32l.64-3.54h.84l-.57,3.2a3.88,3.88,0,0,0-.08.73,1.46,1.46,0,0,0,.29,1,1.22,1.22,0,0,0,1,.34,1.74,1.74,0,0,0,.67-.13,1.89,1.89,0,0,0,.62-.42,2.75,2.75,0,0,0,.51-.7,3.16,3.16,0,0,0,.32-1l.52-3h.83l-.79,4.51c0,.15-.07.35-.11.6s-.06.46-.08.66Z" fill="#231f20"/><path d="M284.2,71.8a2.6,2.6,0,0,1,.35-.42,2.66,2.66,0,0,1,.51-.34,2.81,2.81,0,0,1,.59-.24,2.51,2.51,0,0,1,.67-.08,3,3,0,0,1,1.07.18,2.23,2.23,0,0,1,.82.51,2.16,2.16,0,0,1,.53.79,2.53,2.53,0,0,1,.19,1,3.83,3.83,0,0,1-.26,1.4,3.6,3.6,0,0,1-.71,1.14,3.35,3.35,0,0,1-1.08.76,3.17,3.17,0,0,1-1.35.29,2.54,2.54,0,0,1-1.18-.29,1.87,1.87,0,0,1-.83-.84h0l-.7,3.94H282l1.56-8.75h.83l-.18.94Zm3.86,1.47a2.19,2.19,0,0,0-.11-.73,1.62,1.62,0,0,0-.36-.59,1.63,1.63,0,0,0-.56-.4,2.13,2.13,0,0,0-.78-.14,2.37,2.37,0,0,0-1,.22,2.55,2.55,0,0,0-.81.61,3,3,0,0,0-.54.91,2.8,2.8,0,0,0-.2,1.08,2,2,0,0,0,.13.75,1.64,1.64,0,0,0,1,1,2.11,2.11,0,0,0,.77.13,2.36,2.36,0,0,0,1-.22,2.47,2.47,0,0,0,.79-.61,2.71,2.71,0,0,0,.52-.89A3.68,3.68,0,0,0,288.06,73.27Z" fill="#231f20"/><circle cx="44.8" cy="45.66" r="44.59" fill="none" stroke="#231f20" stroke-miterlimit="10" stroke-width="2.14"/><path d="M71.67,33.68a8.26,8.26,0,0,1,6.06,2.55,14.46,14.46,0,0,1,2.93,5.05c.07.22.14.33.36.29l.88-.15c.15,0,.15-.21.15-.51l-.37-7.31c0-.29-.07-.51-.44-.51-.22,0-.33.11-.51.37l-.44.58c-.22.29-.44.4-.88.07a13.47,13.47,0,0,0-7.45-2c-6.75,0-11.59,1.45-14.72,11.19l-3,7.83L49.69,40.93S47.78,36.37,47,36.37s-2.79,4.25-2.79,4.25S39.23,51.18,38.94,52l-.08,0L33.18,35a.87.87,0,0,1,.88-1.28h.69c.26,0,.33-.11.33-.29v-.92c0-.18-.07-.25-.29-.25l-3.58.09c-.18,0-.44.53-.71,1.23-1.11,2.5-6.44,14.12-6.74,15h-.15L17,33.26c-.15-.44-.4-.8-.92-.8s-.8.58-.95.95C14.4,35.24,7,55.7,6.58,56.51A1.79,1.79,0,0,1,5,57.71H2c-.22,0-.26.11-.26.3v1c0,.11.08.19.22.19.29,0,3.56-.11,5.61-.11,2.26,0,3.5.11,3.87.11.22,0,.29-.11.29-.3V58c0-.19,0-.3-.25-.3h-1c-.88,0-1.24-.51-1.24-1,0-2,4.16-14.07,5.26-17.29h.15L20,52.46s1.2,2.86,1.95,2.86c1.15,0,2.87-4,2.87-4s4.94-11,5.23-11.78l.07,0,5.69,16.89a.87.87,0,0,1-.88,1.27H34.2c-.26,0-.33.11-.33.3v.91c0,.18.07.26.29.26s1.23,0,3-.07a1,1,0,0,0,.69-.31,1.11,1.11,0,0,0,.37-.49c.15-.4,6.62-14,6.95-15.05h.14L52,58.2c.14.44.4.81.91.81,2,0,2.61-.78,3.39-3,.41-1.15,2.79-7.86,5-13.56C63.77,35.66,67.71,33.68,71.67,33.68ZM89.18,47.25c-.37,0-7.29.11-10.36.11s-4.75-.11-5.19-.11c-.14,0-.21.07-.21.29v.84c0,.18.07.33.29.33h1.53c1,0,1.32.37,1.32,1.68v2.67c0,1.9-.07,2.92-.88,3.36-1.24.66-2.63.61-5,.61-3.63,0-6.24-2.28-9.24-4.7-.46-.37-.72-.19-.83,0s-.6,1.39-.72,1.7a.87.87,0,0,0,.21,1.06c2.52,2.8,6.82,4,10.29,4A21.13,21.13,0,0,0,80.8,56.64c.36-.14.58-.29.58-.58s-.14-.66-.14-1.17V50.06c0-1.06.44-1.35,1.09-1.35h6.92c.22,0,.29-.07.29-.29V47.5C89.54,47.32,89.47,47.25,89.18,47.25Z" fill="#231f20"/><path d="M404.77,42.92a3.4,3.4,0,0,0-3-1.58,4.48,4.48,0,0,0-1.21.17,3.25,3.25,0,0,0-1.07.53,2.54,2.54,0,0,0-.76.92,2.86,2.86,0,0,0-.29,1.32A2.34,2.34,0,0,0,399,46a4.77,4.77,0,0,0,1.47,1,16.62,16.62,0,0,0,1.93.7,8.56,8.56,0,0,1,1.93.82,4.72,4.72,0,0,1,1.48,1.37,4,4,0,0,1,.59,2.32,4.31,4.31,0,0,1-.45,2,4.55,4.55,0,0,1-1.19,1.48,5.56,5.56,0,0,1-1.65.92,5.66,5.66,0,0,1-1.84.32,6.79,6.79,0,0,1-2.72-.56,5.31,5.31,0,0,1-2.2-1.85l1.46-1.08a3.79,3.79,0,0,0,1.4,1.44,4.06,4.06,0,0,0,2.13.54,3.81,3.81,0,0,0,1.19-.2,3.39,3.39,0,0,0,1.06-.57,3.17,3.17,0,0,0,.78-.93,2.5,2.5,0,0,0,.31-1.26,2.69,2.69,0,0,0-.34-1.42,3.22,3.22,0,0,0-.9-.94,5.87,5.87,0,0,0-1.28-.63l-1.48-.5a14.48,14.48,0,0,1-1.47-.58,4.8,4.8,0,0,1-1.28-.81,3.58,3.58,0,0,1-.9-1.24,4.46,4.46,0,0,1-.35-1.87,4.64,4.64,0,0,1,.43-2A4.23,4.23,0,0,1,398.28,41a5,5,0,0,1,1.62-.85,6.72,6.72,0,0,1,4.25.16,5.27,5.27,0,0,1,2,1.54Z" fill="#231f20"/><path d="M411.22,55h8.35v1.52h-9.93V40.24h9.67v1.51h-8.09v5.53h7.56V48.8h-7.56Z" fill="#231f20"/><path d="M424.29,56.49H422.7V40.24h4.8a5.94,5.94,0,0,1,3.76,1.08,3.88,3.88,0,0,1,1.38,3.26,4.16,4.16,0,0,1-1,2.85,4.32,4.32,0,0,1-3,1.35l4.49,7.71H431.2l-4.27-7.55h-2.64Zm0-9.07h2.82a5.85,5.85,0,0,0,1.79-.23,3.12,3.12,0,0,0,1.18-.61,2.23,2.23,0,0,0,.64-.89,3.08,3.08,0,0,0,.2-1.11,3,3,0,0,0-.2-1.09,2.29,2.29,0,0,0-.64-.91A3.12,3.12,0,0,0,428.9,42a6.58,6.58,0,0,0-1.79-.22h-2.82Z" fill="#231f20"/><path d="M440.43,54h.05l5.11-13.77h1.72l-6.08,16.25h-1.59l-5.93-16.25h1.77Z" fill="#231f20"/><path d="M450.94,56.49h-1.59V40.24h1.59Z" fill="#231f20"/><path d="M468,53.92a6.21,6.21,0,0,1-1,1.17,6.52,6.52,0,0,1-1.33.95,7.18,7.18,0,0,1-1.62.63,7.3,7.3,0,0,1-1.84.23,8.06,8.06,0,0,1-3.23-.64,7.74,7.74,0,0,1-2.57-1.78,8.18,8.18,0,0,1-1.71-2.7,9.74,9.74,0,0,1,0-6.84,8,8,0,0,1,1.71-2.69A7.74,7.74,0,0,1,459,40.47a8.06,8.06,0,0,1,3.23-.64,7.76,7.76,0,0,1,2.91.59,5.91,5.91,0,0,1,2.49,2l-1.39,1.08a3.8,3.8,0,0,0-.66-.78,4.9,4.9,0,0,0-1-.69,6.22,6.22,0,0,0-1.15-.49,4.48,4.48,0,0,0-1.24-.18,6.17,6.17,0,0,0-2.69.57,6.27,6.27,0,0,0-2,1.54,7,7,0,0,0-1.27,2.24,8.35,8.35,0,0,0,0,5.35,6.89,6.89,0,0,0,1.27,2.23,6,6,0,0,0,2,1.54,6.17,6.17,0,0,0,2.69.58,6.41,6.41,0,0,0,1.23-.12,5.1,5.1,0,0,0,1.18-.39,4.35,4.35,0,0,0,1.11-.75,5.27,5.27,0,0,0,.95-1.18Z" fill="#231f20"/><path d="M472.27,55h8.35v1.52h-9.94V40.24h9.67v1.51h-8.08v5.53h7.55V48.8h-7.55Z" fill="#231f20"/><path d="M491.12,42.92a3.38,3.38,0,0,0-3-1.58,4.53,4.53,0,0,0-1.21.17,3.3,3.3,0,0,0-1.06.53,2.67,2.67,0,0,0-.77.92,2.86,2.86,0,0,0-.28,1.32,2.38,2.38,0,0,0,.59,1.71,4.82,4.82,0,0,0,1.48,1,16.62,16.62,0,0,0,1.93.7,8.48,8.48,0,0,1,1.92.82,4.72,4.72,0,0,1,1.48,1.37,4,4,0,0,1,.6,2.32,4.31,4.31,0,0,1-.46,2,4.42,4.42,0,0,1-1.19,1.48,5.61,5.61,0,0,1-3.49,1.24,6.83,6.83,0,0,1-2.72-.56,5.22,5.22,0,0,1-2.19-1.85l1.45-1.08a3.89,3.89,0,0,0,1.41,1.44,4.06,4.06,0,0,0,2.13.54,3.86,3.86,0,0,0,1.19-.2,3.39,3.39,0,0,0,1.06-.57,3.51,3.51,0,0,0,.78-.93,2.61,2.61,0,0,0,.31-1.26,2.79,2.79,0,0,0-.34-1.42,3.13,3.13,0,0,0-.91-.94,5.65,5.65,0,0,0-1.28-.63c-.47-.17-1-.33-1.47-.5a14.66,14.66,0,0,1-1.48-.58,5.14,5.14,0,0,1-1.28-.81,3.71,3.71,0,0,1-.9-1.24,5.17,5.17,0,0,1,.09-3.91A4.23,4.23,0,0,1,484.64,41a4.87,4.87,0,0,1,1.61-.85,6.47,6.47,0,0,1,1.85-.27,6.39,6.39,0,0,1,2.41.43,5.25,5.25,0,0,1,2,1.54Z" fill="#231f20"/><path d="M117.55,56.66l-4.81-8.8h-1.83v8.8h-5.23V34.48h8.46a14.76,14.76,0,0,1,3.12.33A8.12,8.12,0,0,1,120,35.92,5.73,5.73,0,0,1,121.91,38a6.43,6.43,0,0,1,.72,3.19A5.9,5.9,0,0,1,121.41,45a6.65,6.65,0,0,1-3.39,2.2l5.8,9.49Zm-.22-15.38A2.19,2.19,0,0,0,117,40a2.12,2.12,0,0,0-.85-.75A3.5,3.5,0,0,0,115,38.9a7.76,7.76,0,0,0-1.24-.1h-2.87V44h2.55a9,9,0,0,0,1.35-.11,4,4,0,0,0,1.26-.39,2.28,2.28,0,0,0,1.29-2.19Z" fill="#231f20"/><path d="M125.76,56.66V34.48h14.91V39h-9.74v4.2h9.21v4.29h-9.21v4.6h10.31v4.58Z" fill="#231f20"/><path d="M153.75,39.05V56.66h-5.36V39.05h-6.27V34.48H160v4.57Z" fill="#231f20"/><path d="M161.7,56.66V34.48h5.39V56.66Z" fill="#231f20"/><path d="M182.93,56.66l-4.81-8.8h-1.83v8.8h-5.23V34.48h8.46a14.59,14.59,0,0,1,3.11.33,8.09,8.09,0,0,1,2.73,1.11A5.82,5.82,0,0,1,187.29,38a6.43,6.43,0,0,1,.72,3.19A5.9,5.9,0,0,1,186.79,45a6.69,6.69,0,0,1-3.39,2.2l5.8,9.49Zm-.22-15.38a2.19,2.19,0,0,0-.33-1.27,2.12,2.12,0,0,0-.85-.75,3.5,3.5,0,0,0-1.16-.36,7.79,7.79,0,0,0-1.25-.1h-2.86V44h2.55a9,9,0,0,0,1.35-.11,4.13,4.13,0,0,0,1.26-.39,2.28,2.28,0,0,0,1.29-2.19Z" fill="#231f20"/><path d="M191.14,56.66V34.48h14.91V39h-9.74v4.2h9.21v4.29h-9.21v4.6h10.31v4.58Z" fill="#231f20"/><path d="M229.86,56.66,230,41h-.09l-5.77,15.7h-3.76L214.76,41h-.1l.13,15.7h-5V34.48h7.62l5.06,14.22h.12l4.83-14.22h7.75V56.66Z" fill="#231f20"/><path d="M239.08,56.66V34.48H254V39h-9.74v4.2h9.21v4.29h-9.21v4.6h10.3v4.58Z" fill="#231f20"/><path d="M271.78,56.66l-8.93-14.51h-.09l.12,14.51h-5.2V34.48h6.11L272.69,49h.09l-.12-14.47h5.2V56.66Z" fill="#231f20"/><path d="M291.16,39.05V56.66H285.8V39.05h-6.27V34.48h17.89v4.57Z" fill="#231f20"/><path d="M323.33,41.31a6.81,6.81,0,0,1-.72,3.27,6,6,0,0,1-1.94,2.15,8.72,8.72,0,0,1-2.82,1.19,14.56,14.56,0,0,1-3.32.37h-2.67v8.37h-5.35V34.48h8.14a15.35,15.35,0,0,1,3.4.36A8,8,0,0,1,320.81,36a5.62,5.62,0,0,1,1.85,2.1A7,7,0,0,1,323.33,41.31Zm-5.36,0a2.42,2.42,0,0,0-.31-1.29,2.21,2.21,0,0,0-.85-.78,3.44,3.44,0,0,0-1.2-.37,9.14,9.14,0,0,0-1.4-.1h-2.35V44h2.26a8.39,8.39,0,0,0,1.44-.12,4.05,4.05,0,0,0,1.24-.44,2.45,2.45,0,0,0,.86-.83A2.48,2.48,0,0,0,318,41.34Z" fill="#231f20"/><path d="M325.38,56.66V34.48h5.39V52h8.59v4.67Z" fill="#231f20"/><path d="M357.52,56.66,355.8,52.3h-8.58l-1.63,4.36h-5.83l9.31-22.18h5.2l9.21,22.18ZM351.57,40.4,348.75,48h5.58Z" fill="#231f20"/><path d="M379,56.66,370,42.15h-.09l.12,14.51h-5.2V34.48H371L379.87,49H380l-.12-14.47H385V56.66Z" fill="#231f20"/></svg>