<svg xmlns="http://www.w3.org/2000/svg" viewBox="0 0 500.81 98.32"><title>color</title><path d="M109,80.14h-1l5.63-8.75h.87l1.82,8.75h-.93l-.47-2.3H110.4ZM110.9,77h3.83l-.91-4.65Z" fill="#808285"/><path d="M120.13,77.79a3.77,3.77,0,0,1,.26-1.39,3.33,3.33,0,0,1,.71-1.14,3.37,3.37,0,0,1,1.08-.77,3.17,3.17,0,0,1,1.35-.28,2.53,2.53,0,0,1,1.18.28,1.83,1.83,0,0,1,.83.84h0l.8-4.53h.83l-1.66,9.34h-.82l.17-1h0A2.41,2.41,0,0,1,124,80a2.48,2.48,0,0,1-1.27.33,3,3,0,0,1-1.07-.18,2.37,2.37,0,0,1-.82-.51,2.34,2.34,0,0,1-.53-.79A2.61,2.61,0,0,1,120.13,77.79Zm.87-.05a2.15,2.15,0,0,0,.12.73,1.54,1.54,0,0,0,.35.59,1.45,1.45,0,0,0,.57.39,1.86,1.86,0,0,0,.77.15,2.35,2.35,0,0,0,1-.23,2.55,2.55,0,0,0,.81-.61,2.94,2.94,0,0,0,.55-.9,3,3,0,0,0,.19-1.09,2,2,0,0,0-.13-.75,1.73,1.73,0,0,0-.37-.59,1.64,1.64,0,0,0-.6-.39,2.06,2.06,0,0,0-.76-.14,2.32,2.32,0,0,0-1,.22,2.4,2.4,0,0,0-.8.61,2.84,2.84,0,0,0-.51.9A3.31,3.31,0,0,0,121,77.74Z" fill="#808285"/><path d="M128.52,80.14h-.83l1-5.78h.83Zm1.52-8a.57.57,0,0,1-.16.42.55.55,0,0,1-.42.17.63.63,0,0,1-.4-.14.53.53,0,0,1-.17-.41.55.55,0,0,1,.18-.43.58.58,0,0,1,.42-.18.55.55,0,0,1,.55.57Z" fill="#808285"/><path d="M132.7,80.14h-.89l-1.21-5.78h.85l.93,4.89h0l2.88-4.89h.9Z" fill="#808285"/><path d="M137.2,80.14h-.83l1-5.78h.82Zm1.52-8a.57.57,0,0,1-.17.42.53.53,0,0,1-.41.17.66.66,0,0,1-.41-.14.53.53,0,0,1-.16-.41.62.62,0,0,1,.59-.61.54.54,0,0,1,.4.16A.57.57,0,0,1,138.72,72.12Z" fill="#808285"/><path d="M143.21,75.63a1.36,1.36,0,0,0-.51-.53,1.7,1.7,0,0,0-.83-.2,2.59,2.59,0,0,0-.47,0,1.65,1.65,0,0,0-.44.16.85.85,0,0,0-.33.29.77.77,0,0,0,.18,1.08,1.27,1.27,0,0,0,.35.18,3.53,3.53,0,0,0,.49.16,3.45,3.45,0,0,1,1.29.62,1.32,1.32,0,0,1,.45,1.07,1.53,1.53,0,0,1-.21.81,1.86,1.86,0,0,1-.53.55,2.33,2.33,0,0,1-.72.32,3,3,0,0,1-.78.1,3.44,3.44,0,0,1-1.36-.27,2.13,2.13,0,0,1-1-.82l.72-.47a1.76,1.76,0,0,0,.63.61,1.83,1.83,0,0,0,1,.26,2.48,2.48,0,0,0,.54-.06,1.68,1.68,0,0,0,.46-.17,1.08,1.08,0,0,0,.33-.31.84.84,0,0,0,.12-.45.78.78,0,0,0-.36-.7,4.38,4.38,0,0,0-1-.47c-.17-.06-.34-.12-.52-.2a1.75,1.75,0,0,1-.47-.29,1.29,1.29,0,0,1-.47-1,1.36,1.36,0,0,1,.21-.77,1.65,1.65,0,0,1,.52-.53,2.06,2.06,0,0,1,.71-.3,3,3,0,0,1,.79-.1,2.7,2.7,0,0,1,1.19.26,1.66,1.66,0,0,1,.76.69Z" fill="#808285"/><path d="M145.45,80.14h-.83l1-5.78h.83Zm1.52-8a.54.54,0,0,1-.17.42.53.53,0,0,1-.41.17.61.61,0,0,1-.4-.14.53.53,0,0,1-.17-.41.55.55,0,0,1,.18-.43.58.58,0,0,1,.42-.18.55.55,0,0,1,.55.57Z" fill="#808285"/><path d="M150.18,80.29a2.9,2.9,0,0,1-1.07-.19,2.5,2.5,0,0,1-.85-.51,2.34,2.34,0,0,1-.55-.79,2.61,2.61,0,0,1-.2-1,3.72,3.72,0,0,1,.26-1.38,3.39,3.39,0,0,1,.71-1.13A3.29,3.29,0,0,1,151,74.21a3.1,3.1,0,0,1,1.08.18,2.37,2.37,0,0,1,.84.51,2.3,2.3,0,0,1,.55.79,2.56,2.56,0,0,1,.2,1,4,4,0,0,1-.25,1.4,3.39,3.39,0,0,1-3.19,2.19Zm2.57-3.53a2.21,2.21,0,0,0-.12-.74,1.71,1.71,0,0,0-.36-.59,1.9,1.9,0,0,0-.59-.39,2.11,2.11,0,0,0-.77-.14,2.2,2.2,0,0,0-1,.23,2.39,2.39,0,0,0-.79.62,3.1,3.1,0,0,0-.53.9,3.33,3.33,0,0,0-.19,1.09,1.93,1.93,0,0,0,.13.73,1.54,1.54,0,0,0,.36.59,1.56,1.56,0,0,0,.58.39,1.89,1.89,0,0,0,.77.15,2.31,2.31,0,0,0,1-.23,2.65,2.65,0,0,0,.79-.62,2.71,2.71,0,0,0,.52-.89A3.34,3.34,0,0,0,152.75,76.76Z" fill="#808285"/><path d="M156.52,74.36c0,.15,0,.33-.06.52s-.05.34-.07.47h0a2.38,2.38,0,0,1,.86-.84,2.24,2.24,0,0,1,1.12-.3,2.14,2.14,0,0,1,1.47.47,1.67,1.67,0,0,1,.53,1.3c0,.09,0,.19,0,.29s0,.21,0,.32l-.64,3.55h-.83l.57-3.2a3.83,3.83,0,0,0,.07-.73,1.5,1.5,0,0,0-.28-1,1.25,1.25,0,0,0-1-.35,1.75,1.75,0,0,0-.67.14,2,2,0,0,0-.63.42,2.81,2.81,0,0,0-.51.71,3.46,3.46,0,0,0-.32,1l-.52,3h-.83l.79-4.51c0-.16.07-.36.11-.61s.06-.47.08-.66Z" fill="#808285"/><path d="M167.29,80.29a2.92,2.92,0,0,1-1.08-.19,2.33,2.33,0,0,1-1.4-1.3,2.61,2.61,0,0,1-.19-1,3.72,3.72,0,0,1,.25-1.38,3.39,3.39,0,0,1,.71-1.13,3.29,3.29,0,0,1,2.47-1.06,3.06,3.06,0,0,1,1.08.18,2.37,2.37,0,0,1,.84.51,2.3,2.3,0,0,1,.55.79,2.56,2.56,0,0,1,.2,1,3.82,3.82,0,0,1-.25,1.4,3.32,3.32,0,0,1-1.8,1.9A3.31,3.31,0,0,1,167.29,80.29Zm2.57-3.53a2.21,2.21,0,0,0-.13-.74,1.71,1.71,0,0,0-.36-.59,1.9,1.9,0,0,0-.59-.39,2.11,2.11,0,0,0-.77-.14,2.23,2.23,0,0,0-1,.23,2.5,2.5,0,0,0-.79.62,2.87,2.87,0,0,0-.52.9,3.09,3.09,0,0,0-.19,1.09,2.15,2.15,0,0,0,.12.73,1.54,1.54,0,0,0,.36.59,1.65,1.65,0,0,0,.58.39,1.89,1.89,0,0,0,.77.15,2.31,2.31,0,0,0,1-.23,2.53,2.53,0,0,0,.79-.62,2.71,2.71,0,0,0,.52-.89A3.34,3.34,0,0,0,169.86,76.76Z" fill="#808285"/><path d="M175.18,75.05h-1.36l-.89,5.09h-.83l.89-5.09h-1.22l.14-.69h1.19l.28-1.57a3.68,3.68,0,0,1,.23-.82,2.25,2.25,0,0,1,.43-.68,2,2,0,0,1,.63-.47,2.14,2.14,0,0,1,.87-.17l.33,0a1.45,1.45,0,0,1,.35.07l-.2.73a2.08,2.08,0,0,0-.58-.08,1.13,1.13,0,0,0-.51.11.93.93,0,0,0-.36.32,1.88,1.88,0,0,0-.24.47,3.51,3.51,0,0,0-.14.58l-.26,1.49h1.39Z" fill="#808285"/><path d="M183.14,78.63h0l4.24-7.24h1.35l-1.55,8.75h-.88l1.34-7.56h0l-4.49,7.56h-.47l-1.83-7.56h0l-1.33,7.56h-.87l1.55-8.75h1.33Z" fill="#808285"/><path d="M192,80.29a2.9,2.9,0,0,1-1.07-.19,2.33,2.33,0,0,1-1.4-1.3,2.61,2.61,0,0,1-.19-1,3.72,3.72,0,0,1,.25-1.38,3.39,3.39,0,0,1,.71-1.13,3.29,3.29,0,0,1,2.47-1.06,3.06,3.06,0,0,1,1.08.18,2.37,2.37,0,0,1,.84.51,2.3,2.3,0,0,1,.55.79,2.56,2.56,0,0,1,.2,1,4,4,0,0,1-.25,1.4,3.32,3.32,0,0,1-1.8,1.9A3.32,3.32,0,0,1,192,80.29Zm2.57-3.53a2.21,2.21,0,0,0-.12-.74,1.71,1.71,0,0,0-.36-.59,1.9,1.9,0,0,0-.59-.39,2.11,2.11,0,0,0-.77-.14,2.23,2.23,0,0,0-1,.23,2.39,2.39,0,0,0-.79.62,2.87,2.87,0,0,0-.52.9,3.09,3.09,0,0,0-.19,1.09,2.15,2.15,0,0,0,.12.73,1.54,1.54,0,0,0,.36.59,1.56,1.56,0,0,0,.58.39,1.89,1.89,0,0,0,.77.15,2.31,2.31,0,0,0,1-.23,2.53,2.53,0,0,0,.79-.62,2.71,2.71,0,0,0,.52-.89A3.34,3.34,0,0,0,194.55,76.76Z" fill="#808285"/><path d="M197.44,75c0-.24.06-.47.08-.66h.79c0,.15,0,.33-.06.52s-.05.34-.07.47h0a2.6,2.6,0,0,1,.82-.83,2,2,0,0,1,1.11-.31h.28l.26,0-.2.79-.22,0-.34,0a1.84,1.84,0,0,0-.66.12,1.68,1.68,0,0,0-.59.39,2.8,2.8,0,0,0-.47.68,4.13,4.13,0,0,0-.3,1l-.52,3h-.83l.8-4.51C197.37,75.47,197.4,75.27,197.44,75Z" fill="#808285"/><path d="M200.6,81.35a2.29,2.29,0,0,0,.87.74,2.66,2.66,0,0,0,1.23.29,2.83,2.83,0,0,0,1.06-.18,2.06,2.06,0,0,0,.74-.5A2.23,2.23,0,0,0,205,81a4.09,4.09,0,0,0,.26-.88l.21-1.1h0a2.71,2.71,0,0,1-1,.85,2.6,2.6,0,0,1-1.23.3,2.76,2.76,0,0,1-1.07-.19,2.33,2.33,0,0,1-1.32-1.34,2.73,2.73,0,0,1-.18-1,3.5,3.5,0,0,1,.25-1.33,3.41,3.41,0,0,1,.7-1.08,3.33,3.33,0,0,1,1.07-.73,3.49,3.49,0,0,1,1.35-.26,2.62,2.62,0,0,1,.62.07,2.35,2.35,0,0,1,.57.23,1.89,1.89,0,0,1,.48.36,1.63,1.63,0,0,1,.33.49h0l.18-1h.82l-1,5.73a6.17,6.17,0,0,1-.26,1,2.92,2.92,0,0,1-.53,1,3.08,3.08,0,0,1-1,.74,3.57,3.57,0,0,1-1.57.3,3.86,3.86,0,0,1-1.55-.31,2.82,2.82,0,0,1-1.11-.86Zm.9-3.73a2,2,0,0,0,.12.7,1.62,1.62,0,0,0,.36.59,1.72,1.72,0,0,0,.58.4,2.18,2.18,0,0,0,.79.14,2.31,2.31,0,0,0,1-.22,2.35,2.35,0,0,0,.8-.59,2.81,2.81,0,0,0,.52-.85,3,3,0,0,0,.18-1,2,2,0,0,0-.13-.72,1.64,1.64,0,0,0-.37-.59,1.85,1.85,0,0,0-.58-.39,1.94,1.94,0,0,0-.78-.15,2.61,2.61,0,0,0-1,.2,2.21,2.21,0,0,0-.79.55,2.54,2.54,0,0,0-.52.86A3.31,3.31,0,0,0,201.5,77.62Z" fill="#808285"/><path d="M212.41,76.59c0-.14,0-.25.05-.32a1.7,1.7,0,0,0,0-.22,1,1,0,0,0-.36-.89,1.7,1.7,0,0,0-1-.26,2.66,2.66,0,0,0-1,.2,2.94,2.94,0,0,0-.8.49l-.37-.55a3.09,3.09,0,0,1,1-.6,3.3,3.3,0,0,1,1.22-.23,3.33,3.33,0,0,1,.78.09,1.81,1.81,0,0,1,.66.3,1.49,1.49,0,0,1,.44.52,1.61,1.61,0,0,1,.17.76c0,.07,0,.17,0,.3a2,2,0,0,1,0,.31l-.42,2.35c0,.22-.07.46-.1.69s0,.45,0,.61h-.74c0-.14,0-.29,0-.46a3.93,3.93,0,0,1,.06-.48h0a4.53,4.53,0,0,1-.49.49A3.67,3.67,0,0,1,211,80a2.7,2.7,0,0,1-.57.18,4.43,4.43,0,0,1-.66,0,2.6,2.6,0,0,1-.61-.07,1.6,1.6,0,0,1-.56-.26,1.43,1.43,0,0,1-.42-.46,1.37,1.37,0,0,1-.17-.7,1.54,1.54,0,0,1,.4-1.12,2.51,2.51,0,0,1,1-.66,6.42,6.42,0,0,1,1.43-.31C211.34,76.62,211.87,76.59,212.41,76.59Zm-.31.63a11.17,11.17,0,0,0-1.14.06,5.27,5.27,0,0,0-1.05.21,2.08,2.08,0,0,0-.78.43,1,1,0,0,0-.3.74.88.88,0,0,0,.1.45.7.7,0,0,0,.26.28,1.16,1.16,0,0,0,.38.15,2.18,2.18,0,0,0,.44,0,2.39,2.39,0,0,0,.82-.14,2.17,2.17,0,0,0,.65-.41,2.27,2.27,0,0,0,.47-.6,2.4,2.4,0,0,0,.26-.72l.09-.49Z" fill="#808285"/><path d="M216.34,74.36c0,.15,0,.33-.06.52s-.05.34-.08.47h0a2.38,2.38,0,0,1,.86-.84,2.21,2.21,0,0,1,1.12-.3,2.14,2.14,0,0,1,1.47.47,1.67,1.67,0,0,1,.53,1.3c0,.09,0,.19,0,.29s0,.21,0,.32l-.64,3.55h-.84l.57-3.2a3.88,3.88,0,0,0,.08-.73,1.5,1.5,0,0,0-.29-1,1.23,1.23,0,0,0-1-.35,1.83,1.83,0,0,0-.67.14,1.89,1.89,0,0,0-.62.42,2.81,2.81,0,0,0-.51.71,3.18,3.18,0,0,0-.32,1l-.52,3h-.83l.79-4.51c0-.16.07-.36.11-.61s.06-.47.08-.66Z" fill="#808285"/><path d="M226.56,78.92h0l3.65-7.53h1.06l.73,7.53h0l3.6-7.53h.94l-4.26,8.75h-1l-.71-7.54h0l-3.7,7.54h-1l-.91-8.75h.94Z" fill="#808285"/><path d="M239.67,74.21a2.15,2.15,0,0,1,1.46.47,1.67,1.67,0,0,1,.53,1.3c0,.09,0,.19,0,.29s0,.21,0,.32L241,80.14h-.83l.56-3.2a3.88,3.88,0,0,0,.08-.73,1.5,1.5,0,0,0-.29-1,1.29,1.29,0,0,0-1-.35,1.79,1.79,0,0,0-.67.14,1.89,1.89,0,0,0-.62.42,2.79,2.79,0,0,0-.5.71,3.46,3.46,0,0,0-.31,1l-.52,3H236l1.64-9.34h.83l-.79,4.51h0a2.22,2.22,0,0,1,.84-.8A2.15,2.15,0,0,1,239.67,74.21Z" fill="#808285"/><path d="M243.82,80.14H243l1-5.78h.83Zm1.52-8a.57.57,0,0,1-.17.42.53.53,0,0,1-.41.17.61.61,0,0,1-.4-.14.53.53,0,0,1-.17-.41.55.55,0,0,1,.18-.43.57.57,0,0,1,.41-.18.54.54,0,0,1,.4.16A.53.53,0,0,1,245.34,72.12Z" fill="#808285"/><path d="M249.21,75.05h-1.57L247,78.44a3,3,0,0,0,0,.4.64.64,0,0,0,.19.55.93.93,0,0,0,.52.13,1.89,1.89,0,0,0,.39,0,.79.79,0,0,0,.32-.15l-.1.72a1.39,1.39,0,0,1-.42.13,3,3,0,0,1-.53,0,1.58,1.58,0,0,1-.43,0,.92.92,0,0,1-.69-.53,1.15,1.15,0,0,1-.12-.57,2,2,0,0,1,0-.39l.64-3.62h-1.2l.14-.69h1.17l.29-1.63H248l-.28,1.63h1.59Z" fill="#808285"/><path d="M250.38,77.47s0,.1,0,.14v.13a1.81,1.81,0,0,0,.53,1.33,1.73,1.73,0,0,0,.6.39,1.94,1.94,0,0,0,.73.14,2.2,2.2,0,0,0,1.19-.31,2.69,2.69,0,0,0,.81-.71l.52.5a3.26,3.26,0,0,1-1.17.9,3.3,3.3,0,0,1-1.42.31,3.19,3.19,0,0,1-1-.17,2.39,2.39,0,0,1-.83-.5,2.22,2.22,0,0,1-.56-.8,2.6,2.6,0,0,1-.2-1.08,3.37,3.37,0,0,1,.26-1.34,3.55,3.55,0,0,1,.71-1.13,3.4,3.4,0,0,1,1.06-.77,3.09,3.09,0,0,1,1.31-.29,2.39,2.39,0,0,1,1.8.63,2.23,2.23,0,0,1,.61,1.63,4.23,4.23,0,0,1,0,.45,4,4,0,0,1-.09.55Zm4-.62a1.25,1.25,0,0,0,0-.21c0-.08,0-.15,0-.22a1.52,1.52,0,0,0-.41-1.09,1.56,1.56,0,0,0-1.2-.43,2.18,2.18,0,0,0-.85.16,2.2,2.2,0,0,0-.69.42,2.61,2.61,0,0,0-.51.63,2.5,2.5,0,0,0-.3.74Z" fill="#808285"/><path d="M263.55,79.6a6.12,6.12,0,0,0,1.4-.16A4.06,4.06,0,0,0,266,79l.47-2.68h-2.07l.14-.75h2.93l-.7,3.94a6.05,6.05,0,0,1-1.6.65,6.79,6.79,0,0,1-1.71.2,4.59,4.59,0,0,1-1.6-.27,3.66,3.66,0,0,1-1.24-.77,3.47,3.47,0,0,1-.8-1.18,4,4,0,0,1-.29-1.53,5.57,5.57,0,0,1,.41-2.13,5.44,5.44,0,0,1,1.12-1.72,5.23,5.23,0,0,1,1.66-1.16,4.88,4.88,0,0,1,2-.43,4.08,4.08,0,0,1,.93.1,3.77,3.77,0,0,1,.84.28,3.14,3.14,0,0,1,.68.43,2.08,2.08,0,0,1,.49.59l-.8.53a1.76,1.76,0,0,0-.29-.42,2,2,0,0,0-.47-.38,2.52,2.52,0,0,0-.62-.27,3.15,3.15,0,0,0-.78-.09,3.85,3.85,0,0,0-1.73.38,4.4,4.4,0,0,0-1.34,1,4.59,4.59,0,0,0-.88,1.46,4.8,4.8,0,0,0-.32,1.71,3.6,3.6,0,0,0,.2,1.2,2.71,2.71,0,0,0,.59,1,2.84,2.84,0,0,0,.95.66A3.28,3.28,0,0,0,263.55,79.6Z" fill="#808285"/><path d="M269.55,75a6.18,6.18,0,0,0,.08-.66h.79c0,.15,0,.33-.06.52s-.05.34-.07.47h0a2.71,2.71,0,0,1,.82-.83,2,2,0,0,1,1.11-.31h.28l.26,0-.19.79-.23,0L272,75a1.88,1.88,0,0,0-.66.12,1.57,1.57,0,0,0-.58.39,2.34,2.34,0,0,0-.47.68,3.72,3.72,0,0,0-.31,1l-.52,3h-.82l.79-4.51C269.48,75.47,269.52,75.27,269.55,75Z" fill="#808285"/><path d="M275.29,80.29a2.87,2.87,0,0,1-1.07-.19,2.41,2.41,0,0,1-.85-.51,2.34,2.34,0,0,1-.55-.79,2.61,2.61,0,0,1-.2-1,3.72,3.72,0,0,1,.26-1.38,3.49,3.49,0,0,1,1.79-1.91,3.32,3.32,0,0,1,1.39-.28,3.14,3.14,0,0,1,1.08.18,2.56,2.56,0,0,1,.84.51,2.44,2.44,0,0,1,.55.79,2.56,2.56,0,0,1,.2,1,3.83,3.83,0,0,1-.26,1.4,3.35,3.35,0,0,1-1.79,1.9A3.39,3.39,0,0,1,275.29,80.29Zm2.57-3.53a2.21,2.21,0,0,0-.12-.74,1.59,1.59,0,0,0-.37-.59,1.85,1.85,0,0,0-.58-.39,2.13,2.13,0,0,0-.78-.14,2.19,2.19,0,0,0-1,.23,2.39,2.39,0,0,0-.79.62,2.89,2.89,0,0,0-.53.9,3.33,3.33,0,0,0-.19,1.09,1.93,1.93,0,0,0,.13.73,1.54,1.54,0,0,0,.36.59,1.56,1.56,0,0,0,.58.39,1.86,1.86,0,0,0,.77.15,2.24,2.24,0,0,0,1-.23,2.57,2.57,0,0,0,.8-.62,2.9,2.9,0,0,0,.52-.89A3.34,3.34,0,0,0,277.86,76.76Z" fill="#808285"/><path d="M283.9,80.14c0-.16,0-.33.07-.52s0-.34.07-.47h0a2.56,2.56,0,0,1-.86.84,2.24,2.24,0,0,1-1.12.3,2.14,2.14,0,0,1-1.47-.47,1.63,1.63,0,0,1-.52-1.29,2.83,2.83,0,0,1,0-.29c0-.1,0-.21,0-.32l.64-3.55h.83l-.57,3.2a3.9,3.9,0,0,0-.07.73,1.45,1.45,0,0,0,.28,1,1.23,1.23,0,0,0,1,.35,1.74,1.74,0,0,0,.66-.14,2.07,2.07,0,0,0,.63-.41,2.81,2.81,0,0,0,.51-.71,3.46,3.46,0,0,0,.32-1l.52-3h.82l-.79,4.51c0,.16-.07.36-.1.6a6.5,6.5,0,0,0-.08.66Z" fill="#808285"/><path d="M288.56,75.3a1.75,1.75,0,0,1,.36-.42,2.49,2.49,0,0,1,.5-.35,2.57,2.57,0,0,1,.6-.23,2.46,2.46,0,0,1,.67-.09,3,3,0,0,1,1.07.18,2.47,2.47,0,0,1,.82.51,2.24,2.24,0,0,1,.53.79,2.75,2.75,0,0,1,.18,1,3.82,3.82,0,0,1-.25,1.4,3.51,3.51,0,0,1-.72,1.14,3.3,3.3,0,0,1-1.07.76,3.24,3.24,0,0,1-1.35.29,2.51,2.51,0,0,1-1.18-.29,1.9,1.9,0,0,1-.84-.84h0l-.71,4h-.82l1.55-8.75h.83l-.17.94Zm3.87,1.46a2.19,2.19,0,0,0-.12-.73,1.68,1.68,0,0,0-.35-.59,1.78,1.78,0,0,0-.57-.4,2.05,2.05,0,0,0-.78-.14,2.29,2.29,0,0,0-1,.22,2.73,2.73,0,0,0-.82.62,2.92,2.92,0,0,0-.54.9,3.06,3.06,0,0,0-.2,1.09,2.17,2.17,0,0,0,.13.74,1.71,1.71,0,0,0,.38.6,1.6,1.6,0,0,0,.59.39,2,2,0,0,0,.77.14,2.33,2.33,0,0,0,1-.23,2.51,2.51,0,0,0,.8-.6,2.84,2.84,0,0,0,.51-.9A3.31,3.31,0,0,0,292.43,76.76Z" fill="#808285"/><path d="M96.18,49.16a47,47,0,1,0-47,47A47.07,47.07,0,0,0,96.18,49.16Zm-47,44.53a44.53,44.53,0,0,1-42.45-31c1.61,0,4-.07,5.26-.07,2.26,0,3.5.11,3.87.11.22,0,.29-.11.29-.3v-.87c0-.19,0-.3-.25-.3h-1c-.88,0-1.24-.51-1.24-1,0-2,4.16-14.07,5.26-17.29h.15L24.32,56s1.2,2.86,1.95,2.86c1.15,0,2.87-4,2.87-4s4.94-11,5.23-11.78l.07,0,5.69,16.89a.87.87,0,0,1-.88,1.27h-.69c-.26,0-.33.11-.33.3v.91c0,.18.07.26.29.26s1.23,0,3-.07a1,1,0,0,0,.69-.31,1.11,1.11,0,0,0,.37-.49c.15-.4,6.62-14,6.95-15.05h.14L56.31,61.7c.14.44.4.81.91.81,2,0,2.61-.78,3.39-3,.41-1.15,2.79-7.86,5-13.56,2.57-6.78,6.51-8.76,10.47-8.76a8.26,8.26,0,0,1,6.06,2.55A14.46,14.46,0,0,1,85,44.78c.07.22.14.33.36.29l.88-.15c.15,0,.15-.21.15-.51L86,37.1c0-.29-.07-.51-.44-.51-.22,0-.33.11-.51.37l-.44.58c-.22.29-.44.4-.87.07a13.54,13.54,0,0,0-7.46-2c-6.75,0-11.59,1.45-14.72,11.19l-3,7.83L54.05,44.43s-1.91-4.56-2.74-4.56-2.79,4.25-2.79,4.25S43.59,54.68,43.3,55.45l-.08,0L37.54,38.53a.88.88,0,0,1,.88-1.28h.69c.26,0,.33-.11.33-.29V36c0-.18-.07-.25-.29-.25l-3.58.09c-.18,0-.44.53-.71,1.23-1.11,2.5-6.44,14.12-6.74,15H28l-6.61-15.4c-.15-.44-.4-.8-.92-.8s-.8.58-1,.95c-.73,1.83-8.18,22.29-8.55,23.1a1.79,1.79,0,0,1-1.61,1.2h-3a44.53,44.53,0,1,1,87.4-12.05c0,.53,0,1.06,0,1.59-1.05,0-7.57.11-10.47.11s-4.75-.11-5.19-.11c-.14,0-.21.07-.21.29v.84c0,.18.07.33.29.33H79.6c1,0,1.32.37,1.32,1.68v2.67c0,1.9-.07,2.92-.88,3.36-1.24.66-2.63.61-5,.61-3.63,0-6.24-2.28-9.24-4.7-.46-.37-.71-.19-.83,0s-.6,1.39-.72,1.7a.87.87,0,0,0,.21,1.06c2.52,2.8,6.82,4,10.29,4a21.13,21.13,0,0,0,10.38-2.41c.36-.14.58-.29.58-.58s-.14-.66-.14-1.17V53.56c0-1.06.44-1.35,1.09-1.35h6.89A44.53,44.53,0,0,1,49.16,93.69Z" fill="#fff"/><path d="M49.16,0A49.16,49.16,0,1,0,98.32,49.16,49.21,49.21,0,0,0,49.16,0Zm-47,49.16a47,47,0,1,1,47,47A47.07,47.07,0,0,1,2.14,49.16Z" fill="#9e9e9e"/><path d="M86.69,52.21c-.65,0-1.09.29-1.09,1.35v4.83c0,.51.14.87.14,1.17s-.22.44-.58.58a21.13,21.13,0,0,1-10.38,2.41c-3.47,0-7.77-1.16-10.29-4a.87.87,0,0,1-.21-1.06c.12-.31.6-1.5.72-1.7s.37-.37.83,0c3,2.42,5.61,4.7,9.24,4.7,2.34,0,3.73,0,5-.61.81-.44.88-1.46.88-3.36V53.89c0-1.31-.37-1.68-1.32-1.68H78.07c-.22,0-.29-.15-.29-.33V51c0-.22.07-.29.21-.29.44,0,2.2.11,5.19.11s9.42-.1,10.47-.11c0-.53,0-1.06,0-1.59A44.54,44.54,0,1,0,6.29,61.21h3A1.79,1.79,0,0,0,10.94,60c.37-.81,7.82-21.27,8.55-23.1.15-.37.44-.95,1-.95s.77.36.92.8L28,52.16h.15c.3-.93,5.63-12.55,6.74-15,.27-.7.53-1.23.71-1.23l3.58-.09c.22,0,.29.07.29.25V37c0,.18-.07.29-.33.29h-.69a.88.88,0,0,0-.88,1.28l5.68,16.89.08,0c.29-.77,5.22-11.33,5.22-11.33s2-4.25,2.79-4.25,2.74,4.56,2.74,4.56l4.56,10.23,3-7.83c3.13-9.74,8-11.19,14.72-11.19a13.54,13.54,0,0,1,7.46,2c.43.33.65.22.87-.07l.44-.58c.18-.26.29-.37.51-.37.37,0,.44.22.44.51l.37,7.31c0,.3,0,.48-.15.51l-.88.15c-.22,0-.29-.07-.36-.29a14.46,14.46,0,0,0-2.93-5.05A8.26,8.26,0,0,0,76,37.18c-4,0-7.9,2-10.47,8.76-2.16,5.7-4.54,12.41-5,13.56-.78,2.23-1.43,3-3.39,3-.51,0-.77-.37-.91-.81L49.69,46.76h-.14c-.33,1-6.8,14.65-6.95,15.05a1.11,1.11,0,0,1-.37.49,1,1,0,0,1-.69.31c-1.79,0-2.72.07-3,.07s-.29-.08-.29-.26v-.91c0-.19.07-.3.33-.3h.69a.87.87,0,0,0,.88-1.27L34.44,43.05l-.07,0c-.29.77-5.23,11.78-5.23,11.78s-1.72,4-2.87,4c-.75,0-1.95-2.86-1.95-2.86L19.06,42.9h-.15c-1.1,3.22-5.26,15.28-5.26,17.29,0,.51.36,1,1.24,1h1c.22,0,.25.11.25.3v.87c0,.19-.07.3-.29.3-.37,0-1.61-.11-3.87-.11-1.3,0-3.65,0-5.26.07A44.53,44.53,0,0,0,93.58,52.21Z" fill="#00205c"/><path d="M409.28,46.53a3.37,3.37,0,0,0-3-1.59,4.17,4.17,0,0,0-1.21.18,3.43,3.43,0,0,0-1.07.52,2.86,2.86,0,0,0-.76.92,2.91,2.91,0,0,0-.28,1.32,2.35,2.35,0,0,0,.59,1.71,4.65,4.65,0,0,0,1.48,1,16.62,16.62,0,0,0,1.93.7,8.5,8.5,0,0,1,1.92.83,4.69,4.69,0,0,1,1.48,1.36,4,4,0,0,1,.59,2.32,4.28,4.28,0,0,1-.45,2,4.33,4.33,0,0,1-1.19,1.48,5.61,5.61,0,0,1-3.49,1.24,6.66,6.66,0,0,1-2.72-.56,5.15,5.15,0,0,1-2.19-1.85L402.34,57a3.89,3.89,0,0,0,1.41,1.44,4.06,4.06,0,0,0,2.13.54,3.75,3.75,0,0,0,1.18-.2,3.33,3.33,0,0,0,1.07-.57,3.22,3.22,0,0,0,.78-.93,2.61,2.61,0,0,0,.31-1.26,2.72,2.72,0,0,0-.34-1.41,2.92,2.92,0,0,0-.91-.94,4.93,4.93,0,0,0-1.28-.63l-1.47-.51c-.51-.17-1-.36-1.48-.57a5.28,5.28,0,0,1-1.28-.82,3.71,3.71,0,0,1-.9-1.24,4.43,4.43,0,0,1-.34-1.87,4.51,4.51,0,0,1,.43-2,4.43,4.43,0,0,1,1.14-1.45,4.81,4.81,0,0,1,1.62-.84,6.15,6.15,0,0,1,1.85-.28,6.39,6.39,0,0,1,2.41.44,5.21,5.21,0,0,1,2,1.53Z" fill="#00205c"/><path d="M415.74,58.58h8.35v1.51h-9.94V43.84h9.67v1.52h-8.08v5.53h7.55V52.4h-7.55Z" fill="#00205c"/><path d="M428.8,60.09h-1.59V43.84H432a5.91,5.91,0,0,1,3.75,1.08,3.89,3.89,0,0,1,1.38,3.26,4.19,4.19,0,0,1-1,2.86,4.36,4.36,0,0,1-3,1.34l4.5,7.71h-1.94l-4.28-7.55H428.8Zm0-9.06h2.82a6.25,6.25,0,0,0,1.8-.23,3.38,3.38,0,0,0,1.17-.61,2.11,2.11,0,0,0,.64-.9,2.88,2.88,0,0,0,.2-1.11,2.85,2.85,0,0,0-.2-1.09,2.26,2.26,0,0,0-.64-.91,2.93,2.93,0,0,0-1.17-.6,6.28,6.28,0,0,0-1.8-.22H428.8Z" fill="#00205c"/><path d="M445,57.61h0l5.11-13.77h1.72l-6.08,16.25h-1.59l-5.92-16.25H440Z" fill="#00205c"/><path d="M455.46,60.09h-1.59V43.84h1.59Z" fill="#00205c"/><path d="M472.53,57.52a6.62,6.62,0,0,1-1,1.17,6.06,6.06,0,0,1-1.33,1,7.18,7.18,0,0,1-1.62.63,6.93,6.93,0,0,1-1.84.23,8,8,0,0,1-3.23-.64A7.89,7.89,0,0,1,461,58.08a8.17,8.17,0,0,1-1.7-2.69,9.74,9.74,0,0,1,0-6.84,8.32,8.32,0,0,1,1.7-2.7,7.89,7.89,0,0,1,2.58-1.78,8,8,0,0,1,3.23-.64,7.58,7.58,0,0,1,2.91.6,5.84,5.84,0,0,1,2.48,2l-1.38,1.08a4.15,4.15,0,0,0-.66-.78,4.9,4.9,0,0,0-1-.69,5.66,5.66,0,0,0-1.16-.48,4.38,4.38,0,0,0-1.23-.19,6.14,6.14,0,0,0-2.69.58,6,6,0,0,0-2,1.54,6.69,6.69,0,0,0-1.26,2.23,8.35,8.35,0,0,0,0,5.35,6.74,6.74,0,0,0,1.26,2.24,6.14,6.14,0,0,0,2,1.53,6,6,0,0,0,2.69.58,6.23,6.23,0,0,0,1.22-.12,4.48,4.48,0,0,0,1.19-.39,4.34,4.34,0,0,0,1.1-.74,5.48,5.48,0,0,0,1-1.18Z" fill="#00205c"/><path d="M476.78,58.58h8.35v1.51h-9.94V43.84h9.68v1.52h-8.09v5.53h7.56V52.4h-7.56Z" fill="#00205c"/><path d="M495.64,46.53a3.38,3.38,0,0,0-3-1.59,4.12,4.12,0,0,0-1.21.18,3.33,3.33,0,0,0-1.07.52,2.63,2.63,0,0,0-.76.92,2.92,2.92,0,0,0-.29,1.32,2.31,2.31,0,0,0,.6,1.71,4.6,4.6,0,0,0,1.47,1,16.62,16.62,0,0,0,1.93.7,8.58,8.58,0,0,1,1.93.83,4.69,4.69,0,0,1,1.48,1.36,4,4,0,0,1,.59,2.32,4.28,4.28,0,0,1-.45,2,4.45,4.45,0,0,1-1.19,1.48,5.34,5.34,0,0,1-1.65.92,5.4,5.4,0,0,1-1.84.32,6.63,6.63,0,0,1-2.72-.56,5.23,5.23,0,0,1-2.2-1.85L488.7,57a3.87,3.87,0,0,0,1.4,1.44,4.06,4.06,0,0,0,2.13.54,3.81,3.81,0,0,0,1.19-.2,3.28,3.28,0,0,0,1.06-.57,2.94,2.94,0,0,0,.78-.93,2.5,2.5,0,0,0,.31-1.26,2.63,2.63,0,0,0-.34-1.41,3,3,0,0,0-.9-.94,5.09,5.09,0,0,0-1.28-.63l-1.48-.51c-.5-.17-1-.36-1.47-.57a5.1,5.1,0,0,1-1.28-.82,3.58,3.58,0,0,1-.9-1.24,4.43,4.43,0,0,1-.34-1.87,4.64,4.64,0,0,1,.42-2,4.33,4.33,0,0,1,1.15-1.45,4.81,4.81,0,0,1,1.62-.84,6.1,6.1,0,0,1,1.85-.28,6.37,6.37,0,0,1,2.4.44,5.24,5.24,0,0,1,2,1.53Z" fill="#00205c"/><path d="M122.07,60.26l-4.82-8.8h-1.82v8.8H110.2V38.08h8.45a14.62,14.62,0,0,1,3.12.33,8.26,8.26,0,0,1,2.73,1.11,5.79,5.79,0,0,1,1.92,2.07,6.47,6.47,0,0,1,.72,3.2,5.88,5.88,0,0,1-1.22,3.79,6.67,6.67,0,0,1-3.38,2.19l5.79,9.49Zm-.22-15.38a2.22,2.22,0,0,0-.33-1.27,2.28,2.28,0,0,0-.85-.75,3.64,3.64,0,0,0-1.17-.36,9,9,0,0,0-1.24-.1H115.4v5.17H118a7.84,7.84,0,0,0,1.35-.11,4.22,4.22,0,0,0,1.26-.39,2.25,2.25,0,0,0,1.29-2.19Z" fill="#00205c"/><path d="M130.28,60.26V38.08h14.91v4.51h-9.74v4.2h9.21v4.29h-9.21v4.61h10.3v4.57Z" fill="#00205c"/><path d="M158.26,42.66v17.6h-5.35V42.66h-6.27V38.08h17.89v4.58Z" fill="#00205c"/><path d="M166.22,60.26V38.08h5.39V60.26Z" fill="#00205c"/><path d="M187.45,60.26l-4.82-8.8h-1.82v8.8h-5.24V38.08H184a14.62,14.62,0,0,1,3.12.33,8.26,8.26,0,0,1,2.73,1.11,5.79,5.79,0,0,1,1.92,2.07,6.47,6.47,0,0,1,.72,3.2,5.88,5.88,0,0,1-1.22,3.79,6.67,6.67,0,0,1-3.38,2.19l5.79,9.49Zm-.22-15.38a2.22,2.22,0,0,0-.33-1.27,2.36,2.36,0,0,0-.85-.75,3.64,3.64,0,0,0-1.17-.36,9,9,0,0,0-1.24-.1h-2.87v5.17h2.55a7.88,7.88,0,0,0,1.36-.11,4.22,4.22,0,0,0,1.26-.39,2.5,2.5,0,0,0,.93-.81A2.44,2.44,0,0,0,187.23,44.88Z" fill="#00205c"/><path d="M195.66,60.26V38.08h14.91v4.51h-9.75v4.2H210v4.29h-9.21v4.61h10.31v4.57Z" fill="#00205c"/><path d="M234.37,60.26l.13-15.69h-.1l-5.76,15.69h-3.76l-5.61-15.69h-.09l.12,15.69h-5V38.08h7.62l5.05,14.22h.13l4.83-14.22h7.74V60.26Z" fill="#00205c"/><path d="M243.59,60.26V38.08h14.92v4.51h-9.75v4.2H258v4.29h-9.21v4.61h10.31v4.57Z" fill="#00205c"/><path d="M276.29,60.26l-8.92-14.5h-.1l.13,14.5h-5.2V38.08h6.1l8.9,14.48h.1l-.13-14.48h5.2V60.26Z" fill="#00205c"/><path d="M295.67,42.66v17.6h-5.36V42.66h-6.26V38.08h17.89v4.58Z" fill="#00205c"/><path d="M327.84,44.91a6.76,6.76,0,0,1-.72,3.27,5.83,5.83,0,0,1-1.94,2.15,8.54,8.54,0,0,1-2.82,1.19,14.44,14.44,0,0,1-3.32.38h-2.66v8.36H311V38.08h8.15a15.19,15.19,0,0,1,3.39.36,8,8,0,0,1,2.76,1.16,5.62,5.62,0,0,1,1.85,2.1A6.93,6.93,0,0,1,327.84,44.91Zm-5.35,0a2.36,2.36,0,0,0-.32-1.28,2.2,2.2,0,0,0-.84-.79,3.81,3.81,0,0,0-1.21-.37,10.45,10.45,0,0,0-1.39-.1h-2.35v5.24h2.25a8.38,8.38,0,0,0,1.44-.13,3.73,3.73,0,0,0,1.24-.44,2.29,2.29,0,0,0,.86-.83A2.45,2.45,0,0,0,322.49,44.94Z" fill="#00205c"/><path d="M329.9,60.26V38.08h5.39V55.59h8.58v4.67Z" fill="#00205c"/><path d="M362,60.26l-1.72-4.35h-8.59l-1.63,4.35h-5.82l9.3-22.18h5.2L368,60.26Zm-6-16.26-2.82,7.62h5.57Z" fill="#00205c"/><path d="M383.48,60.26l-8.93-14.5h-.1l.13,14.5h-5.2V38.08h6.11l8.89,14.48h.1l-.13-14.48h5.2V60.26Z" fill="#00205c"/></svg>