<svg xmlns="http://www.w3.org/2000/svg" viewBox="0 0 498.53 91.32"><title>color-solid-1c</title><circle cx="44.8" cy="45.73" r="44.59" fill="#00205c" stroke="#fff" stroke-miterlimit="10" stroke-width="2.14"/><path d="M71.67,33.74a8.27,8.27,0,0,1,6.06,2.56,14.53,14.53,0,0,1,2.93,5.05c.07.22.14.33.36.29l.88-.15c.15,0,.15-.22.15-.51l-.37-7.31c0-.29-.07-.51-.44-.51-.22,0-.33.11-.51.36l-.44.59c-.22.29-.44.4-.88.07a13.5,13.5,0,0,0-7.45-2c-6.75,0-11.59,1.45-14.72,11.18l-3,7.84L49.69,41S47.78,36.44,47,36.44s-2.79,4.25-2.79,4.25S39.23,51.25,38.94,52l-.08,0L33.18,35.1a.87.87,0,0,1,.88-1.28h.69c.26,0,.33-.11.33-.29v-.92c0-.18-.07-.25-.29-.25l-3.58.09c-.18,0-.44.53-.71,1.23-1.11,2.49-6.44,14.12-6.74,15h-.15L17,33.33c-.15-.44-.4-.8-.92-.8s-.8.58-.95.95C14.4,35.3,7,55.77,6.58,56.58A1.8,1.8,0,0,1,5,57.78H2c-.22,0-.26.11-.26.3v1c0,.11.08.18.22.18.29,0,3.56-.11,5.6-.11,2.27,0,3.51.11,3.88.11.22,0,.29-.11.29-.29v-.87c0-.19,0-.3-.26-.3h-1c-.88,0-1.24-.51-1.24-1,0-2,4.16-14.07,5.26-17.29h.14L20,52.53s1.2,2.85,1.95,2.85c1.15,0,2.87-4,2.87-4s4.94-11,5.23-11.78l.07,0L35.77,56.5a.88.88,0,0,1-.88,1.28H34.2c-.26,0-.33.11-.33.3V59c0,.18.07.25.29.25l3-.06a1,1,0,0,0,.7-.31,1.11,1.11,0,0,0,.37-.49c.15-.4,6.62-14,6.95-15.06h.14l6.62,15c.14.44.4.8.91.8,2,0,2.61-.77,3.39-3,.41-1.15,2.79-7.86,5-13.56C63.77,35.72,67.71,33.74,71.67,33.74ZM89.18,47.32c-.37,0-7.29.11-10.36.11s-4.75-.11-5.19-.11c-.14,0-.22.07-.22.29v.84c0,.18.08.33.3.33h1.53c1,0,1.32.36,1.32,1.68v2.67c0,1.9-.08,2.92-.88,3.36-1.24.66-2.63.61-5,.61-3.63,0-6.24-2.28-9.24-4.71-.46-.36-.72-.19-.83,0s-.6,1.39-.72,1.7a.87.87,0,0,0,.21,1.06c2.52,2.79,6.82,4,10.29,4A21.24,21.24,0,0,0,80.8,56.71c.36-.15.58-.29.58-.59s-.14-.65-.14-1.16V50.13c0-1.06.43-1.35,1.09-1.35h6.92c.22,0,.29-.07.29-.29v-.92C89.54,47.39,89.47,47.32,89.18,47.32Z" fill="#fff"/><path d="M105.91,76.72h-1L110.53,68h.87l1.81,8.75h-.92l-.47-2.3h-4.48Zm1.94-3.12h3.83L110.77,69Z" fill="#00205c"/><path d="M117.08,74.37a4,4,0,0,1,.25-1.4,3.6,3.6,0,0,1,.71-1.14,3.5,3.5,0,0,1,1.09-.76,3.17,3.17,0,0,1,1.35-.29,2.54,2.54,0,0,1,1.18.29,1.87,1.87,0,0,1,.83.84h0l.8-4.54h.83l-1.66,9.35h-.82l.17-1h0a2.4,2.4,0,0,1-.85.78,2.58,2.58,0,0,1-1.27.32,3,3,0,0,1-1.07-.18,2.37,2.37,0,0,1-.82-.51,2.16,2.16,0,0,1-.53-.79A2.53,2.53,0,0,1,117.08,74.37Zm.87-.06a2.11,2.11,0,0,0,.11.73,1.62,1.62,0,0,0,.36.59,1.63,1.63,0,0,0,.56.4,2.13,2.13,0,0,0,.78.14,2.37,2.37,0,0,0,1-.22,2.55,2.55,0,0,0,.81-.61,2.92,2.92,0,0,0,.54-.9,2.85,2.85,0,0,0,.2-1.09,2,2,0,0,0-.13-.75,1.68,1.68,0,0,0-.37-.6,1.73,1.73,0,0,0-.6-.39,2.06,2.06,0,0,0-.76-.13,2.36,2.36,0,0,0-1,.22,2.47,2.47,0,0,0-.79.61,2.53,2.53,0,0,0-.51.89A3.4,3.4,0,0,0,118,74.31Z" fill="#00205c"/><path d="M125.47,76.72h-.83l1-5.79h.83Zm1.52-8a.59.59,0,0,1-1,.44.52.52,0,0,1-.17-.41.58.58,0,0,1,.18-.43.6.6,0,0,1,.41-.17.57.57,0,0,1,.4.15A.55.55,0,0,1,127,68.7Z" fill="#00205c"/><path d="M129.65,76.72h-.89l-1.21-5.79h.85l.93,4.9h0l2.88-4.9h.9Z" fill="#00205c"/><path d="M134.15,76.72h-.83l1-5.79h.83Zm1.51-8a.6.6,0,0,1-.16.42.57.57,0,0,1-.42.17.59.59,0,0,1-.4-.15.51.51,0,0,1-.16-.41.61.61,0,0,1,.17-.43.61.61,0,0,1,.42-.17.53.53,0,0,1,.39.15A.55.55,0,0,1,135.66,68.7Z" fill="#00205c"/><path d="M140.16,72.21a1.32,1.32,0,0,0-.52-.53,1.54,1.54,0,0,0-.82-.2,1.93,1.93,0,0,0-.47,0,1.29,1.29,0,0,0-.44.16,1,1,0,0,0-.34.29.75.75,0,0,0-.13.43.87.87,0,0,0,.08.39.78.78,0,0,0,.23.25,2,2,0,0,0,.36.19l.48.15a3.5,3.5,0,0,1,1.3.63,1.3,1.3,0,0,1,.45,1.06,1.48,1.48,0,0,1-.21.81,1.81,1.81,0,0,1-.54.56,2.16,2.16,0,0,1-.71.31,3.09,3.09,0,0,1-.78.1,3.67,3.67,0,0,1-1.37-.26,2.22,2.22,0,0,1-1-.82l.72-.47a1.76,1.76,0,0,0,.63.61,1.82,1.82,0,0,0,1,.25,3.07,3.07,0,0,0,.53,0,1.64,1.64,0,0,0,.47-.18,1,1,0,0,0,.32-.31.77.77,0,0,0,.13-.45.78.78,0,0,0-.37-.7,4.13,4.13,0,0,0-1-.46l-.52-.2a2.05,2.05,0,0,1-.47-.29,1.48,1.48,0,0,1-.34-.44,1.28,1.28,0,0,1-.13-.61,1.47,1.47,0,0,1,.2-.77,1.72,1.72,0,0,1,.52-.52,2.39,2.39,0,0,1,.71-.31,3.64,3.64,0,0,1,.79-.1,2.71,2.71,0,0,1,1.2.26,1.73,1.73,0,0,1,.76.7Z" fill="#00205c"/><path d="M142.4,76.72h-.83l1-5.79h.82Zm1.52-8a.61.61,0,0,1-.17.42.59.59,0,0,1-.81,0,.52.52,0,0,1-.17-.41.58.58,0,0,1,.18-.43.6.6,0,0,1,.41-.17.57.57,0,0,1,.4.15A.55.55,0,0,1,143.92,68.7Z" fill="#00205c"/><path d="M147.13,76.86a3.08,3.08,0,0,1-1.07-.18,2.75,2.75,0,0,1-.85-.51,2.38,2.38,0,0,1-.55-.8,2.53,2.53,0,0,1-.2-1,3.72,3.72,0,0,1,.26-1.38,3.28,3.28,0,0,1,.71-1.14,3.37,3.37,0,0,1,1.08-.77,3.32,3.32,0,0,1,1.39-.29A3.14,3.14,0,0,1,149,71a2.42,2.42,0,0,1,.84.52,2.34,2.34,0,0,1,.55.79,2.53,2.53,0,0,1,.2,1,3.87,3.87,0,0,1-.26,1.4,3.33,3.33,0,0,1-3.18,2.18Zm2.57-3.53a2.15,2.15,0,0,0-.12-.73,1.45,1.45,0,0,0-.37-.59,1.56,1.56,0,0,0-.58-.39,1.94,1.94,0,0,0-.78-.14,2.06,2.06,0,0,0-1,.23,2.36,2.36,0,0,0-.79.61,2.94,2.94,0,0,0-.53.91,3.23,3.23,0,0,0-.19,1.08,2,2,0,0,0,.13.74,1.62,1.62,0,0,0,.36.59,1.85,1.85,0,0,0,.58.39,2,2,0,0,0,.77.14,2.12,2.12,0,0,0,1-.23,2.4,2.4,0,0,0,.8-.61,3.07,3.07,0,0,0,.52-.9A3.3,3.3,0,0,0,149.7,73.33Z" fill="#00205c"/><path d="M153.47,70.93c0,.16,0,.33-.06.52s0,.35-.08.47h0a2.44,2.44,0,0,1,.86-.83,2.25,2.25,0,0,1,1.12-.31,2.1,2.1,0,0,1,1.47.48,1.67,1.67,0,0,1,.53,1.29c0,.1,0,.2,0,.3s0,.2,0,.32l-.64,3.55h-.83l.56-3.2a3.88,3.88,0,0,0,.08-.73,1.47,1.47,0,0,0-.29-1,1.2,1.2,0,0,0-1-.35,1.72,1.72,0,0,0-.66.13,1.93,1.93,0,0,0-.63.42,3,3,0,0,0-.51.71,3.24,3.24,0,0,0-.32,1l-.52,3h-.83l.79-4.51c0-.16.07-.36.11-.61s.06-.47.08-.67Z" fill="#00205c"/><path d="M164.23,76.86a3.12,3.12,0,0,1-1.07-.18,2.87,2.87,0,0,1-.85-.51,2.38,2.38,0,0,1-.55-.8,2.53,2.53,0,0,1-.2-1,3.72,3.72,0,0,1,.26-1.38,3.43,3.43,0,0,1,.71-1.14A3.34,3.34,0,0,1,165,70.78a3.14,3.14,0,0,1,1.08.18,2.25,2.25,0,0,1,.84.52,2.34,2.34,0,0,1,.55.79,2.53,2.53,0,0,1,.2,1,3.87,3.87,0,0,1-.26,1.4,3.23,3.23,0,0,1-.71,1.13,3.29,3.29,0,0,1-2.47,1Zm2.57-3.53a2.15,2.15,0,0,0-.12-.73,1.54,1.54,0,0,0-.36-.59,1.6,1.6,0,0,0-.59-.39,1.94,1.94,0,0,0-.78-.14,2.06,2.06,0,0,0-1,.23,2.36,2.36,0,0,0-.79.61,3.15,3.15,0,0,0-.53.91,3.23,3.23,0,0,0-.19,1.08,2,2,0,0,0,.13.74,1.62,1.62,0,0,0,.36.59,1.85,1.85,0,0,0,.58.39,2.07,2.07,0,0,0,.77.14,2.18,2.18,0,0,0,1-.23,2.47,2.47,0,0,0,.79-.61,3.07,3.07,0,0,0,.52-.9A3.3,3.3,0,0,0,166.8,73.33Z" fill="#00205c"/><path d="M172.13,71.62h-1.36l-.89,5.1h-.83l.89-5.1h-1.22l.13-.69h1.2l.27-1.57a3.86,3.86,0,0,1,.24-.82,2.38,2.38,0,0,1,.43-.68,1.83,1.83,0,0,1,.63-.46,2,2,0,0,1,.87-.17h.33l.35.07L173,68a2.1,2.1,0,0,0-.58-.07,1,1,0,0,0-.51.11.9.9,0,0,0-.36.31,1.8,1.8,0,0,0-.24.48,3.28,3.28,0,0,0-.14.58l-.26,1.48h1.38Z" fill="#00205c"/><path d="M180.09,75.21h0L184.34,68h1.34l-1.54,8.75h-.88l1.34-7.57h0l-4.5,7.57h-.47l-1.83-7.57h0l-1.33,7.57h-.87L177.1,68h1.33Z" fill="#00205c"/><path d="M188.93,76.86a3.08,3.08,0,0,1-1.07-.18,2.87,2.87,0,0,1-.85-.51,2.38,2.38,0,0,1-.55-.8,2.53,2.53,0,0,1-.2-1,3.72,3.72,0,0,1,.26-1.38,3.43,3.43,0,0,1,.71-1.14,3.34,3.34,0,0,1,2.47-1.06,3.14,3.14,0,0,1,1.08.18,2.25,2.25,0,0,1,.84.52,2.34,2.34,0,0,1,.55.79,2.53,2.53,0,0,1,.2,1,3.87,3.87,0,0,1-.26,1.4,3.23,3.23,0,0,1-.71,1.13,3.29,3.29,0,0,1-2.47,1Zm2.57-3.53a2.15,2.15,0,0,0-.12-.73A1.54,1.54,0,0,0,191,72a1.6,1.6,0,0,0-.59-.39,1.94,1.94,0,0,0-.78-.14,2.06,2.06,0,0,0-1,.23,2.36,2.36,0,0,0-.79.61,3.15,3.15,0,0,0-.53.91,3.23,3.23,0,0,0-.19,1.08,2,2,0,0,0,.13.74,1.62,1.62,0,0,0,.36.59,1.85,1.85,0,0,0,.58.39,2,2,0,0,0,.77.14,2.18,2.18,0,0,0,1-.23,2.47,2.47,0,0,0,.79-.61,3.07,3.07,0,0,0,.52-.9A3.3,3.3,0,0,0,191.5,73.33Z" fill="#00205c"/><path d="M194.39,71.6c0-.25.06-.47.08-.67h.79c0,.16,0,.33-.06.52s0,.35-.08.47h0a2.54,2.54,0,0,1,.81-.82,2,2,0,0,1,1.12-.32l.28,0a.85.85,0,0,1,.26,0l-.2.79a.72.72,0,0,0-.23,0,1.87,1.87,0,0,0-.34,0,1.64,1.64,0,0,0-.65.13,1.6,1.6,0,0,0-.59.39,2.49,2.49,0,0,0-.47.67,3.69,3.69,0,0,0-.3,1l-.52,3h-.83l.79-4.51C194.32,72.05,194.35,71.85,194.39,71.6Z" fill="#00205c"/><path d="M197.54,77.93a2.38,2.38,0,0,0,.88.73,2.66,2.66,0,0,0,1.23.29,2.83,2.83,0,0,0,1.06-.18,2.13,2.13,0,0,0,.74-.49,2.41,2.41,0,0,0,.47-.73,5,5,0,0,0,.26-.88l.21-1.1h0a2.69,2.69,0,0,1-1,.85,2.61,2.61,0,0,1-1.24.3,2.74,2.74,0,0,1-1.06-.2,2.15,2.15,0,0,1-.81-.53,2.3,2.3,0,0,1-.52-.81,2.7,2.7,0,0,1-.18-1,3.48,3.48,0,0,1,1-2.4,3.35,3.35,0,0,1,2.42-1,2.7,2.7,0,0,1,.62.08,2.32,2.32,0,0,1,.57.22,1.92,1.92,0,0,1,.48.37,1.58,1.58,0,0,1,.33.48h0l.19-1H204l-1,5.74a7.82,7.82,0,0,1-.26,1,2.74,2.74,0,0,1-.54,1,2.63,2.63,0,0,1-1,.74,3.5,3.5,0,0,1-1.56.3,3.7,3.7,0,0,1-1.55-.31,2.8,2.8,0,0,1-1.11-.85Zm.91-3.74a2.08,2.08,0,0,0,.12.71,1.63,1.63,0,0,0,.94,1,2,2,0,0,0,.79.14,2.45,2.45,0,0,0,1-.21,2.6,2.6,0,0,0,.8-.59,2.86,2.86,0,0,0,.52-.86,2.94,2.94,0,0,0,.18-1,1.88,1.88,0,0,0-.13-.72,1.69,1.69,0,0,0-.37-.59,1.76,1.76,0,0,0-.59-.4,2.11,2.11,0,0,0-.77-.14,2.54,2.54,0,0,0-1,.19,2.38,2.38,0,0,0-.79.55,2.64,2.64,0,0,0-.52.86A3.31,3.31,0,0,0,198.45,74.19Z" fill="#00205c"/><path d="M209.36,73.17c0-.14,0-.25,0-.33a1.62,1.62,0,0,0,0-.21,1,1,0,0,0-.36-.89,1.63,1.63,0,0,0-1-.26,2.45,2.45,0,0,0-1,.2,2.94,2.94,0,0,0-.8.49l-.37-.56a3.33,3.33,0,0,1,1-.6,3.61,3.61,0,0,1,1.23-.23,2.88,2.88,0,0,1,.78.1,2,2,0,0,1,.66.29,1.59,1.59,0,0,1,.44.52,1.64,1.64,0,0,1,.17.76c0,.08,0,.18,0,.3s0,.24,0,.32l-.42,2.35c0,.22-.08.45-.1.69a4.88,4.88,0,0,0,0,.61h-.74c0-.14,0-.3,0-.46a3.5,3.5,0,0,1,.06-.48h0a3.66,3.66,0,0,1-.49.48,2.27,2.27,0,0,1-.52.33,2.38,2.38,0,0,1-.57.18,3.37,3.37,0,0,1-.66.06,2.54,2.54,0,0,1-.6-.08,1.58,1.58,0,0,1-.56-.25,1.43,1.43,0,0,1-.42-.46,1.31,1.31,0,0,1-.17-.71,1.61,1.61,0,0,1,.39-1.12,2.6,2.6,0,0,1,1-.65,5.93,5.93,0,0,1,1.42-.31C208.29,73.2,208.82,73.17,209.36,73.17Zm-.31.63c-.37,0-.75,0-1.14,0a5.13,5.13,0,0,0-1,.21,2.1,2.1,0,0,0-.78.44,1,1,0,0,0-.31.73,1,1,0,0,0,.1.45.84.84,0,0,0,.27.29,1.16,1.16,0,0,0,.38.15,3.27,3.27,0,0,0,.44,0,2.18,2.18,0,0,0,.82-.15,2.24,2.24,0,0,0,1.12-1,2.47,2.47,0,0,0,.26-.72l.09-.48Z" fill="#00205c"/><path d="M213.29,70.93c0,.16,0,.33-.06.52s0,.35-.08.47h0a2.44,2.44,0,0,1,.86-.83,2.22,2.22,0,0,1,1.12-.31,2.1,2.1,0,0,1,1.47.48,1.66,1.66,0,0,1,.52,1.29c0,.1,0,.2,0,.3s0,.2,0,.32l-.64,3.55h-.83l.57-3.2a3.88,3.88,0,0,0,.08-.73,1.47,1.47,0,0,0-.29-1,1.2,1.2,0,0,0-1-.35,1.81,1.81,0,0,0-.67.13,1.89,1.89,0,0,0-.62.42,2.75,2.75,0,0,0-.51.71,3.53,3.53,0,0,0-.33,1l-.51,3h-.83l.79-4.51c0-.16.07-.36.1-.61a6.34,6.34,0,0,0,.08-.67Z" fill="#00205c"/><path d="M223.51,75.49h0L227.18,68h1.06l.73,7.52h0l3.6-7.52h.94l-4.27,8.75h-1l-.71-7.54h0l-3.7,7.54h-1l-.9-8.75h.94Z" fill="#00205c"/><path d="M236.62,70.78a2.08,2.08,0,0,1,1.45.48,1.64,1.64,0,0,1,.54,1.29c0,.1,0,.2,0,.3s0,.2-.05.32l-.64,3.55h-.83l.57-3.2a3.88,3.88,0,0,0,.08-.73,1.47,1.47,0,0,0-.29-1,1.26,1.26,0,0,0-1-.35,1.74,1.74,0,0,0-.67.13,1.89,1.89,0,0,0-.62.42,2.72,2.72,0,0,0-.5.71,3.53,3.53,0,0,0-.31,1l-.52,3H233l1.64-9.35h.83l-.79,4.51h0a2.57,2.57,0,0,1,.84-.8A2.21,2.21,0,0,1,236.62,70.78Z" fill="#00205c"/><path d="M240.77,76.72h-.83l1-5.79h.82Zm1.52-8a.61.61,0,0,1-.17.42.59.59,0,0,1-.81,0,.49.49,0,0,1-.17-.41.6.6,0,0,1,.59-.6.57.57,0,0,1,.4.15A.59.59,0,0,1,242.29,68.7Z" fill="#00205c"/><path d="M246.16,71.62h-1.57L244,75a3.18,3.18,0,0,0,0,.4.62.62,0,0,0,.2.54.91.91,0,0,0,.52.14A1.36,1.36,0,0,0,245,76a.73.73,0,0,0,.32-.14l-.09.72a1.74,1.74,0,0,1-.42.13,4.56,4.56,0,0,1-.54,0,2,2,0,0,1-.42-.05,1,1,0,0,1-.4-.18.91.91,0,0,1-.29-.35,1.2,1.2,0,0,1-.12-.57,1.84,1.84,0,0,1,0-.39l.64-3.63h-1.2l.14-.69h1.17l.28-1.63H245l-.28,1.63h1.59Z" fill="#00205c"/><path d="M247.33,74.05a.68.68,0,0,0,0,.14s0,.09,0,.13a1.86,1.86,0,0,0,.15.75,1.74,1.74,0,0,0,.39.58,1.88,1.88,0,0,0,.6.39,1.93,1.93,0,0,0,.73.13,2.31,2.31,0,0,0,1.19-.3,2.82,2.82,0,0,0,.81-.71l.52.49a3.26,3.26,0,0,1-1.17.91,3.45,3.45,0,0,1-1.42.3,3,3,0,0,1-1-.17,2.51,2.51,0,0,1-.84-.49,2.28,2.28,0,0,1-.55-.8,2.67,2.67,0,0,1-.21-1.08,3.64,3.64,0,0,1,.26-1.35,3.69,3.69,0,0,1,.71-1.12,3.64,3.64,0,0,1,1.07-.78,3,3,0,0,1,1.31-.29,2.4,2.4,0,0,1,1.8.63,2.25,2.25,0,0,1,.61,1.64c0,.09,0,.24,0,.45a4.21,4.21,0,0,1-.09.55Zm4-.62c0-.07,0-.14,0-.22V73a1.54,1.54,0,0,0-.4-1.1,1.61,1.61,0,0,0-1.2-.42,2.34,2.34,0,0,0-.85.15,2.23,2.23,0,0,0-.69.43,2.77,2.77,0,0,0-.51.62,2.56,2.56,0,0,0-.3.75Z" fill="#00205c"/><path d="M260.5,76.17a5.66,5.66,0,0,0,1.4-.16,3.86,3.86,0,0,0,1.08-.43l.47-2.68h-2.06l.14-.76h2.92l-.69,3.94a5.77,5.77,0,0,1-1.6.66,7.41,7.41,0,0,1-1.71.2,4.55,4.55,0,0,1-1.6-.27,3.82,3.82,0,0,1-1.24-.77,3.38,3.38,0,0,1-.8-1.19,4,4,0,0,1-.29-1.53,5.52,5.52,0,0,1,.41-2.12,5.32,5.32,0,0,1,1.12-1.73,5.4,5.4,0,0,1,1.66-1.16,5,5,0,0,1,2-.43,4.73,4.73,0,0,1,.93.1,4.36,4.36,0,0,1,.84.28,3.17,3.17,0,0,1,.68.44,2.23,2.23,0,0,1,.49.58l-.8.53a2.11,2.11,0,0,0-.29-.42,2.6,2.6,0,0,0-.47-.38,2.69,2.69,0,0,0-.62-.26,2.8,2.8,0,0,0-.79-.1,3.81,3.81,0,0,0-1.72.39,4.41,4.41,0,0,0-1.35,1,4.91,4.91,0,0,0-1.19,3.16,3.7,3.7,0,0,0,.2,1.21,2.79,2.79,0,0,0,.59,1,2.72,2.72,0,0,0,.95.65A3.28,3.28,0,0,0,260.5,76.17Z" fill="#00205c"/><path d="M266.5,71.6c0-.25.06-.47.08-.67h.79c0,.16,0,.33-.06.52s-.05.35-.08.47h0a2.57,2.57,0,0,1,.82-.82,2,2,0,0,1,1.11-.32l.28,0a.85.85,0,0,1,.26,0l-.2.79a.66.66,0,0,0-.23,0,1.87,1.87,0,0,0-.34,0,1.64,1.64,0,0,0-.65.13,1.68,1.68,0,0,0-.59.39,2.73,2.73,0,0,0-.47.67,4.08,4.08,0,0,0-.3,1l-.52,3h-.83l.8-4.51C266.43,72.05,266.46,71.85,266.5,71.6Z" fill="#00205c"/><path d="M272.24,76.86a3.14,3.14,0,0,1-1.08-.18,2.7,2.7,0,0,1-.84-.51,2.24,2.24,0,0,1-.55-.8,2.53,2.53,0,0,1-.2-1,3.72,3.72,0,0,1,.25-1.38,3.6,3.6,0,0,1,.71-1.14,3.53,3.53,0,0,1,1.09-.77,3.31,3.31,0,0,1,1.38-.29,3.16,3.16,0,0,1,1.09.18,2.42,2.42,0,0,1,.84.52,2.49,2.49,0,0,1,.55.79,2.53,2.53,0,0,1,.19,1,3.86,3.86,0,0,1-.25,1.4,3.4,3.4,0,0,1-1.8,1.9A3.31,3.31,0,0,1,272.24,76.86Zm2.57-3.53a2.15,2.15,0,0,0-.12-.73,1.69,1.69,0,0,0-.37-.59,1.56,1.56,0,0,0-.58-.39,1.94,1.94,0,0,0-.78-.14,2.13,2.13,0,0,0-1,.23,2.58,2.58,0,0,0-.79.61,3.13,3.13,0,0,0-.52.91,3,3,0,0,0-.19,1.08,2.21,2.21,0,0,0,.12.74,1.79,1.79,0,0,0,.37.59,1.85,1.85,0,0,0,.58.39,2,2,0,0,0,.77.14,2.14,2.14,0,0,0,1-.23,2.51,2.51,0,0,0,.8-.61,2.84,2.84,0,0,0,.51-.9A3.07,3.07,0,0,0,274.81,73.33Z" fill="#00205c"/><path d="M280.85,76.72c0-.16,0-.33.06-.52s0-.35.08-.47h0a2.44,2.44,0,0,1-.86.83,2.2,2.2,0,0,1-1.11.3,2.1,2.1,0,0,1-1.47-.47,1.62,1.62,0,0,1-.52-1.28,1.51,1.51,0,0,1,0-.3c0-.1,0-.2,0-.32l.64-3.55h.83l-.57,3.2a4,4,0,0,0-.07.73,1.46,1.46,0,0,0,.28,1,1.23,1.23,0,0,0,1,.34,1.72,1.72,0,0,0,.66-.13,1.89,1.89,0,0,0,.62-.42,2.55,2.55,0,0,0,.52-.7,3.87,3.87,0,0,0,.32-1l.51-3h.83l-.79,4.52c0,.15-.07.35-.1.6s-.07.46-.09.66Z" fill="#00205c"/><path d="M285.51,71.87a1.75,1.75,0,0,1,.36-.42,2.2,2.2,0,0,1,.5-.34,2.69,2.69,0,0,1,.6-.24,2.41,2.41,0,0,1,.67-.09,3,3,0,0,1,1.06.18,2.38,2.38,0,0,1,.83.52,2.29,2.29,0,0,1,.53.79,2.71,2.71,0,0,1,.18,1,3.67,3.67,0,0,1-.26,1.4,3.55,3.55,0,0,1-.71,1.13,3.44,3.44,0,0,1-1.07.77,3.25,3.25,0,0,1-1.36.28,2.53,2.53,0,0,1-1.18-.28,1.92,1.92,0,0,1-.83-.84h0l-.71,3.94h-.83l1.56-8.75h.83l-.17.94Zm3.87,1.46a2.18,2.18,0,0,0-.12-.72,1.64,1.64,0,0,0-.92-1,1.87,1.87,0,0,0-.78-.14,2.29,2.29,0,0,0-1,.22,2.48,2.48,0,0,0-.82.61,2.85,2.85,0,0,0-.54.91,3,3,0,0,0-.2,1.08,2,2,0,0,0,.13.75,1.58,1.58,0,0,0,.38.59,1.82,1.82,0,0,0,.58.4,2.13,2.13,0,0,0,.78.13,2.32,2.32,0,0,0,1-.22,2.51,2.51,0,0,0,.8-.61,2.64,2.64,0,0,0,.51-.9A3.31,3.31,0,0,0,289.38,73.33Z" fill="#00205c"/><path d="M406.28,43a3.4,3.4,0,0,0-3-1.58,4.53,4.53,0,0,0-1.21.17,3.15,3.15,0,0,0-1.07.53,2.56,2.56,0,0,0-.76.92,2.84,2.84,0,0,0-.29,1.31,2.31,2.31,0,0,0,.6,1.71,4.65,4.65,0,0,0,1.48,1,14.81,14.81,0,0,0,1.92.7,8.58,8.58,0,0,1,1.93.83A4.69,4.69,0,0,1,407.34,50a4,4,0,0,1,.59,2.32,4.32,4.32,0,0,1-.45,2,4.55,4.55,0,0,1-1.19,1.48,5.53,5.53,0,0,1-1.65.91,5.38,5.38,0,0,1-1.84.33,6.63,6.63,0,0,1-2.72-.57,5.2,5.2,0,0,1-2.19-1.84l1.45-1.08a3.87,3.87,0,0,0,1.41,1.43,4.06,4.06,0,0,0,2.13.54,3.73,3.73,0,0,0,1.18-.19,3.27,3.27,0,0,0,1.07-.58,3.22,3.22,0,0,0,.78-.93,2.55,2.55,0,0,0,.3-1.26,2.65,2.65,0,0,0-.34-1.41,3.1,3.1,0,0,0-.9-.94,5.87,5.87,0,0,0-1.28-.63L402.21,49a15.4,15.4,0,0,1-1.47-.57,5,5,0,0,1-1.28-.82,3.67,3.67,0,0,1-.9-1.23,4.47,4.47,0,0,1-.34-1.87,4.55,4.55,0,0,1,.43-2,4.05,4.05,0,0,1,1.14-1.44,4.66,4.66,0,0,1,1.62-.85,6.1,6.1,0,0,1,1.85-.28,6.37,6.37,0,0,1,2.4.44,5.17,5.17,0,0,1,2,1.54Z" fill="#00205c"/><path d="M412.73,55.07h8.35v1.51h-9.93V40.34h9.67v1.51h-8.09v5.53h7.56V48.9h-7.56Z" fill="#00205c"/><path d="M425.8,56.58h-1.59V40.34H429a6,6,0,0,1,3.76,1.07,3.89,3.89,0,0,1,1.38,3.26,4.12,4.12,0,0,1-1,2.86,4.31,4.31,0,0,1-3,1.34l4.49,7.71h-1.94L428.44,49H425.8Zm0-9.06h2.82a6.18,6.18,0,0,0,1.79-.23,3.27,3.27,0,0,0,1.18-.61,2.23,2.23,0,0,0,.64-.89,3.18,3.18,0,0,0,.2-1.12,3.1,3.1,0,0,0-.2-1.09,2.33,2.33,0,0,0-.64-.9,3,3,0,0,0-1.18-.61,6.21,6.21,0,0,0-1.79-.22H425.8Z" fill="#00205c"/><path d="M441.94,54.1H442l5.11-13.76h1.72l-6.08,16.24h-1.59l-5.92-16.24H437Z" fill="#00205c"/><path d="M452.45,56.58h-1.58V40.34h1.58Z" fill="#00205c"/><path d="M469.53,54a6.34,6.34,0,0,1-1,1.17,6.26,6.26,0,0,1-1.34,1,8.26,8.26,0,0,1-1.62.63,7.3,7.3,0,0,1-1.84.23,8,8,0,0,1-3.22-.65A7.86,7.86,0,0,1,458,54.58a8.18,8.18,0,0,1-1.71-2.7,9.89,9.89,0,0,1,0-6.84,8.18,8.18,0,0,1,1.71-2.7,7.86,7.86,0,0,1,2.58-1.77,8,8,0,0,1,3.22-.65,7.58,7.58,0,0,1,2.91.6,6,6,0,0,1,2.49,2l-1.39,1.08a3.8,3.8,0,0,0-.66-.78,4.9,4.9,0,0,0-1-.69,5.58,5.58,0,0,0-1.15-.48,4.38,4.38,0,0,0-1.24-.18,6,6,0,0,0-4.7,2.11,6.94,6.94,0,0,0-1.27,2.24,8.32,8.32,0,0,0,0,5.34,6.94,6.94,0,0,0,1.27,2.24,6,6,0,0,0,4.7,2.11,7.21,7.21,0,0,0,1.23-.11,5.34,5.34,0,0,0,1.19-.39,4.88,4.88,0,0,0,1.1-.75,5.85,5.85,0,0,0,1-1.18Z" fill="#00205c"/><path d="M473.78,55.07h8.35v1.51h-9.94V40.34h9.67v1.51h-8.08v5.53h7.55V48.9h-7.55Z" fill="#00205c"/><path d="M492.63,43a3.38,3.38,0,0,0-3-1.58,4.6,4.6,0,0,0-1.22.17,3.11,3.11,0,0,0-1.06.53,2.46,2.46,0,0,0-.76.92,2.84,2.84,0,0,0-.29,1.31,2.35,2.35,0,0,0,.59,1.71,4.65,4.65,0,0,0,1.48,1,15,15,0,0,0,1.93.7,8.58,8.58,0,0,1,1.93.83A4.66,4.66,0,0,1,493.69,50a4,4,0,0,1,.6,2.32,4.32,4.32,0,0,1-.45,2,4.68,4.68,0,0,1-1.19,1.48,5.71,5.71,0,0,1-1.66.91,5.38,5.38,0,0,1-1.84.33,6.67,6.67,0,0,1-2.72-.57,5.2,5.2,0,0,1-2.19-1.84l1.46-1.08a3.84,3.84,0,0,0,1.4,1.43,4.06,4.06,0,0,0,2.13.54,3.79,3.79,0,0,0,1.19-.19,3.22,3.22,0,0,0,1.06-.58,2.94,2.94,0,0,0,.78-.93,2.45,2.45,0,0,0,.31-1.26,2.75,2.75,0,0,0-.34-1.41,3,3,0,0,0-.91-.94,5.79,5.79,0,0,0-1.27-.63L488.57,49a14.61,14.61,0,0,1-1.48-.57,4.94,4.94,0,0,1-1.27-.82,3.56,3.56,0,0,1-.91-1.23,4.63,4.63,0,0,1-.34-1.87,4.69,4.69,0,0,1,.43-2,4.19,4.19,0,0,1,1.15-1.44,4.49,4.49,0,0,1,1.62-.85,6.1,6.1,0,0,1,1.85-.28,6.37,6.37,0,0,1,2.4.44,5.08,5.08,0,0,1,2,1.54Z" fill="#00205c"/><path d="M119.07,56.75,114.25,48h-1.83v8.8h-5.23V34.57h8.46a14.69,14.69,0,0,1,3.12.33A7.93,7.93,0,0,1,121.49,36a5.78,5.78,0,0,1,1.93,2.06,6.47,6.47,0,0,1,.72,3.2,5.92,5.92,0,0,1-1.22,3.79,6.71,6.71,0,0,1-3.38,2.19l5.79,9.49Zm-.22-15.38a2.24,2.24,0,0,0-.33-1.27,2.36,2.36,0,0,0-.85-.75A3.64,3.64,0,0,0,116.5,39a8.94,8.94,0,0,0-1.24-.09h-2.87v5.17h2.55A9.22,9.22,0,0,0,116.3,44a4.88,4.88,0,0,0,1.26-.39,2.41,2.41,0,0,0,.92-.82A2.32,2.32,0,0,0,118.85,41.37Z" fill="#00205c"/><path d="M127.27,56.75V34.57h14.92v4.52h-9.75v4.19h9.21v4.3h-9.21v4.6h10.31v4.57Z" fill="#00205c"/><path d="M155.26,39.15v17.6H149.9V39.15h-6.26V34.57h17.88v4.58Z" fill="#00205c"/><path d="M163.22,56.75V34.57h5.38V56.75Z" fill="#00205c"/><path d="M184.44,56.75,179.63,48H177.8v8.8h-5.23V34.57H181a14.76,14.76,0,0,1,3.12.33A7.93,7.93,0,0,1,186.87,36a5.78,5.78,0,0,1,1.93,2.06,6.47,6.47,0,0,1,.72,3.2,5.92,5.92,0,0,1-1.22,3.79,6.69,6.69,0,0,1-3.39,2.19l5.8,9.49Zm-.22-15.38a2.24,2.24,0,0,0-.33-1.27,2.28,2.28,0,0,0-.85-.75,3.5,3.5,0,0,0-1.16-.36,9.05,9.05,0,0,0-1.24-.09h-2.87v5.17h2.55a9,9,0,0,0,1.35-.11,4.65,4.65,0,0,0,1.26-.39,2.37,2.37,0,0,0,.93-.82A2.4,2.4,0,0,0,184.22,41.37Z" fill="#00205c"/><path d="M192.65,56.75V34.57h14.91v4.52h-9.74v4.19H207v4.3h-9.21v4.6h10.31v4.57Z" fill="#00205c"/><path d="M231.37,56.75l.12-15.69h-.09l-5.77,15.69h-3.76l-5.6-15.69h-.1l.13,15.69h-5.05V34.57h7.63l5.05,14.23h.12l4.83-14.23h7.75V56.75Z" fill="#00205c"/><path d="M240.59,56.75V34.57H255.5v4.52h-9.74v4.19H255v4.3h-9.21v4.6h10.31v4.57Z" fill="#00205c"/><path d="M273.29,56.75l-8.93-14.5h-.09l.12,14.5h-5.2V34.57h6.11l8.9,14.48h.09l-.12-14.48h5.2V56.75Z" fill="#00205c"/><path d="M292.67,39.15v17.6h-5.36V39.15H281V34.57h17.89v4.58Z" fill="#00205c"/><path d="M324.84,41.4a6.83,6.83,0,0,1-.72,3.28,5.89,5.89,0,0,1-1.94,2.14A8.51,8.51,0,0,1,319.36,48a14.5,14.5,0,0,1-3.32.38h-2.67v8.36H308V34.57h8.14a15.28,15.28,0,0,1,3.4.36,8.09,8.09,0,0,1,2.76,1.16,5.77,5.77,0,0,1,1.85,2.1A6.93,6.93,0,0,1,324.84,41.4Zm-5.36,0a2.37,2.37,0,0,0-.31-1.29,2.21,2.21,0,0,0-.85-.78,3.45,3.45,0,0,0-1.2-.38,10.62,10.62,0,0,0-1.4-.09h-2.35v5.23h2.26a7.49,7.49,0,0,0,1.44-.13,4,4,0,0,0,1.24-.43,2.39,2.39,0,0,0,.86-.84A2.42,2.42,0,0,0,319.48,41.44Z" fill="#00205c"/><path d="M326.9,56.75V34.57h5.38V52.09h8.59v4.66Z" fill="#00205c"/><path d="M359,56.75l-1.72-4.35h-8.58l-1.63,4.35h-5.83l9.31-22.18h5.2L365,56.75ZM353.08,40.5l-2.82,7.61h5.58Z" fill="#00205c"/><path d="M380.47,56.75l-8.93-14.5h-.09l.12,14.5h-5.2V34.57h6.11l8.9,14.48h.1l-.13-14.48h5.2V56.75Z" fill="#00205c"/></svg>