<svg xmlns="http://www.w3.org/2000/svg" viewBox="0 0 498.53 91.32"><title>reverse</title><path d="M106.35,76.64h-1L111,67.89h.87l1.81,8.75h-.92l-.47-2.3h-4.48Zm1.94-3.11h3.83l-.91-4.65Z" fill="#fff"/><path d="M117.52,74.29a3.77,3.77,0,0,1,.25-1.39,3.49,3.49,0,0,1,.71-1.14,3.53,3.53,0,0,1,1.09-.77,3.17,3.17,0,0,1,1.35-.28,2.53,2.53,0,0,1,1.18.28,1.92,1.92,0,0,1,.83.84h0l.8-4.53h.83l-1.66,9.34h-.83l.18-1h0a2.37,2.37,0,0,1-.85.77,2.48,2.48,0,0,1-1.27.33,3,3,0,0,1-1.07-.18,2.37,2.37,0,0,1-.82-.51,2.34,2.34,0,0,1-.53-.79A2.61,2.61,0,0,1,117.52,74.29Zm.87-.05a2.15,2.15,0,0,0,.11.73,1.85,1.85,0,0,0,.35.59,1.61,1.61,0,0,0,.57.39,1.9,1.9,0,0,0,.78.15,2.3,2.3,0,0,0,1-.23,2.48,2.48,0,0,0,.82-.61,2.92,2.92,0,0,0,.54-.9,2.82,2.82,0,0,0,.2-1.09,2,2,0,0,0-.13-.75,1.64,1.64,0,0,0-1-1,2.06,2.06,0,0,0-.76-.14,2.36,2.36,0,0,0-1,.22,2.47,2.47,0,0,0-.79.61,2.69,2.69,0,0,0-.52.9A3.31,3.31,0,0,0,118.39,74.24Z" fill="#fff"/><path d="M125.91,76.64h-.83l1-5.78h.83Zm1.52-8a.57.57,0,0,1-.17.42.53.53,0,0,1-.41.17.61.61,0,0,1-.4-.14.53.53,0,0,1-.17-.41.55.55,0,0,1,.18-.43.57.57,0,0,1,.41-.18.54.54,0,0,1,.4.16A.53.53,0,0,1,127.43,68.62Z" fill="#fff"/><path d="M130.09,76.64h-.89L128,70.86h.85l.93,4.89h0l2.88-4.89h.9Z" fill="#fff"/><path d="M134.58,76.64h-.82l1-5.78h.83Zm1.52-8a.57.57,0,0,1-.16.42.54.54,0,0,1-.42.17.63.63,0,0,1-.4-.14.53.53,0,0,1-.16-.41.54.54,0,0,1,.17-.43.58.58,0,0,1,.42-.18.51.51,0,0,1,.39.16A.53.53,0,0,1,136.1,68.62Z" fill="#fff"/><path d="M140.6,72.13a1.39,1.39,0,0,0-.52-.53,1.64,1.64,0,0,0-.83-.2,2.58,2.58,0,0,0-.46,0,1.54,1.54,0,0,0-.44.16,1,1,0,0,0-.34.29.79.79,0,0,0-.13.44.82.82,0,0,0,.08.38.82.82,0,0,0,.23.26,1.51,1.51,0,0,0,.36.18,3.85,3.85,0,0,0,.48.16,3.5,3.5,0,0,1,1.3.62,1.31,1.31,0,0,1,.44,1.07,1.53,1.53,0,0,1-.21.81,1.74,1.74,0,0,1-.53.55,2.18,2.18,0,0,1-.71.32,3.09,3.09,0,0,1-.78.1,3.49,3.49,0,0,1-1.37-.27,2.16,2.16,0,0,1-1-.82l.71-.47a1.76,1.76,0,0,0,.63.61,1.86,1.86,0,0,0,1,.26A2.33,2.33,0,0,0,139,76a1.63,1.63,0,0,0,.47-.17,1,1,0,0,0,.32-.31.85.85,0,0,0-.24-1.15,4.11,4.11,0,0,0-1-.47,5.55,5.55,0,0,1-.52-.2,1.75,1.75,0,0,1-.47-.29,1.44,1.44,0,0,1-.34-.43,1.31,1.31,0,0,1-.13-.61,1.45,1.45,0,0,1,.2-.77,1.75,1.75,0,0,1,.52-.53,2.14,2.14,0,0,1,.71-.3,3.11,3.11,0,0,1,.79-.1,2.71,2.71,0,0,1,1.2.26,1.66,1.66,0,0,1,.76.69Z" fill="#fff"/><path d="M142.84,76.64H142l1-5.78h.82Zm1.52-8a.57.57,0,0,1-.17.42.53.53,0,0,1-.41.17.61.61,0,0,1-.4-.14.5.5,0,0,1-.17-.41.55.55,0,0,1,.18-.43.57.57,0,0,1,.41-.18.54.54,0,0,1,.4.16A.57.57,0,0,1,144.36,68.62Z" fill="#fff"/><path d="M147.57,76.79a2.83,2.83,0,0,1-1.07-.19,2.41,2.41,0,0,1-.85-.51,2.21,2.21,0,0,1-.55-.79,2.61,2.61,0,0,1-.2-1,3.93,3.93,0,0,1,.25-1.38,3.41,3.41,0,0,1,.72-1.13A3.25,3.25,0,0,1,147,71a3.32,3.32,0,0,1,1.39-.28,3.14,3.14,0,0,1,1.08.18,2.56,2.56,0,0,1,.84.51,2.44,2.44,0,0,1,.55.79,2.56,2.56,0,0,1,.2,1,3.83,3.83,0,0,1-.26,1.4,3.33,3.33,0,0,1-.71,1.14,3.39,3.39,0,0,1-1.09.76A3.31,3.31,0,0,1,147.57,76.79Zm2.57-3.53a2.21,2.21,0,0,0-.12-.74,1.73,1.73,0,0,0-.37-.59,1.85,1.85,0,0,0-.58-.39,2.13,2.13,0,0,0-.78-.14,2.26,2.26,0,0,0-1,.23,2.46,2.46,0,0,0-.78.62,2.89,2.89,0,0,0-.53.9,3.09,3.09,0,0,0-.19,1.09,2.15,2.15,0,0,0,.12.73,1.69,1.69,0,0,0,.37.59,1.56,1.56,0,0,0,.58.39,1.86,1.86,0,0,0,.77.15,2.24,2.24,0,0,0,1-.23,2.57,2.57,0,0,0,.8-.62,2.9,2.9,0,0,0,.52-.89A3.34,3.34,0,0,0,150.14,73.26Z" fill="#fff"/><path d="M153.91,70.86c0,.15,0,.33-.06.52s0,.34-.08.47h0a2.38,2.38,0,0,1,.86-.84,2.21,2.21,0,0,1,1.12-.3,2.14,2.14,0,0,1,1.47.47,1.67,1.67,0,0,1,.53,1.3c0,.09,0,.19,0,.29s0,.21,0,.32l-.64,3.55h-.83l.56-3.2a3.88,3.88,0,0,0,.08-.73,1.5,1.5,0,0,0-.29-1,1.23,1.23,0,0,0-1-.35,1.74,1.74,0,0,0-.66.14,1.83,1.83,0,0,0-.63.42,2.81,2.81,0,0,0-.51.71,3.18,3.18,0,0,0-.32,1l-.52,3h-.83l.79-4.51c0-.16.07-.36.11-.61s.06-.47.08-.66Z" fill="#fff"/><path d="M164.67,76.79a2.87,2.87,0,0,1-1.07-.19,2.5,2.5,0,0,1-.85-.51,2.34,2.34,0,0,1-.55-.79,2.61,2.61,0,0,1-.2-1,3.72,3.72,0,0,1,.26-1.38,3.39,3.39,0,0,1,.71-1.13,3.25,3.25,0,0,1,1.08-.78,3.35,3.35,0,0,1,1.39-.28,3.14,3.14,0,0,1,1.08.18,2.56,2.56,0,0,1,.84.51,2.44,2.44,0,0,1,.55.79,2.56,2.56,0,0,1,.2,1,3.83,3.83,0,0,1-.26,1.4,3.19,3.19,0,0,1-.71,1.14,3.39,3.39,0,0,1-2.47,1.05Zm2.57-3.53a2.21,2.21,0,0,0-.12-.74,1.71,1.71,0,0,0-.36-.59,1.9,1.9,0,0,0-.59-.39,2.13,2.13,0,0,0-.78-.14,2.19,2.19,0,0,0-1,.23,2.39,2.39,0,0,0-.79.62,3.1,3.1,0,0,0-.53.9,3.33,3.33,0,0,0-.19,1.09A1.93,1.93,0,0,0,163,75a1.54,1.54,0,0,0,.36.59A1.56,1.56,0,0,0,164,76a1.86,1.86,0,0,0,.77.15,2.31,2.31,0,0,0,1-.23,2.65,2.65,0,0,0,.79-.62,2.9,2.9,0,0,0,.52-.89A3.34,3.34,0,0,0,167.24,73.26Z" fill="#fff"/><path d="M172.57,71.55h-1.36l-.89,5.09h-.83l.89-5.09h-1.22l.13-.69h1.2l.27-1.57a3.7,3.7,0,0,1,.24-.82,2.44,2.44,0,0,1,.42-.68,2,2,0,0,1,.64-.47,2.14,2.14,0,0,1,.87-.17l.33,0a1.55,1.55,0,0,1,.35.07l-.2.73a2.14,2.14,0,0,0-.58-.08,1.21,1.21,0,0,0-.52.11,1,1,0,0,0-.35.32,1.6,1.6,0,0,0-.24.47,3.51,3.51,0,0,0-.14.58l-.26,1.49h1.38Z" fill="#fff"/><path d="M180.53,75.13h0l4.24-7.24h1.34l-1.54,8.75h-.88L185,69.08h0l-4.5,7.56H180l-1.83-7.56h0l-1.33,7.56H176l1.54-8.75h1.34Z" fill="#fff"/><path d="M189.37,76.79a2.87,2.87,0,0,1-1.07-.19,2.5,2.5,0,0,1-.85-.51,2.34,2.34,0,0,1-.55-.79,2.61,2.61,0,0,1-.2-1A3.72,3.72,0,0,1,187,72.9,3.49,3.49,0,0,1,188.75,71a3.35,3.35,0,0,1,1.39-.28,3.14,3.14,0,0,1,1.08.18,2.56,2.56,0,0,1,.84.51,2.44,2.44,0,0,1,.55.79,2.56,2.56,0,0,1,.2,1,3.83,3.83,0,0,1-.26,1.4,3.37,3.37,0,0,1-3.18,2.19Zm2.57-3.53a2.21,2.21,0,0,0-.12-.74,1.71,1.71,0,0,0-.36-.59,2,2,0,0,0-.59-.39,2.13,2.13,0,0,0-.78-.14,2.19,2.19,0,0,0-1,.23,2.39,2.39,0,0,0-.79.62,3.1,3.1,0,0,0-.53.9,3.33,3.33,0,0,0-.19,1.09,1.93,1.93,0,0,0,.13.73,1.54,1.54,0,0,0,.36.59,1.56,1.56,0,0,0,.58.39,1.86,1.86,0,0,0,.77.15,2.24,2.24,0,0,0,1-.23,2.57,2.57,0,0,0,.8-.62,2.9,2.9,0,0,0,.52-.89A3.34,3.34,0,0,0,191.94,73.26Z" fill="#fff"/><path d="M194.83,71.52c0-.24.06-.47.08-.66h.79c0,.15,0,.33-.06.52s0,.34-.08.47h0a2.57,2.57,0,0,1,.81-.83,2,2,0,0,1,1.12-.31h.28l.26,0-.2.79-.23,0-.34,0a1.82,1.82,0,0,0-.65.12,1.6,1.6,0,0,0-.59.39,2.55,2.55,0,0,0-.47.68,3.72,3.72,0,0,0-.3,1l-.52,3h-.83l.79-4.51C194.76,72,194.79,71.77,194.83,71.52Z" fill="#fff"/><path d="M198,77.85a2.4,2.4,0,0,0,.88.74,2.64,2.64,0,0,0,1.22.29,2.85,2.85,0,0,0,1.07-.18,2.15,2.15,0,0,0,.74-.5,2.41,2.41,0,0,0,.47-.73,4.74,4.74,0,0,0,.26-.88l.21-1.1h0a2.65,2.65,0,0,1-2.2,1.15,2.83,2.83,0,0,1-1.07-.19,2.41,2.41,0,0,1-1.32-1.34,2.73,2.73,0,0,1-.18-1,3.5,3.5,0,0,1,.26-1.33,3.41,3.41,0,0,1,.7-1.08,3.33,3.33,0,0,1,1.07-.73,3.49,3.49,0,0,1,1.35-.26,2.54,2.54,0,0,1,.61.07,2.27,2.27,0,0,1,.58.23,1.89,1.89,0,0,1,.48.36,1.83,1.83,0,0,1,.33.49h0l.19-1h.81l-1,5.73a7.41,7.41,0,0,1-.26,1,2.78,2.78,0,0,1-.54,1,2.87,2.87,0,0,1-1,.74,3.51,3.51,0,0,1-1.57.3,3.85,3.85,0,0,1-1.54-.31,2.82,2.82,0,0,1-1.11-.86Zm.91-3.73a2,2,0,0,0,.12.7,1.68,1.68,0,0,0,.94,1,2.14,2.14,0,0,0,.79.14,2.31,2.31,0,0,0,1-.22,2.45,2.45,0,0,0,.8-.59,2.81,2.81,0,0,0,.52-.85,3,3,0,0,0,.18-1,2,2,0,0,0-.13-.72,1.79,1.79,0,0,0-.37-.59,1.9,1.9,0,0,0-.59-.39,1.94,1.94,0,0,0-.78-.15,2.61,2.61,0,0,0-1,.2,2.3,2.3,0,0,0-.79.55,2.69,2.69,0,0,0-.51.86A3.31,3.31,0,0,0,198.89,74.12Z" fill="#fff"/><path d="M209.8,73.09c0-.14,0-.25,0-.32s0-.15,0-.22a1,1,0,0,0-.36-.89,1.7,1.7,0,0,0-1-.26,2.62,2.62,0,0,0-1,.2,2.94,2.94,0,0,0-.8.49l-.38-.55a3.19,3.19,0,0,1,1-.6,3.41,3.41,0,0,1,2-.14,1.81,1.81,0,0,1,.66.3,1.49,1.49,0,0,1,.44.52,1.61,1.61,0,0,1,.17.76c0,.07,0,.17,0,.3a2.16,2.16,0,0,1,0,.31l-.42,2.35c0,.22-.08.46-.1.69a5,5,0,0,0,0,.61h-.74c0-.14,0-.29,0-.46s0-.32.05-.48h0a5.65,5.65,0,0,1-.49.49,3.24,3.24,0,0,1-.52.33,2.38,2.38,0,0,1-.57.18,4.43,4.43,0,0,1-.66,0,2.52,2.52,0,0,1-.6-.07,1.52,1.52,0,0,1-.56-.26,1.43,1.43,0,0,1-.42-.46,1.28,1.28,0,0,1-.17-.7,1.57,1.57,0,0,1,.39-1.12,2.62,2.62,0,0,1,1-.66,6.45,6.45,0,0,1,1.42-.31C208.73,73.12,209.26,73.09,209.8,73.09Zm-.31.63a11.17,11.17,0,0,0-1.14.06,5.38,5.38,0,0,0-1.06.21,2.12,2.12,0,0,0-.77.43.94.94,0,0,0-.31.74,1,1,0,0,0,.1.45.81.81,0,0,0,.27.28A1.16,1.16,0,0,0,207,76a2.12,2.12,0,0,0,.44,0,2.39,2.39,0,0,0,.82-.14,2.31,2.31,0,0,0,.65-.41,2.27,2.27,0,0,0,.47-.6,2.7,2.7,0,0,0,.26-.72l.09-.49Z" fill="#fff"/><path d="M213.73,70.86c0,.15,0,.33-.07.52a4,4,0,0,1-.07.47h0a2.38,2.38,0,0,1,.86-.84,2.21,2.21,0,0,1,1.12-.3,2.14,2.14,0,0,1,1.47.47,1.67,1.67,0,0,1,.52,1.3c0,.09,0,.19,0,.29s0,.21-.05.32l-.64,3.55h-.83l.57-3.2a3.83,3.83,0,0,0,.07-.73,1.5,1.5,0,0,0-.28-1,1.23,1.23,0,0,0-1-.35,1.79,1.79,0,0,0-.67.14,1.89,1.89,0,0,0-.62.42,2.4,2.4,0,0,0-.51.71,3.46,3.46,0,0,0-.33,1l-.51,3H212l.79-4.51c0-.16.07-.36.1-.61a6.18,6.18,0,0,0,.08-.66Z" fill="#fff"/><path d="M224,75.42h0l3.65-7.53h1.06l.73,7.53h0l3.6-7.53H234l-4.27,8.75h-1L228,69.1h0l-3.7,7.54h-1l-.9-8.75h.94Z" fill="#fff"/><path d="M237.06,70.71a2.12,2.12,0,0,1,1.45.47,1.64,1.64,0,0,1,.53,1.3c0,.09,0,.19,0,.29s0,.21-.05.32l-.64,3.55h-.83l.57-3.2a3.88,3.88,0,0,0,.08-.73,1.45,1.45,0,0,0-.3-1,1.26,1.26,0,0,0-1-.35,1.75,1.75,0,0,0-.67.14,1.89,1.89,0,0,0-.62.42,2.57,2.57,0,0,0-.5.71,3.79,3.79,0,0,0-.32,1l-.51,3h-.83L235,67.3h.83l-.79,4.51h0a2.38,2.38,0,0,1,.84-.8A2.21,2.21,0,0,1,237.06,70.71Z" fill="#fff"/><path d="M241.21,76.64h-.83l1-5.78h.83Zm1.52-8a.57.57,0,0,1-.17.42.53.53,0,0,1-.41.17.66.66,0,0,1-.41-.14.53.53,0,0,1-.16-.41.62.62,0,0,1,.59-.61.54.54,0,0,1,.4.16A.57.57,0,0,1,242.73,68.62Z" fill="#fff"/><path d="M246.59,71.55H245l-.61,3.39a2,2,0,0,0,0,.4.64.64,0,0,0,.2.55.91.91,0,0,0,.52.13,1.89,1.89,0,0,0,.38,0,.73.73,0,0,0,.32-.15l-.09.72a1.39,1.39,0,0,1-.42.13,3.12,3.12,0,0,1-.54,0,1.51,1.51,0,0,1-.42,0,1.1,1.1,0,0,1-.4-.17.94.94,0,0,1-.29-.36,1.15,1.15,0,0,1-.12-.57,3,3,0,0,1,0-.39l.65-3.62H243l.13-.69h1.18l.28-1.63h.83l-.28,1.63h1.59Z" fill="#fff"/><path d="M247.77,74a.78.78,0,0,0,0,.14s0,.09,0,.13a1.79,1.79,0,0,0,.15.75,1.65,1.65,0,0,0,.39.58,1.79,1.79,0,0,0,.59.39,2,2,0,0,0,.74.14,2.22,2.22,0,0,0,1.19-.31,2.82,2.82,0,0,0,.81-.71l.52.5a3.35,3.35,0,0,1-1.17.9,3.3,3.3,0,0,1-1.42.31,3.15,3.15,0,0,1-1-.17,2.53,2.53,0,0,1-.84-.5,2.2,2.2,0,0,1-.55-.8,2.6,2.6,0,0,1-.21-1.08,3.55,3.55,0,0,1,.26-1.34,3.74,3.74,0,0,1,.71-1.13,3.44,3.44,0,0,1,1.07-.77,3,3,0,0,1,1.31-.29,2.4,2.4,0,0,1,1.8.63,2.23,2.23,0,0,1,.61,1.63c0,.1,0,.25,0,.45a4,4,0,0,1-.09.55Zm4-.62c0-.06,0-.13,0-.21v-.22a1.51,1.51,0,0,0-.4-1.09,1.59,1.59,0,0,0-1.2-.43,2.15,2.15,0,0,0-.85.16,2.2,2.2,0,0,0-.69.42,2.61,2.61,0,0,0-.51.63,2.5,2.5,0,0,0-.3.74Z" fill="#fff"/><path d="M260.94,76.1a6.18,6.18,0,0,0,1.4-.16,4,4,0,0,0,1.08-.44l.47-2.68h-2.06l.14-.75h2.92L264.2,76a6.19,6.19,0,0,1-1.6.65,6.9,6.9,0,0,1-1.71.2,4.55,4.55,0,0,1-1.6-.27,3.56,3.56,0,0,1-1.24-.77,3.34,3.34,0,0,1-.8-1.18,4,4,0,0,1-.29-1.53,5.57,5.57,0,0,1,.41-2.13,5.28,5.28,0,0,1,1.12-1.72,5.12,5.12,0,0,1,1.66-1.16,4.82,4.82,0,0,1,2-.43,4.08,4.08,0,0,1,.93.1,3.77,3.77,0,0,1,.84.28,3.14,3.14,0,0,1,.68.43,2.27,2.27,0,0,1,.49.59l-.8.53a2.11,2.11,0,0,0-.29-.42,2.23,2.23,0,0,0-.47-.38,2.7,2.7,0,0,0-.62-.27,3.24,3.24,0,0,0-.79-.09,3.81,3.81,0,0,0-1.72.38,4.57,4.57,0,0,0-1.35,1A4.91,4.91,0,0,0,257.9,73a3.6,3.6,0,0,0,.2,1.2,2.71,2.71,0,0,0,.59,1,2.74,2.74,0,0,0,.95.66A3.28,3.28,0,0,0,260.94,76.1Z" fill="#fff"/><path d="M266.94,71.52c0-.24.06-.47.08-.66h.79c0,.15,0,.33-.06.52s-.05.34-.08.47h0a2.68,2.68,0,0,1,.81-.83,2,2,0,0,1,1.12-.31h.28l.26,0-.2.79-.23,0-.34,0a1.82,1.82,0,0,0-.65.12,1.68,1.68,0,0,0-.59.39,2.8,2.8,0,0,0-.47.68,4.13,4.13,0,0,0-.3,1l-.52,3H266l.79-4.51C266.87,72,266.9,71.77,266.94,71.52Z" fill="#fff"/><path d="M272.68,76.79a2.92,2.92,0,0,1-1.08-.19,2.37,2.37,0,0,1-.84-.51,2.21,2.21,0,0,1-.55-.79,2.61,2.61,0,0,1-.2-1,3.72,3.72,0,0,1,.25-1.38,3.55,3.55,0,0,1,.71-1.13,3.4,3.4,0,0,1,1.09-.78,3.31,3.31,0,0,1,1.38-.28,3.16,3.16,0,0,1,1.09.18,2.56,2.56,0,0,1,.84.51,2.61,2.61,0,0,1,.55.79,2.56,2.56,0,0,1,.19,1,3.82,3.82,0,0,1-.25,1.4,3.32,3.32,0,0,1-1.8,1.9A3.31,3.31,0,0,1,272.68,76.79Zm2.57-3.53a2.21,2.21,0,0,0-.12-.74,1.9,1.9,0,0,0-.37-.59,1.85,1.85,0,0,0-.58-.39,2.13,2.13,0,0,0-.78-.14,2.26,2.26,0,0,0-1,.23,2.61,2.61,0,0,0-.79.62,3.07,3.07,0,0,0-.71,2A2.15,2.15,0,0,0,271,75a1.56,1.56,0,0,0,.37.59A1.61,1.61,0,0,0,272,76a1.92,1.92,0,0,0,.77.15,2.31,2.31,0,0,0,1-.23,2.62,2.62,0,0,0,1.31-1.51A3.1,3.1,0,0,0,275.25,73.26Z" fill="#fff"/><path d="M281.29,76.64c0-.16,0-.33.06-.52s0-.34.08-.47h0a2.47,2.47,0,0,1-.86.84,2.2,2.2,0,0,1-1.11.3,2.14,2.14,0,0,1-1.47-.47,1.63,1.63,0,0,1-.52-1.29,2.81,2.81,0,0,1,0-.29c0-.1,0-.21.05-.32l.64-3.55H279l-.57,3.2a3.9,3.9,0,0,0-.07.73,1.45,1.45,0,0,0,.28,1,1.23,1.23,0,0,0,1,.35,1.74,1.74,0,0,0,.66-.14,2,2,0,0,0,.62-.41,2.4,2.4,0,0,0,.51-.71,3.18,3.18,0,0,0,.32-1l.52-3h.83l-.79,4.51c0,.16-.07.36-.11.6s-.06.47-.08.66Z" fill="#fff"/><path d="M286,71.8a1.75,1.75,0,0,1,.36-.42,2.24,2.24,0,0,1,.5-.35,2.27,2.27,0,0,1,.6-.23,2.39,2.39,0,0,1,.66-.09,3,3,0,0,1,1.07.18,2.51,2.51,0,0,1,.83.51,2.39,2.39,0,0,1,.53.79,2.75,2.75,0,0,1,.18,1,3.63,3.63,0,0,1-.26,1.4,3.49,3.49,0,0,1-.71,1.14,3.42,3.42,0,0,1-1.07.76,3.25,3.25,0,0,1-1.36.29,2.54,2.54,0,0,1-1.18-.29,1.92,1.92,0,0,1-.83-.84h0l-.71,4h-.83l1.56-8.75h.83l-.18.94Zm3.87,1.46a2.19,2.19,0,0,0-.12-.73,1.85,1.85,0,0,0-.35-.59,1.78,1.78,0,0,0-.57-.4,2.05,2.05,0,0,0-.78-.14,2.29,2.29,0,0,0-1,.22,2.51,2.51,0,0,0-.82.62,2.92,2.92,0,0,0-.54.9,3.06,3.06,0,0,0-.2,1.09,2,2,0,0,0,.13.74,1.71,1.71,0,0,0,.38.6,1.65,1.65,0,0,0,.58.39,2.13,2.13,0,0,0,.78.14,2.36,2.36,0,0,0,1-.23,2.47,2.47,0,0,0,.79-.6,2.69,2.69,0,0,0,.52-.9A3.31,3.31,0,0,0,289.82,73.26Z" fill="#fff"/><circle cx="44.8" cy="45.66" r="44.59" fill="#00205c" stroke="#fff" stroke-miterlimit="10" stroke-width="2.14"/><path d="M71.67,33.68a8.26,8.26,0,0,1,6.06,2.55,14.46,14.46,0,0,1,2.93,5.05c.07.22.14.33.36.29l.88-.15c.15,0,.15-.21.15-.51l-.37-7.31c0-.29-.07-.51-.44-.51-.22,0-.33.11-.51.37l-.44.58c-.22.29-.44.4-.88.07a13.47,13.47,0,0,0-7.45-2c-6.75,0-11.59,1.45-14.72,11.19l-3,7.83L49.69,40.93S47.78,36.37,47,36.37s-2.79,4.25-2.79,4.25S39.23,51.18,38.94,52l-.08,0L33.18,35a.87.87,0,0,1,.88-1.28h.69c.26,0,.33-.11.33-.29v-.92c0-.18-.07-.25-.29-.25l-3.58.09c-.18,0-.44.53-.71,1.23-1.11,2.5-6.44,14.12-6.74,15h-.15L17,33.26c-.15-.44-.4-.8-.92-.8s-.8.58-.95.95C14.4,35.24,7,55.7,6.58,56.51A1.79,1.79,0,0,1,5,57.71H2c-.22,0-.26.11-.26.3v1c0,.11.08.19.22.19.29,0,3.56-.11,5.61-.11,2.26,0,3.5.11,3.87.11.22,0,.29-.11.29-.3V58c0-.19,0-.3-.25-.3h-1c-.88,0-1.24-.51-1.24-1,0-2,4.16-14.07,5.26-17.29h.15L20,52.46s1.2,2.86,1.95,2.86c1.15,0,2.87-4,2.87-4s4.94-11,5.23-11.78l.07,0,5.69,16.89a.87.87,0,0,1-.88,1.27H34.2c-.26,0-.33.11-.33.3v.91c0,.18.07.26.29.26s1.23,0,3-.07a1,1,0,0,0,.69-.31,1.11,1.11,0,0,0,.37-.49c.15-.4,6.62-14,6.95-15.05h.14L52,58.2c.14.44.4.81.91.81,2,0,2.61-.78,3.39-3,.41-1.15,2.79-7.86,5-13.56C63.77,35.66,67.71,33.68,71.67,33.68ZM89.18,47.25c-.37,0-7.29.11-10.36.11s-4.75-.11-5.19-.11c-.14,0-.21.07-.21.29v.84c0,.18.07.33.29.33h1.53c1,0,1.32.37,1.32,1.68v2.67c0,1.9-.07,2.92-.88,3.36-1.24.66-2.63.61-5,.61-3.63,0-6.24-2.28-9.24-4.7-.46-.37-.72-.19-.83,0s-.6,1.39-.72,1.7a.87.87,0,0,0,.21,1.06c2.52,2.8,6.82,4,10.29,4A21.13,21.13,0,0,0,80.8,56.64c.36-.14.58-.29.58-.58s-.14-.66-.14-1.17V50.06c0-1.06.44-1.35,1.09-1.35h6.92c.22,0,.29-.07.29-.29V47.5C89.54,47.32,89.47,47.25,89.18,47.25Z" fill="#fff"/><path d="M406.29,42.86a3.36,3.36,0,0,0-3-1.58,4.16,4.16,0,0,0-1.21.17A3.25,3.25,0,0,0,401,42a2.61,2.61,0,0,0-.76.91,2.91,2.91,0,0,0-.28,1.32,2.35,2.35,0,0,0,.59,1.71,4.65,4.65,0,0,0,1.48,1,15,15,0,0,0,1.93.7,8.5,8.5,0,0,1,1.92.83,4.69,4.69,0,0,1,1.48,1.36,4,4,0,0,1,.59,2.32,4.32,4.32,0,0,1-.45,2,4.55,4.55,0,0,1-1.19,1.48,5.53,5.53,0,0,1-1.65.91,5.38,5.38,0,0,1-1.84.33,6.67,6.67,0,0,1-2.72-.57,5.2,5.2,0,0,1-2.19-1.84l1.45-1.08a3.94,3.94,0,0,0,1.41,1.43,4.06,4.06,0,0,0,2.13.54,3.73,3.73,0,0,0,1.18-.19,3.46,3.46,0,0,0,1.07-.58,3.22,3.22,0,0,0,.78-.93,2.56,2.56,0,0,0,.31-1.26,2.65,2.65,0,0,0-.35-1.41A2.79,2.79,0,0,0,405,50a5.65,5.65,0,0,0-1.28-.63l-1.47-.51c-.51-.17-1-.36-1.48-.57a5,5,0,0,1-1.28-.82,3.67,3.67,0,0,1-.9-1.23,5.2,5.2,0,0,1,.09-3.92,4.29,4.29,0,0,1,1.14-1.44,4.66,4.66,0,0,1,1.62-.85,6.15,6.15,0,0,1,1.85-.28,6.39,6.39,0,0,1,2.41.44,5.15,5.15,0,0,1,2,1.54Z" fill="#fff"/><path d="M412.75,54.91h8.35v1.51h-9.94V40.18h9.67v1.51h-8.08v5.53h7.55v1.52h-7.55Z" fill="#fff"/><path d="M425.81,56.42h-1.59V40.18H429a6,6,0,0,1,3.75,1.07,3.89,3.89,0,0,1,1.38,3.26,4.16,4.16,0,0,1-1,2.86,4.36,4.36,0,0,1-3,1.34l4.5,7.71h-1.94l-4.28-7.55h-2.64Zm0-9.06h2.82a6.3,6.3,0,0,0,1.8-.23,3.22,3.22,0,0,0,1.17-.61,2.14,2.14,0,0,0,.64-.89,3,3,0,0,0,.2-1.12,2.89,2.89,0,0,0-.2-1.09,2.23,2.23,0,0,0-.64-.9,2.94,2.94,0,0,0-1.17-.61,6.33,6.33,0,0,0-1.8-.22h-2.82Z" fill="#fff"/><path d="M442,53.94h0l5.11-13.76h1.72l-6.08,16.24h-1.59l-5.92-16.24H437Z" fill="#fff"/><path d="M452.47,56.42h-1.59V40.18h1.59Z" fill="#fff"/><path d="M469.54,53.85a6,6,0,0,1-1,1.17,6.45,6.45,0,0,1-1.33,1,8.26,8.26,0,0,1-1.62.63,7.36,7.36,0,0,1-1.84.23,8,8,0,0,1-3.23-.65A7.89,7.89,0,0,1,458,54.41a8.36,8.36,0,0,1-1.71-2.69,9.89,9.89,0,0,1,0-6.84,8.52,8.52,0,0,1,1.71-2.7,7.86,7.86,0,0,1,2.58-1.77,8,8,0,0,1,3.23-.65,7.5,7.5,0,0,1,2.9.6,5.88,5.88,0,0,1,2.49,2l-1.38,1.08a4.56,4.56,0,0,0-.66-.78,4.9,4.9,0,0,0-1-.69,5.66,5.66,0,0,0-1.16-.48,4.36,4.36,0,0,0-1.23-.18,6,6,0,0,0-4.71,2.11,6.74,6.74,0,0,0-1.26,2.24,8.32,8.32,0,0,0,0,5.34,6.74,6.74,0,0,0,1.26,2.24,6,6,0,0,0,4.71,2.11,7.1,7.1,0,0,0,1.22-.11,5.34,5.34,0,0,0,1.19-.39,4.66,4.66,0,0,0,1.1-.75,5.25,5.25,0,0,0,1-1.18Z" fill="#fff"/><path d="M473.79,54.91h8.35v1.51H472.2V40.18h9.68v1.51h-8.09v5.53h7.56v1.52h-7.56Z" fill="#fff"/><path d="M492.65,42.86a3.38,3.38,0,0,0-3-1.58,4.11,4.11,0,0,0-1.21.17,3.15,3.15,0,0,0-1.07.53,2.51,2.51,0,0,0-.76.91,2.92,2.92,0,0,0-.29,1.32,2.31,2.31,0,0,0,.6,1.71,4.6,4.6,0,0,0,1.47,1,15,15,0,0,0,1.93.7,8.58,8.58,0,0,1,1.93.83,4.69,4.69,0,0,1,1.48,1.36,4,4,0,0,1,.59,2.32,4.32,4.32,0,0,1-.45,2,4.55,4.55,0,0,1-1.19,1.48,5.53,5.53,0,0,1-1.65.91,5.42,5.42,0,0,1-1.84.33,6.63,6.63,0,0,1-2.72-.57,5.28,5.28,0,0,1-2.2-1.84l1.46-1.08a3.84,3.84,0,0,0,1.4,1.43,4.06,4.06,0,0,0,2.13.54,3.79,3.79,0,0,0,1.19-.19,3.41,3.41,0,0,0,1.06-.58,2.94,2.94,0,0,0,.78-.93,2.45,2.45,0,0,0,.31-1.26,2.65,2.65,0,0,0-.34-1.41,3,3,0,0,0-.9-.94,5.87,5.87,0,0,0-1.28-.63l-1.48-.51c-.5-.17-1-.36-1.47-.57a4.83,4.83,0,0,1-1.28-.82,3.54,3.54,0,0,1-.9-1.23,4.49,4.49,0,0,1-.35-1.87,4.66,4.66,0,0,1,.43-2.05,4.19,4.19,0,0,1,1.15-1.44,4.66,4.66,0,0,1,1.62-.85,6.1,6.1,0,0,1,1.85-.28,6.37,6.37,0,0,1,2.4.44,5.17,5.17,0,0,1,2,1.54Z" fill="#fff"/><path d="M119.08,56.59l-4.82-8.8h-1.82v8.8h-5.23V34.41h8.45a14.62,14.62,0,0,1,3.12.33,8.26,8.26,0,0,1,2.73,1.11,6,6,0,0,1,1.92,2.07,6.47,6.47,0,0,1,.72,3.2,5.86,5.86,0,0,1-1.22,3.79,6.67,6.67,0,0,1-3.38,2.19l5.79,9.49Zm-.22-15.38a2.24,2.24,0,0,0-.33-1.27,2.36,2.36,0,0,0-.85-.75,3.64,3.64,0,0,0-1.17-.36,8.94,8.94,0,0,0-1.24-.09h-2.86v5.17H115a9,9,0,0,0,1.35-.11,4.54,4.54,0,0,0,1.26-.4,2.27,2.27,0,0,0,.93-.81A2.4,2.4,0,0,0,118.86,41.21Z" fill="#fff"/><path d="M127.29,56.59V34.41H142.2v4.52h-9.74v4.19h9.21v4.3h-9.21V52h10.3v4.57Z" fill="#fff"/><path d="M155.27,39v17.6h-5.36V39h-6.26V34.41h17.89V39Z" fill="#fff"/><path d="M163.23,56.59V34.41h5.39V56.59Z" fill="#fff"/><path d="M184.46,56.59l-4.82-8.8h-1.82v8.8h-5.24V34.41H181a14.62,14.62,0,0,1,3.12.33,8.26,8.26,0,0,1,2.73,1.11,6,6,0,0,1,1.92,2.07,6.47,6.47,0,0,1,.72,3.2,5.92,5.92,0,0,1-1.22,3.79,6.67,6.67,0,0,1-3.38,2.19l5.79,9.49Zm-.22-15.38a2.24,2.24,0,0,0-.33-1.27,2.36,2.36,0,0,0-.85-.75,3.64,3.64,0,0,0-1.17-.36,8.94,8.94,0,0,0-1.24-.09h-2.87v5.17h2.55a9.12,9.12,0,0,0,1.36-.11,4.54,4.54,0,0,0,1.26-.4,2.33,2.33,0,0,0,.93-.81A2.4,2.4,0,0,0,184.24,41.21Z" fill="#fff"/><path d="M192.66,56.59V34.41h14.92v4.52h-9.75v4.19H207v4.3h-9.21V52h10.31v4.57Z" fill="#fff"/><path d="M231.38,56.59l.13-15.69h-.1l-5.76,15.69h-3.76L216.28,40.9h-.09l.12,15.69h-5V34.41h7.62l5.05,14.23h.12l4.84-14.23h7.74V56.59Z" fill="#fff"/><path d="M240.6,56.59V34.41h14.92v4.52h-9.75v4.19H255v4.3h-9.21V52h10.31v4.57Z" fill="#fff"/><path d="M273.3,56.59l-8.93-14.5h-.09l.13,14.5h-5.2V34.41h6.1l8.9,14.48h.1l-.13-14.48h5.2V56.59Z" fill="#fff"/><path d="M292.68,39v17.6h-5.36V39h-6.26V34.41H299V39Z" fill="#fff"/><path d="M324.85,41.24a6.83,6.83,0,0,1-.72,3.28,5.89,5.89,0,0,1-1.94,2.14,8.34,8.34,0,0,1-2.82,1.19,14.44,14.44,0,0,1-3.32.38h-2.66v8.36H308V34.41h8.15a15.19,15.19,0,0,1,3.39.36,8,8,0,0,1,2.76,1.16,5.77,5.77,0,0,1,1.85,2.1A6.93,6.93,0,0,1,324.85,41.24Zm-5.35,0a2.36,2.36,0,0,0-.32-1.28,2.17,2.17,0,0,0-.84-.78,3.58,3.58,0,0,0-1.21-.38,10.47,10.47,0,0,0-1.39-.09h-2.35V44h2.25a7.49,7.49,0,0,0,1.44-.13,3.73,3.73,0,0,0,1.24-.44,2.21,2.21,0,0,0,.86-.83A2.43,2.43,0,0,0,319.5,41.27Z" fill="#fff"/><path d="M326.91,56.59V34.41h5.39V51.93h8.58v4.66Z" fill="#fff"/><path d="M359.05,56.59l-1.72-4.35h-8.59l-1.63,4.35h-5.82l9.3-22.18h5.2L365,56.59ZM353.1,40.33,350.28,48h5.57Z" fill="#fff"/><path d="M380.49,56.59l-8.93-14.5h-.1l.13,14.5h-5.2V34.41h6.11l8.89,14.48h.1l-.13-14.48h5.2V56.59Z" fill="#fff"/></svg>