<svg xmlns="http://www.w3.org/2000/svg" viewBox="0 0 162.71 47.68"><title>Client Portal copy</title><path d="M23.21,22.69c-1.35-.71-2.48-.86-6.77-.86H0V42.31H6.51v-5H17c3.29,0,4.87-.18,6-.71,2.16-1,3-3,3-7.27C26,25.57,25.21,23.73,23.21,22.69ZM16,32.3H6.51V26.8H16c2.84,0,3.45.55,3.45,3C19.47,31.75,18.7,32.3,16,32.3Z" fill="#fff"/><path d="M88,28.58c0-3.22-.8-5.06-2.58-5.95-1.22-.59-2.77-.8-6-.8H60.9V42.31h6.51V37.15h10c1.77,0,2.29.06,2.8.4s.81,1,.81,2.21v2.55h6.64V39.08a5,5,0,0,0-.64-3c-.65-1-1.55-1.32-4-1.44L82,34.54c2.61-.37,3.35-.55,4.15-1.11C87.37,32.64,88,31,88,28.58ZM77.63,32.14H67.41V26.86H77.86c2,0,2.48.1,3,.59s.55,1,.55,2.42C81.41,31.75,80.76,32.14,77.63,32.14Z" fill="#fff"/><polygon points="114.71 21.83 89.01 21.83 89.01 26.89 98.59 26.89 98.59 42.31 105.13 42.31 105.13 26.89 114.71 26.89 114.71 21.83" fill="#fff"/><path d="M119.93,21.83,107.84,42.31h7.41l2.07-3.66h13.86l2.13,3.66h7.16L128.7,21.83Zm-.26,12.56,4.58-8.17,4.64,8.17Z" fill="#fff"/><polygon points="147.91 37.24 147.91 21.83 141.37 21.83 141.37 42.31 162.71 42.31 162.71 37.24 147.91 37.24" fill="#fff"/><path d="M60.19,19.24C54.53,22.41,47.7,30,47.44,30.33l-.29.22,5,2.1L40.45,37.46,36.78,25.62l5.31,2.82a45.24,45.24,0,0,1,1-9.06h.06l.22-1.1a21,21,0,0,1,1.31-3.57l-.31-.15c-.44.89-.82,1.78-1.15,2.65a15.31,15.31,0,1,0,12.23,6.14A26.23,26.23,0,0,1,60.4,19.5ZM43.3,44.48a12,12,0,0,1-1.08-24c-.69,2.6-1,4.85-1.31,6.27L36.09,24.7l3.14,16.07,15.22-7.94-5.34-2.31c.75-1,2.26-2.86,4.11-4.86A12,12,0,0,1,43.3,44.48Z" fill="#fff"/><path d="M49,22.11s2.4-2.86,10.05-3.3c0,0-5.92-1.1-8.77.81a30.83,30.83,0,0,0-3.06-4.92S49.24,19.42,49,22.11Z" fill="#fff"/><path d="M59.8,12.21c1.94,0,3.2-.25,3.76-.74s.85-1.56.85-3.23V7.82H62.29v.54c0,.8-.15,1.31-.47,1.55a3.88,3.88,0,0,1-2,.35c-1.3,0-2.07-.21-2.3-.64a12.3,12.3,0,0,1-.36-4.07,6.63,6.63,0,0,1,.4-3.08c.26-.35,1-.52,2.36-.52a3.48,3.48,0,0,1,1.89.33c.27.22.41.72.41,1.51V4.1h2.12V3.82c0-1.52-.27-2.54-.81-3A4.73,4.73,0,0,0,60.32,0C58.13,0,56.7.31,56,.94s-1,1.92-1,3.9c0,3.37.25,5.43.76,6.21S57.6,12.21,59.8,12.21Z" fill="#fff"/><polygon points="73.09 10.06 67.86 10.06 67.86 0.1 65.74 0.1 65.74 12.1 73.09 12.1 73.09 10.06" fill="#fff"/><rect x="74.16" y="0.11" width="2.12" height="12" fill="#fff"/><polygon points="85.72 10.19 80.16 10.19 80.16 6.79 85.39 6.79 85.39 5.12 80.16 5.12 80.16 2.02 85.67 2.02 85.67 0.1 78.04 0.1 78.04 12.1 85.72 12.1 85.72 10.19" fill="#fff"/><path d="M89.42,5.22l0-1.57,0-.78,0-.8h.08l.36.87.36.86c.33.82.58,1.39.74,1.72l3.19,6.58h3.59V.11H95.54V8.56l0,.77,0,.78h-.07l-.42-1-.43-1c-.34-.77-.64-1.42-.89-2L90.89.11H87.3v12h2.12Z" fill="#fff"/><polygon points="101.95 12.1 104.06 12.1 104.06 2.15 107.4 2.15 107.4 0.1 98.73 0.1 98.73 2.15 101.95 2.15 101.95 12.1" fill="#fff"/></svg>