<?xml version="1.0" encoding="UTF-8"?>
<svg id="Layer_1" data-name="Layer 1" xmlns="http://www.w3.org/2000/svg" viewBox="0 0 211.98 93.89">
  <defs>
    <style>
      .cls-1 {
        fill: #231f20;
      }
    </style>
  </defs>
  <g>
    <path class="cls-1" d="M60.49,20.61c0-5.57,8.05-12.21,14.43-15.88,1.84-1.07,9.38-4.74,13.52-4.74,1.84,0,2.62,1.4,3.53,3,1.13,1.07,1.84,2.54,1.84,3.47,0,2.23-6.54,6.47-10.74,8.54-1.91,.93-4.98,1.87-6.47,1.87-.71,0-2.07-1.07-2.07-2.23,0-1.53,4.98-3.77,5.37-3.77s.13,1.1,.32,1.07c.45-.07,7.18-3.7,9.7-6.4,.19-.2,.29-.37,.29-.67,0-.5-.19-.97-.84-.97-.94,0-4.59,1.73-6.57,2.57-8.93,3.87-18.89,12.34-18.89,16.81,0,1.73,1.42,2.17,2.75,2.17,1.58,0,3.69-.6,5.53-1.23,4.98-1.7,9.9-4.54,13.85-7.07,.13-.07,.23-.1,.29-.1s.1,.03,.1,.13c0,.3-.39,1-.52,1.17-2.65,3.47-8.38,7.27-13.2,9.61-1.13,.57-2.68,1.07-4.59,1.07-.26,0-.55,0-.84-.03-2.75-.23-6.79-5.34-6.79-8.37Z"/>
    <path class="cls-1" d="M87.24,20.48c-1.52,2-2.49,3.84-2.49,5.24,0,.8,.58,.97,1.13,.97,2.56,0,7.15-3.44,9.8-5.74,.26-.23,.52-.4,.71-.4s.61,.37,.61,1.03c0,.97-6.79,7.14-11.39,7.14-2.3,0-4.08-2.13-4.08-4.6,0-4.87,8.44-13.44,14.27-17.58,1.62-1.13,4.01-2.83,5.53-2.83,1.94,0,4.08,1.9,4.08,3.44,0,.87-.52,1.53-1.07,2.2-3.59,4.24-14.49,11.91-15.92,11.91-.52,0-.81-.17-1.2-.77Zm1.39-1.73c.03,.1,.1,.2,.23,.2,.78,0,13.55-10.07,13.55-11.74,0-.4-.13-.53-.45-.53-.49,0-8.41,6.27-13.33,12.07Z"/>
    <path class="cls-1" d="M93.29,25.08c0-2.9,7.99-10.54,8.83-11.17,.26-.2,.39-.2,.52-.2,.26,0,2.56,2,2.56,2.57,0,.1-.03,.3-.23,.5-6.89,6.87-8.35,8.47-8.35,9.04,0,.1,.03,.2,.19,.2,.74,0,2.56-1,5.18-2.97,.71-.53,1.84-1.63,2.2-1.63,.32,0,.65,.8,.65,.97,0,.23-.19,.43-.26,.53-1,1.43-6.53,5.5-8.28,5.5-1.84,0-3.01-1.67-3.01-3.34Zm12.55-14.11c0-2,2.07-2.87,2.69-2.87,.55,0,1.81,.9,1.81,2.23,0,.8-1.42,2.94-2.65,2.94-.61,0-1.84-1.1-1.84-2.3Z"/>
    <path class="cls-1" d="M107.36,22.58c-.62,.97-.97,1.8-.97,2.4,0,.53,.26,1.23,1.26,1.23,.58,0,1.29-.2,1.68-.33,5.92-2.23,9.03-5.2,9.32-5.2,.26,0,.29,.2,.29,.33,0,.37-1.29,1.9-2.62,3.14-2.36,2.23-5.56,4.57-8.73,4.57-1.42,0-4.5-3.44-4.5-4.77,0-3.17,2.43-5.87,4.95-8.21,2.59-2.4,4.56-3.47,5.79-3.47,.68,0,1.58,.7,2.39,1.63,1.16,1.1,1.26,1.67,1.26,2.1,0,3.2-5.34,7.74-7.76,7.74-.68,0-1.65-.4-2.36-1.17Zm.94-1.27c.26,.4,.62,.43,.78,.43,1.84,0,6.11-4.7,6.11-5.74,0-.27-.16-.37-.39-.37s-.52,.13-.68,.23c-2.17,1.53-4.33,3.57-5.82,5.44Z"/>
    <path class="cls-1" d="M122.63,25.05c0-1.7,1.65-3.47,2.88-4.74,.03-.03,.13-.13,.13-.23,0-.03-.03-.07-.1-.07-.13,0-.32,.1-.42,.17-2.23,1.53-5.82,4.87-8.38,7.71-.16,.23-.29,.33-.45,.33-.1,0-.23-.07-.39-.13-.84-.5-1.81-1.97-1.81-3.07,0-.4,.29-.97,.68-1.37,3.66-3.74,5.82-5.77,8.48-9.17,.13-.17,.23-.2,.32-.2,.45,0,1.46,1.37,1.46,2,0,.57-1.39,2.03-1.65,2.47,.39-.07,3.79-2.4,7.05-4.04,.1-.03,.19-.07,.29-.07,.81,0,2.72,1.73,2.72,2.6,0,.17-.03,.3-.29,.57-2.2,2.07-7.15,6.3-7.15,7.6,0,.1,.03,.53,.49,.53,.94,0,4.72-2.47,7.18-4.97,.1-.1,.16-.13,.29-.13,.42,0,.74,.5,.74,.93,0,.4-1.1,1.7-3.07,3.4-2.04,1.77-4.08,3.2-5.82,3.2-1.62,0-3.17-1.53-3.17-3.34Z"/>
    <path class="cls-1" d="M138.9,12.21c1.26,0,2.46-.1,3.56-.27,4.92-4.77,5.43-5.3,5.66-5.3,.32,0,1.52,1.63,2.01,2.37,.06,.1,.1,.2,.1,.3,0,.2-.58,.73-1.42,1.5,1.04,.03,1.46,.27,1.97,.87,.49,.57,.71,1,.71,1.43,0,.63-3.23,1-6.31,1.2-4.08,3.97-9.09,9.07-9.09,10.47,0,.27,.13,.43,.55,.43,.68,0,2.78-.57,6.83-4.4,.29-.3,.52-.47,.87-.47,.23,0,.55,.5,.55,.93,0,.5-1.17,2.07-5.86,5.47-1.16,.87-2.81,1.63-4.04,1.63-1.49,0-3.11-2.77-3.11-3.94,0-1.9,2.1-4.34,7.92-9.97-2.13-.03-2.98-.7-2.98-2.33,0-.13,.03-.27,.19-.27,.32,0,.71,.33,1.88,.33Z"/>
  </g>
  <path class="cls-1" d="M126.35,74.63c1.39,0,2.41,.62,3.03,1.28,.73,.77,1.21,1.79,1.46,2.52,.04,.11,.07,.17,.18,.15l.44-.07c.07-.02,.07-.11,.07-.26l-.18-3.65c0-.14-.04-.26-.22-.26-.11,0-.17,.06-.26,.18l-.22,.29c-.11,.15-.22,.2-.44,.04-.59-.44-1.97-.99-3.73-.99-3.37,0-5.8,.72-7.36,5.59l-1.5,3.92-2.28-5.12s-.96-2.28-1.37-2.28-1.4,2.12-1.4,2.12c0,0-2.47,5.28-2.61,5.66l-.04-.02-2.84-8.44c-.13-.38,.07-.64,.44-.64h.35c.13,0,.17-.06,.17-.15v-.46c0-.09-.04-.13-.15-.13-.14,0-1.01,.03-1.79,.04-.09,0-.22,.27-.35,.62-.56,1.24-3.22,7.06-3.37,7.52h-.07l-3.31-7.7c-.07-.22-.2-.4-.46-.4s-.4,.29-.47,.47c-.37,.91-4.1,11.15-4.28,11.55-.18,.42-.51,.6-.8,.6h-.38c-.11,0-.13,.06-.13,.15v.5c0,.05,.04,.09,.11,.09,.14,0,.69-.05,1.72-.05,1.13,0,1.75,.05,1.94,.05,.11,0,.14-.05,.14-.15v-.44c0-.09-.02-.15-.12-.15h-.5c-.44,0-.62-.25-.62-.51,0-1.01,2.09-7.04,2.63-8.64h.07l2.63,6.53s.6,1.43,.98,1.43c.57,0,1.43-2.01,1.43-2.01,0,0,2.47-5.51,2.62-5.89l.04,.02,2.84,8.44c.13,.38-.07,.64-.44,.64h-.35c-.13,0-.16,.06-.16,.15v.46c0,.09,.04,.13,.15,.13,.15,0,.62-.02,1.51-.03,.14,0,.25-.06,.35-.15,.08-.07,.15-.15,.19-.25,.08-.2,3.31-7.02,3.47-7.53h.08l3.31,7.47c.07,.22,.2,.4,.46,.4,.98,0,1.3-.39,1.7-1.5,.2-.57,1.39-3.93,2.47-6.78,1.29-3.39,3.26-4.38,5.23-4.38Zm5.92,6.79c-.19,0-.81,.06-2.34,.06s-2.38-.06-2.6-.06c-.07,0-.11,.03-.11,.15v.42c0,.09,.04,.17,.15,.17h.77c.48,0,.66,.18,.66,.84v1.33c0,.95-.04,1.46-.44,1.68-.62,.33-1.32,.31-2.49,.31-1.81,0-3.12-1.14-4.62-2.35-.23-.18-.36-.1-.41,0-.06,.1-.29,.7-.36,.85-.06,.15-.09,.35,.11,.53,1.26,1.4,3.41,1.98,5.14,1.98,2.19,0,3.69-.44,5.19-1.21,.18-.07,.29-.15,.29-.29s-.07-.33-.07-.58v-2.41c0-.53,.22-.67,.55-.67h.62c.11,0,.14-.04,.14-.15v-.46c0-.1-.04-.13-.18-.13Z"/>
  <g>
    <path class="cls-1" d="M76.57,86.92c-.56-.61-.56-.93-.56-1.2,0-.69,.35-1.41,.65-1.94,.86-1.47,1.98-2.56,3.92-4.47,2.51-2.48,3.51-3.38,4.39-4.13,.16-.14,.27-.24,.42-.24,.16,0,.97,.83,.97,1.26,0,.05-.03,.16-.1,.24-.62,.83-2.68,2.18-5.14,4.64,.58,0,1.04,.26,1.37,.58,.42,.38,.72,.72,.72,1.12,0,.24-.08,.54-.16,.74-.59,1.44-3,4.55-4.7,4.55-.66,0-1.12-.42-1.79-1.15Zm1.34-.5c.26,0,.53-.14,1.05-.59,.85-.72,2.68-2.87,2.72-3.71,0-.18-.16-.26-.3-.26-.99,0-3.71,3.3-3.71,4.24,0,.14,.03,.32,.24,.32Z"/>
    <path class="cls-1" d="M84.55,86.49c1.58-.93,3-2.24,6.58-5.19,.08-.06,.3-.21,.48-.21,.32,0,1.2,.54,1.2,1.18,0,.19-.81,.85-1.55,1.58-2.89,2.9-5.4,5.84-7.73,9.22-.16,.24-.43,.8-.58,.8-.19,0-1.02-.66-1.02-1.57,0-.96,.82-1.94,1.53-2.75,.96-1.1,1.74-1.89,2.94-3.07,.05-.05,.08-.11,.08-.14s-.02-.05-.03-.05c-.03,0-.08,.03-.11,.06-2.03,1.68-2.4,1.68-2.62,1.68-.34,0-.61-.16-.99-.9-.14-.29-.3-.8-.3-1.07,0-1.63,2.19-3.19,4.81-5.28,.05-.03,.11-.05,.19-.05,.7,0,1.47,.93,1.47,1.17,0,.03-.02,.08-.06,.1-1.63,1.26-3.21,2.58-4.6,4.1-.06,.08-.1,.16-.1,.22,0,.13,.08,.22,.22,.22,.05,0,.11-.02,.19-.06Z"/>
  </g>
  <g>
    <path class="cls-1" d="M60.38,28.39s3.3,5.44,3.42,8.79c0,0,4.38-4.33,13.68-6.14,0,0-9.05-.37-12.52,2.87,0,0-2.46-3.62-4.57-5.52Z"/>
    <g>
      <g>
        <path class="cls-1" d="M0,39.22H21.42c5.59,0,7.06,.2,8.82,1.12,2.6,1.36,3.61,3.76,3.61,8.6,0,5.56-1.09,8.2-3.91,9.48-1.43,.68-3.49,.92-7.77,.92H8.49v6.56H0v-26.68Zm20.88,13.64c3.49,0,4.5-.72,4.5-3.24,0-3.2-.8-3.92-4.5-3.92H8.49v7.16h12.39Z"/>
        <path class="cls-1" d="M79.34,39.22h24.15c4.16,0,6.17,.28,7.77,1.04,2.31,1.16,3.36,3.56,3.36,7.76,0,3.16-.8,5.28-2.39,6.32-1.05,.72-2.02,.96-5.42,1.44l1.39,.08c3.19,.16,4.37,.56,5.21,1.88,.63,.96,.84,1.92,.84,3.96v4.2h-8.65v-3.32c0-1.52-.29-2.36-1.05-2.88-.67-.44-1.34-.52-3.65-.52h-13.06v6.72h-8.49v-26.68Zm21.8,13.44c4.08,0,4.92-.52,4.92-2.96,0-1.88-.17-2.6-.71-3.16-.67-.64-1.34-.76-3.91-.76h-13.61v6.88h13.32Z"/>
        <path class="cls-1" d="M128.44,45.82h-12.48v-6.6h33.48v6.6h-12.48v20.08h-8.53v-20.08Z"/>
        <path class="cls-1" d="M156.24,39.22h11.43l15.33,26.68h-9.33l-2.77-4.76h-18.06l-2.69,4.76h-9.66l15.75-26.68Zm11.68,16.36l-6.05-10.64-5.96,10.64h12.01Z"/>
        <path class="cls-1" d="M184.17,39.22h8.53v20.08h19.28v6.6h-27.81v-26.68Z"/>
      </g>
      <path class="cls-1" d="M71.7,38.07l-1.8,2.45c2.61,2.69,4.43,6.18,4.97,10.17,1.34,9.91-5.63,19.06-15.54,20.4s-19.06-5.63-20.4-15.53,5.56-18.96,15.39-20.37l.2-3.04c-.15,.02-.3,.02-.46,.04-11.56,1.57-19.67,12.21-18.1,23.78s12.21,19.67,23.77,18.1c11.56-1.57,19.67-12.21,18.11-23.77-.65-4.83-2.91-9.05-6.14-12.22Z"/>
      <path class="cls-1" d="M52.87,65.32l-7.31-21.5,7.01,1.92c.24-3.44,.82-13.18,3.22-20.33l.46,.15c-2.66,7.9-1.75,22.29-1.75,22.29l-7.81-2.89,7.24,15.59,15.21-8.79-7.29-1.95,.35-.35c.3-.55,8.28-12.2,15.46-17.62l.34,.32c-5.72,4.31-11.64,14.07-13.47,17.24l7.78,2.18-19.44,13.73Z"/>
    </g>
  </g>
</svg>