<?xml version="1.0" encoding="iso-8859-1"?>
<!-- Generator: Adobe Illustrator 19.1.0, SVG Export Plug-In . SVG Version: 6.00 Build 0)  -->
<svg version="1.1" xmlns="http://www.w3.org/2000/svg" xmlns:xlink="http://www.w3.org/1999/xlink" x="0px" y="0px"
	 viewBox="0 0 275.1 265.9" style="enable-background:new 0 0 275.1 265.9;" xml:space="preserve">
<style type="text/css">
	.st0{display:none;}
	.st1{display:inline;fill:#5D5E5E;}
	.st2{fill:#ABADB0;}
	.st3{fill:#001F5B;}
	.st4{fill:#8C8E90;}
	.st5{fill:none;stroke:#ABADB0;stroke-width:1.5;stroke-miterlimit:10;}
	.st6{fill:#FFFFFF;}
	.st7{fill:#FFFFFF;stroke:#FFFFFF;stroke-width:1.5;stroke-miterlimit:10;}
	.st8{fill:#A7A9AC;}
	.st9{fill:#939598;}
	.st10{fill:#ABADB0;stroke:#A7A9AC;stroke-miterlimit:10;}
	.st11{stroke:#FFFFFF;stroke-width:2.0592;stroke-miterlimit:10;}
	.st12{fill:none;stroke:#FFFFFF;stroke-width:1.5;stroke-miterlimit:10;}
	.st13{opacity:0.5;}
</style>
<a xmlns="http://www.w3.org/2000/svg" xmlns:xlink="http://www.w3.org/1999/xlink" xlink:href="http://morganwhite.com" target="_top">
<g id="logo-corporate">
	<g>
		<path class="st6" d="M-0.1,174.3h7.9l5.5,16.2h0.1l5.5-16.2h7.9v24.8h-5.2v-19h-0.1l-6.2,19h-4l-6-19H5.2v19h-5.2V174.3z"/>
		<path class="st6" d="M30.4,186.7c0-2,0.3-3.8,1-5.4c0.6-1.6,1.5-3,2.7-4.1c1.1-1.1,2.5-2,4.1-2.6c1.6-0.6,3.3-0.9,5.1-0.9
			c1.9,0,3.6,0.3,5.1,0.9s2.9,1.5,4.1,2.6c1.1,1.1,2,2.5,2.7,4.1c0.6,1.6,1,3.4,1,5.4c0,2-0.3,3.8-1,5.4c-0.6,1.6-1.5,3-2.7,4.1
			c-1.1,1.1-2.5,2-4.1,2.6s-3.3,0.9-5.1,0.9c-1.9,0-3.6-0.3-5.1-0.9c-1.6-0.6-2.9-1.5-4.1-2.6c-1.1-1.1-2-2.5-2.7-4.1
			C30.7,190.5,30.4,188.7,30.4,186.7z M35.8,186.7c0,1.2,0.2,2.2,0.5,3.2c0.3,1,0.8,1.8,1.5,2.5c0.6,0.7,1.4,1.3,2.3,1.7
			s1.9,0.6,3,0.6s2.1-0.2,3-0.6s1.7-1,2.3-1.7c0.6-0.7,1.1-1.6,1.5-2.5c0.3-1,0.5-2,0.5-3.2c0-1.1-0.2-2.2-0.5-3.2
			c-0.3-1-0.8-1.8-1.5-2.5c-0.6-0.7-1.4-1.3-2.3-1.7c-0.9-0.4-1.9-0.6-3-0.6s-2.1,0.2-3,0.6c-0.9,0.4-1.7,1-2.3,1.7
			c-0.6,0.7-1.1,1.6-1.5,2.5C36,184.5,35.8,185.6,35.8,186.7z"/>
		<path class="st6" d="M59.6,174.3h9.2c1.2,0,2.4,0.1,3.4,0.4c1.1,0.2,2,0.7,2.9,1.2c0.8,0.6,1.5,1.3,1.9,2.3c0.5,1,0.7,2.2,0.7,3.6
			c0,1.8-0.4,3.2-1.3,4.5c-0.9,1.2-2.2,2-3.8,2.3l6,10.5h-6.3l-5-9.9h-2.6v9.9h-5.2V174.3z M64.9,184.6H68c0.5,0,1,0,1.5-0.1
			c0.5,0,1-0.1,1.4-0.3c0.4-0.2,0.8-0.4,1.1-0.8c0.3-0.4,0.4-0.9,0.4-1.6c0-0.6-0.1-1.1-0.4-1.5c-0.2-0.4-0.6-0.7-0.9-0.9
			c-0.4-0.2-0.8-0.3-1.3-0.4c-0.5-0.1-1-0.1-1.4-0.1h-3.4V184.6z"/>
		<path class="st6" d="M102.9,197.4c-1.5,0.8-3.2,1.4-4.8,1.8c-1.7,0.4-3.4,0.6-5.1,0.6c-1.9,0-3.6-0.3-5.1-0.9
			c-1.6-0.6-2.9-1.5-4.1-2.6c-1.1-1.1-2-2.5-2.7-4.1c-0.6-1.6-1-3.4-1-5.4c0-2,0.3-3.8,1-5.4c0.6-1.6,1.5-3,2.7-4.1
			c1.1-1.1,2.5-2,4.1-2.6c1.6-0.6,3.3-0.9,5.1-0.9c1.9,0,3.7,0.2,5.3,0.7s3,1.3,4.2,2.5l-3.7,4.2c-0.7-0.8-1.5-1.4-2.4-1.8
			c-0.9-0.4-2-0.6-3.4-0.6c-1.1,0-2.1,0.2-3,0.6c-0.9,0.4-1.7,1-2.3,1.7c-0.6,0.7-1.1,1.6-1.5,2.5c-0.3,1-0.5,2-0.5,3.2
			c0,1.2,0.2,2.2,0.5,3.2c0.3,1,0.8,1.8,1.5,2.5c0.6,0.7,1.4,1.3,2.3,1.7s1.9,0.6,3,0.6c1.1,0,2.1-0.1,3-0.4c0.8-0.3,1.5-0.5,2-0.8
			v-4h-4.3v-5h9.3V197.4z"/>
		<path class="st6" d="M115.4,174.3h4.3l10.3,24.8h-5.9l-2-5.2h-9.2l-2,5.2h-5.8L115.4,174.3z M117.4,181.5l-2.9,7.7h5.8
			L117.4,181.5z"/>
		<path class="st6" d="M132.4,174.3h7.1l10.1,17.2h0.1v-17.2h5.2v24.8h-6.9l-10.4-17.6h-0.1v17.6h-5.2V174.3z"/>
		<path class="st6" d="M167.3,174.3h5.7l3.8,15.9h0.1l5-15.9h4.9l4.9,16.3h0.1l4-16.3h5.3l-7,24.8h-4.7l-5.2-17.2h-0.1l-5.2,17.2
			h-4.5L167.3,174.3z"/>
		<path class="st6" d="M203.4,174.3h5.2v9.2h10.2v-9.2h5.2v24.8h-5.2v-10.7h-10.2v10.7h-5.2V174.3z"/>
		<path class="st6" d="M228.8,174.3h5.2v24.8h-5.2V174.3z"/>
		<path class="st6" d="M243.4,179.2h-6.8v-4.8h18.8v4.8h-6.8v20h-5.2V179.2z"/>
		<path class="st6" d="M258.3,174.3h16.2v5h-10.9v4.6h10.3v5h-10.3v5h11.5v5h-16.8V174.3z"/>
		<path class="st6" d="M100.4,215.1c-0.6-0.7-1.4-1.2-2.2-1.6c-0.9-0.4-1.9-0.6-3-0.6c-1.2,0-2.2,0.2-3.2,0.7
			c-0.9,0.4-1.7,1-2.4,1.7c-0.6,0.7-1.1,1.6-1.5,2.5s-0.5,2-0.5,3s0.2,2.1,0.5,3c0.3,1,0.8,1.8,1.5,2.5c0.6,0.7,1.4,1.3,2.4,1.7
			c0.9,0.4,2,0.7,3.2,0.7c1,0,1.9-0.1,2.7-0.4c0.9-0.2,1.7-0.5,2.4-0.9v-6.2h-4.4v-1.7h6.3v9c-1,0.6-2.2,1.1-3.4,1.4
			c-1.2,0.3-2.4,0.5-3.5,0.5c-1.4,0-2.6-0.2-3.8-0.7c-1.2-0.5-2.2-1.2-3-2c-0.9-0.9-1.5-1.9-2-3.1c-0.5-1.2-0.7-2.5-0.7-3.9
			s0.2-2.7,0.7-3.9c0.5-1.2,1.2-2.2,2-3.1c0.9-0.9,1.9-1.5,3-2c1.2-0.5,2.4-0.7,3.8-0.7c1.5,0,2.7,0.2,3.8,0.6c1.1,0.4,2,1,2.8,1.9
			L100.4,215.1z"/>
		<path class="st6" d="M112.8,230.1H111v-18.4h5.7c1.9,0,3.3,0.4,4.4,1.2c1.1,0.8,1.6,2,1.6,3.7c0,1.3-0.4,2.4-1.2,3.2
			c-0.8,0.9-2,1.4-3.5,1.5l5.3,8.7H121l-5-8.6h-3.1V230.1z M112.8,219.8h3.3c0.8,0,1.5-0.1,2.1-0.3c0.6-0.2,1-0.4,1.4-0.7
			c0.3-0.3,0.6-0.6,0.8-1c0.2-0.4,0.2-0.8,0.2-1.3c0-0.4-0.1-0.8-0.2-1.2c-0.2-0.4-0.4-0.7-0.8-1c-0.3-0.3-0.8-0.5-1.4-0.7
			c-0.6-0.2-1.3-0.2-2.1-0.2h-3.3V219.8z"/>
		<path class="st6" d="M148.2,220.9c0,1.4-0.2,2.7-0.7,3.9s-1.2,2.2-2,3.1c-0.9,0.9-1.9,1.5-3,2c-1.2,0.5-2.4,0.7-3.8,0.7
			s-2.6-0.2-3.8-0.7c-1.2-0.5-2.2-1.2-3-2c-0.9-0.9-1.5-1.9-2-3.1c-0.5-1.2-0.7-2.5-0.7-3.9s0.2-2.7,0.7-3.9c0.5-1.2,1.2-2.2,2-3.1
			c0.9-0.9,1.9-1.5,3-2c1.2-0.5,2.4-0.7,3.8-0.7s2.6,0.2,3.8,0.7s2.2,1.2,3,2c0.9,0.9,1.5,1.9,2,3.1S148.2,219.5,148.2,220.9z
			 M146.2,220.9c0-1.1-0.2-2.1-0.5-3c-0.3-1-0.8-1.8-1.5-2.5c-0.6-0.7-1.4-1.3-2.4-1.7c-0.9-0.4-2-0.7-3.2-0.7s-2.2,0.2-3.2,0.7
			c-0.9,0.4-1.7,1-2.4,1.7c-0.6,0.7-1.1,1.6-1.5,2.5s-0.5,2-0.5,3s0.2,2.1,0.5,3c0.3,1,0.8,1.8,1.5,2.5c0.6,0.7,1.4,1.3,2.4,1.7
			c0.9,0.4,2,0.7,3.2,0.7s2.2-0.2,3.2-0.7c0.9-0.4,1.7-1,2.4-1.7c0.6-0.7,1.1-1.6,1.5-2.5C146,223,146.2,222,146.2,220.9z"/>
		<path class="st6" d="M169,223.2c0,0.8-0.1,1.6-0.3,2.4c-0.2,0.9-0.5,1.7-1,2.4c-0.5,0.7-1.2,1.3-2.1,1.8s-2,0.7-3.4,0.7
			c-1.4,0-2.5-0.2-3.4-0.7c-0.9-0.5-1.6-1.1-2.1-1.8c-0.5-0.7-0.8-1.5-1-2.4c-0.2-0.9-0.3-1.7-0.3-2.4v-11.5h1.9V223
			c0,0.9,0.1,1.6,0.3,2.3c0.2,0.6,0.4,1.2,0.7,1.6c0.3,0.4,0.6,0.8,1,1s0.7,0.4,1.1,0.6s0.7,0.2,1,0.3c0.3,0,0.6,0.1,0.9,0.1
			c0.2,0,0.5,0,0.8-0.1c0.3,0,0.7-0.1,1-0.3c0.4-0.1,0.7-0.3,1.1-0.6s0.7-0.6,1-1c0.3-0.4,0.5-1,0.7-1.6c0.2-0.6,0.3-1.4,0.3-2.3
			v-11.3h1.9V223.2z"/>
		<path class="st6" d="M177.6,211.7h5.4c1.9,0,3.3,0.4,4.4,1.2c1.1,0.8,1.6,2,1.6,3.7s-0.5,2.9-1.6,3.7s-2.6,1.2-4.4,1.2h-3.5v8.6
			h-1.9V211.7z M179.5,219.8h3c0.8,0,1.5-0.1,2.1-0.3c0.6-0.2,1-0.4,1.4-0.7c0.3-0.3,0.6-0.6,0.8-1c0.2-0.4,0.2-0.8,0.2-1.3
			c0-0.4-0.1-0.8-0.2-1.2c-0.2-0.4-0.4-0.7-0.8-1c-0.3-0.3-0.8-0.5-1.4-0.7c-0.6-0.2-1.3-0.2-2.1-0.2h-3V219.8z"/>
		<line class="st12" x1="74.9" y1="220.5" x2="25.3" y2="220.5"/>
		<line class="st12" x1="252.1" y1="220.5" x2="202.5" y2="220.5"/>
		<circle class="st3" cx="137.2" cy="77.6" r="64.3"/>
		<path class="st6" d="M137.2,12.3c-36,0-65.4,29.3-65.4,65.4s29.3,65.4,65.4,65.4c36,0,65.4-29.3,65.4-65.4S173.2,12.3,137.2,12.3z
			 M137.2,141c-28.3,0-52.4-18.7-60.4-44.4c1.8,0,4.9-0.1,7-0.1c3.2,0,4.9,0.2,5.4,0.2c0.3,0,0.4-0.2,0.4-0.4V95
			c0-0.3-0.1-0.4-0.4-0.4h-1.4c-1.2,0-1.7-0.7-1.7-1.4c0-2.8,5.8-19.7,7.4-24.3h0.2l7.4,18.3c0,0,1.7,4,2.7,4c1.6,0,4-5.6,4-5.6
			s6.9-15.5,7.3-16.5l0.1,0.1l8,23.7c0.4,1.1-0.2,1.8-1.2,1.8h-1c-0.4,0-0.5,0.2-0.5,0.4v1.3c0,0.3,0.1,0.4,0.4,0.4
			c0.4,0,1.7,0,4.2-0.1c0.4,0,0.7-0.2,1-0.4c0.2-0.2,0.4-0.4,0.5-0.7c0.2-0.6,9.3-19.7,9.7-21.1h0.2l9.3,21c0.2,0.6,0.6,1.1,1.3,1.1
			c2.7,0,3.7-1.1,4.8-4.2c0.6-1.6,3.9-11,6.9-19c3.6-9.5,9.1-12.3,14.7-12.3c3.9,0,6.8,1.7,8.5,3.6c2.1,2.2,3.4,5,4.1,7.1
			c0.1,0.3,0.2,0.5,0.5,0.4l1.2-0.2c0.2-0.1,0.2-0.3,0.2-0.7l-0.5-10.3c0-0.4-0.1-0.7-0.6-0.7c-0.3,0-0.5,0.2-0.7,0.5l-0.6,0.8
			c-0.3,0.4-0.6,0.6-1.2,0.1c-1.6-1.2-5.5-2.8-10.5-2.8c-9.5,0-16.3,2-20.7,15.7l-4.2,11L142.8,71c0,0-2.7-6.4-3.8-6.4
			c-1.2,0-3.9,6-3.9,6s-6.9,14.8-7.3,15.9l-0.1-0.1l-8-23.7c-0.4-1.1,0.2-1.8,1.2-1.8h1c0.4,0,0.5-0.2,0.5-0.4v-1.3
			c0-0.3-0.1-0.4-0.4-0.4c-0.4,0-2.8,0.1-5,0.1c-0.2,0-0.6,0.7-1,1.7c-1.6,3.5-9,19.8-9.5,21.1h-0.2l-9.3-21.6
			c-0.2-0.6-0.6-1.1-1.3-1.1c-0.7,0-1.1,0.8-1.3,1.3c-1,2.6-11.5,31.3-12,32.4c-0.5,1.2-1.4,1.7-2.3,1.7h-3.8
			c-1.5-5.4-2.3-11.1-2.3-16.9c0-34.9,28.4-63.3,63.3-63.3c34.9,0,63.3,28.4,63.3,63.3c0,0.8,0,1.5-0.1,2.2c-0.1,0-0.1,0-0.2,0
			c-0.5,0-12.3,0.2-16.6,0.2c-4.2,0-6.7-0.2-7.3-0.2c-0.2,0-0.3,0.1-0.3,0.4v1.2c0,0.3,0.1,0.5,0.4,0.5h2.2c1.3,0,1.8,0.5,1.8,2.4
			V88c0,2.7-0.1,4.1-1.2,4.7c-1.7,0.9-3.7,0.9-7,0.9c-5.1,0-8.8-3.2-13-6.6c-0.6-0.5-1-0.3-1.2,0c-0.2,0.3-0.8,1.9-1,2.4
			c-0.2,0.4-0.2,1,0.3,1.5c3.5,3.9,9.6,5.6,14.4,5.6c6.2,0,10.4-1.2,14.6-3.4c0.5-0.2,0.8-0.4,0.8-0.8c0-0.4-0.2-0.9-0.2-1.6v-6.8
			c0-1.5,0.6-1.9,1.5-1.9h11.8C198.1,114.8,170.7,141,137.2,141z"/>
		<path class="st2" d="M207.1,77.6c0.4,0.8,0.7,1.7,1,2.6c0.2,0.8,0.7,1.5,0.8,2.3l0-0.1c1.6,2.8,3,5.7,3.8,9c0.4,1.7,0.2,3.4-0.3,5
			c-0.5,1.6-1.3,3.1-2.5,4.3c-0.2-1-0.4-2.1-0.5-3.2c-0.1-1.2-0.5-2.3-0.7-3.4l0,0.1c0,0,0,0,0,0c-0.3-0.6-0.5-1.3-0.8-1.9
			c-0.3-0.7-0.6-1.3-0.9-1.9c-0.5-1.3-1-2.6-1.4-3.8c-0.3-1.6-0.5-3.1-0.4-4.5C205.6,80.5,206.1,79,207.1,77.6z"/>
		<path class="st2" d="M205.9,89.8c0.3,0.9,0.6,1.8,0.6,2.7c0.1,0.8,0.4,1.6,0.4,2.4l0-0.1c0.5,1.5,0.9,3.1,1.4,4.6
			c0.4,1.6,0.6,3.2,0.7,4.9c0.2,3.4-1.7,6.7-4.4,8.6c0-1.1,0-2.2,0.1-3.2c0.1-1.2,0-2.3,0-3.4l0,0.1c0,0,0,0,0,0
			c-0.7-2.7-1.4-5.5-1.6-8.1c-0.2-1.6-0.1-3.2,0.4-4.6c0.2-0.7,0.6-1.4,1-2C205,91.1,205.4,90.5,205.9,89.8z"/>
		<path class="st2" d="M202.7,101.7c0.1,0.9,0.1,1.9,0.1,2.8c0,0.8,0.1,1.7,0,2.5l0-0.1c0.2,3.1,1,6.5,0.4,9.7
			c-0.3,1.6-0.9,3.3-1.9,4.6c-1.1,1.3-2.4,2.4-3.9,3.1c0.2-1.1,0.4-2.1,0.7-3.1c0.3-1.1,0.5-2.2,0.5-3.4l0,0.1c0,0,0,0,0,0
			c-0.2-2.8-0.3-5.6-0.1-8.2c0.1-1.7,0.5-3.1,1.3-4.4C200.6,103.9,201.4,102.7,202.7,101.7z"/>
		<path class="st2" d="M197.5,112.8c0,0.9-0.2,1.8-0.4,2.8c-0.2,0.8-0.1,1.7-0.4,2.5l0-0.1c-0.1,1.5-0.3,3.2-0.4,4.8
			c-0.2,1.6-0.3,3.3-1,4.9c-0.6,1.6-1.5,3-2.7,4.2c-1.2,1.2-2.8,1.9-4.4,2.4c0.4-1,0.8-2,1.3-2.9c0.5-1,0.7-2.2,1.1-3.3l-0.1,0.1
			c0,0,0,0,0,0c0.3-2.8,0.8-5.5,1.3-8.1c0.4-1.6,1.1-2.9,2.1-4.1C194.9,114.5,196,113.5,197.5,112.8z"/>
		<path class="st2" d="M190.5,122.8c-0.2,0.9-0.6,1.7-0.9,2.6c-0.3,0.7-0.5,1.6-0.8,2.3l0.1-0.1c-0.7,3.1-1.4,6.2-2.9,9.3
			c-0.9,1.4-2.1,2.6-3.5,3.6c-0.7,0.5-1.4,0.9-2.2,1.1c-0.8,0.2-1.6,0.4-2.5,0.4c0.5-0.9,1.2-1.7,1.7-2.6c0.6-1,1.1-2.1,1.6-3.1
			l-0.1,0.1c0,0,0,0,0,0c0.4-1.3,0.8-2.6,1.3-3.9c0.4-1.3,0.9-2.7,1.4-3.9C185.2,125.8,187.2,123.8,190.5,122.8z"/>
		<path class="st2" d="M181.8,131.4c-0.3,0.9-0.9,1.6-1.4,2.4c-0.4,0.7-0.8,1.5-1.2,2.1l0.1-0.1c-1.2,3-2.5,5.9-4.5,8.6
			c-1,1.4-2.5,2.2-4,2.9c-1.6,0.6-3.2,1.1-4.9,0.8c0.8-0.9,1.5-1.6,2.1-2.4c0.8-0.9,1.5-1.8,2.2-2.7l-0.1,0.1c0,0,0,0,0,0
			c1.3-2.3,2.5-5.1,4-7.2c0.5-0.7,1-1.2,1.5-1.7c0.5-0.6,1.1-1,1.7-1.4C178.6,132.1,180.1,131.7,181.8,131.4z"/>
		<path class="st2" d="M171.6,138.4c-0.5,0.8-1.1,1.5-1.7,2.2c-0.5,0.6-1,1.3-1.6,1.8l0.1-0.1c-0.9,1.3-1.7,2.7-2.7,4.1
			c-1,1.3-2,2.5-3.3,3.6c-0.6,0.6-1.3,1-2.1,1.5c-0.8,0.4-1.6,0.6-2.4,0.8c-1.6,0.3-3.4,0.3-4.9-0.1c0.8-0.7,1.7-1.4,2.5-2
			c0.9-0.7,1.8-1.5,2.6-2.2L158,148c0,0,0,0,0,0c1.7-2.1,3.3-4.6,5.2-6.4c1.2-1.1,2.4-2.1,3.8-2.6
			C168.4,138.5,170,138.4,171.6,138.4z"/>
		<path class="st2" d="M160.5,143.4c-0.6,0.7-1.3,1.3-2.1,1.9c-0.6,0.5-1.2,1.1-1.9,1.5l0.1-0.1c-2.2,2.2-4.3,4.9-7.2,6.5
			c-1.4,0.8-3.1,1.4-4.8,1.5c-1.7,0-3.4-0.4-4.9-1.1c0.9-0.6,1.9-1,2.8-1.4c1-0.5,2-1,3-1.7l-0.1,0.1c0,0,0,0,0,0
			c2-2,4.1-3.8,6.3-5.3C154.3,143.2,157.2,143,160.5,143.4z"/>
		<path class="st2" d="M148.6,146.5c-0.7,0.6-1.5,1-2.4,1.5c-0.7,0.4-1.4,1-2.1,1.3l0.1,0c-2.6,1.7-5.1,4-8.3,5.1
			c-3.1,1.1-6.9,0.8-9.6-1.3c1-0.4,2-0.6,3-0.9c1.1-0.3,2.2-0.9,3.2-1.3l-0.1,0c0,0,0,0,0,0c2.3-1.5,4.7-2.9,7.1-4.2
			c1.5-0.7,2.9-1,4.4-1C145.5,145.6,147,145.9,148.6,146.5z"/>
		<path class="st2" d="M136.4,147.5c-0.8,0.4-1.7,0.7-2.6,1c-0.8,0.2-1.5,0.7-2.3,0.8l0.1,0c-1.4,0.8-2.9,1.5-4.3,2.1
			c-1.5,0.6-3,1.2-4.7,1.6c-1.7,0.4-3.4,0.1-5-0.4c-1.6-0.5-3.1-1.3-4.2-2.6c1-0.1,2.1-0.2,3.2-0.4c1.2-0.1,2.3-0.4,3.4-0.7l-0.1,0
			c0,0,0,0,0,0c2.5-0.9,5.2-2.2,7.7-2.9c0.8-0.2,1.6-0.3,2.3-0.3c0.8,0,1.5-0.1,2.2,0C133.5,146,134.9,146.5,136.4,147.5z"/>
		<path class="st2" d="M124.2,146.3c-0.9,0.4-1.8,0.5-2.7,0.6c-0.8,0.1-1.6,0.4-2.4,0.4h0.1c-1.5,0.4-3.1,1-4.7,1.4
			c-1.6,0.3-3.2,0.6-4.9,0.6c-0.8,0-1.7-0.1-2.5-0.2c-0.8-0.2-1.6-0.6-2.3-1c-1.5-0.8-2.8-1.9-3.7-3.2c1.1,0,2.2,0.1,3.2,0.1
			c1.2,0.1,2.3,0,3.4,0l-0.1,0c0,0,0,0,0,0c2.7-0.5,5.5-1.4,8.1-1.5c1.6-0.1,3.2-0.1,4.5,0.5C121.6,144.3,122.9,145.3,124.2,146.3z"
			/>
		<path class="st2" d="M112.4,142.9c-0.9,0.1-1.9,0.1-2.8,0.1c-0.8-0.1-1.7,0-2.4-0.1l0.1,0c-1.5,0.2-3.2,0.3-4.8,0.5
			c-1.7,0.2-3.2,0-4.9-0.2c-1.6-0.3-3.3-0.9-4.6-2c-1.3-1.1-2.4-2.4-3.1-3.9c1.1,0.2,2.1,0.5,3.1,0.7c1.1,0.3,2.2,0.5,3.4,0.6
			l-0.1,0c0,0,0,0,0,0c2.8-0.2,5.7-0.3,8.3,0C107.9,138.7,110.2,140.4,112.4,142.9z"/>
		<path class="st2" d="M101.3,137.6c-0.9,0-1.8-0.2-2.8-0.4c-0.8-0.1-1.7-0.1-2.4-0.5l0.1,0c-1.5-0.1-3.2-0.3-4.8-0.4
			c-0.8-0.1-1.6-0.2-2.5-0.3c-0.8-0.2-1.6-0.4-2.4-0.7c-1.6-0.6-3-1.5-4.2-2.7c-1.1-1.3-1.9-2.8-2.3-4.4c1,0.4,2,0.8,2.9,1.3
			c0.5,0.3,1,0.5,1.6,0.7c0.6,0.2,1.1,0.3,1.7,0.5l-0.1-0.1c0,0,0,0,0,0c1.4,0.2,2.8,0.4,4.1,0.6c1.3,0.3,2.7,0.5,4,0.8
			c1.6,0.4,2.9,1.1,4.1,2.1C99.6,135,100.6,136.1,101.3,137.6z"/>
		<path class="st2" d="M91.4,130.4c-0.9-0.2-1.8-0.6-2.6-0.9c-0.7-0.3-1.6-0.5-2.4-0.8l0.1,0.1c-3-0.9-6.3-1.4-9.2-3.1
			c-2.8-1.7-5-4.8-5.1-8.2c0.9,0.5,1.8,1.2,2.6,1.8c0.9,0.7,2.1,1.1,3.1,1.6l-0.1-0.1c0,0,0,0,0,0c2.7,0.8,5.3,1.8,7.8,2.8
			c1.5,0.7,2.6,1.6,3.6,2.8C90.2,127.4,90.9,128.8,91.4,130.4z"/>
		<path class="st2" d="M82.9,121.6c-0.8-0.4-1.6-0.9-2.4-1.4c-0.7-0.4-1.5-0.8-2.1-1.3l0.1,0.1c-1.5-0.6-2.9-1.3-4.4-2
			c-1.4-0.7-2.9-1.6-4.2-2.6c-1.3-1.1-2.2-2.5-2.9-4.1c-0.7-1.5-1-3.2-0.7-4.9c0.8,0.7,1.5,1.5,2.3,2.2c0.9,0.8,1.8,1.5,2.7,2.2
			l-0.1-0.1c0,0,0,0,0,0c1.2,0.7,2.4,1.3,3.6,2c1.3,0.6,2.5,1.3,3.5,2.1C80.8,115.8,82.5,118.2,82.9,121.6z"/>
		<path class="st2" d="M76,111.4c-0.8-0.5-1.4-1.1-2.1-1.8c-0.6-0.5-1.3-1-1.9-1.6l0.1,0.1c-2.7-1.7-5.4-3.5-7.6-6
			c-1.2-1.2-1.8-2.8-2.1-4.5c-0.3-1.7-0.3-3.4,0.1-4.9c0.7,0.8,1.3,1.7,2,2.5c0.7,0.9,1.5,1.8,2.2,2.6l-0.1-0.1c0,0,0,0,0,0
			c0.5,0.4,1.1,0.9,1.6,1.3c0.6,0.4,1.1,0.9,1.7,1.3c1.1,0.9,2.1,1.8,3,2.7c1.1,1.2,2,2.4,2.5,3.8C75.9,108.2,76,109.8,76,111.4z"/>
		<path class="st2" d="M71.1,100.2c-0.7-0.6-1.4-1.3-1.9-2.1c-0.5-0.6-1.1-1.2-1.5-1.9l0.1,0.1c-1.1-1.1-2.3-2.2-3.5-3.4
			c-1.1-1.2-2.1-2.5-2.9-3.9c-1.8-2.9-1.7-6.7-0.3-9.6c0.6,0.9,1,1.9,1.4,2.9c0.5,1.1,1.1,2,1.7,3c0,0,0-0.1-0.1-0.1c0,0,0,0,0,0
			c1.9,2.1,3.9,4.1,5.3,6.3c1,1.3,1.6,2.7,1.9,4.2c0.1,0.7,0.2,1.5,0.1,2.3C71.3,98.6,71.2,99.4,71.1,100.2z"/>
		<path class="st2" d="M68.2,88.3c-0.6-0.7-1-1.6-1.5-2.4c-0.4-0.7-0.9-1.4-1.2-2.2l0,0.1c-0.9-1.3-1.8-2.6-2.7-3.9
			c-0.5-0.7-0.9-1.4-1.3-2.1c-0.4-0.7-0.7-1.5-1-2.3c-0.5-1.6-0.7-3.3-0.5-5c0.2-1.7,1-3.2,1.9-4.6c0.4,1,0.6,2,0.9,3
			c0.2,1.1,0.8,2.2,1.2,3.2l0-0.1c0,0,0,0,0,0c0.8,1.2,1.5,2.4,2.2,3.6c0.3,0.6,0.7,1.2,0.9,1.8c0.3,0.6,0.7,1.2,1,1.8
			c0.7,1.5,1.1,3,1,4.4C69,85.2,68.8,86.7,68.2,88.3z"/>
		<path class="st2" d="M67.3,76c-0.4-0.8-0.7-1.7-1-2.6c-0.2-0.8-0.7-1.6-0.8-2.3l0,0.1c-1.4-2.9-2.8-5.7-3.6-9.1
			c-0.2-1.6-0.1-3.4,0.5-5c0.3-0.8,0.6-1.6,1-2.3c0.4-0.7,1-1.3,1.6-1.9c0.2,1.1,0.1,2.1,0.3,3.2c0.1,1.2,0.4,2.3,0.7,3.4l0-0.1
			c0,0,0,0,0,0c0.5,1.3,1,2.6,1.4,3.9c0.5,1.3,1,2.6,1.4,3.9C69.5,70.3,69.2,73.2,67.3,76z"/>
		<path class="st2" d="M68.6,63.8c-0.3-0.9-0.3-1.8-0.5-2.7c-0.1-0.8-0.4-1.6-0.4-2.4v0.1c-1-3.1-1.8-6.1-1.9-9.6
			c-0.1-1.7,0.5-3.3,1.3-4.8c0.8-1.5,1.9-2.8,3.3-3.7c-0.1,1.2-0.1,2.2-0.2,3.2c-0.1,1.2,0,2.3,0,3.5l0-0.1c0,0,0,0,0,0
			c0.4,2.7,1.3,5.5,1.4,8.1c0,1.6-0.1,3.1-0.5,4.5C70.7,61.3,69.8,62.6,68.6,63.8z"/>
		<path class="st2" d="M72.1,52.1c-0.1-0.9-0.2-1.9-0.1-2.8c0.1-0.8,0-1.7,0.1-2.4l0,0.1c-0.2-1.5-0.3-3.2-0.5-4.8
			c0-1.6,0-3.2,0.3-4.9c0.4-3.4,3-6.2,6-7.6c-0.2,1.1-0.5,2.1-0.7,3.1c-0.3,1.1-0.4,2.3-0.6,3.4l0-0.1c0,0,0,0,0,0
			c0.1,2.8,0.3,5.7-0.1,8.2c-0.2,1.6-0.5,3.1-1.3,4.4C74.5,49.9,73.4,51,72.1,52.1z"/>
		<path class="st2" d="M77.6,41.1c0-0.9,0.2-1.8,0.4-2.8c0.1-0.8,0.3-1.6,0.5-2.4l0,0.1c0.4-3.1,0.3-6.5,1.5-9.6
			c0.6-1.5,1.5-3.1,2.8-4.1c1.3-1.1,2.8-1.9,4.4-2.3c-0.4,1-0.8,2-1.3,2.9c-0.5,1.1-0.9,2.1-1.2,3.2l0.1-0.1c0,0,0,0,0,0
			c-0.3,2.8-0.8,5.6-1.5,8.1C82.6,37.4,80.5,39.5,77.6,41.1z"/>
		<path class="st2" d="M84.9,31.3c0.2-0.9,0.6-1.8,0.9-2.6c0.3-0.7,0.4-1.7,0.9-2.3l-0.1,0.1c0.4-1.5,0.9-3.1,1.3-4.6
			c0.5-1.6,1-3.2,1.9-4.6c0.9-1.4,2.1-2.7,3.5-3.6c1.4-0.9,3.1-1.3,4.8-1.4c-0.5,0.9-1.2,1.8-1.8,2.6c-0.7,0.9-1.2,2-1.7,3l0.1-0.1
			c0,0,0,0,0,0c-0.4,1.3-0.9,2.7-1.4,3.9c-0.2,0.6-0.5,1.3-0.8,1.9c-0.2,0.7-0.5,1.3-0.8,1.9c-0.7,1.5-1.6,2.7-2.8,3.6
			C87.9,30,86.5,30.8,84.9,31.3z"/>
		<path class="st2" d="M93.8,22.8c0.4-0.8,0.9-1.6,1.4-2.4c0.4-0.7,0.8-1.5,1.3-2.1l-0.1,0.1c1.4-2.8,2.6-5.9,4.7-8.5
			c2.2-2.4,5.6-4,9-3.5c-0.7,0.8-1.5,1.5-2.2,2.2c-0.8,0.9-1.5,1.8-2.2,2.7l0.1-0.1c0,0,0,0,0,0c-0.7,1.2-1.3,2.4-2.1,3.6
			c-0.7,1.2-1.4,2.4-2.1,3.5c-0.9,1.4-2.1,2.2-3.4,3.1C97,22.2,95.5,22.6,93.8,22.8z"/>
		<path class="st2" d="M104,16c0.5-0.8,1.2-1.4,1.8-2.1c0.5-0.6,1-1.3,1.6-1.9l-0.1,0.1c0.4-0.7,0.9-1.3,1.3-2
			c0.5-0.6,1-1.3,1.4-1.9c1-1.3,2.1-2.5,3.3-3.7c1.3-1.1,2.9-1.7,4.5-2.1c1.7-0.3,3.3-0.4,4.9,0.2c-0.8,0.6-1.7,1.2-2.6,1.9
			c-1,0.7-1.8,1.5-2.6,2.2l0.1-0.1c0,0,0,0,0,0c-1.8,2-3.5,4.4-5.4,6.2c-0.6,0.6-1.2,1-1.9,1.4c-0.6,0.4-1.3,0.8-2,1.1
			C107.3,16,105.8,16.2,104,16z"/>
		<path class="st2" d="M115.3,11.2c0.6-0.7,1.4-1.3,2.1-1.8c0.6-0.5,1.3-1.1,2-1.5L119.3,8c1.1-1.1,2.2-2.4,3.4-3.4
			c1.2-1,2.5-2.1,4-2.9c0.7-0.4,1.5-0.8,2.3-1c0.8-0.2,1.7-0.3,2.5-0.3c1.7,0,3.4,0.4,4.8,1.1c-0.9,0.6-1.9,1-2.9,1.4
			c-1.1,0.5-2,1.1-3,1.7l0.1,0c0,0,0,0,0,0c-2.1,1.8-4.2,3.9-6.4,5.2c-1.4,0.8-2.7,1.6-4.2,1.8C118.5,11.8,116.9,11.5,115.3,11.2z"
			/>
		<path class="st2" d="M127.3,8.5c0.7-0.6,1.6-1,2.4-1.5c0.7-0.4,1.4-0.8,2.2-1.1l-0.1,0c2.6-1.7,5.2-4,8.4-5c1.6-0.5,3.3-0.7,5-0.5
			c1.6,0.3,3.2,1,4.6,2c-1,0.4-2.1,0.6-3.1,0.9c-1.1,0.2-2.2,0.7-3.2,1.2l0.1,0c0,0,0,0,0,0c-2.4,1.5-4.8,2.9-7.2,4
			C133.3,10,130.3,9.6,127.3,8.5z"/>
		<path class="st2" d="M139.5,7.8c0.8-0.4,1.7-0.7,2.6-1c0.8-0.2,1.6-0.7,2.4-0.8l-0.1,0c2.9-1.2,5.8-2.8,9.1-3.4
			c3.3-0.4,6.9,0.6,9.1,3.2C161.5,6,160.5,6,159.4,6c-1.2,0.1-2.3,0.4-3.4,0.7l0.1,0c0,0,0,0,0,0c-2.6,1-5.2,1.9-7.8,2.7
			c-1.6,0.4-3.1,0.4-4.5,0.1C142.3,9.3,140.9,8.8,139.5,7.8z"/>
		<path class="st2" d="M151.7,9.2c0.9-0.2,1.8-0.3,2.7-0.4c0.8-0.1,1.6-0.4,2.5-0.4h-0.1c0.8-0.2,1.5-0.4,2.3-0.7
			c0.8-0.2,1.6-0.4,2.3-0.5c1.6-0.3,3.2-0.6,4.9-0.6c1.7,0,3.3,0.6,4.8,1.3c1.5,0.8,2.8,1.9,3.6,3.4c-0.5,0-1-0.1-1.6-0.1
			c-0.5,0-1.1-0.1-1.6-0.1c-1.2-0.1-2.3,0-3.5,0l0.1,0c0,0,0,0,0,0c-1.4,0.3-2.7,0.4-4.1,0.7c-1.4,0.3-2.7,0.5-4.1,0.6
			c-0.8,0-1.6,0-2.3-0.1c-0.7-0.1-1.5-0.2-2.2-0.5C154.2,11.3,152.9,10.4,151.7,9.2z"/>
		<path class="st2" d="M163.4,12.9c0.9-0.2,1.9-0.1,2.8,0c0.8,0.1,1.7,0,2.5,0.1l-0.1,0c1.6-0.1,3.2-0.4,4.8-0.4
			c1.6,0,3.2,0,4.9,0.3c0.8,0.2,1.7,0.4,2.4,0.7c0.7,0.4,1.4,0.9,2.1,1.4c1.3,1.1,2.4,2.4,3,3.9c-1.1-0.2-2.1-0.5-3.1-0.7
			c-1.1-0.3-2.3-0.5-3.4-0.7l0.1,0c0,0,0,0,0,0c-1.3,0-2.8,0-4.2,0c-1.4,0-2.8,0-4.1-0.2c-1.6-0.3-3.1-0.6-4.4-1.4
			C165.5,15.3,164.5,14.1,163.4,12.9z"/>
		<path class="st2" d="M174.3,18.5c0.9,0,1.9,0.2,2.8,0.4c0.8,0.2,1.6,0.3,2.4,0.6l-0.1,0c1.5,0.1,3.2,0.3,4.8,0.4
			c1.6,0.2,3.2,0.6,4.8,1.2c3.2,1.1,5.5,4.1,6.3,7.3c-1-0.4-2-0.9-2.9-1.3c-1-0.5-2.1-0.9-3.2-1.3l0.1,0.1c0,0,0,0,0,0
			c-2.8-0.4-5.6-0.8-8.1-1.6c-1.6-0.4-3-1.1-4.1-2.1c-0.6-0.5-1-1.1-1.5-1.7C175.1,19.9,174.7,19.2,174.3,18.5z"/>
		<path class="st2" d="M184.1,25.9c0.9,0.2,1.8,0.6,2.6,0.9c0.8,0.3,1.6,0.5,2.3,1l-0.1-0.1c2.9,1,6.4,1.5,9.1,3.3
			c1.4,0.9,2.7,2.1,3.6,3.5c0.8,1.5,1.3,3.1,1.4,4.8c-0.9-0.5-1.8-1.2-2.6-1.8c-0.9-0.7-1.9-1.3-3-1.8l0.1,0.1c0,0,0,0,0,0
			c-2.7-0.8-5.3-1.8-7.7-3c-1.5-0.7-2.7-1.6-3.6-2.8C185.4,28.8,184.5,27.5,184.1,25.9z"/>
		<path class="st2" d="M192.4,34.9c0.8,0.4,1.6,0.9,2.4,1.4c0.7,0.4,1.5,0.8,2.1,1.3l-0.1-0.1c1.4,0.7,2.8,1.4,4.3,2.1
			c1.4,0.8,3,1.6,4.1,2.7c1.2,1.1,2.2,2.5,2.8,4.1c0.7,1.5,0.7,3.3,0.5,4.9c-0.8-0.7-1.5-1.5-2.2-2.3c-0.7-0.9-1.8-1.5-2.7-2.2
			l0.1,0.1c0,0,0,0,0,0c-2.5-1.3-4.8-2.8-7-4.3c-1.3-1-2.3-2.1-3-3.4C193.1,38,192.6,36.6,192.4,34.9z"/>
		<path class="st2" d="M199.1,45.2c0.8,0.5,1.4,1.2,2.1,1.8c0.6,0.5,1.3,1,1.9,1.6l-0.1-0.1c2.6,1.8,5.2,3.7,7.5,6.2
			c1,1.3,1.7,2.9,2,4.6c0.2,0.8,0.2,1.7,0.2,2.5c0,0.8-0.3,1.7-0.5,2.5c-0.7-0.8-1.1-1.8-1.8-2.6c-0.7-1-1.5-1.8-2.2-2.7l0.1,0.1
			c0,0,0,0,0,0c-1.1-0.9-2.1-1.8-3.1-2.7c-1.1-0.9-2.1-1.8-3.1-2.8C199.9,51.3,198.8,48.6,199.1,45.2z"/>
		<path class="st2" d="M203.8,56.5c0.7,0.6,1.2,1.4,1.7,2.2c0.5,0.6,1.1,1.3,1.5,2l-0.1-0.1c2.3,2.2,4.5,4.5,6.3,7.4
			c0.9,1.5,1.2,3.1,1.2,4.8c0,1.7-0.4,3.4-1.1,4.8c-0.6-0.9-1-1.9-1.4-2.9c-0.5-1.1-1.1-2-1.7-3l0.1,0.1c0,0,0,0,0,0
			c-0.4-0.5-0.9-1.1-1.3-1.6c-0.5-0.5-0.9-1.1-1.4-1.6c-0.9-1.1-1.7-2.2-2.4-3.3c-0.8-1.4-1.5-2.8-1.7-4.2
			C203.2,59.7,203.4,58.1,203.8,56.5z"/>
		<path class="st2" d="M205.7,67.5c0.6,0.6,0.9,1.4,1.4,2.1c0.4,0.6,0.9,1.3,1.2,1.9l0-0.1c1.9,2.3,3.7,4.5,5.1,7.4
			c0.7,1.4,0.8,3,0.7,4.6c-0.1,1.6-0.6,3.1-1.4,4.4c-0.4-0.9-0.7-1.9-1.1-2.8c-0.3-1-0.8-2-1.2-2.9l0,0.1c0,0,0,0,0,0
			c-0.3-0.5-0.7-1.1-1-1.6c-0.4-0.5-0.8-1.1-1.1-1.6c-0.7-1.1-1.4-2.1-1.9-3.2c-0.6-1.4-1.1-2.7-1.2-4
			C204.9,70.4,205.2,68.9,205.7,67.5z"/>
		<path class="st6" d="M1.2,265.3H0.1l2-11.2h1.1L1.2,265.3z"/>
		<path class="st6" d="M6.4,257.9c0,0.2,0,0.4-0.1,0.7c0,0.2-0.1,0.4-0.1,0.6h0c0.3-0.5,0.7-0.8,1.1-1.1c0.4-0.3,0.9-0.4,1.4-0.4
			c0.8,0,1.4,0.2,1.9,0.6c0.4,0.4,0.7,1,0.7,1.7c0,0.1,0,0.3,0,0.4c0,0.1,0,0.3-0.1,0.4l-0.8,4.5H9.4l0.7-4.1
			c0.1-0.3,0.1-0.6,0.1-0.9c0-0.5-0.1-0.9-0.4-1.2c-0.2-0.3-0.7-0.5-1.3-0.5c-0.3,0-0.6,0.1-0.9,0.2c-0.3,0.1-0.6,0.3-0.8,0.5
			c-0.2,0.2-0.5,0.5-0.7,0.9c-0.2,0.4-0.3,0.8-0.4,1.3l-0.7,3.8H4.1l1-5.8c0-0.2,0.1-0.5,0.1-0.8c0-0.3,0.1-0.6,0.1-0.9H6.4z"/>
		<path class="st6" d="M18.2,259.5c-0.1-0.3-0.4-0.5-0.7-0.7c-0.3-0.2-0.6-0.3-1.1-0.3c-0.2,0-0.4,0-0.6,0.1c-0.2,0-0.4,0.1-0.6,0.2
			c-0.2,0.1-0.3,0.2-0.4,0.4c-0.1,0.2-0.2,0.3-0.2,0.6c0,0.2,0,0.4,0.1,0.5c0.1,0.1,0.2,0.2,0.3,0.3c0.1,0.1,0.3,0.2,0.5,0.2
			c0.2,0.1,0.4,0.1,0.6,0.2c0.7,0.2,1.3,0.5,1.7,0.8c0.4,0.3,0.6,0.8,0.6,1.4c0,0.4-0.1,0.7-0.3,1c-0.2,0.3-0.4,0.5-0.7,0.7
			c-0.3,0.2-0.6,0.3-0.9,0.4c-0.3,0.1-0.7,0.1-1,0.1c-0.6,0-1.2-0.1-1.7-0.3c-0.5-0.2-1-0.6-1.3-1l0.9-0.6c0.2,0.3,0.4,0.6,0.8,0.8
			c0.4,0.2,0.8,0.3,1.2,0.3c0.2,0,0.5,0,0.7-0.1c0.2,0,0.4-0.1,0.6-0.2c0.2-0.1,0.3-0.2,0.4-0.4c0.1-0.2,0.2-0.4,0.2-0.6
			c0-0.4-0.2-0.7-0.5-0.9c-0.3-0.2-0.8-0.4-1.3-0.6c-0.2-0.1-0.4-0.2-0.7-0.3c-0.2-0.1-0.4-0.2-0.6-0.4c-0.2-0.2-0.3-0.3-0.4-0.6
			c-0.1-0.2-0.2-0.5-0.2-0.8c0-0.4,0.1-0.7,0.3-1c0.2-0.3,0.4-0.5,0.7-0.7c0.3-0.2,0.6-0.3,0.9-0.4s0.7-0.1,1-0.1
			c0.6,0,1.1,0.1,1.5,0.3c0.4,0.2,0.8,0.5,1,0.9L18.2,259.5z"/>
		<path class="st6" d="M25.4,265.3c0-0.2,0-0.4,0.1-0.7c0-0.2,0.1-0.4,0.1-0.6h0c-0.3,0.5-0.7,0.8-1.1,1.1c-0.4,0.3-0.9,0.4-1.4,0.4
			c-0.8,0-1.4-0.2-1.9-0.6c-0.4-0.4-0.7-0.9-0.7-1.6c0-0.1,0-0.3,0-0.4c0-0.1,0-0.3,0.1-0.4l0.8-4.5h1.1l-0.7,4.1
			c-0.1,0.3-0.1,0.6-0.1,0.9c0,0.5,0.1,0.9,0.4,1.2c0.2,0.3,0.7,0.4,1.3,0.4c0.3,0,0.6-0.1,0.9-0.2c0.3-0.1,0.5-0.3,0.8-0.5
			s0.5-0.5,0.7-0.9c0.2-0.4,0.3-0.8,0.4-1.3l0.7-3.8h1.1l-1,5.8c0,0.2-0.1,0.5-0.1,0.8c0,0.3-0.1,0.6-0.1,0.8H25.4z"/>
		<path class="st6" d="M30.5,258.7c0-0.3,0.1-0.6,0.1-0.9h1c0,0.2,0,0.4-0.1,0.7c0,0.2-0.1,0.4-0.1,0.6h0c0.3-0.4,0.6-0.8,1-1.1
			s0.9-0.4,1.4-0.4c0.1,0,0.3,0,0.4,0c0.1,0,0.2,0,0.3,0.1l-0.3,1c-0.1,0-0.2,0-0.3-0.1c-0.1,0-0.3,0-0.4,0c-0.3,0-0.6,0.1-0.8,0.2
			c-0.3,0.1-0.5,0.3-0.8,0.5c-0.2,0.2-0.4,0.5-0.6,0.9c-0.2,0.4-0.3,0.8-0.4,1.3l-0.7,3.8h-1.1l1-5.8
			C30.4,259.3,30.5,259,30.5,258.7z"/>
		<path class="st6" d="M40.2,260.7c0-0.2,0.1-0.3,0.1-0.4c0-0.1,0-0.2,0-0.3c0-0.5-0.2-0.9-0.5-1.1c-0.3-0.2-0.7-0.3-1.3-0.3
			c-0.4,0-0.9,0.1-1.3,0.3c-0.4,0.2-0.8,0.4-1,0.6l-0.5-0.7c0.4-0.3,0.8-0.6,1.3-0.8c0.5-0.2,1-0.3,1.6-0.3c0.3,0,0.7,0,1,0.1
			c0.3,0.1,0.6,0.2,0.8,0.4c0.2,0.2,0.4,0.4,0.6,0.7c0.1,0.3,0.2,0.6,0.2,1c0,0.1,0,0.2,0,0.4c0,0.2,0,0.3,0,0.4l-0.5,3
			c-0.1,0.3-0.1,0.6-0.1,0.9c0,0.3,0,0.6,0,0.8h-0.9c0-0.2,0-0.4,0-0.6c0-0.2,0-0.4,0.1-0.6h0c-0.2,0.2-0.4,0.5-0.6,0.6
			c-0.2,0.2-0.4,0.3-0.7,0.4c-0.2,0.1-0.5,0.2-0.7,0.2c-0.3,0-0.5,0.1-0.8,0.1c-0.3,0-0.5,0-0.8-0.1c-0.3-0.1-0.5-0.2-0.7-0.3
			c-0.2-0.2-0.4-0.4-0.5-0.6c-0.1-0.2-0.2-0.5-0.2-0.9c0-0.6,0.2-1.1,0.5-1.4c0.3-0.4,0.8-0.6,1.3-0.8c0.5-0.2,1.2-0.3,1.8-0.4
			C38.8,260.8,39.5,260.7,40.2,260.7z M39.8,261.5c-0.5,0-1,0-1.5,0.1c-0.5,0-0.9,0.1-1.4,0.3c-0.4,0.1-0.7,0.3-1,0.6
			c-0.3,0.2-0.4,0.6-0.4,0.9c0,0.2,0,0.4,0.1,0.6c0.1,0.2,0.2,0.3,0.3,0.4c0.1,0.1,0.3,0.2,0.5,0.2c0.2,0,0.4,0.1,0.6,0.1
			c0.4,0,0.7-0.1,1-0.2c0.3-0.1,0.6-0.3,0.8-0.5c0.2-0.2,0.4-0.5,0.6-0.8c0.2-0.3,0.3-0.6,0.3-0.9l0.1-0.6H39.8z"/>
		<path class="st6" d="M45.4,257.9c0,0.2,0,0.4-0.1,0.7c0,0.2-0.1,0.4-0.1,0.6h0c0.3-0.5,0.7-0.8,1.1-1.1c0.4-0.3,0.9-0.4,1.4-0.4
			c0.8,0,1.4,0.2,1.9,0.6c0.4,0.4,0.7,1,0.7,1.7c0,0.1,0,0.3,0,0.4c0,0.1,0,0.3-0.1,0.4l-0.8,4.5h-1.1l0.7-4.1
			c0.1-0.3,0.1-0.6,0.1-0.9c0-0.5-0.1-0.9-0.4-1.2c-0.2-0.3-0.7-0.5-1.3-0.5c-0.3,0-0.6,0.1-0.9,0.2c-0.3,0.1-0.6,0.3-0.8,0.5
			c-0.2,0.2-0.5,0.5-0.7,0.9c-0.2,0.4-0.3,0.8-0.4,1.3l-0.7,3.8h-1.1l1-5.8c0-0.2,0.1-0.5,0.1-0.8c0-0.3,0.1-0.6,0.1-0.9H45.4z"/>
		<path class="st6" d="M58.4,259.5c-0.1-0.3-0.3-0.5-0.7-0.7c-0.3-0.2-0.7-0.3-1.1-0.3c-0.5,0-0.9,0.1-1.3,0.3
			c-0.4,0.2-0.7,0.5-1,0.8c-0.3,0.3-0.5,0.7-0.7,1.2c-0.2,0.4-0.2,0.9-0.2,1.4c0,0.3,0.1,0.7,0.2,0.9c0.1,0.3,0.3,0.5,0.5,0.8
			c0.2,0.2,0.5,0.4,0.8,0.5c0.3,0.1,0.6,0.2,1,0.2c0.5,0,0.9-0.1,1.2-0.3c0.4-0.2,0.7-0.4,0.9-0.7l0.7,0.6c-0.4,0.4-0.8,0.7-1.3,0.9
			c-0.5,0.2-1,0.3-1.7,0.3c-0.5,0-1-0.1-1.4-0.2s-0.8-0.4-1.1-0.6c-0.3-0.3-0.5-0.6-0.7-1c-0.2-0.4-0.2-0.8-0.2-1.3
			c0-0.6,0.1-1.2,0.3-1.8c0.2-0.6,0.5-1,0.9-1.5c0.4-0.4,0.9-0.7,1.4-1s1.2-0.4,1.8-0.4c0.5,0,1.1,0.1,1.5,0.3
			c0.5,0.2,0.8,0.5,1.1,0.9L58.4,259.5z"/>
		<path class="st6" d="M61.2,261.9c0,0.1,0,0.1,0,0.2s0,0.1,0,0.2c0,0.4,0.1,0.7,0.2,1c0.1,0.3,0.3,0.5,0.5,0.7
			c0.2,0.2,0.5,0.4,0.8,0.5c0.3,0.1,0.6,0.2,0.9,0.2c0.6,0,1.1-0.1,1.5-0.4c0.4-0.3,0.8-0.6,1-0.9l0.7,0.6c-0.4,0.5-0.9,0.9-1.5,1.2
			c-0.6,0.3-1.2,0.4-1.8,0.4c-0.5,0-0.9-0.1-1.3-0.2c-0.4-0.1-0.8-0.4-1.1-0.6c-0.3-0.3-0.5-0.6-0.7-1c-0.2-0.4-0.3-0.9-0.3-1.4
			c0-0.6,0.1-1.2,0.3-1.7c0.2-0.5,0.5-1,0.9-1.4c0.4-0.4,0.8-0.7,1.4-1c0.5-0.2,1.1-0.4,1.7-0.4c1,0,1.8,0.3,2.3,0.8
			c0.5,0.5,0.8,1.2,0.8,2.1c0,0.1,0,0.3,0,0.6c0,0.3-0.1,0.5-0.1,0.7H61.2z M66.4,261.1c0-0.1,0-0.2,0-0.3c0-0.1,0-0.2,0-0.3
			c0-0.6-0.2-1-0.5-1.4c-0.3-0.4-0.9-0.5-1.5-0.5c-0.4,0-0.8,0.1-1.1,0.2c-0.3,0.1-0.6,0.3-0.9,0.5c-0.3,0.2-0.5,0.5-0.7,0.8
			c-0.2,0.3-0.3,0.6-0.4,1H66.4z"/>
		<path class="st6" d="M78.5,260.7c0-0.2,0.1-0.3,0.1-0.4c0-0.1,0-0.2,0-0.3c0-0.5-0.2-0.9-0.5-1.1c-0.3-0.2-0.7-0.3-1.3-0.3
			c-0.4,0-0.9,0.1-1.3,0.3c-0.4,0.2-0.8,0.4-1,0.6l-0.5-0.7c0.4-0.3,0.8-0.6,1.3-0.8c0.5-0.2,1-0.3,1.6-0.3c0.3,0,0.7,0,1,0.1
			c0.3,0.1,0.6,0.2,0.8,0.4c0.2,0.2,0.4,0.4,0.6,0.7s0.2,0.6,0.2,1c0,0.1,0,0.2,0,0.4c0,0.2,0,0.3,0,0.4l-0.5,3
			c-0.1,0.3-0.1,0.6-0.1,0.9c0,0.3,0,0.6,0,0.8h-0.9c0-0.2,0-0.4,0-0.6c0-0.2,0-0.4,0.1-0.6h0c-0.2,0.2-0.4,0.5-0.6,0.6
			c-0.2,0.2-0.4,0.3-0.7,0.4c-0.2,0.1-0.5,0.2-0.7,0.2c-0.3,0-0.5,0.1-0.8,0.1c-0.3,0-0.5,0-0.8-0.1c-0.3-0.1-0.5-0.2-0.7-0.3
			c-0.2-0.2-0.4-0.4-0.5-0.6c-0.1-0.2-0.2-0.5-0.2-0.9c0-0.6,0.2-1.1,0.5-1.4c0.3-0.4,0.8-0.6,1.3-0.8c0.5-0.2,1.2-0.3,1.8-0.4
			C77.2,260.8,77.8,260.7,78.5,260.7z M78.1,261.5c-0.5,0-1,0-1.5,0.1c-0.5,0-0.9,0.1-1.4,0.3c-0.4,0.1-0.7,0.3-1,0.6
			c-0.3,0.2-0.4,0.6-0.4,0.9c0,0.2,0,0.4,0.1,0.6c0.1,0.2,0.2,0.3,0.3,0.4c0.1,0.1,0.3,0.2,0.5,0.2c0.2,0,0.4,0.1,0.6,0.1
			c0.4,0,0.7-0.1,1-0.2c0.3-0.1,0.6-0.3,0.8-0.5c0.2-0.2,0.4-0.5,0.6-0.8c0.2-0.3,0.3-0.6,0.3-0.9l0.1-0.6H78.1z"/>
		<path class="st6" d="M83.8,257.9c0,0.2,0,0.4-0.1,0.7c0,0.2-0.1,0.4-0.1,0.6h0c0.3-0.5,0.7-0.8,1.1-1.1c0.4-0.3,0.9-0.4,1.4-0.4
			c0.8,0,1.4,0.2,1.9,0.6c0.4,0.4,0.7,1,0.7,1.7c0,0.1,0,0.3,0,0.4c0,0.1,0,0.3-0.1,0.4l-0.8,4.5h-1.1l0.7-4.1
			c0.1-0.3,0.1-0.6,0.1-0.9c0-0.5-0.1-0.9-0.4-1.2c-0.2-0.3-0.7-0.5-1.3-0.5c-0.3,0-0.6,0.1-0.9,0.2c-0.3,0.1-0.6,0.3-0.8,0.5
			c-0.2,0.2-0.5,0.5-0.7,0.9c-0.2,0.4-0.3,0.8-0.4,1.3l-0.7,3.8h-1.1l1-5.8c0-0.2,0.1-0.5,0.1-0.8c0-0.3,0.1-0.6,0.1-0.9H83.8z"/>
		<path class="st6" d="M90.6,262.3c0-0.6,0.1-1.2,0.3-1.8c0.2-0.6,0.5-1,0.9-1.5c0.4-0.4,0.9-0.7,1.4-1c0.5-0.2,1.1-0.4,1.7-0.4
			c0.5,0,1,0.1,1.5,0.4s0.8,0.6,1.1,1.1h0l1-5.8h1.1l-2.1,12h-1.1l0.2-1.2h0c-0.2,0.4-0.6,0.7-1.1,1c-0.5,0.3-1,0.4-1.6,0.4
			c-0.5,0-1-0.1-1.4-0.2c-0.4-0.2-0.8-0.4-1.1-0.7c-0.3-0.3-0.5-0.6-0.7-1C90.7,263.2,90.6,262.7,90.6,262.3z M91.7,262.2
			c0,0.3,0,0.6,0.2,0.9c0.1,0.3,0.2,0.5,0.5,0.8c0.2,0.2,0.4,0.4,0.7,0.5c0.3,0.1,0.6,0.2,1,0.2c0.5,0,0.9-0.1,1.3-0.3
			c0.4-0.2,0.7-0.5,1-0.8c0.3-0.3,0.5-0.7,0.7-1.1s0.3-0.9,0.3-1.4c0-0.3-0.1-0.7-0.2-1c-0.1-0.3-0.3-0.5-0.5-0.8
			c-0.2-0.2-0.5-0.4-0.8-0.5c-0.3-0.1-0.6-0.2-1-0.2c-0.5,0-0.9,0.1-1.3,0.3c-0.4,0.2-0.7,0.5-1,0.8c-0.3,0.3-0.5,0.7-0.7,1.1
			C91.8,261.2,91.7,261.7,91.7,262.2z"/>
		<path class="st6" d="M104,265.3h-1.3l7.2-11.2h1.1l2.3,11.2h-1.2l-0.6-2.9h-5.7L104,265.3z M106.5,261.3h4.9l-1.2-5.9L106.5,261.3
			z"/>
		<path class="st6" d="M115.1,262.3c0-0.6,0.1-1.2,0.3-1.8c0.2-0.6,0.5-1,0.9-1.5c0.4-0.4,0.9-0.7,1.4-1c0.5-0.2,1.1-0.4,1.7-0.4
			c0.5,0,1,0.1,1.5,0.4s0.8,0.6,1.1,1.1h0l1-5.8h1.1l-2.1,12h-1.1l0.2-1.2h0c-0.2,0.4-0.6,0.7-1.1,1s-1,0.4-1.6,0.4
			c-0.5,0-1-0.1-1.4-0.2c-0.4-0.2-0.8-0.4-1.1-0.7c-0.3-0.3-0.5-0.6-0.7-1C115.1,263.2,115.1,262.7,115.1,262.3z M116.2,262.2
			c0,0.3,0,0.6,0.2,0.9c0.1,0.3,0.2,0.5,0.5,0.8c0.2,0.2,0.4,0.4,0.7,0.5c0.3,0.1,0.6,0.2,1,0.2c0.5,0,0.9-0.1,1.3-0.3
			c0.4-0.2,0.7-0.5,1-0.8c0.3-0.3,0.5-0.7,0.7-1.1s0.3-0.9,0.3-1.4c0-0.3-0.1-0.7-0.2-1c-0.1-0.3-0.3-0.5-0.5-0.8
			c-0.2-0.2-0.5-0.4-0.8-0.5c-0.3-0.1-0.6-0.2-1-0.2c-0.5,0-0.9,0.1-1.3,0.3c-0.4,0.2-0.7,0.5-1,0.8c-0.3,0.3-0.5,0.7-0.7,1.1
			C116.2,261.2,116.2,261.7,116.2,262.2z"/>
		<path class="st6" d="M134.3,257.7c0.8,0,1.4,0.2,1.9,0.6c0.4,0.4,0.7,1,0.7,1.7c0,0.1,0,0.3,0,0.4c0,0.1,0,0.3-0.1,0.4l-0.8,4.5
			h-1.1l0.7-4.1c0.1-0.3,0.1-0.6,0.1-0.9c0-0.5-0.1-0.9-0.4-1.2c-0.2-0.3-0.7-0.5-1.3-0.5c-0.4,0-0.7,0.1-1,0.2
			c-0.3,0.2-0.5,0.4-0.7,0.6c-0.2,0.3-0.3,0.6-0.5,0.9c-0.1,0.3-0.2,0.7-0.3,1l-0.7,3.9h-1.1l0.8-4.3c0.1-0.3,0.1-0.7,0.1-1
			c0-0.4-0.1-0.8-0.3-1.1c-0.2-0.3-0.6-0.4-1.1-0.4c-0.3,0-0.5,0.1-0.8,0.2c-0.3,0.1-0.5,0.3-0.8,0.5c-0.2,0.2-0.5,0.5-0.6,0.9
			c-0.2,0.4-0.3,0.8-0.4,1.3l-0.7,3.8h-1.1l1-5.8c0-0.2,0.1-0.5,0.1-0.8c0-0.3,0.1-0.6,0.1-0.9h1c0,0.2,0,0.4-0.1,0.7
			c0,0.2-0.1,0.4-0.1,0.6h0c0.3-0.5,0.7-0.8,1.1-1.1c0.4-0.3,0.9-0.4,1.5-0.4c0.2,0,0.4,0,0.6,0.1c0.2,0,0.4,0.1,0.6,0.2
			s0.4,0.3,0.5,0.5c0.1,0.2,0.3,0.5,0.3,0.8c0.3-0.5,0.6-0.9,1.1-1.2C133.2,257.8,133.7,257.7,134.3,257.7z"/>
		<path class="st6" d="M139.8,265.3h-1.1l1.3-7.4h1.1L139.8,265.3z M141.8,255c0,0.2-0.1,0.4-0.2,0.5c-0.1,0.1-0.3,0.2-0.5,0.2
			c-0.2,0-0.4-0.1-0.5-0.2c-0.1-0.1-0.2-0.3-0.2-0.5c0-0.2,0.1-0.4,0.2-0.6c0.2-0.1,0.3-0.2,0.5-0.2c0.2,0,0.4,0.1,0.5,0.2
			C141.7,254.6,141.8,254.8,141.8,255z"/>
		<path class="st6" d="M145,257.9c0,0.2,0,0.4-0.1,0.7c0,0.2-0.1,0.4-0.1,0.6h0c0.3-0.5,0.7-0.8,1.1-1.1c0.4-0.3,0.9-0.4,1.4-0.4
			c0.8,0,1.4,0.2,1.9,0.6c0.5,0.4,0.7,1,0.7,1.7c0,0.1,0,0.3,0,0.4c0,0.1,0,0.3-0.1,0.4l-0.8,4.5H148l0.7-4.1
			c0.1-0.3,0.1-0.6,0.1-0.9c0-0.5-0.1-0.9-0.4-1.2c-0.2-0.3-0.7-0.5-1.3-0.5c-0.3,0-0.6,0.1-0.9,0.2c-0.3,0.1-0.6,0.3-0.8,0.5
			c-0.2,0.2-0.5,0.5-0.7,0.9c-0.2,0.4-0.3,0.8-0.4,1.3l-0.7,3.8h-1.1l1-5.8c0-0.2,0.1-0.5,0.1-0.8c0-0.3,0.1-0.6,0.1-0.9H145z"/>
		<path class="st6" d="M152.9,265.3h-1.1l1.3-7.4h1.1L152.9,265.3z M154.8,255c0,0.2-0.1,0.4-0.2,0.5c-0.1,0.1-0.3,0.2-0.5,0.2
			c-0.2,0-0.4-0.1-0.5-0.2c-0.1-0.1-0.2-0.3-0.2-0.5c0-0.2,0.1-0.4,0.2-0.6s0.3-0.2,0.5-0.2c0.2,0,0.4,0.1,0.5,0.2
			C154.8,254.6,154.8,254.8,154.8,255z"/>
		<path class="st6" d="M160.8,259.5c-0.1-0.3-0.4-0.5-0.7-0.7c-0.3-0.2-0.6-0.3-1.1-0.3c-0.2,0-0.4,0-0.6,0.1
			c-0.2,0-0.4,0.1-0.6,0.2c-0.2,0.1-0.3,0.2-0.4,0.4c-0.1,0.2-0.2,0.3-0.2,0.6c0,0.2,0,0.4,0.1,0.5c0.1,0.1,0.2,0.2,0.3,0.3
			c0.1,0.1,0.3,0.2,0.5,0.2c0.2,0.1,0.4,0.1,0.6,0.2c0.7,0.2,1.3,0.5,1.7,0.8c0.4,0.3,0.6,0.8,0.6,1.4c0,0.4-0.1,0.7-0.3,1
			c-0.2,0.3-0.4,0.5-0.7,0.7c-0.3,0.2-0.6,0.3-0.9,0.4c-0.3,0.1-0.7,0.1-1,0.1c-0.6,0-1.2-0.1-1.7-0.3c-0.5-0.2-1-0.6-1.3-1l0.9-0.6
			c0.2,0.3,0.4,0.6,0.8,0.8s0.8,0.3,1.2,0.3c0.2,0,0.5,0,0.7-0.1c0.2,0,0.4-0.1,0.6-0.2c0.2-0.1,0.3-0.2,0.4-0.4
			c0.1-0.2,0.2-0.4,0.2-0.6c0-0.4-0.2-0.7-0.5-0.9c-0.3-0.2-0.8-0.4-1.3-0.6c-0.2-0.1-0.4-0.2-0.7-0.3c-0.2-0.1-0.4-0.2-0.6-0.4
			c-0.2-0.2-0.3-0.3-0.4-0.6c-0.1-0.2-0.2-0.5-0.2-0.8c0-0.4,0.1-0.7,0.3-1c0.2-0.3,0.4-0.5,0.7-0.7c0.3-0.2,0.6-0.3,0.9-0.4
			c0.3-0.1,0.7-0.1,1-0.1c0.6,0,1.1,0.1,1.5,0.3c0.4,0.2,0.8,0.5,1,0.9L160.8,259.5z"/>
		<path class="st6" d="M167,258.8h-2l-0.8,4.3c0,0.2,0,0.4,0,0.5c0,0.3,0.1,0.6,0.3,0.7s0.4,0.2,0.7,0.2c0.1,0,0.3,0,0.5-0.1
			c0.2,0,0.3-0.1,0.4-0.2l-0.1,0.9c-0.1,0.1-0.3,0.1-0.5,0.2c-0.2,0-0.4,0.1-0.7,0.1c-0.2,0-0.4,0-0.5-0.1c-0.2,0-0.4-0.1-0.5-0.2
			c-0.2-0.1-0.3-0.3-0.4-0.5c-0.1-0.2-0.1-0.4-0.1-0.7c0-0.1,0-0.3,0-0.5l0.8-4.6h-1.5l0.2-0.9h1.5l0.4-2.1h1.1l-0.4,2.1h2
			L167,258.8z"/>
		<path class="st6" d="M168.8,258.7c0-0.3,0.1-0.6,0.1-0.9h1c0,0.2,0,0.4-0.1,0.7c0,0.2-0.1,0.4-0.1,0.6h0c0.3-0.4,0.6-0.8,1-1.1
			s0.9-0.4,1.4-0.4c0.1,0,0.3,0,0.4,0s0.2,0,0.3,0.1l-0.3,1c-0.1,0-0.2,0-0.3-0.1c-0.1,0-0.3,0-0.4,0c-0.3,0-0.6,0.1-0.8,0.2
			c-0.3,0.1-0.5,0.3-0.8,0.5c-0.2,0.2-0.4,0.5-0.6,0.9c-0.2,0.4-0.3,0.8-0.4,1.3l-0.7,3.8h-1.1l1-5.8
			C168.7,259.3,168.7,259,168.8,258.7z"/>
		<path class="st6" d="M178.4,260.7c0-0.2,0.1-0.3,0.1-0.4c0-0.1,0-0.2,0-0.3c0-0.5-0.2-0.9-0.5-1.1c-0.3-0.2-0.7-0.3-1.3-0.3
			c-0.4,0-0.9,0.1-1.3,0.3c-0.4,0.2-0.8,0.4-1,0.6l-0.5-0.7c0.4-0.3,0.8-0.6,1.3-0.8c0.5-0.2,1-0.3,1.6-0.3c0.3,0,0.7,0,1,0.1
			c0.3,0.1,0.6,0.2,0.8,0.4c0.2,0.2,0.4,0.4,0.6,0.7c0.1,0.3,0.2,0.6,0.2,1c0,0.1,0,0.2,0,0.4c0,0.2,0,0.3,0,0.4l-0.5,3
			c-0.1,0.3-0.1,0.6-0.1,0.9c0,0.3,0,0.6,0,0.8h-0.9c0-0.2,0-0.4,0-0.6c0-0.2,0-0.4,0.1-0.6h0c-0.2,0.2-0.4,0.5-0.6,0.6
			c-0.2,0.2-0.4,0.3-0.7,0.4c-0.2,0.1-0.5,0.2-0.7,0.2c-0.3,0-0.5,0.1-0.8,0.1c-0.3,0-0.5,0-0.8-0.1c-0.3-0.1-0.5-0.2-0.7-0.3
			c-0.2-0.2-0.4-0.4-0.5-0.6c-0.1-0.2-0.2-0.5-0.2-0.9c0-0.6,0.2-1.1,0.5-1.4c0.3-0.4,0.8-0.6,1.3-0.8c0.5-0.2,1.2-0.3,1.8-0.4
			C177.1,260.8,177.8,260.7,178.4,260.7z M178,261.5c-0.5,0-1,0-1.5,0.1c-0.5,0-0.9,0.1-1.4,0.3c-0.4,0.1-0.7,0.3-1,0.6
			c-0.3,0.2-0.4,0.6-0.4,0.9c0,0.2,0,0.4,0.1,0.6c0.1,0.2,0.2,0.3,0.3,0.4c0.1,0.1,0.3,0.2,0.5,0.2c0.2,0,0.4,0.1,0.6,0.1
			c0.4,0,0.7-0.1,1-0.2c0.3-0.1,0.6-0.3,0.8-0.5c0.2-0.2,0.4-0.5,0.6-0.8c0.2-0.3,0.3-0.6,0.3-0.9l0.1-0.6H178z"/>
		<path class="st6" d="M185.5,258.8h-2l-0.8,4.3c0,0.2,0,0.4,0,0.5c0,0.3,0.1,0.6,0.3,0.7s0.4,0.2,0.7,0.2c0.1,0,0.3,0,0.5-0.1
			c0.2,0,0.3-0.1,0.4-0.2l-0.1,0.9c-0.1,0.1-0.3,0.1-0.5,0.2c-0.2,0-0.4,0.1-0.7,0.1c-0.2,0-0.4,0-0.5-0.1c-0.2,0-0.4-0.1-0.5-0.2
			c-0.2-0.1-0.3-0.3-0.4-0.5c-0.1-0.2-0.1-0.4-0.1-0.7c0-0.1,0-0.3,0-0.5l0.8-4.6h-1.5l0.2-0.9h1.5l0.4-2.1h1.1l-0.4,2.1h2
			L185.5,258.8z"/>
		<path class="st6" d="M187.2,265.3h-1.1l1.3-7.4h1.1L187.2,265.3z M189.1,255c0,0.2-0.1,0.4-0.2,0.5c-0.1,0.1-0.3,0.2-0.5,0.2
			c-0.2,0-0.4-0.1-0.5-0.2c-0.1-0.1-0.2-0.3-0.2-0.5c0-0.2,0.1-0.4,0.2-0.6c0.2-0.1,0.3-0.2,0.5-0.2s0.4,0.1,0.5,0.2
			C189,254.6,189.1,254.8,189.1,255z"/>
		<path class="st6" d="M192.7,265.3h-1.1l-1.5-7.4h1.1l1.2,6.3h0l3.7-6.3h1.2L192.7,265.3z"/>
		<path class="st6" d="M198.7,261.9c0,0.1,0,0.1,0,0.2c0,0.1,0,0.1,0,0.2c0,0.4,0.1,0.7,0.2,1c0.1,0.3,0.3,0.5,0.5,0.7
			c0.2,0.2,0.5,0.4,0.8,0.5c0.3,0.1,0.6,0.2,0.9,0.2c0.6,0,1.1-0.1,1.5-0.4c0.4-0.3,0.8-0.6,1-0.9l0.7,0.6c-0.4,0.5-0.9,0.9-1.5,1.2
			c-0.6,0.3-1.2,0.4-1.8,0.4c-0.5,0-0.9-0.1-1.3-0.2c-0.4-0.1-0.8-0.4-1.1-0.6c-0.3-0.3-0.5-0.6-0.7-1c-0.2-0.4-0.3-0.9-0.3-1.4
			c0-0.6,0.1-1.2,0.3-1.7c0.2-0.5,0.5-1,0.9-1.4s0.8-0.7,1.4-1c0.5-0.2,1.1-0.4,1.7-0.4c1,0,1.8,0.3,2.3,0.8
			c0.5,0.5,0.8,1.2,0.8,2.1c0,0.1,0,0.3,0,0.6c0,0.3-0.1,0.5-0.1,0.7H198.7z M203.8,261.1c0-0.1,0-0.2,0-0.3c0-0.1,0-0.2,0-0.3
			c0-0.6-0.2-1-0.5-1.4s-0.9-0.5-1.5-0.5c-0.4,0-0.8,0.1-1.1,0.2c-0.3,0.1-0.6,0.3-0.9,0.5c-0.3,0.2-0.5,0.5-0.7,0.8
			c-0.2,0.3-0.3,0.6-0.4,1H203.8z"/>
		<path class="st6" d="M217.7,255.8c-0.2-0.3-0.5-0.5-0.9-0.7c-0.4-0.2-0.8-0.3-1.3-0.3c-0.3,0-0.7,0-1,0.1
			c-0.3,0.1-0.6,0.2-0.9,0.4c-0.3,0.2-0.5,0.4-0.6,0.7c-0.2,0.3-0.2,0.6-0.2,1c0,0.3,0.1,0.5,0.2,0.8c0.1,0.2,0.3,0.4,0.4,0.6
			c0.2,0.2,0.4,0.3,0.6,0.4c0.2,0.1,0.5,0.2,0.8,0.3c0.3,0.1,0.7,0.3,1,0.4s0.6,0.4,0.9,0.6c0.3,0.2,0.5,0.5,0.7,0.8
			c0.2,0.3,0.3,0.7,0.3,1.1c0,0.4-0.1,0.8-0.2,1.2c-0.1,0.4-0.4,0.8-0.7,1.2c-0.3,0.4-0.7,0.6-1.2,0.9c-0.5,0.2-1.2,0.3-1.9,0.3
			c-0.7,0-1.3-0.1-2-0.4c-0.6-0.3-1.1-0.7-1.5-1.2l1-0.6c0.2,0.4,0.5,0.7,0.9,0.9c0.4,0.3,0.9,0.4,1.5,0.4c0.4,0,0.7-0.1,1.1-0.2
			c0.3-0.1,0.6-0.3,0.9-0.5c0.3-0.2,0.5-0.5,0.6-0.8c0.1-0.3,0.2-0.6,0.2-1c0-0.3-0.1-0.6-0.2-0.8c-0.1-0.2-0.3-0.4-0.5-0.6
			c-0.2-0.2-0.5-0.3-0.7-0.4c-0.3-0.1-0.6-0.2-0.9-0.4c-0.3-0.1-0.6-0.3-0.9-0.4c-0.3-0.2-0.6-0.3-0.8-0.6c-0.2-0.2-0.4-0.5-0.6-0.8
			c-0.1-0.3-0.2-0.6-0.2-1.1c0-0.5,0.1-0.9,0.3-1.3c0.2-0.4,0.4-0.8,0.8-1.1c0.3-0.3,0.8-0.5,1.2-0.7c0.5-0.2,1.1-0.3,1.7-0.3
			c0.8,0,1.4,0.1,1.9,0.4c0.5,0.2,0.9,0.6,1.2,1L217.7,255.8z"/>
		<path class="st6" d="M222.8,265.5c-0.5,0-1-0.1-1.4-0.2c-0.4-0.2-0.8-0.4-1.1-0.7c-0.3-0.3-0.5-0.6-0.7-1s-0.3-0.8-0.3-1.3
			c0-0.6,0.1-1.2,0.3-1.8c0.2-0.6,0.5-1,0.9-1.5c0.4-0.4,0.9-0.7,1.4-1c0.5-0.2,1.1-0.4,1.8-0.4c0.5,0,1,0.1,1.4,0.2
			c0.4,0.2,0.8,0.4,1.1,0.7c0.3,0.3,0.5,0.6,0.7,1c0.2,0.4,0.3,0.8,0.3,1.3c0,0.6-0.1,1.2-0.3,1.8c-0.2,0.6-0.5,1-0.9,1.5
			c-0.4,0.4-0.9,0.7-1.4,1C224,265.3,223.4,265.5,222.8,265.5z M226.1,260.9c0-0.3-0.1-0.7-0.2-0.9c-0.1-0.3-0.3-0.5-0.5-0.8
			c-0.2-0.2-0.5-0.4-0.7-0.5c-0.3-0.1-0.6-0.2-1-0.2c-0.5,0-0.9,0.1-1.3,0.3c-0.4,0.2-0.7,0.5-1,0.8c-0.3,0.3-0.5,0.7-0.7,1.2
			c-0.2,0.4-0.2,0.9-0.2,1.4c0,0.3,0.1,0.7,0.2,0.9c0.1,0.3,0.3,0.5,0.5,0.8c0.2,0.2,0.5,0.4,0.7,0.5c0.3,0.1,0.6,0.2,1,0.2
			c0.5,0,0.9-0.1,1.3-0.3c0.4-0.2,0.7-0.5,1-0.8c0.3-0.3,0.5-0.7,0.7-1.1C226,261.9,226.1,261.4,226.1,260.9z"/>
		<path class="st6" d="M229.9,265.3h-1.1l2.1-12h1.1L229.9,265.3z"/>
		<path class="st6" d="M238,265.3c0-0.2,0-0.4,0.1-0.7c0-0.2,0.1-0.4,0.1-0.6h0c-0.3,0.5-0.7,0.8-1.1,1.1c-0.4,0.3-0.9,0.4-1.4,0.4
			c-0.8,0-1.4-0.2-1.9-0.6c-0.4-0.4-0.7-0.9-0.7-1.6c0-0.1,0-0.3,0-0.4c0-0.1,0-0.3,0.1-0.4l0.8-4.5h1.1l-0.7,4.1
			c-0.1,0.3-0.1,0.6-0.1,0.9c0,0.5,0.1,0.9,0.4,1.2c0.2,0.3,0.7,0.4,1.3,0.4c0.3,0,0.6-0.1,0.9-0.2c0.3-0.1,0.5-0.3,0.8-0.5
			s0.5-0.5,0.7-0.9c0.2-0.4,0.3-0.8,0.4-1.3l0.7-3.8h1.1l-1,5.8c0,0.2-0.1,0.5-0.1,0.8c0,0.3-0.1,0.6-0.1,0.8H238z"/>
		<path class="st6" d="M246.2,258.8h-2l-0.8,4.3c0,0.2,0,0.4,0,0.5c0,0.3,0.1,0.6,0.3,0.7s0.4,0.2,0.7,0.2c0.1,0,0.3,0,0.5-0.1
			c0.2,0,0.3-0.1,0.4-0.2l-0.1,0.9c-0.1,0.1-0.3,0.1-0.5,0.2c-0.2,0-0.4,0.1-0.7,0.1c-0.2,0-0.4,0-0.5-0.1s-0.4-0.1-0.5-0.2
			c-0.2-0.1-0.3-0.3-0.4-0.5c-0.1-0.2-0.2-0.4-0.2-0.7c0-0.1,0-0.3,0-0.5l0.8-4.6h-1.5l0.2-0.9h1.5l0.4-2.1h1.1l-0.4,2.1h2
			L246.2,258.8z"/>
		<path class="st6" d="M247.9,265.3h-1.1l1.3-7.4h1.1L247.9,265.3z M249.8,255c0,0.2-0.1,0.4-0.2,0.5c-0.1,0.1-0.3,0.2-0.5,0.2
			c-0.2,0-0.4-0.1-0.5-0.2c-0.1-0.1-0.2-0.3-0.2-0.5c0-0.2,0.1-0.4,0.2-0.6c0.2-0.1,0.3-0.2,0.5-0.2c0.2,0,0.4,0.1,0.5,0.2
			C249.8,254.6,249.8,254.8,249.8,255z"/>
		<path class="st6" d="M254.1,265.5c-0.5,0-1-0.1-1.4-0.2c-0.4-0.2-0.8-0.4-1.1-0.7c-0.3-0.3-0.5-0.6-0.7-1s-0.3-0.8-0.3-1.3
			c0-0.6,0.1-1.2,0.3-1.8c0.2-0.6,0.5-1,0.9-1.5c0.4-0.4,0.9-0.7,1.4-1c0.5-0.2,1.1-0.4,1.8-0.4c0.5,0,1,0.1,1.4,0.2
			c0.4,0.2,0.8,0.4,1.1,0.7c0.3,0.3,0.5,0.6,0.7,1c0.2,0.4,0.3,0.8,0.3,1.3c0,0.6-0.1,1.2-0.3,1.8c-0.2,0.6-0.5,1-0.9,1.5
			c-0.4,0.4-0.9,0.7-1.4,1C255.4,265.3,254.8,265.5,254.1,265.5z M257.4,260.9c0-0.3-0.1-0.7-0.2-0.9c-0.1-0.3-0.3-0.5-0.5-0.8
			c-0.2-0.2-0.5-0.4-0.7-0.5c-0.3-0.1-0.6-0.2-1-0.2c-0.5,0-0.9,0.1-1.3,0.3c-0.4,0.2-0.7,0.5-1,0.8c-0.3,0.3-0.5,0.7-0.7,1.2
			c-0.2,0.4-0.2,0.9-0.2,1.4c0,0.3,0.1,0.7,0.2,0.9c0.1,0.3,0.3,0.5,0.5,0.8c0.2,0.2,0.5,0.4,0.7,0.5s0.6,0.2,1,0.2
			c0.5,0,0.9-0.1,1.3-0.3c0.4-0.2,0.7-0.5,1-0.8c0.3-0.3,0.5-0.7,0.7-1.1C257.3,261.9,257.4,261.4,257.4,260.9z"/>
		<path class="st6" d="M262.5,257.9c0,0.2,0,0.4-0.1,0.7c0,0.2-0.1,0.4-0.1,0.6h0c0.3-0.5,0.7-0.8,1.1-1.1c0.4-0.3,0.9-0.4,1.4-0.4
			c0.8,0,1.4,0.2,1.9,0.6s0.7,1,0.7,1.7c0,0.1,0,0.3,0,0.4c0,0.1,0,0.3-0.1,0.4l-0.8,4.5h-1.1l0.7-4.1c0.1-0.3,0.1-0.6,0.1-0.9
			c0-0.5-0.1-0.9-0.4-1.2c-0.2-0.3-0.7-0.5-1.3-0.5c-0.3,0-0.6,0.1-0.9,0.2c-0.3,0.1-0.6,0.3-0.8,0.5c-0.2,0.2-0.5,0.5-0.7,0.9
			c-0.2,0.4-0.3,0.8-0.4,1.3l-0.7,3.8h-1.1l1-5.8c0-0.2,0.1-0.5,0.1-0.8c0-0.3,0.1-0.6,0.1-0.9H262.5z"/>
		<path class="st6" d="M274.3,259.5c-0.1-0.3-0.4-0.5-0.7-0.7c-0.3-0.2-0.6-0.3-1.1-0.3c-0.2,0-0.4,0-0.6,0.1
			c-0.2,0-0.4,0.1-0.6,0.2c-0.2,0.1-0.3,0.2-0.4,0.4c-0.1,0.2-0.2,0.3-0.2,0.6c0,0.2,0,0.4,0.1,0.5c0.1,0.1,0.2,0.2,0.3,0.3
			c0.1,0.1,0.3,0.2,0.5,0.2s0.4,0.1,0.6,0.2c0.7,0.2,1.3,0.5,1.7,0.8c0.4,0.3,0.6,0.8,0.6,1.4c0,0.4-0.1,0.7-0.3,1
			c-0.2,0.3-0.4,0.5-0.7,0.7c-0.3,0.2-0.6,0.3-0.9,0.4c-0.3,0.1-0.7,0.1-1,0.1c-0.6,0-1.2-0.1-1.7-0.3c-0.5-0.2-1-0.6-1.3-1l0.9-0.6
			c0.2,0.3,0.4,0.6,0.8,0.8c0.4,0.2,0.8,0.3,1.2,0.3c0.2,0,0.5,0,0.7-0.1c0.2,0,0.4-0.1,0.6-0.2c0.2-0.1,0.3-0.2,0.4-0.4
			c0.1-0.2,0.2-0.4,0.2-0.6c0-0.4-0.2-0.7-0.5-0.9c-0.3-0.2-0.8-0.4-1.3-0.6c-0.2-0.1-0.4-0.2-0.7-0.3c-0.2-0.1-0.4-0.2-0.6-0.4
			c-0.2-0.2-0.3-0.3-0.4-0.6c-0.1-0.2-0.2-0.5-0.2-0.8c0-0.4,0.1-0.7,0.3-1c0.2-0.3,0.4-0.5,0.7-0.7c0.3-0.2,0.6-0.3,0.9-0.4
			c0.3-0.1,0.7-0.1,1-0.1c0.6,0,1.1,0.1,1.5,0.3s0.8,0.5,1,0.9L274.3,259.5z"/>
	</g>
</g>
</a>
</svg>
