<?xml version="1.0" encoding="iso-8859-1"?>
<!-- Generator: Adobe Illustrator 19.1.0, SVG Export Plug-In . SVG Version: 6.00 Build 0)  -->
<svg version="1.1" xmlns="http://www.w3.org/2000/svg" xmlns:xlink="http://www.w3.org/1999/xlink" x="0px" y="0px"
	 viewBox="0 0 275.1 230.2" style="enable-background:new 0 0 275.1 230.2;" xml:space="preserve">
<style type="text/css">
	.st0{display:none;}
	.st1{display:inline;fill:#5D5E5E;}
	.st2{fill:#ABADB0;}
	.st3{fill:#001F5B;}
	.st4{fill:#8C8E90;}
	.st5{fill:none;stroke:#ABADB0;stroke-width:1.5;stroke-miterlimit:10;}
	.st6{fill:#FFFFFF;}
	.st7{fill:#FFFFFF;stroke:#FFFFFF;stroke-width:1.5;stroke-miterlimit:10;}
	.st8{fill:#A7A9AC;}
	.st9{fill:#939598;}
	.st10{fill:#ABADB0;stroke:#A7A9AC;stroke-miterlimit:10;}
	.st11{stroke:#FFFFFF;stroke-width:2.0592;stroke-miterlimit:10;}
	.st12{fill:none;stroke:#FFFFFF;stroke-width:1.5;stroke-miterlimit:10;}
	.st13{opacity:0.5;}
</style>
<a xmlns="http://www.w3.org/2000/svg" xmlns:xlink="http://www.w3.org/1999/xlink" xlink:href="http://morganwhite.com" target="_top">
<g id="logo-corporate">
	<g>
		<path class="st6" d="M0,174h7.9l5.5,16.2h0.1L19,174h7.9v24.8h-5.2v-19h-0.1l-6.2,19h-4l-6-19H5.2v19H0V174z"/>
		<path class="st6" d="M30.4,186.4c0-2,0.3-3.8,1-5.4c0.6-1.6,1.5-3,2.7-4.1c1.1-1.1,2.5-2,4.1-2.6c1.6-0.6,3.3-0.9,5.1-0.9
			c1.9,0,3.6,0.3,5.1,0.9s2.9,1.5,4.1,2.6c1.1,1.1,2,2.5,2.7,4.1c0.6,1.6,1,3.4,1,5.4c0,2-0.3,3.8-1,5.4c-0.6,1.6-1.5,3-2.7,4.1
			c-1.1,1.1-2.5,2-4.1,2.6s-3.3,0.9-5.1,0.9c-1.9,0-3.6-0.3-5.1-0.9c-1.6-0.6-2.9-1.5-4.1-2.6c-1.1-1.1-2-2.5-2.7-4.1
			C30.8,190.1,30.4,188.4,30.4,186.4z M35.9,186.4c0,1.2,0.2,2.2,0.5,3.2c0.3,1,0.8,1.8,1.5,2.5c0.6,0.7,1.4,1.3,2.3,1.7
			s1.9,0.6,3,0.6s2.1-0.2,3-0.6s1.7-1,2.3-1.7c0.6-0.7,1.1-1.6,1.5-2.5c0.3-1,0.5-2,0.5-3.2c0-1.1-0.2-2.2-0.5-3.2
			c-0.3-1-0.8-1.8-1.5-2.5c-0.6-0.7-1.4-1.3-2.3-1.7c-0.9-0.4-1.9-0.6-3-0.6s-2.1,0.2-3,0.6c-0.9,0.4-1.7,1-2.3,1.7
			c-0.6,0.7-1.1,1.6-1.5,2.5C36.1,184.2,35.9,185.2,35.9,186.4z"/>
		<path class="st6" d="M59.7,174h9.2c1.2,0,2.4,0.1,3.4,0.4c1.1,0.2,2,0.7,2.9,1.2c0.8,0.6,1.5,1.3,1.9,2.3c0.5,1,0.7,2.2,0.7,3.6
			c0,1.8-0.4,3.2-1.3,4.5c-0.9,1.2-2.2,2-3.8,2.3l6,10.5h-6.3l-5-9.9h-2.6v9.9h-5.2V174z M64.9,184.2H68c0.5,0,1,0,1.5-0.1
			c0.5,0,1-0.1,1.4-0.3c0.4-0.2,0.8-0.4,1.1-0.8c0.3-0.4,0.4-0.9,0.4-1.6c0-0.6-0.1-1.1-0.4-1.5c-0.2-0.4-0.6-0.7-0.9-0.9
			c-0.4-0.2-0.8-0.3-1.3-0.4c-0.5-0.1-1-0.1-1.4-0.1h-3.4V184.2z"/>
		<path class="st6" d="M103,197c-1.5,0.8-3.2,1.4-4.8,1.8c-1.7,0.4-3.4,0.6-5.1,0.6c-1.9,0-3.6-0.3-5.1-0.9
			c-1.6-0.6-2.9-1.5-4.1-2.6c-1.1-1.1-2-2.5-2.7-4.1c-0.6-1.6-1-3.4-1-5.4c0-2,0.3-3.8,1-5.4c0.6-1.6,1.5-3,2.7-4.1
			c1.1-1.1,2.5-2,4.1-2.6c1.6-0.6,3.3-0.9,5.1-0.9c1.9,0,3.7,0.2,5.3,0.7s3,1.3,4.2,2.5l-3.7,4.2c-0.7-0.8-1.5-1.4-2.4-1.8
			c-0.9-0.4-2-0.6-3.4-0.6c-1.1,0-2.1,0.2-3,0.6c-0.9,0.4-1.7,1-2.3,1.7c-0.6,0.7-1.1,1.6-1.5,2.5c-0.3,1-0.5,2-0.5,3.2
			c0,1.2,0.2,2.2,0.5,3.2c0.3,1,0.8,1.8,1.5,2.5c0.6,0.7,1.4,1.3,2.3,1.7s1.9,0.6,3,0.6c1.1,0,2.1-0.1,3-0.4c0.8-0.3,1.5-0.5,2-0.8
			v-4h-4.3v-5h9.3V197z"/>
		<path class="st6" d="M115.4,174h4.3l10.3,24.8h-5.9l-2-5.2h-9.2l-2,5.2h-5.8L115.4,174z M117.4,181.2l-2.9,7.7h5.8L117.4,181.2z"
			/>
		<path class="st6" d="M132.5,174h7.1l10.1,17.2h0.1V174h5.2v24.8h-6.9l-10.4-17.6h-0.1v17.6h-5.2V174z"/>
		<path class="st6" d="M167.3,174h5.7l3.8,15.9h0.1l5-15.9h4.9l4.9,16.3h0.1l4-16.3h5.3l-7,24.8h-4.7l-5.2-17.2h-0.1l-5.2,17.2h-4.5
			L167.3,174z"/>
		<path class="st6" d="M203.4,174h5.2v9.2h10.2V174h5.2v24.8h-5.2V188h-10.2v10.7h-5.2V174z"/>
		<path class="st6" d="M228.8,174h5.2v24.8h-5.2V174z"/>
		<path class="st6" d="M243.5,178.8h-6.8V174h18.8v4.8h-6.8v20h-5.2V178.8z"/>
		<path class="st6" d="M258.3,174h16.2v5h-10.9v4.6h10.3v5h-10.3v5h11.5v5h-16.8V174z"/>
		<path class="st6" d="M100.5,214.7c-0.6-0.7-1.4-1.2-2.2-1.6c-0.9-0.4-1.9-0.6-3-0.6c-1.2,0-2.2,0.2-3.2,0.7
			c-0.9,0.4-1.7,1-2.4,1.7c-0.6,0.7-1.1,1.6-1.5,2.5s-0.5,2-0.5,3s0.2,2.1,0.5,3c0.3,1,0.8,1.8,1.5,2.5c0.6,0.7,1.4,1.3,2.4,1.7
			c0.9,0.4,2,0.7,3.2,0.7c1,0,1.9-0.1,2.7-0.4c0.9-0.2,1.7-0.5,2.4-0.9V221h-4.4v-1.7h6.3v9c-1,0.6-2.2,1.1-3.4,1.4
			c-1.2,0.3-2.4,0.5-3.5,0.5c-1.4,0-2.6-0.2-3.8-0.7c-1.2-0.5-2.2-1.2-3-2c-0.9-0.9-1.5-1.9-2-3.1c-0.5-1.2-0.7-2.5-0.7-3.9
			s0.2-2.7,0.7-3.9c0.5-1.2,1.2-2.2,2-3.1c0.9-0.9,1.9-1.5,3-2c1.2-0.5,2.4-0.7,3.8-0.7c1.5,0,2.7,0.2,3.8,0.6c1.1,0.4,2,1,2.8,1.9
			L100.5,214.7z"/>
		<path class="st6" d="M112.9,229.8H111v-18.4h5.7c1.9,0,3.3,0.4,4.4,1.2c1.1,0.8,1.6,2,1.6,3.7c0,1.3-0.4,2.4-1.2,3.2
			c-0.8,0.9-2,1.4-3.5,1.5l5.3,8.7h-2.3l-5-8.6h-3.1V229.8z M112.9,219.5h3.3c0.8,0,1.5-0.1,2.1-0.3c0.6-0.2,1-0.4,1.4-0.7
			c0.3-0.3,0.6-0.6,0.8-1c0.2-0.4,0.2-0.8,0.2-1.3c0-0.4-0.1-0.8-0.2-1.2c-0.2-0.4-0.4-0.7-0.8-1c-0.3-0.3-0.8-0.5-1.4-0.7
			c-0.6-0.2-1.3-0.2-2.1-0.2h-3.3V219.5z"/>
		<path class="st6" d="M148.3,220.6c0,1.4-0.2,2.7-0.7,3.9s-1.2,2.2-2,3.1c-0.9,0.9-1.9,1.5-3,2c-1.2,0.5-2.4,0.7-3.8,0.7
			s-2.6-0.2-3.8-0.7c-1.2-0.5-2.2-1.2-3-2c-0.9-0.9-1.5-1.9-2-3.1c-0.5-1.2-0.7-2.5-0.7-3.9s0.2-2.7,0.7-3.9c0.5-1.2,1.2-2.2,2-3.1
			c0.9-0.9,1.9-1.5,3-2c1.2-0.5,2.4-0.7,3.8-0.7s2.6,0.2,3.8,0.7s2.2,1.2,3,2c0.9,0.9,1.5,1.9,2,3.1S148.3,219.1,148.3,220.6z
			 M146.2,220.6c0-1.1-0.2-2.1-0.5-3c-0.3-1-0.8-1.8-1.5-2.5c-0.6-0.7-1.4-1.3-2.4-1.7c-0.9-0.4-2-0.7-3.2-0.7s-2.2,0.2-3.2,0.7
			c-0.9,0.4-1.7,1-2.4,1.7c-0.6,0.7-1.1,1.6-1.5,2.5s-0.5,2-0.5,3s0.2,2.1,0.5,3c0.3,1,0.8,1.8,1.5,2.5c0.6,0.7,1.4,1.3,2.4,1.7
			c0.9,0.4,2,0.7,3.2,0.7s2.2-0.2,3.2-0.7c0.9-0.4,1.7-1,2.4-1.7c0.6-0.7,1.1-1.6,1.5-2.5C146.1,222.6,146.2,221.6,146.2,220.6z"/>
		<path class="st6" d="M169.1,222.9c0,0.8-0.1,1.6-0.3,2.4c-0.2,0.9-0.5,1.7-1,2.4c-0.5,0.7-1.2,1.3-2.1,1.8s-2,0.7-3.4,0.7
			c-1.4,0-2.5-0.2-3.4-0.7c-0.9-0.5-1.6-1.1-2.1-1.8c-0.5-0.7-0.8-1.5-1-2.4c-0.2-0.9-0.3-1.7-0.3-2.4v-11.5h1.9v11.3
			c0,0.9,0.1,1.6,0.3,2.3c0.2,0.6,0.4,1.2,0.7,1.6c0.3,0.4,0.6,0.8,1,1s0.7,0.4,1.1,0.6s0.7,0.2,1,0.3c0.3,0,0.6,0.1,0.9,0.1
			c0.2,0,0.5,0,0.8-0.1c0.3,0,0.7-0.1,1-0.3c0.4-0.1,0.7-0.3,1.1-0.6s0.7-0.6,1-1c0.3-0.4,0.5-1,0.7-1.6c0.2-0.6,0.3-1.4,0.3-2.3
			v-11.3h1.9V222.9z"/>
		<path class="st6" d="M177.7,211.3h5.4c1.9,0,3.3,0.4,4.4,1.2c1.1,0.8,1.6,2,1.6,3.7s-0.5,2.9-1.6,3.7s-2.6,1.2-4.4,1.2h-3.5v8.6
			h-1.9V211.3z M179.5,219.5h3c0.8,0,1.5-0.1,2.1-0.3c0.6-0.2,1-0.4,1.4-0.7c0.3-0.3,0.6-0.6,0.8-1c0.2-0.4,0.2-0.8,0.2-1.3
			c0-0.4-0.1-0.8-0.2-1.2c-0.2-0.4-0.4-0.7-0.8-1c-0.3-0.3-0.8-0.5-1.4-0.7c-0.6-0.2-1.3-0.2-2.1-0.2h-3V219.5z"/>
	</g>
	<line class="st12" x1="74.9" y1="220.1" x2="25.4" y2="220.1"/>
	<line class="st12" x1="252.1" y1="220.1" x2="202.6" y2="220.1"/>
	<circle class="st3" cx="137.2" cy="77.3" r="64.3"/>
	<path class="st6" d="M137.2,11.9c-36,0-65.4,29.3-65.4,65.4s29.3,65.4,65.4,65.4c36,0,65.4-29.3,65.4-65.4S173.3,11.9,137.2,11.9z
		 M137.2,140.6c-28.3,0-52.4-18.7-60.4-44.4c1.8,0,4.9-0.1,7-0.1c3.2,0,4.9,0.2,5.4,0.2c0.3,0,0.4-0.2,0.4-0.4v-1.2
		c0-0.3-0.1-0.4-0.4-0.4h-1.4c-1.2,0-1.7-0.7-1.7-1.4c0-2.8,5.8-19.7,7.4-24.3h0.2l7.4,18.3c0,0,1.7,4,2.7,4c1.6,0,4-5.6,4-5.6
		s6.9-15.5,7.3-16.5l0.1,0.1l8,23.7c0.4,1.1-0.2,1.8-1.2,1.8h-1c-0.4,0-0.5,0.2-0.5,0.4v1.3c0,0.3,0.1,0.4,0.4,0.4
		c0.4,0,1.7,0,4.2-0.1c0.4,0,0.7-0.2,1-0.4c0.2-0.2,0.4-0.4,0.5-0.7c0.2-0.6,9.3-19.7,9.7-21.1h0.2l9.3,21c0.2,0.6,0.6,1.1,1.3,1.1
		c2.7,0,3.7-1.1,4.8-4.2c0.6-1.6,3.9-11,6.9-19c3.6-9.5,9.1-12.3,14.7-12.3c3.9,0,6.8,1.7,8.5,3.6c2.1,2.2,3.4,5,4.1,7.1
		c0.1,0.3,0.2,0.5,0.5,0.4l1.2-0.2c0.2-0.1,0.2-0.3,0.2-0.7l-0.5-10.3c0-0.4-0.1-0.7-0.6-0.7c-0.3,0-0.5,0.2-0.7,0.5l-0.6,0.8
		c-0.3,0.4-0.6,0.6-1.2,0.1c-1.6-1.2-5.5-2.8-10.5-2.8c-9.5,0-16.3,2-20.7,15.7l-4.2,11l-6.4-14.4c0,0-2.7-6.4-3.8-6.4
		c-1.2,0-3.9,6-3.9,6s-6.9,14.8-7.3,15.9l-0.1-0.1l-8-23.7c-0.4-1.1,0.2-1.8,1.2-1.8h1c0.4,0,0.5-0.2,0.5-0.4v-1.3
		c0-0.3-0.1-0.4-0.4-0.4c-0.4,0-2.8,0.1-5,0.1c-0.2,0-0.6,0.7-1,1.7c-1.6,3.5-9,19.8-9.5,21.1h-0.2L97,59.9
		c-0.2-0.6-0.6-1.1-1.3-1.1c-0.7,0-1.1,0.8-1.3,1.3c-1,2.6-11.5,31.3-12,32.4c-0.5,1.2-1.4,1.7-2.3,1.7h-3.8
		c-1.5-5.4-2.3-11.1-2.3-16.9c0-34.9,28.4-63.3,63.3-63.3c34.9,0,63.3,28.4,63.3,63.3c0,0.8,0,1.5-0.1,2.2c-0.1,0-0.1,0-0.2,0
		c-0.5,0-12.3,0.2-16.6,0.2c-4.2,0-6.7-0.2-7.3-0.2c-0.2,0-0.3,0.1-0.3,0.4v1.2c0,0.3,0.1,0.5,0.4,0.5h2.2c1.3,0,1.8,0.5,1.8,2.4
		v3.7c0,2.7-0.1,4.1-1.2,4.7c-1.7,0.9-3.7,0.9-7,0.9c-5.1,0-8.8-3.2-13-6.6c-0.6-0.5-1-0.3-1.2,0c-0.2,0.3-0.8,1.9-1,2.4
		c-0.2,0.4-0.2,1,0.3,1.5c3.5,3.9,9.6,5.6,14.4,5.6c6.2,0,10.4-1.2,14.6-3.4c0.5-0.2,0.8-0.4,0.8-0.8c0-0.4-0.2-0.9-0.2-1.6v-6.8
		c0-1.5,0.6-1.9,1.5-1.9h11.8C198.2,114.5,170.7,140.6,137.2,140.6z"/>
	<g class="st13">
		<path class="st6" d="M207.1,77.3c0.4,0.8,0.7,1.7,1,2.6c0.2,0.8,0.7,1.5,0.8,2.3l0-0.1c1.6,2.8,3,5.7,3.8,9c0.4,1.7,0.2,3.4-0.3,5
			c-0.5,1.6-1.3,3.1-2.5,4.3c-0.2-1-0.4-2.1-0.5-3.2c-0.1-1.2-0.5-2.3-0.7-3.4l0,0.1c0,0,0,0,0,0c-0.3-0.6-0.5-1.3-0.8-1.9
			c-0.3-0.7-0.6-1.3-0.9-1.9c-0.5-1.3-1-2.6-1.4-3.8c-0.3-1.6-0.5-3.1-0.4-4.5C205.6,80.1,206.2,78.7,207.1,77.3z"/>
		<path class="st6" d="M206,89.5c0.3,0.9,0.6,1.8,0.6,2.7c0.1,0.8,0.4,1.6,0.4,2.4l0-0.1c0.5,1.5,0.9,3.1,1.4,4.6
			c0.4,1.6,0.6,3.2,0.7,4.9c0.2,3.4-1.7,6.7-4.4,8.6c0-1.1,0-2.2,0.1-3.2c0.1-1.2,0-2.3,0-3.4l0,0.1c0,0,0,0,0,0
			c-0.7-2.7-1.4-5.5-1.6-8.1c-0.2-1.6-0.1-3.2,0.4-4.6c0.2-0.7,0.6-1.4,1-2C205,90.8,205.4,90.1,206,89.5z"/>
		<path class="st6" d="M202.8,101.3c0.1,0.9,0.1,1.9,0.1,2.8c0,0.8,0.1,1.7,0,2.5l0-0.1c0.2,3.1,1,6.5,0.4,9.7
			c-0.3,1.6-0.9,3.3-1.9,4.6c-1.1,1.3-2.4,2.4-3.9,3.1c0.2-1.1,0.4-2.1,0.7-3.1c0.3-1.1,0.5-2.2,0.5-3.4l0,0.1c0,0,0,0,0,0
			c-0.2-2.8-0.3-5.6-0.1-8.2c0.1-1.7,0.5-3.1,1.3-4.4C200.6,103.6,201.4,102.3,202.8,101.3z"/>
		<path class="st6" d="M197.6,112.4c0,0.9-0.2,1.8-0.4,2.8c-0.2,0.8-0.1,1.7-0.4,2.5l0-0.1c-0.1,1.5-0.3,3.2-0.4,4.8
			c-0.2,1.6-0.3,3.3-1,4.9c-0.6,1.6-1.5,3-2.7,4.2c-1.2,1.2-2.8,1.9-4.4,2.4c0.4-1,0.8-2,1.3-2.9c0.5-1,0.7-2.2,1.1-3.3l-0.1,0.1
			c0,0,0,0,0,0c0.3-2.8,0.8-5.5,1.3-8.1c0.4-1.6,1.1-2.9,2.1-4.1C194.9,114.2,196.1,113.2,197.6,112.4z"/>
		<path class="st6" d="M190.5,122.4c-0.2,0.9-0.6,1.7-0.9,2.6c-0.3,0.7-0.5,1.6-0.8,2.3l0.1-0.1c-0.7,3.1-1.4,6.2-2.9,9.3
			c-0.9,1.4-2.1,2.6-3.5,3.6c-0.7,0.5-1.4,0.9-2.2,1.1c-0.8,0.2-1.6,0.4-2.5,0.4c0.5-0.9,1.2-1.7,1.7-2.6c0.6-1,1.1-2.1,1.6-3.1
			l-0.1,0.1c0,0,0,0,0,0c0.4-1.3,0.8-2.6,1.3-3.9c0.4-1.3,0.9-2.7,1.4-3.9C185.2,125.5,187.2,123.4,190.5,122.4z"/>
		<path class="st6" d="M181.8,131.1c-0.3,0.9-0.9,1.6-1.4,2.4c-0.4,0.7-0.8,1.5-1.2,2.1l0.1-0.1c-1.2,3-2.5,5.9-4.5,8.6
			c-1,1.4-2.5,2.2-4,2.9c-1.6,0.6-3.2,1.1-4.9,0.8c0.8-0.9,1.5-1.6,2.1-2.4c0.8-0.9,1.5-1.8,2.2-2.7l-0.1,0.1c0,0,0,0,0,0
			c1.3-2.3,2.5-5.1,4-7.2c0.5-0.7,1-1.2,1.5-1.7c0.5-0.6,1.1-1,1.7-1.4C178.6,131.8,180.1,131.3,181.8,131.1z"/>
		<path class="st6" d="M171.7,138c-0.5,0.8-1.1,1.5-1.7,2.2c-0.5,0.6-1,1.3-1.6,1.8l0.1-0.1c-0.9,1.3-1.7,2.7-2.7,4.1
			c-1,1.3-2,2.5-3.3,3.6c-0.6,0.6-1.3,1-2.1,1.5c-0.8,0.4-1.6,0.6-2.4,0.8c-1.6,0.3-3.4,0.3-4.9-0.1c0.8-0.7,1.7-1.4,2.5-2
			c0.9-0.7,1.8-1.5,2.6-2.2l-0.1,0.1c0,0,0,0,0,0c1.7-2.1,3.3-4.6,5.2-6.4c1.2-1.1,2.4-2.1,3.8-2.6
			C168.5,138.2,170.1,138.1,171.7,138z"/>
		<path class="st6" d="M160.5,143.1c-0.6,0.7-1.3,1.3-2.1,1.9c-0.6,0.5-1.2,1.1-1.9,1.5l0.1-0.1c-2.2,2.2-4.3,4.9-7.2,6.5
			c-1.4,0.8-3.1,1.4-4.8,1.5c-1.7,0-3.4-0.4-4.9-1.1c0.9-0.6,1.9-1,2.8-1.4c1-0.5,2-1,3-1.7l-0.1,0.1c0,0,0,0,0,0
			c2-2,4.1-3.8,6.3-5.3C154.4,142.8,157.3,142.6,160.5,143.1z"/>
		<path class="st6" d="M148.7,146.1c-0.7,0.6-1.5,1-2.4,1.5c-0.7,0.4-1.4,1-2.1,1.3l0.1,0c-2.6,1.7-5.1,4-8.3,5.1
			c-3.1,1.1-6.9,0.8-9.6-1.3c1-0.4,2-0.6,3-0.9c1.1-0.3,2.2-0.9,3.2-1.3l-0.1,0c0,0,0,0,0,0c2.3-1.5,4.7-2.9,7.1-4.2
			c1.5-0.7,2.9-1,4.4-1C145.6,145.2,147.1,145.5,148.7,146.1z"/>
		<path class="st6" d="M136.4,147.1c-0.8,0.4-1.7,0.7-2.6,1c-0.8,0.2-1.5,0.7-2.3,0.8l0.1,0c-1.4,0.8-2.9,1.5-4.3,2.1
			c-1.5,0.6-3,1.2-4.7,1.6c-1.7,0.4-3.4,0.1-5-0.4c-1.6-0.5-3.1-1.3-4.2-2.6c1-0.1,2.1-0.2,3.2-0.4c1.2-0.1,2.3-0.4,3.4-0.7l-0.1,0
			c0,0,0,0,0,0c2.5-0.9,5.2-2.2,7.7-2.9c0.8-0.2,1.6-0.3,2.3-0.3c0.8,0,1.5-0.1,2.2,0C133.6,145.6,135,146.2,136.4,147.1z"/>
		<path class="st6" d="M124.2,145.9c-0.9,0.4-1.8,0.5-2.7,0.6c-0.8,0.1-1.6,0.4-2.4,0.4h0.1c-1.5,0.4-3.1,1-4.7,1.4
			c-1.6,0.3-3.2,0.6-4.9,0.6c-0.8,0-1.7-0.1-2.5-0.2c-0.8-0.2-1.6-0.6-2.3-1c-1.5-0.8-2.8-1.9-3.7-3.2c1.1,0,2.2,0.1,3.2,0.1
			c1.2,0.1,2.3,0,3.4,0l-0.1,0c0,0,0,0,0,0c2.7-0.5,5.5-1.4,8.1-1.5c1.6-0.1,3.2-0.1,4.5,0.5C121.7,143.9,122.9,144.9,124.2,145.9z"
			/>
		<path class="st6" d="M112.4,142.6c-0.9,0.1-1.9,0.1-2.8,0.1c-0.8-0.1-1.7,0-2.4-0.1l0.1,0c-1.5,0.2-3.2,0.3-4.8,0.5
			c-1.7,0.2-3.2,0-4.9-0.2c-1.6-0.3-3.3-0.9-4.6-2c-1.3-1.1-2.4-2.4-3.1-3.9c1.1,0.2,2.1,0.5,3.1,0.7c1.1,0.3,2.2,0.5,3.4,0.6
			l-0.1,0c0,0,0,0,0,0c2.8-0.2,5.7-0.3,8.3,0C107.9,138.4,110.3,140.1,112.4,142.6z"/>
		<path class="st6" d="M101.4,137.2c-0.9,0-1.8-0.2-2.8-0.4c-0.8-0.1-1.7-0.1-2.4-0.5l0.1,0c-1.5-0.1-3.2-0.3-4.8-0.4
			c-0.8-0.1-1.6-0.2-2.5-0.3c-0.8-0.2-1.6-0.4-2.4-0.7c-1.6-0.6-3-1.5-4.2-2.7c-1.1-1.3-1.9-2.8-2.3-4.4c1,0.4,2,0.8,2.9,1.3
			c0.5,0.3,1,0.5,1.6,0.7c0.6,0.2,1.1,0.3,1.7,0.5l-0.1-0.1c0,0,0,0,0,0c1.4,0.2,2.8,0.4,4.1,0.6c1.3,0.3,2.7,0.5,4,0.8
			c1.6,0.4,2.9,1.1,4.1,2.1C99.6,134.6,100.6,135.7,101.4,137.2z"/>
		<path class="st6" d="M91.5,130c-0.9-0.2-1.8-0.6-2.6-0.9c-0.7-0.3-1.6-0.5-2.4-0.8l0.1,0.1c-3-0.9-6.3-1.4-9.2-3.1
			c-2.8-1.7-5-4.8-5.1-8.2c0.9,0.5,1.8,1.2,2.6,1.8c0.9,0.7,2.1,1.1,3.1,1.6l-0.1-0.1c0,0,0,0,0,0c2.7,0.8,5.3,1.8,7.8,2.8
			c1.5,0.7,2.6,1.6,3.6,2.8C90.2,127.1,91,128.4,91.5,130z"/>
		<path class="st6" d="M82.9,121.2c-0.8-0.4-1.6-0.9-2.4-1.4c-0.7-0.4-1.5-0.8-2.1-1.3l0.1,0.1c-1.5-0.6-2.9-1.3-4.4-2
			c-1.4-0.7-2.9-1.6-4.2-2.6c-1.3-1.1-2.2-2.5-2.9-4.1c-0.7-1.5-1-3.2-0.7-4.9c0.8,0.7,1.5,1.5,2.3,2.2c0.9,0.8,1.8,1.5,2.7,2.2
			l-0.1-0.1c0,0,0,0,0,0c1.2,0.7,2.4,1.3,3.6,2c1.3,0.6,2.5,1.3,3.5,2.1C80.9,115.5,82.6,117.8,82.9,121.2z"/>
		<path class="st6" d="M76,111.1c-0.8-0.5-1.4-1.1-2.1-1.8c-0.6-0.5-1.3-1-1.9-1.6l0.1,0.1c-2.7-1.7-5.4-3.5-7.6-6
			c-1.2-1.2-1.8-2.8-2.1-4.5c-0.3-1.7-0.3-3.4,0.1-4.9c0.7,0.8,1.3,1.7,2,2.5c0.7,0.9,1.5,1.8,2.2,2.6l-0.1-0.1c0,0,0,0,0,0
			c0.5,0.4,1.1,0.9,1.6,1.3c0.6,0.4,1.1,0.9,1.7,1.3c1.1,0.9,2.1,1.8,3,2.7c1.1,1.2,2,2.4,2.5,3.8C76,107.8,76.1,109.4,76,111.1z"/>
		<path class="st6" d="M71.1,99.8c-0.7-0.6-1.4-1.3-1.9-2.1c-0.5-0.6-1.1-1.2-1.5-1.9l0.1,0.1c-1.1-1.1-2.3-2.2-3.5-3.4
			c-1.1-1.2-2.1-2.5-2.9-3.9c-1.8-2.9-1.7-6.7-0.3-9.6c0.6,0.9,1,1.9,1.4,2.9c0.5,1.1,1.1,2,1.7,3c0,0,0-0.1-0.1-0.1c0,0,0,0,0,0
			c1.9,2.1,3.9,4.1,5.3,6.3c1,1.3,1.6,2.7,1.9,4.2c0.1,0.7,0.2,1.5,0.1,2.3C71.3,98.2,71.3,99,71.1,99.8z"/>
		<path class="st6" d="M68.2,87.9c-0.6-0.7-1-1.6-1.5-2.4c-0.4-0.7-0.9-1.4-1.2-2.2l0,0.1c-0.9-1.3-1.8-2.6-2.7-3.9
			c-0.5-0.7-0.9-1.4-1.3-2.1c-0.4-0.7-0.7-1.5-1-2.3c-0.5-1.6-0.7-3.3-0.5-5c0.2-1.7,1-3.2,1.9-4.6c0.4,1,0.6,2,0.9,3
			c0.2,1.1,0.8,2.2,1.2,3.2l0-0.1c0,0,0,0,0,0c0.8,1.2,1.5,2.4,2.2,3.6c0.3,0.6,0.7,1.2,0.9,1.8c0.3,0.6,0.7,1.2,1,1.8
			c0.7,1.5,1.1,3,1,4.4C69,84.9,68.9,86.4,68.2,87.9z"/>
		<path class="st6" d="M67.4,75.7c-0.4-0.8-0.7-1.7-1-2.6c-0.2-0.8-0.7-1.6-0.8-2.3l0,0.1c-1.4-2.9-2.8-5.7-3.6-9.1
			c-0.2-1.6-0.1-3.4,0.5-5c0.3-0.8,0.6-1.6,1-2.3c0.4-0.7,1-1.3,1.6-1.9c0.2,1.1,0.1,2.1,0.3,3.2c0.1,1.2,0.4,2.3,0.7,3.4l0-0.1
			c0,0,0,0,0,0c0.5,1.3,1,2.6,1.4,3.9c0.5,1.3,1,2.6,1.4,3.9C69.6,70,69.3,72.9,67.4,75.7z"/>
		<path class="st6" d="M68.7,63.5c-0.3-0.9-0.3-1.8-0.5-2.7c-0.1-0.8-0.4-1.6-0.4-2.4v0.1c-1-3.1-1.8-6.1-1.9-9.6
			c-0.1-1.7,0.5-3.3,1.3-4.8c0.8-1.5,1.9-2.8,3.3-3.7c-0.1,1.2-0.1,2.2-0.2,3.2c-0.1,1.2,0,2.3,0,3.5l0-0.1c0,0,0,0,0,0
			c0.4,2.7,1.3,5.5,1.4,8.1c0,1.6-0.1,3.1-0.5,4.5C70.7,61,69.8,62.2,68.7,63.5z"/>
		<path class="st6" d="M72.2,51.7c-0.1-0.9-0.2-1.9-0.1-2.8c0.1-0.8,0-1.7,0.1-2.4l0,0.1c-0.2-1.5-0.3-3.2-0.5-4.8
			c0-1.6,0-3.2,0.3-4.9c0.4-3.4,3-6.2,6-7.6c-0.2,1.1-0.5,2.1-0.7,3.1c-0.3,1.1-0.4,2.3-0.6,3.4l0-0.1c0,0,0,0,0,0
			c0.1,2.8,0.3,5.7-0.1,8.2c-0.2,1.6-0.5,3.1-1.3,4.4C74.5,49.6,73.4,50.7,72.2,51.7z"/>
		<path class="st6" d="M77.7,40.8c0-0.9,0.2-1.8,0.4-2.8c0.1-0.8,0.3-1.6,0.5-2.4l0,0.1c0.4-3.1,0.3-6.5,1.5-9.6
			c0.6-1.5,1.5-3.1,2.8-4.1c1.3-1.1,2.8-1.9,4.4-2.3c-0.4,1-0.8,2-1.3,2.9c-0.5,1.1-0.9,2.1-1.2,3.2l0.1-0.1c0,0,0,0,0,0
			c-0.3,2.8-0.8,5.6-1.5,8.1C82.6,37.1,80.5,39.1,77.7,40.8z"/>
		<path class="st6" d="M85,30.9c0.2-0.9,0.6-1.8,0.9-2.6c0.3-0.7,0.4-1.7,0.9-2.3l-0.1,0.1c0.4-1.5,0.9-3.1,1.3-4.6
			c0.5-1.6,1-3.2,1.9-4.6c0.9-1.4,2.1-2.7,3.5-3.6c1.4-0.9,3.1-1.3,4.8-1.4c-0.5,0.9-1.2,1.8-1.8,2.6c-0.7,0.9-1.2,2-1.7,3l0.1-0.1
			c0,0,0,0,0,0c-0.4,1.3-0.9,2.7-1.4,3.9c-0.2,0.6-0.5,1.3-0.8,1.9c-0.2,0.7-0.5,1.3-0.8,1.9c-0.7,1.5-1.6,2.7-2.8,3.6
			C87.9,29.7,86.6,30.4,85,30.9z"/>
		<path class="st6" d="M93.9,22.5c0.4-0.8,0.9-1.6,1.4-2.4c0.4-0.7,0.8-1.5,1.3-2.1L96.4,18c1.4-2.8,2.6-5.9,4.7-8.5
			c2.2-2.4,5.6-4,9-3.5c-0.7,0.8-1.5,1.5-2.2,2.2c-0.8,0.9-1.5,1.8-2.2,2.7l0.1-0.1c0,0,0,0,0,0c-0.7,1.2-1.3,2.4-2.1,3.6
			c-0.7,1.2-1.4,2.4-2.1,3.5c-0.9,1.4-2.1,2.2-3.4,3.1C97,21.8,95.6,22.3,93.9,22.5z"/>
		<path class="st6" d="M104.1,15.7c0.5-0.8,1.2-1.4,1.8-2.1c0.5-0.6,1-1.3,1.6-1.9l-0.1,0.1c0.4-0.7,0.9-1.3,1.3-2
			c0.5-0.6,1-1.3,1.4-1.9c1-1.3,2.1-2.5,3.3-3.7c1.3-1.1,2.9-1.7,4.5-2.1c1.7-0.3,3.3-0.4,4.9,0.2c-0.8,0.6-1.7,1.2-2.6,1.9
			c-1,0.7-1.8,1.5-2.6,2.2l0.1-0.1c0,0,0,0,0,0c-1.8,2-3.5,4.4-5.4,6.2c-0.6,0.6-1.2,1-1.9,1.4c-0.6,0.4-1.3,0.8-2,1.1
			C107.3,15.7,105.8,15.8,104.1,15.7z"/>
		<path class="st6" d="M115.4,10.9c0.6-0.7,1.4-1.3,2.1-1.8c0.6-0.5,1.3-1.1,2-1.5l-0.1,0.1c1.1-1.1,2.2-2.4,3.4-3.4
			c1.2-1,2.5-2.1,4-2.9c0.7-0.4,1.5-0.8,2.3-1c0.8-0.2,1.7-0.3,2.5-0.3c1.7,0,3.4,0.4,4.8,1.1c-0.9,0.6-1.9,1-2.9,1.4
			c-1.1,0.5-2,1.1-3,1.7l0.1,0c0,0,0,0,0,0c-2.1,1.8-4.2,3.9-6.4,5.2c-1.4,0.8-2.7,1.6-4.2,1.8C118.6,11.4,117,11.1,115.4,10.9z"/>
		<path class="st6" d="M127.3,8.1c0.7-0.6,1.6-1,2.4-1.5c0.7-0.4,1.4-0.8,2.2-1.1l-0.1,0c2.6-1.7,5.2-4,8.4-5c1.6-0.5,3.3-0.7,5-0.5
			c1.6,0.3,3.2,1,4.6,2c-1,0.4-2.1,0.6-3.1,0.9c-1.1,0.2-2.2,0.7-3.2,1.2l0.1,0c0,0,0,0,0,0c-2.4,1.5-4.8,2.9-7.2,4
			C133.3,9.6,130.4,9.3,127.3,8.1z"/>
		<path class="st6" d="M139.6,7.5c0.8-0.4,1.7-0.7,2.6-1c0.8-0.2,1.6-0.7,2.4-0.8l-0.1,0c2.9-1.2,5.8-2.8,9.1-3.4
			c3.3-0.4,6.9,0.6,9.1,3.2c-1.1,0.2-2.1,0.2-3.1,0.2c-1.2,0.1-2.3,0.4-3.4,0.7l0.1,0c0,0,0,0,0,0c-2.6,1-5.2,1.9-7.8,2.7
			c-1.6,0.4-3.1,0.4-4.5,0.1C142.4,9,141,8.4,139.6,7.5z"/>
		<path class="st6" d="M151.8,8.9c0.9-0.2,1.8-0.3,2.7-0.4c0.8-0.1,1.6-0.4,2.5-0.4h-0.1c0.8-0.2,1.5-0.4,2.3-0.7
			c0.8-0.2,1.6-0.4,2.3-0.5c1.6-0.3,3.2-0.6,4.9-0.6c1.7,0,3.3,0.6,4.8,1.3c1.5,0.8,2.8,1.9,3.6,3.4c-0.5,0-1-0.1-1.6-0.1
			c-0.5,0-1.1-0.1-1.6-0.1c-1.2-0.1-2.3,0-3.5,0l0.1,0c0,0,0,0,0,0c-1.4,0.3-2.7,0.4-4.1,0.7c-1.4,0.3-2.7,0.5-4.1,0.6
			c-0.8,0-1.6,0-2.3-0.1c-0.7-0.1-1.5-0.2-2.2-0.5C154.3,10.9,153,10.1,151.8,8.9z"/>
		<path class="st6" d="M163.5,12.5c0.9-0.2,1.9-0.1,2.8,0c0.8,0.1,1.7,0,2.5,0.1l-0.1,0c1.6-0.1,3.2-0.4,4.8-0.4
			c1.6,0,3.2,0,4.9,0.3c0.8,0.2,1.7,0.4,2.4,0.7c0.7,0.4,1.4,0.9,2.1,1.4c1.3,1.1,2.4,2.4,3,3.9c-1.1-0.2-2.1-0.5-3.1-0.7
			c-1.1-0.3-2.3-0.5-3.4-0.7l0.1,0c0,0,0,0,0,0c-1.3,0-2.8,0-4.2,0c-1.4,0-2.8,0-4.1-0.2c-1.6-0.3-3.1-0.6-4.4-1.4
			C165.6,15,164.5,13.7,163.5,12.5z"/>
		<path class="st6" d="M174.4,18.1c0.9,0,1.9,0.2,2.8,0.4c0.8,0.2,1.6,0.3,2.4,0.6l-0.1,0c1.5,0.1,3.2,0.3,4.8,0.4
			c1.6,0.2,3.2,0.6,4.8,1.2c3.2,1.1,5.5,4.1,6.3,7.3c-1-0.4-2-0.9-2.9-1.3c-1-0.5-2.1-0.9-3.2-1.3l0.1,0.1c0,0,0,0,0,0
			c-2.8-0.4-5.6-0.8-8.1-1.6c-1.6-0.4-3-1.1-4.1-2.1c-0.6-0.5-1-1.1-1.5-1.7C175.2,19.5,174.8,18.9,174.4,18.1z"/>
		<path class="st6" d="M184.1,25.6c0.9,0.2,1.8,0.6,2.6,0.9c0.8,0.3,1.6,0.5,2.3,1l-0.1-0.1c2.9,1,6.4,1.5,9.1,3.3
			c1.4,0.9,2.7,2.1,3.6,3.5c0.8,1.5,1.3,3.1,1.4,4.8c-0.9-0.5-1.8-1.2-2.6-1.8c-0.9-0.7-1.9-1.3-3-1.8l0.1,0.1c0,0,0,0,0,0
			c-2.7-0.8-5.3-1.8-7.7-3c-1.5-0.7-2.7-1.6-3.6-2.8C185.4,28.4,184.6,27.2,184.1,25.6z"/>
		<path class="st6" d="M192.5,34.6c0.8,0.4,1.6,0.9,2.4,1.4c0.7,0.4,1.5,0.8,2.1,1.3l-0.1-0.1c1.4,0.7,2.8,1.4,4.3,2.1
			c1.4,0.8,3,1.6,4.1,2.7c1.2,1.1,2.2,2.5,2.8,4.1c0.7,1.5,0.7,3.3,0.5,4.9c-0.8-0.7-1.5-1.5-2.2-2.3c-0.7-0.9-1.8-1.5-2.7-2.2
			l0.1,0.1c0,0,0,0,0,0c-2.5-1.3-4.8-2.8-7-4.3c-1.3-1-2.3-2.1-3-3.4C193.1,37.7,192.6,36.2,192.5,34.6z"/>
		<path class="st6" d="M199.1,44.9c0.8,0.5,1.4,1.2,2.1,1.8c0.6,0.5,1.3,1,1.9,1.6l-0.1-0.1c2.6,1.8,5.2,3.7,7.5,6.2
			c1,1.3,1.7,2.9,2,4.6c0.2,0.8,0.2,1.7,0.2,2.5c0,0.8-0.3,1.7-0.5,2.5c-0.7-0.8-1.1-1.8-1.8-2.6c-0.7-1-1.5-1.8-2.2-2.7l0.1,0.1
			c0,0,0,0,0,0c-1.1-0.9-2.1-1.8-3.1-2.7c-1.1-0.9-2.1-1.8-3.1-2.8C199.9,50.9,198.8,48.3,199.1,44.9z"/>
		<path class="st6" d="M203.9,56.2c0.7,0.6,1.2,1.4,1.7,2.2c0.5,0.6,1.1,1.3,1.5,2l-0.1-0.1c2.3,2.2,4.5,4.5,6.3,7.4
			c0.9,1.5,1.2,3.1,1.2,4.8c0,1.7-0.4,3.4-1.1,4.8c-0.6-0.9-1-1.9-1.4-2.9c-0.5-1.1-1.1-2-1.7-3l0.1,0.1c0,0,0,0,0,0
			c-0.4-0.5-0.9-1.1-1.3-1.6c-0.5-0.5-0.9-1.1-1.4-1.6c-0.9-1.1-1.7-2.2-2.4-3.3c-0.8-1.4-1.5-2.8-1.7-4.2
			C203.3,59.4,203.5,57.8,203.9,56.2z"/>
		<path class="st6" d="M205.7,67.1c0.6,0.6,0.9,1.4,1.4,2.1c0.4,0.6,0.9,1.3,1.2,1.9l0-0.1c1.9,2.3,3.7,4.5,5.1,7.4
			c0.7,1.4,0.8,3,0.7,4.6c-0.1,1.6-0.6,3.1-1.4,4.4c-0.4-0.9-0.7-1.9-1.1-2.8c-0.3-1-0.8-2-1.2-2.9l0,0.1c0,0,0,0,0,0
			c-0.3-0.5-0.7-1.1-1-1.6c-0.4-0.5-0.8-1.1-1.1-1.6c-0.7-1.1-1.4-2.1-1.9-3.2c-0.6-1.4-1.1-2.7-1.2-4
			C204.9,70,205.2,68.6,205.7,67.1z"/>
	</g>
</g>
</a>
</svg>
