<svg xmlns="http://www.w3.org/2000/svg" xmlns:xlink="http://www.w3.org/1999/xlink" viewBox="0 0 450 259.5"><defs><clipPath id="a"><rect width="450" height="216" fill="none"/></clipPath><clipPath id="d"><rect x="-5.5" y="-6.4" width="461" height="228.8" fill="none"/></clipPath></defs><title>logoArtboard 1</title><g clip-path="url(#a)"><g clip-path="url(#a)"><rect width="450" height="216" fill="#ecf7fa"/><g clip-path="url(#a)"><g opacity="0.5"><g clip-path="url(#d)"><path d="M-4.25,207.06l14.79,8.72,14.79-8.72,14.79,8.72,14.79-8.72,14.78,8.72,14.79-8.72,14.79,8.72,14.79-8.72,14.79,8.72,14.79-8.72,14.79,8.72,14.78-8.72L188,215.78l14.79-8.72,14.79,8.72,14.79-8.72,14.78,8.72,14.8-8.72,14.78,8.72,14.79-8.72,14.79,8.72,14.79-8.72,14.79,8.72,14.8-8.72,14.79,8.72,14.79-8.72,14.79,8.72,14.8-8.72,14.79,8.72,14.8-8.72,14.8,8.72M-4.25,197l14.79,8.72L25.33,197l14.79,8.72L54.91,197l14.78,8.72L84.48,197l14.79,8.72L114.06,197l14.79,8.72L143.64,197l14.79,8.72L173.21,197,188,205.69,202.79,197l14.79,8.72L232.37,197l14.78,8.72L262,197l14.78,8.72L291.52,197l14.79,8.72L321.1,197l14.79,8.72,14.8-8.72,14.79,8.72L380.27,197l14.79,8.72,14.8-8.72,14.79,8.72,14.8-8.72,14.8,8.72M-4.25,212.1l14.79,8.72,14.79-8.72,14.79,8.72,14.79-8.72,14.78,8.72,14.79-8.72,14.79,8.72,14.79-8.72,14.79,8.72,14.79-8.72,14.79,8.72,14.78-8.72L188,220.82l14.79-8.72,14.79,8.72,14.79-8.72,14.78,8.72L262,212.1l14.78,8.72,14.79-8.72,14.79,8.72,14.79-8.72,14.79,8.72,14.8-8.72,14.79,8.72,14.79-8.72,14.79,8.72,14.8-8.72,14.79,8.72,14.8-8.72,14.8,8.72M-4.25,202l14.79,8.72L25.33,202l14.79,8.72L54.91,202l14.78,8.72L84.48,202l14.79,8.72L114.06,202l14.79,8.72L143.64,202l14.79,8.72L173.21,202,188,210.73,202.79,202l14.79,8.72L232.37,202l14.78,8.72L262,202l14.78,8.72L291.52,202l14.79,8.72L321.1,202l14.79,8.72,14.8-8.72,14.79,8.72L380.27,202l14.79,8.72,14.8-8.72,14.79,8.72,14.8-8.72,14.8,8.72M-4.25,186.88l14.79,8.72,14.79-8.72,14.79,8.72,14.79-8.72,14.78,8.72,14.79-8.72,14.79,8.72,14.79-8.72,14.79,8.72,14.79-8.72,14.79,8.72,14.78-8.72L188,195.6l14.79-8.72,14.79,8.72,14.79-8.72,14.78,8.72,14.8-8.72,14.78,8.72,14.79-8.72,14.79,8.72,14.79-8.72,14.79,8.72,14.8-8.72,14.79,8.72,14.79-8.72,14.79,8.72,14.8-8.72,14.79,8.72,14.8-8.72,14.8,8.72M-4.25,176.79l14.79,8.72,14.79-8.72,14.79,8.72,14.79-8.72,14.78,8.72,14.79-8.72,14.79,8.72,14.79-8.72,14.79,8.72,14.79-8.72,14.79,8.72,14.78-8.72L188,185.51l14.79-8.72,14.79,8.72,14.79-8.72,14.78,8.72,14.8-8.72,14.78,8.72,14.79-8.72,14.79,8.72,14.79-8.72,14.79,8.72,14.8-8.72,14.79,8.72,14.79-8.72,14.79,8.72,14.8-8.72,14.79,8.72,14.8-8.72,14.8,8.72M-4.25,166.7l14.79,8.72,14.79-8.72,14.79,8.72,14.79-8.72,14.78,8.72,14.79-8.72,14.79,8.72,14.79-8.72,14.79,8.72,14.79-8.72,14.79,8.72,14.78-8.72L188,175.42l14.79-8.72,14.79,8.72,14.79-8.72,14.78,8.72L262,166.7l14.78,8.72,14.79-8.72,14.79,8.72,14.79-8.72,14.79,8.72,14.8-8.72,14.79,8.72,14.79-8.72,14.79,8.72,14.8-8.72,14.79,8.72,14.8-8.72,14.8,8.72M-4.25,156.61l14.79,8.72,14.79-8.72,14.79,8.72,14.79-8.72,14.78,8.72,14.79-8.72,14.79,8.72,14.79-8.72,14.79,8.72,14.79-8.72,14.79,8.72,14.78-8.72L188,165.33l14.79-8.72,14.79,8.72,14.79-8.72,14.78,8.72,14.8-8.72,14.78,8.72,14.79-8.72,14.79,8.72,14.79-8.72,14.79,8.72,14.8-8.72,14.79,8.72,14.79-8.72,14.79,8.72,14.8-8.72,14.79,8.72,14.8-8.72,14.8,8.72M-4.25,191.92l14.79,8.72,14.79-8.72,14.79,8.72,14.79-8.72,14.78,8.72,14.79-8.72,14.79,8.72,14.79-8.72,14.79,8.72,14.79-8.72,14.79,8.72,14.78-8.72L188,200.64l14.79-8.72,14.79,8.72,14.79-8.72,14.78,8.72,14.8-8.72,14.78,8.72,14.79-8.72,14.79,8.72,14.79-8.72,14.79,8.72,14.8-8.72,14.79,8.72,14.79-8.72,14.79,8.72,14.8-8.72,14.79,8.72,14.8-8.72,14.8,8.72M-4.25,181.83l14.79,8.72,14.79-8.72,14.79,8.72,14.79-8.72,14.78,8.72,14.79-8.72,14.79,8.72,14.79-8.72,14.79,8.72,14.79-8.72,14.79,8.72,14.78-8.72L188,190.55l14.79-8.72,14.79,8.72,14.79-8.72,14.78,8.72,14.8-8.72,14.78,8.72,14.79-8.72,14.79,8.72,14.79-8.72,14.79,8.72,14.8-8.72,14.79,8.72,14.79-8.72,14.79,8.72,14.8-8.72,14.79,8.72,14.8-8.72,14.8,8.72M-4.25,171.74l14.79,8.72,14.79-8.72,14.79,8.72,14.79-8.72,14.78,8.72,14.79-8.72,14.79,8.72,14.79-8.72,14.79,8.72,14.79-8.72,14.79,8.72,14.78-8.72L188,180.46l14.79-8.72,14.79,8.72,14.79-8.72,14.78,8.72,14.8-8.72,14.78,8.72,14.79-8.72,14.79,8.72,14.79-8.72,14.79,8.72,14.8-8.72,14.79,8.72,14.79-8.72,14.79,8.72,14.8-8.72,14.79,8.72,14.8-8.72,14.8,8.72m-458.5-18.8,14.79,8.71,14.79-8.71,14.79,8.71,14.79-8.71,14.78,8.71,14.79-8.71,14.79,8.71,14.79-8.71,14.79,8.71,14.79-8.71,14.79,8.71,14.78-8.71L188,170.37l14.79-8.71,14.79,8.71,14.79-8.71,14.78,8.71,14.8-8.71,14.78,8.71,14.79-8.71,14.79,8.71,14.79-8.71,14.79,8.71,14.8-8.71,14.79,8.71,14.79-8.71,14.79,8.71,14.8-8.71,14.79,8.71,14.8-8.71,14.8,8.71M-4.25,146.52l14.79,8.72,14.79-8.72,14.79,8.72,14.79-8.72,14.78,8.72,14.79-8.72,14.79,8.72,14.79-8.72,14.79,8.72,14.79-8.72,14.79,8.72,14.78-8.72L188,155.24l14.79-8.72,14.79,8.72,14.79-8.72,14.78,8.72,14.8-8.72,14.78,8.72,14.79-8.72,14.79,8.72,14.79-8.72,14.79,8.72,14.8-8.72,14.79,8.72,14.79-8.72,14.79,8.72,14.8-8.72,14.79,8.72,14.8-8.72,14.8,8.72M-4.25,136.43l14.79,8.72,14.79-8.72,14.79,8.72,14.79-8.72,14.78,8.72,14.79-8.72,14.79,8.72,14.79-8.72,14.79,8.72,14.79-8.72,14.79,8.72,14.78-8.72L188,145.15l14.79-8.72,14.79,8.72,14.79-8.72,14.78,8.72,14.8-8.72,14.78,8.72,14.79-8.72,14.79,8.72,14.79-8.72,14.79,8.72,14.8-8.72,14.79,8.72,14.79-8.72,14.79,8.72,14.8-8.72,14.79,8.72,14.8-8.72,14.8,8.72M-4.25,126.34l14.79,8.72,14.79-8.72,14.79,8.72,14.79-8.72,14.78,8.72,14.79-8.72,14.79,8.72,14.79-8.72,14.79,8.72,14.79-8.72,14.79,8.72,14.78-8.72L188,135.06l14.79-8.72,14.79,8.72,14.79-8.72,14.78,8.72,14.8-8.72,14.78,8.72,14.79-8.72,14.79,8.72,14.79-8.72,14.79,8.72,14.8-8.72,14.79,8.72,14.79-8.72,14.79,8.72,14.8-8.72,14.79,8.72,14.8-8.72,14.8,8.72M-4.25,116.25,10.54,125l14.79-8.72L40.12,125l14.79-8.72L69.69,125l14.79-8.72L99.27,125l14.79-8.72L128.85,125l14.79-8.72L158.43,125l14.78-8.72L188,125l14.79-8.72L217.58,125l14.79-8.72L247.15,125l14.8-8.72L276.73,125l14.79-8.72L306.31,125l14.79-8.72L335.89,125l14.8-8.72L365.48,125l14.79-8.72L395.06,125l14.8-8.72L424.65,125l14.8-8.72,14.8,8.72m-458.5,26.6,14.79,8.71,14.79-8.71,14.79,8.71,14.79-8.71,14.78,8.71,14.79-8.71,14.79,8.71,14.79-8.71,14.79,8.71,14.79-8.71,14.79,8.71,14.78-8.71L188,160.28l14.79-8.71,14.79,8.71,14.79-8.71,14.78,8.71,14.8-8.71,14.78,8.71,14.79-8.71,14.79,8.71,14.79-8.71,14.79,8.71,14.8-8.71,14.79,8.71,14.79-8.71,14.79,8.71,14.8-8.71,14.79,8.71,14.8-8.71,14.8,8.71m-458.5-18.8,14.79,8.71,14.79-8.71,14.79,8.71,14.79-8.71,14.78,8.71,14.79-8.71,14.79,8.71,14.79-8.71,14.79,8.71,14.79-8.71,14.79,8.71,14.78-8.71L188,150.19l14.79-8.71,14.79,8.71,14.79-8.71,14.78,8.71,14.8-8.71,14.78,8.71,14.79-8.71,14.79,8.71,14.79-8.71,14.79,8.71,14.8-8.71,14.79,8.71,14.79-8.71,14.79,8.71,14.8-8.71,14.79,8.71,14.8-8.71,14.8,8.71m-458.5-18.8,14.79,8.71,14.79-8.71,14.79,8.71,14.79-8.71,14.78,8.71,14.79-8.71,14.79,8.71,14.79-8.71,14.79,8.71,14.79-8.71,14.79,8.71,14.78-8.71L188,140.1l14.79-8.71,14.79,8.71,14.79-8.71,14.78,8.71,14.8-8.71,14.78,8.71,14.79-8.71,14.79,8.71,14.79-8.71,14.79,8.71,14.8-8.71,14.79,8.71,14.79-8.71,14.79,8.71,14.8-8.71,14.79,8.71,14.8-8.71,14.8,8.71M-4.25,121.3,10.54,130l14.79-8.72L40.12,130l14.79-8.72L69.69,130l14.79-8.72L99.27,130l14.79-8.72L128.85,130l14.79-8.72L158.43,130l14.78-8.72L188,130l14.79-8.72L217.58,130l14.79-8.72L247.15,130,262,121.3,276.73,130l14.79-8.72L306.31,130l14.79-8.72L335.89,130l14.8-8.72L365.48,130l14.79-8.72L395.06,130l14.8-8.72L424.65,130l14.8-8.72,14.8,8.72M-4.25,106.16l14.79,8.72,14.79-8.72,14.79,8.72,14.79-8.72,14.78,8.72,14.79-8.72,14.79,8.72,14.79-8.72,14.79,8.72,14.79-8.72,14.79,8.72,14.78-8.72L188,114.88l14.79-8.72,14.79,8.72,14.79-8.72,14.78,8.72,14.8-8.72,14.78,8.72,14.79-8.72,14.79,8.72,14.79-8.72,14.79,8.72,14.8-8.72,14.79,8.72,14.79-8.72,14.79,8.72,14.8-8.72,14.79,8.72,14.8-8.72,14.8,8.72M-4.25,96.07l14.79,8.72,14.79-8.72,14.79,8.72,14.79-8.72,14.78,8.72,14.79-8.72,14.79,8.72,14.79-8.72,14.79,8.72,14.79-8.72,14.79,8.72,14.78-8.72L188,104.79l14.79-8.72,14.79,8.72,14.79-8.72,14.78,8.72L262,96.07l14.78,8.72,14.79-8.72,14.79,8.72,14.79-8.72,14.79,8.72,14.8-8.72,14.79,8.72,14.79-8.72,14.79,8.72,14.8-8.72,14.79,8.72,14.8-8.72,14.8,8.72M-4.25,86,10.54,94.7,25.33,86,40.12,94.7,54.91,86,69.69,94.7,84.48,86,99.27,94.7,114.06,86l14.79,8.71L143.64,86l14.79,8.71L173.21,86,188,94.7,202.79,86l14.79,8.71L232.37,86l14.78,8.71L262,86l14.78,8.71L291.52,86l14.79,8.71L321.1,86l14.79,8.71L350.69,86l14.79,8.71L380.27,86l14.79,8.71L409.86,86l14.79,8.71L439.45,86l14.8,8.71M-4.25,75.9l14.79,8.71L25.33,75.9l14.79,8.71L54.91,75.9l14.78,8.71L84.48,75.9l14.79,8.71,14.79-8.71,14.79,8.71,14.79-8.71,14.79,8.71,14.78-8.71L188,84.61l14.79-8.71,14.79,8.71,14.79-8.71,14.78,8.71L262,75.9l14.78,8.71,14.79-8.71,14.79,8.71L321.1,75.9l14.79,8.71,14.8-8.71,14.79,8.71,14.79-8.71,14.79,8.71,14.8-8.71,14.79,8.71,14.8-8.71,14.8,8.71m-458.5,26.6,14.79,8.72,14.79-8.72,14.79,8.72,14.79-8.72,14.78,8.72,14.79-8.72,14.79,8.72,14.79-8.72,14.79,8.72,14.79-8.72,14.79,8.72,14.78-8.72L188,119.93l14.79-8.72,14.79,8.72,14.79-8.72,14.78,8.72,14.8-8.72,14.78,8.72,14.79-8.72,14.79,8.72,14.79-8.72,14.79,8.72,14.8-8.72,14.79,8.72,14.79-8.72,14.79,8.72,14.8-8.72,14.79,8.72,14.8-8.72,14.8,8.72M-4.25,101.12l14.79,8.72,14.79-8.72,14.79,8.72,14.79-8.72,14.78,8.72,14.79-8.72,14.79,8.72,14.79-8.72,14.79,8.72,14.79-8.72,14.79,8.72,14.78-8.72L188,109.84l14.79-8.72,14.79,8.72,14.79-8.72,14.78,8.72,14.8-8.72,14.78,8.72,14.79-8.72,14.79,8.72,14.79-8.72,14.79,8.72,14.8-8.72,14.79,8.72,14.79-8.72,14.79,8.72,14.8-8.72,14.79,8.72,14.8-8.72,14.8,8.72M-4.25,91l14.79,8.72L25.33,91l14.79,8.72L54.91,91l14.78,8.72L84.48,91l14.79,8.72L114.06,91l14.79,8.72L143.64,91l14.79,8.72L173.21,91,188,99.75,202.79,91l14.79,8.72L232.37,91l14.78,8.72L262,91l14.78,8.72L291.52,91l14.79,8.72L321.1,91l14.79,8.72L350.69,91l14.79,8.72L380.27,91l14.79,8.72L409.86,91l14.79,8.72L439.45,91l14.8,8.72M-4.25,80.94l14.79,8.72,14.79-8.72,14.79,8.72,14.79-8.72,14.78,8.72,14.79-8.72,14.79,8.72,14.79-8.72,14.79,8.72,14.79-8.72,14.79,8.72,14.78-8.72L188,89.66l14.79-8.72,14.79,8.72,14.79-8.72,14.78,8.72L262,80.94l14.78,8.72,14.79-8.72,14.79,8.72,14.79-8.72,14.79,8.72,14.8-8.72,14.79,8.72,14.79-8.72,14.79,8.72,14.8-8.72,14.79,8.72,14.8-8.72,14.8,8.72M-4.25,65.81l14.79,8.71,14.79-8.71,14.79,8.71,14.79-8.71,14.78,8.71,14.79-8.71,14.79,8.71,14.79-8.71,14.79,8.71,14.79-8.71,14.79,8.71,14.78-8.71L188,74.52l14.79-8.71,14.79,8.71,14.79-8.71,14.78,8.71L262,65.81l14.78,8.71,14.79-8.71,14.79,8.71,14.79-8.71,14.79,8.71,14.8-8.71,14.79,8.71,14.79-8.71,14.79,8.71,14.8-8.71,14.79,8.71,14.8-8.71,14.8,8.71M-4.25,55.72l14.79,8.71,14.79-8.71,14.79,8.71,14.79-8.71,14.78,8.71,14.79-8.71,14.79,8.71,14.79-8.71,14.79,8.71,14.79-8.71,14.79,8.71,14.78-8.71L188,64.43l14.79-8.71,14.79,8.71,14.79-8.71,14.78,8.71L262,55.72l14.78,8.71,14.79-8.71,14.79,8.71,14.79-8.71,14.79,8.71,14.8-8.71,14.79,8.71,14.79-8.71,14.79,8.71,14.8-8.71,14.79,8.71,14.8-8.71,14.8,8.71M-4.25,45.63l14.79,8.71,14.79-8.71,14.79,8.71,14.79-8.71,14.78,8.71,14.79-8.71,14.79,8.71,14.79-8.71,14.79,8.71,14.79-8.71,14.79,8.71,14.78-8.71L188,54.34l14.79-8.71,14.79,8.71,14.79-8.71,14.78,8.71L262,45.63l14.78,8.71,14.79-8.71,14.79,8.71,14.79-8.71,14.79,8.71,14.8-8.71,14.79,8.71,14.79-8.71,14.79,8.71,14.8-8.71,14.79,8.71,14.8-8.71,14.8,8.71M-4.25,35.54l14.79,8.72,14.79-8.72,14.79,8.72,14.79-8.72,14.78,8.72,14.79-8.72,14.79,8.72,14.79-8.72,14.79,8.72,14.79-8.72,14.79,8.72,14.78-8.72L188,44.26l14.79-8.72,14.79,8.72,14.79-8.72,14.78,8.72L262,35.54l14.78,8.72,14.79-8.72,14.79,8.72,14.79-8.72,14.79,8.72,14.8-8.72,14.79,8.72,14.79-8.72,14.79,8.72,14.8-8.72,14.79,8.72,14.8-8.72,14.8,8.72M-4.25,70.85l14.79,8.72,14.79-8.72,14.79,8.72,14.79-8.72,14.78,8.72,14.79-8.72,14.79,8.72,14.79-8.72,14.79,8.72,14.79-8.72,14.79,8.72,14.78-8.72L188,79.57l14.79-8.72,14.79,8.72,14.79-8.72,14.78,8.72L262,70.85l14.78,8.72,14.79-8.72,14.79,8.72,14.79-8.72,14.79,8.72,14.8-8.72,14.79,8.72,14.79-8.72,14.79,8.72,14.8-8.72,14.79,8.72,14.8-8.72,14.8,8.72M-4.25,60.76l14.79,8.72,14.79-8.72,14.79,8.72,14.79-8.72,14.78,8.72,14.79-8.72,14.79,8.72,14.79-8.72,14.79,8.72,14.79-8.72,14.79,8.72,14.78-8.72L188,69.48l14.79-8.72,14.79,8.72,14.79-8.72,14.78,8.72L262,60.76l14.78,8.72,14.79-8.72,14.79,8.72,14.79-8.72,14.79,8.72,14.8-8.72,14.79,8.72,14.79-8.72,14.79,8.72,14.8-8.72,14.79,8.72,14.8-8.72,14.8,8.72M-4.25,50.67l14.79,8.72,14.79-8.72,14.79,8.72,14.79-8.72,14.78,8.72,14.79-8.72,14.79,8.72,14.79-8.72,14.79,8.72,14.79-8.72,14.79,8.72,14.78-8.72L188,59.39l14.79-8.72,14.79,8.72,14.79-8.72,14.78,8.72L262,50.67l14.78,8.72,14.79-8.72,14.79,8.72,14.79-8.72,14.79,8.72,14.8-8.72,14.79,8.72,14.79-8.72,14.79,8.72,14.8-8.72,14.79,8.72,14.8-8.72,14.8,8.72M-4.25,40.58,10.54,49.3l14.79-8.72L40.12,49.3l14.79-8.72L69.69,49.3l14.79-8.72L99.27,49.3l14.79-8.72,14.79,8.72,14.79-8.72,14.79,8.72,14.78-8.72L188,49.3l14.79-8.72,14.79,8.72,14.79-8.72,14.78,8.72L262,40.58l14.78,8.72,14.79-8.72,14.79,8.72,14.79-8.72,14.79,8.72,14.8-8.72,14.79,8.72,14.79-8.72,14.79,8.72,14.8-8.72,14.79,8.72,14.8-8.72,14.8,8.72M-4.25,25.45l14.79,8.72,14.79-8.72,14.79,8.72,14.79-8.72,14.78,8.72,14.79-8.72,14.79,8.72,14.79-8.72,14.79,8.72,14.79-8.72,14.79,8.72,14.78-8.72L188,34.17l14.79-8.72,14.79,8.72,14.79-8.72,14.78,8.72L262,25.45l14.78,8.72,14.79-8.72,14.79,8.72,14.79-8.72,14.79,8.72,14.8-8.72,14.79,8.72,14.79-8.72,14.79,8.72,14.8-8.72,14.79,8.72,14.8-8.72,14.8,8.72M-4.25,30.49l14.79,8.72,14.79-8.72,14.79,8.72,14.79-8.72,14.78,8.72,14.79-8.72,14.79,8.72,14.79-8.72,14.79,8.72,14.79-8.72,14.79,8.72,14.78-8.72L188,39.21l14.79-8.72,14.79,8.72,14.79-8.72,14.78,8.72L262,30.49l14.78,8.72,14.79-8.72,14.79,8.72,14.79-8.72,14.79,8.72,14.8-8.72,14.79,8.72,14.79-8.72,14.79,8.72,14.8-8.72,14.79,8.72,14.8-8.72,14.8,8.72M-4.25,15.36l14.79,8.72,14.79-8.72,14.79,8.72,14.79-8.72,14.78,8.72,14.79-8.72,14.79,8.72,14.79-8.72,14.79,8.72,14.79-8.72,14.79,8.72,14.78-8.72L188,24.08l14.79-8.72,14.79,8.72,14.79-8.72,14.78,8.72L262,15.36l14.78,8.72,14.79-8.72,14.79,8.72,14.79-8.72,14.79,8.72,14.8-8.72,14.79,8.72,14.79-8.72,14.79,8.72,14.8-8.72,14.79,8.72,14.8-8.72,14.8,8.72M-4.25,20.4l14.79,8.72L25.33,20.4l14.79,8.72L54.91,20.4l14.78,8.72L84.48,20.4l14.79,8.72,14.79-8.72,14.79,8.72,14.79-8.72,14.79,8.72,14.78-8.72L188,29.12l14.79-8.72,14.79,8.72,14.79-8.72,14.78,8.72L262,20.4l14.78,8.72,14.79-8.72,14.79,8.72L321.1,20.4l14.79,8.72,14.8-8.72,14.79,8.72,14.79-8.72,14.79,8.72,14.8-8.72,14.79,8.72,14.8-8.72,14.8,8.72M-4.25,5.27,10.54,14,25.33,5.27,40.12,14,54.91,5.27,69.69,14,84.48,5.27,99.27,14l14.79-8.72L128.85,14l14.79-8.72L158.43,14l14.78-8.72L188,14l14.79-8.72L217.58,14l14.79-8.72L247.15,14,262,5.27,276.73,14l14.79-8.72L306.31,14,321.1,5.27,335.89,14l14.8-8.72L365.48,14l14.79-8.72L395.06,14l14.8-8.72L424.65,14l14.8-8.72L454.25,14M-4.25,10.31,10.54,19l14.79-8.72L40.12,19l14.79-8.72L69.69,19l14.79-8.72L99.27,19l14.79-8.72L128.85,19l14.79-8.72L158.43,19l14.78-8.72L188,19l14.79-8.72L217.58,19l14.79-8.72L247.15,19,262,10.31,276.73,19l14.79-8.72L306.31,19l14.79-8.72L335.89,19l14.8-8.72L365.48,19l14.79-8.72L395.06,19l14.8-8.72L424.65,19l14.8-8.72L454.25,19M-4.25-4.82,10.54,3.9,25.33-4.82,40.12,3.9,54.91-4.82,69.69,3.9,84.48-4.82,99.27,3.9l14.79-8.72L128.85,3.9l14.79-8.72L158.43,3.9l14.78-8.72L188,3.9l14.79-8.72L217.58,3.9l14.79-8.72L247.15,3.9,262-4.82,276.73,3.9l14.79-8.72L306.31,3.9,321.1-4.82,335.89,3.9l14.8-8.72L365.48,3.9l14.79-8.72L395.06,3.9l14.8-8.72L424.65,3.9l14.8-8.72,14.8,8.72M-4.25.23,10.54,8.94,25.33.23,40.12,8.94,54.91.23,69.69,8.94,84.48.23,99.27,8.94,114.06.23l14.79,8.71L143.64.23l14.79,8.71L173.21.23,188,8.94,202.79.23l14.79,8.71L232.37.23l14.78,8.71L262,.23l14.78,8.71L291.52.23l14.79,8.71L321.1.23l14.79,8.71L350.69.23l14.79,8.71L380.27.23l14.79,8.71L409.86.23l14.79,8.71L439.45.23l14.8,8.71" fill="none" stroke="#cbe5ec"/></g></g></g><rect x="14" y="14" width="422" height="188" fill="none" stroke="#231f20" stroke-width="3"/><path d="M139.65,34.65c0,.8.09,3.33-2.34,3.33a3.3,3.3,0,0,1-1.46-.3V35.74a1.35,1.35,0,0,0,1,.55c.91,0,.84-1,.84-1.64V28h1.94Z" fill="#231f20"/><path d="M147.5,32.92c0,3.68-1.71,5.06-3.44,5.06s-3.45-1.38-3.45-5.06,1.72-5.06,3.45-5.06S147.5,29.24,147.5,32.92Zm-3.44,3.26c1.28,0,1.38-2.48,1.38-3.26s-.1-3.26-1.38-3.26-1.38,2.39-1.38,3.26S142.77,36.18,144.06,36.18Z" fill="#231f20"/><path d="M150.47,28v3.83h2V28h1.94v9.8h-1.94V33.67h-2v4.15h-1.94V28Z" fill="#231f20"/><path d="M157.6,28,160,33.93l0,0a6.05,6.05,0,0,1-.16-1.48V28h1.94v9.8H160l-2.4-5.91,0,0,.09,1v4.9h-1.94V28Z" fill="#231f20"/><path d="M166.38,37.82V28h1.47c.34,0,4.39-.5,4.39,5,0,2.79-1.08,4.82-4.13,4.82ZM170.3,33c0-1.24-.39-3.22-2-3.22v6.32C169.88,36.16,170.3,34.21,170.3,33Z" fill="#231f20"/><path d="M179.81,32.92c0,3.68-1.72,5.06-3.45,5.06s-3.44-1.38-3.44-5.06,1.71-5.06,3.44-5.06S179.81,29.24,179.81,32.92Zm-3.45,3.26c1.29,0,1.38-2.48,1.38-3.26s-.09-3.26-1.38-3.26S175,32.05,175,32.92,175.08,36.18,176.36,36.18Z" fill="#231f20"/><path d="M184.73,28v1.82h-2V32h1.73v1.82h-1.73V36h2v1.82h-3.93V28Z" fill="#231f20"/><path d="M124.81,42.53l.39-.7h1.49v6.79h-.76V42.53Z" fill="#231f20"/><path d="M133.69,47.92v.7H129.3l3.18-3.75a1.78,1.78,0,0,0,.46-1.14,1.36,1.36,0,0,0-2.72.08h-.76a2.12,2.12,0,0,1,4.23-.09,2.09,2.09,0,0,1-.51,1.43l-2.35,2.77Z" fill="#231f20"/><path d="M136.91,44.7c.72,0,1.34-.24,1.34-1.09a1.12,1.12,0,0,0-1.18-1.19A1.08,1.08,0,0,0,136,43.51h-.75a1.91,1.91,0,0,1,3.81.06,1.68,1.68,0,0,1-.87,1.49,1.76,1.76,0,0,1,1,1.66,2,2,0,0,1-2.11,2,1.91,1.91,0,0,1-2-1.88h.74A1.26,1.26,0,0,0,137,48a1.33,1.33,0,0,0,1.32-1.36,1.23,1.23,0,0,0-1.44-1.27Z" fill="#231f20"/><path d="M144.36,41.45l2.46,5.69,2.48-5.69,1.38,7.17h-.78L149,44h0l-2.19,4.87L144.64,44h0l-.88,4.59H143Z" fill="#231f20"/><path d="M152.56,46.69l-.82,1.93h-.83L154,41.51l3.05,7.11h-.84l-.8-1.93ZM154,43.27,152.86,46h2.3Z" fill="#231f20"/><path d="M158.6,48.62h-.75V41.83h.75Z" fill="#231f20"/><path d="M160,41.54l5.3,5.55V41.83h.75v7.1l-5.29-5.54v5.23H160Z" fill="#231f20"/><path d="M173.34,43.16a1.25,1.25,0,0,0-1.17-.74,1.08,1.08,0,0,0-1.13,1c0,.59.6.86,1.06,1.06l.45.2c.89.39,1.63.83,1.63,1.91a2.14,2.14,0,0,1-4.25.34l.74-.21A1.4,1.4,0,0,0,172,48a1.37,1.37,0,0,0,1.4-1.33c0-.79-.62-1.06-1.25-1.35l-.42-.18c-.79-.36-1.47-.76-1.47-1.74a1.77,1.77,0,0,1,1.89-1.72,1.94,1.94,0,0,1,1.76,1.05Z" fill="#231f20"/><path d="M177.09,48.62h-.76V42.53h-1.64v-.7h4.06v.7h-1.66Z" fill="#231f20"/><path d="M180.27,48.62h-.75V41.83h1c1.29,0,2.48.34,2.48,1.88a1.77,1.77,0,0,1-1.7,1.87l2.16,3h-.92l-2.06-3h-.19Zm0-3.65h.24c.85,0,1.72-.16,1.72-1.21s-.82-1.23-1.73-1.23h-.23Z" fill="#231f20"/><path d="M184.4,41.83h3.52v.7h-2.77v2h2.69v.7h-2.69v2.67h2.77v.7H184.4Z" fill="#231f20"/><path d="M189.2,41.83h3.52v.7H190v2h2.68v.7H190v2.67h2.76v.7H189.2Z" fill="#231f20"/><path d="M195.81,48.62h-.76V42.53h-1.64v-.7h4.06v.7h-1.66Z" fill="#231f20"/><path d="M111.19,57.49l-.82,1.93h-.83l3.13-7.11,3,7.11h-.83l-.8-1.93Zm1.46-3.42-1.16,2.72h2.3Z" fill="#231f20"/><path d="M116.51,52.34l5.29,5.55V52.63h.76v7.1l-5.3-5.54v5.23h-.75Z" fill="#231f20"/><path d="M123.35,52.63h.88l1.73,3,1.72-3h.88l-2.23,3.87v2.92h-.75V56.5Z" fill="#231f20"/><path d="M131.1,59.42h-.75V53.33h-1.64v-.7h4v.7H131.1Z" fill="#231f20"/><path d="M140.27,56a3.54,3.54,0,1,1-3.54-3.52A3.52,3.52,0,0,1,140.27,56ZM134,56a2.78,2.78,0,1,0,2.78-2.81A2.81,2.81,0,0,0,134,56Z" fill="#231f20"/><path d="M143.33,57.72l2.19-5.44,2.2,5.44,1.78-5.09h.82l-2.6,7.14-2.2-5.46-2.19,5.46-2.61-7.14h.82Z" fill="#231f20"/><path d="M151.15,52.34l5.3,5.55V52.63h.75v7.1l-5.29-5.54v5.23h-.76Z" fill="#231f20"/><path d="M160,58.66l-1,2.31-.49-.2.84-2.34Z" fill="#231f20"/><path d="M164.9,56.68a2.47,2.47,0,0,0,.3,1.51,1.75,1.75,0,0,0,1.36.65,1.81,1.81,0,0,0,1.34-.61,2.31,2.31,0,0,0,.33-1.55v-4H169v4.25a2.38,2.38,0,0,1-.6,1.88,2.48,2.48,0,0,1-1.83.78,2.53,2.53,0,0,1-1.75-.7,2.36,2.36,0,0,1-.67-2V52.63h.76Z" fill="#231f20"/><path d="M173.4,54a1.24,1.24,0,0,0-1.17-.74,1.07,1.07,0,0,0-1.12,1.05c0,.59.6.86,1.06,1.06l.45.2c.88.39,1.63.83,1.63,1.91a2.14,2.14,0,0,1-4.25.34l.74-.2a1.4,1.4,0,0,0,1.36,1.26,1.36,1.36,0,0,0,1.39-1.33c0-.79-.62-1.06-1.25-1.35l-.41-.18c-.79-.36-1.48-.76-1.48-1.74a1.78,1.78,0,0,1,1.9-1.72,1.94,1.94,0,0,1,1.76,1Z" fill="#231f20"/><path d="M176.37,57.49l-.82,1.93h-.82l3.13-7.11,3,7.11h-.84l-.8-1.93Zm1.47-3.42-1.16,2.72H179Z" fill="#231f20"/><path d="M185.16,53.33l.39-.7H187v6.79h-.76V53.33Z" fill="#231f20"/><path d="M194,58.72v.7h-4.39l3.18-3.75a1.78,1.78,0,0,0,.46-1.14,1.36,1.36,0,0,0-2.72.08h-.76a2.07,2.07,0,0,1,2.1-2.09,2,2,0,0,1,2.13,2,2.14,2.14,0,0,1-.51,1.44l-2.35,2.76Z" fill="#231f20"/><path d="M197.26,55.5c.72,0,1.34-.24,1.34-1.09a1.12,1.12,0,0,0-1.18-1.19,1.08,1.08,0,0,0-1.12,1.09h-.75a1.91,1.91,0,0,1,3.81.06,1.68,1.68,0,0,1-.87,1.49,1.76,1.76,0,0,1,1,1.66,2,2,0,0,1-2.11,2,1.9,1.9,0,0,1-2-1.88h.73a1.28,1.28,0,0,0,1.31,1.18,1.33,1.33,0,0,0,1.32-1.36,1.23,1.23,0,0,0-1.44-1.27Z" fill="#231f20"/><path d="M205.49,57.62v.7h-.84v1.1h-.75v-1.1h-3.48l4.21-6.07h0v5.37Zm-1.59-3.07h0l-2.14,3.07h2.16Z" fill="#231f20"/><path d="M208.45,53.33,208,54.78l.4,0a2.25,2.25,0,0,1,2.26,2.37,2.41,2.41,0,0,1-2.49,2.42,2.35,2.35,0,0,1-2.08-1.22l.6-.43a1.76,1.76,0,0,0,1.51,1,1.67,1.67,0,0,0,1.71-1.74,1.63,1.63,0,0,0-1.7-1.65,2.36,2.36,0,0,0-1.28.43l1-3.25h2.7v.7Z" fill="#231f20"/><path d="M75.86,132.41,75,134.55H74l3.48-7.9,3.39,7.9H80l-.89-2.14Zm1.63-3.8-1.29,3h2.55Z" fill="#231f20"/><path d="M82.52,130.42h0a1.58,1.58,0,0,1,1.34-.7c1.3,0,1.6.94,1.6,2v2.79h-.8V131.9c0-.76-.06-1.44-1-1.44-1.1,0-1.17,1-1.17,1.86v2.23h-.8v-4.7h.8Z" fill="#231f20"/><path d="M86.22,129.85h.93l1.66,3.37,1.52-3.37h.91l-3.47,7.34h-.91l1.52-3.08Z" fill="#231f20"/><path d="M91.94,126.3h.8v4.22h0a2,2,0,0,1,1.61-.8,2.49,2.49,0,0,1,0,5,2,2,0,0,1-1.62-.78h0v.65h-.8Zm.76,5.85a1.62,1.62,0,0,0,1.54,1.79,1.6,1.6,0,0,0,1.57-1.78,1.57,1.57,0,0,0-1.58-1.7A1.59,1.59,0,0,0,92.7,132.15Z" fill="#231f20"/><path d="M102,134.55h-.8v-.65h0a2,2,0,0,1-1.62.78,2.49,2.49,0,0,1,0-5,2,2,0,0,1,1.61.8h0v-.67h.8Zm-3.87-2.4a1.62,1.62,0,0,0,1.54,1.79,1.6,1.6,0,0,0,1.57-1.78,1.57,1.57,0,0,0-1.58-1.7A1.59,1.59,0,0,0,98.17,132.15Z" fill="#231f20"/><path d="M104.32,130.42h0a1.58,1.58,0,0,1,1.34-.7c1.3,0,1.6.94,1.6,2v2.79h-.8V131.9c0-.76-.06-1.44-1-1.44-1.1,0-1.17,1-1.17,1.86v2.23h-.8v-4.7h.8Z" fill="#231f20"/><path d="M109.56,131.59l1.71-1.74h1.07l-2,2,2.39,2.7h-1.06l-1.89-2.14-.21.21v1.93h-.8V126.3h.8Z" fill="#231f20"/><path d="M117.4,131.5a2.79,2.79,0,0,0,.33,1.68,1.94,1.94,0,0,0,1.52.72,2,2,0,0,0,1.48-.67,2.6,2.6,0,0,0,.37-1.73V127h.84v4.72a2.65,2.65,0,0,1-.66,2.09,2.77,2.77,0,0,1-2,.86,2.82,2.82,0,0,1-2-.77,2.66,2.66,0,0,1-.74-2.18V127h.84Z" fill="#231f20"/><path d="M126.85,128.48a1.38,1.38,0,0,0-1.3-.82,1.2,1.2,0,0,0-1.25,1.17c0,.65.67.95,1.18,1.18l.5.22c1,.43,1.81.92,1.81,2.12a2.38,2.38,0,0,1-4.72.38l.82-.23a1.55,1.55,0,0,0,1.51,1.4,1.52,1.52,0,0,0,1.55-1.47c0-.88-.69-1.18-1.39-1.5l-.46-.2c-.88-.4-1.64-.85-1.64-1.93a2,2,0,0,1,2.11-1.92,2.16,2.16,0,0,1,2,1.17Z" fill="#231f20"/><path d="M130.15,132.41l-.91,2.14h-.92l3.48-7.9,3.39,7.9h-.93l-.89-2.14Zm1.63-3.8-1.29,3H133Z" fill="#231f20"/><path d="M74.63,144.41l-.91,2.14H72.8l3.48-7.9,3.39,7.9h-.93l-.89-2.14Zm1.63-3.8-1.29,3h2.55Z" fill="#231f20"/><path d="M81.29,142.42h0a1.58,1.58,0,0,1,1.34-.7c1.3,0,1.6.94,1.6,2v2.79h-.8V143.9c0-.76-.06-1.44-1-1.44-1.1,0-1.17,1-1.17,1.86v2.23h-.8v-4.7h.8Z" fill="#231f20"/><path d="M85,141.85h.93l1.66,3.37,1.52-3.37H90l-3.47,7.34h-.91l1.52-3.08Z" fill="#231f20"/><path d="M91.59,146.55h-.8v-4H90.3v-.74h.49v-1.69h.8v1.69h.84v.74h-.84Z" fill="#231f20"/><path d="M92.73,144.21a2.47,2.47,0,1,1,2.47,2.47A2.47,2.47,0,0,1,92.73,144.21Zm.8,0a1.67,1.67,0,1,0,1.67-1.74A1.66,1.66,0,0,0,93.53,144.2Z" fill="#231f20"/><path d="M100.34,145l1.46-3.54,1.47,3.54,1.4-3.18h.91l-2.33,5-1.45-3.5-1.45,3.5-2.31-5H99Z" fill="#231f20"/><path d="M107.17,142.42h0a1.58,1.58,0,0,1,1.34-.7c1.3,0,1.6.94,1.6,2v2.79h-.8V143.9c0-.76-.06-1.44-1-1.44-1.1,0-1.17,1-1.17,1.86v2.23h-.8v-4.7h.8Z" fill="#231f20"/><path d="M113.14,145.71,112,148.27l-.54-.22.93-2.6Z" fill="#231f20"/><path d="M118.63,143.5a2.79,2.79,0,0,0,.33,1.68,1.94,1.94,0,0,0,1.52.72,2,2,0,0,0,1.48-.67,2.6,2.6,0,0,0,.37-1.73V139h.84v4.72a2.65,2.65,0,0,1-.66,2.09,2.77,2.77,0,0,1-2,.86,2.82,2.82,0,0,1-2-.77,2.66,2.66,0,0,1-.74-2.18V139h.84Z" fill="#231f20"/><path d="M128.08,140.48a1.38,1.38,0,0,0-1.3-.82,1.2,1.2,0,0,0-1.25,1.17c0,.65.67.95,1.18,1.18l.5.22c1,.43,1.81.92,1.81,2.12a2.38,2.38,0,0,1-4.72.38l.82-.23a1.55,1.55,0,0,0,1.51,1.4,1.52,1.52,0,0,0,1.55-1.47c0-.88-.69-1.18-1.39-1.5l-.46-.2c-.88-.4-1.64-.85-1.64-1.93a2,2,0,0,1,2.11-1.92,2.16,2.16,0,0,1,2,1.17Z" fill="#231f20"/><path d="M131.38,144.41l-.91,2.14h-.92l3.48-7.9,3.39,7.9h-.93l-.89-2.14Zm1.63-3.8-1.29,3h2.55Z" fill="#231f20"/><path d="M25.5,187.24a1.29,1.29,0,0,1-2.58,0,1.29,1.29,0,0,1,2.58,0Zm0,3.71a1.29,1.29,0,1,1-1.29-1.29A1.29,1.29,0,0,1,25.5,191Z" fill="#231f20"/><path d="M27.86,185.55v-1.83h3.35V192H29.05v-6.47Z" fill="#231f20"/><path d="M40.67,190.19V192H34l3.39-3.69a3.21,3.21,0,0,0,.94-2,1,1,0,0,0-.94-1.08.9.9,0,0,0-.9,1,2.16,2.16,0,0,0,0,.35H34.14a3.07,3.07,0,0,1,3.24-3.19,3,3,0,0,1,3.2,3A3.31,3.31,0,0,1,39.24,189L38,190.19Z" fill="#231f20"/><path d="M42,186.11a3,3,0,0,1,1-2,3.14,3.14,0,0,1,2.12-.72,2.4,2.4,0,0,1,2.65,2.41,1.93,1.93,0,0,1-.87,1.71,2.12,2.12,0,0,1,1.35,2.09c0,1.81-1.57,2.75-3.22,2.75a3.29,3.29,0,0,1-2.48-.94,3.19,3.19,0,0,1-.94-2.09h2.2a1.13,1.13,0,0,0,1.15,1.18,1.09,1.09,0,0,0,1.16-1.11,1.14,1.14,0,0,0-1.15-1.11,1.51,1.51,0,0,0-.37.06V186.9h.22a.87.87,0,0,0,.94-.91.8.8,0,0,0-.84-.84.87.87,0,0,0-.88,1Z" fill="#231f20"/><path d="M55.93,188.65v1.65h-1V192h-2V190.3h-4v-1.37l3.2-5.21h2.83v4.93Zm-3-3.19h0L51,188.65h2Z" fill="#231f20"/><path d="M59.62,185.55l-.14.95.68-.06a2.79,2.79,0,0,1,2.93,3A2.91,2.91,0,0,1,62,191.66a4,4,0,0,1-2.42.69,5,5,0,0,1-2.71-.75l.32-2a3.52,3.52,0,0,0,2.31,1,1.27,1.27,0,0,0,1.32-1.22c0-1-1-1.42-1.82-1.42a3.74,3.74,0,0,0-1.58.34l.73-4.5h4.31v1.83Z" fill="#231f20"/><path d="M69.66,183.72l-2.35,2.81,0,0a2.69,2.69,0,0,1,3.82,2.66c0,2-1.68,3.14-3.57,3.14a3.88,3.88,0,0,1-2.36-.72,3.08,3.08,0,0,1-1.12-2.27,5.65,5.65,0,0,1,1.34-3.3l1.78-2.34Zm-.76,5.56a1.32,1.32,0,0,0-1.33-1.35,1.36,1.36,0,1,0,0,2.72A1.33,1.33,0,0,0,68.9,189.28Z" fill="#231f20"/><path d="M72.18,185.55v-1.83H79L74.23,192H71.86l3.78-6.47Z" fill="#231f20"/><path d="M85.54,185.76a2,2,0,0,1-1.3,1.88v0a2.23,2.23,0,0,1,1.65,2.18c0,1.72-1.74,2.51-3.17,2.51s-3.17-.79-3.17-2.51a2.23,2.23,0,0,1,1.65-2.18v0a2,2,0,0,1-1.31-1.88c0-1.59,1.41-2.37,2.83-2.37S85.54,184.17,85.54,185.76Zm-3.81,3.81a1,1,0,1,0,2,0,1,1,0,1,0-2,0Zm.07-3.74a.92.92,0,1,0,.92-.94A.93.93,0,0,0,81.8,185.83Z" fill="#231f20"/><path d="M88.23,192l2.36-2.8,0,0a2.63,2.63,0,0,1-1.16.26,2.76,2.76,0,0,1-2.67-2.93c0-2,1.68-3.14,3.57-3.14a3.83,3.83,0,0,1,2.36.72,3,3,0,0,1,1.11,2.29,5.69,5.69,0,0,1-1.33,3.3L90.68,192Zm.76-5.56a1.33,1.33,0,0,0,1.33,1.37,1.37,1.37,0,1,0,0-2.73A1.32,1.32,0,0,0,89,186.46Z" fill="#231f20"/><path d="M126.89,185.55v-1.83h3.35V192h-2.16v-6.47Z" fill="#231f20"/><path d="M139.7,190.19V192H133l3.39-3.69a3.21,3.21,0,0,0,.94-2,1,1,0,0,0-.94-1.08.9.9,0,0,0-.9,1,2.16,2.16,0,0,0,0,.35h-2.38a3.07,3.07,0,0,1,3.24-3.19,3,3,0,0,1,3.2,3,3.31,3.31,0,0,1-1.34,2.65l-1.29,1.2Z" fill="#231f20"/><path d="M141,186.11a3,3,0,0,1,1-2,3.14,3.14,0,0,1,2.12-.72,2.4,2.4,0,0,1,2.65,2.41,1.93,1.93,0,0,1-.87,1.71,2.12,2.12,0,0,1,1.35,2.09c0,1.81-1.57,2.75-3.22,2.75a3.29,3.29,0,0,1-2.48-.94,3.19,3.19,0,0,1-.94-2.09h2.2a1.13,1.13,0,0,0,1.15,1.18,1.09,1.09,0,0,0,1.16-1.11,1.14,1.14,0,0,0-1.15-1.11,1.51,1.51,0,0,0-.37.06V186.9h.22a.87.87,0,0,0,.94-.91.8.8,0,0,0-.84-.84.87.87,0,0,0-.88,1Z" fill="#231f20"/><path d="M155,188.65v1.65h-1V192h-2V190.3h-4v-1.37l3.21-5.21H154v4.93Zm-3-3.19h0L150,188.65h2Z" fill="#231f20"/><path d="M158.65,185.55l-.14.95.68-.06a2.79,2.79,0,0,1,2.93,3,2.91,2.91,0,0,1-1.06,2.25,4,4,0,0,1-2.42.69,5,5,0,0,1-2.71-.75l.32-2a3.52,3.52,0,0,0,2.31,1,1.27,1.27,0,0,0,1.32-1.22c0-1-1-1.42-1.82-1.42a3.78,3.78,0,0,0-1.58.34l.73-4.5h4.31v1.83Z" fill="#231f20"/><path d="M168.69,183.72l-2.35,2.81,0,0a2.8,2.8,0,0,1,1.15-.25,2.76,2.76,0,0,1,2.67,2.91c0,2-1.68,3.14-3.57,3.14a3.9,3.9,0,0,1-2.36-.72,3.07,3.07,0,0,1-1.11-2.27,5.63,5.63,0,0,1,1.33-3.3l1.78-2.34Zm-.76,5.56a1.32,1.32,0,0,0-1.33-1.35,1.36,1.36,0,1,0,0,2.72A1.33,1.33,0,0,0,167.93,189.28Z" fill="#231f20"/><path d="M212,187.87c0,2.16-1,4.48-3.52,4.48s-3.52-2.32-3.52-4.48,1.06-4.48,3.52-4.48S212,185.71,212,187.87Zm-4.89,0c0,.8.26,2.59,1.37,2.59s1.38-1.79,1.38-2.59-.27-2.56-1.38-2.56S207.07,187.06,207.07,187.86Z" fill="#231f20"/><path d="M215.56,185.55l-.14.95.68-.06a2.8,2.8,0,0,1,2.94,3,2.92,2.92,0,0,1-1.07,2.25,4,4,0,0,1-2.42.69,5,5,0,0,1-2.71-.75l.32-2a3.52,3.52,0,0,0,2.31,1,1.27,1.27,0,0,0,1.32-1.22c0-1-1-1.42-1.81-1.42a3.79,3.79,0,0,0-1.59.34l.73-4.5h4.31v1.83Z" fill="#231f20"/><path d="M221.53,192l2.37-2.8,0,0a2.71,2.71,0,0,1-1.17.26,2.75,2.75,0,0,1-2.66-2.93c0-2,1.67-3.14,3.56-3.14a3.84,3.84,0,0,1,2.37.72,3,3,0,0,1,1.11,2.29,5.75,5.75,0,0,1-1.33,3.3L224,192Zm.76-5.56a1.33,1.33,0,0,0,1.33,1.37,1.37,1.37,0,1,0,0-2.73A1.32,1.32,0,0,0,222.29,186.46Z" fill="#231f20"/><path d="M228.12,185.55v-1.83h6.81l-4.76,8.3H227.8l3.79-6.47Z" fill="#231f20"/><path d="M417,26.08h-2.18l-.37,3,.59-.05c1.65,0,2.25,1.66,2.25,3.07s-.6,3.07-2.28,3.07a2.83,2.83,0,0,1-1.69-.56l.25-.9a2.38,2.38,0,0,0,1.42.57c1.12,0,1.41-1.34,1.41-2.19,0-1-.36-2.17-1.62-2.17a2.56,2.56,0,0,0-1.3.38l.61-5.07H417Z" fill="#231f20"/><path d="M421.41,30.51l0,0a1.48,1.48,0,0,1-1,.34c-1.63,0-1.76-2.2-1.76-2.9,0-2,.83-2.79,1.94-2.79,1.66,0,2.11,1.46,2.11,2.85a9.75,9.75,0,0,1-.85,3.68l-1.42,3.41h-.95Zm-1.86-2.45c0,.75.14,2,1.14,2s1.13-1.27,1.13-2S421.65,26,420.61,26,419.55,27.33,419.55,28.06Z" fill="#231f20"/><path d="M428.17,25.27l-3,9.81h-1l2.77-9h-2.83v-.81Z" fill="#231f20"/><path d="M297.12,55.57h1.28a3.72,3.72,0,0,1,2.65.81A3.31,3.31,0,0,1,302.17,59a3.26,3.26,0,0,1-1.1,2.53,3.61,3.61,0,0,1-2.69.85h-1.26Zm1.31,6.08a2.86,2.86,0,0,0,2.14-.7,2.68,2.68,0,0,0,.85-2,2.72,2.72,0,0,0-.88-2,3,3,0,0,0-2.11-.65h-.55v5.38Z" fill="#231f20"/><path d="M304.24,60.43l-.82,1.92h-.82l3.13-7.11,3,7.11h-.84l-.8-1.92ZM305.71,57l-1.16,2.71h2.3Z" fill="#231f20"/><path d="M310.61,62.35h-.76V56.27h-1.64v-.7h4.05v.7h-1.65Z" fill="#231f20"/><path d="M313,55.57h3.52v.7h-2.77v2h2.69V59h-2.69v2.66h2.77v.7H313Z" fill="#231f20"/><path d="M326.44,64.61h-6v-.9h6Z" fill="#231f20"/><path d="M331.24,64.61h-6v-.9h6Z" fill="#231f20"/><path d="M336.05,64.61h-6v-.9h6Z" fill="#231f20"/><path d="M340.85,64.61h-6v-.9h6Z" fill="#231f20"/><path d="M345.66,64.61h-6v-.9h6Z" fill="#231f20"/><path d="M350.46,64.61h-6v-.9h6Z" fill="#231f20"/><path d="M355.26,64.61h-6v-.9h6Z" fill="#231f20"/><path d="M360.07,64.61h-6v-.9h6Z" fill="#231f20"/><path d="M364.87,64.61h-6v-.9h6Z" fill="#231f20"/><path d="M369.68,64.61h-6v-.9h6Z" fill="#231f20"/><path d="M374.48,64.61h-6v-.9h6Z" fill="#231f20"/><path d="M379.3,64.61h-6v-.9h6Z" fill="#231f20"/><path d="M384.1,64.61h-6v-.9h6Z" fill="#231f20"/><path d="M388.9,64.61h-6v-.9h6Z" fill="#231f20"/><path d="M393.71,64.61h-6v-.9h6Z" fill="#231f20"/><path d="M398.52,64.61h-6v-.9h6Z" fill="#231f20"/><path d="M403.32,64.61h-6v-.9h6Z" fill="#231f20"/><path d="M408.12,64.61h-6v-.9h6Z" fill="#231f20"/><path d="M412.93,64.61h-6v-.9h6Z" fill="#231f20"/><path d="M417.73,64.61h-6v-.9h6Z" fill="#231f20"/><path d="M422.54,64.61h-6v-.9h6Z" fill="#231f20"/><path d="M427.34,64.61h-6v-.9h6Z" fill="#231f20"/><path d="M23.42,88.2h-1v-9H23.9a3.77,3.77,0,0,1,2.24.48,2.49,2.49,0,0,1,1,2.06,2.55,2.55,0,0,1-.86,1.94,3.22,3.22,0,0,1-2.15.6h-.73Zm0-4.89h.67c1.12,0,2.06-.34,2.06-1.63,0-1.48-1.18-1.59-2.36-1.59h-.37Z" fill="#231f20"/><path d="M28.85,85.63,27.76,88.2h-1.1l4.17-9.47L34.9,88.2H33.78l-1.06-2.57Zm2-4.55L29.26,84.7h3.06Z" fill="#231f20"/><path d="M33.88,79.16h1.17l2.3,4,2.3-4h1.17l-3,5.15V88.2h-1V84.31Z" fill="#231f20"/><path d="M47.91,88.2h-1V80.09H44.72v-.93h5.4v.93H47.91Z" fill="#231f20"/><path d="M60.12,83.69A4.72,4.72,0,1,1,55.41,79,4.69,4.69,0,0,1,60.12,83.69Zm-8.42,0a3.71,3.71,0,1,0,3.71-3.74A3.74,3.74,0,0,0,51.7,83.68Z" fill="#231f20"/><path d="M70.7,90.46h-6v-.9h6Z" fill="#231f20"/><path d="M75.51,90.46h-6v-.9h6Z" fill="#231f20"/><path d="M80.31,90.46h-6v-.9h6Z" fill="#231f20"/><path d="M85.12,90.46h-6v-.9h6Z" fill="#231f20"/><path d="M89.92,90.46h-6v-.9h6Z" fill="#231f20"/><path d="M94.74,90.46h-6v-.9h6Z" fill="#231f20"/><path d="M99.55,90.46h-6v-.9h6Z" fill="#231f20"/><path d="M104.36,90.46h-6v-.9h6Z" fill="#231f20"/><path d="M109.16,90.46h-6v-.9h6Z" fill="#231f20"/><path d="M114,90.46h-6v-.9h6Z" fill="#231f20"/><path d="M118.78,90.46h-6v-.9h6Z" fill="#231f20"/><path d="M123.58,90.46h-6v-.9h6Z" fill="#231f20"/><path d="M128.4,90.46h-6v-.9h6Z" fill="#231f20"/><path d="M133.21,90.46h-6v-.9h6Z" fill="#231f20"/><path d="M138,90.46h-6v-.9h6Z" fill="#231f20"/><path d="M142.83,90.46h-6v-.9h6Z" fill="#231f20"/><path d="M147.64,90.46h-6v-.9h6Z" fill="#231f20"/><path d="M152.44,90.46h-6v-.9h6Z" fill="#231f20"/><path d="M157.26,90.46h-6v-.9h6Z" fill="#231f20"/><path d="M162.06,90.46h-6v-.9h6Z" fill="#231f20"/><path d="M166.87,90.46h-6v-.9h6Z" fill="#231f20"/><path d="M171.67,90.46h-6v-.9h6Z" fill="#231f20"/><path d="M176.48,90.46h-6v-.9h6Z" fill="#231f20"/><path d="M181.28,90.46h-6v-.9h6Z" fill="#231f20"/><path d="M186.09,90.46h-6v-.9h6Z" fill="#231f20"/><path d="M190.89,90.46h-6v-.9h6Z" fill="#231f20"/><path d="M195.7,90.46h-6v-.9h6Z" fill="#231f20"/><path d="M200.5,90.46h-6v-.9h6Z" fill="#231f20"/><path d="M205.32,90.46h-6v-.9h6Z" fill="#231f20"/><path d="M210.12,90.46h-6v-.9h6Z" fill="#231f20"/><path d="M214.93,90.46h-6v-.9h6Z" fill="#231f20"/><path d="M219.73,90.46h-6v-.9h6Z" fill="#231f20"/><path d="M224.54,90.46h-6v-.9h6Z" fill="#231f20"/><path d="M229.34,90.46h-6v-.9h6Z" fill="#231f20"/><path d="M234.15,90.46h-6v-.9h6Z" fill="#231f20"/><path d="M239,90.46h-6v-.9h6Z" fill="#231f20"/><path d="M243.76,90.46h-6v-.9h6Z" fill="#231f20"/><path d="M248.56,90.46h-6v-.9h6Z" fill="#231f20"/><path d="M253.38,90.46h-6v-.9h6Z" fill="#231f20"/><path d="M258.18,90.46h-6v-.9h6Z" fill="#231f20"/><path d="M263,90.46h-6v-.9h6Z" fill="#231f20"/><path d="M267.79,90.46h-6v-.9h6Z" fill="#231f20"/><path d="M272.59,90.46h-6v-.9h6Z" fill="#231f20"/><path d="M277.39,90.46h-6v-.9h6Z" fill="#231f20"/><path d="M282.2,90.46h-6v-.9h6Z" fill="#231f20"/><path d="M287,90.46h-6v-.9h6Z" fill="#231f20"/><path d="M291.8,90.46h-6v-.9h6Z" fill="#231f20"/><path d="M296.61,90.46h-6v-.9h6Z" fill="#231f20"/><path d="M301.41,90.46h-6v-.9h6Z" fill="#231f20"/><path d="M306.21,90.46h-6v-.9h6Z" fill="#231f20"/><path d="M311,90.46h-6v-.9h6Z" fill="#231f20"/><path d="M315.81,90.46h-6v-.9h6Z" fill="#231f20"/><path d="M320.62,90.46h-6v-.9h6Z" fill="#231f20"/><path d="M325.42,90.46h-6v-.9h6Z" fill="#231f20"/><path d="M330.22,90.46h-6v-.9h6Z" fill="#231f20"/><path d="M335,90.46h-6v-.9h6Z" fill="#231f20"/><path d="M345.05,81.84c-1.55-.64-3-1.48-3-3.36a3.28,3.28,0,0,1,3-3.22V73.51h1.12v1.75a3.6,3.6,0,0,1,2.69,1.94l-1.13.73a2.48,2.48,0,0,0-1.56-1.31v4.2c1.68.72,3.16,1.58,3.16,3.62a3.92,3.92,0,0,1-3.16,3.85v1.86h-1.12V88.39a4,4,0,0,1-3.67-3.3l1.37-.39a2.65,2.65,0,0,0,2.3,2.33Zm0-5.23a2,2,0,0,0-1.58,1.92c0,.93.83,1.46,1.58,1.8Zm1.12,10.3a2.51,2.51,0,0,0,1.73-2.43c0-1.09-.85-1.7-1.73-2.13Z" fill="#231f20"/><rect x="353.84" y="73.42" width="73.16" height="16.28" fill="none" stroke="#231f20"/><path d="M23.72,163.54,25.64,168l1.92-4.43,1.08,5.58H28l-.68-3.57h0l-1.7,3.79-1.7-3.79h0l-.68,3.57h-.6Z" fill="#231f20"/><path d="M29.3,163.84H32v.55H29.89V166H32v.54H29.89v2.07H32v.55H29.3Z" fill="#231f20"/><path d="M33.73,163.54,35.65,168l1.92-4.43,1.08,5.58H38l-.68-3.57h0l-1.7,3.79L34,165.55h0l-.68,3.57h-.6Z" fill="#231f20"/><path d="M44.55,166.49a2.75,2.75,0,1,1-2.75-2.74A2.73,2.73,0,0,1,44.55,166.49Zm-4.91,0a2.16,2.16,0,1,0,2.16-2.19A2.18,2.18,0,0,0,39.64,166.48Z" fill="#231f20"/><path d="M52.49,171.38h-6v-.9h6Z" fill="#231f20"/><path d="M57.29,171.38h-6v-.9h6Z" fill="#231f20"/><path d="M62.1,171.38h-6v-.9h6Z" fill="#231f20"/><path d="M66.9,171.38h-6v-.9h6Z" fill="#231f20"/><path d="M71.7,171.38h-6v-.9h6Z" fill="#231f20"/><path d="M76.5,171.38h-6v-.9h6Z" fill="#231f20"/><path d="M81.32,171.38h-6v-.9h6Z" fill="#231f20"/><path d="M86.13,171.38h-6v-.9h6Z" fill="#231f20"/><path d="M90.94,171.38h-6v-.9h6Z" fill="#231f20"/><path d="M95.75,171.38h-6v-.9h6Z" fill="#231f20"/><path d="M100.56,171.38h-6v-.9h6Z" fill="#231f20"/><path d="M105.36,171.38h-6v-.9h6Z" fill="#231f20"/><path d="M110.16,171.38h-6v-.9h6Z" fill="#231f20"/><path d="M115,171.38h-6v-.9h6Z" fill="#231f20"/><path d="M119.79,171.38h-6v-.9h6Z" fill="#231f20"/><path d="M124.6,171.38h-6v-.9h6Z" fill="#231f20"/><path d="M129.41,171.38h-6v-.9h6Z" fill="#231f20"/><path d="M134.22,171.38h-6v-.9h6Z" fill="#231f20"/><path d="M139,171.38h-6v-.9h6Z" fill="#231f20"/><path d="M143.84,171.38h-6v-.9h6Z" fill="#231f20"/><path d="M148.65,171.38h-6v-.9h6Z" fill="#231f20"/><path d="M153.45,171.38h-6v-.9h6Z" fill="#231f20"/><path d="M158.26,171.38h-6v-.9h6Z" fill="#231f20"/><path d="M163.06,171.38h-6v-.9h6Z" fill="#231f20"/><path d="M167.87,171.38h-6v-.9h6Z" fill="#231f20"/><path d="M172.67,171.38h-6v-.9h6Z" fill="#231f20"/><path d="M177.48,171.38h-6v-.9h6Z" fill="#231f20"/><path d="M182.28,171.38h-6v-.9h6Z" fill="#231f20"/><path d="M187.1,171.38h-6v-.9h6Z" fill="#231f20"/><path d="M240,171.38h-6v-.9h6Z" fill="#231f20"/><path d="M244.8,171.38h-6v-.9h6Z" fill="#231f20"/><path d="M249.61,171.38h-6v-.9h6Z" fill="#231f20"/><path d="M254.42,171.38h-6v-.9h6Z" fill="#231f20"/><path d="M259.22,171.38h-6v-.9h6Z" fill="#231f20"/><path d="M264,171.38h-6v-.9h6Z" fill="#231f20"/><path d="M268.83,171.38h-6v-.9h6Z" fill="#231f20"/><path d="M273.64,171.38h-6v-.9h6Z" fill="#231f20"/><path d="M278.45,171.38h-6v-.9h6Z" fill="#231f20"/><path d="M283.26,171.38h-6v-.9h6Z" fill="#231f20"/><path d="M288.06,171.38h-6v-.9h6Z" fill="#231f20"/><path d="M292.87,171.38h-6v-.9h6Z" fill="#231f20"/><path d="M297.67,171.38h-6v-.9h6Z" fill="#231f20"/><path d="M302.48,171.38h-6v-.9h6Z" fill="#231f20"/><path d="M307.28,171.38h-6v-.9h6Z" fill="#231f20"/><path d="M312.08,171.38h-6v-.9h6Z" fill="#231f20"/><path d="M316.89,171.38h-6v-.9h6Z" fill="#231f20"/><path d="M321.69,171.38h-6v-.9h6Z" fill="#231f20"/><path d="M326.5,171.38h-6v-.9h6Z" fill="#231f20"/><path d="M331.3,171.38h-6v-.9h6Z" fill="#231f20"/><path d="M336.1,171.38h-6v-.9h6Z" fill="#231f20"/><path d="M340.92,171.38h-6v-.9h6Z" fill="#231f20"/><path d="M345.72,171.38h-6v-.9h6Z" fill="#231f20"/><path d="M350.53,171.38h-6v-.9h6Z" fill="#231f20"/><path d="M355.33,171.38h-6v-.9h6Z" fill="#231f20"/><path d="M360.13,171.38h-6v-.9h6Z" fill="#231f20"/><path d="M364.93,171.38h-6v-.9h6Z" fill="#231f20"/><path d="M369.73,171.38h-6v-.9h6Z" fill="#231f20"/><path d="M374.53,171.38h-6v-.9h6Z" fill="#231f20"/><path d="M379.34,171.38h-6v-.9h6Z" fill="#231f20"/><path d="M384.14,171.38h-6v-.9h6Z" fill="#231f20"/><path d="M389,171.38h-6v-.9h6Z" fill="#231f20"/><path d="M393.75,171.38h-6v-.9h6Z" fill="#231f20"/><path d="M398.55,171.38h-6v-.9h6Z" fill="#231f20"/><path d="M403.35,171.38h-6v-.9h6Z" fill="#231f20"/><path d="M408.15,171.38h-6v-.9h6Z" fill="#231f20"/><path d="M413,171.38h-6v-.9h6Z" fill="#231f20"/><path d="M418.93,163.54l1.91,4.43,1.93-4.43,1.07,5.58h-.6l-.68-3.57h0l-1.71,3.79-1.69-3.79h0l-.68,3.57h-.61Z" fill="#231f20"/><path d="M425.1,169.12h-.59v-5.28h.87a2.21,2.21,0,0,1,1.31.28,1.46,1.46,0,0,1,.59,1.2,1.48,1.48,0,0,1-.5,1.14,1.92,1.92,0,0,1-1.25.35h-.43Zm0-2.86h.39c.65,0,1.21-.19,1.21-.95s-.7-.92-1.38-.92h-.22Z" fill="#231f20"/><path d="M28.5,116.3h-6v-.9h6Z" fill="#231f20"/><path d="M33.3,116.3h-6v-.9h6Z" fill="#231f20"/><path d="M38.1,116.3h-6v-.9h6Z" fill="#231f20"/><path d="M42.91,116.3h-6v-.9h6Z" fill="#231f20"/><path d="M47.71,116.3h-6v-.9h6Z" fill="#231f20"/><path d="M52.51,116.3h-6v-.9h6Z" fill="#231f20"/><path d="M57.31,116.3h-6v-.9h6Z" fill="#231f20"/><path d="M62.11,116.3h-6v-.9h6Z" fill="#231f20"/><path d="M66.92,116.3h-6v-.9h6Z" fill="#231f20"/><path d="M71.72,116.3h-6v-.9h6Z" fill="#231f20"/><path d="M76.53,116.3h-6v-.9h6Z" fill="#231f20"/><path d="M81.34,116.3h-6v-.9h6Z" fill="#231f20"/><path d="M86.16,116.3h-6v-.9h6Z" fill="#231f20"/><path d="M91,116.3H85v-.9h6Z" fill="#231f20"/><path d="M95.78,116.3h-6v-.9h6Z" fill="#231f20"/><path d="M100.59,116.3h-6v-.9h6Z" fill="#231f20"/><path d="M105.4,116.3h-6v-.9h6Z" fill="#231f20"/><path d="M110.2,116.3h-6v-.9h6Z" fill="#231f20"/><path d="M115,116.3h-6v-.9h6Z" fill="#231f20"/><path d="M119.83,116.3h-6v-.9h6Z" fill="#231f20"/><path d="M124.64,116.3h-6v-.9h6Z" fill="#231f20"/><path d="M129.45,116.3h-6v-.9h6Z" fill="#231f20"/><path d="M134.25,116.3h-6v-.9h6Z" fill="#231f20"/><path d="M139.06,116.3h-6v-.9h6Z" fill="#231f20"/><path d="M143.86,116.3h-6v-.9h6Z" fill="#231f20"/><path d="M148.68,116.3h-6v-.9h6Z" fill="#231f20"/><path d="M153.48,116.3h-6v-.9h6Z" fill="#231f20"/><path d="M158.29,116.3h-6v-.9h6Z" fill="#231f20"/><path d="M163.09,116.3h-6v-.9h6Z" fill="#231f20"/><path d="M167.9,116.3h-6v-.9h6Z" fill="#231f20"/><path d="M172.7,116.3h-6v-.9h6Z" fill="#231f20"/><path d="M177.51,116.3h-6v-.9h6Z" fill="#231f20"/><path d="M182.31,116.3h-6v-.9h6Z" fill="#231f20"/><path d="M187.12,116.3h-6v-.9h6Z" fill="#231f20"/><path d="M191.92,116.3h-6v-.9h6Z" fill="#231f20"/><path d="M196.74,116.3h-6v-.9h6Z" fill="#231f20"/><path d="M201.54,116.3h-6v-.9h6Z" fill="#231f20"/><path d="M206.35,116.3h-6v-.9h6Z" fill="#231f20"/><path d="M211.15,116.3h-6v-.9h6Z" fill="#231f20"/><path d="M216,116.3h-6v-.9h6Z" fill="#231f20"/><path d="M220.76,116.3h-6v-.9h6Z" fill="#231f20"/><path d="M225.57,116.3h-6v-.9h6Z" fill="#231f20"/><path d="M230.38,116.3h-6v-.9h6Z" fill="#231f20"/><path d="M235.18,116.3h-6v-.9h6Z" fill="#231f20"/><path d="M240,116.3h-6v-.9h6Z" fill="#231f20"/><path d="M244.81,116.3h-6v-.9h6Z" fill="#231f20"/><path d="M249.61,116.3h-6v-.9h6Z" fill="#231f20"/><path d="M254.41,116.3h-6v-.9h6Z" fill="#231f20"/><path d="M259.22,116.3h-6v-.9h6Z" fill="#231f20"/><path d="M264,116.3h-6v-.9h6Z" fill="#231f20"/><path d="M268.82,116.3h-6v-.9h6Z" fill="#231f20"/><path d="M273.62,116.3h-6v-.9h6Z" fill="#231f20"/><path d="M278.43,116.3h-6v-.9h6Z" fill="#231f20"/><path d="M283.23,116.3h-6v-.9h6Z" fill="#231f20"/><path d="M288,116.3h-6v-.9h6Z" fill="#231f20"/><path d="M292.83,116.3h-6v-.9h6Z" fill="#231f20"/><path d="M297.64,116.3h-6v-.9h6Z" fill="#231f20"/><path d="M302.45,116.3h-6v-.9h6Z" fill="#231f20"/><path d="M307.25,116.3h-6v-.9h6Z" fill="#231f20"/><path d="M312,116.3h-6v-.9h6Z" fill="#231f20"/><path d="M316.84,116.3h-6v-.9h6Z" fill="#231f20"/><path d="M321.66,116.3h-6v-.9h6Z" fill="#231f20"/><path d="M326.46,116.3h-6v-.9h6Z" fill="#231f20"/><path d="M331.26,116.3h-6v-.9h6Z" fill="#231f20"/><path d="M336.07,116.3h-6v-.9h6Z" fill="#231f20"/><path d="M340.87,116.3h-6v-.9h6Z" fill="#231f20"/><path d="M345.67,116.3h-6v-.9h6Z" fill="#231f20"/><path d="M350.47,116.3h-6v-.9h6Z" fill="#231f20"/><path d="M355.27,116.3h-6v-.9h6Z" fill="#231f20"/><path d="M360.08,116.3h-6v-.9h6Z" fill="#231f20"/><path d="M364.88,116.3h-6v-.9h6Z" fill="#231f20"/><path d="M369.68,116.3h-6v-.9h6Z" fill="#231f20"/><path d="M374.49,116.3h-6v-.9h6Z" fill="#231f20"/><path d="M379.29,116.3h-6v-.9h6Z" fill="#231f20"/><path d="M384.09,116.3h-6v-.9h6Z" fill="#231f20"/><path d="M388.89,116.3h-6v-.9h6Z" fill="#231f20"/><path d="M393.69,116.3h-6v-.9h6Z" fill="#231f20"/><path d="M398.5,116.3h-6v-.9h6Z" fill="#231f20"/><path d="M399.4,108.77h1a2.9,2.9,0,0,1,2.06.63,2.72,2.72,0,0,1,0,4,2.81,2.81,0,0,1-2.09.67h-1Zm1,4.73a2.22,2.22,0,0,0,1.66-.54,2.08,2.08,0,0,0,.66-1.55,2.1,2.1,0,0,0-.68-1.59,2.32,2.32,0,0,0-1.64-.51H400v4.19Z" fill="#231f20"/><path d="M409.39,111.41a2.76,2.76,0,1,1-2.76-2.73A2.75,2.75,0,0,1,409.39,111.41Zm-4.92,0a2.17,2.17,0,1,0,2.16-2.19A2.18,2.18,0,0,0,404.47,111.41Z" fill="#231f20"/><path d="M410.77,113.5h1.46v.55h-2.05v-5.28h.59Z" fill="#231f20"/><path d="M413.4,113.5h1.45v.55h-2v-5.28h.59Z" fill="#231f20"/><path d="M416.22,112.55l-.63,1.5h-.65l2.44-5.54,2.37,5.54h-.65l-.62-1.5Zm1.15-2.66-.91,2.11h1.79Z" fill="#231f20"/><path d="M420.91,114.05h-.58v-5.28h.76c1,0,1.93.26,1.93,1.45a1.38,1.38,0,0,1-1.32,1.46l1.68,2.37h-.72l-1.6-2.32h-.15Zm0-2.84h.19c.66,0,1.33-.12,1.33-.94s-.63-1-1.34-1h-.18Z" fill="#231f20"/><path d="M426.51,109.8a1,1,0,0,0-.91-.58.84.84,0,0,0-.87.82c0,.46.47.67.82.83l.36.15c.68.3,1.26.65,1.26,1.49a1.66,1.66,0,0,1-3.3.26l.57-.16a1.09,1.09,0,0,0,1.06,1,1.05,1.05,0,0,0,1.08-1c0-.61-.48-.82-1-1l-.32-.14c-.62-.28-1.15-.59-1.15-1.35a1.38,1.38,0,0,1,1.48-1.34,1.5,1.5,0,0,1,1.36.82Z" fill="#231f20"/></g></g><path d="M40.56,244.5h-1v-9h1.3c1.72,0,3.31.45,3.31,2.49a2.36,2.36,0,0,1-2.26,2.5l2.88,4.05H43.55l-2.73-4h-.26Zm0-4.86h.32c1.13,0,2.29-.21,2.29-1.62s-1.1-1.63-2.31-1.63h-.3Z" fill="#ce1f3e"/><path d="M45.56,241.69a3,3,0,1,1,3,3A3,3,0,0,1,45.56,241.69Zm1,0a2,2,0,1,0,2-2.09A2,2,0,0,0,46.52,241.68Z" fill="#ce1f3e"/><path d="M53.69,242c0,.94.11,1.76,1.27,1.76s1.27-.82,1.27-1.76v-3.15h1v3.25c0,1.5-.56,2.55-2.23,2.55s-2.23-1-2.23-2.55v-3.25h1Z" fill="#ce1f3e"/><path d="M60,244.5H59v-4.75h-.59v-.89H59v-2h1v2h1v.89H60Z" fill="#ce1f3e"/><path d="M63.17,236.74a.68.68,0,0,1-.68.68.68.68,0,1,1,.68-.68ZM63,244.5H62v-5.64h1Z" fill="#ce1f3e"/><path d="M65.93,239.55h0a1.88,1.88,0,0,1,1.6-.84c1.56,0,1.92,1.12,1.92,2.44v3.35h-1v-3.18c0-.91-.07-1.73-1.19-1.73-1.31,0-1.4,1.23-1.4,2.24v2.67H65v-5.64h1Z" fill="#ce1f3e"/><path d="M76.39,244.22a3.63,3.63,0,0,1-.57,2.43,2.75,2.75,0,0,1-2.19,1,2.58,2.58,0,0,1-2.77-2.59h1a1.68,1.68,0,0,0,1.8,1.7c1.49,0,1.81-1.09,1.81-2.36v-.67h0a2.5,2.5,0,0,1-2,.94,2.76,2.76,0,0,1-2.68-2.95,2.8,2.8,0,0,1,2.72-3,2.33,2.33,0,0,1,1.92,1h0v-.81h1Zm-4.64-2.6a2,2,0,0,0,1.85,2.15,1.93,1.93,0,0,0,1.88-2.14,1.89,1.89,0,0,0-1.89-2A1.92,1.92,0,0,0,71.75,241.62Z" fill="#ce1f3e"/><path d="M37.7,248.07l7,7.39v-7h1v9.45l-7-7.38v7h-1Z" fill="#ce1f3e"/><path d="M48.54,255c0,.94.1,1.76,1.27,1.76s1.27-.82,1.27-1.76v-3.15h1v3.25c0,1.5-.56,2.55-2.23,2.55s-2.23-1.05-2.23-2.55v-3.25h1Z" fill="#ce1f3e"/><path d="M54.75,252.47h0a1.6,1.6,0,0,1,1.35-.76,1.72,1.72,0,0,1,1.56.93,1.89,1.89,0,0,1,1.69-.93c1.44,0,1.8,1.17,1.8,2.36v3.43h-1v-3.27c0-.74,0-1.64-1-1.64S58,253.66,58,254.51v3H57v-3.2c0-.7-.09-1.71-1-1.71-1.13,0-1.25,1.14-1.25,2v2.91h-1v-5.64h1Z" fill="#ce1f3e"/><path d="M63,247.61h1v5.06h0a2.44,2.44,0,0,1,1.94-1,3,3,0,0,1,0,6,2.4,2.4,0,0,1-2-.94h0v.78H63Zm.91,7a2,2,0,0,0,1.85,2.15,1.92,1.92,0,0,0,1.88-2.14,1.88,1.88,0,0,0-1.89-2A1.92,1.92,0,0,0,63.87,254.62Z" fill="#ce1f3e"/><path d="M70.41,254.89a1.83,1.83,0,0,0,1.85,1.88A1.91,1.91,0,0,0,74,255.61l.82.46a2.85,2.85,0,0,1-2.6,1.59,3,3,0,1,1,2.65-2.77Zm3.42-.82a1.71,1.71,0,0,0-1.65-1.48,1.79,1.79,0,0,0-1.72,1.48Z" fill="#ce1f3e"/><path d="M77.07,252.47h0a1.44,1.44,0,0,1,1.24-.76,1.77,1.77,0,0,1,.87.26l-.46.88a.89.89,0,0,0-.57-.26c-1.06,0-1.11,1.36-1.11,2.09v2.82h-1v-5.64h1Z" fill="#ce1f3e"/><path d="M129.31,241.93l-1.09,2.57h-1.11l4.18-9.47,4.06,9.47h-1.11l-1.07-2.57Zm1.95-4.55L129.72,241h3.05Z" fill="#ce1f3e"/><path d="M140.53,240.54h0a2.17,2.17,0,0,0-1.75-.95,2,2,0,0,0-2,2.09,2,2,0,0,0,1.94,2.09,2.2,2.2,0,0,0,1.84-1h0v1.28a3.08,3.08,0,0,1-1.78.58,2.92,2.92,0,0,1-3-3,3,3,0,0,1,3-3,3.05,3.05,0,0,1,1.74.56Z" fill="#ce1f3e"/><path d="M146.24,240.54h0a2.17,2.17,0,0,0-1.75-.95,2,2,0,0,0-2,2.09,2,2,0,0,0,1.95,2.09,2.19,2.19,0,0,0,1.83-1h0v1.28a3.08,3.08,0,0,1-1.78.58,2.92,2.92,0,0,1-3-3,3,3,0,0,1,3-3,3.05,3.05,0,0,1,1.74.56Z" fill="#ce1f3e"/><path d="M147.26,241.69a3,3,0,1,1,3,3A3,3,0,0,1,147.26,241.69Zm1,0a2,2,0,1,0,2-2.09A2,2,0,0,0,148.22,241.68Z" fill="#ce1f3e"/><path d="M155.4,242c0,.94.1,1.76,1.27,1.76s1.27-.82,1.27-1.76v-3.15h1v3.25c0,1.5-.57,2.55-2.23,2.55s-2.23-1-2.23-2.55v-3.25h1Z" fill="#ce1f3e"/><path d="M161.61,239.55h0a1.88,1.88,0,0,1,1.6-.84c1.56,0,1.92,1.12,1.92,2.44v3.35h-1v-3.18c0-.91-.07-1.73-1.18-1.73-1.32,0-1.41,1.23-1.41,2.24v2.67h-1v-5.64h1Z" fill="#ce1f3e"/><path d="M168,244.5h-1v-4.75h-.59v-.89H167v-2h1v2h1v.89h-1Z" fill="#ce1f3e"/><path d="M127.7,248.07l7,7.39v-7h1v9.45l-7-7.38v7h-1Z" fill="#ce1f3e"/><path d="M138.54,255c0,.94.1,1.76,1.27,1.76s1.27-.82,1.27-1.76v-3.15h1v3.25c0,1.5-.56,2.55-2.23,2.55s-2.23-1.05-2.23-2.55v-3.25h1Z" fill="#ce1f3e"/><path d="M144.75,252.47h0a1.6,1.6,0,0,1,1.35-.76,1.72,1.72,0,0,1,1.56.93,1.89,1.89,0,0,1,1.69-.93c1.44,0,1.8,1.17,1.8,2.36v3.43h-1v-3.27c0-.74-.05-1.64-1-1.64s-1.22,1.07-1.22,1.92v3h-1v-3.2c0-.7-.09-1.71-1-1.71-1.13,0-1.25,1.14-1.25,2v2.91h-1v-5.64h1Z" fill="#ce1f3e"/><path d="M153,247.61h1v5.06h0a2.44,2.44,0,0,1,1.94-1,3,3,0,0,1,0,6,2.4,2.4,0,0,1-1.95-.94h0v.78h-1Zm.91,7a2,2,0,0,0,1.85,2.15,1.92,1.92,0,0,0,1.88-2.14,1.88,1.88,0,0,0-1.89-2A1.92,1.92,0,0,0,153.87,254.62Z" fill="#ce1f3e"/><path d="M160.41,254.89a1.83,1.83,0,0,0,1.85,1.88,1.91,1.91,0,0,0,1.71-1.16l.82.46a2.85,2.85,0,0,1-2.6,1.59,3,3,0,1,1,2.65-2.77Zm3.42-.82a1.71,1.71,0,0,0-1.65-1.48,1.79,1.79,0,0,0-1.72,1.48Z" fill="#ce1f3e"/><path d="M167.07,252.47h0a1.44,1.44,0,0,1,1.24-.76,1.77,1.77,0,0,1,.87.26l-.46.88a.89.89,0,0,0-.57-.26c-1.06,0-1.11,1.36-1.11,2.09v2.82h-1v-5.64h1Z" fill="#ce1f3e"/><path d="M211.55,237.44a3.86,3.86,0,0,0-2.76-1.2,3.74,3.74,0,0,0,0,7.48,4,4,0,0,0,2.74-1.2v1.25a4.68,4.68,0,1,1-2.7-8.47,4.38,4.38,0,0,1,2.7.89Z" fill="#ce1f3e"/><path d="M214.22,234.61v4.91l0,0a1.88,1.88,0,0,1,1.61-.84c1.56,0,1.92,1.12,1.92,2.44v3.35h-1v-3.18c0-.91-.08-1.73-1.19-1.73-1.32,0-1.4,1.23-1.4,2.24v2.67h-1v-9.89Z" fill="#ce1f3e"/><path d="M220.07,241.89a1.83,1.83,0,0,0,1.85,1.88,1.93,1.93,0,0,0,1.71-1.16l.82.46a2.85,2.85,0,0,1-2.6,1.59,3,3,0,1,1,2.65-2.77Zm3.42-.82a1.72,1.72,0,0,0-1.66-1.48,1.78,1.78,0,0,0-1.71,1.48Z" fill="#ce1f3e"/><path d="M230,240.54h0a2.17,2.17,0,0,0-1.75-.95,2,2,0,0,0-2,2.09,2,2,0,0,0,1.94,2.09,2.2,2.2,0,0,0,1.84-1h0v1.28a3.08,3.08,0,0,1-1.79.58,2.92,2.92,0,0,1-3-3,3,3,0,0,1,3-3,3.05,3.05,0,0,1,1.74.56Z" fill="#ce1f3e"/><path d="M232.44,241l2.05-2.09h1.29l-2.41,2.4,2.86,3.24H235l-2.26-2.57-.26.26v2.31h-1v-9.89h1Z" fill="#ce1f3e"/><path d="M199.7,248.07l7.05,7.39v-7h1v9.45l-7-7.38v7h-1Z" fill="#ce1f3e"/><path d="M210.54,255c0,.94.1,1.76,1.27,1.76s1.27-.82,1.27-1.76v-3.15h1v3.25c0,1.5-.56,2.55-2.23,2.55s-2.23-1.05-2.23-2.55v-3.25h1Z" fill="#ce1f3e"/><path d="M216.75,252.47h0a1.6,1.6,0,0,1,1.35-.76,1.72,1.72,0,0,1,1.56.93,1.89,1.89,0,0,1,1.69-.93c1.44,0,1.8,1.17,1.8,2.36v3.43h-1v-3.27c0-.74-.05-1.64-1-1.64s-1.22,1.07-1.22,1.92v3h-1v-3.2c0-.7-.09-1.71-1-1.71-1.13,0-1.25,1.14-1.25,2v2.91h-1v-5.64h1Z" fill="#ce1f3e"/><path d="M225,247.61h1v5.06h0a2.44,2.44,0,0,1,1.94-1,3,3,0,0,1,0,6,2.4,2.4,0,0,1-1.95-.94h0v.78h-1Zm.91,7a2,2,0,0,0,1.85,2.15,1.92,1.92,0,0,0,1.88-2.14,1.89,1.89,0,0,0-1.89-2A1.92,1.92,0,0,0,225.87,254.62Z" fill="#ce1f3e"/><path d="M232.41,254.89a1.83,1.83,0,0,0,1.85,1.88,1.91,1.91,0,0,0,1.71-1.16l.82.46a2.85,2.85,0,0,1-2.6,1.59,3,3,0,1,1,2.65-2.77Zm3.42-.82a1.71,1.71,0,0,0-1.65-1.48,1.79,1.79,0,0,0-1.72,1.48Z" fill="#ce1f3e"/><path d="M239.07,252.47h0a1.44,1.44,0,0,1,1.24-.76,1.77,1.77,0,0,1,.87.26l-.46.88a.89.89,0,0,0-.57-.26c-1.06,0-1.11,1.36-1.11,2.09v2.82h-1v-5.64h1Z" fill="#ce1f3e"/><line x1="148" y1="230.5" x2="148" y2="203.5" fill="none" stroke="#231f20" stroke-miterlimit="10" stroke-width="3"/><line x1="58" y1="230.5" x2="58" y2="203.5" fill="none" stroke="#231f20" stroke-miterlimit="10" stroke-width="3"/><line x1="220" y1="230.5" x2="220" y2="203.5" fill="none" stroke="#231f20" stroke-miterlimit="10" stroke-width="3"/></svg>