<svg xmlns="http://www.w3.org/2000/svg" viewBox="0 0 159.93 100"><title>logodiners-club</title><path d="M147.93,0H8C4,0,0,4,0,8V88q0,12,12,12H147.93q12,0,12-12V12Q159.93,0,147.93,0Z" fill="#f4f4f4"/><path d="M84.77,62.09c12.13.06,23.19-9.91,23.19-22C108,26.8,96.9,17.64,84.77,17.64H74.33C62.06,17.64,52,26.8,52,40.06a22.25,22.25,0,0,0,22.37,22Z" fill="#4186cd"/><path d="M74.18,19.42A20.45,20.45,0,1,0,94.63,39.87,20.44,20.44,0,0,0,74.18,19.42Zm-12.44,20h0a12.89,12.89,0,0,1,8-12v24a12.87,12.87,0,0,1-8-12Zm16.89,12h0v-24a13,13,0,0,1,0,24Z" fill="#fff"/><path d="M35.14,69.93c0-1.8-.94-1.69-1.84-1.7V67.7c.78,0,1.58,0,2.37,0s2,0,3.47,0c5.2,0,8,3.48,8,7,0,2-1.16,7-8.27,7-1,0-2,0-2.91,0s-1.79,0-2.69,0V81.2c1.2-.12,1.78-.16,1.84-1.53V69.93Zm2,9.42h0c0,1.55,1.1,1.73,2.09,1.73,4.34,0,5.76-3.27,5.76-6.27,0-3.75-2.41-6.46-6.28-6.46-.83,0-1.21.06-1.57.08V79.35Z" fill="#211e1f"/><path d="M47.88,81.2h.38c.56,0,1,0,1-.66V75.09c0-.88-.3-1-1-1.4v-.32a22.44,22.44,0,0,0,2.14-.73.71.71,0,0,1,.37-.1c.09,0,.14.12.14.29v7.71c0,.66.44.66,1,.66h.34v.52c-.68,0-1.39,0-2.11,0s-1.44,0-2.18,0V81.2ZM50,69.45h0a1,1,0,0,1,0-2,1,1,0,0,1,1,1A1,1,0,0,1,50,69.45Z" fill="#211e1f"/><path d="M54.08,75.21c0-.74-.22-.94-1.16-1.32v-.38a24.79,24.79,0,0,0,2.64-1c.06,0,.12,0,.12.2v1.31a5.92,5.92,0,0,1,3.48-1.51c1.71,0,2.31,1.25,2.31,2.81v5.19c0,.66.44.66,1,.66h.36v.52c-.7,0-1.4,0-2.12,0s-1.45,0-2.17,0V81.2h.36c.56,0,1,0,1-.66v-5.2c0-1.15-.7-1.71-1.85-1.71a5.41,5.41,0,0,0-2.33,1v6c0,.66.45.66,1,.66h.36v.52c-.7,0-1.41,0-2.13,0s-1.44,0-2.17,0V81.2h.37c.56,0,1,0,1-.66V75.21Z" fill="#211e1f"/><path d="M64.36,76.18a5,5,0,0,0,0,1.16c.12,1.91,1.35,3.48,3,3.48A3.81,3.81,0,0,0,70,79.47l.28.28A4.68,4.68,0,0,1,66.59,82c-3.19,0-3.84-3.09-3.84-4.37,0-3.94,2.65-5.11,4.06-5.11A3.19,3.19,0,0,1,70.2,75.7a2.17,2.17,0,0,1,0,.36l-.18.12Zm3.56-.64h0c.5,0,.56-.27.56-.51a1.7,1.7,0,0,0-1.75-1.84c-1.22,0-2.07.9-2.31,2.35Z" fill="#211e1f"/><path d="M70.67,81.2h.54c.56,0,1,0,1-.66V74.89c0-.62-.74-.74-1-.9v-.3c1.46-.62,2.27-1.15,2.45-1.15s.18.06.18.27v1.8h0c.5-.78,1.35-2.07,2.57-2.07a1.09,1.09,0,0,1,1.14,1.07,1,1,0,0,1-.94,1c-.62,0-.62-.48-1.33-.48a1.69,1.69,0,0,0-1.46,1.67v4.72c0,.66.4.66,1,.66h1.13v.52c-1.11,0-2,0-2.81,0s-1.67,0-2.39,0V81.2Z" fill="#211e1f"/><path d="M78.4,78.93a2.64,2.64,0,0,0,2.53,2.45A1.42,1.42,0,0,0,82.55,80c0-2.37-4.37-1.6-4.37-4.84,0-1.12.9-2.57,3.11-2.57a5.36,5.36,0,0,1,2.29.59l.14,2h-.46a2.07,2.07,0,0,0-2.19-2,1.41,1.41,0,0,0-1.57,1.32c0,2.35,4.66,1.63,4.66,4.78,0,1.33-1.07,2.73-3.46,2.73a5.27,5.27,0,0,1-2.44-.68L78,79l.37-.1Z" fill="#211e1f"/><path d="M102.29,71.34h-.5c-.38-2.35-2.05-3.3-4.3-3.3s-5.66,1.55-5.66,6.37c0,4.06,2.89,7,6,7a4.08,4.08,0,0,0,4-3.47l.46.12L101.85,81A11.29,11.29,0,0,1,97.41,82c-4.7,0-7.67-3-7.67-7.55,0-4.12,3.68-7.07,7.61-7.07a14.56,14.56,0,0,1,4.74,1.07l.2,2.87Z" fill="#211e1f"/><path d="M103,81.2h.38c.56,0,1,0,1-.66V69.35c0-1.3-.3-1.35-1.06-1.57v-.32a12.82,12.82,0,0,0,2.06-.86,2.33,2.33,0,0,1,.44-.22c.13,0,.17.12.17.28V80.54c0,.66.44.66,1,.66h.34v.52c-.68,0-1.38,0-2.11,0s-1.44,0-2.18,0V81.2Z" fill="#211e1f"/><path d="M115.91,80.62c0,.36.22.38.56.38l.8,0v.42a20.57,20.57,0,0,0-2.89.62l-.1-.06V80.34c-1.2,1-2.13,1.68-3.56,1.68a2.16,2.16,0,0,1-2.2-2.39V74.49c0-.52-.08-1-1.21-1.12V73c.73,0,2.33-.14,2.59-.14s.22.14.22.58v5.18c0,.6,0,2.33,1.75,2.33a4.49,4.49,0,0,0,2.43-1.22V74.31c0-.4-1-.62-1.69-.82v-.36c1.81-.12,2.94-.28,3.14-.28s.16.14.16.36v7.41Z" fill="#211e1f"/><path d="M119.9,74a5.12,5.12,0,0,1,3-1.45c2.33,0,3.73,2,3.73,4.22,0,2.63-1.93,5.26-4.8,5.26a5.9,5.9,0,0,1-2.79-.7l-.6.46-.42-.22A23.45,23.45,0,0,0,118.3,78V69.35c0-1.3-.31-1.35-1.07-1.57v-.32a12.6,12.6,0,0,0,2.07-.86,2.06,2.06,0,0,1,.44-.22c.12,0,.16.12.16.28V74Zm0,5.46h0a2.16,2.16,0,0,0,2.07,2c2.15,0,3-2.11,3-3.9,0-2.16-1.64-4-3.21-4a3.13,3.13,0,0,0-1.91.94v4.88Z" fill="#211e1f"/><path d="M35.14,69.93c0-1.8-.94-1.69-1.84-1.7V67.7c.78,0,1.58,0,2.37,0s2,0,3.47,0c5.2,0,8,3.48,8,7,0,2-1.16,7-8.27,7-1,0-2,0-2.91,0s-1.79,0-2.69,0V81.2c1.2-.12,1.78-.16,1.84-1.53V69.93Zm2,9.42h0c0,1.55,1.1,1.73,2.09,1.73,4.34,0,5.76-3.27,5.76-6.27,0-3.75-2.41-6.46-6.28-6.46-.83,0-1.21.06-1.57.08V79.35Z" fill="#211e1f"/><path d="M47.88,81.2h.38c.56,0,1,0,1-.66V75.09c0-.88-.3-1-1-1.4v-.32a22.44,22.44,0,0,0,2.14-.73.71.71,0,0,1,.37-.1c.09,0,.14.12.14.29v7.71c0,.66.44.66,1,.66h.34v.52c-.68,0-1.39,0-2.11,0s-1.44,0-2.18,0V81.2ZM50,69.45h0a1,1,0,0,1,0-2,1,1,0,0,1,1,1A1,1,0,0,1,50,69.45Z" fill="#211e1f"/><path d="M54.08,75.21c0-.74-.22-.94-1.16-1.32v-.38a24.79,24.79,0,0,0,2.64-1c.06,0,.12,0,.12.2v1.31a5.92,5.92,0,0,1,3.48-1.51c1.71,0,2.31,1.25,2.31,2.81v5.19c0,.66.44.66,1,.66h.36v.52c-.7,0-1.4,0-2.12,0s-1.45,0-2.17,0V81.2h.36c.56,0,1,0,1-.66v-5.2c0-1.15-.7-1.71-1.85-1.71a5.41,5.41,0,0,0-2.33,1v6c0,.66.45.66,1,.66h.36v.52c-.7,0-1.41,0-2.13,0s-1.44,0-2.17,0V81.2h.37c.56,0,1,0,1-.66V75.21Z" fill="#211e1f"/><path d="M64.36,76.18a5,5,0,0,0,0,1.16c.12,1.91,1.35,3.48,3,3.48A3.81,3.81,0,0,0,70,79.47l.28.28A4.68,4.68,0,0,1,66.59,82c-3.19,0-3.84-3.09-3.84-4.37,0-3.94,2.65-5.11,4.06-5.11A3.19,3.19,0,0,1,70.2,75.7a2.17,2.17,0,0,1,0,.36l-.18.12Zm3.56-.64h0c.5,0,.56-.27.56-.51a1.7,1.7,0,0,0-1.75-1.84c-1.22,0-2.07.9-2.31,2.35Z" fill="#211e1f"/><path d="M70.67,81.2h.54c.56,0,1,0,1-.66V74.89c0-.62-.74-.74-1-.9v-.3c1.46-.62,2.27-1.15,2.45-1.15s.18.06.18.27v1.8h0c.5-.78,1.35-2.07,2.57-2.07a1.09,1.09,0,0,1,1.14,1.07,1,1,0,0,1-.94,1c-.62,0-.62-.48-1.33-.48a1.69,1.69,0,0,0-1.46,1.67v4.72c0,.66.4.66,1,.66h1.13v.52c-1.11,0-2,0-2.81,0s-1.67,0-2.39,0V81.2Z" fill="#211e1f"/><path d="M78.4,78.93a2.64,2.64,0,0,0,2.53,2.45A1.42,1.42,0,0,0,82.55,80c0-2.37-4.37-1.6-4.37-4.84,0-1.12.9-2.57,3.11-2.57a5.36,5.36,0,0,1,2.29.59l.14,2h-.46a2.07,2.07,0,0,0-2.19-2,1.41,1.41,0,0,0-1.57,1.32c0,2.35,4.66,1.63,4.66,4.78,0,1.33-1.07,2.73-3.46,2.73a5.27,5.27,0,0,1-2.44-.68L78,79l.37-.1Z" fill="#211e1f"/><path d="M102.29,71.34h-.5c-.38-2.35-2.05-3.3-4.3-3.3s-5.66,1.55-5.66,6.37c0,4.06,2.89,7,6,7a4.08,4.08,0,0,0,4-3.47l.46.12L101.85,81A11.29,11.29,0,0,1,97.41,82c-4.7,0-7.67-3-7.67-7.55,0-4.12,3.68-7.07,7.61-7.07a14.56,14.56,0,0,1,4.74,1.07l.2,2.87Z" fill="#211e1f"/><path d="M103,81.2h.38c.56,0,1,0,1-.66V69.35c0-1.3-.3-1.35-1.06-1.57v-.32a12.82,12.82,0,0,0,2.06-.86,2.33,2.33,0,0,1,.44-.22c.13,0,.17.12.17.28V80.54c0,.66.44.66,1,.66h.34v.52c-.68,0-1.38,0-2.11,0s-1.44,0-2.18,0V81.2Z" fill="#211e1f"/><path d="M115.91,80.62c0,.36.22.38.56.38l.8,0v.42a20.57,20.57,0,0,0-2.89.62l-.1-.06V80.34c-1.2,1-2.13,1.68-3.56,1.68a2.16,2.16,0,0,1-2.2-2.39V74.49c0-.52-.08-1-1.21-1.12V73c.73,0,2.33-.14,2.59-.14s.22.14.22.58v5.18c0,.6,0,2.33,1.75,2.33a4.49,4.49,0,0,0,2.43-1.22V74.31c0-.4-1-.62-1.69-.82v-.36c1.81-.12,2.94-.28,3.14-.28s.16.14.16.36v7.41Z" fill="#211e1f"/><path d="M119.9,74a5.12,5.12,0,0,1,3-1.45c2.33,0,3.73,2,3.73,4.22,0,2.63-1.93,5.26-4.8,5.26a5.9,5.9,0,0,1-2.79-.7l-.6.46-.42-.22A23.45,23.45,0,0,0,118.3,78V69.35c0-1.3-.31-1.35-1.07-1.57v-.32a12.6,12.6,0,0,0,2.07-.86,2.06,2.06,0,0,1,.44-.22c.12,0,.16.12.16.28V74Zm0,5.46h0a2.16,2.16,0,0,0,2.07,2c2.15,0,3-2.11,3-3.9,0-2.16-1.64-4-3.21-4a3.13,3.13,0,0,0-1.91.94v4.88Z" fill="#211e1f"/></svg>