<svg xmlns="http://www.w3.org/2000/svg" viewBox="0 0 162.71 61.59"><title>logostacked-right-white</title><path d="M162.57,52.62c-.14,0-.62.05-1.81.05s-1.85-.05-2-.05-.09,0-.09.12v.32c0,.07,0,.13.12.13h.59c.37,0,.52.14.52.65v1c0,.74,0,1.13-.34,1.3a4.09,4.09,0,0,1-1.94.24c-1.4,0-2.42-.88-3.58-1.83-.18-.14-.28-.07-.33,0s-.22.54-.27.67a.34.34,0,0,0,.08.41,5.55,5.55,0,0,0,4,1.53,8.28,8.28,0,0,0,4-.93c.14-.06.23-.12.23-.23s-.06-.25-.06-.45V53.71c0-.41.17-.52.43-.52h.48c.09,0,.11,0,.11-.11v-.36C162.71,52.65,162.69,52.62,162.57,52.62Z" fill="#fff"/><path d="M158,47.35a3.24,3.24,0,0,1,2.35,1,5.65,5.65,0,0,1,1.14,2c0,.09.05.13.14.12l.34-.06c.06,0,.06-.08.06-.2l-.15-2.84c0-.11,0-.2-.17-.2s-.13.05-.2.15l-.16.22c-.09.12-.17.16-.34,0a5.28,5.28,0,0,0-2.9-.76c-2.62,0-4.5.56-5.71,4.34l-1.16,3-1.77-4s-.74-1.77-1.07-1.77-1.08,1.65-1.08,1.65-1.92,4.1-2,4.4l0,0L143,47.88c-.09-.3.06-.5.35-.5h.26c.1,0,.13,0,.13-.11v-.36c0-.07,0-.1-.11-.1l-1.39,0c-.07,0-.17.21-.27.48-.44,1-2.51,5.48-2.62,5.84h-.06l-2.57-6c-.06-.17-.15-.31-.35-.31s-.31.23-.37.37c-.29.71-3.18,8.65-3.32,9a.7.7,0,0,1-.63.46h-.29c-.09,0-.1,0-.1.12v.38s0,.07.08.07.54,0,1.34,0,1.36,0,1.5,0,.11,0,.11-.11V56.8c0-.07,0-.12-.1-.12h-.38c-.34,0-.48-.19-.48-.39a61.77,61.77,0,0,1,2-6.72h.06l2,5.07s.47,1.11.76,1.11c.44,0,1.11-1.56,1.11-1.56s1.92-4.27,2-4.57h0L144,56.19a.34.34,0,0,1-.34.49h-.27c-.1,0-.13,0-.13.12v.35c0,.07,0,.1.12.1l1.17,0a.45.45,0,0,0,.27-.12.52.52,0,0,0,.14-.19c.06-.16,2.57-5.45,2.7-5.85h.05l2.57,5.8c.06.17.16.32.36.32.76,0,1-.31,1.31-1.17.16-.45,1.08-3.05,1.92-5.27C154.91,48.12,156.44,47.35,158,47.35Z" fill="#fff"/><path d="M123.07,53c0-.31-.24-.57-.56-.87a1.52,1.52,0,0,0-1.07-.44c1.91-1.92,3.51-3,4-3.61a.34.34,0,0,0,.07-.18,1.71,1.71,0,0,0-.76-1c-.11,0-.19.08-.32.19-.68.58-1.46,1.28-3.41,3.21a17.49,17.49,0,0,0-3,3.46,3.2,3.2,0,0,0-.51,1.51,1.18,1.18,0,0,0,.44.93c.52.57.88.89,1.39.89,1.31,0,3.18-2.41,3.64-3.52A1.76,1.76,0,0,0,123.07,53Zm-3.3,2.36c-.41.35-.62.46-.82.46s-.19-.13-.19-.24c0-.74,2.11-3.3,2.88-3.3a.22.22,0,0,1,.24.2C121.85,53.12,120.42,54.79,119.77,55.34Z" fill="#fff"/><path d="M129.59,51.67a.71.71,0,0,0-.37.16,50.49,50.49,0,0,1-5.11,4,.29.29,0,0,1-.15,0,.17.17,0,0,1-.18-.17.29.29,0,0,1,.08-.17,29.25,29.25,0,0,1,3.57-3.19.07.07,0,0,0,0-.07,1.5,1.5,0,0,0-1.14-.91.24.24,0,0,0-.15,0c-2,1.63-3.73,2.83-3.73,4.1a2.41,2.41,0,0,0,.23.83c.3.57.51.7.77.7s.46,0,2-1.31a.18.18,0,0,1,.08,0s0,0,0,0a.2.2,0,0,1-.06.11c-.93.92-1.54,1.53-2.29,2.39a3.74,3.74,0,0,0-1.19,2.14,1.37,1.37,0,0,0,.8,1.21c.11,0,.32-.43.44-.62a50.13,50.13,0,0,1,6-7.15c.57-.58,1.2-1.09,1.2-1.23C130.52,52.09,129.84,51.67,129.59,51.67Z" fill="#fff"/><path d="M66.43,17.43c1.48,1,3,1.3,6.9,1.3,4.74,0,6.41-.25,7.79-1.16s2.12-2.41,2.12-5.15c0-.91,0-2.41-.1-4.26H73.65v3.4h3.91a4.79,4.79,0,0,1,0,.58c0,1.94-.88,2.47-4.13,2.47-1.92,0-2.93-.34-3.34-1.08-.32-.58-.44-1.88-.44-4.23a12.52,12.52,0,0,1,.25-3.6C70.4,4.51,71.41,4.12,74,4.12s3.21.31,3.43,1.77h5.71c-.09-3.32-.94-4.67-3.28-5.42A18.41,18.41,0,0,0,74.34,0a27,27,0,0,0-5.17.3A6,6,0,0,0,64.6,3.62c-.54,1.25-.7,2.91-.7,7.64C63.9,14.36,64.66,16.18,66.43,17.43Z" fill="#fff"/><path d="M90.27,13.69h4.19c1.77,0,2.37.64,2.37,2.44v2.46h5.74V15.22c0-2.36-1.2-3.49-3.82-3.6v-.19c3.38-.72,4-1.55,4-5.68,0-2.71-.76-4.12-2.65-5A12.33,12.33,0,0,0,95.25.14H84.62V18.59h5.65Zm0-9.32h4.19c2.09,0,2.5.36,2.5,2.16,0,2.54-.32,3-2.21,3H90.27Z" fill="#fff"/><path d="M106.42,17.59c1.45.86,3.09,1.14,6.49,1.14,5,0,7.38-.67,8.84-2.49,1.1-1.36,1.35-2.66,1.35-6.78a22.63,22.63,0,0,0-.31-4.92A5.28,5.28,0,0,0,119.38.72C118.12.19,116.64,0,113.8,0a24.3,24.3,0,0,0-5.4.41c-2.24.61-3.81,1.91-4.32,3.55-.41,1.27-.56,3-.56,6.52C103.52,14.72,104.15,16.27,106.42,17.59ZM109.6,5.67c.44-1.16,1.2-1.44,3.72-1.44s3.1.2,3.57,1c.38.63.44,1.3.44,3.79s-.06,3.26-.38,4c-.47,1.13-1.17,1.44-3.47,1.44-3.85,0-4.16-.36-4.16-4.62C109.32,7.3,109.38,6.2,109.6,5.67Z" fill="#fff"/><path d="M127.07,17.87c1.42.67,3.09.86,7.29.86,3.31,0,4.92-.31,6.25-1.19a4.35,4.35,0,0,0,2-3.79c.13-1.58.13-1.72.13-2V.14h-5.64V11.92c0,2.16-.51,2.58-3.19,2.58-3.25,0-3.82-.34-3.82-2.33V.14h-5.64v12a15.11,15.11,0,0,0,.06,1.88A4.11,4.11,0,0,0,127.07,17.87Z" fill="#fff"/><path d="M150.57,13.86h3.37l.92,0a31.22,31.22,0,0,0,3.66-.16,4.83,4.83,0,0,0,3.21-1.83c.73-1.05,1-2.32,1-4.95s-.41-4-1.51-5.09A6.68,6.68,0,0,0,156.4.14H144.92V18.59h5.65Zm0-9.65h3.56a4.61,4.61,0,0,1,1.74.16c.82.31,1.07.91,1.07,2.57,0,1.47-.19,2.11-.72,2.41-.35.19-.45.19-2.12.25h-3.53Z" fill="#fff"/><polygon points="5.65 34.15 14.6 34.15 14.6 30.75 5.65 30.75 5.65 27.43 15.23 27.43 15.23 23.36 0 23.36 0 41.81 15.42 41.81 15.42 37.75 5.65 37.75 5.65 34.15" fill="#fff"/><path d="M37.66,23.36H31.13L29.2,26.74c-.63,1.13-1.23,2.24-1.86,3.4h-.09c-.6-1.16-1.23-2.27-1.83-3.4L23.5,23.36H17l5.9,9-6.31,9.49h6.62l2.08-3.73c.7-1.25,1.39-2.49,2-3.74h.1c.69,1.3,1.35,2.55,2,3.74l2.08,3.73H38l-6.25-9.49Z" fill="#fff"/><path d="M51.1,35.51c0,1.71-.79,2.21-3.51,2.21-3,0-3.69-.64-3.69-3.4,0-3.85.07-4.85.29-5.48.35-1,1.2-1.36,3.22-1.36,2.93,0,3.5.33,3.53,2.13L51,30h5.58c0-.88,0-1.16-.06-1.71-.13-2.08-.79-3.38-2.18-4.15s-2.43-.89-5.77-.89c-1.92,0-3.22,0-3.91.11A7.71,7.71,0,0,0,40.09,25c-1.42,1.19-2,2.77-2,5.7,0,1.74.07,4.46.13,5.29.22,2.73,1.23,4.34,3.34,5.28,1.29.58,2.27.69,6.15.69a24.77,24.77,0,0,0,4.51-.22A6.09,6.09,0,0,0,56,39.43c.51-.8.7-1.74.7-4v-.55H51.06A4.44,4.44,0,0,1,51.1,35.51Z" fill="#fff"/><polygon points="71.88 30.33 64.56 30.33 64.56 23.36 58.92 23.36 58.92 41.81 64.56 41.81 64.56 34.56 71.88 34.56 71.88 41.81 77.53 41.81 77.53 23.36 71.88 23.36 71.88 30.33" fill="#fff"/><path d="M85.32,23.36,79,41.81h5.86l1-3.18h7.54l1.1,3.18h5.75L93.86,23.36Zm1.76,11.7,2.59-8,2.65,8Z" fill="#fff"/><path d="M122.75,23.36h-5.58v7.39c0,2.1,0,2.1.22,6.64h-.22l-1.23-3.13-1.36-3.13-3.34-7.77h-9.49V41.81h5.51V34.43c0-2,0-2-.25-6.81h.25c.86,2.16,1.74,4.29,2.62,6.42l3.31,7.77h9.56Z" fill="#fff"/><path d="M135.75,23.22a26.77,26.77,0,0,0-5.18.31A6,6,0,0,0,126,26.85c-.54,1.24-.69,2.9-.69,7.63,0,3.1.75,4.93,2.52,6.17,1.48,1,3,1.3,6.91,1.3,4.73,0,6.4-.25,7.79-1.16s2.11-2.41,2.11-5.15c0-.91,0-2.4-.09-4.26h-9.5v3.41H139a3.6,3.6,0,0,1,0,.58c0,1.93-.89,2.46-4.14,2.46-1.92,0-2.93-.33-3.34-1.08-.31-.58-.44-1.88-.44-4.23a12.52,12.52,0,0,1,.25-3.6c.47-1.19,1.48-1.58,4.07-1.58s3.22.31,3.44,1.78h5.71c-.1-3.32-1-4.68-3.28-5.43A18.45,18.45,0,0,0,135.75,23.22Z" fill="#fff"/><polygon points="152.94 34.15 161.89 34.15 161.89 30.75 152.94 30.75 152.94 27.43 162.52 27.43 162.52 23.36 147.29 23.36 147.29 41.81 162.71 41.81 162.71 37.75 152.94 37.75 152.94 34.15" fill="#fff"/></svg>