<svg xmlns="http://www.w3.org/2000/svg" viewBox="0 0 162.71 61.59"><title>logostacked-center-color</title><path d="M103.84,52.62c-.15,0-.63.05-1.82.05s-1.85-.05-2-.05-.08,0-.08.12v.32c0,.07,0,.13.11.13h.6c.37,0,.51.14.51.65v1c0,.74,0,1.13-.34,1.3a4,4,0,0,1-1.93.24c-1.41,0-2.42-.88-3.59-1.83-.18-.14-.28-.07-.32,0s-.23.54-.28.67a.34.34,0,0,0,.08.41,5.57,5.57,0,0,0,4,1.53,8.31,8.31,0,0,0,4-.93c.14-.06.22-.12.22-.23s-.06-.25-.06-.45V53.71c0-.41.18-.52.43-.52h.48c.09,0,.12,0,.12-.11v-.36C104,52.65,104,52.62,103.84,52.62Z" fill="#00205c"/><path d="M99.24,47.35a3.27,3.27,0,0,1,2.36,1,5.78,5.78,0,0,1,1.13,2c0,.09.06.13.14.12l.34-.06c.06,0,.06-.08.06-.2l-.14-2.84c0-.11,0-.2-.17-.2s-.13.05-.2.15l-.17.22c-.09.12-.17.16-.34,0a5.26,5.26,0,0,0-2.9-.76c-2.62,0-4.5.56-5.71,4.34l-1.16,3-1.77-4S90,48.4,89.65,48.4s-1.09,1.65-1.09,1.65-1.91,4.1-2,4.4l0,0L84.3,47.88c-.1-.3,0-.5.34-.5h.27c.1,0,.13,0,.13-.11v-.36c0-.07,0-.1-.12-.1l-1.39,0c-.06,0-.17.21-.27.48-.44,1-2.5,5.48-2.62,5.84h-.06l-2.57-6a.36.36,0,0,0-.35-.31c-.2,0-.31.23-.37.37-.28.71-3.18,8.65-3.32,9a.7.7,0,0,1-.62.46h-.3c-.09,0-.1,0-.1.12v.38s0,.07.09.07.53,0,1.33,0,1.36,0,1.5,0,.12,0,.12-.11V56.8c0-.07,0-.12-.1-.12H75.5c-.33,0-.48-.19-.48-.39a59.84,59.84,0,0,1,2-6.72h.05l2,5.07s.46,1.11.75,1.11c.45,0,1.12-1.56,1.12-1.56s1.91-4.27,2-4.57h0l2.2,6.56c.1.3,0,.49-.34.49h-.27c-.1,0-.12,0-.12.12v.35c0,.07,0,.1.11.1l1.17,0a.42.42,0,0,0,.27-.12.37.37,0,0,0,.14-.19c.06-.16,2.57-5.45,2.7-5.85H89l2.57,5.8c0,.17.15.32.35.32.76,0,1-.31,1.32-1.17.15-.45,1.08-3.05,1.92-5.27C96.18,48.12,97.71,47.35,99.24,47.35Z" fill="#00205c"/><path d="M64.33,53c0-.31-.23-.57-.56-.87a1.52,1.52,0,0,0-1.06-.44c1.91-1.92,3.51-3,4-3.61a.34.34,0,0,0,.07-.18,1.74,1.74,0,0,0-.75-1c-.11,0-.2.08-.32.19-.69.58-1.47,1.28-3.42,3.21a17.49,17.49,0,0,0-3,3.46,3.3,3.3,0,0,0-.5,1.51,1.19,1.19,0,0,0,.43.93c.52.57.88.89,1.39.89,1.31,0,3.19-2.41,3.65-3.52A1.76,1.76,0,0,0,64.33,53ZM61,55.34c-.41.35-.62.46-.82.46s-.18-.13-.18-.24c0-.74,2.11-3.3,2.87-3.3.12,0,.24.06.24.2C63.12,53.12,61.69,54.79,61,55.34Z" fill="#00205c"/><path d="M70.85,51.67a.74.74,0,0,0-.37.16,49.35,49.35,0,0,1-5.11,4,.26.26,0,0,1-.15,0,.16.16,0,0,1-.17-.17.27.27,0,0,1,.07-.17,28.62,28.62,0,0,1,3.58-3.19s0,0,0-.07a1.5,1.5,0,0,0-1.14-.91.24.24,0,0,0-.15,0c-2,1.63-3.73,2.83-3.73,4.1a2.23,2.23,0,0,0,.24.83c.29.57.51.7.77.7s.45,0,2-1.31a.16.16,0,0,1,.09,0s0,0,0,0a.15.15,0,0,1-.06.11c-.93.92-1.54,1.53-2.28,2.39a3.74,3.74,0,0,0-1.19,2.14,1.37,1.37,0,0,0,.79,1.21c.11,0,.32-.43.45-.62a50.73,50.73,0,0,1,6-7.15c.57-.58,1.2-1.09,1.2-1.23C71.78,52.09,71.1,51.67,70.85,51.67Z" fill="#00205c"/><path d="M34.47,17.43c1.49,1,3,1.3,6.91,1.3,4.73,0,6.41-.25,7.79-1.16s2.12-2.41,2.12-5.15c0-.91,0-2.41-.1-4.26H41.7v3.4h3.91a4.79,4.79,0,0,1,0,.58c0,1.94-.88,2.47-4.13,2.47-1.93,0-2.93-.34-3.34-1.08-.32-.58-.45-1.88-.45-4.23A12.34,12.34,0,0,1,38,5.7c.47-1.19,1.48-1.58,4.06-1.58s3.22.31,3.44,1.77h5.71c-.09-3.32-.94-4.67-3.28-5.42A18.41,18.41,0,0,0,42.39,0a26.91,26.91,0,0,0-5.17.3,6,6,0,0,0-4.57,3.32c-.54,1.25-.7,2.91-.7,7.64C32,14.36,32.71,16.18,34.47,17.43Z" fill="#00205c"/><path d="M64.88,16.13v2.46h5.74V15.22c0-2.36-1.2-3.49-3.82-3.6v-.19c3.38-.72,4-1.55,4-5.68,0-2.71-.76-4.12-2.65-5A12.33,12.33,0,0,0,63.3.14H52.67V18.59h5.65v-4.9h4.19C64.28,13.69,64.88,14.33,64.88,16.13ZM58.32,4.37h4.19c2.09,0,2.5.36,2.5,2.16,0,2.54-.32,3-2.21,3H58.32Z" fill="#00205c"/><path d="M74.46,17.59c1.46.86,3.1,1.14,6.5,1.14,5.05,0,7.38-.67,8.83-2.49,1.11-1.36,1.36-2.66,1.36-6.78a22.63,22.63,0,0,0-.31-4.92A5.3,5.3,0,0,0,87.43.72C86.17.19,84.68,0,81.85,0a24.3,24.3,0,0,0-5.4.41C74.21,1,72.64,2.32,72.13,4c-.41,1.27-.57,3-.57,6.52C71.56,14.72,72.19,16.27,74.46,17.59ZM77.65,5.67c.44-1.16,1.2-1.44,3.72-1.44s3.09.2,3.57,1c.38.63.44,1.3.44,3.79s-.06,3.26-.38,4c-.47,1.13-1.17,1.44-3.47,1.44-3.85,0-4.16-.36-4.16-4.62C77.37,7.3,77.43,6.2,77.65,5.67Z" fill="#00205c"/><path d="M95.12,17.87c1.42.67,3.09.86,7.29.86,3.31,0,4.92-.31,6.24-1.19a4.33,4.33,0,0,0,2-3.79c.13-1.58.13-1.72.13-2V.14h-5.65V11.92c0,2.16-.5,2.58-3.18,2.58-3.25,0-3.82-.34-3.82-2.33V.14H92.54v12a15.11,15.11,0,0,0,.06,1.88A4.11,4.11,0,0,0,95.12,17.87Z" fill="#00205c"/><path d="M129.78,11.84c.73-1.05,1-2.32,1-4.95s-.41-4-1.51-5.09a6.7,6.7,0,0,0-4.8-1.66H113V18.59h5.65V13.86H122l.92,0a31.22,31.22,0,0,0,3.66-.16A4.83,4.83,0,0,0,129.78,11.84Zm-5.52-2.49c-.34.19-.44.19-2.11.25h-3.53V4.21h3.56a4.65,4.65,0,0,1,1.74.16c.82.31,1.07.91,1.07,2.57C125,8.41,124.8,9.05,124.26,9.35Z" fill="#00205c"/><polygon points="5.65 34.15 14.6 34.15 14.6 30.75 5.65 30.75 5.65 27.43 15.23 27.43 15.23 23.36 0 23.36 0 41.81 15.42 41.81 15.42 37.75 5.65 37.75 5.65 34.15" fill="#00205c"/><path d="M37.66,23.36H31.13L29.2,26.74c-.63,1.13-1.23,2.24-1.86,3.4h-.09c-.6-1.16-1.23-2.27-1.83-3.4L23.5,23.36H17l5.9,9-6.31,9.49h6.62l2.08-3.73c.7-1.25,1.39-2.49,2-3.74h.1c.69,1.3,1.35,2.55,2,3.74l2.08,3.73H38l-6.25-9.49Z" fill="#00205c"/><path d="M51.1,35.51c0,1.71-.79,2.21-3.51,2.21-3,0-3.69-.64-3.69-3.4,0-3.85.07-4.85.29-5.48.35-1,1.2-1.36,3.22-1.36,2.93,0,3.5.33,3.53,2.13L51,30h5.58c0-.88,0-1.16-.06-1.71-.13-2.08-.79-3.38-2.18-4.15s-2.43-.89-5.77-.89c-1.92,0-3.22,0-3.91.11A7.71,7.71,0,0,0,40.09,25c-1.42,1.19-2,2.77-2,5.7,0,1.74.07,4.46.13,5.29.22,2.73,1.23,4.34,3.34,5.28,1.29.58,2.27.69,6.15.69a24.77,24.77,0,0,0,4.51-.22A6.09,6.09,0,0,0,56,39.43c.51-.8.7-1.74.7-4v-.55H51.06A4.44,4.44,0,0,1,51.1,35.51Z" fill="#00205c"/><polygon points="77.53 41.81 77.53 23.36 71.88 23.36 71.88 30.33 64.56 30.33 64.56 23.36 58.92 23.36 58.92 41.81 64.56 41.81 64.56 34.56 71.88 34.56 71.88 41.81 77.53 41.81" fill="#00205c"/><path d="M85.32,23.36,79,41.81h5.86l1-3.18h7.54l1.1,3.18h5.75L93.86,23.36Zm1.76,11.7,2.59-8,2.65,8Z" fill="#00205c"/><path d="M117.17,30.75c0,2.1,0,2.1.22,6.64h-.22l-1.23-3.13-1.36-3.13-3.34-7.77h-9.49V41.81h5.51V34.43c0-2,0-2-.25-6.81h.25c.86,2.16,1.74,4.29,2.62,6.42l3.31,7.77h9.56V23.36h-5.58Z" fill="#00205c"/><path d="M135.05,31.38v3.41H139a3.6,3.6,0,0,1,0,.58c0,1.93-.89,2.46-4.14,2.46-1.92,0-2.93-.33-3.34-1.08-.31-.58-.44-1.88-.44-4.23a12.52,12.52,0,0,1,.25-3.6c.47-1.19,1.48-1.58,4.07-1.58s3.22.31,3.44,1.78h5.71c-.1-3.32-1-4.68-3.28-5.43a18.45,18.45,0,0,0-5.52-.47,26.77,26.77,0,0,0-5.18.31A6,6,0,0,0,126,26.85c-.54,1.24-.69,2.9-.69,7.63,0,3.1.75,4.93,2.52,6.17,1.48,1,3,1.3,6.91,1.3,4.73,0,6.4-.25,7.79-1.16s2.11-2.41,2.11-5.15c0-.91,0-2.4-.09-4.26Z" fill="#00205c"/><polygon points="152.94 37.75 152.94 34.15 161.89 34.15 161.89 30.75 152.94 30.75 152.94 27.43 162.52 27.43 162.52 23.36 147.29 23.36 147.29 41.81 162.71 41.81 162.71 37.75 152.94 37.75" fill="#00205c"/></svg>