<svg xmlns="http://www.w3.org/2000/svg" viewBox="0 0 160 100"><title>logoamex</title><path d="M148,0H8C4,0,0,4,0,8V88q0,12,12,12H148q12,0,12-12V12Q160,0,148,0Z" fill="#306fc5"/><path d="M13.52,36.63l-3.1-7.56L7.34,36.63Zm68.27-3a4.19,4.19,0,0,1-2.24.39h-5.5V29.8h5.57a4.75,4.75,0,0,1,2.15.34,1.74,1.74,0,0,1,1,1.68,2,2,0,0,1-.93,1.8Zm39.23,3-3.13-7.56-3.12,7.56ZM47.88,44.8H43.24l0-14.84L36.66,44.8h-4L26.1,30V44.8H16.89l-1.74-4.23H5.73L4,44.8H-.95L7.16,25.86h6.73l7.7,17.93V25.86H29L34.9,38.71l5.44-12.85h7.54V44.8Zm18.5,0H51.26V25.86H66.38V29.8H55.78v3.42H66.13V37.1H55.78v3.78h10.6V44.8ZM87.71,31a5.34,5.34,0,0,1-3.19,5,5.25,5.25,0,0,1,2.24,1.59,5.53,5.53,0,0,1,.74,3.48V44.8H82.94l0-2.39c0-1.14.11-2.78-.71-3.69-.66-.67-1.67-.81-3.3-.81H74.05V44.8H69.52V25.86H79.93c2.32,0,4,.06,5.49.9A4.44,4.44,0,0,1,87.71,31ZM95,44.8H90.33V25.86H95V44.8Zm53.59,0h-6.41l-8.58-14.22V44.8h-9.22l-1.76-4.23h-9.41l-1.71,4.23h-5.3c-2.2,0-5-.49-6.56-2.1s-2.42-3.78-2.42-7.23c0-2.81.49-5.37,2.44-7.4,1.46-1.52,3.76-2.21,6.88-2.21h4.38v4.06h-4.29A4.37,4.37,0,0,0,103.09,31a6.26,6.26,0,0,0-1.3,4.29A6.59,6.59,0,0,0,103,39.78a4.34,4.34,0,0,0,3.15,1h2l6.38-14.89h6.78l7.67,17.91V25.86H136l8,13.19V25.86h4.63V44.8ZM-1,48.52H6.74l1.74-4.21h3.91l1.73,4.21H29.35V45.3l1.35,3.23h7.9L40,45.25v3.27H77.79l0-6.91h.73c.52,0,.66.07.66.91v6H98.73V46.91A15.44,15.44,0,0,0,106,48.52h8.23L116,44.31h3.91l1.72,4.21h15.86v-4l2.4,4h12.71V22.1H140v3.12l-1.76-3.12H125.33v3.12l-1.61-3.12H106.28a15.71,15.71,0,0,0-7.55,1.54V22.1h-12v1.54a7.47,7.47,0,0,0-5.12-1.54H37.63l-3,6.82-3-6.82H17.81v3.12L16.29,22.1H4.48L-1,34.66V48.52ZM160,62.47h-8.25a3.13,3.13,0,0,0-1.83.34,1.48,1.48,0,0,0-.67,1.36,1.43,1.43,0,0,0,1,1.41,5.11,5.11,0,0,0,1.75.22l2.45.06c2.48.06,4.13.49,5.14,1.53a2.63,2.63,0,0,1,.42.47ZM160,75c-1.1,1.61-3.24,2.42-6.14,2.42h-8.75V73.32h8.71a2.6,2.6,0,0,0,1.83-.47,1.65,1.65,0,0,0,.54-1.24,1.53,1.53,0,0,0-.56-1.25,2.26,2.26,0,0,0-1.59-.42c-4.25-.14-9.55.13-9.55-5.86,0-2.75,1.74-5.64,6.49-5.64h9V54.67h-8.38A9.46,9.46,0,0,0,146,56.21V54.67H133.6c-2,0-4.31.49-5.41,1.54V54.67H106.06v1.54c-1.76-1.27-4.73-1.54-6.1-1.54H85.36v1.54C84,54.86,80.87,54.67,79,54.67H62.64l-3.74,4-3.5-4H31V81.1h24L58.79,77l3.63,4.11H77.18V74.9h1.45A15.42,15.42,0,0,0,84.94,74V81.1H97.11V74.21h.59c.75,0,.82,0,.82.78V81.1h37a10.54,10.54,0,0,0,6.16-1.69V81.1H153.4A15.66,15.66,0,0,0,160,79.88V75ZM142,67.39a5.26,5.26,0,0,1,1.35,4c0,4.08-2.54,6-7.11,6H127.4V73.32h8.79a2.72,2.72,0,0,0,1.85-.47,1.68,1.68,0,0,0,.53-1.24,1.62,1.62,0,0,0-.55-1.25,2.39,2.39,0,0,0-1.61-.42c-4.24-.14-9.54.13-9.54-5.86,0-2.75,1.73-5.64,6.47-5.64h9.08v4h-8.31a3.06,3.06,0,0,0-1.81.34,1.58,1.58,0,0,0,.31,2.77,5.1,5.1,0,0,0,1.76.22l2.44.06c2.46.06,4.14.49,5.17,1.53Zm-40.85-1.17a4.35,4.35,0,0,1-2.24.39h-5.5V62.35H99a4.41,4.41,0,0,1,2.16.35,1.8,1.8,0,0,1,.93,1.7,2.06,2.06,0,0,1-.93,1.82Zm2.73,2.36a4.94,4.94,0,0,1,2.22,1.59c.64.92.73,1.79.75,3.46v3.75h-4.55V75c0-1.14.11-2.83-.73-3.71-.66-.68-1.67-.84-3.32-.84H93.39v6.92H88.84V58.44H99.3c2.29,0,4,.1,5.44.89a4.44,4.44,0,0,1,2.33,4.21,5.32,5.32,0,0,1-3.21,5Zm5.72-10.14h15.11v3.91h-10.6V65.8h10.34v3.86H114.09v3.77l10.6,0v3.93H109.58V58.44ZM79,67.18H73.18V62.35h5.91c1.63,0,2.77.67,2.77,2.33s-1.09,2.5-2.83,2.5ZM68.67,75.66l-7-7.72,7-7.47V75.66Zm-18-2.23H39.59V69.66h9.94V65.8H39.59V62.35H50.94l5,5.52-5.17,5.56Zm36-8.75c0,5.26-3.93,6.35-7.89,6.35H73.18v6.35h-8.8l-5.57-6.27L53,77.38H35.08V58.44H53.29l5.57,6.21,5.76-6.21H79.09c3.59,0,7.63,1,7.63,6.24Z" fill="#fff"/></svg>