<?xml version="1.0" encoding="UTF-8"?>
<svg id="Artwork" xmlns="http://www.w3.org/2000/svg" xmlns:xlink="http://www.w3.org/1999/xlink" viewBox="0 0 109.74 34.02">
  <defs>
    <style>
      .cls-1 {
        fill: none;
      }

      .cls-2 {
        clip-path: url(#clippath);
      }

      .cls-3 {
        fill: #fff;
      }

      .cls-4 {
        fill: #a6a6a6;
      }

      .cls-5, .cls-6 {
        fill: #dedbce;
      }

      .cls-7 {
        fill: #40a5d9;
      }

      .cls-8 {
        fill: #d9d6cc;
      }

      .cls-8, .cls-9, .cls-10, .cls-11, .cls-6 {
        fill-rule: evenodd;
      }

      .cls-9 {
        fill: #f26d5f;
        filter: url(#drop-shadow-3);
      }

      .cls-10 {
        fill: #ffb003;
        filter: url(#drop-shadow-1);
      }

      .cls-11 {
        fill: #40c740;
        filter: url(#drop-shadow-2);
      }

      .cls-6 {
        filter: url(#drop-shadow-4);
      }
    </style>
    <clipPath id="clippath">
      <path class="cls-1" d="M33.26,23.05v.27c0,.13,0,.25,0,.38,0,.11,0,.21,0,.32,0,.23-.02,.47-.06,.7-.04,.23-.11,.45-.22,.66-.11,.21-.25,.4-.41,.57-.17,.17-.36,.3-.57,.41-.21,.11-.43,.18-.66,.22-.23,.04-.47,.06-.7,.06-.11,0-.21,0-.32,0-.13,0-.25,0-.38,0H10.88c-.13,0-.25,0-.38,0-.11,0-.21,0-.32,0-.23,0-.47-.02-.7-.06-.23-.04-.45-.11-.66-.22-.21-.11-.4-.25-.57-.41-.17-.17-.3-.36-.41-.57-.11-.21-.18-.43-.22-.66-.04-.23-.06-.47-.06-.7,0-.11,0-.21,0-.32,0-.13,0-.25,0-.38V10.69c0-.13,0-.25,0-.38,0-.11,0-.21,0-.32,0-.23,.02-.47,.06-.7,.04-.23,.11-.45,.22-.66,.11-.21,.25-.4,.41-.57,.17-.17,.36-.3,.57-.41,.21-.11,.43-.18,.66-.22,.23-.04,.47-.06,.7-.06,.11,0,.21,0,.32,0,.13,0,.25,0,.38,0H29.94c.13,0,.25,0,.38,0,.11,0,.21,0,.32,0,.23,0,.47,.02,.7,.06,.23,.04,.45,.11,.66,.22,.21,.11,.4,.25,.57,.41,.17,.17,.3,.36,.41,.57,.11,.21,.18,.43,.22,.66,.04,.23,.06,.47,.06,.7,0,.11,0,.21,0,.32,0,.13,0,.25,0,.38v12.36Z"/>
    </clipPath>
    <filter id="drop-shadow-1" filterUnits="userSpaceOnUse">
      <feOffset dx="0" dy="-.25"/>
      <feGaussianBlur result="blur" stdDeviation=".39"/>
      <feFlood flood-color="#000" flood-opacity=".17"/>
      <feComposite in2="blur" operator="in"/>
      <feComposite in="SourceGraphic"/>
    </filter>
    <filter id="drop-shadow-2" filterUnits="userSpaceOnUse">
      <feOffset dx="0" dy="-.25"/>
      <feGaussianBlur result="blur-2" stdDeviation=".39"/>
      <feFlood flood-color="#000" flood-opacity=".16"/>
      <feComposite in2="blur-2" operator="in"/>
      <feComposite in="SourceGraphic"/>
    </filter>
    <filter id="drop-shadow-3" filterUnits="userSpaceOnUse">
      <feOffset dx="0" dy="-.25"/>
      <feGaussianBlur result="blur-3" stdDeviation=".39"/>
      <feFlood flood-color="#000" flood-opacity=".17"/>
      <feComposite in2="blur-3" operator="in"/>
      <feComposite in="SourceGraphic"/>
    </filter>
    <filter id="drop-shadow-4" filterUnits="userSpaceOnUse">
      <feOffset dx="0" dy="-.25"/>
      <feGaussianBlur result="blur-4" stdDeviation=".39"/>
      <feFlood flood-color="#000" flood-opacity=".14"/>
      <feComposite in2="blur-4" operator="in"/>
      <feComposite in="SourceGraphic"/>
    </filter>
  </defs>
  <path class="cls-4" d="M100.21,0H9.53c-.37,0-.73,0-1.09,0-.31,0-.61,0-.92,.01-.67,.02-1.34,.06-2,.18-.67,.12-1.29,.32-1.9,.63-.6,.31-1.15,.7-1.62,1.18-.48,.47-.87,1.02-1.18,1.62-.31,.61-.51,1.23-.62,1.9C.07,6.18,.03,6.85,.02,7.52c0,.31-.01,.61-.02,.92V25.58c0,.31,0,.61,.02,.92,.02,.67,.06,1.34,.18,2,.12,.67,.31,1.3,.62,1.9,.3,.6,.7,1.14,1.18,1.61,.47,.48,1.02,.87,1.62,1.18,.61,.31,1.23,.51,1.9,.63,.66,.12,1.34,.16,2,.18,.31,0,.61,.01,.92,.01,.37,0,.73,0,1.09,0H100.21c.36,0,.72,0,1.08,0,.3,0,.62,0,.92-.01,.67-.02,1.34-.06,2-.18,.67-.12,1.29-.32,1.91-.63,.6-.3,1.14-.7,1.62-1.18,.48-.47,.87-1.02,1.18-1.61,.31-.61,.51-1.23,.62-1.9,.12-.66,.16-1.33,.19-2,0-.31,0-.61,0-.92,0-.36,0-.72,0-1.09V9.53c0-.37,0-.73,0-1.09,0-.31,0-.61,0-.92-.02-.67-.06-1.34-.19-2-.11-.67-.31-1.29-.62-1.9-.31-.6-.7-1.15-1.18-1.62-.47-.47-1.02-.87-1.62-1.18-.62-.31-1.24-.51-1.91-.63-.66-.12-1.33-.16-2-.18-.3,0-.62-.01-.92-.01-.36,0-.72,0-1.08,0h0Z"/>
  <path d="M100.21,.65c.36,0,.72,0,1.08,0,.25,0,.5,0,.75,0h.16c.53,.02,1.22,.05,1.9,.17,.62,.11,1.18,.29,1.72,.56,.54,.28,1.03,.63,1.46,1.06,.42,.42,.78,.91,1.06,1.45,.27,.54,.45,1.1,.56,1.73,.12,.63,.15,1.29,.17,1.89,0,.3,0,.61,0,.93,0,.36,0,.72,0,1.08v14.95c0,.36,0,.72,0,1.09,0,.31,0,.61,0,.9-.02,.62-.06,1.28-.18,1.92-.11,.62-.29,1.18-.56,1.71-.28,.55-.64,1.04-1.07,1.46-.42,.43-.91,.78-1.45,1.06-.53,.27-1.1,.46-1.73,.57-.66,.12-1.33,.15-1.9,.17-.3,0-.61,.01-.91,.01-.36,0-.72,0-1.08,0H9.53c-.37,0-.73,0-1.09,0-.3,0-.6,0-.9-.01-.57-.02-1.25-.05-1.91-.17-.63-.11-1.2-.3-1.72-.57-.54-.27-1.03-.63-1.46-1.06-.42-.41-.78-.9-1.06-1.45-.27-.52-.45-1.09-.56-1.72-.12-.68-.16-1.37-.17-1.9,0-.21,0-.41-.01-.62V8.15c0-.2,0-.41,.01-.62,.01-.53,.04-1.22,.17-1.91,.11-.63,.29-1.19,.56-1.72,.27-.54,.63-1.03,1.06-1.46,.43-.43,.92-.78,1.45-1.06,.54-.27,1.1-.46,1.72-.57,.68-.12,1.38-.15,1.9-.17h.2c.24,0,.48-.01,.71-.01,.36,0,.73,0,1.09,0H100.21"/>
  <g class="cls-2">
    <rect class="cls-5" x="8.35" y="8.17" width="24.1" height="16.78"/>
    <rect class="cls-7" x="8.63" y="8.44" width="23.56" height="10"/>
    <path class="cls-10" d="M32.19,12.69c0-.08,0-.16,0-.24,0-.07,0-.14,0-.2,0-.15-.01-.3-.04-.44-.03-.15-.07-.29-.14-.42-.07-.13-.16-.25-.26-.36-.11-.11-.23-.19-.36-.26-.13-.07-.27-.11-.42-.14-.15-.03-.3-.03-.44-.04-.07,0-.14,0-.2,0-.08,0-.16,0-.24,0H10.74c-.08,0-.16,0-.24,0-.07,0-.14,0-.2,0-.15,0-.3,.01-.44,.04-.15,.03-.29,.07-.42,.14-.13,.07-.25,.16-.36,.26-.11,.11-.19,.23-.26,.36-.07,.13-.11,.27-.14,.42-.03,.15-.03,.3-.04,.44,0,.07,0,.14,0,.2,0,.08,0,.16,0,.24v7.89h23.56v-7.89Z"/>
    <path class="cls-11" d="M32.19,14.83c0-.08,0-.16,0-.24,0-.07,0-.14,0-.2,0-.15-.01-.3-.04-.44-.03-.15-.07-.29-.14-.42-.07-.13-.16-.25-.26-.36-.11-.11-.23-.19-.36-.26-.13-.07-.27-.11-.42-.14-.15-.03-.3-.03-.44-.04-.07,0-.14,0-.2,0-.08,0-.16,0-.24,0H10.74c-.08,0-.16,0-.24,0-.07,0-.14,0-.2,0-.15,0-.3,.01-.44,.04-.15,.03-.29,.07-.42,.14-.13,.07-.25,.16-.36,.26-.11,.11-.19,.23-.26,.36-.07,.13-.11,.27-.14,.42-.03,.15-.03,.3-.04,.44,0,.07,0,.14,0,.2,0,.08,0,.16,0,.24v7.89h23.56v-7.89Z"/>
    <path class="cls-9" d="M32.19,16.97c0-.08,0-.16,0-.24,0-.07,0-.14,0-.2,0-.15-.01-.3-.04-.44-.03-.15-.07-.29-.14-.42-.07-.13-.16-.25-.26-.36-.11-.11-.23-.19-.36-.26-.13-.07-.27-.11-.42-.14-.15-.03-.3-.03-.44-.04-.07,0-.14,0-.2,0-.08,0-.16,0-.24,0H10.74c-.08,0-.16,0-.24,0-.07,0-.14,0-.2,0-.15,0-.3,.01-.44,.04-.15,.03-.29,.07-.42,.14-.13,.07-.25,.16-.36,.26-.11,.11-.19,.23-.26,.36-.07,.13-.11,.27-.14,.42-.03,.15-.03,.3-.04,.44,0,.07,0,.14,0,.2,0,.08,0,.16,0,.24v7.89h23.56v-7.89Z"/>
    <path class="cls-8" d="M7.2,7.01v11.07h1.43v-7.53c0-.08,0-.16,0-.24,0-.07,0-.14,0-.2,0-.15,.01-.3,.04-.44,.03-.15,.07-.29,.14-.42,.07-.13,.16-.25,.26-.36,.11-.11,.23-.19,.36-.26,.13-.07,.27-.11,.42-.14,.15-.03,.3-.03,.44-.04,.07,0,.14,0,.2,0,.08,0,.16,0,.24,0H30.08c.08,0,.16,0,.24,0,.07,0,.14,0,.2,0,.15,0,.3,.01,.44,.04,.15,.03,.29,.07,.42,.14,.13,.07,.25,.16,.36,.26,.11,.11,.19,.23,.26,.36,.07,.13,.11,.27,.14,.42,.03,.15,.03,.3,.04,.44,0,.07,0,.14,0,.2,0,.08,0,.16,0,.24v7.53h1.43V7.01H7.2Z"/>
    <path class="cls-6" d="M26.99,17.01c-.15,0-.31,0-.46,0-.13,0-.26,0-.39,0-.28,0-.57,.02-.84,.07-.28,.05-.54,.13-.8,.26-.03,.02-.74,.34-1.37,1.32-.48,.75-1.42,1.54-2.73,1.54s-2.25-.79-2.73-1.54c-.67-1.04-1.43-1.35-1.37-1.32-.26-.13-.52-.21-.8-.26-.28-.05-.56-.07-.84-.07-.13,0-.26,0-.39,0-.15,0-.31,0-.46,0H7.2v10h26.42v-10h-6.64Z"/>
  </g>
  <g>
    <g>
      <path class="cls-3" d="M41.23,17.66h1.35l2.93,8.06h-1.31l-.74-2.18h-3.1l-.74,2.18h-1.31l2.93-8.06Zm-.54,4.88h2.43l-1.2-3.54h-.02l-1.21,3.54Z"/>
      <path class="cls-3" d="M46.28,19.84h1.21v1.01h.03c.35-.7,1-1.12,1.84-1.12,1.5,0,2.46,1.17,2.46,3.05h0c0,1.88-.97,3.05-2.44,3.05-.83,0-1.51-.42-1.85-1.11h-.03v2.94h-1.21v-7.83Zm4.3,2.94h0c0-1.26-.6-2.02-1.54-2.02s-1.56,.79-1.56,2.02h0c0,1.22,.65,2.02,1.56,2.02s1.54-.77,1.54-2.01Z"/>
      <path class="cls-3" d="M53,19.84h1.21v1.01h.03c.35-.7,1-1.12,1.84-1.12,1.5,0,2.46,1.17,2.46,3.05h0c0,1.88-.97,3.05-2.44,3.05-.83,0-1.51-.42-1.85-1.11h-.03v2.94h-1.21v-7.83Zm4.3,2.94h0c0-1.26-.6-2.02-1.54-2.02s-1.56,.79-1.56,2.02h0c0,1.22,.65,2.02,1.56,2.02s1.54-.77,1.54-2.01Z"/>
      <path class="cls-3" d="M59.59,17.66h1.21v8.06h-1.21v-8.06Z"/>
      <path class="cls-3" d="M61.97,22.8h0c0-1.84,1.06-3.07,2.71-3.07s2.66,1.18,2.66,2.95v.41h-4.16c.02,1.11,.63,1.76,1.59,1.76,.71,0,1.19-.37,1.34-.81l.02-.04h1.14v.06c-.2,.93-1.11,1.78-2.53,1.78-1.73,0-2.77-1.18-2.77-3.03Zm1.22-.57h2.95c-.1-1.02-.67-1.51-1.46-1.51s-1.39,.53-1.49,1.51Z"/>
      <path class="cls-3" d="M71.17,17.66h1.3l1.5,6.32h.02l1.7-6.32h1.18l1.7,6.32h.03l1.5-6.32h1.3l-2.18,8.06h-1.2l-1.73-6.08h-.03l-1.74,6.08h-1.2l-2.17-8.06Z"/>
      <path class="cls-3" d="M81.76,24.05h0c0-1.03,.79-1.66,2.18-1.74l1.6-.09v-.44c0-.65-.42-1.04-1.17-1.04-.7,0-1.13,.33-1.23,.8v.05h-1.15v-.06c.09-1.01,.97-1.79,2.41-1.79s2.35,.76,2.35,1.94v4.05h-1.21v-.93h-.02c-.34,.63-1.02,1.03-1.8,1.03-1.17,0-1.96-.72-1.96-1.78Zm2.29,.81c.85,0,1.49-.58,1.49-1.34v-.46l-1.44,.09c-.73,.04-1.13,.36-1.13,.86h0c0,.53,.42,.85,1.07,.85Z"/>
      <path class="cls-3" d="M88.07,17.66h1.21v8.06h-1.21v-8.06Z"/>
      <path class="cls-3" d="M90.98,17.66h1.21v8.06h-1.21v-8.06Z"/>
      <path class="cls-3" d="M93.25,22.8h0c0-1.84,1.06-3.07,2.71-3.07s2.66,1.18,2.66,2.95v.41h-4.16c.02,1.11,.63,1.76,1.59,1.76,.71,0,1.19-.37,1.34-.81l.02-.04h1.14v.06c-.2,.93-1.11,1.78-2.53,1.78-1.73,0-2.77-1.18-2.77-3.03Zm1.22-.57h2.95c-.1-1.02-.67-1.51-1.46-1.51s-1.38,.53-1.49,1.51Z"/>
      <path class="cls-3" d="M100.14,24.17v-3.37h-.84v-.96h.84v-1.53h1.23v1.53h1.1v.96h-1.1v3.29c0,.6,.27,.78,.78,.78,.13,0,.23-.01,.32-.02v.93c-.14,.02-.37,.05-.61,.05-1.16,0-1.72-.49-1.72-1.66Z"/>
    </g>
    <g>
      <path class="cls-3" d="M42.19,12.48h-2.41l-.61,1.73h-.79l2.23-6.05h.75l2.23,6.05h-.79l-.61-1.73Zm-2.19-.64h1.96l-.95-2.7h-.07l-.95,2.7Z"/>
      <path class="cls-3" d="M44.07,11.95c0-1.42,.75-2.34,1.9-2.34,.63,0,1.16,.3,1.42,.79h.06v-2.51h.72v6.32h-.69v-.72h-.07c-.29,.5-.82,.8-1.45,.8-1.16,0-1.9-.92-1.9-2.34Zm.75,0c0,1.06,.5,1.69,1.32,1.69s1.33-.65,1.33-1.69-.51-1.69-1.33-1.69-1.32,.64-1.32,1.69Z"/>
      <path class="cls-3" d="M49.34,11.95c0-1.42,.75-2.34,1.9-2.34,.63,0,1.16,.3,1.42,.79h.06v-2.51h.72v6.32h-.69v-.72h-.07c-.29,.5-.82,.8-1.45,.8-1.16,0-1.9-.92-1.9-2.34Zm.75,0c0,1.06,.5,1.69,1.32,1.69s1.33-.65,1.33-1.69-.51-1.69-1.33-1.69-1.32,.64-1.32,1.69Z"/>
      <path class="cls-3" d="M58.27,8.52v1.17h1.01v.6h-1.01v2.56c0,.53,.2,.76,.67,.76,.13,0,.2,0,.34-.02v.61c-.14,.02-.28,.04-.42,.04-.93,0-1.31-.34-1.31-1.21v-2.74h-.73v-.6h.73v-1.17h.72Z"/>
      <path class="cls-3" d="M60.07,11.95c0-1.46,.8-2.34,2.09-2.34s2.08,.89,2.08,2.34-.8,2.34-2.08,2.34-2.09-.89-2.09-2.34Zm3.42,0c0-1.07-.48-1.69-1.34-1.69s-1.34,.62-1.34,1.69,.48,1.69,1.34,1.69,1.34-.62,1.34-1.69Z"/>
    </g>
  </g>
</svg>