<svg xmlns="http://www.w3.org/2000/svg" viewBox="0 0 160 100"><title>logodiscover</title><path d="M148,0H8C4,0,0,4,0,8V88q0,12,12,12H148q12,0,12-12V12Q160,0,148,0Z" fill="#f4f4f4"/><path d="M49.54,100H148q12,0,12-12V40.43S136.16,82.4,49.54,100Z" fill="#d97b16"/><path d="M52,48.92h1.44l4.45,6.64h0V48.92H59V57H57.65l-4.49-6.64h0V57H52Zm9.08,0h5.22v1H62.22v2.41h3.83v1H62.22V56h4.32v1H61.12Zm8.66,1h-2.6v-1h6.3v1h-2.6v7h-1.1Zm3.84-1h1.14l1.78,6.46h0l1.91-6.46h1.25l1.91,6.46h0l1.78-6.46h1.14L82.22,57H81.07l-2-6.6h0l-2,6.6H76Zm15.71,8.29a4.29,4.29,0,0,1-1.7-.33A4,4,0,0,1,86.3,56a4.08,4.08,0,0,1-.87-1.34,4.71,4.71,0,0,1,0-3.36,4.19,4.19,0,0,1,.87-1.34,4,4,0,0,1,1.33-.9A4.68,4.68,0,0,1,91,49a4,4,0,0,1,1.33.9,4.19,4.19,0,0,1,.87,1.34,4.71,4.71,0,0,1,0,3.36A4.08,4.08,0,0,1,92.36,56a4,4,0,0,1-1.33.9A4.29,4.29,0,0,1,89.33,57.21Zm0-1a3.05,3.05,0,0,0,1.26-.26,2.87,2.87,0,0,0,1-.69,2.94,2.94,0,0,0,.62-1,3.66,3.66,0,0,0,0-2.5,2.94,2.94,0,0,0-.62-1,2.87,2.87,0,0,0-1-.69,3.05,3.05,0,0,0-1.26-.26,3,3,0,0,0-1.25.26,2.81,2.81,0,0,0-1,.69,3.1,3.1,0,0,0-.62,1,3.66,3.66,0,0,0,0,2.5,3.1,3.1,0,0,0,.62,1,2.81,2.81,0,0,0,1,.69,3,3,0,0,0,1.25.26Zm5.79-7.26H98a3.39,3.39,0,0,1,1.28.21,2.21,2.21,0,0,1,.79.54,1.81,1.81,0,0,1,.4.73,2.74,2.74,0,0,1,.12.78,2.12,2.12,0,0,1-.14.75,2.16,2.16,0,0,1-.39.65,2.2,2.2,0,0,1-1.46.73l2.3,3.69H99.49l-2.06-3.56H96.21V57H95.12Zm1.09,3.56h1.44a4.46,4.46,0,0,0,.63,0,1.61,1.61,0,0,0,.56-.19,1,1,0,0,0,.4-.39,1.67,1.67,0,0,0,0-1.34,1,1,0,0,0-.4-.39,1.61,1.61,0,0,0-.56-.19,4.46,4.46,0,0,0-.63,0H96.21Zm5.88-3.56h1.09v3.49h.1l3.57-3.49h1.53l-3.91,3.73L108.64,57H107l-3.76-4h-.1v4h-1.09Z"/><path d="M14.13,23.88h7.54a11.7,11.7,0,0,1,3.64.58,9,9,0,0,1,3.11,1.77,8.72,8.72,0,0,1,2.16,3,10.15,10.15,0,0,1,.81,4.22,8.92,8.92,0,0,1-3.34,7.22,10.16,10.16,0,0,1-3.27,1.76,11.28,11.28,0,0,1-3.52.58H14.13Zm5.94,16a12.11,12.11,0,0,0,3-.36,7.11,7.11,0,0,0,2.47-1.14,5.4,5.4,0,0,0,1.67-2,6.78,6.78,0,0,0,.6-3,7.43,7.43,0,0,0-.54-3,5.12,5.12,0,0,0-1.5-2,6.24,6.24,0,0,0-2.26-1.13A10.51,10.51,0,0,0,20.64,27h-3.1v13Zm14.48-16H38V43h-3.4ZM51.5,28a3.14,3.14,0,0,0-1.44-1.15,5.15,5.15,0,0,0-1.91-.36,4.8,4.8,0,0,0-1.14.13A3,3,0,0,0,46,27a2.31,2.31,0,0,0-.72.77A2.24,2.24,0,0,0,45,28.93a1.76,1.76,0,0,0,.68,1.49,6.54,6.54,0,0,0,1.67.89c.67.25,1.4.49,2.19.73a8.77,8.77,0,0,1,2.18,1,5.29,5.29,0,0,1,1.68,1.65,4.87,4.87,0,0,1,.67,2.72,6.09,6.09,0,0,1-.56,2.69A5.4,5.4,0,0,1,52,42a6.45,6.45,0,0,1-2.23,1.14,9.31,9.31,0,0,1-2.67.38,10,10,0,0,1-3.43-.6,6.49,6.49,0,0,1-2.83-2l2.56-2.48A4.35,4.35,0,0,0,45,39.88a4.65,4.65,0,0,0,2.15.53,4.87,4.87,0,0,0,1.19-.16,3.54,3.54,0,0,0,1.08-.49,2.65,2.65,0,0,0,.78-.82,2.22,2.22,0,0,0,.3-1.15,2,2,0,0,0-.68-1.62,5.81,5.81,0,0,0-1.67-1c-.67-.26-1.39-.51-2.19-.74a9.55,9.55,0,0,1-2.18-1,5.41,5.41,0,0,1-1.68-1.62,4.83,4.83,0,0,1-.67-2.71,5.22,5.22,0,0,1,.6-2.57,5.51,5.51,0,0,1,1.6-1.79,6.88,6.88,0,0,1,2.25-1.07,9.46,9.46,0,0,1,2.59-.35,9.31,9.31,0,0,1,2.93.46A6.76,6.76,0,0,1,54,25.37h0Zm19.25.38a5.74,5.74,0,0,0-2-1.52,5.47,5.47,0,0,0-2-.37A6.65,6.65,0,0,0,64,27,6.08,6.08,0,0,0,62,28.46a6.71,6.71,0,0,0-1.34,2.17,7.59,7.59,0,0,0-.47,2.68,8.32,8.32,0,0,0,.47,2.83A6.62,6.62,0,0,0,62,38.38,6.16,6.16,0,0,0,64,39.87a6.5,6.5,0,0,0,2.69.54A4.93,4.93,0,0,0,69,39.85a6,6,0,0,0,2-1.76l2.81,2a7.64,7.64,0,0,1-3.16,2.6,9.82,9.82,0,0,1-4,.81,11.1,11.1,0,0,1-4.06-.72,9.05,9.05,0,0,1-5.28-5.17,10.67,10.67,0,0,1-.76-4.08,11.14,11.14,0,0,1,.76-4.17,9.06,9.06,0,0,1,5.28-5.24,11.31,11.31,0,0,1,4.06-.71,9.32,9.32,0,0,1,3.61.69,8.47,8.47,0,0,1,3.09,2.33h0ZM96.4,23.88h3.92l5.21,14.45,5.37-14.45h3.67L106.85,43h-2.94Zm20.23,0h12.66V27H120v4.7h8.77v3.08H120v5.18h9.74V43H116.63Zm16.49,0h6.64a13.56,13.56,0,0,1,2.66.26,6.71,6.71,0,0,1,2.29.88,4.64,4.64,0,0,1,1.59,1.67,5.44,5.44,0,0,1,.59,2.67,5.32,5.32,0,0,1-1.15,3.49,4.92,4.92,0,0,1-3.28,1.7L147.54,43h-4.1L139,34.9h-2.49V43h-3.4Zm6,8.1c.49,0,1,0,1.46-.06a4.63,4.63,0,0,0,1.33-.33,2.25,2.25,0,0,0,1-.78,2.5,2.5,0,0,0,.38-1.47A2.37,2.37,0,0,0,143,28a2.22,2.22,0,0,0-.92-.77,4.18,4.18,0,0,0-1.26-.34,12.16,12.16,0,0,0-1.33-.08h-2.95V32Z"/><circle cx="86.05" cy="33.45" r="10.05" fill="#d97b16"/></svg>