<?xml version="1.0" encoding="UTF-8"?>
<svg id="Layer_1" data-name="Layer 1" xmlns="http://www.w3.org/2000/svg" viewBox="0 0 280 36">
  <defs>
    <style>
      .cls-1, .cls-2 {
        fill: #fff;
      }

      .cls-3 {
        fill: #3a3f41;
      }

      .cls-4 {
        fill: #f8ba00;
      }

      .cls-4, .cls-5, .cls-6, .cls-2, .cls-7, .cls-8 {
        fill-rule: evenodd;
      }

      .cls-5 {
        fill: #3e82f1;
      }

      .cls-6 {
        fill: #32a753;
      }

      .cls-7 {
        fill: #e73e34;
      }
    </style>
  </defs>
  <path class="cls-8" d="M4,0H276c2.21,0,4,1.79,4,4v28c0,2.21-1.79,4-4,4H4c-2.21,0-4-1.79-4-4V4C0,1.79,1.79,0,4,0h0Z"/>
  <rect class="cls-3" x="112.5" y="10" width="1" height="16"/>
  <g>
    <path class="cls-1" d="M126.73,17.18l-.63-.21c-.6-.21-1.04-.42-1.32-.64-.28-.22-.42-.51-.42-.85,0-.36,.16-.66,.47-.9,.31-.23,.7-.35,1.16-.35s.83,.12,1.12,.36c.29,.24,.49,.52,.59,.84l1.41-.6c-.18-.53-.53-1.01-1.05-1.43-.52-.42-1.22-.64-2.1-.64-.61,0-1.15,.12-1.63,.37-.48,.25-.86,.58-1.13,1-.27,.42-.41,.88-.41,1.37,0,.72,.23,1.3,.69,1.74,.46,.44,1.02,.77,1.69,1.01l.63,.22c.76,.27,1.29,.54,1.59,.8,.3,.27,.46,.6,.46,1.02,0,.45-.17,.8-.52,1.06-.35,.26-.77,.39-1.26,.39-.53,0-.99-.17-1.36-.53-.38-.35-.64-.8-.79-1.35l-1.48,.6c.25,.88,.71,1.56,1.37,2.04,.66,.49,1.41,.73,2.24,.73,.55,0,1.09-.11,1.6-.32s.95-.54,1.28-.99c.34-.44,.5-.99,.5-1.64,0-.8-.24-1.44-.71-1.93-.47-.48-1.14-.87-1.99-1.17Z"/>
    <path class="cls-1" d="M133.87,15.64c-.62,0-1.18,.12-1.68,.36-.5,.24-.91,.58-1.23,1.02l1.08,.83c.2-.28,.45-.5,.78-.66,.32-.16,.66-.24,1.03-.24,.51,0,.93,.14,1.26,.41,.33,.28,.49,.63,.49,1.07v.36c-.2-.09-.46-.18-.8-.26-.34-.08-.71-.12-1.13-.12-.85,0-1.55,.21-2.11,.64-.56,.43-.83,1.01-.83,1.75,0,.47,.11,.88,.34,1.25,.22,.37,.54,.65,.94,.85,.4,.2,.86,.3,1.37,.3,.49,0,.91-.1,1.29-.31,.37-.21,.66-.46,.87-.77h.07v.85h1.51v-4.45c0-.92-.28-1.64-.84-2.15-.56-.51-1.36-.76-2.39-.76Zm1.47,5.33c-.17,.3-.4,.54-.7,.71-.3,.18-.63,.27-1.01,.27-.4,0-.73-.11-.98-.32-.25-.21-.38-.48-.38-.8,0-.36,.14-.66,.41-.89,.27-.23,.7-.34,1.27-.34,.31,0,.6,.04,.89,.11,.28,.07,.53,.17,.75,.29,0,.35-.08,.67-.25,.97Z"/>
    <polygon class="cls-1" points="141.89 21.01 141.84 21.01 139.86 15.86 138.14 15.86 141.08 23 142.62 23 145.59 15.86 143.91 15.86 141.89 21.01"/>
    <path class="cls-1" d="M161.26,21.78c-.35,0-.59-.1-.73-.29-.15-.16-.22-.44-.22-.83v-3.44h1.74v-1.36h-1.74v-2.02h-1.54v2.02h-1.25v1.36h1.25v3.77c0,.7,.2,1.26,.6,1.67,.18,.17,.41,.31,.69,.41,.28,.1,.58,.16,.9,.16,.44,0,.81-.07,1.12-.21v-1.5c-.14,.09-.27,.16-.39,.2-.12,.04-.26,.06-.42,.06Z"/>
    <path class="cls-1" d="M151.42,16.11c-.53-.32-1.15-.48-1.87-.48s-1.31,.17-1.85,.52c-.54,.35-.96,.81-1.27,1.39-.3,.58-.46,1.22-.46,1.9,0,.72,.16,1.37,.47,1.94,.31,.57,.75,1.02,1.3,1.35,.56,.33,1.18,.49,1.88,.49,.76,0,1.4-.17,1.95-.5,.54-.34,.98-.8,1.32-1.39l-1.3-.62c-.2,.35-.46,.62-.78,.82-.32,.2-.7,.3-1.14,.3-.55,0-1.03-.18-1.45-.54-.42-.36-.65-.87-.71-1.53h5.47c.03-.2,.04-.36,.04-.49,0-.69-.14-1.31-.41-1.86-.28-.55-.68-.98-1.2-1.3Zm-3.83,2.48c.13-.49,.37-.89,.71-1.18,.34-.29,.76-.44,1.25-.44,.41,0,.76,.08,1.04,.25,.28,.17,.5,.38,.64,.62,.14,.25,.22,.5,.24,.75h-3.88Z"/>
    <path class="cls-1" d="M180.96,16.13c-.52-.33-1.11-.49-1.75-.49-.5,0-.96,.11-1.36,.34-.4,.22-.7,.5-.91,.83h-.07v-.94h-1.47v10.16h1.54v-2.95l-.07-.99h.07c.21,.32,.51,.59,.91,.81,.4,.22,.85,.34,1.36,.34,.64,0,1.23-.16,1.75-.49,.52-.33,.94-.78,1.24-1.35,.3-.57,.45-1.22,.45-1.95s-.15-1.38-.45-1.95c-.3-.57-.72-1.02-1.24-1.35Zm-.14,4.55c-.2,.36-.46,.64-.78,.84-.33,.2-.68,.29-1.05,.29s-.72-.1-1.04-.29c-.32-.2-.58-.48-.78-.84-.2-.36-.29-.78-.29-1.25s.1-.88,.29-1.24c.2-.36,.46-.64,.78-.83,.32-.2,.67-.29,1.04-.29s.72,.1,1.05,.29c.33,.2,.59,.47,.78,.83,.2,.36,.29,.77,.29,1.24s-.1,.88-.29,1.25Z"/>
    <path class="cls-1" d="M168.65,16.14c-.57-.34-1.21-.5-1.93-.5s-1.36,.17-1.93,.5c-.57,.33-1.01,.79-1.33,1.36-.32,.58-.48,1.22-.48,1.93s.16,1.35,.48,1.93c.32,.58,.76,1.03,1.33,1.36,.57,.33,1.21,.5,1.93,.5s1.36-.17,1.93-.5c.57-.33,1.01-.79,1.33-1.36,.32-.58,.48-1.22,.48-1.93s-.16-1.34-.48-1.92c-.32-.58-.76-1.04-1.33-1.37Zm-.04,4.56c-.2,.36-.47,.63-.8,.83-.34,.19-.7,.29-1.09,.29s-.76-.1-1.09-.29c-.34-.19-.6-.47-.81-.83-.2-.36-.3-.78-.3-1.27s.1-.91,.3-1.26c.2-.35,.47-.63,.81-.82,.34-.19,.7-.29,1.09-.29s.76,.1,1.09,.29c.34,.19,.6,.46,.8,.82,.2,.35,.3,.77,.3,1.26s-.1,.91-.3,1.27Z"/>
    <path class="cls-1" d="M216.17,19.28c0-.69-.14-1.31-.41-1.86-.28-.55-.68-.98-1.2-1.3-.53-.32-1.15-.48-1.87-.48s-1.31,.17-1.85,.52c-.54,.35-.96,.81-1.27,1.39-.3,.58-.45,1.22-.45,1.9,0,.72,.16,1.37,.47,1.94,.31,.57,.75,1.02,1.3,1.35,.56,.33,1.18,.49,1.88,.49,.76,0,1.4-.17,1.95-.5,.54-.34,.98-.8,1.32-1.39l-1.3-.62c-.2,.35-.45,.62-.78,.82-.32,.2-.7,.3-1.14,.3-.55,0-1.03-.18-1.45-.54-.42-.36-.65-.87-.71-1.53h5.47c.03-.2,.04-.36,.04-.49Zm-5.45-.69c.13-.49,.37-.89,.71-1.18,.34-.29,.76-.44,1.25-.44,.41,0,.76,.08,1.04,.25,.28,.17,.5,.38,.64,.62,.14,.25,.22,.5,.24,.75h-3.88Z"/>
    <path class="cls-1" d="M204.95,15.64c-.46,0-.89,.11-1.29,.33-.41,.22-.71,.5-.92,.83h-.07v-.94h-1.47v7.14h1.54v-3.86c0-.36,.07-.7,.22-1.02,.15-.32,.36-.57,.63-.76,.27-.19,.58-.29,.92-.29,.49,0,.87,.13,1.14,.39,.28,.26,.41,.67,.41,1.23v4.31h1.54v-4.52c0-.88-.23-1.57-.68-2.08-.45-.51-1.11-.76-1.98-.76Z"/>
    <path class="cls-1" d="M197.83,16.14c-.57-.34-1.21-.5-1.93-.5s-1.36,.17-1.93,.5c-.57,.33-1.01,.79-1.33,1.36-.32,.58-.48,1.22-.48,1.93s.16,1.35,.48,1.93c.32,.58,.76,1.03,1.33,1.36,.57,.33,1.21,.5,1.93,.5s1.36-.17,1.93-.5c.57-.33,1.01-.79,1.33-1.36,.32-.58,.48-1.22,.48-1.93s-.16-1.34-.48-1.92c-.32-.58-.76-1.04-1.33-1.37Zm-.04,4.56c-.2,.36-.47,.63-.8,.83-.34,.19-.7,.29-1.09,.29s-.76-.1-1.09-.29c-.34-.19-.6-.47-.81-.83-.2-.36-.3-.78-.3-1.27s.1-.91,.3-1.26c.2-.35,.47-.63,.81-.82,.34-.19,.7-.29,1.09-.29s.76,.1,1.09,.29c.34,.19,.6,.46,.8,.82,.2,.35,.3,.77,.3,1.26s-.1,.91-.3,1.27Z"/>
    <path class="cls-1" d="M187.97,15.64c-.47,0-.9,.11-1.31,.33-.41,.22-.71,.5-.92,.83h-.07l.07-1.09v-2.73h-1.54v10.02h1.54v-3.84c0-.36,.08-.71,.24-1.03,.16-.32,.38-.58,.65-.78,.28-.2,.59-.29,.93-.29,.46,0,.83,.14,1.11,.41,.28,.27,.43,.68,.43,1.22v4.31h1.54v-4.52c0-.88-.23-1.57-.69-2.08-.46-.51-1.12-.76-1.99-.76Z"/>
  </g>
  <g>
    <g>
      <path class="cls-5" d="M75.69,17.13c0-.47-.04-.93-.12-1.37h-6.34v2.59h3.63c-.16,.84-.63,1.56-1.34,2.04v1.68h2.17c1.27-1.17,2-2.9,2-4.94"/>
      <path class="cls-6" d="M69.23,23.7c1.82,0,3.34-.6,4.46-1.62l-2.17-1.68c-.6,.41-1.38,.64-2.29,.64-1.75,0-3.24-1.18-3.78-2.77h-2.23v1.73c1.11,2.2,3.38,3.7,6.01,3.7"/>
      <path class="cls-4" d="M65.45,18.27c-.14-.41-.21-.84-.21-1.29s.07-.88,.21-1.29v-1.73h-2.23c-.46,.91-.72,1.93-.72,3.02s.26,2.11,.72,3.02l2.23-1.73h0Z"/>
      <path class="cls-7" d="M69.23,12.92c.99,0,1.88,.34,2.58,1.01h0l1.92-1.92c-1.17-1.08-2.69-1.75-4.5-1.75-2.63,0-4.9,1.51-6.01,3.7l2.23,1.73c.53-1.59,2.02-2.77,3.78-2.77"/>
    </g>
    <g>
      <path class="cls-2" d="M86.83,12.21c-.71-.67-1.57-1.01-2.58-1.01h-3.99v11.69h1.5v-4.74h2.49c1.02,0,1.89-.33,2.58-1,.72-.66,1.08-1.49,1.08-2.48s-.36-1.79-1.08-2.47Zm-1.06,3.9c-.39,.4-.89,.6-1.49,.6h-2.52v-4.08h2.52c.6,0,1.1,.21,1.49,.62,.4,.4,.6,.88,.6,1.42s-.2,1.04-.6,1.44Z"/>
      <path class="cls-2" d="M91.38,14.63c-1.43,0-2.51,.52-3.24,1.57l1.32,.83c.49-.71,1.15-1.06,1.99-1.06,.56,0,1.04,.18,1.45,.55,.41,.36,.62,.81,.62,1.33v.34c-.58-.33-1.31-.49-2.21-.49-1.05,0-1.88,.25-2.51,.74-.63,.49-.94,1.15-.94,1.98,0,.78,.3,1.44,.89,1.96,.59,.52,1.33,.78,2.22,.78,1.04,0,1.86-.46,2.49-1.37h.07v1.11h1.44v-4.93c0-1.03-.32-1.85-.96-2.44-.64-.59-1.52-.89-2.63-.89Zm1.41,6.48c-.5,.47-1.06,.7-1.69,.7-.45,0-.84-.13-1.17-.39-.33-.26-.5-.59-.5-.98,0-.44,.2-.8,.61-1.09,.41-.29,.92-.44,1.53-.44,.84,0,1.49,.18,1.96,.56,0,.63-.25,1.18-.74,1.65Z"/>
      <polygon class="cls-2" points="101.6 14.89 99.27 20.64 99.24 20.64 96.86 14.89 95.22 14.89 98.52 22.38 96.66 26.42 98.21 26.42 103.23 14.89 101.6 14.89"/>
    </g>
  </g>
</svg>