<svg xmlns="http://www.w3.org/2000/svg" width="5.8in" height="2.7in" viewBox="0 0 421.1 192.3"><defs><style>.a{fill:#fff;}</style></defs><title>TPM Life CDN Logos</title><path class="a" d="M210.5,1.4a38.2,38.2,0,0,1,35.5,24,314.8,314.8,0,0,1,42.5,7.9l6.2,1.6-0.8,3.8h40.8l-3.8,5.7a1.6,1.6,0,0,0,.2,1,16.6,16.6,0,0,0,2,2.9,19.1,19.1,0,0,0,2.5,2.4l4.2,3.2-7.1,6.6-0.2.3-0.3.5h38.8a7.4,7.4,0,0,0,.6-0.9,9.5,9.5,0,0,1,5.7-3.9l1.2-.2h0.9a9.7,9.7,0,0,1,4.7,1.2,8.8,8.8,0,0,1,2,1.6,11.9,11.9,0,0,1,2.1,2.9,10,10,0,0,1,.9,3v1.3c0,0.3-.1.5-0.1,0.7h8.4v9.2h9.2V95.2l4.5,4.6,1.3,1.3,5,5.1,1.7,1.8-0.3.3-4.4,4.4-0.3.3-1.9,1.9-1.3,1.3-4.5,4.6v19.1h-9.2v9.2h-8.4a10.1,10.1,0,0,1,.1,1.3h0v0.2h0a9.8,9.8,0,0,1-8,8.9l-2,.2a10.2,10.2,0,0,1-3.7-.7,17,17,0,0,1-4.6-3.2,3.3,3.3,0,0,0-.8-0.7h-9.7a11.5,11.5,0,0,1-2.2,4,12.2,12.2,0,0,1-8.6,4.2h-1a19.3,19.3,0,0,1-8.9-2.6,12.4,12.4,0,0,1-2.5,4,13,13,0,0,1-8.9,4h-0.7a12.8,12.8,0,0,1-9.7-4.5,14.1,14.1,0,0,1-2.1-3.4c-3.1,1.8-6.3,9.7-6.3,9.7H287.4c0.2,0,.1,2.3.1,2.5a10.7,10.7,0,0,1-1.6,4.9,9.7,9.7,0,0,1-8,3.9,10.9,10.9,0,0,1-5.4-1.4,33.5,33.5,0,0,1-4.1-3.2H249a11.4,11.4,0,0,1-2.2,4,12.3,12.3,0,0,1-8.6,4.2h-0.9a19.3,19.3,0,0,1-8.9-2.6,12.5,12.5,0,0,1-2.5,4,13.1,13.1,0,0,1-8.9,4h-0.8a12.5,12.5,0,0,1-5.6-1.4A12.5,12.5,0,0,1,205,191h-0.8a13.1,13.1,0,0,1-8.9-4,12.5,12.5,0,0,1-2.5-4,19.3,19.3,0,0,1-8.9,2.6h-0.9a12.3,12.3,0,0,1-8.6-4.2,11.4,11.4,0,0,1-2.2-4H152.7a33.5,33.5,0,0,1-4.1,3.2,10.9,10.9,0,0,1-5.4,1.4,9.7,9.7,0,0,1-8-3.9,10.7,10.7,0,0,1-1.6-4.9c0-.3-0.1-2.5.1-2.5H111.9s-3.2-7.9-6.3-9.7a14.1,14.1,0,0,1-2.1,3.4,12.8,12.8,0,0,1-9.7,4.5H93.1a13,13,0,0,1-8.9-4,12.4,12.4,0,0,1-2.5-4,19.3,19.3,0,0,1-8.9,2.6h-1a12.2,12.2,0,0,1-8.6-4.2,11.5,11.5,0,0,1-2.2-4H51.3a3.3,3.3,0,0,0-.8.7,17,17,0,0,1-4.6,3.2,10.2,10.2,0,0,1-3.7.7l-2-.2a9.8,9.8,0,0,1-8-8.9h0v-0.2h0a10.1,10.1,0,0,1,.1-1.3H23.7v-9.2H14.6V120.7L10,116.1l-1.3-1.3-1.9-1.9-0.3-.3-4.4-4.4L2,107.9l1.7-1.8,5-5.1L10,99.7l4.5-4.6V76.1h9.2V66.9h8.4c0-.2-0.1-0.5-0.1-0.7V64.9a10,10,0,0,1,.9-3A11.9,11.9,0,0,1,35.1,59a8.8,8.8,0,0,1,2-1.6,9.7,9.7,0,0,1,4.7-1.2h0.9l1.2,0.2a9.5,9.5,0,0,1,5.7,3.9,7.4,7.4,0,0,0,.6.9H88.9l-0.3-.5-0.2-.3-7.1-6.6,4.2-3.2A19.1,19.1,0,0,0,88,48.2a16.6,16.6,0,0,0,2-2.9,1.6,1.6,0,0,0,.2-1l-3.8-5.7h40.8l-0.8-3.8,6.2-1.6a314.8,314.8,0,0,1,42.5-7.9,38.2,38.2,0,0,1,35.5-24m0-1.4a39.6,39.6,0,0,0-36.4,24.1A316.4,316.4,0,0,0,132.3,32l-6.2,1.6-1.3.3,0.3,1.3,0.4,2.1H83.8l1.4,2.1,3.5,5.3A15.2,15.2,0,0,1,87,47.4a17.5,17.5,0,0,1-2.3,2.2l-2.3,1.8-1.8,1.4-1.3,1,1.2,1.1,5.4,5H50.9l-0.2-.3a10.9,10.9,0,0,0-6.5-4.4l-1.3-.2h-1a11.2,11.2,0,0,0-5.5,1.4,10.2,10.2,0,0,0-2.4,1.8,13.4,13.4,0,0,0-2.4,3.2,11.4,11.4,0,0,0-1,3.3h0v0.8H22.4v9.2H13.2V94.6L9.1,98.8l-1.3,1.3-5,5.1-0.9.9L1,107H0.9l-0.9.9,1.5,1.4,4.2,4.2,0.3,0.3,1.8,1.9,1.3,1.3,4.1,4.2v19.9h9.2v9.2h8.3v0.4a11.1,11.1,0,0,0,9.1,10.3l2.3,0.2a11.5,11.5,0,0,0,4.2-.8,16.9,16.9,0,0,0,4.7-3.2l0.3-.2,0.3-.3H60a12.7,12.7,0,0,0,2.1,3.5,13.6,13.6,0,0,0,9.6,4.7h1.1a19.1,19.1,0,0,0,8.2-2.1,13.7,13.7,0,0,0,2.2,3.1,14.3,14.3,0,0,0,9.9,4.5h0.7a14.3,14.3,0,0,0,10.7-5,13.9,13.9,0,0,0,1.5-2.1,32.4,32.4,0,0,1,4.6,8L111,172h21.1a12.7,12.7,0,0,0,.1,1.3,11.8,11.8,0,0,0,1.9,5.6,11.1,11.1,0,0,0,9.1,4.5,12.3,12.3,0,0,0,6.1-1.6,19.9,19.9,0,0,0,3.1-2.4l0.8-.7h17.9a12.7,12.7,0,0,0,2.1,3.5,13.6,13.6,0,0,0,9.6,4.7h1a19.1,19.1,0,0,0,8.2-2.1,13.8,13.8,0,0,0,2.2,3,14.5,14.5,0,0,0,9.9,4.5H205a13.9,13.9,0,0,0,5.5-1.2,13.9,13.9,0,0,0,5.5,1.2H217a14.5,14.5,0,0,0,9.9-4.5,13.8,13.8,0,0,0,2.2-3,19.1,19.1,0,0,0,8.2,2.1h1a13.6,13.6,0,0,0,9.6-4.7,12.7,12.7,0,0,0,2.1-3.5h17.9l0.8,0.7a19.9,19.9,0,0,0,3.1,2.4,12.3,12.3,0,0,0,6.1,1.6,11.1,11.1,0,0,0,9.1-4.5,11.8,11.8,0,0,0,1.9-5.6,12.7,12.7,0,0,0,.1-1.3h21.1l0.4-.9a32.5,32.5,0,0,1,4.6-8,13.9,13.9,0,0,0,1.5,2.1,14.3,14.3,0,0,0,10.7,5H328a14.3,14.3,0,0,0,9.9-4.5,13.7,13.7,0,0,0,2.2-3,19.1,19.1,0,0,0,8.2,2.1h1.1a13.6,13.6,0,0,0,9.6-4.7,12.7,12.7,0,0,0,2.1-3.5h8.4l0.3,0.3,0.3,0.2a16.9,16.9,0,0,0,4.7,3.2,11.5,11.5,0,0,0,4.2.8l2.3-.2a11.1,11.1,0,0,0,9.1-10.3h0v-0.2h8.3v-9.2h9.2V121.2l4.1-4.2,1.3-1.3,6.3-6.4,1.4-1.5L407.9,94.6V74.7h-9.2V65.5h-8.3V64.8h0a11.4,11.4,0,0,0-1-3.3,13.4,13.4,0,0,0-2.4-3.2,10.2,10.2,0,0,0-2.4-1.8,11.2,11.2,0,0,0-5.4-1.4h-1l-1.3.2a10.9,10.9,0,0,0-6.5,4.4l-0.2.3H335.3l5.4-5,1.2-1.1-1.3-1-1.8-1.4-2.3-1.8a17.5,17.5,0,0,1-2.3-2.2,15.2,15.2,0,0,1-1.8-2.6l3.5-5.3,1.4-2.1H295.5l0.4-2.1,0.3-1.3-1.3-.3L288.8,32A316.4,316.4,0,0,0,247,24.1,39.6,39.6,0,0,0,210.5,0h0Z"/><path class="a" d="M407.4,105.5l-0.6-.6h0l-0.4-.4-6.5-6.6V82.8h-4.9a4.2,4.2,0,0,1-1.6-.3,4.3,4.3,0,0,1-1.4-.9l-0.5-.7h0l-0.4-.7a4.1,4.1,0,0,1-.2-0.8h0a4.7,4.7,0,0,1-.1-0.8V73.6H30.4v4.9a4.2,4.2,0,0,1-.3,1.6,4.3,4.3,0,0,1-.9,1.4l-0.7.5h0l-0.7.4-0.8.2H21.3V97.9l-6.5,6.5-1.3,1.3h0l-1.1,1.1-1.1,1.1,1.1,1.1,1.1,1.1h0l1.3,1.3,6.5,6.5V133h4.9a4.1,4.1,0,0,1,1.6.3,4.3,4.3,0,0,1,1.4.9l0.5,0.7h0l0.4,0.7a4.1,4.1,0,0,1,.2.8h0a4.7,4.7,0,0,1,.1.8v4.9H390.6v-4.9a4.1,4.1,0,0,1,.3-1.6,4.2,4.2,0,0,1,.9-1.4l0.6-.5h0l0.7-.4,0.8-.2h5.8V117.9l6.5-6.6,0.4-.4h0l0.6-.6,1.3-1.3,1.1-1.1-1.1-1.1Zm-1.1,3.7-1.1,1.1h0l-6.9,7v14.2h-3.4a5.7,5.7,0,0,0-2.2.4,6,6,0,0,0-1.9,1.3,5.8,5.8,0,0,0-1.7,4.1v3.4H32v-3.4a5.7,5.7,0,0,0-.4-2.2,5.8,5.8,0,0,0-1.3-1.9,5.8,5.8,0,0,0-4.1-1.7H22.8V117.3l-6.9-7h0l-1.1-1.1-1.3-1.3,1.3-1.3,1.1-1.1h0l6.9-7V84.3h3.4a5.7,5.7,0,0,0,2.2-.4,5.9,5.9,0,0,0,1.9-1.3A5.8,5.8,0,0,0,32,78.6V75.1H389.1v3.4a5.7,5.7,0,0,0,.4,2.2,5.9,5.9,0,0,0,1.3,1.9,5.8,5.8,0,0,0,4.1,1.7h3.4V98.5l6.9,7h0l1.1,1.1,1.3,1.3Z"/><path class="a" d="M394.9,87.7a9.2,9.2,0,0,1-9.2-9.2H35.4a9.2,9.2,0,0,1-9.2,9.2V99.9l-7.9,8,7.9,8v12.2a9.2,9.2,0,0,1,9.2,9.2H385.7a9.2,9.2,0,0,1,9.2-9.2V115.9l7.9-8-7.9-8V87.7Zm-353,25.1a10.8,10.8,0,0,0-4.9-4.9,8.9,8.9,0,0,0,4.9-4.9,8.9,8.9,0,0,0,4.9,4.9A10.8,10.8,0,0,0,41.9,112.8ZM98.3,97.1H95.6c-2.4-7-3.3-9.9-9.7-9.9H83.1v38.5c0,2.5.5,3.6,2.7,3.7l4,0.3v2.7H65.2v-2.7l4-.3c2.2-.1,2.7-1.2,2.7-3.7V87.2H69.1c-6.4,0-7.3,2.9-9.7,9.9H56.8V84H98.3V97.1Zm39.2,12.5c-3.2,2.3-8.4,3.5-15,3.5h-4.2v12.4c0,3.6.6,3.9,6.7,4.3v2.5H101.7v-2.7c5-.2,5.5-0.6,5.5-4.1V90.8c0-3.6-.6-3.9-5.5-4.1V84h21.7c5.7,0,10.2.6,13.6,2.7s5.9,5.9,5.9,11.5S141,107.1,137.5,109.6Zm65-23c-5,.2-5.5.6-5.5,4.1v34.8c0,3.6.6,3.9,5.5,4.1v2.7H180.8v-2.7c5-.2,5.5-0.6,5.5-4.1V90.9h-0.2l-14.6,40.2h-4.2l-15-40.2h-0.2v23.8a99.7,99.7,0,0,0,.3,10.9c0.2,2.4,1,3.6,2.9,3.7l3.8,0.3v2.7H142.4v-2.7l2.4-.3c1.6-.2,2.3-1.3,2.5-3.7a98.1,98.1,0,0,0,.3-10.9v-24c0-3.6-.6-3.9-5.5-4.1V84h18.5c0.9,3,2.5,7.1,3.7,10.3l8.3,21.5h0.2l5.9-16.4c1.9-5.2,4.3-12,5.5-15.4h18.2v2.7Zm54.2,45.7H219v-2.7c5-.2,5.5-0.6,5.5-4.1V90.8c0-3.6-.6-3.9-5.5-4.1V84h23.1v2.7c-5.8.2-6.4,0.6-6.4,4.1V124c0,4.5,1.9,5.1,7.8,5.1,8,0,8.9-3.8,11.4-10.8h2.7Zm25.4-45.7c-5,.2-5.5.6-5.5,4.1v34.8c0,3.6.6,3.9,5.5,4.1v2.7H259.9v-2.7c5-.2,5.5-0.6,5.5-4.1V90.8c0-3.6-.6-3.9-5.5-4.1V84h22.2v2.7Zm40.6,10.3h-2.7c-2.2-6.8-3.4-9.7-10.6-9.7h-4.7c-2,0-2.4.5-2.4,2.5v16.8h8c4.4,0,5.3-1.2,6.4-6.3h2.7v16.2h-2.7c-1.1-5.1-2-6.3-6.4-6.3h-8v15.5c0,3.6.6,3.9,6.7,4.1v2.7H285.6v-2.7c5-.2,5.5-0.6,5.5-4.1V90.8c0-3.6-.6-3.9-5.5-4.1V84h37.1V96.9Zm41.7,35.4H325.4v-2.7c5-.2,5.5-0.6,5.5-4.1V90.8c0-3.6-.6-3.9-5.5-4.1V84h37.7V96.9h-2.7c-2.2-6.9-3.4-9.7-10.6-9.7h-5.2c-2,0-2.4.5-2.4,2.5v15.5h6.6c4.4,0,5.3-1.2,6.4-6.3h2.7v16.2h-2.7c-1.1-5.1-2-6.3-6.4-6.3h-6.6V124c0,4.5,2.2,5.1,8.6,5.1,8.2,0,9.4-3.8,12-11.3h2.7Zm14.7-19.6a10.8,10.8,0,0,0-4.9-4.9,8.9,8.9,0,0,0,4.9-4.9,8.9,8.9,0,0,0,4.9,4.9A10.8,10.8,0,0,0,379.2,112.8Z"/><path class="a" d="M122.5,87.2c-3.6,0-4.1.6-4.1,2.6v17.1c0,2.7,1.2,3,3.9,3,7.1,0,8.9-6.2,8.9-11.5C131.2,90.3,127.2,87.2,122.5,87.2Z"/><path class="a" d="M297.6,54.7h1V51.5q0-.6-0.8-0.6h-0.2q-0.8,0-.8.6V54A0.6,0.6,0,0,0,297.6,54.7Z"/><path class="a" d="M178.1,48.8a33.9,33.9,0,0,1-.4-17,306.3,306.3,0,0,0-43.4,8l3.4,16.8A290.4,290.4,0,0,1,178.1,48.8ZM165.7,37.1a8.5,8.5,0,0,0,5.1,4.1,10.2,10.2,0,0,0-4.1,5.1,10.2,10.2,0,0,0-5.1-4.1A8.5,8.5,0,0,0,165.7,37.1Zm-12.3,3.3a6.3,6.3,0,0,0,4.1,2.7,7.6,7.6,0,0,0-2.7,4.1,7.6,7.6,0,0,0-4.1-2.7A6.3,6.3,0,0,0,153.4,40.5Zm-10.2,3.4a4.3,4.3,0,0,0,2.9,1.7,5.2,5.2,0,0,0-1.7,2.9,5.2,5.2,0,0,0-2.9-1.7A4.3,4.3,0,0,0,143.2,43.9Z"/><path class="a" d="M283.4,56.6l3.4-16.8a320.4,320.4,0,0,0-43.5-7.9,33.9,33.9,0,0,1-.3,16.8A266.7,266.7,0,0,1,283.4,56.6Zm-5.5-12.7a4.3,4.3,0,0,0,1.7,2.9,5.2,5.2,0,0,0-2.9,1.7,5.2,5.2,0,0,0-1.7-2.9A4.3,4.3,0,0,0,277.9,43.9Zm-10.2-3.4a6.3,6.3,0,0,0,2.7,4.1,7.6,7.6,0,0,0-4.1,2.7,7.6,7.6,0,0,0-2.7-4.1A6.3,6.3,0,0,0,267.8,40.5Zm-12.3-3.3a8.4,8.4,0,0,0,4.1,5.1,10.2,10.2,0,0,0-5.1,4.1,10.2,10.2,0,0,0-4.1-5.1A8.5,8.5,0,0,0,255.5,37.1Z"/><path class="a" d="M148.6,63.1l-12.7-4.2-2.4-13.6H99.5l7,8.8-7,8.9h49.1Zm-18.6-3.7h-1.8V57.8h1.8v1.6Zm-6.2-9.6h4.9v1.2H127v8.5h-1.7V50.9h-1.6V49.8Zm-5.9,7.4h1.7v0.5q0,0.6.8,0.6h0.3a0.6,0.6,0,0,0,.7-0.6V56a0.4,0.4,0,0,0-.1-0.4l-0.5-.2-1.6-.7-0.8-.4L118,54a1.5,1.5,0,0,1-.1-0.6v-2q0-1.6,2-1.6h1.1q2,0,2,1.6v0.9h-1.7V51.5a0.6,0.6,0,0,0-.7-0.6h-0.3a0.6,0.6,0,0,0-.7.6v1.6a0.4,0.4,0,0,0,.1.4l0.5,0.2,1.6,0.7,0.7,0.4,0.3,0.3a1.3,1.3,0,0,1,.1.7v2.1q0,1.6-2,1.6h-1q-2,0-2-1.8V57.2Zm-5.2-7.4h4.2v1.2h-2.5v2.9h2.2V55h-2.2v3.2h2.5v1.2h-4.2V49.8Z"/><path class="a" d="M272.5,63.1h49.1l-7-8.9,7-8.8H287.7l-2.4,13.6ZM306,51.4q0-1.6,2-1.6h0.9q2,0,2,1.6v2.3a1.1,1.1,0,0,1-.1.5l-0.5.5-1.9,1.4-0.4.3v0.2c0,0.1,0,.1,0,0.3v1.4h2.8v1.2h-4.5v-3a1.3,1.3,0,0,1,.1-0.4l0.2-.3,0.5-.4,1.7-1.2,0.3-.3,0.2-.2V53.5a1.9,1.9,0,0,0,0-.2V51.5a0.6,0.6,0,0,0-.7-0.6h-0.1a0.6,0.6,0,0,0-.7.6v1H306V51.4Zm-3.5-.9,0.7-.7h0.2l1.1,0.5v9.2h-1.7V51.7l-1.1.2-0.4-.9Zm-7.3,1q0-1.7,2-1.7h1.1q2,0,2,1.7v6.2q0,1.7-2,1.7h-1q-2,0-2-1.7V57.2h1.7v0.4a0.6,0.6,0,0,0,.8.7H298a0.5,0.5,0,0,0,.7-0.6V55.3l-1.1.5h-0.4q-2,0-2-1.7V51.5Zm-3.7-1,0.7-.7h0.2l1.1,0.5v9.2h-1.7V51.7l-1.1.2-0.4-.9Z"/><path class="a" d="M94.5,57.6a7.1,7.1,0,0,1,3.3-3.3,5.9,5.9,0,0,1-3.3-3.3,5.9,5.9,0,0,1-3.3,3.3A7.2,7.2,0,0,1,94.5,57.6Z"/><path class="a" d="M326.6,57.6a7.1,7.1,0,0,1,3.3-3.3,5.9,5.9,0,0,1-3.3-3.3,5.9,5.9,0,0,1-3.3,3.3A7.2,7.2,0,0,1,326.6,57.6Z"/><path class="a" d="M41.7,69.4H158.5a3.7,3.7,0,0,0,2.5-1.1,3.7,3.7,0,0,0,.9-1.6h0a3.2,3.2,0,0,0,0-1.8h0a3.3,3.3,0,0,0-1.6-1.8h0a1.9,1.9,0,0,0-1-.3,2,2,0,1,0,0,4,2,2,0,0,0,1.2-.5h0a2.2,2.2,0,0,1-2,1.6,3.4,3.4,0,0,1-2.4-.7,3,3,0,0,1-1-2.1h0a3.6,3.6,0,0,1,.8-2.5,4,4,0,0,1,2.9-1.3h0.1c2.6-.1,5.9,1.9,9.2,3.9s7.2,4.4,10.5,4.4a8,8,0,0,0,5.7-2.1,7.9,7.9,0,0,0,2.4-5.6h0V61.4h0a8.1,8.1,0,0,0-.2-1.6l1.9,2.1h0a31.5,31.5,0,0,0,44.6,0h0l1.9-2.1a8.2,8.2,0,0,0-.2,1.6h0v0.4h0a7.9,7.9,0,0,0,2.4,5.6,8,8,0,0,0,5.7,2.1c3.4,0,7-2.2,10.5-4.4s6.6-4,9.2-3.9h0.1a4,4,0,0,1,2.9,1.3,3.5,3.5,0,0,1,.8,2.5h0a3,3,0,0,1-1,2.1,3.4,3.4,0,0,1-2.4.7,2.1,2.1,0,0,1-1.5-.7,2.2,2.2,0,0,1-.5-0.9h0a2,2,0,0,0,1.2.5,2,2,0,1,0,0-4,1.9,1.9,0,0,0-1,.3h0l-0.2.2-0.2.2a3.2,3.2,0,0,0-1.2,1.5h0a3.1,3.1,0,0,0,0,1.8h0a3.7,3.7,0,0,0,3.4,2.7H379.4a3,3,0,0,0,1.9-.9,3.4,3.4,0,0,0,.9-2.3h0a3.3,3.3,0,0,0-1-2.2h0a3.1,3.1,0,0,0-2.2-.9h0a2.6,2.6,0,0,0-1.9,1,2.8,2.8,0,0,0-.7,1.7h0a1.1,1.1,0,1,0,1.8-.8h0a1.1,1.1,0,0,1,.8-0.4h0a1.6,1.6,0,0,1,1.1.5,1.8,1.8,0,0,1,.5,1.2h0a1.8,1.8,0,0,1-.5,1.2,1.5,1.5,0,0,1-1,.5H266.5a4.6,4.6,0,0,0,1.1-2.8h0a5.1,5.1,0,0,0-1.1-3.5,5.5,5.5,0,0,0-4-1.8h-0.2a11.7,11.7,0,0,0-5.6,1.6,4.8,4.8,0,0,0,.1-1.2,3.9,3.9,0,0,0-1.3-2.8,4.3,4.3,0,0,0-3-.9,3.2,3.2,0,0,0-2.2,1,3.3,3.3,0,0,0-.8,1.4h0a2.8,2.8,0,0,0,0,1.6,2.9,2.9,0,0,0,1.4,1.6h0a1.7,1.7,0,0,0,.9.3,1.8,1.8,0,0,0,0-3.6l-0.8.2,0.3-.5a1.7,1.7,0,0,1,1.2-.5,2.8,2.8,0,0,1,2,.6,2.4,2.4,0,0,1,.8,1.7,3.1,3.1,0,0,1-.2,1.4h0a2.5,2.5,0,0,1-.9,1h0l-1.8,1.1c-3.3,2-6.8,4.1-9.7,4.1a6.5,6.5,0,0,1-4.6-1.7,6.4,6.4,0,0,1-1.9-4.5V61.4a6.4,6.4,0,0,1,1.5-4,4.7,4.7,0,0,1,3.5-1.7h0.3a4.8,4.8,0,0,1,3.3,1.5,3.9,3.9,0,0,1,1.1,2.7h0v0.4a3.9,3.9,0,0,1-1.1,2.4,2.7,2.7,0,0,1-2,.8h-0.2l-0.9-.4a2,2,0,0,0,1.6-1.9,2,2,0,0,0-4,0h0a3.4,3.4,0,0,0,.7,2.5h0a3.9,3.9,0,0,0,2.4,1.3h0.2a4.3,4.3,0,0,0,3.1-1.2,5.4,5.4,0,0,0,1.6-3.4h0V60.1h0a5.5,5.5,0,0,0-1.5-3.8,6.3,6.3,0,0,0-4.3-1.9H241a5.9,5.9,0,0,0-3.1.9,31.5,31.5,0,1,0-54.8,0,5.9,5.9,0,0,0-3.1-.9h-0.4a6.3,6.3,0,0,0-4.3,1.9,5.4,5.4,0,0,0-1.5,3.8h0v0.4h0a5.4,5.4,0,0,0,1.6,3.4,4.2,4.2,0,0,0,3.1,1.2h0.2a3.9,3.9,0,0,0,2.4-1.3,3.4,3.4,0,0,0,.7-2.5h0a2,2,0,1,0-4,0,2,2,0,0,0,1.6,1.9l-0.9.4h-0.2a2.7,2.7,0,0,1-2-.8,3.9,3.9,0,0,1-1.1-2.4V60h0a3.9,3.9,0,0,1,1.1-2.7,4.8,4.8,0,0,1,3.3-1.5h0.3a4.7,4.7,0,0,1,3.5,1.7,6.4,6.4,0,0,1,1.5,4v0.3a6.4,6.4,0,0,1-1.9,4.5,6.5,6.5,0,0,1-4.6,1.7c-2.9,0-6.4-2.1-9.7-4.1L167,62.7h0a2.5,2.5,0,0,1-.9-1h0a3,3,0,0,1-.2-1.4,2.4,2.4,0,0,1,.8-1.7,2.8,2.8,0,0,1,1.9-.6,1.7,1.7,0,0,1,1.2.5l0.3,0.5-0.8-.2a1.8,1.8,0,0,0,0,3.6,1.7,1.7,0,0,0,.9-0.3h0a2.9,2.9,0,0,0,1.5-1.6,2.8,2.8,0,0,0,0-1.6h0a3.3,3.3,0,0,0-.8-1.4,3.2,3.2,0,0,0-2.2-1,4.2,4.2,0,0,0-3,.9,3.9,3.9,0,0,0-1.3,2.8,4.7,4.7,0,0,0,.1,1.2,11.7,11.7,0,0,0-5.6-1.6h-0.2a5.5,5.5,0,0,0-4,1.8,5.1,5.1,0,0,0-1.1,3.5h0a4.6,4.6,0,0,0,1.1,2.8H41.8a1.5,1.5,0,0,1-1-.5,1.8,1.8,0,0,1-.5-1.2h0a1.8,1.8,0,0,1,.5-1.2,1.6,1.6,0,0,1,1.1-.5h0a1.1,1.1,0,0,1,.8.4h0a1.1,1.1,0,1,0,1.8.8h0a2.8,2.8,0,0,0-.7-1.7,2.6,2.6,0,0,0-1.9-1h0a3.1,3.1,0,0,0-2.2.9h0a3.3,3.3,0,0,0-1,2.2h0a3.3,3.3,0,0,0,.9,2.3A3,3,0,0,0,41.7,69.4Zm147.7-51a30,30,0,0,1,42.4,0h0a30,30,0,0,1,0,42.4h0A30,30,0,0,1,189.3,18.4Z"/><path class="a" d="M379.4,146.9H348.9a3.7,3.7,0,0,0-2.5,1.1,3.8,3.8,0,0,0-.9,1.6h0a3.2,3.2,0,0,0,0,1.8h0a3.3,3.3,0,0,0,1.6,1.8h0a1.9,1.9,0,0,0,1,.3,2,2,0,1,0,0-4,2,2,0,0,0-1.2.5h0a2.1,2.1,0,0,1,.5-0.9,2.2,2.2,0,0,1,1.5-.7,3.4,3.4,0,0,1,2.4.7,3,3,0,0,1,1,2.1h0a3.6,3.6,0,0,1-.8,2.5,4.1,4.1,0,0,1-2.9,1.3h-0.1c-2.6.1-5.9-1.8-9.2-3.9s-7.2-4.4-10.5-4.4a8,8,0,0,0-5.7,2.1,7.8,7.8,0,0,0-2.4,5.6h0V155h0a8,8,0,0,0,1.9,4.9,6.2,6.2,0,0,0,4.6,2.2h0.4a6.2,6.2,0,0,0,4.3-1.9,5.5,5.5,0,0,0,1.5-3.8h0v-0.4h0a5.4,5.4,0,0,0-1.6-3.4,4.2,4.2,0,0,0-3.1-1.2h-0.2a3.9,3.9,0,0,0-2.4,1.3,3.4,3.4,0,0,0-.7,2.5h0a2,2,0,0,0,4,0,2,2,0,0,0-1.6-1.9l0.9-.4h0.2a2.8,2.8,0,0,1,2,.8A3.9,3.9,0,0,1,332,156v0.4h0a3.9,3.9,0,0,1-1.1,2.7,4.8,4.8,0,0,1-3.3,1.4h-0.3a4.7,4.7,0,0,1-3.5-1.7,6.4,6.4,0,0,1-1.5-4v-0.3a6.3,6.3,0,0,1,1.9-4.5,6.5,6.5,0,0,1,4.6-1.7c2.9,0,6.4,2.1,9.7,4.1s7,4.2,10,4.1h0.2a5.5,5.5,0,0,0,4-1.8,5,5,0,0,0,1.1-3.5h0a4.6,4.6,0,0,0-1.1-2.7h26.5a1.5,1.5,0,0,1,1,.5,1.8,1.8,0,0,1,.5,1.2h0a1.8,1.8,0,0,1-.5,1.2,1.6,1.6,0,0,1-1.1.5h0a1.1,1.1,0,0,1-.8-0.4h0a1.1,1.1,0,0,0,.4-0.8,1.1,1.1,0,0,0-2.2,0h0a2.8,2.8,0,0,0,.7,1.7,2.6,2.6,0,0,0,1.9,1h0a3.1,3.1,0,0,0,2.2-.9h0a3.3,3.3,0,0,0,1-2.2h0a3.4,3.4,0,0,0-.9-2.3A3,3,0,0,0,379.4,146.9Z"/><path class="a" d="M92.2,146.9c-3.4,0-7,2.2-10.5,4.4s-6.6,4-9.2,3.9H72.4a4.1,4.1,0,0,1-2.9-1.3,3.6,3.6,0,0,1-.8-2.5h0a3,3,0,0,1,1-2.1,3.5,3.5,0,0,1,2.4-.7,2.2,2.2,0,0,1,1.5.7,2.2,2.2,0,0,1,.5.9h0a2,2,0,0,0-1.3-.5,2,2,0,1,0,0,4,1.9,1.9,0,0,0,1-.3h0a3.2,3.2,0,0,0,1.6-1.8h0a3.1,3.1,0,0,0,0-1.8h0a3.7,3.7,0,0,0-3.4-2.7H41.7a3,3,0,0,0-2,1,3.4,3.4,0,0,0-.9,2.3h0a3.3,3.3,0,0,0,1,2.2h0a3.1,3.1,0,0,0,2.2.9h0a2.6,2.6,0,0,0,1.9-1,2.8,2.8,0,0,0,.7-1.7h0a1.1,1.1,0,0,0-2.2,0,1.1,1.1,0,0,0,.4.8h0a1.1,1.1,0,0,1-.8.4h0a1.6,1.6,0,0,1-1.1-.5h0a1.8,1.8,0,0,1-.5-1.2h0a1.8,1.8,0,0,1,.5-1.2,1.5,1.5,0,0,1,1-.5H68.3a4.6,4.6,0,0,0-1.1,2.7h0a5,5,0,0,0,1.1,3.5,5.5,5.5,0,0,0,4,1.8h0.2c3.1,0.2,6.5-1.9,10-4.1s6.8-4.1,9.7-4.1a6.5,6.5,0,0,1,4.6,1.7,6.4,6.4,0,0,1,1.9,4.5V155a6.4,6.4,0,0,1-1.5,4,4.7,4.7,0,0,1-3.5,1.7H93.4a4.8,4.8,0,0,1-3.3-1.4,3.9,3.9,0,0,1-1.1-2.7h0V156a3.9,3.9,0,0,1,1.1-2.4,2.8,2.8,0,0,1,2-.8h0.2l0.9,0.4a2,2,0,0,0-1.6,1.9,2,2,0,0,0,4,0h0a3.4,3.4,0,0,0-.7-2.5,3.9,3.9,0,0,0-2.4-1.3H92.3a4.2,4.2,0,0,0-3.1,1.2,5.4,5.4,0,0,0-1.6,3.4h0v0.4h0a5.4,5.4,0,0,0,1.5,3.8,6.2,6.2,0,0,0,4.3,1.9h0.4a6.2,6.2,0,0,0,4.6-2.2,7.9,7.9,0,0,0,1.9-4.9h0v-0.4h0a7.9,7.9,0,0,0-2.4-5.6A8,8,0,0,0,92.2,146.9Z"/><path class="a" d="M278.1,169.1H237.9a3.6,3.6,0,0,0-2.5,1.1,3.7,3.7,0,0,0-.9,1.6,3.2,3.2,0,0,0,0,1.8,3.3,3.3,0,0,0,1.6,1.8h0a1.9,1.9,0,0,0,1,.3,2,2,0,0,0,0-4,2,2,0,0,0-1.2.5h0a2.2,2.2,0,0,1,.5-0.9,2.2,2.2,0,0,1,1.5-.7,3.4,3.4,0,0,1,2.4.7,3,3,0,0,1,1,2.1h0a3.6,3.6,0,0,1-.8,2.5,4,4,0,0,1-2.9,1.3h-0.1c-2.6.1-5.9-1.9-9.2-3.9s-7.2-4.4-10.5-4.4a8,8,0,0,0-5.7,2.1,7.4,7.4,0,0,0-1.6,2.3,7.4,7.4,0,0,0-1.6-2.3,8,8,0,0,0-5.7-2.1c-3.4,0-7,2.2-10.5,4.4s-6.6,4-9.2,3.9h-0.1a4,4,0,0,1-2.9-1.3,3.5,3.5,0,0,1-.8-2.5h0a3,3,0,0,1,1-2.1,3.4,3.4,0,0,1,2.4-.7,2.2,2.2,0,0,1,2,1.6h0a2,2,0,0,0-1.3-.5,2,2,0,0,0,0,4,1.9,1.9,0,0,0,1-.3h0a3.3,3.3,0,0,0,1.6-1.8,3.2,3.2,0,0,0,0-1.8,3.7,3.7,0,0,0-.9-1.6,3.6,3.6,0,0,0-2.5-1.1H143a3,3,0,0,0-2,1,3.3,3.3,0,0,0-.9,2.3h0a3.3,3.3,0,0,0,1,2.2,3.1,3.1,0,0,0,2.2.9h0a2.6,2.6,0,0,0,1.9-1,2.8,2.8,0,0,0,.7-1.7h0a1.1,1.1,0,1,0-2.2,0,1.1,1.1,0,0,0,.4.8h0a1.1,1.1,0,0,1-.8.4h0a1.6,1.6,0,0,1-1.1-.5,1.8,1.8,0,0,1-.5-1.2h0a1.8,1.8,0,0,1,.5-1.2,1.5,1.5,0,0,1,1-.5h36.2a4.6,4.6,0,0,0-1.1,2.8h0a5.1,5.1,0,0,0,1.1,3.5,5.5,5.5,0,0,0,4,1.8h0.2c3.1,0.2,6.5-1.9,10-4.1s6.8-4.1,9.7-4.1a6.5,6.5,0,0,1,4.6,1.7,6.4,6.4,0,0,1,1.9,4.5v0.3a6.4,6.4,0,0,1-1.5,4,4.7,4.7,0,0,1-3.5,1.7h-0.3a4.8,4.8,0,0,1-3.3-1.5,3.9,3.9,0,0,1-1.1-2.7h0v-0.4a3.8,3.8,0,0,1,1.1-2.4,2.7,2.7,0,0,1,2-.8h0.2l0.9,0.4a2,2,0,0,0-1.6,1.9,2,2,0,1,0,4,0h0a3.4,3.4,0,0,0-.7-2.5h0a3.9,3.9,0,0,0-2.4-1.3h-0.2a4.2,4.2,0,0,0-3.1,1.2,5.4,5.4,0,0,0-1.6,3.4h0v0.3h0a5.4,5.4,0,0,0,1.5,3.8,6.3,6.3,0,0,0,4.3,1.9h0.4a6.2,6.2,0,0,0,4.6-2.2,7.5,7.5,0,0,0,1.1-1.8,7.5,7.5,0,0,0,1.1,1.8,6.2,6.2,0,0,0,4.6,2.2h0.4a6.3,6.3,0,0,0,4.3-1.9,5.5,5.5,0,0,0,1.5-3.8h0V178h0a5.4,5.4,0,0,0-1.6-3.4,4.2,4.2,0,0,0-3.1-1.2h-0.2a3.9,3.9,0,0,0-2.4,1.3,3.4,3.4,0,0,0-.7,2.5h0a2,2,0,1,0,4,0,2,2,0,0,0-1.6-1.9l0.9-.4h0.2a2.7,2.7,0,0,1,2,.8,3.9,3.9,0,0,1,1.1,2.4v0.4h0a3.9,3.9,0,0,1-1.1,2.7,4.8,4.8,0,0,1-3.3,1.5h-0.3a4.7,4.7,0,0,1-3.5-1.7,6.4,6.4,0,0,1-1.5-4v-0.3a6.4,6.4,0,0,1,1.9-4.5,6.5,6.5,0,0,1,4.6-1.7c2.9,0,6.4,2.1,9.7,4.1s7,4.2,10,4.1h0.2a5.5,5.5,0,0,0,4-1.8,5.1,5.1,0,0,0,1.1-3.5h0a4.6,4.6,0,0,0-1.1-2.8h36.1a1.5,1.5,0,0,1,1,.5,1.9,1.9,0,0,1,.5,1.2h0a1.8,1.8,0,0,1-.5,1.2,1.6,1.6,0,0,1-1.1.5h0a1.1,1.1,0,0,1-.8-0.4h0a1.1,1.1,0,0,0,.4-0.8,1.1,1.1,0,1,0-2.2,0h0a2.8,2.8,0,0,0,.7,1.7,2.6,2.6,0,0,0,1.9,1h0a3.1,3.1,0,0,0,2.2-.9,3.3,3.3,0,0,0,1-2.2h0a3.4,3.4,0,0,0-.9-2.3A3,3,0,0,0,278.1,169.1Z"/><path class="a" d="M231,55.6a1.3,1.3,0,0,0,.2,1.8,1.3,1.3,0,1,0,1.5-2A1.3,1.3,0,0,0,231,55.6Z"/><path class="a" d="M236.2,35.1a1.3,1.3,0,0,0,1.5,1A1.3,1.3,0,1,0,236.2,35.1Z"/><path class="a" d="M231.7,22.3a1.3,1.3,0,1,0-1.8-.1A1.3,1.3,0,0,0,231.7,22.3Z"/><path class="a" d="M217.7,14.6a1.3,1.3,0,1,0,.7-2.4A1.3,1.3,0,1,0,217.7,14.6Z"/><path class="a" d="M233.9,28.2a1.3,1.3,0,0,0,1.7.6A1.3,1.3,0,1,0,233.9,28.2Z"/><path class="a" d="M235.3,31.6a1.3,1.3,0,1,0,.8-1.6A1.3,1.3,0,0,0,235.3,31.6Z"/><path class="a" d="M228.6,60.1a1.3,1.3,0,1,0,1.8-1.7A1.3,1.3,0,0,0,228.6,60.1Z"/><path class="a" d="M229,19.5a1.3,1.3,0,1,0-1.8.2A1.3,1.3,0,0,0,229,19.5Z"/><path class="a" d="M224.3,17.5a1.3,1.3,0,0,0,1.7-.4A1.3,1.3,0,1,0,224.3,17.5Z"/><path class="a" d="M221.1,15.8a1.3,1.3,0,1,0,1-2.3A1.3,1.3,0,0,0,221.1,15.8Z"/><path class="a" d="M225.6,62.4a1.3,1.3,0,1,0,.3-1.8A1.3,1.3,0,0,0,225.6,62.4Z"/><path class="a" d="M232.1,25.1a1.3,1.3,0,1,0,2.1-1.4A1.3,1.3,0,0,0,232.1,25.1Z"/><path class="a" d="M216,65a1.3,1.3,0,0,0-1,1.5,1.3,1.3,0,1,0,2.5-.5A1.3,1.3,0,0,0,216,65Z"/><path class="a" d="M212.4,65.5a1.3,1.3,0,0,0-1.2,1.3,1.3,1.3,0,1,0,2.5-.2A1.3,1.3,0,0,0,212.4,65.5Z"/><path class="a" d="M222.8,62.6a1.3,1.3,0,0,0-.5,1.7A1.3,1.3,0,1,0,222.8,62.6Z"/><path class="a" d="M208.7,65.5a1.3,1.3,0,1,0,1.2,1.3A1.3,1.3,0,0,0,208.7,65.5Z"/><path class="a" d="M205.1,65a1.3,1.3,0,0,0-1.5,1,1.3,1.3,0,1,0,2.5.5A1.3,1.3,0,0,0,205.1,65Z"/><path class="a" d="M236.3,48.6a1.3,1.3,0,1,0-.9,2.3A1.3,1.3,0,0,0,236.3,48.6Z"/><path class="a" d="M237.8,41.2a1.3,1.3,0,1,0,1.1,1.4A1.3,1.3,0,0,0,237.8,41.2Z"/><path class="a" d="M237.3,45a1.3,1.3,0,1,0,.9,1.5A1.3,1.3,0,0,0,237.3,45Z"/><path class="a" d="M236.5,38.7a1.3,1.3,0,1,0,1.2-1.3A1.3,1.3,0,0,0,236.5,38.7Z"/><path class="a" d="M234.8,52.1a1.3,1.3,0,1,0,.5,1.7A1.3,1.3,0,0,0,234.8,52.1Z"/><path class="a" d="M214.2,13.8a1.3,1.3,0,1,0,.3-2.5A1.3,1.3,0,0,0,214.2,13.8Z"/><path class="a" d="M183.3,39.9a1.3,1.3,0,1,0-1.2-1.3A1.3,1.3,0,0,0,183.3,39.9Z"/><circle class="a" cx="183.7" cy="34.9" r="1.3" transform="matrix(0.17, -0.98, 0.98, 0.17, 117.51, 209.73)"/><path class="a" d="M184.7,42.3a1.3,1.3,0,1,0-1.1,1.4A1.3,1.3,0,0,0,184.7,42.3Z"/><circle class="a" cx="184.6" cy="31.2" r="1.3" transform="translate(97.9 197.1) rotate(-72)"/><circle class="a" cx="186" cy="27.6" r="1.3" transform="translate(79.7 182.8) rotate(-64)"/><path class="a" d="M190.1,55.6a1.3,1.3,0,0,0-1.8-.2,1.3,1.3,0,0,0,1.5,2A1.3,1.3,0,0,0,190.1,55.6Z"/><path class="a" d="M188,52.6a1.3,1.3,0,1,0-.5,1.7A1.3,1.3,0,0,0,188,52.6Z"/><circle class="a" cx="187.9" cy="24.3" r="1.3" transform="translate(62.8 166.6) rotate(-56)"/><path class="a" d="M186.4,49.3a1.3,1.3,0,1,0-.7,1.6A1.3,1.3,0,0,0,186.4,49.3Z"/><circle class="a" cx="184.1" cy="46.2" r="1.3" transform="translate(-5.7 46.2) rotate(-14.1)"/><circle class="a" cx="210.6" cy="12.3" r="1.3"/><circle class="a" cx="203" cy="13.4" r="1.3" transform="translate(4.2 56.8) rotate(-16.1)"/><circle class="a" cx="190.3" cy="21.4" r="1.3" transform="translate(47.1 148.5) rotate(-48)"/><circle class="a" cx="206.8" cy="12.6" r="1.3" transform="translate(0.3 29) rotate(-8)"/><path class="a" d="M201.7,64a1.3,1.3,0,0,0-1.6.8A1.3,1.3,0,1,0,201.7,64Z"/><circle class="a" cx="199.5" cy="14.7" r="1.3" transform="translate(11.3 82.5) rotate(-24)"/><path class="a" d="M190.7,60.1a1.3,1.3,0,1,0,0-1.8A1.3,1.3,0,0,0,190.7,60.1Z"/><circle class="a" cx="193" cy="18.7" r="1.3" transform="translate(33.2 128.6) rotate(-40.1)"/><circle class="a" cx="196.1" cy="16.5" r="1.3" transform="translate(21.1 106.5) rotate(-32)"/><path class="a" d="M193.8,62.7a1.3,1.3,0,1,0-.3-1.8A1.3,1.3,0,0,0,193.8,62.7Z"/><path class="a" d="M219.4,64a1.3,1.3,0,0,0-.8,1.6A1.3,1.3,0,1,0,219.4,64Z"/><path class="a" d="M198.3,62.6a1.3,1.3,0,0,0-1.7.5A1.3,1.3,0,1,0,198.3,62.6Z"/><path class="a" d="M223.8,47.7c-1.3-1.4-3.4-4.5-3.8-9.9l-0.3-6.9V30.5a8,8,0,0,0-.2-1.7,4.2,4.2,0,0,0-1.6-2.4l-0.7-.5a17.9,17.9,0,0,0-4.4-1.4,0.6,0.6,0,0,0-.3-0.6,2.2,2.2,0,0,0,.3-1.1,2.2,2.2,0,0,0-4.5,0,2.2,2.2,0,0,0,.3,1.1,0.6,0.6,0,0,0-.3.6,14.8,14.8,0,0,0-5.2,1.9,4.2,4.2,0,0,0-1.6,2.4,8,8,0,0,0-.2,1.7v0.4L201,37.8c-0.4,5.4-2.4,8.4-3.8,9.9h26.6Zm-13.3-26a1.1,1.1,0,1,1-1.1,1.1A1.1,1.1,0,0,1,210.5,21.6Z"/><path class="a" d="M225.3,49.3H195.8a2.1,2.1,0,0,0-.1,1.7,1.7,1.7,0,0,0,1.4.8H224a1.7,1.7,0,0,0,1.4-.8A2.1,2.1,0,0,0,225.3,49.3Z"/><path class="a" d="M213.7,53h-6.2s0.3,3,2.9,3.1h0.2C213.4,56.2,213.7,53.1,213.7,53Z"/><path class="a" d="M111.9,151.2a6.4,6.4,0,0,1-3.5,3.5,7.8,7.8,0,0,1,3.5,3.5,7.8,7.8,0,0,1,3.5-3.5A6.4,6.4,0,0,1,111.9,151.2Z"/><path class="a" d="M309.2,151.2a6.4,6.4,0,0,1-3.5,3.5,7.8,7.8,0,0,1,3.5,3.5,7.8,7.8,0,0,1,3.5-3.5A6.4,6.4,0,0,1,309.2,151.2Z"/><rect class="a" x="120.9" y="147.2" width="2.9" height="16.68"/><polygon class="a" points="132.6 155.3 129.5 147.2 126.5 147.2 126.5 163.9 129.5 163.9 129.5 153 132.6 160.6 132.6 163.9 135.5 163.9 135.5 147.2 132.6 147.2 132.6 155.3"/><path class="a" d="M143.3,163.9q3.5,0,3.5-2.8v-3.6a2.3,2.3,0,0,0-.2-1.2l-0.6-.5-1.3-.6-2.8-1.1-0.8-.4a0.7,0.7,0,0,1-.2-0.6v-2.8a1,1,0,0,1,1.3-1h0.5a1,1,0,0,1,1.3,1v1.5h2.9v-1.6q0-2.9-3.5-2.9h-1.8q-3.5,0-3.5,2.9v3.4a2.6,2.6,0,0,0,.2,1.1,1.5,1.5,0,0,0,.6.7l1.3,0.6,2.8,1.2,0.8,0.4a0.7,0.7,0,0,1,.2.6v2.8a1,1,0,0,1-1.2,1h-0.5q-1.3,0-1.3-1V160H138v0.8q0,3.1,3.5,3.1h1.8Z"/><path class="a" d="M149.2,147.2v13.5q0,3.2,3.5,3.2h2.5q3.5,0,3.5-3.2V147.2h-2.9v13.6a1,1,0,0,1-1.2,1.1h-1.2a1.1,1.1,0,0,1-1.3-1.1V147.2h-2.9Z"/><path class="a" d="M170.6,154.2v-4.1q0-2.9-3.4-2.9h-5.7v16.7h2.9v-6.7h1.8l1.9,6.7h2.8l-2-6.9A2.6,2.6,0,0,0,170.6,154.2Zm-2.9-.1a1.1,1.1,0,0,1-1.3,1.2h-1.9v-6h1.9a1.1,1.1,0,0,1,1.3,1.2V154Z"/><path class="a" d="M182.1,163.9V150.1q0-2.9-3.5-2.9h-2.2q-3.5,0-3.5,2.9v13.8h2.9v-6.1h3.4v6.1h2.9Zm-6.3-8.1v-5.6q0-1,1.3-1h0.8c0.9,0,1.3.3,1.3,1v5.6h-3.4Z"/><polygon class="a" points="193.7 163.9 193.7 147.2 190.7 147.2 190.7 155.3 187.6 147.2 184.7 147.2 184.7 163.9 187.6 163.9 187.6 153 190.7 160.6 190.7 163.9 193.7 163.9"/><path class="a" d="M205.2,151.9V150q0-2.8-3.5-2.8h-1.9q-3.5,0-3.5,2.8v11q0,2.8,3.5,2.8h1.9q3.5,0,3.5-2.8V160h-2.9v0.9a1,1,0,0,1-1.2,1h-0.7a1,1,0,0,1-1.2-1V150.2a1,1,0,0,1,1.2-1h0.6c0.9,0,1.3.3,1.3,1v1.7h2.9Z"/><polygon class="a" points="214.7 149.2 214.7 147.2 207.5 147.2 207.5 163.9 214.7 163.9 214.7 161.9 210.4 161.9 210.4 156.3 214.2 156.3 214.2 154.3 210.4 154.3 210.4 149.2 214.7 149.2"/><path class="a" d="M230.5,151.9V150q0-2.8-3.5-2.8h-1.9q-3.5,0-3.5,2.8v11q0,2.8,3.5,2.8h1.9q3.5,0,3.5-2.8V160h-2.9v0.9a1,1,0,0,1-1.2,1h-0.7a1,1,0,0,1-1.2-1V150.2a1,1,0,0,1,1.2-1h0.6c0.9,0,1.3.3,1.3,1v1.7h2.9Z"/><path class="a" d="M238.9,163.9q3.5,0,3.5-2.8v-11q0-2.9-3.5-2.9h-2.8q-3.5,0-3.5,2.9v11q0,2.8,3.5,2.8h2.7Zm-3.4-3V150.2q0-1,1.3-1h1.4q1.3,0,1.3,1v10.7a1,1,0,0,1-1.2,1h-1.5Q235.5,161.9,235.5,160.9Z"/><polygon class="a" points="256.9 163.9 256.9 147.2 253.7 147.2 250.9 157 248.2 147.2 245 147.2 245 163.9 247.9 163.9 247.6 153 249.8 160.9 252.1 160.9 254.3 153 254 163.9 256.9 163.9"/><path class="a" d="M265,157.8q3.5,0,3.5-2.8v-5q0-2.9-3.5-2.9h-5.3v16.7h2.9v-6H265Zm-2.4-8.6h1.7c0.9,0,1.3.3,1.3,1v4.6a1,1,0,0,1-1.2,1h-1.9v-6.6Z"/><path class="a" d="M279.9,163.9V150.1q0-2.9-3.5-2.9h-2.2q-3.5,0-3.5,2.9v13.8h2.9v-6.1H277v6.1h2.9Zm-6.3-8.1v-5.6q0-1,1.3-1h0.8c0.9,0,1.3.3,1.3,1v5.6h-3.4Z"/><polygon class="a" points="288.5 155.3 285.4 147.2 282.5 147.2 282.5 163.9 285.4 163.9 285.4 153 288.5 160.6 288.5 163.9 291.5 163.9 291.5 147.2 288.5 147.2 288.5 155.3"/><polygon class="a" points="297.7 154.5 297.6 154.5 295.4 147.2 292.5 147.2 296.1 157.8 296.1 163.9 299.1 163.9 299.1 157.8 302.6 147.2 299.7 147.2 297.7 154.5"/></svg>