<svg xmlns="http://www.w3.org/2000/svg" width="5.8in" height="2.7in" viewBox="0 0 421.2 192.2"><title>TPM Life CDN Logos</title><path d="M179.2,150.2c0-.7-0.4-1-1.3-1h-0.8q-1.3,0-1.3,1v5.6h3.4v-5.6Z"/><path d="M166.4,149.2h-1.9v6h1.9a1.1,1.1,0,0,0,1.3-1.2v-3.6A1.1,1.1,0,0,0,166.4,149.2Z"/><path d="M418,106.7l-0.3-.3-0.3-.3-5-5.1-1.3-1.3-4.5-4.6V84.3h0V76.1h-9.2V66.9H389V66.5a3.1,3.1,0,0,0,0-.4V64.9a10,10,0,0,0-.6-2.3l-0.3-.7A11.9,11.9,0,0,0,386,59l-1-.9-1.1-.7h0l-1.1-.5h-0.4l-0.8-.3h-3.3l-1.2.2-0.8.2a9.4,9.4,0,0,0-2.3,1.2,9.6,9.6,0,0,0-2.5,2.5h0l-0.4.7H332.3l0.3-.5h0.1V60.3l7.1-6.6-2.1-1.6-2.1-1.6L333.9,49l-0.8-.8-0.6-.7-0.7-1-0.7-1.2V44.5a0.4,0.4,0,0,1,0-.2l0.2-.2,0.4-.6,1.7-2.5,0.7-1,0.5-.8,0.3-.5H293.9l0.8-3.8-6.2-1.6c-8.8-2.3-17.7-4.2-26.5-5.7q-8-1.3-15.9-2.3l-1.2-2.6L244,20.9l-0.8-1.4L241.4,17A38.3,38.3,0,0,0,210.6,1.3h-1.9l-3.8.4a37.7,37.7,0,0,0-12.3,4.1l-1.6.9-3.1,2.1a38.8,38.8,0,0,0-4.3,3.7,38.1,38.1,0,0,0-8.5,12.8c-8.8,1-17.7,2.4-26.6,4.3q-8,1.6-15.9,3.7l-3.1.8-3.1.8,0.8,3.8H86.5L87,39.5l1.3,2,0.7,1,0.6,0.9,0.4,0.6,0.2,0.2a0.4,0.4,0,0,1,0,.2v0.3l-0.2.5-0.4.8a17,17,0,0,1-1.5,2.1l-1.2,1.3-1.3,1.1-4.2,3.2,7.1,6.6,0.2,0.3,0.3,0.5H50.2l-0.5-.7V60.3a9.6,9.6,0,0,0-1.8-1.9A9.4,9.4,0,0,0,44,56.4l-1.2-.2H39.5l-0.8.3H38.3l-1.1.5a8.8,8.8,0,0,0-2,1.6,13.9,13.9,0,0,0-1.7,2.1l-0.4.8a10,10,0,0,0-.9,3v1.3a3.1,3.1,0,0,0,0,.4v0.4H23.8v9.2H14.6V95.1l-2.3,2.3-2.2,2.3L8.8,101l-5,5.1-0.9.9-0.5.5-0.2.2-0.2.2,0.3,0.3,4.4,4.4L7,112.8l1.9,1.9,1.3,1.3,4.5,4.6v19.1h9.2v9.2h8.4v0.6a6.1,6.1,0,0,0,0,.6h0a9,9,0,0,0,1.9,5.2l1.1,1.2a10.3,10.3,0,0,0,2,1.4,10.1,10.1,0,0,0,3,1.1h0l1.3,0.2h1.6l1.3-.2h0.3l1.2-.4,1.3-.6a17.1,17.1,0,0,0,2.3-1.7l1.1-.9,0.4-.4,0.4-.3h9.7a11.5,11.5,0,0,0,2.2,4,11.2,11.2,0,0,0,1.7,1.7l2,1.3a13.2,13.2,0,0,0,4.8,1.3h1a19.3,19.3,0,0,0,8.9-2.6,12.4,12.4,0,0,0,1.1,2.1l0.7,1,0.8,0.9,1.1,1a12.6,12.6,0,0,0,2.9,1.8,13.5,13.5,0,0,0,4.9,1.2h0.7a12.8,12.8,0,0,0,7.7-2.6,13.5,13.5,0,0,0,2-1.9,13.2,13.2,0,0,0,1.7-2.5l0.4-.9a8.5,8.5,0,0,1,2.3,2.3,40.5,40.5,0,0,1,4,7.4h21.7a0.5,0.5,0,0,0-.1.4v0.4c0,0.1,0,.3,0,0.4h0c0,0.6,0,1.2,0,1.4a15.5,15.5,0,0,0,.5,2.6,7.9,7.9,0,0,0,1.1,2.4l0.7,0.8,0.2,0.2,0.5,0.5,0.3,0.2,0.6,0.4,0.3,0.2,0.8,0.5h0.1l1,0.4h0.3l0.7,0.2h4l1.2-.2H146l1.2-.4h0.3l1.1-.6a20.4,20.4,0,0,0,3.1-2.4l1-.8h19.4l0.3,0.7a11.4,11.4,0,0,0,1.5,2.8l0.4,0.5a11.4,11.4,0,0,0,2.7,2.3,12.4,12.4,0,0,0,3.4,1.4l2.5,0.4h2.1a20.7,20.7,0,0,0,7.7-2.5,12.5,12.5,0,0,0,2.5,4l0.9,0.9,2,1.4,2.3,1a13.8,13.8,0,0,0,3.8.7H205a12.5,12.5,0,0,0,5.6-1.4,12.5,12.5,0,0,0,5.6,1.4H217a13.3,13.3,0,0,0,7.1-2.4,12.7,12.7,0,0,0,1.9-1.6,12.5,12.5,0,0,0,2.5-4,20.8,20.8,0,0,0,7.6,2.5h2.2l2.3-.4,1.4-.4a11.7,11.7,0,0,0,4.9-3.4l1.1-1.5a11.5,11.5,0,0,0,1.1-2.5h19.4l1,0.8a20.4,20.4,0,0,0,3.1,2.4l1.1,0.6H274l1.2,0.4h0l1.2,0.2h4l0.7-.2h0.3l1-.4h0.1l0.8-.5,0.3-.2,0.6-.4,0.3-.2,0.5-.5,0.2-.2,0.7-.8a10.7,10.7,0,0,0,1.6-4.9v-0.5c0-.2,0-0.6,0-0.9s0-.3,0-0.4a1.2,1.2,0,0,0-.1-0.7h21.7s3.2-7.9,6.3-9.7l0.4,0.9a13.2,13.2,0,0,0,1.7,2.5,13.5,13.5,0,0,0,2,1.9,12.8,12.8,0,0,0,7.7,2.6H328a13.5,13.5,0,0,0,4.9-1.2l2.1-1.2a12.5,12.5,0,0,0,1.9-1.6l0.8-.9a12.4,12.4,0,0,0,1.7-3.1,19.3,19.3,0,0,0,8.9,2.6h1a13.2,13.2,0,0,0,4.8-1.3l2-1.3a11.2,11.2,0,0,0,1.7-1.7,11.4,11.4,0,0,0,1.9-3.3l0.3-.7h9.7l0.4,0.3,0.4,0.4,1.1,0.9a17.1,17.1,0,0,0,2.3,1.7l1.3,0.6,1.2,0.4h0.3l1.3,0.2h1.6l1.3-.2a9.8,9.8,0,0,0,8-8.9h0v-0.2h0a10.1,10.1,0,0,0-.1-1.3h8.4v-9.2h9.2V133h0V120.6l4.5-4.6,1.3-1.3,1.9-1.9,0.3-.3,4.4-4.4,0.3-.3ZM326.6,51a5.9,5.9,0,0,0,3.3,3.3,7.1,7.1,0,0,0-3.3,3.3,7.2,7.2,0,0,0-3.3-3.3A5.9,5.9,0,0,0,326.6,51Zm-5-5.7-7,8.8,7,8.9H272.6l12.7-4.2,2.4-13.6h33.9ZM243.5,31.8a320.4,320.4,0,0,1,43.5,7.9l-3.4,16.8a266.7,266.7,0,0,0-40.4-8A33.9,33.9,0,0,0,243.5,31.8Zm-65.7-.1a33.9,33.9,0,0,0,.4,17,290.4,290.4,0,0,0-40.3,7.8l-3.4-16.8A306.3,306.3,0,0,1,177.8,31.8ZM99.6,45.3h33.9l2.4,13.6,12.7,4.2H99.6l7-8.9Zm-5,5.7a5.9,5.9,0,0,0,3.3,3.3,7.1,7.1,0,0,0-3.3,3.3,7.2,7.2,0,0,0-3.3-3.3A5.9,5.9,0,0,0,94.6,51ZM38.8,66.1h0a3.3,3.3,0,0,1,1-2.2h0a3.1,3.1,0,0,1,2.2-.9h0a2.6,2.6,0,0,1,1.9,1,2.8,2.8,0,0,1,.7,1.7h0a1.1,1.1,0,1,1-1.8-.8h0a1.1,1.1,0,0,0-.8-0.4h0a1.6,1.6,0,0,0-1.1.5,1.8,1.8,0,0,0-.5,1.2h0a1.8,1.8,0,0,0,.5,1.2,1.5,1.5,0,0,0,1,.5H154.7a4.6,4.6,0,0,1-1.1-2.8h0a5.1,5.1,0,0,1,1.1-3.5,5.5,5.5,0,0,1,4-1.8h0.2a11.7,11.7,0,0,1,5.6,1.6,4.7,4.7,0,0,1-.1-1.2,3.9,3.9,0,0,1,1.3-2.8,4.2,4.2,0,0,1,3-.9,3.2,3.2,0,0,1,2.2,1,3.3,3.3,0,0,1,.8,1.4h0a2.8,2.8,0,0,1,0,1.6,2.9,2.9,0,0,1-1.5,1.6h0a1.7,1.7,0,0,1-.9.3,1.8,1.8,0,0,1,0-3.6l0.8,0.2-0.3-.5a1.7,1.7,0,0,0-1.2-.5,2.8,2.8,0,0,0-1.9.6,2.4,2.4,0,0,0-.8,1.7,3,3,0,0,0,.2,1.4h0a2.5,2.5,0,0,0,.9,1h0l1.8,1.1c3.4,2,6.8,4.1,9.7,4.1a6.5,6.5,0,0,0,4.6-1.7,6.4,6.4,0,0,0,1.9-4.5V61.4a6.4,6.4,0,0,0-1.5-4,4.7,4.7,0,0,0-3.5-1.7h-0.3a4.8,4.8,0,0,0-3.3,1.5,3.9,3.9,0,0,0-1.1,2.7h0v0.4a3.9,3.9,0,0,0,1.1,2.4,2.7,2.7,0,0,0,2,.8h0.2l0.9-.4a2,2,0,0,1-1.6-1.9,2,2,0,1,1,4,0h0a3.4,3.4,0,0,1-.7,2.5,3.9,3.9,0,0,1-2.4,1.3h-0.2a4.2,4.2,0,0,1-3.1-1.2,5.4,5.4,0,0,1-1.6-3.4h0V60.1h0a5.4,5.4,0,0,1,1.5-3.8,6.3,6.3,0,0,1,4.3-1.9h0.4a5.9,5.9,0,0,1,3.1.9,31.5,31.5,0,1,1,54.8,0,5.9,5.9,0,0,1,3.1-.9h0.4a6.3,6.3,0,0,1,4.3,1.9,5.5,5.5,0,0,1,1.5,3.8h0v0.4h0a5.4,5.4,0,0,1-1.6,3.4,4.3,4.3,0,0,1-3.1,1.2h-0.2a3.9,3.9,0,0,1-2.4-1.3h0a3.4,3.4,0,0,1-.7-2.5h0a2,2,0,0,1,4,0,2,2,0,0,1-1.6,1.9l0.9,0.4h0.2a2.7,2.7,0,0,0,2-.8,3.9,3.9,0,0,0,1.1-2.4V60h0a3.9,3.9,0,0,0-1.1-2.7,4.8,4.8,0,0,0-3.3-1.5h-0.3a4.7,4.7,0,0,0-3.5,1.7,6.4,6.4,0,0,0-1.5,4v0.3a6.4,6.4,0,0,0,1.9,4.5,6.5,6.5,0,0,0,4.6,1.7c2.9,0,6.4-2.1,9.7-4.1l1.8-1.1h0a2.5,2.5,0,0,0,.9-1h0a3.1,3.1,0,0,0,.2-1.4,2.4,2.4,0,0,0-.8-1.7,2.8,2.8,0,0,0-2-.6,1.7,1.7,0,0,0-1.2.5l-0.3.5,0.8-.2a1.8,1.8,0,0,1,0,3.6,1.7,1.7,0,0,1-.9-0.3h0a2.9,2.9,0,0,1-1.4-1.6,2.8,2.8,0,0,1,0-1.6h0a3.3,3.3,0,0,1,.8-1.4,3.2,3.2,0,0,1,2.2-1,4.3,4.3,0,0,1,3,.9,3.9,3.9,0,0,1,1.3,2.8,4.8,4.8,0,0,1-.1,1.2,11.7,11.7,0,0,1,5.6-1.6h0.2a5.5,5.5,0,0,1,4,1.8,5.1,5.1,0,0,1,1.1,3.5h0a4.6,4.6,0,0,1-1.1,2.8H379.3a1.5,1.5,0,0,0,1-.5,1.8,1.8,0,0,0,.5-1.2h0a1.8,1.8,0,0,0-.5-1.2,1.6,1.6,0,0,0-1.1-.5h0a1.1,1.1,0,0,0-.8.4h0a1.1,1.1,0,1,1-1.8.8h0a2.8,2.8,0,0,1,.7-1.7,2.6,2.6,0,0,1,1.9-1h0a3.1,3.1,0,0,1,2.2.9h0a3.3,3.3,0,0,1,1,2.2h0a3.4,3.4,0,0,1-.9,2.3,3,3,0,0,1-1.9.9H262.7a3.7,3.7,0,0,1-3.4-2.7h0a3.1,3.1,0,0,1,0-1.8h0a3.2,3.2,0,0,1,1.2-1.5l0.2-.2L261,63h0a1.9,1.9,0,0,1,1-.3,2,2,0,1,1,0,4,2,2,0,0,1-1.2-.5h0a2.2,2.2,0,0,0,.5.9,2.1,2.1,0,0,0,1.5.7,3.4,3.4,0,0,0,2.4-.7,3,3,0,0,0,1-2.1h0a3.5,3.5,0,0,0-.8-2.5,4,4,0,0,0-2.9-1.3h-0.1c-2.6-.1-5.9,1.9-9.2,3.9s-7.1,4.4-10.5,4.4a8,8,0,0,1-5.7-2.1,7.9,7.9,0,0,1-2.4-5.6h0V61.3h0a8.2,8.2,0,0,1,.2-1.6l-1.9,2.1h0a31.5,31.5,0,0,1-44.6,0h0l-1.9-2.1a8.2,8.2,0,0,1,.2,1.6h0v0.4h0a7.9,7.9,0,0,1-2.4,5.6,8,8,0,0,1-5.7,2.1c-3.4,0-7-2.2-10.5-4.4s-6.6-4-9.2-3.9h-0.1a4,4,0,0,0-2.9,1.3,3.6,3.6,0,0,0-.8,2.5h0a3,3,0,0,0,1,2.1,3.4,3.4,0,0,0,2.4.7,2.2,2.2,0,0,0,2-1.6h0a2,2,0,0,1-1.2.5,2,2,0,1,1,0-4,1.9,1.9,0,0,1,1,.3h0a3.3,3.3,0,0,1,1.6,1.8h0a3.2,3.2,0,0,1,0,1.8h0a3.7,3.7,0,0,1-.9,1.6,3.7,3.7,0,0,1-2.5,1.1H41.7a3,3,0,0,1-2-1,3.3,3.3,0,0,1-.9-2.3h0Zm61.5,88.5v0.4h0a7.9,7.9,0,0,1-1.9,4.9,6.2,6.2,0,0,1-4.6,2.2H93.4a6.2,6.2,0,0,1-4.3-1.9,5.4,5.4,0,0,1-1.5-3.8h0v-0.4h0a5.4,5.4,0,0,1,1.6-3.4,4.2,4.2,0,0,1,3.1-1.2h0.2a3.9,3.9,0,0,1,2.4,1.3,3.4,3.4,0,0,1,.7,2.5h0a2,2,0,0,1-4,0,2,2,0,0,1,1.6-1.9l-0.9-.4H92.2a2.8,2.8,0,0,0-2,.8,3.9,3.9,0,0,0-1.1,2.4v0.4h0a3.9,3.9,0,0,0,1.1,2.7,4.8,4.8,0,0,0,3.3,1.4h0.3a4.7,4.7,0,0,0,3.5-1.7,6.4,6.4,0,0,0,1.5-4v-0.3a6.4,6.4,0,0,0-1.9-4.5,6.5,6.5,0,0,0-4.6-1.7c-2.9,0-6.4,2.1-9.7,4.1s-7,4.2-10,4.1H72.4a5.5,5.5,0,0,1-4-1.8,5,5,0,0,1-1.1-3.5h0a4.6,4.6,0,0,1,1.1-2.7H41.8a1.5,1.5,0,0,0-1,.5,1.8,1.8,0,0,0-.5,1.2h0a1.8,1.8,0,0,0,.5,1.2h0a1.6,1.6,0,0,0,1.1.5h0a1.1,1.1,0,0,0,.8-0.4h0a1.1,1.1,0,0,1-.4-0.8,1.1,1.1,0,0,1,2.2,0h0a2.8,2.8,0,0,1-.7,1.7,2.6,2.6,0,0,1-1.9,1h0a3.1,3.1,0,0,1-2.2-.9h0a3.3,3.3,0,0,1-1-2.2h0a3.4,3.4,0,0,1,.9-2.3,3,3,0,0,1,2-1H72.2a3.7,3.7,0,0,1,3.4,2.7h0a3.1,3.1,0,0,1,0,1.8h0a3.2,3.2,0,0,1-1.6,1.8h0a1.9,1.9,0,0,1-1,.3,2,2,0,1,1,0-4,2,2,0,0,1,1.3.5h0a2.2,2.2,0,0,0-.5-0.9,2.2,2.2,0,0,0-1.5-.7,3.5,3.5,0,0,0-2.4.7,3,3,0,0,0-1,2.1h0a3.6,3.6,0,0,0,.8,2.5,4.1,4.1,0,0,0,2.9,1.3h0.1c2.6,0.1,5.9-1.8,9.2-3.9s7.1-4.4,10.5-4.4A8,8,0,0,1,98,149a7.9,7.9,0,0,1,2.4,5.6h0Zm11.6,3.6a7.8,7.8,0,0,0-3.5-3.5,6.4,6.4,0,0,0,3.5-3.5,6.4,6.4,0,0,0,3.5,3.5A7.8,7.8,0,0,0,112,158.2Zm11.9,5.6h-2.9V147.2h2.9v16.7Zm11.7,0h-2.9v-3.3l-3.1-7.6v10.9h-2.9V147.2h2.9l3.1,8.1v-8.1h2.9v16.7Zm2.4-3.1v-0.8H141v0.9q0,1,1.3,1h0.5a1,1,0,0,0,1.2-1V158a0.7,0.7,0,0,0-.2-0.6l-0.8-.4-2.8-1.2-1.3-.6a1.5,1.5,0,0,1-.6-0.7,2.6,2.6,0,0,1-.2-1.1V150q0-2.9,3.5-2.9h1.8q3.5,0,3.5,2.9v1.6h-2.9v-1.5a1,1,0,0,0-1.3-1h-0.5a1,1,0,0,0-1.3,1v2.8a0.7,0.7,0,0,0,.2.6L142,154l2.8,1.1,1.3,0.6,0.6,0.5a2.3,2.3,0,0,1,.2,1.2V161q0,2.8-3.5,2.8h-1.8Q138,163.8,138,160.8Zm143,11.5h0a3.3,3.3,0,0,1-1,2.2,3.1,3.1,0,0,1-2.2.9h0a2.6,2.6,0,0,1-1.9-1,2.8,2.8,0,0,1-.7-1.7h0a1.1,1.1,0,1,1,2.2,0,1.1,1.1,0,0,1-.4.8h0a1.1,1.1,0,0,0,.8.4h0a1.6,1.6,0,0,0,1.1-.5,1.8,1.8,0,0,0,.5-1.2h0a1.9,1.9,0,0,0-.5-1.2,1.5,1.5,0,0,0-1-.5H241.8a4.6,4.6,0,0,1,1.1,2.8h0a5.1,5.1,0,0,1-1.1,3.5,5.5,5.5,0,0,1-4,1.8h-0.2c-3.1.2-6.5-1.9-10-4.1s-6.8-4.1-9.7-4.1a6.5,6.5,0,0,0-4.6,1.7,6.4,6.4,0,0,0-1.9,4.5V177a6.4,6.4,0,0,0,1.5,4,4.7,4.7,0,0,0,3.5,1.7h0.3a4.8,4.8,0,0,0,3.3-1.5,3.9,3.9,0,0,0,1.1-2.7h0v-0.4a3.9,3.9,0,0,0-1.1-2.4,2.7,2.7,0,0,0-2-.8h-0.2l-0.9.4a2,2,0,0,1,1.6,1.9,2,2,0,1,1-4,0h0a3.4,3.4,0,0,1,.7-2.5,3.9,3.9,0,0,1,2.4-1.3h0.2a4.2,4.2,0,0,1,3.1,1.2,5.4,5.4,0,0,1,1.6,3.4h0v0.3h0a5.5,5.5,0,0,1-1.5,3.8,6.3,6.3,0,0,1-4.3,1.9h-0.4a6.2,6.2,0,0,1-4.6-2.2,7.5,7.5,0,0,1-1.1-1.8,7.5,7.5,0,0,1-1.1,1.8,6.2,6.2,0,0,1-4.6,2.2h-0.4a6.3,6.3,0,0,1-4.3-1.9,5.4,5.4,0,0,1-1.5-3.8h0V178h0a5.4,5.4,0,0,1,1.6-3.4,4.2,4.2,0,0,1,3.1-1.2h0.2a3.9,3.9,0,0,1,2.4,1.3h0a3.4,3.4,0,0,1,.7,2.5h0a2,2,0,1,1-4,0,2,2,0,0,1,1.6-1.9l-0.9-.4h-0.2a2.7,2.7,0,0,0-2,.8,3.8,3.8,0,0,0-1.1,2.4v0.4h0a3.9,3.9,0,0,0,1.1,2.7,4.8,4.8,0,0,0,3.3,1.5h0.3a4.7,4.7,0,0,0,3.5-1.7,6.4,6.4,0,0,0,1.5-4v-0.3a6.4,6.4,0,0,0-1.9-4.5,6.5,6.5,0,0,0-4.6-1.7c-2.9,0-6.4,2.1-9.7,4.1s-7,4.2-10,4.1h-0.2a5.5,5.5,0,0,1-4-1.8,5.1,5.1,0,0,1-1.1-3.5h0a4.6,4.6,0,0,1,1.1-2.8H143.2a1.5,1.5,0,0,0-1,.5,1.8,1.8,0,0,0-.5,1.2h0a1.8,1.8,0,0,0,.5,1.2,1.6,1.6,0,0,0,1.1.5h0a1.1,1.1,0,0,0,.8-0.4h0a1.1,1.1,0,0,1-.4-0.8,1.1,1.1,0,1,1,2.2,0h0a2.8,2.8,0,0,1-.7,1.7,2.6,2.6,0,0,1-1.9,1h0a3.1,3.1,0,0,1-2.2-.9,3.3,3.3,0,0,1-1-2.2h0a3.3,3.3,0,0,1,.9-2.3,3,3,0,0,1,2-1h40.2a3.6,3.6,0,0,1,2.5,1.1,3.7,3.7,0,0,1,.9,1.6,3.2,3.2,0,0,1,0,1.8,3.3,3.3,0,0,1-1.6,1.8h0a1.9,1.9,0,0,1-1,.3,2,2,0,0,1,0-4,2,2,0,0,1,1.3.5h0a2.2,2.2,0,0,0-2-1.6,3.4,3.4,0,0,0-2.4.7,3,3,0,0,0-1,2.1h0a3.5,3.5,0,0,0,.8,2.5,4,4,0,0,0,2.9,1.3h0.1c2.6,0.1,5.9-1.9,9.2-3.9s7.1-4.4,10.5-4.4a8,8,0,0,1,5.7,2.1,7.4,7.4,0,0,1,1.6,2.3,7.4,7.4,0,0,1,1.6-2.3,8,8,0,0,1,5.7-2.1c3.4,0,7,2.2,10.5,4.4s6.6,4,9.2,3.9h0.1a4,4,0,0,0,2.9-1.3,3.6,3.6,0,0,0,.8-2.5h0a3,3,0,0,0-1-2.1,3.4,3.4,0,0,0-2.4-.7,2.2,2.2,0,0,0-1.5.7,2.2,2.2,0,0,0-.5.9h0a2,2,0,0,1,1.2-.5,2,2,0,0,1,0,4,1.9,1.9,0,0,1-1-.3h0a3.3,3.3,0,0,1-1.6-1.8,3.2,3.2,0,0,1,0-1.8,3.7,3.7,0,0,1,.9-1.6A3.6,3.6,0,0,1,238,169h40.1a3,3,0,0,1,2,1,3.4,3.4,0,0,1,.9,2.3h0ZM153.5,161.8h1.2a1,1,0,0,0,1.2-1.1V147.2h2.9v13.5q0,3.2-3.5,3.2h-2.5q-3.5,0-3.5-3.2V147.2h2.9v13.6A1.1,1.1,0,0,0,153.5,161.8Zm17.4,2h-2.8l-1.9-6.7h-1.8v6.7h-2.9V147.2h5.7q3.4,0,3.4,2.9v4.1a2.6,2.6,0,0,1-1.7,2.8Zm4.9-6.1v6.1h-2.9V150q0-2.9,3.5-2.9h2.2q3.5,0,3.5,2.9v13.8h-2.9v-6.1h-3.4Zm11.8-4.8v10.9h-2.9V147.2h2.9l3.1,8.1v-8.1h2.9v16.7h-2.9v-3.3Zm13.3-3.7h-0.6a1,1,0,0,0-1.2,1v10.7a1,1,0,0,0,1.2,1h0.7a1,1,0,0,0,1.2-1v-0.9h2.9V161q0,2.8-3.5,2.8h-1.9q-3.5,0-3.5-2.8V150q0-2.8,3.5-2.8h1.9q3.5,0,3.5,2.8v1.9h-2.9v-1.7C202.3,149.5,201.9,149.2,201,149.2Zm13.3,5.1v2h-3.8v5.6h4.3v2h-7.3V147.2h7.3v2h-4.3v5.1h3.8Zm12-5.1h-0.6a1,1,0,0,0-1.2,1v10.7a1,1,0,0,0,1.2,1h0.7a1,1,0,0,0,1.2-1v-0.9h2.9V161q0,2.8-3.5,2.8h-1.9q-3.5,0-3.5-2.8V150q0-2.8,3.5-2.8H227q3.5,0,3.5,2.8v1.9h-2.9v-1.7C227.6,149.5,227.2,149.2,226.3,149.2Zm6.4,11.8V150q0-2.9,3.5-2.9H239q3.5,0,3.5,2.9v11q0,2.8-3.5,2.8h-2.7Q232.7,163.8,232.7,161Zm19.5-.2h-2.3l-2.2-7.9,0.3,10.9h-2.9V147.2h3.2L251,157l2.7-9.8H257v16.7H254l0.3-10.9Zm7.6,3V147.2H265q3.5,0,3.5,2.9v5q0,2.8-3.5,2.8h-2.4v6h-2.9Zm14-6.1v6.1h-2.9V150q0-2.9,3.5-2.9h2.2q3.5,0,3.5,2.9v13.8H277v-6.1h-3.4Zm17.9,6.1h-2.9v-3.3l-3.1-7.6v10.9h-2.9V147.2h2.9l3.1,8.1v-8.1h2.9v16.7Zm7.6-6.1v6.1h-2.9v-6.1l-3.6-10.5h2.9l2.2,7.2h0.1l2-7.2h2.9Zm10.1,0.5a7.8,7.8,0,0,0-3.5-3.5,6.4,6.4,0,0,0,3.5-3.5,6.4,6.4,0,0,0,3.5,3.5A7.8,7.8,0,0,0,309.3,158.2Zm73.1-8.1h0a3.3,3.3,0,0,1-1,2.2h0a3.1,3.1,0,0,1-2.2.9h0a2.6,2.6,0,0,1-1.9-1,2.8,2.8,0,0,1-.7-1.7h0a1.1,1.1,0,0,1,2.2,0,1.1,1.1,0,0,1-.4.8h0a1.1,1.1,0,0,0,.8.4h0a1.6,1.6,0,0,0,1.1-.5,1.8,1.8,0,0,0,.5-1.2h0a1.8,1.8,0,0,0-.5-1.2,1.5,1.5,0,0,0-1-.5H352.9a4.6,4.6,0,0,1,1.1,2.7h0a5,5,0,0,1-1.1,3.5,5.5,5.5,0,0,1-4,1.8h-0.2c-3.1.2-6.5-1.9-10-4.1s-6.8-4.1-9.7-4.1a6.5,6.5,0,0,0-4.6,1.7,6.3,6.3,0,0,0-1.9,4.5v0.3a6.4,6.4,0,0,0,1.5,4,4.7,4.7,0,0,0,3.5,1.7h0.3a4.8,4.8,0,0,0,3.3-1.4,3.9,3.9,0,0,0,1.1-2.7h0V156a3.9,3.9,0,0,0-1.1-2.4,2.8,2.8,0,0,0-2-.8h-0.2l-0.9.4a2,2,0,0,1,1.6,1.9,2,2,0,0,1-4,0h0a3.4,3.4,0,0,1,.7-2.5,3.9,3.9,0,0,1,2.4-1.3h0.2a4.2,4.2,0,0,1,3.1,1.2,5.4,5.4,0,0,1,1.6,3.4h0v0.4h0a5.5,5.5,0,0,1-1.5,3.8,6.2,6.2,0,0,1-4.3,1.9h-0.4a6.2,6.2,0,0,1-4.6-2.2,8,8,0,0,1-1.9-4.9h0v-0.4h0a7.8,7.8,0,0,1,2.4-5.6,8,8,0,0,1,5.7-2.1c3.4,0,7,2.2,10.5,4.4s6.6,4,9.2,3.9h0.1a4.1,4.1,0,0,0,2.9-1.3,3.6,3.6,0,0,0,.8-2.5h0a3,3,0,0,0-1-2.1,3.4,3.4,0,0,0-2.4-.7,2.2,2.2,0,0,0-2,1.6h0a2,2,0,0,1,1.2-.5,2,2,0,1,1,0,4,1.9,1.9,0,0,1-1-.3h0a3.3,3.3,0,0,1-1.6-1.8h0a3.2,3.2,0,0,1,0-1.8h0a3.8,3.8,0,0,1,.9-1.6,3.7,3.7,0,0,1,2.5-1.1h30.5a3,3,0,0,1,2,1,3.4,3.4,0,0,1,.9,2.3h0Zm26.3-41.2-1.3,1.3-0.6.6h0l-0.4.4-6.5,6.6V133h-5.8l-0.8.2-0.7.4h0l-0.6.5a4.2,4.2,0,0,0-.9,1.4,4.1,4.1,0,0,0-.3,1.6v4.9H30.5v-4.9a4.7,4.7,0,0,0-.1-0.8h0a4.1,4.1,0,0,0-.2-0.8l-0.4-.7h0l-0.5-.7a4.3,4.3,0,0,0-1.4-.9,4.1,4.1,0,0,0-1.6-.3H21.3V117.9l-6.5-6.5L13.6,110h0l-1.1-1.1-1.1-1.1,1.1-1.1,1.1-1.1h0l1.3-1.3,6.5-6.5V82.8h5.8l0.8-.2,0.7-.4h0l0.7-.5a4.3,4.3,0,0,0,.9-1.4,4.2,4.2,0,0,0,.3-1.6V73.6H390.7v4.9a4.7,4.7,0,0,0,.1.8h0a4,4,0,0,0,.2.8l0.4,0.7h0l0.5,0.7a4.3,4.3,0,0,0,1.4.9,4.2,4.2,0,0,0,1.6.3h4.9V97.8l6.5,6.6,0.4,0.4h0l0.6,0.6,1.3,1.3,1.1,1.1Z"/><path d="M277,150.2c0-.7-0.4-1-1.3-1h-0.8q-1.3,0-1.3,1v5.6H277v-5.6Z"/><path d="M265.6,154.8v-4.6c0-.7-0.4-1-1.3-1h-1.7v6.6h1.9A1,1,0,0,0,265.6,154.8Z"/><path d="M238.4,161.8a1,1,0,0,0,1.2-1V150.2q0-1-1.3-1h-1.4q-1.3,0-1.3,1v10.7q0,1,1.3,1h1.5Z"/><circle cx="210.6" cy="22.7" r="1.1"/><path d="M210.6,69.6a29.9,29.9,0,0,0,21.2-8.8h0a30,30,0,0,0,0-42.4h0A30,30,0,1,0,210.6,69.6Zm-11.7-5.4a1.3,1.3,0,1,1-.5-1.7A1.3,1.3,0,0,1,198.9,64.2Zm3.5,1.4a1.3,1.3,0,1,1-.8-1.6A1.3,1.3,0,0,1,202.5,65.6Zm3.7,0.9a1.3,1.3,0,1,1-2.5-.5A1.3,1.3,0,0,1,206.2,66.5Zm2.5,1.5a1.3,1.3,0,1,1,1.3-1.2A1.3,1.3,0,0,1,208.6,68Zm1.8-11.9c-2.7-.1-2.9-3.1-2.9-3.1h6.2s-0.3,3.1-3.1,3.1h-0.2ZM212.6,68a1.3,1.3,0,0,1-1.3-1.2A1.3,1.3,0,1,1,212.6,68Zm3.9-.6a1.2,1.2,0,0,1-1.5-1A1.3,1.3,0,1,1,216.5,67.5Zm3.8-1.1a1.3,1.3,0,0,1-1.6-.8,1.3,1.3,0,0,1,2.4-.9A1.3,1.3,0,0,1,220.4,66.4Zm3.6-1.6a1.3,1.3,0,0,1-1.7-.5A1.3,1.3,0,1,1,224,64.7Zm0-13H197.2a1.7,1.7,0,0,1-1.4-.8,2.1,2.1,0,0,1,.1-1.7h29.4a2.1,2.1,0,0,1,.1,1.7A1.7,1.7,0,0,1,224.1,51.8Zm9,5.3a1.3,1.3,0,0,1-1.8.2,1.3,1.3,0,1,1,1.5-2A1.3,1.3,0,0,1,233.1,57.1Zm2.2-3.3a1.3,1.3,0,0,1-1.7.5,1.3,1.3,0,1,1,1.3-2.2A1.3,1.3,0,0,1,235.3,53.8Zm1.7-3.6a1.2,1.2,0,0,1-1.6.7,1.3,1.3,0,1,1,.9-2.3A1.3,1.3,0,0,1,237.1,50.2Zm1.2-3.8a1.3,1.3,0,1,1-.9-1.5A1.3,1.3,0,0,1,238.3,46.5Zm-0.7-2.8a1.3,1.3,0,1,1,1.4-1.1A1.3,1.3,0,0,1,237.6,43.7Zm1.5-5.1a1.3,1.3,0,1,1-1.3-1.2A1.3,1.3,0,0,1,239.1,38.6Zm-0.4-4a1.2,1.2,0,0,1-1,1.5,1.3,1.3,0,1,1-.4-2.5A1.2,1.2,0,0,1,238.7,34.6Zm-1-3.9a1.3,1.3,0,1,1-1.6-.8A1.3,1.3,0,0,1,237.7,30.7ZM236.3,27a1.3,1.3,0,0,1-.6,1.7,1.3,1.3,0,0,1-1.1-2.3A1.3,1.3,0,0,1,236.3,27Zm-2-3.4a1.3,1.3,0,1,1-1.7-.3A1.3,1.3,0,0,1,234.3,23.6ZM230,20.4a1.3,1.3,0,1,1,1.7,1.9A1.3,1.3,0,0,1,230,20.4Zm0.4,37.9a1.3,1.3,0,1,1-1.8,0A1.3,1.3,0,0,1,230.5,58.3Zm-3.3-40.4a1.3,1.3,0,1,1,.2,1.8A1.3,1.3,0,0,1,227.2,17.9Zm0.5,43a1.3,1.3,0,1,1-2,1.5,1.3,1.3,0,0,1,.3-1.8A1.3,1.3,0,0,1,227.7,60.9ZM224,15.8a1.3,1.3,0,0,1,2.1,1.3A1.3,1.3,0,0,1,224,15.8Zm-3.4-1.6a1.3,1.3,0,1,1,2.3,1,1.3,1.3,0,0,1-1.7.6A1.3,1.3,0,0,1,220.6,14.1ZM216.9,13a1.3,1.3,0,1,1,2.4.7A1.3,1.3,0,0,1,216.9,13Zm-2.3-1.7a1.3,1.3,0,1,1-1.4,1.1A1.3,1.3,0,0,1,214.6,11.3Zm-4-.3a1.3,1.3,0,1,1-1.3,1.3A1.3,1.3,0,0,1,210.6,11Zm-4,.3a1.3,1.3,0,1,1-1.1,1.4A1.3,1.3,0,0,1,206.6,11.3Zm-3.9.8a1.3,1.3,0,1,1-.9,1.6A1.3,1.3,0,0,1,202.8,12.1Zm-1.4,18.7V30.4a8,8,0,0,1,.2-1.7,4.2,4.2,0,0,1,1.6-2.4,14.8,14.8,0,0,1,5.2-1.9,0.6,0.6,0,0,1,.3-0.6,2.2,2.2,0,0,1-.3-1.1,2.2,2.2,0,0,1,4.5,0,2.2,2.2,0,0,1-.3,1.1,0.6,0.6,0,0,1,.3.6,17.9,17.9,0,0,1,4.4,1.4l0.7,0.5a4.2,4.2,0,0,1,1.6,2.4,8,8,0,0,1,.2,1.7v0.4l0.3,6.9c0.4,5.4,2.4,8.4,3.8,9.9H197.3c1.3-1.4,3.4-4.5,3.8-9.9ZM199,13.5a1.3,1.3,0,1,1-.6,1.7A1.3,1.3,0,0,1,199,13.5Zm-3.5,1.9a1.3,1.3,0,1,1-.4,1.7A1.3,1.3,0,0,1,195.5,15.4Zm-0.2,45.2a1.3,1.3,0,1,1-1.8.3A1.3,1.3,0,0,1,195.3,60.6Zm-3-42.9a1.3,1.3,0,1,1-.2,1.8A1.3,1.3,0,0,1,192.3,17.7Zm0.3,40.6a1.3,1.3,0,1,1-1.7,1.8A1.3,1.3,0,0,1,192.5,58.3Zm-3.1-37.8a1.3,1.3,0,1,1,.1,1.8A1.3,1.3,0,0,1,189.4,20.5ZM187,23.6a1.3,1.3,0,1,1,.3,1.7A1.3,1.3,0,0,1,187,23.6ZM185,27a1.3,1.3,0,0,1,2.3,1.1A1.3,1.3,0,1,1,185,27Zm-1.5,3.7a1.3,1.3,0,1,1,.8,1.6A1.3,1.3,0,0,1,183.5,30.7Zm0.5,2.8a1.3,1.3,0,1,1-1.5,1A1.3,1.3,0,0,1,184,33.6Zm-0.6,3.8a1.3,1.3,0,1,1-1.3,1.2A1.3,1.3,0,0,1,183.4,37.3Zm-1.2,5.2a1.3,1.3,0,1,1,1.4,1.1A1.3,1.3,0,0,1,182.3,42.5Zm0.7,3.9a1.3,1.3,0,1,1,1.5.9A1.3,1.3,0,0,1,182.9,46.5Zm1.2,3.8a1.3,1.3,0,1,1,1.6.7A1.3,1.3,0,0,1,184.2,50.2Zm1.7,3.6a1.3,1.3,0,0,1,2.2-1.3A1.3,1.3,0,1,1,185.9,53.8Zm2.2,3.3a1.2,1.2,0,0,1,.2-1.8,1.3,1.3,0,1,1,1.5,2A1.3,1.3,0,0,1,188.1,57.1Z"/><path d="M405.3,105.5h0l-6.9-7V84.3h-3.4a5.8,5.8,0,0,1-4.1-1.7,5.9,5.9,0,0,1-1.3-1.9,5.7,5.7,0,0,1-.4-2.2V75.1H32v3.4a5.8,5.8,0,0,1-1.7,4.1,5.9,5.9,0,0,1-1.9,1.3,5.7,5.7,0,0,1-2.2.4H22.9V98.5l-6.9,7h0l-1.1,1.1-1.3,1.3,1.3,1.3,1.1,1.1h0l6.9,7v14.2h3.4a5.8,5.8,0,0,1,4.1,1.7,5.8,5.8,0,0,1,1.3,1.9,5.7,5.7,0,0,1,.4,2.2v3.4H389.2v-3.4a5.8,5.8,0,0,1,1.7-4.1,6,6,0,0,1,1.9-1.3,5.7,5.7,0,0,1,2.2-.4h3.4V117.3l6.9-7h0l1.1-1.1,1.3-1.3-1.3-1.3Zm-10.3,10.4V128a9.2,9.2,0,0,0-9.2,9.2H35.5a9.2,9.2,0,0,0-9.2-9.2V115.8l-7.9-8,7.9-8V87.7a9.2,9.2,0,0,0,9.2-9.2H385.8a9.2,9.2,0,0,0,9.2,9.2V99.9l7.9,8Z"/><path d="M146.2,45.5a4.3,4.3,0,0,1-2.9-1.7,4.3,4.3,0,0,1-1.7,2.9,5.2,5.2,0,0,1,2.9,1.7A5.2,5.2,0,0,1,146.2,45.5Z"/><path d="M154.8,47.2a7.6,7.6,0,0,1,2.7-4.1,6.3,6.3,0,0,1-4.1-2.7,6.3,6.3,0,0,1-2.7,4.1A7.6,7.6,0,0,1,154.8,47.2Z"/><path d="M166.8,46.3a10.2,10.2,0,0,1,4.1-5.1,8.5,8.5,0,0,1-5.1-4.1,8.5,8.5,0,0,1-4.1,5.1A10.2,10.2,0,0,1,166.8,46.3Z"/><path d="M279.7,46.7a4.3,4.3,0,0,1-1.7-2.9,4.3,4.3,0,0,1-2.9,1.7,5.2,5.2,0,0,1,1.7,2.9A5.2,5.2,0,0,1,279.7,46.7Z"/><path d="M266.5,47.2a7.6,7.6,0,0,1,4.1-2.7,6.3,6.3,0,0,1-2.7-4.1,6.3,6.3,0,0,1-4.1,2.7A7.6,7.6,0,0,1,266.5,47.2Z"/><path d="M254.5,46.3a10.2,10.2,0,0,1,5.1-4.1,8.4,8.4,0,0,1-4.1-5.1,8.5,8.5,0,0,1-5.1,4.1A10.2,10.2,0,0,1,254.5,46.3Z"/><path d="M42,103a8.9,8.9,0,0,1-4.9,4.9,10.8,10.8,0,0,1,4.9,4.9,10.8,10.8,0,0,1,4.9-4.9A8.9,8.9,0,0,1,42,103Z"/><path d="M379.3,103a8.9,8.9,0,0,1-4.9,4.9,10.8,10.8,0,0,1,4.9,4.9,10.8,10.8,0,0,1,4.9-4.9A8.9,8.9,0,0,1,379.3,103Z"/><path d="M56.8,97.1h2.7c2.4-7,3.3-9.9,9.7-9.9H72v38.5c0,2.5-.5,3.6-2.7,3.7l-4,.3v2.7H89.9v-2.7l-4-.3c-2.2-.1-2.7-1.2-2.7-3.7V87.1H86c6.4,0,7.3,2.9,9.7,9.9h2.7V83.9H56.8V97.1Z"/><path d="M137,86.6c-3.4-2.1-8-2.7-13.6-2.7H101.7v2.7c5,0.2,5.5.6,5.5,4.1v34.8c0,3.6-.6,3.9-5.5,4.1v2.7h23.4v-2.5c-6.2-.3-6.7-0.7-6.7-4.3V113.1h4.2c6.6,0,11.7-1.2,15-3.5s5.4-6.3,5.4-11.5S140.5,88.7,137,86.6Zm-14.7,23.3c-2.7,0-3.9-.3-3.9-3V89.7c0-2,.6-2.6,4.1-2.6s8.7,3.1,8.7,11.2C131.2,103.6,129.4,109.9,122.4,109.9Z"/><path d="M178.9,99.3L173,115.7h-0.2l-8.3-21.5c-1.2-3.1-2.8-7.3-3.7-10.3H142.3v2.7c5,0.2,5.5.6,5.5,4.1v24a98.1,98.1,0,0,1-.3,10.9c-0.2,2.4-.9,3.5-2.5,3.7l-2.4.3v2.7h16.7v-2.7l-3.8-.3c-2-.1-2.7-1.3-2.9-3.7a99.7,99.7,0,0,1-.3-10.9V90.9h0.2l15,40.2h4.2l14.6-40.2h0.2v34.7c0,3.6-.6,3.9-5.5,4.1v2.7h21.7v-2.7c-5-.2-5.5-0.6-5.5-4.1V90.7c0-3.6.6-3.9,5.5-4.1V83.9H184.4C183.2,87.3,180.8,94.1,178.9,99.3Z"/><path d="M243.5,129.1c-5.9,0-7.8-.6-7.8-5.1V90.7c0-3.6.6-3.9,6.4-4.1V83.9H219.1v2.7c5,0.2,5.5.6,5.5,4.1v34.8c0,3.6-.6,3.9-5.5,4.1v2.7h37.7l0.8-14.1h-2.7C252.4,125.2,251.5,129.1,243.5,129.1Z"/><path d="M260,86.6c5,0.2,5.5.6,5.5,4.1v34.8c0,3.6-.6,3.9-5.5,4.1v2.7h22.2v-2.7c-5-.2-5.5-0.6-5.5-4.1V90.7c0-3.6.6-3.9,5.5-4.1V83.9H260v2.7Z"/><path d="M285.7,86.6c5,0.2,5.5.6,5.5,4.1v34.8c0,3.6-.6,3.9-5.5,4.1v2.7h23.4v-2.7c-6.2-.2-6.7-0.6-6.7-4.1V110.1h8c4.4,0,5.3,1.2,6.4,6.3h2.7V100.1h-2.7c-1.1,5.1-2,6.3-6.4,6.3h-8V89.7c0-2,.5-2.5,2.4-2.5h4.7c7.2,0,8.5,2.9,10.6,9.7h2.7V83.9H285.7v2.7Z"/><path d="M350.8,129.1c-6.4,0-8.6-.6-8.6-5.1V108.7h6.6c4.4,0,5.3,1.2,6.4,6.3h2.7V98.8h-2.7c-1.1,5.1-2,6.3-6.4,6.3h-6.6V89.7c0-2,.5-2.5,2.4-2.5h5.2c7.2,0,8.5,2.8,10.6,9.7h2.7V83.9H325.5v2.7c5,0.2,5.5.6,5.5,4.1v34.8c0,3.6-.6,3.9-5.5,4.1v2.7h39.1l0.8-14.5h-2.7C360.2,125.2,359,129.1,350.8,129.1Z"/><polygon points="116.9 58.2 114.4 58.2 114.4 55 116.6 55 116.6 53.8 114.4 53.8 114.4 50.9 116.9 50.9 116.9 49.7 112.7 49.7 112.7 59.4 116.9 59.4 116.9 58.2"/><path d="M119.9,59.4h1q2,0,2-1.6V55.7a1.3,1.3,0,0,0-.1-0.7l-0.3-.3-0.7-.4-1.6-.7-0.5-.2a0.4,0.4,0,0,1-.1-0.4V51.5a0.6,0.6,0,0,1,.7-0.6h0.3a0.6,0.6,0,0,1,.7.6v0.8H123V51.4q0-1.6-2-1.6h-1.1q-2,0-2,1.6v2a1.5,1.5,0,0,0,.1.6l0.3,0.4,0.8,0.4,1.6,0.7,0.5,0.2a0.4,0.4,0,0,1,.1.4v1.6a0.6,0.6,0,0,1-.7.6h-0.3c-0.5,0-.8-0.2-0.8-0.6V57.1h-1.7v0.5Q117.9,59.4,119.9,59.4Z"/><polygon points="125.4 59.4 127.1 59.4 127.1 50.9 128.7 50.9 128.7 49.7 123.8 49.7 123.8 50.9 125.4 50.9 125.4 59.4"/><rect x="128.2" y="57.7" width="1.8" height="1.64"/><path d="M291.9,51.6v7.7h1.7V50.2l-1.1-.5h-0.2l-0.7.7-1.1.5,0.4,0.9Z"/><path d="M297.2,55.8h0.4l1.1-.5v2.3a0.5,0.5,0,0,1-.7.6h-0.2a0.6,0.6,0,0,1-.8-0.7V57.1h-1.7v0.5q0,1.7,2,1.7h1q2,0,2-1.7V51.4q0-1.7-2-1.7h-1.1q-2,0-2,1.7v2.7Q295.2,55.8,297.2,55.8Zm-0.3-4.4c0-.4.3-0.6,0.8-0.6h0.2q0.8,0,.8.6v3.2h-1a0.6,0.6,0,0,1-.8-0.7V51.5Z"/><path d="M302.9,51.6v7.7h1.7V50.2l-1.1-.5h-0.2l-0.7.7-1.1.5,0.4,0.9Z"/><path d="M307.8,51.5a0.6,0.6,0,0,1,.7-0.6h0.1a0.6,0.6,0,0,1,.7.6v1.8a1.9,1.9,0,0,1,0,.2v0.2l-0.2.2-0.3.3-1.7,1.2-0.5.4-0.2.3a1.3,1.3,0,0,0-.1.4v3h4.5V58.2h-2.8V56.8c0-.1,0-0.2,0-0.3V56.4l0.4-.3,1.9-1.4,0.5-.5a1.1,1.1,0,0,0,.1-0.5V51.4q0-1.6-2-1.6h-0.9q-2,0-2,1.6v1.1h1.7v-1Z"/></svg>