<svg xmlns="http://www.w3.org/2000/svg" viewBox="0 0 442 304"><title>logocolor</title><rect x="3" y="3" width="407" height="298" rx="21" ry="21" fill="#862533"/><path d="M389,6a18,18,0,0,1,18,18V280a18,18,0,0,1-18,18H24A18,18,0,0,1,6,280V24A18,18,0,0,1,24,6H389m0-6H24A24.07,24.07,0,0,0,0,24V280a24.07,24.07,0,0,0,24,24H389a24.07,24.07,0,0,0,24-24V24A24.07,24.07,0,0,0,389,0Z" fill="#fff"/><path d="M436.14,286.22c0-2.67-1.69-3.48-4.59-3.48h-4.18v11.49h2.42v-4.86h1.12l2.56,4.86h2.47l-2.89-5C434.91,289.15,436.14,288.33,436.14,286.22Zm-4.25,1.22h-2.1v-2.77h1.68c.9,0,2.23.09,2.23,1.29S433,287.44,431.89,287.44Z" fill="#862533"/><path d="M431.5,278A10.5,10.5,0,1,0,442,288.5,10.21,10.21,0,0,0,431.5,278Zm0,18.55c-4.11,0-7.36-3.28-7.36-8.05s3.25-8.05,7.36-8.05,7.35,3.29,7.35,8.05S435.52,296.55,431.5,296.55Z" fill="#862533"/><path d="M382.91,16H31.07A13.09,13.09,0,0,0,18,29.07V273.92A13.1,13.1,0,0,0,31.07,287H382.91A13.1,13.1,0,0,0,396,273.92V29.07A13.09,13.09,0,0,0,382.91,16Zm7.94,257.92a8,8,0,0,1-7.94,7.94H31.07a7.94,7.94,0,0,1-7.93-7.94V29.07a7.94,7.94,0,0,1,7.93-7.93H382.91a8,8,0,0,1,7.94,7.93Z" fill="#fff"/><polygon points="107 253 115 252.2 115 218 107 218.79 107 253" fill="#fff"/><polygon points="142.78 236.72 121.09 218 121 218 121 252.62 129.21 251.83 129.21 233.89 150.89 253 151 253 151 218 142.78 218.78 142.78 236.72" fill="#fff"/><path d="M257.85,218,240,251.3l8,1.7,3.35-7.16h12.74l3.42,7.16,8.45-1.7L258,218Zm-4.45,21.65,4.45-8.19,4.43,8.19Z" fill="#fff"/><path d="M230.81,237.7c3.47-1.27,5.51-5,5.51-8.43,0-7.56-5.79-10.27-13.75-10.27H213v33.62l8.44-.79V237.31h.09L231.45,253l8.55-2.67Zm-9.37-2.38V226c3.46-.15,6.45.48,6.45,4.46S225.06,235.56,221.44,235.32Z" fill="#fff"/><path d="M163.29,227.7c0-1.75,2.17-2.62,3.6-2.62,2.53,0,4,.87,5.85,2.52l4.44-5.74A16.58,16.58,0,0,0,166.64,218c-5.94,0-12,3.7-12,10.34,0,12,14.71,8.87,14.71,14.08,0,2.14-2.63,3-4.32,3a7.9,7.9,0,0,1-6.18-2.69L154,249.05A17.34,17.34,0,0,0,165.41,253c6.84,0,12.59-3.66,12.59-11.17C178,229.55,163.29,233,163.29,227.7Z" fill="#fff"/><path d="M200.64,237.06c0,4.58-.65,8.34-6.06,8.34-4.17,0-5.21-3-5.21-6.52V218l-8.37.78v22.43c0,8.14,5.52,11.79,13.39,11.79,8.47,0,14.61-4.58,14.61-12.38V218l-8.36.78Z" fill="#fff"/><polygon points="300.79 236.72 279.1 218 279 218 279 252.62 287.22 251.83 287.22 233.89 308.91 253 309 253 309 218 300.79 218.78 300.79 236.72" fill="#fff"/><path d="M321.2,235.4c0-5.75,4-9.8,9.56-9.8a10.64,10.64,0,0,1,6,2.39l-1.24-8.92a12.82,12.82,0,0,0-5.41-1.07c-10,0-17.14,7.6-17.14,17.61C313,246,320.11,253,330.18,253a15.85,15.85,0,0,0,5.8-1.22l1-8.87a11.41,11.41,0,0,1-6.24,2.49C324.92,245.4,321.2,241.21,321.2,235.4Z" fill="#fff"/><polygon points="350.13 239.26 358.6 239.26 358.6 232.09 350.13 232.09 350.13 226.18 361.99 226.18 360.54 219 342 219 342 253 361 253 363 245.81 350.13 245.81 350.13 239.26" fill="#fff"/><polygon points="158.19 89.39 173.29 89.39 173.29 76.64 158.19 76.64 158.19 63.72 179 63.72 175.35 50 143 50 143 111 158.19 110.3 158.19 89.39" fill="#fff"/><path d="M254,83.38h.19L271.82,112,287,107.14l-16.33-23c6.19-2.29,9.8-9.11,9.8-15.36C280.47,55,270.16,50,256,50H239v61.29l15-1.42Zm0-20.57c6.19-.27,11.49.87,11.49,8.12s-5,9.28-11.49,8.84Z" fill="#fff"/><path d="M185.53,112l6.08-12.89h23L220.78,112,236,108.93,203.41,49h-.16L171,108.93Zm17.72-38.78,8,14.74h-16Z" fill="#fff"/><polygon points="308.64 83.13 308.82 83.13 323.34 112 323.52 112 339.46 83.04 339.64 83.04 344.85 112 360 109.89 343.89 49 343.72 49 323.96 85.85 304.83 49 304.66 49 288 109.89 303.41 112 308.64 83.13" fill="#fff"/><path d="M123.9,187c15.13,0,26.1-8.26,26.1-22.29V124l-14.94,1.41v32.9c0,8.25-1.14,15-10.81,15-7.47,0-9.31-5.36-9.31-11.77V124L100,125.41v40.36C100,180.42,109.85,187,123.9,187Z" fill="#fff"/><path d="M94,169a15.85,15.85,0,0,0-9.79-15v-.18a13.62,13.62,0,0,0,8-12.8c0-12.46-11.85-16-24-16H51v61H71.83C87.41,186,94,178.7,94,169ZM66.15,137h3.27c3.57,0,7.67,1.34,7.67,6,0,3.82-2.32,6.32-7.13,6.32H66.15Zm0,37V161.28H70c4.63,0,8.91.8,8.91,6.49,0,5-4.1,6.22-8.71,6.22Z" fill="#fff"/><path d="M199.47,143.72C199.47,130,189.13,125,175,125H158v61.3l15-1.42V158.39h.18L190.82,187,206,182.14l-16.33-23C195.84,156.78,199.47,150,199.47,143.72ZM173,154.77v-17c6.19-.27,11.47.89,11.47,8.13S179.43,155.21,173,154.77Z" fill="#fff"/><polygon points="246.14 137.88 243.47 125 209 125 209 186 244.27 186 248 173.11 224.1 173.11 224.1 161.37 239.83 161.37 239.83 148.47 224.1 148.47 224.1 137.88 246.14 137.88" fill="#fff"/><path d="M268.6,174.11h23L297.76,187,313,183.93,280.41,124h-.16L248,183.93,262.54,187Zm11.65-25.88,8,14.74h-16Z" fill="#fff"/><path d="M335.9,187c15.1,0,26.1-8.26,26.1-22.29V124l-14.95,1.41v32.9c0,8.25-1.14,15-10.8,15-7.46,0-9.32-5.36-9.32-11.77V124L312,125.41v40.36C312,180.42,321.85,187,335.9,187Z" fill="#fff"/><rect x="49" y="200" width="317" height="5" fill="#fff"/></svg>