<?xml version="1.0" encoding="UTF-8"?>
<svg id="Layer_1" data-name="Layer 1" xmlns="http://www.w3.org/2000/svg" xmlns:xlink="http://www.w3.org/1999/xlink" viewBox="0 0 887.04 100">
  <defs>
    <style>
      .cls-1 {
        fill: url(#New_Gradient_Swatch-6);
      }

      .cls-1, .cls-2, .cls-3, .cls-4, .cls-5, .cls-6, .cls-7, .cls-8 {
        stroke-width: 0px;
      }

      .cls-2 {
        fill: url(#New_Gradient_Swatch-7);
      }

      .cls-3 {
        fill: url(#New_Gradient_Swatch-4);
      }

      .cls-4 {
        fill: url(#New_Gradient_Swatch-5);
      }

      .cls-5 {
        fill: url(#New_Gradient_Swatch-2);
      }

      .cls-6 {
        fill: url(#New_Gradient_Swatch-3);
      }

      .cls-7 {
        fill: url(#New_Gradient_Swatch);
      }

      .cls-8 {
        fill: #fff;
      }
    </style>
    <linearGradient id="New_Gradient_Swatch" data-name="New Gradient Swatch" x1="1.2" y1="50" x2="890.61" y2="50" gradientUnits="userSpaceOnUse">
      <stop offset="0" stop-color="#5cf"/>
      <stop offset="1" stop-color="#0075ff"/>
    </linearGradient>
    <linearGradient id="New_Gradient_Swatch-2" data-name="New Gradient Swatch" x1="1.2" x2="890.62" xlink:href="#New_Gradient_Swatch"/>
    <linearGradient id="New_Gradient_Swatch-3" data-name="New Gradient Swatch" x1="1.2" x2="890.61" xlink:href="#New_Gradient_Swatch"/>
    <linearGradient id="New_Gradient_Swatch-4" data-name="New Gradient Swatch" x1="1.2" x2="890.61" xlink:href="#New_Gradient_Swatch"/>
    <linearGradient id="New_Gradient_Swatch-5" data-name="New Gradient Swatch" x1="1.2" x2="890.61" xlink:href="#New_Gradient_Swatch"/>
    <linearGradient id="New_Gradient_Swatch-6" data-name="New Gradient Swatch" x1="1.2" x2="890.61" xlink:href="#New_Gradient_Swatch"/>
    <linearGradient id="New_Gradient_Swatch-7" data-name="New Gradient Swatch" x1="1.2" x2="890.61" xlink:href="#New_Gradient_Swatch"/>
  </defs>
  <path class="cls-7" d="M813.69,29.07c1.38-.81,3.12-1.22,5.22-1.22l59,.14,9.14-28h-68.43c-6.57,0-12.5.91-17.79,2.71-5.28,1.81-9.86,4.19-13.71,7.14-3.86,2.95-6.98,6.31-9.36,10.07-2.38,3.76-3.95,7.62-4.71,11.57-.76,3.95-.67,7.83.29,11.64.62,2.47,1.63,4.75,3.02,6.86h-24.63l-1.08,3.31-14.05,46.69h89.6c6.57,0,12.5-.9,17.78-2.71,5.29-1.81,9.88-4.22,13.79-7.21,3.9-3,7.05-6.43,9.43-10.29,2.38-3.86,3.95-7.79,4.72-11.78.76-4,.67-7.91-.29-11.72-.95-3.81-2.81-7.24-5.57-10.29-2.76-3.05-6.52-5.5-11.28-7.36-4.76-1.86-10.57-2.79-17.43-2.79h-21.14c-2.1,0-3.55-.43-4.36-1.29-.81-.86-1.05-1.79-.71-2.78.33-1,1.19-1.9,2.57-2.71Z"/>
  <path class="cls-8" d="M834.31,72.89h-4.95c-1.28,0-2.26-.28-2.92-.84-.67-.56-1.06-1.26-1.19-2.1-.13-.84-.03-1.75.3-2.73.33-.97.85-1.88,1.55-2.71.7-.83,1.56-1.53,2.57-2.08,1.01-.56,2.12-.84,3.33-.84l12.22.04,2.21-6.84h-12.33c-2.45,0-4.7.36-6.77,1.07-2.07.71-3.9,1.66-5.51,2.83-.76.56-1.46,1.15-2.1,1.78l2.64-5.68h-7.38l-6.27,13.54-.57-13.54h-8.45l-6.27,13.54-.57-13.54h-19.12l-6.95,11.65.5-11.65h-13.08l-8.13,24.94h7.49l4.85-15.04-.64,15.04h8.45l8.98-15-4.85,15h8.45l5.89-18.32.76,18.32h10.05l4.81-10.37.43,10.37h10.05l4.08-8.78c0,.3,0,.59.04.89.14,1.48.65,2.81,1.51,3.99.87,1.18,2.11,2.12,3.74,2.83,1.63.71,3.69,1.07,6.18,1.07h13.9l4.42-13.65h-9.16l-2.17,6.81Z"/>
  <path class="cls-5" d="M270.25,27.43H122.54L101.37,0h177.88l-9,27.43ZM240.25,63.57h-50.57l-2.86,9h68.71l-8.86,27.43h-105.71l10.03-31.15c6.28-19.49,24.42-32.71,44.9-32.71h53.21l-8.86,27.43Z"/>
  <path class="cls-6" d="M346.77,27.28l8.71-27.28h137.02c10,0,18.26,1.43,24.79,4.28,6.52,2.86,11.52,6.64,15,11.36,3.48,4.71,5.52,10.05,6.14,16,.62,5.95-.07,12.07-2.07,18.36-2,6.29-5.19,12.41-9.57,18.36-4.38,5.95-9.76,11.28-16.14,16-6.38,4.71-13.74,8.5-22.07,11.36-8.34,2.86-17.41,4.29-27.21,4.29h-19.43c-11.81,0-21.24-1.98-28.29-5.93-7.05-3.95-11.98-9.05-14.79-15.29-2.81-6.24-3.67-13.12-2.57-20.64.01-.08.02-.15.03-.23,1.89-12.64,13.12-21.77,25.9-21.77h21.43c-3.43,3.24-6.07,6.98-7.93,11.22-1.86,4.24-2.64,8.21-2.36,11.93.29,3.71,1.76,6.86,4.43,9.43,2.67,2.57,6.76,3.86,12.29,3.86l19.71.14c4.95,0,9.45-1.12,13.5-3.36,4.05-2.24,7.48-5.02,10.29-8.36,2.81-3.33,4.88-6.95,6.21-10.86,1.33-3.9,1.71-7.55,1.14-10.93-.57-3.38-2.19-6.19-4.86-8.43-2.67-2.24-6.57-3.36-11.71-3.36l-137.59-.14Z"/>
  <path class="cls-3" d="M320.33,36.14l-3.72,11.29h18.14c2.47,0,4.74-.29,6.79-.86,2.05-.57,3.86-1.33,5.43-2.29,1.57-.95,2.86-2.02,3.86-3.22,1-1.19,1.69-2.4,2.07-3.64.76-2.48.26-4.76-1.5-6.86-1.76-2.09-5.02-3.14-9.78-3.14h-97.29L253.33,0h96c10.28,0,18.52,1.26,24.71,3.78,6.19,2.52,10.76,5.79,13.72,9.78,2.95,4,4.55,8.43,4.78,13.29.24,4.86-.41,9.67-1.93,14.43-1.52,4.67-3.78,9.05-6.79,13.14-3,4.1-7.07,7.67-12.21,10.71-5.14,3.05-11.43,5.43-18.86,7.14-7.43,1.72-16.33,2.57-26.71,2.57h-18.43l-8.14,25.14h-36.72l9.34-28.8c6.78-20.9,26.26-35.06,48.23-35.06h0Z"/>
  <path class="cls-4" d="M532.75,100l9.38-28.94c6.75-20.82,26.15-34.92,48.04-34.92h0l-3.57,11.29h23.86c4.86,0,8.5-1.05,10.93-3.14,2.43-2.09,3.76-4.38,4-6.86.24-2.48-.6-4.76-2.5-6.86-1.91-2.09-4.76-3.14-8.57-3.14h-100L483.29,0h134.18c9.62,0,17.62,1.55,24,4.64,6.38,3.1,11.26,7.07,14.64,11.93,3.38,4.86,5.24,10.19,5.57,16,.33,5.81-.74,11.45-3.22,16.93-2.48,5.48-6.41,10.38-11.78,14.71-5.38,4.34-12.07,7.45-20.07,9.36l15.71,26.43h-36.71l-14.71-24.71h-13.43l-8,24.71h-36.71Z"/>
  <path class="cls-1" d="M18.43,100l9.38-28.94c6.75-20.82,26.15-34.92,48.04-34.92h0l-3.57,11.29h23.86c4.86,0,8.5-1.05,10.93-3.14,2.43-2.09,3.76-4.38,4-6.86.24-2.48-.6-4.76-2.5-6.86-1.91-2.09-4.76-3.14-8.57-3.14H0L9,0h94.14c9.62,0,17.62,1.55,24,4.64,6.38,3.1,11.26,7.07,14.64,11.93,3.38,4.86,5.24,10.19,5.57,16,.33,5.81-.74,11.45-3.22,16.93-2.48,5.48-6.41,10.38-11.78,14.71-5.38,4.34-12.07,7.45-20.07,9.36l15.71,26.43h-36.71l-14.71-24.71h-13.43l-8,24.71H18.43Z"/>
  <path class="cls-2" d="M762.13,27.43h-112.57l8.86-27.43h112.72l-9,27.43ZM725.7,36.14h0l-20.57,63.86h-37l9.23-28.64c6.76-20.99,26.29-35.22,48.34-35.22Z"/>
</svg>