<svg xmlns="http://www.w3.org/2000/svg" viewBox="0 0 275.11 265.91"><title>direct-reverse</title><path d="M0,174.33H7.88l5.48,16.17h.06l5.51-16.17h7.9v24.78H21.59v-19h-.07l-6.25,19h-4l-6-19H5.19v19H0Z" fill="#fff"/><path d="M30.39,186.72a14.49,14.49,0,0,1,1-5.39A11.88,11.88,0,0,1,34,177.22a11.76,11.76,0,0,1,4.07-2.61,15,15,0,0,1,10.28,0,11.58,11.58,0,0,1,6.73,6.72,15.61,15.61,0,0,1,0,10.78,11.58,11.58,0,0,1-6.73,6.72,15,15,0,0,1-10.28,0A11.76,11.76,0,0,1,34,196.22a11.88,11.88,0,0,1-2.67-4.11A14.49,14.49,0,0,1,30.39,186.72Zm5.44,0a9.59,9.59,0,0,0,.52,3.2,7.41,7.41,0,0,0,1.5,2.52,6.75,6.75,0,0,0,2.34,1.66,8,8,0,0,0,6.08,0,6.8,6.8,0,0,0,2.33-1.66,7.41,7.41,0,0,0,1.5-2.52,9.59,9.59,0,0,0,.52-3.2,9.7,9.7,0,0,0-.52-3.19A7.36,7.36,0,0,0,48.6,181a7,7,0,0,0-2.33-1.67,8.13,8.13,0,0,0-6.08,0A6.9,6.9,0,0,0,37.85,181a7.36,7.36,0,0,0-1.5,2.53A9.7,9.7,0,0,0,35.83,186.72Z" fill="#fff"/><path d="M59.62,174.33h9.21a15.24,15.24,0,0,1,3.44.37,7.94,7.94,0,0,1,2.86,1.22,6,6,0,0,1,2,2.31,8.13,8.13,0,0,1,.72,3.62,7.54,7.54,0,0,1-1.31,4.47,5.83,5.83,0,0,1-3.83,2.32l6,10.47H72.42l-5-9.91H64.86v9.91H59.62Zm5.24,10.25H68c.47,0,1,0,1.5-.05a4.54,4.54,0,0,0,1.43-.31,2.52,2.52,0,0,0,1.06-.83,2.55,2.55,0,0,0,.42-1.57,2.79,2.79,0,0,0-.37-1.51,2.55,2.55,0,0,0-.94-.85,4.11,4.11,0,0,0-1.31-.41,10.4,10.4,0,0,0-1.45-.1H64.86Z" fill="#fff"/><path d="M102.93,197.36a18.31,18.31,0,0,1-4.84,1.82,23.81,23.81,0,0,1-5.14.56,14.06,14.06,0,0,1-5.14-.91,11.58,11.58,0,0,1-6.73-6.72,15.61,15.61,0,0,1,0-10.78,11.58,11.58,0,0,1,6.73-6.72A14.06,14.06,0,0,1,93,173.7a18.23,18.23,0,0,1,5.26.72,10.29,10.29,0,0,1,4.22,2.46l-3.7,4.2a7.31,7.31,0,0,0-2.42-1.75,8.39,8.39,0,0,0-3.36-.59,7.63,7.63,0,0,0-3,.59A7,7,0,0,0,87.58,181a7.36,7.36,0,0,0-1.5,2.53,9.45,9.45,0,0,0-.52,3.19,9.34,9.34,0,0,0,.52,3.2,7.41,7.41,0,0,0,1.5,2.52,6.8,6.8,0,0,0,2.33,1.66,7.46,7.46,0,0,0,3,.6,9.59,9.59,0,0,0,3-.4,10.82,10.82,0,0,0,2-.83v-4H93.63v-5h9.3Z" fill="#fff"/><path d="M115.36,174.33h4.34l10.35,24.78h-5.92l-2-5.25h-9.24l-2,5.25h-5.78Zm2,7.21-2.89,7.7h5.81Z" fill="#fff"/><path d="M132.43,174.33h7.13l10.11,17.22h.07V174.33H155v24.78h-6.86l-10.38-17.64h-.07v17.64h-5.24Z" fill="#fff"/><path d="M167.28,174.33H173l3.79,15.89h.07l5-15.89h4.88l4.94,16.31h.06l4-16.31H201l-7,24.78h-4.67L184.14,182h-.06l-5.25,17.15h-4.5Z" fill="#fff"/><path d="M203.36,174.33h5.24v9.24h10.19v-9.24H224v24.78h-5.24V188.4H208.6v10.71h-5.24Z" fill="#fff"/><path d="M228.8,174.33H234v24.78H228.8Z" fill="#fff"/><path d="M243.41,179.16h-6.78v-4.83h18.81v4.83h-6.79v20h-5.24Z" fill="#fff"/><path d="M258.3,174.33h16.16v5H263.54V184h10.31v5H263.54v5h11.52v5H258.3Z" fill="#fff"/><path d="M100.44,215.08a6.84,6.84,0,0,0-2.24-1.56,7.46,7.46,0,0,0-3-.57,7.55,7.55,0,0,0-3.17.65,7.19,7.19,0,0,0-2.38,1.74,7.67,7.67,0,0,0-1.49,2.54,9.06,9.06,0,0,0,0,6.05,7.67,7.67,0,0,0,1.49,2.54A7.19,7.19,0,0,0,92,228.21a7.55,7.55,0,0,0,3.17.65,10.79,10.79,0,0,0,2.75-.35,9.55,9.55,0,0,0,2.35-.95V221.4H95.89v-1.72h6.26v9a13.63,13.63,0,0,1-3.42,1.39,14.19,14.19,0,0,1-3.55.48,9.93,9.93,0,0,1-3.8-.73,9.39,9.39,0,0,1-3-2,9.16,9.16,0,0,1-2-3.05,10.65,10.65,0,0,1,0-7.75,9.16,9.16,0,0,1,2-3.05,9.39,9.39,0,0,1,3-2,9.93,9.93,0,0,1,3.8-.73,10.79,10.79,0,0,1,3.81.61,8.09,8.09,0,0,1,2.85,1.86Z" fill="#fff"/><path d="M112.84,230.11H111V211.7h5.66a7.27,7.27,0,0,1,4.44,1.22,4.35,4.35,0,0,1,1.62,3.7,4.56,4.56,0,0,1-1.21,3.23,5.16,5.16,0,0,1-3.49,1.52l5.3,8.74H121l-5-8.55h-3.12Zm0-10.27h3.33a7.67,7.67,0,0,0,2.12-.26,3.85,3.85,0,0,0,1.39-.69,2.62,2.62,0,0,0,.75-1,3.28,3.28,0,0,0,.23-1.26,3.22,3.22,0,0,0-.23-1.24,2.76,2.76,0,0,0-.75-1,3.85,3.85,0,0,0-1.39-.69,8.14,8.14,0,0,0-2.12-.24h-3.33Z" fill="#fff"/><path d="M148.22,220.91a10.18,10.18,0,0,1-.72,3.87,9.18,9.18,0,0,1-2,3.05,9.35,9.35,0,0,1-3,2,10.31,10.31,0,0,1-7.62,0,9.35,9.35,0,0,1-3-2,9.18,9.18,0,0,1-2-3.05,10.79,10.79,0,0,1,0-7.75,9.18,9.18,0,0,1,2-3.05,9.35,9.35,0,0,1,3-2,10.31,10.31,0,0,1,7.62,0,9.35,9.35,0,0,1,3,2,9.18,9.18,0,0,1,2,3.05A10.19,10.19,0,0,1,148.22,220.91Zm-2,0a9,9,0,0,0-.52-3,7.7,7.7,0,0,0-1.5-2.54,7.09,7.09,0,0,0-2.38-1.74,8.05,8.05,0,0,0-6.34,0,7.09,7.09,0,0,0-2.38,1.74,7.7,7.7,0,0,0-1.5,2.54,9.06,9.06,0,0,0,0,6.05,7.7,7.7,0,0,0,1.5,2.54,7.09,7.09,0,0,0,2.38,1.74,8.05,8.05,0,0,0,6.34,0,7.09,7.09,0,0,0,2.38-1.74,7.7,7.7,0,0,0,1.5-2.54A9,9,0,0,0,146.2,220.91Z" fill="#fff"/><path d="M169,223.25a11.89,11.89,0,0,1-.27,2.43,6.46,6.46,0,0,1-1,2.38,5.85,5.85,0,0,1-2.06,1.8,8.27,8.27,0,0,1-6.75,0,5.82,5.82,0,0,1-2-1.8,6.46,6.46,0,0,1-1-2.38,11.89,11.89,0,0,1-.27-2.43V211.7h1.87V223a8.39,8.39,0,0,0,.26,2.27,5.25,5.25,0,0,0,.69,1.6,3.54,3.54,0,0,0,1,1,4.49,4.49,0,0,0,1.07.58,4.59,4.59,0,0,0,1,.28,7.32,7.32,0,0,0,.86.06,7.46,7.46,0,0,0,.85-.06,4.9,4.9,0,0,0,1-.28,4.64,4.64,0,0,0,1.06-.58,3.54,3.54,0,0,0,1-1,5.25,5.25,0,0,0,.69-1.6,8.39,8.39,0,0,0,.26-2.27V211.7H169Z" fill="#fff"/><path d="M177.6,211.7H183a7.24,7.24,0,0,1,4.43,1.22,5,5,0,0,1,0,7.4,7.17,7.17,0,0,1-4.43,1.24h-3.48v8.55H177.6Zm1.88,8.14h3a7.62,7.62,0,0,0,2.12-.26,3.85,3.85,0,0,0,1.39-.69,2.55,2.55,0,0,0,.76-1,3.48,3.48,0,0,0,.23-1.26,3.41,3.41,0,0,0-.23-1.24,2.68,2.68,0,0,0-.76-1,3.85,3.85,0,0,0-1.39-.69,8.09,8.09,0,0,0-2.12-.24h-3Z" fill="#fff"/><line x1="74.88" y1="220.47" x2="25.31" y2="220.47" fill="none" stroke="#fff" stroke-miterlimit="10" stroke-width="1.5"/><line x1="252.09" y1="220.47" x2="202.52" y2="220.47" fill="none" stroke="#fff" stroke-miterlimit="10" stroke-width="1.5"/><circle cx="137.19" cy="77.63" r="64.35" fill="#00205c"/><path d="M137.19,12.26a65.38,65.38,0,1,0,65.37,65.38A65.45,65.45,0,0,0,137.19,12.26Zm0,128.69A63.43,63.43,0,0,1,76.77,96.57c1.77,0,4.9-.12,7-.12,3.18,0,4.92.15,5.44.15a.36.36,0,0,0,.41-.41V95c0-.25,0-.41-.36-.41H87.82c-1.23,0-1.74-.71-1.74-1.43,0-2.82,5.85-19.75,7.39-24.26h.2l7.39,18.32s1.68,4,2.74,4c1.61,0,4-5.65,4-5.65s6.92-15.45,7.33-16.53l.1,0,8,23.7A1.22,1.22,0,0,1,122,94.55h-1c-.36,0-.47.16-.47.41v1.29c0,.25.11.35.42.35l4.23-.08a1.38,1.38,0,0,0,1-.44,1.59,1.59,0,0,0,.52-.69c.21-.56,9.29-19.69,9.75-21.13h.21l9.28,21c.2.61.56,1.13,1.28,1.13,2.75,0,3.66-1.09,4.76-4.22.57-1.61,3.91-11,6.94-19,3.61-9.52,9.14-12.3,14.69-12.3a11.55,11.55,0,0,1,8.51,3.59,20.26,20.26,0,0,1,4.11,7.08c.1.31.2.46.51.41l1.23-.21c.21,0,.21-.3.21-.71l-.52-10.26c0-.41-.1-.72-.61-.72-.31,0-.46.15-.72.51l-.62.82c-.3.41-.61.57-1.23.1C182.85,60.2,179,58.67,174,58.67c-9.47,0-16.27,2-20.65,15.69l-4.2,11L142.78,71s-2.68-6.4-3.84-6.4-3.92,6-3.92,6-6.92,14.82-7.33,15.9l-.1,0-8-23.7a1.23,1.23,0,0,1,1.23-1.8h1c.36,0,.47-.15.47-.41V59.23c0-.26-.11-.36-.41-.36s-2.84.09-5,.13c-.24,0-.61.75-1,1.73-1.56,3.5-9,19.82-9.46,21.12h-.2L96.9,60.24c-.2-.62-.56-1.13-1.28-1.13s-1.13.82-1.33,1.34c-1,2.56-11.49,31.28-12,32.41A2.52,2.52,0,0,1,80,94.55H76.18A63.32,63.32,0,1,1,200.51,77.64c0,.75,0,1.49-.06,2.24h-.19c-.51,0-12.29.15-16.59.15s-6.67-.15-7.29-.15c-.2,0-.31.1-.31.41v1.18c0,.25.11.46.41.46h2.16c1.33,0,1.84.51,1.84,2.36V88c0,2.67-.1,4.1-1.23,4.72-1.74.92-3.69.86-7,.86-5.1,0-8.76-3.2-13-6.61-.64-.51-1-.27-1.17,0s-.83,2-1,2.39a1.22,1.22,0,0,0,.3,1.48c3.54,3.93,9.57,5.56,14.44,5.56a29.71,29.71,0,0,0,14.56-3.38c.52-.21.83-.41.83-.82s-.21-.93-.21-1.64V83.82c0-1.49.62-1.9,1.54-1.9h11.75A63.38,63.38,0,0,1,137.19,141Z" fill="#fff"/><path d="M207.07,77.61a16.9,16.9,0,0,1,1,2.58,22.91,22.91,0,0,1,.85,2.32l0-.12a34.75,34.75,0,0,1,3.77,9,9,9,0,0,1-.28,5,10.65,10.65,0,0,1-2.49,4.28c-.19-1-.35-2.14-.49-3.18s-.45-2.28-.68-3.38v.14h0c-.26-.64-.51-1.28-.75-1.91s-.58-1.31-.86-1.94a29.07,29.07,0,0,1-1.36-3.85,13.11,13.11,0,0,1-.36-4.54A10.49,10.49,0,0,1,207.07,77.61Z" fill="#abadb0"/><path d="M205.93,89.83a10.92,10.92,0,0,1,.63,2.73,24.35,24.35,0,0,1,.37,2.42v-.13c.45,1.48.94,3.09,1.43,4.65a23.93,23.93,0,0,1,.68,4.85,10.26,10.26,0,0,1-4.36,8.61c0-1.08,0-2.15.1-3.2s0-2.31,0-3.42l0,.14v0a46.81,46.81,0,0,1-1.56-8.09,9.72,9.72,0,0,1,.39-4.56,9.15,9.15,0,0,1,1-2A13.38,13.38,0,0,1,205.93,89.83Z" fill="#abadb0"/><path d="M202.72,101.66a17.34,17.34,0,0,1,.15,2.8,11.22,11.22,0,0,1,0,2.46l0-.12c.21,3.08,1,6.46.38,9.71a11.15,11.15,0,0,1-1.91,4.61,11.49,11.49,0,0,1-3.92,3.08c.16-1.07.45-2.1.7-3.11a16.73,16.73,0,0,0,.53-3.4l0,.14h0a61.83,61.83,0,0,1-.12-8.25,9.26,9.26,0,0,1,1.25-4.38A13.09,13.09,0,0,1,202.72,101.66Z" fill="#abadb0"/><path d="M197.52,112.76a18.58,18.58,0,0,1-.39,2.75,18.41,18.41,0,0,1-.39,2.47l0-.12c-.13,1.52-.26,3.17-.39,4.76a17.91,17.91,0,0,1-1,4.86,11.5,11.5,0,0,1-2.72,4.17,9.72,9.72,0,0,1-4.38,2.36c.35-1,.83-2,1.26-2.91a20.84,20.84,0,0,0,1.07-3.3l-.06.13s0,0,0,0c.31-2.8.78-5.49,1.32-8.14a9.54,9.54,0,0,1,2.06-4.06A10,10,0,0,1,197.52,112.76Z" fill="#abadb0"/><path d="M190.46,122.78a18,18,0,0,1-.9,2.62,24.25,24.25,0,0,1-.83,2.35l.06-.12a41.86,41.86,0,0,1-2.93,9.3,11.47,11.47,0,0,1-3.46,3.58,10.14,10.14,0,0,1-2.22,1.14,10.51,10.51,0,0,1-2.48.45c.52-.93,1.2-1.72,1.75-2.64s1.1-2.07,1.61-3.08l-.08.12v0c.41-1.32.83-2.65,1.31-3.91a32.62,32.62,0,0,1,1.41-3.87A10.74,10.74,0,0,1,190.46,122.78Z" fill="#abadb0"/><path d="M181.75,131.44a14.58,14.58,0,0,1-1.35,2.4,22.8,22.8,0,0,1-1.25,2.13l.08-.1a36.38,36.38,0,0,1-4.51,8.64,10.64,10.64,0,0,1-8.91,3.73l2.15-2.36c.8-.86,1.47-1.82,2.16-2.71l-.11.1h0c1.35-2.34,2.52-5.06,4-7.19a11.37,11.37,0,0,1,1.55-1.74,8.34,8.34,0,0,1,1.73-1.42A10.76,10.76,0,0,1,181.75,131.44Z" fill="#abadb0"/><path d="M171.63,138.38a9.64,9.64,0,0,1-1.71,2.19,23.42,23.42,0,0,1-1.62,1.84l.1-.08c-.9,1.29-1.71,2.75-2.67,4.06a26.67,26.67,0,0,1-3.3,3.63,11.54,11.54,0,0,1-2.07,1.46,10,10,0,0,1-2.39.77,11.47,11.47,0,0,1-4.95-.07c.8-.73,1.69-1.36,2.53-2s1.77-1.5,2.61-2.23L158,148h0a57.42,57.42,0,0,1,5.24-6.36,11.34,11.34,0,0,1,3.76-2.59A13.79,13.79,0,0,1,171.63,138.38Z" fill="#abadb0"/><path d="M160.47,143.44a18.78,18.78,0,0,1-2.05,1.93,18.48,18.48,0,0,1-1.93,1.5l.11-.06c-2.22,2.2-4.31,4.91-7.23,6.5a10.61,10.61,0,0,1-4.77,1.47,11.59,11.59,0,0,1-4.87-1.05,31.68,31.68,0,0,1,2.84-1.45,18.36,18.36,0,0,0,3-1.74l-.13.06h0a52,52,0,0,1,6.28-5.34C154.32,143.18,157.24,143,160.47,143.44Z" fill="#abadb0"/><path d="M148.6,146.49a16.74,16.74,0,0,1-2.36,1.48,14.7,14.7,0,0,1-2.15,1.26l.11,0c-2.57,1.66-5.11,4-8.25,5.12a10.29,10.29,0,0,1-9.56-1.3,31.27,31.27,0,0,1,3-.86c1.12-.35,2.18-.89,3.23-1.33l-.14,0h0c2.34-1.52,4.71-2.9,7.1-4.17a9.18,9.18,0,0,1,4.44-1A10.42,10.42,0,0,1,148.6,146.49Z" fill="#abadb0"/><path d="M136.37,147.47a16.93,16.93,0,0,1-2.58,1,24.2,24.2,0,0,1-2.34.85l.13,0a47.75,47.75,0,0,1-4.33,2.09,27.34,27.34,0,0,1-4.7,1.59,9.85,9.85,0,0,1-5-.37,9.32,9.32,0,0,1-4.24-2.56c1-.13,2.11-.25,3.17-.41a33.32,33.32,0,0,0,3.39-.68h-.13c2.54-.92,5.19-2.2,7.73-2.88a9.88,9.88,0,0,1,2.31-.32,12.75,12.75,0,0,1,2.23,0A10.42,10.42,0,0,1,136.37,147.47Z" fill="#abadb0"/><path d="M124.16,146.26a9.54,9.54,0,0,1-2.72.55,21.89,21.89,0,0,1-2.43.36h.13c-1.52.41-3.09,1-4.66,1.37a25.63,25.63,0,0,1-4.87.65,11.26,11.26,0,0,1-2.52-.23,11.14,11.14,0,0,1-2.32-1,11.36,11.36,0,0,1-3.73-3.25c1.09,0,2.16.06,3.22.11s2.31,0,3.43,0l-.14,0h0a60,60,0,0,1,8.11-1.47,11.45,11.45,0,0,1,4.53.47A13.12,13.12,0,0,1,124.16,146.26Z" fill="#abadb0"/><path d="M112.37,142.9a18.69,18.69,0,0,1-2.81.15,22.25,22.25,0,0,1-2.44-.11l.13,0-4.82.5a19.21,19.21,0,0,1-4.9-.22,9.63,9.63,0,0,1-4.58-2,11.49,11.49,0,0,1-3.06-3.91,31.44,31.44,0,0,1,3.12.71,26.16,26.16,0,0,0,3.37.6l-.14,0s0,0,0,0a47.42,47.42,0,0,1,8.25,0C107.85,138.71,110.23,140.44,112.37,142.9Z" fill="#abadb0"/><path d="M101.35,137.56a18.84,18.84,0,0,1-2.77-.39,11.25,11.25,0,0,1-2.43-.47l.11.05-4.78-.41c-.82-.08-1.64-.18-2.47-.31a21.08,21.08,0,0,1-2.35-.72,11.53,11.53,0,0,1-4.18-2.73,11.18,11.18,0,0,1-2.29-4.43c1,.36,2,.84,2.91,1.27a16.61,16.61,0,0,0,1.58.67l1.68.47-.13-.06h0c1.39.18,2.79.35,4.14.59s2.65.54,4,.83A9.21,9.21,0,0,1,98.43,134,11.57,11.57,0,0,1,101.35,137.56Z" fill="#abadb0"/><path d="M91.41,130.38a18.19,18.19,0,0,1-2.63-.91,21.91,21.91,0,0,1-2.35-.84l.11.06c-3-.88-6.29-1.42-9.22-3.08a10.26,10.26,0,0,1-5.09-8.19c.92.53,1.76,1.18,2.61,1.78a25.78,25.78,0,0,0,3.06,1.65l-.12-.09s0,0,0,0c2.65.84,5.26,1.77,7.75,2.81a11.26,11.26,0,0,1,5.86,6.8Z" fill="#abadb0"/><path d="M82.85,121.58a17.31,17.31,0,0,1-2.39-1.37A24,24,0,0,1,78.32,119l.1.08c-1.52-.61-2.92-1.28-4.37-2a27.69,27.69,0,0,1-4.24-2.59A11,11,0,0,1,67,110.36a8.86,8.86,0,0,1-.71-4.9c.81.68,1.46,1.5,2.29,2.19s1.83,1.47,2.72,2.17l-.1-.1s0,0,0,0c1.23.65,2.41,1.33,3.61,2a30.17,30.17,0,0,1,3.53,2.1A10.69,10.69,0,0,1,82.85,121.58Z" fill="#abadb0"/><path d="M76,111.41a11.67,11.67,0,0,1-2.13-1.76A24,24,0,0,1,72,108l.08.09a35.09,35.09,0,0,1-7.64-6,8.92,8.92,0,0,1-2.14-4.49,10.56,10.56,0,0,1,.11-4.94c.67.82,1.34,1.7,2,2.55s1.5,1.78,2.23,2.63l-.08-.12h0L68.12,99l1.69,1.28a29.72,29.72,0,0,1,3,2.71,13,13,0,0,1,2.52,3.8A11.88,11.88,0,0,1,76,111.41Z" fill="#abadb0"/><path d="M71.06,100.18a11.15,11.15,0,0,1-1.87-2.08c-.46-.64-1.09-1.25-1.49-1.94l.06.11-3.49-3.38A23.23,23.23,0,0,1,61.34,89,10.18,10.18,0,0,1,61,79.32c.55.93,1,1.91,1.45,2.86a33,33,0,0,0,1.66,3,.75.75,0,0,1-.06-.13h0a44.93,44.93,0,0,1,5.28,6.34,9.69,9.69,0,0,1,1.85,4.17,9,9,0,0,1,.1,2.27A15,15,0,0,1,71.06,100.18Z" fill="#abadb0"/><path d="M68.16,88.27a19,19,0,0,1-1.48-2.38,10.57,10.57,0,0,1-1.17-2.16l0,.11c-.88-1.25-1.83-2.62-2.74-3.94-.46-.68-.92-1.38-1.34-2.1a17,17,0,0,1-1-2.27,11.71,11.71,0,0,1-.54-5A9.92,9.92,0,0,1,61.9,66c.36,1,.59,2,.85,3.05A18.42,18.42,0,0,0,64,72.27l0-.14v0c.75,1.18,1.5,2.37,2.17,3.56.34.6.66,1.19,1,1.79s.68,1.2,1,1.8a9.36,9.36,0,0,1,1,4.45A12.37,12.37,0,0,1,68.16,88.27Z" fill="#abadb0"/><path d="M67.34,76a18.78,18.78,0,0,1-1-2.6c-.24-.76-.67-1.56-.84-2.35l0,.13A44.84,44.84,0,0,1,62,62.14a11.43,11.43,0,0,1,.46-5,11.68,11.68,0,0,1,1-2.29A9.59,9.59,0,0,1,65.06,53c.19,1,.13,2.09.32,3.16s.45,2.3.68,3.41v-.14h0c.51,1.29,1,2.58,1.44,3.87a30,30,0,0,1,1.35,3.89A10.91,10.91,0,0,1,67.34,76Z" fill="#abadb0"/><path d="M68.63,63.83a13.71,13.71,0,0,1-.46-2.71c-.09-.79-.36-1.64-.37-2.44v.12a35.06,35.06,0,0,1-1.91-9.55,9.15,9.15,0,0,1,1.26-4.82,10.2,10.2,0,0,1,3.3-3.69c-.06,1.18-.12,2.17-.17,3.21s0,2.32,0,3.45l0-.14s0,0,0,0c.39,2.65,1.27,5.53,1.37,8.12a13.18,13.18,0,0,1-.54,4.53A11.08,11.08,0,0,1,68.63,63.83Z" fill="#abadb0"/><path d="M72.14,52.08a10.89,10.89,0,0,1-.07-2.79c.06-.79,0-1.66.11-2.45l0,.12c-.15-1.54-.32-3.21-.49-4.83a26.22,26.22,0,0,1,.3-4.89,10.36,10.36,0,0,1,6-7.59c-.16,1.07-.46,2.11-.71,3.13s-.45,2.27-.64,3.37l0-.14s0,0,0,0a51.27,51.27,0,0,1-.08,8.24,10.24,10.24,0,0,1-1.29,4.38A14.49,14.49,0,0,1,72.14,52.08Z" fill="#abadb0"/><path d="M77.63,41.12a17.74,17.74,0,0,1,.4-2.78A11.84,11.84,0,0,1,78.56,36l0,.11c.36-3.09.27-6.52,1.53-9.59a10.31,10.31,0,0,1,2.79-4.14,11.4,11.4,0,0,1,4.43-2.27c-.36,1-.85,2-1.29,2.93a20,20,0,0,0-1.2,3.21l.06-.13s0,0,0,0a52.25,52.25,0,0,1-1.51,8.11C82.55,37.43,80.47,39.49,77.63,41.12Z" fill="#abadb0"/><path d="M84.93,31.27a18.19,18.19,0,0,1,.91-2.63,11.73,11.73,0,0,1,.89-2.32l-.07.1c.41-1.47.86-3.06,1.3-4.61a16.72,16.72,0,0,1,1.89-4.56,11.65,11.65,0,0,1,3.48-3.58,10.45,10.45,0,0,1,4.76-1.44c-.54.92-1.19,1.77-1.79,2.61a16.48,16.48,0,0,0-1.71,3l.08-.11s0,0,0,0c-.43,1.33-.87,2.67-1.36,3.95-.24.64-.5,1.26-.77,1.88s-.49,1.28-.76,1.89A9.28,9.28,0,0,1,89,29.06,10.59,10.59,0,0,1,84.93,31.27Z" fill="#abadb0"/><path d="M93.83,22.83a16.51,16.51,0,0,1,1.38-2.4,23.21,23.21,0,0,1,1.26-2.15l-.08.1c1.38-2.81,2.59-5.88,4.72-8.52,2.25-2.4,5.65-4,9-3.47-.7.81-1.5,1.49-2.25,2.23s-1.48,1.82-2.18,2.72l.1-.1h0c-.66,1.22-1.34,2.44-2.05,3.6s-1.36,2.43-2.14,3.49a11.19,11.19,0,0,1-3.38,3.05A10.09,10.09,0,0,1,93.83,22.83Z" fill="#abadb0"/><path d="M104.05,16.05a16.85,16.85,0,0,1,1.8-2.09,24,24,0,0,1,1.64-1.86l-.1.09,1.34-2,1.44-1.9a27.31,27.31,0,0,1,3.35-3.66,9.83,9.83,0,0,1,4.53-2.06,9.21,9.21,0,0,1,4.94.2c-.84.6-1.73,1.23-2.57,1.88a32.17,32.17,0,0,0-2.65,2.23l.12-.08h0c-1.78,2-3.48,4.43-5.38,6.25a9.58,9.58,0,0,1-1.86,1.39,9.91,9.91,0,0,1-2,1.05A10.47,10.47,0,0,1,104.05,16.05Z" fill="#abadb0"/><path d="M115.33,11.24a9.51,9.51,0,0,1,2.12-1.8,21.83,21.83,0,0,1,2-1.49l-.11.06c1.14-1.08,2.22-2.37,3.42-3.44a25.18,25.18,0,0,1,4-2.92,11.08,11.08,0,0,1,2.31-1,9.48,9.48,0,0,1,2.49-.29,11.4,11.4,0,0,1,4.84,1.06c-.93.56-1.92,1-2.87,1.45s-2,1.11-3,1.66l.13,0s0,0,0,0a57.51,57.51,0,0,1-6.4,5.21A11.61,11.61,0,0,1,120,11.46,13.59,13.59,0,0,1,115.33,11.24Z" fill="#abadb0"/><path d="M127.28,8.49A18.72,18.72,0,0,1,129.67,7a16.54,16.54,0,0,1,2.19-1.09l-.12,0c2.61-1.68,5.19-4,8.36-4.95a11.63,11.63,0,0,1,5-.53,11.47,11.47,0,0,1,4.57,2c-1,.36-2.06.59-3.07.85a15,15,0,0,0-3.24,1.16l.14,0h0a56.71,56.71,0,0,1-7.2,4C133.27,10,130.35,9.61,127.28,8.49Z" fill="#abadb0"/><path d="M139.52,7.83a19,19,0,0,1,2.62-1A24.32,24.32,0,0,1,144.49,6l-.12,0c2.85-1.15,5.77-2.83,9.1-3.41a10.33,10.33,0,0,1,9.12,3.17c-1.05.16-2.11.18-3.15.24s-2.31.44-3.43.67h.13c-2.59,1-5.2,1.93-7.78,2.7a10.19,10.19,0,0,1-4.55.12A10.3,10.3,0,0,1,139.52,7.83Z" fill="#abadb0"/><path d="M151.71,9.25a17.53,17.53,0,0,1,2.72-.44c.79-.09,1.65-.35,2.46-.36h-.13l2.33-.67,2.33-.52a27.13,27.13,0,0,1,4.92-.63A10.06,10.06,0,0,1,171.13,8a9.2,9.2,0,0,1,3.64,3.36c-.53,0-1.05-.08-1.57-.15l-1.61-.1c-1.17-.09-2.34,0-3.46,0l.14,0h0c-1.36.28-2.69.42-4.08.72a29.78,29.78,0,0,1-4.06.57,9.82,9.82,0,0,1-2.32-.14,10.45,10.45,0,0,1-2.18-.48A10.3,10.3,0,0,1,151.71,9.25Z" fill="#abadb0"/><path d="M163.43,12.86a9.89,9.89,0,0,1,2.77,0,22.52,22.52,0,0,1,2.46.13l-.12,0c1.56-.09,3.24-.4,4.83-.4a25.67,25.67,0,0,1,4.91.31,9.2,9.2,0,0,1,2.41.73,12.11,12.11,0,0,1,2.09,1.4,11,11,0,0,1,3,3.91c-1.05-.2-2.11-.48-3.13-.74s-2.28-.45-3.38-.65l.13.05s0,0,0,0c-1.34,0-2.77,0-4.18.05a28.19,28.19,0,0,1-4.06-.22A12.06,12.06,0,0,1,166.82,16,13.13,13.13,0,0,1,163.43,12.86Z" fill="#abadb0"/><path d="M174.33,18.48a15.34,15.34,0,0,1,2.77.43c.76.22,1.63.29,2.38.58l-.12,0,4.83.45A22.09,22.09,0,0,1,189,21.07a10.28,10.28,0,0,1,6.34,7.27c-1-.36-2-.85-2.93-1.29s-2.14-.86-3.18-1.27l.12.08h0a45.8,45.8,0,0,1-8.09-1.61,9.18,9.18,0,0,1-5.57-3.78A10.43,10.43,0,0,1,174.33,18.48Z" fill="#abadb0"/><path d="M184.08,25.91a18.49,18.49,0,0,1,2.65.92,10.65,10.65,0,0,1,2.27,1l-.1-.07c2.93.95,6.37,1.46,9.14,3.28a11.15,11.15,0,0,1,3.57,3.5A11.69,11.69,0,0,1,203,39.28c-.92-.55-1.77-1.2-2.62-1.82a17.51,17.51,0,0,0-3-1.76l.12.09h0a61.42,61.42,0,0,1-7.69-3,9.32,9.32,0,0,1-3.6-2.8A13.27,13.27,0,0,1,184.08,25.91Z" fill="#abadb0"/><path d="M192.41,34.9a19,19,0,0,1,2.42,1.4A16.93,16.93,0,0,1,197,37.58l-.09-.08,4.27,2.14a17.52,17.52,0,0,1,4.15,2.7,11.5,11.5,0,0,1,2.84,4.1,9.56,9.56,0,0,1,.54,4.94,31.35,31.35,0,0,1-2.21-2.26,19.73,19.73,0,0,0-2.67-2.23l.11.11s0,0,0,0c-2.48-1.33-4.78-2.79-7-4.28a9.32,9.32,0,0,1-3-3.42A10.09,10.09,0,0,1,192.41,34.9Z" fill="#abadb0"/><path d="M199.07,45.21A17.71,17.71,0,0,1,201.16,47,22.17,22.17,0,0,1,203,48.67l-.08-.1a43.06,43.06,0,0,1,7.52,6.21,11.46,11.46,0,0,1,2,4.56,11.11,11.11,0,0,1,.23,2.49,9.45,9.45,0,0,1-.51,2.46c-.67-.83-1.12-1.76-1.8-2.61s-1.5-1.8-2.24-2.66l.08.12h0c-1.07-.88-2.13-1.78-3.13-2.7a28.13,28.13,0,0,1-3-2.75A10.76,10.76,0,0,1,199.07,45.21Z" fill="#abadb0"/><path d="M203.81,56.52a13.19,13.19,0,0,1,1.72,2.15c.46.65,1.1,1.27,1.5,2l-.06-.11A34.89,34.89,0,0,1,213.25,68a8.89,8.89,0,0,1,1.22,4.82,11.28,11.28,0,0,1-1.07,4.82c-.55-.93-1-1.92-1.44-2.88s-1.11-2-1.66-3l0,.14s0,0,0,0l-1.28-1.59-1.41-1.59a29.82,29.82,0,0,1-2.44-3.27,13.35,13.35,0,0,1-1.71-4.22A11.25,11.25,0,0,1,203.81,56.52Z" fill="#abadb0"/><path d="M205.68,67.45a13,13,0,0,1,1.38,2.14,22.35,22.35,0,0,1,1.19,1.94l-.05-.11a32.24,32.24,0,0,1,5.06,7.41,8.35,8.35,0,0,1,.7,4.57,10.77,10.77,0,0,1-1.37,4.37c-.43-.91-.73-1.86-1.07-2.79s-.83-2-1.25-2.93l0,.13s0,0,0,0c-.35-.53-.69-1.06-1-1.58L208.14,79a26.46,26.46,0,0,1-1.94-3.22,12.5,12.5,0,0,1-1.19-4A10.73,10.73,0,0,1,205.68,67.45Z" fill="#abadb0"/><path d="M1.17,265.27H.05l2-11.19H3.15Z" fill="#fff"/><path d="M6.38,257.87c0,.2,0,.42-.08.66s-.07.45-.1.61h0a3.21,3.21,0,0,1,1.1-1.07,2.83,2.83,0,0,1,1.44-.39,2.69,2.69,0,0,1,1.88.61,2.12,2.12,0,0,1,.67,1.65,2.42,2.42,0,0,1,0,.38c0,.13,0,.27-.05.41l-.82,4.54H9.36l.73-4.1a5.08,5.08,0,0,0,.1-.93A1.91,1.91,0,0,0,9.82,259a1.56,1.56,0,0,0-1.28-.45,2.15,2.15,0,0,0-.85.17,2.57,2.57,0,0,0-.8.54,3.39,3.39,0,0,0-.66.91,4.45,4.45,0,0,0-.41,1.29l-.66,3.79H4.1l1-5.77c0-.2.09-.46.14-.78s.08-.6.1-.85Z" fill="#fff"/><path d="M18.25,259.5a1.72,1.72,0,0,0-.67-.67,2,2,0,0,0-1-.26,3.21,3.21,0,0,0-.6.06,2.27,2.27,0,0,0-.57.2,1.28,1.28,0,0,0-.42.38.93.93,0,0,0-.17.56.86.86,0,0,0,.4.81,1.89,1.89,0,0,0,.45.24c.18.07.39.13.62.2a4.35,4.35,0,0,1,1.66.8,1.68,1.68,0,0,1,.57,1.36,1.94,1.94,0,0,1-.27,1,2.2,2.2,0,0,1-.68.71,2.83,2.83,0,0,1-.92.4,3.79,3.79,0,0,1-1,.13,4.44,4.44,0,0,1-1.75-.34,2.74,2.74,0,0,1-1.27-1.05l.92-.6a2.22,2.22,0,0,0,.8.78,2.35,2.35,0,0,0,1.25.32,3.08,3.08,0,0,0,.68-.07,1.81,1.81,0,0,0,.59-.22,1.08,1.08,0,0,0,.42-.4,1,1,0,0,0,.16-.57,1,1,0,0,0-.47-.9,5.88,5.88,0,0,0-1.33-.59c-.22-.08-.44-.16-.67-.26a2.31,2.31,0,0,1-.6-.37,1.78,1.78,0,0,1-.43-.55,1.74,1.74,0,0,1-.17-.79,1.81,1.81,0,0,1,.26-1,2.25,2.25,0,0,1,.67-.67,2.76,2.76,0,0,1,.91-.39,3.83,3.83,0,0,1,1-.13,3.37,3.37,0,0,1,1.52.33,2.14,2.14,0,0,1,1,.89Z" fill="#fff"/><path d="M25.43,265.27c0-.2,0-.42.07-.66s.07-.45.1-.61h0a3.13,3.13,0,0,1-1.1,1.07,2.82,2.82,0,0,1-1.43.39,2.69,2.69,0,0,1-1.87-.6,2.1,2.1,0,0,1-.68-1.65,2.53,2.53,0,0,1,0-.38c0-.12,0-.26.05-.41l.82-4.53h1.06L21.73,262a4.61,4.61,0,0,0-.1.93,1.87,1.87,0,0,0,.36,1.22,1.57,1.57,0,0,0,1.28.44,2.15,2.15,0,0,0,.85-.17,2.65,2.65,0,0,0,.8-.53,3.72,3.72,0,0,0,.65-.9,4.16,4.16,0,0,0,.41-1.29l.66-3.79H27.7l-1,5.77c0,.2-.09.45-.13.77s-.09.59-.11.84Z" fill="#fff"/><path d="M30.51,258.72c0-.31.08-.6.1-.85h1c0,.2,0,.42-.08.66s-.06.45-.09.61h0a3.29,3.29,0,0,1,1-1.06,2.7,2.7,0,0,1,1.43-.4l.36,0,.33.06-.25,1-.29-.06a3.25,3.25,0,0,0-.44,0,2.48,2.48,0,0,0-.84.15,2.4,2.4,0,0,0-.75.5,3.69,3.69,0,0,0-.6.87,4.72,4.72,0,0,0-.38,1.28l-.67,3.79H29.36l1-5.77C30.42,259.3,30.46,259,30.51,258.72Z" fill="#fff"/><path d="M40.16,260.73q0-.27.06-.42c0-.1,0-.19,0-.27a1.3,1.3,0,0,0-.46-1.14,2.16,2.16,0,0,0-1.28-.33,3.15,3.15,0,0,0-1.28.26,3.81,3.81,0,0,0-1,.62l-.47-.71a4.19,4.19,0,0,1,1.33-.77,4.53,4.53,0,0,1,1.56-.29,4.09,4.09,0,0,1,1,.12,2.23,2.23,0,0,1,.84.38,1.82,1.82,0,0,1,.57.66,2.12,2.12,0,0,1,.21,1c0,.09,0,.22,0,.38a3.27,3.27,0,0,1,0,.41l-.54,3c-.05.28-.09.58-.12.89s0,.56,0,.77h-1c0-.18,0-.37,0-.58a5.82,5.82,0,0,1,.08-.62h0a5.22,5.22,0,0,1-.63.62,2.76,2.76,0,0,1-.65.42,3,3,0,0,1-.73.23,4.5,4.5,0,0,1-.85.07,3.44,3.44,0,0,1-.77-.09,2.14,2.14,0,0,1-.72-.33,1.8,1.8,0,0,1-.54-.59,1.76,1.76,0,0,1-.21-.9,2,2,0,0,1,.5-1.43,3.3,3.3,0,0,1,1.32-.84,8.2,8.2,0,0,1,1.83-.4C38.79,260.77,39.47,260.73,40.16,260.73Zm-.4.81a14.49,14.49,0,0,0-1.45.07,6.45,6.45,0,0,0-1.35.27,2.6,2.6,0,0,0-1,.55,1.21,1.21,0,0,0-.39.94,1.24,1.24,0,0,0,.13.58,1.07,1.07,0,0,0,.34.36,1.32,1.32,0,0,0,.49.19,2.67,2.67,0,0,0,.56.06,2.76,2.76,0,0,0,1-.19,2.84,2.84,0,0,0,.83-.52,2.63,2.63,0,0,0,.6-.77,3.4,3.4,0,0,0,.34-.92l.11-.62Z" fill="#fff"/><path d="M45.39,257.87c0,.2,0,.42-.08.66s-.06.45-.09.61h0a3.13,3.13,0,0,1,1.1-1.07,2.83,2.83,0,0,1,1.44-.39,2.69,2.69,0,0,1,1.88.61,2.12,2.12,0,0,1,.67,1.65c0,.13,0,.25,0,.38l-.06.41-.82,4.54H48.38l.73-4.1a5,5,0,0,0,.09-.93,1.91,1.91,0,0,0-.36-1.22,1.56,1.56,0,0,0-1.28-.45,2.2,2.2,0,0,0-.86.17,2.53,2.53,0,0,0-.79.54,3.39,3.39,0,0,0-.66.91,4.16,4.16,0,0,0-.41,1.29l-.67,3.79H43.12l1-5.77c0-.2.08-.46.13-.78s.08-.6.1-.85Z" fill="#fff"/><path d="M58.42,259.55a1.6,1.6,0,0,0-.66-.71,2.06,2.06,0,0,0-1.06-.27,3,3,0,0,0-2.35,1.07,3.68,3.68,0,0,0-.68,1.15,4.1,4.1,0,0,0-.25,1.41,2.9,2.9,0,0,0,.16.94,2.08,2.08,0,0,0,.47.75,2.1,2.1,0,0,0,.75.5,2.64,2.64,0,0,0,1,.18,2.91,2.91,0,0,0,1.25-.26,3.25,3.25,0,0,0,.93-.7l.68.58a4.47,4.47,0,0,1-1.28.93,3.76,3.76,0,0,1-1.66.34,4.19,4.19,0,0,1-1.42-.23,3.13,3.13,0,0,1-1.09-.65,2.8,2.8,0,0,1-.69-1,3.38,3.38,0,0,1-.25-1.3,4.77,4.77,0,0,1,.33-1.78,4.41,4.41,0,0,1,.9-1.47,4.15,4.15,0,0,1,1.4-1,4.32,4.32,0,0,1,1.82-.37,4,4,0,0,1,1.54.3,2.14,2.14,0,0,1,1.08.95Z" fill="#fff"/><path d="M61.22,261.86l0,.18v.16a2.49,2.49,0,0,0,.18,1,2.22,2.22,0,0,0,1.26,1.24,2.45,2.45,0,0,0,.94.17,2.88,2.88,0,0,0,1.52-.38,3.57,3.57,0,0,0,1-.91l.67.63a4.17,4.17,0,0,1-1.5,1.16,4.35,4.35,0,0,1-1.82.39,3.83,3.83,0,0,1-1.33-.22,3.26,3.26,0,0,1-1.07-.63,3.11,3.11,0,0,1-.71-1,3.59,3.59,0,0,1-.26-1.39,4.58,4.58,0,0,1,.33-1.72,4.51,4.51,0,0,1,2.27-2.43,4,4,0,0,1,1.68-.37,3.08,3.08,0,0,1,2.31.81,2.85,2.85,0,0,1,.78,2.08c0,.13,0,.32,0,.58a4.81,4.81,0,0,1-.11.71Zm5.17-.8a2.13,2.13,0,0,0,0-.27,2.72,2.72,0,0,0,0-.28,2,2,0,0,0-.52-1.4,2,2,0,0,0-1.54-.54,2.92,2.92,0,0,0-1.08.19,3.24,3.24,0,0,0-.89.55,3.61,3.61,0,0,0-.65.8,3.1,3.1,0,0,0-.38.95Z" fill="#fff"/><path d="M78.53,260.73q0-.27.06-.42c0-.1,0-.19,0-.27a1.33,1.33,0,0,0-.46-1.14,2.16,2.16,0,0,0-1.28-.33,3.15,3.15,0,0,0-1.28.26,3.66,3.66,0,0,0-1,.62l-.47-.71a4.14,4.14,0,0,1,1.32-.77,4.62,4.62,0,0,1,1.57-.29,4.09,4.09,0,0,1,1,.12,2.31,2.31,0,0,1,.84.38,1.82,1.82,0,0,1,.57.66,2.12,2.12,0,0,1,.21,1c0,.09,0,.22,0,.38a3.27,3.27,0,0,1,0,.41l-.54,3c0,.28-.09.58-.12.89a5.78,5.78,0,0,0,0,.77h-1c0-.18,0-.37,0-.58a5.82,5.82,0,0,1,.08-.62h0a5.22,5.22,0,0,1-.63.62,2.76,2.76,0,0,1-.65.42,3,3,0,0,1-.73.23,4.5,4.5,0,0,1-.85.07,3.44,3.44,0,0,1-.77-.09,2,2,0,0,1-.72-.33,1.8,1.8,0,0,1-.54-.59,1.76,1.76,0,0,1-.21-.9,2,2,0,0,1,.5-1.43,3.3,3.3,0,0,1,1.32-.84,8.08,8.08,0,0,1,1.83-.4C77.16,260.77,77.84,260.73,78.53,260.73Zm-.4.81a14.35,14.35,0,0,0-1.45.07,6.45,6.45,0,0,0-1.35.27,2.6,2.6,0,0,0-1,.55,1.21,1.21,0,0,0-.39.94,1.24,1.24,0,0,0,.13.58,1,1,0,0,0,.34.36,1.32,1.32,0,0,0,.49.19,2.6,2.6,0,0,0,.56.06,2.68,2.68,0,0,0,1-.19,2.76,2.76,0,0,0,.84-.52,2.81,2.81,0,0,0,.6-.77,3.4,3.4,0,0,0,.34-.92l.11-.62Z" fill="#fff"/><path d="M83.76,257.87c0,.2-.05.42-.08.66s-.06.45-.09.61h0a3,3,0,0,1,1.1-1.07,2.83,2.83,0,0,1,1.44-.39,2.69,2.69,0,0,1,1.88.61,2.15,2.15,0,0,1,.67,1.65c0,.13,0,.25,0,.38l-.06.41-.82,4.54H86.75l.73-4.1a5,5,0,0,0,.09-.93,1.91,1.91,0,0,0-.36-1.22,1.56,1.56,0,0,0-1.28-.45,2.2,2.2,0,0,0-.86.17,2.53,2.53,0,0,0-.79.54,3.39,3.39,0,0,0-.66.91,4.16,4.16,0,0,0-.41,1.29l-.67,3.79H81.48l1-5.77c0-.2.08-.46.13-.78s.08-.6.1-.85Z" fill="#fff"/><path d="M90.57,262.27a4.83,4.83,0,0,1,.33-1.79,4.56,4.56,0,0,1,.91-1.46,4.36,4.36,0,0,1,1.38-1,4,4,0,0,1,1.73-.37,3.15,3.15,0,0,1,1.51.37,2.41,2.41,0,0,1,1.07,1.07h0l1-5.8h1.06L97.5,265.27H96.44l.22-1.22h0a3.11,3.11,0,0,1-1.09,1,3.22,3.22,0,0,1-1.63.42,3.94,3.94,0,0,1-1.37-.23,3,3,0,0,1-1.05-.66,3,3,0,0,1-.68-1A3.37,3.37,0,0,1,90.57,262.27Zm1.11-.07a2.79,2.79,0,0,0,.15.93,2,2,0,0,0,.45.75,2.09,2.09,0,0,0,.73.51,2.55,2.55,0,0,0,1,.18,3,3,0,0,0,1.29-.28,3.23,3.23,0,0,0,1-.79,3.86,3.86,0,0,0,.69-1.14,3.82,3.82,0,0,0,.25-1.4,2.69,2.69,0,0,0-.16-1,2.23,2.23,0,0,0-.48-.76,2.19,2.19,0,0,0-.76-.5,2.62,2.62,0,0,0-1-.17,3,3,0,0,0-1.32.28,3,3,0,0,0-1,.78,3.36,3.36,0,0,0-.66,1.15A4.36,4.36,0,0,0,91.68,262.2Z" fill="#fff"/><path d="M104,265.27h-1.3l7.21-11.19h1.11l2.32,11.19h-1.18l-.6-2.94h-5.73Zm2.48-4h4.9l-1.17-6Z" fill="#fff"/><path d="M115.06,262.27a4.83,4.83,0,0,1,.33-1.79,4.28,4.28,0,0,1,2.29-2.43,4,4,0,0,1,1.73-.37,3.15,3.15,0,0,1,1.51.37,2.41,2.41,0,0,1,1.07,1.07h0l1-5.8h1.06L122,265.27h-1.06l.22-1.22h0a3.11,3.11,0,0,1-1.09,1,3.22,3.22,0,0,1-1.63.42,3.94,3.94,0,0,1-1.37-.23,3,3,0,0,1-1-.66,3,3,0,0,1-.68-1A3.37,3.37,0,0,1,115.06,262.27Zm1.11-.07a2.79,2.79,0,0,0,.15.93,2,2,0,0,0,.45.75,2,2,0,0,0,.73.51,2.53,2.53,0,0,0,1,.18,3,3,0,0,0,1.3-.28,3.09,3.09,0,0,0,1-.79,3.69,3.69,0,0,0,.7-1.14,3.82,3.82,0,0,0,.25-1.4,2.69,2.69,0,0,0-.16-1,2.11,2.11,0,0,0-.49-.76,2.15,2.15,0,0,0-.75-.5,2.62,2.62,0,0,0-1-.17,3,3,0,0,0-1.32.28,3,3,0,0,0-1,.78,3.36,3.36,0,0,0-.66,1.15A4.36,4.36,0,0,0,116.17,262.2Z" fill="#fff"/><path d="M134.3,257.68a2.69,2.69,0,0,1,1.88.61,2.15,2.15,0,0,1,.67,1.65c0,.13,0,.25,0,.38l-.06.41-.82,4.54h-1.06l.73-4.1a5,5,0,0,0,.09-.93,1.91,1.91,0,0,0-.36-1.22,1.58,1.58,0,0,0-1.28-.45,2.12,2.12,0,0,0-1,.23,2.28,2.28,0,0,0-.71.64,3.35,3.35,0,0,0-.46.88,8.8,8.8,0,0,0-.26,1l-.69,3.94h-1.06l.77-4.3a4.92,4.92,0,0,0,.1-1,1.57,1.57,0,0,0-.33-1.05,1.45,1.45,0,0,0-1.14-.38,1.91,1.91,0,0,0-.79.17,2.49,2.49,0,0,0-.78.54,3.6,3.6,0,0,0-.65.91,4.45,4.45,0,0,0-.41,1.29l-.66,3.79h-1.06l1-5.77c0-.2.09-.46.14-.78s.08-.6.1-.85h1c0,.2,0,.42-.08.66s-.06.45-.09.61h0a3.33,3.33,0,0,1,1.11-1.07,2.74,2.74,0,0,1,1.45-.39,3.52,3.52,0,0,1,.63.06,2.18,2.18,0,0,1,.62.25,1.92,1.92,0,0,1,.51.48,2,2,0,0,1,.32.78,3.09,3.09,0,0,1,1.09-1.17A3,3,0,0,1,134.3,257.68Z" fill="#fff"/><path d="M139.82,265.27h-1.06l1.31-7.4h1.06Zm2-10.26a.77.77,0,0,1-.22.54.73.73,0,0,1-.53.22.76.76,0,0,1-.51-.19.67.67,0,0,1-.21-.52.76.76,0,0,1,.22-.56.79.79,0,0,1,.53-.22.73.73,0,0,1,.51.2A.69.69,0,0,1,141.77,255Z" fill="#fff"/><path d="M145,257.87c0,.2,0,.42-.07.66s-.07.45-.1.61h0a3.21,3.21,0,0,1,1.1-1.07,2.83,2.83,0,0,1,1.44-.39,2.69,2.69,0,0,1,1.88.61,2.12,2.12,0,0,1,.67,1.65,2.42,2.42,0,0,1,0,.38c0,.13,0,.27-.05.41l-.82,4.54H148l.73-4.1a5.08,5.08,0,0,0,.1-.93,1.91,1.91,0,0,0-.37-1.22,1.56,1.56,0,0,0-1.28-.45,2.15,2.15,0,0,0-.85.17,2.57,2.57,0,0,0-.8.54,3.39,3.39,0,0,0-.66.91,4.45,4.45,0,0,0-.41,1.29l-.66,3.79H142.7l1-5.77c0-.2.09-.46.13-.78s.09-.6.11-.85Z" fill="#fff"/><path d="M152.9,265.27h-1.06l1.31-7.4h1.06ZM154.84,255a.76.76,0,0,1-.21.54.75.75,0,0,1-.53.22.81.81,0,0,1-.52-.19.67.67,0,0,1-.21-.52.77.77,0,0,1,.76-.78.7.7,0,0,1,.71.73Z" fill="#fff"/><path d="M160.8,259.5a1.77,1.77,0,0,0-.66-.67,2,2,0,0,0-1.06-.26,3.21,3.21,0,0,0-.6.06,2.27,2.27,0,0,0-.57.2,1.28,1.28,0,0,0-.42.38.93.93,0,0,0-.17.56,1,1,0,0,0,.11.49.88.88,0,0,0,.29.32,2,2,0,0,0,.46.24c.18.07.38.13.61.2a4.35,4.35,0,0,1,1.66.8,1.68,1.68,0,0,1,.57,1.36,1.94,1.94,0,0,1-.27,1,2.2,2.2,0,0,1-.68.71,2.87,2.87,0,0,1-.91.4,3.87,3.87,0,0,1-1,.13,4.47,4.47,0,0,1-1.75-.34,2.79,2.79,0,0,1-1.27-1.05l.92-.6a2.39,2.39,0,0,0,.8.78,2.35,2.35,0,0,0,1.25.32,3.08,3.08,0,0,0,.68-.07,1.81,1.81,0,0,0,.59-.22,1.08,1.08,0,0,0,.42-.4,1,1,0,0,0,.16-.57,1,1,0,0,0-.46-.9,6,6,0,0,0-1.34-.59c-.22-.08-.44-.16-.66-.26a2,2,0,0,1-.6-.37,1.81,1.81,0,0,1-.44-.55,1.74,1.74,0,0,1-.17-.79,1.81,1.81,0,0,1,.26-1,2.25,2.25,0,0,1,.67-.67,2.76,2.76,0,0,1,.91-.39,3.89,3.89,0,0,1,1-.13,3.44,3.44,0,0,1,1.53.33,2.17,2.17,0,0,1,1,.89Z" fill="#fff"/><path d="M167,258.76h-2l-.78,4.34a3.36,3.36,0,0,0,0,.51.8.8,0,0,0,.26.7,1.17,1.17,0,0,0,.66.17,1.81,1.81,0,0,0,.49-.07.92.92,0,0,0,.41-.18l-.12.91a1.74,1.74,0,0,1-.53.17,3.87,3.87,0,0,1-.69.05,2.64,2.64,0,0,1-.55-.06,1.34,1.34,0,0,1-.5-.23,1.2,1.2,0,0,1-.38-.45,1.55,1.55,0,0,1-.15-.73,3.22,3.22,0,0,1,0-.5l.83-4.63h-1.54l.18-.89h1.5l.36-2.09h1.06l-.36,2.09h2Z" fill="#fff"/><path d="M168.79,258.72c.05-.31.08-.6.1-.85h1c0,.2,0,.42-.08.66s-.07.45-.1.61h0a3.43,3.43,0,0,1,1.05-1.06,2.64,2.64,0,0,1,1.42-.4l.36,0,.34.06-.26,1-.29-.06a3.11,3.11,0,0,0-.43,0,2.4,2.4,0,0,0-.84.15,2.19,2.19,0,0,0-.75.5,3.18,3.18,0,0,0-.6.87,4.38,4.38,0,0,0-.39,1.28l-.67,3.79h-1.06l1-5.77C168.7,259.3,168.74,259,168.79,258.72Z" fill="#fff"/><path d="M178.44,260.73c0-.18.06-.32.07-.42a2.62,2.62,0,0,0,0-.27,1.3,1.3,0,0,0-.46-1.14,2.14,2.14,0,0,0-1.28-.33,3.15,3.15,0,0,0-1.28.26,3.81,3.81,0,0,0-1,.62l-.47-.71a4.19,4.19,0,0,1,1.33-.77,4.61,4.61,0,0,1,1.56-.29,4.17,4.17,0,0,1,1,.12,2.31,2.31,0,0,1,.84.38,1.9,1.9,0,0,1,.56.66,2,2,0,0,1,.22,1c0,.09,0,.22,0,.38a3.55,3.55,0,0,1,0,.41l-.54,3c0,.28-.1.58-.13.89s0,.56,0,.77h-.94c0-.18,0-.37,0-.58a5.87,5.87,0,0,1,.07-.62h0a5.22,5.22,0,0,1-.63.62,2.81,2.81,0,0,1-.66.42,3,3,0,0,1-.73.23,4.46,4.46,0,0,1-.84.07,3.53,3.53,0,0,1-.78-.09,2.14,2.14,0,0,1-.72-.33,1.89,1.89,0,0,1-.53-.59,1.67,1.67,0,0,1-.22-.9,2,2,0,0,1,.51-1.43,3.23,3.23,0,0,1,1.32-.84,8,8,0,0,1,1.82-.4C177.08,260.77,177.76,260.73,178.44,260.73Zm-.39.81a14.55,14.55,0,0,0-1.46.07,6.72,6.72,0,0,0-1.35.27,2.55,2.55,0,0,0-1,.55,1.21,1.21,0,0,0-.39.94,1.13,1.13,0,0,0,.13.58,1,1,0,0,0,.33.36,1.37,1.37,0,0,0,.5.19,2.6,2.6,0,0,0,.56.06,2.71,2.71,0,0,0,1-.19,2.89,2.89,0,0,0,.84-.52,3,3,0,0,0,.6-.77,3.07,3.07,0,0,0,.33-.92l.11-.62Z" fill="#fff"/><path d="M185.46,258.76h-2l-.78,4.34a3.36,3.36,0,0,0-.05.51.8.8,0,0,0,.26.7,1.17,1.17,0,0,0,.66.17,1.81,1.81,0,0,0,.49-.07.92.92,0,0,0,.41-.18l-.13.91a1.57,1.57,0,0,1-.53.17,3.69,3.69,0,0,1-.68.05,2.64,2.64,0,0,1-.55-.06,1.34,1.34,0,0,1-.5-.23,1.2,1.2,0,0,1-.38-.45,1.55,1.55,0,0,1-.15-.73,3.22,3.22,0,0,1,0-.5l.83-4.63h-1.54l.18-.89h1.5l.36-2.09H184l-.36,2.09h2Z" fill="#fff"/><path d="M187.17,265.27h-1.06l1.31-7.4h1.06ZM189.11,255a.76.76,0,0,1-.21.54.73.73,0,0,1-.53.22.76.76,0,0,1-.51-.19.68.68,0,0,1-.22-.52.77.77,0,0,1,.23-.56.79.79,0,0,1,.53-.22.73.73,0,0,1,.51.2A.69.69,0,0,1,189.11,255Z" fill="#fff"/><path d="M192.72,265.27h-1.14l-1.55-7.4h1.09l1.19,6.26h0l3.68-6.26h1.16Z" fill="#fff"/><path d="M198.68,261.86a1.1,1.1,0,0,0,0,.18.92.92,0,0,0,0,.16,2.49,2.49,0,0,0,.18,1,2.22,2.22,0,0,0,1.26,1.24,2.45,2.45,0,0,0,.94.17,2.88,2.88,0,0,0,1.52-.38,3.75,3.75,0,0,0,1-.91l.66.63a4.17,4.17,0,0,1-1.5,1.16,4.35,4.35,0,0,1-1.82.39,3.87,3.87,0,0,1-1.33-.22,3.26,3.26,0,0,1-1.07-.63,3.11,3.11,0,0,1-.71-1,3.59,3.59,0,0,1-.26-1.39,4.58,4.58,0,0,1,.33-1.72,4.83,4.83,0,0,1,.91-1.44,4.62,4.62,0,0,1,1.36-1,4,4,0,0,1,1.69-.37,3.07,3.07,0,0,1,2.3.81,2.85,2.85,0,0,1,.78,2.08c0,.13,0,.32,0,.58a4.81,4.81,0,0,1-.11.71Zm5.17-.8a2.13,2.13,0,0,0,0-.27,2.72,2.72,0,0,0,0-.28,1.94,1.94,0,0,0-.52-1.4,2,2,0,0,0-1.53-.54,2.94,2.94,0,0,0-1.09.19,3,3,0,0,0-.88.55,3.39,3.39,0,0,0-.66.8,3.1,3.1,0,0,0-.38.95Z" fill="#fff"/><path d="M217.7,255.82a2.31,2.31,0,0,0-.87-.75,2.81,2.81,0,0,0-1.33-.3,3.68,3.68,0,0,0-1,.14,2.78,2.78,0,0,0-.89.41,2.23,2.23,0,0,0-.64.69,2,2,0,0,0-.24,1,1.64,1.64,0,0,0,.16.76,1.75,1.75,0,0,0,.43.55,3,3,0,0,0,.65.41,7.4,7.4,0,0,0,.8.33c.33.13.66.27,1,.43a4.1,4.1,0,0,1,.92.58,2.71,2.71,0,0,1,.66.82,2.26,2.26,0,0,1,.26,1.1,3.74,3.74,0,0,1-.21,1.19,3,3,0,0,1-.68,1.15,3.33,3.33,0,0,1-1.25.87,4.66,4.66,0,0,1-1.91.34,5,5,0,0,1-2-.41,3.15,3.15,0,0,1-1.46-1.25l1-.64a2.67,2.67,0,0,0,.95.94,2.84,2.84,0,0,0,1.52.38,3.49,3.49,0,0,0,1.08-.16,2.78,2.78,0,0,0,.9-.48,2.15,2.15,0,0,0,.83-1.73,1.66,1.66,0,0,0-.19-.82,1.94,1.94,0,0,0-.51-.6,3.37,3.37,0,0,0-.74-.44c-.28-.13-.58-.25-.9-.37a7.53,7.53,0,0,1-.93-.41,3.37,3.37,0,0,1-.81-.57,2.77,2.77,0,0,1-.56-.78,2.46,2.46,0,0,1-.21-1,3.29,3.29,0,0,1,.27-1.33,3.15,3.15,0,0,1,.77-1.07,3.89,3.89,0,0,1,1.25-.71,5.21,5.21,0,0,1,1.69-.26,4.69,4.69,0,0,1,1.94.37,2.63,2.63,0,0,1,1.16,1Z" fill="#fff"/><path d="M222.8,265.46a3.83,3.83,0,0,1-1.37-.24,3.24,3.24,0,0,1-1.08-.65,3,3,0,0,1-.71-1,3.24,3.24,0,0,1-.25-1.3,4.91,4.91,0,0,1,.32-1.76,4.56,4.56,0,0,1,.91-1.46,4.43,4.43,0,0,1,1.39-1,4.16,4.16,0,0,1,1.77-.37,4.09,4.09,0,0,1,1.39.23,3.09,3.09,0,0,1,1.78,1.67,3.38,3.38,0,0,1,.25,1.3,5,5,0,0,1-.32,1.78,4.74,4.74,0,0,1-.91,1.46,4.52,4.52,0,0,1-1.4,1A4.24,4.24,0,0,1,222.8,265.46Zm3.29-4.52a2.65,2.65,0,0,0-.16-.94,2.05,2.05,0,0,0-.46-.75,2.19,2.19,0,0,0-.75-.5,2.61,2.61,0,0,0-1-.18,2.74,2.74,0,0,0-1.28.29,3.37,3.37,0,0,0-1,.79,3.91,3.91,0,0,0-.67,1.16,4,4,0,0,0-.24,1.39,2.65,2.65,0,0,0,.16.94,1.93,1.93,0,0,0,.46.75,2.25,2.25,0,0,0,.74.5,2.57,2.57,0,0,0,1,.18,2.85,2.85,0,0,0,1.3-.29,3.22,3.22,0,0,0,1-.78,3.36,3.36,0,0,0,.66-1.15A4.09,4.09,0,0,0,226.09,260.94Z" fill="#fff"/><path d="M230,265.27h-1.08L231,253.32h1.07Z" fill="#fff"/><path d="M238,265.27c0-.2.05-.42.08-.66a5.16,5.16,0,0,1,.1-.61h0a3.1,3.1,0,0,1-1.09,1.07,2.82,2.82,0,0,1-1.43.39,2.72,2.72,0,0,1-1.88-.6,2.09,2.09,0,0,1-.67-1.65c0-.12,0-.25,0-.38s0-.26.06-.41l.82-4.53H235l-.73,4.09a5.39,5.39,0,0,0-.09.93,1.87,1.87,0,0,0,.36,1.22,1.56,1.56,0,0,0,1.28.44,2.18,2.18,0,0,0,.85-.17,2.5,2.5,0,0,0,.79-.53,3.5,3.5,0,0,0,.66-.9,4.45,4.45,0,0,0,.41-1.29l.66-3.79h1.06l-1,5.77c-.05.2-.09.45-.14.77s-.08.59-.1.84Z" fill="#fff"/><path d="M246.17,258.76h-2l-.77,4.34a3.36,3.36,0,0,0,0,.51.8.8,0,0,0,.25.7,1.21,1.21,0,0,0,.67.17,1.86,1.86,0,0,0,.49-.07,1,1,0,0,0,.41-.18l-.13.91a1.65,1.65,0,0,1-.53.17,3.73,3.73,0,0,1-.69.05,2.48,2.48,0,0,1-.54-.06,1.38,1.38,0,0,1-.51-.23,1.3,1.3,0,0,1-.38-.45,1.55,1.55,0,0,1-.15-.73,3.37,3.37,0,0,1,.05-.5l.82-4.63h-1.53l.17-.89h1.5l.37-2.09h1.06l-.37,2.09h2Z" fill="#fff"/><path d="M247.88,265.27h-1.06l1.31-7.4h1.06ZM249.82,255a.76.76,0,0,1-.21.54.73.73,0,0,1-.53.22.81.81,0,0,1-.52-.19.67.67,0,0,1-.21-.52.77.77,0,0,1,.76-.78.69.69,0,0,1,.71.73Z" fill="#fff"/><path d="M254.14,265.46a3.85,3.85,0,0,1-1.38-.24,3.24,3.24,0,0,1-1.08-.65,3,3,0,0,1-.71-1,3.42,3.42,0,0,1-.25-1.3,4.71,4.71,0,0,1,.33-1.76A4.39,4.39,0,0,1,252,259a4.32,4.32,0,0,1,1.39-1,4.35,4.35,0,0,1,3.15-.14,3,3,0,0,1,1.08.66,3,3,0,0,1,.7,1,3.21,3.21,0,0,1,.25,1.3,5,5,0,0,1-.32,1.78,4.56,4.56,0,0,1-.91,1.46,4.48,4.48,0,0,1-1.39,1A4.31,4.31,0,0,1,254.14,265.46Zm3.29-4.52a2.9,2.9,0,0,0-.16-.94,2.08,2.08,0,0,0-.47-.75,2.1,2.1,0,0,0-.75-.5,2.57,2.57,0,0,0-1-.18,2.77,2.77,0,0,0-1.28.29,3.33,3.33,0,0,0-1,.79,3.71,3.71,0,0,0-.67,1.16,3.81,3.81,0,0,0-.25,1.39,2.65,2.65,0,0,0,.16.94,2.05,2.05,0,0,0,.46.75,2.36,2.36,0,0,0,.74.5,2.57,2.57,0,0,0,1,.18,2.82,2.82,0,0,0,1.3-.29,3.38,3.38,0,0,0,1-.78,3.72,3.72,0,0,0,.66-1.15A4.09,4.09,0,0,0,257.43,260.94Z" fill="#fff"/><path d="M262.45,257.87c0,.2,0,.42-.08.66s-.06.45-.09.61h0a3.13,3.13,0,0,1,1.1-1.07,2.83,2.83,0,0,1,1.44-.39,2.69,2.69,0,0,1,1.88.61,2.12,2.12,0,0,1,.67,1.65c0,.13,0,.25,0,.38l-.06.41-.81,4.54h-1.07l.73-4.1a5,5,0,0,0,.09-.93,1.91,1.91,0,0,0-.36-1.22,1.56,1.56,0,0,0-1.28-.45,2.12,2.12,0,0,0-.85.17,2.46,2.46,0,0,0-.8.54,3.39,3.39,0,0,0-.66.91,4.16,4.16,0,0,0-.41,1.29l-.66,3.79h-1.06l1-5.77c0-.2.09-.46.13-.78s.08-.6.11-.85Z" fill="#fff"/><path d="M274.33,259.5a1.72,1.72,0,0,0-.67-.67,2,2,0,0,0-1.06-.26,3.11,3.11,0,0,0-.59.06,2,2,0,0,0-.57.2,1.31,1.31,0,0,0-.43.38.93.93,0,0,0-.16.56,1,1,0,0,0,.1.49,1.1,1.1,0,0,0,.29.32,2.2,2.2,0,0,0,.46.24c.18.07.39.13.62.2a4.35,4.35,0,0,1,1.66.8,1.68,1.68,0,0,1,.57,1.36,1.94,1.94,0,0,1-.27,1,2.31,2.31,0,0,1-.68.71,2.92,2.92,0,0,1-.92.4,3.85,3.85,0,0,1-1,.13,4.4,4.4,0,0,1-1.75-.34,2.74,2.74,0,0,1-1.27-1.05l.91-.6a2.37,2.37,0,0,0,2.06,1.1,3.08,3.08,0,0,0,.68-.07,1.81,1.81,0,0,0,.59-.22,1.24,1.24,0,0,0,.42-.4,1.06,1.06,0,0,0,.16-.57,1,1,0,0,0-.47-.9,5.88,5.88,0,0,0-1.33-.59c-.23-.08-.45-.16-.67-.26a2.31,2.31,0,0,1-.6-.37,1.78,1.78,0,0,1-.43-.55,1.74,1.74,0,0,1-.17-.79,1.81,1.81,0,0,1,.26-1,2.22,2.22,0,0,1,.66-.67,2.85,2.85,0,0,1,.91-.39,4,4,0,0,1,1-.13,3.4,3.4,0,0,1,1.52.33,2.11,2.11,0,0,1,1,.89Z" fill="#fff"/></svg>