<svg xmlns="http://www.w3.org/2000/svg" viewBox="0 0 275.11 230.23"><title>direct-website</title><path d="M0,174H7.93l5.48,16.17h.06L19,174h7.9v24.78H21.64v-19h-.07l-6.25,19h-4l-6-19H5.24v19H0Z" fill="#fff"/><path d="M30.44,186.37a14.45,14.45,0,0,1,1-5.39,11.88,11.88,0,0,1,2.67-4.11,11.48,11.48,0,0,1,4.07-2.61,15,15,0,0,1,10.28,0,11.52,11.52,0,0,1,4.06,2.61A11.74,11.74,0,0,1,55.15,181a15.61,15.61,0,0,1,0,10.78,11.58,11.58,0,0,1-6.73,6.72,15,15,0,0,1-10.28,0,11.76,11.76,0,0,1-4.07-2.61,11.88,11.88,0,0,1-2.67-4.11A14.49,14.49,0,0,1,30.44,186.37Zm5.44,0a9.63,9.63,0,0,0,.52,3.2,7.41,7.41,0,0,0,1.5,2.52,6.75,6.75,0,0,0,2.34,1.66,8,8,0,0,0,6.08,0,6.8,6.8,0,0,0,2.33-1.66,7.41,7.41,0,0,0,1.5-2.52,10.08,10.08,0,0,0,0-6.39,7.36,7.36,0,0,0-1.5-2.53A6.83,6.83,0,0,0,46.32,179a8.13,8.13,0,0,0-6.08,0,6.77,6.77,0,0,0-2.34,1.67,7.36,7.36,0,0,0-1.5,2.53A9.66,9.66,0,0,0,35.88,186.37Z" fill="#fff"/><path d="M59.67,174h9.21a15.85,15.85,0,0,1,3.44.36,8.13,8.13,0,0,1,2.86,1.23,6,6,0,0,1,1.95,2.31,8.13,8.13,0,0,1,.72,3.62A7.49,7.49,0,0,1,76.54,186a5.81,5.81,0,0,1-3.83,2.33l6.05,10.47H72.47l-5-9.91H64.91v9.91H59.67Zm5.24,10.25H68c.48,0,1,0,1.5,0a4.54,4.54,0,0,0,1.43-.31A2.52,2.52,0,0,0,72,183a2.57,2.57,0,0,0,.42-1.57A2.79,2.79,0,0,0,72,180a2.47,2.47,0,0,0-.94-.85,4.11,4.11,0,0,0-1.31-.41,10.4,10.4,0,0,0-1.45-.1H64.91Z" fill="#fff"/><path d="M103,197a18.66,18.66,0,0,1-4.84,1.82,23.81,23.81,0,0,1-5.14.56,14.27,14.27,0,0,1-5.14-.91,11.58,11.58,0,0,1-6.73-6.72,15.61,15.61,0,0,1,0-10.78,11.61,11.61,0,0,1,2.67-4.11,11.43,11.43,0,0,1,4.06-2.61,14.06,14.06,0,0,1,5.14-.91,18.23,18.23,0,0,1,5.26.72,10.18,10.18,0,0,1,4.22,2.46l-3.7,4.2A7.31,7.31,0,0,0,96.36,179a8.39,8.39,0,0,0-3.36-.59,7.63,7.63,0,0,0-3,.59,6.83,6.83,0,0,0-2.33,1.67,7.36,7.36,0,0,0-1.5,2.53,10.08,10.08,0,0,0,0,6.39,7.41,7.41,0,0,0,1.5,2.52A6.8,6.8,0,0,0,90,193.75a7.46,7.46,0,0,0,3,.6,9.9,9.9,0,0,0,3-.4,10.82,10.82,0,0,0,2-.83v-4H93.68v-5H103Z" fill="#fff"/><path d="M115.41,174h4.34l10.35,24.78h-5.92l-2.05-5.25h-9.24l-2,5.25h-5.78Zm2,7.21-2.89,7.7h5.81Z" fill="#fff"/><path d="M132.48,174h7.13l10.11,17.22h.07V174H155v24.78h-6.86l-10.38-17.64h-.07v17.64h-5.24Z" fill="#fff"/><path d="M167.33,174H173l3.79,15.89h.07l5-15.89h4.88l4.94,16.31h.06l4-16.31h5.31l-7,24.78h-4.66l-5.25-17.15h-.06l-5.25,17.15h-4.5Z" fill="#fff"/><path d="M203.41,174h5.24v9.24h10.19V174h5.24v24.78h-5.24V188.05H208.65v10.71h-5.24Z" fill="#fff"/><path d="M228.85,174h5.24v24.78h-5.24Z" fill="#fff"/><path d="M243.46,178.81h-6.78V174h18.81v4.83H248.7v19.95h-5.24Z" fill="#fff"/><path d="M258.35,174h16.16v5H263.59v4.62H273.9v5H263.59v5h11.52v5H258.35Z" fill="#fff"/><path d="M100.49,214.73a6.84,6.84,0,0,0-2.24-1.56,8.17,8.17,0,0,0-6.19.08A7.19,7.19,0,0,0,89.68,215a7.73,7.73,0,0,0-1.49,2.53,9.09,9.09,0,0,0,0,6.06,7.77,7.77,0,0,0,1.49,2.54,7.19,7.19,0,0,0,2.38,1.74,7.55,7.55,0,0,0,3.17.65,10.79,10.79,0,0,0,2.75-.35,10,10,0,0,0,2.35-.95v-6.16H95.94v-1.72h6.26v9a13.27,13.27,0,0,1-3.42,1.39,13.77,13.77,0,0,1-3.55.49,9.93,9.93,0,0,1-3.8-.73,9.39,9.39,0,0,1-3.05-2,9.26,9.26,0,0,1-2-3,10.65,10.65,0,0,1,0-7.75,9,9,0,0,1,5.06-5.07,9.75,9.75,0,0,1,3.8-.73,10.79,10.79,0,0,1,3.81.61,8.09,8.09,0,0,1,2.85,1.86Z" fill="#fff"/><path d="M112.89,229.76H111V211.35h5.66a7.27,7.27,0,0,1,4.44,1.22,4.34,4.34,0,0,1,1.62,3.69,4.57,4.57,0,0,1-1.21,3.24A5.16,5.16,0,0,1,118,221l5.3,8.74h-2.29l-5-8.56h-3.12Zm0-10.27h3.33a7.67,7.67,0,0,0,2.12-.26,4.2,4.2,0,0,0,1.39-.69,2.65,2.65,0,0,0,.75-1,3.28,3.28,0,0,0,.23-1.26,3.2,3.2,0,0,0-.23-1.23,2.76,2.76,0,0,0-.75-1,3.85,3.85,0,0,0-1.39-.69,8.14,8.14,0,0,0-2.12-.24h-3.33Z" fill="#fff"/><path d="M148.27,220.55a10.19,10.19,0,0,1-.72,3.88,9.21,9.21,0,0,1-5.06,5.07,10.31,10.31,0,0,1-7.62,0,9.21,9.21,0,0,1-5.06-5.07,10.79,10.79,0,0,1,0-7.75,9.13,9.13,0,0,1,5.06-5.07,10.31,10.31,0,0,1,7.62,0,9.13,9.13,0,0,1,5.06,5.07A10.18,10.18,0,0,1,148.27,220.55Zm-2,0a9.1,9.1,0,0,0-.52-3,7.75,7.75,0,0,0-1.5-2.53,7.09,7.09,0,0,0-2.38-1.74,8.05,8.05,0,0,0-6.34,0,7.09,7.09,0,0,0-2.38,1.74,7.75,7.75,0,0,0-1.5,2.53,9.09,9.09,0,0,0,0,6.06,7.8,7.8,0,0,0,1.5,2.54,7.09,7.09,0,0,0,2.38,1.74,8.05,8.05,0,0,0,6.34,0,7.09,7.09,0,0,0,2.38-1.74,7.8,7.8,0,0,0,1.5-2.54A9,9,0,0,0,146.25,220.55Z" fill="#fff"/><path d="M169.07,222.89a11.74,11.74,0,0,1-.27,2.43,6.32,6.32,0,0,1-1,2.38,5.88,5.88,0,0,1-2.06,1.81,8.27,8.27,0,0,1-6.75,0,5.84,5.84,0,0,1-2.05-1.81,6.32,6.32,0,0,1-1-2.38,11.74,11.74,0,0,1-.27-2.43V211.35h1.87v11.34a8.39,8.39,0,0,0,.26,2.27,5.36,5.36,0,0,0,.69,1.6,3.67,3.67,0,0,0,1,1,4.88,4.88,0,0,0,1.07.58,4.07,4.07,0,0,0,1,.27,5.8,5.8,0,0,0,.86.07,5.89,5.89,0,0,0,.85-.07,4.32,4.32,0,0,0,1-.27,5.06,5.06,0,0,0,1.06-.58,3.67,3.67,0,0,0,1-1,5.36,5.36,0,0,0,.69-1.6,8.39,8.39,0,0,0,.26-2.27V211.35h1.87Z" fill="#fff"/><path d="M177.65,211.35H183a7.24,7.24,0,0,1,4.43,1.22,5,5,0,0,1,0,7.4A7.17,7.17,0,0,1,183,221.2h-3.48v8.56h-1.88Zm1.88,8.14h3a7.62,7.62,0,0,0,2.12-.26,4.2,4.2,0,0,0,1.39-.69,2.58,2.58,0,0,0,.76-1,3.48,3.48,0,0,0,.23-1.26,3.4,3.4,0,0,0-.23-1.23,2.68,2.68,0,0,0-.76-1,3.85,3.85,0,0,0-1.39-.69,8.09,8.09,0,0,0-2.12-.24h-3Z" fill="#fff"/><line x1="74.93" y1="220.12" x2="25.36" y2="220.12" fill="none" stroke="#fff" stroke-miterlimit="10" stroke-width="1.5"/><line x1="252.14" y1="220.12" x2="202.57" y2="220.12" fill="none" stroke="#fff" stroke-miterlimit="10" stroke-width="1.5"/><circle cx="137.24" cy="77.28" r="64.35" fill="#00205c"/><path d="M137.24,11.91a65.38,65.38,0,1,0,65.37,65.37A65.45,65.45,0,0,0,137.24,11.91Zm0,128.69A63.43,63.43,0,0,1,76.82,96.22c1.77,0,4.9-.12,7-.12,3.18,0,4.92.15,5.44.15a.36.36,0,0,0,.41-.41V94.61c0-.25-.05-.41-.36-.41H87.87c-1.23,0-1.74-.72-1.74-1.44C86.13,89.94,92,73,93.52,68.5h.2l7.39,18.33s1.68,4,2.74,4c1.61,0,4-5.65,4-5.65s6.92-15.45,7.33-16.53l.1,0,8,23.7a1.23,1.23,0,0,1-1.23,1.79h-1c-.36,0-.47.16-.47.41v1.28c0,.26.11.36.42.36s1.72,0,4.23-.09a1.33,1.33,0,0,0,1-.43,1.69,1.69,0,0,0,.53-.69c.2-.57,9.28-19.69,9.74-21.13h.21l9.28,21c.2.61.56,1.12,1.28,1.12,2.75,0,3.66-1.08,4.76-4.21.57-1.62,3.91-11,6.94-19,3.61-9.52,9.14-12.3,14.69-12.3a11.59,11.59,0,0,1,8.52,3.59,20.29,20.29,0,0,1,4.1,7.08c.1.3.2.46.51.41l1.23-.21c.21,0,.21-.31.21-.72l-.52-10.26c0-.41-.1-.71-.61-.71-.31,0-.46.15-.72.51l-.62.82c-.3.41-.61.56-1.23.1-1.64-1.23-5.54-2.77-10.46-2.77-9.47,0-16.27,2-20.65,15.7l-4.2,11-6.4-14.36s-2.68-6.39-3.84-6.39-3.92,6-3.92,6S128.15,85,127.74,86.11l-.1,0-8-23.69a1.23,1.23,0,0,1,1.23-1.8h1c.36,0,.47-.15.47-.41V58.88c0-.26-.11-.36-.41-.36s-2.84.09-5,.13c-.24,0-.61.75-1,1.73-1.56,3.5-9,19.81-9.46,21.11h-.2L97,59.89c-.2-.62-.56-1.13-1.28-1.13s-1.13.82-1.33,1.33c-1,2.57-11.49,31.29-12,32.42a2.52,2.52,0,0,1-2.25,1.69H76.23A63.32,63.32,0,1,1,200.56,77.28c0,.76,0,1.5-.06,2.25l-.19,0c-.51,0-12.29.16-16.59.16s-6.67-.16-7.29-.16c-.2,0-.31.11-.31.41V81.1c0,.26.11.47.41.47h2.16c1.33,0,1.85.51,1.85,2.35v3.75c0,2.67-.11,4.1-1.24,4.72-1.74.92-3.69.86-7,.86-5.1,0-8.76-3.2-13-6.61-.64-.51-1-.27-1.16,0s-.84,1.95-1,2.38a1.23,1.23,0,0,0,.3,1.49c3.54,3.92,9.57,5.56,14.44,5.56a29.71,29.71,0,0,0,14.56-3.38c.52-.21.83-.41.83-.83s-.21-.92-.21-1.64V83.46c0-1.48.62-1.89,1.54-1.89h11.75A63.38,63.38,0,0,1,137.24,140.6Z" fill="#fff"/><g opacity="0.5"><path d="M207.12,77.26a17.18,17.18,0,0,1,1,2.57,24,24,0,0,1,.85,2.33l0-.13a35,35,0,0,1,3.77,9,9,9,0,0,1-.28,5,10.61,10.61,0,0,1-2.49,4.27c-.19-1-.35-2.13-.49-3.17s-.45-2.28-.68-3.38v.14h0c-.25-.64-.51-1.28-.75-1.91s-.58-1.31-.86-1.94a29.58,29.58,0,0,1-1.36-3.85,13.11,13.11,0,0,1-.36-4.54A10.49,10.49,0,0,1,207.12,77.26Z" fill="#fff"/><path d="M206,89.48a10.85,10.85,0,0,1,.63,2.72,24.55,24.55,0,0,1,.37,2.43V94.5c.45,1.48,1,3.09,1.43,4.64a24.13,24.13,0,0,1,.68,4.86,10.27,10.27,0,0,1-4.36,8.61c0-1.08.05-2.16.1-3.2s0-2.31,0-3.43l0,.15v0a46.74,46.74,0,0,1-1.56-8.1,9.68,9.68,0,0,1,.39-4.55,9.15,9.15,0,0,1,1-2A13.38,13.38,0,0,1,206,89.48Z" fill="#fff"/><path d="M202.77,101.31a17.34,17.34,0,0,1,.15,2.8,11.23,11.23,0,0,1,0,2.46l0-.12c.21,3.07,1.05,6.46.38,9.71a11.15,11.15,0,0,1-1.91,4.61,11.49,11.49,0,0,1-3.92,3.08c.16-1.07.45-2.1.7-3.11a16.84,16.84,0,0,0,.53-3.4l0,.14v0a61.65,61.65,0,0,1-.12-8.24,9.26,9.26,0,0,1,1.25-4.38A13.09,13.09,0,0,1,202.77,101.31Z" fill="#fff"/><path d="M197.57,112.4a18.52,18.52,0,0,1-.39,2.76,18.27,18.27,0,0,1-.39,2.46l.05-.11c-.13,1.52-.26,3.16-.39,4.76a18.21,18.21,0,0,1-.95,4.85,11.7,11.7,0,0,1-2.73,4.18,9.81,9.81,0,0,1-4.38,2.36c.35-1,.83-2,1.26-2.91a20.84,20.84,0,0,0,1.07-3.3l-.06.13s0,0,0,0c.31-2.79.78-5.48,1.32-8.13a9.54,9.54,0,0,1,2.06-4.06A10.09,10.09,0,0,1,197.57,112.4Z" fill="#fff"/><path d="M190.51,122.43a18,18,0,0,1-.9,2.62c-.29.74-.46,1.63-.83,2.35l.06-.12a41.86,41.86,0,0,1-2.93,9.3,11.47,11.47,0,0,1-3.46,3.58,10.59,10.59,0,0,1-2.22,1.14,11.64,11.64,0,0,1-2.48.45c.52-.94,1.2-1.72,1.75-2.64s1.1-2.07,1.61-3.09l-.08.12h0c.41-1.32.83-2.65,1.31-3.92a33.11,33.11,0,0,1,1.41-3.86A10.74,10.74,0,0,1,190.51,122.43Z" fill="#fff"/><path d="M181.8,131.09a14.58,14.58,0,0,1-1.35,2.4,22.8,22.8,0,0,1-1.25,2.13l.08-.1a36.57,36.57,0,0,1-4.51,8.64,10.64,10.64,0,0,1-8.91,3.73l2.15-2.37a34.18,34.18,0,0,0,2.16-2.71l-.1.1s0,0,0,0c1.35-2.33,2.52-5.05,4-7.18a11.37,11.37,0,0,1,1.55-1.74,8.72,8.72,0,0,1,1.73-1.43A10.75,10.75,0,0,1,181.8,131.09Z" fill="#fff"/><path d="M171.68,138a9.48,9.48,0,0,1-1.71,2.2,23.42,23.42,0,0,1-1.62,1.84l.1-.08c-.9,1.29-1.71,2.75-2.67,4.06a26.67,26.67,0,0,1-3.3,3.63,11.54,11.54,0,0,1-2.07,1.46,10.94,10.94,0,0,1-2.39.77,11.31,11.31,0,0,1-5-.08c.8-.73,1.69-1.35,2.53-2s1.77-1.49,2.61-2.22l-.12.07s0,0,0,0a58.49,58.49,0,0,1,5.24-6.37,11.3,11.3,0,0,1,3.76-2.58A14.1,14.1,0,0,1,171.68,138Z" fill="#fff"/><path d="M160.52,143.09a27.82,27.82,0,0,1-4,3.43l.11-.06c-2.22,2.2-4.31,4.91-7.23,6.5a10.73,10.73,0,0,1-4.77,1.47,11.6,11.6,0,0,1-4.87-1.06c.92-.55,1.9-1,2.84-1.44a17.71,17.71,0,0,0,3-1.75l-.13.07h0a51.15,51.15,0,0,1,6.28-5.34C154.37,142.82,157.29,142.6,160.52,143.09Z" fill="#fff"/><path d="M148.65,146.14a17.7,17.7,0,0,1-2.36,1.48,14.63,14.63,0,0,1-2.15,1.25l.11,0c-2.57,1.66-5.11,4-8.25,5.12a10.26,10.26,0,0,1-9.56-1.31c1-.36,2-.59,3-.85s2.18-.89,3.23-1.33l-.14,0h0c2.34-1.53,4.71-2.9,7.1-4.17a9.18,9.18,0,0,1,4.44-1A10.42,10.42,0,0,1,148.65,146.14Z" fill="#fff"/><path d="M136.42,147.12a16.93,16.93,0,0,1-2.58,1,24.13,24.13,0,0,1-2.34.84l.13,0c-1.44.77-2.85,1.47-4.33,2.09a27.34,27.34,0,0,1-4.7,1.59,10,10,0,0,1-5-.37,9.34,9.34,0,0,1-4.24-2.57c1-.12,2.11-.24,3.17-.4s2.29-.45,3.4-.68h-.14c2.54-.92,5.19-2.21,7.73-2.88a9.47,9.47,0,0,1,2.31-.33,11.84,11.84,0,0,1,2.23,0A10.28,10.28,0,0,1,136.42,147.12Z" fill="#fff"/><path d="M124.21,145.9a9.22,9.22,0,0,1-2.72.56,24.53,24.53,0,0,1-2.43.36h.13c-1.52.4-3.09,1-4.66,1.37a26.46,26.46,0,0,1-4.87.65,11.26,11.26,0,0,1-2.52-.23,11.14,11.14,0,0,1-2.32-1,11.47,11.47,0,0,1-3.73-3.25c1.09,0,2.16.06,3.22.11s2.31,0,3.43,0l-.14,0h0a60,60,0,0,1,8.11-1.47,11.64,11.64,0,0,1,4.53.46A13.53,13.53,0,0,1,124.21,145.9Z" fill="#fff"/><path d="M112.42,142.55a18.69,18.69,0,0,1-2.81.15,22.25,22.25,0,0,1-2.44-.11l.13,0-4.82.5a18.76,18.76,0,0,1-4.9-.21,9.63,9.63,0,0,1-4.58-2A11.59,11.59,0,0,1,89.94,137c1.07.16,2.1.45,3.12.7a26.2,26.2,0,0,0,3.37.61l-.14,0h0a48.4,48.4,0,0,1,8.25,0C107.9,138.36,110.28,140.09,112.42,142.55Z" fill="#fff"/><path d="M101.4,137.2a16.49,16.49,0,0,1-2.77-.39,10.67,10.67,0,0,1-2.43-.46l.11.05L91.53,136c-.82-.08-1.64-.18-2.47-.32a21,21,0,0,1-2.35-.71,11.51,11.51,0,0,1-4.18-2.74,11.07,11.07,0,0,1-2.29-4.42c1,.36,2,.84,2.91,1.27a16.51,16.51,0,0,0,1.58.66l1.68.48-.13-.06h0c1.39.17,2.79.35,4.14.59s2.65.54,4,.83a9.21,9.21,0,0,1,4.06,2.06A11.65,11.65,0,0,1,101.4,137.2Z" fill="#fff"/><path d="M91.46,130a18.14,18.14,0,0,1-2.63-.9,21.91,21.91,0,0,1-2.35-.84l.11.06c-3-.88-6.29-1.42-9.22-3.08a10.26,10.26,0,0,1-5.09-8.2c.92.54,1.76,1.19,2.61,1.79A25.78,25.78,0,0,0,78,120.5l-.12-.09s0,0,0,0c2.65.84,5.26,1.77,7.75,2.81A10.14,10.14,0,0,1,89.21,126,10.32,10.32,0,0,1,91.46,130Z" fill="#fff"/><path d="M82.9,121.23a18.4,18.4,0,0,1-2.39-1.37,24,24,0,0,1-2.14-1.26l.1.08c-1.52-.61-2.92-1.28-4.37-2a26.92,26.92,0,0,1-4.24-2.59A10.91,10.91,0,0,1,67,110a8.89,8.89,0,0,1-.71-4.91c.81.69,1.46,1.51,2.29,2.2s1.83,1.47,2.72,2.17l-.1-.1s0,0,0,0c1.23.66,2.41,1.34,3.61,2a30.17,30.17,0,0,1,3.53,2.1A10.67,10.67,0,0,1,82.9,121.23Z" fill="#fff"/><path d="M76,111.06a11.67,11.67,0,0,1-2.13-1.76c-.58-.55-1.33-1-1.85-1.63l.08.09a35.09,35.09,0,0,1-7.64-6.05,8.92,8.92,0,0,1-2.14-4.49,10.56,10.56,0,0,1,.11-4.94c.67.82,1.34,1.7,2,2.54s1.5,1.79,2.23,2.64l-.08-.12s0,0,0,0l1.58,1.31,1.69,1.29a28.57,28.57,0,0,1,3,2.71,12.9,12.9,0,0,1,2.52,3.8A11.86,11.86,0,0,1,76,111.06Z" fill="#fff"/><path d="M71.11,99.83a11.15,11.15,0,0,1-1.87-2.08,23.89,23.89,0,0,1-1.49-2l.06.11-3.49-3.37a23.63,23.63,0,0,1-2.93-3.93A10.18,10.18,0,0,1,61.06,79c.56.93,1,1.91,1.45,2.85a31.88,31.88,0,0,0,1.66,3,.75.75,0,0,1-.06-.13s0,0,0,0A44.93,44.93,0,0,1,69.4,91a9.84,9.84,0,0,1,1.86,4.17,9.49,9.49,0,0,1,.09,2.27A15.11,15.11,0,0,1,71.11,99.83Z" fill="#fff"/><path d="M68.21,87.92a19,19,0,0,1-1.48-2.38,10.39,10.39,0,0,1-1.17-2.17l0,.12c-.88-1.25-1.83-2.62-2.74-3.94-.46-.68-.92-1.38-1.34-2.1a17.56,17.56,0,0,1-1-2.27,11.71,11.71,0,0,1-.54-5A9.84,9.84,0,0,1,62,65.64c.36,1,.59,2,.85,3a18.52,18.52,0,0,0,1.25,3.24l0-.14s0,0,0,0c.75,1.18,1.5,2.38,2.17,3.57.34.6.66,1.19,1,1.79s.68,1.2,1,1.8a9.36,9.36,0,0,1,1,4.45A12.37,12.37,0,0,1,68.21,87.92Z" fill="#fff"/><path d="M67.39,75.69a19.27,19.27,0,0,1-1-2.6c-.24-.76-.67-1.56-.84-2.35l0,.13A44.84,44.84,0,0,1,62,61.79a11.43,11.43,0,0,1,.46-4.95,11.68,11.68,0,0,1,1-2.29,9.59,9.59,0,0,1,1.63-1.91c.19,1,.13,2.09.32,3.16s.45,2.3.68,3.41v-.13c.51,1.29,1,2.58,1.44,3.87a29.87,29.87,0,0,1,1.35,3.88A10.93,10.93,0,0,1,67.39,75.69Z" fill="#fff"/><path d="M68.68,63.48a13.84,13.84,0,0,1-.46-2.71c-.09-.79-.36-1.64-.37-2.45v.13a35.14,35.14,0,0,1-1.91-9.55,9.15,9.15,0,0,1,1.26-4.82,10.12,10.12,0,0,1,3.3-3.69c-.06,1.18-.12,2.17-.17,3.2s0,2.33,0,3.46l0-.15s0,0,0,0c.39,2.65,1.27,5.53,1.37,8.12a13.12,13.12,0,0,1-.54,4.52A11,11,0,0,1,68.68,63.48Z" fill="#fff"/><path d="M72.19,51.73a10.89,10.89,0,0,1-.07-2.79c.06-.79,0-1.66.11-2.45l0,.12c-.15-1.54-.32-3.21-.49-4.83a26.22,26.22,0,0,1,.3-4.89,10.35,10.35,0,0,1,6-7.59c-.16,1.07-.46,2.1-.71,3.13s-.45,2.27-.64,3.37l0-.14s0,0,0,0a51.38,51.38,0,0,1-.08,8.25A10.24,10.24,0,0,1,75.3,48.3,14.69,14.69,0,0,1,72.19,51.73Z" fill="#fff"/><path d="M77.68,40.77a17.74,17.74,0,0,1,.4-2.78,11.84,11.84,0,0,1,.53-2.39l0,.11c.36-3.09.27-6.52,1.53-9.6A10.34,10.34,0,0,1,82.88,22a11.4,11.4,0,0,1,4.43-2.27c-.36,1-.85,2-1.29,2.92a20.42,20.42,0,0,0-1.2,3.22l.06-.14s0,0,0,0a52.25,52.25,0,0,1-1.51,8.11C82.6,37.08,80.52,39.14,77.68,40.77Z" fill="#fff"/><path d="M85,30.92a18.74,18.74,0,0,1,.91-2.64A11.89,11.89,0,0,1,86.78,26l-.07.1c.41-1.47.86-3.07,1.3-4.61A16.59,16.59,0,0,1,89.9,16.9a11.54,11.54,0,0,1,3.48-3.58,10.33,10.33,0,0,1,4.76-1.44c-.54.92-1.19,1.77-1.79,2.61a17.09,17.09,0,0,0-1.71,3l.08-.12s0,0,0,0c-.43,1.33-.87,2.67-1.36,4-.24.64-.5,1.26-.77,1.88s-.49,1.28-.76,1.89A9.28,9.28,0,0,1,89,28.71,10.59,10.59,0,0,1,85,30.92Z" fill="#fff"/><path d="M93.88,22.48a18.21,18.21,0,0,1,1.38-2.41,23.05,23.05,0,0,1,1.26-2.14l-.08.09c1.38-2.81,2.59-5.87,4.72-8.51,2.25-2.4,5.65-4,9-3.47-.7.81-1.5,1.49-2.25,2.22s-1.48,1.83-2.18,2.73l.1-.1h0c-.66,1.21-1.34,2.44-2,3.59s-1.36,2.44-2.14,3.5A11.19,11.19,0,0,1,98.27,21,10.22,10.22,0,0,1,93.88,22.48Z" fill="#fff"/><path d="M104.1,15.7a16.85,16.85,0,0,1,1.8-2.09,24,24,0,0,1,1.64-1.86l-.1.09,1.34-2,1.44-1.9a27.31,27.31,0,0,1,3.35-3.66,9.72,9.72,0,0,1,4.53-2.06,9.12,9.12,0,0,1,4.94.2c-.84.6-1.73,1.22-2.57,1.88a32.17,32.17,0,0,0-2.65,2.23l.12-.08h0c-1.78,2-3.48,4.43-5.38,6.24a9.65,9.65,0,0,1-1.86,1.4,10.45,10.45,0,0,1-2,1A10.47,10.47,0,0,1,104.1,15.7Z" fill="#fff"/><path d="M115.38,10.88a9.74,9.74,0,0,1,2.12-1.79,23.37,23.37,0,0,1,2-1.49l-.11.06c1.14-1.09,2.22-2.37,3.42-3.45a26.27,26.27,0,0,1,4-2.91,11.08,11.08,0,0,1,2.31-1A9.48,9.48,0,0,1,131.52,0a11.4,11.4,0,0,1,4.84,1.06c-.93.56-1.92,1-2.87,1.45s-2,1.11-3,1.65l.13,0h0a57.51,57.51,0,0,1-6.4,5.21A11.61,11.61,0,0,1,120,11.11,13.6,13.6,0,0,1,115.38,10.88Z" fill="#fff"/><path d="M127.33,8.14a17.66,17.66,0,0,1,2.39-1.48,16.6,16.6,0,0,1,2.19-1.1l-.12,0c2.61-1.68,5.19-4,8.36-4.95a11.63,11.63,0,0,1,5-.53,11.6,11.6,0,0,1,4.57,2c-1,.36-2.06.59-3.07.85a15.53,15.53,0,0,0-3.24,1.17l.14,0h0a56.71,56.71,0,0,1-7.2,4C133.32,9.61,130.4,9.26,127.33,8.14Z" fill="#fff"/><path d="M139.57,7.48a19,19,0,0,1,2.62-1,21.91,21.91,0,0,1,2.35-.84l-.12,0c2.85-1.16,5.77-2.83,9.1-3.41a10.33,10.33,0,0,1,9.12,3.17c-1,.16-2.11.18-3.15.24s-2.31.44-3.43.67h.15s0,0,0,0c-2.59,1-5.2,1.93-7.78,2.69a9.91,9.91,0,0,1-4.55.12A10.15,10.15,0,0,1,139.57,7.48Z" fill="#fff"/><path d="M151.76,8.9a17.53,17.53,0,0,1,2.72-.44c.79-.09,1.65-.35,2.46-.36h-.13l2.33-.67,2.33-.52a26.27,26.27,0,0,1,4.92-.63,10.06,10.06,0,0,1,4.79,1.35A9.13,9.13,0,0,1,174.82,11c-.53,0-1-.08-1.57-.15l-1.61-.1c-1.17-.09-2.34,0-3.46,0l.14,0h0c-1.36.28-2.69.42-4.08.72a29.78,29.78,0,0,1-4.06.57,9.82,9.82,0,0,1-2.32-.14,11.13,11.13,0,0,1-2.18-.48A10.42,10.42,0,0,1,151.76,8.9Z" fill="#fff"/><path d="M163.48,12.51a9.89,9.89,0,0,1,2.77,0c.79.07,1.67,0,2.46.12l-.12,0c1.56-.09,3.24-.4,4.83-.41a26.53,26.53,0,0,1,4.91.32,9.2,9.2,0,0,1,2.41.73,12.65,12.65,0,0,1,2.09,1.39,11.06,11.06,0,0,1,3,3.92c-1-.2-2.11-.48-3.13-.74s-2.28-.45-3.38-.65l.14,0s0,0,0,0c-1.34,0-2.77,0-4.18.05a28.19,28.19,0,0,1-4.06-.22,12.25,12.25,0,0,1-4.35-1.36A13.13,13.13,0,0,1,163.48,12.51Z" fill="#fff"/><path d="M174.38,18.13a14.51,14.51,0,0,1,2.77.43,22.29,22.29,0,0,1,2.38.58l-.12-.05,4.83.45A21.39,21.39,0,0,1,189,20.72,10.26,10.26,0,0,1,195.34,28c-1-.37-2-.85-2.93-1.29s-2.14-.87-3.18-1.27l.12.08h0a46.72,46.72,0,0,1-8.09-1.61,9.49,9.49,0,0,1-4.07-2.08,9.82,9.82,0,0,1-1.5-1.7A10.43,10.43,0,0,1,174.38,18.13Z" fill="#fff"/><path d="M184.13,25.56a17.29,17.29,0,0,1,2.65.91,11.19,11.19,0,0,1,2.27,1l-.1-.06c2.93.95,6.37,1.45,9.14,3.28a11.15,11.15,0,0,1,3.57,3.5A11.64,11.64,0,0,1,203,38.92c-.92-.54-1.77-1.2-2.62-1.81a16.88,16.88,0,0,0-3-1.76l.12.08h0a59.89,59.89,0,0,1-7.69-3,9.34,9.34,0,0,1-3.6-2.81A13.1,13.1,0,0,1,184.13,25.56Z" fill="#fff"/><path d="M192.46,34.55a18.89,18.89,0,0,1,2.42,1.39A18.27,18.27,0,0,1,197,37.23l-.09-.08,4.27,2.14a17.52,17.52,0,0,1,4.15,2.7,11.5,11.5,0,0,1,2.84,4.1,9.56,9.56,0,0,1,.54,4.94c-.8-.7-1.5-1.51-2.21-2.26a20.27,20.27,0,0,0-2.66-2.23l.1.11s0,0,0,0c-2.48-1.33-4.78-2.79-7-4.28a9.32,9.32,0,0,1-3-3.42A10.09,10.09,0,0,1,192.46,34.55Z" fill="#fff"/><path d="M199.12,44.85a18.79,18.79,0,0,1,2.09,1.82,22.17,22.17,0,0,1,1.86,1.65l-.08-.1a42.62,42.62,0,0,1,7.52,6.21,11.4,11.4,0,0,1,2,4.56,11,11,0,0,1,.23,2.49,9.45,9.45,0,0,1-.51,2.46c-.67-.83-1.12-1.76-1.8-2.61s-1.5-1.8-2.24-2.66l.08.12s0,0,0,0c-1.07-.88-2.13-1.78-3.13-2.7a28.13,28.13,0,0,1-3.05-2.75A10.77,10.77,0,0,1,199.12,44.85Z" fill="#fff"/><path d="M203.86,56.17a13.19,13.19,0,0,1,1.72,2.15c.46.65,1.1,1.26,1.5,2l-.06-.11a35.19,35.19,0,0,1,6.28,7.45,8.87,8.87,0,0,1,1.22,4.82,11.28,11.28,0,0,1-1.07,4.82c-.55-.93-1-1.93-1.44-2.88s-1.11-2-1.66-3l.05.14s0,0,0,0l-1.28-1.59-1.41-1.6A28.8,28.8,0,0,1,205.26,65a13.45,13.45,0,0,1-1.71-4.22A11.25,11.25,0,0,1,203.86,56.17Z" fill="#fff"/><path d="M205.73,67.1a12.23,12.23,0,0,1,1.38,2.14,22.35,22.35,0,0,1,1.19,1.94l-.05-.11a32.24,32.24,0,0,1,5.06,7.41A8.32,8.32,0,0,1,214,83a10.76,10.76,0,0,1-1.37,4.38c-.43-.92-.73-1.87-1.07-2.79s-.83-2-1.25-2.93l0,.13s0,0,0,0c-.35-.53-.69-1.06-1-1.58s-.76-1.08-1.13-1.6a27.24,27.24,0,0,1-1.94-3.22,12.57,12.57,0,0,1-1.19-4A10.73,10.73,0,0,1,205.73,67.1Z" fill="#fff"/></g></svg>