<?xml version="1.0" encoding="iso-8859-1"?>
<!-- Generator: Adobe Illustrator 19.1.0, SVG Export Plug-In . SVG Version: 6.00 Build 0)  -->
<svg version="1.1" xmlns="http://www.w3.org/2000/svg" xmlns:xlink="http://www.w3.org/1999/xlink" x="0px" y="0px"
	 viewBox="0 0 275.1 265.9" style="enable-background:new 0 0 275.1 265.9;" xml:space="preserve">
<style type="text/css">
	.st0{display:none;}
	.st1{display:inline;fill:#5D5E5E;}
	.st2{fill:#ABADB0;}
	.st3{fill:#001F5B;}
	.st4{fill:#8C8E90;}
	.st5{fill:none;stroke:#ABADB0;stroke-width:1.5;stroke-miterlimit:10;}
	.st6{fill:#FFFFFF;}
	.st7{fill:#FFFFFF;stroke:#FFFFFF;stroke-width:1.5;stroke-miterlimit:10;}
	.st8{fill:#A7A9AC;}
	.st9{fill:#939598;}
	.st10{fill:#ABADB0;stroke:#A7A9AC;stroke-miterlimit:10;}
	.st11{stroke:#FFFFFF;stroke-width:2.0592;stroke-miterlimit:10;}
	.st12{fill:none;stroke:#FFFFFF;stroke-width:1.5;stroke-miterlimit:10;}
	.st13{opacity:0.5;}
</style>
<a xmlns="http://www.w3.org/2000/svg" xmlns:xlink="http://www.w3.org/1999/xlink" xlink:href="http://morganwhite.com" target="_top">
<g id="logo-corporate">
	<g>
		<path class="st2" d="M104.1,16.6c0.5-0.8,1.2-1.4,1.8-2.1c0.5-0.6,1-1.3,1.6-1.9l-0.1,0.1c0.4-0.7,0.9-1.3,1.3-2
			c0.5-0.6,1-1.3,1.4-1.9c1-1.3,2.1-2.5,3.3-3.7c1.3-1.1,2.9-1.7,4.5-2.1c1.7-0.3,3.3-0.4,4.9,0.2c-0.8,0.6-1.7,1.2-2.6,1.9
			c-1,0.7-1.8,1.5-2.6,2.2l0.1-0.1c0,0,0,0,0,0c-1.8,2-3.5,4.4-5.4,6.2c-0.6,0.6-1.2,1-1.9,1.4c-0.6,0.4-1.3,0.8-2,1.1
			C107.3,16.5,105.8,16.7,104.1,16.6z"/>
		<path class="st2" d="M115.4,11.8c0.6-0.7,1.4-1.3,2.1-1.8c0.6-0.5,1.3-1.1,2-1.5l-0.1,0.1c1.1-1.1,2.2-2.4,3.4-3.4
			c1.2-1,2.5-2.1,4-2.9c0.7-0.4,1.5-0.8,2.3-1c0.8-0.2,1.7-0.3,2.5-0.3c1.7,0,3.4,0.4,4.8,1.1c-0.9,0.6-1.9,1-2.9,1.4
			c-1.1,0.5-2,1.1-3,1.7l0.1,0c0,0,0,0,0,0c-2.1,1.8-4.2,3.9-6.4,5.2c-1.4,0.8-2.7,1.6-4.2,1.8C118.6,12.3,117,12,115.4,11.8z"/>
		<path class="st2" d="M127.3,9c0.7-0.6,1.6-1,2.4-1.5c0.7-0.4,1.4-0.8,2.2-1.1l-0.1,0c2.6-1.7,5.2-4,8.4-5c1.6-0.5,3.3-0.7,5-0.5
			c1.6,0.3,3.2,1,4.6,2c-1,0.4-2.1,0.6-3.1,0.9c-1.1,0.2-2.2,0.7-3.2,1.2l0.1,0c0,0,0,0,0,0c-2.4,1.5-4.8,2.9-7.2,4
			C133.3,10.5,130.4,10.2,127.3,9z"/>
		<path class="st2" d="M139.6,8.4c0.8-0.4,1.7-0.7,2.6-1c0.8-0.2,1.6-0.7,2.4-0.8l-0.1,0c2.9-1.2,5.8-2.8,9.1-3.4
			c3.3-0.4,6.9,0.6,9.1,3.2c-1.1,0.2-2.1,0.2-3.1,0.2c-1.2,0.1-2.3,0.4-3.4,0.7l0.1,0c0,0,0,0,0,0c-2.6,1-5.2,1.9-7.8,2.7
			c-1.6,0.4-3.1,0.4-4.5,0.1C142.4,9.9,141,9.3,139.6,8.4z"/>
		<path class="st2" d="M151.8,9.8c0.9-0.2,1.8-0.3,2.7-0.4c0.8-0.1,1.6-0.4,2.5-0.4h-0.1c0.8-0.2,1.5-0.4,2.3-0.7
			c0.8-0.2,1.6-0.4,2.3-0.5c1.6-0.3,3.2-0.6,4.9-0.6c1.7,0,3.3,0.6,4.8,1.3c1.5,0.8,2.8,1.9,3.6,3.4c-0.5,0-1-0.1-1.6-0.1
			c-0.5,0-1.1-0.1-1.6-0.1c-1.2-0.1-2.3,0-3.5,0l0.1,0c0,0,0,0,0,0c-1.4,0.3-2.7,0.4-4.1,0.7c-1.4,0.3-2.7,0.5-4.1,0.6
			c-0.8,0-1.6,0-2.3-0.1c-0.7-0.1-1.5-0.2-2.2-0.5C154.3,11.8,153,11,151.8,9.8z"/>
		<path class="st6" d="M0,174.9h7.9l5.5,16.2h0.1l5.5-16.2h7.9v24.8h-5.2v-19h-0.1l-6.2,19h-4l-6-19H5.2v19H0V174.9z"/>
		<path class="st6" d="M30.4,187.3c0-2,0.3-3.8,1-5.4c0.6-1.6,1.5-3,2.7-4.1c1.1-1.1,2.5-2,4.1-2.6c1.6-0.6,3.3-0.9,5.1-0.9
			c1.9,0,3.6,0.3,5.1,0.9s2.9,1.5,4.1,2.6c1.1,1.1,2,2.5,2.7,4.1c0.6,1.6,1,3.4,1,5.4c0,2-0.3,3.8-1,5.4c-0.6,1.6-1.5,3-2.7,4.1
			c-1.1,1.1-2.5,2-4.1,2.6s-3.3,0.9-5.1,0.9c-1.9,0-3.6-0.3-5.1-0.9c-1.6-0.6-2.9-1.5-4.1-2.6c-1.1-1.1-2-2.5-2.7-4.1
			C30.8,191,30.4,189.2,30.4,187.3z M35.9,187.3c0,1.2,0.2,2.2,0.5,3.2c0.3,1,0.8,1.8,1.5,2.5c0.6,0.7,1.4,1.3,2.3,1.7
			s1.9,0.6,3,0.6s2.1-0.2,3-0.6s1.7-1,2.3-1.7c0.6-0.7,1.1-1.6,1.5-2.5c0.3-1,0.5-2,0.5-3.2c0-1.1-0.2-2.2-0.5-3.2
			c-0.3-1-0.8-1.8-1.5-2.5c-0.6-0.7-1.4-1.3-2.3-1.7c-0.9-0.4-1.9-0.6-3-0.6s-2.1,0.2-3,0.6c-0.9,0.4-1.7,1-2.3,1.7
			c-0.6,0.7-1.1,1.6-1.5,2.5C36.1,185.1,35.9,186.1,35.9,187.3z"/>
		<path class="st6" d="M59.7,174.9h9.2c1.2,0,2.4,0.1,3.4,0.4c1.1,0.2,2,0.7,2.9,1.2c0.8,0.6,1.5,1.3,1.9,2.3c0.5,1,0.7,2.2,0.7,3.6
			c0,1.8-0.4,3.2-1.3,4.5c-0.9,1.2-2.2,2-3.8,2.3l6,10.5h-6.3l-5-9.9h-2.6v9.9h-5.2V174.9z M64.9,185.1H68c0.5,0,1,0,1.5-0.1
			c0.5,0,1-0.1,1.4-0.3c0.4-0.2,0.8-0.4,1.1-0.8c0.3-0.4,0.4-0.9,0.4-1.6c0-0.6-0.1-1.1-0.4-1.5c-0.2-0.4-0.6-0.7-0.9-0.9
			c-0.4-0.2-0.8-0.3-1.3-0.4c-0.5-0.1-1-0.1-1.4-0.1h-3.4V185.1z"/>
		<path class="st6" d="M103,197.9c-1.5,0.8-3.2,1.4-4.8,1.8c-1.7,0.4-3.4,0.6-5.1,0.6c-1.9,0-3.6-0.3-5.1-0.9
			c-1.6-0.6-2.9-1.5-4.1-2.6c-1.1-1.1-2-2.5-2.7-4.1c-0.6-1.6-1-3.4-1-5.4c0-2,0.3-3.8,1-5.4c0.6-1.6,1.5-3,2.7-4.1
			c1.1-1.1,2.5-2,4.1-2.6c1.6-0.6,3.3-0.9,5.1-0.9c1.9,0,3.7,0.2,5.3,0.7s3,1.3,4.2,2.5l-3.7,4.2c-0.7-0.8-1.5-1.4-2.4-1.8
			c-0.9-0.4-2-0.6-3.4-0.6c-1.1,0-2.1,0.2-3,0.6c-0.9,0.4-1.7,1-2.3,1.7c-0.6,0.7-1.1,1.6-1.5,2.5c-0.3,1-0.5,2-0.5,3.2
			c0,1.2,0.2,2.2,0.5,3.2c0.3,1,0.8,1.8,1.5,2.5c0.6,0.7,1.4,1.3,2.3,1.7s1.9,0.6,3,0.6c1.1,0,2.1-0.1,3-0.4c0.8-0.3,1.5-0.5,2-0.8
			v-4h-4.3v-5h9.3V197.9z"/>
		<path class="st6" d="M115.4,174.9h4.3l10.3,24.8h-5.9l-2-5.2h-9.2l-2,5.2h-5.8L115.4,174.9z M117.4,182.1l-2.9,7.7h5.8
			L117.4,182.1z"/>
		<path class="st6" d="M132.5,174.9h7.1l10.1,17.2h0.1v-17.2h5.2v24.8h-6.9L137.8,182h-0.1v17.6h-5.2V174.9z"/>
		<path class="st6" d="M167.3,174.9h5.7l3.8,15.9h0.1l5-15.9h4.9l4.9,16.3h0.1l4-16.3h5.3l-7,24.8h-4.7l-5.2-17.2h-0.1l-5.2,17.2
			h-4.5L167.3,174.9z"/>
		<path class="st6" d="M203.4,174.9h5.2v9.2h10.2v-9.2h5.2v24.8h-5.2v-10.7h-10.2v10.7h-5.2V174.9z"/>
		<path class="st6" d="M228.8,174.9h5.2v24.8h-5.2V174.9z"/>
		<path class="st6" d="M243.5,179.7h-6.8v-4.8h18.8v4.8h-6.8v20h-5.2V179.7z"/>
		<path class="st6" d="M258.3,174.9h16.2v5h-10.9v4.6h10.3v5h-10.3v5h11.5v5h-16.8V174.9z"/>
		<path class="st6" d="M100.5,215.6c-0.6-0.7-1.4-1.2-2.2-1.6c-0.9-0.4-1.9-0.6-3-0.6c-1.2,0-2.2,0.2-3.2,0.7
			c-0.9,0.4-1.7,1-2.4,1.7c-0.6,0.7-1.1,1.6-1.5,2.5s-0.5,2-0.5,3s0.2,2.1,0.5,3c0.3,1,0.8,1.8,1.5,2.5c0.6,0.7,1.4,1.3,2.4,1.7
			c0.9,0.4,2,0.7,3.2,0.7c1,0,1.9-0.1,2.7-0.4c0.9-0.2,1.7-0.5,2.4-0.9v-6.2h-4.4v-1.7h6.3v9c-1,0.6-2.2,1.1-3.4,1.4
			c-1.2,0.3-2.4,0.5-3.5,0.5c-1.4,0-2.6-0.2-3.8-0.7c-1.2-0.5-2.2-1.2-3-2c-0.9-0.9-1.5-1.9-2-3.1c-0.5-1.2-0.7-2.5-0.7-3.9
			s0.2-2.7,0.7-3.9c0.5-1.2,1.2-2.2,2-3.1c0.9-0.9,1.9-1.5,3-2c1.2-0.5,2.4-0.7,3.8-0.7c1.5,0,2.7,0.2,3.8,0.6c1.1,0.4,2,1,2.8,1.9
			L100.5,215.6z"/>
		<path class="st6" d="M112.9,230.7H111v-18.4h5.7c1.9,0,3.3,0.4,4.4,1.2c1.1,0.8,1.6,2,1.6,3.7c0,1.3-0.4,2.4-1.2,3.2
			c-0.8,0.9-2,1.4-3.5,1.5l5.3,8.7h-2.3l-5-8.6h-3.1V230.7z M112.9,220.4h3.3c0.8,0,1.5-0.1,2.1-0.3c0.6-0.2,1-0.4,1.4-0.7
			c0.3-0.3,0.6-0.6,0.8-1c0.2-0.4,0.2-0.8,0.2-1.3c0-0.4-0.1-0.8-0.2-1.2c-0.2-0.4-0.4-0.7-0.8-1c-0.3-0.3-0.8-0.5-1.4-0.7
			c-0.6-0.2-1.3-0.2-2.1-0.2h-3.3V220.4z"/>
		<path class="st6" d="M148.3,221.4c0,1.4-0.2,2.7-0.7,3.9s-1.2,2.2-2,3.1c-0.9,0.9-1.9,1.5-3,2c-1.2,0.5-2.4,0.7-3.8,0.7
			s-2.6-0.2-3.8-0.7c-1.2-0.5-2.2-1.2-3-2c-0.9-0.9-1.5-1.9-2-3.1c-0.5-1.2-0.7-2.5-0.7-3.9s0.2-2.7,0.7-3.9c0.5-1.2,1.2-2.2,2-3.1
			c0.9-0.9,1.9-1.5,3-2c1.2-0.5,2.4-0.7,3.8-0.7s2.6,0.2,3.8,0.7s2.2,1.2,3,2c0.9,0.9,1.5,1.9,2,3.1S148.3,220,148.3,221.4z
			 M146.2,221.4c0-1.1-0.2-2.1-0.5-3c-0.3-1-0.8-1.8-1.5-2.5c-0.6-0.7-1.4-1.3-2.4-1.7c-0.9-0.4-2-0.7-3.2-0.7s-2.2,0.2-3.2,0.7
			c-0.9,0.4-1.7,1-2.4,1.7c-0.6,0.7-1.1,1.6-1.5,2.5s-0.5,2-0.5,3s0.2,2.1,0.5,3c0.3,1,0.8,1.8,1.5,2.5c0.6,0.7,1.4,1.3,2.4,1.7
			c0.9,0.4,2,0.7,3.2,0.7s2.2-0.2,3.2-0.7c0.9-0.4,1.7-1,2.4-1.7c0.6-0.7,1.1-1.6,1.5-2.5C146.1,223.5,146.2,222.5,146.2,221.4z"/>
		<path class="st6" d="M169.1,223.8c0,0.8-0.1,1.6-0.3,2.4c-0.2,0.9-0.5,1.7-1,2.4c-0.5,0.7-1.2,1.3-2.1,1.8s-2,0.7-3.4,0.7
			c-1.4,0-2.5-0.2-3.4-0.7c-0.9-0.5-1.6-1.1-2.1-1.8c-0.5-0.7-0.8-1.5-1-2.4c-0.2-0.9-0.3-1.7-0.3-2.4v-11.5h1.9v11.3
			c0,0.9,0.1,1.6,0.3,2.3c0.2,0.6,0.4,1.2,0.7,1.6c0.3,0.4,0.6,0.8,1,1s0.7,0.4,1.1,0.6s0.7,0.2,1,0.3c0.3,0,0.6,0.1,0.9,0.1
			c0.2,0,0.5,0,0.8-0.1c0.3,0,0.7-0.1,1-0.3c0.4-0.1,0.7-0.3,1.1-0.6s0.7-0.6,1-1c0.3-0.4,0.5-1,0.7-1.6c0.2-0.6,0.3-1.4,0.3-2.3
			v-11.3h1.9V223.8z"/>
		<path class="st6" d="M177.7,212.2h5.4c1.9,0,3.3,0.4,4.4,1.2c1.1,0.8,1.6,2,1.6,3.7s-0.5,2.9-1.6,3.7s-2.6,1.2-4.4,1.2h-3.5v8.6
			h-1.9V212.2z M179.5,220.4h3c0.8,0,1.5-0.1,2.1-0.3c0.6-0.2,1-0.4,1.4-0.7c0.3-0.3,0.6-0.6,0.8-1c0.2-0.4,0.2-0.8,0.2-1.3
			c0-0.4-0.1-0.8-0.2-1.2c-0.2-0.4-0.4-0.7-0.8-1c-0.3-0.3-0.8-0.5-1.4-0.7c-0.6-0.2-1.3-0.2-2.1-0.2h-3V220.4z"/>
		<path class="st2" d="M26,264.8h-0.9l1.6-9.2h0.9L26,264.8z"/>
		<path class="st2" d="M30.2,258.7c0,0.2,0,0.3-0.1,0.5c0,0.2-0.1,0.4-0.1,0.5h0c0.2-0.4,0.5-0.7,0.9-0.9c0.4-0.2,0.8-0.3,1.2-0.3
			c0.7,0,1.2,0.2,1.5,0.5c0.4,0.3,0.6,0.8,0.6,1.4c0,0.1,0,0.2,0,0.3c0,0.1,0,0.2,0,0.3l-0.7,3.7h-0.9l0.6-3.4
			c0.1-0.3,0.1-0.5,0.1-0.8c0-0.4-0.1-0.8-0.3-1s-0.6-0.4-1.1-0.4c-0.2,0-0.5,0-0.7,0.1c-0.2,0.1-0.5,0.2-0.7,0.4
			c-0.2,0.2-0.4,0.4-0.5,0.7c-0.2,0.3-0.3,0.7-0.3,1.1l-0.5,3.1h-0.9l0.8-4.7c0-0.2,0.1-0.4,0.1-0.6s0.1-0.5,0.1-0.7H30.2z"/>
		<path class="st2" d="M40,260c-0.1-0.2-0.3-0.4-0.5-0.6c-0.2-0.1-0.5-0.2-0.9-0.2c-0.2,0-0.3,0-0.5,0.1c-0.2,0-0.3,0.1-0.5,0.2
			s-0.3,0.2-0.4,0.3c-0.1,0.1-0.1,0.3-0.1,0.5c0,0.2,0,0.3,0.1,0.4c0.1,0.1,0.1,0.2,0.2,0.3c0.1,0.1,0.2,0.1,0.4,0.2
			s0.3,0.1,0.5,0.2c0.6,0.2,1.1,0.4,1.4,0.7c0.3,0.3,0.5,0.6,0.5,1.1c0,0.3-0.1,0.6-0.2,0.9s-0.3,0.4-0.6,0.6s-0.5,0.3-0.8,0.3
			c-0.3,0.1-0.6,0.1-0.8,0.1c-0.5,0-1-0.1-1.4-0.3c-0.4-0.2-0.8-0.5-1-0.9l0.8-0.5c0.1,0.3,0.4,0.5,0.7,0.6c0.3,0.2,0.6,0.3,1,0.3
			c0.2,0,0.4,0,0.6-0.1c0.2,0,0.3-0.1,0.5-0.2c0.1-0.1,0.3-0.2,0.3-0.3c0.1-0.1,0.1-0.3,0.1-0.5c0-0.3-0.1-0.6-0.4-0.7
			c-0.3-0.2-0.6-0.3-1.1-0.5c-0.2-0.1-0.4-0.1-0.5-0.2c-0.2-0.1-0.3-0.2-0.5-0.3c-0.1-0.1-0.3-0.3-0.4-0.5c-0.1-0.2-0.1-0.4-0.1-0.6
			c0-0.3,0.1-0.6,0.2-0.8s0.3-0.4,0.5-0.6c0.2-0.1,0.5-0.2,0.7-0.3s0.6-0.1,0.8-0.1c0.5,0,0.9,0.1,1.3,0.3c0.4,0.2,0.6,0.4,0.8,0.7
			L40,260z"/>
		<path class="st2" d="M45.9,264.8c0-0.2,0-0.3,0.1-0.5c0-0.2,0.1-0.4,0.1-0.5h0c-0.2,0.4-0.5,0.7-0.9,0.9c-0.4,0.2-0.8,0.3-1.2,0.3
			c-0.7,0-1.2-0.2-1.5-0.5c-0.4-0.3-0.6-0.8-0.6-1.4c0-0.1,0-0.2,0-0.3c0-0.1,0-0.2,0-0.3l0.7-3.7h0.9l-0.6,3.4
			c-0.1,0.3-0.1,0.5-0.1,0.8c0,0.4,0.1,0.8,0.3,1c0.2,0.2,0.5,0.4,1,0.4c0.2,0,0.5,0,0.7-0.1c0.2-0.1,0.5-0.2,0.7-0.4
			s0.4-0.4,0.5-0.7c0.2-0.3,0.3-0.7,0.3-1.1l0.5-3.1h0.9l-0.8,4.7c0,0.2-0.1,0.4-0.1,0.6c0,0.3-0.1,0.5-0.1,0.7H45.9z"/>
		<path class="st2" d="M50.1,259.4c0-0.3,0.1-0.5,0.1-0.7H51c0,0.2,0,0.3-0.1,0.5c0,0.2-0.1,0.4-0.1,0.5h0c0.2-0.4,0.5-0.6,0.9-0.9
			s0.7-0.3,1.2-0.3c0.1,0,0.2,0,0.3,0c0.1,0,0.2,0,0.3,0.1l-0.2,0.8c0,0-0.1,0-0.2-0.1c-0.1,0-0.2,0-0.4,0c-0.2,0-0.5,0-0.7,0.1
			c-0.2,0.1-0.4,0.2-0.6,0.4c-0.2,0.2-0.4,0.4-0.5,0.7s-0.2,0.6-0.3,1l-0.5,3.1h-0.9L50,260C50,259.9,50.1,259.7,50.1,259.4z"/>
		<path class="st2" d="M58,261c0-0.1,0-0.3,0.1-0.3c0-0.1,0-0.2,0-0.2c0-0.4-0.1-0.8-0.4-0.9c-0.3-0.2-0.6-0.3-1.1-0.3
			c-0.4,0-0.7,0.1-1.1,0.2c-0.3,0.1-0.6,0.3-0.8,0.5l-0.4-0.6c0.3-0.3,0.7-0.5,1.1-0.6c0.4-0.2,0.9-0.2,1.3-0.2c0.3,0,0.6,0,0.8,0.1
			c0.3,0.1,0.5,0.2,0.7,0.3c0.2,0.1,0.4,0.3,0.5,0.5s0.2,0.5,0.2,0.8c0,0.1,0,0.2,0,0.3c0,0.1,0,0.2,0,0.3l-0.4,2.5
			c0,0.2-0.1,0.5-0.1,0.7c0,0.3,0,0.5,0,0.6h-0.8c0-0.1,0-0.3,0-0.5c0-0.2,0-0.3,0.1-0.5h0c-0.2,0.2-0.3,0.4-0.5,0.5
			c-0.2,0.1-0.4,0.3-0.5,0.3c-0.2,0.1-0.4,0.1-0.6,0.2s-0.4,0.1-0.7,0.1c-0.2,0-0.4,0-0.6-0.1c-0.2-0.1-0.4-0.1-0.6-0.3
			c-0.2-0.1-0.3-0.3-0.4-0.5c-0.1-0.2-0.2-0.4-0.2-0.7c0-0.5,0.1-0.9,0.4-1.2c0.3-0.3,0.6-0.5,1.1-0.7s0.9-0.3,1.5-0.3
			C56.9,261.1,57.5,261,58,261z M57.7,261.7c-0.4,0-0.8,0-1.2,0.1c-0.4,0-0.8,0.1-1.1,0.2c-0.3,0.1-0.6,0.3-0.8,0.5
			c-0.2,0.2-0.3,0.5-0.3,0.8c0,0.2,0,0.3,0.1,0.5c0.1,0.1,0.2,0.2,0.3,0.3c0.1,0.1,0.3,0.1,0.4,0.2c0.2,0,0.3,0,0.5,0
			c0.3,0,0.6-0.1,0.9-0.2c0.3-0.1,0.5-0.2,0.7-0.4c0.2-0.2,0.4-0.4,0.5-0.6s0.2-0.5,0.3-0.8l0.1-0.5H57.7z"/>
		<path class="st2" d="M62.3,258.7c0,0.2,0,0.3-0.1,0.5c0,0.2-0.1,0.4-0.1,0.5h0c0.2-0.4,0.5-0.7,0.9-0.9c0.4-0.2,0.8-0.3,1.2-0.3
			c0.7,0,1.2,0.2,1.5,0.5c0.4,0.3,0.6,0.8,0.6,1.4c0,0.1,0,0.2,0,0.3c0,0.1,0,0.2,0,0.3l-0.7,3.7h-0.9l0.6-3.4
			c0.1-0.3,0.1-0.5,0.1-0.8c0-0.4-0.1-0.8-0.3-1s-0.6-0.4-1.1-0.4c-0.2,0-0.5,0-0.7,0.1c-0.2,0.1-0.5,0.2-0.7,0.4
			c-0.2,0.2-0.4,0.4-0.5,0.7c-0.2,0.3-0.3,0.7-0.3,1.1l-0.5,3.1h-0.9l0.8-4.7c0-0.2,0.1-0.4,0.1-0.6s0.1-0.5,0.1-0.7H62.3z"/>
		<path class="st2" d="M73,260.1c-0.1-0.2-0.3-0.4-0.5-0.6c-0.3-0.2-0.5-0.2-0.9-0.2c-0.4,0-0.7,0.1-1.1,0.2
			c-0.3,0.2-0.6,0.4-0.9,0.6c-0.2,0.3-0.4,0.6-0.6,1c-0.1,0.4-0.2,0.7-0.2,1.2c0,0.3,0,0.5,0.1,0.8c0.1,0.2,0.2,0.4,0.4,0.6
			s0.4,0.3,0.6,0.4c0.2,0.1,0.5,0.2,0.8,0.2c0.4,0,0.7-0.1,1-0.2c0.3-0.1,0.6-0.3,0.8-0.6l0.6,0.5c-0.3,0.3-0.7,0.6-1.1,0.8
			c-0.4,0.2-0.8,0.3-1.4,0.3c-0.4,0-0.8-0.1-1.2-0.2s-0.6-0.3-0.9-0.5c-0.2-0.2-0.4-0.5-0.6-0.8s-0.2-0.7-0.2-1.1
			c0-0.5,0.1-1,0.3-1.5c0.2-0.5,0.4-0.9,0.7-1.2c0.3-0.3,0.7-0.6,1.2-0.8s0.9-0.3,1.5-0.3c0.5,0,0.9,0.1,1.3,0.2
			c0.4,0.2,0.7,0.4,0.9,0.8L73,260.1z"/>
		<path class="st2" d="M75.3,262c0,0.1,0,0.1,0,0.2s0,0.1,0,0.1c0,0.3,0,0.5,0.1,0.8s0.2,0.4,0.4,0.6c0.2,0.2,0.4,0.3,0.6,0.4
			c0.2,0.1,0.5,0.1,0.8,0.1c0.5,0,0.9-0.1,1.2-0.3c0.4-0.2,0.6-0.5,0.9-0.7l0.5,0.5c-0.4,0.4-0.8,0.7-1.2,1c-0.5,0.2-1,0.3-1.5,0.3
			c-0.4,0-0.8-0.1-1.1-0.2c-0.3-0.1-0.6-0.3-0.9-0.5c-0.2-0.2-0.4-0.5-0.6-0.8c-0.1-0.3-0.2-0.7-0.2-1.1c0-0.5,0.1-1,0.3-1.4
			c0.2-0.5,0.4-0.8,0.7-1.2s0.7-0.6,1.1-0.8c0.4-0.2,0.9-0.3,1.4-0.3c0.8,0,1.5,0.2,1.9,0.7c0.4,0.4,0.6,1,0.6,1.7
			c0,0.1,0,0.3,0,0.5c0,0.2,0,0.4-0.1,0.6H75.3z M79.6,261.3c0-0.1,0-0.1,0-0.2c0-0.1,0-0.2,0-0.2c0-0.5-0.1-0.9-0.4-1.2
			c-0.3-0.3-0.7-0.4-1.3-0.4c-0.3,0-0.6,0.1-0.9,0.2s-0.5,0.3-0.7,0.4s-0.4,0.4-0.5,0.7s-0.3,0.5-0.3,0.8H79.6z"/>
		<path class="st2" d="M89.6,261c0-0.1,0-0.3,0.1-0.3c0-0.1,0-0.2,0-0.2c0-0.4-0.1-0.8-0.4-0.9c-0.3-0.2-0.6-0.3-1.1-0.3
			c-0.4,0-0.7,0.1-1.1,0.2c-0.3,0.1-0.6,0.3-0.8,0.5l-0.4-0.6c0.3-0.3,0.7-0.5,1.1-0.6c0.4-0.2,0.9-0.2,1.3-0.2c0.3,0,0.6,0,0.8,0.1
			c0.3,0.1,0.5,0.2,0.7,0.3c0.2,0.1,0.4,0.3,0.5,0.5s0.2,0.5,0.2,0.8c0,0.1,0,0.2,0,0.3c0,0.1,0,0.2,0,0.3l-0.4,2.5
			c0,0.2-0.1,0.5-0.1,0.7c0,0.3,0,0.5,0,0.6H89c0-0.1,0-0.3,0-0.5c0-0.2,0-0.3,0.1-0.5h0c-0.2,0.2-0.3,0.4-0.5,0.5
			c-0.2,0.1-0.4,0.3-0.5,0.3c-0.2,0.1-0.4,0.1-0.6,0.2s-0.4,0.1-0.7,0.1c-0.2,0-0.4,0-0.6-0.1c-0.2-0.1-0.4-0.1-0.6-0.3
			c-0.2-0.1-0.3-0.3-0.4-0.5c-0.1-0.2-0.2-0.4-0.2-0.7c0-0.5,0.1-0.9,0.4-1.2c0.3-0.3,0.6-0.5,1.1-0.7s0.9-0.3,1.5-0.3
			C88.5,261.1,89,261,89.6,261z M89.3,261.7c-0.4,0-0.8,0-1.2,0.1c-0.4,0-0.8,0.1-1.1,0.2c-0.3,0.1-0.6,0.3-0.8,0.5
			c-0.2,0.2-0.3,0.5-0.3,0.8c0,0.2,0,0.3,0.1,0.5c0.1,0.1,0.2,0.2,0.3,0.3c0.1,0.1,0.3,0.1,0.4,0.2c0.2,0,0.3,0,0.5,0
			c0.3,0,0.6-0.1,0.9-0.2c0.3-0.1,0.5-0.2,0.7-0.4c0.2-0.2,0.4-0.4,0.5-0.6s0.2-0.5,0.3-0.8l0.1-0.5H89.3z"/>
		<path class="st2" d="M93.9,258.7c0,0.2,0,0.3-0.1,0.5c0,0.2-0.1,0.4-0.1,0.5h0c0.2-0.4,0.5-0.7,0.9-0.9c0.4-0.2,0.8-0.3,1.2-0.3
			c0.7,0,1.2,0.2,1.5,0.5c0.4,0.3,0.6,0.8,0.6,1.4c0,0.1,0,0.2,0,0.3c0,0.1,0,0.2,0,0.3l-0.7,3.7h-0.9l0.6-3.4
			c0.1-0.3,0.1-0.5,0.1-0.8c0-0.4-0.1-0.8-0.3-1s-0.6-0.4-1.1-0.4c-0.2,0-0.5,0-0.7,0.1c-0.2,0.1-0.5,0.2-0.7,0.4
			c-0.2,0.2-0.4,0.4-0.5,0.7c-0.2,0.3-0.3,0.7-0.3,1.1l-0.5,3.1H92l0.8-4.7c0-0.2,0.1-0.4,0.1-0.6s0.1-0.5,0.1-0.7H93.9z"/>
		<path class="st2" d="M99.5,262.3c0-0.5,0.1-1,0.3-1.5c0.2-0.5,0.4-0.9,0.7-1.2c0.3-0.3,0.7-0.6,1.1-0.8c0.4-0.2,0.9-0.3,1.4-0.3
			c0.4,0,0.9,0.1,1.2,0.3s0.7,0.5,0.9,0.9h0l0.8-4.8h0.9l-1.7,9.8h-0.9l0.2-1h0c-0.2,0.3-0.5,0.6-0.9,0.8s-0.8,0.3-1.3,0.3
			c-0.4,0-0.8-0.1-1.1-0.2c-0.3-0.1-0.6-0.3-0.9-0.5c-0.2-0.2-0.4-0.5-0.6-0.8C99.6,263.1,99.5,262.7,99.5,262.3z M100.4,262.3
			c0,0.3,0,0.5,0.1,0.8c0.1,0.2,0.2,0.4,0.4,0.6c0.2,0.2,0.4,0.3,0.6,0.4c0.2,0.1,0.5,0.2,0.8,0.2c0.4,0,0.7-0.1,1.1-0.2
			c0.3-0.2,0.6-0.4,0.9-0.6c0.2-0.3,0.4-0.6,0.6-0.9s0.2-0.7,0.2-1.1c0-0.3,0-0.5-0.1-0.8c-0.1-0.2-0.2-0.4-0.4-0.6
			c-0.2-0.2-0.4-0.3-0.6-0.4s-0.5-0.1-0.8-0.1c-0.4,0-0.8,0.1-1.1,0.2s-0.6,0.4-0.8,0.6c-0.2,0.3-0.4,0.6-0.5,0.9
			C100.5,261.4,100.4,261.8,100.4,262.3z"/>
		<path class="st2" d="M110.6,264.8h-1.1l5.9-9.2h0.9l1.9,9.2h-1l-0.5-2.4h-4.7L110.6,264.8z M112.6,261.5h4l-1-4.9L112.6,261.5z"/>
		<path class="st2" d="M119.6,262.3c0-0.5,0.1-1,0.3-1.5c0.2-0.5,0.4-0.9,0.7-1.2c0.3-0.3,0.7-0.6,1.1-0.8c0.4-0.2,0.9-0.3,1.4-0.3
			c0.4,0,0.9,0.1,1.2,0.3s0.7,0.5,0.9,0.9h0l0.8-4.8h0.9l-1.7,9.8h-0.9l0.2-1h0c-0.2,0.3-0.5,0.6-0.9,0.8s-0.8,0.3-1.3,0.3
			c-0.4,0-0.8-0.1-1.1-0.2c-0.3-0.1-0.6-0.3-0.9-0.5c-0.2-0.2-0.4-0.5-0.6-0.8C119.7,263.1,119.6,262.7,119.6,262.3z M120.5,262.3
			c0,0.3,0,0.5,0.1,0.8c0.1,0.2,0.2,0.4,0.4,0.6c0.2,0.2,0.4,0.3,0.6,0.4c0.2,0.1,0.5,0.2,0.8,0.2c0.4,0,0.7-0.1,1.1-0.2
			c0.3-0.2,0.6-0.4,0.9-0.6c0.2-0.3,0.4-0.6,0.6-0.9s0.2-0.7,0.2-1.1c0-0.3,0-0.5-0.1-0.8c-0.1-0.2-0.2-0.4-0.4-0.6
			c-0.2-0.2-0.4-0.3-0.6-0.4s-0.5-0.1-0.8-0.1c-0.4,0-0.8,0.1-1.1,0.2s-0.6,0.4-0.8,0.6c-0.2,0.3-0.4,0.6-0.5,0.9
			C120.6,261.4,120.5,261.8,120.5,262.3z"/>
		<path class="st2" d="M135.4,258.5c0.7,0,1.2,0.2,1.5,0.5c0.4,0.3,0.6,0.8,0.6,1.4c0,0.1,0,0.2,0,0.3c0,0.1,0,0.2,0,0.3l-0.7,3.7
			h-0.9l0.6-3.4c0.1-0.3,0.1-0.5,0.1-0.8c0-0.4-0.1-0.8-0.3-1c-0.2-0.2-0.6-0.4-1.1-0.4c-0.3,0-0.6,0.1-0.8,0.2
			c-0.2,0.1-0.4,0.3-0.6,0.5c-0.2,0.2-0.3,0.5-0.4,0.7c-0.1,0.3-0.2,0.5-0.2,0.8l-0.6,3.2h-0.9l0.6-3.5c0.1-0.3,0.1-0.5,0.1-0.8
			c0-0.4-0.1-0.7-0.3-0.9c-0.2-0.2-0.5-0.3-0.9-0.3c-0.2,0-0.4,0-0.6,0.1c-0.2,0.1-0.4,0.2-0.6,0.4s-0.4,0.4-0.5,0.7
			c-0.2,0.3-0.3,0.7-0.3,1.1l-0.5,3.1h-0.9l0.8-4.7c0-0.2,0.1-0.4,0.1-0.6s0.1-0.5,0.1-0.7h0.8c0,0.2,0,0.3-0.1,0.5
			c0,0.2-0.1,0.4-0.1,0.5h0c0.3-0.4,0.6-0.7,0.9-0.9c0.4-0.2,0.8-0.3,1.2-0.3c0.2,0,0.3,0,0.5,0.1c0.2,0,0.3,0.1,0.5,0.2
			s0.3,0.2,0.4,0.4c0.1,0.2,0.2,0.4,0.3,0.6c0.2-0.4,0.5-0.7,0.9-1C134.6,258.6,135,258.5,135.4,258.5z"/>
		<path class="st2" d="M140,264.8h-0.9l1.1-6.1h0.9L140,264.8z M141.6,256.3c0,0.2-0.1,0.3-0.2,0.4c-0.1,0.1-0.3,0.2-0.4,0.2
			c-0.2,0-0.3-0.1-0.4-0.2c-0.1-0.1-0.2-0.2-0.2-0.4c0-0.2,0.1-0.3,0.2-0.5c0.1-0.1,0.3-0.2,0.4-0.2c0.2,0,0.3,0.1,0.4,0.2
			C141.5,256,141.6,256.2,141.6,256.3z"/>
		<path class="st2" d="M144.2,258.7c0,0.2,0,0.3-0.1,0.5c0,0.2-0.1,0.4-0.1,0.5h0c0.2-0.4,0.5-0.7,0.9-0.9c0.4-0.2,0.8-0.3,1.2-0.3
			c0.7,0,1.2,0.2,1.5,0.5c0.4,0.3,0.6,0.8,0.6,1.4c0,0.1,0,0.2,0,0.3c0,0.1,0,0.2,0,0.3l-0.7,3.7h-0.9l0.6-3.4
			c0.1-0.3,0.1-0.5,0.1-0.8c0-0.4-0.1-0.8-0.3-1s-0.5-0.4-1.1-0.4c-0.2,0-0.5,0-0.7,0.1c-0.2,0.1-0.5,0.2-0.7,0.4
			c-0.2,0.2-0.4,0.4-0.5,0.7c-0.2,0.3-0.3,0.7-0.3,1.1l-0.5,3.1h-0.9l0.8-4.7c0-0.2,0.1-0.4,0.1-0.6s0.1-0.5,0.1-0.7H144.2z"/>
		<path class="st2" d="M150.7,264.8h-0.9l1.1-6.1h0.9L150.7,264.8z M152.3,256.3c0,0.2-0.1,0.3-0.2,0.4c-0.1,0.1-0.3,0.2-0.4,0.2
			c-0.2,0-0.3-0.1-0.4-0.2c-0.1-0.1-0.2-0.2-0.2-0.4c0-0.2,0.1-0.3,0.2-0.5c0.1-0.1,0.3-0.2,0.4-0.2s0.3,0.1,0.4,0.2
			C152.3,256,152.3,256.2,152.3,256.3z"/>
		<path class="st2" d="M157.2,260c-0.1-0.2-0.3-0.4-0.5-0.6c-0.2-0.1-0.5-0.2-0.9-0.2c-0.2,0-0.3,0-0.5,0.1c-0.2,0-0.3,0.1-0.5,0.2
			c-0.1,0.1-0.3,0.2-0.4,0.3c-0.1,0.1-0.1,0.3-0.1,0.5c0,0.2,0,0.3,0.1,0.4c0.1,0.1,0.1,0.2,0.2,0.3c0.1,0.1,0.2,0.1,0.4,0.2
			s0.3,0.1,0.5,0.2c0.6,0.2,1.1,0.4,1.4,0.7c0.3,0.3,0.5,0.6,0.5,1.1c0,0.3-0.1,0.6-0.2,0.9s-0.3,0.4-0.6,0.6s-0.5,0.3-0.8,0.3
			c-0.3,0.1-0.5,0.1-0.8,0.1c-0.5,0-1-0.1-1.4-0.3c-0.4-0.2-0.8-0.5-1-0.9l0.8-0.5c0.1,0.3,0.4,0.5,0.7,0.6s0.6,0.3,1,0.3
			c0.2,0,0.4,0,0.6-0.1s0.3-0.1,0.5-0.2c0.1-0.1,0.3-0.2,0.3-0.3s0.1-0.3,0.1-0.5c0-0.3-0.1-0.6-0.4-0.7c-0.3-0.2-0.6-0.3-1.1-0.5
			c-0.2-0.1-0.4-0.1-0.5-0.2c-0.2-0.1-0.3-0.2-0.5-0.3c-0.1-0.1-0.3-0.3-0.4-0.5c-0.1-0.2-0.1-0.4-0.1-0.6c0-0.3,0.1-0.6,0.2-0.8
			c0.1-0.2,0.3-0.4,0.5-0.6c0.2-0.1,0.5-0.2,0.7-0.3s0.6-0.1,0.8-0.1c0.5,0,0.9,0.1,1.3,0.3c0.4,0.2,0.6,0.4,0.8,0.7L157.2,260z"/>
		<path class="st2" d="M162.3,259.4h-1.7l-0.6,3.6c0,0.2,0,0.3,0,0.4c0,0.3,0.1,0.5,0.2,0.6s0.3,0.1,0.5,0.1c0.1,0,0.3,0,0.4-0.1
			s0.3-0.1,0.3-0.2l-0.1,0.8c-0.1,0.1-0.3,0.1-0.4,0.1c-0.2,0-0.4,0-0.6,0c-0.1,0-0.3,0-0.4-0.1c-0.2,0-0.3-0.1-0.4-0.2
			c-0.1-0.1-0.2-0.2-0.3-0.4c-0.1-0.2-0.1-0.4-0.1-0.6c0-0.1,0-0.3,0-0.4l0.7-3.8h-1.3l0.1-0.7h1.2l0.3-1.7h0.9l-0.3,1.7h1.7
			L162.3,259.4z"/>
		<path class="st2" d="M163.8,259.4c0-0.3,0.1-0.5,0.1-0.7h0.8c0,0.2,0,0.3-0.1,0.5c0,0.2-0.1,0.4-0.1,0.5h0
			c0.2-0.4,0.5-0.6,0.9-0.9s0.7-0.3,1.2-0.3c0.1,0,0.2,0,0.3,0s0.2,0,0.3,0.1l-0.2,0.8c0,0-0.1,0-0.2-0.1c-0.1,0-0.2,0-0.4,0
			c-0.2,0-0.5,0-0.7,0.1c-0.2,0.1-0.4,0.2-0.6,0.4c-0.2,0.2-0.4,0.4-0.5,0.7c-0.1,0.3-0.2,0.6-0.3,1l-0.5,3.1h-0.9l0.8-4.7
			C163.7,259.9,163.8,259.7,163.8,259.4z"/>
		<path class="st2" d="M171.7,261c0-0.1,0-0.3,0.1-0.3s0-0.2,0-0.2c0-0.4-0.1-0.8-0.4-0.9c-0.3-0.2-0.6-0.3-1.1-0.3
			c-0.4,0-0.7,0.1-1.1,0.2c-0.3,0.1-0.6,0.3-0.8,0.5l-0.4-0.6c0.3-0.3,0.7-0.5,1.1-0.6s0.9-0.2,1.3-0.2c0.3,0,0.6,0,0.8,0.1
			c0.3,0.1,0.5,0.2,0.7,0.3c0.2,0.1,0.4,0.3,0.5,0.5s0.2,0.5,0.2,0.8c0,0.1,0,0.2,0,0.3c0,0.1,0,0.2,0,0.3l-0.4,2.5
			c0,0.2-0.1,0.5-0.1,0.7c0,0.3,0,0.5,0,0.6h-0.8c0-0.1,0-0.3,0-0.5c0-0.2,0-0.3,0.1-0.5h0c-0.2,0.2-0.3,0.4-0.5,0.5
			c-0.2,0.1-0.4,0.3-0.5,0.3c-0.2,0.1-0.4,0.1-0.6,0.2c-0.2,0-0.4,0.1-0.7,0.1c-0.2,0-0.4,0-0.6-0.1c-0.2-0.1-0.4-0.1-0.6-0.3
			c-0.2-0.1-0.3-0.3-0.4-0.5s-0.2-0.4-0.2-0.7c0-0.5,0.1-0.9,0.4-1.2c0.3-0.3,0.6-0.5,1.1-0.7s0.9-0.3,1.5-0.3
			C170.6,261.1,171.2,261,171.7,261z M171.4,261.7c-0.4,0-0.8,0-1.2,0.1c-0.4,0-0.8,0.1-1.1,0.2s-0.6,0.3-0.8,0.5
			c-0.2,0.2-0.3,0.5-0.3,0.8c0,0.2,0,0.3,0.1,0.5c0.1,0.1,0.2,0.2,0.3,0.3s0.3,0.1,0.4,0.2c0.2,0,0.3,0,0.5,0c0.3,0,0.6-0.1,0.9-0.2
			c0.3-0.1,0.5-0.2,0.7-0.4c0.2-0.2,0.4-0.4,0.5-0.6s0.2-0.5,0.3-0.8l0.1-0.5H171.4z"/>
		<path class="st2" d="M177.5,259.4h-1.7l-0.6,3.6c0,0.2,0,0.3,0,0.4c0,0.3,0.1,0.5,0.2,0.6s0.3,0.1,0.5,0.1c0.1,0,0.3,0,0.4-0.1
			s0.3-0.1,0.3-0.2l-0.1,0.8c-0.1,0.1-0.3,0.1-0.4,0.1c-0.2,0-0.4,0-0.6,0c-0.1,0-0.3,0-0.4-0.1c-0.2,0-0.3-0.1-0.4-0.2
			c-0.1-0.1-0.2-0.2-0.3-0.4c-0.1-0.2-0.1-0.4-0.1-0.6c0-0.1,0-0.3,0-0.4l0.7-3.8h-1.3l0.1-0.7h1.2l0.3-1.7h0.9l-0.3,1.7h1.7
			L177.5,259.4z"/>
		<path class="st2" d="M178.9,264.8H178l1.1-6.1h0.9L178.9,264.8z M180.5,256.3c0,0.2-0.1,0.3-0.2,0.4c-0.1,0.1-0.3,0.2-0.4,0.2
			c-0.2,0-0.3-0.1-0.4-0.2c-0.1-0.1-0.2-0.2-0.2-0.4c0-0.2,0.1-0.3,0.2-0.5c0.1-0.1,0.3-0.2,0.4-0.2s0.3,0.1,0.4,0.2
			C180.5,256,180.5,256.2,180.5,256.3z"/>
		<path class="st2" d="M183.5,264.8h-0.9l-1.3-6.1h0.9l1,5.1h0l3-5.1h0.9L183.5,264.8z"/>
		<path class="st2" d="M188.4,262c0,0.1,0,0.1,0,0.2c0,0,0,0.1,0,0.1c0,0.3,0,0.5,0.1,0.8s0.2,0.4,0.4,0.6c0.2,0.2,0.4,0.3,0.6,0.4
			s0.5,0.1,0.8,0.1c0.5,0,0.9-0.1,1.2-0.3c0.4-0.2,0.6-0.5,0.9-0.7l0.5,0.5c-0.4,0.4-0.8,0.7-1.2,1s-1,0.3-1.5,0.3
			c-0.4,0-0.8-0.1-1.1-0.2c-0.3-0.1-0.6-0.3-0.9-0.5c-0.2-0.2-0.4-0.5-0.6-0.8c-0.1-0.3-0.2-0.7-0.2-1.1c0-0.5,0.1-1,0.3-1.4
			c0.2-0.5,0.4-0.8,0.7-1.2s0.7-0.6,1.1-0.8c0.4-0.2,0.9-0.3,1.4-0.3c0.8,0,1.5,0.2,1.9,0.7c0.4,0.4,0.6,1,0.6,1.7
			c0,0.1,0,0.3,0,0.5c0,0.2,0,0.4-0.1,0.6H188.4z M192.6,261.3c0-0.1,0-0.1,0-0.2c0-0.1,0-0.2,0-0.2c0-0.5-0.1-0.9-0.4-1.2
			s-0.7-0.4-1.3-0.4c-0.3,0-0.6,0.1-0.9,0.2c-0.3,0.1-0.5,0.3-0.7,0.4c-0.2,0.2-0.4,0.4-0.5,0.7s-0.3,0.5-0.3,0.8H192.6z"/>
		<path class="st2" d="M204,257c-0.2-0.2-0.4-0.4-0.7-0.6c-0.3-0.2-0.7-0.2-1.1-0.2c-0.3,0-0.5,0-0.8,0.1c-0.3,0.1-0.5,0.2-0.7,0.3
			c-0.2,0.2-0.4,0.3-0.5,0.6c-0.1,0.2-0.2,0.5-0.2,0.8c0,0.2,0,0.5,0.1,0.6c0.1,0.2,0.2,0.3,0.4,0.5c0.2,0.1,0.3,0.2,0.5,0.3
			c0.2,0.1,0.4,0.2,0.7,0.3c0.3,0.1,0.5,0.2,0.8,0.4s0.5,0.3,0.8,0.5s0.4,0.4,0.5,0.7c0.1,0.3,0.2,0.6,0.2,0.9c0,0.3-0.1,0.6-0.2,1
			c-0.1,0.3-0.3,0.7-0.6,0.9c-0.3,0.3-0.6,0.5-1,0.7c-0.4,0.2-0.9,0.3-1.6,0.3c-0.6,0-1.1-0.1-1.6-0.3c-0.5-0.2-0.9-0.6-1.2-1
			l0.8-0.5c0.2,0.3,0.4,0.6,0.8,0.8c0.3,0.2,0.8,0.3,1.2,0.3c0.3,0,0.6,0,0.9-0.1c0.3-0.1,0.5-0.2,0.7-0.4s0.4-0.4,0.5-0.6
			c0.1-0.2,0.2-0.5,0.2-0.8c0-0.3-0.1-0.5-0.2-0.7c-0.1-0.2-0.2-0.4-0.4-0.5c-0.2-0.1-0.4-0.3-0.6-0.4c-0.2-0.1-0.5-0.2-0.7-0.3
			c-0.3-0.1-0.5-0.2-0.8-0.3c-0.3-0.1-0.5-0.3-0.7-0.5c-0.2-0.2-0.3-0.4-0.5-0.6c-0.1-0.2-0.2-0.5-0.2-0.9c0-0.4,0.1-0.8,0.2-1.1
			c0.1-0.3,0.4-0.6,0.6-0.9c0.3-0.2,0.6-0.4,1-0.6c0.4-0.1,0.9-0.2,1.4-0.2c0.6,0,1.2,0.1,1.6,0.3c0.4,0.2,0.8,0.5,1,0.8L204,257z"
			/>
		<path class="st2" d="M208.2,264.9c-0.4,0-0.8-0.1-1.1-0.2c-0.3-0.1-0.6-0.3-0.9-0.5s-0.4-0.5-0.6-0.8s-0.2-0.7-0.2-1.1
			c0-0.5,0.1-1,0.3-1.5s0.4-0.9,0.7-1.2c0.3-0.3,0.7-0.6,1.1-0.8c0.4-0.2,0.9-0.3,1.5-0.3c0.4,0,0.8,0.1,1.1,0.2
			c0.3,0.1,0.6,0.3,0.9,0.5s0.4,0.5,0.6,0.8s0.2,0.7,0.2,1.1c0,0.5-0.1,1-0.3,1.5c-0.2,0.5-0.4,0.9-0.7,1.2
			c-0.3,0.3-0.7,0.6-1.1,0.8C209.2,264.8,208.7,264.9,208.2,264.9z M210.9,261.2c0-0.3,0-0.5-0.1-0.8c-0.1-0.2-0.2-0.4-0.4-0.6
			c-0.2-0.2-0.4-0.3-0.6-0.4c-0.2-0.1-0.5-0.1-0.8-0.1c-0.4,0-0.7,0.1-1,0.2c-0.3,0.2-0.6,0.4-0.8,0.7c-0.2,0.3-0.4,0.6-0.6,1
			c-0.1,0.4-0.2,0.7-0.2,1.1c0,0.3,0,0.5,0.1,0.8c0.1,0.2,0.2,0.4,0.4,0.6s0.4,0.3,0.6,0.4s0.5,0.2,0.8,0.2c0.4,0,0.7-0.1,1.1-0.2
			c0.3-0.2,0.6-0.4,0.8-0.6s0.4-0.6,0.5-0.9C210.9,262,210.9,261.6,210.9,261.2z"/>
		<path class="st2" d="M214.1,264.8h-0.9l1.7-9.8h0.9L214.1,264.8z"/>
		<path class="st2" d="M220.7,264.8c0-0.2,0-0.3,0.1-0.5c0-0.2,0.1-0.4,0.1-0.5h0c-0.2,0.4-0.5,0.7-0.9,0.9
			c-0.4,0.2-0.8,0.3-1.2,0.3c-0.7,0-1.2-0.2-1.5-0.5c-0.4-0.3-0.6-0.8-0.6-1.4c0-0.1,0-0.2,0-0.3c0-0.1,0-0.2,0-0.3l0.7-3.7h0.9
			l-0.6,3.4c-0.1,0.3-0.1,0.5-0.1,0.8c0,0.4,0.1,0.8,0.3,1c0.2,0.2,0.5,0.4,1,0.4c0.2,0,0.5,0,0.7-0.1c0.2-0.1,0.5-0.2,0.7-0.4
			s0.4-0.4,0.5-0.7c0.2-0.3,0.3-0.7,0.3-1.1l0.5-3.1h0.9l-0.8,4.7c0,0.2-0.1,0.4-0.1,0.6c0,0.3-0.1,0.5-0.1,0.7H220.7z"/>
		<path class="st2" d="M227.4,259.4h-1.7l-0.6,3.6c0,0.2,0,0.3,0,0.4c0,0.3,0.1,0.5,0.2,0.6s0.3,0.1,0.5,0.1c0.1,0,0.3,0,0.4-0.1
			s0.3-0.1,0.3-0.2l-0.1,0.8c-0.1,0.1-0.3,0.1-0.4,0.1c-0.2,0-0.4,0-0.6,0c-0.1,0-0.3,0-0.4-0.1s-0.3-0.1-0.4-0.2s-0.2-0.2-0.3-0.4
			c-0.1-0.2-0.1-0.4-0.1-0.6c0-0.1,0-0.3,0-0.4l0.7-3.8h-1.3l0.1-0.7h1.2l0.3-1.7h0.9l-0.3,1.7h1.7L227.4,259.4z"/>
		<path class="st2" d="M228.8,264.8H228l1.1-6.1h0.9L228.8,264.8z M230.4,256.3c0,0.2-0.1,0.3-0.2,0.4c-0.1,0.1-0.3,0.2-0.4,0.2
			c-0.2,0-0.3-0.1-0.4-0.2c-0.1-0.1-0.2-0.2-0.2-0.4c0-0.2,0.1-0.3,0.2-0.5c0.1-0.1,0.3-0.2,0.4-0.2c0.2,0,0.3,0.1,0.4,0.2
			C230.4,256,230.4,256.2,230.4,256.3z"/>
		<path class="st2" d="M234,264.9c-0.4,0-0.8-0.1-1.1-0.2c-0.3-0.1-0.6-0.3-0.9-0.5s-0.4-0.5-0.6-0.8s-0.2-0.7-0.2-1.1
			c0-0.5,0.1-1,0.3-1.5s0.4-0.9,0.7-1.2c0.3-0.3,0.7-0.6,1.1-0.8c0.4-0.2,0.9-0.3,1.5-0.3c0.4,0,0.8,0.1,1.1,0.2
			c0.3,0.1,0.6,0.3,0.9,0.5s0.4,0.5,0.6,0.8s0.2,0.7,0.2,1.1c0,0.5-0.1,1-0.3,1.5c-0.2,0.5-0.4,0.9-0.7,1.2
			c-0.3,0.3-0.7,0.6-1.1,0.8C235,264.8,234.5,264.9,234,264.9z M236.7,261.2c0-0.3,0-0.5-0.1-0.8c-0.1-0.2-0.2-0.4-0.4-0.6
			c-0.2-0.2-0.4-0.3-0.6-0.4c-0.2-0.1-0.5-0.1-0.8-0.1c-0.4,0-0.7,0.1-1,0.2c-0.3,0.2-0.6,0.4-0.8,0.7c-0.2,0.3-0.4,0.6-0.6,1
			c-0.1,0.4-0.2,0.7-0.2,1.1c0,0.3,0,0.5,0.1,0.8c0.1,0.2,0.2,0.4,0.4,0.6s0.4,0.3,0.6,0.4s0.5,0.2,0.8,0.2c0.4,0,0.7-0.1,1.1-0.2
			c0.3-0.2,0.6-0.4,0.8-0.6s0.4-0.6,0.5-0.9C236.6,262,236.7,261.6,236.7,261.2z"/>
		<path class="st2" d="M240.8,258.7c0,0.2,0,0.3-0.1,0.5c0,0.2-0.1,0.4-0.1,0.5h0c0.2-0.4,0.5-0.7,0.9-0.9c0.4-0.2,0.8-0.3,1.2-0.3
			c0.7,0,1.2,0.2,1.5,0.5s0.6,0.8,0.6,1.4c0,0.1,0,0.2,0,0.3c0,0.1,0,0.2,0,0.3l-0.7,3.7h-0.9l0.6-3.4c0.1-0.3,0.1-0.5,0.1-0.8
			c0-0.4-0.1-0.8-0.3-1s-0.6-0.4-1.1-0.4c-0.2,0-0.5,0-0.7,0.1c-0.2,0.1-0.5,0.2-0.7,0.4c-0.2,0.2-0.4,0.4-0.5,0.7
			c-0.2,0.3-0.3,0.7-0.3,1.1l-0.5,3.1H239l0.8-4.7c0-0.2,0.1-0.4,0.1-0.6s0.1-0.5,0.1-0.7H240.8z"/>
		<path class="st2" d="M250.6,260c-0.1-0.2-0.3-0.4-0.5-0.6c-0.2-0.1-0.5-0.2-0.9-0.2c-0.2,0-0.3,0-0.5,0.1c-0.2,0-0.3,0.1-0.5,0.2
			c-0.1,0.1-0.3,0.2-0.4,0.3c-0.1,0.1-0.1,0.3-0.1,0.5c0,0.2,0,0.3,0.1,0.4c0.1,0.1,0.1,0.2,0.2,0.3c0.1,0.1,0.2,0.1,0.4,0.2
			s0.3,0.1,0.5,0.2c0.6,0.2,1.1,0.4,1.4,0.7c0.3,0.3,0.5,0.6,0.5,1.1c0,0.3-0.1,0.6-0.2,0.9s-0.3,0.4-0.6,0.6s-0.5,0.3-0.8,0.3
			c-0.3,0.1-0.6,0.1-0.8,0.1c-0.5,0-1-0.1-1.4-0.3c-0.4-0.2-0.8-0.5-1-0.9l0.8-0.5c0.1,0.3,0.4,0.5,0.7,0.6c0.3,0.2,0.6,0.3,1,0.3
			c0.2,0,0.4,0,0.6-0.1c0.2,0,0.3-0.1,0.5-0.2c0.1-0.1,0.3-0.2,0.3-0.3c0.1-0.1,0.1-0.3,0.1-0.5c0-0.3-0.1-0.6-0.4-0.7
			c-0.3-0.2-0.6-0.3-1.1-0.5c-0.2-0.1-0.4-0.1-0.5-0.2c-0.2-0.1-0.3-0.2-0.5-0.3s-0.3-0.3-0.4-0.5s-0.1-0.4-0.1-0.6
			c0-0.3,0.1-0.6,0.2-0.8c0.1-0.2,0.3-0.4,0.5-0.6s0.5-0.2,0.7-0.3s0.6-0.1,0.8-0.1c0.5,0,0.9,0.1,1.3,0.3s0.6,0.4,0.8,0.7
			L250.6,260z"/>
		<line class="st7" x1="74.9" y1="221" x2="25.4" y2="221"/>
		<line class="st7" x1="252.1" y1="221" x2="202.6" y2="221"/>
		<path class="st6" d="M137.2,13.8c-35.5,0-64.3,28.8-64.3,64.3c0,5.9,0.8,11.5,2.3,16.9h4.9c0.8,0,1.7-0.5,2.3-1.7
			c0.5-1.1,11-29.9,12-32.4c0.2-0.5,0.6-1.3,1.3-1.3c0.7,0,1.1,0.5,1.3,1.1l9.3,21.6h0.2c0.4-1.3,7.9-17.6,9.5-21.1
			c0.4-1,0.7-1.7,1-1.7c2.2,0,4.6-0.1,5-0.1c0.3,0,0.4,0.1,0.4,0.4v1.3c0,0.3-0.1,0.4-0.5,0.4h-1c-1,0-1.6,0.7-1.2,1.8l8,23.7
			l0.1,0.1c0.4-1.1,7.3-15.9,7.3-15.9s2.7-6,3.9-6c1.2,0,3.8,6.4,3.8,6.4l6.4,14.4l4.2-11c4.4-13.7,11.2-15.7,20.7-15.7
			c4.9,0,8.8,1.5,10.5,2.8c0.6,0.5,0.9,0.3,1.2-0.1l0.6-0.8c0.3-0.4,0.4-0.5,0.7-0.5c0.5,0,0.6,0.3,0.6,0.7l0.5,10.3
			c0,0.4,0,0.7-0.2,0.7l-1.2,0.2c-0.3,0.1-0.4-0.1-0.5-0.4c-0.7-2.1-2.1-4.9-4.1-7.1c-1.7-1.8-4.6-3.6-8.5-3.6
			c-5.6,0-11.1,2.8-14.7,12.3c-3,8-6.4,17.4-6.9,19c-1.1,3.1-2,4.2-4.8,4.2c-0.7,0-1.1-0.5-1.3-1.1l-9.3-21h-0.2
			c-0.5,1.4-9.5,20.6-9.7,21.1c-0.1,0.3-0.3,0.5-0.5,0.7c-0.3,0.3-0.6,0.4-1,0.4c-2.5,0-3.8,0.1-4.2,0.1c-0.3,0-0.4-0.1-0.4-0.4
			v-1.3c0-0.3,0.1-0.4,0.5-0.4h1c1,0,1.6-0.7,1.2-1.8l-8-23.7l-0.1-0.1c-0.4,1.1-7.3,16.5-7.3,16.5s-2.4,5.6-4,5.6
			c-1.1,0-2.7-4-2.7-4l-7.4-18.3h-0.2c-1.5,4.5-7.4,21.4-7.4,24.3c0,0.7,0.5,1.4,1.7,1.4h1.4c0.3,0,0.4,0.2,0.4,0.4v1.2
			c0,0.3-0.1,0.4-0.4,0.4c-0.5,0-2.3-0.2-5.4-0.2c-2,0-5.8,0.1-8,0.1c8.1,26.3,32.6,45.4,61.5,45.4c35.5,0,64.3-28.8,64.3-64.3
			S172.8,13.8,137.2,13.8z M188.6,82.5c-0.9,0-1.5,0.4-1.5,1.9v6.8c0,0.7,0.2,1.2,0.2,1.6c0,0.4-0.3,0.6-0.8,0.8
			c-4.2,2.2-8.4,3.4-14.6,3.4c-4.9,0-10.9-1.6-14.4-5.6c-0.5-0.5-0.5-1-0.3-1.5c0.2-0.4,0.8-2.1,1-2.4c0.2-0.3,0.5-0.5,1.2,0
			c4.2,3.4,7.9,6.6,13,6.6c3.3,0,5.2,0.1,7-0.9c1.1-0.6,1.2-2.1,1.2-4.7v-3.7c0-1.8-0.5-2.4-1.8-2.4h-2.2c-0.3,0-0.4-0.2-0.4-0.5
			v-1.2c0-0.3,0.1-0.4,0.3-0.4c0.6,0,3.1,0.2,7.3,0.2c4.3,0,16.1-0.2,16.6-0.2c0.4,0,0.5,0.1,0.5,0.4v1.7H188.6z"/>
		<path class="st2" d="M207.1,78.2c0.4,0.8,0.7,1.7,1,2.6c0.2,0.8,0.7,1.5,0.8,2.3l0-0.1c1.6,2.8,3,5.7,3.8,9c0.4,1.7,0.2,3.4-0.3,5
			c-0.5,1.6-1.3,3.1-2.5,4.3c-0.2-1-0.4-2.1-0.5-3.2c-0.1-1.2-0.5-2.3-0.7-3.4l0,0.1c0,0,0,0,0,0c-0.3-0.6-0.5-1.3-0.8-1.9
			c-0.3-0.7-0.6-1.3-0.9-1.9c-0.5-1.3-1-2.6-1.4-3.8c-0.3-1.6-0.5-3.1-0.4-4.5C205.6,81,206.2,79.6,207.1,78.2z"/>
		<path class="st2" d="M206,90.4c0.3,0.9,0.6,1.8,0.6,2.7c0.1,0.8,0.4,1.6,0.4,2.4l0-0.1c0.5,1.5,0.9,3.1,1.4,4.6
			c0.4,1.6,0.6,3.2,0.7,4.9c0.2,3.4-1.7,6.7-4.4,8.6c0-1.1,0-2.2,0.1-3.2c0.1-1.2,0-2.3,0-3.4l0,0.1c0,0,0,0,0,0
			c-0.7-2.7-1.4-5.5-1.6-8.1c-0.2-1.6-0.1-3.2,0.4-4.6c0.2-0.7,0.6-1.4,1-2C205,91.7,205.4,91,206,90.4z"/>
		<path class="st2" d="M202.8,102.2c0.1,0.9,0.1,1.9,0.1,2.8c0,0.8,0.1,1.7,0,2.5l0-0.1c0.2,3.1,1,6.5,0.4,9.7
			c-0.3,1.6-0.9,3.3-1.9,4.6c-1.1,1.3-2.4,2.4-3.9,3.1c0.2-1.1,0.4-2.1,0.7-3.1c0.3-1.1,0.5-2.2,0.5-3.4l0,0.1c0,0,0,0,0,0
			c-0.2-2.8-0.3-5.6-0.1-8.2c0.1-1.7,0.5-3.1,1.3-4.4C200.6,104.5,201.4,103.2,202.8,102.2z"/>
		<path class="st2" d="M197.6,113.3c0,0.9-0.2,1.8-0.4,2.8c-0.2,0.8-0.1,1.7-0.4,2.5l0-0.1c-0.1,1.5-0.3,3.2-0.4,4.8
			c-0.2,1.6-0.3,3.3-1,4.9c-0.6,1.6-1.5,3-2.7,4.2c-1.2,1.2-2.8,1.9-4.4,2.4c0.4-1,0.8-2,1.3-2.9c0.5-1,0.7-2.2,1.1-3.3l-0.1,0.1
			c0,0,0,0,0,0c0.3-2.8,0.8-5.5,1.3-8.1c0.4-1.6,1.1-2.9,2.1-4.1C194.9,115.1,196.1,114.1,197.6,113.3z"/>
		<path class="st2" d="M190.5,123.3c-0.2,0.9-0.6,1.7-0.9,2.6c-0.3,0.7-0.5,1.6-0.8,2.3l0.1-0.1c-0.7,3.1-1.4,6.2-2.9,9.3
			c-0.9,1.4-2.1,2.6-3.5,3.6c-0.7,0.5-1.4,0.9-2.2,1.1c-0.8,0.2-1.6,0.4-2.5,0.4c0.5-0.9,1.2-1.7,1.7-2.6c0.6-1,1.1-2.1,1.6-3.1
			L181,137c0,0,0,0,0,0c0.4-1.3,0.8-2.6,1.3-3.9c0.4-1.3,0.9-2.7,1.4-3.9C185.2,126.4,187.2,124.3,190.5,123.3z"/>
		<path class="st2" d="M181.8,132c-0.3,0.9-0.9,1.6-1.4,2.4c-0.4,0.7-0.8,1.5-1.2,2.1l0.1-0.1c-1.2,3-2.5,5.9-4.5,8.6
			c-1,1.4-2.5,2.2-4,2.9c-1.6,0.6-3.2,1.1-4.9,0.8c0.8-0.9,1.5-1.6,2.1-2.4c0.8-0.9,1.5-1.8,2.2-2.7l-0.1,0.1c0,0,0,0,0,0
			c1.3-2.3,2.5-5.1,4-7.2c0.5-0.7,1-1.2,1.5-1.7c0.5-0.6,1.1-1,1.7-1.4C178.6,132.7,180.1,132.2,181.8,132z"/>
		<path class="st2" d="M171.7,138.9c-0.5,0.8-1.1,1.5-1.7,2.2c-0.5,0.6-1,1.3-1.6,1.8l0.1-0.1c-0.9,1.3-1.7,2.7-2.7,4.1
			c-1,1.3-2,2.5-3.3,3.6c-0.6,0.6-1.3,1-2.1,1.5c-0.8,0.4-1.6,0.6-2.4,0.8c-1.6,0.3-3.4,0.3-4.9-0.1c0.8-0.7,1.7-1.4,2.5-2
			c0.9-0.7,1.8-1.5,2.6-2.2l-0.1,0.1c0,0,0,0,0,0c1.7-2.1,3.3-4.6,5.2-6.4c1.2-1.1,2.4-2.1,3.8-2.6
			C168.5,139.1,170.1,139,171.7,138.9z"/>
		<path class="st2" d="M160.5,144c-0.6,0.7-1.3,1.3-2.1,1.9c-0.6,0.5-1.2,1.1-1.9,1.5l0.1-0.1c-2.2,2.2-4.3,4.9-7.2,6.5
			c-1.4,0.8-3.1,1.4-4.8,1.5c-1.7,0-3.4-0.4-4.9-1.1c0.9-0.6,1.9-1,2.8-1.4c1-0.5,2-1,3-1.7l-0.1,0.1c0,0,0,0,0,0
			c2-2,4.1-3.8,6.3-5.3C154.4,143.7,157.3,143.5,160.5,144z"/>
		<path class="st2" d="M148.7,147c-0.7,0.6-1.5,1-2.4,1.5c-0.7,0.4-1.4,1-2.1,1.3l0.1,0c-2.6,1.7-5.1,4-8.3,5.1
			c-3.1,1.1-6.9,0.8-9.6-1.3c1-0.4,2-0.6,3-0.9c1.1-0.3,2.2-0.9,3.2-1.3l-0.1,0c0,0,0,0,0,0c2.3-1.5,4.7-2.9,7.1-4.2
			c1.5-0.7,2.9-1,4.4-1C145.6,146.1,147.1,146.4,148.7,147z"/>
		<path class="st2" d="M136.4,148c-0.8,0.4-1.7,0.7-2.6,1c-0.8,0.2-1.5,0.7-2.3,0.8l0.1,0c-1.4,0.8-2.9,1.5-4.3,2.1
			c-1.5,0.6-3,1.2-4.7,1.6c-1.7,0.4-3.4,0.1-5-0.4c-1.6-0.5-3.1-1.3-4.2-2.6c1-0.1,2.1-0.2,3.2-0.4c1.2-0.1,2.3-0.4,3.4-0.7l-0.1,0
			c0,0,0,0,0,0c2.5-0.9,5.2-2.2,7.7-2.9c0.8-0.2,1.6-0.3,2.3-0.3c0.8,0,1.5-0.1,2.2,0C133.6,146.5,135,147.1,136.4,148z"/>
		<path class="st2" d="M124.2,146.8c-0.9,0.4-1.8,0.5-2.7,0.6c-0.8,0.1-1.6,0.4-2.4,0.4h0.1c-1.5,0.4-3.1,1-4.7,1.4
			c-1.6,0.3-3.2,0.6-4.9,0.6c-0.8,0-1.7-0.1-2.5-0.2c-0.8-0.2-1.6-0.6-2.3-1c-1.5-0.8-2.8-1.9-3.7-3.2c1.1,0,2.2,0.1,3.2,0.1
			c1.2,0.1,2.3,0,3.4,0l-0.1,0c0,0,0,0,0,0c2.7-0.5,5.5-1.4,8.1-1.5c1.6-0.1,3.2-0.1,4.5,0.5C121.7,144.8,122.9,145.8,124.2,146.8z"
			/>
		<path class="st2" d="M112.4,143.4c-0.9,0.1-1.9,0.1-2.8,0.1c-0.8-0.1-1.7,0-2.4-0.1l0.1,0c-1.5,0.2-3.2,0.3-4.8,0.5
			c-1.7,0.2-3.2,0-4.9-0.2c-1.6-0.3-3.3-0.9-4.6-2c-1.3-1.1-2.4-2.4-3.1-3.9c1.1,0.2,2.1,0.5,3.1,0.7c1.1,0.3,2.2,0.5,3.4,0.6
			l-0.1,0c0,0,0,0,0,0c2.8-0.2,5.7-0.3,8.3,0C107.9,139.3,110.3,141,112.4,143.4z"/>
		<path class="st2" d="M101.4,138.1c-0.9,0-1.8-0.2-2.8-0.4c-0.8-0.1-1.7-0.1-2.4-0.5l0.1,0c-1.5-0.1-3.2-0.3-4.8-0.4
			c-0.8-0.1-1.6-0.2-2.5-0.3c-0.8-0.2-1.6-0.4-2.4-0.7c-1.6-0.6-3-1.5-4.2-2.7c-1.1-1.3-1.9-2.8-2.3-4.4c1,0.4,2,0.8,2.9,1.3
			c0.5,0.3,1,0.5,1.6,0.7c0.6,0.2,1.1,0.3,1.7,0.5l-0.1-0.1c0,0,0,0,0,0c1.4,0.2,2.8,0.4,4.1,0.6c1.3,0.3,2.7,0.5,4,0.8
			c1.6,0.4,2.9,1.1,4.1,2.1C99.6,135.5,100.6,136.6,101.4,138.1z"/>
		<path class="st2" d="M91.5,130.9c-0.9-0.2-1.8-0.6-2.6-0.9c-0.7-0.3-1.6-0.5-2.4-0.8l0.1,0.1c-3-0.9-6.3-1.4-9.2-3.1
			c-2.8-1.7-5-4.8-5.1-8.2c0.9,0.5,1.8,1.2,2.6,1.8c0.9,0.7,2.1,1.1,3.1,1.6l-0.1-0.1c0,0,0,0,0,0c2.7,0.8,5.3,1.8,7.8,2.8
			c1.5,0.7,2.6,1.6,3.6,2.8C90.2,128,91,129.3,91.5,130.9z"/>
		<path class="st2" d="M82.9,122.1c-0.8-0.4-1.6-0.9-2.4-1.4c-0.7-0.4-1.5-0.8-2.1-1.3l0.1,0.1c-1.5-0.6-2.9-1.3-4.4-2
			c-1.4-0.7-2.9-1.6-4.2-2.6c-1.3-1.1-2.2-2.5-2.9-4.1c-0.7-1.5-1-3.2-0.7-4.9c0.8,0.7,1.5,1.5,2.3,2.2c0.9,0.8,1.8,1.5,2.7,2.2
			l-0.1-0.1c0,0,0,0,0,0c1.2,0.7,2.4,1.3,3.6,2c1.3,0.6,2.5,1.3,3.5,2.1C80.9,116.4,82.6,118.7,82.9,122.1z"/>
		<path class="st2" d="M76,112c-0.8-0.5-1.4-1.1-2.1-1.8c-0.6-0.5-1.3-1-1.9-1.6l0.1,0.1c-2.7-1.7-5.4-3.5-7.6-6
			c-1.2-1.2-1.8-2.8-2.1-4.5c-0.3-1.7-0.3-3.4,0.1-4.9c0.7,0.8,1.3,1.7,2,2.5c0.7,0.9,1.5,1.8,2.2,2.6l-0.1-0.1c0,0,0,0,0,0
			c0.5,0.4,1.1,0.9,1.6,1.3c0.6,0.4,1.1,0.9,1.7,1.3c1.1,0.9,2.1,1.8,3,2.7c1.1,1.2,2,2.4,2.5,3.8C76,108.7,76.1,110.3,76,112z"/>
		<path class="st2" d="M71.1,100.7c-0.7-0.6-1.4-1.3-1.9-2.1c-0.5-0.6-1.1-1.2-1.5-1.9l0.1,0.1c-1.1-1.1-2.3-2.2-3.5-3.4
			c-1.1-1.2-2.1-2.5-2.9-3.9c-1.8-2.9-1.7-6.7-0.3-9.6c0.6,0.9,1,1.9,1.4,2.9c0.5,1.1,1.1,2,1.7,3c0,0,0-0.1-0.1-0.1c0,0,0,0,0,0
			c1.9,2.1,3.9,4.1,5.3,6.3c1,1.3,1.6,2.7,1.9,4.2c0.1,0.7,0.2,1.5,0.1,2.3C71.3,99.1,71.3,99.9,71.1,100.7z"/>
		<path class="st2" d="M68.2,88.8c-0.6-0.7-1-1.6-1.5-2.4c-0.4-0.7-0.9-1.4-1.2-2.2l0,0.1c-0.9-1.3-1.8-2.6-2.7-3.9
			c-0.5-0.7-0.9-1.4-1.3-2.1c-0.4-0.7-0.7-1.5-1-2.3c-0.5-1.6-0.7-3.3-0.5-5c0.2-1.7,1-3.2,1.9-4.6c0.4,1,0.6,2,0.9,3
			c0.2,1.1,0.8,2.2,1.2,3.2l0-0.1c0,0,0,0,0,0c0.8,1.2,1.5,2.4,2.2,3.6c0.3,0.6,0.7,1.2,0.9,1.8c0.3,0.6,0.7,1.2,1,1.8
			c0.7,1.5,1.1,3,1,4.4C69,85.8,68.9,87.3,68.2,88.8z"/>
		<path class="st2" d="M67.4,76.6c-0.4-0.8-0.7-1.7-1-2.6c-0.2-0.8-0.7-1.6-0.8-2.3l0,0.1c-1.4-2.9-2.8-5.7-3.6-9.1
			c-0.2-1.6-0.1-3.4,0.5-5c0.3-0.8,0.6-1.6,1-2.3c0.4-0.7,1-1.3,1.6-1.9c0.2,1.1,0.1,2.1,0.3,3.2c0.1,1.2,0.4,2.3,0.7,3.4l0-0.1
			c0,0,0,0,0,0c0.5,1.3,1,2.6,1.4,3.9c0.5,1.3,1,2.6,1.4,3.9C69.6,70.9,69.3,73.7,67.4,76.6z"/>
		<path class="st2" d="M68.7,64.4c-0.3-0.9-0.3-1.8-0.5-2.7c-0.1-0.8-0.4-1.6-0.4-2.4v0.1c-1-3.1-1.8-6.1-1.9-9.6
			c-0.1-1.7,0.5-3.3,1.3-4.8c0.8-1.5,1.9-2.8,3.3-3.7c-0.1,1.2-0.1,2.2-0.2,3.2c-0.1,1.2,0,2.3,0,3.5l0-0.1c0,0,0,0,0,0
			c0.4,2.7,1.3,5.5,1.4,8.1c0,1.6-0.1,3.1-0.5,4.5C70.7,61.9,69.8,63.1,68.7,64.4z"/>
		<path class="st2" d="M72.2,52.6c-0.1-0.9-0.2-1.9-0.1-2.8c0.1-0.8,0-1.7,0.1-2.4l0,0.1c-0.2-1.5-0.3-3.2-0.5-4.8
			c0-1.6,0-3.2,0.3-4.9c0.4-3.4,3-6.2,6-7.6c-0.2,1.1-0.5,2.1-0.7,3.1c-0.3,1.1-0.4,2.3-0.6,3.4l0-0.1c0,0,0,0,0,0
			c0.1,2.8,0.3,5.7-0.1,8.2c-0.2,1.6-0.5,3.1-1.3,4.4C74.5,50.5,73.4,51.6,72.2,52.6z"/>
		<path class="st2" d="M77.7,41.7c0-0.9,0.2-1.8,0.4-2.8c0.1-0.8,0.3-1.6,0.5-2.4l0,0.1c0.4-3.1,0.3-6.5,1.5-9.6
			c0.6-1.5,1.5-3.1,2.8-4.1c1.3-1.1,2.8-1.9,4.4-2.3c-0.4,1-0.8,2-1.3,2.9c-0.5,1.1-0.9,2.1-1.2,3.2l0.1-0.1c0,0,0,0,0,0
			c-0.3,2.8-0.8,5.6-1.5,8.1C82.6,38,80.5,40,77.7,41.7z"/>
		<path class="st2" d="M85,31.8c0.2-0.9,0.6-1.8,0.9-2.6c0.3-0.7,0.4-1.7,0.9-2.3L86.7,27c0.4-1.5,0.9-3.1,1.3-4.6
			c0.5-1.6,1-3.2,1.9-4.6c0.9-1.4,2.1-2.7,3.5-3.6c1.4-0.9,3.1-1.3,4.8-1.4c-0.5,0.9-1.2,1.8-1.8,2.6c-0.7,0.9-1.2,2-1.7,3l0.1-0.1
			c0,0,0,0,0,0c-0.4,1.3-0.9,2.7-1.4,3.9c-0.2,0.6-0.5,1.3-0.8,1.9c-0.2,0.7-0.5,1.3-0.8,1.9c-0.7,1.5-1.6,2.7-2.8,3.6
			C87.9,30.6,86.6,31.3,85,31.8z"/>
		<path class="st2" d="M93.9,23.4c0.4-0.8,0.9-1.6,1.4-2.4c0.4-0.7,0.8-1.5,1.3-2.1l-0.1,0.1c1.4-2.8,2.6-5.9,4.7-8.5
			c2.2-2.4,5.6-4,9-3.5c-0.7,0.8-1.5,1.5-2.2,2.2c-0.8,0.9-1.5,1.8-2.2,2.7l0.1-0.1c0,0,0,0,0,0c-0.7,1.2-1.3,2.4-2.1,3.6
			c-0.7,1.2-1.4,2.4-2.1,3.5c-0.9,1.4-2.1,2.2-3.4,3.1C97,22.7,95.6,23.2,93.9,23.4z"/>
		<path class="st2" d="M163.5,13.4c0.9-0.2,1.9-0.1,2.8,0c0.8,0.1,1.7,0,2.5,0.1l-0.1,0c1.6-0.1,3.2-0.4,4.8-0.4
			c1.6,0,3.2,0,4.9,0.3c0.8,0.2,1.7,0.4,2.4,0.7c0.7,0.4,1.4,0.9,2.1,1.4c1.3,1.1,2.4,2.4,3,3.9c-1.1-0.2-2.1-0.5-3.1-0.7
			c-1.1-0.3-2.3-0.5-3.4-0.7l0.1,0c0,0,0,0,0,0c-1.3,0-2.8,0-4.2,0c-1.4,0-2.8,0-4.1-0.2c-1.6-0.3-3.1-0.6-4.4-1.4
			C165.6,15.9,164.5,14.6,163.5,13.4z"/>
		<path class="st2" d="M174.4,19c0.9,0,1.9,0.2,2.8,0.4c0.8,0.2,1.6,0.3,2.4,0.6l-0.1,0c1.5,0.1,3.2,0.3,4.8,0.4
			c1.6,0.2,3.2,0.6,4.8,1.2c3.2,1.1,5.5,4.1,6.3,7.3c-1-0.4-2-0.9-2.9-1.3c-1-0.5-2.1-0.9-3.2-1.3l0.1,0.1c0,0,0,0,0,0
			c-2.8-0.4-5.6-0.8-8.1-1.6c-1.6-0.4-3-1.1-4.1-2.1c-0.6-0.5-1-1.1-1.5-1.7C175.2,20.4,174.8,19.8,174.4,19z"/>
		<path class="st2" d="M184.1,26.5c0.9,0.2,1.8,0.6,2.6,0.9c0.8,0.3,1.6,0.5,2.3,1l-0.1-0.1c2.9,1,6.4,1.5,9.1,3.3
			c1.4,0.9,2.7,2.1,3.6,3.5c0.8,1.5,1.3,3.1,1.4,4.8c-0.9-0.5-1.8-1.2-2.6-1.8c-0.9-0.7-1.9-1.3-3-1.8l0.1,0.1c0,0,0,0,0,0
			c-2.7-0.8-5.3-1.8-7.7-3c-1.5-0.7-2.7-1.6-3.6-2.8C185.4,29.3,184.6,28.1,184.1,26.5z"/>
		<path class="st2" d="M192.5,35.4c0.8,0.4,1.6,0.9,2.4,1.4c0.7,0.4,1.5,0.8,2.1,1.3l-0.1-0.1c1.4,0.7,2.8,1.4,4.3,2.1
			c1.4,0.8,3,1.6,4.1,2.7c1.2,1.1,2.2,2.5,2.8,4.1c0.7,1.5,0.7,3.3,0.5,4.9c-0.8-0.7-1.5-1.5-2.2-2.3c-0.7-0.9-1.8-1.5-2.7-2.2
			l0.1,0.1c0,0,0,0,0,0c-2.5-1.3-4.8-2.8-7-4.3c-1.3-1-2.3-2.1-3-3.4C193.1,38.6,192.6,37.1,192.5,35.4z"/>
		<path class="st2" d="M199.1,45.8c0.8,0.5,1.4,1.2,2.1,1.8c0.6,0.5,1.3,1,1.9,1.6l-0.1-0.1c2.6,1.8,5.2,3.7,7.5,6.2
			c1,1.3,1.7,2.9,2,4.6c0.2,0.8,0.2,1.7,0.2,2.5c0,0.8-0.3,1.7-0.5,2.5c-0.7-0.8-1.1-1.8-1.8-2.6c-0.7-1-1.5-1.8-2.2-2.7l0.1,0.1
			c0,0,0,0,0,0c-1.1-0.9-2.1-1.8-3.1-2.7c-1.1-0.9-2.1-1.8-3.1-2.8C199.9,51.8,198.8,49.1,199.1,45.8z"/>
		<path class="st2" d="M203.9,57.1c0.7,0.6,1.2,1.4,1.7,2.2c0.5,0.6,1.1,1.3,1.5,2l-0.1-0.1c2.3,2.2,4.5,4.5,6.3,7.4
			c0.9,1.5,1.2,3.1,1.2,4.8c0,1.7-0.4,3.4-1.1,4.8c-0.6-0.9-1-1.9-1.4-2.9c-0.5-1.1-1.1-2-1.7-3l0.1,0.1c0,0,0,0,0,0
			c-0.4-0.5-0.9-1.1-1.3-1.6c-0.5-0.5-0.9-1.1-1.4-1.6c-0.9-1.1-1.7-2.2-2.4-3.3c-0.8-1.4-1.5-2.8-1.7-4.2
			C203.3,60.2,203.5,58.7,203.9,57.1z"/>
		<path class="st2" d="M205.7,68c0.6,0.6,0.9,1.4,1.4,2.1c0.4,0.6,0.9,1.3,1.2,1.9l0-0.1c1.9,2.3,3.7,4.5,5.1,7.4
			c0.7,1.4,0.8,3,0.7,4.6c-0.1,1.6-0.6,3.1-1.4,4.4c-0.4-0.9-0.7-1.9-1.1-2.8c-0.3-1-0.8-2-1.2-2.9l0,0.1c0,0,0,0,0,0
			c-0.3-0.5-0.7-1.1-1-1.6c-0.4-0.5-0.8-1.1-1.1-1.6c-0.7-1.1-1.4-2.1-1.9-3.2c-0.6-1.4-1.1-2.7-1.2-4
			C204.9,70.9,205.2,69.5,205.7,68z"/>
	</g>
</g>
</a>
</svg>
