<svg id="Layer_1" data-name="Layer 1" xmlns="http://www.w3.org/2000/svg" viewBox="0 0 386 104.5"><defs><style>.cls-1{fill:#fff;}</style></defs><title>white</title><path class="cls-1" d="M335.57,71.92l-15.84-9.15a24.15,24.15,0,0,0,0-18.37l15.85-9.15a2.69,2.69,0,0,0-.66-4.93,2.66,2.66,0,0,0-2,.27l-15.74,9.09a24.23,24.23,0,0,0-16.57-10.09V11.83a2.69,2.69,0,1,0-5.38,0V29.47a24.19,24.19,0,0,0-17,9.32l-18-10.37a2.7,2.7,0,0,0-3.67,1h0a2.69,2.69,0,0,0,1,3.68l17.85,10.3a24.14,24.14,0,0,0,0,20.42L257.53,74.1a2.69,2.69,0,0,0-1,3.67,2.7,2.7,0,0,0,3.67,1l18-10.37a24.2,24.2,0,0,0,17,9.31V98.84a2.69,2.69,0,1,0,5.38,0V77.58a24.23,24.23,0,0,0,16.57-10.09l15.75,9.09a2.69,2.69,0,0,0,2.69-4.66Zm-38.25-1.39a17,17,0,1,1,16.95-16.95A17,17,0,0,1,297.33,70.54Z"/><path class="cls-1" d="M5,3H7.75V25.68H5Z"/><path class="cls-1" d="M13.67,9.6h2.41v3.2c1.05-2.92,2.75-3.64,8.57-3.64,3.64,0,5.41.37,6.7,1.43S33,13,33,15.55V25.68H30.6v-10c0-3.47-1.19-4.25-6.6-4.25-5.78,0-7.92,1.29-7.92,4.79v9.45H13.67Z"/><path class="cls-1" d="M55,13.78c0-2-1.12-2.38-6.6-2.38-6.73,0-7.85.41-7.85,2.72a1.8,1.8,0,0,0,1.19,2c.65.24,1.7.27,6.12.31,6.08,0,7,.14,8.33.82s1.77,1.73,1.77,3.81c0,2.31-.65,3.54-2.18,4.18s-3,.71-8,.71c-5.41,0-7.07-.2-8.33-1s-1.67-1.84-1.67-4.28v-.41h2.48v.41c0,1.63.14,2.07.82,2.48.92.58,2.62.75,7.38.75,6.19,0,7-.31,7-2.75,0-1.46-.37-2.07-1.46-2.38-.85-.24-.85-.24-10.06-.31-4.56,0-5.88-1-5.88-4.32,0-1.9.61-3.23,1.8-3.81,1.39-.71,3.33-1,7.62-1,5.75,0,7.48.24,8.74,1.22a3.82,3.82,0,0,1,1.22,3.3v.27H55Z"/><path class="cls-1" d="M82.08,25.68H79.66v-3.2c-1.05,2.92-2.75,3.64-8.57,3.64-3.64,0-5.41-.37-6.7-1.43s-1.67-2.38-1.67-5V9.6h2.41v10c0,3.47,1.19,4.25,6.6,4.25,5.78,0,7.92-1.29,7.92-4.79V9.6h2.41Z"/><path class="cls-1" d="M87.52,9.6h2.41v3.16c.88-2.72,2.35-3.4,7.28-3.4,5.64,0,7.24,1.36,7.24,6.19v1H102v-.85c0-3.47-1-4.25-5.44-4.25-4.83,0-6.66,1.33-6.66,4.83v9.45H87.52Z"/><path class="cls-1" d="M108.39,14.25c0-2.11.54-3.23,1.77-3.94s2.75-1,6.94-1c5.47,0,7.17.27,8.6,1.39,1.19,1,1.53,2,1.53,5v9.93h-2.41V23.5c-.82,2-2,2.41-7.45,2.41-5.61,0-7-.2-8.23-1.09s-1.5-1.9-1.5-3.94.44-3.23,1.39-3.87c1.16-.78,3.09-1.05,7.82-1.05,3.88,0,5.3.14,6.29.58a2.82,2.82,0,0,1,1.67,1.63v-1.7c0-4.66-.61-5.07-7.68-5.07-5.3,0-6.12.37-6.15,2.86Zm1.73,6.7c0,1.43.54,2.28,1.6,2.58s2.11.34,5.68.34c3.23,0,4.66-.14,5.61-.48a2.47,2.47,0,0,0,1.84-2.62,2.36,2.36,0,0,0-1.39-2.28c-.78-.37-2.45-.51-6.05-.51C111.25,18,110.12,18.47,110.12,21Z"/><path class="cls-1" d="M132.67,9.6h2.41v3.2c1.05-2.92,2.75-3.64,8.57-3.64,3.64,0,5.41.37,6.7,1.43S152,13,152,15.55V25.68H149.6v-10c0-3.47-1.19-4.25-6.6-4.25-5.78,0-7.92,1.29-7.92,4.79v9.45h-2.41Z"/><path class="cls-1" d="M177.17,19.79c-.1,2.21-.41,3.09-1.29,4.11-1.36,1.53-3.5,2-8.84,2-4.73,0-6.87-.41-8.12-1.6s-1.9-3.2-1.9-6.7.54-5.44,1.9-6.66,3.4-1.6,8.09-1.6,6.94.41,8.26,1.6a5.26,5.26,0,0,1,1.67,3.94v.34h-2.65V14.9a2.93,2.93,0,0,0-1-2.38c-1-.88-2.45-1.12-6.53-1.12s-5.47.31-6.36,1.56c-.58.82-.85,2.35-.85,4.66,0,2.82.37,4.35,1.26,5.17s2.21,1.09,6.29,1.09c4.56,0,5.95-.34,6.87-1.67a4,4,0,0,0,.58-2.41Z"/><path class="cls-1" d="M183.8,18.1c0,2.82.2,3.6,1.09,4.49,1.05,1.05,2.28,1.29,6.73,1.29,5.71,0,7.14-.58,7.48-3h2.48a4.52,4.52,0,0,1-1.43,3.3c-1.39,1.29-3.64,1.77-8.67,1.77-4.66,0-6.94-.44-8.26-1.6s-2-3.2-2-6.7.58-5.44,2-6.66,3.6-1.6,8.23-1.6c5.51,0,7.72.61,9,2.45.92,1.33,1.22,2.89,1.19,6.29Zm15.26-2a5.7,5.7,0,0,0-.48-2.62c-.92-1.7-2.24-2.11-7.14-2.11s-6.29.41-7.17,2.11a5.4,5.4,0,0,0-.48,2.62Z"/><path class="cls-1" d="M310,95.16h2.73v3H310Z"/><path class="cls-1" d="M333.08,93.51c-.08,1.75-.32,2.46-1,3.27-1.08,1.21-2.78,1.59-7,1.59-3.75,0-5.45-.32-6.45-1.27s-1.51-2.54-1.51-5.32.43-4.32,1.51-5.29,2.7-1.27,6.42-1.27,5.51.32,6.56,1.27a4.18,4.18,0,0,1,1.32,3.13v.27h-2.11v-.27a2.32,2.32,0,0,0-.78-1.89c-.76-.7-1.94-.89-5.18-.89s-4.35.24-5,1.24a6.89,6.89,0,0,0-.67,3.7c0,2.24.3,3.46,1,4.1s1.75.86,5,.86c3.62,0,4.72-.27,5.45-1.32a3.17,3.17,0,0,0,.46-1.92Z"/><path class="cls-1" d="M351.36,86.5c1.11,1,1.57,2.54,1.57,5.32s-.46,4.32-1.57,5.29-2.83,1.27-6.75,1.27S339,98,337.89,97.1s-1.57-2.54-1.57-5.29.46-4.35,1.57-5.32,2.83-1.27,6.83-1.27C348.52,85.23,350.3,85.58,351.36,86.5Zm-13,5.29c0,2.24.32,3.46,1.08,4.1s2.08.86,5.21.86c3.56,0,4.83-.27,5.53-1.21a6.76,6.76,0,0,0,.73-3.75c0-2.21-.32-3.46-1.08-4.08s-2.08-.86-5.29-.86C339.16,86.85,338.35,87.49,338.35,91.79Z"/><path class="cls-1" d="M356.87,85.42h1.92v2.51c.78-2.16,2.05-2.7,6.32-2.7,3.62,0,5,.65,5.61,2.7.84-2.11,2.38-2.7,6.94-2.7,4.8,0,6.18,1.08,6.18,4.91v8h-1.92v-8c0-1.75-.35-2.46-1.4-2.92a8.46,8.46,0,0,0-3.37-.46c-4.16,0-5.83,1.11-5.83,3.83v7.5h-1.92v-8c0-2.7-.94-3.37-4.78-3.37-4.18,0-5.83,1.08-5.83,3.83v7.5h-1.92Z"/><path class="cls-1" d="M4.63,71.06V36.84h8V64.63H38.26v6.43Z"/><path class="cls-1" d="M49.2,44.93q0-4.78,1.79-6.43t6.7-1.66H82.9q4.91,0,6.7,1.66t1.79,6.43V63q0,4.78-1.79,6.43t-6.7,1.66H57.69q-4.91,0-6.7-1.66T49.2,63Zm8,19.7H83.43V42.94H57.16Z"/><path class="cls-1" d="M136.89,42.94H115.4V64.63h21.49V57.27l8,1.66v4q0,4.78-1.79,6.43t-6.7,1.66H115.93q-4.91,0-6.7-1.66T107.44,63v-18q0-4.78,1.79-6.43t6.7-1.66h20.43q4.91,0,6.7,1.66t1.79,6.43v3.25l-8,1.26Z"/><path class="cls-1" d="M161.3,71.06V36.84h8V51.1l19-14.26h11.54L177.15,53l25.47,18.11h-12.8L169.32,56V71.06Z"/><path class="cls-1" d="M214,71.06V36.84h29.32q7.69,0,7.69,6.63v4.18q0,5-5.9,5.77,6.17.8,6.17,6.57v4.38q0,6.7-10.08,6.7Zm26-28.65H221.79v8.16H240q3.65,0,3.65-2.45V44.86Q243.61,42.41,240,42.41Zm0,13.8H221.79v8.69H240a6,6,0,0,0,2.79-.46,2.82,2.82,0,0,0,1.06-2.59V59.26a2.82,2.82,0,0,0-1.06-2.59A6,6,0,0,0,240,56.2Z"/><path class="cls-1" d="M341.39,71.06l16.25-17.58L341.12,36.84h10.55l10.94,11.61L373,36.84h9.15L367.26,52.56,385.7,71.06H374.88L362.35,57.8,350.81,71.06Z"/></svg>