<?xml version="1.0" encoding="iso-8859-1"?>
<!-- Generator: Adobe Illustrator 19.1.0, SVG Export Plug-In . SVG Version: 6.00 Build 0)  -->
<svg version="1.1" baseProfile="tiny" id="Layer_1" xmlns="http://www.w3.org/2000/svg" xmlns:xlink="http://www.w3.org/1999/xlink"
	 x="0px" y="0px" viewBox="0 0 272.8 53" xml:space="preserve">
<g>
	<path fill="#FFFFFF" d="M23.6,6.4c0.6,0,1.3-1,1.3-1.4c0-0.6-0.6-1.1-0.9-1.1c-0.3,0-1.3,0.4-1.3,1.4C22.7,5.8,23.3,6.4,23.6,6.4z"
		/>
	<path fill="#FFFFFF" d="M41.4,10.2c0-0.2-0.2-0.4-0.3-0.4c-0.2,0-0.3,0.1-0.4,0.2c-1.9,1.8-2.9,2.1-3.3,2.1c-0.2,0-0.3-0.1-0.3-0.2
		c0-0.7,2.4-3.1,4.4-5c1.5-0.1,3-0.3,3-0.6c0-0.2-0.1-0.4-0.3-0.7c-0.2-0.3-0.5-0.4-0.9-0.4C43.7,4.8,44,4.6,44,4.5c0,0,0-0.1,0-0.1
		c-0.2-0.4-0.8-1.1-1-1.1c-0.1,0-0.4,0.3-2.7,2.5c-0.5,0.1-1.1,0.1-1.7,0.1c-0.6,0-0.7-0.2-0.9-0.2c-0.1,0-0.1,0.1-0.1,0.1
		c0,0.8,0.4,1.1,1.4,1.1c-1.5,1.5-2.5,2.5-3.1,3.3c-1.2,1.2-2.9,2.3-3.3,2.3c-0.2,0-0.2-0.2-0.2-0.3c0-0.6,2.4-2.7,3.4-3.6
		c0.1-0.1,0.1-0.2,0.1-0.3C35.9,7.9,35,7,34.6,7c0,0-0.1,0-0.1,0C32.9,7.8,31.3,9,31.1,9c0.1-0.2,0.8-0.9,0.8-1.2c0-0.3-0.5-1-0.7-1
		c0,0-0.1,0-0.2,0.1c-1.2,1.5-2.1,2.4-3.6,3.9c-0.7,0.5-1.7,1-3.1,1.5c-0.2,0.1-0.5,0.2-0.8,0.2c-0.5,0-0.6-0.3-0.6-0.6
		c0-0.3,0.2-0.7,0.5-1.2c0.3,0.4,0.8,0.6,1.1,0.6c1.2,0,3.7-2.2,3.7-3.7c0-0.2,0-0.5-0.6-1c-0.4-0.4-0.8-0.8-1.1-0.8
		c-0.6,0-1.5,0.5-2.8,1.7c-0.9,0.9-1.8,1.8-2.2,2.9c-0.2,0.2-0.5,0.4-0.7,0.6c-1.3,0.9-2.1,1.4-2.5,1.4c-0.1,0-0.1,0-0.1-0.1
		c0-0.3,0.7-1,4-4.3c0.1-0.1,0.1-0.2,0.1-0.2c0-0.3-1.1-1.2-1.2-1.2c-0.1,0-0.1,0-0.2,0.1c-0.3,0.2-2.2,2-3.4,3.6
		c-1.3,1.1-3.3,2.5-4.4,2.5c-0.3,0-0.5-0.1-0.5-0.5c0-0.7,0.5-1.6,1.2-2.5c0.2,0.3,0.3,0.4,0.6,0.4c0.7,0,5.9-3.7,7.6-5.7
		c0.3-0.3,0.5-0.6,0.5-1.1c0-0.7-1-1.6-2-1.6c-0.7,0-1.9,0.8-2.7,1.4c-1.9,1.3-4.4,3.7-5.8,5.7c-1.7,1-3.6,2.1-5.6,2.7
		c-0.9,0.3-1.9,0.6-2.7,0.6c-0.6,0-1.3-0.2-1.3-1C2.6,9,7.4,5,11.6,3.1c0.9-0.4,2.7-1.2,3.2-1.2c0.3,0,0.4,0.2,0.4,0.5
		c0,0.1,0,0.2-0.1,0.3c-1.2,1.3-4.4,3-4.7,3.1c-0.1,0,0-0.5-0.2-0.5S7.7,6.3,7.7,7c0,0.6,0.7,1.1,1,1.1c0.7,0,2.2-0.4,3.1-0.9
		c2-1,5.2-3,5.2-4.1c0-0.4-0.3-1.2-0.9-1.7C15.6,0.7,15.2,0,14.3,0c-2,0-5.6,1.8-6.5,2.3C4.8,4,0.9,7.2,0.9,9.9c0,1.5,1.9,3.9,3.3,4
		c0.1,0,0.3,0,0.4,0c0.9,0,1.7-0.2,2.2-0.5c1.5-0.7,3.1-1.7,4.4-2.7C11.1,11,11,11.3,11,11.6c0,1.2,0.9,2.2,2,2.2
		c1.1,0,2.6-0.8,3.7-1.6c0,0.8,0.6,1.5,1.4,1.5c0.6,0,2.3-1.1,3.3-2c0.2,0.7,1.5,2.1,2.1,2.1c1.1,0,2.2-0.6,3.2-1.3
		c0.2,0.4,0.5,0.9,0.8,1c0.1,0,0.1,0.1,0.2,0.1c0.1,0,0.1,0,0.2-0.2c1.2-1.4,2.9-3,4-3.7c0,0,0.1-0.1,0.2-0.1c0,0,0,0,0,0
		c0,0,0,0.1-0.1,0.1c-0.6,0.6-1.4,1.5-1.4,2.3c0,0.9,0.7,1.6,1.5,1.6c0.8,0,1.8-0.7,2.8-1.5c0.1-0.1,0.1-0.1,0.2-0.1
		c0.1,0.6,0.8,1.7,1.5,1.7c0.6,0,1.4-0.4,1.9-0.8C40.9,11.2,41.4,10.5,41.4,10.2z M26.7,7.6c0.1,0,0.2-0.1,0.3-0.1
		c0.1,0,0.2,0,0.2,0.2c0,0.5-2,2.8-2.9,2.8c-0.1,0-0.2,0-0.4-0.2C24.6,9.3,25.6,8.4,26.7,7.6z M20.8,3.2c0.2,0,0.2,0.1,0.2,0.3
		c0,0.8-6.1,5.6-6.5,5.6c-0.1,0-0.1,0-0.1-0.1C16.8,6.2,20.6,3.2,20.8,3.2z"/>
	<path fill="#FFFFFF" d="M31.8,19.2c-1.8-0.9-3.2-1.1-8.8-1.1H1.6v26.7h8.5v-6.6h13.7c4.3,0,6.3-0.2,7.8-0.9
		c2.8-1.3,3.9-3.9,3.9-9.5C35.4,23,34.4,20.6,31.8,19.2z M22.5,31.8H10.1v-7.2h12.4c3.7,0,4.5,0.7,4.5,3.9C27,31,26,31.8,22.5,31.8z
		"/>
	<path fill="#FFFFFF" d="M116.2,26.9c0-4.2-1.1-6.6-3.4-7.8c-1.6-0.8-3.6-1-7.8-1H80.9v26.7h8.5v-6.7h13.1c2.3,0,3,0.1,3.7,0.5
		c0.8,0.5,1.1,1.4,1.1,2.9v3.3h8.7v-4.2c0-2-0.2-3-0.8-4c-0.8-1.3-2-1.7-5.2-1.9l-1.4-0.1c3.4-0.5,4.4-0.7,5.4-1.4
		C115.4,32.2,116.2,30.1,116.2,26.9z M102.7,31.6H89.4v-6.9H103c2.6,0,3.2,0.1,3.9,0.8c0.5,0.6,0.7,1.3,0.7,3.2
		C107.6,31,106.8,31.6,102.7,31.6z"/>
	<polygon fill="#FFFFFF" points="151,18.1 117.6,18.1 117.6,24.7 130,24.7 130,44.8 138.6,44.8 138.6,24.7 151,24.7 	"/>
	<path fill="#FFFFFF" d="M157.8,18.1l-15.8,26.7h9.7l2.7-4.8h18.1l2.8,4.8h9.3l-15.3-26.7H157.8z M157.5,34.5l6-10.6l6,10.6H157.5z"
		/>
	<polygon fill="#FFFFFF" points="194.3,18.1 185.8,18.1 185.8,44.8 213.6,44.8 213.6,38.2 194.3,38.2 	"/>
	<path fill="#FFFFFF" d="M266.7,32.1c1.4,0,2.4,0.6,3,1.3c0.7,0.8,1.2,1.8,1.5,2.5c0,0.1,0.1,0.2,0.2,0.1l0.4-0.1
		c0.1,0,0.1-0.1,0.1-0.3l-0.2-3.7c0-0.1,0-0.3-0.2-0.3c-0.1,0-0.2,0.1-0.3,0.2l-0.2,0.3c-0.1,0.1-0.2,0.2-0.4,0c-0.6-0.4-2-1-3.7-1
		c-3.4,0-5.8,0.7-7.4,5.6l-1.5,3.9l-2.3-5.1c0,0-1-2.3-1.4-2.3c-0.4,0-1.4,2.1-1.4,2.1s-2.5,5.3-2.6,5.7l0,0l-2.8-8.4
		c-0.1-0.4,0.1-0.6,0.4-0.6h0.3c0.1,0,0.2-0.1,0.2-0.1v-0.5c0-0.1,0-0.1-0.1-0.1c-0.1,0-1,0-1.8,0c-0.1,0-0.2,0.3-0.4,0.6
		c-0.6,1.2-3.2,7.1-3.4,7.5h-0.1l-3.3-7.7c-0.1-0.2-0.2-0.4-0.5-0.4c-0.3,0-0.4,0.3-0.5,0.5c-0.4,0.9-4.1,11.1-4.3,11.6
		c-0.2,0.4-0.5,0.6-0.8,0.6h-0.4c-0.1,0-0.1,0.1-0.1,0.1v0.5c0,0.1,0,0.1,0.1,0.1c0.1,0,0.7-0.1,1.7-0.1c1.1,0,1.8,0.1,1.9,0.1
		c0.1,0,0.1-0.1,0.1-0.1v-0.4c0-0.1,0-0.1-0.1-0.1h-0.5c-0.4,0-0.6-0.3-0.6-0.5c0-1,2.1-7,2.6-8.6h0.1l2.6,6.5c0,0,0.6,1.4,1,1.4
		c0.6,0,1.4-2,1.4-2s2.5-5.5,2.6-5.9l0,0l2.8,8.4c0.1,0.4-0.1,0.6-0.4,0.6h-0.3c-0.1,0-0.2,0.1-0.2,0.1v0.5c0,0.1,0,0.1,0.1,0.1
		c0.1,0,0.6,0,1.5,0c0.1,0,0.3-0.1,0.3-0.2c0.1-0.1,0.1-0.2,0.2-0.2c0.1-0.2,3.3-7,3.5-7.5h0.1l3.3,7.5c0.1,0.2,0.2,0.4,0.5,0.4
		c1,0,1.3-0.4,1.7-1.5c0.2-0.6,1.4-3.9,2.5-6.8C262.7,33.1,264.7,32.1,266.7,32.1z"/>
	<path fill="#FFFFFF" d="M272.6,38.9c-0.2,0-0.8,0.1-2.3,0.1c-1.5,0-2.4-0.1-2.6-0.1c-0.1,0-0.1,0-0.1,0.1v0.4c0,0.1,0,0.2,0.1,0.2
		h0.8c0.5,0,0.7,0.2,0.7,0.8v1.3c0,0.9,0,1.5-0.4,1.7c-0.6,0.3-1.3,0.3-2.5,0.3c-1.8,0-3.1-1.1-4.6-2.4c-0.2-0.2-0.4-0.1-0.4,0
		c-0.1,0.1-0.3,0.7-0.4,0.9c-0.1,0.2-0.1,0.3,0.1,0.5c1.3,1.4,3.4,2,5.1,2c2.2,0,3.7-0.4,5.2-1.2c0.2-0.1,0.3-0.1,0.3-0.3
		s-0.1-0.3-0.1-0.6v-2.4c0-0.5,0.2-0.7,0.5-0.7h0.6c0.1,0,0.1,0,0.1-0.1V39C272.8,38.9,272.7,38.9,272.6,38.9z"/>
	<path fill="#FFFFFF" d="M223.5,40.2c0-0.4-0.3-0.7-0.7-1.1c-0.3-0.3-0.8-0.6-1.4-0.6c2.5-2.5,4.5-3.8,5.1-4.6
		c0.1-0.1,0.1-0.2,0.1-0.2c0-0.4-0.8-1.3-1-1.3c-0.1,0-0.3,0.1-0.4,0.2c-0.9,0.8-1.9,1.6-4.4,4.1c-1.9,1.9-3.1,3-3.9,4.5
		c-0.3,0.5-0.7,1.2-0.7,1.9c0,0.3,0,0.6,0.6,1.2c0.7,0.7,1.1,1.2,1.8,1.2c1.7,0,4.1-3.1,4.7-4.5C223.4,40.8,223.5,40.5,223.5,40.2z
		 M219.3,43.3c-0.5,0.4-0.8,0.6-1.1,0.6c-0.2,0-0.2-0.2-0.2-0.3c0-0.9,2.7-4.2,3.7-4.2c0.1,0,0.3,0.1,0.3,0.3
		C222,40.4,220.1,42.6,219.3,43.3z"/>
	<path fill="#FFFFFF" d="M233.1,39.7c0-0.6-0.9-1.2-1.2-1.2c-0.2,0-0.4,0.1-0.5,0.2c-3.6,2.9-5,4.3-6.6,5.2c-0.1,0-0.1,0.1-0.2,0.1
		c-0.1,0-0.2-0.1-0.2-0.2c0-0.1,0-0.1,0.1-0.2c1.4-1.5,3-2.8,4.6-4.1c0,0,0.1-0.1,0.1-0.1c0-0.2-0.8-1.2-1.5-1.2c-0.1,0-0.1,0-0.2,0
		c-2.6,2.1-4.8,3.6-4.8,5.3c0,0.3,0.2,0.8,0.3,1.1c0.4,0.7,0.7,0.9,1,0.9c0.2,0,0.6,0,2.6-1.7c0,0,0.1-0.1,0.1-0.1c0,0,0,0,0,0
		s0,0.1-0.1,0.1c-1.2,1.2-2,2-2.9,3.1c-0.7,0.8-1.5,1.8-1.5,2.8c0,0.9,0.8,1.6,1,1.6c0.1,0,0.4-0.6,0.6-0.8c2.3-3.4,4.8-6.3,7.7-9.2
		C232.3,40.6,233.1,39.9,233.1,39.7z"/>
	<path fill="#FFFFFF" d="M67,16c0,0,4.9-3.7,14.4-4.3c0,0-8.9-1.6-12.8,1.2c0,0-2-3.9-3.8-6.1C64.8,6.8,67.3,12.7,67,16z"/>
	<path fill="#FFFFFF" d="M81.8,12.9l-0.3-0.4C73.6,17,64.2,27.5,63.8,28l-0.4,0.3l7,2.9l-16.2,6.7L49,21.4l7.4,3.9
		c0,0,1-14.4,4.7-21.8l-0.4-0.2c-1,2-1.8,4.2-2.6,6.5c0,0,0,0,0,0c-11.7,0-21.1,9.5-21.1,21.1C36.9,42.5,46.4,52,58,52
		c11.7,0,21.1-9.5,21.1-21.1c0-4.7-1.6-9.1-4.2-12.6C77.2,16.1,79.5,14.2,81.8,12.9z M58,49c-10,0-18.1-8.1-18.1-18.1
		c0-9.7,7.7-17.6,17.2-18.1c-1.2,4.3-2,8.3-2.4,10.2l-6.7-2.8l4.4,22.3l21.1-11l-7.4-3.2c1.2-1.5,3.7-4.6,6.7-7.8
		c2.1,3,3.4,6.6,3.4,10.5C76.2,40.9,68,49,58,49z"/>
</g>
</svg>
