<?xml version="1.0" encoding="UTF-8"?>
<svg id="Layer_1" data-name="Layer 1" xmlns="http://www.w3.org/2000/svg" viewBox="0 0 750 175">
  <defs>
    <style>
      .cls-1 {
        fill: #0c3b5f;
      }

      .cls-1, .cls-2 {
        stroke-width: 0px;
      }

      .cls-2 {
        fill: #0070af;
      }
    </style>
  </defs>
  <path class="cls-2" d="M181.94,56.14h-4v-8.32c0-17.79-14.47-32.25-32.25-32.25H46.86c-17.79,0-33.29,14.47-33.29,32.25v76.9L0,159.02l45.16-25.82h86.17c6.1,0,11.3-2.16,15.62-6.47,4.31-4.31,6.47-9.52,6.47-15.62v-10.43c0-6.1-2.16-11.3-6.47-15.62-4.31-4.31-9.52-6.47-15.62-6.47H58.96c-2.76,0-5.12-.98-7.08-2.95-1.96-1.96-2.95-4.32-2.95-7.08v-10.43c0-2.75.98-5.12,2.95-7.08,1.96-1.96,4.32-2.95,7.08-2.95h72.36c2.75,0,5.12.98,7.08,2.95,1.96,1.97,2.95,4.33,2.95,7.08h12.06c0-6.1-2.16-11.3-6.47-15.62-4.31-4.31-9.52-6.47-15.62-6.47H58.96c-6.1,0-11.3,2.16-15.62,6.47-4.31,4.31-6.47,9.52-6.47,15.62v10.43c0,6.1,2.16,11.3,6.47,15.62,4.31,4.31,9.52,6.47,15.62,6.47h72.36c2.75,0,5.12.98,7.08,2.95,1.96,1.96,2.95,4.33,2.95,7.08v10.43c0,2.76-.98,5.12-2.95,7.08-1.97,1.96-4.33,2.95-7.08,2.95l-86.17,1.59s-25.75,14.99-25.75,14.99l4.3-13h.02V47.83c0-12.18,10.94-22.09,23.12-22.09h98.83c12.18,0,22.09,9.91,22.09,22.09v8.32h-3.93c-3.36,0-6.1,2.75-6.1,6.1v40.02c0,3.36,2.75,6.1,6.1,6.1h4.43c.33,0-.19,15.45-.29,16.87-.65,8.74-4.99,17.03-13.65,20.08-4.06,1.43-8.46,1.48-12.77,1.51-9.71,0-19.42.2-29.12.17-.67,0-1.33,0-1.98,0,.1,1.67-.58,3.41-1.9,5.22.65-1.68.82-3.41.11-5.32-.97-2.08-3.08-3.53-5.52-3.53h-20.06c-3.36,0-6.1,2.75-6.1,6.1v3.87c0,3.36,2.75,6.1,6.1,6.1h20.06c1.91,0,3.62-.89,4.74-2.28,1.48,0,2.99,0,4.52.01,11.41.03,22.93.36,34.32-.44,3.98-.28,7.98-.76,11.76-2.04,8.1-2.74,14.52-10.13,17.49-18.01,3.11-8.24,2.69-17.31,2.49-26.01h-1.62c.26,14.04-.6,29.48-11.57,38.09l-.06.04c-7.84,5.21-15.35,6.11-29.71,6.11-3.33,0-7.04-.05-11.2-.1-3.6-.05-7.67-.1-12.1-.13-.48,0-.86-.39-.85-.87,0-.47.39-.85.86-.85h0c4.44.03,8.51.08,12.11.13,21.7.28,30.7.4,39.91-5.7,10.59-8.34,11.17-23.81,10.86-37.69,0-.06-.02-.11-.02-.17,0-.63.51-1.14,1.14-1.14h2.19s0,0,0-.01h3.49c3.36,0,6.1-2.75,6.1-6.1v-40.02c0-3.36-2.75-6.1-6.1-6.1ZM44.72,128.44h.21s87.6-.39,87.6-.39h0c.47,0,.86.38.86.86,0,.48-.38.86-.86.86l-87.38.39L3.78,154.89l9.31-22.47c.18-.44.68-.65,1.12-.47.44.18.65.69.47,1.12l-7.48,18.05,37.52-22.7ZM105.09,155.69c0,.49-.4.88-.88.88h-22.23c-.49,0-.88-.4-.88-.88v-1.68c0-.49.4-.88.88-.88h22.23c.49,0,.88.4.88.88v1.68ZM183.67,100.05c-.54-18.4-5.71-32.54-19.93-38.39h15.23c2.6,0,4.7,2.1,4.7,4.7v33.69Z"/>
  <g>
    <path class="cls-1" d="M293.38,123.17h-50.99c-4.71,0-8.72-1.66-12.04-4.97-3.32-3.32-4.97-7.33-4.97-12.04h11.34c0,1.56.56,2.89,1.67,4,1.11,1.11,2.45,1.67,4.01,1.67h50.99c1.56,0,2.89-.56,4.01-1.67,1.11-1.11,1.67-2.45,1.67-4v-7.31c0-1.59-.56-2.94-1.67-4.03-1.11-1.09-2.45-1.64-4.01-1.64h-50.99c-4.71,0-8.72-1.67-12.04-5-3.32-3.33-4.97-7.34-4.97-12.01v-7.36c0-4.68,1.66-8.67,4.97-11.99,3.32-3.32,7.33-4.97,12.04-4.97h50.99c4.68,0,8.68,1.66,12.01,4.97,3.33,3.32,5,7.31,5,11.99h-11.34c0-1.56-.56-2.89-1.67-3.98-1.11-1.09-2.45-1.64-4.01-1.64h-50.99c-1.56,0-2.89.55-4.01,1.64-1.11,1.09-1.67,2.42-1.67,3.98v7.36c0,1.56.56,2.89,1.67,4,1.11,1.11,2.45,1.67,4.01,1.67h50.99c4.68,0,8.68,1.66,12.01,4.97,3.33,3.32,5,7.33,5,12.04v7.31c0,4.71-1.67,8.72-5,12.04-3.33,3.32-7.34,4.97-12.01,4.97Z"/>
    <path class="cls-1" d="M418.57,123.17h-13.73l-10.45-15.47h-54.18l-10.5,15.47h-13.68l48.26-71.34h6.02l48.26,71.34ZM386.73,96.36l-19.45-28.75-19.45,28.75h38.9Z"/>
    <path class="cls-1" d="M429.42,123.17V51.83h11.34v60h53.98v11.34h-65.32Z"/>
    <path class="cls-1" d="M506.5,123.17V51.83h11.34v60h53.98v11.34h-65.32Z"/>
    <path class="cls-1" d="M583.58,123.17V51.83h11.34v71.34h-11.34Z"/>
    <path class="cls-2" d="M617.3,123.17h-11.34v-9.05h11.34v9.05Z"/>
    <path class="cls-1" d="M727.82,123.17h-13.73l-10.45-15.47h-54.18l-10.5,15.47h-13.68l48.26-71.34h6.02l48.26,71.34ZM695.98,96.36l-19.45-28.75-19.45,28.75h38.9Z"/>
    <path class="cls-1" d="M738.66,123.17V51.83h11.34v71.34h-11.34Z"/>
  </g>
</svg>