<svg xmlns="http://www.w3.org/2000/svg" viewBox="0 0 100 100"><title>logodisability</title><path d="M99,49.48A49,49,0,1,1,49.49,1,49,49,0,0,1,99,49.48Z" fill="#fff" stroke="#66b2e3" stroke-width="1.99"/><path d="M49.54,5.55a44.42,44.42,0,1,0,44.89,44A44.43,44.43,0,0,0,49.54,5.55Z" fill="#66b2e3"/><path d="M47.08,75A15.4,15.4,0,0,1,36.91,48V41.48A20.78,20.78,0,1,0,62.43,73.6l-1.56-7.14A15.41,15.41,0,0,1,47.08,75Z" fill="#fff"/><path d="M78.76,69.42a2.84,2.84,0,0,0-3.46-2l-4.29.9L67.52,51.57a3,3,0,0,0-3-2.64H47.87V44.87h10a2.88,2.88,0,1,0,0-5.76h-10V35.26a3,3,0,0,0-3-3H43a3,3,0,0,0-3,3V52.89a3,3,0,0,0,3,3H61.42l3.34,16.06a3,3,0,0,0,3.54,2.32l.82-.17c.11,0,.22,0,.33-.06l6.91-1.43A2.85,2.85,0,0,0,78.76,69.42Z" fill="#fff"/><path d="M44,30.64a6.46,6.46,0,1,0-6.45-6.46A6.46,6.46,0,0,0,44,30.64Z" fill="#fff"/></svg>