<svg xmlns="http://www.w3.org/2000/svg" viewBox="0 0 100 100"><title>logoidentity</title><path d="M99,49.48A49,49,0,1,1,49.49,1,49,49,0,0,1,99,49.48Z" fill="#fff" stroke="#626d98" stroke-width="1.99"/><path d="M49.54,5.55a44.42,44.42,0,1,0,44.89,44A44.43,44.43,0,0,0,49.54,5.55Z" fill="#626d98"/><path d="M68.66,42.93h-1V35.84a18,18,0,0,0-35.91,0v7.09h-1a2.61,2.61,0,0,0-2.61,2.6V74.07a2.62,2.62,0,0,0,2.61,2.61H68.66a2.62,2.62,0,0,0,2.6-2.61V45.53A2.61,2.61,0,0,0,68.66,42.93Zm-32,26.44a1.43,1.43,0,1,1,1.43-1.43A1.43,1.43,0,0,1,36.7,69.37Zm0-8.54a1.43,1.43,0,1,1,1.43-1.42A1.43,1.43,0,0,1,36.7,60.83Zm0-8.53a1.43,1.43,0,1,1,1.43-1.43A1.43,1.43,0,0,1,36.7,52.3ZM62.49,69.77H45.6a1.63,1.63,0,1,1,0-3.25H62.49a1.63,1.63,0,0,1,0,3.25Zm0-8.53H45.6a1.63,1.63,0,1,1,0-3.26H62.49a1.63,1.63,0,0,1,0,3.26Zm0-8.54H45.6a1.63,1.63,0,1,1,0-3.25H62.49a1.63,1.63,0,0,1,0,3.25Zm-2-9.77H38.9V35.84a10.8,10.8,0,1,1,21.59,0Z" fill="#fff"/></svg>