<svg id="Layer_1" data-name="Layer 1" xmlns="http://www.w3.org/2000/svg" viewBox="0 0 612 150.51">
  <defs>
    <style>
      .cls-1 {fill: #000;}
      .cls-2 {fill: #fff;}
    </style>
  </defs>
  <title>black</title>
  <rect class="cls-1" width="612" height="150.51"/>
  <g>
    <path class="cls-2" d="M186.38,61c-4.88-4.79-11.52-6.12-19.94-6.43,0,0-11.38.22-14.24.22V95.72c9.13,0,21.79.81,28.15-1.83C192.19,89,196.38,70.8,186.38,61ZM167.19,83.3V67.58C180.39,66.48,180.28,84.58,167.19,83.3Z"/>
    <path class="cls-2" d="M403.72,55.26h14.62c7.22,13.92,12.43,20.84,12.43,20.84V55.26c4.76,0,9.71.06,14.49.06,0,10.17,0,24.84,0,40.52H430c-2.48-4.2-7.25-12.59-11.75-19.38,0,3.38.06,14.5.05,19.38H403.72C403.6,90.33,403.93,65.44,403.72,55.26Z"/>
    <path class="cls-2" d="M107.45,40.92l24.3,41.21L122.9,95.71H73.74L65.88,82.55,83.4,54.74H98.49l.77,0L91.8,40.92Zm-8.4,14.72L84,82.14h30.74L99.32,55.08Z"/>
    <polygon class="cls-2" points="301.71 54.78 301.71 54.78 287.77 54.78 287.77 54.78 272.98 95.72 287.23 95.72 294.74 71.29 302.25 95.72 316.51 95.72 301.71 54.78"/>
    <polygon class="cls-2" points="502.15 54.78 502.15 54.78 488.21 54.78 488.21 54.78 473.42 95.72 487.67 95.72 495.18 71.29 502.69 95.72 516.95 95.72 502.15 54.78"/>
    <polygon class="cls-2" points="222.02 95.72 194.3 95.72 194.3 54.79 222.02 54.79 222.02 65.78 209.1 65.78 209.1 69.8 220.55 69.8 220.55 80.45 209.19 80.45 209.19 84.55 222.02 84.55 222.02 95.72"/>
    <path class="cls-2" d="M364.56,61c-4.88-4.79-11.52-6.12-19.94-6.43,0,0-11.38.22-14.24.22V95.72c9.13,0,21.79.81,28.15-1.83C370.37,89,374.56,70.8,364.56,61ZM345.37,83.3V67.58C358.56,66.48,358.46,84.58,345.37,83.3Z"/>
    <polygon class="cls-2" points="400.19 95.72 372.48 95.72 372.48 54.79 400.2 54.79 400.2 65.78 387.28 65.78 387.28 69.8 398.73 69.8 398.73 80.45 387.37 80.45 387.37 84.55 400.19 84.55 400.19 95.72"/>
    <polygon class="cls-2" points="225.48 95.71 225.48 54.77 240.23 54.77 240.23 82.46 252.7 82.46 252.7 95.71 225.48 95.71"/>
    <polygon class="cls-2" points="518.91 95.71 518.91 54.77 533.66 54.77 533.66 82.46 546.13 82.46 546.13 95.71 518.91 95.71"/>
    <polygon class="cls-2" points="248.16 67.98 248.16 54.79 279.31 54.79 279.31 67.98 271.34 67.98 271.34 95.72 255.99 95.72 255.99 67.98 248.16 67.98"/>
    <polygon class="cls-2" points="448.34 67.98 448.34 54.79 479.49 54.79 479.49 67.98 471.51 67.98 471.51 95.72 456.16 95.72 456.16 67.98 448.34 67.98"/>
    <path class="cls-2" d="M545.31,57.83a5.56,5.56,0,1,1,5.56,5.53A5.51,5.51,0,0,1,545.31,57.83Zm10.27,0a4.71,4.71,0,1,0-4.71,4.68A4.72,4.72,0,0,0,555.58,57.83Zm-2.07,3h-1L550.67,58h-1v2.79h-.85V54.77h2.64c1.09,0,2.16.3,2.16,1.6S552.75,58,551.68,58Zm-2.83-3.64c.75,0,2.07.14,2.07-.82,0-.62-.82-.74-1.47-.74h-1.62v1.56Z"/>
  </g>
</svg>
