<?xml version="1.0" encoding="UTF-8"?>
<svg id="Layer_1" data-name="Layer 1" xmlns="http://www.w3.org/2000/svg" viewBox="0 0 431.32 88.04">
  <defs>
    <style>
      .cls-1 {
        fill: #006d9e;
      }

      .cls-2 {
        fill: #fff;
      }

      .cls-3 {
        fill: #00a7e0;
      }
    </style>
  </defs>
  <g>
    <path class="cls-2" d="M109.86,61.19c-.06,.18-.98,4.54-1.29,5.83h-3.5c0-.67,.25-2.52,.49-3.44-1.6,3.01-3.81,3.99-6.2,3.99-5.65,0-6.87-4.42-5.4-11.48l4.17-19.82c1.53-7.24,3.99-10.86,9.94-10.8,7.43,.06,7.98,6.01,6.93,10.49l-.18,.86h-4.23l.18-.98c.68-3.68,.37-6.63-3.13-6.63-2.45,0-3.99,1.53-5.16,7l-4.17,20.07c-1.04,4.79-.68,7.55,2.52,7.55,3.68,0,4.97-3.56,6.38-10.19l1.04-5.15h-4.6l.8-3.74h8.84l-3.44,16.45Z"/>
    <path class="cls-2" d="M122.23,26.02h6.51c6.14,0,8.41,3.74,7.18,9.76l-.49,2.45c-1.17,5.77-3.56,7.24-5.83,7.79,2.21,1.23,3.07,3.74,1.84,9.33-.67,3.44-1.96,9.08-2.03,11.66h-4.23c.06-2.64,1.29-8.04,2.27-12.77,1.04-5.09,0-6.63-3.62-6.63h-1.96l-4.11,19.39h-4.23l8.71-41Zm.43,17.92h1.78c4.48,0,5.89-1.41,6.75-5.89l.43-2.58c.68-3.68,0-5.77-3.68-5.77h-2.27l-3.01,14.24Z"/>
    <path class="cls-2" d="M156.99,36.52l-4.36,20.31c-1.47,6.75-3.62,10.74-10.06,10.74s-8.29-4.6-7-11.05l4.42-20.99c1.35-6.38,4.3-10.06,9.94-10.06,6.2,0,8.41,4.54,7.06,11.05Zm-12.64-.98l-4.54,21.54c-.92,4.42-.06,6.81,3.19,6.81,2.88,0,4.23-2.27,5.22-6.69l4.54-21.36c.92-4.3-.06-6.63-3.25-6.63-2.82,0-4.3,2.27-5.15,6.32Z"/>
    <path class="cls-2" d="M168.33,26.02l-6.81,31.79c-.68,3.25-.25,5.89,3.19,5.89s4.3-2.52,5.03-5.95l6.75-31.73h4.3l-6.69,31.36c-1.35,6.38-3.31,10.13-9.82,10.13-5.89,0-8.35-3.37-6.93-9.94l6.69-31.54h4.3Z"/>
    <path class="cls-2" d="M186.35,26.02h6.69c6.32,0,8.35,4.05,7.12,10.25l-.55,2.82c-1.23,6.2-3.68,9.51-11.11,9.51h-2.76l-3.87,18.41h-4.23l8.71-41Zm.18,18.96h2.52c4.3,0,5.4-2.09,6.32-6.2l.49-2.52c.8-3.56,.67-6.63-3.44-6.63h-2.64l-3.25,15.34Z"/>
    <path class="cls-2" d="M224.52,56.03l-.18,.74c-1.29,5.52-2.76,10.8-9.82,10.8-6.51,0-7.98-4.36-6.57-11.17l4.3-20.07c1.59-7.61,4.05-10.86,9.45-10.86,7.55,0,7.98,5.77,6.75,10.8l-.18,.8h-4.23l.18-1.11c.86-3.93,.74-6.75-2.76-6.75-2.76,0-3.81,2.33-4.73,6.5l-4.48,20.93c-1.04,5.03-.37,7.24,2.76,7.24,2.82,0,3.81-2.52,4.85-6.63l.31-1.23h4.36Z"/>
    <path class="cls-2" d="M248.92,36.52l-4.36,20.31c-1.47,6.75-3.62,10.74-10.07,10.74s-8.28-4.6-7-11.05l4.42-20.99c1.35-6.38,4.3-10.06,9.94-10.06,6.2,0,8.41,4.54,7.06,11.05Zm-12.64-.98l-4.54,21.54c-.92,4.42-.06,6.81,3.19,6.81,2.89,0,4.23-2.27,5.22-6.69l4.54-21.36c.92-4.3-.06-6.63-3.25-6.63-2.82,0-4.3,2.27-5.15,6.32Z"/>
    <path class="cls-2" d="M247.5,67.02l8.71-41h5.15l1.11,24.18c.25,5.28,.31,7.24,.25,8.53h.12c.98-5.65,2.09-11.6,3.5-18.23l3.07-14.48h4.11l-8.71,41h-5.03l-1.1-24.18c-.31-5.58-.37-8.41-.37-9.33h-.06c-.8,5.22-1.96,11.48-3.5,18.9l-3.13,14.61h-4.11Z"/>
    <path class="cls-2" d="M270.39,67.02l8.71-41h5.15l1.11,24.18c.25,5.28,.31,7.24,.25,8.53h.12c.98-5.65,2.09-11.6,3.5-18.23l3.07-14.48h4.11l-8.71,41h-5.03l-1.1-24.18c-.31-5.58-.37-8.41-.37-9.33h-.06c-.8,5.22-1.96,11.48-3.5,18.9l-3.13,14.61h-4.11Z"/>
    <path class="cls-2" d="M310.6,47.07h-8.84l-3.38,16.08h10.49l-1.35,3.87h-14.24l8.71-41h13.62l-.86,3.87h-9.39l-2.76,13.26h8.84l-.86,3.93Z"/>
    <path class="cls-2" d="M328.31,56.03l-.18,.74c-1.29,5.52-2.76,10.8-9.82,10.8-6.51,0-7.98-4.36-6.57-11.17l4.3-20.07c1.59-7.61,4.05-10.86,9.45-10.86,7.55,0,7.98,5.77,6.75,10.8l-.18,.8h-4.23l.18-1.11c.86-3.93,.74-6.75-2.76-6.75-2.76,0-3.81,2.33-4.73,6.5l-4.48,20.93c-1.04,5.03-.37,7.24,2.76,7.24,2.82,0,3.81-2.52,4.85-6.63l.31-1.23h4.36Z"/>
    <path class="cls-2" d="M339.46,29.95h-6.38l.86-3.93h17l-.86,3.93h-6.38l-7.86,37.07h-4.23l7.86-37.07Z"/>
  </g>
  <g>
    <path class="cls-2" d="M357.39,60.55c.03-.68-.04-1.3-.23-1.87-.19-.56-.47-1.05-.84-1.46-.37-.41-.83-.72-1.37-.94-.54-.22-1.16-.33-1.84-.33-.8,0-1.54,.18-2.23,.53-.68,.36-1.26,.84-1.72,1.47h-.04l1.86-7.84h-2.62l-3.8,16.8h2.47l.4-1.82h.04c.32,.67,.82,1.19,1.5,1.55,.68,.36,1.42,.54,2.22,.54,.86,0,1.66-.17,2.39-.52,.74-.35,1.38-.82,1.93-1.42,.55-.6,.99-1.3,1.32-2.1,.33-.8,.52-1.66,.56-2.58Zm-3.02,1.93c-.2,.51-.46,.95-.8,1.33-.34,.38-.74,.68-1.2,.9-.46,.22-.97,.33-1.52,.33-.83,0-1.48-.26-1.94-.77-.46-.52-.67-1.18-.63-1.99,.03-.56,.15-1.1,.37-1.61,.22-.51,.5-.96,.86-1.34,.35-.38,.76-.69,1.23-.91,.47-.22,.96-.33,1.48-.33,.84,0,1.48,.27,1.9,.8,.42,.53,.62,1.19,.58,1.97-.03,.58-.14,1.12-.34,1.63Z"/>
    <path class="cls-2" d="M362.92,64.06h-.04l-.98-7.82h-2.8l1.86,10.69-.87,1.38c-.35,.56-.68,.98-.96,1.26-.29,.27-.68,.41-1.16,.41-.15,0-.31-.01-.48-.03-.17-.02-.33-.06-.49-.12l-.45,2.27c.22,.06,.44,.1,.67,.12,.23,.02,.45,.03,.68,.03,.52,0,.97-.07,1.37-.2,.39-.13,.75-.33,1.08-.59,.33-.26,.64-.58,.93-.96s.57-.8,.86-1.28l8.21-12.98h-2.76l-4.66,7.82Z"/>
    <polygon class="cls-2" points="383.46 62.43 383.42 62.43 381.86 51.17 377.59 51.17 374.02 66.9 376.62 66.9 379.5 54.21 379.55 54.21 381.46 66.9 383.37 66.9 391.1 54.21 391.17 54.21 388.26 66.9 390.97 66.9 394.52 51.17 390.19 51.17 383.46 62.43"/>
    <polygon class="cls-2" points="414.69 51.17 408.66 62.81 408.62 62.81 407.98 51.17 405.14 51.17 398.86 62.81 398.82 62.81 398.63 51.17 395.74 51.17 396.41 66.9 399.08 66.9 405.63 55.01 405.68 55.01 406.52 66.9 409.19 66.9 417.6 51.17 414.69 51.17"/>
    <path class="cls-2" d="M423.96,60.3h3.38l-.89,4c-.44,.21-.89,.36-1.34,.44-.46,.09-.97,.14-1.55,.16-.76,0-1.43-.12-2.02-.36-.59-.24-1.08-.56-1.47-.98-.39-.41-.68-.91-.87-1.49-.19-.58-.26-1.21-.23-1.89,.04-.89,.24-1.75,.6-2.6,.35-.84,.82-1.6,1.41-2.27,.59-.67,1.28-1.2,2.08-1.6,.8-.4,1.66-.6,2.6-.6,.86,0,1.57,.16,2.12,.48,.55,.32,.99,.71,1.31,1.19l2.24-1.62c-.55-.81-1.31-1.42-2.27-1.81-.97-.39-2.03-.59-3.18-.59-1.3,0-2.53,.26-3.68,.77-1.15,.51-2.17,1.21-3.05,2.09-.88,.88-1.59,1.91-2.12,3.1-.53,1.19-.84,2.46-.9,3.82-.05,1.01,.08,1.93,.38,2.76,.31,.83,.76,1.54,1.36,2.13,.6,.59,1.34,1.05,2.22,1.38,.88,.33,1.87,.49,2.96,.49,1.01,0,2.01-.11,3.01-.33,1-.22,1.9-.52,2.7-.91l1.81-8.11h-6.02l-.56,2.35Z"/>
  </g>
  <g>
    <path class="cls-2" d="M44.02,0C19.75,0,0,19.75,0,44.02s19.75,44.02,44.02,44.02,44.02-19.75,44.02-44.02S68.29,0,44.02,0Zm0,83.04c-19.78,0-36.12-14.73-38.67-33.82-.23-1.7-.36-3.44-.36-5.2s.13-3.5,.36-5.2C7.9,19.73,24.24,5,44.02,5c16,0,29.74,9.63,35.76,23.41h-12.48c-5.04-7.49-13.59-12.43-23.28-12.43-13.68,0-25.1,9.85-27.55,22.84-.32,1.69-.49,3.43-.49,5.2s.17,3.52,.49,5.2c2.45,12.98,13.87,22.83,27.55,22.83s25.1-9.85,27.55-22.83h-22.49l3.41,3.41c2.03,2.03,2.03,5.33,0,7.36-1.02,1.02-2.35,1.52-3.68,1.52s-2.66-.51-3.68-1.52l-15.97-15.97,15.97-15.98c2.03-2.03,5.33-2.03,7.36,0,2.03,2.03,2.03,5.33,0,7.36l-3.41,3.41h33.6c.23,1.7,.36,3.44,.36,5.2s-.13,3.5-.36,5.2c-2.55,19.09-18.88,33.82-38.67,33.82Z"/>
    <path class="cls-1" d="M15.98,44.02c0-1.78,.17-3.52,.49-5.2,2.45-12.98,13.87-22.84,27.55-22.84,9.69,0,18.24,4.94,23.28,12.43h12.48c-6.02-13.78-19.77-23.41-35.76-23.41C24.24,5,7.9,19.73,5.36,38.82c-.23,1.7-.36,3.44-.36,5.2s.13,3.5,.36,5.2h11.12c-.32-1.69-.49-3.43-.49-5.2Z"/>
    <path class="cls-3" d="M82.69,38.82H49.08l3.41-3.41c2.03-2.03,2.03-5.33,0-7.36-2.03-2.03-5.33-2.03-7.36,0l-15.97,15.98,15.97,15.97c1.02,1.02,2.35,1.52,3.68,1.52s2.66-.51,3.68-1.52c2.03-2.03,2.03-5.33,0-7.36l-3.41-3.41h22.49c-2.45,12.98-13.87,22.83-27.55,22.83s-25.1-9.85-27.55-22.83H5.36c2.55,19.09,18.88,33.82,38.67,33.82s36.12-14.73,38.67-33.82c.23-1.7,.36-3.44,.36-5.2s-.13-3.5-.36-5.2Z"/>
  </g>
</svg>