<svg xmlns="http://www.w3.org/2000/svg" viewBox="0 0 100.08 96.05"><defs><style>.a,.d,.e,.f,.g{fill:none;stroke-miterlimit:10;}.a,.e,.f,.g{stroke:#011e41;}.a,.d{stroke-linecap:round;}.a,.g{stroke-width:1.3px;}.b{fill:#011e41;}.c{fill:#fff;}.d{stroke:#000;stroke-width:0.22px;}.e{stroke-width:0.28px;}.f{stroke-width:0.43px;}.h{fill:#fff100;}.i{fill:#2a7de1;}</style></defs><title>logo</title><line class="a" x1="35.73" y1="0.41" x2="45.06" y2="29.66"/><path class="b" d="M13.91,31.2s1.24-14,4.91-17c3.07-2.55,4.57-1.91,6-2.6a3.13,3.13,0,0,0,1.62-1.67S25,5.07,26.2,4.68a3.57,3.57,0,0,1,2.64.64s3.46,2.49,6.94-2.56A13.32,13.32,0,0,0,35.84,7c.48,3.37,1.75,7.38,3.59,7.46,0,0-2.59,5.4-9.56,3-2.85-1-2.21,1.1-1.16,1.85.68.48,1.24,1.27.47,2.87-1,2-4.05.94-4.88.63a3.82,3.82,0,0,0-3.16.11C20.35,23.48,15.93,26.11,13.91,31.2Z"/><line class="a" x1="64.2" y1="0.41" x2="54.87" y2="29.66"/><path class="b" d="M86,31.2s-1.24-14-4.91-17c-3.07-2.55-4.58-1.91-6-2.6A3.13,3.13,0,0,1,73.5,9.89s1.43-4.82.23-5.21a3.58,3.58,0,0,0-2.64.64s-3.45,2.49-6.94-2.56A13.54,13.54,0,0,1,64.1,7c-.48,3.37-1.75,7.38-3.6,7.46,0,0,2.6,5.4,9.57,3,2.84-1,2.2,1.1,1.15,1.85-.68.48-1.23,1.27-.47,2.87,1,2,4.06.94,4.88.63a3.82,3.82,0,0,1,3.16.11C79.58,23.48,84,26.11,86,31.2Z"/><path class="b" d="M36.89,22.11s-.27-.84.49-.81,1.66,0,2.12,0a2.77,2.77,0,0,1,1.51.74,3.2,3.2,0,0,0-1.66-1.51c-1.05-.32-2.74-.13-3.27-.42a1.59,1.59,0,0,0,.24.65A11.77,11.77,0,0,1,36.89,22.11Z"/><path class="b" d="M42.24,25.68A6.08,6.08,0,0,1,41,23,2.7,2.7,0,0,0,39,22a7.28,7.28,0,0,1-1.64,0A3.44,3.44,0,0,0,38,24.08a5.16,5.16,0,0,0-3.88-.5c-2.06.63-1.55,2.94-1.55,2.94s.28-2.53,2.65-2.25,4.33,2.53,5.88,4a13.37,13.37,0,0,0,2.16,1.69c0-.35,0-1,0-1Z"/><path class="b" d="M26.82,61.15A2.12,2.12,0,0,0,25.18,61a.75.75,0,0,1,.41-.61s.27.12,1-.14c2.14-.86,2.6-3.81,3.24-6A34.75,34.75,0,0,1,29,57.84a7,7,0,0,1-.41,1,6.31,6.31,0,0,0,1.46-3.27,6.29,6.29,0,0,0-.21-1.81c-.31,0-1.08.79-1.08.79s-.14.54-.43,1.69a13.49,13.49,0,0,1-1.82,3.58s.72-2.2,1.19-3.49a14,14,0,0,0,.52-4.94,1.93,1.93,0,0,1,.64-1.83s-1.24-.23-3.06,1.69a5.45,5.45,0,0,0-1.45,5.16,7.16,7.16,0,0,0,.95,2.27,9.09,9.09,0,0,1-1.4-2.37c-.72-1.63-2.1-5.43-2.63-7s-1.91-6.12-2.1-6.5a.28.28,0,0,1,0-.2c-.34-1.07-.46-2.15-.76-3.19a17.9,17.9,0,0,0-1.62-3.64,18,18,0,0,1,1.84,3.57c.13.4.25.79.35,1.19-.17-4.1-1.76-5.84-2.71-6.85s-1-1.75-1-1.75a4.18,4.18,0,0,0-.73,2.39,14.55,14.55,0,0,0,.26,2.81,15,15,0,0,1,2.35,2.28,5.85,5.85,0,0,1,1.29,2.94c-1.55-3.7-3.37-4.42-4-4.77a2.91,2.91,0,0,0-1.57-.23l.43.54a17.32,17.32,0,0,0,2,3.12,11.15,11.15,0,0,0,2.9,1.81,35,35,0,0,1,2.14,5.78c-.83-2.74-3-5.2-4.66-5.29a17.86,17.86,0,0,1-2.22-.27,6.2,6.2,0,0,1,1.26,1.48A11.83,11.83,0,0,0,18,48a2.79,2.79,0,0,1,1.29,1c-.32-.46-1.84-.88-2.85-1.74a11.88,11.88,0,0,1-2-2.52A1.7,1.7,0,0,0,13,44.13c.4.52.7,2.53,2.57,4.11A8.07,8.07,0,0,0,20,49.91a12.33,12.33,0,0,0-4.87-5.51c4.21,1.1,6,7,6.72,9A50.93,50.93,0,0,0,24,58.05c-5.62-2.38-7-5.8-7-5.8,1.84,3.07,6.49,5.2,6.49,5.2a2.51,2.51,0,0,1-1-.72c-1.14-1.13-2.28-2.27-3.4-3.42.94.75,1.88,1.49,2.83,2.22v0a21.69,21.69,0,0,0-2-2.6,20.61,20.61,0,0,1,1.65,1.45c0-.13-.08-.26-.13-.4-.72-2.13-3.52-2.89-4.4-3.13a6.47,6.47,0,0,1-1.86-1c.58.71.67,3.43,2.75,5.17a18.56,18.56,0,0,0,4.87,2.74,17.2,17.2,0,0,1-4.63-1.92l-.76-.05a2,2,0,0,1-.66-.16s.05.44.95,1.3,2.92,1,4.13,1a4.19,4.19,0,0,1,2.27.64c.26.18,1,1.21.5,1.82a1.72,1.72,0,0,0-.21,1.5,8.54,8.54,0,0,0,.57,1.35c.25.62,1.17.59,1.59,1-.44-.32-1.36-.11-1.84-.8a6.51,6.51,0,0,1-.43-.64,1.9,1.9,0,0,0,1.14,1.6,5.11,5.11,0,0,0,1.31.09c.54-.46.14-1.45.14-1.45a1.22,1.22,0,0,1-1.23-.2A1.8,1.8,0,0,1,25,61.73a1.36,1.36,0,0,0,.71.84,1.49,1.49,0,0,0,1.27,0,2.73,2.73,0,0,0,.53-.36A2.21,2.21,0,0,0,26.82,61.15Zm-.45-2v0a11.79,11.79,0,0,1,1.06-6.65.48.48,0,0,1,.08-.17l-.08.17a26.67,26.67,0,0,0-1.06,6.65Zm1.41-5.6c-.16.53-.51,2.26-.84,4,0,0,0,.06,0,.06s0,0,0-.06a11.59,11.59,0,0,1,.84-4c0-.12.06-.18.08-.17S27.81,53.44,27.78,53.5Zm.09-3.2,0,0,0,0a13.71,13.71,0,0,0-1.7,9.58,10.59,10.59,0,0,1-.66-3.59A10.1,10.1,0,0,1,27.87,50.3Zm-9.12-8.11v0a7.63,7.63,0,0,0-1.1-2.86c-.89-1.54-2.76-3.69-2.48-6.27A6.05,6.05,0,0,0,16,36c.73,1.63,2.68,3.58,2.75,6.2Zm-1.91,2.35a3.13,3.13,0,0,1,1.36.89,7.83,7.83,0,0,1,1.72,3.09A15,15,0,0,0,16.84,44.54ZM27,61.77a4,4,0,0,0-1.56-.5A1.57,1.57,0,0,1,27,61.77Zm-.37.49c-.39,0-1.17-.12-1.33-.74a4.07,4.07,0,0,0,2.05.58A1.94,1.94,0,0,1,26.62,62.26Z"/><path class="b" d="M36.7,66.25c-3.8-2-6.15-3.08-8.79-5.21a3.18,3.18,0,0,0,1.05.09,1.57,1.57,0,0,0,1.73-.07c1.09-.59-.05-2.28-.05-2.28a4.15,4.15,0,0,1-.9.32.92.92,0,0,0-.84,1c0,.1,0,.11-.08.19s.06.08.09.08c.74-.06,1.63-.47,1.66-1.38.1.91-.81,1.54-1.61,1.68a12,12,0,0,1-1.87.25,1.57,1.57,0,0,1,1.05,1.81,32.33,32.33,0,0,0,4.38,2.79c2.21,1.17,5.36,2.91,6.42,4.21s.84,2.11.51,2-.48-.89-1.31-.49c-1.09.53-.64,1.61.13,2a2.15,2.15,0,0,0,2.07-.39c.7-.78.16-2.36-.54-3.26a11.16,11.16,0,0,0-3.5-2.75C33.75,65.21,31,63.92,28.62,62c2.37,1.85,5.2,3.06,7.8,4.59a11.25,11.25,0,0,1,3.66,2.74,5,5,0,0,1,1,2.14l0,.15a2.62,2.62,0,0,0,.06-.43C41.19,69.39,39.44,67.72,36.7,66.25ZM29.12,60a6.2,6.2,0,0,0,1.16-.89A1.44,1.44,0,0,1,29.12,60Z"/><path class="b" d="M63,22.11s.27-.84-.49-.81-1.66,0-2.12,0a2.77,2.77,0,0,0-1.51.74,3.2,3.2,0,0,1,1.66-1.51c1.05-.32,2.74-.13,3.27-.42a1.59,1.59,0,0,1-.24.65A11.77,11.77,0,0,0,63,22.11Z"/><path class="b" d="M57.69,25.68A6.08,6.08,0,0,0,58.92,23a2.7,2.7,0,0,1,2-.95,7.28,7.28,0,0,0,1.64,0,3.44,3.44,0,0,1-.66,2.08,5.16,5.16,0,0,1,3.88-.5c2.06.63,1.55,2.94,1.55,2.94S67.07,24,64.7,24.27s-4.33,2.53-5.88,4a13.37,13.37,0,0,1-2.16,1.69c0-.35,0-1,0-1Z"/><path class="b" d="M67,26.87a1.41,1.41,0,0,0,1-1.15c.21-1.12-.66-3.84-4.9-2.86a5.05,5.05,0,0,1,3.59-.51,3.19,3.19,0,0,1,2.51,4A1.31,1.31,0,0,1,67,26.87Z"/><path class="b" d="M72.38,62.19a2.73,2.73,0,0,0,.53.36,1.49,1.49,0,0,0,1.27,0,1.36,1.36,0,0,0,.71-.84,1.8,1.8,0,0,1-.58,1.13,1.22,1.22,0,0,1-1.23.2s-.4,1,.14,1.45a5.1,5.1,0,0,0,1.31-.09,1.9,1.9,0,0,0,1.14-1.6,6.51,6.51,0,0,1-.43.64c-.48.69-1.4.48-1.84.8.42-.4,1.34-.37,1.59-1a8.54,8.54,0,0,0,.57-1.35,1.72,1.72,0,0,0-.21-1.5c-.47-.61.24-1.64.5-1.82A4.19,4.19,0,0,1,78.12,58c1.21,0,3.14-.08,4.13-1s1-1.3,1-1.3a2,2,0,0,1-.66.16l-.76.05a17.2,17.2,0,0,1-4.63,1.92A18.56,18.56,0,0,0,82,55c2.08-1.74,2.17-4.46,2.75-5.17a6.47,6.47,0,0,1-1.86,1c-.88.24-3.67,1-4.4,3.13-.05.14-.09.27-.13.4A20.61,20.61,0,0,1,80,52.9a21.69,21.69,0,0,0-2,2.6v0c1-.73,1.89-1.47,2.83-2.22-1.12,1.15-2.26,2.29-3.4,3.42a2.51,2.51,0,0,1-1,.72s4.65-2.13,6.49-5.2c0,0-1.36,3.42-7,5.8a50.93,50.93,0,0,0,2.12-4.64c.73-2,2.51-7.91,6.73-9a12.31,12.31,0,0,0-4.88,5.51,8.07,8.07,0,0,0,4.41-1.67c1.87-1.58,2.17-3.59,2.57-4.11a1.7,1.7,0,0,0-1.35.69,11.88,11.88,0,0,1-2,2.52c-1,.86-2.53,1.28-2.85,1.74A2.79,2.79,0,0,1,82,48a11.83,11.83,0,0,0,3.22-3.47,6.2,6.2,0,0,1,1.26-1.48,17.86,17.86,0,0,1-2.22.27c-1.7.09-3.83,2.55-4.66,5.29a35,35,0,0,1,2.14-5.78,11.15,11.15,0,0,0,2.9-1.81,17.32,17.32,0,0,0,2-3.12l.43-.54a2.91,2.91,0,0,0-1.57.23c-.63.35-2.45,1.07-4,4.77a5.85,5.85,0,0,1,1.29-2.94,15,15,0,0,1,2.35-2.28,14.55,14.55,0,0,0,.26-2.81A4.18,4.18,0,0,0,84.67,32s0,.66-1,1.75S81.12,36.48,81,40.58c.1-.4.22-.79.35-1.19a18,18,0,0,1,1.84-3.57,17.9,17.9,0,0,0-1.62,3.64c-.3,1-.42,2.12-.76,3.19a.28.28,0,0,1,0,.2c-.19.38-1.58,4.93-2.1,6.5s-1.91,5.37-2.63,7a9.09,9.09,0,0,1-1.4,2.37,7.16,7.16,0,0,0,1-2.27,5.45,5.45,0,0,0-1.45-5.16C72.27,49.37,71,49.6,71,49.6a1.93,1.93,0,0,1,.64,1.83,14,14,0,0,0,.52,4.94c.47,1.29,1.19,3.49,1.19,3.49a13.49,13.49,0,0,1-1.82-3.58c-.29-1.15-.43-1.69-.43-1.69s-.77-.78-1.08-.79a6.29,6.29,0,0,0-.21,1.81,6.31,6.31,0,0,0,1.46,3.27,7,7,0,0,1-.41-1,32.3,32.3,0,0,1-.75-3.62c.63,2.23,1.09,5.18,3.23,6,.7.26,1,.14,1,.14a.75.75,0,0,1,.41.61,2.12,2.12,0,0,0-1.64.14A2.21,2.21,0,0,0,72.38,62.19Zm1.18-3.12a26.67,26.67,0,0,0-1.06-6.65l-.08-.17a.48.48,0,0,1,.08.17,11.79,11.79,0,0,1,1.06,6.65v0Zm-1.49-5.74s0,.05.08.17a11.59,11.59,0,0,1,.84,4s0,0,0,.06,0,0,0-.06c-.33-1.77-.68-3.5-.84-4C72.12,53.44,72.1,53.38,72.07,53.33Zm2.35,3a10.59,10.59,0,0,1-.66,3.59,13.71,13.71,0,0,0-1.7-9.58l0,0,0,0A10.1,10.1,0,0,1,74.42,56.29Zm6.76-14.13c.07-2.62,2-4.57,2.75-6.2A6.05,6.05,0,0,0,84.76,33c.28,2.58-1.59,4.73-2.48,6.27a7.63,7.63,0,0,0-1.1,2.86v0ZM80,48.52a7.83,7.83,0,0,1,1.72-3.09,3.13,3.13,0,0,1,1.36-.89A15,15,0,0,0,80,48.52ZM74.5,61.27a4,4,0,0,0-1.56.5A1.57,1.57,0,0,1,74.5,61.27Zm-1.91.83a4.07,4.07,0,0,0,2-.58c-.16.62-.94.78-1.33.74A1.94,1.94,0,0,1,72.59,62.1Z"/><path class="b" d="M58.79,71.2a2.62,2.62,0,0,0,.06.43l0-.15a5,5,0,0,1,1-2.14,11.25,11.25,0,0,1,3.66-2.74c2.6-1.53,5.43-2.74,7.8-4.59-2.33,1.91-5.13,3.2-7.68,4.79a11.16,11.16,0,0,0-3.5,2.75c-.7.9-1.24,2.48-.54,3.26a2.15,2.15,0,0,0,2.07.39c.77-.38,1.22-1.46.13-2-.83-.4-1,.38-1.31.49s-.5-.78.51-2,4.21-3,6.42-4.21a32.33,32.33,0,0,0,4.38-2.79,1.57,1.57,0,0,1,1-1.81A12,12,0,0,1,71,60.63c-.8-.14-1.71-.77-1.61-1.68,0,.91.92,1.32,1.66,1.38,0,0,.07-.08.09-.08s-.08-.09-.08-.19a.92.92,0,0,0-.84-1,4.15,4.15,0,0,1-.9-.32s-1.14,1.69-.05,2.28a1.57,1.57,0,0,0,1.73.07A3.18,3.18,0,0,0,72,61c-2.64,2.13-5,3.19-8.79,5.21C60.49,67.72,58.74,69.39,58.79,71.2ZM69.65,59.14a6.2,6.2,0,0,0,1.16.89A1.44,1.44,0,0,1,69.65,59.14Z"/><path class="b" d="M36.26,71.46s.71-1.5.31-2.21a3.06,3.06,0,0,0-.44-.53,3.4,3.4,0,0,0-3.17-.2A3.4,3.4,0,0,1,35.29,68h0a4.46,4.46,0,0,0-2.82.06c-.84.37-2.19,1.19-1.7,2-.59-.79.35-1.79,1.25-2.28a5.64,5.64,0,0,1,2.35-.37,4,4,0,0,0-3.88.85c-.89.92-1.22,2.58-3,2.92,1.72-.45,1.84-2,2.73-3.07A4.44,4.44,0,0,1,33,66.78a3.19,3.19,0,0,0-2.09,0c-2.25.86-2.45,1.75-2.47,2.39s-1,2.23-1.7,2c0,0,4.2,1.63,5.95-2.32A1.7,1.7,0,0,0,33.35,71c1.1.63,1.95-.61,2.18-1C35.39,70.26,35.15,71,36.26,71.46Z"/><path class="b" d="M63.68,71.46S63,70,63.37,69.25a3.06,3.06,0,0,1,.44-.53,3.4,3.4,0,0,1,3.17-.2A3.4,3.4,0,0,0,64.65,68h0a4.46,4.46,0,0,1,2.82.06c.84.37,2.19,1.19,1.7,2,.59-.79-.35-1.79-1.25-2.28a5.64,5.64,0,0,0-2.35-.37,4,4,0,0,1,3.88.85c.89.92,1.22,2.58,3,2.92-1.72-.45-1.85-2-2.73-3.07A4.44,4.44,0,0,0,67,66.78a3.16,3.16,0,0,1,2.08,0c2.25.86,2.46,1.75,2.48,2.39s1,2.23,1.7,2c0,0-4.2,1.63-6-2.32a1.69,1.69,0,0,1-.7,2.14c-1.09.63-1.94-.61-2.17-1C64.55,70.26,64.79,71,63.68,71.46Z"/><path class="b" d="M74.57,28.86H25.35l1.95,4.68S27,50.09,32,59.56c4.61,8.84,18,15.77,18,15.77s13.4-6.93,18-15.77c4.94-9.47,4.65-26,4.65-26l1.95-4.68Z"/><path class="c" d="M71.31,31H28.61l.69,1.66.18.42v.46c0,.16-.21,16.12,4.41,25,3.53,6.78,13,12.54,16.08,14.3,3.1-1.76,12.55-7.52,16.09-14.3,4.61-8.85,4.4-24.81,4.4-25v-.46l.18-.42Zm-1.09,1.49L70,33v.54c0,.16.21,16-4.36,24.77-3.4,6.53-12.43,12.13-15.7,14-3.26-1.87-12.29-7.47-15.7-14-4.57-8.76-4.36-24.61-4.35-24.77V33l-.22-.51-.44-1.06h41.4Z"/><path class="b" d="M-.09,81.27h2.3l4,4.13V82.92A2,2,0,0,0,6,82.13a1.16,1.16,0,0,0-.44-.51,1.12,1.12,0,0,0-.32-.14,2,2,0,0,0-.44-.06v-.15H7.68v.15H7.62a1.16,1.16,0,0,0-.94.39A1.75,1.75,0,0,0,6.35,83v4.1H6.22L1.27,82v3.41a2.12,2.12,0,0,0,.12.79,1,1,0,0,0,.38.47,1.44,1.44,0,0,0,.53.17,4.58,4.58,0,0,0,.5,0V87h-3v-.15a2.09,2.09,0,0,0,.75-.16A.9.9,0,0,0,1,86.28a1.51,1.51,0,0,0,.14-.67V82.36A.93.93,0,0,0,1,81.85a.86.86,0,0,0-.38-.32A1.64,1.64,0,0,0,0,81.42H-.09Z"/><path class="b" d="M8.15,81.27h6.1v2.22h-.12a6.65,6.65,0,0,0-.3-.88,2.27,2.27,0,0,0-.35-.54,1.51,1.51,0,0,0-.56-.44,3.23,3.23,0,0,0-1.23-.21H10.56v2.72h.31a1.22,1.22,0,0,0,1.07-.58,2.19,2.19,0,0,0,.31-.71c0-.12.06-.3.09-.52h.14v3.76h-.14a4.56,4.56,0,0,0-.12-.58,2.11,2.11,0,0,0-.15-.43,1.79,1.79,0,0,0-.22-.34,1.27,1.27,0,0,0-1-.46h-.24v2.57h.95a4.22,4.22,0,0,0,.75-.06,2.11,2.11,0,0,0,.6-.19,2,2,0,0,0,.5-.32,2.33,2.33,0,0,0,.63-.85,7.31,7.31,0,0,0,.26-.79h.16V87H8.16v-.15h.16a.92.92,0,0,0,1-1V82.46a1.07,1.07,0,0,0-.25-.79,1.07,1.07,0,0,0-.79-.25H8.15Z"/><path class="b" d="M15.33,81.27h3v.15a1,1,0,0,0-.53.1.31.31,0,0,0-.17.29,1.32,1.32,0,0,0,.07.42l1.21,3.35,1.17-2.91a4.31,4.31,0,0,0-.25-.62,1.17,1.17,0,0,0-.28-.35.75.75,0,0,0-.3-.22,1.14,1.14,0,0,0-.39-.06v-.15H22v.15h-.16a1.15,1.15,0,0,0-.57.12.42.42,0,0,0-.21.37.8.8,0,0,0,.06.3l1.24,3.37,1.21-3.09a1.29,1.29,0,0,0,.09-.45.51.51,0,0,0-.24-.46,1.53,1.53,0,0,0-.74-.16v-.15h2.3v.15a1.16,1.16,0,0,0-.37.07,1.74,1.74,0,0,0-.31.18,2.11,2.11,0,0,0-.59.88l-1.8,4.58h-.15l-1.57-4.28-1.71,4.28h-.16l-1.65-4.54a2.55,2.55,0,0,0-.49-.9.9.9,0,0,0-.66-.27h-.15Z"/><path class="b" d="M29.14,81.27h3.43c.2,0,.42,0,.66,0l.65,0a4.2,4.2,0,0,1,.48.07,2,2,0,0,1,1,.51,1.29,1.29,0,0,1,.36.93,1.26,1.26,0,0,1-.17.67,1.36,1.36,0,0,1-.51.5,2.7,2.7,0,0,1-.82.31,5.08,5.08,0,0,1-1.09.11H31.59V85.8a.93.93,0,0,0,1,1h.29V87H29.14v-.15h.2a.93.93,0,0,0,1-1V82.46a.92.92,0,0,0-1-1h-.2Zm2.45.15v2.86h1.15A1.85,1.85,0,0,0,34,83.92a1.34,1.34,0,0,0,.41-1.08,1.3,1.3,0,0,0-.56-1.2,1.7,1.7,0,0,0-.48-.17,4.08,4.08,0,0,0-.67,0Z"/><path class="b" d="M40.2,84.19H38.92V85.8a1.06,1.06,0,0,0,.25.78,1.11,1.11,0,0,0,.79.26h.17V87H36.51v-.16h.15a1,1,0,0,0,.79-.26,1.06,1.06,0,0,0,.26-.78V82.46a.91.91,0,0,0-1.05-1h-.15v-.15H41a6,6,0,0,1,1.43.13,1.7,1.7,0,0,1,.83.44,1.26,1.26,0,0,1,.39.9,1.17,1.17,0,0,1-.67,1,3.1,3.1,0,0,1-.68.24,5.35,5.35,0,0,1-.86.15l-1,0v0c.22.14.41.26.59.35a4.25,4.25,0,0,0,.54.24,6,6,0,0,0,.62.17l.13.21.2.29.16.23a6.76,6.76,0,0,0,.43.6,1.5,1.5,0,0,0,.35.36,1.33,1.33,0,0,0,.76.18h.16V87H42.19ZM38.92,84h1.63a2.8,2.8,0,0,0,1-.14,1.1,1.1,0,0,0,.55-.43,1.3,1.3,0,0,0,.19-.75c0-.87-.56-1.3-1.67-1.3H38.92Z"/><path class="b" d="M47.86,81.15a4,4,0,0,1,1.47.26,3.14,3.14,0,0,1,1.16.75,3.26,3.26,0,0,1,.65.93,2.6,2.6,0,0,1,.22,1,2.57,2.57,0,0,1-.46,1.49,3.11,3.11,0,0,1-1.24,1.08,3.69,3.69,0,0,1-1.72.4,4,4,0,0,1-1.35-.22,3.58,3.58,0,0,1-1.11-.64,3.05,3.05,0,0,1-.75-1,2.55,2.55,0,0,1-.27-1.14,2.6,2.6,0,0,1,.47-1.49,3.2,3.2,0,0,1,1.24-1.09A3.64,3.64,0,0,1,47.86,81.15Zm.11.15a1.82,1.82,0,0,0-.7.13,1.45,1.45,0,0,0-.56.37,2.27,2.27,0,0,0-.42.61,3.19,3.19,0,0,0-.26.79,4.69,4.69,0,0,0-.09.94,4.19,4.19,0,0,0,.14,1.16,2.69,2.69,0,0,0,.4.89,1.71,1.71,0,0,0,.63.57A1.76,1.76,0,0,0,49,86.61a2.16,2.16,0,0,0,.69-1,4.39,4.39,0,0,0,.24-1.53A4.7,4.7,0,0,0,49.78,83a3.14,3.14,0,0,0-.38-.87,2,2,0,0,0-.6-.59,1.66,1.66,0,0,0-.4-.18A1.33,1.33,0,0,0,48,81.3Z"/><path class="b" d="M51.24,81.27H54.6v.15h-.41a.77.77,0,0,0-.44.11.38.38,0,0,0-.16.33,1.25,1.25,0,0,0,.12.47l1.56,3.43,1.31-3a1.42,1.42,0,0,0,.16-.59.72.72,0,0,0-.22-.56.91.91,0,0,0-.61-.23v-.15h2.31v.15a1.46,1.46,0,0,0-.59.19,1.62,1.62,0,0,0-.47.44,5.17,5.17,0,0,0-.43.77l-1.9,4.29h-.15l-2.22-4.84c-.26-.58-.6-.86-1-.86h-.2Z"/><path class="b" d="M58.66,86.84h.16a.92.92,0,0,0,1-1c0-.15,0-.28,0-.39s0-.25,0-.39v-.56c0-.93,0-1.64-.09-2.11a1.27,1.27,0,0,0-.09-.45.63.63,0,0,0-.2-.26,1.07,1.07,0,0,0-.74-.22h-.16v-.15h3.61v.15h-.16a1.06,1.06,0,0,0-.78.25,1.07,1.07,0,0,0-.26.79V85.8a1.06,1.06,0,0,0,.26.78,1,1,0,0,0,.78.26h.16V87H58.66Z"/><path class="b" d="M63.21,81.27H67a5,5,0,0,1,1.62.23,2.8,2.8,0,0,1,1.16.71,2.87,2.87,0,0,1,.66.94,2.49,2.49,0,0,1,.24,1.07,2.45,2.45,0,0,1-.26,1.11,2.52,2.52,0,0,1-.7.89,3.44,3.44,0,0,1-1.09.58,4.56,4.56,0,0,1-1.36.2H63.21v-.16h.2a1,1,0,0,0,.79-.26,1.06,1.06,0,0,0,.26-.78V82.46a.91.91,0,0,0-1-1h-.2Zm2.46.15v5.42h1.11a6,6,0,0,0,.8,0,2.12,2.12,0,0,0,.57-.18,1.24,1.24,0,0,0,.43-.32,2.9,2.9,0,0,0,.68-2.13,4.27,4.27,0,0,0-.08-.89,3.38,3.38,0,0,0-.24-.74,2.37,2.37,0,0,0-.41-.57,1.57,1.57,0,0,0-.45-.31,2.32,2.32,0,0,0-.58-.18,6,6,0,0,0-.8,0Z"/><path class="b" d="M71.48,81.27h6.09v2.22h-.12a6.65,6.65,0,0,0-.3-.88,2.27,2.27,0,0,0-.35-.54,1.51,1.51,0,0,0-.56-.44A3.23,3.23,0,0,0,75,81.42H73.88v2.72h.31a1.22,1.22,0,0,0,1.07-.58,2.19,2.19,0,0,0,.31-.71c0-.12.06-.3.09-.52h.14v3.76h-.14a4.56,4.56,0,0,0-.12-.58,2.11,2.11,0,0,0-.15-.43,1.79,1.79,0,0,0-.22-.34,1.27,1.27,0,0,0-1-.46h-.24v2.57h1a4.22,4.22,0,0,0,.75-.06,2.34,2.34,0,0,0,1.1-.51,2.33,2.33,0,0,0,.63-.85,7.31,7.31,0,0,0,.26-.79h.16V87H71.48v-.15h.15a.92.92,0,0,0,1-1V82.46a.9.9,0,0,0-1-1h-.15Z"/><path class="b" d="M78.86,81.27h2.3l4,4.13V82.92a1.8,1.8,0,0,0-.16-.79,1.16,1.16,0,0,0-.44-.51,1.06,1.06,0,0,0-.31-.14,2.23,2.23,0,0,0-.45-.06v-.15h2.84v.15h0a1.17,1.17,0,0,0-1,.39A1.81,1.81,0,0,0,85.31,83v4.1h-.14l-5-5.09v3.41a2.12,2.12,0,0,0,.12.79,1,1,0,0,0,.39.47,1.32,1.32,0,0,0,.53.17,4.35,4.35,0,0,0,.49,0V87h-3v-.15a2.2,2.2,0,0,0,.75-.16.93.93,0,0,0,.42-.41,1.51,1.51,0,0,0,.14-.67V82.36a.92.92,0,0,0-.13-.51.89.89,0,0,0-.39-.32,1.64,1.64,0,0,0-.62-.11h-.07Z"/><path class="b" d="M92.71,85h.15a3.82,3.82,0,0,1-.22.61,2.69,2.69,0,0,1-.33.5,2.72,2.72,0,0,1-2.23,1,3.47,3.47,0,0,1-1.64-.41,3.19,3.19,0,0,1-1.2-1.1A2.66,2.66,0,0,1,87,83.17a3.15,3.15,0,0,1,.51-.88,3.78,3.78,0,0,1,.79-.7,2.82,2.82,0,0,1,1.56-.44,3.33,3.33,0,0,1,.56,0,2.11,2.11,0,0,1,.5.17,2.85,2.85,0,0,1,.49.29.87.87,0,0,0,.41.2c.19,0,.44-.21.73-.61h.14L92.78,84h-.13a4.46,4.46,0,0,0-.14-.49,2.2,2.2,0,0,0-.17-.39,4.06,4.06,0,0,0-.67-1,2.81,2.81,0,0,0-.84-.63,2.19,2.19,0,0,0-.93-.22,1.37,1.37,0,0,0-.94.31,1.78,1.78,0,0,0-.53,1,6.25,6.25,0,0,0-.18,1.64,7.57,7.57,0,0,0,.06,1,3.14,3.14,0,0,0,.19.75,1.61,1.61,0,0,0,.33.51,1.58,1.58,0,0,0,.59.38,2.28,2.28,0,0,0,.76.13,3,3,0,0,0,.73-.1,2.53,2.53,0,0,0,.65-.29,2.64,2.64,0,0,0,.57-.49,3.36,3.36,0,0,0,.33-.47A4.29,4.29,0,0,0,92.71,85Z"/><path class="b" d="M93.88,81.27H100v2.22h-.13a6.65,6.65,0,0,0-.3-.88,2.57,2.57,0,0,0-.34-.54,1.54,1.54,0,0,0-.57-.44,3.14,3.14,0,0,0-1.22-.21H96.29v2.72h.3a1.25,1.25,0,0,0,1.08-.58,2.41,2.41,0,0,0,.3-.71c0-.12.06-.3.09-.52h.14v3.76h-.14a4.56,4.56,0,0,0-.12-.58,1.64,1.64,0,0,0-.15-.43,2.39,2.39,0,0,0-.21-.34,1.31,1.31,0,0,0-1.06-.46h-.23v2.57h.94a4.22,4.22,0,0,0,.75-.06,2.18,2.18,0,0,0,.61-.19,2.48,2.48,0,0,0,.5-.32,2.43,2.43,0,0,0,.62-.85,7,7,0,0,0,.27-.79h.15V87H93.89v-.15H94a.93.93,0,0,0,1-1V82.46a.91.91,0,0,0-1-1h-.15Z"/><path class="b" d="M6.67,94.24c.23,0,.35,0,.4-.25H7.2v.55H5v-.13c.17,0,.16-.07.16-.27V91.83c0-.2,0-.23-.16-.27v-.13h.72v.13c-.16.06-.15.08-.15.27v2.41Z"/><path class="b" d="M8.05,91.83c0-.2,0-.23-.18-.27v-.13h.76v.13c-.18.06-.18.08-.18.27v2.31c0,.19,0,.21.18.27v.13H7.87v-.13c.19,0,.18-.07.18-.27Z"/><path class="b" d="M10,92.64h.94c.15,0,.29,0,.34-.16h.13v.61h-.13c0-.17-.14-.16-.27-.16H10v1.21c0,.19,0,.21.15.27v.13H9.43v-.13c.17,0,.16-.07.16-.27V91.83c0-.2,0-.23-.16-.27v-.13h2.5V92H11.8c0-.34-.45-.28-.7-.28H10Z"/><path class="b" d="M13.23,92.64h1c.15,0,.34,0,.39-.16h.13v.6h-.13c-.05-.16-.15-.15-.29-.15H13.23v1.31h1.51c.22,0,.43,0,.48-.26h.13v.56h-2.7v-.13c.19,0,.18-.1.18-.27V91.83c0-.18,0-.24-.18-.27v-.13H15.2v.51h-.13c-.06-.19-.14-.21-.33-.21H13.23Z"/><path class="b" d="M17.64,91.83c0-.2,0-.23-.18-.27v-.13h.76v.13c-.18.06-.17.08-.17.27v2.31c0,.19,0,.21.17.27v.13h-.76v-.13c.19,0,.18-.07.18-.27Z"/><path class="b" d="M19.52,94.14c0,.2,0,.23.19.27v.13H19v-.13c.19,0,.18-.07.18-.27V91.83c0-.2,0-.23-.18-.27v-.13h.6L21.38,93V91.83c0-.2,0-.23-.18-.27v-.13h.65v.13c-.17,0-.16.07-.16.27v2.31c0,.2,0,.23.16.27v.13H21.2v-.13c.19,0,.18-.07.18-.27V93.5l-1.86-1.62Z"/><path class="b" d="M23,93.55l.09.13c-.06,0-.13.1-.13.19,0,.35.63.44.87.44s.86-.13.86-.57c0-.8-2-.45-2-1.54,0-.59.63-.83,1.13-.83a1.53,1.53,0,0,1,1.09.44l-.34.4-.12-.08a.38.38,0,0,0,.05-.15c0-.26-.5-.32-.68-.32s-.76.11-.76.45c0,.75,2,.41,2,1.58,0,.66-.69.91-1.25.91a1.2,1.2,0,0,1-1.25-.77Z"/><path class="b" d="M27.91,91.83c0-.2,0-.23-.16-.27v-.13h.74v.13c-.18.06-.17.08-.17.27v2.31c0,.2,0,.23.17.27v.13H27.18a1.44,1.44,0,0,1-1-.29,1.22,1.22,0,0,1-.41-1,3.32,3.32,0,0,1,.54-1.6c.06-.11,0-.11-.15-.13v-.13H27v.13c-.2,0-.31.26-.39.42a2.74,2.74,0,0,0-.33,1.28,1.06,1.06,0,0,0,.27.74,1,1,0,0,0,.81.24h.57Z"/><path class="b" d="M31.54,94.18c.09.11.16.21.31.23v.13h-.53l-1-1.4h-.37v1c0,.19,0,.21.15.27v.13h-.72v-.13c.17,0,.16-.07.16-.27V91.83c0-.2,0-.23-.16-.27v-.13h1.31c.55,0,1,.21,1,.82a.9.9,0,0,1-1,.89Zm-1.13-1.33c.4,0,.92,0,.92-.57s-.34-.56-.73-.56h-.68v1.13Z"/><path class="b" d="M33.4,93.28l-.38.9c-.08.21.06.19.12.23v.13h-.63v-.13c.11,0,.13-.1.17-.19l1.17-2.79h.31l1.19,2.71c0,.1.1.24.23.27v.13h-.72v-.13c.13,0,.18,0,.07-.27l-.39-.86ZM34,92l-.43,1h.89Z"/><path class="b" d="M36.8,94.14c0,.2,0,.23.18.27v.13H36.3v-.13c.2,0,.19-.07.19-.27V91.83c0-.2,0-.23-.19-.27v-.13h.6L38.65,93V91.83c0-.2,0-.23-.18-.27v-.13h.66v.13c-.17,0-.16.07-.16.27v2.31c0,.2,0,.23.16.27v.13h-.66v-.13c.19,0,.18-.07.18-.27V93.5L36.8,91.88Z"/><path class="b" d="M42.45,94.54a2.42,2.42,0,0,1-.54.06,2.18,2.18,0,0,1-1.34-.46,1.71,1.71,0,0,1-.67-1.33,1.48,1.48,0,0,1,1.57-1.44,1.64,1.64,0,0,1,1.15.46l-.39.39-.11-.08a.17.17,0,0,0,.05-.12c0-.27-.48-.35-.69-.35a1.08,1.08,0,0,0-1.13,1.15,1.52,1.52,0,0,0,1.51,1.48.45.45,0,0,0,.48-.3h.11Z"/><path class="b" d="M43.92,92.64h1c.15,0,.34,0,.39-.16h.13v.6h-.13c-.05-.16-.15-.15-.29-.15H43.92v1.31h1.51c.22,0,.43,0,.48-.26H46v.56h-2.7v-.13c.19,0,.18-.1.18-.27V91.83c0-.18,0-.24-.18-.27v-.13h2.55v.51h-.13c-.06-.19-.14-.21-.33-.21H43.92Z"/><path class="b" d="M50.73,94.54a2.48,2.48,0,0,1-.54.06,2.18,2.18,0,0,1-1.35-.46,1.74,1.74,0,0,1-.67-1.33,1.48,1.48,0,0,1,1.57-1.44,1.67,1.67,0,0,1,1.16.46l-.4.39-.1-.08a.21.21,0,0,0,0-.12c0-.27-.47-.35-.68-.35a1.08,1.08,0,0,0-1.14,1.15,1.52,1.52,0,0,0,1.52,1.48.43.43,0,0,0,.47-.3h.12Z"/><path class="b" d="M51.52,93a1.59,1.59,0,1,1,3.18,0,1.59,1.59,0,1,1-3.18,0ZM52,93a1.17,1.17,0,0,0,1.16,1.33c.76,0,1.12-.58,1.12-1.29s-.36-1.36-1.17-1.36S52,92.26,52,93Z"/><path class="b" d="M57.8,92l-.71,1.85H56.9L56.14,92l-.38,2.23c0,.13,0,.2.11.22v.13h-.6v-.13c.12,0,.14-.13.16-.25l.43-2.39c0-.15,0-.17-.11-.21v-.13h.55L57,93.2l.68-1.77h.56v.13c-.15,0-.15.07-.12.18l.47,2.45c0,.12,0,.18.16.22v.13H58.1v-.13c.19,0,.13-.15.11-.22Z"/><path class="b" d="M60,94.14c0,.19,0,.21.17.27v.13h-.76v-.13c.19,0,.18-.07.18-.27V91.83c0-.2,0-.23-.18-.27v-.13h1.13c.53,0,1.18.16,1.18.81,0,.81-1.14,1.14-1.72,1.35Zm0-2.42v1.57c.43-.17,1.31-.46,1.31-1s-.47-.53-.84-.53Z"/><path class="b" d="M62.85,93.28l-.37.9c-.09.21.05.19.12.23v.13H62v-.13c.1,0,.13-.1.16-.19l1.17-2.79h.31l1.2,2.71c0,.1.09.24.23.27v.13h-.72v-.13c.12,0,.17,0,.07-.27l-.4-.86ZM63.4,92,63,93h.9Z"/><path class="b" d="M66.25,94.14c0,.2,0,.23.19.27v.13h-.68v-.13c.19,0,.18-.07.18-.27V91.83c0-.2,0-.23-.18-.27v-.13h.6L68.1,93V91.83c0-.2,0-.23-.17-.27v-.13h.65v.13c-.17,0-.16.07-.16.27v2.31c0,.2,0,.23.16.27v.13h-.65v-.13c.18,0,.17-.07.17-.27V93.5l-1.85-1.62Z"/><path class="b" d="M70.82,93.39v.75c0,.19,0,.21.17.27v.13h-.76v-.13c.19,0,.18-.07.18-.27v-.73l-.86-1.59c-.06-.1-.14-.24-.27-.26v-.13H70v.13c-.16,0-.13,0-.07.18l.72,1.3.63-1.22c.09-.17.15-.23,0-.26v-.13h.65v.13c-.14,0-.19.15-.25.26Z"/><path class="b" d="M75.72,94.24c.23,0,.35,0,.4-.25h.13v.55H74v-.13c.17,0,.16-.07.16-.27V91.83c0-.2,0-.23-.16-.27v-.13h.72v.13c-.16.06-.15.08-.15.27v2.41Z"/><path class="b" d="M77.1,91.83c0-.2,0-.23-.18-.27v-.13h.76v.13c-.18.06-.18.08-.18.27v2.31c0,.19,0,.21.18.27v.13h-.76v-.13c.18,0,.18-.07.18-.27Z"/><path class="b" d="M80.87,92l-.72,1.85H80L79.21,92l-.38,2.23c0,.13,0,.2.11.22v.13h-.6v-.13c.12,0,.14-.13.16-.25l.43-2.39c0-.15,0-.17-.11-.21v-.13h.55l.73,1.77.68-1.77h.56v.13c-.15,0-.15.07-.12.18l.47,2.45c0,.12,0,.18.16.22v.13h-.68v-.13c.18,0,.12-.15.11-.22Z"/><path class="b" d="M82.69,91.83c0-.2,0-.23-.17-.27v-.13h.75v.13c-.18.06-.17.08-.17.27v2.31c0,.19,0,.21.17.27v.13h-.75v-.13c.18,0,.17-.07.17-.27Z"/><path class="b" d="M85.48,94.14c0,.2,0,.23.18.27v.13h-.77v-.13c.19,0,.18-.07.18-.27V91.73h-.65c-.2,0-.29,0-.33.22H84v-.52H86.6V92h-.13c0-.23-.11-.22-.31-.22h-.68Z"/><path class="b" d="M87.9,92.64h1c.15,0,.34,0,.39-.16h.13v.6h-.13c-.05-.16-.15-.15-.29-.15H87.9v1.31h1.51c.22,0,.43,0,.48-.26H90v.56h-2.7v-.13c.19,0,.18-.1.18-.27V91.83c0-.18,0-.24-.18-.27v-.13h2.55v.51h-.13c-.06-.19-.14-.21-.33-.21H87.9Z"/><path class="b" d="M90.93,91.83c0-.2,0-.23-.18-.27v-.13h.78a2.13,2.13,0,0,1,1.44.4,1.82,1.82,0,0,1,.66,1.37c0,.92-.7,1.34-1.54,1.34H90.75v-.13c.19,0,.18-.07.18-.27ZM92,94.24c.71,0,1.17-.33,1.17-1.08A1.41,1.41,0,0,0,92.6,92a2,2,0,0,0-1.26-.28v2.53Z"/><path class="b" d="M94.43,94.33a.28.28,0,1,1,.29.27A.29.29,0,0,1,94.43,94.33Z"/><line class="d" x1="29.83" y1="16.98" x2="29.45" y2="21.03"/><line class="d" x1="70.11" y1="16.98" x2="70.48" y2="21.03"/><circle class="e" cx="49.97" cy="13.39" r="0.98"/><line class="f" x1="46.47" y1="11.21" x2="46.47" y2="16.34"/><line class="f" x1="47.83" y1="11.21" x2="47.83" y2="16.34"/><line class="f" x1="52.09" y1="11.21" x2="52.09" y2="16.34"/><line class="g" x1="49.97" y1="14.25" x2="49.97" y2="29.65"/><line class="f" x1="53.48" y1="11.21" x2="53.48" y2="16.34"/><path class="b" d="M56.05,15v1.1H43.88V15H56.05m.33-.33H43.56v1.75H56.38V14.7Z"/><polygon class="b" points="56.38 16.24 43.55 16.24 43.55 16.64 46.24 18.62 45.37 30.1 54.57 30.1 53.7 18.62 56.38 16.64 56.38 16.24"/><path class="b" d="M52.25,9.79V9.13L50.41,8a.54.54,0,0,0,.08-.28A.52.52,0,0,0,50,7.2a.52.52,0,0,0-.53.52.54.54,0,0,0,.08.28L47.68,9.13v.66l-2.62,1.45v.34h9.82v-.34Z"/><path class="b" d="M35.28,67.88h0Z"/><path class="b" d="M40.78,1.39H43l.38.3,1.21,1,1.22,1,.38.3V2.4l-.66-.94h-.18V1.39h1.78v.07H47l-.63.93V5.54h-.15l-.52-.41L44,3.85,42.4,2.58l-.52-.41V4.48l.66,1h.19v.07H40.94V5.47h.17l.65-1V2.08L41,1.46h-.19Z"/><path class="b" d="M48,1.39H51.2a3.82,3.82,0,0,1,.57,0,2.61,2.61,0,0,1,.53.11,1.5,1.5,0,0,1,.4.17,1.32,1.32,0,0,1,.43.38.89.89,0,0,1,.15.5.85.85,0,0,1-.26.62,1.74,1.74,0,0,1-.77.39A4.8,4.8,0,0,1,51,3.73h-.87V5.06l.65.41H51v.07H48V5.47h.14l.65-.4V1.87l-.67-.41H48Zm2.15.11V3.62h.6a2,2,0,0,0,.54-.06.75.75,0,0,0,.35-.2,1.2,1.2,0,0,0,.26-.85A1.33,1.33,0,0,0,51.8,2a.8.8,0,0,0-.34-.34,1.24,1.24,0,0,0-.54-.11Z"/><path class="b" d="M53.93,1.39h2.94v.07h-.13l-.68.42V5.43h1.2l1.63-1.37V3.91H59l-.1,1.63H53.92V5.47h.14l.66-.4V1.85l-.64-.39h-.15Z"/><path class="b" d="M32.91,26.87a1.41,1.41,0,0,1-1-1.15c-.21-1.12.66-3.84,4.9-2.86a5.05,5.05,0,0,0-3.59-.51,3.19,3.19,0,0,0-2.51,4A1.31,1.31,0,0,0,32.91,26.87Z"/><path class="b" d="M21.6,49.65a3.67,3.67,0,0,0,.78-1.71c.39-1.39,0-5.45.75-6.36a9.67,9.67,0,0,0-.1,2.8c.12,1.92.22,4-1.1,5.47a6.48,6.48,0,0,0,4.61-3.36,6.45,6.45,0,0,1-3.94,3.73,4.79,4.79,0,0,0,3.14-1.44c2.16-2,.85-4.59,2-5.81,0,0-.19-.09-.61.1a2.43,2.43,0,0,0-.77.57,5.42,5.42,0,0,1-3.67,5.71s2.63-1.88,3.17-3.83a10.69,10.69,0,0,0-.12-4.88A2.81,2.81,0,0,1,26,38.3a2.41,2.41,0,0,0-1.1.35,3.68,3.68,0,0,0-1.17,1.59s2.24,4.59.61,7.38a8.37,8.37,0,0,0,.09-4.15c-.54-2.13-1.08-2.69-1.11-3.61a1.85,1.85,0,0,1,.44-1.38A3.62,3.62,0,0,0,21.67,41a12.68,12.68,0,0,0,0,5.54A7.69,7.69,0,0,1,21.6,49.65Zm3.32-8.41a3.08,3.08,0,0,1,.35-2.51s.05-.07.06-.07l-.06.07a2.9,2.9,0,0,0-.14,2.07,9.64,9.64,0,0,1,.31,5,22.25,22.25,0,0,0-.08-2.28A12.23,12.23,0,0,0,24.92,41.24Zm-1.26,3s0,0,0,0h0a5.18,5.18,0,0,1-.56,4.4s0,.06,0,.06l0-.06A12.13,12.13,0,0,0,23.66,44.29Z"/><path class="b" d="M19.08,40.94c.09.32.17.64.27,1a11.36,11.36,0,0,0-.69-6.7A9.64,9.64,0,0,1,20,40.57a8.21,8.21,0,0,0-.16-3.48,9.7,9.7,0,0,1,.45,2.28A9.23,9.23,0,0,0,19.78,36a5.9,5.9,0,0,1-.35-2.76c-.88,0-1.68,1.72-1.68,1.72A10.18,10.18,0,0,1,19.08,40.94Z"/><path class="b" d="M78.24,46.52a12.68,12.68,0,0,0,0-5.54,3.62,3.62,0,0,0-2.11-2.5,1.85,1.85,0,0,1,.44,1.38c0,.92-.57,1.48-1.11,3.61a8.37,8.37,0,0,0,.09,4.15c-1.63-2.79.61-7.38.61-7.38A3.68,3.68,0,0,0,75,38.65a2.41,2.41,0,0,0-1.1-.35,2.81,2.81,0,0,1,.26,2.34,10.83,10.83,0,0,0-.12,4.88c.54,1.95,3.17,3.83,3.17,3.83a5.42,5.42,0,0,1-3.67-5.71,2.43,2.43,0,0,0-.77-.57c-.42-.19-.61-.1-.61-.1,1.17,1.22-.14,3.81,2,5.81a4.79,4.79,0,0,0,3.14,1.44,6.45,6.45,0,0,1-3.94-3.73A6.48,6.48,0,0,0,78,49.85c-1.32-1.5-1.22-3.55-1.1-5.47a9.67,9.67,0,0,0-.1-2.8c.75.91.36,5,.75,6.36a3.67,3.67,0,0,0,.78,1.71A7.69,7.69,0,0,1,78.24,46.52Zm-3.67-3a22.25,22.25,0,0,0-.08,2.28,9.64,9.64,0,0,1,.31-5,2.9,2.9,0,0,0-.14-2.07l-.06-.07s0,0,.06.07A3.08,3.08,0,0,1,75,41.24,12.23,12.23,0,0,0,74.57,43.5Zm2.26,5.19,0,.06s0,0,0-.06a5.18,5.18,0,0,1-.56-4.4h0s0,0,0,0A12.13,12.13,0,0,0,76.83,48.69Z"/><path class="b" d="M80.85,40.94c-.09.32-.17.64-.27,1a11.36,11.36,0,0,1,.69-6.7A9.64,9.64,0,0,0,80,40.57a8.21,8.21,0,0,1,.16-3.48,9.7,9.7,0,0,0-.45,2.28A9.23,9.23,0,0,1,80.15,36a5.9,5.9,0,0,0,.35-2.76c.88,0,1.68,1.72,1.68,1.72A10.18,10.18,0,0,0,80.85,40.94Z"/><polygon class="b" points="52.24 49.47 55.92 46.8 51.37 46.8 49.96 42.47 48.55 46.8 44 46.8 47.69 49.47 46.28 53.8 49.96 51.13 53.64 53.8 52.24 49.47"/><path class="h" d="M68.42,33.61v-.54H50v9.42l1.4,4.31h4.55l-3.68,2.67H66.92a67.69,67.69,0,0,0,1-6.9A85.28,85.28,0,0,0,68.42,33.61Z"/><path class="h" d="M50,51.13,46.27,53.8l1.41-4.33H33a32.46,32.46,0,0,0,2.67,8.14c1.59,3,4.86,6.41,9.48,9.74C47,68.69,48.72,69.77,50,70.5h0V51.13Z"/><path class="i" d="M50,33.07H31.51v.54A85.41,85.41,0,0,0,32,42.67c.26,2.46.61,4.74,1,6.8H47.68L44,46.8h4.55L50,42.47v-9.4Z"/><path class="i" d="M52.23,49.47l1.41,4.33L50,51.13V70.5c1.26-.75,3-1.85,4.92-3.22,4.55-3.31,7.79-6.65,9.37-9.67a32.06,32.06,0,0,0,2.67-8.14Z"/></svg>