<?xml version="1.0" encoding="UTF-8"?>
<svg id="npl" xmlns="http://www.w3.org/2000/svg" viewBox="0 0 720.05 172.7">
  <defs>
    <style>
      .cls-1 {
        fill: none;
        stroke: #fff;
        stroke-linecap: square;
        stroke-miterlimit: 10;
        stroke-width: 1.07px;
      }

      .cls-2 {
        fill: #2a7de1;
      }

      .cls-2, .cls-3, .cls-4 {
        stroke-width: 0px;
      }

      .cls-3 {
        fill: #fcee1d;
      }

      .cls-4 {
        fill: #011e41;
      }
    </style>
  </defs>
  <g>
    <g>
      <path class="cls-4" d="M198.67,79.23c-.94-.59-1.61-1.41-2.03-2.45-.42-1.04-.63-2.43-.63-4.17v-17.91l26.03,26.74h.71v-21.56c0-2.63.57-4.64,1.7-6.02,1.14-1.38,2.79-2.07,4.96-2.07h.3v-.8h-14.93v.8c.99.07,1.77.18,2.32.32.55.14,1.1.39,1.65.73,1.02.62,1.8,1.52,2.34,2.71.54,1.19.81,2.57.81,4.15v12.99l-20.96-21.71h-12.11v.8h.39c1.27,0,2.35.2,3.24.59.89.4,1.57.96,2.04,1.7.47.74.7,1.63.7,2.68v17.05c0,1.41-.24,2.59-.72,3.54-.48.95-1.23,1.67-2.25,2.15-1.01.48-2.33.77-3.94.85v.8h15.73v-.8c-1.12-.04-1.98-.12-2.59-.22-1.09-.13-2.02-.42-2.78-.89Z"/>
      <path class="cls-4" d="M232.6,80.33h-.82l.04.8h32.83v-12.41h-.8c-.49,1.74-.96,3.12-1.4,4.14-.78,1.79-1.87,3.28-3.28,4.47-.82.71-1.7,1.28-2.63,1.72-.94.44-1.99.76-3.16.97-1.17.21-2.49.32-3.96.32h-4.96v-13.49h1.25c2.39,0,4.23.8,5.53,2.39.46.59.84,1.18,1.13,1.77.29.59.56,1.35.8,2.3.24.94.44,1.95.62,3.01h.76v-19.77h-.76c-.14,1.21-.3,2.12-.48,2.74-.34,1.46-.88,2.71-1.6,3.76-1.4,2.04-3.28,3.07-5.65,3.07h-1.6v-14.33h5.93c2.53,0,4.68.37,6.45,1.1,1.06.46,2.05,1.23,2.96,2.31.75.91,1.36,1.87,1.82,2.88.47,1.01,1,2.54,1.59,4.58h.65v-11.68h-32.07v.8h.82c1.87,0,3.25.45,4.14,1.34.89.89,1.34,2.27,1.34,4.15v17.54c0,3.68-1.83,5.53-5.48,5.53Z"/>
      <path class="cls-4" d="M314.57,53.12c.59-.44,1.13-.77,1.63-.96.5-.19,1.15-.32,1.95-.38v-.8h-12.11l.04.8c1.76.04,3.05.33,3.9.86.84.53,1.26,1.34,1.26,2.42,0,.71-.16,1.5-.47,2.38l-6.37,16.23-6.5-17.72c-.2-.5-.3-1.03-.3-1.6,0-.83.36-1.47,1.08-1.91.72-.44,1.73-.66,3.02-.66h.8v-.8h-16.36v.8c.79,0,1.46.11,2.02.32.55.22,1.09.6,1.61,1.14.59.56,1.08,1.19,1.46,1.88.38.69.82,1.77,1.33,3.24l-6.15,15.3-6.37-17.63c-.26-.76-.39-1.49-.39-2.18s.3-1.22.89-1.56c.6-.33,1.54-.5,2.82-.52l-.04-.8h-15.69v.8h.76c1.37,0,2.52.48,3.47,1.44.95.96,1.81,2.53,2.57,4.71l8.72,23.87h.84l8.98-22.47,8.24,22.47h.8l9.47-24.08c.85-2.11,1.88-3.65,3.09-4.6Z"/>
      <path class="cls-4" d="M353.91,80.33h-1.51c-3.66,0-5.48-1.84-5.48-5.53v-7.16h8.27c2.13,0,4.04-.19,5.74-.56,1.7-.37,3.13-.92,4.31-1.63,1.17-.71,2.06-1.59,2.67-2.62.6-1.03.91-2.22.91-3.54,0-1.92-.63-3.54-1.89-4.84-1.26-1.3-3.08-2.2-5.45-2.71-.66-.14-1.5-.27-2.5-.38-1.01-.11-2.14-.2-3.41-.27-1.27-.07-2.43-.11-3.5-.11h-18v.8h1.01c3.65,0,5.48,1.83,5.48,5.48v17.54c0,3.68-1.83,5.53-5.48,5.53h-1.06v.8h19.9v-.8ZM346.92,51.78h5.78c1.41,0,2.59.09,3.54.28.95.18,1.78.49,2.48.91,1.97,1.18,2.96,3.27,2.96,6.28,0,2.57-.71,4.48-2.14,5.71-1.42,1.23-3.63,1.84-6.6,1.84h-6.02v-15.02Z"/>
      <path class="cls-4" d="M413.84,80.29h-.84c-1.74,0-3.08-.31-4.01-.93-.47-.36-1.08-.99-1.8-1.89-.73-.9-1.49-1.96-2.3-3.18-.3-.44-.57-.84-.8-1.19-.23-.34-.58-.86-1.06-1.56l-.71-1.08c-1.21-.27-2.29-.58-3.24-.92-.95-.34-1.89-.75-2.83-1.24-.94-.49-1.98-1.11-3.13-1.86v-.09c2.33,0,4.06-.04,5.2-.13,1.5-.13,3-.38,4.51-.76,1.51-.37,2.71-.8,3.58-1.27,2.36-1.38,3.54-3.21,3.54-5.48,0-.83-.18-1.68-.55-2.52-.37-.85-.86-1.58-1.48-2.2-1.08-1.09-2.54-1.87-4.38-2.33-1.84-.46-4.35-.69-7.51-.69h-23.37v.8h.82c1.87,0,3.25.45,4.14,1.34.89.89,1.34,2.27,1.34,4.15v17.54c0,1.86-.45,3.23-1.35,4.13-.9.9-2.28,1.35-4.13,1.35h-.82v.84h19.03v-.84h-.88c-1.84,0-3.22-.45-4.12-1.36-.91-.91-1.36-2.28-1.36-4.12v-8.44h6.78l10.42,14.76h11.31v-.84ZM385.33,65.57v-13.79h8.72c5.83,0,8.74,2.29,8.74,6.86,0,1.6-.32,2.9-.96,3.92-.64,1.01-1.61,1.77-2.91,2.27-1.3.5-2.97.74-5,.74h-8.59Z"/>
      <path class="cls-4" d="M451.54,73.95c1.6-2.39,2.41-5,2.41-7.84,0-1.88-.4-3.73-1.19-5.54-.79-1.8-1.91-3.44-3.37-4.91-1.73-1.73-3.76-3.04-6.1-3.94-2.34-.9-4.92-1.35-7.74-1.35-3.19,0-6.16.71-8.89,2.13-2.73,1.42-4.91,3.33-6.54,5.75-1.63,2.42-2.44,5.02-2.44,7.81,0,2.1.47,4.11,1.41,6.04.94,1.93,2.26,3.61,3.94,5.06,1.68,1.45,3.63,2.57,5.84,3.36,2.21.79,4.56,1.19,7.07,1.19,3.28,0,6.3-.7,9.05-2.09,2.76-1.4,4.94-3.29,6.54-5.68ZM445.04,73.88c-.84,2.26-2.05,4-3.63,5.21-1.58,1.22-3.43,1.82-5.56,1.82-1.57,0-2.99-.35-4.27-1.04-1.28-.69-2.38-1.7-3.3-3.01-.92-1.32-1.63-2.88-2.11-4.7-.49-1.82-.73-3.84-.73-6.05,0-1.77.15-3.42.46-4.95.31-1.53.77-2.92,1.38-4.17.61-1.24,1.35-2.32,2.21-3.23.79-.83,1.76-1.48,2.92-1.93,1.16-.45,2.39-.68,3.7-.68.73,0,1.5.12,2.29.37.79.24,1.49.57,2.09.97,1.22.76,2.27,1.79,3.13,3.1.86,1.3,1.52,2.83,1.99,4.58.46,1.76.69,3.64.69,5.66,0,3.11-.42,5.79-1.26,8.05Z"/>
      <path class="cls-4" d="M476.71,81.71l10.02-22.55c.76-1.69,1.51-3.03,2.26-4.05.75-1.01,1.58-1.79,2.48-2.33.91-.54,1.94-.87,3.09-1v-.8h-12.15v.8c1.37.07,2.43.48,3.21,1.21.77.73,1.15,1.72,1.15,2.96,0,.87-.27,1.89-.82,3.09l-6.9,15.56-8.22-18.04c-.42-.95-.63-1.77-.63-2.46,0-.74.28-1.3.84-1.71.56-.4,1.33-.6,2.31-.6h2.16v-.8h-17.63v.8h1.06c2.19,0,3.97,1.5,5.35,4.51l11.68,25.47.76-.04Z"/>
      <path class="cls-4" d="M517.05,80.29h-.84c-1.84,0-3.21-.45-4.11-1.35-.9-.9-1.35-2.28-1.35-4.13v-17.54c0-1.87.44-3.25,1.34-4.15.89-.89,2.27-1.34,4.12-1.34h.84v-.8h-18.99v.8h.84c1.72,0,3.02.38,3.88,1.14.47.37.83.84,1.07,1.4.24.56.4,1.35.48,2.35.23,2.49.37,6.19.43,11.12.01,1.17.01,2.13,0,2.9-.02.77-.05,1.46-.12,2.05-.07.6-.16,1.29-.27,2.06,0,1.86-.45,3.23-1.35,4.13-.9.9-2.28,1.35-4.13,1.35h-.84v.84h18.99v-.84Z"/>
      <path class="cls-4" d="M559.78,66.5c0-1.93-.41-3.81-1.22-5.63-.81-1.83-1.97-3.47-3.46-4.92-1.65-1.68-3.69-2.93-6.12-3.74-2.43-.81-5.26-1.22-8.51-1.22h-20.01v.8h1.1c1.87,0,3.25.45,4.14,1.34.89.89,1.34,2.27,1.34,4.15v17.54c0,1.86-.45,3.23-1.35,4.13-.9.9-2.28,1.35-4.13,1.35h-1.1v.84h21.43c2.56,0,4.94-.36,7.14-1.07,2.2-.71,4.1-1.72,5.71-3.03,1.61-1.31,2.85-2.86,3.72-4.66.88-1.8,1.32-3.76,1.32-5.87ZM548.73,77.42c-.65.69-1.4,1.25-2.27,1.67-.86.42-1.87.73-3.02.92-1.15.18-2.55.28-4.21.28h-5.83v-28.51h5.44c1.63,0,3.02.09,4.18.28,1.16.18,2.18.49,3.06.92.89.42,1.68.98,2.38,1.67.85.85,1.55,1.83,2.11,2.96.56,1.12.99,2.42,1.29,3.9.3,1.47.44,3.04.44,4.69,0,5.05-1.19,8.79-3.58,11.22Z"/>
      <path class="cls-4" d="M594.9,72.86c-.78,1.79-1.87,3.28-3.28,4.47-.82.71-1.7,1.28-2.63,1.72-.94.44-1.99.76-3.16.97-1.17.21-2.49.32-3.96.32h-4.96v-13.49h1.25c2.39,0,4.23.8,5.53,2.39.46.59.84,1.18,1.13,1.77.29.59.56,1.35.8,2.3.24.94.44,1.95.62,3.01h.76v-19.77h-.76c-.14,1.21-.3,2.12-.48,2.74-.34,1.46-.88,2.71-1.6,3.76-1.4,2.04-3.28,3.07-5.66,3.07h-1.6v-14.33h5.94c2.53,0,4.68.37,6.45,1.1,1.07.46,2.05,1.23,2.96,2.31.75.91,1.36,1.87,1.82,2.88.47,1.01,1,2.54,1.59,4.58h.65v-11.68h-32.07v.8h.82c1.87,0,3.25.45,4.14,1.34.89.89,1.34,2.27,1.34,4.15v17.54c0,3.68-1.83,5.53-5.48,5.53h-.82l.04.8h32.83v-12.41h-.8c-.49,1.74-.96,3.12-1.4,4.14Z"/>
      <path class="cls-4" d="M616.15,80.33c-1.12-.04-1.99-.12-2.59-.22-1.09-.13-2.02-.42-2.78-.89-.94-.59-1.61-1.41-2.03-2.45-.42-1.04-.62-2.43-.62-4.17v-17.91l26.03,26.74h.71v-21.56c0-2.63.57-4.64,1.7-6.02,1.14-1.38,2.79-2.07,4.96-2.07h.3v-.8h-14.93v.8c.99.07,1.77.18,2.32.32.55.14,1.1.39,1.65.73,1.02.62,1.8,1.52,2.34,2.71.54,1.19.81,2.57.81,4.15v12.99l-20.96-21.71h-12.11v.8h.39c1.26,0,2.34.2,3.24.59.89.4,1.57.96,2.04,1.7.47.74.7,1.63.7,2.68v17.05c0,1.41-.24,2.59-.72,3.54-.48.95-1.23,1.67-2.25,2.15-1.01.48-2.33.77-3.94.85v.8h15.73v-.8Z"/>
      <path class="cls-4" d="M654.35,79.61c2.66,1.43,5.53,2.15,8.61,2.15,4.89,0,8.8-1.8,11.72-5.39.73-.92,1.31-1.81,1.73-2.66.42-.85.8-1.91,1.14-3.19h-.76c-.45,1.38-.89,2.49-1.34,3.33-.45.84-1.03,1.68-1.75,2.52-.89,1.01-1.87,1.85-2.95,2.53-1.07.69-2.22,1.2-3.45,1.54-1.23.34-2.52.52-3.85.52-1.44,0-2.77-.23-3.98-.68-1.22-.46-2.25-1.11-3.1-1.97-.69-.72-1.26-1.62-1.72-2.69-.45-1.07-.79-2.38-1-3.94-.22-1.55-.32-3.34-.32-5.35,0-3.5.31-6.38.92-8.64.61-2.27,1.55-3.94,2.82-5.01,1.26-1.07,2.91-1.61,4.92-1.61,1.68,0,3.32.38,4.92,1.14,1.6.76,3.07,1.87,4.42,3.33,1.35,1.45,2.52,3.19,3.52,5.22.37.72.67,1.41.89,2.07.22.66.46,1.52.7,2.57h.71l-.63-14.5h-.76c-1.54,2.13-2.82,3.2-3.84,3.2-.46,0-1.18-.34-2.16-1.01-.88-.65-1.73-1.17-2.56-1.56-.83-.4-1.7-.69-2.63-.87-.93-.18-1.91-.27-2.95-.27-3.11,0-5.85.78-8.22,2.33-1.57,1.02-2.95,2.25-4.13,3.68-1.19,1.43-2.09,2.97-2.71,4.62-.62,1.65-.93,3.3-.93,4.97,0,2.81.78,5.42,2.35,7.84,1.57,2.43,3.68,4.36,6.34,5.78Z"/>
      <path class="cls-4" d="M713.7,68.72c-.49,1.74-.96,3.12-1.4,4.14-.78,1.79-1.87,3.28-3.28,4.47-.82.71-1.7,1.28-2.63,1.72-.94.44-1.99.76-3.16.97-1.17.21-2.49.32-3.96.32h-4.96v-13.49h1.25c2.39,0,4.23.8,5.53,2.39.46.59.84,1.18,1.13,1.77.29.59.56,1.35.8,2.3.24.94.44,1.95.62,3.01h.76v-19.77h-.76c-.14,1.21-.3,2.12-.48,2.74-.34,1.46-.88,2.71-1.6,3.76-1.4,2.04-3.28,3.07-5.66,3.07h-1.6v-14.33h5.94c2.53,0,4.68.37,6.45,1.1,1.07.46,2.05,1.23,2.96,2.31.75.91,1.35,1.87,1.82,2.88.47,1.01,1,2.54,1.59,4.58h.65v-11.68h-32.07v.8h.82c1.87,0,3.25.45,4.14,1.34.89.89,1.34,2.27,1.34,4.15v17.54c0,3.68-1.83,5.53-5.48,5.53h-.82l.04.8h32.83v-12.41h-.8Z"/>
    </g>
    <g>
      <path class="cls-4" d="M203.51,120.41h-6.11v-12.78c0-1.01-.05-1.13.78-1.43v-.69h-3.81v.69c.9.21.85.37.85,1.43v12.23c0,1.06.05,1.22-.85,1.43v.69h11.93v-2.93h-.69c-.25,1.27-.92,1.36-2.1,1.36Z"/>
      <path class="cls-4" d="M209.12,106.2c.97.21.92.37.92,1.43v12.23c0,1.06.05,1.22-.92,1.43v.69h4.01v-.69c-.97-.3-.92-.42-.92-1.43v-12.23c0-1.01-.05-1.13.92-1.43v-.69h-4.01v.69Z"/>
      <path class="cls-4" d="M216.86,106.2c.9.21.85.37.85,1.43v12.23c0,1.06.05,1.22-.85,1.43v.69h3.81v-.69c-.83-.3-.78-.42-.78-1.43v-6.39h5.35c.71,0,1.29-.07,1.45.83h.69v-3.25h-.69c-.25.97-1.04.85-1.82.85h-4.98v-4.82h5.86c1.29,0,3.58-.3,3.69,1.5h.69v-3.07h-13.27v.69Z"/>
      <path class="cls-4" d="M244.5,120.41h-7.98v-6.94h5.65c.74,0,1.29-.07,1.52.78h.69v-3.18h-.69c-.23.97-1.27.83-2.03.83h-5.15v-4.82h7.98c1.02,0,1.45.09,1.78,1.13h.69v-2.7h-13.56v.69c1.01.14.94.48.94,1.43v12.23c0,.92.07,1.27-.94,1.43v.69h14.35v-2.95h-.69c-.28,1.43-1.38,1.38-2.56,1.38Z"/>
      <path class="cls-4" d="M259.45,106.2c.97.21.92.37.92,1.43v12.23c0,1.06.05,1.22-.92,1.43v.69h4.01v-.69c-.97-.3-.92-.42-.92-1.43v-12.23c0-1.01-.05-1.13.92-1.43v-.69h-4.01v.69Z"/>
      <path class="cls-4" d="M278.85,106.2c.99.21.95.37.95,1.43v5.95l-9.28-8.07h-3.18v.69c1.01.21.97.37.97,1.43v12.23c0,1.06.05,1.22-.97,1.43v.69h3.6v-.69c-1.02-.21-.97-.37-.97-1.43v-12l9.83,8.6v3.39c0,1.06.05,1.22-.95,1.43v.69h3.46v-.69c-.9-.21-.85-.37-.85-1.43v-12.23c0-1.06-.05-1.22.85-1.43v-.69h-3.46v.69Z"/>
      <path class="cls-4" d="M288.53,109.11c0-1.8,2.63-2.38,4.06-2.38.95,0,3.6.28,3.6,1.66,0,.3-.14.58-.28.83l.64.41,1.82-2.14c-1.73-1.52-3.46-2.33-5.79-2.33-2.68,0-6,1.27-6,4.4,0,5.82,10.64,3.94,10.64,8.17,0,2.35-2.58,3.02-4.54,3.02-1.29,0-4.59-.46-4.59-2.31,0-.48.35-.74.67-1.04l-.46-.64-2.42,1.47c1.13,2.98,3.62,4.08,6.64,4.08s6.65-1.34,6.65-4.84c0-6.23-10.64-4.38-10.64-8.37Z"/>
      <path class="cls-4" d="M312.9,106.2c.9.21.85.37.85,1.43v12.78h-3c-1.69,0-3.07-.02-4.31-1.29-1.02-1.02-1.41-2.52-1.41-3.94,0-2.33.6-4.71,1.71-6.79.46-.83,1.04-1.98,2.08-2.19v-.69h-4.13v.69c.6.07,1.13.09.78.67-1.45,2.45-2.84,5.61-2.84,8.49,0,1.87.65,3.88,2.15,5.1,1.43,1.2,3.32,1.52,5.12,1.52h6.92v-.69c-.94-.21-.9-.37-.9-1.43v-12.23c0-1.01-.05-1.13.9-1.43v-.69h-3.92v.69Z"/>
      <path class="cls-4" d="M332.73,120.07l-4.22-5.51c2.79-.16,5.05-1.71,5.05-4.68,0-3.28-2.58-4.36-5.51-4.36h-6.92v.69c.9.21.85.37.85,1.43v12.23c0,1.06.05,1.22-.85,1.43v.69h3.81v-.69c-.83-.3-.78-.42-.78-1.43v-5.31h1.94l5.49,7.43h2.82v-.69c-.83-.09-1.2-.6-1.66-1.22ZM324.15,113.05v-6.05h3.6c2.08,0,3.88.6,3.88,3,0,2.75-2.77,3.05-4.89,3.05h-2.58Z"/>
      <path class="cls-4" d="M352.16,119.86l-6.34-14.35h-1.62l-6.21,14.79c-.21.48-.34.83-.9.99v.69h3.35v-.69c-.34-.18-1.08-.07-.62-1.2l1.96-4.78h6.07l2.1,4.54c.55,1.2.3,1.2-.37,1.43v.69h3.81v-.69c-.69-.14-.97-.88-1.22-1.43ZM342.45,113.74l2.28-5.51,2.45,5.51h-4.73Z"/>
      <path class="cls-4" d="M368.19,106.2c.99.21.94.37.94,1.43v5.95l-9.27-8.07h-3.18v.69c1.01.21.97.37.97,1.43v12.23c0,1.06.05,1.22-.97,1.43v.69h3.6v-.69c-1.01-.21-.97-.37-.97-1.43v-12l9.83,8.6v3.39c0,1.06.05,1.22-.94,1.43v.69h3.46v-.69c-.9-.21-.85-.37-.85-1.43v-12.23c0-1.06-.05-1.22.85-1.43v-.69h-3.46v.69Z"/>
      <path class="cls-4" d="M388.01,109.66l2.1-2.03c-1.68-1.59-3.83-2.47-6.14-2.47-4.43,0-8.33,3.02-8.33,7.66,0,2.75,1.41,5.35,3.55,7.04,2.03,1.62,4.57,2.47,7.15,2.47.97,0,1.91-.11,2.86-.35v-2.86h-.62c-.3,1.2-1.41,1.59-2.51,1.59-4.24,0-8.03-3.51-8.03-7.82,0-3.62,2.35-6.11,6.02-6.11,1.11,0,3.62.39,3.62,1.87,0,.23-.09.44-.23.62l.55.39Z"/>
      <path class="cls-4" d="M405.16,120.41h-7.98v-6.94h5.65c.74,0,1.29-.07,1.52.78h.69v-3.18h-.69c-.23.97-1.27.83-2.03.83h-5.14v-4.82h7.98c1.01,0,1.45.09,1.78,1.13h.69v-2.7h-13.57v.69c1.01.14.95.48.95,1.43v12.23c0,.92.07,1.27-.95,1.43v.69h14.35v-2.95h-.69c-.28,1.43-1.38,1.38-2.56,1.38Z"/>
      <path class="cls-4" d="M432.56,109.66l2.1-2.03c-1.68-1.59-3.83-2.47-6.14-2.47-4.43,0-8.33,3.02-8.33,7.66,0,2.75,1.41,5.35,3.55,7.04,2.03,1.62,4.57,2.47,7.15,2.47.97,0,1.91-.11,2.86-.35v-2.86h-.62c-.3,1.2-1.41,1.59-2.51,1.59-4.24,0-8.03-3.51-8.03-7.82,0-3.62,2.35-6.11,6.02-6.11,1.11,0,3.62.39,3.62,1.87,0,.23-.09.44-.23.62l.55.39Z"/>
      <path class="cls-4" d="M446.88,105.16c-4.87,0-8.51,3.48-8.51,8.4s3.39,8.77,8.47,8.77,8.42-3.71,8.42-8.63-3.44-8.53-8.37-8.53ZM446.9,120.76c-4.17,0-6.14-3.21-6.14-7.06s1.82-6.97,5.91-6.97c4.29,0,6.18,3.28,6.18,7.17s-1.89,6.85-5.95,6.85Z"/>
      <path class="cls-4" d="M475.79,120.14l-2.49-13.01c-.11-.58-.16-.85.67-.92v-.69h-2.98l-3.6,9.37-3.88-9.37h-2.93v.69c.78.21.76.28.6,1.11l-2.28,12.69c-.11.6-.21,1.11-.88,1.29v.69h3.21v-.69c-.69-.12-.72-.49-.6-1.15l2.01-11.81,4.06,9.78h.97l3.81-9.78,2.17,11.81c.07.39.39,1.01-.58,1.15v.69h3.6v-.69c-.64-.18-.76-.53-.88-1.15Z"/>
      <path class="cls-4" d="M485.45,105.51h-6.02v.69c.99.21.95.37.95,1.43v12.23c0,1.06.05,1.22-.95,1.43v.69h4.06v-.69c-.99-.3-.94-.42-.94-1.43v-2.88c3.11-1.13,9.16-2.89,9.16-7.18,0-3.48-3.44-4.29-6.25-4.29ZM482.54,115.34v-8.33h2.54c1.96,0,4.45.3,4.45,2.82,0,3.11-4.68,4.66-6.99,5.51Z"/>
      <path class="cls-4" d="M507.21,119.86l-6.34-14.35h-1.62l-6.21,14.79c-.21.48-.34.83-.9.99v.69h3.35v-.69c-.35-.18-1.08-.07-.62-1.2l1.96-4.78h6.07l2.1,4.54c.55,1.2.3,1.2-.37,1.43v.69h3.81v-.69c-.69-.14-.97-.88-1.22-1.43ZM497.5,113.74l2.29-5.51,2.44,5.51h-4.73Z"/>
      <path class="cls-4" d="M523.23,106.2c.99.21.94.37.94,1.43v5.95l-9.27-8.07h-3.18v.69c1.01.21.97.37.97,1.43v12.23c0,1.06.05,1.22-.97,1.43v.69h3.6v-.69c-1.01-.21-.97-.37-.97-1.43v-12l9.83,8.6v3.39c0,1.06.05,1.22-.94,1.43v.69h3.46v-.69c-.9-.21-.85-.37-.85-1.43v-12.23c0-1.06-.05-1.22.85-1.43v-.69h-3.46v.69Z"/>
      <path class="cls-4" d="M540.25,106.2c.99.12.69.46.21,1.38l-3.35,6.46-3.78-6.92c-.37-.69-.48-.81.37-.92v-.69h-3.9v.69c.69.09,1.13.83,1.43,1.36l4.57,8.44v3.85c0,1.06.05,1.22-.97,1.43v.69h4.04v-.69c-.95-.3-.9-.42-.9-1.43v-3.99l4.38-8.28c.32-.62.6-1.27,1.36-1.38v-.69h-3.46v.69Z"/>
      <path class="cls-4" d="M564.46,120.41h-6.11v-12.78c0-1.01-.05-1.13.78-1.43v-.69h-3.81v.69c.9.21.85.37.85,1.43v12.23c0,1.06.05,1.22-.85,1.43v.69h11.93v-2.93h-.69c-.25,1.27-.92,1.36-2.1,1.36Z"/>
      <path class="cls-4" d="M570.08,106.2c.97.21.92.37.92,1.43v12.23c0,1.06.05,1.22-.92,1.43v.69h4.01v-.69c-.97-.3-.92-.42-.92-1.43v-12.23c0-1.01-.05-1.13.92-1.43v-.69h-4.01v.69Z"/>
      <path class="cls-4" d="M594.6,120.14l-2.49-13.01c-.12-.58-.16-.85.67-.92v-.69h-2.98l-3.6,9.37-3.88-9.37h-2.93v.69c.78.21.76.28.6,1.11l-2.29,12.69c-.11.6-.21,1.11-.88,1.29v.69h3.21v-.69c-.69-.12-.71-.49-.6-1.15l2.01-11.81,4.06,9.78h.97l3.81-9.78,2.17,11.81c.07.39.39,1.01-.58,1.15v.69h3.6v-.69c-.65-.18-.76-.53-.88-1.15Z"/>
      <path class="cls-4" d="M598.24,106.2c.97.21.92.37.92,1.43v12.23c0,1.06.05,1.22-.92,1.43v.69h4.01v-.69c-.97-.3-.92-.42-.92-1.43v-12.23c0-1.01-.05-1.13.92-1.43v-.69h-4.01v.69Z"/>
      <path class="cls-4" d="M605.23,108.25h.69c.21-1.27.71-1.18,1.78-1.18h3.46v12.78c0,1.06.05,1.22-.97,1.43v.69h4.11v-.69c-1.01-.21-.97-.37-.97-1.43v-12.78h3.62c1.06,0,1.5-.07,1.61,1.18h.69v-2.75h-14.03v2.75Z"/>
      <path class="cls-4" d="M633.62,120.41h-7.98v-6.94h5.65c.74,0,1.29-.07,1.52.78h.69v-3.18h-.69c-.23.97-1.27.83-2.03.83h-5.14v-4.82h7.98c1.01,0,1.45.09,1.78,1.13h.69v-2.7h-13.57v.69c1.01.14.95.48.95,1.43v12.23c0,.92.07,1.27-.95,1.43v.69h14.35v-2.95h-.69c-.28,1.43-1.38,1.38-2.56,1.38Z"/>
      <path class="cls-4" d="M644.38,105.51h-4.13v.69c.99.21.95.37.95,1.43v12.23c0,1.06.05,1.22-.95,1.43v.69h7.08c4.45,0,8.17-2.21,8.17-7.08,0-2.77-1.34-5.54-3.51-7.27-2.35-1.87-4.73-2.12-7.61-2.12ZM646.89,120.41h-3.53v-13.45c2.47,0,4.78.07,6.71,1.5,2.01,1.45,3.02,3.78,3.02,6.23,0,3.94-2.45,5.72-6.21,5.72Z"/>
    </g>
  </g>
  <g>
    <g id="npl-symbol-cutout">
      <path class="cls-4" d="M17.71,53.8c5.52-4.04,14.66,5.25,18.65-1.82.3-.58.51-1.12.65-1.62h0s0-.04.01-.06c.08-.3.13-.59.16-.87.74-4.08.88-6.86.8-8.31,5.47,1.35,14.26,4.63,22-6.8-4.37.14-9.95-15.33-8.38-27.04-10.76,14.37-16.83,2.98-21.41,4.22-1.18.17-2.2,1.61-1.53,5.01.2,1,.71,3.79,1.31,7.26.02-.03.04-.06.06-.09v.03s-.05.1-.05.1c0-.01,0-.02,0-.03-4.13,6.98-7.56,2.41-15.95,8.41C5.6,38.21,3.82,59.86,1.22,72.66c3.03-8.54,10.97-14.82,16.49-18.87ZM32.76,42.81s0,0,0,0v.05c.02-.08.05-.15.06-.23l.37-.98c.75-1.23,2.26-1.13,4.29-.67.05,1.39.02,3.78-.43,6.85-.79-2.68-4.19-3.66-4.28-4.86,0-.05,0-.11-.01-.16h0s0,0,0,0Z"/>
      <path class="cls-4" d="M109.43,34.32c7.74,11.43,16.52,8.14,22,6.8-.08,1.43-.02,4.2.8,8.19.05.77.3,1.65.83,2.67,4,7.07,13.13-2.22,18.65,1.82,5.52,4.04,13.46,10.33,16.49,18.87-2.6-12.8-4.39-34.45-12.81-40.48-8.38-6-11.81-1.43-15.95-8.41,0,.01,0,.02,0,.03l-.05-.1v-.02s.04.06.06.09c.6-3.47,1.11-6.26,1.31-7.26.67-3.4-.35-4.85-1.53-5.01-4.58-1.24-10.65,10.15-21.41-4.22,1.56,11.71-4.01,27.18-8.38,27.04ZM131.91,41c2.04-.47,3.56-.57,4.31.66l.37.99c.02.08.04.14.05.22v-.04s0-.01,0-.02h0s0,.02,0,.02c0,.05,0,.1-.01.15-.08,1.18-3.39,2.16-4.24,4.75-.48-3.16-.55-5.43-.49-6.74Z"/>
      <polygon class="cls-4" points="67.21 5.32 67.21 10.86 65.73 13.09 65.33 13.09 65.32 13.26 69.43 13.26 69.43 13.1 69 13.1 67.48 10.81 67.48 5.52 68.67 6.45 72.41 9.38 76.14 12.32 77.34 13.26 77.68 13.26 77.68 6.03 79.13 3.89 79.55 3.89 79.55 3.73 75.47 3.73 75.47 3.89 75.88 3.89 77.41 6.05 77.41 9.49 76.53 8.8 73.74 6.59 70.96 4.41 70.08 3.73 64.97 3.73 64.97 3.89 65.39 3.89 67.21 5.32"/>
      <path class="cls-4" d="M82.31,4.82v7.35l-1.49.92h-.32v.17h6.78v-.17h-.36l-1.49-.94v-3.06h2c1.1,0,2.04-.1,2.81-.3.77-.2,1.36-.5,1.76-.89s.6-.87.6-1.43c0-.41-.12-.8-.35-1.15-.23-.35-.56-.64-.98-.88-.24-.15-.54-.27-.91-.39-.37-.11-.78-.2-1.23-.26-.45-.06-.89-.09-1.3-.09h-7.34v.17h.29l1.54.92ZM85.42,3.98h1.75c.5,0,.92.09,1.26.26.34.17.59.43.76.77.17.34.26.77.26,1.29,0,.89-.2,1.54-.6,1.96-.2.2-.46.35-.79.44-.33.1-.75.14-1.25.14h-1.39V3.98Z"/>
      <polygon class="cls-4" points="105.29 9.51 105.14 9.51 105.11 9.86 101.36 13.01 98.6 13.01 98.6 4.85 100.17 3.9 100.47 3.9 100.47 3.73 93.73 3.73 93.73 3.9 94.07 3.9 95.52 4.78 95.52 12.17 94.01 13.09 93.69 13.09 93.69 13.26 105.06 13.26 105.29 9.51"/>
      <path class="cls-4" d="M155.59,76.92s.48,2.83-.81,6.35c-.82,2.25-1.18,5.24-1.08,7.77.11-1.79.5-3.55,1.04-5.24-.63,2.63-.86,5.42-.36,8.01.01-4.31.55-8.67,2.97-12.37-2.24,4.91-2.45,10.27-1.58,15.41.22-.71.42-1.44.61-2.18-.21-2.69-.19-8.44,3.07-13.79,0,0-1.84-3.97-3.87-3.96Z"/>
      <path class="cls-4" d="M154.3,115.3s5.84-.21,10.15-3.85c4.31-3.64,4.99-8.25,5.9-9.45,0,0-1.42-.21-3.09,1.58,0,0-2.12,3.59-4.68,5.78-2.32,1.98-5.82,2.94-6.56,4.02,0,0,.58-1.21,2.98-2.39,2.4-1.19,6.14-5.88,7.4-7.98,1.26-2.1,2.9-3.41,2.9-3.41,0,0-2.31.45-5.11.61-3.9.21-8.81,5.88-10.72,12.18.67-2.33,2.83-9.51,4.92-13.3,0,0,4.21-1.76,6.67-4.16,2.46-2.4,3.67-5.95,4.65-7.18l.99-1.24s-2.17-.29-3.62.52c-1.45.81-5.62,2.47-9.19,10.99,0,0,.27-3.49,2.97-6.76,2.7-3.27,5.39-5.24,5.39-5.24,0,0,.66-3.09.62-6.47-.04-3.39-1.68-5.49-1.68-5.49,0,0,0,1.51-2.34,4.02-2.17,2.33-5.82,6.31-6.23,15.76.25-.92.51-1.83.81-2.73.96-2.99,2.69-5.58,4.23-8.22-1.39,2.72-2.97,5.42-3.72,8.38-.68,2.4-.96,4.88-1.74,7.33,0,.16-.02.31-.09.45-.46.87-3.65,11.35-4.85,14.96-1.2,3.61-4.37,12.33-6.04,16.09-1.67,3.76-3.23,5.45-3.23,5.45,0,0,1.63-2.38,2.2-5.22.58-2.83.87-7.45-3.33-11.87-2.96-3.12-5.25-3.77-6.34-3.89.83-4.56,1.49-9.58,1.99-15.14,2.51,2.85-.35,8.71,4.56,13.26,2.85,2.63,5.48,3.25,7.22,3.3-3.99-1.65-7.71-4.38-9.04-8.57,1.88,4.4,6.36,6.65,10.59,7.73-3.03-3.45-2.8-8.15-2.53-12.57.29-4.67-.23-6.44-.23-6.44,1.72,2.09.83,11.42,1.72,14.62.9,3.2,1.79,3.93,1.79,3.93-.32-1.05-.75-3.93-.19-7.21.56-3.28,1.33-8.15.03-12.73-1.29-4.58-4.85-5.76-4.85-5.76,0,0,1.09,1.06,1.02,3.18-.07,2.12-1.31,3.4-2.56,8.3-1.25,4.9.22,9.55.22,9.55-3.76-6.43,1.4-16.98,1.4-16.98-.55-1.52-1.72-2.96-2.69-3.67-.97-.7-2.53-.8-2.53-.8,1.2,1.49.96,3.63.6,5.39-.36,1.75-1.54,6.74-.29,11.22,1.24,4.48,7.29,8.81,7.29,8.81-9.83-3.76-8.43-13.14-8.43-13.14,0,0-.79-.89-1.77-1.31-.72-.31-1.14-.29-1.32-.26.62-6.97,1-14.77,1.15-23.6l4.49-8.84h-38.1c.54-.45,1.06-.91,1.55-1.37,3.56-3.34,8.06-8.5,13.51-9.15,5.45-.65,6.1,5.16,6.1,5.16,0,0,1.16-5.3-3.56-6.76-4.72-1.45-8.94,1.16-8.94,1.16,1.53-1.45,1.53-4.79,1.53-4.79,0,0-1.16.22-3.78,0-2.62-.22-4.65,2.18-4.65,2.18-.22,3.05-2.83,6.28-2.83,6.28l-2.17,7.29h-2L119.19,2.77c.79-2.06-1.33-4.08-2.5-1.68-.81,1.66-11.08,33.99-21.1,65.77h-1.14v-20.86c0-4.82,7.3-6.07,7.3-6.07v-.87s-.07.01-.2.04c0-.02,0-.04,0-.06v-1.66c0-.24-.09-.47-.26-.63-.2-.2-.47-.29-.77-.24-1.3.2-2.6.37-3.91.52v-4.42c.41-.04.63-.07.63-.07v-.76l-7.03-3.27v-6.54s-4.49-4.74-5.29-4.74-5.29,4.74-5.29,4.74v6.54l-7.03,3.27v.76s.25.03.7.08v4.44c-1.39-.15-2.77-.33-4.14-.54-.57-.09-1.03.32-1.03.88v1.66s0,.04,0,.06c-.13-.02-.2-.04-.2-.04h0v.87s7.3,1.25,7.3,6.07v20.86h-1.45C63.8,35.08,53.53,2.75,52.72,1.09c-1.17-2.4-3.29-.38-2.5,1.68l20.36,64.09h-1.99l-2.35-7.29s-2.62-3.23-2.83-6.28c0,0-2.03-2.4-4.65-2.18-2.62.22-3.78,0-3.78,0,0,0,0,3.34,1.53,4.79,0,0-4.21-2.61-8.94-1.16-4.72,1.45-3.56,6.76-3.56,6.76,0,0,.65-5.81,6.1-5.16,5.45.65,9.95,5.81,13.51,9.15.49.46,1.01.92,1.55,1.37H29.05l4.49,8.84c.26,15.92,1.29,28.55,3.19,38.86-.65-.04-3.26.1-6.88,3.91-4.2,4.42-3.91,9.03-3.33,11.87.58,2.83,2.2,5.22,2.2,5.22,0,0-1.57-1.69-3.23-5.45-1.66-3.76-4.84-12.48-6.04-16.09-1.2-3.61-4.39-14.09-4.85-14.96-.08-.15-.1-.29-.09-.45-.78-2.45-1.06-4.94-1.74-7.33-.75-2.96-2.33-5.66-3.72-8.38,1.54,2.64,3.27,5.23,4.23,8.22.31.9.57,1.82.81,2.73-.41-9.44-4.06-13.43-6.23-15.76-2.34-2.51-2.34-4.02-2.34-4.02,0,0-1.64,2.1-1.68,5.49-.04,3.39.62,6.47.62,6.47,0,0,2.69,1.97,5.39,5.24,2.7,3.27,2.97,6.76,2.97,6.76-3.57-8.52-7.74-10.18-9.19-10.99-1.45-.81-3.62-.52-3.62-.52l.99,1.24c.99,1.24,2.19,4.78,4.65,7.18,2.46,2.4,6.67,4.16,6.67,4.16,2.09,3.79,4.25,10.97,4.92,13.3-1.91-6.3-6.81-11.96-10.72-12.18-2.8-.16-5.11-.61-5.11-.61,0,0,1.64,1.31,2.9,3.41,1.26,2.1,5,6.79,7.4,7.98,2.4,1.19,2.98,2.39,2.98,2.39-.74-1.08-4.24-2.04-6.56-4.02-2.57-2.19-4.69-5.78-4.69-5.78-1.67-1.79-3.09-1.58-3.09-1.58.91,1.2,1.6,5.81,5.9,9.45,4.31,3.64,10.15,3.85,10.15,3.85-4.76-9.53-11.21-12.68-11.21-12.68,9.7,2.53,13.79,16.12,15.47,20.71,1.69,4.59,4.87,10.69,4.87,10.69-12.92-5.48-16.06-13.34-16.06-13.34,4.25,7.05,14.93,11.95,14.93,11.95-1.03-.47-1.7-.99-2.22-1.66-2.63-2.6-5.25-5.21-7.83-7.87,2.15,1.72,4.33,3.42,6.52,5.11,0-.02-.01-.04-.02-.06-1.38-2.08-2.94-4.11-4.65-5.99,1.32,1.04,2.58,2.16,3.8,3.33-.09-.29-.19-.59-.3-.9-1.67-4.91-8.09-6.65-10.13-7.2-2.04-.55-4.27-2.22-4.27-2.22,1.35,1.64,1.54,7.89,6.34,11.89,4.8,4,11.2,6.3,11.2,6.3-6.13-1.52-10.64-4.41-10.64-4.41,0,0-1.16-.07-1.76-.12-.96-.08-1.52-.35-1.52-.35,0,0,.12,1,2.19,2.98,2.27,2.17,6.71,2.34,9.49,2.34,2.78,0,4.63,1.08,5.23,1.48.6.41,2.22,2.77,1.14,4.18-.97,1.27-.66,2.84-.48,3.46.36,1.07.78,2.13,1.31,3.1.58,1.42,2.7,1.34,3.66,2.28-1.01-.74-3.13-.26-4.23-1.86-.37-.47-.69-.96-.99-1.45.11,1.96,1.74,3.45,2.63,3.68,1.29.32,3.01.21,3.01.21,1.24-1.08.31-3.34.31-3.34,0,0-1.57.68-2.82-.45-1.25-1.12-1.33-2.61-1.33-2.61,0,0,.41,1.48,1.62,1.93,1.21.45,1.68.41,2.94-.04.36-.13,1.2-.83,1.2-.83,0,0-.33-1.32-1.68-2.39-1.35-1.06-3.76-.33-3.76-.33.03-.97.95-1.4.95-1.4,0,0,.62.28,2.23-.32,4.93-1.98,5.98-8.78,7.44-13.9-.47,2.79-.96,5.56-1.73,8.32-.26.8-.56,1.61-.94,2.4,2.23-2.52,3.25-5.98,3.35-7.51.05-.73,0-1.49-.09-2.17,3.77,12.2,9.42,20.51,17.29,27.77-.64-.38-1.31-.76-2-1.14-8.74-4.66-14.15-7.1-20.22-11.99,0,0,1.11.31,2.41.19,0,0,1.48,1.2,3.99-.15,2.51-1.35-.11-5.24-.11-5.24,0,0-1.22.6-2.09.74-.87.14-2,.77-1.93,2.2.01.24-.08.26-.18.44.05,0,.14.19.2.18,1.72-.13,3.75-1.07,3.82-3.18.24,2.09-1.86,3.55-3.68,3.88-1.44.32-2.88.47-4.32.58,1.23.61,3.09,1.92,2.43,4.16,0,0,4.35,3.4,10.06,6.41,5.08,2.68,12.32,6.7,14.76,9.68,2.33,2.84,1.95,4.86,1.19,4.62-.76-.24-1.12-2.04-3.01-1.12-2.52,1.22-1.49,3.69.3,4.59,1.14.57,3.23.3,4.75-.91,1.61-1.78.36-5.44-1.25-7.5-1.94-2.82-5.11-4.49-8.04-6.32-5.88-3.67-12.31-6.62-17.66-11.01,5.45,4.24,11.95,7.03,17.94,10.55,2.96,1.75,6.25,3.36,8.41,6.31,1.07,1.43,1.93,3.06,2.24,4.91.03.12.05.24.06.36.07-.31.12-.64.13-.99.05-1.67-.59-3.29-1.75-4.86,5.66,4.33,12.23,8.53,19.79,13.3h5.34c6.91-4.35,12.97-8.23,18.27-12.17-.69,1.21-1.04,2.46-1.01,3.73.01.35.06.68.13.99.02-.12.04-.24.06-.36.3-1.84,1.17-3.47,2.24-4.91.49-.67,1.05-1.27,1.64-1.82.55-.44,1.09-.88,1.62-1.32,1.64-1.19,3.45-2.16,5.15-3.17,5.98-3.53,12.48-6.31,17.94-10.55-5.35,4.39-11.79,7.34-17.66,11.01-2.93,1.83-6.1,3.5-8.04,6.32-1.61,2.07-2.86,5.72-1.25,7.5,1.52,1.2,3.61,1.48,4.75.91,1.79-.89,2.82-3.37.3-4.59-1.89-.92-2.25.88-3.01,1.12-.76.24-1.13-1.79,1.19-4.62,2.44-2.98,9.67-6.99,14.76-9.68,5.71-3.02,10.06-6.41,10.06-6.41-.66-2.23,1.2-3.55,2.43-4.16-1.44-.1-2.87-.26-4.32-.58-1.82-.33-3.92-1.79-3.68-3.88.06,2.11,2.1,3.05,3.82,3.18.06,0,.14-.19.2-.18-.1-.19-.19-.2-.18-.44.07-1.43-1.06-2.06-1.93-2.2-.87-.14-2.09-.74-2.09-.74,0,0-2.62,3.89-.11,5.24,2.51,1.35,3.99.15,3.99.15,1.3.11,2.41-.19,2.41-.19-6.07,4.89-11.48,7.33-20.22,11.99-.07.04-.14.08-.21.11,6.82-6.59,11.87-14.13,15.4-24.65,0,.02,0,.05,0,.07.11,1.54,1.12,4.99,3.35,7.51-.38-.79-.68-1.6-.94-2.4-.71-2.55-1.18-5.11-1.62-7.68.01-.04.02-.08.03-.12,1.39,5.05,2.53,11.46,7.3,13.37,1.61.6,2.23.32,2.23.32,0,0,.92.43.95,1.4,0,0-2.42-.73-3.77.33-1.35,1.06-1.68,2.39-1.68,2.39,0,0,.83.7,1.2.83,1.26.44,1.72.48,2.94.04,1.21-.45,1.62-1.93,1.62-1.93,0,0-.08,1.49-1.33,2.61-1.25,1.12-2.82.45-2.82.45,0,0-.93,2.27.31,3.34,0,0,1.72.12,3.01-.21.89-.22,2.52-1.72,2.63-3.68-.3.5-.63.98-.99,1.45-1.1,1.59-3.22,1.11-4.23,1.86.96-.94,3.08-.85,3.66-2.28.53-.97.95-2.03,1.31-3.1.18-.62.49-2.19-.48-3.46-1.08-1.41.54-3.78,1.14-4.18.6-.4,2.45-1.49,5.23-1.48,2.78,0,7.22-.17,9.49-2.34,2.08-1.98,2.19-2.98,2.19-2.98,0,0-.56.28-1.52.35-.6.05-1.76.12-1.76.12,0,0-4.51,2.9-10.64,4.41,0,0,6.4-2.3,11.2-6.3,4.79-4,4.99-10.25,6.34-11.89,0,0-2.23,1.67-4.27,2.22-2.04.55-8.46,2.29-10.13,7.2-.11.32-.21.62-.3.9,1.22-1.17,2.48-2.28,3.8-3.33-1.71,1.89-3.28,3.91-4.65,5.99,0,.02-.01.04-.02.06,2.19-1.69,4.37-3.38,6.52-5.11-2.57,2.65-5.2,5.26-7.83,7.87-.51.67-1.19,1.18-2.22,1.66,0,0,10.68-4.9,14.93-11.95,0,0-3.14,7.86-16.06,13.34,0,0,3.18-6.1,4.87-10.69,1.69-4.59,5.77-18.18,15.47-20.71,0,0-6.45,3.15-11.21,12.68ZM163.48,83.2c1.93-3.51,1.91-6.33,1.9-6.69.62,5.93-3.67,10.84-5.69,14.38-2.05,3.35-2.5,6.14-2.54,6.57.17-6.02,4.65-10.5,6.33-14.26ZM141.76,105.8c-1-4.11-.21-8.59.71-11.46.61-2.51,0-4.24-.31-4.76-.04-.05-.09-.11-.14-.16.02-.02.07.04.14.16,1.36,1.55,1.11,3.96.8,5.77-.5,1.97-.91,3.62-1.02,5.21-.27,3.11-.16,5.24-.18,5.24ZM147.16,112.49c-3.16-4.29-1.42-9.57-1.29-10.11-.26,4.81.89,9.33,1.29,10.11.03.04.06.09.1.13-.02,0-.06-.05-.1-.13ZM96.63,37.67c1.34-.15,2.68-.33,4-.53.08-.01.16,0,.21.06.04.04.06.1.06.17v1.66c0,.06-.02.12-.05.18-.89.15-2.38.38-4.23.62v-2.16ZM73.33,39.86c-1.96-.25-3.54-.5-4.47-.65-.03-.06-.05-.12-.05-.18v-1.66c0-.14.09-.23.23-.23.02,0,.03,0,.05,0,1.41.21,2.82.4,4.24.55v2.16ZM11.01,90.89c-2.02-3.54-6.31-8.45-5.69-14.37-.01.37-.02,3.18,1.9,6.69,1.68,3.76,6.17,8.24,6.33,14.26-.04-.44-.49-3.23-2.54-6.57ZM9.16,102.94s1.54.37,3.11,2.05c1.58,1.62,3.13,4.24,3.97,7.11-.21.14-2.54-5.54-7.09-9.16ZM32.5,142.57s-1.64-.95-3.6-1.15c-.13,0,2.28-.61,3.6,1.15ZM33.3,143.32s-.63.32-1.66.37c-.9.08-2.68-.28-3.05-1.71.21.33,2.16,1.15,4.72,1.33ZM29.09,129.97c-.04-4.35,1.93-9.2,5.43-13.78-.53.83-6.29,10.08-3.91,22.03,0,.03-1.56-3.84-1.52-8.25ZM34.5,123.15c-.06.13-.12.26-.18.39-.38,1.23-1.18,5.22-1.94,9.29,0,.08-.01.12-.02.12,0-.04.01-.08.02-.12.06-.77.11-5.24,1.94-9.29.08-.26.14-.4.18-.39ZM33.51,121.06c.09-.26.16-.4.19-.39-.07.13-.13.26-.19.39-.59,1.64-2.24,8.32-2.44,15.3-.05-.78-1.27-7.9,2.44-15.3ZM36.66,126.05s-.33,1.24-.99,3.89c-.93,3.71-4.19,8.23-4.19,8.23,0,0,1.66-5.05,2.75-8.01,1.09-2.96,1.45-8.29,1.19-11.37-.21-2.56.93-3.76,1.33-4.1.64,3.45,1.37,6.64,2.21,9.6-.79.25-2.3,1.77-2.3,1.77ZM37.4,138.57c.01-.05,1.48-.83,2.65-2.06.12-.04-.75,1.88-2.65,2.06ZM79.23,40.46c-1.74-.13-3.41-.3-4.91-.48v-2.18c1.63.16,3.27.29,4.91.38v2.28ZM79.23,37.53c-1.64-.09-3.28-.22-4.91-.38v-4.45c1.15.11,2.84.24,4.91.34v4.49ZM90.5,33.05c2.21-.1,3.98-.24,5.15-.36v4.42c-1.71.18-3.43.32-5.15.41v-4.47ZM90.5,38.18c1.72-.09,3.44-.23,5.15-.41v2.18c-1.56.19-3.32.37-5.15.51v-2.28ZM80.53,33.09c1.4.05,2.93.09,4.57.09,1.46,0,2.83-.03,4.09-.07v4.48c-.44.02-.88.03-1.31.04.06-.24.1-.5.1-.76,0-1.73-1.4-3.13-3.13-3.13s-3.13,1.4-3.13,3.13c0,.26.04.52.1.76-.43-.01-.85-.03-1.28-.04v-4.5ZM86.42,40.63v-1.06c.52-.3.94-.75,1.21-1.28.52-.01,1.04-.03,1.56-.05v2.31c-.06,0-.11,0-.17,0-.87.04-1.74.06-2.61.07ZM86.71,62.08c.18-.01.38-.03.59-.05.21-.02.43-.06.65-.09.45-.07.94-.14,1.42-.22.47-.11.94-.21,1.38-.32.22-.05.43-.09.63-.16.2-.06.39-.12.57-.17.71-.21,1.18-.35,1.18-.35l.22.96s-.48.08-1.21.2c-.18.03-.38.06-.59.1-.21.04-.44.05-.67.08-.47.05-.96.1-1.46.14-.5.02-.99.03-1.45.05-.23,0-.45.02-.67,0-.21,0-.41-.02-.6-.02-.74-.03-1.23-.05-1.23-.05,0,0,.49-.04,1.22-.1ZM84.85,39.35c-1.37,0-2.48-1.11-2.48-2.48s1.11-2.48,2.48-2.48,2.48,1.11,2.48,2.48-1.11,2.48-2.48,2.48ZM83.48,40.63c-.94-.01-1.88-.04-2.81-.07-.04,0-.09,0-.13,0v-2.31c.51.02,1.02.04,1.53.05.31.6.81,1.09,1.42,1.39v.95ZM91.88,63.97c-.22.05-.47.1-.72.15-.25.06-.54.09-.83.13-.57.08-1.19.16-1.8.25-.31.03-.61.04-.92.07-.3.02-.6.04-.89.06-.29.01-.56.05-.83.05-.26,0-.51,0-.74,0-.92,0-1.53,0-1.53,0,0,0,.61-.06,1.52-.15.23-.02.47-.05.73-.07.26-.02.53-.08.81-.13.28-.05.57-.1.87-.15.29-.05.59-.1.89-.15.59-.14,1.17-.28,1.72-.42.27-.07.54-.12.79-.21.25-.08.49-.15.7-.22.88-.27,1.46-.46,1.46-.46l.25.95s-.6.12-1.49.31ZM92.41,59.89c-.14.03-.3.05-.47.08-.16.04-.35.05-.54.07-.37.04-.77.09-1.17.13-.4.02-.79.04-1.16.06-.18,0-.36.02-.53.02-.17,0-.33,0-.48-.01-.59-.01-.98-.02-.98-.02,0,0,.39-.05.97-.13.14-.02.3-.04.47-.06.17-.02.34-.06.52-.1.36-.07.74-.15,1.12-.23.37-.1.74-.21,1.09-.3.17-.05.34-.09.5-.15.16-.06.31-.11.45-.16.56-.19.92-.32.92-.32l.25.95s-.39.07-.96.18ZM92.66,57.57c-.11.02-.23.05-.36.07-.12.03-.27.04-.41.07-.29.04-.59.08-.9.13-.31.03-.61.04-.9.07-.14,0-.28.02-.41.03h-.37c-.45,0-.76,0-.76,0,0,0,.3-.06.74-.15.11-.02.23-.05.36-.07.13-.03.26-.07.39-.11.27-.08.56-.16.84-.24.28-.1.55-.2.81-.29.13-.05.25-.08.37-.14.12-.05.23-.1.34-.15.42-.18.69-.3.69-.3l.3.94s-.3.06-.74.15ZM92.87,55.32c-.08.02-.17.04-.27.06-.09.03-.2.04-.31.06-.22.04-.45.08-.69.12-.23.03-.46.05-.68.08-.11,0-.21.03-.31.03-.1,0-.19,0-.28.01-.35.01-.58.02-.58.02,0,0,.22-.07.55-.17.08-.03.17-.05.26-.08.09-.03.19-.07.29-.11.2-.08.41-.16.62-.25.2-.1.4-.19.59-.28.09-.05.18-.08.27-.13.09-.05.17-.09.24-.13.3-.17.5-.28.5-.28l.36.92s-.22.05-.56.13ZM133.3,138.57c-1.9-.18-2.76-2.1-2.65-2.06,1.17,1.22,2.63,2.01,2.65,2.06ZM135.03,129.94c-.66-2.65-.99-3.89-.99-3.89,0,0-.99-1-1.79-1.52.82-2.89,1.54-5.99,2.17-9.34.47.63,1.02,1.76.87,3.6-.26,3.07.1,8.41,1.19,11.37,1.09,2.96,2.75,8.01,2.75,8.01,0,0-3.26-4.52-4.19-8.23ZM136.2,123.15s.1.13.18.39c1.83,4.05,1.88,8.52,1.94,9.29,0,.04.02.08.02.12,0,0-.01-.04-.02-.12-.76-4.07-1.55-8.06-1.94-9.29-.06-.13-.12-.26-.18-.39ZM139.63,136.36c-.2-6.98-1.84-13.66-2.44-15.3-.06-.13-.12-.26-.19-.39.03,0,.1.13.19.39,3.71,7.4,2.48,14.53,2.44,15.3ZM140.09,138.23c2.39-11.96-3.38-21.21-3.9-22.03,3.49,4.58,5.47,9.44,5.43,13.78.04,4.41-1.53,8.28-1.52,8.25ZM141.79,141.41c-1.96.2-3.59,1.11-3.6,1.15,1.31-1.76,3.73-1.16,3.6-1.15ZM139.06,143.69c-1.03-.05-1.67-.38-1.66-.37,2.55-.18,4.51-1,4.71-1.33-.37,1.43-2.15,1.79-3.05,1.71ZM154.45,112.1c.84-2.86,2.39-5.49,3.97-7.11,1.57-1.68,3.15-2.05,3.11-2.05-4.55,3.62-6.87,9.3-7.08,9.16Z"/>
      <path class="cls-4" d="M15.92,83.27c-1.29-3.52-.82-6.35-.82-6.35-2.03-.01-3.87,3.96-3.87,3.96,3.26,5.35,3.29,11.1,3.07,13.79.2.73.39,1.46.61,2.18.87-5.14.67-10.5-1.58-15.41,2.42,3.7,2.96,8.06,2.97,12.37.5-2.58.27-5.38-.36-8.01.54,1.69.92,3.45,1.04,5.24.1-2.53-.25-5.52-1.08-7.77Z"/>
      <path class="cls-4" d="M27.73,89.39c-.97.7-2.14,2.14-2.69,3.67,0,0,5.16,10.55,1.4,16.98,0,0,1.47-4.65.22-9.55-1.25-4.9-2.49-6.18-2.56-8.3-.07-2.12,1.02-3.18,1.02-3.18,0,0-3.56,1.18-4.85,5.76-1.29,4.57-.53,9.45.03,12.73.56,3.28.13,6.15-.19,7.21,0,0,.9-.73,1.79-3.93.89-3.2,0-12.53,1.72-14.62,0,0-.51,1.77-.23,6.44.27,4.42.51,9.12-2.53,12.57,4.23-1.08,8.71-3.33,10.59-7.73-1.33,4.19-5.05,6.92-9.05,8.57,1.74-.05,4.37-.66,7.22-3.3,4.97-4.61,1.96-10.56,4.65-13.38,0,0-.44-.2-1.42.23-.98.43-1.77,1.31-1.77,1.31,0,0,1.4,9.38-8.43,13.14,0,0,6.05-4.33,7.3-8.81,1.24-4.48.07-9.47-.29-11.22-.36-1.75-.6-3.9.6-5.39,0,0-1.56.09-2.53.8ZM23.54,112.49c-.04.08-.07.13-.09.13.03-.04.06-.09.09-.13.39-.79,1.55-5.3,1.29-10.11.13.54,1.87,5.82-1.29,10.11ZM28.93,105.8s.09-2.14-.18-5.24c-.11-1.59-.52-3.24-1.02-5.21-.31-1.81-.57-4.21.79-5.77.07-.12.12-.17.14-.16-.05.05-.09.11-.14.16-.3.52-.93,2.25-.31,4.76.92,2.86,1.71,7.35.72,11.46Z"/>
      <path class="cls-4" d="M116.62,48.31c.51-.83.54-1.49.54-1.49-1.2.65-5.08.22-7.52.94-2.43.73-3.81,3.49-3.81,3.49.72-.8,2.43-1.64,3.49-1.71,1.05-.07,3.12.04,4.87-.04,1.74-.07,1.12,1.85,1.12,1.85,0,0,.8-2.22,1.31-3.05Z"/>
      <path class="cls-4" d="M124.46,62.31c.44.8,3.81,2.11,5.09-1.2,1.33-3.46-1.05-8.1-5.78-9.19-4.72-1.09-8.25,1.16-8.25,1.16,9.74-2.25,11.73,4,11.26,6.57-.41,2.23-2.32,2.65-2.32,2.65Z"/>
      <path class="cls-4" d="M55.06,49.5c1.74.07,3.81-.04,4.87.04,1.05.07,2.76.91,3.49,1.71,0,0-1.38-2.76-3.81-3.49-2.43-.73-6.32-.29-7.52-.94,0,0,.04.65.54,1.49.51.83,1.31,3.05,1.31,3.05,0,0-.62-1.93,1.13-1.85Z"/>
      <path class="cls-4" d="M53.71,53.08s-3.52-2.25-8.24-1.16c-4.72,1.09-7.11,5.73-5.78,9.19,1.27,3.3,4.65,2,5.08,1.2,0,0-1.91-.42-2.32-2.65-.47-2.58,1.52-8.83,11.26-6.57Z"/>
      <path class="cls-4" d="M53.52,158.56c-1.96-1.21-4.9-1.67-7.3-.46,1.43-1.03,3.41-1.4,5.37-1.19-.02-.01-.04-.03-.06-.04-2.15-.62-4.33-.63-6.48.15-1.93.85-5.03,2.73-3.91,4.58-1.35-1.83.82-4.13,2.89-5.24,1.56-.69,3.65-.93,5.4-.87-2.52-1.12-6.9-.12-8.92,1.95-2.04,2.13-2.8,5.93-6.84,6.73,3.96-1.03,4.25-4.6,6.29-7.06,1.5-1.58,3.8-2.77,6.3-3.01-1.62-.48-3.29-.59-4.8,0-5.17,2-5.65,4.02-5.69,5.51-.04,1.48-2.37,5.12-3.91,4.57,0,0,9.66,3.76,13.67-5.32,0,0-1.37,3.22,1.61,4.92,2.53,1.44,4.46-1.42,4.99-2.32-.32.66-.86,2.38,1.68,3.42,0,0,1.65-3.47.72-5.1-.16-.29-.52-.71-1.01-1.2Z"/>
      <path class="cls-4" d="M137.17,159.59c-.04-1.49-.52-3.51-5.69-5.51-1.51-.58-3.18-.47-4.8,0,2.5.25,4.8,1.43,6.3,3.01,2.04,2.46,2.33,6.03,6.29,7.06-4.04-.79-4.8-4.6-6.85-6.73-2.02-2.08-6.4-3.08-8.92-1.95,1.75-.06,3.84.18,5.4.87,2.07,1.11,4.23,3.4,2.89,5.24,1.12-1.85-1.98-3.73-3.91-4.58-2.16-.78-4.33-.77-6.48-.15-.02.01-.04.03-.06.04,1.95-.21,3.94.16,5.37,1.19-2.39-1.21-5.34-.74-7.3.46-.49.49-.85.91-1.01,1.2-.92,1.63.72,5.1.72,5.1,2.54-1.04,2-2.76,1.68-3.42.53.9,2.46,3.76,4.99,2.32,2.98-1.7,1.61-4.92,1.61-4.92,4.01,9.08,13.67,5.32,13.67,5.32-1.54.56-3.87-3.08-3.91-4.57Z"/>
    </g>
    <g id="npl-shield-blue">
      <path class="cls-2" d="M85.6,75.92h-41.85l.02,1.32c.26,15.25,1.27,27.33,3.18,37.09h33.3l-8.63-6.29h10.68l3.3-10.15h0s0-21.96,0-21.96Z"/>
      <path class="cls-2" d="M90.95,114.33l3.29,10.14-8.64-6.28v44.37c14.76-9.06,24.33-15.64,30.77-26.23,3.5-5.75,6.08-12.86,7.87-22h-33.3Z"/>
    </g>
    <g id="npl-shield-yellow">
      <path class="cls-3" d="M85.6,75.92v21.96l3.3,10.15h10.68l-8.63,6.29h33.3c1.91-9.76,2.92-21.84,3.18-37.09l.02-1.32h-41.85Z"/>
      <path class="cls-3" d="M76.97,124.47l3.29-10.14h-33.3c1.79,9.14,4.37,16.25,7.87,22,6.44,10.59,16.01,17.17,30.77,26.23h0v-44.37h0s-8.64,6.28-8.64,6.28Z"/>
    </g>
    <path id="npl-shield-stroke" class="cls-1" d="M85.6,167.09c-16.4-10.01-26.96-17.07-34.07-28.75-7.62-12.53-11.1-23.81-11.61-54.06,0,0-.02-5.22-.95-8.3-.94-3.08-1.46-3.9-1.46-3.9h96.19s-2.3,4.31-2.3,6.72c0,1.62-.11,6.3-.11,6.3-.52,30.25-3.99,40.73-11.62,53.26-7.11,11.68-17.67,18.74-34.07,28.75Z"/>
  </g>
</svg>