<svg xmlns="http://www.w3.org/2000/svg" viewBox="0 0 162.79 47.68"><title>Group Portal copy</title><path d="M23.3,22.69c-1.36-.71-2.49-.86-6.77-.86H.08V42.31H6.6v-5H17.11c3.29,0,4.87-.18,6-.71,2.16-1,3-3,3-7.27C26.07,25.57,25.3,23.73,23.3,22.69ZM16.11,32.3H6.6V26.8h9.51c2.83,0,3.45.55,3.45,3C19.56,31.74,18.78,32.3,16.11,32.3Z" fill="#fff"/><path d="M88.07,28.58c0-3.22-.81-5.06-2.58-5.95-1.23-.59-2.78-.8-6-.8H61V42.31H67.5V37.15h10c1.78,0,2.29.06,2.81.4s.8,1,.8,2.21v2.55h6.65V39.08a5,5,0,0,0-.65-3c-.64-1-1.55-1.32-4-1.44l-1.06-.06c2.61-.37,3.35-.55,4.16-1.11C87.45,32.63,88.07,31,88.07,28.58ZM77.72,32.14H67.5V26.86H77.94c2,0,2.48.1,3,.59s.55,1,.55,2.42C81.49,31.74,80.84,32.14,77.72,32.14Z" fill="#fff"/><polygon points="114.79 21.83 89.09 21.83 89.09 26.89 98.67 26.89 98.67 42.31 105.22 42.31 105.22 26.89 114.79 26.89 114.79 21.83" fill="#fff"/><path d="M120,21.83,107.92,42.31h7.42l2.06-3.66h13.86l2.13,3.66h7.16L128.78,21.83Zm-.26,12.55,4.58-8.16L129,34.38Z" fill="#fff"/><polygon points="148 37.24 148 21.83 141.45 21.83 141.45 42.31 162.79 42.31 162.79 37.24 148 37.24" fill="#fff"/><path d="M60.27,19.24C54.61,22.41,47.79,30,47.52,30.33l-.29.22,5,2.1L40.53,37.46,36.87,25.62l5.3,2.82a45,45,0,0,1,1-9.07h.05l.23-1.1a19.42,19.42,0,0,1,1.31-3.57l-.32-.15a27.12,27.12,0,0,0-1.14,2.65,15.29,15.29,0,1,0,12.23,6.14,25.6,25.6,0,0,1,4.91-3.84ZM43.38,44.48a12,12,0,0,1-1.07-24c-.7,2.6-1,4.85-1.31,6.27L36.17,24.7l3.15,16.07,15.22-7.94-5.35-2.31c.75-1,2.26-2.86,4.11-4.86a12,12,0,0,1-9.92,18.82Z" fill="#fff"/><path d="M47.27,14.7s2,4.72,1.78,7.41c0,0,2.41-2.86,10.05-3.3,0,0-5.92-1.1-8.77.81A30.83,30.83,0,0,0,47.27,14.7Z" fill="#fff"/><path d="M4.77,12.21c2.11,0,3.46-.25,4.07-.75s.91-1.62.91-3.36l0-2.38H4.81V7.4h2.8v.49c0,1-.16,1.68-.47,2a3.7,3.7,0,0,1-2.2.42,3.5,3.5,0,0,1-2.27-.49A3.45,3.45,0,0,1,2.17,7.5L2.15,6V4.75a3.55,3.55,0,0,1,.49-2.31A3.68,3.68,0,0,1,5,2a4.66,4.66,0,0,1,2.11.29c.28.19.44.68.48,1.46H9.72c0-1.56-.29-2.56-.87-3S7,0,5,0A8.42,8.42,0,0,0,1.79.44,2.82,2.82,0,0,0,.38,2.14a18.89,18.89,0,0,0-.38,5c0,2.06.31,3.42.94,4.09S2.84,12.21,4.77,12.21Z" fill="#fff"/><path d="M13.36,8.06h3c1.14,0,1.7.62,1.7,1.85V12.1h2.12V9.46c0-1.47-.62-2.25-1.85-2.33V7.05A2.29,2.29,0,0,0,20,6.13a5.66,5.66,0,0,0,.38-2.49A3.89,3.89,0,0,0,19.57.87,4,4,0,0,0,16.74.11h-5.5v12h2.12Zm0-6h3.18a1.75,1.75,0,0,1,1.35.38,2.93,2.93,0,0,1,.3,1.65,2.75,2.75,0,0,1-.35,1.68,1.92,1.92,0,0,1-1.44.41h-3Z" fill="#fff"/><path d="M31.45,5.94c0-2.51-.29-4.13-.87-4.85S28.69,0,26.66,0C24.38,0,23,.37,22.37,1.1s-.87,2.53-.87,5.39c0,2.4.29,3.95.89,4.66s1.9,1.06,3.93,1.06c2.25,0,3.67-.36,4.25-1.07S31.45,8.69,31.45,5.94ZM28.91,9.66c-.26.4-1.05.6-2.36.6s-2.2-.18-2.48-.53-.42-1.39-.42-3.11q0-3.49.36-4.08C24.25,2.15,25.08,2,26.5,2s2.18.18,2.43.55.37,1.55.37,3.56S29.17,9.27,28.91,9.66Z" fill="#fff"/><path d="M37.62,12.21q2.77,0,3.66-.81c.6-.54.9-1.64.9-3.31v-8H40.06v8c0,.94-.14,1.53-.43,1.77a3.82,3.82,0,0,1-2.1.36,3.78,3.78,0,0,1-2.08-.36c-.29-.24-.44-.8-.44-1.68V.11H32.89V8.22c0,1.64.3,2.71.91,3.22S35.68,12.21,37.62,12.21Z" fill="#fff"/><path d="M46.25,8.23h3c1.53,0,2.54-.27,3-.79s.75-1.6.75-3.2A4.94,4.94,0,0,0,52.23,1a4.17,4.17,0,0,0-3-.84h-5v12h2.12Zm0-6.21h2.62c.91,0,1.47.12,1.68.37a3.3,3.3,0,0,1,.32,1.88A2.46,2.46,0,0,1,50.49,6a3,3,0,0,1-1.83.36H46.25Z" fill="#fff"/><polygon points="66.02 10.19 60.45 10.19 60.45 6.79 65.69 6.79 65.69 5.12 60.45 5.12 60.45 2.02 65.97 2.02 65.97 0.1 58.34 0.1 58.34 12.1 66.02 12.1 66.02 10.19" fill="#fff"/><path d="M69.71,5.22V3.65l0-.78,0-.8h.08l.35.87.36.86c.34.82.59,1.39.75,1.72l3.19,6.58H78V.11H75.84V8.56l0,.77,0,.78h-.07l-.43-1-.42-1c-.34-.77-.64-1.42-.89-2L71.19.11H67.6v12h2.11Z" fill="#fff"/><path d="M88.63,6.13A5.48,5.48,0,0,0,89,3.64,3.84,3.84,0,0,0,88.24.87,4,4,0,0,0,85.42.11h-5.5v12H82v-4h3c1.13,0,1.7.62,1.7,1.85V12.1H88.9V9.46C88.9,8,88.28,7.21,87,7.13V7.05A2.29,2.29,0,0,0,88.63,6.13Zm-2.11-.4a1.93,1.93,0,0,1-1.45.41H82V2h3.19a1.72,1.72,0,0,1,1.34.38,2.83,2.83,0,0,1,.31,1.65A2.82,2.82,0,0,1,86.52,5.73Z" fill="#fff"/><path d="M95,12.21c2.25,0,3.66-.36,4.25-1.07s.88-2.45.88-5.2c0-2.51-.29-4.13-.88-4.85S97.37,0,95.34,0c-2.28,0-3.71.37-4.29,1.1s-.88,2.53-.88,5.39c0,2.4.3,3.95.89,4.66S93,12.21,95,12.21ZM92.68,2.54c.24-.39,1.07-.59,2.5-.59s2.18.18,2.43.55S98,4.05,98,6.06s-.13,3.21-.39,3.6-1,.6-2.37.6-2.2-.18-2.48-.53-.42-1.39-.42-3.11Q92.32,3.13,92.68,2.54Z" fill="#fff"/><polygon points="108.91 10.06 103.68 10.06 103.68 0.1 101.56 0.1 101.56 12.1 108.91 12.1 108.91 10.06" fill="#fff"/><polygon points="117.33 10.06 112.09 10.06 112.09 0.1 109.98 0.1 109.98 12.1 117.33 12.1 117.33 10.06" fill="#fff"/><path d="M120.51,5.56c0-.48,0-1.07,0-1.75l0-.87,0-.87h.07l.25.82.26.84c.22.73.4,1.29.54,1.66L124,12.1h1.93l2.45-6.77c.13-.35.31-.91.53-1.66l.25-.83.25-.84h.07l0,.89,0,.9c0,.66,0,1.25,0,1.77V12.1h2.11V.11h-3.52l-2,5.57c-.15.4-.32,1-.52,1.65l-.25.83L125,9h-.07l-.25-.82-.25-.84c-.22-.72-.4-1.27-.54-1.66l-2-5.55H118.4v12h2.11Z" fill="#fff"/><polygon points="135.3 6.79 140.53 6.79 140.53 5.12 135.3 5.12 135.3 2.02 140.82 2.02 140.82 0.1 133.18 0.1 133.18 12.1 140.87 12.1 140.87 10.19 135.3 10.19 135.3 6.79" fill="#fff"/><path d="M144.56,5.22l0-1.57,0-.78,0-.8h.08l.35.87.36.86c.34.82.59,1.39.74,1.72l3.19,6.58h3.59V.11h-2.12V7l0,1.55,0,.77,0,.78h-.07l-.43-1-.42-1c-.34-.77-.64-1.42-.9-2L146,.11h-3.59v12h2.12Z" fill="#fff"/><polygon points="157.09 12.1 159.21 12.1 159.21 2.15 162.54 2.15 162.54 0.1 153.87 0.1 153.87 2.15 157.09 2.15 157.09 12.1" fill="#fff"/></svg>