<?xml version="1.0" encoding="iso-8859-1"?>
<!-- Generator: Adobe Illustrator 19.1.0, SVG Export Plug-In . SVG Version: 6.00 Build 0)  -->
<svg version="1.1" baseProfile="tiny" id="Layer_1" xmlns="http://www.w3.org/2000/svg" xmlns:xlink="http://www.w3.org/1999/xlink"
	 x="0px" y="0px" viewBox="0 0 342 206" xml:space="preserve">
<g>
	<path fill="#74BDAB" d="M43,124.8c1.5-34.7,10.7-56.7,34.3-82.1c27.4-29.5,54.4-41.3,94.6-41.3V28c-29.8,0.4-49.2,8.3-70.7,28.8
		c-21.2,20.2-30,38.7-32.1,68H43L43,124.8z"/>
	<path fill="#009470" d="M75.1,125.3h25c1.5-20.4,7.8-33.4,22.8-47.3c15-13.9,28.5-19.1,49-19V33.4c-28.5,0.5-47.1,8.3-67.4,28.3
		C84.9,80.8,77,98.1,75.1,125.3L75.1,125.3z"/>
	<path fill="#007357" d="M106.6,124.8h28.8c1.7-9.1,4.9-14.6,12-20.7c7.5-6.5,14-8.8,23.9-8.7l0.5-29.9
		c-18.9-0.3-31.4,4.5-45.1,17.4C113.5,95.3,108,106.7,106.6,124.8L106.6,124.8z"/>
	<path fill="#007357" d="M143.1,124.8h28.3v-22.8c-7.6-0.4-12.6,1.2-18.5,6C146.9,112.7,144.3,117.3,143.1,124.8L143.1,124.8z"/>
	<path fill="#74BDAB" d="M179,50.8V18.2c9.3-5.7,15.1-8.2,25.6-11.4c13.7-4.2,22.1-5.3,36.4-4.9v25c-13.2,1-20.8,2.8-33.2,7.6
		C195.8,39.2,189.2,42.9,179,50.8L179,50.8z"/>
	<path fill="#009470" d="M179,97.6V59c9-8.7,15.2-12.9,26.6-17.9c12.7-5.6,20.9-7.4,34.8-7.6v24.5c-13.1,1.3-20.7,3.8-32.1,10.3
		C194.3,76.3,187.1,83.6,179,97.6L179,97.6z"/>
	<path fill="#007357" d="M179,124.8c1.6-16.2,6-26,16.9-38.1c12.8-14.2,25-20.2,44.1-21.8v30.5c-9.3,0.9-15,3.4-21.8,9.8
		c-6.4,6-9.2,11-10.9,19.6H179L179,124.8z"/>
	<path fill="#007357" d="M214.3,125.3h25.6v-22.8c-7.1,0.4-11.6,2.3-16.9,7.1C217.8,114.3,215.5,118.4,214.3,125.3L214.3,125.3z"/>
	<path fill="#74BDAB" d="M247,10v30.5c8.5-5,13.8-7.2,23.4-9.8c10.1-2.7,16.2-3.5,26.6-3.3V0.2c-9.8-0.6-15.4-0.2-25,1.6
		C261.9,3.8,256.2,5.6,247,10L247,10z"/>
	<path fill="#009470" d="M247.5,46.5v30.5c8-7,13.5-10.3,23.4-14.1c9.7-3.8,15.7-5,26.1-5.4V32.9c-9.8-0.4-15.5,0.2-25,2.7
		C261.9,38.3,256.2,40.8,247.5,46.5L247.5,46.5z"/>
	<path fill="#007357" d="M247.5,87.8v37.5H260c1.4-9.3,4.5-14.9,11.4-21.2c7.9-7.1,15-9.7,25.6-9.2V65.5c-11.9-0.9-19.3,0.6-29.9,6
		C258.2,76,253.5,79.9,247.5,87.8L247.5,87.8z"/>
	<path fill="#007357" d="M266.5,125.3h31v-23.4c-7.6-0.8-12.7,0.6-19,4.9C271.4,111.7,268.1,116.9,266.5,125.3L266.5,125.3z"/>
</g>
<g>
	<path d="M1.9,201.3L5.1,185h3.3l-3.2,16.3H1.9z"/>
	<path d="M8.2,201.3l2.3-12.1h3.2l-1,5c0.8-1.6,1.8-2.9,2.8-3.9c1-1,2-1.4,3-1.4c0.6,0,1.1,0.2,1.5,0.6s0.6,1,0.6,1.8
		c0,0.4,0,0.9-0.1,1.4l-1.7,8.5h-3.2l1.6-8.3c0-0.2,0.1-0.3,0.1-0.5c0-0.4-0.2-0.6-0.5-0.6c-0.5,0-1.2,0.6-2.2,1.8s-1.8,2.4-2.5,3.6
		l-0.8,4H8.2z"/>
	<path d="M20.9,200.8l0.4-2.3c1.5,0.7,2.8,1.1,3.8,1.1c0.5,0,0.8-0.1,1.1-0.4s0.5-0.6,0.5-1c0-0.2-0.1-0.4-0.2-0.6
		c-0.1-0.2-0.4-0.6-0.9-1.1l-0.8-0.8c-0.8-0.8-1.3-1.5-1.6-1.9c-0.2-0.4-0.3-0.9-0.3-1.3c0-0.9,0.4-1.7,1.2-2.4s1.9-1.1,3.5-1.1
		c1.2,0,2.3,0.2,3.4,0.5l-0.4,2.3c-1.1-0.5-2-0.7-2.9-0.7c-0.6,0-1,0.1-1.3,0.4c-0.3,0.2-0.4,0.6-0.4,0.9c0,0.2,0.1,0.5,0.2,0.7
		c0.1,0.2,0.4,0.5,0.9,1l0.9,0.9c0.6,0.6,1,1.1,1.3,1.6s0.4,1,0.4,1.6c0,1.1-0.4,1.9-1.3,2.6c-0.9,0.7-2,1-3.6,1
		C23.8,201.6,22.4,201.3,20.9,200.8z"/>
	<path d="M38.2,201.3l1-5c-0.8,1.6-1.6,2.9-2.6,3.9c-0.9,1-1.9,1.4-2.8,1.4c-0.6,0-1-0.2-1.4-0.6c-0.4-0.4-0.6-1-0.6-1.8
		c0-0.4,0.1-0.9,0.2-1.4l1.8-8.5h3.2l-1.7,8.3c0,0.2,0,0.3,0,0.4c0,0.4,0.1,0.6,0.4,0.6c0.5,0,1.1-0.6,2-1.8
		c0.8-1.2,1.6-2.4,2.2-3.5l0.8-4h3.2l-2.4,12.1H38.2z"/>
	<path d="M44.4,201.3l2.3-12.1H50l-1,5c0.8-1.6,1.8-2.9,2.8-3.9c1-0.9,2-1.4,2.8-1.4c0.3,0,0.6,0.1,0.9,0.2l-0.9,3.1
		c-0.3-0.2-0.6-0.2-0.9-0.2c-0.8,0-1.7,0.6-2.6,1.7c-0.9,1.1-1.8,2.4-2.7,3.7l-0.8,4H44.4z"/>
	<path d="M61.4,201.3l1-5c-0.8,1.5-1.7,2.8-2.7,3.8s-2.1,1.5-3,1.5c-0.8,0-1.4-0.3-1.8-1s-0.7-1.3-0.7-2c0-1.5,0.4-3,1.3-4.7
		c0.9-1.7,1.9-2.9,3.1-3.7c1.2-0.8,2.3-1.2,3.5-1.2c0.2,0,0.5,0,0.8,0.1s0.6,0.1,0.9,0.2h3.2l-2.3,12.1H61.4z M63,193.4l0.4-2
		c-0.2-0.1-0.5-0.2-0.7-0.3c-0.2-0.1-0.5-0.1-0.7-0.1c-0.6,0-1.3,0.3-1.9,0.9s-1.2,1.5-1.7,2.8c-0.5,1.3-0.8,2.4-0.8,3.2
		c0,0.2,0,0.4,0.1,0.6c0.1,0.2,0.3,0.3,0.5,0.3c0.6,0,1.4-0.6,2.4-1.9S62.3,194.4,63,193.4z"/>
	<path d="M67.4,201.3l2.3-12.1H73l-1,5c0.8-1.6,1.8-2.9,2.8-3.9c1-1,2-1.4,3-1.4c0.6,0,1.1,0.2,1.5,0.6s0.6,1,0.6,1.8
		c0,0.4,0,0.9-0.1,1.4l-1.7,8.5h-3.2l1.6-8.3c0-0.2,0.1-0.3,0.1-0.5c0-0.4-0.2-0.6-0.5-0.6c-0.5,0-1.2,0.6-2.2,1.8s-1.8,2.4-2.5,3.6
		l-0.8,4H67.4z"/>
	<path d="M89.6,200.5c-1.6,0.7-3.2,1.1-4.7,1.1c-1.2,0-2.2-0.4-3-1.1c-0.8-0.7-1.2-1.7-1.2-3c0-1.4,0.4-2.8,1.1-4.2
		c0.7-1.4,1.7-2.4,2.9-3.2c1.2-0.8,2.5-1.2,3.8-1.2c0.9,0,1.8,0.2,2.9,0.6l-0.4,2.3c-1.1-0.5-2-0.8-2.6-0.8c-0.7,0-1.4,0.2-2,0.7
		c-0.6,0.5-1.2,1.2-1.6,2.3c-0.4,1-0.6,2-0.6,3c0,0.8,0.2,1.4,0.6,1.7c0.4,0.4,0.9,0.5,1.5,0.5c0.3,0,0.6,0,1.1-0.1
		c0.4-0.1,0.9-0.2,1.3-0.4c0.5-0.2,1-0.4,1.5-0.7L89.6,200.5z"/>
	<path d="M101.4,200.2c-1.1,0.5-2.2,0.9-3.2,1.1c-1,0.2-1.8,0.3-2.5,0.3c-0.9,0-1.7-0.2-2.4-0.5c-0.7-0.4-1.2-0.9-1.5-1.5
		s-0.5-1.3-0.5-2c0-1.4,0.4-2.8,1.1-4.2c0.7-1.4,1.7-2.5,2.8-3.2c1.2-0.8,2.4-1.2,3.7-1.2c1,0,1.7,0.2,2.2,0.7s0.8,1.1,0.8,1.9
		c0,0.9-0.3,1.7-0.9,2.5c-0.6,0.8-1.4,1.5-2.6,2c-1.1,0.5-2.5,0.9-4,1c0,0.9,0.3,1.6,0.7,1.9c0.5,0.3,1,0.5,1.5,0.5
		c0.6,0,1.3-0.1,2.3-0.4c1-0.3,1.9-0.7,3-1.3L101.4,200.2z M94.7,195c1.4,0,2.5-0.3,3.2-0.9c0.7-0.6,1.1-1.2,1.1-1.9
		c0-0.3-0.1-0.5-0.3-0.8c-0.2-0.2-0.4-0.3-0.8-0.3c-0.5,0-1.1,0.3-1.8,1C95.5,192.7,95,193.7,94.7,195z"/>
	<path d="M122.7,200.6c-2.3,0.7-4.4,1.1-6.2,1.1c-1.3,0-2.4-0.3-3.4-0.8s-1.7-1.2-2.2-2.2s-0.7-2-0.7-3.2c0-1.9,0.5-3.7,1.4-5.4
		c0.9-1.7,2.2-3.1,3.7-4.1c1.5-1,3.4-1.5,5.5-1.5c1.5,0,3.1,0.2,4.7,0.6l-0.5,2.6c-1.7-0.7-3.2-1-4.5-1c-1.2,0-2.3,0.3-3.3,1
		s-1.8,1.7-2.4,3.1c-0.6,1.4-1,2.8-1,4.1c0,0.8,0.2,1.6,0.5,2.2c0.3,0.6,0.8,1.1,1.4,1.5s1.3,0.5,2.1,0.5c1.2,0,3-0.4,5.3-1.1
		L122.7,200.6z"/>
	<path d="M128.6,201.6c-1.3,0-2.4-0.4-3.2-1.1c-0.8-0.7-1.2-1.7-1.2-2.9c0-1.4,0.4-2.8,1.1-4.3c0.7-1.4,1.7-2.5,2.8-3.2
		c1.1-0.7,2.4-1.1,3.8-1.1c1.4,0,2.5,0.4,3.3,1.1s1.2,1.7,1.2,2.9c0,1.4-0.4,2.8-1.1,4.3c-0.7,1.4-1.7,2.5-2.8,3.2
		C131.3,201.2,130.1,201.6,128.6,201.6z M129.3,199.5c0.7,0,1.4-0.3,1.9-0.8s1-1.3,1.3-2.2c0.4-1,0.5-1.9,0.5-2.9
		c0-0.8-0.2-1.4-0.5-1.9c-0.3-0.4-0.8-0.6-1.3-0.6c-0.7,0-1.3,0.3-1.8,0.8c-0.5,0.5-1,1.3-1.3,2.2c-0.4,1-0.5,1.9-0.5,3
		c0,0.8,0.2,1.4,0.5,1.8C128.3,199.3,128.7,199.5,129.3,199.5z"/>
	<path d="M136.9,201.3l2.3-12.1h3l-1,5c0.8-1.6,1.7-2.8,2.7-3.8c1-1,2-1.5,3-1.5c0.5,0,1,0.2,1.3,0.5c0.4,0.3,0.6,0.9,0.6,1.7
		c0,0.5,0,0.9-0.1,1.4l-0.3,1.7c1.9-3.5,3.8-5.3,5.8-5.3c0.6,0,1.1,0.2,1.5,0.7s0.5,1,0.5,1.7c0,0.3,0,0.7-0.1,1.2l-1.7,8.8h-3
		l1.6-8.2c0-0.2,0.1-0.4,0.1-0.6c0-0.2-0.1-0.4-0.2-0.5c-0.1-0.1-0.2-0.1-0.3-0.1c-0.7,0-2.2,1.7-4.6,5.2l-0.8,4.2h-3l1.6-8.2
		c0-0.2,0.1-0.4,0.1-0.6c0-0.2-0.1-0.4-0.2-0.5c-0.1-0.1-0.2-0.1-0.3-0.1c-0.7,0-2.2,1.7-4.5,5.2l-0.8,4.2H136.9z"/>
	<path d="M156.2,205.7l3.2-16.5h3.2l-1,5c0.7-1.4,1.6-2.6,2.6-3.7c1.1-1.1,2.1-1.6,3.1-1.6c0.8,0,1.4,0.3,1.8,0.9s0.7,1.3,0.7,2
		c0,1.5-0.4,3-1.3,4.7c-0.9,1.7-1.9,2.9-3.1,3.7c-1.2,0.8-2.3,1.2-3.5,1.2c-0.5,0-1-0.1-1.7-0.3l-0.8,4.4H156.2z M161.1,197.1
		l-0.4,2c0.5,0.3,1,0.4,1.5,0.4c0.6,0,1.3-0.3,1.9-0.9c0.6-0.6,1.2-1.5,1.7-2.8c0.5-1.3,0.8-2.4,0.8-3.2c0-0.2,0-0.4-0.1-0.6
		c-0.1-0.2-0.3-0.3-0.5-0.3c-0.6,0-1.3,0.6-2.4,1.9C162.6,194.9,161.7,196.1,161.1,197.1z"/>
	<path d="M177.4,201.3l1-5c-0.8,1.5-1.7,2.8-2.7,3.8c-1.1,1-2.1,1.5-3,1.5c-0.8,0-1.4-0.3-1.8-1c-0.4-0.6-0.7-1.3-0.7-2
		c0-1.5,0.4-3,1.3-4.7c0.9-1.7,1.9-2.9,3.1-3.7c1.2-0.8,2.3-1.2,3.5-1.2c0.2,0,0.5,0,0.8,0.1c0.3,0,0.6,0.1,0.9,0.2h3.2l-2.3,12.1
		H177.4z M178.9,193.4l0.4-2c-0.2-0.1-0.5-0.2-0.7-0.3c-0.2-0.1-0.5-0.1-0.7-0.1c-0.6,0-1.3,0.3-1.9,0.9c-0.6,0.6-1.2,1.5-1.7,2.8
		c-0.5,1.3-0.8,2.4-0.8,3.2c0,0.2,0,0.4,0.1,0.6c0.1,0.2,0.3,0.3,0.5,0.3c0.6,0,1.4-0.6,2.4-1.9
		C177.4,195.6,178.3,194.4,178.9,193.4z"/>
	<path d="M183.4,201.3l2.3-12.1h3.2l-1,5c0.8-1.6,1.8-2.9,2.8-3.9c1-1,2-1.4,3-1.4c0.6,0,1.1,0.2,1.5,0.6c0.4,0.4,0.6,1,0.6,1.8
		c0,0.4,0,0.9-0.1,1.4l-1.7,8.5h-3.2l1.6-8.3c0-0.2,0.1-0.3,0.1-0.5c0-0.4-0.2-0.6-0.5-0.6c-0.5,0-1.2,0.6-2.2,1.8s-1.8,2.4-2.5,3.6
		l-0.8,4H183.4z"/>
	<path d="M196,205.7l3.3-4.4l-2.1-12.1h3.2l1.4,8.2l5.2-8.2h2.6l-10.5,16.5H196z"/>
	<path d="M219.6,201.6c-1.3,0-2.4-0.4-3.2-1.1c-0.8-0.7-1.2-1.7-1.2-2.9c0-1.4,0.4-2.8,1.1-4.3c0.7-1.4,1.7-2.5,2.8-3.2
		c1.1-0.7,2.4-1.1,3.8-1.1c1.4,0,2.5,0.4,3.3,1.1c0.8,0.8,1.2,1.7,1.2,2.9c0,1.4-0.4,2.8-1.1,4.3c-0.7,1.4-1.7,2.5-2.8,3.2
		C222.4,201.2,221.1,201.6,219.6,201.6z M220.3,199.5c0.7,0,1.4-0.3,1.9-0.8s1-1.3,1.3-2.2s0.5-1.9,0.5-2.9c0-0.8-0.2-1.4-0.5-1.9
		c-0.3-0.4-0.8-0.6-1.3-0.6c-0.7,0-1.3,0.3-1.8,0.8s-1,1.3-1.3,2.2s-0.5,1.9-0.5,3c0,0.8,0.2,1.4,0.5,1.8
		C219.3,199.3,219.8,199.5,220.3,199.5z"/>
	<path d="M227.3,205.7l2.8-14.4h-1.8l0.4-2h1.8l0.1-0.5c0.2-0.9,0.6-1.8,1.2-2.6c0.6-0.8,1.3-1.4,2.1-1.9c0.8-0.5,1.7-0.7,2.7-0.7
		c0.7,0,1.6,0.1,2.7,0.4l-0.4,2.2c-0.8-0.4-1.7-0.6-2.4-0.6c-1.4,0-2.3,0.9-2.6,2.8l-0.1,0.7h3.2l-0.4,2h-3.2l-2.8,14.4H227.3z"/>
	<path d="M243.2,201.3l3.2-16.3h2.9l5.2,11.4l2.2-11.4h2.6l-3.1,16.3h-2.9l-5.2-11.4l-2.2,11.4H243.2z"/>
	<path d="M269.2,200.2c-1.1,0.5-2.2,0.9-3.2,1.1c-1,0.2-1.8,0.3-2.5,0.3c-0.9,0-1.7-0.2-2.4-0.5s-1.2-0.9-1.5-1.5s-0.5-1.3-0.5-2
		c0-1.4,0.4-2.8,1.1-4.2c0.7-1.4,1.7-2.5,2.8-3.2c1.2-0.8,2.4-1.2,3.7-1.2c1,0,1.7,0.2,2.2,0.7c0.5,0.5,0.8,1.1,0.8,1.9
		c0,0.9-0.3,1.7-0.9,2.5c-0.6,0.8-1.4,1.5-2.6,2c-1.1,0.5-2.5,0.9-4,1c0,0.9,0.3,1.6,0.7,1.9c0.5,0.3,1,0.5,1.5,0.5
		c0.6,0,1.3-0.1,2.3-0.4c1-0.3,1.9-0.7,3-1.3L269.2,200.2z M262.5,195c1.4,0,2.5-0.3,3.2-0.9s1.1-1.2,1.1-1.9c0-0.3-0.1-0.5-0.3-0.8
		c-0.2-0.2-0.4-0.3-0.8-0.3c-0.5,0-1.1,0.3-1.8,1C263.3,192.7,262.8,193.7,262.5,195z"/>
	<path d="M272.4,201.3l-0.8-12.1h2.8l0.6,8.4l4-8.4h2.8l0.5,8.4l4.1-8.4h2.4l-5.9,12.1h-3.1l-0.4-8.3l-3.9,8.3H272.4z"/>
	<path d="M298.2,201.3l1.4-7.3l-3.4-9h3.4l2.4,6.3l4.8-6.3h2.9l-6.8,8.9l-1.4,7.4H298.2z"/>
	<path d="M311,201.6c-1.3,0-2.4-0.4-3.2-1.1c-0.8-0.7-1.2-1.7-1.2-2.9c0-1.4,0.4-2.8,1.1-4.3c0.7-1.4,1.7-2.5,2.8-3.2
		c1.1-0.7,2.4-1.1,3.8-1.1c1.4,0,2.5,0.4,3.3,1.1c0.8,0.8,1.2,1.7,1.2,2.9c0,1.4-0.4,2.8-1.1,4.3c-0.7,1.4-1.7,2.5-2.8,3.2
		C313.7,201.2,312.5,201.6,311,201.6z M311.7,199.5c0.7,0,1.4-0.3,1.9-0.8s1-1.3,1.3-2.2s0.5-1.9,0.5-2.9c0-0.8-0.2-1.4-0.5-1.9
		c-0.3-0.4-0.8-0.6-1.3-0.6c-0.7,0-1.3,0.3-1.8,0.8s-1,1.3-1.3,2.2s-0.5,1.9-0.5,3c0,0.8,0.2,1.4,0.5,1.8
		C310.7,199.3,311.1,199.5,311.7,199.5z"/>
	<path d="M319.3,201.3l2.3-12.1h3.2l-1,5c0.8-1.6,1.8-2.9,2.8-3.9c1-0.9,2-1.4,2.8-1.4c0.3,0,0.6,0.1,0.9,0.2l-0.9,3.1
		c-0.3-0.2-0.6-0.2-0.9-0.2c-0.8,0-1.7,0.6-2.6,1.7c-0.9,1.1-1.8,2.4-2.7,3.7l-0.8,4H319.3z"/>
	<path d="M329.3,201.3l3.4-17.4h3.2l-2.2,11.2l5.6-5.9h2.7l-5,5.4l3.8,6.7h-3.6l-3.5-6.3l-1.2,6.3H329.3z"/>
</g>
<g>
	<path d="M42.2,166v-32.5h7.6l6.7,22.9l6.8-22.9H70V166h-5.3v-24.5l-6.7,22.4h-4.6l-6.6-22.7V166H42.2z M87,166.8
		c-2.9,0-5.4-0.7-7.5-2.1c-2.1-1.4-3.7-3.4-4.9-6c-1.1-2.6-1.6-5.6-1.6-8.9c0-3.3,0.5-6.2,1.6-8.9c1.1-2.6,2.7-4.6,4.9-6
		c2.1-1.4,4.6-2.1,7.5-2.1c2.8,0,5.3,0.7,7.4,2.1c2.1,1.4,3.8,3.4,4.9,6c1.1,2.7,1.6,5.6,1.6,8.9c0,3.3-0.5,6.3-1.6,8.9
		c-1.1,2.6-2.8,4.6-4.9,6C92.4,166,89.9,166.8,87,166.8L87,166.8z M87,162.3c2.6,0,4.6-1.3,5.9-3.8c1.3-2.6,1.9-5.5,1.9-8.8
		c0-3.3-0.6-6.2-1.9-8.8c-1.3-2.6-3.3-3.8-5.9-3.8c-2.7,0-4.7,1.3-6,3.8c-1.3,2.5-1.9,5.5-1.9,8.8c0,3.3,0.6,6.2,1.9,8.8
		C82.4,161.1,84.4,162.3,87,162.3L87,162.3z M103.9,166v-32.5h5.1l12.7,22.2v-22.2h4.6V166h-5.2l-12.7-22.2V166H103.9z M131.1,166
		v-32.5h5.7V166H131.1z M148.5,166v-28h-9.9v-4.5h25.5v4.5h-9.9v28H148.5z M178.1,166.8c-2.9,0-5.4-0.7-7.5-2.1
		c-2.1-1.4-3.7-3.4-4.9-6c-1.1-2.6-1.6-5.6-1.6-8.9c0-3.3,0.5-6.2,1.6-8.9c1.1-2.6,2.7-4.6,4.9-6c2.1-1.4,4.6-2.1,7.5-2.1
		c2.8,0,5.3,0.7,7.4,2.1c2.1,1.4,3.8,3.4,4.9,6c1.1,2.7,1.6,5.6,1.6,8.9c0,3.3-0.5,6.3-1.6,8.9c-1.1,2.6-2.7,4.6-4.9,6
		C183.5,166,181,166.8,178.1,166.8L178.1,166.8z M178.1,162.3c2.6,0,4.6-1.3,5.9-3.8c1.3-2.6,1.9-5.5,1.9-8.8c0-3.3-0.6-6.2-1.9-8.8
		c-1.3-2.6-3.3-3.8-5.9-3.8c-2.7,0-4.7,1.3-6,3.8c-1.3,2.5-1.9,5.5-1.9,8.8c0,3.3,0.6,6.2,1.9,8.8
		C173.5,161.1,175.5,162.3,178.1,162.3L178.1,162.3z M195.1,166v-32.5h10.4c2.1,0,3.7,0.3,4.8,0.9c1.1,0.6,2,1.6,2.6,2.8
		c0.7,1.3,1,2.7,1,4.3c0,1.9-0.5,3.7-1.4,5.4c-0.9,1.7-2.3,3-3.9,3.9l9,15.2h-7l-6.9-13.3h-3.1V166H195.1z M200.5,148.2h1.3
		c2.3,0,4-0.6,4.9-1.8c0.9-1.2,1.4-2.6,1.4-4.1c0-1.3-0.4-2.4-1.1-3.2c-0.7-0.8-2.2-1.2-4.5-1.2h-2V148.2z"/>
	<path d="M229.4,166v-32.5h5.7v27.9h12.4v4.6H229.4z M249.5,166v-32.5h5.7V166H249.5z M260,166v-32.5h17.3v4.5h-11.5v9.8h9.5v4.5
		h-9.5V166H260z M279.7,166v-32.5h17.7v4.5h-12v9h9.9v4.5h-9.9v9.8h12.9v4.6H279.7z"/>
</g>
</svg>
