<?xml version="1.0" encoding="utf-8"?>
<!-- Generator: Adobe Illustrator 19.1.0, SVG Export Plug-In . SVG Version: 6.00 Build 0)  -->
<svg version="1.1" id="Layer_1" xmlns="http://www.w3.org/2000/svg" xmlns:xlink="http://www.w3.org/1999/xlink" x="0px" y="0px"
	 width="162.7px" height="47.7px" viewBox="0 0 162.7 47.7" style="enable-background:new 0 0 162.7 47.7;" xml:space="preserve">
<g>
	<path d="M23.2,22.7c-1.4-0.7-2.5-0.9-6.8-0.9H0v20.5h6.5v-5H17c3.3,0,4.9-0.2,6-0.7c2.2-1,3-3,3-7.3C26,25.6,25.2,23.7,23.2,22.7z
		 M16,32.3H6.5v-5.5H16c2.8,0,3.5,0.6,3.5,3C19.5,31.7,18.7,32.3,16,32.3z"/>
	<path d="M88,28.6c0-3.2-0.8-5.1-2.6-6c-1.2-0.6-2.8-0.8-6-0.8H60.9v20.5h6.5v-5.2h10c1.8,0,2.3,0.1,2.8,0.4c0.6,0.4,0.8,1,0.8,2.2
		v2.5h6.6v-3.2c0-1.6-0.2-2.3-0.6-3c-0.6-1-1.5-1.3-4-1.4L82,34.5c2.6-0.4,3.4-0.6,4.2-1.1C87.4,32.6,88,31,88,28.6z M77.6,32.1
		H67.4v-5.3h10.4c2,0,2.5,0.1,3,0.6c0.4,0.4,0.5,1,0.5,2.4C81.4,31.7,80.8,32.1,77.6,32.1z"/>
	<polygon points="114.7,21.8 89,21.8 89,26.9 98.6,26.9 98.6,42.3 105.1,42.3 105.1,26.9 114.7,26.9 	"/>
	<path d="M119.9,21.8l-12.1,20.5h7.4l2.1-3.7h13.9l2.1,3.7h7.2l-11.8-20.5H119.9z M119.7,34.4l4.6-8.2l4.6,8.2H119.7z"/>
	<polygon points="147.9,37.2 147.9,21.8 141.4,21.8 141.4,42.3 162.7,42.3 162.7,37.2 	"/>
	<path d="M60.2,19.2C54.5,22.4,47.7,30,47.4,30.3l-0.3,0.2l5,2.1l-11.7,4.8l-3.7-11.8l5.3,2.8c0,0,0-4.5,1-9.1c0,0,0,0,0.1,0
		l0.2-1.1c0.3-1.2,0.8-2.5,1.3-3.6l-0.3-0.2c-0.4,0.9-0.8,1.8-1.1,2.7c-8.4,0-15.2,6.8-15.2,15.2c0,8.4,6.8,15.2,15.2,15.2
		s15.2-6.8,15.2-15.2c0-3.4-1.1-6.6-3-9.1c1.6-1.5,3.3-2.9,4.9-3.8L60.2,19.2z M43.3,44.5c-6.6,0-12-5.4-12-12c0-6.3,4.8-11.4,11-12
		c-0.7,2.6-1,4.9-1.3,6.3l-4.8-2.1l3.1,16.1l15.2-7.9l-5.3-2.3c0.7-1,2.3-2.9,4.1-4.9c1.3,1.9,2.1,4.3,2.1,6.8
		C55.3,39.1,49.9,44.5,43.3,44.5z"/>
	<path d="M49,22.1c0,0,2.4-2.9,10-3.3c0,0-5.9-1.1-8.8,0.8c0,0-1.6-3.2-3.1-4.9C47.2,14.7,49.2,19.4,49,22.1z"/>
	<path d="M58.8,11.4c0.5-0.5,0.7-1.4,0.7-2.6c0-1.7-0.6-2.6-1.9-2.9v0c1.1-0.3,1.6-1.1,1.6-2.6c0-1.2-0.2-2.1-0.7-2.5
		S57.3,0.1,56,0.1h-5.5v12h5.8C57.5,12.1,58.3,11.9,58.8,11.4z M52.6,2h3c1,0,1.5,0.5,1.5,1.4c0,0.7-0.1,1.2-0.3,1.4
		S56,5.1,55.2,5.1h-2.6V2z M54.9,10.2h-2.3V6.8h2.7c0.9,0,1.5,0.1,1.8,0.3s0.4,0.6,0.4,1.4c0,0.7-0.1,1.2-0.3,1.4
		c-0.2,0.2-0.7,0.3-1.4,0.3L54.9,10.2z"/>
	<path d="M63.2,8.1h3c1.1,0,1.7,0.6,1.7,1.9v2.2h2.1V9.5c0-1.5-0.6-2.2-1.9-2.3V7c0.8-0.2,1.3-0.5,1.6-0.9s0.4-1.3,0.4-2.5
		c0-1.3-0.3-2.3-0.8-2.8S68,0.1,66.6,0.1h-5.5v12h2.1V8.1z M63.2,2h3.2c0.7,0,1.1,0.1,1.3,0.4c0.2,0.2,0.3,0.8,0.3,1.7
		c0,0.8-0.1,1.4-0.4,1.7S67,6.1,66.3,6.1h-3V2z"/>
	<path d="M76.2,12.2c2.2,0,3.7-0.4,4.3-1.1s0.9-2.4,0.9-5.2c0-2.5-0.3-4.1-0.9-4.9S78.6,0,76.5,0c-2.3,0-3.7,0.4-4.3,1.1
		s-0.9,2.5-0.9,5.4c0,2.4,0.3,4,0.9,4.7C72.9,11.9,74.2,12.2,76.2,12.2z M73.9,2.5C74.1,2.1,74.9,2,76.4,2c1.4,0,2.2,0.2,2.4,0.5
		s0.4,1.6,0.4,3.6c0,2-0.1,3.2-0.4,3.6s-1,0.6-2.4,0.6c-1.4,0-2.2-0.2-2.5-0.5c-0.3-0.4-0.4-1.4-0.4-3.1C73.5,4.3,73.6,2.9,73.9,2.5
		z"/>
	<polygon points="84.9,6.9 85.9,6.9 90,12.1 92.7,12.1 87.7,5.9 92.2,0.1 89.6,0.1 85.9,5 84.9,5 84.9,0.1 82.8,0.1 82.8,12.1 
		84.9,12.1 	"/>
	<polygon points="101,10.2 95.4,10.2 95.4,6.8 100.7,6.8 100.7,5.1 95.4,5.1 95.4,2 101,2 101,0.1 93.3,0.1 93.3,12.1 101,12.1 	"/>
	<path d="M104.7,8.1h3c1.1,0,1.7,0.6,1.7,1.9v2.2h2.1V9.5c0-1.5-0.6-2.2-1.9-2.3V7c0.8-0.2,1.3-0.5,1.6-0.9s0.4-1.3,0.4-2.5
		c0-1.3-0.3-2.3-0.8-2.8s-1.5-0.8-2.8-0.8h-5.5v12h2.1V8.1z M104.7,2h3.2c0.7,0,1.1,0.1,1.3,0.4c0.2,0.2,0.3,0.8,0.3,1.7
		c0,0.8-0.1,1.4-0.4,1.7s-0.7,0.4-1.4,0.4h-3V2z"/>
</g>
</svg>
