<?xml version="1.0" encoding="utf-8"?>
<!-- Generator: Adobe Illustrator 19.1.0, SVG Export Plug-In . SVG Version: 6.00 Build 0)  -->
<svg version="1.1" id="Layer_1" xmlns="http://www.w3.org/2000/svg" xmlns:xlink="http://www.w3.org/1999/xlink" x="0px" y="0px"
	 width="162.7px" height="47.7px" viewBox="0 0 162.7 47.7" style="enable-background:new 0 0 162.7 47.7;" xml:space="preserve">
<g>
	<path d="M23.2,22.7c-1.4-0.7-2.5-0.9-6.8-0.9H0v20.5h6.5v-5H17c3.3,0,4.9-0.2,6-0.7c2.2-1,3-3,3-7.3C26,25.6,25.2,23.7,23.2,22.7z
		 M16,32.3H6.5v-5.5H16c2.8,0,3.5,0.6,3.5,3C19.5,31.7,18.7,32.3,16,32.3z"/>
	<path d="M88,28.6c0-3.2-0.8-5.1-2.6-6c-1.2-0.6-2.8-0.8-6-0.8H60.9v20.5h6.5v-5.2h10c1.8,0,2.3,0.1,2.8,0.4c0.6,0.4,0.8,1,0.8,2.2
		v2.5h6.6v-3.2c0-1.6-0.2-2.3-0.6-3c-0.6-1-1.5-1.3-4-1.4L82,34.5c2.6-0.4,3.4-0.6,4.2-1.1C87.4,32.6,88,31,88,28.6z M77.6,32.1
		H67.4v-5.3h10.4c2,0,2.5,0.1,3,0.6c0.4,0.4,0.5,1,0.5,2.4C81.4,31.7,80.8,32.1,77.6,32.1z"/>
	<polygon points="114.7,21.8 89,21.8 89,26.9 98.6,26.9 98.6,42.3 105.1,42.3 105.1,26.9 114.7,26.9 	"/>
	<path d="M119.9,21.8l-12.1,20.5h7.4l2.1-3.7h13.9l2.1,3.7h7.2l-11.8-20.5H119.9z M119.7,34.4l4.6-8.2l4.6,8.2H119.7z"/>
	<polygon points="147.9,37.2 147.9,21.8 141.4,21.8 141.4,42.3 162.7,42.3 162.7,37.2 	"/>
	<path d="M60.2,19.2C54.5,22.4,47.7,30,47.4,30.3l-0.3,0.2l5,2.1l-11.7,4.8l-3.7-11.8l5.3,2.8c0,0,0-4.5,1-9.1c0,0,0,0,0.1,0
		l0.2-1.1c0.3-1.2,0.8-2.5,1.3-3.6l-0.3-0.2c-0.4,0.9-0.8,1.8-1.1,2.7c-8.4,0-15.2,6.8-15.2,15.2c0,8.4,6.8,15.2,15.2,15.2
		s15.2-6.8,15.2-15.2c0-3.4-1.1-6.6-3-9.1c1.6-1.5,3.3-2.9,4.9-3.8L60.2,19.2z M43.3,44.5c-6.6,0-12-5.4-12-12c0-6.3,4.8-11.4,11-12
		c-0.7,2.6-1,4.9-1.3,6.3l-4.8-2.1l3.1,16.1l15.2-7.9l-5.3-2.3c0.7-1,2.3-2.9,4.1-4.9c1.3,1.9,2.1,4.3,2.1,6.8
		C55.3,39.1,49.9,44.5,43.3,44.5z"/>
	<path d="M49,22.1c0,0,2.4-2.9,10-3.3c0,0-5.9-1.1-8.8,0.8c0,0-1.6-3.2-3.1-4.9C47.2,14.7,49.2,19.4,49,22.1z"/>
	<path d="M59.8,12.2c1.9,0,3.2-0.2,3.8-0.7s0.9-1.6,0.9-3.2V7.8h-2.1l0,0.5c0,0.8-0.2,1.3-0.5,1.5s-1,0.4-2,0.4
		c-1.3,0-2.1-0.2-2.3-0.6s-0.4-1.8-0.4-4.1c0-1.7,0.1-2.7,0.4-3.1C57.8,2.1,58.6,2,59.9,2c1,0,1.6,0.1,1.9,0.3s0.4,0.7,0.4,1.5v0.3
		h2.1l0-0.3c0-1.5-0.3-2.5-0.8-3.1C63,0.3,61.9,0,60.3,0c-2.2,0-3.6,0.3-4.3,0.9s-1,1.9-1,3.9c0,3.4,0.3,5.4,0.8,6.2
		S57.6,12.2,59.8,12.2z"/>
	<polygon points="73.1,10.1 67.9,10.1 67.9,0.1 65.7,0.1 65.7,12.1 73.1,12.1 	"/>
	<rect x="74.2" y="0.1" width="2.1" height="12"/>
	<polygon points="85.7,10.2 80.2,10.2 80.2,6.8 85.4,6.8 85.4,5.1 80.2,5.1 80.2,2 85.7,2 85.7,0.1 78,0.1 78,12.1 85.7,12.1 	"/>
	<path d="M89.4,5.2l0-1.6l0-0.8l0-0.8h0.1l0.4,0.9l0.4,0.9c0.3,0.8,0.6,1.4,0.7,1.7l3.2,6.6h3.6v-12h-2.1V7l0,1.5l0,0.8l0,0.8h-0.1
		l-0.4-1l-0.4-1c-0.3-0.8-0.6-1.4-0.9-2l-2.9-6.1h-3.6v12h2.1V5.2z"/>
	<polygon points="101.9,12.1 104.1,12.1 104.1,2.1 107.4,2.1 107.4,0.1 98.7,0.1 98.7,2.1 101.9,2.1 	"/>
</g>
</svg>
