<?xml version="1.0" encoding="utf-8"?>
<!-- Generator: Adobe Illustrator 19.1.0, SVG Export Plug-In . SVG Version: 6.00 Build 0)  -->
<svg version="1.1" id="Layer_1" xmlns="http://www.w3.org/2000/svg" xmlns:xlink="http://www.w3.org/1999/xlink" x="0px" y="0px"
	 width="162.8px" height="47.7px" viewBox="0 0 162.8 47.7" style="enable-background:new 0 0 162.8 47.7;" xml:space="preserve">
<g>
	<path d="M23.3,22.7c-1.4-0.7-2.5-0.9-6.8-0.9H0.1v20.5h6.5v-5h10.5c3.3,0,4.9-0.2,6-0.7c2.2-1,3-3,3-7.3
		C26.1,25.6,25.3,23.7,23.3,22.7z M16.1,32.3H6.6v-5.5h9.5c2.8,0,3.5,0.6,3.5,3C19.6,31.7,18.8,32.3,16.1,32.3z"/>
	<path d="M88.1,28.6c0-3.2-0.8-5.1-2.6-6c-1.2-0.6-2.8-0.8-6-0.8H61v20.5h6.5v-5.2h10c1.8,0,2.3,0.1,2.8,0.4c0.6,0.4,0.8,1,0.8,2.2
		v2.5h6.6v-3.2c0-1.6-0.2-2.3-0.6-3c-0.6-1-1.5-1.3-4-1.4l-1.1-0.1c2.6-0.4,3.4-0.6,4.2-1.1C87.5,32.6,88.1,31,88.1,28.6z
		 M77.7,32.1H67.5v-5.3h10.4c2,0,2.5,0.1,3,0.6c0.4,0.4,0.5,1,0.5,2.4C81.5,31.7,80.8,32.1,77.7,32.1z"/>
	<polygon points="114.8,21.8 89.1,21.8 89.1,26.9 98.7,26.9 98.7,42.3 105.2,42.3 105.2,26.9 114.8,26.9 	"/>
	<path d="M120,21.8l-12.1,20.5h7.4l2.1-3.7h13.9l2.1,3.7h7.2l-11.8-20.5H120z M119.8,34.4l4.6-8.2l4.6,8.2H119.8z"/>
	<polygon points="148,37.2 148,21.8 141.5,21.8 141.5,42.3 162.8,42.3 162.8,37.2 	"/>
	<path d="M60.3,19.2C54.6,22.4,47.8,30,47.5,30.3l-0.3,0.2l5,2.1l-11.7,4.8l-3.7-11.8l5.3,2.8c0,0,0-4.5,1-9.1c0,0,0,0,0.1,0
		l0.2-1.1c0.3-1.2,0.8-2.5,1.3-3.6l-0.3-0.2c-0.4,0.9-0.8,1.8-1.1,2.7c-8.4,0-15.2,6.8-15.2,15.2c0,8.4,6.8,15.2,15.2,15.2
		s15.2-6.8,15.2-15.2c0-3.4-1.1-6.6-3-9.1c1.6-1.5,3.3-2.9,4.9-3.8L60.3,19.2z M43.4,44.5c-6.6,0-12-5.4-12-12c0-6.3,4.8-11.4,11-12
		c-0.7,2.6-1,4.9-1.3,6.3l-4.8-2.1l3.1,16.1l15.2-7.9l-5.3-2.3c0.7-1,2.3-2.9,4.1-4.9c1.3,1.9,2.1,4.3,2.1,6.8
		C55.4,39.1,50,44.5,43.4,44.5z"/>
	<path d="M47.3,14.7c0,0,2.1,4.7,1.8,7.4c0,0,2.4-2.9,10-3.3c0,0-5.9-1.1-8.8,0.8C50.3,19.6,48.8,16.5,47.3,14.7z"/>
	<path d="M4.8,12.2c2.1,0,3.5-0.3,4.1-0.8C9.4,11,9.8,9.8,9.8,8.1l0-2.4H4.8v1.7h2.8l0,0.5c0,1-0.2,1.7-0.5,2s-1,0.4-2.2,0.4
		c-1.2,0-1.9-0.2-2.3-0.5S2.2,8.7,2.2,7.5l0-1.5l0-1.2c0-1.2,0.2-2,0.5-2.3C3,2.1,3.8,2,5,2C6.1,2,6.8,2,7.1,2.2
		c0.3,0.2,0.4,0.7,0.5,1.5h2.1c0-1.6-0.3-2.6-0.9-3C8.3,0.2,7,0,5,0C3.5,0,2.4,0.1,1.8,0.4C1.2,0.7,0.7,1.3,0.4,2.1
		C0.1,2.8,0,4.5,0,7.1c0,2.1,0.3,3.4,0.9,4.1S2.8,12.2,4.8,12.2z"/>
	<path d="M13.4,8.1h3c1.1,0,1.7,0.6,1.7,1.9v2.2h2.1V9.5c0-1.5-0.6-2.2-1.9-2.3V7c0.8-0.2,1.3-0.5,1.6-0.9s0.4-1.3,0.4-2.5
		c0-1.3-0.3-2.3-0.8-2.8s-1.5-0.8-2.8-0.8h-5.5v12h2.1V8.1z M13.4,2h3.2c0.7,0,1.1,0.1,1.3,0.4c0.2,0.2,0.3,0.8,0.3,1.7
		c0,0.8-0.1,1.4-0.4,1.7s-0.7,0.4-1.4,0.4h-3V2z"/>
	<path d="M31.5,5.9c0-2.5-0.3-4.1-0.9-4.9S28.7,0,26.7,0c-2.3,0-3.7,0.4-4.3,1.1s-0.9,2.5-0.9,5.4c0,2.4,0.3,4,0.9,4.7
		c0.6,0.7,1.9,1.1,3.9,1.1c2.2,0,3.7-0.4,4.3-1.1S31.5,8.7,31.5,5.9z M28.9,9.7c-0.3,0.4-1,0.6-2.4,0.6c-1.4,0-2.2-0.2-2.5-0.5
		c-0.3-0.4-0.4-1.4-0.4-3.1c0-2.3,0.1-3.7,0.4-4.1C24.2,2.1,25.1,2,26.5,2c1.4,0,2.2,0.2,2.4,0.5s0.4,1.6,0.4,3.6
		C29.3,8.1,29.2,9.3,28.9,9.7z"/>
	<path d="M37.6,12.2c1.8,0,3.1-0.3,3.7-0.8s0.9-1.6,0.9-3.3v-8h-2.1v8c0,0.9-0.1,1.5-0.4,1.8s-1,0.4-2.1,0.4c-1.1,0-1.8-0.1-2.1-0.4
		C35.2,9.7,35,9.1,35,8.2V0.1h-2.1v8.1c0,1.6,0.3,2.7,0.9,3.2C34.4,12,35.7,12.2,37.6,12.2z"/>
	<path d="M46.2,8.2h2.5l0.5,0c1.5,0,2.5-0.3,3-0.8C52.8,6.9,53,5.8,53,4.2c0-1.6-0.3-2.7-0.8-3.3c-0.5-0.6-1.5-0.8-3.1-0.8h-0.6
		h-4.5v12h2.1V8.2z M46.2,2h2.6c0.9,0,1.5,0.1,1.7,0.4s0.3,0.9,0.3,1.9c0,0.9-0.1,1.4-0.4,1.7s-0.9,0.4-1.8,0.4h-2.4V2z"/>
	<polygon points="66,10.2 60.5,10.2 60.5,6.8 65.7,6.8 65.7,5.1 60.5,5.1 60.5,2 66,2 66,0.1 58.3,0.1 58.3,12.1 66,12.1 	"/>
	<path d="M69.7,5.2l0-1.6l0-0.8l0-0.8h0.1l0.4,0.9l0.4,0.9c0.3,0.8,0.6,1.4,0.7,1.7l3.2,6.6H78v-12h-2.1V7l0,1.5l0,0.8l0,0.8h-0.1
		l-0.4-1l-0.4-1c-0.3-0.8-0.6-1.4-0.9-2l-2.9-6.1h-3.6v12h2.1V5.2z"/>
	<path d="M88.6,6.1C88.9,5.7,89,4.9,89,3.6c0-1.3-0.3-2.3-0.8-2.8s-1.5-0.8-2.8-0.8h-5.5v12H82v-4h3c1.1,0,1.7,0.6,1.7,1.9v2.2h2.1
		V9.5c0-1.5-0.6-2.2-1.9-2.3V7C87.8,6.9,88.4,6.6,88.6,6.1z M86.5,5.7c-0.2,0.3-0.7,0.4-1.4,0.4h-3V2h3.2c0.7,0,1.1,0.1,1.3,0.4
		c0.2,0.2,0.3,0.8,0.3,1.7C86.9,4.9,86.8,5.4,86.5,5.7z"/>
	<path d="M95,12.2c2.2,0,3.7-0.4,4.3-1.1s0.9-2.4,0.9-5.2c0-2.5-0.3-4.1-0.9-4.9S97.4,0,95.3,0c-2.3,0-3.7,0.4-4.3,1.1
		s-0.9,2.5-0.9,5.4c0,2.4,0.3,4,0.9,4.7C91.7,11.9,93,12.2,95,12.2z M92.7,2.5C92.9,2.1,93.8,2,95.2,2c1.4,0,2.2,0.2,2.4,0.5
		S98,4.1,98,6.1c0,2-0.1,3.2-0.4,3.6s-1,0.6-2.4,0.6c-1.4,0-2.2-0.2-2.5-0.5c-0.3-0.4-0.4-1.4-0.4-3.1C92.3,4.3,92.4,2.9,92.7,2.5z"
		/>
	<polygon points="108.9,10.1 103.7,10.1 103.7,0.1 101.6,0.1 101.6,12.1 108.9,12.1 	"/>
	<polygon points="117.3,10.1 112.1,10.1 112.1,0.1 110,0.1 110,12.1 117.3,12.1 	"/>
	<path d="M120.5,5.6c0-0.5,0-1.1,0-1.7l0-0.9l0-0.9h0.1l0.3,0.8l0.3,0.8c0.2,0.7,0.4,1.3,0.5,1.7l2.5,6.7h1.9l2.5-6.8
		c0.1-0.4,0.3-0.9,0.5-1.7l0.2-0.8l0.3-0.8h0.1l0,0.9l0,0.9c0,0.7,0,1.3,0,1.8v6.5h2.1v-12h-3.5l-2,5.6c-0.1,0.4-0.3,1-0.5,1.7
		l-0.2,0.8L125,9h-0.1l-0.3-0.8l-0.2-0.8c-0.2-0.7-0.4-1.3-0.5-1.7l-2-5.6h-3.5v12h2.1V5.6z"/>
	<polygon points="135.3,6.8 140.5,6.8 140.5,5.1 135.3,5.1 135.3,2 140.8,2 140.8,0.1 133.2,0.1 133.2,12.1 140.9,12.1 140.9,10.2 
		135.3,10.2 	"/>
	<path d="M144.6,5.2l0-1.6l0-0.8l0-0.8h0.1l0.4,0.9l0.4,0.9c0.3,0.8,0.6,1.4,0.7,1.7l3.2,6.6h3.6v-12h-2.1V7l0,1.5l0,0.8l0,0.8h-0.1
		l-0.4-1l-0.4-1c-0.3-0.8-0.6-1.4-0.9-2L146,0.1h-3.6v12h2.1V5.2z"/>
	<polygon points="157.1,12.1 159.2,12.1 159.2,2.1 162.5,2.1 162.5,0.1 153.9,0.1 153.9,2.1 157.1,2.1 	"/>
</g>
</svg>
