<?xml version="1.0" encoding="UTF-8"?>
<svg id="Layer_1" data-name="Layer 1" xmlns="http://www.w3.org/2000/svg" viewBox="0 0 157.45 219.46">
  <g>
    <path d="M48.37,129.03c-.05.81-.08,1.6.08,2.34l.04.17c.13.62.33,1.5.73,2.08,2.61,1.98,5.41,3.69,8.32,5.08-1.34-1.88-1.68-3.98-2-6.03-.12-.78-.25-1.57-.43-2.35-.69-.37-1.38-.73-2.07-1.1-1.47-.79-2.94-1.59-4.4-2.42-.03-.01-.05-.03-.08-.04-.02.35-.05.7-.09,1.05-.04.41-.08.82-.1,1.24Z" fill="none" stroke-width="0"/>
    <path d="M62.32,140.2c-.04.06-.07.11-.11.16-.05.07-.11.13-.17.2,1.38.48,2.77.9,4.17,1.23,3.92.92,7.14,1.38,9.25,1.63-1.03-.96-2.07-1.88-3.16-2.73-3.14-2.46-6.53-4.54-10.06-6.52.6,1.42,1.1,4.46.09,6.03Z" fill="none" stroke-width="0"/>
    <path d="M142.09,55.68c-1.36,0-2.92-1.02-4.08-2.09,0,.28,0,.57,0,.85,0,5.08-.03,9.71-.08,13.88.94-2.02,2.16-4.8,3.36-8.24.5-1.44.93-2.93,1.28-4.45-.09.02-.19.03-.27.04-.07,0-.14,0-.21,0Z" fill="none" stroke-width="0"/>
    <path d="M109.8,131.37c.16-.74.13-1.53.08-2.34-.02-.41-.06-.82-.1-1.24-.03-.36-.06-.72-.09-1.08-.53.31-1.07.61-1.61.9-1.64.91-3.29,1.79-4.93,2.66-.19.8-.32,1.6-.44,2.39-.33,2.05-.66,4.14-2,6.03,2.91-1.39,5.71-3.1,8.32-5.08.4-.58.59-1.46.73-2.08l.04-.17Z" fill="none" stroke-width="0"/>
    <path d="M115.43,126.42c-.42.81-.98,1.52-1.52,2.21-.55.69-1.06,1.35-1.45,2.1-.01.03-.02.05-.04.08,1.24-1.14,2.43-2.33,3.53-3.59,2.92-3.32,7.57-9.95,8.18-10.84,0,0,0,0,0-.01-1.91,1.81-3.89,3.43-5.92,4.92-.58.43-1.17.84-1.76,1.24-.14,1.36-.39,2.7-1.01,3.9Z" fill="none" stroke-width="0"/>
    <path d="M44.35,128.63c-.54-.69-1.11-1.4-1.52-2.21-.61-1.18-.86-2.51-1-3.85-.14-.1-.28-.19-.42-.28-1.42-.99-2.82-2.03-4.19-3.15-.91-.75-1.82-1.53-2.7-2.35-.1-.09-.2-.19-.29-.28.85,1.24,5.27,7.5,8.09,10.71,1.11,1.26,2.29,2.45,3.53,3.59-.01-.03-.02-.05-.04-.08-.39-.75-.9-1.4-1.45-2.1Z" fill="none" stroke-width="0"/>
    <path d="M96.05,140.36c-.04-.05-.08-.11-.11-.16-1.02-1.59-.5-4.68.11-6.08-4.49,2.51-8.75,5.19-12.57,8.6-.25.23-.49.48-.74.71,2.1-.26,5.36-.71,9.32-1.64,1.4-.33,2.79-.75,4.17-1.23-.06-.06-.12-.13-.17-.2Z" fill="none" stroke-width="0"/>
    <path d="M15.34,55.61c-.07,0-.14,0-.21-.01-.09,0-.18-.02-.27-.04.35,1.52.76,3.01,1.25,4.46,1.6,4.68,3.25,8.17,4.18,10.13-.07-5.07-.11-10.86-.1-17.35-1.16,1.29-3.16,2.84-4.84,2.82Z" fill="none" stroke-width="0"/>
    <path d="M17.49,36.69c-.76.41-1.49.83-2.06,1.4l-.13.13c-.49.47-1.17,1.15-1.46,1.84-.31,3.48-.26,6.98.14,10.39.94-2.28,2.64-3.77,4.3-5.23.65-.57,1.31-1.15,1.93-1.79.01-2.64.03-5.38.06-8.21-.53.31-1.07.59-1.6.85-.39.2-.79.4-1.17.61Z" fill="none" stroke-width="0"/>
    <path d="M15.57,32.83c.31-.88.64-1.79,1.13-2.63.88-1.48,2.23-2.61,3.65-3.66.03-2.69.06-5.45.1-8.29v-.74c-1.01,2.42-3.62,8.79-4.76,12.66-.51,1.71-.91,3.46-1.23,5.23.02-.03.03-.05.05-.07.46-.77.75-1.61,1.07-2.5Z" fill="none" stroke-width="0"/>
    <path d="M142.25,38.29l-.13-.13c-.57-.57-1.3-1-2.05-1.42-.38-.21-.78-.42-1.17-.62-.32-.16-.64-.33-.96-.51.02,2.94.04,5.79.06,8.53.41.38.82.76,1.23,1.12,1.65,1.47,3.34,2.97,4.27,5.26.42-3.41.49-6.91.21-10.39-.29-.69-.97-1.37-1.45-1.85Z" fill="none" stroke-width="0"/>
    <path d="M140.89,30.26c.49.84.81,1.75,1.11,2.64.31.89.6,1.73,1.05,2.5.02.03.03.05.05.08-.31-1.77-.7-3.52-1.2-5.23-.96-3.31-2.96-8.44-4.16-11.39.04,2.79.07,5.52.1,8.17,1.19.93,2.29,1.95,3.04,3.23Z" fill="none" stroke-width="0"/>
    <path d="M79.13,45.23c.21,0,.41.01.62.02v-28.3c-.22-.11-.43-.2-.65-.31-.22.11-.43.21-.65.31v28.3c.23,0,.46-.02.69-.02Z" fill="#7e9d66" stroke-width="0"/>
    <path d="M79.13,102.03c-.23,0-.46-.01-.69-.02v33.54c.22.18.44.35.65.53.21-.18.44-.35.65-.53v-33.54c-.21,0-.41.02-.62.02Z" fill="#7e9d66" stroke-width="0"/>
    <path d="M128.46,24.84l-16.37,16.12c.35.26.69.53,1.03.81l16.84-16.58c0-.2,0-.4,0-.6-.5.1-1,.17-1.5.25Z" fill="#7e9d66" stroke-width="0"/>
    <path d="M58.77,93.43l-18.35,18.06c.32.29.65.59.98.87l18.31-18.02c-.32-.3-.63-.6-.93-.91Z" fill="#7e9d66" stroke-width="0"/>
    <path d="M58.86,53.74l-29.54-28.97c-.36-.06-.72-.11-1.08-.18,0,.32,0,.62-.01.93l29.74,29.17c.29-.32.59-.64.89-.95Z" fill="#7e9d66" stroke-width="0"/>
    <path d="M98.47,94.42l18.31,17.95c.33-.28.65-.58.98-.87l-18.35-18c-.3.31-.62.61-.93.91Z" fill="#7e9d66" stroke-width="0"/>
    <path d="M50.73,73.63c0-.22.01-.43.02-.64h-22.57c0,.44,0,.87,0,1.3h22.57c0-.22-.02-.44-.02-.66Z" fill="#7e9d66" stroke-width="0"/>
    <path d="M107.53,73.63c0,.22-.01.44-.02.66h22.51c0-.43,0-.87,0-1.3h-22.51c0,.21.02.43.02.64Z" fill="#7e9d66" stroke-width="0"/>
    <g>
      <path d="M132.02,73.87c0-1,0-2,.01-3.02.18-12.06.15-28.44-.11-48.72-5.14,1.16-10.37,1.75-15.59,1.75h0c-.34,0-.68-.01-1.01-.02-.43,0-.85,0-1.28-.02-.19,0-.37-.02-.56-.03-2.11-.09-4.23-.26-6.36-.53-.11-.01-.21-.03-.32-.05-.67-.09-1.33-.18-2-.29-.23-.04-.46-.08-.69-.12-5.3-.9-10.63-2.38-15.97-4.43-.76-.29-1.53-.6-2.29-.91-1.29-.53-2.57-1.1-3.86-1.7-.96-.45-1.93-.91-2.89-1.39-12.51,6.3-25.03,9.49-37.24,9.49-5.22,0-10.45-.59-15.59-1.75-.26,20.26-.29,36.63-.11,48.72.03,2,.01,3.98,0,5.9v.08c0,.64-.01,1.28-.02,1.92,0,.64,0,1.29,0,1.94,0,.65,0,1.3.02,1.95.02,1.3.07,2.6.16,3.9.13,1.95.35,3.9.71,5.82,1.24,6.57,5.28,14.02,10.3,18.99,6.34,6.26,13.99,10.32,21.4,14.24.91.48,1.82.96,2.72,1.44,1.8.96,3.57,1.93,5.31,2.94s3.45,2.05,5.12,3.17c1.67,1.12,3.3,2.3,4.89,3.6.79.65,1.57,1.32,2.34,2.02,6.16-5.63,13.09-9.31,20.39-13.17,5.55-2.94,11.25-5.96,16.42-9.93.86-.66,1.71-1.35,2.54-2.07.83-.72,1.64-1.47,2.43-2.25.94-.93,1.85-1.95,2.71-3.03,1.15-1.45,2.21-3.01,3.17-4.63.48-.81.93-1.64,1.34-2.48.42-.84.8-1.68,1.16-2.53.88-2.12,1.54-4.26,1.93-6.31.72-3.85.88-7.79.88-11.68,0-1.3-.01-2.58-.02-3.86,0-.97-.02-1.95-.02-2.95ZM129.22,91.99c-1.17,6.2-4.99,13.24-9.75,17.93-.56.55-1.13,1.06-1.71,1.58-.33.29-.65.59-.98.87-5.57,4.72-11.99,8.14-18.23,11.45-6.66,3.53-12.99,6.9-18.8,11.74-.22.18-.44.35-.65.53-.21-.18-.44-.35-.65-.53-5.81-4.84-12.13-8.21-18.8-11.74-6.25-3.31-12.67-6.73-18.24-11.46-.33-.28-.65-.58-.98-.87-.57-.51-1.15-1.02-1.7-1.57-4.75-4.7-8.58-11.74-9.74-17.93-.93-4.94-.88-10.12-.83-15.13v-.1c0-.81.02-1.64.02-2.47,0-.43,0-.87,0-1.3,0-.72,0-1.44-.01-2.16-.17-11.39-.15-26.63.07-45.3,0-.31,0-.62.01-.93.36.07.72.12,1.08.18,4.15.73,8.35,1.12,12.53,1.12,12.02,0,24.32-3.01,36.59-8.95.22-.11.43-.2.65-.31.22.11.43.21.65.31,12.27,5.93,24.57,8.95,36.58,8.95,4.04,0,8.11-.36,12.13-1.05.5-.08,1-.15,1.5-.25,0,.2,0,.4,0,.6.22,18.88.25,34.22.07,45.64-.01.73-.01,1.44-.01,2.16,0,.44,0,.87,0,1.3,0,.84.01,1.67.02,2.49v.07c.05,5.02.1,10.2-.83,15.15Z" fill="#f8df8d" stroke-width="0"/>
      <path d="M48.79,64.57c.77.39,2.04.97,2.99,1.42-.62,2.23-.98,4.58-1.03,7,0,.21-.02.43-.02.64s.01.44.02.66c.04,1.57.2,3.12.48,4.62,3.47-1.46,6.72-3,9.74-4.62.81-.43,1.59-.87,2.37-1.3,2.92-1.65,5.62-3.36,8.11-5.08.37-.26.72-.51,1.08-.77,2.13-1.51,4.1-3.04,5.92-4.55.44-.37.88-.73,1.3-1.1,5.54-4.77,9.59-9.38,12.42-13.09-.52-.27-1.04-.52-1.58-.76.28-.92.69-2.19.89-2.92.48-1.69.95-3.38,1.39-5.09.44-1.7.86-3.42,1.23-5.15-.91,1.52-1.76,3.07-2.59,4.62-.83,1.55-1.64,3.11-2.43,4.68-.32.63-1.02,1.9-1.45,2.73-2.49-.78-5.14-1.22-7.88-1.28-.21,0-.41-.02-.62-.02-.23,0-.46.01-.69.02-3.65.09-7.13.85-10.31,2.19-.45-.82-.89-1.65-1.35-2.47-.85-1.53-1.72-3.06-2.62-4.58-.89-1.52-1.81-3.03-2.78-4.51.43,1.72.93,3.41,1.44,5.1.51,1.69,1.04,3.36,1.59,5.03.31.93.62,1.86.94,2.78-2.4,1.33-4.59,3.01-6.5,4.96-.3.31-.6.63-.89.95-2.18,2.43-3.94,5.25-5.18,8.33-.96-.28-2.13-.6-3.06-.87-1.69-.48-3.38-.95-5.09-1.38-1.7-.44-3.42-.86-5.15-1.22,1.52.91,3.07,1.76,4.62,2.59,1.55.83,3.11,1.64,4.68,2.43Z" fill="#f8df8d" stroke-width="0"/>
      <path d="M108.36,85.04c-.55-.28-1.76-.89-2.67-1.35,1.11-2.93,1.75-6.1,1.82-9.4,0-.22.02-.44.02-.66s-.01-.43-.02-.64c0-.29,0-.58-.02-.87-.48.29-.96.59-1.44.87-.76.45-1.52.88-2.27,1.3-5.56,3.13-10.97,5.66-16.13,7.69-.45.18-.89.34-1.34.51-2.24.85-4.43,1.62-6.56,2.29-.44.14-.87.27-1.3.4-4.46,1.36-8.67,2.35-12.56,3.08-.77.14-1.52.27-2.26.39-2.84.47-5.5.79-7.94,1,.92,1.35,1.96,2.61,3.09,3.77.3.31.61.62.93.91,2.17,2.04,4.66,3.73,7.38,5.01-.34,1.13-.68,2.25-1,3.38-.48,1.69-.95,3.38-1.38,5.09-.44,1.7-.86,3.42-1.22,5.15.91-1.52,1.76-3.07,2.59-4.62.83-1.55,1.64-3.11,2.43-4.68.52-1.04,1.03-2.09,1.54-3.14,2.65.89,5.47,1.41,8.4,1.48.23,0,.46.02.69.02.21,0,.41-.01.62-.02,2.89-.06,5.67-.55,8.29-1.42.55,1.02,1.09,2.04,1.66,3.05.85,1.53,1.72,3.06,2.62,4.58.89,1.52,1.81,3.03,2.78,4.51-.43-1.72-.92-3.41-1.43-5.1-.51-1.69-1.04-3.36-1.59-5.03-.35-1.06-.71-2.11-1.08-3.17,2.76-1.27,5.29-2.97,7.48-5.02.32-.3.63-.6.93-.91,1.98-2.02,3.66-4.34,4.97-6.87,1.01.27,2.4.63,3.04.81,1.69.48,3.38.95,5.09,1.39,1.7.44,3.42.86,5.15,1.23-1.52-.91-3.07-1.76-4.62-2.59-1.55-.83-3.11-1.64-4.68-2.43Z" fill="#f8df8d" stroke-width="0"/>
      <path d="M111.05,43.8c-.35-.28-.7-.55-1.05-.8-2.54-1.83-5.05-2.86-7.01-2.86-1.01,0-1.87.27-2.51.86-.17.16-.32.33-.45.52h0s-.01.02-.02.03c-.13.19-.24.41-.33.64-.65,1.2-2.25,3.98-5.04,7.66-3.24,4.27-8.09,9.74-14.9,15.33-.43.35-.86.71-1.3,1.06-1.22.97-2.52,1.94-3.87,2.91-.36.26-.71.52-1.07.77-1.47,1.03-3.02,2.05-4.63,3.06-.7.44-1.4.87-2.13,1.3-4.42,2.63-9.35,5.15-14.84,7.43-4.23,1.76-8.76,3.39-13.66,4.81,0,0,5.95,1.08,15.78.37,3.86-.28,8.32-.83,13.26-1.84.78-.16,1.57-.33,2.38-.51,2.8-.64,5.74-1.42,8.79-2.37.43-.14.87-.27,1.3-.41,1.41-.46,2.84-.96,4.3-1.49.45-.16.9-.33,1.35-.51,3.96-1.51,8.07-3.32,12.29-5.47.82-.42,1.65-.86,2.48-1.3,2.29-1.23,4.62-2.57,6.97-4.02,3.78-2.33,7.63-4.96,11.52-7.91,2.57-2.33.59-8.71-4.43-14.25-1.03-1.13-2.1-2.14-3.18-3.01ZM117.32,59.58s-.03.01-.05.02c-.25.2-.62.31-1.12.31-2.08,0-6.01-1.88-9.75-6.01-.91-1-1.73-2.07-2.43-3.13-.25-.38-.48-.76-.7-1.14-.66-1.14-1.18-2.26-1.5-3.31-.42-1.35-.51-2.54-.27-3.28.08-.24.19-.43.34-.57.25-.22.64-.34,1.17-.34,1.29,0,3.31.73,5.56,2.28.35.24.7.51,1.05.79,1.03.81,2.09,1.77,3.14,2.93,2.2,2.43,3.89,5.2,4.63,7.58.56,1.8.53,3.31-.07,3.85ZM98.12,67.41c-2.39,1.47-4.85,2.84-7.36,4.1-1.02.51-2.05.99-3.08,1.47-.99.45-1.98.88-2.98,1.3-.54.23-1.07.47-1.62.69-.61.24-1.23.48-1.84.71-.45.17-.91.33-1.36.49-.04.02-.09.03-.13.05-.43.15-.87.3-1.3.45-.4.13-.79.27-1.19.39-.71.22-1.42.44-2.13.64.9-.39,1.79-.78,2.68-1.18.21-.09.43-.19.64-.28.35-.15.69-.31,1.03-.46.09-.04.18-.08.27-.12.34-.15.67-.3,1.01-.45.68-.3,1.36-.6,2.04-.92,0,0,0,0,.01,0,.93-.43,1.86-.87,2.78-1.3,1.59-.76,3.18-1.52,4.75-2.31,2.49-1.25,4.96-2.56,7.41-3.9,2.45-1.34,4.87-2.74,7.31-4.13-2.22,1.72-4.55,3.29-6.93,4.77Z" fill="#f8df8d" stroke-width="0"/>
    </g>
    <g>
      <path d="M155.72,50.93c-.46-.35-1.86.6-2.04.73-1.22.9-2.58,1.62-3.9,2.33-1.38.74-2.8,1.5-4.09,2.46-.9.67-1.62,1.31-2.24,1.95,1.08-3.87,1.78-8.01,1.96-11.96.62-1.17,1.67-1.84,2.78-2.54.3-.19.61-.38.9-.58,1.3-.89,2.25-1.86,3.01-3.07.98-1.57,1.62-3.4,2.13-4.87.64-1.84,1.32-3.94,1.16-5.57-.02-.26-.04-.56-.11-.59-.29-.13-.75.28-1.07.51-.07.05-.13.1-.19.13l-.57.36c-2.3,1.46-4.67,2.97-6.31,5.35-.97,1.41-1.48,3.01-1.86,4.38,0,.02-.01.04-.02.06-.29-3.68-.93-7.18-1.93-10.45-.04-.14-.09-.27-.14-.4.3-.95.77-1.84,1.27-2.77.68-1.26,1.39-2.57,1.6-4.06.27-1.89-.03-3.77-.32-5.59-.22-1.38-.45-2.8-.41-4.19.01-.61.07-1.25-.22-1.37-.06-.02-.37.2-.58.41-2.1,2.22-3.65,5.19-4.14,7.94-.16.9-.11,1.94,0,2.95-.9-1.93-1.8-3.91-2.44-5.93,2.16-4.15.17-8.2-1.76-12.12-.45-.91-.86-1.78-1.24-2.63-.54-1.2-1.18-2.03-1.21-1.73l-.26,1.41c-.28,2.78-.95,5.85-.6,8.46.24,1.77.87,3.96,1.97,5.36l-.77.22c-5.82,1.65-11.79,2.49-17.75,2.49-.17,0-.34,0-.51,0-1.15,0-2.29-.05-3.45-.13-2.71-.17-5.44-.51-8.18-1.01-4.66-.85-9.36-2.18-14.08-4-.45-.17-.9-.35-1.35-.53-2.02-.82-4.04-1.71-6.06-2.71-.76-.37-1.51-.75-2.27-1.15l-1.33-.69-1.33.69c-12.12,6.33-24.2,9.54-35.91,9.54-.59,0-1.19-.01-1.78-.03-.15,0-.3,0-.46,0-.74-.03-1.49-.07-2.23-.12,0,0,0,0,0,0-.65-.05-1.29-.1-1.94-.17-.1,0-.19-.02-.29-.03-.37-.04-.74-.09-1.11-.14-3.34-.41-6.67-1.07-9.94-2l-1.19-.34c1.06-1.4,1.69-3.53,1.93-5.25.37-2.61-.29-5.69-.55-8.47l-.25-1.41c-.03-.3-.67.52-1.22,1.72-.39.85-.81,1.72-1.26,2.63-1.95,3.91-3.97,7.95-1.84,12.11-.65,2.01-1.56,3.99-2.47,5.91.11-1.01.16-2.05,0-2.95-.47-2.75-2-5.73-4.09-7.97-.2-.22-.51-.44-.58-.42-.29.12-.24.76-.23,1.37.02,1.39-.21,2.81-.44,4.18-.3,1.82-.61,3.7-.35,5.59.21,1.5.9,2.81,1.58,4.07.5.93.96,1.82,1.26,2.78-.04.13-.1.27-.14.4-1.02,3.26-1.69,6.76-2,10.44,0-.02-.01-.04-.02-.07-.37-1.38-.87-2.98-1.83-4.4-1.63-2.4-3.99-3.92-6.28-5.4l-.57-.37c-.06-.04-.12-.08-.19-.13-.32-.23-.77-.65-1.06-.52-.07.03-.08.33-.11.59-.16,1.63.5,3.73,1.13,5.58.5,1.47,1.13,3.31,2.1,4.88.75,1.21,1.7,2.19,2.99,3.09.29.2.59.4.9.59,1.11.71,2.15,1.39,2.77,2.56.15,3.96.82,8.1,1.88,11.97-.61-.65-1.33-1.29-2.22-1.96-1.28-.97-2.7-1.74-4.07-2.48-1.31-.71-2.67-1.45-3.88-2.35-.18-.13-1.57-1.09-2.04-.75-.13.1-.06.62.03.87,1.72,4.7,6.62,13.21,13.2,13.29.57,0,1.01.1,1.37.21,1.16,2.62,2.5,4.9,3.95,6.61,0,.71.01,1.42,0,2.13,0,.97-.01,1.94-.02,2.89,0,.67-.01,1.35-.02,2.03,0,.68,0,1.36,0,2.05,0,.69,0,1.37.02,2.07.06,3.45.29,6.97.96,10.54.88,4.68,2.89,9.59,5.63,14.04-1.04-.49-2.09-.96-3.07-1.46l-1.24-.5c-.25-.13.08.8.75,1.83.48.74.96,1.5,1.46,2.31,2.13,3.5,4.33,7.13,8.7,7.51,1.28,1.52,2.39,3.23,3.46,4.92-.75-.59-1.54-1.15-2.34-1.48-2.42-1-5.55-1.27-8.37-.73-.27.05-.61.19-.62.25-.05.29.48.57.97.87,1.11.68,2.13,1.57,3.1,2.44,1.29,1.15,2.63,2.33,4.26,3.07,1.29.58,2.68.69,4.02.78.99.07,1.93.15,2.83.39.08.1.16.21.25.31,2.08,2.44,4.53,4.72,7.29,6.8-.02,0-.04-.01-.06-.02-1.28-.4-2.8-.8-4.41-.74-2.72.09-5.11,1.21-7.42,2.29l-.58.27c-.06.03-.13.06-.2.08-.34.14-.9.29-.94.59,0,.07.22.23.41.38,1.21.94,3.21,1.47,5,1.89,1.42.34,3.19.76,4.93.77,1.33.01,2.58-.25,3.94-.83.31-.13.61-.27.92-.42,1.12-.52,2.17-1.02,3.41-.92,3.22,1.86,6.85,3.39,10.45,4.49-.82.16-1.69.41-2.67.79-1.41.53-2.73,1.27-4,1.99-1.22.69-2.48,1.4-3.81,1.91-.2.08-1.66.7-1.61,1.25.01.15.46.36.71.41,4.59.98,13.8,1.34,17.14-3.85.29-.45.58-.76.85-.98,2.21.32,4.29.43,6.12.28.17.17.35.33.52.5l2.06,2.11,2.06-2.11c.17-.18.36-.33.53-.51,1.85.15,3.95.05,6.18-.28.27.22.56.53.85.98,3.34,5.18,12.55,4.82,17.14,3.85.25-.05.7-.25.71-.41.04-.54-1.41-1.17-1.61-1.25-1.32-.51-2.59-1.22-3.81-1.91-1.28-.72-2.59-1.46-4-1.99-.98-.37-1.85-.62-2.67-.79,3.6-1.1,7.23-2.63,10.45-4.49,1.24-.1,2.29.4,3.41.92.3.14.61.29.92.42,1.36.58,2.61.84,3.94.83,1.73-.01,3.51-.43,4.93-.77,1.78-.42,3.78-.95,5-1.89.19-.15.42-.31.41-.38-.04-.3-.6-.45-.94-.59-.07-.03-.14-.06-.2-.08l-.58-.27c-2.31-1.08-4.7-2.2-7.42-2.29-1.6-.05-3.12.34-4.41.74-.02,0-.04.01-.06.02,2.76-2.08,5.21-4.36,7.29-6.8.09-.1.17-.21.25-.31.9-.24,1.85-.32,2.83-.39,1.34-.1,2.73-.2,4.02-.78,1.63-.74,2.97-1.92,4.26-3.07.98-.87,1.99-1.76,3.1-2.44.49-.3,1.02-.58.97-.87-.01-.06-.34-.2-.62-.25-2.82-.54-5.95-.27-8.37.73-.79.33-1.59.89-2.34,1.48,1.07-1.68,2.18-3.4,3.46-4.92,4.37-.38,6.57-4.01,8.7-7.51.49-.81.97-1.57,1.46-2.31.67-1.03,1.01-1.96.75-1.83l-1.24.5c-1.01.51-2.1.99-3.16,1.5,2.76-4.46,4.78-9.4,5.66-14.09.8-4.28.97-8.49.99-12.6,0-1.37,0-2.73-.02-4.08,0-.95-.02-1.92-.02-2.89,0-.97,0-1.95.01-2.93,0-.08,0-.17,0-.26,1.13-1.53,2.18-3.4,3.12-5.49.35-.11.8-.2,1.37-.2,6.58-.03,11.53-8.51,13.28-13.2.1-.25.17-.77.04-.87ZM13.83,40.06c.3-.69.98-1.36,1.46-1.84l.13-.13c.58-.57,1.31-.99,2.06-1.4.39-.21.78-.41,1.17-.61.53-.27,1.07-.55,1.6-.85-.02,2.83-.04,5.57-.06,8.21-.63.63-1.28,1.22-1.93,1.79-1.66,1.46-3.36,2.95-4.3,5.23-.4-3.41-.45-6.92-.14-10.39ZM85.85,17.49c6.11,2.53,12.21,4.31,18.27,5.34.23.04.46.09.69.12.67.11,1.33.2,2,.29.11.01.21.03.32.05,2.13.27,4.25.45,6.36.53.19,0,.37.02.56.03.43.01.85.01,1.28.02.34,0,.68.02,1.01.02h0c5.22,0,10.45-.59,15.59-1.75.25,20.28.29,36.66.11,48.72-.02,1.01-.02,2.02-.01,3.02s.01,1.98.02,2.95c.01,1.28.03,2.57.02,3.86,0,3.89-.16,7.82-.88,11.68-.39,2.05-1.05,4.19-1.93,6.31-.35.85-.74,1.7-1.16,2.53-.42.84-.87,1.66-1.34,2.48-.95,1.62-2.02,3.19-3.17,4.63-.86,1.08-1.77,2.1-2.71,3.03-1.58,1.57-3.25,2.99-4.97,4.31-5.17,3.97-10.87,6.98-16.42,9.93-7.3,3.86-14.23,7.54-20.39,13.17-.77-.7-1.55-1.38-2.34-2.02-1.59-1.29-3.22-2.48-4.89-3.6-1.67-1.12-3.38-2.16-5.12-3.17s-3.51-1.97-5.31-2.94c-.9-.48-1.81-.96-2.72-1.44-7.41-3.92-15.06-7.98-21.4-14.24-5.02-4.97-9.07-12.42-10.3-18.99-.36-1.92-.58-3.87-.71-5.82-.09-1.3-.13-2.6-.16-3.9-.01-.65-.02-1.3-.02-1.95,0-.65,0-1.29,0-1.94,0-.64.01-1.29.02-1.92v-.08c.02-1.92.04-3.9,0-5.9-.18-12.09-.15-28.46.11-48.72,5.14,1.16,10.37,1.75,15.59,1.75,12.21,0,24.73-3.19,37.24-9.49.96.48,1.93.94,2.89,1.39,1.29.6,2.58,1.17,3.86,1.7ZM137.93,35.62c.32.17.64.34.96.51.39.2.78.4,1.17.62.75.42,1.48.84,2.05,1.42l.13.13c.48.48,1.16,1.16,1.45,1.85.28,3.48.21,6.98-.21,10.39-.92-2.29-2.61-3.79-4.27-5.26-.41-.37-.82-.74-1.23-1.12-.01-2.74-.03-5.59-.06-8.53ZM141.91,30.24c.5,1.72.89,3.47,1.2,5.23-.02-.03-.03-.05-.05-.08-.45-.78-.74-1.62-1.05-2.5-.31-.88-.62-1.8-1.11-2.64-.75-1.28-1.85-2.3-3.04-3.23-.03-2.65-.06-5.37-.1-8.17,1.19,2.95,3.2,8.08,4.16,11.39ZM20.46,17.51v.74c-.05,2.84-.08,5.6-.11,8.29-1.41,1.04-2.77,2.17-3.65,3.66-.49.83-.82,1.75-1.13,2.63-.31.89-.61,1.72-1.07,2.5-.02.03-.03.05-.05.07.32-1.77.73-3.51,1.23-5.23,1.15-3.87,3.75-10.24,4.77-12.66ZM16.1,60.01c-.5-1.45-.91-2.94-1.25-4.46.09.02.19.04.27.04.07,0,.14,0,.21.01,1.68.01,3.69-1.53,4.84-2.82,0,6.49.03,12.29.1,17.35-.93-1.96-2.58-5.45-4.18-10.13ZM42.3,127.21c-2.82-3.2-7.23-9.47-8.09-10.71.1.09.19.19.29.28.89.82,1.79,1.6,2.7,2.35,1.37,1.12,2.77,2.17,4.19,3.15.14.1.28.19.42.28.14,1.35.4,2.67,1,3.85.42.81.98,1.52,1.52,2.21.55.69,1.06,1.35,1.45,2.1.01.03.02.05.04.08-1.24-1.14-2.43-2.33-3.53-3.59ZM49.22,133.62c-.4-.58-.59-1.46-.73-2.08l-.04-.17c-.16-.74-.13-1.53-.08-2.34.02-.41.06-.82.1-1.24.03-.34.06-.69.09-1.05.03.01.05.03.08.04,1.46.83,2.94,1.64,4.4,2.42.69.37,1.38.74,2.07,1.1.18.79.31,1.58.43,2.35.33,2.05.66,4.14,2,6.03-2.91-1.39-5.71-3.1-8.32-5.08ZM66.2,141.78c-1.4-.33-2.79-.75-4.17-1.23.06-.06.12-.13.17-.2.04-.05.08-.11.11-.16,1.01-1.58.51-4.61-.09-6.03,3.53,1.98,6.92,4.06,10.06,6.52,1.09.85,2.14,1.77,3.16,2.73-2.11-.26-5.33-.71-9.25-1.63ZM92.05,141.78c-3.96.93-7.22,1.39-9.32,1.64.25-.23.49-.48.74-.71,3.82-3.41,8.08-6.09,12.57-8.6-.61,1.4-1.13,4.49-.11,6.08.04.06.07.11.11.16.05.07.11.13.17.2-1.38.48-2.77.9-4.17,1.23ZM102.72,132.67c.13-.79.26-1.59.44-2.39,1.64-.87,3.29-1.75,4.93-2.66.54-.3,1.07-.6,1.61-.9.02.36.06.73.09,1.08.04.41.08.82.1,1.24.05.81.08,1.6-.08,2.34l-.04.17c-.13.62-.33,1.5-.73,2.08-2.61,1.98-5.41,3.69-8.32,5.08,1.34-1.88,1.68-3.98,2-6.03ZM115.96,127.21c-1.11,1.26-2.29,2.45-3.53,3.59.01-.03.02-.05.04-.08.39-.75.9-1.4,1.45-2.1.54-.69,1.11-1.4,1.52-2.21.61-1.2.87-2.54,1.01-3.9.59-.41,1.18-.82,1.76-1.24,2.03-1.49,4.02-3.11,5.92-4.92,0,0,0,0,0,.01-.61.89-5.25,7.52-8.18,10.84ZM138.02,53.59c1.16,1.08,2.72,2.09,4.08,2.09.07,0,.14,0,.21,0,.09,0,.18-.02.27-.04-.36,1.52-.78,3-1.28,4.45-1.2,3.44-2.42,6.23-3.36,8.24.05-4.17.08-8.8.08-13.88,0-.28,0-.57,0-.85Z" fill="#487629" stroke-width="0"/>
      <path d="M90.99,99.44c.36,1.05.73,2.11,1.08,3.17.55,1.67,1.09,3.34,1.59,5.03.51,1.69,1,3.38,1.43,5.1-.97-1.48-1.89-2.99-2.78-4.51-.9-1.52-1.77-3.04-2.62-4.58-.56-1.01-1.11-2.03-1.66-3.05-2.62.86-5.4,1.36-8.29,1.42v33.54c5.81-4.84,12.14-8.21,18.8-11.74,6.25-3.31,12.67-6.72,18.23-11.45l-18.31-17.95c-2.2,2.05-4.72,3.75-7.48,5.02Z" fill="#487629" stroke-width="0"/>
      <path d="M130.04,76.78c0-.82-.01-1.65-.02-2.49h-22.51c-.08,3.3-.71,6.47-1.82,9.4.91.46,2.12,1.07,2.67,1.35,1.57.79,3.13,1.59,4.68,2.43,1.55.83,3.1,1.68,4.62,2.59-1.74-.36-3.45-.79-5.15-1.23-1.71-.44-3.4-.9-5.09-1.39-.64-.18-2.03-.54-3.04-.81-1.31,2.54-2.99,4.85-4.97,6.87l18.35,18c.58-.52,1.16-1.03,1.71-1.58,4.75-4.7,8.58-11.74,9.75-17.93.93-4.95.88-10.13.83-15.15v-.07Z" fill="#487629" stroke-width="0"/>
      <path d="M68.5,103.68c-.79,1.57-1.6,3.13-2.43,4.68-.83,1.55-1.68,3.1-2.59,4.62.36-1.74.78-3.45,1.22-5.15.44-1.71.9-3.4,1.38-5.09.32-1.13.66-2.26,1-3.38-2.73-1.28-5.21-2.98-7.38-5.01l-18.31,18.02c5.57,4.73,12,8.15,18.24,11.46,6.67,3.53,12.99,6.9,18.8,11.74v-33.54c-2.93-.07-5.75-.58-8.4-1.48-.51,1.05-1.02,2.1-1.54,3.14Z" fill="#487629" stroke-width="0"/>
      <path d="M28.17,72.99h22.57c.05-2.42.41-4.77,1.03-7-.95-.45-2.22-1.03-2.99-1.42-1.57-.79-3.13-1.6-4.68-2.43-1.55-.83-3.1-1.68-4.62-2.59,1.74.36,3.45.78,5.15,1.22,1.71.44,3.4.9,5.09,1.38.93.27,2.09.58,3.06.87,1.24-3.08,3-5.89,5.18-8.33l-29.74-29.17c-.22,18.67-.24,33.91-.07,45.3.01.73.01,1.45.01,2.16Z" fill="#487629" stroke-width="0"/>
      <path d="M65.37,48.79c-.32-.93-.63-1.85-.94-2.78-.55-1.67-1.09-3.34-1.59-5.03-.51-1.69-1-3.38-1.44-5.1.97,1.48,1.88,2.99,2.78,4.51.9,1.52,1.76,3.04,2.62,4.58.45.82.9,1.64,1.35,2.47,3.18-1.34,6.66-2.1,10.31-2.19v-28.3c-12.27,5.93-24.57,8.95-36.59,8.95-4.18,0-8.38-.39-12.53-1.12l29.54,28.97c1.91-1.95,4.1-3.62,6.5-4.96Z" fill="#487629" stroke-width="0"/>
      <path d="M79.75,61.49c-.42.36-.87.73-1.3,1.1-1.82,1.51-3.79,3.04-5.92,4.55-.36.26-.71.51-1.08.77-2.49,1.72-5.19,3.43-8.11,5.08-.77.44-1.56.87-2.37,1.3-3.02,1.61-6.26,3.16-9.74,4.62-.28-1.5-.44-3.04-.48-4.62h-22.57c0,.83-.01,1.66-.02,2.47v.1c-.05,5-.1,10.19.83,15.13,1.17,6.2,4.99,13.24,9.74,17.93.55.55,1.13,1.06,1.7,1.57l18.35-18.06c-1.13-1.17-2.17-2.43-3.09-3.77,2.44-.21,5.1-.54,7.94-1,.74-.12,1.49-.25,2.26-.39,3.9-.72,8.1-1.72,12.56-3.08.43-.13.87-.27,1.3-.4,2.13-.68,4.33-1.44,6.56-2.29.45-.17.89-.33,1.34-.51,5.16-2.03,10.56-4.56,16.13-7.69.75-.42,1.51-.86,2.27-1.3.48-.28.96-.58,1.44-.87.02.29.02.58.02.87h22.51c0-.72,0-1.44.01-2.16.17-11.41.15-26.76-.07-45.64l-16.84,16.58c-.34-.28-.69-.55-1.03-.81l16.37-16.12c-4.02.68-8.08,1.05-12.13,1.05-12.01,0-24.31-3.01-36.58-8.95v28.3c2.74.06,5.38.5,7.88,1.28.44-.84,1.14-2.1,1.45-2.73.79-1.57,1.59-3.13,2.43-4.68.83-1.55,1.68-3.1,2.59-4.62-.36,1.74-.79,3.45-1.23,5.15-.44,1.71-.9,3.4-1.39,5.09-.21.73-.61,2-.89,2.92.54.24,1.06.49,1.58.76-2.83,3.72-6.88,8.32-12.42,13.09ZM94.64,49.84c2.79-3.67,4.39-6.45,5.04-7.66.09-.23.2-.44.33-.64,0,0,.02-.03.02-.03h0c.13-.19.28-.36.45-.52.64-.58,1.5-.85,2.51-.86,1.95,0,4.46,1.03,7.01,2.86.35.25.7.52,1.05.8,1.08.87,2.15,1.87,3.18,3.01,5.02,5.54,7,11.92,4.43,14.25-3.89,2.95-7.74,5.58-11.52,7.91-2.35,1.45-4.68,2.79-6.97,4.02-.83.45-1.66.88-2.48,1.3-4.23,2.16-8.34,3.96-12.29,5.47-.45.17-.9.34-1.35.51-1.46.54-2.89,1.03-4.3,1.49-.44.14-.87.28-1.3.41-3.05.95-5.99,1.74-8.79,2.37-.8.18-1.6.35-2.38.51-4.94,1.01-9.4,1.56-13.26,1.84-9.83.71-15.78-.37-15.78-.37,4.9-1.42,9.44-3.05,13.66-4.81,5.49-2.28,10.42-4.8,14.84-7.43.72-.43,1.43-.87,2.13-1.3,1.61-1.01,3.16-2.03,4.63-3.06.37-.26.72-.52,1.07-.77,1.35-.97,2.64-1.94,3.87-2.91.45-.36.87-.71,1.3-1.06,6.81-5.6,11.65-11.06,14.9-15.33Z" fill="#487629" stroke-width="0"/>
      <path d="M79.48,75.79c-.34.15-.69.31-1.03.46-.21.09-.43.19-.64.28-.89.39-1.79.78-2.68,1.18.71-.2,1.43-.41,2.13-.64.4-.13.79-.26,1.19-.39.44-.15.87-.29,1.3-.45.04-.02.09-.03.13-.05.45-.16.91-.32,1.36-.49.62-.23,1.23-.47,1.84-.71.54-.22,1.08-.46,1.62-.69,1-.42,1.99-.85,2.98-1.3,1.03-.48,2.07-.96,3.08-1.47,2.51-1.26,4.97-2.63,7.36-4.1,2.39-1.48,4.72-3.05,6.93-4.77-2.44,1.39-4.86,2.79-7.31,4.13-2.45,1.35-4.92,2.65-7.41,3.9-1.57.79-3.16,1.56-4.75,2.31-.92.44-1.85.88-2.78,1.3,0,0,0,0-.01,0-.68.31-1.36.61-2.04.92-.34.15-.67.3-1.01.45-.09.04-.18.08-.27.12Z" fill="#487629" stroke-width="0"/>
      <path d="M103.27,49.64c.22.38.45.76.7,1.14.7,1.07,1.52,2.13,2.43,3.13,3.74,4.13,7.68,6.01,9.75,6.01.5,0,.88-.11,1.12-.31.01-.01.03-.01.05-.02.6-.54.62-2.05.07-3.85-.74-2.38-2.43-5.15-4.63-7.58-1.05-1.16-2.11-2.12-3.14-2.93-.35-.28-.71-.55-1.05-.79-2.24-1.55-4.26-2.28-5.56-2.28-.53,0-.92.11-1.17.34-.15.13-.26.33-.34.57-.24.74-.15,1.93.27,3.28.33,1.05.85,2.17,1.5,3.31Z" fill="#487629" stroke-width="0"/>
    </g>
  </g>
  <g>
    <path d="M40.92,174.17v5.76c0,3.23,1.04,4.26,3.26,4.49v.23h-10.83v-.23c1.77-.12,2.8-1.46,2.8-3.65v-19.47c0-2.19-1.04-3.53-2.8-3.65v-.23h11.37c6.61,0,10.02,2.57,10.02,7.95s-5.03,8.79-12.25,8.79h-1.58ZM44.03,158.34c-2.07,0-3.11,1-3.11,2.77v12.02h1.58c4.88,0,7.22-2.38,7.22-7.3,0-4.26-2.07-7.49-5.68-7.49Z" fill="#487629" stroke="#487629" stroke-miterlimit="10"/>
    <path d="M57.88,183.61l-.85-8.64h.04c1.42,3.07,2.8,5.26,4.22,6.61,1.73,1.65,3.69,2.46,5.99,2.46,3.5,0,5.61-1.81,5.61-4.8s-1.96-4.69-7.6-6.68c-5.68-2.04-7.83-4.22-7.83-7.95,0-4.53,3.8-7.6,9.41-7.6,2.38,0,5.07.42,6.84,1.04l.84,7.8h-.04c-1.27-2.88-2.5-4.8-3.88-6.07-1.38-1.27-2.92-1.84-4.99-1.84-3.03,0-5.18,1.77-5.18,4.3s1.65,4,7.14,6.07c6.18,2.3,8.3,4.42,8.3,8.37,0,4.88-3.96,8.3-9.53,8.3-3.46,0-6.3-.46-8.49-1.34Z" fill="#487629" stroke="#487629" stroke-miterlimit="10"/>
    <path d="M77.67,184.65v-.23c2.57-.12,3.57-1.54,3.57-3.65v-17.21c0-2.34-.84-3.65-3.23-3.65v-.23l6.95-2.69h.58v23.77c0,2.11,1.04,3.53,3.61,3.65v.23h-11.48Z" fill="#487629" stroke="#487629" stroke-miterlimit="10"/>
    <path d="M91.32,184.65v-.23c2.57-.12,3.57-1.54,3.57-3.65v-17.21c0-2.34-.84-3.65-3.23-3.65v-.23l6.95-2.69h.58v23.77c0,2.11,1.04,3.53,3.61,3.65v.23h-11.48Z" fill="#487629" stroke="#487629" stroke-miterlimit="10"/>
    <path d="M123.32,176.93l-1.58,7.68-16.51.04v-.38l7.53-8.33c3.5-4.03,4.15-6.34,4.15-9.83,0-4.07-2.5-7.45-5.72-7.45-2.07,0-3.38,1.04-3.38,2.65,0,1.27.35,2.11,1.23,3.03-.31.77-1.23,1.31-2.27,1.31-1.15,0-2.07-.81-2.07-2.23,0-2.84,5.03-6.41,9.45-6.41s7.3,2.27,7.3,6.68c0,2.84-.69,4.72-7.53,12.33l-4.72,5.11h6.68c4.69,0,5.95-.77,7.26-4.19h.19Z" fill="#487629" stroke="#487629" stroke-miterlimit="10"/>
    <path d="M.5,205.36c0-7.99,5.57-14.33,13.6-14.33,2.96,0,5.53.5,7.64,1.34l.84,8.22h-.04c-1.34-2.92-2.96-5.03-4.46-6.34-1.84-1.58-3.61-2.19-5.61-2.19-4.76,0-8.49,3.76-8.49,10.22,0,7.76,4.95,13.29,11.44,13.29,3.46,0,7.03-1.5,8.33-5.49l.15.04c-1.38,6.3-5.99,8.83-10.95,8.83-6.8,0-12.48-4.38-12.48-13.6Z" fill="#487629" stroke="#487629" stroke-miterlimit="10"/>
    <path d="M46.56,214.77c.84,2,1.54,3.42,3.26,3.65v.23h-10.56v-.23c1.77-.19,2.65-.84,2.65-2.15,0-.65-.19-1.31-.5-2.07l-1.58-3.88h-10.6l-1.23,3.26c-.31.81-.46,1.57-.46,2.23,0,1.57.81,2.27,2.61,2.61v.23h-7.18v-.23c1.8-.5,3.07-2.77,4.03-5.22l8.49-22.04h1.08l9.99,23.62ZM29.66,209.28h9.75l-5.07-12.33-4.69,12.33Z" fill="#487629" stroke="#487629" stroke-miterlimit="10"/>
    <path d="M59.13,208.17v5.76c0,3.23,1.04,4.26,3.26,4.49v.23h-10.83v-.23c1.77-.12,2.8-1.46,2.8-3.65v-19.47c0-2.19-1.04-3.53-2.8-3.65v-.23h11.37c6.61,0,10.02,2.57,10.02,7.95s-5.03,8.79-12.25,8.79h-1.58ZM62.24,192.34c-2.07,0-3.11,1-3.11,2.77v12.02h1.58c4.88,0,7.22-2.38,7.22-7.3,0-4.26-2.07-7.49-5.68-7.49Z" fill="#487629" stroke="#487629" stroke-miterlimit="10"/>
    <path d="M73.94,218.65v-.23c1.81-.12,2.8-1.54,2.8-3.65v-19.47c0-2.11-1.04-3.53-2.84-3.65v-.23h10.41v.23c-1.8.12-2.8,1.54-2.8,3.65v19.47c0,2.11,1.04,3.53,2.84,3.65v.23h-10.41Z" fill="#487629" stroke="#487629" stroke-miterlimit="10"/>
    <path d="M109.66,200.49h-.19c-.65-2.65-1.92-4.69-3.3-6.18-.88-.96-2.27-1.96-3.76-1.96-1.31,0-1.92.73-1.92,2.34v20.09c0,2.19.81,3.53,2.8,3.65v.23h-10.37v-.23c1.77-.12,2.8-1.46,2.8-3.65v-20.09c0-1.61-.61-2.34-2-2.34-1.77,0-3.3,1.08-4.26,2.19-1.27,1.46-2.3,3.3-3.07,5.95h-.19l.96-9.06h21.55l.96,9.06Z" fill="#487629" stroke="#487629" stroke-miterlimit="10"/>
    <path d="M131.24,214.77c.84,2,1.54,3.42,3.26,3.65v.23h-10.56v-.23c1.77-.19,2.65-.84,2.65-2.15,0-.65-.19-1.31-.5-2.07l-1.58-3.88h-10.6l-1.23,3.26c-.31.81-.46,1.57-.46,2.23,0,1.57.81,2.27,2.61,2.61v.23h-7.18v-.23c1.8-.5,3.07-2.77,4.03-5.22l8.49-22.04h1.08l9.99,23.62ZM114.34,209.28h9.76l-5.07-12.33-4.69,12.33Z" fill="#487629" stroke="#487629" stroke-miterlimit="10"/>
    <path d="M156.87,208.78l-1.54,9.87h-19.09v-.23c1.77-.12,2.8-1.46,2.8-3.65v-19.47c0-2.15-1.08-3.53-2.84-3.65v-.23h10.41v.23c-1.77.12-2.8,1.46-2.8,3.65v19.74c0,2.04.88,2.69,3.38,2.69h.77c1.5,0,4.15-1.15,5.61-2.88,1.19-1.42,2.3-3,3.11-6.07h.19Z" fill="#487629" stroke="#487629" stroke-miterlimit="10"/>
  </g>
</svg>