<svg xmlns="http://www.w3.org/2000/svg" viewBox="0 0 224.64 194.32"><title>reverse-outline</title><path d="M74.54,134.48l1-6,.46-2.9H73c-7.66,0-7.66-1.17-7.66-2.94,0-3,2.44-8.7,7.65-17.81H96l.08.78c1,10.08,1.27,13.47,1.27,15.46,0,4,0,4.51-7.66,4.51H87.59l-.34,2.11-1,6-.47,2.9h71V125.73l-2.3-.18c-4.2-.33-6.14-.83-6.9-1.78-.94-1.16-1.12-4-1.12-8.3l.09-20.17c10.74.6,11.86,5.3,12.81,13.21l.26,2.2h10.24V67.5H159.67l-.26,2.2c-.95,7.91-2.07,12.61-12.8,13.21V66c0-1,0-2.09,0-3.14,0-2.65,0-5.39.08-7.23a1,1,0,0,1,.79-.31h2.45c19.5,0,24.13,6.29,26.65,19.49l.38,2h10.9l0-2.54L187.39,49a6.74,6.74,0,0,0-6.71-6.6h-52l.14-.29a12.11,12.11,0,0,0,.86-8l-.16-5.55c0-.66-.71-16.15-20.35-16.15h-.52l-2.06,0c-18.47,0-25.78-3.32-28.44-5.16C74.64,4.77,71.82,0,71.82,0a42.5,42.5,0,0,0,.8,8.19A11,11,0,0,0,73,9.3a16.72,16.72,0,0,0,2.39,4.37L77.94,19a14.9,14.9,0,0,0,3.48,4.6l2,3.57c4.74,8.5,11.6,8.93,18.87,9.37a71.14,71.14,0,0,1,8.32.87,7.32,7.32,0,0,1,4.71,2.77l1.59,2.2H101.24a9.11,9.11,0,0,0-7.92,4.52C92,49,50.4,118.07,50,118.77c-2.71,4.67-5.55,6.68-9.52,6.77l-2.13,0-.3,2.1-.84,6.05-.4,2.85H74.2ZM93.44,69.8,95,93H79.61Z" fill="#fff"/><circle cx="93.71" cy="148.88" r="2.33" fill="#fff"/><path d="M184.36,148.88a2.34,2.34,0,1,0,2.34-2.33A2.28,2.28,0,0,0,184.36,148.88Z" fill="#fff"/><path d="M24.06,170.76l-5.87-16.08c-.83-2.26-1.7-4.82-2.41-7.45H12.24L3.76,168.77c-1.13,2.9-1.73,4.52-3.88,4.59V175H9.3v-1.66c-2.41-.07-3.39-.34-3.39-1.84,0-.79.23-2.07,1.81-6.67h9.86l1.66,4.78a6.1,6.1,0,0,1,.45,2c0,1.24-1.13,1.69-3.5,1.69V175H27.38v-1.66A3.54,3.54,0,0,1,24.06,170.76ZM8.47,162.89l3.8-10.54c.12-.3.23-.61.46-.61s.34.27.41.53l3.77,10.62Z" fill="#fff"/><path d="M38.31,173.36c-1.81,0-2.71-.45-2.71-3v-9.42c1.09-1.54,2.82-3,4.67-3s3.23,1.06,3.23,3.39v9c0,2.56-.9,3-2.71,3V175h9.27v-1.66c-1.81,0-2.72-.45-2.72-3v-9.42c1-1.5,2.57-3,4.67-3s3.24,1.06,3.24,3.39v9c0,2.56-.9,3-2.71,3V175h9.27v-1.66c-1.81,0-2.72-.45-2.72-3V160.18c0-3.46-2.41-5.05-5.38-5.05a7.18,7.18,0,0,0-4.93,2c-1.28,1.06-1.17,1.39-1.51,1.39s-.19-.45-1-1.46a5,5,0,0,0-4.4-1.93,7.63,7.63,0,0,0-5.31,2.45c-.61.57-.72.72-.83.72s-.11,0-.11-.11v-3.06l-6.33,1.13v1.51c1.81.19,2.48,1.13,2.48,3.16v9.42c0,2.56-.9,3-2.71,3V175h9.27Z" fill="#fff"/><path d="M76,173.36c-3.24-.07-4.07-.9-4.07-3v-8.66c5.8.07,6.48,1,6.78,4.59h1.66V155.44H78.67c-.3,3.61-1,4.51-6.78,4.59v-5.57c0-1.62.12-3.2.23-5H76c7.87,0,9,1.65,9.45,7h1.66v-9c-2.18.11-4.48.3-6.74.3H63.46v1.66c3.24.07,4.07.9,4.07,3v17.85c0,2.11-.83,2.94-4.07,3V175H76Z" fill="#fff"/><path d="M95.7,170.35V155.13l-7,1.13v1.51c2.48.19,3.16,1.13,3.16,3.16v9.42c0,2.56-.9,3-3.24,3V175H98.94v-1.66C96.61,173.36,95.7,172.91,95.7,170.35Z" fill="#fff"/><path d="M112.94,155.13a5.87,5.87,0,0,0-4.94,3c-1,1.62-.94,1.8-1.2,1.8s-.26-.15-.26-.41v-4.41L100,156v1.51c2.38.23,3.09.87,3.09,2.67v10.21c0,2.56-.9,3-2.94,3V175h10.62v-1.66c-3,0-3.84-.6-3.84-3V165c0-4.1,2.41-7,4.11-7,.86,0,1.62.6,1.62,1.88a2.87,2.87,0,0,1-.27,1.32,5.12,5.12,0,0,0,1.09.12,2.86,2.86,0,0,0,3.17-3.21C116.63,156.53,115.23,155.13,112.94,155.13Z" fill="#fff"/><path d="M132.68,169.26c0-7.46-11.07-5-11.07-9.64a2.86,2.86,0,0,1,3.09-2.83c2.18,0,4.25,1.06,5.19,4.6h1.66v-5.8h-1a1.69,1.69,0,0,1-1,.3,21.85,21.85,0,0,0-4.55-.76c-3.77,0-6.56,2.11-6.56,5.73,0,6.78,11.08,4.59,11.08,9.6,0,1.92-1.43,3.35-3.77,3.35-2.94,0-5.2-2.33-5.65-5.57h-1.88V175h1.66a1.09,1.09,0,0,1,.79-.45c1,0,2.67.9,5.08.9C129.89,175.47,132.68,172.91,132.68,169.26Z" fill="#fff"/><path d="M145.86,174.27v-1.81a8,8,0,0,1-2.94.6c-1.66,0-2.56-.83-2.56-2.26V157.7h5.57v-2.11h-5.57v-5.35h-1.28a22.47,22.47,0,0,1-5.42,5.95v1.51h2.86v13.85c0,2.38,1.35,3.92,4.37,3.92A11,11,0,0,0,145.86,174.27Z" fill="#fff"/><path d="M178.77,165.68c-1.46,6.74-3.57,7.68-9.86,7.68-1.13,0-2.38-.07-3.58-.15-.11-1.77-.23-3.35-.23-5V152.5c0-2.11.83-2.94,4.07-3v-1.66h-12.5v1.66c3.24.07,4.06.9,4.06,3v17.85c0,2.11-.82,2.94-4.06,3V175H179.6l.83-9.34Z" fill="#fff"/><path d="M188.69,170.35V155.13l-7,1.13v1.51c2.49.19,3.16,1.13,3.16,3.16v9.42c0,2.56-.9,3-3.24,3V175h10.32v-1.66C189.6,173.36,188.69,172.91,188.69,170.35Z" fill="#fff"/><path d="M200.35,152.8c0-2.71.79-4.29,2.48-4.29,1.36,0,2.11.75,2.19,3.69h3.24v-4.82a17,17,0,0,0-4.79-.83,6.32,6.32,0,0,0-6.66,5.84c-.3,2.33-.72,3.87-3.24,4.18v1.13h2.94v12.65c0,2.56-.91,3-3.24,3V175h11.14v-1.66c-3.23-.07-4.06-.9-4.06-3V157.7h5.27v-2.11h-5.27Z" fill="#fff"/><path d="M223.25,168.62c-2,2.9-3.84,3.84-6.25,3.84-3.69,0-6.33-3.13-6.33-8h13.71c-.15-6.17-3.43-9.34-8.59-9.34s-9.26,3.92-9.26,10.17c0,6,3.28,10.17,9,10.17,4.14,0,6.74-1.66,9.23-6Zm-7.61-11.83c2.19,0,4.3,1.58,4.37,5.73h-9.26C211.12,159,212.86,156.79,215.64,156.79Z" fill="#fff"/><path d="M36.22,186.5h-.81v.63a.31.31,0,0,0,.27.33h.06l.16,0,.32.06v5.61l-.32.06-.16,0h-.06a.31.31,0,0,0-.27.33v.63h3.06v-.63a.3.3,0,0,0-.27-.33h-.06l-.16,0-.31-.06v-5.61l.31-.06.16,0h.06a.3.3,0,0,0,.27-.33v-.63H36.22Z" fill="#fff"/><path d="M45.83,186.5h-1v.63a.31.31,0,0,0,.27.33l.69.1v3.63a2.11,2.11,0,0,0,0,.35l0,.36-4.07-5.17-.1-.12a.26.26,0,0,0-.1-.07.24.24,0,0,0-.12,0H39.77v.63a.31.31,0,0,0,.27.33h.06l.16,0,.32.06v5.61l-.32.06-.16,0H40a.31.31,0,0,0-.27.33v.63h3v-.63a.31.31,0,0,0-.27-.33l-.7-.1v-3.69c0-.09,0-.2,0-.31s0-.21,0-.33l4,5.15a.62.62,0,0,0,.22.19.74.74,0,0,0,.28,0h.75v-6.67l.31-.06.16,0h.06a.31.31,0,0,0,.27-.33v-.63H45.83Z" fill="#fff"/><path d="M53.6,190.42A2.42,2.42,0,0,0,53,190c-.22-.1-.43-.19-.65-.27l-.66-.21a3.76,3.76,0,0,1-.57-.24,1.07,1.07,0,0,1-.4-.31.69.69,0,0,1-.16-.45,1,1,0,0,1,.07-.39.92.92,0,0,1,.24-.31,1.19,1.19,0,0,1,.37-.21,2,2,0,0,1,.52-.06,3.34,3.34,0,0,1,1.25.17,6.84,6.84,0,0,0,.1.87.22.22,0,0,0,.24.2H54v-2a5.85,5.85,0,0,0-2.21-.44,2.77,2.77,0,0,0-1.08.2,2.25,2.25,0,0,0-.79.49,2,2,0,0,0-.5.71,2.2,2.2,0,0,0-.17.83,2.53,2.53,0,0,0,.16.89,1.67,1.67,0,0,0,.4.59,1.94,1.94,0,0,0,.58.4,6.29,6.29,0,0,0,.65.26l.65.19a3.76,3.76,0,0,1,.57.22,1.11,1.11,0,0,1,.4.33.78.78,0,0,1,.15.5,1,1,0,0,1-.33.83,1.42,1.42,0,0,1-1,.29A5.39,5.39,0,0,1,50,193c0-.49-.07-.79-.09-.89a.23.23,0,0,0-.25-.19h-.61v2a6.9,6.9,0,0,0,2.22.41h.16a3,3,0,0,0,1.13-.2,2.31,2.31,0,0,0,.85-.53,2.17,2.17,0,0,0,.52-.8,2.61,2.61,0,0,0,.18-1A1.9,1.9,0,0,0,54,191,1.64,1.64,0,0,0,53.6,190.42Z" fill="#fff"/><path d="M61.1,186.5h-.86v.63a.31.31,0,0,0,.27.33h.08l.18,0,.33.06v3.57a2.44,2.44,0,0,1-.13.8,1.72,1.72,0,0,1-.34.61,1.61,1.61,0,0,1-.56.39,2.05,2.05,0,0,1-1.49,0,1.57,1.57,0,0,1-.55-.39,1.64,1.64,0,0,1-.35-.62,2.21,2.21,0,0,1-.12-.8v-3.56l.33-.06.18,0h.08a.31.31,0,0,0,.27-.33v-.63H55.31v.63a.31.31,0,0,0,.27.33h.07l.16,0,.32.06v3.57a3.46,3.46,0,0,0,.21,1.27,3,3,0,0,0,.64,1,3,3,0,0,0,1,.66,3.83,3.83,0,0,0,2.67,0,2.75,2.75,0,0,0,1.65-1.68,3.46,3.46,0,0,0,.22-1.27v-3.57l.32-.06.16,0h.07a.31.31,0,0,0,.27-.33v-.63H61.1Z" fill="#fff"/><path d="M71.29,193.27H71.2l-.18,0-.33-.06-1.22-1.79a1.34,1.34,0,0,0-.47-.45,3.29,3.29,0,0,0,.73-.35,1.77,1.77,0,0,0,.53-.49,2,2,0,0,0,.33-.63,2.25,2.25,0,0,0,.12-.74,2.14,2.14,0,0,0-.17-.89,1.77,1.77,0,0,0-.54-.71,2.56,2.56,0,0,0-.92-.46,4.85,4.85,0,0,0-1.35-.16h-3.1v.63a.31.31,0,0,0,.27.33H65l.16,0,.32.06v5.61l-.32.06-.16,0H64.9a.31.31,0,0,0-.27.33v.63h3.06v-.63a.3.3,0,0,0-.26-.33h-.07l-.16,0-.32-.06v-2h.55a.72.72,0,0,1,.32.07.59.59,0,0,1,.2.19l1.63,2.48a.54.54,0,0,0,.53.29h1.44v-.63A.3.3,0,0,0,71.29,193.27Zm-2.88-3.2a2.16,2.16,0,0,1-.71.11h-.82v-2.57h.85a1.83,1.83,0,0,1,1.18.31,1.11,1.11,0,0,1,.39.91,1.4,1.4,0,0,1-.1.54,1,1,0,0,1-.29.42A1.28,1.28,0,0,1,68.41,190.07Z" fill="#fff"/><path d="M80.93,193.41l-.58-.25-2.62-6.66H76.25l-2.61,6.66-.59.25a.29.29,0,0,0-.21.28v.54h2.61v-.54a.3.3,0,0,0-.22-.28l-.21-.09,0-.06.4-1.1h3.08l.38,1,0,.12a2,2,0,0,1-.22.09.29.29,0,0,0-.21.28v.54h2.61v-.54A.28.28,0,0,0,80.93,193.41Zm-5.11-2.27.88-2.4a3.6,3.6,0,0,0,.14-.4q.06-.24.15-.51a5.21,5.21,0,0,0,.15.51c0,.15.09.28.14.39l.88,2.41Z" fill="#fff"/><path d="M88.51,186.5h-1v.63a.31.31,0,0,0,.27.33l.69.1v3.63c0,.11,0,.23,0,.35s0,.23,0,.36l-4.07-5.17a.65.65,0,0,0-.11-.12.18.18,0,0,0-.09-.07.24.24,0,0,0-.12,0H82.45v.63a.3.3,0,0,0,.27.33h.06l.16,0,.32.06v5.61l-.32.06-.16,0h-.06a.3.3,0,0,0-.27.33v.63h3v-.63a.31.31,0,0,0-.27-.33l-.7-.1v-3.69c0-.09,0-.2,0-.31s0-.21,0-.33l4,5.15a.64.64,0,0,0,.23.19.7.7,0,0,0,.28,0h.75v-6.67l.31-.06.16,0h.06a.31.31,0,0,0,.27-.33v-.63H88.51Z" fill="#fff"/><path d="M97.41,192.41a.18.18,0,0,0-.12,0,.35.35,0,0,0-.12.07,2.93,2.93,0,0,1-.36.28,1.59,1.59,0,0,1-.37.18,4.13,4.13,0,0,1-.44.1,4.33,4.33,0,0,1-.53,0,2.36,2.36,0,0,1-.92-.18,2.12,2.12,0,0,1-.75-.54,2.29,2.29,0,0,1-.49-.85,3.24,3.24,0,0,1-.2-1.16,3.17,3.17,0,0,1,.2-1.14,2.52,2.52,0,0,1,.51-.86,2.06,2.06,0,0,1,.78-.54,2.56,2.56,0,0,1,1-.19,5.42,5.42,0,0,1,1.47.25c0,.47.08.76.1.85a.23.23,0,0,0,.24.2H98v-2a6.9,6.9,0,0,0-2.42-.56,4.41,4.41,0,0,0-1.62.29,3.47,3.47,0,0,0-1.25.83,3.6,3.6,0,0,0-.81,1.24,4.14,4.14,0,0,0-.29,1.6A4.68,4.68,0,0,0,91.9,192a3.72,3.72,0,0,0,.75,1.25,3.18,3.18,0,0,0,1.18.82,4,4,0,0,0,1.54.3A4.17,4.17,0,0,0,97,194a3.16,3.16,0,0,0,1.15-.89l-.56-.62A.29.29,0,0,0,97.41,192.41Z" fill="#fff"/><path d="M99.4,186.5v.63a.3.3,0,0,0,.26.33h.07l.16,0,.32.06v5.61l-.32.06-.16,0h-.07a.3.3,0,0,0-.26.33v.63h5.69v-2h-.62a.23.23,0,0,0-.25.2c0,.09,0,.31-.07.69h-2.5V190.9h2.62v-1.12h-2.62v-2.14h2.5c0,.38.06.6.07.69a.23.23,0,0,0,.25.2h.62v-2H99.4Z" fill="#fff"/><path d="M115.51,192.41a.19.19,0,0,0-.13,0,.35.35,0,0,0-.12.07,3.89,3.89,0,0,1-.35.28,1.88,1.88,0,0,1-.38.18,4.13,4.13,0,0,1-.44.1,4.33,4.33,0,0,1-.53,0,2.36,2.36,0,0,1-.92-.18,2.21,2.21,0,0,1-.75-.54,2.6,2.6,0,0,1-.49-.85,3.25,3.25,0,0,1-.19-1.16,3.17,3.17,0,0,1,.19-1.14,2.69,2.69,0,0,1,.51-.86,2.14,2.14,0,0,1,.78-.54,2.56,2.56,0,0,1,1-.19,5.36,5.36,0,0,1,1.47.25c0,.47.08.76.1.85a.23.23,0,0,0,.25.2h.62v-2a7,7,0,0,0-2.43-.56,4.45,4.45,0,0,0-1.62.29,3.55,3.55,0,0,0-1.25.83,3.6,3.6,0,0,0-.81,1.24,4.34,4.34,0,0,0-.29,1.6A4.67,4.67,0,0,0,110,192a3.57,3.57,0,0,0,.75,1.25,3.14,3.14,0,0,0,1.17.82,4,4,0,0,0,1.54.3,4.17,4.17,0,0,0,1.66-.31,3.19,3.19,0,0,0,1.16-.89l-.57-.62A.27.27,0,0,0,115.51,192.41Z" fill="#fff"/><path d="M124.12,187.54a3.7,3.7,0,0,0-1.24-.83,4.06,4.06,0,0,0-1.59-.3,4.39,4.39,0,0,0-1.61.3,3.65,3.65,0,0,0-1.24.83,3.77,3.77,0,0,0-.8,1.25,4.21,4.21,0,0,0-.28,1.57,4.27,4.27,0,0,0,.28,1.58,3.92,3.92,0,0,0,.8,1.26,3.63,3.63,0,0,0,1.24.82,4.39,4.39,0,0,0,1.61.3,4.25,4.25,0,0,0,1.59-.3,3.54,3.54,0,0,0,1.24-.82,3.9,3.9,0,0,0,.79-1.26,4.08,4.08,0,0,0,.29-1.58,4,4,0,0,0-.29-1.57A3.75,3.75,0,0,0,124.12,187.54Zm-.56,4a2.2,2.2,0,0,1-.49.86,2.13,2.13,0,0,1-.77.55,2.71,2.71,0,0,1-1,.18,2.78,2.78,0,0,1-1-.18,2.22,2.22,0,0,1-.77-.55,2.48,2.48,0,0,1-.49-.86,3.37,3.37,0,0,1-.17-1.14,3.31,3.31,0,0,1,.17-1.13,2.48,2.48,0,0,1,.49-.86,2.19,2.19,0,0,1,.77-.54,2.59,2.59,0,0,1,1-.19,2.53,2.53,0,0,1,1,.19,2.11,2.11,0,0,1,.77.54,2.2,2.2,0,0,1,.49.86,3.89,3.89,0,0,1,.17,1.13A4,4,0,0,1,123.56,191.5Z" fill="#fff"/><path d="M134.44,186.5h-.16l-.13,0a.26.26,0,0,0-.11.08.62.62,0,0,0-.08.12L131.67,191a2.48,2.48,0,0,0-.17.37c-.06.12-.1.24-.15.37l-.16-.37c-.06-.12-.1-.24-.16-.36l-2.31-4.29-.1-.12s-.05-.07-.1-.08l-.12,0h-2.07v.63a.31.31,0,0,0,.27.33h.06l.16,0,.32.06v5.61l-.32.06-.16,0h-.06a.31.31,0,0,0-.27.33v.63h3v-.63a.31.31,0,0,0-.27-.33l-.69-.1v-3.93c0-.1,0-.21,0-.31s0-.23,0-.35l2.37,4.4a.7.7,0,0,0,.21.24.58.58,0,0,0,.3.08h.19a.56.56,0,0,0,.3-.08A.73.73,0,0,0,132,193l2.33-4.38c0,.11,0,.23,0,.34s0,.2,0,.3v3.93l-.7.1a.31.31,0,0,0-.27.33v.63h3v-.63a.3.3,0,0,0-.27-.33H136l-.16,0-.31-.06v-5.61l.31-.06.16,0h.06a.3.3,0,0,0,.27-.33v-.63h-1.89Z" fill="#fff"/><path d="M143.13,187.19a2.77,2.77,0,0,0-.93-.51,4.55,4.55,0,0,0-1.35-.18h-3.2v.63a.31.31,0,0,0,.27.33H138l.16,0,.32.06v5.61l-.32.06-.16,0h-.06a.31.31,0,0,0-.27.33v.63h3.06v-.63a.3.3,0,0,0-.27-.33h-.06l-.16,0-.32-.06V191.5h.95a4.09,4.09,0,0,0,1.32-.18,2.83,2.83,0,0,0,.94-.52,2.21,2.21,0,0,0,.55-.8,2.77,2.77,0,0,0,0-2A1.87,1.87,0,0,0,143.13,187.19Zm-.81,2.37a1.17,1.17,0,0,1-.29.45,1.27,1.27,0,0,1-.48.28,2.43,2.43,0,0,1-.7.09h-.95v-2.77h.95a2.11,2.11,0,0,1,.7.1,1.38,1.38,0,0,1,.48.26,1.17,1.17,0,0,1,.29.43,1.69,1.69,0,0,1,.09.56A1.89,1.89,0,0,1,142.32,189.56Z" fill="#fff"/><path d="M152.21,193.41l-.58-.25L149,186.5h-1.48l-2.61,6.66-.59.25a.29.29,0,0,0-.21.28v.54h2.61v-.54a.3.3,0,0,0-.22-.28l-.21-.09,0-.06.4-1.1h3.08l.38,1,.05.12a2,2,0,0,1-.22.09.29.29,0,0,0-.21.28v.54h2.61v-.54A.28.28,0,0,0,152.21,193.41Zm-5.11-2.27.88-2.4a3.6,3.6,0,0,0,.14-.4q.06-.24.15-.51a5.21,5.21,0,0,0,.15.51c.05.15.09.28.14.39l.88,2.41Z" fill="#fff"/><path d="M159.79,186.5h-1v.63a.3.3,0,0,0,.27.33l.69.1v3.63c0,.11,0,.23,0,.35l0,.36-4.06-5.17-.11-.12a.18.18,0,0,0-.09-.07l-.12,0h-1.72v.63a.3.3,0,0,0,.26.33h.07l.16,0,.32.06v5.61l-.32.06-.16,0H154a.3.3,0,0,0-.26.33v.63h3v-.63a.3.3,0,0,0-.26-.33l-.7-.1v-3.69c0-.09,0-.2,0-.31s0-.21,0-.33l4,5.15a.64.64,0,0,0,.23.19.7.7,0,0,0,.28,0h.74v-6.67l.32-.06.16,0h.06a.31.31,0,0,0,.27-.33v-.63h-2.08Z" fill="#fff"/><path d="M170.19,186.5h-2.52v.63a.3.3,0,0,0,.27.33H168l.1,0,.16,0-1,1.87a3.38,3.38,0,0,0-.21.43,2.23,2.23,0,0,0-.16.4c-.06-.13-.1-.26-.16-.4s-.13-.28-.22-.43l-1-1.87.15,0,.11,0h0a.3.3,0,0,0,.27-.33v-.63h-2.89v.63a.31.31,0,0,0,.27.33h.06l.17,0,.32.06,2.18,3.67v1.94l-.31.06-.16,0h-.08a.3.3,0,0,0-.26.33v.63h3.05v-.63a.3.3,0,0,0-.26-.33H168l-.16,0-.31-.06v-1.94l2.18-3.67.31-.06.16,0h.07a.31.31,0,0,0,.27-.33v-.63h-.37Z" fill="#fff"/><path d="M176,186.5h-.81v.63a.31.31,0,0,0,.27.33h.06l.16,0,.32.06v5.61l-.32.06-.16,0h-.06a.31.31,0,0,0-.27.33v.63h3.06v-.63a.31.31,0,0,0-.27-.33h-.06l-.16,0-.31-.06v-5.61l.31-.06.16,0H178a.31.31,0,0,0,.27-.33v-.63H176Z" fill="#fff"/><path d="M181.21,192.93a.7.7,0,0,0-.25-.17.75.75,0,0,0-.33-.07.71.71,0,0,0-.32.07.81.81,0,0,0-.42.42.74.74,0,0,0-.07.32.72.72,0,0,0,.07.33.66.66,0,0,0,.17.24.69.69,0,0,0,.27.17.66.66,0,0,0,.32.07.83.83,0,0,0,.56-.24.66.66,0,0,0,.17-.24.72.72,0,0,0,.07-.33.74.74,0,0,0-.07-.32A.7.7,0,0,0,181.21,192.93Z" fill="#fff"/><path d="M183.8,186.5H183v.63a.31.31,0,0,0,.27.33h.06l.16,0,.32.06v5.61l-.32.06-.16,0h-.06a.31.31,0,0,0-.27.33v.63h3.06v-.63a.31.31,0,0,0-.27-.33h-.06l-.16,0-.31-.06v-5.61l.31-.06.16,0h.06a.31.31,0,0,0,.27-.33v-.63H183.8Z" fill="#fff"/><path d="M189,192.93a.7.7,0,0,0-.25-.17.74.74,0,0,0-.32-.07.72.72,0,0,0-.33.07.81.81,0,0,0-.42.42.74.74,0,0,0-.07.32.72.72,0,0,0,.07.33.66.66,0,0,0,.17.24.69.69,0,0,0,.27.17.66.66,0,0,0,.32.07.83.83,0,0,0,.56-.24.66.66,0,0,0,.17-.24.72.72,0,0,0,.07-.33.74.74,0,0,0-.07-.32A.7.7,0,0,0,189,192.93Z" fill="#fff"/><polygon points="79.61 93.02 95.03 93.02 93.44 69.8 79.61 93.02" fill="none"/><path d="M111.05,34.91c-11.34-2-19.85,1.05-25.45-9,12.57,8.25,26.48,0,31.74,12.76A9.89,9.89,0,0,0,111.05,34.91Z" fill="#ea0029"/><path d="M126.59,41h-5.84a10.07,10.07,0,0,0-3.85-8.77l0,0c-8-7.7-30.54-1.63-36.75-14.42,7.49,7.17,32.71,2,42.79,10.36C127.84,32.28,128.46,36.92,126.59,41Z" fill="#ea0029"/><path d="M108.73,14.87c15.56-.22,18.23,10.07,18.34,13.72C119.51,14,81.43,27.35,75,7.42,75,7.42,80.23,15.27,108.73,14.87Z" fill="#ea0029"/><path d="M115.07,55.24c.05.78,1.68,29,2.8,48.5l3,2.19.09-.06v-.08c0-.37,0-.75,0-1.13,0-.22,0-.44,0-.65,0-.4,0-.8,0-1.2v-.34c0-.44,0-.89,0-1.34,0-.15,0-.31,0-.47.08-2,.16-4.12.24-6.25l0-.44,0-1.27,0-.64c.08-2.22.17-4.46.26-6.69l0-.29.12-3.13.09-2.23c.12-3,.24-5.9.35-8.62,0-.33,0-.65,0-1l0-.43c0-.37,0-.73,0-1.09l0-.83,0-.64.06-1.49v0c0-1.08.08-2.11.12-3.08v-.32c0-.35,0-.7,0-1l0-.47,0-.76,0-.46c0-.3,0-.6,0-.88v-.23c0-.33,0-.65,0-1v-.12c0-.34,0-.67,0-1a1.51,1.51,0,0,0-1.5-1.56h-3.11s1.66-.92,3.13-1.77a8.88,8.88,0,0,0,3.23-3.21c1.24-2.14,2.52-5,2.52-5H104.46C107.48,44.85,114.68,50.4,115.07,55.24Z" fill="#afaecc"/><path d="M184.89,49a4.21,4.21,0,0,0-4.21-4.14H137.57a9.52,9.52,0,0,0-4.75,1.87c-3,2-5.81,5.21-6,8.23,0,0,0,.08,0,.16v.14c0,.06,0,.12,0,.21v.12c0,.12,0,.24,0,.38v.2q0,.2,0,.42c0,.13,0,.27,0,.42l0,.32,0,.55,0,.43,0,.52,0,.58,0,.44-.06,1v.21c0,.26,0,.55,0,.83s0,.45,0,.69v.16c0,.4,0,.82-.07,1.25-.06,1-.13,2.1-.19,3.24-.09,1.44-.18,3-.27,4.58l0,.73c-.05.93-.11,1.88-.16,2.84,0,.44,0,.88-.08,1.32l0,.6c0,.57-.07,1.15-.1,1.73l0,.32c0,.59-.07,1.18-.1,1.78l0,.27c0,.4,0,.79-.07,1.19-.14,2.4-.28,4.84-.41,7.27V90l-.06,1.13c-.07,1.14-.13,2.28-.2,3.41s-.12,2.11-.18,3.15c0,.14,0,.28,0,.43-.06,1-.11,1.94-.17,2.9s-.1,1.81-.15,2.69l6.28-4.56-3.59,11,9.39,6.83H124.48l-3.59,11-3.58-11H105.7l9.39-6.83-3.59-11,6.37,4.63c-1.12-19.47-2.75-47.72-2.8-48.5-.39-4.84-7.59-10.39-10.61-10.39h-3.22a6.63,6.63,0,0,0-5.79,3.32c-1.3,2.13-43.33,71.89-43.33,71.89-2.66,4.59-6,7.86-11.61,8l-.85,6.05H72.07L73,128c-7.74,0-10.16-1.21-10.16-5.44,0-3.63,2.54-9.67,8.71-20.31H98.31c1.21,12.81,1.57,16.44,1.57,18.74,0,6-1.81,7-10.16,7l-1,6.05h65.57V128c-9.31-.73-10.32-2.3-10.32-12.57l.1-22.74c15,0,16.69,6.41,17.78,15.48h5.52V70h-5.52c-1.09,9.07-2.78,15.48-17.78,15.48V66c0-3.72-.1-7.87.08-10.54a3.09,3.09,0,0,1,3.28-2.64h2.45c19.87,0,26.2,6.29,29.1,21.52h6.29ZM75.21,95.51,93.65,64.56c.6-1.09.85-1.33,1.21-1.33s.6.36.72,1.33l2.12,31Z" fill="#002169"/></svg>