<svg xmlns="http://www.w3.org/2000/svg" viewBox="0 0 224.64 194.32"><title>reverse-outline</title><path d="M16.19,175v-1.66c2.37,0,3.5-.45,3.5-1.69a6.07,6.07,0,0,0-.45-2l-1.66-4.78H7.72c-1.58,4.59-1.81,5.88-1.81,6.67,0,1.51,1,1.77,3.39,1.84V175H-.12v-1.66c2.15-.08,2.75-1.69,3.88-4.59l8.47-21.54h3.54c.72,2.64,1.58,5.2,2.41,7.46l5.87,16.08a3.54,3.54,0,0,0,3.31,2.6V175Zm.72-12.13-3.77-10.62c-.08-.26-.19-.53-.41-.53s-.34.3-.45.6l-3.8,10.54Z" fill="#fff"/><path d="M29,175v-1.66c1.81,0,2.71-.45,2.71-3v-9.41c0-2-.68-3-2.49-3.16v-1.51l6.33-1.13v3.05c0,.11,0,.11.11.11s.23-.15.83-.71a7.63,7.63,0,0,1,5.31-2.45,5,5,0,0,1,4.41,1.92c.83,1,.79,1.47,1,1.47s.23-.34,1.51-1.39a7.18,7.18,0,0,1,4.93-2c3,0,5.39,1.58,5.39,5v10.17c0,2.56.9,3,2.71,3V175H52.54v-1.66c1.81,0,2.71-.45,2.71-3v-9c0-2.33-1.28-3.39-3.24-3.39a5.83,5.83,0,0,0-4.67,3v9.41c0,2.56.9,3,2.71,3V175H40.79v-1.66c1.81,0,2.71-.45,2.71-3v-9c0-2.33-1.28-3.39-3.24-3.39s-3.58,1.47-4.67,3v9.41c0,2.56.9,3,2.71,3V175Z" fill="#fff"/><path d="M63.46,175v-1.66c3.24-.08,4.07-.9,4.07-3V152.5c0-2.11-.83-2.94-4.07-3v-1.66H80.33c2.26,0,4.56-.19,6.74-.3v9H85.41c-.41-5.35-1.58-7-9.45-7H72.12c-.11,1.77-.23,3.35-.23,5V160c5.8-.08,6.48-1,6.78-4.59h1.66v10.85H78.67c-.3-3.62-1-4.52-6.78-4.59v8.66c0,2.11.83,2.94,4.07,3V175Z" fill="#fff"/><path d="M88.62,175v-1.66c2.33,0,3.24-.45,3.24-3v-9.41c0-2-.68-3-3.16-3.16v-1.51l7-1.13v15.21c0,2.56.9,3,3.24,3V175Zm5.08-28.47a2.33,2.33,0,1,1-2.33,2.33A2.28,2.28,0,0,1,93.71,146.55Z" fill="#fff"/><path d="M100.13,175v-1.66c2,0,2.94-.45,2.94-3V160.14c0-1.81-.72-2.45-3.09-2.67V156l6.55-.83v4.41c0,.26,0,.41.26.41s.15-.19,1.21-1.81a5.85,5.85,0,0,1,4.93-3c2.3,0,3.69,1.39,3.69,2.9a2.85,2.85,0,0,1-3.16,3.2,5.32,5.32,0,0,1-1.09-.11,2.88,2.88,0,0,0,.26-1.32c0-1.28-.75-1.88-1.62-1.88-1.69,0-4.1,2.94-4.1,7v5.38c0,2.41.83,3,3.84,3V175Z" fill="#fff"/><path d="M120.1,168.24c.45,3.24,2.71,5.57,5.65,5.57,2.33,0,3.77-1.43,3.77-3.35,0-5-11.07-2.82-11.07-9.6,0-3.62,2.79-5.72,6.55-5.72a22.15,22.15,0,0,1,4.56.75,1.71,1.71,0,0,0,1-.3h1v5.8h-1.66c-.94-3.54-3-4.59-5.2-4.59a2.87,2.87,0,0,0-3.09,2.82c0,4.63,11.07,2.18,11.07,9.64,0,3.65-2.79,6.21-6.93,6.21-2.41,0-4.07-.9-5.08-.9a1.14,1.14,0,0,0-.79.45h-1.66v-6.78Z" fill="#fff"/><path d="M140.36,150.24v5.35h5.57v2.11h-5.57V170.8c0,1.43.9,2.26,2.56,2.26a7.89,7.89,0,0,0,2.94-.6v1.81a11,11,0,0,1-5,1.21c-3,0-4.37-1.54-4.37-3.92V157.7h-2.86v-1.51a22.4,22.4,0,0,0,5.42-6Z" fill="#fff"/><path d="M156.67,175v-1.66c3.24-.08,4.07-.9,4.07-3V152.5c0-2.11-.83-2.94-4.07-3v-1.66h12.5v1.66c-3.24.08-4.07.9-4.07,3v15.74c0,1.62.11,3.2.23,5,1.21.08,2.45.15,3.58.15,6.29,0,8.4-.94,9.87-7.68h1.66L179.6,175Z" fill="#fff"/><path d="M181.61,175v-1.66c2.33,0,3.24-.45,3.24-3v-9.41c0-2-.68-3-3.16-3.16v-1.51l7-1.13v15.21c0,2.56.9,3,3.24,3V175Zm5.08-28.47a2.33,2.33,0,1,1-2.33,2.33A2.28,2.28,0,0,1,186.7,146.55Z" fill="#fff"/><path d="M193.27,175v-1.66c2.33,0,3.24-.45,3.24-3V157.7h-2.94v-1.13c2.52-.3,2.94-1.84,3.24-4.18a6.31,6.31,0,0,1,6.67-5.84,17,17,0,0,1,4.78.83v4.82H205c-.08-2.94-.83-3.69-2.18-3.69-1.7,0-2.49,1.58-2.49,4.29v2.79h5.27v2.11h-5.27v12.65c0,2.11.83,2.94,4.07,3V175Z" fill="#fff"/><path d="M210.67,164.47c0,4.86,2.64,8,6.33,8,2.41,0,4.29-.94,6.25-3.84l1.51.83c-2.49,4.37-5.08,6-9.23,6-5.72,0-9-4.14-9-10.17,0-6.25,4.22-10.17,9.26-10.17s8.44,3.16,8.59,9.34Zm9.34-2c-.08-4.14-2.18-5.72-4.37-5.72-2.79,0-4.52,2.18-4.9,5.72Z" fill="#fff"/><path d="M38.14,187.47l-.16,0-.31.05v5.62l.31.05.16,0h.06a.31.31,0,0,1,.27.33v.63H35.41v-.63a.31.31,0,0,1,.27-.33h.06l.16,0,.32-.05v-5.62l-.32-.05-.16,0h-.06a.31.31,0,0,1-.27-.33v-.63h3.06v.63a.31.31,0,0,1-.27.33Z" fill="#fff"/><path d="M47.91,186.5v.63a.31.31,0,0,1-.27.33h-.06l-.16,0-.31.05v6.67h-.75a.67.67,0,0,1-.28-.05.59.59,0,0,1-.22-.19l-4-5.14c0,.12,0,.22,0,.33s0,.21,0,.31v3.69l.7.1a.31.31,0,0,1,.27.33v.63h-3v-.63a.31.31,0,0,1,.27-.33h.06l.16,0,.32-.05v-5.62l-.32-.05-.16,0H40a.31.31,0,0,1-.27-.33v-.63h1.72a.21.21,0,0,1,.12,0,.26.26,0,0,1,.1.06l.11.13,4.06,5.17,0-.36c0-.12,0-.24,0-.34v-3.64l-.7-.1a.31.31,0,0,1-.27-.33v-.63h3Z" fill="#fff"/><path d="M54.15,191.82a2.66,2.66,0,0,1-.18,1,2.13,2.13,0,0,1-.52.8,2.42,2.42,0,0,1-.84.53,3.1,3.1,0,0,1-1.13.19h-.16a7,7,0,0,1-2.21-.41v-2h.61a.23.23,0,0,1,.25.19c0,.1.05.4.1.89a5.42,5.42,0,0,0,1.47.14,1.43,1.43,0,0,0,1-.29,1,1,0,0,0,.33-.83.83.83,0,0,0-.15-.5,1.13,1.13,0,0,0-.41-.32,3.57,3.57,0,0,0-.57-.22c-.21-.06-.44-.12-.65-.19a6.85,6.85,0,0,1-.65-.26,2.13,2.13,0,0,1-.58-.4,1.58,1.58,0,0,1-.4-.6,2.35,2.35,0,0,1-.16-.89,2.17,2.17,0,0,1,.66-1.54,2.56,2.56,0,0,1,.79-.49,2.83,2.83,0,0,1,1.08-.19,5.89,5.89,0,0,1,2.21.44v2h-.61a.23.23,0,0,1-.25-.2q0-.15-.1-.87a3.37,3.37,0,0,0-1.25-.17,1.81,1.81,0,0,0-.51.06,1.13,1.13,0,0,0-.37.2,1,1,0,0,0-.24.31,1,1,0,0,0-.08.4.7.7,0,0,0,.16.45,1.2,1.2,0,0,0,.4.31,3.61,3.61,0,0,0,.58.23l.65.21A6.92,6.92,0,0,1,53,190a2.1,2.1,0,0,1,.58.39A1.67,1.67,0,0,1,54,191,1.92,1.92,0,0,1,54.15,191.82Z" fill="#fff"/><path d="M63.35,186.5v.63a.31.31,0,0,1-.27.33H63l-.16,0-.32.05v3.57a3.49,3.49,0,0,1-.22,1.27,3,3,0,0,1-.63,1,3.07,3.07,0,0,1-1,.66,3.92,3.92,0,0,1-2.67,0,2.85,2.85,0,0,1-1.65-1.68,3.49,3.49,0,0,1-.21-1.27v-3.57l-.32-.05-.16,0h-.06a.31.31,0,0,1-.27-.33v-.63h3.1v.63a.31.31,0,0,1-.27.33h-.08l-.18,0-.33.05v3.56a2.35,2.35,0,0,0,.12.8,1.76,1.76,0,0,0,.35.62,1.53,1.53,0,0,0,.55.39,2.09,2.09,0,0,0,1.5,0,1.57,1.57,0,0,0,.56-.39,1.87,1.87,0,0,0,.34-.61,2.63,2.63,0,0,0,.13-.8v-3.57l-.33-.05-.18,0h-.07a.31.31,0,0,1-.27-.33v-.63h3.1Z" fill="#fff"/><path d="M71.55,193.6v.63H70.11a.59.59,0,0,1-.32-.08.67.67,0,0,1-.21-.21L68,191.46a.58.58,0,0,0-.2-.19.65.65,0,0,0-.32-.06h-.55v2l.32.05.16,0h.06a.31.31,0,0,1,.27.33v.63H64.63v-.63a.31.31,0,0,1,.27-.33H65l.16,0,.32-.05v-5.62l-.32-.05-.16,0H64.9a.31.31,0,0,1-.27-.33v-.63h3.09a5.06,5.06,0,0,1,1.36.16,2.57,2.57,0,0,1,.92.46,1.8,1.8,0,0,1,.53.71,2.24,2.24,0,0,1,.17.9,2.43,2.43,0,0,1-.12.74,2.21,2.21,0,0,1-.33.63,2,2,0,0,1-.53.49,3,3,0,0,1-.73.34,1.45,1.45,0,0,1,.47.45l1.22,1.8.33.05.18,0h.09A.31.31,0,0,1,71.55,193.6Zm-2.64-3.81a1.15,1.15,0,0,0,.29-.43,1.43,1.43,0,0,0,.1-.53,1.11,1.11,0,0,0-.38-.91,1.83,1.83,0,0,0-1.19-.31h-.85v2.57h.82a2.32,2.32,0,0,0,.71-.11A1.32,1.32,0,0,0,68.91,189.79Z" fill="#fff"/><path d="M81.14,193.69v.55H78.53v-.55a.3.3,0,0,1,.21-.28l.21-.09,0-.12-.38-1H75.45l-.4,1.1,0,.06.21.09a.3.3,0,0,1,.21.28v.55H72.84v-.55a.3.3,0,0,1,.21-.28l.59-.25,2.61-6.66h1.48l2.62,6.66.59.25A.28.28,0,0,1,81.14,193.69Zm-5.32-2.54h2.34l-.89-2.41-.14-.4c-.05-.15-.1-.33-.15-.51-.05.18-.11.35-.15.51s-.1.29-.14.41Z" fill="#fff"/><path d="M90.59,186.5v.63a.31.31,0,0,1-.27.33h-.06l-.16,0-.31.05v6.67H89a.67.67,0,0,1-.28-.05.59.59,0,0,1-.22-.19l-4-5.14c0,.12,0,.22,0,.33s0,.21,0,.31v3.69l.7.1a.31.31,0,0,1,.27.33v.63h-3v-.63a.31.31,0,0,1,.27-.33h.06l.16,0,.32-.05v-5.62l-.32-.05-.16,0h-.06a.31.31,0,0,1-.27-.33v-.63h1.72a.21.21,0,0,1,.12,0,.26.26,0,0,1,.1.06l.11.13,4.06,5.17,0-.36c0-.12,0-.24,0-.34v-3.64l-.7-.1a.31.31,0,0,1-.27-.33v-.63h3Z" fill="#fff"/><path d="M97.18,188.75c0-.1-.05-.38-.1-.86a5.35,5.35,0,0,0-1.48-.25,2.59,2.59,0,0,0-1,.18,2.15,2.15,0,0,0-.78.55,2.6,2.6,0,0,0-.51.86,3.53,3.53,0,0,0,0,2.3,2.57,2.57,0,0,0,.49.86,2.2,2.2,0,0,0,1.67.72,4.09,4.09,0,0,0,.54,0,2.5,2.5,0,0,0,.44-.1,1.72,1.72,0,0,0,.37-.18,2.65,2.65,0,0,0,.35-.28.45.45,0,0,1,.12-.08.27.27,0,0,1,.13,0,.25.25,0,0,1,.2.09l.57.62A3,3,0,0,1,97,194a4.1,4.1,0,0,1-1.66.31,3.92,3.92,0,0,1-1.54-.3,3.26,3.26,0,0,1-1.18-.81A3.68,3.68,0,0,1,91.9,192a4.69,4.69,0,0,1-.26-1.58,4.33,4.33,0,0,1,.29-1.6A3.67,3.67,0,0,1,94,186.7a4.35,4.35,0,0,1,1.62-.29A7.05,7.05,0,0,1,98,187v2h-.62A.23.23,0,0,1,97.18,188.75Z" fill="#fff"/><path d="M105.09,186.5v2h-.62a.23.23,0,0,1-.25-.2c0-.09,0-.31-.08-.68h-2.49v2.14h2.62v1.11h-2.62v2.18h2.49c0-.37.06-.6.08-.68a.23.23,0,0,1,.25-.2h.62v2H99.4v-.63a.31.31,0,0,1,.27-.33h.06l.16,0,.32-.05v-5.62l-.32-.05-.16,0h-.06a.31.31,0,0,1-.27-.33v-.63h5.69Z" fill="#fff"/><path d="M115.27,188.75c0-.1-.05-.38-.1-.86a5.36,5.36,0,0,0-1.48-.25,2.59,2.59,0,0,0-1,.18,2.15,2.15,0,0,0-.78.55,2.6,2.6,0,0,0-.51.86,3.53,3.53,0,0,0,0,2.3,2.57,2.57,0,0,0,.49.86,2.2,2.2,0,0,0,1.67.72,4.1,4.1,0,0,0,.54,0,2.51,2.51,0,0,0,.44-.1,1.74,1.74,0,0,0,.37-.18,2.65,2.65,0,0,0,.35-.28.44.44,0,0,1,.12-.08.27.27,0,0,1,.13,0,.25.25,0,0,1,.2.09l.57.62a3.05,3.05,0,0,1-1.16.89,4.1,4.1,0,0,1-1.66.31,3.92,3.92,0,0,1-1.54-.3,3.26,3.26,0,0,1-1.18-.81A3.68,3.68,0,0,1,110,192a4.69,4.69,0,0,1-.26-1.58,4.33,4.33,0,0,1,.29-1.6,3.67,3.67,0,0,1,2.06-2.06,4.35,4.35,0,0,1,1.62-.29,7.05,7.05,0,0,1,2.43.56v2h-.62A.23.23,0,0,1,115.27,188.75Z" fill="#fff"/><path d="M124.91,191.94a3.79,3.79,0,0,1-.79,1.25,3.56,3.56,0,0,1-1.24.82,4.23,4.23,0,0,1-1.59.3,4.29,4.29,0,0,1-1.6-.3,3.55,3.55,0,0,1-1.24-.82,3.8,3.8,0,0,1-.8-1.25,4.25,4.25,0,0,1-.28-1.58,4.19,4.19,0,0,1,.28-1.57,3.8,3.8,0,0,1,.8-1.25,3.55,3.55,0,0,1,1.24-.82,4.29,4.29,0,0,1,1.6-.3,4,4,0,0,1,1.59.3,3.71,3.71,0,0,1,1.24.82,3.79,3.79,0,0,1,.79,1.25,4.2,4.2,0,0,1,.29,1.57A4.26,4.26,0,0,1,124.91,191.94Zm-1.36-2.72a2.2,2.2,0,0,0-1.25-1.4,2.58,2.58,0,0,0-1-.18,2.63,2.63,0,0,0-1,.18,2.2,2.2,0,0,0-.77.55,2.4,2.4,0,0,0-.49.86,3.42,3.42,0,0,0-.17,1.13,3.49,3.49,0,0,0,.17,1.14,2.41,2.41,0,0,0,.49.86,2.2,2.2,0,0,0,.77.55,2.63,2.63,0,0,0,1,.18,2.58,2.58,0,0,0,1-.18,2.2,2.2,0,0,0,1.25-1.4,3.77,3.77,0,0,0,.17-1.14A3.7,3.7,0,0,0,123.56,189.23Z" fill="#fff"/><path d="M136,187.47l-.16,0-.31.05v5.62l.31.05.16,0h.06a.31.31,0,0,1,.27.33v.63h-3v-.63a.31.31,0,0,1,.27-.33l.7-.1v-3.94c0-.1,0-.19,0-.3s0-.22,0-.34L132,193a.63.63,0,0,1-.21.24.54.54,0,0,1-.3.09h-.19a.54.54,0,0,1-.3-.09.64.64,0,0,1-.21-.24l-2.36-4.4c0,.12,0,.24,0,.34a3.11,3.11,0,0,1,0,.31v3.94l.7.1a.31.31,0,0,1,.27.33v.63h-3v-.63a.31.31,0,0,1,.27-.33h.06l.16,0,.32-.05v-5.62l-.32-.05-.16,0h-.06a.31.31,0,0,1-.27-.33v-.63h2.06l.13,0s.06,0,.1.07a.67.67,0,0,1,.1.13L131,191c.06.12.11.24.16.35l.16.37.15-.37a3.78,3.78,0,0,1,.17-.36l2.29-4.28a.67.67,0,0,1,.08-.13.25.25,0,0,1,.11-.07l.13,0h2.05v.63a.31.31,0,0,1-.27.33Z" fill="#fff"/><path d="M143.86,189a2.73,2.73,0,0,1-.19,1,2.22,2.22,0,0,1-.56.8,2.67,2.67,0,0,1-.94.52,4.08,4.08,0,0,1-1.32.18h-1v1.67l.32.05.16,0h.06a.31.31,0,0,1,.27.33v.63h-3.06v-.63a.31.31,0,0,1,.27-.33H138l.16,0,.32-.05v-5.62l-.32-.05-.16,0h-.06a.31.31,0,0,1-.27-.33v-.63h3.2a4.58,4.58,0,0,1,1.35.18,2.61,2.61,0,0,1,.93.51,2,2,0,0,1,.55.77A2.71,2.71,0,0,1,143.86,189Zm-1.44,0a1.57,1.57,0,0,0-.1-.56A1.09,1.09,0,0,0,142,188a1.31,1.31,0,0,0-.48-.27,2.22,2.22,0,0,0-.7-.1h-1v2.77h1a2.22,2.22,0,0,0,.7-.1A1.19,1.19,0,0,0,142,190a1.1,1.1,0,0,0,.29-.45A1.77,1.77,0,0,0,142.41,189Z" fill="#fff"/><path d="M152.42,193.69v.55h-2.61v-.55a.3.3,0,0,1,.21-.28l.21-.09,0-.12-.39-1h-3.08l-.4,1.1,0,.06.21.09a.3.3,0,0,1,.21.28v.55h-2.61v-.55a.3.3,0,0,1,.21-.28l.59-.25,2.61-6.66H149l2.62,6.66.59.25A.28.28,0,0,1,152.42,193.69Zm-5.32-2.54h2.34l-.89-2.41-.14-.4c-.05-.15-.1-.33-.15-.51-.05.18-.11.35-.15.51s-.1.29-.14.41Z" fill="#fff"/><path d="M161.87,186.5v.63a.31.31,0,0,1-.27.33h-.06l-.16,0-.31.05v6.67h-.75a.68.68,0,0,1-.28-.05.61.61,0,0,1-.22-.19l-4-5.14c0,.12,0,.22,0,.33s0,.21,0,.31v3.69l.7.1a.31.31,0,0,1,.27.33v.63h-3v-.63a.31.31,0,0,1,.27-.33h.06l.16,0,.32-.05v-5.62l-.32-.05-.16,0H154a.31.31,0,0,1-.27-.33v-.63h1.72a.22.22,0,0,1,.12,0,.26.26,0,0,1,.1.06l.11.13,4.06,5.17,0-.36c0-.12,0-.24,0-.34v-3.64l-.69-.1a.31.31,0,0,1-.27-.33v-.63h3Z" fill="#fff"/><path d="M170.56,186.5v.63a.31.31,0,0,1-.27.33h-.06l-.16,0-.31.05-2.18,3.67v1.95l.31.05.16,0h.06a.31.31,0,0,1,.27.33v.63h-3.06v-.63a.31.31,0,0,1,.27-.33h.07l.16,0,.31-.05v-1.95l-2.18-3.67-.32-.05-.16,0h-.06a.31.31,0,0,1-.27-.33v-.63H166v.63a.31.31,0,0,1-.27.33h0l-.11,0-.15,0,1,1.87c.08.15.15.29.21.43s.11.28.16.41a3.4,3.4,0,0,1,.16-.41c.06-.14.13-.28.21-.43l1-1.87-.16,0-.1,0h-.05a.31.31,0,0,1-.27-.33v-.63h2.89Z" fill="#fff"/><path d="M177.94,187.47l-.16,0-.31.05v5.62l.31.05.16,0H178a.31.31,0,0,1,.27.33v.63h-3.06v-.63a.31.31,0,0,1,.27-.33h.06l.16,0,.32-.05v-5.62l-.32-.05-.16,0h-.06a.31.31,0,0,1-.27-.33v-.63h3.06v.63a.31.31,0,0,1-.27.33Z" fill="#fff"/><path d="M179.89,193.18a.8.8,0,0,1,.17-.26.82.82,0,0,1,.26-.17.79.79,0,0,1,.32-.06.8.8,0,0,1,.75.49.81.81,0,0,1,.06.32.78.78,0,0,1-.06.32.81.81,0,0,1-.17.25.86.86,0,0,1-.26.17.77.77,0,0,1-.31.06.78.78,0,0,1-.32-.06.88.88,0,0,1-.27-.17.77.77,0,0,1-.24-.57A.81.81,0,0,1,179.89,193.18Z" fill="#fff"/><path d="M185.72,187.47l-.16,0-.31.05v5.62l.31.05.16,0h.06a.31.31,0,0,1,.27.33v.63H183v-.63a.31.31,0,0,1,.27-.33h.06l.16,0,.32-.05v-5.62l-.32-.05-.16,0h-.06a.31.31,0,0,1-.27-.33v-.63H186v.63a.31.31,0,0,1-.27.33Z" fill="#fff"/><path d="M187.67,193.18a.79.79,0,0,1,.43-.43.79.79,0,0,1,.32-.06.8.8,0,0,1,.75.49.81.81,0,0,1,.06.32.78.78,0,0,1-.06.32.81.81,0,0,1-.17.25.86.86,0,0,1-.26.17.77.77,0,0,1-.31.06.78.78,0,0,1-.32-.06.88.88,0,0,1-.27-.17.76.76,0,0,1-.24-.57A.83.83,0,0,1,187.67,193.18Z" fill="#fff"/><polygon points="79.61 93.02 95.03 93.02 93.44 69.8 79.61 93.02" fill="none"/><path d="M187.81,74.31,187.39,49a6.74,6.74,0,0,0-6.71-6.6H128.73l.13-.29a12.16,12.16,0,0,0,.87-8l-.16-5.55c0-.66-.7-16.15-20.35-16.15h-2.58c-18.47,0-25.77-3.31-28.43-5.16C74.64,4.77,71.82,0,71.82,0a41.94,41.94,0,0,0,.8,8.19A8.94,8.94,0,0,0,73,9.3a16.44,16.44,0,0,0,2.38,4.37L77.94,19a14.85,14.85,0,0,0,3.48,4.6l2,3.58c4.75,8.5,11.61,8.92,18.87,9.37a69.7,69.7,0,0,1,8.32.86,7.31,7.31,0,0,1,4.71,2.78l1.6,2.2H101.24a9.12,9.12,0,0,0-7.93,4.52C92,49,50.4,118.07,50,118.77c-2.7,4.67-5.55,6.68-9.52,6.77l-2.13,0L38,127.69l-.85,6-.4,2.85H74.2l.34-2.11,1-6,.46-2.9H73c-7.66,0-7.66-1.17-7.66-2.94,0-3,2.44-8.69,7.65-17.81H96l.07.78c1,10.08,1.27,13.48,1.27,15.46,0,4,0,4.51-7.66,4.51H87.59l-.34,2.1-1,6-.46,2.9h71V125.73l-2.31-.18c-4.2-.33-6.14-.83-6.9-1.78-.93-1.17-1.12-4-1.12-8.31l.1-20.17c10.74.6,11.86,5.3,12.8,13.21l.26,2.2h10.24V67.5H159.67l-.26,2.2c-.95,7.9-2.06,12.61-12.79,13.21V66c0-1,0-2.09,0-3.14,0-2.65,0-5.39.08-7.23a1,1,0,0,1,.79-.31h2.45c19.5,0,24.13,6.28,26.65,19.49l.39,2h10.9ZM79.61,93,93.44,69.8,95,93Z" fill="#fff"/><path d="M111.05,34.91c-11.34-2-19.85,1-25.45-9,12.57,8.24,26.49,0,31.74,12.76A9.85,9.85,0,0,0,111.05,34.91Z" fill="#eb0029"/><path d="M126.59,41h-5.84a10.07,10.07,0,0,0-3.85-8.77l0,0C109,24.59,86.4,30.66,80.19,17.87c7.49,7.17,32.72,2,42.79,10.36C127.84,32.28,128.46,36.92,126.59,41Z" fill="#eb0029"/><path d="M108.73,14.87c15.56-.22,18.23,10.07,18.34,13.72C119.51,14,81.43,27.35,75,7.42,75,7.42,80.23,15.27,108.73,14.87Z" fill="#eb0029"/><path d="M115.07,55.24c.07.93,2.38,41.07,3.39,58.61,1.66-.06,3.33-.17,5-.13l.26-4.81-.25,4.44,0,.37c-.82,0-1.91-.12-2.73-.09.52-15.37,1.88-47.31,2.23-57.28a1.5,1.5,0,0,0-1.5-1.55h-3.11s1.66-.92,3.13-1.78a8.84,8.84,0,0,0,3.23-3.2c1.24-2.15,2.52-5,2.52-5H104.46C107.48,44.85,114.68,50.4,115.07,55.24Z" fill="#b1aecc"/><path d="M184.89,49a4.21,4.21,0,0,0-4.21-4.14H137.57a9.59,9.59,0,0,0-4.75,1.86c-3,2-5.8,5.21-6,8.24-.08.78-2,34.7-3.12,54l-.26,4.81c-1.66,0-3.32.07-5,.13-1-17.54-3.32-57.68-3.39-58.61-.39-4.84-7.59-10.39-10.61-10.39h-3.21a6.62,6.62,0,0,0-5.79,3.32c-1.3,2.13-43.33,71.89-43.33,71.89-2.66,4.59-6,7.86-11.61,8l-.85,6h32.4l1-6c-7.74,0-10.16-1.21-10.16-5.44,0-3.63,2.54-9.67,8.71-20.31H98.31c1.21,12.82,1.57,16.44,1.57,18.74,0,6-1.81,7-10.16,7l-1,6h65.58v-6c-9.31-.73-10.33-2.3-10.33-12.57l.11-22.73c15,0,16.69,6.41,17.77,15.48h5.52V70h-5.52c-1.09,9.07-2.78,15.48-17.77,15.48V66c0-3.72-.11-7.87.07-10.54a3.1,3.1,0,0,1,3.28-2.64h2.45c19.87,0,26.2,6.29,29.1,21.52h6.29ZM75.21,95.51l18.44-31c.6-1.09.85-1.33,1.21-1.33s.6.36.73,1.33l2.12,31Z" fill="#022169"/><path d="M121.46,53c-1.47.86-3.13,1.78-3.13,1.78h3.11a1.5,1.5,0,0,1,1.5,1.55c-.35,10-1.72,41.91-2.23,57.28.82,0,1.91.07,2.73.09l0-.37.25-4.44c1.1-19.26,3-53.18,3.12-54,.18-3,3-6.26,6-8.24a9.59,9.59,0,0,1,4.75-1.86H127.21s-1.28,2.81-2.52,5A8.84,8.84,0,0,1,121.46,53Z" fill="#fff"/><polygon points="120.89 128.02 117.31 116.98 105.69 116.98 115.09 110.15 111.5 99.11 120.89 105.93 130.28 99.11 126.7 110.15 136.09 116.98 124.48 116.98 120.89 128.02" fill="#fff"/></svg>