<?xml version="1.0" encoding="UTF-8"?>
<svg id="Layer_1" data-name="Layer 1" xmlns="http://www.w3.org/2000/svg" viewBox="0 0 672.18 68.03">
  <defs>
    <style>
      .cls-1 {
        fill: #9e9e9e;
      }

      .cls-1, .cls-2 {
        stroke-width: 0px;
      }

      .cls-2 {
        fill: #00205c;
      }
    </style>
  </defs>
  <g>
    <path class="cls-2" d="M384.31,22.53c0-6.75-2.76-11.14-7.07-13.82-4.72-2.93-11.3-3.9-18.29-3.9h-78.97c4.14,2.83,6.94,6.73,8.21,11.3h13.77v47.56h12.93V16.11h25.61v47.56h12.93v-23.25h5.77l14.88,23.25h14.88l-16.59-24.88c7.8-2.52,11.95-8.7,11.95-16.26ZM368.05,29.37c-1.95.97-4.63,1.38-8.13,1.38h-6.5v-14.64h4.96c4.47,0,7.64.49,9.68,1.55,2.36,1.22,3.33,3.01,3.33,5.77s-1.14,4.8-3.33,5.94Z"/>
    <path class="cls-2" d="M414.31,4.81l-23.9,58.87h13.25l4.8-12.36h23.74l4.72,12.36h13.82l-23.9-58.87h-12.52ZM412.44,41.15l2.36-6.26c1.87-4.96,3.98-10.81,5.53-15.29h.16c1.55,4.47,3.66,10.33,5.37,14.96l2.44,6.59h-15.85Z"/>
    <path class="cls-2" d="M463.91,34.16c0-10.65,7.8-18.62,19.19-18.62,6.02,0,11.95,2.2,16.26,5.12V7.57c-4.63-2.28-10.41-3.66-16.34-3.66-18.94,0-32.04,13.33-32.04,30.41s13.09,30.25,32.04,30.25c5.85,0,12.2-1.22,17.24-3.9v-13.17c-4.88,3.33-10.57,5.45-16.67,5.45-12.11,0-19.68-8.29-19.68-18.78Z"/>
    <polygon class="cls-2" points="585.37 43.95 572.44 43.95 572.44 63.68 598.67 63.68 609.68 63.68 609.68 52.37 585.37 52.37 585.37 43.95"/>
    <polygon class="cls-2" points="585.37 16.11 608.79 16.11 608.79 5 572.44 5 572.44 24.91 585.37 24.91 585.37 16.11"/>
    <path class="cls-2" d="M649.93,37.7c7.81-2.52,11.95-7.6,11.95-15.16,0-6.75-2.77-11.14-7.07-13.82-4.72-2.93-11.3-3.9-18.29-3.9h-18.46v58.87h12.93v-24.35h5.77l14.88,24.35h14.88l-16.59-25.98ZM645.62,28.27c-1.95.97-4.63,1.38-8.13,1.38h-6.5v-13.54h4.96c4.47,0,7.64.49,9.68,1.55,2.36,1.22,3.33,1.91,3.33,4.68s-1.14,4.8-3.33,5.94Z"/>
    <polygon class="cls-2" points="556.39 5 542.09 5 521.8 32.49 521.8 5 520.37 5 520.37 4.81 508.87 4.81 508.87 63.68 521.8 63.68 521.8 36.57 542.19 63.68 556.58 63.68 534.63 34.49 556.39 5"/>
  </g>
  <g>
    <polygon class="cls-1" points="585.37 28.48 572.44 28.48 566.66 28.48 564.59 28.48 564.59 5 564.59 5 542.66 34.7 564.46 63.68 564.59 63.68 564.59 40.37 565.27 40.37 565.28 40.37 565.29 40.37 572.44 40.37 585.37 40.37 608.69 40.37 608.69 28.48 585.37 28.48"/>
    <path class="cls-1" d="M33.39,40.02h14.96v16.5c-3.82,2.2-8.86,3.5-14.15,3.5-15.77,0-25.77-11.63-25.77-25.77s10.24-25.69,25.69-25.69c6.83,0,12.93,2.28,17.48,5.61v-5.69c-4.63-2.68-10.49-4.55-17.32-4.55C15.91,3.92,3.47,17.25,3.47,34.32s12.77,30.25,30.33,30.25c7.24,0,14.39-2.2,19.51-5.53v-23.58h-19.92v4.55Z"/>
    <path class="cls-1" d="M99.41,33.43c3.74-2.68,6.18-7.07,6.18-12.44,0-5.85-2.85-10.08-6.83-12.68-4.15-2.68-9.43-3.5-16.26-3.5h-15.77v58.87h4.96v-26.34h12.68l19.19,26.34h6.02l-19.68-26.75c3.66-.57,6.83-1.55,9.51-3.5ZM84.04,33.1h-12.36V9.36h10.49c6.58,0,10.49.57,13.66,2.68,2.93,1.95,4.8,4.88,4.8,9.19,0,3.5-1.22,6.34-3.74,8.46-2.85,2.36-6.75,3.41-12.85,3.41Z"/>
    <path class="cls-1" d="M144.86,3.92c-16.91,0-29.68,13.33-29.68,30.33s12.77,30.33,29.68,30.33,29.68-13.33,29.68-30.33-12.77-30.33-29.68-30.33ZM144.86,59.94c-14.31,0-24.72-11.38-24.72-25.69s10.41-25.69,24.72-25.69,24.72,11.38,24.72,25.69-10.41,25.69-24.72,25.69Z"/>
    <path class="cls-1" d="M225.76,35.46c0,8.05-.65,13.58-3.17,17.56-2.6,4.15-7.4,6.91-14.64,6.91s-11.46-2.6-13.98-5.85c-3.09-3.98-4.07-9.92-4.07-18.78V4.81h-4.96v30.9c0,9.43,1.06,16.34,5.12,21.47,3.74,4.72,9.51,7.4,17.64,7.4,8.7,0,15.04-3.09,18.7-8.54,3.33-5.04,4.15-11.38,4.15-20.81V4.81h-4.8v30.65Z"/>
    <path class="cls-1" d="M277.06,8.55c-4.08-2.69-9.13-3.63-16.07-3.72-.39,0-.76-.02-1.17-.02h-15.37v58.87h4.96v-24.55h9.51c4.13,0,7.7-.22,10.79-.84,2.93-.58,5.44-1.52,7.58-2.99,4.23-2.85,6.91-7.48,6.91-13.42,0-2.13-.35-4.05-.99-5.77-1.18-3.2-3.36-5.71-6.16-7.56ZM274.38,31.64c-2.2,1.53-4.76,2.5-9.44,2.89-1.56.13-3.35.2-5.44.2h-10.08V9.36h10.08c.51,0,1.01,0,1.49.01,5.96.1,9.82.8,12.98,2.83,1.57,1.01,2.86,2.3,3.76,3.9.92,1.63,1.44,3.6,1.44,5.94,0,4.23-1.79,7.48-4.8,9.59Z"/>
  </g>
</svg>