<?xml version="1.0" encoding="UTF-8"?>
<svg id="Layer_1" data-name="Layer 1" xmlns="http://www.w3.org/2000/svg" viewBox="0 0 750 175">
  <defs>
    <style>
      .cls-1 {
        fill: #9e9e9e;
      }

      .cls-1, .cls-2 {
        stroke-width: 0px;
      }

      .cls-2 {
        fill: #00205c;
      }
    </style>
  </defs>
  <g>
    <path class="cls-2" d="M228.31,47.95h19.87v21.92c-5.08,2.92-11.77,4.64-18.79,4.64-20.95,0-34.23-15.44-34.23-34.23s13.61-34.12,34.12-34.12c9.07,0,17.17,3.02,23.22,7.45v-7.56c-6.15-3.56-13.93-6.05-23-6.05-24.4,0-40.92,17.71-40.92,40.39s16.95,40.17,40.28,40.17c9.61,0,19.11-2.92,25.92-7.34v-31.32h-26.46v6.05Z"/>
    <path class="cls-2" d="M315.99,38.01c4.97-3.56,8.21-9.4,8.21-16.52,0-7.77-3.78-13.39-9.07-16.84-5.51-3.56-12.53-4.64-21.6-4.64h-20.95v78.18h6.59v-34.99h16.84l25.48,34.99h7.99l-26.13-35.53c4.86-.76,9.07-2.05,12.63-4.64ZM295.58,37.58h-16.41V6.05h13.93c8.75,0,13.93.76,18.14,3.56,3.89,2.59,6.37,6.48,6.37,12.2,0,4.64-1.62,8.42-4.97,11.23-3.78,3.13-8.96,4.53-17.06,4.53Z"/>
    <path class="cls-2" d="M376.35,0c-22.46,0-39.42,17.71-39.42,40.28s16.95,40.28,39.42,40.28,39.41-17.71,39.41-40.28S398.81,0,376.35,0ZM376.35,74.4c-19.01,0-32.83-15.12-32.83-34.12s13.82-34.12,32.83-34.12,32.83,15.12,32.83,34.12-13.82,34.12-32.83,34.12Z"/>
    <path class="cls-2" d="M483.79,40.71c0,10.69-.86,18.03-4.21,23.32-3.46,5.51-9.83,9.18-19.44,9.18s-15.22-3.46-18.57-7.77c-4.1-5.29-5.4-13.17-5.4-24.94V0h-6.59v41.03c0,12.53,1.4,21.7,6.8,28.51,4.97,6.26,12.63,9.83,23.43,9.83,11.56,0,19.98-4.1,24.84-11.34,4.43-6.69,5.51-15.12,5.51-27.64V0h-6.37v40.71Z"/>
    <path class="cls-2" d="M551.93,4.97c-5.42-3.58-12.13-4.82-21.34-4.94-.52,0-1.01-.02-1.55-.02h-20.41v78.18h6.59v-32.61h12.63c5.49,0,10.23-.29,14.34-1.11,3.9-.78,7.23-2.02,10.07-3.96,5.62-3.78,9.18-9.93,9.18-17.82,0-2.83-.47-5.38-1.32-7.67-1.57-4.25-4.46-7.58-8.19-10.04ZM548.36,35.63c-2.92,2.03-6.32,3.32-12.53,3.84-2.07.17-4.45.26-7.23.26h-13.39V6.05h13.39c.68,0,1.34,0,1.98.02,7.92.13,13.05,1.07,17.24,3.76,2.09,1.34,3.8,3.05,5,5.18,1.22,2.17,1.91,4.78,1.91,7.88,0,5.61-2.38,9.94-6.37,12.74Z"/>
  </g>
  <g>
    <path class="cls-1" d="M256.89,119.17c0-8.96-3.67-14.79-9.39-18.36-6.26-3.89-15.01-5.18-24.3-5.18h-104.89v15.01h29.19v63.17h17.17v-63.17h34.01v63.17h17.17v-30.88h7.67l19.76,30.88h19.76l-22.03-33.04c10.37-3.35,15.87-11.56,15.87-21.6ZM235.3,128.24c-2.59,1.29-6.15,1.83-10.8,1.83h-8.64v-19.44h6.59c5.94,0,10.15.65,12.85,2.05,3.13,1.62,4.43,3.99,4.43,7.67s-1.51,6.37-4.43,7.88Z"/>
    <path class="cls-1" d="M296.74,95.63l-31.75,78.18h17.6l6.37-16.41h31.53l6.26,16.41h18.36l-31.75-78.18h-16.63ZM294.25,143.9l3.13-8.31c2.48-6.59,5.29-14.36,7.34-20.3h.22c2.05,5.94,4.86,13.71,7.13,19.87l3.24,8.75h-21.06Z"/>
    <path class="cls-1" d="M362.6,134.61c0-14.15,10.37-24.73,25.48-24.73,7.99,0,15.87,2.92,21.6,6.8v-17.38c-6.16-3.02-13.82-4.86-21.7-4.86-25.16,0-42.55,17.71-42.55,40.39s17.39,40.17,42.55,40.17c7.77,0,16.2-1.62,22.89-5.18v-17.49c-6.48,4.43-14.04,7.23-22.14,7.23-16.09,0-26.13-11.01-26.13-24.94Z"/>
    <polygon class="cls-1" points="523.92 147.61 506.75 147.61 506.75 173.81 541.58 173.81 556.2 173.81 556.2 158.8 523.92 158.8 523.92 147.61"/>
    <polygon class="cls-1" points="523.92 110.64 555.02 110.64 555.02 95.89 506.75 95.89 506.75 122.32 523.92 122.32 523.92 110.64"/>
    <path class="cls-1" d="M609.65,139.31c10.37-3.35,15.87-10.1,15.87-20.14,0-8.96-3.67-14.79-9.4-18.36-6.26-3.89-15.01-5.18-24.3-5.18h-24.51v78.18h17.17v-32.34h7.67l19.76,32.34h19.76l-22.03-34.5ZM603.93,126.79c-2.59,1.29-6.15,1.83-10.8,1.83h-8.64v-17.98h6.59c5.94,0,10.15.65,12.85,2.05,3.13,1.62,4.43,2.54,4.43,6.21s-1.51,6.37-4.43,7.88Z"/>
    <polygon class="cls-1" points="485.43 95.89 466.44 95.89 439.49 132.4 439.49 95.89 437.59 95.89 437.59 95.63 422.32 95.63 422.32 173.81 439.49 173.81 439.49 137.81 466.57 173.81 485.69 173.81 456.53 135.04 485.43 95.89"/>
    <polygon class="cls-2" points="523.92 127.07 506.75 127.07 499.07 127.07 496.33 127.07 496.33 95.89 496.31 95.89 467.2 135.33 496.14 173.81 496.33 173.81 496.33 142.86 497.22 142.86 497.23 142.86 497.25 142.86 506.75 142.86 523.92 142.86 554.88 142.86 554.88 127.07 523.92 127.07"/>
  </g>
</svg>