<?xml version="1.0" encoding="iso-8859-1"?>
<!-- Generator: Adobe Illustrator 19.1.0, SVG Export Plug-In . SVG Version: 6.00 Build 0)  -->
<svg version="1.1" baseProfile="tiny" id="Layer_1" xmlns="http://www.w3.org/2000/svg" xmlns:xlink="http://www.w3.org/1999/xlink"
	 x="0px" y="0px" viewBox="0 0 238.6 74.2" xml:space="preserve">
<g>
	<path d="M15,40H9.6v13.1H1.2V9.3h13.8c3,0,5.5,2.4,5.5,5.5v19.8C20.6,37.8,18,40,15,40z M12.2,18.7c0-0.6-0.5-1.1-1.1-1.1H9.6v15.2
		h1.6c0.5,0,1-0.4,1-1V18.7z"/>
	<path d="M33.7,24.4c-2.4,0-3.7,1.9-3.7,4.2v24.5h-7.8V18.1H30v2.4c0.4-1.3,1.6-2.4,2.7-2.4h1.9v6.3H33.7z"/>
	<path d="M47.3,53.1H40c-2.4,0-4.6-1.6-4.6-4.1V22.7c0-2.6,2-4.6,4.6-4.6h7.3c2.6,0,4.6,2,4.6,4.6v15.2h-9.1v7.6
		c0,0.4,0.2,0.6,0.5,0.6h0.5c0.4,0,0.6-0.2,0.6-0.6v-6H52V49C52,51.5,49.7,53.1,47.3,53.1z M44.5,25.8c0-0.4-0.3-0.7-0.7-0.7h-0.3
		c-0.4,0-0.7,0.3-0.7,0.7v5.7h1.6V25.8z"/>
	<path d="M72.5,53.1V24.9c0-0.5,0-0.6-0.6-0.7h-1.2v28.9h-7.4v-28c0-0.6,0-0.8-0.6-0.8h-1.1v28.9h-7.4V18.1h10.5
		c1.3,0,2,0.7,2.5,1.5v-1.5h7.9c2.5,0,4.8,2.2,4.8,4.9v30.2H72.5z"/>
	<path d="M82.2,16.7V9.3h7.4v7.5H82.2z M89.6,53.1h-7.4V18.1h7.5L89.6,53.1z"/>
	<path d="M97,53.1c-2.8,0-5.2-2.2-5.2-5V18.1h7.5v27.8c0,0.5,0,1,0.6,1h1.1V18.1h7.4v35.1H97z"/>
	<path d="M128.9,53.1V24.9c0-0.5,0-0.6-0.6-0.7h-1.2v28.9h-7.4v-28c0-0.6,0-0.8-0.6-0.8H118v28.9h-7.4V18.1h10.5
		c1.3,0,2,0.7,2.5,1.5v-1.5h7.9c2.5,0,4.8,2.2,4.8,4.9v30.2H128.9z"/>
	<path d="M161.8,53.1h-1.5v3H155v-3h-7V37.9h8.3v6.9h2.7v-9.5h-11V14.7c0-3,2.4-5.4,5.5-5.4h1.5V6.1h5.3v3.2h7v15H159v-6.8h-2.7V27
		h11v20.6C167.3,50.6,164.8,53.1,161.8,53.1z"/>
	<path d="M173.8,53.1c-2.8,0-4.9-2.6-4.9-5.1V36.5c0-2.7,2.4-4.9,5.2-4.9l3.9-0.1v-4.3c0-0.4-0.2-0.8-0.8-0.8h-0.8V30h-6.1V18.1h10
		c2.8,0,5.2,3.4,5.2,6.2v28.8H173.8z M178.1,37.8H177c-0.6,0.1-0.6,0.5-0.6,1V46h1.7V37.8z"/>
	<path d="M200.1,53.1h-8.3c-2.8-5.2-4.3-7.1-4.3-15.5V18.1h7.3v21.7c0,2.6,0.3,5.2,1.2,6.2c0.8-1,1-3.5,1-6.1V18.1h7.4v19.5
		C204.4,45.9,203.5,47.7,200.1,53.1z"/>
	<path d="M218.5,53.1h-7.3c-2.4,0-4.6-1.6-4.6-4.1V22.7c0-2.6,2-4.6,4.6-4.6h7.3c2.6,0,4.6,2,4.6,4.6v15.2H214v7.6
		c0,0.4,0.2,0.6,0.5,0.6h0.5c0.4,0,0.6-0.2,0.6-0.6v-6h7.5V49C223.1,51.5,220.9,53.1,218.5,53.1z M215.6,25.8c0-0.4-0.3-0.7-0.7-0.7
		h-0.3c-0.4,0-0.7,0.3-0.7,0.7v5.7h1.6V25.8z"/>
	<path d="M236.9,24.4c-2.4,0-3.7,1.9-3.7,4.2v24.5h-7.8V18.1h7.8v2.4c0.4-1.3,1.6-2.4,2.7-2.4h1.9v6.3H236.9z"/>
</g>
<g>
	<path d="M116.8,0.6V3h-2.1v10.7h-2.6V3h-2V0.6H116.8z"/>
	<path d="M120.5,0.6v5.1h2.6V0.6h2.6v13.1h-2.6V8.1h-2.6v5.5h-2.6V0.6H120.5z"/>
	<path d="M132.8,0.6V3h-2.6v2.9h2.3v2.4h-2.3v3h2.7v2.4h-5.3V0.6H132.8z"/>
</g>
<g>
	<path d="M9.7,66v1c0,2.8-0.7,6.5-4.4,6.5s-4.8-3.8-4.8-6.7c0-3,1-6.9,4.8-6.9c2.1,0,3.4,1.3,4,3.1l-2.6,1c-0.1-0.7-0.3-1.7-1.4-1.7
		c-1.8-0.1-2,3.2-2,4.4c0,1.4,0.1,4.4,2.1,4.4c1.4,0,1.6-1.8,1.6-2.7H5.3V66H9.7z"/>
	<path d="M11,73.3V60.1h2.7c1.7,0,4.8,0.2,4.8,3.8c0,1.5-0.6,2.7-1.9,3.4l2.4,6h-2.8l-2.4-6.1h0v6.1H11z M13.7,65.8l0.5,0
		c1.2,0,1.7-0.8,1.7-1.9c0-0.9-0.5-1.7-1.8-1.6h-0.4V65.8z"/>
	<path d="M29.2,66.7c0,5-2.4,6.8-4.8,6.8c-2.4,0-4.8-1.9-4.8-6.8s2.4-6.8,4.8-6.8C26.8,59.9,29.2,61.8,29.2,66.7z M24.4,71.1
		c1.8,0,1.9-3.3,1.9-4.4c0-1.2-0.1-4.4-1.9-4.4c-1.8,0-1.9,3.2-1.9,4.4C22.5,67.8,22.6,71.1,24.4,71.1z"/>
	<path d="M33.1,60.1v8.5c0,1-0.1,2.5,1.3,2.5c1.3,0,1.3-1,1.3-1.9v-9.1h2.7v9.6c0,1.4-0.2,3.8-4,3.8c-2.5,0-4-1.1-4-3.6v-9.8H33.1z"
		/>
	<path d="M40.2,73.3V60.1H43c0.6,0,4.6-0.4,4.6,3.9c0,2.5-1.6,3.9-4.1,3.9l-0.6,0v5.4H40.2z M42.9,65.8c1.3,0.1,2-0.4,2-1.8
		c0-0.9-0.4-1.7-1.5-1.7h-0.5V65.8z"/>
	<path d="M59,63.1c-0.5-0.5-1.2-0.8-1.9-0.8c-0.8,0-1.4,0.5-1.4,1.3c0,2.2,4.1,2.3,4.1,5.9c0,2.3-1.4,4.1-3.9,4.1
		c-0.8,0-1.7-0.2-2.3-0.7v-2.5c0.6,0.4,1.2,0.7,2,0.7c0.9,0,1.5-0.6,1.5-1.4c0-1-0.8-1.4-1.6-1.9c-1.5-1-2.5-2-2.5-3.9
		c0-2.1,1.2-3.9,3.5-3.9c0.9,0,1.6,0.2,2.4,0.6V63.1z"/>
	<path d="M63.7,60.1v8.5c0,1-0.1,2.5,1.3,2.5c1.3,0,1.3-1,1.3-1.9v-9.1H69v9.6c0,1.4-0.2,3.8-4,3.8c-2.5,0-4-1.1-4-3.6v-9.8H63.7z"
		/>
	<path d="M70.8,73.3V60.1h2.8c0.6,0,4.6-0.4,4.6,3.9c0,2.5-1.6,3.9-4.1,3.9l-0.6,0v5.4H70.8z M73.5,65.8c1.3,0.1,2-0.4,2-1.8
		c0-0.9-0.4-1.7-1.5-1.7h-0.5V65.8z"/>
	<path d="M79.3,73.3V60.1h2.8c0.6,0,4.6-0.4,4.6,3.9c0,2.5-1.6,3.9-4.1,3.9l-0.6,0v5.4H79.3z M82,65.8c1.3,0.1,2-0.4,2-1.8
		c0-0.9-0.4-1.7-1.5-1.7H82V65.8z"/>
	<path d="M90.5,60.1v10.7h2.8v2.5h-5.5V60.1H90.5z"/>
	<path d="M99.8,60.1v2.5H97v2.9h2.4v2.5H97v3h2.8v2.5h-5.4V60.1H99.8z"/>
	<path d="M105.5,60.1l1.3,7.8h0l1.1-7.8h3.6l1.4,13.2h-2.8l-0.6-9.5h0l-0.4,3.3l-1.2,6.2h-2.1l-1.3-6.3l-0.5-2.9v-0.2h0l-0.4,9.5
		h-2.9l1.2-13.2H105.5z"/>
	<path d="M119.6,60.1v2.5h-2.7v2.9h2.4v2.5h-2.4v3h2.8v2.5h-5.4V60.1H119.6z"/>
	<path d="M123.7,60.1l3.4,8l0,0c-0.2-0.6-0.2-1.3-0.2-2v-5.9h2.7v13.2H127l-3.3-8l0,0l0.1,1.3l0,0.5v6.1h-2.7V60.1H123.7z"/>
	<path d="M137.5,60.1v2.5h-2.1v10.7h-2.7V62.6h-2.1v-2.5H137.5z"/>
	<path d="M143.1,60.1l3.3,13.2h-2.9l-0.5-2.2h-2.7l-0.5,2.2h-2.7l3.2-13.2H143.1z M141.9,65.5l-0.3-2h0l-0.3,2l-0.6,3.5h1.9
		L141.9,65.5z"/>
	<path d="M150,60.1v10.7h2.8v2.5h-5.5V60.1H150z"/>
	<path d="M161.1,60.1v13.2h-2.7V60.1H161.1z"/>
	<path d="M165.5,60.1l3.4,8l0,0c-0.2-0.6-0.2-1.3-0.2-2v-5.9h2.7v13.2h-2.5l-3.3-8l0,0l0.1,1.3l0,0.5v6.1h-2.7V60.1H165.5z"/>
	<path d="M178.6,63.1c-0.5-0.5-1.2-0.8-1.9-0.8c-0.8,0-1.4,0.5-1.4,1.3c0,2.2,4.1,2.3,4.1,5.9c0,2.3-1.4,4.1-3.9,4.1
		c-0.8,0-1.7-0.2-2.3-0.7v-2.5c0.6,0.4,1.2,0.7,2,0.7c0.9,0,1.5-0.6,1.5-1.4c0-1-0.8-1.4-1.6-1.9c-1.5-1-2.5-2-2.5-3.9
		c0-2.1,1.2-3.9,3.6-3.9c0.9,0,1.6,0.2,2.4,0.6V63.1z"/>
	<path d="M183.3,60.1v8.5c0,1-0.1,2.5,1.3,2.5c1.3,0,1.3-1,1.3-1.9v-9.1h2.7v9.6c0,1.4-0.2,3.8-4,3.8c-2.5,0-4-1.1-4-3.6v-9.8H183.3
		z"/>
	<path d="M190.4,73.3V60.1h2.7c1.7,0,4.8,0.2,4.8,3.8c0,1.5-0.6,2.7-1.9,3.4l2.4,6h-2.8l-2.4-6.1h0v6.1H190.4z M193,65.8l0.5,0
		c1.2,0,1.7-0.8,1.7-1.9c0-0.9-0.5-1.7-1.8-1.6H193V65.8z"/>
	<path d="M205.1,60.1l3.3,13.2h-2.9l-0.5-2.2h-2.7l-0.5,2.2h-2.7l3.2-13.2H205.1z M203.9,65.5l-0.3-2h0l-0.3,2l-0.6,3.5h1.9
		L203.9,65.5z"/>
	<path d="M211.9,60.1l3.4,8l0,0c-0.2-0.6-0.2-1.3-0.2-2v-5.9h2.7v13.2h-2.5l-3.3-8l0,0l0.1,1.3l0,0.5v6.1h-2.7V60.1H211.9z"/>
	<path d="M226.3,62.6c-0.3-0.1-0.7-0.1-1-0.1c-2.4,0-3.4,2.1-3.4,4.1c0,2,1,4.4,3.4,4.4c0.3,0,0.7-0.1,1-0.2v2.5
		c-0.4,0.2-0.8,0.2-1.2,0.2c-3.9,0-6-3.4-6-6.9c0-3.3,2.2-6.6,5.9-6.6c0.5,0,0.9,0.1,1.4,0.2V62.6z"/>
	<path d="M232.8,60.1v2.5h-2.7v2.9h2.4v2.5h-2.4v3h2.8v2.5h-5.4V60.1H232.8z"/>
</g>
</svg>
