<svg xmlns:xlink="http://www.w3.org/1999/xlink" xmlns="http://www.w3.org/2000/svg" viewBox="0 0 756.19 566.32"><defs><style>line,polyline{stroke:#333;fill:none}text{font-family:&apos;Roboto-Regular&apos;,&apos;Helvetica Neue&apos;,Arial,sans-serif;font-size:9.5px;text-align:center}a:hover{cursor:pointer}</style></defs><g id="Text_Lines" data-name="Text &amp; Lines"><polyline points="159 114.19 159 77.45 379.88 77.45"/><polyline points="707.54 425.17 707.54 395.87 71.32 395.87 71.32 440.86"/><line x1="379.71" y1="261.2" x2="379.71" y2="395.52"/><line x1="444.9" y1="152.48" x2="560.69" y2="152.48" stroke-dasharray="5"/><line x1="190.43" y1="426.02" x2="190.43" y2="395.52"/><line x1="325.43" y1="440.02" x2="325.43" y2="396.02"/><line x1="473.58" y1="423.02" x2="473.58" y2="396.52"/><line x1="595.15" y1="444.52" x2="595.15" y2="395.52"/><polyline points="229.43 264.53 229.43 236.53 77.93 236.53 77.93 249.53"/><line x1="154.93" y1="236.86" x2="154.93" y2="215.52"/><line x1="379.43" y1="307.36" x2="438.6" y2="307.36"/><line x1="379.71" y1="101.62" x2="379.71" y2="52.45"/><text transform="translate(319.89 230.98)">Oklahoma Domiciled Insurer<tspan x="25.69" y="10.8">Owned 100% by</tspan><tspan x="13.03" y="21.6">AmFirst Holdings, Inc.</tspan></text><text transform="translate(561.1 506.9)">Owned 100% by<tspan x="-4.36" y="10.8">AmFirst Insurance</tspan><tspan x="13.88" y="21.6">Company</tspan></text><text transform="translate(411.92 525.82)">Mississippi Domiciled Insurer<tspan x="27.7" y="10.8">Owned 100% by</tspan><tspan x="1.98" y="21.6">AmFirst Insurance Company</tspan></text><text transform="translate(455.94 334.64)">Infolockbox.com, Inc.<tspan x="11.41" y="10.8">Owned 100% by</tspan><tspan x="-14.31" y="21.6">AmFirst Insurance Company</tspan></text><text transform="translate(12.11 355.95)">Puerto Rico Domiciled Insurer<tspan x="-12.11" y="10.8">Owned 100% by AMF Holdings, Inc.</tspan></text><text transform="translate(160.01 335.93)">Puerto Rico Domiciled Company<tspan x="34.26" y="10.8">Owned 100% by</tspan><tspan x="28.4" y="21.6">AMF Holdings, Inc.</tspan></text><text transform="translate(91.16 188.47)">Puerto Rico Domiciled Company<tspan x="34.26" y="10.8">Owned 100% by</tspan><tspan x="21.61" y="21.6">AmFirst Holdings, Inc.</tspan></text><text transform="translate(260.12 525.61)">Pennsylvania Domiciled Insurer<tspan x="32.18" y="10.8">Owned 100% by</tspan><tspan x="6.46" y="21.6">AmFirst Insurance Company</tspan></text><text transform="translate(553.31 225.8)">Bahamas Domiciled Insurer<tspan x="26.2" y="10.8">Owned 75% by</tspan><tspan x="-1.94" y="21.6">AmFirst Insurance Company</tspan></text><text transform="translate(138.52 534.49)">Nevis Domiciled Insurer<tspan x="16.24" y="10.8">Owned 100% by</tspan><tspan x="-9.48" y="21.6">AmFirst Insurance Company</tspan></text><text transform="translate(4.93 529.96)">New York Domiciled Insurer <tspan x="26.13" y="10.8">Owned 100% by</tspan><tspan x="21.77" y="21.6">AmFirst Insurance</tspan><tspan x="40.01" y="32.4">Company</tspan></text><text transform="translate(672.88 520.87)">Owned 100% by<tspan x="-4.36" y="10.8">AmFirst Insurance</tspan><tspan x="13.88" y="21.6">Company</tspan></text><text transform="translate(236.29 42.33)" font-size="9" fill="#231f20" font-family="SFProText-Regular, SF Pro Text">Owned 55% by Wheaton Holdings, LLC and 45% by John J. Morgan</text></g><g id="Placeholders"><image xlink:href="https://cdn.cremadesignstudio.com/mwg/partners/holdings/amf-holdings-black.svgz" x="102.71" y="122.63" width="113.22" height="51.53"/><a target="_blank"><image xlink:href="https://cdn.cremadesignstudio.com/mwg/partners/amfirst/color.svgz" x="329.55" y="111.23" width="104.07" height="104.29"/></a><a target="_blank"><image xlink:href="https://cdn.cremadesignstudio.com/mwg/partners/npl/color.svgz" x="558.96" y="108.16" width="104.97" height="104.24"/></a><a target="_blank"><image xlink:href="https://cdn.cremadesignstudio.com/mwg/partners/lockbox/info-black.svgz" x="447.47" y="292.47" width="105.87" height="28.04"/></a><image xlink:href="https://cdn.cremadesignstudio.com/mwg/partners/holdings/amf-services-black.svgz" x="185.93" y="278.42" width="87.5" height="39.82"/><a target="_blank"><image xlink:href="https://cdn.cremadesignstudio.com/mwg/partners/amfirst-life/center-color.svgz" x="24.85" y="256.3" width="95.21" height="82.39"/></a><a target="_blank"><image xlink:href="https://cdn.cremadesignstudio.com/mwg/partners/monitor-life/color.svgz" x="16.35" y="451.12" width="96.08" height="61.83"/></a><image xlink:href="https://cdn.cremadesignstudio.com/mwg/partners/london-america/color.svgz" x="137.93" y="438.02" width="106.49" height="80"/><a target="_blank"><image xlink:href="https://cdn.cremadesignstudio.com/mwg/partners/tpm/color.svgz" x="261.17" y="449.93" width="130.06" height="59.39"/></a><image xlink:href="https://cdn.cremadesignstudio.com/mwg/partners/amfirst-specialty/color.svgz" x="427.57" y="432.75" width="92.12" height="74.27"/><image xlink:href="https://cdn.cremadesignstudio.com/mwg/partners/holdings/afic-administrators-black.svgz" x="547.3" y="453.77" width="95.92" height="37.6"/><image xlink:href="https://cdn.cremadesignstudio.com/mwg/partners/amfirst-capital/color.svgz" x="657.5" y="434.78" width="98.69" height="71.24"/><image xlink:href="https://cdn.cremadesignstudio.com/mwg/partners/amfirst-holdings/black.svgz" x="243.29" width="273.04" height="30.23"/></g></svg>