<svg xmlns:xlink="http://www.w3.org/1999/xlink" xmlns="http://www.w3.org/2000/svg" viewBox="0 0 758.28 570.85"><defs><style>line,polyline{stroke:#333;fill:none}text{font-family:&apos;Roboto-Regular&apos;,&apos;Helvetica Neue&apos;,Arial,sans-serif;font-size:9.5px;text-align:center}a:hover{cursor:pointer}</style></defs><g id="Text_Lines" data-name="Text &amp; Lines"><polyline points="158.91 114.19 158.91 77.45 379.79 77.45"/><polyline points="610.6 99.79 610.6 77.45 380.39 77.45" stroke-dasharray="5"/><polyline points="707.45 425.17 707.45 395.87 71.23 395.87 71.23 440.86"/><line x1="379.62" y1="268.51" x2="379.62" y2="395.52"/><line x1="444.81" y1="152.48" x2="560.6" y2="152.48" stroke-dasharray="5"/><line x1="207.63" y1="426.02" x2="207.63" y2="395.52"/><line x1="379.61" y1="440.02" x2="379.61" y2="396.02"/><line x1="555.74" y1="423.02" x2="555.74" y2="396.52"/><polyline points="229.34 264.53 229.34 236.53 77.84 236.53 77.84 249.53"/><line x1="154.84" y1="236.86" x2="154.84" y2="222.72"/><line x1="379.34" y1="307.36" x2="438.51" y2="307.36"/><line x1="379.62" y1="101.62" x2="379.62" y2="63.25"/><text transform="translate(319.81 230.98)">Oklahoma Domiciled Insurer<tspan x="25.69" y="10.8">Owned 100% by</tspan><tspan x="13.03" y="21.6">AmFirst Holdings, Inc.</tspan></text><text transform="translate(494.07 529.96)">Mississippi Domiciled Insurer<tspan x="27.7" y="10.8">Owned 100% by</tspan><tspan x="1.98" y="21.6">AmFirst Insurance Company</tspan></text><text transform="translate(455.86 334.64)">Infolockbox.com, Inc.<tspan x="11.41" y="10.8">Owned 100% by</tspan><tspan x="-14.31" y="21.6">AmFirst Insurance Company</tspan></text><text transform="translate(12.02 355.95)">Puerto Rico Domiciled Insurer<tspan x="-12.11" y="10.8">Owned 100% by AMF Holdings, Inc.</tspan></text><text transform="translate(159.92 335.93)">Puerto Rico Domiciled Company<tspan x="34.26" y="10.8">Owned 100% by</tspan><tspan x="28.4" y="21.6">AMF Holdings, Inc.</tspan></text><text transform="translate(91.07 186.31)">Puerto Rico Domiciled Company<tspan x="34.26" y="10.8">Owned 100% by</tspan><tspan x="21.61" y="21.6">AmFirst Holdings, Inc.</tspan></text><text transform="translate(314.23 529.96)">Pennsylvania Domiciled Insurer<tspan x="32.18" y="10.8">Owned 100% by</tspan><tspan x="6.46" y="21.6">AmFirst Insurance Company</tspan></text><text transform="translate(553.22 225.8)">Bahamas Domiciled Insurer<tspan x="-41.45" y="10.8">Owned 57.75% by AmFirst Insurance Company</tspan><tspan x="-27.85" y="21.6">Owned 17.25% by AmFirst Holdings, Inc.</tspan></text><text transform="translate(155.72 529.96)">Nevis Domiciled Insurer<tspan x="16.24" y="10.8">Owned 100% by</tspan><tspan x="-9.48" y="21.6">AmFirst Insurance Company</tspan></text><text transform="translate(4.85 529.96)">New York Domiciled Insurer <tspan x="26.13" y="10.8">Owned 100% by</tspan><tspan x=".41" y="21.6">AmFirst Insurance Company</tspan></text><text transform="translate(672.79 529.96)">Owned 100% by<tspan x="-4.36" y="10.8">AmFirst Insurance</tspan><tspan x="13.88" y="21.6">Company</tspan></text><text transform="translate(236.2 42.33)" font-size="9" fill="#231f20" font-family="SFProText-Regular, SF Pro Text">Owned 55% by Wheaton Holdings, LLC and 45% by John J. Morgan</text></g><g id="Placeholders"><image xlink:href="https://cdn.cremadesignstudio.com/mwg/partners/holdings/amf-holdings-black.svgz" x="102.63" y="122.63" width="113.22" height="51.53"/><a target="_blank"><image xlink:href="https://cdn.cremadesignstudio.com/mwg/partners/amfirst/color.svgz" x="329.46" y="111.23" width="104.07" height="104.29"/></a><a target="_blank"><image xlink:href="https://cdn.cremadesignstudio.com/mwg/partners/npl/color.svgz" x="558.87" y="108.16" width="104.97" height="104.24"/></a><a target="_blank"><image xlink:href="https://cdn.cremadesignstudio.com/mwg/partners/lockbox/info-black.svgz" x="447.38" y="292.47" width="105.87" height="28.04"/></a><image xlink:href="https://cdn.cremadesignstudio.com/mwg/partners/holdings/amf-services-black.svgz" x="185.84" y="278.42" width="87.5" height="39.82"/><a target="_blank"><image xlink:href="https://cdn.cremadesignstudio.com/mwg/partners/amfirst-life/center-color.svgz" x="24.76" y="256.3" width="95.21" height="82.39"/></a><a target="_blank"><image xlink:href="https://cdn.cremadesignstudio.com/mwg/partners/monitor-life/color.svgz" x="16.27" y="451.12" width="96.08" height="61.83"/></a><image xlink:href="https://cdn.cremadesignstudio.com/mwg/partners/london-america/color.svgz" x="154.93" y="438.02" width="106.49" height="80"/><a target="_blank"><image xlink:href="https://cdn.cremadesignstudio.com/mwg/partners/tpm/color.svgz" x="314.78" y="449.93" width="130.06" height="59.39"/></a><image xlink:href="https://cdn.cremadesignstudio.com/mwg/partners/amfirst-specialty/color.svgz" x="509.25" y="432.75" width="92.12" height="74.27"/><image xlink:href="https://cdn.cremadesignstudio.com/mwg/partners/amfirst-capital/color.svgz" x="657.41" y="434.78" width="98.69" height="71.24"/><image xlink:href="https://cdn.cremadesignstudio.com/mwg/partners/amfirst-holdings/black.svgz" x="243.2" width="273.04" height="30.23"/></g></svg>