<svg id="Layer_1" data-name="Layer 1" xmlns="http://www.w3.org/2000/svg" viewBox="0 0 502.08 654.72"><defs><style>.cls-1{fill:#00b09b;}.cls-2{fill:#00546e;}.cls-3{fill:#7dc243;}.cls-4{fill:#0064a7;}</style></defs><path class="cls-1" d="M425.76,0a24.89,24.89,0,0,0-.27,2.57q0,28.41,0,56.84v2.9H363V59.46q0-28.41,0-56.84c0-.87-.08-1.75-.12-2.62Z"/><path class="cls-2" d="M348.48,0c0,1,.06,1.92.07,2.88V62.06H286.08V0Z"/><path class="cls-3" d="M502.08,62.4H439.76v-3q0-28.52,0-57c0-.8,0-1.59-.07-2.39h62.4Z"/><path class="cls-4" d="M271.68,0c-.07.87-.2,1.73-.2,2.6q0,28.42,0,56.87v3.05H63V553.2a17.52,17.52,0,0,1-1.84.2h-59l-2.13,0V0Z"/><path class="cls-4" d="M502.08,409H466.55v26.77h34.52c0,1.77.08,3.33.09,4.89s0,3,0,4.83H466.55v27.83h35.53v9.6H456.21V399.75l.14-.16s.12-.13.18-.13l45.55-.1Z"/><path class="cls-4" d="M403.2,654.72c-.74-.25-1.46-.52-2.21-.75a14.74,14.74,0,0,1-10.81-15.16,15,15,0,0,1,11.94-14.1,14.65,14.65,0,0,1,17.95,12.56c.24,1.74.57,3.48-.26,5.35H398.05A6.23,6.23,0,0,0,403.5,648c2.85.49,5.58.33,7.81-1.91a2.76,2.76,0,0,1,1.68-.7c2.07-.08,4.13,0,6.65,0-.54,1.12-.86,2-1.33,2.75a13.52,13.52,0,0,1-7.45,5.72c-.8.28-1.59.61-2.38.91Zm10-18.25c-1.05-4-4-5.91-8.23-5.68-3.86.21-6.59,2.35-7,5.57a7.28,7.28,0,0,0,.91.11Z"/><path class="cls-4" d="M467,654.72c-.72-.27-1.44-.58-2.17-.81a14.88,14.88,0,0,1-10.61-16.2,15.06,15.06,0,0,1,15.1-13.3c11-.07,16.32,10.07,14.59,18.24H461.83a6.75,6.75,0,0,0,5.18,5.2c3,.73,5.87.59,8.3-1.71a2.9,2.9,0,0,1,1.65-.77c2.06-.09,4.13,0,6.44,0a10.45,10.45,0,0,1-.47,1.68c-1.95,3.92-5.24,6.1-9.37,7.2a10,10,0,0,0-1.24.5Zm10.11-18.32c-.84-3.78-3.77-5.76-8-5.62-3.91.12-6.74,2.29-7.27,5.62Z"/><path class="cls-4" d="M325,654.72c-.72-.27-1.44-.57-2.17-.79a14.91,14.91,0,0,1-10.66-16.39,15.12,15.12,0,0,1,15-13.14c9.27-.13,15.85,7.56,15,17.16a5.26,5.26,0,0,1-.37,1h-21.9a5.52,5.52,0,0,0,2.79,4.29c2.51,1.76,7.93,2,10.28-.58a3.07,3.07,0,0,1,2.56-1c1.89,0,3.77,0,5.94,0a11.82,11.82,0,0,1-3.79,5.75,15.41,15.41,0,0,1-6.13,3.13,12.3,12.3,0,0,0-1.26.51Zm10.11-18.33c-1.08-4-4.25-6-8.55-5.58-3.75.34-6.39,2.53-6.68,5.58Z"/><path class="cls-4" d="M209.52,654.72a17.47,17.47,0,0,1-4.75-.88,15.14,15.14,0,0,1-10.3-16.45,15.3,15.3,0,0,1,14.47-13c7.85-.24,14.18,4.54,15.76,11.9a15,15,0,0,1-10.8,17.77,18.79,18.79,0,0,1-4.38.62Zm-8.05-15.22c0,4.94,3.64,8.72,8.3,8.7a8.43,8.43,0,0,0,8.22-8.79,8.27,8.27,0,1,0-16.52.09Z"/><path class="cls-4" d="M85.92,654.72c-.11-.11-.2-.29-.32-.32-5-1.11-7.18-4.72-7.83-9.42a63.09,63.09,0,0,1-.4-7.41c-.06-4.06,0-8.12,0-12.36h6.91c.06.57.17,1.18.18,1.78,0,4.32,0,8.63,0,12.94a21.06,21.06,0,0,0,.42,4c.63,3,2,4.13,4.65,4.23,2.93.11,5.21-1.26,6-3.78a12.79,12.79,0,0,0,.53-3.53c.07-4.48.06-8.95.08-13.42,0-.71.06-1.41.1-2.27H103v28.6H96.8l-.36-1.89-5.24,2.81Z"/><path class="cls-4" d="M197.5,381H142.41c19.76-28,39.31-55.7,59.08-83.73-1.36,0-2.28,0-3.2,0-25.13,1.22-47.57-5.92-66.88-22.11-17.75-14.88-28.66-34-33-56.68s-2.16-44.68,7.47-65.64C119,124.33,141.17,106.38,171.52,99c25.26-6.14,50.12-4.12,73.76,7,28.48,13.46,46.52,35.76,54.19,66.37.15.59.33,1.18.58,2.07,1.15-4.62,2.09-8.93,3.31-13.16,4-13.71,10.35-26.12,20.06-36.7,11.08-12.06,24.76-19.79,40.39-24.27,13.51-3.87,27.34-4.9,41.32-4.42a116.2,116.2,0,0,1,35.71,6.51c26.16,9.47,43.42,27.7,52.58,53.79a117,117,0,0,1,6.3,30.68c.42,6.05.66,12.13.68,18.21q.12,32.28,0,64.56c0,8.07-.16,16.16-.79,24.2-1.21,15.41-4.57,30.33-11.37,44.33-10.68,22-28,36.13-51.39,42.87a122,122,0,0,1-30.76,4.48c-13.91.37-27.64-.72-41.09-4.48-15.81-4.41-29.7-12.11-40.94-24.25-10.1-10.9-16.58-23.81-20.65-38a130.81,130.81,0,0,1-4.92-29.26c-.27-5.19-.45-10.39-.47-15.58-.06-15.28,0-30.56,0-46.21a7.11,7.11,0,0,0-.81,1.22,139.61,139.61,0,0,1-16.08,31.81c-8.42,12.75-17.12,25.31-25.86,37.83Q227.17,338.89,198.92,379C198.46,379.66,198,380.3,197.5,381ZM453.63,240.57h.18c0-8.72.08-17.44,0-26.15-.1-7.59-.23-15.19-.7-22.76a83.93,83.93,0,0,0-4.37-22c-5.75-16.86-17.26-27-34.92-30.06a88.51,88.51,0,0,0-28.41-.22A43.5,43.5,0,0,0,364.33,148c-6.66,5.28-11,12.19-13.89,20-4.1,11-5.64,22.48-5.74,34.11-.19,22.39-.06,44.78-.11,67.17a182.13,182.13,0,0,0,1,22,91.54,91.54,0,0,0,5.31,22.55c5.57,14.21,15.33,23.84,30.44,27.27a84.48,84.48,0,0,0,37.34,0c12.31-2.72,21.36-9.8,26.84-21.21a68.36,68.36,0,0,0,3.31-8.21,101.64,101.64,0,0,0,4.74-30.21C453.8,267.91,453.63,254.24,453.63,240.57ZM255.24,197.71a72.78,72.78,0,0,0-1.81-15.63c-3.93-16.09-12.66-28.7-27.31-36.79a56,56,0,0,0-33.34-6.64c-21.55,2.13-36.71,13.21-44.82,33.25-6.05,15-6.3,30.45-1.44,45.81,4.67,14.76,14,25.71,28.23,32.17a57.73,57.73,0,0,0,30.92,4.59,53.75,53.75,0,0,0,32.77-15.39C250,227.66,255,213.55,255.24,197.71Z"/><path class="cls-4" d="M321.07,443.35a39.53,39.53,0,0,1-6.27,20.51c-10,15.12-24.18,21.88-42.19,20.07-13.93-1.39-25.11-7.9-32.76-19.69a42.76,42.76,0,0,1,27.66-65.35,45.88,45.88,0,0,1,33.09,5.31,34.61,34.61,0,0,1,14.95,16.37c.29.66.51,1.34.74,2,0,.13,0,.31-.09.72-3.36,0-6.77.07-10.17-.06-.56,0-1.24-.87-1.62-1.48a28.14,28.14,0,0,0-10.46-10c-18.51-10.11-45.16-1.3-50,23.1-3.84,19.49,10,37.62,29.94,39.47,11.45,1.06,21-2.79,28.85-11.14a24.89,24.89,0,0,0,5.88-10.46c-5.09,0-10,0-14.89,0h-29.6v-9.25C265.77,443,317.55,442.82,321.07,443.35Z"/><path class="cls-4" d="M94.64,482.8V399.44c.65,0,1.19-.08,1.73-.08,7.68,0,15.36-.08,23,.07,6.17.12,12.32.65,18.2,2.7,15.17,5.3,24.25,15.8,26.61,31.81a46.67,46.67,0,0,1-2.09,23.4c-4.36,11.73-13,18.86-24.7,22.66a61.43,61.43,0,0,1-18.65,2.86c-7.52.07-15,0-22.55,0C95.75,482.88,95.28,482.83,94.64,482.8ZM104.91,409V472.9c.26.14.39.27.53.27,7.83.09,15.67.38,23.45-.92,11.56-1.93,19.53-8.27,23.53-19.36a36.79,36.79,0,0,0,1.73-15.6,29.22,29.22,0,0,0-23.44-26.92C122.27,408.53,113.7,409.05,104.91,409Z"/><path class="cls-4" d="M341.79,409V482.7H331.66V399.52c.63-.06,1.24-.16,1.85-.16,6.88,0,13.76,0,20.64,0a57.74,57.74,0,0,1,17,2.39c10.83,3.41,16.79,11.18,17.08,22.55a40.59,40.59,0,0,1-.65,9.29c-1.83,8.75-7.36,14.32-15.73,17.15-1.94.65-3.95,1.08-6.19,1.69l22.39,30.14a9,9,0,0,1-1.48.29c-3.2,0-6.4,0-9.6,0a2.61,2.61,0,0,1-2.42-1.14q-13.49-18.37-27-36.72a9.91,9.91,0,0,1-.65-1.21c3.19-.09,6.13,0,9.05-.28,3.65-.34,7.28-.9,10.9-1.46a13.07,13.07,0,0,0,2.95-1,11.64,11.64,0,0,0,7.53-8.94,27.22,27.22,0,0,0,0-11.19,12.15,12.15,0,0,0-7.43-9.1,35,35,0,0,0-7.33-2.12C355.8,408.53,348.93,409.07,341.79,409Z"/><path class="cls-4" d="M183.42,435.85h34.3v9.6h-34.4V473.2h50.56v9.61H173V399.47h60.89v9.42H183.63C183.07,410.75,182.91,432.43,183.42,435.85Z"/><path class="cls-4" d="M445.23,473.22v9.55H399.05V399.5h45.77c.52,1.62.62,6,.17,9.37H409.73c-.59,1.85-.76,23.31-.26,26.89h34.35v9.65H409.71c-.59,2-.68,25.21-.13,27.81Z"/><path class="cls-4" d="M217.84,503.65,245.7,544a1.17,1.17,0,0,0,.34-.08c.06,0,.14-.09.14-.14,0-13.27,0-26.55,0-40h5.13V553.4a28.81,28.81,0,0,1-4.27-.07A3.18,3.18,0,0,1,245.3,552c-3.69-5.23-7.32-10.5-11-15.75q-8.33-12-16.66-24.06c-.4-.58-.84-1.12-1.6-2.13v43.21h-4.93c-.45-1.66-.56-46.7-.09-49.59Z"/><path class="cls-4" d="M96,503.31c6.09.22,11.9.43,17.72.67a8.65,8.65,0,0,1,1.65.29c8.32,2,12.14,9.38,9,17.37a11.41,11.41,0,0,1-4.45,5.09,8.35,8.35,0,0,0,.9.58c5.82,2.71,7.85,7.38,7.2,14-.56,5.76-3.7,9.43-9.31,10.81a37,37,0,0,1-7.32,1.13c-4.79.19-9.59.1-14.39.11a5.61,5.61,0,0,1-1-.18ZM101,548.88c4.37-.14,8.51-.2,12.64-.43a14.72,14.72,0,0,0,3.94-1,7.07,7.07,0,0,0,5.09-6.33,19.39,19.39,0,0,0-.31-5.21,6.61,6.61,0,0,0-4.53-5.14,13.71,13.71,0,0,0-3.7-.9c-3.82-.23-7.64-.31-11.47-.43a15.33,15.33,0,0,0-1.66.17Zm0-23.72c4.19-.21,8.1-.3,12-.66a7.57,7.57,0,0,0,5.46-2.68c3.64-4.63,1.18-12-4.59-13-3.59-.64-7.31-.53-11-.72a11.47,11.47,0,0,0-1.88.18Z"/><path class="cls-4" d="M362,653.71v-38.1a10.93,10.93,0,0,1,1.64-.2c4.06.1,8.16,0,12.19.41,6.37.69,10,6.2,8.61,12.45a7.61,7.61,0,0,1-3.67,4.61,7.15,7.15,0,0,0,.88.61c4.51,2.15,5.69,6,5.23,10.55-.44,4.33-2.87,7.17-6.87,8.68a11.54,11.54,0,0,1-3.69.94C371.62,653.77,366.92,653.71,362,653.71Zm7.26-6.62c2.41-.12,4.69.24,6.95-.41,2.42-.7,3.44-1.92,3.49-4.2a4.25,4.25,0,0,0-3.32-4.63c-2.32-.76-4.68-.48-7.12-.38Zm0-16.75a45.51,45.51,0,0,0,5.32-.48c2.18-.47,2.95-1.67,2.84-3.78a3.28,3.28,0,0,0-3.11-3.36,38.48,38.48,0,0,0-5.05,0Z"/><path class="cls-4" d="M17.31,615.46H23l16.06,38.27H31.15l-4-9.53H13.46q-2,4.59-4.18,9.55H1.35Zm3.12,11-.56,0c-1.2,3.43-2.4,6.87-3.71,10.59,2.78,0,5.26.13,8-.09C22.84,633.25,21.63,629.84,20.43,626.43Z"/><path class="cls-4" d="M469.8,539.48h5.37c.17.76.34,1.61.57,2.44a10.29,10.29,0,0,0,14,6.93c5.71-2.25,7.16-8.49,5.41-12.94a7.21,7.21,0,0,0-3.79-3.85c-2.1-1-4.27-1.79-6.44-2.58-1.8-.66-3.66-1.15-5.46-1.8a11.39,11.39,0,0,1-8-10.35c-.46-5.37,1.48-9.84,6.24-12.58a15.26,15.26,0,0,1,16,.05c4.23,2.43,6,6.33,6.09,11.28h-5.11c-.24-1-.4-2-.72-3-1.54-4.65-6.9-7-11.78-5.24a8.52,8.52,0,0,0-5,11,6.88,6.88,0,0,0,4.27,4.25c1.94.73,3.94,1.29,5.91,1.95s3.65,1.2,5.41,1.92A12.51,12.51,0,0,1,501,538.09a14,14,0,0,1-6.21,13.47,17.27,17.27,0,0,1-18.79-.12C472,548.56,470.06,544.54,469.8,539.48Z"/><path class="cls-4" d="M182.39,548.67v4.57H154.75V503.91c1.65-.51,21.76-.72,27.54-.25V508H160v17.85h21.68v4.45H159.82c0,6.18,0,12.12,0,18.33Z"/><path class="cls-4" d="M286.29,548.78h22.54v4.5H281.31v-49.7c9.09-.13,18.23,0,27.53-.07.06.88.12,1.58.15,2.27s0,1.27,0,2.23c-2.55.2-5,.07-7.44.09s-5.12,0-7.68,0h-7.56v17.73c2.29.22,4.66.07,7,.09s5,0,7.44,0h7.29v4.47H286.29Z"/><path class="cls-4" d="M289,653.78h-6.75V615.56h6.67c.21,3.54,0,7.16.14,11.05.61-.3.95-.43,1.26-.63,3.13-2,6.52-1.94,9.94-1.12a8.33,8.33,0,0,1,6.15,5.53,17.76,17.76,0,0,1,1.17,5.34c.16,5.75.08,11.51.08,17.26a4.55,4.55,0,0,1-.24.91h-6.81v-2.59c0-4.16,0-8.31,0-12.46a18.77,18.77,0,0,0-.54-4.49c-.62-2.36-2.1-3.41-4.51-3.57-2.57-.17-4.73.82-5.5,3a18.07,18.07,0,0,0-1,5.36c-.14,4.07-.05,8.15-.05,12.22Z"/><path class="cls-4" d="M125.47,625.11h6c.16.66.32,1.33.52,2.13a5.08,5.08,0,0,0,.81-.43c2.78-2.35,6-2.75,9.48-2.24a9.59,9.59,0,0,1,8.37,8.87c.25,2.38.27,4.78.29,7.18,0,4.31,0,8.62,0,13.12h-6.84c-.05-.59-.15-1.19-.15-1.8,0-4.15,0-8.31,0-12.46a25.53,25.53,0,0,0-.41-4.28c-.55-2.91-1.79-4.12-4.28-4.39a5.81,5.81,0,0,0-6.22,3.48,10.48,10.48,0,0,0-.64,3.51c-.09,4.47-.06,9-.08,13.42v2.55h-6.88Z"/><path class="cls-4" d="M179.12,653.79H172V615.57h19.38v6.69H179.19v9h11.62v6.93c-3.78.21-7.66-.05-11.69.15Z"/><path class="cls-4" d="M342.45,553.34h-4.72c-.52-1.7-.7-46.18-.2-49.68H363v4.39H342.56V526h19.69v4.57c-3.22,0-6.46,0-9.7,0h-10.1Z"/><path class="cls-4" d="M61.54,622.3h-7v-6.79H75.64v6.77h-6.9c-.11,3.62,0,7,0,10.42s0,7,0,10.54v10.49a48.3,48.3,0,0,1-7.14.12Z"/><path class="cls-4" d="M272.07,653.8h-7.16V622.42h-7v-6.9h21.19v6.7h-7C272,632.81,272.12,643.16,272.07,653.8Z"/><path class="cls-4" d="M436.86,553.31h-5.14V508.2H420.21v-4.55h28.15v4.48h-11.5Z"/><path class="cls-4" d="M448.39,653.8h-7.06V631.66l-3.18-.34v-6.18l3.17-.23v-9.4h6.93v9.39l4.14.23v6.16l-4,.36Z"/><path class="cls-4" d="M432.75,653.81h-6.9V631.69l-3.34-.38v-6.12l3.22-.29v-9.37h6.93v9.36l4.1.25v6.19l-4,.29Z"/><path class="cls-4" d="M394.92,553.29h-4.8V503.6h4.8Z"/><path class="cls-4" d="M115.65,653.78h-6.94V625.22H115l.36,2.08c1.73-2.16,3.73-3.24,6.45-2.73v6.21c-.15.12-.26.28-.38.3-4.56.47-5.76,3.32-5.75,6.85Z"/><path class="cls-4" d="M229.09,625.13h6l.42,2.17c1.82-1.93,3.69-3.36,6.48-2.7v6.33c-.62.15-1.3.28-1.95.47a5.05,5.05,0,0,0-3.87,4.4,21.47,21.47,0,0,0-.19,3.11c0,4.87,0,9.75,0,14.82h-6.86Z"/><path class="cls-4" d="M488.88,625.12h6c.17.53.35,1.1.58,1.84,1.71-1.52,3.44-3,6.05-2.39v6.3a1.55,1.55,0,0,1-.42.26c-3.89.84-5.26,2.44-5.33,6.44-.07,3.51,0,7,0,10.54v5.66h-6.89Z"/></svg>