<?xml version="1.0" encoding="iso-8859-1"?>
<!-- Generator: Adobe Illustrator 19.1.0, SVG Export Plug-In . SVG Version: 6.00 Build 0)  -->
<svg version="1.1" xmlns="http://www.w3.org/2000/svg" xmlns:xlink="http://www.w3.org/1999/xlink" x="0px" y="0px"
	 viewBox="0 0 376.8 98.3" style="enable-background:new 0 0 376.8 98.3;" xml:space="preserve">
<style type="text/css">
	.st0{display:none;}
	.st1{display:inline;fill:#5D5E5E;}
	.st2{fill:#001F5B;}
	.st3{fill:#808285;}
	.st4{fill:#FFFFFF;}
	.st5{fill:#9E9E9E;}
	.st6{fill:none;stroke:#8083A9;stroke-width:2.1378;stroke-miterlimit:10;}
	.st7{fill:#8285AA;}
	.st8{fill:none;stroke:#FFFFFF;stroke-width:2.1378;stroke-miterlimit:10;}
	.st9{fill:#001F5B;stroke:#FFFFFF;stroke-width:2.1378;stroke-miterlimit:10;}
</style>
<a xmlns="http://www.w3.org/2000/svg" xmlns:xlink="http://www.w3.org/1999/xlink" xlink:href="http://mwgemployerservices.com" target="_top">
<g id="logo-division">
	<path d="M110.3,38.4h14.3v4.4h-9.6V47h9.1v4.4h-9.1v4.4h10.2v4.4h-14.8V38.4z"/>
	<path d="M128.8,38.4h7l4.8,14.3h0.1l4.9-14.3h7v21.9h-4.6V43.5h-0.1l-5.5,16.8h-3.5l-5.3-16.8h-0.1v16.8h-4.6V38.4z"/>
	<path d="M156.8,38.4h7.8c1.1,0,2.1,0.1,3.1,0.3c1,0.2,1.8,0.6,2.5,1.1c0.7,0.5,1.3,1.2,1.7,2c0.4,0.9,0.6,1.9,0.6,3.2
		c0,1.3-0.2,2.3-0.6,3.2c-0.4,0.9-0.9,1.6-1.6,2.1s-1.5,0.9-2.5,1.1c-0.9,0.2-2,0.3-3.1,0.3h-3.4v8.5h-4.6V38.4z M161.4,47.7h3.1
		c0.4,0,0.8,0,1.2-0.1c0.4-0.1,0.7-0.2,1-0.4c0.3-0.2,0.6-0.5,0.7-0.8c0.2-0.3,0.3-0.8,0.3-1.3c0-0.6-0.1-1-0.4-1.3
		c-0.2-0.3-0.6-0.6-0.9-0.8s-0.8-0.3-1.3-0.4c-0.5-0.1-0.9-0.1-1.4-0.1h-2.4V47.7z"/>
	<path d="M175.6,38.4h4.6v17.4h8.6v4.4h-13.2V38.4z"/>
	<path d="M190.2,49.4c0-1.8,0.3-3.3,0.8-4.8c0.6-1.4,1.3-2.6,2.4-3.6c1-1,2.2-1.8,3.6-2.3c1.4-0.5,2.9-0.8,4.5-0.8
		c1.6,0,3.2,0.3,4.5,0.8c1.4,0.5,2.6,1.3,3.6,2.3c1,1,1.8,2.2,2.4,3.6c0.6,1.4,0.8,3,0.8,4.8c0,1.8-0.3,3.3-0.8,4.8
		s-1.3,2.6-2.4,3.6c-1,1-2.2,1.8-3.6,2.3s-2.9,0.8-4.5,0.8c-1.6,0-3.2-0.3-4.5-0.8c-1.4-0.5-2.6-1.3-3.6-2.3c-1-1-1.8-2.2-2.4-3.6
		S190.2,51.1,190.2,49.4z M195,49.4c0,1,0.2,2,0.5,2.8c0.3,0.9,0.7,1.6,1.3,2.2c0.6,0.6,1.3,1.1,2.1,1.5c0.8,0.4,1.7,0.5,2.7,0.5
		c1,0,1.9-0.2,2.7-0.5c0.8-0.4,1.5-0.8,2.1-1.5c0.6-0.6,1-1.4,1.3-2.2c0.3-0.9,0.5-1.8,0.5-2.8c0-1-0.2-1.9-0.5-2.8
		s-0.7-1.6-1.3-2.2c-0.6-0.6-1.3-1.1-2.1-1.5c-0.8-0.3-1.7-0.5-2.7-0.5c-1,0-1.9,0.2-2.7,0.5c-0.8,0.4-1.5,0.8-2.1,1.5
		c-0.6,0.6-1,1.4-1.3,2.2C195.2,47.4,195,48.4,195,49.4z"/>
	<path d="M221.2,51l-7.9-12.5h5.8l4.4,8.2l4.7-8.2h5.5L225.8,51v9.3h-4.6V51z"/>
	<path d="M235.4,38.4h14.3v4.4h-9.6V47h9.1v4.4h-9.1v4.4h10.2v4.4h-14.8V38.4z"/>
	<path d="M253.9,38.4h8.1c1.1,0,2.1,0.1,3,0.3c1,0.2,1.8,0.6,2.5,1.1c0.7,0.5,1.3,1.2,1.7,2c0.4,0.9,0.6,1.9,0.6,3.2
		c0,1.5-0.4,2.9-1.2,3.9c-0.8,1.1-1.9,1.8-3.4,2.1l5.3,9.2h-5.5l-4.4-8.7h-2.3v8.7h-4.6V38.4z M258.6,47.5h2.7c0.4,0,0.9,0,1.3,0
		c0.5,0,0.9-0.1,1.3-0.3c0.4-0.2,0.7-0.4,0.9-0.7c0.2-0.3,0.4-0.8,0.4-1.4c0-0.6-0.1-1-0.3-1.3c-0.2-0.3-0.5-0.6-0.8-0.8
		s-0.7-0.3-1.2-0.4c-0.4-0.1-0.9-0.1-1.3-0.1h-3V47.5z"/>
	<path d="M288.8,46.7c-0.7-1.1-1.7-1.6-3-1.6c-0.4,0-0.8,0.1-1.2,0.2c-0.4,0.1-0.8,0.3-1.1,0.5c-0.3,0.2-0.6,0.5-0.8,0.9
		c-0.2,0.4-0.3,0.8-0.3,1.3c0,0.7,0.2,1.3,0.6,1.7s0.9,0.7,1.5,1c0.6,0.3,1.2,0.5,1.9,0.7s1.3,0.5,1.9,0.8c0.6,0.3,1.1,0.8,1.5,1.4
		c0.4,0.6,0.6,1.3,0.6,2.3c0,0.7-0.2,1.4-0.5,2s-0.7,1.1-1.2,1.5c-0.5,0.4-1,0.7-1.7,0.9s-1.2,0.3-1.8,0.3c-1,0-1.9-0.2-2.7-0.6
		c-0.9-0.4-1.6-1-2.2-1.8l1.5-1.1c0.3,0.6,0.8,1.1,1.4,1.4s1.3,0.5,2.1,0.5c0.4,0,0.8-0.1,1.2-0.2c0.4-0.1,0.8-0.3,1.1-0.6
		s0.6-0.6,0.8-0.9s0.3-0.8,0.3-1.3c0-0.6-0.1-1-0.3-1.4c-0.2-0.4-0.5-0.7-0.9-0.9c-0.4-0.3-0.8-0.5-1.3-0.6c-0.5-0.2-1-0.3-1.5-0.5
		c-0.5-0.2-1-0.4-1.5-0.6c-0.5-0.2-0.9-0.5-1.3-0.8c-0.4-0.3-0.7-0.7-0.9-1.2s-0.3-1.1-0.3-1.9c0-0.8,0.1-1.5,0.4-2
		c0.3-0.6,0.7-1.1,1.1-1.4c0.5-0.4,1-0.7,1.6-0.8s1.2-0.3,1.9-0.3c0.9,0,1.7,0.1,2.4,0.4c0.7,0.3,1.4,0.8,2,1.5L288.8,46.7z"/>
	<path d="M295.2,58.8h8.3v1.5h-9.9V44.1h9.7v1.5h-8.1v5.5h7.6v1.5h-7.6V58.8z"/>
	<path d="M308.3,60.3h-1.6V44.1h4.8c1.6,0,2.8,0.4,3.8,1.1c0.9,0.7,1.4,1.8,1.4,3.3c0,1.1-0.3,2.1-1,2.9c-0.7,0.8-1.7,1.2-3,1.3
		l4.5,7.7h-1.9l-4.3-7.5h-2.6V60.3z M308.3,51.2h2.8c0.7,0,1.3-0.1,1.8-0.2c0.5-0.2,0.9-0.4,1.2-0.6c0.3-0.3,0.5-0.6,0.6-0.9
		s0.2-0.7,0.2-1.1c0-0.4-0.1-0.7-0.2-1.1s-0.3-0.6-0.6-0.9c-0.3-0.3-0.7-0.5-1.2-0.6c-0.5-0.1-1.1-0.2-1.8-0.2h-2.8V51.2z"/>
	<path d="M324.4,57.8L324.4,57.8l5.2-13.8h1.7l-6.1,16.2h-1.6l-5.9-16.2h1.8L324.4,57.8z"/>
	<path d="M334.9,60.3h-1.6V44.1h1.6V60.3z"/>
	<path d="M352,57.7c-0.3,0.4-0.6,0.8-1,1.2c-0.4,0.4-0.8,0.7-1.3,1c-0.5,0.3-1,0.5-1.6,0.6c-0.6,0.2-1.2,0.2-1.8,0.2
		c-1.2,0-2.2-0.2-3.2-0.6s-1.9-1-2.6-1.8c-0.7-0.8-1.3-1.7-1.7-2.7s-0.6-2.2-0.6-3.4s0.2-2.4,0.6-3.4s1-1.9,1.7-2.7
		c0.7-0.8,1.6-1.3,2.6-1.8c1-0.4,2.1-0.6,3.2-0.6c1,0,1.9,0.2,2.9,0.6c1,0.4,1.8,1.1,2.5,2l-1.4,1.1c-0.2-0.3-0.4-0.5-0.7-0.8
		c-0.3-0.3-0.6-0.5-1-0.7c-0.4-0.2-0.7-0.4-1.2-0.5c-0.4-0.1-0.8-0.2-1.2-0.2c-1,0-1.9,0.2-2.7,0.6s-1.5,0.9-2,1.5s-1,1.4-1.3,2.2
		c-0.3,0.8-0.4,1.7-0.4,2.7c0,0.9,0.1,1.8,0.4,2.7c0.3,0.8,0.7,1.6,1.3,2.2c0.6,0.6,1.2,1.2,2,1.5c0.8,0.4,1.7,0.6,2.7,0.6
		c0.4,0,0.8,0,1.2-0.1c0.4-0.1,0.8-0.2,1.2-0.4c0.4-0.2,0.8-0.4,1.1-0.7c0.3-0.3,0.7-0.7,1-1.2L352,57.7z"/>
	<path d="M356.3,58.8h8.3v1.5h-9.9V44.1h9.7v1.5h-8.1v5.5h7.6v1.5h-7.6V58.8z"/>
	<path d="M375.1,46.7c-0.7-1.1-1.7-1.6-3-1.6c-0.4,0-0.8,0.1-1.2,0.2c-0.4,0.1-0.8,0.3-1.1,0.5c-0.3,0.2-0.6,0.5-0.8,0.9
		c-0.2,0.4-0.3,0.8-0.3,1.3c0,0.7,0.2,1.3,0.6,1.7s0.9,0.7,1.5,1c0.6,0.3,1.2,0.5,1.9,0.7s1.3,0.5,1.9,0.8c0.6,0.3,1.1,0.8,1.5,1.4
		c0.4,0.6,0.6,1.3,0.6,2.3c0,0.7-0.2,1.4-0.5,2s-0.7,1.1-1.2,1.5c-0.5,0.4-1,0.7-1.7,0.9s-1.2,0.3-1.8,0.3c-1,0-1.9-0.2-2.7-0.6
		c-0.9-0.4-1.6-1-2.2-1.8l1.5-1.1c0.3,0.6,0.8,1.1,1.4,1.4s1.3,0.5,2.1,0.5c0.4,0,0.8-0.1,1.2-0.2c0.4-0.1,0.8-0.3,1.1-0.6
		s0.6-0.6,0.8-0.9s0.3-0.8,0.3-1.3c0-0.6-0.1-1-0.3-1.4c-0.2-0.4-0.5-0.7-0.9-0.9c-0.4-0.3-0.8-0.5-1.3-0.6c-0.5-0.2-1-0.3-1.5-0.5
		c-0.5-0.2-1-0.4-1.5-0.6c-0.5-0.2-0.9-0.5-1.3-0.8c-0.4-0.3-0.7-0.7-0.9-1.2s-0.3-1.1-0.3-1.9c0-0.8,0.1-1.5,0.4-2
		c0.3-0.6,0.7-1.1,1.1-1.4c0.5-0.4,1-0.7,1.6-0.8s1.2-0.3,1.9-0.3c0.9,0,1.7,0.1,2.4,0.4c0.7,0.3,1.4,0.8,2,1.5L375.1,46.7z"/>
	<path class="st3" d="M109,80.1h-1l5.6-8.7h0.9l1.8,8.7h-0.9l-0.5-2.3h-4.5L109,80.1z M110.9,77h3.8l-0.9-4.6L110.9,77z"/>
	<path class="st3" d="M120.1,77.8c0-0.5,0.1-1,0.3-1.4c0.2-0.4,0.4-0.8,0.7-1.1s0.7-0.6,1.1-0.8s0.9-0.3,1.4-0.3
		c0.4,0,0.8,0.1,1.2,0.3s0.6,0.5,0.8,0.8h0l0.8-4.5h0.8l-1.7,9.3h-0.8l0.2-1h0c-0.2,0.3-0.5,0.6-0.9,0.8s-0.8,0.3-1.3,0.3
		c-0.4,0-0.8-0.1-1.1-0.2c-0.3-0.1-0.6-0.3-0.8-0.5c-0.2-0.2-0.4-0.5-0.5-0.8S120.1,78.2,120.1,77.8z M121,77.7c0,0.3,0,0.5,0.1,0.7
		c0.1,0.2,0.2,0.4,0.4,0.6c0.2,0.2,0.3,0.3,0.6,0.4c0.2,0.1,0.5,0.1,0.8,0.1c0.4,0,0.7-0.1,1-0.2c0.3-0.1,0.6-0.4,0.8-0.6
		c0.2-0.3,0.4-0.6,0.5-0.9c0.1-0.3,0.2-0.7,0.2-1.1c0-0.3,0-0.5-0.1-0.7c-0.1-0.2-0.2-0.4-0.4-0.6s-0.4-0.3-0.6-0.4
		c-0.2-0.1-0.5-0.1-0.8-0.1c-0.4,0-0.7,0.1-1,0.2c-0.3,0.1-0.6,0.4-0.8,0.6c-0.2,0.3-0.4,0.6-0.5,0.9C121.1,77,121,77.3,121,77.7z"
		/>
	<path class="st3" d="M128.5,80.1h-0.8l1-5.8h0.8L128.5,80.1z M130,72.1c0,0.2-0.1,0.3-0.2,0.4c-0.1,0.1-0.2,0.2-0.4,0.2
		c-0.2,0-0.3,0-0.4-0.1c-0.1-0.1-0.2-0.2-0.2-0.4c0-0.2,0.1-0.3,0.2-0.4s0.3-0.2,0.4-0.2s0.3,0.1,0.4,0.2
		C130,71.8,130,71.9,130,72.1z"/>
	<path class="st3" d="M132.7,80.1h-0.9l-1.2-5.8h0.9l0.9,4.9h0l2.9-4.9h0.9L132.7,80.1z"/>
	<path class="st3" d="M137.2,80.1h-0.8l1-5.8h0.8L137.2,80.1z M138.7,72.1c0,0.2-0.1,0.3-0.2,0.4c-0.1,0.1-0.2,0.2-0.4,0.2
		c-0.2,0-0.3,0-0.4-0.1c-0.1-0.1-0.2-0.2-0.2-0.4c0-0.2,0.1-0.3,0.2-0.4s0.3-0.2,0.4-0.2s0.3,0.1,0.4,0.2
		C138.7,71.8,138.7,71.9,138.7,72.1z"/>
	<path class="st3" d="M143.2,75.6c-0.1-0.2-0.3-0.4-0.5-0.5c-0.2-0.1-0.5-0.2-0.8-0.2c-0.1,0-0.3,0-0.5,0c-0.2,0-0.3,0.1-0.4,0.2
		c-0.1,0.1-0.2,0.2-0.3,0.3c-0.1,0.1-0.1,0.3-0.1,0.4c0,0.2,0,0.3,0.1,0.4s0.1,0.2,0.2,0.3s0.2,0.1,0.4,0.2c0.1,0.1,0.3,0.1,0.5,0.2
		c0.6,0.2,1,0.4,1.3,0.6c0.3,0.3,0.4,0.6,0.4,1.1c0,0.3-0.1,0.6-0.2,0.8c-0.1,0.2-0.3,0.4-0.5,0.6s-0.5,0.2-0.7,0.3
		s-0.5,0.1-0.8,0.1c-0.5,0-0.9-0.1-1.4-0.3c-0.4-0.2-0.8-0.5-1-0.8l0.7-0.5c0.1,0.2,0.4,0.4,0.6,0.6c0.3,0.2,0.6,0.3,1,0.3
		c0.2,0,0.4,0,0.5-0.1s0.3-0.1,0.5-0.2c0.1-0.1,0.2-0.2,0.3-0.3c0.1-0.1,0.1-0.3,0.1-0.5c0-0.3-0.1-0.5-0.4-0.7
		c-0.2-0.2-0.6-0.3-1-0.5c-0.2-0.1-0.3-0.1-0.5-0.2c-0.2-0.1-0.3-0.2-0.5-0.3c-0.1-0.1-0.3-0.3-0.3-0.4c-0.1-0.2-0.1-0.4-0.1-0.6
		c0-0.3,0.1-0.6,0.2-0.8c0.1-0.2,0.3-0.4,0.5-0.5c0.2-0.1,0.4-0.2,0.7-0.3s0.5-0.1,0.8-0.1c0.4,0,0.8,0.1,1.2,0.3
		c0.3,0.2,0.6,0.4,0.8,0.7L143.2,75.6z"/>
	<path class="st3" d="M145.5,80.1h-0.8l1-5.8h0.8L145.5,80.1z M147,72.1c0,0.2-0.1,0.3-0.2,0.4c-0.1,0.1-0.2,0.2-0.4,0.2
		c-0.2,0-0.3,0-0.4-0.1c-0.1-0.1-0.2-0.2-0.2-0.4c0-0.2,0.1-0.3,0.2-0.4s0.3-0.2,0.4-0.2s0.3,0.1,0.4,0.2
		C146.9,71.8,147,71.9,147,72.1z"/>
	<path class="st3" d="M150.2,80.3c-0.4,0-0.7-0.1-1.1-0.2c-0.3-0.1-0.6-0.3-0.8-0.5c-0.2-0.2-0.4-0.5-0.5-0.8
		c-0.1-0.3-0.2-0.6-0.2-1c0-0.5,0.1-0.9,0.3-1.4c0.2-0.4,0.4-0.8,0.7-1.1s0.7-0.6,1.1-0.8c0.4-0.2,0.9-0.3,1.4-0.3
		c0.4,0,0.8,0.1,1.1,0.2c0.3,0.1,0.6,0.3,0.8,0.5c0.2,0.2,0.4,0.5,0.5,0.8s0.2,0.6,0.2,1c0,0.5-0.1,1-0.3,1.4
		c-0.2,0.4-0.4,0.8-0.7,1.1s-0.7,0.6-1.1,0.8C151.1,80.2,150.7,80.3,150.2,80.3z M152.8,76.8c0-0.3,0-0.5-0.1-0.7s-0.2-0.4-0.4-0.6
		c-0.2-0.2-0.4-0.3-0.6-0.4c-0.2-0.1-0.5-0.1-0.8-0.1c-0.4,0-0.7,0.1-1,0.2c-0.3,0.2-0.6,0.4-0.8,0.6s-0.4,0.6-0.5,0.9
		c-0.1,0.3-0.2,0.7-0.2,1.1c0,0.3,0,0.5,0.1,0.7s0.2,0.4,0.4,0.6c0.2,0.2,0.4,0.3,0.6,0.4c0.2,0.1,0.5,0.1,0.8,0.1
		c0.4,0,0.7-0.1,1-0.2s0.6-0.4,0.8-0.6c0.2-0.3,0.4-0.6,0.5-0.9S152.8,77.1,152.8,76.8z"/>
	<path class="st3" d="M156.5,74.4c0,0.2,0,0.3-0.1,0.5c0,0.2,0,0.3-0.1,0.5h0c0.2-0.4,0.5-0.6,0.9-0.8c0.4-0.2,0.7-0.3,1.1-0.3
		c0.6,0,1.1,0.2,1.5,0.5c0.4,0.3,0.5,0.7,0.5,1.3c0,0.1,0,0.2,0,0.3c0,0.1,0,0.2,0,0.3l-0.6,3.5h-0.8l0.6-3.2c0-0.3,0.1-0.5,0.1-0.7
		c0-0.4-0.1-0.7-0.3-1c-0.2-0.2-0.5-0.4-1-0.4c-0.2,0-0.4,0-0.7,0.1c-0.2,0.1-0.4,0.2-0.6,0.4c-0.2,0.2-0.4,0.4-0.5,0.7
		s-0.3,0.6-0.3,1l-0.5,3h-0.8l0.8-4.5c0-0.2,0.1-0.4,0.1-0.6s0.1-0.5,0.1-0.7H156.5z"/>
	<path class="st3" d="M167.3,80.3c-0.4,0-0.7-0.1-1.1-0.2c-0.3-0.1-0.6-0.3-0.8-0.5c-0.2-0.2-0.4-0.5-0.5-0.8
		c-0.1-0.3-0.2-0.6-0.2-1c0-0.5,0.1-0.9,0.3-1.4c0.2-0.4,0.4-0.8,0.7-1.1s0.7-0.6,1.1-0.8c0.4-0.2,0.9-0.3,1.4-0.3
		c0.4,0,0.8,0.1,1.1,0.2c0.3,0.1,0.6,0.3,0.8,0.5c0.2,0.2,0.4,0.5,0.5,0.8s0.2,0.6,0.2,1c0,0.5-0.1,1-0.3,1.4
		c-0.2,0.4-0.4,0.8-0.7,1.1s-0.7,0.6-1.1,0.8C168.2,80.2,167.8,80.3,167.3,80.3z M169.9,76.8c0-0.3,0-0.5-0.1-0.7s-0.2-0.4-0.4-0.6
		c-0.2-0.2-0.4-0.3-0.6-0.4c-0.2-0.1-0.5-0.1-0.8-0.1c-0.4,0-0.7,0.1-1,0.2c-0.3,0.2-0.6,0.4-0.8,0.6s-0.4,0.6-0.5,0.9
		c-0.1,0.3-0.2,0.7-0.2,1.1c0,0.3,0,0.5,0.1,0.7s0.2,0.4,0.4,0.6c0.2,0.2,0.4,0.3,0.6,0.4c0.2,0.1,0.5,0.1,0.8,0.1
		c0.4,0,0.7-0.1,1-0.2s0.6-0.4,0.8-0.6c0.2-0.3,0.4-0.6,0.5-0.9S169.9,77.1,169.9,76.8z"/>
	<path class="st3" d="M175.2,75h-1.4l-0.9,5.1h-0.8L173,75h-1.2l0.1-0.7h1.2l0.3-1.6c0-0.3,0.1-0.6,0.2-0.8c0.1-0.3,0.2-0.5,0.4-0.7
		c0.2-0.2,0.4-0.3,0.6-0.5c0.2-0.1,0.5-0.2,0.9-0.2c0.1,0,0.2,0,0.3,0s0.2,0,0.3,0.1l-0.2,0.7c-0.2,0-0.4-0.1-0.6-0.1
		c-0.2,0-0.4,0-0.5,0.1c-0.1,0.1-0.3,0.2-0.4,0.3c-0.1,0.1-0.2,0.3-0.2,0.5s-0.1,0.4-0.1,0.6l-0.3,1.5h1.4L175.2,75z"/>
	<path class="st3" d="M183.1,78.6L183.1,78.6l4.2-7.2h1.3l-1.5,8.7h-0.9l1.3-7.6h0l-4.5,7.6h-0.5l-1.8-7.6h0l-1.3,7.6h-0.9l1.5-8.7
		h1.3L183.1,78.6z"/>
	<path class="st3" d="M192,80.3c-0.4,0-0.7-0.1-1.1-0.2c-0.3-0.1-0.6-0.3-0.8-0.5c-0.2-0.2-0.4-0.5-0.5-0.8c-0.1-0.3-0.2-0.6-0.2-1
		c0-0.5,0.1-0.9,0.3-1.4c0.2-0.4,0.4-0.8,0.7-1.1s0.7-0.6,1.1-0.8c0.4-0.2,0.9-0.3,1.4-0.3c0.4,0,0.8,0.1,1.1,0.2
		c0.3,0.1,0.6,0.3,0.8,0.5c0.2,0.2,0.4,0.5,0.5,0.8s0.2,0.6,0.2,1c0,0.5-0.1,1-0.3,1.4c-0.2,0.4-0.4,0.8-0.7,1.1s-0.7,0.6-1.1,0.8
		C192.9,80.2,192.5,80.3,192,80.3z M194.6,76.8c0-0.3,0-0.5-0.1-0.7s-0.2-0.4-0.4-0.6c-0.2-0.2-0.4-0.3-0.6-0.4
		c-0.2-0.1-0.5-0.1-0.8-0.1c-0.4,0-0.7,0.1-1,0.2c-0.3,0.2-0.6,0.4-0.8,0.6s-0.4,0.6-0.5,0.9c-0.1,0.3-0.2,0.7-0.2,1.1
		c0,0.3,0,0.5,0.1,0.7s0.2,0.4,0.4,0.6c0.2,0.2,0.4,0.3,0.6,0.4c0.2,0.1,0.5,0.1,0.8,0.1c0.4,0,0.7-0.1,1-0.2s0.6-0.4,0.8-0.6
		c0.2-0.3,0.4-0.6,0.5-0.9S194.6,77.1,194.6,76.8z"/>
	<path class="st3" d="M197.4,75c0-0.2,0.1-0.5,0.1-0.7h0.8c0,0.2,0,0.3-0.1,0.5c0,0.2,0,0.3-0.1,0.5h0c0.2-0.3,0.5-0.6,0.8-0.8
		c0.3-0.2,0.7-0.3,1.1-0.3c0.1,0,0.2,0,0.3,0c0.1,0,0.2,0,0.3,0l-0.2,0.8c0,0-0.1,0-0.2,0s-0.2,0-0.3,0c-0.2,0-0.4,0-0.7,0.1
		c-0.2,0.1-0.4,0.2-0.6,0.4c-0.2,0.2-0.3,0.4-0.5,0.7c-0.1,0.3-0.2,0.6-0.3,1l-0.5,3h-0.8l0.8-4.5C197.4,75.5,197.4,75.3,197.4,75z"
		/>
	<path class="st3" d="M200.6,81.4c0.2,0.3,0.5,0.5,0.9,0.7c0.4,0.2,0.8,0.3,1.2,0.3c0.4,0,0.8-0.1,1.1-0.2c0.3-0.1,0.5-0.3,0.7-0.5
		c0.2-0.2,0.4-0.5,0.5-0.7s0.2-0.6,0.3-0.9l0.2-1.1h0c-0.3,0.4-0.6,0.7-1,0.9c-0.4,0.2-0.8,0.3-1.2,0.3c-0.4,0-0.8-0.1-1.1-0.2
		c-0.3-0.1-0.6-0.3-0.8-0.5s-0.4-0.5-0.5-0.8c-0.1-0.3-0.2-0.6-0.2-1c0-0.5,0.1-0.9,0.3-1.3c0.2-0.4,0.4-0.8,0.7-1.1
		c0.3-0.3,0.7-0.6,1.1-0.7c0.4-0.2,0.9-0.3,1.3-0.3c0.2,0,0.4,0,0.6,0.1s0.4,0.1,0.6,0.2c0.2,0.1,0.3,0.2,0.5,0.4
		c0.1,0.1,0.3,0.3,0.3,0.5h0l0.2-1h0.8l-1,5.7c-0.1,0.3-0.1,0.6-0.3,1c-0.1,0.4-0.3,0.7-0.5,1c-0.2,0.3-0.6,0.5-1,0.7
		c-0.4,0.2-0.9,0.3-1.6,0.3c-0.6,0-1.1-0.1-1.5-0.3c-0.5-0.2-0.8-0.5-1.1-0.9L200.6,81.4z M201.5,77.6c0,0.2,0,0.5,0.1,0.7
		c0.1,0.2,0.2,0.4,0.4,0.6s0.3,0.3,0.6,0.4c0.2,0.1,0.5,0.1,0.8,0.1c0.4,0,0.7-0.1,1-0.2c0.3-0.1,0.6-0.3,0.8-0.6
		c0.2-0.2,0.4-0.5,0.5-0.9c0.1-0.3,0.2-0.7,0.2-1c0-0.3,0-0.5-0.1-0.7c-0.1-0.2-0.2-0.4-0.4-0.6c-0.2-0.2-0.4-0.3-0.6-0.4
		c-0.2-0.1-0.5-0.1-0.8-0.1c-0.4,0-0.7,0.1-1,0.2s-0.6,0.3-0.8,0.5c-0.2,0.2-0.4,0.5-0.5,0.9C201.6,76.8,201.5,77.2,201.5,77.6z"/>
	<path class="st3" d="M212.4,76.6c0-0.1,0-0.2,0-0.3c0-0.1,0-0.2,0-0.2c0-0.4-0.1-0.7-0.4-0.9c-0.2-0.2-0.6-0.3-1-0.3
		c-0.3,0-0.7,0.1-1,0.2c-0.3,0.1-0.6,0.3-0.8,0.5l-0.4-0.6c0.3-0.2,0.6-0.4,1-0.6c0.4-0.2,0.8-0.2,1.2-0.2c0.3,0,0.5,0,0.8,0.1
		c0.3,0.1,0.5,0.2,0.7,0.3c0.2,0.1,0.3,0.3,0.4,0.5s0.2,0.5,0.2,0.8c0,0.1,0,0.2,0,0.3c0,0.1,0,0.2,0,0.3l-0.4,2.3
		c0,0.2-0.1,0.5-0.1,0.7c0,0.2,0,0.4,0,0.6h-0.7c0-0.1,0-0.3,0-0.5c0-0.2,0-0.3,0.1-0.5h0c-0.2,0.2-0.3,0.4-0.5,0.5
		c-0.2,0.1-0.3,0.2-0.5,0.3c-0.2,0.1-0.4,0.1-0.6,0.2c-0.2,0-0.4,0.1-0.7,0.1c-0.2,0-0.4,0-0.6-0.1s-0.4-0.1-0.6-0.3
		c-0.2-0.1-0.3-0.3-0.4-0.5S208,79,208,78.8c0-0.5,0.1-0.8,0.4-1.1c0.3-0.3,0.6-0.5,1-0.7c0.4-0.2,0.9-0.3,1.4-0.3
		S211.9,76.6,212.4,76.6z M212.1,77.2c-0.4,0-0.8,0-1.1,0.1c-0.4,0-0.7,0.1-1.1,0.2s-0.6,0.2-0.8,0.4c-0.2,0.2-0.3,0.4-0.3,0.7
		c0,0.2,0,0.3,0.1,0.5c0.1,0.1,0.2,0.2,0.3,0.3c0.1,0.1,0.2,0.1,0.4,0.1c0.1,0,0.3,0,0.4,0c0.3,0,0.6,0,0.8-0.1
		c0.2-0.1,0.5-0.2,0.7-0.4c0.2-0.2,0.3-0.4,0.5-0.6c0.1-0.2,0.2-0.5,0.3-0.7l0.1-0.5H212.1z"/>
	<path class="st3" d="M216.3,74.4c0,0.2,0,0.3-0.1,0.5c0,0.2,0,0.3-0.1,0.5h0c0.2-0.4,0.5-0.6,0.9-0.8c0.4-0.2,0.7-0.3,1.1-0.3
		c0.6,0,1.1,0.2,1.5,0.5c0.4,0.3,0.5,0.7,0.5,1.3c0,0.1,0,0.2,0,0.3c0,0.1,0,0.2,0,0.3l-0.6,3.5h-0.8l0.6-3.2c0-0.3,0.1-0.5,0.1-0.7
		c0-0.4-0.1-0.7-0.3-1c-0.2-0.2-0.5-0.4-1-0.4c-0.2,0-0.4,0-0.7,0.1c-0.2,0.1-0.4,0.2-0.6,0.4c-0.2,0.2-0.4,0.4-0.5,0.7
		s-0.3,0.6-0.3,1l-0.5,3h-0.8l0.8-4.5c0-0.2,0.1-0.4,0.1-0.6s0.1-0.5,0.1-0.7H216.3z"/>
	<path class="st3" d="M226.6,78.9L226.6,78.9l3.7-7.5h1.1l0.7,7.5h0l3.6-7.5h0.9l-4.3,8.7h-1l-0.7-7.5h0l-3.7,7.5h-1l-0.9-8.7h0.9
		L226.6,78.9z"/>
	<path class="st3" d="M239.7,74.2c0.6,0,1.1,0.2,1.5,0.5c0.4,0.3,0.5,0.7,0.5,1.3c0,0.1,0,0.2,0,0.3c0,0.1,0,0.2,0,0.3l-0.6,3.5
		h-0.8l0.6-3.2c0-0.3,0.1-0.5,0.1-0.7c0-0.4-0.1-0.7-0.3-1c-0.2-0.2-0.5-0.4-1-0.4c-0.2,0-0.4,0-0.7,0.1c-0.2,0.1-0.4,0.2-0.6,0.4
		s-0.4,0.4-0.5,0.7c-0.1,0.3-0.2,0.6-0.3,1l-0.5,3H236l1.6-9.3h0.8l-0.8,4.5h0c0.2-0.3,0.5-0.6,0.8-0.8
		C238.9,74.3,239.3,74.2,239.7,74.2z"/>
	<path class="st3" d="M243.8,80.1H243l1-5.8h0.8L243.8,80.1z M245.3,72.1c0,0.2-0.1,0.3-0.2,0.4c-0.1,0.1-0.2,0.2-0.4,0.2
		c-0.2,0-0.3,0-0.4-0.1c-0.1-0.1-0.2-0.2-0.2-0.4c0-0.2,0.1-0.3,0.2-0.4s0.3-0.2,0.4-0.2c0.2,0,0.3,0.1,0.4,0.2
		C245.3,71.8,245.3,71.9,245.3,72.1z"/>
	<path class="st3" d="M249.2,75h-1.6l-0.6,3.4c0,0.1,0,0.3,0,0.4c0,0.3,0.1,0.5,0.2,0.5s0.3,0.1,0.5,0.1c0.1,0,0.2,0,0.4-0.1
		s0.2-0.1,0.3-0.1l-0.1,0.7c-0.1,0.1-0.2,0.1-0.4,0.1s-0.3,0-0.5,0c-0.1,0-0.3,0-0.4,0c-0.1,0-0.3-0.1-0.4-0.2s-0.2-0.2-0.3-0.4
		c-0.1-0.1-0.1-0.3-0.1-0.6c0-0.1,0-0.2,0-0.4l0.6-3.6h-1.2l0.1-0.7h1.2l0.3-1.6h0.8l-0.3,1.6h1.6L249.2,75z"/>
	<path class="st3" d="M250.4,77.5c0,0,0,0.1,0,0.1c0,0,0,0.1,0,0.1c0,0.3,0,0.5,0.1,0.7c0.1,0.2,0.2,0.4,0.4,0.6
		c0.2,0.2,0.4,0.3,0.6,0.4c0.2,0.1,0.5,0.1,0.7,0.1c0.5,0,0.8-0.1,1.2-0.3c0.3-0.2,0.6-0.4,0.8-0.7l0.5,0.5
		c-0.3,0.4-0.7,0.7-1.2,0.9c-0.4,0.2-0.9,0.3-1.4,0.3c-0.4,0-0.7-0.1-1-0.2s-0.6-0.3-0.8-0.5c-0.2-0.2-0.4-0.5-0.6-0.8
		c-0.1-0.3-0.2-0.7-0.2-1.1c0-0.5,0.1-0.9,0.3-1.3c0.2-0.4,0.4-0.8,0.7-1.1s0.7-0.6,1.1-0.8c0.4-0.2,0.8-0.3,1.3-0.3
		c0.8,0,1.4,0.2,1.8,0.6c0.4,0.4,0.6,1,0.6,1.6c0,0.1,0,0.2,0,0.5s0,0.4-0.1,0.5H250.4z M254.4,76.9c0-0.1,0-0.1,0-0.2
		c0-0.1,0-0.2,0-0.2c0-0.4-0.1-0.8-0.4-1.1c-0.3-0.3-0.7-0.4-1.2-0.4c-0.3,0-0.6,0.1-0.8,0.2s-0.5,0.2-0.7,0.4
		c-0.2,0.2-0.4,0.4-0.5,0.6c-0.1,0.2-0.2,0.5-0.3,0.7H254.4z"/>
	<path class="st3" d="M263.6,79.6c0.5,0,1-0.1,1.4-0.2c0.4-0.1,0.8-0.3,1.1-0.4l0.5-2.7h-2.1l0.1-0.8h2.9l-0.7,3.9
		c-0.5,0.3-1.1,0.5-1.6,0.7c-0.5,0.1-1.1,0.2-1.7,0.2c-0.6,0-1.1-0.1-1.6-0.3s-0.9-0.4-1.2-0.8c-0.3-0.3-0.6-0.7-0.8-1.2
		c-0.2-0.5-0.3-1-0.3-1.5c0-0.8,0.1-1.5,0.4-2.1c0.3-0.7,0.6-1.2,1.1-1.7c0.5-0.5,1-0.9,1.7-1.2c0.6-0.3,1.3-0.4,2-0.4
		c0.3,0,0.6,0,0.9,0.1s0.6,0.2,0.8,0.3c0.3,0.1,0.5,0.3,0.7,0.4c0.2,0.2,0.4,0.4,0.5,0.6l-0.8,0.5c-0.1-0.1-0.2-0.3-0.3-0.4
		c-0.1-0.1-0.3-0.3-0.5-0.4c-0.2-0.1-0.4-0.2-0.6-0.3c-0.2-0.1-0.5-0.1-0.8-0.1c-0.6,0-1.2,0.1-1.7,0.4c-0.5,0.3-1,0.6-1.3,1
		c-0.4,0.4-0.7,0.9-0.9,1.5c-0.2,0.6-0.3,1.1-0.3,1.7c0,0.4,0.1,0.8,0.2,1.2s0.3,0.7,0.6,1s0.6,0.5,1,0.7S263.1,79.6,263.6,79.6z"/>
	<path class="st3" d="M269.6,75c0-0.2,0.1-0.5,0.1-0.7h0.8c0,0.2,0,0.3-0.1,0.5c0,0.2,0,0.3-0.1,0.5h0c0.2-0.3,0.5-0.6,0.8-0.8
		c0.3-0.2,0.7-0.3,1.1-0.3c0.1,0,0.2,0,0.3,0c0.1,0,0.2,0,0.3,0l-0.2,0.8c0,0-0.1,0-0.2,0s-0.2,0-0.3,0c-0.2,0-0.4,0-0.7,0.1
		c-0.2,0.1-0.4,0.2-0.6,0.4c-0.2,0.2-0.3,0.4-0.5,0.7c-0.1,0.3-0.2,0.6-0.3,1l-0.5,3h-0.8l0.8-4.5C269.5,75.5,269.5,75.3,269.6,75z"
		/>
	<path class="st3" d="M275.3,80.3c-0.4,0-0.7-0.1-1.1-0.2c-0.3-0.1-0.6-0.3-0.8-0.5c-0.2-0.2-0.4-0.5-0.5-0.8
		c-0.1-0.3-0.2-0.6-0.2-1c0-0.5,0.1-0.9,0.3-1.4c0.2-0.4,0.4-0.8,0.7-1.1s0.7-0.6,1.1-0.8c0.4-0.2,0.9-0.3,1.4-0.3
		c0.4,0,0.8,0.1,1.1,0.2c0.3,0.1,0.6,0.3,0.8,0.5c0.2,0.2,0.4,0.5,0.5,0.8s0.2,0.6,0.2,1c0,0.5-0.1,1-0.3,1.4
		c-0.2,0.4-0.4,0.8-0.7,1.1s-0.7,0.6-1.1,0.8C276.3,80.2,275.8,80.3,275.3,80.3z M277.9,76.8c0-0.3,0-0.5-0.1-0.7s-0.2-0.4-0.4-0.6
		c-0.2-0.2-0.4-0.3-0.6-0.4c-0.2-0.1-0.5-0.1-0.8-0.1c-0.4,0-0.7,0.1-1,0.2c-0.3,0.2-0.6,0.4-0.8,0.6s-0.4,0.6-0.5,0.9
		c-0.1,0.3-0.2,0.7-0.2,1.1c0,0.3,0,0.5,0.1,0.7s0.2,0.4,0.4,0.6c0.2,0.2,0.4,0.3,0.6,0.4c0.2,0.1,0.5,0.1,0.8,0.1
		c0.4,0,0.7-0.1,1-0.2s0.6-0.4,0.8-0.6c0.2-0.3,0.4-0.6,0.5-0.9S277.9,77.1,277.9,76.8z"/>
	<path class="st3" d="M283.9,80.1c0-0.2,0-0.3,0.1-0.5s0-0.3,0.1-0.5h0c-0.2,0.4-0.5,0.6-0.9,0.8c-0.3,0.2-0.7,0.3-1.1,0.3
		c-0.6,0-1.1-0.2-1.5-0.5c-0.4-0.3-0.5-0.7-0.5-1.3c0-0.1,0-0.2,0-0.3c0-0.1,0-0.2,0-0.3l0.6-3.5h0.8l-0.6,3.2
		c0,0.3-0.1,0.5-0.1,0.7c0,0.4,0.1,0.7,0.3,1s0.5,0.3,1,0.3c0.2,0,0.4,0,0.7-0.1c0.2-0.1,0.4-0.2,0.6-0.4c0.2-0.2,0.4-0.4,0.5-0.7
		c0.1-0.3,0.3-0.6,0.3-1l0.5-3h0.8l-0.8,4.5c0,0.2-0.1,0.4-0.1,0.6s-0.1,0.5-0.1,0.7H283.9z"/>
	<path class="st3" d="M288.6,75.3c0.1-0.1,0.2-0.3,0.4-0.4c0.1-0.1,0.3-0.2,0.5-0.3c0.2-0.1,0.4-0.2,0.6-0.2
		c0.2-0.1,0.4-0.1,0.7-0.1c0.4,0,0.8,0.1,1.1,0.2c0.3,0.1,0.6,0.3,0.8,0.5c0.2,0.2,0.4,0.5,0.5,0.8c0.1,0.3,0.2,0.6,0.2,1
		c0,0.5-0.1,1-0.3,1.4c-0.2,0.4-0.4,0.8-0.7,1.1s-0.7,0.6-1.1,0.8c-0.4,0.2-0.9,0.3-1.4,0.3c-0.4,0-0.8-0.1-1.2-0.3
		c-0.4-0.2-0.6-0.5-0.8-0.8h0l-0.7,3.9h-0.8l1.6-8.7h0.8L288.6,75.3L288.6,75.3z M292.4,76.8c0-0.3,0-0.5-0.1-0.7s-0.2-0.4-0.4-0.6
		s-0.3-0.3-0.6-0.4c-0.2-0.1-0.5-0.1-0.8-0.1c-0.4,0-0.7,0.1-1,0.2c-0.3,0.1-0.6,0.4-0.8,0.6s-0.4,0.6-0.5,0.9
		c-0.1,0.3-0.2,0.7-0.2,1.1c0,0.3,0,0.5,0.1,0.7s0.2,0.4,0.4,0.6s0.4,0.3,0.6,0.4c0.2,0.1,0.5,0.1,0.8,0.1c0.4,0,0.7-0.1,1-0.2
		c0.3-0.1,0.6-0.4,0.8-0.6c0.2-0.3,0.4-0.6,0.5-0.9C292.4,77.5,292.4,77.2,292.4,76.8z"/>
	<path class="st4" d="M49.2,0c27.1,0,49.2,22.1,49.2,49.2S76.3,98.3,49.2,98.3C22.1,98.3,0,76.3,0,49.2S22.1,0,49.2,0z"/>
	<path class="st4" d="M49.2,96.2c25.9,0,47-21.1,47-47s-21.1-47-47-47s-47,21.1-47,47S23.2,96.2,49.2,96.2z M49.2,4.6
		c24.6,0,44.5,19.9,44.5,44.5c0,0.5,0,1.1,0,1.6c-1.1,0-7.6,0.1-10.5,0.1c-3,0-4.8-0.1-5.2-0.1c-0.1,0-0.2,0.1-0.2,0.3v0.8
		c0,0.2,0.1,0.3,0.3,0.3h1.5c1,0,1.3,0.4,1.3,1.7v2.7c0,1.9-0.1,2.9-0.9,3.4c-1.2,0.7-2.6,0.6-5,0.6c-3.6,0-6.2-2.3-9.2-4.7
		c-0.5-0.4-0.7-0.2-0.8,0c-0.1,0.2-0.6,1.4-0.7,1.7c-0.1,0.3-0.2,0.7,0.2,1.1c2.5,2.8,6.8,4,10.3,4c4.4,0,7.4-0.9,10.4-2.4
		c0.4-0.1,0.6-0.3,0.6-0.6c0-0.3-0.1-0.7-0.1-1.2v-4.8c0-1.1,0.4-1.4,1.1-1.4h6.9C92,75.4,72.7,93.7,49.2,93.7
		c-19.9,0-36.7-13-42.5-31.1c1.6,0,4-0.1,5.3-0.1c2.3,0,3.5,0.1,3.9,0.1c0.2,0,0.3-0.1,0.3-0.3v-0.9c0-0.2,0-0.3-0.3-0.3h-1
		c-0.9,0-1.2-0.5-1.2-1c0-2,4.2-14.1,5.3-17.3h0.1L24.3,56c0,0,1.2,2.9,2,2.9c1.1,0,2.9-4,2.9-4s4.9-11,5.2-11.8l0.1,0l5.7,16.9
		c0.3,0.8-0.1,1.3-0.9,1.3h-0.7c-0.3,0-0.3,0.1-0.3,0.3v0.9c0,0.2,0.1,0.3,0.3,0.3c0.3,0,1.2,0,3-0.1c0.3,0,0.5-0.1,0.7-0.3
		c0.2-0.1,0.3-0.3,0.4-0.5c0.1-0.4,6.6-14,6.9-15.1h0.1l6.6,14.9c0.1,0.4,0.4,0.8,0.9,0.8c2,0,2.6-0.8,3.4-3
		c0.4-1.2,2.8-7.9,4.9-13.6c2.6-6.8,6.5-8.8,10.5-8.8c2.8,0,4.8,1.2,6.1,2.6c1.5,1.5,2.4,3.6,2.9,5c0.1,0.2,0.1,0.3,0.4,0.3l0.9-0.1
		c0.1,0,0.1-0.2,0.1-0.5L86,37.1c0-0.3-0.1-0.5-0.4-0.5c-0.2,0-0.3,0.1-0.5,0.4l-0.4,0.6c-0.2,0.3-0.4,0.4-0.9,0.1
		c-1.2-0.9-3.9-2-7.5-2c-6.7,0-11.6,1.4-14.7,11.2l-3,7.8l-4.6-10.2c0,0-1.9-4.6-2.7-4.6c-0.8,0-2.8,4.3-2.8,4.3s-4.9,10.6-5.2,11.3
		l-0.1,0l-5.7-16.9c-0.3-0.8,0.1-1.3,0.9-1.3h0.7c0.3,0,0.3-0.1,0.3-0.3V36c0-0.2-0.1-0.3-0.3-0.3c-0.3,0-2,0.1-3.6,0.1
		c-0.2,0-0.4,0.5-0.7,1.2c-1.1,2.5-6.4,14.1-6.7,15H28l-6.6-15.4C21.2,36.3,21,36,20.4,36c-0.5,0-0.8,0.6-0.9,1
		c-0.7,1.8-8.2,22.3-8.6,23.1c-0.4,0.8-1,1.2-1.6,1.2h-3c-1.1-3.8-1.7-7.9-1.7-12.1C4.6,24.6,24.6,4.6,49.2,4.6z"/>
	<path class="st5" d="M49.2,98.3c27.1,0,49.2-22.1,49.2-49.2S76.3,0,49.2,0C22.1,0,0,22.1,0,49.2S22.1,98.3,49.2,98.3z M49.2,2.1
		c25.9,0,47,21.1,47,47s-21.1,47-47,47s-47-21.1-47-47S23.2,2.1,49.2,2.1z"/>
	<path d="M6.3,61.2h3c0.6,0,1.2-0.4,1.6-1.2c0.4-0.8,7.8-21.3,8.6-23.1c0.1-0.4,0.4-1,0.9-1c0.5,0,0.8,0.4,0.9,0.8L28,52.2h0.1
		c0.3-0.9,5.6-12.6,6.7-15c0.3-0.7,0.5-1.2,0.7-1.2c1.6,0,3.3-0.1,3.6-0.1c0.2,0,0.3,0.1,0.3,0.3V37c0,0.2-0.1,0.3-0.3,0.3h-0.7
		c-0.7,0-1.1,0.5-0.9,1.3l5.7,16.9l0.1,0c0.3-0.8,5.2-11.3,5.2-11.3s2-4.3,2.8-4.3c0.8,0,2.7,4.6,2.7,4.6l4.6,10.2l3-7.8
		c3.1-9.7,8-11.2,14.7-11.2c3.5,0,6.3,1.1,7.5,2c0.4,0.3,0.7,0.2,0.9-0.1l0.4-0.6c0.2-0.3,0.3-0.4,0.5-0.4c0.4,0,0.4,0.2,0.4,0.5
		l0.4,7.3c0,0.3,0,0.5-0.1,0.5l-0.9,0.1c-0.2,0-0.3-0.1-0.4-0.3c-0.5-1.5-1.5-3.5-2.9-5c-1.2-1.3-3.3-2.6-6.1-2.6
		c-4,0-7.9,2-10.5,8.8c-2.2,5.7-4.5,12.4-4.9,13.6c-0.8,2.2-1.4,3-3.4,3c-0.5,0-0.8-0.4-0.9-0.8l-6.6-14.9h-0.1
		c-0.3,1-6.8,14.7-6.9,15.1c-0.1,0.2-0.2,0.4-0.4,0.5c-0.2,0.2-0.4,0.3-0.7,0.3c-1.8,0-2.7,0.1-3,0.1c-0.2,0-0.3-0.1-0.3-0.3v-0.9
		c0-0.2,0.1-0.3,0.3-0.3h0.7c0.7,0,1.1-0.5,0.9-1.3L34.4,43l-0.1,0c-0.3,0.8-5.2,11.8-5.2,11.8s-1.7,4-2.9,4c-0.8,0-2-2.9-2-2.9
		l-5.3-13.1h-0.1c-1.1,3.2-5.3,15.3-5.3,17.3c0,0.5,0.4,1,1.2,1h1c0.2,0,0.3,0.1,0.3,0.3v0.9c0,0.2-0.1,0.3-0.3,0.3
		c-0.4,0-1.6-0.1-3.9-0.1c-1.3,0-3.6,0-5.3,0.1c5.7,18,22.6,31.1,42.5,31.1c23.6,0,42.8-18.3,44.4-41.5h-6.9c-0.7,0-1.1,0.3-1.1,1.4
		v4.8c0,0.5,0.1,0.9,0.1,1.2c0,0.3-0.2,0.4-0.6,0.6c-3,1.5-6,2.4-10.4,2.4c-3.5,0-7.8-1.2-10.3-4c-0.4-0.4-0.3-0.7-0.2-1.1
		c0.1-0.3,0.6-1.5,0.7-1.7c0.1-0.2,0.4-0.4,0.8,0c3,2.4,5.6,4.7,9.2,4.7c2.3,0,3.7,0,5-0.6c0.8-0.4,0.9-1.5,0.9-3.4v-2.7
		c0-1.3-0.4-1.7-1.3-1.7h-1.5c-0.2,0-0.3-0.1-0.3-0.3V51c0-0.2,0.1-0.3,0.2-0.3c0.4,0,2.2,0.1,5.2,0.1c2.9,0,9.4-0.1,10.5-0.1
		c0-0.5,0-1.1,0-1.6c0-24.6-19.9-44.5-44.5-44.5S4.6,24.6,4.6,49.2C4.6,53.3,5.2,57.4,6.3,61.2z"/>
</g>
</a>
</svg>
