<?xml version="1.0" encoding="iso-8859-1"?>
<!-- Generator: Adobe Illustrator 19.1.0, SVG Export Plug-In . SVG Version: 6.00 Build 0)  -->
<svg version="1.1" xmlns="http://www.w3.org/2000/svg" xmlns:xlink="http://www.w3.org/1999/xlink" x="0px" y="0px"
	 viewBox="0 0 374.9 91.3" style="enable-background:new 0 0 374.9 91.3;" xml:space="preserve">
<style type="text/css">
	.st0{display:none;}
	.st1{display:inline;fill:#5D5E5E;}
	.st2{fill:#001F5B;}
	.st3{fill:#808285;}
	.st4{fill:#FFFFFF;}
	.st5{fill:#9E9E9E;}
	.st6{fill:none;stroke:#8083A9;stroke-width:2.1378;stroke-miterlimit:10;}
	.st7{fill:#8285AA;}
	.st8{fill:none;stroke:#FFFFFF;stroke-width:2.1378;stroke-miterlimit:10;}
	.st9{fill:#001F5B;stroke:#FFFFFF;stroke-width:2.1378;stroke-miterlimit:10;}
</style>
<a xmlns="http://www.w3.org/2000/svg" xmlns:xlink="http://www.w3.org/1999/xlink" xlink:href="http://mwgemployerservices.com" target="_top">
<g id="logo-division">
	<path class="st4" d="M108.4,34.8h14.3v4.4H113v4.1h9.1v4.4H113v4.4h10.2v4.4h-14.8V34.8z"/>
	<path class="st4" d="M126.9,34.8h7l4.8,14.3h0.1l4.9-14.3h7v21.9H146V39.9h-0.1l-5.5,16.8h-3.5l-5.3-16.8h-0.1v16.8h-4.6V34.8z"/>
	<path class="st4" d="M154.9,34.8h7.8c1.1,0,2.1,0.1,3.1,0.3c1,0.2,1.8,0.6,2.5,1.1c0.7,0.5,1.3,1.2,1.7,2c0.4,0.9,0.6,1.9,0.6,3.2
		c0,1.3-0.2,2.3-0.6,3.2c-0.4,0.9-0.9,1.6-1.6,2.1s-1.5,0.9-2.5,1.1c-0.9,0.2-2,0.3-3.1,0.3h-3.4v8.5h-4.6V34.8z M159.5,44.1h3.1
		c0.4,0,0.8,0,1.2-0.1c0.4-0.1,0.7-0.2,1-0.4c0.3-0.2,0.6-0.5,0.7-0.8c0.2-0.3,0.3-0.8,0.3-1.3c0-0.6-0.1-1-0.4-1.3
		c-0.2-0.3-0.6-0.6-0.9-0.8s-0.8-0.3-1.3-0.4c-0.5-0.1-0.9-0.1-1.4-0.1h-2.4V44.1z"/>
	<path class="st4" d="M173.7,34.8h4.6v17.4h8.6v4.4h-13.2V34.8z"/>
	<path class="st4" d="M188.4,45.8c0-1.8,0.3-3.3,0.8-4.8c0.6-1.4,1.3-2.6,2.4-3.6c1-1,2.2-1.8,3.6-2.3c1.4-0.5,2.9-0.8,4.5-0.8
		c1.6,0,3.2,0.3,4.5,0.8c1.4,0.5,2.6,1.3,3.6,2.3c1,1,1.8,2.2,2.4,3.6c0.6,1.4,0.8,3,0.8,4.8c0,1.8-0.3,3.3-0.8,4.8
		s-1.3,2.6-2.4,3.6c-1,1-2.2,1.8-3.6,2.3s-2.9,0.8-4.5,0.8c-1.6,0-3.2-0.3-4.5-0.8c-1.4-0.5-2.6-1.3-3.6-2.3c-1-1-1.8-2.2-2.4-3.6
		S188.4,47.5,188.4,45.8z M193.2,45.8c0,1,0.2,2,0.5,2.8c0.3,0.9,0.7,1.6,1.3,2.2c0.6,0.6,1.3,1.1,2.1,1.5c0.8,0.4,1.7,0.5,2.7,0.5
		c1,0,1.9-0.2,2.7-0.5c0.8-0.4,1.5-0.8,2.1-1.5c0.6-0.6,1-1.4,1.3-2.2c0.3-0.9,0.5-1.8,0.5-2.8c0-1-0.2-1.9-0.5-2.8
		s-0.7-1.6-1.3-2.2c-0.6-0.6-1.3-1.1-2.1-1.5c-0.8-0.3-1.7-0.5-2.7-0.5c-1,0-1.9,0.2-2.7,0.5c-0.8,0.4-1.5,0.8-2.1,1.5
		c-0.6,0.6-1,1.4-1.3,2.2C193.3,43.8,193.2,44.8,193.2,45.8z"/>
	<path class="st4" d="M219.3,47.4l-7.9-12.5h5.8l4.4,8.2l4.7-8.2h5.5l-7.9,12.5v9.3h-4.6V47.4z"/>
	<path class="st4" d="M233.6,34.8h14.3v4.4h-9.6v4.1h9.1v4.4h-9.1v4.4h10.2v4.4h-14.8V34.8z"/>
	<path class="st4" d="M252.1,34.8h8.1c1.1,0,2.1,0.1,3,0.3c1,0.2,1.8,0.6,2.5,1.1c0.7,0.5,1.3,1.2,1.7,2c0.4,0.9,0.6,1.9,0.6,3.2
		c0,1.5-0.4,2.9-1.2,3.9c-0.8,1.1-1.9,1.8-3.4,2.1l5.3,9.2h-5.5L259,48h-2.3v8.7h-4.6V34.8z M256.7,43.9h2.7c0.4,0,0.9,0,1.3,0
		c0.5,0,0.9-0.1,1.3-0.3c0.4-0.2,0.7-0.4,0.9-0.7c0.2-0.3,0.4-0.8,0.4-1.4c0-0.6-0.1-1-0.3-1.3c-0.2-0.3-0.5-0.6-0.8-0.8
		s-0.7-0.3-1.2-0.4c-0.4-0.1-0.9-0.1-1.3-0.1h-3V43.9z"/>
	<path class="st4" d="M286.9,43.2c-0.7-1.1-1.7-1.6-3-1.6c-0.4,0-0.8,0.1-1.2,0.2c-0.4,0.1-0.8,0.3-1.1,0.5
		c-0.3,0.2-0.6,0.5-0.8,0.9c-0.2,0.4-0.3,0.8-0.3,1.3c0,0.7,0.2,1.3,0.6,1.7s0.9,0.7,1.5,1c0.6,0.3,1.2,0.5,1.9,0.7s1.3,0.5,1.9,0.8
		c0.6,0.3,1.1,0.8,1.5,1.4c0.4,0.6,0.6,1.3,0.6,2.3c0,0.7-0.2,1.4-0.5,2s-0.7,1.1-1.2,1.5c-0.5,0.4-1,0.7-1.7,0.9s-1.2,0.3-1.8,0.3
		c-1,0-1.9-0.2-2.7-0.6c-0.9-0.4-1.6-1-2.2-1.8l1.5-1.1c0.3,0.6,0.8,1.1,1.4,1.4s1.3,0.5,2.1,0.5c0.4,0,0.8-0.1,1.2-0.2
		c0.4-0.1,0.8-0.3,1.1-0.6s0.6-0.6,0.8-0.9s0.3-0.8,0.3-1.3c0-0.6-0.1-1-0.3-1.4c-0.2-0.4-0.5-0.7-0.9-0.9c-0.4-0.3-0.8-0.5-1.3-0.6
		c-0.5-0.2-1-0.3-1.5-0.5c-0.5-0.2-1-0.4-1.5-0.6c-0.5-0.2-0.9-0.5-1.3-0.8c-0.4-0.3-0.7-0.7-0.9-1.2s-0.3-1.1-0.3-1.9
		c0-0.8,0.1-1.5,0.4-2c0.3-0.6,0.7-1.1,1.1-1.4c0.5-0.4,1-0.7,1.6-0.8s1.2-0.3,1.9-0.3c0.9,0,1.7,0.1,2.4,0.4c0.7,0.3,1.4,0.8,2,1.5
		L286.9,43.2z"/>
	<path class="st4" d="M293.3,55.2h8.3v1.5h-9.9V40.5h9.7V42h-8.1v5.5h7.6V49h-7.6V55.2z"/>
	<path class="st4" d="M306.4,56.7h-1.6V40.5h4.8c1.6,0,2.8,0.4,3.8,1.1c0.9,0.7,1.4,1.8,1.4,3.3c0,1.1-0.3,2.1-1,2.9
		c-0.7,0.8-1.7,1.2-3,1.3l4.5,7.7h-1.9l-4.3-7.5h-2.6V56.7z M306.4,47.7h2.8c0.7,0,1.3-0.1,1.8-0.2c0.5-0.2,0.9-0.4,1.2-0.6
		c0.3-0.3,0.5-0.6,0.6-0.9s0.2-0.7,0.2-1.1c0-0.4-0.1-0.7-0.2-1.1s-0.3-0.6-0.6-0.9c-0.3-0.3-0.7-0.5-1.2-0.6
		c-0.5-0.1-1.1-0.2-1.8-0.2h-2.8V47.7z"/>
	<path class="st4" d="M322.5,54.2L322.5,54.2l5.2-13.8h1.7l-6.1,16.2h-1.6l-5.9-16.2h1.8L322.5,54.2z"/>
	<path class="st4" d="M333.1,56.7h-1.6V40.5h1.6V56.7z"/>
	<path class="st4" d="M350.1,54.2c-0.3,0.4-0.6,0.8-1,1.2c-0.4,0.4-0.8,0.7-1.3,1c-0.5,0.3-1,0.5-1.6,0.6c-0.6,0.2-1.2,0.2-1.8,0.2
		c-1.2,0-2.2-0.2-3.2-0.6s-1.9-1-2.6-1.8c-0.7-0.8-1.3-1.7-1.7-2.7s-0.6-2.2-0.6-3.4s0.2-2.4,0.6-3.4s1-1.9,1.7-2.7
		c0.7-0.8,1.6-1.3,2.6-1.8c1-0.4,2.1-0.6,3.2-0.6c1,0,1.9,0.2,2.9,0.6c1,0.4,1.8,1.1,2.5,2l-1.4,1.1c-0.2-0.3-0.4-0.5-0.7-0.8
		c-0.3-0.3-0.6-0.5-1-0.7c-0.4-0.2-0.7-0.4-1.2-0.5c-0.4-0.1-0.8-0.2-1.2-0.2c-1,0-1.9,0.2-2.7,0.6s-1.5,0.9-2,1.5s-1,1.4-1.3,2.2
		c-0.3,0.8-0.4,1.7-0.4,2.7c0,0.9,0.1,1.8,0.4,2.7c0.3,0.8,0.7,1.6,1.3,2.2c0.6,0.6,1.2,1.2,2,1.5c0.8,0.4,1.7,0.6,2.7,0.6
		c0.4,0,0.8,0,1.2-0.1c0.4-0.1,0.8-0.2,1.2-0.4c0.4-0.2,0.8-0.4,1.1-0.7c0.3-0.3,0.7-0.7,1-1.2L350.1,54.2z"/>
	<path class="st4" d="M354.4,55.2h8.3v1.5h-9.9V40.5h9.7V42h-8.1v5.5h7.6V49h-7.6V55.2z"/>
	<path class="st4" d="M373.2,43.2c-0.7-1.1-1.7-1.6-3-1.6c-0.4,0-0.8,0.1-1.2,0.2c-0.4,0.1-0.8,0.3-1.1,0.5
		c-0.3,0.2-0.6,0.5-0.8,0.9c-0.2,0.4-0.3,0.8-0.3,1.3c0,0.7,0.2,1.3,0.6,1.7s0.9,0.7,1.5,1c0.6,0.3,1.2,0.5,1.9,0.7s1.3,0.5,1.9,0.8
		c0.6,0.3,1.1,0.8,1.5,1.4c0.4,0.6,0.6,1.3,0.6,2.3c0,0.7-0.2,1.4-0.5,2s-0.7,1.1-1.2,1.5c-0.5,0.4-1,0.7-1.7,0.9s-1.2,0.3-1.8,0.3
		c-1,0-1.9-0.2-2.7-0.6c-0.9-0.4-1.6-1-2.2-1.8l1.5-1.1c0.3,0.6,0.8,1.1,1.4,1.4s1.3,0.5,2.1,0.5c0.4,0,0.8-0.1,1.2-0.2
		c0.4-0.1,0.8-0.3,1.1-0.6s0.6-0.6,0.8-0.9s0.3-0.8,0.3-1.3c0-0.6-0.1-1-0.3-1.4c-0.2-0.4-0.5-0.7-0.9-0.9c-0.4-0.3-0.8-0.5-1.3-0.6
		c-0.5-0.2-1-0.3-1.5-0.5c-0.5-0.2-1-0.4-1.5-0.6c-0.5-0.2-0.9-0.5-1.3-0.8c-0.4-0.3-0.7-0.7-0.9-1.2s-0.3-1.1-0.3-1.9
		c0-0.8,0.1-1.5,0.4-2c0.3-0.6,0.7-1.1,1.1-1.4c0.5-0.4,1-0.7,1.6-0.8s1.2-0.3,1.9-0.3c0.9,0,1.7,0.1,2.4,0.4c0.7,0.3,1.4,0.8,2,1.5
		L373.2,43.2z"/>
	<path class="st4" d="M107.1,76.6h-1l5.6-8.7h0.9l1.8,8.7h-0.9l-0.5-2.3h-4.5L107.1,76.6z M109,73.4h3.8l-0.9-4.6L109,73.4z"/>
	<path class="st4" d="M118.3,74.2c0-0.5,0.1-1,0.3-1.4c0.2-0.4,0.4-0.8,0.7-1.1s0.7-0.6,1.1-0.8s0.9-0.3,1.4-0.3
		c0.4,0,0.8,0.1,1.2,0.3s0.6,0.5,0.8,0.8h0l0.8-4.5h0.8l-1.7,9.3h-0.8l0.2-1h0c-0.2,0.3-0.5,0.6-0.9,0.8s-0.8,0.3-1.3,0.3
		c-0.4,0-0.8-0.1-1.1-0.2c-0.3-0.1-0.6-0.3-0.8-0.5c-0.2-0.2-0.4-0.5-0.5-0.8S118.3,74.6,118.3,74.2z M119.1,74.1
		c0,0.3,0,0.5,0.1,0.7c0.1,0.2,0.2,0.4,0.4,0.6c0.2,0.2,0.3,0.3,0.6,0.4c0.2,0.1,0.5,0.1,0.8,0.1c0.4,0,0.7-0.1,1-0.2
		c0.3-0.1,0.6-0.4,0.8-0.6c0.2-0.3,0.4-0.6,0.5-0.9c0.1-0.3,0.2-0.7,0.2-1.1c0-0.3,0-0.5-0.1-0.7c-0.1-0.2-0.2-0.4-0.4-0.6
		s-0.4-0.3-0.6-0.4c-0.2-0.1-0.5-0.1-0.8-0.1c-0.4,0-0.7,0.1-1,0.2c-0.3,0.1-0.6,0.4-0.8,0.6c-0.2,0.3-0.4,0.6-0.5,0.9
		C119.2,73.4,119.1,73.8,119.1,74.1z"/>
	<path class="st4" d="M126.6,76.6h-0.8l1-5.8h0.8L126.6,76.6z M128.2,68.5c0,0.2-0.1,0.3-0.2,0.4c-0.1,0.1-0.2,0.2-0.4,0.2
		c-0.2,0-0.3,0-0.4-0.1c-0.1-0.1-0.2-0.2-0.2-0.4c0-0.2,0.1-0.3,0.2-0.4s0.3-0.2,0.4-0.2s0.3,0.1,0.4,0.2
		C128.1,68.2,128.2,68.4,128.2,68.5z"/>
	<path class="st4" d="M130.8,76.6h-0.9l-1.2-5.8h0.9l0.9,4.9h0l2.9-4.9h0.9L130.8,76.6z"/>
	<path class="st4" d="M135.3,76.6h-0.8l1-5.8h0.8L135.3,76.6z M136.8,68.5c0,0.2-0.1,0.3-0.2,0.4c-0.1,0.1-0.2,0.2-0.4,0.2
		c-0.2,0-0.3,0-0.4-0.1c-0.1-0.1-0.2-0.2-0.2-0.4c0-0.2,0.1-0.3,0.2-0.4s0.3-0.2,0.4-0.2s0.3,0.1,0.4,0.2
		C136.8,68.2,136.8,68.4,136.8,68.5z"/>
	<path class="st4" d="M141.3,72c-0.1-0.2-0.3-0.4-0.5-0.5c-0.2-0.1-0.5-0.2-0.8-0.2c-0.1,0-0.3,0-0.5,0c-0.2,0-0.3,0.1-0.4,0.2
		c-0.1,0.1-0.2,0.2-0.3,0.3c-0.1,0.1-0.1,0.3-0.1,0.4c0,0.2,0,0.3,0.1,0.4s0.1,0.2,0.2,0.3s0.2,0.1,0.4,0.2c0.1,0.1,0.3,0.1,0.5,0.2
		c0.6,0.2,1,0.4,1.3,0.6c0.3,0.3,0.4,0.6,0.4,1.1c0,0.3-0.1,0.6-0.2,0.8c-0.1,0.2-0.3,0.4-0.5,0.6s-0.5,0.2-0.7,0.3
		s-0.5,0.1-0.8,0.1c-0.5,0-0.9-0.1-1.4-0.3c-0.4-0.2-0.8-0.5-1-0.8l0.7-0.5c0.1,0.2,0.4,0.4,0.6,0.6c0.3,0.2,0.6,0.3,1,0.3
		c0.2,0,0.4,0,0.5-0.1s0.3-0.1,0.5-0.2c0.1-0.1,0.2-0.2,0.3-0.3c0.1-0.1,0.1-0.3,0.1-0.5c0-0.3-0.1-0.5-0.4-0.7
		c-0.2-0.2-0.6-0.3-1-0.5c-0.2-0.1-0.3-0.1-0.5-0.2c-0.2-0.1-0.3-0.2-0.5-0.3c-0.1-0.1-0.3-0.3-0.3-0.4c-0.1-0.2-0.1-0.4-0.1-0.6
		c0-0.3,0.1-0.6,0.2-0.8c0.1-0.2,0.3-0.4,0.5-0.5c0.2-0.1,0.4-0.2,0.7-0.3s0.5-0.1,0.8-0.1c0.4,0,0.8,0.1,1.2,0.3
		c0.3,0.2,0.6,0.4,0.8,0.7L141.3,72z"/>
	<path class="st4" d="M143.6,76.6h-0.8l1-5.8h0.8L143.6,76.6z M145.1,68.5c0,0.2-0.1,0.3-0.2,0.4c-0.1,0.1-0.2,0.2-0.4,0.2
		c-0.2,0-0.3,0-0.4-0.1c-0.1-0.1-0.2-0.2-0.2-0.4c0-0.2,0.1-0.3,0.2-0.4s0.3-0.2,0.4-0.2s0.3,0.1,0.4,0.2
		C145,68.2,145.1,68.4,145.1,68.5z"/>
	<path class="st4" d="M148.3,76.7c-0.4,0-0.7-0.1-1.1-0.2c-0.3-0.1-0.6-0.3-0.8-0.5c-0.2-0.2-0.4-0.5-0.5-0.8
		c-0.1-0.3-0.2-0.6-0.2-1c0-0.5,0.1-0.9,0.3-1.4c0.2-0.4,0.4-0.8,0.7-1.1s0.7-0.6,1.1-0.8c0.4-0.2,0.9-0.3,1.4-0.3
		c0.4,0,0.8,0.1,1.1,0.2c0.3,0.1,0.6,0.3,0.8,0.5c0.2,0.2,0.4,0.5,0.5,0.8s0.2,0.6,0.2,1c0,0.5-0.1,1-0.3,1.4
		c-0.2,0.4-0.4,0.8-0.7,1.1s-0.7,0.6-1.1,0.8C149.3,76.6,148.8,76.7,148.3,76.7z M150.9,73.2c0-0.3,0-0.5-0.1-0.7s-0.2-0.4-0.4-0.6
		c-0.2-0.2-0.4-0.3-0.6-0.4c-0.2-0.1-0.5-0.1-0.8-0.1c-0.4,0-0.7,0.1-1,0.2c-0.3,0.2-0.6,0.4-0.8,0.6s-0.4,0.6-0.5,0.9
		c-0.1,0.3-0.2,0.7-0.2,1.1c0,0.3,0,0.5,0.1,0.7s0.2,0.4,0.4,0.6c0.2,0.2,0.4,0.3,0.6,0.4c0.2,0.1,0.5,0.1,0.8,0.1
		c0.4,0,0.7-0.1,1-0.2s0.6-0.4,0.8-0.6c0.2-0.3,0.4-0.6,0.5-0.9S150.9,73.6,150.9,73.2z"/>
	<path class="st4" d="M154.6,70.8c0,0.2,0,0.3-0.1,0.5c0,0.2,0,0.3-0.1,0.5h0c0.2-0.4,0.5-0.6,0.9-0.8c0.4-0.2,0.7-0.3,1.1-0.3
		c0.6,0,1.1,0.2,1.5,0.5c0.4,0.3,0.5,0.7,0.5,1.3c0,0.1,0,0.2,0,0.3c0,0.1,0,0.2,0,0.3l-0.6,3.5H157l0.6-3.2c0-0.3,0.1-0.5,0.1-0.7
		c0-0.4-0.1-0.7-0.3-1c-0.2-0.2-0.5-0.4-1-0.4c-0.2,0-0.4,0-0.7,0.1c-0.2,0.1-0.4,0.2-0.6,0.4c-0.2,0.2-0.4,0.4-0.5,0.7
		s-0.3,0.6-0.3,1l-0.5,3h-0.8l0.8-4.5c0-0.2,0.1-0.4,0.1-0.6s0.1-0.5,0.1-0.7H154.6z"/>
	<path class="st4" d="M165.4,76.7c-0.4,0-0.7-0.1-1.1-0.2c-0.3-0.1-0.6-0.3-0.8-0.5c-0.2-0.2-0.4-0.5-0.5-0.8
		c-0.1-0.3-0.2-0.6-0.2-1c0-0.5,0.1-0.9,0.3-1.4c0.2-0.4,0.4-0.8,0.7-1.1s0.7-0.6,1.1-0.8c0.4-0.2,0.9-0.3,1.4-0.3
		c0.4,0,0.8,0.1,1.1,0.2c0.3,0.1,0.6,0.3,0.8,0.5c0.2,0.2,0.4,0.5,0.5,0.8s0.2,0.6,0.2,1c0,0.5-0.1,1-0.3,1.4
		c-0.2,0.4-0.4,0.8-0.7,1.1s-0.7,0.6-1.1,0.8C166.4,76.6,165.9,76.7,165.4,76.7z M168,73.2c0-0.3,0-0.5-0.1-0.7s-0.2-0.4-0.4-0.6
		c-0.2-0.2-0.4-0.3-0.6-0.4c-0.2-0.1-0.5-0.1-0.8-0.1c-0.4,0-0.7,0.1-1,0.2c-0.3,0.2-0.6,0.4-0.8,0.6s-0.4,0.6-0.5,0.9
		c-0.1,0.3-0.2,0.7-0.2,1.1c0,0.3,0,0.5,0.1,0.7s0.2,0.4,0.4,0.6c0.2,0.2,0.4,0.3,0.6,0.4c0.2,0.1,0.5,0.1,0.8,0.1
		c0.4,0,0.7-0.1,1-0.2s0.6-0.4,0.8-0.6c0.2-0.3,0.4-0.6,0.5-0.9S168,73.6,168,73.2z"/>
	<path class="st4" d="M173.3,71.5h-1.4l-0.9,5.1h-0.8l0.9-5.1h-1.2l0.1-0.7h1.2l0.3-1.6c0-0.3,0.1-0.6,0.2-0.8
		c0.1-0.3,0.2-0.5,0.4-0.7c0.2-0.2,0.4-0.3,0.6-0.5c0.2-0.1,0.5-0.2,0.9-0.2c0.1,0,0.2,0,0.3,0s0.2,0,0.3,0.1l-0.2,0.7
		c-0.2,0-0.4-0.1-0.6-0.1c-0.2,0-0.4,0-0.5,0.1c-0.1,0.1-0.3,0.2-0.4,0.3c-0.1,0.1-0.2,0.3-0.2,0.5s-0.1,0.4-0.1,0.6l-0.3,1.5h1.4
		L173.3,71.5z"/>
	<path class="st4" d="M181.3,75L181.3,75l4.2-7.2h1.3l-1.5,8.7h-0.9l1.3-7.6h0l-4.5,7.6h-0.5l-1.8-7.6h0l-1.3,7.6h-0.9l1.5-8.7h1.3
		L181.3,75z"/>
	<path class="st4" d="M190.1,76.7c-0.4,0-0.7-0.1-1.1-0.2c-0.3-0.1-0.6-0.3-0.8-0.5c-0.2-0.2-0.4-0.5-0.5-0.8
		c-0.1-0.3-0.2-0.6-0.2-1c0-0.5,0.1-0.9,0.3-1.4c0.2-0.4,0.4-0.8,0.7-1.1s0.7-0.6,1.1-0.8c0.4-0.2,0.9-0.3,1.4-0.3
		c0.4,0,0.8,0.1,1.1,0.2c0.3,0.1,0.6,0.3,0.8,0.5c0.2,0.2,0.4,0.5,0.5,0.8s0.2,0.6,0.2,1c0,0.5-0.1,1-0.3,1.4
		c-0.2,0.4-0.4,0.8-0.7,1.1s-0.7,0.6-1.1,0.8C191.1,76.6,190.6,76.7,190.1,76.7z M192.7,73.2c0-0.3,0-0.5-0.1-0.7s-0.2-0.4-0.4-0.6
		c-0.2-0.2-0.4-0.3-0.6-0.4c-0.2-0.1-0.5-0.1-0.8-0.1c-0.4,0-0.7,0.1-1,0.2c-0.3,0.2-0.6,0.4-0.8,0.6s-0.4,0.6-0.5,0.9
		c-0.1,0.3-0.2,0.7-0.2,1.1c0,0.3,0,0.5,0.1,0.7s0.2,0.4,0.4,0.6c0.2,0.2,0.4,0.3,0.6,0.4c0.2,0.1,0.5,0.1,0.8,0.1
		c0.4,0,0.7-0.1,1-0.2s0.6-0.4,0.8-0.6c0.2-0.3,0.4-0.6,0.5-0.9S192.7,73.6,192.7,73.2z"/>
	<path class="st4" d="M195.6,71.4c0-0.2,0.1-0.5,0.1-0.7h0.8c0,0.2,0,0.3-0.1,0.5c0,0.2,0,0.3-0.1,0.5h0c0.2-0.3,0.5-0.6,0.8-0.8
		c0.3-0.2,0.7-0.3,1.1-0.3c0.1,0,0.2,0,0.3,0c0.1,0,0.2,0,0.3,0l-0.2,0.8c0,0-0.1,0-0.2,0s-0.2,0-0.3,0c-0.2,0-0.4,0-0.7,0.1
		c-0.2,0.1-0.4,0.2-0.6,0.4c-0.2,0.2-0.3,0.4-0.5,0.7c-0.1,0.3-0.2,0.6-0.3,1l-0.5,3h-0.8l0.8-4.5C195.5,71.9,195.5,71.7,195.6,71.4
		z"/>
	<path class="st4" d="M198.7,77.8c0.2,0.3,0.5,0.5,0.9,0.7c0.4,0.2,0.8,0.3,1.2,0.3c0.4,0,0.8-0.1,1.1-0.2c0.3-0.1,0.5-0.3,0.7-0.5
		c0.2-0.2,0.4-0.5,0.5-0.7s0.2-0.6,0.3-0.9l0.2-1.1h0c-0.3,0.4-0.6,0.7-1,0.9c-0.4,0.2-0.8,0.3-1.2,0.3c-0.4,0-0.8-0.1-1.1-0.2
		c-0.3-0.1-0.6-0.3-0.8-0.5s-0.4-0.5-0.5-0.8c-0.1-0.3-0.2-0.6-0.2-1c0-0.5,0.1-0.9,0.3-1.3c0.2-0.4,0.4-0.8,0.7-1.1
		c0.3-0.3,0.7-0.6,1.1-0.7c0.4-0.2,0.9-0.3,1.3-0.3c0.2,0,0.4,0,0.6,0.1s0.4,0.1,0.6,0.2c0.2,0.1,0.3,0.2,0.5,0.4
		c0.1,0.1,0.3,0.3,0.3,0.5h0l0.2-1h0.8l-1,5.7c-0.1,0.3-0.1,0.6-0.3,1c-0.1,0.4-0.3,0.7-0.5,1c-0.2,0.3-0.6,0.5-1,0.7
		c-0.4,0.2-0.9,0.3-1.6,0.3c-0.6,0-1.1-0.1-1.5-0.3c-0.5-0.2-0.8-0.5-1.1-0.9L198.7,77.8z M199.6,74c0,0.2,0,0.5,0.1,0.7
		c0.1,0.2,0.2,0.4,0.4,0.6s0.3,0.3,0.6,0.4c0.2,0.1,0.5,0.1,0.8,0.1c0.4,0,0.7-0.1,1-0.2c0.3-0.1,0.6-0.3,0.8-0.6
		c0.2-0.2,0.4-0.5,0.5-0.9c0.1-0.3,0.2-0.7,0.2-1c0-0.3,0-0.5-0.1-0.7c-0.1-0.2-0.2-0.4-0.4-0.6c-0.2-0.2-0.4-0.3-0.6-0.4
		c-0.2-0.1-0.5-0.1-0.8-0.1c-0.4,0-0.7,0.1-1,0.2s-0.6,0.3-0.8,0.5c-0.2,0.2-0.4,0.5-0.5,0.9C199.7,73.3,199.6,73.6,199.6,74z"/>
	<path class="st4" d="M210.5,73c0-0.1,0-0.2,0-0.3c0-0.1,0-0.2,0-0.2c0-0.4-0.1-0.7-0.4-0.9c-0.2-0.2-0.6-0.3-1-0.3
		c-0.3,0-0.7,0.1-1,0.2c-0.3,0.1-0.6,0.3-0.8,0.5l-0.4-0.6c0.3-0.2,0.6-0.4,1-0.6c0.4-0.2,0.8-0.2,1.2-0.2c0.3,0,0.5,0,0.8,0.1
		c0.3,0.1,0.5,0.2,0.7,0.3c0.2,0.1,0.3,0.3,0.4,0.5s0.2,0.5,0.2,0.8c0,0.1,0,0.2,0,0.3c0,0.1,0,0.2,0,0.3l-0.4,2.3
		c0,0.2-0.1,0.5-0.1,0.7c0,0.2,0,0.4,0,0.6H210c0-0.1,0-0.3,0-0.5c0-0.2,0-0.3,0.1-0.5h0c-0.2,0.2-0.3,0.4-0.5,0.5
		c-0.2,0.1-0.3,0.2-0.5,0.3c-0.2,0.1-0.4,0.1-0.6,0.2c-0.2,0-0.4,0.1-0.7,0.1c-0.2,0-0.4,0-0.6-0.1s-0.4-0.1-0.6-0.3
		c-0.2-0.1-0.3-0.3-0.4-0.5s-0.2-0.4-0.2-0.7c0-0.5,0.1-0.8,0.4-1.1c0.3-0.3,0.6-0.5,1-0.7c0.4-0.2,0.9-0.3,1.4-0.3S210,73,210.5,73
		z M210.2,73.6c-0.4,0-0.8,0-1.1,0.1c-0.4,0-0.7,0.1-1.1,0.2s-0.6,0.2-0.8,0.4c-0.2,0.2-0.3,0.4-0.3,0.7c0,0.2,0,0.3,0.1,0.5
		c0.1,0.1,0.2,0.2,0.3,0.3c0.1,0.1,0.2,0.1,0.4,0.1c0.1,0,0.3,0,0.4,0c0.3,0,0.6,0,0.8-0.1c0.2-0.1,0.5-0.2,0.7-0.4
		c0.2-0.2,0.3-0.4,0.5-0.6c0.1-0.2,0.2-0.5,0.3-0.7l0.1-0.5H210.2z"/>
	<path class="st4" d="M214.5,70.8c0,0.2,0,0.3-0.1,0.5c0,0.2,0,0.3-0.1,0.5h0c0.2-0.4,0.5-0.6,0.9-0.8c0.4-0.2,0.7-0.3,1.1-0.3
		c0.6,0,1.1,0.2,1.5,0.5c0.4,0.3,0.5,0.7,0.5,1.3c0,0.1,0,0.2,0,0.3c0,0.1,0,0.2,0,0.3l-0.6,3.5h-0.8l0.6-3.2c0-0.3,0.1-0.5,0.1-0.7
		c0-0.4-0.1-0.7-0.3-1c-0.2-0.2-0.5-0.4-1-0.4c-0.2,0-0.4,0-0.7,0.1c-0.2,0.1-0.4,0.2-0.6,0.4c-0.2,0.2-0.4,0.4-0.5,0.7
		s-0.3,0.6-0.3,1l-0.5,3h-0.8l0.8-4.5c0-0.2,0.1-0.4,0.1-0.6s0.1-0.5,0.1-0.7H214.5z"/>
	<path class="st4" d="M224.7,75.3L224.7,75.3l3.7-7.5h1.1l0.7,7.5h0l3.6-7.5h0.9l-4.3,8.7h-1l-0.7-7.5h0l-3.7,7.5h-1l-0.9-8.7h0.9
		L224.7,75.3z"/>
	<path class="st4" d="M237.8,70.6c0.6,0,1.1,0.2,1.5,0.5c0.4,0.3,0.5,0.7,0.5,1.3c0,0.1,0,0.2,0,0.3c0,0.1,0,0.2,0,0.3l-0.6,3.5
		h-0.8l0.6-3.2c0-0.3,0.1-0.5,0.1-0.7c0-0.4-0.1-0.7-0.3-1c-0.2-0.2-0.5-0.4-1-0.4c-0.2,0-0.4,0-0.7,0.1c-0.2,0.1-0.4,0.2-0.6,0.4
		s-0.4,0.4-0.5,0.7c-0.1,0.3-0.2,0.6-0.3,1l-0.5,3h-0.8l1.6-9.3h0.8l-0.8,4.5h0c0.2-0.3,0.5-0.6,0.8-0.8
		C237,70.7,237.4,70.6,237.8,70.6z"/>
	<path class="st4" d="M241.9,76.6h-0.8l1-5.8h0.8L241.9,76.6z M243.5,68.5c0,0.2-0.1,0.3-0.2,0.4c-0.1,0.1-0.2,0.2-0.4,0.2
		c-0.2,0-0.3,0-0.4-0.1c-0.1-0.1-0.2-0.2-0.2-0.4c0-0.2,0.1-0.3,0.2-0.4s0.3-0.2,0.4-0.2c0.2,0,0.3,0.1,0.4,0.2
		C243.4,68.2,243.5,68.4,243.5,68.5z"/>
	<path class="st4" d="M247.3,71.5h-1.6l-0.6,3.4c0,0.1,0,0.3,0,0.4c0,0.3,0.1,0.5,0.2,0.5s0.3,0.1,0.5,0.1c0.1,0,0.2,0,0.4-0.1
		s0.2-0.1,0.3-0.1l-0.1,0.7c-0.1,0.1-0.2,0.1-0.4,0.1s-0.3,0-0.5,0c-0.1,0-0.3,0-0.4,0c-0.1,0-0.3-0.1-0.4-0.2s-0.2-0.2-0.3-0.4
		c-0.1-0.1-0.1-0.3-0.1-0.6c0-0.1,0-0.2,0-0.4l0.6-3.6h-1.2l0.1-0.7h1.2l0.3-1.6h0.8l-0.3,1.6h1.6L247.3,71.5z"/>
	<path class="st4" d="M248.5,73.9c0,0,0,0.1,0,0.1c0,0,0,0.1,0,0.1c0,0.3,0,0.5,0.1,0.7c0.1,0.2,0.2,0.4,0.4,0.6
		c0.2,0.2,0.4,0.3,0.6,0.4c0.2,0.1,0.5,0.1,0.7,0.1c0.5,0,0.8-0.1,1.2-0.3c0.3-0.2,0.6-0.4,0.8-0.7l0.5,0.5
		c-0.3,0.4-0.7,0.7-1.2,0.9c-0.4,0.2-0.9,0.3-1.4,0.3c-0.4,0-0.7-0.1-1-0.2s-0.6-0.3-0.8-0.5c-0.2-0.2-0.4-0.5-0.6-0.8
		c-0.1-0.3-0.2-0.7-0.2-1.1c0-0.5,0.1-0.9,0.3-1.3c0.2-0.4,0.4-0.8,0.7-1.1s0.7-0.6,1.1-0.8c0.4-0.2,0.8-0.3,1.3-0.3
		c0.8,0,1.4,0.2,1.8,0.6c0.4,0.4,0.6,1,0.6,1.6c0,0.1,0,0.2,0,0.5s0,0.4-0.1,0.5H248.5z M252.5,73.3c0-0.1,0-0.1,0-0.2
		c0-0.1,0-0.2,0-0.2c0-0.4-0.1-0.8-0.4-1.1c-0.3-0.3-0.7-0.4-1.2-0.4c-0.3,0-0.6,0.1-0.8,0.2s-0.5,0.2-0.7,0.4
		c-0.2,0.2-0.4,0.4-0.5,0.6c-0.1,0.2-0.2,0.5-0.3,0.7H252.5z"/>
	<path class="st4" d="M261.7,76c0.5,0,1-0.1,1.4-0.2c0.4-0.1,0.8-0.3,1.1-0.4l0.5-2.7h-2.1l0.1-0.8h2.9l-0.7,3.9
		c-0.5,0.3-1.1,0.5-1.6,0.7c-0.5,0.1-1.1,0.2-1.7,0.2c-0.6,0-1.1-0.1-1.6-0.3s-0.9-0.4-1.2-0.8c-0.3-0.3-0.6-0.7-0.8-1.2
		c-0.2-0.5-0.3-1-0.3-1.5c0-0.8,0.1-1.5,0.4-2.1c0.3-0.7,0.6-1.2,1.1-1.7c0.5-0.5,1-0.9,1.7-1.2c0.6-0.3,1.3-0.4,2-0.4
		c0.3,0,0.6,0,0.9,0.1s0.6,0.2,0.8,0.3c0.3,0.1,0.5,0.3,0.7,0.4c0.2,0.2,0.4,0.4,0.5,0.6l-0.8,0.5c-0.1-0.1-0.2-0.3-0.3-0.4
		c-0.1-0.1-0.3-0.3-0.5-0.4c-0.2-0.1-0.4-0.2-0.6-0.3c-0.2-0.1-0.5-0.1-0.8-0.1c-0.6,0-1.2,0.1-1.7,0.4c-0.5,0.3-1,0.6-1.3,1
		c-0.4,0.4-0.7,0.9-0.9,1.5c-0.2,0.6-0.3,1.1-0.3,1.7c0,0.4,0.1,0.8,0.2,1.2s0.3,0.7,0.6,1s0.6,0.5,1,0.7S261.2,76,261.7,76z"/>
	<path class="st4" d="M267.7,71.4c0-0.2,0.1-0.5,0.1-0.7h0.8c0,0.2,0,0.3-0.1,0.5c0,0.2,0,0.3-0.1,0.5h0c0.2-0.3,0.5-0.6,0.8-0.8
		c0.3-0.2,0.7-0.3,1.1-0.3c0.1,0,0.2,0,0.3,0c0.1,0,0.2,0,0.3,0l-0.2,0.8c0,0-0.1,0-0.2,0s-0.2,0-0.3,0c-0.2,0-0.4,0-0.7,0.1
		c-0.2,0.1-0.4,0.2-0.6,0.4c-0.2,0.2-0.3,0.4-0.5,0.7c-0.1,0.3-0.2,0.6-0.3,1l-0.5,3h-0.8l0.8-4.5C267.6,71.9,267.6,71.7,267.7,71.4
		z"/>
	<path class="st4" d="M273.4,76.7c-0.4,0-0.7-0.1-1.1-0.2c-0.3-0.1-0.6-0.3-0.8-0.5c-0.2-0.2-0.4-0.5-0.5-0.8
		c-0.1-0.3-0.2-0.6-0.2-1c0-0.5,0.1-0.9,0.3-1.4c0.2-0.4,0.4-0.8,0.7-1.1s0.7-0.6,1.1-0.8c0.4-0.2,0.9-0.3,1.4-0.3
		c0.4,0,0.8,0.1,1.1,0.2c0.3,0.1,0.6,0.3,0.8,0.5c0.2,0.2,0.4,0.5,0.5,0.8s0.2,0.6,0.2,1c0,0.5-0.1,1-0.3,1.4
		c-0.2,0.4-0.4,0.8-0.7,1.1s-0.7,0.6-1.1,0.8C274.4,76.6,273.9,76.7,273.4,76.7z M276,73.2c0-0.3,0-0.5-0.1-0.7s-0.2-0.4-0.4-0.6
		c-0.2-0.2-0.4-0.3-0.6-0.4c-0.2-0.1-0.5-0.1-0.8-0.1c-0.4,0-0.7,0.1-1,0.2c-0.3,0.2-0.6,0.4-0.8,0.6s-0.4,0.6-0.5,0.9
		c-0.1,0.3-0.2,0.7-0.2,1.1c0,0.3,0,0.5,0.1,0.7s0.2,0.4,0.4,0.6c0.2,0.2,0.4,0.3,0.6,0.4c0.2,0.1,0.5,0.1,0.8,0.1
		c0.4,0,0.7-0.1,1-0.2s0.6-0.4,0.8-0.6c0.2-0.3,0.4-0.6,0.5-0.9S276,73.6,276,73.2z"/>
	<path class="st4" d="M282,76.6c0-0.2,0-0.3,0.1-0.5s0-0.3,0.1-0.5h0c-0.2,0.4-0.5,0.6-0.9,0.8c-0.3,0.2-0.7,0.3-1.1,0.3
		c-0.6,0-1.1-0.2-1.5-0.5c-0.4-0.3-0.5-0.7-0.5-1.3c0-0.1,0-0.2,0-0.3c0-0.1,0-0.2,0-0.3l0.6-3.5h0.8l-0.6,3.2
		c0,0.3-0.1,0.5-0.1,0.7c0,0.4,0.1,0.7,0.3,1s0.5,0.3,1,0.3c0.2,0,0.4,0,0.7-0.1c0.2-0.1,0.4-0.2,0.6-0.4c0.2-0.2,0.4-0.4,0.5-0.7
		c0.1-0.3,0.3-0.6,0.3-1l0.5-3h0.8l-0.8,4.5c0,0.2-0.1,0.4-0.1,0.6s-0.1,0.5-0.1,0.7H282z"/>
	<path class="st4" d="M286.7,71.7c0.1-0.1,0.2-0.3,0.4-0.4c0.1-0.1,0.3-0.2,0.5-0.3c0.2-0.1,0.4-0.2,0.6-0.2
		c0.2-0.1,0.4-0.1,0.7-0.1c0.4,0,0.8,0.1,1.1,0.2c0.3,0.1,0.6,0.3,0.8,0.5c0.2,0.2,0.4,0.5,0.5,0.8c0.1,0.3,0.2,0.6,0.2,1
		c0,0.5-0.1,1-0.3,1.4c-0.2,0.4-0.4,0.8-0.7,1.1s-0.7,0.6-1.1,0.8c-0.4,0.2-0.9,0.3-1.4,0.3c-0.4,0-0.8-0.1-1.2-0.3
		c-0.4-0.2-0.6-0.5-0.8-0.8h0l-0.7,3.9h-0.8l1.6-8.7h0.8L286.7,71.7L286.7,71.7z M290.5,73.2c0-0.3,0-0.5-0.1-0.7s-0.2-0.4-0.4-0.6
		s-0.3-0.3-0.6-0.4c-0.2-0.1-0.5-0.1-0.8-0.1c-0.4,0-0.7,0.1-1,0.2c-0.3,0.1-0.6,0.4-0.8,0.6s-0.4,0.6-0.5,0.9
		c-0.1,0.3-0.2,0.7-0.2,1.1c0,0.3,0,0.5,0.1,0.7s0.2,0.4,0.4,0.6s0.4,0.3,0.6,0.4c0.2,0.1,0.5,0.1,0.8,0.1c0.4,0,0.7-0.1,1-0.2
		c0.3-0.1,0.6-0.4,0.8-0.6c0.2-0.3,0.4-0.6,0.5-0.9C290.5,73.9,290.5,73.6,290.5,73.2z"/>
	<circle class="st9" cx="45.7" cy="45.7" r="44.6"/>
	<path class="st4" d="M72.5,33.7c2.8,0,4.8,1.2,6.1,2.6c1.5,1.5,2.4,3.6,2.9,5c0.1,0.2,0.1,0.3,0.4,0.3l0.9-0.1
		c0.1,0,0.1-0.2,0.1-0.5l-0.4-7.3c0-0.3-0.1-0.5-0.4-0.5c-0.2,0-0.3,0.1-0.5,0.4L81.2,34c-0.2,0.3-0.4,0.4-0.9,0.1
		c-1.2-0.9-3.9-2-7.5-2c-6.7,0-11.6,1.4-14.7,11.2l-3,7.8l-4.6-10.2c0,0-1.9-4.6-2.7-4.6c-0.8,0-2.8,4.3-2.8,4.3S40.1,51.2,39.8,52
		l-0.1,0L34,35c-0.3-0.8,0.1-1.3,0.9-1.3h0.7c0.3,0,0.3-0.1,0.3-0.3v-0.9c0-0.2-0.1-0.3-0.3-0.3c-0.3,0-2,0.1-3.6,0.1
		c-0.2,0-0.4,0.5-0.7,1.2c-1.1,2.5-6.4,14.1-6.7,15h-0.1l-6.6-15.4c-0.1-0.4-0.4-0.8-0.9-0.8c-0.5,0-0.8,0.6-0.9,1
		c-0.7,1.8-8.2,22.3-8.6,23.1c-0.4,0.8-1,1.2-1.6,1.2H2.9c-0.2,0-0.3,0.1-0.3,0.3v1c0,0.1,0.1,0.2,0.2,0.2c0.3,0,3.6-0.1,5.6-0.1
		c2.3,0,3.5,0.1,3.9,0.1c0.2,0,0.3-0.1,0.3-0.3V58c0-0.2,0-0.3-0.3-0.3h-1c-0.9,0-1.2-0.5-1.2-1c0-2,4.2-14.1,5.3-17.3h0.1l5.3,13.1
		c0,0,1.2,2.9,2,2.9c1.1,0,2.9-4,2.9-4s4.9-11,5.2-11.8l0.1,0l5.7,16.9c0.3,0.8-0.1,1.3-0.9,1.3h-0.7c-0.3,0-0.3,0.1-0.3,0.3v0.9
		c0,0.2,0.1,0.3,0.3,0.3c0.3,0,1.2,0,3-0.1c0.3,0,0.5-0.1,0.7-0.3c0.2-0.1,0.3-0.3,0.4-0.5c0.1-0.4,6.6-14,6.9-15.1h0.1l6.6,14.9
		c0.1,0.4,0.4,0.8,0.9,0.8c2,0,2.6-0.8,3.4-3c0.4-1.2,2.8-7.9,4.9-13.6C64.6,35.7,68.6,33.7,72.5,33.7z M90,47.2
		c-0.4,0-7.3,0.1-10.4,0.1c-3,0-4.8-0.1-5.2-0.1c-0.1,0-0.2,0.1-0.2,0.3v0.8c0,0.2,0.1,0.3,0.3,0.3h1.5c1,0,1.3,0.4,1.3,1.7v2.7
		c0,1.9-0.1,2.9-0.9,3.4c-1.2,0.7-2.6,0.6-5,0.6c-3.6,0-6.2-2.3-9.2-4.7c-0.5-0.4-0.7-0.2-0.8,0c-0.1,0.2-0.6,1.4-0.7,1.7
		c-0.1,0.3-0.2,0.7,0.2,1.1c2.5,2.8,6.8,4,10.3,4c4.4,0,7.4-0.9,10.4-2.4c0.4-0.1,0.6-0.3,0.6-0.6c0-0.3-0.1-0.7-0.1-1.2v-4.8
		c0-1.1,0.4-1.4,1.1-1.4h6.9c0.2,0,0.3-0.1,0.3-0.3v-0.9C90.4,47.3,90.3,47.2,90,47.2z"/>
</g>
</a>
</svg>
