<?xml version="1.0" encoding="UTF-8"?>
<svg id="Layer_1" data-name="Layer 1" xmlns="http://www.w3.org/2000/svg" viewBox="0 0 1286.94 425.64">
  <defs>
    <style>
      .cls-1 {
        stroke-width: 0px;
      }
    </style>
  </defs>
  <rect class="cls-1" x="1084.83" y="394.63" width="200.01" height="6.26"/>
  <rect class="cls-1" y="394.1" width="187.63" height="6.26"/>
  <g>
    <path class="cls-1" d="M1027.88,250.82c.37-50.73,0-81.5,0-81.5,0-51.29-24.42-76.94-73.25-76.94-9.83,0-18.2,1-25.11,2.99-6.91,2-14.82,4.84-23.73,8.52-7.68,3.07-14.44,5.46-20.27,7.14-5.84,1.69-12.44,2.53-19.81,2.53-4.61,0-9.06-.69-13.36-2.07-4.31-1.38-9.52-3.61-15.67-6.68-7.99-3.99-15.43-7.06-22.34-9.21-6.91-2.15-14.97-3.22-24.19-3.22-8.6,0-16.28,1.38-23.04,4.15-6.76,2.76-14.28,6.61-22.57,11.52-8.6,4.92-15.74,8.52-21.42,10.83-5.69,2.3-12.06,3.46-19.12,3.46s-13.52-.99-19.35-2.99c-4.65-1.59-10.39-3.83-17.19-6.69-22.73-12.38-34.61-13.51-38.06-13.53-.66,0-1.28.28-1.71.79l-2.3,2.74-14.59,17.38c-1.26,1.5-.08,3.72,1.87,3.6,5.29-.33,9.45.52,12.72,1.99,3.66,1.64,6.73,4.36,8.86,7.75.75,1.19,1.38,2.46,1.89,3.78,2.99,7.75,3.36,16.87,3.9,25.08,3.12,47.22.41,137.92-62.87,159.21v12.77h167.14v-22.24c0,.07-18.35-2.16-19.56-18.08-.96-12.68-1.08-24.16-.94-36.67.17-15.64.16-31.29.36-46.93.21-16.2.84-32.43.84-48.63,0-19.09,15.62-34.71,34.71-34.71s34.71,15.62,34.71,34.71v124.41c0,14.1-8.54,22.77-20.69,26.35-.34.1-.68.2-1.03.29v22.09h123.06v-22.89c-11.29-3.85-19.08-12.36-19.08-25.83v-2.28c-.89-5.33,0-122.13,0-122.13,0-19.09,15.62-34.71,34.71-34.71s34.71,15.62,34.71,34.71v124.41c0,13.78-8.16,22.36-19.87,26.09-.45.14-.89.31-1.35.43v22.21h149.3v-10.53s-46.75-15.59-46.32-73.43Z"/>
    <path class="cls-1" d="M1279.48,304.18c-4,0-7.22-1.45-9.67-4.38-2.46-2.91-3.69-6.98-3.69-12.21v-155.76c0-60.98-76.56-68.21-121.83-61.14-18.94,2.95-37.29,8.48-55.79,13.34-18.19,4.78-37.27,6.16-55.94,3.95-3.53-.42-8.24-.24-9.22,3.18-.63,2.2.83,4.39,2.21,6.21,8.85,11.7,17.51,20.41,21.71,34.87,3.32,11.44,4.81,23.4,4.43,35.31h19.13c.27-1.21.49-2.42.64-3.61,1.48-11.49,2.2-21.05,8.08-31.31,5.57-9.71,14.02-17.85,24.11-22.75,12.2-5.92,30.46-10.27,42.13-2.2,11.13,7.69,15.21,22.91,10.64,35.48-7.58,20.83-29.66,27-47.78,35.51-19.4,9.11-39.91,18.92-53.53,36.1-13.83,17.43-13.5,40.18-4.23,59.63,9.74,20.44,27.53,35.38,47.11,46.06,26.39,14.39,56.98,19.36,84.9,6.24,8.51-4,16.3-9.42,24.92-13.19s18.55-5.81,27.4-2.63c8,2.87,13.88,9.33,20.53,14.33,6.63,4.98,15.36,8.47,23.75,8.47.62,0,6.89-.07,7.46-.16v-29.17c-.57-.09-6.84-.15-7.46-.15ZM1182.66,263.19c-.38,3.14-.91,6.23-1.65,9.22-2.4,9.68-8.09,19.02-17.03,23.43-11.13,5.49-25.41,1.94-34.21-6.8-8.8-8.74-12.53-21.72-11.94-34.12,1.25-26.56,17.96-50.34,38.81-65.7,5.04-3.71,26.52-17.01,26.52-17.07,0,17.33.13,34.66.06,51.99-.05,12.5.98,26.25-.55,39.05Z"/>
    <g>
      <path class="cls-1" d="M243.6,265.6c1.15-4.85,2.1-13.84,2.81-22.58h-12.43c-.28,1.02-.56,2.03-.88,3.04-1.42,4.5-3.23,8.9-5.66,13.24-9.94,17.78-26.76,31.93-46.52,37.35-22.75,6.24-48.02.55-66.77-13.49-21.94-16.42-31.2-42.84-33.98-69.26-4.59-43.72,8.53-106.7,62.05-112.01,20.73-2.06,54.18,3.05,69.05,18.61,5.61,5.88,9.29,13.36,10.61,21.37.09.53,1,9.71.39,9.71h25.37v-67.92h-22.01c-13.64,13.1-45.33-.06-45.33-.06-54.55-18.64-102.48,6.12-102.48,6.12-8.03,4.05-15.79,8.64-23.1,13.89C18.51,129.61-.49,173.48,2.39,217.64c3.95,60.43,48.29,114.78,109.45,123.54,30.93,4.43,63.44.59,89.9-16.95,16.34-10.83,29.6-26.01,37.15-44.01,2.01-4.78,3.53-9.65,4.71-14.61Z"/>
      <path class="cls-1" d="M621.86,167.39h-14.42c-5.4,107.57-77.75,107.61-77.75,107.61h0c-8.26,1.24-17.07,1.09-26.36-.74-22.28-4.41-39.95-20.66-44.5-43.16-.2-.99-.37-1.98-.52-2.97,29.94,1.12,65.7,3.12,91.89-13.43,23.4-14.78,32.29-42.5,29.36-69.8-4.73-44.14-52.65-61.29-91.17-60.89-47.25.48-88.95,20.7-112.82,62.28-10.76,18.74-16.13,39.01-16.13,60.82s5.53,43.01,16.59,61.74c26.06,44.14,77.75,62.98,128.19,58.68,30.21-2.57,59.5-12.64,81.88-33.54,32.83-30.63,37.38-82.42,35.76-126.32,0-.09,0-.18-.01-.27ZM456.25,194.81c-.89-21.02,1.95-43.36,12.43-61.89,8.8-15.54,28.53-30.44,45.61-20.09,10.56,6.4,10.48,19,8.42,30.7-7.8,44.35-66.32,54.43-66.46,51.28Z"/>
      <path class="cls-1" d="M336.11,225.37c-.26-38.44,1.71-75.35,25.1-107.42,19.64-26.92,49.24-45,81.3-53.16,2.56-.58,5.15-1.11,7.76-1.59,54.92-10.1,102.7-2.36,136.36,36.15,1.59,1.82,3.04,3.8,5.19,4.91,5.93,3.04,9.89-1.07,12.67-5.06,14.54-20.9,15.39-50.45,2.08-72.16-11.59-18.9-31.03-25.51-52.29-26.7-32.73-1.84-65.86,3.98-96.01,16.84-27.96,11.94-53.18,29.74-81.4,41.04-21.08,8.45-46.83,24.39-69.08,11.68-9.19-5.25-16.87-12.9-26.19-17.93-14.84-8.02-32.22-8.68-49.27-8.09v15.81c4.54-.1,8.86.05,12.73.68,4.2.68,8.48,1.59,12.03,3.93,4.71,3.1,8.13,8.31,8.93,13.88,1.42,10,1.38,21.64,1.44,32.07.06,9.81.12,19.62.2,29.42.03,3.72.15,7.44.15,11.15.03,19.64-.05,45.35-.39,77.73-.31,29.61-6.52,51.36-14.1,66.98-.29.59-.58,1.16-.87,1.73-12.23,24.16-27.5,32.86-27.5,32.86v4.67h161.03v-12.11c0,.76-49.35-15.89-49.9-97.31ZM540.06,14.16c35.23-.83,67.52,18.44,61.47,57.5-3.07-21.06-12.71-37.17-32.89-44.58-18.75-7.15-39.47-7.36-59.63-8.5,10.06-2.83,20.48-4.31,31.05-4.42Z"/>
    </g>
  </g>
  <g>
    <path class="cls-1" d="M254.63,370.93c5.66,0,10.68,1.1,15.05,3.3,4.37,2.2,7.76,5.34,10.18,9.4,2.42,4.06,3.62,8.76,3.62,14.1s-1.2,10.04-3.59,14.1c-2.39,4.06-5.76,7.22-10.11,9.47-4.34,2.25-9.4,3.38-15.16,3.38h-20.58v-53.76h20.58ZM265.47,408.86c2.49-2.47,3.73-6.13,3.73-10.98s-1.24-8.59-3.73-11.09c-2.49-2.5-6.1-3.75-10.84-3.75h-6.44v29.52h6.44c4.74,0,8.35-1.24,10.84-3.71Z"/>
    <path class="cls-1" d="M343.6,392.22v11.68h-21.68v8.67h24.6v12.12h-38.74v-53.76h38.74v12.12h-24.6v9.18h21.68Z"/>
    <path class="cls-1" d="M392.73,412.64c2.49,0,4.37-.32,5.64-.95,1.27-.64,1.9-1.66,1.9-3.08,0-1.17-.74-2.04-2.23-2.61-1.49-.56-3.97-1.19-7.43-1.87-4.3-.83-7.91-1.75-10.84-2.75-2.93-1-5.48-2.67-7.65-4.99-2.17-2.33-3.26-5.47-3.26-9.44,0-3.43.94-6.41,2.82-8.96s4.47-4.5,7.76-5.88c3.3-1.37,6.99-2.06,11.09-2.06,4.34,0,8.42.69,12.23,2.06,3.81,1.37,7.2,3.38,10.18,6.02l-7.18,9.91c-2.05-1.57-4.47-2.79-7.25-3.67s-5.57-1.32-8.35-1.32c-4.74,0-7.1,1.27-7.1,3.82,0,1.08.74,1.9,2.23,2.46,1.49.56,3.89,1.16,7.21,1.8,4.34.83,7.98,1.75,10.91,2.75,2.93,1,5.49,2.67,7.69,4.99s3.3,5.52,3.3,9.58c0,5.43-1.94,9.66-5.82,12.67-3.88,3.01-9.19,4.52-15.93,4.52-4.83,0-9.41-.8-13.73-2.39-4.32-1.59-8.09-3.76-11.31-6.5l7.4-9.91c2.78,1.86,5.63,3.29,8.53,4.3,2.9,1,5.97,1.51,9.19,1.51Z"/>
    <path class="cls-1" d="M437.99,370.93h14.13v53.76h-14.13v-53.76Z"/>
    <path class="cls-1" d="M533.84,401.55c-.44,4.6-1.89,8.74-4.36,12.41-2.47,3.67-5.76,6.54-9.89,8.59-4.13,2.06-8.78,3.08-13.95,3.08-5.52,0-10.48-1.22-14.9-3.67-4.42-2.45-7.88-5.79-10.4-10.02-2.51-4.24-3.77-8.92-3.77-14.06s1.26-9.84,3.77-14.1c2.51-4.26,5.98-7.61,10.4-10.06,4.42-2.45,9.39-3.67,14.9-3.67s10.68,1.24,14.9,3.71c4.22,2.47,7.65,5.94,10.29,10.39l-12.67,5.8c-3.08-4.65-7.25-6.98-12.52-6.98-2.78,0-5.31.65-7.58,1.95s-4.06,3.08-5.38,5.36c-1.32,2.28-1.98,4.81-1.98,7.6s.66,5.24,1.98,7.49c1.32,2.25,3.11,4.03,5.38,5.32,2.27,1.3,4.8,1.95,7.58,1.95,3.27,0,6.08-.77,8.42-2.31,2.34-1.54,3.83-3.61,4.47-6.21h-16.33v-10.8h31.85l.07,2.5c0,1.62-.1,3.53-.29,5.73Z"/>
    <path class="cls-1" d="M607.21,424.68h-13.33l-21.16-28.86v28.86h-14.13v-53.76h13.33l21.09,29.01v-29.01h14.21v53.76Z"/>
    <path class="cls-1" d="M692.81,412.64c2.49,0,4.37-.32,5.64-.95,1.27-.64,1.9-1.66,1.9-3.08,0-1.17-.74-2.04-2.23-2.61-1.49-.56-3.97-1.19-7.43-1.87-4.3-.83-7.91-1.75-10.84-2.75s-5.48-2.67-7.65-4.99c-2.17-2.33-3.26-5.47-3.26-9.44,0-3.43.94-6.41,2.82-8.96,1.88-2.55,4.47-4.5,7.76-5.88,3.3-1.37,6.99-2.06,11.09-2.06,4.34,0,8.42.69,12.23,2.06,3.81,1.37,7.2,3.38,10.18,6.02l-7.18,9.91c-2.05-1.57-4.47-2.79-7.25-3.67s-5.57-1.32-8.35-1.32c-4.74,0-7.1,1.27-7.1,3.82,0,1.08.74,1.9,2.23,2.46,1.49.56,3.89,1.16,7.21,1.8,4.34.83,7.98,1.75,10.91,2.75,2.93,1,5.49,2.67,7.69,4.99s3.3,5.52,3.3,9.58c0,5.43-1.94,9.66-5.82,12.67-3.88,3.01-9.19,4.52-15.93,4.52-4.83,0-9.41-.8-13.73-2.39-4.32-1.59-8.09-3.76-11.31-6.5l7.4-9.91c2.78,1.86,5.63,3.29,8.53,4.3,2.9,1,5.97,1.51,9.19,1.51Z"/>
    <path class="cls-1" d="M763.4,424.68h-14.21v-41.64h-14.72v-12.12h43.57v12.12h-14.65v41.64Z"/>
    <path class="cls-1" d="M803.82,414.73c-2-3.45-3-7.45-3-12.01v-31.8h14.13v31.8c0,3.13.9,5.57,2.71,7.31,1.81,1.74,4.27,2.61,7.4,2.61s5.43-.87,7.21-2.61c1.78-1.74,2.67-4.17,2.67-7.31v-31.8h14.21v31.8c0,4.55-1,8.56-3,12.01-2,3.45-4.82,6.13-8.46,8.04-3.64,1.91-7.85,2.86-12.63,2.86s-9.08-.95-12.74-2.86c-3.66-1.91-6.49-4.59-8.49-8.04Z"/>
    <path class="cls-1" d="M896.09,370.93c5.66,0,10.68,1.1,15.05,3.3,4.37,2.2,7.76,5.34,10.18,9.4,2.42,4.06,3.62,8.76,3.62,14.1s-1.2,10.04-3.59,14.1c-2.39,4.06-5.76,7.22-10.11,9.47-4.34,2.25-9.4,3.38-15.16,3.38h-20.58v-53.76h20.58ZM906.93,408.86c2.49-2.47,3.73-6.13,3.73-10.98s-1.24-8.59-3.73-11.09c-2.49-2.5-6.1-3.75-10.84-3.75h-6.44v29.52h6.44c4.74,0,8.35-1.24,10.84-3.71Z"/>
    <path class="cls-1" d="M949.25,370.93h14.13v53.76h-14.13v-53.76Z"/>
    <path class="cls-1" d="M991.47,412.09c-2.42-4.23-3.62-9-3.62-14.28s1.21-10.04,3.62-14.25c2.42-4.21,5.81-7.52,10.18-9.91,4.37-2.4,9.41-3.6,15.12-3.6s10.78,1.2,15.19,3.6c4.42,2.4,7.85,5.7,10.29,9.91,2.44,4.21,3.66,8.96,3.66,14.25s-1.22,10.05-3.66,14.28c-2.44,4.24-5.87,7.55-10.29,9.95-4.42,2.4-9.48,3.6-15.19,3.6s-10.75-1.2-15.12-3.6c-4.37-2.4-7.76-5.72-10.18-9.95ZM1003.99,390.31c-1.29,2.25-1.94,4.75-1.94,7.49s.65,5.31,1.94,7.56c1.29,2.25,3.06,4.03,5.31,5.32,2.25,1.3,4.76,1.95,7.54,1.95s5.3-.65,7.54-1.95c2.25-1.3,4.02-3.07,5.31-5.32,1.29-2.25,1.94-4.77,1.94-7.56s-.65-5.24-1.94-7.49c-1.29-2.25-3.06-4.03-5.31-5.32-2.25-1.3-4.76-1.95-7.54-1.95s-5.3.65-7.54,1.95c-2.25,1.3-4.02,3.07-5.31,5.32Z"/>
  </g>
</svg>