<?xml version="1.0" encoding="UTF-8"?>
<svg id="Layer_1" data-name="Layer 1" xmlns="http://www.w3.org/2000/svg" viewBox="0 0 945.86 832.51">
  <defs>
    <style>
      .cls-1 {
        fill: #fff;
        stroke-width: 0px;
      }
    </style>
  </defs>
  <g>
    <path class="cls-1" d="M196.89,657.56c-1.84-2.13-3.03-4.47-3.59-7.01-.56-2.54-.43-5.01.38-7.42.81-2.4,2.25-4.5,4.31-6.27,2.05-1.76,4.31-2.86,6.8-3.29,2.49-.43,4.95-.19,7.39.73s4.58,2.45,6.41,4.58c2.18,2.54,3.46,5.2,3.83,8,.38,2.8-.1,5.43-1.43,7.9l-6.39-3.36c.61-1.45.84-2.88.67-4.26-.16-1.39-.76-2.68-1.79-3.88-.92-1.07-2.01-1.83-3.27-2.29-1.26-.46-2.55-.56-3.86-.31-1.31.25-2.51.84-3.58,1.76-1.07.92-1.83,2.01-2.27,3.28-.44,1.26-.54,2.55-.28,3.88s.84,2.52,1.76,3.58c1.08,1.26,2.32,2.07,3.72,2.44,1.4.37,2.8.3,4.19-.2l2.37,6.87c-2.66.97-5.35,1.05-8.06.27-2.71-.79-5.15-2.45-7.33-4.98Z"/>
    <path class="cls-1" d="M222.59,677.15l-4.58,2.24-5.77-5.42,27.26-12.39,5.72,5.37-10.68,27.96-5.78-5.42,1.94-4.71-8.11-7.62ZM236.58,670.41l-8.24,3.99,4.76,4.47,3.49-8.45Z"/>
    <path class="cls-1" d="M268.34,700.16l-3.67,4.77-8.82-6.78-6.53,8.49-5.77-4.44,16.88-21.95,15.81,12.16-3.8,4.95-10.04-7.73-2.88,3.75,8.82,6.78Z"/>
    <path class="cls-1" d="M293.87,717.06l-3.23,5.07-9.38-5.98-5.75,9.03-6.14-3.92,14.88-23.35,16.82,10.73-3.35,5.26-10.68-6.82-2.54,3.99,9.38,5.98Z"/>
    <path class="cls-1" d="M320.81,731.63l-2.77,5.34-9.91-5.14-2.05,3.96,11.25,5.83-2.87,5.54-17.71-9.18,12.75-24.59,17.71,9.18-2.87,5.54-11.25-5.83-2.18,4.2,9.91,5.14Z"/>
    <path class="cls-1" d="M336.8,726.84l6.69,2.86-10.89,25.46-6.69-2.86,10.89-25.46Z"/>
    <path class="cls-1" d="M369.23,768.34l-6.51-2.17-5.65-17.55-4.69,14.11-6.91-2.3,8.73-26.28,6.51,2.17,5.6,17.61,4.71-14.18,6.94,2.31-8.73,26.28Z"/>
    <path class="cls-1" d="M391.08,768.95l-2.77,4.28-7.74-1.66,16.94-24.69,7.67,1.64,5.3,29.46-7.74-1.66-.77-5.04-10.88-2.33ZM399.57,755.96l-5,7.67,6.38,1.37-1.38-9.04Z"/>
    <path class="cls-1" d="M431.9,780.67l-7.27-.87,2.55-21.3-7.53-.9.74-6.2,22.29,2.67-.74,6.2-7.49-.9-2.55,21.3Z"/>
    <path class="cls-1" d="M470.44,766.22l-.18,6.01-11.16-.33-.13,4.46,12.67.38-.19,6.24-19.94-.59.82-27.68,19.94.59-.19,6.24-12.67-.38-.14,4.73,11.16.33Z"/>
    <path class="cls-1" d="M493.04,754.5c2.91-.19,5.53.2,7.85,1.18,2.32.98,4.17,2.48,5.55,4.48,1.38,2.01,2.16,4.38,2.35,7.12.18,2.74-.27,5.2-1.36,7.37-1.09,2.17-2.71,3.91-4.87,5.21-2.16,1.31-4.71,2.06-7.67,2.25l-10.58.7-1.84-27.63,10.57-.7ZM499.91,773.62c1.2-1.36,1.71-3.28,1.54-5.77-.17-2.52-.93-4.37-2.3-5.57-1.37-1.2-3.26-1.72-5.7-1.56l-3.31.22,1.01,15.17,3.31-.22c2.43-.16,4.25-.92,5.44-2.28Z"/>
    <path class="cls-1" d="M554.92,773.81c-2.74.63-5.37.6-7.88-.09s-4.64-1.95-6.39-3.79c-1.75-1.84-2.93-4.08-3.55-6.73-.61-2.63-.52-5.15.25-7.55.77-2.4,2.14-4.47,4.09-6.2,1.95-1.73,4.3-2.91,7.04-3.54,3.26-.75,6.21-.64,8.86.33,2.65.97,4.76,2.62,6.33,4.95l-5.95,4.09c-1-1.22-2.16-2.08-3.46-2.58-1.3-.5-2.73-.58-4.27-.22-1.37.32-2.55.93-3.55,1.83-.99.9-1.68,1.99-2.07,3.27-.39,1.28-.42,2.61-.11,3.98s.93,2.55,1.84,3.54c.91.98,2.01,1.67,3.3,2.05s2.62.43,3.99.11c1.62-.37,2.92-1.09,3.9-2.16.98-1.07,1.57-2.34,1.77-3.81l7.18,1.1c-.38,2.81-1.56,5.22-3.51,7.25-1.96,2.03-4.57,3.42-7.82,4.17Z"/>
    <path class="cls-1" d="M586.75,755.57l-2.64.91,2.7,7.83-6.88,2.37-9.04-26.17,10.56-3.64c2.14-.74,4.17-1,6.08-.78,1.91.22,3.56.88,4.95,1.97,1.39,1.09,2.39,2.54,3.01,4.32.6,1.74.73,3.41.37,5.01-.35,1.6-1.13,3.04-2.34,4.31l8.52,7.34-7.95,2.74-7.34-6.23ZM583.33,742.66l-3.57,1.23,2.37,6.87,3.57-1.23c1.31-.45,2.2-1.1,2.66-1.94.47-.84.52-1.77.17-2.8-.35-1.03-.99-1.75-1.9-2.16-.92-.42-2.02-.41-3.3.04Z"/>
    <path class="cls-1" d="M623.83,731.25l2.5,5.47-10.16,4.64,1.85,4.06,11.53-5.26,2.59,5.68-18.15,8.29-11.5-25.19,18.15-8.29,2.59,5.68-11.53,5.26,1.96,4.3,10.16-4.64Z"/>
    <path class="cls-1" d="M647.39,732.29l.84,5.03-6.84,3.99-4.12-29.66,6.78-3.95,23.76,18.2-6.84,3.99-3.97-3.21-9.61,5.61ZM644.91,716.97l1.47,9.04,5.64-3.29-7.11-5.75Z"/>
    <path class="cls-1" d="M685.43,713.49l-5.96,4.25-12.45-17.47-6.18,4.4-3.62-5.08,18.28-13.02,3.62,5.08-6.14,4.38,12.45,17.47Z"/>
    <path class="cls-1" d="M683.16,680.32l5.6-4.65,17.68,21.32-5.6,4.65-17.68-21.32Z"/>
    <path class="cls-1" d="M728.78,676.42l-5.58,5.46-27.43-11.89,5.76-5.65,18.17,8.36-7.99-18.34,5.76-5.65,11.3,27.7Z"/>
    <path class="cls-1" d="M743.52,634.94l4.61,3.86-7.17,8.56,3.42,2.86,8.14-9.72,4.79,4.01-12.81,15.3-21.23-17.77,12.81-15.3,4.79,4.01-8.14,9.72,3.63,3.03,7.17-8.56Z"/>
  </g>
  <g>
    <path class="cls-1" d="M865.99,504.44c-16.43,73.92-53.5,141.79-108.34,196.63-76.08,76.08-177.22,117.97-284.81,117.97s-208.74-41.9-284.81-117.97c-52.71-52.71-88.99-117.45-106.32-188.03-1.02-.12-2.04-.24-3.06-.39-3.88-.56-7.69-1.35-11.43-2.33,17.3,75.25,55.34,144.32,111.29,200.27,78.62,78.62,183.15,121.92,294.34,121.92s215.72-43.3,294.34-121.92c59.01-59.01,98.11-132.61,113.96-212.66-1.73.95-3.52,1.89-5.42,2.78-3.17,1.49-6.41,2.72-9.72,3.73Z"/>
    <path class="cls-1" d="M188.02,131.44C264.1,55.37,365.25,13.47,472.83,13.47s208.74,41.9,284.81,117.97c43.25,43.25,75.43,94.6,95.17,150.63,3.18-.19,6.38-.32,9.54-.32,1.56,0,3.1.02,4.62.07-20.25-59.55-54.03-114.12-99.81-159.9C688.55,43.3,584.02,0,472.83,0s-215.72,43.3-294.34,121.92c-47.82,47.82-82.54,105.23-102.43,167.88,4.49-.87,9.43-1.52,14.76-1.83,19.53-58.32,52.44-111.77,97.2-156.53Z"/>
  </g>
  <path class="cls-1" d="M151.28,266.2C239.45,65.09,492.8-5.15,672.98,119.34c42.46,29.17,78.22,67.69,104.06,112.15,0,0,6.26,11.17,6.26,11.17l5.84,11.39,5.35,11.61,4.93,11.79C672.5,1.09,287.65-5.41,151.28,266.2h0Z"/>
  <g>
    <path class="cls-1" d="M755.15,431.14c.27-37.35,0-60,0-60,0-37.76-17.98-56.64-53.93-56.64-7.24,0-13.4.74-18.48,2.2-5.09,1.47-10.91,3.56-17.47,6.27-5.65,2.26-10.63,4.02-14.92,5.26-4.3,1.24-9.16,1.87-14.58,1.87-3.39,0-6.67-.51-9.84-1.53-3.17-1.02-7.01-2.66-11.53-4.92-5.88-2.94-11.36-5.2-16.45-6.78-5.09-1.58-11.02-2.37-17.81-2.37-6.33,0-11.99,1.02-16.96,3.05-4.98,2.03-10.51,4.87-16.62,8.48-6.33,3.62-11.59,6.27-15.77,7.97-4.19,1.7-8.88,2.54-14.08,2.54s-9.95-.73-14.25-2.2c-3.43-1.17-7.65-2.82-12.66-4.92-16.73-9.11-25.48-9.95-28.02-9.96-.49,0-.94.21-1.26.58l-1.69,2.02-10.74,12.79c-.93,1.1-.06,2.74,1.37,2.65,3.89-.24,6.96.39,9.37,1.47,2.69,1.21,4.95,3.21,6.52,5.71.55.88,1.02,1.81,1.39,2.78,2.2,5.7,2.47,12.42,2.87,18.47,2.3,34.76.3,101.53-46.28,117.21v9.4h123.05v-16.38c0,.05-13.51-1.59-14.4-13.31-.71-9.34-.79-17.78-.69-26.99.13-11.52.12-23.03.27-34.55.15-11.93.62-23.87.62-35.8,0-14.06,11.5-25.55,25.55-25.55s25.55,11.5,25.55,25.55v91.59c0,10.38-6.28,16.77-15.23,19.4-.25.07-.5.15-.76.21v16.26h90.59v-16.85c-8.31-2.84-14.05-9.1-14.05-19.02v-1.68c-.65-3.92,0-89.91,0-89.91,0-14.06,11.5-25.55,25.55-25.55s25.55,11.5,25.55,25.55v91.59c0,10.15-6.01,16.46-14.63,19.21-.33.11-.65.22-.99.32v16.35h109.91v-7.75s-34.41-11.48-34.1-54.06Z"/>
    <path class="cls-1" d="M940.37,470.42c-2.94,0-5.31-1.07-7.12-3.22-1.81-2.15-2.72-5.14-2.72-8.99v-114.66c0-44.89-56.36-50.21-89.69-45.01-13.94,2.17-27.45,6.24-41.07,9.82-13.39,3.52-27.43,4.53-41.18,2.91-2.6-.31-6.07-.18-6.79,2.34-.46,1.62.61,3.23,1.62,4.58,6.52,8.62,12.89,15.03,15.98,25.67,2.45,8.42,3.54,17.23,3.26,25.99h14.08c.2-.89.36-1.78.47-2.66,1.09-8.46,1.62-15.5,5.95-23.05,4.1-7.15,10.32-13.14,17.75-16.75,8.98-4.36,22.42-7.56,31.01-1.62,8.19,5.66,11.2,16.87,7.83,26.12-5.58,15.33-21.83,19.87-35.17,26.14-14.28,6.71-29.38,13.93-39.41,26.57-10.18,12.83-9.94,29.58-3.11,43.9,7.17,15.05,20.26,26.04,34.68,33.91,19.43,10.6,41.94,14.25,62.5,4.59,6.26-2.94,12-6.94,18.34-9.71,6.34-2.78,13.66-4.27,20.17-1.94,5.89,2.11,10.22,6.87,15.12,10.55,4.88,3.67,11.31,6.24,17.48,6.24.45,0,5.07-.05,5.49-.12v-21.47c-.42-.07-5.03-.11-5.49-.11ZM869.1,440.25c-.28,2.31-.67,4.59-1.21,6.79-1.76,7.12-5.96,14-12.54,17.25-8.19,4.04-18.7,1.43-25.19-5.01-6.48-6.44-9.22-15.99-8.79-25.12.92-19.55,13.22-37.06,28.57-48.37,3.71-2.73,19.52-12.52,19.52-12.57,0,12.76.1,25.51.04,38.27-.04,9.2.72,19.33-.41,28.75Z"/>
    <g>
      <path class="cls-1" d="M177.79,442.01c.85-3.57,1.55-10.19,2.07-16.62h-9.15c-.21.75-.41,1.5-.65,2.24-1.05,3.32-2.38,6.55-4.17,9.75-7.32,13.09-19.7,23.51-34.25,27.5-16.75,4.59-35.35.41-49.16-9.93-16.15-12.09-22.97-31.54-25.01-50.98-3.38-32.19,6.28-78.55,45.68-82.46,15.26-1.52,39.89,2.24,50.83,13.7,4.13,4.33,6.84,9.83,7.81,15.73.06.39.73,7.15.29,7.15h18.68v-50h-16.21c-10.04,9.65-33.37-.05-33.37-.05-40.16-13.72-75.44,4.5-75.44,4.5-5.91,2.98-11.63,6.36-17,10.22C12.08,341.9-1.91,374.2.21,406.71c2.91,44.49,35.55,84.5,80.58,90.94,22.77,3.26,46.7.44,66.18-12.48,12.03-7.98,21.79-19.14,27.35-32.4,1.48-3.52,2.6-7.11,3.47-10.76Z"/>
      <path class="cls-1" d="M456.25,369.72h-10.61c-3.98,79.19-57.24,79.22-57.24,79.22h0c-6.08.91-12.57.81-19.41-.55-16.4-3.24-29.41-15.21-32.76-31.77-.15-.73-.28-1.45-.39-2.19,22.04.83,48.37,2.29,67.65-9.88,17.22-10.88,23.77-31.29,21.62-51.39-3.48-32.5-38.76-45.12-67.11-44.83-34.79.36-65.48,15.24-83.05,45.85-7.92,13.79-11.87,28.72-11.87,44.77s4.07,31.66,12.21,45.45c19.19,32.5,57.24,46.36,94.37,43.2,22.24-1.89,43.8-9.31,60.28-24.69,24.17-22.55,27.52-60.67,26.33-93,0-.06,0-.13-.01-.2ZM334.33,389.9c-.66-15.48,1.43-31.92,9.15-45.56,6.47-11.44,21-22.41,33.58-14.79,7.78,4.71,7.71,13.99,6.2,22.6-5.74,32.65-48.83,40.07-48.92,37.75Z"/>
      <path class="cls-1" d="M445,266.39c-8.53-13.91-22.84-18.78-38.49-19.66-24.09-1.35-48.48,2.93-70.68,12.4-20.59,8.79-39.15,21.89-59.93,30.22-15.52,6.22-34.47,17.95-50.85,8.6-6.77-3.87-12.42-9.49-19.28-13.2-10.93-5.91-23.72-6.39-36.27-5.96v11.64c3.34-.08,6.53.04,9.37.5,3.09.5,6.24,1.17,8.86,2.89,3.46,2.28,5.99,6.11,6.57,10.22,1.05,7.37,1.02,15.93,1.06,23.61.04,7.22.09,14.44.15,21.66.02,2.74.11,5.48.11,8.21.02,14.46-.04,33.39-.29,57.22-.23,21.8-4.8,37.81-10.38,49.31-.21.43-.42.85-.64,1.27-9,17.78-20.25,24.19-20.25,24.19v3.44h118.55v-8.91c0,.56-36.33-11.7-36.74-71.64-.19-28.3,1.26-55.47,18.48-79.08,14.46-19.82,36.25-33.12,59.85-39.14,1.89-.42,3.79-.82,5.71-1.17,40.43-7.44,75.61-1.73,100.38,26.62,1.17,1.34,2.24,2.8,3.82,3.61,4.37,2.24,7.28-.78,9.33-3.73,10.7-15.39,11.33-37.14,1.53-53.12ZM441.28,299.25c-2.26-15.5-9.36-27.36-24.21-32.82-13.81-5.27-29.06-5.42-43.9-6.26,7.41-2.08,15.08-3.18,22.86-3.25,25.93-.61,49.71,13.57,45.25,42.33Z"/>
    </g>
  </g>
  <g>
    <path class="cls-1" d="M177.35,517.07c4.6,0,8.68.9,12.23,2.69,3.55,1.79,6.31,4.34,8.27,7.64,1.96,3.3,2.95,7.12,2.95,11.46s-.97,8.16-2.92,11.46c-1.94,3.3-4.68,5.87-8.21,7.7-3.53,1.83-7.64,2.75-12.32,2.75h-16.73v-43.7h16.73ZM186.16,547.9c2.02-2.01,3.04-4.98,3.04-8.92s-1.01-6.98-3.04-9.01c-2.02-2.03-4.96-3.04-8.81-3.04h-5.24v24h5.24c3.85,0,6.79-1,8.81-3.01Z"/>
    <path class="cls-1" d="M247.77,534.38v9.49h-17.62v7.04h20v9.85h-31.49v-43.7h31.49v9.85h-20v7.46h17.62Z"/>
    <path class="cls-1" d="M285.81,550.98c2.02,0,3.55-.26,4.58-.78,1.03-.52,1.55-1.35,1.55-2.51,0-.96-.61-1.66-1.82-2.12-1.21-.46-3.22-.97-6.04-1.52-3.49-.68-6.43-1.42-8.81-2.24-2.38-.82-4.45-2.17-6.22-4.06-1.77-1.89-2.65-4.45-2.65-7.67,0-2.79.76-5.21,2.29-7.28,1.53-2.07,3.63-3.66,6.31-4.78,2.68-1.11,5.68-1.67,9.02-1.67,3.53,0,6.84.56,9.94,1.67,3.1,1.11,5.85,2.75,8.27,4.9l-5.83,8.06c-1.67-1.27-3.63-2.27-5.89-2.98s-4.52-1.07-6.79-1.07c-3.85,0-5.77,1.03-5.77,3.1,0,.88.6,1.54,1.82,2,1.21.46,3.16.95,5.86,1.46,3.53.68,6.49,1.42,8.87,2.24s4.46,2.17,6.25,4.06c1.79,1.89,2.68,4.49,2.68,7.79,0,4.42-1.58,7.85-4.73,10.3-3.15,2.45-7.47,3.67-12.95,3.67-3.93,0-7.65-.65-11.16-1.94-3.51-1.29-6.58-3.05-9.2-5.28l6.01-8.06c2.26,1.51,4.57,2.68,6.93,3.49,2.36.82,4.85,1.22,7.47,1.22Z"/>
    <path class="cls-1" d="M320.69,517.07h11.49v43.7h-11.49v-43.7Z"/>
    <path class="cls-1" d="M396.7,541.96c-.36,3.74-1.54,7.1-3.54,10.09-2,2.98-4.68,5.31-8.04,6.98-3.35,1.67-7.13,2.51-11.34,2.51-4.48,0-8.52-.99-12.11-2.98-3.59-1.99-6.41-4.71-8.45-8.15-2.04-3.44-3.07-7.25-3.07-11.43s1.02-8,3.07-11.46c2.04-3.46,4.86-6.19,8.45-8.18,3.59-1.99,7.63-2.98,12.11-2.98s8.68,1.01,12.11,3.02c3.43,2.01,6.22,4.83,8.36,8.45l-10.3,4.72c-2.5-3.78-5.89-5.67-10.18-5.67-2.26,0-4.32.53-6.16,1.58-1.85,1.05-3.3,2.51-4.37,4.36s-1.61,3.91-1.61,6.18.54,4.26,1.61,6.09c1.07,1.83,2.53,3.27,4.37,4.33,1.85,1.05,3.9,1.58,6.16,1.58,2.66,0,4.94-.63,6.84-1.88,1.9-1.25,3.12-2.93,3.63-5.04h-13.27v-8.78h25.89l.06,2.03c0,1.31-.08,2.87-.24,4.66Z"/>
    <path class="cls-1" d="M454.44,560.77h-10.83l-17.2-23.46v23.46h-11.49v-43.7h10.83l17.14,23.58v-23.58h11.55v43.7Z"/>
    <path class="cls-1" d="M520.22,550.98c2.02,0,3.55-.26,4.58-.78,1.03-.52,1.55-1.35,1.55-2.51,0-.96-.61-1.66-1.82-2.12-1.21-.46-3.22-.97-6.04-1.52-3.49-.68-6.43-1.42-8.81-2.24-2.38-.82-4.45-2.17-6.22-4.06-1.77-1.89-2.65-4.45-2.65-7.67,0-2.79.76-5.21,2.29-7.28,1.53-2.07,3.63-3.66,6.31-4.78,2.68-1.11,5.68-1.67,9.02-1.67,3.53,0,6.84.56,9.94,1.67,3.1,1.11,5.85,2.75,8.27,4.9l-5.83,8.06c-1.67-1.27-3.63-2.27-5.89-2.98s-4.52-1.07-6.79-1.07c-3.85,0-5.77,1.03-5.77,3.1,0,.88.6,1.54,1.82,2,1.21.46,3.16.95,5.86,1.46,3.53.68,6.49,1.42,8.87,2.24s4.46,2.17,6.25,4.06c1.79,1.89,2.68,4.49,2.68,7.79,0,4.42-1.58,7.85-4.73,10.3-3.15,2.45-7.47,3.67-12.95,3.67-3.93,0-7.65-.65-11.16-1.94-3.51-1.29-6.58-3.05-9.2-5.28l6.01-8.06c2.26,1.51,4.57,2.68,6.93,3.49,2.36.82,4.85,1.22,7.47,1.22Z"/>
    <path class="cls-1" d="M575.7,560.77h-11.55v-33.85h-11.96v-9.85h35.41v9.85h-11.9v33.85Z"/>
    <path class="cls-1" d="M606.65,552.68c-1.63-2.81-2.44-6.06-2.44-9.76v-25.85h11.49v25.85c0,2.55.73,4.53,2.2,5.94,1.47,1.41,3.47,2.12,6.01,2.12s4.41-.71,5.86-2.12c1.45-1.41,2.17-3.39,2.17-5.94v-25.85h11.55v25.85c0,3.7-.81,6.95-2.44,9.76-1.63,2.81-3.92,4.98-6.87,6.54-2.96,1.55-6.38,2.33-10.27,2.33s-7.38-.78-10.36-2.33c-2.98-1.55-5.28-3.73-6.9-6.54Z"/>
    <path class="cls-1" d="M679.75,517.07c4.6,0,8.68.9,12.23,2.69,3.55,1.79,6.31,4.34,8.27,7.64,1.96,3.3,2.95,7.12,2.95,11.46s-.97,8.16-2.92,11.46c-1.94,3.3-4.68,5.87-8.21,7.7-3.53,1.83-7.64,2.75-12.32,2.75h-16.73v-43.7h16.73ZM688.55,547.9c2.02-2.01,3.04-4.98,3.04-8.92s-1.01-6.98-3.04-9.01c-2.02-2.03-4.96-3.04-8.81-3.04h-5.24v24h5.24c3.85,0,6.79-1,8.81-3.01Z"/>
    <path class="cls-1" d="M721.06,517.07h11.49v43.7h-11.49v-43.7Z"/>
    <path class="cls-1" d="M753.47,550.53c-1.96-3.44-2.95-7.31-2.95-11.61s.98-8.16,2.95-11.58c1.96-3.42,4.72-6.11,8.27-8.06,3.55-1.95,7.65-2.93,12.29-2.93s8.76.98,12.35,2.93c3.59,1.95,6.38,4.64,8.36,8.06,1.98,3.42,2.98,7.28,2.98,11.58s-.99,8.17-2.98,11.61c-1.98,3.44-4.77,6.14-8.36,8.09-3.59,1.95-7.71,2.92-12.35,2.92s-8.74-.97-12.29-2.92c-3.55-1.95-6.31-4.65-8.27-8.09ZM763.65,532.83c-1.05,1.83-1.58,3.86-1.58,6.09s.53,4.32,1.58,6.15c1.05,1.83,2.49,3.27,4.32,4.33,1.83,1.05,3.87,1.58,6.13,1.58s4.31-.53,6.13-1.58c1.83-1.05,3.26-2.5,4.32-4.33,1.05-1.83,1.58-3.88,1.58-6.15s-.53-4.26-1.58-6.09-2.49-3.27-4.32-4.33c-1.83-1.05-3.87-1.58-6.13-1.58s-4.31.53-6.13,1.58c-1.83,1.05-3.26,2.5-4.32,4.33Z"/>
  </g>
</svg>