<?xml version="1.0" encoding="UTF-8"?>
<svg id="Layer_1" data-name="Layer 1" xmlns="http://www.w3.org/2000/svg" viewBox="0 0 985.09 792.23">
  <defs>
    <style>
      .cls-1 {
        fill: #91b6bb;
      }

      .cls-1, .cls-2, .cls-3 {
        stroke-width: 0px;
      }

      .cls-2 {
        fill: #fff;
      }

      .cls-3 {
        fill: #004d71;
      }
    </style>
  </defs>
  <g>
    <path class="cls-3" d="M980.44,432.35l-6.14-1.26c-1.62-.26-2.81-1.67-2.81-3.31v-101.19c0-42.34-34.47-68.64-89.95-68.64-6.64,0-13.42.43-19.89,1.23-1.55.19-3.01-.69-3.56-2.15-.66-1.76-1.33-3.5-2.02-5.25C798.37,104.39,654.92,0,487.08,0S173.88,105.81,116.95,254.77c-.46,1.22-1.59,2.04-2.89,2.15-22.95,1.88-39.06,9.64-44.02,12.33-7.19,3.66-13.94,7.73-20.04,12.12C16.56,305.39-2.5,346.64.27,389.02c3.86,59.1,47.49,107.83,103.75,115.88,1.32.19,2.41,1.14,2.78,2.42,47.38,162.29,195.82,281.45,372.62,284.81.87.02,1.75.02,2.63.03,1.68.02,3.36.06,5.04.06.16,0,.32,0,.47,0,183.17-.22,337.2-124.75,382.28-293.77.36-1.34,1.51-2.31,2.89-2.46,8.76-.99,17.21-3.36,25.21-7.12,5.98-2.81,11.91-8.24,18.77-8.19,7.8.05,13.48,6.94,20.14,10.16,6.79,3.29,14.31,5.24,21.88,5.24,4.12,0,6.25-.1,7.54-.22.79-.07,1.26-.15,1.67-.22l12.55-2.4c2.66-.45,4.61-2.76,4.61-5.46v-49.97c0-2.71-1.97-5.03-4.65-5.47Z"/>
    <path class="cls-1" d="M178.69,256.92c50.28-120.44,176.22-201.67,306.45-200.58,97.43-.53,193.76,43.66,256.34,118.38,20.75,24.63,37.99,52.15,50.5,81.59C661.92,4.53,307.98,5.13,178.69,256.92h0Z"/>
    <path class="cls-1" d="M780.73,575.53c-86.98,164.18-300.92,222.26-460.53,128.21-51.25-29.7-94.2-73.3-122.36-124.67,63.3,98.01,175.73,160.57,292.42,158.86,116.69.41,228.41-63.65,290.47-162.4h0Z"/>
  </g>
  <g>
    <g>
      <path class="cls-2" d="M775.64,412.88c.27-36.92,0-59.31,0-59.31,0-37.32-17.77-55.99-53.31-55.99-7.16,0-13.24.73-18.27,2.18-5.03,1.46-10.79,3.52-17.27,6.2-5.59,2.24-10.51,3.97-14.75,5.2-4.25,1.23-9.05,1.84-14.42,1.84-3.35,0-6.6-.5-9.72-1.51-3.13-1.01-6.93-2.62-11.4-4.86-5.81-2.9-11.23-5.14-16.26-6.7-5.03-1.56-10.9-2.35-17.6-2.35-6.26,0-11.85,1.01-16.76,3.02-4.92,2.01-10.39,4.81-16.43,8.38-6.26,3.58-11.46,6.2-15.59,7.88-4.14,1.68-8.78,2.51-13.91,2.51s-9.84-.72-14.08-2.18c-3.39-1.16-7.56-2.78-12.51-4.87-16.54-9.01-25.18-9.83-27.69-9.84-.48,0-.93.2-1.24.57l-1.67,1.99-10.62,12.64c-.91,1.09-.06,2.71,1.36,2.62,3.85-.24,6.88.38,9.26,1.45,2.66,1.19,4.9,3.17,6.44,5.64.55.87,1.01,1.79,1.38,2.75,2.18,5.64,2.44,12.28,2.84,18.25,2.27,34.36.3,100.36-45.75,115.86v9.29h121.63v-16.19c0,.05-13.36-1.57-14.23-13.16-.7-9.23-.78-17.58-.68-26.68.13-11.38.12-22.77.26-34.15.15-11.79.61-23.6.61-35.39,0-13.89,11.37-25.26,25.26-25.26s25.26,11.37,25.26,25.26v90.53c0,10.26-6.21,16.57-15.05,19.17-.25.07-.5.14-.75.21v16.07h89.55v-16.66c-8.21-2.8-13.89-8.99-13.89-18.8v-1.66c-.65-3.88,0-88.87,0-88.87,0-13.89,11.37-25.26,25.26-25.26s25.26,11.37,25.26,25.26v90.53c0,10.03-5.94,16.27-14.46,18.98-.33.1-.64.22-.98.32v16.16h108.64v-7.66s-34.02-11.35-33.71-53.44Z"/>
      <path class="cls-2" d="M958.73,451.71c-2.91,0-5.25-1.06-7.04-3.18-1.79-2.12-2.68-5.08-2.68-8.88v-113.34c0-44.37-55.71-49.63-88.66-44.49-13.78,2.15-27.13,6.17-40.59,9.71-13.23,3.48-27.12,4.48-40.71,2.88-2.57-.3-6-.18-6.71,2.31-.46,1.6.6,3.2,1.61,4.52,6.44,8.52,12.75,14.85,15.8,25.37,2.42,8.32,3.5,17.03,3.22,25.69h13.92c.2-.88.36-1.76.47-2.63,1.08-8.36,1.6-15.32,5.88-22.79,4.05-7.07,10.2-12.99,17.55-16.56,8.88-4.31,22.16-7.47,30.66-1.6,8.1,5.6,11.07,16.67,7.74,25.82-5.52,15.16-21.58,19.65-34.77,25.84-14.11,6.63-29.04,13.77-38.95,26.27-10.06,12.68-9.83,29.24-3.08,43.39,7.09,14.87,20.03,25.74,34.28,33.52,19.2,10.47,41.46,14.09,61.78,4.54,6.19-2.91,11.86-6.86,18.13-9.6,6.27-2.75,13.5-4.23,19.94-1.92,5.82,2.09,10.1,6.79,14.94,10.43s11.18,6.16,17.28,6.16c.45,0,5.01-.05,5.43-.12v-21.23c-.41-.07-4.98-.11-5.43-.11ZM888.28,421.88c-.27,2.29-.66,4.53-1.2,6.71-1.74,7.04-5.89,13.84-12.39,17.05-8.1,4-18.49,1.41-24.9-4.95-6.41-6.36-9.12-15.81-8.69-24.83.91-19.33,13.07-36.63,28.24-47.81,3.66-2.7,19.3-12.38,19.3-12.42,0,12.61.1,25.22.04,37.83-.04,9.09.72,19.1-.4,28.42Z"/>
      <g>
        <path class="cls-3" d="M465.4,282.51c4.41-28.43-19.09-42.45-44.73-41.84-7.69.08-15.27,1.16-22.59,3.22,14.67.83,29.74.98,43.39,6.19,14.68,5.39,21.69,17.12,23.93,32.44Z"/>
        <path class="cls-2" d="M204.94,423.63c.84-3.53,1.53-10.07,2.04-16.43h-9.04c-.2.74-.41,1.48-.64,2.21-1.03,3.28-2.35,6.47-4.12,9.64-7.23,12.94-19.47,23.23-33.85,27.18-16.56,4.54-34.94.4-48.59-9.81-15.96-11.95-22.71-31.17-24.73-50.4-3.34-31.82,6.21-77.64,45.15-81.51,15.09-1.5,39.43,2.22,50.25,13.55,4.08,4.28,6.76,9.72,7.72,15.55.06.38.73,7.06.28,7.06h18.46v-49.42h-16.02c-9.92,9.53-32.99-.05-32.99-.05-39.69-13.56-74.57,4.45-74.57,4.45-5.84,2.94-11.49,6.29-16.81,10.1-26.35,18.92-40.18,50.85-38.08,82.98,2.87,43.98,35.14,83.52,79.65,89.9,22.51,3.22,46.16.43,65.42-12.34,11.89-7.88,21.54-18.92,27.04-32.03,1.46-3.48,2.57-7.02,3.43-10.63Z"/>
        <path class="cls-2" d="M480.19,352.17h-10.49c-3.93,78.27-56.58,78.3-56.58,78.3h0c-6.01.9-12.42.8-19.18-.54-16.21-3.21-29.07-15.04-32.38-31.4-.15-.72-.27-1.44-.38-2.16,21.79.82,47.81,2.27,66.87-9.77,17.02-10.75,23.5-30.93,21.37-50.8-3.44-32.12-38.31-44.6-66.34-44.31-34.39.35-64.73,15.06-82.1,45.32-7.83,13.64-11.73,28.39-11.73,44.25s4.02,31.3,12.07,44.92c18.97,32.12,56.58,45.83,93.28,42.7,21.98-1.87,43.29-9.2,59.58-24.4,23.89-22.29,27.2-59.97,26.02-91.92,0-.06,0-.13,0-.2ZM359.68,372.12c-.65-15.3,1.42-31.55,9.05-45.03,6.4-11.31,20.76-22.15,33.19-14.62,7.69,4.66,7.62,13.83,6.13,22.34-5.67,32.27-48.26,39.61-48.36,37.31Z"/>
        <path class="cls-2" d="M272.26,394.36c-.19-27.97,1.24-54.83,18.27-78.17,14.29-19.59,35.83-32.74,59.16-38.69,1.87-.42,3.75-.81,5.65-1.16,39.96-7.35,74.73-1.71,99.23,26.31,1.16,1.32,2.21,2.77,3.78,3.57,4.32,2.21,7.2-.78,9.22-3.68,10.58-15.21,11.2-36.71,1.52-52.51-8.43-13.75-22.58-18.56-38.05-19.43-23.82-1.34-47.92,2.89-69.86,12.26-20.35,8.69-38.7,21.64-59.23,29.87-15.34,6.15-34.08,17.75-50.27,8.5-6.69-3.82-12.28-9.38-19.05-13.05-10.8-5.84-23.44-6.32-35.85-5.89v11.5c3.3-.08,6.45.04,9.26.49,3.05.49,6.17,1.16,8.76,2.86,3.42,2.25,5.92,6.04,6.5,10.1,1.03,7.28,1,15.74,1.05,23.34.04,7.14.09,14.27.15,21.41.02,2.7.11,5.41.11,8.12.02,14.29-.04,33-.29,56.56-.23,21.54-4.75,37.37-10.26,48.74-.21.43-.42.84-.63,1.26-8.9,17.58-20.01,23.91-20.01,23.91v3.4h117.18v-8.81c0,.55-35.91-11.56-36.31-70.81ZM420.67,240.67c25.63-.6,49.14,13.42,44.73,41.84-2.24-15.32-9.25-27.05-23.93-32.44-13.65-5.21-28.72-5.36-43.39-6.19,7.32-2.06,14.9-3.14,22.59-3.22Z"/>
      </g>
    </g>
    <g>
      <path class="cls-2" d="M204.52,497.81c4.55,0,8.58.89,12.09,2.66,3.51,1.77,6.24,4.29,8.18,7.55,1.94,3.27,2.91,7.04,2.91,11.33s-.96,8.07-2.88,11.33c-1.92,3.27-4.63,5.8-8.12,7.61-3.49,1.81-7.55,2.71-12.18,2.71h-16.54v-43.2h16.54ZM213.23,528.3c2-1.99,3-4.93,3-8.82s-1-6.91-3-8.91c-2-2.01-4.9-3.01-8.71-3.01h-5.18v23.72h5.18c3.81,0,6.71-.99,8.71-2.98Z"/>
      <path class="cls-2" d="M274.12,514.93v9.38h-17.42v6.96h19.77v9.74h-31.13v-43.2h31.13v9.74h-19.77v7.38h17.42Z"/>
      <path class="cls-2" d="M311.72,531.34c2,0,3.51-.26,4.53-.77,1.02-.51,1.53-1.34,1.53-2.48,0-.94-.6-1.64-1.79-2.1s-3.19-.95-5.97-1.5c-3.45-.67-6.36-1.41-8.71-2.21s-4.4-2.14-6.15-4.01-2.62-4.4-2.62-7.58c0-2.75.76-5.15,2.27-7.2,1.51-2.05,3.59-3.62,6.24-4.72,2.65-1.1,5.62-1.65,8.91-1.65,3.49,0,6.77.55,9.83,1.65,3.06,1.1,5.79,2.72,8.18,4.84l-5.77,7.97c-1.65-1.26-3.59-2.24-5.83-2.95-2.24-.71-4.47-1.06-6.71-1.06-3.81,0-5.71,1.02-5.71,3.07,0,.87.6,1.52,1.79,1.98,1.2.45,3.13.93,5.8,1.45,3.49.67,6.41,1.41,8.77,2.21s4.41,2.14,6.18,4.01c1.77,1.87,2.65,4.44,2.65,7.7,0,4.37-1.56,7.76-4.68,10.18-3.12,2.42-7.38,3.63-12.8,3.63-3.88,0-7.56-.64-11.03-1.92-3.47-1.28-6.5-3.02-9.09-5.22l5.94-7.97c2.24,1.49,4.52,2.65,6.86,3.45,2.33.81,4.8,1.21,7.39,1.21Z"/>
      <path class="cls-2" d="M346.2,497.81h11.36v43.2h-11.36v-43.2Z"/>
      <path class="cls-2" d="M421.34,522.43c-.35,3.7-1.52,7.02-3.5,9.97-1.98,2.95-4.63,5.25-7.94,6.91-3.32,1.65-7.05,2.48-11.21,2.48-4.43,0-8.42-.98-11.97-2.95-3.55-1.97-6.34-4.65-8.36-8.06-2.02-3.4-3.03-7.17-3.03-11.3s1.01-7.91,3.03-11.33,4.81-6.12,8.36-8.09c3.55-1.97,7.54-2.95,11.97-2.95s8.58.99,11.98,2.98c3.39,1.99,6.15,4.77,8.27,8.35l-10.18,4.66c-2.47-3.74-5.83-5.61-10.06-5.61-2.24,0-4.27.52-6.09,1.56-1.82,1.04-3.27,2.48-4.33,4.31-1.06,1.83-1.59,3.87-1.59,6.11s.53,4.21,1.59,6.02c1.06,1.81,2.5,3.24,4.33,4.28,1.82,1.04,3.85,1.56,6.09,1.56,2.63,0,4.88-.62,6.77-1.86,1.88-1.24,3.08-2.9,3.59-4.99h-13.12v-8.68h25.6l.06,2.01c0,1.3-.08,2.83-.24,4.6Z"/>
      <path class="cls-2" d="M478.41,541.02h-10.71l-17.01-23.19v23.19h-11.36v-43.2h10.71l16.95,23.31v-23.31h11.42v43.2Z"/>
      <path class="cls-2" d="M543.43,531.34c2,0,3.51-.26,4.53-.77,1.02-.51,1.53-1.34,1.53-2.48,0-.94-.6-1.64-1.79-2.1-1.2-.45-3.19-.95-5.97-1.5-3.45-.67-6.36-1.41-8.71-2.21s-4.4-2.14-6.15-4.01c-1.75-1.87-2.62-4.4-2.62-7.58,0-2.75.76-5.15,2.27-7.2,1.51-2.05,3.59-3.62,6.24-4.72,2.65-1.1,5.62-1.65,8.91-1.65,3.49,0,6.77.55,9.83,1.65,3.06,1.1,5.79,2.72,8.18,4.84l-5.77,7.97c-1.65-1.26-3.59-2.24-5.83-2.95-2.24-.71-4.47-1.06-6.71-1.06-3.81,0-5.71,1.02-5.71,3.07,0,.87.6,1.52,1.79,1.98,1.2.45,3.13.93,5.8,1.45,3.49.67,6.41,1.41,8.77,2.21s4.41,2.14,6.18,4.01c1.77,1.87,2.65,4.44,2.65,7.7,0,4.37-1.56,7.76-4.68,10.18-3.12,2.42-7.38,3.63-12.8,3.63-3.88,0-7.56-.64-11.03-1.92-3.47-1.28-6.5-3.02-9.09-5.22l5.94-7.97c2.24,1.49,4.52,2.65,6.86,3.45,2.33.81,4.8,1.21,7.39,1.21Z"/>
      <path class="cls-2" d="M598.26,541.02h-11.42v-33.46h-11.83v-9.74h35.01v9.74h-11.77v33.46Z"/>
      <path class="cls-2" d="M628.86,533.02c-1.61-2.77-2.41-5.99-2.41-9.65v-25.56h11.36v25.56c0,2.52.73,4.48,2.18,5.87,1.45,1.4,3.43,2.1,5.94,2.1s4.36-.7,5.8-2.1c1.43-1.4,2.15-3.35,2.15-5.87v-25.56h11.42v25.56c0,3.66-.8,6.87-2.41,9.65s-3.87,4.93-6.8,6.46c-2.92,1.53-6.31,2.3-10.15,2.3s-7.3-.77-10.24-2.3c-2.94-1.53-5.22-3.69-6.83-6.46Z"/>
      <path class="cls-2" d="M701.11,497.81c4.55,0,8.58.89,12.09,2.66,3.51,1.77,6.24,4.29,8.18,7.55,1.94,3.27,2.91,7.04,2.91,11.33s-.96,8.07-2.88,11.33c-1.92,3.27-4.63,5.8-8.12,7.61-3.49,1.81-7.55,2.71-12.18,2.71h-16.54v-43.2h16.54ZM709.82,528.3c2-1.99,3-4.93,3-8.82s-1-6.91-3-8.91c-2-2.01-4.9-3.01-8.71-3.01h-5.18v23.72h5.18c3.81,0,6.71-.99,8.71-2.98Z"/>
      <path class="cls-2" d="M741.94,497.81h11.36v43.2h-11.36v-43.2Z"/>
      <path class="cls-2" d="M773.98,530.89c-1.94-3.4-2.91-7.23-2.91-11.48s.97-8.07,2.91-11.45c1.94-3.38,4.67-6.04,8.18-7.97s7.56-2.89,12.15-2.89,8.66.96,12.21,2.89c3.55,1.93,6.31,4.58,8.27,7.97,1.96,3.38,2.94,7.2,2.94,11.45s-.98,8.08-2.94,11.48c-1.96,3.4-4.72,6.07-8.27,8-3.55,1.93-7.62,2.89-12.21,2.89s-8.64-.96-12.15-2.89-6.24-4.59-8.18-8ZM784.04,513.4c-1.04,1.81-1.56,3.82-1.56,6.02s.52,4.27,1.56,6.08c1.04,1.81,2.46,3.24,4.27,4.28,1.8,1.04,3.83,1.56,6.06,1.56s4.26-.52,6.06-1.56c1.8-1.04,3.23-2.47,4.27-4.28,1.04-1.81,1.56-3.84,1.56-6.08s-.52-4.21-1.56-6.02c-1.04-1.81-2.46-3.24-4.27-4.28-1.8-1.04-3.82-1.56-6.06-1.56s-4.26.52-6.06,1.56c-1.8,1.04-3.23,2.47-4.27,4.28Z"/>
    </g>
  </g>
</svg>