<?xml version="1.0" encoding="UTF-8"?>
<svg id="Layer_1" data-name="Layer 1" xmlns="http://www.w3.org/2000/svg" viewBox="0 0 985.09 792.23">
  <defs>
    <style>
      .cls-1 {
        fill: #91b6bb;
        stroke-width: 0px;
      }
    </style>
  </defs>
  <path class="cls-1" d="M408.04,334.8c1.5-8.51,1.56-17.68-6.13-22.34-12.43-7.53-26.79,3.31-33.19,14.62-7.63,13.48-9.69,29.73-9.05,45.03.1,2.29,42.69-5.04,48.36-37.31Z"/>
  <path class="cls-1" d="M213.23,528.3c2-1.99,3-4.93,3-8.82s-1-6.91-3-8.91c-2-2.01-4.9-3.01-8.71-3.01h-5.18v23.72h5.18c3.81,0,6.71-.99,8.71-2.98Z"/>
  <path class="cls-1" d="M800.43,509.12c-1.8-1.04-3.82-1.56-6.06-1.56s-4.26.52-6.06,1.56c-1.8,1.04-3.23,2.47-4.27,4.28-1.04,1.81-1.56,3.82-1.56,6.02s.52,4.27,1.56,6.08c1.04,1.81,2.46,3.24,4.27,4.28,1.81,1.04,3.83,1.56,6.06,1.56s4.26-.52,6.06-1.56c1.8-1.04,3.23-2.47,4.27-4.28,1.04-1.81,1.56-3.84,1.56-6.08s-.52-4.21-1.56-6.02c-1.04-1.81-2.46-3.24-4.27-4.28Z"/>
  <path class="cls-1" d="M701.11,507.55h-5.18v23.72h5.18c3.81,0,6.71-.99,8.71-2.98s3-4.93,3-8.82-1-6.91-3-8.91c-2-2.01-4.9-3.01-8.71-3.01Z"/>
  <path class="cls-1" d="M888.63,355.64s-15.63,9.72-19.3,12.42c-15.17,11.18-27.33,28.48-28.24,47.81-.43,9.02,2.28,18.47,8.69,24.83,6.41,6.36,16.8,8.95,24.9,4.95,6.5-3.21,10.65-10.01,12.39-17.05.54-2.18.93-4.42,1.2-6.71,1.12-9.31.36-19.32.4-28.42.05-12.61-.04-25.22-.04-37.83Z"/>
  <path class="cls-1" d="M980.44,432.35l-6.14-1.25c-1.62-.26-2.81-1.67-2.81-3.31v-101.19c0-42.34-34.47-68.64-89.95-68.64-6.64,0-13.42.43-19.89,1.23-1.55.19-3.01-.69-3.56-2.15-.66-1.76-1.33-3.5-2.02-5.25C798.37,104.39,654.92,0,487.08,0S173.87,105.81,116.95,254.77c-.46,1.22-1.59,2.04-2.89,2.15-22.95,1.88-39.06,9.64-44.02,12.33-7.19,3.66-13.94,7.73-20.04,12.12C16.55,305.39-2.5,346.64.27,389.02c3.86,59.1,47.48,107.83,103.75,115.88,1.32.19,2.41,1.14,2.78,2.42,47.38,162.29,195.82,281.45,372.62,284.81.88.02,1.75.02,2.63.03,1.68.02,3.36.06,5.04.06.16,0,.32,0,.47,0,183.17-.22,337.2-124.75,382.28-293.77.36-1.34,1.51-2.31,2.89-2.46,8.76-.99,17.21-3.36,25.21-7.12,5.98-2.81,11.91-8.24,18.77-8.19,7.79.05,13.48,6.94,20.14,10.16,6.79,3.29,14.31,5.24,21.88,5.24,4.12,0,6.25-.1,7.54-.22.79-.07,1.26-.15,1.67-.22l12.54-2.4c2.66-.45,4.61-2.76,4.61-5.46v-49.97c0-2.71-1.97-5.03-4.65-5.47ZM485.14,56.34c97.43-.53,193.76,43.66,256.34,118.38,20.75,24.63,37.99,52.15,50.5,81.59C661.92,4.53,307.98,5.13,178.69,256.92c50.28-120.44,176.22-201.67,306.45-200.58ZM809.35,466.32v7.66h-108.64v-16.16c.34-.09.65-.21.98-.32,8.52-2.71,14.46-8.95,14.46-18.98v-90.53c0-13.89-11.37-25.26-25.26-25.26s-25.26,11.37-25.26,25.26c0,0-.65,85,0,88.87v1.66c0,9.8,5.67,15.99,13.89,18.8v16.66h-89.54v-16.07c.25-.07.5-.14.75-.21,8.84-2.6,15.05-8.91,15.05-19.17v-90.53c0-13.89-11.37-25.26-25.26-25.26s-25.26,11.37-25.26,25.26c0,11.79-.46,23.6-.61,35.39-.14,11.38-.14,22.77-.26,34.15-.1,9.1-.02,17.45.68,26.68.88,11.59,14.23,13.21,14.23,13.16v16.19h-121.63v-9.29c46.05-15.5,48.02-81.49,45.75-115.85-.39-5.97-.66-12.61-2.84-18.25-.37-.96-.83-1.88-1.38-2.75-1.55-2.47-3.78-4.45-6.44-5.64-2.38-1.07-5.41-1.69-9.26-1.45-1.42.09-2.27-1.53-1.36-2.62l10.62-12.65,1.67-1.99c.31-.37.76-.57,1.24-.57,2.51.01,11.15.84,27.69,9.84,4.95,2.08,9.12,3.71,12.51,4.87,4.24,1.46,8.94,2.18,14.08,2.18s9.77-.84,13.91-2.51c4.13-1.68,9.33-4.3,15.59-7.88,6.03-3.57,11.51-6.37,16.43-8.38,4.92-2.01,10.5-3.02,16.76-3.02,6.71,0,12.57.78,17.6,2.35,5.03,1.57,10.44,3.8,16.26,6.7,4.47,2.24,8.27,3.86,11.4,4.86,3.13,1.01,6.37,1.51,9.72,1.51,5.36,0,10.17-.61,14.42-1.84,4.24-1.23,9.16-2.96,14.75-5.2,6.48-2.68,12.24-4.75,17.27-6.2,5.03-1.45,11.11-2.18,18.27-2.18,35.54,0,53.31,18.66,53.31,55.99,0,0,.27,22.39,0,59.31-.31,42.09,33.71,53.44,33.71,53.44ZM753.3,497.81v43.2h-11.36v-43.2h11.36ZM724.3,519.36c0,4.29-.96,8.07-2.88,11.33-1.92,3.27-4.63,5.8-8.12,7.61-3.49,1.81-7.55,2.71-12.18,2.71h-16.54v-43.2h16.54c4.55,0,8.58.89,12.09,2.66,3.51,1.77,6.24,4.29,8.18,7.55,1.94,3.27,2.91,7.04,2.91,11.33ZM639.98,529.24c1.45,1.4,3.43,2.1,5.94,2.1s4.36-.7,5.8-2.1c1.43-1.4,2.15-3.35,2.15-5.87v-25.56h11.42v25.56c0,3.66-.8,6.88-2.41,9.65s-3.87,4.93-6.8,6.46-6.31,2.3-10.15,2.3-7.3-.77-10.24-2.3c-2.94-1.53-5.22-3.69-6.83-6.46s-2.41-5.99-2.41-9.65v-25.56h11.36v25.56c0,2.52.73,4.48,2.18,5.87ZM575.02,507.55v-9.74h35.01v9.74h-11.77v33.46h-11.42v-33.46h-11.83ZM547.69,526c-1.2-.45-3.19-.95-5.97-1.5-3.45-.67-6.35-1.41-8.71-2.21-2.35-.81-4.4-2.14-6.15-4.01s-2.62-4.4-2.62-7.58c0-2.75.76-5.15,2.27-7.2,1.51-2.05,3.59-3.62,6.24-4.72,2.65-1.1,5.62-1.65,8.92-1.65,3.49,0,6.77.55,9.83,1.65,3.06,1.1,5.79,2.72,8.18,4.84l-5.77,7.97c-1.65-1.26-3.59-2.24-5.83-2.95-2.24-.71-4.47-1.06-6.71-1.06-3.81,0-5.71,1.02-5.71,3.07,0,.87.6,1.52,1.79,1.98,1.2.45,3.13.93,5.8,1.45,3.49.67,6.41,1.41,8.77,2.21,2.35.81,4.41,2.14,6.18,4.01,1.77,1.87,2.65,4.44,2.65,7.7,0,4.37-1.56,7.76-4.68,10.18-3.12,2.42-7.38,3.63-12.8,3.63-3.88,0-7.56-.64-11.03-1.92-3.47-1.28-6.5-3.02-9.09-5.22l5.94-7.97c2.24,1.49,4.52,2.65,6.86,3.45,2.33.81,4.8,1.21,7.39,1.21,2,0,3.51-.26,4.53-.77,1.02-.51,1.53-1.34,1.53-2.48,0-.94-.6-1.64-1.79-2.1ZM388.27,525.49c1.06,1.81,2.5,3.24,4.33,4.28,1.82,1.04,3.85,1.56,6.09,1.56,2.63,0,4.88-.62,6.77-1.86,1.88-1.24,3.08-2.9,3.59-4.99h-13.12v-8.68h25.6l.06,2.01c0,1.3-.08,2.83-.24,4.6-.35,3.7-1.52,7.02-3.5,9.97-1.98,2.95-4.63,5.25-7.94,6.91-3.31,1.65-7.05,2.48-11.21,2.48-4.43,0-8.42-.98-11.97-2.95-3.55-1.97-6.34-4.65-8.36-8.06-2.02-3.4-3.03-7.17-3.03-11.3s1.01-7.91,3.03-11.33c2.02-3.42,4.81-6.12,8.36-8.09s7.54-2.95,11.97-2.95,8.58.99,11.98,2.98c3.39,1.99,6.15,4.77,8.27,8.35l-10.18,4.66c-2.47-3.74-5.83-5.61-10.06-5.61-2.24,0-4.27.52-6.09,1.56-1.82,1.04-3.27,2.48-4.33,4.31-1.06,1.83-1.59,3.87-1.59,6.11s.53,4.21,1.59,6.02ZM394.59,468.69c-36.7,3.13-74.32-10.58-93.28-42.7-8.05-13.63-12.07-28.61-12.07-44.92s3.91-30.62,11.73-44.25c17.37-30.26,47.71-44.97,82.1-45.32,28.03-.29,62.9,12.19,66.34,44.31,2.13,19.87-4.34,40.04-21.37,50.8-19.06,12.04-45.08,10.59-66.87,9.77.11.72.24,1.44.38,2.16,3.31,16.37,16.17,28.2,32.38,31.4,6.76,1.34,13.17,1.44,19.18.54h0s52.64-.02,56.58-78.3h10.49c0,.06,0,.13,0,.2,1.18,31.95-2.13,69.63-26.02,91.92-16.29,15.2-37.6,22.53-59.58,24.4ZM357.56,497.81v43.2h-11.36v-43.2h11.36ZM274.12,514.93v9.38h-17.42v6.96h19.77v9.74h-31.13v-43.2h31.13v9.74h-19.77v7.38h17.42ZM191.39,473.98v-3.4s11.11-6.33,20.01-23.91c.21-.42.42-.83.63-1.26,5.51-11.36,10.03-27.19,10.26-48.74.25-23.56.31-42.27.29-56.56,0-2.7-.09-5.41-.11-8.12-.06-7.14-.1-14.27-.15-21.41-.05-7.6-.02-16.06-1.05-23.34-.58-4.06-3.07-7.85-6.5-10.1-2.58-1.7-5.7-2.37-8.76-2.86-2.81-.46-5.96-.57-9.26-.49v-11.5c12.41-.43,25.05.05,35.85,5.89,6.78,3.66,12.36,9.23,19.05,13.05,16.19,9.25,34.93-2.35,50.27-8.5,20.54-8.23,38.89-21.18,59.23-29.87,21.94-9.36,46.05-13.59,69.86-12.26,15.47.87,29.62,5.68,38.05,19.43,9.69,15.79,9.06,37.3-1.52,52.51-2.02,2.91-4.9,5.9-9.22,3.68-1.56-.8-2.62-2.25-3.78-3.57-24.49-28.02-59.26-33.66-99.23-26.31-1.9.35-3.78.74-5.65,1.16-23.33,5.94-44.87,19.09-59.16,38.69-17.03,23.34-18.46,50.2-18.27,78.17.4,59.25,36.31,71.36,36.31,70.81v8.81h-117.18ZM315.99,526c-1.2-.45-3.19-.95-5.97-1.5-3.45-.67-6.35-1.41-8.71-2.21-2.35-.81-4.4-2.14-6.15-4.01-1.75-1.87-2.62-4.4-2.62-7.58,0-2.75.76-5.15,2.27-7.2,1.51-2.05,3.59-3.62,6.24-4.72,2.65-1.1,5.62-1.65,8.92-1.65,3.49,0,6.77.55,9.83,1.65,3.06,1.1,5.79,2.72,8.18,4.84l-5.77,7.97c-1.65-1.26-3.59-2.24-5.83-2.95-2.24-.71-4.47-1.06-6.71-1.06-3.81,0-5.71,1.02-5.71,3.07,0,.87.6,1.52,1.79,1.98,1.2.45,3.13.93,5.8,1.45,3.49.67,6.41,1.41,8.77,2.21,2.35.81,4.41,2.14,6.18,4.01,1.77,1.87,2.65,4.44,2.65,7.7,0,4.37-1.56,7.76-4.68,10.18-3.12,2.42-7.38,3.63-12.8,3.63-3.88,0-7.56-.64-11.03-1.92-3.47-1.28-6.5-3.02-9.09-5.22l5.94-7.97c2.24,1.49,4.52,2.65,6.85,3.45,2.33.81,4.8,1.21,7.39,1.21,2,0,3.51-.26,4.53-.77,1.02-.51,1.53-1.34,1.53-2.48,0-.94-.6-1.64-1.79-2.1ZM439.34,497.81h10.71l16.95,23.31v-23.31h11.42v43.2h-10.71l-17.01-23.19v23.19h-11.36v-43.2ZM174.48,466.29c-19.26,12.77-42.91,15.56-65.42,12.34-44.51-6.37-76.77-45.92-79.65-89.9-2.1-32.13,11.73-64.06,38.08-82.98,5.32-3.82,10.96-7.16,16.81-10.1,0,0,34.88-18.02,74.57-4.45,0,0,23.06,9.58,32.99.05h16.02v49.42h-18.46c.44,0-.22-6.68-.28-7.06-.96-5.83-3.64-11.27-7.72-15.55-10.82-11.33-35.16-15.04-50.25-13.55-38.95,3.87-48.49,49.69-45.15,81.51,2.02,19.22,8.76,38.45,24.73,50.4,13.65,10.22,32.03,14.35,48.59,9.81,14.38-3.94,26.62-14.24,33.85-27.18,1.77-3.16,3.09-6.36,4.12-9.64.23-.73.44-1.47.64-2.21h9.04c-.51,6.36-1.2,12.9-2.04,16.43-.86,3.61-1.97,7.15-3.43,10.63-5.5,13.1-15.15,24.14-27.04,32.03ZM187.98,497.81h16.54c4.55,0,8.58.89,12.09,2.66,3.51,1.77,6.24,4.29,8.18,7.55,1.94,3.27,2.91,7.04,2.91,11.33s-.96,8.07-2.88,11.33c-1.92,3.27-4.63,5.8-8.12,7.61-3.49,1.81-7.55,2.71-12.18,2.71h-16.54v-43.2ZM320.2,703.74c-51.25-29.7-94.2-73.3-122.36-124.67,63.3,98.01,175.73,160.57,292.42,158.86,116.69.41,228.41-63.65,290.47-162.4-86.98,164.18-300.92,222.26-460.53,128.21ZM814.79,530.89c-1.96,3.4-4.72,6.07-8.27,8-3.55,1.93-7.62,2.89-12.21,2.89s-8.64-.96-12.15-2.89c-3.51-1.93-6.24-4.59-8.18-8-1.94-3.4-2.91-7.23-2.91-11.48s.97-8.07,2.91-11.45c1.94-3.38,4.67-6.04,8.18-7.97,3.51-1.93,7.56-2.89,12.15-2.89s8.66.96,12.21,2.89c3.55,1.93,6.31,4.58,8.27,7.97,1.96,3.38,2.94,7.2,2.94,11.45s-.98,8.08-2.94,11.48ZM964.16,473.05c-.41.07-4.98.12-5.43.12-6.1,0-12.45-2.54-17.28-6.16-4.84-3.63-9.12-8.34-14.94-10.43-6.44-2.31-13.67-.83-19.94,1.92-6.27,2.75-11.94,6.69-18.13,9.6-20.32,9.55-42.58,5.93-61.78-4.54-14.25-7.77-27.19-18.64-34.28-33.52-6.75-14.16-6.99-30.71,3.08-43.39,9.91-12.5,24.84-19.64,38.95-26.27,13.19-6.19,29.25-10.68,34.77-25.84,3.33-9.14.35-20.22-7.74-25.82-8.5-5.87-21.78-2.71-30.66,1.6-7.34,3.56-13.5,9.49-17.55,16.56-4.28,7.47-4.8,14.42-5.88,22.79-.11.87-.27,1.75-.47,2.63h-13.92c.28-8.66-.81-17.37-3.22-25.69-3.05-10.52-9.36-16.86-15.8-25.37-1-1.33-2.06-2.92-1.6-4.52.71-2.49,4.14-2.61,6.71-2.31,13.59,1.6,27.47.6,40.71-2.88,13.46-3.54,26.81-7.56,40.59-9.71,32.95-5.14,88.66.12,88.66,44.49v113.34c0,3.8.89,6.76,2.68,8.88,1.79,2.13,4.13,3.18,7.04,3.18.45,0,5.01.05,5.43.11v21.23Z"/>
  <path class="cls-1" d="M465.4,282.51c4.41-28.43-19.09-42.45-44.73-41.84-7.69.08-15.27,1.16-22.59,3.22,14.67.83,29.74.98,43.39,6.19,14.68,5.39,21.69,17.12,23.93,32.44Z"/>
</svg>