<?xml version="1.0" encoding="UTF-8"?>
<svg id="Layer_1" data-name="Layer 1" xmlns="http://www.w3.org/2000/svg" viewBox="0 0 900.09 792.23">
  <defs>
    <style>
      .cls-1 {
        fill: #91b6bb;
        stroke-width: 0px;
      }
    </style>
  </defs>
  <g>
    <g>
      <path class="cls-1" d="M824.08,480.03c-15.63,70.34-50.91,134.92-103.1,187.11-72.39,72.4-168.65,112.27-271.03,112.27s-198.64-39.87-271.03-112.27c-50.16-50.16-84.69-111.77-101.18-178.93-.97-.12-1.94-.23-2.91-.37-3.7-.53-7.32-1.29-10.88-2.22,16.46,71.61,52.66,137.34,105.9,190.58,74.82,74.82,174.29,116.02,280.09,116.02s205.28-41.2,280.09-116.02c56.15-56.15,93.37-126.19,108.44-202.37-1.65.9-3.35,1.8-5.16,2.64-3.01,1.42-6.1,2.58-9.25,3.55Z"/>
      <path class="cls-1" d="M178.92,125.08C251.32,52.69,347.57,12.82,449.95,12.82s198.64,39.87,271.03,112.27c41.15,41.15,71.78,90.02,90.56,143.34,3.03-.18,6.07-.3,9.08-.3,1.48,0,2.95.02,4.4.06-19.27-56.67-51.41-108.6-94.98-152.17C655.23,41.2,555.76,0,449.95,0S244.68,41.2,169.86,116.02c-45.5,45.5-78.54,100.14-97.47,159.76,4.27-.83,8.97-1.45,14.04-1.74,18.58-55.5,49.9-106.36,92.49-148.95Z"/>
    </g>
    <g>
      <path class="cls-1" d="M718.61,410.28c.26-35.54,0-57.1,0-57.1,0-35.93-17.11-53.9-51.32-53.9-6.89,0-12.75.7-17.59,2.1-4.84,1.4-10.38,3.39-16.62,5.97-5.38,2.15-10.12,3.82-14.2,5-4.09,1.18-8.71,1.77-13.88,1.77-3.23,0-6.35-.48-9.36-1.45-3.02-.97-6.67-2.53-10.97-4.68-5.6-2.79-10.81-4.95-15.65-6.45-4.84-1.5-10.49-2.26-16.95-2.26-6.03,0-11.41.97-16.14,2.9-4.73,1.94-10,4.63-15.81,8.07-6.03,3.44-11.03,5.97-15.01,7.58-3.99,1.61-8.45,2.42-13.4,2.42s-9.47-.7-13.56-2.1c-3.26-1.11-7.28-2.68-12.04-4.68-15.92-8.67-24.24-9.46-26.66-9.48-.46,0-.9.2-1.2.55l-1.61,1.92-10.22,12.17c-.88,1.05-.06,2.61,1.31,2.52,3.7-.23,6.62.37,8.91,1.39,2.56,1.15,4.71,3.05,6.2,5.43.53.84.97,1.73,1.33,2.65,2.1,5.43,2.35,11.82,2.73,17.57,2.18,33.08.29,96.62-44.05,111.54v8.95h117.09v-15.58c0,.05-12.86-1.51-13.7-12.67-.67-8.88-.75-16.92-.66-25.69.12-10.96.11-21.92.25-32.88.14-11.35.59-22.72.59-34.07,0-13.37,10.94-24.32,24.32-24.32s24.32,10.94,24.32,24.32v87.16c0,9.88-5.98,15.95-14.49,18.46-.24.07-.48.14-.72.2v15.47h86.21v-16.04c-7.91-2.7-13.37-8.66-13.37-18.1v-1.6c-.62-3.73,0-85.56,0-85.56,0-13.37,10.94-24.32,24.32-24.32s24.32,10.94,24.32,24.32v87.16c0,9.66-5.72,15.67-13.92,18.28-.32.1-.62.21-.94.3v15.56h104.59v-7.38s-32.75-10.92-32.45-51.44Z"/>
      <path class="cls-1" d="M894.87,447.66c-2.8,0-5.06-1.02-6.78-3.07-1.73-2.04-2.58-4.89-2.58-8.55v-109.12c0-42.72-53.63-47.78-85.35-42.83-13.27,2.07-26.12,5.94-39.08,9.35-12.74,3.35-26.11,4.31-39.19,2.77-2.47-.29-5.77-.17-6.46,2.23-.44,1.54.58,3.08,1.55,4.35,6.2,8.2,12.27,14.3,15.21,24.43,2.33,8.01,3.37,16.39,3.1,24.73h13.4c.19-.85.34-1.69.45-2.53,1.04-8.05,1.54-14.75,5.66-21.94,3.9-6.8,9.82-12.51,16.89-15.94,8.55-4.15,21.34-7.19,29.51-1.54,7.8,5.39,10.66,16.05,7.45,24.86-5.31,14.59-20.77,18.91-33.47,24.87-13.59,6.38-27.96,13.26-37.5,25.29-9.69,12.21-9.46,28.15-2.96,41.78,6.83,14.32,19.28,24.78,33,32.27,18.49,10.08,39.91,13.56,59.47,4.37,5.96-2.8,11.42-6.6,17.46-9.24,6.03-2.64,13-4.07,19.2-1.85,5.61,2.01,9.73,6.54,14.38,10.04,4.65,3.49,10.76,5.93,16.63,5.93.43,0,4.83-.05,5.22-.11v-20.44c-.4-.06-4.79-.11-5.22-.11ZM827.04,418.94c-.26,2.2-.64,4.36-1.16,6.46-1.68,6.78-5.67,13.32-11.93,16.42-7.79,3.85-17.8,1.36-23.97-4.77-6.17-6.13-8.78-15.22-8.37-23.9.88-18.61,12.58-35.27,27.19-46.03,3.53-2.6,18.58-11.92,18.58-11.96,0,12.14.09,24.28.04,36.42-.04,8.75.69,18.39-.39,27.36Z"/>
      <g>
        <path class="cls-1" d="M169.18,420.63c.81-3.4,1.47-9.69,1.97-15.82h-8.7c-.2.71-.39,1.42-.62,2.13-1,3.16-2.26,6.23-3.97,9.28-6.96,12.45-18.75,22.37-32.59,26.17-15.94,4.37-33.64.39-46.78-9.45-15.37-11.5-21.86-30.01-23.8-48.52-3.22-30.63,5.98-74.75,43.47-78.47,14.52-1.44,37.96,2.13,48.37,13.04,3.93,4.12,6.51,9.36,7.43,14.97.06.37.7,6.8.27,6.8h17.77v-47.58h-15.42c-9.55,9.18-31.76-.04-31.76-.04-38.21-13.06-71.79,4.29-71.79,4.29-5.62,2.83-11.06,6.05-16.18,9.73C11.49,325.36-1.82,356.1.2,387.03c2.77,42.34,33.83,80.41,76.68,86.54,21.67,3.1,44.44.42,62.98-11.88,11.45-7.59,20.74-18.22,26.03-30.83,1.41-3.35,2.47-6.76,3.3-10.24Z"/>
        <path class="cls-1" d="M434.17,351.83h-10.1c-3.79,75.36-54.47,75.38-54.47,75.38h0c-5.79.87-11.96.77-18.47-.52-15.61-3.09-27.98-14.48-31.17-30.23-.14-.69-.26-1.38-.37-2.08,20.98.79,46.03,2.18,64.37-9.41,16.39-10.35,22.62-29.78,20.57-48.9-3.31-30.92-36.89-42.94-63.87-42.66-33.1.34-62.32,14.5-79.04,43.63-7.53,13.13-11.3,27.33-11.3,42.6s3.87,30.13,11.62,43.25c18.26,30.92,54.47,44.12,89.8,41.11,21.16-1.8,41.68-8.86,57.36-23.49,23-21.46,26.19-57.74,25.05-88.5,0-.06,0-.13,0-.19ZM318.15,371.04c-.62-14.73,1.36-30.37,8.71-43.35,6.16-10.89,19.99-21.32,31.95-14.07,7.4,4.48,7.34,13.31,5.9,21.51-5.46,31.07-46.46,38.13-46.56,35.92Z"/>
        <path class="cls-1" d="M233.99,392.45c-.18-26.93,1.2-52.79,17.59-75.26,13.76-18.86,34.49-31.52,56.96-37.24,1.8-.4,3.61-.78,5.44-1.11,38.47-7.08,71.95-1.65,95.53,25.33,1.11,1.27,2.13,2.67,3.64,3.44,4.16,2.13,6.93-.75,8.87-3.55,10.19-14.64,10.78-35.34,1.46-50.55-8.12-13.24-21.74-17.87-36.63-18.71-22.93-1.29-46.14,2.78-67.26,11.8-19.59,8.36-37.25,20.83-57.03,28.75-14.77,5.92-32.81,17.08-48.39,8.18-6.44-3.68-11.82-9.03-18.34-12.56-10.4-5.62-22.57-6.08-34.52-5.67v11.07c3.18-.07,6.21.04,8.92.47,2.94.48,5.94,1.12,8.43,2.75,3.3,2.17,5.7,5.82,6.25,9.73,1,7.01.97,15.16,1.01,22.47.04,6.87.08,13.74.14,20.61.02,2.6.1,5.21.11,7.81.02,13.76-.04,31.77-.28,54.46-.22,20.74-4.57,35.98-9.88,46.92-.2.41-.4.81-.61,1.21-8.57,16.92-19.27,23.02-19.27,23.02v3.27h112.81v-8.48c0,.53-34.57-11.13-34.96-68.17ZM376.87,244.48c24.68-.58,47.3,12.92,43.06,40.28-2.15-14.75-8.9-26.04-23.04-31.23-13.14-5.01-27.65-5.16-41.77-5.96,7.05-1.98,14.35-3.02,21.75-3.1Z"/>
      </g>
    </g>
    <g>
      <path class="cls-1" d="M168.77,492.05c4.38,0,8.26.85,11.64,2.56,3.38,1.7,6,4.13,7.87,7.27s2.8,6.78,2.8,10.91-.93,7.76-2.78,10.91c-1.85,3.14-4.46,5.59-7.82,7.33-3.36,1.74-7.27,2.61-11.72,2.61h-15.92v-41.58h15.92ZM177.16,521.39c1.93-1.91,2.89-4.74,2.89-8.49s-.96-6.65-2.89-8.58c-1.93-1.93-4.72-2.9-8.38-2.9h-4.98v22.84h4.98c3.66,0,6.46-.96,8.38-2.87Z"/>
      <path class="cls-1" d="M235.78,508.52v9.03h-16.77v6.7h19.03v9.37h-29.96v-41.58h29.96v9.37h-19.03v7.1h16.77Z"/>
      <path class="cls-1" d="M271.98,524.32c1.93,0,3.38-.25,4.36-.74s1.47-1.29,1.47-2.39c0-.91-.58-1.58-1.73-2.02s-3.07-.92-5.75-1.45c-3.32-.64-6.12-1.35-8.38-2.13s-4.24-2.06-5.92-3.86c-1.68-1.8-2.52-4.23-2.52-7.3,0-2.65.73-4.96,2.18-6.93,1.45-1.97,3.46-3.48,6-4.54s5.41-1.59,8.58-1.59c3.36,0,6.51.53,9.46,1.59s5.57,2.61,7.87,4.66l-5.55,7.67c-1.59-1.21-3.46-2.16-5.61-2.84s-4.3-1.02-6.46-1.02c-3.66,0-5.49.98-5.49,2.95,0,.83.58,1.47,1.73,1.9,1.15.44,3.01.9,5.58,1.39,3.36.64,6.17,1.35,8.44,2.13s4.25,2.06,5.95,3.86,2.55,4.27,2.55,7.41c0,4.2-1.5,7.47-4.5,9.8s-7.11,3.49-12.32,3.49c-3.74,0-7.28-.62-10.62-1.85-3.34-1.23-6.26-2.91-8.75-5.03l5.72-7.67c2.15,1.44,4.35,2.55,6.6,3.32s4.62,1.16,7.11,1.16Z"/>
      <path class="cls-1" d="M305.17,492.05h10.93v41.58h-10.93v-41.58Z"/>
      <path class="cls-1" d="M377.51,515.74c-.34,3.56-1.46,6.76-3.37,9.6-1.91,2.84-4.46,5.06-7.65,6.65-3.19,1.59-6.79,2.39-10.79,2.39-4.27,0-8.11-.95-11.53-2.84-3.42-1.89-6.1-4.48-8.04-7.75-1.94-3.28-2.92-6.9-2.92-10.88s.97-7.61,2.92-10.91c1.94-3.29,4.63-5.89,8.04-7.78,3.42-1.89,7.26-2.84,11.53-2.84s8.26.96,11.53,2.87c3.27,1.91,5.92,4.59,7.96,8.04l-9.8,4.49c-2.38-3.6-5.61-5.4-9.69-5.4-2.15,0-4.11.5-5.86,1.51-1.76,1-3.14,2.39-4.16,4.15s-1.53,3.72-1.53,5.88.51,4.05,1.53,5.79c1.02,1.74,2.41,3.11,4.16,4.12,1.76,1,3.71,1.51,5.86,1.51,2.53,0,4.7-.6,6.51-1.79s2.96-2.79,3.46-4.8h-12.63v-8.35h24.64l.06,1.93c0,1.25-.08,2.73-.23,4.43Z"/>
      <path class="cls-1" d="M432.45,533.63h-10.31l-16.37-22.33v22.33h-10.93v-41.58h10.31l16.31,22.44v-22.44h10.99v41.58Z"/>
      <path class="cls-1" d="M495.05,524.32c1.93,0,3.38-.25,4.36-.74s1.47-1.29,1.47-2.39c0-.91-.58-1.58-1.73-2.02s-3.07-.92-5.75-1.45c-3.32-.64-6.12-1.35-8.38-2.13s-4.24-2.06-5.92-3.86c-1.68-1.8-2.52-4.23-2.52-7.3,0-2.65.73-4.96,2.18-6.93,1.45-1.97,3.46-3.48,6-4.54s5.41-1.59,8.58-1.59c3.36,0,6.51.53,9.46,1.59s5.57,2.61,7.87,4.66l-5.55,7.67c-1.59-1.21-3.46-2.16-5.61-2.84s-4.3-1.02-6.46-1.02c-3.66,0-5.49.98-5.49,2.95,0,.83.58,1.47,1.73,1.9,1.15.44,3.01.9,5.58,1.39,3.36.64,6.17,1.35,8.44,2.13s4.25,2.06,5.95,3.86,2.55,4.27,2.55,7.41c0,4.2-1.5,7.47-4.5,9.8s-7.11,3.49-12.32,3.49c-3.74,0-7.28-.62-10.62-1.85-3.34-1.23-6.26-2.91-8.75-5.03l5.72-7.67c2.15,1.44,4.35,2.55,6.6,3.32s4.62,1.16,7.11,1.16Z"/>
      <path class="cls-1" d="M547.84,533.63h-10.99v-32.21h-11.38v-9.37h33.7v9.37h-11.33v32.21Z"/>
      <path class="cls-1" d="M577.29,525.94c-1.55-2.67-2.32-5.77-2.32-9.29v-24.6h10.93v24.6c0,2.42.7,4.31,2.1,5.65,1.4,1.34,3.3,2.02,5.72,2.02s4.2-.67,5.58-2.02c1.38-1.34,2.07-3.23,2.07-5.65v-24.6h10.99v24.6c0,3.52-.77,6.62-2.32,9.29-1.55,2.67-3.73,4.74-6.54,6.22s-6.07,2.22-9.77,2.22-7.02-.74-9.86-2.22-5.02-3.55-6.57-6.22Z"/>
      <path class="cls-1" d="M646.85,492.05c4.38,0,8.26.85,11.64,2.56s6,4.13,7.87,7.27,2.8,6.78,2.8,10.91-.93,7.76-2.78,10.91-4.46,5.59-7.82,7.33-7.27,2.61-11.72,2.61h-15.92v-41.58h15.92ZM655.24,521.39c1.93-1.91,2.89-4.74,2.89-8.49s-.96-6.65-2.89-8.58c-1.93-1.93-4.72-2.9-8.38-2.9h-4.98v22.84h4.98c3.66,0,6.46-.96,8.38-2.87Z"/>
      <path class="cls-1" d="M686.17,492.05h10.93v41.58h-10.93v-41.58Z"/>
      <path class="cls-1" d="M717.01,523.89c-1.87-3.28-2.8-6.96-2.8-11.05s.93-7.76,2.8-11.02c1.87-3.26,4.49-5.81,7.87-7.67,3.38-1.86,7.28-2.78,11.7-2.78s8.34.93,11.75,2.78c3.42,1.86,6.07,4.41,7.96,7.67,1.89,3.26,2.83,6.93,2.83,11.02s-.94,7.77-2.83,11.05-4.54,5.84-7.96,7.7c-3.42,1.86-7.33,2.78-11.75,2.78s-8.32-.93-11.7-2.78c-3.38-1.86-6-4.42-7.87-7.7ZM726.69,507.05c-1,1.74-1.5,3.67-1.5,5.79s.5,4.11,1.5,5.85c1,1.74,2.37,3.11,4.11,4.12,1.74,1,3.68,1.51,5.83,1.51s4.1-.5,5.83-1.51c1.74-1,3.11-2.38,4.11-4.12,1-1.74,1.5-3.69,1.5-5.85s-.5-4.05-1.5-5.79-2.37-3.11-4.11-4.12c-1.74-1-3.68-1.51-5.83-1.51s-4.1.5-5.83,1.51c-1.74,1-3.11,2.38-4.11,4.12Z"/>
    </g>
  </g>
  <path class="cls-1" d="M141.43,252.13C219.81,70.26,442.6-3.14,615.03,92.76c63.89,35.32,116.25,92.02,145,159.12-21.99-43-52.36-81.27-89.46-111.96C499.65-2.58,240.9,54.11,141.43,252.13h0Z"/>
  <path class="cls-1" d="M746.72,567.56c-85.27,160.5-288.54,221.84-449.61,139.14-60.25-30.74-111.29-80.17-142.76-140.03,15.82,25.35,34.55,48.75,55.95,69.3,85.07,83.32,212.25,117.15,327.37,86.46,86.36-22.09,162.08-79.24,209.05-154.87h0Z"/>
</svg>