<?xml version="1.0" encoding="UTF-8"?>
<svg xmlns="http://www.w3.org/2000/svg" xmlns:xlink="http://www.w3.org/1999/xlink" viewBox="0 0 90.12 48.29">
  <defs>
    <style>
      .cls-1 {
        fill: url(#linear-gradient);
      }

      .cls-1, .cls-2, .cls-3, .cls-4 {
        stroke-width: 0px;
      }

      .cls-2 {
        fill: url(#New_Gradient_Swatch_copy_4);
      }

      .cls-5 {
        isolation: isolate;
      }

      .cls-6 {
        mix-blend-mode: multiply;
        opacity: .39;
      }

      .cls-3 {
        fill: #a66b0b;
      }

      .cls-4 {
        fill: #fff;
      }

      .cls-7 {
        fill: none;
        stroke: #fff;
        stroke-miterlimit: 10;
        stroke-width: .5px;
      }
    </style>
    <linearGradient id="New_Gradient_Swatch_copy_4" data-name="New Gradient Swatch copy 4" x1="0" y1="24.15" x2="90.12" y2="24.15" gradientUnits="userSpaceOnUse">
      <stop offset="0" stop-color="#0075ff"/>
      <stop offset="1" stop-color="#003abf"/>
    </linearGradient>
    <linearGradient id="linear-gradient" x1="67.19" y1="14.74" x2="74.6" y2="-8.03" gradientUnits="userSpaceOnUse">
      <stop offset="0" stop-color="#fcb31b"/>
      <stop offset="1" stop-color="#eb911e"/>
    </linearGradient>
  </defs>
  <g class="cls-5">
    <g id="Layer_1" data-name="Layer 1">
      <g>
        <rect class="cls-2" width="90.12" height="48.29" rx="3.4" ry="3.4"/>
        <g>
          <path class="cls-4" d="M64.74,40.13l-3.73,4.89h-3.32l6.88-9.04h3.32l.36,9.04h-3.32l-.19-4.89Z"/>
          <path class="cls-4" d="M74.13,39.25l-.34,1.02h1.64c.22,0,.43-.03.61-.08.18-.05.35-.12.49-.21.14-.09.26-.18.35-.29.09-.11.15-.22.19-.33.07-.22.02-.43-.14-.62-.16-.19-.45-.28-.88-.28h-10.94l.81-2.48h10.83c.93,0,1.67.11,2.23.34.56.23.97.52,1.24.88.27.36.41.76.43,1.2.02.44-.04.87-.17,1.3-.14.42-.34.82-.61,1.19-.27.37-.64.69-1.1.97-.46.28-1.03.49-1.7.65-.67.16-1.48.23-2.41.23h-1.67l-.74,2.27h-3.32l.84-2.6c.61-1.89,2.37-3.17,4.36-3.17h0Z"/>
          <path class="cls-4" d="M82.67,45.02h-3.32l2.92-9.04h3.32l-2.92,9.04Z"/>
        </g>
        <g>
          <path class="cls-4" d="M5.17,32.38c-.73-.82-1.1-2.13-1.1-3.95v-1.77h3.57v2.26c0,.9.29,1.35.87,1.35.32,0,.55-.09.68-.29s.19-.51.19-.96c0-.59-.07-1.08-.21-1.47-.14-.39-.32-.71-.54-.97-.22-.26-.61-.67-1.17-1.21l-1.56-1.56c-1.21-1.18-1.82-2.49-1.82-3.93,0-1.55.36-2.73,1.07-3.54.71-.81,1.75-1.21,3.12-1.21,1.63,0,2.81.43,3.53,1.3s1.08,2.22,1.08,4.07h-3.7l-.02-1.25c0-.24-.07-.43-.2-.57s-.32-.21-.56-.21c-.28,0-.49.08-.63.23-.14.16-.21.37-.21.63,0,.59.34,1.2,1.01,1.84l2.11,2.03c.49.48.9.93,1.23,1.36.32.43.58.94.78,1.52.2.58.3,1.28.3,2.08,0,1.79-.33,3.14-.98,4.07-.66.92-1.74,1.38-3.24,1.38-1.65,0-2.84-.41-3.57-1.23Z"/>
          <path class="cls-4" d="M14.64,33.44V15.29h7.27v3.51h-3.57v3.53h3.42v3.42h-3.42v4.16h3.8v3.53h-7.5Z"/>
          <path class="cls-4" d="M23.81,15.29h5.58c.89,0,1.57.2,2.06.6s.81.96.98,1.69c.17.73.25,1.65.25,2.78,0,1.03-.13,1.83-.4,2.41-.27.58-.73.98-1.39,1.2.55.11.95.39,1.19.82.25.44.37,1.03.37,1.78l-.04,6.87h-3.55v-7.1c0-.51-.1-.83-.3-.97-.2-.14-.56-.21-1.08-.21v8.28h-3.68V15.29ZM28.37,22.01c.51,0,.76-.55.76-1.65,0-.48-.02-.84-.06-1.08-.04-.24-.12-.4-.23-.5s-.27-.14-.49-.14h-.84v3.36h.87Z"/>
          <path class="cls-4" d="M36.02,33.44l-2.24-18.17h3.46l1.33,12.36,1.18-12.36h3.46l-2.24,18.17h-4.96Z"/>
          <path class="cls-4" d="M44.55,33.44V15.29h3.51v18.15h-3.51Z"/>
          <path class="cls-4" d="M51.03,32.36c-.8-.83-1.19-1.97-1.19-3.42v-8.37c0-1.8.36-3.16,1.08-4.08.72-.92,1.84-1.37,3.38-1.37,1.34,0,2.42.37,3.23,1.1.82.73,1.23,1.79,1.23,3.17v3.13h-3.61v-2.68c0-.52-.06-.88-.19-1.08-.13-.2-.35-.3-.66-.3s-.55.11-.67.34c-.12.22-.18.56-.18.99v9.11c0,.48.07.83.21,1.05s.35.33.63.33c.56,0,.85-.46.85-1.37v-3.27h3.65v3.42c0,3.04-1.53,4.56-4.58,4.56-1.32,0-2.38-.42-3.18-1.25Z"/>
          <path class="cls-4" d="M60.46,33.44V15.29h7.27v3.51h-3.57v3.53h3.42v3.42h-3.42v4.16h3.8v3.53h-7.5Z"/>
          <path class="cls-4" d="M70.37,32.38c-.73-.82-1.1-2.13-1.1-3.95v-1.77h3.57v2.26c0,.9.29,1.35.87,1.35.32,0,.55-.09.68-.29s.19-.51.19-.96c0-.59-.07-1.08-.21-1.47-.14-.39-.32-.71-.54-.97-.22-.26-.61-.67-1.17-1.21l-1.56-1.56c-1.21-1.18-1.82-2.49-1.82-3.93,0-1.55.36-2.73,1.07-3.54.71-.81,1.75-1.21,3.12-1.21,1.63,0,2.81.43,3.53,1.3.72.87,1.08,2.22,1.08,4.07h-3.7l-.02-1.25c0-.24-.07-.43-.2-.57s-.32-.21-.56-.21c-.28,0-.49.08-.63.23-.14.16-.21.37-.21.63,0,.59.34,1.2,1.01,1.84l2.11,2.03c.49.48.9.93,1.22,1.36.32.43.58.94.78,1.52.2.58.3,1.28.3,2.08,0,1.79-.33,3.14-.98,4.07-.66.92-1.74,1.38-3.24,1.38-1.65,0-2.84-.41-3.57-1.23Z"/>
        </g>
        <path class="cls-4" d="M7.17,13.04l1.75-5.42-.23,5.42h3.07s3.24-5.41,3.24-5.41l-1.75,5.42h3.06s2.13-6.62,2.13-6.62l.27,6.63h3.64s1.74-3.75,1.74-3.75l.15,3.76h3.63s1.48-3.18,1.48-3.18c0,.11,0,.22.01.32.05.54.23,1.02.55,1.44.31.43.77.77,1.35,1.03.59.26,1.33.4,2.24.4l5.03-.02,1.6-4.94h-3.32l-.79,2.46h-1.79c-.46,0-.82-.1-1.06-.3-.24-.2-.39-.46-.43-.76-.05-.31-.01-.63.11-.99.12-.35.31-.68.56-.98.25-.3.56-.55.93-.75.37-.2.77-.3,1.21-.3h4.43s.8-2.46.8-2.46h-4.46c-.89,0-1.7.13-2.45.39-.75.26-1.41.6-1.99,1.03-.27.2-.53.42-.76.64l.95-2.06h-2.67l-2.27,4.9-.21-4.9h-3.06l-2.27,4.9-.21-4.9h-6.92l-2.52,4.22.18-4.22h0s-4.73,0-4.73,0l-2.93,9h0s2.71,0,2.71,0Z"/>
        <line class="cls-7" x1="56.83" y1="41.07" x2="4.4" y2="41.07"/>
      </g>
      <polygon class="cls-1" points="90.12 13.08 48.28 13.08 51.29 8.55 48.28 4.03 90.12 4.03 90.12 13.08"/>
      <g class="cls-6">
        <path class="cls-3" d="M57.18,9.56c0-.48-.51-.51-1.07-.6-.68-.11-1.42-.35-1.42-1.52,0-1.3,1.05-1.58,2.05-1.58.51,0,.97.06,1.41.11v1.03c-.39-.06-.92-.14-1.38-.14-.68,0-.89.24-.89.55,0,.41.41.46.9.54.75.11,1.6.23,1.6,1.55,0,1.24-.9,1.66-2.03,1.66-.61,0-1.12-.07-1.6-.16v-1.03c.51.09,1.06.19,1.5.19.61,0,.91-.21.91-.61Z"/>
        <path class="cls-3" d="M63.19,6.94h-1.6v4.13h-1.17v-4.13h-1.6v-1h4.38v1Z"/>
        <path class="cls-3" d="M64.67,5.94h1.58l1.7,5.14h-1.23l-.31-.98h-1.91l-.31.98h-1.23l1.7-5.14ZM64.75,9.07h1.38l-.66-2.15h-.06l-.67,2.15Z"/>
        <path class="cls-3" d="M70.83,10.16c.24,0,.41-.03.66-.08v-1.77h1.17v2.49c-.53.19-1.25.36-2,.36-1.75,0-2.48-1.04-2.48-2.68,0-1.51.93-2.62,2.78-2.62.51,0,1.09.06,1.53.18v1.03c-.45-.13-1.1-.21-1.49-.21-.81,0-1.62.46-1.62,1.66,0,1.07.56,1.64,1.45,1.64Z"/>
        <path class="cls-3" d="M73.65,5.94h1.18v5.13h-1.18v-5.13Z"/>
        <path class="cls-3" d="M77.09,7.9v3.18h-1.18v-5.13h1.26l2.08,3.29v-3.29h1.16v5.13h-1.23l-2.1-3.18Z"/>
        <path class="cls-3" d="M83.93,10.16c.24,0,.41-.03.66-.08v-1.77h1.17v2.49c-.53.19-1.25.36-2,.36-1.75,0-2.48-1.04-2.48-2.68,0-1.51.93-2.62,2.78-2.62.51,0,1.09.06,1.53.18v1.03c-.45-.13-1.1-.21-1.49-.21-.81,0-1.63.46-1.63,1.66,0,1.07.56,1.64,1.45,1.64Z"/>
      </g>
    </g>
  </g>
</svg>