<?xml version="1.0" encoding="UTF-8"?>
<svg id="Layer_1" data-name="Layer 1" xmlns="http://www.w3.org/2000/svg" xmlns:xlink="http://www.w3.org/1999/xlink" viewBox="0 0 90.12 48.29">
  <defs>
    <style>
      .cls-1 {
        fill: url(#New_Gradient_Swatch_copy_4);
      }

      .cls-1, .cls-2 {
        stroke-width: 0px;
      }

      .cls-2 {
        fill: #fff;
      }

      .cls-3 {
        fill: none;
        stroke: #fff;
        stroke-miterlimit: 10;
        stroke-width: .5px;
      }
    </style>
    <linearGradient id="New_Gradient_Swatch_copy_4" data-name="New Gradient Swatch copy 4" x1="0" y1="24.15" x2="90.12" y2="24.15" gradientUnits="userSpaceOnUse">
      <stop offset="0" stop-color="#0075ff"/>
      <stop offset="1" stop-color="#003abf"/>
    </linearGradient>
  </defs>
  <rect class="cls-1" y="0" width="90.12" height="48.29" rx="3.4" ry="3.4"/>
  <g>
    <path class="cls-2" d="M64.74,40.13l-3.73,4.89h-3.32l6.88-9.04h3.32l.36,9.04h-3.32l-.19-4.89Z"/>
    <path class="cls-2" d="M74.13,39.25l-.34,1.02h1.64c.22,0,.43-.03.61-.08.18-.05.35-.12.49-.21.14-.09.26-.18.35-.29.09-.11.15-.22.19-.33.07-.22.02-.43-.14-.62-.16-.19-.45-.28-.88-.28h-10.94l.81-2.48h10.83c.93,0,1.67.11,2.23.34.56.23.97.52,1.24.88.27.36.41.76.43,1.2.02.44-.04.87-.17,1.3-.14.42-.34.82-.61,1.19-.27.37-.64.69-1.1.97-.46.28-1.03.49-1.7.65-.67.16-1.48.23-2.41.23h-1.67l-.74,2.27h-3.32l.84-2.6c.61-1.89,2.37-3.17,4.36-3.17h0Z"/>
    <path class="cls-2" d="M82.67,45.02h-3.32l2.92-9.04h3.32l-2.92,9.04Z"/>
  </g>
  <g>
    <path class="cls-2" d="M5.33,32.38c-.81-.82-1.21-2.13-1.21-3.95v-1.77h3.93v2.26c0,.9.32,1.35.95,1.35.36,0,.6-.09.74-.29.14-.19.21-.51.21-.96,0-.59-.08-1.08-.23-1.47-.15-.39-.35-.71-.59-.97-.24-.26-.67-.67-1.29-1.21l-1.72-1.56c-1.33-1.18-2-2.49-2-3.93,0-1.55.39-2.73,1.17-3.54.78-.81,1.92-1.21,3.43-1.21,1.8,0,3.09.43,3.88,1.3s1.19,2.22,1.19,4.07h-4.07l-.02-1.25c0-.24-.07-.43-.22-.57-.15-.14-.35-.21-.62-.21-.31,0-.54.08-.7.23s-.23.37-.23.63c0,.59.37,1.2,1.12,1.84l2.32,2.03c.54.48.99.93,1.35,1.36.36.43.64.94.86,1.52.22.58.33,1.28.33,2.08,0,1.79-.36,3.14-1.08,4.07-.72.92-1.91,1.38-3.57,1.38-1.81,0-3.12-.41-3.93-1.23Z"/>
    <path class="cls-2" d="M15.74,33.44V15.29h7.99v3.51h-3.93v3.53h3.76v3.42h-3.76v4.16h4.18v3.53h-8.25Z"/>
    <path class="cls-2" d="M25.82,15.29h6.13c.98,0,1.73.2,2.27.6.53.4.9.96,1.08,1.69.19.73.28,1.65.28,2.78,0,1.03-.15,1.83-.44,2.41-.29.58-.81.98-1.53,1.2.6.11,1.04.39,1.31.82.27.44.41,1.03.41,1.78l-.05,6.87h-3.9v-7.1c0-.51-.11-.83-.33-.97-.22-.14-.61-.21-1.19-.21v8.28h-4.04V15.29ZM30.84,22.01c.56,0,.84-.55.84-1.65,0-.48-.02-.84-.07-1.08-.05-.24-.13-.4-.26-.5-.12-.09-.3-.14-.53-.14h-.93v3.36h.95Z"/>
    <path class="cls-2" d="M39.25,33.44l-2.46-18.17h3.81l1.46,12.36,1.3-12.36h3.81l-2.46,18.17h-5.46Z"/>
    <path class="cls-2" d="M48.64,33.44V15.29h3.86v18.15h-3.86Z"/>
    <path class="cls-2" d="M55.77,32.36c-.88-.83-1.31-1.97-1.31-3.42v-8.37c0-1.8.4-3.16,1.19-4.08.79-.92,2.03-1.37,3.72-1.37,1.47,0,2.66.37,3.56,1.1.9.73,1.35,1.79,1.35,3.17v3.13h-3.97v-2.68c0-.52-.07-.88-.21-1.08-.14-.2-.38-.3-.72-.3s-.6.11-.73.34c-.13.22-.2.56-.2.99v9.11c0,.48.08.83.23,1.05.15.22.39.33.7.33.62,0,.93-.46.93-1.37v-3.27h4.02v3.42c0,3.04-1.68,4.56-5.04,4.56-1.46,0-2.62-.42-3.5-1.25Z"/>
    <path class="cls-2" d="M66.14,33.44V15.29h7.99v3.51h-3.93v3.53h3.76v3.42h-3.76v4.16h4.18v3.53h-8.25Z"/>
    <path class="cls-2" d="M77.04,32.38c-.81-.82-1.21-2.13-1.21-3.95v-1.77h3.93v2.26c0,.9.32,1.35.95,1.35.36,0,.6-.09.74-.29.14-.19.21-.51.21-.96,0-.59-.08-1.08-.23-1.47-.16-.39-.35-.71-.59-.97-.24-.26-.67-.67-1.29-1.21l-1.72-1.56c-1.33-1.18-2-2.49-2-3.93,0-1.55.39-2.73,1.17-3.54.78-.81,1.92-1.21,3.43-1.21,1.8,0,3.09.43,3.88,1.3s1.19,2.22,1.19,4.07h-4.07l-.02-1.25c0-.24-.07-.43-.22-.57-.15-.14-.35-.21-.62-.21-.31,0-.54.08-.7.23-.15.16-.23.37-.23.63,0,.59.37,1.2,1.12,1.84l2.32,2.03c.54.48.99.93,1.35,1.36s.64.94.86,1.52c.22.58.33,1.28.33,2.08,0,1.79-.36,3.14-1.08,4.07-.72.92-1.91,1.38-3.57,1.38-1.81,0-3.12-.41-3.93-1.23Z"/>
  </g>
  <path class="cls-2" d="M7.17,13.04l1.75-5.42-.23,5.42h3.07s3.24-5.41,3.24-5.41l-1.75,5.42h3.06s2.13-6.62,2.13-6.62l.27,6.63h3.64s1.74-3.75,1.74-3.75l.15,3.76h3.63s1.48-3.18,1.48-3.18c0,.11,0,.22.01.32.05.54.23,1.02.55,1.44.31.43.77.77,1.35,1.03.59.26,1.33.4,2.24.4l5.03-.02,1.6-4.94h-3.32l-.79,2.46h-1.79c-.46,0-.82-.1-1.06-.3-.24-.2-.39-.46-.43-.76-.05-.31-.01-.63.11-.99.12-.35.31-.68.56-.98.25-.3.56-.55.93-.75.37-.2.77-.3,1.21-.3h4.43s.8-2.46.8-2.46h-4.46c-.89,0-1.7.13-2.45.39-.75.26-1.41.6-1.99,1.03-.27.2-.53.42-.76.64l.95-2.06h-2.67l-2.27,4.9-.21-4.9h-3.06l-2.27,4.9-.21-4.9h-6.92l-2.52,4.22.18-4.22h0s-4.73,0-4.73,0l-2.93,9h0s2.71,0,2.71,0Z"/>
  <line class="cls-3" x1="56.83" y1="41.07" x2="4.4" y2="41.07"/>
</svg>