<svg xmlns="http://www.w3.org/2000/svg" viewBox="0 0 360 141.12"><title>logos</title><path d="M67,77.38a22.64,22.64,0,0,1-6-1.19c-1-.45-1.44-1.47-1.44-3A7.65,7.65,0,0,1,60,70.42a17.82,17.82,0,0,1,1.21-2.6L68,56.06H93c.68,4.94,1,7.75,1.13,8.43q.61,4.92.62,6.22,0,3.84-2.06,5.06t-7,1.61v2.77h35.12V77.38q-5.37-.39-6.95-1.9c-1.06-1-2-3.72-2.72-8.16L100,1.1H97L54,69.18a21.86,21.86,0,0,1-5,6.11,15.93,15.93,0,0,1-4.75,2.09v2.77H67ZM87.9,23.28l4.26,28.2H70.77Z" fill="#231f20"/><path d="M158.18,77.15a15,15,0,0,1-5.43-.73,4.5,4.5,0,0,1-2.88-4.58A7.52,7.52,0,0,1,150,70.6c.08-.41.17-.87.28-1.36L157.89,41q9.86,0,12.87,2.49c2,1.66,3,4.4,3,8.2,0,.45,0,1.09-.08,1.92s-.17,1.81-.32,2.94l3.17.57,8.6-31.67L181.9,25q-4.29,8.48-7.79,10.18t-15.08,2l6.85-25.68q.85-3.21,2.29-4.23t5.36-1q13.22,0,17.64,6.05,2.55,3.51,2.67,11.82l3.11.51,4.91-22H140.29v3c3.51.3,5.79.69,6.84,1.19s1.58,1.65,1.58,3.5a20.41,20.41,0,0,1-.5,3.78c-.19.79-.42,1.72-.68,2.77L133.31,68.85q-1.25,4.64-3.22,6.21a12.23,12.23,0,0,1-6.16,2.09v3h34.25Z" fill="#231f20"/><path d="M244.75,2.68H210.26v3q5.2.45,6.85,1.21c1.09.51,1.64,1.75,1.64,3.71a13.08,13.08,0,0,1-.32,2.63c-.2,1-.51,2.23-.93,3.7l-14.22,52c-.87,3.14-2,5.22-3.29,6.23a12.52,12.52,0,0,1-6.1,2v3h34.49v-3c-3.51-.29-5.79-.71-6.85-1.23S220,74.15,220,72.2a7.16,7.16,0,0,1,.09-1.09c.05-.4.12-.78.19-1.16l.91-4,14.28-52c.87-3.2,1.94-5.3,3.2-6.28s3.31-1.65,6.13-2Z" fill="#231f20"/><path d="M303.45,65.05,300,62.51a45.77,45.77,0,0,1-8.14,8.2,26.36,26.36,0,0,1-16,5.59,18.73,18.73,0,0,1-12-4.43q-5.52-4.44-5.52-16.49,0-16.56,8.94-32.51Q277.15,5,290.62,5a14.47,14.47,0,0,1,10.91,4.47q4.31,4.47,4.3,13.62c0,.57,0,1,0,1.28s-.09,1.23-.2,2.85l3.62.68L315.1.82h-3.5a10.5,10.5,0,0,1-1.76,2.48,3.65,3.65,0,0,1-2.71.91,48.74,48.74,0,0,1-7.55-1.7A47,47,0,0,0,287.34.82q-19.12,0-33,15.38A52.15,52.15,0,0,0,240.4,52.44q0,13.7,9.08,21.86t23,8.17a35.81,35.81,0,0,0,16.73-4.3A39,39,0,0,0,303.45,65.05Z" fill="#231f20"/><path d="M26.16,129.37l-4.54-26.75h-1L6.78,126.25A52.27,52.27,0,0,1,3.15,132,4.65,4.65,0,0,1,.67,133.4v.77H9.53v-.77A4.75,4.75,0,0,1,7.35,133a1.36,1.36,0,0,1-.61-1.27,5.37,5.37,0,0,1,.39-1.78,7.82,7.82,0,0,1,.53-1.13l3-5.3H20.72l1,6.18a5.33,5.33,0,0,1,.07.67c0,.26,0,.5,0,.74a1.76,1.76,0,0,1-1,1.79,9.53,9.53,0,0,1-2.72.51v.77H29.76v-.77a4.23,4.23,0,0,1-2.56-.81A7.32,7.32,0,0,1,26.16,129.37Zm-14.59-7.55,6.86-12.25,2,12.25Z" fill="#231f20"/><path d="M50.28,131a3.46,3.46,0,0,1-1.92,1.18,1.14,1.14,0,0,1-.54-.18c-.21-.13-.31-.4-.31-.82a3.07,3.07,0,0,1,.06-.57,5.43,5.43,0,0,1,.15-.69l3.1-11,4.55-16.59.05-.25-.21-.23q-4.64.86-7.26,1.2v.76l.89-.07c.22,0,.46,0,.73,0a1.61,1.61,0,0,1,1,.23c.23.15.34.53.34,1.13a3.81,3.81,0,0,1,0,.54,3.54,3.54,0,0,1-.15.7L48,115.84a4,4,0,0,0-.69-1.73,3.34,3.34,0,0,0-2.6-.87q-4.39,0-9,5.28T31,128.84a5.82,5.82,0,0,0,1.5,4.4A4.94,4.94,0,0,0,36,134.67a7,7,0,0,0,4.56-1.7,19.33,19.33,0,0,0,3.84-4.38c-.19.84-.33,1.61-.42,2.32a14.27,14.27,0,0,0-.14,1.55,2.1,2.1,0,0,0,1,2,2.29,2.29,0,0,0,1.14.28q1.9,0,4.3-2.34a16.58,16.58,0,0,0,2.2-2.59l.33-.49-.53-.51C51.42,129.8,50.76,130.54,50.28,131Zm-6-4c-2,3.54-4.15,5.3-6.36,5.3a2.36,2.36,0,0,1-2.19-1,4.61,4.61,0,0,1-.65-2.46c0-2.49,1-5.42,3-8.8q3.3-5.67,6.83-5.67a1.91,1.91,0,0,1,1.89.92,5.17,5.17,0,0,1,.46,2.33A18.67,18.67,0,0,1,44.32,127Z" fill="#231f20"/><path d="M84.71,130.65a8.54,8.54,0,0,1-.75.81,5.24,5.24,0,0,1-.8.7,1.36,1.36,0,0,1-.73.21.62.62,0,0,1-.6-.32.82.82,0,0,1-.07-.61l3.64-12.59a16.15,16.15,0,0,0,.43-2.46,2.89,2.89,0,0,0-.9-2.37,3.07,3.07,0,0,0-2-.74c-1.71,0-3.69,1.24-5.92,3.71a51.32,51.32,0,0,0-4.43,6c.67-2.06,1.13-3.56,1.38-4.49a9,9,0,0,0,.38-2.17,2.71,2.71,0,0,0-2.78-3c-1.62,0-3.5,1.12-5.62,3.34A57.85,57.85,0,0,0,61,122.89l2.62-9.45-.19-.16q-5.19,1.16-7.51,1.53v.76a8.9,8.9,0,0,1,2.4.11c.42.13.62.49.62,1.1a2.56,2.56,0,0,1,0,.49,5,5,0,0,1-.12.49l-4.45,16.41h3.55c.8-2.61,1.45-4.6,1.94-6a26.19,26.19,0,0,1,2.62-5.47,39.65,39.65,0,0,1,3.58-4.53c1.45-1.62,2.68-2.43,3.67-2.43a1,1,0,0,1,.81.31,1.41,1.41,0,0,1,.25.87,2.85,2.85,0,0,1,0,.41c0,.13,0,.26-.08.4L66,134.17h3.59q1.53-5.59,2.11-7.25a25.11,25.11,0,0,1,2-4.1,37.75,37.75,0,0,1,3.65-4.73q2.1-2.34,3.68-2.34a1,1,0,0,1,.74.3,1.17,1.17,0,0,1,.29.86,2.4,2.4,0,0,1,0,.37c0,.12-.06.28-.11.46l-3.58,12.94c-.08.32-.13.61-.17.88a4.78,4.78,0,0,0-.06.73,2.38,2.38,0,0,0,.78,2,2.06,2.06,0,0,0,1.25.37,5.25,5.25,0,0,0,3.32-1.4,18.78,18.78,0,0,0,3.35-3.75l.23-.32-.71-.56Z" fill="#231f20"/><path d="M97.6,103.15a2.09,2.09,0,0,0-1.61.74,2.73,2.73,0,0,0,0,3.58,2.09,2.09,0,0,0,1.61.74,2.19,2.19,0,0,0,1.63-.73,2.71,2.71,0,0,0,0-3.59A2.16,2.16,0,0,0,97.6,103.15Z" fill="#231f20"/><path d="M96.08,131c-.86.91-1.56,1.37-2.08,1.37-.31,0-.5-.1-.58-.28a1.26,1.26,0,0,1-.13-.6,10.23,10.23,0,0,1,.32-1.57l4.66-16.48a.18.18,0,0,0-.11-.19,2.53,2.53,0,0,0-1.11.15c-.65.15-1.35.29-2.08.41l-1.68.27-2.74.36v.76a9.61,9.61,0,0,1,2.41.19c.41.13.61.48.61,1a1.75,1.75,0,0,1,0,.46c0,.16-.07.33-.11.51l-3.29,11.86c-.17.65-.28,1.13-.34,1.47a6.59,6.59,0,0,0-.09,1.16,3,3,0,0,0,.65,2,2,2,0,0,0,1.65.83A5.15,5.15,0,0,0,95.45,133a25.1,25.1,0,0,0,2.87-3.48l.23-.33-.6-.5A24.42,24.42,0,0,1,96.08,131Z" fill="#231f20"/><path d="M119.2,131.66a2.15,2.15,0,0,1-1.33.71.57.57,0,0,1-.52-.28,1.23,1.23,0,0,1-.16-.63,3.56,3.56,0,0,1,.12-.7c.07-.33.14-.61.2-.84l3-11c.12-.46.23-.9.3-1.3a5.76,5.76,0,0,0,.12-1.15,2.84,2.84,0,0,0-1.42-2.74,3.6,3.6,0,0,0-1.76-.4q-2.66,0-6,3.72a55.29,55.29,0,0,0-4.74,6.41l3.06-9.92a.5.5,0,0,0-.18-.21l-4.1.9-1.37.28c-.42.08-1.13.19-2.12.35v.76l.59-.08a3.27,3.27,0,0,1,.54,0,2.1,2.1,0,0,1,1.49.39,1.38,1.38,0,0,1,.38,1,4.22,4.22,0,0,1-.08.82c-.05.26-.25,1-.59,2.2l-4,14.26h3.55c1-3.35,1.74-5.66,2.2-6.93a22.53,22.53,0,0,1,1.9-3.91,37.7,37.7,0,0,1,3.18-4.44c1.77-2.09,3.25-3.14,4.41-3.14a1.06,1.06,0,0,1,1,.41,1.71,1.71,0,0,1,.26,1,6.1,6.1,0,0,1-.08.85,15.11,15.11,0,0,1-.31,1.51l-2.94,11.21a3.79,3.79,0,0,0-.15.76,6.12,6.12,0,0,0-.06.83,2.22,2.22,0,0,0,.71,1.89,2.55,2.55,0,0,0,1.49.51,5.25,5.25,0,0,0,3.55-1.82,28.78,28.78,0,0,0,2.94-3.6l-.67-.6A25.4,25.4,0,0,1,119.2,131.66Z" fill="#231f20"/><path d="M133,103.15a2.13,2.13,0,0,0-1.62.74,2.73,2.73,0,0,0,0,3.58,2.13,2.13,0,0,0,1.62.74,2.15,2.15,0,0,0,1.62-.73,2.68,2.68,0,0,0,0-3.59A2.13,2.13,0,0,0,133,103.15Z" fill="#231f20"/><path d="M131.49,131c-.87.91-1.56,1.37-2.08,1.37-.31,0-.5-.1-.58-.28a1.27,1.27,0,0,1-.14-.6,10.92,10.92,0,0,1,.33-1.57l4.66-16.48a.18.18,0,0,0-.11-.19,2.53,2.53,0,0,0-1.11.15c-.65.15-1.35.29-2.08.41l-1.68.27-2.74.36v.76a9.61,9.61,0,0,1,2.41.19c.41.13.61.48.61,1a2.31,2.31,0,0,1,0,.46c0,.16-.07.33-.11.51l-3.29,11.86c-.17.65-.28,1.13-.34,1.47a5.7,5.7,0,0,0-.1,1.16,3,3,0,0,0,.66,2,2,2,0,0,0,1.65.83,5.17,5.17,0,0,0,3.46-1.66,24.47,24.47,0,0,0,2.86-3.48l.23-.33-.6-.5A24.6,24.6,0,0,1,131.49,131Z" fill="#231f20"/><path d="M151.12,113.91a1.33,1.33,0,0,1-.85.23,9.13,9.13,0,0,1-2-.43,9.12,9.12,0,0,0-2.58-.43,5.35,5.35,0,0,0-4.1,1.54,5,5,0,0,0-1.44,3.54,5.83,5.83,0,0,0,.67,2.63c.29.58,1,1.74,2.17,3.46l1.92,2.84a5.87,5.87,0,0,1,.61,1.17,4.92,4.92,0,0,1,.24,1.67,3.62,3.62,0,0,1-1,2.63,3.15,3.15,0,0,1-2.36,1,4.07,4.07,0,0,1-3.79-2.38,14.85,14.85,0,0,1-1.2-4.08h-.76l-.92,7.54h.76a2.07,2.07,0,0,1,.4-.62,1,1,0,0,1,.68-.21,16.38,16.38,0,0,1,2,.4,13.47,13.47,0,0,0,2.7.39,7.82,7.82,0,0,0,5.06-1.71,5.22,5.22,0,0,0,2.12-4.2,6,6,0,0,0-.53-2.49,20.32,20.32,0,0,0-1.8-3l-1.64-2.35a25.23,25.23,0,0,1-1.63-2.54,3.79,3.79,0,0,1-.35-1.66,2.24,2.24,0,0,1,.79-1.86,2.85,2.85,0,0,1,1.81-.63,3.7,3.7,0,0,1,3.51,2.1,10.34,10.34,0,0,1,.9,3.37h.76l1-6.56h-.67A2.34,2.34,0,0,1,151.12,113.91Z" fill="#231f20"/><path d="M164.32,109a.77.77,0,0,0,0-.26.91.91,0,0,0-.08-.29,1.46,1.46,0,0,0-.32-.09.43.43,0,0,0-.22.06.41.41,0,0,0-.17.15l-.37.44a23,23,0,0,1-3.52,3.57,20.26,20.26,0,0,1-3.63,1.92,1,1,0,0,0-.47.32,2.07,2.07,0,0,0-.09.79H159l-4.46,16.1a3,3,0,0,0-.1.5c0,.16,0,.3,0,.42a2,2,0,0,0,2.25,2,4.83,4.83,0,0,0,2.87-1.16,17.88,17.88,0,0,0,3.5-4.14l.33-.49-.6-.34c-1,1.27-1.69,2.13-2.1,2.56-.73.8-1.29,1.19-1.69,1.19a.63.63,0,0,1-.62-.37,1.06,1.06,0,0,1-.07-.8l4.25-15.5h4l.28-1.58H163Z" fill="#231f20"/><path d="M184.21,115.59a2.52,2.52,0,0,0-.59-1.64,2,2,0,0,0-1.67-.71c-1.34,0-2.75.89-4.23,2.69a32,32,0,0,0-3.89,5.94l-.53,1.06,2.35-9c0-.07,0-.19,0-.35a.44.44,0,0,0-.08-.28.3.3,0,0,0-.29-.13c-.07,0-.82.14-2.25.41l-3.93.79-.93.18v.76l1-.11a6.92,6.92,0,0,1,.7,0,1.58,1.58,0,0,1,1.2.37,1.5,1.5,0,0,1,.34,1.06,8,8,0,0,1-.19,1.55c-.13.63-.31,1.34-.52,2.14l-3.85,13.9h3.54c.7-2.27,1.26-4,1.68-5.24a50.3,50.3,0,0,1,1.8-4.71,38.11,38.11,0,0,1,3-5.45c1.13-1.67,2-2.51,2.59-2.51a.63.63,0,0,1,.32.08.92.92,0,0,1,.22.22l.27.51a2.06,2.06,0,0,0,.58.64A1.72,1.72,0,0,0,182,118a2,2,0,0,0,1.62-.68A2.55,2.55,0,0,0,184.21,115.59Z" fill="#231f20"/><path d="M202.67,130.4l-.59.55-.43.38-.42.32a5,5,0,0,1-.62.41.87.87,0,0,1-.46.14.6.6,0,0,1-.42-.15.57.57,0,0,1-.18-.47,35.56,35.56,0,0,1,.86-4c.34-1.31.77-2.86,1.26-4.66l2.29-8.26c.06-.21.11-.38.15-.5l.14-.47a.61.61,0,0,0,0-.29s-.11-.08-.25-.08l-2.66.3a.46.46,0,0,0-.33.13,1.64,1.64,0,0,0-.17.4l-.51,1.74-.12-.33a3.41,3.41,0,0,0-.84-1.34,4,4,0,0,0-2.85-.94q-4.84,0-9.37,5.47-4.39,5.27-4.39,10.12a5.92,5.92,0,0,0,1.52,4.35,4.7,4.7,0,0,0,3.39,1.54,6.88,6.88,0,0,0,2.3-.42,11.23,11.23,0,0,0,3.23-2.12,16,16,0,0,0,2.41-2.58,24.16,24.16,0,0,0,1.39-2c-.2.71-.4,1.58-.61,2.62a12.83,12.83,0,0,0-.31,2.38,2.33,2.33,0,0,0,.47,1.49,1.63,1.63,0,0,0,1.35.6,4.89,4.89,0,0,0,2.85-1.09,24.83,24.83,0,0,0,4-4.17l-.56-.48Zm-6.36-3.67q-3.23,5.61-6.7,5.61a2.59,2.59,0,0,1-2-.84,3.83,3.83,0,0,1-.79-2.69q0-3.68,2.86-8.76,3.27-5.77,7.07-5.77a2.51,2.51,0,0,1,1.86.78,3.41,3.41,0,0,1,.77,2.45Q199.41,121.62,196.31,126.73Z" fill="#231f20"/><path d="M213.27,131.1c-.73.8-1.29,1.19-1.69,1.19a.63.63,0,0,1-.62-.37,1.11,1.11,0,0,1-.07-.8l4.25-15.5h4l.28-1.58h-3.81l1.36-5a.77.77,0,0,0,0-.26.87.87,0,0,0-.07-.29,1.59,1.59,0,0,0-.33-.09.43.43,0,0,0-.22.06.41.41,0,0,0-.17.15l-.37.44a22.6,22.6,0,0,1-3.52,3.57,20.26,20.26,0,0,1-3.63,1.92,1,1,0,0,0-.47.32,2.07,2.07,0,0,0-.09.79h3.51l-4.46,16.1a2.19,2.19,0,0,0-.09.5,3.44,3.44,0,0,0,0,.42,2.11,2.11,0,0,0,.54,1.41,2.14,2.14,0,0,0,1.71.62,4.81,4.81,0,0,0,2.87-1.16,18.12,18.12,0,0,0,3.51-4.14l.32-.49-.6-.34C214.38,129.81,213.68,130.67,213.27,131.1Z" fill="#231f20"/><path d="M232.54,113.24q-5.1,0-9.48,4.73t-4.3,9.66a6.87,6.87,0,0,0,1.92,5.2,7,7,0,0,0,5.1,1.84q5.06,0,9.51-4.89,4.31-4.71,4.31-9.6A7.79,7.79,0,0,0,238,115.3Q236.42,113.25,232.54,113.24Zm.65,14.72q-2.91,5.67-6.67,5.67a3.34,3.34,0,0,1-2.81-1.25,5.09,5.09,0,0,1-1-3.18,19,19,0,0,1,2.9-9.71q3.09-5.28,6.63-5.28a3,3,0,0,1,3,2,7.78,7.78,0,0,1,.41,2.8A20.09,20.09,0,0,1,233.19,128Z" fill="#231f20"/><path d="M258.84,115.59a2.52,2.52,0,0,0-.59-1.64,2,2,0,0,0-1.68-.71c-1.33,0-2.74.89-4.23,2.69a32,32,0,0,0-3.88,5.94l-.54,1.06,2.35-9a3.16,3.16,0,0,0,0-.35.45.45,0,0,0-.09-.28.29.29,0,0,0-.28-.13c-.08,0-.83.14-2.25.41l-3.94.79-.92.18v.76l1-.11c.28,0,.51,0,.69,0a1.58,1.58,0,0,1,1.2.37,1.5,1.5,0,0,1,.35,1.06,8.09,8.09,0,0,1-.2,1.55c-.13.63-.3,1.34-.52,2.14l-3.84,13.9h3.54c.69-2.27,1.25-4,1.67-5.24a50.3,50.3,0,0,1,1.8-4.71,39.11,39.11,0,0,1,3-5.45c1.13-1.67,2-2.51,2.6-2.51a.59.59,0,0,1,.31.08.77.77,0,0,1,.22.22l.28.51a2,2,0,0,0,.57.64,1.76,1.76,0,0,0,1.08.28,2.05,2.05,0,0,0,1.63-.68A2.55,2.55,0,0,0,258.84,115.59Z" fill="#231f20"/><path d="M272.87,113.91a1.36,1.36,0,0,1-.86.23,9,9,0,0,1-2-.43,9.13,9.13,0,0,0-2.59-.43,5.31,5.31,0,0,0-4.09,1.54,5,5,0,0,0-1.44,3.54,5.82,5.82,0,0,0,.66,2.63c.3.58,1,1.74,2.17,3.46l1.92,2.84a5,5,0,0,1,.61,1.17,4.92,4.92,0,0,1,.24,1.67,3.62,3.62,0,0,1-1,2.63,3.15,3.15,0,0,1-2.36,1,4,4,0,0,1-3.78-2.38,14.18,14.18,0,0,1-1.2-4.08h-.77l-.92,7.54h.76a2.08,2.08,0,0,1,.41-.62.93.93,0,0,1,.67-.21,16.35,16.35,0,0,1,2,.4,13.47,13.47,0,0,0,2.7.39,7.79,7.79,0,0,0,5-1.71,5.19,5.19,0,0,0,2.12-4.2,5.8,5.8,0,0,0-.53-2.49,20.32,20.32,0,0,0-1.8-3l-1.64-2.35a24.56,24.56,0,0,1-1.62-2.54,3.65,3.65,0,0,1-.36-1.66,2.22,2.22,0,0,1,.8-1.86,2.83,2.83,0,0,1,1.81-.63,3.68,3.68,0,0,1,3.5,2.1,10.31,10.31,0,0,1,.91,3.37h.76l.94-6.56h-.67A2.53,2.53,0,0,1,272.87,113.91Z" fill="#231f20"/><path d="M280,129.41a2.29,2.29,0,0,0-1.8.68,1.94,1.94,0,0,0-.6,1.19,3.26,3.26,0,0,0,.21,1.33,5.53,5.53,0,0,0,1.06,1.3l.44.44a1.55,1.55,0,0,1,.32.48,1.46,1.46,0,0,1,.11.58,3.65,3.65,0,0,1-1.36,2.4,18.79,18.79,0,0,1-2.19,1.73l.44.76.71-.39a14.37,14.37,0,0,0,3.62-2.91,6.08,6.08,0,0,0,1.79-4.24,3.69,3.69,0,0,0-.77-2.4A2.41,2.41,0,0,0,280,129.41Z" fill="#231f20"/><path d="M304,128.49l5.79-20.91a5.37,5.37,0,0,1,1.31-2.68,5.59,5.59,0,0,1,2.57-.8v-.76H302v.76a6.62,6.62,0,0,1,2.61.54,1.65,1.65,0,0,1,.74,1.56,4.44,4.44,0,0,1-.12,1c-.08.35-.22,1-.44,1.79L299,129.92a5.18,5.18,0,0,1-1.59,2.88,4.67,4.67,0,0,1-2.28.6v.77H306.7v-.77a6.33,6.33,0,0,1-2.41-.46,1.54,1.54,0,0,1-.82-1.54,6.3,6.3,0,0,1,.13-1.09C303.68,129.83,303.83,129.23,304,128.49Z" fill="#231f20"/><path d="M329.56,131.66a2.13,2.13,0,0,1-1.33.71.55.55,0,0,1-.51-.28,1.23,1.23,0,0,1-.16-.63,3.33,3.33,0,0,1,.11-.7q.12-.49.21-.84l3-11c.12-.46.22-.9.3-1.3a6.57,6.57,0,0,0,.11-1.15,2.83,2.83,0,0,0-1.41-2.74,3.67,3.67,0,0,0-1.77-.4q-2.64,0-6,3.72a56.33,56.33,0,0,0-4.75,6.41l3.06-9.92a.5.5,0,0,0-.18-.21l-4.1.9-1.36.28-2.12.35v.76l.58-.08a3.31,3.31,0,0,1,.55,0,2.09,2.09,0,0,1,1.48.39,1.39,1.39,0,0,1,.39,1,4.22,4.22,0,0,1-.08.82c-.06.26-.26,1-.59,2.2l-4,14.26h3.55q1.51-5,2.2-6.93a23.28,23.28,0,0,1,1.9-3.91,38.9,38.9,0,0,1,3.18-4.44q2.67-3.14,4.41-3.14a1.05,1.05,0,0,1,.95.41,1.64,1.64,0,0,1,.27,1,8.25,8.25,0,0,1-.08.85c-.06.39-.16.89-.32,1.51l-2.94,11.21a6,6,0,0,0-.15.76,6.12,6.12,0,0,0-.06.83,2.19,2.19,0,0,0,.72,1.89,2.5,2.5,0,0,0,1.48.51,5.25,5.25,0,0,0,3.55-1.82,27.08,27.08,0,0,0,2.94-3.6l-.66-.6A26.21,26.21,0,0,1,329.56,131.66Z" fill="#231f20"/><path d="M348.19,113.33q-4.92,0-9.14,4.38a13.63,13.63,0,0,0-4.27,9.65,7.44,7.44,0,0,0,1.91,5.39,6.7,6.7,0,0,0,5,2,9.83,9.83,0,0,0,5.89-1.92,17,17,0,0,0,3.11-3.16l-.67-.5-.16.18a13.75,13.75,0,0,1-3.08,2.62,6.53,6.53,0,0,1-3.45,1,3.89,3.89,0,0,1-3.32-1.48,6.69,6.69,0,0,1-1.11-4.09,16.07,16.07,0,0,1,2.73-8.87q2.75-4.23,6.45-4.23a3,3,0,0,1,1.52.29.82.82,0,0,1,.47.7,2.76,2.76,0,0,1-.38.9,2.64,2.64,0,0,0-.39,1.29,1.74,1.74,0,0,0,.58,1.32,2.07,2.07,0,0,0,1.43.53,2.13,2.13,0,0,0,2.17-2.28,3.63,3.63,0,0,0-1.24-2.46A5.55,5.55,0,0,0,348.19,113.33Z" fill="#231f20"/><path d="M358.56,130.22a2.64,2.64,0,0,0-3.71,0,2.51,2.51,0,0,0-.78,1.86,2.6,2.6,0,0,0,.76,1.86,2.63,2.63,0,0,0,3.74,0,2.64,2.64,0,0,0,0-3.72Z" fill="#231f20"/></svg>