<svg xmlns="http://www.w3.org/2000/svg" viewBox="0 0 360 163.85"><path d="M49 76.45a15.75 15.75 0 0 0 4.76-2.09 22 22 0 0 0 5-6.11l43-68.11h3l11.14 66.25q1.13 6.67 2.72 8.17t7 1.89v2.78H90.44v-2.78q5-.39 7-1.61t2.06-5.06q0-1.31-.62-6.22-.11-1-1.13-8.43h-25l-6.69 11.76a18 18 0 0 0-1.21 2.61 7.59 7.59 0 0 0-.54 2.71q0 2.39 1.44 3.06a22.77 22.77 0 0 0 6 1.18v2.78H49zm48-25.9l-4.28-28.22-17.14 28.22zm31.25 25.68q4.47-.57 6.45-3.36t5.3-14.33l11.81-43.13c.43-1.47.78-2.76 1-3.88a13 13 0 0 0 .39-2.91c0-1.62-.57-2.64-1.73-3.08a25 25 0 0 0-6.65-.82v-3h26.49L178 56.34l35.38-54.62H238v3a13.46 13.46 0 0 0-5.54 1.59Q230 8 228.61 12.86L214.35 65c-.34 1.13-.63 2.28-.88 3.45a14.47 14.47 0 0 0-.37 2.94c0 1.92.56 3.14 1.67 3.64a24.6 24.6 0 0 0 6.82 1.22v3h-36.21v-3q5.84-.57 8-1.89t3.53-6.42l14.59-53.3L168 80.75h-3.23L157 16.48l-11.7 42.06q-.92 3.21-1.36 5.37a26.61 26.61 0 0 0-.79 5.59c0 2.72 1.07 4.58 3.22 5.6a16.7 16.7 0 0 0 6.06 1.13v3h-24.18zm99.61 0a12.36 12.36 0 0 0 6.14-2.09q2-1.59 3.22-6.22L251.47 16c.27-1.05.49-2 .68-2.77a19.73 19.73 0 0 0 .51-3.79c0-1.84-.53-3-1.58-3.5s-3.34-.88-6.85-1.19v-3h61.6l-4.92 22-3.11-.51c-.08-5.54-1-9.48-2.67-11.82q-4.42-6.06-17.64-6.05-3.92 0-5.36 1c-1 .68-1.73 2.09-2.3 4.24L263 36.29q11.59-.34 15.09-2t7.8-10.18l3.23.4-8.6 31.68-3.17-.57c.15-1.13.26-2.11.31-2.94s.09-1.47.09-1.93c0-3.8-1-6.54-3-8.2S268.42 40 261.84 40l-7.63 28.29c-.12.49-.21 1-.28 1.36a6.6 6.6 0 0 0-.11 1.25 4.48 4.48 0 0 0 2.88 4.57 14.92 14.92 0 0 0 5.43.74v3h-34.27zM0 148.68a6.8 6.8 0 0 0 3.25-.85c.93-.66 1.68-2 2.27-4.11l8.25-29.79c.31-1.21.52-2.05.63-2.55a6.66 6.66 0 0 0 .16-1.46 2.41 2.41 0 0 0-1.13-2.29 9.64 9.64 0 0 0-4.1-.7v-1.09h18.4v1.09a10.55 10.55 0 0 0-3.92.88 6.32 6.32 0 0 0-2.81 4.08L17.32 125h20.84l3.3-11.94a19 19 0 0 0 .43-2 9.81 9.81 0 0 0 .1-1.32 2.37 2.37 0 0 0-1.61-2.3 9.6 9.6 0 0 0-3.13-.49v-1.09H53.9v1.09a7.9 7.9 0 0 0-3.67 1.1c-.67.51-1.29 1.8-1.86 3.86l-8.21 29.79-.63 2.56c0 .24-.08.47-.11.69a3.67 3.67 0 0 0-.05.66c0 1.27.38 2.09 1.13 2.45a11.66 11.66 0 0 0 4.1.64v1.09H26.2v-1.09a10.31 10.31 0 0 0 3.88-.85 6.42 6.42 0 0 0 2.9-4.11l4.4-15.92H16.55l-3.85 13.86-.62 2.56-.12.69a4.87 4.87 0 0 0 0 .66c0 1.23.34 2 1 2.38a10.3 10.3 0 0 0 3.73.71v1.09H0zm77.16-25.79a11.07 11.07 0 0 1 2.27 7q0 7-6.15 13.68-6.34 7-13.54 7a10 10 0 0 1-7.27-2.63q-2.73-2.62-2.73-7.4 0-7.2 6.12-13.77 6.24-6.75 13.51-6.74 5.52-.03 7.79 2.86zm-20.37 24.33a4.72 4.72 0 0 0 4 1.79q5.35 0 9.5-8.09a28.59 28.59 0 0 0 3.52-12.75 11.21 11.21 0 0 0-.59-4 4.19 4.19 0 0 0-4.22-2.84q-5 0-9.44 7.53a27.17 27.17 0 0 0-4.14 13.84 7.25 7.25 0 0 0 1.37 4.52zm35.91-37.33a3.72 3.72 0 0 0 .16-.86 6.51 6.51 0 0 0 0-.69A1.23 1.23 0 0 0 92 107a15.35 15.35 0 0 0-3.57-.22v-1.08l3.42-.46 2.53-.36c1.23-.22 2.73-.55 4.49-1 .16 0 .31.11.47.33l-11 39.52c-.24.94-.38 1.51-.43 1.71a2.88 2.88 0 0 0-.06.59 2.25 2.25 0 0 0 .23 1.07.88.88 0 0 0 .85.44q1.18 0 3.09-2.1a37 37 0 0 0 3.23-4.08l.88.62a45.53 45.53 0 0 1-4.41 5.79c-1.83 1.82-3.66 2.73-5.51 2.73a3.87 3.87 0 0 1-2.11-.59 3.29 3.29 0 0 1-1.41-3 11.9 11.9 0 0 1 .26-2.2c.12-.55.27-1.18.46-1.91zm29.18 11.3a5.73 5.73 0 0 1 1 2.47l3.86-13.48a5.61 5.61 0 0 0 .21-1 5.68 5.68 0 0 0 0-.77c0-.86-.16-1.4-.47-1.61a2.41 2.41 0 0 0-1.37-.33h-1l-1.27.1v-1.09q3.73-.49 10.34-1.71l.3.33-.07.36-6.49 23.63-4.41 15.63c-.09.36-.16.68-.22 1a5 5 0 0 0-.08.81 1.29 1.29 0 0 0 .44 1.17 1.66 1.66 0 0 0 .78.26c.64 0 1.55-.56 2.72-1.69.69-.68 1.63-1.74 2.83-3.17l.76.72-.47.7a23.57 23.57 0 0 1-3.14 3.69q-3.42 3.33-6.12 3.33a3.41 3.41 0 0 1-1.63-.39 3 3 0 0 1-1.35-2.83 19.7 19.7 0 0 1 .2-2.2c.13-1 .33-2.11.6-3.31a27.23 27.23 0 0 1-5.48 6.24 10 10 0 0 1-6.5 2.43 7 7 0 0 1-5-2c-1.42-1.35-2.14-3.45-2.14-6.27q0-7.16 6.62-14.71t12.85-7.5a4.7 4.7 0 0 1 3.7 1.19zm-16.37 24.42a3.37 3.37 0 0 0 3.12 1.49q4.71 0 9.05-7.55 4.18-7.1 4.18-13.43a7.41 7.41 0 0 0-.66-3.32 2.71 2.71 0 0 0-2.68-1.31q-5 0-9.73 8.08-4.2 7.23-4.2 12.54a6.48 6.48 0 0 0 .92 3.5zM145.63 120a.28.28 0 0 1 .14.28l-6.64 23.48a17 17 0 0 0-.46 2.23 1.79 1.79 0 0 0 .2.86c.11.26.38.39.82.39.75 0 1.73-.65 3-1.94a36.9 36.9 0 0 0 2.67-3.29l.85.73-.33.46a34.72 34.72 0 0 1-4.08 5 7.37 7.37 0 0 1-4.93 2.37 2.91 2.91 0 0 1-2.35-1.18 4.41 4.41 0 0 1-.93-2.8 9 9 0 0 1 .13-1.66c.08-.47.25-1.17.49-2.09l4.68-16.9c.07-.26.12-.5.16-.72a3 3 0 0 0 .07-.66 1.34 1.34 0 0 0-.87-1.46 13.27 13.27 0 0 0-3.43-.28v-1.08q2.7-.33 3.9-.51l2.39-.38c1.05-.18 2-.37 3-.59a4.16 4.16 0 0 1 1.52-.26zm-3.11-8.23a3.67 3.67 0 0 1-1-2.53 3.71 3.71 0 0 1 1-2.57 3 3 0 0 1 2.3-1 3.06 3.06 0 0 1 2.32 1 3.64 3.64 0 0 1 1 2.57 3.57 3.57 0 0 1-1 2.54 3.08 3.08 0 0 1-2.32 1 3 3 0 0 1-2.3-1.05zm6.63 38l5.62-20.32c.49-1.72.77-2.76.84-3.13a5.39 5.39 0 0 0 .12-1.17 2 2 0 0 0-.54-1.5 3 3 0 0 0-2.12-.55 6.66 6.66 0 0 0-.78.05l-.84.12v-1.09c1.42-.22 2.43-.38 3-.49s1.24-.24 1.94-.4l5.84-1.28a.66.66 0 0 1 .26.3l-4.35 14.13a79 79 0 0 1 6.75-9.14q4.77-5.28 8.54-5.29a5.38 5.38 0 0 1 2.52.56 4 4 0 0 1 2 3.91 8.69 8.69 0 0 1-.16 1.65c-.11.57-.26 1.18-.43 1.84l-4.33 15.75c-.08.32-.18.73-.29 1.2a5.2 5.2 0 0 0-.17 1 1.79 1.79 0 0 0 .23.89.8.8 0 0 0 .74.39 3 3 0 0 0 1.89-1 37.75 37.75 0 0 0 3.5-4.29l.95.85a39.57 39.57 0 0 1-4.19 5.13q-2.64 2.6-5.06 2.6a3.59 3.59 0 0 1-2.12-.74 3.13 3.13 0 0 1-1-2.68 8.16 8.16 0 0 1 .08-1.18 6.82 6.82 0 0 1 .21-1.09l4.2-16a21.14 21.14 0 0 0 .44-2.15 9.74 9.74 0 0 0 .12-1.2 2.41 2.41 0 0 0-.38-1.36 1.49 1.49 0 0 0-1.35-.58q-2.49 0-6.29 4.47a54.8 54.8 0 0 0-4.53 6.34 32.1 32.1 0 0 0-2.7 5.56q-1 2.72-3.14 9.87zm32.54 1.79a20.59 20.59 0 0 1 6-4.42 6.78 6.78 0 0 1-1.35-1.11 2.16 2.16 0 0 1-.52-1.52c0-.9.62-1.93 1.87-3.1a30.4 30.4 0 0 1 3.42-2.59 10.39 10.39 0 0 1-3.61-2.24 7 7 0 0 1-1.85-5 10.35 10.35 0 0 1 3.88-8.25 14.36 14.36 0 0 1 9.6-3.29 12.21 12.21 0 0 1 5.07.94 5.91 5.91 0 0 1 2.43 1.56h4.44v2.65h-3.36c.13.48.23.92.3 1.31a11.86 11.86 0 0 1 .09 1.67 9.86 9.86 0 0 1-4.12 8.38 14.61 14.61 0 0 1-8.89 3 6.87 6.87 0 0 1-.93 0 10.55 10.55 0 0 1-1-.18c-.32 0-.77.32-1.34 1a2.68 2.68 0 0 0-.89 1.71q0 1.11 7.23 3.81t7.2 8a8.77 8.77 0 0 1-3.61 6.92q-3.62 3-10.92 3a13.34 13.34 0 0 1-8-2.17 6.43 6.43 0 0 1-3-5.3 7.13 7.13 0 0 1 1.86-4.78zm16.9 8.82a5.41 5.41 0 0 0 2.58-4.47 4.52 4.52 0 0 0-1.35-3.32 9.6 9.6 0 0 0-2.33-1.54q-1.35-.66-4.55-1.89a20.82 20.82 0 0 0-3.7-1.24c-.57 0-1.68.77-3.32 2.29a6.89 6.89 0 0 0-2.47 5.18 6 6 0 0 0 3.78 6 12.27 12.27 0 0 0 4.87.86 10.77 10.77 0 0 0 6.49-1.87zm-7-24.19a3.89 3.89 0 0 0 3.78 2q3 0 5.28-3.76a15.57 15.57 0 0 0 2.31-8.3 5.5 5.5 0 0 0-.95-3.41 3.4 3.4 0 0 0-2.86-1.23c-2.45 0-4.43 1.31-5.93 3.91a15.13 15.13 0 0 0-2.25 7.53 7.14 7.14 0 0 0 .6 3.26zm21.02 3.81h1.08a21.67 21.67 0 0 0 1.71 5.82 5.81 5.81 0 0 0 5.4 3.38 4.48 4.48 0 0 0 3.36-1.41 5.12 5.12 0 0 0 1.37-3.75 6.89 6.89 0 0 0-.35-2.37 7.54 7.54 0 0 0-.87-1.67l-2.73-4.05q-2.46-3.67-3.09-4.93a8.28 8.28 0 0 1-1-3.75 7.11 7.11 0 0 1 2.06-5 7.59 7.59 0 0 1 5.83-2.19 13.48 13.48 0 0 1 3.68.61 12.13 12.13 0 0 0 2.83.61 1.89 1.89 0 0 0 1.22-.33 3.49 3.49 0 0 0 .72-.89h1l-1.34 9.34h-1.09a14.92 14.92 0 0 0-1.28-4.8 5.26 5.26 0 0 0-5-3 4.05 4.05 0 0 0-2.58.9 3.17 3.17 0 0 0-1.13 2.65 5.29 5.29 0 0 0 .5 2.36 39.1 39.1 0 0 0 2.32 3.62l2.34 3.35a29.94 29.94 0 0 1 2.56 4.25 8.29 8.29 0 0 1 .76 3.55 7.41 7.41 0 0 1-3 6 11.12 11.12 0 0 1-7.2 2.43 18.44 18.44 0 0 1-3.84-.56 24.51 24.51 0 0 0-2.9-.55 1.36 1.36 0 0 0-1 .29 2.63 2.63 0 0 0-.57.89h-1.09zm27.94 4a3.25 3.25 0 0 1 2.56-1 3.47 3.47 0 0 1 2.83 1.35 5.3 5.3 0 0 1 1.08 3.42 8.71 8.71 0 0 1-2.54 6.05 20.71 20.71 0 0 1-5.15 4.14l-1 .56-.62-1.08a31.76 31.76 0 0 0 3.12-2.47c1.29-1.27 1.94-2.41 1.94-3.42a2.11 2.11 0 0 0-.17-.82 2 2 0 0 0-.46-.69l-.62-.63a8.07 8.07 0 0 1-1.51-1.85 4.65 4.65 0 0 1-.3-1.89 2.79 2.79 0 0 1 .84-1.67zm24.11 4.68a6.84 6.84 0 0 0 3.26-.85c.92-.66 1.67-2 2.27-4.11l8.25-29.79c.3-1.21.51-2.05.62-2.55a6.68 6.68 0 0 0 .17-1.46 2.35 2.35 0 0 0-1.06-2.22 9.11 9.11 0 0 0-3.71-.77v-1.09h16.68v1.09a8.22 8.22 0 0 0-3.67 1.13c-.66.52-1.28 1.79-1.85 3.83l-8.25 29.79c-.29 1-.49 1.92-.61 2.6a9.53 9.53 0 0 0-.18 1.54 2.2 2.2 0 0 0 1.16 2.2 9.16 9.16 0 0 0 3.44.66v1.09h-16.52zm22.61 1.09l5.63-20.32c.48-1.72.76-2.76.84-3.13a6.12 6.12 0 0 0 .11-1.17 2 2 0 0 0-.54-1.5 3 3 0 0 0-2.12-.55 6.49 6.49 0 0 0-.77.05l-.84.12v-1.09c1.41-.22 2.42-.38 3-.49s1.24-.24 1.94-.4l5.85-1.28a.72.72 0 0 1 .26.3l-4.36 14.13a79 79 0 0 1 6.73-9.14q4.77-5.28 8.54-5.29a5.38 5.38 0 0 1 2.52.56 4 4 0 0 1 2 3.91 8.69 8.69 0 0 1-.16 1.65c-.11.57-.25 1.18-.43 1.84l-4.33 15.75c-.08.32-.18.73-.29 1.2a5.2 5.2 0 0 0-.17 1 1.7 1.7 0 0 0 .24.89.77.77 0 0 0 .73.39 3 3 0 0 0 1.89-1 36.66 36.66 0 0 0 3.5-4.29l1 .85a38.75 38.75 0 0 1-4.19 5.13q-2.64 2.6-5.06 2.6a3.56 3.56 0 0 1-2.11-.74 3.11 3.11 0 0 1-1-2.68 9.88 9.88 0 0 1 .08-1.18 8 8 0 0 1 .22-1.09l4.19-16a18.7 18.7 0 0 0 .44-2.15 9.74 9.74 0 0 0 .12-1.2 2.41 2.41 0 0 0-.38-1.36 1.48 1.48 0 0 0-1.35-.58q-2.49 0-6.29 4.47a54.8 54.8 0 0 0-4.53 6.34 32.84 32.84 0 0 0-2.7 5.56q-1 2.72-3.14 9.87zm58.5-27.89a5.15 5.15 0 0 1 1.77 3.5 3 3 0 0 1-3.09 3.25 2.89 2.89 0 0 1-2-.76 2.44 2.44 0 0 1-.83-1.87 3.82 3.82 0 0 1 .55-1.85 3.77 3.77 0 0 0 .54-1.28 1.19 1.19 0 0 0-.67-1 4.38 4.38 0 0 0-2.16-.41q-5.3 0-9.19 6a23 23 0 0 0-3.89 12.64 9.57 9.57 0 0 0 1.57 5.83 5.56 5.56 0 0 0 4.74 2.11 9.23 9.23 0 0 0 4.91-1.47 19.39 19.39 0 0 0 4.39-3.73l.23-.26.95.72a24.36 24.36 0 0 1-4.43 4.51 14 14 0 0 1-8.38 2.72 9.48 9.48 0 0 1-7.14-2.81 10.53 10.53 0 0 1-2.73-7.67q0-7.47 6.08-13.75t13-6.24q4.01.02 5.78 1.82zm7.82 27.57a3.69 3.69 0 0 1-1.09-2.66 3.76 3.76 0 0 1 3.75-3.73 3.74 3.74 0 0 1 3.75 3.73 3.68 3.68 0 0 1-1.08 2.66 3.6 3.6 0 0 1-2.67 1.1 3.56 3.56 0 0 1-2.66-1.1z" fill="#fff"/></svg>