<?xml version="1.0" encoding="UTF-8"?>
<svg id="Layer_1" data-name="Layer 1" xmlns="http://www.w3.org/2000/svg" xmlns:xlink="http://www.w3.org/1999/xlink" viewBox="0 0 887.04 100">
  <defs>
    <style>
      .cls-1 {
        fill: url(#New_Gradient_Swatch-8);
      }

      .cls-1, .cls-2, .cls-3, .cls-4, .cls-5, .cls-6, .cls-7, .cls-8, .cls-9 {
        stroke-width: 0px;
      }

      .cls-2 {
        fill: url(#New_Gradient_Swatch-6);
      }

      .cls-3 {
        fill: url(#New_Gradient_Swatch-7);
      }

      .cls-4 {
        fill: url(#New_Gradient_Swatch-4);
      }

      .cls-5 {
        fill: url(#New_Gradient_Swatch-5);
      }

      .cls-6 {
        fill: url(#New_Gradient_Swatch-2);
      }

      .cls-7 {
        fill: url(#New_Gradient_Swatch-3);
      }

      .cls-8 {
        fill: url(#New_Gradient_Swatch);
      }

      .cls-9 {
        fill: #fff;
      }
    </style>
    <linearGradient id="New_Gradient_Swatch" data-name="New Gradient Swatch" x1="33.33" y1="50" x2="857.36" y2="50" gradientUnits="userSpaceOnUse">
      <stop offset="0" stop-color="#5cf"/>
      <stop offset="1" stop-color="#0075ff"/>
    </linearGradient>
    <linearGradient id="New_Gradient_Swatch-2" data-name="New Gradient Swatch" x1="32.33" x2="856.36" xlink:href="#New_Gradient_Swatch"/>
    <linearGradient id="New_Gradient_Swatch-3" data-name="New Gradient Swatch" x1="31.33" x2="855.36" xlink:href="#New_Gradient_Swatch"/>
    <linearGradient id="New_Gradient_Swatch-4" data-name="New Gradient Swatch" x1="33.33" x2="857.36" xlink:href="#New_Gradient_Swatch"/>
    <linearGradient id="New_Gradient_Swatch-5" data-name="New Gradient Swatch" x1="33.33" x2="857.36" xlink:href="#New_Gradient_Swatch"/>
    <linearGradient id="New_Gradient_Swatch-6" data-name="New Gradient Swatch" x1="33.33" x2="857.36" xlink:href="#New_Gradient_Swatch"/>
    <linearGradient id="New_Gradient_Swatch-7" data-name="New Gradient Swatch" x1="33.33" y1="68.07" x2="857.36" y2="68.07" xlink:href="#New_Gradient_Swatch"/>
    <linearGradient id="New_Gradient_Swatch-8" data-name="New Gradient Swatch" x1="33.33" y1="66.47" x2="857.36" y2="66.47" xlink:href="#New_Gradient_Swatch"/>
  </defs>
  <g>
    <path class="cls-8" d="M561.27,45.86l-41.29,54.14h-36.72L559.41,0h36.72l4,100h-36.71l-2.14-54.14Z"/>
    <path class="cls-6" d="M726.85,45.29l-17.71,54.71h-55.71c-10,0-18.26-1.43-24.79-4.29-6.52-2.86-11.52-6.64-15-11.36-3.48-4.71-5.5-10.05-6.07-16-.57-5.95.12-12.07,2.07-18.36,1.95-6.29,5.12-12.4,9.5-18.36,4.38-5.95,9.78-11.29,16.21-16,6.43-4.72,13.79-8.5,22.07-11.36,8.29-2.86,17.33-4.28,27.14-4.28h49.43l-8.86,27.43-49-.14c-4.86,0-9.31,1.12-13.36,3.36-4.05,2.24-7.48,5.02-10.28,8.36-2.81,3.34-4.88,6.95-6.22,10.86-1.33,3.91-1.74,7.55-1.21,10.93.52,3.38,2.12,6.19,4.79,8.43,2.67,2.24,6.57,3.36,11.71,3.36h19.86l8.72-27.28h36.71Z"/>
    <path class="cls-7" d="M851.44,27.43h-147.72l8.86-27.43h147.86l-9,27.43ZM821.44,63.57h-50.57l-2.86,9h68.71l-8.86,27.43h-105.71l10.03-31.15c6.28-19.49,24.42-32.71,44.9-32.71h53.21l-8.86,27.43Z"/>
    <path class="cls-4" d="M159.05,27.28L167.76,0h173.05c10,0,18.26,1.43,24.79,4.28,6.52,2.86,11.52,6.64,15,11.36,3.48,4.71,5.52,10.05,6.14,16,.62,5.95-.07,12.07-2.07,18.36-2,6.29-5.19,12.41-9.57,18.36-4.38,5.95-9.76,11.28-16.14,16-6.38,4.71-13.74,8.5-22.07,11.36-8.34,2.86-17.41,4.29-27.21,4.29h-19.43c-11.81,0-21.24-1.98-28.29-5.93-7.05-3.95-11.98-9.05-14.79-15.29-2.81-6.24-3.67-13.12-2.57-20.64.01-.08.02-.15.03-.23,1.89-12.64,13.12-21.77,25.9-21.77h21.43c-3.43,3.24-6.07,6.98-7.93,11.22-1.86,4.24-2.64,8.21-2.36,11.93.29,3.71,1.76,6.86,4.43,9.43,2.67,2.57,6.76,3.86,12.29,3.86l19.71.14c4.95,0,9.45-1.12,13.5-3.36,4.05-2.24,7.48-5.02,10.29-8.36,2.81-3.33,4.88-6.95,6.21-10.86,1.33-3.9,1.71-7.55,1.14-10.93-.57-3.38-2.19-6.19-4.86-8.43-2.67-2.24-6.57-3.36-11.71-3.36l-173.62-.14Z"/>
    <path class="cls-5" d="M146.89,27.42s-58.99-.14-59-.14c-3.18,0-7.44.57-8,4.43-.46,3.15,2.79,4.14,5.29,4.14h21.14c6.86,0,12.67.93,17.43,2.79,4.76,1.86,8.52,4.31,11.28,7.36,2.76,3.05,4.62,6.48,5.57,10.29.95,3.81,1.05,7.71.29,11.72-.76,4-2.34,7.93-4.72,11.78-2.38,3.86-5.52,7.29-9.43,10.29-3.91,3-8.5,5.41-13.79,7.21-5.29,1.81-11.21,2.71-17.78,2.71H26.6l9-28,58.29.14c2.57,0,4.62-.45,6.14-1.36,1.52-.9,2.45-1.9,2.79-3,.33-1.09,0-2.12-1-3.07-1-.95-2.79-1.43-5.36-1.43h-19.72c-6.86,0-12.67-.93-17.43-2.79-4.76-1.86-8.55-4.26-11.36-7.21-2.81-2.95-4.69-6.33-5.64-10.14-.95-3.81-1.05-7.69-.29-11.64.76-3.95,2.33-7.81,4.71-11.57,2.38-3.76,5.5-7.12,9.36-10.07,3.86-2.95,8.43-5.33,13.71-7.14,5.29-1.81,11.22-2.71,17.79-2.71h68.43l-9.14,27.42Z"/>
    <path class="cls-2" d="M378.51,99.72l9.33-28.77c6.72-20.7,26-34.73,47.77-34.73h0l-3.55,11.22h23.72c4.83,0,8.45-1.04,10.87-3.12,2.42-2.08,3.74-4.36,3.98-6.82.24-2.46-.59-4.73-2.48-6.82-1.9-2.08-4.74-3.13-8.52-3.13h-109.44L319.09.28h143.65c9.56,0,17.52,1.54,23.86,4.61,6.34,3.08,11.2,7.03,14.56,11.86,3.36,4.83,5.21,10.13,5.54,15.91.33,5.78-.74,11.39-3.2,16.83-2.46,5.45-6.37,10.32-11.72,14.63-5.35,4.31-12,7.41-19.96,9.3l15.62,26.28h-36.51l-14.63-24.57h-13.35l-7.96,24.57h-36.5Z"/>
    <path class="cls-3" d="M226.96,36.14h0l-20.57,63.86h-37l9.23-28.64c6.76-20.99,26.29-35.22,48.34-35.22Z"/>
    <polygon class="cls-1" points="43.72 58.02 64.5 53.47 108.05 57.58 107.5 78.58 37.05 79.47 43.72 58.02"/>
  </g>
  <path class="cls-9" d="M107.12,71.82h-4.17c-1.08,0-1.9-.24-2.46-.72-.56-.48-.9-1.08-1.01-1.8-.11-.72-.03-1.5.26-2.33.28-.83.72-1.61,1.31-2.32.59-.71,1.31-1.31,2.16-1.78.85-.48,1.79-.72,2.81-.72l10.3.03,1.86-5.86h-10.39c-2.06,0-3.96.3-5.7.91-1.74.61-3.29,1.42-4.64,2.43-.64.48-1.23.98-1.77,1.52l2.22-4.86h-6.21l-5.28,11.59-.48-11.59h-7.11l-5.28,11.59-.48-11.59h-16.11l-5.85,9.98.42-9.98h-11.02l-6.85,21.35h6.31l4.08-12.87-.54,12.87h7.11l7.56-12.84-4.08,12.84h7.11l4.96-15.68.64,15.68h8.46l4.05-8.88.36,8.88h8.47l3.43-7.52c0,.25,0,.51.03.76.12,1.27.54,2.41,1.28,3.42.73,1.01,1.78,1.82,3.15,2.42,1.37.61,3.11.92,5.21.92h11.71l3.72-11.68h-7.71l-1.83,5.83Z"/>
</svg>