<svg id="Layer_1" data-name="Layer 1" xmlns="http://www.w3.org/2000/svg" viewBox="0 0 329.17 59.98">
  <title>color</title>
  <path d="M0,.27c3.66,0,7.29-.09,10.9,0,2.79.09,4.47,1.91,5.78,4.19q5.46,9.52,11,19A4.37,4.37,0,0,0,30,26c2-3.44,4.08-7,6.13-10.48C38.25,11.78,40.43,8,42.55,4.27A7.17,7.17,0,0,1,49.41.21c3.12.07,6.24,0,9.62,0V59.91H46.72V26.4c-5.74,5.71-8.58,13-13.23,19.32-2.45.51-4.92.2-7.81.19C21.83,39.53,17.92,33.05,14,26.57l-1.07.21V59.91H0Z" fill="#59595c"/>
  <path d="M69.85,60s-.06-35.4,0-52.68c0-5,2.42-7.13,7.52-7.18,6.48-.06,13-.26,19.45.15,12,.74,27,8.48,28.32,28.13.89,13.51-7.11,26.58-22.63,30.54a32.83,32.83,0,0,1-8.35,1ZM83.12,48.36A45.87,45.87,0,0,0,97.72,48c8-1.66,13.2-7.68,14-16,.79-8.77-3.5-16.13-11.24-19.08-5.58-2.12-11.32-1.61-17.31-1.19Z" fill="#59595c"/>
  <path d="M315.46.19V11.68H284.77V24.1H313.1V35.51H284.77V48.43l30.68.12a30.68,30.68,0,0,1-.66,8.24,4.57,4.57,0,0,1-4.4,3.19H272.1s0-35.36,0-51.35a25.41,25.41,0,0,1,.15-3.49C272.7,2,274.35.26,277.5.23,290,.12,302.44.19,315.46.19Z" fill="#d2132d"/>
  <path d="M265.49.65c-8.08,20.13-23.94,59.26-23.94,59.26H230.23S214.21,20.84,206,.61a32,32,0,0,1,11.1-.25c2.7.29,4,2.58,4.89,5.09,3.83,10.47,13.79,35.77,13.79,35.77S246.87,13.33,249.6,6C251.52.86,252.54.14,258.08.17,260.38.18,262.72-.24,265.49.65Z" fill="#d2132d"/>
  <path d="M146.35,48.06s20.32-.05,22.48,0c5.51.14,7.39,2.37,7.57,8,0,1.11,0,3.87,0,3.87H133.93V.75c1.69-1.18,3.76-.58,5.67-.55,4.35,0,6.49,2,6.67,6.37.21,4.82.07,9.66.08,14.49Z" fill="#d2132d"/>
  <path d="M197.57.19V59.91H185s0-35.21,0-50.84a16.55,16.55,0,0,1,.72-5.4,5.28,5.28,0,0,1,5-3.45C192.85.1,195,.19,197.57.19Z" fill="#d2132d"/>
  <text transform="translate(319.17 9.63)" font-size="12.5" font-family="HelveticaNeue-Medium, Helvetica Neue">®</text>
</svg>
