<svg xmlns="http://www.w3.org/2000/svg" viewBox="0 0 307.36 54.81"><title>color</title><path d="M298.55,4.43v0A4.42,4.42,0,0,1,303,0a4.37,4.37,0,0,1,4.39,4.38v0a4.42,4.42,0,0,1-4.42,4.4,4.37,4.37,0,0,1-4.39-4.38m8.3,0v0a3.9,3.9,0,1,0-7.79,0v0a3.9,3.9,0,1,0,7.79,0M301.19,2h2a1.92,1.92,0,0,1,1.41.5,1.38,1.38,0,0,1,.38,1v0a1.41,1.41,0,0,1-1,1.41l1.11,1.64H304l-1-1.47h-.8V6.56h-1Zm2,2.23c.51,0,.78-.27.78-.65v0c0-.44-.31-.67-.8-.67h-1V4.22Z" fill="#54565a"/><path d="M0,0H9.27a6.45,6.45,0,0,1,5.52,3.11l12.42,22,12.42-22A6.46,6.46,0,0,1,45.15,0h9.27V54.43H42.53V20L30.77,39.49H23.52L11.89,20V54.43H0Z" fill="#54565a"/><path d="M66.46,5.7A5.7,5.7,0,0,1,72.16,0H87.68c17.11,0,28.92,11.74,28.92,27.06v.15c0,15.32-11.81,27.21-28.92,27.21H66.46ZM87.68,43.62c9.8,0,16.41-6.61,16.41-16.25v-.16c0-9.64-6.61-16.4-16.41-16.4H78.43V43.62Z" fill="#54565a"/><path d="M125.92,0h6.28a5.69,5.69,0,0,1,5.69,5.69V43.54h21.44a5.69,5.69,0,0,1,5.7,5.69v5.19H125.92Z" fill="#ce0e2d"/><path d="M178.57,0h6.27V54.42h-12V5.7a5.7,5.7,0,0,1,5.7-5.7" fill="#ce0e2d"/><path d="M192.79,0h8.74a6.44,6.44,0,0,1,6,4.2l12.67,34.13L232.9,4.22A6.46,6.46,0,0,1,239,0h8.41l-22,54.81H214.79Z" fill="#ce0e2d"/><path d="M259.84,0H293.5V10.65H266.1v11h25.65V32.34H266.1V43.77h27.79v4.95a5.7,5.7,0,0,1-5.7,5.7h-34V5.64A5.64,5.64,0,0,1,259.84,0" fill="#ce0e2d"/></svg>