<svg id="图层_1" data-name="图层 1" xmlns="http://www.w3.org/2000/svg" viewBox="0 0 623.62 163.16">
  <title>color</title>
  <polygon points="140.75 8.25 140.75 87.29 128.89 87.29 128.89 8.25 103.8 8.25 103.8 0 165.56 0 165.56 8.25 140.75 8.25" fill="#298bb7"/>
  <g>
    <path d="M157.89,87.29V25.46h10.77v8.06c1.4-2,6.29-9.19,15.08-9.19A11.66,11.66,0,0,1,191,26.67v9.69A16.78,16.78,0,0,0,180.8,32.9c-10.74,0-12.14,8.4-12.14,11.73V87.29Z" fill="#298bb7"/>
    <path d="M239,87.29v-7.2a29.65,29.65,0,0,1-20.44,8.43,18.35,18.35,0,0,1-11.87-3.61C200.41,80.09,200,73,200,66V25.46h10.52V63.2c0,8.48.85,18.42,12.71,18.42,4.06,0,9.55-1.63,12.25-4.45,3.08-3.23,3.6-5.94,3.6-9.93V25.46H249.5V87.29Z" fill="#298bb7"/>
    <path d="M291.8,43.12V41.4c0-4.21-2.11-10.76-11.64-10.76-8.28,0-11.85,4.74-11.85,9.28,0,5.92,6.28,8.39,12,10l6.48,1.8c10.36,3,16.3,8.18,16.3,18.11,0,9.23-5.84,18.64-23.37,18.64-17.29,0-22.86-8.53-22.86-18.8V68.14h10.6v1.58c0,5.34,2.33,11.9,13.24,11.9,9.16,0,12-4.76,12-9.65,0-7.67-6.07-9.53-11.79-11.26L273,58.38c-3.83-1.12-14.45-4.21-14.45-15.86,0-8.88,5.19-18.4,22-18.4,10.77,0,21.25,4.43,21.25,18.26v.74Z" fill="#298bb7"/>
    <path d="M326.5,69.13c0,6.54.92,11.5,8.05,11.5a20,20,0,0,0,7.07-1.51v7.13A34.37,34.37,0,0,1,330,88.36c-1.44,0-5.94,0-9.64-2.71-4.29-3.21-4.66-6.9-4.66-16.81,0,0,.07-32.63.22-37.06h-9.29V25.47h9.29V12l10.76-1.89V25.47h11.64v6.31H326.67Z" fill="#298bb7"/>
  </g>
  <polygon points="414.62 87.29 403.19 87.29 389.51 39.82 374.57 87.29 363.3 87.29 345.34 25.46 356.61 25.46 369.97 76.26 385.75 25.46 395.53 25.46 409.67 76.26 423.63 25.46 432.87 25.46 414.62 87.29" fill="#298bb7"/>
  <path d="M477.89,87.29c-4.06,0-5.07-1.38-5.07-5.09V80.47a24,24,0,0,1-18.31,8c-11.85,0-19.38-6.09-19.38-18,0-8.36,4.95-12.87,7.75-14.45,4.2-2.32,10.06-4.35,29.94-6.15V43.4c0-8.31-3.49-12.37-11.76-12.37-3.83,0-13.69.53-13.69,13.22v.89H437.31V43.27c0-14.72,12.52-19.15,24.5-19.15,9.92,0,15.69,2.92,18.56,7.06,2.33,3.3,2.87,8.64,2.87,13.29V78.24c0,4.71.58,7.21,2.82,7.57v1.48Zm-5.07-31.53c-12.75,1.5-18.14,3-20.9,4.57a11.06,11.06,0,0,0-5.58,10c0,6.91,4.11,11.12,11.26,11.12a17.65,17.65,0,0,0,9.55-2.56c5.3-3.45,5.67-9.31,5.67-13.89Z" fill="#298bb7"/>
  <polygon points="520.19 87.29 508.92 87.29 488.48 25.46 500.13 25.46 515.6 76.15 533.05 25.46 542.66 25.46 520.19 87.29" fill="#298bb7"/>
  <path d="M555.13,56.72c0,7.68.24,24.89,16.25,24.89,3.91,0,13.44-1.63,14.19-13.23H596.1c0,10.51-8.59,20.14-25.27,20.14-19.38,0-26.94-12.63-26.94-30.44,0-20.15,8-34,27.72-34,15.82,0,24.71,9.16,24.71,28.92v3.09H555.13Zm30.66-7c-.09-3.82-.46-18.64-14-18.64-9,0-15.48,6.31-16.24,18.64Z" fill="#298bb7"/>
  <path d="M614,44.28a9.6,9.6,0,1,1,9.67-9.66A9.55,9.55,0,0,1,614,44.28M614,26a8.72,8.72,0,1,0,8.65,8.74A8.61,8.61,0,0,0,614,26m.83,3c2.26,0,3.48.83,3.48,2.93a2.8,2.8,0,0,1-2.2,2.95,2.37,2.37,0,0,1,1.78,2l.58,2.2a3.3,3.3,0,0,0,.67,1.35h-2.06c-.27-.15-.37-.49-.49-.84l-.55-2c-.38-1.71-.76-2-3-2h-.83v4.92h-2V29Zm-2.64,5.26h1.18c2,0,3-.32,3-2,0-1.35-.66-2-2.5-2h-1.69Z" fill="#298bb7"/>
  <path d="M0,4.33H0v66.2s18.61-10.76,33.48-23,21.58-22.3,21.58-22.3A82.44,82.44,0,0,0,0,4.33" fill="#298bb7"/>
  <path d="M27.6.05A91.61,91.61,0,0,1,87.14,59.6V.05Z" fill="#5ab456"/>
  <path d="M82.93,87.26H16.74s10.71-18.69,22.9-33.48S62,32.21,62,32.21A82.64,82.64,0,0,1,82.93,87.26" fill="#298bb7"/>
  <path d="M29.71,142.68a10.45,10.45,0,0,1-.82,4.12A8.68,8.68,0,0,1,26.2,150a12.32,12.32,0,0,1-4.55,2.15,23.16,23.16,0,0,1-6.59.79c-4.39,0-7.83-.79-10.3-2.28a10.44,10.44,0,0,1-4.7-6.73L4.69,143a8.27,8.27,0,0,0,1.1,2.47,8.4,8.4,0,0,0,2,2,11,11,0,0,0,3.12,1.25,19.28,19.28,0,0,0,4.41.47,21,21,0,0,0,3.94-.37,9.52,9.52,0,0,0,3.06-1.13,6.67,6.67,0,0,0,2-1.93,5.22,5.22,0,0,0,.72-2.87,4.41,4.41,0,0,0-.82-2.83A6,6,0,0,0,22,138.29a18.9,18.9,0,0,0-3.46-1.17c-1.35-.36-2.78-.7-4.42-1.06-1-.2-2-.42-2.95-.7a23.7,23.7,0,0,1-2.88-1,22.27,22.27,0,0,1-2.61-1.24,12.12,12.12,0,0,1-2.1-1.75,8.13,8.13,0,0,1-1.38-2.35,9.34,9.34,0,0,1-.46-3.1,8.59,8.59,0,0,1,1-4.35,7.8,7.8,0,0,1,2.85-3A13,13,0,0,1,9.81,117a25.31,25.31,0,0,1,5.39-.5,26.77,26.77,0,0,1,5.64.47,12.25,12.25,0,0,1,4,1.59,8.19,8.19,0,0,1,2.56,2.58,13.75,13.75,0,0,1,1.57,3.48l-4.76.85a7,7,0,0,0-1-2.25,5.62,5.62,0,0,0-1.75-1.75,11.93,11.93,0,0,0-2.6-1,18.58,18.58,0,0,0-3.67-.35,16.64,16.64,0,0,0-4.13.46,6.63,6.63,0,0,0-2.67,1.23,4,4,0,0,0-1.48,1.79,5.38,5.38,0,0,0-.47,2.14,4.49,4.49,0,0,0,.82,2.65A6.19,6.19,0,0,0,9.36,130a12.64,12.64,0,0,0,3.14,1.15c1.16.29,2.47.59,3.81.89,1.09.22,2.2.54,3.25.77a31.09,31.09,0,0,1,3.13.91A22.14,22.14,0,0,1,25.48,135a8.67,8.67,0,0,1,2.21,1.74,9,9,0,0,1,1.53,2.49,10.14,10.14,0,0,1,.49,3.43" fill="#626367"/>
  <path d="M51.44,152.45V135.17a23.66,23.66,0,0,0-.23-3.29,5.08,5.08,0,0,0-.89-2.16,2.87,2.87,0,0,0-1.5-1.19,8.15,8.15,0,0,0-2.39-.33,6,6,0,0,0-2.54.56,5.68,5.68,0,0,0-2,1.67,7.94,7.94,0,0,0-1.22,2.6,13.86,13.86,0,0,0-.45,3.65v15.77H35.66V131c0-.55,0-1.21,0-1.82s0-1.19,0-1.81,0-1,0-1.43a3.4,3.4,0,0,0-.05-.74h4.23a3.52,3.52,0,0,1,.06.69c0,.35.06.75.08,1.24s.06.94.09,1.45,0,.9,0,1.23h.09a11.82,11.82,0,0,1,1.29-2.14A7.23,7.23,0,0,1,43,126.1a6.29,6.29,0,0,1,2.18-1,11.05,11.05,0,0,1,2.86-.36A8.5,8.5,0,0,1,53,126a6.62,6.62,0,0,1,2.5,3.87h0a23.41,23.41,0,0,1,1.35-2.14,8.88,8.88,0,0,1,1.76-1.6,6.69,6.69,0,0,1,2.31-1,11,11,0,0,1,2.88-.36,10.09,10.09,0,0,1,3.5.58A5,5,0,0,1,69.76,127a6.63,6.63,0,0,1,1.42,2.94,18,18,0,0,1,.47,4.4v18.11H67.2V135.17a20.62,20.62,0,0,0-.25-3.29,5.35,5.35,0,0,0-.87-2.16,2.82,2.82,0,0,0-1.56-1.19,7.73,7.73,0,0,0-2.33-.33,5.92,5.92,0,0,0-2.56.56,5.34,5.34,0,0,0-2,1.59A7.68,7.68,0,0,0,56.37,133a14.46,14.46,0,0,0-.46,3.71v15.77Z" fill="#626367"/>
  <path d="M85.47,153c-2.74,0-4.79-.74-6.15-2.2a8.21,8.21,0,0,1-2.07-5.95,8.59,8.59,0,0,1,1-4.39,7.46,7.46,0,0,1,2.64-2.68,11.19,11.19,0,0,1,3.82-1.35,20.64,20.64,0,0,1,4.25-.45l6.18-.12v-1.48a11.23,11.23,0,0,0-.36-2.84,6,6,0,0,0-1.1-1.95,6.11,6.11,0,0,0-1.83-1.08,9.67,9.67,0,0,0-2.61-.34,12.54,12.54,0,0,0-2.37.23,4.79,4.79,0,0,0-1.83.68,3.8,3.8,0,0,0-1.26,1.32,6.35,6.35,0,0,0-.61,2.14l-4.73-.45a8.29,8.29,0,0,1,1-3,6.14,6.14,0,0,1,2-2.35,9,9,0,0,1,3.28-1.47,17.31,17.31,0,0,1,4.68-.58c3.4,0,6,.79,7.75,2.32s2.58,3.85,2.58,6.86v11.7a6.69,6.69,0,0,0,.53,3,2.05,2.05,0,0,0,2,1,6.44,6.44,0,0,0,.76,0l.74-.15v2.82a15.75,15.75,0,0,1-1.69.29,12.09,12.09,0,0,1-1.82.13,7.45,7.45,0,0,1-2.23-.35,4.14,4.14,0,0,1-1.44-1,5.48,5.48,0,0,1-.92-1.71,16.73,16.73,0,0,1-.39-2.43h-.09a16.79,16.79,0,0,1-1.65,2.42,7.43,7.43,0,0,1-2,1.77,9.32,9.32,0,0,1-2.6,1.13,13.62,13.62,0,0,1-3.43.43m1-3.4A8.46,8.46,0,0,0,93,146.73a8.33,8.33,0,0,0,1.56-2.66,8.47,8.47,0,0,0,.59-2.8V139l-5,.12a28,28,0,0,0-3.16.22,7.73,7.73,0,0,0-2.65.87A4.29,4.29,0,0,0,82.6,142a5.4,5.4,0,0,0-.65,2.93,4.43,4.43,0,0,0,1.14,3.41,4.58,4.58,0,0,0,3.41,1.24" fill="#626367"/>
  <path d="M107.34,152.45v-20.9c0-.58,0-1.14,0-1.75s0-1.16,0-1.74,0-1-.06-1.53,0-.92-.06-1.3h4.3c0,.38,0,.78.07,1.3s0,1,0,1.53,0,1,0,1.47,0,.93,0,1.27h.12a20.05,20.05,0,0,1,1-2.74,9.16,9.16,0,0,1,1.25-1.88,4.24,4.24,0,0,1,1.74-1.12,8,8,0,0,1,2.45-.36,6.14,6.14,0,0,1,1.06.1,4,4,0,0,0,.8.12v4.18a10.07,10.07,0,0,0-1.07-.19,10.66,10.66,0,0,0-1.36-.07,4.71,4.71,0,0,0-2.6.71,5,5,0,0,0-1.82,2,8.21,8.21,0,0,0-1,2.93,16.66,16.66,0,0,0-.31,3.75v14.22Z" fill="#626367"/>
  <path d="M134.87,152.24a18.06,18.06,0,0,1-2.09.46,20.55,20.55,0,0,1-2.48.13c-3.68,0-5.5-2.06-5.5-6.14v-18.2h-3.14v-3.26H125l1.32-6.14h3v6.14h5.07v3.26h-5.07v17.22a4.64,4.64,0,0,0,.68,2.75,2.76,2.76,0,0,0,2.22.81,6.23,6.23,0,0,0,1.27-.12,10.82,10.82,0,0,1,1.37-.23Z" fill="#626367"/>
  <path d="M173.49,144.91a7.68,7.68,0,0,1-.75,3.39,7.42,7.42,0,0,1-2.18,2.54,10.51,10.51,0,0,1-3.45,1.61,19.79,19.79,0,0,1-4.72.51,23.26,23.26,0,0,1-4.23-.39,10.4,10.4,0,0,1-3.38-1.17,7.62,7.62,0,0,1-2.39-2.09,9.09,9.09,0,0,1-1.43-3.25l4-.81a4.85,4.85,0,0,0,2.39,3.24,10.31,10.31,0,0,0,5,1,20.24,20.24,0,0,0,2.72-.19,6.9,6.9,0,0,0,2.11-.7,3.46,3.46,0,0,0,1.37-1.34,3.81,3.81,0,0,0,.45-2,3.11,3.11,0,0,0-.57-2,3.93,3.93,0,0,0-1.58-1.3,18.32,18.32,0,0,0-2.52-1l-3.25-.83c-1.1-.27-2.19-.61-3.23-.94a11.76,11.76,0,0,1-2.89-1.4,7.52,7.52,0,0,1-2.13-2.16,6,6,0,0,1-.83-3.25,6.85,6.85,0,0,1,2.69-5.7c1.77-1.27,4.34-1.92,7.71-1.92a14.17,14.17,0,0,1,7.21,1.54,7.26,7.26,0,0,1,3.32,5.15l-4,.46a4.63,4.63,0,0,0-.87-1.78A5,5,0,0,0,166.6,129a6.25,6.25,0,0,0-1.9-.64,12.84,12.84,0,0,0-2.26-.2,9.11,9.11,0,0,0-4.53.9,3.22,3.22,0,0,0-1.41,2.83,2.87,2.87,0,0,0,.51,1.83,4.06,4.06,0,0,0,1.54,1.26,13,13,0,0,0,2.3.81c.88.23,1.92.53,3,.79.73.15,1.47.39,2.24.55s1.52.49,2.23.78a10.48,10.48,0,0,1,2,1,8,8,0,0,1,1.63,1.43,6.15,6.15,0,0,1,1.15,1.93,8,8,0,0,1,.42,2.57" fill="#626367"/>
  <path d="M182.27,139.79a16.69,16.69,0,0,0,.43,3.94,10.38,10.38,0,0,0,1.35,3.12,7,7,0,0,0,2.41,2,7.84,7.84,0,0,0,3.46.7,8.17,8.17,0,0,0,4.68-1.2,5.75,5.75,0,0,0,2.39-3l4,1.14a11.25,11.25,0,0,1-1.25,2.26,6.83,6.83,0,0,1-2,2.07,11.58,11.58,0,0,1-3.23,1.52,15,15,0,0,1-4.59.58c-4.09,0-7.13-1.2-9.26-3.63s-3.14-5.93-3.14-10.68a19,19,0,0,1,.93-6.45,11.87,11.87,0,0,1,2.66-4.35,9.92,9.92,0,0,1,3.89-2.39,13.71,13.71,0,0,1,4.7-.75,13.36,13.36,0,0,1,5.76,1.11,9.89,9.89,0,0,1,3.67,3,12.71,12.71,0,0,1,2,4.62,25.64,25.64,0,0,1,.65,5.74v.58ZM197,136.33c-.22-2.89-1-5-2.2-6.29a6.64,6.64,0,0,0-5.21-2,8.81,8.81,0,0,0-2.38.34,6.63,6.63,0,0,0-2.27,1.33,7.68,7.68,0,0,0-1.8,2.51,10.67,10.67,0,0,0-.86,4.09Z" fill="#626367"/>
  <path d="M210.9,138.7a28,28,0,0,0,.35,4.33,11.49,11.49,0,0,0,1.16,3.37,5.7,5.7,0,0,0,2.15,2.21,6.31,6.31,0,0,0,3.25.74,6.1,6.1,0,0,0,4.05-1.29,5.9,5.9,0,0,0,2-4l4.6.3a12.27,12.27,0,0,1-1,3.21,10.87,10.87,0,0,1-2,2.78,12.48,12.48,0,0,1-3.18,1.88,11.52,11.52,0,0,1-4.32.72,12.26,12.26,0,0,1-5.41-1.09,10,10,0,0,1-3.68-2.94,13.59,13.59,0,0,1-2-4.49,22.83,22.83,0,0,1-.63-5.6,20.7,20.7,0,0,1,.46-4.85,14.55,14.55,0,0,1,1.27-3.71,9.2,9.2,0,0,1,1.88-2.61,8.93,8.93,0,0,1,2.42-1.71,12.74,12.74,0,0,1,2.78-1,18.29,18.29,0,0,1,2.84-.26,13.5,13.5,0,0,1,4.14.61,11.67,11.67,0,0,1,3.08,1.71,10.88,10.88,0,0,1,2.08,2.62,11.29,11.29,0,0,1,1.11,3.21l-4.64.36a6.2,6.2,0,0,0-1.78-3.62,5.79,5.79,0,0,0-4.05-1.33,7.14,7.14,0,0,0-3.27.62,5,5,0,0,0-2.11,2,10,10,0,0,0-1.16,3.23,29.11,29.11,0,0,0-.35,4.62" fill="#626367"/>
  <path d="M237.66,125.23v17.23a13.68,13.68,0,0,0,.35,3.37,4.15,4.15,0,0,0,.93,2.1,3.16,3.16,0,0,0,1.71,1.18,9.76,9.76,0,0,0,2.64.32,7.41,7.41,0,0,0,2.93-.51,7.19,7.19,0,0,0,2.24-1.71,7.79,7.79,0,0,0,1.4-2.61,11.85,11.85,0,0,0,.48-3.64V125.23h4.55v21.39c0,.59,0,1.2,0,1.8s0,1.24,0,1.81,0,1,.06,1.46a4.08,4.08,0,0,0,.06.76h-4.31a6.28,6.28,0,0,1-.06-.7c0-.35,0-.76-.07-1.26s-.06-1-.08-1.48v-1.2h-.06a20.91,20.91,0,0,1-1.42,2.14,9.72,9.72,0,0,1-1.85,1.6,7.27,7.27,0,0,1-2.34,1,12.79,12.79,0,0,1-3.09.39,12.34,12.34,0,0,1-3.92-.54,6.48,6.48,0,0,1-2.66-1.73,6.65,6.65,0,0,1-1.59-3,16.47,16.47,0,0,1-.47-4.33V125.23Z" fill="#626367"/>
  <path d="M262,152.45V129.8c0-.61,0-1.16,0-1.74s0-1,0-1.53,0-.92-.07-1.3h4.3c0,.38,0,.78,0,1.3s0,1,.08,1.53,0,1,0,1.47,0,.93,0,1.27h.14a17.66,17.66,0,0,1,1-2.74,8.76,8.76,0,0,1,1.24-1.88,4.21,4.21,0,0,1,1.73-1.12,8,8,0,0,1,2.44-.36,6,6,0,0,1,1.07.1,3.44,3.44,0,0,0,.8.12v4.18a9.63,9.63,0,0,0-1.07-.19,11.14,11.14,0,0,0-1.35-.07,4.94,4.94,0,0,0-2.66.71,5.31,5.31,0,0,0-1.77,2,8.41,8.41,0,0,0-1,2.93,18.56,18.56,0,0,0-.33,3.75v14.22Z" fill="#626367"/>
  <path d="M279.1,152.45h4.53V125.23H279.1Zm0-33.06h4.53V115.1H279.1Z" fill="#626367"/>
  <g>
    <path d="M301.06,152.24a19.73,19.73,0,0,1-2.1.46,20.49,20.49,0,0,1-2.49.13c-3.66,0-5.49-2.06-5.49-6.14v-18.2h-3.14v-3.26h3.36l1.32-6.14h3v6.14h5.06v3.26h-5.06v17.22a4.73,4.73,0,0,0,.66,2.75,2.79,2.79,0,0,0,2.23.81,6,6,0,0,0,1.25-.12,11.69,11.69,0,0,1,1.4-.23Z" fill="#626367"/>
    <path d="M316.62,152.45a36.75,36.75,0,0,1-2,4.45,16,16,0,0,1-2.21,3.36,10.87,10.87,0,0,1-2.74,2.16,7.94,7.94,0,0,1-3.47.74c-.62,0-1.1,0-1.63-.06s-1-.14-1.49-.2v-3.45a9.61,9.61,0,0,0,1.09.13c.34,0,.69,0,1,0a5.71,5.71,0,0,0,3.7-1.5,11.42,11.42,0,0,0,2.95-4.7l.45-1.1-10.8-27.1h4.83l5.77,15c.13.45.4,1.05.63,1.8s.51,1.55.8,2.31.45,1.44.69,2,.3,1,.34,1.16a6.27,6.27,0,0,1,.39-1.11,15.72,15.72,0,0,1,.63-1.86c.22-.66.46-1.34.76-2s.4-1.27.61-1.81l5.35-15.53h4.78Z" fill="#626367"/>
    <path d="M368,138.83c0,4.74-1,8.3-3.14,10.6s-5.13,3.52-9.1,3.52a13.8,13.8,0,0,1-5.11-.86,9.09,9.09,0,0,1-3.79-2.62,11.16,11.16,0,0,1-2.34-4.38,20,20,0,0,1-.86-6.26c0-9.39,4.08-14.13,12.22-14.13a13.83,13.83,0,0,1,5.47.92,8.55,8.55,0,0,1,3.8,2.61,10.85,10.85,0,0,1,2.16,4.38,23.83,23.83,0,0,1,.69,6.22m-4.72,0a22.61,22.61,0,0,0-.54-5.24,9.09,9.09,0,0,0-1.39-3.34,5.29,5.29,0,0,0-2.31-1.72,9.26,9.26,0,0,0-3.07-.47,8.8,8.8,0,0,0-3.12.5,5.12,5.12,0,0,0-2.37,1.77,8.93,8.93,0,0,0-1.54,3.31,22.9,22.9,0,0,0-.5,5.19,19.92,19.92,0,0,0,.56,5.25,8.55,8.55,0,0,0,1.52,3.28,5.06,5.06,0,0,0,2.29,1.73,8.06,8.06,0,0,0,2.91.54,10.07,10.07,0,0,0,3.13-.52,5.12,5.12,0,0,0,2.4-1.72,9.24,9.24,0,0,0,1.48-3.31,22.35,22.35,0,0,0,.55-5.25" fill="#626367"/>
    <path d="M390.94,152.45V135.17a14,14,0,0,0-.28-3.29,4.44,4.44,0,0,0-.93-2.16,3.32,3.32,0,0,0-1.71-1.19,9.93,9.93,0,0,0-2.66-.33,7.55,7.55,0,0,0-2.91.56,5.84,5.84,0,0,0-2.24,1.67,7.34,7.34,0,0,0-1.44,2.6,12.69,12.69,0,0,0-.46,3.65v15.77h-4.53V131c0-.55,0-1.21,0-1.82s0-1.19,0-1.81-.06-1-.07-1.43a5,5,0,0,0-.06-.74h4.29a3.15,3.15,0,0,1,.07.69c0,.35,0,.75.08,1.24s0,.94,0,1.45,0,.9,0,1.23h.08c.46-.74.93-1.46,1.44-2.14a9.26,9.26,0,0,1,1.83-1.6,7.31,7.31,0,0,1,2.36-1,12.83,12.83,0,0,1,3.08-.36,12.51,12.51,0,0,1,3.92.58,5.73,5.73,0,0,1,2.67,1.72,6.72,6.72,0,0,1,1.6,2.94,18.76,18.76,0,0,1,.42,4.4v18.11Z" fill="#626367"/>
    <path d="M433.83,148.06a7.73,7.73,0,0,1-3.29,3.74,10.43,10.43,0,0,1-5.13,1.15c-3.44,0-6-1.18-7.63-3.48s-2.45-5.8-2.45-10.54c0-9.47,3.38-14.23,10.08-14.23a10.29,10.29,0,0,1,5.14,1.15,7.6,7.6,0,0,1,3.28,3.61h.06c0-.19,0-.44,0-.81s0-.73,0-1.15,0-.78,0-1.14V115.1h4.54v33.6c0,.61,0,1.19.07,1.65s0,1,.06,1.36a4.89,4.89,0,0,0,.06.74h-4.37a3.77,3.77,0,0,1-.06-.7c0-.35,0-.7-.06-1.05s-.06-.86-.07-1.33,0-.85,0-1.31Zm-13.69-9.23a23.79,23.79,0,0,0,.36,4.82,8.55,8.55,0,0,0,1.09,3.27,4.82,4.82,0,0,0,2,2,6.39,6.39,0,0,0,2.91.56,7.75,7.75,0,0,0,3.17-.54A5.24,5.24,0,0,0,432,147a9.12,9.12,0,0,0,1.39-3.36,22.66,22.66,0,0,0,.43-5.1,20.84,20.84,0,0,0-.43-4.88,8.3,8.3,0,0,0-1.41-3.25,5.21,5.21,0,0,0-2.31-1.79,8.06,8.06,0,0,0-3.11-.53,6.41,6.41,0,0,0-2.88.58,5.48,5.48,0,0,0-2,1.85,10,10,0,0,0-1.14,3.33,22.16,22.16,0,0,0-.4,5" fill="#626367"/>
    <path d="M448.78,139.79a17.16,17.16,0,0,0,.47,3.94,10.13,10.13,0,0,0,1.35,3.12,7.24,7.24,0,0,0,2.35,2,8.12,8.12,0,0,0,3.48.7,8.3,8.3,0,0,0,4.72-1.2,6,6,0,0,0,2.39-3l4,1.14a11.69,11.69,0,0,1-1.24,2.26,6.79,6.79,0,0,1-2,2.07,12.15,12.15,0,0,1-3.23,1.52,14.91,14.91,0,0,1-4.61.58c-4,0-7.1-1.2-9.21-3.63s-3.17-5.93-3.17-10.68a19.19,19.19,0,0,1,.94-6.45,11.74,11.74,0,0,1,2.66-4.35,10.06,10.06,0,0,1,3.89-2.39,13.53,13.53,0,0,1,4.71-.75,13.37,13.37,0,0,1,5.75,1.11,9.89,9.89,0,0,1,3.67,3,12.9,12.9,0,0,1,2,4.62,25.68,25.68,0,0,1,.63,5.74v.58Zm14.8-3.46q-.37-4.34-2.22-6.29a6.63,6.63,0,0,0-5.22-2,8.62,8.62,0,0,0-2.36.34,6.4,6.4,0,0,0-2.28,1.33,6.75,6.75,0,0,0-1.78,2.51,10.3,10.3,0,0,0-.87,4.09Z" fill="#626367"/>
    <path d="M489.88,152.45V135.17a14.54,14.54,0,0,0-.28-3.29,4.61,4.61,0,0,0-.79-2.16,3.15,3.15,0,0,0-1.59-1.19,7.68,7.68,0,0,0-2.31-.33,6.53,6.53,0,0,0-2.64.56,5.37,5.37,0,0,0-2,1.67,7.94,7.94,0,0,0-1.22,2.6,11.73,11.73,0,0,0-.46,3.65v15.77h-4.5V131c0-.55,0-1.21,0-1.82s0-1.19-.05-1.81-.05-1-.06-1.43a7.18,7.18,0,0,0-.06-.74h4.3a5.7,5.7,0,0,1,.07.69c0,.35,0,.75.06,1.24s0,.94,0,1.45,0,.9,0,1.23h.08c.42-.74.88-1.46,1.3-2.14a7.15,7.15,0,0,1,1.69-1.6,6.5,6.5,0,0,1,2.13-1,10.73,10.73,0,0,1,2.82-.36,8.27,8.27,0,0,1,4.9,1.27,6.25,6.25,0,0,1,2.52,3.87H494a15.2,15.2,0,0,1,1.37-2.14,7.64,7.64,0,0,1,1.75-1.6,7.12,7.12,0,0,1,2.23-1,11.68,11.68,0,0,1,2.9-.36,10.65,10.65,0,0,1,3.58.58,5.28,5.28,0,0,1,2.45,1.72,7.2,7.2,0,0,1,1.41,2.94,19.26,19.26,0,0,1,.43,4.4v18.11h-4.5V135.17a14.32,14.32,0,0,0-.23-3.29,5,5,0,0,0-.84-2.16,2.82,2.82,0,0,0-1.53-1.19,7.78,7.78,0,0,0-2.31-.33,6.22,6.22,0,0,0-2.64.56,4.73,4.73,0,0,0-2,1.59,7.74,7.74,0,0,0-1.3,2.62,14.23,14.23,0,0,0-.39,3.71v15.77Z" fill="#626367"/>
    <path d="M523.92,153c-2.72,0-4.78-.74-6.18-2.2a8.13,8.13,0,0,1-2.09-5.95,8.39,8.39,0,0,1,1.07-4.39,7.13,7.13,0,0,1,2.66-2.68,10.67,10.67,0,0,1,3.75-1.35,21.57,21.57,0,0,1,4.33-.45l6.08-.12v-1.48a9.37,9.37,0,0,0-.35-2.84,4.12,4.12,0,0,0-1.1-1.95,5.07,5.07,0,0,0-1.81-1.08,9.3,9.3,0,0,0-2.57-.34,11.74,11.74,0,0,0-2.34.23,4.64,4.64,0,0,0-1.86.68,3.64,3.64,0,0,0-1.23,1.32,5.34,5.34,0,0,0-.69,2.14l-4.71-.45a11.2,11.2,0,0,1,.94-3,7.33,7.33,0,0,1,2-2.35,9.32,9.32,0,0,1,3.24-1.47,18,18,0,0,1,4.77-.58c3.4,0,5.94.79,7.69,2.32a8.86,8.86,0,0,1,2.6,6.86v11.7a7,7,0,0,0,.51,3,2.11,2.11,0,0,0,2.06,1,6.45,6.45,0,0,0,.73,0c.27,0,.48-.1.69-.15v2.82a12.13,12.13,0,0,1-1.69.29,10.65,10.65,0,0,1-1.79.13,6.8,6.8,0,0,1-2.17-.35,4.71,4.71,0,0,1-1.52-1,4.24,4.24,0,0,1-.85-1.71,8.15,8.15,0,0,1-.38-2.43h-.19a14.41,14.41,0,0,1-1.57,2.42,9.58,9.58,0,0,1-2,1.77,9.32,9.32,0,0,1-2.66,1.13,13.07,13.07,0,0,1-3.37.43m1-3.4a8.1,8.1,0,0,0,3.78-.81,7.65,7.65,0,0,0,2.67-2,9,9,0,0,0,1.63-2.66,8.43,8.43,0,0,0,.5-2.8V139l-5,.12a30.31,30.31,0,0,0-3.15.22,7.93,7.93,0,0,0-2.62.87A4.48,4.48,0,0,0,521,142a5.39,5.39,0,0,0-.67,2.93,4.42,4.42,0,0,0,1.23,3.41,4.36,4.36,0,0,0,3.4,1.24" fill="#626367"/>
    <path d="M563,152.45V135.17a19.25,19.25,0,0,0-.27-3.29,5.23,5.23,0,0,0-1-2.16,3.05,3.05,0,0,0-1.72-1.19,9.81,9.81,0,0,0-2.63-.33,7.83,7.83,0,0,0-2.92.56,5.54,5.54,0,0,0-2.17,1.67,6.27,6.27,0,0,0-1.43,2.6,11.62,11.62,0,0,0-.55,3.65v15.77h-4.53V131c0-.55,0-1.21,0-1.82s0-1.19-.05-1.81,0-1-.06-1.43v-.74h4.23a5.7,5.7,0,0,1,.07.69c0,.35,0,.75.08,1.24s0,.94.08,1.45,0,.9,0,1.23h.09a20,20,0,0,1,1.38-2.14,9.56,9.56,0,0,1,1.83-1.6,7.22,7.22,0,0,1,2.36-1,13.37,13.37,0,0,1,3.12-.36,12.27,12.27,0,0,1,3.87.58,5.88,5.88,0,0,1,2.75,1.72,6.41,6.41,0,0,1,1.5,2.94,16.87,16.87,0,0,1,.53,4.4v18.11Z" fill="#626367"/>
    <path d="M591.52,148.06a8.22,8.22,0,0,1-3.37,3.74A10.42,10.42,0,0,1,583,153c-3.43,0-6-1.18-7.56-3.48s-2.44-5.8-2.44-10.54c0-9.47,3.3-14.23,10-14.23a10.21,10.21,0,0,1,5.14,1.15,8.13,8.13,0,0,1,3.37,3.61h.07c0-.19,0-.44,0-.81s0-.73,0-1.15,0-.78,0-1.14V115.1h4.55v31.77c0,.64,0,1.26,0,1.83s0,1.19,0,1.65,0,1,0,1.36a6.9,6.9,0,0,0,0,.74h-4.29a6.48,6.48,0,0,1-.12-.7c0-.35-.06-.7-.09-1.05s-.06-.86-.08-1.33v-1.31Zm-13.77-9.23a31.56,31.56,0,0,0,.35,4.82,9.67,9.67,0,0,0,1.16,3.27,4.89,4.89,0,0,0,2,2,6.6,6.6,0,0,0,3,.56,8.09,8.09,0,0,0,3.15-.54,5.15,5.15,0,0,0,2.27-1.92,9.47,9.47,0,0,0,1.39-3.36,22.81,22.81,0,0,0,.5-5.1,21,21,0,0,0-.5-4.88,8.6,8.6,0,0,0-1.41-3.25,5.17,5.17,0,0,0-2.25-1.79,8.55,8.55,0,0,0-3.1-.53,6.41,6.41,0,0,0-2.88.58,4.53,4.53,0,0,0-2,1.85,8.81,8.81,0,0,0-1.23,3.33,29.11,29.11,0,0,0-.39,5" fill="#626367"/>
  </g>
</svg>
