<svg xmlns="http://www.w3.org/2000/svg" width="4.7in" height="2.9in" viewBox="0 0 342 206"><defs><style>.a{fill:#74bdab;}.b{fill:#009470;}.c{fill:#007357;}.d{fill:#231f20;}</style></defs><title>monitor-wkhtml</title><path class="a" d="M77.3,42.7C53.7,68.1,44.5,90.1,43,124.8H69.1C71.2,95.5,80,77,101.2,56.8S142.1,28.4,171.9,28V1.3C131.6,1.3,104.6,13.1,77.3,42.7Z"/><path class="a" d="M204.5,6.8A97.3,97.3,0,0,0,179,18.2V50.8c10.2-7.9,16.8-11.6,28.8-16.3s19.9-6.6,33.2-7.6V1.9C226.6,1.4,218.2,2.6,204.5,6.8Z"/><path class="a" d="M272,1.9A88.4,88.4,0,0,0,247,10V40.5a82,82,0,0,1,23.4-9.8A82.1,82.1,0,0,1,297,27.4V0.2A88.5,88.5,0,0,0,272,1.9Z"/><path class="b" d="M75.1,125.3h25c1.5-20.4,7.8-33.4,22.8-47.3s28.5-19.1,49-19V33.4c-28.5.5-47.1,8.3-67.4,28.3S77,98.1,75.1,125.3Z"/><path class="b" d="M179,59V97.6c8.1-14,15.3-21.3,29.4-29.4,11.4-6.6,19-9,32.1-10.3V33.4c-13.9.2-22.1,2-34.8,7.6S187.9,50.2,179,59Z"/><path class="b" d="M272,35.6a72.5,72.5,0,0,0-24.5,10.9V76.9c8-7,13.5-10.3,23.4-14.1A69.1,69.1,0,0,1,297,57.3V32.9A72.5,72.5,0,0,0,272,35.6Z"/><path class="c" d="M126.8,82.9c-13.2,12.4-18.7,23.8-20.1,41.9h28.8c1.7-9.1,4.9-14.6,12-20.7s14-8.8,23.9-8.7l0.5-29.9C153,65.2,140.5,70,126.8,82.9Z"/><path class="c" d="M152.9,107.9c-5.9,4.8-8.6,9.4-9.8,16.9h28.3V101.9C163.8,101.5,158.8,103.2,152.9,107.9Z"/><path class="c" d="M195.8,86.7c-10.9,12-15.3,21.9-16.9,38.1h28.3c1.7-8.6,4.5-13.6,10.9-19.6s12.5-8.9,21.8-9.8V65C220.8,66.5,208.7,72.5,195.8,86.7Z"/><path class="c" d="M214.3,125.3h25.6V102.5c-7.1.4-11.6,2.3-16.9,7.1S215.5,118.4,214.3,125.3Z"/><path class="c" d="M271.4,104.1c7.9-7.1,15-9.7,25.6-9.2V65.5c-11.9-.9-19.3.6-29.9,6-8.9,4.5-13.6,8.4-19.6,16.3v37.5H260C261.4,116,264.5,110.4,271.4,104.1Z"/><path class="c" d="M278.5,106.8c-7.1,4.9-10.4,10-12,18.5h31V101.9C289.9,101.2,284.8,102.5,278.5,106.8Z"/><path class="d" d="M1.9,201.3L5.1,185H8.4L5.2,201.3H1.9Z"/><path class="d" d="M8.2,201.3l2.3-12.1h3.2l-1,5a14.8,14.8,0,0,1,2.8-3.9,4.4,4.4,0,0,1,3-1.4,2,2,0,0,1,1.5.6,2.5,2.5,0,0,1,.6,1.8,7.7,7.7,0,0,1-.1,1.4l-1.7,8.5H15.6l1.6-8.3a2.2,2.2,0,0,0,.1-0.5q0-.6-0.5-0.6t-2.2,1.8a35.9,35.9,0,0,0-2.5,3.6l-0.8,4H8.2Z"/><path class="d" d="M20.9,200.8l0.4-2.3a9,9,0,0,0,3.8,1.1,1.7,1.7,0,0,0,1.1-.4,1.2,1.2,0,0,0,.5-1,1.4,1.4,0,0,0-.2-0.6l-0.9-1.1-0.8-.8a8.4,8.4,0,0,1-1.6-1.9,3.1,3.1,0,0,1-.3-1.3,3.3,3.3,0,0,1,1.2-2.4,4.9,4.9,0,0,1,3.5-1.1,10.7,10.7,0,0,1,3.4.5l-0.4,2.3a7.1,7.1,0,0,0-2.9-.7,1.8,1.8,0,0,0-1.3.4,1.2,1.2,0,0,0-.4.9,1.3,1.3,0,0,0,.2.7l0.9,1,0.9,0.9a7.5,7.5,0,0,1,1.3,1.6,3,3,0,0,1,.4,1.6,3.3,3.3,0,0,1-1.3,2.6,5.5,5.5,0,0,1-3.6,1A11.8,11.8,0,0,1,20.9,200.8Z"/><path class="d" d="M38.2,201.3l1-5a15.1,15.1,0,0,1-2.6,3.9,4,4,0,0,1-2.8,1.4,1.8,1.8,0,0,1-1.4-.6,2.6,2.6,0,0,1-.6-1.8,7.2,7.2,0,0,1,.2-1.4l1.8-8.5h3.2l-1.7,8.3a2.2,2.2,0,0,0,0,.4q0,0.6.4,0.6t2-1.8a37.8,37.8,0,0,0,2.2-3.5l0.8-4h3.2l-2.4,12.1H38.2Z"/><path class="d" d="M44.4,201.3l2.3-12.1H50l-1,5a13.6,13.6,0,0,1,2.8-3.9,4.4,4.4,0,0,1,2.8-1.4l0.9,0.2-0.9,3.1-0.9-.2a3.7,3.7,0,0,0-2.6,1.7,31.9,31.9,0,0,0-2.7,3.7l-0.8,4H44.4Z"/><path class="d" d="M61.4,201.3l1-5a13.9,13.9,0,0,1-2.7,3.8,4.5,4.5,0,0,1-3,1.5,2.1,2.1,0,0,1-1.8-1,3.5,3.5,0,0,1-.7-2,10.1,10.1,0,0,1,1.3-4.7,10.5,10.5,0,0,1,3.1-3.7,6,6,0,0,1,3.5-1.2h0.8l0.9,0.2h3.2l-2.3,12.1H61.4Zm1.5-7.9,0.4-2-0.7-.3H61.9a2.9,2.9,0,0,0-1.9.9,7.5,7.5,0,0,0-1.7,2.8,9,9,0,0,0-.8,3.2,1.3,1.3,0,0,0,.1.6,0.5,0.5,0,0,0,.5.3q0.9,0,2.4-1.9A31.7,31.7,0,0,0,63,193.4Z"/><path class="d" d="M67.4,201.3l2.3-12.1H73l-1,5a14.8,14.8,0,0,1,2.8-3.9,4.4,4.4,0,0,1,3-1.4,2,2,0,0,1,1.5.6,2.5,2.5,0,0,1,.6,1.8,7.7,7.7,0,0,1-.1,1.4L78,201.3H74.8l1.6-8.3a2.2,2.2,0,0,0,.1-0.5q0-.6-0.5-0.6t-2.2,1.8a35.9,35.9,0,0,0-2.5,3.6l-0.8,4H67.4Z"/><path class="d" d="M89.6,200.5a11.8,11.8,0,0,1-4.7,1.1,4.2,4.2,0,0,1-3-1.1,3.9,3.9,0,0,1-1.2-3,9.1,9.1,0,0,1,4-7.4,6.9,6.9,0,0,1,3.8-1.2,8.8,8.8,0,0,1,2.9.6L91,191.8a6.3,6.3,0,0,0-2.6-.8,3.2,3.2,0,0,0-2,.7,5.5,5.5,0,0,0-1.6,2.3,7.8,7.8,0,0,0-.6,3,2.3,2.3,0,0,0,.6,1.7,2.1,2.1,0,0,0,1.5.5h1.1l1.3-.4,1.5-.7Z"/><path class="d" d="M101.4,200.2a13.9,13.9,0,0,1-3.2,1.1l-2.5.3a5.2,5.2,0,0,1-2.4-.5,3.3,3.3,0,0,1-1.5-1.5,4.7,4.7,0,0,1-.5-2,8.9,8.9,0,0,1,1.1-4.2,8.7,8.7,0,0,1,2.8-3.2,6.5,6.5,0,0,1,3.7-1.2,3.2,3.2,0,0,1,2.2.7,2.4,2.4,0,0,1,.8,1.9,4.3,4.3,0,0,1-.9,2.5,6.6,6.6,0,0,1-2.6,2,10.6,10.6,0,0,1-4,1,2.4,2.4,0,0,0,.7,1.9,2.6,2.6,0,0,0,1.5.5A8.3,8.3,0,0,0,99,199a13.3,13.3,0,0,0,3-1.3ZM94.7,195a4.8,4.8,0,0,0,3.2-.9,2.5,2.5,0,0,0,1.1-1.9,1.1,1.1,0,0,0-.3-0.8,1,1,0,0,0-.8-0.3,2.6,2.6,0,0,0-1.8,1A6.1,6.1,0,0,0,94.7,195Z"/><path class="d" d="M122.7,200.6a20.9,20.9,0,0,1-6.2,1.1,7.3,7.3,0,0,1-3.4-.8,4.9,4.9,0,0,1-2.2-2.2,7,7,0,0,1-.7-3.2,11.7,11.7,0,0,1,5.1-9.5,9.7,9.7,0,0,1,5.5-1.5,19.3,19.3,0,0,1,4.7.6l-0.5,2.6a12.2,12.2,0,0,0-4.5-1,5.4,5.4,0,0,0-3.3,1,7.9,7.9,0,0,0-2.4,3.1,9.6,9.6,0,0,0-1,4.1,4.9,4.9,0,0,0,.5,2.2,3.2,3.2,0,0,0,1.4,1.5,4.6,4.6,0,0,0,2.1.5,18.5,18.5,0,0,0,5.3-1.1Z"/><path class="d" d="M128.6,201.6a4.5,4.5,0,0,1-3.2-1.1,3.8,3.8,0,0,1-1.2-2.9,9.1,9.1,0,0,1,1.1-4.3,8.5,8.5,0,0,1,2.8-3.2,6.7,6.7,0,0,1,3.8-1.1,4.6,4.6,0,0,1,3.3,1.1,3.8,3.8,0,0,1,1.2,2.9,9.1,9.1,0,0,1-1.1,4.3,8.6,8.6,0,0,1-2.8,3.2A6.8,6.8,0,0,1,128.6,201.6Zm0.7-2.1a2.6,2.6,0,0,0,1.9-.8,5.9,5.9,0,0,0,1.3-2.2,8.4,8.4,0,0,0,.5-2.9,3.1,3.1,0,0,0-.5-1.9,1.6,1.6,0,0,0-1.3-.6,2.6,2.6,0,0,0-1.8.8A5.8,5.8,0,0,0,128,194a8.4,8.4,0,0,0-.5,3,3.1,3.1,0,0,0,.5,1.8A1.5,1.5,0,0,0,129.3,199.5Z"/><path class="d" d="M136.9,201.3l2.3-12.1h3l-1,5a14.7,14.7,0,0,1,2.7-3.8,4.3,4.3,0,0,1,3-1.5,1.9,1.9,0,0,1,1.3.5,2.2,2.2,0,0,1,.6,1.7,7.9,7.9,0,0,1-.1,1.4l-0.3,1.7q2.8-5.3,5.8-5.3a1.7,1.7,0,0,1,1.5.7,2.7,2.7,0,0,1,.5,1.7,6.5,6.5,0,0,1-.1,1.2l-1.7,8.8h-3l1.6-8.2a2.9,2.9,0,0,0,.1-0.6,0.7,0.7,0,0,0-.2-0.5h-0.3q-1.1,0-4.6,5.2l-0.8,4.2h-3l1.6-8.2a3,3,0,0,0,.1-0.6,0.7,0.7,0,0,0-.2-0.5h-0.3q-1.1,0-4.5,5.2l-0.8,4.2h-3Z"/><path class="d" d="M156.2,205.7l3.2-16.5h3.2l-1,5a14.5,14.5,0,0,1,2.6-3.7,4.5,4.5,0,0,1,3.1-1.6,2.1,2.1,0,0,1,1.8.9,3.5,3.5,0,0,1,.7,2,10.1,10.1,0,0,1-1.3,4.7,10.5,10.5,0,0,1-3.1,3.7,6,6,0,0,1-3.5,1.2l-1.7-.3-0.8,4.4h-3.2Zm4.8-8.5-0.4,2a3.1,3.1,0,0,0,1.5.4,2.9,2.9,0,0,0,1.9-.9,7.6,7.6,0,0,0,1.7-2.8,9.1,9.1,0,0,0,.8-3.2,1.3,1.3,0,0,0-.1-0.6,0.5,0.5,0,0,0-.5-0.3q-0.8,0-2.4,1.9A32.6,32.6,0,0,0,161.1,197.1Z"/><path class="d" d="M177.4,201.3l1-5a13.9,13.9,0,0,1-2.7,3.8,4.5,4.5,0,0,1-3,1.5,2.1,2.1,0,0,1-1.8-1,3.5,3.5,0,0,1-.7-2,10.1,10.1,0,0,1,1.3-4.7,10.5,10.5,0,0,1,3.1-3.7,6,6,0,0,1,3.5-1.2h0.8l0.9,0.2h3.2l-2.3,12.1h-3.2Zm1.5-7.9,0.4-2-0.7-.3h-0.7a2.9,2.9,0,0,0-1.9.9,7.5,7.5,0,0,0-1.7,2.8,9,9,0,0,0-.8,3.2,1.3,1.3,0,0,0,.1.6,0.5,0.5,0,0,0,.5.3q0.9,0,2.4-1.9A31.7,31.7,0,0,0,178.9,193.4Z"/><path class="d" d="M183.4,201.3l2.3-12.1h3.2l-1,5a14.7,14.7,0,0,1,2.8-3.9,4.4,4.4,0,0,1,3-1.4,2,2,0,0,1,1.5.6,2.5,2.5,0,0,1,.6,1.8,7.8,7.8,0,0,1-.1,1.4l-1.7,8.5h-3.2l1.6-8.3a2.2,2.2,0,0,0,.1-0.5q0-.6-0.5-0.6t-2.2,1.8a35.8,35.8,0,0,0-2.5,3.6l-0.8,4h-3.2Z"/><path class="d" d="M196,205.7l3.3-4.4-2.1-12.1h3.2l1.4,8.2,5.2-8.2h2.6l-10.5,16.5H196Z"/><path class="d" d="M219.6,201.6a4.5,4.5,0,0,1-3.2-1.1,3.8,3.8,0,0,1-1.2-2.9,9.1,9.1,0,0,1,1.1-4.3,8.5,8.5,0,0,1,2.8-3.2,6.7,6.7,0,0,1,3.8-1.1,4.6,4.6,0,0,1,3.3,1.1,3.8,3.8,0,0,1,1.2,2.9,9.1,9.1,0,0,1-1.1,4.3,8.6,8.6,0,0,1-2.8,3.2A6.8,6.8,0,0,1,219.6,201.6Zm0.7-2.1a2.6,2.6,0,0,0,1.9-.8,5.9,5.9,0,0,0,1.3-2.2,8.4,8.4,0,0,0,.5-2.9,3.1,3.1,0,0,0-.5-1.9,1.6,1.6,0,0,0-1.3-.6,2.6,2.6,0,0,0-1.8.8,5.8,5.8,0,0,0-1.3,2.2,8.4,8.4,0,0,0-.5,3,3.1,3.1,0,0,0,.5,1.8A1.5,1.5,0,0,0,220.3,199.5Z"/><path class="d" d="M227.3,205.7l2.8-14.4h-1.8l0.4-2h1.8v-0.5a7.1,7.1,0,0,1,1.2-2.6,6.4,6.4,0,0,1,2.1-1.9,5.4,5.4,0,0,1,2.7-.7,10.8,10.8,0,0,1,2.7.4l-0.4,2.2a6,6,0,0,0-2.4-.6q-2.1,0-2.6,2.8v0.7h3.2l-0.4,2h-3.2l-2.8,14.4h-3.2Z"/><path class="d" d="M243.2,201.3l3.2-16.3h2.9l5.2,11.4,2.2-11.4h2.6l-3.1,16.3h-2.9l-5.2-11.4-2.2,11.4h-2.6Z"/><path class="d" d="M269.2,200.2a13.9,13.9,0,0,1-3.2,1.1l-2.5.3a5.2,5.2,0,0,1-2.4-.5,3.3,3.3,0,0,1-1.5-1.5,4.7,4.7,0,0,1-.5-2,8.9,8.9,0,0,1,1.1-4.2,8.7,8.7,0,0,1,2.8-3.2,6.5,6.5,0,0,1,3.7-1.2,3.2,3.2,0,0,1,2.2.7,2.4,2.4,0,0,1,.8,1.9,4.3,4.3,0,0,1-.9,2.5,6.6,6.6,0,0,1-2.6,2,10.6,10.6,0,0,1-4,1,2.3,2.3,0,0,0,.7,1.9,2.6,2.6,0,0,0,1.5.5,8.3,8.3,0,0,0,2.3-.4,13.3,13.3,0,0,0,3-1.3Zm-6.7-5.2a4.8,4.8,0,0,0,3.2-.9,2.5,2.5,0,0,0,1.1-1.9,1.1,1.1,0,0,0-.3-0.8,1,1,0,0,0-.8-0.3,2.6,2.6,0,0,0-1.8,1A6.1,6.1,0,0,0,262.5,195Z"/><path class="d" d="M272.4,201.3l-0.8-12.1h2.8l0.6,8.4,4-8.4h2.8l0.5,8.4,4.1-8.4h2.4l-5.9,12.1h-3.1l-0.4-8.3-3.9,8.3h-3.1Z"/><path class="d" d="M298.2,201.3l1.4-7.3-3.4-9h3.4l2.4,6.3,4.8-6.3h2.9l-6.7,8.9-1.4,7.4h-3.3Z"/><path class="d" d="M311,201.6a4.5,4.5,0,0,1-3.2-1.1,3.8,3.8,0,0,1-1.2-2.9,9.1,9.1,0,0,1,1.1-4.3,8.5,8.5,0,0,1,2.8-3.2,6.7,6.7,0,0,1,3.8-1.1,4.6,4.6,0,0,1,3.3,1.1,3.8,3.8,0,0,1,1.2,2.9,9.1,9.1,0,0,1-1.1,4.3,8.6,8.6,0,0,1-2.8,3.2A6.8,6.8,0,0,1,311,201.6Zm0.7-2.1a2.6,2.6,0,0,0,1.9-.8,5.9,5.9,0,0,0,1.3-2.2,8.4,8.4,0,0,0,.5-2.9,3.1,3.1,0,0,0-.5-1.9,1.6,1.6,0,0,0-1.3-.6,2.6,2.6,0,0,0-1.8.8,5.8,5.8,0,0,0-1.3,2.2,8.4,8.4,0,0,0-.5,3,3.1,3.1,0,0,0,.5,1.8A1.5,1.5,0,0,0,311.7,199.5Z"/><path class="d" d="M319.3,201.3l2.3-12.1h3.2l-1,5a13.7,13.7,0,0,1,2.8-3.9,4.4,4.4,0,0,1,2.8-1.4l0.9,0.2-0.9,3.1-0.9-.2a3.7,3.7,0,0,0-2.6,1.7,31.8,31.8,0,0,0-2.7,3.7l-0.8,4h-3.2Z"/><path class="d" d="M329.3,201.3l3.4-17.4h3.2L333.7,195l5.6-5.9H342l-5,5.4,3.8,6.7h-3.6l-3.5-6.3-1.2,6.3h-3.2Z"/><polygon class="d" points="122.5 155.7 109.8 133.5 104.7 133.5 104.7 166 109.3 166 109.3 143.7 122 166 127.1 166 127.1 133.5 122.5 133.5 122.5 155.7"/><rect class="d" x="131.9" y="133.5" width="5.7" height="32.5"/><path class="d" d="M95.2,134.8a14.2,14.2,0,0,0-14.9,0,13.1,13.1,0,0,0-4.9,6,25.1,25.1,0,0,0,0,17.8,13.3,13.3,0,0,0,4.9,6,14.4,14.4,0,0,0,15,0,13.3,13.3,0,0,0,4.9-6,25,25,0,0,0,0-17.8A13.1,13.1,0,0,0,95.2,134.8Zm-1.5,23.7a6.5,6.5,0,0,1-11.9,0,19.2,19.2,0,0,1-1.9-8.8,19,19,0,0,1,1.9-8.8,6.5,6.5,0,0,1,11.9,0,19,19,0,0,1,1.9,8.8A19.2,19.2,0,0,1,93.7,158.5Z"/><polygon class="d" points="164.9 133.5 139.4 133.5 139.4 138 149.3 138 149.3 166 155 166 155 138 164.9 138 164.9 133.5"/><polygon class="d" points="57.2 156.3 50.5 133.5 42.9 133.5 42.9 166 47.4 166 47.4 141.1 54 163.8 58.7 163.8 65.4 141.4 65.4 166 70.7 166 70.7 133.5 64 133.5 57.2 156.3"/><path class="d" d="M186.3,134.8a14.2,14.2,0,0,0-14.9,0,13.1,13.1,0,0,0-4.9,6,25.1,25.1,0,0,0,0,17.8,13.2,13.2,0,0,0,4.9,6,14.4,14.4,0,0,0,15,0,13.2,13.2,0,0,0,4.9-6,25.1,25.1,0,0,0,0-17.8A13.1,13.1,0,0,0,186.3,134.8Zm-1.5,23.7a6.5,6.5,0,0,1-11.9,0,19.2,19.2,0,0,1-1.9-8.8,19,19,0,0,1,1.9-8.8,6.5,6.5,0,0,1,11.9,0,19,19,0,0,1,1.9,8.8A19.2,19.2,0,0,1,184.8,158.5Z"/><path class="d" d="M213.1,146.9a10.9,10.9,0,0,0,1.4-5.4,9.2,9.2,0,0,0-1-4.3,6.7,6.7,0,0,0-2.6-2.8,9.9,9.9,0,0,0-4.8-.9H195.8V166h5.4V152.6h3.1l6.9,13.3h7l-9-15.2A9.3,9.3,0,0,0,213.1,146.9Zm-5.7-.5c-0.9,1.2-2.6,1.8-4.9,1.8h-1.3V137.9h2c2.3,0,3.8.4,4.5,1.2a4.6,4.6,0,0,1,1.1,3.2A6.6,6.6,0,0,1,207.4,146.4Z"/><polygon class="d" points="235.9 133.5 230.2 133.5 230.2 166 248.3 166 248.3 161.3 235.9 161.3 235.9 133.5"/><rect class="d" x="250.2" y="133.5" width="5.7" height="32.5"/><polygon class="d" points="260.7 166 266.4 166 266.4 152.3 275.9 152.3 275.9 147.8 266.4 147.8 266.4 138 278 138 278 133.5 260.7 133.5 260.7 166"/><polygon class="d" points="286.2 161.3 286.2 151.5 296.1 151.5 296.1 147 286.2 147 286.2 138 298.2 138 298.2 133.5 280.5 133.5 280.5 166 299.1 166 299.1 161.3 286.2 161.3"/></svg>