<svg xmlns="http://www.w3.org/2000/svg" width="4.8in" height="1in" viewBox="0 0 345.9 71.5"><defs><style>.a{fill:#1c75bc;}.b{fill:none;}.c{fill:#001f5b;}.d{fill:#f1f2f2;}</style></defs><title>MWG Dental</title><path class="a" d="M333.9,0h-209a74.8,74.8,0,0,1-.3,71.5H333.9a12,12,0,0,0,12-12V12A12,12,0,0,0,333.9,0Z"/><line class="b" x1="228.6" y1="40.5" x2="224.7" y2="39.7"/><path class="c" d="M122.1,0H12A12,12,0,0,0,0,12V61.6a9.8,9.8,0,0,0,9.8,9.8h112A74.8,74.8,0,0,0,122.1,0Z"/><path class="d" d="M176.6,35a17.4,17.4,0,0,1-1.7,8,16.2,16.2,0,0,1-4.5,5.5,19,19,0,0,1-6.4,3.2,25.8,25.8,0,0,1-7.2,1H143.6V17.4h12.8a31.6,31.6,0,0,1,7.4.9,18.6,18.6,0,0,1,6.5,2.9,14.8,14.8,0,0,1,4.6,5.4A18.2,18.2,0,0,1,176.6,35Zm-8.9,0a11.2,11.2,0,0,0-1-5,8.4,8.4,0,0,0-2.6-3.1,10.4,10.4,0,0,0-3.7-1.7,18.2,18.2,0,0,0-4.3-.5h-4.2V45.4h4a18.4,18.4,0,0,0,4.4-.5,10.5,10.5,0,0,0,3.8-1.7,8.6,8.6,0,0,0,2.6-3.2A11.2,11.2,0,0,0,167.7,35Z"/><path class="d" d="M180.3,52.8V17.4h23.8v7.2H188.5v6.7h14.7v6.9H188.5v7.4H205v7.3H180.3Z"/><path class="d" d="M233.1,52.8L218.9,29.6h-0.2l0.2,23.1h-8.3V17.4h9.8l14.2,23.1h0.2l-0.2-23.1h8.3V52.8h-9.7Z"/><path class="d" d="M264.3,24.7V52.8h-8.5V24.7h-10V17.4h28.5v7.3h-10Z"/><path class="d" d="M297.2,52.8l-2.7-7H280.7l-2.6,7h-9.3l14.9-35.4H292l14.7,35.4h-9.5Zm-9.5-26L283.2,39h8.9Z"/><path class="d" d="M309.6,52.8V17.4h8.6V45.3h13.7v7.5H309.6Z"/><path class="d" d="M102.4,18a11.2,11.2,0,0,1,8.3,3.5,19.8,19.8,0,0,1,4,6.9c0.1,0.3.2,0.4,0.5,0.4l1.2-.2c0.2,0,.2-0.3.2-0.7l-0.5-10a0.6,0.6,0,0,0-.6-0.7,0.8,0.8,0,0,0-.7.5l-0.6.8c-0.3.4-.6,0.5-1.2,0.1s-5.4-2.7-10.2-2.7c-9.2,0-15.8,2-20,15.2L78.7,41.8,72.5,27.9s-2.6-6.2-3.7-6.2S65,27.5,65,27.5s-6.7,14.4-7.1,15.4H57.7L50,19.9a1.2,1.2,0,0,1,1.2-1.7h0.9a0.4,0.4,0,0,0,.4-0.4V16.5c0-.2-0.1-0.3-0.4-0.3H47.3a3.2,3.2,0,0,0-1,1.7c-1.5,3.4-8.8,19.2-9.2,20.5H37l-9-21a1.3,1.3,0,0,0-1.2-1.1,1.7,1.7,0,0,0-1.3,1.3c-1,2.5-11.2,30.4-11.6,31.5a2.5,2.5,0,0,1-2.2,1.6h-1c-0.3,0-.3.1-0.3,0.4v1.3a0.3,0.3,0,0,0,.3.2h10a0.3,0.3,0,0,0,.4-0.4V51.2c0-.2,0-0.4-0.3-0.4H19.2a1.5,1.5,0,0,1-1.7-1.4c0-2.7,5.7-19.2,7.2-23.5h0.2L32,43.6s1.6,3.9,2.7,3.9S38.6,42,38.6,42s6.7-15,7.1-16h0.1l7.7,23a1.2,1.2,0,0,1-1.2,1.7H51.4a0.4,0.4,0,0,0-.4.4v1.2c0,0.2.1,0.3,0.4,0.3h4.1a1.3,1.3,0,0,0,.9-0.4,1.6,1.6,0,0,0,.5-0.7c0.2-.5,9-19.1,9.5-20.5h0.2l9,20.4a1.3,1.3,0,0,0,1.2,1.1c2.7,0,3.6-1.1,4.6-4.1S85.2,37.7,88.2,30,97,18,102.4,18Zm16.1,18.5H105.1c-0.2,0-.3.1-0.3,0.4V38a0.4,0.4,0,0,0,.4.4h2.1c1.3,0,1.8.5,1.8,2.3v3.6c0,2.6-.1,4-1.2,4.6s-3.6.8-6.8,0.8c-4.9,0-8.5-3.1-12.6-6.4-0.6-.5-1-0.3-1.1,0s-0.8,1.9-1,2.3a1.2,1.2,0,0,0,.3,1.4c3.4,3.8,9.3,5.4,14,5.4a28.8,28.8,0,0,0,14.1-3.3,0.9,0.9,0,0,0,.8-0.8c0-.4-0.2-0.9-0.2-1.6V40.3c0-1.4.6-1.8,1.5-1.8h1.7a0.3,0.3,0,0,0,.4-0.4V36.9C119,36.6,118.9,36.5,118.5,36.5Z"/></svg>