<svg xmlns="http://www.w3.org/2000/svg" width="4.8in" height="1in" viewBox="0 0 347.9 73.5"><defs><style>.a{fill:#001f5b;}</style></defs><title>MWG Dental</title><path class="a" d="M172.3,22.1a18.6,18.6,0,0,0-6.5-2.9,31.6,31.6,0,0,0-7.4-.9H145.6V53.8h13.2a25.8,25.8,0,0,0,7.2-1,19,19,0,0,0,6.4-3.2,16.2,16.2,0,0,0,4.5-5.5,17.4,17.4,0,0,0,1.7-8,18.2,18.2,0,0,0-1.7-8.4A14.8,14.8,0,0,0,172.3,22.1Zm-3.5,18.8a8.6,8.6,0,0,1-2.6,3.2,10.5,10.5,0,0,1-3.7,1.7,18.4,18.4,0,0,1-4.4.5h-4V25.7h4.3a18.2,18.2,0,0,1,4.3.5,10.4,10.4,0,0,1,3.7,1.7,8.4,8.4,0,0,1,2.6,3.1,11.2,11.2,0,0,1,1,5A11.2,11.2,0,0,1,168.8,40.9Z"/><polygon class="a" points="190.5 39.1 205.2 39.1 205.2 32.3 190.5 32.3 190.5 25.6 206.1 25.6 206.1 18.4 182.3 18.4 182.3 53.8 207 53.8 207 46.5 190.5 46.5 190.5 39.1"/><polygon class="a" points="235.7 41.5 235.6 41.5 221.4 18.4 211.6 18.4 211.6 53.8 219.9 53.8 219.7 30.6 219.9 30.6 234.1 53.8 243.8 53.8 243.8 18.4 235.5 18.4 235.7 41.5"/><polygon class="a" points="276.3 18.4 247.7 18.4 247.7 25.6 257.7 25.6 257.7 53.8 266.3 53.8 266.3 25.6 276.3 25.6 276.3 18.4"/><path class="a" d="M285.7,18.4L270.8,53.8h9.3l2.6-7h13.7l2.8,7h9.5L294,18.4h-8.3ZM285.2,40l4.5-12.2L294.1,40h-8.9Z"/><polygon class="a" points="320.2 18.4 311.6 18.4 311.6 53.8 333.9 53.8 333.9 46.3 320.2 46.3 320.2 18.4"/><path class="a" d="M336.9,0H11A11,11,0,0,0,0,11V62.5a11,11,0,0,0,11,11H336.9a11,11,0,0,0,11-11V11A11,11,0,0,0,336.9,0ZM77.8,53.5a1.3,1.3,0,0,1-1.2-1.1l-9-20.4H67.4c-0.4,1.4-9.3,20-9.5,20.5a1.6,1.6,0,0,1-.5.7,1.3,1.3,0,0,1-.9.4H52.3c-0.3,0-.4-0.1-0.4-0.3V52.2a0.4,0.4,0,0,1,.4-0.4h0.9A1.2,1.2,0,0,0,54.5,50L46.8,27H46.7c-0.4,1-7.1,16-7.1,16s-2.4,5.5-3.9,5.5S33,44.6,33,44.6L25.8,26.8H25.6c-1.5,4.4-7.2,20.8-7.2,23.5a1.5,1.5,0,0,0,1.7,1.4h1.3c0.3,0,.3.2,0.3,0.4v1.2a0.3,0.3,0,0,1-.4.4h-10a0.3,0.3,0,0,1-.3-0.2V52.2c0-.2,0-0.4.3-0.4h1a2.5,2.5,0,0,0,2.2-1.6c0.5-1.1,10.7-29,11.6-31.5a1.7,1.7,0,0,1,1.3-1.3A1.3,1.3,0,0,1,29,18.5l9,21h0.2c0.4-1.3,7.7-17.1,9.2-20.5a3.2,3.2,0,0,1,1-1.7h4.9c0.3,0,.4.1,0.4,0.3v1.2a0.4,0.4,0,0,1-.4.4H52.2A1.2,1.2,0,0,0,51,20.9l7.7,23h0.1c0.4-1,7.1-15.4,7.1-15.4s2.7-5.8,3.8-5.8,3.7,6.2,3.7,6.2l6.2,13.9,4.1-10.7c4.3-13.3,10.9-15.2,20-15.2,4.8,0,8.6,1.5,10.2,2.7s0.9,0.3,1.2-.1l0.6-.8a0.8,0.8,0,0,1,.7-0.5,0.6,0.6,0,0,1,.6.7l0.5,10c0,0.4,0,.6-0.2.7l-1.2.2c-0.3,0-.4-0.1-0.5-0.4a19.8,19.8,0,0,0-4-6.9,11.2,11.2,0,0,0-8.3-3.5C98,19,92.7,21.7,89.2,31S83,47.9,82.4,49.4,80.5,53.5,77.8,53.5ZM120,39.1a0.3,0.3,0,0,1-.4.4h-1.7c-0.9,0-1.5.4-1.5,1.8v6.6c0,0.7.2,1.2,0.2,1.6a0.9,0.9,0,0,1-.8.8,28.8,28.8,0,0,1-14.1,3.3c-4.7,0-10.6-1.6-14-5.4a1.2,1.2,0,0,1-.3-1.4c0.2-.4.8-2,1-2.3s0.5-.5,1.1,0c4.1,3.3,7.6,6.4,12.6,6.4,3.2,0,5.1.1,6.8-.8s1.2-2,1.2-4.6V41.8c0-1.8-.5-2.3-1.8-2.3h-2.1a0.4,0.4,0,0,1-.4-0.4V37.9c0-.3.1-0.4,0.3-0.4h13.4c0.4,0,.5.1,0.5,0.3v1.2ZM345.9,62.5a9,9,0,0,1-9,9H125.6A75.7,75.7,0,0,0,127,2H336.9a9,9,0,0,1,9,9V62.5Z"/></svg>