<svg xmlns="http://www.w3.org/2000/svg" width="5.1in" height="1.3in" viewBox="0 0 367.8 91.3"><defs><style>.a{fill:#fff;}.b{fill:none;stroke:#fff;stroke-miterlimit:10;stroke-width:2.14px;}</style></defs><title>MWG Administrators</title><path class="a" d="M113.5,35h3.8l9.1,21.9h-5.2l-1.8-4.6h-8.2l-1.7,4.6h-5.1Zm1.8,6.4-2.6,6.8h5.1Z"/><path class="a" d="M128.6,35h6.9a19.1,19.1,0,0,1,4.8.6,10.8,10.8,0,0,1,4,1.9,9.2,9.2,0,0,1,2.7,3.4,11.9,11.9,0,0,1,1,5.1,10.8,10.8,0,0,1-1,4.7,10,10,0,0,1-2.6,3.4,11.3,11.3,0,0,1-3.8,2.1,14.1,14.1,0,0,1-4.5.7h-7.6V35Zm4.6,17.4h2.4a12.4,12.4,0,0,0,3-.3,6.3,6.3,0,0,0,2.4-1.1,5.4,5.4,0,0,0,1.6-2.1,7.6,7.6,0,0,0,.6-3.1,6.3,6.3,0,0,0-.6-2.8,5.5,5.5,0,0,0-1.6-2,6.7,6.7,0,0,0-2.3-1.2,9.8,9.8,0,0,0-2.8-.4h-2.7v13Z"/><path class="a" d="M151.1,35h7l4.8,14.3H163L167.9,35h7V56.9h-4.6V40.1h-0.1l-5.5,16.8h-3.5l-5.3-16.8h-0.1V56.9h-4.6V35Z"/><path class="a" d="M179,35h4.6V56.9H179V35Z"/><path class="a" d="M187.9,35h6.3l8.9,15.2h0.1V35h4.6V56.9h-6l-9.2-15.6h-0.1V56.9h-4.6V35Z"/><path class="a" d="M212,35h4.6V56.9H212V35Z"/><path class="a" d="M231.2,40.3a3.3,3.3,0,0,0-1.5-1.1,5.3,5.3,0,0,0-1.8-.4h-1l-1,.4a2.2,2.2,0,0,0-.8.7,1.8,1.8,0,0,0-.3,1,1.8,1.8,0,0,0,.7,1.5,6.6,6.6,0,0,0,1.8.9l2.3,0.7a9.4,9.4,0,0,1,2.3,1,5.6,5.6,0,0,1,1.8,1.8,5.7,5.7,0,0,1,.7,3.1,7.3,7.3,0,0,1-.7,3.2,6.4,6.4,0,0,1-1.8,2.3,7.4,7.4,0,0,1-2.6,1.3,11.4,11.4,0,0,1-6.9-.2,9.4,9.4,0,0,1-3.3-2.1l3.3-3.8a4.8,4.8,0,0,0,1.8,1.5,5,5,0,0,0,2.2.5h1.1l1-.4a2.3,2.3,0,0,0,.7-0.7,1.8,1.8,0,0,0,.3-1,1.9,1.9,0,0,0-.7-1.6,6.6,6.6,0,0,0-1.8-1l-2.4-.8a10.4,10.4,0,0,1-2.4-1.1,5.8,5.8,0,0,1-1.8-1.8,5.3,5.3,0,0,1-.7-2.9,6.8,6.8,0,0,1,.7-3.1,6.7,6.7,0,0,1,1.8-2.2,7.6,7.6,0,0,1,2.6-1.3,10.1,10.1,0,0,1,3-.4,11.3,11.3,0,0,1,3.4.5,7.8,7.8,0,0,1,3,1.8Z"/><path class="a" d="M241.9,39.3h-6V35h16.6v4.3h-6V56.9h-4.6V39.3Z"/><path class="a" d="M254.9,35H263a13.8,13.8,0,0,1,3,.3,7.1,7.1,0,0,1,2.5,1.1,5.3,5.3,0,0,1,1.7,2,7.1,7.1,0,0,1,.6,3.2,6.6,6.6,0,0,1-1.2,3.9,5.2,5.2,0,0,1-3.4,2.1l5.3,9.2h-5.5l-4.4-8.7h-2.3v8.7h-4.6V35Zm4.6,9.1h4l1.3-.3a2.2,2.2,0,0,0,.9-0.7,2.3,2.3,0,0,0,.4-1.4,2.4,2.4,0,0,0-.3-1.3,2.2,2.2,0,0,0-.8-0.8l-1.2-.4h-4.3v5Z"/><path class="a" d="M281,35h3.8L294,56.9h-5.2l-1.8-4.6h-8.2L277,56.9h-5.1Zm1.8,6.4-2.6,6.8h5.1Z"/><path class="a" d="M297.4,39.3h-6V35H308v4.3h-6V56.9h-4.6V39.3Z"/><path class="a" d="M309.2,45.9a12.8,12.8,0,0,1,.8-4.8,10.5,10.5,0,0,1,2.4-3.6,10.3,10.3,0,0,1,3.6-2.3,13.2,13.2,0,0,1,9.1,0,10.3,10.3,0,0,1,3.6,2.3,10.5,10.5,0,0,1,2.4,3.6,13.8,13.8,0,0,1,0,9.5,10.4,10.4,0,0,1-2.4,3.6,10.3,10.3,0,0,1-3.6,2.3,13.2,13.2,0,0,1-9.1,0,10.3,10.3,0,0,1-3.6-2.3,10.4,10.4,0,0,1-2.4-3.6A12.8,12.8,0,0,1,309.2,45.9Zm4.8,0a8.3,8.3,0,0,0,.5,2.8,6.5,6.5,0,0,0,1.3,2.2,6,6,0,0,0,2.1,1.5,7.1,7.1,0,0,0,5.4,0,6,6,0,0,0,2.1-1.5,6.5,6.5,0,0,0,1.3-2.2,8.9,8.9,0,0,0,0-5.6,6.5,6.5,0,0,0-1.3-2.2,6,6,0,0,0-2.1-1.5,7.1,7.1,0,0,0-5.4,0,6,6,0,0,0-2.1,1.5,6.5,6.5,0,0,0-1.3,2.2A8.4,8.4,0,0,0,314,45.9Z"/><path class="a" d="M335,35h8.1a13.8,13.8,0,0,1,3,.3,7.1,7.1,0,0,1,2.5,1.1,5.3,5.3,0,0,1,1.7,2,7.2,7.2,0,0,1,.6,3.2,6.6,6.6,0,0,1-1.2,3.9,5.2,5.2,0,0,1-3.4,2.1l5.3,9.2h-5.5l-4.4-8.7h-2.3v8.7H335V35Zm4.6,9.1h4l1.3-.3a2.2,2.2,0,0,0,.9-0.7,2.3,2.3,0,0,0,.4-1.4,2.4,2.4,0,0,0-.3-1.3,2.2,2.2,0,0,0-.8-0.8l-1.2-.4h-4.3v5Z"/><path class="a" d="M364.6,40.3a3.3,3.3,0,0,0-1.5-1.1,5.3,5.3,0,0,0-1.8-.4h-1l-1,.4a2.2,2.2,0,0,0-.8.7,1.8,1.8,0,0,0-.3,1,1.8,1.8,0,0,0,.7,1.5,6.6,6.6,0,0,0,1.8.9l2.3,0.7a9.4,9.4,0,0,1,2.3,1,5.6,5.6,0,0,1,1.8,1.8,5.7,5.7,0,0,1,.7,3.1,7.3,7.3,0,0,1-.7,3.2,6.4,6.4,0,0,1-1.8,2.3,7.4,7.4,0,0,1-2.6,1.3,11.4,11.4,0,0,1-6.9-.2,9.4,9.4,0,0,1-3.3-2.1l3.3-3.8a4.9,4.9,0,0,0,1.8,1.5,5,5,0,0,0,2.2.5h1.1l1-.4a2.3,2.3,0,0,0,.7-0.7,1.8,1.8,0,0,0,.3-1,1.9,1.9,0,0,0-.7-1.6,6.6,6.6,0,0,0-1.8-1l-2.4-.8a10.4,10.4,0,0,1-2.4-1.1,5.8,5.8,0,0,1-1.8-1.8,5.3,5.3,0,0,1-.7-2.9,6.8,6.8,0,0,1,.7-3.1,6.7,6.7,0,0,1,1.8-2.2,7.6,7.6,0,0,1,2.6-1.3,10.1,10.1,0,0,1,3-.4,11.3,11.3,0,0,1,3.4.5,7.8,7.8,0,0,1,3,1.8Z"/><path class="a" d="M105.5,76.7h-1l5.6-8.7H111l1.8,8.7h-0.9l-0.5-2.3h-4.5Zm1.9-3.1h3.8l-0.9-4.6Z"/><path class="a" d="M116.7,74.3a3.8,3.8,0,0,1,.3-1.4,3.4,3.4,0,0,1,1.8-1.9,3.2,3.2,0,0,1,1.4-.3,2.5,2.5,0,0,1,1.2.3,1.9,1.9,0,0,1,.8.8h0l0.8-4.5h0.8l-1.7,9.3h-0.8l0.2-1h0a2.4,2.4,0,0,1-.9.8,2.5,2.5,0,0,1-1.3.3l-1.1-.2-0.8-.5a2.3,2.3,0,0,1-.5-0.8A2.7,2.7,0,0,1,116.7,74.3Zm0.9-.1a2.2,2.2,0,0,0,.1.7l0.4,0.6,0.6,0.4h0.8l1-.2,0.8-.6a3,3,0,0,0,.5-0.9,3,3,0,0,0,.2-1.1,2.1,2.1,0,0,0-.1-0.7l-0.4-.6-0.6-.4h-0.8l-1,.2-0.8.6a2.7,2.7,0,0,0-.5.9A3.3,3.3,0,0,0,117.5,74.3Z"/><path class="a" d="M125.1,76.7h-0.8l1-5.8h0.8Zm1.5-8a0.6,0.6,0,0,1-.2.4l-0.4.2h-0.4a0.5,0.5,0,0,1-.2-0.4,0.6,0.6,0,0,1,.2-0.4l0.4-.2,0.4,0.2A0.5,0.5,0,0,1,126.6,68.7Z"/><path class="a" d="M129.2,76.7h-0.9l-1.2-5.8H128l0.9,4.9h0l2.9-4.9h0.9Z"/><path class="a" d="M133.7,76.7h-0.8l1-5.8h0.8Zm1.5-8a0.6,0.6,0,0,1-.2.4l-0.4.2h-0.4a0.5,0.5,0,0,1-.2-0.4,0.6,0.6,0,0,1,.2-0.4l0.4-.2,0.4,0.2A0.5,0.5,0,0,1,135.3,68.7Z"/><path class="a" d="M139.8,72.2l-0.5-.5-0.8-.2h-0.5l-0.4.2-0.3.3a0.7,0.7,0,0,0-.1.4,0.8,0.8,0,0,0,.1.4l0.2,0.3,0.4,0.2,0.5,0.2a3.5,3.5,0,0,1,1.3.6,1.3,1.3,0,0,1,.4,1.1,1.5,1.5,0,0,1-.2.8l-0.5.6-0.7.3h-0.8l-1.4-.3a2.1,2.1,0,0,1-1-.8l0.7-.5a1.8,1.8,0,0,0,.6.6l1,0.3h0.5l0.5-.2,0.3-.3a0.8,0.8,0,0,0,.1-0.5,0.8,0.8,0,0,0-.4-0.7l-1-.5-0.5-.2-0.5-.3-0.3-.4a1.3,1.3,0,0,1-.1-0.6,1.4,1.4,0,0,1,.2-0.8l0.5-.5,0.7-.3h0.8l1.2,0.3a1.7,1.7,0,0,1,.8.7Z"/><path class="a" d="M142,76.7h-0.8l1-5.8H143Zm1.5-8a0.6,0.6,0,0,1-.2.4l-0.4.2h-0.4a0.5,0.5,0,0,1-.2-0.4,0.6,0.6,0,0,1,.2-0.4l0.4-.2,0.4,0.2A0.5,0.5,0,0,1,143.5,68.7Z"/><path class="a" d="M146.7,76.8l-1.1-.2-0.8-.5a2.3,2.3,0,0,1-.5-0.8,2.6,2.6,0,0,1-.2-1,3.8,3.8,0,0,1,.3-1.4,3.5,3.5,0,0,1,.7-1.1,3.4,3.4,0,0,1,1.1-.8,3.3,3.3,0,0,1,1.4-.3l1.1,0.2,0.8,0.5a2.4,2.4,0,0,1,.5.8,2.5,2.5,0,0,1,.2,1,3.8,3.8,0,0,1-.3,1.4,3.4,3.4,0,0,1-1.8,1.9A3.3,3.3,0,0,1,146.7,76.8Zm2.6-3.5a2.2,2.2,0,0,0-.1-0.7l-0.4-.6-0.6-.4h-0.8l-1,.2-0.8.6a3,3,0,0,0-.5.9,3.1,3.1,0,0,0-.2,1.1,2.1,2.1,0,0,0,.1.7l0.4,0.6L146,76h0.8l1-.2,0.8-.6a2.8,2.8,0,0,0,.5-0.9A3.2,3.2,0,0,0,149.3,73.3Z"/><path class="a" d="M153.1,70.9v1h0a2.4,2.4,0,0,1,.9-0.8,2.2,2.2,0,0,1,1.1-.3,2.1,2.1,0,0,1,1.5.5,1.7,1.7,0,0,1,.5,1.3v0.6l-0.6,3.5h-0.8l0.6-3.2a3.8,3.8,0,0,0,.1-0.7,1.5,1.5,0,0,0-.3-1,1.2,1.2,0,0,0-1-.4h-0.7l-0.6.4-0.5.7a3.4,3.4,0,0,0-.3,1l-0.5,3h-0.8l0.8-4.5V70.9h0.8Z"/><path class="a" d="M163.8,76.8l-1.1-.2-0.8-.5a2.3,2.3,0,0,1-.5-0.8,2.6,2.6,0,0,1-.2-1,3.8,3.8,0,0,1,.3-1.4,3.5,3.5,0,0,1,.7-1.1,3.4,3.4,0,0,1,1.1-.8,3.3,3.3,0,0,1,1.4-.3l1.1,0.2,0.8,0.5a2.4,2.4,0,0,1,.5.8,2.5,2.5,0,0,1,.2,1,3.8,3.8,0,0,1-.3,1.4,3.4,3.4,0,0,1-1.8,1.9A3.3,3.3,0,0,1,163.8,76.8Zm2.6-3.5a2.2,2.2,0,0,0-.1-0.7l-0.4-.6-0.6-.4h-0.8l-1,.2-0.8.6a3,3,0,0,0-.5.9,3.1,3.1,0,0,0-.2,1.1,2.1,2.1,0,0,0,.1.7l0.4,0.6,0.6,0.4h0.8l1-.2,0.8-.6a2.8,2.8,0,0,0,.5-0.9A3.2,3.2,0,0,0,166.4,73.3Z"/><path class="a" d="M171.7,71.6h-1.4l-0.9,5.1h-0.8l0.9-5.1h-1.2V70.9h1.2l0.3-1.6a3.8,3.8,0,0,1,.2-0.8l0.4-.7,0.6-.5,0.9-.2h0.7l-0.2.7h-1.1l-0.4.3-0.2.5v0.6l-0.3,1.5h1.4v0.7Z"/><path class="a" d="M179.7,75.2h0l4.2-7.2h1.3l-1.5,8.7h-0.9l1.3-7.6h0l-4.5,7.6h-0.5l-1.8-7.6h0L176,76.7h-0.9l1.5-8.7H178Z"/><path class="a" d="M188.5,76.8l-1.1-.2-0.8-.5a2.3,2.3,0,0,1-.5-0.8,2.6,2.6,0,0,1-.2-1,3.8,3.8,0,0,1,.3-1.4,3.5,3.5,0,0,1,.7-1.1,3.4,3.4,0,0,1,1.1-.8,3.3,3.3,0,0,1,1.4-.3l1.1,0.2,0.8,0.5a2.4,2.4,0,0,1,.5.8,2.5,2.5,0,0,1,.2,1,3.8,3.8,0,0,1-.3,1.4,3.4,3.4,0,0,1-1.8,1.9A3.3,3.3,0,0,1,188.5,76.8Zm2.6-3.5a2.2,2.2,0,0,0-.1-0.7l-0.4-.6-0.6-.4h-0.8l-1,.2-0.8.6a3,3,0,0,0-.5.9,3.1,3.1,0,0,0-.2,1.1,2.1,2.1,0,0,0,.1.7l0.4,0.6,0.6,0.4h0.8l1-.2,0.8-.6a2.8,2.8,0,0,0,.5-0.9A3.2,3.2,0,0,0,191.1,73.3Z"/><path class="a" d="M194,71.6V70.9h0.8v1h0a2.6,2.6,0,0,1,.8-0.8,2,2,0,0,1,1.1-.3h0.5l-0.2.8h-1.2l-0.6.4-0.5.7a3.6,3.6,0,0,0-.3,1l-0.5,3h-0.8l0.8-4.5V71.6Z"/><path class="a" d="M197.1,77.9a2.3,2.3,0,0,0,.9.7,2.6,2.6,0,0,0,1.2.3l1.1-.2,0.7-.5,0.5-.7a4.3,4.3,0,0,0,.3-0.9l0.2-1.1h0a2.7,2.7,0,0,1-1,.9,2.6,2.6,0,0,1-1.2.3l-1.1-.2-0.8-.5a2.4,2.4,0,0,1-.5-0.8,2.7,2.7,0,0,1-.2-1,3.5,3.5,0,0,1,.3-1.3,3.4,3.4,0,0,1,.7-1.1,3.3,3.3,0,0,1,1.1-.7l1.3-.3h0.6l0.6,0.2,0.5,0.4,0.3,0.5h0l0.2-1h0.8l-1,5.7-0.3,1a3,3,0,0,1-.5,1,2.8,2.8,0,0,1-1,.7,3.6,3.6,0,0,1-1.6.3,3.7,3.7,0,0,1-1.5-.3,2.8,2.8,0,0,1-1.1-.9Zm0.9-3.7a2,2,0,0,0,.1.7l0.4,0.6,0.6,0.4h0.8l1-.2,0.8-.6a2.7,2.7,0,0,0,.5-0.9,2.9,2.9,0,0,0,.2-1,2,2,0,0,0-.1-0.7l-0.4-.6-0.6-.4h-0.8l-1,.2-0.8.5a2.5,2.5,0,0,0-.5.9A3.2,3.2,0,0,0,198,74.2Z"/><path class="a" d="M209,73.1V72.6a1,1,0,0,0-.4-0.9,1.7,1.7,0,0,0-1-.3l-1,.2-0.8.5-0.4-.6,1-.6,1.2-.2h0.8l0.7,0.3,0.4,0.5a1.6,1.6,0,0,1,.2.8V73l-0.4,2.3v0.7a6,6,0,0,0,0,.6h-0.7c0-.1,0-0.3,0-0.5V75.8h0l-0.5.5-0.5.3-0.6.2h-1.3l-0.6-.3-0.4-.5a1.4,1.4,0,0,1-.2-0.7,1.6,1.6,0,0,1,.4-1.1,2.6,2.6,0,0,1,1-.7l1.4-.3H209Zm-0.3.6h-1.1l-1.1.2-0.8.4a1,1,0,0,0-.3.7,0.9,0.9,0,0,0,.1.5l0.3,0.3h1.6l0.7-.4,0.5-.6a2.5,2.5,0,0,0,.3-0.7V73.8h-0.2Z"/><path class="a" d="M212.9,70.9v1h0a2.4,2.4,0,0,1,.9-0.8,2.2,2.2,0,0,1,1.1-.3,2.1,2.1,0,0,1,1.5.5,1.7,1.7,0,0,1,.5,1.3v0.6L216,76.7h-0.8l0.6-3.2a3.8,3.8,0,0,0,.1-0.7,1.5,1.5,0,0,0-.3-1,1.2,1.2,0,0,0-1-.4h-0.7l-0.6.4-0.5.7a3.4,3.4,0,0,0-.3,1l-0.5,3h-0.8l0.8-4.5V70.9h0.8Z"/><path class="a" d="M223.1,75.5h0l3.6-7.5h1.1l0.7,7.5h0l3.6-7.5h0.9l-4.3,8.7h-1l-0.7-7.5h0l-3.7,7.5h-1l-0.9-8.7h0.9Z"/><path class="a" d="M236.2,70.8a2.1,2.1,0,0,1,1.5.5,1.6,1.6,0,0,1,.5,1.3v0.6l-0.6,3.5h-0.8l0.6-3.2a3.8,3.8,0,0,0,.1-0.7,1.5,1.5,0,0,0-.3-1,1.3,1.3,0,0,0-1-.4h-0.7l-0.6.4-0.5.7a3.5,3.5,0,0,0-.3,1l-0.5,3h-0.8l1.6-9.3H235l-0.8,4.5h0a2.4,2.4,0,0,1,.8-0.8A2.2,2.2,0,0,1,236.2,70.8Z"/><path class="a" d="M240.4,76.7h-0.8l1-5.8h0.8Zm1.5-8a0.6,0.6,0,0,1-.2.4l-0.4.2h-0.4a0.5,0.5,0,0,1-.2-0.4,0.6,0.6,0,0,1,.2-0.4l0.4-.2,0.4,0.2A0.5,0.5,0,0,1,241.9,68.7Z"/><path class="a" d="M245.7,71.6h-1.6L243.6,75a2.4,2.4,0,0,0,0,.4,0.6,0.6,0,0,0,.2.5H245v0.7h-1.4l-0.4-.2-0.3-.4a1.2,1.2,0,0,1-.1-0.6,2.5,2.5,0,0,1,0-.4l0.6-3.6h-1.2V70.9h1.2l0.3-1.6h0.8l-0.3,1.6h1.6v0.7Z"/><path class="a" d="M246.9,74h0a1.9,1.9,0,0,0,.1.7l0.4,0.6L248,76h0.7a2.3,2.3,0,0,0,1.2-.3l0.8-.7,0.5,0.5a3.3,3.3,0,0,1-1.2.9,3.4,3.4,0,0,1-1.4.3l-1-.2-0.8-.5a2.3,2.3,0,0,1-.6-0.8,2.7,2.7,0,0,1-.2-1.1,3.6,3.6,0,0,1,.3-1.3,3.6,3.6,0,0,1,.7-1.1,3.5,3.5,0,0,1,1.1-.8,3,3,0,0,1,1.3-.3,2.4,2.4,0,0,1,1.8.6,2.2,2.2,0,0,1,.6,1.6v1h-4.8Zm4-.6V73a1.5,1.5,0,0,0-.4-1.1,1.6,1.6,0,0,0-1.2-.4l-0.8.2-0.7.4-0.5.6a2.5,2.5,0,0,0-.3.7H251Z"/><path class="a" d="M260.1,76.1l1.4-.2,1.1-.4,0.5-2.7H261V72.1H264l-0.7,3.9-1.6.7-1.7.2-1.6-.3a3.6,3.6,0,0,1-1.2-.8,3.4,3.4,0,0,1-.8-1.2,4,4,0,0,1-.3-1.5,5.5,5.5,0,0,1,.4-2.1,5.4,5.4,0,0,1,1.1-1.7,5.3,5.3,0,0,1,1.7-1.2,4.9,4.9,0,0,1,2-.4h0.9l0.8,0.3,0.7,0.4,0.5,0.6-0.8.5-0.3-.4-0.5-.4-0.6-.3h-0.8a3.8,3.8,0,0,0-1.7.4,4.4,4.4,0,0,0-1.3,1,4.8,4.8,0,0,0-1.2,3.2,3.6,3.6,0,0,0,.2,1.2,2.7,2.7,0,0,0,.6,1l1,0.7Z"/><path class="a" d="M266.1,71.6V70.9H267v1h0a2.6,2.6,0,0,1,.8-0.8,2,2,0,0,1,1.1-.3h0.5l-0.2.8h-1.2l-0.6.4-0.5.7a3.6,3.6,0,0,0-.3,1l-0.5,3h-0.8l0.8-4.5V71.6Z"/><path class="a" d="M271.8,76.8l-1.1-.2-0.8-.5a2.3,2.3,0,0,1-.5-0.8,2.6,2.6,0,0,1-.2-1,3.8,3.8,0,0,1,.3-1.4,3.5,3.5,0,0,1,.7-1.1,3.4,3.4,0,0,1,1.1-.8,3.3,3.3,0,0,1,1.4-.3l1.1,0.2,0.8,0.5a2.4,2.4,0,0,1,.5.8,2.5,2.5,0,0,1,.2,1,3.8,3.8,0,0,1-.3,1.4,3.4,3.4,0,0,1-1.8,1.9A3.3,3.3,0,0,1,271.8,76.8Zm2.6-3.5a2.2,2.2,0,0,0-.1-0.7l-0.4-.6-0.6-.4h-0.8l-1,.2-0.8.6a3,3,0,0,0-.5.9,3.1,3.1,0,0,0-.2,1.1,2.1,2.1,0,0,0,.1.7l0.4,0.6,0.6,0.4h0.8l1-.2,0.8-.6a2.8,2.8,0,0,0,.5-0.9A3.2,3.2,0,0,0,274.4,73.3Z"/><path class="a" d="M280.4,76.7v-1h0a2.4,2.4,0,0,1-.9.8,2.2,2.2,0,0,1-1.1.3,2.1,2.1,0,0,1-1.5-.5,1.6,1.6,0,0,1-.5-1.3V74.5l0.6-3.5h0.8l-0.6,3.2a4,4,0,0,0-.1.7,1.5,1.5,0,0,0,.3,1,1.2,1.2,0,0,0,1,.3h0.7l0.6-.4,0.5-.7a3.4,3.4,0,0,0,.3-1l0.5-3h0.8l-0.8,4.5v1.3h-0.8Z"/><path class="a" d="M285.1,71.8l0.4-.4,0.5-.3,0.6-.2h0.7l1.1,0.2,0.8,0.5a2.3,2.3,0,0,1,.5.8,2.7,2.7,0,0,1,.2,1,3.8,3.8,0,0,1-.3,1.4,3.6,3.6,0,0,1-.7,1.1,3.4,3.4,0,0,1-1.1.8,3.2,3.2,0,0,1-1.4.3,2.5,2.5,0,0,1-1.2-.3,1.9,1.9,0,0,1-.8-0.8h0l-0.7,3.9h-0.8l1.6-8.7h0.8l-0.2.9h0Zm3.9,1.5a2.2,2.2,0,0,0-.1-0.7l-0.4-.6-0.6-.4h-0.8l-1,.2-0.8.6a2.9,2.9,0,0,0-.5.9,3,3,0,0,0-.2,1.1,2.1,2.1,0,0,0,.1.7l0.4,0.6,0.6,0.4h0.8l1-.2,0.8-.6a2.7,2.7,0,0,0,.5-0.9A3.3,3.3,0,0,0,289,73.3Z"/><circle class="b" cx="45.7" cy="45.7" r="44.6"/><path class="a" d="M72.5,33.7a8.3,8.3,0,0,1,6.1,2.6,14.5,14.5,0,0,1,2.9,5c0.1,0.2.1,0.3,0.4,0.3h0.9c0.1,0,.1-0.2.1-0.5l-0.4-7.3a0.4,0.4,0,0,0-.4-0.5,0.6,0.6,0,0,0-.5.4l-0.4.6c-0.2.3-.4,0.4-0.9,0.1a13.5,13.5,0,0,0-7.5-2c-6.7,0-11.6,1.4-14.7,11.2l-3,7.8L50.6,40.9s-1.9-4.6-2.7-4.6S45,40.6,45,40.6,40.1,51.2,39.8,52H39.7L34,35a0.9,0.9,0,0,1,.9-1.3h0.7a0.3,0.3,0,0,0,.3-0.3V32.5c0-.2-0.1-0.3-0.3-0.3H32.1a2.3,2.3,0,0,0-.7,1.2c-1.1,2.5-6.4,14.1-6.7,15H24.5L17.9,33.3a1,1,0,0,0-.9-0.8,1.3,1.3,0,0,0-.9,1c-0.7,1.8-8.2,22.3-8.6,23.1a1.8,1.8,0,0,1-1.6,1.2H2.9c-0.2,0-.3.1-0.3,0.3v1a0.2,0.2,0,0,0,.2.2h9.5a0.3,0.3,0,0,0,.3-0.3V58c0-.2,0-0.3-0.3-0.3h-1a1.1,1.1,0,0,1-1.2-1c0-2,4.2-14.1,5.3-17.3h0.1l5.3,13.1s1.2,2.9,2,2.9,2.9-4,2.9-4,4.9-11,5.2-11.8h0.1l5.7,16.9a0.9,0.9,0,0,1-.9,1.3H35.1a0.3,0.3,0,0,0-.3.3v0.9c0,0.2.1,0.3,0.3,0.3h3a1,1,0,0,0,.7-0.3l0.4-.5c0.1-.4,6.6-14,6.9-15.1h0.1l6.6,14.9a1,1,0,0,0,.9.8c2,0,2.6-.8,3.4-3s2.8-7.9,4.9-13.6S68.6,33.7,72.5,33.7ZM90,47.2H74.5c-0.1,0-.2.1-0.2,0.3v0.8a0.3,0.3,0,0,0,.3.3h1.5c1,0,1.3.4,1.3,1.7v2.7c0,1.9-.1,2.9-0.9,3.4s-2.6.6-5,.6-6.2-2.3-9.2-4.7c-0.5-.4-0.7-0.2-0.8,0L60.8,54a0.9,0.9,0,0,0,.2,1.1c2.5,2.8,6.8,4,10.3,4a21.2,21.2,0,0,0,10.4-2.4,0.7,0.7,0,0,0,.6-0.6c0-.3-0.1-0.7-0.1-1.2V50.1c0-1.1.4-1.4,1.1-1.4h6.9a0.2,0.2,0,0,0,.3-0.3V47.5C90.4,47.3,90.3,47.2,90,47.2Z"/></svg>