<svg xmlns="http://www.w3.org/2000/svg" width="5.2in" height="1.4in" viewBox="0 0 371.3 98.3"><defs><style>.a{fill:#001f5b;}.b{fill:#808285;}.c{fill:#fff;}.d{fill:#9e9e9e;}</style></defs><title>MWG Administrators</title><path class="a" d="M117,38.4h3.8L130,60.3h-5.2l-1.8-4.6h-8.2L113,60.3h-5.1Zm1.8,6.4-2.6,6.8h5.1Z"/><path class="a" d="M132.1,38.4H139a19.1,19.1,0,0,1,4.8.6,10.8,10.8,0,0,1,4,1.9,9.2,9.2,0,0,1,2.7,3.4,11.9,11.9,0,0,1,1,5.1,10.8,10.8,0,0,1-1,4.7,10,10,0,0,1-2.6,3.4,11.3,11.3,0,0,1-3.8,2.1,14.1,14.1,0,0,1-4.5.7h-7.6V38.4Zm4.6,17.4h2.4a12.4,12.4,0,0,0,3-.3,6.3,6.3,0,0,0,2.4-1.1,5.4,5.4,0,0,0,1.6-2.1,7.6,7.6,0,0,0,.6-3.1,6.3,6.3,0,0,0-.6-2.8,5.5,5.5,0,0,0-1.6-2,6.7,6.7,0,0,0-2.3-1.2,9.8,9.8,0,0,0-2.8-.4h-2.7v13Z"/><path class="a" d="M154.6,38.4h7l4.8,14.3h0.1l4.9-14.3h7V60.3h-4.6V43.5h-0.1l-5.5,16.8h-3.5l-5.3-16.8h-0.1V60.3h-4.6V38.4Z"/><path class="a" d="M182.5,38.4h4.6V60.3h-4.6V38.4Z"/><path class="a" d="M191.3,38.4h6.3l8.9,15.2h0.1V38.4h4.6V60.3h-6L196,44.7H196V60.3h-4.6V38.4Z"/><path class="a" d="M215.4,38.4h4.6V60.3h-4.6V38.4Z"/><path class="a" d="M234.7,43.8a3.3,3.3,0,0,0-1.5-1.1,5.3,5.3,0,0,0-1.8-.4h-1l-1,.4a2.2,2.2,0,0,0-.8.7,1.8,1.8,0,0,0-.3,1,1.8,1.8,0,0,0,.7,1.5,6.6,6.6,0,0,0,1.8.9l2.3,0.7a9.4,9.4,0,0,1,2.3,1,5.6,5.6,0,0,1,1.8,1.8,5.7,5.7,0,0,1,.7,3.1,7.3,7.3,0,0,1-.7,3.2,6.4,6.4,0,0,1-1.8,2.3,7.4,7.4,0,0,1-2.6,1.3,11.4,11.4,0,0,1-6.9-.2,9.4,9.4,0,0,1-3.3-2.1l3.3-3.8a4.8,4.8,0,0,0,1.8,1.5,5,5,0,0,0,2.2.5h1.1l1-.4a2.3,2.3,0,0,0,.7-0.7,1.8,1.8,0,0,0,.3-1,1.9,1.9,0,0,0-.7-1.6,6.6,6.6,0,0,0-1.8-1l-2.4-.8a10.4,10.4,0,0,1-2.4-1.1,5.8,5.8,0,0,1-1.8-1.8,5.3,5.3,0,0,1-.7-2.9,6.8,6.8,0,0,1,.7-3.1,6.7,6.7,0,0,1,1.8-2.2,7.6,7.6,0,0,1,2.6-1.3,10.1,10.1,0,0,1,3-.4,11.3,11.3,0,0,1,3.4.5,7.8,7.8,0,0,1,3,1.8Z"/><path class="a" d="M245.4,42.7h-6V38.4H256v4.3h-6V60.3h-4.6V42.7Z"/><path class="a" d="M258.3,38.4h8.1a13.8,13.8,0,0,1,3,.3,7.1,7.1,0,0,1,2.5,1.1,5.3,5.3,0,0,1,1.7,2,7.1,7.1,0,0,1,.6,3.2,6.6,6.6,0,0,1-1.2,3.9,5.2,5.2,0,0,1-3.4,2.1l5.3,9.2h-5.5l-4.4-8.7H263v8.7h-4.6V38.4Zm4.6,9.1h4l1.3-.3a2.2,2.2,0,0,0,.9-0.7,2.3,2.3,0,0,0,.4-1.4,2.4,2.4,0,0,0-.3-1.3,2.2,2.2,0,0,0-.8-0.8l-1.2-.4H263v5Z"/><path class="a" d="M284.5,38.4h3.8l9.1,21.9h-5.2l-1.8-4.6h-8.2l-1.7,4.6h-5.1Zm1.8,6.4-2.6,6.8h5.1Z"/><path class="a" d="M300.9,42.7h-6V38.4h16.6v4.3h-6V60.3h-4.6V42.7Z"/><path class="a" d="M312.7,49.4a12.8,12.8,0,0,1,.8-4.8,10.5,10.5,0,0,1,2.4-3.6,10.3,10.3,0,0,1,3.6-2.3,13.2,13.2,0,0,1,9.1,0,10.3,10.3,0,0,1,3.6,2.3,10.5,10.5,0,0,1,2.4,3.6,13.8,13.8,0,0,1,0,9.5,10.4,10.4,0,0,1-2.4,3.6,10.3,10.3,0,0,1-3.6,2.3,13.2,13.2,0,0,1-9.1,0,10.3,10.3,0,0,1-3.6-2.3,10.4,10.4,0,0,1-2.4-3.6A12.8,12.8,0,0,1,312.7,49.4Zm4.8,0a8.3,8.3,0,0,0,.5,2.8,6.5,6.5,0,0,0,1.3,2.2,6,6,0,0,0,2.1,1.5,7.1,7.1,0,0,0,5.4,0,6,6,0,0,0,2.1-1.5,6.5,6.5,0,0,0,1.3-2.2,8.9,8.9,0,0,0,0-5.6,6.5,6.5,0,0,0-1.3-2.2,6,6,0,0,0-2.1-1.5,7.1,7.1,0,0,0-5.4,0,6,6,0,0,0-2.1,1.5,6.5,6.5,0,0,0-1.3,2.2A8.4,8.4,0,0,0,317.5,49.4Z"/><path class="a" d="M338.5,38.4h8.1a13.8,13.8,0,0,1,3,.3,7.1,7.1,0,0,1,2.5,1.1,5.3,5.3,0,0,1,1.7,2,7.2,7.2,0,0,1,.6,3.2,6.6,6.6,0,0,1-1.2,3.9,5.2,5.2,0,0,1-3.4,2.1l5.3,9.2h-5.5l-4.4-8.7h-2.3v8.7h-4.6V38.4Zm4.6,9.1h4l1.3-.3a2.2,2.2,0,0,0,.9-0.7,2.3,2.3,0,0,0,.4-1.4,2.4,2.4,0,0,0-.3-1.3,2.2,2.2,0,0,0-.8-0.8l-1.2-.4h-4.3v5Z"/><path class="a" d="M368.1,43.8a3.3,3.3,0,0,0-1.5-1.1,5.3,5.3,0,0,0-1.8-.4h-1l-1,.4a2.2,2.2,0,0,0-.8.7,1.8,1.8,0,0,0-.3,1,1.8,1.8,0,0,0,.7,1.5,6.6,6.6,0,0,0,1.8.9l2.3,0.7a9.4,9.4,0,0,1,2.3,1,5.6,5.6,0,0,1,1.8,1.8,5.7,5.7,0,0,1,.7,3.1,7.3,7.3,0,0,1-.7,3.2,6.4,6.4,0,0,1-1.8,2.3,7.4,7.4,0,0,1-2.6,1.3,11.4,11.4,0,0,1-6.9-.2,9.4,9.4,0,0,1-3.3-2.1l3.3-3.8a4.9,4.9,0,0,0,1.8,1.5,5,5,0,0,0,2.2.5h1.1l1-.4a2.3,2.3,0,0,0,.7-0.7,1.8,1.8,0,0,0,.3-1,1.9,1.9,0,0,0-.7-1.6,6.6,6.6,0,0,0-1.8-1l-2.4-.8a10.4,10.4,0,0,1-2.4-1.1,5.8,5.8,0,0,1-1.8-1.8,5.3,5.3,0,0,1-.7-2.9,6.8,6.8,0,0,1,.7-3.1,6.7,6.7,0,0,1,1.8-2.2,7.6,7.6,0,0,1,2.6-1.3,10.1,10.1,0,0,1,3-.4,11.3,11.3,0,0,1,3.4.5,7.8,7.8,0,0,1,3,1.8Z"/><path class="b" d="M109,80.1h-1l5.6-8.7h0.9l1.8,8.7h-0.9l-0.5-2.3h-4.5Zm1.9-3.1h3.8l-0.9-4.6Z"/><path class="b" d="M120.1,77.8a3.8,3.8,0,0,1,.3-1.4,3.4,3.4,0,0,1,1.8-1.9,3.2,3.2,0,0,1,1.4-.3,2.5,2.5,0,0,1,1.2.3,1.9,1.9,0,0,1,.8.8h0l0.8-4.5h0.8l-1.7,9.3h-0.8l0.2-1h0a2.4,2.4,0,0,1-.9.8,2.5,2.5,0,0,1-1.3.3l-1.1-.2-0.8-.5a2.3,2.3,0,0,1-.5-0.8A2.7,2.7,0,0,1,120.1,77.8Zm0.9-.1a2.2,2.2,0,0,0,.1.7l0.4,0.6,0.6,0.4h0.8l1-.2,0.8-.6a3,3,0,0,0,.5-0.9,3,3,0,0,0,.2-1.1,2.1,2.1,0,0,0-.1-0.7l-0.4-.6-0.6-.4h-0.8l-1,.2-0.8.6a2.7,2.7,0,0,0-.5.9A3.3,3.3,0,0,0,121,77.7Z"/><path class="b" d="M128.5,80.1h-0.8l1-5.8h0.8Zm1.5-8a0.6,0.6,0,0,1-.2.4l-0.4.2h-0.4a0.5,0.5,0,0,1-.2-0.4,0.6,0.6,0,0,1,.2-0.4l0.4-.2,0.4,0.2A0.5,0.5,0,0,1,130,72.1Z"/><path class="b" d="M132.7,80.1h-0.9l-1.2-5.8h0.9l0.9,4.9h0l2.9-4.9h0.9Z"/><path class="b" d="M137.2,80.1h-0.8l1-5.8h0.8Zm1.5-8a0.6,0.6,0,0,1-.2.4l-0.4.2h-0.4a0.5,0.5,0,0,1-.2-0.4,0.6,0.6,0,0,1,.2-0.4l0.4-.2,0.4,0.2A0.5,0.5,0,0,1,138.7,72.1Z"/><path class="b" d="M143.2,75.6l-0.5-.5-0.8-.2h-0.5l-0.4.2-0.3.3a0.7,0.7,0,0,0-.1.4,0.8,0.8,0,0,0,.1.4l0.2,0.3,0.4,0.2,0.5,0.2a3.5,3.5,0,0,1,1.3.6,1.3,1.3,0,0,1,.4,1.1,1.5,1.5,0,0,1-.2.8l-0.5.6-0.7.3h-0.8l-1.4-.3a2.1,2.1,0,0,1-1-.8l0.7-.5a1.8,1.8,0,0,0,.6.6l1,0.3h0.5l0.5-.2,0.3-.3a0.8,0.8,0,0,0,.1-0.5,0.8,0.8,0,0,0-.4-0.7l-1-.5-0.5-.2-0.5-.3-0.3-.4a1.3,1.3,0,0,1-.1-0.6,1.4,1.4,0,0,1,.2-0.8l0.5-.5,0.7-.3h0.8l1.2,0.3a1.7,1.7,0,0,1,.8.7Z"/><path class="b" d="M145.5,80.1h-0.8l1-5.8h0.8Zm1.5-8a0.6,0.6,0,0,1-.2.4l-0.4.2H146a0.5,0.5,0,0,1-.2-0.4,0.6,0.6,0,0,1,.2-0.4l0.4-.2,0.4,0.2A0.5,0.5,0,0,1,147,72.1Z"/><path class="b" d="M150.2,80.3l-1.1-.2-0.8-.5a2.3,2.3,0,0,1-.5-0.8,2.6,2.6,0,0,1-.2-1,3.8,3.8,0,0,1,.3-1.4,3.5,3.5,0,0,1,.7-1.1,3.4,3.4,0,0,1,1.1-.8,3.3,3.3,0,0,1,1.4-.3l1.1,0.2,0.8,0.5a2.4,2.4,0,0,1,.5.8,2.5,2.5,0,0,1,.2,1,3.8,3.8,0,0,1-.3,1.4,3.4,3.4,0,0,1-1.8,1.9A3.3,3.3,0,0,1,150.2,80.3Zm2.6-3.5a2.2,2.2,0,0,0-.1-0.7l-0.4-.6-0.6-.4h-0.8l-1,.2-0.8.6a3,3,0,0,0-.5.9,3.1,3.1,0,0,0-.2,1.1,2.1,2.1,0,0,0,.1.7l0.4,0.6,0.6,0.4h0.8l1-.2,0.8-.6a2.8,2.8,0,0,0,.5-0.9A3.2,3.2,0,0,0,152.8,76.8Z"/><path class="b" d="M156.5,74.4v1h0a2.4,2.4,0,0,1,.9-0.8,2.2,2.2,0,0,1,1.1-.3,2.1,2.1,0,0,1,1.5.5,1.7,1.7,0,0,1,.5,1.3v0.6l-0.6,3.5h-0.8l0.6-3.2a3.8,3.8,0,0,0,.1-0.7,1.5,1.5,0,0,0-.3-1,1.2,1.2,0,0,0-1-.4h-0.7l-0.6.4-0.5.7a3.4,3.4,0,0,0-.3,1l-0.5,3h-0.8l0.8-4.5V74.4h0.8Z"/><path class="b" d="M167.3,80.3l-1.1-.2-0.8-.5a2.3,2.3,0,0,1-.5-0.8,2.6,2.6,0,0,1-.2-1,3.8,3.8,0,0,1,.3-1.4,3.5,3.5,0,0,1,.7-1.1,3.4,3.4,0,0,1,1.1-.8,3.3,3.3,0,0,1,1.4-.3l1.1,0.2,0.8,0.5a2.4,2.4,0,0,1,.5.8,2.5,2.5,0,0,1,.2,1,3.8,3.8,0,0,1-.3,1.4,3.4,3.4,0,0,1-1.8,1.9A3.3,3.3,0,0,1,167.3,80.3Zm2.6-3.5a2.2,2.2,0,0,0-.1-0.7l-0.4-.6-0.6-.4H168l-1,.2-0.8.6a3,3,0,0,0-.5.9,3.1,3.1,0,0,0-.2,1.1,2.1,2.1,0,0,0,.1.7l0.4,0.6,0.6,0.4h0.8l1-.2,0.8-.6a2.8,2.8,0,0,0,.5-0.9A3.2,3.2,0,0,0,169.9,76.8Z"/><path class="b" d="M175.2,75h-1.4l-0.9,5.1h-0.8L173,75h-1.2V74.4h1.2l0.3-1.6a3.8,3.8,0,0,1,.2-0.8l0.4-.7,0.6-.5,0.9-.2h0.7l-0.2.7h-1.1l-0.4.3-0.2.5v0.6l-0.3,1.5h1.4V75Z"/><path class="b" d="M183.1,78.6h0l4.2-7.2h1.3l-1.5,8.7h-0.9l1.3-7.6h0l-4.5,7.6h-0.5l-1.8-7.6h0l-1.3,7.6h-0.9l1.5-8.7h1.3Z"/><path class="b" d="M192,80.3l-1.1-.2-0.8-.5a2.3,2.3,0,0,1-.5-0.8,2.6,2.6,0,0,1-.2-1,3.8,3.8,0,0,1,.3-1.4,3.5,3.5,0,0,1,.7-1.1,3.4,3.4,0,0,1,1.1-.8,3.3,3.3,0,0,1,1.4-.3l1.1,0.2,0.8,0.5a2.4,2.4,0,0,1,.5.8,2.5,2.5,0,0,1,.2,1,3.8,3.8,0,0,1-.3,1.4,3.4,3.4,0,0,1-1.8,1.9A3.3,3.3,0,0,1,192,80.3Zm2.6-3.5a2.2,2.2,0,0,0-.1-0.7l-0.4-.6-0.6-.4h-0.8l-1,.2-0.8.6a3,3,0,0,0-.5.9,3.1,3.1,0,0,0-.2,1.1,2.1,2.1,0,0,0,.1.7l0.4,0.6,0.6,0.4H192l1-.2,0.8-.6a2.8,2.8,0,0,0,.5-0.9A3.2,3.2,0,0,0,194.6,76.8Z"/><path class="b" d="M197.4,75V74.4h0.8v1h0a2.6,2.6,0,0,1,.8-0.8,2,2,0,0,1,1.1-.3h0.5l-0.2.8h-1.2l-0.6.4-0.5.7a3.6,3.6,0,0,0-.3,1l-0.5,3h-0.8l0.8-4.5V75Z"/><path class="b" d="M200.6,81.4a2.3,2.3,0,0,0,.9.7,2.6,2.6,0,0,0,1.2.3l1.1-.2,0.7-.5L205,81a4.3,4.3,0,0,0,.3-0.9l0.2-1.1h0a2.7,2.7,0,0,1-1,.9,2.6,2.6,0,0,1-1.2.3l-1.1-.2-0.8-.5a2.4,2.4,0,0,1-.5-0.8,2.7,2.7,0,0,1-.2-1,3.5,3.5,0,0,1,.3-1.3,3.4,3.4,0,0,1,.7-1.1,3.3,3.3,0,0,1,1.1-.7l1.3-.3h0.6l0.6,0.2,0.5,0.4,0.3,0.5h0l0.2-1H207l-1,5.7-0.3,1a3,3,0,0,1-.5,1,2.8,2.8,0,0,1-1,.7,3.6,3.6,0,0,1-1.6.3,3.7,3.7,0,0,1-1.5-.3,2.8,2.8,0,0,1-1.1-.9Zm0.9-3.7a2,2,0,0,0,.1.7l0.4,0.6,0.6,0.4h0.8l1-.2,0.8-.6a2.7,2.7,0,0,0,.5-0.9,2.9,2.9,0,0,0,.2-1,2,2,0,0,0-.1-0.7l-0.4-.6-0.6-.4H204l-1,.2-0.8.5a2.5,2.5,0,0,0-.5.9A3.2,3.2,0,0,0,201.5,77.6Z"/><path class="b" d="M212.4,76.6V76.1a1,1,0,0,0-.4-0.9,1.7,1.7,0,0,0-1-.3l-1,.2-0.8.5-0.4-.6,1-.6,1.2-.2H212l0.7,0.3,0.4,0.5a1.6,1.6,0,0,1,.2.8v0.6l-0.4,2.3v0.7a6,6,0,0,0,0,.6h-0.7c0-.1,0-0.3,0-0.5V79.2h0l-0.5.5-0.5.3-0.6.2h-1.3l-0.6-.3-0.4-.5a1.4,1.4,0,0,1-.2-0.7,1.6,1.6,0,0,1,.4-1.1,2.6,2.6,0,0,1,1-.7l1.4-.3h1.6Zm-0.3.6H211l-1.1.2-0.8.4a1,1,0,0,0-.3.7,0.9,0.9,0,0,0,.1.5l0.3,0.3h1.6l0.7-.4,0.5-.6a2.5,2.5,0,0,0,.3-0.7V77.2h-0.2Z"/><path class="b" d="M216.3,74.4v1h0a2.4,2.4,0,0,1,.9-0.8,2.2,2.2,0,0,1,1.1-.3,2.1,2.1,0,0,1,1.5.5,1.7,1.7,0,0,1,.5,1.3v0.6l-0.6,3.5h-0.8l0.6-3.2a3.8,3.8,0,0,0,.1-0.7,1.5,1.5,0,0,0-.3-1,1.2,1.2,0,0,0-1-.4h-0.7l-0.6.4-0.5.7a3.4,3.4,0,0,0-.3,1l-0.5,3h-0.8l0.8-4.5V74.4h0.8Z"/><path class="b" d="M226.6,78.9h0l3.6-7.5h1.1l0.7,7.5h0l3.6-7.5h0.9l-4.3,8.7h-1l-0.7-7.5h0l-3.7,7.5h-1l-0.9-8.7h0.9Z"/><path class="b" d="M239.7,74.2a2.1,2.1,0,0,1,1.5.5,1.6,1.6,0,0,1,.5,1.3v0.6L241,80.1h-0.8l0.6-3.2a3.8,3.8,0,0,0,.1-0.7,1.5,1.5,0,0,0-.3-1,1.3,1.3,0,0,0-1-.4h-0.7l-0.6.4-0.5.7a3.5,3.5,0,0,0-.3,1l-0.5,3H236l1.6-9.3h0.8l-0.8,4.5h0a2.4,2.4,0,0,1,.8-0.8A2.2,2.2,0,0,1,239.7,74.2Z"/><path class="b" d="M243.8,80.1H243l1-5.8h0.8Zm1.5-8a0.6,0.6,0,0,1-.2.4l-0.4.2h-0.4a0.5,0.5,0,0,1-.2-0.4,0.6,0.6,0,0,1,.2-0.4l0.4-.2,0.4,0.2A0.5,0.5,0,0,1,245.3,72.1Z"/><path class="b" d="M249.2,75h-1.6L247,78.4a2.4,2.4,0,0,0,0,.4,0.6,0.6,0,0,0,.2.5h1.2V80h-1.4l-0.4-.2-0.3-.4a1.2,1.2,0,0,1-.1-0.6,2.5,2.5,0,0,1,0-.4l0.6-3.6h-1.2V74.4h1.2l0.3-1.6H248l-0.3,1.6h1.6V75Z"/><path class="b" d="M250.4,77.5h0a1.9,1.9,0,0,0,.1.7l0.4,0.6,0.6,0.4h0.7a2.3,2.3,0,0,0,1.2-.3l0.8-.7,0.5,0.5a3.3,3.3,0,0,1-1.2.9,3.4,3.4,0,0,1-1.4.3l-1-.2-0.8-.5a2.3,2.3,0,0,1-.6-0.8,2.7,2.7,0,0,1-.2-1.1,3.6,3.6,0,0,1,.3-1.3,3.6,3.6,0,0,1,.7-1.1,3.5,3.5,0,0,1,1.1-.8,3,3,0,0,1,1.3-.3,2.4,2.4,0,0,1,1.8.6,2.2,2.2,0,0,1,.6,1.6v1h-4.8Zm4-.6V76.4a1.5,1.5,0,0,0-.4-1.1,1.6,1.6,0,0,0-1.2-.4l-0.8.2-0.7.4-0.5.6a2.5,2.5,0,0,0-.3.7h3.9Z"/><path class="b" d="M263.6,79.6l1.4-.2L266,79l0.5-2.7h-2.1V75.6h2.9l-0.7,3.9-1.6.7-1.7.2-1.6-.3a3.6,3.6,0,0,1-1.2-.8,3.4,3.4,0,0,1-.8-1.2,4,4,0,0,1-.3-1.5,5.5,5.5,0,0,1,.4-2.1,5.4,5.4,0,0,1,1.1-1.7,5.3,5.3,0,0,1,1.7-1.2,4.9,4.9,0,0,1,2-.4h0.9l0.8,0.3,0.7,0.4,0.5,0.6-0.8.5-0.3-.4-0.5-.4-0.6-.3h-0.8a3.8,3.8,0,0,0-1.7.4,4.4,4.4,0,0,0-1.3,1,4.8,4.8,0,0,0-1.2,3.2,3.6,3.6,0,0,0,.2,1.2,2.7,2.7,0,0,0,.6,1l1,0.7Z"/><path class="b" d="M269.6,75V74.4h0.8v1h0a2.6,2.6,0,0,1,.8-0.8,2,2,0,0,1,1.1-.3h0.5l-0.2.8h-1.2l-0.6.4-0.5.7a3.6,3.6,0,0,0-.3,1l-0.5,3h-0.8l0.8-4.5V75Z"/><path class="b" d="M275.3,80.3l-1.1-.2-0.8-.5a2.3,2.3,0,0,1-.5-0.8,2.6,2.6,0,0,1-.2-1,3.8,3.8,0,0,1,.3-1.4,3.5,3.5,0,0,1,.7-1.1,3.4,3.4,0,0,1,1.1-.8,3.3,3.3,0,0,1,1.4-.3l1.1,0.2,0.8,0.5a2.4,2.4,0,0,1,.5.8,2.5,2.5,0,0,1,.2,1,3.8,3.8,0,0,1-.3,1.4,3.4,3.4,0,0,1-1.8,1.9A3.3,3.3,0,0,1,275.3,80.3Zm2.6-3.5a2.2,2.2,0,0,0-.1-0.7l-0.4-.6-0.6-.4H276l-1,.2-0.8.6a3,3,0,0,0-.5.9,3.1,3.1,0,0,0-.2,1.1,2.1,2.1,0,0,0,.1.7l0.4,0.6,0.6,0.4h0.8l1-.2,0.8-.6a2.8,2.8,0,0,0,.5-0.9A3.2,3.2,0,0,0,277.9,76.8Z"/><path class="b" d="M283.9,80.1v-1h0a2.4,2.4,0,0,1-.9.8,2.2,2.2,0,0,1-1.1.3,2.1,2.1,0,0,1-1.5-.5,1.6,1.6,0,0,1-.5-1.3V77.9l0.6-3.5h0.8L281,77.6a4,4,0,0,0-.1.7,1.5,1.5,0,0,0,.3,1,1.2,1.2,0,0,0,1,.3h0.7l0.6-.4,0.5-.7a3.4,3.4,0,0,0,.3-1l0.5-3h0.8l-0.8,4.5v1.3h-0.8Z"/><path class="b" d="M288.6,75.3l0.4-.4,0.5-.3,0.6-.2h0.7l1.1,0.2,0.8,0.5a2.3,2.3,0,0,1,.5.8,2.7,2.7,0,0,1,.2,1,3.8,3.8,0,0,1-.3,1.4,3.6,3.6,0,0,1-.7,1.1,3.4,3.4,0,0,1-1.1.8,3.2,3.2,0,0,1-1.4.3,2.5,2.5,0,0,1-1.2-.3,1.9,1.9,0,0,1-.8-0.8h0l-0.7,3.9h-0.8l1.6-8.7h0.8l-0.2.9h0Zm3.9,1.5a2.2,2.2,0,0,0-.1-0.7l-0.4-.6-0.6-.4h-0.8l-1,.2-0.8.6a2.9,2.9,0,0,0-.5.9,3,3,0,0,0-.2,1.1,2.1,2.1,0,0,0,.1.7l0.4,0.6,0.6,0.4h0.8l1-.2,0.8-.6a2.7,2.7,0,0,0,.5-0.9A3.3,3.3,0,0,0,292.4,76.8Z"/><path class="c" d="M49.2,0A49.2,49.2,0,1,1,0,49.2,49.2,49.2,0,0,1,49.2,0Z"/><path class="c" d="M49.2,96.2a47,47,0,1,0-47-47A47.1,47.1,0,0,0,49.2,96.2Zm0-91.6A44.5,44.5,0,0,1,93.7,49.2c0,0.5,0,1.1,0,1.6H78c-0.1,0-.2.1-0.2,0.3v0.8a0.3,0.3,0,0,0,.3.3h1.5c1,0,1.3.4,1.3,1.7v2.7c0,1.9-.1,2.9-0.9,3.4s-2.6.6-5,.6-6.2-2.3-9.2-4.7c-0.5-.4-0.7-0.2-0.8,0l-0.7,1.7a0.9,0.9,0,0,0,.2,1.1c2.5,2.8,6.8,4,10.3,4a21.2,21.2,0,0,0,10.4-2.4,0.7,0.7,0,0,0,.6-0.6c0-.3-0.1-0.7-0.1-1.2V53.6c0-1.1.4-1.4,1.1-1.4h6.9A44.5,44.5,0,0,1,6.7,62.6h9.1a0.3,0.3,0,0,0,.3-0.3V61.5c0-.2,0-0.3-0.3-0.3h-1a1.1,1.1,0,0,1-1.2-1c0-2,4.2-14.1,5.3-17.3h0.1L24.3,56s1.2,2.9,2,2.9,2.9-4,2.9-4,4.9-11,5.2-11.8h0.1l5.7,16.9a0.9,0.9,0,0,1-.9,1.3H38.6a0.3,0.3,0,0,0-.3.3v0.9c0,0.2.1,0.3,0.3,0.3h3a1,1,0,0,0,.7-0.3l0.4-.5c0.1-.4,6.6-14,6.9-15.1h0.1l6.6,14.9a1,1,0,0,0,.9.8c2,0,2.6-.8,3.4-3s2.8-7.9,4.9-13.6,6.5-8.8,10.5-8.8a8.3,8.3,0,0,1,6.1,2.6,14.5,14.5,0,0,1,2.9,5c0.1,0.2.1,0.3,0.4,0.3h0.9c0.1,0,.1-0.2.1-0.5L86,37.1a0.4,0.4,0,0,0-.4-0.5,0.6,0.6,0,0,0-.5.4l-0.4.6c-0.2.3-.4,0.4-0.9,0.1a13.5,13.5,0,0,0-7.5-2c-6.7,0-11.6,1.4-14.7,11.2l-3,7.8L54.1,44.4s-1.9-4.6-2.7-4.6-2.8,4.3-2.8,4.3-4.9,10.6-5.2,11.3H43.2L37.5,38.5a0.9,0.9,0,0,1,.9-1.3h0.7a0.3,0.3,0,0,0,.3-0.3V36c0-.2-0.1-0.3-0.3-0.3H35.6a2.3,2.3,0,0,0-.7,1.2c-1.1,2.5-6.4,14.1-6.7,15H28L21.4,36.8a1,1,0,0,0-.9-0.8,1.3,1.3,0,0,0-.9,1c-0.7,1.8-8.2,22.3-8.6,23.1a1.8,1.8,0,0,1-1.6,1.2h-3A44.5,44.5,0,0,1,49.2,4.6Z"/><path class="d" d="M49.2,98.3A49.2,49.2,0,1,0,0,49.2,49.2,49.2,0,0,0,49.2,98.3Zm0-96.2a47,47,0,1,1-47,47A47.1,47.1,0,0,1,49.2,2.1Z"/><path class="a" d="M6.3,61.2h3A1.8,1.8,0,0,0,10.9,60c0.4-.8,7.8-21.3,8.6-23.1a1.3,1.3,0,0,1,.9-1,1,1,0,0,1,.9.8L28,52.2h0.1c0.3-.9,5.6-12.6,6.7-15a2.3,2.3,0,0,1,.7-1.2h3.6c0.2,0,.3.1,0.3,0.3V37a0.3,0.3,0,0,1-.3.3H38.4a0.9,0.9,0,0,0-.9,1.3l5.7,16.9h0.1c0.3-.8,5.2-11.3,5.2-11.3s2-4.3,2.8-4.3,2.7,4.6,2.7,4.6l4.6,10.2,3-7.8c3.1-9.7,8-11.2,14.7-11.2a13.5,13.5,0,0,1,7.5,2c0.4,0.3.7,0.2,0.9-.1l0.4-.6a0.6,0.6,0,0,1,.5-0.4,0.4,0.4,0,0,1,.4.5l0.4,7.3c0,0.3,0,.5-0.1.5H85.4c-0.2,0-.3-0.1-0.4-0.3a14.5,14.5,0,0,0-2.9-5A8.3,8.3,0,0,0,76,37.2c-4,0-7.9,2-10.5,8.8S61,58.4,60.6,59.5s-1.4,3-3.4,3a1,1,0,0,1-.9-0.8L49.7,46.8H49.5c-0.3,1-6.8,14.7-6.9,15.1l-0.4.5a1,1,0,0,1-.7.3h-3c-0.2,0-.3-0.1-0.3-0.3V61.5a0.3,0.3,0,0,1,.3-0.3h0.7a0.9,0.9,0,0,0,.9-1.3L34.4,43.1H34.4c-0.3.8-5.2,11.8-5.2,11.8s-1.7,4-2.9,4-2-2.9-2-2.9L19.1,42.9H18.9c-1.1,3.2-5.3,15.3-5.3,17.3a1.1,1.1,0,0,0,1.2,1h1c0.2,0,.3.1,0.3,0.3v0.9a0.3,0.3,0,0,1-.3.3H6.7A44.5,44.5,0,0,0,93.6,52.2H86.7c-0.7,0-1.1.3-1.1,1.4v4.8c0,0.5.1,0.9,0.1,1.2a0.7,0.7,0,0,1-.6.6,21.2,21.2,0,0,1-10.4,2.4c-3.5,0-7.8-1.2-10.3-4a0.9,0.9,0,0,1-.2-1.1L65,55.8c0.1-.2.4-0.4,0.8,0,3,2.4,5.6,4.7,9.2,4.7s3.7,0,5-.6,0.9-1.5.9-3.4V53.9c0-1.3-.4-1.7-1.3-1.7H78.1a0.3,0.3,0,0,1-.3-0.3V51c0-.2.1-0.3,0.2-0.3H93.7c0-.5,0-1.1,0-1.6A44.5,44.5,0,1,0,6.3,61.2Z"/></svg>