<?xml version="1.0" encoding="utf-8"?>
<!-- Generator: Adobe Illustrator 17.1.0, SVG Export Plug-In . SVG Version: 6.00 Build 0)  -->
<!DOCTYPE svg PUBLIC "-//W3C//DTD SVG 1.1//EN" "http://www.w3.org/Graphics/SVG/1.1/DTD/svg11.dtd">
<svg version="1.1" id="Layer_1" xmlns="http://www.w3.org/2000/svg" xmlns:xlink="http://www.w3.org/1999/xlink" x="0px" y="0px"
	 viewBox="0 293 720 134" enable-background="new 0 293 720 134" xml:space="preserve">
<g>
	<path fill="#015E81" d="M162.6,412.5v0.8c0,5.5-3.9,9.8-9.5,9.8s-10.2-4.9-10.2-10.4c0-5.8,4.6-10.5,10.4-10.5
		c3.1,0,6.2,1.4,8.2,3.9l-1.8,1.7c-1.4-2-3.9-3.3-6.3-3.3c-4.5,0-8,3.7-8,8.2c0,4.2,3.5,8.2,7.8,8.2c3.1,0,6.5-2.7,6.6-6h-5.2v-2.4
		L162.6,412.5L162.6,412.5z"/>
	<path fill="#015E81" d="M177.7,422.7h-3l-5.9-8.5h-1v8.5h-2.5v-20.2h3c1.8,0,3.7,0,5.3,0.9c1.7,1,2.6,2.9,2.6,4.8
		c0,2.9-1.9,5.3-4.8,5.6L177.7,422.7z M167.7,412.1h0.8c2.6,0,5.3-0.5,5.3-3.7c0-3.1-3-3.6-5.5-3.6h-0.7L167.7,412.1L167.7,412.1z"
		/>
	<path fill="#015E81" d="M199.2,412.6c0,6-4.7,10.5-10.5,10.5s-10.5-4.5-10.5-10.5c0-5.8,4.8-10.5,10.5-10.5
		S199.2,406.8,199.2,412.6z M196.7,412.6c0-4.4-3.3-8.1-8-8.1s-8,3.7-8,8.1c0,4.6,3.7,8.1,8,8.1S196.7,417.2,196.7,412.6z"/>
	<path fill="#015E81" d="M204.2,402.5v11.9c0,3.3,1,6.3,4.9,6.3s4.9-3,4.9-6.3v-11.9h2.5v12.7c0,4.4-2.7,7.8-7.4,7.8
		s-7.4-3.4-7.4-7.8v-12.7H204.2z"/>
	<path fill="#015E81" d="M222.6,422.7h-2.5v-20.2h2.9c6.2,0,8.1,2.1,8.1,5.8c0,4.2-3.2,5.9-7,5.9h-1.4L222.6,422.7L222.6,422.7z
		 M222.6,412h0.8c2.6,0,5.3-0.5,5.3-3.7c0-3.1-3-3.5-5.5-3.5h-0.7L222.6,412L222.6,412z"/>
	<path fill="#015E81" d="M251,406.4c-0.7-1.3-1.7-1.9-3.2-1.9c-1.6,0-3.4,1.1-3.4,2.9c0,1.6,1.5,2.4,2.8,2.9l1.4,0.6
		c2.9,1.1,5,2.7,5,6.1c0,3.7-2.8,6.3-6.4,6.3c-3.3,0-5.8-2.4-6.2-5.6l2.5-0.5c0,2.2,1.7,3.8,3.9,3.8s3.7-1.8,3.7-3.9
		c0-2.2-1.7-3.1-3.5-3.8l-1.4-0.6c-2.3-1-4.4-2.3-4.4-5.1c0-3.3,2.9-5.2,5.9-5.2c2.2,0,4.1,1.1,5.2,3L251,406.4z"/>
	<path fill="#015E81" d="M258.5,402.5v11.9c0,3.3,1,6.3,4.9,6.3s4.9-3,4.9-6.3v-11.9h2.5v12.7c0,4.4-2.7,7.8-7.4,7.8
		c-4.6,0-7.4-3.4-7.4-7.8v-12.7H258.5z"/>
	<path fill="#015E81" d="M276.9,422.7h-2.5v-20.2h2.9c6.2,0,8.1,2.1,8.1,5.8c0,4.2-3.2,5.9-7,5.9H277L276.9,422.7L276.9,422.7z
		 M276.9,412h0.8c2.6,0,5.3-0.5,5.3-3.7c0-3.1-3-3.5-5.5-3.5h-0.7L276.9,412L276.9,412L276.9,412z"/>
	<path fill="#015E81" d="M290,422.7h-2.5v-20.2h2.9c6.2,0,8.1,2.1,8.1,5.8c0,4.2-3.2,5.9-7,5.9H290V422.7L290,422.7z M290,412h0.8
		c2.6,0,5.3-0.5,5.3-3.7c0-3.1-3-3.5-5.5-3.5H290V412L290,412z"/>
	<path fill="#015E81" d="M303.1,420.4h6.1v2.3h-8.6v-20.2h2.5V420.4L303.1,420.4z"/>
	<path fill="#015E81" d="M311,402.5h10.8v2.3h-8.3v5.6h8.1v2.3h-8.1v7.6h8.3v2.3H311V402.5z"/>
	<path fill="#015E81" d="M328.6,409.4L328.6,409.4l-2.4,13.3h-2.6l4.1-21l6.9,15.8l6.9-15.8l4.1,21H343l-2.3-13.3h-0.1l-6,13.7
		L328.6,409.4z"/>
	<path fill="#015E81" d="M348,402.5h10.8v2.3h-8.3v5.6h8.1v2.3h-8.1v7.6h8.3v2.3H348V402.5z"/>
	<path fill="#015E81" d="M361.6,401.6l15.1,15.8v-14.9h2.5v21l-15.1-15.8v15h-2.5V401.6L361.6,401.6z"/>
	<path fill="#015E81" d="M388.4,422.7h-2.5v-17.8h-4.8v-2.4h12.1v2.3h-4.8L388.4,422.7L388.4,422.7z"/>
	<path fill="#015E81" d="M396.7,417.6l-2.3,5h-2.7l9.6-21l9.6,21h-2.7l-2.3-5H396.7z M401.3,407.2l-3.6,8.1h7.1L401.3,407.2z"/>
	<path fill="#015E81" d="M415.2,420.4h6.1v2.3h-8.6v-20.2h2.5V420.4L415.2,420.4z"/>
	<path fill="#015E81" d="M434.2,422.7h-2.5v-20.2h2.5V422.7z"/>
	<path fill="#015E81" d="M438,401.6l15.1,15.8v-14.9h2.5v21l-15.1-15.8v15H438V401.6L438,401.6z"/>
	<path fill="#015E81" d="M468.2,406.4c-0.7-1.3-1.7-1.9-3.2-1.9c-1.6,0-3.4,1.1-3.4,2.9c0,1.6,1.5,2.4,2.8,2.9l1.4,0.6
		c2.9,1.1,5,2.7,5,6.1c0,3.7-2.8,6.3-6.4,6.3c-3.3,0-5.8-2.4-6.2-5.6l2.5-0.5c0,2.2,1.7,3.8,3.9,3.8c2.2,0,3.7-1.8,3.7-3.9
		c0-2.2-1.7-3.1-3.5-3.8l-1.4-0.6c-2.3-1-4.4-2.3-4.4-5.1c0-3.3,2.9-5.2,5.9-5.2c2.2,0,4.1,1.1,5.2,3L468.2,406.4z"/>
	<path fill="#015E81" d="M475.7,402.5v11.9c0,3.3,1,6.3,4.9,6.3s4.9-3,4.9-6.3v-11.9h2.5v12.7c0,4.4-2.7,7.8-7.4,7.8
		c-4.6,0-7.4-3.4-7.4-7.8v-12.7H475.7z"/>
	<path fill="#015E81" d="M504.1,422.7h-3l-5.9-8.5h-1v8.5h-2.5v-20.2h3c1.8,0,3.7,0,5.3,0.9c1.7,1,2.6,2.9,2.6,4.8
		c0,2.9-1.9,5.3-4.8,5.6L504.1,422.7z M494.1,412.1h0.8c2.6,0,5.3-0.5,5.3-3.7c0-3.1-3-3.6-5.5-3.6H494L494.1,412.1L494.1,412.1z"/>
	<path fill="#015E81" d="M510,417.6l-2.3,5H505l9.6-21l9.6,21h-2.7l-2.3-5H510z M514.6,407.2l-3.6,8.1h7.1L514.6,407.2z"/>
	<path fill="#015E81" d="M526,401.6l15.1,15.8v-14.9h2.5v21l-15.1-15.8v15H526V401.6z"/>
	<path fill="#015E81" d="M562.1,406.4c-1.4-1.3-3.4-2-5.3-2c-4.5,0-7.9,3.8-7.9,8.2s3.4,8.2,7.9,8.2c2,0,3.9-0.7,5.4-2.1v3
		c-1.5,0.9-3.5,1.4-5.3,1.4c-5.7,0-10.5-4.6-10.5-10.4c0-5.9,4.8-10.6,10.7-10.6c1.8,0,3.5,0.4,5.1,1.4v2.9H562.1z"/>
	<path fill="#015E81" d="M564.7,402.5h10.8v2.3h-8.3v5.6h8.1v2.3h-8.1v7.6h8.3v2.3h-10.8V402.5z"/>
</g>
<g>
	<path fill="#015E81" d="M30,317.9v66.9H14.3v-66.9H6v-15.5h32.5v15.5H30L30,317.9z"/>
	<path fill="#015E81" d="M57.7,384.8v-52.4c0-0.9,0-1.8-1.1-1.8h-2v54.2h-14v-82.3h13.9V319h7.4c5.4,0,9.8,4.2,9.8,9.3v56.5H57.7
		L57.7,384.8z"/>
	<path fill="#015E81" d="M98.4,384.8H84.6c-4.4,0-8.7-3.1-8.7-7.7v-49.4c0-4.9,3.8-8.7,8.7-8.7h13.8c4.9,0,8.7,3.8,8.7,8.7v28.5H90
		v14.2c0,0.7,0.5,1.1,1,1.1h0.9c0.7,0,1.1-0.5,1.1-1.1v-11.3h14v18C107,381.7,102.8,384.8,98.4,384.8z M93,333.5
		c0-0.7-0.6-1.3-1.3-1.3h-0.6c-0.8,0-1.3,0.6-1.3,1.3v10.7H93V333.5L93,333.5z"/>
	<path fill="#015E81" d="M154.8,360.2h-10.1v24.6H129v-82.3h26c5.7,0,10.4,4.6,10.4,10.3v37.1C165.3,356,160.4,360.2,154.8,360.2z
		 M149.5,320.1c0-1.1-0.9-2-2.1-2h-2.8v28.6h3.1c1,0,1.8-0.8,1.8-1.8V320.1L149.5,320.1z"/>
	<path fill="#015E81" d="M189.9,330.8c-4.4,0-6.9,3.6-6.9,8v46h-14.7V319H183v4.6c0.7-2.4,3.1-4.6,5.1-4.6h3.5v11.8H189.9
		L189.9,330.8L189.9,330.8z"/>
	<path fill="#015E81" d="M215.5,384.8h-13.8c-4.4,0-8.7-3.1-8.7-7.7v-49.4c0-4.9,3.8-8.7,8.7-8.7h13.8c4.9,0,8.7,3.8,8.7,8.7v28.5
		h-17.1v14.2c0,0.7,0.5,1.1,1,1.1h0.9c0.7,0,1.1-0.5,1.1-1.1v-11.3h14v18C224.1,381.7,219.9,384.8,215.5,384.8z M210.1,333.5
		c0-0.7-0.6-1.3-1.3-1.3h-0.6c-0.8,0-1.3,0.6-1.3,1.3v10.7h3.1v-10.7H210.1z"/>
	<path fill="#015E81" d="M262.6,384.8v-53c0-0.9,0-1.1-1.1-1.3h-2.2v54.2h-13.9v-52.6c0-1.1,0-1.5-1.1-1.6h-2.1v54.2h-13.9v-65.8
		H248c2.5,0,3.8,1.3,4.8,2.8v-2.8h14.9c4.7,0,9,4.2,9,9.2v56.6C276.8,384.8,262.6,384.8,262.6,384.8z"/>
	<path fill="#015E81" d="M280.9,316.4v-14h13.9v14H280.9z M294.8,384.8h-13.9V319h14L294.8,384.8z"/>
	<path fill="#015E81" d="M308.8,384.8c-5.2,0-9.8-4.2-9.8-9.3V319h14v52.3c0,0.9,0,1.8,1.1,1.8h2V319H330v65.8H308.8L308.8,384.8z"
		/>
	<path fill="#015E81" d="M368.6,384.8v-53c0-0.9,0-1.1-1.1-1.3h-2.2v54.2h-13.9v-52.6c0-1.1,0-1.5-1.1-1.6h-2v54.2h-13.9v-65.8H354
		c2.5,0,3.8,1.3,4.8,2.8v-2.8h14.9c4.7,0,9,4.2,9,9.2v56.6C382.7,384.8,368.6,384.8,368.6,384.8z"/>
	<path fill="#015E81" d="M430.4,384.8h-2.8v5.7h-10v-5.7h-13.1v-28.6h15.6v12.9h5v-17.8h-20.6v-38.7c0-5.6,4.6-10.1,10.3-10.1h2.8
		v-6h10v6h13.1v28.2h-15.6v-12.8h-5v17.8h20.6v38.7C440.7,380.1,436,384.8,430.4,384.8z"/>
	<path fill="#015E81" d="M453,384.8c-5.2,0-9.1-4.9-9.1-9.6v-21.6c0-5,4.6-9.2,9.8-9.2l7.3-0.1v-8.1c0-0.7-0.5-1.6-1.6-1.6h-1.6v6.7
		h-11.5V319H465c5.2,0,9.7,6.4,9.7,11.7v54.1C474.7,384.8,453,384.8,453,384.8z M461,356h-2.1c-1.1,0.1-1.1,0.9-1.1,1.8v13.6h3.2
		V356z"/>
	<path fill="#015E81" d="M502.3,384.8h-15.6c-5.2-9.8-8.1-13.3-8.1-29V319h13.8v40.8c0,4.9,0.6,9.8,2.3,11.6
		c1.5-1.8,1.9-6.5,1.9-11.5V319h13.9v36.5C510.4,371.2,508.6,374.5,502.3,384.8z"/>
	<path fill="#015E81" d="M536.8,384.8H523c-4.4,0-8.7-3.1-8.7-7.7v-49.4c0-4.9,3.8-8.7,8.7-8.7h13.8c4.9,0,8.7,3.8,8.7,8.7v28.5
		h-17.1v14.2c0,0.7,0.5,1.1,1,1.1h0.9c0.7,0,1.1-0.5,1.1-1.1v-11.3h14v18C545.5,381.7,541.3,384.8,536.8,384.8z M531.5,333.5
		c0-0.7-0.6-1.3-1.3-1.3h-0.6c-0.8,0-1.3,0.6-1.3,1.3v10.7h3.1L531.5,333.5L531.5,333.5z"/>
	<path fill="#015E81" d="M571.3,330.8c-4.4,0-6.9,3.6-6.9,8v46h-14.7V319h14.7v4.6c0.7-2.4,3.1-4.6,5.1-4.6h3.5v11.8H571.3
		L571.3,330.8z"/>
	<path fill="#015E81" d="M618,360.2h-10.1v24.6h-15.7v-82.3h26c5.7,0,10.4,4.6,10.4,10.3v37.1C628.5,356,623.6,360.2,618,360.2z
		 M612.8,320.1c0-1.1-0.9-2-2.1-2h-2.8v28.6h3.1c1,0,1.8-0.8,1.8-1.8V320.1L612.8,320.1z"/>
	<path fill="#015E81" d="M631.5,384.8v-82.3h14v82.3H631.5z"/>
	<path fill="#015E81" d="M657.8,384.8c-5.2,0-9.1-4.9-9.1-9.6v-21.6c0-5,4.6-9.2,9.8-9.2l7.3-0.1v-8.1c0-0.7-0.5-1.6-1.6-1.6h-1.6
		v6.7h-11.5V319h18.8c5.2,0,9.7,6.4,9.7,11.7v54.1C679.5,384.8,657.8,384.8,657.8,384.8z M665.8,356h-2.1c-1.1,0.1-1.1,0.9-1.1,1.8
		v13.6h3.2L665.8,356L665.8,356z"/>
	<path fill="#015E81" d="M701.4,384.8v-52.4c0-0.9,0-1.8-1.1-1.8h-2v54.2h-13.9V319h21.3c5.2,0,9.8,4.2,9.8,9.2v56.6
		C715.4,384.8,701.4,384.8,701.4,384.8z"/>
</g>
</svg>
