<?xml version="1.0" encoding="UTF-8"?>
<svg id="Layer_1" data-name="Layer 1" xmlns="http://www.w3.org/2000/svg" viewBox="0 0 307.5 181.88">
  <g>
    <path d="M19.99,181.88c-5.28,0-7.86-1.23-7.86-1.23,0,0,.08-.94.08-3.2,0-2.46-.08-3.97-.08-3.97,1.43,2.09,3.4,4.1,7.37,4.1,2.74,0,4.96-.61,4.96-3.24,0-2.05-1.31-2.79-3.28-3.85l-3.36-1.88c-3.2-1.76-5.74-3.97-5.74-8.19,0-5.53,3.65-8.27,10.49-8.27,4.87,0,7.41,1.19,7.41,1.19,0,0-.08.98-.08,3.32s.08,3.77.08,3.77c-1.64-2.38-3.69-4.01-6.92-4.01-2.66,0-4.38.74-4.38,2.87,0,1.93,1.39,2.58,3.6,3.81l2.91,1.6c3.56,1.93,5.9,4.06,5.9,8.56,0,6.76-4.87,8.64-11.1,8.64Z" style="fill: #002169; stroke-width: 0px;"/>
    <path d="M68.4,180.04l-.08,1.56h-16.02c-2.21,0-3.15.04-3.15.04l.37-.7c.82-1.52,1.02-1.84,1.02-14.13s-.16-12.08-1.02-13.72l-.37-.7s.9.04,3.11.04h15.65s-.04.9-.04,2.91c0,2.13.08,3.15.08,3.24-.04-.04-.29-.41-1.43-1.11-.98-.57-2.58-.9-4.51-.9h-4.34v8.32h3.36c1.93,0,3.52-.2,4.51-.78,1.07-.61,1.39-.98,1.47-1.07,0,.04-.12,1.19-.12,3.97,0,2.58.12,3.81.12,3.89-.04-.04-.33-.41-1.47-1.11-.98-.57-2.58-.78-4.51-.78h-3.36v8.44h3.93c5.08,0,5.74-1.19,7.25-3.4,0,0-.21,1.64-.45,5.98Z" style="fill: #002169; stroke-width: 0px;"/>
    <path d="M108.63,181.88c-3.4,0-4.87-.94-6.84-4.51l-2.21-3.89c-1.88-3.32-2.25-4.18-3.85-4.18-.37,0-.61.04-.61.04,0,9.87.21,10.08,1.02,11.59l.37.7s-1.47-.08-4.79-.08-4.83.08-4.83.08l.37-.7c.82-1.47,1.02-1.84,1.02-14.13s-.16-12.08-1.02-13.72l-.37-.7s1.64.08,3.81.08c1.35,0,4.59-.08,5.94-.08,6.43,0,12.74.29,12.74,7.54,0,5.98-4.51,7.91-8.32,8.03,3.07.41,4.34,1.76,6.06,5.08l2.25,4.38c1.11,2.05,1.8,3.07,3.28,3.73,0,0-.7.74-4.01.74ZM96.71,156.08c-1.07,0-1.6.08-1.6.08v9.42s.49.08,1.76.08c.74,0,1.6-.08,2.25-.29,1.72-.41,2.95-1.76,2.95-4.55,0-3.97-2.09-4.75-5.37-4.75Z" style="fill: #002169; stroke-width: 0px;"/>
    <path d="M150.86,162.1l-5.69,19.54s-1.8-.08-4.96-.08-5.12.08-5.12.08l-5.61-19.54c-1.64-5.73-2.42-8.23-3.93-9.71,0,0,1.52.08,5.45.08,4.14,0,5.69-.08,5.69-.08-.53.37-1.31,1.07-1.31,2.58,0,1.43.7,3.81,1.47,6.84l3.69,14.01c.29,1.07.45,2.29.49,2.5,0-.12.25-1.31.53-2.46l3.73-14.05c.78-3.07,1.43-5.41,1.43-6.84,0-1.52-.78-2.21-1.31-2.58,0,0,1.6.08,4.96.08s4.51-.08,4.51-.08c-1.52,1.47-2.33,3.97-4.01,9.71Z" style="fill: #002169; stroke-width: 0px;"/>
    <path d="M176.09,181.56c-3.48,0-5,.08-5,.08l.37-.7c.82-1.56,1.02-1.84,1.02-14.13s-.16-12.08-1.02-13.72l-.37-.7s1.39.08,4.96.08,5-.08,5-.08l-.37.7c-.82,1.56-1.02,1.84-1.02,14.13s.16,12.08,1.02,13.72l.37.7s-1.47-.08-4.96-.08Z" style="fill: #002169; stroke-width: 0px;"/>
    <path d="M213.9,181.88c-10.61,0-14.71-5.94-14.71-14.38,0-10.4,5.57-15.36,14.99-15.36,5.41,0,7.54,1.19,7.54,1.19,0,0-.08.86-.08,3.4,0,2.17.08,3.6.08,3.6-1.76-2.54-3.24-4.01-6.92-4.01-5.45,0-8.03,4.71-8.03,10.94,0,6.64,2.54,10.45,7.86,10.45,3.73,0,5.33-1.56,7.09-4.1,0,0-.08,1.31-.08,3.85,0,2.33.08,3.24.08,3.24,0,0-2.58,1.19-7.82,1.19Z" style="fill: #002169; stroke-width: 0px;"/>
    <path d="M258.79,180.04l-.08,1.56h-16.02c-2.21,0-3.15.04-3.15.04l.37-.7c.82-1.52,1.02-1.84,1.02-14.13s-.16-12.08-1.02-13.72l-.37-.7s.9.04,3.11.04h15.65s-.04.9-.04,2.91c0,2.13.08,3.15.08,3.24-.04-.04-.29-.41-1.43-1.11-.98-.57-2.58-.9-4.51-.9h-4.34v8.32h3.36c1.93,0,3.52-.2,4.51-.78,1.07-.61,1.39-.98,1.47-1.07,0,.04-.12,1.19-.12,3.97,0,2.58.12,3.81.12,3.89-.04-.04-.33-.41-1.47-1.11-.98-.57-2.58-.78-4.51-.78h-3.36v8.44h3.93c5.08,0,5.73-1.19,7.25-3.4,0,0-.2,1.64-.45,5.98Z" style="fill: #002169; stroke-width: 0px;"/>
    <path d="M284.76,181.88c-5.28,0-7.86-1.23-7.86-1.23,0,0,.08-.94.08-3.2,0-2.46-.08-3.97-.08-3.97,1.43,2.09,3.4,4.1,7.37,4.1,2.74,0,4.96-.61,4.96-3.24,0-2.05-1.31-2.79-3.28-3.85l-3.36-1.88c-3.2-1.76-5.74-3.97-5.74-8.19,0-5.53,3.65-8.27,10.49-8.27,4.87,0,7.41,1.19,7.41,1.19,0,0-.08.98-.08,3.32s.08,3.77.08,3.77c-1.64-2.38-3.69-4.01-6.92-4.01-2.66,0-4.38.74-4.38,2.87,0,1.93,1.39,2.58,3.6,3.81l2.91,1.6c3.56,1.93,5.9,4.06,5.9,8.56,0,6.76-4.87,8.64-11.1,8.64Z" style="fill: #002169; stroke-width: 0px;"/>
  </g>
  <g>
    <path d="M99.59,18.21c-.11.18-.23.39-.36.63l-23.95,40.21h24.32V19c0-.26,0-.53,0-.79Z" style="fill: none; stroke-width: 0px;"/>
    <path d="M260.71,5.38C260.66,2.4,258.23,0,255.24,0h-34.03s-11.44,0-11.44,0c-6.74,0-13.19,2.73-17.88,7.57l-29.49,30.43L125.96,5.5C121.99,1.96,116.85,0,111.53,0h0c-7.66,0-14.75,4.04-18.65,10.63l-47.61,80.32c-3.46,5.97-7.85,10.21-15.08,10.37l-1.1,7.85h42.1l1.26-7.85c-10.05,0-13.19-1.57-13.19-7.07,0-4.71,3.3-12.57,11.31-26.39h29.03v22.31c0,10.55-6.18,12.67-13.57,12.67h-1.06v6.33h24.51l13.06-9.56c-1.9-1.92-3.05-4.9-3.05-9.44l.3-66.19,34.2,33.71,32.38-33.69v.04s.31,66.14.31,66.14c0,3.67-.75,6.32-2.03,8.21l14.73,10.79h21.83v-6.33h-1.06c-5.52,0-10.37-1.18-12.46-6.18,0-6.87,0-20.18.02-34.15,16.47.9,24.69,7,24.69,20h7.17v-49.64h-7.17c0,13.41-8.21,19.12-24.68,20,.02-19.8.05-38.29.11-39.07.14-2.09,2.17-3.43,4.26-3.43h3.18c25.82,0,34.04,8.17,37.81,27.96h8.17l-.54-32.95ZM75.27,59.05l23.95-40.21c.13-.24.25-.45.36-.63,0,.26,0,.52,0,.79v40.06h-24.32Z" style="fill: #002169; stroke-width: 0px;"/>
    <path d="M173.67,88.58l11.74-36.54-31.43,22.55-31.04-22.83,12.13,36.92-14.11,10.32-13.71,10.03-3.34,2.44,36.02-.13,13.74,35.22,15.13-35.27,36.17.21-3.39-2.48-15.46-11.32-12.47-9.13ZM197.53,109.05l-30.3-.02-13.44,31.15-12.19-31.14-30.23-.02,26.56-19.43-10.31-31.4,26.36,19.39,26.9-19.3-10.03,31.22,26.69,19.55Z" style="fill: #fff; stroke-width: 0px;"/>
    <polygon points="170.83 89.5 180.87 58.28 153.97 77.59 127.61 58.19 137.93 89.59 111.37 109.02 141.6 109.05 153.79 140.18 167.22 109.03 197.53 109.05 170.83 89.5" style="fill: #002169; stroke-width: 0px;"/>
  </g>
  <g>
    <path d="M0,114.82c30.38,18.73,62.6,8.97,110.18,8.8,6.72-.02,18.67.68,28.41,5.4-31.05-24.55-81.26-1.92-138.59-14.2Z" style="fill: #ea0029; stroke-width: 0px;"/>
    <path d="M26.39,127.52c22.8,10.39,48.51,3.73,85.73,2.4,5.26-.19,14.57-.08,21.94,2.49-23.03-13.85-63.46.96-107.67-4.88Z" style="fill: #ea0029; stroke-width: 0px;"/>
  </g>
  <g>
    <path d="M307.5,114.82c-30.38,18.73-62.6,8.97-110.18,8.8-6.72-.02-18.67.68-28.41,5.4,31.05-24.55,81.26-1.92,138.59-14.2Z" style="fill: #ea0029; stroke-width: 0px;"/>
    <path d="M281.12,127.52c-22.8,10.39-48.51,3.73-85.73,2.4-5.26-.19-14.57-.08-21.94,2.49,23.03-13.85,63.46.96,107.67-4.88Z" style="fill: #ea0029; stroke-width: 0px;"/>
  </g>
</svg>