<svg xmlns="http://www.w3.org/2000/svg" viewBox="0 0 360 163.85"><path d="M100 17.78Q115.21 0 134 0q12.51 0 20.54 7.53t8 20.38q0 18.73-14.2 35.61-15.16 18-34.85 18-12.39 0-20.16-7.55t-7.77-20.13q0-19.02 14.44-36.06zm3.6 52.82q2.78 7 10.07 7a18.13 18.13 0 0 0 12.45-5.07q5.59-5.07 11.6-19.33a108 108 0 0 0 5.94-19 80.44 80.44 0 0 0 2.15-16.13 17.16 17.16 0 0 0-2.89-10q-2.88-4.16-9-4.16-14.43 0-24.27 25.65Q102.19 49 102.19 62a23.45 23.45 0 0 0 1.41 8.6zm55.31 5.77a12.75 12.75 0 0 0 6.11-2c1.31-1 2.41-3.09 3.28-6.24l14.23-52c.41-1.47.72-2.7.93-3.7a13 13 0 0 0 .31-2.63c0-2-.55-3.2-1.64-3.71s-3.37-.91-6.84-1.21v-3h34.5v3a13 13 0 0 0-6.14 2c-1.26 1-2.33 3.08-3.19 6.28l-14.29 52-.91 4c-.08.37-.14.75-.2 1.15a8.77 8.77 0 0 0-.08 1.1c0 2 .53 3.19 1.58 3.71s3.34.94 6.85 1.24v3h-34.5zM264.64 1.7a48.37 48.37 0 0 0 7.55 1.69 3.72 3.72 0 0 0 2.72-.9A10.37 10.37 0 0 0 276.66 0h3.51l-5.89 27.1-3.62-.68c.12-1.62.18-2.57.2-2.86s0-.71 0-1.27q0-9.16-4.3-13.63a14.48 14.48 0 0 0-10.92-4.47q-13.46 0-23.41 17.87-9 16-8.94 32.53 0 12 5.51 16.49a18.79 18.79 0 0 0 12 4.44 26.35 26.35 0 0 0 16-5.6 45.14 45.14 0 0 0 8.15-8.2l3.51 2.54a39.16 39.16 0 0 1-14.26 13.13 36 36 0 0 1-16.74 4.3q-13.92 0-23-8.18t-9.08-21.86a52.19 52.19 0 0 1 13.91-36.26Q233.27 0 252.39 0a47.11 47.11 0 0 1 12.25 1.7zM0 148.82a6.68 6.68 0 0 0 3.25-.82c.93-.66 1.68-2 2.27-4.11l8.25-29.79q.46-1.8.63-2.55a6.66 6.66 0 0 0 .16-1.46 2.41 2.41 0 0 0-1.13-2.29 9.64 9.64 0 0 0-4.1-.7V106h18.4v1.09a10.32 10.32 0 0 0-3.92.89A6.27 6.27 0 0 0 21 112l-3.63 13.12h20.79l3.3-11.93a19.61 19.61 0 0 0 .43-2 9.69 9.69 0 0 0 .1-1.32 2.37 2.37 0 0 0-1.61-2.3 9.87 9.87 0 0 0-3.13-.49V106H53.9v1.09a8 8 0 0 0-3.67 1.1c-.67.52-1.29 1.8-1.86 3.86l-8.21 29.79-.63 2.56c0 .24-.08.48-.11.69a3.67 3.67 0 0 0-.05.66c0 1.27.38 2.09 1.13 2.45a11.42 11.42 0 0 0 4.1.64v1.09H26.2v-1.09a10.12 10.12 0 0 0 3.88-.85 6.42 6.42 0 0 0 2.9-4.11l4.4-15.88H16.55l-3.85 13.82-.62 2.56c0 .24-.08.48-.12.69a4.87 4.87 0 0 0 0 .66c0 1.23.34 2 1 2.39a10.35 10.35 0 0 0 3.73.7v1.09H0zM77.16 123a11.07 11.07 0 0 1 2.27 7q0 7-6.15 13.68-6.34 7-13.54 7a10 10 0 0 1-7.27-2.68q-2.73-2.62-2.73-7.4 0-7.2 6.12-13.77 6.24-6.75 13.51-6.74 5.52 0 7.79 2.91zm-20.37 24.36a4.72 4.72 0 0 0 4 1.79q5.35 0 9.5-8.09a28.56 28.56 0 0 0 3.52-12.75 11.21 11.21 0 0 0-.59-4 4.19 4.19 0 0 0-4.22-2.84q-5 0-9.44 7.53a27.17 27.17 0 0 0-4.14 13.84 7.23 7.23 0 0 0 1.37 4.52zM92.7 110a3.72 3.72 0 0 0 .16-.86 6.51 6.51 0 0 0 0-.69 1.23 1.23 0 0 0-.9-1.36 15.35 15.35 0 0 0-3.57-.22v-1.08l3.42-.46 2.53-.36c1.23-.22 2.73-.55 4.49-1 .16 0 .31.11.47.33l-11 39.52c-.24.94-.38 1.51-.43 1.71a2.88 2.88 0 0 0-.06.59 2.23 2.23 0 0 0 .23 1.07.88.88 0 0 0 .85.44q1.18 0 3.09-2.1a36.09 36.09 0 0 0 3.23-4.08l.88.63a46 46 0 0 1-4.41 5.78c-1.83 1.82-3.66 2.73-5.51 2.73a3.87 3.87 0 0 1-2.11-.59 3.29 3.29 0 0 1-1.41-3 12 12 0 0 1 .26-2.2c.12-.55.27-1.18.46-1.91zm29.18 11.34a5.62 5.62 0 0 1 1 2.46l3.86-13.48a5.44 5.44 0 0 0 .21-1 5.68 5.68 0 0 0 0-.77c0-.86-.16-1.39-.47-1.61a2.41 2.41 0 0 0-1.37-.33h-1l-1.27.1v-1.09q3.73-.48 10.34-1.71l.3.33-.07.37-6.49 23.62-4.41 15.64c-.09.35-.16.67-.22 1a5 5 0 0 0-.08.82 1.28 1.28 0 0 0 .44 1.16 1.55 1.55 0 0 0 .78.26c.64 0 1.55-.56 2.72-1.68.69-.69 1.63-1.74 2.83-3.18l.76.73-.47.69a23.57 23.57 0 0 1-3.14 3.69q-3.42 3.34-6.12 3.34a3.42 3.42 0 0 1-1.63-.4 3 3 0 0 1-1.35-2.83 19.7 19.7 0 0 1 .2-2.2c.13-1 .33-2.11.6-3.31a27.23 27.23 0 0 1-5.48 6.24 10 10 0 0 1-6.5 2.43 7 7 0 0 1-5-2c-1.42-1.36-2.14-3.45-2.14-6.28q0-7.15 6.62-14.71t12.83-7.52a4.67 4.67 0 0 1 3.72 1.22zm-16.37 24.41a3.35 3.35 0 0 0 3.12 1.49q4.71 0 9.05-7.55 4.18-7.09 4.18-13.43a7.33 7.33 0 0 0-.66-3.31 2.7 2.7 0 0 0-2.68-1.32q-5 0-9.73 8.08-4.2 7.23-4.2 12.54a6.48 6.48 0 0 0 .92 3.5zm40.12-25.65a.28.28 0 0 1 .14.28l-6.64 23.48a17 17 0 0 0-.46 2.23 1.79 1.79 0 0 0 .2.86c.11.26.38.39.82.39.75 0 1.73-.64 3-1.94a36.52 36.52 0 0 0 2.67-3.28l.85.72-.33.46a34.15 34.15 0 0 1-4.08 5 7.37 7.37 0 0 1-4.93 2.37 2.88 2.88 0 0 1-2.35-1.18 4.39 4.39 0 0 1-.93-2.8 9 9 0 0 1 .13-1.66c.08-.47.25-1.17.49-2.09l4.64-16.94c.07-.27.12-.51.16-.73a3 3 0 0 0 .07-.66 1.35 1.35 0 0 0-.87-1.46 13.75 13.75 0 0 0-3.43-.28v-1.07q2.7-.33 3.9-.51l2.39-.38c1.05-.18 2-.37 3-.59a4.16 4.16 0 0 1 1.56-.22zm-3.11-8.23a3.67 3.67 0 0 1-1-2.53 3.71 3.71 0 0 1 1-2.57 3 3 0 0 1 2.3-1 3.06 3.06 0 0 1 2.32 1 3.64 3.64 0 0 1 1 2.57 3.59 3.59 0 0 1-1 2.55 3.11 3.11 0 0 1-2.32 1 3 3 0 0 1-2.3-1.02zm6.63 38.04l5.62-20.32q.73-2.58.84-3.12a5.55 5.55 0 0 0 .12-1.18 2 2 0 0 0-.54-1.5 3.07 3.07 0 0 0-2.12-.55 6.66 6.66 0 0 0-.78.05l-.84.12v-1.09c1.42-.22 2.43-.38 3-.49l1.94-.39 5.84-1.29a.66.66 0 0 1 .26.3l-4.35 14.14a77.29 77.29 0 0 1 6.75-9.14q4.77-5.3 8.54-5.3a5.38 5.38 0 0 1 2.52.56 4.06 4.06 0 0 1 2 3.91 8.69 8.69 0 0 1-.16 1.65c-.11.57-.26 1.18-.43 1.84l-4.33 15.75c-.08.33-.18.73-.29 1.2a5.2 5.2 0 0 0-.17 1 1.76 1.76 0 0 0 .23.89.8.8 0 0 0 .74.39 3 3 0 0 0 1.89-1 37.75 37.75 0 0 0 3.5-4.29l.95.85a39.57 39.57 0 0 1-4.19 5.13q-2.64 2.59-5.06 2.6a3.59 3.59 0 0 1-2.12-.74 3.13 3.13 0 0 1-1-2.68 8.16 8.16 0 0 1 .08-1.18 6.82 6.82 0 0 1 .21-1.09l4.2-16a21.14 21.14 0 0 0 .44-2.15 9.74 9.74 0 0 0 .12-1.2 2.41 2.41 0 0 0-.38-1.36 1.49 1.49 0 0 0-1.35-.58q-2.49 0-6.29 4.47a55.69 55.69 0 0 0-4.53 6.34 32.1 32.1 0 0 0-2.7 5.56q-1 2.72-3.14 9.87zm32.54 1.79a20.77 20.77 0 0 1 6-4.42 6.46 6.46 0 0 1-1.35-1.11 2.16 2.16 0 0 1-.52-1.52c0-.9.62-1.93 1.87-3.09a29.06 29.06 0 0 1 3.42-2.6 10.39 10.39 0 0 1-3.61-2.24 7 7 0 0 1-1.85-5 10.35 10.35 0 0 1 3.88-8.25 14.36 14.36 0 0 1 9.6-3.29 12.21 12.21 0 0 1 5.07.94 6 6 0 0 1 2.43 1.56h4.44v2.65h-3.36c.13.48.23.92.3 1.31a11.92 11.92 0 0 1 .09 1.68 9.84 9.84 0 0 1-4.12 8.37 14.62 14.62 0 0 1-8.89 3.06 9 9 0 0 1-.93-.05l-1-.18c-.32 0-.77.31-1.34.95a2.68 2.68 0 0 0-.89 1.71q0 1.11 7.23 3.81t7.2 8a8.77 8.77 0 0 1-3.61 6.92q-3.62 3-10.92 3a13.34 13.34 0 0 1-8-2.17 6.41 6.41 0 0 1-3-5.3 7.13 7.13 0 0 1 1.86-4.74zm16.9 8.83a5.44 5.44 0 0 0 2.58-4.47 4.52 4.52 0 0 0-1.35-3.33 9.6 9.6 0 0 0-2.33-1.54q-1.35-.66-4.55-1.89a21.27 21.27 0 0 0-3.7-1.23c-.57 0-1.68.76-3.32 2.28a6.89 6.89 0 0 0-2.47 5.18 6 6 0 0 0 3.78 6 12.28 12.28 0 0 0 4.87.85 10.76 10.76 0 0 0 6.49-1.85zm-7-24.2a3.88 3.88 0 0 0 3.78 2q3 0 5.28-3.76a15.57 15.57 0 0 0 2.31-8.3 5.45 5.45 0 0 0-.95-3.4 3.38 3.38 0 0 0-2.86-1.24q-3.67 0-5.93 3.92a15.06 15.06 0 0 0-2.25 7.52 7.14 7.14 0 0 0 .6 3.26zm21.02 3.78h1.08a21.67 21.67 0 0 0 1.71 5.82 5.81 5.81 0 0 0 5.4 3.39 4.49 4.49 0 0 0 3.36-1.42 5.12 5.12 0 0 0 1.37-3.75 6.79 6.79 0 0 0-.35-2.36 7.4 7.4 0 0 0-.87-1.68l-2.73-4c-1.64-2.46-2.67-4.1-3.09-4.94a8.2 8.2 0 0 1-1-3.74 7.12 7.12 0 0 1 2.06-5 7.59 7.59 0 0 1 5.83-2.19 13.48 13.48 0 0 1 3.68.61 12.13 12.13 0 0 0 2.83.61 1.89 1.89 0 0 0 1.22-.33 3.33 3.33 0 0 0 .72-.89h1l-1.34 9.34h-1.09a14.92 14.92 0 0 0-1.28-4.8 5.27 5.27 0 0 0-5-3 4.05 4.05 0 0 0-2.58.9 3.19 3.19 0 0 0-1.13 2.65 5.37 5.37 0 0 0 .5 2.37 39.38 39.38 0 0 0 2.32 3.61l2.34 3.36a29.38 29.38 0 0 1 2.56 4.24 8.29 8.29 0 0 1 .76 3.55 7.39 7.39 0 0 1-3 6 11.12 11.12 0 0 1-7.2 2.43 19 19 0 0 1-3.84-.55 23.39 23.39 0 0 0-2.9-.56 1.41 1.41 0 0 0-1 .29 2.73 2.73 0 0 0-.57.89h-1.09zm27.94 4a3.22 3.22 0 0 1 2.56-1 3.47 3.47 0 0 1 2.83 1.35 5.3 5.3 0 0 1 1.06 3.44 8.69 8.69 0 0 1-2.54 6 20.71 20.71 0 0 1-5.15 4.14l-1 .56-.62-1.08a31.76 31.76 0 0 0 3.12-2.47c1.29-1.27 1.94-2.41 1.94-3.42a2.11 2.11 0 0 0-.17-.82 2 2 0 0 0-.46-.69l-.62-.62a8.06 8.06 0 0 1-1.51-1.86 4.65 4.65 0 0 1-.3-1.89 2.77 2.77 0 0 1 .86-1.64zm24.11 4.71a6.73 6.73 0 0 0 3.26-.85c.92-.66 1.67-2 2.27-4.11l8.25-29.79c.3-1.2.51-2 .62-2.55a6.68 6.68 0 0 0 .17-1.46 2.36 2.36 0 0 0-1.06-2.22 9.28 9.28 0 0 0-3.71-.77V106h16.68v1.09a8.22 8.22 0 0 0-3.67 1.13c-.66.52-1.28 1.79-1.85 3.83l-8.25 29.79a29 29 0 0 0-.61 2.6 9.65 9.65 0 0 0-.18 1.54 2.2 2.2 0 0 0 1.16 2.2 9 9 0 0 0 3.44.66v1.09h-16.52zm22.61 1.09l5.63-20.32q.72-2.58.84-3.12a6.31 6.31 0 0 0 .11-1.18 2 2 0 0 0-.54-1.5 3.05 3.05 0 0 0-2.12-.55 6.49 6.49 0 0 0-.77.05l-.84.12v-1.09c1.41-.22 2.42-.38 3-.49s1.24-.24 1.94-.39l5.85-1.29a.72.72 0 0 1 .26.3l-4.36 14.14a77.29 77.29 0 0 1 6.75-9.14q4.77-5.3 8.54-5.3a5.38 5.38 0 0 1 2.52.56 4.06 4.06 0 0 1 2 3.91 8.69 8.69 0 0 1-.16 1.65c-.11.57-.25 1.18-.43 1.84l-4.33 15.75c-.08.33-.18.73-.29 1.2a5.2 5.2 0 0 0-.17 1 1.67 1.67 0 0 0 .24.89.77.77 0 0 0 .73.39 3 3 0 0 0 1.89-1 36.66 36.66 0 0 0 3.5-4.29l1 .85a38.75 38.75 0 0 1-4.19 5.13q-2.64 2.59-5.06 2.6a3.56 3.56 0 0 1-2.11-.74 3.11 3.11 0 0 1-1-2.68 9.88 9.88 0 0 1 .08-1.18 8 8 0 0 1 .22-1.09l4.19-16a18.7 18.7 0 0 0 .44-2.15 9.74 9.74 0 0 0 .12-1.2 2.41 2.41 0 0 0-.38-1.36 1.48 1.48 0 0 0-1.35-.58q-2.49 0-6.29 4.47a55.69 55.69 0 0 0-4.53 6.34 32.84 32.84 0 0 0-2.7 5.56q-1 2.72-3.14 9.87zm58.5-27.91a5.15 5.15 0 0 1 1.77 3.5 3 3 0 0 1-3.09 3.25 2.84 2.84 0 0 1-2-.76 2.44 2.44 0 0 1-.83-1.87 3.75 3.75 0 0 1 .55-1.84 3.87 3.87 0 0 0 .54-1.29 1.2 1.2 0 0 0-.67-1 4.38 4.38 0 0 0-2.16-.41q-5.3 0-9.19 6a23 23 0 0 0-3.89 12.64 9.55 9.55 0 0 0 1.57 5.83 5.56 5.56 0 0 0 4.74 2.11 9.3 9.3 0 0 0 4.91-1.46 19.44 19.44 0 0 0 4.39-3.74l.23-.26.95.72a24.05 24.05 0 0 1-4.43 4.51 14 14 0 0 1-8.38 2.73 9.49 9.49 0 0 1-7.14-2.82 10.53 10.53 0 0 1-2.73-7.67q0-7.47 6.08-13.74t13-6.25q4.01.04 5.78 1.82zm7.82 27.59a3.68 3.68 0 0 1-1.09-2.66 3.76 3.76 0 0 1 3.75-3.73 3.74 3.74 0 0 1 3.75 3.73 3.67 3.67 0 0 1-1.08 2.66 3.61 3.61 0 0 1-2.67 1.11 3.57 3.57 0 0 1-2.66-1.11z" fill="#fff"/></svg>