<svg xmlns="http://www.w3.org/2000/svg" viewBox="0 0 275.11 265.91"><title>direct-white</title><path d="M104.1,16.59a17.61,17.61,0,0,1,1.8-2.09,22.12,22.12,0,0,1,1.64-1.85l-.1.08c.44-.65.89-1.33,1.34-2l1.44-1.91a26.64,26.64,0,0,1,3.35-3.65,9.84,9.84,0,0,1,4.53-2.07,9.21,9.21,0,0,1,4.94.2c-.84.61-1.73,1.23-2.57,1.88a34.37,34.37,0,0,0-2.65,2.24l.12-.08s0,0,0,0c-1.78,2-3.48,4.43-5.38,6.24A9.58,9.58,0,0,1,110.69,15a10,10,0,0,1-2,1.06A10.47,10.47,0,0,1,104.1,16.59Z" fill="#abadb0"/><path d="M115.38,11.78A9.79,9.79,0,0,1,117.5,10c.64-.45,1.26-1.09,2-1.49l-.11.06c1.14-1.08,2.22-2.37,3.42-3.44a25.6,25.6,0,0,1,4-2.91,10.61,10.61,0,0,1,2.31-1A9.47,9.47,0,0,1,131.52.9,11.25,11.25,0,0,1,136.36,2c-.93.55-1.92,1-2.87,1.44s-2,1.11-3,1.66l.13,0s0,0,0,0a57.39,57.39,0,0,1-6.4,5.2A11.44,11.44,0,0,1,120,12,13.34,13.34,0,0,1,115.38,11.78Z" fill="#abadb0"/><path d="M127.33,9a19.92,19.92,0,0,1,2.39-1.48,17.86,17.86,0,0,1,2.19-1.09l-.12,0c2.61-1.68,5.19-4,8.36-4.95a11.48,11.48,0,0,1,5-.54,11.61,11.61,0,0,1,4.57,2c-1,.36-2.06.59-3.07.85A16.08,16.08,0,0,0,143.38,5l.14,0h0a58.07,58.07,0,0,1-7.2,4C133.32,10.51,130.4,10.16,127.33,9Z" fill="#abadb0"/><path d="M139.57,8.37a19,19,0,0,1,2.62-1c.76-.24,1.56-.67,2.35-.84l-.12,0c2.85-1.16,5.77-2.84,9.1-3.42a10.33,10.33,0,0,1,9.12,3.18c-1,.16-2.11.18-3.15.24s-2.31.44-3.43.66h.13c-2.59,1-5.2,1.93-7.78,2.7a9.91,9.91,0,0,1-4.55.12A10,10,0,0,1,139.57,8.37Z" fill="#abadb0"/><path d="M151.76,9.79a17.52,17.52,0,0,1,2.72-.43A22.43,22.43,0,0,1,156.94,9h-.13c.75-.22,1.53-.45,2.33-.67l2.33-.53a26.27,26.27,0,0,1,4.92-.62,10,10,0,0,1,4.79,1.34,9.27,9.27,0,0,1,3.64,3.36c-.53,0-1-.07-1.57-.14l-1.61-.1c-1.17-.1-2.34,0-3.46,0l.14,0h0c-1.36.27-2.69.42-4.08.72a28.24,28.24,0,0,1-4.06.56,9.83,9.83,0,0,1-2.32-.13,11.14,11.14,0,0,1-2.18-.49A10.3,10.3,0,0,1,151.76,9.79Z" fill="#abadb0"/><path d="M0,174.87H7.93L13.41,191h.06L19,174.87h7.9v24.78H21.64v-19h-.07l-6.25,19h-4l-6-19H5.24v19H0Z" fill="#fff"/><path d="M30.44,187.26a14.49,14.49,0,0,1,1-5.39,11.88,11.88,0,0,1,2.67-4.11,11.76,11.76,0,0,1,4.07-2.61,15,15,0,0,1,10.28,0,11.58,11.58,0,0,1,6.73,6.72,15.61,15.61,0,0,1,0,10.78,11.88,11.88,0,0,1-2.67,4.12,11.64,11.64,0,0,1-4.06,2.6,15,15,0,0,1-10.28,0,11.59,11.59,0,0,1-4.07-2.6,12,12,0,0,1-2.67-4.12A14.45,14.45,0,0,1,30.44,187.26Zm5.44,0a9.65,9.65,0,0,0,.52,3.21A7.6,7.6,0,0,0,37.9,193a6.88,6.88,0,0,0,2.34,1.66,8.13,8.13,0,0,0,6.08,0A6.94,6.94,0,0,0,48.65,193a7.6,7.6,0,0,0,1.5-2.52,10.08,10.08,0,0,0,0-6.39,7.4,7.4,0,0,0-1.5-2.54,6.94,6.94,0,0,0-2.33-1.66,8,8,0,0,0-6.08,0,6.88,6.88,0,0,0-2.34,1.66,7.4,7.4,0,0,0-1.5,2.54A9.64,9.64,0,0,0,35.88,187.26Z" fill="#fff"/><path d="M59.67,174.87h9.21a15.84,15.84,0,0,1,3.44.37,8,8,0,0,1,2.86,1.23,6,6,0,0,1,1.95,2.31,8.08,8.08,0,0,1,.72,3.62,7.49,7.49,0,0,1-1.31,4.46,5.85,5.85,0,0,1-3.83,2.33l6.05,10.46H72.47l-5-9.9H64.91v9.9H59.67Zm5.24,10.26H68c.48,0,1,0,1.5,0a4.54,4.54,0,0,0,1.43-.32,2.5,2.5,0,0,0,1.06-.82,2.58,2.58,0,0,0,.42-1.58,2.73,2.73,0,0,0-.37-1.5,2.58,2.58,0,0,0-.94-.86,4.1,4.1,0,0,0-1.31-.4,10.45,10.45,0,0,0-1.45-.11H64.91Z" fill="#fff"/><path d="M103,197.9a18.31,18.31,0,0,1-4.84,1.82,23.2,23.2,0,0,1-5.14.56,14.06,14.06,0,0,1-5.14-.91,11.55,11.55,0,0,1-4.06-2.6,11.74,11.74,0,0,1-2.67-4.12,15.61,15.61,0,0,1,0-10.78,11.58,11.58,0,0,1,6.73-6.72,14.27,14.27,0,0,1,5.14-.91,18.23,18.23,0,0,1,5.26.72,10.21,10.21,0,0,1,4.22,2.47l-3.7,4.2a7.31,7.31,0,0,0-2.42-1.75,8.21,8.21,0,0,0-3.36-.6,7.46,7.46,0,0,0-3,.6,6.94,6.94,0,0,0-2.33,1.66,7.4,7.4,0,0,0-1.5,2.54,10.08,10.08,0,0,0,0,6.39,7.6,7.6,0,0,0,1.5,2.52A6.94,6.94,0,0,0,90,194.65a7.63,7.63,0,0,0,3,.59,9.59,9.59,0,0,0,3-.4,10.88,10.88,0,0,0,2-.82v-4H93.68v-5H103Z" fill="#fff"/><path d="M115.41,174.87h4.34l10.35,24.78h-5.92l-2.05-5.25h-9.24l-2,5.25h-5.78Zm2,7.21-2.89,7.7h5.81Z" fill="#fff"/><path d="M132.48,174.87h7.13l10.11,17.22h.07V174.87H155v24.78h-6.86L137.79,182h-.07v17.64h-5.24Z" fill="#fff"/><path d="M167.33,174.87H173l3.79,15.89h.07l5-15.89h4.88l4.94,16.31h.06l4-16.31h5.31l-7,24.78h-4.66l-5.25-17.15h-.06l-5.25,17.15h-4.5Z" fill="#fff"/><path d="M203.41,174.87h5.24v9.24h10.19v-9.24h5.24v24.78h-5.24V188.94H208.65v10.71h-5.24Z" fill="#fff"/><path d="M228.85,174.87h5.24v24.78h-5.24Z" fill="#fff"/><path d="M243.46,179.7h-6.78v-4.83h18.81v4.83H248.7v20h-5.24Z" fill="#fff"/><path d="M258.35,174.87h16.16v5H263.59v4.62H273.9v5H263.59v5h11.52v5H258.35Z" fill="#fff"/><path d="M100.49,215.63a6.84,6.84,0,0,0-2.24-1.56,7.3,7.3,0,0,0-3-.58,7.26,7.26,0,0,0-5.55,2.39,7.77,7.77,0,0,0-1.49,2.54,9.09,9.09,0,0,0,0,6.06A7.63,7.63,0,0,0,89.68,227a7.19,7.19,0,0,0,2.38,1.74,7.4,7.4,0,0,0,3.17.66,10.37,10.37,0,0,0,2.75-.36,9.94,9.94,0,0,0,2.35-.94v-6.17H95.94v-1.71h6.26v9a13.27,13.27,0,0,1-3.42,1.39,14.19,14.19,0,0,1-3.55.48,9.75,9.75,0,0,1-3.8-.73,9.21,9.21,0,0,1-3.05-2,9.3,9.3,0,0,1-2-3.06,10.62,10.62,0,0,1,0-7.74,9.11,9.11,0,0,1,5.06-5.08,9.93,9.93,0,0,1,3.8-.72,10.57,10.57,0,0,1,3.81.61,8.09,8.09,0,0,1,2.85,1.86Z" fill="#fff"/><path d="M112.89,230.65H111v-18.4h5.66a7.2,7.2,0,0,1,4.44,1.22,4.32,4.32,0,0,1,1.62,3.69,4.6,4.6,0,0,1-1.21,3.24,5.2,5.2,0,0,1-3.49,1.52l5.3,8.73h-2.29l-5-8.55h-3.12Zm0-10.27h3.33a7.31,7.31,0,0,0,2.12-.26,3.85,3.85,0,0,0,1.39-.69,2.55,2.55,0,0,0,.75-1,3.51,3.51,0,0,0,0-2.5,2.65,2.65,0,0,0-.75-1,3.55,3.55,0,0,0-1.39-.69,7.7,7.7,0,0,0-2.12-.25h-3.33Z" fill="#fff"/><path d="M148.27,221.45a10.18,10.18,0,0,1-.72,3.87,9.33,9.33,0,0,1-2,3.06,9.16,9.16,0,0,1-3,2,10.31,10.31,0,0,1-7.62,0,9.16,9.16,0,0,1-3-2,9.33,9.33,0,0,1-2-3.06,10.76,10.76,0,0,1,0-7.74,9.19,9.19,0,0,1,5.06-5.08,10.44,10.44,0,0,1,7.62,0,9.19,9.19,0,0,1,5.06,5.08A10.1,10.1,0,0,1,148.27,221.45Zm-2,0a9,9,0,0,0-.52-3,7.8,7.8,0,0,0-1.5-2.54,7.37,7.37,0,0,0-2.38-1.74,8.05,8.05,0,0,0-6.34,0,7.37,7.37,0,0,0-2.38,1.74,7.8,7.8,0,0,0-1.5,2.54,9.09,9.09,0,0,0,0,6.06,7.65,7.65,0,0,0,1.5,2.53,7.09,7.09,0,0,0,2.38,1.74,7.94,7.94,0,0,0,6.34,0,7.09,7.09,0,0,0,2.38-1.74,7.65,7.65,0,0,0,1.5-2.53A9,9,0,0,0,146.25,221.45Z" fill="#fff"/><path d="M169.07,223.79a11.89,11.89,0,0,1-.27,2.43,6.39,6.39,0,0,1-1,2.38,5.88,5.88,0,0,1-2.06,1.81,8.38,8.38,0,0,1-6.75,0,5.84,5.84,0,0,1-2.05-1.81,6.39,6.39,0,0,1-1-2.38,11.89,11.89,0,0,1-.27-2.43V212.25h1.87v11.33a8.52,8.52,0,0,0,.26,2.28,5.48,5.48,0,0,0,.69,1.6,3.63,3.63,0,0,0,1,1,4.94,4.94,0,0,0,1.07.59,4.07,4.07,0,0,0,1,.27,7.58,7.58,0,0,0,.86.07,7.79,7.79,0,0,0,.85-.07,4.32,4.32,0,0,0,1-.27,5.12,5.12,0,0,0,1.06-.59,3.63,3.63,0,0,0,1-1,5.48,5.48,0,0,0,.69-1.6,8.52,8.52,0,0,0,.26-2.28V212.25h1.87Z" fill="#fff"/><path d="M177.65,212.25H183a7.17,7.17,0,0,1,4.43,1.22,5,5,0,0,1,0,7.39A7.11,7.11,0,0,1,183,222.1h-3.48v8.55h-1.88Zm1.88,8.13h3a7.27,7.27,0,0,0,2.12-.26,3.85,3.85,0,0,0,1.39-.69,2.48,2.48,0,0,0,.76-1,3.51,3.51,0,0,0,0-2.5,2.58,2.58,0,0,0-.76-1,3.55,3.55,0,0,0-1.39-.69,7.66,7.66,0,0,0-2.12-.25h-3Z" fill="#fff"/><path d="M26,264.78h-.92l1.63-9.21h.92Z" fill="#abadb0"/><path d="M30.25,258.69c0,.17,0,.35-.06.55s-.06.36-.08.49h0a2.61,2.61,0,0,1,.91-.87,2.25,2.25,0,0,1,1.18-.32,2.16,2.16,0,0,1,1.54.5,1.73,1.73,0,0,1,.56,1.36c0,.1,0,.2,0,.31s0,.21,0,.34l-.67,3.73h-.87l.6-3.37a4.16,4.16,0,0,0,.07-.77,1.58,1.58,0,0,0-.3-1,1.31,1.31,0,0,0-1-.37,1.76,1.76,0,0,0-.7.15,2.06,2.06,0,0,0-.66.44,3.14,3.14,0,0,0-.54.75,3.77,3.77,0,0,0-.34,1.06l-.54,3.12h-.87l.83-4.75c0-.16.07-.38.11-.64s.07-.49.09-.7Z" fill="#abadb0"/><path d="M40,260a1.42,1.42,0,0,0-.54-.55,1.75,1.75,0,0,0-.87-.22,2.12,2.12,0,0,0-.49.06,1.47,1.47,0,0,0-.47.17,1,1,0,0,0-.35.3.78.78,0,0,0-.14.46.83.83,0,0,0,.09.41.66.66,0,0,0,.24.26,1.61,1.61,0,0,0,.37.2l.51.16a3.57,3.57,0,0,1,1.37.66,1.39,1.39,0,0,1,.47,1.12,1.56,1.56,0,0,1-.23.85,1.83,1.83,0,0,1-.55.59,2.47,2.47,0,0,1-.76.33,3.34,3.34,0,0,1-.82.1,3.58,3.58,0,0,1-1.43-.28,2.23,2.23,0,0,1-1-.86l.75-.5a1.82,1.82,0,0,0,.67.65,1.89,1.89,0,0,0,1,.27,2.6,2.6,0,0,0,.56-.06,1.52,1.52,0,0,0,.49-.19,1,1,0,0,0,.34-.32.86.86,0,0,0,.13-.48.81.81,0,0,0-.38-.73,4.27,4.27,0,0,0-1.1-.49l-.54-.21a1.83,1.83,0,0,1-.5-.31,1.59,1.59,0,0,1-.36-.45,1.45,1.45,0,0,1-.13-.65,1.53,1.53,0,0,1,.21-.81,1.92,1.92,0,0,1,.55-.55,2.54,2.54,0,0,1,.75-.32,3.31,3.31,0,0,1,.83-.1,2.8,2.8,0,0,1,1.25.27,1.69,1.69,0,0,1,.8.73Z" fill="#abadb0"/><path d="M45.92,264.78c0-.17,0-.35.06-.55s.05-.36.08-.49h0a2.5,2.5,0,0,1-.9.87,2.25,2.25,0,0,1-1.18.32,2.23,2.23,0,0,1-1.54-.49,1.71,1.71,0,0,1-.55-1.35c0-.11,0-.21,0-.32s0-.21,0-.33l.68-3.73h.87l-.6,3.36a4.48,4.48,0,0,0-.08.77,1.53,1.53,0,0,0,.3,1,1.31,1.31,0,0,0,1,.37,1.73,1.73,0,0,0,.7-.15,2.08,2.08,0,0,0,.66-.43,2.87,2.87,0,0,0,.53-.75,3.41,3.41,0,0,0,.34-1.05l.55-3.12h.87L47,263.45c0,.17-.08.38-.12.64s-.06.48-.08.69Z" fill="#abadb0"/><path d="M50.09,259.39c0-.26.07-.49.09-.7H51c0,.17,0,.35-.06.55s-.06.36-.08.49h0a2.94,2.94,0,0,1,.86-.86,2.15,2.15,0,0,1,1.17-.33h.3l.27.05-.2.83-.24-.05a2.17,2.17,0,0,0-.36,0,1.8,1.8,0,0,0-.69.13,1.64,1.64,0,0,0-.62.41,2.61,2.61,0,0,0-.49.71,3.61,3.61,0,0,0-.32,1.05L50,264.78h-.87L50,260A5.19,5.19,0,0,0,50.09,259.39Z" fill="#abadb0"/><path d="M58,261.05c0-.15,0-.27,0-.35a2,2,0,0,0,0-.23,1.07,1.07,0,0,0-.38-.93,1.77,1.77,0,0,0-1-.28,2.76,2.76,0,0,0-1.06.22,2.85,2.85,0,0,0-.84.51l-.39-.58a3.4,3.4,0,0,1,1.09-.63,3.66,3.66,0,0,1,2.11-.15,1.83,1.83,0,0,1,.69.32,1.53,1.53,0,0,1,.47.54,1.66,1.66,0,0,1,.17.8c0,.08,0,.19,0,.32a2.29,2.29,0,0,1,0,.33l-.44,2.47c0,.24-.08.48-.1.73a5.33,5.33,0,0,0,0,.64H57.5a4,4,0,0,1,0-.48,4,4,0,0,1,.06-.51h0a4.13,4.13,0,0,1-.52.51,2.27,2.27,0,0,1-.54.35,3,3,0,0,1-.6.19,4.86,4.86,0,0,1-.69.05,2.85,2.85,0,0,1-.64-.07,2,2,0,0,1-.59-.27,1.48,1.48,0,0,1-.44-.49,1.4,1.4,0,0,1-.18-.74,1.67,1.67,0,0,1,.42-1.18,2.63,2.63,0,0,1,1.08-.68,6.12,6.12,0,0,1,1.5-.33A15.74,15.74,0,0,1,58,261.05Zm-.32.66q-.59,0-1.2.06a5.07,5.07,0,0,0-1.11.22,2.22,2.22,0,0,0-.82.45,1,1,0,0,0-.32.78,1.06,1.06,0,0,0,.1.47.81.81,0,0,0,.28.3,1.35,1.35,0,0,0,.41.16,2.32,2.32,0,0,0,.46,0,2.39,2.39,0,0,0,.86-.15,2.43,2.43,0,0,0,.69-.43,3,3,0,0,0,.49-.63,2.66,2.66,0,0,0,.27-.76l.09-.51Z" fill="#abadb0"/><path d="M62.33,258.69c0,.17,0,.35-.06.55s-.05.36-.08.49h0a2.5,2.5,0,0,1,.9-.87,2.28,2.28,0,0,1,1.18-.32,2.21,2.21,0,0,1,1.55.5,1.72,1.72,0,0,1,.55,1.36,1.67,1.67,0,0,1,0,.31c0,.1,0,.21,0,.34l-.67,3.73h-.88l.6-3.37a4.2,4.2,0,0,0,.08-.77,1.58,1.58,0,0,0-.3-1,1.32,1.32,0,0,0-1.06-.37,1.8,1.8,0,0,0-.7.15,1.92,1.92,0,0,0-.65.44,2.67,2.67,0,0,0-.54.75,3.48,3.48,0,0,0-.34,1.06l-.55,3.12h-.87l.83-4.75a5.19,5.19,0,0,0,.11-.64c0-.26.07-.49.09-.7Z" fill="#abadb0"/><path d="M73.05,260.07a1.36,1.36,0,0,0-.54-.58,1.72,1.72,0,0,0-.88-.23,2.44,2.44,0,0,0-1.08.24,2.68,2.68,0,0,0-.85.64,3.07,3.07,0,0,0-.56,1,3.13,3.13,0,0,0-.2,1.15,2.2,2.2,0,0,0,.13.78,1.61,1.61,0,0,0,.38.61,1.64,1.64,0,0,0,.62.41,2.15,2.15,0,0,0,.83.16,2.26,2.26,0,0,0,1-.23,2.37,2.37,0,0,0,.76-.57l.56.48a3.71,3.71,0,0,1-1,.76,3.06,3.06,0,0,1-1.36.28,3.26,3.26,0,0,1-1.17-.19,2.52,2.52,0,0,1-.9-.53,2.25,2.25,0,0,1-.57-.82,2.83,2.83,0,0,1-.2-1.07,4,4,0,0,1,.27-1.47,3.51,3.51,0,0,1,.74-1.2,3.42,3.42,0,0,1,1.15-.81,3.64,3.64,0,0,1,1.49-.3,3.34,3.34,0,0,1,1.27.24,1.8,1.8,0,0,1,.89.78Z" fill="#abadb0"/><path d="M75.35,262a.77.77,0,0,0,0,.15.66.66,0,0,0,0,.14,2,2,0,0,0,.15.78,1.86,1.86,0,0,0,1,1,2,2,0,0,0,.77.15,2.39,2.39,0,0,0,1.25-.32,3.18,3.18,0,0,0,.86-.75l.55.52a3.52,3.52,0,0,1-1.24.95,3.47,3.47,0,0,1-1.49.32,3.3,3.3,0,0,1-1.1-.18,2.46,2.46,0,0,1-.87-.52,2.32,2.32,0,0,1-.59-.84,2.9,2.9,0,0,1-.21-1.14,3.83,3.83,0,0,1,1-2.6,3.83,3.83,0,0,1,1.12-.81,3.2,3.2,0,0,1,1.38-.3,2.53,2.53,0,0,1,1.89.66,2.35,2.35,0,0,1,.64,1.72,4.75,4.75,0,0,1-.11,1.05Zm4.25-.65c0-.07,0-.15,0-.23v-.23a1.59,1.59,0,0,0-.43-1.15,1.64,1.64,0,0,0-1.26-.45,2.39,2.39,0,0,0-.89.17,2.62,2.62,0,0,0-.73.45,2.75,2.75,0,0,0-.53.65,2.58,2.58,0,0,0-.32.79Z" fill="#abadb0"/><path d="M89.58,261.05c0-.15,0-.27,0-.35a2,2,0,0,0,0-.23,1.07,1.07,0,0,0-.38-.93,1.77,1.77,0,0,0-1-.28,2.76,2.76,0,0,0-1.06.22,3,3,0,0,0-.84.51l-.39-.58a3.4,3.4,0,0,1,1.09-.63,3.66,3.66,0,0,1,2.11-.15,1.83,1.83,0,0,1,.69.32,1.53,1.53,0,0,1,.47.54,1.66,1.66,0,0,1,.18.8c0,.08,0,.19,0,.32a2.29,2.29,0,0,1,0,.33L90,263.41c0,.24-.08.48-.1.73a5.33,5.33,0,0,0,0,.64h-.78c0-.15,0-.31,0-.48a4,4,0,0,1,.06-.51h0a4.13,4.13,0,0,1-.52.51,2.27,2.27,0,0,1-.54.35,2.81,2.81,0,0,1-.6.19,4.86,4.86,0,0,1-.69.05,2.85,2.85,0,0,1-.64-.07,2,2,0,0,1-.59-.27,1.48,1.48,0,0,1-.44-.49,1.4,1.4,0,0,1-.18-.74,1.67,1.67,0,0,1,.42-1.18,2.63,2.63,0,0,1,1.08-.68,6.12,6.12,0,0,1,1.5-.33A15.74,15.74,0,0,1,89.58,261.05Zm-.32.66q-.58,0-1.2.06A5.07,5.07,0,0,0,87,262a2.3,2.3,0,0,0-.82.45,1,1,0,0,0-.32.78.93.93,0,0,0,.11.47.72.72,0,0,0,.27.3,1.35,1.35,0,0,0,.41.16,2.32,2.32,0,0,0,.46,0,2.39,2.39,0,0,0,.86-.15,2.43,2.43,0,0,0,.69-.43,2.52,2.52,0,0,0,.76-1.39l.09-.51Z" fill="#abadb0"/><path d="M93.88,258.69c0,.17,0,.35-.06.55s0,.36-.08.49h0a2.5,2.5,0,0,1,.9-.87,2.28,2.28,0,0,1,1.18-.32,2.21,2.21,0,0,1,1.55.5A1.72,1.72,0,0,1,98,260.4a1.67,1.67,0,0,1,0,.31c0,.1,0,.21,0,.34l-.67,3.73h-.88l.6-3.37a4.2,4.2,0,0,0,.08-.77,1.58,1.58,0,0,0-.3-1,1.31,1.31,0,0,0-1-.37,1.81,1.81,0,0,0-.71.15,1.92,1.92,0,0,0-.65.44,2.67,2.67,0,0,0-.54.75,3.48,3.48,0,0,0-.34,1.06l-.55,3.12H92l.83-4.75c0-.16.08-.38.12-.64s.06-.49.08-.7Z" fill="#abadb0"/><path d="M99.49,262.31a4.21,4.21,0,0,1,.26-1.47,3.69,3.69,0,0,1,.75-1.2,3.56,3.56,0,0,1,1.14-.8,3.38,3.38,0,0,1,1.42-.3,2.64,2.64,0,0,1,1.24.3,2,2,0,0,1,.88.88h0l.84-4.77h.87l-1.74,9.83h-.87l.18-1h0a2.56,2.56,0,0,1-.9.81,2.64,2.64,0,0,1-1.34.34,3,3,0,0,1-1.12-.19,2.4,2.4,0,0,1-.87-.53,2.53,2.53,0,0,1-.56-.84A2.78,2.78,0,0,1,99.49,262.31Zm.91-.06a2.39,2.39,0,0,0,.12.77,1.86,1.86,0,0,0,.37.62,1.65,1.65,0,0,0,.6.41,2.07,2.07,0,0,0,.82.16,2.39,2.39,0,0,0,1.06-.24,2.72,2.72,0,0,0,.86-.64,2.87,2.87,0,0,0,.57-.95,3.13,3.13,0,0,0,.21-1.15,2.26,2.26,0,0,0-.13-.79,2.13,2.13,0,0,0-.4-.62,1.64,1.64,0,0,0-.62-.41,2.16,2.16,0,0,0-.81-.15,2.45,2.45,0,0,0-1.09.24,2.6,2.6,0,0,0-.83.64,2.66,2.66,0,0,0-.54.94A3.42,3.42,0,0,0,100.4,262.25Z" fill="#abadb0"/><path d="M110.55,264.78h-1.07l5.93-9.21h.91l1.91,9.21h-1l-.5-2.42h-4.7Zm2-3.28h4l-1-4.89Z" fill="#abadb0"/><path d="M119.62,262.31a4,4,0,0,1,.27-1.47,3.69,3.69,0,0,1,.75-1.2,3.56,3.56,0,0,1,1.14-.8,3.35,3.35,0,0,1,1.42-.3,2.64,2.64,0,0,1,1.24.3,2,2,0,0,1,.88.88h0l.85-4.77h.87l-1.74,9.83h-.87l.18-1h0a2.61,2.61,0,0,1-.89.81,2.64,2.64,0,0,1-1.34.34,3.12,3.12,0,0,1-1.13-.19,2.44,2.44,0,0,1-.86-.53,2.53,2.53,0,0,1-.56-.84A2.78,2.78,0,0,1,119.62,262.31Zm.91-.06a2.39,2.39,0,0,0,.13.77,1.71,1.71,0,0,0,.37.62,1.5,1.5,0,0,0,.6.41,2,2,0,0,0,.82.16,2.39,2.39,0,0,0,1.06-.24,2.72,2.72,0,0,0,.86-.64,3.25,3.25,0,0,0,.57-.95,3.13,3.13,0,0,0,.21-1.15,2.26,2.26,0,0,0-.14-.79,1.91,1.91,0,0,0-.39-.62,1.68,1.68,0,0,0-.63-.41,2.07,2.07,0,0,0-.8-.15,2.45,2.45,0,0,0-1.09.24,2.76,2.76,0,0,0-.84.64,3,3,0,0,0-.54.94A3.68,3.68,0,0,0,120.53,262.25Z" fill="#abadb0"/><path d="M135.44,258.54a2.21,2.21,0,0,1,1.55.5,1.75,1.75,0,0,1,.55,1.36c0,.1,0,.2,0,.31s0,.21-.05.34l-.67,3.73h-.87l.59-3.37a3.48,3.48,0,0,0,.08-.77,1.58,1.58,0,0,0-.3-1,1.31,1.31,0,0,0-1.05-.37,1.61,1.61,0,0,0-.82.2,1.83,1.83,0,0,0-.59.52,2.67,2.67,0,0,0-.38.73,5.6,5.6,0,0,0-.21.83l-.57,3.24h-.87l.63-3.54a4.6,4.6,0,0,0,.08-.79,1.31,1.31,0,0,0-.27-.87,1.17,1.17,0,0,0-.94-.32,1.61,1.61,0,0,0-.65.15,2,2,0,0,0-.64.44,3.43,3.43,0,0,0-.53.75,3.77,3.77,0,0,0-.34,1.06l-.54,3.12h-.87l.83-4.75c0-.16.07-.38.11-.64a6.84,6.84,0,0,0,.08-.7h.84c0,.17,0,.35-.07.55s-.05.36-.08.49h0a2.79,2.79,0,0,1,.91-.87,2.25,2.25,0,0,1,1.2-.32,2.32,2.32,0,0,1,.51,0,1.39,1.39,0,0,1,.51.2,1.45,1.45,0,0,1,.42.4,1.4,1.4,0,0,1,.26.63,2.66,2.66,0,0,1,.9-.95A2.38,2.38,0,0,1,135.44,258.54Z" fill="#abadb0"/><path d="M140,264.78h-.87l1.08-6.09h.87Zm1.6-8.44a.64.64,0,0,1-.17.44.6.6,0,0,1-.44.18.64.64,0,0,1-.42-.15.55.55,0,0,1-.18-.43.64.64,0,0,1,.19-.46.62.62,0,0,1,.44-.18.57.57,0,0,1,.58.6Z" fill="#abadb0"/><path d="M144.22,258.69c0,.17,0,.35-.06.55s-.06.36-.08.49h0a2.61,2.61,0,0,1,.91-.87,2.25,2.25,0,0,1,1.18-.32,2.16,2.16,0,0,1,1.54.5,1.73,1.73,0,0,1,.56,1.36c0,.1,0,.2,0,.31s0,.21,0,.34l-.68,3.73h-.87l.6-3.37a4.16,4.16,0,0,0,.07-.77,1.58,1.58,0,0,0-.3-1,1.31,1.31,0,0,0-1.05-.37,1.76,1.76,0,0,0-.7.15,2.06,2.06,0,0,0-.66.44,3.14,3.14,0,0,0-.54.75,3.48,3.48,0,0,0-.33,1.06l-.55,3.12h-.87l.83-4.75c0-.16.07-.38.11-.64s.07-.49.09-.7Z" fill="#abadb0"/><path d="M150.73,264.78h-.87l1.08-6.09h.87Zm1.6-8.44a.64.64,0,0,1-.17.44.59.59,0,0,1-.44.18.64.64,0,0,1-.42-.15.55.55,0,0,1-.18-.43.64.64,0,0,1,.19-.46.62.62,0,0,1,.44-.18.6.6,0,0,1,.41.16A.57.57,0,0,1,152.33,256.34Z" fill="#abadb0"/><path d="M157.23,260a1.42,1.42,0,0,0-.54-.55,1.75,1.75,0,0,0-.87-.22,2.12,2.12,0,0,0-.49.06,1.47,1.47,0,0,0-.47.17,1,1,0,0,0-.35.3.78.78,0,0,0-.14.46.83.83,0,0,0,.09.41.66.66,0,0,0,.24.26,1.5,1.5,0,0,0,.38.2c.14.05.31.11.5.16a3.57,3.57,0,0,1,1.37.66,1.39,1.39,0,0,1,.47,1.12,1.56,1.56,0,0,1-.23.85,1.83,1.83,0,0,1-.55.59,2.47,2.47,0,0,1-.76.33,3.34,3.34,0,0,1-.82.1,3.58,3.58,0,0,1-1.43-.28,2.23,2.23,0,0,1-1-.86l.75-.5a1.82,1.82,0,0,0,.67.65,1.89,1.89,0,0,0,1,.27,2.6,2.6,0,0,0,.56-.06,1.52,1.52,0,0,0,.49-.19,1,1,0,0,0,.34-.32.86.86,0,0,0,.13-.48.81.81,0,0,0-.38-.73,4.27,4.27,0,0,0-1.1-.49l-.54-.21a1.83,1.83,0,0,1-.5-.31,1.56,1.56,0,0,1-.35-.45,1.33,1.33,0,0,1-.14-.65,1.53,1.53,0,0,1,.21-.81,1.92,1.92,0,0,1,.55-.55,2.54,2.54,0,0,1,.75-.32,3.31,3.31,0,0,1,.83-.1,2.8,2.8,0,0,1,1.25.27,1.69,1.69,0,0,1,.8.73Z" fill="#abadb0"/><path d="M162.34,259.42h-1.65l-.64,3.57a3.44,3.44,0,0,0,0,.42c0,.29.06.48.2.57a.92.92,0,0,0,.55.15,1.55,1.55,0,0,0,.4-.06,1,1,0,0,0,.34-.15l-.1.75a1.52,1.52,0,0,1-.44.14,3.43,3.43,0,0,1-.56,0,1.73,1.73,0,0,1-.45-.05,1,1,0,0,1-.42-.19,1,1,0,0,1-.31-.37,1.26,1.26,0,0,1-.12-.59,2.19,2.19,0,0,1,0-.42l.67-3.81h-1.26l.14-.73h1.24l.3-1.71h.87l-.3,1.71h1.68Z" fill="#abadb0"/><path d="M163.81,259.39c0-.26.06-.49.08-.7h.83c0,.17,0,.35-.06.55s-.06.36-.08.49h0a2.94,2.94,0,0,1,.86-.86,2.15,2.15,0,0,1,1.17-.33h.3l.27.05-.2.83-.24-.05a2.17,2.17,0,0,0-.36,0,1.8,1.8,0,0,0-.69.13,1.64,1.64,0,0,0-.62.41,2.61,2.61,0,0,0-.49.71,3.61,3.61,0,0,0-.32,1.05l-.55,3.12h-.87l.83-4.75C163.73,259.87,163.77,259.65,163.81,259.39Z" fill="#abadb0"/><path d="M171.74,261.05c0-.15,0-.27,0-.35a2,2,0,0,0,0-.23,1.07,1.07,0,0,0-.38-.93,1.77,1.77,0,0,0-1.05-.28,2.76,2.76,0,0,0-1.06.22,3,3,0,0,0-.84.51l-.39-.58a3.4,3.4,0,0,1,1.09-.63,3.66,3.66,0,0,1,2.11-.15,1.83,1.83,0,0,1,.69.32,1.53,1.53,0,0,1,.47.54,1.66,1.66,0,0,1,.18.8c0,.08,0,.19,0,.32a2.29,2.29,0,0,1,0,.33l-.44,2.47c0,.24-.08.48-.1.73a5.33,5.33,0,0,0,0,.64h-.78c0-.15,0-.31,0-.48a4,4,0,0,1,.06-.51h0a4.13,4.13,0,0,1-.52.51,2.27,2.27,0,0,1-.54.35,3,3,0,0,1-.6.19,4.86,4.86,0,0,1-.69.05,2.85,2.85,0,0,1-.64-.07,2,2,0,0,1-.59-.27,1.48,1.48,0,0,1-.44-.49,1.4,1.4,0,0,1-.18-.74,1.67,1.67,0,0,1,.42-1.18,2.63,2.63,0,0,1,1.08-.68,6.12,6.12,0,0,1,1.5-.33A15.74,15.74,0,0,1,171.74,261.05Zm-.32.66q-.58,0-1.2.06a5.07,5.07,0,0,0-1.11.22,2.22,2.22,0,0,0-.82.45,1,1,0,0,0-.32.78.93.93,0,0,0,.11.47.79.79,0,0,0,.27.3,1.35,1.35,0,0,0,.41.16,2.32,2.32,0,0,0,.46,0,2.39,2.39,0,0,0,.86-.15,2.43,2.43,0,0,0,.69-.43,2.52,2.52,0,0,0,.76-1.39l.09-.51Z" fill="#abadb0"/><path d="M177.51,259.42h-1.65l-.63,3.57a2.27,2.27,0,0,0,0,.42.66.66,0,0,0,.2.57.94.94,0,0,0,.55.15,1.49,1.49,0,0,0,.4-.06,1,1,0,0,0,.34-.15l-.1.75a1.52,1.52,0,0,1-.44.14,3.36,3.36,0,0,1-.56,0,1.73,1.73,0,0,1-.45-.05,1,1,0,0,1-.42-.19,1,1,0,0,1-.31-.37,1.26,1.26,0,0,1-.12-.59,2.19,2.19,0,0,1,0-.42l.67-3.81h-1.26l.14-.73h1.24l.3-1.71h.87l-.3,1.71h1.68Z" fill="#abadb0"/><path d="M178.92,264.78h-.87l1.08-6.09H180Zm1.6-8.44a.6.6,0,0,1-.18.44.59.59,0,0,1-.44.18.64.64,0,0,1-.42-.15.58.58,0,0,1-.17-.43.6.6,0,0,1,.19-.46.6.6,0,0,1,.43-.18.63.63,0,0,1,.42.16A.6.6,0,0,1,180.52,256.34Z" fill="#abadb0"/><path d="M183.48,264.78h-.94l-1.27-6.09h.9l1,5.15h0l3-5.15h1Z" fill="#abadb0"/><path d="M188.38,262s0,.1,0,.15,0,.09,0,.14a2,2,0,0,0,.15.78,1.89,1.89,0,0,0,.42.62,2.13,2.13,0,0,0,.62.4,2,2,0,0,0,.78.15,2.45,2.45,0,0,0,1.25-.32,3.13,3.13,0,0,0,.85-.75l.55.52a3.52,3.52,0,0,1-1.24.95,3.41,3.41,0,0,1-1.49.32,3.24,3.24,0,0,1-1.09-.18,2.5,2.5,0,0,1-.88-.52,2.3,2.3,0,0,1-.58-.84,2.73,2.73,0,0,1-.22-1.14,3.76,3.76,0,0,1,.27-1.41,4.15,4.15,0,0,1,.75-1.19,4,4,0,0,1,1.12-.81,3.23,3.23,0,0,1,1.38-.3,2.54,2.54,0,0,1,1.9.66,2.39,2.39,0,0,1,.64,1.72c0,.1,0,.26,0,.47a2.61,2.61,0,0,1-.09.58Zm4.25-.65a1.64,1.64,0,0,0,0-.23,1.85,1.85,0,0,0,0-.23,1.59,1.59,0,0,0-.43-1.15,1.67,1.67,0,0,0-1.26-.45,2.44,2.44,0,0,0-1.62.62,3.06,3.06,0,0,0-.54.65,2.55,2.55,0,0,0-.31.79Z" fill="#abadb0"/><path d="M204,257a2,2,0,0,0-.71-.61,2.41,2.41,0,0,0-1.1-.25,3.15,3.15,0,0,0-.8.11,2.57,2.57,0,0,0-.73.34,2,2,0,0,0-.53.58,1.61,1.61,0,0,0-.2.82,1.32,1.32,0,0,0,.13.62,1.47,1.47,0,0,0,.36.46,2.54,2.54,0,0,0,.53.34l.66.27c.27.1.54.22.82.35a3.43,3.43,0,0,1,.75.48,2.35,2.35,0,0,1,.55.67,1.88,1.88,0,0,1,.2.91,3.23,3.23,0,0,1-.16,1,2.8,2.8,0,0,1-.56.95,3,3,0,0,1-1,.71,3.87,3.87,0,0,1-1.57.28,4,4,0,0,1-1.63-.34,2.54,2.54,0,0,1-1.19-1l.83-.54a2.16,2.16,0,0,0,.78.78,2.34,2.34,0,0,0,1.25.32,3,3,0,0,0,.89-.14,2.27,2.27,0,0,0,.74-.39,1.88,1.88,0,0,0,.5-.62,1.79,1.79,0,0,0,.18-.81,1.3,1.3,0,0,0-.16-.67,1.41,1.41,0,0,0-.42-.49,2.83,2.83,0,0,0-.61-.37l-.73-.3a5.82,5.82,0,0,1-.77-.34,2.88,2.88,0,0,1-.66-.46,2.35,2.35,0,0,1-.47-.65,2.06,2.06,0,0,1-.17-.86,2.62,2.62,0,0,1,.22-1.09,2.44,2.44,0,0,1,.64-.88,3.08,3.08,0,0,1,1-.59,4.29,4.29,0,0,1,1.4-.21,3.82,3.82,0,0,1,1.59.3,2.17,2.17,0,0,1,.95.79Z" fill="#abadb0"/><path d="M208.22,264.93a3.15,3.15,0,0,1-1.13-.19,2.56,2.56,0,0,1-.89-.54,2.44,2.44,0,0,1-.58-.83,2.74,2.74,0,0,1-.21-1.08,3.93,3.93,0,0,1,.27-1.45,3.44,3.44,0,0,1,.75-1.19,3.58,3.58,0,0,1,1.14-.81,3.48,3.48,0,0,1,1.45-.3,3.17,3.17,0,0,1,1.14.19,2.36,2.36,0,0,1,1.46,1.37,2.61,2.61,0,0,1,.21,1.06,4.21,4.21,0,0,1-.26,1.47,3.69,3.69,0,0,1-.75,1.2,3.55,3.55,0,0,1-2.6,1.1Zm2.7-3.71a2.2,2.2,0,0,0-.13-.78,1.61,1.61,0,0,0-.38-.61,1.75,1.75,0,0,0-.61-.42,2.18,2.18,0,0,0-.82-.15,2.2,2.2,0,0,0-1,.25,2.5,2.5,0,0,0-.83.65,3.07,3.07,0,0,0-.55.95,3.11,3.11,0,0,0-.2,1.14,2.2,2.2,0,0,0,.13.78,1.74,1.74,0,0,0,1,1,2.09,2.09,0,0,0,.81.16,2.41,2.41,0,0,0,1.07-.25,2.6,2.6,0,0,0,.83-.64,2.89,2.89,0,0,0,.55-.95A3.34,3.34,0,0,0,210.92,261.22Z" fill="#abadb0"/><path d="M214.1,264.78h-.89l1.73-9.83h.88Z" fill="#abadb0"/><path d="M220.73,264.78c0-.17,0-.35.06-.55s.05-.36.08-.49h0a2.5,2.5,0,0,1-.9.87,2.25,2.25,0,0,1-1.18.32,2.23,2.23,0,0,1-1.54-.49,1.71,1.71,0,0,1-.55-1.35c0-.11,0-.21,0-.32s0-.21,0-.33l.68-3.73h.87l-.6,3.36a4.48,4.48,0,0,0-.08.77,1.53,1.53,0,0,0,.3,1,1.31,1.31,0,0,0,1,.37,1.73,1.73,0,0,0,.7-.15,2.08,2.08,0,0,0,.66-.43,2.87,2.87,0,0,0,.53-.75,3.41,3.41,0,0,0,.34-1.05l.55-3.12h.87l-.83,4.74c0,.17-.08.38-.12.64s-.06.48-.08.69Z" fill="#abadb0"/><path d="M227.43,259.42h-1.65l-.63,3.57a2.27,2.27,0,0,0,0,.42.66.66,0,0,0,.2.57.92.92,0,0,0,.55.15,1.49,1.49,0,0,0,.4-.06,1,1,0,0,0,.34-.15l-.1.75a1.52,1.52,0,0,1-.44.14,3.43,3.43,0,0,1-.56,0,1.73,1.73,0,0,1-.45-.05,1,1,0,0,1-.42-.19,1,1,0,0,1-.31-.37,1.26,1.26,0,0,1-.12-.59,3.31,3.31,0,0,1,0-.42l.68-3.81h-1.26l.14-.73H225l.3-1.71h.87l-.3,1.71h1.68Z" fill="#abadb0"/><path d="M228.84,264.78H228l1.07-6.09h.88Zm1.6-8.44a.6.6,0,0,1-.18.44.59.59,0,0,1-.44.18.64.64,0,0,1-.42-.15.54.54,0,0,1-.17-.43.6.6,0,0,1,.19-.46.6.6,0,0,1,.43-.18.63.63,0,0,1,.42.16A.6.6,0,0,1,230.44,256.34Z" fill="#abadb0"/><path d="M234,264.93a3.23,3.23,0,0,1-1.13-.19,2.76,2.76,0,0,1-.89-.54,2.58,2.58,0,0,1-.58-.83,2.92,2.92,0,0,1-.2-1.08,4.14,4.14,0,0,1,.26-1.45,3.76,3.76,0,0,1,.75-1.19,3.58,3.58,0,0,1,1.14-.81,3.53,3.53,0,0,1,1.46-.3,3.17,3.17,0,0,1,1.14.19,2.53,2.53,0,0,1,.88.53,2.59,2.59,0,0,1,.79,1.9,4,4,0,0,1-.27,1.47,3.69,3.69,0,0,1-.75,1.2,3.56,3.56,0,0,1-1.14.8A3.5,3.5,0,0,1,234,264.93Zm2.71-3.71a2.2,2.2,0,0,0-.13-.78,1.75,1.75,0,0,0-.38-.61,1.79,1.79,0,0,0-.62-.42,2.1,2.1,0,0,0-.82-.15,2.2,2.2,0,0,0-1.05.25,2.6,2.6,0,0,0-.83.65,3.29,3.29,0,0,0-.55.95,3.33,3.33,0,0,0-.2,1.14,2.45,2.45,0,0,0,.13.78,1.91,1.91,0,0,0,.38.61,1.69,1.69,0,0,0,.61.41,2.09,2.09,0,0,0,.81.16,2.37,2.37,0,0,0,1.07-.25,2.54,2.54,0,0,0,.84-.64,3.05,3.05,0,0,0,.54-.95A3.35,3.35,0,0,0,236.69,261.22Z" fill="#abadb0"/><path d="M240.82,258.69c0,.17,0,.35-.06.55s0,.36-.08.49h0a2.5,2.5,0,0,1,.9-.87,2.25,2.25,0,0,1,1.18-.32,2.21,2.21,0,0,1,1.55.5,1.72,1.72,0,0,1,.55,1.36,1.67,1.67,0,0,1,0,.31c0,.1,0,.21,0,.34l-.68,3.73h-.87l.6-3.37a4.2,4.2,0,0,0,.08-.77,1.58,1.58,0,0,0-.3-1,1.32,1.32,0,0,0-1.06-.37,1.8,1.8,0,0,0-.7.15,1.92,1.92,0,0,0-.65.44,2.67,2.67,0,0,0-.54.75,3.48,3.48,0,0,0-.34,1.06l-.55,3.12H239l.83-4.75c0-.16.07-.38.11-.64s.07-.49.09-.7Z" fill="#abadb0"/><path d="M250.59,260a1.53,1.53,0,0,0-.55-.55,1.7,1.7,0,0,0-.87-.22,2.12,2.12,0,0,0-.49.06,1.56,1.56,0,0,0-.47.17,1,1,0,0,0-.35.3.78.78,0,0,0-.13.46.83.83,0,0,0,.08.41.85.85,0,0,0,.24.26,1.5,1.5,0,0,0,.38.2,5.27,5.27,0,0,0,.51.16,3.59,3.59,0,0,1,1.36.66,1.39,1.39,0,0,1,.47,1.12,1.65,1.65,0,0,1-.22.85,2,2,0,0,1-.56.59,2.47,2.47,0,0,1-.76.33,3.29,3.29,0,0,1-.82.1,3.58,3.58,0,0,1-1.43-.28,2.23,2.23,0,0,1-1-.86l.76-.5a1.72,1.72,0,0,0,.66.65,1.93,1.93,0,0,0,1,.27,2.67,2.67,0,0,0,.56-.06,1.46,1.46,0,0,0,.48-.19,1.07,1.07,0,0,0,.35-.32,1,1,0,0,0,.13-.48.82.82,0,0,0-.39-.73,4.27,4.27,0,0,0-1.1-.49l-.54-.21a2,2,0,0,1-.5-.31A1.56,1.56,0,0,1,247,261a1.59,1.59,0,0,1,.08-1.46,1.77,1.77,0,0,1,.54-.55,2.54,2.54,0,0,1,.75-.32,3.37,3.37,0,0,1,.83-.1,2.84,2.84,0,0,1,1.26.27,1.71,1.71,0,0,1,.79.73Z" fill="#abadb0"/><line x1="74.93" y1="221.02" x2="25.36" y2="221.02" fill="#fff" stroke="#fff" stroke-miterlimit="10" stroke-width="1.5"/><line x1="252.14" y1="221.02" x2="202.57" y2="221.02" fill="#fff" stroke="#fff" stroke-miterlimit="10" stroke-width="1.5"/><path d="M137.24,13.83A64.36,64.36,0,0,0,75.15,95.1h4.93a2.53,2.53,0,0,0,2.25-1.7c.52-1.12,11-29.85,12-32.41.2-.51.61-1.34,1.33-1.34s1.08.52,1.28,1.13l9.29,21.61h.2c.42-1.3,7.9-17.62,9.46-21.11.38-1,.75-1.73,1-1.73,2.19,0,4.64-.13,5-.13s.41.1.41.36v1.28c0,.25-.11.41-.47.41h-1a1.23,1.23,0,0,0-1.23,1.79l8,23.7.1.05c.41-1.08,7.33-15.9,7.33-15.9s2.75-6,3.92-6,3.84,6.39,3.84,6.39l6.4,14.36,4.2-11c4.38-13.66,11.18-15.69,20.65-15.69,4.92,0,8.82,1.54,10.46,2.77.62.46.93.31,1.23-.1l.62-.83c.26-.35.41-.51.72-.51.51,0,.61.31.61.72l.52,10.26c0,.41,0,.66-.21.72l-1.23.2c-.31,0-.41-.1-.51-.41a20.47,20.47,0,0,0-4.1-7.08,11.63,11.63,0,0,0-8.52-3.59c-5.55,0-11.08,2.78-14.69,12.3-3,8-6.37,17.42-6.94,19-1.1,3.12-2,4.21-4.76,4.21-.72,0-1.08-.51-1.28-1.13l-9.28-21h-.21c-.46,1.43-9.54,20.56-9.74,21.12a1.63,1.63,0,0,1-.53.69,1.34,1.34,0,0,1-1,.44c-2.51,0-3.82.09-4.23.09s-.42-.1-.42-.36V95.51c0-.26.11-.41.47-.41h1a1.23,1.23,0,0,0,1.23-1.8l-8-23.69-.1-.06c-.41,1.08-7.33,16.53-7.33,16.53s-2.42,5.65-4,5.65c-1.06,0-2.74-4-2.74-4L93.72,69.4h-.2C92,73.91,86.13,90.84,86.13,93.66c0,.72.51,1.44,1.74,1.44h1.39c.31,0,.36.15.36.41v1.23a.36.36,0,0,1-.41.41c-.52,0-2.26-.16-5.44-.16-2,0-5.8.08-8,.12a64.35,64.35,0,1,0,61.51-83.28Zm51.4,68.63c-.92,0-1.54.41-1.54,1.9v6.77c0,.72.21,1.23.21,1.64s-.31.62-.83.82A29.6,29.6,0,0,1,171.92,97c-4.87,0-10.9-1.64-14.44-5.57a1.22,1.22,0,0,1-.3-1.48c.18-.44.85-2.11,1-2.39s.53-.52,1.17,0c4.21,3.4,7.87,6.6,13,6.6,3.28,0,5.23.07,7-.86,1.13-.61,1.24-2,1.24-4.72V84.82c0-1.85-.52-2.36-1.85-2.36h-2.16c-.3,0-.41-.2-.41-.46V80.82c0-.31.11-.41.31-.41.62,0,3.08.15,7.29.15s16.08-.15,16.59-.15.51.1.51.36v1.69Z" fill="#fff"/><path d="M207.12,78.16a17.18,17.18,0,0,1,1,2.57,23.83,23.83,0,0,1,.85,2.32l0-.12a34.9,34.9,0,0,1,3.77,9,8.94,8.94,0,0,1-.28,5,10.65,10.65,0,0,1-2.49,4.28c-.19-1-.35-2.13-.49-3.18s-.45-2.28-.68-3.38v.14h0c-.25-.64-.51-1.28-.75-1.91s-.58-1.31-.86-1.94A29,29,0,0,1,205.77,87a13.11,13.11,0,0,1-.36-4.54A10.43,10.43,0,0,1,207.12,78.16Z" fill="#abadb0"/><path d="M206,90.37a10.92,10.92,0,0,1,.63,2.73,24.35,24.35,0,0,1,.37,2.42V95.4c.45,1.48,1,3.08,1.43,4.64a24.13,24.13,0,0,1,.68,4.85,10.26,10.26,0,0,1-4.36,8.61c0-1.08.05-2.15.1-3.2s0-2.31,0-3.42l0,.14h0a47.1,47.1,0,0,1-1.56-8.1,9.68,9.68,0,0,1,.39-4.55,8.94,8.94,0,0,1,1-2A14,14,0,0,1,206,90.37Z" fill="#abadb0"/><path d="M202.77,102.21a17.22,17.22,0,0,1,.15,2.79,11.22,11.22,0,0,1,0,2.46l0-.12c.21,3.08,1.05,6.46.38,9.71a11.14,11.14,0,0,1-1.91,4.62,11.34,11.34,0,0,1-3.92,3.07c.16-1.06.45-2.09.7-3.11a16.63,16.63,0,0,0,.53-3.4l0,.14h0a61.8,61.8,0,0,1-.12-8.25,9.29,9.29,0,0,1,1.25-4.38A13.2,13.2,0,0,1,202.77,102.21Z" fill="#abadb0"/><path d="M197.57,113.3a18.9,18.9,0,0,1-.39,2.76,18.52,18.52,0,0,1-.39,2.46l.05-.11c-.13,1.51-.26,3.16-.39,4.75a18.29,18.29,0,0,1-.95,4.86,11.57,11.57,0,0,1-2.73,4.17,9.62,9.62,0,0,1-4.38,2.36c.35-1,.83-2,1.26-2.9a20.63,20.63,0,0,0,1.07-3.31l-.06.14s0,0,0,0c.31-2.79.78-5.49,1.32-8.14a9.66,9.66,0,0,1,2.06-4.06A10.07,10.07,0,0,1,197.57,113.3Z" fill="#abadb0"/><path d="M190.51,123.33a18.88,18.88,0,0,1-.9,2.62c-.29.74-.46,1.62-.83,2.34l.06-.11a41.86,41.86,0,0,1-2.93,9.3,11.55,11.55,0,0,1-3.46,3.57,10.63,10.63,0,0,1-2.22,1.15,11.64,11.64,0,0,1-2.48.45c.52-.94,1.2-1.73,1.75-2.64s1.1-2.08,1.61-3.09L181,137s0,0,0,0c.41-1.31.83-2.64,1.31-3.91a33.11,33.11,0,0,1,1.41-3.86A10.74,10.74,0,0,1,190.51,123.33Z" fill="#abadb0"/><path d="M181.8,132a14.58,14.58,0,0,1-1.35,2.4,23,23,0,0,1-1.25,2.14l.08-.1a36.76,36.76,0,0,1-4.51,8.64,9.48,9.48,0,0,1-4,2.93,9.36,9.36,0,0,1-4.89.79l2.15-2.36c.8-.85,1.47-1.82,2.16-2.71l-.1.1s0,0,0,0c1.35-2.34,2.52-5.06,4-7.18a11.46,11.46,0,0,1,1.55-1.75,8.67,8.67,0,0,1,1.73-1.42A10.76,10.76,0,0,1,181.8,132Z" fill="#abadb0"/><path d="M171.68,138.92a9.22,9.22,0,0,1-1.71,2.19,23.56,23.56,0,0,1-1.62,1.85l.1-.08c-.9,1.29-1.71,2.74-2.67,4.05a26.74,26.74,0,0,1-3.3,3.64,11,11,0,0,1-2.07,1.45,10,10,0,0,1-2.39.77,11.32,11.32,0,0,1-5-.07c.8-.73,1.69-1.35,2.53-2s1.77-1.49,2.61-2.23l-.12.08s0,0,0,0a57.42,57.42,0,0,1,5.24-6.36,11.3,11.3,0,0,1,3.76-2.58A13.58,13.58,0,0,1,171.68,138.92Z" fill="#abadb0"/><path d="M160.52,144a17.77,17.77,0,0,1-2.05,1.92,17.49,17.49,0,0,1-1.93,1.5l.11-.06c-2.22,2.2-4.31,4.91-7.23,6.5a10.49,10.49,0,0,1-4.77,1.47,11.59,11.59,0,0,1-4.87-1c.92-.56,1.9-1,2.84-1.45a17.66,17.66,0,0,0,3-1.74l-.13.06h0a51.15,51.15,0,0,1,6.28-5.34C154.37,143.72,157.29,143.5,160.52,144Z" fill="#abadb0"/><path d="M148.65,147a17.65,17.65,0,0,1-2.36,1.47,14.7,14.7,0,0,1-2.15,1.26l.11,0c-2.57,1.66-5.11,4-8.25,5.12a10.26,10.26,0,0,1-9.56-1.3c1-.36,2-.59,3-.86a31.71,31.71,0,0,0,3.23-1.33l-.14,0h0c2.34-1.52,4.71-2.89,7.1-4.17a9.17,9.17,0,0,1,4.44-1A10.14,10.14,0,0,1,148.65,147Z" fill="#abadb0"/><path d="M136.42,148a18.05,18.05,0,0,1-2.58,1c-.76.24-1.55.67-2.34.84l.13,0a45.23,45.23,0,0,1-4.33,2.09,26.51,26.51,0,0,1-4.7,1.59,9.74,9.74,0,0,1-5-.37,9.23,9.23,0,0,1-4.24-2.56c1-.13,2.11-.24,3.17-.4s2.29-.45,3.4-.68h-.15s0,0,0,0c2.54-.92,5.19-2.2,7.73-2.88a9.88,9.88,0,0,1,2.31-.32,12.75,12.75,0,0,1,2.23,0A10.3,10.3,0,0,1,136.42,148Z" fill="#abadb0"/><path d="M124.21,146.8a9.54,9.54,0,0,1-2.72.55,24.55,24.55,0,0,1-2.43.37h.13c-1.52.4-3.09,1-4.66,1.36a25.63,25.63,0,0,1-4.87.65,11.87,11.87,0,0,1-2.52-.22,11.17,11.17,0,0,1-2.32-1,11.33,11.33,0,0,1-3.73-3.24c1.09,0,2.16,0,3.22.11s2.31,0,3.43,0l-.14,0h0c2.67-.51,5.53-1.36,8.11-1.46a11.45,11.45,0,0,1,4.53.46A13.53,13.53,0,0,1,124.21,146.8Z" fill="#abadb0"/><path d="M112.42,143.45a17.47,17.47,0,0,1-2.81.14,22.22,22.22,0,0,1-2.44-.1l.13,0-4.82.5a19.21,19.21,0,0,1-4.9-.21,9.74,9.74,0,0,1-4.58-2,11.49,11.49,0,0,1-3.06-3.91c1.07.16,2.1.46,3.12.71a26.16,26.16,0,0,0,3.37.6l-.14,0h0a48.43,48.43,0,0,1,8.25,0C107.9,139.25,110.28,141,112.42,143.45Z" fill="#abadb0"/><path d="M101.4,138.1a18.84,18.84,0,0,1-2.77-.39,11.24,11.24,0,0,1-2.43-.46l.11,0-4.78-.4c-.82-.08-1.64-.18-2.47-.32a21,21,0,0,1-2.35-.71,11.64,11.64,0,0,1-4.18-2.74,11.14,11.14,0,0,1-2.29-4.42A30.43,30.43,0,0,1,83.15,130c.52.25,1,.46,1.58.66l1.68.47-.13-.06h0c1.39.17,2.79.35,4.14.58s2.65.55,4,.83a9.23,9.23,0,0,1,4.06,2.07A11.53,11.53,0,0,1,101.4,138.1Z" fill="#abadb0"/><path d="M91.46,130.92a18.14,18.14,0,0,1-2.63-.9c-.75-.3-1.63-.47-2.35-.84l.11.06c-3-.88-6.29-1.43-9.22-3.08a10.28,10.28,0,0,1-5.09-8.2c.92.53,1.76,1.18,2.61,1.78A25.78,25.78,0,0,0,78,121.39l-.12-.08h0c2.65.84,5.26,1.76,7.75,2.8a11.26,11.26,0,0,1,5.86,6.8Z" fill="#abadb0"/><path d="M82.9,122.12a17.31,17.31,0,0,1-2.39-1.37,23.92,23.92,0,0,1-2.14-1.25l.1.07c-1.52-.6-2.92-1.28-4.37-2A26.92,26.92,0,0,1,69.86,115,10.87,10.87,0,0,1,67,110.9a8.85,8.85,0,0,1-.71-4.9c.81.69,1.46,1.5,2.29,2.2s1.83,1.47,2.72,2.17l-.1-.11h0c1.23.65,2.41,1.34,3.61,2a28.84,28.84,0,0,1,3.53,2.1A10.67,10.67,0,0,1,82.9,122.12Z" fill="#abadb0"/><path d="M76,112a11.27,11.27,0,0,1-2.13-1.76,22,22,0,0,1-1.85-1.63l.08.1a35.39,35.39,0,0,1-7.64-6,9,9,0,0,1-2.14-4.49,10.61,10.61,0,0,1,.11-5c.67.83,1.34,1.7,2,2.55s1.5,1.78,2.23,2.63l-.08-.12h0l1.58,1.31,1.69,1.29a28.57,28.57,0,0,1,3,2.71,12.77,12.77,0,0,1,2.52,3.8A11.83,11.83,0,0,1,76,112Z" fill="#abadb0"/><path d="M71.11,100.73a11.53,11.53,0,0,1-1.87-2.09,23.72,23.72,0,0,1-1.49-1.94l.06.11-3.49-3.38a23.55,23.55,0,0,1-2.93-3.92,10.18,10.18,0,0,1-.33-9.64c.56.92,1,1.91,1.45,2.85a31.7,31.7,0,0,0,1.66,3,.52.52,0,0,1-.06-.13v0a43.83,43.83,0,0,1,5.28,6.34,9.73,9.73,0,0,1,1.86,4.17,9.41,9.41,0,0,1,.09,2.26A15.11,15.11,0,0,1,71.11,100.73Z" fill="#abadb0"/><path d="M68.21,88.82a20.61,20.61,0,0,1-1.48-2.38,10.64,10.64,0,0,1-1.17-2.17l0,.12c-.88-1.26-1.83-2.62-2.74-3.94-.46-.68-.92-1.38-1.34-2.11a16.85,16.85,0,0,1-1-2.26,11.73,11.73,0,0,1-.54-5A9.92,9.92,0,0,1,62,66.53c.36,1,.59,2,.85,3a18.52,18.52,0,0,0,1.25,3.24l0-.14s0,0,0,0c.75,1.18,1.5,2.37,2.17,3.56.34.6.66,1.2,1,1.8s.68,1.19,1,1.8a9.3,9.3,0,0,1,1,4.44A12.43,12.43,0,0,1,68.21,88.82Z" fill="#abadb0"/><path d="M67.39,76.58a18.78,18.78,0,0,1-1-2.6c-.24-.76-.67-1.55-.84-2.34l0,.12A44.75,44.75,0,0,1,62,62.69a11.71,11.71,0,0,1,1.46-7.24,9.59,9.59,0,0,1,1.63-1.91c.19,1.05.13,2.08.32,3.15s.45,2.3.68,3.42V60c.51,1.28,1,2.58,1.44,3.87a29.36,29.36,0,0,1,1.35,3.88A10.9,10.9,0,0,1,67.39,76.58Z" fill="#abadb0"/><path d="M68.68,64.38a13.81,13.81,0,0,1-.46-2.72c-.09-.79-.36-1.64-.37-2.44v.12a35.06,35.06,0,0,1-1.91-9.55A9.11,9.11,0,0,1,67.2,45a10.12,10.12,0,0,1,3.3-3.69c-.06,1.17-.12,2.17-.17,3.2s0,2.32,0,3.45l0-.14s0,0,0,0c.39,2.65,1.27,5.54,1.37,8.13a13.12,13.12,0,0,1-.54,4.52A11.21,11.21,0,0,1,68.68,64.38Z" fill="#abadb0"/><path d="M72.19,52.63a11,11,0,0,1-.07-2.8c.06-.78,0-1.66.11-2.44l0,.12c-.15-1.54-.32-3.22-.49-4.84a26.27,26.27,0,0,1,.3-4.89,10.35,10.35,0,0,1,6-7.58c-.16,1.06-.46,2.1-.71,3.12s-.45,2.27-.64,3.37l0-.13s0,0,0,0a51.27,51.27,0,0,1-.08,8.24,10.24,10.24,0,0,1-1.29,4.38A14.53,14.53,0,0,1,72.19,52.63Z" fill="#abadb0"/><path d="M77.68,41.67a17.57,17.57,0,0,1,.4-2.78,12.09,12.09,0,0,1,.53-2.4l0,.12c.36-3.09.27-6.53,1.53-9.6a10.38,10.38,0,0,1,2.79-4.14,11.52,11.52,0,0,1,4.43-2.26c-.36,1-.85,2-1.29,2.92a20,20,0,0,0-1.2,3.21l.06-.13s0,0,0,0a52.6,52.6,0,0,1-1.51,8.12C82.6,38,80.52,40,77.68,41.67Z" fill="#abadb0"/><path d="M85,31.82a18.74,18.74,0,0,1,.91-2.64,12,12,0,0,1,.89-2.32l-.07.11c.41-1.47.86-3.07,1.3-4.62a16.72,16.72,0,0,1,1.89-4.56,11.65,11.65,0,0,1,3.48-3.58,10.45,10.45,0,0,1,4.76-1.44c-.54.93-1.19,1.77-1.79,2.62a17.09,17.09,0,0,0-1.71,3l.08-.12s0,0,0,0c-.43,1.33-.87,2.67-1.36,3.95-.24.65-.5,1.27-.77,1.88s-.49,1.29-.76,1.89A9.21,9.21,0,0,1,89,29.6,10.48,10.48,0,0,1,85,31.82Z" fill="#abadb0"/><path d="M93.88,23.38A17,17,0,0,1,95.26,21a23.21,23.21,0,0,1,1.26-2.15l-.08.1c1.38-2.81,2.59-5.87,4.72-8.51,2.25-2.41,5.65-4,9-3.47-.7.8-1.5,1.49-2.25,2.22s-1.48,1.83-2.18,2.72l.1-.1s0,0,0,0c-.66,1.22-1.34,2.44-2,3.6s-1.36,2.44-2.14,3.49a11.23,11.23,0,0,1-3.38,3.06A10.36,10.36,0,0,1,93.88,23.38Z" fill="#abadb0"/><path d="M163.48,13.4a10.27,10.27,0,0,1,2.77,0,22.51,22.51,0,0,1,2.46.12l-.12,0c1.56-.08,3.24-.4,4.83-.4a25.67,25.67,0,0,1,4.91.31,10,10,0,0,1,2.41.73,12.11,12.11,0,0,1,2.09,1.4,11,11,0,0,1,3,3.91c-1-.19-2.11-.47-3.13-.74s-2.28-.45-3.38-.65l.13.05s0,0,0,0c-1.34,0-2.77,0-4.18,0a26.82,26.82,0,0,1-4.06-.22,11.86,11.86,0,0,1-4.35-1.36A13,13,0,0,1,163.48,13.4Z" fill="#abadb0"/><path d="M174.38,19a13.76,13.76,0,0,1,2.77.43,22.29,22.29,0,0,1,2.38.58l-.12-.05,4.83.44A22,22,0,0,1,189,21.62a10.26,10.26,0,0,1,6.34,7.26c-1-.36-2-.85-2.93-1.29s-2.14-.86-3.18-1.26l.12.07h0a45.8,45.8,0,0,1-8.09-1.61A9.07,9.07,0,0,1,175.68,21,10.67,10.67,0,0,1,174.38,19Z" fill="#abadb0"/><path d="M184.13,26.45a18.49,18.49,0,0,1,2.65.92,10.65,10.65,0,0,1,2.27.95l-.1-.07c2.93,1,6.37,1.46,9.14,3.29a11,11,0,0,1,3.57,3.5A11.6,11.6,0,0,1,203,39.82c-.92-.54-1.77-1.2-2.62-1.81a17.56,17.56,0,0,0-3-1.77l.12.09h0a58.47,58.47,0,0,1-7.69-3,9.32,9.32,0,0,1-3.6-2.8A13.15,13.15,0,0,1,184.13,26.45Z" fill="#abadb0"/><path d="M192.46,35.45a17.77,17.77,0,0,1,2.42,1.39A17,17,0,0,1,197,38.13l-.09-.09,4.27,2.14a17.52,17.52,0,0,1,4.15,2.7,11.5,11.5,0,0,1,2.84,4.1,9.56,9.56,0,0,1,.54,4.94,31.35,31.35,0,0,1-2.21-2.26,22,22,0,0,0-2.66-2.23l.1.11h0c-2.48-1.33-4.78-2.78-7-4.28a9.16,9.16,0,0,1-3-3.42A10.09,10.09,0,0,1,192.46,35.45Z" fill="#abadb0"/><path d="M199.12,45.75a18.69,18.69,0,0,1,2.09,1.81,24.1,24.1,0,0,1,1.86,1.65l-.08-.1a42.68,42.68,0,0,1,7.52,6.22,11.34,11.34,0,0,1,2,4.56,11,11,0,0,1,.23,2.48,9.37,9.37,0,0,1-.51,2.46c-.67-.83-1.12-1.76-1.8-2.6s-1.5-1.81-2.24-2.67l.08.12h0c-1.07-.88-2.13-1.78-3.13-2.69a29.21,29.21,0,0,1-3.05-2.75A10.77,10.77,0,0,1,199.12,45.75Z" fill="#abadb0"/><path d="M203.86,57.06a13.27,13.27,0,0,1,1.72,2.16,24.16,24.16,0,0,1,1.5,2l-.06-.11a35.39,35.39,0,0,1,6.28,7.44,8.91,8.91,0,0,1,1.22,4.82,11.33,11.33,0,0,1-1.07,4.83c-.55-.94-1-1.93-1.44-2.88s-1.11-2-1.66-3l.05.13s0,0,0,0l-1.28-1.59-1.41-1.6a28.8,28.8,0,0,1-2.44-3.26,13.54,13.54,0,0,1-1.71-4.22A11.29,11.29,0,0,1,203.86,57.06Z" fill="#abadb0"/><path d="M205.73,68a12.52,12.52,0,0,1,1.38,2.13c.36.64.89,1.26,1.19,1.94l-.05-.1a32.39,32.39,0,0,1,5.06,7.4,8.35,8.35,0,0,1,.7,4.57,10.77,10.77,0,0,1-1.37,4.37c-.43-.91-.73-1.86-1.07-2.78s-.83-2-1.25-2.93l0,.12s0,0,0,0c-.35-.53-.69-1.06-1-1.58l-1.13-1.59a28.08,28.08,0,0,1-1.94-3.22,12.57,12.57,0,0,1-1.19-4A10.7,10.7,0,0,1,205.73,68Z" fill="#abadb0"/></svg>