<?xml version="1.0" encoding="UTF-8"?>
<svg id="ZURICH_LOGO_CMYK_HORIZONTAL" data-name="ZURICH LOGO CMYK HORIZONTAL" xmlns="http://www.w3.org/2000/svg" viewBox="0 0 480.69 110.99">
  <defs>
    <style>
      .cls-1 {
        fill: #0071b9;
      }
    </style>
  </defs>
  <path class="cls-1" d="M55.49,0C24.85,0,0,24.84,0,55.48v.03c0,12.65,4.24,24.3,11.37,33.63L57.5,28.52h-9.89c-5.26,0-10.2,.37-13.76,1.07-2.16,.43-4.08,1.2-5.65,2.31-1.84,1.29-4.14,4.03-5.65,6.72-.17,.31-.43,.77-.75,1.44l-2.69-.61,4.52-17.41h57.78l-45.92,61.39c2.98-.26,4.18-.33,6.6-.33,1.86,0,4.69,.12,8.47,.34l8.16,.5c2.93,.17,5.42,.25,7.31,.25,4.2,0,6.94-.33,9.66-1.16,2.11-.65,4.1-1.62,5.94-2.86,3.22-2.24,6.36-5.8,8.23-9.39,.18-.36,.48-.92,.82-1.65l2.46,.62c-.8,3.04-1.22,4.21-2.44,6.93-2.47,5.51-5.25,9.2-9.08,12.03-3.94,2.91-8.29,4.34-13.44,4.43h-.79c-3.81,0-6.76-.31-15.89-1.7-9.29-1.43-14.02-1.92-18.68-1.92-3.12,0-6.03,.24-9.04,.73-3.99,.63-5.55,1.1-9.17,2.75,10.13,11.05,24.71,17.99,40.89,17.99,30.64,0,55.49-24.85,55.49-55.5S86.14,0,55.49,0Z"/>
  <path class="cls-1" d="M341.21,38.53c.01-3.61,.11-4.6,.56-6.07,.19-.58,.45-1.15,.78-1.68,.55-.92,.95-1.36,2.03-2.26h-17.35c1.12,.97,1.49,1.37,2.01,2.14,.35,.57,.64,1.15,.83,1.77,.4,1.3,.53,2.61,.57,5.82,0,1.65,0,2.73,0,3.26v32.37c0,1.9-.34,3.92-.85,5.24-.22,.55-.51,1.08-.86,1.57-.4,.59-.7,.92-1.65,1.91h17.16c-.85-.73-1.15-1.07-1.66-1.91-.36-.53-.65-1.1-.86-1.65-.46-1.23-.73-3.04-.73-4.74V41.7l.02-3.17Z"/>
  <path class="cls-1" d="M456.73,38.51c0-2.4,.18-4.23,.59-5.73,.19-.69,.49-1.36,.86-1.99,.56-.92,.99-1.37,2.13-2.27h-17.64c1.02,.85,1.37,1.24,1.98,2.2,.39,.62,.68,1.27,.9,1.88,.41,1.28,.58,2.86,.58,5.69v13.13h-24.22v-9.86c0-2.99,.02-4.95,.14-6.42,.07-.88,.21-1.66,.44-2.35,.37-1.16,1.36-2.78,2.24-3.69,.12-.13,.34-.34,.6-.58h-17.33c1.04,1.07,1.32,1.39,1.78,2.08,.38,.55,.71,1.17,.94,1.83,.45,1.37,.53,2.12,.59,5.72l.06,3.42v29.61c0,3-.06,4.32-.22,5.69-.1,.7-.29,1.41-.54,2.15-.45,1.16-1.07,2.08-2.09,3.02-.12,.13-.32,.3-.59,.54h17.12c-.75-.77-1-1.1-1.45-1.78-.31-.51-.62-1.07-.87-1.68-.55-1.43-.72-2.45-.79-4.74-.01-1.15-.02-2.21-.02-3.23v-13.1h24.22v13.2c0,2.91-.03,3.98-.25,5.49-.09,.82-.27,1.61-.58,2.34-.39,1.01-1.01,1.93-1.94,2.83-.16,.14-.39,.38-.74,.67h17.27c-.71-.71-.98-1.01-1.44-1.67-.43-.6-.76-1.18-1-1.78-.53-1.28-.65-2.22-.71-4.89-.03-1.59-.04-2.51-.04-2.8l.04-29.75v-3.19Z"/>
  <path class="cls-1" d="M318.6,78.84c-1.9-1.81-3.6-3.53-6.12-6.28-1.61-1.72-2.92-3.21-3.95-4.4l-8.4-9.89c1.04-.31,1.46-.45,2.39-.83,2.73-1.08,4.8-2.27,6.67-3.85,2.14-1.8,3.45-3.73,4.25-6.17,.46-1.37,.67-2.76,.67-4.17,0-3.32-1.23-6.34-3.65-8.86-2.23-2.33-5.31-4.05-8.79-4.88-2.42-.56-4.94-.82-9.24-.94-1.62-.04-3.3-.06-5.02-.06h-13.95c.94,.87,1.29,1.26,1.8,2.04,.41,.62,.75,1.29,.96,1.97,.36,1.22,.51,2.9,.51,5.76v35.48c0,2.55-.16,4.04-.6,5.24-.25,.61-.55,1.18-.93,1.71-.51,.64-.82,.97-1.83,1.88h17.19c-.78-.83-1.02-1.1-1.49-1.76-.38-.52-.69-1.08-.92-1.65-.46-1.2-.68-2.49-.68-5-.03-.81-.04-1.72-.04-2.71v-12.16l10.02,12.01c.47,.57,1.22,1.44,2.23,2.62,1.18,1.31,2.05,2.3,2.66,2.91,1.93,1.99,3.77,3.45,5.58,4.44,1.57,.83,3.03,1.18,5.36,1.26,.88,.03,1.83,.04,2.82,.04h6.78c-.89-.71-1.28-1.02-1.97-1.63-.73-.64-1.51-1.34-2.32-2.12Zm-20.65-26.51c-1.93,1.13-3.91,1.78-6.81,2.19-1.1,.17-2.06,.26-2.83,.26-.27,0-.46,0-.88-.04v-20.01c.69-.02,.95-.02,1.42-.02,2.65,0,5.24,.31,7.27,.89,1.36,.39,2.63,1.07,3.68,1.96,1.82,1.56,2.78,3.82,2.78,6.64,0,2.45-.71,4.54-2.11,6.11-.66,.75-1.51,1.42-2.52,2.03Z"/>
  <path class="cls-1" d="M393.08,74.78c-3.25,1.37-6.23,2-9.44,2-5.59,0-10.38-2-13.93-5.82-3.51-3.79-5.38-9.04-5.38-14.98s1.75-10.92,4.88-14.59c1.35-1.6,3-2.95,4.89-4.01,3.06-1.71,6.62-2.6,10.47-2.6,3.29,0,6.49,.65,9.71,1.95,2,.82,2.73,1.22,4.45,2.44v-10.17c-1.33-.43-1.86-.58-3.28-.89-3.13-.66-6.12-.96-9.52-.96-5.81,0-10.83,.94-15.4,2.87-2.73,1.15-5.22,2.63-7.44,4.41-6.66,5.37-10.29,13.13-10.29,22.1s3.5,16.21,9.87,21.25c5.27,4.16,12.05,6.25,20.2,6.25,5.09,0,9.84-.76,15.17-2.42,.2-.06,.5-.16,.88-.28v-9.82c-1.3,.86-1.74,1.14-2.52,1.6-1.05,.6-2.14,1.16-3.33,1.65Z"/>
  <path class="cls-1" d="M249.33,30.62c.34,.58,.62,1.19,.8,1.84,.38,1.31,.48,2.62,.48,5.66v20.55c0,4.42-.13,7.03-.46,9.18-.21,1.44-.69,2.77-1.39,3.96-1.31,2.2-3.75,3.89-6.64,4.63-1.18,.29-2.46,.44-3.84,.44-4.64,0-8.62-1.74-10.56-4.58-1.49-2.21-1.9-4.31-1.97-9.87l-.04-4.46v-16.3c0-3.16,.01-4.66,.13-6.27,.05-.97,.19-1.8,.4-2.48,.38-1.24,1.3-2.9,2.16-3.92,.12-.11,.25-.26,.46-.48h-17.57c1.08,.9,1.43,1.31,1.96,2.19,.34,.59,.61,1.22,.76,1.88,.22,.82,.34,1.66,.37,2.49,0,.53,.02,1.65,.02,3.35l.03,3.13v15.49c0,5.75,.02,7.21,.22,9.52,.31,3.95,1.5,7.1,3.79,9.97,4.09,5.15,10.68,7.85,19.07,7.85,4.01,0,7.9-.61,10.86-1.71,3.12-1.16,5.99-3.08,8.05-5.37,2.5-2.8,3.94-6.25,4.36-10.51,.28-2.47,.38-5.42,.38-9.65v-15.55l-.04-3.09v-.61c0-2.33,.13-3.68,.46-4.94,.19-.77,.51-1.51,.94-2.18,.57-.92,.98-1.35,2.12-2.25h-17.24c1.05,.83,1.41,1.22,1.95,2.09Z"/>
  <path class="cls-1" d="M190.05,74.99c-2.4,.44-5.12,.68-8.49,.77-1.14,.03-2.56,.03-4.32,.03h-8.28l32.78-47.27h-42.52l-5.22,11.54c1.75-.93,2.44-1.25,3.95-1.87,2.42-.96,5.09-1.72,7.65-2.16,2.23-.38,4.29-.56,7.62-.66,1.5-.05,2.9-.08,4.2-.08h6.29l-33.08,47.29h46.76l5.4-12.33c-1.88,1.08-2.54,1.42-3.97,2.08-2.73,1.24-5.68,2.14-8.75,2.65Z"/>
  <path class="cls-1" d="M474.59,8.14c-3.39,0-6.12,2.49-6.12,6.12s2.73,6.1,6.12,6.1,6.1-2.46,6.1-6.1-2.73-6.12-6.1-6.12Zm0,11.35c-2.86,0-5.13-2.12-5.13-5.23s2.26-5.24,5.13-5.24,5.11,2.1,5.11,5.24-2.2,5.23-5.11,5.23Z"/>
  <path class="cls-1" d="M472.38,17.34v-6.48h2.97c1.25,0,1.94,.73,1.94,1.79,0,.86-.54,1.49-1.28,1.62,.45,.17,.72,.51,.9,1.11l.57,1.95h-.8l-.51-1.74c-.2-.69-.51-1.05-1.33-1.05h-1.71v2.79h-.74Zm.74-3.42h2.17c.81,0,1.24-.42,1.24-1.2s-.43-1.21-1.24-1.21h-2.17v2.4Z"/>
</svg>