<?xml version="1.0" encoding="iso-8859-1"?>
<!-- Generator: Adobe Illustrator 19.1.0, SVG Export Plug-In . SVG Version: 6.00 Build 0)  -->
<svg version="1.1" xmlns="http://www.w3.org/2000/svg" xmlns:xlink="http://www.w3.org/1999/xlink" x="0px" y="0px"
	 viewBox="0 0 349.6 91.3" style="enable-background:new 0 0 349.6 91.3;" xml:space="preserve">
<style type="text/css">
	.st0{display:none;}
	.st1{display:inline;fill:#5D5E5E;}
	.st2{fill:#001F5B;}
	.st3{fill:#808285;}
	.st4{fill:#FFFFFF;}
	.st5{fill:#9E9E9E;}
	.st6{fill:none;stroke:#8083A9;stroke-width:2.1378;stroke-miterlimit:10;}
	.st7{fill:#8285AA;}
	.st8{fill:none;stroke:#FFFFFF;stroke-width:2.1378;stroke-miterlimit:10;}
	.st9{fill:#001F5B;stroke:#FFFFFF;stroke-width:2.1378;stroke-miterlimit:10;}
</style>
<a xmlns="http://www.w3.org/2000/svg" xmlns:xlink="http://www.w3.org/1999/xlink" xlink:href="http://morganwhiteintl.com" target="_top">
<g id="logo-division">
	<path class="st4" d="M108.3,35h4.6v21.9h-4.6V35z"/>
	<path class="st4" d="M117.1,35h6.3l8.9,15.2h0.1V35h4.6v21.9h-6l-9.2-15.6h-0.1v15.6h-4.6V35z"/>
	<path class="st4" d="M145.3,39.3h-6V35h16.6v4.3h-6v17.6h-4.6V39.3z"/>
	<path class="st4" d="M158.5,35h14.3v4.4h-9.6v4.1h9.1V48h-9.1v4.4h10.2v4.4h-14.8V35z"/>
	<path class="st4" d="M177,35h8.1c1.1,0,2.1,0.1,3,0.3c1,0.2,1.8,0.6,2.5,1.1c0.7,0.5,1.3,1.2,1.7,2c0.4,0.9,0.6,1.9,0.6,3.2
		c0,1.5-0.4,2.9-1.2,3.9c-0.8,1.1-1.9,1.8-3.4,2.1l5.3,9.2h-5.5l-4.4-8.7h-2.3v8.7H177V35z M181.6,44.1h2.7c0.4,0,0.9,0,1.3,0
		c0.5,0,0.9-0.1,1.3-0.3c0.4-0.2,0.7-0.4,0.9-0.7c0.2-0.3,0.4-0.8,0.4-1.4c0-0.6-0.1-1-0.3-1.3c-0.2-0.3-0.5-0.6-0.8-0.8
		c-0.3-0.2-0.7-0.3-1.2-0.4c-0.4-0.1-0.9-0.1-1.3-0.1h-3V44.1z"/>
	<path class="st4" d="M196.2,35h6.3l8.9,15.2h0.1V35h4.6v21.9h-6l-9.2-15.6h-0.1v15.6h-4.6V35z"/>
	<path class="st4" d="M227.3,35h3.8l9.1,21.9H235l-1.8-4.6H225l-1.7,4.6h-5.1L227.3,35z M229,41.4l-2.6,6.8h5.1L229,41.4z"/>
	<path class="st4" d="M243.7,39.3h-6V35h16.6v4.3h-6v17.6h-4.6V39.3z"/>
	<path class="st4" d="M256.6,35h4.6v21.9h-4.6V35z"/>
	<path class="st4" d="M264.3,46c0-1.8,0.3-3.3,0.8-4.8s1.3-2.6,2.4-3.6c1-1,2.2-1.8,3.6-2.3c1.4-0.5,2.9-0.8,4.5-0.8
		c1.6,0,3.2,0.3,4.5,0.8c1.4,0.5,2.6,1.3,3.6,2.3c1,1,1.8,2.2,2.4,3.6s0.8,3,0.8,4.8c0,1.8-0.3,3.3-0.8,4.8
		c-0.6,1.4-1.3,2.6-2.4,3.6c-1,1-2.2,1.8-3.6,2.3s-2.9,0.8-4.5,0.8c-1.6,0-3.2-0.3-4.5-0.8c-1.4-0.5-2.6-1.3-3.6-2.3
		c-1-1-1.8-2.2-2.4-3.6C264.5,49.3,264.3,47.7,264.3,46z M269.1,46c0,1,0.2,2,0.5,2.8c0.3,0.9,0.7,1.6,1.3,2.2
		c0.6,0.6,1.3,1.1,2.1,1.5c0.8,0.3,1.7,0.5,2.7,0.5c1,0,1.9-0.2,2.7-0.5c0.8-0.4,1.5-0.8,2.1-1.5c0.6-0.6,1-1.4,1.3-2.2
		c0.3-0.9,0.5-1.8,0.5-2.8c0-1-0.2-1.9-0.5-2.8c-0.3-0.9-0.7-1.6-1.3-2.2c-0.6-0.6-1.3-1.1-2.1-1.5c-0.8-0.4-1.7-0.5-2.7-0.5
		c-1,0-1.9,0.2-2.7,0.5c-0.8,0.3-1.5,0.8-2.1,1.5c-0.6,0.6-1,1.4-1.3,2.2C269.2,44,269.1,45,269.1,46z"/>
	<path class="st4" d="M290.1,35h6.3l8.9,15.2h0.1V35h4.6v21.9h-6l-9.2-15.6h-0.1v15.6h-4.6V35z"/>
	<path class="st4" d="M321.1,35h3.8l9.1,21.9h-5.2l-1.8-4.6h-8.2l-1.7,4.6h-5.1L321.1,35z M322.9,41.4l-2.6,6.8h5.1L322.9,41.4z"/>
	<path class="st4" d="M336.4,35h4.6v17.4h8.6v4.4h-13.2V35z"/>
	<path class="st4" d="M107.2,76.7h-1l5.6-8.7h0.9l1.8,8.7h-0.9l-0.5-2.3h-4.5L107.2,76.7z M109.1,73.6h3.8L112,69L109.1,73.6z"/>
	<path class="st4" d="M118.4,74.4c0-0.5,0.1-1,0.3-1.4c0.2-0.4,0.4-0.8,0.7-1.1s0.7-0.6,1.1-0.8s0.9-0.3,1.4-0.3
		c0.4,0,0.8,0.1,1.2,0.3s0.6,0.5,0.8,0.8h0l0.8-4.5h0.8l-1.7,9.3h-0.8l0.2-1h0c-0.2,0.3-0.5,0.6-0.9,0.8c-0.4,0.2-0.8,0.3-1.3,0.3
		c-0.4,0-0.8-0.1-1.1-0.2c-0.3-0.1-0.6-0.3-0.8-0.5c-0.2-0.2-0.4-0.5-0.5-0.8C118.4,75.1,118.4,74.8,118.4,74.4z M119.2,74.3
		c0,0.3,0,0.5,0.1,0.7s0.2,0.4,0.4,0.6c0.2,0.2,0.3,0.3,0.6,0.4c0.2,0.1,0.5,0.1,0.8,0.1c0.4,0,0.7-0.1,1-0.2
		c0.3-0.1,0.6-0.4,0.8-0.6c0.2-0.3,0.4-0.6,0.5-0.9s0.2-0.7,0.2-1.1c0-0.3,0-0.5-0.1-0.8c-0.1-0.2-0.2-0.4-0.4-0.6
		c-0.2-0.2-0.4-0.3-0.6-0.4c-0.2-0.1-0.5-0.1-0.8-0.1c-0.4,0-0.7,0.1-1,0.2c-0.3,0.1-0.6,0.4-0.8,0.6c-0.2,0.3-0.4,0.6-0.5,0.9
		C119.3,73.6,119.2,73.9,119.2,74.3z"/>
	<path class="st4" d="M126.7,76.7h-0.8l1-5.8h0.8L126.7,76.7z M128.3,68.7c0,0.2-0.1,0.3-0.2,0.4c-0.1,0.1-0.2,0.2-0.4,0.2
		c-0.2,0-0.3,0-0.4-0.1c-0.1-0.1-0.2-0.2-0.2-0.4s0.1-0.3,0.2-0.4c0.1-0.1,0.3-0.2,0.4-0.2s0.3,0.1,0.4,0.2
		C128.2,68.4,128.3,68.6,128.3,68.7z"/>
	<path class="st4" d="M130.9,76.7H130l-1.2-5.8h0.9l0.9,4.9h0l2.9-4.9h0.9L130.9,76.7z"/>
	<path class="st4" d="M135.4,76.7h-0.8l1-5.8h0.8L135.4,76.7z M136.9,68.7c0,0.2-0.1,0.3-0.2,0.4c-0.1,0.1-0.2,0.2-0.4,0.2
		c-0.2,0-0.3,0-0.4-0.1c-0.1-0.1-0.2-0.2-0.2-0.4s0.1-0.3,0.2-0.4c0.1-0.1,0.3-0.2,0.4-0.2s0.3,0.1,0.4,0.2
		C136.9,68.4,136.9,68.6,136.9,68.7z"/>
	<path class="st4" d="M141.4,72.2c-0.1-0.2-0.3-0.4-0.5-0.5c-0.2-0.1-0.5-0.2-0.8-0.2c-0.1,0-0.3,0-0.5,0c-0.2,0-0.3,0.1-0.4,0.2
		s-0.2,0.2-0.3,0.3c-0.1,0.1-0.1,0.3-0.1,0.4c0,0.2,0,0.3,0.1,0.4s0.1,0.2,0.2,0.3c0.1,0.1,0.2,0.1,0.4,0.2c0.1,0.1,0.3,0.1,0.5,0.2
		c0.6,0.2,1,0.4,1.3,0.6c0.3,0.3,0.4,0.6,0.4,1.1c0,0.3-0.1,0.6-0.2,0.8c-0.1,0.2-0.3,0.4-0.5,0.6s-0.5,0.2-0.7,0.3
		c-0.3,0.1-0.5,0.1-0.8,0.1c-0.5,0-0.9-0.1-1.4-0.3c-0.4-0.2-0.8-0.5-1-0.8l0.7-0.5c0.1,0.2,0.4,0.4,0.6,0.6c0.3,0.2,0.6,0.3,1,0.3
		c0.2,0,0.4,0,0.5-0.1s0.3-0.1,0.5-0.2s0.2-0.2,0.3-0.3s0.1-0.3,0.1-0.5c0-0.3-0.1-0.5-0.4-0.7c-0.2-0.2-0.6-0.3-1-0.5
		c-0.2-0.1-0.3-0.1-0.5-0.2s-0.3-0.2-0.5-0.3c-0.1-0.1-0.3-0.3-0.3-0.4c-0.1-0.2-0.1-0.4-0.1-0.6c0-0.3,0.1-0.6,0.2-0.8
		s0.3-0.4,0.5-0.5c0.2-0.1,0.4-0.2,0.7-0.3s0.5-0.1,0.8-0.1c0.4,0,0.8,0.1,1.2,0.3c0.3,0.2,0.6,0.4,0.8,0.7L141.4,72.2z"/>
	<path class="st4" d="M143.7,76.7h-0.8l1-5.8h0.8L143.7,76.7z M145.2,68.7c0,0.2-0.1,0.3-0.2,0.4c-0.1,0.1-0.2,0.2-0.4,0.2
		c-0.2,0-0.3,0-0.4-0.1c-0.1-0.1-0.2-0.2-0.2-0.4s0.1-0.3,0.2-0.4c0.1-0.1,0.3-0.2,0.4-0.2s0.3,0.1,0.4,0.2
		C145.1,68.4,145.2,68.6,145.2,68.7z"/>
	<path class="st4" d="M148.4,76.9c-0.4,0-0.7-0.1-1.1-0.2c-0.3-0.1-0.6-0.3-0.8-0.5c-0.2-0.2-0.4-0.5-0.5-0.8
		c-0.1-0.3-0.2-0.6-0.2-1c0-0.5,0.1-0.9,0.3-1.4c0.2-0.4,0.4-0.8,0.7-1.1c0.3-0.3,0.7-0.6,1.1-0.8c0.4-0.2,0.9-0.3,1.4-0.3
		c0.4,0,0.8,0.1,1.1,0.2s0.6,0.3,0.8,0.5c0.2,0.2,0.4,0.5,0.5,0.8s0.2,0.6,0.2,1c0,0.5-0.1,1-0.3,1.4s-0.4,0.8-0.7,1.1
		s-0.7,0.6-1.1,0.8C149.4,76.8,148.9,76.9,148.4,76.9z M151,73.4c0-0.3,0-0.5-0.1-0.7c-0.1-0.2-0.2-0.4-0.4-0.6s-0.4-0.3-0.6-0.4
		c-0.2-0.1-0.5-0.1-0.8-0.1c-0.4,0-0.7,0.1-1,0.2c-0.3,0.2-0.6,0.4-0.8,0.6c-0.2,0.3-0.4,0.6-0.5,0.9c-0.1,0.3-0.2,0.7-0.2,1.1
		c0,0.3,0,0.5,0.1,0.7c0.1,0.2,0.2,0.4,0.4,0.6c0.2,0.2,0.4,0.3,0.6,0.4c0.2,0.1,0.5,0.1,0.8,0.1c0.4,0,0.7-0.1,1-0.2
		c0.3-0.2,0.6-0.4,0.8-0.6s0.4-0.6,0.5-0.9S151,73.8,151,73.4z"/>
	<path class="st4" d="M154.7,71c0,0.2,0,0.3-0.1,0.5c0,0.2,0,0.3-0.1,0.5h0c0.2-0.4,0.5-0.6,0.9-0.8c0.4-0.2,0.7-0.3,1.1-0.3
		c0.6,0,1.1,0.2,1.5,0.5c0.4,0.3,0.5,0.7,0.5,1.3c0,0.1,0,0.2,0,0.3c0,0.1,0,0.2,0,0.3l-0.6,3.5h-0.8l0.6-3.2c0-0.3,0.1-0.5,0.1-0.7
		c0-0.4-0.1-0.7-0.3-1c-0.2-0.2-0.5-0.4-1-0.4c-0.2,0-0.4,0-0.7,0.1c-0.2,0.1-0.4,0.2-0.6,0.4c-0.2,0.2-0.4,0.4-0.5,0.7
		s-0.3,0.6-0.3,1l-0.5,3H153l0.8-4.5c0-0.2,0.1-0.4,0.1-0.6s0.1-0.5,0.1-0.7H154.7z"/>
	<path class="st4" d="M165.5,76.9c-0.4,0-0.7-0.1-1.1-0.2c-0.3-0.1-0.6-0.3-0.8-0.5c-0.2-0.2-0.4-0.5-0.5-0.8
		c-0.1-0.3-0.2-0.6-0.2-1c0-0.5,0.1-0.9,0.3-1.4c0.2-0.4,0.4-0.8,0.7-1.1c0.3-0.3,0.7-0.6,1.1-0.8c0.4-0.2,0.9-0.3,1.4-0.3
		c0.4,0,0.8,0.1,1.1,0.2s0.6,0.3,0.8,0.5c0.2,0.2,0.4,0.5,0.5,0.8s0.2,0.6,0.2,1c0,0.5-0.1,1-0.3,1.4s-0.4,0.8-0.7,1.1
		s-0.7,0.6-1.1,0.8C166.5,76.8,166,76.9,165.5,76.9z M168.1,73.4c0-0.3,0-0.5-0.1-0.7c-0.1-0.2-0.2-0.4-0.4-0.6s-0.4-0.3-0.6-0.4
		c-0.2-0.1-0.5-0.1-0.8-0.1c-0.4,0-0.7,0.1-1,0.2c-0.3,0.2-0.6,0.4-0.8,0.6c-0.2,0.3-0.4,0.6-0.5,0.9c-0.1,0.3-0.2,0.7-0.2,1.1
		c0,0.3,0,0.5,0.1,0.7c0.1,0.2,0.2,0.4,0.4,0.6c0.2,0.2,0.4,0.3,0.6,0.4c0.2,0.1,0.5,0.1,0.8,0.1c0.4,0,0.7-0.1,1-0.2
		c0.3-0.2,0.6-0.4,0.8-0.6s0.4-0.6,0.5-0.9S168.1,73.8,168.1,73.4z"/>
	<path class="st4" d="M173.4,71.7H172l-0.9,5.1h-0.8l0.9-5.1H170l0.1-0.7h1.2l0.3-1.6c0-0.3,0.1-0.6,0.2-0.8
		c0.1-0.3,0.2-0.5,0.4-0.7c0.2-0.2,0.4-0.3,0.6-0.5s0.5-0.2,0.9-0.2c0.1,0,0.2,0,0.3,0c0.1,0,0.2,0,0.3,0.1l-0.2,0.7
		c-0.2,0-0.4-0.1-0.6-0.1c-0.2,0-0.4,0-0.5,0.1c-0.1,0.1-0.3,0.2-0.4,0.3c-0.1,0.1-0.2,0.3-0.2,0.5c-0.1,0.2-0.1,0.4-0.1,0.6
		l-0.3,1.5h1.4L173.4,71.7z"/>
	<path class="st4" d="M181.4,75.2L181.4,75.2l4.2-7.2h1.3l-1.5,8.7h-0.9l1.3-7.6h0l-4.5,7.6h-0.5l-1.8-7.6h0l-1.3,7.6h-0.9l1.5-8.7
		h1.3L181.4,75.2z"/>
	<path class="st4" d="M190.2,76.9c-0.4,0-0.7-0.1-1.1-0.2c-0.3-0.1-0.6-0.3-0.8-0.5c-0.2-0.2-0.4-0.5-0.5-0.8
		c-0.1-0.3-0.2-0.6-0.2-1c0-0.5,0.1-0.9,0.3-1.4c0.2-0.4,0.4-0.8,0.7-1.1c0.3-0.3,0.7-0.6,1.1-0.8c0.4-0.2,0.9-0.3,1.4-0.3
		c0.4,0,0.8,0.1,1.1,0.2s0.6,0.3,0.8,0.5c0.2,0.2,0.4,0.5,0.5,0.8s0.2,0.6,0.2,1c0,0.5-0.1,1-0.3,1.4s-0.4,0.8-0.7,1.1
		s-0.7,0.6-1.1,0.8C191.2,76.8,190.7,76.9,190.2,76.9z M192.8,73.4c0-0.3,0-0.5-0.1-0.7c-0.1-0.2-0.2-0.4-0.4-0.6s-0.4-0.3-0.6-0.4
		c-0.2-0.1-0.5-0.1-0.8-0.1c-0.4,0-0.7,0.1-1,0.2c-0.3,0.2-0.6,0.4-0.8,0.6c-0.2,0.3-0.4,0.6-0.5,0.9c-0.1,0.3-0.2,0.7-0.2,1.1
		c0,0.3,0,0.5,0.1,0.7c0.1,0.2,0.2,0.4,0.4,0.6c0.2,0.2,0.4,0.3,0.6,0.4c0.2,0.1,0.5,0.1,0.8,0.1c0.4,0,0.7-0.1,1-0.2
		c0.3-0.2,0.6-0.4,0.8-0.6s0.4-0.6,0.5-0.9S192.8,73.8,192.8,73.4z"/>
	<path class="st4" d="M195.7,71.6c0-0.2,0.1-0.5,0.1-0.7h0.8c0,0.2,0,0.3-0.1,0.5c0,0.2,0,0.3-0.1,0.5h0c0.2-0.3,0.5-0.6,0.8-0.8
		s0.7-0.3,1.1-0.3c0.1,0,0.2,0,0.3,0c0.1,0,0.2,0,0.3,0l-0.2,0.8c0,0-0.1,0-0.2,0s-0.2,0-0.3,0c-0.2,0-0.4,0-0.7,0.1
		c-0.2,0.1-0.4,0.2-0.6,0.4c-0.2,0.2-0.3,0.4-0.5,0.7c-0.1,0.3-0.2,0.6-0.3,1l-0.5,3h-0.8l0.8-4.5C195.6,72.1,195.6,71.9,195.7,71.6
		z"/>
	<path class="st4" d="M198.8,78c0.2,0.3,0.5,0.5,0.9,0.7s0.8,0.3,1.2,0.3c0.4,0,0.8-0.1,1.1-0.2c0.3-0.1,0.5-0.3,0.7-0.5
		c0.2-0.2,0.4-0.5,0.5-0.7s0.2-0.6,0.3-0.9l0.2-1.1h0c-0.3,0.4-0.6,0.7-1,0.9c-0.4,0.2-0.8,0.3-1.2,0.3c-0.4,0-0.8-0.1-1.1-0.2
		c-0.3-0.1-0.6-0.3-0.8-0.5c-0.2-0.2-0.4-0.5-0.5-0.8c-0.1-0.3-0.2-0.6-0.2-1c0-0.5,0.1-0.9,0.3-1.3c0.2-0.4,0.4-0.8,0.7-1.1
		s0.7-0.6,1.1-0.7c0.4-0.2,0.9-0.3,1.3-0.3c0.2,0,0.4,0,0.6,0.1c0.2,0,0.4,0.1,0.6,0.2c0.2,0.1,0.3,0.2,0.5,0.4
		c0.1,0.1,0.3,0.3,0.3,0.5h0l0.2-1h0.8l-1,5.7c-0.1,0.3-0.1,0.6-0.3,1s-0.3,0.7-0.5,1s-0.6,0.5-1,0.7c-0.4,0.2-0.9,0.3-1.6,0.3
		c-0.6,0-1.1-0.1-1.5-0.3s-0.8-0.5-1.1-0.9L198.8,78z M199.7,74.2c0,0.2,0,0.5,0.1,0.7s0.2,0.4,0.4,0.6s0.3,0.3,0.6,0.4
		c0.2,0.1,0.5,0.1,0.8,0.1c0.4,0,0.7-0.1,1-0.2c0.3-0.1,0.6-0.3,0.8-0.6c0.2-0.2,0.4-0.5,0.5-0.9c0.1-0.3,0.2-0.7,0.2-1
		c0-0.3,0-0.5-0.1-0.7c-0.1-0.2-0.2-0.4-0.4-0.6c-0.2-0.2-0.4-0.3-0.6-0.4s-0.5-0.1-0.8-0.1c-0.4,0-0.7,0.1-1,0.2s-0.6,0.3-0.8,0.5
		c-0.2,0.2-0.4,0.5-0.5,0.9C199.8,73.5,199.7,73.8,199.7,74.2z"/>
	<path class="st4" d="M210.6,73.2c0-0.1,0-0.2,0-0.3c0-0.1,0-0.2,0-0.2c0-0.4-0.1-0.7-0.4-0.9c-0.2-0.2-0.6-0.3-1-0.3
		c-0.3,0-0.7,0.1-1,0.2s-0.6,0.3-0.8,0.5l-0.4-0.6c0.3-0.2,0.6-0.4,1-0.6c0.4-0.2,0.8-0.2,1.2-0.2c0.3,0,0.5,0,0.8,0.1
		c0.3,0.1,0.5,0.2,0.7,0.3s0.3,0.3,0.4,0.5c0.1,0.2,0.2,0.5,0.2,0.8c0,0.1,0,0.2,0,0.3c0,0.1,0,0.2,0,0.3l-0.4,2.3
		c0,0.2-0.1,0.5-0.1,0.7c0,0.2,0,0.4,0,0.6h-0.7c0-0.1,0-0.3,0-0.5c0-0.2,0-0.3,0.1-0.5h0c-0.2,0.2-0.3,0.4-0.5,0.5
		c-0.2,0.1-0.3,0.2-0.5,0.3c-0.2,0.1-0.4,0.1-0.6,0.2c-0.2,0-0.4,0.1-0.7,0.1c-0.2,0-0.4,0-0.6-0.1s-0.4-0.1-0.6-0.3
		c-0.2-0.1-0.3-0.3-0.4-0.5s-0.2-0.4-0.2-0.7c0-0.5,0.1-0.8,0.4-1.1s0.6-0.5,1-0.7c0.4-0.2,0.9-0.3,1.4-0.3S210.1,73.2,210.6,73.2z
		 M210.3,73.8c-0.4,0-0.8,0-1.1,0.1c-0.4,0-0.7,0.1-1.1,0.2s-0.6,0.2-0.8,0.4c-0.2,0.2-0.3,0.4-0.3,0.7c0,0.2,0,0.3,0.1,0.5
		c0.1,0.1,0.2,0.2,0.3,0.3c0.1,0.1,0.2,0.1,0.4,0.1c0.1,0,0.3,0,0.4,0c0.3,0,0.6,0,0.8-0.1c0.2-0.1,0.5-0.2,0.7-0.4s0.3-0.4,0.5-0.6
		c0.1-0.2,0.2-0.5,0.3-0.7l0.1-0.5H210.3z"/>
	<path class="st4" d="M214.6,71c0,0.2,0,0.3-0.1,0.5c0,0.2,0,0.3-0.1,0.5h0c0.2-0.4,0.5-0.6,0.9-0.8c0.4-0.2,0.7-0.3,1.1-0.3
		c0.6,0,1.1,0.2,1.5,0.5c0.4,0.3,0.5,0.7,0.5,1.3c0,0.1,0,0.2,0,0.3c0,0.1,0,0.2,0,0.3l-0.6,3.5h-0.8l0.6-3.2c0-0.3,0.1-0.5,0.1-0.7
		c0-0.4-0.1-0.7-0.3-1c-0.2-0.2-0.5-0.4-1-0.4c-0.2,0-0.4,0-0.7,0.1c-0.2,0.1-0.4,0.2-0.6,0.4c-0.2,0.2-0.4,0.4-0.5,0.7
		s-0.3,0.6-0.3,1l-0.5,3h-0.8l0.8-4.5c0-0.2,0.1-0.4,0.1-0.6s0.1-0.5,0.1-0.7H214.6z"/>
	<path class="st4" d="M224.8,75.5L224.8,75.5l3.7-7.5h1.1l0.7,7.5h0l3.6-7.5h0.9l-4.3,8.7h-1l-0.7-7.5h0l-3.7,7.5h-1l-0.9-8.7h0.9
		L224.8,75.5z"/>
	<path class="st4" d="M237.9,70.8c0.6,0,1.1,0.2,1.5,0.5c0.4,0.3,0.5,0.7,0.5,1.3c0,0.1,0,0.2,0,0.3c0,0.1,0,0.2,0,0.3l-0.6,3.5
		h-0.8l0.6-3.2c0-0.3,0.1-0.5,0.1-0.7c0-0.4-0.1-0.7-0.3-1c-0.2-0.2-0.5-0.4-1-0.4c-0.2,0-0.4,0-0.7,0.1c-0.2,0.1-0.4,0.2-0.6,0.4
		s-0.4,0.4-0.5,0.7c-0.1,0.3-0.2,0.6-0.3,1l-0.5,3h-0.8l1.6-9.3h0.8l-0.8,4.5h0c0.2-0.3,0.5-0.6,0.8-0.8
		C237.1,70.9,237.5,70.8,237.9,70.8z"/>
	<path class="st4" d="M242,76.7h-0.8l1-5.8h0.8L242,76.7z M243.6,68.7c0,0.2-0.1,0.3-0.2,0.4c-0.1,0.1-0.2,0.2-0.4,0.2
		c-0.2,0-0.3,0-0.4-0.1c-0.1-0.1-0.2-0.2-0.2-0.4s0.1-0.3,0.2-0.4c0.1-0.1,0.3-0.2,0.4-0.2s0.3,0.1,0.4,0.2
		C243.5,68.4,243.6,68.6,243.6,68.7z"/>
	<path class="st4" d="M247.4,71.7h-1.6l-0.6,3.4c0,0.1,0,0.3,0,0.4c0,0.3,0.1,0.5,0.2,0.5s0.3,0.1,0.5,0.1c0.1,0,0.2,0,0.4-0.1
		s0.2-0.1,0.3-0.1l-0.1,0.7c-0.1,0.1-0.2,0.1-0.4,0.1c-0.2,0-0.3,0-0.5,0c-0.1,0-0.3,0-0.4,0c-0.1,0-0.3-0.1-0.4-0.2
		c-0.1-0.1-0.2-0.2-0.3-0.4c-0.1-0.1-0.1-0.3-0.1-0.6c0-0.1,0-0.2,0-0.4l0.6-3.6h-1.2L244,71h1.2l0.3-1.6h0.8L246,71h1.6L247.4,71.7
		z"/>
	<path class="st4" d="M248.6,74.1c0,0,0,0.1,0,0.1c0,0,0,0.1,0,0.1c0,0.3,0,0.5,0.1,0.7s0.2,0.4,0.4,0.6s0.4,0.3,0.6,0.4
		c0.2,0.1,0.5,0.1,0.7,0.1c0.5,0,0.8-0.1,1.2-0.3c0.3-0.2,0.6-0.4,0.8-0.7l0.5,0.5c-0.3,0.4-0.7,0.7-1.2,0.9
		c-0.4,0.2-0.9,0.3-1.4,0.3c-0.4,0-0.7-0.1-1-0.2s-0.6-0.3-0.8-0.5c-0.2-0.2-0.4-0.5-0.6-0.8c-0.1-0.3-0.2-0.7-0.2-1.1
		c0-0.5,0.1-0.9,0.3-1.3c0.2-0.4,0.4-0.8,0.7-1.1s0.7-0.6,1.1-0.8c0.4-0.2,0.8-0.3,1.3-0.3c0.8,0,1.4,0.2,1.8,0.6
		c0.4,0.4,0.6,1,0.6,1.6c0,0.1,0,0.2,0,0.5s0,0.4-0.1,0.5H248.6z M252.6,73.5c0-0.1,0-0.1,0-0.2c0-0.1,0-0.2,0-0.2
		c0-0.4-0.1-0.8-0.4-1.1c-0.3-0.3-0.7-0.4-1.2-0.4c-0.3,0-0.6,0.1-0.8,0.2c-0.3,0.1-0.5,0.2-0.7,0.4c-0.2,0.2-0.4,0.4-0.5,0.6
		c-0.1,0.2-0.2,0.5-0.3,0.7H252.6z"/>
	<path class="st4" d="M261.8,76.2c0.5,0,1-0.1,1.4-0.2c0.4-0.1,0.8-0.3,1.1-0.4l0.5-2.7h-2.1l0.1-0.8h2.9l-0.7,3.9
		c-0.5,0.3-1.1,0.5-1.6,0.7c-0.5,0.1-1.1,0.2-1.7,0.2c-0.6,0-1.1-0.1-1.6-0.3c-0.5-0.2-0.9-0.4-1.2-0.8c-0.3-0.3-0.6-0.7-0.8-1.2
		c-0.2-0.5-0.3-1-0.3-1.5c0-0.8,0.1-1.5,0.4-2.1c0.3-0.7,0.6-1.2,1.1-1.7c0.5-0.5,1-0.9,1.7-1.2c0.6-0.3,1.3-0.4,2-0.4
		c0.3,0,0.6,0,0.9,0.1c0.3,0.1,0.6,0.2,0.8,0.3c0.3,0.1,0.5,0.3,0.7,0.4c0.2,0.2,0.4,0.4,0.5,0.6l-0.8,0.5c-0.1-0.1-0.2-0.3-0.3-0.4
		c-0.1-0.1-0.3-0.3-0.5-0.4c-0.2-0.1-0.4-0.2-0.6-0.3c-0.2-0.1-0.5-0.1-0.8-0.1c-0.6,0-1.2,0.1-1.7,0.4c-0.5,0.3-1,0.6-1.3,1
		c-0.4,0.4-0.7,0.9-0.9,1.5s-0.3,1.1-0.3,1.7c0,0.4,0.1,0.8,0.2,1.2c0.1,0.4,0.3,0.7,0.6,1s0.6,0.5,1,0.7
		C260.8,76.1,261.3,76.2,261.8,76.2z"/>
	<path class="st4" d="M267.8,71.6c0-0.2,0.1-0.5,0.1-0.7h0.8c0,0.2,0,0.3-0.1,0.5c0,0.2,0,0.3-0.1,0.5h0c0.2-0.3,0.5-0.6,0.8-0.8
		s0.7-0.3,1.1-0.3c0.1,0,0.2,0,0.3,0c0.1,0,0.2,0,0.3,0l-0.2,0.8c0,0-0.1,0-0.2,0s-0.2,0-0.3,0c-0.2,0-0.4,0-0.7,0.1
		c-0.2,0.1-0.4,0.2-0.6,0.4c-0.2,0.2-0.3,0.4-0.5,0.7c-0.1,0.3-0.2,0.6-0.3,1l-0.5,3h-0.8l0.8-4.5C267.7,72.1,267.7,71.9,267.8,71.6
		z"/>
	<path class="st4" d="M273.5,76.9c-0.4,0-0.7-0.1-1.1-0.2c-0.3-0.1-0.6-0.3-0.8-0.5c-0.2-0.2-0.4-0.5-0.5-0.8
		c-0.1-0.3-0.2-0.6-0.2-1c0-0.5,0.1-0.9,0.3-1.4c0.2-0.4,0.4-0.8,0.7-1.1c0.3-0.3,0.7-0.6,1.1-0.8c0.4-0.2,0.9-0.3,1.4-0.3
		c0.4,0,0.8,0.1,1.1,0.2s0.6,0.3,0.8,0.5c0.2,0.2,0.4,0.5,0.5,0.8s0.2,0.6,0.2,1c0,0.5-0.1,1-0.3,1.4s-0.4,0.8-0.7,1.1
		s-0.7,0.6-1.1,0.8C274.5,76.8,274,76.9,273.5,76.9z M276.1,73.4c0-0.3,0-0.5-0.1-0.7c-0.1-0.2-0.2-0.4-0.4-0.6s-0.4-0.3-0.6-0.4
		c-0.2-0.1-0.5-0.1-0.8-0.1c-0.4,0-0.7,0.1-1,0.2c-0.3,0.2-0.6,0.4-0.8,0.6c-0.2,0.3-0.4,0.6-0.5,0.9c-0.1,0.3-0.2,0.7-0.2,1.1
		c0,0.3,0,0.5,0.1,0.7c0.1,0.2,0.2,0.4,0.4,0.6c0.2,0.2,0.4,0.3,0.6,0.4c0.2,0.1,0.5,0.1,0.8,0.1c0.4,0,0.7-0.1,1-0.2
		c0.3-0.2,0.6-0.4,0.8-0.6s0.4-0.6,0.5-0.9S276.1,73.8,276.1,73.4z"/>
	<path class="st4" d="M282.1,76.7c0-0.2,0-0.3,0.1-0.5s0-0.3,0.1-0.5h0c-0.2,0.4-0.5,0.6-0.9,0.8c-0.3,0.2-0.7,0.3-1.1,0.3
		c-0.6,0-1.1-0.2-1.5-0.5c-0.4-0.3-0.5-0.7-0.5-1.3c0-0.1,0-0.2,0-0.3c0-0.1,0-0.2,0-0.3L279,71h0.8l-0.6,3.2c0,0.3-0.1,0.5-0.1,0.7
		c0,0.4,0.1,0.7,0.3,1s0.5,0.3,1,0.3c0.2,0,0.4,0,0.7-0.1s0.4-0.2,0.6-0.4c0.2-0.2,0.4-0.4,0.5-0.7c0.1-0.3,0.3-0.6,0.3-1l0.5-3h0.8
		l-0.8,4.5c0,0.2-0.1,0.4-0.1,0.6c0,0.2-0.1,0.5-0.1,0.7H282.1z"/>
	<path class="st4" d="M286.8,71.9c0.1-0.1,0.2-0.3,0.4-0.4c0.1-0.1,0.3-0.2,0.5-0.3c0.2-0.1,0.4-0.2,0.6-0.2
		c0.2-0.1,0.4-0.1,0.7-0.1c0.4,0,0.8,0.1,1.1,0.2c0.3,0.1,0.6,0.3,0.8,0.5s0.4,0.5,0.5,0.8c0.1,0.3,0.2,0.6,0.2,1
		c0,0.5-0.1,1-0.3,1.4s-0.4,0.8-0.7,1.1s-0.7,0.6-1.1,0.8c-0.4,0.2-0.9,0.3-1.4,0.3c-0.4,0-0.8-0.1-1.2-0.3
		c-0.4-0.2-0.6-0.5-0.8-0.8h0l-0.7,3.9h-0.8l1.6-8.7h0.8L286.8,71.9L286.8,71.9z M290.7,73.4c0-0.3,0-0.5-0.1-0.7
		c-0.1-0.2-0.2-0.4-0.4-0.6s-0.3-0.3-0.6-0.4s-0.5-0.1-0.8-0.1c-0.4,0-0.7,0.1-1,0.2c-0.3,0.1-0.6,0.4-0.8,0.6
		c-0.2,0.3-0.4,0.6-0.5,0.9c-0.1,0.3-0.2,0.7-0.2,1.1c0,0.3,0,0.5,0.1,0.7c0.1,0.2,0.2,0.4,0.4,0.6c0.2,0.2,0.4,0.3,0.6,0.4
		s0.5,0.1,0.8,0.1c0.4,0,0.7-0.1,1-0.2c0.3-0.1,0.6-0.4,0.8-0.6c0.2-0.3,0.4-0.6,0.5-0.9C290.6,74.1,290.7,73.8,290.7,73.4z"/>
	<circle class="st9" cx="45.7" cy="45.7" r="44.6"/>
	<path class="st4" d="M72.5,33.7c2.8,0,4.8,1.2,6.1,2.6c1.5,1.5,2.4,3.6,2.9,5c0.1,0.2,0.1,0.3,0.4,0.3l0.9-0.1
		c0.1,0,0.1-0.2,0.1-0.5l-0.4-7.3c0-0.3-0.1-0.5-0.4-0.5c-0.2,0-0.3,0.1-0.5,0.4L81.2,34c-0.2,0.3-0.4,0.4-0.9,0.1
		c-1.2-0.9-3.9-2-7.5-2c-6.7,0-11.6,1.4-14.7,11.2l-3,7.8l-4.6-10.2c0,0-1.9-4.6-2.7-4.6c-0.8,0-2.8,4.3-2.8,4.3S40.1,51.2,39.8,52
		l-0.1,0L34,35c-0.3-0.8,0.1-1.3,0.9-1.3h0.7c0.3,0,0.3-0.1,0.3-0.3v-0.9c0-0.2-0.1-0.3-0.3-0.3c-0.3,0-2,0.1-3.6,0.1
		c-0.2,0-0.4,0.5-0.7,1.2c-1.1,2.5-6.4,14.1-6.7,15h-0.1l-6.6-15.4c-0.1-0.4-0.4-0.8-0.9-0.8c-0.5,0-0.8,0.6-0.9,1
		c-0.7,1.8-8.2,22.3-8.6,23.1c-0.4,0.8-1,1.2-1.6,1.2H2.9c-0.2,0-0.3,0.1-0.3,0.3v1c0,0.1,0.1,0.2,0.2,0.2c0.3,0,3.6-0.1,5.6-0.1
		c2.3,0,3.5,0.1,3.9,0.1c0.2,0,0.3-0.1,0.3-0.3V58c0-0.2,0-0.3-0.3-0.3h-1c-0.9,0-1.2-0.5-1.2-1c0-2,4.2-14.1,5.3-17.3h0.1l5.3,13.1
		c0,0,1.2,2.9,2,2.9c1.1,0,2.9-4,2.9-4s4.9-11,5.2-11.8l0.1,0l5.7,16.9c0.3,0.8-0.1,1.3-0.9,1.3h-0.7c-0.3,0-0.3,0.1-0.3,0.3v0.9
		c0,0.2,0.1,0.3,0.3,0.3c0.3,0,1.2,0,3-0.1c0.3,0,0.5-0.1,0.7-0.3c0.2-0.1,0.3-0.3,0.4-0.5c0.1-0.4,6.6-14,6.9-15.1h0.1l6.6,14.9
		c0.1,0.4,0.4,0.8,0.9,0.8c2,0,2.6-0.8,3.4-3c0.4-1.2,2.8-7.9,4.9-13.6C64.6,35.7,68.6,33.7,72.5,33.7z M90,47.2
		c-0.4,0-7.3,0.1-10.4,0.1c-3,0-4.8-0.1-5.2-0.1c-0.1,0-0.2,0.1-0.2,0.3v0.8c0,0.2,0.1,0.3,0.3,0.3h1.5c1,0,1.3,0.4,1.3,1.7v2.7
		c0,1.9-0.1,2.9-0.9,3.4c-1.2,0.7-2.6,0.6-5,0.6c-3.6,0-6.2-2.3-9.2-4.7c-0.5-0.4-0.7-0.2-0.8,0c-0.1,0.2-0.6,1.4-0.7,1.7
		c-0.1,0.3-0.2,0.7,0.2,1.1c2.5,2.8,6.8,4,10.3,4c4.4,0,7.4-0.9,10.4-2.4c0.4-0.1,0.6-0.3,0.6-0.6c0-0.3-0.1-0.7-0.1-1.2v-4.8
		c0-1.1,0.4-1.4,1.1-1.4h6.9c0.2,0,0.3-0.1,0.3-0.3v-0.9C90.4,47.3,90.3,47.2,90,47.2z"/>
</g>
</a>
</svg>
