<?xml version="1.0" encoding="iso-8859-1"?>
<!-- Generator: Adobe Illustrator 19.1.0, SVG Export Plug-In . SVG Version: 6.00 Build 0)  -->
<svg version="1.1" xmlns="http://www.w3.org/2000/svg" xmlns:xlink="http://www.w3.org/1999/xlink" x="0px" y="0px"
	 viewBox="0 0 347.9 91.3" style="enable-background:new 0 0 347.9 91.3;" xml:space="preserve">
<style type="text/css">
	.st0{display:none;}
	.st1{display:inline;fill:#5D5E5E;}
	.st2{fill:#001F5B;}
	.st3{fill:#808285;}
	.st4{fill:#FFFFFF;}
	.st5{fill:#9E9E9E;}
	.st6{fill:none;stroke:#8083A9;stroke-width:2.1378;stroke-miterlimit:10;}
	.st7{fill:#8285AA;}
	.st8{fill:none;stroke:#FFFFFF;stroke-width:2.1378;stroke-miterlimit:10;}
	.st9{fill:#001F5B;stroke:#FFFFFF;stroke-width:2.1378;stroke-miterlimit:10;}
</style>
<a xmlns="http://www.w3.org/2000/svg" xmlns:xlink="http://www.w3.org/1999/xlink" xlink:href="http://morganwhiteintl.com" target="_top">
<g id="logo-division">
	<path class="st4" d="M106.5,34.9h4.6v21.9h-4.6V34.9z"/>
	<path class="st4" d="M115.4,34.9h6.3l8.9,15.2h0.1V34.9h4.6v21.9h-6L120,41.2H120v15.6h-4.6V34.9z"/>
	<path class="st4" d="M143.6,39.2h-6v-4.3h16.6v4.3h-6v17.6h-4.6V39.2z"/>
	<path class="st4" d="M156.7,34.9H171v4.4h-9.6v4.1h9.1v4.4h-9.1v4.4h10.2v4.4h-14.8V34.9z"/>
	<path class="st4" d="M175.2,34.9h8.1c1.1,0,2.1,0.1,3,0.3c1,0.2,1.8,0.6,2.5,1.1c0.7,0.5,1.3,1.2,1.7,2c0.4,0.9,0.6,1.9,0.6,3.2
		c0,1.5-0.4,2.9-1.2,3.9c-0.8,1.1-1.9,1.8-3.4,2.1l5.3,9.2h-5.5l-4.4-8.7h-2.3v8.7h-4.6V34.9z M179.9,44h2.7c0.4,0,0.9,0,1.3,0
		c0.5,0,0.9-0.1,1.3-0.3c0.4-0.2,0.7-0.4,0.9-0.7c0.2-0.3,0.4-0.8,0.4-1.4c0-0.6-0.1-1-0.3-1.3c-0.2-0.3-0.5-0.6-0.8-0.8
		c-0.3-0.2-0.7-0.3-1.2-0.4c-0.4-0.1-0.9-0.1-1.3-0.1h-3V44z"/>
	<path class="st4" d="M194.5,34.9h6.3l8.9,15.2h0.1V34.9h4.6v21.9h-6l-9.2-15.6h-0.1v15.6h-4.6V34.9z"/>
	<path class="st4" d="M225.5,34.9h3.8l9.1,21.9h-5.2l-1.8-4.6h-8.2l-1.7,4.6h-5.1L225.5,34.9z M227.3,41.3l-2.6,6.8h5.1L227.3,41.3z
		"/>
	<path class="st4" d="M241.9,39.2h-6v-4.3h16.6v4.3h-6v17.6h-4.6V39.2z"/>
	<path class="st4" d="M254.8,34.9h4.6v21.9h-4.6V34.9z"/>
	<path class="st4" d="M262.5,45.9c0-1.8,0.3-3.3,0.8-4.8s1.3-2.6,2.4-3.6c1-1,2.2-1.8,3.6-2.3c1.4-0.5,2.9-0.8,4.5-0.8
		c1.6,0,3.2,0.3,4.5,0.8c1.4,0.5,2.6,1.3,3.6,2.3c1,1,1.8,2.2,2.4,3.6s0.8,3,0.8,4.8c0,1.8-0.3,3.3-0.8,4.8
		c-0.6,1.4-1.3,2.6-2.4,3.6c-1,1-2.2,1.8-3.6,2.3s-2.9,0.8-4.5,0.8c-1.6,0-3.2-0.3-4.5-0.8c-1.4-0.5-2.6-1.3-3.6-2.3
		c-1-1-1.8-2.2-2.4-3.6C262.8,49.2,262.5,47.6,262.5,45.9z M267.3,45.9c0,1,0.2,2,0.5,2.8c0.3,0.9,0.7,1.6,1.3,2.2
		c0.6,0.6,1.3,1.1,2.1,1.5c0.8,0.3,1.7,0.5,2.7,0.5c1,0,1.9-0.2,2.7-0.5c0.8-0.4,1.5-0.8,2.1-1.5c0.6-0.6,1-1.4,1.3-2.2
		c0.3-0.9,0.5-1.8,0.5-2.8c0-1-0.2-1.9-0.5-2.8c-0.3-0.9-0.7-1.6-1.3-2.2c-0.6-0.6-1.3-1.1-2.1-1.5c-0.8-0.4-1.7-0.5-2.7-0.5
		c-1,0-1.9,0.2-2.7,0.5c-0.8,0.3-1.5,0.8-2.1,1.5c-0.6,0.6-1,1.4-1.3,2.2C267.5,43.9,267.3,44.9,267.3,45.9z"/>
	<path class="st4" d="M288.3,34.9h6.3l8.9,15.2h0.1V34.9h4.6v21.9h-6L293,41.2H293v15.6h-4.6V34.9z"/>
	<path class="st4" d="M319.4,34.9h3.8l9.1,21.9h-5.2l-1.8-4.6h-8.2l-1.7,4.6h-5.1L319.4,34.9z M321.2,41.3l-2.6,6.8h5.1L321.2,41.3z
		"/>
	<path class="st4" d="M334.7,34.9h4.6v17.4h8.6v4.4h-13.2V34.9z"/>
	<circle class="st8" cx="45.7" cy="45.7" r="44.6"/>
	<path class="st4" d="M72.5,33.7c2.8,0,4.8,1.2,6.1,2.6c1.5,1.5,2.4,3.6,2.9,5c0.1,0.2,0.1,0.3,0.4,0.3l0.9-0.1
		c0.1,0,0.1-0.2,0.1-0.5l-0.4-7.3c0-0.3-0.1-0.5-0.4-0.5c-0.2,0-0.3,0.1-0.5,0.4L81.2,34c-0.2,0.3-0.4,0.4-0.9,0.1
		c-1.2-0.9-3.9-2-7.5-2c-6.7,0-11.6,1.4-14.7,11.2l-3,7.8l-4.6-10.2c0,0-1.9-4.6-2.7-4.6c-0.8,0-2.8,4.3-2.8,4.3S40.1,51.2,39.8,52
		l-0.1,0L34,35c-0.3-0.8,0.1-1.3,0.9-1.3h0.7c0.3,0,0.3-0.1,0.3-0.3v-0.9c0-0.2-0.1-0.3-0.3-0.3c-0.3,0-2,0.1-3.6,0.1
		c-0.2,0-0.4,0.5-0.7,1.2c-1.1,2.5-6.4,14.1-6.7,15h-0.1l-6.6-15.4c-0.1-0.4-0.4-0.8-0.9-0.8c-0.5,0-0.8,0.6-0.9,1
		c-0.7,1.8-8.2,22.3-8.6,23.1c-0.4,0.8-1,1.2-1.6,1.2H2.9c-0.2,0-0.3,0.1-0.3,0.3v1c0,0.1,0.1,0.2,0.2,0.2c0.3,0,3.6-0.1,5.6-0.1
		c2.3,0,3.5,0.1,3.9,0.1c0.2,0,0.3-0.1,0.3-0.3V58c0-0.2,0-0.3-0.3-0.3h-1c-0.9,0-1.2-0.5-1.2-1c0-2,4.2-14.1,5.3-17.3h0.1l5.3,13.1
		c0,0,1.2,2.9,2,2.9c1.1,0,2.9-4,2.9-4s4.9-11,5.2-11.8l0.1,0l5.7,16.9c0.3,0.8-0.1,1.3-0.9,1.3h-0.7c-0.3,0-0.3,0.1-0.3,0.3v0.9
		c0,0.2,0.1,0.3,0.3,0.3c0.3,0,1.2,0,3-0.1c0.3,0,0.5-0.1,0.7-0.3c0.2-0.1,0.3-0.3,0.4-0.5c0.1-0.4,6.6-14,6.9-15.1h0.1l6.6,14.9
		c0.1,0.4,0.4,0.8,0.9,0.8c2,0,2.6-0.8,3.4-3c0.4-1.2,2.8-7.9,4.9-13.6C64.6,35.7,68.6,33.7,72.5,33.7z M90,47.2
		c-0.4,0-7.3,0.1-10.4,0.1c-3,0-4.8-0.1-5.2-0.1c-0.1,0-0.2,0.1-0.2,0.3v0.8c0,0.2,0.1,0.3,0.3,0.3h1.5c1,0,1.3,0.4,1.3,1.7v2.7
		c0,1.9-0.1,2.9-0.9,3.4c-1.2,0.7-2.6,0.6-5,0.6c-3.6,0-6.2-2.3-9.2-4.7c-0.5-0.4-0.7-0.2-0.8,0c-0.1,0.2-0.6,1.4-0.7,1.7
		c-0.1,0.3-0.2,0.7,0.2,1.1c2.5,2.8,6.8,4,10.3,4c4.4,0,7.4-0.9,10.4-2.4c0.4-0.1,0.6-0.3,0.6-0.6c0-0.3-0.1-0.7-0.1-1.2v-4.8
		c0-1.1,0.4-1.4,1.1-1.4h6.9c0.2,0,0.3-0.1,0.3-0.3v-0.9C90.4,47.3,90.3,47.2,90,47.2z"/>
	<path class="st4" d="M105.5,76.6h-1l5.6-8.7h0.9l1.8,8.7h-0.9l-0.5-2.3h-4.5L105.5,76.6z M107.4,73.5h3.8l-0.9-4.6L107.4,73.5z"/>
	<path class="st4" d="M116.6,74.3c0-0.5,0.1-1,0.3-1.4c0.2-0.4,0.4-0.8,0.7-1.1s0.7-0.6,1.1-0.8s0.9-0.3,1.4-0.3
		c0.4,0,0.8,0.1,1.2,0.3s0.6,0.5,0.8,0.8h0l0.8-4.5h0.8l-1.7,9.3h-0.8l0.2-1h0c-0.2,0.3-0.5,0.6-0.9,0.8c-0.4,0.2-0.8,0.3-1.3,0.3
		c-0.4,0-0.8-0.1-1.1-0.2c-0.3-0.1-0.6-0.3-0.8-0.5c-0.2-0.2-0.4-0.5-0.5-0.8C116.7,75,116.6,74.7,116.6,74.3z M117.5,74.2
		c0,0.3,0,0.5,0.1,0.7s0.2,0.4,0.4,0.6c0.2,0.2,0.3,0.3,0.6,0.4c0.2,0.1,0.5,0.1,0.8,0.1c0.4,0,0.7-0.1,1-0.2
		c0.3-0.1,0.6-0.4,0.8-0.6c0.2-0.3,0.4-0.6,0.5-0.9s0.2-0.7,0.2-1.1c0-0.3,0-0.5-0.1-0.8c-0.1-0.2-0.2-0.4-0.4-0.6
		c-0.2-0.2-0.4-0.3-0.6-0.4c-0.2-0.1-0.5-0.1-0.8-0.1c-0.4,0-0.7,0.1-1,0.2c-0.3,0.1-0.6,0.4-0.8,0.6c-0.2,0.3-0.4,0.6-0.5,0.9
		C117.6,73.5,117.5,73.8,117.5,74.2z"/>
	<path class="st4" d="M125,76.6h-0.8l1-5.8h0.8L125,76.6z M126.5,68.6c0,0.2-0.1,0.3-0.2,0.4c-0.1,0.1-0.2,0.2-0.4,0.2
		c-0.2,0-0.3,0-0.4-0.1c-0.1-0.1-0.2-0.2-0.2-0.4s0.1-0.3,0.2-0.4c0.1-0.1,0.3-0.2,0.4-0.2s0.3,0.1,0.4,0.2
		C126.5,68.3,126.5,68.4,126.5,68.6z"/>
	<path class="st4" d="M129.2,76.6h-0.9l-1.2-5.8h0.9l0.9,4.9h0l2.9-4.9h0.9L129.2,76.6z"/>
	<path class="st4" d="M133.7,76.6h-0.8l1-5.8h0.8L133.7,76.6z M135.2,68.6c0,0.2-0.1,0.3-0.2,0.4c-0.1,0.1-0.2,0.2-0.4,0.2
		c-0.2,0-0.3,0-0.4-0.1c-0.1-0.1-0.2-0.2-0.2-0.4s0.1-0.3,0.2-0.4c0.1-0.1,0.3-0.2,0.4-0.2s0.3,0.1,0.4,0.2
		C135.2,68.3,135.2,68.4,135.2,68.6z"/>
	<path class="st4" d="M139.7,72.1c-0.1-0.2-0.3-0.4-0.5-0.5c-0.2-0.1-0.5-0.2-0.8-0.2c-0.1,0-0.3,0-0.5,0c-0.2,0-0.3,0.1-0.4,0.2
		s-0.2,0.2-0.3,0.3c-0.1,0.1-0.1,0.3-0.1,0.4c0,0.2,0,0.3,0.1,0.4s0.1,0.2,0.2,0.3c0.1,0.1,0.2,0.1,0.4,0.2c0.1,0.1,0.3,0.1,0.5,0.2
		c0.6,0.2,1,0.4,1.3,0.6c0.3,0.3,0.4,0.6,0.4,1.1c0,0.3-0.1,0.6-0.2,0.8c-0.1,0.2-0.3,0.4-0.5,0.6s-0.5,0.2-0.7,0.3
		c-0.3,0.1-0.5,0.1-0.8,0.1c-0.5,0-0.9-0.1-1.4-0.3c-0.4-0.2-0.8-0.5-1-0.8l0.7-0.5c0.1,0.2,0.4,0.4,0.6,0.6c0.3,0.2,0.6,0.3,1,0.3
		c0.2,0,0.4,0,0.5-0.1s0.3-0.1,0.5-0.2s0.2-0.2,0.3-0.3s0.1-0.3,0.1-0.5c0-0.3-0.1-0.5-0.4-0.7c-0.2-0.2-0.6-0.3-1-0.5
		c-0.2-0.1-0.3-0.1-0.5-0.2s-0.3-0.2-0.5-0.3c-0.1-0.1-0.3-0.3-0.3-0.4c-0.1-0.2-0.1-0.4-0.1-0.6c0-0.3,0.1-0.6,0.2-0.8
		s0.3-0.4,0.5-0.5c0.2-0.1,0.4-0.2,0.7-0.3s0.5-0.1,0.8-0.1c0.4,0,0.8,0.1,1.2,0.3c0.3,0.2,0.6,0.4,0.8,0.7L139.7,72.1z"/>
	<path class="st4" d="M142,76.6h-0.8l1-5.8h0.8L142,76.6z M143.5,68.6c0,0.2-0.1,0.3-0.2,0.4c-0.1,0.1-0.2,0.2-0.4,0.2
		c-0.2,0-0.3,0-0.4-0.1c-0.1-0.1-0.2-0.2-0.2-0.4s0.1-0.3,0.2-0.4c0.1-0.1,0.3-0.2,0.4-0.2s0.3,0.1,0.4,0.2
		C143.4,68.3,143.5,68.4,143.5,68.6z"/>
	<path class="st4" d="M146.7,76.8c-0.4,0-0.7-0.1-1.1-0.2c-0.3-0.1-0.6-0.3-0.8-0.5c-0.2-0.2-0.4-0.5-0.5-0.8
		c-0.1-0.3-0.2-0.6-0.2-1c0-0.5,0.1-0.9,0.3-1.4c0.2-0.4,0.4-0.8,0.7-1.1c0.3-0.3,0.7-0.6,1.1-0.8c0.4-0.2,0.9-0.3,1.4-0.3
		c0.4,0,0.8,0.1,1.1,0.2s0.6,0.3,0.8,0.5c0.2,0.2,0.4,0.5,0.5,0.8s0.2,0.6,0.2,1c0,0.5-0.1,1-0.3,1.4s-0.4,0.8-0.7,1.1
		s-0.7,0.6-1.1,0.8C147.6,76.7,147.2,76.8,146.7,76.8z M149.3,73.3c0-0.3,0-0.5-0.1-0.7c-0.1-0.2-0.2-0.4-0.4-0.6s-0.4-0.3-0.6-0.4
		c-0.2-0.1-0.5-0.1-0.8-0.1c-0.4,0-0.7,0.1-1,0.2c-0.3,0.2-0.6,0.4-0.8,0.6c-0.2,0.3-0.4,0.6-0.5,0.9c-0.1,0.3-0.2,0.7-0.2,1.1
		c0,0.3,0,0.5,0.1,0.7c0.1,0.2,0.2,0.4,0.4,0.6c0.2,0.2,0.4,0.3,0.6,0.4c0.2,0.1,0.5,0.1,0.8,0.1c0.4,0,0.7-0.1,1-0.2
		c0.3-0.2,0.6-0.4,0.8-0.6s0.4-0.6,0.5-0.9S149.3,73.6,149.3,73.3z"/>
	<path class="st4" d="M153,70.9c0,0.2,0,0.3-0.1,0.5c0,0.2,0,0.3-0.1,0.5h0c0.2-0.4,0.5-0.6,0.9-0.8c0.4-0.2,0.7-0.3,1.1-0.3
		c0.6,0,1.1,0.2,1.5,0.5c0.4,0.3,0.5,0.7,0.5,1.3c0,0.1,0,0.2,0,0.3c0,0.1,0,0.2,0,0.3l-0.6,3.5h-0.8l0.6-3.2c0-0.3,0.1-0.5,0.1-0.7
		c0-0.4-0.1-0.7-0.3-1c-0.2-0.2-0.5-0.4-1-0.4c-0.2,0-0.4,0-0.7,0.1c-0.2,0.1-0.4,0.2-0.6,0.4c-0.2,0.2-0.4,0.4-0.5,0.7
		s-0.3,0.6-0.3,1l-0.5,3h-0.8l0.8-4.5c0-0.2,0.1-0.4,0.1-0.6s0.1-0.5,0.1-0.7H153z"/>
	<path class="st4" d="M163.8,76.8c-0.4,0-0.7-0.1-1.1-0.2c-0.3-0.1-0.6-0.3-0.8-0.5c-0.2-0.2-0.4-0.5-0.5-0.8
		c-0.1-0.3-0.2-0.6-0.2-1c0-0.5,0.1-0.9,0.3-1.4c0.2-0.4,0.4-0.8,0.7-1.1c0.3-0.3,0.7-0.6,1.1-0.8c0.4-0.2,0.9-0.3,1.4-0.3
		c0.4,0,0.8,0.1,1.1,0.2s0.6,0.3,0.8,0.5c0.2,0.2,0.4,0.5,0.5,0.8s0.2,0.6,0.2,1c0,0.5-0.1,1-0.3,1.4s-0.4,0.8-0.7,1.1
		s-0.7,0.6-1.1,0.8C164.7,76.7,164.3,76.8,163.8,76.8z M166.4,73.3c0-0.3,0-0.5-0.1-0.7c-0.1-0.2-0.2-0.4-0.4-0.6s-0.4-0.3-0.6-0.4
		c-0.2-0.1-0.5-0.1-0.8-0.1c-0.4,0-0.7,0.1-1,0.2c-0.3,0.2-0.6,0.4-0.8,0.6c-0.2,0.3-0.4,0.6-0.5,0.9c-0.1,0.3-0.2,0.7-0.2,1.1
		c0,0.3,0,0.5,0.1,0.7c0.1,0.2,0.2,0.4,0.4,0.6c0.2,0.2,0.4,0.3,0.6,0.4c0.2,0.1,0.5,0.1,0.8,0.1c0.4,0,0.7-0.1,1-0.2
		c0.3-0.2,0.6-0.4,0.8-0.6s0.4-0.6,0.5-0.9S166.4,73.6,166.4,73.3z"/>
	<path class="st4" d="M171.7,71.5h-1.4l-0.9,5.1h-0.8l0.9-5.1h-1.2l0.1-0.7h1.2l0.3-1.6c0-0.3,0.1-0.6,0.2-0.8
		c0.1-0.3,0.2-0.5,0.4-0.7c0.2-0.2,0.4-0.3,0.6-0.5s0.5-0.2,0.9-0.2c0.1,0,0.2,0,0.3,0c0.1,0,0.2,0,0.3,0.1l-0.2,0.7
		c-0.2,0-0.4-0.1-0.6-0.1c-0.2,0-0.4,0-0.5,0.1c-0.1,0.1-0.3,0.2-0.4,0.3c-0.1,0.1-0.2,0.3-0.2,0.5c-0.1,0.2-0.1,0.4-0.1,0.6
		l-0.3,1.5h1.4L171.7,71.5z"/>
	<path class="st4" d="M179.6,75.1L179.6,75.1l4.2-7.2h1.3l-1.5,8.7h-0.9l1.3-7.6h0l-4.5,7.6h-0.5l-1.8-7.6h0l-1.3,7.6h-0.9l1.5-8.7
		h1.3L179.6,75.1z"/>
	<path class="st4" d="M188.5,76.8c-0.4,0-0.7-0.1-1.1-0.2c-0.3-0.1-0.6-0.3-0.8-0.5c-0.2-0.2-0.4-0.5-0.5-0.8
		c-0.1-0.3-0.2-0.6-0.2-1c0-0.5,0.1-0.9,0.3-1.4c0.2-0.4,0.4-0.8,0.7-1.1c0.3-0.3,0.7-0.6,1.1-0.8c0.4-0.2,0.9-0.3,1.4-0.3
		c0.4,0,0.8,0.1,1.1,0.2s0.6,0.3,0.8,0.5c0.2,0.2,0.4,0.5,0.5,0.8s0.2,0.6,0.2,1c0,0.5-0.1,1-0.3,1.4s-0.4,0.8-0.7,1.1
		s-0.7,0.6-1.1,0.8C189.4,76.7,189,76.8,188.5,76.8z M191.1,73.3c0-0.3,0-0.5-0.1-0.7c-0.1-0.2-0.2-0.4-0.4-0.6s-0.4-0.3-0.6-0.4
		c-0.2-0.1-0.5-0.1-0.8-0.1c-0.4,0-0.7,0.1-1,0.2c-0.3,0.2-0.6,0.4-0.8,0.6c-0.2,0.3-0.4,0.6-0.5,0.9c-0.1,0.3-0.2,0.7-0.2,1.1
		c0,0.3,0,0.5,0.1,0.7c0.1,0.2,0.2,0.4,0.4,0.6c0.2,0.2,0.4,0.3,0.6,0.4c0.2,0.1,0.5,0.1,0.8,0.1c0.4,0,0.7-0.1,1-0.2
		c0.3-0.2,0.6-0.4,0.8-0.6s0.4-0.6,0.5-0.9S191.1,73.6,191.1,73.3z"/>
	<path class="st4" d="M193.9,71.5c0-0.2,0.1-0.5,0.1-0.7h0.8c0,0.2,0,0.3-0.1,0.5c0,0.2,0,0.3-0.1,0.5h0c0.2-0.3,0.5-0.6,0.8-0.8
		s0.7-0.3,1.1-0.3c0.1,0,0.2,0,0.3,0c0.1,0,0.2,0,0.3,0l-0.2,0.8c0,0-0.1,0-0.2,0s-0.2,0-0.3,0c-0.2,0-0.4,0-0.7,0.1
		c-0.2,0.1-0.4,0.2-0.6,0.4c-0.2,0.2-0.3,0.4-0.5,0.7c-0.1,0.3-0.2,0.6-0.3,1l-0.5,3H193l0.8-4.5C193.9,72,193.9,71.8,193.9,71.5z"
		/>
	<path class="st4" d="M197.1,77.9c0.2,0.3,0.5,0.5,0.9,0.7s0.8,0.3,1.2,0.3c0.4,0,0.8-0.1,1.1-0.2c0.3-0.1,0.5-0.3,0.7-0.5
		c0.2-0.2,0.4-0.5,0.5-0.7s0.2-0.6,0.3-0.9l0.2-1.1h0c-0.3,0.4-0.6,0.7-1,0.9c-0.4,0.2-0.8,0.3-1.2,0.3c-0.4,0-0.8-0.1-1.1-0.2
		c-0.3-0.1-0.6-0.3-0.8-0.5c-0.2-0.2-0.4-0.5-0.5-0.8c-0.1-0.3-0.2-0.6-0.2-1c0-0.5,0.1-0.9,0.3-1.3c0.2-0.4,0.4-0.8,0.7-1.1
		s0.7-0.6,1.1-0.7c0.4-0.2,0.9-0.3,1.3-0.3c0.2,0,0.4,0,0.6,0.1c0.2,0,0.4,0.1,0.6,0.2c0.2,0.1,0.3,0.2,0.5,0.4
		c0.1,0.1,0.3,0.3,0.3,0.5h0l0.2-1h0.8l-1,5.7c-0.1,0.3-0.1,0.6-0.3,1s-0.3,0.7-0.5,1s-0.6,0.5-1,0.7c-0.4,0.2-0.9,0.3-1.6,0.3
		c-0.6,0-1.1-0.1-1.5-0.3s-0.8-0.5-1.1-0.9L197.1,77.9z M198,74.1c0,0.2,0,0.5,0.1,0.7s0.2,0.4,0.4,0.6s0.3,0.3,0.6,0.4
		c0.2,0.1,0.5,0.1,0.8,0.1c0.4,0,0.7-0.1,1-0.2c0.3-0.1,0.6-0.3,0.8-0.6c0.2-0.2,0.4-0.5,0.5-0.9c0.1-0.3,0.2-0.7,0.2-1
		c0-0.3,0-0.5-0.1-0.7c-0.1-0.2-0.2-0.4-0.4-0.6c-0.2-0.2-0.4-0.3-0.6-0.4s-0.5-0.1-0.8-0.1c-0.4,0-0.7,0.1-1,0.2s-0.6,0.3-0.8,0.5
		c-0.2,0.2-0.4,0.5-0.5,0.9C198.1,73.3,198,73.7,198,74.1z"/>
	<path class="st4" d="M208.9,73.1c0-0.1,0-0.2,0-0.3c0-0.1,0-0.2,0-0.2c0-0.4-0.1-0.7-0.4-0.9c-0.2-0.2-0.6-0.3-1-0.3
		c-0.3,0-0.7,0.1-1,0.2s-0.6,0.3-0.8,0.5l-0.4-0.6c0.3-0.2,0.6-0.4,1-0.6c0.4-0.2,0.8-0.2,1.2-0.2c0.3,0,0.5,0,0.8,0.1
		c0.3,0.1,0.5,0.2,0.7,0.3s0.3,0.3,0.4,0.5c0.1,0.2,0.2,0.5,0.2,0.8c0,0.1,0,0.2,0,0.3c0,0.1,0,0.2,0,0.3l-0.4,2.3
		c0,0.2-0.1,0.5-0.1,0.7c0,0.2,0,0.4,0,0.6h-0.7c0-0.1,0-0.3,0-0.5c0-0.2,0-0.3,0.1-0.5h0c-0.2,0.2-0.3,0.4-0.5,0.5
		c-0.2,0.1-0.3,0.2-0.5,0.3c-0.2,0.1-0.4,0.1-0.6,0.2c-0.2,0-0.4,0.1-0.7,0.1c-0.2,0-0.4,0-0.6-0.1s-0.4-0.1-0.6-0.3
		c-0.2-0.1-0.3-0.3-0.4-0.5s-0.2-0.4-0.2-0.7c0-0.5,0.1-0.8,0.4-1.1s0.6-0.5,1-0.7c0.4-0.2,0.9-0.3,1.4-0.3S208.4,73.1,208.9,73.1z
		 M208.6,73.7c-0.4,0-0.8,0-1.1,0.1c-0.4,0-0.7,0.1-1.1,0.2s-0.6,0.2-0.8,0.4c-0.2,0.2-0.3,0.4-0.3,0.7c0,0.2,0,0.3,0.1,0.5
		c0.1,0.1,0.2,0.2,0.3,0.3c0.1,0.1,0.2,0.1,0.4,0.1c0.1,0,0.3,0,0.4,0c0.3,0,0.6,0,0.8-0.1c0.2-0.1,0.5-0.2,0.7-0.4s0.3-0.4,0.5-0.6
		c0.1-0.2,0.2-0.5,0.3-0.7l0.1-0.5H208.6z"/>
	<path class="st4" d="M212.8,70.9c0,0.2,0,0.3-0.1,0.5c0,0.2,0,0.3-0.1,0.5h0c0.2-0.4,0.5-0.6,0.9-0.8c0.4-0.2,0.7-0.3,1.1-0.3
		c0.6,0,1.1,0.2,1.5,0.5c0.4,0.3,0.5,0.7,0.5,1.3c0,0.1,0,0.2,0,0.3c0,0.1,0,0.2,0,0.3l-0.6,3.5h-0.8l0.6-3.2c0-0.3,0.1-0.5,0.1-0.7
		c0-0.4-0.1-0.7-0.3-1c-0.2-0.2-0.5-0.4-1-0.4c-0.2,0-0.4,0-0.7,0.1c-0.2,0.1-0.4,0.2-0.6,0.4c-0.2,0.2-0.4,0.4-0.5,0.7
		s-0.3,0.6-0.3,1l-0.5,3h-0.8l0.8-4.5c0-0.2,0.1-0.4,0.1-0.6s0.1-0.5,0.1-0.7H212.8z"/>
	<path class="st4" d="M223.1,75.4L223.1,75.4l3.7-7.5h1.1l0.7,7.5h0l3.6-7.5h0.9l-4.3,8.7h-1l-0.7-7.5h0l-3.7,7.5h-1l-0.9-8.7h0.9
		L223.1,75.4z"/>
	<path class="st4" d="M236.2,70.7c0.6,0,1.1,0.2,1.5,0.5c0.4,0.3,0.5,0.7,0.5,1.3c0,0.1,0,0.2,0,0.3c0,0.1,0,0.2,0,0.3l-0.6,3.5
		h-0.8l0.6-3.2c0-0.3,0.1-0.5,0.1-0.7c0-0.4-0.1-0.7-0.3-1c-0.2-0.2-0.5-0.4-1-0.4c-0.2,0-0.4,0-0.7,0.1c-0.2,0.1-0.4,0.2-0.6,0.4
		s-0.4,0.4-0.5,0.7c-0.1,0.3-0.2,0.6-0.3,1l-0.5,3h-0.8l1.6-9.3h0.8l-0.8,4.5h0c0.2-0.3,0.5-0.6,0.8-0.8
		C235.4,70.8,235.8,70.7,236.2,70.7z"/>
	<path class="st4" d="M240.3,76.6h-0.8l1-5.8h0.8L240.3,76.6z M241.8,68.6c0,0.2-0.1,0.3-0.2,0.4c-0.1,0.1-0.2,0.2-0.4,0.2
		c-0.2,0-0.3,0-0.4-0.1c-0.1-0.1-0.2-0.2-0.2-0.4s0.1-0.3,0.2-0.4c0.1-0.1,0.3-0.2,0.4-0.2s0.3,0.1,0.4,0.2
		C241.8,68.3,241.8,68.4,241.8,68.6z"/>
	<path class="st4" d="M245.7,71.5h-1.6l-0.6,3.4c0,0.1,0,0.3,0,0.4c0,0.3,0.1,0.5,0.2,0.5s0.3,0.1,0.5,0.1c0.1,0,0.2,0,0.4-0.1
		s0.2-0.1,0.3-0.1l-0.1,0.7c-0.1,0.1-0.2,0.1-0.4,0.1c-0.2,0-0.3,0-0.5,0c-0.1,0-0.3,0-0.4,0c-0.1,0-0.3-0.1-0.4-0.2
		c-0.1-0.1-0.2-0.2-0.3-0.4c-0.1-0.1-0.1-0.3-0.1-0.6c0-0.1,0-0.2,0-0.4l0.6-3.6h-1.2l0.1-0.7h1.2l0.3-1.6h0.8l-0.3,1.6h1.6
		L245.7,71.5z"/>
	<path class="st4" d="M246.9,74c0,0,0,0.1,0,0.1c0,0,0,0.1,0,0.1c0,0.3,0,0.5,0.1,0.7s0.2,0.4,0.4,0.6s0.4,0.3,0.6,0.4
		c0.2,0.1,0.5,0.1,0.7,0.1c0.5,0,0.8-0.1,1.2-0.3c0.3-0.2,0.6-0.4,0.8-0.7l0.5,0.5c-0.3,0.4-0.7,0.7-1.2,0.9
		c-0.4,0.2-0.9,0.3-1.4,0.3c-0.4,0-0.7-0.1-1-0.2s-0.6-0.3-0.8-0.5c-0.2-0.2-0.4-0.5-0.6-0.8c-0.1-0.3-0.2-0.7-0.2-1.1
		c0-0.5,0.1-0.9,0.3-1.3c0.2-0.4,0.4-0.8,0.7-1.1s0.7-0.6,1.1-0.8c0.4-0.2,0.8-0.3,1.3-0.3c0.8,0,1.4,0.2,1.8,0.6
		c0.4,0.4,0.6,1,0.6,1.6c0,0.1,0,0.2,0,0.5s0,0.4-0.1,0.5H246.9z M250.9,73.4c0-0.1,0-0.1,0-0.2c0-0.1,0-0.2,0-0.2
		c0-0.4-0.1-0.8-0.4-1.1c-0.3-0.3-0.7-0.4-1.2-0.4c-0.3,0-0.6,0.1-0.8,0.2c-0.3,0.1-0.5,0.2-0.7,0.4c-0.2,0.2-0.4,0.4-0.5,0.6
		c-0.1,0.2-0.2,0.5-0.3,0.7H250.9z"/>
	<path class="st4" d="M260.1,76.1c0.5,0,1-0.1,1.4-0.2c0.4-0.1,0.8-0.3,1.1-0.4l0.5-2.7h-2.1l0.1-0.8h2.9l-0.7,3.9
		c-0.5,0.3-1.1,0.5-1.6,0.7c-0.5,0.1-1.1,0.2-1.7,0.2c-0.6,0-1.1-0.1-1.6-0.3c-0.5-0.2-0.9-0.4-1.2-0.8c-0.3-0.3-0.6-0.7-0.8-1.2
		c-0.2-0.5-0.3-1-0.3-1.5c0-0.8,0.1-1.5,0.4-2.1c0.3-0.7,0.6-1.2,1.1-1.7c0.5-0.5,1-0.9,1.7-1.2c0.6-0.3,1.3-0.4,2-0.4
		c0.3,0,0.6,0,0.9,0.1c0.3,0.1,0.6,0.2,0.8,0.3c0.3,0.1,0.5,0.3,0.7,0.4c0.2,0.2,0.4,0.4,0.5,0.6l-0.8,0.5c-0.1-0.1-0.2-0.3-0.3-0.4
		c-0.1-0.1-0.3-0.3-0.5-0.4c-0.2-0.1-0.4-0.2-0.6-0.3c-0.2-0.1-0.5-0.1-0.8-0.1c-0.6,0-1.2,0.1-1.7,0.4c-0.5,0.3-1,0.6-1.3,1
		c-0.4,0.4-0.7,0.9-0.9,1.5S257,72.4,257,73c0,0.4,0.1,0.8,0.2,1.2c0.1,0.4,0.3,0.7,0.6,1s0.6,0.5,1,0.7
		C259.1,76,259.6,76.1,260.1,76.1z"/>
	<path class="st4" d="M266.1,71.5c0-0.2,0.1-0.5,0.1-0.7h0.8c0,0.2,0,0.3-0.1,0.5c0,0.2,0,0.3-0.1,0.5h0c0.2-0.3,0.5-0.6,0.8-0.8
		s0.7-0.3,1.1-0.3c0.1,0,0.2,0,0.3,0c0.1,0,0.2,0,0.3,0l-0.2,0.8c0,0-0.1,0-0.2,0s-0.2,0-0.3,0c-0.2,0-0.4,0-0.7,0.1
		c-0.2,0.1-0.4,0.2-0.6,0.4c-0.2,0.2-0.3,0.4-0.5,0.7c-0.1,0.3-0.2,0.6-0.3,1l-0.5,3h-0.8l0.8-4.5C266,72,266,71.8,266.1,71.5z"/>
	<path class="st4" d="M271.8,76.8c-0.4,0-0.7-0.1-1.1-0.2c-0.3-0.1-0.6-0.3-0.8-0.5c-0.2-0.2-0.4-0.5-0.5-0.8
		c-0.1-0.3-0.2-0.6-0.2-1c0-0.5,0.1-0.9,0.3-1.4c0.2-0.4,0.4-0.8,0.7-1.1c0.3-0.3,0.7-0.6,1.1-0.8c0.4-0.2,0.9-0.3,1.4-0.3
		c0.4,0,0.8,0.1,1.1,0.2s0.6,0.3,0.8,0.5c0.2,0.2,0.4,0.5,0.5,0.8s0.2,0.6,0.2,1c0,0.5-0.1,1-0.3,1.4s-0.4,0.8-0.7,1.1
		s-0.7,0.6-1.1,0.8C272.8,76.7,272.3,76.8,271.8,76.8z M274.4,73.3c0-0.3,0-0.5-0.1-0.7c-0.1-0.2-0.2-0.4-0.4-0.6s-0.4-0.3-0.6-0.4
		c-0.2-0.1-0.5-0.1-0.8-0.1c-0.4,0-0.7,0.1-1,0.2c-0.3,0.2-0.6,0.4-0.8,0.6c-0.2,0.3-0.4,0.6-0.5,0.9c-0.1,0.3-0.2,0.7-0.2,1.1
		c0,0.3,0,0.5,0.1,0.7c0.1,0.2,0.2,0.4,0.4,0.6c0.2,0.2,0.4,0.3,0.6,0.4c0.2,0.1,0.5,0.1,0.8,0.1c0.4,0,0.7-0.1,1-0.2
		c0.3-0.2,0.6-0.4,0.8-0.6s0.4-0.6,0.5-0.9S274.4,73.6,274.4,73.3z"/>
	<path class="st4" d="M280.4,76.6c0-0.2,0-0.3,0.1-0.5s0-0.3,0.1-0.5h0c-0.2,0.4-0.5,0.6-0.9,0.8c-0.3,0.2-0.7,0.3-1.1,0.3
		c-0.6,0-1.1-0.2-1.5-0.5c-0.4-0.3-0.5-0.7-0.5-1.3c0-0.1,0-0.2,0-0.3c0-0.1,0-0.2,0-0.3l0.6-3.5h0.8l-0.6,3.2
		c0,0.3-0.1,0.5-0.1,0.7c0,0.4,0.1,0.7,0.3,1s0.5,0.3,1,0.3c0.2,0,0.4,0,0.7-0.1s0.4-0.2,0.6-0.4c0.2-0.2,0.4-0.4,0.5-0.7
		c0.1-0.3,0.3-0.6,0.3-1l0.5-3h0.8l-0.8,4.5c0,0.2-0.1,0.4-0.1,0.6c0,0.2-0.1,0.5-0.1,0.7H280.4z"/>
	<path class="st4" d="M285.1,71.8c0.1-0.1,0.2-0.3,0.4-0.4c0.1-0.1,0.3-0.2,0.5-0.3c0.2-0.1,0.4-0.2,0.6-0.2
		c0.2-0.1,0.4-0.1,0.7-0.1c0.4,0,0.8,0.1,1.1,0.2c0.3,0.1,0.6,0.3,0.8,0.5s0.4,0.5,0.5,0.8c0.1,0.3,0.2,0.6,0.2,1
		c0,0.5-0.1,1-0.3,1.4s-0.4,0.8-0.7,1.1s-0.7,0.6-1.1,0.8c-0.4,0.2-0.9,0.3-1.4,0.3c-0.4,0-0.8-0.1-1.2-0.3
		c-0.4-0.2-0.6-0.5-0.8-0.8h0l-0.7,3.9h-0.8l1.6-8.7h0.8L285.1,71.8L285.1,71.8z M288.9,73.3c0-0.3,0-0.5-0.1-0.7
		c-0.1-0.2-0.2-0.4-0.4-0.6s-0.3-0.3-0.6-0.4s-0.5-0.1-0.8-0.1c-0.4,0-0.7,0.1-1,0.2c-0.3,0.1-0.6,0.4-0.8,0.6
		c-0.2,0.3-0.4,0.6-0.5,0.9c-0.1,0.3-0.2,0.7-0.2,1.1c0,0.3,0,0.5,0.1,0.7c0.1,0.2,0.2,0.4,0.4,0.6c0.2,0.2,0.4,0.3,0.6,0.4
		s0.5,0.1,0.8,0.1c0.4,0,0.7-0.1,1-0.2c0.3-0.1,0.6-0.4,0.8-0.6c0.2-0.3,0.4-0.6,0.5-0.9C288.9,74,288.9,73.7,288.9,73.3z"/>
</g>
</a>
</svg>
