<svg xmlns="http://www.w3.org/2000/svg" viewBox="0 0 347.86 91.32"><title>mwgi-white</title><path d="M106.53,34.94h4.62V56.81h-4.62Z" fill="#fff"/><path d="M115.36,34.94h6.29l8.93,15.2h.06V34.94h4.62V56.81h-6l-9.16-15.57H120V56.81h-4.63Z" fill="#fff"/><path d="M143.59,39.2h-6V34.94h16.61V39.2h-6V56.81h-4.63Z" fill="#fff"/><path d="M156.73,34.94H171v4.45h-9.64v4.08h9.1v4.44h-9.1v4.45h10.17v4.45h-14.8Z" fill="#fff"/><path d="M175.24,34.94h8.12a14.17,14.17,0,0,1,3,.32,7.18,7.18,0,0,1,2.52,1.08,5.37,5.37,0,0,1,1.72,2,7.1,7.1,0,0,1,.64,3.2,6.61,6.61,0,0,1-1.16,3.94,5.12,5.12,0,0,1-3.38,2l5.34,9.24h-5.54l-4.39-8.74h-2.29v8.74h-4.62ZM179.86,44h2.73c.42,0,.86,0,1.32-.05a4.08,4.08,0,0,0,1.26-.27,2.25,2.25,0,0,0,.94-.73,2.32,2.32,0,0,0,.37-1.39,2.36,2.36,0,0,0-.33-1.33,2.24,2.24,0,0,0-.83-.76,3.67,3.67,0,0,0-1.16-.35,9.26,9.26,0,0,0-1.27-.09h-3Z" fill="#fff"/><path d="M194.45,34.94h6.29l8.93,15.2h.06V34.94h4.62V56.81h-6l-9.16-15.57h-.06V56.81h-4.63Z" fill="#fff"/><path d="M225.53,34.94h3.83l9.13,21.87h-5.22l-1.81-4.63h-8.15l-1.75,4.63h-5.1Zm1.78,6.36-2.55,6.8h5.13Z" fill="#fff"/><path d="M241.93,39.2h-6V34.94h16.61V39.2h-6V56.81h-4.63Z" fill="#fff"/><path d="M254.83,34.94h4.63V56.81h-4.63Z" fill="#fff"/><path d="M262.54,45.88a12.69,12.69,0,0,1,.85-4.76,10.54,10.54,0,0,1,2.35-3.63,10.29,10.29,0,0,1,3.59-2.3,13.13,13.13,0,0,1,9.08,0,10.29,10.29,0,0,1,3.59,2.3,10.54,10.54,0,0,1,2.35,3.63,13.73,13.73,0,0,1,0,9.51A10.54,10.54,0,0,1,282,54.26a10.29,10.29,0,0,1-3.59,2.3,13.13,13.13,0,0,1-9.08,0,10.29,10.29,0,0,1-3.59-2.3,10.54,10.54,0,0,1-2.35-3.63A12.64,12.64,0,0,1,262.54,45.88Zm4.81,0a8.18,8.18,0,0,0,.46,2.82,6.45,6.45,0,0,0,1.31,2.23,6.22,6.22,0,0,0,2.07,1.46,7,7,0,0,0,5.36,0,6.22,6.22,0,0,0,2.07-1.46,6.45,6.45,0,0,0,1.31-2.23,8.18,8.18,0,0,0,.46-2.82,8.34,8.34,0,0,0-.46-2.82,6.49,6.49,0,0,0-1.31-2.24,6.22,6.22,0,0,0-2.07-1.46,7,7,0,0,0-5.36,0,6.22,6.22,0,0,0-2.07,1.46,6.49,6.49,0,0,0-1.31,2.24A8.34,8.34,0,0,0,267.35,45.88Z" fill="#fff"/><path d="M288.34,34.94h6.29l8.92,15.2h.06V34.94h4.63V56.81h-6.05L293,41.24H293V56.81h-4.63Z" fill="#fff"/><path d="M319.42,34.94h3.83l9.13,21.87h-5.22l-1.81-4.63H317.2l-1.75,4.63h-5.1Zm1.78,6.36-2.55,6.8h5.13Z" fill="#fff"/><path d="M334.66,34.94h4.63V52.36h8.57v4.45h-13.2Z" fill="#fff"/><circle cx="45.66" cy="45.66" r="44.59" fill="none" stroke="#fff" stroke-miterlimit="10" stroke-width="2.14"/><path d="M72.53,33.68a8.26,8.26,0,0,1,6.06,2.55,14.46,14.46,0,0,1,2.93,5.05c.07.22.14.33.36.29l.88-.15c.15,0,.15-.21.15-.51l-.37-7.31c0-.29-.07-.51-.44-.51-.22,0-.33.11-.51.37l-.44.58c-.22.29-.44.4-.87.07a13.54,13.54,0,0,0-7.46-2c-6.75,0-11.59,1.45-14.72,11.19l-3,7.83L50.55,40.93s-1.91-4.56-2.74-4.56S45,40.62,45,40.62,40.09,51.18,39.8,52l-.08,0L34,35a.88.88,0,0,1,.88-1.28h.69c.26,0,.33-.11.33-.29v-.92c0-.18-.07-.25-.29-.25l-3.58.09c-.17,0-.44.53-.71,1.23-1.11,2.5-6.44,14.12-6.74,15h-.15l-6.61-15.4c-.15-.44-.4-.8-.92-.8s-.8.58-1,.95c-.73,1.83-8.18,22.29-8.55,23.1a1.79,1.79,0,0,1-1.61,1.2H2.9c-.22,0-.26.11-.26.3v1c0,.11.08.19.22.19.3,0,3.56-.11,5.61-.11,2.26,0,3.5.11,3.87.11s.29-.11.29-.3V58c0-.19,0-.3-.25-.3h-1c-.88,0-1.24-.51-1.24-1,0-2,4.16-14.07,5.26-17.29h.15l5.26,13.06s1.2,2.86,1.95,2.86c1.15,0,2.87-4,2.87-4s4.94-11,5.23-11.78l.07,0,5.69,16.89a.87.87,0,0,1-.88,1.27h-.69c-.26,0-.33.11-.33.3v.91c0,.18.07.26.29.26s1.23,0,3-.07a1,1,0,0,0,.69-.31,1.11,1.11,0,0,0,.37-.49c.15-.4,6.62-14,6.95-15.05h.14L52.81,58.2c.15.44.4.81.91.81,2,0,2.61-.78,3.39-3,.41-1.15,2.79-7.86,5-13.56C64.63,35.66,68.57,33.68,72.53,33.68ZM90,47.25c-.37,0-7.29.11-10.35.11s-4.76-.11-5.2-.11c-.14,0-.21.07-.21.29v.84c0,.18.07.33.29.33H76.1c1,0,1.32.37,1.32,1.68v2.67c0,1.9-.07,2.92-.88,3.36-1.24.66-2.63.61-5,.61-3.63,0-6.24-2.28-9.24-4.7-.46-.37-.71-.19-.83,0s-.59,1.39-.72,1.7A.87.87,0,0,0,61,55.09c2.52,2.8,6.82,4,10.29,4a21.1,21.1,0,0,0,10.38-2.41c.36-.14.58-.29.58-.58s-.14-.66-.14-1.17V50.06c0-1.06.44-1.35,1.09-1.35h6.92c.22,0,.29-.07.29-.29V47.5C90.4,47.32,90.33,47.25,90,47.25Z" fill="#fff"/><path d="M105.46,76.64h-1l5.63-8.75H111l1.82,8.75h-.93l-.47-2.3H106.9Zm1.94-3.11h3.83l-.91-4.65Z" fill="#fff"/><path d="M116.63,74.29a3.77,3.77,0,0,1,.26-1.39,3.19,3.19,0,0,1,.71-1.14,3.37,3.37,0,0,1,1.08-.77,3.17,3.17,0,0,1,1.35-.28,2.53,2.53,0,0,1,1.18.28,1.83,1.83,0,0,1,.83.84h0l.8-4.53h.83L122,76.64h-.82l.17-1h0a2.51,2.51,0,0,1-.86.77,2.48,2.48,0,0,1-1.27.33,3,3,0,0,1-1.07-.18,2.37,2.37,0,0,1-.82-.51,2.28,2.28,0,0,1-.53-.8A2.53,2.53,0,0,1,116.63,74.29Zm.87-.05a2.15,2.15,0,0,0,.12.73,1.54,1.54,0,0,0,.35.59,1.45,1.45,0,0,0,.57.39,1.86,1.86,0,0,0,.77.15,2.35,2.35,0,0,0,1-.23,2.55,2.55,0,0,0,.81-.61,3.15,3.15,0,0,0,.55-.9,3,3,0,0,0,.19-1.09,2,2,0,0,0-.13-.75,1.73,1.73,0,0,0-.37-.59,1.69,1.69,0,0,0-.59-.39,2.15,2.15,0,0,0-.77-.14,2.32,2.32,0,0,0-1,.22,2.4,2.4,0,0,0-.8.61,2.84,2.84,0,0,0-.51.9A3.31,3.31,0,0,0,117.5,74.24Z" fill="#fff"/><path d="M125,76.64h-.82l1-5.78h.83Zm1.52-8a.58.58,0,0,1-.16.42.54.54,0,0,1-.42.17.63.63,0,0,1-.4-.14.53.53,0,0,1-.17-.41.59.59,0,0,1,.18-.44.61.61,0,0,1,.42-.17.51.51,0,0,1,.39.16A.53.53,0,0,1,126.54,68.62Z" fill="#fff"/><path d="M129.2,76.64h-.89l-1.21-5.78H128l.93,4.89h0l2.88-4.89h.9Z" fill="#fff"/><path d="M133.7,76.64h-.83l1-5.78h.83Zm1.52-8a.59.59,0,0,1-.17.42.53.53,0,0,1-.41.17.66.66,0,0,1-.41-.14.53.53,0,0,1-.16-.41.6.6,0,0,1,.59-.61.54.54,0,0,1,.4.16A.57.57,0,0,1,135.22,68.62Z" fill="#fff"/><path d="M139.71,72.13a1.36,1.36,0,0,0-.51-.53,1.7,1.7,0,0,0-.83-.2,2.49,2.49,0,0,0-.46,0,1.6,1.6,0,0,0-.45.16.85.85,0,0,0-.33.29.77.77,0,0,0,.18,1.08,1.27,1.27,0,0,0,.35.18c.14,0,.3.11.49.16a3.45,3.45,0,0,1,1.29.62,1.32,1.32,0,0,1,.45,1.07,1.53,1.53,0,0,1-.21.81,1.74,1.74,0,0,1-.53.55,2.33,2.33,0,0,1-.72.32,3.47,3.47,0,0,1-.78.1,3.44,3.44,0,0,1-1.36-.27,2.13,2.13,0,0,1-1-.82l.72-.47a1.76,1.76,0,0,0,.63.61,1.83,1.83,0,0,0,1,.26,2.42,2.42,0,0,0,.54-.06,1.68,1.68,0,0,0,.46-.17,1,1,0,0,0,.33-.31.84.84,0,0,0,.12-.45.78.78,0,0,0-.36-.7,4.38,4.38,0,0,0-1-.47c-.17-.06-.34-.12-.52-.2a1.75,1.75,0,0,1-.47-.29,1.29,1.29,0,0,1-.47-1,1.36,1.36,0,0,1,.21-.77,1.65,1.65,0,0,1,.52-.53,2.06,2.06,0,0,1,.71-.3,3,3,0,0,1,.79-.1,2.7,2.7,0,0,1,1.19.26,1.66,1.66,0,0,1,.76.69Z" fill="#fff"/><path d="M142,76.64h-.83l1-5.78H143Zm1.52-8a.55.55,0,0,1-.17.42.53.53,0,0,1-.41.17.61.61,0,0,1-.4-.14.53.53,0,0,1-.17-.41.59.59,0,0,1,.18-.44.61.61,0,0,1,.42-.17.55.55,0,0,1,.55.57Z" fill="#fff"/><path d="M146.68,76.79a2.9,2.9,0,0,1-1.07-.19,2.5,2.5,0,0,1-.85-.51,2.34,2.34,0,0,1-.55-.79,2.61,2.61,0,0,1-.2-1,3.72,3.72,0,0,1,.26-1.38,3.53,3.53,0,0,1,.71-1.14,3.42,3.42,0,0,1,1.09-.77,3.31,3.31,0,0,1,1.38-.28,3.06,3.06,0,0,1,1.08.18,2.37,2.37,0,0,1,.84.51,2.3,2.3,0,0,1,.55.79,2.56,2.56,0,0,1,.2,1,4,4,0,0,1-.25,1.4,3.32,3.32,0,0,1-1.8,1.9A3.32,3.32,0,0,1,146.68,76.79Zm2.57-3.53a2.25,2.25,0,0,0-.12-.74,1.71,1.71,0,0,0-.36-.59,1.9,1.9,0,0,0-.59-.39,2.11,2.11,0,0,0-.77-.14,2.2,2.2,0,0,0-1,.23,2.39,2.39,0,0,0-.79.62,2.87,2.87,0,0,0-.52.9,3.1,3.1,0,0,0-.2,1.09A2.15,2.15,0,0,0,145,75a1.54,1.54,0,0,0,.36.59A1.56,1.56,0,0,0,146,76a1.89,1.89,0,0,0,.77.15,2.31,2.31,0,0,0,1-.23,2.65,2.65,0,0,0,.79-.62,2.71,2.71,0,0,0,.52-.89A3.34,3.34,0,0,0,149.25,73.26Z" fill="#fff"/><path d="M153,70.86c0,.15,0,.33-.06.52s-.05.34-.07.47h0a2.38,2.38,0,0,1,.86-.84,2.24,2.24,0,0,1,1.12-.3,2.14,2.14,0,0,1,1.47.47,1.67,1.67,0,0,1,.53,1.3c0,.09,0,.19,0,.29s0,.21,0,.32l-.64,3.55h-.83l.57-3.2a3.83,3.83,0,0,0,.07-.73,1.5,1.5,0,0,0-.28-1,1.25,1.25,0,0,0-1-.35,1.75,1.75,0,0,0-.67.14,2,2,0,0,0-.63.42,2.81,2.81,0,0,0-.51.71,3.46,3.46,0,0,0-.32,1l-.52,3h-.83l.79-4.51c0-.16.07-.36.11-.61s.06-.47.08-.66Z" fill="#fff"/><path d="M163.79,76.79a2.92,2.92,0,0,1-1.08-.19,2.33,2.33,0,0,1-1.4-1.3,2.61,2.61,0,0,1-.19-1,3.66,3.66,0,0,1,1-2.52,3.42,3.42,0,0,1,1.09-.77,3.31,3.31,0,0,1,1.38-.28,3.06,3.06,0,0,1,1.08.18,2.37,2.37,0,0,1,.84.51,2.3,2.3,0,0,1,.55.79,2.56,2.56,0,0,1,.2,1,3.82,3.82,0,0,1-.25,1.4,3.32,3.32,0,0,1-1.8,1.9A3.31,3.31,0,0,1,163.79,76.79Zm2.57-3.53a2.26,2.26,0,0,0-.13-.74,1.71,1.71,0,0,0-.36-.59,1.9,1.9,0,0,0-.59-.39,2.11,2.11,0,0,0-.77-.14,2.23,2.23,0,0,0-1,.23,2.5,2.5,0,0,0-.79.62,2.87,2.87,0,0,0-.52.9,3.09,3.09,0,0,0-.19,1.09,2.15,2.15,0,0,0,.12.73,1.54,1.54,0,0,0,.36.59,1.65,1.65,0,0,0,.58.39,1.89,1.89,0,0,0,.77.15,2.31,2.31,0,0,0,1-.23,2.53,2.53,0,0,0,.79-.62,2.71,2.71,0,0,0,.52-.89A3.34,3.34,0,0,0,166.36,73.26Z" fill="#fff"/><path d="M171.68,71.55h-1.36l-.89,5.09h-.83l.89-5.09h-1.22l.14-.69h1.19l.28-1.57a3.68,3.68,0,0,1,.23-.82,2.25,2.25,0,0,1,.43-.68,2,2,0,0,1,.63-.47,2.14,2.14,0,0,1,.87-.17l.33,0a1.45,1.45,0,0,1,.35.07l-.2.73a2.08,2.08,0,0,0-.58-.08,1.13,1.13,0,0,0-.51.11.93.93,0,0,0-.36.32,1.88,1.88,0,0,0-.24.47,3.51,3.51,0,0,0-.14.58l-.26,1.49h1.39Z" fill="#fff"/><path d="M179.64,75.13h0l4.24-7.24h1.35l-1.55,8.75h-.88l1.34-7.56h0l-4.49,7.56h-.47l-1.83-7.56h0L176,76.64h-.87l1.55-8.75H178Z" fill="#fff"/><path d="M188.49,76.79a2.92,2.92,0,0,1-1.08-.19,2.33,2.33,0,0,1-1.4-1.3,2.61,2.61,0,0,1-.19-1,3.66,3.66,0,0,1,1-2.52,3.42,3.42,0,0,1,1.09-.77,3.31,3.31,0,0,1,1.38-.28,3.06,3.06,0,0,1,1.08.18,2.37,2.37,0,0,1,.84.51,2.3,2.3,0,0,1,.55.79,2.56,2.56,0,0,1,.2,1,3.82,3.82,0,0,1-.25,1.4,3.32,3.32,0,0,1-1.8,1.9A3.31,3.31,0,0,1,188.49,76.79Zm2.57-3.53a2.26,2.26,0,0,0-.13-.74,1.71,1.71,0,0,0-.36-.59,1.9,1.9,0,0,0-.59-.39,2.07,2.07,0,0,0-.77-.14,2.23,2.23,0,0,0-1,.23,2.5,2.5,0,0,0-.79.62,2.87,2.87,0,0,0-.52.9,3.09,3.09,0,0,0-.19,1.09,2.15,2.15,0,0,0,.12.73,1.54,1.54,0,0,0,.36.59,1.65,1.65,0,0,0,.58.39,1.89,1.89,0,0,0,.77.15,2.31,2.31,0,0,0,1-.23,2.72,2.72,0,0,0,1.31-1.51A3.34,3.34,0,0,0,191.06,73.26Z" fill="#fff"/><path d="M193.94,71.52c0-.24.06-.47.08-.66h.79c0,.15,0,.33-.06.52s-.05.34-.07.47h0a2.6,2.6,0,0,1,.82-.83,2,2,0,0,1,1.11-.31h.28l.26,0-.2.79-.22,0-.34,0a1.84,1.84,0,0,0-.66.12,1.68,1.68,0,0,0-.59.39,2.8,2.8,0,0,0-.47.68,4.13,4.13,0,0,0-.3,1l-.52,3H193l.79-4.51C193.87,72,193.9,71.77,193.94,71.52Z" fill="#fff"/><path d="M197.1,77.85a2.29,2.29,0,0,0,.87.74,2.66,2.66,0,0,0,1.23.29,2.83,2.83,0,0,0,1.06-.18,2.06,2.06,0,0,0,.74-.5,2.23,2.23,0,0,0,.47-.73,4.09,4.09,0,0,0,.26-.88l.21-1.1h0a2.71,2.71,0,0,1-1,.85,2.6,2.6,0,0,1-1.23.3,2.76,2.76,0,0,1-1.07-.19,2.3,2.3,0,0,1-.81-.54,2.48,2.48,0,0,1-.51-.8,2.73,2.73,0,0,1-.18-1,3.5,3.5,0,0,1,.25-1.33,3.41,3.41,0,0,1,.7-1.08,3.45,3.45,0,0,1,1.07-.73,3.49,3.49,0,0,1,1.35-.26,2.62,2.62,0,0,1,.62.07,2.59,2.59,0,0,1,.57.22,2.19,2.19,0,0,1,.48.37,1.63,1.63,0,0,1,.33.49h0l.18-1h.82l-1,5.73a6.17,6.17,0,0,1-.26,1,2.92,2.92,0,0,1-.53,1,3.08,3.08,0,0,1-1,.74,3.57,3.57,0,0,1-1.57.3,3.86,3.86,0,0,1-1.55-.31,2.82,2.82,0,0,1-1.11-.86Zm.9-3.73a2,2,0,0,0,.12.7,2,2,0,0,0,.36.59,1.72,1.72,0,0,0,.58.4,2.18,2.18,0,0,0,.79.14,2.31,2.31,0,0,0,1-.22,2.35,2.35,0,0,0,.8-.59,2.81,2.81,0,0,0,.52-.85,3,3,0,0,0,.18-1,2,2,0,0,0-.13-.72,1.64,1.64,0,0,0-.37-.59,1.85,1.85,0,0,0-.58-.39,1.94,1.94,0,0,0-.78-.15,2.61,2.61,0,0,0-1,.2,2.21,2.21,0,0,0-.79.55,2.54,2.54,0,0,0-.52.86A3.27,3.27,0,0,0,198,74.12Z" fill="#fff"/><path d="M208.91,73.09c0-.14,0-.25.05-.32a1.7,1.7,0,0,0,0-.22,1,1,0,0,0-.36-.89,1.7,1.7,0,0,0-1-.26,2.66,2.66,0,0,0-1,.2,2.94,2.94,0,0,0-.8.49l-.37-.55a3.09,3.09,0,0,1,1-.6,3.56,3.56,0,0,1,1.22-.23,3.33,3.33,0,0,1,.78.09,1.74,1.74,0,0,1,.66.3,1.53,1.53,0,0,1,.61,1.28c0,.07,0,.17,0,.3a2,2,0,0,1,0,.31l-.42,2.35c0,.22-.07.46-.1.69s0,.44,0,.61h-.75c0-.14,0-.29,0-.46a3.93,3.93,0,0,1,.06-.48h0a4.53,4.53,0,0,1-.49.49,3.67,3.67,0,0,1-.51.33,2.7,2.7,0,0,1-.57.18,4.43,4.43,0,0,1-.66,0,2.6,2.6,0,0,1-.61-.07,1.68,1.68,0,0,1-.56-.26,1.43,1.43,0,0,1-.42-.46,1.37,1.37,0,0,1-.17-.7,1.55,1.55,0,0,1,.4-1.12,2.42,2.42,0,0,1,1-.66,6.42,6.42,0,0,1,1.43-.31C207.84,73.12,208.37,73.09,208.91,73.09Zm-.31.63a11.17,11.17,0,0,0-1.14.06,5.42,5.42,0,0,0-1.05.21,2.08,2.08,0,0,0-.78.43,1,1,0,0,0-.3.74.88.88,0,0,0,.1.45.7.7,0,0,0,.26.28,1.16,1.16,0,0,0,.38.15,2.25,2.25,0,0,0,.44,0,2.39,2.39,0,0,0,.82-.14,2.17,2.17,0,0,0,.65-.41,2.27,2.27,0,0,0,.47-.6,2.4,2.4,0,0,0,.26-.72l.09-.49Z" fill="#fff"/><path d="M212.84,70.86c0,.15,0,.33-.06.52s-.05.34-.08.47h0a2.38,2.38,0,0,1,.86-.84,2.21,2.21,0,0,1,1.12-.3,2.14,2.14,0,0,1,1.47.47,1.67,1.67,0,0,1,.53,1.3c0,.09,0,.19,0,.29s0,.21,0,.32L216,76.64h-.84l.57-3.2a3.88,3.88,0,0,0,.08-.73,1.5,1.5,0,0,0-.29-1,1.23,1.23,0,0,0-1-.35,1.74,1.74,0,0,0-.66.14,1.83,1.83,0,0,0-.63.42,2.81,2.81,0,0,0-.51.71,3.18,3.18,0,0,0-.32,1l-.52,3h-.83l.79-4.51c0-.16.07-.36.11-.61s.06-.47.08-.66Z" fill="#fff"/><path d="M223.06,75.42h0l3.65-7.53h1.06l.73,7.53h0l3.6-7.53h.94l-4.26,8.75h-1l-.7-7.54h0l-3.69,7.54h-1l-.9-8.75h.93Z" fill="#fff"/><path d="M236.17,70.71a2.15,2.15,0,0,1,1.46.47,1.67,1.67,0,0,1,.53,1.3c0,.09,0,.19,0,.29s0,.21,0,.32l-.64,3.55h-.83l.56-3.2a3.88,3.88,0,0,0,.08-.73,1.5,1.5,0,0,0-.29-1,1.29,1.29,0,0,0-1-.35,1.79,1.79,0,0,0-.67.14,1.89,1.89,0,0,0-.62.42,2.79,2.79,0,0,0-.5.71,3.46,3.46,0,0,0-.31,1l-.52,3h-.83l1.64-9.34H235l-.79,4.51h0a2.33,2.33,0,0,1,.84-.81A2.24,2.24,0,0,1,236.17,70.71Z" fill="#fff"/><path d="M240.32,76.64h-.83l1-5.78h.83Zm1.52-8a.59.59,0,0,1-.17.42.53.53,0,0,1-.41.17.61.61,0,0,1-.4-.14.53.53,0,0,1-.17-.41.59.59,0,0,1,.18-.44.6.6,0,0,1,.41-.17.54.54,0,0,1,.4.16A.53.53,0,0,1,241.84,68.62Z" fill="#fff"/><path d="M245.71,71.55h-1.57l-.61,3.39a3,3,0,0,0,0,.4.64.64,0,0,0,.19.55.93.93,0,0,0,.52.13,1.89,1.89,0,0,0,.39,0,.79.79,0,0,0,.32-.15l-.1.72a1.39,1.39,0,0,1-.42.13,2.93,2.93,0,0,1-.53,0,1.58,1.58,0,0,1-.43,0,1,1,0,0,1-.81-1.1,2,2,0,0,1,0-.39l.64-3.62h-1.2l.14-.69h1.17l.29-1.63h.82l-.28,1.63h1.59Z" fill="#fff"/><path d="M246.88,74s0,.1,0,.14v.13a1.81,1.81,0,0,0,.53,1.33,1.73,1.73,0,0,0,.6.39,1.94,1.94,0,0,0,.73.14,2.2,2.2,0,0,0,1.19-.31,2.69,2.69,0,0,0,.81-.71l.52.5a3.26,3.26,0,0,1-1.17.9,3.3,3.3,0,0,1-1.42.31,3.19,3.19,0,0,1-1-.17,2.39,2.39,0,0,1-.83-.5,2.22,2.22,0,0,1-.56-.8,2.6,2.6,0,0,1-.2-1.08,3.37,3.37,0,0,1,.26-1.34,3.55,3.55,0,0,1,.71-1.13,3.4,3.4,0,0,1,1.06-.77,3.1,3.1,0,0,1,1.32-.29,2.36,2.36,0,0,1,1.79.63,2.23,2.23,0,0,1,.62,1.63q0,.15,0,.45a2.87,2.87,0,0,1-.09.55Zm4-.62a1.36,1.36,0,0,0,0-.21,1.7,1.7,0,0,0,0-.22,1.52,1.52,0,0,0-.41-1.09,1.56,1.56,0,0,0-1.2-.43,2.37,2.37,0,0,0-.85.15,2.43,2.43,0,0,0-.69.43,2.61,2.61,0,0,0-.51.63,2.5,2.5,0,0,0-.3.74Z" fill="#fff"/><path d="M260.05,76.1a6.12,6.12,0,0,0,1.4-.16,4.06,4.06,0,0,0,1.09-.44l.47-2.68h-2.07l.14-.75H264L263.32,76a6.25,6.25,0,0,1-1.61.65,6.79,6.79,0,0,1-1.71.2,4.59,4.59,0,0,1-1.6-.27,3.66,3.66,0,0,1-1.24-.77,3.38,3.38,0,0,1-.8-1.18,4,4,0,0,1-.28-1.53,5.57,5.57,0,0,1,.4-2.13,5.41,5.41,0,0,1,2.78-2.89,5,5,0,0,1,2-.42,4.08,4.08,0,0,1,.93.1,3.6,3.6,0,0,1,.84.28,3.14,3.14,0,0,1,.68.43,2.08,2.08,0,0,1,.49.59l-.8.53a1.76,1.76,0,0,0-.29-.42,2.17,2.17,0,0,0-.46-.38,2.78,2.78,0,0,0-.63-.27,3.08,3.08,0,0,0-.78-.1,3.85,3.85,0,0,0-1.73.39,4.4,4.4,0,0,0-1.34,1,4.59,4.59,0,0,0-.88,1.46A4.8,4.8,0,0,0,257,73a3.6,3.6,0,0,0,.2,1.2,2.71,2.71,0,0,0,.59,1,2.84,2.84,0,0,0,.95.66A3.28,3.28,0,0,0,260.05,76.1Z" fill="#fff"/><path d="M266.05,71.52a6.18,6.18,0,0,0,.08-.66h.79c0,.15,0,.33-.06.52s-.05.34-.07.47h0a2.71,2.71,0,0,1,.82-.83,2,2,0,0,1,1.11-.31H269l.26,0-.19.79-.23,0-.34,0a1.88,1.88,0,0,0-.66.12,1.57,1.57,0,0,0-.58.39,2.34,2.34,0,0,0-.47.68,3.72,3.72,0,0,0-.31,1l-.52,3h-.82l.79-4.51C266,72,266,71.77,266.05,71.52Z" fill="#fff"/><path d="M271.79,76.79a2.9,2.9,0,0,1-1.07-.19,2.5,2.5,0,0,1-.85-.51,2.34,2.34,0,0,1-.55-.79,2.61,2.61,0,0,1-.2-1,3.72,3.72,0,0,1,.26-1.38,3.33,3.33,0,0,1,3.18-2.19,3.14,3.14,0,0,1,1.08.18,2.35,2.35,0,0,1,1.39,1.3,2.56,2.56,0,0,1,.2,1,3.83,3.83,0,0,1-.26,1.4,3.37,3.37,0,0,1-3.18,2.19Zm2.57-3.53a2.25,2.25,0,0,0-.12-.74,1.71,1.71,0,0,0-.36-.59,1.9,1.9,0,0,0-.59-.39,2.13,2.13,0,0,0-.78-.14,2.19,2.19,0,0,0-1,.23,2.39,2.39,0,0,0-.79.62,3.1,3.1,0,0,0-.53.9,3.33,3.33,0,0,0-.19,1.09,1.93,1.93,0,0,0,.13.73,1.54,1.54,0,0,0,.36.59,1.56,1.56,0,0,0,.58.39,1.86,1.86,0,0,0,.77.15,2.31,2.31,0,0,0,1-.23,2.65,2.65,0,0,0,.79-.62,2.9,2.9,0,0,0,.52-.89A3.34,3.34,0,0,0,274.36,73.26Z" fill="#fff"/><path d="M280.4,76.64c0-.16,0-.33.07-.52s0-.35.07-.47h0a2.56,2.56,0,0,1-.86.84,2.24,2.24,0,0,1-1.12.3,2.14,2.14,0,0,1-1.47-.47,1.63,1.63,0,0,1-.52-1.29,1.42,1.42,0,0,1,0-.29c0-.1,0-.21,0-.32l.64-3.55h.83l-.57,3.2a3.9,3.9,0,0,0-.07.73,1.45,1.45,0,0,0,.28,1,1.23,1.23,0,0,0,1,.35,1.74,1.74,0,0,0,.66-.14,2.07,2.07,0,0,0,.63-.41,2.81,2.81,0,0,0,.51-.71,3.46,3.46,0,0,0,.32-1l.52-3h.82l-.79,4.51c0,.16-.07.36-.1.6a6.5,6.5,0,0,0-.08.66Z" fill="#fff"/><path d="M285.06,71.8a1.75,1.75,0,0,1,.36-.42,2.49,2.49,0,0,1,.5-.35,2.57,2.57,0,0,1,.6-.23,2.52,2.52,0,0,1,.67-.09,3,3,0,0,1,1.07.18,2.47,2.47,0,0,1,.82.51,2.24,2.24,0,0,1,.53.79,2.75,2.75,0,0,1,.19,1,3.83,3.83,0,0,1-.26,1.4,3.67,3.67,0,0,1-.71,1.14,3.46,3.46,0,0,1-1.08.76,3.24,3.24,0,0,1-1.35.29,2.51,2.51,0,0,1-1.18-.29,1.9,1.9,0,0,1-.84-.84h0l-.71,4h-.82l1.55-8.75h.83l-.17.94Zm3.87,1.46a2.19,2.19,0,0,0-.12-.73,1.54,1.54,0,0,0-.35-.59,1.68,1.68,0,0,0-.57-.4,2.05,2.05,0,0,0-.78-.14,2.29,2.29,0,0,0-1,.22,2.58,2.58,0,0,0-.81.62,2.76,2.76,0,0,0-.55.9,3.06,3.06,0,0,0-.2,1.09,2.17,2.17,0,0,0,.13.74,1.86,1.86,0,0,0,.38.6,1.69,1.69,0,0,0,.59.39,2,2,0,0,0,.77.14,2.33,2.33,0,0,0,1-.23,2.51,2.51,0,0,0,.8-.6,2.84,2.84,0,0,0,.51-.9A3.31,3.31,0,0,0,288.93,73.26Z" fill="#fff"/></svg>