<svg xmlns="http://www.w3.org/2000/svg" xmlns:xlink="http://www.w3.org/1999/xlink" viewBox="0 0 277.17 183.6"><defs><linearGradient id="New_Gradient_Swatch_1" x1="134.58" y1="10.77" x2="134.58" y2="75.95" gradientUnits="userSpaceOnUse"><stop offset="0" stop-color="#89c540"/><stop offset="1" stop-color="#6bab43"/></linearGradient></defs><g id="Layer_2" data-name="Layer 2"><g id="Layer_1-2" data-name="Layer 1"><rect x="90.54" y="0.74" width="88.09" height="88.09" rx="17.45" transform="translate(179.37 -89.8) rotate(90)" fill="#fff" stroke="#231f20" stroke-miterlimit="10" stroke-width="1.48"/><rect x="94.81" y="5.01" width="79.55" height="79.55" rx="11.69" fill="url(#New_Gradient_Swatch_1)"/><path d="M162.09,12.25h-55a4.91,4.91,0,0,0-4.9,4.9v2h29.38l-29.4,53.13.07.6a5,5,0,0,0,1.15,2.54,4.91,4.91,0,0,0,2.45,1.53l1.4.34,16.15-29.19h8.72l3.83-6.79h-8.79L139.41,19.1h16.74L124,77.16h7.85l28.3-51.11v51h2a4.91,4.91,0,0,0,4.91-4.9v-55A4.91,4.91,0,0,0,162.09,12.25Z" fill="#fff"/><path d="M20.16,129.08H13.79L9.31,152a1,1,0,0,1-.94.79H3.22a.63.63,0,0,1-.63-.79l4.47-22.88H.65a.61.61,0,0,1-.64-.75l.8-4.05a1,1,0,0,1,.93-.75h19.5a.63.63,0,0,1,.68.75l-.79,4.05A1,1,0,0,1,20.16,129.08Z"/><path d="M31.67,135.17h-.32A12.16,12.16,0,0,0,26,136.55l-3,15.37a1,1,0,0,1-.95.83H17.3a.68.68,0,0,1-.67-.83L20.72,131a1,1,0,0,1,.94-.78h4.68A.62.62,0,0,1,27,131l-.15.79a10,10,0,0,1,5.68-1.89.63.63,0,0,1,.63.79l-.73,3.73C32.33,134.78,32,135.17,31.67,135.17Z"/><path d="M48.06,152.75h-4.4A.63.63,0,0,1,43,152l.12-.63a10.14,10.14,0,0,1-5.81,1.77c-3.42,0-6.4-1.65-5.4-6.76L32,146c.9-4.61,4.24-6.65,11-6.65H45.1l.28-1.42c.44-2.24-.57-2.71-2.42-2.71-2.52,0-5.34.16-6.58.28h-.2c-.39,0-.67-.2-.57-.71l.63-3.19a1.12,1.12,0,0,1,.91-.86,33.62,33.62,0,0,1,7-.83c5.66,0,8.75,2.28,7.63,8L49,152A1,1,0,0,1,48.06,152.75Zm-3.58-9.63H42.24c-2.75,0-3.64.94-4,2.87l-.07.35c-.32,1.65.44,2,2.09,2a8.38,8.38,0,0,0,3.39-.87Z"/><path d="M76.7,131.12,68.25,149a6.54,6.54,0,0,1-6.51,4.13c-2.32,0-4.55-.63-4.85-4.13l-1.43-17.85a.59.59,0,0,1,0-.23.8.8,0,0,1,.76-.67h5.19c.39,0,.64.35.67.82l.36,15.42c0,.59.16.82.43.82s.56-.23.79-.82L70.07,131a1.22,1.22,0,0,1,1-.82h5.2a.52.52,0,0,1,.53.67A.58.58,0,0,1,76.7,131.12Z"/><path d="M94.92,143.47H82.37v.08c-.44,2.24.1,4.28,3.21,4.28,2.48,0,6-.19,7.62-.35h.12c.43,0,.7.2.62.63l-.58,3a1.14,1.14,0,0,1-1,1.06,32.1,32.1,0,0,1-8.24.94c-4.76,0-9.38-2.51-7.9-10.1l.54-2.76c1.24-6.33,5.72-10.34,12-10.34,6.45,0,8.85,4.41,7.69,10.34l-.44,2.29A1,1,0,0,1,94.92,143.47Zm-4.59-4.09c.57-2.91-.48-4.37-2.69-4.37s-3.91,1.5-4.47,4.37l0,.16H90.3Z"/><path d="M103.32,152.75H98.53a.68.68,0,0,1-.67-.83l5.58-28.55a1.06,1.06,0,0,1,1-.78h4.8a.6.6,0,0,1,.59.78l-5.58,28.55A1,1,0,0,1,103.32,152.75Z"/><path d="M140.93,139.77h-6.68l-1.3,6.65a.85.85,0,0,1-.78.79h-3.54c-.43,0-.56-.36-.48-.79l1.3-6.65h-6.64c-.44,0-.75-.19-.67-.63l.7-3.54a.82.82,0,0,1,.9-.62h6.65l1.31-6.69a.85.85,0,0,1,.78-.79H136c.43,0,.56.36.48.79L135.19,135h6.68c.43,0,.75.19.67.62l-.7,3.54A.83.83,0,0,1,140.93,139.77Z"/><path d="M172.56,129h-7.49c-1.73,0-2.48.63-2.88,2.67l-.69,3.54h9.55a.62.62,0,0,1,.58.79l-.73,3.73a1,1,0,0,1-.89.79h-9.55L158.21,152a1,1,0,0,1-.89.79h-4.79A.61.61,0,0,1,152,152l4-20.33c1.4-7.15,5.89-8.41,10.64-8.41a38.19,38.19,0,0,1,7,.51c.5.08.68.27.58.79l-.71,3.65A1,1,0,0,1,172.56,129Z"/><path d="M177.48,152.75H173a.62.62,0,0,1-.59-.79l4.1-21a1,1,0,0,1,.89-.78h4.5a.6.6,0,0,1,.58.78l-4.09,21A1,1,0,0,1,177.48,152.75Zm5.06-25.09h-4.79a.62.62,0,0,1-.59-.79l.72-3.65a1,1,0,0,1,.89-.79h4.79a.61.61,0,0,1,.58.79l-.71,3.65A1,1,0,0,1,182.54,127.66Z"/><path d="M193.79,152.79a15.72,15.72,0,0,1-3,.31c-4.05,0-6-1.14-4.88-6.72l2.23-11.4-2.85-.52a.7.7,0,0,1-.61-.82l.51-2.6a1.06,1.06,0,0,1,.94-.82h2.94l.64-3.23a1,1,0,0,1,.89-.78l4.66-.83h.11a.52.52,0,0,1,.53.67l-.82,4.17h3a.61.61,0,0,1,.58.78l-.62,3.19a1,1,0,0,1-.89.79h-3l-2.24,11.44c-.3,1.57-.25,1.85.86,1.85h1.81c.48,0,.73.23.64.67l-.6,3.06A1,1,0,0,1,193.79,152.79Z"/><path d="M214.89,152.75h-4.46a.64.64,0,0,1-.57-.83l2.56-13.09c.54-2.75.24-3.66-2-3.66a9,9,0,0,0-3.71,1.26l-3,15.49a1,1,0,0,1-.9.83h-4.46a.67.67,0,0,1-.62-.83L201.78,131a1,1,0,0,1,.9-.78h4.12a.61.61,0,0,1,.59.78l-.19.95a10.48,10.48,0,0,1,6.41-2c5.35,0,5.75,4,4.78,8.93l-2.56,13.09A1.06,1.06,0,0,1,214.89,152.75Z"/><path d="M238.5,143.47H226.74v.08c-.44,2.24.05,4.28,3,4.28,2.32,0,5.64-.19,7.15-.35H237c.4,0,.66.2.57.63l-.58,3a1.11,1.11,0,0,1-1,1.06,28.56,28.56,0,0,1-7.75.94c-4.46,0-8.76-2.51-7.27-10.1l.54-2.76c1.23-6.33,5.48-10.34,11.35-10.34,6,0,8.24,4.41,7.08,10.34l-.45,2.29A1,1,0,0,1,238.5,143.47Zm-4.25-4.09c.57-2.91-.4-4.37-2.46-4.37s-3.68,1.5-4.25,4.37l0,.16h6.71Z"/><path d="M247.62,153.1a25.14,25.14,0,0,1-6.54-.86.7.7,0,0,1-.52-.91l.62-3.18a.9.9,0,0,1,.85-.75h.14a59.83,59.83,0,0,0,6.16.55c1.77,0,2.28-.51,2.48-1.53.11-.59-.13-1-1-1.65l-4.22-3a5.37,5.37,0,0,1-2.14-5.82c.77-4,3.66-6.1,8.75-6.1a20.36,20.36,0,0,1,6.38.91.7.7,0,0,1,.53.9l-.63,3.19a.81.81,0,0,1-.77.74h-.11a54.67,54.67,0,0,0-6-.51c-1.44,0-2,.24-2.18,1.14-.11.59.23.91.88,1.38l4,2.79c2.69,1.89,3,3.93,2.54,6.06C256.08,150.19,253,153.1,247.62,153.1Z"/><path d="M265.7,153.1a25.14,25.14,0,0,1-6.54-.86.71.71,0,0,1-.53-.91l.63-3.18a.89.89,0,0,1,.84-.75h.15a59.83,59.83,0,0,0,6.16.55c1.77,0,2.28-.51,2.47-1.53.12-.59-.13-1-1-1.65l-4.21-3a5.37,5.37,0,0,1-2.14-5.82c.77-4,3.66-6.1,8.75-6.1a20.36,20.36,0,0,1,6.38.91.69.69,0,0,1,.52.9l-.62,3.19a.81.81,0,0,1-.77.74h-.11a54.67,54.67,0,0,0-6-.51c-1.44,0-2,.24-2.18,1.14-.11.59.23.91.87,1.38l4,2.79c2.69,1.89,3,3.93,2.54,6.06C274.16,150.19,271.08,153.1,265.7,153.1Z"/><path d="M65.4,183.49h-1a.31.31,0,0,1-.28-.25l-1.05-3.72H58.93l-1,3.72a.33.33,0,0,1-.29.25h-1a.26.26,0,0,1-.27-.26.49.49,0,0,1,0-.12l3-10.54A1.61,1.61,0,0,1,61,171.34a1.58,1.58,0,0,1,1.64,1.22l3,10.55a.25.25,0,0,1,0,.12A.26.26,0,0,1,65.4,183.49Zm-4.06-10.58c-.05-.17-.15-.29-.31-.29s-.27.12-.32.29l-1.48,5.33h3.58Z" fill="#231f20"/><path d="M75.46,183.6a15.34,15.34,0,0,1-2.68-.23c-.28-.05-.31-.11-.31-.29v-.65a.25.25,0,0,1,.27-.26h.05c.75.07,1.93.1,2.67.1,2,0,2.46-.78,2.46-1.91,0-.81-.46-1.26-1.94-2.17l-1.57-.95c-1.49-.91-2.23-1.74-2.23-3,0-2,1.41-2.87,3.87-2.87a21.21,21.21,0,0,1,2.81.2c.17,0,.28.11.28.27v.7a.25.25,0,0,1-.28.26h0c-.71-.05-1.84-.1-2.78-.1-1.67,0-2.38.36-2.38,1.54,0,.76.53,1.21,1.76,2l1.49.89c1.88,1.11,2.54,2,2.54,3.3C79.46,181.92,78.65,183.6,75.46,183.6Z" fill="#231f20"/><path d="M89.85,183.6a15.38,15.38,0,0,1-2.69-.23c-.28-.05-.31-.11-.31-.29v-.65a.25.25,0,0,1,.28-.26h.05c.74.07,1.92.1,2.67.1,1.94,0,2.46-.78,2.46-1.91,0-.81-.47-1.26-1.94-2.17l-1.58-.95c-1.49-.91-2.23-1.74-2.23-3,0-2,1.41-2.87,3.87-2.87a21.51,21.51,0,0,1,2.82.2c.16,0,.27.11.27.27v.7a.25.25,0,0,1-.27.26h0c-.71-.05-1.84-.1-2.78-.1-1.67,0-2.38.36-2.38,1.54,0,.76.53,1.21,1.76,2l1.49.89c1.88,1.11,2.55,2,2.55,3.3C93.85,181.92,93,183.6,89.85,183.6Z" fill="#231f20"/><path d="M105.49,183.6c-2.54,0-4.38-1.49-4.38-5.08v-2.09c0-3.6,1.84-5.09,4.38-5.09s4.37,1.49,4.37,5.09v2.09C109.86,182.11,108,183.6,105.49,183.6Zm2.88-7.17c0-2.72-1.1-3.76-2.88-3.76s-2.9,1-2.9,3.76v2.09c0,2.72,1.12,3.75,2.9,3.75s2.88-1,2.88-3.75Z" fill="#231f20"/><path d="M124.25,183.39a12.74,12.74,0,0,1-2.69.21c-2,0-4.27-1.07-4.27-5v-2.25c0-4,2.28-5,4.27-5a17.81,17.81,0,0,1,2.72.26c.15,0,.26.07.26.21v.83c0,.1,0,.18-.2.18h0c-.59,0-1.79-.15-2.72-.15-1.59,0-2.82.92-2.82,3.68v2.25c0,2.72,1.23,3.67,2.82,3.67.92,0,2.08-.08,2.67-.13h.06c.18,0,.26.08.26.26v.66A.33.33,0,0,1,124.25,183.39Z" fill="#231f20"/><path d="M133.22,183.49h-.89a.31.31,0,0,1-.29-.33v-11.4a.29.29,0,0,1,.29-.3h.89a.29.29,0,0,1,.29.3v11.4A.31.31,0,0,1,133.22,183.49Z" fill="#231f20"/><path d="M149.92,183.49h-1a.3.3,0,0,1-.27-.25l-1.05-3.72h-4.2l-1,3.72a.35.35,0,0,1-.29.25h-1a.27.27,0,0,1-.28-.26.25.25,0,0,1,0-.12l3-10.54a1.59,1.59,0,0,1,1.65-1.23,1.57,1.57,0,0,1,1.63,1.22l3,10.55a.49.49,0,0,1,0,.12A.25.25,0,0,1,149.92,183.49Zm-4.07-10.58c0-.17-.14-.29-.3-.29a.34.34,0,0,0-.33.29l-1.47,5.33h3.58Z" fill="#231f20"/><path d="M163.36,172.72H160.2v10.44a.31.31,0,0,1-.29.33H159a.31.31,0,0,1-.29-.33V172.72h-3.16c-.17,0-.32-.08-.32-.26v-.71a.31.31,0,0,1,.32-.29h7.79a.28.28,0,0,1,.31.29v.71C163.67,172.62,163.54,172.72,163.36,172.72Z" fill="#231f20"/><path d="M172.32,183.49h-.89a.31.31,0,0,1-.29-.33v-11.4a.29.29,0,0,1,.29-.3h.89a.29.29,0,0,1,.29.3v11.4A.31.31,0,0,1,172.32,183.49Z" fill="#231f20"/><path d="M184.87,183.6c-2.54,0-4.39-1.49-4.39-5.08v-2.09c0-3.6,1.85-5.09,4.39-5.09s4.37,1.49,4.37,5.09v2.09C189.24,182.11,187.41,183.6,184.87,183.6Zm2.88-7.17c0-2.72-1.1-3.76-2.88-3.76s-2.9,1-2.9,3.76v2.09c0,2.72,1.12,3.75,2.9,3.75s2.88-1,2.88-3.75Z" fill="#231f20"/><path d="M205,183.49h-1a.54.54,0,0,1-.52-.26l-5-9.51s0-.05,0-.05,0,0,0,.05v9.46a.31.31,0,0,1-.29.31h-.84c-.16,0-.29,0-.29-.2V171.91a.45.45,0,0,1,.47-.45h.89c.45,0,.53.08.66.32l5,9.46,0,0s0,0,0,0v-9.48a.3.3,0,0,1,.29-.3h.86a.29.29,0,0,1,.29.3V183A.48.48,0,0,1,205,183.49Z" fill="#231f20"/></g></g></svg>