<svg xmlns="http://www.w3.org/2000/svg" xmlns:xlink="http://www.w3.org/1999/xlink" viewBox="0 0 382.98 89.57"><defs><linearGradient id="New_Gradient_Swatch_1" x1="44.78" y1="10.77" x2="44.78" y2="75.95" gradientUnits="userSpaceOnUse"><stop offset="0" stop-color="#89c540"/><stop offset="1" stop-color="#6bab43"/></linearGradient></defs><g id="Layer_2" data-name="Layer 2"><g id="Layer_1-2" data-name="Layer 1"><rect x="0.74" y="0.74" width="88.09" height="88.09" rx="17.45" transform="translate(89.57 0) rotate(90)" fill="#fff" stroke="#231f20" stroke-miterlimit="10" stroke-width="1.48"/><rect x="5.01" y="5.01" width="79.55" height="79.55" rx="11.69" fill="url(#New_Gradient_Swatch_1)"/><path d="M72.29,12.25h-55a4.91,4.91,0,0,0-4.9,4.9v2H41.77L12.37,72.23l.07.6a5,5,0,0,0,1.15,2.54A4.91,4.91,0,0,0,16,76.9l1.4.34L33.59,48.05h8.72l3.83-6.79H37.35L49.61,19.1H66.35L34.19,77.16H42L70.35,26.05v51h1.94a4.91,4.91,0,0,0,4.91-4.9v-55A4.91,4.91,0,0,0,72.29,12.25Z" fill="#fff"/><path d="M126,18.9H119.6l-4.48,22.89a1,1,0,0,1-.94.78H109a.62.62,0,0,1-.63-.78l4.47-22.89h-6.41a.61.61,0,0,1-.64-.75l.8-4a1,1,0,0,1,.93-.75h19.5a.63.63,0,0,1,.68.75l-.79,4A1,1,0,0,1,126,18.9Z"/><path d="M137.47,25h-.31a12.16,12.16,0,0,0-5.34,1.38l-3,15.38a1.05,1.05,0,0,1-1,.82H123.1a.68.68,0,0,1-.66-.82l4.09-20.92a1,1,0,0,1,.94-.79h4.68a.63.63,0,0,1,.63.79l-.15.78a10,10,0,0,1,5.68-1.89.64.64,0,0,1,.63.79l-.73,3.74C138.14,24.6,137.83,25,137.47,25Z"/><path d="M153.87,42.57h-4.4a.63.63,0,0,1-.64-.78l.13-.63a10.22,10.22,0,0,1-5.81,1.77c-3.43,0-6.4-1.66-5.4-6.77l.06-.35c.9-4.6,4.25-6.65,11-6.65h2.12l.28-1.41c.43-2.25-.57-2.72-2.42-2.72-2.52,0-5.34.16-6.58.28H142c-.39,0-.67-.2-.57-.71l.62-3.19a1.15,1.15,0,0,1,.92-.86,34.21,34.21,0,0,1,7-.83c5.67,0,8.76,2.29,7.64,8l-2.75,14A1,1,0,0,1,153.87,42.57Zm-3.58-9.63h-2.24c-2.75,0-3.65.94-4,2.87l-.07.35c-.33,1.65.44,2,2.09,2a8.22,8.22,0,0,0,3.39-.87Z"/><path d="M182.51,20.94,174.06,38.8a6.54,6.54,0,0,1-6.51,4.13c-2.32,0-4.56-.63-4.85-4.13l-1.43-17.86a.45.45,0,0,1,0-.23A.8.8,0,0,1,162,20h5.19c.39,0,.64.35.66.83l.37,15.41c0,.59.15.83.43.83s.56-.24.79-.83l6.4-15.41a1.22,1.22,0,0,1,1-.83h5.19a.53.53,0,0,1,.54.67A.49.49,0,0,1,182.51,20.94Z"/><path d="M200.72,33.29H188.18l0,.08c-.43,2.24.11,4.29,3.22,4.29,2.48,0,6-.2,7.62-.36h.12c.43,0,.7.2.62.63l-.59,3a1.12,1.12,0,0,1-1,1.06,32.1,32.1,0,0,1-8.25,1c-4.75,0-9.37-2.52-7.89-10.11l.54-2.75c1.24-6.33,5.72-10.35,12-10.35,6.45,0,8.85,4.41,7.69,10.35l-.44,2.28A1,1,0,0,1,200.72,33.29Zm-4.58-4.09c.57-2.91-.49-4.36-2.69-4.36s-3.91,1.49-4.47,4.36l0,.16h7.16Z"/><path d="M209.13,42.57h-4.8a.67.67,0,0,1-.66-.82l5.58-28.55a1.05,1.05,0,0,1,1-.79H215a.6.6,0,0,1,.59.79L210,41.75A1,1,0,0,1,209.13,42.57Z"/><path d="M246.74,29.59h-6.68l-1.3,6.65c-.09.43-.35.79-.79.79h-3.53c-.44,0-.56-.36-.48-.79l1.3-6.65h-6.65c-.43,0-.74-.19-.66-.62l.69-3.54a.84.84,0,0,1,.91-.63h6.65l1.31-6.69a.84.84,0,0,1,.78-.78h3.54c.43,0,.56.35.47.78L241,24.8h6.68c.43,0,.75.19.66.63L247.65,29A.83.83,0,0,1,246.74,29.59Z"/><path d="M278.36,18.78h-7.48c-1.73,0-2.48.63-2.88,2.67L267.31,25h9.54a.62.62,0,0,1,.59.79l-.73,3.74a1,1,0,0,1-.89.78h-9.55L264,41.79a1,1,0,0,1-.89.78h-4.79a.61.61,0,0,1-.59-.78l4-20.34c1.4-7.15,5.89-8.41,10.64-8.41a38.19,38.19,0,0,1,7,.51c.5.08.68.28.58.79L279.26,18A1,1,0,0,1,278.36,18.78Z"/><path d="M283.29,42.57h-4.5a.61.61,0,0,1-.58-.78l4.1-21a1,1,0,0,1,.89-.79h4.5a.61.61,0,0,1,.58.79l-4.1,21A1,1,0,0,1,283.29,42.57Zm5.06-25.09h-4.8a.61.61,0,0,1-.58-.78l.72-3.66a1,1,0,0,1,.89-.79h4.79A.61.61,0,0,1,290,13l-.71,3.66A1,1,0,0,1,288.35,17.48Z"/><path d="M299.59,42.61a15.57,15.57,0,0,1-3,.32c-4.05,0-6-1.14-4.88-6.73L294,24.8l-2.85-.51a.71.71,0,0,1-.61-.83l.51-2.59A1.06,1.06,0,0,1,292,20h2.95l.63-3.23a1.06,1.06,0,0,1,.89-.78l4.66-.83h.12a.53.53,0,0,1,.53.67L300.91,20h3a.62.62,0,0,1,.58.79L303.9,24a1,1,0,0,1-.9.79h-3l-2.24,11.44c-.3,1.57-.25,1.85.86,1.85h1.81c.47,0,.72.24.64.67l-.6,3.06A1,1,0,0,1,299.59,42.61Z"/><path d="M320.7,42.57h-4.46a.63.63,0,0,1-.57-.82l2.56-13.1c.54-2.75.23-3.66-2-3.66a9.09,9.09,0,0,0-3.72,1.26l-3,15.5a1,1,0,0,1-.9.82h-4.46a.66.66,0,0,1-.61-.82l4.09-20.92a1,1,0,0,1,.89-.79h4.13a.62.62,0,0,1,.59.79l-.19.94a10.55,10.55,0,0,1,6.41-2.05c5.35,0,5.75,4,4.78,8.93l-2.56,13.1A1.07,1.07,0,0,1,320.7,42.57Z"/><path d="M344.31,33.29H332.55v.08c-.44,2.24,0,4.29,3,4.29,2.32,0,5.64-.2,7.14-.36h.11c.41,0,.67.2.58.63l-.58,3a1.12,1.12,0,0,1-1,1.06,28.4,28.4,0,0,1-7.74,1c-4.46,0-8.76-2.52-7.27-10.11l.54-2.75c1.23-6.33,5.48-10.35,11.34-10.35,6.05,0,8.25,4.41,7.09,10.35l-.45,2.28A1,1,0,0,1,344.31,33.29Zm-4.25-4.09c.57-2.91-.4-4.36-2.46-4.36s-3.69,1.49-4.25,4.36l0,.16H340Z"/><path d="M353.43,42.93a25.14,25.14,0,0,1-6.54-.87.69.69,0,0,1-.52-.9L347,38a.89.89,0,0,1,.84-.75H348a59.83,59.83,0,0,0,6.16.55c1.77,0,2.28-.51,2.48-1.53.11-.59-.14-1-1-1.65l-4.22-3a5.36,5.36,0,0,1-2.14-5.82c.77-4,3.66-6.1,8.75-6.1a20.65,20.65,0,0,1,6.38.91.69.69,0,0,1,.52.9l-.62,3.19a.82.82,0,0,1-.77.75h-.11a52,52,0,0,0-6-.52c-1.44,0-2,.24-2.18,1.14-.11.59.23.91.87,1.38l4,2.79c2.69,1.89,3,3.94,2.54,6.06C361.89,40,358.81,42.93,353.43,42.93Z"/><path d="M371.51,42.93a25.14,25.14,0,0,1-6.54-.87.7.7,0,0,1-.53-.9l.63-3.19a.89.89,0,0,1,.84-.75h.15a59.83,59.83,0,0,0,6.16.55c1.77,0,2.27-.51,2.47-1.53.12-.59-.13-1-1-1.65l-4.21-3a5.37,5.37,0,0,1-2.15-5.82c.78-4,3.67-6.1,8.75-6.1a20.68,20.68,0,0,1,6.39.91.7.7,0,0,1,.52.9l-.62,3.19a.82.82,0,0,1-.77.75h-.11a52,52,0,0,0-6-.52c-1.44,0-2,.24-2.18,1.14-.12.59.23.91.87,1.38l4,2.79c2.69,1.89,3,3.94,2.54,6.06C380,40,376.89,42.93,371.51,42.93Z"/><path d="M116.2,65.08h-1a.29.29,0,0,1-.27-.24l-1-3.73h-4.2l-1,3.73a.34.34,0,0,1-.29.24h-1a.26.26,0,0,1-.28-.26.22.22,0,0,1,0-.11l3-10.54a1.58,1.58,0,0,1,1.65-1.23,1.57,1.57,0,0,1,1.63,1.21l3,10.56a.41.41,0,0,1,0,.11A.24.24,0,0,1,116.2,65.08Zm-4.07-10.57c0-.18-.14-.29-.3-.29a.33.33,0,0,0-.33.29L110,59.84h3.58Z" fill="#231f20"/><path d="M126.26,65.19a16.69,16.69,0,0,1-2.69-.22c-.27,0-.31-.11-.31-.29V64a.25.25,0,0,1,.28-.26h0c.74.06,1.93.1,2.67.1,1.94,0,2.46-.78,2.46-1.91,0-.81-.47-1.27-1.94-2.17l-1.57-1c-1.49-.9-2.24-1.73-2.24-3,0-2,1.41-2.87,3.87-2.87a23.47,23.47,0,0,1,2.82.19c.16,0,.27.12.27.28v.7a.24.24,0,0,1-.27.25h0c-.72,0-1.85-.09-2.79-.09-1.66,0-2.38.35-2.38,1.54,0,.76.54,1.21,1.77,1.95l1.49.89c1.87,1.12,2.54,2,2.54,3.31C130.26,63.51,129.45,65.19,126.26,65.19Z" fill="#231f20"/><path d="M140.64,65.19A16.79,16.79,0,0,1,138,65c-.27,0-.3-.11-.3-.29V64a.25.25,0,0,1,.27-.26H138c.75.06,1.93.1,2.67.1,2,0,2.46-.78,2.46-1.91,0-.81-.47-1.27-1.94-2.17l-1.57-1c-1.49-.9-2.23-1.73-2.23-3,0-2,1.4-2.87,3.87-2.87a23.29,23.29,0,0,1,2.81.19c.16,0,.28.12.28.28v.7a.25.25,0,0,1-.28.25h0c-.71,0-1.85-.09-2.78-.09-1.67,0-2.38.35-2.38,1.54,0,.76.53,1.21,1.76,1.95l1.49.89c1.88,1.12,2.54,2,2.54,3.31C144.64,63.51,143.83,65.19,140.64,65.19Z" fill="#231f20"/><path d="M156.29,65.19c-2.54,0-4.39-1.48-4.39-5.08V58c0-3.59,1.85-5.08,4.39-5.08s4.37,1.49,4.37,5.08v2.09C160.66,63.71,158.83,65.19,156.29,65.19ZM159.17,58c0-2.72-1.1-3.75-2.88-3.75s-2.9,1-2.9,3.75v2.09c0,2.72,1.12,3.76,2.9,3.76s2.88-1,2.88-3.76Z" fill="#231f20"/><path d="M175,65a12.69,12.69,0,0,1-2.68.21c-2,0-4.28-1.06-4.28-5V57.94c0-4,2.28-5,4.28-5a17.67,17.67,0,0,1,2.71.26c.15,0,.26.06.26.21v.82c0,.1,0,.18-.19.18h0c-.58,0-1.78-.14-2.72-.14-1.59,0-2.82.92-2.82,3.67v2.25c0,2.72,1.23,3.68,2.82,3.68.92,0,2.09-.08,2.67-.13h.07c.18,0,.26.08.26.26v.66C175.37,64.86,175.22,65,175,65Z" fill="#231f20"/><path d="M184,65.08h-.89a.3.3,0,0,1-.29-.32V53.36a.29.29,0,0,1,.29-.31H184a.3.3,0,0,1,.29.31v11.4A.3.3,0,0,1,184,65.08Z" fill="#231f20"/><path d="M200.71,65.08h-1a.3.3,0,0,1-.28-.24l-1-3.73h-4.19l-1,3.73a.32.32,0,0,1-.29.24H192a.26.26,0,0,1-.28-.26.22.22,0,0,1,0-.11l3-10.54a1.72,1.72,0,0,1,3.29,0l3,10.56a.22.22,0,0,1,0,.11A.25.25,0,0,1,200.71,65.08Zm-4.06-10.57c-.05-.18-.15-.29-.31-.29s-.27.11-.32.29l-1.47,5.33h3.57Z" fill="#231f20"/><path d="M214.16,54.32H211V64.76a.3.3,0,0,1-.29.32h-.89a.3.3,0,0,1-.29-.32V54.32h-3.16c-.18,0-.32-.09-.32-.26v-.72a.3.3,0,0,1,.32-.29h7.79a.29.29,0,0,1,.3.29v.72A.27.27,0,0,1,214.16,54.32Z" fill="#231f20"/><path d="M223.12,65.08h-.89a.31.31,0,0,1-.3-.32V53.36a.3.3,0,0,1,.3-.31h.89a.3.3,0,0,1,.29.31v11.4A.31.31,0,0,1,223.12,65.08Z" fill="#231f20"/><path d="M235.67,65.19c-2.54,0-4.39-1.48-4.39-5.08V58c0-3.59,1.85-5.08,4.39-5.08S240,54.43,240,58v2.09C240,63.71,238.21,65.19,235.67,65.19ZM238.55,58c0-2.72-1.1-3.75-2.88-3.75s-2.9,1-2.9,3.75v2.09c0,2.72,1.12,3.76,2.9,3.76s2.88-1,2.88-3.76Z" fill="#231f20"/><path d="M255.77,65.08h-1a.54.54,0,0,1-.52-.26l-5-9.5s0,0-.05,0,0,0,0,0v9.45a.3.3,0,0,1-.29.31H248c-.16,0-.29,0-.29-.19V53.51a.46.46,0,0,1,.47-.46h.89c.45,0,.54.08.66.33l5,9.45,0,.05s0,0,0-.05V53.36a.31.31,0,0,1,.3-.31h.85a.29.29,0,0,1,.29.31V64.61A.47.47,0,0,1,255.77,65.08Z" fill="#231f20"/></g></g></svg>