<svg xmlns="http://www.w3.org/2000/svg" viewBox="0 0 173.34 173.34"><title>crema_color</title><rect width="173.34" height="173.34" fill="#fff"/><path d="M168,31.14V5.56H5.56V30.65C51.94,12.91,117.3,14,168,31.14Z" fill="#9cc5ca"/><path d="M131.79,138.29h-5.12v9.62h5.12a4.81,4.81,0,0,0,0-9.62Z" fill="#231f20"/><path d="M152.43,138.08a5,5,0,1,0,4.6,5A4.74,4.74,0,0,0,152.43,138.08Z" fill="#231f20"/><path d="M167.48,79.11c-6.49,0-16,8.59-21,16.68-2,3.16-4.8,9-5,12.63,5.1-7.33,17.59-17.69,17.59-17.69A4.4,4.4,0,0,1,162,89c1.59,0,4.09,3.67,4.09,4.43-2.2,1.13-4,8.08-4,8.21a31,31,0,0,0-1,6.32c0,5.81,2.59,4.93,2.59,6.19-.1.25-.6.38-1,.38-4.3-.13-5.8-6.45-5.8-9.86a37.47,37.47,0,0,1,1.8-10.36c-2.2,1.64-4.2,3.79-8.49,8.59-7.2,8.22-8.7,13.27-10.1,13.27-1.69,0-3.69-3.92-4.09-6.44v-1.14c0-14.41,18.48-37.28,30-37.28a3.21,3.21,0,0,1,1.69.44C127.6,27.79,35.16,27.24,5.56,39.3V75.86C14,58.65,31.69,43.13,46,41.39c3.1,0,5.1,2.5,7.19,7.1a9.62,9.62,0,0,1,1.9,5.12,2.49,2.49,0,0,1-.1.79c-1.7,2.89-13.39,12.75-15.38,13.28-.3,0-.4-.13-.4-.53C39.21,64.79,48.2,56,50,51c-.4-1-1.4-1.31-2.5-1.31-14,0-41.86,28.92-41.86,49.29,0,5.52,2.19,10.12,8,10.12,8.09,0,20-10.38,25-17.61,0,0,.9-1.32,1.5-1.32a.64.64,0,0,1,.5.66,13.32,13.32,0,0,1-1.1,2.89c-5,9.33-14.39,22-24.68,22-3.37,0-6.73-2-9.27-5.21V168H168V79.13A5.53,5.53,0,0,0,167.48,79.11ZM22,150H15.91a1,1,0,0,1-1-1.05v-11.7a1,1,0,0,1,1-1.05H22A6.91,6.91,0,0,1,22,150Zm90.5-78.48c1.59,0,4.69,2.4,4.69,4.93,0,3.67-10.49,16.3-12.69,19.59,1.1-1.14,5.1-5.69,9.3-10.36,2.09-2.28,9.59-11,12.38-11,1.9,0,4.5,2.78,4.5,4.93a5.48,5.48,0,0,1-.3,1.77A161.74,161.74,0,0,0,121,97.81c12.49-14.66,13-15.17,13.49-15.17,1.5,0,4.09,2.66,4.09,4.68,0,1.64-.49,2.53-1.69,4.68-2.9,5-5.4,11-5.5,15.16,0,1.9.1,5,2.2,5,.1,0,.3.13.3.26,0,1-1.2,1.39-2,1.39-3.2,0-5.7-4-5.7-8.6,0-4.17,2-10.11,5.5-16.42-4,4.67-9.49,10.86-12.59,15.16-1.4,1.64-2.6,4-3.9,5.94a2.15,2.15,0,0,1-1.49,1c-1.3,0-3.1-2.27-3.1-4.17a15.37,15.37,0,0,1,1.8-5.94c3.59-8.21,10.29-20.22,10.29-20.22a151.11,151.11,0,0,0-18.49,19.84,45.35,45.35,0,0,0-7,12.13c-.5,1.14-.2,2.28-1.5,2.28s-3-3.16-3.1-5.18a12.26,12.26,0,0,1,1.1-5.31c4.9-9.23,10.19-19.21,16.89-29.45,0,0-5.1,4-6.2,4.43-.5,0-.5-.63-.5-.89C103.7,77.21,111.2,71.52,112.5,71.52ZM36.78,141.64a1,1,0,0,1,0,2.09H33.3v4.18h4.64a1,1,0,0,1,0,2.09h-5.6a1,1,0,0,1-1-1.05v-11.7a1,1,0,0,1,1-1.05h5.6a1,1,0,0,1,0,2.09H33.3v3.35Zm1.56-30.56c0-3,1.5-5.82,2.1-7.33C44.13,96.8,48,89.21,55,77.21c-6.59,4.93-7.09,5.56-7.59,5.56a.89.89,0,0,1-.8-.63c0-.63.8-1.27.8-1.27C49.63,79,56.12,73,57.92,73s4.4,2.65,4.4,5a9.16,9.16,0,0,1-1.7,3.29L51,96C61.82,83.15,67.41,78.85,67.41,78.85a1.29,1.29,0,0,1,1.1-.63c1.3,0,3.6,2.65,3.6,4.55,0,1.14-1.2,2.4-2.6,4.17s-2.9,4.55-2.9,7.2a4.59,4.59,0,0,0,.7,2.28.93.93,0,0,1-.5.12c-2.29,0-3.89-3-3.89-6.06a13.51,13.51,0,0,1,1.2-6.07c-6.2,7.21-14.29,14.92-19.19,23-1.7,2.78-3.49,6.32-3.49,8.6C39.14,115.75,38.34,113.73,38.34,111.08Zm6,39.13A4.49,4.49,0,0,1,41.14,149a1.17,1.17,0,0,1-.21-1.55.94.94,0,0,1,1.43-.15,2.93,2.93,0,0,0,2,.78,1.7,1.7,0,0,0,1.84-1.78c0-2.82-5.46-2.72-5.46-6.79A3.42,3.42,0,0,1,44.49,136a4.25,4.25,0,0,1,2.95,1,1.18,1.18,0,0,1,.2,1.51.93.93,0,0,1-1.36.25,3.52,3.52,0,0,0-1.89-.65c-1.16,0-1.64.61-1.64,1.47,0,2.4,5.45,2.29,5.45,6.79A3.68,3.68,0,0,1,44.39,150.21Zm8.37-1.15a1,1,0,1,1-1.93,0V137.14a1,1,0,1,1,1.93,0Zm9.33-.94a4.47,4.47,0,0,0,3.1-1.22v-2.73a1,1,0,1,1,1.93,0v3.11a1.15,1.15,0,0,1-.25.71,6.38,6.38,0,0,1-4.78,2.22,7.13,7.13,0,0,1,0-14.22,6.39,6.39,0,0,1,4.74,2.18,1.06,1.06,0,0,1,0,1.46.9.9,0,0,1-1.37,0,4.42,4.42,0,0,0-3.37-1.53,5,5,0,0,0,0,10ZM89.73,72.79a6.85,6.85,0,0,1,3-.76c2.3,0,6.4,7,6.8,9.35,0,7.08-11.29,14.53-17.19,14.53-2.3,0-3.1-.63-3.1-1.13,0-.76,1.6-.64,2.1-.76,5.8-1.65,13.79-11.5,13.79-15.29-4.9,1.51-11.89,7.33-17.08,14-3,3.79-6.4,10-6.4,14.54,0,1.77.9,3.66,2.9,3.66,4.29-.38,12.19-7.33,15.79-11.88a1.12,1.12,0,0,1,.89-.63c.3,0,.4.25.4.76-.4,1.89-5.39,8.84-10.49,13.39-2.1,1.9-3.89,3.16-5.59,3.42-4.4,0-8.4-6.83-8.4-11.63C67.14,92.37,80.23,77.59,89.73,72.79Zm-5.51,76.27a1,1,0,0,1-1,1c-.38,0-.58-.12-1-.54L72,139.65v9.41a1,1,0,1,1-1.93,0V137.14a1,1,0,0,1,1-1c.39,0,.58.12,1,.54l10.25,9.91v-9.41a1,1,0,1,1,1.93,0Zm9.39,1.15A4.49,4.49,0,0,1,90.36,149a1.17,1.17,0,0,1-.21-1.55.94.94,0,0,1,1.43-.15,2.93,2.93,0,0,0,2,.78,1.7,1.7,0,0,0,1.84-1.78c0-2.82-5.45-2.72-5.45-6.79A3.41,3.41,0,0,1,93.71,136a4.3,4.3,0,0,1,3,1,1.19,1.19,0,0,1,.19,1.51.92.92,0,0,1-1.35.25,3.55,3.55,0,0,0-1.9-.65c-1.16,0-1.64.61-1.64,1.47,0,2.4,5.45,2.29,5.45,6.79A3.68,3.68,0,0,1,93.61,150.21Zm11.86-11.92h-1.84v10.77a1,1,0,1,1-1.93,0V138.29H99.86a1,1,0,0,1,0-2.09h5.61a1,1,0,0,1,0,2.09Zm16.06,4.81a6.59,6.59,0,1,1-13.14,0v-6a1,1,0,1,1,1.93,0v6a4.65,4.65,0,1,0,9.28,0v-6a1,1,0,1,1,1.93,0Zm10.26,6.9H125.7a1,1,0,0,1-1-1.05v-11.7a1,1,0,0,1,1-1.05h6.09a6.91,6.91,0,0,1,0,13.8Zm11.31-.94a1,1,0,1,1-1.93,0V137.14a1,1,0,1,1,1.93,0Zm9.33,1.15A7.13,7.13,0,1,1,159,143.1,6.85,6.85,0,0,1,152.43,150.21Z" fill="#231f20"/><path d="M22,138.29H16.88v9.62H22a4.81,4.81,0,0,0,0-9.62Z" fill="#231f20"/></svg>