<svg id="Layer_1" data-name="Layer 1" xmlns="http://www.w3.org/2000/svg" viewBox="0 0 355 111.01"><defs><style>.cls-1{fill:#fff;}.cls-2{fill:#c4ae82;}</style></defs><title>gold reverse</title><polygon class="cls-1" points="97.13 29.63 51.62 1.31 49.51 0 47.4 1.31 42.55 4.33 1.89 29.63 0 30.81 0 33.03 0 36.81 0 44.48 0 55.93 0 57.88 0 58.6 0 66.53 0 67.38 0 71.39 0 77.98 0 80.2 1.89 81.38 11.77 87.53 20.97 93.26 47.4 109.7 49.51 111.01 51.62 109.7 87.25 87.53 97.13 81.38 99.02 80.2 99.02 77.98 99.02 71.39 99.02 67.38 99.02 66.53 99.02 59.1 99.02 55.93 99.02 44.48 99.02 33.03 99.02 30.81 97.13 29.63"/><path class="cls-1" d="M135.84,12.82c0-2.65-.69-2.65-1.34-2.65h-2V8.53h22.1l-.35,3.12c-.08.6.05,1.82-.82,1.82-.56,0-.78-.26-.82-.78-.09-.91-.44-1.17-1.26-1.48-2.26-.73-4.38-.78-7.67-.78-.61,0-.87,0-.87.7v9.14h2.39c4.85,0,5-.65,5-1.82V17h1.48v7.71h-1.48V24c0-1.3,0-1.9-3.64-1.9h-3.77v5.41c0,5.85.26,6.68,1.13,6.68,4.07,0,9.45-.18,10.75-2.69.17-.39.3-.61.78-.61a.59.59,0,0,1,.65.65,38.88,38.88,0,0,1-1.22,4.56H133.55V34.4c2,0,2.29,0,2.29-.44Z"/><path class="cls-1" d="M175.49,25.51c3.21-7.58,4.59-10.4,7.71-17H192v1.64h-1.51c-.61,0-.74,0-.83.83V30.24c0,.86,0,4.16,1,4.16H193v1.65H180.21V34.4c2.17,0,2.47,0,2.47-.44V14.42h-.12l-9,20.19c-.17.35-.3.92-.73.92s-.44-.31-.52-.52l-9-19.64h-.08V31.58c0,1.78.3,2.82,1.3,2.82h2.12v1.65h-8.06V34.4h1.56c.39,0,.91,0,.91-.44V14.2c0-3.81-1.47-4-3.81-4V8.53h10.09Z"/><path class="cls-1" d="M208.87,36.05H196.05V34.4c2,0,2.29,0,2.29-.44V12.82c0-2.65-.69-2.65-1.34-2.65h-2V8.53h14.09c7.58,0,9.62,4.55,9.62,7.58s-2.82,7.5-9.79,7.5a11.66,11.66,0,0,1-3.6-.52v7.15c0,.86,0,4.16,1,4.16h2.51ZM205.32,21.4a4.85,4.85,0,0,0,1.73.3,4.56,4.56,0,0,0,4.68-4.9c0-3.16-2-6.37-5.41-6.37-.65,0-1,0-1,.48Z"/><path class="cls-1" d="M230.15,27.46c0,5.85.25,6.68,1.12,6.68,4.08,0,9.45-.18,10.75-2.69.17-.39.3-.61.78-.61a.59.59,0,0,1,.65.65,38.5,38.5,0,0,1-1.21,4.56H220.87V34.4c2,0,2.3,0,2.3-.44V12.82c0-2.65-.7-2.65-1.35-2.65h-2V8.53h13.09v1.64H231c-.61,0-.74,0-.82.83Z"/><path class="cls-1" d="M244.65,23c0-6,3.72-15.34,15.38-15.34,8.24,0,14.39,5,14.39,13.83,0,6-3.77,15.34-15.43,15.34C250.76,36.87,244.65,31.84,244.65,23Zm16.08,12.05c5.37,0,6.71-5.55,6.71-9.71,0-5.46-1.73-15.9-9.14-15.9-5.38,0-6.68,5.55-6.68,9.71C251.62,24.65,253.32,35.09,260.73,35.09Z"/><path class="cls-1" d="M300.5,10.17h-1.21c-1,0-1,.09-1.35.61L290.79,24v6.24c0,.86,0,4.16,1,4.16h2.34v1.65H281.39V34.4c2.12,0,2.42,0,2.42-.44V24.52l-5.33-10.27c-2.08-4-2.38-4.08-3.72-4.08h-1V8.53h13.05v1.64h-1.78c-.56,0-.69,0-.69.26,0,.48,1.56,3.17,5.54,11.18,3.6-7.15,5.29-10,5.29-11,0-.48-.34-.48-1-.48h-2.12V8.53h8.45Z"/><path class="cls-1" d="M305.44,12.82c0-2.65-.7-2.65-1.35-2.65h-2V8.53h22.1l-.35,3.12c-.08.6,0,1.82-.82,1.82-.56,0-.78-.26-.82-.78-.09-.91-.44-1.17-1.26-1.48-2.25-.73-4.38-.78-7.67-.78-.61,0-.87,0-.87.7v9.14h2.39c4.85,0,5-.65,5-1.82V17h1.48v7.71h-1.48V24c0-1.3,0-1.9-3.64-1.9h-3.77v5.41c0,5.85.26,6.68,1.13,6.68,4.07,0,9.45-.18,10.75-2.69.17-.39.3-.61.78-.61a.59.59,0,0,1,.65.65,38.5,38.5,0,0,1-1.21,4.56H303.14V34.4c2,0,2.3,0,2.3-.44Z"/><path class="cls-1" d="M337.66,30.24c0,.86,0,4.16,1,4.16h2.52v1.65H328.39V34.4c2,0,2.3,0,2.3-.44V12.82c0-2.65-.7-2.65-1.35-2.65h-2V8.53h14c.9,0,9.7,0,9.7,8.32a5.9,5.9,0,0,1-5.63,5.41,57.7,57.7,0,0,0,7.37,11.05A2.65,2.65,0,0,0,355,34.4v1.65h-6.37c-1.69,0-2.12,0-2.69-.61-1.9-2-4.81-8.28-6.15-11.75h-2.13Zm0-8.32h1.13c3.3,0,5.25-1.91,5.25-5.25,0-3-2.17-6.24-5.42-6.24-.56,0-1,0-1,.48Z"/><path class="cls-1" d="M150.84,48.07a.7.7,0,0,1-.69.83c-.61,0-.74-.35-.87-.83-.48-2-2.91-2.81-4.77-2.81-2.51,0-5.37,1.43-5.37,4.24,0,4.55,6.54,3.51,11.35,7.46a8.57,8.57,0,0,1,2.73,6.2c0,3.9-2.94,9.36-11.53,9.36A22.24,22.24,0,0,1,134,71.17a42.29,42.29,0,0,1-.87-4.33c0-.61.22-.87.83-.87s.73.48.91,1c1,2.85,5.15,3.68,6.58,3.68,3.17,0,6.07-1.86,6.07-5.29,0-5-7.11-4.38-11.05-7.58a7.14,7.14,0,0,1-2.77-5.9c0-5.89,5.76-8.49,10.92-8.49a18.43,18.43,0,0,1,5.94.82Z"/><path class="cls-1" d="M158.65,48.46c0-2.64-.69-2.64-1.34-2.64h-2V44.17h22.11l-.35,3.12c-.09.61,0,1.82-.82,1.82-.57,0-.78-.26-.83-.78-.09-.91-.43-1.17-1.26-1.47-2.25-.74-4.37-.78-7.67-.78-.6,0-.86,0-.86.69v9.15H168c4.85,0,5-.65,5-1.82V52.67h1.47v7.71H173V59.6c0-1.3,0-1.91-3.64-1.91h-3.77v5.42c0,5.85.26,6.67,1.12,6.67,4.08,0,9.45-.17,10.75-2.68.18-.39.31-.61.78-.61a.59.59,0,0,1,.65.65,38.43,38.43,0,0,1-1.21,4.55H156.35V70.05c2,0,2.3,0,2.3-.44Z"/><path class="cls-1" d="M190.88,65.88c0,.87,0,4.17,1,4.17h2.51v1.64H181.6V70.05c2,0,2.3,0,2.3-.44V48.46c0-2.64-.69-2.64-1.34-2.64h-2V44.17h14c.91,0,9.71,0,9.71,8.32a5.91,5.91,0,0,1-5.64,5.42A58.49,58.49,0,0,0,206,69a2.66,2.66,0,0,0,2.25,1.09v1.64h-6.37c-1.69,0-2.12,0-2.69-.6-1.9-2-4.81-8.28-6.15-11.75h-2.12Zm0-8.32H192c3.3,0,5.25-1.9,5.25-5.24,0-3-2.17-6.24-5.42-6.24-.56,0-1,0-1,.48Z"/><path class="cls-1" d="M235,45.82h-1.81c-.39,0-.57,0-.83.65l-10.79,25c-.13.39-.26.78-.74.78s-.6-.52-.82-.87l-9.27-20.24c-1.95-4.25-2.47-5.33-3.6-5.33h-1.43V44.17h12.7v1.65h-1.26c-.61,0-1,0-1,.3a17.48,17.48,0,0,0,.82,2l6.42,14.08c2.68-5.81,6.28-14,6.28-15.82,0-.56-.39-.56-1-.56h-2V44.17H235Z"/><path class="cls-1" d="M236.5,44.17h12.83v1.65h-1.69c-.61,0-.73,0-.82.82V65.88c0,.87,0,4.17,1,4.17h2.51v1.64H237.54V70.05c2,0,2.3,0,2.3-.44V48.46c0-2.64-.69-2.64-1.34-2.64h-2Z"/><path class="cls-1" d="M277.29,47.86c-.08.56,0,1.43-.82,1.43-.61,0-.69-.39-.78-.87a1.5,1.5,0,0,0-.61-1.17,8.84,8.84,0,0,0-5.63-2c-4.46,0-9.92,4.55-9.92,12.61,0,5.81,2.68,12.74,9.49,12.74,2.47,0,7.15-1.69,7.8-4.55.08-.48.17-.87.78-.87a.66.66,0,0,1,.69.74c0,.61-.26,2.3-.43,4.37a26.27,26.27,0,0,1-10.79,2.22c-11,0-14.82-6.64-14.82-13.27,0-11.52,10.35-15.9,17.46-15.9A21.71,21.71,0,0,1,277.6,45Z"/><path class="cls-1" d="M284,48.46c0-2.64-.7-2.64-1.34-2.64h-2V44.17h22.1l-.34,3.12c-.09.61,0,1.82-.83,1.82-.56,0-.78-.26-.82-.78-.09-.91-.43-1.17-1.26-1.47-2.25-.74-4.37-.78-7.67-.78-.6,0-.86,0-.86.69v9.15h2.38c4.85,0,5-.65,5-1.82V52.67h1.47v7.71h-1.47V59.6c0-1.3,0-1.91-3.64-1.91H291v5.42c0,5.85.26,6.67,1.12,6.67,4.08,0,9.45-.17,10.75-2.68.17-.39.3-.61.78-.61a.59.59,0,0,1,.65.65,38.43,38.43,0,0,1-1.21,4.55H281.72V70.05c2,0,2.3,0,2.3-.44Z"/><path class="cls-1" d="M324.75,48.07a.71.71,0,0,1-.7.83c-.6,0-.73-.35-.86-.83-.48-2-2.9-2.81-4.77-2.81-2.51,0-5.37,1.43-5.37,4.24,0,4.55,6.54,3.51,11.35,7.46a8.61,8.61,0,0,1,2.73,6.2c0,3.9-2.94,9.36-11.53,9.36a22.24,22.24,0,0,1-7.71-1.35,42.29,42.29,0,0,1-.87-4.33c0-.61.22-.87.83-.87s.73.48.91,1c1,2.85,5.15,3.68,6.58,3.68,3.17,0,6.07-1.86,6.07-5.29,0-5-7.11-4.38-11.05-7.58a7.14,7.14,0,0,1-2.77-5.9c0-5.89,5.76-8.49,10.92-8.49a18.33,18.33,0,0,1,5.93.82Z"/><path class="cls-2" d="M144.13,94H152v1h-1.31c-.33,0-.51.09-.48.41v4.19c0,1.44.42,1.2.42,1.62s0,.71-4.1,1.64a16.65,16.65,0,0,1-4,.51c-5.95,0-9.72-3.65-9.72-9.63,0-6.76,5.74-10.5,12-10.5a13.7,13.7,0,0,1,5.6,1.08c-.33,2.36-.48,2.75-.78,2.75s-.45-.24-.45-.66c0-.6-1.61-1.94-4.81-1.94-1.41,0-8.08.75-8.08,8.82,0,4.25,2.3,8.85,7.36,8.85a7.35,7.35,0,0,0,3.23-.69V99c0-3.94-.18-4.06-1.14-4.06h-1.61Z"/><path class="cls-2" d="M155.1,102.74v-1h1.34c.39,0,.45-.17.45-.47V88.8c0-3.94-.18-4.06-1.14-4.06h-1.34v-1h8.76c4.25,0,6.28,2.69,6.28,5.14,0,2.61-1.79,4.25-4.28,4.61a66.81,66.81,0,0,0,5,7.15c.81.86,1,1.1,2.18,1.1v1h-3.41a2.59,2.59,0,0,1-1.49-.24c-.87-.72-3.08-4.24-5.21-8.4h-1.85v3.59c0,3.94.18,4.06,1.14,4.06h1.34v1Zm5.26-9.63h1.08c2.39,0,4.54-1,4.54-3.74a4.25,4.25,0,0,0-3.92-4.45h-1.31c-.3,0-.39.09-.39.38Z"/><path class="cls-2" d="M173.36,93.74c0-5.95,4.1-10.56,10.23-10.56,5.83,0,9.63,3.77,9.63,9.57,0,6-4.1,10.56-10.23,10.56C177.16,103.31,173.36,99.54,173.36,93.74Zm16.39.63c0-7.72-4.27-10.11-7-10.11-.92,0-5.89.21-5.89,7.86s4.28,10.11,7,10.11C184.79,102.23,189.75,102,189.75,94.37Z"/><path class="cls-2" d="M203,84.74h-1.34c-.39,0-.45.18-.45.48v10c0,2.37.18,6.67,5.05,6.67,1.35,0,5.75-.3,5.75-6.31V91a42,42,0,0,0-.21-5.24c-.15-.92-.36-1-1.17-1h-1.2v-1h5.6v1h-.84c-.78,0-.93,0-.93.39V95.71c0,5.51-4,7.6-7.8,7.6-6.1,0-7.72-3.29-7.72-6.55v-8c0-3.94-.18-4.06-1.14-4.06h-1.34v-1H203Z"/><path class="cls-2" d="M222.94,97.69c0,3.94.17,4.06,1.13,4.06h1.35v1h-7.75v-1H219c.39,0,.45-.17.45-.47V88.8c0-3.94-.18-4.06-1.14-4.06H217v-1h8.62c5.41,0,6.58,3.11,6.58,5.17,0,3.08-3.08,5.24-6.61,5.24a8.82,8.82,0,0,1-2.63-.39Zm0-4.94a4.77,4.77,0,0,0,1.82.33,3.66,3.66,0,0,0,4-3.77,4.29,4.29,0,0,0-4.58-4.39h-.81c-.29,0-.38.09-.38.38Z"/><rect class="cls-2" x="114.72" y="4.71" width="1.26" height="101.59"/><polygon class="cls-2" points="49.51 4.71 49.51 16.16 49.51 27.61 49.51 39.06 85.16 61.25 85.16 72.67 85.13 72.68 67.91 61.97 58.71 67.69 41.46 78.43 50.71 84.13 67.91 73.42 75.93 78.41 49.51 94.85 32.29 84.13 23.09 78.41 58.71 56.24 49.51 50.52 13.89 72.68 13.86 72.67 13.86 61.25 44.66 42.08 44.66 30.63 13.86 49.8 13.86 38.34 44.66 19.18 44.66 7.73 4 33.03 4 36.81 4 44.48 4 55.93 4 57.88 4 58.6 4 66.53 4 67.38 4 71.39 4 77.98 13.89 84.13 23.09 89.86 49.51 106.3 85.13 84.13 95.02 77.98 95.02 71.39 95.02 67.38 95.02 66.53 95.02 59.1 95.02 55.93 59.37 33.75 59.37 33.49 59.37 22.3 95.02 44.48 95.02 33.03 49.51 4.71"/><polygon class="cls-1" points="59.37 22.3 59.37 33.49 59.37 33.75 95.02 55.93 95.02 44.48 59.37 22.3"/><polygon class="cls-1" points="49.51 27.61 49.51 16.16 49.51 4.71 44.66 7.73 44.66 19.18 13.86 38.34 13.86 49.8 44.66 30.63 44.66 42.08 13.86 61.25 13.86 72.67 13.89 72.68 49.51 50.52 58.71 56.24 23.09 78.41 32.29 84.13 49.51 94.85 75.93 78.41 67.91 73.42 50.71 84.13 41.46 78.43 58.71 67.69 67.91 61.97 85.13 72.68 85.16 72.67 85.16 61.25 49.51 39.06 49.51 27.61"/><polygon class="cls-2" points="49.51 4.71 49.51 16.16 49.51 27.61 49.51 39.06 85.16 61.25 85.16 72.67 85.13 72.68 67.91 61.97 58.71 67.69 41.46 78.43 50.71 84.13 67.91 73.42 75.93 78.41 49.51 94.85 32.29 84.13 23.09 78.41 58.71 56.24 49.51 50.52 13.89 72.68 13.86 72.67 13.86 61.25 44.66 42.08 44.66 30.63 13.86 49.8 13.86 38.34 44.66 19.18 44.66 7.73 4 33.03 4 36.81 4 44.48 4 55.93 4 57.88 4 58.6 4 66.53 4 67.38 4 71.39 4 77.98 13.89 84.13 23.09 89.86 49.51 106.3 85.13 84.13 95.02 77.98 95.02 71.39 95.02 67.38 95.02 66.53 95.02 59.1 95.02 55.93 59.37 33.75 59.37 33.49 59.37 22.3 95.02 44.48 95.02 33.03 49.51 4.71"/><polygon class="cls-1" points="59.37 22.3 59.37 33.49 59.37 33.75 95.02 55.93 95.02 44.48 59.37 22.3"/><polygon class="cls-1" points="49.51 27.61 49.51 16.16 49.51 4.71 44.66 7.73 44.66 19.18 13.86 38.34 13.86 49.8 44.66 30.63 44.66 42.08 13.86 61.25 13.86 72.67 13.89 72.68 49.51 50.52 58.71 56.24 23.09 78.41 32.29 84.13 49.51 94.85 75.93 78.41 67.91 73.42 50.71 84.13 41.46 78.43 58.71 67.69 67.91 61.97 85.13 72.68 85.16 72.67 85.16 61.25 49.51 39.06 49.51 27.61"/></svg>