<svg xmlns="http://www.w3.org/2000/svg" viewBox="0 0 266.4 216"><title>square-color</title><path d="M4.2,205.52,7,189.73H8.68L5.86,205.52Z" fill="#231f20"/><path d="M10.51,205.52H8.94l2-11.21h1.29v1.52h0a4.6,4.6,0,0,1,1.46-1.33,3.59,3.59,0,0,1,1.88-.49,3,3,0,0,1,1.06.18,2.42,2.42,0,0,1,.82.53,2.36,2.36,0,0,1,.53.85,3.2,3.2,0,0,1,.2,1.16,8.51,8.51,0,0,1-.07,1c0,.35-.1.7-.17,1.07l-1.21,6.75H15.21l1.24-7a7.66,7.66,0,0,0,.16-1.41,2.26,2.26,0,0,0-.1-.73,1.41,1.41,0,0,0-.3-.48,1.29,1.29,0,0,0-.47-.27,1.76,1.76,0,0,0-.58-.09,2.92,2.92,0,0,0-1.27.29,3.46,3.46,0,0,0-1,.79,4.57,4.57,0,0,0-.77,1.2,5.81,5.81,0,0,0-.46,1.48Z" fill="#231f20"/><path d="M21.68,197.32a1.39,1.39,0,0,0,.13.63,1.38,1.38,0,0,0,.34.46,1.91,1.91,0,0,0,.49.33,5.46,5.46,0,0,0,.6.27c.29.12.59.25.88.39a3.39,3.39,0,0,1,.82.53,2.68,2.68,0,0,1,.6.82,3.07,3.07,0,0,1,.23,1.27,4.17,4.17,0,0,1-.3,1.64,3.31,3.31,0,0,1-.83,1.19,3.53,3.53,0,0,1-1.27.72,5.18,5.18,0,0,1-1.61.24,6.62,6.62,0,0,1-1.58-.19,3.56,3.56,0,0,1-1.25-.52l.29-1.53a8.53,8.53,0,0,0,1.18.48,4.56,4.56,0,0,0,1.36.2A3,3,0,0,0,23,204a2,2,0,0,0,.76-.53,1.66,1.66,0,0,0,.35-.65,2.42,2.42,0,0,0,.09-.59,1.42,1.42,0,0,0-.19-.77,1.79,1.79,0,0,0-.47-.52,3.88,3.88,0,0,0-.67-.37l-.77-.32c-.25-.11-.5-.24-.74-.37a2.72,2.72,0,0,1-.65-.51,2.14,2.14,0,0,1-.45-.75,2.85,2.85,0,0,1-.17-1.08A4,4,0,0,1,20.4,196a3.11,3.11,0,0,1,1.88-1.77,3.91,3.91,0,0,1,1.33-.22,4.54,4.54,0,0,1,.82.07,6.33,6.33,0,0,1,.78.17,6.56,6.56,0,0,1,.71.24,4.47,4.47,0,0,1,.58.29l-.27,1.51a7.56,7.56,0,0,0-1.26-.51,4.08,4.08,0,0,0-1.28-.21,2.51,2.51,0,0,0-.86.13,2.14,2.14,0,0,0-.63.37,1.53,1.53,0,0,0-.39.55A1.75,1.75,0,0,0,21.68,197.32Z" fill="#231f20"/><path d="M30.85,205.81a4,4,0,0,1-1.51-.25,2.75,2.75,0,0,1-1.05-.71,2.66,2.66,0,0,1-.61-1.06,4.36,4.36,0,0,1-.2-1.33,5.17,5.17,0,0,1,0-.54,5.56,5.56,0,0,1,.08-.62l1.25-7h1.57l-1.23,6.88c0,.19-.06.38-.08.56a4.36,4.36,0,0,0,0,.51,3.47,3.47,0,0,0,.1.82,1.7,1.7,0,0,0,.32.63,1.47,1.47,0,0,0,.57.4,2.2,2.2,0,0,0,.85.14,2.79,2.79,0,0,0,1.09-.2,2.13,2.13,0,0,0,.79-.61,3.21,3.21,0,0,0,.52-.93,6.54,6.54,0,0,0,.33-1.22l1.25-7h1.57l-1.31,7.29a9.44,9.44,0,0,1-.33,1.32,5.65,5.65,0,0,1-.53,1.17A3.72,3.72,0,0,1,33,205.34,4.33,4.33,0,0,1,30.85,205.81Z" fill="#231f20"/><path d="M43.61,195.86a4.4,4.4,0,0,0-.62,0,3,3,0,0,0-1.28.27,3.16,3.16,0,0,0-1,.76A4.06,4.06,0,0,0,40,198a6.69,6.69,0,0,0-.4,1.36l-1.1,6.19H37l2-11.21h1.29v1.52h0a5.31,5.31,0,0,1,.54-.71,4,4,0,0,1,.66-.58,3.49,3.49,0,0,1,.8-.39,3.07,3.07,0,0,1,.93-.14l.36,0,.33.05Z" fill="#231f20"/><path d="M49.27,203.68a5.32,5.32,0,0,1-.74,1,4.7,4.7,0,0,1-.81.66,3.18,3.18,0,0,1-.8.37,3.11,3.11,0,0,1-.77.11,2.33,2.33,0,0,1-1.11-.26,2.43,2.43,0,0,1-.83-.77,3.59,3.59,0,0,1-.5-1.19,6.14,6.14,0,0,1-.18-1.54,12.42,12.42,0,0,1,.15-1.92,11.42,11.42,0,0,1,.42-1.86,8.87,8.87,0,0,1,.69-1.67,6.81,6.81,0,0,1,1-1.35,4.15,4.15,0,0,1,1.19-.91,3.17,3.17,0,0,1,1.44-.33,2.54,2.54,0,0,1,1.36.37,2.39,2.39,0,0,1,.91,1.05h0l.46-1.12h1.28l-1.55,8.62a4.31,4.31,0,0,0-.07.67A.53.53,0,0,0,51,204a.73.73,0,0,0,.48.13,4.63,4.63,0,0,0,.67-.07l-.28,1.51a3.87,3.87,0,0,1-.94.1,1.48,1.48,0,0,1-1.22-.46,2.35,2.35,0,0,1-.35-1.55Zm1.13-6.86a5.14,5.14,0,0,0-.31-.44,2,2,0,0,0-.41-.4,1.91,1.91,0,0,0-.52-.3,1.88,1.88,0,0,0-.65-.11,2,2,0,0,0-1.09.31,3.24,3.24,0,0,0-.86.8,5.54,5.54,0,0,0-.65,1.15,8.12,8.12,0,0,0-.45,1.34,11.42,11.42,0,0,0-.27,1.37,9,9,0,0,0-.08,1.22,5.27,5.27,0,0,0,.11,1.23,2.25,2.25,0,0,0,.32.76,1.07,1.07,0,0,0,.47.39,1.32,1.32,0,0,0,.55.11,2,2,0,0,0,1-.3,3.51,3.51,0,0,0,1-.87,6.79,6.79,0,0,0,.8-1.4,9.47,9.47,0,0,0,.55-1.9Z" fill="#231f20"/><path d="M55,205.52H53.38l2-11.21h1.29v1.52h0a4.71,4.71,0,0,1,1.46-1.33,3.61,3.61,0,0,1,1.88-.49,3,3,0,0,1,1.06.18,2.32,2.32,0,0,1,.82.53,2.38,2.38,0,0,1,.54.85,3.21,3.21,0,0,1,.19,1.16,6.71,6.71,0,0,1-.07,1c0,.35-.1.7-.16,1.07l-1.21,6.75H59.65l1.23-7a7.8,7.8,0,0,0,.17-1.41,2.24,2.24,0,0,0-.11-.73,1.16,1.16,0,0,0-.3-.48,1.24,1.24,0,0,0-.46-.27,1.81,1.81,0,0,0-.58-.09,2.85,2.85,0,0,0-1.27.29,3.5,3.5,0,0,0-1,.79,4.84,4.84,0,0,0-.77,1.2,6.24,6.24,0,0,0-.46,1.48Z" fill="#231f20"/><path d="M71.57,196.19a5.42,5.42,0,0,0-1.07-.42,4,4,0,0,0-1.09-.17,2.73,2.73,0,0,0-1.24.29,3.28,3.28,0,0,0-1,.75,4.4,4.4,0,0,0-.72,1.06A7.36,7.36,0,0,0,66,199a8.53,8.53,0,0,0-.28,1.27,9.67,9.67,0,0,0-.08,1.14,4.9,4.9,0,0,0,.17,1.38,2.3,2.3,0,0,0,.48.88,1.74,1.74,0,0,0,.74.46,3.14,3.14,0,0,0,.94.14,4.41,4.41,0,0,0,1.4-.22,5.65,5.65,0,0,0,1.15-.51l-.29,1.67a2.66,2.66,0,0,1-.48.25,5,5,0,0,1-.62.21c-.22.06-.46.1-.7.14a5.81,5.81,0,0,1-.72.05,4,4,0,0,1-1.39-.24,2.86,2.86,0,0,1-1.16-.76,3.68,3.68,0,0,1-.8-1.34,5.83,5.83,0,0,1-.3-2,10.48,10.48,0,0,1,.14-1.64,10.15,10.15,0,0,1,.41-1.69,8.62,8.62,0,0,1,.7-1.58,6.11,6.11,0,0,1,1-1.32,4.52,4.52,0,0,1,1.37-.9,4.1,4.1,0,0,1,1.7-.34,4.2,4.2,0,0,1,.72.06,6.78,6.78,0,0,1,.68.15,5.27,5.27,0,0,1,.6.2,4.22,4.22,0,0,1,.47.22Z" fill="#231f20"/><path d="M80.24,196.91a3.22,3.22,0,0,1-.45,1.76,3.29,3.29,0,0,1-1.29,1.15,7.29,7.29,0,0,1-2.08.64,20.22,20.22,0,0,1-2.8.25,2.35,2.35,0,0,0,0,.26,2.62,2.62,0,0,0,0,.29,3.21,3.21,0,0,0,.66,2.24,2.59,2.59,0,0,0,2,.71,4.34,4.34,0,0,0,.71-.06,4.62,4.62,0,0,0,.74-.15c.24-.07.48-.14.71-.23a5.82,5.82,0,0,0,.61-.28l-.29,1.67a5.56,5.56,0,0,1-1.22.46,5.7,5.7,0,0,1-1.52.19,4.43,4.43,0,0,1-1.79-.33,3.23,3.23,0,0,1-1.22-.93,3.83,3.83,0,0,1-.71-1.41,6.43,6.43,0,0,1-.23-1.8,10.72,10.72,0,0,1,.15-1.79,9.65,9.65,0,0,1,.45-1.72,8.46,8.46,0,0,1,.74-1.51,6.34,6.34,0,0,1,1-1.21,4.47,4.47,0,0,1,1.3-.8,4,4,0,0,1,2.68-.13,2.64,2.64,0,0,1,1,.53,2.54,2.54,0,0,1,.66.91A3.06,3.06,0,0,1,80.24,196.91Zm-6.32,2.16a13.2,13.2,0,0,0,2-.13,5.63,5.63,0,0,0,1.5-.39,2.41,2.41,0,0,0,.93-.69,1.59,1.59,0,0,0,.32-1,1.27,1.27,0,0,0-.09-.47,1.13,1.13,0,0,0-.27-.41,1.28,1.28,0,0,0-.45-.28,1.52,1.52,0,0,0-.62-.11,2.49,2.49,0,0,0-1.1.25,3.16,3.16,0,0,0-.95.7,4.82,4.82,0,0,0-.76,1.11A7,7,0,0,0,73.92,199.07Z" fill="#231f20"/><path d="M93.35,191.14a4.52,4.52,0,0,0-1.73.33,5.25,5.25,0,0,0-1.45.92A6.57,6.57,0,0,0,89,193.77a9,9,0,0,0-.86,1.73,11.51,11.51,0,0,0-.52,2,11.29,11.29,0,0,0-.19,2.09,6.14,6.14,0,0,0,.36,2.29,3.45,3.45,0,0,0,.92,1.38,3.09,3.09,0,0,0,1.29.68,5.94,5.94,0,0,0,1.45.18,6.77,6.77,0,0,0,1.58-.18,10.33,10.33,0,0,0,1.38-.41l-.31,1.76a7.26,7.26,0,0,1-1.41.41,8.75,8.75,0,0,1-1.52.13,6.55,6.55,0,0,1-2.15-.35,4.73,4.73,0,0,1-1.74-1.1,5.2,5.2,0,0,1-1.15-1.9,8.09,8.09,0,0,1-.42-2.76,14.07,14.07,0,0,1,.21-2.4,12.43,12.43,0,0,1,.63-2.36,11,11,0,0,1,1.07-2.14,7.72,7.72,0,0,1,1.5-1.76,6.47,6.47,0,0,1,4.35-1.61,7.34,7.34,0,0,1,1.6.17,7.43,7.43,0,0,1,1.28.41l-.3,1.71a10.09,10.09,0,0,0-1.21-.4A5.53,5.53,0,0,0,93.35,191.14Z" fill="#231f20"/><path d="M104.91,198.42a11.07,11.07,0,0,1-.13,1.57,10.87,10.87,0,0,1-.41,1.66,9.22,9.22,0,0,1-.69,1.58,5.77,5.77,0,0,1-1,1.32,4.53,4.53,0,0,1-1.33.92,3.94,3.94,0,0,1-1.68.34,3.45,3.45,0,0,1-1.41-.28,2.71,2.71,0,0,1-1.08-.82,4,4,0,0,1-.7-1.32,6.21,6.21,0,0,1-.25-1.8,10.22,10.22,0,0,1,.13-1.6,10.35,10.35,0,0,1,.4-1.69,8.91,8.91,0,0,1,.7-1.62,6.25,6.25,0,0,1,1-1.36,4.44,4.44,0,0,1,1.33-.95,3.83,3.83,0,0,1,1.68-.36,3.38,3.38,0,0,1,1.41.28,2.84,2.84,0,0,1,1.09.82,3.91,3.91,0,0,1,.71,1.38A6.6,6.6,0,0,1,104.91,198.42Zm-3.55-2.85a2.3,2.3,0,0,0-1.08.26,3.23,3.23,0,0,0-.88.7,5.17,5.17,0,0,0-.7,1,8.57,8.57,0,0,0-.5,1.25,9.6,9.6,0,0,0-.4,2.71,5,5,0,0,0,.11,1.12,2.59,2.59,0,0,0,.36.86,1.67,1.67,0,0,0,.62.56,1.9,1.9,0,0,0,.88.19,2.15,2.15,0,0,0,1.07-.26,3,3,0,0,0,.89-.7,4.71,4.71,0,0,0,.7-1,8.15,8.15,0,0,0,.5-1.25,7.66,7.66,0,0,0,.3-1.36,9,9,0,0,0,.11-1.35,4.84,4.84,0,0,0-.12-1.13,2.68,2.68,0,0,0-.36-.86,1.67,1.67,0,0,0-.62-.56A1.87,1.87,0,0,0,101.36,195.57Z" fill="#231f20"/><path d="M114.66,196.31a6,6,0,0,1,.79-1.05,4.65,4.65,0,0,1,.88-.71,3.66,3.66,0,0,1,.91-.41,3.09,3.09,0,0,1,.89-.13,2.63,2.63,0,0,1,1,.18,2.35,2.35,0,0,1,.78.53,2.47,2.47,0,0,1,.51.85,3.21,3.21,0,0,1,.19,1.16,6.71,6.71,0,0,1-.07,1c0,.35-.1.7-.17,1.07l-1.2,6.75h-1.58l1.27-7.13c.06-.31.09-.56.11-.77s0-.36,0-.48a1.69,1.69,0,0,0-.36-1.19,1.17,1.17,0,0,0-.93-.38,2.36,2.36,0,0,0-1.11.29,3.48,3.48,0,0,0-1,.79,4.84,4.84,0,0,0-.77,1.2,5.81,5.81,0,0,0-.46,1.48l-1.11,6.19h-1.57l1.27-7.13a7.43,7.43,0,0,0,.1-.77q0-.3,0-.48a1.71,1.71,0,0,0-.37-1.21,1.25,1.25,0,0,0-.92-.36,2.29,2.29,0,0,0-1.1.29,3.48,3.48,0,0,0-1,.79,5.15,5.15,0,0,0-.77,1.2,5.82,5.82,0,0,0-.47,1.48l-1.1,6.19H105.8l2-11.21h1.29v1.52h0a4.68,4.68,0,0,1,1.43-1.35,3.42,3.42,0,0,1,1.72-.47,2.5,2.5,0,0,1,.88.15,2.11,2.11,0,0,1,.71.44,2.5,2.5,0,0,1,.5.72,2.88,2.88,0,0,1,.24,1Z" fill="#231f20"/><path d="M125,195.84h0a5.23,5.23,0,0,1,.71-.85,3.37,3.37,0,0,1,.73-.57,2.48,2.48,0,0,1,.74-.31,2.53,2.53,0,0,1,.71-.1,2.42,2.42,0,0,1,1.18.28,2.37,2.37,0,0,1,.87.8,3.78,3.78,0,0,1,.54,1.27,7.24,7.24,0,0,1,.18,1.69,12.54,12.54,0,0,1-.13,1.81,11.66,11.66,0,0,1-.42,1.79,10.66,10.66,0,0,1-.69,1.62,5.47,5.47,0,0,1-1,1.32,4.3,4.3,0,0,1-1.23.89,3.36,3.36,0,0,1-1.49.33,3.19,3.19,0,0,1-1.35-.27,2.76,2.76,0,0,1-1-.73h0L122.34,211h-1.57l3-16.69H125Zm-1.33,7.47a3.28,3.28,0,0,0,.8.67,2.3,2.3,0,0,0,1.17.27,2.09,2.09,0,0,0,1.1-.3,3.27,3.27,0,0,0,.88-.79,5.29,5.29,0,0,0,.68-1.14,9,9,0,0,0,.46-1.32,9.67,9.67,0,0,0,.28-1.36,9.11,9.11,0,0,0,.09-1.22,4.81,4.81,0,0,0-.13-1.24,2.2,2.2,0,0,0-.34-.77,1.2,1.2,0,0,0-.5-.41,1.52,1.52,0,0,0-.59-.12,1.88,1.88,0,0,0-1,.31,3.56,3.56,0,0,0-1,.88,5.88,5.88,0,0,0-.82,1.41,8.86,8.86,0,0,0-.55,1.9Z" fill="#231f20"/><path d="M137.78,203.68a4.91,4.91,0,0,1-.74,1,4.3,4.3,0,0,1-.8.66,3.24,3.24,0,0,1-.81.37,3,3,0,0,1-.76.11,2.19,2.19,0,0,1-1.94-1,3.82,3.82,0,0,1-.51-1.19,6.66,6.66,0,0,1-.17-1.54,13.78,13.78,0,0,1,.14-1.92,14,14,0,0,1,.42-1.86,9.61,9.61,0,0,1,.7-1.67,6.78,6.78,0,0,1,.95-1.35,4.33,4.33,0,0,1,1.2-.91,3.17,3.17,0,0,1,1.44-.33,2.56,2.56,0,0,1,1.36.37,2.44,2.44,0,0,1,.9,1.05h0l.47-1.12H141l-1.55,8.62a4.31,4.31,0,0,0-.07.67.57.57,0,0,0,.13.42.73.73,0,0,0,.48.13,4.49,4.49,0,0,0,.67-.07l-.27,1.51a3.93,3.93,0,0,1-.94.1,1.48,1.48,0,0,1-1.22-.46,2.41,2.41,0,0,1-.36-1.55Zm1.14-6.86a5.14,5.14,0,0,0-.31-.44,2.59,2.59,0,0,0-.41-.4,2.07,2.07,0,0,0-.52-.3,1.94,1.94,0,0,0-.66-.11,1.92,1.92,0,0,0-1.08.31,3.13,3.13,0,0,0-.87.8,6,6,0,0,0-.65,1.15,10.54,10.54,0,0,0-.45,1.34,11.36,11.36,0,0,0-.26,1.37,9.11,9.11,0,0,0-.09,1.22,5.2,5.2,0,0,0,.12,1.23,2.07,2.07,0,0,0,.32.76,1,1,0,0,0,.47.39,1.27,1.27,0,0,0,.54.11,2,2,0,0,0,1-.3,3.25,3.25,0,0,0,1-.87,6,6,0,0,0,.8-1.4,8.86,8.86,0,0,0,.55-1.9Z" fill="#231f20"/><path d="M143.46,205.52h-1.57l2-11.21h1.29v1.52h0a4.6,4.6,0,0,1,1.46-1.33,3.59,3.59,0,0,1,1.88-.49,3,3,0,0,1,1.06.18,2.42,2.42,0,0,1,.82.53,2.23,2.23,0,0,1,.53.85,3.2,3.2,0,0,1,.2,1.16,8.51,8.51,0,0,1-.07,1c0,.35-.1.7-.17,1.07l-1.2,6.75h-1.58l1.24-7a7.66,7.66,0,0,0,.16-1.41,2.26,2.26,0,0,0-.1-.73,1.16,1.16,0,0,0-.3-.48,1.33,1.33,0,0,0-.46-.27,1.87,1.87,0,0,0-.59-.09,2.92,2.92,0,0,0-1.27.29,3.46,3.46,0,0,0-1,.79,4.57,4.57,0,0,0-.77,1.2,6.24,6.24,0,0,0-.46,1.48Z" fill="#231f20"/><path d="M152.61,194.31h1.62l1.68,8.86h0l4.11-8.86h1.82l-5.51,11.52c-.34.71-.67,1.36-1,2a11.46,11.46,0,0,1-1,1.57,5.35,5.35,0,0,1-1.55,1.44,3.89,3.89,0,0,1-2,.5l-.44,0a2.6,2.6,0,0,1-.45-.07l.29-1.58.3,0a1.32,1.32,0,0,0,.28,0,2.5,2.5,0,0,0,1.13-.25,3.21,3.21,0,0,0,1-.78,7.09,7.09,0,0,0,.92-1.34,19.54,19.54,0,0,0,.91-2Z" fill="#231f20"/><path d="M174.41,198.42a11.07,11.07,0,0,1-.13,1.57,10.87,10.87,0,0,1-.41,1.66,8.55,8.55,0,0,1-.7,1.58,5.74,5.74,0,0,1-1,1.32,4.53,4.53,0,0,1-1.33.92,4,4,0,0,1-1.68.34,3.45,3.45,0,0,1-1.41-.28,2.71,2.71,0,0,1-1.08-.82,4,4,0,0,1-.7-1.32,5.89,5.89,0,0,1-.25-1.8,10.22,10.22,0,0,1,.13-1.6,10.35,10.35,0,0,1,.4-1.69,9.62,9.62,0,0,1,.69-1.62,6.64,6.64,0,0,1,1-1.36,4.44,4.44,0,0,1,1.33-.95A3.83,3.83,0,0,1,171,194a3.38,3.38,0,0,1,1.41.28,2.84,2.84,0,0,1,1.09.82,3.91,3.91,0,0,1,.71,1.38A6.6,6.6,0,0,1,174.41,198.42Zm-3.55-2.85a2.3,2.3,0,0,0-1.08.26,3.23,3.23,0,0,0-.88.7,4.78,4.78,0,0,0-.7,1,8.57,8.57,0,0,0-.5,1.25,10.12,10.12,0,0,0-.41,2.71,4.93,4.93,0,0,0,.12,1.12,2.59,2.59,0,0,0,.36.86,1.67,1.67,0,0,0,.62.56,1.87,1.87,0,0,0,.88.19,2.15,2.15,0,0,0,1.07-.26,3,3,0,0,0,.89-.7,4.71,4.71,0,0,0,.7-1,8.15,8.15,0,0,0,.5-1.25,8.65,8.65,0,0,0,.3-1.36,9,9,0,0,0,.11-1.35,4.84,4.84,0,0,0-.12-1.13,2.68,2.68,0,0,0-.36-.86,1.67,1.67,0,0,0-.62-.56A1.9,1.9,0,0,0,170.86,195.57Z" fill="#231f20"/><path d="M177.16,207.06a8.08,8.08,0,0,1-.59,2,4.33,4.33,0,0,1-.9,1.31,3.27,3.27,0,0,1-1.2.71,4.72,4.72,0,0,1-1.44.22,3.61,3.61,0,0,1-.84-.09,2.65,2.65,0,0,1-.55-.15l.25-1.56a2.05,2.05,0,0,0,.53.15,3.07,3.07,0,0,0,1.56-.12,1.86,1.86,0,0,0,.76-.57,3.58,3.58,0,0,0,.56-1.07,10.55,10.55,0,0,0,.41-1.64l1.86-10.37H175.8l.28-1.57h1.78l.34-1.95a5.89,5.89,0,0,1,1.44-3.19,3.49,3.49,0,0,1,2.55-1,4.09,4.09,0,0,1,.89.08,2.61,2.61,0,0,1,.62.18l-.24,1.52a3.36,3.36,0,0,0-.61-.14,3,3,0,0,0-.6-.05,2.06,2.06,0,0,0-1.63.68,4.1,4.1,0,0,0-.86,2.1l-.32,1.8h2.65l-.29,1.57h-2.64Z" fill="#231f20"/><path d="M195.14,202.67c0-.3.08-.63.12-1s.08-.67.13-1l.15-1c.06-.34.11-.67.17-1l1.61-9H199l-2.82,15.79h-1.54l-3.68-9.21c-.24-.58-.48-1.2-.73-1.85s-.47-1.29-.66-1.92h0c-.08.65-.16,1.33-.26,2s-.2,1.35-.31,2l-1.61,9h-1.65l2.82-15.79H190l4,9.9c.19.47.39,1,.59,1.49s.39,1,.55,1.55Z" fill="#231f20"/><path d="M207.74,196.91a3.3,3.3,0,0,1-.44,1.76,3.26,3.26,0,0,1-1.3,1.15,7.12,7.12,0,0,1-2.07.64,20.22,20.22,0,0,1-2.8.25,2.46,2.46,0,0,0,0,.26v.29a3.21,3.21,0,0,0,.66,2.24,2.58,2.58,0,0,0,2,.71,4.46,4.46,0,0,0,.72-.06,4.85,4.85,0,0,0,.74-.15c.24-.07.47-.14.7-.23a5,5,0,0,0,.61-.28l-.28,1.67a5.56,5.56,0,0,1-1.22.46,5.73,5.73,0,0,1-1.53.19,4.38,4.38,0,0,1-1.78-.33,3.19,3.19,0,0,1-1.23-.93,3.83,3.83,0,0,1-.71-1.41,6.82,6.82,0,0,1-.23-1.8,9.77,9.77,0,0,1,.16-1.79,9.65,9.65,0,0,1,.45-1.72,7.84,7.84,0,0,1,.74-1.51,5.69,5.69,0,0,1,1-1.21,4.42,4.42,0,0,1,1.29-.8,4,4,0,0,1,1.55-.3,3.88,3.88,0,0,1,1.14.17,2.82,2.82,0,0,1,1,.53,2.54,2.54,0,0,1,.66.91A3.23,3.23,0,0,1,207.74,196.91Zm-6.32,2.16a13.43,13.43,0,0,0,2-.13,5.45,5.45,0,0,0,1.49-.39,2.38,2.38,0,0,0,.94-.69,1.65,1.65,0,0,0,.32-1,1.27,1.27,0,0,0-.09-.47,1,1,0,0,0-.28-.41,1.28,1.28,0,0,0-.45-.28,1.48,1.48,0,0,0-.61-.11,2.46,2.46,0,0,0-1.1.25,3,3,0,0,0-.95.7,4.82,4.82,0,0,0-.76,1.11A6.45,6.45,0,0,0,201.42,199.07Z" fill="#231f20"/><path d="M215.56,196.37c-.07.21-.14.46-.23.73s-.18.57-.29.88l-.34,1-.36,1-2.1,5.61h-1.66l-1.67-11.21h1.6l.66,5c.06.46.12.88.16,1.26s.09.73.13,1.06.07.63.1.91l.09.81h0c.06-.22.13-.45.22-.7s.17-.51.26-.77.17-.51.26-.76.17-.49.25-.7l2.3-6.12h1.7l.54,6.1q0,.32.06.69c0,.25,0,.51.05.77l.06.77q0,.39,0,.72h0c.17-.5.37-1,.58-1.51s.42-1,.62-1.41l2.81-6.13h1.79l-5.37,11.21h-1.62l-.47-5.64c0-.31,0-.63-.08-.95l-.06-1c0-.31,0-.6,0-.88s0-.51,0-.72Z" fill="#231f20"/><path d="M230.32,205.52l1.15-6.39-3.18-9.4H230l2.45,7.53h0l4.33-7.53h1.92l-5.59,9.41L232,205.52Z" fill="#231f20"/><path d="M245.6,198.42a11.07,11.07,0,0,1-.13,1.57,10.87,10.87,0,0,1-.41,1.66,9.22,9.22,0,0,1-.69,1.58,5.77,5.77,0,0,1-1,1.32,4.53,4.53,0,0,1-1.33.92,3.91,3.91,0,0,1-1.68.34,3.45,3.45,0,0,1-1.41-.28,2.71,2.71,0,0,1-1.08-.82,4,4,0,0,1-.7-1.32,6.21,6.21,0,0,1-.25-1.8A11.6,11.6,0,0,1,237,200a10.35,10.35,0,0,1,.4-1.69,8.91,8.91,0,0,1,.7-1.62,6,6,0,0,1,1-1.36,4.28,4.28,0,0,1,1.32-.95,3.83,3.83,0,0,1,1.68-.36,3.38,3.38,0,0,1,1.41.28,2.94,2.94,0,0,1,1.1.82,3.9,3.9,0,0,1,.7,1.38A6.6,6.6,0,0,1,245.6,198.42Zm-3.55-2.85a2.33,2.33,0,0,0-1.08.26,3.23,3.23,0,0,0-.88.7,5.17,5.17,0,0,0-.7,1,8.57,8.57,0,0,0-.5,1.25,10.29,10.29,0,0,0-.3,1.36,9,9,0,0,0-.1,1.35,5,5,0,0,0,.11,1.12,2.59,2.59,0,0,0,.36.86,1.75,1.75,0,0,0,.62.56,1.9,1.9,0,0,0,.88.19,2.21,2.21,0,0,0,1.08-.26,3.05,3.05,0,0,0,.88-.7,4.71,4.71,0,0,0,.7-1,8.15,8.15,0,0,0,.5-1.25,7.66,7.66,0,0,0,.3-1.36,9,9,0,0,0,.11-1.35,4.84,4.84,0,0,0-.12-1.13,2.68,2.68,0,0,0-.36-.86,1.67,1.67,0,0,0-.62-.56A1.87,1.87,0,0,0,242.05,195.57Z" fill="#231f20"/><path d="M253.14,195.86a4.3,4.3,0,0,0-.62,0,3,3,0,0,0-1.28.27,3.28,3.28,0,0,0-1,.76,3.81,3.81,0,0,0-.68,1.12,6.7,6.7,0,0,0-.41,1.36l-1.1,6.19H246.5l2-11.21h1.29v1.52h0a7.79,7.79,0,0,1,.54-.71,4,4,0,0,1,.66-.58,3.49,3.49,0,0,1,.8-.39,3.09,3.09,0,0,1,.94-.14l.35,0,.34.05Z" fill="#231f20"/><path d="M260.49,205.74a4.21,4.21,0,0,1-.5,0,2.28,2.28,0,0,1-1.09-.26,3.17,3.17,0,0,1-.82-.69,5.17,5.17,0,0,1-.61-1c-.17-.37-.33-.74-.47-1.12s-.24-.68-.35-1-.22-.64-.34-.92a4,4,0,0,0-.37-.72,1.18,1.18,0,0,0-.47-.43l-1.05,5.87h-1.57l3.06-17.09h1.57l-1.94,10.84h.05l4.59-5h2.15l-5,5.21a1.53,1.53,0,0,1,.31.46,4.39,4.39,0,0,1,.27.65l.26.77c.09.28.18.54.28.81s.22.51.34.76a3.26,3.26,0,0,0,.41.63,1.87,1.87,0,0,0,.54.44,1.37,1.37,0,0,0,.68.17,2.38,2.38,0,0,0,.34,0Z" fill="#231f20"/><path d="M17.91,165.94c.6-2.58,1.35-5.34,2.23-8.29L24.87,142h7v32.7h-5V158.14c0-2.43.09-5.25.25-8.46H27c-.23.93-.5,2-.81,3.13s-.64,2.3-1,3.42l-5.66,18.48H16.26l-5.67-18.48q-.51-1.68-1-3.42c-.31-1.15-.58-2.2-.81-3.13H8.6q.26,4.53.25,8.44v16.59h-5V142h7l4.73,15.57q1.19,3.88,2.23,8.36Z" fill="#231f20"/><path d="M62.6,158.36a25.09,25.09,0,0,1-.89,6.86,15.94,15.94,0,0,1-2.6,5.36,12,12,0,0,1-4.19,3.5,13.44,13.44,0,0,1-11.32,0,11.88,11.88,0,0,1-4.19-3.5,15.94,15.94,0,0,1-2.6-5.36,26.88,26.88,0,0,1,0-13.72,16,16,0,0,1,2.6-5.36,11.88,11.88,0,0,1,4.19-3.5,13.54,13.54,0,0,1,11.32,0,12,12,0,0,1,4.19,3.5,16,16,0,0,1,2.6,5.36A25.09,25.09,0,0,1,62.6,158.36Zm-5.18,0a19.8,19.8,0,0,0-.61-5.22,11.59,11.59,0,0,0-1.7-3.73,7,7,0,0,0-2.58-2.22,7.69,7.69,0,0,0-6.54,0,7,7,0,0,0-2.58,2.22,11.38,11.38,0,0,0-1.7,3.73,22.64,22.64,0,0,0,0,10.44,11.23,11.23,0,0,0,1.7,3.72,7.2,7.2,0,0,0,11.7,0,11.44,11.44,0,0,0,1.7-3.72A19.8,19.8,0,0,0,57.42,158.36Z" fill="#231f20"/><path d="M80,157.21q2.94,5,4.79,8.9h.12q-.24-6.37-.24-9.29V142h5v32.7H84.42L75.5,159.66q-2.35-3.91-4.87-9.07h-.12q.24,6,.24,9.31v14.81h-5V142H71Z" fill="#231f20"/><path d="M95,174.71V142h5v32.7Z" fill="#231f20"/><path d="M116.35,174.71h-5V147H102.5v-5h22.67v5h-8.82Z" fill="#231f20"/><path d="M151.83,158.36a25.09,25.09,0,0,1-.89,6.86,15.94,15.94,0,0,1-2.6,5.36,12,12,0,0,1-4.19,3.5,13.44,13.44,0,0,1-11.32,0,12,12,0,0,1-4.19-3.5,15.94,15.94,0,0,1-2.6-5.36,26.88,26.88,0,0,1,0-13.72,16,16,0,0,1,2.6-5.36,12,12,0,0,1,4.19-3.5,13.54,13.54,0,0,1,11.32,0,12,12,0,0,1,4.19,3.5,16,16,0,0,1,2.6,5.36A25.09,25.09,0,0,1,151.83,158.36Zm-5.18,0a19.8,19.8,0,0,0-.61-5.22,11.59,11.59,0,0,0-1.7-3.73,7,7,0,0,0-2.58-2.22,7.69,7.69,0,0,0-6.54,0,7,7,0,0,0-2.58,2.22,11.38,11.38,0,0,0-1.7,3.73,22.64,22.64,0,0,0,0,10.44,11.23,11.23,0,0,0,1.7,3.72,7.2,7.2,0,0,0,11.7,0,11.44,11.44,0,0,0,1.7-3.72A19.8,19.8,0,0,0,146.65,158.36Z" fill="#231f20"/><path d="M176.07,151.83a10.3,10.3,0,0,1-1.58,5.81,9.3,9.3,0,0,1-4.9,3.53v.1l8.14,13.44h-6l-7.44-12.66h-3.44v12.66h-5V142h8.32a24.44,24.44,0,0,1,3.85.28,12.64,12.64,0,0,1,3,.84,8.23,8.23,0,0,1,3.72,3.26A10.41,10.41,0,0,1,176.07,151.83ZM163.3,157a20.06,20.06,0,0,0,2.92-.18,8,8,0,0,0,2-.55,4.12,4.12,0,0,0,2.09-1.87,6.09,6.09,0,0,0,.58-2.73,5.66,5.66,0,0,0-.45-2.33,3.38,3.38,0,0,0-1.57-1.6,5.77,5.77,0,0,0-1.8-.58,16.76,16.76,0,0,0-2.68-.18h-3.58v10Z" fill="#231f20"/><path d="M197.87,142V169.7h12.81v5H192.86V142Z" fill="#231f20"/><path d="M213.6,174.71V142h5v32.7Z" fill="#231f20"/><path d="M228.89,174.71h-5V142h17.43v5H228.89v8.46h10.62v5H228.89Z" fill="#231f20"/><path d="M249.1,169.7h13.46v5H244.09V142h17.74v5H249.1v8.46H260v5H249.1Z" fill="#231f20"/><path d="M36.26,133.48H62.79a70.77,70.77,0,0,1,70.69-70.69V36.26A97.33,97.33,0,0,0,36.26,133.48Z" fill="#009470"/><path d="M142.25,98.87a70.72,70.72,0,0,1,61.6-36.08V36.26a96.76,96.76,0,0,0-61.6,22.06Z" fill="#009470"/><path d="M212.62,50.24V83.75a70.45,70.45,0,0,1,50.18-21V36.26A96.6,96.6,0,0,0,212.62,50.24Z" fill="#009470"/><path d="M3.6,133.48H30.13A103.46,103.46,0,0,1,133.48,30.13V3.6A129.88,129.88,0,0,0,3.6,133.48Z" fill="#74bdab"/><path d="M142.25,50.55a102.78,102.78,0,0,1,61.6-20.42V3.6a129.32,129.32,0,0,0-61.6,15.51Z" fill="#74bdab"/><path d="M212.62,13.66v29.5a102.72,102.72,0,0,1,50.18-13V3.6A129.35,129.35,0,0,0,212.62,13.66Z" fill="#74bdab"/><path d="M101.57,133.48h31.91V101.57A31.94,31.94,0,0,0,101.57,133.48Z" fill="#007357"/><path d="M68.91,133.48H95.44a38.09,38.09,0,0,1,38-38V68.91A64.65,64.65,0,0,0,68.91,133.48Z" fill="#007357"/><path d="M171.94,133.48h31.91V101.57A31.94,31.94,0,0,0,171.94,133.48Z" fill="#007357"/><path d="M142.25,114.13v19.35h23.56a38.09,38.09,0,0,1,38-38V68.91A64.66,64.66,0,0,0,142.25,114.13Z" fill="#007357"/><path d="M230.89,133.48H262.8V101.57A31.94,31.94,0,0,0,230.89,133.48Z" fill="#007357"/><path d="M212.62,92.92v40.56h12.15a38.08,38.08,0,0,1,38-38V68.91A64.44,64.44,0,0,0,212.62,92.92Z" fill="#007357"/></svg>