<?xml version="1.0" encoding="UTF-8"?>
<svg id="Layer_1" data-name="Layer 1" xmlns="http://www.w3.org/2000/svg" xmlns:xlink="http://www.w3.org/1999/xlink" viewBox="0 0 887.04 100">
  <defs>
    <style>
      .cls-1 {
        fill: none;
      }

      .cls-1, .cls-2, .cls-3 {
        stroke-width: 0px;
      }

      .cls-2 {
        fill: url(#New_Gradient_Swatch);
      }

      .cls-3 {
        fill: #fff;
      }
    </style>
    <linearGradient id="New_Gradient_Swatch" data-name="New Gradient Swatch" x1="172.63" y1="50" x2="742.84" y2="50" gradientUnits="userSpaceOnUse">
      <stop offset="0" stop-color="#5cf"/>
      <stop offset="1" stop-color="#0075ff"/>
    </linearGradient>
  </defs>
  <polygon class="cls-1" points="369.02 63.84 383.44 63.84 382.73 45.86 369.02 63.84"/>
  <path class="cls-2" d="M485.66,0h-37.22l-9.14,27.86h37.5l8.86-27.86ZM181.45,69.21c-2.67-2.24-4.29-5.05-4.86-8.43-.57-3.38-.19-7.02,1.14-10.93,1.33-3.9,3.4-7.52,6.21-10.86,2.81-3.33,6.26-6.12,10.36-8.36,4.09-2.24,8.57-3.36,13.43-3.36l54.46.11-12.74,39.48h37L308.04,0h-91.88c-9.81,0-18.88,1.43-27.21,4.28-8.34,2.86-15.69,6.64-22.07,11.36-6.38,4.71-11.76,10.05-16.14,16-4.38,5.95-7.57,12.07-9.57,18.36-2,6.29-2.69,12.41-2.07,18.36.62,5.95,2.67,11.28,6.14,16,3.48,4.72,8.48,8.5,15,11.36,6.52,2.86,14.79,4.29,24.79,4.29h39.83l8.71-27.43h-40.4c-5.14,0-9.05-1.12-11.71-3.36ZM675.07,28.62c1.38-.81,3.04-1.19,5.14-1.19l59,.03,8.97-27.46h-68.43c-6.57,0-12.5.91-17.79,2.71-5.28,1.81-9.86,4.19-13.71,7.14-3.86,2.95-6.98,6.31-9.36,10.07-2.38,3.76-3.95,7.62-4.71,11.57-.76,3.95-.67,7.83.29,11.64.44,1.77,1.1,3.44,1.95,5.02h-22.1l15.24-48.16h-52.43l-27.86,46.71,2-46.71h-52.43l-32.14,100h29.57l19.43-60.29-2.57,60.29h33.86l36-60.14-19.43,60.14h123.77c6.57,0,12.5-.9,17.78-2.71,5.29-1.81,9.88-4.22,13.79-7.21,3.9-3,7.05-6.43,9.43-10.29,2.38-3.86,3.95-7.79,4.72-11.78.76-4,.67-7.91-.29-11.72-.95-3.81-2.81-7.24-5.57-10.29-2.76-3.05-6.52-5.5-11.28-7.36-4.76-1.86-10.57-2.79-17.43-2.79h-21.14c-2.1,0-3.46-.49-4.26-1.36-.77-.83-.98-1.65-.79-2.66.23-1.23,1.42-2.41,2.8-3.22ZM427.12,71.09l-5.95,18.46-3.58-89.55h-36.71l-59.02,77.51h-45.42c-17.18,0-32.4,6.14-37.68,22.49h102.69l10.92-14.33h31.94l.57,14.33h69.64l20.57-63.86c-21.88,0-41.26,14.12-47.97,34.95ZM369.02,63.84l13.71-17.98.71,17.98h-14.42Z"/>
  <path class="cls-3" d="M612.28,79.44l5.02-15.58-.67,15.59h8.81s9.32-15.55,9.32-15.55l-5.03,15.57h8.78s6.12-19.02,6.12-19.02l.79,19.05,10.46.02,5.01-10.79.45,10.8,10.44.02,4.26-9.16c0,.31.01.62.04.92.15,1.54.67,2.93,1.58,4.15.9,1.22,2.2,2.21,3.89,2.95,1.69.74,3.83,1.16,6.43,1.16l14.47-.05,4.6-14.2h-9.53l-2.26,7.08h-5.15c-1.33,0-2.35-.29-3.04-.87-.69-.58-1.11-1.31-1.24-2.19-.14-.88-.03-1.82.32-2.84.35-1.01.88-1.95,1.61-2.82.73-.87,1.62-1.59,2.67-2.17,1.05-.58,2.21-.87,3.47-.87l12.72.04,2.3-7.12h-12.83c-2.55,0-4.9.37-7.05,1.11-2.15.74-4.06,1.72-5.73,2.95-.79.58-1.52,1.2-2.19,1.85l2.74-5.91h-7.68l-6.53,14.09-.59-14.09h-8.79l-6.53,14.09-.59-14.09h-19.9l-7.23,12.13.52-12.12h0s-13.61,0-13.61,0l-8.44,25.88h0s7.79.01,7.79.01Z"/>
</svg>