<svg xmlns="http://www.w3.org/2000/svg" viewBox="0 0 162.71 61.59"><title>logostacked-left-black</title><path d="M45.1,52.62c-.14,0-.63.05-1.82.05s-1.84-.05-2-.05-.09,0-.09.12v.32c0,.07,0,.13.12.13h.59c.37,0,.51.14.51.65v1c0,.74,0,1.13-.34,1.3a4,4,0,0,1-1.93.24c-1.41,0-2.42-.88-3.59-1.83-.17-.14-.27-.07-.32,0s-.23.54-.28.67a.33.33,0,0,0,.09.41,5.55,5.55,0,0,0,4,1.53,8.28,8.28,0,0,0,4-.93c.14-.06.23-.12.23-.23s-.06-.25-.06-.45V53.71c0-.41.17-.52.42-.52h.49c.08,0,.11,0,.11-.11v-.36C45.24,52.65,45.21,52.62,45.1,52.62Z" fill="#231f20"/><path d="M40.5,47.35a3.25,3.25,0,0,1,2.36,1,5.46,5.46,0,0,1,1.13,2c0,.09.06.13.15.12l.34-.06c.05,0,.05-.08.05-.2l-.14-2.84c0-.11,0-.2-.17-.2s-.13.05-.2.15l-.17.22c-.08.12-.17.16-.34,0a5.22,5.22,0,0,0-2.89-.76c-2.62,0-4.5.56-5.72,4.34l-1.16,3-1.77-4s-.74-1.77-1.06-1.77-1.08,1.65-1.08,1.65-1.92,4.1-2,4.4l0,0-2.21-6.55a.34.34,0,0,1,.34-.5h.27c.1,0,.13,0,.13-.11v-.36c0-.07,0-.1-.11-.1l-1.39,0c-.07,0-.17.21-.28.48-.43,1-2.5,5.48-2.61,5.84h-.06l-2.57-6c-.06-.17-.16-.31-.36-.31s-.31.23-.36.37c-.29.71-3.18,8.65-3.33,9a.69.69,0,0,1-.62.46h-.3c-.08,0-.09,0-.09.12v.38s0,.07.08.07.54,0,1.33,0,1.37,0,1.51,0a.1.1,0,0,0,.11-.11V56.8c0-.07,0-.12-.1-.12h-.38c-.34,0-.48-.19-.48-.39a61.77,61.77,0,0,1,2-6.72h.05l2.05,5.07s.46,1.11.76,1.11,1.11-1.56,1.11-1.56,1.92-4.27,2-4.57h0l2.21,6.56a.34.34,0,0,1-.34.49H26c-.1,0-.13,0-.13.12v.35c0,.07,0,.1.11.1l1.17,0a.42.42,0,0,0,.27-.12.45.45,0,0,0,.15-.19c.06-.16,2.57-5.45,2.69-5.85h.06l2.57,5.8c.06.17.15.32.35.32.77,0,1-.3,1.32-1.17.16-.45,1.08-3.05,1.92-5.27C37.44,48.12,39,47.35,40.5,47.35Z" fill="#231f20"/><path d="M5.59,53c0-.31-.23-.57-.55-.87A1.52,1.52,0,0,0,4,51.67c1.91-1.92,3.51-3,4-3.61A.38.38,0,0,0,8,47.88a1.71,1.71,0,0,0-.76-1c-.11,0-.2.08-.32.19-.68.58-1.46,1.28-3.41,3.21a17.49,17.49,0,0,0-3,3.46A3.2,3.2,0,0,0,0,55.26a1.19,1.19,0,0,0,.43.93c.53.57.88.89,1.39.89,1.32,0,3.19-2.41,3.65-3.52A1.76,1.76,0,0,0,5.59,53Zm-3.3,2.36c-.4.35-.62.46-.81.46s-.19-.13-.19-.24c0-.74,2.11-3.3,2.88-3.3a.21.21,0,0,1,.23.2C4.38,53.12,3,54.79,2.29,55.34Z" fill="#231f20"/><path d="M12.12,51.67a.71.71,0,0,0-.37.16,49.1,49.1,0,0,1-5.12,4,.26.26,0,0,1-.14,0,.16.16,0,0,1-.18-.17.29.29,0,0,1,.08-.17A28.53,28.53,0,0,1,10,52.37a.07.07,0,0,0,0-.07,1.52,1.52,0,0,0-1.14-.91.24.24,0,0,0-.15,0C6.68,53.06,5,54.26,5,55.53a2.43,2.43,0,0,0,.24.83c.3.57.51.7.77.7s.46,0,2-1.31a.28.28,0,0,1,.09,0,0,0,0,0,1,0,0,.17.17,0,0,1-.07.11c-.93.92-1.53,1.53-2.28,2.39A3.74,3.74,0,0,0,4.6,60.38a1.39,1.39,0,0,0,.79,1.21c.12,0,.33-.43.45-.62a50.13,50.13,0,0,1,6-7.15c.57-.58,1.2-1.09,1.2-1.23C13.05,52.09,12.37,51.67,12.12,51.67Z" fill="#231f20"/><path d="M2.52,17.43c1.49,1,3,1.3,6.91,1.3,4.73,0,6.4-.25,7.79-1.16s2.11-2.41,2.11-5.15c0-.91,0-2.41-.09-4.26H9.75v3.4h3.91a4.79,4.79,0,0,1,0,.58c0,1.94-.88,2.47-4.13,2.47-1.93,0-2.94-.34-3.35-1.08C5.9,13,5.77,11.65,5.77,9.3A12.52,12.52,0,0,1,6,5.7c.48-1.19,1.49-1.58,4.07-1.58s3.22.31,3.44,1.77h5.71c-.1-3.32-.95-4.67-3.28-5.42A18.41,18.41,0,0,0,10.44,0,26.84,26.84,0,0,0,5.27.3,6.05,6.05,0,0,0,.69,3.62C.16,4.87,0,6.53,0,11.26,0,14.36.76,16.18,2.52,17.43Z" fill="#231f20"/><path d="M26.37,13.69h4.19c1.77,0,2.37.64,2.37,2.44v2.46h5.74V15.22c0-2.36-1.2-3.49-3.82-3.6v-.19c3.38-.72,4-1.55,4-5.68,0-2.71-.76-4.12-2.65-5A12.33,12.33,0,0,0,31.35.14H20.72V18.59h5.65Zm0-9.32h4.19c2.08,0,2.49.36,2.49,2.16,0,2.54-.31,3-2.2,3H26.37Z" fill="#231f20"/><path d="M58.88,4.54A5.27,5.27,0,0,0,55.48.72C54.21.19,52.73,0,49.89,0A24.13,24.13,0,0,0,44.5.41C42.26,1,40.68,2.32,40.18,4c-.41,1.27-.57,3-.57,6.52,0,4.24.63,5.79,2.9,7.11,1.45.86,3.09,1.14,6.5,1.14,5.05,0,7.38-.67,8.83-2.49C59,14.88,59.2,13.58,59.2,9.46A22.39,22.39,0,0,0,58.88,4.54ZM53.05,13c-.48,1.13-1.17,1.44-3.47,1.44-3.85,0-4.16-.36-4.16-4.62,0-2.55.06-3.65.28-4.18.44-1.16,1.2-1.44,3.72-1.44s3.09.2,3.56,1c.38.63.45,1.3.45,3.79S53.36,12.31,53.05,13Z" fill="#231f20"/><path d="M73.23,11.92c0,2.16-.5,2.58-3.18,2.58-3.25,0-3.82-.34-3.82-2.33V.14H60.58v12a13,13,0,0,0,.07,1.88,4.11,4.11,0,0,0,2.52,3.82c1.42.66,3.09.86,7.29.86,3.31,0,4.92-.31,6.24-1.19a4.36,4.36,0,0,0,2-3.79c.13-1.58.13-1.72.13-2V.14H73.23Z" fill="#231f20"/><path d="M86.67,13.86H90l.92,0a30.82,30.82,0,0,0,3.65-.16,4.83,4.83,0,0,0,3.22-1.83c.73-1.05,1-2.32,1-4.95s-.41-4-1.51-5.09A6.72,6.72,0,0,0,92.5.14H81V18.59h5.65Zm0-9.65h3.56A4.65,4.65,0,0,1,92,4.37c.82.31,1.07.91,1.07,2.57,0,1.47-.19,2.11-.73,2.41-.34.19-.44.19-2.11.25H86.67Z" fill="#231f20"/><polygon points="15.42 37.75 5.65 37.75 5.65 34.15 14.6 34.15 14.6 30.75 5.65 30.75 5.65 27.43 15.23 27.43 15.23 23.36 0 23.36 0 41.81 15.42 41.81 15.42 37.75" fill="#231f20"/><path d="M23.18,41.81l2.08-3.73c.7-1.25,1.39-2.49,2-3.74h.1c.69,1.3,1.35,2.55,2,3.74l2.08,3.73H38l-6.25-9.49,5.9-9H31.13L29.2,26.74c-.63,1.13-1.23,2.24-1.86,3.4h-.09c-.6-1.16-1.23-2.27-1.83-3.4L23.5,23.36H17l5.9,9-6.31,9.49Z" fill="#231f20"/><path d="M51.1,35.51c0,1.71-.79,2.21-3.51,2.21-3,0-3.69-.64-3.69-3.4,0-3.85.07-4.85.29-5.48.35-1,1.2-1.36,3.22-1.36,2.93,0,3.5.33,3.53,2.13L51,30h5.58c0-.88,0-1.16-.06-1.71-.13-2.08-.79-3.38-2.18-4.15s-2.43-.89-5.77-.89c-1.92,0-3.22,0-3.91.11A7.71,7.71,0,0,0,40.09,25c-1.42,1.19-2,2.77-2,5.7,0,1.74.07,4.46.13,5.29.22,2.73,1.23,4.34,3.34,5.28,1.29.58,2.27.69,6.15.69a24.77,24.77,0,0,0,4.51-.22A6.09,6.09,0,0,0,56,39.43c.51-.8.7-1.74.7-4v-.55H51.06A4.44,4.44,0,0,1,51.1,35.51Z" fill="#231f20"/><polygon points="71.88 30.33 64.56 30.33 64.56 23.36 58.92 23.36 58.92 41.81 64.56 41.81 64.56 34.56 71.88 34.56 71.88 41.81 77.53 41.81 77.53 23.36 71.88 23.36 71.88 30.33" fill="#231f20"/><path d="M85.32,23.36,79,41.81h5.86l1-3.18h7.54l1.1,3.18h5.75L93.86,23.36Zm1.76,11.7,2.59-8,2.65,8Z" fill="#231f20"/><path d="M117.17,30.75c0,2.1,0,2.1.22,6.64h-.22l-1.23-3.13-1.36-3.13-3.34-7.77h-9.49V41.81h5.51V34.43c0-2,0-2-.25-6.81h.25c.86,2.16,1.74,4.29,2.62,6.42l3.31,7.77h9.56V23.36h-5.58Z" fill="#231f20"/><path d="M135.05,31.38v3.41H139a3.6,3.6,0,0,1,0,.58c0,1.93-.89,2.46-4.14,2.46-1.92,0-2.93-.33-3.34-1.08-.31-.58-.44-1.88-.44-4.23a12.52,12.52,0,0,1,.25-3.6c.47-1.19,1.48-1.58,4.07-1.58s3.22.31,3.44,1.78h5.71c-.1-3.32-1-4.68-3.28-5.43a18.45,18.45,0,0,0-5.52-.47,26.77,26.77,0,0,0-5.18.31A6,6,0,0,0,126,26.85c-.54,1.24-.69,2.9-.69,7.63,0,3.1.75,4.93,2.52,6.17,1.48,1,3,1.3,6.91,1.3,4.73,0,6.4-.25,7.79-1.16s2.11-2.41,2.11-5.15c0-.91,0-2.4-.09-4.26Z" fill="#231f20"/><polygon points="152.94 37.75 152.94 34.15 161.89 34.15 161.89 30.75 152.94 30.75 152.94 27.43 162.52 27.43 162.52 23.36 147.29 23.36 147.29 41.81 162.71 41.81 162.71 37.75 152.94 37.75" fill="#231f20"/></svg>