<svg xmlns="http://www.w3.org/2000/svg" xmlns:xlink="http://www.w3.org/1999/xlink" viewBox="0 0 129.66 143.84"><defs><linearGradient id="a" x1="11.2" y1="179.46" x2="103.69" y2="110.89" gradientTransform="translate(16.01 -65.43) scale(0.85)" gradientUnits="userSpaceOnUse"><stop offset="0" stop-color="#e03a3e"/><stop offset="0.06" stop-color="#e03d40"/><stop offset="0.11" stop-color="#e24748"/><stop offset="0.16" stop-color="#e45856"/><stop offset="0.2" stop-color="#e87068"/><stop offset="0.24" stop-color="#ec8e80"/><stop offset="0.26" stop-color="#ee9a89"/><stop offset="0.3" stop-color="#ea7f74"/><stop offset="0.38" stop-color="#e55a57"/><stop offset="0.44" stop-color="#e14245"/><stop offset="0.48" stop-color="#e03a3e"/><stop offset="0.51" stop-color="#e14143"/><stop offset="0.56" stop-color="#e45452"/><stop offset="0.62" stop-color="#e8736b"/><stop offset="0.67" stop-color="#ee9a89"/><stop offset="0.7" stop-color="#ec8b7d"/><stop offset="0.74" stop-color="#e86e66"/><stop offset="0.8" stop-color="#e45755"/><stop offset="0.85" stop-color="#e24748"/><stop offset="0.92" stop-color="#e03d40"/><stop offset="1" stop-color="#e03a3e"/></linearGradient><linearGradient id="b" x1="53.79" y1="146.42" x2="63.9" y2="146.42" gradientTransform="translate(16.01 -65.43) scale(0.85)" gradientUnits="userSpaceOnUse"><stop offset="0" stop-color="#fff"/><stop offset="0.09" stop-color="#f3f3f3"/><stop offset="0.25" stop-color="#d1d1d1"/><stop offset="0.47" stop-color="#9c9c9c"/><stop offset="0.73" stop-color="#515151"/><stop offset="1"/></linearGradient><linearGradient id="c" x1="-3902.84" y1="-3249.72" x2="-3855.88" y2="-3249.72" gradientTransform="translate(1850.64 1519.32) scale(0.46)" xlink:href="#b"/><linearGradient id="d" x1="-3890.61" y1="-3246.67" x2="-3868.11" y2="-3246.67" gradientTransform="translate(1850.64 1519.32) scale(0.46)" xlink:href="#b"/><linearGradient id="e" x1="-3911.49" y1="-3255.05" x2="-3847.22" y2="-3255.05" gradientTransform="translate(1850.64 1519.32) scale(0.46)" xlink:href="#b"/><linearGradient id="f" x1="-3921.99" y1="-3259.35" x2="-3836.72" y2="-3259.35" gradientTransform="translate(1850.64 1519.32) scale(0.46)" xlink:href="#b"/><radialGradient id="g" cx="57.8" cy="88.06" r="34.96" gradientTransform="translate(16.01 -65.43) scale(0.85)" gradientUnits="userSpaceOnUse"><stop offset="0" stop-color="#faddd3"/><stop offset="0.31" stop-color="#f8d2c7"/><stop offset="0.87" stop-color="#f2b4a6"/><stop offset="1" stop-color="#f1ac9d"/></radialGradient><linearGradient id="h" x1="-3889.16" y1="-3266.03" x2="-3869.5" y2="-3266.03" gradientTransform="translate(1850.64 1519.32) scale(0.46)" xlink:href="#b"/><linearGradient id="i" x1="-3922.02" y1="-3263.64" x2="-3836.7" y2="-3263.64" gradientTransform="translate(1850.64 1519.32) scale(0.46)" xlink:href="#b"/><linearGradient id="j" x1="-3889.18" y1="-3244.01" x2="-3869.53" y2="-3244.01" gradientTransform="translate(1850.64 1519.32) scale(0.46)" xlink:href="#b"/><radialGradient id="k" cx="-3879.37" cy="-3106.19" r="5.51" gradientTransform="translate(1850.64 1519.32) scale(0.46)" gradientUnits="userSpaceOnUse"><stop offset="0" stop-color="#fff"/><stop offset="0.15" stop-color="#fcfcfc"/><stop offset="0.28" stop-color="#f1f1f1"/><stop offset="0.4" stop-color="#e0e0e0"/><stop offset="0.52" stop-color="#c7c7c7"/><stop offset="0.63" stop-color="#a7a7a7"/><stop offset="0.74" stop-color="#818181"/><stop offset="0.85" stop-color="#525252"/><stop offset="0.95" stop-color="#1e1e1e"/><stop offset="1"/></radialGradient></defs><title>amfirst-holdings</title><path d="M105.69,31.63H43.56L31.69,75.68a12.2,12.2,0,0,1-.94,2.67,2.89,2.89,0,0,1-1.09,1.08,4.53,4.53,0,0,1-2.08.36V87.6H44.84V79.79a11.26,11.26,0,0,1-2.57-.16,1.8,1.8,0,0,1-1-.76,2.16,2.16,0,0,1-.32-1.15,13.25,13.25,0,0,1,.44-2.36l3.16-11.63h7.6V75.38c0,.8.12,2.63-.94,3.51a2.12,2.12,0,0,1-1.37.78l-1.94.12V87.6H87.29V79.79H85.71a4.32,4.32,0,0,1-2.14-.36c-.37-.23-.44-.72-.8-1.09s-.25-1.44-.25-2.84V63.84h2.11a5.86,5.86,0,0,1,3.11.69A7.37,7.37,0,0,1,89,65.91h4.51V53.54h-5A3.09,3.09,0,0,1,87.78,55a7.17,7.17,0,0,1-3.1.6H82.52V40.83H92.61a20.87,20.87,0,0,1,4.2.28,5.23,5.23,0,0,1,3.93,3.66h4.94ZM52.06,40.79V55.58H46.63l3.93-14.79Z" fill="#231f20"/><path d="M104.12,30.05H42L30.13,74.1a12.22,12.22,0,0,1-.95,2.68,2.8,2.8,0,0,1-1.08,1.08,4.56,4.56,0,0,1-2.08.36V86H43.28V78.22a11.31,11.31,0,0,1-2.58-.16,1.83,1.83,0,0,1-1-.76,2.17,2.17,0,0,1-.31-1.16,12.3,12.3,0,0,1,.44-2.35L43,62.15h7.59V73.8c0,.8.18,2.64-.88,3.52a2.35,2.35,0,0,1-1.43.82l-2,.08V86H85.73V78.22H84.14A4.35,4.35,0,0,1,82,77.86c-.37-.24-.43-.73-.8-1.09S81,75.33,81,73.92V62.27h2.11a5.85,5.85,0,0,1,3.11.68,7.28,7.28,0,0,1,1.29,1.39H92V52H87a3.1,3.1,0,0,1-.76,1.47,7.14,7.14,0,0,1-3.1.6H81V39.26h10.1a20.82,20.82,0,0,1,4.19.28,5.21,5.21,0,0,1,3.93,3.66h5ZM50.5,39.22V54H45.06L49,39.22Z" stroke="#231f20" stroke-width="0.59" fill="url(#a)"/><polygon points="27.38 4.53 30.85 7.08 34.34 4.56 32.99 8.65 36.46 11.19 32.16 11.17 30.81 15.26 29.5 11.16 25.2 11.14 28.69 8.63 27.38 4.53" fill="#004785"/><polygon points="67.73 89.56 69.83 27.48 61.8 27.48 63.9 89.56 67.73 89.56" stroke="#231f20" stroke-width="0.51" fill="url(#b)"/><path d="M65.79,25.28c8.77,0,10.73-1.46,10.73-1.46V23H55.1v.85S57,25.28,65.79,25.28Z" stroke="#231f20" stroke-width="0.51" fill="url(#c)"/><rect x="60.73" y="25.04" width="10.17" height="0.97" stroke="#231f20" stroke-width="0.51" fill="url(#d)"/><rect x="51.12" y="20.38" width="29.38" height="2.59" stroke="#231f20" stroke-width="0.51" fill="url(#e)"/><rect x="46.29" y="19.01" width="39.04" height="1.36" stroke="#231f20" stroke-width="0.51" fill="url(#f)"/><path d="M61.4,14.22h8.85c3.13-1.7,6-8.38-.64-12.7-4.62-3-16.18.56-26.71-1a11.34,11.34,0,0,0,4.89,2.26c-5.36,1.16-16,2.16-29.64.19,1.13-.07,9.16,4.9,18.94,5.23C53.56,8.73,58.51,14.5,61.4,14.22Z" stroke="#231f20" stroke-width="0.51" fill="url(#g)"/><path d="M62.74,14.22H69c3.19-2.83,6.47-11.39-6.23-13.08,0,0,11,3,4.61,9.88,0,0,2.27-4.94-2.91-6.31,2.74,3.48.77,5.67-.12,6.27C62.68,12.07,55.92,8.8,51,8.83,55.88,10,62.74,14.22,62.74,14.22Z" fill="#fcebe5"/><rect x="61.4" y="14.22" width="8.86" height="4.8" stroke="#231f20" stroke-width="0.51" fill="url(#h)"/><path d="M85.33,16.47V19h-39V16.43c1.07,0,.61,1.88,1.67,1.88s0-1.88,1-1.88,1.22,1.88,2.3,1.88.4-1.88,1.48-1.88,1.33,1.88,2.39,1.88.82-1.88,1.91-1.88,1.08,1.88,2.17,1.88,1.07-1.88,2.13-1.88,1.09,1.88,2.17,1.88,1.07-1.88,2.14-1.88,1.07,1.88,2.13,1.88,1.07-1.88,2.14-1.88,1.09,1.88,2.18,1.88,1.07-1.88,2.14-1.88,1.08,1.88,2.15,1.88,1-1.88,2-1.88.4,1.88,1.47,1.88,1.2-1.88,2.28-1.88,0,1.88,1.11,1.88.94-1.88,2-1.88Z" stroke="#231f20" stroke-width="0.51" fill="url(#i)"/><line x1="65.84" y1="27.49" x2="65.84" y2="87.79" fill="none" stroke="#6d6e71" stroke-width="0.51"/><line x1="67.45" y1="27.48" x2="66.6" y2="87.78" fill="none" stroke="#58595b" stroke-width="0.51"/><line x1="68.86" y1="27.48" x2="67.17" y2="87.97" fill="none" stroke="#231f20" stroke-width="0.4"/><line x1="64.2" y1="27.48" x2="65.1" y2="87.78" fill="none" stroke="#939598" stroke-width="0.51"/><line x1="62.83" y1="27.57" x2="64.52" y2="87.97" fill="none" stroke="#a7a9ac" stroke-width="0.51"/><rect x="61.38" y="26.02" width="8.86" height="1.46" stroke="#231f20" stroke-width="0.51" fill="url(#j)"/><rect x="63.36" y="87.79" width="4.88" height="4.88" rx="2.03" ry="2.03" stroke="#231f20" stroke-width="0.51" fill="url(#k)"/><polygon points="10.84 86.75 14.85 88.3 17.56 84.96 17.33 89.26 21.34 90.8 17.18 91.91 16.95 96.21 14.61 92.59 10.46 93.7 13.17 90.36 10.84 86.75" fill="#004785"/><polygon points="4.82 69.35 8.19 72.02 11.78 69.64 10.28 73.67 13.65 76.34 9.35 76.16 7.86 80.19 6.7 76.05 2.4 75.87 5.98 73.49 4.82 69.35" fill="#004785"/><polygon points="4.35 49.54 6.71 53.14 10.86 52 8.17 55.36 10.53 58.96 6.51 57.44 3.82 60.79 4.02 56.49 0 54.98 4.15 53.84 4.35 49.54" fill="#004785"/><polygon points="119.69 30.97 121.21 35 125.51 34.8 122.15 37.48 123.67 41.51 120.07 39.15 116.72 41.83 117.85 37.69 114.26 35.33 118.56 35.12 119.69 30.97" fill="#004785"/><polygon points="4.16 34.81 8.45 35 9.97 30.98 11.11 35.12 15.4 35.32 11.81 37.69 12.96 41.83 9.6 39.15 6.01 41.52 7.52 37.49 4.16 34.81" fill="#004785"/><polygon points="13.81 17.56 17.85 19.04 20.5 15.65 20.35 19.95 24.39 21.43 20.25 22.61 20.1 26.91 17.7 23.34 13.56 24.52 16.21 21.13 13.81 17.56" fill="#004785"/><polygon points="112.1 84.97 114.81 88.31 118.83 86.75 116.49 90.37 119.2 93.7 115.05 92.6 112.71 96.21 112.48 91.92 108.32 90.81 112.33 89.26 112.1 84.97" fill="#004785"/><polygon points="117.88 69.64 121.46 72.03 124.83 69.36 123.67 73.5 127.25 75.89 122.95 76.06 121.79 80.2 120.3 76.17 116 76.34 119.37 73.68 117.88 69.64" fill="#004785"/><polygon points="125.32 49.58 125.51 53.87 129.66 55.02 125.63 56.53 125.82 60.83 123.14 57.46 119.11 58.97 121.48 55.38 118.8 52.02 122.95 53.16 125.32 49.58" fill="#004785"/><polygon points="109.13 15.64 111.79 19.02 115.83 17.55 113.43 21.12 116.08 24.5 111.94 23.32 109.55 26.89 109.39 22.59 105.25 21.42 109.29 19.94 109.13 15.64" fill="#004785"/><polygon points="95.33 4.58 98.83 7.08 102.29 4.53 100.99 8.63 104.49 11.13 100.19 11.16 98.89 15.26 97.53 11.18 93.23 11.22 96.69 8.66 95.33 4.58" fill="#004785"/><path d="M21.4,114.76c-.69-.06-1.84,0-1.84-1a2.28,2.28,0,0,1,.2-.84l1.9-3.38h6.15l.44,3.5c0,.69-.09,1.15-.78,1.47a3.79,3.79,0,0,1-1.48.26v.72h8.7v-.72a3.77,3.77,0,0,1-1.42-.21,2.16,2.16,0,0,1-.49-.46,4.14,4.14,0,0,1-.38-1L29.55,96h-.73L18.37,112.48c-.66,1-1.24,2-2.54,2.28v.72H21.4Zm5.17-13.31,1,7H22.33Z" fill="#231f20"/><path d="M51.89,104.39c.93,0,.75.72.55,1.36l-2.31,7.13a2.12,2.12,0,0,0,1.94,3c2.13,0,3.63-2,4.53-3.75l-.64-.37c-1.38,2.42-2.62,2.39-2.42,1.73l2.25-7.34c1.1-3.6-1-3.86-2.14-3.86-2.25,0-4.27,3-5.25,4.67l-.06-.05c1.1-3.07.52-4.62-1.21-4.62-2.74,0-4.82,3.34-6,5.37l-.05-.06,1.61-5.31a56.21,56.21,0,0,1-5.71.77v.78c.6,0,1.73,0,1.53.7l-2.89,11H39a41.6,41.6,0,0,1,1.68-5.4c1.36-3.15,2.6-4.76,3.84-5.51.81-.5,1.18-.12.84,1.32l-2.95,9.59h3.44a45.44,45.44,0,0,1,2.48-7.07C48.89,107.39,50.62,104.39,51.89,104.39Z" fill="#231f20"/><path d="M65.43,114.76A3.43,3.43,0,0,1,64,114.5a1,1,0,0,1-.61-1.21l2-7.45c1.07,0,3.12,0,3.63,1.15a5.38,5.38,0,0,1,.18,2.66l.78.14L72.1,102l-.8-.12c-1.28,3-2.72,3-5.66,3l1.64-6a2.8,2.8,0,0,1,.55-1.27c.29-.35,1-.35,1.44-.35,3.73,0,5.06,1.59,5,4.39l.78.14,1.21-5.42H61v.72c1.07.2,2.08-.12,2.08,1.3l-3.7,14a3.41,3.41,0,0,1-1,2,3.22,3.22,0,0,1-1.36.41v.72h8.43Z" fill="#231f20"/><path d="M82,111.9l-.64-.41a10.29,10.29,0,0,1-1.64,2.11c-.58.26-.75.21-1,0a2,2,0,0,1,0-.92l2.77-10.45c-2.28.29-4.36.57-5.74.77v.78c1.41,0,1.93.18,1.53,1.65l-2,7.31c-.64,2.31.8,3.08,1.79,3.08C79.61,115.85,80.82,113.72,82,111.9Z" fill="#231f20"/><path d="M80.82,99.86a2,2,0,0,0,1.91-2A2,2,0,0,0,80.82,96a2,2,0,0,0,0,3.9Z" fill="#231f20"/><path d="M92.89,102.26c-1.9,0-3.75,3.63-4.44,5.13l-.15,0,1.59-5.08c-2.08.34-3.93.52-5.72.77v.78c.7,0,1,0,1.3.18s.35.81,0,1.9l-2.68,9.59h3.46c1.24-3.52,1.91-7.45,4.5-10.28a.54.54,0,0,1,.55,0c.61.72.87,1,1.51,1,1.21,0,1.7-1.18,1.7-2.22A1.63,1.63,0,0,0,92.89,102.26Z" fill="#231f20"/><path d="M95.75,115.28a12.49,12.49,0,0,0,2.8.57c3.55,0,4.22-2.62,4.22-3.89a5.85,5.85,0,0,0-1.42-3.29l-2.19-3a1.53,1.53,0,0,1,1.18-2.57c1.65,0,2.43,2,2.54,3.44l.75,0,.67-4.38h-.84c-.26.75-.87.69-1.33.54a12.87,12.87,0,0,0-1.59-.54,5.44,5.44,0,0,0-1.67.08,3.37,3.37,0,0,0-2.71,3.5,6.61,6.61,0,0,0,2,4.24c.63.78,1.9,2.22,1.9,3.32a1.58,1.58,0,0,1-1.7,1.59c-1.67,0-2.66-2.4-2.68-3.81l-.76-.09-.63,4.76H95A.85.85,0,0,1,95.75,115.28Z" fill="#231f20"/><path d="M112.87,98.39h-1a10.49,10.49,0,0,1-5.22,4.36v1h1.47L106,111.35c-1.47,4.13.37,4.53,1.24,4.53,2.45,0,3.84-2.1,4.94-3.92l-.61-.41a6.67,6.67,0,0,1-2.16,2.31c-.5.2-.55-.49-.38-1.12l2.4-9h2.37v-1.18h-2.06Z" fill="#231f20"/><path d="M20.84,124.5H15.38v.35a3.17,3.17,0,0,1,1,.17.78.78,0,0,1,.53.75,3.82,3.82,0,0,1,0,.43,5.81,5.81,0,0,1-.14.67l-1.08,3.92H8.84L10,126.48a2,2,0,0,1,.94-1.33,3.27,3.27,0,0,1,1.28-.3v-.35h-6v.35a3.18,3.18,0,0,1,1.34.24.78.78,0,0,1,.37.75,2.06,2.06,0,0,1,0,.48l-.21.83L5,136.93a2.54,2.54,0,0,1-.75,1.35,2.21,2.21,0,0,1-1.07.28v.36H8.63v-.36a3.48,3.48,0,0,1-1.23-.23.81.81,0,0,1-.34-.78,1.5,1.5,0,0,1,0-.22,2.23,2.23,0,0,1,0-.23l.2-.84,1.26-4.55h6.84L14,136.93a2.16,2.16,0,0,1-1,1.35,3.38,3.38,0,0,1-1.28.28v.36h6v-.36a3.68,3.68,0,0,1-1.34-.21c-.25-.12-.37-.39-.37-.8a1.55,1.55,0,0,1,0-.22,2.23,2.23,0,0,1,0-.23l.2-.84,2.7-9.78a2.57,2.57,0,0,1,.61-1.26,2.68,2.68,0,0,1,1.2-.37Z" fill="#231f20"/><path d="M26.34,129.13a6,6,0,0,0-4.43,2.21,6.6,6.6,0,0,0-2,4.52,3,3,0,0,0,3.28,3.29,6,6,0,0,0,4.45-2.29,6.66,6.66,0,0,0,2-4.48,3.64,3.64,0,0,0-.75-2.29A3,3,0,0,0,26.34,129.13Zm.31,6.88c-.91,1.77-1.95,2.66-3.12,2.66a1.55,1.55,0,0,1-1.31-.59,2.37,2.37,0,0,1-.45-1.48,8.91,8.91,0,0,1,1.36-4.55c1-1.65,2-2.47,3.1-2.47a1.39,1.39,0,0,1,1.38.94,3.67,3.67,0,0,1,.19,1.31A9.34,9.34,0,0,1,26.65,136Z" fill="#231f20"/><path d="M33.13,136.93l3.59-13c0-.07-.1-.11-.15-.11-.58.15-1.07.25-1.47.33l-.83.11-1.13.15v.36a5.29,5.29,0,0,1,1.18.07.41.41,0,0,1,.29.45,2.11,2.11,0,0,1,0,.23c0,.09,0,.18-.05.28l-3,10.79c-.06.23-.11.44-.15.62a3.89,3.89,0,0,0-.08.73,1.09,1.09,0,0,0,.46,1,1.23,1.23,0,0,0,.69.19,2.62,2.62,0,0,0,1.81-.89,15.45,15.45,0,0,0,1.45-1.9l-.29-.21a11.67,11.67,0,0,1-1.06,1.34c-.42.46-.76.69-1,.69a.29.29,0,0,1-.28-.14.78.78,0,0,1-.08-.35,1.36,1.36,0,0,1,0-.2C33,137.43,33.05,137.24,33.13,136.93Z" fill="#231f20"/><path d="M44.75,124.39v.36l.42,0h.34a.83.83,0,0,1,.45.11c.1.07.15.25.15.53a2.26,2.26,0,0,1,0,.25c0,.1,0,.21-.07.33l-1.27,4.43a1.82,1.82,0,0,0-.33-.81,1.51,1.51,0,0,0-1.21-.41q-2.05,0-4.22,2.47a7.48,7.48,0,0,0-2.17,4.83,2.7,2.7,0,0,0,.71,2,2.27,2.27,0,0,0,1.64.67,3.25,3.25,0,0,0,2.13-.8,9.06,9.06,0,0,0,1.8-2,10.5,10.5,0,0,0-.2,1.08,7.08,7.08,0,0,0-.06.73,1,1,0,0,0,.44.93,1.18,1.18,0,0,0,.53.12,3.07,3.07,0,0,0,2-1.09,7.3,7.3,0,0,0,1-1.21l.16-.23-.25-.24c-.4.47-.71.82-.93,1-.39.37-.68.56-.9.56a.51.51,0,0,1-.25-.09c-.1-.06-.15-.18-.15-.38a1.39,1.39,0,0,1,0-.27c0-.09,0-.2.07-.32l1.45-5.13,2.13-7.75,0-.12-.09-.11C46.7,124.1,45.57,124.28,44.75,124.39Zm-1.7,11.17c-.95,1.66-1.94,2.48-3,2.48a1.09,1.09,0,0,1-1-.49,2.08,2.08,0,0,1-.31-1.15,8.51,8.51,0,0,1,1.38-4.11c1-1.77,2.1-2.65,3.2-2.65a.89.89,0,0,1,.88.43,2.45,2.45,0,0,1,.21,1.08A8.67,8.67,0,0,1,43.05,135.56Z" fill="#231f20"/><path d="M51.6,137.44c-.41.42-.73.63-1,.63s-.23,0-.27-.13a.58.58,0,0,1-.06-.28,5.18,5.18,0,0,1,.15-.73l2.18-7.7s0-.07,0-.1a1.46,1.46,0,0,0-.52.07c-.3.08-.63.14-1,.2l-.79.12-1.28.17v.36a4.54,4.54,0,0,1,1.13.09c.19.06.28.22.28.48a.75.75,0,0,1,0,.21c0,.07,0,.15,0,.24l-1.54,5.55c-.08.3-.13.53-.16.68a3,3,0,0,0,0,.55,1.42,1.42,0,0,0,.3.91,1,1,0,0,0,.78.39,2.43,2.43,0,0,0,1.61-.77,11.37,11.37,0,0,0,1.34-1.63l.11-.15-.28-.24Q51.94,137.07,51.6,137.44Z" fill="#231f20"/><path d="M52.31,124.41a1,1,0,0,0-.76.35,1.28,1.28,0,0,0,0,1.67,1,1,0,0,0,.76.35,1,1,0,0,0,.76-.34,1.26,1.26,0,0,0,0-1.68A1,1,0,0,0,52.31,124.41Z" fill="#231f20"/><path d="M62.74,137.74a1,1,0,0,1-.62.33.25.25,0,0,1-.24-.13.55.55,0,0,1-.08-.29,2.4,2.4,0,0,1,.05-.33l.1-.39,1.42-5.17a5.64,5.64,0,0,0,.14-.6,2.62,2.62,0,0,0,.06-.54,1.33,1.33,0,0,0-.67-1.29,1.74,1.74,0,0,0-.82-.18c-.83,0-1.76.58-2.8,1.74a23.78,23.78,0,0,0-2.22,3l1.43-4.64a.17.17,0,0,0-.09-.1l-1.91.42-.64.13-1,.16v.36l.27,0,.25,0a1,1,0,0,1,.7.18.68.68,0,0,1,.18.5,1.58,1.58,0,0,1,0,.38c0,.12-.12.46-.27,1l-1.85,6.67h1.66c.47-1.57.81-2.65,1-3.24a10.84,10.84,0,0,1,.88-1.83,19.47,19.47,0,0,1,1.49-2.08q1.25-1.47,2.07-1.47a.51.51,0,0,1,.44.19.84.84,0,0,1,.12.45,2.51,2.51,0,0,1,0,.39,5.81,5.81,0,0,1-.14.71l-1.38,5.25a2.7,2.7,0,0,0-.07.35,2.77,2.77,0,0,0,0,.39,1,1,0,0,0,.34.88,1.16,1.16,0,0,0,.69.24,2.43,2.43,0,0,0,1.66-.85,12.81,12.81,0,0,0,1.38-1.68l-.31-.28A12.08,12.08,0,0,1,62.74,137.74Z" fill="#231f20"/><path d="M72.93,129.46a3.94,3.94,0,0,0-1.66-.31,4.71,4.71,0,0,0-3.15,1.08,3.4,3.4,0,0,0-1.28,2.71,2.29,2.29,0,0,0,.61,1.65,3.46,3.46,0,0,0,1.18.73,11.11,11.11,0,0,0-1.12.85,1.55,1.55,0,0,0-.61,1,.69.69,0,0,0,.17.5,1.81,1.81,0,0,0,.44.36,7,7,0,0,0-2,1.45,2.37,2.37,0,0,0-.62,1.54,2.12,2.12,0,0,0,1,1.74,4.42,4.42,0,0,0,2.64.71,5.5,5.5,0,0,0,3.58-1,2.87,2.87,0,0,0,1.19-2.27c0-1.15-.79-2-2.37-2.62s-2.37-1-2.37-1.25a.89.89,0,0,1,.29-.56c.19-.21.33-.32.44-.32l.35.06.3,0a4.8,4.8,0,0,0,2.92-1,3.25,3.25,0,0,0,1.35-2.75,3.82,3.82,0,0,0,0-.55,2.89,2.89,0,0,0-.1-.43h1.1V130H73.73A1.91,1.91,0,0,0,72.93,129.46Zm-3.7,9.26c.7.27,1.2.47,1.5.62a3.19,3.19,0,0,1,.76.5,1.48,1.48,0,0,1,.45,1.09,1.8,1.8,0,0,1-.85,1.47A3.56,3.56,0,0,1,69,143a4.13,4.13,0,0,1-1.6-.28,2,2,0,0,1-1.24-2,2.27,2.27,0,0,1,.81-1.7c.54-.5.9-.75,1.09-.75A7,7,0,0,1,69.23,138.72Zm2.53-4.84A2.12,2.12,0,0,1,70,135.12a1.27,1.27,0,0,1-1.24-.66,2.31,2.31,0,0,1-.21-1.07,5,5,0,0,1,.74-2.47,2.19,2.19,0,0,1,2-1.28,1.12,1.12,0,0,1,.94.4,1.84,1.84,0,0,1,.31,1.12A5.05,5.05,0,0,1,71.76,133.88Z" fill="#231f20"/><path d="M83.33,129.44a.62.62,0,0,1-.4.11,4.42,4.42,0,0,1-.93-.2,4.41,4.41,0,0,0-1.2-.2,2.5,2.5,0,0,0-1.92.72,2.34,2.34,0,0,0-.67,1.65,2.67,2.67,0,0,0,.31,1.23,17.66,17.66,0,0,0,1,1.62l.9,1.33a3.19,3.19,0,0,1,.29.55,2.39,2.39,0,0,1,.11.78,1.69,1.69,0,0,1-.45,1.23,1.48,1.48,0,0,1-1.11.46,1.91,1.91,0,0,1-1.77-1.11,7.16,7.16,0,0,1-.56-1.91h-.35l-.43,3.53h.35a.86.86,0,0,1,.19-.29.44.44,0,0,1,.32-.1,8.36,8.36,0,0,1,1,.18,5.89,5.89,0,0,0,1.26.19,3.64,3.64,0,0,0,2.36-.8,2.42,2.42,0,0,0,1-2,2.84,2.84,0,0,0-.25-1.16,10.85,10.85,0,0,0-.84-1.39l-.77-1.1A13.19,13.19,0,0,1,80,131.6a1.73,1.73,0,0,1-.17-.78,1.05,1.05,0,0,1,.38-.87,1.34,1.34,0,0,1,.84-.29,1.71,1.71,0,0,1,1.64,1,4.72,4.72,0,0,1,.42,1.57h.36l.44-3.06h-.31A1,1,0,0,1,83.33,129.44Z" fill="#231f20"/><path d="M87.51,136.69a1,1,0,0,0-.84.32.89.89,0,0,0-.28.56,1.66,1.66,0,0,0,.09.62,2.75,2.75,0,0,0,.5.61l.2.2a.73.73,0,0,1,.16.23.76.76,0,0,1,0,.27,1.7,1.7,0,0,1-.64,1.12,10.64,10.64,0,0,1-1,.81l.2.36.34-.19A6.77,6.77,0,0,0,88,140.24a2.86,2.86,0,0,0,.83-2,1.74,1.74,0,0,0-.35-1.12A1.14,1.14,0,0,0,87.51,136.69Z" fill="#231f20"/><path d="M103.93,124.5H98.46v.35a3.13,3.13,0,0,1,1.22.26.76.76,0,0,1,.34.73,2.06,2.06,0,0,1,0,.48c0,.16-.1.44-.2.83l-2.71,9.78a2.48,2.48,0,0,1-.75,1.35,2.2,2.2,0,0,1-1.06.28v.36h5.42v-.36a2.81,2.81,0,0,1-1.13-.22.71.71,0,0,1-.38-.72,4.67,4.67,0,0,1,0-.51c0-.22.11-.5.21-.85l2.7-9.78a2.53,2.53,0,0,1,.61-1.25,2.66,2.66,0,0,1,1.2-.38Z" fill="#231f20"/><path d="M111.85,137.74a1,1,0,0,1-.62.33.25.25,0,0,1-.24-.13.55.55,0,0,1-.08-.29,2.4,2.4,0,0,1,0-.33l.1-.39,1.42-5.17a5.64,5.64,0,0,0,.14-.6,2.62,2.62,0,0,0,.06-.54,1.33,1.33,0,0,0-.67-1.29,1.74,1.74,0,0,0-.82-.18c-.83,0-1.76.58-2.8,1.74a23.78,23.78,0,0,0-2.22,3l1.43-4.64a.21.21,0,0,0-.09-.1l-1.92.42-.63.13-1,.16v.36l.27,0,.26,0a1,1,0,0,1,.69.18.68.68,0,0,1,.18.5,1.58,1.58,0,0,1,0,.38c0,.12-.12.46-.27,1l-1.85,6.67h1.66c.47-1.57.81-2.65,1-3.24a10.84,10.84,0,0,1,.88-1.83,19.47,19.47,0,0,1,1.49-2.08q1.24-1.47,2.07-1.47a.51.51,0,0,1,.44.19.84.84,0,0,1,.12.45,2.51,2.51,0,0,1,0,.39,5.81,5.81,0,0,1-.14.71l-1.38,5.25a2.7,2.7,0,0,0-.07.35,2.77,2.77,0,0,0,0,.39,1,1,0,0,0,.34.88,1.16,1.16,0,0,0,.69.24,2.43,2.43,0,0,0,1.66-.85,12.81,12.81,0,0,0,1.38-1.68l-.31-.28A13.26,13.26,0,0,1,111.85,137.74Z" fill="#231f20"/><path d="M120.77,129.17a5.87,5.87,0,0,0-4.28,2.05,6.38,6.38,0,0,0-2,4.51,3.43,3.43,0,0,0,.89,2.52,3.1,3.1,0,0,0,2.34.92,4.59,4.59,0,0,0,2.76-.89,8.18,8.18,0,0,0,1.45-1.48l-.31-.24-.08.09a6.31,6.31,0,0,1-1.44,1.22,3,3,0,0,1-1.61.48,1.81,1.81,0,0,1-1.55-.69,3.1,3.1,0,0,1-.52-1.91,7.47,7.47,0,0,1,1.28-4.15,3.61,3.61,0,0,1,3-2,1.4,1.4,0,0,1,.71.14.38.38,0,0,1,.22.33,1.33,1.33,0,0,1-.18.42,1.27,1.27,0,0,0-.18.6.81.81,0,0,0,.27.62,1,1,0,0,0,.67.25,1.07,1.07,0,0,0,.72-.28,1,1,0,0,0,.3-.79,1.74,1.74,0,0,0-.58-1.15A2.62,2.62,0,0,0,120.77,129.17Z" fill="#231f20"/><path d="M126.14,137.07a1.19,1.19,0,0,0-.87-.36,1.2,1.2,0,0,0-.87.36,1.23,1.23,0,0,0,1.75,1.74,1.22,1.22,0,0,0,.35-.87A1.19,1.19,0,0,0,126.14,137.07Z" fill="#231f20"/></svg>