<svg xmlns="http://www.w3.org/2000/svg" viewBox="0 0 403.69 91.32"><title>mestmaker-reverse</title><path d="M108.2,35.06h7L120,49.33h.06L125,35.06h7V56.93H127.3V40.16h-.06l-5.51,16.77H118.2l-5.31-16.77h-.06V56.93H108.2Z" fill="#fff"/><path d="M136.38,35.06h14.26v4.45H141v4.08h9.11V48H141v4.45h10.17v4.45H136.38Z" fill="#fff"/><path d="M165.26,40.4a3.26,3.26,0,0,0-1.53-1.09,5.2,5.2,0,0,0-1.82-.36,4.23,4.23,0,0,0-1,.13,4.11,4.11,0,0,0-1,.38,2.35,2.35,0,0,0-.77.7,1.8,1.8,0,0,0-.29,1.05,1.74,1.74,0,0,0,.71,1.51,6.64,6.64,0,0,0,1.79.9c.72.24,1.5.49,2.33.74a9.79,9.79,0,0,1,2.33,1,5.56,5.56,0,0,1,1.79,1.82,5.68,5.68,0,0,1,.71,3.06,7.2,7.2,0,0,1-.65,3.18,6.37,6.37,0,0,1-1.76,2.26,7.62,7.62,0,0,1-2.58,1.33,11.27,11.27,0,0,1-3.1.43,10.91,10.91,0,0,1-3.8-.65,9.36,9.36,0,0,1-3.26-2.1L156.6,51a4.84,4.84,0,0,0,1.8,1.53,4.92,4.92,0,0,0,2.23.54,5.09,5.09,0,0,0,1.15-.14,3.38,3.38,0,0,0,1-.42,2.22,2.22,0,0,0,.75-.71,2,2,0,0,0-.45-2.58,6.62,6.62,0,0,0-1.82-1c-.73-.27-1.53-.54-2.38-.8a10.63,10.63,0,0,1-2.37-1.08,5.79,5.79,0,0,1-1.82-1.8,5.23,5.23,0,0,1-.73-2.93,6.76,6.76,0,0,1,.67-3.09,6.57,6.57,0,0,1,1.78-2.22A7.56,7.56,0,0,1,159,35a10.1,10.1,0,0,1,3-.45,11.39,11.39,0,0,1,3.44.53,7.86,7.86,0,0,1,3,1.76Z" fill="#fff"/><path d="M176,39.32h-6V35.06h16.6v4.26h-6V56.93H176Z" fill="#fff"/><path d="M188.92,35.06h7l4.84,14.27h.06l4.86-14.27h7V56.93H208V40.16H208l-5.51,16.77h-3.53l-5.31-16.77h-.06V56.93h-4.63Z" fill="#fff"/><path d="M223.83,35.06h3.82l9.14,21.87h-5.22l-1.81-4.63h-8.15l-1.75,4.63h-5.1Zm1.78,6.36-2.55,6.8h5.13Z" fill="#fff"/><path d="M239.07,35.06h4.63v9.08l8.15-9.08h6l-9.34,10.16L258.7,56.93h-6.46L243.7,46.55V56.93h-4.63Z" fill="#fff"/><path d="M260.48,35.06h14.27v4.45h-9.64v4.08h9.1V48h-9.1v4.45h10.17v4.45h-14.8Z" fill="#fff"/><path d="M279,35.06h8.12a14.17,14.17,0,0,1,3,.32,7,7,0,0,1,2.52,1.09,5.18,5.18,0,0,1,1.72,2,7.13,7.13,0,0,1,.64,3.2,6.54,6.54,0,0,1-1.16,3.94,5.12,5.12,0,0,1-3.38,2l5.34,9.24h-5.54l-4.39-8.74h-2.29v8.74H279Zm4.62,9h2.73c.42,0,.86,0,1.32,0a4,4,0,0,0,1.26-.27,2.25,2.25,0,0,0,.94-.73,2.32,2.32,0,0,0,.37-1.39,2.36,2.36,0,0,0-.33-1.33,2.13,2.13,0,0,0-.83-.75,3.43,3.43,0,0,0-1.16-.36,9.26,9.26,0,0,0-1.27-.09h-3Z" fill="#fff"/><path d="M316,53.17l3.5,3.76h-2.25L315,54.54A8.76,8.76,0,0,1,313,56.6a4.67,4.67,0,0,1-2.69.74A5.5,5.5,0,0,1,308.4,57a4.4,4.4,0,0,1-1.56-.9,4.35,4.35,0,0,1-1.07-1.46,4.55,4.55,0,0,1-.4-2,4.46,4.46,0,0,1,.29-1.63,4.6,4.6,0,0,1,.78-1.32,6.21,6.21,0,0,1,1.13-1,9.28,9.28,0,0,1,1.35-.81,11.18,11.18,0,0,1-1.27-1.73,4.05,4.05,0,0,1-.56-2.08,4.19,4.19,0,0,1,.3-1.63,3.37,3.37,0,0,1,.82-1.2,3.65,3.65,0,0,1,1.24-.75,4.74,4.74,0,0,1,1.54-.25,4.33,4.33,0,0,1,1.45.24,3.58,3.58,0,0,1,1.2.7,3.27,3.27,0,0,1,.82,1.14,3.82,3.82,0,0,1,.3,1.57,3.27,3.27,0,0,1-.31,1.43,4.6,4.6,0,0,1-.81,1.15,6.17,6.17,0,0,1-1.11.92c-.41.27-.81.51-1.21.72L314.91,52l2.14-3.86h1.78ZM309.91,49a13,13,0,0,0-1.31.86,4.11,4.11,0,0,0-.87.84,3.36,3.36,0,0,0-.49,1,3.89,3.89,0,0,0-.15,1.12,3.05,3.05,0,0,0,.26,1.26,2.94,2.94,0,0,0,.71,1,3.19,3.19,0,0,0,1,.63,3.29,3.29,0,0,0,1.21.23,3.53,3.53,0,0,0,1.16-.18,4.09,4.09,0,0,0,1-.51,5.45,5.45,0,0,0,.85-.76c.26-.29.52-.6.77-.94Zm3.26-5a2,2,0,0,0-.63-1.55,2.16,2.16,0,0,0-1.53-.58A2.34,2.34,0,0,0,308.86,45a5.56,5.56,0,0,0,.44.84,8.39,8.39,0,0,0,.53.72,3.94,3.94,0,0,0,.48.5c.29-.19.6-.37.94-.57a5.61,5.61,0,0,0,.94-.65,3,3,0,0,0,.7-.85A2.12,2.12,0,0,0,313.17,43.92Z" fill="#fff"/><path d="M327.8,56.93H326l6.78-16.25h1.54l6.79,16.25h-1.85l-1.72-4.27h-8Zm2.31-5.78h6.76l-3.37-8.54Z" fill="#fff"/><path d="M350.55,43.37a3.36,3.36,0,0,0-3-1.58,4.18,4.18,0,0,0-1.22.17,3.11,3.11,0,0,0-1.06.53,2.51,2.51,0,0,0-.76.91,2.92,2.92,0,0,0-.29,1.32,2.35,2.35,0,0,0,.59,1.71,4.65,4.65,0,0,0,1.48,1,16.62,16.62,0,0,0,1.93.7,8.78,8.78,0,0,1,1.93.83,4.76,4.76,0,0,1,1.47,1.36,4,4,0,0,1,.6,2.32,4.16,4.16,0,0,1-.46,2,4.56,4.56,0,0,1-1.18,1.49,5.71,5.71,0,0,1-1.66.91,5.36,5.36,0,0,1-1.84.32,6.66,6.66,0,0,1-2.72-.56,5.2,5.2,0,0,1-2.19-1.84l1.45-1.08A3.94,3.94,0,0,0,345,55.29a4.06,4.06,0,0,0,2.13.54,3.54,3.54,0,0,0,1.19-.2,3.39,3.39,0,0,0,1.06-.57,2.94,2.94,0,0,0,.78-.93,2.5,2.5,0,0,0,.31-1.26,2.72,2.72,0,0,0-.34-1.41,2.92,2.92,0,0,0-.91-.94,5.79,5.79,0,0,0-1.27-.63l-1.48-.51c-.51-.17-1-.36-1.48-.57a5.22,5.22,0,0,1-1.27-.82,3.6,3.6,0,0,1-.91-1.24,4.6,4.6,0,0,1-.34-1.87,4.51,4.51,0,0,1,.43-2,4.19,4.19,0,0,1,1.15-1.44,4.49,4.49,0,0,1,1.62-.85,6.06,6.06,0,0,1,1.85-.28,6.37,6.37,0,0,1,2.4.44,5.21,5.21,0,0,1,2,1.53Z" fill="#fff"/><path d="M362.8,43.37a3.36,3.36,0,0,0-3-1.58,4.16,4.16,0,0,0-1.21.17,3.25,3.25,0,0,0-1.07.53,2.61,2.61,0,0,0-.76.91,2.91,2.91,0,0,0-.28,1.32,2.35,2.35,0,0,0,.59,1.71,4.65,4.65,0,0,0,1.48,1,16.62,16.62,0,0,0,1.93.7,8.5,8.5,0,0,1,1.92.83,4.69,4.69,0,0,1,1.48,1.36,4,4,0,0,1,.59,2.32,4.28,4.28,0,0,1-.45,2,4.46,4.46,0,0,1-1.19,1.49,5.53,5.53,0,0,1-1.65.91,5.36,5.36,0,0,1-1.84.32,6.66,6.66,0,0,1-2.72-.56,5.2,5.2,0,0,1-2.19-1.84l1.45-1.08a3.94,3.94,0,0,0,1.41,1.43,4.06,4.06,0,0,0,2.13.54,3.48,3.48,0,0,0,1.18-.2,3.44,3.44,0,0,0,1.07-.57,3.22,3.22,0,0,0,.78-.93,2.87,2.87,0,0,0,0-2.67,2.79,2.79,0,0,0-.9-.94,5.65,5.65,0,0,0-1.28-.63l-1.47-.51c-.51-.17-1-.36-1.48-.57A5.28,5.28,0,0,1,356,48a3.71,3.71,0,0,1-.9-1.24,4.43,4.43,0,0,1-.34-1.87,4.51,4.51,0,0,1,.43-2,4.17,4.17,0,0,1,1.14-1.44,4.66,4.66,0,0,1,1.62-.85,6.15,6.15,0,0,1,1.85-.28,6.39,6.39,0,0,1,2.41.44,5.29,5.29,0,0,1,2,1.53Z" fill="#fff"/><path d="M382.87,48.81a9,9,0,0,1-.62,3.42,8,8,0,0,1-1.7,2.69A7.89,7.89,0,0,1,378,56.7a8.45,8.45,0,0,1-6.45,0,7.68,7.68,0,0,1-2.58-1.78,8,8,0,0,1-1.71-2.69,9.74,9.74,0,0,1,0-6.84,8.18,8.18,0,0,1,1.71-2.7,7.83,7.83,0,0,1,2.58-1.78,8.45,8.45,0,0,1,6.45,0,8,8,0,0,1,2.58,1.78,8.16,8.16,0,0,1,1.7,2.7A9,9,0,0,1,382.87,48.81Zm-1.72,0a8,8,0,0,0-.44-2.68,6.79,6.79,0,0,0-1.26-2.23,6,6,0,0,0-2-1.54,6.61,6.61,0,0,0-5.37,0,5.94,5.94,0,0,0-2,1.54,7,7,0,0,0-1.27,2.23,8.35,8.35,0,0,0,0,5.35A6.94,6.94,0,0,0,370,53.72a6.2,6.2,0,0,0,2,1.54,6.61,6.61,0,0,0,5.37,0,6.31,6.31,0,0,0,2-1.54,6.74,6.74,0,0,0,1.26-2.24A8,8,0,0,0,381.15,48.81Z" fill="#fff"/><path d="M398.89,54.36a6.62,6.62,0,0,1-1,1.17,5.89,5.89,0,0,1-1.34.95,7.18,7.18,0,0,1-1.62.63,6.87,6.87,0,0,1-1.84.23,8,8,0,0,1-3.22-.64,7.89,7.89,0,0,1-2.58-1.78,8,8,0,0,1-1.71-2.69,9.89,9.89,0,0,1,0-6.84,8.18,8.18,0,0,1,1.71-2.7,8,8,0,0,1,2.58-1.78,8.15,8.15,0,0,1,3.22-.64,7.58,7.58,0,0,1,2.91.6,5.88,5.88,0,0,1,2.49,2l-1.39,1.08a3.8,3.8,0,0,0-.66-.78,5.14,5.14,0,0,0-.95-.69,5.66,5.66,0,0,0-1.16-.48,4.38,4.38,0,0,0-1.24-.18,6.13,6.13,0,0,0-2.68.57,5.94,5.94,0,0,0-2,1.54,6.79,6.79,0,0,0-1.26,2.23,8.18,8.18,0,0,0,0,5.35,6.74,6.74,0,0,0,1.26,2.24,6.2,6.2,0,0,0,2,1.54,6.13,6.13,0,0,0,2.68.57,7.21,7.21,0,0,0,1.23-.11,4.91,4.91,0,0,0,1.19-.4,4.52,4.52,0,0,0,1.1-.74,5.85,5.85,0,0,0,1-1.18Z" fill="#fff"/><path d="M403.69,55.83a1.27,1.27,0,0,1-.33.86,1.16,1.16,0,0,1-1.72,0,1.29,1.29,0,0,1,0-1.72,1.16,1.16,0,0,1,1.72,0A1.27,1.27,0,0,1,403.69,55.83Z" fill="#fff"/><path d="M107.08,76.76h-1L111.7,68h.87l1.81,8.75h-.92l-.47-2.3h-4.47ZM109,73.65h3.83L111.94,69Z" fill="#fff"/><path d="M118.25,74.41a3.77,3.77,0,0,1,.26-1.39,3.19,3.19,0,0,1,.71-1.14,3.37,3.37,0,0,1,1.08-.77,3.33,3.33,0,0,1,1.35-.28,2.66,2.66,0,0,1,1.18.28,1.87,1.87,0,0,1,.83.84h0l.8-4.53h.83l-1.66,9.34h-.82l.17-1h0a2.37,2.37,0,0,1-.85.77,2.48,2.48,0,0,1-1.27.33,3,3,0,0,1-1.07-.18,2.37,2.37,0,0,1-.82-.51,2.24,2.24,0,0,1-.53-.79A2.61,2.61,0,0,1,118.25,74.41Zm.87,0a2.43,2.43,0,0,0,.11.73,1.71,1.71,0,0,0,.36.59,1.49,1.49,0,0,0,.56.39,1.94,1.94,0,0,0,.78.15,2.35,2.35,0,0,0,1-.23,2.41,2.41,0,0,0,.81-.61,3.15,3.15,0,0,0,.55-.9,3,3,0,0,0,.19-1.09,2,2,0,0,0-.13-.75,1.64,1.64,0,0,0-1-1,2.06,2.06,0,0,0-.76-.14,2.43,2.43,0,0,0-1,.22,2.54,2.54,0,0,0-.8.61,2.84,2.84,0,0,0-.51.9A3.31,3.31,0,0,0,119.12,74.36Z" fill="#fff"/><path d="M126.64,76.76h-.83l1-5.78h.83Zm1.52-8a.54.54,0,0,1-.17.42.52.52,0,0,1-.41.18.57.57,0,0,1-.4-.15.53.53,0,0,1-.17-.41.57.57,0,0,1,.18-.43.57.57,0,0,1,.81,0A.53.53,0,0,1,128.16,68.74Z" fill="#fff"/><path d="M130.82,76.76h-.89L128.72,71h.85l.93,4.89h0L133.4,71h.9Z" fill="#fff"/><path d="M135.32,76.76h-.83l1-5.78h.83Zm1.52-8a.57.57,0,0,1-.17.42.54.54,0,0,1-.41.18.59.59,0,0,1-.41-.15.53.53,0,0,1-.16-.41.57.57,0,0,1,.18-.43.54.54,0,0,1,.41-.18.58.58,0,0,1,.4.16A.57.57,0,0,1,136.84,68.74Z" fill="#fff"/><path d="M141.33,72.25a1.27,1.27,0,0,0-.51-.52,1.6,1.6,0,0,0-.83-.21,2.59,2.59,0,0,0-.47,0,1.91,1.91,0,0,0-.44.16,1.07,1.07,0,0,0-.34.29.78.78,0,0,0-.12.44.69.69,0,0,0,.08.38.78.78,0,0,0,.22.26,1.51,1.51,0,0,0,.36.18,3.85,3.85,0,0,0,.48.16,3.42,3.42,0,0,1,1.3.62,1.32,1.32,0,0,1,.45,1.07,1.53,1.53,0,0,1-.21.81,1.89,1.89,0,0,1-.53.56,2.57,2.57,0,0,1-.72.31,3,3,0,0,1-.78.1,3.49,3.49,0,0,1-1.37-.27,2.16,2.16,0,0,1-1-.82l.72-.47a1.68,1.68,0,0,0,.63.61,1.83,1.83,0,0,0,1,.26,2.33,2.33,0,0,0,.53-.06,1.63,1.63,0,0,0,.47-.17,1.08,1.08,0,0,0,.33-.31.84.84,0,0,0,.12-.45.77.77,0,0,0-.37-.7,4.49,4.49,0,0,0-1-.47,5.55,5.55,0,0,1-.52-.2,1.75,1.75,0,0,1-.47-.29,1.44,1.44,0,0,1-.34-.43,1.41,1.41,0,0,1-.13-.61,1.36,1.36,0,0,1,.21-.77,1.62,1.62,0,0,1,.51-.53,2.6,2.6,0,0,1,.72-.3,3,3,0,0,1,.79-.1,2.7,2.7,0,0,1,1.19.26,1.66,1.66,0,0,1,.76.69Z" fill="#fff"/><path d="M143.57,76.76h-.83l1-5.78h.83Zm1.52-8a.57.57,0,0,1-.17.42.54.54,0,0,1-.41.18.57.57,0,0,1-.4-.15.53.53,0,0,1-.17-.41.62.62,0,0,1,.59-.61.58.58,0,0,1,.4.16A.53.53,0,0,1,145.09,68.74Z" fill="#fff"/><path d="M148.3,76.91a2.9,2.9,0,0,1-1.07-.19,2.5,2.5,0,0,1-.85-.51,2.34,2.34,0,0,1-.55-.79,2.61,2.61,0,0,1-.2-1,3.8,3.8,0,0,1,.26-1.38,3.39,3.39,0,0,1,.71-1.13,3.19,3.19,0,0,1,1.09-.78,3.47,3.47,0,0,1,1.38-.28,3.14,3.14,0,0,1,1.08.18,2.37,2.37,0,0,1,.84.51,2.3,2.3,0,0,1,.55.79,2.61,2.61,0,0,1,.2,1,3.77,3.77,0,0,1-.26,1.39,3.19,3.19,0,0,1-.71,1.14,3.37,3.37,0,0,1-1.08.77A3.48,3.48,0,0,1,148.3,76.91Zm2.57-3.53a2.25,2.25,0,0,0-.12-.74,1.58,1.58,0,0,0-.36-.58,1.76,1.76,0,0,0-.59-.4,2.13,2.13,0,0,0-.78-.14,2.19,2.19,0,0,0-1,.23,2.39,2.39,0,0,0-.79.62,3.1,3.1,0,0,0-.53.9,3.33,3.33,0,0,0-.19,1.09,2,2,0,0,0,.13.74,1.71,1.71,0,0,0,.36.59,1.67,1.67,0,0,0,.58.38,1.89,1.89,0,0,0,.77.15,2.31,2.31,0,0,0,1-.23,2.62,2.62,0,0,0,.79-.61,2.87,2.87,0,0,0,.52-.9A3.34,3.34,0,0,0,150.87,73.38Z" fill="#fff"/><path d="M154.64,71c0,.16,0,.33-.06.52s-.05.34-.07.47h0a2.38,2.38,0,0,1,.86-.84,2.24,2.24,0,0,1,1.12-.3,2.1,2.1,0,0,1,1.47.48,1.64,1.64,0,0,1,.53,1.29,2.83,2.83,0,0,1,0,.29c0,.1,0,.21,0,.33l-.64,3.54H157l.57-3.2a3.75,3.75,0,0,0,.07-.73,1.5,1.5,0,0,0-.28-1,1.26,1.26,0,0,0-1-.35,1.74,1.74,0,0,0-.66.14,1.93,1.93,0,0,0-.63.42,2.81,2.81,0,0,0-.51.71,3.43,3.43,0,0,0-.32,1l-.52,3h-.83l.79-4.51c0-.15.07-.36.11-.6s.06-.47.08-.67Z" fill="#fff"/><path d="M165.4,76.91a2.9,2.9,0,0,1-1.07-.19,2.5,2.5,0,0,1-.85-.51,2.34,2.34,0,0,1-.55-.79,2.61,2.61,0,0,1-.2-1A3.8,3.8,0,0,1,163,73a3.39,3.39,0,0,1,.71-1.13,3.29,3.29,0,0,1,1.09-.78,3.47,3.47,0,0,1,1.38-.28,3.06,3.06,0,0,1,1.08.18,2.37,2.37,0,0,1,.84.51,2.3,2.3,0,0,1,.55.79,2.61,2.61,0,0,1,.2,1,4,4,0,0,1-.25,1.39,3.49,3.49,0,0,1-.71,1.14,3.53,3.53,0,0,1-1.09.77A3.48,3.48,0,0,1,165.4,76.91ZM168,73.38a2.25,2.25,0,0,0-.12-.74,1.58,1.58,0,0,0-.36-.58,1.76,1.76,0,0,0-.59-.4,2.11,2.11,0,0,0-.77-.14,2.2,2.2,0,0,0-1,.23,2.39,2.39,0,0,0-.79.62,2.87,2.87,0,0,0-.52.9,3.1,3.1,0,0,0-.2,1.09,2.26,2.26,0,0,0,.13.74,1.71,1.71,0,0,0,.36.59,1.67,1.67,0,0,0,.58.38,1.89,1.89,0,0,0,.77.15,2.31,2.31,0,0,0,1-.23,2.62,2.62,0,0,0,.79-.61,2.87,2.87,0,0,0,.52-.9A3.34,3.34,0,0,0,168,73.38Z" fill="#fff"/><path d="M173.3,71.67h-1.36l-.89,5.09h-.83l.89-5.09h-1.22L170,71h1.19l.27-1.57a3.7,3.7,0,0,1,.24-.82,2.25,2.25,0,0,1,.43-.68,2,2,0,0,1,.63-.47,2.14,2.14,0,0,1,.87-.17l.33,0a1.45,1.45,0,0,1,.35.07l-.2.73a2.08,2.08,0,0,0-.58-.08,1.13,1.13,0,0,0-.51.11.93.93,0,0,0-.36.32,1.6,1.6,0,0,0-.24.47,3.63,3.63,0,0,0-.14.59L172.05,71h1.39Z" fill="#fff"/><path d="M181.26,75.25h0L185.51,68h1.35l-1.55,8.75h-.88l1.34-7.56h0l-4.5,7.56h-.46L179,69.2h0l-1.33,7.56h-.87L178.27,68h1.33Z" fill="#fff"/><path d="M190.1,76.91a2.9,2.9,0,0,1-1.07-.19,2.5,2.5,0,0,1-.85-.51,2.34,2.34,0,0,1-.55-.79,2.61,2.61,0,0,1-.19-1,3.79,3.79,0,0,1,.25-1.38,3.39,3.39,0,0,1,.71-1.13,3.29,3.29,0,0,1,1.09-.78,3.47,3.47,0,0,1,1.38-.28A3.06,3.06,0,0,1,192,71a2.37,2.37,0,0,1,.84.51,2.3,2.3,0,0,1,.55.79,2.61,2.61,0,0,1,.2,1,4,4,0,0,1-.25,1.39,3.49,3.49,0,0,1-.71,1.14,3.53,3.53,0,0,1-1.09.77A3.48,3.48,0,0,1,190.1,76.91Zm2.57-3.53a2.25,2.25,0,0,0-.12-.74,1.58,1.58,0,0,0-.36-.58,1.76,1.76,0,0,0-.59-.4,2.11,2.11,0,0,0-.77-.14,2.2,2.2,0,0,0-1,.23,2.39,2.39,0,0,0-.79.62,2.87,2.87,0,0,0-.52.9,3.1,3.1,0,0,0-.2,1.09,2.26,2.26,0,0,0,.13.74,1.71,1.71,0,0,0,.36.59,1.67,1.67,0,0,0,.58.38,1.89,1.89,0,0,0,.77.15,2.31,2.31,0,0,0,1-.23,2.62,2.62,0,0,0,.79-.61,2.87,2.87,0,0,0,.52-.9A3.34,3.34,0,0,0,192.67,73.38Z" fill="#fff"/><path d="M195.56,71.65c0-.25.06-.47.08-.67h.79c0,.16,0,.33-.06.52s-.05.34-.08.47h0a2.64,2.64,0,0,1,.81-.82,2,2,0,0,1,1.12-.32h.28l.26,0-.2.79-.23-.05-.34,0a1.82,1.82,0,0,0-.65.12,1.6,1.6,0,0,0-.59.39,2.8,2.8,0,0,0-.47.68,4.08,4.08,0,0,0-.3,1l-.52,3h-.83l.79-4.51C195.49,72.1,195.52,71.89,195.56,71.65Z" fill="#fff"/><path d="M198.72,78a2.29,2.29,0,0,0,.87.74,2.66,2.66,0,0,0,1.23.29,2.83,2.83,0,0,0,1.06-.18,2.06,2.06,0,0,0,.74-.5,2.3,2.3,0,0,0,.47-.72,4.35,4.35,0,0,0,.26-.89l.21-1.1h0a2.65,2.65,0,0,1-2.19,1.15,2.76,2.76,0,0,1-1.07-.19,2.3,2.3,0,0,1-.81-.54,2.35,2.35,0,0,1-.52-.8,2.73,2.73,0,0,1-.17-1,3.41,3.41,0,0,1,.25-1.32,3.34,3.34,0,0,1,.7-1.09,3.4,3.4,0,0,1,2.42-1,3.37,3.37,0,0,1,.62.07,2.35,2.35,0,0,1,.57.23,2.15,2.15,0,0,1,.48.36,1.76,1.76,0,0,1,.33.49h0l.18-1h.82l-1,5.73a6.17,6.17,0,0,1-.26,1,2.78,2.78,0,0,1-1.5,1.72,3.57,3.57,0,0,1-1.57.3,3.86,3.86,0,0,1-1.55-.31,2.82,2.82,0,0,1-1.11-.86Zm.9-3.73a2,2,0,0,0,.12.7,1.62,1.62,0,0,0,.36.59,1.72,1.72,0,0,0,.58.4,2.18,2.18,0,0,0,.79.14,2.31,2.31,0,0,0,1-.22,2.46,2.46,0,0,0,.8-.58,2.78,2.78,0,0,0,.7-1.89,2,2,0,0,0-.13-.73,1.6,1.6,0,0,0-.37-.58,1.67,1.67,0,0,0-.59-.4,1.92,1.92,0,0,0-.77-.15,2.61,2.61,0,0,0-1,.2,2.12,2.12,0,0,0-.79.55,2.54,2.54,0,0,0-.52.86A3.31,3.31,0,0,0,199.62,74.24Z" fill="#fff"/><path d="M210.53,73.22c0-.15,0-.25.05-.33a1.7,1.7,0,0,0,0-.22,1,1,0,0,0-.36-.89,1.7,1.7,0,0,0-1-.26,2.49,2.49,0,0,0-1,.21,2.7,2.7,0,0,0-.8.48l-.37-.55a3.14,3.14,0,0,1,1-.6,3.61,3.61,0,0,1,1.23-.23,3.33,3.33,0,0,1,.78.09,1.81,1.81,0,0,1,.66.3,1.59,1.59,0,0,1,.44.52,1.61,1.61,0,0,1,.17.76c0,.07,0,.17,0,.3a2.31,2.31,0,0,1,0,.32l-.42,2.34c0,.23-.07.46-.1.7s0,.44,0,.6H210c0-.14,0-.29,0-.46a3.93,3.93,0,0,1,.06-.48h0a4.53,4.53,0,0,1-.49.49,2.45,2.45,0,0,1-.51.33,2.7,2.7,0,0,1-.57.18,4.65,4.65,0,0,1-.66.05,2.6,2.6,0,0,1-.61-.07,1.78,1.78,0,0,1-.56-.25,1.47,1.47,0,0,1-.42-.47,1.37,1.37,0,0,1-.17-.7,1.55,1.55,0,0,1,.4-1.12,2.62,2.62,0,0,1,1-.66,5.92,5.92,0,0,1,1.43-.3A13.88,13.88,0,0,1,210.53,73.22Zm-.31.63a11.11,11.11,0,0,0-1.14.05,5.27,5.27,0,0,0-1.05.21,2.08,2.08,0,0,0-.78.43,1,1,0,0,0-.3.74,1,1,0,0,0,.09.45.81.81,0,0,0,.27.28,1.16,1.16,0,0,0,.38.15,2.2,2.2,0,0,0,.44,0,2.18,2.18,0,0,0,.82-.15,2.31,2.31,0,0,0,.65-.41,2.12,2.12,0,0,0,.47-.6,2.7,2.7,0,0,0,.26-.72l.09-.48Z" fill="#fff"/><path d="M214.46,71c0,.16,0,.33-.06.52s-.05.34-.08.47h0a2.38,2.38,0,0,1,.86-.84,2.21,2.21,0,0,1,1.12-.3,2.1,2.1,0,0,1,1.47.48,1.64,1.64,0,0,1,.53,1.29,2.83,2.83,0,0,1,0,.29c0,.1,0,.21-.05.33l-.64,3.54h-.83l.57-3.2a3.79,3.79,0,0,0,.08-.73,1.5,1.5,0,0,0-.29-1,1.23,1.23,0,0,0-1-.35,1.83,1.83,0,0,0-.67.14,1.89,1.89,0,0,0-.62.42,2.81,2.81,0,0,0-.51.71,3.16,3.16,0,0,0-.32,1l-.52,3h-.83l.79-4.51c0-.15.07-.36.1-.6a6.34,6.34,0,0,0,.08-.67Z" fill="#fff"/><path d="M224.68,75.54h0L228.35,68h1.06l.73,7.53h0l3.6-7.53h.94l-4.26,8.75h-1l-.71-7.54h0L225,76.76h-1L223,68H224Z" fill="#fff"/><path d="M237.79,70.83a2.12,2.12,0,0,1,1.46.48,1.64,1.64,0,0,1,.53,1.29,2.83,2.83,0,0,1,0,.29c0,.1,0,.21,0,.33l-.64,3.54h-.83l.57-3.2a3.79,3.79,0,0,0,.08-.73,1.5,1.5,0,0,0-.29-1,1.29,1.29,0,0,0-1-.35,1.79,1.79,0,0,0-.67.14,1.89,1.89,0,0,0-.62.42,2.79,2.79,0,0,0-.5.71,3.43,3.43,0,0,0-.31,1l-.52,3h-.83l1.64-9.34h.83l-.79,4.51h0a2.22,2.22,0,0,1,.84-.8A2.15,2.15,0,0,1,237.79,70.83Z" fill="#fff"/><path d="M241.94,76.76h-.83l1-5.78H243Zm1.52-8a.57.57,0,0,1-.17.42.54.54,0,0,1-.41.18.57.57,0,0,1-.4-.15.5.5,0,0,1-.17-.41.62.62,0,0,1,.59-.61.58.58,0,0,1,.4.16A.57.57,0,0,1,243.46,68.74Z" fill="#fff"/><path d="M247.33,71.67h-1.57l-.61,3.4a3,3,0,0,0,0,.39.64.64,0,0,0,.2.55.91.91,0,0,0,.52.13,1.33,1.33,0,0,0,.38,0,.84.84,0,0,0,.33-.14l-.1.71a1.39,1.39,0,0,1-.42.13,3,3,0,0,1-.53,0,2.1,2.1,0,0,1-.43,0,1.32,1.32,0,0,1-.4-.18,1,1,0,0,1-.29-.36,1.13,1.13,0,0,1-.12-.56,2,2,0,0,1,0-.4l.64-3.62h-1.2l.14-.69H245l.28-1.63h.83L245.87,71h1.59Z" fill="#fff"/><path d="M248.5,74.09s0,.1,0,.14v.14a1.78,1.78,0,0,0,.14.74,1.69,1.69,0,0,0,.39.59,1.86,1.86,0,0,0,.6.38,1.94,1.94,0,0,0,.73.14,2.22,2.22,0,0,0,1.19-.31,2.56,2.56,0,0,0,.81-.71l.52.5a3.5,3.5,0,0,1-1.17.91,3.45,3.45,0,0,1-1.42.3,3.19,3.19,0,0,1-1-.17,2.39,2.39,0,0,1-.83-.5,2.22,2.22,0,0,1-.56-.8,2.6,2.6,0,0,1-.2-1.08,3.55,3.55,0,0,1,2-3.24,3.06,3.06,0,0,1,1.31-.29,2.39,2.39,0,0,1,1.8.63,2.23,2.23,0,0,1,.61,1.63,4.23,4.23,0,0,1,0,.45,4,4,0,0,1-.09.55Zm4-.62a1.25,1.25,0,0,0,0-.21c0-.08,0-.15,0-.22a1.52,1.52,0,0,0-.41-1.09,1.56,1.56,0,0,0-1.2-.43,2.15,2.15,0,0,0-.85.16,2.2,2.2,0,0,0-.69.42,2.61,2.61,0,0,0-.51.63,2.5,2.5,0,0,0-.3.74Z" fill="#fff"/><path d="M261.67,76.22a6.12,6.12,0,0,0,1.4-.16,3.76,3.76,0,0,0,1.09-.44l.47-2.68h-2.07l.14-.75h2.93l-.69,3.94a6.29,6.29,0,0,1-1.61.66,7.35,7.35,0,0,1-1.71.19,4.55,4.55,0,0,1-1.6-.27,3.8,3.8,0,0,1-1.24-.76,3.52,3.52,0,0,1-.8-1.19,4,4,0,0,1-.29-1.53,5.57,5.57,0,0,1,.41-2.13,5.44,5.44,0,0,1,1.12-1.72,5.23,5.23,0,0,1,1.66-1.16,4.88,4.88,0,0,1,2-.43,4.08,4.08,0,0,1,.93.1,4.36,4.36,0,0,1,.84.28,2.83,2.83,0,0,1,.68.44,2.08,2.08,0,0,1,.49.58l-.8.53a1.76,1.76,0,0,0-.29-.42,2,2,0,0,0-.47-.38,2.18,2.18,0,0,0-.62-.26,2.73,2.73,0,0,0-.78-.1,3.82,3.82,0,0,0-1.73.39,4.37,4.37,0,0,0-1.34,1,4.64,4.64,0,0,0-.88,1.47,4.75,4.75,0,0,0-.32,1.7,3.7,3.7,0,0,0,.2,1.21,2.67,2.67,0,0,0,.59,1,2.7,2.7,0,0,0,.95.66A3.28,3.28,0,0,0,261.67,76.22Z" fill="#fff"/><path d="M267.67,71.65c0-.25.06-.47.08-.67h.79c0,.16,0,.33-.06.52s-.05.34-.07.47h0a2.67,2.67,0,0,1,.82-.82,2,2,0,0,1,1.11-.32h.28l.26,0-.2.79-.22-.05-.34,0a1.88,1.88,0,0,0-.66.12,1.57,1.57,0,0,0-.58.39,2.34,2.34,0,0,0-.47.68,3.68,3.68,0,0,0-.31,1l-.52,3h-.82l.79-4.51C267.6,72.1,267.63,71.89,267.67,71.65Z" fill="#fff"/><path d="M273.41,76.91a2.87,2.87,0,0,1-1.07-.19,2.41,2.41,0,0,1-.85-.51,2.21,2.21,0,0,1-.55-.79,2.61,2.61,0,0,1-.2-1A3.8,3.8,0,0,1,271,73a3.49,3.49,0,0,1,1.79-1.91,3.48,3.48,0,0,1,1.39-.28,3.14,3.14,0,0,1,1.08.18,2.56,2.56,0,0,1,.84.51,2.44,2.44,0,0,1,.55.79,2.61,2.61,0,0,1,.2,1,3.77,3.77,0,0,1-.26,1.39,3.38,3.38,0,0,1-1.8,1.91A3.47,3.47,0,0,1,273.41,76.91ZM276,73.38a2.25,2.25,0,0,0-.12-.74,1.6,1.6,0,0,0-.37-.58,1.72,1.72,0,0,0-.58-.4,2.13,2.13,0,0,0-.78-.14,2.19,2.19,0,0,0-1,.23,2.39,2.39,0,0,0-.79.62,2.89,2.89,0,0,0-.53.9,3.09,3.09,0,0,0-.19,1.09,2.25,2.25,0,0,0,.12.74,1.9,1.9,0,0,0,.37.59,1.67,1.67,0,0,0,.58.38,1.86,1.86,0,0,0,.77.15,2.24,2.24,0,0,0,1-.23,2.54,2.54,0,0,0,.8-.61,3.07,3.07,0,0,0,.52-.9A3.34,3.34,0,0,0,276,73.38Z" fill="#fff"/><path d="M282,76.76c0-.15,0-.33.06-.52s.05-.34.08-.47h0a2.44,2.44,0,0,1-.85.84,2.24,2.24,0,0,1-1.12.3,2.14,2.14,0,0,1-1.47-.47,1.63,1.63,0,0,1-.52-1.29,1.46,1.46,0,0,1,0-.29c0-.1,0-.21,0-.32l.64-3.55h.83l-.57,3.2a3.9,3.9,0,0,0-.07.73,1.45,1.45,0,0,0,.28,1,1.23,1.23,0,0,0,1,.35,1.74,1.74,0,0,0,.66-.14,1.91,1.91,0,0,0,.62-.41,2.61,2.61,0,0,0,.52-.71,3.79,3.79,0,0,0,.32-1l.51-3h.83L283,75.5c0,.16-.07.36-.1.6a6.5,6.5,0,0,0-.08.66Z" fill="#fff"/><path d="M286.68,71.92a1.75,1.75,0,0,1,.36-.42,3,3,0,0,1,.5-.35,2.57,2.57,0,0,1,.6-.23,2.46,2.46,0,0,1,.67-.09,3,3,0,0,1,1.07.18,2.47,2.47,0,0,1,.82.51,2.24,2.24,0,0,1,.53.79,2.8,2.8,0,0,1,.18,1,3.58,3.58,0,0,1-.26,1.39,3.49,3.49,0,0,1-.71,1.14,3.44,3.44,0,0,1-1.07.77,3.4,3.4,0,0,1-1.35.28,2.63,2.63,0,0,1-1.18-.28,1.87,1.87,0,0,1-.84-.85h0l-.71,4h-.83L286,71h.83l-.17.94Zm3.87,1.46a2.09,2.09,0,0,0-.12-.72,1.64,1.64,0,0,0-.35-.6,1.78,1.78,0,0,0-.57-.4,2.05,2.05,0,0,0-.78-.14,2.44,2.44,0,0,0-1,.22,2.62,2.62,0,0,0-.82.62,2.92,2.92,0,0,0-.54.9,3.1,3.1,0,0,0-.2,1.09,2.27,2.27,0,0,0,.13.75,1.76,1.76,0,0,0,.38.59,1.6,1.6,0,0,0,.59.39,2,2,0,0,0,.77.14,2.33,2.33,0,0,0,1-.23,2.37,2.37,0,0,0,.8-.6,2.84,2.84,0,0,0,.51-.9A3.31,3.31,0,0,0,290.55,73.38Z" fill="#fff"/><circle cx="45.66" cy="45.66" r="44.59" fill="#00205c" stroke="#fff" stroke-miterlimit="10" stroke-width="2.14"/><path d="M72.53,33.68a8.26,8.26,0,0,1,6.06,2.55,14.46,14.46,0,0,1,2.93,5.05c.07.22.14.33.36.29l.88-.15c.15,0,.15-.21.15-.51l-.37-7.31c0-.29-.07-.51-.44-.51-.22,0-.33.11-.51.37l-.44.58c-.22.29-.44.4-.87.07a13.54,13.54,0,0,0-7.46-2c-6.75,0-11.59,1.45-14.72,11.19l-3,7.83L50.55,40.93s-1.91-4.56-2.74-4.56S45,40.62,45,40.62,40.09,51.18,39.8,52l-.08,0L34,35a.88.88,0,0,1,.88-1.28h.69c.26,0,.33-.11.33-.29v-.92c0-.18-.07-.25-.29-.25l-3.58.09c-.17,0-.44.53-.71,1.23-1.11,2.5-6.44,14.12-6.74,15h-.15l-6.61-15.4c-.15-.44-.4-.8-.92-.8s-.8.58-1,.95c-.73,1.83-8.18,22.29-8.55,23.1a1.79,1.79,0,0,1-1.61,1.2H2.9c-.22,0-.26.11-.26.3v1c0,.11.08.19.22.19.3,0,3.56-.11,5.61-.11,2.26,0,3.5.11,3.87.11s.29-.11.29-.3V58c0-.19,0-.3-.25-.3h-1c-.88,0-1.24-.51-1.24-1,0-2,4.16-14.07,5.26-17.29h.15l5.26,13.06s1.2,2.86,1.95,2.86c1.15,0,2.87-4,2.87-4s4.94-11,5.23-11.78l.07,0,5.69,16.89a.87.87,0,0,1-.88,1.27h-.69c-.26,0-.33.11-.33.3v.91c0,.18.07.26.29.26s1.23,0,3-.07a1,1,0,0,0,.69-.31,1.11,1.11,0,0,0,.37-.49c.15-.4,6.62-14,6.95-15.05h.14L52.81,58.2c.15.44.4.81.91.81,2,0,2.61-.78,3.39-3,.41-1.15,2.79-7.86,5-13.56C64.63,35.66,68.57,33.68,72.53,33.68ZM90,47.25c-.37,0-7.29.11-10.35.11s-4.76-.11-5.2-.11c-.14,0-.21.07-.21.29v.84c0,.18.07.33.29.33H76.1c1,0,1.32.37,1.32,1.68v2.67c0,1.9-.07,2.92-.88,3.36-1.24.66-2.63.61-5,.61-3.63,0-6.24-2.28-9.24-4.7-.46-.37-.71-.19-.83,0s-.59,1.39-.72,1.7A.87.87,0,0,0,61,55.09c2.52,2.8,6.82,4,10.29,4a21.1,21.1,0,0,0,10.38-2.41c.36-.14.58-.29.58-.58s-.14-.66-.14-1.17V50.06c0-1.06.44-1.35,1.09-1.35h6.92c.22,0,.29-.07.29-.29V47.5C90.4,47.32,90.33,47.25,90,47.25Z" fill="#fff"/></svg>