<svg xmlns="http://www.w3.org/2000/svg" xmlns:xlink="http://www.w3.org/1999/xlink" viewBox="0 0 144 144.31"><defs><linearGradient id="a" x1="-15.53" y1="177.64" x2="84.41" y2="103.54" gradientTransform="translate(43.98 -56.94) scale(0.85)" gradientUnits="userSpaceOnUse"><stop offset="0" stop-color="#e03a3e"/><stop offset="0.06" stop-color="#e03d40"/><stop offset="0.11" stop-color="#e24748"/><stop offset="0.16" stop-color="#e45856"/><stop offset="0.2" stop-color="#e87068"/><stop offset="0.24" stop-color="#ec8e80"/><stop offset="0.26" stop-color="#ee9a89"/><stop offset="0.3" stop-color="#ea7f74"/><stop offset="0.38" stop-color="#e55a57"/><stop offset="0.44" stop-color="#e14245"/><stop offset="0.48" stop-color="#e03a3e"/><stop offset="0.51" stop-color="#e14143"/><stop offset="0.56" stop-color="#e45452"/><stop offset="0.62" stop-color="#e8736b"/><stop offset="0.67" stop-color="#ee9a89"/><stop offset="0.7" stop-color="#ec8b7d"/><stop offset="0.74" stop-color="#e86e66"/><stop offset="0.8" stop-color="#e45755"/><stop offset="0.85" stop-color="#e24748"/><stop offset="0.92" stop-color="#e03d40"/><stop offset="1" stop-color="#e03a3e"/></linearGradient><linearGradient id="b" x1="30.5" y1="141.94" x2="41.43" y2="141.94" gradientTransform="translate(43.98 -56.94) scale(0.85)" gradientUnits="userSpaceOnUse"><stop offset="0" stop-color="#fff"/><stop offset="0.09" stop-color="#f3f3f3"/><stop offset="0.25" stop-color="#d1d1d1"/><stop offset="0.47" stop-color="#9c9c9c"/><stop offset="0.73" stop-color="#515151"/><stop offset="1"/></linearGradient><linearGradient id="c" x1="-4099.87" y1="-3310.45" x2="-4049.13" y2="-3310.45" gradientTransform="translate(1949.01 1549.18) scale(0.46)" xlink:href="#b"/><linearGradient id="d" x1="-4086.66" y1="-3307.15" x2="-4062.34" y2="-3307.15" gradientTransform="translate(1949.01 1549.18) scale(0.46)" xlink:href="#b"/><linearGradient id="e" x1="-4109.22" y1="-3316.21" x2="-4039.78" y2="-3316.21" gradientTransform="translate(1949.01 1549.18) scale(0.46)" xlink:href="#b"/><linearGradient id="f" x1="-4120.57" y1="-3320.85" x2="-4028.44" y2="-3320.85" gradientTransform="translate(1949.01 1549.18) scale(0.46)" xlink:href="#b"/><radialGradient id="g" cx="34.83" cy="78.88" r="37.78" gradientTransform="translate(43.98 -56.94) scale(0.85)" gradientUnits="userSpaceOnUse"><stop offset="0" stop-color="#faddd3"/><stop offset="0.31" stop-color="#f8d2c7"/><stop offset="0.87" stop-color="#f2b4a6"/><stop offset="1" stop-color="#f1ac9d"/></radialGradient><linearGradient id="h" x1="-4085.09" y1="-3328.07" x2="-4063.86" y2="-3328.07" gradientTransform="translate(1949.01 1549.18) scale(0.46)" xlink:href="#b"/><linearGradient id="i" x1="-4120.6" y1="-3325.49" x2="-4028.41" y2="-3325.49" gradientTransform="translate(1949.01 1549.18) scale(0.46)" xlink:href="#b"/><linearGradient id="j" x1="-4085.12" y1="-3304.28" x2="-4063.88" y2="-3304.28" gradientTransform="translate(1949.01 1549.18) scale(0.46)" xlink:href="#b"/><radialGradient id="k" cx="-4074.52" cy="-3155.36" r="5.95" gradientTransform="translate(1949.01 1549.18) scale(0.46)" gradientUnits="userSpaceOnUse"><stop offset="0" stop-color="#fff"/><stop offset="0.15" stop-color="#fcfcfc"/><stop offset="0.28" stop-color="#f1f1f1"/><stop offset="0.4" stop-color="#e0e0e0"/><stop offset="0.52" stop-color="#c7c7c7"/><stop offset="0.63" stop-color="#a7a7a7"/><stop offset="0.74" stop-color="#818181"/><stop offset="0.85" stop-color="#525252"/><stop offset="0.95" stop-color="#1e1e1e"/><stop offset="1"/></radialGradient></defs><title>amfirst-color</title><polygon points="39.05 4.91 35.28 7.62 31.54 4.87 32.95 9.3 29.18 12.02 33.82 12.04 35.24 16.46 36.7 12.05 41.34 12.07 37.6 9.32 39.05 4.91" fill="#155184"/><polygon points="20.92 91.79 17.99 95.39 13.66 93.72 16.18 97.62 13.25 101.23 17.74 100.03 20.27 103.94 20.52 99.3 25.01 98.1 20.67 96.43 20.92 91.79" fill="#155184"/><polygon points="13.05 79.58 14.67 75.23 10.8 77.8 7.16 74.92 8.41 79.39 4.54 81.97 9.19 82.16 10.44 86.63 12.05 82.28 16.7 82.47 13.05 79.58" fill="#155184"/><polygon points="6.08 65.67 8.98 62.04 13.33 63.69 10.78 59.8 13.69 56.17 9.2 57.4 6.65 53.51 6.43 58.16 1.95 59.38 6.3 61.03 6.08 65.67" fill="#155184"/><polygon points="129.3 40.7 128.07 45.18 131.7 42.28 135.58 44.84 133.94 40.48 137.57 37.58 132.93 37.8 131.28 33.45 130.06 37.93 125.41 38.15 129.3 40.7" fill="#155184"/><polygon points="8.44 44.84 12.32 42.28 15.95 45.18 14.71 40.7 18.59 38.14 13.95 37.93 12.72 33.45 11.08 37.8 6.44 37.59 10.07 40.49 8.44 44.84" fill="#155184"/><polygon points="24.1 16.89 21.24 20.55 16.87 18.96 19.47 22.81 16.6 26.48 21.07 25.2 23.67 29.05 23.83 24.41 28.3 23.13 23.94 21.54 24.1 16.89" fill="#155184"/><polygon points="130.35 93.72 126.01 95.4 123.08 91.79 123.33 96.43 119 98.11 123.49 99.3 123.74 103.94 126.26 100.04 130.76 101.23 127.83 97.63 130.35 93.72" fill="#155184"/><polygon points="136.84 74.93 133.19 77.81 129.32 75.23 130.94 79.59 127.29 82.48 131.94 82.29 133.55 86.64 134.81 82.17 139.45 81.98 135.58 79.4 136.84 74.93" fill="#155184"/><polygon points="134.8 57.43 130.32 56.19 133.22 59.83 130.66 63.7 135.01 62.07 137.9 65.71 137.7 61.06 142.05 59.43 137.57 58.19 137.37 53.55 134.8 57.43" fill="#155184"/><polygon points="120.15 24.39 120.32 29.04 122.91 25.18 127.38 26.45 124.51 22.8 127.11 18.94 122.74 20.54 119.87 16.88 120.04 21.52 115.68 23.12 120.15 24.39" fill="#155184"/><polygon points="112.47 4.87 108.74 7.63 104.96 4.93 106.43 9.34 102.69 12.1 107.34 12.06 108.81 16.47 110.21 12.04 114.86 12 111.07 9.3 112.47 4.87" fill="#155184"/><path d="M117.49,34.15H50.36L37.54,81.75a13.06,13.06,0,0,1-1,2.9,3.07,3.07,0,0,1-1.16,1.16,4.93,4.93,0,0,1-2.25.39v8.44H51.75V86.2A12.78,12.78,0,0,1,49,86a2,2,0,0,1-1.12-.82A2.41,2.41,0,0,1,47.51,84,14.07,14.07,0,0,1,48,81.41L51.4,68.84h8.21V81.43c0,.87.13,2.85-1,3.8a2.32,2.32,0,0,1-1.48.84L55,86.2v8.44h42.6V86.2H95.91a4.64,4.64,0,0,1-2.31-.39c-.4-.25-.48-.78-.87-1.18s-.27-1.55-.27-3.07V69h2.28a6.27,6.27,0,0,1,3.36.74,7.64,7.64,0,0,1,1.39,1.49h4.87V57.83H99a3.39,3.39,0,0,1-.83,1.58,7.59,7.59,0,0,1-3.34.65H92.46v-16h10.91a23,23,0,0,1,4.53.3,5.68,5.68,0,0,1,4.25,4h5.34Zm-57.94,9.9V60H53.68l4.24-16Z"/><path d="M115.8,32.45H48.67L35.84,80.05a12.67,12.67,0,0,1-1,2.9,3,3,0,0,1-1.17,1.16,4.87,4.87,0,0,1-2.25.39v8.44H50.06V84.5a13,13,0,0,1-2.79-.17,2,2,0,0,1-1.11-.82,2.32,2.32,0,0,1-.34-1.25,14.07,14.07,0,0,1,.48-2.55l3.41-12.57h8.21V79.73c0,.87.2,2.84-1,3.8a2.53,2.53,0,0,1-1.54.88l-2.11.09v8.44h42.6V84.5H94.21a4.67,4.67,0,0,1-2.31-.39c-.4-.25-.47-.78-.87-1.18s-.27-1.55-.27-3.07V67.27H93a6.29,6.29,0,0,1,3.37.74A8,8,0,0,1,97.8,69.5h4.87V56.13h-5.4a3.34,3.34,0,0,1-.82,1.58,7.64,7.64,0,0,1-3.35.65H90.76v-16h10.92a23,23,0,0,1,4.53.3,5.68,5.68,0,0,1,4.25,4h5.34Zm-57.94,9.9v16H52l4.24-16Z" stroke="#000" stroke-width="0.59" fill="url(#a)"/><polygon points="76.48 96.75 78.75 29.67 70.07 29.67 72.34 96.75 76.48 96.75" stroke="#231f20" stroke-width="0.51" fill="url(#b)"/><path d="M74.39,27.29c9.47,0,11.59-1.57,11.59-1.57V24.8H62.83v.92S64.92,27.29,74.39,27.29Z" stroke="#231f20" stroke-width="0.51" fill="url(#c)"/><rect x="68.91" y="27.04" width="10.99" height="1.05" stroke="#231f20" stroke-width="0.51" fill="url(#d)"/><rect x="58.53" y="22" width="31.75" height="2.8" stroke="#231f20" stroke-width="0.51" fill="url(#e)"/><rect x="53.31" y="20.52" width="42.19" height="1.47" stroke="#231f20" stroke-width="0.51" fill="url(#f)"/><path d="M69.63,15.35H79.2c3.38-1.84,6.47-9.06-.69-13.73C73.51-1.65,61,2.23,49.64.5a12.42,12.42,0,0,0,5.29,2.44c-5.79,1.25-17.28,2.34-32,.2,1.22-.07,9.9,5.3,20.46,5.66C61.16,9.41,66.52,15.65,69.63,15.35Z" stroke="#231f20" stroke-width="0.51" fill="url(#g)"/><path d="M71.09,15.34h6.72c3.46-3.05,7-12.3-6.72-14.13,0,0,11.84,3.2,5,10.67,0,0,2.46-5.33-3.15-6.81,3,3.75.84,6.13-.12,6.77C71,13,63.71,9.48,58.45,9.52,63.68,10.77,71.09,15.34,71.09,15.34Z" fill="#fcebe5"/><rect x="69.63" y="15.35" width="9.57" height="5.19" stroke="#231f20" stroke-width="0.51" fill="url(#h)"/><path d="M95.5,17.78v2.74H53.31V17.73c1.15,0,.66,2,1.81,2s0-2,1.12-2,1.31,2,2.48,2,.43-2,1.6-2,1.44,2,2.59,2,.88-2,2.06-2,1.17,2,2.35,2,1.15-2,2.3-2,1.17,2,2.34,2,1.15-2,2.31-2,1.16,2,2.31,2,1.15-2,2.31-2,1.17,2,2.35,2,1.16-2,2.32-2,1.16,2,2.32,2,1-2,2.2-2,.42,2,1.58,2,1.3-2,2.46-2,0,2,1.2,2,1-2,2.19-2Z" stroke="#231f20" stroke-width="0.51" fill="url(#i)"/><line x1="74.43" y1="29.68" x2="74.43" y2="94.84" fill="none" stroke="#4d4d4d" stroke-width="0.51"/><line x1="76.17" y1="29.67" x2="75.26" y2="94.84" fill="none" stroke="#333" stroke-width="0.51"/><line x1="77.7" y1="29.67" x2="75.87" y2="95.04" fill="none" stroke="#333" stroke-width="0.51"/><line x1="72.66" y1="29.67" x2="73.63" y2="94.84" fill="none" stroke="gray" stroke-width="0.51"/><line x1="71.18" y1="29.78" x2="73.01" y2="95.04" fill="none" stroke="#999" stroke-width="0.51"/><rect x="69.62" y="28.09" width="9.57" height="1.58" stroke="#231f20" stroke-width="0.51" fill="url(#j)"/><rect x="71.76" y="94.85" width="5.27" height="5.27" rx="2.2" ry="2.2" stroke="#231f20" stroke-width="0.51" fill="url(#k)"/><path d="M21.2,124a4,4,0,0,0,1.21-.55,5.57,5.57,0,0,0,1.29-1.61l11-17.93h.76l2.83,17.44a4.59,4.59,0,0,0,.7,2.15,3,3,0,0,0,1.77.5v.73h-9V124a4.45,4.45,0,0,0,1.8-.42,1.44,1.44,0,0,0,.53-1.33c0-.23-.05-.78-.16-1.64,0-.18-.12-.92-.29-2.22H27.27l-1.72,3.1a4.25,4.25,0,0,0-.31.68,1.92,1.92,0,0,0-.14.72c0,.41.12.68.37.8A5.7,5.7,0,0,0,27,124v.73H21.2Zm12.24-6.82-1.09-7.42L28,117.21Z" fill="#231f20"/><path d="M41.8,124.76,44.39,115q.22-.85.3-1.2a3.18,3.18,0,0,0,.07-.67c0-.33-.09-.53-.29-.61a5.26,5.26,0,0,0-1.31-.18v-.8c1.24-.08,2.31-.19,3.18-.31q.84-.12,2.79-.51l-1.79,5.64.1.08a30.88,30.88,0,0,1,2.92-4,4.71,4.71,0,0,1,3.38-1.67,1.85,1.85,0,0,1,1.92,2,6.19,6.19,0,0,1-.26,1.66c-.09.36-.22.8-.38,1.33a22.85,22.85,0,0,1,3-3.36A6.07,6.07,0,0,1,62,110.72a2.74,2.74,0,0,1,2,.67,2.66,2.66,0,0,1,.65,1.91,8.77,8.77,0,0,1-.27,1.86q0,.16-.3,1.17l-1.57,4.84q-.18.4-.33.84a2.22,2.22,0,0,0-.15.61.29.29,0,0,0,.17.26.66.66,0,0,0,.31.1c.28,0,.67-.34,1.17-1,.27-.36.56-.81.88-1.34l.65.43a16,16,0,0,1-1.86,2.64,3.9,3.9,0,0,1-2.81,1.38,2.6,2.6,0,0,1-1.4-.41,1.53,1.53,0,0,1-.65-1.38,9.21,9.21,0,0,1,.39-2.22c.16-.58.38-1.25.65-2l1.22-4.66a2.33,2.33,0,0,0,0-.28c0-.1,0-.2,0-.29a1.08,1.08,0,0,0-.18-.64.74.74,0,0,0-.63-.26,3.92,3.92,0,0,0-2.61,1.59A18.7,18.7,0,0,0,55,117.82a12.37,12.37,0,0,0-.71,1.49c-.23.59-.83,2.41-1.78,5.45H48.92l2.62-10c.08-.23.14-.45.19-.64a2.13,2.13,0,0,0,.07-.55c0-.28,0-.46-.17-.53a.67.67,0,0,0-.37-.11c-.43,0-1,.45-1.71,1.36a16.39,16.39,0,0,0-2,3.54,27.29,27.29,0,0,0-1.12,3.25c-.27.84-.63,2.07-1.07,3.67Z" fill="#231f20"/><path d="M64.85,124a3,3,0,0,0,1.57-.55,3.14,3.14,0,0,0,.83-1.63l3.63-13.68c.06-.28.12-.52.17-.73a5,5,0,0,0,.13-1c0-.49-.13-.8-.4-.93a6.29,6.29,0,0,0-1.75-.31v-.79H84.76l-1.26,5.79-.79-.13a5.74,5.74,0,0,0-.68-3.11q-1.14-1.6-4.51-1.6a2.47,2.47,0,0,0-1.37.27,2,2,0,0,0-.58,1.12l-1.76,6.76a11.12,11.12,0,0,0,3.86-.54,5.94,5.94,0,0,0,2-2.68l.82.11-2.19,8.34-.81-.15c0-.3.06-.56.08-.78s0-.38,0-.5a2.69,2.69,0,0,0-.77-2.16c-.51-.44-1.61-.66-3.29-.66l-1.94,7.45c0,.13-.06.25-.08.36s0,.22,0,.32a1.19,1.19,0,0,0,.73,1.21,3.71,3.71,0,0,0,1.39.19v.79H64.85Z" fill="#231f20"/><path d="M83.52,121.83c.06-.31.17-.72.3-1.22l1.82-6.85a2,2,0,0,0,0-.24.86.86,0,0,0,0-.22c0-.41-.12-.66-.37-.76a4.77,4.77,0,0,0-1.37-.2v-.8c.55,0,1.36-.12,2.41-.25s1.81-.23,2.25-.32l1.26-.25-2.3,8.68c-.19.75-.32,1.26-.39,1.55a8.58,8.58,0,0,0-.26,1.43.49.49,0,0,0,.15.43.57.57,0,0,0,.32.09c.3,0,.67-.26,1.11-.79a11.59,11.59,0,0,0,1.18-1.65l.65.43a21.36,21.36,0,0,1-2.22,3,3.79,3.79,0,0,1-2.69,1.25,2.27,2.27,0,0,1-1.45-.51,1.9,1.9,0,0,1-.65-1.57A6.12,6.12,0,0,1,83.52,121.83Zm7-17.32a2,2,0,0,1,.57,1.44,2.06,2.06,0,0,1-.57,1.46,1.95,1.95,0,0,1-2.81,0,2,2,0,0,1-.59-1.46,2,2,0,0,1,.59-1.44,1.95,1.95,0,0,1,2.81,0Z" fill="#231f20"/><path d="M90.89,124.76c.81-2.91,1.48-5.41,2-7.5a27.08,27.08,0,0,0,.9-4,.71.71,0,0,0-.36-.73,3.27,3.27,0,0,0-1.24-.17v-.8c1.26-.08,2.32-.19,3.19-.31.56-.08,1.51-.25,2.86-.51l-1.64,5.41.13,0a27.4,27.4,0,0,1,2-3.59c.9-1.23,1.76-1.85,2.59-1.85a1.45,1.45,0,0,1,1.27.59,2.26,2.26,0,0,1,.42,1.33,2.87,2.87,0,0,1-.46,1.58,1.41,1.41,0,0,1-1.26.7,1.57,1.57,0,0,1-.68-.15,1.39,1.39,0,0,1-.52-.45l-.28-.35a1.06,1.06,0,0,0-.15-.15.33.33,0,0,0-.21-.06c-.37,0-.86.52-1.47,1.58a21.35,21.35,0,0,0-1.53,3.21c-.29.76-.65,1.83-1.07,3.22s-.74,2.39-.94,3Z" fill="#231f20"/><path d="M103,120.12l.78.06a5.09,5.09,0,0,0,1.11,3.15,2.55,2.55,0,0,0,1.76.91,1.53,1.53,0,0,0,1.2-.49,1.66,1.66,0,0,0,.45-1.16,2.79,2.79,0,0,0-.4-1.34,10.08,10.08,0,0,0-.93-1.41l-1.1-1.41a7.52,7.52,0,0,1-1.22-1.88,4.94,4.94,0,0,1-.51-2.14,3.56,3.56,0,0,1,1.11-2.62,4.11,4.11,0,0,1,3-1.1,4.47,4.47,0,0,1,1.65.34,3.93,3.93,0,0,0,1.14.34.74.74,0,0,0,.52-.16,1.53,1.53,0,0,0,.31-.48h.86l-.67,4.67-.78-.08a5.29,5.29,0,0,0-1-2.78,2.12,2.12,0,0,0-1.58-.85,1.45,1.45,0,0,0-1.22.5,1.85,1.85,0,0,0-.38,1.12,2.12,2.12,0,0,0,.28,1,14.27,14.27,0,0,0,1.1,1.57l1.45,1.9a7.38,7.38,0,0,1,.85,1.51,4.5,4.5,0,0,1,.38,1.76,3.75,3.75,0,0,1-1.29,3,4.71,4.71,0,0,1-4.81.78,5,5,0,0,0-1.08-.34.69.69,0,0,0-.55.21,1.35,1.35,0,0,0-.3.47h-.79Z" fill="#231f20"/><path d="M113.75,122.19c.07-.34.19-.87.39-1.58l2.2-8.28h-1.51v-1a12.16,12.16,0,0,0,2.48-1.35,10.84,10.84,0,0,0,3-3.29h1.07l-1.18,4.43h2.13v1.25h-2.48l-1.9,7.07c-.18.63-.31,1.15-.4,1.57a7.49,7.49,0,0,0-.25,1.47.38.38,0,0,0,.17.37.6.6,0,0,0,.28.09c.28,0,.64-.25,1.08-.74a10.94,10.94,0,0,0,1.2-1.7l.65.43a19.31,19.31,0,0,1-2.11,2.86,4,4,0,0,1-2.85,1.34,2,2,0,0,1-1.45-.59,2,2,0,0,1-.58-1.49A4.82,4.82,0,0,1,113.75,122.19Z" fill="#231f20"/><path d="M4.81,140.51a1.77,1.77,0,0,0,.84-.21,2,2,0,0,0,.57-1.05l2.11-7.61c.08-.31.13-.53.16-.65a1.64,1.64,0,0,0,0-.38.59.59,0,0,0-.27-.56,2.19,2.19,0,0,0-.94-.2v-.28h4.26v.28a2.07,2.07,0,0,0-.94.29,1.94,1.94,0,0,0-.47,1l-2.11,7.61c-.07.26-.13.49-.16.66a2.31,2.31,0,0,0,0,.39.58.58,0,0,0,.3.57,2.28,2.28,0,0,0,.87.16v.28H4.81Z" fill="#231f20"/><path d="M10.61,140.79l1.44-5.19c.12-.44.19-.7.21-.8a1.39,1.39,0,0,0,0-.3.52.52,0,0,0-.14-.38.78.78,0,0,0-.54-.14h-.2l-.21,0v-.27l.77-.13.5-.1,1.49-.33a.18.18,0,0,1,.07.08l-1.12,3.61a20.32,20.32,0,0,1,1.73-2.34,3.27,3.27,0,0,1,2.18-1.35,1.41,1.41,0,0,1,.64.14,1,1,0,0,1,.52,1,3,3,0,0,1,0,.42c0,.15-.07.31-.11.47l-1.11,4c0,.08,0,.18-.07.3a1.38,1.38,0,0,0,0,.26.46.46,0,0,0,.06.23.21.21,0,0,0,.19.1.77.77,0,0,0,.48-.26,9.24,9.24,0,0,0,.9-1.1l.24.22a10.63,10.63,0,0,1-1.07,1.31,1.89,1.89,0,0,1-1.29.67.93.93,0,0,1-.54-.19.79.79,0,0,1-.26-.69,1.62,1.62,0,0,1,0-.3,1.78,1.78,0,0,1,.05-.28l1.07-4.08a4.74,4.74,0,0,0,.12-.55,2.44,2.44,0,0,0,0-.3.63.63,0,0,0-.1-.35.37.37,0,0,0-.34-.15c-.43,0-1,.38-1.61,1.14a13.66,13.66,0,0,0-1.16,1.62,8.77,8.77,0,0,0-.69,1.42c-.17.46-.43,1.3-.8,2.52Z" fill="#231f20"/><path d="M19.28,138.29h.28a5.07,5.07,0,0,0,.44,1.48,1.46,1.46,0,0,0,1.37.87,1.15,1.15,0,0,0,.86-.36,1.29,1.29,0,0,0,.35-1,1.69,1.69,0,0,0-.09-.6,1.59,1.59,0,0,0-.22-.43l-.7-1c-.42-.63-.68-1-.79-1.26a2.13,2.13,0,0,1-.24-1,1.82,1.82,0,0,1,.53-1.29,2,2,0,0,1,1.49-.56,3.19,3.19,0,0,1,.94.16,3.21,3.21,0,0,0,.72.15.52.52,0,0,0,.31-.08.9.9,0,0,0,.19-.23H25l-.34,2.39h-.28a3.8,3.8,0,0,0-.33-1.23,1.34,1.34,0,0,0-1.28-.76,1,1,0,0,0-.66.23.81.81,0,0,0-.29.67,1.48,1.48,0,0,0,.13.61,10.33,10.33,0,0,0,.6.92l.59.86a7.48,7.48,0,0,1,.66,1.08,2.12,2.12,0,0,1,.19.91,1.92,1.92,0,0,1-.77,1.53,2.88,2.88,0,0,1-1.84.62,5.14,5.14,0,0,1-1-.14,6.64,6.64,0,0,0-.74-.15.36.36,0,0,0-.25.08.83.83,0,0,0-.15.22H19Z" fill="#231f20"/><path d="M27.17,134.73l0-.16a.66.66,0,0,0,0-.14c0-.25-.07-.39-.21-.45a2.8,2.8,0,0,0-.8-.08v-.23l1.24-.24,1.36-.26a.08.08,0,0,1,.07.05.16.16,0,0,1,0,.09l0,.14-1.63,5.68a2.51,2.51,0,0,0-.08.33.69.69,0,0,0,0,.16.45.45,0,0,0,.11.31.4.4,0,0,0,.29.11c.33,0,.75-.3,1.25-.89a15.28,15.28,0,0,0,1.34-1.83,13.92,13.92,0,0,0,1-1.89c.18-.43.44-1.12.78-2.06h1.27l-1.65,6c0,.11,0,.21-.08.31a1.12,1.12,0,0,0,0,.24.35.35,0,0,0,.05.18.19.19,0,0,0,.18.08.45.45,0,0,0,.25-.09,3.74,3.74,0,0,0,.33-.3,4.57,4.57,0,0,0,.33-.4l.45-.56.24.16a7.11,7.11,0,0,1-.8,1.1,2.23,2.23,0,0,1-1.53.93.89.89,0,0,1-.6-.2.79.79,0,0,1-.24-.63,4.23,4.23,0,0,1,0-.48c0-.17.08-.37.14-.58.1-.4.24-.89.4-1.48l.22-.79h-.06a25.3,25.3,0,0,1-1.84,2.78,3.12,3.12,0,0,1-2.2,1.39,1.19,1.19,0,0,1-.51-.11.87.87,0,0,1-.44-.85,2.27,2.27,0,0,1,0-.28q0-.1.06-.3Z" fill="#231f20"/><path d="M37.11,133.19a.23.23,0,0,1,0,.11c0,.06,0,.1,0,.13l-.86,3.27.2-.38a11.89,11.89,0,0,1,1.41-2.17,2.18,2.18,0,0,1,1.54-1,.76.76,0,0,1,.61.26,1,1,0,0,1,0,1.23.75.75,0,0,1-.59.24.66.66,0,0,1-.4-.1.74.74,0,0,1-.2-.23l-.11-.19a.27.27,0,0,0-.07-.08.24.24,0,0,0-.12,0c-.22,0-.53.31-.94.92a13.5,13.5,0,0,0-1.11,2c-.2.43-.41,1-.66,1.72-.15.44-.35,1.08-.6,1.9H33.94l1.4-5c.07-.3.14-.56.19-.79a3.4,3.4,0,0,0,.07-.56.54.54,0,0,0-.13-.38.58.58,0,0,0-.44-.14l-.25,0-.36,0v-.28l.34-.06,1.43-.29.82-.15A.11.11,0,0,1,37.11,133.19Z" fill="#231f20"/><path d="M45.75,133.52a1.14,1.14,0,0,1,.3.49l.05.11.18-.63a.58.58,0,0,1,.07-.14s0,0,.11,0l1-.11s.08,0,.09,0a.19.19,0,0,1,0,.11c0,.07,0,.13-.06.17l-.05.18-.83,3c-.18.66-.34,1.22-.46,1.7a12.17,12.17,0,0,0-.31,1.47.21.21,0,0,0,.06.17.21.21,0,0,0,.16.06.37.37,0,0,0,.16-.05l.23-.15.15-.12.16-.14.21-.2.55-.53.2.17a9.09,9.09,0,0,1-1.44,1.52,1.82,1.82,0,0,1-1,.4.61.61,0,0,1-.49-.22.9.9,0,0,1-.17-.55,5.12,5.12,0,0,1,.11-.86c.08-.38.15-.7.23-.95-.1.16-.27.41-.51.73a5.89,5.89,0,0,1-.88.94,4.26,4.26,0,0,1-1.17.77,2.57,2.57,0,0,1-.84.15,1.67,1.67,0,0,1-1.23-.56,2.14,2.14,0,0,1-.56-1.58,5.86,5.86,0,0,1,1.6-3.68,4.57,4.57,0,0,1,3.41-2A1.45,1.45,0,0,1,45.75,133.52Zm-.27.32a.94.94,0,0,0-.68-.29c-.93,0-1.78.7-2.57,2.1a6.77,6.77,0,0,0-1,3.19,1.4,1.4,0,0,0,.29,1,.92.92,0,0,0,.72.31c.84,0,1.65-.68,2.44-2a6.6,6.6,0,0,0,1.13-3.35A1.26,1.26,0,0,0,45.48,133.84Z" fill="#231f20"/><path d="M48.3,140.79l1.43-5.19c.13-.44.2-.7.22-.8a1.39,1.39,0,0,0,0-.3.52.52,0,0,0-.14-.38.8.8,0,0,0-.54-.14h-.2l-.22,0v-.27l.78-.13.49-.1,1.5-.33a.16.16,0,0,1,.06.08l-1.11,3.61a20.47,20.47,0,0,1,1.72-2.34,3.29,3.29,0,0,1,2.19-1.35,1.44,1.44,0,0,1,.64.14,1,1,0,0,1,.51,1,2,2,0,0,1,0,.42,4.52,4.52,0,0,1-.11.47l-1.1,4a3.09,3.09,0,0,0-.08.3,1.16,1.16,0,0,0,0,.26.46.46,0,0,0,.06.23.21.21,0,0,0,.19.1.77.77,0,0,0,.48-.26,9.48,9.48,0,0,0,.89-1.1l.25.22a10.63,10.63,0,0,1-1.07,1.31,1.91,1.91,0,0,1-1.3.67,1,1,0,0,1-.54-.19.82.82,0,0,1-.26-.69c0-.09,0-.19,0-.3s0-.2.06-.28l1.07-4.08a4.4,4.4,0,0,0,.11-.55,2.44,2.44,0,0,0,0-.3.63.63,0,0,0-.09-.35.39.39,0,0,0-.35-.15c-.42,0-1,.38-1.61,1.14a13.67,13.67,0,0,0-1.15,1.62,8,8,0,0,0-.69,1.42q-.26.69-.81,2.52Z" fill="#231f20"/><path d="M63.26,133.67a1.31,1.31,0,0,1,.45.89.79.79,0,0,1-.23.61.78.78,0,0,1-.56.22.74.74,0,0,1-.52-.19.63.63,0,0,1-.21-.48,1,1,0,0,1,.14-.47,1.09,1.09,0,0,0,.14-.33.3.3,0,0,0-.17-.25,1.11,1.11,0,0,0-.55-.11,2.81,2.81,0,0,0-2.35,1.54,5.89,5.89,0,0,0-1,3.23,2.44,2.44,0,0,0,.41,1.49,1.41,1.41,0,0,0,1.21.53,2.33,2.33,0,0,0,1.25-.37,5,5,0,0,0,1.12-.95l.06-.07.25.18a6.29,6.29,0,0,1-1.14,1.16,3.6,3.6,0,0,1-2.14.69,2.41,2.41,0,0,1-1.82-.72,2.66,2.66,0,0,1-.7-2,5,5,0,0,1,1.55-3.51,4.6,4.6,0,0,1,3.33-1.59A2,2,0,0,1,63.26,133.67Z" fill="#231f20"/><path d="M65.83,135a4.79,4.79,0,0,1,3.44-1.74,1.67,1.67,0,0,1,1,.3,1.09,1.09,0,0,1,.38.9,2.44,2.44,0,0,1-1.41,2.06,7.26,7.26,0,0,1-3,1.05l-.48.06c-.07.23-.12.42-.15.55a2.55,2.55,0,0,0,0,.52,1.43,1.43,0,0,0,.48,1.15,1.74,1.74,0,0,0,1.15.41,2.61,2.61,0,0,0,1.33-.42,10.5,10.5,0,0,0,1.17-.87l.22.19a5,5,0,0,1-1.08,1,4.31,4.31,0,0,1-2.51.9,2.22,2.22,0,0,1-1.57-.63,2.34,2.34,0,0,1-.67-1.8A5.23,5.23,0,0,1,65.83,135Zm2.72,1.13a2.49,2.49,0,0,0,1-1.77.79.79,0,0,0-.15-.51.53.53,0,0,0-.45-.19,1.63,1.63,0,0,0-1.07.47,6.29,6.29,0,0,0-.94,1,8.56,8.56,0,0,0-.71,1.31l-.3.77A5,5,0,0,0,68.55,136.08Z" fill="#231f20"/><path d="M84.57,129.55a7.24,7.24,0,0,0,1.06.21.71.71,0,0,0,.44-.11.79.79,0,0,0,.21-.28h.35L86,132.8l-.3-.05a3.94,3.94,0,0,0-.46-1.63A2.32,2.32,0,0,0,83.05,130a4.48,4.48,0,0,0-3.87,2.35,8,8,0,0,0-1.33,4.42,3.89,3.89,0,0,0,.81,2.68,2.64,2.64,0,0,0,2.07.91,4.65,4.65,0,0,0,2.41-.64,10.7,10.7,0,0,0,1.68-1.38l.28.24A7.68,7.68,0,0,1,83,140.43a5.18,5.18,0,0,1-2.61.68,4.05,4.05,0,0,1-3.3-1.36,4.76,4.76,0,0,1-1.15-3.17,7.17,7.17,0,0,1,1.92-4.81A6.55,6.55,0,0,1,83,129.35,7.46,7.46,0,0,1,84.57,129.55Z" fill="#231f20"/><path d="M93.5,133.93a2.84,2.84,0,0,1,.57,1.77,5.19,5.19,0,0,1-1.57,3.5A4.7,4.7,0,0,1,89,141a2.54,2.54,0,0,1-1.85-.68,2.46,2.46,0,0,1-.7-1.89,5.13,5.13,0,0,1,1.56-3.51,4.7,4.7,0,0,1,3.46-1.73A2.35,2.35,0,0,1,93.5,133.93Zm-5.21,6.21a1.21,1.21,0,0,0,1,.46c.92,0,1.72-.69,2.43-2.07a7.25,7.25,0,0,0,.9-3.26,2.83,2.83,0,0,0-.15-1,1.08,1.08,0,0,0-1.08-.73c-.85,0-1.66.64-2.41,1.92A7,7,0,0,0,87.94,139,1.85,1.85,0,0,0,88.29,140.14Z" fill="#231f20"/><path d="M101.5,133.38a1,1,0,0,1,.41.91,3.37,3.37,0,0,1-.14.79c-.09.34-.26.88-.5,1.63a18.21,18.21,0,0,1,1.61-2.17,3.27,3.27,0,0,1,2.15-1.35,1.12,1.12,0,0,1,.73.27,1,1,0,0,1,.33.86,7.13,7.13,0,0,1-.16.9l-1.33,4.58a.29.29,0,0,0,0,.22.22.22,0,0,0,.22.12.45.45,0,0,0,.26-.08,1.44,1.44,0,0,0,.29-.25,3.58,3.58,0,0,0,.28-.3l.6-.73.26.2-.09.12a7,7,0,0,1-1.22,1.37A1.88,1.88,0,0,1,104,141a.75.75,0,0,1-.45-.14.86.86,0,0,1-.28-.73,1.32,1.32,0,0,1,0-.27,2.49,2.49,0,0,1,.06-.32l1.3-4.71a1.36,1.36,0,0,0,0-.17.53.53,0,0,0,0-.13.43.43,0,0,0-.1-.31.37.37,0,0,0-.27-.11,2,2,0,0,0-1.34.85,14.47,14.47,0,0,0-1.33,1.72,9.3,9.3,0,0,0-.72,1.5c-.14.4-.4,1.27-.77,2.63H98.88l1.68-6,0-.14a.77.77,0,0,0,0-.15.51.51,0,0,0-.09-.32.38.38,0,0,0-.3-.11c-.36,0-.81.29-1.34.88a14.71,14.71,0,0,0-1.3,1.65,9.52,9.52,0,0,0-1,2c-.18.51-.41,1.23-.71,2.18H94.63l1.62-6a1.16,1.16,0,0,0,0-.18.9.9,0,0,0,0-.18c0-.22-.08-.35-.23-.4a3.81,3.81,0,0,0-.87,0v-.27c.56-.09,1.47-.28,2.73-.56l.07.06-1,3.44a21.42,21.42,0,0,1,1.79-2.28,3.14,3.14,0,0,1,2.05-1.22A1,1,0,0,1,101.5,133.38Z" fill="#231f20"/><path d="M105.3,144.06a1.23,1.23,0,0,0,.76-.19,1.08,1.08,0,0,0,.37-.64l2.33-8.2a4.47,4.47,0,0,0,.1-.44.9.9,0,0,0,0-.21.48.48,0,0,0-.2-.42,1.11,1.11,0,0,0-.6-.13h-.16l-.16,0,0-.27,2.72-.4s.06,0,.08.07-.05.18-.06.23L110,135a7.36,7.36,0,0,1,1-1.12,2.69,2.69,0,0,1,1.74-.71,1.85,1.85,0,0,1,1.43.56,2.41,2.41,0,0,1,.53,1.71,5.49,5.49,0,0,1-1.67,3.76,4.69,4.69,0,0,1-3.41,1.77,2,2,0,0,1-.59-.07,3.09,3.09,0,0,1-.6-.24l-.13.52q-.22.86-.3,1.23a9.65,9.65,0,0,0-.22,1.09c0,.23.07.38.22.44a3,3,0,0,0,.86.12v.26H105.3Zm7.74-9.5a.9.9,0,0,0-.92-.61,2,2,0,0,0-1.26.58,4.15,4.15,0,0,0-1.14,1.91c-.25.7-.48,1.44-.69,2.2a8.39,8.39,0,0,0-.32,1.35.5.5,0,0,0,.26.47,1.22,1.22,0,0,0,.63.15,3.11,3.11,0,0,0,2.57-1.87,6.38,6.38,0,0,0,1-3.31A2.28,2.28,0,0,0,113,134.56Z" fill="#231f20"/><path d="M121.33,133.52a1.25,1.25,0,0,1,.31.49l0,.11.19-.63a.38.38,0,0,1,.06-.14s0,0,.12,0l1-.11s.09,0,.09,0a.19.19,0,0,1,0,.11,1,1,0,0,0,0,.17.93.93,0,0,0-.06.18l-.83,3-.46,1.7a12.17,12.17,0,0,0-.31,1.47.21.21,0,0,0,.06.17.21.21,0,0,0,.16.06.37.37,0,0,0,.16-.05l.23-.15.15-.12.16-.14.21-.2.55-.53.2.17a9.09,9.09,0,0,1-1.44,1.52,1.82,1.82,0,0,1-1,.4.62.62,0,0,1-.5-.22.9.9,0,0,1-.17-.55,5.12,5.12,0,0,1,.11-.86c.08-.38.15-.7.23-.95-.1.16-.27.41-.51.73a5.89,5.89,0,0,1-.88.94,4.12,4.12,0,0,1-1.17.77,2.57,2.57,0,0,1-.84.15,1.67,1.67,0,0,1-1.23-.56,2.14,2.14,0,0,1-.56-1.58,5.86,5.86,0,0,1,1.6-3.68,4.57,4.57,0,0,1,3.41-2A1.45,1.45,0,0,1,121.33,133.52Zm-.27.32a.94.94,0,0,0-.68-.29c-.92,0-1.78.7-2.57,2.1a6.77,6.77,0,0,0-1,3.19,1.4,1.4,0,0,0,.29,1,.92.92,0,0,0,.72.31c.84,0,1.65-.68,2.44-2a6.6,6.6,0,0,0,1.13-3.35A1.26,1.26,0,0,0,121.06,133.84Z" fill="#231f20"/><path d="M123.88,140.79l1.43-5.19c.13-.44.2-.7.22-.8a1.39,1.39,0,0,0,0-.3.52.52,0,0,0-.14-.38.78.78,0,0,0-.54-.14h-.2l-.21,0v-.27l.77-.13.49-.1,1.5-.33a.16.16,0,0,1,.06.08l-1.11,3.61a19.2,19.2,0,0,1,1.73-2.34,3.25,3.25,0,0,1,2.18-1.35,1.44,1.44,0,0,1,.64.14,1,1,0,0,1,.51,1,2,2,0,0,1,0,.42,4.52,4.52,0,0,1-.11.47l-1.1,4-.08.3a1.16,1.16,0,0,0,0,.26.46.46,0,0,0,.06.23.21.21,0,0,0,.19.1.77.77,0,0,0,.48-.26,9.48,9.48,0,0,0,.89-1.1l.25.22a10.63,10.63,0,0,1-1.07,1.31,1.89,1.89,0,0,1-1.3.67,1,1,0,0,1-.54-.19.82.82,0,0,1-.26-.69c0-.09,0-.19,0-.3s0-.2.06-.28l1.07-4.08a4.4,4.4,0,0,0,.11-.55,2.44,2.44,0,0,0,0-.3.63.63,0,0,0-.09-.35.39.39,0,0,0-.35-.15c-.42,0-1,.38-1.6,1.14a13.66,13.66,0,0,0-1.16,1.62,8.77,8.77,0,0,0-.69,1.42c-.17.46-.44,1.3-.8,2.52Z" fill="#231f20"/><path d="M131.53,143.11a.6.6,0,0,1,.49-.19.75.75,0,0,1,.37.08,1.82,1.82,0,0,1,.33.23l.12.08a.24.24,0,0,0,.11.06.32.32,0,0,0,.14,0q.42,0,1.32-1.08a3.2,3.2,0,0,0,.92-1.58,10.7,10.7,0,0,0-.32-1.85c-.21-.91-.41-1.73-.61-2.44a8.2,8.2,0,0,0-.75-2.05,1.11,1.11,0,0,0-1-.54l-.18,0-.41,0v-.27l2.29-.45.18,0c.14,0,.41.62.8,1.89a22,22,0,0,1,.67,2.51l.34,2c.59-1,1-1.74,1.29-2.27a5.86,5.86,0,0,0,.81-2.17,1,1,0,0,0-.05-.29.48.48,0,0,0-.23-.24l-.15-.07a1.47,1.47,0,0,1-.31-.25.7.7,0,0,1-.18-.5.6.6,0,0,1,.17-.44.69.69,0,0,1,.5-.17,1,1,0,0,1,.68.24,1.17,1.17,0,0,1,.26.85,7.82,7.82,0,0,1-1,2.89,30.62,30.62,0,0,1-1.69,2.94,25.63,25.63,0,0,1-2,2.74c-.89,1-1.63,1.52-2.22,1.52a.93.93,0,0,1-.6-.21.72.72,0,0,1-.1-1Z" fill="#231f20"/></svg>