<svg xmlns="http://www.w3.org/2000/svg" viewBox="0 0 319.49 104.74"><title>logoblack</title><polygon points="19.1 92.51 16.15 96.14 11.79 94.45 14.33 98.38 11.38 102.01 15.9 100.81 18.44 104.74 18.69 100.07 23.21 98.86 18.85 97.18 19.1 92.51" fill="#231f20"/><polygon points="11.18 80.22 12.81 75.83 8.91 78.42 5.24 75.52 6.5 80.03 2.61 82.62 7.29 82.81 8.55 87.32 10.17 82.93 14.85 83.12 11.18 80.22" fill="#231f20"/><polygon points="4.16 66.21 7.08 62.56 11.46 64.22 8.89 60.3 11.82 56.65 7.3 57.89 4.74 53.98 4.52 58.65 0 59.88 4.38 61.54 4.16 66.21" fill="#231f20"/><polygon points="128.21 41.08 126.97 45.59 130.62 42.67 134.53 45.24 132.88 40.86 136.53 37.94 131.86 38.15 130.21 33.78 128.97 38.29 124.3 38.51 128.21 41.08" fill="#231f20"/><polygon points="6.54 45.24 10.44 42.67 14.1 45.59 12.85 41.08 16.76 38.5 12.08 38.29 10.84 33.78 9.2 38.16 4.52 37.95 8.18 40.86 6.54 45.24" fill="#231f20"/><polygon points="22.3 17.11 19.42 20.79 15.03 19.18 17.64 23.07 14.75 26.76 19.25 25.47 21.87 29.35 22.03 24.67 26.53 23.39 22.14 21.78 22.3 17.11" fill="#231f20"/><polygon points="129.27 94.46 124.9 96.14 121.95 92.51 122.2 97.19 117.84 98.87 122.36 100.07 122.61 104.74 125.15 100.81 129.68 102.02 126.72 98.38 129.27 94.46" fill="#231f20"/><polygon points="135.8 75.53 132.13 78.43 128.24 75.84 129.86 80.23 126.19 83.13 130.87 82.94 132.49 87.33 133.75 82.82 138.43 82.63 134.53 80.04 135.8 75.53" fill="#231f20"/><polygon points="136.33 54.01 133.75 57.92 129.24 56.67 132.16 60.33 129.57 64.23 133.96 62.59 136.87 66.25 136.66 61.58 141.05 59.93 136.54 58.69 136.33 54.01" fill="#231f20"/><polygon points="119 24.66 119.17 29.34 121.78 25.45 126.28 26.73 123.39 23.05 126 19.17 121.61 20.78 118.72 17.09 118.89 21.77 114.5 23.38 119 24.66" fill="#231f20"/><polygon points="111.27 5 107.51 7.79 103.7 5.06 105.18 9.51 101.42 12.28 106.1 12.25 107.58 16.68 108.99 12.22 113.67 12.18 109.86 9.47 111.27 5" fill="#231f20"/><path d="M76.31,30.23h.34v-1.6h.71v-1c4.68-.44,6-1.34,6-1.39l.1-.08v-.8h4.33V22.5h5.25V18h-.25l.25,0,0-.27h-.27c-.74,0-1,.62-1.32,1.16s-.47.89-.88.89-.34-.13-.35-.78c0-.5,0-1.27-.85-1.27s-1.12.61-1.46,1.14-.58.91-1,.91-.43-.24-.55-.83-.25-1.22-1-1.22-1,.62-1.33,1.16-.47.89-.88.89-.64-.34-1-.9-.65-1.15-1.38-1.15-1.07.61-1.38,1.15-.54.9-1,.9-.65-.34-1-.9a2.74,2.74,0,0,0-.82-1v-2a8.34,8.34,0,0,0,3.77-6.65C80.54,7,79.82,4,75.92,1.43,73.08-.43,68-.08,62.15.32,57.34.65,51.89,1,46.72.25l-.27.64A14.41,14.41,0,0,0,50.36,3c-4.52.8-15.21,2.08-30.25-.06a1.49,1.49,0,0,0-.39-.05l0,.72.31,0c.43.13,1.3.5,2.2.89A65.7,65.7,0,0,0,30.65,7.7l.56,1.76-3.8,2.74,4.68,0,1.43,4.45L35,12.23l4.68,0L35.89,9.49l.19-.58a34.36,34.36,0,0,0,4.26.41c12,.41,18.41,3.41,22.21,5.2a10.8,10.8,0,0,0,4,1.4v1.81c-.57.11-.88.64-1.15,1.12s-.54.9-.94.9-.65-.34-1-.9-.66-1.15-1.4-1.15-1,.65-1.26,1.18-.4.87-.81.87-.76-.45-1.1-.92-.8-1.13-1.5-1.13-.94.71-1,1.22-.21.83-.56.83-.73-.42-1-.91S54,17.7,53.3,17.7a.77.77,0,0,0-.57.21A1.46,1.46,0,0,0,52.48,19a1.22,1.22,0,0,1-.1.71.28.28,0,0,1-.21.06c-.36,0-.48-.26-.67-.85s-.39-1.2-1.15-1.2l-.24.06V21h0V22.5h5.25v2.82H59.7v.8l.1.08c.06.05,1.34.94,6,1.39v1h.72v1.6h.36L67,32.77H45.69L32.77,80.7a13.2,13.2,0,0,1-1,2.91,3.13,3.13,0,0,1-1.17,1.17,5,5,0,0,1-2.27.39v8.5H47.08v-8.5a13,13,0,0,1-2.8-.17,2,2,0,0,1-1.12-.83,2.37,2.37,0,0,1-.35-1.26,14.12,14.12,0,0,1,.48-2.56L46.73,67.7H55V80.37c0,.87.2,2.86-1,3.82a2.52,2.52,0,0,1-1.55.89l-2.12.09v8.5H69l.09,2.57a2.56,2.56,0,0,0-.54,1.56v.88a2.57,2.57,0,0,0,2.57,2.57H72a2.58,2.58,0,0,0,2.57-2.57V97.8a2.54,2.54,0,0,0-.52-1.53l.09-2.6H93.26v-8.5H91.53a4.69,4.69,0,0,1-2.32-.39c-.41-.26-.48-.79-.88-1.19s-.27-1.56-.27-3.09V67.82h2.29a6.36,6.36,0,0,1,3.39.75,7.77,7.77,0,0,1,1.4,1.5h4.91V56.61H94.61a3.31,3.31,0,0,1-.83,1.59,7.65,7.65,0,0,1-3.36.66H88.06V42.78h11a23.12,23.12,0,0,1,4.56.31,5.71,5.71,0,0,1,4.28,4l5.37,0V32.77h-37ZM54.93,58.83H49l4.27-16.08h1.64Zm7.92-45C59,12.06,52.57,9,40.37,8.6,32.94,8.35,26.44,5.61,22.8,4c15.74,1.88,26.27,0,29.26-.62l0-.71a11.17,11.17,0,0,1-3.9-1.54A80.27,80.27,0,0,0,62.2,1C67.94.64,72.89.3,75.53,2c3.62,2.36,4.28,5.17,4.2,7.1a7.6,7.6,0,0,1-3.4,6.06H66.75C65.84,15.28,64.59,14.69,62.85,13.87Zm13.33,2v1.8h-.09c-.72,0-1.07.61-1.37,1.15s-.54.9-.94.9-.63-.34-1-.9-.65-1.15-1.38-1.15-1.07.61-1.38,1.15-.54.9-.95.9-.64-.34-1-.9-.57-1-1.12-1.11V15.91ZM50.61,18.27c.18.11.28.36.41.78s.39,1.2,1.15,1.2a.77.77,0,0,0,.57-.21A1.46,1.46,0,0,0,53,19c0-.28,0-.59.11-.7s.06-.07.21-.07c.45,0,.72.42,1,.91s.73,1.14,1.46,1.14.94-.71,1.05-1.22.21-.83.56-.83.76.45,1.1.92.8,1.13,1.5,1.13,1-.65,1.27-1.17.4-.88.8-.88.65.34,1,.9.66,1.15,1.4,1.15,1.07-.61,1.38-1.15.53-.9.94-.9.64.34,1,.9.66,1.15,1.39,1.15,1.08-.61,1.38-1.15.54-.9,1-.9.63.34,1,.9.65,1.15,1.38,1.15,1.07-.61,1.37-1.15.54-.9.94-.9.65.34,1,.9.66,1.15,1.4,1.15,1.08-.61,1.38-1.15.54-.9,1-.9.63.34,1,.9.66,1.15,1.39,1.15,1-.62,1.33-1.16.47-.89.88-.89.43.24.55.83.26,1.22,1,1.22,1.11-.61,1.45-1.14.58-.91,1-.91c.28,0,.34.13.35.78,0,.5,0,1.27.85,1.27s1.06-.62,1.33-1.16.37-.72.62-.83v2.26h-42Zm0,3.73V21h42v1h-42Zm5.25,2.82V22.5H87.33v2.32Zm9.94,2.26c-3.77-.36-5.24-1-5.6-1.22v-.54H83v.54c-.38.2-1.87.86-5.64,1.22H65.8Zm.5,1.05v-.55H76.86v.55Zm7.57,70.55A1.84,1.84,0,0,1,72,100.53h-.89a1.85,1.85,0,0,1-1.85-1.85V97.8A1.85,1.85,0,0,1,71.14,96H72a1.84,1.84,0,0,1,1.84,1.85Zm-.49-3.06A2.51,2.51,0,0,0,72,95.23h-.89a2.52,2.52,0,0,0-1.33.38L67.6,30.34h8Zm2.77-66H67v-1h9.13Z" fill="#231f20"/><path d="M159.05,52.25a6.9,6.9,0,0,1-1.92-.39c-.31-.15-.46-.49-.46-1a2.45,2.45,0,0,1,.17-.89,5.22,5.22,0,0,1,.39-.86l2.15-3.87h8c.21,1.63.33,2.55.36,2.77.13,1.08.2,1.77.2,2a1.81,1.81,0,0,1-.66,1.67,5.66,5.66,0,0,1-2.25.53v.91h11.21v-.91a3.84,3.84,0,0,1-2.22-.63,5.59,5.59,0,0,1-.86-2.69l-3.54-21.8h-1L154.91,49.55a7.2,7.2,0,0,1-1.6,2,5,5,0,0,1-1.52.69v.91h7.26Zm6.68-17.81,1.37,9.28h-6.84Z" fill="#231f20"/><path d="M180.78,41l-3.24,12.2H182c.55-2,1-3.54,1.33-4.59a34.76,34.76,0,0,1,1.39-4.06,21.08,21.08,0,0,1,2.53-4.43c.88-1.13,1.59-1.7,2.13-1.7a.81.81,0,0,1,.47.14q.21.13.21.66a2.84,2.84,0,0,1-.09.69c-.06.24-.14.51-.24.8l-3.27,12.49h4.44q1.77-5.71,2.22-6.81a13.2,13.2,0,0,1,.89-1.87,23.58,23.58,0,0,1,3-4.11c1.21-1.33,2.3-2,3.26-2a1,1,0,0,1,.79.32,1.37,1.37,0,0,1,.23.8,2.19,2.19,0,0,1,0,.36q0,.2-.06.36l-1.52,5.83c-.34,1-.61,1.78-.82,2.51a11.56,11.56,0,0,0-.48,2.77,1.89,1.89,0,0,0,.81,1.72,3.17,3.17,0,0,0,1.75.52,4.88,4.88,0,0,0,3.51-1.73,19.88,19.88,0,0,0,2.33-3.3L206,48a18.87,18.87,0,0,1-1.11,1.68c-.63.83-1.11,1.25-1.46,1.25a.79.79,0,0,1-.39-.12.37.37,0,0,1-.21-.33,2.71,2.71,0,0,1,.19-.77c.13-.36.26-.71.41-1.05l2-6c.23-.83.35-1.32.38-1.45a10.71,10.71,0,0,0,.34-2.33,3.25,3.25,0,0,0-.82-2.38,3.39,3.39,0,0,0-2.54-.85,7.57,7.57,0,0,0-4.93,2,28.85,28.85,0,0,0-3.74,4.21c.2-.67.36-1.22.48-1.66a7.93,7.93,0,0,0,.32-2.08,2.32,2.32,0,0,0-2.4-2.48,5.85,5.85,0,0,0-4.22,2.09,37.48,37.48,0,0,0-3.65,5.06l-.13-.09,2.23-7.06c-1.61.33-2.78.54-3.48.64-1.09.16-2.42.29-4,.39v1a6.51,6.51,0,0,1,1.64.23c.25.09.37.35.37.75a4.14,4.14,0,0,1-.09.84C181.1,39.74,181,40.25,180.78,41Z" fill="#231f20"/><path d="M222.38,38.36a14.11,14.11,0,0,1-4.81.67l2.18-8.45a2.42,2.42,0,0,1,.74-1.4,3.1,3.1,0,0,1,1.71-.33q4.22,0,5.63,2a7.15,7.15,0,0,1,.85,3.89l1,.17,1.58-7.24H211.58v1a7.92,7.92,0,0,1,2.19.39c.33.16.5.55.5,1.16a6.51,6.51,0,0,1-.16,1.24c-.06.26-.13.57-.22.91l-4.54,17.1a3.85,3.85,0,0,1-1,2.05,3.87,3.87,0,0,1-2,.68v1H217.3v-1a4.67,4.67,0,0,1-1.74-.24,1.49,1.49,0,0,1-.92-1.51,1.81,1.81,0,0,1,0-.4,4.47,4.47,0,0,1,.09-.45l2.43-9.31c2.1,0,3.47.27,4.11.82a3.36,3.36,0,0,1,1,2.7q0,.22,0,.63c0,.27-.05.6-.1,1l1,.18,2.74-10.42-1-.13C224,36.87,223.13,38,222.38,38.36Z" fill="#231f20"/><path d="M236,49.85c-.56.65-1,1-1.39,1a.7.7,0,0,1-.4-.12c-.12-.08-.18-.26-.18-.53a11,11,0,0,1,.32-1.79c.09-.36.25-1,.49-1.93l2.87-10.86-1.58.32c-.55.11-1.48.25-2.8.4s-2.33.26-3,.31v1a5.81,5.81,0,0,1,1.71.25c.31.12.47.44.47.95a1.39,1.39,0,0,1,0,.27l-.06.3L230.07,48c-.17.63-.29,1.14-.38,1.52a8.1,8.1,0,0,0-.21,1.47,2.39,2.39,0,0,0,.8,2,2.83,2.83,0,0,0,1.82.64A4.74,4.74,0,0,0,235.46,52a26.92,26.92,0,0,0,2.77-3.69l-.81-.54A15.29,15.29,0,0,1,236,49.85Z" fill="#231f20"/><path d="M238.39,27.84a2.32,2.32,0,0,0-1.75-.74,2.36,2.36,0,0,0-1.76.74,2.61,2.61,0,0,0,0,3.62,2.38,2.38,0,0,0,1.76.76,2.34,2.34,0,0,0,1.75-.76,2.64,2.64,0,0,0,0-3.62Z" fill="#231f20"/><path d="M244.55,49.42c.53-1.74,1-3.08,1.33-4a27.33,27.33,0,0,1,1.92-4c.75-1.32,1.37-2,1.84-2a.42.42,0,0,1,.26.08,1.07,1.07,0,0,1,.19.18l.34.45a1.77,1.77,0,0,0,.66.56,2,2,0,0,0,.84.18,1.78,1.78,0,0,0,1.58-.87,3.52,3.52,0,0,0,.57-2,2.88,2.88,0,0,0-.51-1.66,1.82,1.82,0,0,0-1.6-.75c-1,0-2.11.77-3.23,2.31a34.49,34.49,0,0,0-2.54,4.49l-.17,0,2.06-6.76c-1.69.33-2.88.54-3.58.64q-1.63.24-4,.39v1a4,4,0,0,1,1.55.21c.3.13.45.44.45.91a33.22,33.22,0,0,1-1.12,5c-.64,2.62-1.47,5.74-2.49,9.38h4.46C243.62,52.4,244,51.16,244.55,49.42Z" fill="#231f20"/><path d="M258.54,52.51a3.16,3.16,0,0,1-2.2-1.14A6.42,6.42,0,0,1,255,47.43l-1-.08-.83,6.35h1a2,2,0,0,1,.38-.6.87.87,0,0,1,.68-.26,6.55,6.55,0,0,1,1.35.43,5.74,5.74,0,0,0,2.09.43,5.8,5.8,0,0,0,3.93-1.4,4.71,4.71,0,0,0,1.61-3.71,5.67,5.67,0,0,0-.47-2.21,9.09,9.09,0,0,0-1.07-1.89l-1.82-2.38a17.41,17.41,0,0,1-1.36-2,2.64,2.64,0,0,1-.36-1.31,2.19,2.19,0,0,1,.49-1.39,1.78,1.78,0,0,1,1.51-.64,2.69,2.69,0,0,1,2,1.07,6.69,6.69,0,0,1,1.28,3.48l1,.09.83-5.83h-1.06a1.9,1.9,0,0,1-.4.6.89.89,0,0,1-.65.2,5,5,0,0,1-1.42-.43,5.7,5.7,0,0,0-2.06-.42,5.13,5.13,0,0,0-3.76,1.37,4.45,4.45,0,0,0-1.39,3.28A6.29,6.29,0,0,0,256,42.9a9.4,9.4,0,0,0,1.54,2.34L258.94,47a13.78,13.78,0,0,1,1.16,1.77,3.59,3.59,0,0,1,.5,1.67A2.12,2.12,0,0,1,260,51.9,2,2,0,0,1,258.54,52.51Z" fill="#231f20"/><path d="M269.85,53.57a5,5,0,0,0,3.56-1.68,23.34,23.34,0,0,0,2.64-3.57l-.81-.54a13.16,13.16,0,0,1-1.51,2.12c-.55.62-1,.93-1.34.93a.73.73,0,0,1-.36-.11.48.48,0,0,1-.2-.46,10.29,10.29,0,0,1,.3-1.85c.12-.52.29-1.17.5-1.95L275,37.62h3.09V36.05h-2.66l1.47-5.53h-1.34a13.41,13.41,0,0,1-3.71,4.12,15.81,15.81,0,0,1-3.09,1.67v1.31h1.88L267.91,48c-.24.89-.4,1.55-.48,2a5.71,5.71,0,0,0-.12,1,2.52,2.52,0,0,0,.73,1.87A2.43,2.43,0,0,0,269.85,53.57Z" fill="#231f20"/><path d="M156,70.61l2.63-9.51a2.45,2.45,0,0,1,.59-1.22,2.51,2.51,0,0,1,1.17-.36v-.35h-5.32v.35a2.84,2.84,0,0,1,1.18.24.74.74,0,0,1,.34.71,2.5,2.5,0,0,1-.05.47c0,.16-.1.43-.2.81l-2.64,9.51a2.43,2.43,0,0,1-.72,1.32,2.16,2.16,0,0,1-1,.27v.35h5.27v-.35a2.87,2.87,0,0,1-1.09-.21.7.7,0,0,1-.38-.7,3,3,0,0,1,.06-.5C155.84,71.23,155.91,71,156,70.61Z" fill="#231f20"/><path d="M167.56,72.06a1,1,0,0,1-.6.32.25.25,0,0,1-.23-.13.54.54,0,0,1-.08-.28,1.48,1.48,0,0,1,.06-.32q0-.23.09-.39l1.38-5c.06-.21.1-.41.14-.59a3.27,3.27,0,0,0,.05-.53,1.29,1.29,0,0,0-.64-1.25,1.73,1.73,0,0,0-.81-.17,4.08,4.08,0,0,0-2.72,1.68A24.86,24.86,0,0,0,162,68.3l1.39-4.51a.14.14,0,0,0-.08-.09l-1.87.4-.62.13-1,.16v.34l.26,0,.25,0a1,1,0,0,1,.68.18.65.65,0,0,1,.17.48,1.5,1.5,0,0,1,0,.37c0,.12-.11.45-.26,1l-1.8,6.49h1.61c.46-1.53.79-2.58,1-3.15a10,10,0,0,1,.87-1.78,19.59,19.59,0,0,1,1.44-2c.81-.95,1.48-1.42,2-1.42a.47.47,0,0,1,.43.18.78.78,0,0,1,.12.44c0,.07,0,.2,0,.38s-.07.41-.14.69l-1.34,5.1a2.39,2.39,0,0,0-.07.35,2.51,2.51,0,0,0,0,.37,1,1,0,0,0,.33.86,1.1,1.1,0,0,0,.67.24,2.4,2.4,0,0,0,1.62-.83A13.77,13.77,0,0,0,169,71l-.31-.27A11.36,11.36,0,0,1,167.56,72.06Z" fill="#231f20"/><path d="M176.54,64a.63.63,0,0,1-.39.1,3.84,3.84,0,0,1-.9-.19,4.23,4.23,0,0,0-1.18-.19,2.44,2.44,0,0,0-1.86.69,2.3,2.3,0,0,0-.66,1.61,2.55,2.55,0,0,0,.31,1.2c.13.27.46.79,1,1.58l.87,1.29a2,2,0,0,1,.39,1.29,1.67,1.67,0,0,1-.43,1.2,1.44,1.44,0,0,1-1.08.45,1.85,1.85,0,0,1-1.72-1.08,7.11,7.11,0,0,1-.55-1.86H170l-.42,3.43h.34a.8.8,0,0,1,.19-.28.4.4,0,0,1,.31-.1,8.06,8.06,0,0,1,.92.18,6,6,0,0,0,1.23.18,3.56,3.56,0,0,0,2.3-.78,2.37,2.37,0,0,0,1-1.91,2.7,2.7,0,0,0-.24-1.13,9.32,9.32,0,0,0-.82-1.36L174,67.23a11.42,11.42,0,0,1-.74-1.15,1.67,1.67,0,0,1-.16-.76,1,1,0,0,1,.36-.84,1.23,1.23,0,0,1,.82-.29,1.7,1.7,0,0,1,1.6,1,4.86,4.86,0,0,1,.41,1.54h.34l.43-3h-.3A1.32,1.32,0,0,1,176.54,64Z" fill="#231f20"/><path d="M186.5,71.4c-.2.25-.34.42-.41.49a4,4,0,0,1-.42.38.53.53,0,0,1-.31.12.25.25,0,0,1-.22-.1.48.48,0,0,1-.06-.24,1.17,1.17,0,0,1,0-.29c0-.12.06-.25.09-.39l2.06-7.46h-1.58c-.42,1.18-.75,2-1,2.58a17.48,17.48,0,0,1-1.21,2.37,19.93,19.93,0,0,1-1.67,2.29c-.63.73-1.15,1.1-1.57,1.1a.48.48,0,0,1-.36-.13.54.54,0,0,1-.14-.38,1,1,0,0,1,0-.21c0-.1.06-.24.11-.41l2-7.1,0-.17a.14.14,0,0,0,0-.12.1.1,0,0,0-.1-.06l-1.69.32-1.56.3v.3a3.28,3.28,0,0,1,1,.1c.17.06.26.25.26.55a1.09,1.09,0,0,1,0,.18c0,.06,0,.13,0,.2l-1.63,5.9c0,.16-.06.28-.08.37a3.21,3.21,0,0,0,0,.36,1.09,1.09,0,0,0,.55,1,1.37,1.37,0,0,0,.64.15A3.89,3.89,0,0,0,182,71.7a30.61,30.61,0,0,0,2.3-3.46h.08l-.28,1c-.2.74-.37,1.35-.5,1.84a7.21,7.21,0,0,0-.16.74,3.19,3.19,0,0,0-.06.59,1,1,0,0,0,.3.79,1.13,1.13,0,0,0,.75.25,2.79,2.79,0,0,0,1.91-1.16,8.51,8.51,0,0,0,1-1.37l-.3-.2Z" fill="#231f20"/><path d="M196.13,64.74a1.13,1.13,0,0,0-.27-.74.92.92,0,0,0-.76-.33,2.69,2.69,0,0,0-1.92,1.23,14,14,0,0,0-1.77,2.7l-.25.49,1.07-4.1a.57.57,0,0,0,0-.16.28.28,0,0,0,0-.13.15.15,0,0,0-.13-.06s-.38.06-1,.19l-1.79.36-.42.08v.35l.45-.05.32,0a.71.71,0,0,1,.54.17.69.69,0,0,1,.16.49,3.6,3.6,0,0,1-.09.7c-.06.29-.14.61-.24,1l-1.75,6.32h1.62c.31-1,.57-1.83.76-2.39a22,22,0,0,1,.82-2.14,16.48,16.48,0,0,1,1.38-2.48c.51-.76.91-1.14,1.18-1.14a.29.29,0,0,1,.24.14l.13.23a.89.89,0,0,0,.26.29.84.84,0,0,0,.49.13.94.94,0,0,0,.74-.31A1.17,1.17,0,0,0,196.13,64.74Z" fill="#231f20"/><path d="M204.47,71.49l-.26.24-.2.18-.19.14a1.54,1.54,0,0,1-.28.19.48.48,0,0,1-.21.06.34.34,0,0,1-.2-.06.29.29,0,0,1-.07-.22,17.15,17.15,0,0,1,.38-1.84c.16-.59.35-1.3.58-2.12l1-3.76c0-.09.05-.17.07-.22a1.94,1.94,0,0,1,.06-.22.2.2,0,0,0,0-.13s0,0-.11,0l-1.21.13a.21.21,0,0,0-.15.06.81.81,0,0,0-.08.18l-.23.79-.06-.15a1.51,1.51,0,0,0-.38-.61,1.82,1.82,0,0,0-1.29-.43c-1.47,0-2.9.83-4.27,2.49a7.34,7.34,0,0,0-2,4.61,2.71,2.71,0,0,0,.69,2,2.14,2.14,0,0,0,1.54.7,3.44,3.44,0,0,0,1.05-.19,5.06,5.06,0,0,0,1.46-1,7.44,7.44,0,0,0,1.1-1.17,9.77,9.77,0,0,0,.63-.92c-.09.32-.18.72-.27,1.19a5.63,5.63,0,0,0-.15,1.08,1.12,1.12,0,0,0,.22.69.73.73,0,0,0,.61.27,2.24,2.24,0,0,0,1.3-.5,11.36,11.36,0,0,0,1.8-1.9l-.25-.22Zm-2.89-1.68c-1,1.71-2,2.56-3.05,2.56a1.19,1.19,0,0,1-.9-.39,1.73,1.73,0,0,1-.36-1.22,8.5,8.5,0,0,1,1.31-4c1-1.75,2.06-2.62,3.21-2.62a1.15,1.15,0,0,1,.85.35,1.52,1.52,0,0,1,.35,1.12A8.26,8.26,0,0,1,201.58,69.81Z" fill="#231f20"/><path d="M214.55,72.06a1,1,0,0,1-.61.32.26.26,0,0,1-.23-.13.53.53,0,0,1-.07-.28,1.3,1.3,0,0,1,.05-.32q0-.23.09-.39l1.38-5a5.5,5.5,0,0,0,.14-.59,2.44,2.44,0,0,0,0-.53,1.29,1.29,0,0,0-.64-1.25,1.69,1.69,0,0,0-.8-.17,4.08,4.08,0,0,0-2.73,1.68A24.86,24.86,0,0,0,209,68.3l1.39-4.51a.14.14,0,0,0-.08-.09l-1.87.4-.62.13-1,.16v.34l.27,0,.24,0a.94.94,0,0,1,.68.18.61.61,0,0,1,.17.48,2.22,2.22,0,0,1,0,.37l-.27,1-1.8,6.49h1.61c.46-1.53.8-2.58,1-3.15a10.69,10.69,0,0,1,.86-1.78,18.18,18.18,0,0,1,1.45-2c.8-.95,1.47-1.42,2-1.42a.49.49,0,0,1,.43.18.78.78,0,0,1,.12.44c0,.07,0,.2,0,.38a5.61,5.61,0,0,1-.14.69l-1.34,5.1A2.39,2.39,0,0,0,212,72a2.51,2.51,0,0,0,0,.37,1,1,0,0,0,.33.86,1.12,1.12,0,0,0,.67.24,2.4,2.4,0,0,0,1.62-.83A12.84,12.84,0,0,0,216,71l-.31-.27A11.6,11.6,0,0,1,214.55,72.06Z" fill="#231f20"/><path d="M223,63.72a5.7,5.7,0,0,0-4.15,2,6.18,6.18,0,0,0-1.94,4.39,3.38,3.38,0,0,0,.87,2.45,3,3,0,0,0,2.27.9,4.47,4.47,0,0,0,2.68-.87,7.76,7.76,0,0,0,1.42-1.44l-.31-.23-.07.08a6.24,6.24,0,0,1-1.4,1.19,3,3,0,0,1-1.57.47,1.75,1.75,0,0,1-1.51-.67,3,3,0,0,1-.51-1.86,7.32,7.32,0,0,1,1.25-4,3.53,3.53,0,0,1,2.93-1.92,1.33,1.33,0,0,1,.69.13.39.39,0,0,1,.22.32,1.23,1.23,0,0,1-.18.41,1.27,1.27,0,0,0-.17.59.79.79,0,0,0,.26.59.9.9,0,0,0,.65.25,1,1,0,0,0,.7-.28,1,1,0,0,0,.29-.76,1.64,1.64,0,0,0-.57-1.12A2.53,2.53,0,0,0,223,63.72Z" fill="#231f20"/><path d="M228,69.19l.6-.08a9.38,9.38,0,0,0,3.72-1.31,3.07,3.07,0,0,0,1.77-2.59,1.34,1.34,0,0,0-.48-1.12,2.07,2.07,0,0,0-1.3-.37A6,6,0,0,0,228,65.9a6.49,6.49,0,0,0-2.1,4.51,2.92,2.92,0,0,0,.84,2.25,2.74,2.74,0,0,0,1.95.79,5.41,5.41,0,0,0,3.14-1.12,7,7,0,0,0,1.36-1.23l-.28-.24A15.75,15.75,0,0,1,231.47,72a3.3,3.3,0,0,1-1.67.52,2.17,2.17,0,0,1-1.44-.51,1.81,1.81,0,0,1-.6-1.44,3.82,3.82,0,0,1,.05-.65C227.85,69.7,227.91,69.47,228,69.19Zm.53-1.43a9.84,9.84,0,0,1,.88-1.64,7.84,7.84,0,0,1,1.18-1.32,2,2,0,0,1,1.34-.58.65.65,0,0,1,.55.24.93.93,0,0,1,.19.63,3.07,3.07,0,0,1-1.26,2.21,6,6,0,0,1-3.26,1.41C228.28,68.36,228.41,68,228.53,67.76Z" fill="#231f20"/><path d="M253.57,58.92a1.11,1.11,0,0,1-.26.36,1,1,0,0,1-.55.12,9,9,0,0,1-1.32-.25,8.92,8.92,0,0,0-2-.25,8.21,8.21,0,0,0-6.4,3,9,9,0,0,0-2.4,6,6,6,0,0,0,1.43,4,5.1,5.1,0,0,0,4.13,1.71,6.44,6.44,0,0,0,3.27-.86,9.18,9.18,0,0,0,2.66-2.35l-.34-.3a13.55,13.55,0,0,1-2.11,1.73,5.89,5.89,0,0,1-3,.8,3.33,3.33,0,0,1-2.59-1.13,4.93,4.93,0,0,1-1-3.35,9.94,9.94,0,0,1,1.66-5.54,5.62,5.62,0,0,1,4.84-2.94,2.91,2.91,0,0,1,2.74,1.44,5,5,0,0,1,.57,2l.38.05.78-4.28Z" fill="#231f20"/><path d="M260.08,63.67a5.84,5.84,0,0,0-4.32,2.16,6.41,6.41,0,0,0-1.95,4.4,3.13,3.13,0,0,0,.87,2.36,3.21,3.21,0,0,0,2.32.84,5.83,5.83,0,0,0,4.33-2.23,6.46,6.46,0,0,0,2-4.37,3.56,3.56,0,0,0-.72-2.22A3,3,0,0,0,260.08,63.67Zm.29,6.7q-1.32,2.58-3,2.58a1.51,1.51,0,0,1-1.28-.57,2.3,2.3,0,0,1-.43-1.44A8.69,8.69,0,0,1,257,66.52c.94-1.6,1.94-2.4,3-2.4a1.35,1.35,0,0,1,1.35.91,3.65,3.65,0,0,1,.19,1.27A9.07,9.07,0,0,1,260.37,70.37Z" fill="#231f20"/><path d="M278.74,71.08l.11-.14-.33-.26-.75.92c-.09.1-.2.23-.34.37a3.43,3.43,0,0,1-.36.31.56.56,0,0,1-.33.1.29.29,0,0,1-.28-.14.35.35,0,0,1,0-.28l1.65-5.73a6.66,6.66,0,0,0,.2-1.12,1.29,1.29,0,0,0-.41-1.08,1.39,1.39,0,0,0-.9-.33,4.11,4.11,0,0,0-2.7,1.68,23.19,23.19,0,0,0-2,2.72c.3-.94.51-1.62.62-2a4,4,0,0,0,.18-1,1.22,1.22,0,0,0-1.27-1.37,3.9,3.9,0,0,0-2.55,1.51A26.53,26.53,0,0,0,267,68.07l1.19-4.3-.09-.07c-1.57.34-2.71.58-3.41.69v.34a3.84,3.84,0,0,1,1.09.06c.19,0,.28.22.28.5a1.64,1.64,0,0,1,0,.22,2.25,2.25,0,0,1-.05.22l-2,7.47h1.62c.36-1.19.66-2.09.88-2.73A12.65,12.65,0,0,1,267.65,68a19.11,19.11,0,0,1,1.63-2.06c.66-.73,1.22-1.1,1.67-1.1a.47.47,0,0,1,.37.14.65.65,0,0,1,.11.39,1.15,1.15,0,0,1,0,.19c0,.06,0,.12,0,.18l-2.1,7.48h1.63q.69-2.55,1-3.3a11.67,11.67,0,0,1,.9-1.86,17.92,17.92,0,0,1,1.67-2.16,2.52,2.52,0,0,1,1.67-1.06.45.45,0,0,1,.34.13.56.56,0,0,1,.13.39.47.47,0,0,1,0,.17c0,.06,0,.13,0,.21l-1.63,5.89a4,4,0,0,0-.08.4,2,2,0,0,0,0,.34,1.07,1.07,0,0,0,.36.91.94.94,0,0,0,.57.17,2.42,2.42,0,0,0,1.51-.64A8.43,8.43,0,0,0,278.74,71.08Z" fill="#231f20"/><path d="M286.6,63.7a3.33,3.33,0,0,0-2.17.88A8.42,8.42,0,0,0,283.17,66l.58-1.94.08-.28c0-.07-.06-.09-.1-.09l-3.4.5,0,.34.2,0h.2a1.39,1.39,0,0,1,.75.17.59.59,0,0,1,.26.52,1.58,1.58,0,0,1,0,.26,5.49,5.49,0,0,1-.13.55l-2.9,10.25a1.38,1.38,0,0,1-.47.8,1.59,1.59,0,0,1-1,.24v.35h4.47v-.32a3.69,3.69,0,0,1-1.08-.16q-.27-.11-.27-.54a13.4,13.4,0,0,1,.27-1.37c.07-.3.2-.82.38-1.53l.17-.65a5.22,5.22,0,0,0,.74.3,2.63,2.63,0,0,0,.74.09A5.87,5.87,0,0,0,287,71.23a6.88,6.88,0,0,0,2.08-4.7,3,3,0,0,0-.66-2.14A2.34,2.34,0,0,0,286.6,63.7Zm-.73,6.93c-.93,1.57-2,2.35-3.22,2.35a1.62,1.62,0,0,1-.79-.19.64.64,0,0,1-.32-.6,11.16,11.16,0,0,1,.4-1.68c.26-1,.55-1.87.86-2.75a5.43,5.43,0,0,1,1.42-2.4,2.56,2.56,0,0,1,1.58-.72,1.15,1.15,0,0,1,1.16.77,3.07,3.07,0,0,1,.16,1.08A8,8,0,0,1,285.87,70.63Z" fill="#231f20"/><path d="M298.78,71.49l-.27.24-.19.18-.19.14a2,2,0,0,1-.28.19.48.48,0,0,1-.21.06.32.32,0,0,1-.2-.06.29.29,0,0,1-.08-.22,15.88,15.88,0,0,1,.39-1.84c.16-.59.35-1.3.58-2.12l1-3.76a1.94,1.94,0,0,0,.06-.22s0-.13.07-.22a.2.2,0,0,0,0-.13s-.05,0-.12,0l-1.21.13a.2.2,0,0,0-.14.06.51.51,0,0,0-.08.18l-.24.79-.05-.15a1.63,1.63,0,0,0-.38-.61,1.85,1.85,0,0,0-1.3-.43q-2.21,0-4.26,2.49a7.36,7.36,0,0,0-2,4.61,2.71,2.71,0,0,0,.69,2,2.18,2.18,0,0,0,1.55.7,3.32,3.32,0,0,0,1-.19,5.09,5.09,0,0,0,1.47-1,7.44,7.44,0,0,0,1.1-1.17c.29-.4.51-.71.63-.92-.09.32-.18.72-.28,1.19a6.33,6.33,0,0,0-.14,1.08,1.06,1.06,0,0,0,.22.69.73.73,0,0,0,.61.27,2.27,2.27,0,0,0,1.3-.5,11.36,11.36,0,0,0,1.8-1.9l-.25-.22Zm-2.89-1.68c-1,1.71-2,2.56-3.05,2.56a1.17,1.17,0,0,1-.9-.39,1.73,1.73,0,0,1-.36-1.22,8.5,8.5,0,0,1,1.31-4c1-1.75,2.06-2.62,3.21-2.62a1.17,1.17,0,0,1,.85.35,1.57,1.57,0,0,1,.35,1.12A8.26,8.26,0,0,1,295.89,69.81Z" fill="#231f20"/><path d="M310,70.69a11.36,11.36,0,0,1-1.12,1.37,1,1,0,0,1-.6.32.24.24,0,0,1-.23-.13.54.54,0,0,1-.08-.28,2.12,2.12,0,0,1,.05-.32l.1-.39,1.38-5c.06-.21.1-.41.14-.59a3.27,3.27,0,0,0,.05-.53,1.29,1.29,0,0,0-.64-1.25,1.73,1.73,0,0,0-.81-.17,4.08,4.08,0,0,0-2.72,1.68,24.86,24.86,0,0,0-2.16,2.92l1.39-4.51a.14.14,0,0,0-.08-.09l-1.87.4-.62.13-1,.16v.34l.26,0,.25,0a1,1,0,0,1,.68.18.65.65,0,0,1,.17.48,1.5,1.5,0,0,1,0,.37c0,.12-.11.45-.26,1l-1.8,6.49h1.61c.46-1.53.79-2.58,1-3.15a10,10,0,0,1,.87-1.78,19.59,19.59,0,0,1,1.44-2c.81-.95,1.48-1.42,2-1.42a.47.47,0,0,1,.43.18.78.78,0,0,1,.12.44c0,.07,0,.2,0,.38s-.07.41-.14.69l-1.34,5.1a1.54,1.54,0,0,0-.07.35,2.51,2.51,0,0,0,0,.37,1,1,0,0,0,.33.86,1.1,1.1,0,0,0,.67.24,2.4,2.4,0,0,0,1.62-.83A13.77,13.77,0,0,0,310.28,71Z" fill="#231f20"/><path d="M319.17,64a1.22,1.22,0,0,0-.85-.31.86.86,0,0,0-.63.22.78.78,0,0,0-.22.55.85.85,0,0,0,.23.62,1.89,1.89,0,0,0,.39.32l.18.09a.58.58,0,0,1,.3.3,1.07,1.07,0,0,1,.06.35,7.48,7.48,0,0,1-1,2.73c-.34.65-.88,1.6-1.62,2.83l-.42-2.5a26.71,26.71,0,0,0-.84-3.13c-.49-1.6-.83-2.39-1-2.37l-.22,0-2.87.55v.35l.52-.06.22,0a1.39,1.39,0,0,1,1.25.68,10.36,10.36,0,0,1,.94,2.55c.25.9.5,1.92.76,3.06a13.58,13.58,0,0,1,.4,2.31,4,4,0,0,1-1.14,2c-.76.91-1.31,1.36-1.66,1.36a.47.47,0,0,1-.17,0,.37.37,0,0,1-.14-.07l-.15-.11a2.91,2.91,0,0,0-.42-.29,1.11,1.11,0,0,0-.46-.1.76.76,0,0,0-.61.24.86.86,0,0,0-.21.58.88.88,0,0,0,.33.72,1.21,1.21,0,0,0,.76.26c.74,0,1.66-.64,2.77-1.9a32.31,32.31,0,0,0,2.51-3.43,35.33,35.33,0,0,0,2.11-3.68A9.65,9.65,0,0,0,319.49,65,1.46,1.46,0,0,0,319.17,64Z" fill="#231f20"/></svg>