<svg xmlns="http://www.w3.org/2000/svg" viewBox="0 0 144 144.31"><title>amfirst-white</title><path d="M55.44,85.72l-2.12.09v8.5H71.84l-2.06-60.9H48.64L35.73,81.34a13.53,13.53,0,0,1-1,2.91,3.08,3.08,0,0,1-1.18,1.17,5,5,0,0,1-2.27.39v8.5H50v-8.5a13,13,0,0,1-2.8-.17,2,2,0,0,1-1.12-.83,2.33,2.33,0,0,1-.34-1.26A14.12,14.12,0,0,1,46.25,81l3.43-12.65H58V81c0,.87.2,2.86-1,3.82A2.56,2.56,0,0,1,55.44,85.72Zm2.45-26.25H52l4.27-16.08h1.64Z" fill="#fff"/><polygon points="77.76 33.41 75.39 33.41 70.78 33.41 72.84 94.31 73.94 94.31 75.29 94.31 76.26 94.31 78.32 33.41 77.76 33.41" fill="#fff"/><path d="M79.32,33.41l-2.06,60.9H96.21v-8.5H94.49a4.73,4.73,0,0,1-2.33-.39c-.4-.26-.48-.79-.88-1.19S91,82.67,91,81.14V68.46h2.3a6.32,6.32,0,0,1,3.38.75,7.63,7.63,0,0,1,1.41,1.5H103V57.25H97.57a3.41,3.41,0,0,1-.83,1.59,7.73,7.73,0,0,1-3.37.66H91V43.42h11a23,23,0,0,1,4.56.31,5.71,5.71,0,0,1,4.28,4l5.37,0V33.41Z" fill="#fff"/><path d="M33.89,9.26l.27.85-3.79,2.73,4.67,0,1.43,4.46,1.47-4.45,4.67,0-3.25-2.39A43.57,43.57,0,0,1,33.89,9.26Z" fill="#fff"/><path d="M71.21,20.07c.3.52.5.84.86.84s.56-.32.85-.84.69-1.21,1.48-1.21,1.17.67,1.48,1.21.49.84.85.84.55-.32.84-.84.69-1.21,1.47-1.21a1.14,1.14,0,0,1,.33.05V17H69.74v1.88C70.52,18.88,70.9,19.53,71.21,20.07Z" fill="#fff"/><rect x="71.88" y="96.23" width="5.31" height="5.31" rx="2.21" ry="2.21" fill="#fff"/><polygon points="14.74 95.09 19.11 96.78 22.05 93.15 21.8 97.82 26.17 99.5 21.65 100.71 21.39 105.38 18.85 101.45 14.33 102.65 17.28 99.02 14.74 95.09" fill="#fff"/><polygon points="8.2 76.16 11.87 79.07 15.76 76.47 14.13 80.86 17.8 83.76 13.13 83.57 11.5 87.96 10.24 83.45 5.56 83.26 9.46 80.67 8.2 76.16" fill="#fff"/><polygon points="7.69 54.62 10.26 58.53 14.77 57.29 11.84 60.95 14.41 64.86 10.04 63.2 7.11 66.86 7.33 62.18 2.95 60.53 7.47 59.29 7.69 54.62" fill="#fff"/><polygon points="133.16 34.42 134.81 38.79 139.48 38.58 135.83 41.5 137.48 45.88 133.57 43.31 129.92 46.23 131.16 41.72 127.25 39.15 131.92 38.93 133.16 34.42" fill="#fff"/><polygon points="7.47 38.59 12.15 38.8 13.79 34.42 15.04 38.93 19.71 39.14 15.81 41.72 17.05 46.23 13.39 43.31 9.49 45.88 11.13 41.51 7.47 38.59" fill="#fff"/><polygon points="17.98 19.83 22.37 21.43 25.26 17.75 25.09 22.43 29.48 24.03 24.98 25.31 24.82 29.99 22.21 26.11 17.71 27.4 20.59 23.71 17.98 19.83" fill="#fff"/><polygon points="124.9 93.15 127.85 96.78 132.22 95.1 129.68 99.03 132.63 102.66 128.11 101.46 125.57 105.39 125.31 100.71 120.79 99.51 125.16 97.83 124.9 93.15" fill="#fff"/><polygon points="131.19 76.48 135.08 79.08 138.75 76.17 137.49 80.68 141.38 83.28 136.71 83.46 135.44 87.97 133.82 83.58 129.14 83.78 132.81 80.87 131.19 76.48" fill="#fff"/><polygon points="139.28 54.65 139.49 59.33 144 60.58 139.62 62.22 139.82 66.89 136.91 63.23 132.53 64.87 135.11 60.97 132.19 57.31 136.7 58.56 139.28 54.65" fill="#fff"/><polygon points="121.67 17.74 124.56 21.42 128.95 19.81 126.34 23.69 129.23 27.37 124.73 26.09 122.12 29.98 121.95 25.3 117.45 24.02 121.85 22.41 121.67 17.74" fill="#fff"/><polygon points="106.65 5.71 110.46 8.43 114.22 5.64 112.81 10.11 116.62 12.82 111.94 12.86 110.53 17.32 109.05 12.89 104.37 12.93 108.14 10.15 106.65 5.71" fill="#fff"/><path d="M20.91,125.1v-.72c1.3-.23,1.88-1.24,2.54-2.28L33.9,105.58h.72l2.86,17.1a4.44,4.44,0,0,0,.38,1,2.71,2.71,0,0,0,.49.46,4,4,0,0,0,1.41.2v.72H31.07v-.72a3.79,3.79,0,0,0,1.48-.26c.69-.32.77-.78.77-1.47l-.43-3.5H26.74l-1.9,3.38a2.3,2.3,0,0,0-.21.84c0,1,1.16.95,1.85,1v.72Zm6.5-7.07h5.28l-1-7Z" fill="#fff"/><path d="M40.66,125.1l2.89-11c.2-.72-.93-.75-1.53-.69v-.78c1.7-.15,3.55-.38,5.71-.78l-1.61,5.31.05.06c1.22-2,3.3-5.37,6-5.37,1.73,0,2.31,1.56,1.21,4.62l.06.06c1-1.71,3-4.68,5.25-4.68,1.16,0,3.24.26,2.14,3.87l-2.25,7.33c-.2.67,1,.69,2.42-1.73l.64.37c-.9,1.74-2.4,3.76-4.53,3.76a2.13,2.13,0,0,1-1.94-3l2.31-7.13c.2-.63.38-1.35-.55-1.35-1.27,0-3,3-3.52,4A46.24,46.24,0,0,0,51,125.1H47.53l2.95-9.58c.34-1.45,0-1.82-.84-1.33-1.24.75-2.49,2.37-3.84,5.51a40.57,40.57,0,0,0-1.68,5.4Z" fill="#fff"/><path d="M62.08,125.1v-.72a3.4,3.4,0,0,0,1.36-.4,3.47,3.47,0,0,0,1-2l3.69-14c0-1.41-1-1.1-2.07-1.3V106H81.31l-1.21,5.43-.78-.15c.09-2.8-1.24-4.39-5-4.39-.4,0-1.15,0-1.44.35a2.85,2.85,0,0,0-.55,1.27l-1.64,6c2.94,0,4.38,0,5.65-3l.81.12-2.13,7.79-.78-.14a5.51,5.51,0,0,0-.18-2.66c-.52-1.15-2.57-1.12-3.63-1.15l-2,7.45c0,.29-.2.84.61,1.21a3.43,3.43,0,0,0,1.41.26v.72Z" fill="#fff"/><path d="M83.91,122.33a1.9,1.9,0,0,0,0,.92c.2.18.38.24,1,0a10.53,10.53,0,0,0,1.65-2.11l.64.4c-1.22,1.82-2.43,4-4.86,4-1,0-2.42-.78-1.79-3.09l2-7.31c.4-1.47-.12-1.61-1.53-1.64v-.78c1.38-.2,3.46-.49,5.74-.78ZM84,107.49a2,2,0,0,1,1.93-1.91,2,2,0,0,1,1.91,1.91,1.92,1.92,0,1,1-3.84,0Z" fill="#fff"/><path d="M87.89,125.1l2.69-9.58c.32-1.1.26-1.65,0-1.91s-.61-.17-1.3-.17v-.78c1.79-.26,3.64-.44,5.72-.78L93.38,117l.15.06c.69-1.5,2.54-5.14,4.44-5.14a1.63,1.63,0,0,1,1.65,1.73c0,1-.49,2.22-1.71,2.22-.63,0-.89-.31-1.5-1a.57.57,0,0,0-.55,0c-2.59,2.83-3.26,6.76-4.5,10.28Z" fill="#fff"/><path d="M99.33,125.48l.63-4.77.75.09c0,1.42,1,3.81,2.69,3.81a1.57,1.57,0,0,0,1.7-1.59c0-1.09-1.27-2.54-1.9-3.32-1-1.27-2-2.51-2-4.24A3.37,3.37,0,0,1,104,112a5.13,5.13,0,0,1,1.67-.09,15.58,15.58,0,0,1,1.59.55c.46.14,1.07.2,1.33-.55h.84l-.67,4.39-.75-.06c-.11-1.42-.89-3.44-2.54-3.44a1.53,1.53,0,0,0-1.18,2.57l2.19,3a5.92,5.92,0,0,1,1.42,3.29c0,1.27-.67,3.9-4.22,3.9a12.58,12.58,0,0,1-2.8-.58.84.84,0,0,0-.72.58Z" fill="#fff"/><path d="M113.19,113.35h-1.48v-1a10.47,10.47,0,0,0,5.23-4.36h1l-1.1,4.16h2.05v1.18h-2.36l-2.4,9c-.17.63-.12,1.33.37,1.13a6.79,6.79,0,0,0,2.17-2.31l.61.4c-1.1,1.82-2.49,3.93-4.94,3.93-.87,0-2.71-.41-1.24-4.54Z" fill="#fff"/><path d="M7.05,139.68c.78-.14,1-.19,1.28-1.17l1.95-7a3.61,3.61,0,0,0,.17-1c0-.56-.42-.6-1.1-.68v-.26h3.91v.26c-.78.14-1,.17-1.3,1.17l-2,7a3.5,3.5,0,0,0-.17,1c0,.5.39.55,1.07.63v.26H7.05Z" fill="#fff"/><path d="M20,138.29c-.79,1.06-1.35,1.79-2.2,1.79s-.76-.48-.76-.94,1.17-4.24,1.17-4.87c0-.28-.1-.51-.4-.51-.76,0-1.75,1.37-2.32,2.25a12.13,12.13,0,0,0-1.58,3.93H12.67c.49-1.79,1.55-5.49,1.55-5.83s-.16-.41-1-.41v-.25l2.56-.49.05,0-1,3.31,0,0c.74-1.17,2.2-3.37,3.51-3.37a1,1,0,0,1,1.09,1c0,.68-1.27,4.59-1.27,5.07a.26.26,0,0,0,.26.26c.32,0,.71-.5,1.3-1.25Z" fill="#fff"/><path d="M21.18,137.63c.11.69.36,2.15,1.65,2.15A1.16,1.16,0,0,0,24,138.5c0-1.05-1.89-2.57-1.89-3.78A1.7,1.7,0,0,1,24,133c.71,0,1,.27,1.51.27a.48.48,0,0,0,.44-.29h.22l-.32,2.2h-.25c-.08-.9-.46-1.82-1.49-1.82-.35,0-.85.14-.85.92,0,1,1.93,2.4,1.93,3.75a2.13,2.13,0,0,1-2.36,2.12c-.47,0-1.11-.3-1.56-.3-.23,0-.29.16-.39.33h-.25l.32-2.51Z" fill="#fff"/><path d="M34,138.23c-1,1.44-1.41,1.85-2.2,1.85a.71.71,0,0,1-.74-.82,21.22,21.22,0,0,1,.68-2.92h-.05c-1.08,1.79-2.25,3.77-3.67,3.77-.57,0-.87-.24-.87-.93s1.2-4.69,1.2-5.11-.3-.46-.95-.46v-.23A19.63,19.63,0,0,0,29.8,133l.05,0-1.44,5.74c-.05.21,0,.54.33.54.68,0,1.68-1.49,2.22-2.31a17,17,0,0,0,1.74-3.86h1.17l-1.25,4.73a8,8,0,0,0-.3,1.25c0,.08,0,.25.19.25s.74-.55,1.3-1.25Z" fill="#fff"/><path d="M35.14,139.94l1.28-4.62a7.39,7.39,0,0,0,.25-1.27c0-.22-.08-.48-.57-.48a3.12,3.12,0,0,0-.52.08v-.27c.81-.11,1.74-.31,2.45-.42l0,0-.78,3.15,0,0,.12-.32c.52-1,1.73-2.89,2.72-2.89a.73.73,0,0,1,.76.77c0,.83-.57.83-.74.83-.68,0-.44-.57-.82-.57s-1.44,1.75-1.57,2a20,20,0,0,0-1.47,4Z" fill="#fff"/><path d="M48.11,138.35c-1,1.17-1.49,1.74-2.17,1.74s-.66-.41-.66-.68a6.93,6.93,0,0,1,.33-1.67l0,0c-1.32,1.92-2.15,2.4-3.1,2.4a1.61,1.61,0,0,1-1.63-1.87c0-2.32,2.42-5.28,4.52-5.28a1.18,1.18,0,0,1,1.25.85h0l.16-.69,0-.05,1-.11.11,0c0,.19-1.5,5.58-1.5,6.07a.22.22,0,0,0,.22.21c.24,0,.56-.4,1.27-1.1Zm-5,1c1.67,0,3.22-3.41,3.22-5,0-.76-.44-1.06-.9-1.06-1.85,0-3.27,3.48-3.27,4.9C42.18,139.05,42.7,139.33,43.13,139.33Z" fill="#fff"/><path d="M56,138.29c-.79,1.06-1.35,1.79-2.2,1.79s-.76-.48-.76-.94,1.17-4.24,1.17-4.87c0-.28-.09-.51-.39-.51-.77,0-1.76,1.37-2.33,2.25a12.36,12.36,0,0,0-1.58,3.93H48.71c.49-1.79,1.55-5.49,1.55-5.83s-.16-.41-1-.41v-.25l2.56-.49,0,0-1,3.31,0,0c.74-1.17,2.2-3.37,3.51-3.37a1,1,0,0,1,1.09,1c0,.68-1.26,4.59-1.26,5.07a.26.26,0,0,0,.25.26c.32,0,.71-.5,1.3-1.25Z" fill="#fff"/><path d="M62.19,138.42a3.76,3.76,0,0,1-3,1.69c-1,0-2.35-.4-2.35-2.5A5,5,0,0,1,61.4,133c1.33,0,1.72.79,1.72,1.28a.72.72,0,0,1-.74.73.56.56,0,0,1-.63-.59c0-.41.23-.5.23-.77s-.31-.32-.6-.32c-2.05,0-3.15,2.8-3.15,4.32,0,1.22.48,1.93,1.44,1.93a3.22,3.22,0,0,0,2.27-1.28Z" fill="#fff"/><path d="M69.28,138.4a4.9,4.9,0,0,1-3.2,1.71,2.05,2.05,0,0,1-2.17-2.23c0-2.26,2.5-4.92,4.73-4.92.81,0,1.3.38,1.3,1.07,0,1.25-1.48,2.53-4,2.9l-.44.06a4.18,4.18,0,0,0-.16,1,1.38,1.38,0,0,0,1.49,1.44,3.81,3.81,0,0,0,2.31-1.19Zm-3.72-1.76c3.26-.66,3.34-2.56,3.34-2.68,0-.34-.16-.64-.56-.64-.85,0-1.93,1.22-2.51,2.63Z" fill="#fff"/><path d="M84.44,132.53A2.44,2.44,0,0,0,82,130c-3.17,0-4.78,3.83-4.78,6.15,0,2.07.87,3.39,2.75,3.39a5.15,5.15,0,0,0,3.66-1.87l.27.22a5.7,5.7,0,0,1-4.31,2.36A4,4,0,0,1,75.45,136c0-3.06,2.8-6.55,6.42-6.55a16.64,16.64,0,0,1,2.47.38c.46,0,.55-.19.63-.35h.33l-.58,3.15Z" fill="#fff"/><path d="M92.36,135.3c0,1.95-2.17,4.81-4.59,4.81a2.12,2.12,0,0,1-2.39-2.28c0-2.32,2.34-4.87,4.65-4.87A2.15,2.15,0,0,1,92.36,135.3Zm-5.65,3c0,.9.48,1.47,1.27,1.47,1.8,0,3-3.28,3-5,0-.82-.35-1.52-1.11-1.52C88.15,133.29,86.71,136.44,86.71,138.31Z" fill="#fff"/><path d="M104,138.27l-.07.11c-.57.81-1.36,1.7-2.25,1.7-.67,0-.67-.56-.67-.78,0-.42,1.24-4.84,1.24-5.16a.32.32,0,0,0-.33-.36c-.65,0-1.79,1.39-2.28,2.17a12.42,12.42,0,0,0-1.49,4H97c.42-1.54,1.51-5.43,1.51-5.73s-.21-.43-.35-.43c-.71,0-1.91,1.6-2.34,2.23a14.74,14.74,0,0,0-1.54,3.93H93.06c.25-1.05,1.55-5.51,1.55-5.86s-.24-.38-1-.38v-.25l2.54-.49,0,0-.88,3.16,0,0c.47-.78,2.1-3.23,3.43-3.23.6,0,.94.36.94,1a15.69,15.69,0,0,1-.59,2.16l0,0c1.11-1.84,2.39-3.23,3.44-3.23a.94.94,0,0,1,.93,1.06c0,.54-1.28,4.78-1.28,5s0,.31.24.31.71-.5,1.31-1.25Z" fill="#fff"/><path d="M105.14,133.31l2.46-.35s.11,0,0,.2l-.42,1.48,0,0a3.42,3.42,0,0,1,2.58-1.71c1.41,0,1.88.93,1.88,2.07,0,2.45-2.53,5.08-4.72,5.08a2.15,2.15,0,0,1-1.07-.27c-.14.54-.59,2.28-.59,2.6,0,.5.6.5,1,.5v.24H103.1v-.25c.84,0,.94-.43,1.06-.94.43-1.77,2-7.66,2-8s-.3-.47-.66-.46l-.37,0Zm4.1.33a2.61,2.61,0,0,0-2.07,1.8,18.12,18.12,0,0,0-1,3.78c0,.41.4.59.79.59,1.93,0,3.36-2.94,3.36-4.83C110.29,134.56,110.27,133.64,109.24,133.64Z" fill="#fff"/><path d="M119.73,138.35c-1,1.17-1.49,1.74-2.16,1.74s-.67-.41-.67-.68a6.93,6.93,0,0,1,.33-1.67l0,0c-1.31,1.92-2.15,2.4-3.1,2.4a1.61,1.61,0,0,1-1.63-1.87c0-2.32,2.42-5.28,4.52-5.28a1.17,1.17,0,0,1,1.25.85h0l.15-.69,0-.05,1-.11.11,0c0,.19-1.51,5.58-1.51,6.07a.22.22,0,0,0,.23.21c.23,0,.55-.4,1.26-1.1Zm-5,1c1.67,0,3.23-3.41,3.23-5,0-.76-.45-1.06-.91-1.06-1.85,0-3.27,3.48-3.27,4.9C113.8,139.05,114.32,139.33,114.75,139.33Z" fill="#fff"/><path d="M127.61,138.29c-.79,1.06-1.34,1.79-2.2,1.79s-.76-.48-.76-.94,1.17-4.24,1.17-4.87c0-.28-.09-.51-.39-.51-.76,0-1.76,1.37-2.33,2.25a12.36,12.36,0,0,0-1.58,3.93h-1.19c.49-1.79,1.55-5.49,1.55-5.83s-.15-.41-1-.41v-.25l2.56-.49,0,0-1,3.31,0,0c.74-1.17,2.2-3.37,3.51-3.37a1,1,0,0,1,1.09,1c0,.68-1.26,4.59-1.26,5.07a.26.26,0,0,0,.25.26c.32,0,.71-.5,1.3-1.25Z" fill="#fff"/><path d="M128.26,133.34c.76-.13,2-.38,2.28-.38a14.87,14.87,0,0,1,1.34,4l.32,1.84c.68-1.11,1.93-3.25,1.93-4.08,0-.65-.86-.48-.86-1.21a.57.57,0,0,1,.59-.55.88.88,0,0,1,.9,1c0,1.88-4.43,9.25-6.31,9.25-.13,0-.81,0-.81-.71a.6.6,0,0,1,.6-.6c.48,0,.68.44,1,.44s.46-.14,1-.77c.39-.46,1-1.24,1-1.66a30,30,0,0,0-.93-4.23c-.43-1.44-.63-2.12-1.53-2.12a1.77,1.77,0,0,0-.54.07Z" fill="#fff"/><path d="M53.31,22H95.78V19.59c-1.17,0-1,2-2.2,2s0-2-1.21-2-1.3,2-2.48,2-.43-2-1.59-2-1,2-2.21,2-1.17-2-2.34-2-1.16,2-2.33,2-1.19-2-2.38-2-1.15,2-2.32,2-1.16-2-2.32-2-1.16,2-2.33,2-1.18-2-2.35-2-1.16,2-2.32,2-1.19-2-2.37-2-.89,2-2.07,2-1.45-2-2.6-2-.44,2-1.62,2-1.32-2-2.49-2,0,2-1.13,2-.66-2-1.82-2V22Z" fill="#fff"/><polygon points="95.78 23.53 95.78 22.76 53.31 22.76 53.31 22.76 53.31 23.53 95.78 23.53" fill="#fff"/><rect x="58.56" y="24.25" width="31.96" height="2" fill="#fff"/><rect x="69.73" y="29.72" width="9.63" height="1.9" fill="#fff"/><path d="M62.9,27v.66S64.15,28.57,69,29H80c4.89-.43,6.17-1.37,6.17-1.37V27Z" fill="#fff"/><path d="M69.91,16.44h9.48c3.35-1.82,6.41-9-.68-13.61C73.76-.4,61.38,3.44,50.09,1.72a12.16,12.16,0,0,0,5.24,2.42c-5.74,1.25-17.13,2.32-31.74.2,1.22-.07,9.82,5.25,20.29,5.61C61.51,10.56,66.82,16.74,69.91,16.44Z" fill="#fff"/></svg>