<?xml version="1.0" encoding="iso-8859-1"?>
<!-- Generator: Adobe Illustrator 19.1.0, SVG Export Plug-In . SVG Version: 6.00 Build 0)  -->
<svg version="1.1" baseProfile="tiny" id="Layer_1" xmlns="http://www.w3.org/2000/svg" xmlns:xlink="http://www.w3.org/1999/xlink"
	 x="0px" y="0px" viewBox="0 0 253.1 85.6" xml:space="preserve">
<g>
	<path fill="#FFFFFF" d="M32.3,31.5c-1.8-0.9-3.2-1.1-8.8-1.1H2.1V57h8.5v-6.6h13.7c4.3,0,6.3-0.2,7.8-0.9c2.8-1.3,3.9-3.9,3.9-9.5
		C35.9,35.2,34.9,32.8,32.3,31.5z M23,44H10.6v-7.2H23c3.7,0,4.5,0.7,4.5,3.9C27.5,43.3,26.5,44,23,44z"/>
	<path fill="#FFFFFF" d="M106.6,50.8c0.8,0.5,1.1,1.4,1.1,2.9V57h8.7v-4.2c0-2-0.2-3-0.8-4c-0.8-1.3-2-1.7-5.2-1.9l-1.4-0.1
		c3.4-0.5,4.4-0.7,5.4-1.4c1.6-1,2.4-3.2,2.4-6.3c0-4.2-1.1-6.6-3.4-7.8c-1.6-0.8-3.6-1-7.8-1H81.4V57h8.5v-6.7H103
		C105.3,50.3,106,50.4,106.6,50.8z M89.9,36.9h13.6c2.6,0,3.2,0.1,3.9,0.8c0.5,0.6,0.7,1.3,0.7,3.2c0,2.4-0.8,3-4.9,3H89.9V36.9z"/>
	<polygon fill="#FFFFFF" points="139.1,57 139.1,37 151.5,37 151.5,30.4 118,30.4 118,37 130.5,37 130.5,57 	"/>
	<path fill="#FFFFFF" d="M154.9,52.3H173l2.8,4.8h9.3l-15.3-26.7h-11.4L142.6,57h9.7L154.9,52.3z M164,36.1l6,10.6h-12L164,36.1z"/>
	<polygon fill="#FFFFFF" points="194.8,30.4 186.3,30.4 186.3,57 214.1,57 214.1,50.4 194.8,50.4 	"/>
	<path fill="#FFFFFF" d="M249.6,42.8c-1.3-1.4-3-1.9-7.2-2.1c-2.3-0.1-3.9-0.1-4.5-0.1H230c-2.7,0-2.9-0.1-3.4-0.2
		c-1.3-0.3-1.9-1-1.9-2.2c0-1.5,0.8-2.1,2.9-2.2c1.3-0.1,5.1-0.2,7.7-0.2c5.8,0,6.6,0.3,6.6,2.6h8.3c0-4.6-0.9-6.4-3.7-7.4
		c-2.1-0.8-4.4-0.9-12.6-0.9c-5.4,0-7.8,0.1-10.5,0.4c-5.2,0.7-7,2.8-7,8.1c0,4.2,1.2,6.3,4.1,7.2c1.4,0.5,3.9,0.7,7.9,0.7h7.7
		c3.5,0,3.7,0,4.2,0.1c1.7,0.2,2.6,0.9,2.6,2.3c0,2.4-1,2.6-11.1,2.6c-2.1,0-4.5-0.1-5.3-0.3c-1.3-0.3-1.6-0.8-1.6-2.8h-8.4
		c0,0.6,0,1.3,0,1.6c0,3.8,1.3,5.7,4.5,6.5c2.1,0.5,4.9,0.7,11.3,0.7c6,0,8.4-0.1,11.8-0.4c5.4-0.5,7.4-2.7,7.4-8.1
		C251.3,46,250.7,44,249.6,42.8z"/>
	<path fill="#FFFFFF" d="M67.5,28.2c0,0,4.9-3.7,14.4-4.3c0,0-8.9-1.6-12.8,1.2c0,0-2-3.9-3.8-6.1C65.3,19.1,67.8,24.9,67.5,28.2z"
		/>
	<path fill="#FFFFFF" d="M79.7,43.1c0-4.7-1.6-9.1-4.2-12.6c2.2-2.1,4.6-4.1,6.8-5.3L82,24.8c-7.8,4.4-17.3,14.9-17.7,15.4l-0.4,0.3
		l7,2.9l-16.2,6.7l-5.1-16.4l7.4,3.9c0,0,1-14.4,4.7-21.8l-0.4-0.2c-1,2-1.8,4.2-2.6,6.5c0,0,0,0,0,0c-11.7,0-21.1,9.5-21.1,21.1
		c0,11.7,9.5,21.1,21.1,21.1C70.2,64.3,79.7,54.8,79.7,43.1z M58.5,61.3c-10,0-18.1-8.1-18.1-18.1c0-9.7,7.7-17.6,17.2-18.1
		c-1.2,4.3-2,8.3-2.4,10.2l-6.7-2.8l4.4,22.3l21.1-11l-7.4-3.2c1.2-1.5,3.7-4.6,6.7-7.8c2.1,3,3.4,6.6,3.4,10.5
		C76.7,53.1,68.5,61.3,58.5,61.3z"/>
	<polygon fill="#FFFFFF" points="63.9,82.5 65.8,82.5 65.8,78.4 70.4,78.4 70.4,76.8 65.8,76.8 65.8,74 70.6,74 70.6,72.4 
		63.9,72.4 	"/>
	<path fill="#FFFFFF" d="M78.7,72.7c-0.6-0.3-1.3-0.4-2.7-0.4c-0.7,0-1.3,0-1.8,0.1c-0.9,0.1-1.8,0.5-2.2,1.2
		c-0.5,0.7-0.6,1.5-0.6,4.3c0,1.2,0,1.7,0.1,2.2c0.2,1,0.5,1.6,1.2,2.1c0.7,0.4,1.4,0.5,3,0.5c0.7,0,1.2,0,1.8-0.1
		c1-0.1,1.9-0.5,2.3-1.2c0.5-0.7,0.6-1.4,0.6-3.9c0-1.4,0-2-0.1-2.5C80,73.8,79.5,73.1,78.7,72.7z M78.1,80c-0.3,0.8-0.6,1-2.3,1
		c-1.7,0-2.1-0.1-2.4-0.7c-0.2-0.4-0.3-0.9-0.3-2.4c0-2.3,0-2.5,0.2-3c0.3-0.8,0.7-1,2.3-1c1.7,0,2.1,0.1,2.3,0.7
		c0.2,0.5,0.3,0.8,0.3,2.5C78.3,79.3,78.3,79.5,78.1,80z"/>
	<path fill="#FFFFFF" d="M89.9,75.4c0-2.3-0.8-3-3.3-3h-5v10.2h2v-3.4h2.7c0.6,0,0.9,0.1,1.2,0.3c0.3,0.3,0.4,0.6,0.4,1.2v1.8h2
		v-2.2c0-1.3-0.5-1.9-1.7-2v-0.1C89.6,78,89.9,77.4,89.9,75.4z M87.6,77.2c-0.2,0.2-0.6,0.3-1.3,0.3h-2.7v-3.4h2.9
		c1.2,0,1.5,0.3,1.5,1.7C87.9,76.6,87.8,76.9,87.6,77.2z"/>
	<path fill="#FFFFFF" d="M97.8,79.4c0.3-0.2,0.4-0.2,2-0.5c1.5-0.3,2.1-0.4,2.5-0.8c0.6-0.5,0.9-1.2,0.9-2.5c0-2.5-0.8-3.3-3.7-3.3
		c-1.6,0-2.4,0.2-3,0.6c-0.7,0.5-0.9,1.1-0.9,2.7V76h1.9c0-0.2,0-0.4,0-0.5c0-1.3,0.3-1.6,2-1.6s2,0.2,2,1.6c0,1.5,0,1.6-2.5,2
		c-1.8,0.3-2.2,0.4-2.7,0.9c-0.5,0.4-0.6,1-0.6,2.1v2.1h7.7V81h-5.8v-0.3C97.4,79.9,97.5,79.6,97.8,79.4z"/>
	<path fill="#FFFFFF" d="M112.7,78.9h-1.2v-6.5h-3l-4.4,5.8v2.2h5.5v2.2h1.9v-2.2h1.2V78.9z M109.6,78.9h-3.9l3.8-5h0.1V78.9z"/>
	<polygon fill="#FFFFFF" points="112.5,85.6 113.8,85.6 121.6,72.4 120.3,72.4 	"/>
	<polygon fill="#FFFFFF" points="123.3,74.1 128.9,74.1 124.6,82.5 126.7,82.5 130.8,74.3 130.8,72.4 123.3,72.4 	"/>
	<path fill="#FFFFFF" d="M137.3,72.4l-3.4,10.2h2l0.6-2h4.4l0.7,2h2l-3.4-10.2H137.3z M137.1,79.1l1.7-5.3l1.8,5.3H137.1z"/>
	<path fill="#FFFFFF" d="M150.6,79.4c0,1.3-0.4,1.6-2.3,1.6c-1.6,0-2-0.2-2.2-1.1c-0.1-0.5-0.1-1.1-0.1-2.9c0-1.9,0.1-2.3,0.4-2.6
		c0.3-0.3,0.9-0.4,2.2-0.4c1.6,0,1.9,0.2,1.9,1.5v0.3h1.9c0-0.6,0-0.7,0-1.1c-0.1-0.9-0.4-1.6-1-2c-0.5-0.3-1.1-0.4-2.5-0.4
		c-2.5,0-3.3,0.2-4,0.9c-0.7,0.6-0.9,1.5-0.9,3.5c0,0.3,0,0.3,0,1.9c0,2,0.3,2.8,1.1,3.5c0.7,0.5,1.3,0.7,3,0.7
		c2.2,0,2.8-0.1,3.5-0.5c0.8-0.5,1-1.1,1-2.8v-0.3h-1.9C150.6,79.1,150.6,79.3,150.6,79.4z"/>
	<path fill="#FFFFFF" d="M160,79.4c0,1.3-0.4,1.6-2.3,1.6c-1.6,0-2-0.2-2.2-1.1c-0.1-0.5-0.1-1.1-0.1-2.9c0-1.9,0.1-2.3,0.4-2.6
		c0.3-0.3,0.9-0.4,2.2-0.4c1.6,0,1.9,0.2,1.9,1.5v0.3h1.9c0-0.6,0-0.7,0-1.1c-0.1-0.9-0.4-1.6-1-2c-0.5-0.3-1.1-0.4-2.5-0.4
		c-2.5,0-3.3,0.2-4,0.9c-0.7,0.6-0.9,1.5-0.9,3.5c0,0.3,0,0.3,0,1.9c0,2,0.3,2.8,1.1,3.5c0.7,0.5,1.3,0.7,3,0.7
		c2.2,0,2.8-0.1,3.5-0.5c0.8-0.5,1-1.1,1-2.8v-0.3H160C160,79.1,160,79.3,160,79.4z"/>
	<polygon fill="#FFFFFF" points="164.9,78.1 169.6,78.1 169.6,76.6 164.9,76.6 164.9,74 169.9,74 169.9,72.4 162.9,72.4 162.9,82.5 
		169.9,82.5 169.9,80.9 164.9,80.9 	"/>
	<path fill="#FFFFFF" d="M178.4,77.2c-0.5-0.4-1-0.5-2.8-0.6c-1.6-0.1-1.6-0.1-1.9-0.2c-0.5-0.2-0.7-0.5-0.7-1.3
		c0-1.1,0.4-1.4,2.3-1.4c1.5,0,1.8,0.3,1.8,1.3v0.3h1.9V75c0-1.1-0.3-1.8-0.9-2.2c-0.6-0.4-1.3-0.5-3-0.5c-1.9,0-2.7,0.2-3.3,0.6
		c-0.5,0.4-0.8,1.1-0.8,2.3c0,1.4,0.3,2.1,1.1,2.5c0.5,0.3,0.9,0.4,2.7,0.5c1.7,0.1,1.7,0.1,1.9,0.2c0.4,0.1,0.6,0.5,0.6,1.1
		c0,1.3-0.3,1.6-2,1.6c-1.7,0-1.9,0-2.2-0.4c-0.2-0.3-0.3-0.5-0.3-1.4h-1.9c0,0.7,0,0.8,0.1,1.2c0.1,1,0.5,1.6,1.4,1.9
		c0.5,0.2,1.2,0.3,2.7,0.3c2,0,2.8-0.2,3.4-0.8c0.4-0.4,0.6-1.1,0.6-2.4C179.1,78.2,178.9,77.6,178.4,77.2z"/>
	<path fill="#FFFFFF" d="M187.5,77.2c-0.5-0.4-1-0.5-2.8-0.6c-1.6-0.1-1.6-0.1-1.9-0.2c-0.5-0.2-0.7-0.5-0.7-1.3
		c0-1.1,0.4-1.4,2.3-1.4c1.5,0,1.8,0.3,1.8,1.3v0.3h1.9V75c0-1.1-0.3-1.8-0.9-2.2c-0.6-0.4-1.3-0.5-3-0.5c-1.9,0-2.7,0.2-3.3,0.6
		c-0.5,0.4-0.8,1.1-0.8,2.3c0,1.4,0.3,2.1,1.1,2.5c0.5,0.3,0.9,0.4,2.7,0.5c1.7,0.1,1.7,0.1,1.9,0.2c0.4,0.1,0.6,0.5,0.6,1.1
		c0,1.3-0.3,1.6-2,1.6c-1.7,0-1.9,0-2.2-0.4c-0.2-0.3-0.3-0.5-0.3-1.4h-1.9c0,0.7,0,0.8,0.1,1.2c0.1,1,0.5,1.6,1.4,1.9
		c0.5,0.2,1.2,0.3,2.7,0.3c2,0,2.8-0.2,3.4-0.8c0.4-0.4,0.6-1.1,0.6-2.4C188.3,78.2,188.1,77.6,187.5,77.2z"/>
	<path fill="#FFFFFF" d="M85,23.7c1.4,1.6,3.5,3.2,5.2,3.2c7.7,0,21.1-12.5,21.1-19.5c0-1.9-1.1-3.2-2.3-4.3
		c-1.2-1.3-2.3-2.2-3.9-2.2c-1.3,0-3,0.5-4.7,1.3c-0.5-0.4-1.4-1-2.1-1.6C97.9,0.2,97.5,0,97.1,0c-3.7,0-15.6,9.6-15.6,18.4
		C81.4,21.2,83.3,22.1,85,23.7z M102.3,4.1c0.9-0.4,2-0.6,3-0.6c0.9,0,2.6,0.2,2.6,1.9c0,2.2-2.1,5.8-5.1,9.1
		c-1.2,0.3-2.2,0.4-3.1,0.4c-0.9,0-1.7-0.1-2.2-0.2c-1.2-0.2-2.3-0.5-2.3-2.1C95.2,9.5,100,5.1,102.3,4.1z M96.6,4.6
		c-2.1,1.8-3.6,4-3.6,6.3c0,2.9,1.7,6.1,3.6,6.1c1.6,0,2.8-0.2,4.3-0.6c-3.7,3.5-8.4,6.4-12.5,6.4c-2.1,0-3-0.8-3-2.7
		C85.3,15.4,90.5,8.4,96.6,4.6z"/>
	<path fill="#FFFFFF" d="M104.5,21.6c0,1.1,1,2.6,1.8,3.1c0.2,0.1,0.3,0.1,0.4,0.1c0.2,0,0.3-0.1,0.5-0.3c2.5-2.9,6.1-6.3,8.3-7.8
		c0.1-0.1,0.3-0.2,0.4-0.2c0.1,0,0.1,0,0.1,0.1c0,0.1-0.1,0.2-0.1,0.2c-1.2,1.3-2.9,3.1-2.9,4.8c0,1.8,1.5,3.4,3.2,3.4
		c1.7,0,3.8-1.5,5.8-3.2c0.5-0.4,0.9-0.8,1.2-1.1c0,0,0,0,0,0.1c0,2.5,1.8,4.7,4.1,4.7c2.4,0,5.3-1.7,7.6-3.5c0.1,1.6,1.2,3.2,3,3.2
		c0.9,0,2.7-1.1,4.5-2.3c0.3,0.8,1,1.6,1.5,2c0.2,0.1,0.3,0.1,0.4,0.1c0.2,0,0.3-0.1,0.5-0.3c2.5-2.9,6.1-6.3,8.3-7.8
		c0.1-0.1,0.3-0.2,0.4-0.2c0.1,0,0.1,0,0.1,0.1c0,0.1-0.1,0.2-0.1,0.2c-1.2,1.3-2.9,3.1-2.9,4.8c0,1.8,1.5,3.4,3.2,3.4
		c1.7,0,3.8-1.5,5.8-3.2c0.5-0.4,0.9-0.8,1.2-1.1c0.1,1.4,3.1,4.7,4.5,4.7c3.2,0,6.3-2.4,8.7-4.6c1.3-1.3,2.6-2.8,2.6-3.2
		c0-0.1,0-0.3-0.3-0.3c-0.3,0-3.4,3-9.3,5.3c-0.4,0.1-1.1,0.3-1.7,0.3c-1,0-1.3-0.7-1.3-1.3c0-0.6,0.4-1.5,1-2.4
		c0.7,0.8,1.7,1.2,2.3,1.2c2.4,0,7.7-4.6,7.7-7.9c0-0.4-0.1-1-1.3-2.1c-0.8-0.9-1.7-1.7-2.4-1.7c-1.2,0-3.2,1.1-5.8,3.5
		c-1.7,1.6-3.4,3.4-4.3,5.5c-2.4,2.5-6.1,4.9-7,4.9c-0.4,0-0.5-0.4-0.5-0.5c0-1.3,4.9-5.6,7.1-7.7c0.3-0.3,0.3-0.4,0.3-0.6
		c0-0.9-1.9-2.6-2.7-2.6c-0.1,0-0.2,0-0.3,0.1c-3.2,1.7-6.6,4-7,4.1c0.3-0.4,1.6-1.9,1.6-2.5c0-0.6-1-2-1.4-2c-0.1,0-0.2,0-0.3,0.2
		c-2.6,3.4-4.8,5.5-8.4,9.3c-2.2,1.6-3.7,2.4-4.4,2.4c-0.2,0-0.2-0.1-0.2-0.2c0-0.6,1.4-2.2,8.3-9.2c0.2-0.2,0.2-0.4,0.2-0.5
		c0-0.6-2.3-2.6-2.5-2.6c-0.1,0-0.3,0-0.5,0.2c-0.6,0.4-4.6,4.3-7,7.7c-2.7,2.3-6.8,5.3-9.1,5.3c-0.5,0-1.1-0.2-1.1-1
		c0-1.4,1-3.3,2.5-5.3c0.4,0.6,0.7,0.8,1.2,0.8c1.4,0,12.2-7.8,15.8-12.1c0.5-0.7,1.1-1.4,1.1-2.2c0-1.6-2.1-3.5-4.1-3.5
		c-1.5,0-3.9,1.7-5.5,2.9c-4.7,3.4-11,9.7-13.3,14.6c0,0,0,0-0.1,0.1c-2.4,2.5-6.2,5-7.1,5c-0.4,0-0.5-0.4-0.5-0.5
		c0-1.3,4.9-5.6,7.1-7.7c0.3-0.3,0.3-0.4,0.3-0.6c0-0.9-1.9-2.6-2.7-2.6c-0.1,0-0.2,0-0.3,0.1c-3.2,1.7-6.6,4-7,4.1
		c0.3-0.4,1.6-1.9,1.6-2.5c0-0.6-1-2-1.4-2c-0.1,0-0.2,0-0.3,0.2c-2.6,3.5-4.8,5.5-8.4,9.3C104.8,20.7,104.5,21.2,104.5,21.6z
		 M171.6,12.4c0.2-0.1,0.5-0.2,0.7-0.2c0.2,0,0.4,0.1,0.4,0.4c0,1-4.2,5.8-6.1,5.8c-0.2,0-0.5,0-0.8-0.4
		C167.3,16,169.4,13.9,171.6,12.4z M143.4,3c0.3,0,0.5,0.1,0.5,0.5c0,1.7-12.7,11.9-13.5,11.9c-0.1,0-0.2-0.1-0.2-0.2
		C135.1,9.4,142.9,3,143.4,3z"/>
	<path fill="#FFFFFF" d="M149.1,9.7c1.2,0,2.6-2.2,2.6-3c0-1.4-1.3-2.3-1.8-2.3c-0.6,0-2.7,0.9-2.7,2.9
		C147.3,8.6,148.5,9.7,149.1,9.7z"/>
</g>
</svg>
