<svg xmlns="http://www.w3.org/2000/svg" viewBox="0 0 224.87 194.4"><title>reverse-text</title><path d="M16.31,171.35v-1.66c2.37,0,3.5-.45,3.5-1.69a6.1,6.1,0,0,0-.45-2l-1.66-4.78H7.83c-1.58,4.6-1.8,5.88-1.8,6.67,0,1.5,1,1.77,3.38,1.84v1.66H0v-1.66c2.15-.07,2.75-1.69,3.88-4.59l8.47-21.54h3.54c.72,2.63,1.58,5.19,2.41,7.45l5.88,16.08a3.52,3.52,0,0,0,3.31,2.6v1.66ZM17,159.22,13.26,148.6c-.08-.26-.19-.52-.42-.52s-.34.3-.45.6l-3.8,10.54Z" fill="#fff"/><path d="M29.16,171.35v-1.66c1.81,0,2.71-.45,2.71-3v-9.42c0-2-.68-3-2.49-3.16v-1.51l6.33-1.13v3.06c0,.11,0,.11.11.11s.23-.15.83-.72A7.66,7.66,0,0,1,42,151.46a5,5,0,0,1,4.41,1.93c.83,1,.79,1.46,1,1.46s.23-.33,1.51-1.39a7.19,7.19,0,0,1,4.93-2c3,0,5.39,1.59,5.39,5v10.17c0,2.56.9,3,2.71,3v1.66H52.66v-1.66c1.8,0,2.71-.45,2.71-3v-9c0-2.33-1.28-3.39-3.24-3.39a5.84,5.84,0,0,0-4.67,3v9.42c0,2.56.9,3,2.71,3v1.66H40.91v-1.66c1.81,0,2.71-.45,2.71-3v-9c0-2.33-1.28-3.39-3.24-3.39s-3.58,1.47-4.67,3v9.42c0,2.56.9,3,2.71,3v1.66Z" fill="#fff"/><path d="M63.57,171.35v-1.66c3.24-.07,4.07-.9,4.07-3V148.83c0-2.11-.83-2.94-4.07-3v-1.66H80.44c2.26,0,4.56-.19,6.75-.3v9H85.53c-.42-5.35-1.58-7-9.45-7H72.24c-.12,1.77-.23,3.35-.23,5v5.57c5.8-.07,6.48-1,6.78-4.59h1.65v10.84H78.79c-.3-3.61-1-4.52-6.78-4.59v8.66c0,2.11.83,2.94,4.07,3v1.66Z" fill="#fff"/><path d="M88.74,171.35v-1.66c2.33,0,3.24-.45,3.24-3v-9.42c0-2-.68-3-3.17-3.16v-1.51l7-1.13v15.22c0,2.56.9,3,3.24,3v1.66Zm5.08-28.47a2.34,2.34,0,1,1-2.33,2.33A2.28,2.28,0,0,1,93.82,142.88Z" fill="#fff"/><path d="M100.25,171.35v-1.66c2,0,2.94-.45,2.94-3V156.47c0-1.8-.72-2.44-3.09-2.67v-1.51l6.55-.83v4.41c0,.26,0,.42.26.42s.15-.19,1.21-1.81a5.84,5.84,0,0,1,4.93-3c2.3,0,3.69,1.4,3.69,2.9a2.85,2.85,0,0,1-3.16,3.21,5,5,0,0,1-1.09-.12,2.89,2.89,0,0,0,.26-1.32c0-1.28-.75-1.88-1.62-1.88-1.69,0-4.1,2.94-4.1,7v5.39c0,2.41.83,3,3.84,3v1.66Z" fill="#fff"/><path d="M120.22,164.57c.45,3.24,2.71,5.57,5.65,5.57,2.33,0,3.76-1.43,3.76-3.35,0-5-11.07-2.82-11.07-9.6,0-3.62,2.79-5.73,6.55-5.73a22.14,22.14,0,0,1,4.56.76,1.74,1.74,0,0,0,1-.3h1v5.8H130c-.94-3.54-3-4.6-5.2-4.6a2.87,2.87,0,0,0-3.09,2.83c0,4.63,11.07,2.18,11.07,9.64,0,3.65-2.78,6.21-6.92,6.21-2.41,0-4.07-.9-5.09-.9a1.13,1.13,0,0,0-.79.45h-1.66v-6.78Z" fill="#fff"/><path d="M140.48,146.57v5.35h5.57V154h-5.57v13.1c0,1.43.9,2.26,2.56,2.26a8,8,0,0,0,2.93-.6v1.81a11,11,0,0,1-5,1.2c-3,0-4.37-1.54-4.37-3.92V154h-2.86v-1.51a22.3,22.3,0,0,0,5.42-6Z" fill="#fff"/><path d="M156.78,171.35v-1.66c3.24-.07,4.07-.9,4.07-3V148.83c0-2.11-.83-2.94-4.07-3v-1.66h12.51v1.66c-3.24.07-4.07.9-4.07,3v15.74c0,1.62.11,3.2.22,5,1.21.08,2.45.15,3.58.15,6.29,0,8.4-.94,9.87-7.68h1.66l-.83,9.34Z" fill="#fff"/><path d="M181.73,171.35v-1.66c2.33,0,3.24-.45,3.24-3v-9.42c0-2-.68-3-3.16-3.16v-1.51l7-1.13v15.22c0,2.56.9,3,3.24,3v1.66Zm5.08-28.47a2.34,2.34,0,1,1-2.33,2.33A2.27,2.27,0,0,1,186.81,142.88Z" fill="#fff"/><path d="M193.38,171.35v-1.66c2.34,0,3.24-.45,3.24-3V154h-2.94V152.9c2.53-.31,2.94-1.85,3.24-4.18a6.32,6.32,0,0,1,6.67-5.84,16.87,16.87,0,0,1,4.78.83v4.82h-3.24c-.07-2.94-.83-3.69-2.18-3.69-1.7,0-2.49,1.58-2.49,4.29v2.79h5.27V154h-5.27v12.65c0,2.11.83,2.94,4.07,3v1.66Z" fill="#fff"/><path d="M210.79,160.8c0,4.86,2.63,8,6.32,8,2.41,0,4.3-.94,6.25-3.84l1.51.83c-2.48,4.36-5.08,6-9.23,6-5.72,0-9-4.14-9-10.17,0-6.25,4.22-10.17,9.27-10.17s8.43,3.17,8.58,9.34Zm9.34-2c-.08-4.15-2.19-5.73-4.37-5.73-2.79,0-4.52,2.19-4.9,5.73Z" fill="#fff"/><path d="M38.25,183.8l-.16,0-.31.06v5.61l.31.06.16,0h.07a.31.31,0,0,1,.27.33v.63H35.53v-.63a.3.3,0,0,1,.26-.33h.07l.16,0,.32-.06v-5.61l-.32-.06-.16,0h-.07a.3.3,0,0,1-.26-.33v-.63h3.06v.63a.31.31,0,0,1-.27.33Z" fill="#fff"/><path d="M48,182.83v.63a.3.3,0,0,1-.26.33h-.07l-.16,0-.31.06v6.67h-.75a.68.68,0,0,1-.27-.05.64.64,0,0,1-.23-.19l-4-5.15c0,.12,0,.23,0,.33s0,.22,0,.31v3.69l.7.1a.3.3,0,0,1,.26.33v.63h-3v-.63a.31.31,0,0,1,.27-.33h.07l.16,0,.32-.06v-5.61l-.32-.06-.16,0h-.07a.31.31,0,0,1-.27-.33v-.63h1.73a.2.2,0,0,1,.11,0,.17.17,0,0,1,.1.07l.11.12L46,188.23l0-.36c0-.12,0-.24,0-.35v-3.63l-.7-.1a.3.3,0,0,1-.26-.33v-.63h3Z" fill="#fff"/><path d="M54.27,188.15a2.83,2.83,0,0,1-.18,1,2.08,2.08,0,0,1-.53.8,2.34,2.34,0,0,1-.84.54,3.36,3.36,0,0,1-1.14.19h-.16a6.89,6.89,0,0,1-2.21-.41v-2h.61a.22.22,0,0,1,.24.19,7.12,7.12,0,0,1,.1.89,5.29,5.29,0,0,0,1.47.14,1.4,1.4,0,0,0,.95-.29,1,1,0,0,0,.33-.83.78.78,0,0,0-.15-.5,1.24,1.24,0,0,0-.41-.33,3.63,3.63,0,0,0-.56-.22l-.66-.19c-.22-.08-.44-.16-.65-.26a2.27,2.27,0,0,1-.58-.39,1.64,1.64,0,0,1-.39-.6,2.32,2.32,0,0,1-.16-.89,2,2,0,0,1,.17-.83,2.15,2.15,0,0,1,.49-.71,2.25,2.25,0,0,1,.79-.49,2.81,2.81,0,0,1,1.08-.2,5.9,5.9,0,0,1,2.22.44v2h-.61a.23.23,0,0,1-.25-.2c0-.1-.05-.39-.1-.87a3.27,3.27,0,0,0-1.25-.17,1.93,1.93,0,0,0-.51.06,1.09,1.09,0,0,0-.37.21.81.81,0,0,0-.24.31,1,1,0,0,0-.08.39.67.67,0,0,0,.17.45,1,1,0,0,0,.39.31,3.49,3.49,0,0,0,.58.24l.65.21a6.32,6.32,0,0,1,.65.27,2.08,2.08,0,0,1,.58.38,1.93,1.93,0,0,1,.41.57A2.05,2.05,0,0,1,54.27,188.15Z" fill="#fff"/><path d="M63.46,182.83v.63a.3.3,0,0,1-.27.33h-.06l-.16,0-.32.06v3.57a3.46,3.46,0,0,1-.23,1.27,3,3,0,0,1-.63,1,3.05,3.05,0,0,1-1,.66,3.86,3.86,0,0,1-2.68,0,3,3,0,0,1-1-.66,2.85,2.85,0,0,1-.64-1,3.46,3.46,0,0,1-.22-1.27v-3.57l-.32-.06-.16,0H55.7a.3.3,0,0,1-.27-.33v-.63h3.1v.63a.31.31,0,0,1-.27.33h-.07l-.18,0-.34.06v3.56a2.45,2.45,0,0,0,.12.8,1.81,1.81,0,0,0,.36.62,1.53,1.53,0,0,0,.54.39,1.93,1.93,0,0,0,.75.14,2,2,0,0,0,.75-.14,1.67,1.67,0,0,0,.55-.39,1.91,1.91,0,0,0,.35-.61,2.73,2.73,0,0,0,.13-.8v-3.57l-.34-.06-.18,0h-.07a.31.31,0,0,1-.27-.33v-.63h3.1Z" fill="#fff"/><path d="M71.67,189.93v.63H70.23a.61.61,0,0,1-.32-.07.77.77,0,0,1-.22-.22l-1.62-2.48a.62.62,0,0,0-.21-.19.67.67,0,0,0-.32-.06H67v2l.32.06.16,0h.06a.31.31,0,0,1,.27.33v.63H64.75v-.63a.3.3,0,0,1,.27-.33h.06l.16,0,.32-.06v-5.61l-.32-.06-.16,0H65a.3.3,0,0,1-.27-.33v-.63h3.09a5,5,0,0,1,1.36.16,2.73,2.73,0,0,1,.92.46,1.75,1.75,0,0,1,.53.71,2.14,2.14,0,0,1,.18.89,2.55,2.55,0,0,1-.12.74,2.22,2.22,0,0,1-.33.63,1.85,1.85,0,0,1-.54.5,3.52,3.52,0,0,1-.73.34,1.19,1.19,0,0,1,.47.45l1.22,1.79.34.06.18,0h.08A.31.31,0,0,1,71.67,189.93ZM69,186.12a1.13,1.13,0,0,0,.29-.42,1.57,1.57,0,0,0,.09-.54,1.13,1.13,0,0,0-.38-.91,1.86,1.86,0,0,0-1.19-.31H67v2.57h.82a2.2,2.2,0,0,0,.71-.11A1.28,1.28,0,0,0,69,186.12Z" fill="#fff"/><path d="M81.25,190v.54H78.64V190a.3.3,0,0,1,.22-.28l.21-.09,0-.11-.39-1H75.56l-.39,1.1,0,.06a2,2,0,0,0,.22.09.29.29,0,0,1,.21.28v.54H73V190a.3.3,0,0,1,.22-.28l.58-.25,2.61-6.66h1.48l2.62,6.66.59.25A.28.28,0,0,1,81.25,190Zm-5.31-2.55h2.34l-.89-2.41c0-.11-.08-.24-.14-.39s-.09-.33-.15-.51q-.07.27-.15.51a2.79,2.79,0,0,1-.14.41Z" fill="#fff"/><path d="M90.7,182.83v.63a.3.3,0,0,1-.26.33h-.07l-.16,0-.31.06v6.67h-.75a.74.74,0,0,1-.28-.05.62.62,0,0,1-.22-.19l-4-5.15c0,.12,0,.23,0,.33s0,.22,0,.31v3.69l.69.1a.3.3,0,0,1,.27.33v.63h-3v-.63a.31.31,0,0,1,.27-.33h.06l.17,0,.32-.06v-5.61l-.32-.06-.17,0h-.06a.31.31,0,0,1-.27-.33v-.63h1.73a.2.2,0,0,1,.11,0,.17.17,0,0,1,.1.07l.11.12,4.06,5.17q0-.19,0-.36c0-.12,0-.24,0-.35v-3.63l-.7-.1a.3.3,0,0,1-.26-.33v-.63h3Z" fill="#fff"/><path d="M97.29,185.08c0-.1-.05-.39-.09-.86a5.42,5.42,0,0,0-1.48-.25,2.54,2.54,0,0,0-1,.19,2.06,2.06,0,0,0-.78.54,2.54,2.54,0,0,0-.52.86,3.17,3.17,0,0,0-.19,1.14,3.25,3.25,0,0,0,.19,1.16,2.6,2.6,0,0,0,.49.85,2.18,2.18,0,0,0,1.67.72,4.5,4.5,0,0,0,.54,0,2.6,2.6,0,0,0,.44-.1,2.1,2.1,0,0,0,.37-.18,2.26,2.26,0,0,0,.35-.28.47.47,0,0,1,.12-.07.21.21,0,0,1,.13,0,.27.27,0,0,1,.2.09l.57.62a3.19,3.19,0,0,1-1.16.89,4.12,4.12,0,0,1-1.65.31,4,4,0,0,1-1.54-.3,3.27,3.27,0,0,1-1.18-.81,3.7,3.7,0,0,1-.75-1.26,4.67,4.67,0,0,1-.26-1.58,4.34,4.34,0,0,1,.29-1.6,3.49,3.49,0,0,1,.82-1.24,3.38,3.38,0,0,1,1.25-.83,4.35,4.35,0,0,1,1.61-.29,7,7,0,0,1,2.43.56v2h-.62A.24.24,0,0,1,97.29,185.08Z" fill="#fff"/><path d="M105.2,182.83v2h-.62a.22.22,0,0,1-.24-.2c0-.09,0-.31-.08-.69h-2.49v2.14h2.62v1.12h-2.62v2.18h2.49c0-.38.07-.6.08-.69a.22.22,0,0,1,.24-.2h.62v2H99.51v-.63a.31.31,0,0,1,.27-.33h.06l.16,0,.33-.06v-5.61l-.33-.06-.16,0h-.06a.31.31,0,0,1-.27-.33v-.63h5.69Z" fill="#fff"/><path d="M115.39,185.08a6.85,6.85,0,0,1-.1-.86,5.42,5.42,0,0,0-1.48-.25,2.54,2.54,0,0,0-1,.19,2.06,2.06,0,0,0-.78.54,2.54,2.54,0,0,0-.52.86,3.41,3.41,0,0,0-.19,1.14,3.48,3.48,0,0,0,.19,1.16,2.45,2.45,0,0,0,.5.85,2.14,2.14,0,0,0,1.66.72,4.39,4.39,0,0,0,.54,0,2.6,2.6,0,0,0,.44-.1,1.81,1.81,0,0,0,.37-.18,2.93,2.93,0,0,0,.36-.28.41.41,0,0,1,.11-.07.22.22,0,0,1,.13,0,.25.25,0,0,1,.2.09l.57.62a3.16,3.16,0,0,1-1.15.89,4.17,4.17,0,0,1-1.66.31,4,4,0,0,1-1.54-.3,3.27,3.27,0,0,1-1.18-.81,3.7,3.7,0,0,1-.75-1.26,4.68,4.68,0,0,1-.25-1.58,4.14,4.14,0,0,1,.29-1.6,3.7,3.7,0,0,1,2.06-2.07,4.39,4.39,0,0,1,1.61-.29,6.9,6.9,0,0,1,2.43.56v2h-.62A.22.22,0,0,1,115.39,185.08Z" fill="#fff"/><path d="M125,188.27a3.9,3.9,0,0,1-.79,1.26,3.54,3.54,0,0,1-1.24.82,4.42,4.42,0,0,1-3.2,0,3.54,3.54,0,0,1-1.24-.82,3.92,3.92,0,0,1-.8-1.26,4.07,4.07,0,0,1-.28-1.58,4,4,0,0,1,.28-1.57,3.77,3.77,0,0,1,.8-1.25,3.56,3.56,0,0,1,1.24-.83,4.34,4.34,0,0,1,1.6-.3,4.11,4.11,0,0,1,1.6.3,3.7,3.7,0,0,1,1.24.83,3.75,3.75,0,0,1,.79,1.25,4.22,4.22,0,0,1,.29,1.57A4.27,4.27,0,0,1,125,188.27Zm-1.36-2.71a2.32,2.32,0,0,0-.48-.86,2.11,2.11,0,0,0-.77-.54,2.54,2.54,0,0,0-1-.19,2.58,2.58,0,0,0-1,.19,2.11,2.11,0,0,0-.77.54,2.35,2.35,0,0,0-.5.86,3.58,3.58,0,0,0-.17,1.13,3.64,3.64,0,0,0,.17,1.14,2.27,2.27,0,0,0,.5.86,2.13,2.13,0,0,0,.77.55,2.76,2.76,0,0,0,1,.18,2.73,2.73,0,0,0,1-.18,2.13,2.13,0,0,0,.77-.55,2.24,2.24,0,0,0,.48-.86,3.64,3.64,0,0,0,.17-1.14A3.58,3.58,0,0,0,123.67,185.56Z" fill="#fff"/><path d="M136.12,183.8l-.16,0-.31.06v5.61l.31.06.16,0h.06a.31.31,0,0,1,.27.33v.63h-3v-.63a.31.31,0,0,1,.27-.33l.69-.1v-3.93c0-.1,0-.19,0-.3s0-.23,0-.34l-2.33,4.38a.7.7,0,0,1-.21.24.58.58,0,0,1-.3.08h-.19a.56.56,0,0,1-.3-.08.73.73,0,0,1-.22-.24l-2.36-4.39c0,.11,0,.23,0,.34s0,.21,0,.31v3.93l.7.1a.3.3,0,0,1,.26.33v.63h-3v-.63a.3.3,0,0,1,.26-.33h.07l.16,0,.32-.06v-5.61l-.32-.06-.16,0h-.07a.3.3,0,0,1-.26-.33v-.63h2.06l.13,0s.06,0,.1.08a.62.62,0,0,1,.09.12l2.31,4.29a2.83,2.83,0,0,1,.16.36,3.17,3.17,0,0,1,.16.37c.06-.13.1-.25.15-.37s.11-.25.17-.37l2.29-4.28.09-.12a.18.18,0,0,1,.11-.08l.12,0h2.06v.63a.31.31,0,0,1-.27.33Z" fill="#fff"/><path d="M144,185.29a2.71,2.71,0,0,1-.19,1,2.23,2.23,0,0,1-.56.8,2.64,2.64,0,0,1-.94.52,4,4,0,0,1-1.31.18h-1v1.67l.32.06.17,0h.06a.31.31,0,0,1,.27.33v.63h-3.06v-.63a.3.3,0,0,1,.27-.33h.06l.16,0,.32-.06v-5.61l-.32-.06-.16,0H138a.3.3,0,0,1-.27-.33v-.63H141a4.43,4.43,0,0,1,1.34.18,2.58,2.58,0,0,1,.93.51,2.06,2.06,0,0,1,.55.77A2.7,2.7,0,0,1,144,185.29Zm-1.44,0a1.47,1.47,0,0,0-.1-.56,1.06,1.06,0,0,0-.29-.43,1.38,1.38,0,0,0-.48-.26,2,2,0,0,0-.69-.1h-1v2.77h1a2.36,2.36,0,0,0,.69-.09,1.27,1.27,0,0,0,.48-.28,1.06,1.06,0,0,0,.29-.45A1.64,1.64,0,0,0,142.53,185.29Z" fill="#fff"/><path d="M152.53,190v.54h-2.61V190a.3.3,0,0,1,.22-.28l.21-.09,0-.11-.39-1h-3.08l-.39,1.1,0,.06a1.47,1.47,0,0,0,.21.09.29.29,0,0,1,.21.28v.54h-2.61V190a.3.3,0,0,1,.22-.28l.59-.25,2.6-6.66h1.48l2.62,6.66.59.25A.28.28,0,0,1,152.53,190Zm-5.31-2.55h2.34l-.89-2.41c0-.11-.08-.24-.14-.39s-.09-.33-.15-.51q-.07.27-.15.51a2.79,2.79,0,0,1-.14.41Z" fill="#fff"/><path d="M162,182.83v.63a.3.3,0,0,1-.27.33h-.06l-.16,0-.31.06v6.67h-.75a.74.74,0,0,1-.28-.05.62.62,0,0,1-.22-.19l-4.05-5.15a2,2,0,0,1,0,.33c0,.11,0,.22,0,.31v3.69l.69.1a.31.31,0,0,1,.27.33v.63h-3v-.63a.31.31,0,0,1,.27-.33h.06l.16,0,.32-.06v-5.61l-.32-.06-.16,0h-.06a.31.31,0,0,1-.27-.33v-.63h1.72a.21.21,0,0,1,.12,0,.2.2,0,0,1,.1.07l.1.12,4.07,5.17q0-.19,0-.36c0-.12,0-.24,0-.35v-3.63l-.7-.1a.31.31,0,0,1-.27-.33v-.63h3Z" fill="#fff"/><path d="M170.67,182.83v.63a.3.3,0,0,1-.27.33h-.06l-.16,0-.31.06-2.18,3.67v1.94l.31.06.16,0h.06a.31.31,0,0,1,.27.33v.63h-3.06v-.63a.31.31,0,0,1,.27-.33h.07l.16,0,.31-.06v-1.94l-2.18-3.67-.32-.06-.16,0h-.06a.3.3,0,0,1-.27-.33v-.63h2.89v.63a.31.31,0,0,1-.27.33h0l-.11,0-.15,0,1,1.87c.08.15.15.29.21.43l.16.4a3.33,3.33,0,0,1,.16-.4c.07-.14.13-.28.21-.43l1-1.87-.16,0-.1,0h0a.31.31,0,0,1-.27-.33v-.63h2.89Z" fill="#fff"/><path d="M178.05,183.8l-.16,0-.31.06v5.61l.31.06.16,0h.07a.3.3,0,0,1,.26.33v.63h-3v-.63a.3.3,0,0,1,.26-.33h.07l.16,0,.32-.06v-5.61l-.32-.06-.16,0h-.07a.3.3,0,0,1-.26-.33v-.63h3v.63a.3.3,0,0,1-.26.33Z" fill="#fff"/><path d="M180,189.51a.85.85,0,0,1,.17-.25.73.73,0,0,1,.26-.17.68.68,0,0,1,.32-.07.71.71,0,0,1,.32.07.73.73,0,0,1,.26.17.85.85,0,0,1,.17.25.91.91,0,0,1,.06.32.88.88,0,0,1-.06.33.81.81,0,0,1-.17.24.73.73,0,0,1-.26.17.67.67,0,0,1-.31.07.68.68,0,0,1-.32-.07.77.77,0,0,1-.27-.17.81.81,0,0,1-.17-.24.88.88,0,0,1-.06-.33A.91.91,0,0,1,180,189.51Z" fill="#fff"/><path d="M185.83,183.8l-.16,0-.31.06v5.61l.31.06.16,0h.07a.31.31,0,0,1,.27.33v.63h-3.06v-.63a.3.3,0,0,1,.26-.33h.07l.16,0,.32-.06v-5.61l-.32-.06-.16,0h-.07a.3.3,0,0,1-.26-.33v-.63h3.06v.63a.31.31,0,0,1-.27.33Z" fill="#fff"/><path d="M187.78,189.51a.85.85,0,0,1,.17-.25.73.73,0,0,1,.26-.17.68.68,0,0,1,.32-.07.71.71,0,0,1,.32.07.73.73,0,0,1,.26.17.85.85,0,0,1,.17.25.91.91,0,0,1,.06.32.88.88,0,0,1-.06.33.81.81,0,0,1-.17.24.73.73,0,0,1-.26.17.67.67,0,0,1-.31.07.68.68,0,0,1-.32-.07.77.77,0,0,1-.27-.17.81.81,0,0,1-.17-.24.88.88,0,0,1-.06-.33A.91.91,0,0,1,187.78,189.51Z" fill="#fff"/><path d="M111,31.25c-11.34-2.05-19.85,1-25.45-9C98.12,30.5,112,22.25,117.29,35A9.82,9.82,0,0,0,111,31.25Z" fill="#ea0029"/><path d="M126.54,37.36H120.7a10.07,10.07,0,0,0-3.85-8.77l0,0c-8-7.7-30.54-1.63-36.76-14.42,7.49,7.17,32.72,2,42.79,10.36C127.79,28.61,128.41,33.25,126.54,37.36Z" fill="#ea0029"/><path d="M108.68,11.2C124.24,11,126.91,21.27,127,24.92c-7.56-14.61-45.64-1.24-52.08-21.17C74.94,3.75,80.18,11.6,108.68,11.2Z" fill="#ea0029"/><path d="M115,51.57c0,.78,1.68,29,2.8,48.5l3,2.19.09-.06v-.08c0-.37,0-.75,0-1.13l0-.65c0-.4,0-.8,0-1.2l0-.34c0-.44,0-.89,0-1.34,0-.15,0-.31,0-.47.07-2,.16-4.12.24-6.25l0-.44,0-1.27,0-.64c.09-2.22.18-4.46.27-6.69v-.29c.05-1,.09-2.09.13-3.13l.09-2.23c.12-3,.24-5.9.35-8.62,0-.33,0-.65,0-1l0-.43c0-.37,0-.73,0-1.09l0-.83,0-.64.06-1.49v0c0-1.08.08-2.11.12-3.08v-.32c0-.35,0-.7,0-1l0-.47,0-.76,0-.46c0-.3,0-.6,0-.88v-.23c0-.33,0-.65,0-.95v-.12c0-.34,0-.67,0-1a1.51,1.51,0,0,0-1.5-1.56h-3.1s1.65-.92,3.13-1.77a9,9,0,0,0,3.23-3.2c1.24-2.15,2.52-5,2.52-5H104.4C107.43,41.18,114.63,46.73,115,51.57Z" fill="#afaecc"/><path d="M184.84,45.32a4.22,4.22,0,0,0-4.21-4.14H137.52a9.59,9.59,0,0,0-4.76,1.87c-2.95,2-5.8,5.21-6,8.23,0,0,0,.08,0,.16v.14c0,.06,0,.12,0,.21v.12c0,.12,0,.24,0,.38v.2q0,.19,0,.42c0,.13,0,.27,0,.42l0,.32,0,.55,0,.43,0,.52,0,.58,0,.44-.06,1v.21c0,.26,0,.55,0,.83s0,.45,0,.69v.16c0,.4,0,.82-.08,1.25-.06,1-.12,2.1-.18,3.24-.09,1.44-.18,3-.27,4.58l0,.73c0,.93-.11,1.88-.17,2.84,0,.44,0,.88-.07,1.32,0,.2,0,.4,0,.6,0,.57-.06,1.15-.1,1.73v.32c0,.59-.07,1.18-.11,1.78v.27c0,.4,0,.79-.07,1.19-.14,2.4-.28,4.84-.42,7.27v.07c0,.38,0,.75-.07,1.13-.06,1.14-.13,2.28-.19,3.41s-.12,2.11-.18,3.15c0,.14,0,.28,0,.43-.06,1-.12,2-.17,2.9S124,99.12,124,100l6.27-4.56-3.58,11,9.39,6.83H124.43l-3.59,11-3.59-11H105.64l9.4-6.83-3.59-11,6.37,4.63c-1.12-19.47-2.75-47.72-2.8-48.5-.39-4.84-7.59-10.39-10.62-10.39h-3.21A6.62,6.62,0,0,0,95.4,44.5c-1.3,2.13-43.33,71.89-43.33,71.89-2.66,4.6-6,7.86-11.61,8l-.85,6H72l1-6c-7.74,0-10.16-1.21-10.16-5.44,0-3.63,2.54-9.67,8.7-20.31H98.26c1.21,12.81,1.57,16.44,1.57,18.74,0,6-1.82,7-10.16,7l-1,6h65.58v-6C145,123.65,144,122.07,144,111.8l.11-22.74c15,0,16.69,6.41,17.78,15.48h5.51V66.33h-5.51c-1.09,9.07-2.79,15.48-17.78,15.48V62.34c0-3.72-.11-7.87.07-10.54a3.11,3.11,0,0,1,3.29-2.64h2.45c19.87,0,26.2,6.29,29.1,21.53h6.29ZM75.16,91.84,93.6,60.89c.6-1.09.84-1.33,1.21-1.33s.6.36.72,1.33l2.12,31Z" fill="#002169"/></svg>