<svg xmlns="http://www.w3.org/2000/svg" viewBox="0 0 224.87 194.4"><title>reverse</title><path d="M115,51.57c0,.78,1.68,29,2.8,48.5l3,2.19.09-.06v-.08c0-.37,0-.75,0-1.13l0-.65c0-.4,0-.8,0-1.2l0-.34c0-.44,0-.89,0-1.34,0-.15,0-.31,0-.47.07-2,.16-4.12.24-6.25l0-.44,0-1.27,0-.64c.09-2.22.18-4.46.27-6.69v-.29c.05-1,.09-2.09.13-3.13l.09-2.23c.12-3,.24-5.9.35-8.62,0-.33,0-.65,0-1V66c0-.37,0-.73,0-1.09l0-.83,0-.64.06-1.49v0c0-1.08.08-2.11.12-3.08v-.32c0-.35,0-.7,0-1l0-.47,0-.76,0-.46c0-.3,0-.6,0-.88v-.23c0-.33,0-.65,0-.95v-.12c0-.34,0-.67,0-1a1.51,1.51,0,0,0-1.5-1.56h-3.1s1.65-.92,3.13-1.77a9,9,0,0,0,3.23-3.2c1.24-2.15,2.52-5,2.52-5H104.4C107.43,41.18,114.63,46.73,115,51.57Z" fill="#fff" opacity="0.5"/><path d="M24.18,167.09,18.3,151c-.83-2.26-1.69-4.82-2.41-7.45H12.35L3.88,165.1C2.75,168,2.15,169.62,0,169.69v1.66H9.41v-1.66C7,169.62,6,169.35,6,167.85c0-.79.22-2.07,1.8-6.67H17.7L19.36,166a6.1,6.1,0,0,1,.45,2c0,1.24-1.13,1.69-3.5,1.69v1.66H27.49v-1.66A3.52,3.52,0,0,1,24.18,167.09ZM8.59,159.22l3.8-10.54c.11-.3.23-.6.45-.6s.34.26.42.52L17,159.22Z" fill="#fff"/><path d="M38.42,169.69c-1.81,0-2.71-.45-2.71-3v-9.42c1.09-1.54,2.83-3,4.67-3s3.24,1.06,3.24,3.39v9c0,2.56-.9,3-2.71,3v1.66h9.26v-1.66c-1.81,0-2.71-.45-2.71-3v-9.42a5.84,5.84,0,0,1,4.67-3c2,0,3.24,1.06,3.24,3.39v9c0,2.56-.91,3-2.71,3v1.66h9.26v-1.66c-1.81,0-2.71-.45-2.71-3V156.51c0-3.46-2.41-5-5.39-5a7.19,7.19,0,0,0-4.93,2c-1.28,1.06-1.17,1.39-1.51,1.39s-.18-.45-1-1.46A5,5,0,0,0,42,151.46a7.66,7.66,0,0,0-5.31,2.45c-.6.57-.71.72-.83.72s-.11,0-.11-.11v-3.06l-6.33,1.13v1.51c1.81.19,2.49,1.13,2.49,3.16v9.42c0,2.56-.9,3-2.71,3v1.66h9.26Z" fill="#fff"/><path d="M76.08,169.69c-3.24-.07-4.07-.9-4.07-3V158c5.8.07,6.48,1,6.78,4.59h1.65V151.77H78.79c-.3,3.61-1,4.52-6.78,4.59v-5.57c0-1.62.11-3.2.23-5h3.84c7.87,0,9,1.65,9.45,7h1.66v-9c-2.19.11-4.49.3-6.75.3H63.57v1.66c3.24.07,4.07.9,4.07,3v17.85c0,2.11-.83,2.94-4.07,3v1.66H76.08Z" fill="#fff"/><path d="M95.82,166.68V151.46l-7,1.13v1.51c2.49.19,3.17,1.13,3.17,3.16v9.42c0,2.56-.91,3-3.24,3v1.66H99.06v-1.66C96.72,169.69,95.82,169.24,95.82,166.68Z" fill="#fff"/><circle cx="93.82" cy="145.21" r="2.33" fill="#fff"/><path d="M113.05,151.46a5.84,5.84,0,0,0-4.93,3c-1.06,1.62-.94,1.81-1.21,1.81s-.26-.16-.26-.42v-4.41l-6.55.83v1.51c2.37.23,3.09.87,3.09,2.67v10.21c0,2.56-.91,3-2.94,3v1.66h10.62v-1.66c-3,0-3.84-.6-3.84-3v-5.39c0-4.1,2.41-7,4.1-7,.87,0,1.62.6,1.62,1.88a2.89,2.89,0,0,1-.26,1.32,5,5,0,0,0,1.09.12,2.85,2.85,0,0,0,3.16-3.21C116.74,152.86,115.35,151.46,113.05,151.46Z" fill="#fff"/><path d="M132.79,165.59c0-7.46-11.07-5-11.07-9.64a2.87,2.87,0,0,1,3.09-2.83c2.19,0,4.26,1.06,5.2,4.6h1.65v-5.8h-1a1.74,1.74,0,0,1-1,.3,22.14,22.14,0,0,0-4.56-.76c-3.76,0-6.55,2.11-6.55,5.73,0,6.78,11.07,4.59,11.07,9.6,0,1.92-1.43,3.35-3.76,3.35-2.94,0-5.2-2.33-5.65-5.57h-1.89v6.78H120a1.13,1.13,0,0,1,.79-.45c1,0,2.68.9,5.09.9C130,171.8,132.79,169.24,132.79,165.59Z" fill="#fff"/><path d="M146,170.6v-1.81a8,8,0,0,1-2.93.6c-1.66,0-2.56-.83-2.56-2.26V154h5.57v-2.11h-5.57v-5.35h-1.29a22.3,22.3,0,0,1-5.42,6V154h2.86v13.85c0,2.38,1.36,3.92,4.37,3.92A11,11,0,0,0,146,170.6Z" fill="#fff"/><path d="M178.89,162c-1.47,6.74-3.58,7.68-9.87,7.68-1.13,0-2.37-.07-3.58-.15-.11-1.77-.22-3.35-.22-5V148.83c0-2.11.83-2.94,4.07-3v-1.66H156.78v1.66c3.24.07,4.07.9,4.07,3v17.85c0,2.11-.83,2.94-4.07,3v1.66h22.94l.83-9.34Z" fill="#fff"/><path d="M184.48,145.21a2.34,2.34,0,1,0,2.33-2.33A2.27,2.27,0,0,0,184.48,145.21Z" fill="#fff"/><path d="M188.81,166.68V151.46l-7,1.13v1.51c2.48.19,3.16,1.13,3.16,3.16v9.42c0,2.56-.91,3-3.24,3v1.66h10.32v-1.66C189.71,169.69,188.81,169.24,188.81,166.68Z" fill="#fff"/><path d="M200.46,149.13c0-2.71.79-4.29,2.49-4.29,1.35,0,2.11.75,2.18,3.69h3.24v-4.82a16.87,16.87,0,0,0-4.78-.83,6.32,6.32,0,0,0-6.67,5.84c-.3,2.33-.71,3.87-3.24,4.18V154h2.94v12.65c0,2.56-.9,3-3.24,3v1.66h11.15v-1.66c-3.24-.07-4.07-.9-4.07-3V154h5.27v-2.11h-5.27Z" fill="#fff"/><path d="M223.36,165c-2,2.9-3.84,3.84-6.25,3.84-3.69,0-6.32-3.13-6.32-8h13.7c-.15-6.17-3.42-9.34-8.58-9.34s-9.27,3.92-9.27,10.17c0,6,3.28,10.17,9,10.17,4.15,0,6.75-1.66,9.23-6Zm-7.6-11.83c2.18,0,4.29,1.58,4.37,5.73h-9.27C211.24,155.31,213,153.12,215.76,153.12Z" fill="#fff"/><path d="M36.34,182.83h-.81v.63a.3.3,0,0,0,.26.33h.07l.16,0,.32.06v5.61l-.32.06-.16,0h-.07a.3.3,0,0,0-.26.33v.63h3.06v-.63a.31.31,0,0,0-.27-.33h-.07l-.16,0-.31-.06v-5.61l.31-.06.16,0h.07a.31.31,0,0,0,.27-.33v-.63H36.34Z" fill="#fff"/><path d="M46,182.83H45v.63a.3.3,0,0,0,.26.33l.7.1v3.63c0,.11,0,.23,0,.35l0,.36-4.06-5.17-.11-.12a.17.17,0,0,0-.1-.07.2.2,0,0,0-.11,0H39.88v.63a.31.31,0,0,0,.27.33h.07l.16,0,.32.06v5.61l-.32.06-.16,0h-.07a.31.31,0,0,0-.27.33v.63h3v-.63a.3.3,0,0,0-.26-.33l-.7-.1v-3.69c0-.09,0-.2,0-.31s0-.21,0-.33l4,5.15a.64.64,0,0,0,.23.19.68.68,0,0,0,.27.05h.75v-6.67l.31-.06.16,0h.07a.3.3,0,0,0,.26-.33v-.63H46Z" fill="#fff"/><path d="M53.71,186.75a2.08,2.08,0,0,0-.58-.38,6.32,6.32,0,0,0-.65-.27l-.65-.21a3.49,3.49,0,0,1-.58-.24,1,1,0,0,1-.39-.31.67.67,0,0,1-.17-.45,1,1,0,0,1,.08-.39.81.81,0,0,1,.24-.31,1.09,1.09,0,0,1,.37-.21,1.93,1.93,0,0,1,.51-.06,3.27,3.27,0,0,1,1.25.17c0,.48.08.77.1.87a.23.23,0,0,0,.25.2h.61v-2a5.9,5.9,0,0,0-2.22-.44,2.81,2.81,0,0,0-1.08.2,2.25,2.25,0,0,0-.79.49,2.15,2.15,0,0,0-.49.71,2,2,0,0,0-.17.83,2.32,2.32,0,0,0,.16.89,1.64,1.64,0,0,0,.39.6,2.27,2.27,0,0,0,.58.39c.21.1.43.18.65.26l.66.19a3.63,3.63,0,0,1,.56.22,1.24,1.24,0,0,1,.41.33.78.78,0,0,1,.15.5,1,1,0,0,1-.33.83,1.4,1.4,0,0,1-.95.29,5.29,5.29,0,0,1-1.47-.14,7.12,7.12,0,0,0-.1-.89.22.22,0,0,0-.24-.19h-.61v2a6.89,6.89,0,0,0,2.21.41h.16a3.36,3.36,0,0,0,1.14-.19,2.34,2.34,0,0,0,.84-.54,2.08,2.08,0,0,0,.53-.8,2.83,2.83,0,0,0,.18-1,2.05,2.05,0,0,0-.15-.83A1.93,1.93,0,0,0,53.71,186.75Z" fill="#fff"/><path d="M61.22,182.83h-.86v.63a.31.31,0,0,0,.27.33h.07l.18,0,.34.06v3.57a2.73,2.73,0,0,1-.13.8,1.91,1.91,0,0,1-.35.61,1.67,1.67,0,0,1-.55.39,2,2,0,0,1-.75.14,1.93,1.93,0,0,1-.75-.14,1.53,1.53,0,0,1-.54-.39,1.81,1.81,0,0,1-.36-.62,2.45,2.45,0,0,1-.12-.8v-3.56l.34-.06.18,0h.07a.31.31,0,0,0,.27-.33v-.63h-3.1v.63a.3.3,0,0,0,.27.33h.06l.16,0,.32.06v3.57a3.46,3.46,0,0,0,.22,1.27,2.85,2.85,0,0,0,.64,1,3,3,0,0,0,1,.66,3.86,3.86,0,0,0,2.68,0,3.05,3.05,0,0,0,1-.66,3,3,0,0,0,.63-1,3.46,3.46,0,0,0,.23-1.27v-3.57l.32-.06.16,0h.06a.3.3,0,0,0,.27-.33v-.63H61.22Z" fill="#fff"/><path d="M71.4,189.6h-.08l-.18,0-.34-.06-1.22-1.79a1.19,1.19,0,0,0-.47-.45,3.52,3.52,0,0,0,.73-.34,1.85,1.85,0,0,0,.54-.5,2.22,2.22,0,0,0,.33-.63,2.55,2.55,0,0,0,.12-.74,2.14,2.14,0,0,0-.18-.89,1.75,1.75,0,0,0-.53-.71,2.73,2.73,0,0,0-.92-.46,5,5,0,0,0-1.36-.16H64.75v.63a.3.3,0,0,0,.27.33h.06l.16,0,.32.06v5.61l-.32.06-.16,0H65a.3.3,0,0,0-.27.33v.63h3.06v-.63a.31.31,0,0,0-.27-.33h-.06l-.16,0L67,189.5v-2h.54a.67.67,0,0,1,.32.06.62.62,0,0,1,.21.19l1.62,2.48a.77.77,0,0,0,.22.22.61.61,0,0,0,.32.07h1.44v-.63A.31.31,0,0,0,71.4,189.6Zm-2.87-3.2a2.2,2.2,0,0,1-.71.11H67v-2.57h.84a1.86,1.86,0,0,1,1.19.31,1.13,1.13,0,0,1,.38.91,1.57,1.57,0,0,1-.09.54,1.13,1.13,0,0,1-.29.42A1.28,1.28,0,0,1,68.53,186.4Z" fill="#fff"/><path d="M81.05,189.74l-.59-.25-2.62-6.66H76.36l-2.61,6.66-.58.25A.3.3,0,0,0,73,190v.54h2.61V190a.29.29,0,0,0-.21-.28,2,2,0,0,1-.22-.09l0-.06.39-1.1h3.08l.39,1,0,.11-.21.09a.3.3,0,0,0-.22.28v.54h2.61V190A.28.28,0,0,0,81.05,189.74Zm-5.11-2.27.87-2.39a2.79,2.79,0,0,0,.14-.41q.08-.24.15-.51c.06.18.1.36.15.51s.1.28.14.39l.89,2.41Z" fill="#fff"/><path d="M88.63,182.83h-1v.63a.3.3,0,0,0,.26.33l.7.1v3.63c0,.11,0,.23,0,.35s0,.23,0,.36l-4.06-5.17-.11-.12a.17.17,0,0,0-.1-.07.2.2,0,0,0-.11,0H82.56v.63a.31.31,0,0,0,.27.33h.06l.17,0,.32.06v5.61l-.32.06-.17,0h-.06a.31.31,0,0,0-.27.33v.63h3v-.63a.3.3,0,0,0-.27-.33l-.69-.1v-3.69c0-.09,0-.2,0-.31s0-.21,0-.33l4,5.15a.62.62,0,0,0,.22.19.74.74,0,0,0,.28.05h.75v-6.67l.31-.06.16,0h.07a.3.3,0,0,0,.26-.33v-.63H88.63Z" fill="#fff"/><path d="M97.53,188.74a.21.21,0,0,0-.13,0,.47.47,0,0,0-.12.07,2.26,2.26,0,0,1-.35.28,2.1,2.1,0,0,1-.37.18,2.6,2.6,0,0,1-.44.1,4.5,4.5,0,0,1-.54,0,2.18,2.18,0,0,1-1.67-.72,2.6,2.6,0,0,1-.49-.85,3.25,3.25,0,0,1-.19-1.16,3.17,3.17,0,0,1,.19-1.14,2.54,2.54,0,0,1,.52-.86,2.06,2.06,0,0,1,.78-.54,2.54,2.54,0,0,1,1-.19,5.42,5.42,0,0,1,1.48.25c0,.47.07.76.09.86a.24.24,0,0,0,.25.19h.62v-2a7,7,0,0,0-2.43-.56,4.35,4.35,0,0,0-1.61.29,3.38,3.38,0,0,0-1.25.83,3.49,3.49,0,0,0-.82,1.24,4.34,4.34,0,0,0-.29,1.6,4.67,4.67,0,0,0,.26,1.58,3.7,3.7,0,0,0,.75,1.26,3.27,3.27,0,0,0,1.18.81,4,4,0,0,0,1.54.3,4.12,4.12,0,0,0,1.65-.31,3.09,3.09,0,0,0,1.16-.89l-.57-.62A.27.27,0,0,0,97.53,188.74Z" fill="#fff"/><path d="M99.51,182.83v.63a.31.31,0,0,0,.27.33h.06l.16,0,.33.06v5.61l-.33.06-.16,0h-.06a.31.31,0,0,0-.27.33v.63h5.69v-2h-.62a.22.22,0,0,0-.24.2c0,.09,0,.31-.08.69h-2.49v-2.18h2.62v-1.12h-2.62V184h2.49c0,.38.07.6.08.69a.22.22,0,0,0,.24.2h.62v-2H99.51Z" fill="#fff"/><path d="M115.62,188.74a.22.22,0,0,0-.13,0l-.12.07a2.26,2.26,0,0,1-.35.28,1.81,1.81,0,0,1-.37.18,2.6,2.6,0,0,1-.44.1,4.39,4.39,0,0,1-.54,0,2.14,2.14,0,0,1-1.66-.72,2.45,2.45,0,0,1-.5-.85,3.48,3.48,0,0,1-.19-1.16,3.41,3.41,0,0,1,.19-1.14,2.54,2.54,0,0,1,.52-.86,2.06,2.06,0,0,1,.78-.54,2.54,2.54,0,0,1,1-.19,5.42,5.42,0,0,1,1.48.25,6.85,6.85,0,0,0,.1.86.22.22,0,0,0,.24.19h.62v-2a6.9,6.9,0,0,0-2.43-.56,4.39,4.39,0,0,0-1.61.29,3.47,3.47,0,0,0-1.25.83,3.63,3.63,0,0,0-.82,1.24,4.34,4.34,0,0,0-.28,1.6,4.68,4.68,0,0,0,.25,1.58,3.7,3.7,0,0,0,.75,1.26,3.27,3.27,0,0,0,1.18.81,4,4,0,0,0,1.54.3,4.17,4.17,0,0,0,1.66-.31,3.05,3.05,0,0,0,1.15-.89l-.57-.62A.25.25,0,0,0,115.62,188.74Z" fill="#fff"/><path d="M124.24,183.87A3.7,3.7,0,0,0,123,183a4.11,4.11,0,0,0-1.6-.3,4.34,4.34,0,0,0-1.6.3,3.56,3.56,0,0,0-1.24.83,3.77,3.77,0,0,0-.8,1.25,4,4,0,0,0-.28,1.57,4.07,4.07,0,0,0,.28,1.58,3.92,3.92,0,0,0,.8,1.26,3.54,3.54,0,0,0,1.24.82,4.42,4.42,0,0,0,3.2,0,3.54,3.54,0,0,0,1.24-.82,3.9,3.9,0,0,0,.79-1.26,4.27,4.27,0,0,0,.29-1.58,4.22,4.22,0,0,0-.29-1.57A3.75,3.75,0,0,0,124.24,183.87Zm-.57,4a2.27,2.27,0,0,1-.48.85,2.13,2.13,0,0,1-.77.55,2.73,2.73,0,0,1-1,.18,2.76,2.76,0,0,1-1-.18,2.13,2.13,0,0,1-.77-.55,2.31,2.31,0,0,1-.5-.85,3.75,3.75,0,0,1-.17-1.15,3.58,3.58,0,0,1,.17-1.13,2.35,2.35,0,0,1,.5-.86,2.11,2.11,0,0,1,.77-.54,2.58,2.58,0,0,1,1-.19,2.54,2.54,0,0,1,1,.19,2.11,2.11,0,0,1,.77.54,2.32,2.32,0,0,1,.48.86,3.58,3.58,0,0,1,.17,1.13A3.75,3.75,0,0,1,123.67,187.84Z" fill="#fff"/><path d="M134.55,182.83h-.16l-.12,0a.18.18,0,0,0-.11.08l-.09.12-2.29,4.28c-.06.12-.11.24-.17.37s-.09.24-.15.37a3.17,3.17,0,0,0-.16-.37,2.83,2.83,0,0,0-.16-.36l-2.31-4.29a.62.62,0,0,0-.09-.12s-.06-.07-.1-.08l-.13,0h-2.06v.63a.3.3,0,0,0,.26.33h.07l.16,0,.32.06v5.61l-.32.06-.16,0h-.07a.3.3,0,0,0-.26.33v.63h3v-.63a.3.3,0,0,0-.26-.33l-.7-.1v-3.93c0-.1,0-.21,0-.31s0-.23,0-.34l2.36,4.39a.73.73,0,0,0,.22.24.56.56,0,0,0,.3.08h.19a.58.58,0,0,0,.3-.08.7.7,0,0,0,.21-.24l2.33-4.38c0,.11,0,.23,0,.34s0,.2,0,.3v3.93l-.69.1a.31.31,0,0,0-.27.33v.63h3v-.63a.31.31,0,0,0-.27-.33h-.06l-.16,0-.31-.06v-5.61l.31-.06.16,0h.06a.31.31,0,0,0,.27-.33v-.63h-1.9Z" fill="#fff"/><path d="M143.24,183.52a2.58,2.58,0,0,0-.93-.51,4.43,4.43,0,0,0-1.34-.18h-3.2v.63a.3.3,0,0,0,.27.33h.06l.16,0,.32.06v5.61l-.32.06-.16,0H138a.3.3,0,0,0-.27.33v.63h3.06v-.63a.31.31,0,0,0-.27-.33h-.06l-.17,0-.32-.06v-1.66h1a4,4,0,0,0,1.31-.19,2.64,2.64,0,0,0,.94-.52,2.23,2.23,0,0,0,.56-.8,2.9,2.9,0,0,0,0-2A2.06,2.06,0,0,0,143.24,183.52Zm-.81,2.37a1.06,1.06,0,0,1-.29.45,1.27,1.27,0,0,1-.48.28,2.36,2.36,0,0,1-.69.09h-1v-2.77h1a2,2,0,0,1,.69.1,1.38,1.38,0,0,1,.48.26,1.06,1.06,0,0,1,.29.43,1.47,1.47,0,0,1,.1.56A1.64,1.64,0,0,1,142.43,185.89Z" fill="#fff"/><path d="M152.33,189.74l-.59-.25-2.62-6.66h-1.48l-2.6,6.66-.59.25a.3.3,0,0,0-.22.28v.54h2.61V190a.29.29,0,0,0-.21-.28,1.47,1.47,0,0,1-.21-.09l0-.06.39-1.1h3.08l.39,1,0,.11-.21.09a.3.3,0,0,0-.22.28v.54h2.61V190A.28.28,0,0,0,152.33,189.74Zm-5.11-2.27.87-2.39a2.79,2.79,0,0,0,.14-.41q.08-.24.15-.51c.06.18.1.36.15.51s.1.28.14.39l.89,2.41Z" fill="#fff"/><path d="M159.91,182.83h-1v.63a.31.31,0,0,0,.27.33l.7.1v3.63c0,.11,0,.23,0,.35s0,.23,0,.36l-4.07-5.17-.1-.12a.2.2,0,0,0-.1-.07.21.21,0,0,0-.12,0h-1.72v.63a.31.31,0,0,0,.27.33h.06l.16,0,.32.06v5.61l-.32.06-.16,0h-.06a.31.31,0,0,0-.27.33v.63h3v-.63a.31.31,0,0,0-.27-.33l-.69-.1v-3.69c0-.09,0-.2,0-.31a2,2,0,0,0,0-.33l4.05,5.15a.62.62,0,0,0,.22.19.74.74,0,0,0,.28.05h.75v-6.67l.31-.06.16,0h.06a.3.3,0,0,0,.27-.33v-.63h-2.07Z" fill="#fff"/><path d="M170.31,182.83h-2.53v.63a.31.31,0,0,0,.27.33h0l.1,0,.16,0-1,1.87c-.08.15-.14.29-.21.43a3.33,3.33,0,0,0-.16.4l-.16-.4c-.06-.14-.13-.28-.21-.43l-1-1.87.15,0,.11,0h0a.31.31,0,0,0,.27-.33v-.63h-2.89v.63a.3.3,0,0,0,.27.33h.06l.16,0,.32.06,2.18,3.67v1.94l-.31.06-.16,0h-.07a.31.31,0,0,0-.27.33v.63h3.06v-.63a.31.31,0,0,0-.27-.33h-.06l-.16,0-.31-.06v-1.94l2.18-3.67.31-.06.16,0h.06a.3.3,0,0,0,.27-.33v-.63h-.36Z" fill="#fff"/><path d="M176.14,182.83h-.81v.63a.3.3,0,0,0,.26.33h.07l.16,0,.32.06v5.61l-.32.06-.16,0h-.07a.3.3,0,0,0-.26.33v.63h3v-.63a.3.3,0,0,0-.26-.33h-.07l-.16,0-.31-.06v-5.61l.31-.06.16,0h.07a.3.3,0,0,0,.26-.33v-.63h-2.24Z" fill="#fff"/><path d="M181.33,189.26a.73.73,0,0,0-.26-.17.71.71,0,0,0-.32-.07.68.68,0,0,0-.32.07.73.73,0,0,0-.26.17.85.85,0,0,0-.17.25.92.92,0,0,0-.06.33.87.87,0,0,0,.06.32.81.81,0,0,0,.17.24.77.77,0,0,0,.27.17.68.68,0,0,0,.32.07.67.67,0,0,0,.31-.07.73.73,0,0,0,.26-.17.81.81,0,0,0,.17-.24.87.87,0,0,0,.06-.32.92.92,0,0,0-.06-.33A.85.85,0,0,0,181.33,189.26Z" fill="#fff"/><path d="M183.92,182.83h-.81v.63a.3.3,0,0,0,.26.33h.07l.16,0,.32.06v5.61l-.32.06-.16,0h-.07a.3.3,0,0,0-.26.33v.63h3.06v-.63a.31.31,0,0,0-.27-.33h-.07l-.16,0-.31-.06v-5.61l.31-.06.16,0h.07a.31.31,0,0,0,.27-.33v-.63h-2.25Z" fill="#fff"/><path d="M189.11,189.26a.73.73,0,0,0-.26-.17.71.71,0,0,0-.32-.07.68.68,0,0,0-.32.07.73.73,0,0,0-.26.17.85.85,0,0,0-.17.25.92.92,0,0,0-.06.33.87.87,0,0,0,.06.32.81.81,0,0,0,.17.24.77.77,0,0,0,.27.17.68.68,0,0,0,.32.07.67.67,0,0,0,.31-.07.73.73,0,0,0,.26-.17.81.81,0,0,0,.17-.24.87.87,0,0,0,.06-.32.92.92,0,0,0-.06-.33A.85.85,0,0,0,189.11,189.26Z" fill="#fff"/><path d="M85.55,22.25c5.6,10,14.11,7,25.45,9A9.82,9.82,0,0,1,117.29,35C112,22.25,98.12,30.5,85.55,22.25Z" fill="#fff"/><path d="M125.74,37.36h.8c1.86-4.11,1.25-8.75-3.62-12.8-10.07-8.38-35.3-3.19-42.79-10.36,6.22,12.79,28.81,6.72,36.76,14.42l0,0a10.07,10.07,0,0,1,3.85,8.77Z" fill="#fff"/><path d="M127,24.92c-.11-3.65-2.78-13.94-18.34-13.72-28.5.4-33.74-7.45-33.74-7.45C81.38,23.68,119.46,10.31,127,24.92Z" fill="#fff"/><path d="M73,124.37c-7.73,0-10.15-1.21-10.15-5.44,0-3.63,2.54-9.67,8.7-20.31H98.26c1.21,12.81,1.57,16.44,1.57,18.74,0,6-1.82,7-10.16,7l-1,6h65.58v-6C145,123.65,144,122.07,144,111.8l.11-22.74c15,0,16.69,6.41,17.78,15.48h5.51V66.33h-5.51c-1.09,9.07-2.79,15.48-17.78,15.48V62.34c0-3.72-.11-7.87.07-10.54a3.11,3.11,0,0,1,3.29-2.64h2.45c19.87,0,26.2,6.29,29.1,21.53h6.29l-.42-25.37a4.22,4.22,0,0,0-4.21-4.14H137.52a9.59,9.59,0,0,0-4.76,1.87c-2.95,2-5.8,5.21-6,8.23,0,0,0,.08,0,.16v.14c0,.06,0,.12,0,.21v.12c0,.12,0,.24,0,.38v.2q0,.19,0,.42c0,.13,0,.27,0,.42l0,.32,0,.55,0,.43,0,.52,0,.58,0,.44-.06,1v.21c0,.26,0,.55,0,.83s0,.45,0,.69v.16c0,.4,0,.82-.08,1.25-.06,1-.12,2.1-.18,3.24-.09,1.44-.18,3-.27,4.58l0,.73c-.06.93-.11,1.88-.17,2.84,0,.44,0,.88-.07,1.32,0,.2,0,.4,0,.6,0,.57-.06,1.15-.1,1.73v.32c0,.59-.07,1.18-.11,1.78v.27c0,.4,0,.79-.07,1.19-.14,2.4-.28,4.84-.42,7.27v.07c0,.38,0,.75-.07,1.13-.06,1.14-.13,2.28-.19,3.41s-.12,2.11-.18,3.15l0,.43c0,1-.11,2-.16,2.9S124,99.12,124,100l6.27-4.56-3.58,11,9.39,6.83H124.43l-3.59,11-3.59-11H105.64l9.4-6.83-3.59-11,6.37,4.63c-1.12-19.47-2.75-47.72-2.8-48.5-.39-4.84-7.59-10.39-10.62-10.39h-3.21A6.62,6.62,0,0,0,95.4,44.5c-1.3,2.13-43.33,71.89-43.33,71.89-2.66,4.6-6,7.86-11.61,8l-.85,6H72ZM93.6,60.89c.6-1.09.84-1.33,1.21-1.33s.6.36.72,1.33l2.12,31H75.16Z" fill="#fff"/></svg>