<svg xmlns="http://www.w3.org/2000/svg" viewBox="0 0 188.9 153.1"><title>vsp</title><path d="M34.6,126.3l0.3-.8Z" transform="translate(-1.8 -2.8)" fill="#325565"/><path d="M111.8,30.7a15.4,15.4,0,0,1,21.2,7c4,8.1,1,18-6.7,22.2a15.4,15.4,0,0,1-21.2-7,16.8,16.8,0,0,1,6.7-22.2" transform="translate(-1.8 -2.8)" fill="#87cbdf"/><path d="M96,2.9a8.6,8.6,0,0,1,9.7,7.6,8.9,8.9,0,0,1-7.3,10.2,8.6,8.6,0,0,1-9.7-7.6A8.9,8.9,0,0,1,96,2.9" transform="translate(-1.8 -2.8)" fill="#a2c534"/><path d="M35.1,126.3l0.3-.8Z" transform="translate(-1.8 -2.8)" fill="#325565"/><path d="M180,83.2a31.8,31.8,0,0,0-17.8-16.9,29.9,29.9,0,0,0-24,1.2A32.1,32.1,0,0,0,122.1,86c-1.4,4.2-1.8,10.9-1.8,14.8v55h4.1c2.4,0,3.6-1.4,3.6-3.7V118.7a31.1,31.1,0,0,0,13.1,9.4,29.9,29.9,0,0,0,24-1.2,32.1,32.1,0,0,0,16.2-18.6A34.1,34.1,0,0,0,180,83.2m-5.3,22.7a25.2,25.2,0,0,1-12.7,14.6,23.4,23.4,0,0,1-18.8.9c-6.2-2.3-10.4-7-13.2-13.3a26.6,26.6,0,0,1-.9-19.7c2.2-6.5,6-11.7,12-14.6a23.4,23.4,0,0,1,18.8-.9,24.9,24.9,0,0,1,13.9,13.3,26.7,26.7,0,0,1,.9,19.7" transform="translate(-1.8 -2.8)" fill="#325565"/><path d="M73,82.4c0-6.4,7-9.8,12.5-9.9s9,1.6,12.4,5.8c1.2,1.5,2.7,2.1,4.5,1l3.9-2.4V76.6a19.2,19.2,0,0,0-7.3-8,25.4,25.4,0,0,0-13.3-3.3C75.8,65.3,65.4,71,65.4,83c0,23.5,34.9,11.6,34.9,28.6,0,7.1-6.9,11.3-13.5,11.3a19.4,19.4,0,0,1-15.5-7.4c-1.5-1.8-3-1.7-4.9-.5l-3.5,2.5v0.2a22.1,22.1,0,0,0,7.3,7.9,29.5,29.5,0,0,0,16.2,4.4c11.2,0,21.3-6.4,21.3-19.1,0-25-34.9-12-34.9-28.7" transform="translate(-1.8 -2.8)" fill="#325565"/><path d="M30.1,119.9L48.9,69.1A3.2,3.2,0,0,1,52,66.9h6.3L35.7,125l-0.4.9-0.2.4a3.5,3.5,0,0,1-3.1,2.3h-4a3.5,3.5,0,0,1-3.1-2.3l-0.2-.4-0.4-.9L1.8,66.9H8.1a3.2,3.2,0,0,1,3.1,2.2l18.8,50.8h0Z" transform="translate(-1.8 -2.8)" fill="#325565"/><path d="M184.6,131.4a6,6,0,1,1,6-6A6,6,0,0,1,184.6,131.4Zm0-11a4.9,4.9,0,1,0,4.8,4.9A4.9,4.9,0,0,0,184.6,120.4Zm3.1,8.1h-1.4l-1.2-2.3h-1.6v2.3h-1.2v-6.6h3.2a2.2,2.2,0,0,1,.9,4.2Zm-2.3-3.5a1,1,0,0,0,1-1,0.9,0.9,0,0,0-1-1h-2v2h2Z" transform="translate(-1.8 -2.8)" fill="#325565"/></svg>