<?xml version="1.0" encoding="UTF-8"?>
<svg id="Layer_1" data-name="Layer 1" xmlns="http://www.w3.org/2000/svg" viewBox="0 0 426.32 78.04">
  <defs>
    <style>
      .cls-1 {
        fill: #231f20;
      }
    </style>
  </defs>
  <g>
    <path class="cls-1" d="M104.86,56.18c-.06,.18-.98,4.54-1.29,5.83h-3.5c0-.67,.25-2.52,.49-3.44-1.6,3.01-3.81,3.99-6.2,3.99-5.65,0-6.87-4.42-5.4-11.48l4.17-19.82c1.53-7.24,3.99-10.86,9.94-10.8,7.43,.06,7.98,6.01,6.93,10.49l-.18,.86h-4.23l.18-.98c.68-3.68,.37-6.63-3.13-6.63-2.45,0-3.99,1.53-5.16,7l-4.17,20.07c-1.04,4.79-.68,7.55,2.52,7.55,3.68,0,4.97-3.56,6.38-10.19l1.04-5.15h-4.6l.8-3.74h8.84l-3.44,16.45Z"/>
    <path class="cls-1" d="M117.23,21.01h6.51c6.14,0,8.41,3.74,7.18,9.76l-.49,2.45c-1.17,5.77-3.56,7.24-5.83,7.79,2.21,1.23,3.07,3.74,1.84,9.33-.67,3.44-1.96,9.08-2.03,11.66h-4.23c.06-2.64,1.29-8.04,2.27-12.77,1.04-5.09,0-6.63-3.62-6.63h-1.96l-4.11,19.39h-4.23l8.71-41Zm.43,17.92h1.78c4.48,0,5.89-1.41,6.75-5.89l.43-2.58c.68-3.68,0-5.77-3.68-5.77h-2.27l-3.01,14.24Z"/>
    <path class="cls-1" d="M151.99,31.5l-4.36,20.31c-1.47,6.75-3.62,10.74-10.06,10.74s-8.29-4.6-7-11.05l4.42-20.99c1.35-6.38,4.3-10.06,9.94-10.06,6.2,0,8.41,4.54,7.06,11.05Zm-12.64-.98l-4.54,21.54c-.92,4.42-.06,6.81,3.19,6.81,2.88,0,4.23-2.27,5.22-6.69l4.54-21.36c.92-4.3-.06-6.63-3.25-6.63-2.82,0-4.3,2.27-5.15,6.32Z"/>
    <path class="cls-1" d="M163.33,21.01l-6.81,31.79c-.68,3.25-.25,5.89,3.19,5.89s4.3-2.52,5.03-5.95l6.75-31.73h4.3l-6.69,31.36c-1.35,6.38-3.31,10.13-9.82,10.13-5.89,0-8.35-3.37-6.93-9.94l6.69-31.54h4.3Z"/>
    <path class="cls-1" d="M181.35,21.01h6.69c6.32,0,8.35,4.05,7.12,10.25l-.55,2.82c-1.23,6.2-3.68,9.51-11.11,9.51h-2.76l-3.87,18.41h-4.23l8.71-41Zm.18,18.96h2.52c4.3,0,5.4-2.09,6.32-6.2l.49-2.52c.8-3.56,.67-6.63-3.44-6.63h-2.64l-3.25,15.34Z"/>
    <path class="cls-1" d="M219.52,51.02l-.18,.74c-1.29,5.52-2.76,10.8-9.82,10.8-6.51,0-7.98-4.36-6.57-11.17l4.3-20.07c1.59-7.61,4.05-10.86,9.45-10.86,7.55,0,7.98,5.77,6.75,10.8l-.18,.8h-4.23l.18-1.11c.86-3.93,.74-6.75-2.76-6.75-2.76,0-3.81,2.33-4.73,6.5l-4.48,20.93c-1.04,5.03-.37,7.24,2.76,7.24,2.82,0,3.81-2.52,4.85-6.63l.31-1.23h4.36Z"/>
    <path class="cls-1" d="M243.92,31.5l-4.36,20.31c-1.47,6.75-3.62,10.74-10.07,10.74s-8.28-4.6-7-11.05l4.42-20.99c1.35-6.38,4.3-10.06,9.94-10.06,6.2,0,8.41,4.54,7.06,11.05Zm-12.64-.98l-4.54,21.54c-.92,4.42-.06,6.81,3.19,6.81,2.89,0,4.23-2.27,5.22-6.69l4.54-21.36c.92-4.3-.06-6.63-3.25-6.63-2.82,0-4.3,2.27-5.15,6.32Z"/>
    <path class="cls-1" d="M242.5,62.01l8.71-41h5.15l1.11,24.18c.25,5.28,.31,7.24,.25,8.53h.12c.98-5.65,2.09-11.6,3.5-18.23l3.07-14.48h4.11l-8.71,41h-5.03l-1.1-24.18c-.31-5.58-.37-8.41-.37-9.33h-.06c-.8,5.22-1.96,11.48-3.5,18.9l-3.13,14.61h-4.11Z"/>
    <path class="cls-1" d="M265.39,62.01l8.71-41h5.15l1.11,24.18c.25,5.28,.31,7.24,.25,8.53h.12c.98-5.65,2.09-11.6,3.5-18.23l3.07-14.48h4.11l-8.71,41h-5.03l-1.1-24.18c-.31-5.58-.37-8.41-.37-9.33h-.06c-.8,5.22-1.96,11.48-3.5,18.9l-3.13,14.61h-4.11Z"/>
    <path class="cls-1" d="M305.6,42.06h-8.84l-3.38,16.08h10.49l-1.35,3.87h-14.24l8.71-41h13.62l-.86,3.87h-9.39l-2.76,13.26h8.84l-.86,3.93Z"/>
    <path class="cls-1" d="M323.31,51.02l-.18,.74c-1.29,5.52-2.76,10.8-9.82,10.8-6.51,0-7.98-4.36-6.57-11.17l4.3-20.07c1.59-7.61,4.05-10.86,9.45-10.86,7.55,0,7.98,5.77,6.75,10.8l-.18,.8h-4.23l.18-1.11c.86-3.93,.74-6.75-2.76-6.75-2.76,0-3.81,2.33-4.73,6.5l-4.48,20.93c-1.04,5.03-.37,7.24,2.76,7.24,2.82,0,3.81-2.52,4.85-6.63l.31-1.23h4.36Z"/>
    <path class="cls-1" d="M334.46,24.94h-6.38l.86-3.93h17l-.86,3.93h-6.38l-7.86,37.07h-4.23l7.86-37.07Z"/>
  </g>
  <g>
    <path class="cls-1" d="M352.39,55.53c.03-.68-.04-1.3-.23-1.87-.19-.56-.47-1.05-.84-1.45-.37-.41-.83-.72-1.37-.94-.54-.22-1.16-.33-1.84-.33-.8,0-1.54,.18-2.23,.53-.68,.36-1.26,.84-1.72,1.47h-.04l1.86-7.84h-2.62l-3.8,16.8h2.47l.4-1.82h.04c.32,.67,.82,1.19,1.5,1.55,.68,.36,1.42,.54,2.22,.54,.86,0,1.66-.17,2.39-.52,.74-.35,1.38-.82,1.93-1.42,.55-.6,.99-1.3,1.32-2.1,.33-.8,.52-1.66,.56-2.58Zm-3.02,1.93c-.2,.51-.46,.95-.8,1.33-.34,.38-.74,.68-1.2,.9-.46,.22-.97,.33-1.52,.33-.83,0-1.48-.26-1.94-.77-.46-.52-.67-1.18-.63-1.99,.03-.56,.15-1.1,.37-1.61,.22-.51,.5-.96,.86-1.34,.35-.38,.76-.69,1.23-.91s.96-.33,1.48-.33c.84,0,1.48,.27,1.9,.8,.42,.53,.62,1.19,.58,1.97-.03,.58-.14,1.12-.34,1.63Z"/>
    <path class="cls-1" d="M357.92,59.04h-.04l-.98-7.82h-2.8l1.86,10.69-.87,1.38c-.35,.56-.68,.98-.96,1.26-.29,.27-.68,.41-1.16,.41-.15,0-.31-.01-.48-.03-.17-.02-.33-.06-.49-.12l-.45,2.27c.22,.06,.44,.1,.67,.12,.23,.02,.45,.03,.68,.03,.52,0,.97-.07,1.37-.2,.39-.13,.75-.33,1.08-.59,.33-.26,.64-.58,.93-.96s.57-.8,.86-1.28l8.21-12.98h-2.76l-4.66,7.82Z"/>
    <polygon class="cls-1" points="378.46 57.42 378.42 57.42 376.86 46.16 372.59 46.16 369.02 61.89 371.62 61.89 374.5 49.2 374.55 49.2 376.46 61.89 378.37 61.89 386.1 49.2 386.17 49.2 383.26 61.89 385.97 61.89 389.52 46.16 385.19 46.16 378.46 57.42"/>
    <polygon class="cls-1" points="409.69 46.16 403.66 57.8 403.62 57.8 402.98 46.16 400.14 46.16 393.86 57.8 393.82 57.8 393.63 46.16 390.74 46.16 391.41 61.89 394.08 61.89 400.63 50 400.68 50 401.52 61.89 404.19 61.89 412.6 46.16 409.69 46.16"/>
    <path class="cls-1" d="M418.96,55.29h3.38l-.89,4c-.44,.21-.89,.36-1.34,.44-.46,.09-.97,.14-1.55,.16-.76,0-1.43-.12-2.02-.36-.59-.24-1.08-.56-1.47-.98-.39-.41-.68-.91-.87-1.49-.19-.58-.26-1.21-.23-1.89,.04-.89,.24-1.76,.6-2.6,.35-.84,.82-1.6,1.41-2.27,.59-.67,1.28-1.2,2.08-1.6,.8-.4,1.66-.6,2.6-.6,.86,0,1.57,.16,2.12,.48,.55,.32,.99,.71,1.31,1.19l2.24-1.62c-.55-.81-1.31-1.42-2.27-1.81-.97-.39-2.03-.59-3.18-.59-1.3,0-2.53,.26-3.68,.77-1.15,.51-2.17,1.21-3.05,2.09-.88,.88-1.59,1.91-2.12,3.1-.53,1.19-.84,2.46-.9,3.82-.05,1.01,.08,1.93,.38,2.76,.31,.83,.76,1.54,1.36,2.13,.6,.59,1.34,1.05,2.22,1.38,.88,.33,1.87,.49,2.96,.49,1.01,0,2.01-.11,3.01-.33,1-.22,1.9-.52,2.7-.91l1.81-8.11h-6.02l-.56,2.35Z"/>
  </g>
  <path class="cls-1" d="M77.69,33.82H44.08l3.41-3.41c2.03-2.03,2.03-5.33,0-7.36-2.03-2.03-5.33-2.03-7.36,0l-15.97,15.98,15.97,15.97c1.02,1.02,2.35,1.52,3.68,1.52s2.66-.51,3.68-1.52c2.03-2.03,2.03-5.33,0-7.36l-3.41-3.41h22.49c-2.45,12.98-13.87,22.83-27.55,22.83s-25.1-9.85-27.55-22.83c-.32-1.69-.49-3.43-.49-5.2s.17-3.52,.49-5.2c2.45-12.98,13.87-22.84,27.55-22.84,9.69,0,18.24,4.94,23.28,12.43h12.48C68.76,9.63,55.02,0,39.02,0,19.24,0,2.9,14.73,.36,33.82c-.23,1.7-.36,3.44-.36,5.2s.13,3.5,.36,5.2c2.55,19.09,18.88,33.82,38.67,33.82s36.12-14.73,38.67-33.82c.23-1.7,.36-3.44,.36-5.2s-.13-3.5-.36-5.2Z"/>
</svg>