<svg xmlns="http://www.w3.org/2000/svg" viewBox="0 0 273.04 30.24"><title>amfirst-holdings</title><path d="M20.85,20.65,17.39,0h-.94L3.05,21.28a6.89,6.89,0,0,1-1.57,1.91A4.67,4.67,0,0,1,0,23.84v.86H7.09v-.86a7.12,7.12,0,0,1-1.88-.37c-.3-.14-.45-.47-.45-1a2.26,2.26,0,0,1,.17-.85,6,6,0,0,1,.38-.81l2.11-3.67h7.79c.21,1.54.32,2.42.35,2.63.13,1,.19,1.67.19,1.94a1.69,1.69,0,0,1-.64,1.58,5.4,5.4,0,0,1-2.2.5v.86h11v-.86a3.78,3.78,0,0,1-2.17-.59A5.32,5.32,0,0,1,20.85,20.65ZM8.3,15.76,13.65,7,15,15.76Z" fill="#333"/><path d="M53.3,19.82a17.09,17.09,0,0,1-1.08,1.59c-.61.79-1.09,1.18-1.43,1.18a.76.76,0,0,1-.38-.11.34.34,0,0,1-.2-.31,2.3,2.3,0,0,1,.18-.73c.13-.34.26-.67.4-1l1.92-5.73c.23-.79.35-1.25.37-1.38a9.69,9.69,0,0,0,.34-2.21,3,3,0,0,0-.8-2.26,3.4,3.4,0,0,0-2.48-.8A7.53,7.53,0,0,0,45.32,10a27.76,27.76,0,0,0-3.66,4c.2-.63.36-1.15.47-1.57a7.53,7.53,0,0,0,.32-2,2.26,2.26,0,0,0-.67-1.72A2.38,2.38,0,0,0,40.1,8,5.78,5.78,0,0,0,36,10a35.49,35.49,0,0,0-3.56,4.8l-.12-.09,2.18-6.69c-1.58.31-2.71.51-3.4.6-1.07.15-2.36.28-3.89.37v1a6.63,6.63,0,0,1,1.6.21q.36.13.36.72a3.57,3.57,0,0,1-.09.8c-.06.27-.18.75-.37,1.43L25.52,24.75h4.34c.54-1.9,1-3.35,1.3-4.35a30.86,30.86,0,0,1,1.36-3.85A19.6,19.6,0,0,1,35,12.36c.87-1.08,1.56-1.62,2.09-1.62a.79.79,0,0,1,.45.13q.21.14.21.63a2.37,2.37,0,0,1-.09.65c-.06.23-.14.48-.23.75l-3.2,11.84h4.34c1.16-3.61,1.88-5.77,2.17-6.46a12.51,12.51,0,0,1,.87-1.76,22.24,22.24,0,0,1,3-3.9c1.14-1.31,2.17-2,3.1-2a1,1,0,0,1,.77.31,1.28,1.28,0,0,1,.22.76,1.93,1.93,0,0,1,0,.34.66.66,0,0,1-.06.34l-1.49,5.52c-.33.9-.59,1.69-.79,2.38a10.7,10.7,0,0,0-.48,2.63,1.77,1.77,0,0,0,.79,1.63,3.24,3.24,0,0,0,1.71.49,4.8,4.8,0,0,0,3.42-1.64,18.35,18.35,0,0,0,2.28-3.12Z" fill="#333"/><path d="M57.76.53v.94a7.74,7.74,0,0,1,2.13.37c.33.15.49.52.49,1.09a6.7,6.7,0,0,1-.16,1.18L60,5l-4.44,16.2a3.71,3.71,0,0,1-1,1.94,3.77,3.77,0,0,1-1.92.65v.94H63.3v-.94a4.61,4.61,0,0,1-1.69-.23,1.4,1.4,0,0,1-.9-1.43,2.54,2.54,0,0,1,0-.39,1.14,1.14,0,0,1,.09-.42l2.5-8.81c2,0,3.39.26,4,.78a3.15,3.15,0,0,1,.94,2.56v.6a4.75,4.75,0,0,1-.1.92l1,.18,2.61-9.87-1-.12c-.89,1.75-1.71,2.79-2.45,3.12a13.93,13.93,0,0,1-4.71.63l2.14-8A2.34,2.34,0,0,1,66.45,2a3.08,3.08,0,0,1,1.69-.31q4.13,0,5.5,1.89a6.6,6.6,0,0,1,.83,3.69l1,.16L77,.53Z" fill="#333"/><path d="M85.16.71a2.43,2.43,0,0,0-3.43,0A2.35,2.35,0,0,0,81,2.42a2.45,2.45,0,0,0,2.43,2.43,2.31,2.31,0,0,0,1.71-.71,2.36,2.36,0,0,0,.71-1.72A2.35,2.35,0,0,0,85.16.71Z" fill="#333"/><path d="M82.77,21.56c-.54.63-1,.94-1.36.94a.77.77,0,0,1-.39-.11c-.12-.07-.18-.24-.18-.5a9.69,9.69,0,0,1,.32-1.69q.12-.51.48-1.83L84.45,8.08l-1.54.3c-.54.11-1.45.23-2.74.38s-2.29.24-3,.29v1a6.29,6.29,0,0,1,1.67.23c.31.12.46.42.46.9a1.13,1.13,0,0,1,0,.26.48.48,0,0,1-.06.28L77,19.84c-.17.6-.29,1.08-.37,1.45a6.58,6.58,0,0,0-.21,1.39,2.22,2.22,0,0,0,.79,1.86,2.81,2.81,0,0,0,1.78.61,4.69,4.69,0,0,0,3.29-1.5A24.63,24.63,0,0,0,85,20.16l-.8-.51A13.39,13.39,0,0,1,82.77,21.56Z" fill="#333"/><path d="M99.69,12.21a3.26,3.26,0,0,0,.56-1.87,2.69,2.69,0,0,0-.5-1.57,1.79,1.79,0,0,0-1.56-.71c-1,0-2.07.73-3.16,2.19a34,34,0,0,0-2.49,4.25h-.16l2-6.4c-1.65.31-2.81.51-3.5.6-1.06.15-2.36.28-3.9.37v1a4.13,4.13,0,0,1,1.52.19.85.85,0,0,1,.44.86,31.24,31.24,0,0,1-1.09,4.76q-.94,3.72-2.43,8.89h4.36c.25-.72.63-1.9,1.15-3.55s1-2.92,1.31-3.81a25.86,25.86,0,0,1,1.87-3.81c.74-1.25,1.34-1.87,1.8-1.87a.41.41,0,0,1,.26.07,1.07,1.07,0,0,1,.19.18l.33.42a1.72,1.72,0,0,0,.64.53,2,2,0,0,0,.82.18A1.75,1.75,0,0,0,99.69,12.21Z" fill="#333"/><path d="M110.43,8.65a.89.89,0,0,1-.63.19,5.17,5.17,0,0,1-1.39-.41,5.5,5.5,0,0,0-2-.41,5.13,5.13,0,0,0-3.68,1.3,4.15,4.15,0,0,0-1.36,3.1A5.77,5.77,0,0,0,102,15a9,9,0,0,0,1.5,2.22l1.34,1.67A11.19,11.19,0,0,1,106,20.52a3.22,3.22,0,0,1,.49,1.59,1.93,1.93,0,0,1-2,1.95,3.12,3.12,0,0,1-2.15-1,6,6,0,0,1-1.36-3.74l-1-.07-.81,6h1a2.15,2.15,0,0,1,.37-.57.88.88,0,0,1,.67-.25,6.73,6.73,0,0,1,1.32.41,6,6,0,0,0,2,.41,5.74,5.74,0,0,0,3.81-1.31,4.38,4.38,0,0,0,1.57-3.52,5.21,5.21,0,0,0-.46-2.09,8,8,0,0,0-1-1.79l-1.77-2.26a16.11,16.11,0,0,1-1.34-1.85,2.46,2.46,0,0,1-.34-1.24,2.11,2.11,0,0,1,.47-1.32,1.77,1.77,0,0,1,1.48-.6,2.62,2.62,0,0,1,1.93,1,6.2,6.2,0,0,1,1.25,3.3l1,.09.81-5.52h-1A1.82,1.82,0,0,1,110.43,8.65Z" fill="#333"/><path d="M122.15,3.25h-1.31a12.88,12.88,0,0,1-3.63,3.9,14.86,14.86,0,0,1-3,1.59V10h1.84l-2.75,9.81c-.23.85-.39,1.47-.47,1.87a5.58,5.58,0,0,0-.12,1,2.41,2.41,0,0,0,2.48,2.47,5,5,0,0,0,3.48-1.59,22.94,22.94,0,0,0,2.63-3.41l-.79-.51a12.39,12.39,0,0,1-1.47,2c-.53.59-1,.88-1.32.88a.8.8,0,0,1-.34-.11.46.46,0,0,1-.2-.44,8.66,8.66,0,0,1,.3-1.75c.12-.49.28-1.11.49-1.85L120.3,10h3V8.49h-2.59Z" fill="#333"/><path d="M145.69,22.5l.25-1,3.28-11.88A3.08,3.08,0,0,1,150,8.08a3.23,3.23,0,0,1,1.46-.44V7.21h-6.64v.44a4.09,4.09,0,0,1,1.25.2,1,1,0,0,1,.64.92,4.51,4.51,0,0,1,0,.52,7.78,7.78,0,0,1-.17.81l-1.32,4.76h-8.31L138.3,9.6A2.49,2.49,0,0,1,139.44,8,4,4,0,0,1,141,7.62V7.19h-7.34v.46a3.79,3.79,0,0,1,1.63.28,1,1,0,0,1,.45.91,2.79,2.79,0,0,1-.07.58c0,.2-.13.53-.25,1L132.13,22.3a3,3,0,0,1-.91,1.64,2.68,2.68,0,0,1-1.3.34v.43h6.66v-.43a4,4,0,0,1-1.49-.28c-.27-.15-.41-.48-.41-1a1.13,1.13,0,0,1,0-.26v-.28l.25-1,1.53-5.53h8.31L143,22.28a2.55,2.55,0,0,1-1.15,1.64,4.15,4.15,0,0,1-1.55.34v.43h7.34v-.43A4.76,4.76,0,0,1,146,24c-.3-.15-.45-.48-.45-1a1.13,1.13,0,0,1,0-.26Z" fill="#333"/><path d="M157.55,12.81a7.31,7.31,0,0,0-5.39,2.69A8,8,0,0,0,149.72,21a3.92,3.92,0,0,0,1.09,3,4,4,0,0,0,2.9,1,7.29,7.29,0,0,0,5.4-2.78,8.11,8.11,0,0,0,2.45-5.46,4.4,4.4,0,0,0-.9-2.77A3.71,3.71,0,0,0,157.55,12.81Zm.36,8.37h0q-1.65,3.22-3.79,3.23a1.88,1.88,0,0,1-1.59-.71,2.84,2.84,0,0,1-.54-1.8,10.82,10.82,0,0,1,1.65-5.52c1.17-2,2.43-3,3.76-3a1.67,1.67,0,0,1,1.68,1.14,4.3,4.3,0,0,1,.24,1.59A11.42,11.42,0,0,1,157.91,21.18Z" fill="#333"/><path d="M166.56,23q-.76.84-1.23.84a.36.36,0,0,1-.34-.18.9.9,0,0,1-.09-.43,1,1,0,0,1,0-.24,5.49,5.49,0,0,1,.17-.68l4.37-15.76c-.06-.09-.12-.13-.18-.13-.7.17-1.3.3-1.79.39l-1,.14-1.37.18v.43a6.83,6.83,0,0,1,1.43.09.49.49,0,0,1,.36.54v.28a1.28,1.28,0,0,1-.07.34l-3.68,13.11-.18.76a5.16,5.16,0,0,0-.11.88,1.29,1.29,0,0,0,.57,1.21,1.55,1.55,0,0,0,.84.24,3.14,3.14,0,0,0,2.2-1.09,17.17,17.17,0,0,0,1.76-2.31l-.35-.25A13.85,13.85,0,0,1,166.56,23Z" fill="#333"/><path d="M178.78,7.06v.43h.91a1,1,0,0,1,.54.13c.13.09.19.3.19.64a1.61,1.61,0,0,1,0,.31,1.77,1.77,0,0,1-.08.4l-1.54,5.38a2.3,2.3,0,0,0-.4-1,1.88,1.88,0,0,0-1.48-.5q-2.49,0-5.12,3a9,9,0,0,0-2.62,5.8,3.28,3.28,0,0,0,.85,2.5,2.77,2.77,0,0,0,2,.81,4,4,0,0,0,2.59-1,10.86,10.86,0,0,0,2.19-2.49,13.39,13.39,0,0,0-.24,1.32,8.72,8.72,0,0,0-.08.88A1.18,1.18,0,0,0,177,24.8a1.33,1.33,0,0,0,.65.16,3.75,3.75,0,0,0,2.43-1.31,10.33,10.33,0,0,0,1.25-1.47l.18-.28-.24-.25c-.48.57-.86,1-1.13,1.27-.47.45-.83.67-1.09.67a.68.68,0,0,1-.31-.11.5.5,0,0,1-.18-.46,1.71,1.71,0,0,1,0-.32,2.08,2.08,0,0,1,.08-.39l1.76-6.23L183,6.65V6.51l-.12-.13C181.14,6.71,179.77,6.93,178.78,7.06Zm-2,13.59c-1.15,2-2.36,3-3.61,3a1.32,1.32,0,0,1-1.25-.6,2.65,2.65,0,0,1-.37-1.4,10.39,10.39,0,0,1,1.68-5c1.25-2.15,2.55-3.22,3.88-3.22a1.08,1.08,0,0,1,1.07.52,2.86,2.86,0,0,1,.26,1.32A10.6,10.6,0,0,1,176.74,20.65Z" fill="#333"/><path d="M187.52,7.08a1.21,1.21,0,0,0-.92.42,1.47,1.47,0,0,0-.38,1,1.42,1.42,0,0,0,.38,1,1.21,1.21,0,0,0,.92.42,1.23,1.23,0,0,0,.92-.41,1.48,1.48,0,0,0,0-2A1.22,1.22,0,0,0,187.52,7.08Z" fill="#333"/><path d="M186.66,22.91c-.49.51-.88.77-1.18.77s-.28-.05-.33-.16a.77.77,0,0,1-.08-.34,6.68,6.68,0,0,1,.18-.89l2.65-9.36a.11.11,0,0,0-.06-.11,1.5,1.5,0,0,0-.63.08c-.37.09-.77.17-1.18.24l-1,.15-1.56.2v.43a5.72,5.72,0,0,1,1.37.11.53.53,0,0,1,.35.58,1.13,1.13,0,0,1,0,.26.48.48,0,0,1-.07.29l-1.82,6.75c-.1.37-.17.64-.2.83a3.67,3.67,0,0,0,0,.66,1.73,1.73,0,0,0,.37,1.11,1.16,1.16,0,0,0,.94.47,3,3,0,0,0,2-.94A14.24,14.24,0,0,0,188,22l.13-.18-.34-.29A14.45,14.45,0,0,1,186.66,22.91Z" fill="#333"/><path d="M201.1,21.57a14.3,14.3,0,0,1-1.4,1.71,1.21,1.21,0,0,1-.75.4.3.3,0,0,1-.29-.16.73.73,0,0,1-.09-.35,1.76,1.76,0,0,1,.07-.4l.12-.48L200.49,16c.07-.26.13-.5.17-.73a3.7,3.7,0,0,0,.07-.66,1.63,1.63,0,0,0-.8-1.56,2.15,2.15,0,0,0-1-.22c-1,0-2.14.7-3.41,2.11a32.07,32.07,0,0,0-2.69,3.65L194.57,13a.29.29,0,0,0-.1-.12l-2.33.51-.77.16-1.21.2v.43h.64a1.18,1.18,0,0,1,.85.22.83.83,0,0,1,.22.6,1.85,1.85,0,0,1,0,.47,6.62,6.62,0,0,1-.33,1.25l-2.24,8.1h2c.57-1.9,1-3.21,1.25-3.93a13,13,0,0,1,1.08-2.22,22.41,22.41,0,0,1,1.81-2.53c1-1.19,1.84-1.78,2.51-1.78a.6.6,0,0,1,.54.23,1,1,0,0,1,.15.54,3.84,3.84,0,0,1,0,.48c0,.29-.11.58-.18.86l-1.67,6.37a3.25,3.25,0,0,0-.08.43,3.69,3.69,0,0,0,0,.47,1.24,1.24,0,0,0,.41,1.07,1.42,1.42,0,0,0,.84.29,3,3,0,0,0,2-1,16,16,0,0,0,1.67-2Z" fill="#333"/><path d="M211.12,13.21a4.87,4.87,0,0,0-2-.37,5.71,5.71,0,0,0-3.82,1.31,4.12,4.12,0,0,0-1.55,3.29,2.77,2.77,0,0,0,.73,2,4.2,4.2,0,0,0,1.44.89,12.2,12.2,0,0,0-1.36,1,1.9,1.9,0,0,0-.75,1.23.86.86,0,0,0,.21.61,2.54,2.54,0,0,0,.54.44,8.14,8.14,0,0,0-2.39,1.76,2.83,2.83,0,0,0-.75,1.87,2.54,2.54,0,0,0,1.18,2.11,5.27,5.27,0,0,0,3.2.87A6.8,6.8,0,0,0,210.15,29a3.48,3.48,0,0,0,1.44-2.76q0-2.1-2.87-3.19c-1.91-.73-2.88-1.2-2.91-1.43a1.07,1.07,0,0,1,.35-.68c.23-.25.41-.38.54-.38l.42.07h.37A5.85,5.85,0,0,0,211,19.44a3.92,3.92,0,0,0,1.65-3.34,3.75,3.75,0,0,0,0-.67,4.87,4.87,0,0,0-.12-.52h1.34V13.83h-1.77A2.38,2.38,0,0,0,211.12,13.21Zm-4.49,11.25c.85.33,1.46.58,1.82.75a3.87,3.87,0,0,1,.93.62,1.81,1.81,0,0,1,.54,1.32,2.18,2.18,0,0,1-1,1.78,4.27,4.27,0,0,1-2.62.72,5,5,0,0,1-1.94-.34,2.42,2.42,0,0,1-1.51-2.4,2.77,2.77,0,0,1,1-2.07c.67-.61,1.11-.91,1.32-.91A8.5,8.5,0,0,1,206.63,24.46Zm3.07-5.87a2.58,2.58,0,0,1-2.1,1.5,1.54,1.54,0,0,1-1.51-.8,2.9,2.9,0,0,1-.25-1.3,6,6,0,0,1,.9-3,2.7,2.7,0,0,1,2.37-1.56,1.35,1.35,0,0,1,1.14.49,2.2,2.2,0,0,1,.38,1.36A6.14,6.14,0,0,1,209.7,18.59Z" fill="#333"/><path d="M222.63,13.19a.72.72,0,0,1-.49.13,5.55,5.55,0,0,1-1.13-.24,5.26,5.26,0,0,0-1.47-.24,3,3,0,0,0-2.33.87,2.82,2.82,0,0,0-.82,2,3.36,3.36,0,0,0,.38,1.49c.17.33.58,1,1.23,2l1.09,1.61a3.28,3.28,0,0,1,.35.67,2.72,2.72,0,0,1,.14.94,2.08,2.08,0,0,1-.54,1.5,1.78,1.78,0,0,1-1.34.56,2.31,2.31,0,0,1-2.15-1.35,8.24,8.24,0,0,1-.68-2.32h-.43l-.52,4.29h.38a1,1,0,0,1,.23-.35.55.55,0,0,1,.39-.12,9,9,0,0,1,1.15.22,7.15,7.15,0,0,0,1.53.22,4.48,4.48,0,0,0,2.87-1,3,3,0,0,0,1.21-2.39,3.33,3.33,0,0,0-.3-1.42,11.92,11.92,0,0,0-1-1.69l-.93-1.34a13.51,13.51,0,0,1-.92-1.44,2,2,0,0,1-.2-.94,1.27,1.27,0,0,1,.45-1.06,1.59,1.59,0,0,1,1-.36,2.11,2.11,0,0,1,2,1.19,5.76,5.76,0,0,1,.51,1.91h.43l.54-3.72h-.38A1.39,1.39,0,0,1,222.63,13.19Z" fill="#333"/><path d="M226.55,22a1.3,1.3,0,0,0-1,.39,1.11,1.11,0,0,0-.34.68,1.91,1.91,0,0,0,.12.75,2.87,2.87,0,0,0,.6.74l.25.25a.86.86,0,0,1,.25.6,2.1,2.1,0,0,1-.77,1.36,12.17,12.17,0,0,1-1.25,1l.25.43.41-.22a8.17,8.17,0,0,0,2.05-1.65,3.46,3.46,0,0,0,1-2.41,2.09,2.09,0,0,0-.43-1.36A1.38,1.38,0,0,0,226.55,22Z" fill="#333"/><path d="M240.21,21.48,243.5,9.6a3.05,3.05,0,0,1,.74-1.53,3.24,3.24,0,0,1,1.46-.45V7.19h-6.65v.46a3.78,3.78,0,0,1,1.48.31.93.93,0,0,1,.42.89,2.79,2.79,0,0,1-.07.58c0,.2-.13.53-.25,1L237.3,22.29a3,3,0,0,1-.9,1.64,2.68,2.68,0,0,1-1.3.34v.43h6.59v-.43a3.79,3.79,0,0,1-1.37-.26.89.89,0,0,1-.47-.88,4.2,4.2,0,0,1,.07-.62C240,22.24,240.1,21.9,240.21,21.48Z" fill="#333"/><path d="M254.61,23.28a1.21,1.21,0,0,1-.75.4.3.3,0,0,1-.29-.16.73.73,0,0,1-.09-.35,1.76,1.76,0,0,1,.07-.4l.12-.48L255.4,16c.07-.26.13-.5.17-.73a3.7,3.7,0,0,0,.07-.66,1.63,1.63,0,0,0-.8-1.56,2.15,2.15,0,0,0-1-.22c-1,0-2.14.7-3.41,2.11a32.07,32.07,0,0,0-2.69,3.65L249.48,13a.29.29,0,0,0-.1-.12l-2.33.51-.77.16-1.21.2v.43h.64a1.18,1.18,0,0,1,.85.22.83.83,0,0,1,.22.6,1.85,1.85,0,0,1,0,.47,6.62,6.62,0,0,1-.33,1.25l-2.24,8.1h2c.57-1.9,1-3.21,1.25-3.93a13,13,0,0,1,1.08-2.22A21.69,21.69,0,0,1,250.3,16c1-1.19,1.84-1.78,2.51-1.78a.6.6,0,0,1,.54.23,1,1,0,0,1,.15.54,3.84,3.84,0,0,1,0,.48c-.05.29-.11.58-.18.86l-1.67,6.37a3.25,3.25,0,0,0-.08.43,3.69,3.69,0,0,0,0,.47,1.24,1.24,0,0,0,.41,1.07,1.42,1.42,0,0,0,.84.29,3,3,0,0,0,2-1,16,16,0,0,0,1.67-2l-.38-.34A15.51,15.51,0,0,1,254.61,23.28Z" fill="#333"/><path d="M267.35,13.62a3.13,3.13,0,0,0-2.25-.76,7.16,7.16,0,0,0-5.19,2.49,7.75,7.75,0,0,0-2.43,5.48,4.19,4.19,0,0,0,1.09,3.06A3.79,3.79,0,0,0,261.42,25a5.59,5.59,0,0,0,3.34-1.09,9.43,9.43,0,0,0,1.77-1.8l-.38-.29-.09.1a7.7,7.7,0,0,1-1.76,1.51,3.73,3.73,0,0,1-2,.58,2.2,2.2,0,0,1-1.89-.84,3.74,3.74,0,0,1-.63-2.32,9.19,9.19,0,0,1,1.55-5,4.4,4.4,0,0,1,3.67-2.4,1.7,1.7,0,0,1,.86.16.46.46,0,0,1,.27.4,1.55,1.55,0,0,1-.22.51,1.56,1.56,0,0,0-.22.73A1,1,0,0,0,266,16a1.15,1.15,0,0,0,.81.3,1.21,1.21,0,0,0,1.23-1.19V15A2.05,2.05,0,0,0,267.35,13.62Z" fill="#333"/><path d="M272.6,22.46a1.5,1.5,0,0,0-2.11,0,1.42,1.42,0,0,0-.44,1.05,1.45,1.45,0,0,0,.43,1.06,1.5,1.5,0,0,0,2.12,0h0a1.45,1.45,0,0,0,.43-1.06A1.42,1.42,0,0,0,272.6,22.46Z" fill="#333"/></svg>