<svg xmlns="http://www.w3.org/2000/svg" viewBox="0 0 501.14 98.32"><title>black</title><path d="M108.7,80.14h-1l5.63-8.75h.87L116,80.14h-.92l-.47-2.3h-4.48ZM110.64,77h3.83l-.91-4.65Z" fill="#808285"/><path d="M119.87,77.79a3.77,3.77,0,0,1,.25-1.39,3.49,3.49,0,0,1,.71-1.14,3.53,3.53,0,0,1,1.09-.77,3.17,3.17,0,0,1,1.35-.28,2.53,2.53,0,0,1,1.18.28,1.87,1.87,0,0,1,.83.84h0l.8-4.53h.83l-1.66,9.34h-.83l.18-1h0a2.37,2.37,0,0,1-.85.77,2.48,2.48,0,0,1-1.27.33,3,3,0,0,1-1.07-.18,2.37,2.37,0,0,1-.82-.51,2.34,2.34,0,0,1-.53-.79A2.61,2.61,0,0,1,119.87,77.79Zm.87-.05a2.15,2.15,0,0,0,.11.73,1.85,1.85,0,0,0,.35.59,1.61,1.61,0,0,0,.57.39,1.94,1.94,0,0,0,.78.15,2.38,2.38,0,0,0,1-.23,2.55,2.55,0,0,0,.81-.61,2.92,2.92,0,0,0,.54-.9,2.82,2.82,0,0,0,.2-1.09A2,2,0,0,0,125,76a1.64,1.64,0,0,0-1-1,2.06,2.06,0,0,0-.76-.14,2.36,2.36,0,0,0-1,.22,2.47,2.47,0,0,0-.79.61,2.69,2.69,0,0,0-.52.9A3.59,3.59,0,0,0,120.74,77.74Z" fill="#808285"/><path d="M128.26,80.14h-.83l1-5.78h.83Zm1.52-8a.57.57,0,0,1-.17.42.53.53,0,0,1-.41.17.61.61,0,0,1-.4-.14.53.53,0,0,1-.17-.41.55.55,0,0,1,.18-.43.57.57,0,0,1,.41-.18.54.54,0,0,1,.4.16A.53.53,0,0,1,129.78,72.12Z" fill="#808285"/><path d="M132.44,80.14h-.89l-1.21-5.78h.85l.93,4.89h0L135,74.36h.9Z" fill="#808285"/><path d="M136.93,80.14h-.82l1-5.78H138Zm1.52-8a.57.57,0,0,1-.16.42.54.54,0,0,1-.42.17.63.63,0,0,1-.4-.14.53.53,0,0,1-.16-.41.6.6,0,0,1,.59-.61.51.51,0,0,1,.39.16A.53.53,0,0,1,138.45,72.12Z" fill="#808285"/><path d="M143,75.63a1.39,1.39,0,0,0-.52-.53,1.63,1.63,0,0,0-.82-.2,2.59,2.59,0,0,0-.47,0,1.54,1.54,0,0,0-.44.16,1,1,0,0,0-.34.29.79.79,0,0,0-.13.44.82.82,0,0,0,.08.38.82.82,0,0,0,.23.26,1.51,1.51,0,0,0,.36.18,3.85,3.85,0,0,0,.48.16,3.5,3.5,0,0,1,1.3.62,1.32,1.32,0,0,1,.45,1.07,1.53,1.53,0,0,1-.22.81,1.74,1.74,0,0,1-.53.55,2.18,2.18,0,0,1-.71.32,3.09,3.09,0,0,1-.78.1,3.49,3.49,0,0,1-1.37-.27,2.16,2.16,0,0,1-1-.82l.72-.47a1.68,1.68,0,0,0,.63.61,1.83,1.83,0,0,0,1,.26,2.33,2.33,0,0,0,.53-.06,1.63,1.63,0,0,0,.47-.17,1,1,0,0,0,.32-.31.85.85,0,0,0-.24-1.15,4.11,4.11,0,0,0-1-.47,5.55,5.55,0,0,1-.52-.2,1.75,1.75,0,0,1-.47-.29,1.44,1.44,0,0,1-.34-.43,1.31,1.31,0,0,1-.13-.61,1.45,1.45,0,0,1,.2-.77,1.75,1.75,0,0,1,.52-.53,2.14,2.14,0,0,1,.71-.3,3.11,3.11,0,0,1,.79-.1,2.71,2.71,0,0,1,1.2.26,1.66,1.66,0,0,1,.76.69Z" fill="#808285"/><path d="M145.19,80.14h-.83l1-5.78h.82Zm1.52-8a.57.57,0,0,1-.17.42.53.53,0,0,1-.41.17.61.61,0,0,1-.4-.14.53.53,0,0,1-.17-.41.55.55,0,0,1,.18-.43.57.57,0,0,1,.41-.18.54.54,0,0,1,.4.16A.53.53,0,0,1,146.71,72.12Z" fill="#808285"/><path d="M149.92,80.29a2.87,2.87,0,0,1-1.07-.19,2.41,2.41,0,0,1-.85-.51,2.21,2.21,0,0,1-.55-.79,2.61,2.61,0,0,1-.2-1,3.72,3.72,0,0,1,.26-1.38,3.49,3.49,0,0,1,1.79-1.91,3.32,3.32,0,0,1,1.39-.28,3.14,3.14,0,0,1,1.08.18,2.56,2.56,0,0,1,.84.51,2.44,2.44,0,0,1,.55.79,2.56,2.56,0,0,1,.2,1,3.83,3.83,0,0,1-.26,1.4,3.33,3.33,0,0,1-.71,1.14,3.39,3.39,0,0,1-1.09.76A3.31,3.31,0,0,1,149.92,80.29Zm2.57-3.53a2.21,2.21,0,0,0-.12-.74,1.73,1.73,0,0,0-.37-.59,1.85,1.85,0,0,0-.58-.39,2.13,2.13,0,0,0-.78-.14,2.26,2.26,0,0,0-1,.23,2.46,2.46,0,0,0-.78.62,2.89,2.89,0,0,0-.53.9,3.33,3.33,0,0,0-.19,1.09,2.15,2.15,0,0,0,.12.73,1.69,1.69,0,0,0,.37.59,1.56,1.56,0,0,0,.58.39,1.86,1.86,0,0,0,.77.15,2.24,2.24,0,0,0,1-.23,2.57,2.57,0,0,0,.8-.62,2.9,2.9,0,0,0,.52-.89A3.34,3.34,0,0,0,152.49,76.76Z" fill="#808285"/><path d="M156.26,74.36c0,.15,0,.33-.06.52s0,.34-.08.47h0a2.38,2.38,0,0,1,.86-.84,2.24,2.24,0,0,1,1.12-.3,2.14,2.14,0,0,1,1.47.47,1.67,1.67,0,0,1,.53,1.3c0,.09,0,.19,0,.29s0,.21,0,.32l-.64,3.55h-.83l.56-3.2a3.88,3.88,0,0,0,.08-.73,1.5,1.5,0,0,0-.29-1,1.23,1.23,0,0,0-1-.35,1.74,1.74,0,0,0-.66.14,1.93,1.93,0,0,0-.63.42,2.81,2.81,0,0,0-.51.71,3.18,3.18,0,0,0-.32,1l-.52,3h-.83l.79-4.51c0-.16.07-.36.11-.61s.06-.47.08-.66Z" fill="#808285"/><path d="M167,80.29A2.9,2.9,0,0,1,166,80.1a2.5,2.5,0,0,1-.85-.51,2.34,2.34,0,0,1-.55-.79,2.61,2.61,0,0,1-.2-1,3.72,3.72,0,0,1,.26-1.38,3.39,3.39,0,0,1,.71-1.13,3.25,3.25,0,0,1,1.08-.78,3.35,3.35,0,0,1,1.39-.28,3.14,3.14,0,0,1,1.08.18,2.37,2.37,0,0,1,.84.51,2.44,2.44,0,0,1,.55.79,2.56,2.56,0,0,1,.2,1,3.83,3.83,0,0,1-.26,1.4,3.19,3.19,0,0,1-.71,1.14A3.39,3.39,0,0,1,167,80.29Zm2.57-3.53a2.21,2.21,0,0,0-.12-.74,1.71,1.71,0,0,0-.36-.59,1.9,1.9,0,0,0-.59-.39,2.13,2.13,0,0,0-.78-.14,2.19,2.19,0,0,0-1,.23,2.39,2.39,0,0,0-.79.62,3.1,3.1,0,0,0-.53.9,3.33,3.33,0,0,0-.19,1.09,1.93,1.93,0,0,0,.13.73,1.54,1.54,0,0,0,.36.59,1.56,1.56,0,0,0,.58.39,1.86,1.86,0,0,0,.77.15,2.31,2.31,0,0,0,1-.23,2.65,2.65,0,0,0,.79-.62,2.9,2.9,0,0,0,.52-.89A3.34,3.34,0,0,0,169.59,76.76Z" fill="#808285"/><path d="M174.92,75.05h-1.36l-.89,5.09h-.83l.89-5.09h-1.22l.13-.69h1.2l.27-1.57a3.7,3.7,0,0,1,.24-.82,2.25,2.25,0,0,1,.43-.68,1.86,1.86,0,0,1,.63-.47,2.14,2.14,0,0,1,.87-.17l.33,0a1.45,1.45,0,0,1,.35.07l-.2.73a2.08,2.08,0,0,0-.58-.08,1.21,1.21,0,0,0-.52.11,1,1,0,0,0-.35.32,1.6,1.6,0,0,0-.24.47,3.51,3.51,0,0,0-.14.58l-.26,1.49h1.38Z" fill="#808285"/><path d="M182.88,78.63h0l4.24-7.24h1.34l-1.54,8.75h-.88l1.34-7.56h0l-4.5,7.56h-.47l-1.83-7.56h0l-1.33,7.56h-.87l1.55-8.75h1.33Z" fill="#808285"/><path d="M191.72,80.29a2.87,2.87,0,0,1-1.07-.19,2.5,2.5,0,0,1-.85-.51,2.34,2.34,0,0,1-.55-.79,2.61,2.61,0,0,1-.2-1,3.72,3.72,0,0,1,.26-1.38,3.39,3.39,0,0,1,.71-1.13,3.25,3.25,0,0,1,1.08-.78,3.35,3.35,0,0,1,1.39-.28,3.14,3.14,0,0,1,1.08.18,2.35,2.35,0,0,1,1.39,1.3,2.56,2.56,0,0,1,.2,1,3.83,3.83,0,0,1-.26,1.4,3.19,3.19,0,0,1-.71,1.14,3.39,3.39,0,0,1-2.47,1.05Zm2.57-3.53a2.21,2.21,0,0,0-.12-.74,1.71,1.71,0,0,0-.36-.59,1.9,1.9,0,0,0-.59-.39,2.13,2.13,0,0,0-.78-.14,2.19,2.19,0,0,0-1,.23,2.39,2.39,0,0,0-.79.62,3.1,3.1,0,0,0-.53.9,3.33,3.33,0,0,0-.19,1.09,1.93,1.93,0,0,0,.13.73,1.54,1.54,0,0,0,.36.59,1.56,1.56,0,0,0,.58.39,1.86,1.86,0,0,0,.77.15,2.31,2.31,0,0,0,1-.23,2.65,2.65,0,0,0,.79-.62,2.9,2.9,0,0,0,.52-.89A3.34,3.34,0,0,0,194.29,76.76Z" fill="#808285"/><path d="M197.18,75c0-.24.06-.47.08-.66h.79c0,.15,0,.33-.06.52s-.05.34-.08.47h0a2.57,2.57,0,0,1,.81-.83,2,2,0,0,1,1.12-.31h.28l.26,0-.2.79L200,75l-.34,0a1.82,1.82,0,0,0-.65.12,1.6,1.6,0,0,0-.59.39,2.55,2.55,0,0,0-.47.68,3.72,3.72,0,0,0-.3,1l-.52,3h-.83l.79-4.51C197.11,75.47,197.14,75.27,197.18,75Z" fill="#808285"/><path d="M200.33,81.35a2.4,2.4,0,0,0,.88.74,2.66,2.66,0,0,0,1.23.29,2.83,2.83,0,0,0,1.06-.18,2.15,2.15,0,0,0,.74-.5,2.41,2.41,0,0,0,.47-.73,4.74,4.74,0,0,0,.26-.88l.21-1.1h0a2.65,2.65,0,0,1-2.2,1.15,2.74,2.74,0,0,1-1.06-.19,2.3,2.3,0,0,1-.81-.54,2.35,2.35,0,0,1-.52-.8,2.73,2.73,0,0,1-.18-1,3.5,3.5,0,0,1,.26-1.33,3.41,3.41,0,0,1,.7-1.08,3.33,3.33,0,0,1,1.07-.73,3.49,3.49,0,0,1,1.35-.26,2.68,2.68,0,0,1,.62.07,2.35,2.35,0,0,1,.57.23,1.89,1.89,0,0,1,.48.36,1.63,1.63,0,0,1,.33.49h0l.19-1h.81l-1,5.73a7.41,7.41,0,0,1-.26,1,2.78,2.78,0,0,1-.54,1,2.87,2.87,0,0,1-1,.74,3.5,3.5,0,0,1-1.56.3,3.86,3.86,0,0,1-1.55-.31,2.82,2.82,0,0,1-1.11-.86Zm.91-3.73a2,2,0,0,0,.12.7,1.68,1.68,0,0,0,.94,1,2.14,2.14,0,0,0,.79.14,2.31,2.31,0,0,0,1-.22,2.45,2.45,0,0,0,.8-.59,2.81,2.81,0,0,0,.52-.85,3,3,0,0,0,.18-1,2,2,0,0,0-.13-.72,1.79,1.79,0,0,0-.37-.59,1.9,1.9,0,0,0-.59-.39,1.94,1.94,0,0,0-.78-.15,2.53,2.53,0,0,0-1,.2,2.24,2.24,0,0,0-.8.55,2.69,2.69,0,0,0-.51.86A3.31,3.31,0,0,0,201.24,77.62Z" fill="#808285"/><path d="M212.15,76.59c0-.14,0-.25,0-.32s0-.15,0-.22a1,1,0,0,0-.36-.89,1.7,1.7,0,0,0-1-.26,2.62,2.62,0,0,0-1,.2,2.94,2.94,0,0,0-.8.49l-.37-.55a3.14,3.14,0,0,1,1-.6,3.41,3.41,0,0,1,2-.14,1.81,1.81,0,0,1,.66.3,1.49,1.49,0,0,1,.44.52,1.61,1.61,0,0,1,.17.76c0,.07,0,.17,0,.3s0,.23,0,.31l-.42,2.35c0,.22-.08.46-.1.69a5,5,0,0,0,0,.61h-.74c0-.14,0-.29,0-.46a3.93,3.93,0,0,1,.06-.48h0a4.53,4.53,0,0,1-.49.49,3.24,3.24,0,0,1-.52.33,2.38,2.38,0,0,1-.57.18,4.43,4.43,0,0,1-.66,0,2.52,2.52,0,0,1-.6-.07,1.52,1.52,0,0,1-.56-.26,1.43,1.43,0,0,1-.42-.46,1.28,1.28,0,0,1-.17-.7,1.57,1.57,0,0,1,.39-1.12,2.62,2.62,0,0,1,1-.66,6.45,6.45,0,0,1,1.42-.31C211.08,76.62,211.61,76.59,212.15,76.59Zm-.31.63a11.17,11.17,0,0,0-1.14.06,5.13,5.13,0,0,0-1,.21,2.08,2.08,0,0,0-.78.43.94.94,0,0,0-.31.74,1,1,0,0,0,.1.45.81.81,0,0,0,.27.28,1.16,1.16,0,0,0,.38.15,2.18,2.18,0,0,0,.44,0,2.39,2.39,0,0,0,.82-.14,2.31,2.31,0,0,0,.65-.41,2.27,2.27,0,0,0,.47-.6,2.7,2.7,0,0,0,.26-.72l.09-.49Z" fill="#808285"/><path d="M216.08,74.36c0,.15,0,.33-.06.52s-.05.34-.08.47h0a2.38,2.38,0,0,1,.86-.84,2.21,2.21,0,0,1,1.12-.3,2.14,2.14,0,0,1,1.47.47,1.67,1.67,0,0,1,.52,1.3c0,.09,0,.19,0,.29s0,.21-.05.32l-.64,3.55h-.83l.57-3.2a3.83,3.83,0,0,0,.07-.73,1.5,1.5,0,0,0-.28-1,1.23,1.23,0,0,0-1-.35,1.79,1.79,0,0,0-.67.14,1.89,1.89,0,0,0-.62.42,2.4,2.4,0,0,0-.51.71,3.46,3.46,0,0,0-.33,1l-.51,3h-.83l.79-4.51c0-.16.07-.36.1-.61a6.18,6.18,0,0,0,.08-.66Z" fill="#808285"/><path d="M226.3,78.92h0L230,71.39H231l.73,7.53h0l3.6-7.53h.94l-4.27,8.75h-1l-.71-7.54h0l-3.7,7.54h-1l-.9-8.75h.94Z" fill="#808285"/><path d="M239.41,74.21a2.12,2.12,0,0,1,1.45.47,1.65,1.65,0,0,1,.54,1.3c0,.09,0,.19,0,.29s0,.21,0,.32l-.64,3.55h-.83l.57-3.2a3.88,3.88,0,0,0,.08-.73,1.5,1.5,0,0,0-.29-1,1.29,1.29,0,0,0-1-.35,1.75,1.75,0,0,0-.67.14,1.89,1.89,0,0,0-.62.42,2.57,2.57,0,0,0-.5.71,3.79,3.79,0,0,0-.32,1l-.51,3h-.83l1.64-9.34h.83l-.79,4.51h0a2.38,2.38,0,0,1,.84-.8A2.21,2.21,0,0,1,239.41,74.21Z" fill="#808285"/><path d="M243.56,80.14h-.83l1-5.78h.82Zm1.52-8a.57.57,0,0,1-.17.42.53.53,0,0,1-.41.17.66.66,0,0,1-.41-.14.53.53,0,0,1-.16-.41.62.62,0,0,1,.59-.61.54.54,0,0,1,.4.16A.57.57,0,0,1,245.08,72.12Z" fill="#808285"/><path d="M249,75.05h-1.57l-.61,3.39a3.18,3.18,0,0,0,0,.4.64.64,0,0,0,.2.55.91.91,0,0,0,.52.13,1.81,1.81,0,0,0,.38,0,.73.73,0,0,0,.32-.15l-.09.72a1.39,1.39,0,0,1-.42.13,3.12,3.12,0,0,1-.54,0,1.51,1.51,0,0,1-.42,0,1.1,1.1,0,0,1-.4-.17.94.94,0,0,1-.29-.36,1.15,1.15,0,0,1-.12-.57,2,2,0,0,1,0-.39l.64-3.62h-1.2l.14-.69h1.17l.28-1.63h.83l-.28,1.63h1.59Z" fill="#808285"/><path d="M250.12,77.47a.78.78,0,0,0,0,.14s0,.09,0,.13a1.79,1.79,0,0,0,.15.75,1.65,1.65,0,0,0,.39.58,1.79,1.79,0,0,0,.59.39,2,2,0,0,0,.74.14,2.22,2.22,0,0,0,1.19-.31,2.82,2.82,0,0,0,.81-.71l.52.5a3.35,3.35,0,0,1-1.17.9,3.3,3.3,0,0,1-1.42.31,3.15,3.15,0,0,1-1-.17,2.53,2.53,0,0,1-.84-.5,2.2,2.2,0,0,1-.55-.8,2.6,2.6,0,0,1-.21-1.08,3.55,3.55,0,0,1,.26-1.34,3.74,3.74,0,0,1,.71-1.13,3.44,3.44,0,0,1,1.07-.77,3,3,0,0,1,1.31-.29,2.4,2.4,0,0,1,1.8.63,2.23,2.23,0,0,1,.61,1.63c0,.1,0,.25,0,.45a4,4,0,0,1-.09.55Zm4-.62c0-.06,0-.13,0-.21v-.22a1.51,1.51,0,0,0-.4-1.09,1.59,1.59,0,0,0-1.2-.43,2.15,2.15,0,0,0-.85.16,2.2,2.2,0,0,0-.69.42,2.61,2.61,0,0,0-.51.63,2.5,2.5,0,0,0-.3.74Z" fill="#808285"/><path d="M263.29,79.6a6.18,6.18,0,0,0,1.4-.16,3.86,3.86,0,0,0,1.08-.44l.47-2.68h-2.06l.14-.75h2.92l-.69,3.94a6.05,6.05,0,0,1-1.6.65,6.9,6.9,0,0,1-1.71.2,4.55,4.55,0,0,1-1.6-.27,3.56,3.56,0,0,1-1.24-.77,3.34,3.34,0,0,1-.8-1.18,4,4,0,0,1-.29-1.53,5.57,5.57,0,0,1,.41-2.13,5.35,5.35,0,0,1,2.78-2.88,4.82,4.82,0,0,1,2-.43,4.08,4.08,0,0,1,.93.1,3.77,3.77,0,0,1,.84.28A3.14,3.14,0,0,1,267,72a2.27,2.27,0,0,1,.49.59l-.8.53a2.11,2.11,0,0,0-.29-.42,2.23,2.23,0,0,0-.47-.38,2.7,2.7,0,0,0-.62-.27,3.24,3.24,0,0,0-.79-.09,3.81,3.81,0,0,0-1.72.38,4.57,4.57,0,0,0-1.35,1,4.91,4.91,0,0,0-1.19,3.17,3.6,3.6,0,0,0,.2,1.2,2.71,2.71,0,0,0,.59,1,2.74,2.74,0,0,0,.95.66A3.28,3.28,0,0,0,263.29,79.6Z" fill="#808285"/><path d="M269.29,75c0-.24.06-.47.08-.66h.79c0,.15,0,.33-.06.52s-.05.34-.08.47h0a2.6,2.6,0,0,1,.82-.83,2,2,0,0,1,1.11-.31h.28l.26,0-.2.79-.23,0-.34,0a1.82,1.82,0,0,0-.65.12,1.68,1.68,0,0,0-.59.39,2.8,2.8,0,0,0-.47.68,4.13,4.13,0,0,0-.3,1l-.52,3h-.83l.79-4.51C269.22,75.47,269.25,75.27,269.29,75Z" fill="#808285"/><path d="M275,80.29A2.92,2.92,0,0,1,274,80.1a2.37,2.37,0,0,1-.84-.51,2.21,2.21,0,0,1-.55-.79,2.61,2.61,0,0,1-.2-1,3.72,3.72,0,0,1,.25-1.38,3.55,3.55,0,0,1,.71-1.13,3.4,3.4,0,0,1,1.09-.78,3.31,3.31,0,0,1,1.38-.28,3.16,3.16,0,0,1,1.09.18,2.56,2.56,0,0,1,.84.51,2.61,2.61,0,0,1,.55.79,2.56,2.56,0,0,1,.19,1,3.82,3.82,0,0,1-.25,1.4,3.49,3.49,0,0,1-.71,1.14,3.39,3.39,0,0,1-1.09.76A3.31,3.31,0,0,1,275,80.29Zm2.57-3.53a2.21,2.21,0,0,0-.12-.74,1.9,1.9,0,0,0-.37-.59,1.85,1.85,0,0,0-.58-.39,2.13,2.13,0,0,0-.78-.14,2.26,2.26,0,0,0-1,.23,2.61,2.61,0,0,0-.79.62,3.07,3.07,0,0,0-.71,2,2.15,2.15,0,0,0,.12.73,1.68,1.68,0,0,0,.95,1,1.86,1.86,0,0,0,.77.15,2.3,2.3,0,0,0,1-.23,2.62,2.62,0,0,0,1.31-1.51A3.1,3.1,0,0,0,277.6,76.76Z" fill="#808285"/><path d="M283.64,80.14c0-.16,0-.33.06-.52s.05-.34.08-.47h0a2.47,2.47,0,0,1-.86.84,2.2,2.2,0,0,1-1.11.3,2.14,2.14,0,0,1-1.47-.47,1.63,1.63,0,0,1-.52-1.29,2.81,2.81,0,0,1,0-.29c0-.1,0-.21.05-.32l.64-3.55h.83l-.57,3.2a3.9,3.9,0,0,0-.07.73,1.45,1.45,0,0,0,.28,1,1.23,1.23,0,0,0,1,.35,1.74,1.74,0,0,0,.66-.14,2,2,0,0,0,.62-.41,2.61,2.61,0,0,0,.52-.71,3.46,3.46,0,0,0,.31-1l.52-3h.83l-.79,4.51c0,.16-.07.36-.1.6s-.07.47-.09.66Z" fill="#808285"/><path d="M288.3,75.3a1.75,1.75,0,0,1,.36-.42,2.24,2.24,0,0,1,.5-.35,2.27,2.27,0,0,1,.6-.23,2.41,2.41,0,0,1,.67-.09,3,3,0,0,1,1.06.18,2.51,2.51,0,0,1,.83.51,2.39,2.39,0,0,1,.53.79,2.75,2.75,0,0,1,.18,1,3.63,3.63,0,0,1-.26,1.4,3.49,3.49,0,0,1-.71,1.14A3.42,3.42,0,0,1,291,80a3.25,3.25,0,0,1-1.36.29,2.54,2.54,0,0,1-1.18-.29,1.92,1.92,0,0,1-.83-.84h0l-.71,4h-.83l1.56-8.75h.83l-.17.94Zm3.87,1.46a2.19,2.19,0,0,0-.12-.73,1.85,1.85,0,0,0-.35-.59,1.78,1.78,0,0,0-.57-.4,2.05,2.05,0,0,0-.78-.14,2.29,2.29,0,0,0-1,.22,2.51,2.51,0,0,0-.82.62,2.92,2.92,0,0,0-.54.9,3.06,3.06,0,0,0-.2,1.09,2,2,0,0,0,.13.74,1.71,1.71,0,0,0,.38.6,1.65,1.65,0,0,0,.58.39,2.13,2.13,0,0,0,.78.14,2.33,2.33,0,0,0,1-.23,2.63,2.63,0,0,0,.8-.6,2.84,2.84,0,0,0,.51-.9A3.31,3.31,0,0,0,292.17,76.76Z" fill="#808285"/><path d="M48.9,0A49.16,49.16,0,1,0,98.05,49.16,49.21,49.21,0,0,0,48.9,0Zm-47,49.16a47,47,0,1,1,47,47A47.07,47.07,0,0,1,1.88,49.16Z" fill="#9e9e9e"/><path d="M86.43,52.21c-.66,0-1.1.29-1.1,1.35v4.83c0,.51.15.87.15,1.17s-.22.44-.58.58a21.13,21.13,0,0,1-10.38,2.41c-3.47,0-7.77-1.16-10.29-4A.87.87,0,0,1,64,57.53c.12-.31.6-1.5.72-1.7s.37-.37.82,0c3,2.42,5.61,4.7,9.25,4.7,2.34,0,3.73,0,5-.61.8-.44.88-1.46.88-3.36V53.89c0-1.31-.37-1.68-1.32-1.68H77.81c-.22,0-.3-.15-.3-.33V51c0-.22.08-.29.22-.29.44,0,2.19.11,5.19.11s9.42-.1,10.47-.11c0-.53,0-1.06,0-1.59A44.54,44.54,0,1,0,6,61.21h3A1.8,1.8,0,0,0,10.68,60c.36-.81,7.82-21.27,8.55-23.1.15-.37.44-.95.95-.95s.77.36.92.8l6.61,15.4h.15c.3-.93,5.62-12.55,6.74-15,.27-.7.53-1.23.71-1.23l3.57-.09c.22,0,.3.07.3.25V37c0,.18-.08.29-.33.29h-.7a.87.87,0,0,0-.87,1.28L43,55.42l.08,0c.29-.77,5.22-11.33,5.22-11.33s2-4.25,2.79-4.25,2.74,4.56,2.74,4.56l4.56,10.23,3-7.83c3.12-9.74,8-11.19,14.72-11.19a13.5,13.5,0,0,1,7.45,2c.44.33.66.22.88-.07l.44-.58c.18-.26.29-.37.51-.37s.44.22.44.51l.36,7.31c0,.3,0,.48-.14.51l-.88.15c-.22,0-.29-.07-.36-.29a14.78,14.78,0,0,0-2.93-5.05,8.27,8.27,0,0,0-6.07-2.55c-4,0-7.89,2-10.46,8.76-2.16,5.7-4.54,12.41-4.95,13.56-.78,2.23-1.43,3-3.39,3-.51,0-.77-.37-.91-.81L49.43,46.76h-.15c-.32,1-6.79,14.65-6.94,15.05a1.11,1.11,0,0,1-.37.49,1,1,0,0,1-.7.31c-1.78,0-2.72.07-3,.07s-.3-.08-.3-.26v-.91c0-.19.08-.3.33-.3H39a.87.87,0,0,0,.88-1.27L34.18,43.05l-.07,0c-.3.77-5.23,11.78-5.23,11.78s-1.72,4-2.87,4c-.76,0-2-2.86-2-2.86L18.79,42.9h-.14c-1.1,3.22-5.27,15.28-5.27,17.29,0,.51.37,1,1.25,1h1c.22,0,.26.11.26.3v.87c0,.19-.07.3-.29.3s-1.61-.11-3.88-.11c-1.29,0-3.64,0-5.26.07A44.54,44.54,0,0,0,93.32,52.21Z" fill="#231f20"/><path d="M409,47.56A3.4,3.4,0,0,0,406,46a4.53,4.53,0,0,0-1.21.17,3.35,3.35,0,0,0-1.07.53,2.65,2.65,0,0,0-.76.92,2.86,2.86,0,0,0-.28,1.32,2.34,2.34,0,0,0,.59,1.71,4.8,4.8,0,0,0,1.48,1,14.81,14.81,0,0,0,1.92.7,9.06,9.06,0,0,1,1.93.83,4.72,4.72,0,0,1,1.48,1.37,4,4,0,0,1,.59,2.31,4.32,4.32,0,0,1-.45,2A4.55,4.55,0,0,1,409,60.3a5.61,5.61,0,0,1-3.49,1.24,6.79,6.79,0,0,1-2.72-.56,5.22,5.22,0,0,1-2.19-1.85l1.45-1.08a3.79,3.79,0,0,0,1.41,1.43,4.06,4.06,0,0,0,2.13.54,3.73,3.73,0,0,0,1.18-.19,3.27,3.27,0,0,0,1.07-.58,3.32,3.32,0,0,0,.78-.92,2.62,2.62,0,0,0,.3-1.27,2.68,2.68,0,0,0-.34-1.41,3.1,3.1,0,0,0-.9-.94,5.87,5.87,0,0,0-1.28-.63c-.48-.17-1-.34-1.47-.5a14.66,14.66,0,0,1-1.48-.58,5,5,0,0,1-1.28-.81,3.81,3.81,0,0,1-.9-1.24,5.17,5.17,0,0,1,.09-3.91,4,4,0,0,1,1.14-1.45,4.83,4.83,0,0,1,1.62-.85,6.53,6.53,0,0,1,4.25.16,5.17,5.17,0,0,1,2,1.54Z" fill="#231f20"/><path d="M415.47,59.61h8.35v1.52h-9.93V44.88h9.67v1.51h-8.09v5.53H423v1.52h-7.56Z" fill="#231f20"/><path d="M428.54,61.13H427V44.88h4.8A5.94,5.94,0,0,1,435.51,46a3.88,3.88,0,0,1,1.38,3.26,4.11,4.11,0,0,1-1,2.85,4.31,4.31,0,0,1-3,1.34l4.49,7.72h-1.93l-4.28-7.55h-2.64Zm0-9.07h2.82a6.18,6.18,0,0,0,1.79-.23,3,3,0,0,0,1.18-.61,2.14,2.14,0,0,0,.64-.89,3.17,3.17,0,0,0,.2-1.11,3,3,0,0,0-.2-1.09,2.2,2.2,0,0,0-.64-.91,3,3,0,0,0-1.18-.61,6.58,6.58,0,0,0-1.79-.22h-2.82Z" fill="#231f20"/><path d="M444.69,58.65h0l5.11-13.77h1.72l-6.08,16.25h-1.59L438,44.88h1.76Z" fill="#231f20"/><path d="M455.19,61.13h-1.58V44.88h1.58Z" fill="#231f20"/><path d="M472.27,58.55a6.33,6.33,0,0,1-1,1.18,6.59,6.59,0,0,1-1.34,1,7.18,7.18,0,0,1-1.62.63,7.3,7.3,0,0,1-1.84.23,8.15,8.15,0,0,1-3.22-.64,8,8,0,0,1-2.58-1.78,8.18,8.18,0,0,1-1.71-2.7,9.89,9.89,0,0,1,0-6.84,8,8,0,0,1,1.71-2.69,7.89,7.89,0,0,1,2.58-1.78,8,8,0,0,1,3.22-.65,7.58,7.58,0,0,1,2.91.6,5.91,5.91,0,0,1,2.49,2l-1.39,1.07a3.8,3.8,0,0,0-.66-.78,4.68,4.68,0,0,0-.95-.68,6.31,6.31,0,0,0-1.16-.49,4.38,4.38,0,0,0-1.24-.18,6.13,6.13,0,0,0-2.68.57,6.2,6.2,0,0,0-2,1.54,6.94,6.94,0,0,0-1.27,2.24,8.21,8.21,0,0,0-.44,2.67,8.13,8.13,0,0,0,.44,2.67,6.94,6.94,0,0,0,1.27,2.24,6,6,0,0,0,4.7,2.11,6.32,6.32,0,0,0,1.23-.11,5.34,5.34,0,0,0,1.19-.39,4.3,4.3,0,0,0,1.1-.75,5.59,5.59,0,0,0,1-1.18Z" fill="#231f20"/><path d="M476.52,59.61h8.35v1.52h-9.94V44.88h9.67v1.51h-8.08v5.53h7.55v1.52h-7.55Z" fill="#231f20"/><path d="M495.38,47.56a3.41,3.41,0,0,0-3-1.58,4.48,4.48,0,0,0-1.21.17,3.25,3.25,0,0,0-1.07.53,2.54,2.54,0,0,0-.76.92,2.86,2.86,0,0,0-.29,1.32,2.34,2.34,0,0,0,.6,1.71,4.63,4.63,0,0,0,1.47,1,15,15,0,0,0,1.93.7,9.06,9.06,0,0,1,1.93.83,4.69,4.69,0,0,1,1.47,1.37,3.93,3.93,0,0,1,.6,2.31,4.32,4.32,0,0,1-.45,2,4.55,4.55,0,0,1-1.19,1.48,5.74,5.74,0,0,1-1.66.92,5.61,5.61,0,0,1-1.84.32,6.83,6.83,0,0,1-2.72-.56A5.22,5.22,0,0,1,487,59.13l1.46-1.08a3.7,3.7,0,0,0,1.4,1.43A4.06,4.06,0,0,0,492,60a3.79,3.79,0,0,0,1.19-.19,3.22,3.22,0,0,0,1.06-.58,3,3,0,0,0,.78-.92,2.52,2.52,0,0,0,.31-1.27,2.68,2.68,0,0,0-.34-1.41,3,3,0,0,0-.91-.94,5.79,5.79,0,0,0-1.27-.63c-.48-.17-1-.34-1.48-.5a13.61,13.61,0,0,1-1.47-.58,4.8,4.8,0,0,1-1.28-.81,3.7,3.7,0,0,1-.91-1.24,5.17,5.17,0,0,1,.09-3.91,4.14,4.14,0,0,1,1.15-1.45,4.74,4.74,0,0,1,1.62-.85,6.53,6.53,0,0,1,4.25.16,5.08,5.08,0,0,1,2,1.54Z" fill="#231f20"/><path d="M121.81,61.3,117,52.49h-1.82V61.3h-5.24V39.12h8.46a14.62,14.62,0,0,1,3.12.33,7.92,7.92,0,0,1,2.72,1.11,5.78,5.78,0,0,1,1.93,2.06,6.5,6.5,0,0,1,.72,3.2,5.92,5.92,0,0,1-1.22,3.79,6.6,6.6,0,0,1-3.38,2.19l5.79,9.5Zm-.22-15.39a2.18,2.18,0,0,0-.33-1.26,2.3,2.3,0,0,0-.85-.76,4.21,4.21,0,0,0-1.17-.36,8.94,8.94,0,0,0-1.24-.09h-2.87v5.17h2.55A9.12,9.12,0,0,0,119,48.5a4.22,4.22,0,0,0,1.26-.39,2.52,2.52,0,0,0,.93-.82A2.4,2.4,0,0,0,121.59,45.91Z" fill="#231f20"/><path d="M130,61.3V39.12h14.92v4.51h-9.75v4.2h9.21v4.29h-9.21v4.6h10.31V61.3Z" fill="#231f20"/><path d="M158,43.69V61.3h-5.36V43.69h-6.26V39.12h17.89v4.57Z" fill="#231f20"/><path d="M166,61.3V39.12h5.39V61.3Z" fill="#231f20"/><path d="M187.19,61.3l-4.82-8.81h-1.83V61.3h-5.23V39.12h8.46a14.69,14.69,0,0,1,3.12.33,7.92,7.92,0,0,1,2.72,1.11,5.78,5.78,0,0,1,1.93,2.06,6.5,6.5,0,0,1,.72,3.2A5.92,5.92,0,0,1,191,49.61a6.64,6.64,0,0,1-3.38,2.19l5.79,9.5ZM187,45.91a2.11,2.11,0,0,0-.34-1.26,2.22,2.22,0,0,0-.85-.76,4,4,0,0,0-1.16-.36,8.94,8.94,0,0,0-1.24-.09h-2.87v5.17h2.55a9.22,9.22,0,0,0,1.36-.11,4.22,4.22,0,0,0,1.26-.39,2.32,2.32,0,0,0,1.29-2.2Z" fill="#231f20"/><path d="M195.39,61.3V39.12H210.3v4.51h-9.74v4.2h9.21v4.29h-9.21v4.6h10.31V61.3Z" fill="#231f20"/><path d="M234.11,61.3l.12-15.7h-.09l-5.77,15.7h-3.75L219,45.6h-.1L219,61.3h-5V39.12h7.62l5,14.22h.12l4.83-14.22h7.75V61.3Z" fill="#231f20"/><path d="M243.33,61.3V39.12h14.91v4.51H248.5v4.2h9.21v4.29H248.5v4.6h10.31V61.3Z" fill="#231f20"/><path d="M276,61.3,267.1,46.79H267l.12,14.51h-5.2V39.12H268l8.9,14.47H277l-.12-14.47h5.2V61.3Z" fill="#231f20"/><path d="M295.41,43.69V61.3h-5.36V43.69h-6.27V39.12h17.89v4.57Z" fill="#231f20"/><path d="M327.58,46a6.81,6.81,0,0,1-.72,3.27,6,6,0,0,1-1.94,2.15,8.72,8.72,0,0,1-2.82,1.19,14.5,14.5,0,0,1-3.32.37h-2.66V61.3h-5.36V39.12h8.14a15.28,15.28,0,0,1,3.4.36,7.82,7.82,0,0,1,2.76,1.16,5.66,5.66,0,0,1,1.85,2.09A7,7,0,0,1,327.58,46Zm-5.36,0a2.42,2.42,0,0,0-.31-1.29,2.21,2.21,0,0,0-.85-.78,3.68,3.68,0,0,0-1.2-.38,10.58,10.58,0,0,0-1.39-.09h-2.35v5.23h2.25a8.39,8.39,0,0,0,1.44-.12,4.05,4.05,0,0,0,1.24-.44,2.45,2.45,0,0,0,.86-.83A2.48,2.48,0,0,0,322.22,46Z" fill="#231f20"/><path d="M329.64,61.3V39.12H335V56.63h8.58V61.3Z" fill="#231f20"/><path d="M361.78,61.3l-1.73-4.36h-8.58l-1.63,4.36H344l9.31-22.18h5.2l9.21,22.18Zm-6-16.26L353,52.65h5.58Z" fill="#231f20"/><path d="M383.21,61.3l-8.93-14.51h-.09l.13,14.51h-5.2V39.12h6.1l8.9,14.47h.1l-.13-14.47h5.2V61.3Z" fill="#231f20"/></svg>