<svg xmlns="http://www.w3.org/2000/svg" viewBox="0 0 228.69 97.55"><title>Artboard 1</title><path d="M32.16,54.91a16.55,16.55,0,0,1-4.32-.85,2.17,2.17,0,0,1-1-2.19,5.43,5.43,0,0,1,.38-1.95,13.93,13.93,0,0,1,.87-1.86l4.85-8.44H50.82c.48,3.54.75,5.56.8,6,.3,2.36.45,3.84.45,4.46,0,1.84-.49,3.05-1.48,3.63a12.65,12.65,0,0,1-5.05,1.16v2H70.72v-2c-2.56-.19-4.23-.64-5-1.36s-1.41-2.67-1.95-5.86L55.84.2H53.69L22.87,49a15.83,15.83,0,0,1-3.61,4.38,11.35,11.35,0,0,1-3.4,1.5v2h16.3Zm15-38.8,3.06,20.22H34.88Z" fill="#231f20"/><path d="M97.57,54.75a10.74,10.74,0,0,1-3.89-.53,3.22,3.22,0,0,1-2.07-3.28,5.26,5.26,0,0,1,.08-.89c.06-.3.12-.62.21-1l5.46-20.28q7.08,0,9.23,1.79t2.16,5.88q0,.48-.06,1.38c0,.59-.12,1.29-.23,2.1l2.27.41,6.17-22.71-2.31-.28q-3.09,6.08-5.59,7.3T98.18,26.12L103.09,7.7a5.33,5.33,0,0,1,1.65-3,7.19,7.19,0,0,1,3.84-.73q9.48,0,12.65,4.34c1.22,1.68,1.86,4.5,1.91,8.48l2.23.36L128.9,1.34H84.74V3.49a18.13,18.13,0,0,1,4.91.85c.76.35,1.13,1.19,1.13,2.51a14.39,14.39,0,0,1-.36,2.72l-.49,2L79.74,48.79c-.59,2.22-1.37,3.7-2.31,4.46A9,9,0,0,1,73,54.75V56.9H97.57Z" fill="#231f20"/><path d="M140.11,11.56l-10.2,37.27q-.93,3.38-2.35,4.47a9.2,9.2,0,0,1-4.38,1.45V56.9h24.73V54.75a16.47,16.47,0,0,1-4.9-.89c-.76-.38-1.14-1.27-1.14-2.66a5.56,5.56,0,0,1,.06-.79c0-.28.09-.56.14-.83l.65-2.86L153,9.45Q153.9,6,155.26,5a9.24,9.24,0,0,1,4.4-1.46V1.34H134.93V3.49a17.9,17.9,0,0,1,4.9.87C140.62,4.72,141,5.61,141,7a9.3,9.3,0,0,1-.23,1.88C140.64,9.62,140.41,10.5,140.11,11.56Z" fill="#231f20"/><path d="M206.34,1.78a2.61,2.61,0,0,1-2,.65A34.52,34.52,0,0,1,199,1.22,33.81,33.81,0,0,0,190.2,0q-13.71,0-23.68,11a37.36,37.36,0,0,0-10,26q0,9.82,6.51,15.68t16.48,5.86a25.82,25.82,0,0,0,12-3.08,28.29,28.29,0,0,0,10.22-9.41l-2.52-1.83a32.17,32.17,0,0,1-5.84,5.88,18.85,18.85,0,0,1-11.47,4A13.43,13.43,0,0,1,173.31,51q-4-3.18-3.95-11.82a47.16,47.16,0,0,1,6.4-23.31Q182.9,3,192.55,3a10.39,10.39,0,0,1,7.83,3.21q3.08,3.19,3.08,9.77c0,.4,0,.71,0,.91s-.06.89-.14,2.05l2.59.48L210.11,0H207.6A7.64,7.64,0,0,1,206.34,1.78Z" fill="#231f20"/><path d="M16.12,90.64,13.25,73.73h-.66L3.87,88.67a35,35,0,0,1-2.3,3.6A3,3,0,0,1,0,93.19v.48H5.6v-.48a3.17,3.17,0,0,1-1.38-.26.89.89,0,0,1-.38-.81A3.27,3.27,0,0,1,4.09,91a4.19,4.19,0,0,1,.33-.71L6.3,86.93h6.38l.64,3.91c0,.12,0,.26,0,.42s0,.32,0,.47a1.14,1.14,0,0,1-.63,1.14,6.59,6.59,0,0,1-1.72.32v.48H18.4v-.48a2.64,2.64,0,0,1-1.62-.52A4.61,4.61,0,0,1,16.12,90.64ZM6.9,85.87l4.33-7.75,1.27,7.75Z" fill="#231f20"/><path d="M31.37,91.68c-.53.5-.93.75-1.21.75a.7.7,0,0,1-.35-.12c-.13-.08-.19-.25-.19-.51a2.38,2.38,0,0,1,0-.36c0-.14.06-.28.1-.44l2-6.93,2.88-10.49,0-.16-.13-.15c-2,.37-3.49.62-4.59.76v.48l.56,0h.46a1,1,0,0,1,.6.14q.21.15.21.72a2.12,2.12,0,0,1,0,.34,2,2,0,0,1-.09.44l-1.72,6a2.38,2.38,0,0,0-.44-1.1,2.08,2.08,0,0,0-1.64-.55q-2.78,0-5.7,3.34c-1.95,2.23-2.93,4.41-2.93,6.52a3.71,3.71,0,0,0,.95,2.79,3.11,3.11,0,0,0,2.22.9,4.45,4.45,0,0,0,2.88-1.08,12.1,12.1,0,0,0,2.43-2.77,14.39,14.39,0,0,0-.26,1.47,8.43,8.43,0,0,0-.09,1,1.35,1.35,0,0,0,.6,1.26,1.53,1.53,0,0,0,.72.17,4.2,4.2,0,0,0,2.72-1.48,10.55,10.55,0,0,0,1.39-1.64l.21-.31-.34-.32C32.09,90.91,31.67,91.38,31.37,91.68ZM27.6,89.14q-1.94,3.35-4,3.35a1.49,1.49,0,0,1-1.38-.66,2.86,2.86,0,0,1-.41-1.56,11.51,11.51,0,0,1,1.86-5.56q2.09-3.58,4.32-3.59a1.2,1.2,0,0,1,1.19.59,3.18,3.18,0,0,1,.29,1.47A11.78,11.78,0,0,1,27.6,89.14Z" fill="#231f20"/><path d="M53.14,91.45a5.26,5.26,0,0,1-.48.51,3.31,3.31,0,0,1-.5.44.8.8,0,0,1-.46.13.37.37,0,0,1-.38-.2.47.47,0,0,1,0-.38l2.29-8a9.59,9.59,0,0,0,.28-1.55,1.83,1.83,0,0,0-.57-1.5A1.94,1.94,0,0,0,52,80.47q-1.62,0-3.75,2.34a31.8,31.8,0,0,0-2.79,3.78c.42-1.31.71-2.26.87-2.84a5.67,5.67,0,0,0,.24-1.38,1.78,1.78,0,0,0-.71-1.58,1.72,1.72,0,0,0-1.05-.32c-1,0-2.21.7-3.55,2.11a35.88,35.88,0,0,0-3.11,4l1.65-6-.12-.1c-2.18.48-3.77.8-4.75,1v.48a6,6,0,0,1,1.52.07c.26.08.4.31.4.7a1.55,1.55,0,0,1,0,.31c0,.1-.05.2-.08.31L34,93.67h2.24c.51-1.65.92-2.9,1.23-3.78a16.48,16.48,0,0,1,1.66-3.46,23.76,23.76,0,0,1,2.26-2.87c.92-1,1.69-1.53,2.32-1.53a.58.58,0,0,1,.51.2.81.81,0,0,1,.16.54,2.11,2.11,0,0,1,0,.26c0,.08,0,.17-.05.25L41.33,93.67H43.6c.65-2.36,1.09-3.88,1.34-4.58A15.61,15.61,0,0,1,46.2,86.5a24.49,24.49,0,0,1,2.3-3A3.57,3.57,0,0,1,50.83,82a.63.63,0,0,1,.47.19.75.75,0,0,1,.18.54.9.9,0,0,1,0,.23,2.15,2.15,0,0,1-.06.29l-2.27,8.19A4.85,4.85,0,0,0,49,92a4.07,4.07,0,0,0,0,.47,1.5,1.5,0,0,0,.5,1.27,1.34,1.34,0,0,0,.79.23,3.3,3.3,0,0,0,2.1-.88,12.08,12.08,0,0,0,2.12-2.38l.14-.2-.45-.35Z" fill="#231f20"/><path d="M61.29,74.06a1.33,1.33,0,0,0-1,.47,1.7,1.7,0,0,0,0,2.26,1.33,1.33,0,0,0,1,.47,1.39,1.39,0,0,0,1-.46,1.62,1.62,0,0,0,.43-1.13,1.65,1.65,0,0,0-.43-1.14A1.36,1.36,0,0,0,61.29,74.06Z" fill="#231f20"/><path d="M60.33,91.67c-.55.57-1,.86-1.32.86s-.31-.06-.36-.17a.79.79,0,0,1-.09-.38,7.48,7.48,0,0,1,.2-1l3-10.42a.1.1,0,0,0-.07-.12s-.28,0-.7.09-.85.19-1.31.26L58.56,81l-1.73.23v.48a6.09,6.09,0,0,1,1.52.12c.26.08.39.3.39.65a1.43,1.43,0,0,1,0,.29c0,.1,0,.21-.07.32l-2.08,7.5c-.11.41-.18.72-.22.93a4,4,0,0,0-.06.74,1.94,1.94,0,0,0,.42,1.24,1.27,1.27,0,0,0,1,.52,3.29,3.29,0,0,0,2.19-1,15.64,15.64,0,0,0,1.81-2.2l.15-.21-.38-.32A17.62,17.62,0,0,1,60.33,91.67Z" fill="#231f20"/><path d="M74.94,92.09a1.32,1.32,0,0,1-.84.44.35.35,0,0,1-.32-.17.77.77,0,0,1-.1-.4,2.17,2.17,0,0,1,.07-.44c0-.21.09-.39.13-.53l1.92-7c.08-.29.14-.57.19-.82a3.68,3.68,0,0,0,.07-.73,1.82,1.82,0,0,0-.89-1.74,2.44,2.44,0,0,0-1.12-.24q-1.68,0-3.79,2.35a33.84,33.84,0,0,0-3,4.05L69.2,80.6a.29.29,0,0,0-.12-.13L66.49,81l-.86.17-1.34.22v.48l.37,0,.34,0a1.35,1.35,0,0,1,.94.24.9.9,0,0,1,.24.67,2.19,2.19,0,0,1-.05.52c0,.16-.16.62-.37,1.38l-2.5,9H65.5c.64-2.11,1.1-3.57,1.4-4.38a14.29,14.29,0,0,1,1.2-2.47,26.05,26.05,0,0,1,2-2.81q1.68-2,2.79-2a.68.68,0,0,1,.6.25,1.11,1.11,0,0,1,.16.61,3.51,3.51,0,0,1,0,.53c0,.25-.1.57-.19,1l-1.87,7.09a3.78,3.78,0,0,0-.09.48,4.92,4.92,0,0,0,0,.52,1.38,1.38,0,0,0,.45,1.19,1.6,1.6,0,0,0,.94.33,3.31,3.31,0,0,0,2.25-1.15,17.88,17.88,0,0,0,1.86-2.28l-.42-.38A15.92,15.92,0,0,1,74.94,92.09Z" fill="#231f20"/><path d="M83.68,74.06a1.36,1.36,0,0,0-1,.47,1.73,1.73,0,0,0,0,2.26,1.36,1.36,0,0,0,2,0,1.59,1.59,0,0,0,.44-1.13,1.61,1.61,0,0,0-.44-1.14A1.34,1.34,0,0,0,83.68,74.06Z" fill="#231f20"/><path d="M82.71,91.67c-.54.57-1,.86-1.31.86s-.32-.06-.36-.17A.79.79,0,0,1,81,92a7.48,7.48,0,0,1,.2-1L84.1,80.57a.1.1,0,0,0-.07-.12s-.28,0-.7.09-.85.19-1.32.26L81,81l-1.73.23v.48a6.15,6.15,0,0,1,1.52.12c.26.08.39.3.39.65a1.43,1.43,0,0,1,0,.29c0,.1,0,.21-.07.32L79,90.56c-.11.41-.18.72-.22.93a4,4,0,0,0-.06.74,1.94,1.94,0,0,0,.42,1.24,1.26,1.26,0,0,0,1,.52,3.29,3.29,0,0,0,2.19-1,15.64,15.64,0,0,0,1.81-2.2l.14-.21-.38-.32A15.77,15.77,0,0,1,82.71,91.67Z" fill="#231f20"/><path d="M95.13,80.86a.83.83,0,0,1-.54.15,5.65,5.65,0,0,1-1.26-.27,5.82,5.82,0,0,0-1.63-.27,3.37,3.37,0,0,0-2.59,1,3.15,3.15,0,0,0-.91,2.24,3.65,3.65,0,0,0,.42,1.66c.19.37.64,1.1,1.37,2.19l1.21,1.79a3.14,3.14,0,0,1,.39.75,3.07,3.07,0,0,1,.15,1.05,2.3,2.3,0,0,1-.6,1.66,2,2,0,0,1-1.5.63,2.57,2.57,0,0,1-2.39-1.5,9.72,9.72,0,0,1-.76-2.59H86l-.58,4.77h.48a1.38,1.38,0,0,1,.25-.39.61.61,0,0,1,.43-.13,10.2,10.2,0,0,1,1.29.25,9,9,0,0,0,1.7.25A5,5,0,0,0,92.78,93a3.32,3.32,0,0,0,1.34-2.66,3.79,3.79,0,0,0-.33-1.58,14.91,14.91,0,0,0-1.14-1.88l-1-1.49a18.4,18.4,0,0,1-1-1.6,2.32,2.32,0,0,1-.22-1,1.43,1.43,0,0,1,.5-1.18,1.85,1.85,0,0,1,1.15-.4,2.32,2.32,0,0,1,2.21,1.33,6.3,6.3,0,0,1,.57,2.13h.48l.6-4.14h-.42A1.59,1.59,0,0,1,95.13,80.86Z" fill="#231f20"/><path d="M103.47,77.77a.5.5,0,0,0,0-.17.49.49,0,0,0,0-.18l-.2-.06a.23.23,0,0,0-.14,0,.24.24,0,0,0-.11.09l-.24.28A14.78,14.78,0,0,1,100.52,80a12.17,12.17,0,0,1-2.3,1.21.65.65,0,0,0-.29.21,1.17,1.17,0,0,0-.06.49h2.22L97.27,92.13a1.7,1.7,0,0,0-.06.31,2.62,2.62,0,0,0,0,.27,1.35,1.35,0,0,0,.33.89,1.37,1.37,0,0,0,1.08.39,3,3,0,0,0,1.82-.74,11.3,11.3,0,0,0,2.22-2.61l.2-.31-.38-.22a19.25,19.25,0,0,1-1.33,1.62c-.45.51-.81.76-1.06.76a.41.41,0,0,1-.4-.24.72.72,0,0,1,0-.5l2.69-9.81h2.52l.17-1h-2.4Z" fill="#231f20"/><path d="M116.05,81.93a1.63,1.63,0,0,0-.37-1,1.3,1.3,0,0,0-1.06-.45,3.72,3.72,0,0,0-2.67,1.7,20.24,20.24,0,0,0-2.46,3.75l-.34.68,1.49-5.69s0-.13,0-.22a.32.32,0,0,0,0-.19.19.19,0,0,0-.18-.08l-1.42.27-2.49.49-.59.12v.48l.63-.07.44,0a1,1,0,0,1,.76.23,1,1,0,0,1,.22.67,4.55,4.55,0,0,1-.13,1c-.08.4-.19.85-.33,1.36l-2.43,8.78h2.24c.44-1.43.8-2.53,1.06-3.31.42-1.24.8-2.23,1.14-3a24.23,24.23,0,0,1,1.92-3.44c.72-1.06,1.26-1.59,1.64-1.59a.39.39,0,0,1,.2.05.47.47,0,0,1,.14.14l.17.32a1.3,1.3,0,0,0,.37.41,1.08,1.08,0,0,0,.68.17,1.28,1.28,0,0,0,1-.43A1.57,1.57,0,0,0,116.05,81.93Z" fill="#231f20"/><path d="M127.72,91.29c-.14.14-.27.25-.37.34a3,3,0,0,1-.28.25l-.26.2a2,2,0,0,1-.39.26.6.6,0,0,1-.29.09.4.4,0,0,1-.27-.09.41.41,0,0,1-.11-.3,22.18,22.18,0,0,1,.54-2.56c.22-.83.49-1.81.8-3l1.44-5.22c.05-.13.08-.24.1-.31l.09-.3a.39.39,0,0,0,0-.18s-.07,0-.16,0l-1.68.19c-.11,0-.18,0-.2.07a.83.83,0,0,0-.11.26l-.33,1.1-.07-.21a2.09,2.09,0,0,0-.53-.84,2.53,2.53,0,0,0-1.8-.6c-2,0-4,1.15-5.93,3.46a10.16,10.16,0,0,0-2.77,6.4,3.76,3.76,0,0,0,1,2.75,2.93,2.93,0,0,0,2.14,1,4.6,4.6,0,0,0,1.46-.26,7.42,7.42,0,0,0,2-1.34,10.4,10.4,0,0,0,1.52-1.63c.41-.56.71-1,.88-1.28-.13.45-.25,1-.39,1.65a8.35,8.35,0,0,0-.19,1.51,1.45,1.45,0,0,0,.3.94,1,1,0,0,0,.85.38,3.09,3.09,0,0,0,1.8-.69,15.27,15.27,0,0,0,2.5-2.64l-.35-.3Zm-4-2.32q-2,3.56-4.24,3.55a1.62,1.62,0,0,1-1.24-.54,2.38,2.38,0,0,1-.5-1.7,11.69,11.69,0,0,1,1.81-5.53q2.06-3.66,4.47-3.66a1.57,1.57,0,0,1,1.17.5,2.12,2.12,0,0,1,.49,1.55A11.48,11.48,0,0,1,123.7,89Z" fill="#231f20"/><path d="M134.42,91.73c-.46.51-.81.76-1.06.76a.41.41,0,0,1-.4-.24.67.67,0,0,1,0-.5l2.69-9.81h2.51l.18-1h-2.41l.86-3.18a1,1,0,0,0,0-.17.83.83,0,0,0,0-.18l-.2-.06a.23.23,0,0,0-.14,0,.24.24,0,0,0-.11.09l-.24.28A15.26,15.26,0,0,1,133.8,80a12.17,12.17,0,0,1-2.3,1.21.65.65,0,0,0-.29.21,1.17,1.17,0,0,0-.06.49h2.22l-2.82,10.19a1.7,1.7,0,0,0-.06.31c0,.1,0,.19,0,.27A1.26,1.26,0,0,0,131.89,94a3,3,0,0,0,1.82-.74,11.3,11.3,0,0,0,2.22-2.61l.2-.31-.38-.22C135.13,90.92,134.68,91.46,134.42,91.73Z" fill="#231f20"/><path d="M146.61,80.44a8.11,8.11,0,0,0-6,3,8.89,8.89,0,0,0-2.71,6.11,4.32,4.32,0,0,0,1.21,3.28A4.43,4.43,0,0,0,142.33,94c2.13,0,4.14-1,6-3.09a9,9,0,0,0,2.73-6.07,4.86,4.86,0,0,0-1-3.09A4.1,4.1,0,0,0,146.61,80.44Zm.41,9.31q-1.85,3.59-4.22,3.59a2.08,2.08,0,0,1-1.77-.8,3.19,3.19,0,0,1-.61-2,12,12,0,0,1,1.84-6.14q2-3.35,4.19-3.34a1.85,1.85,0,0,1,1.86,1.27,4.84,4.84,0,0,1,.27,1.77A12.69,12.69,0,0,1,147,89.75Z" fill="#231f20"/><path d="M163.23,81.93a1.58,1.58,0,0,0-.37-1,1.3,1.3,0,0,0-1.06-.45,3.76,3.76,0,0,0-2.67,1.7,20.24,20.24,0,0,0-2.46,3.75l-.34.68,1.49-5.69s0-.13,0-.22a.33.33,0,0,0-.06-.19.19.19,0,0,0-.18-.08l-1.42.27-2.49.49-.58.12v.48l.63-.07.43,0a1,1,0,0,1,.76.23.93.93,0,0,1,.22.67,5.15,5.15,0,0,1-.12,1c-.09.4-.2.85-.33,1.36l-2.43,8.78h2.24c.44-1.43.79-2.53,1.06-3.31a30.88,30.88,0,0,1,1.13-3,25.26,25.26,0,0,1,1.92-3.44q1.08-1.59,1.65-1.59a.38.38,0,0,1,.19.05.38.38,0,0,1,.14.14l.18.32a1.27,1.27,0,0,0,.36.41,1.12,1.12,0,0,0,.69.17,1.27,1.27,0,0,0,1-.43A1.57,1.57,0,0,0,163.23,81.93Z" fill="#231f20"/><path d="M172.11,80.86a.84.84,0,0,1-.55.15,5.49,5.49,0,0,1-1.25-.27,5.88,5.88,0,0,0-1.63-.27,3.36,3.36,0,0,0-2.59,1,3.15,3.15,0,0,0-.91,2.24,3.53,3.53,0,0,0,.42,1.66A24.56,24.56,0,0,0,167,87.53l1.21,1.79a3.54,3.54,0,0,1,.39.75,3.07,3.07,0,0,1,.15,1.05,2.27,2.27,0,0,1-.61,1.66,2,2,0,0,1-1.49.63,2.56,2.56,0,0,1-2.39-1.5,9,9,0,0,1-.76-2.59H163l-.58,4.77h.48a1.39,1.39,0,0,1,.26-.39.58.58,0,0,1,.43-.13,10.59,10.59,0,0,1,1.28.25,8.92,8.92,0,0,0,1.71.25,5,5,0,0,0,3.2-1.08,3.32,3.32,0,0,0,1.34-2.66,3.65,3.65,0,0,0-.34-1.58,12.84,12.84,0,0,0-1.14-1.88l-1-1.49a14.46,14.46,0,0,1-1-1.6,2.32,2.32,0,0,1-.22-1,1.41,1.41,0,0,1,.5-1.18,1.8,1.8,0,0,1,1.14-.4,2.33,2.33,0,0,1,2.22,1.33,6.81,6.81,0,0,1,.57,2.13h.48l.6-4.14h-.42A1.85,1.85,0,0,1,172.11,80.86Z" fill="#231f20"/><path d="M176.6,90.66a1.42,1.42,0,0,0-1.13.44,1.16,1.16,0,0,0-.38.75,2,2,0,0,0,.13.83,3.34,3.34,0,0,0,.67.83l.28.28a1,1,0,0,1,.2.3.94.94,0,0,1,.07.37,2.31,2.31,0,0,1-.86,1.52,14.19,14.19,0,0,1-1.38,1.09l.27.48.45-.25a9.29,9.29,0,0,0,2.29-1.83,3.88,3.88,0,0,0,1.13-2.69,2.36,2.36,0,0,0-.48-1.52A1.54,1.54,0,0,0,176.6,90.66Z" fill="#231f20"/><path d="M191.81,90.08l3.66-13.22a3.41,3.41,0,0,1,.82-1.7,3.67,3.67,0,0,1,1.63-.5v-.48h-7.4v.48a4.09,4.09,0,0,1,1.64.34,1,1,0,0,1,.47,1,3.69,3.69,0,0,1-.07.65c-.05.22-.14.59-.28,1.13L188.62,91a3.29,3.29,0,0,1-1,1.82,3,3,0,0,1-1.44.38v.48h7.33v-.48A4.27,4.27,0,0,1,192,92.9a1,1,0,0,1-.51-1,3.7,3.7,0,0,1,.08-.69A11.76,11.76,0,0,1,191.81,90.08Z" fill="#231f20"/><path d="M208,92.09a1.37,1.37,0,0,1-.84.44.34.34,0,0,1-.32-.17.77.77,0,0,1-.11-.4,2.44,2.44,0,0,1,.08-.44c.05-.21.09-.39.13-.53l1.92-7c.08-.29.14-.57.19-.82a3.68,3.68,0,0,0,.07-.73,1.82,1.82,0,0,0-.89-1.74,2.46,2.46,0,0,0-1.12-.24q-1.68,0-3.79,2.35a34.83,34.83,0,0,0-3,4.05l1.94-6.27a.29.29,0,0,0-.12-.13L199.5,81l-.86.17-1.34.22v.48l.37,0,.34,0a1.35,1.35,0,0,1,.94.24.9.9,0,0,1,.24.67,2.87,2.87,0,0,1-.05.52c0,.16-.16.62-.37,1.38l-2.5,9h2.24c.64-2.11,1.1-3.57,1.39-4.38a15.91,15.91,0,0,1,1.2-2.47,27.51,27.51,0,0,1,2-2.81c1.13-1.32,2.06-2,2.8-2a.65.65,0,0,1,.59.25,1,1,0,0,1,.17.61,3.51,3.51,0,0,1,0,.53,7.92,7.92,0,0,1-.2,1l-1.86,7.09a2.58,2.58,0,0,0-.09.48,3.2,3.2,0,0,0,0,.52,1.38,1.38,0,0,0,.45,1.19,1.58,1.58,0,0,0,.94.33,3.33,3.33,0,0,0,2.25-1.15,18.79,18.79,0,0,0,1.86-2.28l-.43-.38A15.18,15.18,0,0,1,208,92.09Z" fill="#231f20"/><path d="M219.73,80.5A7.94,7.94,0,0,0,214,83.27a8.62,8.62,0,0,0-2.7,6.1,4.65,4.65,0,0,0,1.21,3.4A4.24,4.24,0,0,0,215.63,94a6.2,6.2,0,0,0,3.72-1.21,10.69,10.69,0,0,0,2-2l-.42-.32-.11.12a8.55,8.55,0,0,1-1.94,1.65,4.09,4.09,0,0,1-2.19.65,2.47,2.47,0,0,1-2.1-.93,4.31,4.31,0,0,1-.7-2.59,10.18,10.18,0,0,1,1.73-5.61c1.16-1.78,2.51-2.67,4.08-2.67a1.94,1.94,0,0,1,1,.18.51.51,0,0,1,.29.45,1.86,1.86,0,0,1-.24.57,1.69,1.69,0,0,0-.24.81,1.09,1.09,0,0,0,.37.83,1.25,1.25,0,0,0,.9.34,1.41,1.41,0,0,0,1-.38,1.37,1.37,0,0,0,.4-1.06,2.28,2.28,0,0,0-.78-1.55A3.47,3.47,0,0,0,219.73,80.5Z" fill="#231f20"/><path d="M228.2,91.18a1.64,1.64,0,0,0-2.34,0,1.56,1.56,0,0,0-.49,1.17,1.63,1.63,0,0,0,.48,1.18,1.67,1.67,0,0,0,2.36,0,1.63,1.63,0,0,0,.48-1.18A1.56,1.56,0,0,0,228.2,91.18Z" fill="#231f20"/></svg>