<?xml version="1.0" encoding="UTF-8"?>
<svg id="Layer_1" data-name="Layer 1" xmlns="http://www.w3.org/2000/svg" viewBox="0 0 267.82 99.75">
  <defs>
    <style>
      .cls-1 {
        fill: #00b6c9;
      }

      .cls-2 {
        fill: #2d4245;
      }
    </style>
  </defs>
  <path class="cls-1" d="M52.22,40c.54,.13,1.06,.29,1.56,.5l4.07-12.53c.51,.22,1,.46,1.49,.71l3.78-11.63c-.46-.33-.94-.64-1.42-.94l4.36-13.41-1.56-.51-4.23,13.03c-.48-.29-.96-.58-1.45-.84l-4.05,12.47c.53,.15,1.04,.33,1.56,.51l-4.11,12.64Z"/>
  <path class="cls-1" d="M80.05,49.06c-.01-.55-.02-1.1-.05-1.64h-8c.06,.54,.09,1.09,.1,1.64h-12.11c.02,.27,.04,.54,.04,.82s-.02,.55-.04,.82h12.11c-.02,.55-.05,1.1-.1,1.64h8c.03-.54,.04-1.09,.05-1.64h19.7v-1.64h-19.7Z"/>
  <path class="cls-1" d="M50.7,60c-.27,.02-.54,.04-.82,.04-.28,0-.55-.02-.82-.04v13.81c-.3,.01-.59,.04-.9,.04-.25,0-.5-.01-.74-.02v15.6c.55-.1,1.1-.24,1.64-.37v10.7h1.64v-11.12c.55-.15,1.1-.3,1.64-.48v-14.68c-.54,.09-1.09,.16-1.64,.22v-13.7Z"/>
  <path class="cls-1" d="M47.53,59.75c-.54-.13-1.06-.29-1.56-.5l-4.44,13.65c-.53-.15-1.05-.31-1.56-.5l-5.64,17.36c.55,.08,1.11,.12,1.67,.17l-2.31,7.11,1.56,.51,2.44-7.5c.57,.03,1.13,.06,1.7,.07l5.38-16.54c-.55-.08-1.09-.18-1.63-.3l4.4-13.55Z"/>
  <path class="cls-1" d="M74.3,29.09l-7.64,5.55c.35,.42,.68,.86,.99,1.31l-10.07,7.32c.36,.41,.68,.86,.96,1.33l10.02-7.28c.29,.47,.57,.94,.82,1.43l7.22-5.24c-.23-.51-.48-1-.72-1.5l14.83-10.78-.96-1.33-14.63,10.63c-.26-.48-.52-.97-.81-1.44"/>
  <path class="cls-1" d="M61.37,29.88c.46,.3,.89,.64,1.32,.97l-7.52,10.36c.47,.29,.91,.61,1.33,.96l7.46-10.28c.41,.36,.83,.72,1.22,1.11l6.05-8.32c-.35-.44-.73-.86-1.1-1.28l9.73-13.39-1.33-.97-9.53,13.12c-.38-.4-.76-.81-1.16-1.2l-6.47,8.91Z"/>
  <path class="cls-1" d="M78.31,38.05l-8.03,2.61c.21,.5,.4,1.02,.57,1.54l-11.6,3.77c.21,.5,.37,1.03,.5,1.56l11.57-3.76c.14,.53,.27,1.06,.37,1.61l7.76-2.52c-.09-.54-.22-1.08-.33-1.62l18.44-5.99-.51-1.56-18.31,5.95c-.14-.53-.27-1.06-.43-1.59"/>
  <path class="cls-1" d="M49.06,25.95v13.81c.27-.02,.54-.04,.82-.04s.55,.02,.82,.04v-13.7c.55,.06,1.1,.12,1.64,.22V11.6c-.54-.18-1.09-.33-1.64-.48V0h-1.64V10.7c-.54-.13-1.09-.26-1.64-.37v15.6c.24,0,.49-.02,.74-.02,.3,0,.6,.03,.9,.04"/>
  <path class="cls-1" d="M34.33,9.98l5.64,17.36c.51-.19,1.03-.35,1.56-.5l4.44,13.65c.5-.21,1.02-.37,1.56-.5l-4.4-13.55c.54-.11,1.08-.22,1.63-.29l-5.37-16.54c-.57,0-1.14,.04-1.7,.07l-2.44-7.5-1.56,.51,2.31,7.11c-.56,.05-1.12,.1-1.67,.17"/>
  <path class="cls-1" d="M9.39,23.5l18.57,13.49c.3-.46,.63-.9,.95-1.34l12.3,8.94c.29-.47,.61-.91,.96-1.33l-12.24-8.9c.36-.42,.71-.84,1.09-1.24L12.86,19.95c-.41,.37-.8,.76-1.2,1.15l-1.66-1.2-.96,1.33,1.46,1.06c-.38,.4-.76,.8-1.12,1.21"/>
  <path class="cls-1" d="M71.22,75.07l-6.04-8.32c-.39,.39-.81,.75-1.22,1.11l-7.47-10.28c-.41,.36-.86,.68-1.33,.96l7.52,10.36c-.43,.33-.86,.67-1.32,.97l6.47,8.91c.4-.39,.78-.79,1.16-1.2l9.53,13.12,1.33-.96-9.73-13.39c.37-.42,.74-.84,1.1-1.28"/>
  <path class="cls-1" d="M31.01,66.62c-.38-.39-.73-.82-1.09-1.24l12.24-8.9c-.36-.42-.68-.86-.96-1.33l-12.3,8.94c-.33-.44-.66-.87-.95-1.34l-18.57,13.49c.36,.42,.74,.81,1.12,1.22l-1.46,1.06,.96,1.33,1.66-1.2c.4,.39,.79,.78,1.2,1.15l18.15-13.19Z"/>
  <path class="cls-1" d="M63.13,82.7l-3.78-11.63c-.48,.26-.99,.49-1.49,.72l-4.07-12.53c-.5,.21-1.03,.37-1.56,.5l4.11,12.65c-.51,.19-1.03,.36-1.56,.51l4.05,12.47c.49-.27,.97-.56,1.45-.84l4.23,13.02,1.56-.51-4.36-13.41c.47-.31,.95-.62,1.42-.94"/>
  <path class="cls-1" d="M76.6,66.25l-7.22-5.24c-.26,.49-.53,.96-.82,1.43l-10.02-7.28c-.29,.47-.61,.92-.96,1.33l10.07,7.32c-.32,.45-.64,.89-.99,1.31l7.64,5.55c.29-.47,.54-.96,.81-1.44l14.63,10.63,.96-1.33-14.83-10.78c.25-.5,.5-.99,.72-1.5"/>
  <path class="cls-1" d="M79.46,56.9l-7.76-2.52c-.1,.54-.23,1.07-.37,1.6l-11.57-3.76c-.13,.54-.29,1.06-.5,1.56l11.6,3.77c-.18,.52-.36,1.03-.57,1.54l8.03,2.61c.16-.52,.29-1.06,.43-1.59l18.31,5.95,.51-1.56-18.44-5.99c.12-.54,.24-1.07,.33-1.62"/>
  <path class="cls-1" d="M20.97,14.28l12.25,16.86c.43-.34,.87-.66,1.32-.97l8.72,12.01c.41-.36,.86-.68,1.33-.96l-8.67-11.93c.47-.28,.95-.55,1.45-.8L25.55,12.21c-.53,.2-1.04,.43-1.56,.65l-2.77-3.81-1.33,.97,2.57,3.54c-.5,.24-1,.47-1.49,.73"/>
  <path class="cls-1" d="M24.21,50.7h15.55c-.02-.27-.04-.54-.04-.82s.02-.55,.04-.82h-15.55c.02-.55,.05-1.1,.1-1.64H0v4.92H24.31c-.06-.54-.09-1.09-.1-1.64"/>
  <path class="cls-1" d="M25.28,42.75l14.72,4.78c.13-.54,.29-1.06,.5-1.56l-14.68-4.77c.2-.51,.41-1.02,.64-1.52L3.59,32.25c-.72,1.47-1.34,3-1.88,4.56l23.13,7.52c.13-.54,.28-1.06,.44-1.58"/>
  <path class="cls-1" d="M37.37,71.28c-.49-.25-.97-.52-1.44-.8l8.67-11.93c-.47-.29-.92-.61-1.33-.96l-8.72,12.01c-.45-.31-.89-.63-1.32-.97l-12.25,16.86c.49,.26,.99,.5,1.49,.73l-2.57,3.53,1.33,.97,2.77-3.81c.52,.22,1.03,.45,1.56,.65l11.82-16.27Z"/>
  <path class="cls-1" d="M25.82,58.55l14.68-4.77c-.21-.5-.37-1.02-.5-1.56l-14.72,4.78c-.16-.52-.31-1.05-.44-1.58L1.71,62.94c.54,1.57,1.16,3.09,1.88,4.56l22.87-7.43c-.23-.5-.44-1-.64-1.52"/>
  <g>
    <polygon class="cls-2" points="211.13 9.07 211.13 15.14 219.88 15.14 219.88 11.36 219.88 9.07 211.13 9.07"/>
    <path class="cls-2" d="M245.32,40.59h0c.63-.94,.95-2.14,.95-3.57,0-.81-.08-1.59-.25-2.32-.16-.69-.47-1.34-.9-1.92-.44-.59-1.05-1.14-1.82-1.65-.78-.51-1.8-.98-3.04-1.39-.84-.28-1.64-.52-2.38-.71-.76-.2-1.44-.4-2.02-.6-.63-.21-1.14-.48-1.53-.78-.47-.37-.71-.86-.71-1.46,0-1.35,1.12-2.03,3.32-2.03,1.21,0,2.39,.23,3.5,.68,.9,.37,1.78,.79,2.62,1.26l2.56-4.72c-1.3-.8-2.69-1.43-4.14-1.87-1.61-.48-3.44-.73-5.45-.73-1.55,0-2.98,.2-4.27,.59-1.27,.39-2.37,.93-3.27,1.6-.88,.67-1.57,1.45-2.05,2.33-.47,.87-.71,1.8-.71,2.78s.17,1.87,.52,2.62c.34,.75,.83,1.41,1.45,1.97,.64,.57,1.41,1.08,2.29,1.5,.89,.43,1.9,.81,2.98,1.12,2.01,.62,3.38,1.1,4.17,1.45,.98,.43,1.47,1.05,1.47,1.85,0,1.36-.85,1.84-1.36,2.01-.71,.23-1.57,.35-2.55,.35-.53,0-1.15-.07-1.84-.2-.68-.13-1.37-.3-2.05-.53-.69-.22-1.36-.5-1.98-.81-.44-.22-.83-.45-1.19-.7l-3.28,4.87c1.21,.94,2.76,1.68,4.61,2.19,3.53,.98,6.88,1.13,10.27,.47,1.31-.25,2.51-.69,3.56-1.3,1.03-.6,1.89-1.39,2.53-2.36"/>
    <polygon class="cls-2" points="211.51 19.64 211.51 43.78 219.51 43.78 219.51 38.5 219.51 19.64 211.51 19.64"/>
    <polygon class="cls-2" points="198.1 19.64 192.95 35.88 187.4 19.64 178.72 19.64 188.89 43.78 196.29 43.78 206.77 19.64 198.1 19.64"/>
    <path class="cls-2" d="M154.29,43.19c.73,.53,1.53,.91,2.39,1.12,.88,.22,1.72,.33,2.5,.33,1.64,0,3.02-.22,4.12-.66,1.08-.43,2.18-1.24,3.27-2.39l.77-.81,.41,3.01h7.53v-14.7c0-1.71-.27-3.22-.82-4.49-.54-1.26-1.3-2.33-2.28-3.19-.98-.86-2.16-1.51-3.51-1.93-1.37-.43-2.93-.65-4.62-.65-2.93,0-5.35,.35-7.22,1.04-1.65,.61-2.98,1.28-3.97,1.99l2.86,4.34c.72-.44,1.6-.84,2.63-1.19,1.27-.43,2.75-.64,4.41-.64,.49,0,1,.05,1.52,.14,.54,.1,1.04,.28,1.51,.54,.48,.27,.89,.66,1.2,1.14,.33,.5,.49,1.13,.49,1.87v1.08l-.59-.07c-.59-.07-1.13-.12-1.61-.16-.47-.03-1.12-.05-1.92-.05-1.55,0-3.06,.19-4.47,.57-1.4,.38-2.64,.94-3.7,1.66-1.04,.72-1.86,1.63-2.46,2.72-.6,1.08-.9,2.33-.9,3.74s.23,2.58,.69,3.49c.46,.9,1.06,1.62,1.77,2.14m6.54-9.5c.81-.67,2.04-1.01,3.67-1.01,1.07,0,1.94,.08,2.59,.23l.41,.1v2.09c0,.83-.13,1.53-.4,2.1-.26,.57-.61,1.04-1.02,1.39-.42,.35-.9,.61-1.44,.75-.51,.14-1.02,.21-1.53,.21-2.28,0-3.54-1.18-3.54-3.32,0-.98,.43-1.84,1.27-2.53"/>
    <path class="cls-2" d="M146.27,34.15c.95-2.12,1.43-4.65,1.43-7.53,0-3.02-.47-5.68-1.41-7.89-.93-2.2-2.24-4.03-3.88-5.43-1.65-1.41-3.63-2.48-5.9-3.17-2.28-.7-4.8-1.05-7.49-1.05h-13.2V43.79h13.14c2.65,0,5.16-.36,7.46-1.08,2.28-.71,4.27-1.79,5.92-3.22,1.65-1.42,2.96-3.22,3.91-5.34m-10.02-.49c-1.8,1.87-4.35,2.82-7.6,2.82h-4.4V16.32h4.4c1.74,0,3.26,.25,4.54,.73,1.28,.49,2.37,1.19,3.22,2.09,.85,.89,1.5,1.97,1.92,3.2,.41,1.21,.62,2.58,.62,4.06,0,2.95-.91,5.4-2.69,7.26"/>
  </g>
  <g>
    <polygon class="cls-2" points="113.83 55.14 119.4 55.14 129.97 83.68 140.54 55.14 145.8 55.14 132.37 89.87 127.27 89.87 113.83 55.14"/>
    <path class="cls-2" d="M149.45,56.08h5.26v5.26h-5.26v-5.26Zm.31,9.58h4.69v24.21h-4.69v-24.21Z"/>
    <path class="cls-2" d="M162.67,83.78c.87,.87,1.91,1.56,3.12,2.08,1.22,.52,2.62,.78,4.22,.78s2.87-.25,3.91-.76c1.04-.5,1.56-1.29,1.56-2.37,0-.56-.11-1.03-.34-1.43-.23-.4-.61-.76-1.15-1.07-.54-.31-1.25-.6-2.13-.86-.89-.26-1.99-.55-3.31-.86-.94-.21-1.87-.49-2.78-.83-.92-.35-1.75-.81-2.47-1.38-.73-.57-1.32-1.27-1.77-2.08-.45-.82-.68-1.8-.68-2.94s.27-2.21,.81-3.1c.54-.89,1.26-1.63,2.16-2.24,.9-.61,1.92-1.07,3.05-1.38,1.13-.31,2.3-.47,3.52-.47,2.05,0,3.81,.27,5.29,.81,1.47,.54,2.77,1.29,3.88,2.27l-2.55,3.23c-.73-.66-1.64-1.21-2.73-1.67-1.09-.45-2.37-.68-3.83-.68s-2.69,.24-3.59,.73c-.9,.49-1.35,1.28-1.35,2.4,0,1.04,.6,1.81,1.8,2.32,1.2,.5,2.77,.98,4.71,1.43,1.15,.28,2.21,.6,3.2,.96,.99,.36,1.86,.83,2.6,1.41,.75,.57,1.34,1.28,1.77,2.11,.43,.83,.65,1.84,.65,3.02s-.28,2.28-.83,3.2c-.56,.92-1.3,1.69-2.24,2.32-.94,.63-2.01,1.09-3.23,1.41-1.21,.31-2.48,.47-3.8,.47-4.58,0-8.02-1.23-10.31-3.7l2.86-3.13Z"/>
    <path class="cls-2" d="M185.58,56.08h5.26v5.26h-5.26v-5.26Zm.31,9.58h4.69v24.21h-4.69v-24.21Z"/>
    <path class="cls-2" d="M208.91,90.6c-1.87,0-3.59-.34-5.15-1.02-1.56-.68-2.91-1.6-4.03-2.78-1.13-1.18-2.01-2.54-2.66-4.09-.64-1.54-.96-3.2-.96-4.97s.32-3.43,.96-4.97c.64-1.54,1.53-2.91,2.66-4.09,1.13-1.18,2.47-2.11,4.03-2.78,1.56-.68,3.28-1.02,5.15-1.02s3.54,.34,5.1,1.02c1.56,.68,2.92,1.6,4.06,2.78,1.14,1.18,2.04,2.54,2.68,4.09,.64,1.54,.96,3.2,.96,4.97s-.32,3.43-.96,4.97c-.64,1.54-1.54,2.91-2.68,4.09-1.15,1.18-2.5,2.11-4.06,2.78-1.56,.68-3.26,1.02-5.1,1.02m0-4.06c1.25,0,2.38-.25,3.38-.76,1.01-.5,1.86-1.16,2.55-1.98,.69-.82,1.22-1.75,1.59-2.81s.55-2.14,.55-3.25-.18-2.14-.55-3.2-.9-2-1.62-2.84c-.71-.83-1.56-1.5-2.55-2-.99-.5-2.11-.76-3.36-.76s-2.38,.25-3.38,.76c-1.01,.5-1.86,1.16-2.55,1.98-.69,.82-1.22,1.75-1.59,2.81-.36,1.06-.55,2.14-.55,3.25s.18,2.19,.55,3.23c.36,1.04,.9,1.98,1.61,2.81,.71,.83,1.56,1.5,2.55,2.01,.99,.5,2.11,.76,3.36,.76"/>
    <path class="cls-2" d="M227.03,89.87v-21.71c0-.8-.02-1.63-.05-2.5h4.48l.16,3.64c.31-.42,.7-.88,1.15-1.38,.45-.5,1.01-.97,1.67-1.38,.66-.42,1.43-.76,2.32-1.04,.89-.28,1.88-.42,2.99-.42,3.16,0,5.5,.92,7.03,2.76,1.53,1.84,2.29,4.34,2.29,7.5v14.53h-4.69v-14.16c0-2.26-.49-3.91-1.46-4.97-.97-1.06-2.34-1.59-4.11-1.59-1.35,0-2.48,.28-3.38,.83-.9,.56-1.62,1.28-2.16,2.16-.54,.89-.93,1.89-1.17,3.02-.24,1.13-.36,2.28-.36,3.46v11.25h-4.69Z"/>
    <polygon class="cls-2" points="257.45 84.6 255.31 84.6 255.31 83.54 260.79 83.54 260.79 84.6 258.65 84.6 258.65 89.87 257.45 89.87 257.45 84.6"/>
    <polygon class="cls-2" points="261.81 83.54 262.92 83.54 264.67 86.53 266.4 83.54 267.51 83.54 267.82 89.87 266.65 89.87 266.44 85.49 264.92 88.07 264.36 88.07 262.83 85.56 262.63 89.87 261.51 89.87 261.81 83.54"/>
  </g>
</svg>