<svg id="Layer_1" data-name="Layer 1" xmlns="http://www.w3.org/2000/svg" viewBox="0 0 490.55 54.91">
  <defs>
    <style>
      .cls-1 {fill: #fff;}
    </style>
  </defs>
  <title>reverse-text</title>
  <g>
    <path class="cls-1" d="M120.51,20.07C115.63,15.28,109,14,100.57,13.63c0,0-11.38.22-14.24.22V54.79c9.13,0,21.79.81,28.15-1.83C126.31,48,130.5,29.88,120.51,20.07ZM101.32,42.38V26.66C114.51,25.56,114.41,43.66,101.32,42.38Z"/>
    <path class="cls-1" d="M337.85,14.33h14.62c7.22,13.92,12.43,20.84,12.43,20.84V14.33c4.76,0,9.71.06,14.49.06,0,10.17,0,24.84,0,40.52H364.17c-2.48-4.2-7.25-12.59-11.75-19.38,0,3.38.06,14.5.05,19.38H337.85C337.73,49.4,338.05,24.51,337.85,14.33Z"/>
    <path class="cls-1" d="M41.58,0l24.3,41.21L57,54.79H7.87L0,41.62l17.53-27.8H32.61l.77,0L25.93,0Zm-8.4,14.72L18.1,41.21H48.83L33.45,14.16Z"/>
    <polygon class="cls-1" points="235.83 13.85 235.83 13.85 221.9 13.85 221.9 13.85 207.1 54.79 221.36 54.79 228.87 30.36 236.38 54.79 250.63 54.79 235.83 13.85"/>
    <polygon class="cls-1" points="436.27 13.85 436.27 13.85 422.34 13.85 422.34 13.85 407.54 54.79 421.8 54.79 429.31 30.36 436.81 54.79 451.07 54.79 436.27 13.85"/>
    <polygon class="cls-1" points="156.14 54.79 128.43 54.79 128.43 13.86 156.15 13.86 156.15 24.86 143.23 24.86 143.23 28.87 154.68 28.87 154.68 39.52 143.32 39.52 143.32 43.62 156.14 43.62 156.14 54.79"/>
    <path class="cls-1" d="M298.69,20.07c-4.88-4.79-11.52-6.12-19.94-6.43,0,0-11.38.22-14.24.22V54.79c9.13,0,21.79.81,28.15-1.83C304.49,48,308.68,29.88,298.69,20.07ZM279.49,42.38V26.66C292.69,25.56,292.59,43.66,279.49,42.38Z"/>
    <polygon class="cls-1" points="334.32 54.79 306.61 54.79 306.61 13.86 334.33 13.86 334.33 24.86 321.41 24.86 321.41 28.87 332.86 28.87 332.86 39.52 321.5 39.52 321.5 43.62 334.32 43.62 334.32 54.79"/>
    <polygon class="cls-1" points="159.6 54.78 159.6 13.84 174.36 13.84 174.36 41.53 186.83 41.53 186.83 54.78 159.6 54.78"/>
    <polygon class="cls-1" points="453.03 54.78 453.03 13.84 467.78 13.84 467.78 41.53 480.25 41.53 480.25 54.78 453.03 54.78"/>
    <polygon class="cls-1" points="182.29 27.05 182.29 13.86 213.44 13.86 213.44 27.05 205.46 27.05 205.46 54.8 190.11 54.8 190.11 27.05 182.29 27.05"/>
    <polygon class="cls-1" points="382.47 27.05 382.47 13.86 413.62 13.86 413.62 27.05 405.64 27.05 405.64 54.8 390.29 54.8 390.29 27.05 382.47 27.05"/>
    <path class="cls-1" d="M479.44,16.91A5.56,5.56,0,1,1,485,22.44,5.51,5.51,0,0,1,479.44,16.91Zm10.27,0A4.71,4.71,0,1,0,485,21.59,4.72,4.72,0,0,0,489.7,16.91Zm-2.07,3h-1l-1.81-2.79h-1V19.9h-.85V13.84h2.64c1.09,0,2.16.3,2.16,1.6s-.84,1.63-1.91,1.66Zm-2.83-3.64c.75,0,2.07.14,2.07-.82,0-.62-.82-.74-1.47-.74h-1.62v1.56Z"/>
  </g>
</svg>
