<svg xmlns="http://www.w3.org/2000/svg" width="153.264" height="67.09" viewBox="0 0 153.264 67.09">
  <path id="Union_1" data-name="Union 1" d="M-3388.21,970.587a3.991,3.991,0,0,1-.86-1,5.122,5.122,0,0,1-.57-1.44,16.471,16.471,0,0,1-.23-3.4V956.6h-3.2l.041-.36,6.82-6.73v3.8h5.829v3.29h-5.829v9c0,2.11.879,3.16,2.62,3.16a8.146,8.146,0,0,0,4.15-1.3v3.4a9.177,9.177,0,0,1-4.57,1.23l-.189,0A6.1,6.1,0,0,1-3388.21,970.587Zm22.141,1.44c-1.561,0-2.48-.61-2.76-1.84a8.005,8.005,0,0,1-4.95,1.8,4.363,4.363,0,0,1-3.2-1.269,4.359,4.359,0,0,1-1.282-3.191,4.537,4.537,0,0,1,1.25-3.12,8.553,8.553,0,0,1,3.55-2.17l4.67-1.6v-1q0-3.32-3.32-3.32c-2,0-3.93,1-5.81,3.081v-4a7.561,7.561,0,0,1,6.109-2.51,7,7,0,0,1,4.781,1.561,4.994,4.994,0,0,1,1.08,1.34,4.588,4.588,0,0,1,.609,1.66,23.773,23.773,0,0,1,.13,3.21v7.83c0,.63.22.94.64.94a4.482,4.482,0,0,0,2.07-1v2.22a12.094,12.094,0,0,1-2,1.09,4.167,4.167,0,0,1-1.528.29Zm-5.18-8.47a8.5,8.5,0,0,0-2.64,1.53,2.709,2.709,0,0,0,0,3.74,2.585,2.585,0,0,0,1.9.72,4.568,4.568,0,0,0,3.18-1.46v-5.47Zm-56.09,7.19a9.168,9.168,0,0,1-3-3.39,10.312,10.312,0,0,1-1.13-4.94,9.769,9.769,0,0,1,2.38-6.83,8,8,0,0,1,6.19-2.64,7.271,7.271,0,0,1,5.84,2.57,10.171,10.171,0,0,1,2.18,6.86l-.02.46h-12.95a6,6,0,0,0,1.77,4.25,5.866,5.866,0,0,0,4.22,1.56,11,11,0,0,0,6.649-2.28v3.56a12.043,12.043,0,0,1-3.33,1.6,13.9,13.9,0,0,1-3.87.481c-.132.006-.263.009-.395.009A8.733,8.733,0,0,1-3427.34,970.747Zm1.2-13.48a5.929,5.929,0,0,0-1.63,3.39h9.27a5.1,5.1,0,0,0-1.3-3.361,4.179,4.179,0,0,0-3.119-1.21q-.089,0-.178,0A4.5,4.5,0,0,0-3426.14,957.267Zm66.93,14.49v-28h3.639v28Zm-40-.03v-10.49a7.18,7.18,0,0,0-.861-4,3.3,3.3,0,0,0-2.879-1.211,5.251,5.251,0,0,0-4.39,2.58v13.12h-3.72v-18.42h3.75v2.35a7.31,7.31,0,0,1,5.55-2.71,6.16,6.16,0,0,1,3.2.89,5.787,5.787,0,0,1,2.25,2.45,11.552,11.552,0,0,1,.771,4.91v10.53Zm-61.59-27.97h9.43a19.934,19.934,0,0,1,9,1.72,12.994,12.994,0,0,1,5.28,5,14,14,0,0,1,2,7.25,13.782,13.782,0,0,1-8.9,12.892,14.58,14.58,0,0,1-2.908.829,38.812,38.812,0,0,1-5,.21l-8.9.03Zm4,24.33h5.13a20.663,20.663,0,0,0,4.66-.41,11.437,11.437,0,0,0,2.78-1,9.783,9.783,0,0,0,2.02-1.59,10.409,10.409,0,0,0,3-7.59,9.669,9.669,0,0,0-5.62-9.09,10.847,10.847,0,0,0-2.75-.9,27.531,27.531,0,0,0-4.21-.18h-5.01Zm70.411-34.367a15.821,15.821,0,0,1-6.76-1.38v-4.21a15.932,15.932,0,0,0,6.1,1.6c1.921,0,2.88-.47,2.88-1.4a1.359,1.359,0,0,0-.53-1,17.019,17.019,0,0,0-3.57-1.64,9.72,9.72,0,0,1-4.16-2.61,5.116,5.116,0,0,1-1.086-3.9,5.12,5.12,0,0,1,2.086-3.469,9.106,9.106,0,0,1,5.67-1.63,13.21,13.21,0,0,1,6.14,1.35v4.26a12.247,12.247,0,0,0-6.31-2.08c-1.43,0-2.14.481-2.14,1.461a1,1,0,0,0,.45.75,20.912,20.912,0,0,0,3.459,1.56,10.169,10.169,0,0,1,4.241,2.76,5.382,5.382,0,0,1,1.239,3.43,5.509,5.509,0,0,1-2,4.55,8.938,8.938,0,0,1-5.128,1.618Q-3386.1,933.738-3386.39,933.719Zm13.33-2.759a9.181,9.181,0,0,1-3-7.11,9,9,0,0,1,3.06-7.16,11.131,11.131,0,0,1,7.63-2.659,11.279,11.279,0,0,1,7.54,2.659,9,9,0,0,1,3.09,7.25,8.8,8.8,0,0,1-3.14,7.24,11.477,11.477,0,0,1-7.49,2.51c-.143.006-.286.008-.428.008A11,11,0,0,1-3373.06,930.96Zm4.5-11.76a7.941,7.941,0,0,0-1.15,4.65q0,6.319,4.34,6.32,4.281,0,4.271-6.44,0-6.149-4.271-6.15l-.129,0A3.7,3.7,0,0,0-3368.56,919.2Zm-57.561,11.69a10.111,10.111,0,0,1-2.53-7,10,10,0,0,1,2.57-7.07,8.657,8.657,0,0,1,6.6-2.75,11,11,0,0,1,4.919,1.2v-9.91h5.951v28h-5.951v-1.55a8,8,0,0,1-5.24,1.88l-.161,0A8.171,8.171,0,0,1-3426.12,930.89Zm4.75-11.28a6.8,6.8,0,0,0-1.25,4.379,6.54,6.54,0,0,0,1.24,4.181,4,4,0,0,0,3.3,1.52,5.169,5.169,0,0,0,3.52-1.541v-9a5.782,5.782,0,0,0-3.319-1.1c-.07,0-.14-.005-.209-.005A4.221,4.221,0,0,0-3421.37,919.61Zm-27.581,12.69a4.241,4.241,0,0,1-1.54-3.24,5.253,5.253,0,0,1,1.59-4q1.59-1.52,9.64-3.9.19-3.16-3.28-3.16a9.718,9.718,0,0,0-7,3.16v-4.82a15.212,15.212,0,0,1,8.19-2.309q8,0,8,5.76V928.4c0,.89.32,1.33,1,1.33a4.761,4.761,0,0,0,2.26-1.04v3.3a11.163,11.163,0,0,1-5.57,1.7c-1.86,0-3-.71-3.32-2.12a10.991,10.991,0,0,1-6.23,2.12l-.127,0A5.391,5.391,0,0,1-3448.95,932.3Zm5.65-6.26a2.548,2.548,0,0,0-1.11,2.12,2,2,0,0,0,.56,1.42,1.8,1.8,0,0,0,1.36.59,4.945,4.945,0,0,0,3.281-1.43v-4.58A16.526,16.526,0,0,0-3443.3,926.04Zm92.571,7.29v-18.9h5.919v2.69a7.871,7.871,0,0,1,6.151-3.09,6.8,6.8,0,0,1,4.909,1.89,7.067,7.067,0,0,1,2,5.389v12h-5.95v-11.5q0-3.8-2.94-3.79c-1.4,0-2.79,1-4.15,3.12v12.19Zm-52.871,0v-18.9h5.94v18.9Zm-81.4,0v-28h6l9.04,10.36,9-10.37h6.05v28h-7V915.87l-7.53,8.82h-1l-7.56-8.77v17.41Zm82.08-22.73a3.174,3.174,0,0,1-1-2.309,3.19,3.19,0,0,1,1-2.33,3.258,3.258,0,0,1,2.31-.959,3.256,3.256,0,0,1,2.309.959,3.186,3.186,0,0,1,1,2.33,3.175,3.175,0,0,1-1,2.309,3.234,3.234,0,0,1-2.309.968A3.239,3.239,0,0,1-3402.92,910.6Z" transform="translate(3485 -905)" fill="#005cb9"/>
</svg>
