<svg xmlns="http://www.w3.org/2000/svg" viewBox="0 0 289.22 51.39">
  <defs>
    <style>
      .cls-1 {
        fill: #231f20;
      }
    </style>
  </defs>
  <g>
    <path class="cls-1" d="M25.92,10.81c0,.08,.07,.13,.11,.06,4.15-6.2,12.78-6.13,15.46-5.7-1.03-.74-2.11-1.41-3.24-2-2.65,.14-11.91,1.3-12.33,7.64Z"/>
    <path class="cls-1" d="M22.71,18.08c-.37-.04-.72,.18-.84,.53-.27,.62,0,1.11-.44,1.4-.19,.13-.13,.51,.1,.51,1.65,.11,3.29-.34,4.64-1.29,.13-.08,.18-.25,.1-.38-.03-.06-.09-.11-.16-.13-1.09-.4-2.24-.62-3.4-.64Z"/>
    <path class="cls-1" d="M33.58,14.26h.14c.36,.06,.64,.15,.44-.15-1-1.44-2.94,.13-3.56,.76,.55,.27,1.07,.61,1.55,1,.21-.95,.95-1.69,1.43-1.61Z"/>
    <path class="cls-1" d="M38.81,17.65c4.74,1.78,9.17,4.31,13.12,7.49-.04-1.61-.23-3.22-.57-4.8-3.55-4.03-8.53-6.52-13.89-6.94-.42-.87-1.13-1.58-2-2,1.38-.32,2.8-.48,4.22-.48,1.92,.01,3.83,.31,5.66,.87,1.19,.35,2.78,.93,3,1-.91-1.53-1.97-2.96-3.16-4.27-15.37-3.54-16.78,5.38-16.78,5.38-.03,.09,.02,.19,.11,.22l.28,.06c.09,.02,.18,0,.24-.07,.3-.37,.63-.7,1-1,1.13-1.05,2.75-1.39,4.21-.88,1.33,.56,2.18,1.86,2.18,3.3-.02,1.38-.81,2.63-2.06,3.23h-.06l.17,.38c.3,.84,.45,1.73,.45,2.62-.03,1.92-.74,3.78-2,5.23,.08-.22,.18-.44,.28-.66,.29-.63,.46-1.31,.5-2,.01-1.47-.61-2.87-1.7-3.85,.75,2.43,0,9.82-5.88,9.72-.94-.03-1.88-.14-2.8-.33,0,0,.2,3.17-2,3.59-.66,.1-1.33,.14-2,.11-1.88-.03-3.71-.57-5.31-1.56-1.41-1-2-1.91-1.95-2.26,.07-2.39,.73-2.66,2-3,.7-.1,1.42-.03,2.09,.21,.08,.03,.17-.01,.21-.09,.01-.04,.01-.09,0-.13-.11-.4-.32-.77-.59-1.08-.31-.22-.68-.34-1.06-.32-.55,0-1,.31-1.55,.28-.85,0-1.12-.59-2-.61-.88-.02-.85,.49-1.33,.52-.28-.05-.47-.32-.43-.6,.29-.83,.77-1.58,1.41-2.18,1.17-.82,3.13-1.74,4.29-2.58,.45-.33,1-4.69,4.33-5.62,.23-.02,.46-.09,.66-.21-1.56-3.79,.06-8.14,3.71-10-2.11,1.56-2.93,4.33-2,6.79,.04,.03,.08,.03,.12,0,1.33-7.92,11-9,13.57-9.13C22.32-3.16,7.45,3.33,2.29,16.51c-5,12.76,.92,27.2,13.44,32.77,1.12,.47,2.27,.85,3.44,1.16l-.42-2.2c-1.17-6.14,1.94-12.29,7.57-15-1.16,1.97-1.76,4.22-1.76,6.51-.02,1.03,.17,2.04,.54,3,.55-2.88,2.05-5.48,4.26-7.41,1.29-1.33,2.63-2.51,4.2-4.32,1.17-1.41,2.09-3.01,2.7-4.74,.18-.47,.33-.96,.46-1.45,.07-.25,.14-.5,.2-.75s.12-.74,.18-.74c.08,.3,.12,.6,.13,.91,0,.25,0,.66,.07,.91,.14,2.52-.18,5.05-.92,7.46-.06,.19-.12,.37-.19,.55-1.21,3.15-2.93,6.07-5.09,8.66-1.89,2.3-2.95,5.17-3,8.14v1.42c1.49-.1,2.96-.33,4.41-.69,.14-.73,.58-2.15,.59-2.15,2.42-6.54,9.09-11.21,8.7-20.56l.17,.16c1.64,3.5,.56,10.7-.62,16.04-.22,1-.45,2-.66,2.88,1.59-1.07,3.05-2.32,4.35-3.73,1.71-3.07,2.53-6.55,2.38-10.06,0-6.34-3.25-12.24-8.61-15.63ZM10.42,31.5c-.12,.24-.27,.6-.39,.61-.12,.01-.32-.67-.43-1-.11-.33-.2-.56-.28-.84-.12-.45-.2-.91-.22-1.38-.07-.65,.06-1.31,.38-1.88,0,0,.32-.41,.5-.4,.8,.08,1,1.69,1,2.76-.06,.74-.25,1.46-.56,2.13Zm9.46,3.7h.04c-3.71,2.82-3.82,4.28-3.82,4.26-1.37-1.1-2.51-2.46-3.35-4-.15,.4-.22,.83-.2,1.26,0,.06,0,.17-.11,0-.16-.19-.29-.39-.41-.61-.33-.5-.58-1.06-.72-1.64-.07-.46-.11-.93-.11-1.4,.03-.63,.2-1.24,.51-1.79,.77,1.2,1.86,2.16,3.15,2.78,1.55,.76,3.28,1.08,5,.93,.06,0,.11,.03,.12,.09,0,.06-.04,.11-.1,.12Z"/>
  </g>
  <g>
    <polygon class="cls-1" points="155.53 30.11 155.53 21.18 149.97 21.18 149.97 30.11 149.97 39.23 161.11 39.23 161.11 37.06 155.53 37.06 155.53 30.11"/>
    <polygon class="cls-1" points="102.07 23.48 105.95 23.48 105.95 29.98 105.95 39.22 111.52 39.22 111.52 30.1 111.52 23.48 115.52 23.48 115.52 21.18 102.07 21.18 102.07 23.48"/>
    <path class="cls-1" d="M94.96,30.11v7.66c-1.57,.13-2.9-.25-2.9-1.69v-14.9h-5.21v13.93c-.13,1.55,.75,3.02,2.18,3.63,.6,.3,1.26,.46,1.93,.49h9.33V21.23h-5.33v8.88Z"/>
    <path class="cls-1" d="M144.29,21.19h-9.93v1.69h6.06c.46,.05,.87,.32,1.08,.73,.23,.53,.31,1.12,.24,1.69v2.21h-5.44c-1.59,.13-2.78,1.52-2.67,3.11v4.61c-.16,1.37,.45,2.72,1.58,3.51,.49,.35,1.09,.52,1.69,.49h10.2v-15.62c-.15-1.42-1.38-2.48-2.81-2.42Zm-2.55,16.58c-1.57,.13-2.54,0-2.66-1.69,0,0,0-2.6,.05-5,.05-1.46,1.26-1.85,2.61-1.87v8.56Z"/>
    <path class="cls-1" d="M125.42,30.11v7.65c-1.57,.13-2.9-.25-2.9-1.69v-14.89h-5.21v13.92c-.14,1.56,.74,3.03,2.18,3.64,.6,.29,1.26,.45,1.93,.48h9.33V21.22h-5.33v8.89Z"/>
    <path class="cls-1" d="M231.55,21.2h-18.45v18h5.57V22.89c1.57,0,2.66,.36,2.66,1.81v14.54h5.7V22.89c1.57,0,2.66,.36,2.66,1.81v14.54h5.69v-14.68c-.34-1.87-1.93-3.26-3.83-3.36Z"/>
    <path class="cls-1" d="M209.91,21.19c-.09-.3-.17-.62-.26-.92-.13-.56-.32-1.1-.55-1.63-1.93-4.72-5.94-6.9-11.38-6.9-5.94-.13-9.81,2.78-11.63,6.9-.22,.53-.41,1.07-.56,1.62v.2c-.23,1.04-.39,2.09-.48,3.15-.22,1.68-.26,3.39-.12,5.08,.07,.49,.14,1,.22,1.42,.15,1.01,.43,1.99,.81,2.94,.1,.23,.18,.49,.3,.73,1.11,2.22,2.95,3.98,5.21,5,2.02,.88,4.22,1.25,6.42,1.09,1.87,.04,3.73-.34,5.44-1.09,1.84-.81,3.47-2.02,4.77-3.55,.34-.45,.62-.94,.85-1.45,.46-1.18,.8-2.41,1-3.67,.08-.46,.15-.94,.22-1.41,.11-1.69,.11-3.39,0-5.08-.02-.82-.11-1.63-.26-2.43Zm-6.4,8.96l-.03-.04c.01,1.23-.11,2.46-.36,3.67-.6,2.66-2.06,4.6-5.44,4.6-3.64,0-5.21-1.82-5.82-4.6-.19-1.22-.3-2.44-.34-3.67v-6.5c0-1.18,0-2.3,.07-3.34,0-.55,.09-1.09,.17-1.63,.37-3.27,1.7-5.2,5.94-5.2,3.75,0,5.09,2.17,5.56,5.2,.09,.54,.15,1.08,.18,1.63,.07,1.06,.07,2.23,.07,3.46v6.42Z"/>
    <polygon class="cls-1" points="75.11 20.26 72.65 30.1 72.46 30.86 72.25 30.1 69.53 20.26 67.38 12.45 60.11 12.45 60.11 20.26 60.11 30.1 60.11 39.22 62.65 39.22 62.65 30.1 62.65 20.26 62.65 18.02 63.27 20.26 65.96 30.1 68.46 39.22 72.7 39.22 75.05 30.1 77.58 20.26 78.15 18.02 78.15 20.26 78.15 30.1 78.15 39.22 83.96 39.22 83.96 30.1 83.96 20.26 83.96 12.45 77.06 12.45 75.11 20.26"/>
    <path class="cls-1" d="M176.83,20.26c-.62,.88-1,1.52-1,1.52h-7.26c-1-.18-2.02-.14-3,.13-2.7,.78-3.51,2.75-4.11,4.12-.57,1.14-.43,2.51,.36,3.51,.18,.22,.39,.41,.63,.57,1.7,1.14,4.67,1,6.52,0,.12-.06,.23-.13,.34-.2,1.94-1.46,2.83-3.93,2.27-6.29-.04-.12-.07-.24-.09-.37h3.61c-.1,.11-.18,.24-.24,.37-.37,1-1.33,3.15-2.18,5.08-.18,.49-.4,.96-.65,1.42-.2,.38-.39,.72-.56,1-.61,1.08-1.76,3.56-4.48,4.47-2.42,.81-5.08-.68-5.08-.68l-.13,1.29c.43,.22,.61,.32,.81,.4,.41,.14,.83,.25,1.25,.33,2.87,.67,6.9-1.21,8.84-3.15,1.08-1.05,1.96-2.3,2.59-3.67,.22-.42,.44-.89,.68-1.41,.28-.59,.52-1.2,.72-1.82,.61-1.57,1.21-3.63,1.21-3.63h4.85l.37-1.46h-4.48c.14-.52,.32-1.02,.54-1.51,.26-.57,.58-1.12,.94-1.64,.58-1.1,1.77-1.72,3-1.58v-1.32c-1.69,.35-3.25,1.18-4.49,2.39-.65,.66-1.25,1.37-1.78,2.13Zm-8.88,6.85h.03c-.22,.56-.5,1.09-.85,1.58-.6,.85-1.31,1.33-2.18,1.09-.71-.19-1.09-.49-1.09-1.09,.07-.72,.28-1.41,.61-2.05,.26-.62,1.57-3,1.57-3,.26-.37,.65-.63,1.09-.73,1-.15,1.7,.13,1.82,.73,.24,1.05-.4,2.17-1,3.47Z"/>
    <path class="cls-1" d="M248.88,21.18h-9.93v1.7h6.06c.46,.05,.87,.31,1.09,.72,.23,.84,.31,1.71,.24,2.57v1.34h-5.45c-1.59,.13-2.78,1.52-2.66,3.11v4.6c-.15,1.37,.45,2.72,1.57,3.52,.5,.34,1.1,.51,1.7,.48h10.17v-15.62c-.14-1.42-1.37-2.48-2.79-2.42Zm-5.2,14.9v-5c0-1.46,1.26-1.85,2.62-1.88v8.53l.04,.04c-1.58,.12-2.54,0-2.66-1.69Z"/>
    <path class="cls-1" d="M282.36,21.16h-9.92v1.7h6.05c.46,.04,.87,.32,1.09,.73,.23,.84,.31,1.71,.24,2.57v1.34h-5.45c-1.59,.13-2.78,1.53-2.66,3.12v4.61c-.15,1.37,.45,2.72,1.57,3.52,.5,.34,1.1,.51,1.7,.48h10.17v-15.64c-.14-1.42-1.36-2.48-2.79-2.43Zm-5.2,14.92s0-2.61,.05-5c0-1.47,1.25-1.86,2.61-1.88v8.57h0c-1.58,.13-2.54,0-2.66-1.69Z"/>
    <polygon class="cls-1" points="263.17 23.61 263.17 26.79 263.17 27.51 260.21 27.51 260.21 26.79 260.21 23.61 260.21 21.18 254.56 21.18 254.56 23.61 254.56 26.79 254.56 28.2 254.56 33.78 254.56 38.74 254.56 39.23 260.21 39.23 260.21 38.74 260.21 33.78 260.21 29.69 263.17 29.69 263.17 33.78 263.17 38.74 263.17 39.23 268.84 39.23 268.84 38.74 268.84 33.78 268.84 28.2 268.84 26.79 268.84 23.61 268.84 21.18 263.17 21.18 263.17 23.61"/>
    <path class="cls-1" d="M288.12,21.16h-.02v.03c-.62,0-1.12,.5-1.12,1.12,0,.62,.5,1.12,1.12,1.12,.61,0,1.1-.48,1.12-1.09,.02-.63-.47-1.16-1.1-1.18Zm-.02,2.03h0c-.5,0-.91-.4-.92-.9,0-.5,.4-.91,.9-.92,.5,0,.91,.4,.92,.9s-.4,.91-.9,.92Z"/>
    <path class="cls-1" d="M288.31,22.47l-.09-.11c.19,0,.34-.15,.34-.34,0-.1-.04-.2-.12-.26-.1-.07-.21-.1-.33-.09h-.4v1.24h.2v-.57h.13l.24,.37,.11,.18,.24,.02-.2-.28-.12-.16Zm-.27-.23h-.13v-.43h.36c.08,.03,.13,.11,.13,.19l-.04,.02c0,.06-.02,.12-.07,.16-.05,.05-.12,.06-.25,.06Z"/>
  </g>
</svg>
