<svg xmlns="http://www.w3.org/2000/svg" viewBox="0 0 229.11 158.35">
  <defs>
    <style>
      .cls-1 {
        fill: #fff;
      }
    </style>
  </defs>
  <g>
    <path class="cls-1" d="M111.28,25.26c0,.19,.17,.31,.26,.14,9.9-14.8,30.5-14.63,36.89-13.6-2.46-1.77-5.05-3.37-7.73-4.77-6.32,.33-28.42,3.1-29.43,18.23Z"/>
    <path class="cls-1" d="M103.62,42.61c-.88-.09-1.71,.43-2,1.26-.64,1.48,0,2.65-1.05,3.34-.45,.31-.31,1.22,.24,1.22,3.93,.27,7.84-.82,11.07-3.08,.31-.19,.42-.59,.24-.91-.08-.15-.22-.26-.38-.31-2.6-.96-5.34-1.47-8.11-1.53Z"/>
    <path class="cls-1" d="M129.56,33.49h.33c.86,.14,1.53,.36,1.05-.36-2.39-3.44-7.02,.31-8.5,1.81,1.32,.65,2.56,1.45,3.7,2.39,.5-2.27,2.27-4.03,3.41-3.84Z"/>
    <path class="cls-1" d="M142.04,41.58c11.32,4.25,21.89,10.29,31.31,17.87-.1-3.85-.55-7.69-1.36-11.46-8.48-9.62-20.37-15.56-33.15-16.56-1.01-2.08-2.69-3.76-4.77-4.77,3.3-.76,6.68-1.15,10.07-1.15,4.58,.03,9.13,.73,13.51,2.08,2.84,.84,6.63,2.22,7.16,2.39-2.17-3.64-4.69-7.05-7.54-10.19-36.68-8.45-40.04,12.84-40.04,12.84-.06,.22,.05,.45,.26,.52l.67,.14c.21,.05,.42-.02,.57-.17,.71-.88,1.51-1.68,2.39-2.39,2.7-2.51,6.57-3.31,10.05-2.1,3.16,1.34,5.21,4.44,5.2,7.88-.04,3.3-1.94,6.28-4.92,7.71h-.14l.41,.91c.71,2.01,1.08,4.12,1.07,6.25-.07,4.59-1.76,9.01-4.77,12.48,.2-.54,.42-1.06,.67-1.58,.7-1.5,1.1-3.12,1.19-4.77,.02-3.5-1.45-6.85-4.06-9.19,1.79,5.8,0,23.43-14.03,23.2-2.25-.07-4.48-.33-6.68-.79,0,0,.48,7.57-4.77,8.57-1.58,.24-3.18,.33-4.77,.26-4.48-.07-8.86-1.36-12.67-3.72-3.36-2.39-4.77-4.56-4.65-5.39,.17-5.7,1.74-6.35,4.77-7.16,1.68-.24,3.39-.07,4.99,.5,.2,.07,.41-.02,.5-.21,.03-.1,.03-.21,0-.31-.27-.95-.75-1.83-1.41-2.58-.73-.53-1.62-.8-2.53-.76-1.31,0-2.39,.74-3.7,.67-2.03,0-2.67-1.41-4.77-1.46s-2.03,1.17-3.17,1.24c-.67-.12-1.13-.76-1.03-1.43,.69-1.98,1.84-3.77,3.36-5.2,2.79-1.96,7.47-4.15,10.24-6.16,1.07-.79,2.39-11.19,10.33-13.41,.56-.05,1.09-.22,1.58-.5-3.71-9.05,.14-19.43,8.85-23.86-5.04,3.72-6.99,10.34-4.77,16.2,.08,.06,.2,.06,.29,0,3.17-18.9,26.25-21.48,32.38-21.79-31.45-12.33-66.94,3.18-79.27,34.63-11.93,30.45,2.2,64.91,32.09,78.2,2.67,1.11,5.41,2.04,8.21,2.77l-1-5.25c-2.79-14.65,4.62-29.34,18.07-35.8-2.76,4.71-4.21,10.08-4.2,15.54-.04,2.45,.4,4.88,1.29,7.16,1.32-6.86,4.9-13.09,10.17-17.68,3.08-3.17,6.28-5.99,10.02-10.31,2.8-3.36,4.98-7.19,6.44-11.31,.43-1.13,.79-2.29,1.1-3.46,.17-.6,.33-1.19,.48-1.79s.29-1.77,.43-1.77c.19,.71,.29,1.44,.31,2.17,0,.6,0,1.58,.17,2.17,.32,6.02-.42,12.04-2.2,17.8-.14,.45-.29,.88-.45,1.31-2.89,7.51-6.99,14.49-12.15,20.67-4.51,5.48-7.03,12.33-7.16,19.43v3.39c3.55-.24,7.07-.79,10.52-1.65,.33-1.74,1.38-5.13,1.41-5.13,5.78-15.61,21.69-26.75,20.76-49.07l.4,.38c3.93,8.35,1.33,25.53-1.47,38.28-.53,2.39-1.07,4.77-1.58,6.87,3.8-2.55,7.28-5.54,10.38-8.9,4.08-7.32,6.04-15.63,5.68-24.01,0-15.13-7.76-29.21-20.55-37.3Zm-67.75,33.05c-.29,.57-.64,1.43-.93,1.46-.29,.02-.76-1.6-1.03-2.39-.26-.79-.48-1.34-.67-2-.29-1.08-.47-2.18-.52-3.29-.17-1.55,.15-3.12,.91-4.49,0,0,.76-.98,1.19-.95,1.91,.19,2.39,4.03,2.39,6.59-.14,1.76-.6,3.48-1.34,5.08Zm22.58,8.83h.1c-8.85,6.73-9.12,10.21-9.12,10.17-3.27-2.62-5.99-5.87-7.99-9.55-.36,.96-.52,1.98-.48,3.01,0,.14,0,.41-.26,0-.37-.45-.7-.94-.98-1.46-.79-1.2-1.37-2.52-1.72-3.91-.17-1.11-.26-2.22-.26-3.34,.06-1.5,.48-2.96,1.22-4.27,1.84,2.87,4.45,5.16,7.52,6.63,3.7,1.81,7.83,2.58,11.93,2.22,.14-.01,.26,.08,.29,.21,0,.14-.1,.26-.24,.29Z"/>
  </g>
  <g>
    <polygon class="cls-1" points="95.42 148.56 95.42 139.63 89.86 139.63 89.86 148.56 89.86 157.68 101 157.68 101 155.51 95.42 155.51 95.42 148.56"/>
    <polygon class="cls-1" points="41.96 141.93 45.84 141.93 45.84 148.43 45.84 157.67 51.41 157.67 51.41 148.55 51.41 141.93 55.41 141.93 55.41 139.63 41.96 139.63 41.96 141.93"/>
    <path class="cls-1" d="M34.85,148.56v7.66c-1.57,.13-2.9-.25-2.9-1.69v-14.9h-5.21v13.93c-.13,1.55,.75,3.02,2.18,3.63,.6,.3,1.26,.46,1.93,.49h9.33v-18h-5.33v8.88Z"/>
    <path class="cls-1" d="M84.18,139.64h-9.93v1.69h6.06c.46,.05,.87,.32,1.08,.73,.23,.53,.31,1.12,.24,1.69v2.21h-5.44c-1.59,.13-2.78,1.52-2.67,3.11v4.61c-.16,1.37,.45,2.72,1.58,3.51,.49,.35,1.09,.52,1.69,.49h10.2v-15.62c-.15-1.42-1.38-2.48-2.81-2.42Zm-2.55,16.58c-1.57,.13-2.54,0-2.66-1.69,0,0,0-2.6,.05-5,.05-1.46,1.26-1.85,2.61-1.87v8.56Z"/>
    <path class="cls-1" d="M65.31,148.56v7.65c-1.57,.13-2.9-.25-2.9-1.69v-14.89h-5.21v13.92c-.14,1.56,.74,3.03,2.18,3.64,.6,.29,1.26,.45,1.93,.48h9.33v-18h-5.33v8.89Z"/>
    <path class="cls-1" d="M171.44,139.65h-18.45v18h5.57v-16.31c1.57,0,2.66,.36,2.66,1.81v14.54h5.7v-16.35c1.57,0,2.66,.36,2.66,1.81v14.54h5.69v-14.68c-.34-1.87-1.93-3.26-3.83-3.36Z"/>
    <path class="cls-1" d="M149.8,139.64c-.09-.3-.17-.62-.26-.92-.13-.56-.32-1.1-.55-1.63-1.93-4.72-5.94-6.9-11.38-6.9-5.94-.13-9.81,2.78-11.63,6.9-.22,.53-.41,1.07-.56,1.62v.2c-.23,1.04-.39,2.09-.48,3.15-.22,1.68-.26,3.39-.12,5.08,.07,.49,.14,1,.22,1.42,.15,1.01,.43,1.99,.81,2.94,.1,.23,.18,.49,.3,.73,1.11,2.22,2.95,3.98,5.21,5,2.02,.88,4.22,1.25,6.42,1.09,1.87,.04,3.73-.34,5.44-1.09,1.84-.81,3.47-2.02,4.77-3.55,.34-.45,.62-.94,.85-1.45,.46-1.18,.8-2.41,1-3.67,.08-.46,.15-.94,.22-1.41,.11-1.69,.11-3.39,0-5.08-.02-.82-.11-1.63-.26-2.43Zm-6.4,8.96l-.03-.04c.01,1.23-.11,2.46-.36,3.67-.6,2.66-2.06,4.6-5.44,4.6-3.64,0-5.21-1.82-5.82-4.6-.19-1.22-.3-2.44-.34-3.67v-6.5c0-1.18,0-2.3,.07-3.34,0-.55,.09-1.09,.17-1.63,.37-3.27,1.7-5.2,5.94-5.2,3.75,0,5.09,2.17,5.56,5.2,.09,.54,.15,1.08,.18,1.63,.07,1.06,.07,2.23,.07,3.46v6.42Z"/>
    <polygon class="cls-1" points="15 138.71 12.54 148.55 12.35 149.31 12.14 148.55 9.42 138.71 7.27 130.9 0 130.9 0 138.71 0 148.55 0 157.67 2.54 157.67 2.54 148.55 2.54 138.71 2.54 136.47 3.16 138.71 5.85 148.55 8.35 157.67 12.59 157.67 14.94 148.55 17.47 138.71 18.04 136.47 18.04 138.71 18.04 148.55 18.04 157.67 23.85 157.67 23.85 148.55 23.85 138.71 23.85 130.9 16.95 130.9 15 138.71"/>
    <path class="cls-1" d="M116.72,138.71c-.62,.88-1,1.52-1,1.52h-7.26c-1-.18-2.02-.14-3,.13-2.7,.78-3.51,2.75-4.11,4.12-.57,1.14-.43,2.51,.36,3.51,.18,.22,.39,.41,.63,.57,1.7,1.14,4.67,1,6.52,0,.12-.06,.23-.13,.34-.2,1.94-1.46,2.83-3.93,2.27-6.29-.04-.12-.07-.24-.09-.37h3.61c-.1,.11-.18,.24-.24,.37-.37,1-1.33,3.15-2.18,5.08-.18,.49-.4,.96-.65,1.42-.2,.38-.39,.72-.56,1-.61,1.08-1.76,3.56-4.48,4.47-2.42,.81-5.08-.68-5.08-.68l-.13,1.29c.43,.22,.61,.32,.81,.4,.41,.14,.83,.25,1.25,.33,2.87,.67,6.9-1.21,8.84-3.15,1.08-1.05,1.96-2.3,2.59-3.67,.22-.42,.44-.89,.68-1.41,.28-.59,.52-1.2,.72-1.82,.61-1.57,1.21-3.63,1.21-3.63h4.85l.37-1.46h-4.48c.14-.52,.32-1.02,.54-1.51,.26-.57,.58-1.12,.94-1.64,.58-1.1,1.77-1.72,3-1.58v-1.32c-1.69,.35-3.25,1.18-4.49,2.39-.65,.66-1.25,1.37-1.78,2.13Zm-8.88,6.85h.03c-.22,.56-.5,1.09-.85,1.58-.6,.85-1.31,1.33-2.18,1.09-.71-.19-1.09-.49-1.09-1.09,.07-.72,.28-1.41,.61-2.05,.26-.62,1.57-3,1.57-3,.26-.37,.65-.63,1.09-.73,1-.15,1.7,.13,1.82,.73,.24,1.05-.4,2.17-1,3.47Z"/>
    <path class="cls-1" d="M188.77,139.63h-9.93v1.7h6.06c.46,.05,.87,.31,1.09,.72,.23,.84,.31,1.71,.24,2.57v1.34h-5.45c-1.59,.13-2.78,1.52-2.66,3.11v4.6c-.15,1.37,.45,2.72,1.57,3.52,.5,.34,1.1,.51,1.7,.48h10.17v-15.62c-.14-1.42-1.37-2.48-2.79-2.42Zm-5.2,14.9v-5c0-1.46,1.26-1.85,2.62-1.88v8.53l.04,.04c-1.58,.12-2.54,0-2.66-1.69Z"/>
    <path class="cls-1" d="M222.25,139.61h-9.92v1.7h6.05c.46,.04,.87,.32,1.09,.73,.23,.84,.31,1.71,.24,2.57v1.34h-5.45c-1.59,.13-2.78,1.53-2.66,3.12v4.61c-.15,1.37,.45,2.72,1.57,3.52,.5,.34,1.1,.51,1.7,.48h10.17v-15.64c-.14-1.42-1.36-2.48-2.79-2.43Zm-2.54,16.61c-1.58,.13-2.54,0-2.66-1.69,0,0,0-2.61,.05-5,0-1.47,1.25-1.86,2.61-1.88v8.57Z"/>
    <polygon class="cls-1" points="203.06 142.06 203.06 145.24 203.06 145.96 200.1 145.96 200.1 145.24 200.1 142.06 200.1 139.63 194.45 139.63 194.45 142.06 194.45 145.24 194.45 146.65 194.45 152.23 194.45 157.19 194.45 157.68 200.1 157.68 200.1 157.19 200.1 152.23 200.1 148.14 203.06 148.14 203.06 152.23 203.06 157.19 203.06 157.68 208.73 157.68 208.73 157.19 208.73 152.23 208.73 146.65 208.73 145.24 208.73 142.06 208.73 139.63 203.06 139.63 203.06 142.06"/>
    <path class="cls-1" d="M228.01,139.61h-.02v.03c-.62,0-1.12,.5-1.12,1.12,0,.62,.5,1.12,1.12,1.12,.61,0,1.1-.48,1.12-1.09,.02-.63-.47-1.16-1.1-1.18Zm-.02,2.03h0c-.5,0-.91-.4-.92-.9s.4-.91,.9-.92c.5,0,.91,.4,.92,.9,0,.5-.4,.91-.9,.92Z"/>
    <path class="cls-1" d="M228.2,140.92l-.09-.11c.19,0,.34-.15,.34-.34,0-.1-.04-.2-.12-.26-.1-.07-.21-.1-.33-.09h-.4v1.24h.2v-.57h.13l.24,.37,.11,.18,.24,.02-.2-.28-.12-.16Zm-.4-.23v-.43h.36c.08,.03,.13,.11,.13,.19l-.04,.02c0,.06-.02,.12-.07,.16-.05,.05-.12,.06-.25,.06h-.13Z"/>
  </g>
</svg>
