<svg xmlns="http://www.w3.org/2000/svg" viewBox="0 0 119.29 133.83"><title>nationwide_color-square</title><path d="M73.75,80.22H91.33v-58H75.24V58.35l-4.66-4.57V25C70.49,8,72.51,0,72.51,0c-5.44,0-8.27,5.16-8.9,6.68-3.06.34-5.56,2.1-7.24,5.53a19.31,19.31,0,0,0-1.59,4.73c-6.44,1.49-7,13-6.58,15l-10-9.76H20.66v58H36.75V45.16l7.77,7.36a10.1,10.1,0,0,0,1.4,3l-3.06-2.61c-.55,5.69,1,8.61,2.54,10.76l-3.71-3.14a13,13,0,0,0,4.11,10.6l-4.91-2.4C40.56,72.07,44,77,45.92,78l-4.14-.62a9.09,9.09,0,0,0,4.14,6.34s-7.07-.15-10.33-.15a115.59,115.59,0,0,0-15,.86s4,4,9.12,4.17l-4.56,2.81a16.77,16.77,0,0,0,6.46.7L29,95.24s8.28-3.18,11.78-2.94c2.79.19,15.78,5.26,24.51,5.26,5.86,0,10.1-2.24,13.51-4a18.81,18.81,0,0,1,5.64-2.26c3.16-.49,4.59.66,4.59.66.32-1.33,1.3-4.69-3.83-5.51a3.11,3.11,0,0,0-2.42-2.31c-2.75-.42-14.35-1.31-14.69-1.33-1-.06-4.34-.7-1.26-5.11.23-.33,1.78-2.29,1.78-2.29Zm-.41,4.33c3.81.3,6.51.55,9.23.89,1,.13,1.43,1.32,1.57,1.88a20.54,20.54,0,0,0-3.36-.41l-.11,1.23a15.83,15.83,0,0,1,3.68-.52s4,0,3.77,2.65c-1.08-.75-3.29-.45-3.91-.35a20.19,20.19,0,0,0-6.06,2.4,37.51,37.51,0,0,1-6.68,3c1.11-1.08,4-4.28,4-4.28l-3.86-1.34,3.16-2.76-4.86-2.63,3.43.28M67.72,74.16c-1.79,2.08-4.11,5-3.61,7.18h0c.38,1.78,2.89,2.88,2.89,2.88l5.41,2.93L68.9,90.22l4.21,1.33s-3.86,4-4.3,4.36a21.74,21.74,0,0,1-3.53.29c-8.94,0-21.36-5.27-24.44-5.31-3.7,0-8.36,2.09-8.36,2.09l2.43-2.63a25.61,25.61,0,0,1-6.27.38l4.35-3a17.58,17.58,0,0,1-8.74-2.38s7-.56,16.57-.45c3.86,0,10.41.42,10.41.42C48,84,45,82.19,43.67,79l6.17.93c-2.59-1.59-6.35-5.56-7-8.63l6.87,2.41c-1.22-1.33-5.47-5.31-6.23-9.93l5.44,3.43c-1.43-1.44-5.29-9.07-4.64-11.3l5.08,3.41c-2.43-3-5.27-11-3.34-14.06,1.54,6,5,8.18,5,8.18-2.26-3.27-7.12-14.83-2.48-19.93C49.7,45.06,54.61,49,54.61,49c-4.06-6.47-8.69-26.34-.06-30.35C52.86,31.37,56.94,38.3,56.94,38.3,54.36,26.55,54.45,9.89,63.19,8.37c-4.3,12.56-1.25,22.24-1.25,22.24C61.32,1.24,70.78,1.73,70.78,1.73s-1.56,8.34-1.56,23.21V67.87c0,3-.25,4.73-1.5,6.29" fill="#185aa5"/><path d="M39,103.62a1.75,1.75,0,1,1-1.85,1.75A1.81,1.81,0,0,1,39,103.62" fill="#010101"/><path d="M86.39,103.62a1.75,1.75,0,1,1-1.85,1.75,1.82,1.82,0,0,1,1.85-1.75" fill="#010101"/><path d="M23.25,114.61H23a11.31,11.31,0,0,0-2.54.3c-.61.17-1.12.57-1.12,1.12,0,.79.79,1.13,1.5,1.13a2.21,2.21,0,0,0,2.44-2.22Zm3-1.83v6.57H23.34v-1.11a4.1,4.1,0,0,1-3.12,1.36c-2.26.07-4-1.31-4-3.38,0-3.17,3.38-3.87,6.7-3.87h.37c0-.88-.39-1.69-2.14-1.69a4.2,4.2,0,0,0-2.91,1L16.46,110a6.61,6.61,0,0,1,4.73-1.78,5.08,5.08,0,0,1,3.88,1.18,4.78,4.78,0,0,1,1.14,3.41" fill="#010101"/><path d="M32.54,108.45V105H29.45v3.44H27.31V111h2.14v4.63a4.08,4.08,0,0,0,.88,3.08,3.73,3.73,0,0,0,2.78.85,6.07,6.07,0,0,0,2.32-.44V116.7a5.25,5.25,0,0,1-1.68.22c-1,0-1.21-.52-1.21-1.41V111h2.89v-2.59Z" fill="#010101"/><path d="M111.15,112.67a2.07,2.07,0,0,0-2.34-2,2.33,2.33,0,0,0-2.35,2Zm3.29,1.42v.82h-8c.06,1.12,1.31,2.07,2.8,2.13a3.33,3.33,0,0,0,2.85-1.27l2,1.44a5.7,5.7,0,0,1-4.77,2.39c-3.32,0-6-2.06-6-5.7a5.38,5.38,0,0,1,5.64-5.71c4,0,5.53,3.06,5.53,5.9" fill="#010101"/><polygon points="10.9 103.53 10.9 114.27 4.19 103.53 0 103.53 0 119.35 3.41 119.35 3.41 108.25 10.3 119.35 14.31 119.35 14.31 103.53 10.9 103.53" fill="#010101"/><polygon points="80.46 108.45 78.7 115.22 76.95 108.45 73.7 108.45 72 115.2 70.24 108.45 66.82 108.45 70.31 119.35 73.42 119.35 75.29 112.49 77.39 119.35 80.27 119.35 83.75 108.45 80.46 108.45" fill="#010101"/><polygon points="40.55 108.45 37.42 108.45 37.42 113.48 37.42 119.35 40.55 119.35 40.55 113.48 40.55 108.45" fill="#010101"/><polygon points="87.96 108.45 84.83 108.45 84.83 113.48 84.83 119.35 87.96 119.35 87.96 113.48 87.96 108.45" fill="#010101"/><path d="M64.88,109.19a3.36,3.36,0,0,0-2.69-1A4.43,4.43,0,0,0,59,109.63v-1.18H56v10.9h3.13v-5.93a2.46,2.46,0,0,1,.58-1.74,1.94,1.94,0,0,1,1.36-.62,1.49,1.49,0,0,1,1.36.61,3.72,3.72,0,0,1,.43,2.16v5.52h3.13v-6.81a4.44,4.44,0,0,0-1.06-3.35" fill="#010101"/><path d="M98.43,113.9a2.77,2.77,0,1,0-2.77,2.94,2.78,2.78,0,0,0,2.77-2.94m3-10.37v15.82h-3v-1.22a4.36,4.36,0,0,1-3.39,1.47,5.16,5.16,0,0,1-3.77-1.47,5.88,5.88,0,0,1-1.61-4.23c0-3.31,2.22-5.71,5.28-5.71a4.64,4.64,0,0,1,3.3,1.21v-5.87Z" fill="#010101"/><path d="M48.25,111A3,3,0,1,0,51,113.89,2.76,2.76,0,0,0,48.25,111m5.9,2.94a5.62,5.62,0,0,1-5.9,5.71,5.71,5.71,0,1,1,0-11.41,5.61,5.61,0,0,1,5.9,5.7" fill="#010101"/><path d="M114.75,106a2,2,0,1,1,2,2,2,2,0,0,1-2-2m-.45,0a2.5,2.5,0,1,0,2.5-2.5,2.5,2.5,0,0,0-2.5,2.5m2.06-1h.38c.33,0,.68,0,.68.39s-.35.41-.68.41h-.38Zm-.52,2.41h.52v-1.17h.38l.72,1.17H118l-.74-1.21a.72.72,0,0,0,.68-.79c0-.55-.32-.85-1-.85h-1.1Z" fill="#010101"/><path d="M73.34,84.55c3.81.3,6.51.55,9.23.89,1,.13,1.43,1.32,1.57,1.88a20.54,20.54,0,0,0-3.36-.41l-.11,1.23a15.83,15.83,0,0,1,3.68-.52s4,0,3.77,2.65c-1.08-.75-3.29-.45-3.91-.35a20.19,20.19,0,0,0-6.06,2.4,37.51,37.51,0,0,1-6.68,3c1.11-1.08,4-4.28,4-4.28l-3.86-1.34,3.16-2.76-4.86-2.63,3.43.28M67.72,74.16c-1.79,2.08-4.11,5-3.61,7.18h0c.38,1.78,2.89,2.88,2.89,2.88l5.41,2.93L68.9,90.22l4.21,1.33s-3.86,4-4.3,4.36a21.74,21.74,0,0,1-3.53.29c-8.94,0-21.36-5.27-24.44-5.31-3.7,0-8.36,2.09-8.36,2.09l2.43-2.63a25.61,25.61,0,0,1-6.27.38l4.35-3a17.58,17.58,0,0,1-8.74-2.38s7-.56,16.57-.45c3.86,0,10.41.42,10.41.42C48,84,45,82.19,43.67,79l6.17.93c-2.59-1.59-6.35-5.56-7-8.63l6.87,2.41c-1.22-1.33-5.47-5.31-6.23-9.93l5.44,3.43c-1.43-1.44-5.29-9.07-4.64-11.3l5.08,3.41c-2.43-3-5.27-11-3.34-14.06,1.54,6,5,8.18,5,8.18-2.26-3.27-7.12-14.83-2.48-19.93C49.7,45.06,54.61,49,54.61,49c-4.06-6.47-8.69-26.34-.06-30.35C52.86,31.37,56.94,38.3,56.94,38.3,54.36,26.55,54.45,9.89,63.19,8.37c-4.3,12.56-1.25,22.24-1.25,22.24C61.32,1.24,70.78,1.73,70.78,1.73s-1.56,8.34-1.56,23.21V67.87c0,3-.25,4.73-1.5,6.29" fill="#fff"/><polygon points="17.11 125.71 18.03 125.71 18.03 128.46 18.03 131.88 17.11 131.88 17.11 128.46 17.11 125.71" fill="#010101"/><path d="M19.31,131.09l.46-.65a3.63,3.63,0,0,0,2.14.79c.74,0,1.28-.39,1.28-1v0c0-.62-.73-.86-1.54-1.08-1-.28-2-.61-2-1.75v0a1.88,1.88,0,0,1,2.11-1.77,4.22,4.22,0,0,1,2.22.68l-.42.69a3.57,3.57,0,0,0-1.83-.59c-.73,0-1.19.38-1.19.89v0c0,.58.76.81,1.59,1.06s2,.66,2,1.77v0a2,2,0,0,1-2.2,1.85,4.18,4.18,0,0,1-2.55-.91" fill="#010101"/><path d="M28.49,128.83v0a3.22,3.22,0,0,1,6.44,0v0A3.22,3.22,0,0,1,31.69,132a3.16,3.16,0,0,1-3.2-3.2m5.49,0v0a2.34,2.34,0,0,0-2.29-2.41,2.28,2.28,0,0,0-2.26,2.39v0a2.32,2.32,0,0,0,2.29,2.4A2.27,2.27,0,0,0,34,128.83" fill="#010101"/><path d="M36.33,125.71h.92v1.07a2.32,2.32,0,0,1,2.11-1.2,2.25,2.25,0,0,1,2.36,2.47v3.83h-.91v-3.6a1.65,1.65,0,0,0-1.71-1.87,1.82,1.82,0,0,0-1.85,1.94v3.53h-.92Z" fill="#010101"/><path d="M46.43,133.52l.31-.73a2,2,0,0,0,1,.23c.55,0,.9-.29,1.27-1.16l-2.81-6.15h1l2.24,5.15,2-5.15h1l-2.59,6.38c-.52,1.27-1.12,1.74-2,1.74a2.86,2.86,0,0,1-1.32-.31" fill="#010101"/><path d="M52.87,128.83v0a3.22,3.22,0,0,1,6.43,0v0A3.21,3.21,0,0,1,56.07,132a3.16,3.16,0,0,1-3.2-3.2m5.49,0v0a2.34,2.34,0,0,0-2.29-2.41,2.28,2.28,0,0,0-2.26,2.39v0a2.31,2.31,0,0,0,2.28,2.4,2.27,2.27,0,0,0,2.27-2.37" fill="#010101"/><path d="M60.63,129.54v-3.83h.92v3.61a1.65,1.65,0,0,0,1.71,1.86,1.83,1.83,0,0,0,1.85-1.94v-3.53H66v6.17h-.91v-1.07A2.34,2.34,0,0,1,63,132a2.25,2.25,0,0,1-2.37-2.47" fill="#010101"/><path d="M67.81,125.71h.92v1.61a2.63,2.63,0,0,1,2.52-1.72v1h-.08c-1.35,0-2.44,1-2.44,2.83v2.46h-.92Z" fill="#010101"/><path d="M75.24,131.09l.46-.65a3.63,3.63,0,0,0,2.14.79c.74,0,1.28-.39,1.28-1v0c0-.62-.73-.86-1.54-1.08-1-.28-2-.61-2-1.75v0a1.87,1.87,0,0,1,2.1-1.77,4.2,4.2,0,0,1,2.22.68l-.42.69a3.57,3.57,0,0,0-1.83-.59c-.72,0-1.19.38-1.19.89v0c0,.58.76.81,1.59,1.06s2,.66,2,1.77v0a2,2,0,0,1-2.2,1.85,4.18,4.18,0,0,1-2.55-.91" fill="#010101"/><polygon points="81.41 125.71 82.33 125.71 82.33 128.46 82.33 131.88 81.41 131.88 81.41 128.46 81.41 125.71" fill="#010101"/><path d="M83.78,128.81v0a3,3,0,0,1,3-3.21,2.77,2.77,0,0,1,2.36,1.31v-3.72H90v8.71h-.92v-1.24A2.77,2.77,0,0,1,86.73,132a3,3,0,0,1-3-3.2m5.35,0v0a2.3,2.3,0,0,0-2.23-2.38,2.18,2.18,0,0,0-2.18,2.38v0a2.23,2.23,0,0,0,2.18,2.39,2.31,2.31,0,0,0,2.23-2.39" fill="#010101"/><path d="M94.54,131.23a2.55,2.55,0,0,0,1.95-.88l.57.52A3.19,3.19,0,0,1,94.52,132a3.08,3.08,0,0,1-3.08-3.23,3,3,0,0,1,3-3.22c1.83,0,2.88,1.45,2.88,3.27,0,.08,0,.18,0,.32h-4.9a2.16,2.16,0,0,0,2.17,2.06m1.81-2.8a2,2,0,0,0-2-2.08,2.13,2.13,0,0,0-2,2.08Z" fill="#010101"/><path d="M81.23,124a.65.65,0,0,1,1.29,0,.65.65,0,0,1-1.29,0" fill="#010101"/><path d="M16.93,124a.65.65,0,1,1,.65.62.64.64,0,0,1-.65-.62" fill="#010101"/></svg>