<?xml version="1.0" encoding="utf-8"?><!DOCTYPE svg PUBLIC "-//W3C//DTD SVG 1.1//EN" "http://www.w3.org/Graphics/SVG/1.1/DTD/svg11.dtd"><svg version="1.1" id="svgNewEra" xmlns="http://www.w3.org/2000/svg" xmlns:xlink="http://www.w3.org/1999/xlink" x="0px" y="0px" viewBox="-400 656 800 288" enable-background="new -400 656 800 288" xml:space="preserve"><path fill="#04a5f4" d="M-371.5,685.7h34.9l63.1,110.7V685.7h31v158.8h-33.4l-64.7-112.8v112.8h-31V685.7z M-130.9,735.6h-74.5v28.2h64.4v23h-64.4v34h73.3v23.6h-100.5V712h97.2L-130.9,735.6z M-108.5,712l17.5,75.7l3.7,21.1l3.7-20.5l15-76.3h29.1l15.6,75.7l4,21.1l4-20.2L1.8,712H30L-6.7,844.4h-26.4L-49,766.9l-4.6-25.4l-4.6,25.4l-16.2,77.5h-25.7L-137.9,712H-108.5z M151.4,713.9h-84v33.7h77.2v27.6H67.4v40.8h88v28.5H34.9V685.7h116.5V713.9z M244.3,715.4c4.9,2.1,8.9,5.2,12.3,9.2c2.8,3.4,4.9,7,6.7,11c1.5,4,2.5,8.6,2.5,13.8c0,6.4-1.5,12.6-4.9,18.4c-3.1,6.1-8.3,10.4-15.6,12.9c6.1,2.5,10.4,5.8,12.9,10.4c2.5,4.6,3.7,11.3,3.7,20.8v8.9c0,6.1,0.3,10.1,0.6,12.3c0.6,3.4,2.5,5.8,5.2,7.7v3.7h-30.7c-0.9-3.1-1.5-5.2-1.8-7c-0.6-3.7-1.2-7.7-1.2-11.3l-0.3-12.3c0-8.6-1.5-14.1-4.3-16.9c-2.8-2.8-8-4.3-15.6-4.3h-27v51.8h-27V712h63.4C232.3,712.3,239.4,713.3,244.3,715.4z M187.3,735v35.6H217c5.8,0,10.4-0.6,13.2-2.1c5.2-2.5,8-7.4,8-15c0-8-2.5-13.5-7.7-16.2c-2.8-1.5-7-2.5-12.9-2.5h-30.3V735z M314.5,712h31.3l46.6,132.4h-30l-8.6-27.3H305l-8.9,27.3h-28.8L314.5,712z M312.6,794.5h34l-16.9-52.1L312.6,794.5z M-370.6,865.6h9.8v38h23v8.3h-32.8V865.6z M-324.3,873.6h-9.2v-8.3h9.2V873.6z M-333.5,877.5h9.2v34.3h-9.2V877.5z M-303.1,865c0.6,0,1.2,0,1.8,0v7.4c-0.6,0-1.2,0-2.5,0s-2.1,0.3-2.5,0.9c-0.3,0.6-0.6,1.2-0.6,1.8c0,0.6,0,1.5,0,2.8h5.8v6.4h-5.8v27.6h-8.9v-27.6h-4.9v-6.4h4.9v-2.1c0-3.7,0.6-6.1,1.8-7.7c1.2-2.1,4.3-3.1,9.5-3.1C-304.1,865-303.4,865-303.1,865z M-275.2,878.2c2.5,0.9,4.3,2.8,5.8,5.2c1.5,2.1,2.5,4.3,2.8,7c0.3,1.5,0.3,4,0.3,6.7h-24.8c0,3.4,1.2,5.8,3.7,7.4c1.2,0.9,3.1,1.2,4.9,1.2c2.1,0,3.7-0.6,4.9-1.5c0.6-0.6,1.2-1.2,1.8-2.5h9.2c-0.3,2.1-1.2,4-3.4,6.1c-3.1,3.4-7.4,4.9-12.9,4.9c-4.6,0-8.6-1.5-12-4.3c-3.4-2.8-5.2-7.4-5.2-13.8c0-5.8,1.5-10.4,4.6-13.8s7.4-4.6,12.3-4.6C-280.2,876.6-277.7,877.2-275.2,878.2z M-288.4,886.1c-1.2,1.2-2.1,3.1-2.5,5.2h15.3c-0.3-2.5-0.9-4.3-2.5-5.5s-3.1-1.8-5.2-1.8C-285.7,884-287.2,884.6-288.4,886.1z M-237.5,911.9h-9.5v-46.3h9.5V911.9z M-203.2,879.7c2.1,1.8,3.4,4.9,3.4,9.2v23h-9.2V891c0-1.8-0.3-3.1-0.6-4.3c-0.9-1.8-2.5-2.8-4.9-2.8c-3.1,0-5.2,1.2-6.1,4c-0.6,1.2-0.9,3.1-0.9,5.2v18.4h-8.9v-34h8.6v4.9c1.2-1.8,2.1-3.1,3.4-3.7c1.8-1.5,4.3-2.1,7-2.1C-208.1,876.9-205.4,877.9-203.2,879.7z M-186.1,900.8c0.3,1.5,0.6,2.8,1.2,3.4c1.2,1.2,3.1,1.8,6.1,1.8c1.8,0,3.1-0.3,4.3-0.9c0.9-0.6,1.5-1.2,1.5-2.5c0-0.9-0.3-1.8-1.2-2.1c-0.9-0.6-4-1.5-9.5-2.8c-4-0.9-6.7-2.1-8.3-3.7c-1.5-1.5-2.5-3.4-2.5-6.1c0-3.1,1.2-5.8,3.7-8.3c2.5-2.1,6.1-3.4,10.4-3.4s7.7,0.9,10.4,2.5c2.8,1.8,4.3,4.6,4.6,8.9h-8.9c0-1.2-0.3-2.1-0.9-2.8c-0.9-1.2-2.8-1.8-4.9-1.8c-1.8,0-3.4,0.3-4.3,0.9c-0.9,0.6-1.2,1.2-1.2,2.1c0,0.9,0.3,1.8,1.2,2.1c0.9,0.6,4,1.2,9.5,2.5c3.7,0.9,6.1,2.1,8,3.7c1.8,1.8,2.8,4,2.8,6.4c0,3.4-1.2,6.1-3.7,8.3c-2.5,2.8-6.4,4-11.6,4c-5.5,0-9.5-1.2-12-3.4s-4-5.2-4-8.6h9.2V900.8z M-149.9,877.5v20.5c0,1.8,0.3,3.4,0.6,4.3c0.9,1.8,2.5,2.8,4.9,2.8c3.1,0,5.2-1.2,6.1-3.7c0.6-1.2,0.9-3.1,0.9-5.2v-18.7h9.2v34.3h-8.6V907c0,0-0.3,0.3-0.6,0.9c-0.3,0.6-0.6,0.9-1.2,1.5c-1.5,1.2-2.8,2.1-4,2.5c-1.2,0.6-2.8,0.6-4.6,0.6c-4.9,0-8.6-1.8-10.1-5.5c-0.9-2.1-1.5-4.9-1.5-8.9v-20.5H-149.9z M-102.1,876.9c0,0,0.3,0,0.9,0v9.2c-0.6,0-0.9,0-1.5,0c-0.6,0-0.9,0-0.9,0c-3.7,0-6.1,1.2-7.4,3.4c-0.6,1.2-0.9,3.4-0.9,6.1v16.2h-8.9v-34.3h8.6v5.8c1.5-2.1,2.5-4,3.7-4.6c1.5-1.5,4-2.1,6.4-2.1C-102.4,876.9-102.4,876.9-102.1,876.9z M-84,891c1.5-0.3,2.8-0.6,3.7-0.9c1.2-0.6,1.8-1.5,1.8-2.5c0-1.5-0.6-2.5-1.5-2.8c-0.9-0.6-2.5-0.9-4.3-0.9c-2.1,0-3.7,0.6-4.6,1.5c-0.6,0.9-0.9,1.8-1.2,3.1h-8.6c0.3-3.1,0.9-5.5,2.5-7.4c2.5-3.1,6.4-4.6,12.3-4.6c3.7,0,7,0.6,10.1,2.1c3.1,1.5,4.3,4.3,4.3,8.3v15.6c0,1.2,0,2.5,0,4c0,1.2,0.3,1.8,0.6,2.5s0.6,0.6,1.2,0.9v1.8h-9.8c-0.3-0.6-0.6-1.2-0.6-1.8c0-0.6-0.3-1.2-0.3-2.1c-1.2,1.2-2.8,2.5-4.3,3.4c-1.8,1.2-4,1.5-6.4,1.5c-3.1,0-5.8-0.9-7.7-2.8c-2.1-1.8-3.1-4.3-3.1-7.7c0-4.3,1.5-7.4,4.9-9.2c1.8-0.9,4.3-1.8,8-2.1H-84z M-78.8,895.3c-0.6,0.3-1.2,0.6-1.8,0.9c-0.6,0.3-1.5,0.3-2.5,0.6l-2.1,0.3c-1.8,0.3-3.4,0.6-4,1.2c-1.5,0.9-2.1,2.1-2.1,3.7c0,1.5,0.3,2.8,1.2,3.4c0.9,0.6,1.8,0.9,3.1,0.9c1.8,0,3.7-0.6,5.5-1.8c1.8-1.2,2.5-3.1,2.5-6.1v-3.1H-78.8z M-35.9,879.7c2.1,1.8,3.4,4.9,3.4,9.2v23h-9.2V891c0-1.8-0.3-3.1-0.6-4.3c-0.9-1.8-2.5-2.8-4.9-2.8c-3.1,0-5.2,1.2-6.1,4c-0.6,1.2-0.9,3.1-0.9,5.2v18.4h-8.9v-34h8.6v4.9c1.2-1.8,2.1-3.1,3.4-3.7c1.8-1.5,4.3-2.1,7-2.1C-41.1,876.9-38,877.9-35.9,879.7z M-5.2,889.8c-0.3-1.2-0.6-2.5-1.2-3.4c-0.9-1.5-2.5-2.1-4.6-2.1c-3.1,0-5.2,1.5-6.1,4.6c-0.6,1.5-0.9,3.7-0.9,6.4c0,2.5,0.3,4.6,0.9,6.1c0.9,2.8,3.1,4.3,6.1,4.3c2.1,0,3.7-0.6,4.6-1.8s1.5-2.5,1.5-4.3h9.2c-0.3,2.8-1.2,5.2-3.1,7.7c-2.8,4-7,5.8-12.6,5.8c-5.5,0-9.5-1.5-12.3-4.9c-2.5-3.4-4-7.4-4-12.6c0-5.8,1.5-10.4,4.3-13.8s6.7-4.9,12-4.9c4.3,0,8,0.9,10.4,2.8c2.5,1.8,4.3,5.2,4.9,10.1L-5.2,889.8L-5.2,889.8z M30.7,878.2c2.5,0.9,4.3,2.8,5.8,5.2c1.5,2.1,2.5,4.3,2.8,7c0.3,1.5,0.3,4,0.3,6.7H14.7c0,3.4,1.2,5.8,3.7,7.4c1.2,0.9,3.1,1.2,4.9,1.2c2.1,0,3.7-0.6,4.9-1.5c0.6-0.6,1.2-1.2,1.8-2.5h9.2c-0.3,2.1-1.2,4-3.4,6.1c-3.1,3.4-7.4,4.9-12.9,4.9c-4.6,0-8.6-1.5-12-4.3c-3.4-2.8-5.2-7.4-5.2-13.8c0-5.8,1.5-10.4,4.6-13.8s7.4-4.6,12.3-4.6C25.7,876.6,28.2,877.2,30.7,878.2z M17.2,886.1c-1.2,1.2-2.1,3.1-2.5,5.2H30c-0.3-2.5-0.9-4.3-2.5-5.5c-1.5-1.2-3.1-1.8-5.2-1.8S18.7,884.6,17.2,886.1z M64.1,870.5c3.7-3.7,8.6-5.8,14.1-5.8c7.7,0,13.5,2.5,16.9,7.7c1.8,2.8,3.1,5.8,3.1,8.6h-9.8c-0.6-2.1-1.5-4-2.5-4.9c-1.8-2.1-4.3-3.1-7.7-3.1s-6.1,1.5-8.3,4.3c-1.8,2.8-3.1,6.7-3.1,12s0.9,9.2,3.1,11.6c2.1,2.5,4.9,4,8,4c3.4,0,5.8-1.2,7.7-3.4c0.9-1.2,1.8-3.1,2.5-5.5h9.5c-0.9,4.9-3.1,9.2-6.4,12.3s-7.7,4.6-13.2,4.6c-6.7,0-11.6-2.1-15.6-6.4c-3.7-4.3-5.5-10.1-5.5-17.8C57.6,880.9,59.8,874.8,64.1,870.5z M132.4,907.6c-2.8,3.7-7.4,5.2-13.2,5.2c-5.8,0-10.4-1.8-13.2-5.2s-4.3-8-4.3-12.9s1.5-9.2,4.3-12.9c2.8-3.7,7.4-5.5,13.2-5.5c5.8,0,10.4,1.8,13.2,5.5c2.8,3.7,4.3,8,4.3,12.9C136.7,899.9,135.2,904.2,132.4,907.6z M125.1,902.7c1.5-1.8,2.1-4.6,2.1-8s-0.6-6.1-2.1-8c-1.5-1.8-3.4-2.8-6.1-2.8c-2.8,0-4.6,0.9-6.1,2.8c-1.5,1.8-2.1,4.6-2.1,8s0.6,6.1,2.1,8c1.5,1.8,3.4,2.8,6.1,2.8C121.7,905.4,123.8,904.5,125.1,902.7z M184.2,877.9c1.5,0.6,2.8,1.5,4,3.1c0.9,1.2,1.5,2.8,1.8,4.3c0.3,1.2,0.3,2.8,0.3,5.2v21.5h-9.2v-21.8c0-1.2-0.3-2.5-0.6-3.1c-0.9-1.5-2.1-2.5-4.3-2.5c-2.5,0-4.3,0.9-5.2,3.1c-0.6,1.2-0.6,2.5-0.6,4v20.2h-8.9v-20.5c0-2.1-0.3-3.4-0.6-4.3c-0.6-1.5-2.1-2.5-4.3-2.5c-2.5,0-4.3,0.9-5.2,2.5c-0.6,0.9-0.6,2.5-0.6,4.3v20.5h-9.2v-34.3h8.6v4.9c1.2-1.8,2.1-3.1,3.1-3.7c1.8-1.2,4-2.1,6.7-2.1s4.6,0.6,6.4,1.8c1.2,0.9,2.1,2.5,3.1,4c1.2-2.1,2.8-3.4,4.3-4.3c1.8-0.9,4-1.5,6.1-1.5C181.1,876.9,182.7,877.2,184.2,877.9z M225.9,881.2c2.8,3.1,4.3,7.4,4.3,12.9c0,6.1-1.2,10.7-4,13.8s-6.1,4.6-10.4,4.6c-2.8,0-4.9-0.6-6.7-2.1c-0.9-0.6-1.8-1.8-2.8-3.4v17.8h-8.9v-47.2h8.6v5.2c0.9-1.5,2.1-2.8,3.1-3.4c2.1-1.5,4.3-2.1,7-2.1C219.8,876.9,223.1,878.5,225.9,881.2z M218.9,887.7c-1.2-2.1-3.1-3.1-5.8-3.1c-3.4,0-5.5,1.5-6.7,4.6c-0.6,1.5-0.9,3.7-0.9,6.1c0,4,0.9,6.7,3.1,8.3c1.2,0.9,2.8,1.5,4.6,1.5c2.5,0,4.3-0.9,5.8-2.8c1.5-1.8,1.8-4.6,1.8-7.7C220.7,892.3,220.1,889.8,218.9,887.7z M248.3,891c1.5-0.3,2.8-0.6,3.7-0.9c1.2-0.6,1.8-1.5,1.8-2.5c0-1.5-0.6-2.5-1.5-2.8c-0.9-0.6-2.5-0.9-4.3-0.9c-2.1,0-3.7,0.6-4.6,1.5c-0.6,0.9-0.9,1.8-1.2,3.1h-8.6c0.3-3.1,0.9-5.5,2.5-7.4c2.5-3.1,6.4-4.6,12.3-4.6c3.7,0,7,0.6,10.1,2.1c3.1,1.5,4.3,4.3,4.3,8.3v15.6c0,1.2,0,2.5,0,4c0,1.2,0.3,1.8,0.6,2.5s0.6,0.6,1.2,0.9v1.8h-9.8c-0.3-0.6-0.6-1.2-0.6-1.8c0-0.6-0.3-1.2-0.3-2.1c-1.2,1.2-2.8,2.5-4.3,3.4c-1.8,1.2-4,1.5-6.4,1.5c-3.1,0-5.8-0.9-7.7-2.8c-2.1-1.8-3.1-4.3-3.1-7.7c0-4.3,1.5-7.4,4.9-9.2c1.8-0.9,4.3-1.8,8-2.1H248.3z M253.8,895.3c-0.6,0.3-1.2,0.6-1.8,0.9c-0.6,0.3-1.5,0.3-2.5,0.6l-2.1,0.3c-1.8,0.3-3.4,0.6-4,1.2c-1.5,0.9-2.1,2.1-2.1,3.7c0,1.5,0.3,2.8,1.2,3.4c0.9,0.6,1.8,0.9,3.1,0.9c1.8,0,3.7-0.6,5.5-1.8s2.5-3.1,2.5-6.1v-3.1H253.8z M296.7,879.7c2.1,1.8,3.4,4.9,3.4,9.2v23h-9.2V891c0-1.8-0.3-3.1-0.6-4.3c-0.9-1.8-2.5-2.8-4.9-2.8c-3.1,0-5.2,1.2-6.1,4c-0.6,1.2-0.9,3.1-0.9,5.2v18.4h-8.9v-34h8.6v4.9c1.2-1.8,2.1-3.1,3.4-3.7c1.8-1.5,4.3-2.1,7-2.1C291.5,876.9,294.3,877.9,296.7,879.7z M316,873.6h-9.2v-8.3h9.2V873.6z M306.8,877.5h9.2v34.3h-9.2V877.5z M345.1,878.2c2.5,0.9,4.3,2.8,5.8,5.2c1.5,2.1,2.5,4.3,2.8,7c0.3,1.5,0.3,4,0.3,6.7h-24.8c0,3.4,1.2,5.8,3.7,7.4c1.2,0.9,3.1,1.2,4.9,1.2c2.1,0,3.7-0.6,4.9-1.5c0.6-0.6,1.2-1.2,1.8-2.5h9.2c-0.3,2.1-1.2,4-3.4,6.1c-3.1,3.4-7.4,4.9-12.9,4.9c-4.6,0-8.6-1.5-12-4.3c-3.4-2.8-5.2-7.4-5.2-13.8c0-5.8,1.5-10.4,4.6-13.8c3.1-3.4,7.4-4.6,12.3-4.6C340.2,876.6,343,877.2,345.1,878.2z M332,886.1c-1.2,1.2-2.1,3.1-2.5,5.2h15.3c-0.3-2.5-0.9-4.3-2.5-5.5s-3.1-1.8-5.2-1.8C335,884,333.2,884.6,332,886.1z M364.1,900.8c0.3,1.5,0.6,2.8,1.2,3.4c1.2,1.2,3.1,1.8,6.1,1.8c1.8,0,3.1-0.3,4.3-0.9s1.5-1.2,1.5-2.5c0-0.9-0.3-1.8-1.2-2.1c-0.9-0.6-4-1.5-9.5-2.8c-4-0.9-6.7-2.1-8.3-3.7c-1.5-1.5-2.5-3.4-2.5-6.1c0-3.1,1.2-5.8,3.7-8.3s6.1-3.4,10.4-3.4s7.7,0.9,10.4,2.5c2.8,1.8,4.3,4.6,4.6,8.9h-8.9c0-1.2-0.3-2.1-0.9-2.8c-0.9-1.2-2.8-1.8-4.9-1.8c-1.8,0-3.4,0.3-4.3,0.9c-0.9,0.6-1.2,1.2-1.2,2.1c0,0.9,0.3,1.8,1.2,2.1c0.9,0.6,4,1.2,9.5,2.5c3.7,0.9,6.1,2.1,8,3.7c1.8,1.8,2.8,4,2.8,6.4c0,3.4-1.2,6.1-3.7,8.3c-2.5,2.1-6.4,3.4-11.6,3.4c-5.5,0-9.5-1.2-12-3.4c-2.5-2.1-4-5.2-4-8.6h9.2V900.8z"/></svg>