<svg xmlns="http://www.w3.org/2000/svg" viewBox="0 0 985 314"><title>philadelphia_color</title><polygon points="117.13 117.96 0.15 117.96 94.79 186.72 117.13 117.96" fill="#0000f8"/><polygon points="322.52 117.96 199.38 117.96 161.33 0.85 161.05 1.74 161.19 1.78 61.92 307.3 161.33 235.07 260.95 307.44 222.9 190.34 322.52 117.96" fill="#0000f8"/><polygon points="161.33 0.85 199.38 117.96 322.52 117.96 222.9 190.34 260.95 307.44 161.33 235.07 61.72 307.44 161.33 0.85" fill="#0000f8"/><path d="M349.7,161.81c0,9.79,7.92,6.81,7.92,9.55,0,1.34-.79,1.18-1.88,1.18-5.49,0-8.94-.31-10.66-.31-3.13,0-9.16.31-9.63.31-.24,0-1.65.16-1.65-1.18,0-2.27,6.27-.54,6.27-10.34V126.55c0-8.3-8.15-5.09-8.15-8,0-.47.31-1.48,2.19-1.48.55,0,4.86.31,10.81.31,1.1,0,6.66-.24,12.23-.31,10-.16,19.74,3.76,19.74,15.19,0,9.8-7.29,15.75-16.61,15.75-7.68,0-8.07-2-8.07-2.27,0-.55.16-1.49,1.1-1.49a31.35,31.35,0,0,0,3.68.47c9.48,0,10.18-8.85,10.26-10.89s-.63-13.47-12.77-13.47c-3.52,0-4.78,1.56-4.78,5.09Z" fill="#0000f8"/><path d="M436.27,161.49c0,9.95,8.14,7,8.14,10.11,0,1-.62.94-1.64.94-2.59,0-7.21-.31-10.42-.31-2.82,0-5.87.31-9.87.31-1.1,0-1.57-.31-1.57-.86,0-2.74,5.72-.63,5.72-8.23v-14.1c0-3.29.24-4.15-3.21-4.15H402.5c-3.6,0-3.83.78-3.83,4.23v12.3c0,9.71,9.71,6.89,9.71,9.71,0,.47.16,1.1-2.35,1.1-3.21,0-5.8-.31-11.44-.31-3.29,0-6.58.31-10.5.31-.94,0-1.72-.16-1.72-1.18,0-3.13,6.66-.31,6.66-10V126.4c0-8.54-8.85-5.09-8.85-8.07,0-1.18,2.35-1.25,3.84-1.25,2.35,0,4.7.31,8.77.31,4.7,0,7.83-.31,10.11-.31,1.09,0,1.8.39,1.8,1.17,0,2.43-6,.16-6,7.13v12.45c0,2.12.31,3.14,1.95,3.14h23.27c2.27,0,2.74-1.8,2.74-3.53v-11c0-8.62-8.62-5.8-8.62-8.07,0-1.41.71-1.25,1.81-1.25,3.21,0,5.24.31,10.1.31,4.08,0,7-.31,10.34-.31,1.33,0,1.65.23,1.65.94,0,3-5.64-.4-5.64,7.28Z" fill="#0000f8"/><path d="M465.49,162.83c0,9.63,8.77,6,8.77,8.53,0,.87-.7,1.18-2.51,1.18-2.89,0-5.79-.31-11.9-.31-3.37,0-6.74.31-8.78.31a.83.83,0,0,1-.86-.94c0-2.74,5.64-.71,5.64-8.15v-37.6c0-7.13-8.85-4.94-8.85-7.68,0-1.33,2-1.09,2.66-1.09,3.06,0,6.11.31,8.86.31s5.64-.31,10.1-.31c2.35,0,2.74.15,2.74,1.09,0,2.67-5.87-.15-5.87,7.29Z" fill="#0000f8"/><path d="M495,160.87c0,4.85-.31,7.67,5.33,7.67,19.43,0,18.33-10.26,21.31-10.26.31,0,.86.24.86,1.72,0,6.12-4.62,12.54-11,12.54-11.9,0-16.6-.31-20.52-.31-2.43,0-5.72.31-10,.31-1,0-1.49-.39-1.49-.86,0-3.61,6,.62,6-8.93V125.69c0-6.66-8.86-4.54-8.86-7.28,0-.71.87-1.33,2.51-1.33,3.13,0,7.68.31,10.65.31,6.66,0,7.6-.31,8.86-.31,1.64,0,2,.07,2,1,0,3-5.56.08-5.56,6Z" fill="#0000f8"/><path d="M544.38,153.27c-1.34,0-3,.31-4.78,5.48-.55,1.57-1.65,4.31-1.65,6.19,0,5.64,8.46,4.39,8.46,6.5,0,1.65-2.43,1.1-4.07,1.1-2.51,0-4.86-.31-7.37-.31-2.35,0-4.62.31-6.89.31-1.1,0-2.35.16-2.35-.86,0-1.8,4-1.33,5.95-5.72l21.23-47.4c.55-1.25.94-2.74,2-2.74.71,0,.86.16,1.88,2.51l21.15,47.94c2.51,5.56,6.74,2.51,6.74,5.09,0,1.34-.7,1.18-2.82,1.18-2.82,0-4.93-.31-10.11-.31-3.44,0-6.34.31-8.61.31-1.41,0-2.43.16-2.43-.94,0-2.27,5.56-1.41,5.56-6.19a13.59,13.59,0,0,0-1.41-5.25c-2.58-6.11-3-6.89-5-6.89Zm13-4.23c1.41,0,2.51.08,2.51-.71a7.25,7.25,0,0,0-.87-2.9l-6.42-14.18c-.47-.62-.23-.62-.63-.62-.15,0-.47.08-.86.94l-6,13.86a7.4,7.4,0,0,0-.86,2.9c0,.79,1.1.71,2.5.71Z" fill="#0000f8"/><path d="M594.9,126.63c0-8-8.38-5.4-8.38-8.3a1.42,1.42,0,0,1,1.41-1.25c1.49,0,3.06.31,10.81.31,4.08,0,8.07-.31,12.14-.31,10.5,0,33.3,1.25,33.3,25.77,0,22.64-20.45,29.69-28.83,29.69-9.17,0-13.47-.31-16.37-.31-2.43,0-4.78.31-7.21.31-1.33,0-3.13.31-3.13-1.1,0-3,6.26,0,6.26-7.05Zm9.64,37.21c0,5.17,5.8,5.72,8.85,5.72,12.22,0,20.92-8,20.92-24.2,0-7.45-3.84-25.31-23.43-25.31-5.87,0-6.34,2-6.34,7.37Z" fill="#0000f8"/><path d="M666,137.21c0,3.37,0,3.91,3.36,3.91h4.94c6.74,0,7-7.2,8.54-7.2.55,0,1.41-.16,1.49,2l.55,13.94c.07,1,.54,3.84-1.34,3.84-2.5,0-.31-8.3-8.46-8.3h-5.79c-3.61,0-3.29.94-3.29,5.48v10c0,4.85-.32,7.67,5.32,7.67,19.43,0,18.33-10.26,21.31-10.26.31,0,.86.24.86,1.72,0,6.12-4.62,12.54-11,12.54-11.91,0-16.61-.31-20.53-.31-2.43,0-5.72.31-10,.31-1,0-1.48-.39-1.48-.86,0-3.61,5.95.62,5.95-8.93V126.08c0-7-8.85-4.54-8.85-7.67,0-.71.62-1.33,1.72-1.33,3.21,0,8.85.31,20.84.31,5.56,0,11-.31,17.86-.31a1.5,1.5,0,0,1,1.57,1.48l.31,7.76c.08,1,.47,3.6-1.33,3.6-3.68,0,2.43-9.16-12.69-9.16-9.48,0-9.79.08-9.79,5.48Z" fill="#0000f8"/><path d="M714.53,160.87c0,4.85-.32,7.67,5.32,7.67,19.43,0,18.34-10.26,21.31-10.26.32,0,.86.24.86,1.72,0,6.12-4.62,12.54-11,12.54-11.91,0-16.61-.31-20.53-.31-2.42,0-5.71.31-10,.31-1,0-1.49-.39-1.49-.86,0-3.61,5.95.62,5.95-8.93V125.69c0-6.66-8.85-4.54-8.85-7.28,0-.71.86-1.33,2.51-1.33,3.13,0,7.67.31,10.65.31,6.66,0,7.6-.31,8.85-.31,1.65,0,2,.07,2,1,0,3-5.56.08-5.56,6Z" fill="#0000f8"/><path d="M762.55,161.81c0,9.79,7.91,6.81,7.91,9.55,0,1.34-.78,1.18-1.88,1.18-5.48,0-8.93-.31-10.65-.31-3.14,0-9.17.31-9.64.31-.23,0-1.64.16-1.64-1.18,0-2.27,6.26-.54,6.26-10.34V126.55c0-8.3-8.14-5.09-8.14-8,0-.47.31-1.48,2.19-1.48.55,0,4.86.31,10.81.31,1.1,0,6.66-.24,12.22-.31,10-.16,19.74,3.76,19.74,15.19,0,9.8-7.28,15.75-16.61,15.75-7.67,0-8.06-2-8.06-2.27,0-.55.15-1.49,1.09-1.49a31.66,31.66,0,0,0,3.68.47c9.48,0,10.19-8.85,10.27-10.89s-.63-13.47-12.77-13.47c-3.53,0-4.78,1.56-4.78,5.09Z" fill="#0000f8"/><path d="M849.11,161.49c0,9.95,8.15,7,8.15,10.11,0,1-.63.94-1.64.94-2.59,0-7.21-.31-10.42-.31-2.82,0-5.88.31-9.87.31-1.1,0-1.57-.31-1.57-.86,0-2.74,5.72-.63,5.72-8.23v-14.1c0-3.29.23-4.15-3.21-4.15H815.35c-3.6,0-3.84.78-3.84,4.23v12.3c0,9.71,9.71,6.89,9.71,9.71,0,.47.16,1.1-2.35,1.1-3.21,0-5.79-.31-11.43-.31-3.29,0-6.58.31-10.5.31-.94,0-1.72-.16-1.72-1.18,0-3.13,6.66-.31,6.66-10V126.4c0-8.54-8.86-5.09-8.86-8.07,0-1.18,2.35-1.25,3.84-1.25,2.35,0,4.7.31,8.78.31,4.7,0,7.83-.31,10.1-.31,1.1,0,1.8.39,1.8,1.17,0,2.43-6,.16-6,7.13v12.45c0,2.12.31,3.14,2,3.14h23.27c2.27,0,2.74-1.8,2.74-3.53v-11c0-8.62-8.62-5.8-8.62-8.07,0-1.41.71-1.25,1.8-1.25,3.21,0,5.25.31,10.11.31,4.07,0,7-.31,10.34-.31,1.33,0,1.64.23,1.64.94,0,3-5.64-.4-5.64,7.28Z" fill="#0000f8"/><path d="M878.33,162.83c0,9.63,8.78,6,8.78,8.53,0,.87-.71,1.18-2.51,1.18-2.9,0-5.8-.31-11.91-.31-3.36,0-6.73.31-8.77.31a.83.83,0,0,1-.86-.94c0-2.74,5.64-.71,5.64-8.15v-37.6c0-7.13-8.85-4.94-8.85-7.68,0-1.33,1.95-1.09,2.66-1.09,3,0,6.11.31,8.85.31s5.64-.31,10.11-.31c2.35,0,2.74.15,2.74,1.09,0,2.67-5.88-.15-5.88,7.29Z" fill="#0000f8"/><path d="M908.89,153.27c-1.34,0-3,.31-4.78,5.48-.55,1.57-1.65,4.31-1.65,6.19,0,5.64,8.46,4.39,8.46,6.5,0,1.65-2.43,1.1-4.07,1.1-2.51,0-4.86-.31-7.36-.31s-4.63.31-6.9.31c-1.1,0-2.35.16-2.35-.86,0-1.8,4-1.33,6-5.72l21.23-47.4c.55-1.25.94-2.74,2-2.74.71,0,.87.16,1.88,2.51l21.16,47.94c2.5,5.56,6.73,2.51,6.73,5.09,0,1.34-.7,1.18-2.82,1.18-2.82,0-4.93-.31-10.1-.31-3.45,0-6.35.31-8.62.31-1.41,0-2.43.16-2.43-.94,0-2.27,5.56-1.41,5.56-6.19a13.59,13.59,0,0,0-1.41-5.25c-2.58-6.11-3-6.89-5-6.89Zm13-4.23c1.41,0,2.51.08,2.51-.71a7.4,7.4,0,0,0-.86-2.9l-6.43-14.18c-.47-.62-.23-.62-.63-.62-.15,0-.47.08-.86.94l-6,13.86a7.4,7.4,0,0,0-.86,2.9c0,.79,1.1.71,2.51.71Z" fill="#0000f8"/><path d="M342.08,305.27c0,2.79-.18,4.41,3.06,4.41,11.16,0,10.53-5.9,12.24-5.9.18,0,.5.14.5,1,0,3.51-2.66,7.2-6.35,7.2-6.84,0-9.54-.18-11.79-.18-1.39,0-3.28.18-5.76.18-.58,0-.85-.22-.85-.49,0-2.07,3.42.36,3.42-5.13V285.06c0-3.82-5.09-2.61-5.09-4.18,0-.41.5-.77,1.44-.77,1.8,0,4.41.18,6.12.18,3.83,0,4.37-.18,5.09-.18.94,0,1.17.05,1.17.59,0,1.71-3.2,0-3.2,3.46Z" fill="#0000f8"/><path d="M369.53,306.39c0,5.54,5,3.47,5,4.91,0,.49-.4.67-1.44.67-1.66,0-3.33-.18-6.84-.18-1.93,0-3.87.18-5,.18a.48.48,0,0,1-.49-.54c0-1.57,3.24-.4,3.24-4.68v-21.6c0-4.09-5.09-2.83-5.09-4.41,0-.76,1.13-.63,1.53-.63,1.76,0,3.51.18,5.09.18s3.24-.18,5.8-.18c1.35,0,1.58.09,1.58.63,0,1.53-3.38-.09-3.38,4.19Z" fill="#0000f8"/><path d="M385.15,291.68c0,1.93,0,2.25,1.93,2.25h2.84c3.87,0,4-4.14,4.9-4.14.32,0,.81-.09.86,1.12l.31,8c.05.59.32,2.21-.76,2.21-1.44,0-.18-4.77-4.86-4.77H387c-2.07,0-1.89.54-1.89,3.15v6.66c0,5,5.08,3.87,5.08,5.08,0,.9-.94.72-2.07.72-1.71,0-3.37-.18-5.35-.18-1.4,0-3.29.18-5.76.18-.59,0-.86-.22-.86-.49,0-2.07,3.42.36,3.42-5.13V285.29c0-4.05-5.08-2.61-5.08-4.41,0-.41.36-.77,1-.77,1.84,0,5.08.18,12,.18,3.19,0,6.3-.18,10.26-.18a.87.87,0,0,1,.9.86l.18,4.45c0,.59.27,2.07-.77,2.07-2.11,0,1.4-5.26-7.29-5.26-5.44,0-5.62,0-5.62,3.15Z" fill="#0000f8"/><path d="M409.45,291.68c0,1.93,0,2.25,1.93,2.25h2.83c3.87,0,4-4.14,4.91-4.14.32,0,.81-.09.85,1.12l.32,8c0,.59.31,2.21-.77,2.21-1.44,0-.18-4.77-4.85-4.77h-3.34c-2.06,0-1.88.54-1.88,3.15v5.76c0,2.79-.18,4.41,3.06,4.41,11.15,0,10.52-5.9,12.23-5.9.18,0,.5.14.5,1,0,3.51-2.66,7.2-6.34,7.2-6.84,0-9.54-.18-11.79-.18-1.4,0-3.29.18-5.76.18-.59,0-.86-.22-.86-.49,0-2.07,3.42.36,3.42-5.13V285.29c0-4.05-5.08-2.61-5.08-4.41,0-.41.36-.77,1-.77,1.84,0,5.08.18,12,.18,3.19,0,6.29-.18,10.25-.18a.86.86,0,0,1,.9.86l.18,4.45c.05.59.27,2.07-.76,2.07-2.12,0,1.39-5.26-7.29-5.26-5.44,0-5.62,0-5.62,3.15Z" fill="#0000f8"/><path d="M448.64,306.39c0,5.54,5,3.47,5,4.91,0,.49-.41.67-1.44.67-1.66,0-3.33-.18-6.84-.18-1.93,0-3.87.18-5,.18a.48.48,0,0,1-.49-.54c0-1.57,3.24-.4,3.24-4.68v-21.6c0-4.09-5.09-2.83-5.09-4.41,0-.76,1.13-.63,1.53-.63,1.76,0,3.51.18,5.09.18s3.24-.18,5.8-.18c1.35,0,1.58.09,1.58.63,0,1.53-3.38-.09-3.38,4.19Z" fill="#0000f8"/><path d="M459.08,288.75c0-8.64-5-5.71-5-7.87a.71.71,0,0,1,.77-.77c.85,0,1.66.18,2.51.18,1.17,0,2.34-.18,4.73-.18,1.44,0,.9.32,1.71,1.17l18.09,19.85c.58.63,1.12,1.17,1.39,1.17s.36-.54.36-1.67v-15c0-4.1-5.49-3.29-5.49-4.77a.69.69,0,0,1,.72-.77c.72,0,2,.18,5.13.18,2.84,0,4.41-.18,4.82-.18.85,0,.85.45.85.59,0,1.35-3.82.27-3.82,5v25.25c0,1,0,1.35-.54,1.35a1.34,1.34,0,0,1-1.17-.63l-21.65-23.4c-.31-.36-.58-.59-.81-.59s-.36.32-.36.72v15.3c0,8.64,5.76,5.58,5.76,7.7,0,.63-1.12.58-1.71.58-2.2,0-3.73-.18-5.31-.18s-2.65.18-3.87.18c-.49,0-1.39.23-1.39-.54,0-1.8,4.32-1,4.32-5.58Z" fill="#0000f8"/><path d="M492.78,302.75c-.13-.63-.58-1.94.54-1.94.72,0,.81.41,1,1,1.44,4.32,4.23,8.42,9.23,8.42,3.51,0,6.21-2.16,6.21-5.76,0-3.83-2.84-4.41-10.08-7.61-3.87-1.71-6.53-3.46-6.53-8.19a8.55,8.55,0,0,1,8.87-9c3.69,0,5.58,1.75,6.93,1.75.58,0,1.71-.72,2.29-.72s.54.68.63,1.71l.5,6c.09,1-.05,1.53-1,1.53s-1.71-8.37-9.44-8.37c-3,0-5,1.71-5,4.73s2.48,3.6,8.5,6.25c4.82,2.12,7.79,4.05,7.79,9.77,0,5.89-4.14,9.9-10,9.9-2.74,0-5-1.08-7.65-1.67-1.12-.27-1.08-.63-1.3-1.71Z" fill="#0000f8"/><path d="M547.46,295.55c0,9.13-2.57,16.74-15,16.74-8.41,0-12.91-3.92-12.91-12.65V285c0-3.87-4.68-2.43-4.68-4.14,0-.58.58-.72.94-.72.59,0,4,.18,6.22.18s5.48-.18,6.34-.18c.41,0,.5.36.5.63,0,1.53-3.79-.85-3.79,6.53V297c0,6.89,1.8,12.6,9.86,12.6,8.95,0,10.12-7.11,10.12-14.71V286c0-5.18-5.53-3.78-5.53-5.4,0-.72.76-.5,1.35-.5,1.3.09,2.52.18,3.78.18,1.48,0,2.88-.09,5.13-.18.54,0,.81.09.81.59,0,1.21-3.15-.41-3.15,4.68Z" fill="#0000f8"/><path d="M556.37,285.78c0-5-4.91-3.37-4.91-5,0-.45.45-.68,1-.68,2.07,0,2.42.18,5.26.18,3,0,6.07-.18,9.09-.18,9.85,0,10.75,6.35,10.75,8.42a6.84,6.84,0,0,1-2.61,5.62c-1.3,1-2.61,1.44-2.61,1.89,0,.27,3.83,6.8,7.07,12.47a1.73,1.73,0,0,0,1.62.72c.45,0,.9-.27,1.35-.27a.63.63,0,0,1,.67.63c0,1.39-3,2.38-4.77,2.38-3.55,0-5-2.83-6.39-5.44l-3.78-7.11c-1-2-1.84-2.39-4.09-2.39s-2.12.32-2.12,1.89v7.79c0,4.81,4.46,3,4.46,4.59,0,.4-.36.67-1.4.67-.76,0-2-.18-3.87-.18-2.43,0-4.68.18-6.93.18-.49,0-1.44.14-1.44-.76,0-1.44,3.65,0,3.65-5.63Zm5.53,8.06c0,1.12,1.67,1.12,3,1.12,6.84,0,7.11-2.52,7.11-5.17,0-4.41-2.52-7.74-7.07-7.74-1.66,0-3.06,0-3.06,2.7Z" fill="#0000f8"/><path d="M594.12,300.9c-.76,0-1.71.18-2.74,3.15a12.79,12.79,0,0,0-1,3.56c0,3.24,4.86,2.52,4.86,3.73,0,1-1.39.63-2.34.63-1.44,0-2.79-.18-4.23-.18s-2.65.18-4,.18c-.63,0-1.35.09-1.35-.49,0-1,2.3-.77,3.42-3.29L599,281c.31-.72.54-1.58,1.12-1.58.41,0,.5.09,1.08,1.44l12.15,27.54c1.44,3.2,3.87,1.44,3.87,2.93,0,.76-.4.67-1.62.67-1.62,0-2.83-.18-5.8-.18-2,0-3.65.18-5,.18-.81,0-1.4.09-1.4-.54,0-1.3,3.2-.81,3.2-3.55a7.9,7.9,0,0,0-.81-3c-1.49-3.51-1.71-4-2.88-4Zm7.47-2.43c.81,0,1.44,0,1.44-.4a4.31,4.31,0,0,0-.49-1.67l-3.69-8.14c-.27-.36-.14-.36-.36-.36s-.27,0-.5.54l-3.46,8a4.16,4.16,0,0,0-.5,1.67c0,.45.63.4,1.44.4Z" fill="#0000f8"/><path d="M622.29,288.75c0-8.64-5-5.71-5-7.87a.71.71,0,0,1,.77-.77c.85,0,1.66.18,2.52.18,1.17,0,2.34-.18,4.72-.18,1.44,0,.9.32,1.71,1.17l18.09,19.85c.59.63,1.13,1.17,1.4,1.17s.36-.54.36-1.67v-15c0-4.1-5.49-3.29-5.49-4.77a.69.69,0,0,1,.72-.77c.72,0,2,.18,5.13.18,2.83,0,4.41-.18,4.81-.18.86,0,.86.45.86.59,0,1.35-3.83.27-3.83,5v25.25c0,1,0,1.35-.54,1.35a1.35,1.35,0,0,1-1.17-.63l-21.64-23.4c-.32-.36-.59-.59-.81-.59s-.36.32-.36.72v15.3c0,8.64,5.76,5.58,5.76,7.7,0,.63-1.13.58-1.71.58-2.21,0-3.74-.18-5.31-.18s-2.66.18-3.87.18c-.5,0-1.4.23-1.4-.54,0-1.8,4.32-1,4.32-5.58Z" fill="#0000f8"/><path d="M683.85,289.79c0,.45.23,1.48-.54,1.48s-1-.94-1.35-1.53c-2.25-4.32-6.21-8.23-11.43-8.23-6.61,0-10.26,6.3-10.26,12.33,0,6.34,3.6,15.25,12.2,15.25,7,0,10-5.89,11.2-5.89.23,0,.63.22.63.49,0,1.8-4.77,8.6-14.35,8.6-13.19,0-15.21-11.52-15.21-15.08,0-7.56,4.63-17.5,16-17.5,5.45,0,8.91,2.74,10.26,2.74.86,0,.9-1.48,1.53-1.48.23,0,.54,0,.54.27Z" fill="#0000f8"/><path d="M695.87,291.68c0,1.93,0,2.25,1.93,2.25h2.84c3.87,0,4-4.14,4.9-4.14.32,0,.81-.09.86,1.12l.31,8c0,.59.32,2.21-.76,2.21-1.44,0-.18-4.77-4.86-4.77h-3.33c-2.07,0-1.89.54-1.89,3.15v5.76c0,2.79-.18,4.41,3.06,4.41,11.16,0,10.53-5.9,12.24-5.9.18,0,.49.14.49,1,0,3.51-2.65,7.2-6.34,7.2-6.84,0-9.54-.18-11.79-.18-1.4,0-3.29.18-5.76.18-.59,0-.86-.22-.86-.49,0-2.07,3.42.36,3.42-5.13V285.29c0-4.05-5.08-2.61-5.08-4.41,0-.41.36-.77,1-.77,1.84,0,5.08.18,12,.18,3.19,0,6.3-.18,10.26-.18a.87.87,0,0,1,.9.86l.18,4.45c0,.59.27,2.07-.77,2.07-2.11,0,1.4-5.26-7.29-5.26-5.44,0-5.62,0-5.62,3.15Z" fill="#0000f8"/><path d="M753.78,289.79c.05.45.23,1.48-.54,1.48s-1-.94-1.35-1.53c-2.25-4.32-6.21-8.23-11.43-8.23-6.61,0-10.26,6.3-10.26,12.33,0,6.34,3.6,15.25,12.2,15.25,7,0,10-5.89,11.2-5.89.23,0,.63.22.63.49,0,1.8-4.77,8.6-14.35,8.6-13.19,0-15.21-11.52-15.21-15.08,0-7.56,4.63-17.5,16-17.5,5.45,0,8.91,2.74,10.26,2.74.86,0,.9-1.48,1.53-1.48.23,0,.54,0,.54.27Z" fill="#0000f8"/><path d="M773,279.71c8.78-.09,15.48,5.71,15.48,15.25,0,6.3-2.74,17.33-17.1,17.33-9,0-15.12-6.08-15.12-15.21C756.3,287.22,762.29,279.8,773,279.71Zm-.31,30.64c7.74-.13,10.26-6.16,10.26-13.63,0-10-5.49-15.17-11.3-15.08-7.6.14-9.85,6.35-9.85,12.87S764.67,310.49,772.73,310.35Z" fill="#0000f8"/><path d="M796,304.32c-.27,7.7,4.68,5.09,4.68,6.93,0,.18.18.72-1.08.72-1.62,0-2.57-.18-4.64-.18s-3.78.18-4.45.18-.86-.36-.86-.63c0-1.62,3.69-.49,3.87-5.22L794.1,288c.27-7.42-4.54-5.31-4.54-7.29a.63.63,0,0,1,.54-.63c.58,0,1.26.18,2.7.18,1,0,2.7-.18,4.18-.18.5,0,.95,0,1.58,1.31l9.9,21.6c.18.4.31.72.58.72s.67-.81.72-.95L820.2,281c.14-.31.27-.9,1.13-.9,1.07,0,1.93.18,2.61.18s1.66-.18,2.92-.18,1.3.18,1.3.54c0,1.62-4.4-.13-4.22,5l.76,19.94c.23,5.89,4.36,3.91,4.36,5.58,0,.76-.58.76-2.16.76-1.3,0-2.56-.18-3.86-.18-2.93,0-4,.18-5,.18s-2.07.14-2.07-.67c0-1.53,3.51-.05,3.24-5l-.68-13.64c0-1.35-.09-2-.36-2s-.72.9-1.39,2.38l-8.51,17.78c-.27.58-.45,1.26-1.17,1.26s-.9-.77-1.12-1.26l-8.73-19.4c-.14-.27-.32-.76-.5-.76s-.31.81-.31,1.12Z" fill="#0000f8"/><path d="M839,305.81c0,5.62,4.55,3.91,4.55,5.49,0,.76-.45.67-1.08.67-3.15,0-5.13-.18-6.12-.18-1.8,0-5.27.18-5.54.18s-.94.09-.94-.67c0-1.31,3.6-.32,3.6-5.94v-19.8c0-4.77-4.68-2.93-4.68-4.59,0-.27.18-.86,1.26-.86.31,0,2.79.18,6.21.18.63,0,3.82-.13,7-.18,5.76-.09,11.33,2.16,11.33,8.73,0,5.63-4.18,9.05-9.53,9.05-4.41,0-4.64-1.13-4.64-1.31s.09-.85.63-.85a18.22,18.22,0,0,0,2.12.27c5.44,0,5.85-5.09,5.89-6.26s-.36-7.74-7.33-7.74c-2,0-2.75.9-2.75,2.93Z" fill="#0000f8"/><path d="M863.09,300.9c-.77,0-1.71.18-2.75,3.15a13.13,13.13,0,0,0-.94,3.56c0,3.24,4.86,2.52,4.86,3.73,0,1-1.4.63-2.34.63-1.44,0-2.79-.18-4.23-.18s-2.66.18-4,.18c-.63,0-1.35.09-1.35-.49,0-1,2.29-.77,3.42-3.29L868,281c.32-.72.54-1.58,1.13-1.58.4,0,.49.09,1.08,1.44l12.15,27.54c1.44,3.2,3.87,1.44,3.87,2.93,0,.76-.41.67-1.62.67-1.62,0-2.84-.18-5.81-.18-2,0-3.64.18-4.95.18-.81,0-1.39.09-1.39-.54,0-1.3,3.19-.81,3.19-3.55a7.72,7.72,0,0,0-.81-3c-1.48-3.51-1.71-4-2.88-4Zm7.47-2.43c.81,0,1.44,0,1.44-.4a4.16,4.16,0,0,0-.5-1.67l-3.69-8.14c-.27-.36-.13-.36-.36-.36s-.27,0-.49.54l-3.47,8a4.31,4.31,0,0,0-.49,1.67c0,.45.63.4,1.44.4Z" fill="#0000f8"/><path d="M891.26,288.75c0-8.64-5-5.71-5-7.87a.71.71,0,0,1,.76-.77c.86,0,1.67.18,2.52.18,1.17,0,2.34-.18,4.73-.18,1.44,0,.9.32,1.71,1.17L914,301.13c.58.63,1.12,1.17,1.39,1.17s.36-.54.36-1.67v-15c0-4.1-5.49-3.29-5.49-4.77a.69.69,0,0,1,.72-.77c.72,0,2,.18,5.13.18,2.84,0,4.41-.18,4.82-.18.85,0,.85.45.85.59,0,1.35-3.82.27-3.82,5v25.25c0,1,0,1.35-.54,1.35a1.34,1.34,0,0,1-1.17-.63l-21.65-23.4c-.31-.36-.58-.59-.81-.59s-.36.32-.36.72v15.3c0,8.64,5.76,5.58,5.76,7.7,0,.63-1.12.58-1.71.58-2.2,0-3.73-.18-5.31-.18s-2.65.18-3.87.18c-.49,0-1.39.23-1.39-.54,0-1.8,4.32-1,4.32-5.58Z" fill="#0000f8"/><path d="M927.57,284.21c-1.75-3.24-4.5-2.12-4.5-3.56,0-.54.54-.54,1.58-.54.81,0,1.89.18,4.14.18,1.89,0,3.82,0,6.57-.18.63,0,.76.32.76.59,0,1-2.47.67-2.47,2.2a4.68,4.68,0,0,0,.63,2.07l4.05,8.37c.72,1.49,1,2.07,1.39,2.07s.59-.36,1.13-1.35l4.09-7.42a4.49,4.49,0,0,0,.81-2.48c0-3-4.36-2-4.36-3.37,0-.45.31-.68.85-.68s1.53.18,3.87.18c3.42,0,3.92-.18,5.18-.18.58,0,.81.18.81.5,0,1.21-2,.31-4.68,5.26L941.52,297a4.78,4.78,0,0,0-.58,2.84v6.7c0,5.67,5.53,2.57,5.53,4.86,0,.5-.68.54-1.44.54-.36,0-1.08-.18-6.7-.18-4.05,0-5.36.18-6.62.18-.72,0-1.21-.09-1.21-.49,0-2,4.9.45,4.9-5.27v-5.85a4.5,4.5,0,0,0-.72-2.83Z" fill="#0000f8"/><path d="M952.88,307.19c-.06-.31-.29-1,.27-1,.36,0,.4.2.49.49.72,2.14,2.1,4.17,4.57,4.17a2.82,2.82,0,0,0,3.07-2.86c0-1.89-1.4-2.18-5-3.76-1.91-.85-3.23-1.72-3.23-4.06a4.24,4.24,0,0,1,4.39-4.43c1.83,0,2.76.87,3.43.87.29,0,.85-.36,1.14-.36s.27.34.31.85l.25,3c0,.5,0,.76-.52.76s-.84-4.14-4.68-4.14a2.24,2.24,0,0,0-2.47,2.34c0,1.49,1.23,1.78,4.21,3.09,2.39,1.05,3.86,2,3.86,4.84a4.71,4.71,0,0,1-5,4.9,16.86,16.86,0,0,1-3.79-.82c-.55-.14-.53-.32-.64-.85Z" fill="#0000f8"/><path d="M966.94,308c-.13,3.81,2.32,2.51,2.32,3.43,0,.09.09.35-.54.35-.8,0-1.27-.08-2.29-.08s-1.87.08-2.21.08-.42-.17-.42-.31c0-.8,1.83-.24,1.91-2.58l.32-9c.13-3.67-2.25-2.63-2.25-3.61,0-.13.11-.31.26-.31s.63.09,1.34.09c.51,0,1.34-.09,2.07-.09.25,0,.47,0,.78.65l4.9,10.69c.09.2.16.36.29.36s.34-.4.36-.47L979,296.43a.53.53,0,0,1,.55-.45c.54,0,1,.09,1.3.09s.82-.09,1.45-.09.64.09.64.27c0,.8-2.18-.07-2.09,2.49l.38,9.87c.11,2.92,2.16,1.94,2.16,2.77,0,.37-.29.37-1.07.37s-1.27-.08-1.92-.08c-1.45,0-2,.08-2.49.08s-1,.07-1-.33c0-.76,1.74,0,1.61-2.5l-.34-6.75c0-.66,0-1-.18-1s-.35.45-.69,1.18l-4.21,8.8c-.13.29-.22.63-.58.63s-.44-.38-.55-.63l-4.33-9.6c-.06-.13-.15-.38-.24-.38s-.16.4-.16.56Z" fill="#0000f8"/><path d="M359.81,240.64c-1.93,0-4.31.46-6.91,7.93-.8,2.27-2.38,6.23-2.38,8.95,0,8.16,12.23,6.35,12.23,9.4,0,2.38-3.51,1.59-5.89,1.59-3.63,0-7-.45-10.65-.45-3.4,0-6.68.45-10,.45-1.58,0-3.4.23-3.4-1.25,0-2.6,5.78-1.92,8.61-8.26l30.7-68.54c.8-1.81,1.36-4,2.83-4,1,0,1.25.22,2.72,3.62l30.59,69.33c3.62,8,9.74,3.62,9.74,7.36,0,1.93-1,1.7-4.08,1.7-4.07,0-7.13-.45-14.61-.45-5,0-9.18.45-12.46.45-2,0-3.51.23-3.51-1.36,0-3.28,8-2,8-8.95,0-2.49-.79-4.53-2-7.59-3.74-8.83-4.3-10-7.25-10Zm18.8-6.11c2,0,3.62.11,3.62-1a10.47,10.47,0,0,0-1.24-4.19l-9.29-20.51c-.68-.9-.34-.9-.91-.9-.22,0-.68.11-1.24,1.35l-8.73,20.06a10.63,10.63,0,0,0-1.24,4.19c0,1.13,1.58,1,3.62,1Z" fill="#0000f8"/><path d="M432.76,249.25c-.68,19.37,11.78,12.8,11.78,17.45,0,.45.45,1.81-2.72,1.81-4.08,0-6.46-.45-11.67-.45-5.55,0-9.51.45-11.21.45s-2.15-.91-2.15-1.59c0-4.07,9.29-1.24,9.74-13.14l1.58-45.53c.68-18.7-11.44-13.37-11.44-18.36a1.59,1.59,0,0,1,1.36-1.58c1.47,0,3.17.45,6.8.45,2.6,0,6.8-.45,10.53-.45,1.25,0,2.38-.12,4,3.28L464.25,246c.45,1,.79,1.81,1.47,1.81s1.7-2,1.82-2.38l26.28-54.83c.34-.79.68-2.26,2.83-2.26,2.72,0,4.87.45,6.57.45,2,0,4.19-.45,7.36-.45s3.29.45,3.29,1.36c0,4.08-11.1-.34-10.65,12.68l1.93,50.19c.56,14.84,11,9.85,11,14,0,1.93-1.47,1.93-5.43,1.93-3.29,0-6.46-.45-9.75-.45-7.36,0-10.08.45-12.68.45-2.38,0-5.21.34-5.21-1.7,0-3.85,8.83-.11,8.15-12.69l-1.7-34.32c-.11-3.4-.22-5.1-.9-5.1-.46,0-1.82,2.27-3.52,6l-21.41,44.74c-.68,1.47-1.13,3.17-2.94,3.17s-2.27-1.92-2.83-3.17l-22-48.82c-.34-.68-.79-1.93-1.25-1.93-.79,0-.79,2-.79,2.83Z" fill="#0000f8"/><path d="M540.15,217.42c0,4.87,0,5.66,4.87,5.66h7.14c9.74,0,10.08-10.42,12.34-10.42.8,0,2-.22,2.16,2.84l.79,20.16c.11,1.47.79,5.55-1.93,5.55-3.62,0-.45-12-12.23-12h-8.38c-5.21,0-4.76,1.36-4.76,7.93v14.5c0,7-.45,11.1,7.7,11.1,28.1,0,26.51-14.84,30.81-14.84.46,0,1.25.34,1.25,2.5,0,8.83-6.68,18.12-16,18.12-17.22,0-24-.45-29.68-.45-3.51,0-8.27.45-14.5.45-1.47,0-2.15-.57-2.15-1.25,0-5.21,8.6.91,8.6-12.91v-53c0-10.19-12.8-6.57-12.8-11.1,0-1,.91-1.92,2.5-1.92,4.64,0,12.8.45,30.13.45,8,0,15.86-.45,25.83-.45a2.17,2.17,0,0,1,2.26,2.15l.46,11.21c.11,1.48.68,5.22-1.93,5.22-5.32,0,3.51-13.26-18.35-13.26-13.71,0-14.16.12-14.16,7.93Z" fill="#0000f8"/><path d="M592.26,202.58c0-12.69-12.35-8.5-12.35-12.57,0-1.14,1.13-1.7,2.49-1.7,5.21,0,6.12.45,13.26.45,7.59,0,15.29-.45,22.88-.45,24.81,0,27.07,16,27.07,21.18A17.27,17.27,0,0,1,639,223.65c-3.28,2.61-6.57,3.63-6.57,4.76,0,.68,9.63,17.1,17.79,31.38,1,1.81,3.17,1.81,4.08,1.81,1.13,0,2.26-.68,3.39-.68a1.58,1.58,0,0,1,1.7,1.59c0,3.51-7.47,6-12,6-8.95,0-12.58-7.14-16.09-13.71l-9.52-17.89c-2.6-5-4.64-6-10.3-6-6,0-5.33.79-5.33,4.76v19.6c0,12.12,11.22,7.47,11.22,11.55,0,1-.91,1.7-3.52,1.7-1.92,0-5-.45-9.74-.45-6.11,0-11.78.45-17.44.45-1.25,0-3.63.34-3.63-1.93,0-3.62,9.18.12,9.18-14.16Zm13.93,20.28c0,2.83,4.19,2.83,7.59,2.83,17.22,0,17.9-6.34,17.9-13,0-11.1-6.34-19.48-17.79-19.48-4.19,0-7.7,0-7.7,6.8Z" fill="#0000f8"/><path d="M686.62,254.46c0,13.94,12.69,8.73,12.69,12.35,0,1.25-1,1.7-3.63,1.7-4.19,0-8.38-.45-17.22-.45-4.87,0-9.74.45-12.68.45a1.21,1.21,0,0,1-1.25-1.36c0-4,8.16-1,8.16-11.78V201c0-10.31-12.81-7.14-12.81-11.11,0-1.92,2.84-1.58,3.86-1.58,4.41,0,8.83.45,12.8.45s8.15-.45,14.61-.45c3.4,0,4,.22,4,1.58,0,3.86-8.5-.22-8.5,10.54Z" fill="#0000f8"/><path d="M774.41,212.66c.11,1.14.57,3.74-1.36,3.74s-2.6-2.38-3.4-3.85C764,201.67,754,191.82,740.88,191.82c-16.65,0-25.83,15.86-25.83,31,0,16,9.06,38.4,30.7,38.4,17.56,0,25.26-14.84,28.21-14.84.56,0,1.58.57,1.58,1.25,0,4.53-12,21.63-36.13,21.63-33.19,0-38.29-29-38.29-38,0-19,11.67-44.06,40.21-44.06,13.71,0,22.43,6.91,25.83,6.91,2.15,0,2.27-3.74,3.85-3.74.57,0,1.36.11,1.36.68Z" fill="#0000f8"/><path d="M805.11,240.64c-1.93,0-4.31.46-6.91,7.93-.79,2.27-2.38,6.23-2.38,8.95,0,8.16,12.23,6.35,12.23,9.4,0,2.38-3.51,1.59-5.89,1.59-3.62,0-7-.45-10.64-.45-3.4,0-6.69.45-10,.45-1.59,0-3.4.23-3.4-1.25,0-2.6,5.78-1.92,8.61-8.26l30.7-68.54c.79-1.81,1.36-4,2.83-4,1,0,1.25.22,2.72,3.62l30.58,69.33c3.63,8,9.75,3.62,9.75,7.36,0,1.93-1,1.7-4.08,1.7-4.08,0-7.14-.45-14.62-.45-5,0-9.17.45-12.46.45-2,0-3.51.23-3.51-1.36,0-3.28,8-2,8-8.95,0-2.49-.79-4.53-2-7.59-3.74-8.83-4.31-10-7.25-10Zm18.8-6.11c2,0,3.63.11,3.63-1a10.48,10.48,0,0,0-1.25-4.19L817,208.81c-.68-.9-.34-.9-.9-.9-.23,0-.68.11-1.25,1.35l-8.72,20.06a10.48,10.48,0,0,0-1.25,4.19c0,1.13,1.59,1,3.63,1Z" fill="#0000f8"/><path d="M874.78,210.06c0-21.75-12.69-14.39-12.69-19.83a1.78,1.78,0,0,1,1.93-1.92c2.15,0,4.19.45,6.34.45,2.94,0,5.89-.45,11.89-.45,3.63,0,2.27.79,4.31,2.94l45.54,50c1.47,1.59,2.83,2.95,3.51,2.95s.91-1.36.91-4.2V202.24c0-10.31-13.82-8.27-13.82-12a1.73,1.73,0,0,1,1.81-1.92c1.81,0,5.1.45,12.91.45,7.14,0,11.1-.45,12.12-.45,2.16,0,2.16,1.13,2.16,1.47,0,3.4-9.63.68-9.63,12.57v63.56c0,2.49,0,3.39-1.36,3.39a3.4,3.4,0,0,1-3-1.58l-54.49-58.91c-.79-.9-1.47-1.47-2-1.47s-.9.79-.9,1.81v38.52c0,21.75,14.5,14,14.5,19.37,0,1.58-2.83,1.47-4.31,1.47-5.55,0-9.4-.45-13.36-.45-3.63,0-6.69.45-9.75.45-1.24,0-3.51.57-3.51-1.36,0-4.53,10.88-2.49,10.88-14Z" fill="#0000f8"/><path d="M188.91,150.31l-.35-.2a1.24,1.24,0,0,1-.64-1.09V136.26a1.26,1.26,0,0,0-1.26-1.26h-51.9a1.25,1.25,0,0,0-1.26,1.26v14.45a1.26,1.26,0,0,0,1.9,1.08l1-.63a1.39,1.39,0,0,1,.28-.12l5.41-1.65a1.33,1.33,0,0,1,.4,0l5.92.15a1.33,1.33,0,0,1,.55.15l2.07,1.09a1.26,1.26,0,0,1,.67,1.11V155a1.26,1.26,0,0,1-1.2,1.26l-2.38.1a1.31,1.31,0,0,0-.48.12l-2.74,1.3a1.3,1.3,0,0,0-.56.53l-1.32,2.37a1.38,1.38,0,0,0-.16.6l-.08,13.88v.09l-.65,8.9a2.74,2.74,0,0,1-.05.28L139,194.59a1.42,1.42,0,0,1-.23.44l-2.56,3.08a1.26,1.26,0,0,0,1,2.06h13.64a1.26,1.26,0,0,0,1.13-1.82l-2.47-5a1.28,1.28,0,0,1-.12-.61l.38-10a1.26,1.26,0,0,0-.18-.71l-2-3.22a1.3,1.3,0,0,1-.17-.44l-.51-2.8a1.25,1.25,0,0,1,.33-1.09l.41-.44a1.26,1.26,0,0,1,1.49-.25l1.23.64a1.23,1.23,0,0,1,.53.53l2.91,5.52a1.35,1.35,0,0,1,.15.62l-.16,6.07a1.27,1.27,0,0,0,0,.2l.7,5.13a1.37,1.37,0,0,0,.19.51l4.15,6.52a1.26,1.26,0,0,0,1.06.58H185a1.26,1.26,0,0,0,.94-2.09,1,1,0,0,1-.12-.17l-2.61-4.19a1.08,1.08,0,0,1-.13-.29l-2.52-8.11,0-.14L178.93,177c0-.06,0-.13,0-.19l-.33-9.49V161a1.32,1.32,0,0,0-.23-.74l-1.68-2.32a1.29,1.29,0,0,0-.66-.47l-2.92-.88a1.29,1.29,0,0,1-.46-.25l-1.2-1a1.27,1.27,0,0,1-.43-.95v-2.75a1.26,1.26,0,0,1,1.26-1.26h11.53a1.27,1.27,0,0,1,.81.3l2.47,2.06a1.25,1.25,0,0,0,1.56,0l.43-.32A1.26,1.26,0,0,0,188.91,150.31Z" fill="#fff"/><path d="M158.83,202.42l-2.25,1v2.88a.85.85,0,0,0,0,.23l.56,2.55,2.08,1.09,2.79-.84.46-2.91-1.17-3.09Z" fill="#fff"/></svg>