<svg xmlns="http://www.w3.org/2000/svg" viewBox="0 0 360 111.56"><title>Artboard 1</title><path d="M68.53,34.57A34,34,0,1,1,34.57.62a34,34,0,0,1,34,34" fill="#005893"/><path d="M68.53,34.57A34,34,0,1,1,34.57.62a34,34,0,0,1,34,34Z" fill="none" stroke="#005893" stroke-width="0.62"/><polygon points="68.51 34.57 45.4 36.77 65.86 47.74 43.73 40.75 58.41 58.73 40.63 43.81 47.28 66.05 36.66 45.43 34.57 68.51 32.37 45.4 21.41 65.86 28.39 43.74 10.41 58.41 25.33 40.63 3.1 47.28 23.71 36.66 0.63 34.57 23.74 32.37 3.29 21.4 25.41 28.39 10.73 10.41 28.51 25.33 21.86 3.1 32.48 23.71 34.57 0.63 36.77 23.74 47.74 3.29 40.75 25.41 58.73 10.74 43.81 28.51 66.04 21.86 45.42 32.48 68.51 34.57" fill="#fff"/><path d="M80.73,56.56c2.9-.12,5.12-.18,7.7-.18s4.57.06,7.34.18A1.2,1.2,0,0,0,95.89,55l-1.29-.18c-3.58-.5-3.7-1.24-3.7-7.71V39.37c0-1.3.12-1.36,2.9-1.36,2.46,0,3.45.62,4.37,2,1.91,2.78,4.44,7,6,9.31,4.38,6.22,7.52,7.77,12.76,7.77a9.73,9.73,0,0,0,2.71-.31.52.52,0,0,0-.06-.87,7.39,7.39,0,0,1-4.25-1.72c-4.19-3.51-7.46-8.44-12.39-16.4-.31-.49-.62-1.1-.31-1.47,3.08-1.24,7.71-4.44,7.71-10.3a9.19,9.19,0,0,0-5.12-8.63c-2.84-1.54-6.47-1.85-10.29-1.85-6,0-10.29.19-13.75.5a1,1,0,0,0-.06,1.54l2,.24c2.53.31,2.72,1.36,2.72,7.22V47.13c0,6.47-.13,7.27-3.7,7.71L80.61,55A1.19,1.19,0,0,0,80.73,56.56ZM90.9,19.4c0-1.73.19-2,4-2,6.84,0,9.86,4.63,9.86,9.5,0,4.19-1.42,6.34-3.08,7.64s-4.13,1.6-6.35,1.6c-3.15,0-4.07-.12-4.25-.31a4.69,4.69,0,0,1-.19-2Z" fill="#231f20"/><path d="M129.17,57.24c3.21,0,7.65-1.54,9.68-5.73a.81.81,0,0,0-1.11-.74c-1.91,2.4-3.64,3-5.67,3-6.59,0-10.23-5.3-10.23-11.53,0-1.54.06-1.66,1.66-1.66h11.41c2.58,0,3.45-.06,3.63-.43a3.85,3.85,0,0,0,.25-1.6c0-3.7-3.45-7.34-8.76-7.34-7.39,0-12.38,6.35-12.38,13.93a13.07,13.07,0,0,0,2.59,8A11.05,11.05,0,0,0,129.17,57.24Zm.19-24.16c3.57,0,4.74,2.16,4.74,3.88,0,.8-.18,1-.37,1.17-.49.37-1.85.62-6.41.62H123c-.43,0-.43-.18-.43-.31C122.58,36.41,125.72,33.08,129.36,33.08Z" fill="#231f20"/><path d="M141,56.56c1.72-.12,3.57-.18,5.79-.18s3.94.06,5.61.18a1.08,1.08,0,0,0,.12-1.54l-1.11-.18c-2.22-.37-2.34-.93-2.34-5.36V40c0-1.78.12-2.65.92-3.69a6.74,6.74,0,0,1,5.24-2.16c4.19,0,5.8,2.59,5.8,6.1v9.19c0,4.43-.07,5-2.35,5.36l-1.17.18a1.08,1.08,0,0,0,.13,1.54c1.66-.12,3.51-.18,5.73-.18s3.94.06,5.79.18a1.08,1.08,0,0,0,.13-1.54l-1.36-.18c-2.22-.31-2.34-.93-2.34-5.36V38.87c0-4.12-2.1-7.64-7.21-7.64-3.15,0-6,1.54-8.63,3.15a.65.65,0,0,1-.68-.68c0-.56,0-1.48.12-2.9a.71.71,0,0,0-.67-.43,33.89,33.89,0,0,1-6.17,3,.84.84,0,0,0-.06,1.11l.56.37c1.66,1.11,1.66,1.41,1.66,3.82V49.48c0,4.43-.06,5.05-2.34,5.36l-1.3.18A1.08,1.08,0,0,0,141,56.56Z" fill="#231f20"/><path d="M185,41.83c0,.93-.12,1.48-1,1.79l-7.33,2.65c-3.95,1.42-5.12,2.83-5.12,5.24a5.77,5.77,0,0,0,1.91,4.31,6.37,6.37,0,0,0,4.32,1.42,9.16,9.16,0,0,0,4.44-1.54,9.33,9.33,0,0,1,2.4-1.23c.37,0,.74.49,1,.86a4.92,4.92,0,0,0,4,1.91,6.47,6.47,0,0,0,5.18-2.71c0-.43-.19-.8-.43-.8a2.35,2.35,0,0,0-.8.43,3.63,3.63,0,0,1-1.54.37c-2.41,0-3-2.53-2.84-5.36l.37-10.73c.18-4.62-2-7.21-6.41-7.21s-11.46,4.38-11.46,7.58a.77.77,0,0,0,.86.86A6.62,6.62,0,0,0,176,38.5c.5-.37.56-1.11.62-2.09.12-1.91,2.22-2.77,3.94-2.77,3.82,0,4.56,3.08,4.5,5.36Zm-.31,8.2c-.06,1.29-.06,2.16-.8,2.9a7,7,0,0,1-3.76,1.54,3.71,3.71,0,0,1-3.88-3.7c0-2.4,1.79-3.33,5.42-4.56a11.72,11.72,0,0,1,2.53-.62c.37,0,.61.12.61.8Z" fill="#231f20"/><path d="M200.6,24.33a3,3,0,0,0,3.27-3.21,3.08,3.08,0,0,0-3.08-3.2,3.2,3.2,0,0,0-3.33,3.33A3,3,0,0,0,200.6,24.33Z" fill="#231f20"/><path d="M195.24,56.56c1.73-.12,3.57-.18,5.79-.18s3.95.06,5.8.18A1.08,1.08,0,0,0,207,55l-1.29-.18c-2.22-.31-2.34-.93-2.34-5.37V38.38c0-2.53.12-5.48.24-7.64a.56.56,0,0,0-.61-.37,42.5,42.5,0,0,1-6.35,3,.84.84,0,0,0-.06,1.11l.55.37c1.66,1.11,1.66,1.41,1.66,3.82V49.47c0,4.44-.06,5.06-2.34,5.37l-1.29.18A1.08,1.08,0,0,0,195.24,56.56Z" fill="#231f20"/><path d="M216.26,57.24c4.56,0,8.87-2.34,8.87-7,0-4.37-3-6.47-6.29-8.32-2.15-1.23-4.74-2.59-4.74-5.11A3.64,3.64,0,0,1,218,33c2.53,0,4.38,1.79,5.43,4.5a1.08,1.08,0,0,0,1.48-.19,14.53,14.53,0,0,0-1-5c-.56-.49-2.83-1.11-5.42-1.11-4.69,0-8.39,2.53-8.39,7,0,3.39,2.53,5.54,6.11,7.58,2.28,1.29,4.74,2.83,4.74,5.67,0,2.65-1.91,3.94-4.13,3.94-3.51,0-5.48-3-6.53-6.35a1,1,0,0,0-1.42.07,18.46,18.46,0,0,0,.74,6.22C211.2,56.62,213.36,57.24,216.26,57.24Z" fill="#231f20"/><path d="M237.27,41.89c-2.15-1.23-4.74-2.59-4.74-5.11A3.64,3.64,0,0,1,236.47,33c2.53,0,4.38,1.79,5.43,4.5a1.06,1.06,0,0,0,1.47-.19,14.53,14.53,0,0,0-1-5c-.56-.49-2.84-1.11-5.42-1.11-4.69,0-8.39,2.53-8.39,7,0,3.39,2.53,5.54,6.1,7.58,2.29,1.29,4.75,2.83,4.75,5.67,0,2.65-1.91,3.94-4.13,3.94-3.51,0-5.48-3-6.53-6.35a1,1,0,0,0-1.42.07,18.46,18.46,0,0,0,.74,6.22c1.54,1.23,3.7,1.85,6.59,1.85,4.56,0,8.88-2.34,8.88-7C243.56,45.84,240.54,43.74,237.27,41.89Z" fill="#231f20"/><path d="M268.89,53.73a2.55,2.55,0,0,0-.8.43,3.59,3.59,0,0,1-1.54.37c-2.41,0-3-2.53-2.84-5.36l.37-10.73c.19-4.62-2-7.21-6.41-7.21s-11.46,4.38-11.46,7.58a.78.78,0,0,0,.86.86,6.65,6.65,0,0,0,3.52-1.17c.49-.37.55-1.11.61-2.09.13-1.91,2.22-2.77,4-2.77,3.82,0,4.56,3.08,4.49,5.36l-.06,2.83c0,.93-.12,1.48-1,1.79l-7.34,2.65c-3.94,1.42-5.11,2.83-5.11,5.24A5.77,5.77,0,0,0,248,55.82a6.32,6.32,0,0,0,4.31,1.42,9.12,9.12,0,0,0,4.44-1.54,9.33,9.33,0,0,1,2.4-1.23c.37,0,.74.49,1,.86a4.91,4.91,0,0,0,4,1.91,6.45,6.45,0,0,0,5.18-2.71C269.32,54.1,269.14,53.73,268.89,53.73ZM259.28,50c-.07,1.29-.07,2.16-.81,2.9a7,7,0,0,1-3.75,1.54,3.72,3.72,0,0,1-3.89-3.7c0-2.4,1.79-3.33,5.43-4.56a11.67,11.67,0,0,1,2.52-.62c.37,0,.62.12.62.8Z" fill="#231f20"/><path d="M296.81,54.84c-2.22-.31-2.34-.93-2.34-5.36V38.87c0-4.12-2.1-7.64-7.21-7.64-3.15,0-6,1.54-8.63,3.15a.65.65,0,0,1-.68-.68c0-.56,0-1.48.12-2.9a.71.71,0,0,0-.67-.43,33.89,33.89,0,0,1-6.17,3,.84.84,0,0,0-.06,1.11l.56.37c1.66,1.11,1.66,1.41,1.66,3.82V49.48c0,4.43-.06,5.05-2.34,5.36l-1.3.18a1.07,1.07,0,0,0,.13,1.54c1.72-.12,3.57-.18,5.79-.18s3.94.06,5.61.18A1.08,1.08,0,0,0,281.4,55l-1.11-.18c-2.22-.37-2.34-.93-2.34-5.36V40c0-1.78.12-2.65.92-3.69a6.74,6.74,0,0,1,5.24-2.16c4.19,0,5.8,2.59,5.8,6.1v9.19c0,4.43-.06,5-2.35,5.36l-1.17.18a1.08,1.08,0,0,0,.13,1.54c1.66-.12,3.51-.18,5.73-.18s3.94.06,5.79.18a1.07,1.07,0,0,0,.12-1.54Z" fill="#231f20"/><path d="M321.64,50.09a7.49,7.49,0,0,1-6.84,3.7c-6.59,0-9.92-5.73-9.92-10.54,0-6.53,4.19-9.92,8.51-9.92a8.39,8.39,0,0,1,6.16,3.26,1.08,1.08,0,0,0,.86.43c.74,0,1.36-1.17,1.36-2.28a3.5,3.5,0,0,0-.92-2.46,15.41,15.41,0,0,0-5.49-1.05c-10.23,0-14.91,7.09-14.91,13.75A12.27,12.27,0,0,0,304,54.1a12,12,0,0,0,8.44,3.14A11.22,11.22,0,0,0,322.75,51,1,1,0,0,0,321.64,50.09Z" fill="#231f20"/><path d="M343.65,50.77c-1.91,2.4-3.64,3-5.67,3-6.59,0-10.23-5.3-10.23-11.53,0-1.54.06-1.66,1.66-1.66h11.41c2.58,0,3.45-.06,3.63-.43a3.85,3.85,0,0,0,.25-1.6c0-3.7-3.46-7.34-8.75-7.34-7.4,0-12.39,6.35-12.39,13.93a13.12,13.12,0,0,0,2.58,8,11.06,11.06,0,0,0,8.94,4.07c3.21,0,7.64-1.54,9.68-5.73A.81.81,0,0,0,343.65,50.77Zm-8.38-17.69c3.57,0,4.74,2.16,4.74,3.88,0,.8-.18,1-.37,1.17-.49.37-1.85.62-6.41.62h-4.37c-.44,0-.44-.18-.44-.31C328.49,36.41,331.63,33.08,335.27,33.08Z" fill="#231f20"/><path d="M110.68,71.68c-4-1.47-8.38-1.84-13.56-1.84s-10.23.18-15.47.49a.93.93,0,0,0-.06,1.54l1.36.18c2.59.37,2.9,1.67,2.9,6v23.43c0,6.47-.13,7.2-3.7,7.7l-1.42.18a1.19,1.19,0,0,0,.12,1.54c2.9-.12,5.12-.18,7.71-.18,2.16,0,6.1.49,10,.49,4.75,0,9.8-.8,13.81-3a20.2,20.2,0,0,0,10.78-18.36C123.19,81.73,119,74.71,110.68,71.68Zm-11,37.6c-3.88,0-6.22-.62-7.58-2.53-1-1.47-1.23-3.45-1.23-6.71V77.29c0-2.77.12-4.31.62-4.68s2.46-.86,6.1-.86C113.77,71.75,117,83.21,117,90,117,101.46,111.67,109.28,99.71,109.28Z" fill="#231f20"/><path d="M146.43,105.09c-1.91,2.4-3.64,3-5.67,3-6.59,0-10.23-5.3-10.23-11.53,0-1.54.06-1.66,1.66-1.66H143.6c2.58,0,3.45-.06,3.63-.43a3.85,3.85,0,0,0,.25-1.6c0-3.7-3.45-7.34-8.75-7.34-7.4,0-12.39,6.35-12.39,13.93a13.07,13.07,0,0,0,2.59,8,11,11,0,0,0,8.93,4.07c3.21,0,7.65-1.54,9.68-5.73A.82.82,0,0,0,146.43,105.09ZM138.05,87.4c3.57,0,4.74,2.16,4.74,3.88,0,.8-.18,1-.37,1.17-.49.37-1.85.62-6.41.62h-4.37c-.43,0-.43-.18-.43-.31C131.27,90.73,134.41,87.4,138.05,87.4Z" fill="#231f20"/><path d="M176.57,109.16c-2.22-.31-2.34-.93-2.34-5.36V93.19c0-4.13-2.1-7.64-7.21-7.64-3.15,0-6,1.54-8.63,3.15a.65.65,0,0,1-.68-.68c0-.56,0-1.48.12-2.9a.71.71,0,0,0-.67-.43,33.89,33.89,0,0,1-6.17,3,.84.84,0,0,0-.06,1.11l.55.37c1.67,1.11,1.67,1.42,1.67,3.82V103.8c0,4.43-.06,5-2.34,5.36l-1.3.18a1.07,1.07,0,0,0,.13,1.54c1.72-.12,3.57-.18,5.79-.18s3.94.06,5.61.18a1.08,1.08,0,0,0,.12-1.54l-1.11-.18c-2.22-.37-2.34-.93-2.34-5.36V94.36c0-1.78.12-2.65.92-3.69a6.74,6.74,0,0,1,5.24-2.16c4.19,0,5.8,2.59,5.8,6.1v9.19c0,4.43-.06,5-2.35,5.36l-1.17.18a1.07,1.07,0,0,0,.13,1.54c1.66-.12,3.51-.18,5.73-.18s3.94.06,5.79.18a1.07,1.07,0,0,0,.12-1.54Z" fill="#231f20"/><path d="M189.08,89h7a2,2,0,0,0-.06-2.59h-6.84c-1,0-1.11-.06-1.11-1.17V82.47c-.24-.43-1-.43-1.29-.31a15.49,15.49,0,0,1-2.59,3.64,12.29,12.29,0,0,1-4,1.91,1,1,0,0,0,.19,1.29h1.72c1.24,0,1.3.13,1.3,1.79V104.9c0,3.7,1.11,6.66,6.41,6.66a8.55,8.55,0,0,0,6.47-2.83c.12-.37-.12-1-.62-1-.18,0-1,.68-1.54.86a4.54,4.54,0,0,1-1.66.31c-4.07,0-4.5-3.27-4.5-6.84V90.48C188,89.19,188,89,189.08,89Z" fill="#231f20"/><path d="M220.82,108.85c0-.43-.18-.8-.43-.8s-.49.24-.8.43a3.63,3.63,0,0,1-1.54.37c-2.41,0-3-2.53-2.84-5.36l.37-10.73c.19-4.62-2-7.21-6.41-7.21s-11.46,4.38-11.46,7.58a.78.78,0,0,0,.86.87,6.61,6.61,0,0,0,3.51-1.18c.5-.37.56-1.11.62-2.09.12-1.91,2.22-2.77,4-2.77,3.82,0,4.56,3.08,4.49,5.36l-.06,2.83c0,.93-.12,1.48-1.05,1.79l-7.33,2.65c-3.94,1.42-5.11,2.84-5.11,5.24a5.76,5.76,0,0,0,1.91,4.31,6.32,6.32,0,0,0,4.31,1.42,9.12,9.12,0,0,0,4.44-1.54,9.33,9.33,0,0,1,2.4-1.23c.37,0,.74.49,1,.86a4.91,4.91,0,0,0,4,1.91A6.47,6.47,0,0,0,220.82,108.85Zm-10-4.5c-.06,1.3-.06,2.16-.79,2.9a7,7,0,0,1-3.77,1.54,3.71,3.71,0,0,1-3.88-3.7c0-2.4,1.79-3.33,5.43-4.56a11.54,11.54,0,0,1,2.52-.62c.37,0,.62.13.62.8Z" fill="#231f20"/><path d="M231.17,109.16c-2.22-.31-2.34-.93-2.34-5.37V74.64c0-2.71.12-5.79.19-7.64a.68.68,0,0,0-.62-.37,43.65,43.65,0,0,1-6.66,2.59,1,1,0,0,0,0,1.23l.62.37c1.85,1.11,1.91,1.48,1.91,5.12v27.85c0,4.44-.06,5.06-2.34,5.37l-1.42.18a1.08,1.08,0,0,0,.12,1.54c1.85-.12,3.7-.18,5.92-.18s3.95.06,6,.18a1.08,1.08,0,0,0,.12-1.54Z" fill="#231f20"/><path d="M349.78,53.07c-1-.38-1.41-.72-1.41-1.38,0-.48.35-1.07,1.34-1.07a2.48,2.48,0,0,1,1.34.34l.27-.76a3.29,3.29,0,0,0-1.58-.35,2.07,2.07,0,0,0-2.32,1.95c0,1,.73,1.61,1.89,2,1,.36,1.35.75,1.35,1.41s-.54,1.22-1.49,1.22a3.05,3.05,0,0,1-1.64-.47l-.26.79a3.85,3.85,0,0,0,1.83.47c1.7,0,2.51-1,2.51-2.08S351,53.55,349.78,53.07Z" fill="#231f20"/><path d="M359.55,50h-1.18l-1.27,3.46c-.32.91-.57,1.7-.77,2.41h0c-.19-.73-.43-1.52-.71-2.41L354.36,50h-1.18l-.5,7.16h.89l.18-3.08c.08-1.07.13-2.27.15-3.17h0c.2.86.49,1.78.83,2.8l1.16,3.41h.7l1.27-3.47c.36-1,.64-1.89.91-2.74h0c0,.9.05,2.1.11,3.1l.18,3.15H360Z" fill="#231f20"/></svg>