<svg xmlns="http://www.w3.org/2000/svg" viewBox="0 0 554.06 81.86"><title>spectera_black</title><path d="M91.15,39c0-8.52-2.16-15.65-5.08-17.55v0a.05.05,0,0,1,0,0l0,0v0c-2.92,1.9-5.09,9-5.09,17.55S83.08,54.67,86,56.57v.06l0,0,0,0v-.06c2.92-1.9,5.08-9,5.08-17.55" fill="#231f20"/><path d="M86.84,67.77c-10.82-8.16-40-24-68.33-26.84C46.83,38.06,76,22.24,86.84,14.08c2-1.54,5.62-15.54,3.6-13.95C45.85,35.32,6.31,41.14,0,40.71l1.88.22c-.63.07-1.26.13-1.88.22,6.31-.43,45.85,5.38,90.44,40.58,2,1.59-1.55-12.41-3.6-14" fill="#231f20"/><path d="M158.56,67c-9.11,0-15.28-4.05-18.22-10.86-.46-1-.28-1.19.37-1.47l2.67-1.1c1-.46,1.1-.46,1.47.46,2.2,5.15,6.71,8.65,13.8,8.65,8.1,0,12.24-3.13,12.24-8.56,0-4.23-1.48-7.82-13.07-10.21C147,41.68,142,38.64,142,30c0-7.45,5.53-12.6,16.38-12.6,9.2,0,14.26,4.69,16.57,10.39.27.74.27,1-.74,1.48l-2.3,1.1c-.74.37-1-.09-1.38-.92-1.93-4.6-5.8-7.73-12.33-7.73-8.56,0-11.41,3.77-11.41,8.19,0,4.88,3.41,7.45,12.33,9.2,12,2.3,16.65,7.27,16.65,13.9,0,9.47-6.81,14-17.2,14" fill="#231f20"/><path d="M211.65,66.25A19.83,19.83,0,0,1,194.53,57V79.59c0,.92-.09,1.1-.73,1.1h-3.41c-.46,0-.55-.18-.55-.92V19.69c0-.65.09-.74.55-.74H194c.46,0,.55.09.55.92v7.36c2.95-5.24,8.93-9.2,17.39-9.2,13.16,0,22.73,9.2,22.73,23.46,0,14.63-8.93,24.76-23,24.76m.27-43.8c-11.5,0-17.66,7.91-17.66,19.41,0,12.24,8.09,20.06,17.66,20.06,10.22,0,17.94-7.36,17.94-20.24,0-11.32-8.28-19.23-17.94-19.23" fill="#231f20"/><path d="M291,43.43a1.78,1.78,0,0,1-1.47.46H251.3c.37,10,7.64,18.77,19.79,18.77a18.38,18.38,0,0,0,12.33-5,.55.55,0,0,1,.73.09,17,17,0,0,1,2.21,2.76c.18.28.55.55.18.83A23.64,23.64,0,0,1,270.9,67c-15.18,0-24.47-10-24.47-24.66,0-14.26,9.2-24.75,23.83-24.75,14.26,0,21.62,12.15,21.62,21.62,0,2.3-.09,3-.92,4.24M270.16,21.8a18.91,18.91,0,0,0-18.77,17.67h35.7c-.45-9.11-6.62-17.67-16.93-17.67" fill="#231f20"/><path d="M328.22,67c-14.35,0-24.57-10-24.57-24.66,0-14.26,9.76-24.75,24.57-24.75,10,0,17.21,4.69,20.8,12.24.18.46.27.73-.28,1.1l-3,1.66c-.45.28-.73.18-1.1-.46-3.31-6.63-9-10-16.47-10-11.41,0-19.41,8.83-19.41,20.24,0,11.23,8,20.15,19.41,20.15,7.91,0,14-3.86,17.21-10.49.18-.36.36-.46.92-.09L349,53.55a.72.72,0,0,1,.37,1C345.34,62,338.16,67,328.22,67" fill="#231f20"/><path d="M384.16,64.59a17.38,17.38,0,0,1-7.45,1.75c-5.43,0-10.21-4.15-10.21-11V23.46h-5.71c-.46,0-.64-.09-.64-.92V19.69c0-.37.18-.74.55-.74h5.8V8c0-.74.09-.92.73-.92h2.95c.92,0,1,.09,1,1.11V19h9.11c.64,0,.92,0,.92.37v3.31c0,.55-.64.83-1,.83h-9v31.1c0,5.61,3,7.18,6.07,7.18a11.73,11.73,0,0,0,5.89-1.66c.37-.28.65.09.83.83s.55,1.84.74,2.57.18.83-.56,1.11" fill="#231f20"/><path d="M438.09,43.43a1.77,1.77,0,0,1-1.47.46H398.43c.37,10,7.64,18.77,19.79,18.77a18.36,18.36,0,0,0,12.33-5c.18-.19.55-.1.74.09a17,17,0,0,1,2.2,2.76c.19.28.55.55.19.83A23.68,23.68,0,0,1,418,67c-15.19,0-24.48-10-24.48-24.66,0-14.26,9.2-24.75,23.83-24.75,14.26,0,21.62,12.15,21.62,21.62,0,2.3-.09,3-.92,4.24M417.3,21.8a18.91,18.91,0,0,0-18.77,17.67h35.7c-.46-9.11-6.63-17.67-16.93-17.67" fill="#231f20"/><path d="M481,30.36a5.23,5.23,0,0,1-1.66.18c-1-4.78-3.12-8.09-9.2-8.09s-11,4.6-12.51,12.05v30c0,.73-.19.92-.65.92h-3.49c-.46,0-.64-.19-.64-.83V19.69c0-.74,0-.74.73-.74h3.31c.46,0,.65.09.65.74v6.16c2.67-5.15,7.08-7.82,13.43-7.82,6.72,0,11.69,4.42,12.61,10a6.94,6.94,0,0,1-2.58,2.3" fill="#231f20"/><path d="M533.23,65.42h-3c-.55,0-.73-.19-.73-.92V57c-2.67,5.34-9.57,9.39-17.67,9.39-13.15,0-22.45-9.94-22.45-23.74,0-14.72,8.56-24.57,22-24.57a21,21,0,0,1,18.13,9.48V19.78c0-.74.18-.83.64-.83h3.22c.56,0,.74.19.74.64V64.4c0,.83-.18,1-.83,1M511.79,22.26c-10.21,0-17.67,7-17.67,20,0,11.13,8,19.78,17.67,19.78,11.5,0,17.94-8.28,17.94-19.78,0-12.33-8.37-20-17.94-20" fill="#231f20"/><path d="M542.72,14.4A5.93,5.93,0,0,1,544,12.54a6.05,6.05,0,0,1,1.89-1.23,6,6,0,0,1,4.56,0,5.8,5.8,0,0,1,3.14,3.09,5.7,5.7,0,0,1,.47,2.3,5.84,5.84,0,0,1-.47,2.35,6.12,6.12,0,0,1-1.27,1.87,6,6,0,0,1-8.32,0,6,6,0,0,1-1.28-1.87,5.84,5.84,0,0,1-.47-2.35A5.7,5.7,0,0,1,542.72,14.4Zm1,4.31a4.87,4.87,0,0,0,1,1.59,4.76,4.76,0,0,0,1.54,1.06,4.7,4.7,0,0,0,1.92.38,4.61,4.61,0,0,0,1.9-.38,4.78,4.78,0,0,0,2.55-2.65,5.29,5.29,0,0,0,.37-2,5.1,5.1,0,0,0-.37-2,4.67,4.67,0,0,0-1-1.58,4.85,4.85,0,0,0-1.53-1.05,4.61,4.61,0,0,0-1.9-.38,4.7,4.7,0,0,0-1.92.38,4.89,4.89,0,0,0-1.54,1.05,4.83,4.83,0,0,0-1,1.58,5.1,5.1,0,0,0-.37,2A5.29,5.29,0,0,0,543.69,18.71Zm4.84-5.41a2.85,2.85,0,0,1,1.82.48,1.82,1.82,0,0,1,.58,1.48,1.69,1.69,0,0,1-.51,1.36,2.4,2.4,0,0,1-1.29.51l2,3h-1.15l-1.86-2.95H547v2.95h-1.07V13.3Zm-.47,3,.69,0a2,2,0,0,0,.57-.13,1,1,0,0,0,.4-.34,1.17,1.17,0,0,0,.15-.64,1,1,0,0,0-.14-.55.92.92,0,0,0-.34-.31,1.48,1.48,0,0,0-.49-.15,3.27,3.27,0,0,0-.54,0H547v2.18Z" fill="#231f20"/></svg>