<svg xmlns="http://www.w3.org/2000/svg" viewBox="0 0 633.59 122.39"><title>stonebridge_color</title><path d="M73.86,76.53c-.87-.43-.93-.68-.93-2.36,0-3.1.25-5.58.31-6.57.06-.68.19-1,.5-1s.43.19.43.68a10.75,10.75,0,0,0,.19,2.3c.93,4.58,5,6.32,9.17,6.32,6,0,8.87-4.28,8.87-8.25,0-4.27-1.8-6.75-7.13-11.15l-2.79-2.3c-6.57-5.39-8.06-9.24-8.06-13.45,0-6.64,5-11.16,12.83-11.16a24.17,24.17,0,0,1,5.77.62,9.92,9.92,0,0,0,2.17.31c.49,0,.62.12.62.43s-.25,2.36-.25,6.57c0,1-.13,1.43-.44,1.43s-.43-.31-.49-.81a11,11,0,0,0-.81-3.1c-.37-.68-2-3.28-7.75-3.28-4.28,0-7.62,2.66-7.62,7.19,0,3.53,1.61,5.77,7.56,10.42l1.74,1.36c7.31,5.77,9,9.61,9,14.57A12.84,12.84,0,0,1,91.53,75.6a16.3,16.3,0,0,1-9.36,2.6A18.8,18.8,0,0,1,73.86,76.53Z"/><path d="M122,62c0,4.78.06,9.18.31,11.47.19,1.49.31,2.36,1.86,2.73a12,12,0,0,0,2.42.25c.49,0,.74.18.74.37s-.18.5-.8.5c-3.17,0-6.82-.19-7.07-.19s-3.91.19-5.52.19c-.68,0-.93-.13-.93-.44s.19-.43.68-.43a10.47,10.47,0,0,0,1.37-.06c1.18-.19,1.36-.93,1.61-3s.25-6.7.25-11.35V39.89c-2,0-5.33,0-7.81.06-4,.06-4.84.68-5.71,2a9.74,9.74,0,0,0-.93,1.92c-.18.43-.31.49-.56.49s-.31-.24-.31-.55.87-4.47,1.24-6.14c.19-.75.38-1,.56-1,.44,0,1.61.55,2.73.68,2.17.25,3.91.31,4,.31H130.4a27.39,27.39,0,0,0,4.47-.31A7.11,7.11,0,0,1,136,37.1c.25,0,.38.31.38.56,0,1.73-.13,5.83-.13,6.32s-.25.75-.43.75-.44-.25-.44-.75a7.33,7.33,0,0,0-.06-.87c-.25-2.48-1.05-3.1-7.31-3.16-2.36,0-4.28-.06-6.08-.06Z"/><path d="M140,57.31c0-8.24,6.39-20.58,21.7-20.58,12.28,0,21.64,7.31,21.64,19.78,0,11.84-8.74,21.51-21.95,21.51C146.21,78,140,66.73,140,57.31Zm37.51.74c0-12.46-7.69-19.4-16.18-19.4S145.78,44,145.78,55.7c0,12.15,6.76,20.21,17.17,20.21C167.11,75.91,177.52,73.8,177.52,58.05Z"/><path d="M194.14,39.27c0-1.92.19-2.54.68-2.54s1.49,1.24,1.92,1.67c.56.62,9.18,9.43,17.86,18.29,4.83,4.71,11,11.1,12.65,12.59l-.69-25.79c-.06-3.35-.43-4.47-2.1-4.9a15.27,15.27,0,0,0-2.42-.25c-.62,0-.75-.25-.75-.5s.5-.37,1.12-.37c2.67,0,5.27.19,5.83.19s2.54-.19,5-.19c.68,0,.87.06.87.37s-.19.44-.56.5-.87.06-1.55.19c-1.43.31-1.86.93-1.86,4.65L230,74.3c0,3.1-.12,3.41-.55,3.41s-1.06-.44-4.1-3.29c-.24-.12-8.86-8.68-14.26-14L196.87,45.72l.8,24.24c.13,4.28.5,5.89,2.05,6.26a10.65,10.65,0,0,0,2.54.25c.5,0,.75.18.75.43s-.31.44-1,.44c-3.34,0-5.58-.19-6-.19s-2.73.19-5.39.19c-.56,0-.93-.07-.93-.44s.24-.43.86-.43a6.19,6.19,0,0,0,1.93-.25c1.36-.43,1.67-2.11,1.67-6.63C194.14,40,194.2,49.56,194.14,39.27Z"/><path d="M247.21,52.72c0-8.12,0-9.61-.12-11.28s-.56-2.6-2.36-3a10.58,10.58,0,0,0-1.49-.12c-.43,0-.8-.19-.8-.37,0-.37.31-.5.93-.5,1.24,0,2.91.13,6.38.19.31,0,11.35,0,12.59-.06a9.33,9.33,0,0,0,2.42-.31,1.76,1.76,0,0,1,.68-.19c.12,0,.25.12.25.43a27.44,27.44,0,0,0-.5,2.79c-.06,1.06-.12,2-.19,3.23,0,.56-.12.93-.43.93s-.43-.25-.43-.68a6.08,6.08,0,0,0-.44-2c-.37-1.24-.93-1.67-4-1.86-.8-.06-6.94-.12-7.07-.12s-.3.12-.3.49V54.4c0,.37.06.62.37.62.74,0,7.06-.06,8.37-.19s2.35-.25,2.85-.93c.25-.37.43-.5.68-.5s.25.07.25.38-.25,1.48-.44,3.28-.18,3-.24,3.78c-.07.5-.19.69-.44.69s-.37-.38-.37-.81a6.67,6.67,0,0,0-.19-1.49c-.24-.8-.62-1.67-3-1.86-1.43-.12-6.45-.24-7.44-.24-.37,0-.43.18-.43.43v4.52c0,1.93-.07,7.38,0,8.44.12,2.29.43,3.47,1.73,4a11.9,11.9,0,0,0,4.53.55,18.2,18.2,0,0,0,4.71-.37c1.86-.56,2.29-1.8,2.79-4.09.12-.62.31-.87.56-.87s.37.56.37.93-.5,4.34-.68,5.4c-.25,1.24-.69,1.36-2.73,1.36-4.09,0-5.83-.12-8-.12s-5-.19-7.31-.19c-1.43,0-2.61.19-4.1.19-.55,0-.86-.13-.86-.44s.24-.43.55-.43a4.35,4.35,0,0,0,1.24-.19c1.12-.25,1.86-1,2-4.9.06-2.1.12-4.65.12-9.36Z"/><path d="M278.89,52.72c0-8.12,0-9.67-.12-11.34s-.56-2.54-2.42-2.92c-.49-.06-1.36-.12-1.49-.12-.55,0-.8-.19-.8-.43s.37-.44.93-.44c2.6,0,6.32.19,6.45.19,1.48,0,3.53-.19,5.95-.19,9.3,0,11.16,5.15,11.16,7.81,0,4.59-2.61,7.51-5.21,9.55,4.15,1.24,9.48,5,9.48,11.1,0,5.76-4.65,11.53-14.07,11.53-1,0-2.23-.12-3.84-.12s-3.23-.19-3.47-.19c-1.93,0-3.54.19-5.58.19-.56,0-.87-.13-.87-.38s.06-.49.87-.49a3.42,3.42,0,0,0,1.11-.13c1.06-.18,1.43-1.48,1.61-3A110.22,110.22,0,0,0,278.89,62Zm4.84,1.12c0,.43.12.5.31.62a17.14,17.14,0,0,0,3.1.18c3.16,0,4.09-.18,5.27-1.48a7.7,7.7,0,0,0,1.61-5c0-4.28-1.92-9.05-7.19-9.05a10.49,10.49,0,0,0-2.36.31c-.55.12-.74.24-.74.55Zm0,5.33c0,3.91,0,10.73.06,11.22.19,2.73.13,3.54,2,4.34a12.13,12.13,0,0,0,4.59.81c2.67,0,7.32-1.3,7.32-7,0-3.16-1.12-7.93-5.33-10.79a8.77,8.77,0,0,0-4.22-1.36,23.25,23.25,0,0,0-4.09,0c-.19,0-.31.06-.31.37Z"/><path d="M314,52.72c0-8.18,0-9.67-.12-11.34s-.56-2.61-2.48-3a10.58,10.58,0,0,0-1.49-.12c-.43,0-.68-.13-.68-.37s.19-.44.75-.44c2.66,0,6.44.19,6.57.19.55,0,4.77-.19,6.51-.19,3.47,0,7.25.31,10.16,2.36a9.41,9.41,0,0,1,3.72,7.56c0,3.41-1.67,7.75-6.57,11.72,4.53,5.58,8.25,10.17,11.41,13.45,3,3,4.84,3.54,6.57,3.78.44.07,1.74.13,1.92.13.5,0,.68.18.68.43s-.24.44-1.11.44h-4.34c-2.91,0-4.28-.19-5.64-.75-2.61-1.11-4.47-3.9-7.69-8.06-2.42-3-4.9-6.32-5.95-7.62a.89.89,0,0,0-.75-.38l-6.38-.06c-.25,0-.31.06-.31.31v.87a116.36,116.36,0,0,0,.31,11.72c.18,1.49.37,2.73,2.42,3a17.73,17.73,0,0,0,1.79.13c.56,0,.81.18.81.37s-.25.5-.87.5c-3.22,0-6.69-.19-6.94-.19-1,0-3.72.19-5.39.19-.62,0-.87-.13-.87-.5,0-.19.37-.37.74-.37a5,5,0,0,0,1.36-.13c1.06-.18,1.43-.86,1.62-2.35.31-2.23.24-7.32.24-12Zm4.78,4.41a.78.78,0,0,0,.31.74,16,16,0,0,0,5.52.8,7.25,7.25,0,0,0,4.15-.93c1.86-1.17,3.1-3.9,3.1-7.87,0-6.76-3.6-10.48-9.11-10.48a17.07,17.07,0,0,0-3.6.31.57.57,0,0,0-.37.56Z"/><path d="M353.54,52.72c0-8.18,0-9.67-.12-11.34s-.5-2.61-1.8-2.85c-.62-.13-1.05-.13-1.43-.19s-.68-.19-.68-.43.25-.44.93-.44c1.92,0,5.46.19,5.64.19s3.85-.19,5.58-.19c.62,0,.93.13.93.44s-.18.37-.68.43-.68.06-1.12.12c-1.79.25-2,1.18-2.1,3s-.07,3.1-.07,11.28V62c0,4.78-.06,9.12.25,11.35.25,1.8.5,2.48,2.11,2.85a14,14,0,0,0,2.36.25c.55.06.68.18.68.43s-.25.44-.87.44c-3.16,0-6.76-.19-7.07-.19s-3.84.19-5.58.19c-.55,0-1-.13-1-.44s.25-.43.81-.43a7.11,7.11,0,0,0,1.49-.19c1.05-.25,1.23-1.49,1.42-3A110.28,110.28,0,0,0,353.54,62Z"/><path d="M377.22,52.72c0-8.18,0-9.73-.12-11.34s-.62-2.54-2.42-2.92a15.8,15.8,0,0,0-1.8-.12c-.3,0-.62-.19-.62-.37,0-.37.38-.5.94-.5,2.54,0,6.44.19,6.63.19.43,0,3.66-.19,7.13-.19,5.45,0,15.62-.56,22.19,6.08a18.34,18.34,0,0,1,5.27,13.33,21.2,21.2,0,0,1-5.89,14.81c-2.41,2.42-7.13,6.08-16.55,6.08-2.36,0-5.39-.12-7.75-.31s-4.28-.31-4.46-.31-.93,0-2.11.06-2.67.13-3.6.13c-.56,0-.86-.13-.86-.44s.18-.43.68-.43a5.33,5.33,0,0,0,1.42-.19c1.06-.18,1.43-1.49,1.62-2.85.37-2.29.3-6.51.3-11.53ZM382.31,58c0,5.58.06,10.42.06,11.35.06,1.92.19,3.59.62,4.15.68,1.06,2.67,2.36,9.11,2.36,5.09,0,9.68-1.61,12.9-4.84,2.73-2.73,4-7.38,4-12.34a18.14,18.14,0,0,0-5.33-13.32c-5.27-5.27-11.35-5.89-17.49-5.89a10.74,10.74,0,0,0-3.16.43,1,1,0,0,0-.68,1c-.06,1.8-.06,7.07-.06,10.79Z"/><path d="M458.57,72.75c0,2.48-.07,2.54-.75,2.91-3.41,1.74-8.37,2.36-11.4,2.36-4,0-11.85-.31-18.17-5.58a19.55,19.55,0,0,1-6.69-15.07c0-8.43,4.27-14.44,9.36-17.48,4.77-2.79,10-3.16,13.82-3.16a47.44,47.44,0,0,1,8.87.87c1,.18,3.41.49,4.71.55.5,0,.5.25.5.5a68.3,68.3,0,0,0-.44,8.06c0,.87-.06,1.12-.5,1.12s-.37-.38-.43-.75a8,8,0,0,0-1.18-3.84c-1.42-2.05-5.89-4.34-12.83-4.34-3.35,0-7.25.12-11.41,3.28-3.16,2.42-5.2,7.13-5.2,13.27a21.42,21.42,0,0,0,5.64,14.38,19.28,19.28,0,0,0,14.07,5.77,15.38,15.38,0,0,0,5.89-1,2.1,2.1,0,0,0,1.05-1.86V63.76c0-4.09-.31-4.9-2.48-5.21a10.55,10.55,0,0,0-1.48-.12c-.5,0-.75-.25-.75-.44s.25-.43.93-.43c2.48,0,6.08.12,6.33.12s3.9-.12,5.58-.12c.61,0,.86.12.86.43s-.18.44-.74.44a6.65,6.65,0,0,0-1.06.06c-1.48.18-1.85,1.3-2,3.1s-.12,3.35-.12,5.58Z"/><path d="M474.32,52.72c0-8.12,0-9.61-.13-11.28s-.56-2.6-2.35-3a10.83,10.83,0,0,0-1.49-.12c-.44,0-.81-.19-.81-.37,0-.37.31-.5.93-.5,1.24,0,2.92.13,6.39.19.31,0,11.34,0,12.58-.06a9.33,9.33,0,0,0,2.42-.31,1.76,1.76,0,0,1,.68-.19c.13,0,.25.12.25.43s-.37,1.24-.5,2.79c-.06,1.06-.12,2-.18,3.23,0,.56-.13.93-.44.93s-.43-.25-.43-.68a6.13,6.13,0,0,0-.43-2c-.38-1.24-.93-1.67-4-1.86-.81-.06-6.95-.12-7.07-.12s-.31.12-.31.49V54.4c0,.37.06.62.37.62.75,0,7.07-.06,8.37-.19s2.36-.25,2.85-.93c.25-.37.44-.5.68-.5s.25.07.25.38-.25,1.48-.43,3.28-.19,3-.25,3.78c-.06.5-.19.69-.43.69s-.38-.38-.38-.81a7.23,7.23,0,0,0-.18-1.49c-.25-.8-.62-1.67-3-1.86-1.42-.12-6.44-.24-7.44-.24-.37,0-.43.18-.43.43v4.52c0,1.93-.06,7.38,0,8.44.12,2.29.43,3.47,1.73,4a11.93,11.93,0,0,0,4.53.55,18.16,18.16,0,0,0,4.71-.37c1.86-.56,2.3-1.8,2.79-4.09.13-.62.31-.87.56-.87s.37.56.37.93-.49,4.34-.68,5.4c-.25,1.24-.68,1.36-2.73,1.36-4.09,0-5.83-.12-8-.12s-5-.19-7.31-.19c-1.43,0-2.6.19-4.09.19-.56,0-.87-.13-.87-.44s.25-.43.56-.43a4.46,4.46,0,0,0,1.24-.19c1.11-.25,1.86-1,2-4.9.06-2.1.13-4.65.13-9.36Z"/><path d="M531.91,62.15c0,7.13.25,10.72,1.3,11.71s2.24,1.24,6.51,1.24c2.73,0,5.21,0,6.58-1.73a7.9,7.9,0,0,0,1.17-3.1c.07-.5.19-.75.5-.75s.37.19.37.81a40.1,40.1,0,0,1-.74,5.58c-.37,1.24-.31,1.55-3.29,1.55-4.21,0-8.86-.31-15.06-.31-2,0-3.29.19-5.46.19-.62,0-1-.13-1-.5,0-.19.19-.37.68-.37a5.78,5.78,0,0,0,1.49-.13c1-.18,1.43-1.42,1.61-2.91.37-2.36.25-6.63.25-11.41v-9.3c0-8.18,0-9.54-.12-11.22s-.38-2.85-2.48-3.1a12.47,12.47,0,0,0-1.55-.06c-.44,0-.69-.19-.69-.43s.31-.44.93-.44c2.61,0,6.33.19,6.45.19.87,0,4.65-.19,6.39-.19.62,0,.8.19.8.44s-.31.43-.68.43-1,.06-1.67.12c-1.74.25-2.11,1.24-2.24,3s-.06,3-.06,11.22Z"/><path d="M558.7,52.72c0-8.18,0-9.67-.13-11.34s-.49-2.61-1.8-2.85c-.62-.13-1-.13-1.42-.19s-.68-.19-.68-.43.25-.44.93-.44c1.92,0,5.45.19,5.64.19s3.84-.19,5.58-.19c.62,0,.93.13.93.44s-.19.37-.68.43-.69.06-1.12.12c-1.8.25-2,1.18-2.11,3s-.06,3.1-.06,11.28V62c0,4.78-.06,9.12.25,11.35.25,1.8.49,2.48,2.11,2.85a13.8,13.8,0,0,0,2.35.25c.56.06.68.18.68.43s-.24.44-.86.44c-3.17,0-6.76-.19-7.07-.19s-3.85.19-5.58.19c-.56,0-1-.13-1-.44s.25-.43.8-.43a7.11,7.11,0,0,0,1.49-.19c1-.25,1.24-1.49,1.43-3A110.28,110.28,0,0,0,558.7,62Z"/><path d="M582.38,52.72c0-8.12,0-9.61-.12-11.28s-.44-2.73-2.36-2.91c-.56-.07-1-.07-1.55-.13s-.81-.25-.81-.49.31-.44.93-.44c2.24,0,4.28.19,6.33.19.93,0,12.21,0,13.51-.06a9.51,9.51,0,0,0,2.79-.44,2.1,2.1,0,0,1,.62-.18c.19,0,.31.18.19.55a13.83,13.83,0,0,0-.37,1.93c-.25,1.61-.19,2.72-.31,4.34,0,.68-.19.93-.44.93s-.43-.31-.49-.75a5.22,5.22,0,0,0-1-3.1c-.8-.74-1.92-.8-3.47-.87-2.66-.06-5.08-.12-7.81-.12-.43,0-.56.12-.56.62v14c0,.31.07.56.44.56,2.54,0,5.52,0,7.56-.06,2.54-.06,3.35-.19,4.16-1.18.24-.31.37-.5.62-.5s.24.25.24.56-.24,1.36-.43,3.23a31.33,31.33,0,0,0-.25,3.59c0,.62-.12.93-.43.93s-.37-.37-.44-.93c-.06-.87-.18-3-3.22-3.35-1.24-.18-6.82-.18-7.81-.18-.37,0-.44.12-.44.55v4.34c0,4.16.07,7.88.13,10.36.06,3.1.49,3.53,2.23,3.78.8.12,1.36.19,1.92.25s.75.18.75.43-.19.44-.81.44c-3.22,0-6.63-.19-6.88-.19h-.44c-1.17.06-3.72.19-5,.19-.56,0-.87-.13-.87-.44s.13-.37.62-.43.93-.06,1.31-.13c1.42-.18,1.61-1.17,1.73-3.41s.25-6,.25-10.91Z"/><path d="M613.81,52.72c0-8.12,0-9.61-.12-11.28s-.56-2.6-2.36-3a10.55,10.55,0,0,0-1.48-.12c-.44,0-.81-.19-.81-.37,0-.37.31-.5.93-.5,1.24,0,2.91.13,6.39.19.31,0,11.34,0,12.58-.06a9.33,9.33,0,0,0,2.42-.31,1.76,1.76,0,0,1,.68-.19c.13,0,.25.12.25.43s-.37,1.24-.5,2.79c-.06,1.06-.12,2-.18,3.23,0,.56-.13.93-.44.93s-.43-.25-.43-.68a6.13,6.13,0,0,0-.43-2c-.38-1.24-.93-1.67-4-1.86-.81-.06-6.95-.12-7.07-.12s-.31.12-.31.49V54.4c0,.37.06.62.37.62.74,0,7.07-.06,8.37-.19s2.36-.25,2.85-.93c.25-.37.44-.5.68-.5s.25.07.25.38-.25,1.48-.43,3.28-.19,3-.25,3.78c-.06.5-.19.69-.43.69s-.38-.38-.38-.81a7.23,7.23,0,0,0-.18-1.49c-.25-.8-.62-1.67-3-1.86-1.42-.12-6.45-.24-7.44-.24-.37,0-.43.18-.43.43v4.52c0,1.93-.06,7.38,0,8.44.12,2.29.43,3.47,1.73,4a11.9,11.9,0,0,0,4.53.55,18.16,18.16,0,0,0,4.71-.37c1.86-.56,2.3-1.8,2.79-4.09.13-.62.31-.87.56-.87s.37.56.37.93-.49,4.34-.68,5.4c-.25,1.24-.68,1.36-2.73,1.36-4.09,0-5.83-.12-8-.12s-5-.19-7.31-.19c-1.43,0-2.61.19-4.09.19-.56,0-.87-.13-.87-.44s.25-.43.56-.43a4.46,4.46,0,0,0,1.24-.19c1.11-.25,1.86-1,2-4.9.06-2.1.12-4.65.12-9.36Z"/><path d="M220.36,101.89h2.16v15.78h-2.16Z"/><path d="M229.89,106.17h1.84v1.63a5.1,5.1,0,0,1,1.73-1.45,4.54,4.54,0,0,1,2-.44,3.35,3.35,0,0,1,3.31,1.71,6.11,6.11,0,0,1,.47,2.67v7.38h-2v-7.25a3.9,3.9,0,0,0-.32-1.7,1.88,1.88,0,0,0-1.86-1.07,3.58,3.58,0,0,0-1.13.14,2.86,2.86,0,0,0-1.4.94,2.9,2.9,0,0,0-.63,1.18,8.35,8.35,0,0,0-.14,1.73v6h-1.94Z"/><path d="M247.44,114.06a2.75,2.75,0,0,0,.49,1.48,3.12,3.12,0,0,0,2.59.94,3.91,3.91,0,0,0,1.93-.47,1.55,1.55,0,0,0,.83-1.44,1.22,1.22,0,0,0-.67-1.13,7.8,7.8,0,0,0-1.68-.55l-1.56-.39a7.64,7.64,0,0,1-2.2-.81,2.44,2.44,0,0,1-1.27-2.17,3.33,3.33,0,0,1,1.19-2.65,4.84,4.84,0,0,1,3.21-1,4.49,4.49,0,0,1,3.8,1.53,3.34,3.34,0,0,1,.71,2.08H253a2.18,2.18,0,0,0-.47-1.18,3.08,3.08,0,0,0-2.37-.76,2.88,2.88,0,0,0-1.7.42,1.28,1.28,0,0,0-.57,1.1,1.36,1.36,0,0,0,.75,1.2,4.86,4.86,0,0,0,1.3.47l1.3.31a10.12,10.12,0,0,1,2.84,1,2.57,2.57,0,0,1,1.13,2.33A3.51,3.51,0,0,1,254,117a5,5,0,0,1-3.59,1.12,4.89,4.89,0,0,1-3.68-1.16,4.4,4.4,0,0,1-1.16-2.89Z"/><path d="M263.38,106.17v7.63a3.3,3.3,0,0,0,.27,1.44,1.89,1.89,0,0,0,1.87,1,2.65,2.65,0,0,0,2.68-1.8,7.3,7.3,0,0,0,.39-2.65v-5.65h1.93v11.5H268.7l0-1.7a3.85,3.85,0,0,1-.92,1.11,4,4,0,0,1-2.63.9,3.39,3.39,0,0,1-3.29-1.64,4.92,4.92,0,0,1-.48-2.35v-7.82Z"/><path d="M277.89,106.17h1.84v2a4.49,4.49,0,0,1,1.11-1.41,2.83,2.83,0,0,1,2-.83h.18l.44,0v2l-.32,0h-.32a2.74,2.74,0,0,0-2.24.94,3.28,3.28,0,0,0-.78,2.16v6.62h-1.94Z"/><path d="M295.49,110.71a1.07,1.07,0,0,0,.89-.56,1.64,1.64,0,0,0,.13-.74,1.58,1.58,0,0,0-.7-1.44,3.74,3.74,0,0,0-2-.45,2.54,2.54,0,0,0-2.15.82,2.74,2.74,0,0,0-.46,1.35h-1.8a3.32,3.32,0,0,1,1.38-3,5.58,5.58,0,0,1,3.07-.83,6.19,6.19,0,0,1,3.29.77,2.62,2.62,0,0,1,1.26,2.41v6.62a.89.89,0,0,0,.12.49.6.6,0,0,0,.52.18l.29,0,.35,0v1.42a4.46,4.46,0,0,1-.69.16,3.67,3.67,0,0,1-.64,0,1.59,1.59,0,0,1-1.45-.71,2.8,2.8,0,0,1-.34-1.07,4.84,4.84,0,0,1-1.7,1.35,5.21,5.21,0,0,1-2.43.57,3.67,3.67,0,0,1-2.62-1,3.22,3.22,0,0,1-1-2.43,3.13,3.13,0,0,1,1-2.48,4.78,4.78,0,0,1,2.63-1.09Zm-4.07,5.22a2.28,2.28,0,0,0,1.45.48,4.29,4.29,0,0,0,2-.47,2.65,2.65,0,0,0,1.62-2.56v-1.56a3.31,3.31,0,0,1-.92.38,8.77,8.77,0,0,1-1.09.22l-1.17.15a4.3,4.3,0,0,0-1.58.44,1.69,1.69,0,0,0-.89,1.6A1.58,1.58,0,0,0,291.42,115.93Z"/><path d="M305.72,106.17h1.83v1.63a5.19,5.19,0,0,1,1.73-1.45,4.54,4.54,0,0,1,2-.44,3.34,3.34,0,0,1,3.31,1.71,6,6,0,0,1,.47,2.67v7.38h-2v-7.25a4.07,4.07,0,0,0-.31-1.7,1.9,1.9,0,0,0-1.87-1.07,3.58,3.58,0,0,0-1.13.14,2.86,2.86,0,0,0-1.4.94,2.9,2.9,0,0,0-.63,1.18,8.35,8.35,0,0,0-.14,1.73v6h-1.93Z"/><path d="M329.71,106.78a4.55,4.55,0,0,1,1.47,3.25H329.3a3.44,3.44,0,0,0-.79-1.76,2.47,2.47,0,0,0-2-.71,2.72,2.72,0,0,0-2.65,1.8,7.26,7.26,0,0,0-.51,2.89,5.42,5.42,0,0,0,.73,2.91,2.82,2.82,0,0,0,4.2.44,4,4,0,0,0,1-2h1.88a5.11,5.11,0,0,1-1.62,3.35,5,5,0,0,1-3.29,1,4.39,4.39,0,0,1-3.6-1.65,6.26,6.26,0,0,1-1.34-4.12,6.92,6.92,0,0,1,1.47-4.71,4.74,4.74,0,0,1,3.75-1.69A5,5,0,0,1,329.71,106.78Z"/><path d="M344.37,106.48a4.29,4.29,0,0,1,1.74,1.49,5.11,5.11,0,0,1,.77,2,12.94,12.94,0,0,1,.17,2.54h-8.36a4.85,4.85,0,0,0,.82,2.81,2.72,2.72,0,0,0,2.37,1.06,3.06,3.06,0,0,0,2.4-1,3.37,3.37,0,0,0,.71-1.35h1.9a3.88,3.88,0,0,1-.5,1.41,5.24,5.24,0,0,1-.94,1.28,4.53,4.53,0,0,1-2.17,1.16,6.74,6.74,0,0,1-1.57.17,4.79,4.79,0,0,1-3.61-1.56,6.13,6.13,0,0,1-1.49-4.38,6.61,6.61,0,0,1,1.5-4.5,4.88,4.88,0,0,1,3.9-1.73A5.2,5.2,0,0,1,344.37,106.48Zm.7,4.52a5,5,0,0,0-.55-2,2.77,2.77,0,0,0-2.63-1.4,2.89,2.89,0,0,0-2.21,1,3.64,3.64,0,0,0-.95,2.45Z"/><path d="M375.35,103a5.65,5.65,0,0,1,1.82,3.59h-2.09a4.29,4.29,0,0,0-1.39-2.42,4.34,4.34,0,0,0-2.91-.89,4.65,4.65,0,0,0-3.7,1.64,7.56,7.56,0,0,0-1.41,5,7.38,7.38,0,0,0,1.27,4.5,4.42,4.42,0,0,0,3.8,1.73,4,4,0,0,0,3.53-1.82,6.86,6.86,0,0,0,1-2.51h2.09a7.25,7.25,0,0,1-1.83,4.18,6.47,6.47,0,0,1-5,2,6.58,6.58,0,0,1-4.57-1.67c-1.62-1.47-2.43-3.73-2.43-6.8a8.75,8.75,0,0,1,1.83-5.73,6.62,6.62,0,0,1,5.44-2.43A6.36,6.36,0,0,1,375.35,103Z"/><path d="M392.31,107.31a5.8,5.8,0,0,1,1.53,4.36,7.46,7.46,0,0,1-1.35,4.59,4.84,4.84,0,0,1-4.17,1.82,4.69,4.69,0,0,1-3.74-1.61,6.33,6.33,0,0,1-1.39-4.31,6.89,6.89,0,0,1,1.46-4.61,4.9,4.9,0,0,1,3.93-1.72A5.17,5.17,0,0,1,392.31,107.31Zm-1.2,7.65a7.33,7.33,0,0,0,.71-3.24,5.77,5.77,0,0,0-.51-2.61,2.87,2.87,0,0,0-2.78-1.59,2.74,2.74,0,0,0-2.55,1.35,6.33,6.33,0,0,0-.8,3.26,5.48,5.48,0,0,0,.8,3.06,2.77,2.77,0,0,0,2.52,1.22A2.63,2.63,0,0,0,391.11,115Z"/><path d="M400.37,106.17h1.91v1.63a6.53,6.53,0,0,1,1.25-1.24,3.8,3.8,0,0,1,2.17-.65,3.41,3.41,0,0,1,2.21.67,3.55,3.55,0,0,1,.86,1.14,4,4,0,0,1,3.47-1.81,3.21,3.21,0,0,1,3.16,1.67,5.49,5.49,0,0,1,.45,2.43v7.66h-2v-8a1.86,1.86,0,0,0-.57-1.58,2.27,2.27,0,0,0-1.41-.43,2.79,2.79,0,0,0-2,.76,3.39,3.39,0,0,0-.82,2.55v6.69h-2v-7.51a4,4,0,0,0-.28-1.71,1.72,1.72,0,0,0-1.65-.8,2.82,2.82,0,0,0-2,.85,4.14,4.14,0,0,0-.9,3.07v6.1h-1.93Z"/><path d="M422.69,106.22h1.89v1.52a5,5,0,0,1,1.27-1.21,4.13,4.13,0,0,1,2.31-.64,4.32,4.32,0,0,1,3.33,1.49,6.16,6.16,0,0,1,1.37,4.29q0,3.75-2,5.37a4.45,4.45,0,0,1-2.91,1,4,4,0,0,1-2.19-.57,5.26,5.26,0,0,1-1.15-1.11v5.88h-1.94Zm7.28,9a5.4,5.4,0,0,0,.9-3.39,6.25,6.25,0,0,0-.4-2.37,2.93,2.93,0,0,0-5.52.11,7.87,7.87,0,0,0-.4,2.73,5.73,5.73,0,0,0,.4,2.27,2.74,2.74,0,0,0,2.76,1.78A2.78,2.78,0,0,0,430,115.24Z"/><path d="M445.41,110.71a1.07,1.07,0,0,0,.9-.56,1.81,1.81,0,0,0,.12-.74,1.56,1.56,0,0,0-.7-1.44,3.74,3.74,0,0,0-2-.45,2.52,2.52,0,0,0-2.14.82,2.64,2.64,0,0,0-.46,1.35h-1.81a3.36,3.36,0,0,1,1.38-3,5.61,5.61,0,0,1,3.08-.83,6.21,6.21,0,0,1,3.29.77,2.61,2.61,0,0,1,1.25,2.41v6.62a.89.89,0,0,0,.13.49c.08.12.25.18.52.18l.29,0,.34,0v1.42a4.68,4.68,0,0,1-.68.16,3.8,3.8,0,0,1-.65,0,1.59,1.59,0,0,1-1.45-.71,2.65,2.65,0,0,1-.33-1.07,4.93,4.93,0,0,1-1.7,1.35,5.25,5.25,0,0,1-2.44.57,3.63,3.63,0,0,1-2.61-1,3.22,3.22,0,0,1-1-2.43,3.1,3.1,0,0,1,1-2.48,4.78,4.78,0,0,1,2.62-1.09Zm-4.07,5.22a2.28,2.28,0,0,0,1.45.48,4.37,4.37,0,0,0,2-.47,2.66,2.66,0,0,0,1.61-2.56v-1.56a3.37,3.37,0,0,1-.91.38,9.15,9.15,0,0,1-1.09.22l-1.17.15a4.24,4.24,0,0,0-1.58.44,1.7,1.7,0,0,0-.9,1.6A1.58,1.58,0,0,0,441.34,115.93Z"/><path d="M455.64,106.17h1.84v1.63a5.1,5.1,0,0,1,1.73-1.45,4.51,4.51,0,0,1,2-.44,3.36,3.36,0,0,1,3.31,1.71,6.11,6.11,0,0,1,.47,2.67v7.38h-2v-7.25a3.91,3.91,0,0,0-.31-1.7,1.89,1.89,0,0,0-1.87-1.07,3.62,3.62,0,0,0-1.13.14,2.84,2.84,0,0,0-1.39.94,2.9,2.9,0,0,0-.63,1.18,7.6,7.6,0,0,0-.15,1.73v6h-1.93Z"/><path d="M479.23,106.17h2.13c-.27.73-.87,2.42-1.81,5-.7,2-1.29,3.59-1.76,4.83a33.44,33.44,0,0,1-2.36,5.37,2.73,2.73,0,0,1-2.37,1,3.29,3.29,0,0,1-.62,0c-.15,0-.33-.06-.55-.11v-1.77c.34.1.58.15.73.18l.4,0a1.38,1.38,0,0,0,.79-.18,1.56,1.56,0,0,0,.42-.43c0-.06.17-.35.39-.88s.38-.92.48-1.18l-4.25-11.84H473l3.08,9.37Z"/><path d="M106.17,25.92h19.16S117.83,5.2,89.5,6.37,40,37.75,40,37.75,23,55.88,14,77.15H36.83S66.43,8.2,91.17,8.42C108.75,8.57,106.17,25.92,106.17,25.92Z" fill="#007bc1"/><path d="M0,59.92S20.17.59,85.67.59C85.67.59,29-6.58,0,29.08Z" fill="#a6c8e5"/></svg>