<svg xmlns="http://www.w3.org/2000/svg" viewBox="0 0 236 65" stroke-width="0" id="logoTransparent">
    <path fill="inherit" d="M173.82 4.66V12c0 2.76 1.23 3.93 2.88 3.93 1.83 0 3-1.2 3-3.93V4.66h1.61v7.2c0 3.79-2 5.34-4.67 5.34s-4.43-1.44-4.43-5.27V4.66zM185.27 17V4.66H187l4 6.25a33.89 33.89 0 0 1 2.22 4 57.33 57.33 0 0 1-.18-5.07V4.66h1.5V17h-1.61L189 10.74a38.09 38.09 0 0 1-2.3-4.12h-.06a83 83 0 0 1 .13 5.09V17zM200.1 4.66V17h-1.59V4.66zM206.42 6h-3.75V4.66h9.13V6H208v11h-1.61zM220.76 11.22H216v4.45h5.35V17h-6.94V4.66H221V6h-5v3.9h4.8zM224.57 4.83a22.28 22.28 0 0 1 3.43-.26 7.09 7.09 0 0 1 5 1.54 5.7 5.7 0 0 1 1.73 4.43 6.56 6.56 0 0 1-1.77 4.8 7.63 7.63 0 0 1-5.46 1.77 26.19 26.19 0 0 1-2.89-.14zm1.59 10.91a10.46 10.46 0 0 0 1.61.09c3.41 0 5.26-1.9 5.26-5.24 0-2.91-1.63-4.76-5-4.76a9.14 9.14 0 0 0-1.87.17zM174.94 38.89l-4-12.34h1.72l1.92 6.08c.53 1.66 1 3.16 1.32 4.61.35-1.43.86-3 1.41-4.59l2.09-6.1h1.7l-4.4 12.34zM185.23 26.55v12.34h-1.59V26.55zM189 37a5.67 5.67 0 0 0 2.86.8c1.63 0 2.58-.86 2.58-2.1s-.66-1.81-2.32-2.45c-2-.72-3.26-1.76-3.26-3.5 0-1.92 1.59-3.35 4-3.35a5.65 5.65 0 0 1 2.73.6l-.44 1.3a4.93 4.93 0 0 0-2.35-.58c-1.68 0-2.32 1-2.32 1.84 0 1.16.75 1.73 2.45 2.39 2.09.8 3.15 1.81 3.15 3.62s-1.41 3.55-4.32 3.55a6.49 6.49 0 0 1-3.15-.78zM201 26.55v12.34h-1.6V26.55zM215.54 32.59c0 4.25-2.58 6.5-5.73 6.5s-5.55-2.53-5.55-6.26c0-3.92 2.43-6.48 5.73-6.48s5.55 2.58 5.55 6.24zm-9.58.2c0 2.64 1.43 5 3.94 5s3.95-2.32 3.95-5.13c0-2.45-1.28-5-3.93-5S206 30.08 206 32.79zM218.8 38.89V26.55h1.74l4 6.24a35.54 35.54 0 0 1 2.22 4 53.44 53.44 0 0 1-.19-5.07v-5.17h1.5v12.34h-1.61l-3.91-6.26a38.42 38.42 0 0 1-2.31-4.12h-.06c.09 1.55.13 3 .13 5.09v5.27zM172.23 48.58a18.19 18.19 0 0 1 3.06-.24 5.09 5.09 0 0 1 3.46 1 3.34 3.34 0 0 1 1.08 2.66 3.61 3.61 0 0 1-1 2.64 5.13 5.13 0 0 1-3.77 1.35 5.6 5.6 0 0 1-1.28-.11v5h-1.59zm1.59 6a5.44 5.44 0 0 0 1.32.13c1.92 0 3.09-.93 3.09-2.64s-1.15-2.41-2.91-2.41a6.33 6.33 0 0 0-1.5.13zM183.16 48.44h1.59v11H190v1.34h-6.87zM195 56.89l-1.28 3.89h-1.65l4.19-12.34h1.93l4.21 12.34h-1.7l-1.32-3.89zm4-1.24l-1.21-3.55c-.28-.81-.46-1.54-.64-2.26-.18.74-.38 1.49-.62 2.24l-1.21 3.57zM205.39 60.78V48.44h1.74l4 6.24a35.35 35.35 0 0 1 2.21 4 53.74 53.74 0 0 1-.18-5.07v-5.17h1.5v12.34h-1.61l-3.92-6.27a38.22 38.22 0 0 1-2.31-4.12c.09 1.56.12 3 .12 5.09v5.28z"></path>
    <path fill="#26a591" d="M47.47 4.36H56a3.59 3.59 0 0 1 2.22.64 4.1 4.1 0 0 1 1.3 1.73s14.93 39.64 15.77 42.61c.6-3 6.3-19.93 6.3-19.93a4.1 4.1 0 0 1 1.26-1.64 3.39 3.39 0 0 1 2.24-.77h8.51L79.92 61.11h-9.53z"></path>
    <path fill="inherit" d="M148.33 15.15a14.67 14.67 0 0 0-4-5.73 19 19 0 0 0-6.87-3.75 32.32 32.32 0 0 0-9.85-1.36h-44.8a5.44 5.44 0 0 0-1.35.19 3.33 3.33 0 0 0-2.41 2.28l-2.24 5.67h50.8a16.59 16.59 0 0 1 5.06.72 9.5 9.5 0 0 1 3.57 2 8.06 8.06 0 0 1 2.12 3.15 11.51 11.51 0 0 1 .71 4.13 12.6 12.6 0 0 1-.71 4.33 8.39 8.39 0 0 1-2.12 3.3 9.35 9.35 0 0 1-3.57 2.15 15.62 15.62 0 0 1-5.06.79h-8.13v-5.87h-6.82c-2.13 0-4.48 1.61-4.48 3.74v30.17h11.08v-19.9h8.35a30.37 30.37 0 0 0 9.65-1.39 19 19 0 0 0 6.87-3.85 15.65 15.65 0 0 0 4.12-5.92 20.1 20.1 0 0 0 1.38-7.56 19.86 19.86 0 0 0-1.3-7.29zM43.53 26.92c-2 0-4.54 1.61-4.54 3.59v7.84a18.72 18.72 0 0 1-.48 5.88 12.19 12.19 0 0 1-2.35 4.48 11.1 11.1 0 0 1-4 2.86 13.68 13.68 0 0 1-5.42 1 13.83 13.83 0 0 1-5.45-1 11.09 11.09 0 0 1-4.05-2.88 13.3 13.3 0 0 1-2.73-4.5 18.25 18.25 0 0 1-1.08-5.88V8.12c0-2.13-1.22-3.81-3.36-3.81H2.82v34a26.23 26.23 0 0 0 1.86 9.36 21.62 21.62 0 0 0 4.79 7.41A21.37 21.37 0 0 0 16.93 60a26.38 26.38 0 0 0 9.84 1.75A26.31 26.31 0 0 0 36.59 60a20.76 20.76 0 0 0 12.1-12.28 26.37 26.37 0 0 0 1.61-9.36V26.92z"></path>
    <circle fill="#26a591" cx="155.41" cy="57.28" r="3.84"></circle>
</svg>
