<svg id="VSP_Vision_Care" data-name="VSP Vision Care" xmlns="http://www.w3.org/2000/svg" width="770" height="221.67" viewBox="0 0 770 221.67"><defs><style>.cls-1{fill:#595959;}.cls-2{fill:#3a60ff;}</style></defs><path id="Vision_Care" data-name="Vision Care" class="cls-1" d="M728.74,136c-24.69,0-42.41,17.73-42.41,42.41,0,26,17.72,42.74,43.07,42.74,12.76,0,27-4.8,35.29-14.58h.16l-9.11-8.28c-5.47,6.63-16.73,10.27-26,10.27-15.73,0-28.16-9.44-29.65-24.51h69.58C772.8,151.43,753.75,136,728.74,136Zm28,36.78a.81.81,0,0,0,0-.16H700.08c2.32-15.74,14.74-24.36,29-24.36,16,0,26.92,8.56,27.65,24.36h0ZM639.85,137.68l1,12.26c5.63-10.6,15.74-13.58,25.18-13.58a30.82,30.82,0,0,1,19.05,6.12l-6.13,11.6a23.54,23.54,0,0,0-14.25-4.47c-13.08.16-24,9.44-24,24.52v45.55H627.09V137.85h12.59Zm-71.19-1.49c-10.1,0-19.71,2.65-29.32,7l2.48,11.43a68.47,68.47,0,0,1,26.67-6.13c13.42,0,26.51,4.64,26.51,19.54v6.47c-8.28-4.64-19-6.79-28.82-6.79-16.57-.17-32.8,7.78-32.8,26.17,0,19,16.06,27.17,32.46,27.17,11.44,0,23.36-4.64,30.15-14.42l.17.17.66,12.92h11.43V168.16C608.25,144.14,590.53,136.19,568.66,136.19Zm-.83,73.05c-9.27,0-21-4-21-15.07s10.77-15.07,21.37-15.07c8.29,0,19.88,2.65,27.17,7C594.83,200.13,581.75,209.24,567.83,209.24ZM465.19,178.76c0,18.39,12.83,30.24,29.07,30.24,9.38,0,16.06-2.34,23.81-8.27l7.06,9.78c-8.65,6.91-18.52,10.66-30.95,10.66-25,0-42.74-16.41-42.74-42.41s19.71-42.4,42.74-42.4c10.76,0,22.54,2.76,30.44,9.28l-7.17,11c-7.76-5.94-14.2-7.9-23.19-7.9C478,148.78,465.19,160.38,465.19,178.76Zm-130-41.08H347.6l.67,13.09a33.43,33.43,0,0,1,28-14.25c20.71,0,35.95,13.92,35.95,37.94v45.22H398.63V174.62c0-15.74-9.28-25.51-24.85-25.51-14.91.17-25.18,11.93-25.18,26.67v43.9H335.18v-82ZM277.38,136C253,136,235,153.58,235,178.93c0,24.85,17.89,42.24,42.41,42.24,24.68,0,42.57-17.39,42.57-42.24C320,153.58,302.4,136,277.38,136Zm0,72.4c-16.73,0-28.82-12.26-28.82-29.49,0-18.22,12.25-30.48,29-30.48,16.4,0,29,12.26,29,30.48C306.37,196.16,294.28,208.42,277.38,208.42Zm-70.62-70.91h13.58v82.17H206.76Zm15.9-20.09c0,11.76-17.89,11.76-17.89-.17C204.77,105.49,222.66,105.49,222.66,117.42Zm-39.32,36a52.38,52.38,0,0,0-23.62-5.55c-14.89,0-21.16,5.41-21.16,11.67,0,6.67,5.84,10.41,22.22,12.7,23.24,3.25,32.41,10.37,32.41,24.91,0,16.4-15.71,24.52-35.29,24.52-14.33,0-28.06-3.25-36.39-10.34l7.31-10.55c7.94,6.59,18.79,9.23,29,9.23,13.58,0,22.11-4.17,22.11-12.35,0-7.25-4.39-11.13-22-13.59-22.56-3.15-32.64-9.74-32.64-23.93,0-13.37,12.71-24.12,34.45-24.12,8.83,0,19.91,1.49,29.18,6.24Zm-87.8-15.91h13.58v82.17H95.54Zm15.9-20.09c0,11.76-17.89,11.76-17.89-.17C93.55,105.49,111.44,105.49,111.44,117.42ZM14.91,137.85l13.25,32,13.92,35.45L55.83,170l13.25-32.13H84l-34.46,82H34.63L0,137.85Z" transform="translate(0)"/><g id="VSP_Logotype" data-name="VSP Logotype"><path id="TM" class="cls-2" d="M257.23,74.85H259l0-5.34L261.66,73H262c.37-.49,2.36-2.89,2.73-3.36l0,5.26h1.8v-8h-1.66l-3,3.76-2.95-3.76h-1.69Zm-6.28,0h1.76V68.39h3V66.85H248v1.54h3Z" transform="translate(0)"/><path id="VSP" class="cls-2" d="M216.75,1.2c-8.62,0-16.95,3.25-21.73,10.48l-.26-1.94c-.55-4.23-3.65-6.89-9.12-6.89H166.49v95H188c5.37,0,8.34-3.47,8.34-8.37v-20c4.92,5.11,13,6.87,19.48,6.87,18.87,0,33.28-14.13,33.28-37.55C249.13,15,235.62,1.2,216.75,1.2Zm-9.41,51.38c-7.58,0-12.84-5.57-12.84-13.73s5.22-13.62,12.84-13.62,13.15,5.32,13.15,13.62S214.91,52.58,207.34,52.58Zm-78.44-26-7.5-.9c-2.31-.28-4.38-.62-4.38-2.39s2.29-2.24,5.2-2.24A78.9,78.9,0,0,1,140,23.35c5.1,1.15,8.82-1,9.93-5.21l3.52-13.69C144.9,1.5,134.37,0,123.84,0c-23.47,0-36,10.39-36,25.54,0,13.42,8,21.59,26.94,24.21.77.11,4.24.54,5,.62,6,.64,7.89,1.12,7.87,2.91,0,1.56-1.77,2.23-6.33,2.23a78.56,78.56,0,0,1-20.22-3.17c-5.76-1.55-9.08.33-10.68,4.17l-4.9,14.27c9.74,4.06,25.08,6.59,35.84,6.59,23.15,0,35.94-8.2,35.94-26.05C157.26,37.69,149.2,29,128.9,26.56Zm-80,8.94a.2.2,0,0,1,0-.23.19.19,0,0,1,.27,0,20,20,0,0,0,12.53,4.37A19.71,19.71,0,0,0,81.61,20.07a19.88,19.88,0,0,0-39.75,0,19.25,19.25,0,0,0,1,6.1.17.17,0,0,1-.12.23.19.19,0,0,1-.21-.06L30.75,9.53C27.44,4.8,23.13,1.06,15.33,1.19,6.07,1.35-.14,8.45,0,16.57.07,20.3,1.77,24.19,4.09,27.5L35,71.57c3.31,4.73,9.06,4.73,12.37,0L60.75,52.39Z" transform="translate(0)"/></g></svg>