<?xml version="1.0" encoding="UTF-8"?>
<svg id="Layer_1" data-name="Layer 1" xmlns="http://www.w3.org/2000/svg" viewBox="0 0 774 68.03">
  <defs>
    <style>
      .cls-1 {
        fill: #9e9e9e;
      }

      .cls-1, .cls-2 {
        stroke-width: 0px;
      }

      .cls-2 {
        fill: #fff;
      }
    </style>
  </defs>
  <g>
    <path class="cls-2" d="M2.22,4.67h15.4c7.58,0,12.96.9,17.28,3.75,4.32,2.85,7.17,7.25,7.17,13.37s-2.69,10.59-6.93,13.45c-4.4,3.02-10.35,3.83-18.42,3.83H7.19v24.61H2.22V4.67ZM17.3,34.66c8.39,0,11.98-1.06,14.91-3.1,3.01-2.12,4.81-5.38,4.81-9.62,0-4.65-2.04-7.82-5.21-9.86-3.42-2.2-7.66-2.85-14.51-2.85H7.19v25.43h10.11Z"/>
    <path class="cls-2" d="M52.51,4.67h15.81c6.85,0,12.14.81,16.3,3.5,3.99,2.61,6.85,6.85,6.85,12.71,0,5.38-2.45,9.78-6.19,12.47-2.69,1.96-5.87,2.93-9.54,3.5l19.72,26.81h-6.03l-19.23-26.41h-12.71v26.41h-4.97V4.67ZM69.86,33.03c6.11,0,10.03-1.06,12.88-3.42,2.53-2.12,3.75-4.97,3.75-8.48,0-4.32-1.88-7.25-4.81-9.21-3.18-2.12-7.09-2.69-13.69-2.69h-10.51v23.8h12.39Z"/>
    <path class="cls-2" d="M130.83,3.78c16.95,0,29.75,13.37,29.75,30.4s-12.79,30.4-29.75,30.4-29.75-13.37-29.75-30.4,12.79-30.4,29.75-30.4ZM130.83,59.93c14.34,0,24.77-11.41,24.77-25.75s-10.43-25.75-24.77-25.75-24.78,11.41-24.78,25.75,10.43,25.75,24.78,25.75Z"/>
    <path class="cls-2" d="M208.74,4.67h5.13l-22.9,59h-4.97l-23.06-59h5.38l12.88,33.09c2.45,6.28,4.97,12.88,7.33,19.15h.16c2.36-6.36,4.89-12.96,7.33-19.31l12.71-32.92Z"/>
    <path class="cls-2" d="M222.27,4.67h4.97v59h-4.97V4.67Z"/>
    <path class="cls-2" d="M241.91,4.67h15.08c9.45,0,16.79,1.96,22.49,6.03,7.17,5.13,11.57,13.69,11.57,23.31s-4.32,17.52-10.19,22.41c-5.79,4.81-13.53,7.25-24.94,7.25h-14.02V4.67ZM256.58,59.11c8.72,0,15.48-1.63,20.7-5.87,5.38-4.32,8.8-11.17,8.8-19.07,0-8.39-3.83-15.32-9.37-19.56-5.13-3.91-11.74-5.38-20.21-5.38h-9.62v49.88h9.7Z"/>
    <path class="cls-2" d="M301.97,4.67h32.68v4.56h-27.71v21.52h24.53v4.56h-24.53v23.8h28.44v4.56h-33.41V4.67Z"/>
    <path class="cls-2" d="M346.96,4.67h15.81c6.85,0,12.14.81,16.3,3.5,3.99,2.61,6.85,6.85,6.85,12.71,0,5.38-2.45,9.78-6.19,12.47-2.69,1.96-5.87,2.93-9.54,3.5l19.72,26.81h-6.03l-19.23-26.41h-12.71v26.41h-4.97V4.67ZM364.32,33.03c6.11,0,10.03-1.06,12.88-3.42,2.53-2.12,3.75-4.97,3.75-8.48,0-4.32-1.88-7.25-4.81-9.21-3.18-2.12-7.09-2.69-13.69-2.69h-10.51v23.8h12.39Z"/>
  </g>
  <g>
    <path class="cls-1" d="M486.14,22.53c0-6.75-2.76-11.14-7.07-13.82-4.72-2.93-11.3-3.9-18.29-3.9h-78.97c4.14,2.83,6.94,6.73,8.21,11.3h13.77v47.56h12.93V16.11h25.61v47.56h12.93v-23.25h5.77l14.88,23.25h14.88l-16.59-24.88c7.8-2.52,11.95-8.7,11.95-16.26ZM469.87,29.37c-1.95.97-4.63,1.38-8.13,1.38h-6.5v-14.64h4.96c4.47,0,7.64.49,9.68,1.55,2.36,1.22,3.33,3.01,3.33,5.77s-1.14,4.8-3.33,5.94Z"/>
    <path class="cls-1" d="M516.14,4.81l-23.9,58.87h13.25l4.8-12.36h23.74l4.72,12.36h13.82l-23.9-58.87h-12.52ZM514.27,41.15l2.36-6.26c1.87-4.96,3.98-10.81,5.53-15.29h.16c1.55,4.47,3.66,10.33,5.37,14.96l2.44,6.59h-15.85Z"/>
    <path class="cls-1" d="M565.73,34.16c0-10.65,7.8-18.62,19.19-18.62,6.02,0,11.95,2.2,16.26,5.12V7.57c-4.63-2.28-10.41-3.66-16.34-3.66-18.94,0-32.04,13.33-32.04,30.41s13.09,30.25,32.04,30.25c5.85,0,12.2-1.22,17.24-3.9v-13.17c-4.88,3.33-10.57,5.45-16.67,5.45-12.11,0-19.68-8.29-19.68-18.78Z"/>
    <polygon class="cls-1" points="687.19 43.95 674.27 43.95 674.27 63.68 700.49 63.68 711.5 63.68 711.5 52.37 687.19 52.37 687.19 43.95"/>
    <polygon class="cls-1" points="687.19 16.11 710.61 16.11 710.61 5 674.27 5 674.27 24.91 687.19 24.91 687.19 16.11"/>
    <path class="cls-1" d="M751.75,37.7c7.81-2.52,11.95-7.6,11.95-15.16,0-6.75-2.77-11.14-7.07-13.82-4.72-2.93-11.3-3.9-18.29-3.9h-18.46v58.87h12.93v-24.35h5.77l14.88,24.35h14.88l-16.59-25.98ZM747.44,28.27c-1.95.97-4.63,1.38-8.13,1.38h-6.5v-13.54h4.96c4.47,0,7.64.49,9.68,1.55,2.36,1.22,3.33,1.91,3.33,4.68s-1.14,4.8-3.33,5.94Z"/>
    <polygon class="cls-1" points="658.22 5 643.92 5 623.62 32.49 623.62 5 622.19 5 622.19 4.81 610.69 4.81 610.69 63.68 623.62 63.68 623.62 36.57 644.01 63.68 658.41 63.68 636.45 34.49 658.22 5"/>
  </g>
  <polygon class="cls-2" points="666.42 28.48 666.41 5 644.49 34.7 666.35 63.68 666.42 40.37 710.51 40.37 710.51 28.48 666.42 28.48"/>
</svg>