<?xml version="1.0" encoding="UTF-8"?>
<svg id="Layer_1" data-name="Layer 1" xmlns="http://www.w3.org/2000/svg" viewBox="0 0 750 175">
  <defs>
    <style>
      .cls-1 {
        fill: #8a2828;
      }

      .cls-1, .cls-2, .cls-3 {
        stroke-width: 0px;
      }

      .cls-2 {
        fill: #0d7b3e;
      }

      .cls-3 {
        fill: #9e9e9e;
      }
    </style>
  </defs>
  <g>
    <path class="cls-3" d="M256.89,119.17c0-8.96-3.67-14.79-9.39-18.36-6.26-3.89-15.01-5.18-24.3-5.18h-104.89v15.01h29.19v63.17h17.17v-63.17h34.01v63.17h17.17v-30.88h7.67l19.76,30.88h19.76l-22.03-33.04c10.37-3.35,15.87-11.56,15.87-21.6ZM235.3,128.24c-2.59,1.29-6.15,1.83-10.8,1.83h-8.64v-19.44h6.59c5.94,0,10.15.65,12.85,2.05,3.13,1.62,4.43,3.99,4.43,7.67s-1.51,6.37-4.43,7.88Z"/>
    <path class="cls-3" d="M296.74,95.63l-31.75,78.18h17.6l6.37-16.41h31.53l6.26,16.41h18.36l-31.75-78.18h-16.63ZM294.25,143.9l3.13-8.31c2.48-6.59,5.29-14.36,7.34-20.3h.22c2.05,5.94,4.86,13.71,7.13,19.87l3.24,8.75h-21.06Z"/>
    <path class="cls-3" d="M362.6,134.61c0-14.15,10.37-24.73,25.48-24.73,7.99,0,15.87,2.92,21.6,6.8v-17.38c-6.16-3.02-13.82-4.86-21.7-4.86-25.16,0-42.55,17.71-42.55,40.39s17.39,40.17,42.55,40.17c7.77,0,16.2-1.62,22.89-5.18v-17.49c-6.48,4.43-14.04,7.23-22.14,7.23-16.09,0-26.13-11.01-26.13-24.94Z"/>
    <polygon class="cls-3" points="523.92 147.61 506.75 147.61 506.75 173.81 541.58 173.81 556.2 173.81 556.2 158.8 523.92 158.8 523.92 147.61"/>
    <polygon class="cls-3" points="523.92 110.64 555.02 110.64 555.02 95.89 506.75 95.89 506.75 122.32 523.92 122.32 523.92 110.64"/>
    <path class="cls-3" d="M609.65,139.31c10.37-3.35,15.87-10.1,15.87-20.14,0-8.96-3.67-14.79-9.4-18.36-6.26-3.89-15.01-5.18-24.3-5.18h-24.51v78.18h17.17v-32.34h7.67l19.76,32.34h19.76l-22.03-34.5ZM603.93,126.79c-2.59,1.29-6.15,1.83-10.8,1.83h-8.64v-17.98h6.59c5.94,0,10.15.65,12.85,2.05,3.13,1.62,4.43,2.54,4.43,6.21s-1.51,6.37-4.43,7.88Z"/>
    <polygon class="cls-3" points="485.43 95.89 466.44 95.89 439.49 132.4 439.49 95.89 437.59 95.89 437.59 95.63 422.32 95.63 422.32 173.81 439.49 173.81 439.49 137.81 466.57 173.81 485.69 173.81 456.53 135.04 485.43 95.89"/>
    <polygon class="cls-2" points="496.33 127.07 496.32 95.89 467.2 135.33 496.23 173.81 496.33 142.86 554.88 142.86 554.88 127.07 496.33 127.07"/>
  </g>
  <g>
    <path class="cls-1" d="M117.8,1.19h20.44c10.06,0,17.19,1.19,22.92,4.97,5.73,3.78,9.52,9.62,9.52,17.73s-3.57,14.06-9.19,17.84c-5.84,4-13.73,5.08-24.44,5.08h-12.65v32.66h-6.6V1.19ZM137.8,40.98c11.14,0,15.89-1.41,19.79-4.11,4-2.81,6.38-7.14,6.38-12.76,0-6.16-2.7-10.38-6.92-13.08-4.54-2.92-10.16-3.78-19.25-3.78h-13.41v33.74h13.41Z"/>
    <path class="cls-1" d="M184.52,1.19h20.98c9.08,0,16.11,1.08,21.63,4.65,5.3,3.46,9.08,9.08,9.08,16.87,0,7.14-3.24,12.98-8.22,16.54-3.57,2.6-7.79,3.89-12.65,4.65l26.17,35.58h-8l-25.52-35.04h-16.87v35.04h-6.6V1.19ZM207.55,38.82c8.11,0,13.3-1.41,17.09-4.54,3.35-2.81,4.98-6.6,4.98-11.25,0-5.73-2.49-9.62-6.38-12.22-4.22-2.81-9.41-3.57-18.17-3.57h-13.95v31.58h16.44Z"/>
    <path class="cls-1" d="M288.44,0c22.49,0,39.47,17.73,39.47,40.33s-16.98,40.33-39.47,40.33-39.47-17.73-39.47-40.33S265.94,0,288.44,0ZM288.44,74.5c19.03,0,32.87-15.14,32.87-34.17s-13.84-34.17-32.87-34.17-32.87,15.14-32.87,34.17,13.84,34.17,32.87,34.17Z"/>
    <path class="cls-1" d="M391.82,1.19h6.81l-30.39,78.29h-6.6L331.04,1.19h7.14l17.09,43.9c3.24,8.33,6.6,17.09,9.73,25.41h.22c3.14-8.43,6.49-17.19,9.73-25.63L391.82,1.19Z"/>
    <path class="cls-1" d="M409.76,1.19h6.6v78.29h-6.6V1.19Z"/>
    <path class="cls-1" d="M435.83,1.19h20c12.54,0,22.28,2.6,29.85,8,9.52,6.81,15.35,18.17,15.35,30.93s-5.73,23.25-13.52,29.74c-7.68,6.38-17.95,9.62-33.09,9.62h-18.6V1.19ZM455.29,73.42c11.57,0,20.55-2.16,27.47-7.79,7.14-5.73,11.68-14.81,11.68-25.3,0-11.14-5.08-20.33-12.43-25.95-6.81-5.19-15.57-7.14-26.82-7.14h-12.76v66.18h12.87Z"/>
    <path class="cls-1" d="M515.52,1.19h43.36v6.06h-36.77v28.55h32.55v6.06h-32.55v31.58h37.74v6.06h-44.34V1.19Z"/>
    <path class="cls-1" d="M575.22,1.19h20.98c9.08,0,16.11,1.08,21.63,4.65,5.3,3.46,9.08,9.08,9.08,16.87,0,7.14-3.24,12.98-8.22,16.54-3.57,2.6-7.79,3.89-12.65,4.65l26.17,35.58h-8l-25.52-35.04h-16.87v35.04h-6.6V1.19ZM598.25,38.82c8.11,0,13.3-1.41,17.09-4.54,3.35-2.81,4.98-6.6,4.98-11.25,0-5.73-2.49-9.62-6.38-12.22-4.22-2.81-9.41-3.57-18.17-3.57h-13.95v31.58h16.44Z"/>
  </g>
</svg>