<svg xmlns="http://www.w3.org/2000/svg" viewBox="0 0 162.7 52.6"><title>Broker Portal Logos (No Branding vScript) copy</title><path d="M81.4,9.3c0.9,0,1.6-1.5,1.5-2.1a2.1,2.1,0,0,0-1.6-1.6,1.8,1.8,0,0,0-1.5,2A2.3,2.3,0,0,0,81.4,9.3Z" fill="#fff"/><path d="M89.4,19.9l0.3-.2a31.7,31.7,0,0,1,5-5.5H95a0.2,0.2,0,0,1-.1.2c-0.7.9-1.7,2.2-1.4,3.4A3,3,0,0,0,96.2,20c1.2,0,2.5-1,3.7-2.3l0.2-.2c0.4,0.9,1.7,2.5,2.6,2.5a4.6,4.6,0,0,0,2.7-1.2c2.9-2.4,3.5-3.5,3.5-3.9a0.9,0.9,0,0,0-.5-0.7,0.7,0.7,0,0,0-.6.3c-2.4,2.7-3.8,3.1-4.3,3.1a0.4,0.4,0,0,1-.4-0.3c-0.2-1,2.7-4.6,5.1-7.4,2.2-.1,4.4-0.4,4.3-0.9a2,2,0,0,0-.7-1,1.9,1.9,0,0,0-1.5-.6,3.1,3.1,0,0,0,.8-1.1V6.3a8.3,8.3,0,0,0-1.7-1.7c-0.2,0-.5.4-3.3,3.8l-2.5.2a5.8,5.8,0,0,1-1.4-.2c-0.1,0-.1.1-0.1,0.2s0.9,1.6,2.4,1.7a38.3,38.3,0,0,0-3.7,4.8c-1.4,1.7-3.7,3.3-4.3,3.3a0.4,0.4,0,0,1-.4-0.4c-0.2-.9,2.8-3.9,4.1-5.4a0.4,0.4,0,0,0,.1-0.4,3.8,3.8,0,0,0-2.2-1.8H97.7c-2.1,1.2-4.2,2.8-4.5,2.9a5.8,5.8,0,0,0,.9-1.7A2.6,2.6,0,0,0,92.8,10H92.6A48,48,0,0,1,88.3,16a19.4,19.4,0,0,1-4.1,2.3l-1.1.2a1,1,0,0,1-1-.9,3.2,3.2,0,0,1,.4-1.7,3,3,0,0,0,1.8.8c1.7,0,4.9-3.2,4.5-5.5a2.5,2.5,0,0,0-1.2-1.5,3.6,3.6,0,0,0-1.9-1.2c-0.9,0-2.1.8-3.7,2.5a8.9,8.9,0,0,0-2.5,4.3l-0.9.9c-1.6,1.4-2.8,2.1-3.3,2.1H75.2c-0.1-.4.8-1.5,4.8-6.4a0.4,0.4,0,0,0,.1-0.4,7,7,0,0,0-2.1-1.8H77.6a30.6,30.6,0,0,0-4,5.3c-1.6,1.6-4.2,3.7-5.9,3.7a0.8,0.8,0,0,1-.9-0.7,6,6,0,0,1,1.1-3.7,1.1,1.1,0,0,0,.9.5c1,0,7.8-5.4,9.8-8.4A2.1,2.1,0,0,0,79.1,5a3.9,3.9,0,0,0-3.3-2.4c-1.1,0-2.6,1.2-3.6,2a28.9,28.9,0,0,0-7,8.5,34.9,34.9,0,0,1-7.5,4,12.1,12.1,0,0,1-3.8.9,2,2,0,0,1-2.2-1.5C51.1,13.3,57.1,7.3,63,4.5c1.3-.6,3.7-1.8,4.3-1.8a0.7,0.7,0,0,1,.7.7,0.5,0.5,0,0,1-.1.5c-1.4,1.9-5.8,4.5-6.1,4.5s-0.1-.8-0.4-0.8-3.5,1.6-3.3,2.7a2.3,2.3,0,0,0,1.7,1.6,11.9,11.9,0,0,0,4.4-1.3c2.7-1.5,6.8-4.5,6.5-6.1A5,5,0,0,0,69,2.1c-0.8-1.1-1.6-2.1-2.9-2.1-2.9,0-7.8,2.6-9,3.4-4.1,2.6-8.9,7.3-8.2,11.3,0.4,2.2,3.9,5.8,5.9,5.9h0.6a6.4,6.4,0,0,0,3.1-.8,28.9,28.9,0,0,0,5.8-4,4.1,4.1,0,0,0,0,1.3,3.9,3.9,0,0,0,3.5,3.3c1.7,0,3.6-1.2,5-2.4a2.8,2.8,0,0,0,2.5,2.2c0.9,0,3.1-1.7,4.4-2.9,0.5,1.1,2.8,3.1,3.7,3.1a6.8,6.8,0,0,0,4.4-2,4.1,4.1,0,0,0,1.4,1.5h0.3Zm-3.1-8.7,0.5-.2a0.3,0.3,0,0,1,.3.3c0.1,0.7-2.3,4.1-3.6,4.1a0.8,0.8,0,0,1-.6-0.3A16.4,16.4,0,0,1,86.3,11.2ZM76.6,4.7A0.4,0.4,0,0,1,77,5c0.2,1.2-7.6,8.3-8.1,8.3H68.6C71.4,9.1,76.2,4.7,76.6,4.7Z" fill="#fff"/><path d="M23.2,27.6c-1.4-.7-2.5-0.9-6.8-0.9H0V47.3H6.5v-5H17c3.3,0,4.9-.2,6-0.7s3-3,3-7.3S25.2,28.7,23.2,27.6ZM16,37.2H6.5V31.8H16c2.8,0,3.5.6,3.5,3S18.7,37.2,16,37.2Z" fill="#fff"/><path d="M88,33.5c0-3.2-.8-5.1-2.6-6s-2.8-.8-6-0.8H60.9V47.3h6.5V42.1h10c1.8,0,2.3.1,2.8,0.4a2.4,2.4,0,0,1,.8,2.2v2.5h6.6V44a5,5,0,0,0-.6-3c-0.6-1-1.5-1.3-4-1.4H82c2.6-.4,3.4-0.6,4.2-1.1S88,36,88,33.5ZM77.6,37.1H67.4V31.8H77.9c2,0,2.5.1,3,.6s0.5,1,.5,2.4S80.8,37.1,77.6,37.1Z" fill="#fff"/><polygon points="114.7 26.8 89 26.8 89 31.8 98.6 31.8 98.6 47.3 105.1 47.3 105.1 31.8 114.7 31.8 114.7 26.8" fill="#fff"/><path d="M119.9,26.8L107.8,47.3h7.4l2.1-3.7h13.9l2.1,3.7h7.2L128.7,26.8h-8.8Zm-0.3,12.6,4.6-8.2,4.6,8.2h-9.2Z" fill="#fff"/><polygon points="147.9 42.2 147.9 26.8 141.4 26.8 141.4 47.3 162.7 47.3 162.7 42.2 147.9 42.2" fill="#fff"/><path d="M59,23.8s-5.9-1.1-8.8.8a30.8,30.8,0,0,0-3.1-4.9s2.1,4.7,1.8,7.4C49,27.1,51.4,24.2,59,23.8Z" fill="#fff"/><path d="M60.2,24.2c-5.7,3.2-12.5,10.7-12.8,11.1l-0.3.2,5,2.1L40.4,42.4,36.8,30.6l5.3,2.8a45,45,0,0,1,1-9.1h0.1l0.2-1.1a20.1,20.1,0,0,1,1.3-3.6l-0.3-.2a28.4,28.4,0,0,0-1.1,2.7,15.3,15.3,0,1,0,12.2,6.1,25.8,25.8,0,0,1,4.9-3.8ZM43.3,49.4a12,12,0,0,1-1.1-24c-0.7,2.6-1,4.9-1.3,6.3l-4.8-2.1,3.1,16.1,15.2-7.9-5.3-2.3c0.7-1,2.3-2.9,4.1-4.9a11.9,11.9,0,0,1,2.1,6.8A12.1,12.1,0,0,1,43.3,49.4Z" fill="#fff"/></svg>