<svg id="Layer_1" data-name="Layer 1" xmlns="http://www.w3.org/2000/svg" viewBox="0 0 386.21 141.5"><defs><style>.cls-1{fill:#ffd100;}.cls-2{fill:#231f20;}.cls-3{fill:#6e6f71;}</style></defs><polygon class="cls-1" points="357.26 138.06 3.6 138.06 7.66 118.93 361.34 118.92 357.26 138.06"/><path class="cls-2" d="M272.47,86.05c-3.16-3.4-1.27-10.17.34-17.81l5.52-25.95H301L305.14,23H282.43l4-19.28H265.07L251.05,70c-2.12,9.91-2.91,17.65,1.39,26,4,7.76,17.66,15.17,34.95,10.49l3.82-17.93C279.49,90,274.78,88.51,272.47,86.05Z"/><polygon class="cls-2" points="91.31 3.69 81.1 51.59 43.56 51.59 53.74 3.69 32.15 3.69 10.32 106.51 31.89 106.51 39.43 70.88 76.99 70.88 69.43 106.51 90.83 106.51 112.68 3.69 91.31 3.69"/><path class="cls-2" d="M214.57,30.24c-7.49,6.25-11.74,14.44-14.5,27.36l-10.39,48.91h21.41L219.71,66c2-9.49,3.6-15.42,7.17-19.08,4.9-5,12-5.28,20.53-4.58L251.53,23C236.49,19.15,223.35,22.9,214.57,30.24Z"/><polygon class="cls-2" points="381.68 22.97 314.85 22.97 310.76 42.29 349.52 42.29 301.04 87.94 297.09 106.51 363.92 106.51 368.04 87.2 329.05 87.2 377.78 41.35 381.68 22.97"/><path class="cls-2" d="M156.14,21.44c-7.23,0-17.12,2.24-26.84,9.86C107.39,48.49,96.51,108,143.56,108c12.2,0,25.77-3.85,35.19-11l-8.52-14.38c-7.12,5.48-43,17.39-39.21-11.68h56.07c0-.06,7.15-23.31-3.13-37.36C175.2,21.65,159.08,21.44,156.14,21.44Zm13.92,31.88H135.74c1.2-4.63,8.49-16,22-14.75C172.33,39.91,170.06,53.32,170.06,53.32Z"/><g id="Registered_Trademark" data-name="Registered Trademark"><path class="cls-3" d="M378.39,95.78h-.06a7.77,7.77,0,0,0-7.21,6A5.41,5.41,0,0,0,371,103h0a4.57,4.57,0,0,0,4.8,4.66h0a7.81,7.81,0,0,0,7.22-6,5.88,5.88,0,0,0,.14-1.23A4.55,4.55,0,0,0,378.39,95.78Zm3.82,5.75a7,7,0,0,1-6.41,5.32h0a3.71,3.71,0,0,1-4-3.84,4.61,4.61,0,0,1,.12-1.09,7,7,0,0,1,6.36-5.32,3.75,3.75,0,0,1,4,3.86A5.37,5.37,0,0,1,382.21,101.53Z"/><path class="cls-3" d="M377.91,98.88h-2.54l-1.22,5.69h1.27l.38-1.84h1l.82,1.84h1.48l-1-2a2.33,2.33,0,0,0,1.61-1.77C380,99.57,379.27,98.88,377.91,98.88Zm.54,2a1.09,1.09,0,0,1-1.16.83H376l.35-1.67h1.23C378.25,100,378.56,100.27,378.45,100.83Z"/></g></svg>