<?xml version="1.0" encoding="UTF-8"?>
<svg xmlns="http://www.w3.org/2000/svg" viewBox="0 0 2544.08 1763.01">
  <defs>
    <style>
      .cls-1 {
        stroke: #fff;
        stroke-width: 28.49px;
      }

      .cls-1, .cls-2 {
        fill: none;
      }

      .cls-3 {
        mix-blend-mode: overlay;
        opacity: .3;
      }

      .cls-4 {
        fill: #0060a9;
      }

      .cls-5 {
        fill: #fff;
      }

      .cls-2 {
        stroke: #231f20;
        stroke-width: 85.48px;
      }

      .cls-6 {
        isolation: isolate;
      }
    </style>
  </defs>
  <g class="cls-6">
    <g id="Layer_1" data-name="Layer 1">
      <path class="cls-2" d="M2501.34,1530.45c0,104.83-95.96,189.83-214.35,189.83H257.11c-118.39,0-214.37-84.99-214.37-189.83V232.56c0-104.84,95.98-189.83,214.37-189.83h2029.89c118.39,0,214.35,84.99,214.35,189.83V1530.45Z"/>
      <path class="cls-1" d="M2501.34,1530.45c0,104.83-95.96,189.83-214.35,189.83H257.11c-118.39,0-214.37-84.99-214.37-189.83V232.56c0-104.84,95.98-189.83,214.37-189.83h2029.89c118.39,0,214.35,84.99,214.35,189.83V1530.45Z"/>
      <path class="cls-4" d="M2501.34,1530.45c0,104.83-95.96,189.83-214.35,189.83H257.11c-118.39,0-214.37-84.99-214.37-189.83V232.56c0-104.84,95.98-189.83,214.37-189.83h2029.89c118.39,0,214.35,84.99,214.35,189.83V1530.45Z"/>
      <path class="cls-5" d="M1985.03,188.1c-42.26,14.99-51.64,64.94-51.64,507.85s11.75,492.85,51.64,507.83v13.42h-191.29v-13.42c41.09-13.32,51.62-64.93,51.62-507.83s-11.72-494.53-51.62-507.85v-6.66c10.58,1.67,72.77,6.66,95.05,6.66,23.49,0,85.69-4.99,96.24-6.66v6.66Z"/>
      <path class="cls-5" d="M1397.62,323.43c17.62,56.6,73.94,286.39,103.26,396.27-35.19,3.34-69.22,5.01-103.26,5.01s-77.45-1.67-100.92-5.01c15.26-58.27,73.92-299.7,100.92-396.27Zm-330.91,894.22h161.92v-13.42c-9.36-8.32-25.81-18.32-25.81-61.61,0-63.27,70.41-324.68,78.62-356.32,39.9-1.66,78.62-3.32,118.54-3.32s78.62,0,117.33,3.32c21.13,83.25,97.41,431.26,97.41,431.26l144.33-.05v-13.27c-51.64-24.97-123.22-314.69-173.67-512.83-54-211.45-106.77-431.24-122.05-509.5-11.7,1.67-37.53,6.67-51.64,6.67-19.94,0-48.11-3.33-61-6.67,9.38,21.65,15.26,46.62,15.26,74.94,0,39.96-30.51,141.52-92.71,369.63-57.49,211.46-158.41,541.14-206.52,577.77v13.42Z"/>
      <path class="cls-5" d="M137.18,1217.86H656.28c140.93,0,237.08-.34,279.62-18.53,145.82-62.36,238.6-390.8,19.98-537.62,57.56-51.51,86.94-124.08,86.94-184.74,0-89.74-17.53-154.8-52.53-195.18-35-40.37-80.96-67.18-137.96-80.42-56.95-13.24-140.71-19.88-251.29-19.88H156.98l-19.8,1036.36Z"/>
      <path class="cls-4" d="M117.38,101.98l193.2,5.2c18.9,7.89,164.29,136.73,39.03,237.21,33.98,40.64,68.09,126.45,73.83,151.27,5.77,24.85,21.22,56.38-17.49,83.56-19.29,13.53-33.76,56.44-12.4,72.25,21.35,15.81,60.66,76.78,71.43,103.86,10.77,27.09,10.53,56.31-31.6,72.27-17.86,6.76-41.24,13.53-42.76,33.86-1.21,16.35,1.65,38.55-17.45,54.83-4.66,3.97-10.6,7.56-18.25,10.66,13.63,13.53,11.64,36.11-10.86,51.91-22.49,15.82-14,40.65-6.37,56.46,7.69,15.8,5.03,67.74-69.2,94.83-34.63,12.65-98.55,17.92-159.12,19.95-69.26,2.31,7.97-1048.13,7.97-1048.13Z"/>
      <path class="cls-4" d="M579.74,918.56c-1.73-2.87-3.86-5.59-6.2-8.19,24.05-11.01,44.55-28.9,30.04-63.38-14.52-34.46,8.65-40.81,22.26-50.82,12.76-9.4,31.55-22.23,41.37-29.14,45.18-31.73,2.12-66.14-5.07-71.66-7.22-5.5-53.2-49.62-79.68-90.96-26.48-41.35-.13-95.11,16.32-133.7,44.68-14.3,66.07-204.52-86.31-230.05l210.23,30c17.29,7.23,89.2,57.28,13.2,124.22,31.14,37.21,62.35,115.77,67.63,138.52,5.29,22.74,19.42,51.6-16.06,76.5-17.64,12.39-30.9,51.69-11.33,66.14,19.57,14.5,55.56,70.31,65.38,95.12,9.9,24.8,9.69,51.55-28.89,66.17-16.36,6.19-37.77,12.4-39.14,31.01-1.13,14.96,1.5,35.3-16.02,50.21-4.25,3.62-9.69,6.9-16.64,9.76,12.46,12.39,10.62,33.06-9.97,47.54-20.63,14.48-12.83,37.21-5.83,51.71,7.02,14.47,4.55,62-63.41,86.81-67.98,24.82-231.68,17.91-214.65,16.57,125.34-10.16,90.48-128.2,90.26-135.1-.26-6.89,3.47-16.55,14.65-22.04,36.49-17.97,38.36-38.51,27.87-55.24"/>
      <g id="Shape_1_Clipping_Path" data-name="Shape 1 Clipping Path" class="cls-3">
        <path class="cls-5" d="M2446.16,62.88c-72.12-49.93-171.99-47.16-171.99-47.16H240.93s-113.72,19.42-160.87,61.03C32.9,118.36,10.43,223.76,10.43,223.76v229.09s608.76-70.85,1404.77,149.63c796,220.48,1114.74,605.39,1114.74,605.39l1.83-981.34s-13.48-113.72-85.6-163.65Z"/>
      </g>
      <g>
        <path class="cls-5" d="M554.69,1421.16c-8.35,0-16.54,.22-24.54,.65-8.01,.44-16.02,1.09-24.02,1.96,1.04-4.7,1.57-9.66,1.57-14.88,0-2.26-.18-4.57-.52-6.92-.35-2.35-.7-5-1.04-7.96,13.05,1.22,26.06,1.92,39.03,2.09,12.96,.18,25.98,.26,39.03,.26s25.33-.08,38.38-.26c13.05-.17,26.46-.87,40.21-2.09-.35,2.09-.7,4.44-1.04,7.05-.35,2.61-.52,5.57-.52,8.88,0,2.61,.17,5.14,.52,7.57,.35,2.44,.69,4.53,1.04,6.27-8.01-.87-16.02-1.52-24.02-1.96-8.01-.43-16.19-.65-24.54-.65-.35,5.74-.57,12.32-.65,19.71-.09,7.4-.13,14.84-.13,22.32v14.1c0,10.1,.04,19.58,.13,28.46,.09,8.88,.17,17.49,.26,25.85,.09,8.35,.3,16.54,.65,24.54,.35,8.01,.78,16.28,1.31,24.8-9.05-.87-16.15-1.48-21.28-1.83-5.14-.35-8.92-.52-11.36-.52-7.31,0-13.45,.31-18.41,.91-4.96,.61-8.92,1.09-11.88,1.44,.52-4.87,.95-10.35,1.31-16.45,.35-6.09,.65-12.53,.91-19.32,.26-6.79,.43-13.66,.52-20.62,.09-6.96,.13-13.66,.13-20.1v-34.46c0-6.61-.09-14.23-.26-22.84-.18-8.62-.44-17.27-.78-25.98Z"/>
        <path class="cls-5" d="M899.79,1499.48c3.66,6.09,7.61,12.66,11.88,19.71,4.26,7.05,8.66,14.14,13.18,21.28,4.52,7.14,9.05,14.19,13.58,21.15,4.52,6.96,8.88,13.41,13.05,19.32-6.09-.69-12.19-1.26-18.28-1.7-6.09-.43-12.19-.65-18.28-.65s-11.49,.22-16.71,.65c-5.22,.44-10.7,1-16.45,1.7-6.96-13.58-13.97-27.02-21.02-40.34-7.05-13.32-14.75-26.76-23.11-40.34h-.78c0,11.49,.13,24.41,.39,38.77,.26,14.36,.74,28.33,1.44,41.9-5.05-.69-10.1-1.26-15.14-1.7-5.05-.43-10.27-.65-15.67-.65-4.88,0-9.97,.22-15.27,.65-5.31,.44-10.92,1-16.84,1.7,.87-8.88,1.61-19.45,2.22-31.72,.61-12.27,.91-24.67,.91-37.2,0-5.74-.04-12.92-.13-21.54-.09-8.62-.22-18.15-.39-28.59-.18-10.44-.44-21.45-.78-33.03-.35-11.57-.78-23.19-1.31-34.85,6.09,.87,12.14,1.48,18.15,1.83,6,.35,11.79,.52,17.36,.52,8.35,0,16.66-.39,24.93-1.17,8.26-.78,16.58-1.17,24.93-1.17s17.45,.61,26.24,1.83c8.79,1.22,16.71,3.61,23.76,7.18,7.05,3.57,12.79,8.62,17.23,15.14s6.66,15.19,6.66,25.98c0,13.23-3.79,23.5-11.36,30.81-7.57,7.31-17.62,12.27-30.16,14.88l5.74,9.66Zm-62.92-19.84c.87,.17,1.7,.31,2.48,.39,.78,.09,1.61,.13,2.48,.13h4.7c10.79,0,18.32-3,22.58-9.01,4.26-6,6.4-14.05,6.4-24.15,0-7.31-1-13.05-3-17.23-2-4.18-4.48-7.35-7.44-9.53-2.96-2.17-6.23-3.52-9.79-4.05-3.57-.52-6.92-.78-10.05-.78-1.4,0-2.79,.04-4.18,.13-1.4,.09-2.79,.22-4.18,.39v63.7Z"/>
        <path class="cls-5" d="M1090.12,1580.94c-2.96-.69-5.87-1.26-8.75-1.7-2.87-.43-5.87-.65-9.01-.65-2.96,0-5.87,.22-8.75,.65-2.87,.44-5.53,1-7.96,1.7l15.4-34.72c2.44-5.22,5.13-11.27,8.09-18.15,2.96-6.87,6.05-14.23,9.27-22.06,3.22-7.83,6.57-16.01,10.05-24.54,3.48-8.53,6.96-17.06,10.44-25.59,1.91-4.87,4.09-10.48,6.53-16.84,2.44-6.35,4.79-12.62,7.05-18.8,2.26-6.18,4.35-11.75,6.27-16.71,1.91-4.96,3.3-8.48,4.18-10.57,2.96,.7,6,1.26,9.14,1.7,3.13,.44,6.18,.65,9.14,.65,3.13,0,6.27-.22,9.4-.65,3.13-.43,6.18-1,9.14-1.7,1.91,6.27,4.35,13.62,7.31,22.06,2.96,8.44,6.14,17.32,9.53,26.63,3.39,9.31,6.87,18.63,10.44,27.94,3.57,9.31,6.92,17.97,10.05,25.98,3.66,9.23,6.92,17.41,9.79,24.54,2.87,7.14,5.61,13.88,8.22,20.23,2.61,6.36,5.35,12.75,8.22,19.19,2.87,6.44,6.14,13.58,9.79,21.41-5.05-1.04-10.7-1.7-16.97-1.96-6.27-.26-12.01-.39-17.23-.39-5.57,0-11.19,.22-16.84,.65-5.66,.44-11.27,1-16.84,1.7-1.74-6.61-3.52-12.96-5.35-19.06-1.83-6.09-3.88-12.18-6.14-18.28-5.74,0-11.49-.04-17.23-.13-5.74-.08-11.49-.13-17.23-.13-4.53,0-9.1,.04-13.71,.13-4.61,.09-9.18,.13-13.71,.13-2.44,6.09-4.53,12.27-6.27,18.54-1.74,6.27-3.57,12.53-5.48,18.8Zm19.32-60.83c1.91,.17,3.83,.26,5.74,.26h34.46c1.91,0,3.83-.09,5.74-.26l-22.45-60.83-23.5,60.83Z"/>
        <path class="cls-5" d="M1388.45,1394.01c.52,1.74,2.04,6.88,4.57,15.4,2.52,8.53,5.65,18.63,9.4,30.29,3.74,11.66,7.87,23.98,12.4,36.94,4.52,12.97,9.05,24.85,13.58,35.64,3.48-9.22,6.92-18.71,10.31-28.46,3.39-9.75,7.09-20.89,11.1-33.42,2.96-9.4,5.96-18.75,9.01-28.07,3.04-9.31,5.78-18.75,8.22-28.33,3.13,.87,6.18,1.48,9.14,1.83,2.96,.35,5.92,.52,8.88,.52,3.83,0,7.18-.26,10.05-.78,2.87-.52,5.61-1.04,8.22-1.57-5.22,12.01-10.49,24.02-15.8,36.03-5.31,12.01-10.4,24.11-15.27,36.29-4.18,10.79-8.09,20.85-11.75,30.16-3.66,9.31-7.22,18.41-10.7,27.28-3.48,8.88-6.96,17.93-10.44,27.15-3.48,9.23-7.14,19.23-10.97,30.02-6.27-1.57-12.53-2.35-18.8-2.35-2.96,0-5.96,.17-9.01,.52-3.05,.35-6.05,.96-9.01,1.83-1.22-4.18-3.05-9.83-5.48-16.97-2.44-7.13-5.27-15.14-8.49-24.02-3.22-8.88-6.7-18.36-10.44-28.46-3.75-10.09-7.53-20.19-11.36-30.29-3.83-10.09-7.62-19.93-11.36-29.5-3.75-9.57-7.22-18.28-10.44-26.11-3.22-7.83-6-14.53-8.35-20.1-2.35-5.57-4.14-9.4-5.35-11.49,6.09,.7,12.14,1.26,18.15,1.7,6,.44,12.05,.65,18.15,.65,10.79,0,21.41-.78,31.85-2.35Z"/>
        <path class="cls-5" d="M1694.34,1554.57c2.44,0,5.78-.04,10.05-.13,4.26-.09,8.75-.22,13.45-.39,4.7-.17,9.27-.39,13.71-.65,4.44-.26,8.05-.48,10.83-.65-.35,2.44-.65,4.92-.91,7.44-.26,2.53-.39,5-.39,7.44,0,2.26,.13,4.53,.39,6.79,.26,2.26,.56,4.44,.91,6.53-10.62-.87-21.19-1.48-31.72-1.83-10.53-.35-21.02-.52-31.46-.52s-21.24,.17-31.85,.52c-10.62,.35-21.24,.96-31.85,1.83,.52-3.66,.91-7.13,1.17-10.44,.26-3.3,.43-7.18,.52-11.62,.09-4.44,.17-9.83,.26-16.19,.08-6.35,.13-14.49,.13-24.41v-28.46c0-13.75-.04-25.1-.13-34.07-.09-8.96-.22-16.84-.39-23.63-.18-6.79-.44-13.05-.78-18.8-.35-5.74-.78-12.18-1.3-19.32,9.05,.7,18.1,1.26,27.15,1.7,9.05,.44,18.1,.65,27.15,.65,5.05,0,10.83-.04,17.36-.13,6.53-.09,13.14-.17,19.84-.26,6.7-.08,13.19-.3,19.45-.65,6.27-.35,11.75-.78,16.45-1.31-.35,2.44-.65,4.74-.91,6.92-.26,2.18-.39,4.48-.39,6.92s.13,4.88,.39,7.31c.26,2.44,.56,4.88,.91,7.31-6.62-.35-13.14-.74-19.58-1.17-6.44-.43-12.88-.65-19.32-.65h-27.41v51.17c2.09,0,5.22-.04,9.4-.13,4.18-.08,9.09-.22,14.75-.39,5.65-.17,11.88-.43,18.67-.78,6.79-.35,13.84-.78,21.15-1.3-.35,2.44-.65,4.74-.91,6.92-.26,2.18-.39,4.48-.39,6.92,0,4.53,.43,9.23,1.31,14.1-5.22-.35-10.23-.65-15.01-.91-4.79-.26-9.66-.52-14.62-.78-4.96-.26-10.23-.43-15.8-.52-5.57-.09-11.75-.13-18.54-.13v59.79h18.28Z"/>
        <path class="cls-5" d="M1929.05,1554.57c1.74,0,5.22-.04,10.44-.13,5.22-.09,11.01-.26,17.36-.52,6.35-.26,12.75-.56,19.19-.91,6.44-.35,11.75-.87,15.93-1.57-.35,1.92-.65,4.14-.91,6.66-.26,2.53-.39,5.35-.39,8.49,0,2.44,.13,4.83,.39,7.18,.26,2.35,.56,4.74,.91,7.18-10.97-.87-20.76-1.48-29.37-1.83-8.62-.35-17.19-.52-25.72-.52-9.4,0-20.19,.17-32.37,.52-12.19,.35-24.8,.96-37.86,1.83,1.57-7.66,2.61-15.75,3.13-24.28,.52-8.53,.78-16.53,.78-24.02v-13.58c0-8.35-.04-15.97-.13-22.84-.09-6.87-.18-13.36-.26-19.45-.09-6.09-.22-11.96-.39-17.62-.17-5.65-.35-11.53-.52-17.62-.35-8-.61-16.23-.78-24.67-.18-8.44-.7-16.06-1.57-22.84,10.97,1.57,22.1,2.35,33.42,2.35,5.39,0,10.57-.17,15.53-.52,4.96-.35,10.05-.96,15.27-1.83-.52,4.53-.91,10.57-1.17,18.15-.26,7.57-.52,15.62-.78,24.15-.26,8.53-.44,16.97-.52,25.33-.09,8.35-.13,15.58-.13,21.67v12.01c0,2.44,.04,6.49,.13,12.14,.09,5.66,.13,11.62,.13,17.88s.04,12.18,.13,17.75c.09,5.57,.13,9.4,.13,11.49Z"/>
      </g>
      <path class="cls-5" d="M2274.41,559.54v143.16h143.16v118.64h-143.16v143.95h-118.64v-143.95h-143.16v-118.64h143.16v-143.16h118.64Z"/>
    </g>
  </g>
</svg>