<svg xmlns="http://www.w3.org/2000/svg" viewBox="0 0 228.99 203.76"><title>bai_center-reverse</title><path d="M203.79,0H25.2A25.27,25.27,0,0,0,0,25.2v86a25.28,25.28,0,0,0,25.2,25.21H203.79A25.28,25.28,0,0,0,229,111.17v-86A25.27,25.27,0,0,0,203.79,0Zm22.7,111.17a22.73,22.73,0,0,1-22.7,22.71H25.2A22.73,22.73,0,0,1,2.5,111.17v-86A22.72,22.72,0,0,1,25.2,2.5H203.79a22.72,22.72,0,0,1,22.7,22.7Z" fill="#fff"/><path d="M143.78,68.67a80.49,80.49,0,0,0,9.09.45c3.07,0,6.14-.15,9.31-.45-2.64-9.9-7.72-30.61-9.31-35.71C150.44,41.66,145.15,63.42,143.78,68.67Z" fill="#fff"/><path d="M96.86,64.74c-1.77-1.3-.57-4.85,1-6,3.2-2.25,1.92-4.85,1.45-6.9S96,42.75,93.23,39.4c6.85-6,.37-10.54-1.19-11.2l-19-2.7c13.74,2.3,11.81,19.44,7.78,20.73C79.39,49.71,77,54.56,79.4,58.28a45.61,45.61,0,0,0,7.18,8.2c.65.5,4.53,3.6.46,6.46-.88.62-2.58,1.78-3.73,2.63S80,77,81.31,80.15s-.54,4.72-2.71,5.71a5,5,0,0,1,.56.74c.94,1.5.78,3.36-2.51,5a2.17,2.17,0,0,0-1.32,2c0,.62,3.16,11.26-8.14,12.18-1.53.12,13.22.74,19.35-1.5s6.35-6.52,5.71-7.82-1.33-3.36.53-4.66,2-3.17.9-4.29a5.7,5.7,0,0,0,1.5-.87c1.57-1.35,1.34-3.18,1.44-4.53.12-1.68,2-2.24,3.53-2.79,3.47-1.32,3.49-3.73,2.6-6S98.62,66.05,96.86,64.74Z" fill="#fff"/><path d="M203.79,4H25.2A21.22,21.22,0,0,0,4,25.2v86a21.23,21.23,0,0,0,21.2,21.21H203.79A21.23,21.23,0,0,0,225,111.17v-86A21.22,21.22,0,0,0,203.79,4ZM111.26,111.9c-3.84,1.64-12.5,1.67-25.2,1.67H20.56l3.78-6.06c4,.06,20.57.42,26.77-1.84,6.69-2.45,6.93-7.13,6.24-8.55s-1.46-3.66.57-5.09,2.21-3.46,1-4.68a5.86,5.86,0,0,0,1.64-1c1.72-1.47,1.47-3.47,1.58-4.94.13-1.83,2.24-2.44,3.85-3,3.8-1.44,3.82-4.07,2.85-6.52S64.3,64,62.38,62.52,61.76,57.23,63.5,56c3.48-2.45,2.09-5.29,1.57-7.53s-3.59-10-6.65-13.63c6-4.85,5.09-10.43,2.64-14.68h20q15,0,22.65,1.79a22.74,22.74,0,0,1,12.43,7.25q4.73,5.45,4.73,17.59a23.25,23.25,0,0,1-7.83,16.65C132.76,76.68,124.4,106.28,111.26,111.9Zm74.19,1.64h-13s-6.88-31.36-8.78-38.87c-3.49-.3-7.09-.3-10.58-.3s-7.08.16-10.68.3c-.74,2.86-7.09,26.42-7.09,32.12,0,3.9,1.49,4.8,2.33,5.55v1.21H123.05v-1.21c4.33-3.3,13.43-33,18.61-52.07C147.27,39.71,150,30.56,150,27a16.76,16.76,0,0,0-1.38-6.76,27.64,27.64,0,0,0,5.5.6,41.41,41.41,0,0,0,4.65-.6c1.38,7.06,6.14,26.86,11,45.92,4.55,17.86,11,44,15.66,46.22Zm20.36-92.78c-3.81,1.35-4.65,5.85-4.65,45.77,0,41,1.06,44.42,4.65,45.77v1.21H188.57V112.3c3.71-1.2,4.65-5.85,4.65-45.77,0-40.52-1.05-44.57-4.65-45.77v-.6c1,.15,6.56.6,8.57.6s7.72-.45,8.67-.6Z" fill="#fff"/><path d="M1.48,175.73V146.32H6.36c5.3,0,6.79,2.93,6.79,7.88,0,2.89-.59,5.7-3.71,6.52v.07c3.35,1.06,4.13,3.63,4.13,6.91,0,5.42-2,8-7.41,8Zm4.37-26.09H5.19v9.63c3.63.16,4.13-2.1,4.13-5.22C9.32,151.75,8.54,149.6,5.85,149.64Zm-.66,22.78c3.39.15,4.25-1.6,4.25-4.84s-.66-5.27-4.25-5.19Z" fill="#fff"/><path d="M19.85,166.6c0,1.64-.07,6.17,2.3,6.17,2,0,2.31-2.15,2.31-3.67h3.39c0,3.63-1.6,6.94-5.73,6.94-5.5,0-6-5.85-6-10s.47-10.3,5.89-10.3S28,162,28,166v.58ZM24.22,164c0-1.52,0-5-2.22-5s-2.15,3.47-2.15,5Z" fill="#fff"/><path d="M34.08,158.3h.08a4.2,4.2,0,0,1,4-2.58c3.9,0,4,3.47,4,6.48v13.53H38.49V162.12c0-1.37-.24-3.12-2.19-3.12-2.41,0-2.22,2.77-2.22,4.45v12.28H30.41V156h3.67Z" fill="#fff"/><path d="M48.39,166.6c0,1.64-.08,6.17,2.3,6.17,2,0,2.3-2.15,2.3-3.67h3.4c0,3.63-1.6,6.94-5.74,6.94-5.49,0-6-5.85-6-10s.47-10.3,5.89-10.3,6,6.24,6,10.3v.58ZM52.76,164c0-1.52,0-5-2.22-5s-2.15,3.47-2.15,5Z" fill="#fff"/><path d="M59.64,156v-6.36c0-3.36.27-6.63,4.45-6.63a5.81,5.81,0,0,1,2.45.54v3.83A2.92,2.92,0,0,0,65,147c-1.87,0-1.71,1.83-1.71,3.16V156h3v2.88h-3v16.81H59.64V158.92H57.81V156Z" fill="#fff"/><path d="M67.59,150.07a2.44,2.44,0,0,1,4.88,0,2.44,2.44,0,1,1-4.88,0Zm4.25,25.66H68.18V156h3.66Z" fill="#fff"/><path d="M79.36,150.46V156h2v2.88h-2v16.81H75.69V158.92h-2V156h2v-5.58Z" fill="#fff"/><path d="M91.17,160.05A4.53,4.53,0,0,0,88.44,159a2.23,2.23,0,0,0-2.5,2.11c.08,3.31,6.16,3.47,6.16,9.08,0,3.47-2.14,5.85-5.65,5.85a5.5,5.5,0,0,1-3.2-.93v-3.59a4.64,4.64,0,0,0,3,1.25,2.27,2.27,0,0,0,2.46-2.5c0-3.47-6.16-3.7-6.16-9.16a5.11,5.11,0,0,1,5.26-5.39,6.17,6.17,0,0,1,3.32.86Z" fill="#fff"/><path d="M110.43,146.32l6.32,29.41h-3.94L111.72,170h-5.85l-1.09,5.73H101l6.4-29.41Zm-.08,16.39L108.87,152h-.08L106.45,167h4.68Z" fill="#fff"/><path d="M126.46,160.05a4.53,4.53,0,0,0-2.73-1.05,2.23,2.23,0,0,0-2.5,2.11c.08,3.31,6.16,3.47,6.16,9.08,0,3.47-2.14,5.85-5.65,5.85a5.5,5.5,0,0,1-3.2-.93v-3.59a4.62,4.62,0,0,0,3,1.25,2.27,2.27,0,0,0,2.46-2.5c0-3.47-6.16-3.7-6.16-9.16a5.11,5.11,0,0,1,5.26-5.39,6.17,6.17,0,0,1,3.32.86Z" fill="#fff"/><path d="M137.06,160.05a4.51,4.51,0,0,0-2.73-1.05,2.24,2.24,0,0,0-2.5,2.11c.08,3.31,6.17,3.47,6.17,9.08,0,3.47-2.15,5.85-5.66,5.85a5.5,5.5,0,0,1-3.2-.93v-3.59a4.66,4.66,0,0,0,3,1.25,2.27,2.27,0,0,0,2.46-2.5c0-3.47-6.16-3.7-6.16-9.16a5.12,5.12,0,0,1,5.27-5.39,6.14,6.14,0,0,1,3.31.86Z" fill="#fff"/><path d="M139.67,165.94c0-4.29.58-10.22,6.2-10.22s6.2,5.93,6.2,10.22-.58,10.1-6.2,10.1S139.67,170.08,139.67,165.94Zm8.66,0c0-1.56.35-6.86-2.46-6.86s-2.46,5.3-2.46,6.86c0,1.41-.35,6.75,2.46,6.75S148.33,167.35,148.33,165.94Z" fill="#fff"/><path d="M162.78,160.09h-.07a2,2,0,0,0-1.72-.93c-3.16,0-3.24,4.44-3.24,6.55s.08,6.9,3.16,6.9a2.85,2.85,0,0,0,1.87-.74v3.39a5.56,5.56,0,0,1-3,.78c-5.19,0-5.81-6.08-5.81-10,0-4.06.47-10.34,5.85-10.34a6.26,6.26,0,0,1,2.92.67Z" fill="#fff"/><path d="M164.31,150.07a2.44,2.44,0,0,1,4.87,0,2.44,2.44,0,1,1-4.87,0Zm4.25,25.66h-3.67V156h3.67Z" fill="#fff"/><path d="M179.36,173.2h-.08c-.74,1.71-1.52,2.84-3.62,2.84-4.57,0-4.64-7.21-4.64-10.41s.11-9.91,4.75-9.91a3.8,3.8,0,0,1,3.51,2.5h.08V156H183v19.69h-3.67Zm.12-7.34c0-1.56.16-6.86-2.3-6.86-2.73,0-2.42,5.27-2.42,6.86s-.31,6.91,2.42,6.91C179.64,172.77,179.48,167.42,179.48,165.86Z" fill="#fff"/><path d="M190.59,150.46V156h1.95v2.88h-1.95v16.81h-3.67V158.92h-2V156h2v-5.58Z" fill="#fff"/><path d="M193.87,150.07a2.44,2.44,0,0,1,4.88,0,2.44,2.44,0,1,1-4.88,0Zm4.25,25.66h-3.66V156h3.66Z" fill="#fff"/><path d="M200.51,165.94c0-4.29.59-10.22,6.2-10.22s6.2,5.93,6.2,10.22-.58,10.1-6.2,10.1S200.51,170.08,200.51,165.94Zm8.66,0c0-1.56.35-6.86-2.46-6.86s-2.45,5.3-2.45,6.86c0,1.41-.36,6.75,2.45,6.75S209.17,167.35,209.17,165.94Z" fill="#fff"/><path d="M219.07,158.3h.08a4.2,4.2,0,0,1,4-2.58c3.9,0,4,3.47,4,6.48v13.53h-3.67V162.12c0-1.37-.23-3.12-2.18-3.12-2.42,0-2.23,2.77-2.23,4.45v12.28h-3.66V156h3.66Z" fill="#fff"/><path d="M9.52,195.54c-.41,2.64-1.2,7.51-4.89,7.51s-3-4.87-2.56-7.51S3.27,188,7,188,9.94,192.9,9.52,195.54Zm-5.44,0c-.48,3.11-.67,5.69.83,5.69s2.11-2.58,2.6-5.69.67-5.69-.83-5.69S4.57,192.44,4.08,195.54Z" fill="#fff"/><path d="M13.16,194.18h0a2.47,2.47,0,0,1,2.14-1.28c1.9,0,1.69,1.73,1.46,3.22l-1.05,6.74H14L15,196.08c.1-.67.12-1.55-.83-1.55-1.18,0-1.3,1.38-1.43,2.22l-.95,6.11H10l1.53-9.8h1.79Z" fill="#fff"/><path d="M19.65,198.32c-.12.81-.51,3.06.65,3.06.95,0,1.29-1.06,1.4-1.82h1.66C23.08,201.36,22,203,20,203c-2.69,0-2.48-2.91-2.16-5s1-5.13,3.67-5.13S24,196,23.66,198l-.05.29ZM22,197c.11-.76.38-2.49-.7-2.49S20,196.26,19.86,197Z" fill="#fff"/><path d="M34.31,188.22l.81,14.64H33.2L33.11,200H30.25l-1,2.85H27.41l5.4-14.64ZM33,196.38l.1-5.32h0l-2.29,7.43h2.28Z" fill="#fff"/><path d="M40.88,195.06a1.85,1.85,0,0,0-1.25-.53,1.31,1.31,0,0,0-1.38,1.05c-.22,1.65,2.74,1.73,2.3,4.52A3.2,3.2,0,0,1,37.34,203a2.32,2.32,0,0,1-1.49-.46l.28-1.79a1.9,1.9,0,0,0,1.39.62,1.34,1.34,0,0,0,1.39-1.24c.27-1.73-2.72-1.84-2.3-4.56a3.05,3.05,0,0,1,3-2.68,2.63,2.63,0,0,1,1.55.43Z" fill="#fff"/><path d="M46.13,195.06a1.85,1.85,0,0,0-1.25-.53,1.32,1.32,0,0,0-1.38,1.05c-.22,1.65,2.74,1.73,2.3,4.52A3.2,3.2,0,0,1,42.59,203a2.32,2.32,0,0,1-1.49-.46l.28-1.79a1.9,1.9,0,0,0,1.39.62,1.34,1.34,0,0,0,1.39-1.24c.27-1.73-2.72-1.84-2.3-4.56a3.06,3.06,0,0,1,3-2.68,2.61,2.61,0,0,1,1.55.43Z" fill="#fff"/><path d="M47,198c.33-2.14,1.07-5.09,3.81-5.09s2.57,2.95,2.24,5.09-1.07,5-3.81,5S46.71,200,47,198Zm4.22,0c.12-.78.7-3.42-.67-3.42S49,197.21,48.85,198s-.69,3.36.68,3.36S51.14,198.69,51.25,198Z" fill="#fff"/><path d="M58.9,195.08h0a.8.8,0,0,0-.77-.47c-1.54,0-1.92,2.21-2.08,3.26s-.5,3.44,1,3.44a1.62,1.62,0,0,0,1-.37l-.26,1.69a3,3,0,0,1-1.5.38c-2.54,0-2.37-3-2.07-5s1-5.15,3.66-5.15a2.75,2.75,0,0,1,1.37.33Z" fill="#fff"/><path d="M60.75,202.86H59l1.52-9.8h1.79Zm-.09-12.77a1.46,1.46,0,0,1,1.39-1.21,1,1,0,0,1,1,1.21,1.47,1.47,0,0,1-1.37,1.22A1,1,0,0,1,60.66,190.09Z" fill="#fff"/><path d="M66.39,201.6h0c-.5.85-1,1.41-2,1.41-2.23,0-1.71-3.59-1.46-5.18s.82-4.93,3.09-4.93a1.53,1.53,0,0,1,1.52,1.24h0l.17-1.08H69.5L68,202.86H66.19ZM67,198c.12-.78.61-3.42-.59-3.42s-1.59,2.62-1.71,3.42-.69,3.43.64,3.43S66.89,198.72,67,198Z" fill="#fff"/><path d="M73.74,190.28l-.43,2.78h1L74,194.49h-1l-1.31,8.37H70l1.3-8.37h-1l.22-1.43h1l.43-2.78Z" fill="#fff"/><path d="M75.61,202.86H73.82l1.53-9.8h1.78Zm-.09-12.77a1.47,1.47,0,0,1,1.39-1.21,1,1,0,0,1,1,1.21,1.46,1.46,0,0,1-1.37,1.22A1,1,0,0,1,75.52,190.09Z" fill="#fff"/><path d="M77.74,198c.33-2.14,1.07-5.09,3.81-5.09s2.57,2.95,2.24,5.09-1.07,5-3.81,5S77.42,200,77.74,198ZM82,198c.12-.78.7-3.42-.67-3.42s-1.61,2.64-1.73,3.42-.69,3.36.68,3.36S81.85,198.69,82,198Z" fill="#fff"/><path d="M87.54,194.18h0a2.46,2.46,0,0,1,2.14-1.28c1.9,0,1.69,1.73,1.45,3.22l-1,6.74H88.34l1-6.78c.11-.67.13-1.55-.82-1.55-1.18,0-1.3,1.38-1.43,2.22l-1,6.11H84.4l1.52-9.8h1.79Z" fill="#fff"/><path d="M92.68,201.83A1.4,1.4,0,0,1,94,200.69a1,1,0,0,1,1,1.14A1.41,1.41,0,0,1,93.64,203,1,1,0,0,1,92.68,201.83Z" fill="#fff"/><path d="M104.85,188.22l-.89,5.71h2.87l.89-5.71h1.9l-2.27,14.64h-1.91l1.13-7.24H103.7l-1.13,7.24h-1.9l2.27-14.64Z" fill="#fff"/><path d="M112.66,193.06l-1,6.13c-.13.87-.45,2.16.77,2.16s1.25-1.19,1.39-2.06l1-6.23h1.79l-1,6.62c-.31,2-1.11,3.33-3.29,3.33-2.61,0-2.74-1.49-2.39-3.72l1-6.23Z" fill="#fff"/><path d="M119.88,194.18h0a2.49,2.49,0,0,1,2.14-1.28c1.91,0,1.69,1.73,1.46,3.22l-1,6.74h-1.79l1.06-6.78c.1-.67.13-1.55-.83-1.55-1.18,0-1.29,1.38-1.43,2.22l-1,6.11h-1.79l1.53-9.8h1.79Z" fill="#fff"/><path d="M128.11,201.6h0c-.49.85-1,1.41-2,1.41-2.22,0-1.7-3.59-1.46-5.18s.83-4.93,3.09-4.93a1.47,1.47,0,0,1,1.52,1.24h0l1.15-7.39h1.79l-2.51,16.11h-1.79Zm.63-3.65c.12-.78.6-3.42-.6-3.42s-1.58,2.62-1.71,3.42-.68,3.43.65,3.43S128.61,198.72,128.74,198Z" fill="#fff"/><path d="M134.48,194.26h0a2.59,2.59,0,0,1,2.25-1.36l-.28,1.81-.3,0c-1.34,0-1.87.75-2.06,2l-1,6.17h-1.8l1.52-9.8h1.79Z" fill="#fff"/><path d="M138.72,198.32c-.12.81-.51,3.06.65,3.06.95,0,1.29-1.06,1.41-1.82h1.65c-.28,1.8-1.32,3.45-3.33,3.45-2.69,0-2.48-2.91-2.16-5s1-5.13,3.67-5.13S143,196,142.73,198l0,.29Zm2.34-1.3c.12-.76.38-2.49-.7-2.49s-1.32,1.73-1.43,2.49Z" fill="#fff"/><path d="M147.33,201.6h0c-.49.85-1,1.41-2,1.41-2.23,0-1.71-3.59-1.46-5.18s.83-4.93,3.09-4.93c.91,0,1.27.51,1.52,1.24h0l1.15-7.39h1.79l-2.51,16.11h-1.79ZM148,198c.12-.78.61-3.42-.59-3.42s-1.59,2.62-1.71,3.42-.69,3.43.65,3.43C147.49,201.38,147.83,198.72,148,198Z" fill="#fff"/><path d="M155.4,195.06a1.85,1.85,0,0,0-1.25-.53,1.33,1.33,0,0,0-1.38,1.05c-.22,1.65,2.74,1.73,2.31,4.52a3.21,3.21,0,0,1-3.22,2.91,2.31,2.31,0,0,1-1.48-.46l.27-1.79a1.9,1.9,0,0,0,1.39.62,1.33,1.33,0,0,0,1.39-1.24c.27-1.73-2.72-1.84-2.29-4.56a3,3,0,0,1,3-2.68,2.61,2.61,0,0,1,1.55.43Z" fill="#fff"/><path d="M160.2,198c.33-2.14,1.08-5.09,3.82-5.09s2.56,2.95,2.23,5.09-1.07,5-3.81,5S159.88,200,160.2,198Zm4.22,0c.12-.78.71-3.42-.66-3.42s-1.61,2.64-1.73,3.42-.7,3.36.67,3.36S164.31,198.69,164.42,198Z" fill="#fff"/><path d="M168.84,193.06l.5-3.17c.26-1.67.64-3.3,2.68-3.3a2.49,2.49,0,0,1,1.16.28l-.3,1.9a1.26,1.26,0,0,0-.71-.24c-.91,0-1,.92-1.08,1.58l-.46,2.95h1.49l-.23,1.43h-1.48l-1.3,8.37h-1.79l1.3-8.37h-.89l.22-1.43Z" fill="#fff"/><path d="M175.82,202.86l2.28-14.64h2.38c2.59,0,3.08,1.46,2.7,3.92-.22,1.44-.73,2.84-2.31,3.25v0c1.56.52,1.74,1.8,1.48,3.43-.42,2.7-1.59,4-4.23,4Zm2.07-1.65c1.64.08,2.2-.8,2.45-2.41s.08-2.62-1.68-2.58ZM180,189.87h-.33l-.74,4.8c1.75.08,2.18-1,2.42-2.6C181.51,190.92,181.29,189.85,180,189.87Z" fill="#fff"/><path d="M185.7,198.32c-.12.81-.51,3.06.65,3.06,1,0,1.29-1.06,1.4-1.82h1.66c-.28,1.8-1.32,3.45-3.34,3.45-2.68,0-2.47-2.91-2.15-5s1-5.13,3.67-5.13S190,196,189.71,198l-.05.29ZM188,197c.11-.76.38-2.49-.7-2.49S186,196.26,185.9,197Z" fill="#fff"/><path d="M193.46,194.18h0a2.47,2.47,0,0,1,2.14-1.28c1.9,0,1.69,1.73,1.46,3.22l-1,6.74h-1.79l1.06-6.78c.1-.67.12-1.55-.83-1.55-1.18,0-1.3,1.38-1.43,2.22l-.95,6.11h-1.79l1.53-9.8h1.79Z" fill="#fff"/><path d="M200,198.32c-.12.81-.51,3.06.65,3.06,1,0,1.29-1.06,1.41-1.82h1.65c-.28,1.8-1.32,3.45-3.33,3.45-2.69,0-2.48-2.91-2.16-5s1-5.13,3.67-5.13S204.27,196,204,198l-.05.29Zm2.34-1.3c.11-.76.38-2.49-.7-2.49s-1.32,1.73-1.43,2.49Z" fill="#fff"/><path d="M206.56,193.06l.49-3.17c.26-1.67.65-3.3,2.68-3.3a2.46,2.46,0,0,1,1.16.28l-.3,1.9a1.23,1.23,0,0,0-.7-.24c-.92,0-1,.92-1.09,1.58l-.45,2.95h1.48l-.22,1.43h-1.49l-1.3,8.37H205l1.3-8.37h-.89l.22-1.43Z" fill="#fff"/><path d="M211.08,202.86h-1.79l1.53-9.8h1.79ZM211,190.09a1.48,1.48,0,0,1,1.39-1.21,1,1,0,0,1,1,1.21,1.46,1.46,0,0,1-1.37,1.22A1,1,0,0,1,211,190.09Z" fill="#fff"/><path d="M216.84,190.28l-.43,2.78h1l-.22,1.43h-.95l-1.3,8.37H213.1l1.3-8.37h-1l.22-1.43h1l.43-2.78Z" fill="#fff"/><path d="M221.77,195.06a1.85,1.85,0,0,0-1.25-.53,1.31,1.31,0,0,0-1.38,1.05c-.22,1.65,2.74,1.73,2.3,4.52a3.2,3.2,0,0,1-3.21,2.91,2.32,2.32,0,0,1-1.49-.46l.28-1.79a1.9,1.9,0,0,0,1.39.62,1.34,1.34,0,0,0,1.39-1.24c.27-1.73-2.72-1.84-2.3-4.56a3.05,3.05,0,0,1,3-2.68,2.63,2.63,0,0,1,1.55.43Z" fill="#fff"/><path d="M222.77,201.85a1.39,1.39,0,0,1,1.32-1.16,1,1,0,0,1,1,1.16,1.39,1.39,0,0,1-1.32,1.16A1,1,0,0,1,222.77,201.85ZM227,188.22l-1.73,11.13h-1.9l1.73-11.13Z" fill="#fff"/></svg>