<svg xmlns="http://www.w3.org/2000/svg" viewBox="0 0 344.21 50.05"><defs><style>.cls-1{fill:#0b4a7a;}</style></defs><title>logo</title><g id="Layer_2" data-name="Layer 2"><g id="Layer_1-2" data-name="Layer 1"><path class="cls-1" d="M185,37.07c-2.19.85-6.46.85-7.16.85H163.9V36.06h1c2.67,0,2.51-.16,2.51-3.42V5.77c0-2.19-.26-2.46-2.35-2.46H163.9V1.44h11.48c5,0,6.84.38,8.28,1a8.27,8.27,0,0,1,5.29,8,8.16,8.16,0,0,1-5.18,7.85v.11c2.14.42,7.59,1.7,7.59,9.24A9.65,9.65,0,0,1,185,37.07ZM177.15,3.79h-6.47V17.73H176c2.46,0,9.57,0,9.57-7.21C185.59,3.79,178.91,3.79,177.15,3.79Zm.21,16.29h-6.68V35.57h8c4.75,0,9.24-1.28,9.24-7.74C187.94,20.08,181,20.08,177.36,20.08Z"/><path class="cls-1" d="M198.76,24.36c.05,2.72.1,7.05,3.31,9.88a7.77,7.77,0,0,0,5.18,1.92c4.11,0,7.48-2.94,8.87-4.22v2.94a12.37,12.37,0,0,1-9.24,3.79c-7,0-11.22-5.18-11.22-12.82,0-10.73,6.52-13.62,11.16-13.62,9.46,0,9.73,8.87,9.78,12.13Zm8-10c-2.94,0-6.63,1.45-7.59,8h14.32C213.34,20.46,212.86,14.31,206.72,14.31Z"/><path class="cls-1" d="M236.41,37.92v-1.7c2.3,0,2.56,0,2.83-.49a6.57,6.57,0,0,0,.37-2.35V21.69c0-2.57-.16-6.79-5.6-6.79a7.52,7.52,0,0,0-6.25,3.37c-1.13,1.76-1,5-1,6v9.35c0,2.57-.05,2.57,2,2.57h1v1.7h-8.81v-1.7h1c2,0,2-.49,2-2.57V17.79c0-2,0-2.67-1.55-2.67a19.9,19.9,0,0,0-2.19.16V13.62l6-.69a12.93,12.93,0,0,1,.48,3.95h.11a8.45,8.45,0,0,1,7.9-4.44c3.26,0,5.61,1.29,7,3.48.43.75.91,1.92.91,5.66V34.35c0,1.87.16,1.87,2.08,1.87h1v1.7Z"/><path class="cls-1" d="M251.34,24.36c.06,2.72.11,7.05,3.31,9.88a7.82,7.82,0,0,0,5.19,1.92c4.11,0,7.47-2.94,8.86-4.22v2.94a12.34,12.34,0,0,1-9.24,3.79c-7,0-11.22-5.18-11.22-12.82,0-10.73,6.52-13.62,11.17-13.62,9.45,0,9.72,8.87,9.77,12.13Zm8-10c-2.94,0-6.62,1.45-7.58,8H266C265.93,20.46,265.45,14.31,259.3,14.31Z"/><path class="cls-1" d="M306.5,38.57c-4.81,0-4.81-4.12-4.81-6.57V15.12h-3.1V13.78c3.8-1.39,4.22-5.39,4.38-7.32h1.71v6.47h6.84v2.19h-6.84V31.78c0,1.87,0,4.49,2.73,4.49a8.88,8.88,0,0,0,4.7-1.71V36.8A10.08,10.08,0,0,1,306.5,38.57Z"/><path class="cls-1" d="M323.35,38.67a21,21,0,0,1-7.59-1.55V30h2.46v2.56a5.87,5.87,0,0,0,.32,2.19c.75,1.44,3.26,2,4.86,2,1.23,0,6.46-.16,6.46-5,0-2.08-1.28-3.68-5.5-5.39-4.59-1.87-8.17-3.42-8.17-7.64,0-3.21,2.13-6.52,8.17-6.52a14.71,14.71,0,0,1,7.05,1.6v6.41h-2.19V18.05a4.54,4.54,0,0,0-.26-1.87c-.54-1.28-2.89-2-4.7-2-3.42,0-5.29,1.65-5.29,4.06,0,2.88,2.51,4.06,5.82,5.39,3.95,1.6,8,3.26,8,7.85C332.75,35.57,329.6,38.67,323.35,38.67Z"/><path class="cls-1" d="M294.87,36.22C293,36.22,293,36.16,293,34v-21H279.16V10.68c0-2.89-.17-7.56,4.35-8.38,3.42-.61,5.5.82,6,1.4a2,2,0,0,0-1,1.73,2.08,2.08,0,1,0,4.16,0c0-1.28-1.74-5.77-8.81-5.1-7.46.7-7.56,7.25-7.56,9.18v3.42H272.8v2.13h3.48V33.65c0,2.3-.06,2.57-2.57,2.57h-.91v1.7h9.89v-1.7h-1.18c-1.39,0-1.71,0-2.08-.43-.22-.22-.27-.43-.27-2.57V15.06h10.49c.45.33.46,1.11.46,2.83V33.28c0,2.88.06,2.94-2.08,2.94h-1v1.7H296v-1.7Z"/><path class="cls-1" d="M35.58,18.46v-.11a8.24,8.24,0,0,0,5.06-7.93c0-9.16-9.48-9.16-12.67-9.16H13.16V5h1.23c2.39,0,2.39.8,2.39,2.4l0,10.27a9.28,9.28,0,0,1-8.9-6.19H7.12A12.34,12.34,0,0,1,0,18.58v.74a12.35,12.35,0,0,1,7.12,7.12h.73a9.28,9.28,0,0,1,8.91-6.19l3.3,0c5.45.29,15.86,1.36,16.21,7.08.38,6-5.05,6.23-7.13,6.23h-6V24a15.9,15.9,0,0,0-6.36-1.38l0,9.09c0,2.29-.26,2.61-2.39,2.61H13.16V38H30.1a19,19,0,0,0,6.55-.91,9.86,9.86,0,0,0,6.28-9.59C42.93,20.27,37.39,18.83,35.58,18.46Zm-12.46-.68v-12h4.69c1.43,0,6.55,0,6.55,5.22C34.36,16.66,31.24,17.76,23.12,17.78Z"/><path class="cls-1" d="M55,12.18a22.5,22.5,0,0,1,.48,4.49h.11c.59-1.07,2.72-4.87,7.16-4.87a7,7,0,0,1,3.15.75v6.84H61.63c0-1.23,0-2.4-1.39-2.4-1.23,0-4.76,1.86-4.76,9.93v5.72c0,1.33.22,1.87,2,1.87H58.9v3.41H46.56V34.51h.81c1.92,0,2.29-.38,2.29-2.35V18.48c0-2.4-.59-2.4-3.42-2.24V12.87Z"/><path class="cls-1" d="M79.23,11.75V31.67c0,2.57,0,2.84,2.14,2.84h.8v3.41H69.94V34.51h1.28c1.66,0,2-.22,2-2.3V19.44c0-2.77,0-3.42-2-3.42H69.62V12.6Zm0-8.17a3.39,3.39,0,0,1-3.6,3.47,3.33,3.33,0,0,1-3.54-3.42A3.37,3.37,0,0,1,75.65.21,3.3,3.3,0,0,1,79.2,3.58Z"/><path class="cls-1" d="M110.49,16.24h-4.27a8.65,8.65,0,0,1,1.44,5,8.69,8.69,0,0,1-4,7.69c-1.65,1-3,1.28-6.57,1.5-1.81.1-4.59.26-4.59,1.92,0,1.34,1.81,1.66,4.11,1.76.64,0,4,.16,4.59.16,2.84.11,9.35.43,9.35,6.84a8.15,8.15,0,0,1-4.32,7.1c-2.73,1.45-6.2,1.82-9.62,1.82-6.89,0-12.77-1.17-12.77-6.3,0-2.94,2.46-5.18,5.72-5.77v-.11a3.78,3.78,0,0,1-3-3.68c0-2.73,2.24-3.85,4.64-4.87a8.62,8.62,0,0,1-5.23-8.27c0-5.56,3.58-9.73,11-9.73a14.82,14.82,0,0,1,5.13.86h8.49Zm-13.25,30c2.3,0,7.48-.48,7.48-3.68,0-2-2-2.94-7.48-2.94-2.62,0-7.48.16-7.48,3.26C89.76,45.4,93.5,46.2,97.24,46.2Zm4.44-25.42c0-2.4-.65-6.14-4.92-6.14-4.54,0-4.75,5.23-4.75,6.46C92,23.77,93.29,27,96.92,27,99.65,27,101.68,24.84,101.68,20.78Z"/><path class="cls-1" d="M121.88,0V15.6h.1c.54-1,2.57-4,7.59-4,8.44,0,8.38,7,8.38,10.15V31.89c0,2.62.11,2.62,3.05,2.62v3.41H128.66V34.51h.91c2.14,0,2.14-.32,2.14-3.1V22.49c0-2.19,0-6.15-4.22-6.15-5.61,0-5.61,6.25-5.61,7.86v7.47c0,2.52,0,2.84,2,2.84h1v3.41H112.64V34.51h.9c2.19,0,2.3-.38,2.3-2.84V7.05c0-2.51,0-2.78-2.3-2.78h-1.33V1Z"/><path class="cls-1" d="M152.36,4.59v7.59h6.47V16.5h-6.47v13c0,1.44,0,4.17,2.62,4.17,1.28,0,2.14-.38,4.17-1.29V36.7a13.41,13.41,0,0,1-6.63,1.87c-6.41,0-6.41-5.08-6.41-7.27V16.5h-3.2V13.09c5-1.66,5.5-6.36,5.77-8.5Z"/><path class="cls-1" d="M340,37.69v.54h-1V41h-.65V38.23h-1v-.54ZM343.57,41,343.45,39c0-.25,0-.56,0-.91h0c-.09.29-.18.67-.28,1l-.59,1.81h-.67L341.26,39l-.22-.92h0c0,.3,0,.61,0,.91L340.86,41h-.63l.24-3.26h1l.57,1.59c.07.26.13.49.21.83h0c.08-.3.15-.57.22-.82l.57-1.6H344l.25,3.26Z"/></g></g></svg>