<svg aria-labelledby="idgTitle" role="img" viewBox="0 0 150 52" xmlns="http://www.w3.org/2000/svg" xmlns:xlink="http://www.w3.org/1999/xlink"><title id="idgTitle">Identity Guard</title><g fill="none"><path d="M46.996 28.313h1.173V17.01h-1.173zM59.8757 27.2138c.458 0 .948-.0884 1.4688-.2667.5213-.1778 1.0034-.4553 1.4464-.8324.4426-.3766.8101-.8501 1.1017-1.4205.2917-.5704.438-1.2483.438-2.033 0-.785-.1463-1.4654-.438-2.0414-.2916-.575-.6591-1.049-1.1017-1.4205-.443-.3715-.9251-.6461-1.4464-.8244-.5208-.1778-1.0109-.2667-1.4688-.2667H58.469v9.1056h1.4068zM57.2964 17.009h2.6105c.6252 0 1.2685.1072 1.9305.322.6615.2147 1.2633.552 1.8056 1.0124.5413.461.9866 1.0467 1.336 1.7584.3494.7121.5236 1.565.5236 2.5593s-.1742 1.8473-.5236 2.559c-.3494.7116-.7947 1.295-1.336 1.7503-.5423.4552-1.1441.793-1.8056 1.013-.662.2194-1.3053.3294-1.9305.3294h-2.6105V17.009zM74.006 17.009h5.111l.14 1.099h-4.079v3.847h3.517v1.098h-3.517v4.161h4.361l-.141 1.099h-5.392zM88.042 17.009h1.173l6.564 9.342v-9.342h1.173v11.304h-1.173l-6.564-9.342v9.342h-1.173zM107.487 18.187h-2.501l.156-1.178h5.862l.156 1.178h-2.5v10.126h-1.173zM119.194 28.313h1.173V17.009h-1.173zM130.902 18.187h-2.501l.156-1.178h5.862l.156 1.178h-2.501v10.126h-1.172zM145.063 24.357l-3.548-7.348h1.328l2.814 5.966 2.813-5.966h1.329l-3.58 7.348v3.956h-1.156zM50.7304 48.1c-.7817 0-1.5135-.1567-2.196-.4707-.6829-.3144-1.2796-.7406-1.7902-1.2797-.51-.539-.9116-1.1697-1.2032-1.8921-.2921-.722-.438-1.4963-.438-2.323 0-.8273.1459-1.6017.438-2.324.2916-.722.6931-1.3523 1.2032-1.8918.5106-.539 1.1073-.9657 1.7903-1.2796.6824-.314 1.4142-.4707 2.196-.4707.625 0 1.1934.0655 1.7035.196.5105.131.969.3065 1.3756.526.4062.2198.7607.4767 1.063.7696.3024.2929.5628.6069.7813.9419l-.8437.7065c-.4793-.6284-1.0448-1.1253-1.696-1.4917-.6513-.3663-1.4456-.5493-2.3838-.5493-.6046 0-1.1776.131-1.7194.3926-.5418.2615-1.016.6171-1.4222 1.0673-.4067.45-.7272.9685-.9615 1.5543-.2348.5863-.3517 1.2039-.3517 1.8528 0 .649.1197 1.2666.3592 1.8524.2399.5863.5632 1.1042.9694 1.5543.4067.4501.878.8057 1.4147 1.0673.5367.262 1.1069.3926 1.7115.3926.7086 0 1.37-.1334 1.9854-.4006.6145-.2667 1.1665-.7191 1.6565-1.3578v-2.653h-3.048l.2814-1.0835h3.8916v4.3176c-.218.293-.4788.5755-.7812.8474-.3023.2723-.6512.5156-1.0472.7304-.3964.2147-.839.3846-1.3285.5104-.4901.1254-1.0263.1881-1.61.1881m17.616 0c-.5628 0-1.0943-.0889-1.5946-.2667-.4999-.1782-.9354-.4473-1.3053-.8085-.3699-.3612-.6638-.8062-.8828-1.3344-.219-.5287-.3284-1.1487-.3284-1.8603v-7.3478h1.172v7.3478c0 .4917.076.9339.2274 1.326.1505.3925.3592.7252.6251.997.2656.2723.5782.482.9378.6284.3596.1465.7425.2195 1.1487.2195s.7864-.073 1.1409-.2195c.354-.1464.6643-.356.9303-.6284.266-.2718.477-.6045.633-.997.1565-.3921.2343-.8343.2343-1.326v-7.3478h1.1726v7.3478c0 .7116-.1095 1.3316-.3285 1.8603-.2189.5282-.5128.9732-.8832 1.3344-.3699.3612-.805.6303-1.3053.8085-.4998.1778-1.0313.2667-1.594.2667m30.4172-6.4369c.2916 0 .573-.0313.8441-.094.2712-.0627.513-.1727.7267-.3299.2139-.1567.383-.3659.5083-.6279.1248-.2615.1877-.5914.1877-.9891 0-.387-.0629-.7117-.1877-.9732-.1253-.2616-.2944-.4712-.5083-.628-.2138-.1571-.4555-.2694-.7267-.3377a3.4643 3.4643 0 0 0-.844-.102h-1.2508v4.0818h1.2507zm-2.4228-5.181h2.4228c.4482 0 .881.0604 1.2974.1807.417.1202.7845.3088 1.1017.5652.3177.2564.5707.584.758.9812.1881.3981.2818.8688.2818 1.413 0 .555-.0937 1.0205-.2819 1.3976-.1872.3766-.4272.6882-.7188.9339a3.0895 3.0895 0 0 1-.9764.5572c-.36.1259-.7169.2097-1.071.2513l3.5172 5.0237h-1.4851l-3.361-5.0237h-.3126v5.0237h-1.172V36.4822zm17.1786 10.2049c.458 0 .948-.0884 1.4688-.2667.5208-.1778 1.003-.4553 1.446-.8324.443-.3766.81-.8501 1.1022-1.4205.2916-.5703.4379-1.2483.4379-2.033 0-.785-.1463-1.4654-.438-2.0414-.292-.575-.659-1.049-1.1021-1.4205-.443-.3715-.9252-.6461-1.446-.8244-.5208-.1778-1.0108-.2667-1.4688-.2667h-1.4073v9.1056h1.4073zm-2.5793-10.2047h2.61c.6257 0 1.269.1072 1.9305.322.662.2147 1.2634.552 1.8056 1.0124.5418.4604.9871 1.0467 1.3365 1.7584.349.7121.5236 1.565.5236 2.5593s-.1747 1.8473-.5236 2.559c-.3494.7116-.7947 1.295-1.3365 1.7503-.5422.4553-1.1436.793-1.8056 1.013-.6615.2194-1.3048.3294-1.9304.3294H110.94V36.4823zM84.076 38.383l-3.119 9.403H79.71l4.366-12.579 4.366 12.579h-1.248z" fill="currentColor"></path><path class="idg-idguard-text-logo-aura" d="M48.095 6.1133l.274-.6246c.0904-.2564.1742-.4876.2483-.6873.075-.2003.1416-.38.1998-.539.0583-.1587.1128-.3051.1621-.4394.0513-.1352.1011-.2658.1519-.3921l.1458-.3687.1398.371c.1453.3865.278.7257.4048 1.0378.128.3168.2608.6588.3936 1.0163l.273.6232 1.01 2.3423.4103.0009c-.2147-.5222-.4537-1.0883-.6857-1.6385-.2399-.568-.4877-1.1562-.7113-1.7004a254.5329 254.5329 0 0 0-1.2364-2.9612L46.6566 8.486l.4411-.007c.1542-.3645.314-.7416.4794-1.131.1788-.422.3517-.8337.518-1.2347m6.7242 1.659c.231.2162.504.3922.8105.5227.3047.1296.6331.1951.9774.1951.3363 0 .6605-.0655.9642-.1951.3061-.13.5744-.3055.7962-.5208.2217-.2147.4015-.473.5357-.7682.1313-.2925.198-.6064.198-.934V2.2171h-.4049v3.855c0 .2802-.055.5446-.1625.7846a2.031 2.031 0 0 1-.445.6321c-.1881.1797-.4117.3233-.6651.4263-.2534.1029-.526.1553-.8101.1553-.293 0-.5707-.0524-.824-.1553a2.2389 2.2389 0 0 1-.6742-.4244 2.0036 2.0036 0 0 1-.4653-.6317c-.1128-.24-.17-.5048-.17-.787V2.2171h-.4053v3.855c0 .3275.067.6419.1989.9339a2.387 2.387 0 0 0 .5455.7664m8.1912-2.236V2.5181h1.378c.203 0 .3992.0397.5841.1183.185.0786.347.189.4813.3285.1336.138.2408.3008.3186.4838.0787.1857.1183.3865.1183.5975 0 .203-.0396.3982-.1188.5797a1.5194 1.5194 0 0 1-.32.4721c-.1337.1343-.2954.2419-.4794.32a1.4835 1.4835 0 0 1-.5841.1184h-1.378zm3.5143 2.878h.5194c-.0447-.0608-.0927-.125-.143-.1928a58.0099 58.0099 0 0 0-.3922-.5203 92.485 92.485 0 0 1-.4011-.5282 19.3927 19.3927 0 0 0-.3405-.4426l-.7114-.9138.1845-.0786c.3461-.1465.5977-.365.7691-.6672.1738-.3051.2613-.6527.2613-1.0331 0-.2452-.0484-.4843-.1444-.7108a2.0881 2.0881 0 0 0-.395-.6124c-.165-.1769-.3652-.3215-.5958-.4296-.2287-.1071-.4803-.161-.7472-.161h-1.7576v6.2904h.3796V5.9556h1.6156l1.8987 2.4588zm4.2476-2.301l.2735-.6247c.089-.2527.1728-.4843.2487-.6873.0746-.2003.1416-.38.1999-.539.0582-.1587.1122-.3051.162-.4394.0509-.1352.1012-.2658.1515-.3921l.1463-.3687.1397.371c.1449.3865.2776.7257.4048 1.0378.1281.3168.2609.6588.3937 1.0163l.273.6232 1.0094 2.3423.4328.0018c-.2097-.5076-.4468-1.0574-.6769-1.5913-.252-.5844-.512-1.1889-.742-1.7485a271.7476 271.7476 0 0 0-1.236-2.9603l-2.6012 6.323h.4235c.1542-.364.314-.7406.4793-1.1294.1784-.422.3513-.8338.518-1.2348M74.788 2.343h-.269v-.095h.647v.095h-.271v.762h-.107zM76.036 2.392l-.29.713h-.044l-.289-.713v.713h-.106v-.857h.152l.265.653.266-.653h.153v.857h-.107zM46.977.875h4.61V.468h-4.61z" fill="#939597"></path><path d="M17.711 45.906L3.656 17.216l14.055 2.501V17.74L0 14.57l17.711 36.357zM19.884 17.721v33.015L37.103 14.57z" fill="currentColor"></path></g></svg>
